<?xml version="1.0" encoding="UTF-8"?>
<!DOCTYPE svg PUBLIC "-//W3C//DTD SVG 1.1//EN" "http://www.w3.org/Graphics/SVG/1.1/DTD/svg11.dtd">
<svg version="1.1" id="HaritaCizim" xmlns="http://www.w3.org/2000/svg" xmlns:xlink="http://www.w3.org/1999/xlink" x="0px" y="0px" viewBox="0 0 600 576" preserveAspectRatio="none">
    <defs id="__def">
        <radialGradient id="f">
            <stop offset="0" stop-color="white" stop-opacity="1"/>
            <stop id="STOP1" offset=".4" stop-opacity="1"/>
            <stop offset="1" stop-color="white" stop-opacity=".2"/>
        </radialGradient>
        <filter id="__flt1" x="0" y="0" width="200%" height="200%" filterUnits="objectBoundingBox">
            <feGaussianBlur in="SourceAlpha" stdDeviation="3" result="blur1"/>
            <feSpecularLighting result="specOut" in="blur1" specularConstant="1.5" specularExponent="20" lighting-color="#bbbbbb">
                <feDistantLight azimuth="45" elevation="30"/>
            </feSpecularLighting>
            <feComposite in="specOut" in2="SourceAlpha" operator="in" result="specOut"/>
            <feComposite in="SourceGraphic" in2="specOut" operator="arithmetic" k1="0" k2="1" k3="1" k4="0"/>
        </filter>
        <filter id="__flt2" x="0" y="0" width="200%" height="200%" filterUnits="objectBoundingBox">
            <feGaussianBlur in="SourceAlpha" stdDeviation="3" result="blur1"/>
            <feSpecularLighting result="specOut" in="blur1" specularExponent="20" lighting-color="#bbbbbb">
                <fePointLight x="-2000" y="100" z="2000"/>
            </feSpecularLighting>
            <feComposite in="specOut" in2="SourceAlpha" operator="in" result="specOut"/>
            <feComposite in="SourceGraphic" in2="specOut" operator="arithmetic" k1="0" k2="1" k3="1" k4="0"/>
        </filter>
        <filter id="__flt3" x0="-50%" y0="-50%" width="200%" height="200%" filterUnits="objectBoundingBox">
            <feGaussianBlur in="SourceAlpha" stdDeviation="3" result="blur"/>
            <feOffset in="blur" dx="0" dy="0" result="offsetBlur"/>
            <feSpecularLighting in="blur" surfaceScale="4" specularConstant=".5" specularExponent="20" lighting-color="flavor" result="specOut">
                <fePointLight x="-5000" y="-10000" z="5000"/>
            </feSpecularLighting>
            <feComposite in="specOut" in2="SourceAlpha" operator="in" result="specOut"/>
            <feComposite in="SourceGraphic" in2="specOut" operator="arithmetic" k1="0" k2="1" k3="1" k4="0" result="litPaint"/>
            <feMerge>
                <feMergeNode in="offsetBlur"/>
                <feMergeNode in="litPaint"/>
            </feMerge>

        </filter>
        <filter id="__flt4" x0="-50%" y0="-50%" width="200%" height="200%">
            <feGaussianBlur in="SourceAlpha" stdDeviation="2" result="blur"/>
            <feOffset dy="-1" dx="-1"/>
            <feComposite in2="SourceAlpha" operator="arithmetic" k2="-1" k3="1" result="hlDiff"/>
            <feFlood flood-color="white" flood-opacity=".7"/>
            <feComposite in2="hlDiff" operator="in"/>
            <feComposite in2="SourceGraphic" operator="over" result="withGlow"/>

            <feOffset in="blur" dy="3" dx="3"/>
            <feComposite in2="SourceAlpha" operator="arithmetic" k2="-1" k3="1" result="shadowDiff"/>
            <feFlood flood-color="black" flood-opacity="1"/>
            <feComposite in2="shadowDiff" operator="in"/>
            <feComposite in2="withGlow" operator="over"/>
        </filter>
        <filter id="__golge1" x="0" y="0" width="200%" height="200%" filterUnits="userSpaceOnUse">
            <feOffset result="offOut" in="SourceAlpha" dx="8" dy="8"/>
            <feGaussianBlur result="blurOut" in="offOut" stdDeviation="3"/>
            <feBlend in="SourceGraphic" in2="blurOut" mode="normal"/>
        </filter>
    </defs>
    <g id="__Komsular" display="none">
        <radialGradient id="SVGID_1_" cx="206.2234" cy="254.3035" r="4.1666" gradientUnits="userSpaceOnUse">
            <stop offset="0" style="stop-color:#5160AC"/>
            <stop offset="1" style="stop-color:#FFFFFF"/>
        </radialGradient>
        <path fill-rule="evenodd" clip-rule="evenodd" fill="url(#SVGID_1_)" stroke="#000000" stroke-width="0.25" stroke-miterlimit="10" d="   M203.28,254.97c0.24-0.24,0.3-0.32,0.64-0.32c0.53-0.64,1.06-1.27,1.59-1.91c0.54,0,1.25-0.28,1.43-0.8   c0.58,0.05,1.17,0.11,1.75,0.16c0.26-0.26,0.9-0.37,1.27-0.32c0.53,0.08,2.13,0.23,1.38,0.7c-0.55,0.29-1.01,0.03-1.7,0.09   c-0.72,0.54-1.42,0.79-2.07,1.43c-0.34-0.34-1.36-0.21-1.72,0.05c-0.75,0.57-0.16,1.63-0.86,2.1c-0.65,0.44-3.02,1.09-3.54,0.29   c-0.4-0.61-1.05-2.79,0.07-2.75C201.85,254.02,202.74,255.51,203.28,254.97z"/>
        <text transform="matrix(1 0 0 1 355.4729 48.3076)" font-family="'MyriadPro-Regular'" font-size="12">ESKİŞEHİR</text>
        <text transform="matrix(0.2345 -1.0794 0.9772 0.2123 537.7678 247.0474)" font-family="'MyriadPro-Regular'" font-size="12">KONYA</text>
        <text transform="matrix(0.4552 -0.8904 0.8904 0.4552 161.6443 124.7986)" font-family="'MyriadPro-Regular'" font-size="12">KÜTAHYA</text>
        <text transform="matrix(0.3211 -0.947 0.947 0.3211 76.8398 247.8872)" font-family="'MyriadPro-Regular'" font-size="12">UŞAK</text>
        <radialGradient id="SVGID_2_" cx="114.7236" cy="488.3762" r="45.2765" fx="113.2988" fy="488.6616" gradientTransform="matrix(0.988 -0.1548 0.0774 0.494 -36.4108 264.8864)" gradientUnits="userSpaceOnUse">
            <stop offset="0" style="stop-color:#5160AC"/>
            <stop offset="1" style="stop-color:#FFFFFF"/>
        </radialGradient>
        <path fill-rule="evenodd" clip-rule="evenodd" fill="url(#SVGID_2_)" stroke="#000000" stroke-width="0.25" stroke-miterlimit="10"
              d="   M92.77,484.38c1-0.48,2-0.96,3.01-1.44c0.42-0.13,0.69-0.58,1.11-0.37c0.27-0.43,1.09-1.97,0.96-2.39   c0.15,0.01,0.31,0.03,0.46,0.04c1.44,0.3,2.88,0.61,4.32,0.91c2.03-0.26,4.01-0.04,6.05-0.16c0.93-0.05,3.75-0.39,4.46,0.16   c0.59-0.27,1.91-0.58,2.07-1.27c0.89,0.2,2.13,1.02,3.03,0.8c1.33-0.37,2.65-0.74,3.98-1.11c1.25-0.9,2.49-1.8,3.74-2.7   c0.29-0.27,0.59-0.54,0.88-0.81c0.58-0.74,1.17-1.49,1.75-2.23c0.22-0.3,1.12-0.75,1.43-0.64c0.81-0.61,1.62-1.22,2.43-1.83   c0.78-0.51,3.02-2.19,3.9-1.92c1.2,0.33,4.74,1.21,5.3,2.31c0.54,0.42,1.07,0.84,1.61,1.26c0.05,0.38,0.1,0.75,0.14,1.13   c-0.05,0.42-0.11,0.85-0.16,1.27c-0.33,0.95-0.65,1.9-0.98,2.85c-0.12,1.03-0.04,2.02-0.29,3.04c-0.37,0.48-0.74,0.96-1.11,1.43   c-1.1,0.53-1.74,1.36-2.68,2.07c-0.75,0.44-1.51,0.89-2.26,1.33c-0.4,0.42-0.8,0.84-1.19,1.25c-0.77,0.57-1.53,1.14-2.3,1.71   c-0.32,0-0.64,0-0.96,0c-0.77,0.28-2.68,1.38-2.87,2.23c-0.64,0.48-1.27,0.96-1.91,1.43c-0.46,0.38-1.41,0.66-1.59,1.27   c-1.3,0.85-2.21,1.4-3.83,1.5c-0.53,0.05-1.07,0.1-1.6,0.14c-0.09,0.42-0.19,0.85,0.02,1.22c-0.47,0.77-1.93,2.49-2.86,2.34   c-0.65-0.1-1.11-0.47-1.44-1.07c-0.43,0.43-0.72,0.16-1.43,0.16c-0.34-0.19-0.71-0.25-0.8-0.64c-0.48-0.07-0.96,0.06-1.27-0.32   c-0.04,0.02-0.08,0.05-0.12,0.07c-0.81,0.39-1.63,0.78-2.44,1.17c-0.29,0.55-0.59,1.1-0.88,1.65c-0.3,0.2-1.54,0.75-1.72,0.54   c-0.23-0.26-0.19-0.42-0.57-0.4c-0.08-0.33-0.06-0.75-0.46-0.82c-1.37-0.24-2.59,0.58-3.87,1.1c-0.33,0.5-1.03,0.21-1.41,0.68   c-0.15-0.08-0.3-0.16-0.45-0.24c-0.61-0.39-1.21-0.78-1.82-1.17c-0.36-0.16-0.73-0.33-1.09-0.49c-0.42-0.01-1.04-0.27-1.26-0.64   c-0.64,0.05-1.27,0.11-1.91,0.16c-0.63,0.26-1.37,0.47-2.07,0.32c-0.49-0.25-0.98-0.5-1.46-0.76c-0.5-0.25-0.78-0.14-1.08-0.68   c0.32,0,0.64,0,0.96,0c0.27-0.16,0.53-0.32,0.8-0.48c0.02-0.41,0.05-0.82,0.07-1.22c0.17-0.77,1.2-0.02,1.2-0.69   c0.13-0.22-0.01-0.32-0.19-0.43c-0.93-0.51-1.95-0.93-3.01-1.06c-0.53-0.03-1.05-0.07-1.58-0.1c-0.8-0.16-1.59-0.32-2.39-0.48   c-1.02-0.16-2.34-1.29-3.34-0.96c-0.25-0.25-1.87-1.35-1.7-1.71c0.21-0.42,0.5-1.48,1.22-1.48c0.38,0.19,0.79,0.27,0.96,0.64   c0.71-0.25,1.32-0.32,2.07-0.32c-0.59-0.59-0.22-1.02,0.37-1.28c0.73-0.29,1.17-0.1,1.7-0.63c0.21,0,0.42,0,0.64,0   c0.26-0.53,0.74-0.91,1.43-0.96c0.42,0.11,0.85,0.21,1.27,0.32c0.58-0.11,1.17-0.21,1.75-0.32c0.25-0.27,0.49-0.54,0.74-0.81   c0.32-0.23,0.43,0.07,0.69,0.33c-0.08-0.27-0.16-0.54-0.24-0.82C92.62,485.09,92.45,484.55,92.77,484.38z"/>
        <radialGradient id="SVGID_3_" cx="310.7615" cy="291.7644" r="11.2416" gradientUnits="userSpaceOnUse">
            <stop offset="0" style="stop-color:#5160AC"/>
            <stop offset="1" style="stop-color:#FFFFFF"/>
        </radialGradient>
        <path fill-rule="evenodd" clip-rule="evenodd" fill="url(#SVGID_3_)" stroke="#000000" stroke-width="0.25" stroke-miterlimit="10" d="   M313.97,283c0.11,0.27,0.21,0.53,0.32,0.8c0.6,0,1.19-0.31,1.48,0.21c0.08,0.24,0.15,0.49,0.23,0.73c-0.19,0.61-0.45,1.05-0.75,1.6   c-0.54,0.21-0.88,0.19-1.34,0.58c-0.56,0.52-1.13,1.04-1.69,1.56c-0.5,0.14-1.01,0.28-1.51,0.42c-0.08-0.04-0.16-0.09-0.23-0.13   c0.3,1.33-0.32,1.34-1.28,2.03c-0.27,0.58-0.53,1.17-0.8,1.75c-0.12,1.05-0.25,2.11-0.37,3.17c-0.35,0.38-0.71,0.76-1.07,1.13   c-0.1,0.73-0.36,2.65-0.96,3.03c0,0.21,0,0.42,0,0.64c-0.16-0.58-0.32-1.17-0.48-1.75c0.58-1.86,1.17-3.72,1.75-5.57   c0-0.84-0.05-2.59,0.8-3.03c0.13-0.53,0.47-1.29,0.22-1.78c0-0.06,0.01-0.12,0.01-0.18C310.59,286.98,312.2,284.89,313.97,283z"/>
        <radialGradient id="SVGID_4_" cx="341.9678" cy="308.5474" r="23.7571" gradientTransform="matrix(0.8476 -0.5306 0.2653 0.4238 -29.7499 359.2256)" gradientUnits="userSpaceOnUse">
            <stop offset="0" style="stop-color:#5160AC"/>
            <stop offset="1" style="stop-color:#FFFFFF"/>
        </radialGradient>
        <path fill-rule="evenodd" clip-rule="evenodd" fill="url(#SVGID_4_)" stroke="#000000" stroke-width="0.25" stroke-miterlimit="10" d="   M344.87,297.34c0.45,0.21,1.5,1.21,0.96,1.75c-0.32,0.63-0.63,1.26-0.95,1.89c-0.27,0.17-0.53,0.34-0.8,0.5c-0.27,0-0.53,0-0.8,0   c-0.69,0.21-1.38,0.42-2.07,0.64c-0.29,0.19-0.44,0.36-0.8,0.32c-0.27,0.28-0.54,0.56-0.81,0.84c-0.16,0.41-0.31,0.82-0.47,1.23   c0,1.06-0.37,1.77-1.09,2.57c-0.05,0.74-0.24,1.41-0.58,2.06c-0.49-0.01-1.73,0.97-1.99,1.43c-0.45,0.27-0.9,0.54-1.35,0.81   c-0.82,0.58-1.65,1.16-2.47,1.74c-0.24,0.4-0.48,0.8-0.73,1.2c-1.04,1.42-2.74,2.75-3.1,4.53c-0.1,0.51-0.39,1.37-0.09,1.87   c0.28,0.5,0.96,1.54,1.47,0.65c0.89-1.36,1.74-2.79,3.08-3.79c0.14,0.19,0.29,0.38,0.43,0.57c1.17,0.36,4.33,0.08,5.15-0.73   c0-1.19,0.54-3.61,2.21-3.29c1.6,0.31,2.8,1.13,4.31,1.54c0.72-0.72,2.85-0.96,3.82-1.27c1.33-0.8,2.65-1.59,3.98-2.39   c0.38-0.14,0.75-0.27,1.13-0.41c0.58-0.24,1.16-0.47,1.74-0.71c0.42-0.05,0.85-0.11,1.27-0.16c-0.15-0.2-0.3-0.41-0.45-0.61   c-0.75-1.23-1.5-2.46-2.25-3.69c-0.32-1.06-0.64-2.12-0.96-3.19c0.37-1.74,0.52-3.67,0.18-5.42c-0.08-0.43-0.04-1.13-0.33-1.44   c-0.54-0.61-1.26-1.2-2.04-0.91c-0.86,0.52-1.73,1.04-2.59,1.55c-0.64-0.12-1.39-0.11-1.91-0.64c-0.44,0.13-0.61,0.18-0.96-0.16   c-0.01,0.05-0.01,0.1-0.02,0.15C344.96,296.7,344.91,297.02,344.87,297.34z"/>
        <radialGradient id="SVGID_5_" cx="333.6526" cy="197.4902" r="5.1578" gradientUnits="userSpaceOnUse">
            <stop offset="0" style="stop-color:#5160AC"/>
            <stop offset="1" style="stop-color:#FFFFFF"/>
        </radialGradient>
        <path fill-rule="evenodd" clip-rule="evenodd" fill="url(#SVGID_5_)" stroke="#000000" stroke-width="0.25" stroke-miterlimit="10" d="   M330.11,191.39c0.35,0.54,0.7,1.09,1.05,1.63c0,0.68-0.03,1.64,0.32,2.23c-0.31,0.31-0.32,0.69-0.32,1.11   c-0.45,0.36-0.91,0.71-1.36,1.07c0.31,0.48,0.06,0.49,0.08,1c0.47,0,1.08,1.36,1.27,1.91c-0.05,0.11-0.11,0.21-0.16,0.32   c0.16,0.59,0.64,0.93,0.64,1.59c0.26,0.42,0.72,1.43,1.27,1.43c0.44,0,0.54-0.29,0.8-0.64c0.32,0.11,0.64,0.21,0.96,0.32   c-0.27-0.27,0.16-0.6,0.43-0.81c0.23-0.21,0.46-0.42,0.69-0.63c0.47,0,1.36-0.63,1.19-1.14c-0.08-0.1-0.16-0.2-0.23-0.29   c0.27-0.27,1.21-1.91,0.48-1.91c-0.21,0-0.42,0-0.64,0c-0.96,0.96-3.19,1.55-3.19,3.34c0.05-0.32,0.11-0.64,0.16-0.96   c-0.47-0.33-0.6-0.68-0.96-1.11c0.21-0.03,0.41-0.06,0.62-0.08c0.21-0.04,0.34,0.02,0.33-0.23c-0.05-0.85-0.1-1.7-0.15-2.55   c-0.21-0.21-0.42-0.42-0.64-0.64c-0.27-0.96-0.53-1.91-0.8-2.87c-0.39-0.39-0.34-0.82-0.64-1.27c-0.21-0.11-0.42-0.21-0.64-0.32   C330.6,191.81,329.93,191.02,330.11,191.39z"/>
        <radialGradient id="SVGID_6_" cx="422.6914" cy="239.395" r="24.3251" gradientUnits="userSpaceOnUse">
            <stop offset="0" style="stop-color:#5160AC"/>
            <stop offset="1" style="stop-color:#FFFFFF"/>
        </radialGradient>
        <path fill-rule="evenodd" clip-rule="evenodd" fill="url(#SVGID_6_)" stroke="#000000" stroke-width="0.25" stroke-miterlimit="10" d="   M405.07,235.54c-0.57,0.5-1.05,0.84-1.61,1.24c-0.11,0.08-0.6,0.53-0.63,0.25c0.06-0.6,0.11-1.21,0.17-1.81   c0.2-0.4,0.51-0.67,0.48-1.11c0.64-0.48,1.27-0.96,1.91-1.43c0.24-0.31,1.09-1.88,0.96-2.23c0.53-0.37,1.06-0.74,1.59-1.11   c1.49-0.32,2.97-0.64,4.46-0.96c0.69,0.23,1.37,0.46,2.06,0.7c0.69-0.45,2.75-0.54,3.2,0.26c0.75,0,1.5,0.15,2.07,0.64   c0.32,0.05,0.64,0.11,0.96,0.16c0.38-0.94,0.25-0.97,1.11-1.75c0.53,0,1.06,0,1.59,0c0.48-0.68,0.78-0.69,1.59-0.64   c-0.15-0.41-0.26-0.87,0.06-1.18c0.19-0.08,0.39-0.17,0.58-0.25c0.32-1.26,3.77-3.01,4.92-2.29c0.37-0.11,0.82-0.04,1.13,0.22   c0.38-0.08,0.76-0.17,1.14-0.25c0.27,0.72,0.33,1.4,0.29,2.17c0.54-0.05,0.97,0.02,1.43,0.32c-0.17,0.62-0.38,1.71-0.96,2.07   c0.12,0.09,0.23,0.18,0.35,0.26c0.47,0.34,0.94,0.67,1.4,1.01c0.07,0.3,0.05,0.62,0.32,0.8c-0.32,0.64-0.64,1.27-0.96,1.91   c0.04,0.31,0.02,1.25,0.32,0.96c0.62-0.16,1.09-0.47,1.52-0.98c0.3-0.35,0.08-0.74,0.55-0.94c0-0.34-0.03-1.08,0.14-1.28   c0.38-0.44,1.22-1.65,1.82-1.31c0.23,0.14,0.49-0.33,0.38,0.03c-0.17,0.57-0.34,1.27-0.91,1.61c0.04,0.06,0.08,0.11,0.12,0.17   c0.61,0.81,2.14,1.11,2.14,2.24c0.03,0.42,0.06,0.83,0.09,1.25c-0.8,1.05-0.95,2.12-1.33,3.31c-0.13,0.38-0.26,0.77-0.39,1.15   c0.09-0.16,0.09,1.43,0.19,1.27c0.26-0.43,1.06-2.04,1.06-2.55c0.5-0.56,0.47-1.99,1.19-2.2c0.22-0.09,0.44-0.18,0.66-0.26   c0.18,0.26,0.24,0.51,0.57,0.55c-0.05,0.25-0.11,0.51-0.16,0.76c-0.05,0.12-0.11,0.24-0.16,0.35c0.01,0.38,0.02,1.06,0.06,1.76   c0.06,0.87,0.17,1.75,0.41,2.07c-0.26,0.31-0.52,0.63-0.78,0.94c0.06,0.3,0.15,0.36-0.02,0.65c0.21,0.21,0.42,0.42,0.64,0.64   c-0.04,0.09-0.08,0.18-0.12,0.27c-0.2,0.39-1.48,2.39-1.63,2.43c0.06,0.05,0.11,0.1,0.17,0.14c0.49,0.41,1.96,1.03,1.89,1.76   c-0.02,0.24,0.01,0.48-0.29,0.5c-1.71,0.11-2.87,0.86-4.11,1.98c-0.48,0.11-0.82,0.36-1.15,0.72c-0.53,0.8-1.06,1.61-1.59,2.41   c-0.24,0.32-0.6,0.65-0.96,0.78c-0.22,0.31-0.43,0.61-0.65,0.92c-0.44,0.31-0.2,0.57-0.33-0.12c-0.09-0.59-0.31-1.22-0.94-1.36   c-0.58-0.08-1.16-0.15-1.74-0.23c-0.48-0.16-0.96-0.32-1.43-0.48c-1.51-0.09-3.13-0.17-4.62,0.16c-0.33-0.1-0.64-0.32-0.96-0.16   c-0.33-0.43-0.23-0.7-0.83-0.68c-0.15-0.52-0.08-0.47-0.51-0.38c-0.46,0.25-0.91,0.49-1.37,0.74c-0.74,0.05-1.49,0.1-2.23,0.14   c-0.56-0.02-1.12-0.03-1.68-0.05c-0.3,0.36-0.81,0.73-0.39,1.18c-0.17,0.07-0.35,0.14-0.52,0.21c-0.52,0.14-1.03,0.29-1.55,0.43   c-0.88,0.07-1.66-0.62-2.53-0.4c-0.47,0.12-1.25,0.08-1.45,0.56c-0.67-0.15-0.93-0.08-1.19-0.73c-0.18-0.5,0.46-1.41,0.28-1.67   c-0.3-0.48-0.76-0.57-1.32-0.63c-1.04-0.13-2.28-0.13-3.34,0.12c-0.34-0.13-0.88-0.12-1.12,0.2c-0.32-0.05-0.64-0.11-0.96-0.16   c-0.3,0.05-1.45-0.28-1.37-0.43c0.28-0.5,0.53-1.91,0.74-2.12c0.77-0.71,1.62-1.22,2.57-1.69c0.41-0.2,0.98-0.2,1.25-0.54   c1.06,0.3,2.16,0.71,3.06,0.09c0.16-0.1,0.31-0.2,0.47-0.3c0.08-0.18,0.16-0.36,0.24-0.54c0.5-0.06,0.38-0.19,0.28-0.62   c-0.35-1.24-1.03-1.28-0.34-2.84c-0.23-0.27-0.31-0.2-0.02-0.35c0.5-0.25,1.08-0.96,1.57-0.54c0.31-0.73,0.94-2.01-0.15-1.93   c-0.35,0.05-0.26-0.28-0.45,0.15c-0.13,0.33-0.96,1.94-1.44,1.29c-0.36-0.5-0.72-1-1.08-1.5c-0.35-0.34-0.69-0.67-1.04-1.01   C407.08,237.4,406.31,236.12,405.07,235.54z"/>
        <radialGradient id="SVGID_7_" cx="477.9426" cy="281.9536" r="33.0711" gradientUnits="userSpaceOnUse">
            <stop offset="0" style="stop-color:#5160AC"/>
            <stop offset="1" style="stop-color:#FFFFFF"/>
        </radialGradient>
        <path fill-rule="evenodd" clip-rule="evenodd" fill="url(#SVGID_7_)" stroke="#000000" stroke-width="0.25" stroke-miterlimit="10" d="   M449.62,274.29c0.31-0.73,0.29-1.31,0.88-1.9c-0.07-0.12-0.14-0.25-0.2-0.37c0.53-0.32,1.06-0.64,1.59-0.96   c0,0.39,1.28-0.02,1.42-0.25c0.34-0.68,0.29-1.27,0.89-1.82c-0.03-0.1-0.05-0.21-0.08-0.31c0.16-0.03,0.33-0.07,0.49-0.1   c0.38-0.08,0.97-0.17,1.26,0.1c1.48-1.48,3.8-0.53,5.02,1.02c0.19,0.24-0.04,0.57-0.24,0.74c0.27,0.42,0.53,0.85,0.8,1.27   c0.32,0.06,0.49,0,0.64,0.32c0.64-0.11,1.27-0.21,1.91-0.32c0.8-0.52,1.78-0.95,2.73-1.08c0.5-0.03,1-0.06,1.49-0.09   c0.19,0.29,0.21,0.44,0.56,0.53c0.04,0.26,0.17,1.37,0.45,1.18c0.39-0.33,0.77-0.66,1.16-1c1.58-1.14,3.29-2.18,4.51-3.64   c0.4-0.65,0.8-1.31,1.2-1.96c0.64-0.64,1.27-1.27,1.91-1.91c1.11-0.49,2.22-0.97,3.33-1.46c1.14-0.7,2.03-1.5,3.36-1.89   c0.69-0.05,1.38-0.11,2.07-0.16c0.48-0.06,1.45-0.12,1.75-0.48c0.73-0.02,1.47-0.03,2.2-0.05c1.66-0.35,3.31-0.71,4.97-1.07   c0.16-0.18,0.7-0.89,0.89-0.71c0.35,0.33,1.36,1.3,1.34,1.67c0.16,0.01,0.33,0.03,0.49,0.04c0.21,0.04,0.41,0.08,0.62,0.12   c0.67-0.75,2.5-1.54,2.23-2.71c0.48-0.31,1.27-0.94,1.75-0.64c0.07-0.16,0.14-0.31,0.21-0.47c0.27,0.13,0.53,0.27,0.8,0.4   c0.47-0.28,1.01-0.23,1.21-0.73c0.03,0.02,0.06,0.05,0.09,0.07c0.66,0.56,1.31,1.14,0.71,1.92c0,0.13,0,0.27-0.01,0.4   c-0.76,0.41-1.53,0.91-2.07,1.59c-0.27,1.96-0.53,3.93-0.8,5.89c-0.42,0-0.85,0-1.27,0c-0.98,0.61-1.95,1.23-2.93,1.84   c-0.48,0.19-1.39,0.95-1.36,1.5c0.05,0.77,0,1.48,0.46,2.08c0.11,0.27,0.21,0.53,0.32,0.8c0.05,0.69,0.11,1.38,0.16,2.07   c0.4,0,0.52,0.17,0.8-0.16c0.05,0.36,0.11,0.73,0.16,1.09c0.05,0.86,0.1,1.72,0.15,2.57c0.51,0.51,0.92,2.14,1.11,2.87   c0.17,0.63-0.03,1.03,0.48,1.59c-0.11,0.42-0.14,1.32-0.5,1.55c-0.82,0.55-1.71,0.59-2.57,1.07c-0.33,0.18-0.56,0.55-0.91,0.41   c0.34,0.4,1.12,0.91,0.75,1.37c-0.41,0.39-0.82,0.78-1.23,1.17c-0.21,0.58-0.42,1.17-0.64,1.75c-0.43,0.53-0.86,1.06-1.28,1.58   c-0.23,0.45-0.73,1-0.47,1.44c-0.58,0.43-1.33,1.11-2.07,1.11c-0.43,0.28-0.62,0.82-1.11,0.8c-0.07,2.2-0.64,4.44-1.23,6.55   c-0.28,0.84-0.56,1.69-0.84,2.53c-2.8,2.98-7.01,5.87-11.31,5.1c-1.97-0.83-3.95-1.66-5.92-2.48c-0.2-0.07-0.4-0.15-0.61-0.22   c-0.67,0.09-1.35,0.17-2.02,0.26c-0.74-0.39-3.42-1.85-2.6-2.97c-0.48-0.64-0.96-1.27-1.43-1.91c-0.05-0.53-0.11-1.06-0.16-1.59   c-0.21-0.53-0.42-1.06-0.64-1.59c-0.48-0.8-0.96-1.59-1.43-2.39c-0.32-0.37-0.64-0.74-0.96-1.11c-0.33-0.65-0.65-1.3-0.98-1.95   c-0.41-0.64-1.41-1.2-1.57-1.88c-0.53-0.16-1.06-0.32-1.59-0.48c0.87-0.44-0.7-2.37-1.07-2.97c0.15-0.3-1.07-1.59-1.32-1.97   c-0.16-0.53-0.32-1.06-0.48-1.59c-0.58-0.69-1.17-1.38-1.75-2.07c-0.32-0.64-0.64-1.27-0.96-1.91c-0.23-0.91-0.38-1.48-0.95-2.24   C451.04,276.58,449.4,274.81,449.62,274.29z"/>
        <path fill-rule="evenodd" clip-rule="evenodd" fill="none" stroke="#000000" stroke-width="0.25" stroke-miterlimit="10" d="   M109.23,298.61c-2.85,0.74-6.06,0.91-8.88,1.8c-2.06,0.65-7.41,1.02-8.66-0.98c-1.95-0.83-5.34-0.48-7.42-0.15   c-0.94,0.15-2.65,0.32-3.54,0.76c-1.27,0.64-0.69,1.68-1.62,2.71c-1.66,1.84-4.87,2.37-6.98,3.37c-1.94,0.92-4.76,2.69-5.94,4.42   c-0.49,0.72-0.65,1.66-1.19,2.39c-0.64,0.87-1.5,1.49-2.23,2.27c-1.38,1.47-0.64,3.68-1.83,5.02c-1.06,1.19-3.87,1.18-5.38,1.33   c-1.77,0.17-3.98-0.24-5.56,0.27c0.62,0.05,1.26,0.03,1.9,0.04"/>
        <path fill-rule="evenodd" clip-rule="evenodd" fill="none" stroke="#000000" stroke-width="0.25" stroke-miterlimit="10" d="   M153.83,193.5c-1.21,0.26-2.29-0.96-3.38-1.24c-1.36-0.35-2.26-0.47-3.5-1.11c-2.22-1.15-4.35-2.67-6.61-3.89   c-2.56-1.39-2.83-2.92-4.02-5.38c-1.09-2.25-1.8-4.25-3.15-6.37c-2.73-4.27-6.75-8.19-10.7-11.5c-2.21-1.86-5.33-4.11-8.28-4.26   c-3.28-0.17-6.72-1.23-9.86-2.23c-2.47-0.78-5.31-1.52-7.66-2.58c-2.08-0.94-3.82-2.48-5.74-3.5c-1.92-1.02-3.58-1.23-5.89-0.77   c-1.88,0.38-5.59,0.75-7.32,0"/>
        <path fill-rule="evenodd" clip-rule="evenodd" fill="none" stroke="#000000" stroke-width="0.25" stroke-miterlimit="10" d="   M255.92,72.46c-0.98-0.79-2.01-1.35-3.19-1.59c-1.45-0.3-2.6-0.23-3.82-1.12c-1.72-1.25-3.61-3.49-5.07-5.29   c-1.72-2.12-2.91-3.82-3.99-6.33c-1.2-2.79-0.58-4.75-0.06-7.49c0.04-0.22,0.04-0.41,0.04-0.64"/>
        <path fill-rule="evenodd" clip-rule="evenodd" fill="none" stroke="#000000" stroke-width="0.25" stroke-miterlimit="10" d="   M518.55,131.7c0.65-2.53,2.44-4.03,4.46-5.45c2.16-1.51,3.59-3.59,5.54-5.11c2.27-1.77,5.94-3.11,8.79-3.46   c1.83-0.23,2.81-0.17,4.29-1.26c1.33-0.98,2.56-1.61,3.99-2.44c1.1-0.64,2.18-1.76,3.5-1.87"/>
        <path fill-rule="evenodd" clip-rule="evenodd" fill="none" stroke="#000000" stroke-width="0.25" stroke-miterlimit="10" d="   M444.65,324.73c1.81-0.41,2.63,4.42,2.71,5.73c0.08,1.28-0.01,2.61,0.17,3.81c0.19,1.31,0.76,2.41,1.07,3.68   c0.29,1.2,0.1,2.57,0.36,3.82c0.27,1.29,1.39,2.21,2.38,2.99c1.05,0.82,2.26,1.16,3.23,2.06c0.95,0.88,1.73,1.91,2.86,2.7   c1.59,1.11,2.88,2.38,4.47,3.52c1.45,1.05,3.36,1.18,4.88,2.13c3.06,1.91,4.2,5.39,7.31,7c0.31,1.28,1.72,2.05,2.53,3.04   c0.72,0.88,1.01,2.14,1.76,2.99c0.73,0.83,1.91,1.4,2.71,2.26c0.92,0.99,1.3,1.55,2.57,2.23c2.3,1.24,4.12,2.99,6.41,4.23   c1.2,0.65,2.55,0.83,3.79,1.29c1.07,0.4,1.75,1.36,2.51,2.12c1.69,1.69,3.4,3.16,4.05,5.54c0.69,2.5-0.26,5.16,0.15,7.62   c0.27,0.14,0.18-0.11,0.29-0.14"/>
        <path fill-rule="evenodd" clip-rule="evenodd" fill="none" stroke="#000000" stroke-width="0.25" stroke-miterlimit="10" d="   M168.16,497.53c2.38,1.1,4.34-0.32,6.7-1.44c2.27-1.07,5.02-0.29,7.16,0.51c4.66,1.74,8.96,5.04,14.49,3.6   c1.35-0.35,2.36-1.3,3.82-1.57c1.21-0.22,2.59,0.1,3.82-0.16c2.59-0.54,5.02-2.43,7.49-3.36c2.48-0.93,4.61-2.89,7.28-3.66   c2.71-0.78,5.43-2.21,7.85-3.54c2.42-1.33,5.48-3.07,8.12-3.47c2.72-0.4,5.29,0.96,7.33,2.56c1.83,1.43,2.94,3.98,4.14,6.02   c1.25,2.14,2.36,5.14,2.88,7.68c0.95,4.62,1.75,10.34,3.95,14.36c2.44,4.47,5.85,7.45,10.27,9.64c0.17,0.08,0.25,0.14,0.43,0.2"/>
        <path fill-rule="evenodd" clip-rule="evenodd" fill="none" stroke="#000000" stroke-width="0.25" stroke-miterlimit="10" d="   M123.25,501.83c-1.25,0.81-2.75,2.39-3.63,3.53c-1.05,1.36-0.95,3.08-1.94,4.44c-0.4,0.55-1.3,0.95-1.71,1.59   c-0.43,0.66-0.39,1.67-0.67,2.38c-0.4,1.01-1.32,4.1-2.21,4.49c-0.04,0.14,0.03,0.3-0.05,0.42c-2.06,1.04-4.22,2.94-6.69,3.41   c-2.74,0.52-5.53-0.05-8.1-0.52c-2.76-0.51-5.02,0.69-7.65,0.96c-2.78,0.29-5.79-1.04-8.44-0.49c-0.51,0.11-1.03,0.66-1.57,0.83   c-0.21,1.21-1.16,2.13-1.65,3.14c-0.48-0.09-0.28,0.17-0.45,0.34"/>
        <text transform="matrix(0.036 -0.9994 0.9994 0.036 50.3945 434.377)" font-family="'MyriadPro-Regular'" font-size="12">DENİZLİ</text>
        <text transform="matrix(1 0 0 1 145.3088 532.3984)" font-family="'MyriadPro-Regular'" font-size="12">BURDUR</text>
        <text transform="matrix(0.6194 -0.7851 0.7851 0.6194 322.7021 419.4531)" font-family="'MyriadPro-Regular'" font-size="12">ISPARTA</text>
    </g>
    <g id="__Harita" fill="white" stroke="#000000" stroke-width="1" stroke-miterlimit="10" display="none">
        <rect id="__cer" x="0" y="0" fill="#000000" opacity="0" width="600" height="576"/>
        <g id="__Afyonkarahisar">
            <path d="    M337.2,198.59c-0.53-0.75-1.2-1.64-1.09-2.23c-0.42-0.42-0.85-0.85-1.27-1.27c-0.63-0.43-1.5-0.54-2.23-0.62    c-0.12-0.01-0.24,0-0.36,0.01c0.17,0.63,0.35,1.26,0.52,1.89c0.21,0.21,0.42,0.42,0.64,0.64c0.05,0.85,0.1,1.7,0.15,2.55    c0.01,0.25,0.29,0.33,0.08,0.37c-0.21,0.03,0.03,0.15-0.18,0.18c0.36,0.43-0.28,0.84-0.58,1c-0.02,0.1,0.14,1.41,0.12,1.51    c0.88-0.18,0.95-0.75,1.76-1.43c0.68-0.58,1.66-1.61,2.08-2.03l0.76,0.42c-0.07,0.51-0.68,0.76-0.86,0.94    c0.08,0.1,0.16,0.2,0.23,0.29c0.17,0.51-0.72,1.14-1.19,1.14c-0.23,0.21-0.46,0.42-0.69,0.63c-0.27,0.21-0.7,0.53-0.43,0.81    c-0.32-0.11-0.64-0.21-0.96-0.32c-0.25,0.34-0.35,0.64-0.8,0.64c-0.56,0-1.01-1.02-1.27-1.43c0-0.66-0.48-1-0.64-1.59    c0.05-0.11,0.11-0.21,0.16-0.32c-0.19-0.55-0.81-1.91-1.27-1.91c-0.02-0.51,0.22-0.52-0.08-1c0.45-0.36,0.91-0.71,1.36-1.07    c0-0.42,0.01-0.81,0.32-1.11c-0.14-0.24-0.22-0.55-0.26-0.88c-1.13,0.34-2.27,0.69-3.4,1.03c-0.64-0.05-1.27-0.11-1.91-0.16    c-0.54,0.2-1.08,0.4-1.63,0.6c-0.36,0.07-0.72,0.13-1.08,0.2c-2.17-0.13-4.35-0.26-6.52-0.39c-2.27,0.38-5.22,2.56-7.49,1.98    c-1.94-0.49-3.07-2.28-4.04-3.87c-0.46-0.41-0.92-0.82-1.37-1.23c-0.16-0.27-0.32-0.53-0.48-0.8c-0.4-0.54-1.24-1.17-1.75-1.75    c-0.37-0.42-2.39-1.85-2.39-2.23c-0.06-0.95,0.06-1.79,0.32-2.71c0.48-0.85,0.95-1.69,1.43-2.54c0.96-2.55,1.91-5.1,2.87-7.65    c0.51-1.1,1.63-1.66,2.39-2.55c0.23-0.27,0.68-0.72,0.39-1.06c-0.71-0.81-1.43-1.63-2.14-2.44c-0.16-0.9-0.32-1.81-0.48-2.71    c0-0.58,0-1.17,0-1.75c0.58-1.11,1.17-2.23,1.75-3.34c0.05-1.22,0.11-2.44,0.16-3.66c0-0.74,0-1.49,0-2.23    c0.32-1.17,0.64-2.34,0.96-3.5c-0.09-0.32-0.18-0.64-0.27-0.96c-0.22-1.94-1.23-4.37-2.76-5.57c-0.32-0.46-0.65-0.91-0.98-1.37    c-0.99-1.09-1.97-2.17-2.96-3.26c-0.37-0.33-1.12-0.77-1.16-1.26c-0.21,0.07-0.42,0.15-0.63,0.22l-0.3,0.02    c-1.12,0.18-2.24,0.37-3.36,0.55c-2.56,0-5.89,0.68-7.3,2.99c-1.14,1.86-0.67,4.42,0.61,6.09c0.44,0.58,1.12,1.01,1.59,1.59    c0.68,0.85,1.75,1.17,1.79,2.39c0.01,0.3,0.17,0.26-0.04,0.51c-1.38,1.58-3.9,1.03-5.57,2.2c-0.21,0.42-0.42,0.85-0.64,1.27    c-0.64,1.01-1.27,2.02-1.91,3.03c-2.03,1.67-3.77,0.66-6.05,0.96c-1.26,0.16-2.47,0.65-3.66,1.11c-1.33,0.11-2.65,0.21-3.98,0.32    c-0.05,0.05-0.11,0.11-0.16,0.16c-0.31-0.03-0.63-0.07-0.94-0.1c-0.31,0.18-0.79,0.35-1.13,0.26c-0.96,0.9-1.91,1.8-2.87,2.71    c-0.76,0.88-1.27,1.98-2.23,2.71c-0.34,0.26-0.86,0.48-1.27,0.48c-1.94,1.18-4.16,0.78-6.37,0.64c-0.48,0.05-0.96,0.11-1.43,0.16    c-0.48-0.05-0.96-0.11-1.43-0.16c-0.61-0.3-1.28-0.52-1.43-1.27c-0.37-0.21-0.74-0.42-1.11-0.64c-0.48-0.16-0.96-0.32-1.43-0.48    c-1.24-0.23-2.42-0.4-3.68-0.34c-0.52,0.02-1.39-0.05-1.73,0.34c-0.44-0.19-0.89-0.37-1.33-0.56c-0.59-1.02-0.87-3.3-0.35-4.39    c0.4-0.79,0.8-1.59,1.2-2.38c0.27-0.21,0.53-0.42,0.8-0.64c0.05-1.06,0.11-2.12,0.16-3.19c-0.37-1.11-0.74-2.23-1.11-3.34    c-0.67-1.38-4.4-3.21-5.73-4.14c-0.85-0.48-1.7-0.96-2.55-1.43c-0.74-0.16-1.49-0.32-2.23-0.48c-1.33,0.11-2.65,0.21-3.98,0.32    c-0.64,0.21-1.27,0.42-1.91,0.64c-0.26,0.26-0.14,0.94-0.5,0.98c-0.95,0.07-1.89,0.13-2.84,0.2c-0.24,0.02-0.83-0.02-0.77,0.25    c0.13,0.4,0.27,0.81,0.4,1.21c0.52,0.1,1.04,0.2,1.56,0.3c-0.5,0.45-1.01,0.91-1.51,1.36c-0.69,0.27-1.37,0.54-2.06,0.81    c-0.8,0.1-1.6,0.21-2.4,0.31c-0.27,0.11-0.53,0.21-0.8,0.32c-0.98,0-2.34,0-3.01-0.81c-0.58-0.73-2.03-2.44-1.77-3.49    c-0.42-0.7-0.91-1.15-1.43-1.75c-0.48-0.74-0.96-1.49-1.43-2.23v-0.32c-0.81,0.3-2.74,0.65-3.82,1.11    c-0.58,0.12-1.16,0.24-1.74,0.35c-0.49,0.21-1.27,0.39-1.51,0.9c-0.34,0.75-0.65,1.18-1.21,1.78c0,0.44-0.41,1.26-0.8,1.43    c-0.27,0.8-0.53,1.59-0.8,2.39c-0.16,0.69-0.32,1.38-0.48,2.07c-0.45,0.79-0.64,1.56-0.96,2.39c-0.51,1.35-1.16,2.55-1.43,3.98    c-0.83,1.56-1.67,3.13-2.5,4.69c0.54,0.79,1.27,1.55,2.2,1.74c0.99,0.18,1.35,0.2,2.37-0.06c1.44-0.37,1.92-1.06,3.49-0.74    c0.27,0.09,0.54,0.17,0.81,0.26c0.6,0.6,1.04,1.69,1.91,1.83c0.55,0.1,2.29-0.46,2.71-0.88c1.63-0.26,4.41-0.28,5.76,0.64    c0.79-0.01,1,0.22,1.14,0.96c0.09,1.16,0.17,2.33,0.26,3.49c0.02,0.46,0.3,1.08,0,1.43c1.58,0.73,3.36,0.84,5.09,0.98    c0.41,0.05,0.83,0.11,1.24,0.16c0.84,0.12,1.68,0.25,2.52,0.37c0.35,0.32,0.68,0.58,0.77,1.05c0.28,1.34-0.12,2.51-0.23,3.81    c-0.27,0.42-0.53,0.85-0.8,1.27c-0.34,1.62-0.07,3.49,0.16,5.1c1.06,1.01,2.12,2.02,3.19,3.03c0.05,0.21,0.11,0.42,0.16,0.64    c0.9,0.81,1.81,1.61,2.71,2.42c0.46,0.37,0.91,0.74,1.37,1.1c0.29,0.15,0.57,0.31,0.86,0.46c1.59,0.42,3.19,0.85,4.78,1.27    c0.9,0.32,1.8,0.64,2.71,0.96c0.31,0.05,0.51,0.15,0.8,0c1.53,0.39,3.05,0.77,4.58,1.15c0.65,0.41,1.3,0.82,1.95,1.23    c0.61,1.08,1.04,2.09,2.23,2.55c0.26,0.39,0.53,1.09,0.96,1.27c0.15,0.57,0.14,1.28,0.64,1.59c0.16,0.85,0.32,1.7,0.48,2.55    c-0.21,1.65-0.05,3.14,0,4.78c-0.25,0.25-0.34,1.12-0.16,1.43c-0.3,1.01-0.31,1.98-0.32,3.03c0.11,0.85,0.22,1.7,0.32,2.55    c1.06,1.79,1.55,2.35,1.25,4.45c-0.06,0.39,0.04,0.62-0.17,0.94c-0.63,0.97-1.05,1.63-2.19,1.93c-0.59,0.69-1.38,1.11-2.07,1.75    c-0.32,0.37-0.64,0.74-0.96,1.11c-0.27,0.71-0.55,1.43-0.82,2.15c-0.47,1.77-0.29,3.26-0.45,5.02c-0.04,0.39-0.04,1.02-0.32,1.27    c0.06,2.01,0.12,4.03,0.18,6.04c0.25,1.66,0.4,3.25,1.88,4.29c0.16,0.12,0.32,0.25,0.47,0.37c2.71,0.36,5.43,0.72,8.14,1.08    c1.75,0.78,3.65,1.27,5.57,1.27c0.96-0.25,1.92-0.49,2.88-0.74c0.79-0.07,1.59-0.15,2.38-0.22c1.38,0.42,2.76,0.85,4.14,1.27    c0.71,0.42,3.02,1.91,3.66,1.91c1.7,1.33,3.4,2.65,5.1,3.98c2.55,1.05,5.1,2.1,7.64,3.15c2.58,1.94,3.71,0.1,3.55-0.91    c0.25-1-0.02-2.42,0.75-3.2c1.57-1.57,3.58-1.75,5.73-1.75c0.58,0.21,1.17,0.42,1.75,0.64c0.34,0.1,3.03,2.26,6.69,3.66    c0.92,0.79,1.73,1.19,1.91,1.59c1.27,0.84,2.04,2.15,3.2,3.19c1.45,1.3,3.3,2.32,5.06,3.1c0.96,0.3,1.93,0.59,2.89,0.89    c1.42,0.67,2.88,1.37,4.46,1.59c1.69,0.11,3.39,0.21,5.08,0.32c0.85-0.16,1.71-0.32,2.56-0.48c1.33,0,2.65,0,3.98,0    c1-0.09,3.85-0.95,4.57-0.39c1.37,1.15,1.46,3.04,2.7,4.23c0.86,0.82,2.12,1.01,3.24,0.95c0.59-0.03,2.06,0.21,2.32-0.36    c0.91-1.87-0.01-3.2,0.02-5.2c0.03-1.53-0.03-2.94-0.28-4.44c0.22-0.26-0.07-1.49-0.31-1.79c0.05-1.96,0.11-3.93,0.16-5.89    c0.17-0.58,0.33-1.17,0.5-1.75c0.21-1.01,0.41-2.02,0.62-3.03c0.41-0.73,1.05-2.45,0.32-3.18c-0.48-0.48-0.96-0.96-1.44-1.44    c-0.55-0.44-1.37-0.8-2.07-0.8c-0.25-0.2-0.51-0.4-0.76-0.59c-0.22-0.17-0.45-0.35-0.67-0.52c-1.18,0-2.09-0.92-3.03-1.59    c-0.33-0.16-0.67-0.32-1-0.48c-0.73-0.48-1.46-0.95-2.18-1.43c-0.48-0.74-0.96-1.49-1.43-2.23c-1.27,0-2.14-1.45-3.07-2.17    c-0.57-0.34-1.14-0.67-1.71-1.01c-0.45-0.6-0.91-1.2-1.36-1.8c-0.39-0.46-0.79-0.92-1.18-1.38c-0.91,0-2.1-2.5-2.23-3.34    c-0.35-2.17,0.56-4.52,1.36-6.41c0.4-0.93,0.91-2.14,1.67-2.83c1.28-1.17,2.85-1.53,4.3-2.39c1.44,0.09,3.04,0.28,4.3-0.64    c0.79-0.58,1.56-1.74,1.75-2.71c0.05-0.58,0.11-1.17,0.16-1.75c-0.66-1.44-1.57-3.3-1.39-4.94c0.09-0.42,0.18-0.85,0.27-1.27    c0.27,0.05-0.19-0.53,0.08-0.48c0-0.53,0.27-0.62,0.27-0.96c0.37-0.9,0.48-0.9,0.85-1.54c-0.03-0.24,0.48-1.5,0.48-1.58    c-0.02,0.04-0.04,0.07-0.06,0.1c0.04-0.09,0.06-0.11,0.06-0.1c0.18-0.38,0.33-1.53,0.37-1.66c-0.64-0.11-0.9,0.05-2.2-0.48    c-0.05-0.11-0.13-0.24-0.22-0.37L337.2,198.59z"/>
            <circle cx="275.67" cy="209.74" r="1.586"/>
        </g>
        <g id="__Emirdağ">
            <path d="    M514.17,209.9c-0.1-0.07-0.2-0.14-0.3-0.21c-2.13-1.26-3.62-1.95-5.75-3.21c-2.87-0.9-5.65-1.81-8.52-2.71    c-0.98,0-3.58-0.24-4.74-0.6c-1.87,0-2.89,0.66-4.22,0.88c-1.2,0-2.19-0.24-3.46-0.68c-0.58-0.32-0.93-0.96-1.51-1.27    c-1.89-1.83-4.58-3.11-7.29-3.78c-0.99-0.25-2.99-0.29-3.46,0.54l-0.12-0.86c-0.36-0.6-1.14-3.86-1.55-4.98    c-1.06-1.11-2.12-2.23-3.19-3.34c-1.97-0.68-5.74-0.96-7.15-0.37c-6.14,2.55-12.61,1.83-19.45,2.37    c-2.86,0.23-5.38,0.99-8.29,0.71c-2.4-1.69-6.85-2.83-8.44-5.42c-0.21-1.54-0.42-3.08-0.6-4.62c-0.17-1.1-3.16-2.28-3.73-3.4    c-0.4-1.03-0.94-2.14-1.09-3.45c-1.34-1.21-2.67-2.42-4.01-3.63c-2.86-3.05-5.14-9.14-9.86-9.26c-4.19-0.11-7.87,3.71-9.96,6.39    c-0.59,1.22,0.23,0.24-2.34,1.79c-2.75,0.49-4.31,0.55-6.15,0.25c-1.26-0.21-2.36-0.94-3.35-1.88c-1.51-1.43-2.77-3.35-3.98-4.65    c-0.29-0.79-0.67-1.58,0.02-2.37c0.43-4.25,1.47-7.81-0.22-11.95c-0.91-2.23-3.12-3.99-4.68-5.8c-3.48-4.03-5.79-9.63-4.06-14.93    c0.59-1.81,1.05-3.47,2.56-4.76c1.78-1.51,4.38-2.12,6.47-3.16c4.16-2,0.33-10.73,0.22-13.9c1.34-1.65,7.43-6.91,7.1-8.56    c-0.2-0.23-0.41-0.46-0.61-0.69c-1.85,0.37-3.7,0.73-5.55,1.1c-4.87,1.24-9.4,0.66-14.32,1.13c-1.25-1.03-1.84-2.06-2.23-3.66    c2.09-1.67,4.49-2.48,6.37-4.3c-1.23-2.96-0.89-5.18-2.87-6.37c-2.51-1.51-4.92-3.24-4.78-5.57c0,0,1.43-0.32,0.64-0.16    c-0.8,0.16,3.46,2.58,5.26,3.82c0.07-0.04,0.14-0.08,0.2-0.12c3.23,1.2,7.66,0.17,10.94-0.14c1.74-0.11,4.97,6.23,6.56,6.05    c1.91-0.21,4.14-1.91,3.28-3.61c0.13-0.95-1.55-2.43-2.19-3.14c0.05-0.96,0.11-1.91,0.16-2.87c4.81-3.68,9.55,1.4,14.61-0.42    c1.24-0.47,1.67-3.36,1.59-5.04c-3.36-4.25-2.14-10.88,1.01-12.38c4.49,0,8.17,1.11,12.58,1.75c3.78,0.55,7.87,0.07,11.58,0.87    c4.11,0.89,7.89,2.11,12.15,2.48c4.01,0.35,8.41-3.19,12.74-3.19c0.74,0.78,1.48,1.56,2.22,2.34c1.19,1.83-0.85,5.88,0.33,8.33    c-0.8,0.11-1.59,0.21-2.39,0.32c-0.03,0.21-0.06,0.43-0.09,0.64c-0.02,0.26-0.04,0.53-0.06,0.79c0.69,0.11,1.38,0.21,2.07,0.32    c0.8,5.99,6.41,4.47,10.67,6.53c2.67,1.29,3.92,4.94,6.22,6.85c1.23,0.5,2.46,1.01,3.69,1.51c1.59,0.46,3.13,0.22,4.75,0.88    c0,0,2.25,3.27,2.51,4.31c0.63,2.52-0.29,5.64,0.88,8.01c3.88,7.88,13.88,5.03,20.11,8.97c4.08,2.58,1.22,10.8,5.32,15.02    c2.6,0.85,5.2,1.7,7.8,2.55c2.13,0.43,4.26,0.86,6.39,1.29c5.55,1.23,16.55,3.8,16.55,3.8c0-0.37,1.69,0.48,2.07,0.48    c1.33,0.9,2.65,1.81,3.98,2.71c0.03,0.4,0.34,0.67,0.59,0.99c0.23,0.33-0.22,1.29-0.27,1.88c0.41,0.5,0.1,1.78,0.02,2.39    c-0.08,0.62,0.01,1.62,0.46,2.07c-0.22,0.58-0.44,1.16-0.66,1.74c-0.22,0.49-1.04,0.62-1.57,0.81c-0.41,0.56-1.13,0.71-1.72,1.02    c-1.23,0.64-2.79,1.14-4.17,1.37c-0.48,0-0.96,0-1.43,0c-1.01,0.11-2.02,0.21-3.03,0.32c-1.73-0.19-5.37-0.52-6.95,0.07    c-2.32,0.88-2.37,3.32-2.76,5.34c-0.21,0.9-0.42,1.8-0.64,2.71c-0.64,1.22-1.27,2.44-1.91,3.66c-0.53,0.74-1.06,1.49-1.59,2.23    c-0.48,1.7-0.96,3.4-1.43,5.1c0.27,0.05,0.53,0.11,0.8,0.16c-0.07,0.11-0.14,0.22-0.2,0.33c0.36,0.56,0.38,1.1,0.49,1.75    c0.35,1.95,0.52,3.88,1.02,5.7c0.89,3.23,0.54,6.2-0.67,9.27c-0.32,1.65-0.64,3.29-0.96,4.94c-0.68,3.78-2.39,7.78-5.14,10.5    c-1.03,1.02-1.85,2.58-2.5,3.84L514.17,209.9z"/>
            <circle cx="417.73" cy="132.82" r="1.586"/>
        </g>
        <g id="__Sandıklı">
            <path d="    M244.21,317.09c0.05-0.32,0.11-0.64,0.16-0.96c-0.16-0.59-0.31-1.18-0.47-1.77c-0.11-0.63-0.88-1.89-0.33-2.37    c-0.98-1.19-1.94-2.1-2.39-3.66c0-0.32,0-0.64,0-0.96c0.27-1.2-0.17-2.32-0.42-3.77c-0.16-0.98-0.2-0.6-0.72-0.65    c-0.61-0.18-2.77-0.48-3.32-0.2c-0.05-0.12-0.11-0.25-0.16-0.37c-0.58-1.81-0.34-3.35-0.45-5.2c0.04-2.07,0.09-4.14,0.13-6.21    c0.08-0.98-0.64-3.47-0.16-4.14c-0.09-0.6-0.18-1.2-0.28-1.8c-0.3-0.23-0.62-1.26-0.85-1.78c-0.79-1.94-1.58-3.88-2.37-5.81    c-0.51-0.12-0.8-0.66-1.2-1c-1.09-1.15-2.17-2.31-3.26-3.46c-0.49-0.36-0.98-0.73-1.46-1.09c-1.36-1.21-2.11-2.84-3.28-4.22    c-0.98-0.99-1.95-1.97-2.93-2.96c-1.36-1.87-2.73-3.74-4.09-5.61c-0.38-0.63-0.75-1.26-1.13-1.89c-0.05-0.27-0.11-0.53-0.16-0.8    c-0.19-0.36-0.52-0.76-0.43-1.18c-0.17-0.35-0.35-0.7-0.52-1.05c-0.26-1.31-0.19-2.5-0.32-3.82c0.27-1.38,0.53-2.76,0.8-4.14    c0.79-0.7,0.57-1.9,1.11-2.71c0.27-0.96,0.53-1.91,0.8-2.87c0.53-1.65,1.06-3.29,1.59-4.94c-0.15-0.69-0.3-1.39-0.45-2.08    c-0.06-0.28-0.03-0.15-0.41,0c-0.7-0.55-1.59-0.42-2.49-0.45c-2.42-0.08-4.65-0.89-7.03-1.38c-0.9-0.16-1.8-0.33-2.7-0.49    c-2.1,0.37-3.26,2.16-4.74,3.5c-1.55,1.31-3.1,2.62-4.64,3.94c-0.64,0.27-1.27,0.53-1.91,0.8c-0.27,0.05-0.53,0.11-0.8,0.16    c-1.7-0.53-3.4-1.06-5.1-1.59c-1.65-0.64-3.29-1.27-4.94-1.91c-0.3,0.27-2.49,0.35-3.04,0.33c-2.77-0.09-5.52-0.2-8.27-0.65    l-0.88,1.06c0.2,1.77-0.37,3.99-1.04,4.83c-0.47,4.39-0.33,9.16-0.16,8.6c-0.42,1.01-0.85,2.02-1.27,3.03    c0.05,0.53,0.11,1.06,0.16,1.59c-0.17,0.69-0.35,1.39-0.52,2.08c-0.07,0.59-0.15,1.66-0.59,2.06c0.07,1.16,0.23,2.05,0.74,3.13    c0.22,0.46,0.82,1.79,0.64,2.27c-0.61,1.07-2.56,2.17-3.31,3.02c-0.34,0.39-0.97,0.53-1.43,0.93c-0.28,0.46-0.51,1.28-0.94,1.48    c-0.25,1.13-0.39,3.17-1.75,3.34c-0.68,0.13-1.35,0.26-2.03,0.39c-2.23,0-4.47,0-6.7,0c-1.75-0.72-3.98-0.02-5.45,1.04    c-0.69,0.32-1.38,0.64-2.07,0.96c0.19-0.26-2.13,0.06-2.24,0.61c-0.72,0.39-1.4,0.88-2.03,1.45c1.04-0.83,0.96-0.76-0.32,0.3    c-0.01,0.01-0.02,0.02-0.03,0.03c0,0-0.01,0-0.01,0.01c-0.22,0.18-0.47,0.39-0.76,0.63c-0.05,0.02-0.1,0.04-0.15,0.06    c-0.01,0.01-0.02,0.02-0.03,0.02c-0.05,0.03-0.1,0.05-0.14,0.08c0-0.01,0.01-0.03,0.01-0.04c-2.01,0.75-4.22,0.97-5.9,2.43    c-0.59,0.51-1.7,1.41-1.79,2.38c0.01,0.64,0.02,1.28,0.03,1.92c0.71,1.48,2.09,3.55,3.42,4.5c0.94,0.66,3.34,3.04,2.76,4.1    c-0.11,0.33,0.04,0.62-0.14,0.8c-0.64,0.58-1.27,1.17-1.91,1.75c-1.41,0.5-2.22,1.53-3.83,2.58c-1.23,0.8-3.75,0.95-3.28,1.63    c0.02,1.19,0.29,2.23,0.08,3.59c-0.23,1.47-0.34,2.38-0.12,3.66c0.21,0.96,0.41,1.91,0.62,2.87c0.32,0.58,0.64,1.17,0.96,1.75    c0.37,0.32,0.74,0.64,1.11,0.96c2.22,0.36,4.5,0.41,6.69-0.16c1.48,0.02,2.97,0.04,4.45,0.06c0.98,0.38,1.96,0.77,2.94,1.15    c0.73,0.79,1.46,1.59,2.19,2.38c1.47,2.36,4.05,6.64,2.45,8.6c-1.05,1.29-3.23,3.82-2.99,4.21c0.01,0.58,0.02,1.16,0.03,1.74    c0.44,1.17,2.15,3.24,3.19,3.82c0.5,0.28,0.53,0.82,1.11,0.96c0.98,1,1.97,2.01,2.95,3.01c0.5,0.75,1.01,1.5,1.51,2.24    c0.64,1.17,1.27,2.34,1.91,3.5c0.11,0.32,0.21,0.64,0.32,0.96c0.43,0.67,1.16,0.96,1.75,1.43c0.47,0.17,0.94,0.33,1.41,0.5    c0.3,0.49,0.5,0.21,0.92,0.45c1.03,0.64,2.06,1.28,3.09,1.92l0.48,0.32c0.43-0.1,0.85-0.2,1.28-0.29    c0.74-0.01,1.48-0.02,2.22-0.02c1.12,0,2.23,0,3.35,0c3.49-0.11,5.65,0.08,8.91-1.59c0.09-0.37,0.64-0.58,0.96-0.8    c-0.03-0.4,0.55-0.78,0.78-1.12c0.82-1.23,1.03-2.9,1.45-4.3c1.17-1.27,2.34-2.55,3.5-3.82c0.21-0.42,0.42-0.85,0.64-1.27    c0.46-0.57,0.92-1.14,1.37-1.7c0.25-0.41,0.94-0.46,1.49-0.53c0.32,0.05,1.04-0.16,1.99,0.05c1.22,0.27,1.41,0.64,2.63,0.9    c0.14,0.13,0.29,0.26,0.43,0.38c0.93,0.65,0.24,3.2,0.04,4.24c-0.27,1.01-0.53,2.02-0.8,3.03c-0.21,1.1-0.47,2.05-0.96,3.03    c0.09,0.74,0.19,1.49,0.28,2.23c0.28,0.69,0.55,1.38,0.83,2.07c0.48,0.53,0.96,1.06,1.43,1.59c1.17,0.79,2.34,1.58,3.51,2.36    c0.92,0.51,4.07,0.31,5.25,0.34c0.17-0.37,0.75-0.57,1.11-0.8c0.69-0.64,1.38-1.27,2.07-1.91c0.32,0,0.64,0,0.96,0    c0.14,0.08,0.28,0.15,0.41,0.23l0.74-0.03c0.26-0.43,1.19-0.51,1.67-0.64c0.84-0.21,1.69-0.42,2.53-0.63    c0.77-0.4,1.53-0.79,2.3-1.19c0.42-0.26,0.84-0.51,1.26-0.77c0.96-0.37,1.91-0.74,2.87-1.11c0.58-0.49,1.15-0.98,1.73-1.46    c1.33-1.16,2.53-2.32,4.05-3.25c0.78-0.48,1.35-0.53,2.16-0.83c1.07-0.38,2.15-0.77,3.22-1.15c0.24-0.61,1.13-0.96,1.59-1.43    c0.25-0.45,0.49-0.9,0.74-1.35c0.34-0.4,0.67-0.8,1.01-1.19c0.32-0.96,0.64-1.91,0.96-2.87c0.16-0.11,0.32-0.21,0.48-0.32    c0.43-2.15,0.45-4.04,0.32-6.21c-0.22-0.61-0.44-1.23-0.66-1.84c-0.2-0.77-0.41-1.53-0.61-2.3c0.29-0.39,0.2-1.1,0.31-1.59    c0.14-0.62,0.48-1.03,0.84-1.56c0.37-0.57,3.04-0.22,3.79-0.03c0.35-0.23,1.38,0.01,2.28,0.3l-0.05-0.14    c0.07-0.17,0.14-0.33,0.21-0.5C244.9,320.3,244.73,317.67,244.21,317.09z M211.35,252.49c-0.55,0.29-1.01,0.03-1.7,0.09    c-0.72,0.54-1.42,0.79-2.07,1.43c-0.34-0.34-1.36-0.21-1.72,0.05c-0.75,0.57-0.16,1.63-0.86,2.1c-0.65,0.44-3.02,1.09-3.54,0.29    c-0.4-0.61-1.05-2.79,0.07-2.75c0.32,0.32,1.22,1.81,1.75,1.27c0.24-0.24,0.3-0.32,0.64-0.32c0.53-0.64,1.06-1.27,1.59-1.91    c0.54,0,1.25-0.28,1.43-0.8c0.58,0.05,1.17,0.11,1.75,0.16c0.26-0.26,0.9-0.37,1.27-0.32C210.5,251.87,212.1,252.02,211.35,252.49    z"/>
            <circle cx="211.32" cy="298.14" r="1.586"/>
        </g>
        <g id="__Dazkırı">
            <path d="    M92.59,485.11c0.11-0.27,0.21-0.53,0.32-0.8c0.64-0.36,1.28-0.71,1.92-1.07c0.63-0.23,1.27-0.45,1.9-0.68    c0.27-0.37,0.53-0.74,0.8-1.11c0.18-0.55-0.18-0.83,0.32-1.27c0.58,0.16,1.17,0.32,1.75,0.48c1.06,0.16,2.12,0.32,3.19,0.48    c0.53-0.06,1.06-0.12,1.58-0.18c0.53,0.06,1.07,0.12,1.6,0.18c1.65-0.11,3.29-0.21,4.94-0.32c0.6-0.08,1.39,0.23,1.91,0.48    c0.37-0.11,0.74-0.21,1.11-0.32c0.32-0.37,0.64-0.74,0.96-1.11c0.9,0.27,1.81,0.53,2.71,0.8c1.17,0.19,2.27-0.69,3.34-0.8    c0.73-0.07,2.2-0.3,2.71-0.8c-0.24-0.24-0.79,0.05-1.08,0.23c-1.06,0.67-0.88,0.37-1.95,0.56c-0.37,0.16-0.74,0.32-1.11,0.48    c0.1-0.02,0.2-0.04,0.3-0.06c0.4-0.09,0.75-0.06,0.97-0.41c0.74,0,1.09-0.15,1.77-0.41c0.26-0.4,1.44-1.02,1.9-1.02    c0.27-0.37,0.53-0.74,0.8-1.11c1.01-1.24,2.45-2.15,3.34-3.5c0.85-0.42,1.7-0.85,2.55-1.27c0.11-0.16,0.21-0.32,0.32-0.48    c0.75-0.57,1.51-1.13,2.26-1.7c0.41-0.25,0.91-0.24,0.98-0.71c-0.13-2.7-0.25-5.4-0.38-8.1c-0.42-0.72-0.64-1.92-0.64-2.71    c-0.74-0.8-1.49-1.59-2.23-2.39c-0.8-0.27-1.59-0.53-2.39-0.8c-0.53-0.48-1.06-0.96-1.59-1.43c-0.68-0.48-1.93-0.6-2.24-1.34    c-0.1-0.51-0.21-1.02-0.31-1.53c-0.1-0.78,0.05-0.3,0.08-1.11c0.64-0.64,0.99-0.58,1.82-0.66c0.54-0.04,1.07-0.09,1.61-0.13    c0.85,0.27,1.7,0.53,2.55,0.8c1.43,0.11,2.87,0.21,4.3,0.32c0.32-0.16,0.64-0.32,0.96-0.48c0.8-0.9,1.59-1.81,2.39-2.71    c0.64-0.53,1.27-1.06,1.91-1.59c0-1.18,0.78-2.09,1.11-3.19c-1.25-0.12-3.87-0.47-4.78-1.27c-0.48-0.69-0.96-1.38-1.43-2.07    c-0.85-0.96-1.7-1.91-2.55-2.87c-0.37-0.11-0.74-0.21-1.11-0.32c-0.21-0.11-0.42-0.21-0.64-0.32c-0.37,0.05-0.74,0.11-1.11,0.16    c-1.42,0-2.59-0.34-3.82,0.48c-0.99,0.65-1.47,1.85-2.23,2.71c-0.48,0.37-0.96,0.74-1.43,1.11c-2.62-0.41-2.84-1.98-4.46-3.82    c-2.12-2.07-4.25-4.14-6.37-6.21c-0.88-0.67-1.28-0.22-2.07-0.32c-0.27-0.05-0.53-0.11-0.8-0.16c-0.7-0.7-1.95-0.99-2.55-1.59    c-0.76,0-2.12,0.21-2.71-0.32c-0.37,0.05-0.74,0.11-1.11,0.16c-0.42-0.11-0.85-0.21-1.27-0.32c-0.25-0.49-1.02-0.96-1.59-0.96    c-0.42-0.37-0.85-0.74-1.27-1.11c-0.05-0.16-0.11-0.32-0.16-0.48c-0.42-0.42-0.53-0.69-1.11-0.48c-0.33,0.33-0.96,0.78-0.96,1.27    c-0.69,0.69-1.38,1.38-2.07,2.07c-0.32,0.48-0.64,0.96-0.96,1.43c-0.35,0.27-0.71,0.55-1.06,0.82c-0.87,0.58-1.74,1.15-2.6,1.73    c-1.7,0.58-3.4,1.17-5.1,1.75c-3.71,0.62-7.09,1.02-10.53,2.51c-0.74,0.39-1.48,0.77-2.21,1.15c-2.2,1.79-3.76,4.51-5.26,6.85    c0,0.32,0,0.64,0,0.96c0.96,0.48,1.91,0.96,2.87,1.43c0.85,0.48,1.7,0.96,2.55,1.43c0.53,0.26,1.06,0.51,1.58,0.77    c0.96,0.43,1.92,0.87,2.88,1.3c0.32,0.37,0.64,0.74,0.96,1.11c0,0.96-1.43,1.88-1.96,2.62c-1.01,1.39-2.39,4.18-2.48,5.96    c0.05,1.07,0.1,2.14,0.14,3.21c0.69,1.27,1.38,2.55,2.07,3.82c0.23,0.94,0.45,1.88,0.68,2.83c0.47,0.85,0.95,1.71,1.42,2.56    c0.34,0.45,0.67,0.91,1.01,1.36c0.13,0.35,0.26,0.71,0.39,1.06c0.59,0.89,1.45,1.26,2.23,1.91c1.91,1.43,3.82,2.87,5.73,4.3    c0.21,0.21,0.42,0.42,0.64,0.64c0.8,0.48,1.59,0.96,2.39,1.43c0.81,1.21,2.02,1.92,3.34,2.39    C92.7,485.22,92.64,485.17,92.59,485.11z"/>
            <circle cx="116.48" cy="460.19" r="1.586"/>
        </g>
        <g id="__Başmakçı">
            <path d="    M158.77,438.45l-2.87,0.16c-1.81,0-4.2-0.01-5.34-1.59c-0.53-0.05-1.39,0.12-1.75-0.32c-0.74,0.05-1.49,0.11-2.23,0.16    c-0.32,0.16-0.64,0.32-0.96,0.48c-0.79,0.65-1.51,1.52-2.07,2.39c-0.53,0.84-0.84,2.21-1.91,2.55c-0.11,0.35-0.17,0.45,0,0.8    v-0.48c-0.33,1.1-1.11,2.01-1.11,3.19c-0.64,0.53-1.27,1.06-1.91,1.59c-0.8,0.9-1.59,1.8-2.39,2.71    c-0.32,0.16-0.64,0.32-0.96,0.48c-1.43-0.11-2.87-0.21-4.3-0.32c-0.85-0.27-1.7-0.53-2.55-0.8c-0.54,0.04-1.07,0.09-1.61,0.13    c-0.83,0.09-1.18,0.02-1.82,0.66c-0.03,0.81-0.18,0.33-0.08,1.11c0.1,0.51,0.21,1.02,0.31,1.53c0.31,0.74,1.56,0.86,2.24,1.34    c0.53,0.48,1.06,0.96,1.59,1.43c0.8,0.27,1.59,0.53,2.39,0.8c0.74,0.8,1.49,1.59,2.23,2.39c0,0.79,0.22,1.98,0.64,2.71    c0.13,2.7,0.25,5.4,0.38,8.1l0.97-0.13c0.13-0.05,0.27-0.11,0.4-0.16c1.01,0.32,2.02,0.64,3.03,0.96    c0.81,0.52,1.63,1.04,2.44,1.56c0.58,0.43,1.15,0.86,1.73,1.29c0.18,0.97,0.07,1.93-0.18,2.88c-0.21,0.53-0.42,1.06-0.64,1.59    c-0.19,1.44-0.21,3.08-0.94,4.3c-0.26,0.43-2.09,1.9-2.57,1.92c-0.53,0.59-2.73,2.36-3.5,2.39c-0.79,1.21-3.21,3.31-4.62,3.03    c-0.58,0.37-1.17,0.74-1.75,1.11c-0.22,0.81-0.95,1.14-1.74,1.5c-0.56,0.84-2.63,2.5-3.55,3.06c-0.38,0.23-1.13,0.68-1.56,0.54    c0.32,0,0.64,0,0.96,0c-0.18-0.01-0.5-0.11-0.46,0.13c0.21,1.34,0.41,2.67,0.62,4.01c0.21,0.48,0.42,0.96,0.64,1.43    c0.2-0.13,0.4-0.25,0.6-0.38c2.54-1.45,4.88-3.21,7.86-3.99c1.16-0.32,2.33-0.64,3.49-0.96c0.61-0.06,1.81,0.05,2.22-0.41    c0.51,0.06,1.03,0.13,1.54,0.19c0.6-0.01,1.2-0.02,1.8-0.03c2.34-0.62,5.98-0.14,8.28,0.47c1.48,0.39,3.07,1.18,4.29,2.09    c1.04,0.77,2.2,2.07,3.55,2.2c3.46,0.35,5.83-0.13,8.74-1.97c1.84-1.48,5.1-4.7,3.48-2.94c1.2-1.18,2.43-2.38,3.23-3.87    c0.5-0.21,0.45-0.91,0.69-1.36c0.66-1.4,3.82-5.7,5.17-7.21c0.51-0.57,1.18-1.69,1.92-1.9c0.99-2.57,2.93-5.07,3.82-7.8    c0.33-1.02,0.95-2.11,0.8-3.19c-0.04-2.18-0.09-4.36-0.13-6.53c-0.1-0.54,0.21-1.52-0.18-1.91c-0.05-0.16-0.11-0.32-0.16-0.48    c0.15-0.66,0.53-1.38-0.31-1.48c-3.09-0.48-4-1.26-6.06-3.62c-0.53-0.58-1.06-1.17-1.59-1.75c-0.89-0.68-1.98-1.18-2.71-2.07    c-1.01-0.06-2.32-0.39-3.34-0.08c-2.22,0.67-4.87,1.63-7.16,0.8c-0.88-0.32-2.07-1.9-2.72-2.63c-0.37-0.42-0.59-1.26-1.11-1.43    c-1.11-1.95-1.91-4.22-1.91-6.53c0-0.77,0.69-2.82,0.24-3.27C158.61,438.61,158.77,438.45,158.77,438.45z"/>
            <circle cx="151.28" cy="466.96" r="1.586"/>
        </g>
        <g id="__Evciler">
            <path d="    M155.9,438.61c-1.81,0-4.2-0.01-5.34-1.59c-0.53-0.05-1.39,0.12-1.75-0.32c-0.74,0.05-1.49,0.11-2.23,0.16    c-0.32,0.16-0.64,0.32-0.96,0.48c-0.79,0.65-1.51,1.52-2.07,2.39c-0.53,0.84-0.84,2.21-1.91,2.55v0.32    c-1.25-0.12-3.87-0.47-4.78-1.27c-0.48-0.69-0.96-1.38-1.43-2.07c-0.85-0.96-1.7-1.91-2.55-2.87c-0.37-0.11-0.74-0.21-1.11-0.32    c-0.21-0.11-0.42-0.21-0.64-0.32c-0.37,0.05-0.74,0.11-1.11,0.16c-1.42,0-2.59-0.34-3.82,0.48c-0.99,0.65-1.47,1.85-2.23,2.71    c-0.48,0.37-0.96,0.74-1.43,1.11c-2.62-0.41-2.84-1.98-4.46-3.82c-2.12-2.07-4.25-4.14-6.37-6.21c-0.88-0.67-1.28-0.22-2.07-0.32    c-0.27-0.05-0.53-0.11-0.8-0.16c-0.7-0.7-1.95-0.99-2.55-1.59c-0.76,0-2.12,0.21-2.71-0.32c-0.37,0.05-0.74,0.11-1.11,0.16    c-0.42-0.11-0.85-0.21-1.27-0.32c-0.25-0.49-1.02-0.96-1.59-0.96c-0.42-0.37-0.85-0.74-1.27-1.11c-0.05-0.16-0.11-0.32-0.16-0.48    c-0.42-0.42-0.53-0.69-1.11-0.48l0.42-0.72c0.54-0.41,0.79-0.79,1.48-0.68c0.34-0.41,0.88-0.97,0.96-1.47    c1.14-0.86,2.28-1.73,3.42-2.59c0.09-0.14,0.17-0.28,0.26-0.41c0.77-0.57,2.1-1.4,2.37-2.41c0.79-0.45,0.87-0.69,1.43-1.43    c0.9-0.8,1.81-1.59,2.71-2.39c-0.32,0.27-0.64,0.53-0.96,0.8c-0.1-0.28,1.17-1.43,1.75-1.43c-0.69-0.05-0.03,0.74-0.72,0.69    c0.83-0.11,0.31-1.07,1.14-1.18c0.24-0.06,0.55,0.11,0.56,0.09c0.68-1.63,2.72-2.56,3.95-3.74c0.56-0.54,0.96-1.53,1.75-1.75    c1.54-1.86,3.08-3.72,4.62-5.57c0.39-0.66,0.78-1.31,1.17-1.97c0.4-0.54,1.75-2.06,1.69-2.65c1.14-0.62,2.12-0.88,3.34-1.27    c0.64-0.11,1.27-0.21,1.91-0.32c0.53-0.03,1.05-0.06,1.58-0.08c2.99-0.19,5.98-0.38,8.97-0.57c0.24,0.86,0.71,1.99,0.44,2.88    c0.16,0.58,0.32,1.17,0.48,1.75c0.92,1.68,1.59,3.39,2.07,5.26c0.74,1.22,1.49,2.44,2.23,3.66c0.65,0.55,1.19,1.08,1.7,1.78    c0.23,0.36,0.46,0.72,0.69,1.08c0.33,0.35,1.07,0.9,0.96,1.43c1.12,0.58,1.81,1.04,2.55,2.07c0.35,0.65,0.71,1.31,1.06,1.96    c0.6,0.84,1.54,1.68,1.87,2.69c0.23,0.69,0.32,1.7-0.24,1.99c-2.22,0.88-4.44,1.76-6.66,2.64c-0.44,0.12-1.19,0.61-1.61,0.44    c-0.21,0.27-0.42,0.53-0.64,0.8c0.01,0.42,0.03,1.53,0.35,1.68c1.93,0.86,4.26,0.64,6.34,0.5c0.65-0.04,1.97-0.64,2.39,0.04    c0.21-0.11,0.42-0.21,0.64-0.32c0.53,0.05,2.27,0.43,2.36,0.63c0.12,0.16,0.23,0.32,0.35,0.48c0.17,0.69,0.38,1.95,0.96,2.39    c-0.12,1.95-0.24,3.91-0.35,5.86c0.06,0.69,0.11,2.42-0.04,3.22L155.9,438.61z"/>
            <circle cx="121.98" cy="424.11" r="1.586"/>
        </g>
        <g id="__Kızılören">
            <path d="    M210.86,353.15c-0.14-0.08-0.28-0.15-0.41-0.23c-0.32,0-0.64,0-0.96,0c-0.69,0.64-1.38,1.27-2.07,1.91    c-0.36,0.23-0.94,0.43-1.11,0.8c-1.18-0.04-4.33,0.17-5.25-0.34c-1.17-0.79-2.34-1.58-3.51-2.36c-0.48-0.53-0.96-1.06-1.43-1.59    c-0.28-0.69-0.55-1.38-0.83-2.07c-0.09-0.74-0.19-1.49-0.28-2.23c0.49-0.97,0.74-1.93,0.96-3.03c0.27-1.01,0.53-2.02,0.8-3.03    c0.19-1.03,0.89-3.59-0.04-4.24c-0.14-0.13-0.29-0.26-0.43-0.38c-1.22-0.27-1.41-0.64-2.63-0.9c-0.96-0.21-1.67,0-1.99-0.05    c-0.56,0.07-1.25,0.11-1.49,0.53c-0.46,0.57-0.92,1.13-1.37,1.7c-0.21,0.42-0.42,0.85-0.64,1.27c-1.17,1.27-2.34,2.55-3.5,3.82    c-0.42,1.4-0.64,3.07-1.45,4.3c-0.22,0.33-0.81,0.72-0.78,1.12c-0.32,0.22-0.86,0.42-0.96,0.8c-3.27,1.68-5.42,1.48-8.91,1.59    c-1.12,0-2.23,0-3.35,0c-0.74,0.01-1.48,0.02-2.22,0.02c-0.43,0.1-0.85,0.2-1.28,0.29c0.02,0.1,0.04,0.19,0.06,0.29    c0.16,0.57,0.9,2.24,1.37,2.58c0.13,0.56,0.09,1.69,0.48,2.07c0.03,1-0.48,4.07,0,4.78c-0.11,1.48-0.23,2.97-0.34,4.45    c0.26,2.06,0.53,4.12,0.79,6.18c0.23,0.26,0.34,1.13,0.34,1.48c0-0.05,0-0.11,0-0.16l-0.24-0.09c0.72,0.12,1.45,0.24,2.17,0.36    c1.38,0.22,2.76,0.44,4.14,0.66c1.01,0.01,2.02,0.02,3.03,0.03c0.58,0,1.16,0,1.74-0.01c1.17-0.53,2.34-1.06,3.5-1.59    c1.79-0.54,3.51-1.06,5.26-1.75c0.83,0.31,3.07-0.77,4.14-0.8c1.96,0.03,3.92,0.05,5.87,0.08c1.17,0.23,2.35,0.46,3.52,0.69    c1.09,0.17,2.67-1.63,3.39-2.33c0.37-0.36,0.77-0.63,0.97-1.08c0.5-0.67,1.01-1.33,1.51-2c0.78-1.06,1.31-2.18,1.93-3.32    c0.12-0.58,0.24-1.17,0.35-1.75c0.23-2.33,0.68-4.45,1.92-6.49L210.86,353.15z"/>
            <circle cx="183.61" cy="358.5" r="1.586"/>
        </g>
        <g id="__Dinar">
            <path d="    M290.58,370.71c0.01-0.27-0.17-1.35-0.16-1.61c-0.19-0.28-0.11-0.28-0.5-0.4c-0.35-0.66-1.36-2.71-0.96-3.34    c-0.33-0.61-1.6-3.09-1.43-3.66c-1.38-1.9-2.56-4.13-3.24-6.39c-0.16-1.11-0.31-2.22-0.47-3.32c-0.25-0.96-0.5-1.91-0.75-2.87    c-0.1-0.83-0.2-1.66-0.3-2.49c-0.49-2.06-1.8-3.86-2.93-5.59c-0.61-0.97-1.22-1.94-1.83-2.91c-1.99-2.08-4.1-3.93-7.04-4.23    c-0.58-0.06-1.55-0.33-2.07-0.07c-0.48-0.36-1.18-1.16-1.75-1.11c-0.79-1.46-1.43-2.92-2.18-4.4c-0.12-0.23-0.25-0.46-0.37-0.69    c-0.51,0-1.21-0.64-1.24-1.18c-0.37-0.27-1.19-0.47-1.63-0.41c-0.53-0.27-1.06-0.53-1.59-0.8c-0.58,0.23-0.97,0.39-1.59,0.16    c-0.42-0.27-0.85-0.53-1.27-0.8c-0.48-0.05-0.96-0.11-1.43-0.16c-0.48-0.37-0.96-0.74-1.43-1.11c-1.55-0.78-3.74-0.61-5.42-0.64    c-1.17-0.21-2.33-0.42-3.5-0.64c-0.37-0.36-0.41-0.58-0.96-0.48l-0.11,0.14c-0.9-0.29-1.93-0.53-2.28-0.3    c-0.75-0.19-3.42-0.54-3.79,0.03c-0.36,0.53-0.7,0.95-0.84,1.56c-0.11,0.49-0.02,1.2-0.31,1.59c0.2,0.77,0.41,1.53,0.61,2.3    c0.22,0.61,0.44,1.23,0.66,1.84c0.14,2.17,0.11,4.06-0.32,6.21c-0.16,0.11-0.32,0.21-0.48,0.32c-0.32,0.96-0.64,1.91-0.96,2.87    c-0.34,0.4-0.67,0.8-1.01,1.19c-0.25,0.45-0.49,0.9-0.74,1.35c-0.46,0.47-1.35,0.82-1.59,1.43c-1.07,0.38-2.15,0.77-3.22,1.15    c-0.8,0.29-1.38,0.35-2.16,0.83c-1.52,0.93-2.71,2.09-4.05,3.25c-0.58,0.49-1.15,0.98-1.73,1.46c-0.96,0.37-1.91,0.74-2.87,1.11    c-0.42,0.26-0.84,0.51-1.26,0.77c-0.77,0.4-1.53,0.79-2.3,1.19c-0.84,0.21-1.69,0.42-2.53,0.63c-0.48,0.14-1.41,0.21-1.67,0.64    c-1.23,2.04-1.69,4.16-1.92,6.49c-0.12,0.58-0.24,1.17-0.35,1.75c-0.62,1.15-1.15,2.26-1.93,3.32c-0.5,0.67-1.01,1.33-1.51,2    c-0.2,0.45-0.6,0.72-0.97,1.08c-0.72,0.7-2.3,2.5-3.39,2.33c-1.17-0.23-2.35-0.46-3.52-0.69c-1.96-0.03-3.92-0.05-5.87-0.08    c-1.07,0.02-3.31,1.1-4.14,0.8c-1.75,0.69-3.47,1.21-5.26,1.75c-1.17,0.53-2.34,1.06-3.5,1.59c-0.58,0-1.16,0-1.74,0.01    c-1.01-0.01-2.02-0.02-3.03-0.03c-1.38-0.22-2.76-0.44-4.14-0.66c-0.72-0.12-1.45-0.24-2.17-0.36c0.24,1.25,0.62,3.98-1.16,4.47    c-3.33,0.98-6.41,1.76-9.43,3.27c-1.32,0.66-2.07,2.35-2.87,3.47c-1.01,1.34-2.02,2.67-3.03,4.01c-0.86,0.84-1.72,1.67-2.58,2.51    c-0.43,0.34-1.2,0.66-1.4,1.15c-1.44,0.49-2.89,0.99-4.33,1.48c-1.05,0.31-2.48,0.73-2.48,0.73c0.24,0.86,0.71,1.99,0.44,2.88    c0.16,0.58,0.32,1.17,0.48,1.75c0.92,1.68,1.59,3.39,2.07,5.26c0.74,1.22,1.49,2.44,2.23,3.66c0.65,0.55,1.19,1.08,1.7,1.78    c0.23,0.36,0.46,0.72,0.69,1.08c0.33,0.35,1.07,0.9,0.96,1.43c1.12,0.58,1.81,1.04,2.55,2.07c0.35,0.65,0.71,1.31,1.06,1.96    c0.6,0.84,1.54,1.68,1.87,2.69c0.23,0.69,0.32,1.7-0.24,1.99c-2.22,0.88-4.44,1.76-6.66,2.64c-0.44,0.12-1.19,0.61-1.61,0.44    c-0.21,0.27-0.42,0.53-0.64,0.8c0.01,0.42,0.03,1.53,0.35,1.68c1.93,0.86,4.26,0.64,6.34,0.5c0.65-0.04,1.97-0.64,2.39,0.04    c0.21-0.11,0.42-0.21,0.64-0.32c0.53,0.05,2.27,0.43,2.36,0.63c0.12,0.16,0.23,0.32,0.35,0.48c0.17,0.69,0.38,1.95,0.96,2.39    c-0.12,1.95-0.24,3.91-0.35,5.86c0.06,0.69,0.11,2.42-0.04,3.22l0.08-0.8l-0.08,0.8c0,0-0.16,0.16-0.48,0.56    c0.45,0.45-0.24,2.5-0.24,3.27c0,2.31,0.8,4.58,1.91,6.53c0.52,0.17,0.75,1.02,1.11,1.43c0.64,0.73,1.84,2.31,2.72,2.63    c2.29,0.83,4.94-0.13,7.16-0.8c1.02-0.31,2.33,0.02,3.34,0.08c0.73,0.89,1.82,1.39,2.71,2.07c0.53,0.58,1.06,1.17,1.59,1.75    c2.05,2.36,2.97,3.14,6.06,3.62l0.55,0.44c0.78-1.44,1.85-3.56,2.15-5.18c0.13-0.71,0.74-1.19,0.64-1.91    c0.91-1.09,1.81-2.18,2.72-3.26c0.23-0.5,0.46-1.01,0.69-1.51c0.6-1.33,1.22-2.49,1.44-3.96c0.3-1.76,0.6-3.52,0.9-5.29    c0.04-0.6,0.64-1.42,0.31-1.75c0.17-0.03,0.35-0.06,0.52-0.09c3.2-0.33,6.9,1.19,10.33,1.09c2.05-0.06,3.8-0.28,4.5-2.46    c0.59-1.72,0.9-3.78,1.21-5.7c0.15-0.91,0.06-1.8,0.48-2.64c0.33-0.33,0.91-0.16,0.99-0.28c0.23-0.68,0.02-1.75,0.69-2.04    c1.29-0.38,2.58-0.76,3.88-1.14c3.12-0.78,6.21-1.4,9.37-1.67c0.65-0.59,1.31-1.19,1.96-1.78c0.24-0.44,0.5-1.08,0.96-1.27    c0.57-0.86,1.14-1.71,1.71-2.57c0.42-0.57,0.84-1.15,1.25-1.72c1.55-3.05,3.1-6.09,4.65-9.14c1.1-1.37,2.2-2.73,3.29-4.1    c0.71-0.63,1.42-1.27,2.13-1.9c0.53-0.61,1.91-2.54,2.57-2.71c0.79-1.18,1.57-2.37,2.36-3.55c0.75-0.71,1.3-1.27,1.66-2.27    c0.09-0.45,0.19-0.9,0.28-1.34c0.19-0.26,0.39-0.3,0.32-0.64c0.32-0.16,0.64-0.32,0.96-0.48c0.38-0.48,1.62-2.18,1.43-2.55    c1.79-1.11,3.23-2.66,4.62-4.3c0.69,0,0.58,0.5,1.27,0.08c0.85-0.56,1.7-1.12,2.55-1.68c2.91-1.35,6.52-1.09,9.56-0.48    c1.01,0.16,2.02,0.32,3.03,0.48c0.58-0.05,1.17-0.11,1.75-0.16c1.8-1.11,3.61-2.23,5.42-3.34c0.89-0.66,1.79-1.31,2.68-1.97    c1.52-0.68,3.03-1.36,4.55-2.04c0.56-0.25,1.59-0.69,1.85-1.25c0.58-0.27,1.17-0.53,1.75-0.8L290.58,370.71z"/>
            <circle cx="186.96" cy="416.47" r="1.586"/>
        </g>
        <g id="__Hocalar">
            <path d="    M128.64,300.91c-0.47-0.68,2.05-0.83,3.28-1.63c1.61-1.05,2.43-2.08,3.83-2.58c0.64-0.58,1.27-1.17,1.91-1.75    c0.18-0.18,0.02-0.47,0.14-0.8c0.58-1.06-1.83-3.44-2.76-4.1c-1.33-0.95-2.71-3.02-3.42-4.5c-0.01-0.64-0.02-1.28-0.03-1.92    c0.09-0.98,1.2-1.87,1.79-2.38c1.77-1.53,4.13-1.69,6.21-2.55c2.57-2.12,2.42-1.99-0.17,0.08c-0.05,0.03-0.1,0.05-0.14,0.08    c0.03-0.1,0.06-0.19,0.08-0.29c0.34-0.17,0.67-0.34,1.01-0.51c0.74-0.71,1.53-1.32,2.39-1.78c0.12-0.56,2.44-0.87,2.24-0.61    c0.69-0.32,1.38-0.64,2.07-0.96c1.47-1.05,3.7-1.75,5.45-1.04c2.23,0,4.47,0,6.7,0c0.68-0.13,1.35-0.26,2.03-0.39    c1.36-0.17,1.5-2.22,1.75-3.34c0.43-0.2,0.66-1.02,0.94-1.48c0.46-0.4,1.08-0.54,1.43-0.93c0.75-0.84,2.7-1.95,3.31-3.02    c0.18-0.47-0.43-1.81-0.64-2.27c-0.51-1.08-0.66-1.97-0.74-3.13c0.44-0.4,0.52-1.47,0.59-2.06c0.17-0.69,0.35-1.39,0.52-2.08    c-0.05-0.53-0.11-1.06-0.16-1.59c0.42-1.01,0.85-2.02,1.27-3.03c-0.17,0.56-0.31-4.21,0.16-8.6c0.66-0.84,1.23-3.06,1.04-4.83    l0.88-1.06l-0.64-0.32c-1.63-2.62-3.45-5.26-4.32-8.29c-0.21-0.7-0.42-1.39-0.64-2.09c-0.33-1.48-0.43-3.18-1.31-4.44    c-0.53-0.77-1.16-1.37-1.95-1.86c-0.5-0.31-1.19-0.34-1.34-1c-2.52-0.57-5.21-0.83-7.81-0.79c-1.11,0-2.23,0-3.34,0    c-0.8-0.17-1.59-0.35-2.39-0.52c-0.37-0.14-0.74-0.29-1.11-0.43c-0.48-0.36-0.98-0.69-1.59-0.8c-1.66-0.3-4.06,0.3-5.42,1.28    c-1.58,1.14-3.24,2.84-4.98,3.66c-0.26,0.7-1.32,1.96-2.03,2.23c-1.78,2.63-2.2,5.51-3.26,8.43c-0.45,1.76-0.91,3.51-1.36,5.27    c-0.25,0.96-0.71,1.95-0.63,2.98c-0.37,1.72-0.75,3.43-1.12,5.15c-0.37,1.98-1.37,3.67-1.91,5.57c-0.27,0.69-0.53,1.38-0.8,2.07    c-0.94,1.52-1.98,2.86-2.78,4.43c-0.46,1.12-0.93,2.25-1.39,3.37c-0.76,1.33-1.52,2.65-2.27,3.98c-0.78,0.51-1.58,2.22-2.1,3.08    c-0.76,0.39-0.75,1.69-1.31,2.33c-0.62,0.71-0.82,1.72-1.19,2.56c-0.17,0.38-0.52,0.97-0.89,1.11c-0.75,1.19-1.57,2.49-1.91,3.82    c-0.67,2.6-0.72,5.34-1.06,8.09c-0.17,1.38-0.23,2.94-0.85,4.18c-0.33,1.22-0.67,2.45-1,3.67c-0.13,0.41-0.14,0.79-0.43,1.11    c0.24,1.86,1.02,3.13,2.62,4.19c0.39,0.25,0.43,0.44,0.9,0.55c2.11,0.42,3.25-0.1,5.26-0.61c0.79-0.17,1.58-0.34,2.36-0.5    c0.91-0.2,1.82-0.4,2.72-0.6c1.53,0.34,2.69,0.65,3.98,1.59c1.55-0.06,2.53,0.71,3.37,1.79c0.28,0.36,0.87,0.78,0.77,1.24    c-0.11-0.11-0.21-0.21-0.32-0.32c0.11,0,0.21,0,0.32,0L128.64,300.91z"/>
            <circle cx="140.29" cy="265.17" r="1.586"/>
        </g>
        <g id="__Sinanpaşa">
            <path d="    M235.96,284.39c0.52-0.04,1.04-0.08,1.56-0.11c0.53-0.31,1.56-0.83,1.69-1.31c0.5-1.81,0.9-3.74,0.76-5.66    c0.73-1.55,0.4-3.17,0.4-4.79c0.11-0.65,0.22-1.29,0.33-1.94c-0.05-0.69-0.11-1.38-0.16-2.07c0.11-0.49,0.22-0.98,0.33-1.47    c0.5-1.53,1.01-3.06,1.51-4.59c0.08-1.27,0.15-2.54,0.23-3.81c-0.16-0.96-0.32-1.91-0.48-2.87c0.21-0.96,0.42-1.91,0.64-2.87    c0.42-0.58,0.84-1.17,1.26-1.75c0.32-0.27,0.63-0.53,0.95-0.8c0.48-0.52,1.07-1.57,1.61-1.7l-0.55-0.32l0.05-0.39    c-1.48-1.04-1.63-2.63-1.88-4.29c-0.06-2.01-0.12-4.03-0.18-6.04c0.27-0.26,0.28-0.89,0.32-1.27c0.17-1.76-0.01-3.25,0.45-5.02    c0.27-0.72,0.55-1.43,0.82-2.15c0.32-0.37,0.64-0.74,0.96-1.11c0.69-0.64,1.48-1.07,2.07-1.75c1.14-0.3,1.56-0.97,2.19-1.93    c0.21-0.32,0.12-0.55,0.17-0.94c0.3-2.1-0.18-2.66-1.25-4.45c-0.11-0.85-0.22-1.7-0.32-2.55c0.02-1.05,0.03-2.01,0.32-3.03    c-0.18-0.31-0.09-1.18,0.16-1.43c-0.05-1.64-0.21-3.13,0-4.78c-0.16-0.85-0.32-1.7-0.48-2.55c-0.5-0.31-0.49-1.02-0.64-1.59    c-0.42-0.18-0.7-0.89-0.96-1.27c-1.19-0.46-1.62-1.47-2.23-2.55c-0.65-0.41-1.3-0.82-1.95-1.23c-1.53-0.38-3.05-0.77-4.58-1.15    c-0.29,0.15-0.49,0.05-0.8,0c-0.9-0.32-1.81-0.64-2.71-0.96c-1.59-0.42-3.19-0.85-4.78-1.27c-0.29-0.15-0.57-0.31-0.86-0.46    c-0.46-0.37-0.91-0.74-1.37-1.1c-0.9-0.81-1.81-1.61-2.71-2.42c-0.05-0.21-0.11-0.42-0.16-0.64c-1.06-1.01-2.12-2.02-3.19-3.03    c-0.22-1.6-0.5-3.47-0.16-5.1c0.27-0.42,0.53-0.85,0.8-1.27c0.11-1.3,0.51-2.47,0.23-3.81c-0.09-0.47-0.42-0.74-0.77-1.05    c-0.84-0.12-1.68-0.25-2.52-0.37c-0.41-0.05-0.83-0.11-1.24-0.16c-1.73-0.14-3.51-0.24-5.09-0.98c0.3-0.35,0.02-0.98,0-1.43    c-0.09-1.16-0.17-2.33-0.26-3.49c-0.15-0.74-0.36-0.97-1.14-0.96c-1.36-0.92-4.13-0.91-5.76-0.64c-0.41,0.41-2.16,0.98-2.71,0.88    c-0.87-0.14-1.32-1.24-1.91-1.83c-0.27-0.09-0.54-0.17-0.81-0.26c-1.57-0.32-2.05,0.37-3.49,0.74c-1.03,0.26-1.38,0.25-2.37,0.06    c-0.93-0.19-1.66-0.95-2.2-1.74l-0.2,0.24c-0.18,0.11-0.36,0.21-0.54,0.32c-0.8,0.54-1.18,1.27-1.85,1.75    c-0.89,0.47-1.78,0.94-2.67,1.41c-0.71,0.54-1.66,1.31-2.57,1.46c-1.39,0.22-2.5,0.47-3.81,1.03c-0.42,0.18-1.22,0.38-1.39,0.75    c-0.24,0.68-0.47,1.36-0.71,2.04c-0.02-0.11-0.09-1.82-0.39-1.52c-0.49,0.53-0.98,1.07-1.47,1.6c-0.29,0.44-0.43,1.05-0.85,1.35    c-0.38,1.21-0.54,2.51-1.14,3.66c-0.2,0.96-0.41,1.91-0.61,2.87c-1.54,2.33-3.09,4.66-4.63,6.99c-0.74,0.7-1.48,1.39-2.21,2.09    c-1.06,0.53-2.12,1.06-3.19,1.59c-1.38,0.21-2.76,0.42-4.14,0.64c-0.91,0.07-1.8-0.4-2.64-0.67c-0.86-0.27-1.73-0.28-2.62-0.28    c-0.61,0-1.47,0.02-1.86,0.41c-1.15,1.19-2.18,2.65-1.8,4.37c0.22,1.03,0.82,1.82,0.74,2.86c-0.42,1.91-0.84,3.82-1.25,5.73    c-0.4,1.6-0.6,3.2-1.18,4.75c-0.18,0.49-0.35,0.98-0.53,1.47c-0.37,0.43-1.06,0.9-1.11,1.43c-0.37,0.21-0.74,0.42-1.11,0.64    c-0.36,0.14-0.56,0.21-1.25,0.63l-0.98,0.17c0.61,0.11,1.11,0.43,1.59,0.8c0.37,0.14,0.74,0.29,1.11,0.43    c0.8,0.17,1.59,0.35,2.39,0.52c1.11,0,2.23,0,3.34,0c2.6-0.04,5.29,0.22,7.81,0.79c0.15,0.66,0.84,0.69,1.34,1    c0.79,0.49,1.42,1.09,1.95,1.86c0.87,1.27,0.98,2.97,1.31,4.44c0.21,0.7,0.42,1.39,0.64,2.09c0.87,3.03,2.69,5.66,4.32,8.29    l0.64,0.32c2.75,0.44,5.5,0.56,8.27,0.65c0.54,0.02,2.74-0.06,3.04-0.33c1.65,0.64,3.29,1.27,4.94,1.91    c1.7,0.53,3.4,1.06,5.1,1.59c0.27-0.05,0.53-0.11,0.8-0.16c0.64-0.27,1.27-0.53,1.91-0.8c1.55-1.31,3.1-2.62,4.64-3.94    c1.48-1.35,2.64-3.13,4.74-3.5c0.9,0.16,1.8,0.33,2.7,0.49c2.38,0.49,4.61,1.31,7.03,1.38c0.9,0.03,1.79-0.1,2.49,0.45    c0.39-0.15,0.36-0.28,0.41,0c0.15,0.69,0.3,1.39,0.45,2.08c-0.53,1.65-1.06,3.29-1.59,4.94c-0.27,0.96-0.53,1.91-0.8,2.87    c-0.54,0.8-0.32,2.01-1.11,2.71c-0.27,1.38-0.53,2.76-0.8,4.14c0.13,1.33,0.06,2.51,0.32,3.82c0.17,0.35,0.35,0.7,0.52,1.05    c-0.08,0.42,0.24,0.82,0.43,1.18c0.05,0.27,0.11,0.53,0.16,0.8c0.38,0.63,0.75,1.26,1.13,1.89c1.36,1.87,2.73,3.74,4.09,5.61    c0.98,0.99,1.95,1.97,2.93,2.96c1.17,1.38,1.93,3.01,3.28,4.22c0.49,0.36,0.98,0.73,1.46,1.09c1.09,1.15,2.17,2.31,3.26,3.46    c0.4,0.35,0.69,0.89,1.2,1c0.79,1.94,1.58,3.88,2.37,5.81c0.26,0.59,0.64,1.83,0.97,1.83L235.96,284.39z"/>
            <circle cx="205.59" cy="215.48" r="1.586"/>
        </g>
        <g id="__Şuhut">
            <path d="    M335.05,337.91c-0.66-0.17-0.91-0.51-1.31-0.65c-1.02-0.44-2.05-0.89-3.07-1.33c-0.61-0.27-1.21-0.54-1.82-0.81    c-0.93-0.75-1.85-1.51-2.78-2.26c-0.47-0.29-0.94-0.57-1.41-0.86c-1.39-1.04-2.77-2.08-4.16-3.12c-0.35,0.31-1.11,0.01-1.53-0.16    c-0.39-0.21-0.79-0.42-1.18-0.63c0.03-0.87-1.34-3.2-2.07-3.66c-0.53-0.42-1.06-0.85-1.59-1.27c-1.67,0-3.47-1.02-4.38-2.44    c0.12-0.57,0.24-1.15,0.36-1.72c0.07-0.36,0.14-0.73,0.2-1.09c0.36-0.12,0.75-0.62,0.96-0.96c0.41-0.91,0.82-1.81,1.23-2.72    c0.33-1.69,0.66-3.39,1-5.08c0.05-0.42,0.11-0.85,0.16-1.27c0.49-0.94,0.66-1.99,1.26-2.93c1.22-1.91,3.05-3.43,4.79-4.87    c0.27-0.05,0.53-0.11,0.8-0.16c0.69,0.05,1.38,0.11,2.07,0.16c0.31-0.23,0.62-0.45,0.93-0.68c0.32-0.21,0.46-1.13,0.54-1.58    c0.09-1.58,0.19-3.17,0.28-4.75c0.21-0.58,0.42-1.17,0.64-1.75c0.23-0.37,0.46-0.74,0.69-1.1c0.51-0.64,1.03-1.28,1.54-1.92    c0.55-0.92,0.65-2.08,1.43-2.87c0.16-0.58,0.32-1.17,0.48-1.75c-0.03-0.69-0.07-1.37-0.1-2.06c-0.67-1.46-1.34-2.91-2.01-4.37    c-0.05-1.23,0.68-1.91,1.47-2.81c-0.15-0.27-0.13-0.24,0-0.48c-0.32-0.66-0.29-1.18-0.32-1.91c-0.62-0.62-0.43-1.85-0.58-2.55    l-0.15,0.05l-0.24-0.36c-1.69-0.11-3.39-0.21-5.08-0.32c-1.58-0.23-3.04-0.92-4.46-1.59c-0.96-0.3-1.93-0.59-2.89-0.89    c-1.76-0.78-3.61-1.8-5.06-3.1c-1.15-1.03-1.92-2.35-3.2-3.19c-0.18-0.4-0.99-0.81-1.91-1.59c-3.66-1.4-6.35-3.57-6.69-3.66    c-0.58-0.21-1.17-0.42-1.75-0.64c-2.16,0-4.16,0.18-5.73,1.75c-0.78,0.78-0.5,2.2-0.75,3.2c0.16,1.01-0.97,2.85-3.55,0.91    c-2.55-1.05-5.1-2.1-7.64-3.15c-1.7-1.33-3.4-2.65-5.1-3.98c-0.65,0-2.95-1.49-3.66-1.91c-1.38-0.42-2.76-0.85-4.14-1.27    c-0.79,0.07-1.59,0.15-2.38,0.22c-0.96,0.25-1.92,0.49-2.88,0.74c-1.92,0-3.83-0.49-5.57-1.27c-2.71-0.36-5.43-0.72-8.14-1.08    l0.02,0.34c-0.54,0.12-1.13,1.18-1.61,1.7c-0.32,0.27-0.63,0.53-0.95,0.8c-0.42,0.58-0.84,1.17-1.26,1.75    c-0.21,0.96-0.42,1.91-0.64,2.87c0.16,0.96,0.32,1.91,0.48,2.87c-0.08,1.27-0.15,2.54-0.23,3.81c-0.5,1.53-1.01,3.06-1.51,4.59    c-0.11,0.49-0.22,0.98-0.33,1.47c0.05,0.69,0.11,1.38,0.16,2.07c-0.11,0.65-0.22,1.29-0.33,1.94c0,1.61,0.34,3.24-0.4,4.79    c0.14,1.91-0.26,3.85-0.76,5.66c-0.13,0.48-1.16,1-1.69,1.31c-0.52,0.04-1.04,0.08-1.56,0.11l-0.19,0.36    c0.11,0.69,0.21,1.38,0.32,2.07c-0.48,0.67,0.24,3.17,0.16,4.14c-0.04,2.07-0.09,4.14-0.13,6.21c0.12,1.85-0.13,3.39,0.45,5.2    c0.05,0.12,0.11,0.25,0.16,0.37c0.56-0.28,2.71,0.02,3.32,0.2c0.52,0.04,0.55-0.33,0.72,0.65c0.25,1.46,0.69,2.57,0.42,3.77    c0,0.32,0,0.64,0,0.96c0.45,1.56,1.41,2.47,2.39,3.66c-0.55,0.48,0.22,1.74,0.33,2.37c0.16,0.59,0.31,1.18,0.47,1.77    c-0.05,0.32-0.11,0.64-0.16,0.96c0.52,0.58,0.68,3.21,0.37,3.96c-0.07,0.17-0.14,0.34-0.21,0.5l0.17-0.16    c0,0.05-0.01,0.11-0.01,0.16c0.54-0.1,0.58,0.12,0.96,0.48c1.17,0.21,2.33,0.42,3.5,0.64c1.68,0.03,3.87-0.15,5.42,0.64    c0.48,0.37,0.96,0.74,1.43,1.11c0.48,0.05,0.96,0.11,1.43,0.16c0.42,0.27,0.85,0.53,1.27,0.8c0.62,0.23,1.02,0.07,1.59-0.16    c0.53,0.27,1.06,0.53,1.59,0.8c0.44-0.06,1.25,0.14,1.63,0.41c0.03,0.55,0.73,1.18,1.24,1.18c0.12,0.23,0.25,0.46,0.37,0.69    c0.75,1.48,1.39,2.94,2.18,4.4c0.58-0.04,1.27,0.75,1.75,1.11c0.52-0.26,1.49,0.01,2.07,0.07c2.94,0.3,5.06,2.15,7.04,4.23    c0.61,0.97,1.22,1.94,1.83,2.91c1.13,1.74,2.44,3.53,2.93,5.59c0.1,0.83,0.2,1.66,0.3,2.49c0.25,0.96,0.5,1.91,0.75,2.87    c0.16,1.11,0.31,2.22,0.47,3.32c0.68,2.25,1.86,4.49,3.24,6.39c-0.17,0.57,1.11,3.06,1.43,3.66c-0.4,0.63,0.61,2.69,0.96,3.34    c0.39,0.12,0.31,0.12,0.5,0.4c-0.01,0.27,0.17,1.35,0.16,1.61c1.8-0.64,2.69-1.58,3.32-1.86c0.74-0.69,1.49-1.38,2.23-2.07    c0.91-0.84,1.83-1.69,2.74-2.53c1.2-1.02,2.41-2.05,3.61-3.07c1.03-0.98,2.06-1.95,3.1-2.93c2.6-1.5,5.2-3,7.8-4.5    c3.59-1.5,7.18-2.99,10.78-4.49c0.32-0.42,0.64-0.85,0.96-1.27c0.78-0.4,1.55-0.81,2.33-1.21c2.36-1.37,4.14-2.98,5.95-5    c0.37-0.58,0.74-1.17,1.11-1.75c0.24-0.74,0.45-1.15,0.29-1.96L335.05,337.91z M308.39,292.56c-0.12,1.05-0.25,2.11-0.37,3.17    c-0.35,0.38-0.71,0.76-1.07,1.13c-0.1,0.73-0.36,2.65-0.96,3.03c0,0.21,0,0.42,0,0.64c-0.16-0.58-0.32-1.17-0.48-1.75    c0.58-1.86,1.17-3.72,1.75-5.57c0-0.84-0.05-2.59,0.8-3.03c0.13-0.53,0.47-1.29,0.22-1.78c0-0.06,0.01-0.12,0.01-0.18    c2.28-1.24,3.89-3.32,5.66-5.21c0.11,0.27,0.21,0.53,0.32,0.8c0.6,0,1.19-0.31,1.48,0.21c0.08,0.24,0.15,0.49,0.23,0.73    c-0.19,0.61-0.45,1.05-0.75,1.6c-0.54,0.21-0.88,0.19-1.34,0.58c-0.56,0.52-1.13,1.04-1.69,1.56c-0.5,0.14-1.01,0.28-1.51,0.42    c-0.08-0.04-0.16-0.09-0.23-0.13c0.3,1.33-0.32,1.34-1.28,2.03C308.93,291.39,308.66,291.98,308.39,292.56z"/>
            <circle cx="275.83" cy="278.23" r="1.586"/>
        </g>
        <g id="__İhsaniye">
            <path d="    M256.32,72.14c1.75,0.27,3.5,0.53,5.26,0.8c0.05,0.11,0.11,0.21,0.16,0.32c0.27,0.11,0.53,0.21,0.8,0.32    c1.11,1.27,2.23,2.55,3.34,3.82c0.42,0.58,0.85,1.17,1.27,1.75c0.28,0.58,0.5,1.88,0.96,2.23c0.34,0.58,0.37,1.01,0.47,1.43    c-0.04,0.9-0.33,1.06,0.19,1.27c0.57,2.93,1.03,5.87,1.89,8.76c0.36,1.21,1.19,2.1,1.75,3.19c0.11,0.32,0.21,0.64,0.32,0.96    c0.23,0.26,0.46,0.53,0.7,0.79c0.19,0.43,0.39,0.85,0.58,1.28c0.48,0.74,0.96,1.49,1.43,2.23c0.9,0.96,1.81,1.91,2.71,2.87    c0.81,0,1.75,0.91,2.27,1.43c0.73,0,1.38,0.61,2.03,0.96c1.3,0.71,2.63,1.05,3.82,1.91c0.52,0.37,1.37,0.3,1.75,0.8    c1.37,0.14,2.73,0.28,4.1,0.41c0.99,0.2,1.99,0.4,2.98,0.6c0.67-0.07,1.33-0.15,2-0.22c0.89,0.03,2.59,0.34,3.34-0.16    c0.48,0,0.96,0,1.43,0c0.96,0.11,1.91,0.21,2.87,0.32c0.54,0.58,0.93,0.99,1.59,1.43c0.48,0.58,0.96,1.17,1.43,1.75    c0.32,0.53,0.64,1.06,0.96,1.59c0.76,0.7,1.53,1.4,2.29,2.1c0.37,1.14,2.39,2.37,3.44,2.84c0.38,0.25,0.75,0.5,1.13,0.75    c0.63,0.33,1.26,0.67,1.9,1c0.78,0.03,2.21,0.41,2.87-0.16c0.45,0.06,1.42,0.07,1.2,0.67c-0.45,1.21-0.91,2.42-1.36,3.63    c-0.35,0.5-0.71,0.99-1.06,1.49c-0.33,0.98-1.17,2.48-1.81,3.29c-1.59,1.33-3.19,2.65-4.78,3.98c-0.64,0-1.27,0-1.91,0    c-0.8-0.6-3.56-0.1-3.13,0.37c0.11,0.17-0.37,0.22-0.54,0.43c-0.17,0.57-0.02,1.29-0.18,1.86c-0.28,0.17-0.47,0.22-0.61,0.53    c-0.58,0.16-1.17,0.32-1.75,0.48c-0.58,0.05-1.17,0.11-1.75,0.16c-0.42,0.16-0.85,0.32-1.27,0.48c-0.69,0-1.38,0-2.07,0    c-0.52,0.19-1.05,0.38-1.57,0.56c-1.12,0.18-2.24,0.37-3.36,0.55c-2.56,0-5.89,0.68-7.3,2.99c-1.14,1.86-0.67,4.42,0.61,6.09    c0.44,0.58,1.12,1.01,1.59,1.59c0.68,0.85,1.75,1.17,1.79,2.39c0.01,0.3,0.17,0.26-0.04,0.51c-1.38,1.58-3.9,1.03-5.57,2.2    c-0.21,0.42-0.42,0.85-0.64,1.27c-0.64,1.01-1.27,2.02-1.91,3.03c-2.03,1.67-3.77,0.66-6.05,0.96c-1.26,0.16-2.47,0.65-3.66,1.11    c-1.33,0.11-2.65,0.21-3.98,0.32c-0.05,0.05-0.11,0.11-0.16,0.16c-0.31-0.03-0.63-0.07-0.94-0.1c-0.31,0.18-0.79,0.35-1.13,0.26    c-0.96,0.9-1.91,1.8-2.87,2.71c-0.76,0.88-1.27,1.98-2.23,2.71c-0.34,0.26-0.86,0.48-1.27,0.48c-1.94,1.18-4.16,0.78-6.37,0.64    c-0.48,0.05-0.96,0.11-1.43,0.16c-0.48-0.05-0.96-0.11-1.43-0.16c-0.61-0.3-1.28-0.52-1.43-1.27c-0.37-0.21-0.74-0.42-1.11-0.64    c-0.48-0.16-0.96-0.32-1.43-0.48c-1.24-0.23-2.42-0.4-3.68-0.34c-0.52,0.02-1.39-0.05-1.73,0.34c-0.44-0.19-0.89-0.37-1.33-0.56    c-0.59-1.02-0.87-3.3-0.35-4.39c0.4-0.79,0.8-1.59,1.2-2.38c0.27-0.21,0.53-0.42,0.8-0.64c0.05-1.06,0.11-2.12,0.16-3.19    c-0.37-1.11-0.74-2.23-1.11-3.34c-0.67-1.38-4.4-3.21-5.73-4.14c-0.85-0.48-1.7-0.96-2.55-1.43c-0.74-0.16-1.49-0.32-2.23-0.48    c-1.33,0.11-2.65,0.21-3.98,0.32c-0.64,0.21-1.27,0.42-1.91,0.64c-0.26,0.26-0.14,0.94-0.5,0.98c-0.95,0.07-1.89,0.13-2.84,0.2    c-0.24,0.02-0.83-0.02-0.77,0.25c0.13,0.4,0.27,0.81,0.4,1.21c0.52,0.1,1.04,0.2,1.56,0.3c-0.5,0.45-1.01,0.91-1.51,1.36    c-0.69,0.27-1.37,0.54-2.06,0.81c-0.8,0.1-1.6,0.21-2.4,0.31c-0.27,0.11-0.53,0.21-0.8,0.32c-0.98,0-2.34,0-3.01-0.81    c-0.58-0.73-2.03-2.44-1.77-3.49c-0.42-0.7-0.91-1.15-1.43-1.75c-0.48-0.74-0.96-1.49-1.43-2.23c1.79-1.79,1.4-2.39,1.44-4.78    c0.01-0.59,0.12-1.67-0.32-2.07c0.08-0.83,0.23-1.72,0-2.55c-0.21-0.42-0.42-0.85-0.64-1.27c-0.42-0.74-0.85-1.49-1.27-2.23    c-0.6-0.6-1.26-1.38-0.96-2.23c-0.37-0.9-0.74-1.81-1.11-2.71c-0.21-0.35-0.69-1.75-1.11-1.75c0.11-0.11,0.21-0.21,0.32-0.32    c-0.4-0.84-0.86-1.4-0.64-2.39c0.94-2.46,1.87-4.92,2.81-7.38c0.35-1.18,0.96-2.22,1.2-3.33c0.47-0.28,0.16-0.75,0.45-1.07    c0.37-0.69,0.74-1.38,1.11-2.07c0.21-0.8,0.42-1.59,0.64-2.39c0.2-0.69,0.9-1.19,0.8-1.91c1.06-1.27,2.12-2.55,3.19-3.82    c0.53-0.42,1.06-0.85,1.59-1.27c0.9-0.96,1.81-1.91,2.71-2.87c0.74-0.58,1.49-1.17,2.23-1.75c1.43-0.74,2.87-1.49,4.3-2.23    c1.93-0.39,3.79-0.26,5.73-0.02c0.66,0.08,1.93,0.33,2.39,0.82c0.69-0.05,1.38-0.11,2.07-0.16c0.58-0.16,1.17-0.32,1.75-0.48    c1.01-0.74,2.02-1.49,3.03-2.23c0.32-0.32,0.64-0.64,0.96-0.96c0.96-0.85,1.91-1.7,2.87-2.55c1.16-1.65,2.31-3.29,3.47-4.94    c0.06-0.58,0.54-1.09,0.83-1.59c0.42-1.01,0.85-2.02,1.27-3.03c0.64-0.58,1.27-1.17,1.91-1.75c0.37-0.37,0.74-0.74,1.11-1.11    c0.64-0.28,1.28-0.55,1.93-0.83C255.05,73.07,255.68,72.6,256.32,72.14z"/>
            <circle cx="245.25" cy="130.27" r="1.586"/>
        </g>
        <g id="__Sultandağı">
            <path d="    M457.94,287.78c-0.32-0.27-0.64-0.53-0.96-0.8c0-0.42-1.13-1.69-1.43-2.23c0.05-0.91-1.43-2.7-2.23-3.5    c0-0.69-0.64-1.76-1.11-2.23c0-1.44-1.31-2.39-2.07-3.5c0.23-0.44-0.02-0.73,0.48-0.96c-0.16-0.32-0.32-0.64-0.48-0.96    c0.35-0.35,0.3-0.96,0.16-1.43c0-0.55,0.63-0.21,0.96-0.32c0.92-0.29,0.76-0.44,1.75,0.16c-0.37-0.61,0.38-1.39,0.87-1.78    c0.03-0.69,0.25-1.21,0.78-1.65c0.62,0.19,1.23,0.38,1.85,0.56c0.21-0.48,0.42-0.96,0.64-1.43c1.39,0,2.21,0.76,3.44,1.37    c0.67,0.39,0.11,1.35,0.28,2.08c0.17,0.15,0.34,0.31,0.52,0.46c0.46,0.54,1.3,0.26,1.98,0.12c0.55-0.11,0.69-0.12,1.1-0.53    c0.63,0,1.03-0.43,1.59-0.64c0.59-0.05,1.17-0.11,1.76-0.16c0.42,0.01,0.54,0.13,0.86,0.41c-0.02,0.29-0.05,0.58-0.07,0.87    c0.11,0.21,0.21,0.42,0.32,0.64c0.62,0,1.35-1.03,1.75-1.43c0.58-0.42,1.17-0.85,1.75-1.27c1.24-0.77,2.49-1.53,3.73-2.3    c0.5-0.19,0-0.46-0.23-0.73c0.04-0.27,0.08-0.54,0.12-0.81c0.34-1.48,3.22-2.71,4.65-3.21c1.25-0.44,2.3-1.94,3.51-2.04    c1.27-0.16,2.55-0.32,3.82-0.48c0.42-0.16,0.85-0.32,1.27-0.48c0.48,0.11,0.96,0.22,1.44,0.33c1.01-0.12,4.73-1.12,5.27-1.76    c0.1-0.11,0.2-0.22,0.29-0.33c0.04,0.15,0.09,0.3,0.13,0.45c0.21,0.06,0.41,0.11,0.62,0.17c0.11,0.33,0.22,0.67,0.33,1    c-0.18,0.42-0.36,0.84-0.55,1.26c-0.23,0.63,1.41-0.72,1.54-0.81c0.27-0.05,0.53-0.11,0.8-0.16c0-0.65,1.01-0.95,1.43-1.27    c0.6-0.46,0.76-1.13,1.26-1.63c0.28-0.26,0.65-0.33,0.65,0.19c0-0.26,0.4-0.26,0.64-0.32c0-0.87,0.61-0.48,1.27-0.64    c0.32-0.16,0.64-0.32,0.96-0.48c0.1,0.09,0.2,0.18,0.3,0.26c0.5,0.08,0.47,0.26,0.59,0.71c0.02,0.15,0.05,0.31,0.07,0.46    l-0.16,0.8c1.34-2.5,6.07-5,8.6-6.69c-0.04-0.62,0.02-1.38,0.46-1.87c-0.28-0.47-0.5-0.51-0.14-0.53c0.61-0.02,1.86,0.08,2.32-0.4    c0.32-0.32,0.46-0.33,0.06-0.62c-0.4-0.27-0.8-0.08-0.47-0.09c0.96-0.1,1.91-0.21,2.87-0.31c-0.07-0.32-0.15-0.64-0.22-0.96    c-0.09-0.27-0.17-0.53-0.26-0.8c-0.16,0.21-0.32,0.42-0.48,0.64c0.11-0.74,0.21-1.49,0.32-2.23c0.26-0.05,0.98-0.05,0.93-0.31    c-0.1-1.12-0.19-2.23-0.29-3.35c-0.65-1.47-1.68-2.8-2.87-3.82c-0.68-0.96-1.36-1.93-2.05-2.89c-0.91-1.05-1.82-2.11-2.73-3.16    c-0.88-1.67-1.77-3.33-2.65-5c0.14-0.35,0-0.74-0.21-1.06c-0.12-3.83,0.39-7.59,2.55-10.86c0.67-1.01,1.55-1.8,1.99-2.99    c0.2-0.4,0.24-0.4,0.24-0.64c-0.1-0.07-0.2-0.14-0.3-0.21c-2.13-1.26-3.62-1.95-5.75-3.21c-2.87-0.9-5.65-1.81-8.52-2.71    c-0.98,0-3.58-0.24-4.74-0.6c-1.87,0-2.89,0.66-4.22,0.88c-1.2,0-2.19-0.24-3.46-0.68c-0.58-0.32-0.93-0.96-1.51-1.27    c-1.89-1.83-4.58-3.11-7.29-3.78c-0.99-0.25-2.99-0.29-3.46,0.54c-0.23,0.45-0.6,1.81-1.04,2.6c-2.21,2.68-3.62,6.01-6.05,8.44    c-1.27,0.2-3.07,0.15-3.97,1.12c-1.64,1.77-3.19,3.52-4.47,5.56c-0.58,0.62-1.16,1.24-1.75,1.86c-0.69,0.97-1.38,1.94-2.08,2.92    c-0.9,1.03-1.76,1.94-2.53,3.09c-0.65,0.96-1.56,1.88-1.93,2.96c-0.2,0.6-0.92,0.94-0.96,1.59c-0.37,0.37-0.74,0.74-1.11,1.11    c-1.12,1.59-2.25,3.17-3.37,4.76c-0.95,1.02-1.89,2.03-2.84,3.05l-0.25,0.48c0.06,0.87,0.17,1.75,0.41,2.07    c-0.26,0.31-0.52,0.63-0.78,0.94c0.06,0.3,0.15,0.36-0.02,0.65c0.21,0.21,0.42,0.42,0.64,0.64c-0.04,0.09-0.08,0.18-0.12,0.27    c-0.2,0.39-1.48,2.39-1.63,2.43c0.06,0.05,0.11,0.1,0.17,0.14c0.49,0.41,1.96,1.03,1.89,1.76c-0.02,0.24,0.01,0.48-0.29,0.5    c-1.71,0.11-2.87,0.86-4.11,1.98c-0.48,0.11-0.82,0.36-1.15,0.72c-0.53,0.8-1.06,1.61-1.59,2.41c-0.24,0.32-0.6,0.65-0.96,0.78    c-0.22,0.31-0.43,0.61-0.65,0.92c-0.44,0.31-0.2,0.57-0.33-0.12c-0.09-0.59-0.31-1.22-0.94-1.36c-0.58-0.08-1.16-0.15-1.74-0.23    c-0.48-0.16-0.96-0.32-1.43-0.48c-1.51-0.09-3.13-0.17-4.62,0.16c-0.33-0.1-0.64-0.32-0.96-0.16c-0.33-0.43-0.23-0.7-0.83-0.68    c-0.15-0.52-0.08-0.47-0.51-0.38c0,0-1.5,1.33-1.78,1.74c-0.89,1.29-2.14,3.5-2.14,5.06c0,2.26-0.28,4.5-0.64,6.69    c0.35,0.67,0.06,3.64,0,4.62c0.04,0.31,0.09,0.62,0.13,0.94c0.11,0.38,0.23,0.76,0.34,1.13c-0.05,0.48-0.09,0.96-0.14,1.43    c-0.01,0.48-0.01,0.96-0.02,1.43c-0.2,2.12-1.04,4.18-1.59,6.21c-0.27,0.53-0.54,1.06-0.82,1.59c-0.26,0.58-0.52,1.17-0.78,1.75    c-0.75,1.06-1.5,2.12-2.25,3.19c-0.58,0.69-1.15,1.38-1.73,2.07l0.22,0.45c0.67,1.07,1.34,2.14,2.01,3.22    c0.85,1.54,1.7,3.08,2.55,4.62c0.34,0.45,0.68,0.9,1.02,1.34c1.78,3.72,5.2,6.35,8.63,8.35c0.71,0.91,1.43,1.82,2.14,2.73    c0.46,2.45,0.68,4.94,1.64,7.28c0.49,0.91,0.97,1.82,1.46,2.74c0.3,0.43,0.59,0.86,0.89,1.29c1.22,1.01,2.44,2.02,3.66,3.03    c0.77,0.62,4.24,1.03,5.26,0.96c1.11-0.08,2.2,0.59,2.95-0.52c0.25-0.38,0.86-1.38,0.66-1.84c-0.16-0.36-0.25-0.31,0.06-0.66    c-0.93-0.81-1.86-1.63-2.79-2.44c-0.42-0.44-0.8-1.32-1.35-1.54c-0.54-1.59-1.08-3.18-1.61-4.77c-0.42-1.81-1.4-3.49-1.43-5.41    c-0.02-1.39,1.03-2.77,1.93-3.68c0.42-0.31,0.85-0.62,1.27-0.93c0.75-0.67,2.81-1.16,3.83-1.3c1.06-0.32,2.12-0.63,3.18-0.95    c1.68-0.28,3.54-0.88,5.1-1.6c-0.27-0.64-0.23-1.09-0.96-1.27c0.12,0.15,0.24,0.3,0.36,0.45c0.11,0.15,0.19,0.42,0.37,0.26    c1.74-1.55,2.73-3.98,3.91-5.95c0.23-0.38,1.39-1.64,1.09-1.93c0.47-0.73,1.04-1.35,1.57-0.94    C459.2,290.19,458.58,288.74,457.94,287.78z"/>
            <circle cx="434.29" cy="278.23" r="1.586"/>
        </g>
        <g id="__Çay">
            <path d="    M421.63,252.11c-0.74,0.05-1.49,0.1-2.23,0.14c-0.56-0.02-1.12-0.03-1.68-0.05c-0.3,0.36-0.81,0.73-0.39,1.18    c-0.17,0.07-0.35,0.14-0.52,0.21c-0.52,0.14-1.03,0.29-1.55,0.43c-0.88,0.07-1.66-0.62-2.53-0.4c-0.47,0.12-1.25,0.08-1.45,0.56    c-0.67-0.15-0.93-0.08-1.19-0.73c-0.18-0.5,0.46-1.41,0.28-1.67c-0.3-0.48-0.76-0.57-1.32-0.63c-1.04-0.13-2.28-0.13-3.34,0.12    c-0.34-0.13-0.88-0.12-1.12,0.2c-0.32-0.05-0.64-0.11-0.96-0.16c-0.3,0.05-1.45-0.28-1.37-0.43c0.28-0.5,0.53-1.91,0.74-2.12    c0.77-0.71,1.62-1.22,2.57-1.69c0.41-0.2,0.98-0.2,1.25-0.54l-1.11-0.32c-0.16-0.03-0.31-0.05-0.47-0.08    c-3.51-0.56-7.01-1.11-10.52-1.67c-1.74-0.39-3.88,0.1-5.3-1.22c-1.99,0.48-4.51-0.2-6.31-0.95c-0.59-0.23-1.18-0.46-1.77-0.7    c-1.24,0.12-3.19,0.38-4.3-0.32c-0.69,0.03-1.38,0.07-2.07,0.1c-1.44-0.14-1.63-0.58-2.56-0.49c-2.01-0.19-4.03-0.38-6.04-0.56    c-0.69-0.23-1.37-0.45-2.06-0.68c-0.7-0.09-3.02-0.41-3.36-0.91c-0.79-0.03-1.57-0.07-2.36-0.1c-1.58-0.29-4.77-1.2-6.07-0.33    c-0.25,0.17-1.29,2.21-1.29,2.51c-0.9,1.25-1.56,2.59-2.55,3.82c-1.04,0.35-1.93,0.6-3.03,0.77c-0.31,0.12-0.8,0.07-1.11,0.03    l-0.48,0.16c0.7,0,1.52,0.36,2.07,0.8c0.48,0.48,0.96,0.96,1.44,1.44c0.73,0.73,0.09,2.45-0.32,3.18    c-0.21,1.01-0.41,2.02-0.62,3.03c-0.17,0.58-0.33,1.17-0.5,1.75c-0.05,1.96-0.11,3.93-0.16,5.89c0.25,0.3,0.53,1.53,0.31,1.79    c0.25,1.5,0.31,2.91,0.28,4.44c-0.03,1.99,0.88,3.33-0.02,5.2c-0.27,0.58-1.73,0.33-2.32,0.36c-1.12,0.06-2.38-0.13-3.24-0.95    c-1.25-1.19-1.34-3.08-2.7-4.23c-0.72-0.56-3.57,0.3-4.57,0.39c-1.33,0-2.65,0-3.98,0c-0.85,0.16-1.71,0.32-2.56,0.48l0.39,0.31    c0.15,0.7-0.04,1.93,0.58,2.55c0.02,0.73,0,1.25,0.32,1.91c-0.13,0.24-0.15,0.2,0,0.48c-0.79,0.9-1.51,1.57-1.47,2.81    c0.67,1.46,1.34,2.91,2.01,4.37c0.03,0.69,0.07,1.37,0.1,2.06c-0.16,0.58-0.32,1.17-0.48,1.75c-0.78,0.78-0.88,1.95-1.43,2.87    c-0.51,0.64-1.03,1.28-1.54,1.92c-0.23,0.37-0.46,0.74-0.69,1.1c-0.21,0.58-0.42,1.17-0.64,1.75c-0.09,1.58-0.19,3.17-0.28,4.75    c-0.08,0.45-0.22,1.37-0.54,1.58c-0.31,0.23-0.62,0.45-0.93,0.68c-0.69-0.05-1.38-0.11-2.07-0.16c-0.27,0.05-0.53,0.11-0.8,0.16    c-1.74,1.44-3.57,2.96-4.79,4.87c-0.6,0.94-0.77,1.99-1.26,2.93c-0.05,0.42-0.11,0.85-0.16,1.27c-0.33,1.69-0.66,3.39-1,5.08    c-0.41,0.91-0.82,1.82-1.23,2.72c-0.2,0.34-0.6,0.84-0.96,0.96c-0.07,0.36-0.14,0.73-0.2,1.09c-0.12,0.57-0.24,1.15-0.36,1.72    c0.92,1.42,2.71,2.44,4.38,2.44c0.53,0.42,1.06,0.85,1.59,1.27c0.73,0.46,2.1,2.79,2.07,3.66c0.39,0.21,0.79,0.42,1.18,0.63    c0.41,0.17,1.17,0.47,1.53,0.16c1.39,1.04,2.77,2.08,4.16,3.12c0.47,0.29,0.94,0.57,1.41,0.86c0.93,0.75,1.85,1.51,2.78,2.26    c0.61,0.27,1.21,0.54,1.82,0.81c1.02,0.44,2.05,0.89,3.07,1.33c0.4,0.14,0.64,0.47,1.31,0.65c0.01-0.34,0.04-0.54-0.05-0.92    c0-0.11,0-0.21-0.01-0.32c0-2.39,0.12-5.6,1.44-7.64c0.64-0.53,1.27-1.06,1.91-1.59c1.26-0.41,2.49-0.62,3.82-0.8    c1.14-0.15,1.45,0,2.52-0.67c0.11-0.04,0.23-0.09,0.34-0.13c0.21-0.21,0.43-0.42,0.64-0.64c0.16-0.9,0.32-1.8,0.48-2.71    c0.32-0.16,0.64-0.32,0.96-0.48c0.34-0.51,0.69-1.02,1.03-1.52c0.41-0.43,1.07-0.9,1.2-1.5c0.58-0.37,1.17-0.74,1.75-1.11    c0.68-0.21,1.14-0.5,1.75-0.8c0.8-0.39,2.29-0.03,2.55-1.11c1.68,0.41,2.69-0.13,4.46-0.32c2.9-0.3,6.45-0.39,8.92-2.23    c1.3-0.97,3.37-1.23,4.3-2.71c0.41,0,0.33,0,0.41-0.33c0.25-1.23,0.14-2.41,0.23-3.65c0.11-0.53,0.21-1.06,0.32-1.59    c0.42-1.17,0.85-2.34,1.27-3.5c0.4-0.67,0.81-1.33,1.21-2c1.05-1.41,2.41-2.59,3.72-3.73c0.42-0.58,0.85-1.17,1.27-1.75    c0.22-0.53,0.43-1.05,0.65-1.58c0.17-1.16,0.01-2.47,1.09-3.18c1.01-0.65,2.03-1.29,3.04-1.94c2.12,0,4.24,0,6.36-0.01    c0.53,0.05,1.07,0.11,1.6,0.16c1.26-0.08,2.28-0.74,3.47-0.94c0.86-0.11,1.72-0.22,2.58-0.33c1.46-0.14,2.69,0.68,4.14,0.8    c0.37-0.05,0.74-0.11,1.11-0.16c0.37,0.11,0.74,0.21,1.11,0.32c2.22,0.28,3.51-0.11,4.94,1.91c0.58-0.69,1.15-1.38,1.73-2.07    c0.75-1.06,1.5-2.12,2.25-3.19c0.26-0.58,0.52-1.17,0.78-1.75c0.27-0.53,0.54-1.06,0.82-1.59c0.55-2.03,1.39-4.09,1.59-6.21    c0.01-0.48,0.01-0.96,0.02-1.43c0.05-0.48,0.09-0.96,0.14-1.43c-0.11-0.38-0.23-0.76-0.34-1.13c-0.04-0.31-0.09-0.62-0.13-0.94    c0.06-0.98,0.35-3.95,0-4.62c0.35-2.19,0.64-4.43,0.64-6.69c0-1.56,1.25-3.76,2.14-5.06c0.28-0.4,1.78-1.74,1.78-1.74    C422.54,251.61,422.09,251.86,421.63,252.11z M355.06,310.88c-0.58,0.24-1.16,0.47-1.74,0.71c-0.38,0.14-0.75,0.27-1.13,0.41    c-1.33,0.8-2.65,1.59-3.98,2.39c-0.97,0.31-3.1,0.55-3.82,1.27c-1.51-0.4-2.71-1.23-4.31-1.54c-1.68-0.32-2.21,2.1-2.21,3.29    c-0.81,0.81-3.98,1.09-5.15,0.73c-0.14-0.19-0.29-0.38-0.43-0.57c-1.33,1-2.19,2.43-3.08,3.79c-0.52,0.89-1.19-0.16-1.47-0.65    c-0.3-0.5-0.01-1.35,0.09-1.87c0.36-1.78,2.06-3.11,3.1-4.53c0.24-0.4,0.48-0.8,0.73-1.2c0.82-0.58,1.65-1.16,2.47-1.74    c0.45-0.27,0.9-0.54,1.35-0.81c0.25-0.46,1.5-1.44,1.99-1.43c0.34-0.65,0.53-1.32,0.58-2.06c0.73-0.8,1.09-1.5,1.09-2.57    c0.16-0.41,0.31-0.82,0.47-1.23c0.27-0.28,0.54-0.56,0.81-0.84c0.36,0.05,0.5-0.13,0.8-0.32c0.69-0.21,1.38-0.42,2.07-0.64    c0.27,0,0.53,0,0.8,0c0.27-0.17,0.53-0.33,0.8-0.5c0.32-0.63,0.63-1.26,0.95-1.89c0.54-0.54-0.5-1.54-0.96-1.75    c0.05-0.32,0.09-0.64,0.14-0.96c0.01-0.05,0.01-0.1,0.02-0.15c0.34,0.34,0.52,0.28,0.96,0.16c0.53,0.53,1.27,0.51,1.91,0.64    c0.86-0.52,1.73-1.04,2.59-1.55c0.78-0.29,1.49,0.3,2.04,0.91c0.29,0.32,0.25,1.01,0.33,1.44c0.34,1.74,0.19,3.68-0.18,5.42    c0.32,1.06,0.64,2.12,0.96,3.19c0.75,1.23,1.5,2.46,2.25,3.69c0.15,0.2,0.3,0.4,0.45,0.61    C355.91,310.77,355.48,310.82,355.06,310.88z"/>
            <circle cx="387.47" cy="261.19" r="1.586"/>
        </g>
        <g id="__Çobanlar">
            <path d="    M342.64,244.62c0.05,0,0-0.16,0-0.16c-1.18,0-2.09-0.92-3.03-1.59c-0.33-0.16-0.67-0.32-1-0.48c-0.73-0.48-1.46-0.95-2.18-1.43    c-0.48-0.74-0.96-1.49-1.43-2.23c-1.27,0-2.14-1.45-3.07-2.17c-0.57-0.34-1.14-0.67-1.71-1.01c-0.45-0.6-0.91-1.2-1.36-1.8    c-0.39-0.46-0.79-0.92-1.18-1.38c-0.91,0-2.1-2.5-2.23-3.34c-0.35-2.17,0.56-4.52,1.36-6.41c0.4-0.93,0.91-2.14,1.67-2.83    c1.28-1.17,2.85-1.53,4.3-2.39c1.44,0.09,3.04,0.28,4.3-0.64c0.79-0.58,1.56-1.74,1.75-2.71c0.05-0.58,0.11-1.17,0.16-1.75    c-0.66-1.44-1.57-3.3-1.39-4.94c0.09-0.42,0.18-0.85,0.27-1.27c0.27,0.05-0.19-0.53,0.08-0.48c0-0.53,0.27-0.62,0.27-0.96    c0.37-0.9,0.48-0.9,0.85-1.54c-0.04-0.29,0.69-2.02,0.42-1.49c0.21-0.23,0.39-1.61,0.42-1.75l-0.13,0.16    c0.29-0.29,1.23-1,0.96-1.27c0.49-0.39,1.25-1.11,1.91-1.11c1.59-1.06,3.19-2.12,4.78-3.19c0.58-0.37,1.17-0.74,1.75-1.11    c1.37-0.05,2.44-1.27,3.5-2.07c0.27-0.16,0.53-0.32,0.8-0.48c0.88,0,3.82-0.8,4.46-1.43c0.38,0,2.49,0.9,2.71,1.11    c0.43,0.09,1.45,0.46,1.75,0.16c0.99,0.23,2.94,1.19,3.66,1.91c0.44,0,1.1,0.46,1.43,0.8l0.29,0.54    c-0.68,1.66-0.26,3.46-1.15,5.06c-0.75,1.34-2.06,1.94-3.19,2.9c-0.45,0.39-1.34,1.41-1.84,1.38c-0.53,1.75-1.06,3.5-1.59,5.26    c0,0.64,0,1.27,0,1.91c-0.11,0.27-0.21,0.53-0.32,0.8c-0.03,0.64-0.05,1.27-0.08,1.91c0,0.89-0.11,1.63-0.39,2.47    c0.05,0.08,0.1,0.16,0.15,0.23c-1.37,2-2.74,4-4.11,6c-1.09,1.97-1.66,4.28-2.37,6.41c-0.62,1-1.23,2.01-1.85,3.01    c-0.25,0.33-0.5,0.66-0.76,0.99c-1.3,1.3-2.23,2.67-3.25,4.19c-0.47,0.56-0.93,1.12-1.4,1.68c-1.91,2.14-2.07,4.64-2.92,6.6    L342.64,244.62z"/>
            <circle cx="331.57" cy="228.38" r="1.586"/>
        </g>
        <g id="__İscehisar">
            <path d="    M358.4,184.9c-0.43-0.43,0.05-0.64-0.96-0.64c-0.21-0.11-0.42-0.21-0.64-0.32c-0.32-0.48-0.64-0.96-0.96-1.43    c-0.21-1.37,0.11-2.56-0.8-3.66c-0.42-0.37-0.85-0.74-1.27-1.11c-0.2-0.29-0.39-0.57-0.59-0.86c-0.28-0.3-0.56-0.59-0.84-0.89    c-0.88-0.88-3.5-1.9-3.5-3.19c-0.11-0.16-0.21-0.32-0.32-0.48c0-1.82,1.01-3.24,2.23-4.46c0.11-0.05,0.21-0.11,0.32-0.16    c1.68,0,3.23-0.97,4.77-1.29c0.49-0.1,1.64-0.23,1.8-0.75c0.15-0.33,0.29-0.65,0.44-0.98c-0.05-0.85-0.11-1.7-0.16-2.55    c-0.12-0.38-0.25-0.76-0.37-1.14c-0.25-1.21-0.5-2.43-0.75-3.64c-1.32-1.77-3.06-3.02-5.1-3.98c-0.58-0.37-1.17-0.74-1.75-1.11    c-2.12-1.65-4.25-3.29-6.37-4.94c-0.37-0.58-0.74-1.17-1.11-1.75c-0.05-0.48-0.11-0.96-0.16-1.43c0.32-1.17,1.43-1.74,2.23-2.55    c0.16-0.27,0.32-0.53,0.48-0.8c0-1.94-0.41-3.94-0.04-5.87c0.23-0.7,0.45-1.4,0.68-2.1c0.63-0.63,0.55-0.91,0-1.59    c-0.74-0.8-1.49-1.27-2.23-2.07c-0.37-0.64-0.74-1.59-1.11-2.23c0-0.86-0.68-1.22-0.95-1.92c-0.27-0.71-0.52-1.55-1.12-2.06    c-0.32-0.21-0.64-0.42-0.96-0.64c-0.64-0.64-1.27-1.27-1.91-1.91c-0.53-0.11-1.06-0.21-1.59-0.32c-1.17-0.13-2.27,0.28-3.19-0.64    c-0.39-0.39-0.96-2.32-1.42-2.18c-0.46,0.15-0.47,0.35-0.65,0.75c-0.69,0.42-1.38,0.85-2.07,1.27c-1.01,0-2.94,0.23-3.66,0.96    c-0.94,0.12-2.51,0.14-3.07,0.93l-0.19,1.02c-0.45,1.21-0.91,2.42-1.36,3.63c-0.35,0.5-0.71,0.99-1.06,1.49    c-0.33,0.98-1.17,2.48-1.81,3.29c-1.59,1.33-3.19,2.65-4.78,3.98c-0.64,0-1.27,0-1.91,0c-0.8-0.6-3.56-0.1-3.13,0.37    c0.11,0.17-0.37,0.22-0.54,0.43c-0.17,0.57-0.02,1.29-0.18,1.86c-0.28,0.17-0.47,0.22-0.61,0.53c-0.58,0.16-1.17,0.32-1.75,0.48    c-0.58,0.05-1.17,0.11-1.75,0.16c-0.42,0.16-0.85,0.32-1.27,0.48c-0.69,0-1.38,0-2.07,0l-0.64,0.32c0.04,0.5,0.79,0.94,1.16,1.26    c0.99,1.09,1.97,2.17,2.96,3.26c0.32,0.46,0.65,0.91,0.98,1.37c1.52,1.21,2.54,3.63,2.76,5.57c0.09,0.32,0.18,0.64,0.27,0.96    c-0.32,1.17-0.64,2.34-0.96,3.5c0,0.74,0,1.49,0,2.23c-0.05,1.22-0.11,2.44-0.16,3.66c-0.58,1.11-1.17,2.23-1.75,3.34    c0,0.58,0,1.17,0,1.75c0.16,0.9,0.32,1.81,0.48,2.71c0.71,0.81,1.43,1.63,2.14,2.44c0.29,0.34-0.16,0.79-0.39,1.06    c-0.76,0.89-1.88,1.44-2.39,2.55c-0.96,2.55-1.91,5.1-2.87,7.65c-0.48,0.85-0.95,1.69-1.43,2.54c-0.26,0.91-0.38,1.76-0.32,2.71    c0,0.38,2.02,1.81,2.39,2.23c0.51,0.58,1.35,1.21,1.75,1.75c0.16,0.27,0.32,0.53,0.48,0.8c0.46,0.41,0.92,0.82,1.37,1.23    c0.97,1.58,2.1,3.37,4.04,3.87c2.27,0.58,5.22-1.6,7.49-1.98c2.17,0.13,4.35,0.26,6.52,0.39c0.36-0.07,0.72-0.13,1.08-0.2    c0.54-0.2,1.08-0.4,1.63-0.6c0.64,0.05,1.27,0.11,1.91,0.16c1.13-0.34,2.27-0.69,3.4-1.03c-0.06-0.46-0.05-0.96-0.05-1.35    c-0.35-0.54-0.7-1.09-1.05-1.63c-0.19-0.37,0.48,0.42,0.58,0.52c0.21,0.11,0.42,0.21,0.64,0.32c0.29,0.45,0.25,0.89,0.64,1.27    c0.09,0.33,0.18,0.65,0.27,0.98c0.12-0.01,0.24-0.02,0.36-0.01c0.73,0.08,1.61,0.2,2.23,0.62c0.42,0.42,0.85,0.85,1.27,1.27    c-0.15,0.82,1.22,2.25,1.59,3.03c1.3,0.53,1.57,0.37,2.2,0.48l-0.13,0.16c0.29-0.29,1.23-1,0.96-1.27    c0.49-0.39,1.25-1.11,1.91-1.11c1.59-1.06,3.19-2.12,4.78-3.19c0.58-0.37,1.17-0.74,1.75-1.11c1.37-0.05,2.44-1.27,3.5-2.07    c0.27-0.16,0.53-0.32,0.8-0.48c0.88,0,3.82-0.8,4.46-1.43l1.07-0.35C359.77,187.45,359.66,186.15,358.4,184.9z"/>
            <circle cx="324.08" cy="180.92" r="1.586"/>
        </g>
        <g id="__Bayat">
            <path d="    M358.99,189c0.78-1.55,0.66-2.85-0.59-4.11c-0.43-0.43,0.05-0.64-0.96-0.64c-0.21-0.11-0.42-0.21-0.64-0.32    c-0.32-0.48-0.64-0.96-0.96-1.43c-0.21-1.37,0.11-2.56-0.8-3.66c-0.42-0.37-0.85-0.74-1.27-1.11c-0.2-0.29-0.39-0.57-0.59-0.86    c-0.28-0.3-0.56-0.59-0.84-0.89c-0.88-0.88-3.5-1.9-3.5-3.19c-0.11-0.16-0.21-0.32-0.32-0.48c0-1.82,1.01-3.24,2.23-4.46    c0.11-0.05,0.21-0.11,0.32-0.16c1.68,0,3.23-0.97,4.77-1.29c0.49-0.1,1.64-0.23,1.8-0.75c0.15-0.33,0.29-0.65,0.44-0.98    c-0.05-0.85-0.11-1.7-0.16-2.55c-0.12-0.38-0.25-0.76-0.37-1.14c-0.25-1.21-0.5-2.43-0.75-3.64c-1.32-1.77-3.06-3.02-5.1-3.98    c-0.58-0.37-1.17-0.74-1.75-1.11c-2.12-1.65-4.25-3.29-6.37-4.94c-0.37-0.58-0.74-1.17-1.11-1.75c-0.05-0.48-0.11-0.96-0.16-1.43    c0.32-1.17,1.43-1.74,2.23-2.55c0.16-0.27,0.32-0.53,0.48-0.8c0-1.94-0.41-3.94-0.04-5.87c0.23-0.7,0.45-1.4,0.68-2.1    c0.63-0.63,0.55-0.91,0-1.59c-0.74-0.8-1.49-1.27-2.23-2.07c-0.37-0.64-0.74-1.59-1.11-2.23c0-0.86-0.68-1.22-0.95-1.92    c-0.27-0.71-0.52-1.55-1.12-2.06c-0.32-0.21-0.64-0.42-0.96-0.64c-0.64-0.64-1.27-1.27-1.91-1.91c-0.53-0.11-1.06-0.21-1.59-0.32    c-1.17-0.13-2.27,0.28-3.19-0.64c-0.39-0.39-0.96-2.32-1.42-2.18l0.36-0.33c0.74-2.95,3-5.44,5.07-7.65    c0.73-0.65,1.47-1.29,2.2-1.94c1.17-0.74,2.34-1.49,3.5-2.23c0.45-0.3,1.12-0.25,1.27-0.8c2.41-0.42,4.9,0.16,7.33,0.16    c0.96,0,1.91,0,2.87,0c2.75,0.02,6.19,0.82,8.47-1.04c0.88,0.05,2.35-2.28,2.51-3.3c0.42-1.96-1.09-4.47-2.65-5.72    c-0.6-0.63-1.2-1.25-1.8-1.88c-0.66-0.6-1.31-1.21-1.97-1.81c-0.66-1.01-1.31-2.02-1.97-3.03c-0.12-0.08-0.24-0.17-0.36-0.25    c-0.08-0.32-0.17-0.64-0.25-0.96c-0.31-1.24-0.63-2.36-0.52-3.65c0.03-0.38-0.18-0.65-0.07-0.82c0.25-0.42,0.5-0.85,0.75-1.27    c0.37-0.21,0.8-0.52,0.89-0.94c1.11-0.42,2.23-0.85,3.34-1.27c3.17,0,5.1,2.02,5.42,1.91l-0.48,0.32    c-0.15,2.34,2.27,4.06,4.78,5.57c1.98,1.19,1.63,3.41,2.87,6.37c-1.88,1.82-4.29,2.63-6.37,4.3c0.39,1.6,0.98,2.64,2.23,3.66    c4.93-0.48,9.46,0.1,14.32-1.13c1.85-0.37,3.7-0.73,5.55-1.1c0.2,0.23,0.41,0.46,0.61,0.69c0.33,1.64-5.77,6.91-7.1,8.56    c0.11,3.16,3.94,11.9-0.22,13.9c-2.09,1.04-4.69,1.65-6.47,3.16c-1.51,1.28-1.97,2.95-2.56,4.76c-1.74,5.3,0.58,10.9,4.06,14.93    c1.56,1.81,3.77,3.57,4.68,5.8c1.69,4.14,0.65,7.7,0.22,11.95c-0.69,0.79-0.31,1.58-0.02,2.37c1.21,1.29,2.47,3.21,3.98,4.65    c0,0-1.25,0.18-1.64,0.36c-1.57,0.63-3.13,1.27-4.7,1.9c-0.54,0.26-1.26,0.17-1.46,0.74c-0.08-0.08-0.16-0.16-0.34-0.16    c-1.01-0.3-0.38-2.03-1.26-2.22c-0.63-0.15-0.85-0.01-0.8-0.16c-0.14,0.05-0.65,0.45-0.8,0.48c-1.37,1.01-2.02,0.79-2.38,2.24    c-0.11,0.34-0.01,0.4-0.03,0.78c-0.15,2.07-0.3,4.14-0.45,6.21c0.04,0.83,0.33,2.84-0.17,3.51c0.24,2.06-0.02,4.23-0.48,6.31    c-0.16,0.71-0.32,1.42-0.47,2.13c-0.05,0.6-0.79,1.18-1.08,1.83c-0.19,0.79-0.68,0.33-0.83,0.71c-0.21-0.02-0.42-0.05-0.63-0.07    l-0.65-0.41c-0.33-0.33-0.99-0.8-1.43-0.8c-0.72-0.72-2.67-1.68-3.66-1.91c-0.3,0.3-1.32-0.07-1.75-0.16    c-0.15-0.15-1.19-0.62-1.95-0.9L358.99,189z"/>
            <circle cx="361.99" cy="144.44" r="1.586"/>
        </g>
        <g id="__Bolvadin">
            <path d="    M406.82,246.53c1.06,0.3,2.16,0.71,3.06,0.09c0.16-0.1,0.31-0.2,0.47-0.3c0.08-0.18,0.16-0.36,0.24-0.54    c0.5-0.06,0.38-0.19,0.28-0.62c-0.35-1.24-1.03-1.28-0.34-2.84c-0.23-0.27-0.31-0.2-0.02-0.35c0.5-0.25,1.08-0.96,1.57-0.54    c0.31-0.73,0.94-2.01-0.15-1.93c-0.35,0.05-0.26-0.28-0.45,0.15c-0.13,0.33-0.96,1.94-1.44,1.29c-0.36-0.5-0.72-1-1.08-1.5    c-0.35-0.34-0.69-0.67-1.04-1.01c-0.83-1.04-1.6-2.32-2.84-2.89c-0.57,0.5-1.05,0.84-1.61,1.24c-0.11,0.08-0.6,0.53-0.63,0.25    c0.06-0.6,0.11-1.21,0.17-1.81c0.2-0.4,0.51-0.67,0.48-1.11c0.64-0.48,1.27-0.96,1.91-1.43c0.24-0.31,1.09-1.88,0.96-2.23    c0.53-0.37,1.06-0.74,1.59-1.11c1.49-0.32,2.97-0.64,4.46-0.96c0.69,0.23,1.37,0.46,2.06,0.7c0.69-0.45,2.75-0.54,3.2,0.26    c0.75,0,1.5,0.15,2.07,0.64c0.32,0.05,0.64,0.11,0.96,0.16c0.38-0.94,0.25-0.97,1.11-1.75c0.53,0,1.06,0,1.59,0    c0.48-0.68,0.78-0.69,1.59-0.64c-0.15-0.41-0.26-0.87,0.06-1.18c0.19-0.08,0.39-0.17,0.58-0.25c0.32-1.26,3.77-3.01,4.92-2.29    c0.37-0.11,0.82-0.04,1.13,0.22c0.38-0.08,0.76-0.17,1.14-0.25c0.27,0.72,0.33,1.4,0.29,2.17c0.54-0.05,0.97,0.02,1.43,0.32    c-0.17,0.62-0.38,1.71-0.96,2.07c0.12,0.09,0.23,0.18,0.35,0.26c0.47,0.34,0.94,0.67,1.4,1.01c0.07,0.3,0.05,0.62,0.32,0.8    c-0.32,0.64-0.64,1.27-0.96,1.91c0.04,0.31,0.02,1.25,0.32,0.96c0.62-0.16,1.09-0.47,1.52-0.98c0.3-0.35,0.08-0.74,0.55-0.94    c0-0.34-0.03-1.08,0.14-1.28c0.38-0.44,1.22-1.65,1.82-1.31c0.23,0.14,0.49-0.33,0.38,0.03c-0.17,0.57-0.34,1.27-0.91,1.61    c0.04,0.06,0.08,0.11,0.12,0.17c0.61,0.81,2.14,1.11,2.14,2.24c0.03,0.42,0.06,0.83,0.09,1.25c-0.8,1.05-0.95,2.12-1.33,3.31    c-0.13,0.38-0.26,0.77-0.39,1.15c0.09-0.16,0.09,1.43,0.19,1.27c0.26-0.43,1.06-2.04,1.06-2.55c0.5-0.56,0.47-1.99,1.19-2.2    c0.22-0.09,0.44-0.18,0.66-0.26c0.18,0.26,0.24,0.51,0.57,0.55c-0.05,0.25-0.11,0.51-0.16,0.76c-0.05,0.12-0.11,0.24-0.16,0.35    c0.01,0.38,0.02,1.06,0.06,1.76l0.09,0l-0.09,0l0.25-0.48c0.95-1.02,1.89-2.03,2.84-3.05c1.12-1.59,2.25-3.17,3.37-4.76    c0.37-0.37,0.74-0.74,1.11-1.11c0.03-0.65,0.75-1,0.96-1.59c0.37-1.08,1.28-2,1.93-2.96c0.77-1.15,1.63-2.06,2.53-3.09    c0.69-0.97,1.38-1.94,2.08-2.92c0.58-0.62,1.16-1.24,1.75-1.86c1.28-2.04,2.83-3.79,4.47-5.56c0.9-0.97,2.7-0.92,3.97-1.12    c2.44-2.43,3.84-5.76,6.05-8.44c0.44-0.8,0.81-2.15,1.04-2.6l-0.11-0.16l-0.01-0.78c-0.44-0.6-1.14-3.78-1.55-4.9    c-1.06-1.11-2.12-2.23-3.19-3.34c-1.97-0.68-5.74-0.96-7.15-0.37c-6.14,2.55-12.61,1.83-19.45,2.37    c-2.86,0.23-5.38,0.99-8.29,0.71c-2.4-1.69-6.85-2.83-8.44-5.42c-0.21-1.54-0.42-3.08-0.6-4.62c-0.17-1.1-3.16-2.28-3.73-3.4    c-0.4-1.03-0.94-2.14-1.09-3.45c-1.34-1.21-2.67-2.42-4.01-3.63c-2.86-3.05-5.14-9.14-9.86-9.26c-4.19-0.11-7.87,3.71-9.96,6.39    c-0.59,1.22,0.23,0.24-2.34,1.79c-2.75,0.49-4.31,0.55-6.15,0.25c-1.26-0.21-2.36-0.94-3.35-1.88l-0.14,0.18l0.14-0.18    c0,0-1.25,0.18-1.64,0.36c-1.57,0.63-3.13,1.27-4.7,1.9c-0.54,0.26-1.26,0.17-1.46,0.74c-0.08-0.08-0.16-0.16-0.34-0.16    c-1.01-0.3-0.38-2.03-1.26-2.22c-0.63-0.15-0.85-0.01-0.8-0.16c-0.14,0.05-0.65,0.45-0.8,0.48c-1.37,1.01-2.02,0.79-2.38,2.24    c-0.11,0.34-0.01,0.4-0.03,0.78c-0.15,2.07-0.3,4.14-0.45,6.21c0.04,0.83,0.33,2.84-0.17,3.51c0.24,2.06-0.02,4.23-0.48,6.31    c-0.16,0.71-0.32,1.42-0.47,2.13c-0.05,0.6-0.79,1.18-1.08,1.83c-0.19,0.79-0.68,0.33-0.83,0.71c-0.21-0.02-0.42-0.05-0.63-0.07    l-0.36,0.13c-0.68,1.66-0.26,3.46-1.15,5.06c-0.75,1.34-2.06,1.94-3.19,2.9c-0.45,0.39-1.34,1.41-1.84,1.38    c-0.53,1.75-1.06,3.5-1.59,5.26c0,0.64,0,1.27,0,1.91c-0.11,0.27-0.21,0.53-0.32,0.8c-0.03,0.64-0.05,1.27-0.08,1.91    c0,0.89-0.11,1.63-0.39,2.47c0.05,0.08,0.1,0.16,0.15,0.23c-1.37,2-2.74,4-4.11,6c-1.09,1.97-1.66,4.28-2.37,6.41    c-0.62,1-1.23,2.01-1.85,3.01c-0.25,0.33-0.5,0.66-0.76,0.99c-1.3,1.3-2.23,2.67-3.25,4.19c-0.47,0.56-0.93,1.12-1.4,1.68    c-1.91,2.14-2.07,4.64-2.92,6.6c0,0,0.37,0.14,0.59,0.31c0.25,0.2,0.51,0.4,0.76,0.59l0.48-0.16c0.31,0.04,0.8,0.09,1.11-0.03    c1.1-0.17,1.99-0.42,3.03-0.77c0.98-1.23,1.65-2.57,2.55-3.82c0-0.3,1.04-2.34,1.29-2.51c1.3-0.86,4.49,0.05,6.07,0.33    c0.79,0.03,1.57,0.07,2.36,0.1c0.34,0.5,2.66,0.82,3.36,0.91c0.69,0.23,1.37,0.45,2.06,0.68c2.01,0.19,4.03,0.38,6.04,0.56    c0.94-0.09,1.13,0.36,2.56,0.49c0.69-0.03,1.38-0.07,2.07-0.1c1.11,0.7,3.07,0.43,4.3,0.32c0.59,0.23,1.18,0.46,1.77,0.7    c1.8,0.75,4.32,1.43,6.31,0.95c1.42,1.31,3.55,0.83,5.3,1.22c3.51,0.56,7.01,1.11,10.52,1.67c0.16,0.03,0.31,0.05,0.47,0.08    L406.82,246.53z"/>
            <circle cx="392.25" cy="223.12" r="1.586"/>
        </g>
    </g>
</svg>