<?xml version="1.0" encoding="UTF-8"?>
<!DOCTYPE svg PUBLIC "-//W3C//DTD SVG 1.1//EN" "http://www.w3.org/Graphics/SVG/1.1/DTD/svg11.dtd">
<svg version="1.1" id="HaritaCizim" xmlns="http://www.w3.org/2000/svg" xmlns:xlink="http://www.w3.org/1999/xlink" x="0px" y="0px" viewBox="0 0 500 519" preserveAspectRatio="none">
    <defs id="__def">
        <radialGradient id="f">
            <stop offset="0" stop-color="white" stop-opacity="1"/>
            <stop id="STOP1" offset=".4" stop-opacity="1"/>
            <stop offset="1" stop-color="white" stop-opacity=".2"/>
        </radialGradient>
        <filter id="__flt1" x="0" y="0" width="200%" height="200%" filterUnits="objectBoundingBox">
            <feGaussianBlur in="SourceAlpha" stdDeviation="3" result="blur1"/>
            <feSpecularLighting result="specOut" in="blur1" specularConstant="1.5" specularExponent="20" lighting-color="#bbbbbb">
                <feDistantLight azimuth="45" elevation="30"/>
            </feSpecularLighting>
            <feComposite in="specOut" in2="SourceAlpha" operator="in" result="specOut"/>
            <feComposite in="SourceGraphic" in2="specOut" operator="arithmetic" k1="0" k2="1" k3="1" k4="0"/>
        </filter>
        <filter id="__flt2" x="0" y="0" width="200%" height="200%" filterUnits="objectBoundingBox">
            <feGaussianBlur in="SourceAlpha" stdDeviation="3" result="blur1"/>
            <feSpecularLighting result="specOut" in="blur1" specularExponent="20" lighting-color="#bbbbbb">
                <fePointLight x="-2000" y="100" z="2000"/>
            </feSpecularLighting>
            <feComposite in="specOut" in2="SourceAlpha" operator="in" result="specOut"/>
            <feComposite in="SourceGraphic" in2="specOut" operator="arithmetic" k1="0" k2="1" k3="1" k4="0"/>
        </filter>
        <filter id="__flt3" x0="-50%" y0="-50%" width="200%" height="200%" filterUnits="objectBoundingBox">
            <feGaussianBlur in="SourceAlpha" stdDeviation="3" result="blur"/>
            <feOffset in="blur" dx="0" dy="0" result="offsetBlur"/>
            <feSpecularLighting in="blur" surfaceScale="4" specularConstant=".5" specularExponent="20" lighting-color="flavor" result="specOut">
                <fePointLight x="-5000" y="-10000" z="5000"/>
            </feSpecularLighting>
            <feComposite in="specOut" in2="SourceAlpha" operator="in" result="specOut"/>
            <feComposite in="SourceGraphic" in2="specOut" operator="arithmetic" k1="0" k2="1" k3="1" k4="0" result="litPaint"/>
            <feMerge>
                <feMergeNode in="offsetBlur"/>
                <feMergeNode in="litPaint"/>
            </feMerge>
        </filter>
        <filter id="__flt4" x0="-50%" y0="-50%" width="200%" height="200%">
            <feGaussianBlur in="SourceAlpha" stdDeviation="2" result="blur"/>
            <feOffset dy="-1" dx="-1"/>
            <feComposite in2="SourceAlpha" operator="arithmetic" k2="-1" k3="1" result="hlDiff"/>
            <feFlood flood-color="white" flood-opacity=".7"/>
            <feComposite in2="hlDiff" operator="in"/>
            <feComposite in2="SourceGraphic" operator="over" result="withGlow"/>
            <feOffset in="blur" dy="3" dx="3"/>
            <feComposite in2="SourceAlpha" operator="arithmetic" k2="-1" k3="1" result="shadowDiff"/>
            <feFlood flood-color="black" flood-opacity="1"/>
            <feComposite in2="shadowDiff" operator="in"/>
            <feComposite in2="withGlow" operator="over"/>
        </filter>
        <filter id="__golge1" x="0" y="0" width="200%" height="200%" filterUnits="userSpaceOnUse">
            <feOffset result="offOut" in="SourceAlpha" dx="8" dy="8"/>
            <feGaussianBlur result="blurOut" in="offOut" stdDeviation="3"/>
            <feBlend in="SourceGraphic" in2="blurOut" mode="normal"/>
        </filter>
    </defs>
    <g id="__Komsular" display="none">
        <linearGradient id="SVGID_1_" gradientUnits="userSpaceOnUse" x1="127.9375" y1="31.759" x2="261.2183" y2="31.759">
            <stop offset="0" style="stop-color:#FFFFFF;stop-opacity:0"/>
            <stop offset="1" style="stop-color:#7AADDD"/>
        </linearGradient>
        <path fill-rule="evenodd" clip-rule="evenodd" fill="url(#SVGID_1_)" d="M188.19,0c0.22,0.84,0.29,1.26,1.16,1.47   c0.08,0.56-0.08,0.74,0.24,0.52c0.37-0.31,0.74-0.63,1.11-0.94c0.68,0.4,1.22,0.43,1.04,1.25c0.18-0.12,0.35-0.23,0.53-0.35   c0.47-0.38,0.83-0.58,1.44-0.52c0.1-0.19,0.21-0.39,0.31-0.58C194,1.38,193.4,4.3,193.93,4.4c0.57,0.11,0.49,0.28,1.15-0.02   c1.11,1.49,2.77,2.2,2.85,4.33c0.49,0.69,0.97,1.39,1.46,2.08c0.2,0.96-0.5,1.59-0.57,2.5c0.14,0.44,0.29,0.88,0.43,1.32   c0.63,0.14,1.25,0.28,1.88,0.42c0.3,0.77,0.6,1.54,0.9,2.32c0.31,0.4,1.55-0.17,1.64,0.39c0.07,1.04,0.14,2.09,0.2,3.13   c0.01,0.14,0.07,1.32,0.32,0.96c0.23,0.1,0.47,0.2,0.7,0.3c0.2-0.44,1.95-0.76,2.17-0.21c0.21,0.59,0.56,1.1,0.33,1.67   c1.02,0.58,1.8,1.44,2.3,2.51c0.35-0.28,0.7-0.56,1.04-0.84c0.29,0.83,0.8,1.73,1.67,2.09c0.29-0.55,0.57-1.1,0.85-1.64   c0.61,0.81,0.57,1.38,1.39,1.93c0.86,0.57,1.6-1,2.19-0.1c0.15,0.22,0.03,1.29,0.03,1.29c0.35,0.03,0.7-0.13,0.86,0.22   c0.77,1.23,1.55,2.45,2.32,3.68c1.08,1.2,2.48,1.49,1.84,3.52c-0.03,0.24-0.06,0.48-0.08,0.72c-0.4,0.48-1.76,1.77-1.25,2.31   c0.31,0.27,0.12,0.62,0.41,0.6c0.96-0.03,4.03-0.54,4.81-1.03c0.66,0.06,1.39,0.13,1.88,0.63c1-0.41,5.04-1.12,5.43,0.21   c1.38-0.29,2.77-0.58,4.16-0.87c0.91-0.06,1.82-0.12,2.73-0.18c1.29,0.52,2.21,0.81,3.34,0c1.13,0.51,2.25,1.01,3.38,1.52   c0.47,0.12,0.95,0.24,1.42,0.36c1.42-0.35,3.43-0.76,4.62,0.16c1.39,1.07,3.92,4.47,3.24,6.51c-0.49,1.44-2.97,3.6-1.27,5.1   c1.35,1.24,3.76,0.61,4.16,3.26c0.11,0.14,0.22,0.29,0.33,0.43c-0.23,0.88,0.02,2.17-0.63,2.71c0.08,0.06,0.15,0.11,0.23,0.17   c0.81,0.57,1.63,1.14,2.44,1.7c-0.15,0.99-0.29,1.98-0.44,2.98c-0.42-0.99-1.12-3.41-2.44-2.97c-0.32-0.57-0.66-1.07-1.05-1.52   c-0.72-0.84-1.58-1.5-2.71-2.04c-1.06-0.39-2.11-0.77-3.16-1.16c-0.42,0.68-1.31,0.98-0.59,1.8c-0.31,0.04-0.63,0.09-0.95,0.13   c-0.46-0.31-1.13-0.35-1.15-1c0.08-0.48,0.16-0.96,0.24-1.44c0.06-1.98-0.32-3.6-1.07-5.42c-0.35-0.83,0.03-1.75-0.71-2.21   c-0.39-0.24,0.11-0.56-0.33-0.45c-0.87,0.3-1.74,0.6-2.61,0.91c-0.8-0.45-1.59-0.9-2.39-1.35c-0.46,0.1-0.91,0.2-1.37,0.29   c-0.38,0.59-0.77,1.18-1.16,1.77c0.15,0.57,0.07,0.75,0.63,1.04c-0.35,1.43-0.52,2.65-1.91,3.29c-1.33,0.38-2.46,0.67-3.75-0.01   c-0.48-0.33-0.96-0.66-1.44-0.99c-0.51,0.15-0.54,0.33-1.04,0c-0.17,0.17-0.34,0.33-0.52,0.5c0.06,0.32,0.12,0.57-0.08,0.31   c-0.47-0.74-0.94-1.47-1.4-2.21c-1.07,0.64-1.77,1.69-2.74,1.24c-0.4-0.21-0.41,0.44-0.55-0.1c-0.12-0.54-0.23-1.08-0.35-1.62   c-0.52-0.94-1.99-3.14-1.88-4.18c-0.62-0.36-1.54-0.89-2,0.04c-0.24,0.49-0.48,0.98-0.72,1.47c0.08,0.14,0.49,0.83,0.05,0.76   c-0.92-0.34-1.84-0.68-2.76-1.02c-0.42-1.16-0.53-1.98-1.98-1.79c-0.18-0.1-0.35-0.2-0.53-0.29c-1.1,0.85-1.18,1.43-2.71,1.05   c-0.09,0.04-0.19,0.07-0.28,0.11c-0.09-0.16-0.18-0.32-0.27-0.48c-0.23-0.56-0.92-2.45-0.29-2.98c-0.59-0.96-1.23-1.64-1.46-2.71   c0.76-0.29,1.1-0.4,1.67-1.04c0.06-0.94,0.4-3.81,1.04-4.38c-0.14-0.56-0.28-1.11-0.42-1.67c-0.63,0.42-1.25,0.84-1.88,1.25   c-0.25-0.36-0.41-0.41-0.21-0.83c-1.81-0.14-3.62-0.28-5.43-0.42c-0.49,0.17-0.96,0.51-1.46,0.42c-0.35,0.49-0.7,0.97-1.04,1.46   c-0.48,0.6-1.15,0.3-1.46,1.04c-0.23-0.18-0.46-0.37-0.68-0.55c-0.72-0.67-3.76-2.28-3.49-3.62c-0.34-0.34-0.75-0.94-1.25-0.83   c-0.06-0.3-0.11-0.59-0.17-0.89c-0.15-0.05-0.31-0.1-0.46-0.16c0.15-0.11,0.31-0.21,0.46-0.32c0.61-0.38,1.22-0.76,1.83-1.14   c0.28-1.04,0.56-2.09,0.83-3.13c-0.14-0.48-0.3-0.6,0-1.04c-0.3-0.12-0.59-0.23-0.89-0.35c-1.1-0.58-2.19-1.16-3.29-1.74   c-1.75-0.65-3.42-0.82-5.01-1.88c-0.48-1.34-1.4-2.16-2.71-2.71c-0.54-0.78-1.07-1.56-1.61-2.34c-0.23-0.33-0.46-0.67-0.69-1   c-0.1-0.36-0.2-0.71-0.29-1.07c-0.54-0.04-0.54-0.01-0.75-0.6c-0.44,0.44-0.69,1.12-1.04,0.42c-0.41-0.92-2.25-2.48-2.3-2.93   c-0.86-0.04-1.71-0.08-2.57-0.12c-0.21-0.42-0.51-0.89-0.35-1.34c-0.64-0.56-1.8-1.56-2.63-1.4c-0.41,0.16-0.44-0.48-0.56-0.09   c-0.17,0.66-0.41,1.26-0.15,1.91c-0.41,0.44-0.5,0.4-0.42,1.04c-0.04-0.09-0.09-0.18-0.13-0.27c-0.44-0.98-1.35-4.09-2.36-4.12   c-0.9,0.03-1.82,0.26-2.28,1.01c-0.23,0.38-0.14,0.32-0.67,0.46c0.27,0.09,0.54,0.18,0.82,0.27c0.11,0.07,0.22,0.15,0.33,0.22   c-0.59,0.32-1.18,0.65-1.77,0.97c0,0.56,0.46,1.09,0,1.67c0.3,0.16,0.56,0.25,0.31,0.59c-0.25,0.27-0.35,0.5-0.72,0.45   c-0.63,0.97-1.25,1.95-1.88,2.92c-0.38-0.04-0.75-0.09-1.13-0.13c-0.22-0.87-1.94-0.61-2-2.17c-0.2,0.01-0.4,0.03-0.61,0.04   c-0.52,0.09-0.23-0.75-0.6-0.22c-0.66,1.07-1.31,2.14-1.97,3.2c-0.23-0.6-0.69-1.4-0.16-1.98c-0.37-0.4-0.64-0.47-0.63-1.04   c-0.06,0.03-0.12,0.06-0.18,0.08c-0.29,0.11-0.58,0.22-0.87,0.33c-0.13,0.35-0.19,0.82-0.48,0.48c-0.68-1.03-1.5-1.28-2.44-1.94   c0-0.4,0.06-0.49-0.21-0.84c0.07-0.35,0.14-0.7,0.21-1.04c-0.31-0.17-0.62-0.34-0.93-0.52c-0.34,0.42-2.33,2.83-2.1,3.16   c0.31,0.43,0.62,0.86,0.93,1.29c-0.04,0.7-0.44,2.08-1.06,2.28c-0.39,0.12-0.43,0.05-0.59,0.47c0-0.14,0-0.29-0.01-0.43   c0.03-0.36,0.06-0.72,0.09-1.08c-0.47-0.14-1.19-0.08-1.55,0.25c-0.49-0.14-0.97-0.19-1.25-0.63c-0.88,0.53-1.4,0.42-1.84,1.45   c-0.3,0.68-1.07,2.25-0.85,3.03c-0.59,0.08-0.45-0.12-0.44,0.74c-0.12-0.25-0.24-0.5-0.35-0.75c-0.2-0.89-0.4-1.78-0.59-2.67   c-0.62-0.24-1.25-0.48-1.87-0.72c-0.12-0.65-0.24-1.29-0.36-1.94c-0.16,0.69-0.65,1.64-0.37,2.32c-0.5,0.78-0.85,1.32-0.96,2.21   c-0.17,0.03-0.33,0.06-0.5,0.09c0.19,0.46,0.9,1.91-0.16,1.87c-0.23-0.05-0.46-0.09-0.69-0.14c-0.14,0.19-0.27,0.37-0.4,0.56   c-0.03-0.15-0.07-0.29-0.1-0.44c-0.05-0.4-0.1-0.8-0.15-1.19c-0.22-0.67-1.34-0.38-1.08-1.01c0.64-1.5,1.05-2.72,2.17-4.04   c-0.42-0.11-0.84-0.22-1.25-0.33c-0.28,0.04-0.56,0.08-0.84,0.12c-0.7,0.42-1.39,0.84-2.09,1.25c-0.14,0.3-0.84,3.23-1.3,2.41   c-0.23-0.44-0.55-0.23-0.76-0.75c-0.08-0.21-0.16-0.41-0.23-0.62c0.2-0.45,1.36-2.83,0.97-2.69c-0.32,0.06-0.65,0.12-0.97,0.18   c-0.2,0.43-0.41,0.85-0.61,1.28c-0.46,0.35-1.67,0.42-1.66,0.41c0.14-0.61,0.28-1.16,0.04-1.77c0.43-0.25,0.77-0.29,0.31-0.39   c-0.34-0.05-3.53,0.03-3.18-0.25c0.69-0.55,1.24-1.19,2.18-1.36c0.49-0.63,0.97-1.25,1.46-1.88c0.36-0.51,0.83-0.16,1.04-0.83   c0.24,0.17,1.69,1.34,1.95,0.93c-0.17-0.72,0.05-1.34-0.28-1.98c0.4-0.33,1.46-0.99,1.06-1.49c-0.92-1.15-1.46-2.61-2.96-2.78   c-0.46-0.02-0.37,0.07-0.82-0.32c-0.51,0.23-1.44,0.92-1.6,0.54c-0.17-0.52-0.41-1.48,0.14-2c-0.14,0.84-0.28,1.67-0.42,2.51   c1.51-0.9,2.77-1.48,4.18-0.42c1.39-1.04,2.78-2.09,4.18-3.13c9.18,0,18.37,0,27.55,0c3.27,0.05,5.7,1.08,8.38,2.87   c0.47,0.31,2.58,1.61,2.82,1.4c1.56-1.42,3.11-2.85,4.67-4.27C183.73,0,185.96,0,188.19,0z"/>
        <linearGradient id="SVGID_2_" gradientUnits="userSpaceOnUse" x1="14.0383" y1="130.5313" x2="270.0591" y2="187.2632">
            <stop offset="0" style="stop-color:#FFFFFF;stop-opacity:0"/>
            <stop offset="1" style="stop-color:#7AADDD"/>
        </linearGradient>
        <path fill-rule="evenodd" clip-rule="evenodd" fill="url(#SVGID_2_)" d="M44.12,201.69c-0.71-0.4-2.08-1.01-2.51-0.21   c-0.09-0.22-0.17-0.43-0.26-0.65c-0.13-0.4,0.13-0.77-0.16-0.98c-2.09-1.52-7.62,1.54-9.49-1.16c-0.52-0.68-1.04-1.36-1.56-2.04   c-0.21-0.41-0.43-0.81-0.64-1.22c-0.14-0.66,0.02-1.72-0.42-2.09c0.34-0.3,0.58-0.57,1.04-0.63c0.14-0.43,0.46-1.57,0.24-1.73   c-0.34-0.01-0.25,0.02-0.45-0.36c-0.1,0.2-0.2,0.41-0.29,0.61c-1.34-0.09-3.42-1.66-3.19-3.05c0.21-0.72-0.3-0.62,0.52-1   c0.4-0.16,0.37-0.04,0.46-0.54c0.48,0.23,2.47,1.28,1.87,0.17c0-0.2,0.01-0.39,0.01-0.59c-1.13-0.66-2.2-1.26-3.13-2.3   c-0.09-1.2-1.84-2.89-2.71-3.76c-0.51-1.18-1.01-2.35-1.52-3.53c-0.35-0.52-1.29-3.8-1.81-3.76c-0.82,0.17-1.65,0.33-2.47,0.5   c-0.18-0.07-0.35-0.14-0.53-0.21c-0.38,0.67-1.3,1.32-0.56,1.99c-0.1-0.04-0.2-0.08-0.31-0.12c-0.35-0.16-0.32-0.22-0.74-0.09   c-1.16-1.86-2.4-3.96-4.8-4.18c-0.28-0.21-0.56-0.42-0.83-0.63c0.06-0.4,0.01-1.05,0.23-1.23c1.03-0.79,1.58-0.57,2.82-0.67   c0.33,0.25,0.71,0.23,1.12,0.11c0.45-0.13,1.61-0.38,1.87-0.1c0.41,0.49,1.78,1.95,1.68,2.71c0.27,0,0.54,0,0.81,0.01   c2.21-0.15,4.41-1.41,6.56-2.41c0.55-0.26,2.08-0.85,1.97-1.46c-0.09-0.77,0.68-2.67,0.27-3.24c0.24-0.39,0.48-0.78,0.72-1.17   c0.25-0.17,0.5-0.33,0.74-0.5c-0.04-0.07-0.08-0.14-0.12-0.21c-0.24-0.38-0.68-0.61-0.71-1.04c-0.82-0.33-2.21-0.82-1.66-1.76   c0.24-0.35-0.55-0.47-0.03-0.59c0.84-0.17,1.49-0.3,1.99-1.02c0.41,0.02,0.65,0.15,0.4-0.11c-0.12-0.12-0.25-0.24-0.37-0.36   c-0.53-0.53-1.06-1.06-1.59-1.59c-0.06-0.46-0.12-0.92-0.18-1.38c-0.15,0.04-0.3,0.09-0.45,0.13c-0.35-0.14-0.7-0.28-1.04-0.42   c0.26-0.78-0.11-1.51,0.42-2.09c-0.07,0.02-0.13,0.03-0.2,0.05c-0.45,0.07-0.91,0.15-1.36,0.22c-0.45,0.52-1.13,1.01-1.85,1.07   c-0.66-0.21-1.32-0.42-1.98-0.63c-1.82-0.65-3.64-1.31-5.46-1.96c-0.14-0.42-0.28-0.84-0.42-1.25c-0.65-0.59-1.16-0.95-1.47-1.79   c-0.12-0.05-0.25-0.1-0.37-0.16c1.95-2.56,3.58,1.32,5.18,1.32c0.67,0.67,0.48,1.12,1.47,1.19c0.98,0,3.27-0.37,3.54-1.12   c0.36-0.94,0.62-2.5-0.42-2.99c0.22-0.11,0.44-0.21,0.66-0.32c0.59-0.28,2.11-0.86,2.06-1.56c0.47,0.06,0.87,0.31,1.25,0   c-0.14-0.62-0.37-0.95,0.18-1.32c0.5-0.39,1-0.79,1.49-1.18c0.5-0.23,0.99-0.47,1.49-0.7c0.29-0.19,0.81-0.56,0.74-0.76   c-0.18-0.51-1.03-2.1-0.46-2.6c0.64-0.52,0.81-1.01,1.69-1.31c0.75-0.12,1.51-0.24,2.26-0.36c0.35-0.28,0.69-0.56,1.04-0.84   c0.11,0,0.22,0,0.33,0.01c-0.02-0.15-0.05-0.3-0.07-0.44c0.43-0.45,0.17-0.38-0.29-0.6c-0.5-0.27-3.79-1.05-3.5-1.53   c0.25-0.38,0.37-0.42,0.33-0.89c0.8-0.33,1.6-0.66,2.4-0.99c-0.11-0.14-0.22-0.27-0.33-0.41c0.36-0.77-0.24-0.48-0.82-0.27   c0.7-0.93,2.83-2.64,3.97-2.51c0.48-0.23,0.94-0.64,1.46-0.63c-0.16-0.1-0.32-0.2-0.48-0.31c-0.68-0.41-2.31-1.62-3.07-0.95   c-0.49-0.42-0.97-0.83-1.46-1.25c-0.86,0.21-1.36,0.42-2.25,0.42c-0.29-0.11-0.58-0.23-0.87-0.34c-0.49-0.07-0.66,0.05-1.06-0.29   c-0.79,0.25-1.58,0.49-2.38,0.74c-0.17-0.27-0.54-0.56-0.48-0.72c0.21-0.54,0.66-0.93,0.56-1.48c0.08,0.02,0.17,0.04,0.25,0.07   c0.85,0.15,2.26,1.51,3.13,1.06c0.73-0.37,1.38-1.08,2.26-0.71c0.07-0.25,0.14-0.49,0.21-0.74c0.48-0.11,0.36-0.16,0-0.5   c-0.07-0.15-0.14-0.29-0.21-0.44c-1.21-0.5-2.21-0.45-3.09-1.49c-0.39-0.46-1.08-0.86-0.67-1.44c-0.56-0.09-2.56-0.33-2.06-0.92   c0.52-0.68,1.88-0.69,2.51-1.13c0.25-0.17,0.91-0.49,0.71-0.82c-0.43-0.71-0.25-0.98-1.17-1.04c-0.14-0.09-0.27-0.18-0.41-0.27   c-0.9,0.21-1.81,0.42-2.71,0.63c0.04-0.17,0.07-0.35,0.11-0.52c-0.11-0.17-0.21-0.35-0.32-0.52c0.2-0.02,0.4-0.03,0.59-0.05   c0.22,0.08,0.44,0.17,0.66,0.25c0.35-0.06,0.69-0.12,1.04-0.18c0.56-0.22,1.12-0.43,1.68-0.65c0.63-0.7,1.25-1.39,1.88-2.09   c-0.04,0.3-0.08,0.6-0.12,0.89c2.4,1.36,4.4,1.74,6.38-0.48c1.18,0.43,2.99,1.1,3.75,0.07c0.25-0.39,0.14-0.49,0.63-0.69   c-0.03-0.28-0.04-2.84,0.25-2.45c0.13,0.19,0.25,0.38,0.38,0.57c0.04,0.67,0,1.97,0.51,2.37c0.76,0.59,1.25,0.84,2.21,0.97   c0.3,0.04,1.05,0.41,1.04,0.01c0-0.77-0.02-1.93-0.83-2.3c-0.07-0.51,0.13-1.08-0.21-1.46c1.93,0.35,1.53,3.43,4.14,3.07   c0.57-0.1,0.64,0.08,1.06-0.39c0.16-0.39,0.32-0.79,0.48-1.18c0.89-0.5,1.78-1,2.67-1.5c0.21-0.35,0.42-0.7,0.63-1.04   c0.35,0.21,0.7,0.42,1.04,0.63c-0.02-0.33-0.04-0.67-0.07-1c-0.09-0.43-0.16-0.29,0.27-0.67c-0.35-0.28-0.7-0.56-1.04-0.83   c-0.21-0.35-0.42-0.7-0.63-1.04c0.14,0.04,0.29,0.08,0.43,0.12c0.69,0.24,1.38,0.48,2.07,0.72c0.89,1.28,1.9,1.87,3.55,1.46   c-0.28-0.49-0.56-0.97-0.84-1.46c-0.08-0.61,0.39-0.55-0.21-1.04c0.17,0.05,0.34,0.11,0.52,0.16c0.27,0.12,0.48,0.17,0.6-0.14   c0.18-0.36,0.37-0.71,0.55-1.07c-0.7-0.7-1.39-1.39-2.09-2.09c0.15-0.03,0.3-0.07,0.44-0.1c1.28-0.1,2.41-0.14,3.69,0.19   c0.85,0.25,1.7,0.5,2.55,0.75c0.57,0.61,1.02,1.08,1.81,1.4c0.72,0.16,1.44,0.32,2.16,0.48c0.09-0.51,0.2-1.39,0.83-1.25   c0.99-0.25,1.62-0.25,2.51-0.77c1.29,0.45,4.81,0.99,6.05,0.35c1.31,0.04,3.28,0.26,4.12-0.85c0.6-0.78,1.4-3.89,0.68-4.57   c0.24-0.23,0.48-0.47,0.72-0.7c0.48-0.38,1.19-0.81,1.79-0.76c0.41-0.67,1.79-3.1,2.71-2.71c0.63-1.18,1.46-2.18,1.46-3.55   c0.74-1.21,1.56-2.29,1.85-3.72c0.08-1.75,0.16-3.51,0.23-5.26c0.12-1.35,0-2.62-0.04-3.98c0.01-0.48,0.03-0.97,0.04-1.45   c-0.95,0.43-1.39-0.19-2.09-0.84c0.06-0.93,0.13-1.61,0-2.51c-0.26-0.56-0.52-1.12-0.78-1.68c-0.13-0.65,0.26-1.33-0.06-1.87   c0.39-0.13,0.78-0.27,1.17-0.4c0.14-0.38,0.27-0.76,0.41-1.14c-0.32-0.25-0.64-0.5-0.96-0.76c-0.18-0.49-0.22-1.14-0.63-1.46   c0.04-1.32-0.19-2.36-0.5-3.63c0.07-0.23,0.13-0.46,0.2-0.68c-0.73-0.72-1.47-1.44-2.2-2.15c-0.47,0.15-1.88,0.43-2.19,0.1   c-0.94-0.88-2.1-1.51-2.1-2.83c0-0.87-0.15-3.95,0.74-4.37c-0.23-0.94-1.03-3.25-0.59-3.9c0.19-0.31,0.38-0.62,0.57-0.93   c0.65-0.6,1.3-1.2,1.96-1.8c0.33-0.71,0.66-1.43,0.98-2.14c1.09,0,2.11-2.41,1.46-3.34c0.26-0.54,0.36-1.14,0.84-1.46   c-0.27-1.15-0.18-3.12-1.05-3.97c-1.19-1.19-2.82-2.85-4.8-2.3c-1.68-0.94-3.37-1.87-5.05-2.81c-0.72-0.42-3.69-1.12-3.04-2.02   c0.12-0.2,0.24-0.4,0.37-0.6c0.8-0.29,2.56-1.36,3.13-1.25c0.5-0.65,0.64-1.23,1.1-1.89c0.26-0.27,0.52-0.55,0.78-0.82   c0.23-0.45,0.04-1.06,0.58-1.28c0.22-0.13,0.45-0.26,0.67-0.39c0.75,0.07,2.76,0.69,2.97-0.02c0.19-0.06,0.39-0.13,0.58-0.19   c-0.13-0.09-0.27-0.18-0.4-0.27c-0.21-0.12-0.43-0.24-0.65-0.36c-0.27-0.52-0.67-1.23-0.29-1.45c1.04-0.47,2.08-0.94,3.12-1.41   c0.2-0.27,0.41-0.55,0.61-0.82c0.43-0.28,0.86-0.56,1.29-0.83c2.28,1.35,2.87,2.79,3.82,5.21c0.15,0.39,0.95,2.65,0.43,2.65   c0.14,0,0.28,0,0.42,0c0.26,1.12,1.17,1.77,1.8,2.69c0.23,0.43,0.47,0.85,0.7,1.28c0.05,0.51,0.1,1.03,0.15,1.54   c0.61,0.32,1.51,0.91,2.15,0.76c1.7,1.81,4.18,2.62,5.44,4.88c1.12,0.35,1.62,1.18,2.5,1.8c0.3,0.21,0.83,0.45,0.83,0.83   c0.55,0.36,0.84,0.53,1.46,0.21c0.7,0.28,1.39,0.56,2.09,0.84c-0.09,0.71-0.53,0.46-0.1,1.18c0.8,0.93,1.6,1.86,2.39,2.79   c0.7,0.35,1.39,0.7,2.09,1.04c0.31,1.9,1.58,2.91,2.28,4.67c0.36,0.92,0.15,2.33,0.85,3.05c0.51,0.34,1.03,0.68,1.54,1.02   c0.77,0.55,1.32,1.31,1.8,2.11c-0.49,0.24-0.8,0.56-1.25,0.21c-0.08,0.2-0.16,0.39-0.24,0.59c-0.05,0.32-0.09,1.5,0.21,1.51   c0.84,0.14,1.69,0.27,2.53,0.41c0.28,0.56,0.56,1.11,0.84,1.67c-0.53,0.24-1.02,0.22-1.16,0.84c0.04,0.56,0.07,1.11,0.11,1.67   c0.44,0.05,2.1,0.07,2.08,0.63c-0.06,0.64-0.13,1.28-0.19,1.92c-0.21,0.54-0.43,1.09-0.64,1.63c-0.09,0.88,0.24,2.11,1.04,2.3   c0,0.35,0,0.7,0,1.04c0.47-0.34,0.93-0.67,1.4-1.01c0.52,0.33,0.95,0.03,1.41,0.48c1.9,1.9,0.4,2.25,0.95,3.87   c0.89,0,2.64,3.36,3.13,4.18c-0.35,0.7-0.7,1.39-1.04,2.09c0.73,0.79,0.44,1.63,0.83,2.51c-0.46,0.8-0.93,1.6-1.39,2.39   c-0.36,0.55-0.63-0.89-1.21-0.18c-0.79,0.84-0.39,1.9-0.54,3c-0.3,0.24-0.24,0.29-0.63,0.21c-0.29,0.83-0.59,1.66-0.88,2.49   c-0.14,0.54-0.34,2.41-0.42,2.45c-0.52,0.2-1.04,0.4-1.55,0.61c-0.3-0.32-0.6-0.64-0.9-0.95c-0.67,0.31-1.76,0.28-2.09,0.84   c-0.95-0.76-4.73-3.4-5.22-1.63c-0.13,0.69,0.05,1.29,0,2.05c-0.11,1.68-0.21,3.53,0.33,5.19c0.24,0.64,0.47,1.27,0.71,1.91   c0,1.22,0.04,2.2,0.42,3.34c0.21,1.46,0.42,2.92,0.63,4.38c-0.04,1.34,0.41,3.4-0.21,4.59c0.07,0.83,0.14,1.67,0.21,2.51   c0.28,0.42,0.56,0.84,0.83,1.25c-0.42,0-0.77-0.1-0.83,0.42c0.21,0.77,0.42,1.53,0.63,2.3c-0.26,0.26-0.4,1.27-0.42,1.67   c0.18,0.44,0.37,0.89,0.55,1.33c-0.75,0.65-1.5,1.3-2.25,1.96c-1.5,0.84-3.05,0.76-3.52,2.77c1.79,0.58,1.07,2.45,1.46,3.97   c0.25,0.95,0.88,1.35,1.67,1.88c-0.07,1-0.06,0.77,0.84,0.8c1.36,0.11,2.97,1.46,4.1,2.24c1.56,1.29,3.11,2.57,4.67,3.86   c0.39,0.84,0.79,1.68,1.18,2.53c0.43,1.16,3.47,1.31,2.79,2.49c0.21,0.49,2.3,2.64,2.51,3.97c1.53,1.6,1.6,0.7,3.13,2.3   c1.42,1.41,4.93,5.55,3.97,4.59c2.02,0.06,1.34,1.73,3.13,2.51c0.21,0.56,0.42,1.11,0.63,1.67c0.77,0.42,1.53,0.83,2.3,1.25   c1.41,0.9,2.63,2.6,3.44,4.03c0.32,0.61,0.63,1.21,0.95,1.82c0.64,0.84,1.72,2.3,1.44,3.46c0.06,0.28,1.48,2.52,1.9,2.17   c1.77,0.47,5.49,0.83,6.47-0.83c0.24-0.41,0.83-0.52,0.83-1.04c0.01-0.47-2.34-2.13-2.72-2.94c-0.76-1.6-2.92-5.53-2.71-7.11   c-0.46-0.44-0.49-0.58-0.31-1.15c-0.17-0.72-0.35-1.45-0.52-2.17c0.35-0.9,0.7-1.81,1.04-2.71c0.14-1.32,0.28-2.64,0.42-3.97   c0.21-0.77,0.42-1.53,0.63-2.3c0-0.77,0-1.53,0-2.3c0.48-1.09,0.29-1.96,0.42-3.13c0.41-0.48,0.82-1.04,1.46-1.04   c0.31-0.82,1.54-2.77,1.04-3.55c0.43-0.61,0.84-0.69,0.83-1.46c0.35-0.05,0.71-0.11,1.06-0.16c0.42,0.36,0.96-0.5,1.32-0.17   c0.95,0.68,1.9,1.36,2.85,2.04c0.56,1.04,1.14,2.17,2.28,2.68c0.54,1.03,1.08,2.05,1.63,3.08c0.78,0.64,1.56,1.29,2.34,1.93   c-0.21,0.14-0.42,0.28-0.63,0.42c0.31-0.31,0.32-0.1,0.58,0.2c0.3,0.4,1.07,1.28,0.67,1.68c0.97,0.28,1.3,0.86,1.88,1.67   c0.35,0.9,0.7,1.81,1.04,2.71c0.9,0.56,1.81,1.11,2.71,1.67c0.07,0.21,0.14,0.42,0.21,0.63c0.35,0.28,0.7,0.56,1.04,0.84   c0.21,1.27,0.49,2.63,0.21,3.86c0.28,0.32,0.56,0.63,0.83,0.95c0.26,0.51,0.08,0.95,0.63,1.25c0.49,0.28,0.97,0.56,1.46,0.83   c0.24,0.32,0.2,0.69,0.63,0.84c0.59,0.2,3.09,0.02,3.15,0.83c0.06,0.52-0.06,0.74,0.4,1.05c-0.56,0.78-1.15,1.47-1.41,2.41   c-0.22,0.78-0.45,2.09-1.1,2.6c-0.24,1.01-1.25,3.5-0.84,4.38c-1.15,1.84-1.29,3.68-1.1,5.8c0.1,1.16,1.4,2.02,2.15,2.76   c1.88,0.86,1.76,0.74,3.13,2.71c0.37,0.24,1.68,2.55,1.66,2.92c-0.07,1.16-0.2,3.77-0.2,3.77c-0.18,0.44-0.43,0.8-0.31,1.22   c0.24,0.76,0.82,1.25,1.46,1.68c1,0.66,2.19,1.18,2.6,2.32c0.58,1.6,0.59,3.99,0.84,5.64c1.05,0.89,2.39,2.73,1.67,4.18   c0,0.35,0,0.7,0,1.04c0.25,0.37,0.56,0.61,0.42,1.04c1.1,1.25,2.62,1.84,2.82,3.65c0.07,0.78,0.25,2.25,0.31,3.03   c-0.27,0.48-0.53,0.97-0.8,1.45c0.36,1.82,1.67,0.77,2.47,1.68c0.15-0.26,0.3-0.52,0.44-0.78c0.41,0.68,0.82,1.35,1.23,2.03   c0.74,0.79,1.75,1.49,2.2,2.57c0.38,0.95,0.76,1.91,1.14,2.86c0.7,0.97,1.39,1.95,2.09,2.92c0.96,0.2,1.68,0.78,2.3,1.46   c0.76,0.1,1.52,0.2,2.28,0.3c0.36,0.18,0.71,0.36,1.06,0.54c0.39,0.35,0.77,0.71,1.16,1.06c0.37,0.24,1.32,0.54,1.43,0.85   c0.11,0.34,0.22,0.67,0.33,1.01c0,0.35,0,0.7,0,1.04c-0.31,0.37-0.62,0.74-0.93,1.12c0.01,0.12,0.01,0.23,0.02,0.35   c-0.61,0.02-0.99,0.09-1.33-0.47c-0.51-1.3-1.03-2.61-1.54-3.91c-0.13-0.34-0.39-1.34-0.79-1.19c-0.82,0.35-2.24,1.11-2.94,0.14   c-0.41-0.03-0.78-0.13-1.04,0.21c-0.5-0.31-0.99-0.62-1.49-0.93c-0.36-0.15-1.96-0.84-2.12-0.35c-0.2,0.56-0.12,2.72,0.23,3.18   c0.84,1.17,3,3.75,4.63,3.32c0.49,0.83,0.97,1.67,1.46,2.51c0.42,0.35,0.84,0.7,1.25,1.04c1.06,1.6,1.43,3.07,1.04,4.8   c-0.14,0.02-0.28,0.03-0.42,0.05c-0.58,0.04-1.08,0.2-1.46-0.25c-0.07,0.29-0.14,0.58-0.21,0.87c-0.07,0.13-0.14,0.25-0.21,0.38   c0.07,0.35,0.14,0.7,0.21,1.04c0.59,0.73,1.18,1.46,1.77,2.19c-0.31,0.29-0.55,0.29-0.52,0.74c-0.09-0.07-0.18-0.15-0.27-0.22   c-0.72-0.5-1.6-1.71-2.4-1.67c-1.09,0.1-0.49-0.77-1.27-0.07c-0.22,0.1-0.43,0.19-0.65,0.29c-0.43,0.76-1.1,1.82-1.04,2.71   c-1.07,0.85-2.32,1.57-1.88,3.13c-0.07,0.35-0.14,0.7-0.21,1.04c-0.67,0.22-0.93,0.26-1.6-0.02c-0.66-0.26-1.35-0.74-1.53-1.44   c-1.51-0.63-2.76-0.62-3.36-2.26c-0.2-0.56-0.27,0.09-0.4-0.67c-1.99-0.31-3.58-1.6-5.64-1.88c-1.42-0.19-3.14-1.18-4.39-0.19   c-0.21-0.01-0.41-0.01-0.62-0.02c-0.02,0.21-0.04,0.43-0.05,0.64c0,0.46-0.61,0.24-0.12,0.57c0.96,0.64,1.93,1.28,2.89,1.92   c-0.63,0.21-1.25,0.42-1.88,0.63c-0.7,0.53-1.4,1.06-2.09,1.59c-0.29,0.18-1.45,0.85-1.46,1.1c0,0.71-0.71,1.56,0.63,1.69   c-0.28,0.36-0.58,0.58-0.63,1.04c-0.7,0.56-1.39,1.11-2.09,1.67c-0.37,0.36-0.74,0.73-1.1,1.09c-0.08,0.46,0.02,0.72-0.36,1   c0.13,0.13,0.71,0.77,0.32,0.96c-0.52,0.24-1.05,0.47-1.57,0.71c-0.83,0.77-1.67,1.53-2.51,2.3c-1.44,1.84-1.17,4.28-1.51,6.43   c-0.12,0.73-0.54,1.79-1.2,2.13c-0.14,0.56-0.28,1.11-0.42,1.67c-1.18,0.21-2.07-0.23-2.71,0.97c-0.23,0.51-0.52,0.99-0.21,1.54   c-0.63,0.77-1.25,1.53-1.88,2.3c-0.41,0.7-0.67,1.79-1.67,1.88c-0.56,0.74-0.93,1.49-1.74,1.99c-0.49,1.05-2.12,1.93-3.07,1.14   c-0.77,0.42-1.53,0.83-2.3,1.25c-0.8,1.34-1.45,2.46-3.25,2.68c-0.45,0.36-0.9,0.72-1.34,1.08c-0.31,0.89-0.76,3.55-1.88,3.55   c-0.92-0.69-3.22-0.7-3.76-1.46c-0.97,0.35-1.95,0.7-2.92,1.04c-1.14-0.11-2.06-0.48-3.13-0.83c-0.77,0-1.53,0-2.3,0   c-0.29,0.2-0.83,0.65-0.85,0.44c-0.02-0.69-0.05-1.38-0.07-2.08c0.59-0.71,1.17-1.41,1.76-2.12c0.16-0.75,0.33-1.5,0.49-2.26   c0.38-0.71,0.77-1.42,1.15-2.13c-0.23-1.45-0.94-3.35-2.26-4.18c-0.82-1.94-1.78-3.39-3.37-4.76c-1.17-0.14-2.57-1-3.73-0.67   c-0.07-0.17-0.15-0.34-0.22-0.51c-0.35-0.99-0.77-2.62-1.87-3.04c-0.25-0.59-0.5-1.19-0.76-1.78c-0.48-0.6-1.07,0.77-1.91-0.31   c-0.34-0.45-0.93-0.8-0.67-1.46c-0.3-0.36-0.56-0.56-0.63-1.04c-1.74-0.9-3.48-1.81-5.22-2.71c-0.74-0.81-1.37-1.69-2.3-2.3   c-0.97-0.49-1.95-0.97-2.92-1.46c-0.94-0.78-1.88-1.57-2.81-2.35c-0.73-0.61-1.47-1.22-2.2-1.83c-0.35-0.07-0.7-0.14-1.04-0.21   c-1.18-0.9-2.37-1.81-3.55-2.71c-1.01-0.94-1.81-1.98-2.68-2.98c-0.64-0.75-1.27-1.5-1.91-2.24c-1.18-0.84-2.37-1.67-3.55-2.51   c-0.97-0.49-1.95-0.97-2.92-1.46c-0.97-0.28-1.95-0.56-2.92-0.83c-0.42,0-0.83,0-1.25,0c-0.49,0.12-0.99,0.24-1.48,0.36   c-0.49,0.31-0.98,0.62-1.47,0.93c-0.48-0.08-0.95-0.16-1.43-0.24c-0.63-1.19-1.93-5.38-3.97-4.8c-0.49,0.56-0.97,1.11-1.46,1.67   c-0.41-0.02-0.82-0.05-1.23-0.07c-1.36-0.45-2.4-1.5-3.8-1.96c-0.57-0.05-1.13-0.11-1.7-0.16c-0.3-0.62-0.53-1.48-0.21-2.09   c0.87-1.46,2.94-2.5,4.65-3.03c0.06-0.29,0.12-0.57,0.18-0.85c0.01-0.13,0.02-0.27,0.03-0.4c-0.56-0.42-1.11-0.83-1.67-1.25   c-0.56-0.35-1.73-0.72-2.3-0.42c-0.27-0.26-0.53-0.51-0.8-0.77c-0.55-0.08-0.39,0.08-0.57-0.33c-0.25-0.68-0.5-1.35-0.76-2.03   c-0.02-0.31-0.04-0.61-0.07-0.92c-0.73-0.49-0.9-0.83-1.66-0.38c-0.34,0.23-0.16,0.21-0.54,0.05c-0.35,0.39-0.51,0.71-1.04,0.83   c-0.42,0.62-0.85,1.33-1.5,1.74c-0.99,0.62-1.87,0.65-2.83,1.04c-0.69,0.28-1.19,0.79-1.93,0.78c-0.63,0.77-1.25,1.53-1.88,2.3   c-0.52,0.17-0.86,0.1-1.04,0.63c-0.1-0.21-0.2-0.43-0.3-0.64c-0.78-1.79,1.2-5.97,3.01-6.46c0.04-0.6,0.09-1.2,0.13-1.81   c-0.11-1-0.23-2-0.34-2.99c-0.35-0.77-0.7-1.53-1.04-2.3c-1.11-0.84-2.23-1.67-3.34-2.51c-1.44-0.18-2.87-0.35-4.31-0.53   c-0.34-0.34-0.85-1.16-1.33-1.14c-0.25-1.08-0.74-2.6-0.26-3.51c0.09-0.22,0.17-0.44,0.26-0.67c0.81-0.3,0.99,0.31,1.22-0.64   c0.12-0.64,0.33-1.79-0.38-2.04c-0.35-0.08-0.7-0.17-1.05-0.25c-1.18-0.77-1.85-1.77-2.84-2.71c-0.46-0.44-1.18-0.43-1.34-1.05   c-0.05,0.03-0.11,0.06-0.16,0.08c-0.36,0.18-0.73,0.36-1.09,0.54c-0.21,0.19-0.42,0.39-0.63,0.58c-0.02,0.14-0.04,0.28-0.06,0.42   c-1.06-0.11-0.85-1.2-2.03-0.79c0.01-0.14,0.01-0.29,0.02-0.43c-0.01-0.41-0.01-0.83-0.02-1.24H44.12z"/>
        <path fill-rule="evenodd" clip-rule="evenodd" fill="none" stroke="#000000" stroke-width="0.25" stroke-miterlimit="10" d="   M372.33,139.49c0.33-1.79-1.09-3.25-0.87-5.22c0.21-1.84,0.74-2.81,0.27-4.62c-0.85-3.22-0.97-6.66-2.44-9.57   c-1.37-2.71-2.11-6.85-0.92-9.96c1.7-4.46,4.79-0.38,7.66,0.6c3.24,1.11,5.91,2.39,8.7,4.4c1.08,0.78,2.36,1.89,3.69,2.4   c1.51,0.59,3.03,0.52,4.32,1.77c2.42,2.34,3.22,5.32,6.57,6.53c4.21,1.53,6.09-0.88,8.86-3.59c2.44-2.39,4.67-4.51,6.52-7.34   c1.83-2.8,1.81-5.59,3.11-8.47c1.32-2.93,3.52-5.62,4.94-8.71c1.29-2.81,3.1-5.94,3.76-9.12c0.81-3.86-0.34-6.95,3.47-9.1   c2.74-1.55,5.32-3.23,8.05-5.05"/>
        <path fill-rule="evenodd" clip-rule="evenodd" fill="none" stroke="#000000" stroke-width="0.25" stroke-miterlimit="10" d="   M442.8,309.57c2.13,2.46,4.67,4.82,6.36,7.34c0.89,1.32,1.12,2.93,1.96,4.13c0.76,1.09,2.07,1.66,2.94,2.71   c1.05,1.27,1.58,2.68,2.88,3.7c1.42,1.12,3.07,1.64,4.58,2.5c2.96,1.69,5.76,2.39,8.96,3.27c5.06,1.4,9.93,2.33,15.17,1.35   c4.79-0.9,9.49-2.35,14.37-3.03"/>
        <path fill-rule="evenodd" clip-rule="evenodd" fill="none" stroke="#000000" stroke-width="0.25" stroke-miterlimit="10" d="   M316.44,436.15c-1.14,3.33-0.52,6.01-2.77,8.98c-2.15,2.83-4.08,4.49-7.45,5.15c-3.44,0.67-6.64,1.4-10.05,1.92   c-5.07,0.77-2.7,3.87-1.86,7.39c1.32,5.5,6.75,12.55,12.14,14.83c3.2,1.36,5.48,3.47,8.26,5.66c2.88,2.26,6.36,1.56,9.73,2.45   c5.55,1.47,10.03,8.8,13.27,13.21c2.32,3.16,4.68,3.41,7.93,4.95c1.51,0.72,2.35,1.53,4.08,1.79c1.77,0.27,3.66-0.2,5.44,0.05   c4.16,0.58,7.67,4.55,10.72,7.29c1.72,1.55,3.29,2.93,4.55,4.64c1.17,1.59,2.71,2.79,3.87,4.34"/>
        <text transform="matrix(0.5576 0.8301 -0.8301 0.5576 22.25 456.5024)" font-family="'MyriadPro-Regular'" font-size="15.6594">KONYA</text>
        <text transform="matrix(0.743 0.6693 -0.6693 0.743 132.9614 39.6118)" font-family="'MyriadPro-Regular'" font-size="15.6594">ANKARA</text>
        <text transform="matrix(0.7029 0.7113 -0.7113 0.7029 322.0698 27.5103)" font-family="'MyriadPro-Regular'" font-size="15.6594">KIRŞEHİR</text>
        <text transform="matrix(0.4422 0.8969 -0.8969 0.4422 441.7129 174.6865)" font-family="'MyriadPro-Regular'" font-size="15.6594">NEVŞEHİR</text>
        <text transform="matrix(0.6078 -0.7941 0.7941 0.6078 445.8252 467.2334)" font-family="'MyriadPro-Regular'" font-size="15.6594">NİĞDE</text>
    </g>
    <g id="__Harita" display="none">
        <rect id="__cer" x="0" y="0" fill="#000000" opacity="0" width="500" height="519"/>
        <g id="__Sarıyahşi">
            <path d="    M259.18,55.96c-0.23,0.88,0.02,2.17-0.63,2.71c0.08,0.06,0.15,0.11,0.23,0.17c0.81,0.57,1.63,1.14,2.44,1.7    c-0.15,0.99-0.29,1.98-0.44,2.98c-0.42-0.99-1.12-3.41-2.44-2.97c-0.32-0.57-0.66-1.07-1.05-1.52l0,0.16    c-0.21,1.15-0.42,2.3-0.63,3.45c0,0.97-0.01,2.11-0.63,2.92c-0.83,1.1-1.78,2.37-2.92,3.13c-0.77,0.28-1.53,0.56-2.3,0.84    c-0.5,0.5-1.85,1.04-2.51,1.04c-1.57,1.05-2.11,1.61-3.94,1.79c-0.36,0.44-1.58,0.56-1.94,1c-1.86,0.4-3.29,1.71-5.26,1.62    c-0.81-0.08-1.62-0.16-2.43-0.23c-1.88,0-3.76,0-5.64,0c-2.44,0.14-4.87,0.28-7.31,0.42c-1.87,0.12-3.8-0.24-5.64,0.21    c-2.42,0.59-5.05,3.18-7.08,4.63c-1.07,0.8-0.44,1.76-0.44,2.9c0.42,2.36,0.84,4.72,1.26,7.08c0.21,0.49,0.42,0.97,0.63,1.46    c0.13,0.52,0.63,1.69,0.63,2.09c0.7,0.77,1.39,1.53,2.09,2.3c0.7,0.42,1.39,0.84,2.09,1.25c1.12,0.98,2.24,1.95,3.37,2.93    c0.97,1.04,1.93,2.08,2.9,3.13c0.63,0.97,1.25,1.95,1.88,2.92c0.63,0.9,1.25,1.81,1.88,2.71c1.82,2.21,2.69,2.61,3.94,5.05    c0.04,0.08,1.44,2.18,1.48,2.26l-0.01,0.83c0.02-0.69,2.26-1.2,2.94-1.4c1.54-0.45,3.06-0.87,4.58-1.51    c0.18-0.47,1.02-0.78,1.46-1.04c1,0,2.02-0.61,2.84-1.17c2.62-1.81,2.8-2.94,2.8-5.92c0.35-1.47,0.7-2.94,1.05-4.4    c0.12-0.92,0.92-1,1.12-1.76c1.24-1.17,3.69-0.7,5.34-0.52c1.11,0.63,2.23,1.25,3.34,1.88c0.02,0.56,0.25,0.64,0.63,1.04    c1.27,0.1,1.67,0.1,2.89-0.28c0.75-0.22,2.91-2.68,2.98-3.58c0.75-0.6,1.59-2.3,2.06-3.24c0.59-0.89,1.46-0.81,1.46-1.46    c0.28-0.28,0.56-0.56,0.83-0.84l0.61-0.61c1.05-0.98,2.1-1.95,3.15-2.93c0.49-0.35,0.97-0.7,1.46-1.04    c0.84-0.49,1.67-0.97,2.51-1.46c2.26-2.93,5.49-4.37,8.46-6.4c1.37-0.94,2.78-1.52,4.24-2.24c0.43-0.21,0.61-1.43,1.08-0.96    l-0.21-0.42c-0.35-0.35-0.7-0.7-1.04-1.04c0-0.53-0.1-2.19-0.42-2.51c-0.07-1.32-0.14-2.65-0.21-3.97    c0.42-0.42,0.21-1.5,0.21-2.09c0.64-0.64-0.48-4.52-0.78-5.45c-1.13-0.83-2.27-1.66-3.4-2.49c0.18-1.33-0.64-1.43-1.67-1.67    c-0.15-0.5-0.28-0.32-0.63-0.63c-1.94-1.72-2.43-1.62-4.8-2.09c-0.83-0.07-1.67-0.14-2.51-0.21c0.26,0.26,0.16,0.22-0.19,0.31    c-0.59-0.24-3.05-0.28-3.66,0.07c-0.38-0.1-2-0.15-2,0.24c-1.06-0.4-1.63,0.13-2.51,0c-0.7-0.14-1.39-0.28-2.09-0.42    c-0.91,0.91-1.82,0.56-2.92,1.04L259.18,55.96z"/>
            <circle cx="243.36" cy="79.46" r="1.586"/>
        </g>
        <g id="__Ortaköy">
            <path d="    M262.29,182.08c0.94-0.71,1.81-1.48,2.73-2.31c0.77-0.63,1.53-1.25,2.3-1.88c0.97-0.84,1.95-1.67,2.92-2.51    c0.42-0.21,0.83-0.42,1.25-0.63c1.74-1.32,3.48-2.64,5.22-3.97c1.04-0.97,2.09-1.95,3.13-2.92c0.52-1.13,1.42-2.07,2.3-2.92    c0.21-0.42,0.42-0.84,0.63-1.25c0.48-0.63,0.96-1.27,1.44-1.91c1.55-1.91,3.39-3.39,5.04-5.19c1.16-1.28,3.65-3.34,5.22-3.97    c0.42-0.28,0.83-0.56,1.25-0.83c0.33-0.39,0.54-0.67,1.04-0.83c0.49-0.65,0.99-1.31,1.48-1.96c0.57-0.6,1.98-2.87,1.82-3.67    c-0.26-1.05-0.53-2.09-0.8-3.14c-0.26-0.79-0.81-1.22-0.83-2.09c-1.67-2.3-3.34-4.59-5.01-6.89c0.07-0.7,0.14-1.39,0.21-2.09    c-0.34-0.87-0.67-1.74-1.01-2.62c-0.6-3.16-1.21-6.31-1.81-9.47c-0.45-0.84-0.9-1.69-1.35-2.53c-1.14-0.89-3.32-2.32-3.97-3.55    c-2.09-1.46-4.18-2.92-6.26-4.38c-1.11-1.11-2.23-2.23-3.34-3.34c-0.63-0.77-1.25-1.53-1.88-2.3c-0.91-1.03-2.08-1.96-2.51-3.34    c-0.18-0.59-0.72-1.34-0.42-1.88c-0.52-0.68-1.04-1.36-1.56-2.04c-0.32-0.53-1.98-3.41-2.41-2.98l0.61-0.61    c1.05-0.98,2.1-1.95,3.15-2.93c0.49-0.35,0.97-0.7,1.46-1.04c0.84-0.49,1.67-0.97,2.51-1.46c2.26-2.93,5.49-4.37,8.46-6.4    c1.37-0.94,2.78-1.52,4.24-2.24c0.43-0.21,0.61-1.43,1.08-0.96c2.23,2.23,4.88,3.87,7.93,4.59c1.32,0.56,2.64,1.11,3.97,1.67    c1.74,1.11,3.48,2.23,5.22,3.34c0.44,0.44,0.52,0.84,1.25,0.84c1.81,1.6,3.62,3.2,5.43,4.8c0.35,1.04,0.7,2.09,1.04,3.13    c0.78,3.16-0.16,6.61,0.21,9.81c0.42,2.64,0.83,5.29,1.25,7.93c0.5,3.11,0.48,6.71,2.71,9.19c0.07-0.07,1.02,0.69,1.61,1.11    c1.69,0.8,3.37,1.61,5.06,2.41c2.7,0.58,4.54,3.61,6.07,5.66c0.35,0.28,0.7,0.56,1.04,0.83c0.35,0.49,0.7,0.97,1.04,1.46    c0.68,0,1.33,0.91,1.79,1.34c0.93,1.02,1.87,2.03,2.8,3.05c2.09,1.27,4.33,2.69,6.71,3.28c3.56,0.89,7.45,0.07,11.03-0.15    c1.32-0.28,2.64-0.56,3.97-0.84c0.82-0.39,1.64-0.77,2.45-1.15c3.34-1.54,7.22-2.16,10.49-0.1c1.26,0.8,2.48,3.98,3.04,5.32    c0.23,0.56,0.88,1.44,0.72,1.98c0.42,1.04,0.84,2.09,1.25,3.13c0.21,0.49,0.42,0.97,0.63,1.46c0.56,1.6,1.11,3.2,1.67,4.8    c0,1.53,0,3.06,0,4.59c-0.9,3.27-1.81,6.54-2.71,9.81c-0.52,2.82,0.54,5.59-0.31,8.25c0.2,0.59-0.31,2.6-0.73,3.02    c-0.1,1.6-0.47,3.22-0.91,4.78c-0.18,0.56-0.37,1.13-0.55,1.69c-0.16,0.67-0.12,1.58-0.63,2.09c0,3.87,0.13,7.97-0.42,11.9    c-0.19,1.37,0.1,3.13-0.78,4.25c-2.1,2.66-4.59,1.6-7.53,2.52c-1.4,0.23-2.79,0.47-4.19,0.7c-0.85,0.22-1.69,0.44-2.54,0.67    c-0.42,0.21-0.83,0.42-1.25,0.63c-0.9,0.26-2.39-0.21-3.13-0.21c-1.67,0.14-3.34,0.28-5.01,0.42c-1.96,0-3.91,0.04-5.84-0.2    c-0.49-0.07-0.98-0.14-1.47-0.22c-2.1,0.26-3.72,0.01-5.81-0.22c-1.96,0.07-3.92,0.14-5.88,0.22c-1.18-0.07-2.37-0.13-3.55-0.2    c-2.28-0.64-4.57-1.29-6.85-1.93c-1.06-0.05-2.11-0.1-3.17-0.16c-0.63-0.14-1.25-0.28-1.88-0.42c-2.85,0.28-5.71,0.56-8.56,0.83    c-1.66-0.06-3.31-0.12-4.97-0.18c-0.55-0.04-1.52-0.21-1.92,0.18c-1.55-0.15-3.63-0.21-5.01,0.63c-0.43,0.38-0.87,0.75-1.3,1.13    c-0.47,0.25-0.94,0.5-1.42,0.75c-1.47,0.39-2.94,0.78-4.41,1.17c-0.97,0.21-2.34,0.24-3.11,0.91c-2.28,0.07-4.29,0.93-6.47,1.25    c-1.32,0-2.64,0-3.97,0c-4.04-1.86-6.83-3.24-8.6-7.71c-0.3-0.76-1.03-1.46-1.01-2.32c-1.07-1.18-3.97-4.13-3.97-5.64    c0.42-1.06,0.71-3.09,2.09-5.22c0.51-0.91,0.95-2.65,0.83-3.34c0.3-1.37,0-2.59,0-3.97c0-1.07,0.17-2.19-0.42-3.13    c0.09-0.33,0.52-1.06,0.63-1.46L262.29,182.08z"/>
            <circle cx="303.61" cy="174.94" r="1.586"/>
        </g>
        <g id="__Ağaçören">
            <path d="    M197.8,210.83c0.27,0.08,0.54,0.16,0.82,0.23c3.48-0.22,6.87-2.19,9.38-4.78c0.49-0.77,0.99-1.53,1.48-2.3    c0.35-0.28,0.7-0.56,1.04-0.83c0.29-0.42,0.62-0.74,0.63-1.25c0.35-0.28,0.7-0.56,1.04-0.84c0.24-0.39,0.49-0.77,0.73-1.16    c0.48-0.48,0.96-0.97,1.44-1.45c0.73-1.13,1.68-2.59,2.9-3.32c0.51-1.12,1.85-2.41,2.86-3.26c0.26-0.36,0.53-0.72,0.79-1.08    c0.71-0.89,1.45-1.78,2.34-2.47c1.64-1.28,3.47-5.04,5.26-5.74c1.77-0.7,5.42-0.76,7.26-0.49c0.8,0.12,1.74-0.13,2.3,0.59    c0.83,0.28,1.67,0.56,2.51,0.83c1.43,0.98,2.53,2.56,4.18,3.13c0.28,0.35,0.56,0.7,0.83,1.04c1.45,0.86,3.46,4.18,5.25,3.69    c1.02-0.2,2.06-1.14,2.75-1.92c1.07-0.32,2.18-1.25,2.65-2.19c0.95-0.59,1.59-1,2.28-1.89c0.63-0.69,1.27-1.38,1.9-2.08    c0.67-0.39,1.28-0.81,1.86-1.24c0.94-0.71,1.81-1.48,2.73-2.31c0.77-0.63,1.53-1.25,2.3-1.88c0.97-0.84,1.95-1.67,2.92-2.51    c0.42-0.21,0.83-0.42,1.25-0.63c1.74-1.32,3.48-2.64,5.22-3.97c1.04-0.97,2.09-1.95,3.13-2.92c0.52-1.13,1.42-2.07,2.3-2.92    c0.21-0.42,0.42-0.84,0.63-1.25c0.48-0.63,0.96-1.27,1.44-1.91c1.55-1.91,3.39-3.39,5.04-5.19c1.16-1.28,3.65-3.34,5.22-3.97    c0.42-0.28,0.83-0.56,1.25-0.83c0.33-0.39,0.54-0.67,1.04-0.83c0.49-0.65,0.99-1.31,1.48-1.96c0.57-0.6,1.98-2.87,1.82-3.67    c-0.26-1.05-0.53-2.09-0.8-3.14c-0.26-0.79-0.81-1.22-0.83-2.09c-1.67-2.3-3.34-4.59-5.01-6.89c0.07-0.7,0.14-1.39,0.21-2.09    c-0.34-0.87-0.67-1.74-1.01-2.62c-0.6-3.16-1.21-6.31-1.81-9.47c-0.45-0.84-0.9-1.69-1.35-2.53c-1.14-0.89-3.32-2.32-3.97-3.55    c-2.09-1.46-4.18-2.92-6.26-4.38c-1.11-1.11-2.23-2.23-3.34-3.34c-0.63-0.77-1.25-1.53-1.88-2.3c-0.91-1.03-2.08-1.96-2.51-3.34    c-0.18-0.59-0.72-1.34-0.42-1.88c-0.52-0.68-1.04-1.36-1.56-2.04c-0.32-0.53-1.98-3.41-2.41-2.98c-0.28,0.28-0.56,0.56-0.83,0.84    c0,0.65-0.88,0.57-1.46,1.46c-0.47,0.94-1.31,2.64-2.06,3.24c-0.08,0.9-2.23,3.36-2.98,3.58c-1.22,0.38-1.62,0.38-2.89,0.28    c-0.38-0.4-0.6-0.48-0.63-1.04c-1.11-0.63-2.23-1.25-3.34-1.88c-1.65-0.19-4.1-0.66-5.34,0.52c-0.2,0.77-1.01,0.85-1.12,1.76    c-0.35,1.47-0.7,2.94-1.05,4.4c0,2.99-0.18,4.12-2.8,5.92c-0.82,0.56-1.84,1.17-2.84,1.17c-0.44,0.27-1.28,0.58-1.46,1.04    c-1.52,0.64-3.04,1.06-4.58,1.51c-0.68,0.2-2.92,0.72-2.94,1.4c0,1.43,0.22,2.56-0.2,3.97c-1.52,3.65-3.04,7.31-4.55,10.96    c-1.33,5.26-2.65,10.51-3.98,15.77c-0.36,0.9-0.71,1.81-1.07,2.71c-0.31,0.8-1.6,2.75-1.25,3.34c-0.55,0.59-0.42,1.48-0.84,2.3    c-0.14,0.35-0.28,0.7-0.42,1.04c-0.21,0.35-0.42,0.7-0.63,1.04c-1.8,1.2-3.15,3.11-4.57,4.82c-0.45,0.5-0.9,1-1.35,1.51    c-0.9,1.45-1.36,2.93-1.81,4.53c-0.46,0.72-0.93,1.43-1.39,2.15c-0.46,0.49-0.92,0.99-1.38,1.48c-0.81,0.29-2.23,2.51-2.87,3.26    c-0.8,0.95-2.05,1.54-2.51,2.71c-1.78,1.42-3.72,2.03-5.62,3.18c-0.98,0.61-1.96,1.22-2.94,1.83c-0.56,1.04-1.11,2.09-1.67,3.13    c-0.41,0.82-1.72,2.76-1.46,3.55c-0.3,0.83-0.8,1.72-0.89,2.63l-0.04,0.06c1,0.66,2.19,1.18,2.6,2.32    c0.58,1.6,0.59,3.99,0.84,5.64c1.05,0.89,2.39,2.73,1.67,4.18c0,0.35,0,0.7,0,1.04c0.25,0.37,0.56,0.61,0.42,1.04    c1.1,1.25,2.62,1.84,2.82,3.65L197.8,210.83z"/>
            <circle cx="265.11" cy="121" r="1.586"/>
        </g>
        <g id="__Gülağaç">
            <path d="    M426.63,255.56c-0.97,0.77-2.14,1.53-3.34,1.88c-0.49,0-1.6,0.29-2.09,0.29c-1.39,0.28-2.15,0.26-3.55,0.54    c-1.49-0.5-2.13-0.25-3.7-0.25c-0.65,0-1.49,0.04-1.93,0.04c-1.67,0.42-3.34,0.83-5.01,1.25c-1.04,0.35-2.09,0.7-3.13,1.04    c-0.71,0.04-1.74,0.27-2.3,0.42c-0.83,0.14-1.67,0.28-2.51,0.42c-1.23-0.23-2.22-0.14-3.54,0.01c-1.49,0.17-4.64,1.52-5.86,2.07    c-1.97,0.61-3.29,0.94-5.16,1.55c-1.5,0.49-3.26,1.74-4.13,2.1c-0.92,0.6-3.84,1.77-5.51,2.61c-1.42,0.72-4.69,2.02-5.87,3.12    c-1.22-0.03-4.78,2.51-4.38,2.1c-1.33,1.42-1.71,0.87-2.43,1.31c-0.4,0.24-1.96,0.8-2.39,1.09c-0.42,0.07-1.81,1.45-2.48,1.57    c-0.89,0-1.37,0.63-2.3,0.63c-0.07,0.13-0.14,0.26-0.21,0.39c-0.21,0.5-0.42,0.99-0.63,1.49c-0.07,0.9-0.14,1.81-0.21,2.71    c-0.9,2.44-1.81,4.87-2.71,7.31c0,1.73-0.83,3.56-0.83,5.43c-0.28,0.56-0.56,1.11-0.83,1.67c-0.2,0.75-0.09,2,0.42,2.51    c-0.14,0.49-0.28,0.97-0.42,1.46c1.23,1.23,1.15,2.82,1.25,4.38c0.88,0.18,1.04,0.35,1.04,1.25c0.3,0.19,2.5,1.67,2.77,1.14    c1.57,1.11,2.15,1.22,4.12,0.95c0.58-0.08,0.76,0.21,1.25-0.21c0.71,0.34,1.76,0.84,2.51,0.42c1.14,0.54,3.36,1.94,3.36,3.32    c-0.02,0.38,0.05,0.58-0.23,0.85c-0.67,1.25-2.3,2.03-3.48,2.8c-0.53,0.34-0.92,0.91-1.53,0.96c-0.65,1.15-2.36,3.27-2.3,4.59    c-1.92,1.64-3.83,3.28-5.75,4.92c-0.62,0.64-1.98,0.89-1.98,1.97c-0.83,0.46-2.09,1.26-2.09,2.3c-0.28,0.35-0.56,0.7-0.83,1.04    c0,1.43-0.3,3.24,0.73,4.27c0.18,0.2,0.4,0.37,0.64,0.52c1.4,0.9,3.62,1.13,5.08,1.35c0.56,0.18,1.13,0.36,1.69,0.54    c0.38,0.38,2.14,1.2,2.51,0.83c3.13-2.06,5.73-5.37,8.56-7.93c0.97-0.88,2.39-1.14,3.13-1.88c1.25-0.07,2.51-0.14,3.76-0.21    c1.19,0.44,2.38,0.87,3.58,1.31c1.16,0.25,2.48,0.59,3.15-0.44c0.14-0.34,0.28-0.69,0.42-1.03c0.47-0.5,0.95-1,1.42-1.5    c0.63-0.97,1.25-1.95,1.88-2.92c0.58-0.74,1.06-1.93,1.88-2.3c0.14-0.07,0.28-0.14,0.42-0.21c2.07,0,4.04-0.12,6.05,0.42    c2.37,1.25,4.73,2.51,7.1,3.76c0.63-0.14,1.25-0.28,1.88-0.42c0.97-0.85,1.91-1.58,2.92-2.3c0-0.67,2.52-3.73,3-4.07    c0.46-0.31,0.93-0.63,1.39-0.94c0.34-0.27,1.42-1.59,1.42-1.59c0.64,0.34,1.23,1.11,1.93,1.17c1.59,3.06,2.99,6.3,3.55,9.6    c0.35,1.04,0.7,2.09,1.04,3.13c0.56,0.83,1.11,1.67,1.67,2.51c1.74,1.18,3.48,2.37,5.22,3.55c0.47,0,0.83,0.59,0.83-0.21    c-1.36-1.36-2.87-4.74-1.94-6.83c0.32-0.72,0.41-1.41,1.31-2.15c0.83-0.13,1.85-0.39,2.41-0.55c1.58-0.46,3.09-1.08,4.49-1.96    c0.83,0.03,1.85-0.72,2.49-1.24c1.02,0,2.8-1.9,2.91-2.89c0.08-0.22,0.15-0.44,0.23-0.66c-0.15-2.4-0.41-6.33,1.04-8.35    c0.91-1.26,1.79-2.14,3.09-2.96c0.78-0.49,1.92-0.39,1.92-1.64c-0.21-0.56-0.42-1.11-0.63-1.67c-2.41-3.08-4.81-6.16-7.22-9.24    c-1.08-0.84-4.46-0.96-5.94-1.2c-1.42-0.23-2.59-1.33-3.55-2.3c-0.39,0-1.74-1.12-2.09-1.46c-0.49-1.11-0.97-2.23-1.46-3.34    c-0.28-0.9-0.56-1.81-0.83-2.71c-0.26-1.36-0.53-2.73-0.79-4.09c0.22-2.12,0.44-4.24,0.67-6.35c0.64-1.88,1.27-3.77,1.91-5.65    c1.01-2.08,2.01-4.16,3.01-6.24c0.56-2.09,1.11-4.18,1.67-6.26c0.02-0.74-0.25-1.22-0.04-1.98    C427.02,256.05,426.82,255.8,426.63,255.56z"/>
            <circle cx="395.6" cy="307.39" r="1.586"/>
        </g>
        <g id="__Güzelyurt">
            <path d="    M423.7,338.24c-1.74-1.18-3.48-2.37-5.22-3.55c-0.56-0.84-1.11-1.67-1.67-2.51c-0.35-1.04-0.7-2.09-1.04-3.13    c-0.56-3.3-1.96-6.55-3.55-9.6c-0.69-0.06-1.29-0.82-1.93-1.17c0,0-1.08,1.31-1.42,1.59c-0.46,0.31-0.93,0.63-1.39,0.94    c-0.47,0.34-3,3.41-3,4.07c-1.02,0.72-1.95,1.44-2.92,2.3c-0.63,0.14-1.25,0.28-1.88,0.42c-2.37-1.25-4.73-2.51-7.1-3.76    c-2.02-0.54-3.99-0.42-6.05-0.42c-0.14,0.07-0.28,0.14-0.42,0.21c-0.82,0.36-1.3,1.56-1.88,2.3c-0.63,0.97-1.25,1.95-1.88,2.92    c-0.47,0.5-0.95,1-1.42,1.5c-0.14,0.34-0.28,0.69-0.42,1.03c-0.66,1.04-1.99,0.7-3.15,0.44c-1.19-0.44-2.38-0.87-3.58-1.31    c-1.25,0.07-2.51,0.14-3.76,0.21c-0.74,0.74-2.16,1-3.13,1.88c-2.83,2.57-5.43,5.88-8.56,7.93c-0.36,0.36-2.12-0.45-2.51-0.83    c-0.56-0.18-1.13-0.36-1.69-0.54c-1.46-0.22-3.68-0.45-5.08-1.35l-0.32,0.25c-2.28,0.99-4.56,1.98-6.84,2.97    c-0.52,0.31-1.94,0.94-1.94,1.59c-0.84,1.64-1.46,3.09-1.08,5.01c-0.02,0.19-0.05,0.37-0.07,0.56c0.27,0.38,1.31,1.94,1.57,1.94    c1.67,0.21,3.34,0.42,5.01,0.63c1.06,1.06,2.05,2.04,3.34,2.92c0.77,0.53,1.61,0.5,2.3,1.25c1.89,0,3.63,1.55,5.43,1.88    c1.4,0.25,2.78,1.04,4.18,1.04c2.1,1.26,4.21,2.52,6.31,3.78c0.62,1.51,2.23,2.57,2.73,4.14c0.56,1.76,1.46,4.34-0.06,5.87    c0,0.97,0,1.95,0,2.92c0.56,1.25,1.11,2.51,1.67,3.76c1.37,1.37,2.63,3.57,3.13,5.43c0.49,1.18,0.97,2.37,1.46,3.55    c0.21,0.9,0.42,1.81,0.63,2.71c0.35,0.97,0.7,1.95,1.04,2.92c0.63,0.97,1.25,1.95,1.88,2.92c0.48,0.49,1.19,1,1.25,1.67    c1.32,0.66,2.56,1.39,3.76,2.3c0.26,0.2,1.25,1.26,1.25,0.84c1.24-1.28,1.25-2.4,2.3-3.76c0.16-0.56,0.31-1.12,0.47-1.68    c1.35-2.53,2.39-5.03,4.12-7.3c0-1.27,2.08-3.15,3.13-3.76c0.71-0.41,1.07-1.17,1.88-1.46c1.16-0.42,2.03-1.89,3.34-2.3    c1.11-0.77,2.23-1.53,3.34-2.3c0.39-0.28,0.78-0.73,1.25-0.63c0.75-0.82,3.41-3.1,4.38-3.34c0.58-0.54,1.51-1.57,2.3-1.67    c0.71-0.91,0.97-1.42,2.09-1.88c0.25,0.08,1.8-0.93,2.17-1.01c1.34-1.34,3.91-3.38,4.3-3.38c2.05,0,4.21,0.95,5.96-0.49    c0.66,0.09,0.66-0.1,0.99-0.61c0.46-0.68,0.93-1.35,1.4-2.03c0.37-1.66,0.74-3.33,1.11-4.99c1.49-3.85,3.32-8.41,2.65-12.55    c-0.2-1.22-3.52-4.8-4.8-4.8c-0.41-0.41-1.25-1.25-1.88-1.25c-0.56-0.42-1.11-0.84-1.67-1.25    C424.54,338.24,424.17,338.24,423.7,338.24z"/>
            <circle cx="403.87" cy="353.5" r="1.586"/>
        </g>
        <g id="__Eskil">
            <path d="    M172.53,273.52c-1.18,0.21-2.07-0.23-2.71,0.97c-0.23,0.51-0.52,0.99-0.21,1.54c-0.63,0.77-1.25,1.53-1.88,2.3    c-0.41,0.7-0.67,1.79-1.67,1.88c-0.56,0.74-0.93,1.49-1.74,1.99c-0.49,1.05-2.12,1.93-3.07,1.14c-0.77,0.42-1.53,0.83-2.3,1.25    c-0.8,1.34-1.45,2.46-3.25,2.68c-0.45,0.36-0.9,0.72-1.34,1.08c-0.31,0.89-0.76,3.55-1.88,3.55c-0.92-0.69-3.22-0.7-3.76-1.46    c-0.97,0.35-1.95,0.7-2.92,1.04c-1.14-0.11-2.06-0.48-3.13-0.83c-0.77,0-1.53,0-2.3,0c-0.29,0.2-0.83,0.65-0.85,0.44    c-0.02-0.69-0.05-1.38-0.07-2.08c0.59-0.71,1.17-1.41,1.76-2.12c0.16-0.75,0.33-1.5,0.49-2.26c0.38-0.71,0.77-1.42,1.15-2.13    c-0.23-1.45-0.94-3.35-2.26-4.18c-0.82-1.94-1.78-3.39-3.37-4.76c-1.17-0.14-2.57-1-3.73-0.67c-0.07-0.17-0.15-0.34-0.22-0.51    c-0.35-0.99-0.77-2.62-1.87-3.04c-0.25-0.59-0.5-1.19-0.76-1.78c-0.48-0.6-1.07,0.77-1.91-0.31c-0.34-0.45-0.93-0.8-0.67-1.46    c-0.3-0.36-0.56-0.56-0.63-1.04c-1.74-0.9-3.48-1.81-5.22-2.71c-0.74-0.81-1.37-1.69-2.3-2.3c-0.97-0.49-1.95-0.97-2.92-1.46    c-0.94-0.78-1.88-1.57-2.81-2.35c-0.73-0.61-1.47-1.22-2.2-1.83c-0.35-0.07-0.7-0.14-1.04-0.21c-1.18-0.9-2.37-1.81-3.55-2.71    c-1.01-0.94-1.81-1.98-2.68-2.98c-0.64-0.75-1.27-1.5-1.91-2.24c-1.18-0.84-2.37-1.67-3.55-2.51c-0.97-0.49-1.95-0.97-2.92-1.46    c-0.97-0.28-1.95-0.56-2.92-0.83c-0.42,0-0.83,0-1.25,0h-0.42c-1.46,1.73-1.12,5.76-1.25,7.93c-0.21,1.67-0.42,3.34-0.63,5.01    c-0.36,3.22-1.02,6.49-1.91,9.59c-0.34,1.12-0.67,2.24-1.01,3.35c-1.23,2.06-2.45,4.13-3.68,6.19c-0.41,0.71-1.33,1.56-1.33,2.37    c-1.4,1.5-2.65,3.37-3.55,5.22c-0.56,0.7-1.11,1.39-1.67,2.09c-0.57,0.55-1.13,1.1-1.7,1.64c-1.1,0.98-2.21,1.97-3.31,2.95    c-0.37,0.49-0.73,0.97-1.1,1.46c-1.2,1.34-1.83,3.91-1.83,5.64c-0.35,0.97-0.7,1.95-1.04,2.92c-0.42,0.77-0.84,1.53-1.25,2.3    c-1.09,1.81-2.91,3.76-3.2,5.91c-2.09,2.28-3.12,5.39-4.53,8.07c-1.04,2.02-2.07,4.04-3.11,6.06c-0.63,1.53-1.27,3.07-1.9,4.6    c-0.68,1.61-1.37,3.22-2.05,4.83c-0.36,2.01-0.72,4.02-1.08,6.03c-1.25,1.74-2.51,3.48-3.76,5.22c-1.03,1.19-3.71,4.35-5.01,4.8    c-0.16,0.98-0.32,1.95-0.48,2.93c-0.05,1.6-0.1,3.2-0.15,4.8c0.26,0.26,0.24,1.16,0.35,1.63c0.45,1.26,0.89,2.53,1.34,3.79    c0.41,0.7,0.82,1.4,1.23,2.1c0.74,2.07,2.96,2.92,4.91,3.63c3.51,1.29,7.17,0.05,10.73-0.84c1.68-0.38,3.36-0.75,5.04-1.13    c0.36,0.52,1.05,0.45,1.65,0.63c1.18,0.43,2.36,0.86,3.54,1.29c1.49,0.99,1.19,3.15,1.49,4.98c0.12,1.35,0.24,2.69,0.36,4.04    c-0.01,0.52,0.43,0.75,0.07,1.24c0.48,1.69,0.4,3.39,0.4,5.16c0.72,1.66,1.44,3.32,2.15,4.98c1.09,1.96,2.18,3.92,3.28,5.87    c0,0.83,0,1.67,0,2.51c-0.69,0.94-0.87,5.1-1.04,6.47c-0.26,0.84-0.53,1.68-0.8,2.51c-0.79,2.69-1.03,5.05-0.62,7.92    c0.28,1.98,0.76,4.19,1.83,5.85c0.9,1.04,1.81,2.09,2.71,3.13c0.42,0.7,0.84,1.39,1.25,2.09c0.49,2.09,0.97,4.18,1.46,6.26    c0.07,0.77,0.14,1.53,0.21,2.3c-0.14,1.81-0.28,3.62-0.42,5.43c-0.7,2.09-1.39,4.18-2.09,6.26c-0.79,1.42-1.58,2.85-2.38,4.27    c-0.81,1.5-1.62,3-2.43,4.5c-0.35,1.18-0.7,2.37-1.04,3.55c-0.16,3.3-0.2,4.27,1.77,7.14c0.46,0.7,2.43-0.26,2.99-0.54    c1.06-0.52,1.72-2.98,1.92-4.09c0.52-2.82,1.64-5.55,2.71-8.35c0.55-0.54,1.11-1.07,1.66-1.61c0.98-0.65,1.96-1.29,2.94-1.94    c0.49-0.05,0.97-0.1,1.46-0.16c2.67-0.28,4.92,0.28,7.52,0.37c0.88,0.45,1.77,0.9,2.65,1.35c2.05,1.14,4.33,2.53,5.7,4.5    c0.49,0.56,0.97,1.11,1.46,1.67c0.21,0.83,0.42,1.67,0.63,2.51c0.35,0.49,0.7,0.97,1.04,1.46c0.97,0.93,1.55,1.83,2.3,2.92    c0.21,0.77,0.42,1.53,0.63,2.3c0.65,0.75,1.3,1.49,1.94,2.24c1.51,1.55,3.02,3.1,4.53,4.65c0.42,0.28,0.83,0.56,1.25,0.84    c0.97,0.42,1.95,0.83,2.92,1.25c2.6-0.04,5.2-0.09,7.8-0.13c1.72-0.15,3.43-0.3,5.15-0.45c2.44-0.26,4.88-0.53,7.31-0.79    c2.23-0.31,4.3-0.4,6.46-1.14c0.7-0.14,1.39-0.28,2.09-0.42c0.83-0.04,1.67-0.07,2.51-0.11c3.03,0,5.62-1.7,8.35-2.81    c0.59-0.78,1.19-1.56,1.78-2.34c-0.05-0.55-0.11-1.1-0.16-1.65c-0.18-1.09-0.27-3.32-0.97-4.17c-0.12-1.37-0.79-5.07-2.13-5.57    c-1.02-3.16-3.66-6.42-5.27-9.13c-1.2-1.85,0.69-4.96,2.07-6.23c1.7-1.16,3.39-2.32,5.09-3.48c0.42-0.21,0.83-0.42,1.25-0.63    c0.49-0.28,0.97-0.56,1.46-0.83c1.97-0.67,3.94-1.11,5.75-2.23c0.24-0.16-0.91-0.64-1.16-0.69c-1.22-0.23-4-0.65-4.8-1.25    c-1.42-1.06-2.81-2.02-3.76-3.55c0.06-0.44-0.75-3.46-1.06-3.78c-0.25-2.46-1.61-4.52-1.44-7.08c-1.01-1.23-2.18-2.12-2.51-3.76    c-0.97-3.9-1.95-7.8-2.92-11.69c-1.32-2.78-2.64-5.57-3.97-8.35c-0.76-1.92-1.83-3.78-3.13-5.43c-0.42-0.83-0.84-1.67-1.25-2.51    c-0.14-0.42-0.28-0.84-0.42-1.25c0-0.49,0-0.97,0-1.46c1.02-0.51,0.98-2.31,1.04-3.34c0.07-0.14-0.9-4.04-1.46-5.85    c0.07-0.21,0.14-0.42,0.21-0.63c-0.24-0.92,0.11-2.98-0.05-3.43c-0.09-0.31,0.1-1.89,0.17-2.09c0.1-0.94,0.2-1.88,0.3-2.82    c-0.36-0.43-0.1-1.12-0.06-1.68c-0.06-1.05-0.11-2.1-0.17-3.15c-0.47-3.86-3.7-6.47-0.3-10.1c1.57-1.48,4.57-1.5,6.58-1.77    c0.41-0.6,1.33-0.63,1.89-0.79c1.67-0.39,3.33-0.77,5-1.15c4.74-0.92,11.44-2.01,15.3-4.92c0.82-0.62,2.87-3.39,3.07-4.41    c0.28-0.77,0.56-1.53,0.83-2.3c0.07-0.77,0.14-1.53,0.21-2.3c0.15-0.83,0.29-1.67,0.44-2.51c0.48-2.7,0.82-5.18,0.82-7.93    c0.54-0.83,0.33-2,0.42-2.93c0.23-2.47,0.44-4.82,0.4-7.31c-0.05-3.95-0.11-7.91-0.16-11.86c-0.51-3.44-2.09-6.55-3.51-9.68    c-1.14-3.26-2.28-6.51-3.41-9.77L172.53,273.52z"/>
            <circle cx="113.95" cy="305.65" r="1.586"/>
        </g>
        <g id="__Aksaray">
            <path d="    M385.49,400.55c0.68,1.07-1.19,3.23-1.62,4.38c-0.26,0.71-2.14,3.05-2.77,3.47c-0.53,0.53-1.29,1.46-2.09,1.46    c-1.13,1.13-2.05,2.49-3.76,2.92c-1.52,0.39-4.31,0.34-5.43,1.46c-0.35-0.07-3.27,1.04-4.18,1.25c-1.39,0.28-2.78,0.56-4.18,0.84    c-3.06-0.07-6.13-0.14-9.19-0.21c-1.6,0.3-3.19,0.6-4.79,0.89c-1.74,0.68-3.49,1.35-5.23,2.03c-1.74,1.25-3.48,2.51-5.22,3.76    c-0.59,0.69-2.37,2.23-2.3,2.3c-0.42,0.42-0.83,0.83-1.25,1.25c-0.74,0.54-3.44,2.1-3.76,2.71c-1.11,0.28-2.23,0.56-3.34,0.84    c-0.77,0.63-1.53,1.25-2.3,1.88c-0.73,0.62-2.16,0.67-2.51,1.67c-0.48,0.15-2.4,1.23-3.13,1.25c-2.14,2.14-4.52,2.08-7.31,2.3    c-1.48,0.11-2.7-0.15-4.18,0c-2.3,0.23-4.58-0.22-4.69,0.02c-0.83-0.83-5.05-2.94-5.75-3.57c-0.28-0.56-0.56-1.11-0.84-1.67    c-0.07,0.07-0.14,0.14-0.21,0.21c-0.77-0.97-1.53-1.95-2.3-2.92c-0.32-1.08-1.2-4.33-1.88-5.01c0-0.83-0.67-2.76-1.25-3.34    c-0.42-2.63-1.96-4.86-3.97-6.68c-1.87-1.7-4.49-2.32-6.87-2.79c-0.67-0.13-3.95-0.54-4.59-0.67c-1.78-0.35-3.44-0.09-5.24-0.09    c-1.07,0-6.75,0.7-7.1,0.63c-2.37,0.49-4.73,0.97-7.1,1.46c-0.67,0.67-4.58,1.69-5.71,1.89c-0.98,0.93-1.83,2.05-3.08,2.48    c-0.76,0.89-1.63,1.64-2.73,1.97c-0.47,0.93-1.09,1.36-2.06,1.7c-0.45,0.71-2.08,1.68-2.93,1.96c-0.81,0.98-1.68,1.45-2.8,2.17    c-0.2,0.68-1.63,1.37-2.28,1.68c-0.24,0.71-2.06,1.11-2.79,1.21c-0.39,0.6-0.71,0.38-1.28,0.64c-1.57,0.73-2.63,0.95-4.4,1    c-1.24,0.03-2.84-0.73-3.76-1.46c-0.42-0.21-0.83-0.42-1.25-0.63c-2.1-1.68-4.39-2.92-6.47-4.58c-0.8-0.02-1.28-0.81-1.89-1.27    c-0.4-0.17-2.09-0.89-2.09-1.25c-0.63-0.34-1.27-0.67-1.9-1.01c-0.48-0.22-2.98-0.79-3.74-1.29c-2.15,0.02-4.3,0.05-6.45,0.07    c-0.92,0.31-3.68,1.23-4.38,0.93c-0.43,0.22-1.9,0.74-1.9,0.88c-1.04,0.09-1.6,0.67-2.51,1.04c-0.67,0.27-3.91,1.55-4.23,1.77    c-0.78,0.55-1.31-0.13-1.61,0.94c-0.68,0.09-1.69,0.23-2.09,0.83c-1.03,0.27-4.44,0.99-4.8,0.84c-0.42,0.27-0.85,0.55-1.27,0.82    c-1,0.45-2.63,0.65-2.86,1.71l-0.98,0.25c0.24-0.16-0.91-0.64-1.16-0.69c-1.22-0.23-4-0.65-4.8-1.25    c-1.42-1.06-2.81-2.02-3.76-3.55c0.06-0.44-0.75-3.46-1.06-3.78c-0.25-2.46-1.61-4.52-1.44-7.08c-1.01-1.23-2.18-2.12-2.51-3.76    c-0.97-3.9-1.95-7.8-2.92-11.69c-1.32-2.78-2.64-5.57-3.97-8.35c-0.76-1.92-1.83-3.78-3.13-5.43c-0.42-0.83-0.84-1.67-1.25-2.51    c-0.14-0.42-0.28-0.84-0.42-1.25c0-0.49,0-0.97,0-1.46c1.02-0.51,0.98-2.31,1.04-3.34c0.07-0.14-0.9-4.04-1.46-5.85    c0.07-0.21,0.31-3.61,0.16-4.06c-0.09-0.31,0.1-1.89,0.17-2.09c0.1-0.94,0.2-1.88,0.3-2.82c-0.36-0.43-0.1-1.12-0.06-1.68    c-0.06-1.05-0.11-2.1-0.17-3.15c-0.47-3.86-3.7-6.47-0.3-10.1c1.57-1.48,4.57-1.5,6.58-1.77c0.41-0.6,1.33-0.63,1.89-0.79    c1.67-0.39,3.33-0.77,5-1.15c4.74-0.92,11.44-2.01,15.3-4.92c0.82-0.62,2.87-3.39,3.07-4.41c0.28-0.77,0.56-1.53,0.83-2.3    c0.07-0.77,0.14-1.53,0.21-2.3c0.15-0.83,0.29-1.67,0.44-2.51c0.48-2.7,0.82-5.18,0.82-7.93c0.54-0.83,0.33-2,0.42-2.93    c0.23-2.47,0.44-4.82,0.4-7.31c-0.05-3.95-0.11-7.91-0.16-11.86c-0.51-3.44-2.09-6.55-3.51-9.68c-1.14-3.26-2.28-6.51-3.41-9.77    l0.42-0.83c0.14-0.56,0.28-1.11,0.42-1.67c0.66-0.34,1.08-1.4,1.2-2.13c0.34-2.15,0.07-4.59,1.51-6.43    c0.83-0.77,1.67-1.53,2.51-2.3c0.52-0.24,1.05-0.47,1.57-0.71c0.39-0.19-0.19-0.83-0.32-0.96c0.38-0.28,0.28-0.54,0.36-1    c0.37-0.36,0.73-0.73,1.1-1.09c0.7-0.56,1.39-1.11,2.09-1.67c0.05-0.46,0.34-0.69,0.63-1.04c-1.35-0.13-0.63-0.98-0.63-1.69    c0.01-0.26,1.17-0.92,1.46-1.1c0.7-0.53,1.4-1.06,2.09-1.59c0.63-0.21,1.25-0.42,1.88-0.63c-0.96-0.64-1.93-1.28-2.89-1.92    c-0.48-0.33,0.12-0.1,0.12-0.57c0.02-0.21,0.03-0.43,0.05-0.64c0.21,0.01,0.41,0.01,0.62,0.02c1.25-0.99,2.97,0,4.39,0.19    c2.05,0.28,3.64,1.57,5.64,1.88c0.13,0.75,0.19,0.11,0.4,0.67c0.6,1.64,1.85,1.63,3.36,2.26c0.19,0.71,0.87,1.18,1.53,1.44    c0.67,0.28,0.93,0.24,1.6,0.02c0.07-0.35,0.14-0.7,0.21-1.04c-0.45-1.56,0.81-2.28,1.88-3.13c-0.06-0.9,0.62-1.96,1.04-2.71    c0.22-0.1,0.44-0.19,0.65-0.29c0.78-0.7,0.17,0.16,1.27,0.07c0.8-0.04,1.68,1.17,2.4,1.67c0.09,0.07,0.18,0.15,0.27,0.22    c-0.04-0.45,0.21-0.45,0.52-0.74c-0.59-0.73-1.18-1.46-1.77-2.19c-0.07-0.35-0.14-0.7-0.21-1.04c0.07-0.13,0.14-0.25,0.21-0.38    c0.07-0.29,0.14-0.58,0.21-0.87c0.38,0.45,0.88,0.29,1.46,0.25c0.14-0.01,0.28-0.03,0.42-0.05c0.39-1.73,0.02-3.21-1.04-4.8    c-0.42-0.35-0.83-0.7-1.25-1.04c-0.49-0.83-0.97-1.67-1.46-2.51c-1.62,0.43-3.79-2.15-4.63-3.32c-0.36-0.46-0.43-2.63-0.23-3.18    c0.16-0.48,1.76,0.2,2.12,0.35c0.5,0.31,0.99,0.62,1.49,0.93c0.26-0.33,0.63-0.24,1.04-0.21c0.7,0.97,2.12,0.21,2.94-0.14    c0.4-0.15,0.67,0.85,0.79,1.19c0.51,1.3,1.03,2.61,1.54,3.91c0.34,0.56,0.72,0.49,1.33,0.47c-0.01-0.12-0.01-0.23-0.02-0.35    c0.31-0.37,0.62-0.74,0.93-1.12c0-0.35,0-0.7,0-1.04c-0.11-0.34-0.22-0.67-0.33-1.01c-0.11-0.32-1.06-0.61-1.43-0.85    c-0.39-0.35-0.77-0.71-1.16-1.06c-0.35-0.18-0.71-0.36-1.06-0.54c-0.76-0.1-1.52-0.2-2.28-0.3c-0.62-0.68-1.33-1.26-2.3-1.46    c-0.7-0.97-1.39-1.95-2.09-2.92c-0.38-0.95-0.76-1.91-1.14-2.86c-0.45-1.08-1.46-1.78-2.2-2.57c-0.41-0.68-0.82-1.35-1.23-2.03    c-0.15,0.26-0.3,0.52-0.44,0.78c-0.8-0.91-2.1,0.14-2.47-1.68c0.27-0.48,0.53-0.97,0.8-1.45c-0.07-0.78-0.25-2.25-0.31-3.03    l0.12,0.06c0.27,0.08,0.54,0.16,0.82,0.23c3.48-0.22,6.87-2.19,9.38-4.78c0.49-0.77,0.99-1.53,1.48-2.3    c0.35-0.28,0.7-0.56,1.04-0.83c0.29-0.42,0.62-0.74,0.63-1.25c0.35-0.28,0.7-0.56,1.04-0.84c0.24-0.39,0.49-0.77,0.73-1.16    c0.48-0.48,0.96-0.97,1.44-1.45c0.73-1.13,1.68-2.59,2.9-3.32c0.51-1.12,1.85-2.41,2.86-3.26c0.26-0.36,0.53-0.72,0.79-1.08    c0.71-0.89,1.45-1.78,2.34-2.47c1.64-1.28,3.47-5.04,5.26-5.74c1.77-0.7,5.42-0.76,7.26-0.49c0.8,0.12,1.74-0.13,2.3,0.59    c0.83,0.28,1.67,0.56,2.51,0.83c1.43,0.98,2.53,2.56,4.18,3.13c0.28,0.35,0.56,0.7,0.83,1.04c1.45,0.86,3.46,4.18,5.25,3.69    c1.02-0.2,2.06-1.14,2.75-1.92c1.07-0.32,2.18-1.25,2.65-2.19c0.95-0.59,1.59-1,2.28-1.89c0.63-0.69,1.27-1.38,1.9-2.08    c0.67-0.39,1.28-0.81,1.86-1.24c0,0-0.51,0.91-0.61,1.24c0.59,0.94,0.42,2.06,0.42,3.13c0,1.37,0.3,2.6,0,3.97    c0.11,0.69-0.32,2.43-0.83,3.34c-1.38,2.13-1.66,4.16-2.09,5.22c0,1.51,2.89,4.46,3.97,5.64c-0.03,0.85,0.7,1.55,1.01,2.32    c1.77,4.46,4.56,5.84,8.6,7.71c1.32,0,2.65,0,3.97,0c2.18-0.33,4.19-1.19,6.47-1.25c0.76-0.67,2.14-0.7,3.11-0.91    c1.47-0.39,2.94-0.78,4.41-1.17c0.47-0.25,0.94-0.5,1.42-0.75c0.43-0.38,0.87-0.75,1.3-1.13c1.38-0.83,3.46-0.78,5.01-0.63    c0.39-0.39,1.37-0.22,1.92-0.18c1.66,0.06,3.31,0.12,4.97,0.18c2.85-0.28,5.71-0.56,8.56-0.83c0.63,0.14,1.25,0.28,1.88,0.42    c1.06,0.05,2.11,0.1,3.17,0.16c2.28,0.64,4.57,1.29,6.85,1.93c1.18,0.07,2.37,0.13,3.55,0.2c1.96-0.07,3.92-0.14,5.88-0.22    c2.09,0.23,3.71,0.48,5.81,0.22c0.49,0.07,0.98,0.14,1.47,0.22c1.93,0.25,3.88,0.2,5.84,0.2c1.67-0.14,3.34-0.28,5.01-0.42    c0.75,0,2.24,0.46,3.13,0.21c0.42-0.21,0.84-0.42,1.25-0.63c0.85-0.22,1.69-0.44,2.54-0.67c1.4-0.23,2.79-0.47,4.19-0.7    c2.94-0.92,5.43,0.14,7.53-2.52c0.88-1.13,0.79-0.54,0.79-0.54c-0.44,1.31-0.39,2.44-0.3,3.18c0.32,2.56,0,5.03,1.12,7.51    c0.7,0.91,1.39,1.81,2.09,2.71c1.07,0.7,2.15,1.4,3.22,2.11c1.11,0.46,3,1.67,4.3,1.89c2.17,0.65,3.9,1.53,5.84,2.9    c0.66-0.19,3.1,1.64,3.97,1.88c0.75,0.21,3.81,1.4,4.14,1.96c1.13,0.6,2.25,1.2,3.38,1.8c0.85-0.03,3.71,1.67,4.38,2.3    c3.06,2.85,6.12,5.71,9.19,8.56c0.86,0.62,1.95,1.05,3.12,1.4c2.02,0.22,4.05,0.44,6.07,0.66c1.01,0.11,1.35,2.23,1.67,2.95    c0.12,0.51,0.24,1.03,0.36,1.54c0.67,1.26,0.65,2.51,0.89,3.89l0.42,2.51c-0.97,0.77-2.14,1.53-3.34,1.88    c-0.49,0-1.6,0.29-2.09,0.29c-1.39,0.28-2.15,0.26-3.55,0.54c-1.49-0.5-2.13-0.25-3.7-0.25c-0.65,0-1.49,0.04-1.93,0.04    c-1.67,0.42-3.34,0.83-5.01,1.25c-1.04,0.35-2.09,0.7-3.13,1.04c-0.71,0.04-1.74,0.27-2.3,0.42c-0.83,0.14-1.67,0.28-2.51,0.42    c-1.23-0.23-2.22-0.14-3.54,0.01c-1.49,0.17-4.64,1.52-5.86,2.07c-1.97,0.61-3.29,0.94-5.16,1.55c-1.5,0.49-3.26,1.74-4.13,2.1    c-0.92,0.6-3.84,1.77-5.51,2.61c-1.42,0.72-4.69,2.02-5.87,3.12c-1.22-0.03-4.78,2.51-4.38,2.1c-1.33,1.42-1.71,0.87-2.43,1.31    c-0.4,0.24-1.96,0.8-2.39,1.09c-0.42,0.07-1.81,1.45-2.48,1.57c-0.89,0-1.37,0.63-2.3,0.63c-0.07,0.13-0.14,0.26-0.21,0.39    c-0.21,0.5-0.42,0.99-0.63,1.49c-0.07,0.9-0.14,1.81-0.21,2.71c-0.9,2.44-1.81,4.87-2.71,7.31c0,1.73-0.83,3.56-0.83,5.43    c-0.28,0.56-0.56,1.11-0.83,1.67c-0.2,0.75-0.09,2,0.42,2.51c-0.14,0.49-0.28,0.97-0.42,1.46c1.23,1.23,1.15,2.82,1.25,4.38    c0.88,0.18,1.04,0.35,1.04,1.25c0.3,0.19,2.5,1.67,2.77,1.14c1.57,1.11,2.15,1.22,4.12,0.95c0.58-0.08,0.76,0.21,1.25-0.21    c0.71,0.34,1.76,0.84,2.51,0.42c1.14,0.54,3.36,1.94,3.36,3.32c-0.02,0.38,0.05,0.58-0.23,0.85c-0.67,1.25-2.3,2.03-3.48,2.8    c-0.53,0.34-0.92,0.91-1.53,0.96c-0.65,1.15-2.36,3.27-2.3,4.59c-1.92,1.64-3.83,3.28-5.75,4.92c-0.62,0.64-1.98,0.89-1.98,1.97    c-0.83,0.46-2.09,1.26-2.09,2.3c-0.28,0.35-0.56,0.7-0.83,1.04c0,1.43-0.3,3.24,0.73,4.27c0.18,0.2,0.4,0.37,0.64,0.52l-0.32,0.25    c-2.28,0.99-4.56,1.98-6.84,2.97c-0.52,0.31-1.94,0.94-1.94,1.59c-0.84,1.64-1.46,3.09-1.08,5.01c-0.02,0.19-0.05,0.37-0.07,0.56    c0.27,0.38,1.31,1.94,1.57,1.94c1.67,0.21,3.34,0.42,5.01,0.63c1.06,1.06,2.05,2.04,3.34,2.92c0.77,0.53,1.61,0.5,2.3,1.25    c1.89,0,3.63,1.55,5.43,1.88c1.4,0.25,2.78,1.04,4.18,1.04c2.1,1.26,4.21,2.52,6.31,3.78c0.62,1.51,2.23,2.57,2.73,4.14    c0.56,1.76,1.46,4.34-0.06,5.87c0,0.97,0,1.95,0,2.92c0.56,1.25,1.11,2.51,1.67,3.76c1.37,1.37,2.63,3.57,3.13,5.43    c0.49,1.18,0.97,2.37,1.46,3.55c0.21,0.9,0.42,1.81,0.63,2.71c0.35,0.97,0.7,1.95,1.04,2.92c0.63,0.97,1.25,1.95,1.88,2.92    c0.48,0.49,1.19,1,1.25,1.67c1.32,0.66,2.56,1.39,3.76,2.3c0.26,0.2,1.25,1.26,1.25,0.84L385.49,400.55z"/>
            <circle cx="301.87" cy="317.62" r="1.586"/>
        </g>
    </g>
</svg>