<?xml version="1.0" encoding="UTF-8"?>
<!DOCTYPE svg PUBLIC "-//W3C//DTD SVG 1.1//EN" "http://www.w3.org/Graphics/SVG/1.1/DTD/svg11.dtd">
<svg version="1.1" id="HaritaCizim" xmlns="http://www.w3.org/2000/svg" xmlns:xlink="http://www.w3.org/1999/xlink" x="0px" y="0px" width="510px" height="410px" viewBox="0 0 510 410" preserveAspectRatio="none">

  <defs id="__def">

    <radialGradient id="f">
      <stop offset="0" stop-color="white" stop-opacity="1"/>
      <stop id="STOP1" offset=".4" stop-opacity="1"/>
      <stop offset="1" stop-color="white" stop-opacity=".2"/>
    </radialGradient>


    <filter id="__flt1" x="0" y="0" width="200%" height="200%" filterUnits="objectBoundingBox">

      <feGaussianBlur in="SourceAlpha" stdDeviation="3" result="blur1"/>
      <feSpecularLighting result="specOut" in="blur1" specularConstant="1.5" specularExponent="20" lighting-color="#bbbbbb">
        <feDistantLight azimuth="45" elevation="30"/>
      </feSpecularLighting>
      <feComposite in="specOut" in2="SourceAlpha" operator="in" result="specOut"/>
      <feComposite in="SourceGraphic" in2="specOut" operator="arithmetic" k1="0" k2="1" k3="1" k4="0"/>
    </filter>

    <filter id="__flt2" x="0" y="0" width="200%" height="200%" filterUnits="objectBoundingBox">
      <feGaussianBlur in="SourceAlpha" stdDeviation="3" result="blur1"/>
      <feSpecularLighting result="specOut" in="blur1" specularExponent="20" lighting-color="#bbbbbb">
        <fePointLight x="-2000" y="100" z="2000"/>
      </feSpecularLighting>
      <feComposite in="specOut" in2="SourceAlpha" operator="in" result="specOut"/>
      <feComposite in="SourceGraphic" in2="specOut" operator="arithmetic" k1="0" k2="1" k3="1" k4="0"/>
    </filter>

    <filter id="__flt3" x0="-50%" y0="-50%" width="200%" height="200%" filterUnits="objectBoundingBox">
      <feGaussianBlur in="SourceAlpha" stdDeviation="3" result="blur"/>
      <feOffset in="blur" dx="0" dy="0" result="offsetBlur"/>
      <feSpecularLighting in="blur" surfaceScale="4" specularConstant=".5" specularExponent="20" lighting-color="flavor" result="specOut">
        <fePointLight x="-5000" y="-10000" z="5000"/>
      </feSpecularLighting>
      <feComposite in="specOut" in2="SourceAlpha" operator="in" result="specOut"/>
      <feComposite in="SourceGraphic" in2="specOut" operator="arithmetic" k1="0" k2="1" k3="1" k4="0" result="litPaint"/>
      <feMerge>
        <feMergeNode in="offsetBlur"/>
        <feMergeNode in="litPaint"/>
      </feMerge>

    </filter>



    <filter id="__flt4" x0="-50%" y0="-50%" width="200%" height="200%">
      <feGaussianBlur in="SourceAlpha" stdDeviation="2" result="blur"/>
      <feOffset dy="-1" dx="-1"/>
      <feComposite in2="SourceAlpha" operator="arithmetic" k2="-1" k3="1" result="hlDiff"/>
      <feFlood flood-color="white" flood-opacity=".7"/>
      <feComposite in2="hlDiff" operator="in"/>
      <feComposite in2="SourceGraphic" operator="over" result="withGlow"/>

      <feOffset in="blur" dy="3" dx="3"/>
      <feComposite in2="SourceAlpha" operator="arithmetic" k2="-1" k3="1" result="shadowDiff"/>
      <feFlood flood-color="black" flood-opacity="1"/>
      <feComposite in2="shadowDiff" operator="in"/>
      <feComposite in2="withGlow" operator="over"/>
    </filter>

    <filter id="__golge1" x="0" y="0" width="200%" height="200%" filterUnits="userSpaceOnUse">
      <feOffset result="offOut" in="SourceAlpha" dx="8" dy="8"/>
      <feGaussianBlur result="blurOut" in="offOut" stdDeviation="3"/>
      <feBlend in="SourceGraphic" in2="blurOut" mode="normal"/>
    </filter>

  </defs>

  <g id="__Komsular" display="none">
    <path fill-rule="evenodd" clip-rule="evenodd" fill="none" stroke="#000000" stroke-width="0.25" stroke-miterlimit="10" d="   M95.94,408.58c0.04-0.57-0.14-1.05-0.47-1.48c-2.89-0.98-6.73-0.25-9.56-1.5c-2.88-1.27-5.01-4-6.49-6.51   c-2.06-3.48-1.05-6.32,0.21-9.86c0.78-2.2,0.74-2.84-0.55-4.54c-1.1-1.45-2.37-1.86-1.73-3.86c1.22-3.81,4.7-4.56,7.75-3.05   c2.99,1.48,6.13,2.29,8.89,3.91c3.56,2.08,2.4,5.94,5.16,8.51c2.19,2.04,7.47,2.52,10.19,1.25c1.68-0.79,2.19-2.38,3.3-3.69   c1.26-1.49,2.56-2.01,4.13-3.03c2.84-1.85,4.51-5.04,7.59-6.52c1.45-0.7,3-0.47,4.54-0.86c1.81-0.46,3.38-1.06,5.26-1.25   c3.68-0.37,5.88-2.93,9.28-3.74c3.55-0.84,7.95,1.04,11.28,1.52"/>
    <path fill-rule="evenodd" clip-rule="evenodd" fill="none" stroke="#000000" stroke-width="0.25" stroke-miterlimit="10" d="   M163.39,376.48c0.28,0,0.55-0.02,0.83,0.03c1.09,3.31,4.25,5.34,4.6,9.08c0.39,4.13,2.18,4.96,5.86,6.5   c2.93,1.23,5.95,1.28,7.37,4.56c0.62,1.44,0.35,3.34,0.42,4.99c0.09,1.83,0.7,3.56,0.65,5.42c0,0.14,0,0.29,0,0.43"/>
    <path fill-rule="evenodd" clip-rule="evenodd" fill="none" stroke="#000000" stroke-width="0.25" stroke-miterlimit="10" d="   M467.44,115.59c1.62-0.1,2.96,1.44,4.33,1.95c1.78,0.65,3.6,0.79,5.43,1.3c1.88,0.52,3.02,1.21,5.21,1.11   c1.82-0.08,3.18-0.77,4.78-1.31c1.75-0.6,3.33-0.15,4.98-0.43c1.55-0.27,2.7-1.47,4.17-2.12c2.83-1.26,5.84-2.48,9.06-3.14   c2.14-0.44,4.51-0.38,6.72-0.37"/>
    <path fill-rule="evenodd" clip-rule="evenodd" fill="none" stroke="#000000" stroke-width="0.25" stroke-miterlimit="10" d="   M62.76,37.73c-1.9-0.18-3.6-0.88-5.64-0.65c-1.73,0.2-3.13,0.65-4.99,0.65c-3.67,0-7.17-0.76-10.89-0.39   c-3.74,0.37-6.86-0.7-10.62-0.7c-3.62,0-7.93,0.77-10.64-1.29c-0.78-0.6-1.59-1.3-2.55-1.53c-0.83-0.2-2.04,0.34-2.82,0.01   c-1.19-0.51-2.09-2.69-2.33-3.96c-1.08-5.56,3.25-4.58,6.69-6.9c1.34-0.9,2.35-2.31,3.67-3.19c1.49-1,3.04-1.4,4.19-2.88   c2.14-2.74-0.2-5.95-1.36-8.89c-0.93-2.38-3.27-5.56-3.26-8.24"/>
    <text transform="matrix(1 0 0 1 264 51)" font-family="'MyriadPro-Regular'" font-size="12">SAMSUN</text>
    <text transform="matrix(0.846 -0.5331 0.5331 0.846 393.9116 329.7319)" font-family="'MyriadPro-Regular'" font-size="12">TOKAT</text>
    <text transform="matrix(1 0 0 1 123 398)" font-family="'MyriadPro-Regular'" font-size="12">YOZGAT</text>
    <text transform="matrix(0.4821 0.8761 -0.8761 0.4821 17.9893 208.1338)" font-family="'MyriadPro-Regular'" font-size="12">ÇORUM</text>
  </g>

  <g id="__Harita" fill="white" stroke="#000000" stroke-width="1" stroke-miterlimit="10" display="none">
    <rect id="__cer" x="0" y="0" fill="#000000" opacity="0" width="510" height="410"/>
	<g id="__Hamamözü">
		<path d="    M77.24,191.57c0.96-1.23,0.88-2.49,0.62-4.19c0.24-1.63,0.48-3.27,0.72-4.9c0.41-1.93,1.93-3.64,1.93-5.62    c-0.85-1.14-2.19-2.72-1.66-4.16c0.31-0.79,0.5-1.13,0.88-1.75c0.39-0.95,0.95-2.32,1.61-3.25c0.7-1.38,1.4-2.77,2.1-4.15    c0.86-1.53,1.75-3.15,0.03-4.27c-1.14-0.73-2-1.71-3.38-1.99c-0.84-0.68-1.69-1.36-2.53-2.04c-0.55-0.38-2.05-1.17-2.05-1.7    c0,0.74-0.77-0.77-1.67-0.83c-0.64-0.53-1.27-1.07-1.91-1.6c-0.56-0.32-1.72-0.61-2.04-1.11c-0.83,0-3.46,0.03-3.96,0.62    c-1.73-0.11-3.46-0.23-5.19-0.34c-0.61-0.13-2.58-0.67-2.86-1.15c-1.73-2.94-1.54-4.73-0.79-7.9c0.24-0.9,0.48-1.79,0.72-2.69    c0.32-1.88,0.64-3.76,0.96-5.63c0.13-0.51,0.26-1.17,0.7-1.44c0.14-0.97,0.28-1.94,0.42-2.92c-0.07-0.35-0.14-0.69-0.21-1.04    c0.09-0.82,0.81-2,0.21-2.71c-0.21-0.41-0.42-0.83-0.62-1.24c-0.32-0.44-3.39-2.53-3.96-2.71c-1.37-0.45-3.97-0.61-5-1.67    c-0.9-0.15-1.88-0.15-2.64-0.56c-1.2-0.38-2.41-0.76-3.61-1.14l-0.9-0.26c-0.35,0.57-1.13,1.72-0.97,2.37    c-1.07,2.03-1.89,4.01-2.42,6.22c-0.24,1.01-0.65,2.78-0.29,3.77c-0.42,1.18-0.83,2.36-1.25,3.54c-1.67,2.08-3.33,4.16-5,6.25    c-0.97,0.9-1.94,1.8-2.91,2.71c-2.12,2.74-3.24,5.27-3.75,8.74c0.21,1.1,0.41,2.21,0.62,3.31c0.32,2.35,1.12,4.96,2.17,7.06    c0.35,0.71,0.85,1.85,1.59,2.12c0.24,0.46,0.37,1,0.83,1.25c0.55,1.1,1.35,2.97,2.29,3.75c1.57,3.2,3.14,6.4,4.7,9.6    c0.43,0.85,1.25,2.45,2.17,2.69c0.48,0.64,1.12,1.83,1.87,2.08c0.41,0.91,1.86,3.12,2.71,3.54c0.35,1.02,1.18,1.89,2.08,2.5    c0.31,0.91,0.77,1.39,1.46,2.08c0.35,0.28,0.69,0.56,1.04,0.83c2.08,0.49,4.16,0.97,6.25,1.46c2.91,0.21,5.83,0.42,8.74,0.62    c2.22-0.35,4.44-0.69,6.66-1.04c1.67-0.35,3.33-0.69,5-1.04C76.93,191.62,77.24,191.57,77.24,191.57z"/>
		
			<circle cx="39.56" cy="157.23" r="1.586"/>
	</g>
	<g id="__Gümüşhacıköy">
		<path d="    M104.91,186.5c-0.07-0.42-0.18-1.32-0.25-1.73c0.07-0.9,0.14-1.8,0.21-2.71c-0.09-0.88-0.18-1.75-0.27-2.63    c0.38-0.41,0.35-0.81,0.48-1.33c0.22-0.9,0.58-1.44,0.27-2.41c0.07-0.69,0.41-1.27,0.36-1.63c0.43-1.3,0.78-2.71,0.35-4.02    c0.69-2.81-2.64-6.63-4.1-8.8c-0.96-1.43-3.1-2.68-2.62-4.77c0.44-1.59,0.88-3.24,1.78-4.6c0.93-1.39,4.21-4.37,5.62-5.21    c0.84,0,3.13-0.45,3.54-1.25c2.5-0.42,5-0.83,7.5-1.25c1.72-0.56,3.44-1.13,5.16-1.69c0.78-0.34,1.56-0.68,2.34-1.01    c1.8-0.83,3.61-1.67,5.41-2.5c0.42-0.42,0.83-0.83,1.25-1.25c0.16-0.47,0.33-0.95,0.49-1.42c0.6-1.27,1.33-2.4,1.54-3.82    c0.35-0.23,0.47-0.78,0.5-1.22c0.1-0.91,0.21-1.82,0.31-2.73c0.31-1.03,0.61-2.07,0.92-3.1c0.17-1.53-0.48-2.87-0.63-4.37    c-0.36-3.72-2.27-7.47-4.01-10.79c-0.24-0.64-0.49-1.29-0.73-1.93c-0.68-1.76-1.31-3.6-2.33-5.19c0.35,0-0.26-0.94-0.42-1.25    c-0.55-1.32-1.11-2.64-1.67-3.96c-1.53-2.15-3.05-4.3-4.58-6.45c-0.83-1.46-1.67-2.92-2.5-4.37c-0.57-1.34-1.15-2.69-1.72-4.03    c-0.87-1.31-1.74-2.61-2.61-3.92c-0.43-0.68-0.86-1.37-1.29-2.05c-3.9-4.56-5.42-11.1-4.35-16.86c0.74-0.88,1.5-1.49,2.06-2.5    c0,0-3.3,0.37-4.15,0.32c-1.65-0.1-1.73-1.17-1.89-1.36c-0.42-0.49-0.83-0.97-1.25-1.46c-0.9-1.53-1.8-3.05-2.71-4.58    c-1.25-1.4-2.5-2.55-3.96-3.75c-1.04-0.56-2.08-1.11-3.12-1.67c-1.73-0.84-3.41-1.52-5.21-2.08c-1.03-0.31-1.81-0.46-2.71-1.04    c-0.58,0.33-1.64-0.37-2.32-0.54c-2.42-0.51-4.84-1.03-7.25-1.54c-2.41-0.98-4.43-2.75-7.08-3.12c-1.81,0.21-3.62,0.41-5.43,0.62    c-0.92,0.29-1.41,1.18-1.96,1.94c-0.76,1.05,0.64,5.55,0.94,7.01c-0.56,0.74-0.21,2.37-0.42,3.33c-0.3,1.41-1.14,3.21-2.08,4.37    c-1.32,1.39-2.64,2.78-3.96,4.16c-0.9,0.4-1.8,0.81-2.69,1.21c-1.16,0.48-2.31,0.96-3.47,1.44c-1.99,1.36-3.9,2.32-5.71,4.01    c-0.35,0.76-0.69,1.53-1.04,2.29c-0.42,1.8-0.83,3.61-1.25,5.41c0.28,1.18,0.56,2.36,0.83,3.54c0.49,0.83,0.97,1.67,1.46,2.5    c1.76,1.76,2.85,4.44,4.09,6.59c1.32,2.29,2.91,4.18,3.62,6.73c0.32,0.83,0.64,1.67,0.96,2.5c0.08,0.68-0.11,3.31-0.54,3.74    c-0.2,0.93-0.41,1.85-0.61,2.78c0,5.72-4.37,12.13-8.84,15.65c-0.36,0.29,0.71,0.6,0.92,0.69c1.2,0.38,2.41,0.76,3.61,1.14    c0.76,0.41,1.73,0.41,2.64,0.56c1.02,1.06,3.62,1.21,5,1.67c0.57,0.19,3.64,2.27,3.96,2.71c0.21,0.41,0.42,0.83,0.62,1.24    c0.6,0.71-0.11,1.88-0.21,2.71c0.07,0.35,0.14,0.69,0.21,1.04c-0.14,0.97-0.28,1.94-0.42,2.92c-0.44,0.27-0.57,0.93-0.7,1.44    c-0.32,1.88-0.64,3.76-0.96,5.63c-0.24,0.9-0.48,1.79-0.72,2.69c-0.75,3.16-0.93,4.96,0.79,7.9c0.28,0.49,2.25,1.02,2.86,1.15    c1.73,0.11,3.46,0.23,5.19,0.34c0.49-0.59,3.13-0.62,3.96-0.62c0.33,0.5,1.48,0.79,2.04,1.11c0.64,0.53,1.27,1.07,1.91,1.6    c0.89,0.06,1.67,1.58,1.67,0.83c0,0.54,1.5,1.33,2.05,1.7c0.84,0.68,1.69,1.36,2.53,2.04c1.38,0.28,2.24,1.26,3.38,1.99    c1.72,1.12,0.82,2.74-0.03,4.27c-0.7,1.38-1.4,2.77-2.1,4.15c-0.66,0.93-1.22,2.29-1.61,3.25c-0.38,0.62-0.57,0.96-0.88,1.75    c-0.53,1.44,0.81,3.03,1.66,4.16c0,1.98-1.52,3.69-1.93,5.62c-0.24,1.63-0.48,3.27-0.72,4.9c0.26,1.7,0.35,2.96-0.62,4.19    c2.48-0.67,4.96-1.34,7.44-2.01c0.53-0.23,4.16-1.12,5-1.25c0.8-0.31,3.07-0.96,3.96-1.04c0.9-0.14,1.8-0.28,2.71-0.42    c0.4-0.16,1.37-0.34,1.87-0.38c1.66-0.16,3.48,0.33,5.16,0.23L104.91,186.5z"/>
		
			<circle cx="95.29" cy="120.36" r="1.586"/>
	</g>
	<g id="__Merzifon">
		<path d="    M111.11,57.56c1.53-0.42,3.05-0.83,4.58-1.25c3.62-2.11,5.37-2.8,9.57-2.93c1.57-0.05,3.05-0.37,4.49,0.38    c0.67-0.36,3.89,1.06,4.51,1.63c1.64,0.37,3.84,2.4,4.65,3.85c0.87,1.06,1.75,2.12,2.62,3.18c0.61,0.2,1.65,0.76,1.85,1.38    c1.6,0.55,3.19,1.11,4.79,1.67c0.76,0.28,1.53,0.56,2.29,0.83c1.59-0.02,3.18-0.03,4.78-0.05c0.69-0.06,1.37-0.12,2.06-0.18    c0.77-0.15,1.54-0.3,2.32-0.44c1.6-0.12,3.2-0.25,4.79-0.37c1.39-0.42,2.78-0.83,4.16-1.25c1.96-0.13,3.36,0.33,5.19,0.96    c0.6,0.76,0.5,1.54,0.85,2.37c-0.49,1.04-0.97,2.08-1.46,3.12c-0.94,1.68-2.71,2.46-2.71,4.58c0.4,1.7,1.68,2.75,2.08,4.16    c0.42,0.82,0.85,1.64,1.27,2.46c0.22,0.47,0.44,0.95,0.66,1.42c0.71,1.33,1.62,3.35,2.85,4.24c0.28,0.41,0.56,0.81,0.85,1.22    c0.53,0.64,1.05,1.29,1.58,1.93c-0.19,0.55,0.45,0.88,0.9,1.22c0.58,0.43,2.13,0.66,2.79,0.58c0.84,0.64,2.55,0.68,3.6,0.72    c1.75,0.19,3.51,0.39,5.26,0.58c4.98,0.58,9.83,0.17,14.78-0.21c1.16-0.09,2.75,0.49,3.77,0.95c0.55,0.24,1.09,0.48,1.64,0.72    c0.17,0.55,0.94,1.87,1.52,1.87c0.88-0.07,1.76-0.14,2.64-0.21c2.29,1.74,4.58,3.47,6.87,5.2c0.52,1.2,1.41,2.84,0.83,4.16    c0.14,1.08,0.27,2.16,0.41,3.24c0.69,0.49,0.1,0.88-0.2,1.55c-0.42,0.62-0.83,1.25-1.25,1.87c-0.19,0.96-0.3,2.43-1.25,2.91    c-0.28,1.04-0.55,2.08-0.83,3.12c-0.82,0.88-1.62,2.06-1.87,3.33c-0.75,0.82-1.39,1.44-2.29,2.08c-0.82,1.05-1.65,2.09-2.47,3.14    c-0.56,0.69-1.13,1.38-1.69,2.06c-0.69,0.9-1.39,1.8-2.08,2.71c-0.62,0.69-1.25,1.39-1.87,2.08c-1.25,1.53-2.5,3.05-3.75,4.58    c-0.46,0.6-1.71,1.52-1.67,2.29c-0.62,0.8-0.88,1.36-1.87,1.67c0.07,0.23,0.14,0.45,0.21,0.68c0.51,1.84-0.67,3.23-1.56,4.79    c-0.18,0.47-0.35,0.95-0.53,1.42c-1.08,1.54-2.85,2.48-3.75,4.14c-0.39,0.72-1.15,1.44-1.04,2.29c-0.59,1.22-1.37,3.19-1.04,4.58    c-0.44,1.34-0.55,2.97-0.42,4.37c0.05,0.51-0.37,1.3-0.01,1.65c0.81,0.74,2.75,0.61,3.98,1.33c1.2,0.7,3.08,2.75,4.57,2.44    c0.49,0.62,0.97,1.25,1.46,1.87c0.69,0.21,1.39,0.42,2.08,0.62c0.41,0.1,0.81,0.28,1.04,0.62c0.69,0.05,1.38,0.1,2.07,0.16    c0.64,0.06,0.56,0.49,1.26,0.26c-0.38,1.11-0.83,3.3-1.87,3.96c-0.21,0.55-0.42,1.11-0.63,1.67c-0.15,1.13-0.59,2.5-1.46,3.33    c-0.49,0.35-0.97,0.69-1.46,1.04c-1.04,0.06-2.64,0.44-3.54-0.21c-1.15,1.83-2.3,3.67-3.45,5.5c-0.78,2.1-0.72,4.18-0.88,6.34    c-0.09,1.23-0.18,1.96,0.16,3.16c-1.74,0.05-3.12,1.15-4.79,1.46c-2.64,0.36-5.27,0.72-7.91,1.07c-0.77,0.2-1.53,0.4-2.3,0.59    c-1.72,0.32-3.71,0.8-5,2.08c-0.69,0.35-1.39,0.69-2.08,1.04c-1.06,0-3.28,1.42-4.16,2.08c-2.22,1.66-4.52,4.24-5.87,6.74    c-0.25,0.71-0.49,1.41-0.74,2.11c-0.4,0.9-0.75,3.61-1.87,3.27c-2.58-0.57-5.17-1.14-7.75-1.71c-3.75-1.65-7.5-3.3-11.26-4.95    c-0.83-0.28-3.06-0.86-3.73-0.25c-0.49-0.14-0.97-0.28-1.46-0.42c-0.55-0.83-1.11-1.67-1.67-2.5c-1.13-0.04-2.5-0.18-2.5-1.67    c-0.28-0.28-0.56-0.56-0.83-0.83c-0.95-0.18-1.58-0.33-2.29-1.04c-0.79-2.96-0.04-3.58,1.42-6.05c0.29-0.55,0.58-1.1,0.87-1.65    c-0.63-0.63-1.17-1-0.42-1.87c-1.09-0.93-3.37-2.91-4.79-2.91c-0.35-0.21-0.69-0.42-1.04-0.62c-1.71-1.71-3.9-3.1-6.25-3.75    c-0.61-0.1-1.22-0.2-1.82-0.29c-0.7-0.19-1.41-0.37-2.11-0.56c-2.37-0.41-4.73-0.82-7.1-1.23c-1.62-0.28-2.88,0.3-4.54-0.35    c-0.07-0.42-0.18-1.32-0.25-1.73c0.07-0.9,0.14-1.8,0.21-2.71c-0.09-0.88-0.18-1.75-0.27-2.63c0.38-0.41,0.35-0.81,0.48-1.33    c0.22-0.9,0.58-1.44,0.27-2.41c0.07-0.69,0.41-1.27,0.36-1.63c0.43-1.3,0.78-2.71,0.35-4.02c0.69-2.81-2.64-6.63-4.1-8.8    c-0.96-1.43-3.1-2.68-2.62-4.77c0.44-1.59,0.88-3.24,1.78-4.6c0.93-1.39,4.21-4.37,5.62-5.21c0.84,0,3.13-0.45,3.54-1.25    c2.5-0.42,5-0.83,7.5-1.25c1.72-0.56,3.44-1.13,5.16-1.69c0.78-0.34,1.56-0.68,2.34-1.01c1.8-0.83,3.61-1.67,5.41-2.5    c0.42-0.42,0.83-0.83,1.25-1.25c0.16-0.47,0.33-0.95,0.49-1.42c0.6-1.27,1.33-2.4,1.54-3.82c0.35-0.23,0.47-0.78,0.5-1.22    c0.1-0.91,0.21-1.82,0.31-2.73c0.31-1.03,0.61-2.07,0.92-3.1c0.17-1.53-0.48-2.87-0.63-4.37c-0.36-3.72-2.27-7.47-4.01-10.79    c-0.24-0.64-0.49-1.29-0.73-1.93c-0.68-1.76-1.31-3.6-2.33-5.19c0.35,0-0.26-0.94-0.42-1.25c-0.55-1.32-1.11-2.64-1.67-3.96    c-1.53-2.15-3.05-4.3-4.58-6.45c-0.83-1.46-1.67-2.92-2.5-4.37c-0.57-1.34-1.15-2.69-1.72-4.03c-0.87-1.31-1.74-2.61-2.61-3.92    c-0.43-0.68-0.86-1.37-1.29-2.05c-3.9-4.56-5.42-11.1-4.35-16.86c0.74-0.88,1.5-1.49,2.06-2.5    C110.98,57.7,111.05,57.63,111.11,57.56z"/>
		
			<circle cx="170.55" cy="119.92" r="1.586"/>
	</g>
	<g id="__Suluova">
		<path d="    M196.79,198.79c2.84,0.71,6.42,1.3,9.26,2c3.89,0.75,7.78,1.49,11.67,2.24c3.68,0.89,8.87,1.96,12.49,0.26    c1.67-0.76,3.33-1.53,5-2.29c0.38-0.62,0.97-0.65,1.53-0.96c1.43-0.72,2.87-1.44,4.3-2.16c1.27-0.93,2.53-1.85,3.8-2.78    c0.81-0.44,1.5-1.29,2.03-2.01c0.87-0.07,3.25-3.07,3.72-3.91c0.46-0.83,1.28-0.4,1.27-1.71c0.9-0.9,1.81-1.8,2.71-2.71    c0.21-0.35,0.42-0.69,0.62-1.04c2.55-2.21,4.59-5.6,5.71-8.65c0.46-0.66,0.92-1.31,1.37-1.97c0-1,1.1-2.31,1.67-3.12    c0-1.44,2.45-4.27,3.12-5.62c0.55-0.35,1.11-0.69,1.67-1.04c0.49-0.48,0.97-0.97,1.46-1.46c2.57-1.18,5.14-2.36,7.7-3.55    c0.54-0.13,3.09-1.47,3.04-1.63c0.51-0.08,1.02-0.16,1.53-0.23c0.36-0.59,1.42-0.62,2.08-0.83c1.8-0.9,3.61-1.8,5.41-2.71    c0.69-0.55,1.39-1.11,2.08-1.67c0.32-1.1,1.63-1.65,2.29-2.5c0.69-1.11,1.39-2.22,2.08-3.33c2.57-3.19,5.14-6.38,7.7-9.58    c0.35-0.28,0.69-0.55,1.04-0.83c0.66-0.89,1.23-1.56,2.08-2.29c0.13-1,1.4-2.2,2.08-2.91c1.7-1.78,3.47-3.4,4.58-5.62l-0.09,0.58    c0.18-0.32-0.87-0.67-1.16-0.79c-1.39-0.14-2.78-0.28-4.16-0.42c-0.98,0.08-1.96,0.16-2.93,0.25c-0.48-0.08-0.96-0.16-1.44-0.25    c-2.6,0.34-5.53-0.28-8.12-0.62c-2.22,0.09-4.44,0.18-6.66,0.27c-0.49,0.05-0.97,0.1-1.46,0.14c-1.6-0.28-3.19-0.56-4.79-0.83    c-1.6-0.14-3.19-0.28-4.79-0.42c-0.97-0.42-1.94-0.83-2.91-1.25c-1.06-0.73-2.38-1.54-3.75-1.25c-2.14,0.46-3.84,1.67-6.05,1.94    c-3.88-0.13-7.76-0.26-11.64-0.38c-2.79,0.42-4.37,3.22-7.65,2.47c-3.9-0.9-7.85-2.11-11.54-3.66c-1.52-0.84-3.04-1.69-4.57-2.53    c-0.82-0.99-1.3-1.92-1.85-3.03c-0.31-0.31-0.63-0.63-0.94-0.94c-0.61-0.62-1.97-1.77-2.86-1.77l0.05-0.83    c-0.42,0.62-0.83,1.25-1.25,1.87c-0.19,0.96-0.3,2.43-1.25,2.91c-0.28,1.04-0.55,2.08-0.83,3.12c-0.82,0.88-1.62,2.06-1.87,3.33    c-0.75,0.82-1.39,1.44-2.29,2.08c-0.82,1.05-1.65,2.09-2.47,3.14c-0.56,0.69-1.13,1.38-1.69,2.06c-0.69,0.9-1.39,1.8-2.08,2.71    c-0.62,0.69-1.25,1.39-1.87,2.08c-1.25,1.53-2.5,3.05-3.75,4.58c-0.46,0.6-1.71,1.52-1.67,2.29c-0.62,0.8-0.88,1.36-1.87,1.67    c0.07,0.23,0.14,0.45,0.21,0.68c0.51,1.84-0.67,3.23-1.56,4.79c-0.18,0.47-0.35,0.95-0.53,1.42c-1.08,1.54-2.85,2.48-3.75,4.14    c-0.39,0.72-1.15,1.44-1.04,2.29c-0.59,1.22-1.37,3.19-1.04,4.58c-0.44,1.34-0.55,2.97-0.42,4.37c0.05,0.51-0.37,1.3-0.01,1.65    c0.81,0.74,2.75,0.61,3.98,1.33c1.2,0.7,3.08,2.75,4.57,2.44c0.49,0.62,0.97,1.25,1.46,1.87c0.69,0.21,1.39,0.42,2.08,0.62    c0.41,0.1,0.81,0.28,1.04,0.62c0.69,0.05,1.38,0.1,2.07,0.16c0.64,0.06,0.56,0.49,1.26,0.26c-0.38,1.11-0.83,3.3-1.87,3.96    c-0.21,0.55-0.42,1.11-0.63,1.67c-0.15,1.13-0.59,2.5-1.46,3.33c-0.49,0.35-0.97,0.69-1.46,1.04c-1.04,0.06-2.64,0.44-3.54-0.21    c-1.15,1.83-2.3,3.67-3.45,5.5c-0.78,2.1-0.72,4.18-0.88,6.34c-0.09,1.23-0.18,1.96,0.16,3.16L196.79,198.79z"/>
		
			<circle cx="229.32" cy="144.65" r="1.586"/>
	</g>
	<g id="__Taşova">
		<path d="    M432.77,229.74c-2.68-2.01-6.12-3.53-9.58-4.16c-0.97-0.28-1.94-0.56-2.92-0.83c-0.87-0.27-3.2-1.11-3.96-0.63    c-2.43-0.83-4.86-1.67-7.29-2.5c-3.45-2.24-6.29-4.77-9.18-7.66c-0.55-0.06-1-0.58-1.23-1.09c-0.94-0.6-2.02-2.31-3.12-2.29    c-0.35-0.42-0.69-0.83-1.04-1.25c-1.6-1.11-3.19-2.22-4.79-3.33c-1.04-0.56-2.08-1.11-3.12-1.67c-1.88-0.52-3.75-1.04-5.63-1.56    c-1.31,0-2.62-0.01-3.92-0.01c-0.53-0.07-1.27-0.27-1.69,0.12c-1.53-0.31-3.06-0.63-4.59-0.94c-2.09-1.14-4.18-2.28-6.27-3.42    c-1.06-0.02-2.5-1.26-3.21-2.04c-0.73-0.07-3.34-1.9-3.62-2.54c-1.85-1.18-5.48-4.82-6.2-6.87c-0.57-1.87-1.14-3.75-1.71-5.62    c-0.14-1.53-0.28-3.05-0.42-4.58c-0.07-1.39-0.14-2.78-0.21-4.16c0.85-2.16,1.7-4.33,2.54-6.49c0.19-2.14,0.39-4.28,0.58-6.41    c-0.66-3.08,0.55-6.24,0.16-9.34c-0.19-0.57-0.38-1.13-0.57-1.7c0.27,0,0.19-1.11,0.12-1.44c-0.32-1.46-0.63-2.93-0.95-4.39    c-0.12-0.89-1.14-2.26-0.62-3.12c-0.61-1.33-0.9-2.72-1.04-4.16c0,0-0.42,0.49-0.42,0.42c1.04-0.42,2.08-0.83,3.12-1.25    c1.67-0.83,3.33-1.67,5-2.5c1.6-1.11,3.19-2.22,4.79-3.33c0.68-0.68,1.54-1.68,2.5-1.87c0.6-0.6,1.43-1.5,2.29-1.67    c2.35-2.94,4.84-5.99,7.7-8.33c0.62-0.97,1.25-1.94,1.87-2.91c0.69-0.56,1.39-1.11,2.08-1.67c0.45-0.5,2.71-3.4,2.71-3.96    c0.61-0.61,1.03-1.02,1.46-1.87c0.97-1.11,1.94-2.22,2.91-3.33c0.46-0.83,0.97-1.44,1.67-2.08c0.89-1.1,1.78-2.2,2.67-3.3    c1.33-2.23,2.66-4.46,3.99-6.69c0.63-1.8,1.26-3.59,1.89-5.39c0-0.77-0.01-1.54-0.01-2.32c0.14-0.42,0.28-0.83,0.42-1.25    c-0.16-1.01-0.07-1.57,0.14-2.55c0.44-0.33,0.88-0.66,1.32-0.99c2.11-0.91,4.25-0.41,6.27,0.35c0.74,0.28,1.9,0.44,2.26,1.11    c0.76,0.28,1.53,0.56,2.29,0.83c0.9-0.37,1.8-0.74,2.69-1.11c5.26-1.62,10.85-2.83,15.84,0.06c0.69,0.28,1.39,0.56,2.08,0.83    c1.73-0.23,3.46-0.46,5.19-0.68c0.82-0.11,1.75-0.28,2.3,0.25c1.34,1.34,2.31,3.55,2.7,5.42c0.15,0.56,0.29,1.11,0.44,1.67    c1.3,2.17,1.96,6.27,1.44,8.74c-0.25,1.18,0.46,2.88-0.21,3.96c0.06,1.94-0.19,6.77,1.05,6.92c1.86,0.12,3.23,1,4.83,1.88    c0.54,0.26,3.58,0.83,4.04,0.97c0.51,0.21,1.02,0.43,1.52,0.64c0.28,0.42,0.56,0.83,0.83,1.25c0.28,0.9,0.56,1.79,0.84,2.69    c0.9,1.05,1.8,2.09,2.7,3.14c0.69,0.35,1.39,0.69,2.08,1.04c1.46-0.14,2.92-0.28,4.37-0.42c1.77-0.52,2.64-2.34,4.37-2.91    c0,0.14,0,0.27-0.01,0.41c-0.13,1.85-1.08,3.24-1.45,5c-0.87,0.76-1.8,2.04-2.29,3.12c-0.56,0.21-2.14,1.11-1.26,1.19    c0.78,0.07,0.97,0.64,0.93,0.73c-0.25,0.43-0.39,0.49-0.29,1c-0.79,0.25-1.33,0.48-2.08,0.83c-0.35,0.83-0.69,1.67-1.04,2.5    c0.19,0.69,0.74,2.77,1.25,3.12c-0.28,0.32-0.55,0.39-0.42,0.83c-0.88,0.2-1-0.12-1.63,0.6c-0.12,0.83-0.15,1.83,0.38,2.52    c-0.32,1.92-0.62,7.45,0.63,8.95c1.27,0,3.84,0.1,3.33,2.08c0.21,0.42,0.42,0.83,0.62,1.25c0.92,0.66,1.83,1.33,2.75,1.99    c1.09,0.59,2.19,1.17,3.29,1.76c0.9,0.35,1.8,0.69,2.71,1.04c0.9,0.18,1.43,0.04,2.29,0.42c1.46,0.83,2.92,1.67,4.37,2.5    c0.34,0.49,0.5,1.26,1.04,1.46c-0.03,0.93,2.08,1.39,2.91,1.04c0.07,0.62,0.14,1.25,0.21,1.87c-0.76,0.76-1.53,1.53-2.29,2.29    c-0.65,0.3-1.38,0.39-1.67,1.04c-1.39,0.63-2.78,1.25-4.16,1.87c-0.76-0.28-0.89,1.85-1.65,1.57c-0.87-0.03-3.45,0.7-3.76,1.16    c-1.96,2.47-4.34,2.32-6.88,4.31c-0.74,0.58-4.16,2.11-4.99,1.92c-0.32,0.72-1.11,1.11-1.67,1.67c-0.75-0.05-0.64,1.65-0.21,1.87    c0.28,1.8,0.55,3.61,0.83,5.41c-0.08,2.55,0.33,4.82,0.21,7.5c-0.08,1.01-0.17,2.03-0.25,3.04c0.08,1,0.17,1.99,0.25,2.99    c-0.07,0.77-0.14,1.53-0.2,2.3c-1.01,2.48-2.53,4.44-3.54,6.87c-0.19,0.45-0.42,1.01-0.83,1.25l-0.42,0.42    c-1.8,0.93-4.15,2.71-4.92,4.63c-0.64,0.36-2.11,1.97-2.16,2.66c-0.59,0.54-1.56,1.27-1.67,2.08c-0.81,0.6-2.11,1.23-2.29,2.29    c-0.72,0.56-1.76,1.33-1.87,2.29c-2.19,2.19-4.08,4.64-6.45,6.66H432.77z"/>
		
			<circle cx="433.39" cy="165.47" r="1.586"/>
	</g>
	<g id="__Göynücek">
		<path d="    M155.45,373.66c1.83,0.57,3.65,1.15,5.48,1.72c0.11,0.12,0.22,0.25,0.33,0.37c0.42,0.16,1.83,0.86,2.21,0.46    c1.44-1.55,2.87-3.1,4.31-4.65c0.52-0.66,0.8-1.9,1.64-2.12c0.71-1.32,1.42-2.65,2.13-3.97c0.43-0.8,1.04-1.02,1.33-1.89    c1.33-0.83,1.82-2.49,2.95-3.54c1.64-1.77,3.28-3.54,4.91-5.3c2.03-2,4.06-3.99,6.09-5.99c1.94-1,3.88-2,5.82-2.99    c0.79-0.3,1.58-0.59,2.38-0.89c1.2-0.84,3.4-2.75,5-2.29c1.8-0.83,5.53-2.12,7.55-1.77c1.22-0.85,2.27-1.19,3.63-1.69    c0.64-0.16,1.29-0.33,1.93-0.49c1.04-0.35,2.08-0.69,3.12-1.04c1.57-0.17,2.81-1.44,4.17-2.05c2.33-1.04,4.63-1.46,6.86-2.53    c0.83-0.49,1.67-0.97,2.5-1.46c0.51-0.66,1.28-1.64,2.08-1.87c0.42-0.79,0.95-1.52,1.76-1.97c1.42-0.45,2.85-0.91,4.27-1.36    c0.63,0.1,2.04-0.19,2.5-0.62c1.54-0.15,5.32-0.92,5.83-2.49c0.97-2.99,1.94-5.97,2.91-8.96c0.74-0.84,0.7-2.48,1.67-3.12    c0.21-0.49,0.41-0.98,0.62-1.46c0.8-1.12,3.36-4.15,3.36-5.17c-0.03-0.7-1.39-4.21-1.9-4.61c-0.2-0.73-0.26-1.53-0.83-2.08    c-0.14-1.73-0.28-3.47-0.42-5.2c0.02-0.73-0.49-1.43,0-2.08c-0.21-0.35-0.42-0.69-0.62-1.04c-0.33-0.33-0.65-0.66-0.98-1    c-0.17-0.64-1.1-0.87-1.59-1.23c-1-0.74-3.59-2.7-3.73-3.81c-0.22-2.1,0.14-2.44,0.84-4.4c0.19-0.52,0.4-1.39,0.88-1.65    c0.12-1.29,0.26-2.43,0-3.75c-0.27-1.38-0.67-2.8-2.04-3.4c-5.04-2.13-11.88,2.16-15.87,4.44c-0.73,0.71,0.03,0.29-0.83,0.63    c-0.06,0.31-0.36-0.1-0.42,0.21c0.18,0.12-0.8-0.12-0.62,0c-0.27-0.05-0.53-0.1-0.8-0.14c-0.67-0.46-1.23-0.02-1.91-0.48    c-0.06-0.17-0.56-0.24-0.62-0.42c-0.37,0.22-0.65-0.35-0.42-0.21c-0.06-0.02-0.13-0.05-0.19-0.07c-0.89-0.36-1.9-0.91-2.93-0.76    c-0.49,0.07-0.97,0.14-1.46,0.21c-0.45,0.29-2.3,1.03-2.71,0.83c-1.09,0.52-2.66,1.65-3.47,0.59c-0.16-0.33-0.32-0.66-0.48-0.99    c0.02-0.48,0.19-2.11,0.62-1.69c0.28-1.18,0.56-2.36,0.83-3.54c0.21-0.63,1.04-1.53,0.53-2.21c-0.18-0.16-0.35-0.33-0.53-0.49    c-1.79-0.37-3.61,0.35-5.38,0.35c-0.35,0.4-1.59,0.48-2.11,0.48c-0.29,0.29-2.2,0.86-2.71,0.83c-1.01-0.06-3.97-0.64-4.58-1.25    c-0.69-0.28-1.39-0.56-2.08-0.83c-0.69-0.21-1.39-0.42-2.08-0.62c-0.69-0.41-1.37-0.83-2.06-1.24c-1.59-0.34-3.14-1.05-4.81-1.05    c-0.38,0-1.67,0.19-1.67-0.21c0,0.96-3.13,2.59-3.94,3.29c-0.42,0.43-0.84,0.86-1.26,1.29c-0.71,0.4-1.43,0.8-2.14,1.2    c-0.74,0.42-1.49,0.85-2.23,1.28c-1.83,1.09-3.77,2.35-5.82,2.94c-2.39,0.69-4.77,1.18-6.91,2.46c-0.62,0.36-1.23,0.72-1.85,1.08    c-1.71,2.04-3.66,4.38-4.79,6.87c-0.41,0.7-0.82,1.4-1.22,2.1c-0.98,3.12-1.96,6.23-2.94,9.35c-0.28,2.57-0.56,5.14-0.83,7.7    c-0.56,2.43-1.11,4.86-1.67,7.29c-0.38,0.6-0.76,1.19-1.14,1.79c0.12,0.37-0.1,0.78-0.33,1.11c-1.98,2.81-4.3,8.73-4.57,12.09    c-0.11,1.36-0.77,2.95-0.33,4.33c0.25,0.92,0.49,1.83,0.74,2.75c0.49,1.04,0.97,2.08,1.46,3.12c0.64,0.56,1.28,1.12,1.91,1.68    c0.27,0.34,0.53,0.69,0.79,1.03c0.59,0.84,1.18,1.69,1.76,2.53c0.45,0.47,0.91,0.95,1.36,1.42c0.21,0.76,0.42,1.53,0.62,2.29    c-0.07,1.6-0.14,3.19-0.21,4.79c-0.16,0.9-0.4,2.01-1.04,2.71c0.06,0.49,0.03,0.71,0.42,1.04c-0.56,1.5-0.89,3.75-0.69,5.4    c0.13,1.07,0.59,2.35-0.27,3.13c0.14,0.47,0.34,1.23,0.75,1.46c0.3,1.3,0.6,2.6,0.9,3.9c-0.35,1.3,1.61,4.47,2.15,5.82    C154.6,372.49,154.76,373.55,155.45,373.66z"/>
		
			<circle cx="192.02" cy="312.5" r="1.586"/>
	</g>
	<g id="__Amasya">
		<path d="    M164.05,215.9c0.25-0.7,0.49-1.41,0.74-2.11c1.35-2.5,3.65-5.08,5.87-6.74c0.88-0.66,3.1-2.08,4.16-2.08    c0.69-0.35,1.39-0.69,2.08-1.04c1.28-1.28,3.28-1.76,5-2.08c0.77-0.2,1.53-0.39,2.3-0.59c2.63-0.36,5.27-0.72,7.91-1.07    c1.67-0.31,3.05-1.4,4.79-1.46l-0.1,0.08c2.84,0.71,6.42,1.3,9.26,2c3.89,0.75,7.78,1.49,11.67,2.24    c3.68,0.89,8.87,1.96,12.49,0.26c1.67-0.76,3.33-1.53,5-2.29c0.38-0.62,0.97-0.65,1.53-0.96c1.43-0.72,2.87-1.44,4.3-2.16    c1.27-0.93,2.53-1.85,3.8-2.78c0.81-0.44,1.5-1.29,2.03-2.01c0.87-0.07,3.25-3.07,3.72-3.91c0.46-0.83,1.28-0.4,1.27-1.71    c0.9-0.9,1.81-1.8,2.71-2.71c0.21-0.35,0.42-0.69,0.62-1.04c2.55-2.21,4.59-5.6,5.71-8.65c0.46-0.66,0.92-1.31,1.37-1.97    c0-1,1.1-2.31,1.67-3.12c0-1.44,2.45-4.27,3.12-5.62c0.55-0.35,1.11-0.69,1.67-1.04c0.49-0.48,0.97-0.97,1.46-1.46    c2.57-1.18,5.14-2.36,7.7-3.55c0.54-0.13,3.09-1.47,3.04-1.63c0.51-0.08,1.02-0.16,1.53-0.23c0.36-0.59,1.42-0.62,2.08-0.83    c1.8-0.9,3.61-1.8,5.41-2.71c0.69-0.55,1.39-1.11,2.08-1.67c0.32-1.1,1.63-1.65,2.29-2.5c0.69-1.11,1.39-2.22,2.08-3.33    c2.57-3.19,5.14-6.38,7.7-9.58c0.35-0.28,0.69-0.55,1.04-0.83c0.66-0.89,1.23-1.56,2.08-2.29c0.13-1,1.4-2.2,2.08-2.91    c1.7-1.78,3.47-3.4,4.58-5.62c2.98,0.76,5.97,1.53,8.95,2.29c1.59,0.87,3.17,1.74,4.76,2.62c2.18,0.97,4.36,1.94,6.55,2.91    c1.04,0.59,2.09,1.18,3.14,1.78c3.93,0.69,7.86,1.38,11.79,2.07c0.07-0.07,0.14-0.14,0.21-0.21c0.14,1.45,0.43,2.84,1.04,4.16    c-0.52,0.86,0.51,2.23,0.62,3.12c0.32,1.46,0.63,2.93,0.95,4.39c0.07,0.33,0.15,1.44-0.12,1.44c0.19,0.57,0.38,1.13,0.57,1.7    c0.39,3.1-0.82,6.26-0.16,9.34c-0.19,2.14-0.39,4.28-0.58,6.41c-0.85,2.16-1.7,4.33-2.54,6.49c0.07,1.39,0.14,2.78,0.21,4.16    c0.14,1.53,0.28,3.05,0.42,4.58c0.57,1.87,1.14,3.75,1.71,5.62c0.72,2.05,4.35,5.69,6.2,6.87c0.29,0.65,2.9,2.48,3.62,2.54    c0.71,0.78,2.15,2.02,3.21,2.04c2.09,1.14,4.18,2.28,6.27,3.42c1.53,0.31,3.06,0.63,4.59,0.94c0.42-0.38,1.16-0.19,1.69-0.12    c1.31,0,2.62,0.01,3.92,0.01c1.88,0.52,3.75,1.04,5.63,1.56c1.04,0.55,2.08,1.11,3.12,1.67c1.6,1.11,3.19,2.22,4.79,3.33    c0.35,0.42,0.69,0.83,1.04,1.25c1.1-0.02,2.19,1.69,3.12,2.29c0.23,0.5,0.68,1.02,1.23,1.09c2.89,2.89,5.73,5.42,9.18,7.66    c2.43,0.83,4.86,1.67,7.29,2.5c0.76-0.48,3.09,0.35,3.96,0.63c0.97,0.28,1.94,0.55,2.92,0.83c3.46,0.63,6.9,2.15,9.58,4.16    c-1.3,2.69-3.69,4.75-5.62,7.08c-0.76,1.53-1.53,3.05-2.29,4.58c0.05,0.81-0.58,1.82-1.02,2.47c-0.77,1.74-1.54,3.49-2.32,5.23    c-0.48-0.09-2.19,3.99-3.12,4.58c0.08,0.44-0.59,1.06-0.83,1.46c-0.6,1.2-0.91,2.2-1.32,3.08c-0.44,0.67-0.11,1.25-0.56,1.92    c0.1,0.51-0.5,1.25-0.79,1.69c-0.36,0.62-0.72,1.23-1.08,1.85c-0.44,0.45-0.89,0.89-1.33,1.34c-1.78,1.84-3.56,3.69-5.34,5.53    c-0.69,0.49-1.39,0.97-2.08,1.46c-0.93,0.06-1.73,0.78-2.5,1.25c-0.76,0.35-1.52,0.7-2.28,1.05c-1.71,0.8-3.43,1.35-5,2.49    c-2.01,0.55-4.03,1.11-6.04,1.67c-1.25-0.07-1.54-0.22-2.79-0.29c-0.24,0.44-1.9,0.67-2.36,0.9c-0.71,0.35-1.43,0.7-2.14,1.05    c-0.99,0.21-1.22,0.38-1.86,0.65c-0.81,1.18-2.43,2.02-3.34,2.47c-0.52,0.46-1.05,0.92-1.57,1.39c-0.66,0.79-1.33,1.58-1.99,2.37    c-1.1,2.63-2.2,5.27-3.31,7.9c-0.42-0.09-0.5,0.2-0.83,0.42c-1.62,1.05-3.44-0.35-4.58-1.25c-0.83-0.35-1.67-0.69-2.5-1.04    c-1.32-0.62-2.64-1.25-3.96-1.87c-2.08-1.05-4.16-2.09-6.24-3.14c-1.88-0.76-3.75-1.52-5.63-2.28c-1.34-0.96-3.58-1.86-5.21-2.29    c-0.14-0.53-0.4-0.53-0.83-0.83c-0.19-0.78-2.47-2.89-3.12-3.54c0.17-0.39-0.05-0.67-0.16-1.07c-0.57-2.02-2.25-3.13-4-4.14    c-0.58,0.21-1.08-0.09-1.67-0.21c-1.18-0.05-2.36-0.1-3.53-0.14c-2.36,1.02-4.72,2.04-7.09,3.06c-1.04,0.2-2.09,0.39-3.13,0.59    c-1.81,0.48-3.62,0.96-5.43,1.44c-0.27-0.04-0.55-0.08-0.82-0.12c-1.26,0.2-2.3,0.68-3.32,1.41c0.05-0.99-2.45-2.78-3.33-3.33    c-0.35,0.28-0.61,0.19-1.04,0.21c-0.97-0.35-1.94-0.69-2.92-1.04c-0.27,0.5-1.51,0.58-2.11,0.72c-1.59,0.35-2.99,0.86-4.34,1.78    c-0.61,0.07-1.37,0.52-1.91,0.79c-1.45,0.72-1.32,1.28-2.89,1.88c-0.7,0.17-0.87,0.72-2.4,1.35c-0.49,0.53-1.32,1.51-1.79,1.83    c-2.45,1.69-2.61,3.66-4.75,5.6c-2.07,1.61-4.15,3.22-6.23,4.83c-2.77,0.9-4.82,3.32-7.51,4.54c-2.08,0.95-4.29,0.8-6.45,1.46    c-0.42,0.35-0.83,0.69-1.25,1.04c-1.03,1.12-2.43,1.81-3.33,3.12l-0.81-0.18c-0.03-0.7-1.39-4.21-1.9-4.61    c-0.2-0.73-0.26-1.53-0.83-2.08c-0.14-1.73-0.28-3.47-0.42-5.2c0.02-0.73-0.49-1.43,0-2.08c-0.21-0.35-0.42-0.69-0.62-1.04    c-0.33-0.33-0.65-0.66-0.98-1c-0.17-0.64-1.1-0.87-1.59-1.23c-1-0.74-3.59-2.7-3.73-3.81c-0.22-2.1,0.14-2.44,0.84-4.4    c0.19-0.52,0.4-1.39,0.88-1.65c0.12-1.29,0.26-2.43,0-3.75c-0.27-1.38-0.67-2.8-2.04-3.4c-5.04-2.13-11.88,2.16-15.87,4.44    c-0.73,0.71,0.03,0.29-0.83,0.63c-0.06,0.31-0.36-0.1-0.42,0.21c0.18,0.12-0.8-0.12-0.62,0c-0.27-0.05-0.53-0.1-0.8-0.14    c-0.67-0.46-1.23-0.02-1.91-0.48c-0.06-0.17-0.56-0.24-0.62-0.42c-0.37,0.22-0.65-0.35-0.42-0.21c-0.06-0.02-0.13-0.05-0.19-0.07    c-0.89-0.36-1.9-0.91-2.93-0.76c-0.49,0.07-0.97,0.14-1.46,0.21c-0.45,0.29-2.3,1.03-2.71,0.83c-1.09,0.52-2.66,1.65-3.47,0.59    c-0.16-0.33-0.32-0.66-0.48-0.99c0.02-0.48,0.19-2.11,0.62-1.69c0.28-1.18,0.56-2.36,0.83-3.54c0.21-0.63,1.04-1.53,0.53-2.21    c-0.18-0.16-0.35-0.33-0.53-0.49c-1.79-0.37-3.61,0.35-5.38,0.35c-0.35,0.4-1.59,0.48-2.11,0.48c-0.29,0.29-2.2,0.86-2.71,0.83    c-1.01-0.06-3.97-0.64-4.58-1.25c-0.69-0.28-1.39-0.56-2.08-0.83c-0.69-0.21-1.39-0.42-2.08-0.62c-0.69-0.41-1.37-0.83-2.06-1.24    c-1.59-0.34-3.14-1.05-4.81-1.05c-0.38,0-1.67,0.19-1.67-0.21l0.21,0.21c0.56-0.42,1.11-0.83,1.67-1.25    c0.32-0.51,0.63-1.17,1.19-1.4c0.58-0.85,1.15-1.7,1.72-2.56c0.77-1.99,1.41-4.05,1.04-6.25c-0.42-0.83-0.83-1.67-1.25-2.5    c-1.11-1.04-2.22-2.08-3.33-3.12c-0.9-0.21-1.8-0.42-2.71-0.62c-1.19-0.51-4.83-1.38-5.41-2.29c-0.93-0.23-1.87-0.45-2.8-0.68    c-0.2-0.09-0.63-1.66-0.81-2.23c-0.42-1.3-0.5-0.96-0.28-2.04c-0.43-2.39-0.24-4.39-0.22-5.2c-0.22-0.87-0.54-4.57-1.09-5.87    c-1.17-1.41-2.35-2.81-3.52-4.22c-0.41-0.21-0.82-0.43-1.24-0.64c-1.93-0.87-3.87-1.74-5.8-2.62c-0.16-0.08-0.32-0.16-0.47-0.23    C162.54,219.12,163.65,216.8,164.05,215.9z"/>
		
			<circle cx="285.38" cy="210.03" r="1.586"/>
	</g>
</g>


</svg>