<?xml version="1.0" encoding="UTF-8"?>
<!DOCTYPE svg PUBLIC "-//W3C//DTD SVG 1.1//EN" "http://www.w3.org/Graphics/SVG/1.1/DTD/svg11.dtd">
<svg version="1.1" id="HaritaCizim" xmlns="http://www.w3.org/2000/svg" xmlns:xlink="http://www.w3.org/1999/xlink" x="0px" y="0px" viewBox="0 0 600 350" preserveAspectRatio="none">
    <defs id="__def">
        <radialGradient id="f">
            <stop offset="0" stop-color="white" stop-opacity="1"/>
            <stop id="STOP1" offset=".4" stop-opacity="1"/>
            <stop offset="1" stop-color="white" stop-opacity=".2"/>
        </radialGradient>
        <filter id="__flt1" x="0" y="0" width="200%" height="200%" filterUnits="objectBoundingBox">
            <feGaussianBlur in="SourceAlpha" stdDeviation="3" result="blur1"/>
            <feSpecularLighting result="specOut" in="blur1" specularConstant="1.5" specularExponent="20" lighting-color="#bbbbbb">
                <feDistantLight azimuth="45" elevation="30"/>
            </feSpecularLighting>
            <feComposite in="specOut" in2="SourceAlpha" operator="in" result="specOut"/>
            <feComposite in="SourceGraphic" in2="specOut" operator="arithmetic" k1="0" k2="1" k3="1" k4="0"/>
        </filter>
        <filter id="__flt2" x="0" y="0" width="200%" height="200%" filterUnits="objectBoundingBox">
            <feGaussianBlur in="SourceAlpha" stdDeviation="3" result="blur1"/>
            <feSpecularLighting result="specOut" in="blur1" specularExponent="20" lighting-color="#bbbbbb">
                <fePointLight x="-2000" y="100" z="2000"/>
            </feSpecularLighting>
            <feComposite in="specOut" in2="SourceAlpha" operator="in" result="specOut"/>
            <feComposite in="SourceGraphic" in2="specOut" operator="arithmetic" k1="0" k2="1" k3="1" k4="0"/>
        </filter>
        <filter id="__flt3" x0="-50%" y0="-50%" width="200%" height="200%" filterUnits="objectBoundingBox">
            <feGaussianBlur in="SourceAlpha" stdDeviation="3" result="blur"/>
            <feOffset in="blur" dx="0" dy="0" result="offsetBlur"/>
            <feSpecularLighting in="blur" surfaceScale="4" specularConstant=".5" specularExponent="20" lighting-color="flavor" result="specOut">
                <fePointLight x="-5000" y="-10000" z="5000"/>
            </feSpecularLighting>
            <feComposite in="specOut" in2="SourceAlpha" operator="in" result="specOut"/>
            <feComposite in="SourceGraphic" in2="specOut" operator="arithmetic" k1="0" k2="1" k3="1" k4="0" result="litPaint"/>
            <feMerge>
                <feMergeNode in="offsetBlur"/>
                <feMergeNode in="litPaint"/>
            </feMerge>
        </filter>
        <filter id="__flt4" x0="-50%" y0="-50%" width="200%" height="200%">
            <feGaussianBlur in="SourceAlpha" stdDeviation="2" result="blur"/>
            <feOffset dy="-1" dx="-1"/>
            <feComposite in2="SourceAlpha" operator="arithmetic" k2="-1" k3="1" result="hlDiff"/>
            <feFlood flood-color="white" flood-opacity=".7"/>
            <feComposite in2="hlDiff" operator="in"/>
            <feComposite in2="SourceGraphic" operator="over" result="withGlow"/>
            <feOffset in="blur" dy="3" dx="3"/>
            <feComposite in2="SourceAlpha" operator="arithmetic" k2="-1" k3="1" result="shadowDiff"/>
            <feFlood flood-color="black" flood-opacity="1"/>
            <feComposite in2="shadowDiff" operator="in"/>
            <feComposite in2="withGlow" operator="over"/>
        </filter>
        <filter id="__golge1" x="0" y="0" width="200%" height="200%" filterUnits="userSpaceOnUse">
            <feOffset result="offOut" in="SourceAlpha" dx="8" dy="8"/>
            <feGaussianBlur result="blurOut" in="offOut" stdDeviation="3"/>
            <feBlend in="SourceGraphic" in2="blurOut" mode="normal"/>
        </filter>
    </defs>
    <g id="__Harita" fill="white" stroke="#000000" stroke-width="0.25" stroke-miterlimit="10" display="none">
        <rect id="__cer" x="0" y="0" fill="#000000" opacity="0" width="600" height="350"/>
        <g id="__Akseki">
            <path d="   M374.6,65.41c0.54,0.24,1.08,0.48,1.62,0.72c0.29-0.06,0.66,0.02,0.94,0.11c1.76,0.46,3.52,0.93,5.28,1.39   c1.33,0.19,2.67,0.38,4,0.56c1.1,0.09,2.21,0.17,3.31,0.26c0.96,0.03,1.92,0.07,2.88,0.1c0.86,0.14,1.71,0.28,2.57,0.42   c0.72,0.1,1.44,0.2,2.17,0.3c2.75-0.21,5.49-0.41,8.24-0.62c1.17-0.24,2.33-0.48,3.5-0.72c0.62-0.38,1.24-0.76,1.85-1.13   c0.44-0.05,0.88-0.1,1.32-0.15c0.28-0.05,0.56-0.11,0.84-0.16c0.38-0.21,0.76-0.41,1.13-0.62c0.48-0.93,0.97-1.85,1.45-2.78   c0.28-0.49,0.56-0.93,1.1-0.89c0.23,0.06,0.46,0.12,0.69,0.17c1.43,0.7,3.94,0.47,5.11,1.7c0.77,0.82,1.59,1.6,2.46,2.41   c0.45,0.38,0.89,0.76,1.34,1.13c0.72,0.55,1.44,1.1,2.16,1.65c0.14,0.34,0.28,0.67,0.42,1.01c0.07,0.46,0.49,0.92,0.79,1.28   c0.94,0.89,1.87,1.77,2.81,2.66c0.62,0.69,1.24,1.37,1.85,2.06c0.69,1.06,1.37,2.13,2.06,3.19c0.89,1.03,1.79,2.06,2.68,3.09   c0.76,0.96,1.51,1.92,2.27,2.88c1.57,1.76,2.56,3.94,4.02,5.77c0.66,0.82,1.45,1.73,1.65,2.78c0.24,0.51,0.48,1.03,0.72,1.54   c-0.01,0.24-0.01,0.48-0.02,0.72c0.01,0.17,0.01,0.35,0.02,0.52c0.26,0.95,0.99,1.48,1.48,2.29c0.69,1.14,0.77,2.72,1.19,3.99   c0.17,0.65,0.35,1.3,0.52,1.96c0.21,0.27,0.41,0.55,0.62,0.82c1.15,1.06,3.06,2.03,3.3,3.71c-0.01,0.75-0.02,1.5-0.03,2.25   c0.01,0.69,0.02,1.38,0.03,2.07c0,1.06,0.07,2.09-0.21,3.09c0,0.45,0,0.89,0,1.34c0.03,1.03,0.07,2.06,0.1,3.09   c0.13,1.08-0.12,2.13-0.2,3.19c0,0.96,0,1.92-0.01,2.88c-0.01,1.02-0.02,2.05-0.03,3.07c0.05,0.38,0.1,0.77,0.15,1.15   c0.01,0.54-0.07,1.82,0.19,2.27c-0.07,0.55-0.28,1.67-0.1,2.16c-0.36,0.65-0.49,1.42-0.6,2.16c-0.28,0.55-0.56,1.1-0.84,1.65   c0.03,0.07,0.07,0.14,0.1,0.21c-0.05,0.13-0.1,0.26-0.15,0.39c-0.11,0.3-0.47,0.71-0.37,1.05c-0.54,1.23-1.19,2.5-2.06,3.5   c-0.45,0.45-0.89,0.89-1.34,1.34c-1.17,0.79-2.33,1.58-3.5,2.37c-0.21,0.51-0.41,1.03-0.62,1.54c-0.22,0.42-0.44,0.84-0.66,1.26   c-0.14,0.67-0.27,1.34-0.41,2.01c-0.19,0.45-0.38,0.91-0.58,1.36c-0.38,1.06-1.59,2.04-2.45,2.71c-0.03,0.21-1.56,1.71-1.84,2.04   c-0.49,0.58-0.98,1.15-1.47,1.73c-0.49,0.47-1.08,0.72-1.54,1.24c-0.36,0.4-0.81,1.24-1.44,1.24c-0.1,0.07-0.21,0.14-0.31,0.21   c-0.48,0.45-0.96,0.89-1.44,1.34c-1.37,0.76-2.75,1.51-4.12,2.27c-0.68,0.19-1.52,0.49-2.06,0.93c-0.44,0.36-1.95,0.78-2.06,1.34   c-0.9,0.32-1.8,0.65-2.71,0.97c-0.23,0.07-0.32-0.11-0.59,0.01c0.14-0.62-0.5-1.74-0.93-2.21c0.26-0.26-0.65-1.57-0.73-1.95   c-0.36-1.7-2.33-3.8-3.29-5.26c-0.3-0.46-0.82-0.46-0.93-0.98c-0.31-0.51-0.56-1.19-1.03-1.8c-0.68-0.66-1.36-1.32-2.04-1.98   c-0.32-0.23-0.63-0.47-0.95-0.7c-1-0.17-1.99-0.34-2.99-0.51c-0.76,0.03-1.51,0.07-2.27,0.1c-0.5-0.05-1.01-0.1-1.51-0.15   c-0.78,0.11-1.73,0.09-2.51-0.07c-1.3-0.44-2.61-0.89-3.91-1.33c-0.41-0.21-0.82-0.41-1.24-0.62c-1.02-1.02-0.94-2.45-1.02-3.79   c-0.07-0.35-0.14-0.7-0.22-1.05c-0.27-0.5-0.53-1-0.79-1.51c-0.35-0.46-0.71-0.92-1.06-1.38c-0.17-0.31-0.34-0.62-0.52-0.93   c-0.14-0.45-0.27-0.89-0.41-1.34c-0.07-0.16-0.3-0.62-0.41-0.62c-0.1-0.38-0.21-0.76-0.31-1.13c-1.2-1.2-2.23-2.43-3.3-3.71   c-0.9-1.07-1.86-1.99-2.88-2.88c-0.54-0.73-1.08-1.47-1.62-2.2c-0.42-0.74-0.85-1.49-1.27-2.23c-0.08-0.34-0.14-0.52-0.32-0.82   c-0.23-0.43-0.47-0.86-0.7-1.29c1.21,0.56,2.82,1.47,4.11,1.7c1.11,0.45,2.21,0.91,3.32,1.36c0.94,0.31,2.09,0.19,3.07,0.19   c0.62,0,1.24,0,1.85,0c1.87-0.3,3.85-2.32,5.36-3.4c0.27-0.1,0.55-0.21,0.82-0.31c0.42-0.44,0.83-0.88,1.25-1.33   c0.41-0.31,0.82-0.63,1.23-0.94c0.41-0.24,0.82-0.48,1.24-0.72c1.13-0.87,1.83-2.18,2.7-3.28c1.26-1.48,2.53-2.96,3.79-4.44   c0.93-1.41,1.85-2.81,2.78-4.22c0.14-0.31,0.27-0.62,0.41-0.93c0.27-0.31,0.55-0.62,0.82-0.93c0.21-0.34,0.41-0.69,0.62-1.03   c0.1-0.45,0.2-0.89,0.3-1.34c-0.03-0.24-0.06-0.48-0.09-0.72c-0.24-0.37-0.4-0.73-0.74-1c-0.47-0.32-0.95-0.64-1.42-0.95   c-0.55-0.27-1.1-0.55-1.65-0.82c-0.55-0.1-1.1-0.21-1.65-0.31c-0.94-0.31-1.71-0.8-2.68-1.01c-0.62-0.04-1.23-0.08-1.85-0.12   c-0.31-0.1-0.62-0.2-0.93-0.3c-0.31-0.11-0.62-0.21-0.92-0.32c-2.15-0.2-4.4-0.09-6.18-1.54c-1.37-1.04-2.73-2.08-4.1-3.12   c-0.53-0.38-1.51-0.94-1.67-1.62c-0.31-0.24-0.62-0.48-0.93-0.72c-0.73-0.84-1.26-1.81-1.75-2.78c-0.79-1-1.58-1.99-2.37-2.99   c-0.33-1.28-0.54-2.61-0.78-3.92c-0.12-0.55-0.24-1.09-0.35-1.64c-0.89-1.51-1.79-3.02-2.68-4.53c-0.75-0.91-1.35-2.04-2.57-2.27   c-0.99-0.87-1.97-1.73-2.96-2.6c-0.56-0.4-1.21-0.87-1.57-1.42c-0.39,0-0.63,0.08-0.81-0.31c-0.04-0.31-0.08-0.62-0.12-0.92   c-1.34-1.33-1.98-4.26-1.54-6.08c0.02-0.36,0.04-0.73,0.05-1.09C374.19,65.76,374.51,65.36,374.6,65.41z"/>
            <circle cx="428.06" cy="123.7" r="1.586"/>
        </g>
        <g id="__Alanya">
            <path d="   M407.78,194.3c0.15,0.41,0.23,0.93,0.72,1.03c0.17,0.22,0.23,0.41,0.52,0.41c0.67-0.32,0.53-0.42,1.03-0.93   c0.2,0.2,0.16,0.7,0.62,0.59c0.24-0.06,1.23-0.27,1.23-0.59c0-0.61-0.38-1.03,0.24-1.5c0.24-0.15,0.3-0.11,0.59-0.04   c0.6-0.51,1.51-1.42,2.37-1.44c0.25-1.1,1.25-1.18,2.16-1.44c0-0.37-0.15-0.72,0.52-0.62c0.24-0.58,0.48-1.17,0.72-1.75   c0.01-0.26,0.02-0.52,0.03-0.78c0.03-0.19,0.05-0.37,0.08-0.56c0.13-0.22,0.22-0.25,0.21-0.51c0.41-0.43,1.09-1.03,1.13-1.65   c0.66-0.58,1.92-1.01,1.96-2.05c-0.02-0.61-0.31-1.45,0.13-1.92c0.02-0.08,0.05-0.17,0.07-0.25c0.19-0.17,0.37-0.33,0.56-0.5   c0.26-0.18,0.52-0.35,0.78-0.53c0.21-0.07,0.41-0.14,0.62-0.21c0.27-0.2,0.54-0.4,0.8-0.6c0.49,0.1,0.97,0.19,1.46,0.29   c0.68-0.08,1.26-0.31,1.96-0.31c0.41-0.17,0.82-0.34,1.24-0.52c0.31-0.07,0.62-0.14,0.93-0.21c0.69-0.46,0.46-1.03,1.54-1.03   c0.27-0.41,0.55-0.82,0.82-1.24c0.17-0.1,0.34-0.21,0.52-0.31c0.68-0.22,1.34-0.46,2.06-0.51c0.24,0,0.48,0,0.72,0   c0.35,0.35,0.63,0.18,0.93-0.1c0.14,0.03,0.27,0.07,0.41,0.1c0.37-0.09,0.67-0.47,0.93-0.72c0.53,0.04,1.04-0.34,1.24-0.82   c0.2,0,0.4,0,0.6-0.01c0.54,0.05,1.31,0.08,1.97,0.21c0.17,0.1,0.34,0.21,0.51,0.31c0.38,0,0.76,0,1.13,0   c0.73-0.04,1.96-0.61,2.57-0.1c0.37-0.02,0.74-0.04,1.12-0.06c0.29,0.14,0.33,0.31,0.53,0.48c0.25,0.24,0.51,0.48,0.76,0.72   c0.19,0.27,0.23,0.48,0.47,0.72c0.34,0,1.01,0.46,1.24,0.72c0.27-0.37,0.33-0.49,0.82-0.62c0.22,0.16,0.44,0.32,0.65,0.48   c0.26,0.09,0.43-0.12,0.69-0.17c0.52,0.03,1.03,0.07,1.54,0.1c0.76,0.76,1.85,0.37,2.78,0.57c0.52,0.11,0.8,0.4,1.24,0.67   c0.34,0.21,0.96,0.21,1.34,0.21c0.31,0.2,0.93,0.59,1.34,0.51c0.14-0.07,0.27-0.14,0.41-0.21c0.36-0.11,0.71,0.16,1.03,0   c0.24,0.14,0.45,0.43,0.72,0.41c0.26,0.53,0.44,0.44,0.82,0.82c0.1,0.14,0.21,0.27,0.31,0.41c0.45,0.34,0.89,0.69,1.34,1.03   c0.21,0.41,0.41,0.82,0.62,1.24c0,0.4,0.14,0.65,0.41,0.93c0.07,0.24,0.14,0.48,0.21,0.72c0.14,0.07,0.27,0.14,0.41,0.21   c0.45,0.45,0.91,0.9,1.36,1.35c0.43,0.6,0.74,1.5,1.53,1.74c0.17,0.21,0.24,0.36,0.52,0.41c0.31,0.31,0.97,1.1,1.34,1.13   c0.23,0.25,0.39,0.55,0.72,0.62c0.34,0.46,0.69,1.14,1.34,1.13c1.55,1.61,3.13,2.3,5.36,2.57c0.2,0.2,0.74,0.21,1.03,0.28   c0.93,0.23,1.63,0.49,2.57,0.34c0.42,0.21,0.8,0.23,1.24,0.31c0.91,0.17,1.65,0.53,2.57,0.41c0.21,0.21,0.63,0.1,0.91,0.17   c0.62,0.15,2.04,0.69,2.59,0.45c0.86,0.34,1.72,0.69,2.57,1.03c1.1-0.03,2.2-0.07,3.3-0.1c1.34,0.03,2.68,0.07,4.02,0.1   c0.26-0.02,0.64-0.02,0.82-0.21c0.79,0,1.39-0.22,2.15-0.32c0.27-0.21,2.03-1.05,2.28-0.91c0.62-0.37,1.23-0.74,1.85-1.11   c0.45-0.17,1.03-0.17,1.34-0.55c0.64-0.72,1.29-1.43,1.93-2.15c0.14-0.73,0.99-1.31,1.4-1.89c0.88-0.96,1.77-1.91,2.65-2.87   c0.86-0.81,1.72-1.63,2.58-2.44c0.55-0.31,1.1-0.62,1.65-0.93c0.62-0.6,1.38-1.01,2.06-1.54c0.69-0.45,1.37-0.89,2.06-1.34   c0.35-0.35,1.12-0.93,1.65-0.93c0.35-0.35,0.64-0.46,1.12-0.44c0.37,0.12,0.75,0.24,1.12,0.37c0.79,0.26,1.54,0.57,2.08,1.21   c0.62,0.73,0.39,1.83,0.31,2.68c-0.01,0.09,0.26,0.79,0.21,1.13c-0.17,1.13-0.34,2.27-0.51,3.4c-0.04,0.46-0.47,1.87,0,1.96   c-0.09,0.13-0.18,0.25-0.27,0.38c0.34,0.79,0.69,1.59,1.03,2.38c0.33,0.56,0.66,1.11,0.99,1.67c0.24,0.65,0.48,1.3,0.72,1.96   c-0.03,0.69-0.07,1.37-0.1,2.06c0.03,0.58,0.07,1.17,0.1,1.75c0.06,0.37,0,0.78-0.1,1.13c0.4,1.13-0.04,2.46,0.58,3.56   c0.09,0.13,0.35,0.02,0.45-0.05c-0.16,0-0.11,0.07-0.12,0.21c-0.03,0.78,0.12,1.24,0.53,1.95c-0.15,0-0.12,0.67-0.08,0.81   c0.28,0.93,0.57,1.86,0.85,2.79c0.25,0.59,0.5,1.18,0.76,1.77c-0.13,0.19-0.28,0.25-0.29,0.49c-0.86,0.23-1.6,0.65-2.35,1.16   c-1.35,0.91-2.84,1.89-4.37,2.4c-0.78,0.19-1.56,0.38-2.34,0.56c-0.76,0.27-1.51,0.55-2.27,0.82c-0.55,0.31-1.1,0.62-1.65,0.93   c-0.38,0.31-0.76,0.62-1.13,0.93c-0.27,0.31-0.55,0.62-0.82,0.93c-0.16-0.16-0.17-0.03-0.31,0.1c-0.26,0.32-0.53,0.64-0.79,0.95   c-0.22,0.3-0.44,0.6-0.65,0.9c-0.21,0.48-0.41,0.96-0.62,1.44c-0.13,0.17-0.26,0.35-0.39,0.52c-0.49,0.68-0.98,1.37-1.47,2.05   c-0.17,1.68-0.34,3.36-0.52,5.05c-0.12,0.48-0.24,0.96-0.37,1.45c0.02,0.27,0.04,0.55,0.06,0.82c-0.07,0.1-0.14,0.21-0.21,0.31   c0,0.63-0.15,1.91-0.79,2.14c-0.53,0.18-1.06,0.36-1.58,0.54c-0.58,0.31-1.17,0.62-1.75,0.93c-0.58,0.18-1.15,0.36-1.73,0.54   c-0.59,0.37-1.18,0.74-1.77,1.1c-0.65,0.79-1.3,1.58-1.96,2.37c-0.34,0.69-0.68,1.38-1.01,2.07c-0.31,0.58-0.63,1.16-0.94,1.74   c-0.27,0.51-0.55,1.03-0.82,1.54c-0.23,0.69-0.78,1.21-0.93,1.96c0,0.34,0,0.69,0,1.03c-0.09,0.34-0.19,0.69-0.28,1.03   c-0.03,0.16-0.05,0.18,0.07,0.31c-0.15,0.64-0.3,1.29-0.44,1.93c-0.06,0.7-0.12,1.39-0.17,2.09c-0.39,0.39-0.54,1.04-0.69,1.56   c-0.21,0.13-0.55,0.86-0.55,1.11c-0.59,0.72-1.18,1.43-1.76,2.15c-0.17,0.21-1.28,1.37-1.42,1.32c-0.33-0.12-0.59-0.17-0.94-0.17   c-0.44-0.44-1.49-1.28-1.54-1.96c-0.41-0.38-0.82-0.75-1.24-1.13c-0.33-0.38-0.65-0.77-0.98-1.16c-0.05-0.27-0.11-0.53-0.16-0.8   c-0.23-0.38-0.46-0.75-0.7-1.13c-0.15-0.41-0.29-0.83-0.44-1.24c-0.4-0.67-0.79-1.35-1.19-2.02c-0.08-0.53-0.17-1.06-0.25-1.58   c-0.14-0.21-0.27-0.41-0.41-0.62c-0.34-0.58-0.69-1.17-1.03-1.75c-0.16-0.26-0.32-0.52-0.48-0.78c-0.64-0.99-1.16-1.9-1.47-3.03   c-0.42-0.08-1.19,0.07-1.33-0.35c-0.04-0.06-0.07-0.11-0.11-0.17c0.12-0.27,0.21-0.24,0-0.51c0.13-0.05,0.27-0.09,0.4-0.14   c-0.25-0.63-1.03-1.7-1.54-2.13c-0.34-0.21-0.69-0.41-1.03-0.62c-0.58-0.41-1.04-1.03-1.75-1.24c-0.17-0.31-0.34-0.62-0.52-0.93   c-0.29-0.29-0.57-0.59-0.86-0.88c-0.12-0.22-0.25-0.44-0.37-0.66c0-1.17-0.61-1.83-1.09-2.85c-0.15-0.32-0.43-0.81-0.77-0.96   c-0.28-0.53-0.57-1.04-1.03-1.44c-0.21,0.14-0.28,0.15-0.31,0.41c-0.27,0.05-0.53,0.1-0.79,0.16c-0.22-0.19-0.43-0.38-0.65-0.57   c0-0.3,0.95-0.15,0.74-0.58c-0.28-0.39-0.56-0.78-0.84-1.17c-0.11-0.5-0.07-1.06-0.51-1.34c-0.16,0.07-0.31,0.15-0.47,0.22   c-0.23-0.18-0.74-0.06-0.87,0.19c0.04-0.09,0.08-0.18,0.12-0.27c0.16-0.49-0.21-1.81-0.76-1.92c-0.3-0.05-1.28-0.28-1.12,0.23   c0-0.24,0-0.48,0-0.72c-0.13-0.55-0.78-1.12-1.19-1.48c-0.39-0.43-0.79-0.87-1.18-1.3c-0.44-0.44-0.86-0.66-1.33-1.03   c-1.03-0.82-1.85-1.52-2.97-2.08c-0.64-0.32-2.4-1-3.01-0.39c-0.15,0.06-0.3,0.12-0.45,0.18c-0.09,0.24-0.18,0.48-0.27,0.73   c0,0.51,0.39,0.89,0.41,1.35c-0.22-0.46-1.09,0.22-1.65,0c-0.18,0.04-0.62,0.53-0.62,0.41c0.11-0.27,0.16-0.2,0.31-0.56   c0.06-0.73-0.13-0.45,0-1.71c0.27-0.27-0.78-1.23-1.12-1.5c-0.59-0.46-1.18-0.92-1.76-1.39c-0.45-0.21-0.89-0.41-1.34-0.62   c-0.74-0.12-2.69-0.77-1.65,0.21c-1.25-0.74-0.44,0.29-2.88-0.82c-1.04-0.5-2.19-0.55-3.19-1.24c-0.39-0.05-0.43-0.37-0.82-0.41   c-0.36-0.33-1.08-0.39-1.44-0.72c-0.97-0.46-1.94-0.92-2.9-1.39c-0.43-0.17-1.26-0.32-1.42-0.78c-0.49-0.19-0.97-0.37-1.46-0.56   c-1.07-0.38-2.1-0.62-3.17-0.88c-0.31-0.1-0.62-0.21-0.93-0.31c-0.34-0.04-1.31,0.08-1.54,0.31c-0.35-0.09-0.7-0.13-1.03-0.25   c-0.45-0.29-0.89-0.59-1.34-0.89c-0.58-0.24-1.17-0.48-1.75-0.72c-0.2-0.35-0.36-0.46-0.73-0.59c-0.24-0.08-0.93,0.29-1.12,0.49   c-0.07-0.03-0.14-0.07-0.21-0.1c-0.17-0.07-0.34-0.14-0.52-0.21c0.22-0.22,0.59-1.01,0.47-1.21c-0.49-0.8-1.21-1.4-1.91-1.88   c-0.47-0.33-1.04-0.41-1.38-0.94c-0.22-0.34,0.26-0.7-0.16-0.92c-0.18-0.2-0.39-0.35-0.41-0.62c-0.68-0.48-1.61-1-2.47-1.03   c-0.65,0.03-1.3,0.07-1.96,0.1c-0.2-0.2-0.54-0.21-0.82-0.21c-0.55-0.55-2.95-1.19-3.81-1.13c-0.45-0.45-0.7-0.31-1.24-0.23   c-0.11,0.02,0.24,0.86-0.51,0.74c-0.21-0.03-0.75,0.08-0.93,0c0.14-0.13,0.45-0.24,0.37-0.39c-0.12-0.18-0.25-0.36-0.37-0.54   c-0.18,0-1.1,0.2-1.14,0.08c-0.31-0.89-1.39-1.6-1.85-2.45c-0.14-0.27-0.28-0.15-0.41-0.31c0.38-0.21,0.68-0.6,1.13-0.62   C407.43,194.57,407.6,194.43,407.78,194.3z"/>
            <circle cx="458.55" cy="215.26" r="1.586"/>
        </g>
        <g id="__Gazipaşa">
            <path d="   M495.22,260.07c0.14,0.05,1.25-1.1,1.42-1.32c0.59-0.72,1.18-1.43,1.76-2.15c0-0.26,0.34-0.98,0.55-1.11   c0.15-0.53,0.29-1.17,0.69-1.56c0.06-0.7,0.12-1.39,0.17-2.09c0.15-0.64,0.3-1.29,0.44-1.93c-0.13-0.13-0.1-0.14-0.07-0.31   c0.09-0.34,0.19-0.69,0.28-1.03c0-0.34,0-0.69,0-1.03c0.15-0.75,0.69-1.27,0.93-1.96c0.27-0.51,0.55-1.03,0.82-1.54   c0.31-0.58,0.63-1.16,0.94-1.74c0.34-0.69,0.68-1.38,1.01-2.07c0.65-0.79,1.3-1.58,1.96-2.37c0.59-0.37,1.18-0.74,1.77-1.1   c0.58-0.18,1.15-0.36,1.73-0.54c0.58-0.31,1.17-0.62,1.75-0.93c0.53-0.18,1.06-0.36,1.58-0.54c0.63-0.23,0.79-1.51,0.79-2.14   c0.07-0.1,0.14-0.21,0.21-0.31c-0.02-0.27-0.04-0.55-0.06-0.82c0.12-0.48,0.24-0.96,0.37-1.45c0.17-1.68,0.34-3.36,0.52-5.05   c0.49-0.68,0.98-1.37,1.47-2.05c0.13-0.17,0.26-0.35,0.39-0.52c0.21-0.48,0.41-0.96,0.62-1.44c0.22-0.3,0.44-0.6,0.65-0.9   c0.26-0.32,0.53-0.64,0.79-0.95c0.14-0.14,0.15-0.26,0.31-0.1c0.27-0.31,0.55-0.62,0.82-0.93c0.38-0.31,0.76-0.62,1.13-0.93   c0.55-0.31,1.1-0.62,1.65-0.93c0.75-0.27,1.51-0.55,2.27-0.82c0.78-0.19,1.56-0.38,2.34-0.56c1.54-0.51,3.03-1.49,4.37-2.4   c0.75-0.51,1.49-0.93,2.35-1.16c0.02-0.24,0.16-0.3,0.29-0.49l-0.11,0.6c0.59,0.21,1.41,2.05,1.57,2.88   c1.27,1.44,2.54,2.88,3.81,4.33c0.15,1.15-0.06,2.21-0.21,3.4c-0.03,0.69-0.07,1.37-0.1,2.06c0.22,0,0.21,0.82,0.21,1.03   c-0.03,0.41-0.07,0.83-0.1,1.24c0.19,0,0.19,0.54,0.21,0.72c0.04,0.33,0.08,0.67,0.12,1c0.66,1.36,1.08,2.69,1.53,4.15   c0.21,0.68,0.42,1.37,0.62,2.05c0.49,0.83,0.98,1.67,1.46,2.5c0.31,0.15,1.21,1.4,1.34,1.74c0.34,1.06,0.69,2.13,1.03,3.19   c0.29,0.61,0.57,1.22,0.86,1.83c0.14,0.2,0.27,0.41,0.41,0.61c0.32,0.62,0.65,1.25,0.97,1.87c0.34,2.03,0.69,4.05,1.03,6.08   c-0.22,1.12-0.21,2.47-0.1,3.6c0.07,0.34,0.14,0.69,0.21,1.03c0,0.62,0,1.24,0,1.85c-0.02,0.35,0.29,2.55,0.41,2.68   c0,0.33,0.14,1.89,0.31,2.06c0.1,1.03,0.21,2.06,0.31,3.09c-0.12,0.55-0.25,1.1-0.37,1.66c-0.05,0.29-0.23,1.91-0.14,2.05   c-0.25,0.62-0.49,1.24-0.74,1.86c-0.27,0.65-0.54,1.3-0.81,1.95c-0.63,0.36-1.25,0.72-1.88,1.08c-0.28,0.09-0.88,0.23-0.9,0.57   c-0.06,0.92-0.1,1.66,0.21,2.57c-0.21,0.69-0.41,1.37-0.62,2.06c-0.03,0.36-0.3,0.75-0.52,1.03c-0.03,0.45-0.07,0.89-0.1,1.34   c-0.08,0.86,0.26,1.63,0.31,2.47c0.03,1.06,0.07,2.13,0.1,3.19c-0.17,1.12-0.34,2.24-0.51,3.35c-0.06,0.58,0.16,1.03,0,1.59   c0.37,0.37,0.21,1.37,0.21,1.85c0,0.89,0,1.79,0,2.68c-0.27,0.48-0.55,0.96-0.82,1.44c0.29,0.29-0.17,0.86-0.39,1.08   c-0.04,0.05-0.09,0.1-0.13,0.16c-0.38,0.07-0.76,0.14-1.13,0.21c-0.17,0.1-0.34,0.21-0.51,0.31c-0.1,0.21-0.21,0.41-0.31,0.62   c-0.07,0.01-0.14,0.01-0.21,0.02c-1.04,0.08-1.86,0.05-2.88-0.23c-0.22,0.24-0.14,0.35-0.42,0.14c-0.25-0.17-0.42-0.3-0.64-0.1   c-0.04,0.01-0.08,0.02-0.12,0.02c-0.34-0.29-0.35-0.73-0.6-1.12c-0.33-0.3-0.67-0.6-1-0.9c-0.54-0.03-0.8,0.3-1.34,0.1   c-0.16-0.4-0.41-0.74-0.72-1.03c-0.38,0.1-0.76,0.21-1.13,0.31c0.07-0.24,0.14-0.48,0.21-0.72c-1.1-0.43-1.08-0.91-1.89-1.62   c-0.31-0.27-0.24-0.13-0.59-0.13c-0.27-0.82-0.34-0.31-0.93-0.62c-0.05-0.72-0.57-1.22-1.03-1.75c-0.53,0-0.86-0.32-1.35-0.49   c-0.24-0.08-0.21,0.38-0.38,0.21c-0.24-0.23-0.44-0.37-0.74-0.24c-0.1-0.27-0.21-0.55-0.31-0.82c-0.38-0.09-0.76-0.18-1.14-0.26   c-0.5-0.74-1.06-1.12-1.79-1.64c-0.39-0.28-0.29-0.2-0.68-0.05c-0.16-0.48-0.27-0.2-0.52-0.52c0.07-0.35,0.33-0.82,0.04-1.06   c-0.59-0.43-0.44-0.28-1.07-0.28c-0.48-0.14-0.96-0.27-1.44-0.41c-0.27,0.07-0.55,0.14-0.82,0.21c0-0.56-0.73-0.9-0.93-1.34   c-0.24-0.07-0.48-0.14-0.72-0.21c-0.13-0.16-0.26-0.33-0.39-0.49c-0.07-0.63-0.22-0.83-0.64-1.16c0.03-0.27,0.07-0.55,0.1-0.82   c-0.14-0.03-0.27-0.07-0.41-0.1c-0.19-0.48-0.37-0.9-0.87-1.11c-0.15-0.24-0.3-0.48-0.46-0.73c-0.07-0.28-0.15-0.56-0.22-0.84   c-0.45-0.31-0.89-0.62-1.34-0.93c-0.17-0.27-0.34-0.55-0.51-0.82c-0.26,0-0.51-0.3-0.62-0.52c-0.55-0.24-1.1-0.48-1.65-0.72   c-0.15-0.25-0.3-0.5-0.45-0.75c-0.34-0.2-0.66-0.31-1.06-0.27c-0.64-0.55-1.34-0.85-1.99-1.46c-0.67,0.15-1.06-0.18-1.63-0.51   c-0.19-0.1-0.37-0.2-0.56-0.3c-0.06-0.38-0.12-0.77-0.19-1.15c-0.39-0.39-0.48-0.96-0.72-1.44c-0.45-0.69-0.89-1.37-1.34-2.06   c-0.44-0.12-0.01,0.03-0.62-0.21c-0.03-0.38,0.03-0.34,0-0.72c0.37-0.57,0.06-0.09,0.22-0.34c0.25-0.77-0.01-1.5-0.01-2.23   c-0.15-0.26-0.31-0.51-0.46-0.77c-0.1-0.2,0.04-0.3,0.15-0.47c-0.1-0.34-0.21-0.69-0.31-1.03c-0.27-0.29-0.54-0.59-0.8-0.88   c-0.63-0.68-1.12-1.3-1.8-1.96c-0.96-0.93-1.26-1.13-1.67-1.66c-0.09-0.11-0.17-0.23-0.26-0.34L495.22,260.07z"/>
            <circle cx="505.72" cy="269.22" r="1.586"/>
        </g>
        <g id="__Gündoğmuş">
            <path d="   M419.93,184.51c0.66-0.58,1.92-1.01,1.96-2.05c-0.02-0.61-0.31-1.45,0.13-1.92c0.02-0.08,0.05-0.17,0.07-0.25   c0.19-0.17,0.37-0.33,0.56-0.5c0.26-0.18,0.52-0.35,0.78-0.53c0.21-0.07,0.41-0.14,0.62-0.21c0.27-0.2,0.54-0.4,0.8-0.6   c0.49,0.1,0.97,0.19,1.46,0.29c0.68-0.08,1.26-0.31,1.96-0.31c0.41-0.17,0.82-0.34,1.24-0.52c0.31-0.07,0.62-0.14,0.93-0.21   c0.69-0.46,0.46-1.03,1.54-1.03c0.27-0.41,0.55-0.82,0.82-1.24c0.17-0.1,0.34-0.21,0.52-0.31c0.68-0.22,1.34-0.46,2.06-0.51   c0.24,0,0.48,0,0.72,0c0.35,0.35,0.63,0.18,0.93-0.1c0.14,0.03,0.27,0.07,0.41,0.1c0.37-0.09,0.67-0.47,0.93-0.72   c0.53,0.04,1.04-0.34,1.24-0.82c0.2,0,0.4,0,0.6-0.01c0.54,0.05,1.31,0.08,1.97,0.21c0.17,0.1,0.34,0.21,0.51,0.31   c0.38,0,0.76,0,1.13,0c0.73-0.04,1.96-0.61,2.57-0.1c0.37-0.02,0.74-0.04,1.12-0.06c0.29,0.14,0.33,0.31,0.53,0.48   c0.25,0.24,0.51,0.48,0.76,0.72c0.19,0.27,0.23,0.48,0.47,0.72c0.34,0,1.01,0.46,1.24,0.72c0.27-0.37,0.33-0.49,0.82-0.62   c0.22,0.16,0.44,0.32,0.65,0.48c0.26,0.09,0.43-0.12,0.69-0.17c0.52,0.03,1.03,0.07,1.54,0.1c0.76,0.76,1.85,0.37,2.78,0.57   c0.52,0.11,0.8,0.4,1.24,0.67c0.34,0.21,0.96,0.21,1.34,0.21c0.31,0.2,0.93,0.59,1.34,0.51c0.14-0.07,0.27-0.14,0.41-0.21   c0.36-0.11,0.71,0.16,1.03,0c0.24,0.14,0.45,0.43,0.72,0.41c0.26,0.53,0.44,0.44,0.82,0.82c0.1,0.14,0.21,0.27,0.31,0.41   c0.45,0.34,0.89,0.69,1.34,1.03c0.21,0.41,0.41,0.82,0.62,1.24c0,0.4,0.14,0.65,0.41,0.93c0.07,0.24,0.14,0.48,0.21,0.72   c0.14,0.07,0.27,0.14,0.41,0.21c0.45,0.45,0.91,0.9,1.36,1.35c0.43,0.6,0.74,1.5,1.53,1.74c0.17,0.21,0.24,0.36,0.52,0.41   c0.31,0.31,0.97,1.1,1.34,1.13c0.23,0.25,0.39,0.55,0.72,0.62c0.34,0.46,0.69,1.14,1.34,1.13c1.55,1.61,3.13,2.3,5.36,2.57   c0.2,0.2,0.74,0.21,1.03,0.28c0.93,0.23,1.63,0.49,2.57,0.34c0.42,0.21,0.8,0.23,1.24,0.31c0.91,0.17,1.65,0.53,2.57,0.41   c0.21,0.21,0.63,0.1,0.91,0.17c0.62,0.15,2.04,0.69,2.59,0.45c0.86,0.34,1.72,0.69,2.57,1.03c1.1-0.03,2.2-0.07,3.3-0.1   c1.34,0.03,2.68,0.07,4.02,0.1c0.26-0.02,0.64-0.02,0.82-0.21c0.79,0,1.39-0.22,2.15-0.32c0.27-0.21,2.03-1.05,2.28-0.91   c0.62-0.37,1.23-0.74,1.85-1.11c0.45-0.17,1.03-0.17,1.34-0.55c0.64-0.72,1.29-1.43,1.93-2.15c0.14-0.73,0.99-1.31,1.4-1.89   c0.88-0.96,1.77-1.91,2.65-2.87c0.86-0.81,1.72-1.63,2.58-2.44c0.55-0.31,1.1-0.62,1.65-0.93c0.62-0.6,1.38-1.01,2.06-1.54   c0.69-0.45,1.37-0.89,2.06-1.34c0.35-0.35,1.12-0.93,1.65-0.93c0.35-0.35,0.64-0.46,1.12-0.44l-0.92-0.48   c-0.24-0.34-0.48-0.69-0.72-1.03c-0.62-0.59-1.23-1.17-1.85-1.76c-0.29-0.29-0.96-0.66-1.03-1.02c-1.27-0.17-2.54-0.34-3.81-0.52   c-0.58-0.11-1.17-0.22-1.75-0.33c-1.54-0.75-3.09-1.49-4.63-2.24c-1.27-1.27-2.54-2.54-3.81-3.81c-2.04-2.08-3.64-5.25-4.74-7.93   c-0.17-0.79-0.34-1.58-0.52-2.37c-0.14-0.34-0.27-0.69-0.41-1.03c-0.24-0.34-0.48-0.69-0.72-1.03c-0.08-0.19-0.17-0.39-0.25-0.58   c-0.4-0.55-0.87-1.03-1.09-1.69c-0.17-0.31-0.34-0.62-0.51-0.93c-0.82-0.96-1.65-1.92-2.47-2.88c-0.27-0.45-0.55-0.89-0.82-1.34   c-0.41-0.53-1.18-1.04-1.24-1.75c-1.22-1.34-2.7-2.18-4.08-3.29c-0.63-0.48-1.26-0.97-1.89-1.45c-1.45-1.75-3.15-2.72-4.92-4.05   c-0.63-0.47-1.8-1.54-2.59-1.62c-0.35-0.28-1.43-0.88-1.54-1.24c-0.34-0.09-0.67-0.17-1.01-0.26c-0.25-0.12-0.5-0.24-0.74-0.36   c-0.47-0.42-1.38-1.34-1.65-1.85c-0.21-0.21-0.41-0.41-0.62-0.62c-0.15-0.2-0.3-0.39-0.44-0.59c-0.5-0.49-1.01-0.98-1.52-1.46   c-0.56-0.47-1.11-0.94-1.67-1.41c-0.09-0.25-0.19-0.51-0.28-0.76c-0.83-1.25-1.55-2.92-2.78-3.81c-0.45-0.45-0.89-0.89-1.34-1.34   c-0.92-1.41-1.85-2.82-2.77-4.23c-0.45-0.58-0.9-1.16-1.35-1.74c-0.38-0.31-0.76-0.62-1.13-0.93c-0.37-0.27-1.29-0.74-1.44-1.13   c-0.89-0.55-1.78-1.1-2.67-1.65c-0.42,0.03-1.42-0.89-1.65-1.23c-0.19-0.08-1.34-0.74-1.34-0.41c-0.01,0.75-0.02,1.5-0.03,2.25   c0.01,0.69,0.02,1.38,0.03,2.07c0,1.06,0.07,2.09-0.21,3.09c0,0.45,0,0.89,0,1.34c0.03,1.03,0.07,2.06,0.1,3.09   c0.13,1.08-0.12,2.13-0.2,3.19c0,0.96,0,1.92-0.01,2.88c-0.01,1.02-0.02,2.05-0.03,3.07c0.05,0.38,0.1,0.77,0.15,1.15   c0.01,0.54-0.07,1.82,0.19,2.27c-0.07,0.55-0.28,1.67-0.1,2.16c-0.36,0.65-0.49,1.42-0.6,2.16c-0.28,0.55-0.56,1.1-0.84,1.65   c0.03,0.07,0.07,0.14,0.1,0.21c-0.05,0.13-0.1,0.26-0.15,0.39c-0.11,0.3-0.47,0.71-0.37,1.05c-0.54,1.23-1.19,2.5-2.06,3.5   c-0.45,0.45-0.89,0.89-1.34,1.34c-1.17,0.79-2.33,1.58-3.5,2.37c-0.21,0.51-0.41,1.03-0.62,1.54c-0.22,0.42-0.44,0.84-0.66,1.26   c-0.14,0.67-0.27,1.34-0.41,2.01c-0.19,0.45-0.38,0.91-0.58,1.36c-0.38,1.06-1.59,2.04-2.45,2.71c-0.03,0.21-1.56,1.71-1.84,2.04   c-0.49,0.58-0.98,1.15-1.47,1.73c-0.49,0.47-1.08,0.72-1.54,1.24c-0.36,0.4-0.81,1.24-1.44,1.24c-0.1,0.07-0.21,0.14-0.31,0.21   c-0.48,0.45-0.96,0.89-1.44,1.34c-1.37,0.76-2.75,1.51-4.12,2.27c-0.68,0.19-1.52,0.49-2.06,0.93c-0.44,0.36-1.95,0.78-2.06,1.34   c-0.9,0.32-1.8,0.65-2.71,0.97l-0.32,0.39c-0.28,0.74-0.55,1.47-0.83,2.21c-0.19,1.18-0.38,2.36-0.57,3.54   c-0.28,1.3-0.56,2.61-0.85,3.91c-0.06,0.51-0.12,1.03-0.18,1.54c0.03,0.31,0.07,0.62,0.1,0.93c0.01,0.19,0.14,0.81,0.18,0.8   L419.93,184.51z"/>
            <circle cx="459.17" cy="167.37" r="1.586"/>
        </g>
        <g id="__Konyaaltı">
            <path d="   M257.47,155.93c-0.13-0.18-0.23-0.28-0.06-0.46c-0.17-0.31-0.34-0.62-0.51-0.93c0.1-0.07,0.21-0.14,0.31-0.21   c0.31-0.32,0.7-0.05,1.03-0.41c0.2-0.49,0.15-1.11,0.28-1.62c0.04-0.68,0.15-1.02,0.24-1.47l-0.41,0.21   c-0.24-0.24-1.59-0.07-1.96,0c-0.32,0.06-0.84,0.02-1.03-0.21c-0.17,0.1-0.34,0.21-0.51,0.31c-0.47,0.04-1.81,0.32-2.16,0   c-0.51,0.14-0.95,0.3-1.46,0.45c-0.24,0.07-0.69,0.19-0.9,0.07c-0.28,0.12-0.96,0.43-1.03,0.72c-0.27-0.07-0.39-0.04-0.52-0.31   c-0.51,0.07-1.03,0.14-1.54,0.21c-0.44,0.03-1.43-0.37-1.44-0.82c-0.09-0.79-0.18-1.57-0.27-2.36c-0.05-0.34-0.29-0.75-0.04-1.04   c-0.04-0.16-0.24-0.62-0.12-0.62l-0.5-0.21c-0.25-0.25-0.85-0.63-0.68-1.01c0.02-0.11,0.04-0.22,0.06-0.33   c0.31-0.31,0.62-0.62,0.93-0.93c-0.05-0.23-0.11-0.47-0.16-0.7c-0.15-0.25-0.3-0.49-0.45-0.74c0-0.27,0.11-0.87-0.13-0.99   c-0.28-0.15-0.69-0.33-1-0.2c-0.52,0.26-1.04,0.52-1.55,0.79c-0.27,0-0.55,0-0.82,0c-0.32-0.21-0.53-0.42-0.91-0.42   c-0.14,0.04-0.28,0.07-0.42,0.11c-0.49-0.02-1.41,0.01-1.75-0.21c-0.32-0.21-1.54-0.41-1.54-0.93c0-0.43,0.19-1.21-0.05-1.51   c-0.08-0.08-0.17-0.16-0.25-0.24c-0.35,0.06-0.57,0.06-0.82,0.31c-0.51-0.22-0.95-0.44-1.34-0.82c-0.17-0.27-0.34-0.55-0.51-0.82   c-0.24-0.07-0.48-0.14-0.72-0.21c-0.22-0.05-1.77-0.17-1.34-0.62l-0.62,0.38c-1.81,1.09-3.64,2.34-5.25,3.74   c-0.62,0.45-1.24,0.89-1.85,1.34c-1.34,1-2.68,1.99-4.02,2.99c-1.49,1.58-2.38,3.58-3.71,5.25c-0.81,1.02-0.31,2.54-0.31,3.71   c-0.24,0.31-0.48,0.62-0.72,0.93c-0.24,0.21-0.48,0.41-0.72,0.62c-0.11,0.8-0.37,1.47-0.62,2.27c-0.19,0.63,0.31,1.66-0.21,2.16   c0.07,0.31,0.14,0.62,0.21,0.93c-0.17,0.17-0.04,0.49,0,0.72c0.08,0.21,0.17,0.42,0.25,0.64c0.3,0.16,0.18,0.55,0.23,0.85   c0.17,0.74,0.33,1.48,0.5,2.22c0.09,0.75,0.17,1.51,0.26,2.26c-0.05,0.47-0.1,0.95-0.15,1.42c0.02,0.9,0.03,1.8,0.05,2.7   c0.17,0.65,0.34,1.3,0.51,1.96c0.15,0.23,0.29,0.47,0.44,0.7c0.31,0.46,0.62,0.92,0.93,1.38c0.36,0.16,0.98,1.28,1.06,1.65   c0.29,1.47,0.58,2.93,0.87,4.4c0.14,0.45,0.27,0.89,0.41,1.34c0.21,0.65,0.41,1.3,0.62,1.96c0.21,0.55,0.41,1.1,0.62,1.65   c0.1,0.65,0.21,1.3,0.31,1.96c0.19,1.1,0.3,2.12,0.61,3.19c0.09,0.35,0.18,0.7,0.26,1.06l-0.05,0.17c0.54-0.06,1.09-0.12,1.64-0.18   c0.33-0.1,0.64-0.36,0.94-0.22c0.21-0.17,0.41-0.34,0.62-0.51c0.76-0.9,1.46-3.12,2.39-3.57c0.54-0.24,2.31-0.49,2.76-0.04   c0.69-0.03,1.37-0.07,2.06-0.1c0.58,0,1.33,0.31,1.83,0.07c0.77-0.37,1.62-1.13,1.85-2.05c0.08-0.37,0.15-0.74,0.23-1.11   c0.51-0.82,0.81-2.32,0.82-3.3c0.01-0.75,0.57-1.63,0.93-2.27c0.08-0.16,0.15-0.33,0.23-0.49c-0.07-0.38,0.27-0.92,0.5-1.2   c-0.03-0.42,0.69-1.51,1.02-1.81c0.38-0.31,0.76-0.62,1.13-0.93c0.21-0.1,0.41-0.21,0.62-0.31c0.27-0.01,0.52-0.07,0.72,0.1   c0.45-0.05,0.9-0.1,1.34-0.15c0.32-0.04,0.79-0.19,1.03,0.05c0.16-0.06,0.41-0.22,0.42-0.11l0.49-0.32   c0.08-0.17,0.15-0.34,0.23-0.51c0.04-0.59-0.02-1.15,0.14-1.73c-0.05-0.34-0.09-0.68-0.14-1.02c0-0.5,0.26-1.01-0.1-1.37   c0.11-0.26,0.22-0.36,0.1-0.62c0.17-0.37,0.51-1.03,0.93-1.13c0.2-0.69,0.72-1.07,1.06-1.69c0.16-0.36,0.32-0.73,0.48-1.09   c0.06-0.36-0.01-0.71,0.21-1.03c0.44-0.63,0.62-0.36,0.62-1.24c0,0.13,0.14,0.89,0.26,0.77c0.5-0.64,1-1.27,1.49-1.91   c-0.03-0.17-0.07-0.34-0.1-0.51c1.09-0.3,1.06-0.89,1.75-1.65c0.63-0.69,1.39-1.2,2.06-1.85c0.26-0.25,0.42-0.71,0.82-0.72   c0.25-0.33,0.5-0.67,0.75-1c0.59-0.65,1.86-0.65,2.34-1.47L257.47,155.93z"/>
            <circle cx="249.59" cy="157.89" r="1.586"/>
        </g>
        <g id="__Kemer">
            <path d="   M230,245.2c-0.99-0.48-2.01-0.97-2.96-1.57c-1-0.86-1.99-1.72-2.99-2.57c-0.53-0.47-0.78-1.06-1.16-1.64   c-0.07-0.1-0.39-0.66-0.39-0.42c-0.05-0.72-0.15-2.13-0.82-2.57c-0.44-1.47-1.04-2.95-1.8-4.3c-0.4-0.81-0.81-1.61-1.21-2.42   c-0.39-0.64-1.8-2.18-1.41-2.96c-0.15-0.47-0.31-1.12-0.16-1.61c0.08-0.27,0.25-0.7,0.47-0.86c0.25-0.79,0.5-1.41,1.24-1.85   c0.41-0.25,0.58-0.84,1.03-1.03c0.51-0.62,1.03-1.24,1.54-1.85c0.54-0.66,1.07-1.32,1.61-1.99c0.19-0.3,0.37-0.6,0.56-0.9   c0.14-0.38,0.27-0.76,0.41-1.13c0.14-0.4-0.17-1.06,0.21-1.34c-0.1-0.64-0.17-1.55,0.31-2.06c0.07-0.38,0.14-0.76,0.21-1.13   c-0.2-0.94-0.91-1.81-0.93-2.78c-0.28-0.28-1.25-1.99-1.24-2.37c-0.31-0.42-0.62-0.85-0.93-1.27c-2-2.05-2.43-4.19-1.38-6.86   c0.35-1.14,0.71-2.27,1.07-3.41c0.54-0.06,1.09-0.12,1.64-0.18c0.33-0.1,0.64-0.36,0.94-0.22c0.21-0.17,0.41-0.34,0.62-0.51   c0.76-0.9,1.46-3.12,2.39-3.57c0.54-0.24,2.31-0.49,2.76-0.04c0.69-0.03,1.37-0.07,2.06-0.1c0.58,0,1.33,0.31,1.83,0.07   c0.77-0.37,1.62-1.13,1.85-2.05c0.08-0.37,0.15-0.74,0.23-1.11c0.51-0.82,0.81-2.32,0.82-3.3c0.01-0.75,0.57-1.63,0.93-2.27   c0.08-0.16,0.15-0.33,0.23-0.49c-0.07-0.38,0.27-0.92,0.5-1.2c-0.03-0.42,0.69-1.51,1.02-1.81c0.38-0.31,0.76-0.62,1.13-0.93   c0.21-0.1,0.41-0.21,0.62-0.31c0.27-0.01,0.52-0.07,0.72,0.1c0.45-0.05,0.9-0.1,1.34-0.15c0.32-0.04,0.79-0.19,1.03,0.05   c0.16-0.06,0.41-0.22,0.42-0.11c0.07,0.28,0.15,0.55,0.22,0.83c-0.16,0.4-0.16,0.8-0.23,1.23c-0.05,0.34,0.08,0.62-0.21,0.83   c0.17,0.41,0.47,0.75,0.31,1.24c-0.08,0.25-0.2,0.68-0.41,0.82c-0.21,0.73-0.7,2.37-0.62,3.09c0.12,1.08,0.85,1.95,1.34,2.88   c0.1,0.41,0.21,0.82,0.31,1.24c-0.55,1.5-0.49,3.08-0.62,4.63c-0.05,0.62-0.44,1.4-0.82,1.85c-0.23,0.27-0.1,0.63-0.41,0.82   c0,0.17,0,0.34,0,0.51c-0.21,0.24-0.41,0.48-0.62,0.72c-0.14,0.4-0.28,0.81-0.42,1.21c-0.03,0.21-0.06,0.43-0.09,0.64   c0.22,0.11,0.44,0.12,0.53,0.36c0.13,0.37,0.17,1.67-0.12,2.01c0,0.95,0.08,1.63-0.1,2.57c0.21,0.51,0.41,1.03,0.62,1.54   c0.41,0.58,0.82,1.17,1.22,1.75c0.18,0.16,0.31-0.02,0.48-0.15c0.22,0.09,0.44,0.17,0.67,0.26c-0.05,0.18-0.11,0.36-0.16,0.54   c0.17,0.09,0.3,0.1,0.37,0.28c0.3-0.02,0.62-0.11,0.82,0.1c0.26-0.12,0.51-0.24,0.77-0.36c0.16,0.15,0.33,0.31,0.49,0.46   c0.08,0.33-0.01,1.27-0.23,1.55c-0.21,0.24-0.41,0.48-0.62,0.72c0.17,0.28,0.52,1.65,0.4,1.71c-0.92,0.47-2.51,2.53-2.73,3.56   c-0.08,0.34,0.35,0.05,0.57-0.03c0.05,0.01,0.09,0.02,0.14,0.03c-0.36,0.08-0.37,0.2-0.54,0.5c-0.51-0.23-1.26,0.4-1.54,0.93   c-0.1,0.21-0.21,0.41-0.31,0.62c-0.1,0.36-0.36,1.73-0.01,1.78c0.2,0.06,0.4,0.13,0.6,0.19c0.04-0.04,0.09-0.07,0.13-0.11   c-0.07,0-0.14-0.01-0.2-0.01c-0.22-0.02-0.88-0.21-0.97,0.01c-0.08,0.2-0.18,0.32-0.06,0.51c-0.21,0.31-0.41,0.62-0.62,0.93   c0.07,0.03,0.14,0.07,0.21,0.1c0.03,0.17,0.07,0.34,0.1,0.51c-0.18,0.25-0.28,0.51-0.31,0.82c-0.02-0.19-0.07-0.92-0.2-0.94   c-0.22-0.01-0.81-0.02-0.92,0.11c-0.22,0.31-0.09,0.37-0.53,0.42c0.26,0.82,0.35,1.25,0,2.06c-0.17,0.39-0.85,1.12-0.51,1.54   c-0.21,0.17-0.21,0.23-0.52,0.21c-0.23,0.44-1.24,2.13-1.24,2.47c-0.2,0.26-0.74,0.79-0.62,1.13c-0.72,0.34-0.82,0.9-0.82,1.65   c-0.47,0.47-1.03,0.62-1.44,1.13c0.56,0.49,0.45,1,0.93,1.44c-0.14,0.72-0.27,1.44-0.41,2.16c-0.21,0.49,0.11,1.12-0.51,1.44   c-0.41,0.14-0.82,0.27-1.24,0.41c-0.35-0.11-0.7-0.22-1.06-0.33c-0.25-0.03-0.63-0.1-0.59,0.22c-0.31,0-0.72,0.72-0.67,0.77   c0.6,0.52,0.44,1.21,0.78,1.81c-0.43,1.06-0.86,2.12-1.29,3.18c-0.18,0.71-0.46,1.33-0.46,2.07   C230.22,245.32,230.11,245.26,230,245.2z"/>
            <circle cx="240.82" cy="207.46" r="1.586"/>
        </g>
        <g id="__Demre">
            <path d="   M167.71,265.98c0.12-0.26-0.02-0.52,0.21-0.72c-0.15-0.49-0.3-2.08-0.1-2.47c-0.16-0.18-0.42-0.58-0.41-0.82   c-0.54-0.68-1.07-1.37-1.61-2.05c-0.24-0.02-0.42-0.31-0.58-0.48c-0.52-0.14-1.26-1.04-1.62-1.49c-0.68-1.01-1.35-2.02-2.03-3.03   c-0.35-0.64-0.71-1.27-1.06-1.91c-0.2-0.89-0.55-1.64-0.93-2.47c-0.1-0.14-0.21-0.27-0.31-0.41c-0.07-0.17-0.14-0.34-0.21-0.52   c-0.34-0.48-0.69-0.96-1.03-1.44c-0.34-0.38-0.69-0.76-1.03-1.14c-0.89-0.41-1.79-0.82-2.68-1.24c-0.64,0.08-2.65,0.03-2.99,0.31   c-0.27-0.05-0.34-0.11-0.62,0c-0.58-0.17-1.17-0.34-1.75-0.52c-0.38-0.17-0.76-0.34-1.13-0.51l0.03,0.23   c-0.41,0.19-1.37,1.31-1.63,1.74c-0.39,0.41-0.79,0.81-1.18,1.22c-0.31,0.33-1.67,1.52-1.45,1.95c-0.34,0.55-0.68,1.1-1.02,1.65   c-0.13,0.57-0.25,1.15-0.38,1.73c-0.15,0.42-0.3,0.84-0.45,1.26c-0.43,0.46-1.37,1.7-1.53,2.27c-0.06,0.21-0.05,0.55,0.09,0.72   c-0.1,0.61-0.47,1.59-0.21,2.16c-0.1,0.58-0.21,1.17-0.31,1.75c-0.84,1.51-1.42,3.11-2.06,4.74c-0.27,0.45-0.55,0.89-0.82,1.34   c-0.11,0.17-0.27,0.31-0.21,0.52c-0.59,0.73-1.08,1.42-1.75,2.06c-0.07,0.17-0.14,0.34-0.21,0.52c-0.28,0.3-0.5,0.72-0.93,0.82   c-0.3,0.39-0.6,0.91-1.03,1.13c0.05,0.02,0.1,0.04,0.14,0.06c0.08,0.06,0.16,0.11,0.24,0.17c-0.34,0.16-0.67,0.33-1.01,0.49   c-0.34,0.19-0.19,0.83-0.62,0.82c-0.25,0.39-0.54,0.51-0.93,1.13c-0.21,0.34-0.41,0.69-0.62,1.03c-0.09,0.32-0.5,0.7-0.41,1.03   c-0.23,0.4-0.65,1.29-0.51,1.75c-0.13,0.14-0.22,0.33-0.41,0.31c0.03,0.45,0.07,0.89,0.1,1.34c-0.06,0.47-0.07,1.85,0.21,2.16   c-0.01,0.31,0.09,0.99,0.31,1.24c0.02,0.51,0.24,1.42,0.47,1.87c0.1,0.19,0.31,0.91,0.46,0.89c0.31-0.06,0.61-0.12,0.92-0.18   c0.14-0.15,0.22-0.44,0.11-0.63c0.84-0.1,0.96-0.14,1.13-0.93c0.24,0.09,1.27,0.44,1.3,0.39c0.22-0.43,0.44-0.85,0.67-1.28   c0.21-0.23,0.66-0.38,0.71-0.65c0.22-0.04,1.73-0.37,1.44-0.6c-0.1-0.08-0.35-0.4-0.35-0.4c-0.74,0.4-1.48,0.81-2.22,1.21   c-0.17,0-0.34,0-0.52,0c0.36-0.73,2.57-2.27,3.4-1.65c0.44-0.06,0.96-0.31,1.3-0.1c0.09,0.05,0.36,0.15,0.17,0.24   c-0.43,0.24-0.77,0.4-1.26,0.58c0.26,0.23,0.38,0.41,0.73,0.49c0.65,0.13,0.97-0.15,1.54-0.38c0.17,0,0.34,0,0.51,0   c0.33-0.08,0.73-0.36,1.03-0.1c0.78-0.28,1.06-0.39,1.53-1.07c0.27-0.4,0.72-0.51,0.99-0.92c0.07-0.14,0.13-0.29,0.2-0.43   c-0.17-0.15-0.98-0.62-0.87-0.88c-0.16-0.11-0.1-0.03-0.21-0.21c-0.04,0.02,0.04-0.23,0-0.21c1.66,0.14,1.12-0.57,2.06-0.52   c0.15,0.01,0.53-0.17,0.49-0.28c-0.09-0.23-0.18-0.46-0.28-0.7c-0.08-0.3,0.13-0.89-0.22-1.09c0.03-0.01,0.06-0.01,0.09-0.02   c0.71-0.14,2.71-0.33,2.71-1.11c-0.01-0.27,0.17-0.2,0.36-0.15c0.1-0.01,0.2-0.03,0.3-0.04c0.91,0.24,1.89,0.62,2.61,1.12   c-0.04,0.21-0.1,0.32,0,0.52c-0.14,0.07-0.68,0.22-0.4,0.37c0.4,0.2,1.31,1,1.53,0.14c0.31,0.1,0.61,0.2,0.92,0.3   c0.28,0.01,0.55,0.02,0.83,0.02c0.27,0.04,0.54,0.09,0.81,0.13c0.35-0.05,0.81-0.1,1.05-0.35c0.1,0.08,0.2,0.15,0.29,0.23   c0.11,0.13,0.22,0.26,0.32,0.39c0,0.16-0.31,0.52-0.11,0.51c0.48-0.02,0.93-0.14,1.35-0.41c-0.08-0.28-0.04-0.49-0.31-0.62   c0.02-0.02,0.03-0.04,0.05-0.06c0.86-0.92,2.45-1.41,3.55-2c0.83-0.58,1.65-1.15,2.48-1.73c0.34-0.28,0.68-0.56,1.02-0.84   c0.28-0.14,0.55-0.29,0.83-0.43c0.35-0.24,0.71-0.48,1.07-0.72c0.36-0.23,0.73-0.47,1.09-0.7c0.42-0.15,0.84-0.31,1.26-0.46   c0.32-0.1,0.64-0.19,0.96-0.29c-0.2-0.09-0.28-0.07-0.36-0.28c-0.26,0.03-0.47-0.02-0.62,0.21c-0.3-0.03-0.6-0.05-0.9-0.08   c-0.08,0.05-0.15,0.11-0.23,0.16c-0.34-0.05-0.86,0.08-1.03-0.29c-0.21,0.02-0.4,0.08-0.58-0.05c-0.27-0.2-0.47-0.25-0.36-0.53   c0.09-0.24,0.22-0.49,0.53-0.55c0.27-0.55,0.6-0.92,1.09-1.27c0.21,0.05,0.98-0.22,0.96-0.48   C167.7,267.52,167.36,266.75,167.71,265.98z"/>
            <circle cx="156.97" cy="273.41" r="1.586"/>
        </g>
        <g id="__Kaş">
            <path d="   M130.07,287.34c-0.34,0.29-1.04,0.6-0.93,1.07c0.04,0.13-0.01,0.25,0.15,0.18c0.48-0.23,0.97-0.46,1.45-0.68   c0.07,0.03,0.14,0.07,0.21,0.1c0.27,0,0.55,0,0.82,0c0.45-0.45,0.74-0.5,1.34-0.62c0,0.3,0.15,0.26-0.1,0.51   c-0.21,0.24-0.41,0.48-0.62,0.72c-0.38,0.07-0.82,0.15-0.82,0.62c-0.4,0-0.93,0.49-0.93,0.93c-0.37,0.37-0.78,0.63-1.03,1.13   c-0.21-0.21-0.59,0.13-0.76,0.32c-0.7,0.25-1.39,0.51-2.09,0.76c-0.46,0.33-0.91,0.65-1.37,0.98c-0.17-0.17-0.48-0.1-0.72-0.1   c0-0.54-1.09-0.37-1.41-0.33c-0.24-0.15-0.72-0.29-0.56-0.56c0.53-0.84,1.36-1.34,1.97-2.1c0.29,0,1.85-0.42,1.69-0.57   c-0.53-0.43-1.11-0.66-1.79-0.66c-0.55,0.34-1.1,0.69-1.65,1.03c-0.29,0-0.55,0.03-0.81-0.1c-0.11-0.07-0.21-0.14-0.32-0.21   c0-0.27-0.39-1.03-0.7-0.89c-0.11,0.12-0.22,0.25-0.33,0.37c-0.46,0.12-0.95,0.61-1.42,0.45c-0.08,0.02-0.15,0.04-0.23,0.06   c-0.15-0.24-0.69-1.37-0.93-1.13c-0.36-0.02-0.72-0.03-1.08-0.05c-0.12,0.09-0.24,0.17-0.36,0.26c-0.24,0.31-0.48,0.62-0.72,0.93   c0,0.48-0.04,0.73-0.31,1.13c-0.14,0.1-0.27,0.21-0.41,0.31c-0.44,0.29-1.25,0.05-1.34,0.72c-0.32-0.12-0.8-0.38-0.91-0.1   c-0.14,0.38-0.29,0.75-0.43,1.13c-0.27,0.27-0.62,0.51-0.62,0.93c-0.1,0.1-0.39,0.46-0.45,0.34c-0.23-0.49-0.45-0.98-0.68-1.47   c-0.15-0.46,0.03-1.12-0.41-1.44c-0.09-0.26-0.31-0.48-0.21-0.72c-0.03,0-0.07,0-0.1,0c-0.46,0-0.79,0.06-1.22,0.25   c-0.34,0.17-0.09,0.88-0.64,0.88c-0.56,0-0.84,0.02-1.2-0.43c-0.18-0.23-0.3-0.14-0.08-0.4c0.17-0.2,0.37-0.55,0.19-0.79   c-0.22-0.25-0.44-0.5-0.67-0.75c-0.29,0.02-0.58,0.03-0.87,0.05c-0.35-0.38-0.34-0.9-0.58-1.39c-0.65,0-1.77-0.43-1.4-1.11   c0.11-0.22,0.22-0.43,0.33-0.65c0.21-0.21,0.39-0.26,0.56-0.51c0.08-0.18,0.16-0.36,0.24-0.54c0.13,0.25,0.6,1.37,0.79,1.37   c0.6,0,0.74,0.48,0.89-0.33c0.05-0.1,0.09-0.19,0.14-0.29c-0.03-1.1,0.04-2.49-0.9-3.21c-0.32-0.2-0.64-0.4-0.95-0.6   c-0.21-0.07-0.41-0.14-0.62-0.21c-0.21,0.07-0.41,0.14-0.62,0.21c-0.35-0.05-0.59-0.12-0.93-0.11c-0.1-0.03-0.2-0.07-0.3-0.1   c-0.38,0.1-0.77,0.2-1.15,0.31c-0.3,0.34-0.61,0.69-0.91,1.03c0.02,0.18,0.13,0.62,0,0.62c-0.76,0.1-1.51,0.21-2.27,0.31   c-0.32,0.17-0.36,0.32-0.72,0.41c-0.21-0.21-1.3-0.52-0.64-0.95c0.11-0.09,0.22-0.19,0.33-0.28c0.35-0.12,0.86-0.15,0.93-0.62   c0.23-0.06,0.46-0.12,0.69-0.18c0.35-0.15,0.68-0.45,1.07-0.44c0.53-0.5,0.98-1.08,1.75-1.13c0.52-0.04,0.87,0.47,1.34,0.62   c0.33-0.09,1.24-0.61,1.54-0.31c-0.08-0.09-0.16-0.18-0.24-0.27c-0.11-0.12-0.22-0.25-0.32-0.37c-0.81-0.06-1.61-0.13-2.42-0.19   c-0.24,0.24-0.2,0.27-0.62,0.31c-0.65,0-1.3,0-1.96,0c-0.47,0.29-0.86,0.47-1.34,0.72c-0.31,0-0.62,0-0.93,0   c-0.24-0.24-1.11-0.65-1.44-0.62c-0.28-0.26-0.91-0.7-0.93-1.03c-0.89-0.01-1.78-0.02-2.67-0.04c-0.27-0.03-0.74-0.08-0.93-0.27   c-0.97,0.12-1.82,0.01-2.78-0.02c-0.35-0.01-1.7,0.12-1.85,0.43c-0.45,0.04-1.41-0.19-1.75,0.1c-0.35-0.08-0.7-0.17-1.04-0.25   c-0.54-0.12-1.09-0.24-1.63-0.37c-0.05-0.18-0.1-0.37-0.15-0.55c-0.1-0.21-0.11-0.28-0.35-0.26c-0.54,0.02-1.09,0.03-1.63,0.05   c-0.65-0.33-1.58-0.62-1.97-1.26c-0.21-0.06-0.71-0.56-0.74-0.76c-1.13-0.5-2.33-0.68-3.5-0.91c-0.69-0.14-1.24,0.91-1.75,0.91   c-0.2,0.13-0.42,0.44-0.6,0.19c-0.45-0.63-0.81-1.48-0.94-2.25c-0.03-0.41-0.07-0.82-0.1-1.24c0.23,0,0.43,0.38,0.58,0.08   c0.08-0.3,0.17-0.6,0.25-0.91c0.24-0.17,0.48-0.34,0.72-0.52c0.09-0.45,0.41-0.89,0.15-1.33c-0.14-0.21-0.14-0.09-0.04-0.42   c-0.31-0.03-0.62-0.07-0.93-0.1c-0.37,0.18-0.8,0.72-1.21,0.54c-0.27-0.12-1.5-1.04-1.54-1.01c-0.22,0.19-0.44,0.38-0.65,0.57   c-0.69-0.03-1.37-0.07-2.06-0.1c-0.25,0-0.72-0.17-0.72,0.1c-0.02,0.77,0.67,0.79,0.82,1.55c0.1,0.49-0.19,1.51-0.62,1.75   c-0.03,0.27-0.07,0.55-0.1,0.82c-0.45,0.45-0.82,1.19-1.54,1.24c-0.34,0.34-0.69,0.54-1.14,0.43c-0.66-0.69,0.09-0.73-0.41-0.95   c-0.58-0.45-1.17-0.89-1.75-1.34c-0.24-0.07-0.48-0.15-0.72-0.22c-0.17-0.2-0.34-0.4-0.51-0.6c-0.28,0.05-0.84,0-1.03-0.21   c-0.44,0.13-0.62,0.31-0.98-0.04c-0.19-0.2-0.63-0.75-0.67-0.98c-0.2-0.13-0.41-0.26-0.61-0.4c-0.62-0.49-1.04-1.19-1.55-1.77   c-0.62-0.58-1.24-1.17-1.85-1.75c-0.15-0.2-0.96-0.93-1.13-0.93c-0.1-0.16-0.21-0.41-0.41-0.41c0.03-0.07,0.07-0.14,0.1-0.2   c0.27-0.75,1.9-3.52,2.58-4.53c0.18-0.26,0.73-1.67,1.02-1.64c0.68,0.08,1.7,0.41,2.07-0.52c0.09-0.26,0.15-0.39,0-0.62   c0.14-0.24,0.27-0.48,0.41-0.72c-0.04-0.37-0.07-0.74-0.11-1.11c0.01-0.38,0.08-0.86-0.3-1.06c0.03-0.51,0.07-1.03,0.1-1.54   c0.38-0.4,0.94-0.87,0.74-1.45c-0.11-0.41-0.22-0.82-0.33-1.22c0.01-0.42,0.38-0.98,0.24-1.07c-0.25-0.17-1.23-0.47-0.93-1.03   c0.26-0.43,0.27-1.05,0.8-0.98c-0.12-0.52-0.19-0.8-0.1-1.34c0.4-0.43-0.84-0.36-0.31-0.82c0.22-0.05,0.92,0.25,1.65,0.21   c-0.44-0.05,0.07-0.2,0.21-1.03c0-0.03,0-0.07,0-0.1c-0.19-0.67-0.05-1.59,0.1-2.27c0.12-0.53,0.06-1.1,0.21-1.65   c0.25-0.51,0.5-1.02,0.75-1.53c0.44-0.73,0.87-1.45,1.31-2.18c0.79-0.62,1.58-1.24,2.37-1.85c1.34-0.65,2.68-1.3,4.02-1.96   c0.44,0.06,0.94,0.18,1.34-0.1c0.82-0.03,1.65-0.07,2.47-0.1c0.24,0.07,0.48,0.14,0.72,0.21c0.95,0.28,1.89,0.51,2.88,0.62   c1.24-0.17,2.47-0.34,3.71-0.51c0.41-0.1,0.82-0.21,1.24-0.31c0.76-0.41,1.51-0.82,2.27-1.24c0.17-0.14,0.34-0.27,0.51-0.41   c0.55-0.97,1.18-1.94,1.65-2.57c0.35-0.81,0.55-0.89,0.93-1.65c0.08-0.3,0.23-0.81,0.39-1.05c0.32-0.58,0.63-1.16,0.95-1.73   c0.18-0.18,0.36-0.35,0.55-0.53c0.4-0.51,0.8-1.02,1.2-1.53c0.32-0.37,1.01-0.75,1.13-1.24c1.3-1.18,2.66-2.28,4.02-3.4   c0.45-0.37,1.33-1.14,1.96-1.03c0-0.42,0.23-0.41,0.51-0.62c0.27-0.31,0.55-0.62,0.82-0.93c0.84-0.76,1.68-1.51,2.51-2.27   c0.5-0.48,1.26-1.02,2.02-1.02c0.61-0.89,0.87-1.89,1.36-2.86c0.18-0.36,0.57-0.78,0.59-1.16c0.43-0.3,2.08-1.65,2.47-1.65   c0.29-0.33,0.58-0.65,0.87-0.98c0.4-0.29,0.8-0.58,1.19-0.87c0.24-0.21,0.48-0.41,0.72-0.62c0.46-0.63,0.59-1.28,1.44-1.44   l-0.08,0.09c0.23,0.69,1.14,0.53,1.69,0.64c0.58,0.23,1.17,0.45,1.75,0.68c1.08,0.53,2.2,1.68,2.82,2.7   c0.53,0.57,1.07,1.14,1.6,1.7c0.63,1.01,1.27,2.02,1.9,3.03c-0.12,0.26,0.09,0.46,0.21,0.72c-0.18,0.45,0.19,0.8,0.41,1.13   c0.18,0.65,0.37,1.3,0.55,1.94c1.19,1.55,2.38,3.1,3.57,4.65c0.14,0.21,0.27,0.41,0.41,0.62c0.04,0.85,1.03,1.48,1.54,2.06   c0.11,0.52,0.59,1.05,0.93,1.44c0.27,0.38,0.55,0.76,0.82,1.13c0.7,0.91,1.41,1.81,2.11,2.72c0.12,0.19,0.24,0.38,0.36,0.58   c0.38,0.38,0.76,0.76,1.13,1.13c0.24,0.43,0.47,0.78,0.82,1.13c0.34-0.03,1.14,0.42,1.34,0.72c0.55,0.84,1.82,1.75,2.68,2.27   l0.41-0.01c0,0,0.81,0.45,1.24,0.62c1.23-0.73,2.75,0.15,3.8,1.04c0.76,0.86,1.52,1.71,2.28,2.57c-0.11,0.22,0.13,0.54,0.23,0.76   c0.25,0.51,0.33,1.06,0.66,1.57c0.46,0.43,0.92,0.85,1.37,1.28c0.36,0.55,0.71,0.93,1.24,1.34c0.34,0.52,0.69,1.03,1.03,1.54   l0.03,0.23c-0.41,0.19-1.37,1.31-1.63,1.74c-0.39,0.41-0.79,0.81-1.18,1.22c-0.31,0.33-1.67,1.52-1.45,1.95   c-0.34,0.55-0.68,1.1-1.02,1.65c-0.13,0.57-0.25,1.15-0.38,1.73c-0.15,0.42-0.3,0.84-0.45,1.26c-0.43,0.46-1.37,1.7-1.53,2.27   c-0.06,0.21-0.05,0.55,0.09,0.72c-0.1,0.61-0.47,1.59-0.21,2.16c-0.1,0.58-0.21,1.17-0.31,1.75c-0.84,1.51-1.42,3.11-2.06,4.74   c-0.27,0.45-0.55,0.89-0.82,1.34c-0.11,0.17-0.27,0.31-0.21,0.52c-0.59,0.73-1.08,1.42-1.75,2.06c-0.07,0.17-0.14,0.34-0.21,0.52   c-0.28,0.3-0.5,0.72-0.93,0.82c-0.3,0.39-0.6,0.91-1.03,1.13c0.05,0.02,0.1,0.04,0.14,0.06c0.08,0.06,0.16,0.11,0.24,0.17   c-0.34,0.16-0.67,0.33-1.01,0.49c-0.34,0.19-0.19,0.83-0.62,0.82c-0.25,0.39-0.54,0.51-0.93,1.13c-0.21,0.34-0.41,0.69-0.62,1.03   c-0.09,0.32-0.5,0.7-0.41,1.03c-0.23,0.4-0.65,1.29-0.51,1.75c-0.13,0.14-0.22,0.33-0.41,0.31c0.03,0.45,0.07,0.89,0.1,1.34   c-0.06,0.47-0.07,1.85,0.21,2.16c-0.01,0.31,0.09,0.99,0.31,1.24c0.02,0.51,0.24,1.42,0.47,1.87c0.1,0.19,0.31,0.91,0.46,0.89   L130.07,287.34z"/>
            <circle cx="104.79" cy="280.75" r="1.586"/>
        </g>
        <g id="__Finike">
            <path d="   M196.5,259.98c-0.08,0.14-0.16,0.29-0.24,0.43c-0.94-0.07-1.87-0.13-2.81-0.2c-0.07,0.1-0.14,0.21-0.21,0.31   c-0.31,0.1-0.62,0.21-0.93,0.31c-0.29-0.16-0.87-0.22-1.14-0.1c-0.51-0.1-1.02-0.21-1.53-0.31c-0.03,0.07-0.07,0.14-0.1,0.21   c-0.38-0.23-0.65-0.16-1.07-0.03c-0.27-0.12-0.55-0.24-0.82-0.36c-0.17-0.02-0.48-0.03-0.48,0.18c-0.12-0.09-0.24-0.18-0.35-0.27   c-0.25,0.25-0.39,0.54-0.71,0.71c-0.48,0.26-0.89,0.09-1.14,0.64c-0.26,0.08-0.52-0.1-0.78-0.15c-0.51,0.28-1.03,0.55-1.54,0.83   c-0.35,0.24-0.69,0.48-1.04,0.72c-0.12-0.12-0.51-0.03-0.52,0.1c-0.04,0.41,0.07,1.08,0.24,1.44c-0.08,0.21-0.16,0.42-0.23,0.62   c0.24,0.23,0.62,0.27,0.66,0.52c0.04,0.27,0.1,0.45-0.04,0.71c0.11,0.53,0.38,1.68-0.15,2.09c-0.13,0.13-1.36,1.17-1.44,1.02   c-0.09-0.18-0.18-0.36-0.27-0.54c0.1-0.34,0.21-0.69,0.31-1.03c-0.04-0.23-0.11-0.29,0-0.51c-0.06,0.02-0.11,0.03-0.17,0.05   c-1.29,0.5-1,2.05-1.79,2.83c-0.29,0.29-0.69-0.12-0.98,0.15c-0.25,0.27-0.38,0.74-0.15,1.08c-0.13,0.64-0.29,1.35-1.02,1.57   c-0.31,0.1-0.65,0.15-0.94-0.03c-0.25,0.04-0.38-0.02-0.51,0.21c-0.52-0.18-0.96-0.18-1.46-0.33c-0.2-0.2-0.84-0.37-1.06-0.33   c-0.4-0.2-0.79-0.4-1.19-0.6c-0.17-0.32-1.22-1.49-1.44-1.52c-0.25-0.75-0.73-1.16-1.24-1.75c-0.1-0.14-0.31-0.64-0.41-0.77   c-0.15-0.66-0.46-1.13-0.1-1.91c0.12-0.26-0.02-0.52,0.21-0.72c-0.15-0.49-0.3-2.08-0.1-2.47c-0.16-0.18-0.42-0.58-0.41-0.82   c-0.54-0.68-1.07-1.37-1.61-2.05c-0.24-0.02-0.42-0.31-0.58-0.48c-0.52-0.14-1.26-1.04-1.62-1.49c-0.68-1.01-1.35-2.02-2.03-3.03   c-0.35-0.64-0.71-1.27-1.06-1.91c-0.2-0.89-0.55-1.64-0.93-2.47c-0.1-0.14-0.21-0.27-0.31-0.41c-0.07-0.17-0.14-0.34-0.21-0.52   c-0.34-0.48-0.69-0.96-1.03-1.44c-0.34-0.38-0.69-0.76-1.03-1.14c-0.89-0.41-1.79-0.82-2.68-1.24c-0.64,0.08-2.65,0.03-2.99,0.31   c-0.27-0.05-0.34-0.11-0.62,0c-0.58-0.17-1.17-0.34-1.75-0.52c-0.38-0.17-0.76-0.34-1.13-0.51c-0.34-0.52-0.69-1.03-1.03-1.54   c-0.53-0.41-0.88-0.79-1.24-1.34c-0.46-0.43-0.92-0.85-1.37-1.28c-0.33-0.51-0.41-1.05-0.66-1.57c-0.11-0.22-0.34-0.53-0.23-0.76   c-0.76-0.86-1.52-1.71-2.28-2.57c-1.06-0.89-2.57-1.77-3.8-1.04c-0.43-0.18-1.8-0.14-0.99-0.77l-0.25,0.15   c0.24,0.01,0.3-0.25,0.51-0.44c0.51-0.48,1.02-0.97,1.53-1.45c0.66-0.57,1.32-1.14,1.98-1.71c0.18-0.4,0.69-0.75,1.03-1.03   c0.11-0.36,0.49-0.34,0.72-0.62c0.65-0.65,1.3-1.3,1.96-1.96c0.31-0.28,1.43-1.22,1.46-1.54c0.28-0.32,0.57-0.64,0.85-0.95   c0.69-0.68,1.37-1.36,2.06-2.04c0.47-0.37,0.93-0.75,1.4-1.12c0.17-0.17,0.34-0.34,0.51-0.51c0.93-0.55,1.85-1.1,2.78-1.66   c0.49-0.23,0.99-0.46,1.48-0.7c0.4-0.31,0.8-0.63,1.19-0.94c0.09-0.48,0.69-0.56,0.93-0.93c0.17-0.21,0.34-0.41,0.52-0.62   c0.06-0.56,1.24-2.16,1.85-2.27c0.92-0.15,1.68,0.17,2.57,0.41c1.63,0.51,3.27,1.02,4.9,1.53l0.04-0.09l0.41,0.72   c0.11,0.22,0.12,0.34,0.32,0.51c0.87,0.7,1.73,0.61,2.76,0.79c0.73,0.13,1.33,0.37,2.07,0.15c0.72,0.23,1.39,0.14,2.15,0.25   c1.46,0.21,2.83,0.55,4.21,1.13c0.8,0.34,1.96,1.8,2.7,2.43c0.24,0.14,0.48,0.27,0.72,0.41c0.51,0.41,1.03,0.82,1.54,1.24   c0.46,0.46,0.92,0.92,1.38,1.38c0.64,0.49,1.29,0.98,1.93,1.47c0.35,0.3,0.7,0.6,1.04,0.9c1.18,0.7,2.32,0.13,3.51-0.23   c0.2-0.06,1.28-0.16,1.33-0.08c0.04,0.07,0.07,0.14,0.11,0.21c0.13,0.5,0.26,1,0.38,1.49c-0.03,0.41-0.07,0.82-0.1,1.24   c-0.17,0.41-0.34,0.82-0.51,1.24c-0.27,0.62-0.55,1.24-0.82,1.85c-0.39,1.27-0.77,2.53-1.16,3.8c-0.29,0.66-1.3,2.09-1.1,2.79   c-0.36,0.71-0.93,1.4-0.93,2.27c-0.27,0.4-0.53,0.79-0.8,1.19c-0.33,0.76-0.42,2.62,0.05,3.28c0.15,0.19,0.29,0.38,0.44,0.57   c0.28,0.17,0.55,0.35,0.83,0.52c0.2,0.17,0.41,0.34,0.61,0.51c0.41,0.55,0.82,1.1,1.24,1.65c-0.05,1.32-0.1,2.64-0.15,3.96   c0.19,0.14,0.46,0.43,0.69,0.3c0.72-0.28,1.44-0.55,2.16-0.83c0.23-0.08,0.47-0.16,0.7-0.24c0.03,0.03,0.07,0.07,0.1,0.1   c0.59,0.59,1.21,1.15,1.65,1.85c0.28,0.44,0.63,0.29,0.66,0.83c0.02,1.1,0.05,2.19,0.07,3.29c0.01,0.3,0.16,0.8-0.01,1.03   L196.5,259.98z"/>
            <circle cx="180.59" cy="262.97" r="1.586"/>
        </g>
        <g id="__Elmalı">
            <path d="   M195.42,166.28c-0.89-0.03-1.79-0.07-2.68-0.1c-1-0.38-1.99-0.76-2.99-1.13c-0.17,0.17-0.42-0.01-0.62-0.09   c-0.53-0.2-1.05-0.4-1.63-0.58c-0.32,0.13-1.21-0.34-1.46-0.57c-0.89-0.11-1.77-0.47-2.57-0.84c-0.53-0.17-1.06-0.34-1.6-0.51   c-0.36-0.17-0.73-0.33-1.09-0.5c-1.06-0.31-1.86-1.31-2.68-1.96c-0.27-0.14-0.55-0.27-0.82-0.41c-0.89-0.64-1.62-0.94-2.66-1.22   c-0.21-0.07-0.43-0.15-0.64-0.22c-0.91-0.94-1.63-2.02-2.47-2.99c-0.48-0.55-0.96-1.1-1.44-1.65c-0.24-0.42-0.48-0.83-0.72-1.25   c-0.99-0.78-1.98-1.57-2.98-2.35c-1.3-1.05-2.85-2.6-4.63-2.68c-1.61-0.07-2.52,0.06-4.04,0.59c-0.48,0.18-0.95,0.36-1.43,0.55   c-0.82,0.58-1.65,1.17-2.47,1.75c-0.37,0.34-0.73,0.69-1.1,1.03c-0.22,0.14-0.43,0.27-0.65,0.41c-1.25,1-2.29,2.14-3.75,2.9   c-2.12,1.11-4.37,1.74-6.66,2.32c-1.23,0.31-2.49,0.81-3.8,0.64c-1.57-0.2-3.1-1.34-4.63-1.44c-0.82,0.09-1.65,0.18-2.47,0.27   c-1.57-0.23-2.83-1.18-4.35-1.65c-0.85-0.26-1.56-0.37-2.45-0.37h0.41c-0.32,0.15-0.27,0.55-0.56,0.77   c0.05,0.22,0.1,0.45,0.15,0.67c-0.38,0.48-0.11,1.47-0.21,2.06c-0.03,0.86-0.07,1.72-0.1,2.57c-0.1,0.55-0.21,1.1-0.31,1.65   c-0.34,1.24-0.69,2.47-1.03,3.71c-0.17,0.48-0.34,0.96-0.51,1.44c-0.57,0.57-0.56,1.93-0.72,2.68c-0.24,1.13-0.48,2.27-0.72,3.4   c-0.45,1.21-0.82,2.61-0.62,3.91c-0.29,0.5-0.31,1.8-0.31,2.37c-0.07,0.21-0.14,0.41-0.21,0.62c-0.45,0.58-0.89,1.17-1.34,1.75   c-0.26,0.12-0.44,0.49-0.62,0.72c-0.95,0.21-1.63,1.71-2.16,2.47c-0.6,0.68-1.2,1.36-1.8,2.05c-1.07,2.48-0.84,5.18-1.77,7.67   c-0.22,0.81-0.44,1.62-0.66,2.43c-0.14,0.51-0.27,1.03-0.41,1.54c-0.19,0.16-0.56,1.16-0.62,1.44c-0.14,0.41-0.27,0.82-0.41,1.24   c-0.39,0.59-0.72,1.23-0.49,1.95c0.23,0.69,1.14,0.53,1.69,0.64c0.58,0.23,1.17,0.45,1.75,0.68c1.08,0.53,2.2,1.68,2.82,2.7   c0.53,0.57,1.07,1.14,1.6,1.7c0.63,1.01,1.27,2.02,1.9,3.03c-0.12,0.26,0.09,0.46,0.21,0.72c-0.18,0.45,0.19,0.8,0.41,1.13   c0.18,0.65,0.37,1.3,0.55,1.94c1.19,1.55,2.38,3.1,3.57,4.65c0.14,0.21,0.27,0.41,0.41,0.62c0.04,0.85,1.03,1.48,1.54,2.06   c0.11,0.52,0.59,1.05,0.93,1.44c0.27,0.38,0.55,0.76,0.82,1.13c0.7,0.91,1.41,1.81,2.11,2.72c0.12,0.19,0.24,0.38,0.36,0.58   c0.38,0.38,0.76,0.76,1.13,1.13c0.24,0.43,0.47,0.78,0.82,1.13c0.34-0.03,1.14,0.42,1.34,0.72c0.55,0.84,1.82,1.75,2.68,2.27   c0.14,0,0.27,0,0.41-0.01c0.24,0.01,0.3-0.25,0.51-0.44c0.51-0.48,1.02-0.97,1.53-1.45c0.66-0.57,1.32-1.14,1.98-1.71   c0.18-0.4,0.69-0.75,1.03-1.03c0.11-0.36,0.49-0.34,0.72-0.62c0.65-0.65,1.3-1.3,1.96-1.96c0.31-0.28,1.43-1.22,1.46-1.54   c0.28-0.32,0.57-0.64,0.85-0.95c0.69-0.68,1.37-1.36,2.06-2.04c0.47-0.37,0.93-0.75,1.4-1.12c0.17-0.17,0.34-0.34,0.51-0.51   c0.93-0.55,1.85-1.1,2.78-1.66c0.49-0.23,0.99-0.46,1.48-0.7c0.4-0.31,0.8-0.63,1.19-0.94c0.09-0.48,0.69-0.56,0.93-0.93   c0.17-0.21,0.34-0.41,0.52-0.62c0.06-0.56,1.24-2.16,1.85-2.27c0.92-0.15,1.68,0.17,2.57,0.41c1.63,0.51,3.27,1.02,4.9,1.53   c0.22-0.17,0.43-0.33,0.65-0.5c0.28-0.31,0.56-0.62,0.84-0.93c0.17-0.31,0.34-0.63,0.51-0.94c0.31-0.54,0.62-1.09,0.93-1.63   c0.61-0.46,1.54-2.18,1.92-2.87c0.25-0.29,0.49-0.57,0.74-0.86c0.24-0.39,0.47-0.78,0.71-1.17c0.42-0.43,0.85-0.86,1.27-1.29   c0.1-0.03,0.2-0.05,0.31-0.08c0.31-0.21,0.62-0.42,0.93-0.64c0.31-0.41,0.62-0.82,0.93-1.24c0.27-0.38,0.55-0.76,0.82-1.13   c0.34-0.31,0.69-0.62,1.03-0.93c0.38-0.55,0.75-1.1,1.13-1.65c0.38-0.89,0.76-1.78,1.14-2.67c0.58-0.61,1.54-2.51,1.78-3.36   c0.69-1.48,1.38-2.97,2.07-4.45c1.09-2,2.17-3.99,3.26-5.99c1.91-2.56,4-4.98,5.85-7.56c0.8-1.11,2.11-2.15,2.39-3.56   c0-0.48,0-0.96,0-1.44c0.26-1.35,0.25-2.75,0.21-4.12L195.42,166.28z"/>
            <circle cx="146.55" cy="182.25" r="1.586"/>
        </g>
        <g id="__Kumluca">
            <path d="   M195.62,166.8c0,0,0.05,2.77-0.21,4.12c0,0.48,0,0.96,0,1.44c-0.28,1.41-1.59,2.45-2.39,3.56c-1.85,2.58-3.94,5-5.85,7.56   c-1.09,2-2.17,3.99-3.26,5.99c-0.69,1.48-1.38,2.97-2.07,4.45c-0.24,0.85-1.19,2.75-1.78,3.36c-0.38,0.89-0.76,1.78-1.14,2.67   c-0.38,0.55-0.75,1.1-1.13,1.65c-0.34,0.31-0.69,0.62-1.03,0.93c-0.27,0.38-0.55,0.76-0.82,1.13c-0.31,0.41-0.62,0.82-0.93,1.24   c-0.31,0.21-0.62,0.42-0.93,0.64c-0.1,0.03-0.2,0.05-0.31,0.08c-0.42,0.43-0.85,0.86-1.27,1.29c-0.24,0.39-0.47,0.78-0.71,1.17   c-0.25,0.29-0.49,0.57-0.74,0.86c-0.38,0.7-1.31,2.41-1.92,2.87c-0.31,0.54-0.62,1.09-0.93,1.63c-0.17,0.31-0.34,0.63-0.51,0.94   c-0.28,0.31-0.56,0.62-0.84,0.93l-0.2,1.13c0.11,0.22,0.12,0.34,0.32,0.51c0.87,0.7,1.73,0.61,2.76,0.79   c0.73,0.13,1.33,0.37,2.07,0.15c0.72,0.23,1.39,0.14,2.15,0.25c1.46,0.21,2.83,0.55,4.21,1.13c0.8,0.34,1.96,1.8,2.7,2.43   c0.24,0.14,0.48,0.27,0.72,0.41c0.51,0.41,1.03,0.82,1.54,1.24c0.46,0.46,0.92,0.92,1.38,1.38c0.64,0.49,1.29,0.98,1.93,1.47   c0.35,0.3,0.7,0.6,1.04,0.9c1.18,0.7,2.32,0.13,3.51-0.23c0.2-0.06,1.28-0.16,1.33-0.08c0.04,0.07,0.07,0.14,0.11,0.21   c0.13,0.5,0.26,1,0.38,1.49c-0.03,0.41-0.07,0.82-0.1,1.24c-0.17,0.41-0.34,0.82-0.51,1.24c-0.27,0.62-0.55,1.24-0.82,1.85   c-0.39,1.27-0.77,2.53-1.16,3.8c-0.29,0.66-1.3,2.09-1.1,2.79c-0.36,0.71-0.93,1.4-0.93,2.27c-0.27,0.4-0.53,0.79-0.8,1.19   c-0.33,0.76-0.42,2.62,0.05,3.28c0.15,0.19,0.29,0.38,0.44,0.57c0.28,0.17,0.55,0.35,0.83,0.52c0.2,0.17,0.41,0.34,0.61,0.51   c0.41,0.55,0.82,1.1,1.24,1.65c-0.05,1.32-0.1,2.64-0.15,3.96c0.19,0.14,0.46,0.43,0.69,0.3c0.72-0.28,1.44-0.55,2.16-0.83   c0.23-0.08,0.47-0.16,0.7-0.24c0.03,0.03,0.07,0.07,0.1,0.1c0.59,0.59,1.21,1.15,1.65,1.85c0.28,0.44,0.63,0.29,0.66,0.83   c0.02,1.1,0.05,2.19,0.07,3.29c0.01,0.3,0.16,0.8-0.01,1.03c0.1,0.06,0.21,0.12,0.31,0.17c0.41,0.15,0.82,0.3,1.23,0.44   c0.59-0.05,1.05-0.05,1.65,0c0.36,0.03,0.63-0.14,1-0.03c0.63,0.25,1.26,0.5,1.89,0.75c0.22,0.01,0.44,0.03,0.67,0.04   c0.57,0.26,1.14,0.52,1.7,0.78c0.56,0.24,1.76,1.23,2.27,1.24c0.85,0.66,1.71,1.31,2.56,1.97c1.03,0.79,2.07,1.57,3.1,2.36   c0.45,0.26,0.95,1.2,1.53,1.11c0.83-0.17,1.7-0.61,2.59-0.8c0-0.36,0.34-0.71,0.68-0.53c0.19,0.11,0.22,0.17,0.45,0.12   c0.21,0.24,0.41,0.48,0.62,0.72c0.26-0.07,1.54-0.52,1.54-0.1c0.35,0.57,0.8,1.18,0.58,1.8c-0.02,0.16-0.04,0.31-0.07,0.47   c-0.04,0.2-0.13,0.32-0.31,0.41c-0.07,0.31-0.14,0.62-0.21,0.93c-0.23-0.07-0.6-0.28-0.76-0.04c-0.26,0.37-1.02,1.35-0.58,1.79   c0.31,0.19,0.62,0.38,0.92,0.58c-0.02,0.24-0.07,0.25,0.11,0.45c-0.12,0.28-0.79,1.48-0.72,1.54c0.72,0.84,0.21,2.08,0.11,3.05   c-0.03,0.31,0.32,0.61,0.2,0.86c0.03-0.02,0.06-0.04,0.09-0.07c0.31-0.25,0.62-0.5,0.94-0.76c0.14-0.03,0.27-0.07,0.41-0.1   c0.14-0.34,0.27-0.69,0.41-1.03c0.21-0.14,0.41-0.27,0.62-0.41c0.03-0.37,0.03-0.96,0.31-1.24c0.26,0.05,0.73,0.27,0.94,0.13   c0.33-0.21,0.54-0.25,0.63-0.66c0.06-0.3,0.18-0.44,0.28-0.71c-0.05-0.33-0.2-0.74,0.04-0.99c0.32-0.35,0.57-0.57,0.99-0.76   c0.21-0.28,0.42-0.55,0.62-0.83c0.14-0.15,0.45-0.5,0.65-0.26c0.05,0.09,0.11,0.17,0.16,0.26c-0.05-0.49-0.11-0.98,0.1-1.44   c0.41,0.07,0.82,0.14,1.24,0.21c-0.44-0.44,0.25-1.3,0.46-1.71c0.16-0.31,1.75-1.38,2.01-1.07c0.15-0.15,0.3-0.29,0.46-0.44   c0.51-0.34,1.03-0.56,0.98-1.2c-0.05-0.54-0.1-1.09-0.16-1.63c0.09-0.38,0.17-0.77,0.26-1.15c0.03-0.16,0.39-0.7,0.23-0.75   c-0.38-0.2-0.77-0.4-1.15-0.59c-0.14,0.26-0.6,1.07-0.93,1.01c-0.39-0.06-1.1-0.28-1.03-0.8c-0.12-0.33-0.51-1.51-0.26-1.81   c0.81-0.85,1.64-0.45,2.63-0.77c0.43-0.14,0.77-0.63,1.03-0.72c0-0.26,0.02-0.46,0.21-0.65c0.3-0.31,0.72-0.33,0.92-0.69   c0.18,0.19,1,1,1.16,0.42c0.16-0.52,0.33-1.04,0.49-1.55c0.75,0.36,1.27,0.55,2.07,0.24c0.11-0.02,0.22-0.04,0.33-0.06   c0.38-0.32,0.47-0.72,0.58-1.2c0.2-0.13,0.39-0.3,0.62-0.21c0.18-0.57,0.37-0.85-0.3-0.76c-0.2,0.03-0.24,0.08-0.42-0.06   c-0.93,0.42-1.32,0.45-2.19-0.05c-0.19-0.11-0.57-0.24-0.6-0.46c-0.08-0.47-0.16-0.94-0.24-1.42c-0.02-0.04-0.04-0.09-0.06-0.13   c-0.23,0.43-0.83-0.28-0.79-0.4c0.15-0.3,0.29-0.59,0.44-0.89c0.1-0.17,0.27,0.06,0.22-0.15c-0.08-0.33-0.05-1.11-0.37-1.17   c-0.14-0.02-0.29-0.15-0.43-0.17c-0.1-0.19,0.06,1.76,0.1,0.93c-0.6,0.16-1-0.62-1.44-1.85c-0.26-0.73-0.86-1.07-0.91-1.45   c-0.03-0.32,0.03-0.49-0.22-0.71c0.15-0.48,0.38-0.82-0.15-1.11c-0.46-0.28-0.93-0.54-1.39-0.8l0.2,0.27   c-0.11-0.06-0.22-0.12-0.33-0.18c-0.99-0.48-2.01-0.97-2.96-1.57c-1-0.86-1.99-1.72-2.99-2.57c-0.53-0.47-0.78-1.06-1.16-1.64   c-0.07-0.1-0.39-0.66-0.39-0.42c-0.05-0.72-0.15-2.13-0.82-2.57c-0.44-1.47-1.04-2.95-1.8-4.3c-0.4-0.81-0.81-1.61-1.21-2.42   c-0.39-0.64-1.8-2.18-1.41-2.96c-0.15-0.47-0.31-1.12-0.16-1.61c0.08-0.27,0.25-0.7,0.47-0.86c0.25-0.79,0.5-1.41,1.24-1.85   c0.41-0.25,0.58-0.84,1.03-1.03c0.51-0.62,1.03-1.24,1.54-1.85c0.54-0.66,1.07-1.32,1.61-1.99c0.19-0.3,0.37-0.6,0.56-0.9   c0.14-0.38,0.27-0.76,0.41-1.13c0.14-0.4-0.17-1.06,0.21-1.34c-0.1-0.64-0.17-1.55,0.31-2.06c0.07-0.38,0.14-0.76,0.21-1.13   c-0.2-0.94-0.91-1.81-0.93-2.78c-0.28-0.28-1.25-1.99-1.24-2.37c-0.31-0.42-0.62-0.85-0.93-1.27c-2-2.05-2.43-4.19-1.38-6.86   c0.35-1.14,0.71-2.27,1.07-3.41l0.05-0.17c-0.09-0.35-0.18-0.7-0.26-1.06c-0.3-1.07-0.42-2.09-0.61-3.19   c-0.1-0.65-0.21-1.3-0.31-1.96c-0.21-0.55-0.41-1.1-0.62-1.65c-0.21-0.65-0.41-1.3-0.62-1.96c-0.14-0.45-0.27-0.89-0.41-1.34   c-0.29-1.47-0.58-2.93-0.87-4.4c-0.08-0.37-0.7-1.5-1.06-1.65c-0.31-0.46-0.62-0.92-0.93-1.38c-0.15-0.23-0.29-0.47-0.44-0.7   c-0.17-0.65-0.34-1.3-0.51-1.96c-0.02-0.9-0.03-1.8-0.05-2.7c0.05-0.47,0.1-0.95,0.15-1.42l-0.3-0.05   c-0.75-0.18-1.47-0.79-2.07-1.29c-0.51-0.34-1.03-0.69-1.54-1.03c-0.4-0.35-0.8-0.71-1.2-1.07c-0.32-0.23-0.64-0.46-0.96-0.69   c-1.63-1.76-3.18-3.98-5.87-3.81c-0.55,0.31-1.1,0.62-1.65,0.93c-0.86,1.14-2,2.03-3.3,2.68c-0.38,0.31-0.76,0.62-1.13,0.93   c-0.45,0.31-0.89,0.62-1.34,0.93L195.62,166.8z"/>
            <circle cx="210.54" cy="215.49" r="1.586"/>
        </g>
        <g id="__Korkuteli">
            <path d="   M231.36,137.76l-0.62,0.38c-1.81,1.09-3.64,2.34-5.25,3.74c-0.62,0.45-1.24,0.89-1.85,1.34c-1.34,1-2.68,1.99-4.02,2.99   c-1.49,1.58-2.38,3.58-3.71,5.25c-0.81,1.02-0.31,2.54-0.31,3.71c-0.24,0.31-0.48,0.62-0.72,0.93c-0.24,0.21-0.48,0.41-0.72,0.62   c-0.11,0.8-0.37,1.47-0.62,2.27c-0.19,0.63,0.31,1.66-0.21,2.16c0.07,0.31,0.14,0.62,0.21,0.93c-0.17,0.17-0.04,0.49,0,0.72   c0.08,0.21,0.17,0.42,0.25,0.64c0.3,0.16,0.18,0.55,0.23,0.85c0.17,0.74,0.33,1.48,0.5,2.22c0.09,0.75,0.17,1.51,0.26,2.26   l-0.3-0.05c-0.75-0.18-1.47-0.79-2.07-1.29c-0.51-0.34-1.03-0.69-1.54-1.03c-0.4-0.35-0.8-0.71-1.2-1.07   c-0.32-0.23-0.64-0.46-0.96-0.69c-1.63-1.76-3.18-3.98-5.87-3.81c-0.55,0.31-1.1,0.62-1.65,0.93c-0.86,1.14-2,2.03-3.3,2.68   c-0.38,0.31-0.76,0.62-1.13,0.93c-0.45,0.31-0.89,0.62-1.34,0.93c-0.89-0.03-1.79-0.07-2.68-0.1c-1-0.38-1.99-0.76-2.99-1.13   c-0.17,0.17-0.42-0.01-0.62-0.09c-0.53-0.2-1.05-0.4-1.63-0.58c-0.32,0.13-1.21-0.34-1.46-0.57c-0.89-0.11-1.77-0.47-2.57-0.84   c-0.53-0.17-1.06-0.34-1.6-0.51c-0.36-0.17-0.73-0.33-1.09-0.5c-1.06-0.31-1.86-1.31-2.68-1.96c-0.27-0.14-0.55-0.27-0.82-0.41   c-0.89-0.64-1.62-0.94-2.66-1.22c-0.21-0.07-0.43-0.15-0.64-0.22c-0.91-0.94-1.63-2.02-2.47-2.99c-0.48-0.55-0.96-1.1-1.44-1.65   c-0.24-0.42-0.48-0.83-0.72-1.25c-0.99-0.78-1.98-1.57-2.98-2.35c-1.3-1.05-2.85-2.6-4.63-2.68c-1.61-0.07-2.52,0.06-4.04,0.59   c-0.48,0.18-0.95,0.36-1.43,0.55c-0.82,0.58-1.65,1.17-2.47,1.75c-0.37,0.34-0.73,0.69-1.1,1.03c-0.22,0.14-0.43,0.27-0.65,0.41   c-1.25,1-2.29,2.14-3.75,2.9c-2.12,1.11-4.37,1.74-6.66,2.32c-1.23,0.31-2.49,0.81-3.8,0.64c-1.57-0.2-3.1-1.34-4.63-1.44   c-0.82,0.09-1.65,0.18-2.47,0.27c-1.57-0.23-2.83-1.18-4.35-1.65c-0.85-0.26-1.56-0.37-2.45-0.37c0.03-0.21,0.07-0.41,0.1-0.62   c-0.09-1.84-0.17-3.69-0.26-5.53c-0.13-0.12-0.56-1.86-0.65-2.2c-0.29-1.14-0.47-2.26-1.05-3.29c-0.55-0.62-1.1-1.24-1.65-1.85   c-0.51-0.31-1.03-0.62-1.54-0.93c-0.31-0.28-0.63-0.56-0.94-0.84c0.49-0.1,2.09-0.37,2.38-0.7c0.55-0.1,1.1-0.21,1.65-0.31   c1.06-0.55,2.13-1.1,3.19-1.65c0.41-0.24,0.82-0.48,1.24-0.72c0.35-0.1,0.96-0.19,1.13-0.51c1.27-0.48,2.54-0.96,3.81-1.44   c0.39-0.26,0.78-0.52,1.17-0.78c0.3-0.12,0.6-0.23,0.89-0.35c0.34-0.58,0.69-1.17,1.03-1.75c0.15-0.22,0.3-0.44,0.45-0.67   c0.33-0.6,0.5-1.23,1-1.74c-0.01-0.34,0.15-0.64,0.32-0.94c0.58-1.11,1.16-2.23,1.74-3.34c0.21-0.45,0.41-0.89,0.62-1.34   c0.07-1.45-0.83-2.59-1.22-3.91c-0.86-2.06-1.73-4.12-2.59-6.19c-0.18-0.35-0.52-1.1-0.1-1.34c-0.15-0.46-0.32-1.09-0.82-1.24   c-0.1-0.14-0.21-0.27-0.31-0.41c-0.06-0.25-0.1-1.43-0.1-1.44c0.93-1.37,1.86-2.75,2.79-4.12c0.63-0.92,1.17-1.81,2.08-2.5   c0.13-0.32,0.42-0.48,0.69-0.69c0.76-0.6,1.27-1.32,2.18-1.7c2.21-0.94,4.45-1.65,6.88-2.01c0.55-0.14,1.1-0.27,1.65-0.41   c0.57-0.12,1.15-0.23,1.72-0.35c0.2-0.04,0.41-0.08,0.61-0.12c0.52,0.19,1.16-0.65,1.4-1.03c-0.09-0.89,0.34-2.21,0.59-3.04   c0.38-1.68,0.75-3.37,1.13-5.05c0.09-0.44,0.18-1.68,0.52-1.95c0.09-0.29,0.19-0.58,0.28-0.87c0.9-0.53,1.91-0.69,2.9-1   c0.42-0.1,0.83-0.19,1.25-0.29c0.38-0.1,0.76-0.21,1.13-0.31c0.38-0.1,0.76-0.21,1.13-0.31c0.21-0.1,0.41-0.21,0.62-0.31   c0.83-0.89,1.66-1.77,2.48-2.66c0.59-0.41,1.25-0.61,1.94-0.74c0.44-0.18,0.89-0.36,1.33-0.54c1.34-0.41,2.68-0.82,4.02-1.24   c1.1-0.3,2.2-0.6,3.3-0.9c1.05-0.51,2.12-0.84,3.3-1.24c0.62-0.21,1.24-0.41,1.85-0.62c4.47-2.24,9.67-2.81,14.63-2.21   c1.47,0.18,2.98,0.45,4.42,0.86c0.51,0.14,1.03,0.28,1.54,0.42c2.24,0,4.36,0.1,6.59,0.1c0.63,0,2.18,0.18,2.68-0.1   c1.03,0.17,2.06,0.34,3.09,0.51c0.72,0.33,1.26,0.81,1.85,1.34c0.27,0.17,0.55,0.34,0.82,0.51c0.76,0.44,1.52,0.89,2.28,1.33   c0.43,0.38,1.23,1.08,1.84,1.14c1.2,0.86,2.4,1.72,3.6,2.57c1.04,0.67,2.07,1.35,3.11,2.02c0.73,0.37,1.59,0.68,2.15,1.28   l-0.19,0.26c-0.28,0.1-0.49,1-0.53,1.28c-0.47,0.47-0.88,1.47-0.82,2.16c0.03,0.17,0.07,0.34,0.1,0.51c0.01,0.42-0.1,0.9-0.31,1.24   c0.03,0.51,0.07,1.03,0.1,1.54c-0.1,0.51-0.21,1.03-0.31,1.54c-0.17,0.89-0.34,1.79-0.51,2.68c-0.33,0.33-0.34,1.2-0.41,1.65   c-0.07,0.21-0.14,0.41-0.21,0.62c0.03,0.27,0.07,0.55,0.1,0.82c-0.14,0.68-0.34,1.15-0.21,1.85c-0.26,0.34-0.18,0.74-0.1,1.13   c-0.34,0.3-0.23,0.93-0.31,1.34c-0.09,0.61-0.18,1.23-0.27,1.84c-0.1,0.68-0.52,1.36-0.86,1.97c-0.07,0.31-0.14,0.62-0.21,0.93   c-0.1,0.24-0.21,0.48-0.31,0.72c-0.11,0.58,0.25,1,0.31,1.54c-0.03,0.17-0.07,0.34-0.1,0.51c1,1.24,1.99,2.47,2.99,3.71   c0.32,0.03,0.97,0.59,1.24,0.82c0.43,0.03,0.75,0.5,1.13,0.72c1.11,0.66,2.06,1.65,2.99,2.57c0.24,0.21,0.48,0.41,0.72,0.62   c0.17,0.38,0.34,0.76,0.52,1.13c0.37,0.37,1.17,1.64,1.24,2.16c0.03,0.17,0.07,0.34,0.1,0.51c0.42,1.02,0.74,2.08,0.93,3.19   c-0.06,0.45-0.13,0.89-0.19,1.34c0.03,0.07,0.06,0.14,0.09,0.2c-0.17,0.72-0.34,1.44-0.51,2.16c0.26,0.34,0.1,1.14,0.02,1.55   c-0.01,0.24-0.01,0.48-0.02,0.72c-0.52,1.06-1.03,2.13-1.54,3.19c-0.69,0.72-1.37,1.44-2.06,2.16   C232.04,136.93,231.59,137.53,231.36,137.76z"/>
            <circle cx="189.07" cy="118.33" r="1.586"/>
        </g>
        <g id="__Aksu">
            <path d="   M286.4,160.46c0.16,0.17,0.6-0.16,0.98-0.25c0.46,0.15,1.98-0.14,2.47-0.31c0.37,0.34,2.35-0.02,2.88-0.1   c0.32,0.27,0.96,0.08,1.34,0c0.34,0.24,1.16,0.11,1.56,0.05c0.58,0.02,1.16,0.04,1.74,0.05c0.41-0.1,0.82-0.21,1.24-0.31   c0.25,0.15,0.66-0.03,0.94-0.09c0.07,0.02,0.15,0.03,0.23,0.05c0.5-0.09,1.01-0.18,1.51-0.27c0.25,0.13,0.66-0.02,0.94-0.08   c0.1-0.01,0.2-0.01,0.3-0.02c0.22-0.43,0.62-1.02,0.62-1.54c0.31-0.34,0.62-0.69,0.93-1.03c0.45-0.27,0.89-0.55,1.34-0.82   c0.39-0.2,0.18-0.89,0.03-1.25c-0.33-0.29-0.67-0.58-1-0.87c-0.29-0.22-0.59-0.44-0.88-0.66c-0.22,0.08-0.52-0.12-0.59-0.29   c-0.53-0.31-1.07-0.62-1.6-0.93c-1.02-0.73-2.04-1.45-3.06-2.18c0-0.28-0.22-0.35-0.41-0.51c-0.28-0.25-1.13-0.73-1.13-1.13   c-0.27-0.41-0.55-0.82-0.82-1.24c-0.49-0.49-1.24-1.05-1.24-1.75c-0.22-0.22-0.22-0.48-0.41-0.72c-0.33-0.42-0.59-0.71-0.71-1.25   c-0.06-0.35,0.31-0.52,0.5-0.71c0-0.41,0.11-0.65,0.21-1.03c0.03-0.76,0.07-1.51,0.1-2.27c0.01-0.42,0.48-0.06,0.72-0.3   c0-0.58,0.3-0.71,0.72-1.03c0.05-0.2,0.11-0.4,0.16-0.6c0.13-0.34,0.29,0.14,0.36,0.29c0.21-0.06,0.29,0.08,0.47,0.18   c-0.02-0.13-0.04-0.26-0.06-0.39c0.1-0.17,0.21-0.34,0.31-0.51c0.37,0,0.59-0.17,0.83-0.42c0.17-0.17,0.16-0.23,0.24-0.44   c0.22-0.67-0.52-0.45-0.87-0.27c-0.13-0.17-0.2-0.15-0.4-0.18c-0.15-0.03-0.08-0.81-0.12-1.05c-0.38,0.06-0.52,0.2-0.82-0.1   c-0.26-0.26,0.52-1.73,0.52-2.28c0-0.46-0.2-0.8-0.31-1.22c-0.05-0.61-0.1-1.22-0.15-1.83c-0.25-0.73-0.5-1.47-0.75-2.2   c0-0.12-0.01-0.24-0.01-0.35c0.17-0.08,0.33-0.17,0.5-0.25c0.03-0.38,0.07-0.76,0.1-1.13c0.17-0.13,0.38-0.61,0.41-0.82   c0.26-0.13,0.34-0.16,0.45-0.4c0.06-0.14,0.11-0.29,0.17-0.43c-0.24-0.07-0.48-0.14-0.72-0.21c-0.14-0.21-0.27-0.41-0.41-0.62   c-0.51-0.51-1.03-1.03-1.54-1.54c-0.03-0.45-0.07-0.89-0.1-1.34c-0.1-0.21-0.21-0.41-0.31-0.62c0-0.28-0.65-0.38-0.88-0.49   c0.37-0.4,0.74-0.79,1.11-1.19c-0.06-0.46-0.5-1.34-0.71-1.84c-0.12-0.31-1.25-0.6-1.58-0.6c-0.6-0.4-0.58-1.88-0.52-2.47   c-0.09-0.07-0.18-0.14-0.28-0.21c-0.26-0.34-0.37-0.29-0.77-0.3c-0.45-0.02-0.14,0.72-0.4,0.72c-0.33-0.42-0.91-1.66-1.34-1.75   c-0.31,0.01-0.62,0.01-0.93,0.02c-0.14,0.06-0.27,0.13-0.41,0.19c-0.26,0-0.57-0.62-0.64-0.85c-0.44-0.85-0.88-1.7-1.31-2.55   c-0.45-0.38-0.89-0.76-1.34-1.13c-0.38-0.48-0.76-0.96-1.13-1.44c-0.01-0.33-0.36-1.18-0.62-1.44c0.33-0.6-0.28-0.73-0.32-1.25   c-0.08-1.11-0.21-2.18-0.5-3.28c0.03-0.17,0.07-0.34,0.1-0.51c-0.27-0.31-0.55-0.62-0.82-0.93c0.13-0.13,0.1-0.15,0.06-0.32   c-0.09-0.44,0.03-0.61,0.35-0.92c0-0.44,0.31-0.6,0.52-0.93c0.48-0.65,0.96-1.3,1.44-1.96c0.05-1.65,0.71-3.23,0.77-4.84   c0.02-0.83-0.63-0.74-1.29-0.87c-1.09-0.28-2.18-0.57-3.26-0.85c-0.03-0.07-0.07-0.14-0.1-0.2c-0.14-0.01-0.29-0.02-0.43-0.03   c0,0-1.11,1.01-1.24,1.13c-0.2,0-0.35,0.38-0.51,0.51c-0.93,0.65-1.85,1.3-2.78,1.96c-0.24,0.1-0.48,0.21-0.72,0.31   c-0.55,0.07-1.1,0.14-1.65,0.21c-0.34-0.07-0.69-0.14-1.03-0.21c-0.78-0.28-2.27-0.51-2.27-0.51c-0.94,1.15-1.07,1.93-0.82,3.3   c0.09,0.48-0.24,0.76,0.1,1.24c-0.03,0.21-0.07,0.41-0.1,0.62c0.3,0,0.12,1.54,0.12,1.83c0.14,0.19,0.17,1.6,0.13,1.84   c0.16,0.87,0.32,1.74,0.48,2.61l0.1,0.41c0.52,0.79,1.24,2.17,1.24,3.19c0.23,0.6,0.46,1.21,0.69,1.81   c0.22,0.8,0.43,1.61,0.65,2.41c0.19,0.43,0.38,0.34,0.41,0.93c0.27,0.17,0.55,0.34,0.82,0.51c0.03,0.1,0.07,0.2,0.1,0.31   c0.17,0.17,0.35,0.35,0.52,0.52c0.3,0.48,0.36,1.6,0.41,2.16c0.07,0.21,0.14,0.41,0.21,0.62c0,0.39-0.01,0.69,0.21,1.03   c-0.2,0.2,0.09,0.55,0.13,0.81c0.1,0.76,0.19,1.52,0.29,2.28c0.29,1.38,0.58,2.76,0.87,4.15c0.19,1.26,0.38,2.52,0.57,3.78   c0.45,1.24,0.89,2.47,1.34,3.71c0.07,0.31,0.14,0.62,0.21,0.93c0.1,0.17,0.21,0.34,0.31,0.52c0.05,0.26,0.05,1.24,0.41,1.24   c0.03,0.17,0.07,0.34,0.1,0.51c0,0.34,0,0.69,0,1.03c-0.34,0.34-0.52,0.72-0.72,1.13c-0.13,0.26-0.36,0.56-0.62,0.62   c-0.1,0.3-0.2,0.61-0.31,0.91c-0.28,0.31-1.12,1.25-1.14,1.66c-0.25,0.28-1.19,1.34-0.9,1.52c1.23,0.68,2.31,0.97,3.18,2.09   c0.24,0.41,0.48,0.82,0.72,1.24c-0.07,0.25-0.21,0.62-0.01,0.81c0.21,0.18,0.42,0.35,0.63,0.52c0.22,0,0.7-0.02,0.73,0.29   l-0.01,0.37c0.12-0.06,0.38-0.21,0.45-0.07c0.37,0.34,0.47,0.28,0.47,0.75c0.14,0.14-0.24,0.69-0.1,0.82   c0.16,0.02,1.11-0.08,1.13,0c0.1,1.04,0.07,1.97-0.13,3.08c-0.06,0.93-0.12,1.86-0.18,2.79c-0.07,0.17,0.07,0.34,0,0.51   c0.03,0.17-0.14,0.34-0.1,0.51c-0.05,0.57-0.1,1.13-0.15,1.7c0.31,0.28,0.79,0.78,1.17,0.55c0.5-0.3,0.85-0.51,1.44-0.51   c0.13-0.1,0.56-0.47,0.68-0.35c0.45,0.49,0.39,1.22,0.05,1.8c0.07,0.14,0.14,0.27,0.21,0.41c0.65-0.02,0.94-0.07,1.13,0.72   c0.16,0.03,0.52,0.01,0.54,0.09c0.11,0.39,0.23,1.28,0.29,2.07L286.4,160.46z"/>
            <circle cx="282.34" cy="144.4" r="1.586"/>
        </g>
        <g id="__Serik">
            <path d="   M313.92,63.66c-0.28,0.22,0.06,1.54,0.24,1.81c0.1,0.55,0.21,1.1,0.31,1.65c0.38,0.96,0.76,1.92,1.13,2.88   c0.13,0.38,0.26,0.76,0.39,1.14c0.35,1.13,0.7,2.26,1.05,3.4c0.48,0.96,0.96,1.92,1.44,2.88c-0.2,0.74,0.29,1.39,0.41,2.06   c0.25,1.38,0.44,2.87,1.34,4.02c0.51,0.72,1.03,1.44,1.54,2.16c0.64,1.27,1.32,2.45,2.17,3.61c0.78,1.08,0.82,2.53,0.82,3.8   c-0.02,0.42-0.04,0.85-0.07,1.27c0.28,2.57-0.53,6.19,0.79,8.41c0.48,0.72,0.96,1.44,1.44,2.16c2.17,2.06,4.35,4.13,6.52,6.19   c1.12,1.06,1.78,2.36,2.75,3.49c1.82,2.27,3.64,4.54,5.46,6.8c0.99,1.36,1.03,3.38,1.34,4.94c-0.17,0.41-0.34,0.82-0.51,1.24   c-0.35,0.19-1.1,1.33-1.32,1.71c-0.11,0.32-0.22,0.65-0.33,0.97c-0.47,0.47-0.62,1.13-1.03,1.54c0,0.62-0.12,1.15-0.21,1.75   c0,0.93,0,1.85,0,2.78c-0.14,0.76-0.27,1.51-0.41,2.27c-0.72,1.92-1.44,3.84-2.16,5.77c-0.73,0.74-1.47,1.48-2.2,2.22   c-0.39,0.38-0.61,0.02-0.99-0.27c-0.12,0.7-0.83,1.56-1.34,2.06c0,1.28-0.83,1.53-1.65,2.37c-0.36,0.36,0.07,1.15,0.18,1.56   c0.37,1.36,1.69,1.47,2.7,2.14c0.39,0.39,0.79,0.78,1.18,1.17c0.14,0.19-0.58,0.67-0.72,0.82c0.05,0.2,0.17,0.39,0.15,0.59   c-0.1,0.88,0.68,2.53,0.68,2.53c0.05,0.12,0.1,0.24,0.15,0.35c0.16,0.3,0.32,0.21,0.31,0.51c0.05,0.43,0.04,0.27,0.21,0.51   c0.17,0.24,0.04,0.69,0,0.82c-0.08,0.15-0.31,0.23-0.52,0.51c-0.04,0.48,0.11,1.01,0,1.34c-0.13,0.39-0.53,0.57-0.51,0.93   c-0.5-0.09-1.35-0.33-1.85-0.41c-0.47,0-0.85-0.08-1.27-0.3c-0.21,0.01-0.43,0.02-0.64,0.03c-0.22-0.08-0.44-0.16-0.66-0.24   c-0.56,0.27-2.22-0.36-2.78-0.62c-0.34-0.03-0.69-0.07-1.03-0.1c-0.34,0-0.69,0-1.03,0c-0.65-0.21-1.3-0.41-1.96-0.62   c-0.45-0.07-0.89-0.14-1.34-0.21c-0.41,0.03-0.82,0.07-1.24,0.1c-0.16-0.25-0.89-0.39-1.2-0.44c-0.62-0.91-2.01-1.25-3.02-1.52   c-1.03-0.19-2.06-0.39-3.1-0.58c-0.38-0.04-1.05,0.04-1.33-0.24c-0.34,0-0.69,0-1.03,0c-0.68-0.17-1.33-0.42-2.06-0.41   c-0.21,0.03-0.41,0.07-0.62,0.1c-0.86-0.03-1.72-0.07-2.57-0.1c-0.11,0.11-0.5,0.04-0.72,0.06c-0.73,0.06-1.6,0.16-2.29-0.04   l-0.39,0.18c0.22-0.43,0.62-1.02,0.62-1.54c0.31-0.34,0.62-0.69,0.93-1.03c0.45-0.27,0.89-0.55,1.34-0.82   c0.39-0.2,0.18-0.89,0.03-1.25c-0.33-0.29-0.67-0.58-1-0.87c-0.29-0.22-0.59-0.44-0.88-0.66c-0.22,0.08-0.52-0.12-0.59-0.29   c-0.53-0.31-1.07-0.62-1.6-0.93c-1.02-0.73-2.04-1.45-3.06-2.18c0-0.28-0.22-0.35-0.41-0.51c-0.28-0.25-1.13-0.73-1.13-1.13   c-0.27-0.41-0.55-0.82-0.82-1.24c-0.49-0.49-1.24-1.05-1.24-1.75c-0.22-0.22-0.22-0.48-0.41-0.72c-0.33-0.42-0.59-0.71-0.71-1.25   c-0.06-0.35,0.31-0.52,0.5-0.71c0-0.41,0.11-0.65,0.21-1.03c0.03-0.76,0.07-1.51,0.1-2.27c0.01-0.42,0.48-0.06,0.72-0.3   c0-0.58,0.3-0.71,0.72-1.03c0.05-0.2,0.11-0.4,0.16-0.6c0.13-0.34,0.29,0.14,0.36,0.29c0.21-0.06,0.29,0.08,0.47,0.18   c-0.02-0.13-0.04-0.26-0.06-0.39c0.1-0.17,0.21-0.34,0.31-0.51c0.37,0,0.59-0.17,0.83-0.42c0.17-0.17,0.16-0.23,0.24-0.44   c0.22-0.67-0.52-0.45-0.87-0.27c-0.13-0.17-0.2-0.15-0.4-0.18c-0.15-0.03-0.08-0.81-0.12-1.05c-0.38,0.06-0.52,0.2-0.82-0.1   c-0.26-0.26,0.52-1.73,0.52-2.28c0-0.46-0.2-0.8-0.31-1.22c-0.05-0.61-0.1-1.22-0.15-1.83c-0.25-0.73-0.5-1.47-0.75-2.2   c0-0.12-0.01-0.24-0.01-0.35c0.17-0.08,0.33-0.17,0.5-0.25c0.03-0.38,0.07-0.76,0.1-1.13c0.17-0.13,0.38-0.61,0.41-0.82   c0.26-0.13,0.34-0.16,0.45-0.4c0.06-0.14,0.11-0.29,0.17-0.43c-0.24-0.07-0.48-0.14-0.72-0.21c-0.14-0.21-0.27-0.41-0.41-0.62   c-0.51-0.51-1.03-1.03-1.54-1.54c-0.03-0.45-0.07-0.89-0.1-1.34c-0.1-0.21-0.21-0.41-0.31-0.62c0-0.28-0.65-0.38-0.88-0.49   c0.37-0.4,0.74-0.79,1.11-1.19c-0.06-0.46-0.5-1.34-0.71-1.84c-0.12-0.31-1.25-0.6-1.58-0.6c-0.6-0.4-0.58-1.88-0.52-2.47   c-0.09-0.07-0.18-0.14-0.28-0.21c-0.26-0.34-0.37-0.29-0.77-0.3c-0.45-0.02-0.14,0.72-0.4,0.72c-0.33-0.42-0.91-1.66-1.34-1.75   c-0.31,0.01-0.62,0.01-0.93,0.02c-0.14,0.06-0.27,0.13-0.41,0.19c-0.26,0-0.57-0.62-0.64-0.85c-0.44-0.85-0.88-1.7-1.31-2.55   c-0.45-0.38-0.89-0.76-1.34-1.13c-0.38-0.48-0.76-0.96-1.13-1.44c-0.01-0.33-0.36-1.18-0.62-1.44c0.33-0.6-0.28-0.73-0.32-1.25   c-0.08-1.11-0.21-2.18-0.5-3.28c0.03-0.17,0.07-0.34,0.1-0.51c-0.27-0.31-0.55-0.62-0.82-0.93c0.13-0.13,0.1-0.15,0.06-0.32   c-0.09-0.44,0.03-0.61,0.35-0.92c0-0.44,0.31-0.6,0.52-0.93c0.48-0.65,0.96-1.3,1.44-1.96c0.05-1.65,0.71-3.23,0.77-4.84l1.82-1.13   c1.43-1.37,2.58-2.98,3.93-4.43c0.61-1.17,1.22-2.33,1.83-3.5c0.96-2,1.94-3.96,2.38-6.15c0.27-0.7,0.54-1.39,0.81-2.09   c0-0.48,0-0.96,0-1.44c0.2-0.03,0.25-0.01,0.31-0.21c0-0.48,0-0.96,0-1.44c0.27-0.17,0.57-1.38,0.47-1.69   c0.29-1.25,0.35-2.39,0.35-3.67c0-0.51,0.15-0.92,0-1.44c0.3-0.22,0.65-0.4,1.03-0.41c0.57,0.38,1.03,0.73,1.65,1.03   c0.89,0.17,1.79,0.34,2.68,0.51c0.64-0.16,1.29-0.32,1.93-0.47c0.84-0.39,1.67-0.78,2.51-1.17c0.58-0.15,1.16-0.3,1.74-0.45   c1.2,0.19,2.36,0.58,3.5,1.07c0.52,0.31,1.03,0.62,1.54,0.93c0.54,0.24,1.04,0.53,1.49,0.88c0.09,0.08,0.17,0.17,0.26,0.25   L313.92,63.66z"/>
            <circle cx="324.25" cy="147.49" r="1.586"/>
        </g>
        <g id="__Döşemealtı">
            <path d="   M245.35,147.44c0.7,0,1.55-0.24,2.16-0.53c0.73-0.17,1.45-0.33,2.18-0.5c0-0.31,0.65-1.19,0.93-1.34c0.27-0.38,0.55-0.76,0.82-1.13   c0.1,0,0.21,0,0.31,0c0.56-0.56,0.94-0.31,1.65-0.31c0.1-0.24,0.21-0.48,0.31-0.72c0.14-0.1,0.27-0.21,0.41-0.31   c0.37,0,1.12,0.39,1.14-0.21c0-0.43,0.34-0.91-0.01-1.23c0.15-0.16,0.48-0.34,0.31-0.51c0.21-0.38,0.41-0.76,0.62-1.13   c-0.03-0.34-0.05-0.9-0.31-1.13c0-0.41,0-0.82,0-1.23c0-0.34,0.09-0.73-0.21-0.93c0.02-0.39,0.2-0.9-0.1-1.24   c0.03-0.21,0.07-0.41,0.1-0.62c-0.07-0.96-0.14-1.92-0.21-2.88c-0.07-0.69-0.14-1.37-0.21-2.06c-0.01-0.27-0.17-0.38,0-0.62   c-0.1-1.23-0.21-2.47-0.32-3.7c0.01-0.46-0.18-1.04,0.21-1.24c0-0.17,0-0.34,0-0.51c-0.4-0.22-0.21-0.42-0.21-0.82   c0.03-0.1,0.07-0.21,0.1-0.31c0.44-0.64,1.03-1.6,1.03-2.37c0.23-0.23,1.13-2.26,1.13-2.57c0.35-0.47,1.13-2.01,1.13-2.57   c0.26-0.46,0.41-0.83,0.59-1.35c0.17-0.51,0.55-0.87,0.55-1.43c0.24-0.3,0.83-1.27,0.72-1.65c0.96-0.45,1.69-1.17,2.06-2.16   c-0.26-0.43-0.43-0.84-0.51-1.34c0.03-0.27,0.07-0.55,0.1-0.82c-0.1-0.21-0.21-0.41-0.31-0.62c-0.11-0.52-0.13-0.54-0.52-0.93   c-0.07-0.41-0.17-0.78-0.41-1.13c0-0.53,0.24-0.91,0.31-1.44c0.07,0.07,0.14,0.14,0.21,0.21c0.41-0.72,0.74-0.63,1.24-1.13   c0.18,0,0.28,0.03,0.41-0.1c0.17,0,0.34,0,0.52,0c0.21-0.07,0.41-0.14,0.62-0.21c1.17,0.27,2.33,0.55,3.5,0.82   c0.34,0.1,0.6,0.49,0.93,0.52l-0.1-0.41c-0.16-0.87-0.32-1.74-0.48-2.61c0.04-0.24,0.01-1.65-0.13-1.84c0-0.29,0.19-1.83-0.12-1.83   c0.03-0.21,0.07-0.41,0.1-0.62c-0.34-0.48-0.02-0.76-0.1-1.24c-0.25-1.37-0.12-2.14,0.82-3.3c-2.4-0.58-4.81-1.17-7.21-1.75   c-1.89-0.1-3.78-0.21-5.66-0.31c-1.61-0.1-3.23-0.21-4.84-0.31c-0.91-0.23-2.06-0.19-2.99-0.1c-0.24-0.07-0.48-0.14-0.72-0.21   c-0.24-0.03-0.66-0.06-0.82,0.1c-0.89-0.31-1.77-0.39-2.68-0.32c-0.33,0.02-0.58-0.27-0.87-0.11c-1.01-0.27-2.03-0.54-3.04-0.8   c-0.17,0.03-0.34,0.07-0.52,0.1c-0.51-0.35-1.35-0.26-1.95-0.33c-1.37-0.18-2.66-0.47-4.02-0.7c-0.29-0.29-0.72-0.32-1.09-0.44   c-0.92-0.3-1.19-0.97-2.28-0.63c-0.28,0.1-0.49,1-0.53,1.28c-0.47,0.47-0.88,1.47-0.82,2.16c0.03,0.17,0.07,0.34,0.1,0.51   c0.01,0.42-0.1,0.9-0.31,1.24c0.03,0.51,0.07,1.03,0.1,1.54c-0.1,0.51-0.21,1.03-0.31,1.54c-0.17,0.89-0.34,1.79-0.51,2.68   c-0.33,0.33-0.34,1.2-0.41,1.65c-0.07,0.21-0.14,0.41-0.21,0.62c0.03,0.27,0.07,0.55,0.1,0.82c-0.14,0.68-0.34,1.15-0.21,1.85   c-0.26,0.34-0.18,0.74-0.1,1.13c-0.34,0.3-0.23,0.93-0.31,1.34c-0.09,0.61-0.18,1.23-0.27,1.84c-0.1,0.68-0.52,1.36-0.86,1.97   c-0.07,0.31-0.14,0.62-0.21,0.93c-0.1,0.24-0.21,0.48-0.31,0.72c-0.11,0.58,0.25,1,0.31,1.54c-0.03,0.17-0.07,0.34-0.1,0.51   c1,1.24,1.99,2.47,2.99,3.71c0.32,0.03,0.97,0.59,1.24,0.82c0.43,0.03,0.75,0.5,1.13,0.72c1.11,0.66,2.06,1.65,2.99,2.57   c0.24,0.21,0.48,0.41,0.72,0.62c0.17,0.38,0.34,0.76,0.52,1.13c0.37,0.37,1.17,1.64,1.24,2.16c0.03,0.17,0.07,0.34,0.1,0.51   c0.42,1.02,0.74,2.08,0.93,3.19c-0.06,0.45-0.13,0.89-0.19,1.34c0.03,0.07,0.06,0.14,0.09,0.2c-0.17,0.72-0.34,1.44-0.51,2.16   c0.26,0.34,0.1,1.14,0.02,1.55c-0.01,0.24-0.01,0.48-0.02,0.72c-0.52,1.06-1.03,2.13-1.54,3.19c-0.69,0.72-1.37,1.44-2.06,2.16   c-0.35,0-0.8,0.59-1.03,0.82c-0.43,0.44,1.13,0.56,1.34,0.62c0.24,0.07,0.48,0.14,0.72,0.21c0.17,0.27,0.34,0.55,0.51,0.82   c0.39,0.39,0.83,0.6,1.34,0.82c0.25-0.25,0.48-0.25,0.82-0.31c0.08,0.08,0.17,0.16,0.25,0.24c0.25,0.29,0.05,1.08,0.05,1.51   c0,0.52,1.22,0.72,1.54,0.93c0.34,0.22,1.26,0.19,1.75,0.21c0.14-0.04,0.28-0.07,0.42-0.11c0.39-0.01,0.59,0.2,0.91,0.42   c0.27,0,0.55,0,0.82,0c0.52-0.26,1.04-0.52,1.55-0.79c0.3-0.13,0.72,0.05,1,0.2c0.24,0.13,0.13,0.73,0.13,0.99   c0.15,0.25,0.3,0.49,0.45,0.74c0.05,0.23,0.11,0.47,0.16,0.7c-0.31,0.31-0.62,0.62-0.93,0.93c-0.02,0.11-0.04,0.22-0.06,0.33   c-0.17,0.39,0.43,0.76,0.68,1.01L245.35,147.44z"/>
            <circle cx="249.07" cy="127.61" r="1.586"/>
        </g>
        <g id="__Kepez">
            <path d="   M245.78,151.45c-0.09-0.79-0.18-1.57-0.27-2.36c-0.05-0.34-0.29-0.75-0.04-1.04c-0.04-0.16-0.24-0.62-0.12-0.62   c0.7,0,1.55-0.24,2.16-0.53c0.73-0.17,1.45-0.33,2.18-0.5c0-0.31,0.65-1.19,0.93-1.34c0.27-0.38,0.55-0.76,0.82-1.13   c0.1,0,0.21,0,0.31,0c0.56-0.56,0.94-0.31,1.65-0.31c0.1-0.24,0.21-0.48,0.31-0.72c0.14-0.1,0.27-0.21,0.41-0.31   c0.37,0,1.12,0.39,1.14-0.21c0-0.43,0.34-0.91-0.01-1.23c0.15-0.16,0.48-0.34,0.31-0.51c0.21-0.38,0.41-0.76,0.62-1.13   c-0.03-0.34-0.05-0.9-0.31-1.13c0-0.41,0-0.82,0-1.23c0-0.34,0.09-0.73-0.21-0.93c0.02-0.39,0.2-0.9-0.1-1.24   c0.03-0.21,0.07-0.41,0.1-0.62c-0.07-0.96-0.14-1.92-0.21-2.88c-0.07-0.69-0.14-1.37-0.21-2.06c-0.01-0.27-0.17-0.38,0-0.62   c-0.1-1.23-0.21-2.47-0.32-3.7c0.01-0.46-0.18-1.04,0.21-1.24c0-0.17,0-0.34,0-0.51c-0.4-0.22-0.21-0.42-0.21-0.82   c0.03-0.1,0.07-0.21,0.1-0.31c0.44-0.64,1.03-1.6,1.03-2.37c0.23-0.23,1.13-2.26,1.13-2.57c0.35-0.47,1.13-2.01,1.13-2.57   c0.26-0.46,0.41-0.83,0.59-1.35c0.17-0.51,0.55-0.87,0.55-1.43c0.24-0.3,0.83-1.27,0.72-1.65c0.96-0.45,1.69-1.17,2.06-2.16   c-0.26-0.43-0.43-0.84-0.51-1.34c0.03-0.27,0.07-0.55,0.1-0.82c-0.1-0.21-0.21-0.41-0.31-0.62c-0.11-0.52-0.13-0.54-0.52-0.93   c-0.07-0.41-0.17-0.78-0.41-1.13c0-0.53,0.24-0.91,0.31-1.44c0.07,0.07,0.14,0.14,0.21,0.21c0.41-0.72,0.74-0.63,1.24-1.13   c0.18,0,0.28,0.03,0.41-0.1c0.17,0,0.34,0,0.52,0c0.21-0.07,0.41-0.14,0.62-0.21c1.17,0.27,2.33,0.55,3.5,0.82   c0.34,0.1,0.6,0.49,0.93,0.52c0.52,0.79,1.24,2.17,1.24,3.19c0.23,0.6,0.46,1.21,0.69,1.81c0.22,0.8,0.43,1.61,0.65,2.41   c0.19,0.43,0.38,0.34,0.41,0.93c0.27,0.17,0.55,0.34,0.82,0.51c0.03,0.1,0.07,0.2,0.1,0.31c0.17,0.17,0.35,0.35,0.52,0.52   c0.3,0.48,0.36,1.6,0.41,2.16c0.07,0.21,0.14,0.41,0.21,0.62c0,0.39-0.01,0.69,0.21,1.03c-0.2,0.2,0.09,0.55,0.13,0.81   c0.1,0.76,0.19,1.52,0.29,2.28c0.29,1.38,0.58,2.76,0.87,4.15c0.19,1.26,0.38,2.52,0.57,3.78c0.45,1.24,0.89,2.47,1.34,3.71   c0.07,0.31,0.14,0.62,0.21,0.93c0.1,0.17,0.21,0.34,0.31,0.52c0.05,0.26,0.05,1.24,0.41,1.24c0.03,0.17,0.07,0.34,0.1,0.51   c0,0.34,0,0.69,0,1.03c-0.34,0.34-0.52,0.72-0.72,1.13c-0.13,0.26-0.36,0.56-0.62,0.62c-0.1,0.3-0.2,0.61-0.31,0.91   c-0.28,0.31-1.12,1.25-1.14,1.66c-0.25,0.28-1.19,1.34-0.9,1.52c1.23,0.68,2.31,0.97,3.18,2.09c0.24,0.41,0.48,0.82,0.72,1.24   c-0.07,0.25-0.21,0.62-0.01,0.81c0.21,0.18,0.42,0.35,0.63,0.52c0.22,0,0.7-0.02,0.73,0.29c0.01,0.17,0.03,0.33,0.04,0.5   c-0.57,0.82-1.27,0.91-2.11,1.27c-0.52,0.36-1.04,0.72-1.56,1.08c-0.37,0.26-0.75,0.52-1.12,0.78c0.05,0.2,0.11,0.39,0.16,0.59   c-0.2,0.41-0.53,1.36-1.09,1.36c-0.46,0-1.2-0.08-1.54-0.41c-0.43,0.01-0.64,0.03-0.93-0.31c-0.23-0.05-0.46-0.1-0.69-0.15   c-0.39-0.16-0.77-0.31-1.16-0.47c-0.24-0.14-0.48-0.27-0.72-0.41c-0.58-0.11-2.01-0.06-2.37-0.52c-0.5,0-0.74,0.39-1.24,0.48   c-0.79,0.08-1.57,0.16-2.36,0.24c-0.33,0.33-1.48,0.62-1.96,0.72c-0.55,0.21-1.1,0.41-1.65,0.62c-0.16,0.29-0.41,0.41-0.72,0.51   c-0.24-0.24-1.59-0.07-1.96,0c-0.32,0.06-0.84,0.02-1.03-0.21c-0.17,0.1-0.34,0.21-0.51,0.31c-0.47,0.04-1.81,0.32-2.16,0   c-0.51,0.14-0.95,0.3-1.46,0.45c-0.24,0.07-0.69,0.19-0.9,0.07c-0.28,0.12-0.96,0.43-1.03,0.72c-0.27-0.07-0.39-0.04-0.52-0.31   c-0.51,0.07-1.03,0.14-1.54,0.21C246.78,152.31,245.78,151.91,245.78,151.45z"/>
            <circle cx="268.13" cy="142.03" r="1.586"/>
        </g>
        <g id="__Muratpaşa">
            <path d="   M279.36,145.15c0.01,0.17,0.03,0.33,0.04,0.5c-0.57,0.82-1.27,0.91-2.11,1.27c-0.52,0.36-1.04,0.72-1.56,1.08   c-0.37,0.26-0.75,0.52-1.12,0.78c0.05,0.2,0.11,0.39,0.16,0.59c-0.2,0.41-0.53,1.36-1.09,1.36c-0.46,0-1.2-0.08-1.54-0.41   c-0.43,0.01-0.64,0.03-0.93-0.31c-0.23-0.05-0.46-0.1-0.69-0.15c-0.39-0.16-0.77-0.31-1.16-0.47c-0.24-0.14-0.48-0.27-0.72-0.41   c-0.58-0.11-2.01-0.06-2.37-0.52c-0.5,0-0.74,0.39-1.24,0.48c-0.79,0.08-1.57,0.16-2.36,0.24c-0.33,0.33-1.48,0.62-1.96,0.72   c-0.55,0.21-1.1,0.41-1.65,0.62l-0.31,0.31c-0.09,0.46-0.2,0.79-0.24,1.47c-0.13,0.5-0.08,1.13-0.28,1.62   c-0.33,0.36-0.72,0.09-1.03,0.41c-0.1,0.07-0.21,0.14-0.31,0.21c0.17,0.31,0.34,0.62,0.51,0.93c-0.18,0.18-0.07,0.28,0.06,0.46   c0.08,0.11,0.27-0.17,0.35-0.25c0.53,0,0.84-0.39,1.24-0.72c0.56-0.03,0.93-0.68,1.54-0.72c0.7-0.05,1.3,0.18,2.06,0.21   c0.24-0.19,0.64-0.52,0.91-0.45c0.14,0.05,0.29,0.09,0.43,0.14c-0.13,0.28,0.73,1.43,0.93,1.65c1.25,0.26,1.44,1.1,2.37,1.75   c0.23,0.38,0.46,0.75,0.69,1.13c0.72,0.71,1.56,1.15,2.5,1.04c0.01,0.78,0.94,1.01,1.54,1.34c0.04,0.37,0.1,0.28,0.36,0.48   c0.36-0.16,0.72-0.32,1.08-0.48c0.38-0.05,0.75-0.09,1.13-0.14c0.37-0.06,0.73-0.12,1.1-0.19c0.61-0.16,1.13-0.51,1.74-0.59   c0.24-0.02,0.91,0.5,1.18,0.71c0.02,0.3,0.09,0.27,0.26,0.46c0.15,0.17,0.23-0.36,0.35-0.46c0.22,0.43,0.96,0.34,1.34,0.21   c0.24,0.12,0.29,0.02,0.51-0.1c0.37,0.32,1.46,0.03,1.96-0.21c0.28,0.17,0.75,0.01,1.03-0.1c0.3,0.15,0.72,0.03,1.03-0.1   c0.28,0.03,0.85-0.14,1.13-0.1c-0.05-0.79-0.17-1.68-0.29-2.07c-0.02-0.08-0.38-0.07-0.54-0.09c-0.2-0.79-0.49-0.74-1.13-0.72   c-0.07-0.14-0.14-0.27-0.21-0.41c0.34-0.58,0.4-1.31-0.05-1.8c-0.11-0.12-0.55,0.25-0.68,0.35c-0.6,0-0.94,0.22-1.44,0.51   c-0.39,0.23-0.87-0.28-1.17-0.55c0.05-0.57,0.1-1.13,0.15-1.7c-0.03-0.17,0.14-0.34,0.1-0.51c0.07-0.17-0.07-0.34,0-0.51   c0.06-0.93,0.12-1.86,0.18-2.79c0.19-1.11,0.22-2.04,0.13-3.08c-0.02-0.08-0.97,0.02-1.13,0c-0.14-0.14,0.24-0.69,0.1-0.82   c0-0.47-0.1-0.41-0.47-0.75c-0.08-0.13-0.33,0.01-0.45,0.07L279.36,145.15z"/>
            <circle cx="274.1" cy="154.49" r="1.586"/>
        </g>
        <g id="__İbradı">
            <path d="   M382.65,128.64c1.21,0.56,2.82,1.47,4.11,1.7c1.11,0.45,2.21,0.91,3.32,1.36c0.94,0.31,2.09,0.19,3.07,0.19c0.62,0,1.24,0,1.85,0   c1.87-0.3,3.85-2.32,5.36-3.4c0.27-0.1,0.55-0.21,0.82-0.31c0.42-0.44,0.83-0.88,1.25-1.33c0.41-0.31,0.82-0.63,1.23-0.94   c0.41-0.24,0.82-0.48,1.24-0.72c1.13-0.87,1.83-2.18,2.7-3.28c1.26-1.48,2.53-2.96,3.79-4.44c0.93-1.41,1.85-2.81,2.78-4.22   c0.14-0.31,0.27-0.62,0.41-0.93c0.27-0.31,0.55-0.62,0.82-0.93c0.21-0.34,0.41-0.69,0.62-1.03c0.1-0.45,0.2-0.89,0.3-1.34   c-0.03-0.24-0.06-0.48-0.09-0.72c-0.24-0.37-0.4-0.73-0.74-1c-0.47-0.32-0.95-0.64-1.42-0.95c-0.55-0.27-1.1-0.55-1.65-0.82   c-0.55-0.1-1.1-0.21-1.65-0.31c-0.94-0.31-1.71-0.8-2.68-1.01c-0.62-0.04-1.23-0.08-1.85-0.12c-0.31-0.1-0.62-0.2-0.93-0.3   c-0.31-0.11-0.62-0.21-0.92-0.32c-2.15-0.2-4.4-0.09-6.18-1.54c-1.37-1.04-2.73-2.08-4.1-3.12c-0.53-0.38-1.51-0.94-1.67-1.62   c-0.31-0.24-0.62-0.48-0.93-0.72c-0.73-0.84-1.26-1.81-1.75-2.78c-0.79-1-1.58-1.99-2.37-2.99c-0.33-1.28-0.54-2.61-0.78-3.92   c-0.12-0.55-0.24-1.09-0.35-1.64c-0.89-1.51-1.79-3.02-2.68-4.53c-0.75-0.91-1.35-2.04-2.57-2.27c-0.99-0.87-1.97-1.73-2.96-2.6   c-0.56-0.4-1.21-0.87-1.57-1.42c-0.39,0-0.63,0.08-0.81-0.31c-0.04-0.31-0.08-0.62-0.12-0.92c-1.34-1.33-1.98-4.26-1.54-6.08   c0.02-0.36,0.04-0.73,0.05-1.09c0.14-0.15,0.46-0.55,0.55-0.51l-0.2,0.42c-1.34,0.82-2.61,2.52-3.71,3.76   c-0.62,1.2-1.24,2.39-1.86,3.59c-0.39,0.77-0.78,1.54-1.17,2.32c-0.12,0.3-0.25,0.59-0.37,0.89c-0.83,1.13-1.49,2.35-2.27,3.5   c-0.17,0.51-0.34,1.03-0.51,1.54c-0.52,1.03-1.03,2.06-1.54,3.09c-0.45,0.72-0.89,1.44-1.34,2.16c-0.24,0.62-0.48,1.24-0.72,1.85   c-0.38,0.76-0.76,1.51-1.13,2.27c-0.37,0.73-0.09,1.7-0.13,2.47c-0.04,0.57-0.09,1.15-0.13,1.72c0.28,1.64,0.34,3.26,1.08,4.77   c0.68,1.41,2.12,2.26,2.71,3.73c0.06,0.3,0.12,0.61,0.18,0.91c0.17,0.55,0.34,1.1,0.51,1.65c0.15,1.2,0.38,2.22,0.63,3.42   c0.17,0.83,0.2,1.8,0.6,2.56c0.43,0.79,0.94,1.39,1.54,2.06c0.18,0.2,0.41,0.46,0.41,0.72c0.27,0.21,1.03,0.77,1.03,1.13   c1.2,1.2,2.4,2.4,3.6,3.6c0.91,0.77,1.82,1.54,2.74,2.32c2.33,2.15,4.59,4.32,7.05,6.33L382.65,128.64z"/>
            <circle cx="398.71" cy="114.43" r="1.586"/>
        </g>
        <g id="__Manavgat">
            <path d="M421.78,171.07c0.14-0.62-0.5-1.85-0.93-2.32   c0.26-0.26-0.65-1.57-0.73-1.95c-0.36-1.7-2.33-3.8-3.29-5.26c-0.3-0.46-0.71-0.87-0.82-1.39c-0.72-0.72-0.67-0.78-1.13-1.39   c-0.68-0.66-1.36-1.32-2.04-1.98c-0.32-0.23-0.63-0.47-0.95-0.7c-1-0.17-1.99-0.34-2.99-0.51c-0.76,0.03-1.51,0.07-2.27,0.1   c-0.5-0.05-1.01-0.1-1.51-0.15c-0.78,0.11-1.73,0.09-2.51-0.07c-1.3-0.44-2.61-0.89-3.91-1.33c-0.41-0.21-0.82-0.41-1.24-0.62   c-1.02-1.02-0.94-2.45-1.02-3.79c-0.07-0.35-0.14-0.7-0.22-1.05c-0.27-0.5-0.53-1-0.79-1.51c-0.35-0.46-0.71-0.92-1.06-1.38   c-0.17-0.31-0.34-0.62-0.52-0.93c-0.14-0.45-0.27-0.89-0.41-1.34c-0.07-0.16-0.3-0.62-0.41-0.62c-0.1-0.38-0.21-0.76-0.31-1.13   c-1.2-1.2-2.23-2.43-3.3-3.71c-0.9-1.07-1.86-1.99-2.88-2.88c-0.54-0.73-1.08-1.47-1.62-2.2c-0.42-0.74-0.85-1.49-1.27-2.23   c-0.08-0.34-0.14-0.52-0.32-0.82c-0.23-0.43-0.47-0.86-0.7-1.29l-1.04-0.47c-2.46-2-4.71-4.18-7.05-6.33   c-0.91-0.77-1.82-1.54-2.74-2.32c-1.2-1.2-2.4-2.4-3.6-3.6c0-0.36-0.76-0.92-1.03-1.13c0-0.26-0.23-0.52-0.41-0.72   c-0.6-0.67-1.12-1.27-1.54-2.06c-0.41-0.76-0.43-1.73-0.6-2.56c-0.25-1.2-0.48-2.22-0.63-3.42c-0.17-0.55-0.34-1.1-0.51-1.65   c-0.06-0.3-0.12-0.6-0.18-0.91c-0.59-1.47-2.02-2.32-2.71-3.73c-0.73-1.51-0.8-3.14-1.08-4.77c0.04-0.57,0.09-1.15,0.13-1.72   c0.04-0.77-0.25-1.74,0.13-2.47c0.38-0.76,0.75-1.51,1.13-2.27c0.24-0.62,0.48-1.24,0.72-1.85c0.45-0.72,0.89-1.44,1.34-2.16   c0.51-1.03,1.03-2.06,1.54-3.09c0.17-0.51,0.34-1.03,0.51-1.54c0.78-1.15,1.43-2.37,2.27-3.5c0.12-0.3,0.25-0.59,0.37-0.89   c0.39-0.77,0.78-1.54,1.17-2.32c0.62-1.2,1.24-2.39,1.86-3.59c1.1-1.24,2.37-2.94,3.71-3.76c0.44-0.44-1.45-0.76-1.75-0.88   c-0.14-0.17-0.27-0.34-0.41-0.52c-1.03-0.79-2.06-1.58-3.09-2.37c-0.99-0.66-2.09-1.02-2.89-1.95c-0.85-1.93-1.7-3.86-2.55-5.78   c-0.2-0.81-0.12-1.66-0.42-2.42c-0.49-0.19-0.97-0.37-1.46-0.56c-0.48-0.17-0.97-0.34-1.45-0.51c-1.68-0.6-3.46-0.9-5.25-0.84   c-0.3,0.02-0.05,0.59-0.31,0.64c-0.17,0.06-0.35,0.12-0.52,0.19c-0.63,0-0.99-0.18-1.54,0.21c-0.43-0.43-1.51-0.36-2.06-0.21   c-1.34,0.38-2.68,0.76-4.02,1.13c-1.03,0.45-2.06,0.89-3.09,1.34c-0.18-0.01-0.36-0.03-0.54-0.04c-0.64,0.08-1.29,0.17-1.93,0.25   c-1.2,0.35-2.4,0.7-3.6,1.05c-0.9,0.3-1.79,0.6-2.69,0.91c-1.07,0.2-2.13,0.4-3.2,0.6c-2.08,0.44-4.1,1-6.1,1.69   c-0.95,0.33-1.68,0.97-2.66,1.21c-0.1,0.31-0.56,0.52-0.82,0.74c-0.24,0.23-0.48,0.47-0.72,0.7c-0.5,0.25-0.99,0.5-1.49,0.75   c-1.03,0.45-2.06,0.89-3.08,1.34c-0.26,0.16-0.52,0.33-0.78,0.49c-0.16-0.01-0.32-0.03-0.48-0.04c-0.15,0.2-1.11,0.45-1.37,0.45   c-0.08,0.08-0.16,0.17-0.24,0.25c-0.28,0.22,0.06,1.54,0.24,1.81c0.1,0.55,0.21,1.1,0.31,1.65c0.38,0.96,0.76,1.92,1.13,2.88   c0.13,0.38,0.26,0.76,0.39,1.14c0.35,1.13,0.7,2.26,1.05,3.4c0.48,0.96,0.96,1.92,1.44,2.88c-0.2,0.74,0.29,1.39,0.41,2.06   c0.25,1.38,0.44,2.87,1.34,4.02c0.51,0.72,1.03,1.44,1.54,2.16c0.64,1.27,1.32,2.45,2.17,3.61c0.78,1.08,0.82,2.53,0.82,3.8   c-0.02,0.42-0.04,0.85-0.07,1.27c0.28,2.57-0.53,6.19,0.79,8.41c0.48,0.72,0.96,1.44,1.44,2.16c2.17,2.06,4.35,4.13,6.52,6.19   c1.12,1.06,1.78,2.36,2.75,3.49c1.82,2.27,3.64,4.54,5.46,6.8c0.99,1.36,1.03,3.38,1.34,4.94c-0.17,0.41-0.34,0.82-0.51,1.24   c-0.35,0.19-1.1,1.33-1.32,1.71c-0.11,0.32-0.22,0.65-0.33,0.97c-0.47,0.47-0.62,1.13-1.03,1.54c0,0.62-0.12,1.15-0.21,1.75   c0,0.93,0,1.85,0,2.78c-0.14,0.76-0.27,1.51-0.41,2.27c-0.72,1.92-1.44,3.84-2.16,5.77c-0.73,0.74-1.47,1.48-2.2,2.22   c-0.39,0.38-0.61,0.02-0.99-0.27c-0.12,0.7-0.83,1.56-1.34,2.06c0,1.28-0.83,1.53-1.65,2.37c-0.36,0.36,0.07,1.15,0.18,1.56   c0.37,1.36,1.69,1.47,2.7,2.14c0.39,0.39,0.79,0.78,1.18,1.17c0.14,0.19-0.58,0.67-0.72,0.82c0.05,0.2,0.1,0.39,0.15,0.59   c-0.33,0.91,0.27,1.69,0.72,2.47c0.27-0.02,0.31,0.07,0.51,0.21c0.19,0.19,0.31,0.41,0.31,0.67c0,0.34,0.21,0.14,0.31,0.46   c-0.02,0.49-0.38,1.34-0.62,1.65c-0.06,0.23,0.22,0.31,0.31,0.72c0.1,0.48-0.29-0.02-0.82,1.13c0.55,0.05,1.73,0.08,2.27,0.1   c1.01,0.05,2.01,0.3,2.99,0.62c0.4,0.15,0.87,0.17,1.19,0.45c0.13,0.11,0.34,0.43,0.46,0.48c0.59-0.39,1.17-0.29,1.85-0.31   c0.41,0.06,0.93,0.04,1.34,0.1c1.09-0.03,2.16,0.1,3.19,0.41c0.14,0.14,0.27,0.27,0.41,0.41c1.37-0.37,2.92,0.02,4.32,0.22   c0.86,0.12,1.67,0.28,2.48,0.61c0.66-0.17,2.14,0.56,2.78,0.82c0.24,0.07,0.48,0.14,0.72,0.21c0.95,0.43,1.91,0.86,2.86,1.29   c0.38,0.15,0.77,0.31,1.15,0.46c0.45,0.45,0.89,0.89,1.34,1.34c0.62,0.48,1.24,0.96,1.85,1.44c0.41,0.55,0.82,1.1,1.24,1.65   c0.04,0.55-0.14,0.17-0.1,0.72c-0.14,0.2-0.15,0.28-0.31,0.31c-0.21-0.17-0.06,0.31-0.52,0.21c-0.02,0.07-0.29,0.24-0.31,0.31   c0.1,0.53,0.7,0.63,1.13,0.21c0.16-0.09,0.36-0.02,0.52-0.1c0.55,0.21,1.1,0.41,1.65,0.62c0.48,0.41,0.96,0.82,1.44,1.24   c2.19-0.06,4.04,0.49,6.1,1.17c0.75,0.28,1.5,0.57,2.25,0.85c0.27,0.09,0.6,0.34,0.83,0.14c0.7,0,2.31,0.83,2.77,1.34   c-0.03,0.1-0.07,0.21-0.1,0.31c0.86,0,1.4,0.32,2.16,0.62c1.35,0.53,2.61,1.27,3.91,1.96c2.18,1.14,4.4,2.13,6.46,3.46   c0.89,0.57,1.67,1.28,2.47,1.98c0.6,0.49,1.19,0.98,1.79,1.46c0.23,0.36,0.62,0.34,1.03,0.62c0.52,0.19,0.69,0.55,1.2,0.59   c0.87,0.46,1.74,0.91,2.61,1.37c0.21,0.52,1.18,1.24,1.81,1.24c0.31-0.21,0.58-0.5,0.97-0.51c0.17-0.14,0.34-0.27,0.52-0.41   c0.15,0.41,0.23,0.93,0.72,1.03c0.17,0.22,0.23,0.41,0.52,0.41c0.67-0.32,0.53-0.42,1.03-0.93c0.2,0.2,0.16,0.7,0.62,0.59   c0.24-0.06,1.23-0.27,1.23-0.59c0-0.61-0.38-1.03,0.24-1.5c0.24-0.15,0.3-0.11,0.59-0.04c0.6-0.51,1.51-1.42,2.37-1.44   c0.25-1.1,1.25-1.18,2.16-1.44c0-0.37-0.15-0.72,0.52-0.62c0.24-0.58,0.48-1.17,0.72-1.75c0.01-0.26,0.02-0.52,0.03-0.78   c0.03-0.19,0.05-0.37,0.08-0.56c0.13-0.22,0.22-0.25,0.21-0.51c0.41-0.43,1.09-1.03,1.13-1.65l-0.03-0.23   c-0.04,0.01-0.17-0.61-0.18-0.8c-0.03-0.31-0.07-0.62-0.1-0.93c0.06-0.51,0.12-1.03,0.18-1.54c0.28-1.3,0.56-2.61,0.85-3.91   c0.19-1.18,0.38-2.36,0.57-3.54c0.28-0.74,0.55-1.47,0.83-2.21L421.78,171.07z M392.86,160.03c-0.47,0.14-2,0.38-2.38,0.08   c-0.49,0.19-0.75,0.12-0.85,0.64c-0.09,0.06-0.19,0.12-0.28,0.18c0.13,0.17,0.72,0.93,0.42,1.07c-0.26,0.19,0.02,0.51-0.22,0.27   c-0.38-0.38-0.95-1-1.54-0.92c-0.3-0.18-0.29-0.33-0.62-0.1c0.05-0.21,0.09-0.42,0.14-0.62c0.12-0.17-0.29-0.15-0.45-0.2   c-0.19,0.19-0.39,0.33-0.42,0.61c-0.01,0.15-0.03,0.3-0.04,0.45c0.51,0.36,0.71,0.37,1.29,0.17c0.14,0.38,0.34,0.77,0.13,1.15   c-0.27,0.38-0.72,0.49-1.15,0.62c-0.15,0.01-0.3,0.03-0.44,0.04c-0.36-0.59-0.84-1.66-0.91-2.33c-0.03-0.3-0.35-0.41-0.05-0.66   c0.15-0.1,0.1-0.02,0.05-0.27c0.26-0.11,0.24-0.17,0.51,0c-0.13-0.22-0.43-0.5-0.21-0.72c0.17,0.13,0.99,0.97,0.91,0.42   c-0.02-0.31-0.05-0.63-0.07-0.94c0-0.02-0.01-0.03-0.01-0.05c0-0.09-0.01-0.17-0.01-0.26c0.01,0.1,0.01,0.2,0.02,0.3   c0.04,0.16,0.08,0.32,0.13,0.48c0.21-0.2,0.34-0.33,0.56-0.09c0.12,0.17,0.04,0.13,0.33,0.14c-0.02,0.3,0.19,1.15,0.49,1.11   c0.08,0.08,0.15,0.15,0.23,0.23c0.1-0.11,0.19-0.22,0.29-0.33c0.08-0.03,0.15-0.05,0.23-0.08c0-0.33-0.3-0.36-0.08-0.7   c0.13-0.18,0.26-0.36,0.39-0.54c0.34-0.34,0.69-0.69,1.03-1.03c0.22-0.11,0.29-0.25,0.51-0.1c0-0.03,0-0.07,0.01-0.1   c0.02-0.33,0.15-0.9-0.24-1.09c-0.24-0.11-0.78-0.43-0.97-0.15c-0.09,0.16-0.05,0.18-0.24,0.22c0.02,0.29,0.04,0.57,0.06,0.86   c-0.55,0.32-1.48,0.13-1.61-0.39c-0.07-0.05-0.13-0.1-0.2-0.15c0.14-0.31,0.21-1.03,0.52-1.13c-0.08-0.04-0.16-0.09-0.24-0.13   c-0.2-0.1-0.4-0.2-0.6-0.3c-0.37,0.23-0.62-0.29-0.68-0.63c-0.04-0.06-0.09-0.12-0.13-0.18c0.07-0.01,0.14-0.03,0.21-0.04   c0.1,0.01,0.2,0.03,0.31,0.04c0.06-0.24,0.31-0.43,0.52-0.41c-0.02-0.03-0.03-0.06-0.04-0.08c-0.08-0.14-0.31-0.37-0.21-0.5   c0.11-0.14,0.18-0.15,0.15-0.34c0.79-0.42,0.82-1.39,0.52-2.16c0.21,0.34,0.41,0.69,0.62,1.03c-0.43,0.66-0.21,2.02-0.51,2.37   c0.1,0.31,0.2,0.62,0.31,0.92c0.1,0.28,0.16,0.77,0.36,0.88c0.21,0.08,0.09,0.53,0.2,0.23c0.16-0.42,0.75-1.19,0.47-1.52   c0.1,0.04,0.19,0.07,0.29,0.11c0.23,0.01,0.46,0.03,0.69,0.04c0.05,0.09,0.1,0.18,0.15,0.26c0.2,0.17,0.35,0.38,0.62,0.41   c0.14,0.21,0.27,0.41,0.41,0.62c0.21,0.27,0.07,0.67,0.51,0.72c0.09,0.46-0.07,0.87,0.07,1.33c0.09,0,0.18,0.01,0.24,0.01   c-0.07,0.03-0.14,0.07-0.21,0.1c-0.01-0.04-0.03-0.07-0.04-0.11c-0.28-0.01-0.61-0.02-0.48,0.14c0.34,0.41,0.76,0.73,1.26,0.97   C392.95,160,393,159.99,392.86,160.03z M394.9,150.99c-0.73,0.16-4.3-2.7-5.33-2.25c-0.56,0.24-0.1,1.12-1.12,0.93   c0.21-0.65,0.07-1.58-0.22-2.14c0.13,0.18,0.34,0.24,0.48,0.36c0.19-0.35,0.3-0.43,0.73-0.41c-0.05-0.41-0.11-0.9-0.5-0.91   c0.55,0.01,0.34,0.03,0.76,0.07c0.45,0.04,0.72,0.49,1.39,0.43c-0.01-0.2,0.59-0.27,0.55-0.47c0.07-0.02-0.1-0.5-0.27-0.43   c-0.12-0.62,0.24-1.17,0.17-2.23c0.06-0.09,0.25-0.16,0.31-0.24c0.13-0.06,0.32-0.09,0.46-0.13c-0.33,0.37-1.1,0.46,0.02,0.87   c-0.14,0.1-0.23,0.3-0.38,0.29c0.06,0.6-0.6,1.36,0.26,1.56c-0.44,0.11-0.43,0.37-0.4,0.73c0.02,0.19,0.31,0.21,0.35,0.33   c-0.03-0.09,0.09,0.73,0.05,0.68c0.08,0.1,0.9,0.91,1.61,1.36c0.4,0.25,1.03-0.72,1-0.34c-0.15,1.79,0.22,0.36,0.82,0.72   C395.67,149.78,394.96,150.98,394.9,150.99z"/>
            <circle cx="374.92" cy="171.9" r="1.586"/>
        </g>
    </g>
</svg>