<?xml version="1.0" encoding="UTF-8"?>
<!DOCTYPE svg PUBLIC "-//W3C//DTD SVG 1.1//EN" "http://www.w3.org/Graphics/SVG/1.1/DTD/svg11.dtd">
<svg version="1.1" id="HaritaCizim" xmlns="http://www.w3.org/2000/svg" xmlns:xlink="http://www.w3.org/1999/xlink" x="0px" y="0px" viewBox="0 0 500 550" preserveAspectRatio="none">
    <defs id="__def">
        <radialGradient id="f">
            <stop offset="0" stop-color="white" stop-opacity="1"/>
            <stop id="STOP1" offset=".4" stop-opacity="1"/>
            <stop offset="1" stop-color="white" stop-opacity=".2"/>
        </radialGradient>
        <filter id="__flt1" x="0" y="0" width="200%" height="200%" filterUnits="objectBoundingBox">
            <feGaussianBlur in="SourceAlpha" stdDeviation="3" result="blur1"/>
            <feSpecularLighting result="specOut" in="blur1" specularConstant="1.5" specularExponent="20" lighting-color="#bbbbbb">
                <feDistantLight azimuth="45" elevation="30"/>
            </feSpecularLighting>
            <feComposite in="specOut" in2="SourceAlpha" operator="in" result="specOut"/>
            <feComposite in="SourceGraphic" in2="specOut" operator="arithmetic" k1="0" k2="1" k3="1" k4="0"/>
        </filter>
        <filter id="__flt2" x="0" y="0" width="200%" height="200%" filterUnits="objectBoundingBox">
            <feGaussianBlur in="SourceAlpha" stdDeviation="3" result="blur1"/>
            <feSpecularLighting result="specOut" in="blur1" specularExponent="20" lighting-color="#bbbbbb">
                <fePointLight x="-2000" y="100" z="2000"/>
            </feSpecularLighting>
            <feComposite in="specOut" in2="SourceAlpha" operator="in" result="specOut"/>
            <feComposite in="SourceGraphic" in2="specOut" operator="arithmetic" k1="0" k2="1" k3="1" k4="0"/>
        </filter>
        <filter id="__flt3" x0="-50%" y0="-50%" width="200%" height="200%" filterUnits="objectBoundingBox">
            <feGaussianBlur in="SourceAlpha" stdDeviation="3" result="blur"/>
            <feOffset in="blur" dx="0" dy="0" result="offsetBlur"/>
            <feSpecularLighting in="blur" surfaceScale="4" specularConstant=".5" specularExponent="20" lighting-color="flavor" result="specOut">
                <fePointLight x="-5000" y="-10000" z="5000"/>
            </feSpecularLighting>
            <feComposite in="specOut" in2="SourceAlpha" operator="in" result="specOut"/>
            <feComposite in="SourceGraphic" in2="specOut" operator="arithmetic" k1="0" k2="1" k3="1" k4="0" result="litPaint"/>
            <feMerge>
                <feMergeNode in="offsetBlur"/>
                <feMergeNode in="litPaint"/>
            </feMerge>
        </filter>
        <filter id="__flt4" x0="-50%" y0="-50%" width="200%" height="200%">
            <feGaussianBlur in="SourceAlpha" stdDeviation="2" result="blur"/>
            <feOffset dy="-1" dx="-1"/>
            <feComposite in2="SourceAlpha" operator="arithmetic" k2="-1" k3="1" result="hlDiff"/>
            <feFlood flood-color="white" flood-opacity=".7"/>
            <feComposite in2="hlDiff" operator="in"/>
            <feComposite in2="SourceGraphic" operator="over" result="withGlow"/>
            <feOffset in="blur" dy="3" dx="3"/>
            <feComposite in2="SourceAlpha" operator="arithmetic" k2="-1" k3="1" result="shadowDiff"/>
            <feFlood flood-color="black" flood-opacity="1"/>
            <feComposite in2="shadowDiff" operator="in"/>
            <feComposite in2="withGlow" operator="over"/>
        </filter>
        <filter id="__golge1" x="0" y="0" width="200%" height="200%" filterUnits="userSpaceOnUse">
            <feOffset result="offOut" in="SourceAlpha" dx="8" dy="8"/>
            <feGaussianBlur result="blurOut" in="offOut" stdDeviation="3"/>
            <feBlend in="SourceGraphic" in2="blurOut" mode="normal"/>
        </filter>
    </defs>
    <g id="__Komsular" display="none">
        <path fill-rule="evenodd" clip-rule="evenodd" fill="none" stroke="#000000" stroke-miterlimit="10" d="M107.22,134.9   c-2.74-1.23-7.34-1.3-9.07-4c-1.44-0.25-1.13,2.67-3.04,3.3c-1.63,0.53-4.03,0.69-5.72,0.94c-4.32,0.64-7.03-1.28-10.46-3.13   c-1.61-0.87-3.15-1.92-4.47-3.3c-1.08-1.14-1.89-3.2-3.31-3.86c-0.78-0.36-1.86,0.14-2.63-0.23c-0.88-0.42-1.04-1.44-1.91-2.08   c-1.86-1.39-3.02-0.19-5.04-0.01c-1.85,0.17-2.13,0.11-2.66-1.85c-1.31-0.36-3.62,0.83-5.12,0.96c-3.25,0.29-3.45-0.31-5.82-1.48   c-2.09-1.03-3.46-0.3-5.47-0.05c-2.8,0.35-2.33-0.84-3.52-2.79c-0.78-1.28-1.82-2.31-3.08-3.1c-2.29-1.44-5.02-0.37-7.38-1.72   c-1.7-0.97-2.64-2.98-4.51-3.75c-1.74-0.72-3.52-0.34-5.47-0.24c-3.26,0.17-7.28,0.5-10.17-0.78c-1.92-0.85-2.12-1.31-4.03-0.83   c-1.43,0.36-2.69,0.95-4.34,1.13"/>
        <path fill-rule="evenodd" clip-rule="evenodd" fill="none" stroke="#000000" stroke-miterlimit="10" d="M38.04,373.83   c-6.41-0.19-12.06-2.86-17.6-5.75c-3.35-1.75-5.63-2.5-9.74-2.33c-3.71,0.15-6.98,1.18-10.7,1.19"/>
        <path fill-rule="evenodd" clip-rule="evenodd" fill="none" stroke="#000000" stroke-miterlimit="10" d="M124.81,497.69   c0,1.72-1.52,3.49-2.15,4.98c-0.73,1.72-1.19,3.37-1.64,5.24c-0.87,3.58-2.53,6.38-3.86,9.7c-1.23,3.05-4.01,6.2-4.48,9.54   c-0.31,2.15-0.44,3.8-1,5.9c-0.41,1.54-1.04,3.47-1.13,5.05c-0.09,1.56,0.78,2.86,0.72,4.28c-0.06,1.42-0.87,2.48-1.19,3.8"/>
        <path fill-rule="evenodd" clip-rule="evenodd" fill="none" stroke="#000000" stroke-miterlimit="10" d="M436.96,278.5   c2.23,0.55,3.1-0.41,5.05-0.9c1.82-0.46,4.21,0.56,5.9-0.27c0.66-0.32,1.16-1.49,1.89-1.93c0.97-0.58,1.79-0.59,2.86-0.71   c2.32-0.26,3.24-0.14,5.28-1.14c1.48-0.73,3.03-1.62,4.52-2.37c2.64-1.32,3.85-0.93,6.79-0.7c4.26,0.33,7.59-0.62,9.85,3.69   c0.71,1.35,0.97,3.06,2.37,3.8c0.87,0.45,1.68,0.08,2.56,0.3c0.91,0.23,1.6,0.77,2.56,1.01c2.14,0.52,9.03,0.74,10.75-0.53"/>
        <path fill-rule="evenodd" clip-rule="evenodd" fill="none" stroke="#000000" stroke-miterlimit="10" d="M435.77,322.48   c0.04,0.24-0.03,0.43,0.04,0.67c3.95,1.97,3.92,6.06,9.01,5.52c2.09-0.22,3.4,0.45,5.4,0.75c2.04,0.31,3.46-0.33,5.35,0.84   c3.07,1.9,5.26,5.33,8.2,7.2c1.54,0.97,3.26,1.41,5.04,1.96c1.6,0.49,3.6-0.03,4.99,0.71c0.89,0.47,1.56,1.78,2.32,2.38   c0.88,0.7,1.9,1.18,2.86,1.9c2.02,1.51,4.32,2.76,6.42,4.03c2.14,1.3,4.22,1.55,6.53,2.52c2.28,0.96,3.96,3.07,6.12,4.33"/>
        <text transform="matrix(0.2709 -0.9626 0.9626 0.2709 32.5405 256.4233)" font-family="'MyriadPro-Regular'" font-size="14.2642">ARTVİN</text>
        <text transform="matrix(0.7137 0.7005 -0.7005 0.7137 17.8069 446.1726)" font-family="'MyriadPro-Regular'" font-size="14.2642">ERZURUM</text>
        <text transform="matrix(0.6442 -0.7649 0.7649 0.6442 323.2993 447.0762)" font-family="'MyriadPro-Regular'" font-size="14.2642">KARS</text>
        <text transform="matrix(0.6109 0.7917 -0.7917 0.6109 443.4258 282.2288)" font-family="'MyriadPro-Regular'" font-size="14.2642">ERMENİSTAN</text>
        <text transform="matrix(0.7417 0.6707 -0.6707 0.7417 242.1218 53.4702)" font-family="'MyriadPro-Regular'" font-size="14.2642">GÜRCİSTAN</text>
        <radialGradient id="SVGID_1_" cx="348.6602" cy="239.2698" r="20.1055" gradientUnits="userSpaceOnUse">
            <stop offset="0" style="stop-color:#4554A4"/>
            <stop offset="1" style="stop-color:#FFFFFF"/>
        </radialGradient>
        <path fill-rule="evenodd" clip-rule="evenodd" fill="url(#SVGID_1_)" stroke="#000000" stroke-miterlimit="10" d="M339.44,232   c-0.14,0.12-0.28,0.25-0.42,0.37c0.48,0.87,0.95,1.74,1.43,2.62c-0.07,0.95-0.14,1.9-0.21,2.85c0.15,1.21,0.45,2.41-0.48,3.11   c-0.56,0.23-1.12,0.46-1.69,0.69c-1.43,1.03-2.85,2.06-4.28,3.09c-1.26,0.35-2.32,0.55-2.72,1.94c0.02,0.29,0.04,0.59,0.07,0.88   c0.19,0.37,0.21,0.27,0.04,0.74c0.75,0.75,1.02,1.33,2.13,1.44c0.81,0.09,2.51,0.31,3.1-0.49c0.95,0.16,1.9,0.32,2.85,0.48   c1.2,0.13,2.92-0.54,3.8,0.48c0.89-0.2,2.43-0.28,3.33-0.48c0.66-1.19,0.67-2.49,1.32-3.68c0.8,0.8,4.15,1.54,5.81,2.61   c0.52,0.51,0.29-0.84,1-1.22c0.41-0.21,0.69-0.46,1.14-0.33c0.98-0.91,1.96-1.82,2.93-2.73c0.81-0.25,0.7-0.99,1.58-1.07   c0-0.08,0-0.16,0.01-0.24c0.04-1.47-0.34-2.99,0.71-4.04c-0.45-0.83-0.45-1.37-0.45-2.29c0.46-0.69,0.43-1.8,0.25-2.59   c0.89-1.5,1.3-3.13-0.03-4.63c0.06-0.45-0.02-0.81-0.37-1.11c-0.81-0.05-0.46,0.21-1.05-0.56c-1.58-0.16-3.17-0.32-4.75-0.48   c-3.26,0.43-7.2,1.12-10.46,1.55C342.05,229.24,339.69,229.65,339.44,232z"/>
        <radialGradient id="SVGID_2_" cx="359.9946" cy="314.0823" r="50.3463" gradientUnits="userSpaceOnUse">
            <stop offset="0" style="stop-color:#4058A7"/>
            <stop offset="1" style="stop-color:#FFFFFF"/>
        </radialGradient>
        <path fill-rule="evenodd" clip-rule="evenodd" fill="url(#SVGID_2_)" stroke="#000000" stroke-miterlimit="10" d="M331.64,297.04   c0.89-0.03,1.58-0.07,2.38-0.48c1.22,0.64,2.35,1.42,3.57,1.9c0.88-0.98,0.56-0.36,1.43-0.48c0.55-0.55,1.11-1.11,1.66-1.66   c1.66,0,3.33,0,4.99,0c0.48-0.63,0.95-1.27,1.43-1.9c1.51-0.32,3.01-0.63,4.52-0.95c1.25-1.17,1.91-1.19,3.57-1.19   c0.97-0.56,1.07-0.99,1.66-1.9c0.48,0,0.95,0,1.43,0c1.66-0.66,3.31-1.32,4.97-1.98c0.6-0.21,1.22-0.82,1.89-0.56   c0.8,0.21,1.6,0.42,2.41,0.63c0.55,0.55,1.11,1.11,1.66,1.66c0.55,0.79,1.11,1.58,1.66,2.38c1.22,0,2.15,1.42,3.33,1.19   c0.05,0.09,0.11,0.17,0.16,0.26c0.5,0.86,1,1.73,1.5,2.59c-0.41,0.41-1.3,2.61-0.48,2.61c0.87,0.4,1.74,0.79,2.62,1.19   c0.55-0.08,1.11-0.16,1.66-0.24c1.04,0.75,1.37,1.64,2.14,2.62c0.55,0.32,1.11,0.63,1.66,0.95c0.48,0,3.22-0.42,3.05,0.47   c-0.14,0.4-0.29,0.8-0.43,1.2c0.08,0.32,0.16,0.63,0.24,0.95c-1.24,1.24-1.26,1.54-3.09,2.38c-0.87-0.71-1.74-1.43-2.61-2.14   c-0.33,0-0.95,0.48-0.95,0.71c0.51-0.51,1.21,1.15,1.43,1.66c0.11,1.11-0.48,1.76-1.43,1.9c-0.24,1.03-0.48,2.06-0.71,3.09   c-0.79,0.79-2.34,2.46-3.57,2.14c-0.66,0.74-2.31,2.78-1.81,3.75c0.57,1.12,1.21,1.46,2.3,1.92c0.78,0.32,1.73,0.13,2.13-0.68   c0,0.08,0,0.16,0,0.24c0.08,1.11,0.16,2.22,0.24,3.33c0.16,0.48,0.32,0.95,0.48,1.43c0,1.03,0,2.06,0,3.09   c-0.43,0-0.3,0.79-0.3,1.17c0,1.41-0.65,2.43-0.65,3.83c-0.46,0-0.65,0.61-0.8,1c-0.56,1.43-0.76,3.73-2.05,4.7   c0,0.87,0,1.74,0,2.62c-0.32,0.79-0.63,1.58-0.95,2.38c0,1.03,0,2.06,0,3.09c-0.24,0.71-0.48,1.43-0.71,2.14   c-0.65,0.24-1.43,0.45-1.43,1.19c-0.41,0.2-0.81,0.39-1.22,0.59c0.01,0.03,0.02,0.07,0.04,0.1c0.18,0.33-0.51,0.38-0.08,0.57   c1.49,0.68,2.4,1.3,2.62,3c0.07,0.69-0.66,2.88-1.12,3.34c-0.03,1.01-0.04,1.87-0.64,2.73c-0.33,0.53-0.73-0.19-0.85-0.47   c-0.14-0.12-0.27-0.24-0.41-0.36c-0.65-2.06-1.3-4.12-1.95-6.17c-0.15-0.71-0.49-2.08,0.05-2.62c0.16-0.24,0.32-0.48,0.48-0.71   c0.53-0.53,1.15,0.23,1.57-0.12c0.35-0.36,0.7-0.71,1.05-1.07c0-0.18-0.18-0.18-0.3-0.48c-1.12,0.27-2.85,0.87-3.95,0.61   c-1.04-0.3-1.71-0.72-1.92-1.8c-1.88-0.78-4.24,0.24-5.03-2.03c-0.54-1.23-1.08-2.45-1.63-3.68c-0.28-1.48-0.5-2.9-1.33-4.2   c-0.81-1.28-2.01-2.07-3.19-2.93c-0.4-0.55-0.79-1.11-1.19-1.66c0-0.73-0.2-1.15-0.71-1.66c0-2.47-0.89-4.5-2.73-6.19   c-0.75,0.01-1.18-0.54-1.79-0.94c-0.42-0.51-0.84-1.01-1.26-1.52c-1.02-0.37-2.18-1.32-2.93-2.12c-0.56-0.6-1.16-1.58-2-1.6   c-0.42,0-0.64,0.08-0.95-0.23c-1.1,0.05-2.2,0.11-3.31,0.16c-0.56,0.07-1.43,0.33-1.81,0.11c-0.48-0.29-0.47-0.38-1.07-0.27   c-0.77-0.77-2.32-2.76-3.57-2.38c-1.1-1.17-0.49-1.92-1.43-2.85c-0.65-0.13-1.12-0.41-1.66,0c-0.56-0.5-0.96-1.17-1.66-1.43   c-0.24-1.11-0.48-2.22-0.71-3.33c-0.28-0.68-0.92-1.16-0.95-1.9c-0.32-0.48-0.63-0.95-0.95-1.43c-0.64-0.47-2.58-1.03-2.63-1.9   c-0.05-0.83-0.23-2.12,0.35-2.73c0.21-0.44,0.41-0.87,0.62-1.31c1.27-0.97,2.19-2.22,3.83-2.58c0.55,0.07,1.09,0.13,1.64,0.2   c0.47-0.13,0.95-0.25,1.42-0.38C329.5,297.32,331.8,296.35,331.64,297.04z"/>
    </g>
    <g id="__Harita" fill="white" stroke="#000000" stroke-width="1" stroke-miterlimit="10" display="none">
        <rect id="__cer" x="0" y="0" fill="#000000" opacity="0" width="500" height="550"/>
        <g id="__Ardahan">
            <path d="M241.07,389.28    c0.11-0.52,0.35-1.97-0.24-2.14c-2.61,1.9-2.85,1.66-4.52,1.19c-1.75-0.98-3.05-2.33-4.52-3.57c-0.55-0.48-1.11-0.95-1.66-1.43    c-0.55-0.63-1.11-1.27-1.66-1.9c-1.35-0.79-2.69-1.58-4.04-2.38c-1.16-1.35-2.33-2.7-3.49-4.05c-0.23-0.42-0.46-0.83-0.68-1.25    c-0.99-1.17-1.97-2.33-2.96-3.5c-3.53-3.32-5.64-7.46-8.56-11.41c-0.42-0.57-2.48-2.14-3.09-2.14c-1.74-1.58-3.5-2.47-5.68-3.42    c-0.96-0.45-1.92-0.89-2.88-1.34c-0.55-0.71-1.11-1.43-1.66-2.14c-1.74-0.48-3.49-0.95-5.23-1.43c-1.39-0.91-3.29-3.71-4.52-4.04    c-0.48-0.95-0.95-1.9-1.43-2.85c-0.49-0.72-1.78-1.93-2.61-2.14c-1.94-2.27-3.88-4.53-5.82-6.8c-1.24-1.12-2.47-2.24-3.71-3.37    c-0.7-0.47-2.02-1.05-2.12-1.96c-2.25-0.6-4.79-0.95-7.13-0.71c-1.35,0.08-2.69,0.16-4.04,0.24c-1.43-0.32-2.85-0.63-4.28-0.95    c-1.82-0.08-3.65-0.16-5.47-0.24c-0.63-0.24-1.27-0.48-1.9-0.71c-0.56-0.09-1.75-0.15-2.14,0.24c-0.95-0.08-1.9-0.16-2.85-0.24    c-0.63,0-1.27,0-1.9,0c-1.82,0.32-3.65,0.63-5.47,0.95c-1.19,0.48-2.38,0.95-3.57,1.43c-1.38,1.29-4.28,3.29-4.28,5.23    c-0.63,0.55-1.43,1.02-1.43,1.9c-2.24,1.02-4.45,2.42-6.4,3.83c-0.8,0.55-1.6,1.09-2.4,1.64c-0.79,0.4-1.58,0.79-2.38,1.19    c-0.95,0.24-1.9,0.48-2.85,0.71c-0.99-0.16-4.78-0.97-5.23-1.66c-2.46-0.16-4.91-0.32-7.37-0.48c-1.14-0.05-3.94-0.94-4.75-0.48    c-0.91-0.88-4.03-3.18-5.23-2.85c-0.87-0.4-1.74-0.79-2.62-1.19c-4.14-3.11-10.15-3.47-15.22-4.38c-1.27-0.24-2.54-0.48-3.8-0.71    c-1.26,0.11-2.52,0.22-3.78,0.33c-0.96,0.03-1.92,0.06-2.88,0.1c-1.03,0.21-2.05,0.41-3.08,0.62l-0.17-0.46    c-0.55-2.53-1.1-5.07-1.66-7.6c-0.99-3.82-1.98-7.64-2.96-11.46c-0.44-1.36-0.87-2.73-1.31-4.09c-0.52-2.66,0.45-6.28,1.82-8.48    c0.41-0.66,2.72-3.57,3.33-3.57c0.16-0.4,0.32-0.79,0.48-1.19c1.27-1.39,2.55-2.77,3.82-4.16c1.03-0.59,2.05-1.19,3.08-1.78    c0.41-1.07,3.74-3.09,4.75-4.04c0.4-0.16,0.79-0.32,1.19-0.48c6.64-4.86,12.77-10.82,19.26-16.17c1.19-0.79,2.38-1.58,3.57-2.38    c0.19-0.83,1.86-1.69,2.58-2.18c0.65-0.62,1.29-1.24,1.94-1.86c1.19-0.87,2.38-1.74,3.57-2.62c0.87-0.95,1.74-1.9,2.62-2.85    c0.79-0.63,1.58-1.27,2.38-1.9c1.19-1.82,2.38-3.65,3.57-5.47c0.16-0.48,0.32-0.95,0.48-1.43c0.4-0.4,0.79-0.79,1.19-1.19    c1.27-2.22,2.54-4.44,3.8-6.66c0.79-1.82,1.58-3.65,2.38-5.47c1.11-2.06,2.22-4.12,3.33-6.18c1.66-3.49,3.33-6.97,4.99-10.46    c0.46,0.15,0.53-0.13,0.88-0.42c0.5,0.78,1,1.55,1.5,2.33c2.24,2.52,4.48,5.04,6.72,7.56c1.74,2.09,4.21,4.09,6.6,5.28    c2.18,3.57,5.83,4.67,8.8,7.13c1.03,0.48,2.06,0.95,3.09,1.43c1.63,0.64,3.25,1.28,4.88,1.92c1.78,1.18,3.56,2.37,5.34,3.55    c1.11,0.4,2.22,0.79,3.33,1.19c1.17,0.51,2.34,1.02,3.51,1.53c4.25,1.96,8.66,2.55,13.13,3.7c0.95,0,1.9,0,2.85,0    c2.45-0.62,5.07-0.95,7.61-0.95c2.3,0.08,4.6,0.16,6.89,0.24c0.44-0.35,4.04-0.75,4.71-0.64c1.44,0.77,2.88,1.54,4.32,2.3    c1.35,0.24,2.69,0.48,4.04,0.71c1.03,0.4,2.06,0.79,3.09,1.19c0.88,0.21,1.77,0.42,2.65,0.62c2.57-0.34,3.77-0.15,5.91-0.39    c0.79,0.24,2.54-0.24,3.33,0c1.41-0.18,2.63-0.23,4.04,0c1.36,0.23,2.25,0.93,3.8,0.95c2.3-0.08,4.6-0.16,6.9-0.24    c1.58,0.4,3.17,0.79,4.75,1.19c1.67,0.32,4.47,0.74,5.89,1.73c0.13,0.1,0.25,0.19,0.38,0.29c0.29,0.23-0.12,0.82-0.25,1.12    c-0.51,1.19-1.12,1.83-1.99,2.79c-0.55,0.56-1.1,1.12-1.65,1.68c-0.24,0.55-0.48,1.11-0.71,1.66c-0.24,0.4-0.48,0.79-0.71,1.19    c-0.79,1.03-1.58,2.06-2.38,3.09c0,1.5-0.66,3.22-1.17,4.67c-0.64,0.03-0.74,1.51-0.45,2.56c1,2.24,0.41,5.3,1.86,7.27    c1.05,1.44,5.57,4.82,7.4,4.46c0.55,0.15,1.11,0.3,1.66,0.45c0.54,0.19,1.09,0.37,1.63,0.56c2.14,0.08,4.28,0.16,6.42,0.24    c1.98,0.55,3.96,1.11,5.94,1.66c1.03,0.4,2.06,0.79,3.09,1.19c1.35,1.35,2.69,2.69,4.04,4.04c0.1,1.04,1.37,1.76,1.9,2.62    c0.71,1.35,1.43,2.69,2.14,4.04c0.02,1.44,0.05,2.88,0.07,4.32c-0.18,1.33-0.37,2.67-0.55,4c0.44,0.7,0.41,2.73,0.24,3.57    c-0.87,2.46-1.74,4.91-2.61,7.37c0.32,1.74,0.63,3.49,0.95,5.23c0.38,1.35,1.34,2.25,2.38,3.09c0.1,0.74,0.74,1.01,1.14,1.55    c1.02,1.34,1.71,2.73,2.9,3.92c0.32,1.03,0.63,2.06,0.95,3.09c0.51,2,1.67,3.65,2.75,5.41c0.36,0.66,0.72,1.31,1.08,1.97    c0.21,0.87,0.42,1.75,0.62,2.62c0.19,0.71,0.01,1.34-0.39,1.9c-1.3,1.8-4.95,2.86-6.47,3.49c-1.01,0.46-2.02,0.93-3.02,1.39    c-0.49,0.35-0.98,0.7-1.46,1.05c-1.98,2.06-3.96,4.12-5.94,6.18c-1.91,1.71-3.78,3.3-5.71,4.99c-0.37,0.72-0.75,1.45-1.12,2.17    c-0.13,0.41-1.23,3.48-1.97,3.54c-1.35,1.35-1.97,4.07-3.09,5.71c-2.16,3.16-3.2,6.64-4.9,10.02c-0.35,0.7-3.38,0.35-4.12,0.26    c-2.92-0.35-5.83-0.77-8.65-1.54c-0.66-0.18-2.62-1.06-3.02-0.66L241.07,389.28z"/>
            <circle cx="170.46" cy="284.68" r="1.586"/>
        </g>
        <g id="__Göle">
            <path d="M221.68,458.14    c0.65-1.09,0.84-2.5,0.61-3.72c0.16-2.3,0.32-4.6,0.48-6.89c0.08-0.79,0.16-1.58,0.24-2.38c0-3.61,0.67-7.1,0.24-10.7    c0.24-1.66,0.37-1.74,0.48-3.09c0.07-0.91,0-1.19,0.24-2.61c0.11-1.11,0.21-2.22,0.32-3.33c0.19-0.83,0.38-1.66,0.56-2.49    c2.3-1.58,5.83-1.5,8.63-2.27c0.68-0.19,2.18,0.13,2.53-0.52c1.43-2.67,1.42-6.25,1.75-9.23c0.75-4.9,1.5-9.8,2.25-14.7    c0.26-1.92,0.82-5.01,1.08-6.93c0.11-0.52,0.35-1.97-0.24-2.14c-2.61,1.9-2.85,1.66-4.52,1.19c-1.75-0.98-3.05-2.33-4.52-3.57    c-0.55-0.48-1.11-0.95-1.66-1.43c-0.55-0.63-1.11-1.27-1.66-1.9c-1.35-0.79-2.69-1.58-4.04-2.38c-1.16-1.35-2.33-2.7-3.49-4.05    c-0.23-0.42-0.46-0.83-0.68-1.25c-0.99-1.17-1.97-2.33-2.96-3.5c-3.53-3.32-5.64-7.46-8.56-11.41c-0.42-0.57-2.48-2.14-3.09-2.14    c-1.74-1.58-3.5-2.47-5.68-3.42c-0.96-0.45-1.92-0.89-2.88-1.34c-0.55-0.71-1.11-1.43-1.66-2.14c-1.74-0.48-3.49-0.95-5.23-1.43    c-1.39-0.91-3.29-3.71-4.52-4.04c-0.48-0.95-0.95-1.9-1.43-2.85c-0.49-0.72-1.78-1.93-2.61-2.14c-1.94-2.27-3.88-4.53-5.82-6.8    c-1.24-1.12-2.47-2.24-3.71-3.37c-0.7-0.47-2.02-1.05-2.12-1.96c-2.25-0.6-4.79-0.95-7.13-0.71c-1.35,0.08-2.69,0.16-4.04,0.24    c-1.43-0.32-2.85-0.63-4.28-0.95c-1.82-0.08-3.65-0.16-5.47-0.24c-0.63-0.24-1.27-0.48-1.9-0.71c-0.56-0.09-1.75-0.15-2.14,0.24    c-0.95-0.08-1.9-0.16-2.85-0.24c-0.63,0-1.27,0-1.9,0c-1.82,0.32-3.65,0.63-5.47,0.95c-1.19,0.48-2.38,0.95-3.57,1.43    c-1.38,1.29-4.28,3.29-4.28,5.23c-0.63,0.55-1.43,1.02-1.43,1.9c-2.24,1.02-4.45,2.42-6.4,3.83c-0.8,0.55-1.6,1.09-2.4,1.64    c-0.79,0.4-1.58,0.79-2.38,1.19c-0.95,0.24-1.9,0.48-2.85,0.71c-0.99-0.16-4.78-0.97-5.23-1.66c-2.46-0.16-4.91-0.32-7.37-0.48    c-1.14-0.05-3.94-0.94-4.75-0.48c-0.91-0.88-4.03-3.18-5.23-2.85c-0.87-0.4-1.74-0.79-2.62-1.19c-4.14-3.11-10.15-3.47-15.22-4.38    c-1.27-0.24-2.54-0.48-3.8-0.71c-1.26,0.11-2.52,0.22-3.78,0.33c-0.96,0.03-1.92,0.06-2.88,0.1c-1.03,0.21-2.05,0.41-3.08,0.62    c0.01,0.15,0.01,0.3,0.02,0.45c0.23,1.75,0.46,3.5,0.69,5.25c0.08,1.01-0.06,5.29-0.71,5.94c0,2.45-0.73,4.74-1.58,6.92    c-0.5,1.28-0.65,2.41-1.49,3.57c-0.19,2.61-0.96,5.51-2.63,7.58c-1.48,1.83-2.77,3.4-4.52,4.99c-2.06,1.74-4.12,3.49-6.18,5.23    c-1.06,1.27-3.87,2.5-3.48,4.49c0.05,0.48,0.1,0.97,0.16,1.45c0.71,1.31,1,2.75,1.66,4.04c0.24,0.95,0.48,1.9,0.71,2.85    c0.77,1.5,1.55,3,2.32,4.5c2.78,8.06,8,15.88,13.61,22.36c0.71,0.71,1.43,1.43,2.14,2.14c1.27,1.41,2.2,2.95,3.8,4.04    c0.48,0.24,0.95,0.48,1.43,0.71c0.48,0.45,0.96,0.9,1.44,1.35c0.47,0.34,0.94,0.68,1.41,1.03c0.61,0.36,1.28,0.59,1.66,1.19    c3.3,1.04,6.79,1.21,10.22,1.66c0.55,0.16,1.11,0.32,1.66,0.48c0.74-0.74,2.14,0.07,2.85-0.48c1,1,4.74,1.1,6.18,1.19    c1.41,0.26,2.82,0.53,4.23,0.8c1.76,0.29,3.52,0.58,5.28,0.87c0.95,0.32,1.9,0.63,2.85,0.95c0.97,1.03,2.85,2.48,2.85,4.04    c0.55,0.87,1.11,1.74,1.66,2.61c0.71,1.11,1.43,2.22,2.14,3.33c0.71,1.03,1.43,2.06,2.14,3.09c2.42,2.42,4.94,4.71,7.88,6.49    c0.33,0.2,0.22,0.16-0.03,0.41c0.48,0.48,0.95,0.95,1.43,1.43c0.84,2.3,1.69,4.61,2.53,6.91c0.82,4.82,0.08,10,0.32,14.96    c0.27,5.6,0.18,11.27-0.48,16.88c-0.08,0.95-0.16,1.9-0.24,2.85c0.87,1.74,1.73,3.47,2.6,5.21c0.23,0.67,0.82,2.88,1.68,2.88    c0.32,0,0.24,0.08,0.24-0.24c0.26,0.57,0.78,1.05,1.43,1.19c2.46-0.08,4.91-0.16,7.37-0.24c4.39-0.54,9.84,0.03,14.03-1.43    c1.16-0.18,2.32-0.37,3.48-0.55c2.4-0.85,4.81-1.69,7.21-2.54c1.11-0.71,2.22-1.43,3.33-2.14c1.98-1.51,3.96-3.01,5.94-4.52    c0.48-0.16,0.95-0.32,1.43-0.48c1.03-0.63,2.06-1.27,3.09-1.9c0.57-0.57,3.42-2.53,3.57-2.38c1.51-1.43,3.01-2.85,4.52-4.28    c0.7-0.41,1.41-0.81,2.11-1.22c0.25-0.23,0.5-0.46,0.74-0.68c2.54-1,5.16-2.3,7.37-3.8c0.47-0.15,0.95-0.29,1.42-0.44    c0.95-0.57,1.91-1.13,2.86-1.7c2.01,0,3.57-1.95,5.45-2.38c5.16-2.3,10.32-4.6,15.48-6.89c0.48-0.16,0.95-0.32,1.43-0.48    C219.47,460,220.96,459.34,221.68,458.14z"/>
            <circle cx="138.84" cy="432.07" r="1.586"/>
        </g>
        <g id="__Hanak">
            <path d="M255.81,259    c1.53-0.53,5.02,0.43,6.18,1.43c1.69,0.05,4.06-0.22,4.22,1.89c0.1,0.24,0.2,0.48,0.3,0.72c-0.6,0.53-1.94,1.31-1.17,1.69    c0.95,0.42,1.23-0.24,2.12-0.51c0.54-0.16,0.95,0.17,1.43-0.24c0.81,0.42,2.13,1.38,3.09,1.19c2.23-0.44,3.32-2.82,5.46-3.13    c2.26-0.34,4.52-0.69,6.78-1.03c1.32-1.32,2.46-3.2,2.74-5.11c0-0.79,0-1.59,0-2.38c0.13-1.1,0.58-2.63-0.24-3.57    c-0.08-0.79-0.16-1.58-0.24-2.38c0.16-0.95,0.32-1.9,0.48-2.85c-0.04-1.03-0.09-2.07-0.13-3.1c0-0.7-0.15-1.85,0.37-2.37    c-0.22-1.77-0.17-3.25,0.24-4.99c-0.24-1.19-0.48-2.38-0.71-3.57c-1.82-2.98-2.32-6.67-4.28-9.51c-0.63-1.58-1.27-3.17-1.9-4.75    c-0.31-3.32,0.93-6.27,1.19-9.51c0.05-0.61-0.05-1.72-0.48-2.14c0.07-1.14,0.67-5.49,0-6.18c0.52-2.07,0.4-3.88,0.07-5.97    c-0.35-2.14,0.96-6.18,2.31-7.82c0.48-1.59,0.96-3.18,1.43-4.76c0.42-1.25,1.05-4.54-0.16-5.53c-0.75-0.53-0.84-0.64-1.74-0.36    c-2.01,0.78-4.02,1.56-6.03,2.34c-0.91,0.1-1.81,0.21-2.72,0.31c-1.29,0.21-2.57,0.42-3.86,0.63c-1.35,0.32-2.69,0.63-4.04,0.95    c-1.27-0.08-2.54-0.16-3.8-0.24c-0.82,0.09-1.64,0.18-2.46,0.27c-1.59,0-3.06,0.13-4.67-0.04c-2.02-0.21-3.33,0.4-4.81,1.6    c-0.61,0.5-1.3,0.67-1.37,1.49c-1.69,0.67-3.21,1.19-4.99,1.66c-0.13,0.3-0.26,0.61-0.39,0.91c-0.15,0.76-0.72,1.72-0.08,2.41    c-0.49,1.86-1.66,5.37-2.85,6.89c-2.54,1.27-5.07,2.54-7.61,3.8c-1.66,0.79-3.33,1.58-4.99,2.38c-0.55,0.4-1.11,0.79-1.66,1.19    c-1.03,0.24-2.06,0.48-3.09,0.71c-1.19,0.55-2.38,1.11-3.57,1.66c-1.98,0.24-3.96,0.48-5.94,0.71c-0.83-0.82-2.74-0.64-3.93-0.59    c-0.69-0.72-1.81-0.77-2.73-1.08c-1.73-0.59-5.09-3.54-6.89-2.14c-0.79-0.24-1.59-0.48-2.38-0.71c-0.48-0.32-0.95-0.63-1.43-0.95    c-0.63-0.95-1.27-1.9-1.9-2.85c-0.38-0.96-0.75-1.92-1.13-2.88c-0.47-0.33-1.55-3.93-1.72-4.73c-0.64-2.93-1.57-9.77-3.8-11.65    c-3.96-3.25-7.92-6.5-11.89-9.75c-1.9-0.4-3.8-0.79-5.71-1.19c-0.95-0.4-1.9-0.79-2.85-1.19c-2.15-3.23-4.33-6.05-5.85-9.55    c-0.62-1.35-1.25-2.7-1.87-4.05c-0.62-0.19-0.98-0.09-1.31-0.67c-0.25,0.13-0.51,0.25-0.76,0.38c-3.01,1.56-5.88,3.02-8.51,5.33    c-1.03,0.55-2.06,1.11-3.09,1.66c-1.79,1.23-4.2,0.98-6.2,1.57c-0.94,0.19-1.89,0.38-2.83,0.56c-1.32,1.28-2.89,2.68-4.52,3.57    c-1.71,0.93-5.35,1.32-6.66,2.85c0.25,0.25,2.28,2.66,2.52,3.2c1.06,1.94,2.12,3.89,3.19,5.83c0.24,0.71,0.48,1.43,0.71,2.14    c0.05,0.61,0.09,1.21,0.14,1.82c0.11,0.11,0.22,0.21,0.33,0.32c-0.12,1.16,0.05,4.94-0.71,5.71c-0.08,2.14-0.16,4.28-0.24,6.42    c-0.44,3.83-1.9,7.59-2.61,11.41c-0.23,0.79-0.45,1.59-0.68,2.38c-0.33,2.14-0.66,4.27-0.99,6.41c-0.24,0.63-0.48,1.27-0.71,1.9    c-0.58,0.58-1.63,2.9-0.95,3.56l0.16-0.42c0.5,0.78,1,1.55,1.5,2.33c2.24,2.52,4.48,5.04,6.72,7.56c1.74,2.09,4.21,4.09,6.6,5.28    c2.18,3.57,5.83,4.67,8.8,7.13c1.03,0.48,2.06,0.95,3.09,1.43c1.63,0.64,3.25,1.28,4.88,1.92c1.78,1.18,3.56,2.37,5.34,3.55    c1.11,0.4,2.22,0.79,3.33,1.19c1.17,0.51,2.34,1.02,3.51,1.53c4.25,1.96,8.66,2.55,13.13,3.7c0.95,0,1.9,0,2.85,0    c2.45-0.62,5.07-0.95,7.61-0.95c2.3,0.08,4.6,0.16,6.89,0.24c0.44-0.35,4.04-0.75,4.71-0.64c1.44,0.77,2.88,1.54,4.32,2.3    c1.35,0.24,2.69,0.48,4.04,0.71c1.03,0.4,2.06,0.79,3.09,1.19c0.88,0.21,1.77,0.42,2.65,0.62c2.57-0.34,3.77-0.15,5.91-0.39    c0.79,0.24,2.54-0.24,3.33,0c1.41-0.18,2.63-0.23,4.04,0c1.36,0.23,2.25,0.93,3.8,0.95c2.3-0.08,4.6-0.16,6.9-0.24    c1.58,0.4,3.17,0.79,4.75,1.19c1.67,0.32,4.47,0.74,5.89,1.73c0.13,0.1,0.25,0.19,0.38,0.29L255.81,259z"/>
            <circle cx="220.62" cy="227.15" r="1.586"/>
        </g>
        <g id="__Çıldır">
            <path d="M379.67,300.13    c-0.55,0.08-1.11,0.16-1.66,0.24c-0.87-0.4-1.74-0.79-2.62-1.19c-0.82,0,0.07-2.21,0.48-2.61c-0.5-0.86-1-1.73-1.5-2.59    c-0.05-0.09-0.11-0.17-0.16-0.26c-1.18,0.23-2.1-1.19-3.33-1.19c-0.55-0.79-1.11-1.59-1.66-2.38c-0.55-0.55-1.11-1.11-1.66-1.66    c-0.8-0.21-1.6-0.42-2.41-0.63c-0.67-0.26-1.29,0.35-1.89,0.56c-1.66,0.66-3.31,1.32-4.97,1.98c-0.48,0-0.95,0-1.43,0    c-0.59,0.91-0.7,1.34-1.66,1.9c-1.66,0-2.32,0.02-3.57,1.19c-1.51,0.32-3.01,0.63-4.52,0.95c-0.48,0.63-0.95,1.27-1.43,1.9    c-1.66,0-3.33,0-4.99,0c-0.55,0.55-1.11,1.11-1.66,1.66c-0.87,0.11-0.55-0.51-1.43,0.48c-1.22-0.49-2.35-1.26-3.57-1.9    c-0.8,0.4-1.49,0.45-2.38,0.48c0.16-0.69-2.15,0.28-3.1,0.57c-0.47,0.13-0.95,0.25-1.42,0.38c-0.55-0.07-1.09-0.13-1.64-0.2    c-1.64,0.36-2.55,1.61-3.83,2.58c-0.21,0.44-0.41,0.87-0.62,1.31c-0.58,0.62-0.4,1.9-0.35,2.73c0.05,0.87,1.99,1.43,2.63,1.9    c0.32,0.48,0.63,0.95,0.95,1.43c0.03,0.74,0.67,1.23,0.95,1.9c0.24,1.11,0.48,2.22,0.71,3.33c0.71,0.26,1.1,0.93,1.66,1.43    c0.54-0.41,1.01-0.13,1.66,0c0.94,0.94,0.32,1.68,1.43,2.85c1.24-0.39,2.79,1.61,3.57,2.38c0.6-0.11,0.59-0.02,1.07,0.27    c0.37,0.22,1.25-0.04,1.81-0.11c1.1-0.05,2.2-0.11,3.31-0.16c0.31,0.31,0.53,0.23,0.95,0.23c0.84,0.03,1.44,1.01,2,1.6    c0.74,0.79,1.91,1.75,2.93,2.12c0.42,0.51,0.84,1.01,1.26,1.52c0.61,0.41,1.04,0.95,1.79,0.94c1.83,1.69,2.73,3.72,2.73,6.19    c0.51,0.51,0.71,0.93,0.71,1.66l0.2,0.74c0.1,0.56-1.25,2.98-1.75,3.31c-1.78,3.71-6.33,6.32-9.84,8.62    c-4.95,3.23-9.45,6.5-15.5,7.19c-3.28,0.38-6.29-0.54-9.49-1.31c-0.87-0.48-1.74-0.95-2.62-1.43c-0.79,0.02-1.58,0.04-2.37,0.06    c-1.75-0.26-3.49-0.52-5.24-0.77c-1.58,0.08-3.17,0.16-4.75,0.24c-1.51,0.08-3.01,0.16-4.52,0.24c-1.75,0.62-3.49,1.23-5.24,1.85    c-0.16-0.06-0.31-0.12-0.47-0.19l-0.45,0.02c0.4-0.56,0.58-1.19,0.39-1.9c-0.21-0.87-0.42-1.75-0.62-2.62    c-0.36-0.66-0.72-1.31-1.08-1.97c-1.07-1.76-2.24-3.41-2.75-5.41c-0.32-1.03-0.63-2.06-0.95-3.09c-1.19-1.19-1.88-2.58-2.9-3.92    c-0.41-0.54-1.04-0.8-1.14-1.55c-1.04-0.84-2-1.75-2.38-3.09c-0.32-1.74-0.63-3.49-0.95-5.23c0.87-2.46,1.74-4.91,2.61-7.37    c0.17-0.84,0.2-2.87-0.24-3.57c0.18-1.33,0.37-2.66,0.55-4c-0.02-1.44-0.05-2.88-0.07-4.32c-0.71-1.35-1.43-2.69-2.14-4.04    c-0.54-0.85-1.8-1.57-1.9-2.62c-1.35-1.35-2.69-2.69-4.04-4.04c-1.03-0.4-2.06-0.79-3.09-1.19c-1.98-0.55-3.96-1.11-5.94-1.66    c-2.14-0.08-4.28-0.16-6.42-0.24c-0.54-0.19-1.09-0.37-1.63-0.56c-0.55-0.15-1.11-0.3-1.66-0.45c-1.83,0.36-6.35-3.03-7.4-4.46    c-1.45-1.98-0.85-5.03-1.86-7.27c-0.28-1.05-0.19-2.53,0.45-2.56c0.5-1.45,1.17-3.17,1.17-4.67c0.79-1.03,1.59-2.06,2.38-3.09    c0.24-0.4,0.48-0.79,0.71-1.19c0.24-0.55,0.48-1.11,0.71-1.66c0.55-0.56,1.1-1.12,1.65-1.68c0.87-0.96,1.48-1.59,1.99-2.79    c0.13-0.3,0.54-0.89,0.25-1.12l1.34-0.12c1.53-0.53,5.02,0.43,6.18,1.43c1.69,0.05,4.06-0.22,4.22,1.89    c0.1,0.24,0.2,0.48,0.3,0.72c-0.6,0.53-1.94,1.31-1.17,1.69c0.95,0.42,1.23-0.24,2.12-0.51c0.54-0.16,0.95,0.17,1.43-0.24    c0.81,0.42,2.13,1.38,3.09,1.19c2.23-0.44,3.32-2.82,5.46-3.13c2.26-0.34,4.52-0.69,6.78-1.03c1.32-1.32,2.46-3.2,2.74-5.11    c0-0.79,0-1.59,0-2.38c0.13-1.1,0.58-2.63-0.24-3.57c-0.08-0.79-0.16-1.58-0.24-2.38c0.16-0.95,0.32-1.9,0.48-2.85    c-0.04-1.03-0.09-2.07-0.13-3.1c0-0.7-0.15-1.85,0.37-2.37c-0.22-1.77-0.17-3.25,0.24-4.99c-0.24-1.19-0.48-2.38-0.71-3.57    c-1.82-2.98-2.32-6.67-4.28-9.51c-0.63-1.58-1.27-3.17-1.9-4.75c-0.31-3.32,0.93-6.27,1.19-9.51c0.05-0.61-0.05-1.72-0.48-2.14    c0.07-1.14,0.67-5.49,0-6.18c0.52-2.07,0.4-3.88,0.07-5.97c-0.35-2.14,0.96-6.18,2.31-7.82c0.48-1.59,0.96-3.18,1.43-4.76    c0.42-1.25,1.05-4.54-0.16-5.53l0.16-0.04c0.06-1.8,1.67-3.56,2.15-5.34c0.54-2.02,1.39-3.96,1.28-6.05l-0.1-0.14    c3.93,0.4,4.14,2.15,5.94,4.04c0.71,0.24,1.43,0.48,2.14,0.71c0.71,0.08,1.43,0.16,2.14,0.24c1.51,0.87,3.01,1.74,4.52,2.61    c1.19,0.32,2.38,0.63,3.57,0.95c1.58,1.19,3.17,2.38,4.75,3.57c0.7,0.93,0.93,2.23,1.19,3.33c0.4,0.55,0.79,1.11,1.19,1.66    c0.87,1.03,1.74,2.06,2.62,3.09c0.48,0.95,0.95,1.9,1.43,2.85c0.72,0.94,1.44,1.89,2.15,2.83c0.52,0.61,1.79,0.73,2.58,0.85    c0.32,0.12,0.65,0.24,0.97,0.36c1.66,0.16,3.33,0.32,4.99,0.48c0.48,0.71,0.95,1.43,1.43,2.14c0.78,0.45,1.57,0.9,2.35,1.35    c0.96,0.26,1.92,0.52,2.88,0.79c0.63,0.24,1.27,0.48,1.9,0.71c1.83-0.14,3.24-1.25,4.99-1.66c0.92,1.31,3.32,0.72,4.64,1.16    c0.73,0.32,0.83,1.3,1.17,2.1c0.04,0.1,0.08,0.21,0.13,0.31c-0.44,0.21-0.71,0.88-0.71,1.43c-0.16,0.63-0.32,1.27-0.48,1.9    c0.41,0.41,0.26,1.29,0.25,1.87c0,0.09-0.01,0.18-0.01,0.27c-0.8-0.11-0.73-0.05-1.31,0.33c-1.69,1.1-3.08,1.74-5.1,1.81    c-0.71,0.55-1.43,1.11-2.14,1.66c-0.39,1-3.03,3.42-4.04,3.8c-0.66,0.25-1.57,0.61-2.24,0.33c-1.32,0.66-2.64,1.32-3.96,1.98    c-0.67,0.36-1.88,1.12-1.88,1.96c-0.79,0.32-1.58,0.63-2.38,0.95c-0.45,0.22-1.66,0.91-1.66,1.43c-1.31,0.44-2.62,0.89-3.92,1.33    c-0.53,0.14,0.38,1.03,0.86,1.14c1.84,0.42,3,1.46,4.72,2.29c0.79,0.22,1.59,0.44,2.38,0.65c0.66,0.17,1.55-0.75,2.15-1.1    c0.96-0.57,1.99-0.77,3.08-0.98c0.63-0.48,1.27-0.95,1.9-1.43c2.1-0.59,4.93-0.31,7.13,0c0.48,0.95,0.95,1.9,1.43,2.85    c0.2,1.98,1.58,4.8,1.78,6.78l0.12,0.24c-1.96,0.31-4.31,0.72-4.57,3.08c-0.14,0.12-0.28,0.25-0.42,0.37    c0.48,0.87,0.95,1.74,1.43,2.62c-0.07,0.95-0.14,1.9-0.21,2.85c0.15,1.21,0.45,2.41-0.48,3.11c-0.56,0.23-1.12,0.46-1.69,0.69    c-1.43,1.03-2.85,2.06-4.28,3.09c-1.26,0.35-2.32,0.55-2.72,1.94c0.02,0.29,0.04,0.59,0.07,0.88c0.19,0.37,0.21,0.27,0.04,0.74    c0.75,0.75,1.02,1.33,2.13,1.44c0.81,0.09,2.51,0.31,3.1-0.49c0.95,0.16,1.9,0.32,2.85,0.48c1.2,0.13,2.92-0.54,3.8,0.48    c0.89-0.2,2.43-0.28,3.33-0.48c0.66-1.19,0.67-2.49,1.32-3.68c0.8,0.8,4.15,1.54,5.81,2.61l0.16-0.16c0.7,0.33,1.13,1.3,1.55,2.04    c0.74,1.43-0.81,2.76-1.34,3.92c-0.04,0.09-0.08,0.18-0.12,0.27c0.73-0.29,0.64-0.12,1.22,0.22c0.86,0.51,2.05,0.01,2.82-0.46    c1.51-0.32,3.01-0.63,4.52-0.95c0.43,0.43,1.1,0.04,1.66,0c1.28-0.1,2.86-2.27,4.75-2.62c0.8-0.37,1.6-0.74,2.4-1.11    c0.24,0.01,0.49,0.02,0.73,0.04c1.12-0.13,1.99-0.47,2.82-1.3c0.71,0,1.43,0,2.14,0c0.95,0,1.9,0,2.85,0    c1.69-0.57,3.58-2.85,5.23-2.85c0.79-0.79,1.58-1.58,2.38-2.38c1.99,0,3.74-0.52,5.71-0.71c1.27,0.09,2.53,0.19,3.8,0.28    c0.87-0.17,1.75-0.35,2.62-0.52c0.72,0.53,3.11,0.09,4.04,0c1.58,0.95,3.17,1.9,4.75,2.85c1.19,0.71,2.38,1.43,3.57,2.14    c1.47,1.26,3.01,2.38,4.81,3.26c1.07,0.29,2.14,0.58,3.21,0.88c2.5,0.72,6.56,2.44,8.63,3.95c0.79,1.98,1.58,3.96,2.38,5.94    c0.48,0.55,0.95,1.11,1.43,1.66c0.16,0.55,0.32,1.11,0.48,1.66c1.31,1.27,1.66,4.91,2.07,6.6c0.42,0.94,0.85,1.88,1.27,2.82    c0.24,0.35,0.47,0.69,0.71,1.04c0.2,1.18,0.22,2.33,0.02,3.51c-0.09,0.34-0.17,0.67-0.26,1.01c-0.31-0.23-2.72,0.63-3.57,0.71    c-1.3,1.3-1.47,3.29-1.9,4.99c-0.48,0.63-0.96,1.26-1.43,1.89c-1.98,2.97-1.96,4.95-0.94,8.33c0.87,0.71,1.74,1.43,2.61,2.14    c-0.08,0.17,0.7,3.21,0.85,3.75c0.11,0.33,0.23,0.67,0.34,1c0.71-0.46,2.26,0.53,3.02,1.05c1.72,1.17,0.97,4.57,0.54,6.37    c-0.16,0.85-0.31,1.71-0.47,2.56c0.08,0.71,0.16,1.43,0.24,2.14c-0.16,1.03-0.32,2.06-0.48,3.09c0.33,0.36,0.22,0.71,0.23,1.19    c0.04,1.46-0.35,2.4,0.33,3.75c0.17,0.32-0.3,0.34-0.74,0.75c-0.79,0.67-1.69-0.36-2.25-0.59c-0.99-0.4-1.59-1-2.33-1.78    c-1.6-0.26-2.68-3.1-3.43-4.37c-2.19-3.72-4.59-7.57-7.5-10.85c-2.3-1.51-4.6-3.01-6.89-4.52c-1.47-1.18-3.16-2.02-4.75-3.09    c-0.55-0.35-1.11-0.71-1.66-1.06c-1.43-0.68-2.85-1.35-4.28-2.03c-0.71-0.4-1.43-0.79-2.14-1.19c-5.05-1.82-7.88-1.55-13.08-0.71    c-1.18,0.96-2.37,1.92-3.55,2.88c-1.57,1.28-2.78,3.36-4.18,4.01H379.67z"/>
            <circle cx="318.57" cy="278.02" r="1.586"/>
        </g>
        <g id="__Posof">
            <path d="M279.58,159.63    c-0.97-1.51-3.46-0.2-4.99-0.94c-2.85-1.27-5.71-2.54-8.56-3.81c-0.57-0.11-1.73-0.65-2.14-0.24c-2.85-0.63-5.71-1.27-8.56-1.9    c-0.16-0.43-3.87-2.92-4.57-3.51c-0.93-0.89-1.87-1.78-2.8-2.67c-0.4-0.24-0.79-0.48-1.19-0.71c-0.82,0.29-4.94-1-6.03-1.28    c-4.34-1.08-8.79-1.21-13.22-1.34c-2.59-0.08-5.03-0.14-7.61-0.48c-0.77,0.51-3.74,0.2-4.74,0.09c-0.88-0.27-1.75-0.53-2.63-0.8    c-1.9-0.32-3.8-0.63-5.71-0.95c-3.88,0-7.77,0-11.65,0c-0.45,0.23-0.9,0.47-1.34,0.7c-1.17,0.5-2.12,0.82-3.41,0.97    c-1.03,0-2.06,0-3.09,0c-1.35,0.63-2.69,1.27-4.04,1.9c-0.83,0.24-2.1,0.61-2.87,0.79c-3.56,0.53-7.12,1.06-10.68,1.59    c-1.03,0.32-2.06,0.63-3.09,0.95c-1.03,0.1-2.07,0.19-3.1,0.29c-1.19,0.44-2.39,0.88-3.58,1.31l-1.17,0.3    c-0.25,0.13-0.51,0.25-0.76,0.38c-3.01,1.56-5.88,3.02-8.51,5.33c-1.03,0.55-2.06,1.11-3.09,1.66c-1.79,1.23-4.2,0.98-6.2,1.57    c-0.94,0.19-1.89,0.38-2.83,0.56c-1.32,1.28-2.89,2.68-4.52,3.57c-1.71,0.93-5.35,1.32-6.66,2.85l-5.47-4.99    c-0.61-0.35-1.22-0.71-1.83-1.06c-1.5-1-2.9-2.09-4.25-3.39c-0.9-0.81-1.81-1.63-2.71-2.44c-0.39-0.65-0.77-1.3-1.16-1.95    c-1.07-1.77-1.69-3.65-2.17-5.65c0-0.71,0-1.43,0-2.14c0.73-0.73,0.5-1.85,0.48-2.85c-0.16-0.79-0.32-1.58-0.48-2.38    c-0.19-0.62-0.39-1.25-0.58-1.87c-0.55-2.02-0.19-4.06-0.37-6.21c-0.16-0.95-0.32-1.9-0.48-2.85c-0.95-1.12-1.7-2.41-1.43-3.8    c-1.32-0.85-1.35-4.34-1.17-5.66c0.42-2.44,3.28-2.15,4.5-3.85c0.61-1.59,1.21-3.19,1.82-4.78c1.61-0.62,3.22-1.25,4.84-1.87    c0.4-0.55,0.79-1.11,1.19-1.66c0.54,0.01,1.28-0.54,1.64-0.95c0.48-0.79,0.97-1.58,1.45-2.38c1.3-1.3,3.09-1.44,4.7-2.04    c0.51-0.18,0.09-0.55-0.24-0.8c-0.05-0.32-0.1-0.65-0.15-0.97c-0.41-0.71-0.82-1.42-1.23-2.13c0-1.05-0.33-1.66-0.65-2.66    c0.29-0.9,0.58-1.79,0.87-2.69c1.07-2.18,3.03-3.82,3.89-6.2c0.35-1.15-1.22-5.56-1.66-7.03c0.14-0.55,0.28-1.09,0.42-1.64    c0.54-2.18,2.93-3.79,4.67-5.09c1.61-1.2,2.52-3.23,3.65-4.89c0.63-0.4,1.27-0.79,1.9-1.19c1.35-0.4,2.69-0.79,4.04-1.19    c0.55,0.05,1.1,0.09,1.66,0.14c0.56-0.05,1.11-0.09,1.67-0.14c1.61-0.32,3.23-0.63,4.84-0.95c0.61-0.17,1.21-0.11,1.66-0.56    c4.02,0.29,8.77-1.98,12.52-3.48c1.9-0.24,3.8-0.48,5.71-0.71c1.02,0.36,2.03,0.72,3.05,1.08c0.81,0.43,1.61,0.87,2.42,1.3    c3.09-0.08,6.18-0.16,9.27-0.24c0.23,0.76,0.95,0.37,1.43,0.95c0.63,0.95,1.27,1.9,1.9,2.85c1.97,0.87,3.58,0.95,5.71,0.95    c1.57,1,2.43,2.16,3.57,3.57c0.17,0.01,0.35,0.02,0.52,0.03c1.17,0.57,1.65-1.77,2.1-2.64c0.48-0.32,0.95-0.63,1.43-0.95    c0.66-0.28,1.32-0.55,1.98-0.83c1.32-0.04,2.65-0.08,3.97-0.12c3.49,0,6.75-0.14,9.98,1.19c0.99,0,0.24,2.26,0.24,2.85    c0.08,1.35,0.16,2.69,0.24,4.04c-0.5,1.74-1.01,3.48-1.51,5.22c-0.28,1.3-2.32,1.62-3.48,2.15c0.19,0.49,0.12,0.41-0.16,0.77    c-0.53,0.69-0.26,1.69-0.28,2.54c-0.25,1.35-0.5,2.7-0.74,4.06c-0.83,0.25-1.57,1.5-2.1,2.22c-0.41,0.37-0.82,0.74-1.23,1.11    c-0.98,1.97-1.96,3.94-2.93,5.91c-0.29,0.54-0.62,0.67,0.1,0.94c0.12,1.71,1.5,2.51,1.89,4.09c0.12,0.48,0.02,0.7-0.39,0.91    c-0.19,1.52-0.37,3.04-0.56,4.56c0.56,0.37,1.12,0.74,1.69,1.11c1.44,0.67,2.86,1.18,4.26,1.98c1.58,1.74,3.17,3.49,4.75,5.23    c1.98,0.79,3.96,1.58,5.94,2.38c0.22,0.53,0.48,0.58,0.98,0.85c1.4,0.34,1.59-1.53,1.7-2.07c0.29-0.94,0.59-1.88,0.88-2.82    c0.24-1.66,0.48-3.33,0.71-4.99c0.69-0.31,0.87-1.23,1.19-1.9c0.79-0.71,1.59-1.43,2.38-2.14c1.03-0.32,2.06-0.63,3.09-0.95    c1.43,0.16,2.85,0.32,4.28,0.48c0.73,0.25,1.45,0.49,2.18,0.74c0.74,0.36-0.01,1.83-0.14,2.62c-0.35,2.19-0.95,4.82-0.03,6.85    c0.46,0.97,1.43,0.86,2.44,1.18c2.19,0.69,4.32,1.25,6.49,2.17c0.18,0.81,1.53,1.49,2.14,2.14c-0.16,0.24-0.32,0.48-0.48,0.71    c0.17,0,0.35-0.01,0.52-0.01c0.53,1.2,1.47,1.46,2.57,2.15c0.19,0.99,1.77,2.62,2.85,2.62c2.01,1.68,5.03,1.62,7.12,3.33    c0.19,0.49,0.38,0.98,0.57,1.46c0.43,1.94,0.16,2.6-0.56,4.48c0.33,0.33,0.25,0.49,0.23,0.93c0,0.83,1.1,1.49,1.78,1.93    c1.82,1.17,3.92,1.54,5.35,3.25c1.04,1.3,0.05,3.34,0.01,4.82c0.59,0.05,0.49,0.31,0.74,0.81c1.45,0.8,2.91,1.61,4.36,2.41    c0.2,0.91,0.96,2.76,1.16,3.67c1.9,0.61,3.84,5.21,3.78,6.18L279.58,159.63z"/>
            <circle cx="180.2" cy="102.81" r="1.586"/>
        </g>
        <g id="__Damal">
            <path d="M284.89,174.53    c-0.75-0.53-0.84-0.64-1.74-0.36c-2.01,0.78-4.02,1.56-6.03,2.34c-0.91,0.1-1.81,0.21-2.72,0.31c-1.29,0.21-2.57,0.42-3.86,0.63    c-1.35,0.32-2.69,0.63-4.04,0.95c-1.27-0.08-2.54-0.16-3.8-0.24c-0.82,0.09-1.64,0.18-2.46,0.27c-1.59,0-3.06,0.13-4.67-0.04    c-2.02-0.21-3.33,0.4-4.81,1.6c-0.61,0.5-1.3,0.67-1.37,1.49c-1.69,0.67-3.21,1.19-4.99,1.66c-0.13,0.3-0.26,0.61-0.39,0.91    c-0.15,0.76-0.72,1.72-0.08,2.41c-0.49,1.86-1.66,5.37-2.85,6.89c-2.54,1.27-5.07,2.54-7.61,3.8c-1.66,0.79-3.33,1.58-4.99,2.38    c-0.55,0.4-1.11,0.79-1.66,1.19c-1.03,0.24-2.06,0.48-3.09,0.71c-1.19,0.55-2.38,1.11-3.57,1.66c-1.98,0.24-3.96,0.48-5.94,0.71    c-0.83-0.82-2.74-0.64-3.93-0.59c-0.69-0.72-1.81-0.77-2.73-1.08c-1.73-0.59-5.09-3.54-6.89-2.14c-0.79-0.24-1.59-0.48-2.38-0.71    c-0.48-0.32-0.95-0.63-1.43-0.95c-0.63-0.95-1.27-1.9-1.9-2.85c-0.38-0.96-0.75-1.92-1.13-2.88c-0.47-0.33-1.55-3.93-1.72-4.73    c-0.64-2.93-1.57-9.77-3.8-11.65c-3.96-3.25-7.92-6.5-11.89-9.75c-1.9-0.4-3.8-0.79-5.71-1.19c-0.95-0.4-1.9-0.79-2.85-1.19    c-2.15-3.23-4.33-6.05-5.85-9.55c-0.62-1.35-1.25-2.7-1.87-4.05c-0.62-0.19-0.98-0.09-1.31-0.67l1.17-0.3    c1.19-0.44,2.39-0.88,3.58-1.31c1.03-0.1,2.07-0.19,3.1-0.29c1.03-0.32,2.06-0.63,3.09-0.95c3.56-0.53,7.12-1.06,10.68-1.59    c0.77-0.18,2.04-0.55,2.87-0.79c1.35-0.63,2.69-1.27,4.04-1.9c1.03,0,2.06,0,3.09,0c1.29-0.14,2.24-0.46,3.41-0.97    c0.45-0.23,0.9-0.47,1.34-0.7c3.88,0,7.77,0,11.65,0c1.9,0.32,3.8,0.63,5.71,0.95c0.88,0.27,1.75,0.53,2.63,0.8    c1,0.11,3.97,0.42,4.74-0.09c2.58,0.33,5.02,0.4,7.61,0.48c4.43,0.13,8.88,0.25,13.22,1.34c1.1,0.27,5.21,1.57,6.03,1.28    c0.4,0.24,0.79,0.48,1.19,0.71c0.93,0.89,1.87,1.78,2.8,2.67c0.7,0.6,4.41,3.08,4.57,3.51c2.85,0.63,5.71,1.27,8.56,1.9    c0.41-0.41,1.57,0.13,2.14,0.24c2.85,1.27,5.71,2.54,8.56,3.81c1.99,0.89,5.4-0.79,6.18,2.26c0.22,0.86-0.13,0.9-0.33,1.57    c-0.49,1.61,0.59,1.27,1.88,1.75c0.96,0.35,2.33,1.16,3.35,0.75c1.2-0.49,1.34-2.07,2.81-1.91c0.11,2.09-0.75,4.03-1.28,6.05    c-0.47,1.78-2.08,3.54-2.15,5.34L284.89,174.53z"/>
            <circle cx="220.14" cy="178.88" r="1.586"/>
        </g>
    </g>
</svg>