<?xml version="1.0" encoding="utf-8"?>
<!DOCTYPE svg PUBLIC "-//W3C//DTD SVG 1.1//EN" "http://www.w3.org/Graphics/SVG/1.1/DTD/svg11.dtd">
<svg version="1.1" id="HaritaCizim" xmlns="http://www.w3.org/2000/svg" xmlns:xlink="http://www.w3.org/1999/xlink" x="0px" y="0px" viewBox="0 0 520 470" preserveAspectRatio="none">
    <defs id="__def">
        <radialGradient id="f">
            <stop offset="0" stop-color="white" stop-opacity="1"/>
            <stop id="STOP1" offset=".4" stop-opacity="1"/>
            <stop offset="1" stop-color="white" stop-opacity=".2"/>
        </radialGradient>
        <filter id="__flt1" x="0" y="0" width="200%" height="200%" filterUnits="objectBoundingBox">
            <feGaussianBlur in="SourceAlpha" stdDeviation="3" result="blur1"/>
            <feSpecularLighting result="specOut" in="blur1" specularConstant="1.5" specularExponent="20" lighting-color="#bbbbbb">
                <feDistantLight azimuth="45" elevation="30"/>
            </feSpecularLighting>
            <feComposite in="specOut" in2="SourceAlpha" operator="in" result="specOut"/>
            <feComposite in="SourceGraphic" in2="specOut" operator="arithmetic" k1="0" k2="1" k3="1" k4="0"/>
        </filter>
        <filter id="__flt2" x="0" y="0" width="200%" height="200%" filterUnits="objectBoundingBox">
            <feGaussianBlur in="SourceAlpha" stdDeviation="3" result="blur1"/>
            <feSpecularLighting result="specOut" in="blur1" specularExponent="20" lighting-color="#bbbbbb">
                <fePointLight x="-2000" y="100" z="2000"/>
            </feSpecularLighting>
            <feComposite in="specOut" in2="SourceAlpha" operator="in" result="specOut"/>
            <feComposite in="SourceGraphic" in2="specOut" operator="arithmetic" k1="0" k2="1" k3="1" k4="0"/>
        </filter>
        <filter id="__flt3" x0="-50%" y0="-50%" width="200%" height="200%" filterUnits="objectBoundingBox">
            <feGaussianBlur in="SourceAlpha" stdDeviation="3" result="blur"/>
            <feOffset in="blur" dx="0" dy="0" result="offsetBlur"/>
            <feSpecularLighting in="blur" surfaceScale="4" specularConstant=".5" specularExponent="20" lighting-color="flavor" result="specOut">
                <fePointLight x="-5000" y="-10000" z="5000"/>
            </feSpecularLighting>
            <feComposite in="specOut" in2="SourceAlpha" operator="in" result="specOut"/>
            <feComposite in="SourceGraphic" in2="specOut" operator="arithmetic" k1="0" k2="1" k3="1" k4="0" result="litPaint"/>
            <feMerge>
                <feMergeNode in="offsetBlur"/>
                <feMergeNode in="litPaint"/>
            </feMerge>
        </filter>
        <filter id="__flt4" x0="-50%" y0="-50%" width="200%" height="200%">
            <feGaussianBlur in="SourceAlpha" stdDeviation="2" result="blur"/>
            <feOffset dy="-1" dx="-1"/>
            <feComposite in2="SourceAlpha" operator="arithmetic" k2="-1" k3="1" result="hlDiff"/>
            <feFlood flood-color="white" flood-opacity=".7"/>
            <feComposite in2="hlDiff" operator="in"/>
            <feComposite in2="SourceGraphic" operator="over" result="withGlow"/>
            <feOffset in="blur" dy="3" dx="3"/>
            <feComposite in2="SourceAlpha" operator="arithmetic" k2="-1" k3="1" result="shadowDiff"/>
            <feFlood flood-color="black" flood-opacity="1"/>
            <feComposite in2="shadowDiff" operator="in"/>
            <feComposite in2="withGlow" operator="over"/>
        </filter>
        <filter id="__golge1" x="0" y="0" width="200%" height="200%" filterUnits="userSpaceOnUse">
            <feOffset result="offOut" in="SourceAlpha" dx="8" dy="8"/>
            <feGaussianBlur result="blurOut" in="offOut" stdDeviation="3"/>
            <feBlend in="SourceGraphic" in2="blurOut" mode="normal"/>
        </filter>
    </defs>
    <g id="__Komsular" display="none">
        <linearGradient id="SVGID_1_" gradientUnits="userSpaceOnUse" x1="33.3716" y1="-14.1582" x2="139.1625" y2="154.7527">
            <stop offset="0" style="stop-color:#FFFFFF"/>
            <stop offset="0.1141" style="stop-color:#F9FAFC"/>
            <stop offset="0.2635" style="stop-color:#E9ECF5"/>
            <stop offset="0.4325" style="stop-color:#CED4E8"/>
            <stop offset="0.616" style="stop-color:#A8B3D7"/>
            <stop offset="0.8088" style="stop-color:#788AC1"/>
            <stop offset="1" style="stop-color:#415AA8"/>
        </linearGradient>
        <path fill-rule="evenodd" clip-rule="evenodd" fill="url(#SVGID_1_)" stroke="#000000" stroke-width="0" stroke-miterlimit="10" d="		M198.07,0.13H0.41v180.42L0,181.78c3.03-1.36,5.75-3.13,8.57-4.93c2.53-1.61,5.49-2.54,8.45-3.7c2.73-1.06,5.17-3.5,7.6-5.33		c2.65-2,4.88-3.81,7.18-6.16c0.67-0.69,1.44-1.46,2.09-2.22c2.09-0.62,3.85-2.96,5.88-3.56c1.45-2.55,3.42-5.79,6-7.72		c1.46-1.09,2.75-1.1,4.5-1.27c1.88-0.19,3.11-0.71,4.72-1.43c3.24-1.44,5.48-3.97,8.26-6.12c1.13-0.87,2.43-1.61,3.44-2.71		c0.96-1.04,1.87-2.57,3.45-2.91c0.51-0.75,1.56-1.42,2.29-2.02l0.06-0.68c-0.2,0,2.99-3.88,4.34-6.31		c0.64-0.11,1.01-0.81,1.61-1.11c0.67-0.24,1.34-0.48,2.01-0.73c0.59-0.82,1.31-0.95,2.1-1.51c0.72-0.2,1.44-0.39,2.17-0.59		c2.09,0.1,3.37-0.41,5.12-1.38c0.4-0.79,1.74-1.58,2.69-1.87c1.17-1.28,3.99-1.99,4.99-3.31c0.58-0.5,0.79-0.57,1.33-0.91		l0.05-0.21c2.32-1.81,4.87-2.7,7.67-3.25c1.3-0.25,4.46,0.32,4.91-0.06c1.87-0.37,3.88-0.58,5.66-1.43		c1.35-0.64,2.39-1.72,3.44-2.76c0.46,0.15,0.74-1.47,0.92-1.71c1.74-1.33,1.84-1.54,2.26-2.87c0.82-0.51,1.33-1.54,1.59-2.31		c0.62-0.64,2.17-3.1,2.09-3.9c0.83-1.46,1.66-2.91,2.49-4.37c0.3-0.57,0.85-1.15,1.22-1.74c1-1.5,0.72-1.33,0.86-1.62		c0.33-0.39,0.66-0.79,0.99-1.18c0-0.13,1.18-1.05,1.77-1.38c1.33-2.02,2.65-4.04,3.98-6.05c0.96-0.9,2.16-1.14,2.77-1.77		c0.72-0.82,1.07-1.04,1.53-1.83c0.4-0.09,0.8-0.19,1.21-0.28c2.37-0.56,3.19-1.81,4.9-3.47c0.95,0.21,2.04-0.89,2.96-1.18		c0.46-0.79,0.92-1.58,1.38-2.36c0.14-0.73,0.32-1.52,0.65-1.96c1.3-1.72,1.03-1.85,1.32-2.57c0.31-0.76,0.34-1.35,0.39-2.17		c0.34-0.5,0.56-0.88,0.79-1.38c1.29-1.27,1.77-2.34,2.41-3.45l0.42-0.7c0.42-0.96-0.13-2.52-0.01-3.69		c0.12-1.16,0.45-2.52,1.08-3.5c0.82-1.27,2.97-1.72,3.6-3.12c0.52-1.14,0.15-3.52,0.4-4.72c0.64-3.1,1.54-6.2,1.9-9.39		c0.35-3.15-0.81-6.95,0.83-9.64c1.48-2.44,4.17-4.17,5.7-6.77c1.54-2.62,3.03-4.91,5.43-6.94c1.62-1.37,4.79-4.89,7.13-4.77		c2.13,0.11,1.25,2.49,2.04,3.5c0.96,1.23,2.91,0.02,4.12-0.47c2.09-0.84,5.84-3.63,6.57-5.9L198.07,0.13z"/>
        <path fill-rule="evenodd" clip-rule="evenodd" fill="none" stroke="#000000" stroke-width="1" stroke-miterlimit="10" d="		M438.42,87.77c0.94-0.57,1.32-2.02,1.04-3.29c-0.1-0.46-0.63-1.03-0.84-1.64c-0.21-0.63,0.07-1.32-0.2-1.9		c-0.2-0.43-1.03-0.48-1.2-0.81c-0.36-0.69-0.11-1.32-0.23-1.8c-0.31-1.22-1.11-2.82-0.84-4.12c0.32-1.51,1.53-1.69,2.62-2.51		c1.29-0.97,0.97-1.35,1.68-2.63c1.27-2.27,3.49-3.04,5.73-3.71c-0.13-1.53,3.97-3.82,4.8-5.46c1.1-2.16,0.77-5.32,1.54-7.7		c0.87-2.7,2.25-4.18,2.11-7.34c-0.15-3.17-0.89-4.79,1.06-7.35c2.63-0.45,3.68-4.77,6.11-6.19c2.73-1.58,5.77-2.53,8.84-3.29		c3.04-0.76,6.22-1.06,9.23-1.65c3.08-0.6,6.09-1.8,9.45-1.43c2.09,0.23,3.03,1.56,4.93,2.26c1.73,0.64,3.81,0.41,5.74,0.41"/>
        <path fill-rule="evenodd" clip-rule="evenodd" fill="none" stroke="#000000" stroke-width="1" stroke-miterlimit="10" d="		M381.16,286.04c-0.31,1.6,0.82,2.21,1.24,3.48c0.5,1.51,0.69,3.18,1.22,4.73c0.94,2.78,2.36,5.5,3.12,8.18		c1.67,1.23,2.71,3.69,3.71,5.58c1.22,2.31,2.83,4.25,4.26,6.37c1.03,1.53,2.43,2.92,3.75,4.24c1.46,1.48,3.85,2.81,4.9,4.54		c1.1,0.32,1.92,1.52,3,2.13c1.28,0.74,2.64,0.8,4.16,0.97c2.78,0.31,5.68,0.42,8.62,0.42c5.6,0,11.32,0.76,15.97,3.52		c0.3,0.74,0.92,1.13,1.09,1.98c2.37,1.22,3.91,5.08,5.31,7.22c1.9,2.91,5.3,4.88,7.24,7.58c3.4,4.75,3.56,13.42,2.41,19.1		c-0.63,3.12-0.38,6.53-0.21,9.85c0.08,1.69,0.04,3.6,0.21,5.34c0.16,1.68,1.31,3.28,1.24,4.93"/>
        <path fill-rule="evenodd" clip-rule="evenodd" fill="none" stroke="#000000" stroke-width="1" stroke-miterlimit="10" d="		M47.41,317.65c-1.57,2.95-5.07,4.05-7.14,6.2c-2.12,2.2-4.26,3.89-6.36,5.96c-2.16,2.14-5.41,3.45-7.9,5.49		c-2.61,2.15-5.53,4.18-8.53,5.59c-3.55,1.67-5.14,4.85-8.25,7.09c-2.68,1.92-6.67,3.27-8.22,6.2"/>
        <text transform="matrix(0.282 -0.9594 0.9594 0.282 35.4922 243.9336)" font-family="'MyriadPro-Regular'" font-size="12">RİZE</text>
        <text transform="matrix(0.9906 -0.1369 0.1369 0.9906 196.5 414.5479)" font-family="'MyriadPro-Regular'" font-size="12">ERZURUM</text>
        <text transform="matrix(0.259 -0.9659 0.9659 0.259 476.3369 220.1729)" font-family="'MyriadPro-Regular'" font-size="12">ARDAHAN</text>
        <text transform="matrix(1 0 0 1 309.5239 27.0137)" font-family="'MyriadPro-Regular'" font-size="12">GÜRCİSTAN</text>
    </g>
    <g id="__Harita" fill="white" stroke="#000000" stroke-width="1" stroke-miterlimit="10" display="none">
        <rect id="__cer" x="0" y="0" fill="#000000" opacity="0" width="520" height="470"/>
        <g id="__Borçka">
            <path d="			M197.64,152.29c2.17-0.59,4.33-1.18,6.5-1.77c1.03-1.03,2.25-1.47,3.35-2.36c0.75-0.61,1.78-0.9,2.43-1.71			c1.17-1.45,1.16-5.12,3.32-5.84c0.38-0.11,0.76-0.22,1.15-0.33c0.33,0.13,0.66,0.26,0.98,0.39c0.63,0.05,1.26,0.1,1.9,0.15			c0.29,0.15,0.57,0.3,0.86,0.44c0.25,0.63,0.51,1.26,0.76,1.9c2.39,1.39,5.83-0.37,7.91-1.7c2.17,0.26,4.33,0.52,6.5,0.79			c0.52,0.2,1.05,0.39,1.58,0.59c2.04,0.39,4.07,0.79,6.11,1.18c2.24,0.71,4.07,2.21,6.5,2.36c0.42,0.3,0.67,0.39,1.18,0.39			c0.39,0.61,0.99,0.91,1.7,1.13c1.41,0.42,2.77,0.42,4.21,0.65c0.79,0.46,1.58,0.92,2.36,1.38c0.54-0.28,2-0.25,2.56,0			c0.97-0.52,3.27-1.97,4.33-1.97c0.46-0.26,0.92-0.53,1.38-0.79c0.98-1.31,1.97-2.63,2.96-3.94c0.53-1.16,1.21-2.47,2.12-3.38			c0.93-0.78,1.87-1.56,2.8-2.33c0.59-0.33,1.18-0.66,1.77-0.98c0.79-0.2,1.58-0.39,2.37-0.59c2.36-0.2,4.72-0.4,7.09-0.6			c0.52-0.03,1.03-0.05,1.55-0.08c1.45,0.24,4.73,0.39,6.03-0.16c2-0.85,3.54-2.65,5.23-4.09c0.53-0.53,1.05-1.05,1.58-1.58			c0.59-0.2,1.18-0.39,1.77-0.59c0.92-0.59,1.84-1.18,2.76-1.77c1.9-1.33,3.59-3.45,4.53-5.52c0.39-0.72,0.79-1.44,1.18-2.17			c0.33-0.33,0.66-0.66,0.99-0.99c0.31-0.11,0.62-0.2,0.93-0.27l0.06-0.12c0.66-2.92,0.88-5.67,0.59-8.67			c0.55-0.42,0.44-1.51,0.39-2.17c0.2-0.6,0.41-1.21,0.61-1.81c0.41-1.51,0.16-2.12,1.15-3.58c2.02-2.45,3.76,0.78,6.13,0.86			c0.67,0.02,1.16-0.37,1.71-0.69c1.16-0.75,1.37-2.02,1.25-3.25c0.56-0.4,0.33-1.36,0.37-1.98c-0.06-0.59-0.11-1.18-0.17-1.77			c0.54-0.93,0.32-2.18,0.59-3.15c0.58-2.1,0.61-4.49,0.39-6.7c0.88-0.8,0.06-3.55,0.2-4.73c0.22-1.84-0.48-3.5-0.59-5.32			c0.07-0.46,0.13-0.92,0.2-1.38c-0.32-0.41-0.18-1.05-0.2-1.58c-0.83-1.9-1.67-3.8-2.5-5.7c-0.56-1.21-0.53-2.51-0.65-3.76			c-0.54-0.28-0.72-1.59-0.99-2.17c-0.85-0.39-1.71-0.79-2.56-1.18c-0.72-0.07-1.45-0.13-2.17-0.2c-0.59,0.13-1.18,0.26-1.77,0.39			c-0.64,0.25-2.24,1.01-2.59,1.5c-0.78,0.22-1.56,0.44-2.33,0.67c-0.07,0.39-0.13,0.79-0.2,1.18c-1.13,0.35-1.97,0.79-3.15,0.79			c-0.53,0.53-1.05,1.05-1.58,1.58c-0.79,0.07-1.58,0.13-2.36,0.2c-0.72-0.26-1.45-0.53-2.17-0.79c-0.13-0.71-0.66-1.03-1.29-1.28			c-2.91-1.18-6.03-1.33-9-2.18c-0.55-0.13-1.06-3.13-1.15-4.03c-0.46-0.22-0.33-0.58-0.59-0.98c-0.44-0.68-0.97-1.06-1.63-1.48			c-0.87-0.48-1.88,0.29-2.91,0.1c-0.98-0.39-1.97-0.79-2.96-1.18c-0.45,0.57-1.3,0.34-1.97,0.39c-1.34,0.59-1.89,2.22-2.56,3.35			c-0.44-0.1-0.89-0.2-1.33-0.3c-0.62,0.12-1.27,1.77-2.02,2.27c-1.25,0.46-2.5,0.92-3.74,1.38c-0.37,0.27-0.59,0.56-0.67,1			c-0.3,0.26-0.6,0.52-0.91,0.78c-0.33,0.07-0.66,0.13-0.98,0.2c-0.73,0.72-1.61,1.82-1.8,2.94c-0.84,0.73-1.69,1.46-2.53,2.19			c0.17,0.74-0.16,0.96-0.34,1.67c0.04,0.19,0.07,0.38,0.11,0.57c-0.32,0.7-0.64,1.4-0.95,2.09c-0.76,0.75-1.52,1.49-2.28,2.24			c-0.43,0.63-0.66,1.39-0.68,2.08c-0.46,0.66-0.91,1.33-1.37,1.99c-0.78,0.54-1.56,1.08-2.35,1.61c-1.19,0.38-2.38,0.76-3.56,1.15			c-0.72,0.46-1.44,0.92-2.17,1.38c-0.37-0.16-0.63,0.04-0.99,0.2c0.06,0.43-0.32,0.82-0.46,1.27c-0.79,2.54-2.85,3.32-5.25,4.05			c-0.21,0.43-0.58,0.55-0.99,0.79c-0.42-0.24-1.07-0.07-1.59-0.15c-1.16-0.15-1.67-1.41-1.96-2.41c-0.98-0.4-0.96-1.93-1.77-2.56			c-0.73-0.56-1.76-0.81-2.65-0.49c-0.63-0.1-1.25-0.2-1.88-0.3c-0.07-0.66-0.13-1.31-0.2-1.97c-1.04-0.38-0.59-1.37-0.39-2.17			c-0.93-0.6-1.68-1.2-2.76-1.58c-0.63,0-0.9,0.66-1.18,1.18c-0.72-0.04-1.32-0.81-1.97-1.18c-1.58-0.92-3.15-1.84-4.73-2.76			c-1.53-0.38-3.48-0.91-5.12-0.99c-0.72,0-1.45,0-2.17,0c-0.46-0.07-0.92-0.13-1.38-0.2c-1.03,0.07-1.9,0.14-2.94,0.07			c-0.2-0.02-0.4-0.05-0.6-0.07c0.4-0.21,0.4-0.75,0.59-1.18c-0.41-0.56,0.24-1.29,0.59-1.77c-0.22-0.65,0.93-2.26,1.18-2.96			c-0.44-0.29-0.34-0.3-0.39-0.75c-0.25-1.24-2.14-1.75-3.53-1.66c-1.46,0.99-2.91,1.98-4.37,2.97c-0.85,0.01-1.69,0.02-2.54,0.03			c-0.43,1.13-2.66,1.28-3.74,1.58c-0.76-0.71-4.2-0.99-5.32-0.99c-0.33-0.13-0.66-0.26-0.99-0.39c-0.49,0.33-2.4,0.14-2.96-0.2			c-2.29-1.41-2.42-2.19-3.53-4.59c0,0-0.76,0.44-1.2,0.65c-0.86-0.58-2.97,0.69-3.7,1.1c-0.58,0.36-1.88,2.21-1.69,2.91			c-0.36,0.59-0.74,1.55-0.15,1.98c0.06,0.79,0.11,1.58,0.17,2.36c-0.11,0.77-0.21,1.54-0.32,2.31c-0.16,1.67-1.38,3.31-2.17,4.72			c-1.01,1.82-1.8,3.77-2.57,5.7c-0.79,0.59-1.58,1.18-2.36,1.77c-1.97,0.39-3.94,0.79-5.91,1.18c-0.46,0.33-0.92,0.66-1.38,0.99			c-0.39,0.26-0.79,0.53-1.18,0.79c-1.45,1.9-0.63,3.97-1.38,6.11c-0.52,1.64-1.05,3.28-1.58,4.93c-0.88,0.42-2.18,3.99-2.6,4.94			c-0.23,0.48-0.06,0.43-0.06,0.84c0.06,0.27,0.38,0.65,0.44,0.92c0.8,1.25,1.61,2.49,2.41,3.74l0.5,0.47			c0.9,1.05,1.87,2.04,2.94,3.01c1.4,1.27,1.68,2.72,2.28,4.4c0.39,0.59,0.79,1.18,1.18,1.77c1.25,0.65,3.15,2.99,4.14,4.14			c0.66,0.39,1.31,0.79,1.97,1.18c1.77,0.13,3.55,0.26,5.32,0.39c3.01-0.42,6.01-0.29,9.06-0.19c0.13,0,0.27,0,0.4-0.01			c-0.02,0.16-0.04,0.31-0.06,0.47c1.42,0.84,0.46,3.11,1.42,4.3c1.54,1.54,5.47,0.5,7.64,2.02c1.8,1.16,1.69,3.18,1.84,5.04			c0.2,0.85,0.39,1.71,0.59,2.56c-0.54,0.88,0.17,1.67,0.2,2.56c0.07,2.29,0.94,7.46,2.48,9L197.64,152.29z"/>
            <circle cx="196.63" cy="117.53" r="1.586"/>
        </g>
        <g id="__Hopa">
            <path d="			M137.53,132.03c-0.72-0.1-1.49,0.05-2-0.38c-0.19-0.08-0.37-0.16-0.56-0.24c-0.85-1.34-1.06-3-1.51-4.53			c-0.69-1.35-1.39-2.7-2.08-4.05c-0.54-0.73-0.93-1.6-1.77-1.92c-1.02-0.38-2.24-0.55-3.31-0.53c-0.86,0.01-1.77-0.42-2.76-0.39			c-0.84,0.02-1.61,0.27-2.36,0.59c-0.72,0.13-1.44,0.26-2.17,0.39c-1.26,0.38-2.19,1.31-3.15,2.17c-1.34,1.2-3.11,2.07-4.84,2.07			c-0.25-0.06-0.51-0.13-0.76-0.19c-0.82-0.8-1.38-1.65-1.88-2.67c-0.28-0.31-0.56-0.62-0.84-0.92c-1.55-2.05-3.63-4.17-5.75-5.56			c-0.63-0.41-1.3-0.83-1.49-1.59c-0.21-0.04-1.22-0.93-1.43-0.97l0.05-0.21c2.32-1.81,4.87-2.7,7.67-3.25			c1.3-0.25,4.46,0.32,4.91-0.06c1.87-0.37,3.88-0.58,5.66-1.43c1.35-0.64,2.39-1.72,3.44-2.76c0.46,0.15,0.74-1.47,0.92-1.71			c1.74-1.33,1.84-1.54,2.26-2.87c0.82-0.51,1.33-1.54,1.59-2.31c0.62-0.64,2.17-3.1,2.09-3.9c0.83-1.46,1.66-2.91,2.49-4.37			c0.3-0.57,0.85-1.15,1.22-1.74c1-1.5,0.72-1.33,0.86-1.62c0.33-0.39,0.66-0.79,0.99-1.18c0-0.13,1.18-1.05,1.77-1.38			c1.33-2.02,2.65-4.04,3.98-6.05c0.96-0.9,2.16-1.14,2.77-1.77c0.72-0.82,1.07-1.04,1.53-1.83c0.4-0.09,0.8-0.19,1.21-0.28			c2.37-0.56,3.19-1.81,4.9-3.47c0.95,0.21,2.04-0.89,2.96-1.18c0.46-0.79,0.92-1.58,1.38-2.36c0.14-0.73,0.32-1.52,0.65-1.96			c1.3-1.72,1.03-1.85,1.32-2.57c0.31-0.76,0.34-1.35,0.39-2.17c0.34-0.5,0.56-0.88,0.79-1.38c1.29-1.27,1.77-2.34,2.41-3.45			c0.85-1.21,1.65,0.02,2.9-0.1c1.66-0.16,3.06-0.65,4.74-0.39c0.34,0.7,1.33,0.81,1.97,1.18c0.35,0.9,0.71,1.81,1.06,2.71			c0.46,0.97,2,0.19,2.88,0.64c0.72,0.33,1.44,0.66,2.17,0.99c0.26,0.26,0.53,0.52,0.79,0.79c1.49-0.26,3.31,0.48,4.73,0.79			c0.15,0.5,0.21,0.47,0.64,0.73c-0.44,0.21-0.79,0.44-1.23,0.65c-0.86-0.58-2.97,0.69-3.7,1.1c-0.58,0.36-1.88,2.21-1.69,2.91			c-0.36,0.59-0.74,1.55-0.15,1.98c0.06,0.79,0.11,1.58,0.17,2.36c-0.11,0.77-0.21,1.54-0.32,2.31c-0.16,1.67-1.38,3.31-2.17,4.72			c-1.01,1.82-1.8,3.77-2.57,5.7c-0.79,0.59-1.58,1.18-2.36,1.77c-1.97,0.39-3.94,0.79-5.91,1.18c-0.46,0.33-0.92,0.66-1.38,0.99			c-0.39,0.26-0.79,0.53-1.18,0.79c-1.45,1.9-0.63,3.97-1.38,6.11c-0.52,1.64-1.05,3.28-1.58,4.93c-0.88,0.42-2.18,3.99-2.6,4.94			c-0.23,0.48-0.29,0.71,0.21,0.95c0.06,0.27,0.11,0.54,0.17,0.81c0.8,1.25,1.61,2.49,2.41,3.74l0.46,0.34			c-0.2,0.07-0.66,0.38-0.86,0.45c-1.45,1.25-2.89,2.5-4.33,3.74c0,0.55-0.88,1.25-1.16,1.59c-0.85,1.06-1,1.91-2.39,2.54			c0,1.12-1.12,2.46-1.77,3.35c0,1.12,0.68,4.44,0,5.12c0,0.91,0.24,2.01,0,2.76c-0.98,0.98-1.51,0.56-2.36,1.18			C143.25,132.39,139.31,132.29,137.53,132.03z"/>
            <circle cx="122.95" cy="103.37" r="1.586"/>
        </g>
        <g id="__Arhavi">
            <path d="			M108.07,222.35c2.6-1.61,5.19-3.23,7.79-4.84c0.59,0.08,1.63,0.26,1.97,0.79c1.39,0,4.76,0.22,5.7-0.79			c0.63-0.68,0.8-1.02,0.8-1.93c-0.23-0.97-0.47-1.94-0.7-2.91c0.78-0.85,1.86-2.2,3.07-2.46c0.43-0.61,0.99-1.92,1.61-2.12			c1.14-0.29,4.68-0.88,5.84-0.37c0.93,0.46,1.26,1.02,2,1.7c0.13,0.39,0.26,0.79,0.39,1.18c0.72,0.53,1.44,1.05,2.17,1.58			c1.25,0.07,2.5,0.13,3.74,0.2c1.22-0.41,2.26-1.2,3.37-1.92c0.71-0.46,1.58-0.6,1.95-1.43c0.88-0.54,2.02-0.65,2.49-1.56			c-0.28-0.56,0.14-1.89,0.29-2.58c0.31-1.45,0.41-4.88,1.56-5.71c0.2-0.66,0.39-1.31,0.59-1.97c-0.14-0.75-0.35-2.16,0.2-2.76			c-0.07-1.12-0.13-2.23-0.2-3.35c0-0.67-0.16-1.72,0.39-2.17c-0.09-1.11-0.18-2.23-0.26-3.34c0.04-0.72,0.09-1.45,0.13-2.17			c-0.02-0.6-0.04-1.19-0.06-1.79c-0.37-0.81-0.73-1.62-1.1-2.43c0.04-0.24,0.07-0.48,0.11-0.73c-0.08-0.32-0.16-0.63-0.23-0.95			c-0.5-0.33-0.4-1.37-0.38-2c0.21-1.16,0.41-2.32,0.62-3.47c0.54-0.38,0.33-0.52,0.6-1.02c0.69-1.28,1.06-2.63-0.03-3.79			c-0.44-0.46-1.72-1.67-2.54-1.38c-0.06-0.2-0.12-0.4-0.18-0.6c-0.31-1.11-1-3.68-0.8-4.72c-1.39-2.01-2.98-3.31-5.32-3.94			c-0.72-0.53-1.45-1.05-2.17-1.58c-0.52-0.79-1.05-1.58-1.58-2.36c-0.3-0.5-0.32-1.24-0.79-1.58c-0.2-0.65-0.57-1.82-1.18-2.17			c-0.1-1.67,0.27-4.7,1.77-5.71c0.13-0.33,0.26-0.66,0.39-0.98c-0.24-1.92,0.27-4,0.96-5.86c0.71-1.39,1.42-2.78,2.12-4.17			c-1.77,0.47-3.87,0.07-5.65-0.18c-0.72-0.1-1.49,0.05-2-0.38c-0.19-0.08-0.37-0.16-0.56-0.24c-0.85-1.34-1.06-3-1.51-4.53			c-0.69-1.35-1.39-2.7-2.08-4.05c-0.54-0.73-0.93-1.6-1.77-1.92c-1.02-0.38-2.24-0.55-3.31-0.53c-0.86,0.01-1.77-0.42-2.76-0.39			c-0.84,0.02-1.61,0.27-2.36,0.59c-0.72,0.13-1.44,0.26-2.17,0.39c-1.26,0.38-2.19,1.31-3.15,2.17c-1.34,1.2-3.11,2.07-4.84,2.07			c-0.25-0.06-0.51-0.13-0.76-0.19c-0.82-0.8-1.38-1.65-1.88-2.67c-0.28-0.31-0.56-0.62-0.84-0.92c-1.55-2.05-3.63-4.17-5.75-5.56			c-0.63-0.41-1.3-0.83-1.49-1.59c-0.21-0.04-1.22-0.93-1.43-0.97c-0.55,0.34-0.75,0.41-1.33,0.91c-1,1.32-3.82,2.03-4.99,3.31			c-0.95,0.29-2.29,1.08-2.69,1.87c-1.76,0.97-3.04,1.48-5.12,1.38c-0.72,0.2-1.44,0.39-2.17,0.59c-0.79,0.56-1.51,0.69-2.1,1.51			c-0.67,0.24-1.34,0.48-2.01,0.73c-0.59,0.3-0.96,1-1.61,1.11c-1.34,2.42-4.53,6.31-4.34,6.31c0,0.83,0.55,1.65,0.99,2.36			c0.23,0.71,0.46,1.41,0.68,2.12c1.74,4.19,3.19,8.42,5.22,12.47c0.26,0.72,0.53,1.45,0.79,2.17c0.46,1.12,0.92,2.23,1.38,3.35			c0.92,1.97,1.84,3.94,2.76,5.91c0.47,1.18,3.21,3.28,4.22,4.17c0.16,0.51,1.4,1.47,1.96,1.56c0.47,0.73,1.72,2.47,2.49,2.65			c0.56,0.87,1.17,1.72,2.16,2.07c0.98,1.31,1.97,2.63,2.96,3.94c1.57,3.98,1.48,7.47,1.88,11.62c0.07,0.74,1.05,3.19,0.87,3.55			c0.98,1.58,1.97,3.15,2.96,4.73c0.44,0.76,0.7,0.6,1.25,1.57c0.06,0.31,0.41,0.96,0.98,1.04c0.26,0.83,1.27,2.85,1.91,3.3			c0.33,0.98,0.67,1.95,1,2.93c0.16,1.13,0.32,2.27,0.47,3.4c0.12,0.73-0.02,2.22,0.49,2.73c-0.07,0.83-0.14,1.66-0.21,2.49			c-0.66,0.47-0.17,0.8-0.38,1.45c-0.38,0.34-0.64,0.88-0.79,1.38c-0.23,0.79,0.15,2.14-0.39,2.76c0,1.44-0.45,2.65-0.36,4.13			C107.9,221.36,107.99,221.86,108.07,222.35z"/>
            <circle cx="89.08" cy="120.4" r="1.586"/>
        </g>
        <g id="__Artvin">
            <path d="			M282.76,269.53c-0.05-0.18-0.69-1.72-0.74-1.9c-0.32-0.93-0.12-0.88-0.84-1.64c-0.46-1.38-0.92-2.76-1.38-4.14			c-0.54-0.51-1.07-1.03-1.61-1.54c-0.58-0.87-1.16-1.73-1.74-2.6c-0.13-0.82-0.12-3.06,0.59-3.55c-0.28-0.82-1.18-3.77-0.99-4.53			c-1.16-2.05-2.28-3.93-2.76-6.31c-0.13-0.46-0.26-0.92-0.39-1.38c-0.83-0.93-1.76-1.46-2.52-2.44c-0.21-0.76-0.42-1.52-0.63-2.28			c0-0.33,0-0.66,0-0.99c-0.4-1.09-0.85-2.28-1.6-3.21c-0.44-0.54-2.3-3-2.19-3.24c0.3-0.59,1.24-1.71,2.01-1.63			c0.47-0.63,0.95-1.25,1.42-1.88c0.28-0.48,0.41-0.89,0.43-1.45c0.37-0.66,0.73-1.33,1.1-1.99c1.23-0.55,2.46-0.58,2.84-2.08			c0.13-0.61,0.04-1.98-0.87-1.87c-0.23-0.58,0-0.88-0.59-1.18c0.07-1.14-0.51-4.01-1.18-4.93c-0.04-1.57-0.08-3.14-0.12-4.72			c-0.22-1.05-0.45-2.1-0.67-3.15c-0.32-0.75-0.64-1.5-0.95-2.25c-0.34-0.2-0.98-0.55-1.01-1.02c-0.25-0.28-0.5-0.55-0.76-0.83			c0.27-0.92-0.33-0.74,0.75-1.21c0.54-0.24,1.96-0.89,2.57-0.81c2.76-1.64,5.52-3.28,8.28-4.93c1.18-1.71,2.36-3.42,3.55-5.12			c0.04-0.45,0.18-0.52,0.39-1.18c0.66-0.85,0.92-1.71,1.58-2.56c0.54-0.66,0.67-0.57,0.99-0.99c0.32-0.43,0.42-0.74,0.99-1.38			c0.28-0.48,0.09-0.01,0.59-0.98c0.33-0.13,0.26-0.26,0.59-0.39c0.26-0.39,0.53-0.79,0.79-1.18c0.87-0.7,1.74-1.4,2.6-2.11			c0.05-0.22,3.29-2.24,4.49-2.03c0.81-0.54,2.51-1.44,3.55-1.77c0.5-0.16,1.62-0.38,1.58-0.79c-0.06-0.53,1.11-0.57,1.49-1.08			c-0.09,0.07,0.15-0.95,0.35-1.52c0.15-0.08,0.87-0.89,1.31-0.95c0.26-0.39,0.53-0.79,0.79-1.18c0.6-0.23,1.2-0.47,1.8-0.7			c0.34-0.57,1.29-0.67,1.82-1.11c1.26-1.05,5.27-1.42,6.82-1.34c0.39-0.31,0.69-0.7,1.18-0.79c0.86-1.22,1.47-1.64,2.88-2.27			c0.78-0.35,1.8-0.82,2.64-0.49c0.7-0.35,1.24-0.56,1.95-0.87c0.87-0.38,3.38-1.4,3.57-2.28c0.66-0.13,1.31-0.26,1.97-0.39			c0.68-0.29,1.42-0.98,2.16-0.46c0.66,0.41,0.86,1.06,1.39,1.44c0.26,0.31,1.11,0.98,1.39,1.01c0.34,0.05,0.68,0.2,1.03,0.14			c0.88-0.22,1.4-0.43,1.92-0.95c1.2-1.01,1.99-3.34,2.19-3.62l0.18-0.13c0,0-0.28,0.01-1.18-0.39c-0.66-1.25-1.31-2.5-1.97-3.74			c-0.26-2.76-0.53-5.52-0.79-8.28c-0.43-1.05-0.99-2.41-0.79-3.55c-1.97-3.09-3.94-6.17-5.91-9.26c-0.87-1.67-1.74-3.35-2.62-5.02			c-0.6-0.91-1.21-1.82-1.81-2.73c-0.45-0.33-2.54-2.29-2.47-2.69c-0.85-0.53-1.71-1.05-2.56-1.58c-1.96-0.28-3.92-0.56-5.87-0.84			c-1.21,0.04-1.44,0.59-2.67,0.28l-0.19,0.09c-0.31,0.07-0.62,0.16-0.93,0.27c-0.33,0.33-0.66,0.66-0.99,0.99			c-0.39,0.72-0.79,1.44-1.18,2.17c-0.94,2.07-2.64,4.18-4.53,5.52c-0.92,0.59-1.84,1.18-2.76,1.77c-0.59,0.2-1.18,0.39-1.77,0.59			c-0.53,0.53-1.05,1.05-1.58,1.58c-1.69,1.44-3.23,3.24-5.23,4.09c-1.3,0.55-4.57,0.4-6.03,0.16c-0.52,0.03-1.04,0.05-1.55,0.08			c-2.36,0.2-4.73,0.4-7.09,0.6c-0.79,0.2-1.58,0.39-2.37,0.59c-0.59,0.33-1.18,0.66-1.77,0.98c-0.93,0.78-1.87,1.56-2.8,2.33			c-0.91,0.91-1.59,2.22-2.12,3.38c-0.99,1.31-1.97,2.63-2.96,3.94c-0.46,0.26-0.92,0.53-1.38,0.79c-1.06,0-3.36,1.45-4.33,1.97			c-0.57-0.25-2.02-0.28-2.56,0c-0.79-0.46-1.58-0.92-2.36-1.38c-1.44-0.23-2.8-0.22-4.21-0.65c-0.71-0.21-1.31-0.52-1.7-1.13			c-0.52,0-0.76-0.1-1.18-0.39c-2.43-0.16-4.26-1.66-6.5-2.36c-2.04-0.39-4.07-0.79-6.11-1.18c-0.53-0.2-1.05-0.39-1.58-0.59			c-2.17-0.26-4.34-0.53-6.5-0.79c-2.08,1.33-5.52,3.09-7.91,1.7c-0.25-0.63-0.51-1.26-0.76-1.9c-0.29-0.15-0.58-0.3-0.86-0.44			c-0.63-0.05-1.26-0.1-1.9-0.15c-0.33-0.13-0.66-0.26-0.98-0.39c-0.38,0.11-0.76,0.22-1.15,0.33c-2.16,0.72-2.15,4.39-3.32,5.84			c-0.65,0.81-1.68,1.1-2.43,1.71c-1.1,0.9-2.32,1.33-3.35,2.36c-2.17,0.59-4.34,1.18-6.5,1.77l-0.2,0.39			c-0.88,0.88-1.04,2.07-1.58,3.15c-0.68,0.32-0.94,1-1.38,1.58c-0.14-0.14-1.08,0.19-1.58,0.39c0,0.18-0.92,0.54-1.22,0.63			c-1.02,0.31-1.91,1.45-2.54,2.26c-0.46,0.69-0.09,2.17,0.02,3.02c-0.07,0.59-0.13,1.18-0.2,1.77c-0.14,0.75,0.65,3.21,1.18,3.74			c0,1.95-1.64,0.88-2.71,1.62c-0.67-0.01-1.35-0.03-2.02-0.04c-1.36,0.57-2.72,1.15-4.08,1.72c-0.87,0.48-1.75,0.95-2.62,1.43			c-1.05,0-2.1,0-3.15,0c0-0.26,0.06-0.24-0.3-0.28c-0.55-0.06-1.24,0.12-1.67-0.31c-0.85,0.13-1.71,0.26-2.56,0.39			c-1.76,0.78-1.82,3.42-2.76,4.93c0,0.74,0.05,1.51-0.39,2.17c-0.33,0.46-0.66,0.92-0.99,1.38c-0.39,1.12-0.79,2.23-1.18,3.35			c0.07,1.71,0.13,3.42,0.2,5.12c-0.07,1.31-0.13,2.63-0.2,3.94c0.2,0.72,0.39,1.45,0.59,2.17c-0.64,0.64-0.31,1.5-0.46,2.35			c-0.31,2.43-0.61,4.87-0.92,7.3c-2.09,2.09-3.8,1.5-6.5,1.38c-0.79,0.13-1.58,0.26-2.36,0.39c-0.73,0.08-1.37,0.03-2.17,0			c-1.31-0.2-2-0.28-3.26-0.69l-0.4,0.01c0,0,0.79,1.51,1.13,2.34c0.11,0.27,0.34,0.61,0.55,0.91c0.39,0.92,0.79,1.84,1.18,2.76			c0.13,1.05,0.26,2.1,0.39,3.15c0.13,0.46,0.26,0.92,0.39,1.38c0.9,1.06,2.61,1.42,3.94,1.77c0.33,0.33,0.66,0.66,0.99,0.98			c0.35-0.08,0.78,0.29,0.99,0.59c2,2.85,2.38,6.61,4.14,9.66c0.33,0.33,0.66,0.66,0.99,0.99c0.35-0.45,0.65-0.26,1.18-0.2			c1.6-0.98,3.33-1.06,5.1-0.86c2.96,0.81,5.92,1.62,8.89,2.43c2.25,0.18,4.3-1.04,6.5-1.18c0.39-0.26,0.79-0.53,1.18-0.79			c0.53-1.21,1.24-1.89,2.17-2.76c0.21-1.68,1.8-1.98,3.15-2.56c2.59,0,4.64,1.39,6.96,2.2c2.79,0.69,5.58,1.39,8.37,2.08			c0.86,0.28,1.73,0.56,2.59,0.84c1.08,1.31,1.76,2.56,2.49,4.08c0.22,0.41,0.44,0.83,0.66,1.24c0.13,0.39,0.26,0.79,0.39,1.18			c1.25,1.71,2.5,3.42,3.74,5.12c0.81,0.91,1.86,1.2,2.96,1.58c0.17,0.61,2.65,2.94,3.24,3.47c0.67,0.73,1.34,1.45,2.01,2.18			c1.34,0.87,2.67,1.75,4.01,2.62c0.59,0.26,1.18,0.52,1.77,0.79c0.66,0.59,1.31,1.18,1.97,1.77c0.39,0.79,0.79,1.58,1.18,2.36			c-0.04,3.83-0.09,7.66-0.14,11.5c0.03,1.18,0.06,2.35,0.09,3.53c0.07,1.02,0.49,0.96,1.43,1.13c0.39-0.2,0.79-0.39,1.18-0.59			c1.41-1.41,2.79-1.66,4.73-1.97c0.79,0.2,1.58,0.39,2.36,0.59c1,0.49,1.72,1.41,2.56,2.17c0.52,0.26,1.05,0.52,1.58,0.79			c0.13-0.07,0.26-0.13,0.39-0.2c0.2-0.33,0.39-0.66,0.59-0.99c0.91-0.59,1.94-0.6,2.94-0.83c0.93-0.25,1.85-0.5,2.78-0.75			c0.79,0,1.58,0,2.36,0c0.39,0.39,1.41,0.32,1.97,0.39c0.67,0.57,1.33,1.15,2,1.72c0.73,0.85,0.39,2.27,0.52,3.4			c0.28,2.89,0.8,8.6,0.93,8.63c1.77-1.25,3.65-2.46,5.42-3.71c0.21-0.45,0.3-0.63,0.61-0.98c0.64-0.73,1.2-0.79,1.56-1.78			c1.3-0.49,2.11-1.51,2.96-2.56c0.29,0,1.97-1.98,2.09-2.37c0.75-0.65,1.49-1.31,2.24-1.96c0.26-0.33,0.53-0.66,0.79-0.99			L282.76,269.53z"/>
            <circle cx="237.68" cy="185.88" r="1.586"/>
        </g>
        <g id="__Yusufeli">
            <path d="			M260.86,289.04c-0.39,0.94-1.57,1.69-2.33,2.37c-0.83,0.93-1.67,1.86-2.5,2.8c-0.18,1.03-2.2,3.36-3,4.07			c-0.02,0.79-0.7,1.02-1.06,1.64c-1.17,2.01-2.25,4.04-3.68,5.87c0.07,1.12,0.13,2.23,0.2,3.35c-0.03,0.56,0.35,1.1,0,1.58			c2.02,3.39,4.36,6.42,6.5,9.66c0.59,0.89,0.35,3.2,0.79,3.74c-0.05,0.69-0.2,2,0.2,2.56c-0.07,0.39-0.13,0.79-0.2,1.18			c-0.2,1.18-0.39,2.36-0.59,3.55c-0.72,1.71-1.44,3.42-2.17,5.12c-1.15,2.72-2.31,5.85-4.42,7.99c-0.83,0.49-1.65,0.98-2.48,1.46			c-0.63,0.55-1.25,1.1-1.88,1.65c-1.39,0.95-2.48,2.33-3.03,3.93c-0.48,0.3-0.77,2.33-0.61,2.89c0-0.33,0-0.66,0-0.99			c-0.08,0.57-0.24,2.34,0,2.76c-0.39,1.64-0.79,3.28-1.18,4.93c-0.1,1.04-0.2,2.08-0.3,3.12c-0.11,0.62-0.47,4.12-0.29,4.37			c-0.33,1.58-0.66,3.15-0.99,4.73c-0.52,1.05-1.05,2.1-1.58,3.15c-1.38,1.44-2.76,2.89-4.14,4.33c-0.33,0.14-0.66,0.27-0.99,0.41			c-2.97,1.97-6.66,1.21-10.01,1.67c-0.74-0.1-1.47-0.21-2.21-0.31c-0.9-0.7-1.95-0.93-2.43-2.02c-0.71-0.48-1.42-0.97-2.14-1.45			c-0.79-0.95-1.51-1.89-2.52-2.64c-2.58-1.88-5.62-3.28-8.47-4.73c-1.71-0.86-4.82-2.86-6.7-2.96c-1.01-0.86-2.32-1.33-3.55-1.77			c-0.71-0.35-1.41-0.69-2.12-1.04c-0.8-0.19-1.6-0.37-2.4-0.56c-1.65,0.01-3.29,0.02-4.94,0.02c-1.31,0.02-2.62,0.04-3.93,0.06			c-3.98,1.3-7.74,3.45-10.06,7.04c-0.62,0.96-2.63,2.35-2.76,3.35c-5.25,4.79-10.51,9.59-15.76,14.38			c-1.58,1.41-2.34,3.36-3.83,4.83c-0.83,0.81-1.67,1.62-2.5,2.43c-0.61,0.52-1.47,0.75-1.75,1.61c-1.83,1.15-3.39,2.71-4.53,4.53			c-0.82,1.3-2.23,2.47-2.76,3.94c-1.51,1.05-3.02,2.1-4.53,3.15c-1.17,0.6-2.35,1.21-3.52,1.81c-1.25,0.64-2.5,1.29-3.75,1.93			c-1.85,0.66-3.69,1.32-5.54,1.98c-2.04,0.07-4.07,0.13-6.11,0.2c-1.64-0.59-3.28-1.18-4.93-1.77c-0.79-0.66-1.58-1.31-2.36-1.97			c-0.62-0.46-0.84-1.31-1.58-1.58c-1.64-2.17-3.28-4.33-4.93-6.5c-0.5-1.1-1.01-2.2-1.51-3.31c-1.15-2.65-2.46-5.33-3.13-8.16			c-0.24-1.83-0.48-3.67-0.71-5.5c0.01-0.58,0.02-1.17,0.04-1.75c0.2-0.85,0.39-1.71,0.59-2.56c0.07-0.65,0.15-1.29,0.22-1.94			c0.26-0.67,0.53-1.33,0.79-2c1.18-3.14,2.17-6.42,3.92-9.27c0.61-1.24,1.22-2.49,1.82-3.73c0.83-1.2,0.71-1.06,1.33-1.98			c0.27-0.42,0.43-0.72,0.79-1.18c0.13-1.84,0.46-2.69,0.59-4.53c-0.17-0.79-0.16-0.57-0.2-0.99c-0.77-6.18-8.07-10.53-13.44-12.48			c-3.09-1.12-6.29-1.66-9.22-3.08c-2.17-1.05-3.36-4.16-5.71-4.67c-1.18-0.41-2.37-0.83-3.55-1.24c-1.25-0.13-2.5-0.26-3.74-0.39			c-1.51-0.68-3.02-1.35-4.53-2.03c-1.31-0.44-2.63-0.88-3.94-1.32c-2.52-1.65-4.86-4.4-6.11-7.09c-0.26-0.26-0.53-0.53-0.79-0.79			c-0.65-1.15-1.33-2.16-2.05-3.24c-0.3-0.44-0.73-1.24-1.3-1.29c-0.23-0.42-0.35-0.98-0.79-1.18c-0.13-0.72-0.26-1.45-0.39-2.17			c0.31-0.8,0.73-1.71,0.59-2.56c0.76-1.46,1.53-2.91,2.29-4.37c0.62-1.17,1.23-2.34,1.85-3.52c0.74-2.64,3.23-6.12,6.11-6.7			c0.97-0.97,1.57-2.46,2.76-3.15c-0.31,0-0.31-0.58-0.59-0.79c0.07-0.2,0.14-0.39,0.2-0.59c0.55-1.5,1.1-3,1.66-4.5			c1.09-3.36,2.18-6.72,3.26-10.08c0.37-2.96,1.11-6.17,2.38-8.88c1.47-3.15,2.93-6.21,4.91-9.05c0.74-1.07,2.43-1.79,3.55-2.36			c3.45-1.77,6.54-3.82,9.84-5.77c1.69-1,3.38-2,5.06-2.99c0.75-0.56,1.49-1.12,2.24-1.68c1.01-1.54,2.02-3.08,3.02-4.62			c0.7-1.55,1.4-3.09,2.1-4.64c0.59-0.79,1.18-1.58,1.77-2.36c1.71-3.15,3.42-6.31,5.12-9.46c0.66-1.71,1.31-3.42,1.97-5.12			c0.12-0.93-0.11-0.67,0.38-1.48l0.11,0.02c2.6-1.61,5.19-3.23,7.79-4.84c0.59,0.08,1.63,0.26,1.97,0.79c1.39,0,4.76,0.22,5.7-0.79			c0.63-0.68,0.8-1.02,0.8-1.93c-0.23-0.97-0.47-1.94-0.7-2.91c0.78-0.85,1.86-2.2,3.07-2.46c0.43-0.61,0.99-1.92,1.61-2.12			c1.14-0.29,4.68-0.88,5.84-0.37c0.93,0.46,1.26,1.02,2,1.7c0.13,0.39,0.26,0.79,0.39,1.18c0.72,0.53,1.44,1.05,2.17,1.58			c1.25,0.07,2.5,0.13,3.74,0.2c1.22-0.41,2.26-1.2,3.37-1.92c0.71-0.46,1.58-0.6,1.95-1.43c0.88-0.54,2.02-0.65,2.49-1.56			l-0.04,0.09c0,0,0.79,1.51,1.13,2.34c0.11,0.27,0.34,0.61,0.55,0.91c0.39,0.92,0.79,1.84,1.18,2.76c0.13,1.05,0.26,2.1,0.39,3.15			c0.13,0.46,0.26,0.92,0.39,1.38c0.9,1.06,2.61,1.42,3.94,1.77c0.33,0.33,0.66,0.66,0.99,0.98c0.35-0.08,0.78,0.29,0.99,0.59			c2,2.85,2.38,6.61,4.14,9.66c0.33,0.33,0.66,0.66,0.99,0.99c0.35-0.45,0.65-0.26,1.18-0.2c1.6-0.98,3.33-1.06,5.1-0.86			c2.96,0.81,5.92,1.62,8.89,2.43c2.25,0.18,4.3-1.04,6.5-1.18c0.39-0.26,0.79-0.53,1.18-0.79c0.53-1.21,1.24-1.89,2.17-2.76			c0.21-1.68,1.8-1.98,3.15-2.56c2.59,0,4.64,1.39,6.96,2.2c2.79,0.69,5.58,1.39,8.37,2.08c0.86,0.28,1.73,0.56,2.59,0.84			c1.08,1.31,1.76,2.56,2.49,4.08c0.22,0.41,0.44,0.83,0.66,1.24c0.13,0.39,0.26,0.79,0.39,1.18c1.25,1.71,2.5,3.42,3.74,5.12			c0.81,0.91,1.86,1.2,2.96,1.58c0.17,0.61,2.65,2.94,3.24,3.47c0.67,0.73,1.34,1.45,2.01,2.18c1.34,0.87,2.67,1.75,4.01,2.62			c0.59,0.26,1.18,0.52,1.77,0.79c0.66,0.59,1.31,1.18,1.97,1.77c0.39,0.79,0.79,1.58,1.18,2.36c-0.04,3.83-0.09,7.66-0.14,11.5			c0.03,1.18,0.06,2.35,0.09,3.53c0.07,1.02,0.49,0.96,1.43,1.13c0.39-0.2,0.79-0.39,1.18-0.59c1.41-1.41,2.79-1.66,4.73-1.97			c0.79,0.2,1.58,0.39,2.36,0.59c1,0.49,1.72,1.41,2.56,2.17c0.52,0.26,1.05,0.52,1.58,0.79c0.13-0.07,0.26-0.13,0.39-0.2			c0.2-0.33,0.39-0.66,0.59-0.99c0.91-0.59,1.94-0.6,2.94-0.83c0.93-0.25,1.85-0.5,2.78-0.75c0.79,0,1.58,0,2.36,0			c0.39,0.39,1.41,0.32,1.97,0.39c0.67,0.57,1.33,1.15,2,1.72c0.73,0.85,0.39,2.27,0.52,3.4c0.28,2.89,0.8,8.6,0.93,8.63			C263.74,286.25,261.89,288.31,260.86,289.04z"/>
            <circle cx="158.87" cy="324.02" r="1.586"/>
        </g>
        <g id="__Ardanuç">
            <path d="			M341.41,156.11c0.91,0.41,0.55,0.67,1.46,1.08c0.26,0.47,0.52,0.94,0.78,1.41c0.3,0.85,1.08,1.31,1.32,2.24			c0.53,0.15,0.56,0.27,0.84,0.71c0.07,0.2,0.13,0.39,0.2,0.59c-0.16,0.78-0.21,0.97,0.39,1.58c-0.32,0.94-0.29,1.61,0.59,2.11			c0.85,0.35,1.71,0.69,2.56,1.04c0.33,0.26,0.66,0.53,0.99,0.79c0.71,0.45,0.85,0.77,1.77,1.58c0.5,0.9,1.27,2.34,1.97,3.35			c0.33,0.98,0.66,1.97,0.98,2.96c0.66,0.46,1.31,0.92,1.97,1.38c0.38,0.33,0.33,0.77,0.79,0.99c0.07,0.39,0.13,0.79,0.2,1.18			c-0.17,1.07-0.42,2.08-0.29,3.15c2.63,1.85,2.55,4.7,2.46,7.69c-0.03,0.87,0.09,2.49-0.39,3.15c0,0.66,0,1.31,0,1.97			c0.23,0.77,0.82,2.21,0.39,2.96c0.42,0.71,1.39,1.76,1.38,2.56c0.47,0.47,1.87,2.14,1.97,2.76c0.57,0.53,1.18,0.99,1.18,1.77			c1.51,0.36,2.35,2.07,3.55,2.96c0.99,0.73,2.88,1.22,3.55,2.17c2.23,0.34,4.11,1.74,6.19,2.71c3.6,1.68,6.96,3.04,10.36,5.17			c0.77,0.2,1.53,0.4,2.3,0.6c1.25,0.4,2.28,0.91,3.44,1.48c0.35,0.17,1.79,1.18,1.45,1.58c-2.66,3.14-3.88,6.26-2.58,10.17			c0.24,0.64,0.47,1.29,0.71,1.93c0.21,1.24,0.54,2.65,1.18,3.74c0.04,0.47,0.08,0.94,0.12,1.4c0.3,1.1,0.61,2.21,0.91,3.31			c0.65,3.22,1.3,6.44,1.95,9.66c0.13,0.79,0.25,1.58,0.38,2.38c-0.1,3.06-0.26,5.95-1.18,8.85c-0.31,0.99-0.42,2.41-1.19,3.17			c-0.07,0.66-0.13,1.31-0.2,1.97c-0.42,0.65-1.56,3.5-1.38,4.14c-0.26,0.34-0.55,0.56-0.39,0.99c-0.54,0.6-2.74,3.39-2.76,3.94			c-1.06,0.79-2.13,1.58-3.19,2.36c-0.21,0.52-0.53,0.59-1.05,0.77c-0.17,0.7-1.94,2.07-2.74,2.2c-0.65,1.02-1.94,2.57-3.29,2.65			c-0.13,0.1-0.25,0.19-0.38,0.29c-0.89-0.34-2.69-1.08-3.55-0.39c-0.66-0.13-1.52-0.41-1.97,0.2c-0.53-0.15-0.85-0.4-1.38-0.2			c-1.75-1.86-4.02-3.04-6.34-4.05c-0.71-0.29-1.42-0.58-2.14-0.87c-0.99-0.52-1.97-1.05-2.96-1.58c-0.33,0-0.66,0-0.98,0			c-0.53-0.13-1.05-0.26-1.58-0.39c-1.31,0.33-2.63,0.66-3.94,0.99c-0.98,0.2-1.97,0.39-2.96,0.59c-1.87-0.3-3.74-0.59-5.62-0.89			c-0.16-0.03-0.33-0.07-0.49-0.1c-0.07-0.27-0.36-0.79,0-0.79c-0.44,0.11-0.67,0.05-0.98,0.39c-1.41-0.44-2.83-0.87-4.24-1.31			c-3.1-0.84-6.21-1.69-9.31-2.53c-0.61-0.17-1.21-0.33-1.82-0.5c-0.59-0.26-1.17-0.53-1.76-0.79c-1.31-0.34-2.62-0.68-3.93-1.02			c-1.7-0.34-3.39-0.69-5.09-1.03c-0.83,0.26-2.71-0.53-3.56-0.83c-2.43-0.71-4.86-1.42-7.29-2.14c-3.96-0.76-7.91-1.52-11.87-2.27			c-0.92,0.01-1.84,0.02-2.76,0.03c-2.8,0.04-5.47,0.19-8.07,1.41c-1.18,0.55-2.28,1.11-3.36,1.91c-0.05-0.18-0.69-1.72-0.74-1.9			c-0.32-0.93-0.12-0.88-0.84-1.64c-0.46-1.38-0.92-2.76-1.38-4.14c-0.54-0.51-1.07-1.03-1.61-1.54c-0.58-0.87-1.16-1.73-1.74-2.6			c-0.13-0.82-0.12-3.06,0.59-3.55c-0.28-0.82-1.18-3.77-0.99-4.53c-1.16-2.05-2.28-3.93-2.76-6.31c-0.13-0.46-0.26-0.92-0.39-1.38			c-0.83-0.93-1.76-1.46-2.52-2.44c-0.21-0.76-0.42-1.52-0.63-2.28c0-0.33,0-0.66,0-0.99c-0.4-1.09-0.85-2.28-1.6-3.21			c-0.44-0.54-2.3-3-2.19-3.24c0.3-0.59,1.24-1.71,2.01-1.63c0.47-0.63,0.95-1.25,1.42-1.88c0.28-0.48,0.41-0.89,0.43-1.45			c0.37-0.66,0.73-1.33,1.1-1.99c1.23-0.55,2.46-0.58,2.84-2.08c0.13-0.61,0.04-1.98-0.87-1.87c-0.23-0.58,0-0.88-0.59-1.18			c0.07-1.14-0.51-4.01-1.18-4.93c-0.04-1.57-0.08-3.14-0.12-4.72c-0.22-1.05-0.45-2.1-0.67-3.15c-0.32-0.75-0.64-1.5-0.95-2.25			c-0.34-0.2-0.98-0.55-1.01-1.02c-0.25-0.28-0.5-0.55-0.76-0.83c0.27-0.92-0.33-0.74,0.75-1.21c0.54-0.24,1.96-0.89,2.57-0.81			c2.76-1.64,5.52-3.28,8.28-4.93c1.18-1.71,2.36-3.42,3.55-5.12c0.04-0.45,0.18-0.52,0.39-1.18c0.66-0.85,0.92-1.71,1.58-2.56			c0.54-0.66,0.67-0.57,0.99-0.99c0.32-0.43,0.42-0.74,0.99-1.38c0.28-0.48,0.09-0.01,0.59-0.98c0.33-0.13,0.26-0.26,0.59-0.39			c0.26-0.39,0.53-0.79,0.79-1.18c0.87-0.7,1.74-1.4,2.6-2.11c0.05-0.22,3.29-2.24,4.49-2.03c0.81-0.54,2.51-1.44,3.55-1.77			c0.5-0.16,1.62-0.38,1.58-0.79c-0.06-0.53,1.11-0.57,1.49-1.08c-0.09,0.07,0.15-0.95,0.35-1.52c0.15-0.08,0.87-0.89,1.31-0.95			c0.26-0.39,0.53-0.79,0.79-1.18c0.6-0.23,1.2-0.47,1.8-0.7c0.34-0.57,1.29-0.67,1.82-1.11c1.26-1.05,5.27-1.42,6.82-1.34			c0.39-0.31,0.69-0.7,1.18-0.79c0.86-1.22,1.47-1.64,2.88-2.27c0.78-0.35,1.8-0.82,2.64-0.49c0.7-0.35,1.24-0.56,1.95-0.87			c0.87-0.38,3.38-1.4,3.57-2.28c0.66-0.13,1.31-0.26,1.97-0.39c0.68-0.29,1.42-0.98,2.16-0.46c0.66,0.41,0.86,1.06,1.39,1.44			c0.26,0.31,1.11,0.98,1.39,1.01c0.34,0.05,0.68,0.2,1.03,0.14c0.88-0.22,1.4-0.43,1.92-0.95c1.2-1.01,1.99-3.34,2.19-3.62			C339.63,155.9,341.11,155.97,341.41,156.11z"/>
            <circle cx="307.68" cy="207.23" r="1.586"/>
        </g>
        <g id="__Şavşat">
            <path d="			M394.31,220.19c-1.16-0.57-2.2-1.09-3.44-1.48c-0.77-0.2-1.53-0.4-2.3-0.6c-3.39-2.13-6.75-3.49-10.36-5.17			c-2.08-0.97-3.97-2.37-6.19-2.71c-0.67-0.94-2.56-1.44-3.55-2.17c-1.2-0.89-2.04-2.59-3.55-2.96c0-0.78-0.61-1.24-1.18-1.77			c-0.1-0.62-1.5-2.29-1.97-2.76c0.01-0.8-0.96-1.85-1.38-2.56c0.43-0.74-0.17-2.19-0.39-2.96c0-0.66,0-1.31,0-1.97			c0.48-0.66,0.37-2.29,0.39-3.15c0.09-2.99,0.17-5.85-2.46-7.69c-0.13-1.07,0.12-2.07,0.29-3.15c-0.07-0.39-0.13-0.79-0.2-1.18			c-0.46-0.21-0.41-0.66-0.79-0.99c-0.66-0.46-1.31-0.92-1.97-1.38c-0.33-0.99-0.66-1.97-0.98-2.96c-0.7-1.01-1.47-2.45-1.97-3.35			c-0.92-0.81-1.06-1.13-1.77-1.58c-0.33-0.26-0.66-0.53-0.99-0.79c-0.85-0.35-1.71-0.69-2.56-1.04c-0.88-0.5-0.91-1.18-0.59-2.11			c-0.61-0.61-0.56-0.8-0.39-1.58c-0.07-0.2-0.13-0.39-0.2-0.59c-0.28-0.44-0.31-0.57-0.84-0.71c-0.24-0.93-1.03-1.4-1.32-2.24			c-0.26-0.47-0.52-0.94-0.78-1.41c-0.91-0.41-0.55-0.67-1.46-1.08c-0.3-0.15-1.78-0.22-1.88-0.15c0,0-0.1-0.12-1-0.52			c-0.66-1.25-1.31-2.5-1.97-3.74c-0.26-2.76-0.53-5.52-0.79-8.28c-0.43-1.05-0.99-2.41-0.79-3.55c-1.97-3.09-3.94-6.17-5.91-9.26			c-0.87-1.67-1.74-3.35-2.62-5.02c-0.6-0.91-1.21-1.82-1.81-2.73c-0.45-0.33-2.54-2.29-2.47-2.69c-0.85-0.53-1.71-1.05-2.56-1.58			c-1.96-0.28-3.92-0.56-5.87-0.84c-1.21,0.04-1.44,0.59-2.67,0.28l-0.13-0.04c0.66-2.92,0.88-5.67,0.59-8.67			c0.55-0.42,0.44-1.51,0.39-2.17c0.2-0.6,0.41-1.21,0.61-1.81c0.41-1.51,0.16-2.12,1.15-3.58c2.02-2.45,3.76,0.78,6.13,0.86			c0.67,0.02,1.16-0.37,1.71-0.69c1.16-0.75,1.37-2.02,1.25-3.25c0.56-0.4,0.33-1.36,0.37-1.98c-0.06-0.59-0.11-1.18-0.17-1.77			c0.54-0.93,0.32-2.18,0.59-3.15c0.58-2.1,0.61-4.49,0.39-6.7c0.88-0.8,0.06-3.55,0.2-4.73c0.22-1.84-0.48-3.5-0.59-5.32			c0.07-0.46,0.13-0.92,0.2-1.38c-0.32-0.41-0.18-1.05-0.2-1.58c-0.83-1.9-1.67-3.8-2.5-5.7c-0.56-1.21-0.53-2.51-0.65-3.76			c-0.54-0.28-0.72-1.59-0.99-2.17v-0.59c1.06-1.06,1.91-1.25,3.35-0.99c0.92,0.92,1.66,1.92,3.12,1.99c0.9,0.04,2.53-0.35,2.99-1			c0.85,0.26,1.71,0.53,2.56,0.79c1.05-0.07,2.1-0.13,3.15-0.2c1.56-1.09,5.55-3.93,7.28-2.2c0.55,0.55,2.17,1.99,2.97,1.61			c0.83,1.52,1.65,3.03,2.48,4.55c0.2,0.58,0.93,1.26,0.68,1.75c0.17-0.04,0.34-0.07,0.52-0.11c0.16,0.04,0.31,0.07,0.47,0.11			c0.49-0.54,0.5-1,1.11-1.27c1.01-0.46,3.84-0.63,4.4-1.29c2.35,0.59,4.28,1.58,6.7,1.58c0.59,0,1.18,0,1.77,0			c1.03,0.34,3.28,1.47,3.94,0.39c0.53-0.07,1.05-0.13,1.58-0.2c1.12,0.2,2.23,0.39,3.35,0.59c1.77,1.25,3.55,2.5,5.32,3.74			c0.72,0.13,1.45,0.26,2.17,0.39c0.47,0.32,0.8,0.75,1.38,0.79c0.32,0.54,0.64,1.08,0.96,1.62c0.51,0.19,1.09,0.78,1.33,1.3			c0.33,0.72,0.53,1.46,1.11,1.64c1.61,0.42,2.8-1.4,4.46-1.37c1.58,0.03,3.18,0.67,4.55,1.55c0.66,0.26,1.31,0.53,1.97,0.79			c1.1-0.14,4.84-1.31,5.12,0.39c0.87-0.35,2.98-1.29,3.92-0.92c0.4,0.18,0.8,0.36,1.19,0.54c1.39,0.95,2.09,2.59,3.95,2.75			c0.79,0.72,1.58,1.45,2.36,2.17c0.96,1.29,1.96,2.99,3.58,3.54c1.43,0.53,2.87,1.06,4.3,1.58c0.86,0,2.53-0.09,2.96,0.79			c0.79,0.07,1.58,0.13,2.36,0.2c0.7-0.37,1.75-1.35,2.56-0.79c0.53-0.26,1.06-0.51,1.59-0.77c0.44-0.53,1.92-2.22,2.54-1.88			c0.92,0.56,1.84,1.11,2.76,1.67c0.33,0,0.66,0,0.99,0c1.15,0.5,2.29,0.99,3.44,1.49c1.21,1.48,1.69,3.72,2.04,5.58			c0.01,0.4,0.02,0.8,0.03,1.2c-0.6,1.69-0.91,4.11,0.22,5.7c0.91,1.45,1.83,2.9,2.74,4.35c2.1,1.58,4.2,3.15,6.31,4.73			c1.64,1.64,3.28,3.28,4.93,4.93c1.52,1.36,2.39,3.31,3.55,4.93c0.39,0.85,0.79,1.71,1.18,2.56c1.4,3.95,0.3,7.84-0.02,11.81			c0.07,0.79,0.14,1.58,0.22,2.38c-0.47,0.95-1.35,2.99-1.18,4.14c-1.64,4-1.85,8.29-2.76,12.41c-2.1,4.21-4.21,8.42-6.31,12.64			c-1.22,2.46-2.44,4.91-3.66,7.37c-0.72,1.92-1.81,4.08-3.32,5.51c-0.27-0.01-0.01,0.97-0.3,1.29c-0.46,0.57-0.92,1.14-1.39,1.71			c-0.01,0.53-1.71,3.24-2.17,3.79c-0.35,0.56-0.7,1.12-1.05,1.69c-1.23,1.19-2.47,2.39-3.7,3.58c-0.66,0.54-1.71,0.96-1.95,1.82			c-4.02,3.12-8.04,6.25-12.06,9.37c-1.17,1.08-2.34,2.16-3.51,3.24c-2.35,2.35-4.81,4.17-7.49,6.11c-0.85,0.66-1.71,1.31-2.56,1.97			c-1.12,0.84-2.24,1.68-3.36,2.52c-0.5,0.36-1.13,0.63-1.37,1.22c-0.43,0.71-0.83,0.82-2.21,1.67c-0.55,1.5-1.64,1.98-2.97,3.39			c-0.27,0.29-0.42,0.74-0.76,0.49C395.84,221.29,394.66,220.36,394.31,220.19z"/>
            <circle cx="393.06" cy="158.58" r="1.586"/>
        </g>
        <g id="__Murgul">
            <path d="			M197.56,152.42c-1.54-1.54-2.42-6.71-2.48-9c-0.03-0.9-0.74-1.68-0.2-2.56c-0.2-0.85-0.39-1.71-0.59-2.56			c-0.15-1.86-0.05-3.87-1.84-5.04c-2.17-1.52-6.1-0.48-7.64-2.02c-0.96-1.19,0.01-3.45-1.42-4.3c0.02-0.16,0.04-0.31,0.06-0.47			c-0.13,0-0.27,0-0.4,0.01c-3.05-0.1-6.05-0.23-9.06,0.19c-1.77-0.13-3.55-0.26-5.32-0.39c-0.66-0.39-1.31-0.79-1.97-1.18			c-0.99-1.15-2.88-3.48-4.14-4.14c-0.39-0.59-0.79-1.18-1.18-1.77c-0.6-1.69-0.88-3.13-2.28-4.4c-1.07-0.97-2.04-1.95-2.94-3.01			l-0.03-0.13c-0.2,0.07-0.66,0.38-0.86,0.45c-1.45,1.25-2.89,2.5-4.33,3.74c0,0.55-0.88,1.25-1.16,1.59			c-0.85,1.06-1,1.91-2.39,2.54c0,1.12-1.12,2.46-1.77,3.35c0,1.12,0.68,4.44,0,5.12c0,0.91,0.24,2.01,0,2.76			c-0.98,0.98-2.43,1-2.43,1c-0.71,1.39-1.42,2.78-2.12,4.17c-0.69,1.86-1.2,3.94-0.96,5.86c-0.13,0.33-0.26,0.66-0.39,0.98			c-1.5,1.02-1.87,4.05-1.77,5.71c0.62,0.35,0.98,1.52,1.18,2.17c0.47,0.34,0.49,1.07,0.79,1.58c0.53,0.79,1.05,1.58,1.58,2.36			c0.72,0.53,1.45,1.05,2.17,1.58c2.34,0.63,3.93,1.93,5.32,3.94c-0.2,1.04,0.5,3.61,0.8,4.72c0.06,0.2,0.12,0.4,0.18,0.6			c0.83-0.29,2.1,0.92,2.54,1.38c1.09,1.16,0.72,2.51,0.03,3.79c-0.26,0.49-0.06,0.63-0.6,1.02c-0.21,1.16-0.41,2.32-0.62,3.47			c-0.02,0.63-0.12,1.67,0.38,2c0.08,0.32,0.16,0.63,0.23,0.95c-0.04,0.24-0.07,0.48-0.11,0.73c0.37,0.81,0.73,1.62,1.1,2.43			c0.02,0.59,0.04,1.19,0.06,1.79c-0.04,0.72-0.09,1.45-0.13,2.17c0.09,1.11,0.18,2.23,0.26,3.34c-0.55,0.44-0.39,1.5-0.39,2.17			c0.07,1.12,0.13,2.23,0.2,3.35c-0.55,0.6-0.34,2.01-0.2,2.76c-0.2,0.66-0.39,1.31-0.59,1.97c-1.14,0.83-1.25,4.26-1.56,5.71			c-0.15,0.69-0.62,2.07-0.39,2.63l0.46,0.03c1.26,0.41,1.95,0.5,3.26,0.69c0.79,0.03,1.43,0.08,2.17,0			c0.79-0.13,1.58-0.26,2.36-0.39c2.71,0.12,4.41,0.71,6.5-1.38c0.31-2.43,0.61-4.87,0.92-7.3c0.15-0.85-0.17-1.72,0.46-2.35			c-0.2-0.72-0.39-1.45-0.59-2.17c0.07-1.31,0.13-2.63,0.2-3.94c-0.07-1.71-0.13-3.42-0.2-5.12c0.39-1.12,0.79-2.23,1.18-3.35			c0.33-0.46,0.66-0.92,0.99-1.38c0.44-0.65,0.39-1.42,0.39-2.17c0.94-1.5,1-4.15,2.76-4.93c0.85-0.13,1.71-0.26,2.56-0.39			c0.44,0.44,1.12,0.25,1.67,0.31c0.36,0.04,0.3,0.01,0.3,0.28c1.05,0,2.1,0,3.15,0c0.87-0.48,1.75-0.95,2.62-1.43			c1.36-0.58,2.72-1.15,4.08-1.72c0.67,0.01,1.35,0.03,2.02,0.04c1.07-0.74,2.71,0.33,2.71-1.62c-0.54-0.54-1.32-3-1.18-3.74			c0.06-0.59,0.13-1.18,0.2-1.77c-0.11-0.86-0.48-2.33-0.02-3.02c0.63-0.81,1.52-1.95,2.54-2.26c0.3-0.09,1.22-0.44,1.22-0.63			c0.5-0.2,1.44-0.54,1.58-0.39c0.44-0.58,0.7-1.26,1.38-1.58c0.54-1.08,0.7-2.28,1.58-3.15c-0.07-0.2-0.13-0.39-0.2-0.59			L197.56,152.42z"/>
            <circle cx="165.74" cy="146.16" r="1.586"/>
        </g>
    </g>
</svg>
