<?xml version="1.0" encoding="UTF-8"?>
<!DOCTYPE svg PUBLIC "-//W3C//DTD SVG 1.1//EN" "http://www.w3.org/Graphics/SVG/1.1/DTD/svg11.dtd">
<svg version="1.1" id="HaritaCizim" xmlns="http://www.w3.org/2000/svg" xmlns:xlink="http://www.w3.org/1999/xlink" x="0px" y="0px" viewBox="0 0 600 370" preserveAspectRatio="none">
    <defs id="__def">
        <radialGradient id="f">
            <stop offset="0" stop-color="white" stop-opacity="1"/>
            <stop id="STOP1" offset=".4" stop-opacity="1"/>
            <stop offset="1" stop-color="white" stop-opacity=".2"/>
        </radialGradient>
        <filter id="__flt1" x="0" y="0" width="200%" height="200%" filterUnits="objectBoundingBox">
            <feGaussianBlur in="SourceAlpha" stdDeviation="3" result="blur1"/>
            <feSpecularLighting result="specOut" in="blur1" specularConstant="1.5" specularExponent="20" lighting-color="#bbbbbb">
                <feDistantLight azimuth="45" elevation="30"/>
            </feSpecularLighting>
            <feComposite in="specOut" in2="SourceAlpha" operator="in" result="specOut"/>
            <feComposite in="SourceGraphic" in2="specOut" operator="arithmetic" k1="0" k2="1" k3="1" k4="0"/>
        </filter>
        <filter id="__flt2" x="0" y="0" width="200%" height="200%" filterUnits="objectBoundingBox">
            <feGaussianBlur in="SourceAlpha" stdDeviation="3" result="blur1"/>
            <feSpecularLighting result="specOut" in="blur1" specularExponent="20" lighting-color="#bbbbbb">
                <fePointLight x="-2000" y="100" z="2000"/>
            </feSpecularLighting>
            <feComposite in="specOut" in2="SourceAlpha" operator="in" result="specOut"/>
            <feComposite in="SourceGraphic" in2="specOut" operator="arithmetic" k1="0" k2="1" k3="1" k4="0"/>
        </filter>
        <filter id="__flt3" x0="-50%" y0="-50%" width="200%" height="200%" filterUnits="objectBoundingBox">
            <feGaussianBlur in="SourceAlpha" stdDeviation="3" result="blur"/>
            <feOffset in="blur" dx="0" dy="0" result="offsetBlur"/>
            <feSpecularLighting in="blur" surfaceScale="4" specularConstant=".5" specularExponent="20" lighting-color="flavor" result="specOut">
                <fePointLight x="-5000" y="-10000" z="5000"/>
            </feSpecularLighting>
            <feComposite in="specOut" in2="SourceAlpha" operator="in" result="specOut"/>
            <feComposite in="SourceGraphic" in2="specOut" operator="arithmetic" k1="0" k2="1" k3="1" k4="0" result="litPaint"/>
            <feMerge>
                <feMergeNode in="offsetBlur"/>
                <feMergeNode in="litPaint"/>
            </feMerge>
        </filter>
        <filter id="__flt4" x0="-50%" y0="-50%" width="200%" height="200%">
            <feGaussianBlur in="SourceAlpha" stdDeviation="2" result="blur"/>
            <feOffset dy="-1" dx="-1"/>
            <feComposite in2="SourceAlpha" operator="arithmetic" k2="-1" k3="1" result="hlDiff"/>
            <feFlood flood-color="white" flood-opacity=".7"/>
            <feComposite in2="hlDiff" operator="in"/>
            <feComposite in2="SourceGraphic" operator="over" result="withGlow"/>
            <feOffset in="blur" dy="3" dx="3"/>
            <feComposite in2="SourceAlpha" operator="arithmetic" k2="-1" k3="1" result="shadowDiff"/>
            <feFlood flood-color="black" flood-opacity="1"/>
            <feComposite in2="shadowDiff" operator="in"/>
            <feComposite in2="withGlow" operator="over"/>
        </filter>
        <filter id="__golge1" x="0" y="0" width="200%" height="200%" filterUnits="userSpaceOnUse">
            <feOffset result="offOut" in="SourceAlpha" dx="8" dy="8"/>
            <feGaussianBlur result="blurOut" in="offOut" stdDeviation="3"/>
            <feBlend in="SourceGraphic" in2="blurOut" mode="normal"/>
        </filter>
    </defs>
    <g id="__Harita" fill="white" stroke="#000000" stroke-width="0.25" stroke-miterlimit="10" display="none">
        <rect id="__cer" x="0" y="0" fill="#000000" opacity="0" width="600" height="370"/>
        <g id="__Kuşadası">
            <path d="   M63.78,216.34c1.36-0.69,2.32-1.8,3.79-2.23c1-0.29,1.95-0.39,2.97-0.31c1.87-0.2,3.73-0.39,5.6-0.59c0.81,0.2,1.62,0.39,2.43,0.59   c1.86,0.08,3.73,0.16,5.59,0.23c1.91,0.15,3.43,0.46,5.41,0.3c2.97-0.46,5.94-0.93,8.91-1.39c0.54-0.03,1.08-0.05,1.62-0.08   c1.62-0.3,3.25-0.6,4.87-0.9c1.27-0.34,2.54-0.68,3.81-1.01c1.48-0.29,2.97-0.58,4.45-0.86c0.82-0.25,1.65-0.51,2.47-0.76   c0.75-0.44,1.49-0.87,2.24-1.31c0.31-0.12,0.62-0.25,0.93-0.37c1.06-0.75,2.12-1.49,3.17-2.24c0.93-0.44,1.87-0.87,2.8-1.31   c1.43-0.93,2.86-1.87,4.29-2.8c0.31-0.12,0.62-0.25,0.93-0.37c2.05-1.18,4.11-2.36,6.16-3.55c0.56-0.48,1.68-1.69,1.68-2.43   c1.25-1.25,1.84-2.56,2.24-4.29c0.06-1.12,0.12-2.24,0.19-3.36c-0.46-1.05-1.64-3.37-0.93-4.48c-0.1-1.64,0.23-2.91,0.8-4.43   c0.05-0.31,0.1-0.63,0.15-0.94c0.04-0.87-0.37-1.16,0.72-1.73c-0.36-2.95,0.35-6.93,2.61-8.96c0.19-0.24,0.38-0.49,0.57-0.73   c1.86-1.93,3.73-3.86,5.59-5.8c1.98-0.94,2.94-1.18,4.44-2.85c0.26-0.3,0.52-0.59,0.79-0.89c0.31-0.19,0.62-0.37,0.93-0.56   l0.93-0.19c-0.37-0.25-0.75-0.5-1.12-0.75c-0.68-1.06-1.37-2.12-2.05-3.17c-0.19-0.81-0.37-1.62-0.56-2.43   c0.04-2.34-0.22-4.78-1.31-6.91c-0.49-0.14-0.61-0.55-0.93-0.93c-0.5-0.31-1-0.62-1.49-0.93c-2.18-1.18-4.35-2.36-6.53-3.55   c-1.49-0.56-2.99-1.12-4.48-1.68c-1.55-0.25-3.11-0.5-4.67-0.75c-1.28-0.53-2.56-1.06-3.84-1.59c-0.36-0.08-0.71-0.16-1.07-0.24   c-0.41-0.13,0.27-0.65,0.42-0.79c0.19-0.06,0.37-0.11,0.56-0.17c0.43-0.33,0.86-0.65,1.29-0.98c0.07-0.05,0.14-0.1,0.2-0.15   c-0.31-0.62-0.62-1.24-0.93-1.87c-0.1-0.34-0.19-0.68-0.29-1.03c-0.79-1.04-2.33-2.5-2.33-3.83c-0.29-0.42-0.58-0.84-0.87-1.27   c-0.33-0.32-0.66-0.65-1-0.97c-0.97-0.28-1.68-0.77-2.02-1.74c-0.08-0.28-1.91,0.25-2.27,0.32c-0.47,0.12-1.7,3.55-1.5,4.03   c-0.12,0.12-0.25,0.25-0.37,0.37c0.19,0.06,0.37,0.12,0.56,0.19c0.11,0.31,0.21,0.63,0.32,0.94c0.06,0.21,1.54-0.87,1.84-1.23   c0.17,1.21,0.34,2.43,0.51,3.64c-0.02,0.25-0.04,0.5-0.06,0.75c-0.67-0.4-1.22-0.01-1.77,0.47c-1.12,1.12-0.66,2.64-0.09,3.83   c0,0.31,0,0.62,0,0.93c-0.66,0.39-0.52,0.97-0.19,1.49c-0.33,0.42-0.66,0.84-1,1.26c0.64,1.11,0.35,2.67-0.44,3.69   c-0.83,0.33-1.67,0.66-2.5,0.99c-0.54-0.28-1.08-0.57-1.62-0.85c-0.26-0.26-0.29,1.34-0.31,1.46c-0.1,0.53,0.03,0.93,0.08,1.48   c-0.67,0.52-0.36,1.57-0.19,2.24c-0.33,0.72-0.71,1.34-1.31,1.87c-0.35-0.1-0.48-0.29-0.74,0.03c0,1.07,1.31,3.4,1.74,4.63   c0.17,0.31,0.33,0.62,0.5,0.93c0.49-0.35,1.28-0.02,1.87,0.19c0.31-0.28,0.71-0.19,1.12-0.19c0.42,0.21,0.84,0.41,1.26,0.62   c0.51,0.42,1.01,0.84,1.52,1.26c0.67,0.58,1.1,2.13,1.1,2.99c0.07,0.31,0.15,0.61,0.22,0.92c-0.34,0.34-0.23,0.84-0.19,1.31   c-0.68,0.58-0.15,1.8-0.16,2.55c-0.2,0.83-0.39,1.66-0.59,2.48c0.33,0.86-0.24,2.18-0.56,2.99c0.48,0.78-0.39,2.56-0.64,3.41   c-0.17,0.55-1.04,3.49-0.94,3.76c-0.81,1.92-1.73,3.85-2.15,5.9c-0.31,0.5-0.62,1-0.93,1.49c-0.87,1.24-1.74,2.49-2.61,3.73   c-0.56,0.56-1.12,1.12-1.68,1.68c-0.54,0.05-0.89,0.57-1.31,0.93c-1.24,0.08-1.45,1.06-1.87,2.05c-0.07-0.15-0.14-0.3-0.2-0.44   c-0.06-0.16-0.11-0.33-0.17-0.49c-0.72,1.63-2.76,2.2-3.92,3.36c-0.37-0.12-0.75-0.25-1.12-0.37c-0.57-0.06-0.73,0.43-1.37,0.26   c-0.66,0.47-1.33,0.95-1.99,1.42c-1.21,0-1.81,0.62-2.8,1.31c-0.56,0.12-1.12,0.25-1.68,0.37c-0.51-0.28-1.52-0.3-2.09-0.14   c-0.71,0.2-1.07,0.51-1.83,0.51c-0.68,0.62-1.37,1.24-2.05,1.87c-0.91,0.1-1.81,0.2-2.72,0.3c-0.4,0.15-0.8,0.3-1.2,0.45   c-2.22,0.03-3.63,0.57-5.41,2.05c-0.97-0.49-2.38,0.71-3.36,0.93c-1.37,0.06-2.74,0.12-4.11,0.19c-0.2-0.25-0.4-0.5-0.6-0.75   c-1.75,0.12-2.84-0.27-4.44-0.74c-1.62,0.44-3.24,0.87-4.85,1.31c-0.4-0.36-0.96-0.26-1.49-0.37c0.17-1.19-1.18-0.64-1.87-0.56   c-0.12-0.46-0.33-0.4-0.75-0.56c0.12-0.36-0.04-0.86-0.39-1.04c-0.71-0.09-1.31,0.15-2.04,0.29c-0.13,0.42-0.17,0.43-0.53,0.57   c-0.73,0.22-1.47,0.43-2.2,0.65c-0.27,0.1-0.33,0.79-0.44,1.21c-0.62,0.29-1.09,2.07-1.2,2.78c-0.08,0.55-0.36,0.86-0.67,1.32   c-0.04,0.38-0.09,0.77-0.13,1.15c0.18,0.89-0.29,1.12-0.99,1.65c-0.05,0.88,0.17,1.21,0.76,1.86c0.06,0.06,0.12,0.13,0.18,0.19   c0.88-0.29,1.39-0.37,2.25-0.16c0.94,0.26,0.11,1.26-0.19,2.02c1.13,1.04,2.21,0.25,3.36-0.19c0.07,0.12,0.14,0.24,0.22,0.37   c0.71,0,1.17,0.18,1.84,0.38c0.4,0.51,3.35,1.53,4.11,1.68c0.12-0.06,0.25-0.12,0.37-0.19c0.25,0.12,0.5,0.25,0.75,0.37   L63.78,216.34z"/>
            <circle cx="119.43" cy="141.11" r="1.586"/>
        </g>
        <g id="__Germencik">
            <path d="   M195.88,161.39c-1.41-1.38-2.81-2.76-4.22-4.13c-0.98-1.71-1.96-3.42-2.93-5.13c-0.26-0.32-0.74-0.31-1.17-0.47   c0.16-1-2.43-2.66-3.17-3.17c-0.56-0.12-1.12-0.25-1.68-0.37c-0.51-0.01-1.02-0.02-1.53-0.03c-3.61-0.13-7.63,0.33-10.97-1.46   v-0.19c-0.19-0.81-0.37-1.62-0.56-2.43c0.19-0.68,0.37-1.37,0.56-2.05c0.87-1.37,1.74-2.74,2.61-4.11   c0.31-0.75,0.62-1.49,0.93-2.24c-0.31-1.55-0.62-3.11-0.93-4.67c0.13-0.29,0.24-0.67,0.56-0.75c-0.21-0.28-0.47-0.46-0.19-0.75   c1.46-0.79,3.22-1.98,3-3.84c0.06-0.15,0.12-0.3,0.17-0.45c-1.02-1.97-2.57-3.46-3.17-5.6c-0.13-0.45-0.77-1.52-0.27-1.95   c0.24-0.2,0.3-0.13,0.27-0.47c1.17,0.4,1.83-0.19,2.99-0.19c1.52-1.36,3.64-1.95,5.41-3.17c0.44-0.3,2.43-1.21,2.43-1.68   c0-0.78-0.49-2.89-0.37-3.36c-0.85-0.85-3.17-2-3.17-3.17c-0.42-0.42-0.81-0.85-0.69-1.47c0.34-1.33,1.05-1.15,2.22-1.69   c0.89,0.45,1.89,1.57,2.57,0.54c0.12-0.75,0.25-1.49,0.37-2.24c1.62-1.31,3.24-2.61,4.85-3.92c0.93-1.06,1.87-2.12,2.8-3.17   c0.62-0.31,1.24-0.61,1.87-0.92c0.44-0.25,0.87-0.51,1.31-0.76c0.37-0.37,0.75-0.75,1.12-1.12c1.12-0.44,2.24-0.87,3.36-1.31   c0.93,0.19,1.87,0.37,2.8,0.56c0.74,0.11,3.32,0.27,3.73,0.75c1.13-0.16,2.26,0,3.36,0.19c1.91,0.33,3.06-0.22,5.04,0.75   c0.93,0.65,1.12-0.26,1.12,1.03c0.6,0,0.5,1.36,0.66,1.98c0.84,3.58,1.07,7.9,4.23,10.24c0.24,0.64,1.16,1.26,1.82,1.5   c1.06,0.06,2.11,0.12,3.17,0.19c1.33,0,3.28,0.14,4.18-0.82c0.53-0.72,1.07-1.44,1.6-2.16c1.27-0.79,2.68-2.08,4.23-2.08   c0.7-0.44,1.71-0.64,2.47-0.3c0.25,0.12,0.58,0.13,0.58,0.33c0.09,1.49,0.17,2.98,0.26,4.47c0.16,1.42,0.42,2.67,0.12,4.12   c-0.22,1.05-0.92,1.59-1.49,2.43c-0.25,0.81-0.5,1.62-0.75,2.43c-0.14,0.91-1.96,3.08-2.61,3.73c-0.44,0.87-0.87,1.74-1.31,2.61   c-0.22,1.37-0.56,2.51-0.56,3.92c-0.4,0.64-0.77,1.15-1.31,1.68c-0.31,0.5-0.62,1-0.93,1.49c0,0.97-0.36,2.07,0.19,2.99   c0,0.81,0,1.62,0,2.43c-0.07,0.58-0.35,1.32-0.19,1.87c-0.61,1.13-0.21,1.7-1.12,2.61c0.12,0.19,0.25,0.37,0.37,0.56   c-1.02,1.81-2.04,3.62-3.06,5.43c-0.26,1.74-0.28,3.68-0.12,5.39c0.04,0.48,0.06,1.56,0.37,1.87c0.11,0.88,0.31,1.81,0.93,2.43   c0.09,0.68,0.07,1.56,0.56,2.05c-0.31,0.37-0.62,0.75-0.93,1.12c0.06,0.56,0.12,1.12,0.19,1.68c-0.73,1.15-0.86,1.91-2.05,2.8   c-0.92,0.68-3,0.45-3.41,1.64c-0.16,0.48-0.61,1.32-0.23,1.84c0.61,0.81,1.6,1.26,1.77,2.3c-0.2,0.21-0.6,0.75-0.75,0.75   c-0.62-0.06-1.24-0.12-1.87-0.19c-0.42-0.89-0.45-1.67-1.5-1.8c-0.68-0.09-3.91,0.15-3.91-0.44c-0.24-0.91-0.32-2.05-0.19-2.99   c0.19-0.68,0.37-1.37,0.56-2.05c-0.46-0.69-0.79-0.7-1.57-0.84c-1.47,1.41-5.23,1.77-7.2,1.77c-0.54-0.54-1.02-0.97-1.85-0.83   c-0.63,0.46-1.26,0.93-1.88,1.39c-1.6,0-6.17,0.31-7.21-0.29C196.57,162.01,196.2,161.82,195.88,161.39z"/>
            <circle cx="212" cy="137.94" r="1.586"/>
        </g>
        <g id="__Söke">
            <path d="   M218.9,247.21c-0.84-0.95-1.27-0.92-2.46-0.36c-0.59,0.45-1.19,0.9-1.78,1.35c-0.29,0.23-0.59,0.47-0.88,0.7   c-0.21,0.69-1.48,0.96-2.15,1.18c-0.34,0.5-1.94,1.07-2.6,1.07c-1.87,0.14-3.74,0.28-5.62,0.43c-0.57-0.03-1.13-0.05-1.7-0.08   c-0.75-0.44-1.49-0.87-2.24-1.31c-2.24-0.61-4.49-1.22-6.73-1.83c-0.87-0.31-3.33-1.09-3.97-0.7c-0.63,0.34-1.56,1.11-1.8,1.78   c-1.03,0.88-2.06,1.77-3.1,2.65c-0.36,0.54-0.75,1.01-1.2,1.64c-0.26,0.44-1.17,1.91-1.68,2.05c-0.81,1.15-0.91,1.67-1.68,2.24   c-0.05,0.5-0.6,0.74-0.97,0.76c-0.5,0-3.06-0.38-3.17-0.65c-0.31-1.12-0.49-2.9-1.89-3.29c-0.42-0.09-0.37-0.15-0.79,0.1   c-0.96,0.53-1.93,1.06-2.89,1.59c-0.46,0.26-1.1,0.84-1.31,1.31c-0.93,0.44-1.87,0.87-2.8,1.31c-0.74-0.13-1.48-0.25-2.22-0.38   c-1.01-0.02-2.41,0.52-3.17-0.37c-0.33-0.41-0.63-0.46-0.4-0.93c0.04-0.41,0.37-1.23,0.19-1.49c0.15-0.16,0.29-0.31,0.44-0.47   c0.13,0.01,0.73-0.29,0.87-0.28c-0.48-0.33-2.08,0.03-2.8,0.19c0.06,0,0.09-0.9,0.37-1.12c0.58,0,3.38,0.39,3.34,0.03   c-0.17-1.17,0.52-1.22,0.83-2.12c0.08-0.23-0.11-1.74,0.22-1.06c0.31,0.65,0.88,1.15,0.45,1.84c0.18-0.01,0.35-0.02,0.53-0.03   c0.46-0.1,0.17,0.67,0.57,0.21c0.32-0.36,0.45-0.65,0.95-0.74c0.32-0.69,1.12-1.31,1.12-2.05c0.52,0.14,1,0.52,1.35,0.08   c0.2-0.3,0.34-0.39,0.27-0.75c-0.04-0.33-0.09-0.67-0.13-1c-0.54-0.47-0.79-0.66-0.95-1.39c-0.02-0.41-0.04-0.83-0.06-1.24   c-0.68-0.18-0.67-0.34-1.42-0.2c-0.58,0.11-0.76,0.67-1.3,0.78c-0.12,0.31-0.25,0.62-0.37,0.93c-0.44-0.25-0.87-0.5-1.31-0.75   c-0.47,0.08-0.72,0.29-1.12,0c-0.25,0.12-0.5,0.25-0.75,0.37c-0.47,0.13-1.09,0.07-1.31,0.56c-0.71-0.11-1.35-0.25-2.05,0   c-0.19,0.25-0.37,0.5-0.56,0.75c1.64,1.23,1.68,0.37,2.43,0.93c-0.16,1.41-1.52,2.42-0.19,3.73c-0.14,0.1-0.28,0.21-0.41,0.31   c-0.8,0.39-1.61,0.77-2.41,1.15c-1.11,1.01-2.36,1.67-3.68,2.33c-0.76,0.41-1.51,0.82-2.27,1.24c-0.29,0.32-0.52,0.81-0.93,0.93   c-0.47,1.3-0.63,2.33-2.08,2.73c-3.35,0.78-4.15,1.24-7.25-0.49c-2.53,0.07-5.04-0.29-7.09-1.87c-0.86-0.66-3.76-1.73-3.5-3.03   c0.23-1.04,0.47-2.09,0.7-3.13c0.81-1.14,1.62-2.29,2.43-3.43c0.38-0.25,1.35-2.31,1.27-2.69c-0.07-0.37-0.17-1.16-0.37-1.32   c-1.31-1.05-1.83-0.91-3.52-0.96c-1.37-0.19-2.74-0.37-4.11-0.56c-2.26,0.78-4.5,1.34-6.91,1.49c-0.83,0.05-3.11-1-3.73-1.49   c-0.31,0-0.44-0.19-0.75-0.19c-0.37,0.15-1.12,1.16-1.49,1.31c-0.68,1.07-1.21,1.37-2.29,2.16c-1.21,0.89-3.47,0.97-4.61,0.08   c-0.37-0.06-1.68-0.31-2.05-0.37c-0.75,0.06-1.49,0.12-2.24,0.19c-1,0.37-1.99,0.75-2.99,1.12c-0.55,0.77-2.91,3.37-3.73,3.55   c-0.02,0.61,0.44,0.92,0.56,1.49c0.11,0.08,0.45,0.85,0.56,0.93c-0.56-0.76-1.2-1.06-1.87-1.31c-0.12-0.87-0.25-1.74-0.37-2.61   c-0.45,0.02-1-0.19-0.75-0.75c0.64-1.04,1.12-2.46,1.12-3.73c0-0.74,0.03-1.82,0.19-2.61c-0.24-0.59-0.35-1.32-0.37-2.05   c-0.3-0.68-0.61-1.37-0.91-2.05c-0.5-1.27-0.95-2.17-1.33-3.55c0.29-0.43,0.68-0.24,0.93,0c0,1.42,0.96,3.34,1.31,4.67   c0.71,1.18,1.01,0.95,1.68,1.87c0.06,0.22,0.5,1.35,0.56,2.24c0.05,0.76-1-0.59-1.12-0.37c-0.26,0.48,0.25,1.93,0.19,2.05   c-0.13,2.45,0.43-0.47,0.93,0.37c0.28-0.08,0.54,1.3,0.82,1.22c0.33-0.4,0.32-0.68,0.86-0.67c0.09-0.76,0.18-1.53,0.27-2.29   c0.63-0.3,1.58-0.44,1.83-0.96c0.39-0.92,0.33-1.87,0.55-2.9c0.09-0.34,0.19-0.68,0.28-1.01c0.7-0.35,1.4-0.7,2.11-1.04   c0.44,0,0.87,0,1.31,0c0.28,0.14,2.28,1.1,2.23,0.4c-0.03-0.66-0.06-1.32-0.09-1.98c0.38-0.38,0.38-0.19,0.29-0.84   c0.44-0.19,0.54-0.36,0.93,0c0.04-0.13,0.09-0.26,0.13-0.4c0.12-0.37,0.28-0.48,0.08-0.83c-0.22-0.38-0.56-0.58-0.4-1.01   c-0.37-0.43-0.98-0.77-1.12-1.31c-0.37-0.19-0.75-0.37-1.12-0.56c-0.31-0.37-0.62-0.75-0.93-1.12c-0.48-0.29-0.96-0.57-1.43-0.86   c-0.98-0.86-1.94-2.02-3.24-2.46c-0.19-0.43-0.18-0.43-0.55-0.61c-0.65,0.31-2.26,1.11-2.26,1.11c-0.06-0.49-0.11-0.99-0.17-1.48   c-1.17-0.07-2.09-1.22-2.99-1.87c-0.5-0.19-1-0.37-1.49-0.56c-0.98-0.19-3.66-0.57-4.29-1.31c-0.31-0.06-0.62-0.12-0.93-0.19   c-0.43-0.3-0.86-0.59-1.29-0.89c-0.61-0.19-1.22-0.39-1.83-0.58c-0.64-0.57-1.28-1.13-1.92-1.7c-1.11,0.11-3.46,0.12-4.48-0.37   c-0.66-0.53-1.31-1.07-1.97-1.6c-0.46-0.27-0.93-0.55-1.39-0.82c-0.31-0.06-0.62-0.12-0.93-0.19c-1.05,0.26-4.15,0.38-4.85-0.56   c-0.56,0.08-1.12,0.15-1.68,0.23c-0.87-0.01-1.74-0.03-2.61-0.04c-0.21-0.06-0.86-0.32-0.6-0.45c1.36-0.69,2.32-1.8,3.79-2.23   c1-0.29,1.95-0.39,2.97-0.31c1.87-0.2,3.73-0.39,5.6-0.59c0.81,0.2,1.62,0.39,2.43,0.59c1.86,0.08,3.73,0.16,5.59,0.23   c1.91,0.15,3.43,0.46,5.41,0.3c2.97-0.46,5.94-0.93,8.91-1.39c0.54-0.03,1.08-0.05,1.62-0.08c1.62-0.3,3.25-0.6,4.87-0.9   c1.27-0.34,2.54-0.68,3.81-1.01c1.48-0.29,2.97-0.58,4.45-0.86c0.82-0.25,1.65-0.51,2.47-0.76c0.75-0.44,1.49-0.87,2.24-1.31   c0.31-0.12,0.62-0.25,0.93-0.37c1.06-0.75,2.12-1.49,3.17-2.24c0.93-0.44,1.87-0.87,2.8-1.31c1.43-0.93,2.86-1.87,4.29-2.8   c0.31-0.12,0.62-0.25,0.93-0.37c2.05-1.18,4.11-2.36,6.16-3.55c0.56-0.48,1.68-1.69,1.68-2.43c1.25-1.25,1.84-2.56,2.24-4.29   c0.06-1.12,0.12-2.24,0.19-3.36c-0.46-1.05-1.64-3.37-0.93-4.48c-0.1-1.64,0.23-2.91,0.8-4.43c0.05-0.31,0.1-0.63,0.15-0.94   c0.04-0.87-0.37-1.16,0.72-1.73c-0.36-2.95,0.35-6.93,2.61-8.96c0.19-0.24,0.38-0.49,0.57-0.73c1.86-1.93,3.73-3.86,5.59-5.8   c1.98-0.94,2.94-1.18,4.44-2.85c0.26-0.3,0.52-0.59,0.79-0.89c0.31-0.19,0.62-0.37,0.93-0.56c1.18-0.06,2.36-0.12,3.55-0.19   c1.86-0.64,3.72-1.28,5.58-1.92c1.97-0.53,3.72-1.38,5.63-2.03c0.75-0.26,1.87-0.59,1.87-1.45c-0.02-0.32-0.06-0.15,0.36-0.38   c-0.17-0.26-0.35-0.51-0.52-0.77c-0.76-0.86-1.52-1.73-2.28-2.59c3.34,1.8,7.36,1.33,10.97,1.46c0.51,0.01,1.02,0.02,1.53,0.03   c0.56,0.12,1.12,0.25,1.68,0.37c0.74,0.51,3.33,2.17,3.17,3.17c0.43,0.16,0.92,0.15,1.17,0.47c0.98,1.71,1.96,3.42,2.93,5.13   c1.41,1.38,2.82,2.76,4.22,4.13c0.32,0.43,1.09,1.06,1,1.65v-0.4c0,0.4,0.42,1.23,0.75,1.52c0.16,1.24,0.32,2.48,0.48,3.72   c0.36,0.26,0.41,1.94,0.07,2.23c-0.74,0.66-2.29,1.35-2.44,2.43c-0.28,2.68,2.06,7.11,3.2,9.53c0.79,1.69,0.76,3.86,2.24,5.23   c0.64,0.59,1.82,0.99,2.61,0.75c2.73,1.68,6.3,1.92,8.58,4.29c0.6,0.63,1.77,2.32,1.87,3.17c0.98,1.11,1.96,2.21,2.95,3.32   c0.26,0.45,0.52,0.9,0.79,1.35c0.12,0.62,0.25,1.24,0.37,1.87c-0.12,0.56-0.25,1.12-0.37,1.67c-0.06,1-0.12,1.99-0.19,2.99   c0.42,1.3,1.7,3.29,2.8,4.11c0.42,1.37,0.38,2.7,0.71,4.11c0.13,0.57,0.56,1.22,0.04,1.67c0.62,1.43,1.24,2.86,1.87,4.29   c0.5,0.56,1,1.12,1.49,1.68c1.65,1.9,2.83,4.15,3.73,6.53c0.32,0.86,0.81,1.91,0.65,2.78c0.03,0.13,0.07,0.26,0.1,0.4   c-0.44,0.65-0.87,1.29-1.31,1.94c0.03,1.27-1.42,2.66-2.23,3.47c-0.5,0.68-1,1.37-1.49,2.05c-0.31,0.31-0.62,0.62-0.93,0.93   c-0.37,0.62-0.75,1.24-1.12,1.87c-0.06,0.31-0.12,0.62-0.19,0.93c-0.19,0.56-0.37,1.12-0.56,1.68c-0.75,0.5-1.49,1-2.24,1.49   L218.9,247.21z"/>
            <circle cx="159.18" cy="178.81" r="1.586"/>
        </g>
        <g id="__Didim">
            <path d="   M147.59,261.88c-3.35,0.78-4.15,1.24-7.25-0.49c-2.53,0.07-5.04-0.29-7.09-1.87c-0.86-0.66-3.76-1.73-3.5-3.03   c0.23-1.04,0.47-2.09,0.7-3.13c0.81-1.14,1.62-2.29,2.43-3.43c0.38-0.25,1.35-2.31,1.27-2.69c-0.07-0.37-0.17-1.16-0.37-1.32   c-1.31-1.05-1.83-0.91-3.52-0.96c-1.37-0.19-2.74-0.37-4.11-0.56c-2.26,0.78-4.5,1.34-6.91,1.49c-0.83,0.05-3.11-1-3.73-1.49   c-0.31,0-0.44-0.19-0.75-0.19c-0.37,0.15-1.12,1.16-1.49,1.31c-0.68,1.07-1.21,1.37-2.29,2.16c-1.21,0.89-3.47,0.97-4.61,0.08   c-0.37-0.06-1.68-0.31-2.05-0.37c-0.75,0.06-1.49,0.12-2.24,0.19c-1,0.37-1.99,0.75-2.99,1.12l-0.64,0.65   c0.09,0.03,0.18,0.05,0.27,0.08c1.33-0.27,0.88-0.61,1.84,0.23c1.14,1.04,0.02,2.45,0.02,3.9c0.37,0.5,0.75,1,1.12,1.49   c-0.1,1.65,0.47,3.65,1.68,4.85c-1.11,0.87-0.3,2.77,0,3.92c-0.67,0.92-0.85,2.09-0.56,3.17c0.23,0.86,0.66,0.97,1.31,1.49   c0.05,0.56,0.75,0.98,1.04,1.52c0.22,0.43-0.7,1.26-0.67,1.85c0.01,0.22,0.81-0.01,1.13-0.02c-0.06-0.69,1.31-1.43,1.88-1.59   c0.85-0.23,1.34,0.47,1.85,1.03c-0.12,0.31-0.25,0.62-0.37,0.93c0.9,0.71,1.46,1.74,1.49,2.8c-0.06,0.31-0.12,0.62-0.19,0.93   c-0.41,0.05-0.68,0.62-0.93,0.93c0.05,0.12,0.11,0.25,0.16,0.37c0.01,1.06,0.02,2.12,0.02,3.17c-0.83,0.4-0.58,2.01-0.56,2.8   c-0.12,1-0.25,1.99-0.37,2.99c-0.05,1.02,0.28,1-0.19,2.05c0.38,0.35,0.31,1.16,0.37,1.68c-0.43,1.03-0.64,2.25-0.56,3.36   c0.31,0.81,0.62,1.62,0.93,2.43c0.56,0.37,1.12,0.75,1.68,1.12c0.62,0.8,0.52,0.61,0.23,1.51c-0.02,0.08-1.23,0.6-1.54,0.73   c-1.44,0.59-2.35-0.12-3.83,1.22c0.16,0.28,0.31,0.56,0.47,0.83c0.31-0.06,0.62-0.12,0.93-0.19c0.24,0.1,0.47,0.21,0.71,0.31   c0.46,0.13-0.69,1.27-1.08,1.56c0.43,0.51-0.31,2.02-0.78,2.23c-0.28,0.9-0.25,0.99,0.11,1.8c0.1,0.26-1.28,1.49-1.5,1.97   c0.16,0.43,0.33,0.86,0.49,1.28c-0.37,0.75-0.75,1.49-1.12,2.24c-0.7,1.06-1.75,1.38-2.8,2.05c0.06,0.31,0.12,0.62,0.19,0.93   c0.86-0.25,1.54,0.48,2.27,0.85c0.43-0.53,0.85-1.07,1.28-1.6c-0.01-0.49,0.06-0.48,0.29-0.82c0.08-0.11,0.51,1.48,0.64,1.94   c0.75,0,1.19-0.05,1.87-0.37c0.05,0.11,0.1,0.23,0.15,0.34c0.95,1.04-0.46,1.09-1.27,1.34c0.24,1.06,1.47,0.98,2.24,1.12   c0.2-0.26,0.4-0.52,0.6-0.78c0.89,0,1.39-0.46,2.22-0.79c0.18-0.11,0.83-0.08,0.64,0.22c-0.72,1.19-0.63,0.94-0.35,2.27   c0.15,0.5,0.54-0.45,0.89,0.53c0.04,0.33,0.07,0.65,0.1,0.98c0.41-0.2,1.18,0.11,1.56,0.34c1.57,0,3.05,0.51,4.6,0.25   c0.9-0.14,0.83-1.06,0.93-1.71c0.31-0.31,0.62-0.62,0.93-0.93c0.31-0.12,0.62-0.25,0.93-0.37c1.43-0.41,1.87-1.5,1.87-2.8   c0.81-0.53,1.64-0.75,2.61-0.75c0.68,0.53,1.36,1.05,2.05,1.58c1.3,0.48,2.14-0.17,3.39-0.44c0.71-0.1,0.4,1.41,0.35,1.84   c0.31,0.12,0.62,0.25,0.93,0.37c-0.06,0.25-0.12,0.5-0.19,0.75c0.62-0.19,1.24-0.37,1.87-0.56c0.25,0.44,0.5,0.87,0.75,1.31   c0.75,0.06,1.49,0.12,2.24,0.19c0.54-0.3,1.08-0.6,1.62-0.9c-0.09-0.57-0.19-1.15-0.28-1.72c-0.31-1.3-0.33-1.97-1.71-2.41   c-0.42-0.51-0.84-1.03-1.27-1.54c-0.6-0.88-0.19-2.38,0.15-3.31c0-0.41,1.3-0.5,1.68-0.56c0.35-0.44,0.97-0.54,1.49-0.57   c0.52,0,0.76,0.4,1.12,0.76c0.37,0.19,0.75,0.37,1.12,0.56c0.12,0,0.25,0,0.37,0c1.31,0.42,3.62-0.63,4.48-1.68   c0.25-0.3,0.65-0.85,0.37-1.12c0.37-0.44,0.75-0.87,1.12-1.31c-0.12-1-0.25-1.99-0.37-2.99c0.41-0.31,0.55-1.35,0.57-1.89   c0.57-0.66,0.84-0.98,1.67-1.28c-0.17-0.71,0.62-1.08,1.12-1.49c0.74-0.62,1.32-0.78,2.24-1.12c0.15-0.63,1.32-1.03,1.87-1.31   c0.2,0.47,0.49,0.38,0.93,0.56c0.18-0.4,0.6-0.33,0.93-0.56c0.5-0.5,1-1,1.49-1.49c0.81-0.25,1.62-0.5,2.43-0.75   c0.64,0.29,1.05-0.01,1.68-0.01c0.38,0.01,1.45,2.52,1.69,3.04c0.49,0.61,0.99,1.21,1.48,1.82c0.19,0.68,0.37,1.37,0.56,2.05   c-0.55,0.6-0.15,3.91-0.15,4.85c-0.01,0.19-0.03,0.38-0.04,0.57c-0.51-0.56-2.06-0.02-2.8,0.19c-0.28-0.5-0.98-0.91-1.52-0.93   c-0.18,0-0.35,0-0.53-0.01c-0.12,0.87-0.25,1.74-0.37,2.61c-0.45,0-1.06,1.47-1.31,1.87c-0.56,0.5-1.12,1-1.68,1.49   c-1.14-0.75-3.01,1.21-3.55,2.05c-0.46,0.43-0.92,0.86-1.38,1.29c-0.52,0.92,2.18,0.47,2.68,0.39c2.18-0.91,4.37-1.82,6.55-2.74   c2.05-1.14,4.09-2.28,6.14-3.42c1.69-0.75,3.38-1.5,5.06-2.25c1.92-0.68,3.84-1.36,5.76-2.04c0.3-0.36,0.59-0.73,0.89-1.09   c0.45-0.88,0.9-1.76,1.35-2.64c0.45-0.27,0.32-0.53,0.56-0.93c1.14-1.9,1.32-2.98,0.46-5.02c-0.65-0.44-1.3-0.89-1.95-1.33   c-0.88-0.54-1.71-1.13-2.24-2.05c-1.29-2.25-0.42-4.9-1.34-7.1c-0.22-0.55-2.29-1.81-2.82-1.57c-2.33-1.1-5.98-1.4-7.98-2.86   c-0.56-0.14-1.11-2.92-1.11-3.59c0.69-0.85,1.38-1.69,2.06-2.54c0.25-0.37-2.6,0.43-3.37,0.48c-0.53-0.21-1.07-0.42-1.6-0.62   c-0.4-0.29-0.8-0.59-1.21-0.88c-2.36-1.62-3.15-2.97-6.16-2.27c-0.23,0.05-0.63-0.42-0.83-0.61c-0.4-0.42-0.29-2.98-0.09-3.64   c-0.09-0.42-0.18-0.83-0.27-1.25c-0.18-0.46-0.81-0.68-1.22-0.99c-0.29-0.65-0.58-1.3-0.87-1.95c-0.76-0.19-1.51-0.38-2.27-0.57   L147.59,261.88z"/>
            <circle cx="120.36" cy="307.21" r="1.586"/>
        </g>
        <g id="__Koçarlı">
            <path d="   M284.71,186.66c-0.28-0.23-0.52-0.5-0.68-0.85c-0.06-0.25-0.12-0.5-0.19-0.75c-1.57-1.57-2.45-3.66-4.11-5.04   c-0.49-1.3-1.13-2.37-1.87-3.55c-0.5-0.15-0.5-0.32-0.75-0.75c-0.75-0.03-1.31-0.77-1.97-1.15c-0.97-0.56-2.49-1.09-3.63-1.09   c-0.77-0.82-1.69-1.54-2.82-1.77c-0.61-0.12-1.7,0.65-2.4,1.03c-0.1,0.78-0.89,1.19-1.52,1.58c-0.03,0.02-1.31-0.29-1.5-0.37   c-0.82-1.44-2.15-1.28-3.57-1.91l-0.37,0.09c-0.48,0-0.96,0.01-1.45,0.01c-1.11,0.07-2,0.59-3,0.9c-0.68-0.54-1.36-1.08-2.05-1.62   c-0.59-0.65,0.2-2.01,0.2-2.78c0-0.42-0.14-0.01-0.43-0.16c-0.8-0.36-1.49,0.49-1.91,1.21c-0.09,0.14-0.18,0.28-0.27,0.43   c-0.25-0.39-0.69-0.4-1.12-0.56c0.22-0.3,0.59-0.62,0.51-0.99c0.52-0.54,1.03-1.08,1.55-1.63c1.06-0.5,2.12-1,3.17-1.49   c0.16-0.27,0.31-0.53,0.47-0.8c0.3-0.46-0.93-1.31-1.28-1.55c-0.55,0.09-1.1,0.18-1.65,0.26c-1.53,0.05-2.89,0.4-4.46,0.07   c-0.25-0.3-0.51-0.6-0.76-0.9c-0.25-0.4,0.23-1.1,0.4-1.56c-0.08-0.11-0.16-0.23-0.24-0.34c-0.49-0.98-2.1-0.84-3.12-1.15   c-2.71-0.81-4.88-0.07-7.65,0.37c-1.37,0.62-2.74,1.24-4.11,1.87c-0.67,0.15-1.28-0.1-1.89-0.32c0.26-1.14,0.51-2.27,0.77-3.41   c-0.36-0.23-0.4-0.55-0.56-0.93c-0.31-0.25-1.56-0.87-1.87-0.93c-0.31,0.37-0.62,0.75-0.93,1.12c0.06,0.56,0.12,1.12,0.19,1.68   c-0.73,1.15-0.86,1.91-2.05,2.8c-0.92,0.68-3,0.45-3.41,1.64c-0.16,0.48-0.61,1.32-0.23,1.84c0.61,0.81,1.6,1.26,1.77,2.3   c-0.2,0.21-0.6,0.75-0.75,0.75c-0.62-0.06-1.24-0.12-1.87-0.19c-0.42-0.89-0.45-1.67-1.5-1.8c-0.68-0.09-3.91,0.15-3.91-0.44   c-0.24-0.91-0.32-2.05-0.19-2.99c0.19-0.68,0.37-1.37,0.56-2.05c-0.46-0.69-0.79-0.7-1.57-0.84c-1.47,1.41-5.23,1.77-7.2,1.77   c-0.54-0.54-1.02-0.97-1.85-0.83c-0.63,0.46-1.26,0.93-1.88,1.39c-1.6,0-6.17,0.31-7.21-0.29l0.31,0.64c0,0.4,0.42,1.23,0.75,1.52   c0.16,1.24,0.32,2.48,0.48,3.72c0.36,0.26,0.41,1.94,0.07,2.23c-0.74,0.66-2.29,1.35-2.44,2.43c-0.28,2.68,2.06,7.11,3.2,9.53   c0.79,1.69,0.76,3.86,2.24,5.23c0.64,0.59,1.82,0.99,2.61,0.75c2.73,1.68,6.3,1.92,8.58,4.29c0.6,0.63,1.77,2.32,1.87,3.17   c0.98,1.11,1.96,2.21,2.95,3.32c0.26,0.45,0.52,0.9,0.79,1.35c0.12,0.62,0.25,1.24,0.37,1.87c-0.12,0.56-0.25,1.12-0.37,1.67   c-0.06,1-0.12,1.99-0.19,2.99c0.42,1.3,1.7,3.29,2.8,4.11c0.42,1.37,0.38,2.7,0.71,4.11c0.13,0.57,0.56,1.22,0.04,1.67   c0.62,1.43,1.24,2.86,1.87,4.29c0.5,0.56,1,1.12,1.49,1.68c1.65,1.9,2.83,4.15,3.73,6.53c0.32,0.86,0.81,1.91,0.65,2.78   c0.03,0.13,0.07,0.26,0.1,0.4c-0.44,0.65-0.87,1.29-1.31,1.94c0.03,1.27-1.42,2.66-2.23,3.47c-0.5,0.68-1,1.37-1.49,2.05   c-0.31,0.31-0.62,0.62-0.93,0.93c-0.37,0.62-0.75,1.24-1.12,1.87c-0.06,0.31-0.12,0.62-0.19,0.93c-0.19,0.56-0.37,1.12-0.56,1.68   c-0.75,0.5-1.49,1-2.24,1.49c-0.18,0.57-0.2,0.9-0.01,1.46c0.5,1.25,1,2.51,1.5,3.76c0,0.44,0,0.87,0,1.31   c0.12,0.44,0.25,0.87,0.37,1.31c2.57,3.46,6.96,3.31,10.82,3.36c1.18,0.12,2.36,0.25,3.55,0.37c0.84,0.56,1.16,0.59,1.72,0.73   c1.64-0.53,3.53,0.11,5.18-0.17c0.74-0.13,1.85,0.56,2.23-0.17c0.13-0.13,0.25-0.26,0.38-0.39c0.25-0.93,0.5-1.87,0.75-2.8   c-0.05-0.42-0.14-0.83,0.19-1.12c-0.12-0.68-0.25-1.37-0.37-2.05c-1-1.37-2.14-2.42-3.42-3.5c-1.08-0.16-3.77-1.97-4.09-3.02   c-0.27-0.96-0.25-2.67,0.63-3.35c0.86-0.57,1.73-1.14,2.6-1.71c0.25-0.22,0.59-0.61,0.56-0.93c0.48-0.48,0.96-0.78,1.6-1   c1.77,0.46,4.54-0.27,6.09-1.13c1.42-0.91,2.84-1.81,4.26-2.72c1.47-1.15,2.94-2.29,4.4-3.44c0.21-0.16,0.42-0.32,0.64-0.48   c0.26-0.4,0.46-1.02,0.93-1.12c0.15-0.47,0.15-1.03,0.56-1.31c-0.17-1.85-0.15-3.7,0.16-5.51c0.02-0.58,0.05-1.16,0.07-1.74   c0.19-0.6,1.39-2.74,1.07-3.2c0.96-1.71,2.48-3.75,4.11-4.85c0.63-0.43,1.09-1.16,1.87-1.31c0.38-0.51,1.42-1.4,2.05-1.49   c0.53-0.48,1.36-1.38,2.05-1.49c1.61-1.61,3.72-3.15,5.86-4.04c0.35-0.33,0.7-0.66,1.04-1c-0.32,0.08,2-2.51,1.68-2.43   c-0.15,0.46-0.05-2.57-0.19-3.55c-0.25-1.25-0.25-2.26,0-3.36c-0.51,0,0.27-1.89,1.49-3.36c0.64-2.29,2.49-3.48,2.99-4.11   L284.71,186.66z"/>
            <circle cx="241.67" cy="174.89" r="1.586"/>
        </g>
        <g id="__Karpuzlu">
            <path d="   M292.43,269.04c0.06-0.44,0.12-0.87,0.19-1.31c0.3,0,0.75-0.45,0.75-0.75c0.25-0.31,0.5-0.62,0.75-0.93   c1.04-0.33,1.92-0.43,2.61-1.12c0.46-0.46,0-0.98,0-1.49c-0.12-1.12-0.25-2.24-0.37-3.36c-0.8-0.48-1.34-1.21-1.68-2.05   c0.32-0.48,0-0.69,0-1.12c0.31-0.5,0.62-1,0.93-1.49c0-0.44-0.14-0.4-0.37-0.75c-0.12-0.56-0.25-1.12-0.37-1.68   c-0.06-0.78,0.17-1.17,0.37-1.87c0-0.37,0-0.75,0-1.12c0.3-0.56,0.6-1.13,0.9-1.69c0.83-1.45,2.87-0.92,4.32-0.92   c0.74,0,1.02-2.55,1.12-3.17c-0.12-1.24-0.25-2.49-0.37-3.73c-0.12-0.12-0.25-0.25-0.37-0.37c0.06-0.37,0.12-0.75,0.19-1.12   c-0.44-0.66-0.5-1.62-0.56-2.43c0.06-0.75,0.12-1.49,0.19-2.24c0.25-0.25,0.19-0.41,0.19-0.75c0.66-0.66-0.31-2.03-0.77-2.6   c-0.24-0.5-0.48-1-0.72-1.5c-1.67-1.12-2.96-2.66-4.02-4.34c0.03-0.17,0.07-0.34,0.1-0.51c-0.61-0.61-1.12-2.14-1.12-2.99   c-0.31-0.75-0.62-1.49-0.93-2.24c-0.93-0.93-1.79-1.33-2.99-1.87c-0.5,0.42-1.81,0.15-2.42-0.05c-0.89-0.3-1.62-1.03-2.36-1.58   c-1.24-0.92-1.49-2.79-2.23-4.09c-1.55-2.74-3.45-5.17-5.22-7.76l0.28-0.13c-0.35,0.33-0.7,0.66-1.04,1   c-2.15,0.89-4.25,2.43-5.86,4.04c-0.7,0.12-1.52,1.01-2.05,1.49c-0.63,0.09-1.68,0.99-2.05,1.49c-0.78,0.15-1.23,0.88-1.87,1.31   c-1.63,1.1-3.15,3.14-4.11,4.85c0.32,0.46-0.88,2.59-1.07,3.2c-0.02,0.58-0.05,1.16-0.07,1.74c-0.32,1.81-0.34,3.66-0.16,5.51   c-0.41,0.27-0.41,0.84-0.56,1.31c-0.47,0.1-0.67,0.72-0.93,1.12c-0.21,0.16-0.42,0.32-0.64,0.48c-1.47,1.15-2.94,2.29-4.4,3.44   c-1.42,0.91-2.84,1.81-4.26,2.72c-1.55,0.86-4.32,1.59-6.09,1.13c-0.63,0.23-1.12,0.53-1.6,1c0.03,0.32-0.31,0.71-0.56,0.93   c-0.86,0.57-1.73,1.14-2.6,1.71c-0.88,0.68-0.9,2.39-0.63,3.35c0.33,1.05,3.01,2.85,4.09,3.02c1.29,1.08,2.42,2.13,3.42,3.5   c0.12,0.68,0.25,1.37,0.37,2.05c-0.33,0.29-0.23,0.7-0.19,1.12c-0.25,0.93-0.5,1.87-0.75,2.8l-0.03,0.45   c0.78,0.2,1.43-0.58,2.25-0.51c0.44,0.15,0.89,0.29,1.33,0.44c1.16,0.93,4.08,2.27,4.67,3.55c0.59,0.41,2,1.4,2.24,2.05   c0.69,0.37,1.96,0.68,2.24,1.49c0.75,0.5,1.49,1,2.24,1.49c1.23,1.12,2.7,1.85,3.73,3.17c0.39,0.5,0.98,0.44,1.12,1.12   c0.75,0.31,1.49,0.62,2.24,0.93c0.81,0.75,1.62,1.49,2.43,2.24c2.49,1.31,4.69,1.9,7.46,2.03c1.37,0.06,2.51,0.33,3.8-0.12   c0.86,0.38,3.77-0.42,4.57-0.98c0.85,0,1.79-0.6,2.45-1.14c0.67,0.03,1.32-0.74,1.81-1.18c0.35-0.31,0.53-0.61,1-0.66   C291.21,271.55,292.14,270.35,292.43,269.04z"/>
            <circle cx="275.45" cy="245.06" r="1.586"/>
        </g>
        <g id="__Çine">
            <path d="   M392.46,238.44c-0.74-2.44-1.97-4.33-3.36-6.35c-0.5-1-1-1.99-1.49-2.99c0-1.18,0-2.36,0-3.55c0.12-0.44,0.25-0.87,0.37-1.31   c1.44-1.44,2.57-3.09,2.43-5.23c-0.17-0.33-0.33-0.66-0.5-0.99c-0.22-0.39-2.88,0.44-3.42,0.54c-0.49,0.11-0.59,0.09-0.92-0.29   c-0.62-0.82-0.4-2.15-0.4-3.2c0-1.85-0.18-3.53-0.55-5.39c-0.75-1.24-1.49-2.49-2.24-3.73c-2.05-2.49-4.11-4.98-6.16-7.47   c-0.68-0.81-1.74-1.62-2.8-1.87c-0.68-0.16-1.26-0.34-1.78-0.86l-0.44,0.16c-0.38,0.11-0.75,0.22-1.13,0.33   c-0.56,0.03-1.13,0.06-1.69,0.09c-0.56,0.22-1.11,0.44-1.67,0.65c-0.62,0.19-1.24,0.37-1.87,0.56c-1,0.06-1.99,0.12-2.99,0.19   c-1.06-0.24-2.45-1.16-3.55-0.93c-1-1-1.99-1.99-2.99-2.99c-0.31-0.5-0.61-1-0.92-1.5c-0.61-0.66-1.92-1.32-2.06-2.23   c-1.4-1.06-2.8-2.13-4.19-3.19c-1.21-1.18-2.43-2.35-3.65-3.53l0.06-0.1c-0.39-0.15-0.79-0.3-1.18-0.45   c-1.18-0.62-2.36-1.24-3.55-1.87c-1.35-1.13-2.7-2.25-4.05-3.38c-0.77-0.43-1.53-0.86-2.3-1.29c-0.93-0.37-1.87-0.75-2.8-1.12   c-2.31-0.59-4.62-1.19-6.93-1.78c-0.66-0.15-2.06,0.89-2.59,1.41c-0.31,0.19-0.62,0.37-0.93,0.56c-1.5,0.27-3.16,2.17-4.29,3.17   c-0.44,0.06-0.87,0.12-1.31,0.19c-0.81-0.06-1.62-0.12-2.43-0.19c-0.47,0.77-1.68,0.6-2.43,0.93c-1.18,0.62-2.36,1.24-3.55,1.87   c-0.32,0.82-1.13,1.44-1.87,1.87c-0.1,1.09-1.42,1.83-2.24,2.43c0.04,0.82-0.86,1.25-0.93,2.05c-0.37,1.37-0.75,2.74-1.12,4.11   c-0.32,0.18-0.64,0.36-0.96,0.54c-0.94,0.56-1.97-0.05-2.96-0.16c-0.12,0.06-0.25,0.12-0.37,0.19c-0.99-0.12-1.82-0.23-2.8,0   c-1.56-0.67-2.8-2.09-4.11-3.17c-0.06,0.06-0.12,0.12-0.19,0.19c-0.29-0.55-0.64-0.64-1.06-1.01c-0.81-0.72-2.08-0.99-2.93-1.69   l-0.3,0.46c-0.5,0.62-2.34,1.81-2.99,4.11c-1.22,1.46-2,3.36-1.49,3.36c-0.25,1.1-0.25,2.11,0,3.36c0.13,0.98,0.04,4.01,0.19,3.55   c0.32-0.08-2,2.51-1.68,2.43l-0.28,0.13c1.77,2.59,3.67,5.02,5.22,7.76c0.74,1.3,0.99,3.17,2.23,4.09   c0.74,0.55,1.47,1.28,2.36,1.58c0.61,0.21,1.92,0.47,2.42,0.05c1.2,0.53,2.06,0.94,2.99,1.87c0.31,0.75,0.62,1.49,0.93,2.24   c0,0.85,0.51,2.38,1.12,2.99c-0.04,0.17-0.07,0.34-0.1,0.51c1.07,1.68,2.35,3.23,4.02,4.34c0.24,0.5,0.48,1,0.72,1.5   c0.46,0.57,1.43,1.94,0.77,2.6c0,0.33,0.06,0.5-0.19,0.75c-0.06,0.75-0.12,1.49-0.19,2.24c0.06,0.8,0.12,1.76,0.56,2.43   c-0.06,0.37-0.12,0.75-0.19,1.12c0.12,0.12,0.25,0.25,0.37,0.37c0.12,1.24,0.25,2.49,0.37,3.73c-0.1,0.62-0.38,3.17-1.12,3.17   c-1.45,0-3.49-0.53-4.32,0.92c-0.3,0.56-0.6,1.13-0.9,1.69c0,0.37,0,0.75,0,1.12c-0.2,0.69-0.43,1.09-0.37,1.87   c0.12,0.56,0.25,1.12,0.37,1.68c0.24,0.35,0.37,0.31,0.37,0.75c-0.31,0.5-0.62,1-0.93,1.49c0,0.43,0.32,0.64,0,1.12   c0.34,0.84,0.88,1.57,1.68,2.05c0.12,1.12,0.25,2.24,0.37,3.36c0,0.51,0.46,1.03,0,1.49c-0.69,0.69-1.58,0.79-2.61,1.12   c-0.25,0.31-0.5,0.62-0.75,0.93c0,0.3-0.45,0.75-0.75,0.75c-0.06,0.44-0.12,0.87-0.19,1.31c0.06,0.12,0.12,0.25,0.19,0.37   c0-0.4,1.08-1.68,1.49-1.68c0.25,0.12,0.5,0.25,0.75,0.37c1.36-0.36,2.89-0.19,4.29-0.19c0.36,0.36,0.96,0.47,1.49,0.56   c1.91,0.31,3.56,0.43,5.23,1.31c0.19,0.75,0.37,1.49,0.56,2.24c0.37,0.44,0.75,0.87,1.12,1.31c0.31,0.25,0.62,0.5,0.93,0.75   c0.34,0.34,1.17,1.12,1.68,1.12c0.87,0.06,1.74,0.12,2.61,0.19c1.1-0.11,1.99-0.55,2.99-0.93c0.62-0.25,1.24-0.5,1.87-0.75   c0.93-0.31,1.87-0.62,2.8-0.93c1.12-0.25,2.24-0.5,3.36-0.75c0.44-0.12,0.87-0.25,1.31-0.37c1.46,0,3.03-0.07,4.29,0.37   c0.66-0.13,1.33-0.35,1.87,0.19c2.05,0.06,4.11,0.12,6.16,0.19c1.16,0.17,2.81,0.47,4.67,0.75c0.99,0.32,2.42,1.06,2.99,1.12   c1.96,0.22,3.21,1.76,4.81,2.69c0.4,0.23,1.86,0.72,1.54,1.04c0.93,0.56,1.87,1.12,2.8,1.68c0.58-0.29,0.92,0.12,1.49,0   c0.92-0.18,2.09-0.95,2.99-0.37c0-1.01,3.52-1.59,4.11-2.05c1.07-0.07,1.85-0.36,2.61-1.12c0.31,0,0.75-0.43,0.75-0.75   c-0.19-1.18-0.37-2.36-0.56-3.55c-0.06-0.39,0.11-0.63-0.19-0.93c0-0.4,0.1-0.83-0.19-1.12c0-0.48-0.09-1.95-0.37-2.24   c-0.31-0.93-0.62-1.87-0.93-2.8c0.3,0.3,1.5-0.37,2.05-0.37c0.5,0.19,1,0.37,1.49,0.56c0.93,0.68,1.87,1.37,2.8,2.05   c0.93,0.56,1.87,1.12,2.8,1.68c1.28,0.26,3.79,0.88,5.04,0.56c0.31-0.12,0.62-0.25,0.93-0.37c0.42,0.04,0.84,0.08,1.25,0.12   c1.23-0.62,2.11-1.46,2.85-2.54c0.25-0.62,0.5-1.24,0.75-1.87c0-1.55,0.22-2.96,0.37-4.48c0.04-0.56,0.08-1.13,0.12-1.69   c0.41-1.34,1.83-2.13,2.68-3.16c0.19-0.31,0.37-0.62,0.56-0.93c0.19-0.68,0.37-1.37,0.56-2.05c0-1.04,0.43-3.25,1.12-3.92   c0.95-1.66,1.91-3.32,2.86-4.98c0.35-0.33,1.22-1.31,1.74-1.85c-0.23-0.4-0.45-0.79-0.68-1.19   C392.96,239.68,392.71,239.06,392.46,238.44z M329.13,185.03c-0.56,1.39-1.82,1.41-2.16,2.62c-0.01,0.38-0.01,0.76-0.02,1.14   c-0.12,0.31-0.25,0.62-0.37,0.93c0.73,0.52,0.55,1.89,0.13,2.72c-0.19,0.4,0.22,0.55,0.62,0.64c-0.34-0.03-0.67-0.06-1.01-0.09   c-0.21,0.31-0.57,0.57-0.29,0.81c0.18,0.13,0.37,0.26,0.55,0.4c-0.1,0.37-0.34,0.71-0.1,1.07c0.44,0.66,0.72,0.56,1.41,0.8   c0.12,0.23,0.54,0.75,0.19,0.75c-0.71-0.46-0.61-0.38-0.93,0.37c-0.44-0.33-0.75-0.75-1.31-0.75c0,0.71,0.16,1.03,0.37,1.68   c-0.18-0.03-0.37-0.05-0.55-0.08c-0.38-0.1-0.75-0.19-1.13-0.29c0.43,0.64,1.28,2.07,0.19,2.33c-0.59,0.15-0.61,0.53-1.21,0.28   c-0.16,0-0.31,0-0.47,0c-0.25-0.25-0.5-0.5-0.75-0.75c-0.19-0.62-0.37-1.24-0.56-1.87c-0.19-0.12-0.37-0.25-0.56-0.37   c0.59,0.19,1.47,0.23,1.68,0.93c0-0.06-0.01-0.12-0.01-0.18c-0.24-0.87-0.49-1.75-0.73-2.62c0.37,0.43,0.74,0.86,1.11,1.29   c0.3,0.3,0.3,0.09,0.57-0.17c-0.64-1.06-0.87-1.53-1.12-2.8c0.31,0.19,0.62,0.37,0.93,0.56c-0.31-0.62-0.62-1.24-0.93-1.87   c0.12,0.06,0.25,0.12,0.37,0.18c0.5,0.13,1,0.25,1.5,0.38c0.19-0.5,0.37-1,0.56-1.49c0.12,0.19,0.25,0.37,0.37,0.56   c0.29-0.07,0.73-0.06,0.77-0.37c0.1-0.65,0.25-1.57-0.4-1.87c0.22-0.97,0.43-1.95,0.65-2.92c0.5-0.61,0.91-0.68,1.59-1   C328.28,185.72,329.24,184.76,329.13,185.03z"/>
            <circle cx="338.16" cy="226.59" r="1.586"/>
        </g>
        <g id="__Bozdoğan">
            <path d="   M485.22,263.26c-0.5-0.81-1-1.62-1.49-2.43c-0.24-0.24-1.03-0.07-1.31,0.19c0.02-0.53,0.36-1.32,0-1.68   c-0.19-0.25-0.37-0.5-0.56-0.75c-0.62-0.25-1.24-0.5-1.87-0.75c-0.12,0.06-0.25,0.12-0.37,0.19c-0.99-0.6-1.67-0.89-2.8-1.12   c0.11-0.07,0.23-0.14,0.34-0.2c0.72-0.89,1.49-1.25,2.27-2.04c-0.06-0.07-0.12-0.13-0.18-0.2c-1.69-1.8-2.74-3.56-3.37-5.96   c0-0.5,0-1,0-1.49c-0.12-0.31-0.25-0.62-0.37-0.93c-0.12-1.44,0.59-2.71,0.75-4.11c0-0.44,0-0.87,0-1.31   c0.06-0.73,0.37-1.11-0.17-1.7c-1.5-1.5-3.72-0.51-5.43-2.22c-0.56,0-1.33-1.15-1.29-1.7c0.05-1.38,0.82-2.48,1.67-3.53   c0.22-0.5,0.43-1,0.65-1.5c0.53-0.34,1.41-2.84,1.59-3.54c0-0.33,0.01-0.66,0.01-0.99c0.56-1,0.34-3,0.38-4.23   c0.06-0.75,0.11-1.49,0.17-2.24c0-0.44,0-0.87,0-1.31c-0.37-2.39-1.14-4.58-1.87-6.91c-0.24-0.79-1-2.15-0.75-2.98   c-0.56-1.12-1.12-2.24-1.68-3.36c-0.32-1.24-0.94-2.71-1.68-3.73c-0.44-0.93-0.87-1.87-1.31-2.8c0-1.17-0.62-2.46-1.31-3.36   c-1-1.99-1.99-3.98-2.99-5.97c-0.5-1.49-1-2.99-1.49-4.48c-0.12-0.06-0.25-0.12-0.37-0.19c-0.12-0.31-0.25-0.62-0.37-0.93   c0-0.37,0-0.75,0-1.12c-0.19-0.62-0.37-1.24-0.56-1.87c0-1.12,0-2.24,0-3.36c-0.13-0.79-0.89-2.29-0.19-2.99   c-0.5-1.46-0.84-2.75-1.12-4.29c-0.7-0.7-1.12-1.76-1.12-2.8c-0.37-0.93-0.75-1.87-1.12-2.8c-0.68-1.06-1.37-2.11-2.05-3.17   c-1.98-2.41-3.29-5.16-5.6-7.46l-0.19,0.56c-1.83,1.59-3.82,3.14-5.41,5.04c-0.69,0.83-1.84,2.75-1.87,3.73   c-0.19,0.37-0.37,0.75-0.56,1.12c-0.37,0.44-0.75,0.87-1.12,1.31c-0.25,0.56-0.5,1.12-0.75,1.68c-1.11,1.19-2.21,2.38-3.32,3.57   c-0.51,0.93-1.02,1.85-1.53,2.78c-0.39,0.95-0.77,1.9-1.16,2.85c-0.24,0.54-0.47,1.08-0.71,1.63c-0.06,0.44-0.12,0.87-0.19,1.31   c-0.38,1.01-1.89,3.36-2.97,3.58c-0.94,0.05-1.88,0.1-2.82,0.15c-0.52-0.52-1.24-0.35-1.87-0.19c-1.6-0.58-3.22-1.56-5.04-1.68   c-0.7-0.04-2.54,1.38-3.17,0.75c-0.72,0-2.29-2.07-2.24-2.8c-0.9-1.73-0.93-3.32-0.75-5.23c0.11-1.07,0.91-3.02,0.19-3.92   c-1-1.37-2.02-2.58-3.17-3.73c-0.36,0-0.93-0.37-0.93-0.75c0,0.84-0.95-0.26-1.14-0.5c-0.43-1.32-0.85-2.64-1.28-3.97   c-0.2-0.7-0.01-1.98,0.55-2.44c0-0.81,0-1.62,0-2.43c0.15-1.03,1.27-1.58,0.44-2.64c-0.94-1.19-1.55-2.07-2.86-2.96   c-0.87-0.55-1.74-1.1-2.61-1.65l-0.56-0.03c-0.06,0.06-0.12,0.12-0.19,0.18c-0.7,0.69-0.9,1.47-1.49,2.25   c-0.37,0.37-0.75,0.75-1.12,1.12c-0.57,0.8-0.71,2.05-1.49,2.8c-0.31,1.12-0.62,2.24-0.93,3.36c-0.6,0.87-0.2,3.57-1.12,4.11   c0.13,1.01,0.16,1.8,0,2.8c-0.75,0.75-0.77,1.82-0.93,2.8c-0.25,0.62-0.5,1.24-0.75,1.87c0.06,0.75,0.12,1.49,0.19,2.24   c-0.53,0.53-0.55,2.04-0.37,2.8c-0.68,1.12-1.37,2.24-2.05,3.36c-1.87,1.49-3.73,2.99-5.6,4.48c-0.87,0.38-1.74,0.75-2.61,1.13   c-0.06,0.12-0.12,0.24-0.19,0.37c-0.26,0.16-0.53,0.31-0.79,0.47c-0.53,0.29-2.6,2.12-2.94,1.77c-1.1,0.68-0.84,0.31-1.87,0.56   c-0.56,0.24-1.12,0.49-1.69,0.73c-0.33,0.1-1.11,0.53-1.11,0.94c-0.87,1.49-1.74,2.99-2.61,4.48c0.06,0.37,0.12,0.75,0.19,1.12   c-0.47,0.45-0.59,1.27-0.1,1.75c0.53,0.53,1.1,0.71,1.78,0.86c1.06,0.24,2.12,1.06,2.8,1.87c2.05,2.49,4.11,4.98,6.16,7.47   c0.75,1.24,1.49,2.49,2.24,3.73c0.37,1.86,0.55,3.53,0.55,5.39c0,1.04-0.22,2.38,0.4,3.2c0.33,0.38,0.43,0.4,0.92,0.29   c0.55-0.1,3.2-0.93,3.42-0.54c0.17,0.33,0.33,0.66,0.5,0.99c0.14,2.14-1,3.79-2.43,5.23c-0.12,0.44-0.25,0.87-0.37,1.31   c0,1.18,0,2.36,0,3.55c0.5,1,1,1.99,1.49,2.99c1.39,2.02,2.62,3.91,3.36,6.35c0.25,0.62,0.5,1.24,0.75,1.87   c0.25,0.44,0.5,0.87,0.75,1.31c0.78,0,1.63-0.01,1.92,0.92c0.2,1.17,0.4,2.33,0.59,3.5c-0.15,0.43,0.02,1.18,0.29,1.56   c-0.66,1.39-0.57,2.93-0.57,4.47c0,0.69-0.18,3.36,0.19,3.74c0,0.88,0.43,4.16,0.93,4.66c0.82,0.82,2.57,1.21,3.74,1.13   c0.5,0.06,1,0.12,1.49,0.19c2.8-0.45,5.6-1.97,8.21-2.99c2.05-0.79,3.99-0.77,6.16-0.56c0.68,0.19,1.37,0.37,2.05,0.56   c0.35,0.15,0.71,0.3,1.06,0.45c1.76,1.07,2.05,1.42,4.15,1.42c1.51,0,2.88-0.03,4.3-0.56c0.55-0.21,1.27-1.12,1.83-0.86   c2.81,1.34,5.62,2.69,8.43,4.04c1.87,0.62,3.73,1.24,5.6,1.87c1.62,0.75,3.23,1.49,4.85,2.24c0.37,0.19,0.75,0.37,1.12,0.56   c0.92,0.66,2.4,1.68,3.55,1.68c2.4,1.6,5.48,2.29,8.02,3.55c1.87,0.44,3.73,0.87,5.6,1.31c0.34-0.1,0.69-0.21,1.03-0.31   c0.46,0.1,0.93,0.21,1.39,0.31c1.03,0.32,2.54-0.11,3.56-0.34c3.7-0.82,6.77-3.14,9.13-6.01c0.88-1.07,1.58-2.14,2.33-3.31   C485.21,264.35,485.69,263.73,485.22,263.26z M474.61,257.23c-0.71,1.31-0.13,1.96-1.71,2.67c0.31-0.53,0.9-1.58,0.47-2.18   c-0.16-0.27-0.31-0.54-0.47-0.81c-0.31-0.25-0.62-0.5-0.93-0.75c-0.27-0.13-0.75-0.24-0.75-0.56c-0.01-0.45-0.14-1.16,0.17-1.49   c0.13-0.13,0.26-0.25,0.39-0.38c0.27,0.22,0.84,0.92,1.03,0.55c0.24-0.45,1.83-2.56,1.55-2.74c-0.67-0.39-1.35-0.78-2.02-1.17   c-0.67,0.22-1.34,0.44-2.01,0.66c-0.95-0.53-1.89-1.06-2.84-1.59c-0.06-0.37-0.12-0.75-0.19-1.12c-0.19-0.25-0.37-0.5-0.56-0.75   c-1.09-0.53-1.62-0.83-1.68-2.05c0-0.31,0-0.62,0-0.93c-0.12-0.31-0.25-0.62-0.37-0.93c-0.25-0.25-0.5-0.5-0.75-0.75   c-0.19-0.87-0.37-1.74-0.56-2.61c0.3-0.08,1.09-0.48,1.16-0.2c0.31,1.32,0.46,2.41,1.08,3.56c0.29-0.8,0.18-1.12,0.81-0.45   c0.04,0.15,0.08,0.3,0.12,0.45c0.39,0.23,0.73,0.33,0.93,0.75c0.73,0.27,1.1,0.31,1.45,1.03c0.55,1.49-0.1,0.93-0.33,2.14   c0.18,0.02,0.36,0.04,0.54,0.06c0.8,0.11,0.77-1.08,1.66-0.92c0.5,0.12,0.38-0.1,0.86,0.33c0.47,0.39,0.64,1.07,1.24,1.28   c0,0.31,0,0.62,0,0.93c0.63-0.35,0.05-0.03,0.19,0.75c0.44,0.73,1.81,0.06,2.16,1.63c-0.27,0.42-1.97,2.53-1.74,2.92   c0.59,0.91,1.03,0.68,1.97,1.27c0.2,0.3,0.4,0.6,0.6,0.9C475.31,256.8,475.03,256.58,474.61,257.23z"/>
            <circle cx="403.85" cy="206.62" r="1.586"/>
        </g>
        <g id="__Karacasu">
            <path d="   M479.25,254.48c-1.69-1.8-2.74-3.56-3.37-5.96c0-0.5,0-1,0-1.49c-0.12-0.31-0.25-0.62-0.37-0.93c-0.12-1.44,0.59-2.71,0.75-4.11   c0-0.44,0-0.87,0-1.31c0.06-0.73,0.37-1.11-0.17-1.7c-1.5-1.5-3.72-0.51-5.43-2.22c-0.56,0-1.33-1.15-1.29-1.7   c0.05-1.38,0.82-2.48,1.67-3.53c0.22-0.5,0.43-1,0.65-1.5c0.53-0.34,1.41-2.84,1.59-3.54c0-0.33,0.01-0.66,0.01-0.99   c0.56-1,0.34-3,0.38-4.23c0.06-0.75,0.11-1.49,0.17-2.24c0-0.44,0-0.87,0-1.31c-0.37-2.39-1.14-4.58-1.87-6.91   c-0.24-0.79-1-2.15-0.75-2.98c-0.56-1.12-1.12-2.24-1.68-3.36c-0.32-1.24-0.94-2.71-1.68-3.73c-0.44-0.93-0.87-1.87-1.31-2.8   c0-1.17-0.62-2.46-1.31-3.36c-1-1.99-1.99-3.98-2.99-5.97c-0.5-1.49-1-2.99-1.49-4.48c-0.12-0.06-0.25-0.12-0.37-0.19   c-0.12-0.31-0.25-0.62-0.37-0.93c0-0.37,0-0.75,0-1.12c-0.19-0.62-0.37-1.24-0.56-1.87c0-1.12,0-2.24,0-3.36   c-0.13-0.79-0.89-2.29-0.19-2.99c-0.5-1.46-0.84-2.75-1.12-4.29c-0.7-0.7-1.12-1.76-1.12-2.8c-0.37-0.93-0.75-1.87-1.12-2.8   c-0.68-1.06-1.37-2.11-2.05-3.17c-1.98-2.41-3.29-5.16-5.6-7.46l-0.19,0.56c1.17-1.02,2.02-2.36,2.99-3.55   c0.89-1.1,2.77-2.11,3.06-3.55l0.59-0.09c1.25-1.04,1.53-0.88,2.88-1.4c0.71-0.36,1.43-0.72,2.14-1.08c1.34-0.2,2.68-0.4,4.02-0.6   c1.18,0,2.36,0,3.55,0c0.16,0.09,0.31,0.17,0.47,0.26c0.08,0.13,0.15,0.27,0.23,0.4c-0.18-0.3-0.6-1.82-0.15-1.76   c1.31,0.21,2.53-0.02,3.93-0.02c0.68,0.12,1.37,0.25,2.05,0.37c0.29-0.29,0.4-0.09,0.75-0.19c0.3-0.14,0.6-0.28,0.9-0.43   c0.49,0.12,2.59-0.82,3.02-1.25c0.93-0.25,1.87-0.5,2.8-0.75c0.89,0,1.57-0.26,2.43-0.37c1.49,0.06,2.99,0.12,4.48,0.19   c1.68,0,3.36,0,5.04,0c0.25-0.06,0.5-0.12,0.75-0.19c0.44,0.12,0.87,0.25,1.31,0.37c0.24,0.16,0.48,0.33,0.72,0.49   c1.32,0.27,2.63,0.54,3.95,0.82c0.25,0.12,0.5,0.25,0.75,0.37c0.35,0.35,2.17,2.24,2.61,2.24c2.14,0,3.66-1.21,5.79-1.49   c1.31,0.06,2.61,0.12,3.92,0.19c1.22-0.27,2.91-0.31,3.92,0.56c0.48-0.03,1.14-0.17,1.49,0.19c0.5-0.06,1-0.12,1.49-0.19   c0.19,0.25,0.37,0.5,0.56,0.75c0.38,0.91,0.77,1.82,1.15,2.74c-0.06,0.49,1.07,2.62,1.42,3.08c0.1,0.83,1.53,0.9,1.53,1.64   c0.31,0.12,0.62,0.25,0.93,0.37c1.84,1.4,3.67,2.79,5.6,4.29c1.71,1.33,2.29,1.97,3.24,3.88c0.23,0.45,0.45,0.9,0.68,1.35   c-0.51,0.51-0.38,1.2-0.56,1.87c-0.29,1.09-1.03,2.01-1.03,3.14c-0.25,0.41-0.5,0.82-0.75,1.24c1.03,1.03,4.07,1.83,5.51,2.15   c0.82,0.35,1.64,0.71,2.46,1.06c0.83,0.22,1.43,0.28,2.02,1.01c0.49-0.02,0.37-0.03,0.37,0.36c0,1.18,0,2.36,0,3.55   c-0.07,0.37-0.14,0.75-0.21,1.12c-0.04,2.34,0.05,4.58-0.22,6.89c-0.07,0.61-0.31,3.56-0.31,3.56c0.12,1.94-0.16,3.75-1.15,5.39   c-0.19,0.3-0.37,0.6-0.56,0.9c-0.38,0.25-0.79,0.35-0.9,0.8c-1,0.37-1.99,0.75-2.99,1.12c-0.59,0.59-3.08,1.24-3.92,1.31   c-0.58,0.58-2.01,1.66-1.8,1.97c0.42,0.65,1.28,2.34,0.14,2.54c-0.82,0.11-1.63,0.23-2.45,0.34c0.27,0,0.56,2.46,0.56,2.8   c0.12,0.68,0.25,1.37,0.37,2.05c-0.1,0.64-0.66,1.06-0.75,1.68c0.06,0.44,0.12,0.87,0.19,1.31c0.23,0.25,0.45,0.51,0.68,0.76   c0.39,0.67,1.01,2.97,0.44,3.53c-0.26,0.1-0.53,0.21-0.79,0.31c-2.11,0.62-3.22,1.99-3.68,4.16c-0.38,1.87-0.75,3.73-1.13,5.6   c0.43,2.41,0.01,4.36-1.68,6.16c-0.56,0.29-1.12,0.59-1.68,0.88c-0.66,0.85-1.95,1-2.84,1.48c-0.67,0.33-1.34,0.67-2.01,1   c-0.68,1-1.37,1.99-2.05,2.99c-0.28,0.28-0.56,1.12-0.93,0.75c0.27,0.27-0.1,0.67-0.37,0.93c-0.69,0.66-2.67,1.4-2.99,2.24   c-0.44,0.21-0.87,0.32-1.12,0.75c-0.5,0.16-0.92,0.24-1.31,0.56c-1.05,0.88-3.53,0.92-4.87,1.27c-0.55,0.14-1.46,0.24-1.85-0.15   c-0.39,0.12-1.12,0.27-1.12,0.75c-1.47,2.11-0.8,5.27-2.4,7.13c-0.48,0.56-1.12,1.64-1.89,1.64c-2.92,0.66-5.81-0.27-8.91,0.28   c-0.49-0.01-0.98-0.02-1.48-0.02c-1.33,0.35-2.66,0.7-3.99,1.05c-0.76,0.45-1.04,0.48-1.87,1.12L479.25,254.48z"/>
            <circle cx="483.72" cy="186.65" r="1.586"/>
        </g>
        <g id="__Kuyucak">
            <path d="   M519.93,143.26c-0.5,0.06-1,0.12-1.49,0.19c-0.35-0.35-1.02-0.22-1.49-0.19c-1.01-0.87-2.7-0.83-3.92-0.56   c-1.31-0.06-2.61-0.12-3.92-0.19c-2.12,0.28-3.64,1.49-5.79,1.49c-0.44,0-2.26-1.89-2.61-2.24c-0.25-0.12-0.5-0.25-0.75-0.37   c-1.32-0.27-2.63-0.54-3.95-0.82c-0.24-0.16-0.48-0.33-0.72-0.49c-0.44-0.12-0.87-0.25-1.31-0.37c-0.25,0.06-0.5,0.12-0.75,0.19   c-1.68,0-3.36,0-5.04,0c-1.49-0.06-2.99-0.12-4.48-0.19c-0.86,0.11-1.53,0.37-2.43,0.37c-0.93,0.25-1.87,0.5-2.8,0.75   c-0.43,0.43-2.53,1.37-3.02,1.25c-0.3,0.14-0.6,0.28-0.9,0.43c-0.35,0.1-0.45-0.11-0.75,0.19c-0.68-0.12-1.37-0.25-2.05-0.37   c-1.39,0-2.61,0.24-3.93,0.02c-0.45-0.06-0.04,1.46,0.15,1.76c-0.08-0.13-0.15-0.27-0.23-0.4c-0.16-0.09-0.31-0.18-0.47-0.26   c-1.18,0-2.36,0-3.55,0c-1.34,0.2-2.68,0.4-4.02,0.6c-0.71,0.36-1.43,0.72-2.14,1.08c-1.35,0.52-1.63,0.36-2.88,1.4l-0.59,0.09   c0.12-0.73-1.03-2.05-1.94-2.05c-1.75-1.75-3.97-2.66-5.6-4.29c-0.88-0.88-2.49-3.73-2.8-5.04c-0.15-0.65-0.37-1.3-0.75-1.87   c0-0.75-0.98-2.9-1.49-3.55c-0.91-1.15-2.27-1.72-3.36-2.61c-2.15-1.76-5.23-4.8-5.23-7.65c0.25-0.44,0.5-0.87,0.75-1.31   c0.71-2.45,3.41-3.1,5.23-4.48c3.11-2.36,6.26-4.68,8.58-7.84c0.79-0.25,3.35-3.15,3.86-3.95c0.21-0.36,0.41-0.72,0.62-1.08   c-0.06-0.12-0.12-0.25-0.19-0.37c0.25-0.44,0.5-0.87,0.75-1.31c0.25-1.37,0.5-2.74,0.75-4.11c-0.06-0.25-0.12-0.5-0.19-0.75   c0.25-1.77,1-3.42,1.12-5.23c0.1-1.6-0.51-3.67-0.19-5.04c-0.42-0.6-0.35-1.96-0.37-2.8c-0.32-0.32-0.29-0.87-0.37-1.31   c-0.06,0-0.12,0-0.19,0c0.24-0.24,0.16-0.8,0-1.12c-0.62-1.24-0.37-2.75-0.01-4.06c0.56-1.26,1.12-2.52,1.69-3.78   c0.69-0.21,1.53-1.25,1.87-1.87c0.81,0.19,1.1-0.4,1.68-0.93c0.04-0.37,0.08-0.74,0.12-1.11c0.17-0.91,0.35-1.82,0.52-2.74   c0.18-0.28,0.36-0.56,0.54-0.84c0.1-0.49,0.2-0.98,0.3-1.48c-0.06-0.19-0.12-0.37-0.19-0.56c0.06-0.31,0.12-0.62,0.19-0.93   c-0.19-0.37-0.37-0.75-0.56-1.12c0.58-0.58,0.37-3.4,0.37-4.29c0.4-0.28,0.93-2.27,0.93-2.8l-0.05,0.08   c1.03,0.62,2.16,0.92,3.04,1.79c1.31,0.19,2.61,0.37,3.92,0.56c1.43,0.29,2.61,0.56,4.11,0.56c1.79,0.72,3.58,1.43,5.37,2.15   c1.15,0.43,2.37,1.03,3.59,1.03c0.99,0.31,1.99,0.62,2.98,0.93c1.06,0.31,2.12,0.63,3.18,0.94c1.37,0.56,2.74,1.12,4.11,1.68   c1.06,0.37,2.12,0.75,3.17,1.12c0,0.31-0.48,0.24-0.75,0.37c-0.08,0.24-0.16,0.49-0.24,0.73c0,0.08,0,0.15-0.01,0.23   c0.64,0.24,1.29,0.48,1.93,0.72c0.25,0.31,0.5,0.62,0.75,0.93c0,0.92-0.45,3.66,0.18,4.29c1.3,1.34,3.39,0.59,4.86,1.36   c0.75-0.19,1.47-0.22,2.19,0.02c0.63-0.33,1.26-0.67,1.89-1c0.65,0,3.58,0.14,3.33,0.91c-0.42,2.06-0.84,4.12-1.25,6.18   c-0.37,0.25-0.75,0.5-1.12,0.75c-0.47,0.3-0.72,0.78-1.31,0.75c-0.49,0.3-0.48,0.55-1.12,0.56c-0.93,1.74-1.87,3.48-2.8,5.23   c-0.19,1.06-0.37,2.12-0.56,3.17c0.12,1.23,0.83,2.23,1.3,3.41c0.62,1.79,1.25,3.58,1.87,5.37c0.21,0.98,0.27,3.77,0.75,4.29   c-0.55,2.05-0.28,3.67,0.16,5.72c-0.23,0.37-0.05,0.77,0.03,1.18c0.41,0.28,1.03,0.93,1.49,0.93c0.31,0.68,0.62,1.37,0.93,2.05   c0.75,0.62,1.49,1.24,2.24,1.87c0.25,0.12,0.5,0.25,0.75,0.37c1.61,0,3.35,1.14,4.85,0.56c0.51,0.16,1.12,0.13,1.12,0.73   c0.12,0.5,0.25,1,0.37,1.5c0,0.93,0,1.87,0,2.8c-0.89,1.33-1.79,2.66-2.68,4c1.31,0.82,2.51,0.62,3.98,0.82   c1.12,0.16,2.24,0.31,3.36,0.47c0.81,0.04,1.63,0.09,2.44,0.13c0.51,0.16,2.98,0.35,3.02,0.57c0.34,1.79,0.68,3.58,1.01,5.37   c-0.54,1.07-1.07,2.13-1.61,3.2c-0.44,0.34-1.59,1.23-1.68,1.68c-0.41,0-0.8,0.1-1.12-0.19c-0.84,0.47-1.5,1.3-2.01,2.06   c-0.35,0.52-2.3,1.5-2.26,1.85c0.12,0.69,0.24,1.37,0.36,2.06c0.44,0.81,0.87,1.62,1.31,2.43V143.26z"/>
            <circle cx="465.99" cy="121.33" r="1.586"/>
        </g>
        <g id="__Buharkent">
            <path d="   M508.12,71.76c-0.42,2.06-0.84,4.12-1.25,6.18c-0.37,0.25-0.75,0.5-1.12,0.75c-0.47,0.3-0.72,0.78-1.31,0.75   c-0.49,0.3-0.48,0.55-1.12,0.56c-0.93,1.74-1.87,3.48-2.8,5.23c-0.19,1.06-0.37,2.12-0.56,3.17c0.12,1.23,0.83,2.23,1.3,3.41   c0.62,1.79,1.25,3.58,1.87,5.37c0.21,0.98,0.27,3.77,0.75,4.29c-0.55,2.05-0.28,3.67,0.16,5.72c-0.23,0.37-0.05,0.77,0.03,1.18   c0.41,0.28,1.03,0.93,1.49,0.93c0.31,0.68,0.62,1.37,0.93,2.05c0.75,0.62,1.49,1.24,2.24,1.87c0.25,0.12,0.5,0.25,0.75,0.37   c1.61,0,3.35,1.14,4.85,0.56c0.51,0.16,1.12,0.13,1.12,0.73v-0.27c0.11-0.5-0.05-0.93,0-1.21c0.19-0.96,0.44-1.82,0-2.8   c0.19-0.06,0.37-0.12,0.56-0.19c0.7,0.46,1.37,0.43,2.19,0.25c0.08-0.02,0.16-0.04,0.23-0.06c-0.39-0.35-0.3-0.97-0.37-1.49   c0.37,0.12,0.75,0.25,1.12,0.37c-0.43,0.6,0.4,1.27,0.69,1.78c0.33-0.03,0.66-0.07,0.99-0.1c0.31,0.12,0.62,0.25,0.93,0.37   c0.62,0.25,1.24,0.5,1.87,0.75c0.32-0.29,0.87-0.19,1.31-0.19c0.26-0.41,0.5-0.28,0.93-0.37c0.37-0.12,0.75-0.25,1.12-0.37   c0.99,0.38,1.98,0.77,2.96,1.15c0.37,0.27,0.21,0.67,0.21,1.09c0.11-0.02,0.23-0.04,0.34-0.06c0.92-0.13,0.53-0.14,0.73-0.76   c0.08-0.28,0.16-0.57,0.23-0.85c-0.03,0.47,0.48,0.58,0.75,0.93c0.12,0.31,0.25,0.62,0.37,0.93c0.54,0.54,1.05,0.88,1.68,1.31   c1.89-0.42,3.36,0.56,4.82,1.53c0.07,0.05,0.15,0.1,0.22,0.15c0.19-0.38,0.89-0.42,0.56-0.75c0.11,0.46,0.36,0.48,0.75,0.75   c-0.09,0.34,0.2,0.63,0.37,0.93c0.34-0.11,0.39,0.03,0.65,0.21c0.09,0.05,0.19,0.11,0.28,0.16c-0.15-0.97,0.56-1.17,1.31-0.75   c-0.1-0.73,0.41-1.25,0.93-1.68c0.53-0.53,0.04,0.98,0.93,0.58c0.17,0,0.33,0,0.5,0c0.11-0.3,0.22-0.61,0.33-0.91   c0.28-0.45,0.57-0.9,0.85-1.35c0.11-0.54,0.23-1.08,0.34-1.63c0.4-0.95-0.35-2.13-0.15-3.23c0.18-1,1.09-1.99,1.68-2.8   c0.44-1.12,0.87-2.24,1.31-3.36c0.19-1.13-0.8-2.35-1.13-3.36c-0.49-1.54-4.04-0.74-2.48-3.27c-0.6-0.09-1.21-0.18-1.81-0.27   c-0.31,0.06-0.62,0.12-0.93,0.19c-0.5,0.25-1,0.5-1.49,0.75c-0.89-0.43-1.82-0.95-2.77-0.5c-1.87,0.9-0.79,3.84-3.04,4.72   c-0.62-0.04-1.23-0.08-1.85-0.12c-0.26,0-0.61-1.66-0.71-2.06c-0.07-0.35-0.08-0.13-0.45,0.19c-0.86-0.43-0.98,0.58-1.83,0.58   c-1.7-0.05-4.43-3.13-4.95-4.69c-0.03-0.55-0.05-1.11-0.08-1.66c-0.12-0.31-0.25-0.62-0.37-0.93c-0.42-0.03-0.41-0.13-0.71-0.39   c-0.66-0.54-1.56,0.36-2.09,0.76c-0.07-2.34-0.56-5.4-1.61-7.5c0.22-0.47,0.44-0.95,0.66-1.42c1.71-0.89,2.84-2.14,3.16-3.98   c-0.1-0.21-0.19-0.42-0.29-0.63c-0.39,0.02-0.79,0.04-1.18,0.05c-1.29,0.23-2.61,0.21-3.91,0.03c-0.31-0.19-0.62-0.37-0.93-0.56   c-0.63-0.59-1.03-1.16-1.49-1.87c0-0.59,0.02-1.03-0.37-1.49c-0.5-0.25-1-0.5-1.49-0.75c0-0.56,0-1.12,0-1.68   c-0.68-0.06-1.37-0.12-2.05-0.19c-1.62-0.24-3.28-1.18-4.55-1.99c-0.27-0.15-0.73,0.18-1.06,0.26L508.12,71.76z"/>
            <circle cx="522.73" cy="105.28" r="1.586"/>
        </g>
        <g id="__Nazilli">
            <path d="   M378.49,81.92c0.5-0.38,1.22-0.32,1.83-0.54c1.44-0.51,5.83-0.73,7.29-0.27c0.5-0.5,1.78-0.36,2.43-0.19c0-0.35,0.97-0.38,1.3-0.4   c1.56-0.3,3.11-0.6,4.67-0.9c0.5-0.87,1-1.74,1.49-2.61c0.31-0.25,0.62-0.5,0.93-0.75c1.49-1.19,2.97-2.38,4.46-3.56   c0.31-0.26,1.14-0.7,1.14-1.1c0-2.02-1.56-3.7-1.49-5.79c0.56-0.75,1.12-1.49,1.68-2.24c0.37-0.31,0.75-0.62,1.12-0.93   c1.13,0,2.52-1.9,3.39-2.55c0.97-0.73,2.78-1.18,2.99-2.48c0.05-0.5,0.1-1,0.16-1.49c-0.06-0.37-0.12-0.75-0.19-1.12   c0.23-0.57,0.46-1.14,0.69-1.71c0.19-0.45,0.38-1.28,0.99-1.28c1.31,0,2.61,0,3.92,0c0.58,0.08,0.91,0.37,1.49,0.37   c0.31,0.61,1.24,0.84,1.87,1.15c0.29,0.54,0.82,0.76,1.31,1.09c0.37,0.25,0.75,0.5,1.12,0.75c0.31,0.25,0.62,0.5,0.93,0.75   c1.87,1.62,3.73,3.24,5.6,4.85c0.63,0.41,3.22,0.59,3.92,0.37c0.5,0.12,1,0.25,1.49,0.37c0.68-0.06,1.37-0.12,2.05-0.19   c1.01,0.06,2.38,0.42,3.17-0.37c0.62-0.93,1.24-1.87,1.87-2.8c0.58-0.69,0.96-0.37,1.31-1.31c1.06-0.19,2.12-0.37,3.17-0.56   c0.5-0.31,1-0.62,1.49-0.93c-0.4,0,0.75-1.01,0.99-1.21c1.1-0.59,2.2-1.19,3.3-1.78c0.86-0.25,1.97-1.03,2.61-1.68   c0.31-0.31,0.53-0.78,0.93-0.37c0.41-0.41,0.71-0.66,1.27-0.4c0.33,0.16,1.68,0.77,1.91,0.77c0.5,0.5,1,1,1.49,1.49   c0,0.52-0.53,2.52-0.93,2.8c0,0.89,0.21,3.71-0.37,4.29c0.19,0.37,0.37,0.75,0.56,1.12c-0.06,0.31-0.12,0.62-0.19,0.93   c0.06,0.19,0.12,0.37,0.19,0.56c-0.1,0.49-0.2,0.98-0.3,1.48c-0.18,0.28-0.36,0.56-0.54,0.84c-0.18,0.91-0.35,1.82-0.52,2.74   c-0.04,0.37-0.08,0.74-0.12,1.11c-0.58,0.54-0.86,1.12-1.68,0.93c-0.33,0.61-1.18,1.66-1.87,1.87c-0.56,1.26-1.12,2.52-1.69,3.78   c-0.36,1.31-0.61,2.82,0.01,4.06c0.16,0.32,0.24,0.88,0,1.12c0.06,0,0.12,0,0.19,0c0.09,0.44,0.05,0.99,0.37,1.31   c0.03,0.84-0.04,2.2,0.37,2.8c-0.32,1.37,0.29,3.44,0.19,5.04c-0.11,1.81-0.87,3.46-1.12,5.23c0.06,0.25,0.12,0.5,0.19,0.75   c-0.25,1.37-0.5,2.74-0.75,4.11c-0.25,0.44-0.5,0.87-0.75,1.31c0.06,0.12,0.12,0.25,0.19,0.37c-0.21,0.36-0.41,0.72-0.62,1.08   c-0.51,0.8-3.07,3.71-3.86,3.95c-2.32,3.16-5.48,5.48-8.58,7.84c-1.81,1.38-4.52,2.03-5.23,4.48c-0.25,0.44-0.5,0.87-0.75,1.31   c0,2.85,3.08,5.89,5.23,7.65c1.09,0.9,2.44,1.46,3.36,2.61c0.51,0.64,1.49,2.79,1.49,3.55c0.38,0.56,0.59,1.21,0.75,1.87   c0.31,1.31,1.92,4.16,2.8,5.04c1.63,1.63,3.85,2.54,5.6,4.29c0.91,0,2.06,1.32,1.94,2.05c-0.29,1.44-2.17,2.44-3.06,3.55   c-0.96,1.18-1.81,2.53-2.99,3.55c-1.83,1.59-3.82,3.14-5.41,5.04c-0.69,0.83-1.84,2.75-1.87,3.73c-0.19,0.37-0.37,0.75-0.56,1.12   c-0.37,0.44-0.75,0.87-1.12,1.31c-0.25,0.56-0.5,1.12-0.75,1.68c-1.11,1.19-2.21,2.38-3.32,3.57c-0.51,0.93-1.02,1.85-1.53,2.78   c-0.39,0.95-0.77,1.9-1.16,2.85c-0.24,0.54-0.47,1.08-0.71,1.63c-0.06,0.44-0.12,0.87-0.19,1.31c-0.38,1.01-1.89,3.36-2.97,3.58   c-0.94,0.05-1.88,0.1-2.82,0.15c-0.52-0.52-1.24-0.35-1.87-0.19c-1.6-0.58-3.22-1.56-5.04-1.68c-0.7-0.04-2.54,1.38-3.17,0.75   c-0.72,0-2.29-2.07-2.24-2.8c-0.9-1.73-0.93-3.32-0.75-5.23c0.11-1.07,0.91-3.02,0.19-3.92c-1-1.37-2.02-2.58-3.17-3.73   c-0.36,0-0.93-0.37-0.93-0.75c0,0.84-0.95-0.26-1.14-0.5c-0.43-1.32-0.85-2.64-1.28-3.97c-0.2-0.7-0.01-1.98,0.55-2.44   c0-0.81,0-1.62,0-2.43c0.15-1.03,1.27-1.58,0.44-2.64c-0.94-1.19-1.55-2.07-2.86-2.96c-0.87-0.55-1.74-1.1-2.61-1.65   c-0.12-0.51-0.25-1.01-0.37-1.52c-0.36-0.55-0.71-1.1-1.07-1.65c-0.45-0.69-0.9-1.39-1.35-2.08c-1.11-1.37-2.55-2.51-3.92-3.55   c-1.55-1.62-3.11-3.24-4.67-4.85c-0.12-1-0.25-1.99-0.37-2.99c-0.31-0.5-0.62-1-0.93-1.49c0-0.31,0-0.62,0-0.93   c-0.75-1.56-1.49-3.11-2.24-4.67c-0.25-0.87-0.5-1.74-0.75-2.61c-0.19-0.37-0.37-0.75-0.56-1.12c-0.68-0.56-1.37-1.12-2.05-1.68   c-0.12-0.56-0.25-1.12-0.37-1.68c-0.1-1.01,0.41-1.67,0.19-2.8c-0.49-0.49-1.05-2.34-0.75-2.99c-0.45-0.45-0.46-2.52,0-2.99   c0.93-0.29,4.39,0.47,3.08-2.27c-0.84-0.25-2.71-2.19-2.71-3.14c-0.19-0.37-0.37-0.75-0.56-1.12c-0.37-0.68-0.75-1.37-1.12-2.05   c-0.53-0.64-1.31-1.44-1.31-2.24c-0.99-0.99-1.37-2.12-0.56-3.36c0.02-0.51-0.12-1.1,0.19-1.49c-0.33-1.18-0.19-2.33-0.19-3.55   c0-0.43-0.12-0.99,0.19-1.31c-0.19-0.87-0.37-1.74-0.56-2.61c-0.12-0.25-0.25-0.5-0.37-0.75c-0.11-0.53,0.07-1.31-0.56-1.31   C378.29,82.87,378.04,82.26,378.49,81.92z"/>
            <circle cx="407.77" cy="123.76" r="1.586"/>
        </g>
        <g id="__Sultanhisar">
            <path d="   M400.35,145.16c-0.45-0.69-0.9-1.39-1.35-2.08c-1.11-1.37-2.55-2.51-3.92-3.55c-1.55-1.62-3.11-3.24-4.67-4.85   c-0.12-1-0.25-1.99-0.37-2.99c-0.31-0.5-0.62-1-0.93-1.49c0-0.31,0-0.62,0-0.93c-0.75-1.56-1.49-3.11-2.24-4.67   c-0.25-0.87-0.5-1.74-0.75-2.61c-0.19-0.37-0.37-0.75-0.56-1.12c-0.68-0.56-1.37-1.12-2.05-1.68c-0.12-0.56-0.25-1.12-0.37-1.68   c-0.1-1.01,0.41-1.67,0.19-2.8c-0.49-0.49-1.05-2.34-0.75-2.99c-0.45-0.45-0.46-2.52,0-2.99c0.93-0.29,4.39,0.47,3.08-2.27   c-0.84-0.25-2.71-2.19-2.71-3.14c-0.19-0.37-0.37-0.75-0.56-1.12c-0.37-0.68-0.75-1.37-1.12-2.05c-0.53-0.64-1.31-1.44-1.31-2.24   c-0.99-0.99-1.37-2.12-0.56-3.36c0.02-0.51-0.12-1.1,0.19-1.49c-0.33-1.18-0.19-2.33-0.19-3.55c0-0.43-0.12-0.99,0.19-1.31   c-0.19-0.87-0.37-1.74-0.56-2.61c-0.12-0.25-0.25-0.5-0.37-0.75c-0.11-0.53,0.07-1.31-0.56-1.31c0.2-0.67-0.05-1.28,0.4-1.62   l-0.58,0.5c-2.74,0.72-7.06,1.37-9.72-0.05c-0.92-0.49-2.13-1.45-2.79-2.57c-0.25-0.17-0.5-0.34-0.75-0.51   c-0.37-0.33-0.74-0.66-1.11-0.99c-0.18,0.04-0.36,0.08-0.54,0.12c-0.15,0.07-0.3,0.14-0.45,0.22c-0.49,1.93-0.99,3.86-1.48,5.8   c0.19,0.86-0.58,2.32-1.26,2.74c-1.97,1.1-4.67,0.75-6.84,0.5c-0.36-0.04-0.78-0.13-1-0.41c-0.33-0.03-2.41-0.31-2.11-0.42   l0.06,0.23c0,1.34,1.31,2.07,2.05,2.99c0,0.91,0.77,1.43,1.31,2.05c0.87,1.55,1.73,3.11,2.6,4.66c0.75,2.63,0.43,5.87-0.8,8.17   c-0.41,0.7-0.82,1.4-1.24,2.11c-0.35,2.74-1.37,5.11-2.99,7.28c-0.64,0.86-1.58,1.11-2.27,1.81c-1.42,1.07-2.84,2.15-4.26,3.23   c0,0.61,0,1.44,0,2.24c-0.61,0.61-0.89,1.77-1.12,2.61c-0.32,1.17,0.23,2.42,0.37,3.55c-0.06,0.5-0.12,1-0.19,1.49   c0.06,0.75,0.12,1.49,0.19,2.24c0.46,1.13,0.92,2.26,1.38,3.39c1.02,1.88,2.04,3.75,3.06,5.63c0.19,0.48,1.54,2.03,1.54,2.18   c0.31,0.53,0.16,1.05-0.19,1.68l0.07-0.03c0.43,0.59,0.86,1.18,1.28,1.77c0.32,0.4,0.94,0.34,1.07,0.87   c0.1-0.14,0.19-0.28,0.29-0.43c0.41-0.78,0.82-1.57,1.24-2.35c0.4-0.39,0.81-0.79,1.21-1.18c0.45-0.79,0.57-1.97,1.56-2.15   c0.36-0.03,0.25-0.35,0.55-0.06c1.18,1.3,2.36,2.81,4.1,3.56c0.84,0.36,3.83-0.02,4.05,0.48c0.15,0.41,0.12,0.7,0.43,1.01   c-0.42,0.67-0.91,1.03,0.03,1.38c0.97,0.14,1.94,0.28,2.92,0.42c1.18-0.54,2.07-1.17,2.46-2.52c0.09-0.42,0.18-0.84,0.27-1.26   c0.6-0.57,1.21-1.14,1.81-1.71c0.43-0.2,0.85-0.4,1.28-0.61c1.99-0.32,5.4-0.62,7.28,0.16c0.56,0.26,1.12,0.52,1.67,0.78   c1.12,0.25,2.24,0.5,3.36,0.75c0.5-0.02,1.12,0.15,1.49-0.19c0.75,0.11,1.99,0.7,2.61,0.19c0.98,0.24,4.05,0.79,4.85,0.37   c0.31,0,0.62,0,0.93,0c0.8,0.28,2.19,0.5,2.61,1.31c0.56,0.06,0.84,0.03,1.4,0.09L400.35,145.16z"/>
            <circle cx="362.6" cy="130.47" r="1.586"/>
        </g>
        <g id="__Yenipazar">
            <path d="   M400.21,145.03c-0.56-0.06-0.84-0.03-1.4-0.09c-0.43-0.8-1.82-1.02-2.61-1.31c-0.31,0-0.62,0-0.93,0c-0.8,0.42-3.87-0.13-4.85-0.37   c-0.62,0.51-1.87-0.08-2.61-0.19c-0.38,0.33-0.99,0.17-1.49,0.19c-1.12-0.25-2.24-0.5-3.36-0.75c-0.56-0.26-1.12-0.52-1.67-0.78   c-1.88-0.78-5.3-0.48-7.28-0.16c-0.43,0.2-0.85,0.4-1.28,0.61c-0.6,0.57-1.21,1.14-1.81,1.71c-0.09,0.42-0.18,0.84-0.27,1.26   c-0.38,1.35-1.28,1.97-2.46,2.52c-0.97-0.14-1.94-0.28-2.92-0.42c-0.94-0.35-0.46-0.71-0.03-1.38c-0.31-0.31-0.29-0.6-0.43-1.01   c-0.22-0.49-3.21-0.12-4.05-0.48c-1.74-0.74-2.92-2.26-4.1-3.56c-0.3-0.28-0.19,0.03-0.55,0.06c-1,0.18-1.11,1.35-1.56,2.15   c-0.4,0.39-0.81,0.79-1.21,1.18c-0.41,0.78-0.82,1.57-1.24,2.35c-0.1,0.14-0.19,0.28-0.29,0.43c-0.13-0.53-0.75-0.47-1.07-0.87   c-0.43-0.59-0.86-1.18-1.28-1.77c0,0-0.88,0.98-1.25,1.24l-0.05,0.38c0.44,0.32,0.31,0.88,0.56,1.35c0.6,1.11,1.67,3.98,1.42,5.27   c-0.12,0.62-0.25,1.24-0.37,1.87c0.87,2.18,1.74,4.35,2.61,6.53c-0.1,0.32-0.2,0.64-0.3,0.96c-0.44,2.73-1.41,4.86-3.44,6.88   c-0.2,1.14-0.52,2.16-0.56,3.36c-0.7,0.28-0.63,1.32-1.12,1.87c-0.31,0.31-0.62,0.62-0.93,0.93c-0.25,1.18-0.5,2.36-0.75,3.55   c-0.14,1.54,0.05,3.38-0.69,4.75l-0.06,0.1c1.22,1.18,2.43,2.35,3.65,3.53c1.4,1.06,2.8,2.13,4.19,3.19   c0.14,0.91,1.46,1.57,2.06,2.23c0.31,0.5,0.61,1,0.92,1.5c1,1,1.99,1.99,2.99,2.99c1.09-0.22,2.48,0.69,3.55,0.93   c1-0.06,1.99-0.12,2.99-0.19c0.62-0.19,1.24-0.37,1.87-0.56c0.56-0.22,1.11-0.44,1.67-0.65c0.56-0.03,1.13-0.06,1.69-0.09   c0.38-0.11,0.75-0.22,1.13-0.33l0.44-0.16c-0.48-0.48-0.37-1.3,0.1-1.75c-0.06-0.37-0.12-0.75-0.19-1.12   c0.87-1.49,1.74-2.99,2.61-4.48c0-0.41,0.79-0.84,1.11-0.94c0.56-0.25,1.12-0.49,1.69-0.73c1.03-0.25,0.77,0.12,1.87-0.56   c0.34,0.34,2.41-1.48,2.94-1.77c0.26-0.16,0.53-0.31,0.79-0.47c0.06-0.12,0.12-0.24,0.19-0.37c0.87-0.38,1.74-0.75,2.61-1.13   c1.87-1.49,3.73-2.99,5.6-4.48c0.68-1.12,1.37-2.24,2.05-3.36c-0.18-0.76-0.16-2.27,0.37-2.8c-0.06-0.75-0.12-1.49-0.19-2.24   c0.25-0.62,0.5-1.24,0.75-1.87c0.16-0.98,0.18-2.05,0.93-2.8c0.16-1,0.13-1.79,0-2.8c0.92-0.54,0.52-3.24,1.12-4.11   c0.31-1.12,0.62-2.24,0.93-3.36c0.79-0.75,0.92-2,1.49-2.8c0.37-0.37,0.75-0.75,1.12-1.12c0.6-0.77,0.79-1.55,1.49-2.25l0.75-0.15   c-0.12-0.51-0.25-1.01-0.37-1.52c-0.36-0.55-0.71-1.1-1.07-1.65L400.21,145.03z"/>
            <circle cx="373.62" cy="153.62" r="1.586"/>
        </g>
        <g id="__Efeler">
            <path d="   M322.11,99.4c-0.21,0.62-1.69,1.68-2.43,1.68c-0.7-0.7-2.73-0.65-3.73-0.93c-0.62-0.19-1.24-0.37-1.87-0.56   c-0.37-0.12-0.75-0.25-1.12-0.37c-2.4-1.13-5.2-1.63-7.81-2.47c-0.57-0.05-1.14-0.09-1.71-0.14c-0.56,0.12-1.12,0.25-1.68,0.37   c-1,0.19-1.99,0.37-2.99,0.56c-1.39-0.04-4.24-0.06-5.41,0.75c-1.47,0-2.7,0.42-4.11,0.75c-0.75,0.15-1.5,0.3-2.25,0.46   c-0.35,0.14-1.12,0.55-1.29,0.85c-0.7,0.21-1.39,0.43-2.09,0.64c-0.24,0.1-0.47,0.19-0.71,0.29c-0.56,0.37-1.12,0.75-1.68,1.12   c0.34,0,0.24,0.59,0.23,0.88c0.4,0.68-1.14,2.7-1.73,3.23c-0.56,0.5-1.12,1-1.68,1.49c-0.75,0.31-1.49,0.62-2.24,0.93   c-1.06,0.19-2.12,0.37-3.17,0.56c-0.68,0.25-1.37,0.5-2.05,0.75c-0.44,0.25-0.87,0.5-1.31,0.75c-0.29,0.92-0.94,1.49-1.49,2.24   c-0.76,1.05-1.59,3.18-1.87,4.48c-0.12,0.59-0.6,0.87-0.56,1.49c-0.93,1.37-1.87,2.74-2.8,4.11c-0.56,0.93-1.12,1.87-1.68,2.8   c-0.28,0.3-0.81,0.69-0.56,0.93c-0.36,0.57-0.63,1.25-1.31,1.49c-0.26,0.54-0.4,0.98-0.83,1.41c-0.29,0.29-0.98,0.7-0.66,1.01   c-0.85,0.85-1.56,1.63-2.24,2.61c-0.31,0.25-0.62,0.5-0.93,0.75c-0.97,1.18-1.31,2.59-1.31,4.11c0.74,0.51,1.36,0.5,1.36,1.57   c0.1,0.16,0.21,0.32,0.31,0.48c-0.5,1.31-0.63,3.11-0.37,4.48c-0.06,0.75-0.12,1.49-0.19,2.24c0.71,0.71,2.82,4.62,2.99,5.6   c0.34-0.34,1.3,1.99,1.55,2.47c1.31,2.51,0.51,5.21,0.51,7.8c-0.12,0.81-0.25,1.62-0.37,2.43c-0.16,1.58-0.13,2.93,0.19,4.48   c0.12,0.57,0.06,1.85,0.69,2.11c1.42,0.62,2.75,0.47,3.57,1.91c0.19,0.08,1.47,0.38,1.5,0.37c0.63-0.39,1.43-0.8,1.52-1.58   c0.7-0.37,1.79-1.15,2.4-1.03c1.14,0.23,2.05,0.95,2.82,1.77c1.14,0,2.66,0.53,3.63,1.09c0.66,0.38,1.22,1.12,1.97,1.15   c0.25,0.43,0.25,0.6,0.75,0.75c0.73,1.18,1.37,2.24,1.87,3.55c1.66,1.38,2.53,3.46,4.11,5.04c0.06,0.25,0.12,0.5,0.19,0.75   c0.16,0.35,0.4,0.62,0.68,0.85c0.86,0.7,2.13,0.97,2.93,1.69c0.41,0.37,0.76,0.46,1.06,1.01c0.06-0.06,0.12-0.12,0.19-0.19   c1.31,1.08,2.54,2.5,4.11,3.17c0.98-0.23,1.81-0.12,2.8,0c0.12-0.06,0.25-0.12,0.37-0.19c0.99,0.11,2.02,0.72,2.96,0.16   c0.32-0.18,0.64-0.36,0.96-0.54c0.37-1.37,0.75-2.74,1.12-4.11c0.07-0.81,0.98-1.24,0.93-2.05c0.82-0.59,2.14-1.34,2.24-2.43   c0.73-0.43,1.55-1.04,1.87-1.87c1.18-0.62,2.36-1.24,3.55-1.87c0.75-0.34,1.96-0.16,2.43-0.93c0.81,0.06,1.62,0.12,2.43,0.19   c0.44-0.06,0.87-0.12,1.31-0.19c1.14-1,2.79-2.9,4.29-3.17c0.31-0.19,0.62-0.37,0.93-0.56c0.53-0.53,1.93-1.57,2.59-1.41   c2.31,0.59,4.62,1.19,6.93,1.78c0.93,0.37,1.87,0.75,2.8,1.12c0.77,0.43,1.53,0.86,2.3,1.29c1.35,1.13,2.7,2.25,4.05,3.38   c1.18,0.62,2.36,1.24,3.55,1.87c0.39,0.15,0.79,0.3,1.18,0.45c0.74-1.36,0.55-3.2,0.69-4.75c0.25-1.18,0.5-2.36,0.75-3.55   c0.31-0.31,0.62-0.62,0.93-0.93c0.49-0.54,0.42-1.59,1.12-1.87c0.04-1.2,0.36-2.22,0.56-3.36c2.03-2.03,3-4.16,3.44-6.88   c0.1-0.32,0.2-0.64,0.3-0.96c-0.87-2.18-1.74-4.35-2.61-6.53c0.12-0.62,0.25-1.24,0.37-1.87c0.25-1.29-0.82-4.16-1.42-5.27   c-0.25-0.47-0.12-1.02-0.56-1.35c-0.19-0.1-0.39-0.2-0.58-0.3c-0.35-0.05-1.52,0.82-1.6,1.17c-0.27,1.25,0.55,2.81-1.1,3.21   c-0.55,0.04-1.1,0.08-1.64,0.12c-0.66,0.48-1.08,0.59-1.87,0.75c0.34,0.34-0.44,0.92-0.76,1.2c0,0.16,0.01,0.32,0.01,0.48   c-0.37,0.19-0.73,0.39-1.1,0.58c-0.44,0.18-0.89,0.36-1.33,0.54c-0.31,0-0.62,0-0.93,0c-0.98-0.07-2.72,0.45-3.59,0.87   c-0.29,0.5-2.93,2.3-3.51,2.3c-0.48,0.33-1.01,0.54-1.12,1.12c-0.93,0.37-1.87,0.75-2.8,1.12c-2.71-0.51-5.45-1.03-7.09-3.55   c-0.12-0.68-0.25-1.37-0.37-2.05c0.29-2.59,1.57-5.46,2.24-8.02c0.41-1.31,0.82-2.61,1.23-3.92c0.1-0.35,0.64-0.53,0.64-1.12   c1.37-0.93,2.74-1.87,4.11-2.8c0.2-2.17,2.01-5.99,0.56-7.65c0.09-0.86,0.19-1.71,0.28-2.57c-1.66-2.59-4.98-3.1-5.13-6.58   c-0.03-0.7,0.42-1.19,0.19-1.87c0.12-0.37,0.25-0.75,0.37-1.12c0.25-0.5,0.51-0.99,0.76-1.49c0.3-1.44,0.39-2.88,0.55-4.3   c0.23-2-1.65-3.63-1.69-5.79c0-0.56,0-1.12,0.01-1.68c-0.12-0.68-0.25-1.37-0.37-2.05c0-0.33,0.3-1.31,0-1.31   C322.35,100.73,322.48,99.78,322.11,99.4z"/>
            <circle cx="277.32" cy="145.96" r="1.586"/>
        </g>
        <g id="__İncirliova">
            <path d="   M259.72,172.05c-0.63-0.26-0.57-1.53-0.69-2.11c-0.31-1.54-0.35-2.9-0.19-4.48c0.12-0.81,0.25-1.62,0.37-2.43   c0-2.59,0.8-5.28-0.51-7.8c-0.25-0.48-1.2-2.81-1.55-2.47c-0.17-0.98-2.27-4.89-2.99-5.6c0.06-0.75,0.12-1.49,0.19-2.24   c-0.25-1.37-0.13-3.17,0.37-4.48c-0.1-0.16-0.21-0.32-0.31-0.48c0-1.07-0.63-1.06-1.36-1.57c0-1.51,0.33-2.92,1.31-4.11   c0.31-0.25,0.62-0.5,0.93-0.75c0.68-0.98,1.39-1.77,2.24-2.61c-0.32-0.32,0.38-0.73,0.66-1.01c0.43-0.43,0.57-0.87,0.83-1.41   c0.67-0.24,0.95-0.92,1.31-1.49c-0.25-0.25,0.28-0.63,0.56-0.93c0.56-0.93,1.12-1.87,1.68-2.8c0.93-1.37,1.87-2.74,2.8-4.11   c-0.04-0.63,0.44-0.9,0.56-1.49c0.27-1.3,1.1-3.43,1.87-4.48c0.55-0.75,1.2-1.32,1.49-2.24c0.44-0.25,0.87-0.5,1.31-0.75   c0.68-0.25,1.37-0.5,2.05-0.75c1.06-0.19,2.11-0.37,3.17-0.56c0.75-0.31,1.49-0.62,2.24-0.93c0.56-0.5,1.12-1,1.68-1.49   c0.59-0.52,2.12-2.55,1.73-3.23c0.01-0.29,0.1-0.88-0.23-0.88l0.93-0.37c-1.47,0.68-2.74,0.85-4.29,0.94   c-0.52,0.03-1.26,0.28-1.68-0.01c-0.59,0.1-1.13,0.39-1.68,0.19c-1.07,0.45-2.14,0.91-3.21,1.36c-0.34,0.7-2.21,1.45-2.95,1.62   c-1.09,0.26-4.78-0.29-5.41-1.12c-1.49-0.25-2.99-0.5-4.48-0.75c-2.12-0.66-4.24-1.33-6.36-1.99c-3.04-0.95-6.09-1.91-9.13-2.86   c-1.39,0-2.27-0.06-3.17,1.15l-0.56,1.09c0.09,1.49,0.17,2.98,0.26,4.47c0.16,1.42,0.42,2.67,0.12,4.12   c-0.22,1.05-0.92,1.59-1.49,2.43c-0.25,0.81-0.5,1.62-0.75,2.43c-0.14,0.91-1.96,3.08-2.61,3.73c-0.44,0.87-0.87,1.74-1.31,2.61   c-0.22,1.37-0.56,2.51-0.56,3.92c-0.4,0.64-0.77,1.15-1.31,1.68c-0.31,0.5-0.62,1-0.93,1.49c0,0.97-0.36,2.07,0.19,2.99   c0,0.81,0,1.62,0,2.43c-0.07,0.58-0.35,1.32-0.19,1.87c-0.61,1.13-0.21,1.7-1.12,2.61c0.12,0.19,0.25,0.37,0.37,0.56   c-1.02,1.81-2.04,3.62-3.06,5.43c-0.26,1.74-0.28,3.68-0.12,5.39c0.04,0.48,0.06,1.56,0.37,1.87c0.11,0.88,0.31,1.81,0.93,2.43   c0.09,0.68,0.07,1.56,0.56,2.05c0.31,0.06,1.56,0.68,1.87,0.93c0.16,0.38,0.2,0.71,0.56,0.93c-0.26,1.14-0.51,2.27-0.77,3.41   c0.61,0.22,1.22,0.47,1.89,0.32c1.37-0.62,2.74-1.24,4.11-1.87c2.77-0.45,4.94-1.19,7.65-0.37c1.02,0.31,2.63,0.17,3.12,1.15   c0.08,0.11,0.16,0.23,0.24,0.34c-0.17,0.47-0.65,1.17-0.4,1.56c0.25,0.3,0.51,0.6,0.76,0.9c1.57,0.33,2.92-0.02,4.46-0.07   c0.55-0.09,1.1-0.17,1.65-0.26c0.36,0.24,1.58,1.1,1.28,1.55c-0.16,0.27-0.31,0.53-0.47,0.8c-1.06,0.5-2.12,1-3.17,1.49   c-0.52,0.54-1.03,1.08-1.55,1.63c0.08,0.36-0.29,0.69-0.51,0.99c0.43,0.16,0.87,0.17,1.12,0.56c0.09-0.14,0.18-0.28,0.27-0.43   c0.42-0.72,1.11-1.57,1.91-1.21c0.29,0.15,0.43-0.26,0.43,0.16c0,0.77-0.79,2.13-0.2,2.78c0.68,0.54,1.36,1.08,2.05,1.62   c1-0.31,1.9-0.83,3-0.9c0.48,0,0.96-0.01,1.45-0.01L259.72,172.05z"/>
            <circle cx="243.72" cy="142.79" r="1.586"/>
        </g>
        <g id="__Köşk">
            <path d="   M347.55,145.67c-0.35-0.05-1.52,0.82-1.6,1.17c-0.27,1.25,0.55,2.81-1.1,3.21c-0.55,0.04-1.1,0.08-1.64,0.12   c-0.66,0.48-1.08,0.59-1.87,0.75c0.34,0.34-0.44,0.92-0.76,1.2c0,0.16,0.01,0.32,0.01,0.48c-0.37,0.19-0.73,0.39-1.1,0.58   c-0.44,0.18-0.89,0.36-1.33,0.54c-0.31,0-0.62,0-0.93,0c-0.98-0.07-2.72,0.45-3.59,0.87c-0.29,0.5-2.93,2.3-3.51,2.3   c-0.48,0.33-1.01,0.54-1.12,1.12c-0.93,0.37-1.87,0.75-2.8,1.12c-2.71-0.51-5.45-1.03-7.09-3.55c-0.12-0.68-0.25-1.37-0.37-2.05   c0.29-2.59,1.57-5.46,2.24-8.02c0.41-1.31,0.82-2.61,1.23-3.92c0.1-0.35,0.64-0.53,0.64-1.12c1.37-0.93,2.74-1.87,4.11-2.8   c0.2-2.17,2.01-5.99,0.56-7.65c0.09-0.86,0.19-1.71,0.28-2.57c-1.66-2.59-4.98-3.1-5.13-6.58c-0.03-0.7,0.42-1.19,0.19-1.87   c0.12-0.37,0.25-0.75,0.37-1.12c0.25-0.5,0.51-0.99,0.76-1.49c0.3-1.44,0.39-2.88,0.55-4.3c0.23-2-1.65-3.63-1.69-5.79   c0-0.56,0-1.12,0.01-1.68c-0.12-0.68-0.25-1.37-0.37-2.05c0-0.33,0.3-1.31,0-1.31c-0.13-0.54,0-1.49-0.37-1.87l-0.31,0.78   c0.06-0.12,0.94-1.12,1-1.24c1-1.12,1.49-1.77,2.49-2.89c0.25-0.06,0.5-0.12,0.75-0.19c0.25-0.25,0.5-0.5,0.75-0.75   c0-0.91,1.22-1.76,1.86-2.26c0.13-0.24,0.25-0.48,0.38-0.72c0.56-0.5,1.12-1,1.68-1.49c0.44-0.59,0.85-1.07,1.49-1.49   c0-0.84,1.93-2.18,2.61-2.61c0.31-0.12,0.62-0.25,0.93-0.37c0.75-0.12,1.49-0.25,2.24-0.37c1,0.25,1.99,0.5,2.99,0.75   c1.06,0.06,2.12,0.12,3.17,0.19c0.5,0.12,1,0.25,1.49,0.37c0.37-0.06,0.75-0.12,1.12-0.19c0.89-0.12,2.35-0.18,3.17,0.19   c0,1.34,1.31,2.07,2.05,2.99c0,0.91,0.77,1.43,1.31,2.05c0.87,1.55,1.73,3.11,2.6,4.66c0.75,2.63,0.43,5.87-0.8,8.17   c-0.41,0.7-0.82,1.4-1.24,2.11c-0.35,2.74-1.37,5.11-2.99,7.28c-0.64,0.86-1.58,1.11-2.27,1.81c-1.42,1.07-2.84,2.15-4.26,3.23   c0,0.61,0,1.44,0,2.24c-0.61,0.61-0.89,1.77-1.12,2.61c-0.32,1.17,0.23,2.42,0.37,3.55c-0.06,0.5-0.12,1-0.19,1.49   c0.06,0.75,0.12,1.49,0.19,2.24c0.46,1.13,0.92,2.26,1.38,3.39c1.02,1.88,2.04,3.75,3.06,5.63c0.19,0.48,1.54,2.03,1.54,2.18   c0.31,0.53,0.16,1.05-0.19,1.68c-1.23,1.19-0.21,0.48-1.43,1.09L347.55,145.67z"/>
            <circle cx="334.42" cy="145.96" r="1.586"/>
        </g>
    </g>
</svg>