<?xml version="1.0" encoding="UTF-8"?>
<!DOCTYPE svg PUBLIC "-//W3C//DTD SVG 1.1//EN" "http://www.w3.org/Graphics/SVG/1.1/DTD/svg11.dtd">
<svg version="1.1" id="HaritaCizim" xmlns="http://www.w3.org/2000/svg" xmlns:xlink="http://www.w3.org/1999/xlink" x="0px" y="0px" viewBox="0 0 530 350" preserveAspectRatio="none">
    <defs id="__def">
        <radialGradient id="f">
            <stop offset="0" stop-color="white" stop-opacity="1"/>
            <stop id="STOP1" offset=".4" stop-opacity="1"/>
            <stop offset="1" stop-color="white" stop-opacity=".2"/>
        </radialGradient>
        <filter id="__flt1" x="0" y="0" width="200%" height="200%" filterUnits="objectBoundingBox">
            <feGaussianBlur in="SourceAlpha" stdDeviation="3" result="blur1"/>
            <feSpecularLighting result="specOut" in="blur1" specularConstant="1.5" specularExponent="20" lighting-color="#bbbbbb">
                <feDistantLight azimuth="45" elevation="30"/>
            </feSpecularLighting>
            <feComposite in="specOut" in2="SourceAlpha" operator="in" result="specOut"/>
            <feComposite in="SourceGraphic" in2="specOut" operator="arithmetic" k1="0" k2="1" k3="1" k4="0"/>
        </filter>
        <filter id="__flt2" x="0" y="0" width="200%" height="200%" filterUnits="objectBoundingBox">
            <feGaussianBlur in="SourceAlpha" stdDeviation="3" result="blur1"/>
            <feSpecularLighting result="specOut" in="blur1" specularExponent="20" lighting-color="#bbbbbb">
                <fePointLight x="-2000" y="100" z="2000"/>
            </feSpecularLighting>
            <feComposite in="specOut" in2="SourceAlpha" operator="in" result="specOut"/>
            <feComposite in="SourceGraphic" in2="specOut" operator="arithmetic" k1="0" k2="1" k3="1" k4="0"/>
        </filter>
        <filter id="__flt3" x0="-50%" y0="-50%" width="200%" height="200%" filterUnits="objectBoundingBox">
            <feGaussianBlur in="SourceAlpha" stdDeviation="3" result="blur"/>
            <feOffset in="blur" dx="0" dy="0" result="offsetBlur"/>
            <feSpecularLighting in="blur" surfaceScale="4" specularConstant=".5" specularExponent="20" lighting-color="flavor" result="specOut">
                <fePointLight x="-5000" y="-10000" z="5000"/>
            </feSpecularLighting>
            <feComposite in="specOut" in2="SourceAlpha" operator="in" result="specOut"/>
            <feComposite in="SourceGraphic" in2="specOut" operator="arithmetic" k1="0" k2="1" k3="1" k4="0" result="litPaint"/>
            <feMerge>
                <feMergeNode in="offsetBlur"/>
                <feMergeNode in="litPaint"/>
            </feMerge>
        </filter>
        <filter id="__flt4" x0="-50%" y0="-50%" width="200%" height="200%">
            <feGaussianBlur in="SourceAlpha" stdDeviation="2" result="blur"/>
            <feOffset dy="-1" dx="-1"/>
            <feComposite in2="SourceAlpha" operator="arithmetic" k2="-1" k3="1" result="hlDiff"/>
            <feFlood flood-color="white" flood-opacity=".7"/>
            <feComposite in2="hlDiff" operator="in"/>
            <feComposite in2="SourceGraphic" operator="over" result="withGlow"/>
            <feOffset in="blur" dy="3" dx="3"/>
            <feComposite in2="SourceAlpha" operator="arithmetic" k2="-1" k3="1" result="shadowDiff"/>
            <feFlood flood-color="black" flood-opacity="1"/>
            <feComposite in2="shadowDiff" operator="in"/>
            <feComposite in2="withGlow" operator="over"/>
        </filter>
        <filter id="__golge1" x="0" y="0" width="200%" height="200%" filterUnits="userSpaceOnUse">
            <feOffset result="offOut" in="SourceAlpha" dx="8" dy="8"/>
            <feGaussianBlur result="blurOut" in="offOut" stdDeviation="3"/>
            <feBlend in="SourceGraphic" in2="blurOut" mode="normal"/>
        </filter>
    </defs>
    <g id="__Komsular" display="none">
        <radialGradient id="SVGID_1_" cx="286.0615" cy="95.3784" r="17.4636" gradientTransform="matrix(0.1809 0.9835 -0.616 0.1133 293.0789 -196.7701)" gradientUnits="userSpaceOnUse">
            <stop offset="0" style="stop-color:#FFFFFF"/>
            <stop offset="1" style="stop-color:#263C8B"/>
        </radialGradient>
        <path fill-rule="evenodd" clip-rule="evenodd" fill="url(#SVGID_1_)" stroke="#000000" stroke-miterlimit="10" d="M282.09,84.67   c0-0.34,0.22-1.09,0.44-1.17c0.31-0.11,0.51-0.06,0.67-0.36c0.52,0.31,1.1,1.04,1.67,1.11c0.21,0.38,0.34,1.03,0.7,1.25   c-0.02,0.58-0.12,1.46,0.42,1.81c0.14,0.6,0.28,1.21,0.42,1.81c0.05,0.32,0.09,0.65,0.14,0.97c0.21-0.12,0.55-0.46,0.76-0.2   c0.22,0.28,0.29,0.52,0.63,0.62c-0.04,0.34,0,0.46-0.28,0.7c0.19,0.37,0.37,0.74,0.56,1.11c0.08,0.49,0.15,1.4,0.56,1.67   c-0.09,0.33-0.48,1.58-0.33,1.77c0.37,0.45,0.46,0.71,1.08,0.85c0.38,0.03,0.77,0.07,1.15,0.1c0.2,0.16,0.4,0.32,0.6,0.47   c0.07,0.71,0.81,2.01,0.42,2.64c0.14,0.36,0.35,0.58,0.28,0.97c0.6,0.28,1.48,0.33,1.55,1.1c0.02,0.34-0.12,1.23-0.02,1.4   c-0.19,0.32-0.37,0.65-0.56,0.97c-0.23,0.32-0.46,0.65-0.7,0.97c-0.52,0.24-0.86,0.24-1.37,0.57c-0.05,0.09-0.11,0.17-0.16,0.26   c-0.41,0.25-0.83,0.37-0.97,0.83c-0.04-0.02-0.07-0.04-0.1-0.05c-0.61-0.4-1.23-0.8-1.84-1.2c-0.19,0.48-0.37,0.95-0.56,1.43   c-0.47,0.13-1.25,0.16-1.53,0.52c-0.81-0.17-1.63-0.35-2.45-0.52c-0.11,0.03-0.22,0.05-0.33,0.08c-0.49-0.08-1.26-0.27-1.68,0.02   c-0.32-0.01-0.6-0.09-0.83,0.14c-0.81-0.21-1.4-0.56-1.63-1.45c-0.06-0.07-0.11-0.14-0.17-0.21c0.04-0.54,0.35-1.24,0-1.68   c0.16-0.1,0.32-0.21,0.47-0.31c0.23-0.13,0.41-0.14,0.5-0.39c0.49-0.08,1.39-0.11,1.61-0.59c0.29-0.64,0.89-2.32,1.45-2.61   c0.07-0.55,0.14-1.1,0.22-1.66c-0.05-0.24-0.09-0.48-0.14-0.72c0.02-0.32,0.04-0.64,0.06-0.96c0.47-1.02,0.28-0.87,0.28-1.95   c-0.44-0.24-0.9-0.7-1.39-0.7c-0.66-1.38-1.01-2.95-1.26-4.45c-0.07-0.45-0.43-1.11-0.13-1.52c-0.2-0.82-0.39-1.64-0.59-2.46   c-0.04-0.38-0.07-0.77-0.1-1.15c0.03-0.32,0.31-0.54,0.14-0.83c0.28-0.17,0.62-0.24,0.7-0.56c0.08,0.03,0.15,0.07,0.23,0.1   c0.23,0.11,0.22,0.17,0.46,0.03C281.44,83.74,281.76,84.21,282.09,84.67z"/>
        <path fill="none" stroke="#000000" stroke-miterlimit="10" d="M228.97,38.09c1.58-2.93,3.97-5.75,5.87-8.35   c1.95-2.66,4.79-3.46,6.07-6.88c0.53-1.41,0.83-3.19,0.57-4.8c-0.28-1.67-1.35-2.54-1.67-4.17c-0.52-2.63,2.52-6.28,4.43-7.87   c0.74-0.61,1.45-0.86,2.45-0.89"/>
        <path fill="none" stroke="#000000" stroke-miterlimit="10" d="M83.81,56.03c-1.02-1.8-0.38-4.86-0.28-6.81   c0.12-2.38-1.29-4.34-2.22-6.39c-1.03-2.27-0.94-4.3-2.93-5.84c-1.69-1.31-3.52-2.56-5.31-3.72c-1.79-1.17-3.47-2.5-5.26-3.76   c-1.67-1.17-3.66-2.1-4.98-3.53c-2.86-3.1-4.46-7.29-5.69-11.27c-0.56-1.82-0.96-3.51-1.44-5.39C55.24,7.44,54.43,6.4,53.08,5"/>
        <path fill="none" stroke="#000000" stroke-miterlimit="10" d="M47.38,169.21c-3.92-1.25-9.43-1.06-12.79,1.21   c-2.08,1.41-3.18,3.35-4.76,5.18c-1.52,1.75-3.3,2.9-4.98,4.45c-2.94,2.73-7.08,4.29-10.14,6.68c-3.34,2.61-7.59,4.99-8.48,9.46   c-0.88,4.44,1.08,8.84,2.63,12.66c0.84,2.07,2.64,3.52,0.74,5.45c-0.93,0.95-0.93,1.29-1.39,2.61c-0.49,1.38-1,1.04-2.13,1.77   c-0.77,0.5-1.13,1.68-2.08,2.13"/>
        <path fill="none" stroke="#000000" stroke-miterlimit="10" d="M110.92,314.23c-2.41,0-3.85,0.93-6.12,1.4   c-2.01,0.42-4.22,1.33-6.12,2.19c-2.06,0.94-4.04,0.69-6.26,1.13c-2.16,0.43-3.86,2.31-6.11,2.09c-1.94-0.19-4.82,0.02-6.68-0.54   c-1.1-0.33-1.79-0.91-3.06-1.12c-1.05-0.17-2-0.56-3.06-0.67c-4.56-0.5-9.26-0.31-13.9-0.31c-2.36,0-4.84-0.25-6.95,0.42   c-1.24,0.39-2.38,0.91-3.61,1.28c-2.55,0.77-5.45,0.95-8.2,0.95"/>
        <path fill="none" stroke="#000000" stroke-miterlimit="10" d="M171.55,294.49c3.31,2.33,7.48,4.65,9.87,8.34   c2.2,3.39,3.38,7.97,4.31,11.83c0.44,1.82,0.34,4.99,1.56,6.5c1.57,1.95,4.28,1.02,6.51,1.13c2.32,0.12,4.6-0.04,6.95-0.27   c2.02-0.2,4.22-1.39,6.4-0.84c2.86,0.73,4.38,3.7,5.7,5.99c0.74,1.28,1.84,2.45,2.51,3.75c0.72,1.39,0.55,3.1,1.39,4.45"/>
        <path fill="none" stroke="#000000" stroke-miterlimit="10" d="M380.95,204.39c0.69,0.97,0.28,1.88,1.39,2.51   c0.99,0.56,2.04,0.13,2.81,1.09c0.61,0.76-0.01,2.07,0.63,2.84c0.25,0.31,1.05,0.41,1.4,0.65c0.49,0.34,0.72,0.8,1.14,1.22   c1.42,1.43,1.87,3.7,1.53,6.01c-0.3,2.05-0.66,3.75,1.63,4.9c1.38,0.7,2.76,1.16,3.79,2.47c0.54,0.68,0.59,0.66-0.24,1.42   c-0.69,0.63-1.36,0.7-2.12,1.11c-1.15,0.62-0.94,0.74-1,1.92c-0.05,1.04-0.1,1.06-0.53,2.05c-0.77,1.79,0.23,2.58,1.93,3.12   c0.06,0.11,0.02,0.25,0.05,0.37c1.02,0.52,1.72,3.41,1.78,4.47c0.12,2.01-2.4,3.03-2.06,5.12c1.67,0.9,2.47,3.07,3.48,4.45   c1.09,1.49,3.42,2,5.25,2.11c2.41,0.15,3.42,1.35,5.56,2.19c1.71,0.67,3.33,2.42,4.45,3.93c-0.03,0.09-0.02,0.17,0.02,0.25   c1.13,0.64,1.61,2.1,2.07,3.21c0.47,1.17,1.88,2.36,2.1,3.6c0.95,0.75,1.35,2.38,1.37,3.64"/>
        <path fill="none" stroke="#000000" stroke-miterlimit="10" d="M468.54,121.1c1.96-0.74,3.34-2.57,5-3.79   c1.75-1.29,2.86-2.56,4.31-4.24c1.33-1.55,2.63-3.25,4.35-4.45c1.95-1.36,3.71-1.57,5.95-2.02c2.46-0.49,3.15-0.14,5.14,1.16   c1.94,1.26,3.27,2.68,4.7,4.44c1.27,1.55,2.58,3.44,3.09,5.43c0.34,1.32,0.74,1.48,1.49,2.54c0.52,0.73,0.64,1.82,1.43,2.33"/>
        <text transform="matrix(0.9604 0.2787 -0.2787 0.9604 359.6553 51.5503)" font-family="'MyriadPro-Regular'" font-size="12">IĞDIR</text>
        <text transform="matrix(1 0 0 1 139.2891 20.9902)" font-family="'MyriadPro-Regular'" font-size="12">KARS</text>
        <text transform="matrix(3.520013e-003 -1 1 3.520013e-003 15.3638 125.4209)" font-family="'MyriadPro-Regular'" font-size="12">ERZURUM</text>
        <text transform="matrix(1 0 0 1 37.7876 253.8877)" font-family="'MyriadPro-Regular'" font-size="12">MUŞ</text>
        <text transform="matrix(1 0 0 1 115.5068 329.5327)" font-family="'MyriadPro-Regular'" font-size="12">BİTLİS</text>
        <text transform="matrix(1 0 0 1 241.7637 270.4341)" font-family="'MyriadPro-Regular'" font-size="12">VAN</text>
        <text transform="matrix(0.3952 -0.9186 0.9186 0.3952 477.915 212.1504)" font-family="'MyriadPro-Regular'" font-size="12">İRAN</text>
    </g>
    <g id="__Harita" fill="white" stroke="#000000" stroke-width="1" stroke-miterlimit="10" display="none">
        <rect id="__cer" x="0" y="0" fill="#000000" opacity="0" width="530" height="350"/>
        <g id="__Patnos">
            <path d="M91.26,220.89    c1.72-1.29,4.08-1.14,6.18-1.21c0.45-0.13,0.91-0.27,1.36-0.4c1.21-0.24,2.43-0.47,3.65-0.71c1.72-0.37,3.51-0.78,5.28-0.83    c1.3,0.04,2.6,0.08,3.89,0.13c1.07-0.04,2.13-0.08,3.2-0.13c0.51,0.09,1.02,0.19,1.53,0.28c0.33-0.08,0.65-0.16,0.98-0.24    c0.97-0.25,1.01-0.4,2.01-0.24c0.04,0.2,1.08,0.33,1.13,0.53c0.78,0.42,1.68,0.16,2.54,0.21c0.7,0.01,1.4,0.01,2.11,0.02    c2.16,0.44,4.82,0.16,6.95-0.28c0.65-0.51,1.3-1.02,1.95-1.53c0.66-0.87,1.32-1.74,1.98-2.61c0.83-0.96,1.71-2.07,2.17-3.24    c0.13-0.33,0.55-0.99,0.3-1.24c0.65-1.31,1.64-2.68,1.81-4.17c-0.32-1.25-0.65-2.5-0.97-3.75c-0.1-0.87-0.23-1.74-0.09-2.62    c0.31-0.98,0.63-1.95,0.94-2.93c0.46-0.27,0.44-0.31,0.82-0.57c0.38-0.37,1.01-1.03,1.11-1.11c0.05-0.04,0.09-0.1,0.14-0.14    c0.03-0.83,0.14-1.11,0.28-2.36c0.02-0.16,0.1-0.33,0.14-0.42c0.69-1.45,1.65-1.48,4.17-1.25c3.18,0.28,4.57,4.39,4.59,4.45    c0.3,0.51,0.54,1.03,0.74,1.56c0.3,0.83,0.47,1.7,0.5,2.66c0.64,0.97,0.82,2.17,0.99,3.29c0.19,0.69,0.38,1.39,0.57,2.08    c0.17,1.18,0.21,2.19,0.89,3.15c0.17,0.24,0.16,0.55,0.47,0.65c0.74,0.12,1.47,0.24,2.21,0.36c0.47,0.15,0.95,0.29,1.42,0.44    c0.51-0.05,1.02-0.09,1.53-0.14c0.6,0.05,1.21,0.09,1.81,0.14c0.73,0.3,1.45,0.59,2.18,0.89c0.8,0.45,1.61,0.89,2.41,1.34    c1.01,0.97,2.02,1.94,3.02,2.91c0.73,0.43,1.45,0.85,2.18,1.28c0.44,0.18,0.89,0.36,1.33,0.54c2.5,0.4,5.16,0.14,7.65-0.14    c2.73,0,5.47,0,8.2,0c1.08,0,2.49-0.33,3.48,0.11c0.48-0.29,2.3-0.84,2.92-0.94c0.46,0,0.93,0,1.39,0c0.6-0.17,1.21-0.34,1.82-0.5    c0.82-0.11,1.64-0.22,2.46-0.33c0.29,0.22,2.55-0.14,3.1-0.14c1.07,0.05,2.13,0.09,3.2,0.14c1.39-0.3,2.79-0.6,4.18-0.9    c1.01-0.19,1.73-0.28,2.84-0.28c0.25-0.08,1.52,0.19,1.53,0.28c-2.36,0.56-2.91,1.52-3.68,2.43c-0.37,0.93-0.74,1.85-1.11,2.78    c-0.37,1.07-0.74,2.13-1.11,3.2c-0.51,0.97-1.02,1.95-1.53,2.92c-0.37,0.88-0.74,1.76-1.11,2.64c-0.36,0.68-0.73,1.37-1.09,2.05    c-0.26,0.67-0.51,1.34-0.77,2.01c-0.17,0.69-0.34,1.39-0.52,2.09c-0.46,1.85-0.92,3.69-1.37,5.54c-0.3,0.3-0.53,2.25-0.56,2.36    c-0.01,0.13-0.02,0.26-0.03,0.39c-0.11,2.88-0.76,5.6-1.41,8.38c-0.31,1.16-0.61,2.31-0.92,3.47c-0.51,0.56-1.02,1.11-1.53,1.67    c-1.17,0.62-2.33,1.24-3.5,1.86c-0.55,0.31-1.1,0.61-1.65,0.92c-1.47,1.16-2.94,2.32-4.41,3.48c-0.72,0.75-1.44,1.51-2.16,2.26    c-0.87,1-1.74,2.01-2.61,3.02c-1.11,1.21-2.22,2.41-3.34,3.62c-1.26,1.08-2.44,1.99-3.49,3.29c-0.36,0.44-0.81,1.35-1.37,1.44    c-0.42,0.6-0.83,1.21-1.25,1.81c-0.32,0.23-0.65,0.46-0.97,0.7c-0.28,0.51-0.56,1.02-0.83,1.53c-0.27,0.18-0.46,0.24-0.56,0.56    c-0.46,0.17-1.35,0.31-1.44,0.83c-0.25,1.52-0.39,3.06,0.37,4.47c0.46,0.86,1.47,1.17,2.09,1.87c0.16,0.18,0.55,0.49,0.46,0.74    c-0.41,1.45-0.86,3.66-2.32,4.46c-0.23,0.37-0.46,0.74-0.7,1.11c-0.02,0.56-0.03,1.12-0.05,1.67c-0.35,0.18-1.17,0.23-1.48,0    c-1.68,0.16-3.09-0.09-4.73-0.43c-0.86-0.12-1.71-0.23-2.57-0.35c-0.7,0.58-2.04,0.97-2.43,1.89c-0.14,0.56-0.28,1.11-0.42,1.67    c-0.42,0.51-0.83,1.02-1.25,1.53c-0.29,0.55-0.57,1.11-0.86,1.66c-0.85,1.21-1.89,2.69-2.04,4.19c-0.22,2.25,0.43,4.4,0.53,6.66    c0.03,0.53,0.24,1.85-0.14,2.23c-0.79,0.97-1.58,1.95-2.36,2.92c-0.33,0.33-0.64,0.82-1.11,0.85c-1.68,0.16-2.33,0.33-3.89,0.33    c-0.7,0-2.01,0.03-2.57,0c-0.43,0.04-0.51,0.04-0.9,0.07c-1.21-0.08-2.41-0.17-3.62-0.25c2.23,0.13-6.94-0.47-7.52-0.49    c-0.39-0.01-1.67-0.01-2.51,0.06c-2.55,0.22-3.5,0.1-3.73,0.12c-0.96-0.01-1.92-0.02-2.88-0.03c-0.92-0.27-1.83-0.53-2.75-0.8    c-0.67-0.23-1.34-0.47-2.02-0.7c-0.56-0.09-1.11-0.19-1.67-0.28c-1.31,0.25-4.61,1.13-5.67,0.54c-0.97-0.53-2.54-1.48-2.95-2.62    c-0.55-1.57-0.22-3.27-0.51-4.87c-0.39-2.13-1.02-4.04-1.02-6.25c0-1.05-0.17-4.08,0.28-4.87c-0.05-0.6-0.09-1.21-0.14-1.81    c0.02-0.64,0.38-2.2,0.67-2.64c-0.19-0.47,0.39-3.17,0.72-3.62c0.24-1.81,0.48-3.62,0.72-5.42c0.09-1.78,0.19-3.57,0.28-5.35    c0.45-0.84,0.31-3.12,0.25-4.11c0.09-1.67,0.19-3.34,0.28-5.01c0.15-0.98,0.46-2.43,0.12-3.38c-0.18-1.05-0.36-2.1-0.53-3.15    c-1.02-3.1-2.04-6.21-3.06-9.32c-0.29-0.75-0.58-1.5-0.87-2.25c-0.22-0.78-0.44-1.56-0.66-2.34c-0.37-0.88-0.74-1.76-1.11-2.64    c-1.48-2.73-2.97-5.47-4.45-8.2c-0.52-1.73-1.82-3.54-2.92-5.01c-0.37-0.6-0.74-1.21-1.11-1.81c-0.97-1.53-1.95-3.06-2.92-4.59    c-0.86-1.44-1.73-2.89-2.59-4.33C91.56,221.91,90.97,221.13,91.26,220.89z"/>
            <circle cx="144.43" cy="239.15" r="1.586"/>
        </g>
        <g id="__Tutak">
            <path d="M139.16,122.44    c-1.64-0.41-3.16-0.81-4.88-0.92c-0.53-0.6-2.99-0.64-3.89-0.74c-1.63-0.18-3.39-0.39-5.03-0.2c-2.32,0-4.64-0.01-6.97-0.01    c-1.84-0.26-3.69-0.52-5.53-0.77c-4.77-0.03-9.55-0.06-14.32-0.09c-2.64-0.23-5.28-0.46-7.93-0.7c-2.32,0-4.64-0.01-6.96-0.01    c-2.5,0.01-5,0.03-7.5,0.04c-1.53,0.22-3.06,0.44-4.59,0.67c-1.64,0.16-3.14,0.48-4.73,0.97c0,0.29-0.36,0.42-0.54,0.65    c-0.19,0.45-0.39,0.91-0.58,1.36l-0.58,0.53c0.13,0.07,5.37,1.78,6.98,3.98c1.63,2.23,2.21,7.59,1.2,10.1    c-0.09,0.42-0.18,0.83-0.27,1.25c-0.15,0.47-0.31,0.93-0.46,1.4c-0.42,1.17-1.03,2.6-1.84,3.54c-0.04,0.44-0.41,0.83-0.65,1.2    c-0.57,0.85-1.14,1.7-1.7,2.55c-0.2,0.22-0.41,0.44-0.61,0.67c-0.33,0.73-0.93,1.52-1.54,2.06c-0.29,0.89-2.11,2.97-2.93,3.47    c-0.18,0.36-0.57,0.74-0.93,0.9c-0.48,0.7-0.86,1.09-1.55,1.5c-0.28,0.17-0.63,0.52-0.95,0.45c-0.37,0.37-0.74,0.74-1.11,1.11    c-0.91,0.97-1.83,1.95-2.74,2.92c-0.92,0.6-1.84,1.2-2.75,1.8c-0.91,0.74-1.68,1.95-2.29,2.92c-0.33,0.28-0.66,0.57-0.99,0.85    c-0.52,0.74-1.28,1.58-2.07,2.07c-0.33,0.6-0.1,0.85-0.83,0.97c0.15,0.03,0.3,0.07,0.45,0.1c0.4,0.07,0.98,0.4,1.36,0.03    c1.02,0.09,2.04,0.19,3.06,0.28c1.39,0,3.78,0.63,5.11,1.09c0.94,0.45,1.88,0.9,2.82,1.35c0.65,0.44,1.3,0.88,1.95,1.32    c1.11,1.21,2.22,2.41,3.34,3.62c0.5,0.74,1.01,1.48,1.51,2.22c0.94,1.08,2.49,3.38,2.94,4.73c0.23,0.46,0.46,0.93,0.7,1.39    c0.19,0.56,0.37,1.11,0.56,1.67c0.17,0.65,0.48,2.46,0.28,3.06c0.3,1.6,0.6,3.18,1.11,4.73c0.23,0.97,0.46,1.95,0.69,2.92    c-0.1,1.11-0.21,2.23-0.31,3.34c-0.02,1.18,0.7,2.15,1.46,3.02c0.26,0.24,0.53,0.49,0.79,0.73c1.29,0.21,2.73,0.24,4.03,0.14    c0.46-0.06,0.92-0.12,1.39-0.18c0.65,0.02,1.3,0.03,1.95,0.05c0.6,0.09,1.21,0.18,1.81,0.27c0.28,0.14,0.56,0.28,0.83,0.42    c0.51,0.42,1.02,0.83,1.53,1.25c0.66,1.16,1.16,2.3,1.53,3.62c0.6,2.15,0.51,4.48,1.39,6.54c0.41,1.03,0.82,2.06,1.23,3.09    l0.65,1.17c1.72-1.29,4.08-1.14,6.18-1.21c0.45-0.13,0.91-0.27,1.36-0.4c1.21-0.24,2.43-0.47,3.65-0.71    c1.72-0.37,3.51-0.78,5.28-0.83c1.3,0.04,2.6,0.08,3.89,0.13c1.07-0.04,2.13-0.08,3.2-0.13c0.51,0.09,1.02,0.19,1.53,0.28    c0.33-0.08,0.65-0.16,0.98-0.24c0.97-0.25,1.01-0.4,2.01-0.24c0.04,0.2,1.08,0.33,1.13,0.53c0.78,0.42,1.68,0.16,2.54,0.21    c0.7,0.01,1.4,0.01,2.11,0.02c2.16,0.44,4.82,0.16,6.95-0.28c0.65-0.51,1.3-1.02,1.95-1.53c0.66-0.87,1.32-1.74,1.98-2.61    c0.83-0.96,1.71-2.07,2.17-3.24c0.13-0.33,0.55-0.99,0.3-1.24c0.65-1.31,1.64-2.68,1.81-4.17c-0.32-1.25-0.65-2.5-0.97-3.75    c-0.1-0.87-0.23-1.74-0.09-2.62c0.31-0.98,0.63-1.95,0.94-2.93c0.46-0.27,0.46-0.33,0.82-0.57c0.53-0.54,1.01-1.03,1.11-1.11    c0.05-0.04,0.09-0.1,0.14-0.14c0.03-0.83,0.14-1.11,0.28-2.36c0.02-0.16,0.1-0.33,0.14-0.42c0.69-1.45,1.65-1.48,4.17-1.25    c3.18,0.28,4.57,4.39,4.59,4.45c0.3,0.51,0.54,1.03,0.74,1.56l0.17-2.05c0.42-2.09,0.27-2.82,0.69-4.76    c0.19-0.58,0.37-1.16,0.56-1.74c0.23-0.75,0.25-1.72,0.77-2.33c0.09-1.25,0.19-2.5,0.28-3.75c-0.15-0.7-0.3-1.41-0.45-2.11    c-0.28-1.39-0.53-3.78-0.03-5.13c0.15-0.41,0.54-0.95,0.49-1.38c0.28-0.37,0.56-0.74,0.83-1.11c1.59-1.36,3.62-1.92,5.42-2.92    c0.46-0.56,0.92-1.12,1.38-1.67c0.42-0.55,0.84-1.11,1.26-1.66c0.42-1.56,0.83-3.13,1.25-4.69c0.23-1.75-0.29-2.14,0.84-3.79    c-0.19-1.21-0.37-2.41-0.56-3.62c-0.19-0.37-0.37-0.74-0.56-1.11c0-1.93-2.17-2.89-3.68-3.41c-0.44-0.16-0.88-0.32-1.32-0.49    c-0.54-0.34-1.18-1.03-1.81-1.11c-0.87-0.87-1.31-1.77-1.95-2.78c-0.42-0.6-0.83-1.21-1.25-1.81c-0.44-1.03-1.59-3.54-1.39-4.59    c-0.43-0.87-0.87-1.75-1.3-2.62c-0.29-0.79-1.34-2.92-2.04-3.22c-0.71-2.13-0.56-2.89-2.5-4.31c-0.09-0.55-0.65-2.3-0.28-2.64    c-0.11-0.07-0.22-0.14-0.33-0.2c-1.18-0.68-2.53-1.06-3.82-1.54c-0.61-0.23-1.22-0.38-1.84-0.61    C140.95,122.92,139.87,122.63,139.16,122.44z"/>
            <circle cx="124.83" cy="159.48" r="1.586"/>
        </g>
        <g id="__Hamur">
            <path d="M152.12,196.08l0.17-2.05    c0.42-2.09,0.27-2.82,0.69-4.76c0.19-0.58,0.37-1.16,0.56-1.74c0.23-0.75,0.25-1.72,0.77-2.33c0.09-1.25,0.19-2.5,0.28-3.75    c-0.15-0.7-0.3-1.41-0.45-2.11c-0.28-1.39-0.53-3.78-0.03-5.13c0.15-0.41,0.54-0.95,0.49-1.38c0.28-0.37,0.56-0.74,0.83-1.11    c1.59-1.36,3.62-1.92,5.42-2.92c0.46-0.56,0.92-1.12,1.38-1.67c0.42-0.55,0.84-1.11,1.26-1.66c0.42-1.56,0.83-3.13,1.25-4.69    c0.23-1.75-0.29-2.14,0.84-3.79c-0.19-1.21-0.37-2.41-0.56-3.62c-0.19-0.37-0.37-0.74-0.56-1.11c0-1.93-2.17-2.89-3.68-3.41    c-0.44-0.16-0.88-0.32-1.32-0.49c-0.54-0.34-1.18-1.03-1.81-1.11c-0.87-0.87-1.31-1.77-1.95-2.78c-0.42-0.6-0.83-1.21-1.25-1.81    c-0.44-1.03-1.59-3.54-1.39-4.59c-0.43-0.87-0.87-1.75-1.3-2.62c-0.29-0.79-1.34-2.92-2.04-3.22c-0.71-2.13-0.56-2.89-2.5-4.31    c-0.09-0.55-0.65-2.3-0.28-2.64v-0.14c1.24,0.41,2.23,0.46,3.48,0.7c0.55,0.19,1.1,0.39,1.65,0.58c2.14,0.48,4.28,0.96,6.42,1.43    c2.29,0.35,5.06,0.73,7.37,0.63c1.67,0.19,3.34,0.38,5.01,0.56c0.58-0.06,1.17-0.12,1.75-0.17c1.71,0.05,3.5,0,5.3,0.02    c0.94,0.09,1.88,0.19,2.82,0.28c0.55-0.06,1.09-0.11,1.64-0.17c0.8,0.09,1.59,0.17,2.39,0.26c1.21,0.26,2.32,0.7,3.48,1.03    c0.37,0.2,0.75,0.4,1.12,0.6c1.26,0.59,2.66,1.13,3.75,2.04c0.71,0.63,1.42,1.26,2.13,1.89c1.55,1.12,3.1,2.25,4.65,3.37    c0.37,0.31,0.74,0.61,1.11,0.92c0.43,0.49,0.86,0.98,1.29,1.47c1.1,0.66,2.19,1.32,3.29,1.98c3.18,1.94,6.36,3.88,9.53,5.83    c1.87,1.47,3.8,2.77,5.95,3.88c0,0-0.83,1.13-1.25,1.66c0.01,0.48-0.33,0.88-0.52,1.33c-0.16,0.63-0.31,1.27-0.47,1.9    c-0.12,1.33-0.23,2.65-0.35,3.98c-0.25,0.75-0.5,1.5-0.75,2.25c-0.02,1.47-0.04,2.95-0.06,4.42c-0.21,0.8-0.43,1.59-0.64,2.39    c0.05,1.81,0.09,3.62,0.14,5.42c0.19,0.75,0.59,1.34,0.94,2.12c0.23,0.52,0.13,1.4,0.62,1.76c0.23,0.77,0.46,1.55,0.69,2.32    c0.96,2.55,2.1,5.02,3.29,7.49c0.13,0.42,0.26,0.85,0.4,1.27c0.36,0.74,0.72,1.49,1.09,2.23c0.16,0.52,0.13,1.41,0.56,1.76    c0.12,0.41,0.23,0.81,0.35,1.22c0.55,0.87,0.79,1.74,1.11,2.7c0.55,1.62,1.17,3.11,1.43,4.81c0.16,1.01,0.17,2.02,0.31,2.99    c-0.23,0.47-1.42,0.83-1.89,1.03c-1.06,0.53-2.11,1.06-3.17,1.59c-2.09,1.28-4.18,2.56-6.27,3.84l-0.21,0.21    c-0.06-0.05-1.26-0.31-1.53-0.28c-1.11,0-1.83,0.1-2.84,0.28c-1.39,0.3-2.79,0.6-4.18,0.9c-1.07-0.05-2.13-0.09-3.2-0.14    c-0.55,0-2.81,0.36-3.1,0.14c-0.82,0.11-1.64,0.22-2.46,0.33c-0.61,0.17-1.21,0.34-1.82,0.5c-0.46,0-0.93,0-1.39,0    c-0.62,0.1-2.43,0.65-2.92,0.94c-0.99-0.43-2.4-0.11-3.48-0.11c-2.73,0-5.47,0-8.2,0c-2.49,0.28-5.15,0.54-7.65,0.14    c-0.44-0.18-0.89-0.36-1.33-0.54c-0.73-0.43-1.45-0.85-2.18-1.28c-1.01-0.97-2.02-1.94-3.02-2.91c-0.8-0.45-1.61-0.89-2.41-1.34    c-0.73-0.3-1.45-0.59-2.18-0.89c-0.6-0.05-1.21-0.09-1.81-0.14c-0.51,0.05-1.02,0.09-1.53,0.14c-0.47-0.15-0.95-0.29-1.42-0.44    c-0.74-0.12-1.47-0.24-2.21-0.36c-0.31-0.1-0.29-0.4-0.47-0.65c-0.69-0.96-0.72-1.97-0.89-3.15c-0.19-0.69-0.38-1.39-0.57-2.08    c-0.16-1.12-0.35-2.32-0.99-3.29C152.59,197.77,152.42,196.91,152.12,196.08L152.12,196.08z"/>
            <circle cx="169.53" cy="140.78" r="1.586"/>
        </g>
        <g id="__Taşlıçay">
            <path d="M282.93,107.18    c-0.49-0.08-1.26-0.27-1.68,0.02c-0.32-0.01-0.6-0.09-0.83,0.14c-0.81-0.21-1.4-0.56-1.63-1.45c-0.06-0.07-0.11-0.14-0.17-0.21    c0.04-0.54,0.35-1.24,0-1.68c0.16-0.1,0.32-0.21,0.47-0.31c0.23-0.13,0.41-0.14,0.5-0.39c0.49-0.08,1.39-0.11,1.61-0.59    c0.29-0.64,0.89-2.32,1.45-2.61c0.07-0.55,0.14-1.1,0.22-1.66c-0.05-0.24-0.09-0.48-0.14-0.72c0.02-0.32,0.04-0.64,0.06-0.96    c0.47-1.02,0.28-0.87,0.28-1.95c-0.44-0.24-0.9-0.7-1.39-0.7c-0.66-1.38-1.01-2.95-1.26-4.45c-0.07-0.45-0.43-1.11-0.13-1.52    c-0.2-0.82-0.39-1.64-0.59-2.46c-0.04-0.38-0.07-0.77-0.1-1.15c0.03-0.32,0.31-0.54,0.14-0.83c0.28-0.17,0.62-0.24,0.7-0.56    c0.08,0.03,0.15,0.07,0.23,0.1c0.23,0.11,0.22,0.17,0.46,0.03c0.32,0.46,0.65,0.93,0.97,1.39c0-0.34,0.22-1.09,0.44-1.17    c0.31-0.11,0.51-0.06,0.67-0.36l0.28-0.14c-0.01-0.28-0.02-0.56-0.03-0.83c-0.06-0.88-0.22-1.61-0.11-2.5    c-0.14-0.03-0.28-0.06-0.42-0.08c-0.29-0.06-0.56-0.19-0.83-0.06c-0.57-0.15-1.13-0.29-1.7-0.44c-0.34-0.08-0.72,0.01-0.94-0.26    c-2.06,0.65-3.41,2.02-4.93,3.54c-0.08,0.34-1.42,2.14-1.75,2.3c-0.19,0.37-0.37,0.74-0.56,1.11c-0.05,1.48-0.09,2.97-0.14,4.45    c-0.38,2.92-2.21,5.22-4.75,6.63c-2.26,1.26-5.78,0.24-7.63-1.35c-0.19-0.15-0.31-0.28-0.53-0.5c-0.32-0.32-0.38-0.65-0.9-1.21    c-0.08-0.13-0.28-0.46-0.37-0.66c-0.09,0.07-0.92,1.06-1.01,1.14c-0.76,0.94-0.86,0.98-1.49,1.77c-1.29,1.56-2.72,3.13-4.01,4.69    c-0.58,0.1-1.06,0.88-1.41,1.34c-0.44,0.16-0.6,0.53-0.91,0.87c-0.77,0.95-1.53,1.9-2.3,2.85c-0.28,0.28-0.56,0.56-0.83,0.83    c-0.28,0.51-0.56,1.02-0.83,1.53c-0.51,0.51-1.01,1.01-1.52,1.52c-0.4,0.44-0.79,1.19-1.4,1.26c-0.37,0.46-0.74,0.93-1.11,1.39    c-0.25,1.23-0.34,1.98-0.28,3.2c-0.14,0.51-0.28,1.02-0.42,1.53c-0.05,0.51-0.09,1.02-0.14,1.53c-0.19,0.74-0.37,1.48-0.56,2.22    c-1.11,1.72-1.97,3.52-3.23,5.07c-0.41,0.54-0.81,1.07-1.22,1.61c-0.79,1.76-1.58,3.52-2.36,5.28c-0.81,1.45-1.75,2.79-2.45,4.33    c-1.04,2.31-2.29,4.78-2.47,7.37c-0.15,2.24,0.18,4.65-0.54,6.77c-0.18,0.52-0.07,1.24-0.46,1.63c-0.33,0.33-0.84,0.93-1.31,0.87    c-0.68-0.13-1.36-0.27-2.05-0.4c-0.55-0.23-1.1-0.45-1.66-0.68l-0.9-0.41c0,0-0.83,1.13-1.25,1.66c0.01,0.48-0.33,0.88-0.52,1.33    c-0.16,0.63-0.31,1.27-0.47,1.9c-0.12,1.33-0.23,2.65-0.35,3.98c-0.25,0.75-0.5,1.5-0.75,2.25c-0.02,1.47-0.04,2.95-0.06,4.42    c-0.21,0.8-0.43,1.59-0.64,2.39c0.05,1.81,0.09,3.62,0.14,5.42c0.19,0.75,0.59,1.34,0.94,2.12c0.23,0.52,0.13,1.4,0.62,1.76    c0.23,0.77,0.46,1.55,0.69,2.32c0.96,2.55,2.1,5.02,3.29,7.49c0.13,0.42,0.26,0.85,0.4,1.27c0.36,0.74,0.72,1.49,1.09,2.23    c0.16,0.52,0.13,1.41,0.56,1.76c0.12,0.41,0.23,0.81,0.35,1.22c0.55,0.87,0.79,1.74,1.11,2.7c0.55,1.62,1.17,3.11,1.43,4.81    c0.16,1.01,0.17,2.02,0.31,2.99l0.79-0.07c1.43-0.55,2.86-1.11,4.29-1.66c0.45-0.18,1.21-0.05,1.53-0.42    c1.15,0.12,2.31,0.25,3.46,0.37c1.49,0.43,2.98,0.87,4.46,1.3c1.71,0.04,3.43,0.09,5.14,0.13c2.13-0.04,4.27-0.09,6.4-0.13    l0.56,0.14c0.03-1.16-0.58-2.2-0.7-3.34c-0.23-2.32-0.85-4.6-0.66-6.95c0.17-0.97,0.35-1.95,0.53-2.92    c-0.05-1.34-0.09-2.69-0.14-4.03c-0.45-0.68-0.41-1.44-0.56-2.22c-0.34-1.85-1.13-3.63-0.99-5.54c0.24-0.47,0.47-0.94,0.71-1.41    c0.42-0.7,0.72-1.6,0.85-2.38c0.06-1.8,0.12-3.6,0.17-5.4c0.17-1.39,0.34-2.78,0.5-4.18c0.15-0.6,0.3-1.21,0.45-1.81    c0.63-1.9,1.26-3.79,1.89-5.69c1.17-2.79,2.33-5.57,3.5-8.36c0.25-0.39,0.55-1.07,0.97-1.25c0.28-0.56,0.56-1.12,0.83-1.67    c0.19-0.32,0.37-0.65,0.56-0.97c0.42-0.46,0.83-0.93,1.25-1.39c2.48-1.33,5.51-0.29,8.16-1.1c2.28-0.7,4.34-2.46,6.09-4.1    c0.49-0.46,1.69-1.44,1.6-2.17c0.64-0.18,0.81-0.47,1.25-0.97c1.11-1.85,2.22-3.71,3.34-5.56c0.23-1.57,0.45-3.14,0.68-4.71    c0.13-1.49,0.27-2.98,0.4-4.46c0.1-0.56,0.21-1.11,0.31-1.67c0.21-0.39,0.25-0.67,0.49-0.9l-0.42-0.16    c-0.08-0.29-0.39-0.7-0.49-0.95c-0.79-0.82-2.13-2.01-2.36-3.13c-0.04-2.32-0.08-4.63-0.13-6.95c0.02-0.6-0.31-1.73,0.13-2.09    L282.93,107.18z"/>
            <circle cx="248.16" cy="133.48" r="1.586"/>
        </g>
        <g id="__Diyadin">
            <path d="M285.56,121.66    c0.31-0.35,0.13-0.91,0.49-0.9c1.44,0.03,3.5,0.27,4.94,0.29c0.5,0.06,1.54,0.43,1.95,0.2c0.81,0.44,1.6,0.83,2.52,0.97    c1.29,0.07,2.58,0.15,3.86,0.22c1.81,0.26,3.49,1,5.19,1.59c1.37,0.48,2.95,0.66,4.14,1.53c0.4,0.29,1.18,0.21,1.39,0.69    c1.41,0.18,2.68,0.37,4.04,0.76c0.45,0.13,1.26,0.2,1.52,0.63c1.38,0.12,2.77,0.24,4.15,0.36c0.55,0.1,1.1,0.21,1.64,0.31    c0.74,0.08,1.49,0.16,2.23,0.23c1.42,1.11,1.86,2.83,2.68,4.38c0.72,0.84,1.43,1.69,2.15,2.53c0.82,1.23,1.64,2.47,2.46,3.7    c0.62,0.94,1.15,1.89,1.5,2.98c0.11,0.35,0.05,0.54,0.42,0.67c-0.02,0.08-0.05,0.15-0.07,0.23c-0.25,0.75-0.56,1.36-1.06,1.97    c-0.17,0.16-0.34,0.31-0.51,0.47c-0.48,0.78,0.01,1.18-0.9,1.4c-0.45,0.09-0.76,0.03-1.09,0.38c-0.27-0.11-0.77-0.4-0.92-0.11    c-0.67,1.33-1.21,2.84-1.3,4.28c0.65,0.69,1.55,1.83,2.5,2.09c0.51,0.42,1.02,0.83,1.53,1.25c0.46,0.51,0.93,1.02,1.39,1.53    c0.56,1.07,1.11,2.13,1.67,3.2c0.32,0.88,0.65,1.76,0.97,2.64c0.23,0.93,0.46,1.85,0.69,2.78c0.18,0.61,0.35,1.21,0.53,1.82    c0.04,0.49,0.08,0.98,0.11,1.47c0.14,0.58,0.28,1.15,0.42,1.73c0.06,1.11,0.13,2.22,0.2,3.32c0.14,0.88,0.28,1.76,0.42,2.64    c0.15,2.55,0.3,5.1,0.46,7.64c0.14,1.06,0.27,2.12,0.41,3.19c0.08,0.48,0.32,0.98,0.1,1.41c0.18,0.74,0.59,2.52,1.25,2.92    c0.19,0.42,0.37,0.83,0.56,1.25c0.07,1.04,0.3,2.09,0.7,3.06c0.97,2.38,2.68,4.16,3.73,6.41c0.27,0.58,0.57,1.6,0.3,2.21    c0.52,1.68,1.24,3.21,1.85,4.82c0.31,0.8,0.62,1.61,0.93,2.41c0.2,0.18,1.5,0.7,1.37,0.96c-0.54,0.5-1.44,1.15-2.07,1.41    c-1.12,0.82-2.25,1.64-3.37,2.46c-0.16,0.15-0.4,0.41-0.65,0.53c-0.76,0.58-1.07,0.87-1.83,1.45c-0.51,0.51-1.01,1.03-1.52,1.54    c-0.86,1.21-1.72,2.42-2.58,3.63c-1.81,2.05-3.63,4.11-5.44,6.16c-0.25,0.26-0.49,0.52-0.74,0.78c-0.76,0.63-0.76,1.46-1.32,1.74    c-1.02,0.6-1.18,1.42-1.96,2.33c-0.85,1.1-1.71,2.2-2.56,3.3c-1.4,2.47-2.8,4.94-4.21,7.42c-0.42,0.82-0.82,2.63-1.77,2.75    c-3.01,0.32-5.41,0.61-8.2,0.54c-0.73-0.02-1.57-0.92-2.36-0.83c-0.35-0.03-1.07-0.29-1.39-0.42c-0.94-0.37-2.2,0.42-3.2,0.28    c-1.19-0.17-2.16,0.63-3.35,0.7c-0.36,0.02-0.98,0.11-1.23-0.14c-1.57-0.98-2.49-2.48-3.68-3.85c-1.24-1.44-2.37-2.75-3.76-4.28    c-0.74-0.56-1.35-1.3-2.02-2.02c-0.46-0.37-0.93-0.74-1.39-1.11c-0.28-0.42-0.56-0.83-0.83-1.25c-0.5-1.03-0.91-2.01-1.53-2.97    c-0.74-0.23-1.61-1.74-2.22-2.29c-0.78-0.75-1.56-1.51-2.33-2.26c-0.52-0.6-1.04-1.19-1.56-1.79c-1.07-1.39-2.13-2.78-3.2-4.17    c-0.72-0.95-1.44-1.91-2.16-2.86c-0.33-0.06-2.15-2.03-2.29-2.42c-0.32-0.23-0.64-0.47-0.96-0.7c-0.83-0.72-1.61-1.44-2.52-1.94    c-0.69-0.38-1.11-1.4-1.95-1.39c-0.02-0.87-2.23-1.72-3.03-2.17c-2.83-1.6-5.79-4.36-9.35-4.36c0.03-1.16-0.58-2.2-0.7-3.34    c-0.23-2.32-0.85-4.6-0.66-6.95c0.17-0.97,0.35-1.95,0.53-2.92c-0.05-1.34-0.09-2.69-0.14-4.03c-0.45-0.68-0.41-1.44-0.56-2.22    c-0.34-1.85-1.13-3.63-0.99-5.54c0.24-0.47,0.47-0.94,0.71-1.41c0.42-0.7,0.72-1.6,0.85-2.38c0.06-1.8,0.12-3.6,0.17-5.4    c0.17-1.39,0.34-2.78,0.5-4.18c0.15-0.6,0.3-1.21,0.45-1.81c0.63-1.9,1.26-3.79,1.89-5.69c1.17-2.79,2.33-5.57,3.5-8.36    c0.25-0.39,0.55-1.07,0.97-1.25c0.28-0.56,0.56-1.12,0.83-1.67c0.19-0.32,0.37-0.65,0.56-0.97c0.42-0.46,0.83-0.93,1.25-1.39    c2.48-1.33,5.51-0.29,8.16-1.1c2.28-0.7,4.34-2.46,6.09-4.1c0.49-0.46,1.69-1.44,1.6-2.17c0.64-0.18,0.81-0.47,1.25-0.97    c1.11-1.85,2.22-3.71,3.34-5.56c0.23-1.57,0.45-3.14,0.68-4.71c0.13-1.49,0.27-2.98,0.4-4.46    C285.36,122.77,285.46,122.21,285.56,121.66z"/>
            <circle cx="309.34" cy="158.36" r="1.586"/>
        </g>
        <g id="__Doğubayazıt">
            <path d="M283.34,79.67    c-0.12,0.9,0.05,1.62,0.11,2.5c0.01,0.28,0.02,0.56,0.03,0.83l-0.28,0.14c0.52,0.31,1.1,1.04,1.67,1.11    c0.21,0.38,0.34,1.03,0.7,1.25c-0.02,0.58-0.12,1.46,0.42,1.81c0.14,0.6,0.28,1.21,0.42,1.81c0.05,0.32,0.09,0.65,0.14,0.97    c0.21-0.12,0.55-0.46,0.76-0.2c0.22,0.28,0.29,0.52,0.63,0.62c-0.04,0.34,0,0.46-0.28,0.7c0.19,0.37,0.37,0.74,0.56,1.11    c0.08,0.49,0.15,1.4,0.56,1.67c-0.09,0.33-0.48,1.58-0.33,1.77c0.37,0.45,0.46,0.71,1.08,0.85c0.38,0.03,0.77,0.07,1.15,0.1    c0.2,0.16,0.4,0.32,0.6,0.47c0.07,0.71,0.81,2.01,0.42,2.64c0.14,0.36,0.35,0.58,0.28,0.97c0.6,0.28,1.48,0.33,1.55,1.1    c0.02,0.34-0.12,1.23-0.02,1.4c-0.19,0.32-0.37,0.65-0.56,0.97c-0.23,0.32-0.46,0.65-0.7,0.97c-0.52,0.24-0.86,0.24-1.37,0.57    c-0.05,0.09-0.11,0.17-0.16,0.26c-0.41,0.25-0.83,0.37-0.97,0.83c-0.04-0.02-0.07-0.04-0.1-0.05c-0.61-0.4-1.23-0.8-1.84-1.2    c-0.19,0.48-0.37,0.95-0.56,1.43c-0.47,0.13-1.25,0.16-1.53,0.52c-0.81-0.17-1.63-0.35-2.45-0.52c-0.11,0.03-0.22,0.05-0.33,0.08    l-0.15,0.3c-0.44,0.35-0.11,1.48-0.13,2.09c0.04,2.32,0.08,4.64,0.13,6.95c0.24,1.12,1.57,2.31,2.36,3.13    c0.09,0.25,0.4,0.66,0.49,0.95l0.42,0.16c1.44,0.03,3.5,0.27,4.94,0.29c0.5,0.06,1.54,0.43,1.95,0.2c0.81,0.44,1.6,0.83,2.52,0.97    c1.29,0.07,2.58,0.15,3.86,0.22c1.81,0.26,3.49,1,5.19,1.59c1.37,0.48,2.95,0.66,4.14,1.53c0.4,0.29,1.18,0.21,1.39,0.69    c1.41,0.18,2.68,0.37,4.04,0.76c0.45,0.13,1.26,0.2,1.52,0.63c1.38,0.12,2.77,0.24,4.15,0.36c0.55,0.1,1.1,0.21,1.64,0.31    c0.74,0.08,1.49,0.16,2.23,0.23c1.42,1.11,1.86,2.83,2.68,4.38c0.72,0.84,1.43,1.69,2.15,2.53c0.82,1.23,1.64,2.47,2.46,3.7    c0.62,0.94,1.15,1.89,1.5,2.98c0.11,0.35,0.05,0.54,0.42,0.67c-0.02,0.08-0.05,0.15-0.07,0.23c-0.25,0.75-0.56,1.36-1.06,1.97    c-0.17,0.16-0.34,0.31-0.51,0.47c-0.48,0.78,0.01,1.18-0.9,1.4c-0.45,0.09-0.76,0.03-1.09,0.38c-0.27-0.11-0.77-0.4-0.92-0.11    c-0.67,1.33-1.21,2.84-1.3,4.28c0.65,0.69,1.55,1.83,2.5,2.09c0.51,0.42,1.02,0.83,1.53,1.25c0.46,0.51,0.93,1.02,1.39,1.53    c0.56,1.07,1.11,2.13,1.67,3.2c0.32,0.88,0.65,1.76,0.97,2.64c0.23,0.93,0.46,1.85,0.69,2.78c0.18,0.61,0.35,1.21,0.53,1.82    c0.04,0.49,0.08,0.98,0.11,1.47c0.14,0.58,0.28,1.15,0.42,1.73c0.06,1.11,0.13,2.22,0.2,3.32c0.14,0.88,0.28,1.76,0.42,2.64    c0.15,2.55,0.3,5.1,0.46,7.64c0.14,1.06,0.27,2.12,0.41,3.19c0.08,0.48,0.32,0.98,0.1,1.41c0.18,0.74,0.59,2.52,1.25,2.92    c0.19,0.42,0.37,0.83,0.56,1.25c0.07,1.04,0.3,2.09,0.7,3.06c0.97,2.38,2.68,4.16,3.73,6.41c0.27,0.58,0.57,1.6,0.3,2.21    c0.52,1.68,1.24,3.21,1.85,4.82c0.31,0.8,0.62,1.61,0.93,2.41c0.2,0.18,1.5,0.7,1.37,0.96l0.32-0.43    c1.25-0.68,2.49-1.36,3.74-2.04c0.84-0.49,2.72-1.3,3.2-2.06c1.15-0.62,2.29-1.25,3.44-1.87c1.07-0.69,2.1-1.36,3.22-1.89    c0.32-0.15,0.65-0.3,0.97-0.45c1.02-0.28,2.04-0.56,3.06-0.83c0.65,0.05,1.3,0.09,1.95,0.14c0.56,0,1.11,0,1.67,0    c1.29,0.11,2.59,0.21,3.88,0.32c2.09,0.48,4.31,1.87,6.5,1.49c-0.22-0.56-0.43-1.12-0.65-1.67c0.17-0.73-0.51-0.87-0.35-1.6    c0.06-0.3,1.18-0.36,1.69-0.8c0.29-0.27,0.58-0.53,0.88-0.8c0.56-0.28,1.11-0.56,1.67-0.83c0.26-0.26,0.52-0.52,0.77-0.78    c-0.3-1.04-0.59-2.09-0.89-3.13c-0.05-0.23,0.46-0.47,0.67-0.54c0.46-0.09,0.93-0.19,1.39-0.28c0.32-0.42,0.65-0.83,0.97-1.25    c1.29,0,2.38,0.46,3.62,0.7c0.51-0.32,1.02-0.65,1.53-0.97c0.19-0.03,0.38-0.06,0.56-0.09c0.3-0.11,0.76,0.56,0.96,0.78    c0.37,0.4,0.89,0.51,1.39,0.7c0.15,0.43,0.79,0.65,1.11,0.97c0.42,0.05,0.83,0.09,1.25,0.14c0.6-0.23,1.21-0.46,1.81-0.7    c0.07,0.06,0.14,0.13,0.21,0.19c0.14,0.02,0.27,0.05,0.41,0.07c0.07,0.43,0.14,0.87,0.2,1.3c-0.41,0.37-0.83,0.74-1.24,1.1    c-0.04,0.04-0.09,0.08-0.13,0.12c0.27,0.24,0.18,0.4,0.23,0.73c0.02,0.08,0.03,0.16,0.05,0.24c0.22-0.24,0.65-0.22,0.97-0.28    c0.65-0.37,1.3-0.74,1.95-1.11c0.32-0.28,0.65-0.56,0.97-0.83c0.84-0.21,1.69-0.41,2.53-0.62c2.02-0.1,4.05-0.19,6.07-0.29    c1.05-0.14,1-1.32,1.21-2.1c0.02-0.06,1.89-0.88,2.24-1.02c0.39-0.15,0.65-0.14,0.46-0.55c1.11-0.14,2.22-0.28,3.34-0.42    c1.11,0.51,2.22,1.02,3.34,1.53c0.15,0.29,0.31,0.47,0.19,0.79c0.51,0.98,0.82,1.9,1.73,2.61c0.42,0.31,0.66,0.05,1.14,0.07    c0.6,0.05,1.21,0.09,1.81,0.14c0.1,0.27,0.25,0.25,0.52,0.35c0.47,0.18,1.57,2.74,1.57,3.27c0.48,0.53,0.97,0.59,1.59,0.97    c0.33,0.2,0.64,0.3,0.64,0.7c0.47,0.13,0.94,0.25,1.4,0.38c0.62,0.1,1.25-0.66,1.79-0.93c0.29,0.15,0.8-0.04,1.19-0.13    c0.02-0.19,0.04-0.38,0.06-0.57c0.44-0.04,1.48-1.42,1.81-1.8c0.51-0.54,2.33,0.17,2.92,0.41c0.63-0.29,1.27-0.58,1.9-0.87    c0.29-0.27,0.59-0.53,0.88-0.79c2.21-1.4,4.85-2.36,6.4-4.59c0.93-0.14,1.85-0.28,2.78-0.42c0.34,0.34,1.2,0.29,1.67,0.28    c1.42-0.02,2.94,0.56,4.31,0.28c0.52,0,0.86-1.17,1-1.58c0.1-0.64,0.2-1.27,0.3-1.91c-0.02-0.32-0.03-0.64-0.05-0.96    c0.26-0.98,1.13-1.74,1.25-2.78c0.11-0.95-0.4-1.63-1.11-2.09c-0.33-2-0.61-4.71-2.5-5.84c0.26-0.31,0.01-1.1,0-1.53    c0.23-0.7,0.46-1.39,0.7-2.09c0.28-0.32,0.56-0.65,0.83-0.97c0.6-0.32,1.21-0.65,1.81-0.97c0.5-0.7,1.01-1.41,1.51-2.11    c0.63-0.8,0.42-1.78,0.16-2.75c-0.32-0.23-0.65-0.46-0.97-0.69c0-0.71,0.01-1.54,0.56-2.09c-0.37-0.6-0.74-1.21-1.11-1.81    c-0.19-0.46-0.37-0.93-0.56-1.39c-0.09-1.11-0.19-2.23-0.28-3.34c-0.14-0.37-0.28-0.74-0.42-1.11c-0.97-1.45-0.49-3.53,0.37-4.94    c0.16-0.26,0.21-0.52,0.53-0.42c1.15-0.89,1.72-0.94,3.14-0.9c0.09-0.35,0.39-0.37,0.72-0.51c0.63-0.26,1.15-1.64,1.65-2.13    c-0.25-0.35-0.05-1.2,0.06-1.61c0.23-0.89,0.82-1.66,1.33-2.42c1.21-1.11,2.41-2.23,3.62-3.34c-0.13-0.21,0.25-1.56,0.33-1.93    c0.33-1.77,0.66-3.55,0.99-5.32c0.04-1.08-0.14-1.84-0.35-2.89c0.24-0.44-0.04-1.19-0.14-1.67c0.39-0.68-0.24-3.22-0.58-3.95    c-0.73-1.05-1.47-2.09-2.2-3.14c-0.15-0.13-0.3-0.27-0.45-0.4c-0.25-0.38-0.66,0.69-0.8,0.95c-0.67,1.3-1.31,2.63-2.38,3.68    c-1.05,1.03-2.76,0.53-4.02,0.78c-0.65,0.19-1.3,0.37-1.95,0.56c-0.52-0.12-1.05-0.25-1.57-0.37c-0.18-0.12-0.37-0.24-0.55-0.37    c-1.2,0.02-2.4,0.04-3.61,0.06c-1.12-0.14-2.24-0.29-3.36-0.43c-0.49-0.19-0.99-0.38-1.48-0.56c-1.44-0.36-2.88-0.72-4.31-1.09    c-1.16-0.01-2.31-0.02-3.47-0.03c-0.66,0.08-1.32,0.16-1.98,0.24c-0.5,0.1-1,0.21-1.5,0.31c-0.96-0.32-1.91-0.65-2.87-0.97    c-0.48-0.35-0.95-0.7-1.43-1.05c-0.38-0.25-0.75-0.51-1.13-0.76c-0.73-0.72-1.47-1.43-2.2-2.15c-0.64-0.74-2.7-1.67-3.64-2.16    c-0.42-0.23-0.83-0.47-1.25-0.7c-0.93-0.51-1.85-1.02-2.78-1.53c-0.51-0.19-1.02-0.37-1.53-0.56c-0.63,0.32-1.76-0.18-2.48-0.15    c-0.29,0.1-0.57,0.19-0.86,0.29c-0.88-0.05-1.76-0.09-2.64-0.14c-1.58-0.16-3.03-0.65-4.45-1.39c-0.93-0.83-1.85-1.67-2.78-2.5    c-0.7-1.02-1.39-2.04-2.09-3.06c-0.89-1.06-2.06-1.85-3.2-2.64c-0.35,0.31-1.32-0.03-1.8-0.09c-1.16-0.14-1.9-0.04-2.91,0.55    c-0.38,0.36-0.76,0.71-1.13,1.07c-0.7,0.46-1.39,0.93-2.09,1.39c-1.81,1.07-3.62,2.13-5.42,3.2c-1.02,0.14-2.04,0.28-3.06,0.42    c-1.21,0.12-2.58-0.15-3.75-0.42c-1.76-0.88-3.52-1.76-5.28-2.64c0-0.27-1.76-1.26-2.09-1.53c-2.25-1.89-4.63-3.26-7.51-3.75    c-1.25,0-2.5,0-3.75,0c-0.66-0.02-3.08-0.16-3.48-0.56c-1.02,0-2.1-0.19-3.14-0.5c-1.18-0.3-2.36-0.6-3.54-0.9    c-0.97-0.05-1.95-0.09-2.92-0.14c-0.6-0.23-1.21-0.46-1.81-0.7c-0.52-0.36-1.04-0.73-1.56-1.09c-0.45-0.19-0.91-0.38-1.36-0.57    c-0.83-0.51-1.67-1.02-2.5-1.53c-0.3,0.15-0.68-0.13-0.98-0.28c-0.83-0.51-1.67-1.02-2.5-1.53c-2.16,0-4.15-0.01-6.26,0.56    c-0.15,0.52-1.38,0.92-1.86,1.2c-0.73,0.44-1.37,0.52-2.18,0.74c-1.89,0.53-3.71,0.96-5.7,0.83c-1.96-0.12-3.55-1.29-5.42-1.67    c-1.71-0.34-3.42-0.76-5.01-1.53c-0.28-0.51-1.91-1.75-2.5-1.95c-0.93-0.19-1.85-0.37-2.78-0.56c-0.27-0.27-0.87-0.25-1.25-0.32    c-0.97-0.13-1.95-0.25-2.92-0.37c-2.3-0.39-5.14-0.84-7.25-1.86c-1.65-0.8-2.82-2.24-4.29-3.29c0.03-0.29-1.22-2.01-1.49-2.37    c-0.82-0.84-1.63-1.68-2.45-2.52c-0.89-0.92-1.63-1.9-2.59-2.77c-0.4-0.34-1.45-0.16-1.92-0.11c-0.15,0.03-0.29,0.06-0.43,0.08    L283.34,79.67z"/>
            <circle cx="388.18" cy="156.28" r="1.586"/>
        </g>
        <g id="__Eleşkirt">
            <path d="M141.13,122.84    c0.23-1.25,0.43-2.29,0.66-3.55c0.32-0.42,0.65-0.83,0.97-1.25c0.5-1,0.99-2,1.49-3c0.43-0.84,1.66-1.96,2.4-2.56    c0.93-0.79,1.85-1.58,2.78-2.36c0.42,0.08,0.85-0.26,1.23-0.46c1.07-0.58,1.86-0.75,2.77-1.55c0.05-0.32,0.13-1,0.17-1.32    c-0.14-0.45-0.49-0.87-1.53-0.97c-2.5-0.17-1.39,0.02-2.95,0c-0.57-0.09-2.53-0.29-3.09-0.38c-0.66-0.38-0.94-0.24-0.87-0.52    c0.04-0.24,0-0.9,0.11-1.19c-0.02-0.51,0.96-1.48,1.3-1.88c0.67-0.78,1.69-1.63,2.72-2.01c1.54-0.57,2.25-0.56,3.48-1.8    c0.18-0.19,0.37-0.37,0.55-0.56c0.88-1.59,2.38-4.1,2.09-6.12c-0.19-1.27-0.43-2.71-0.04-3.95c0.38-0.58,0.77-1.16,1.15-1.75    c0.42-0.74,0.83-1.48,1.25-2.22c-0.08-0.39,0.46-0.92,0.7-1.25c0.14-0.37,0.28-0.74,0.42-1.11c0.14-0.79,0.29-1.59,0.43-2.39    c0.37-2.53-1.64-4.1-2.58-6.27c-1-2.31-1.94-4.53-3.42-6.64c-0.28-0.83-0.56-1.67-0.83-2.5c-0.74-1.25-1.48-2.5-2.23-3.75    c-0.9-1.54-1.79-3.08-2.69-4.61c-0.56-2-1.25-3.96-1.54-6c-0.3-2.15,1.25-4.04,0.45-6.14c-0.07-0.46-0.09-0.42-0.28-0.93    c0,0-6.63,1.46-9.43,2.25c-3.06,0.55-6.12,1.11-9.18,1.66c-5.04,1.24-9.8,3.24-14.6,5.15c-3.38,0.74-6.77,1.48-10.15,2.22    c-3.47,0.74-6.95,1.49-10.42,2.23c-1.86,0.32-3.71,0.65-5.57,0.97c-0.6-0.05-1.21-0.09-1.81-0.14c-1.07,0.05-2.13,0.09-3.2,0.14    c-2.5,0.46-5.01,0.93-7.51,1.39c-1.01,0.36-1.87,0.86-2.93,1.05c-4.63,0.82-9.84,1.69-13.02,5.53c-0.46,0.14-0.58,0.45-0.88,0.79    c-0.83,0.79-1.67,1.58-2.5,2.36c-0.84,0.63-1.68,1.24-2.64,1.67c-0.3,0.13-0.71,0.09-0.83,0.42c-1.48,0.14-3.87,0.27-4.45,1.81    c-0.93,0.14-1.85,0.28-2.78,0.42c-1.15,0.49-2.11,1.05-3.2,1.65c-0.51,0.27-1.03,0.55-1.54,0.83c-0.7,0.43-1.4,0.85-2.1,1.28    c-0.25,0.08-0.5,0.17-0.74,0.25c-0.39,0.25-1.14,0.7-1.59,0.58c-0.57,0.57-1.09,1.27-1.84,1.6c-1.19,0.53-2.39,1.07-3.58,1.6    c-0.46,0.37-0.93,0.74-1.39,1.11c-0.21,0.45-0.42,0.9-0.63,1.35c-0.3,0.48-0.6,0.95-0.9,1.43c-0.17,2.78,1.75,5.23,3.34,7.51    c0.46,0.51,0.93,1.02,1.39,1.53c0.69,0.6,1.39,1.2,2.09,1.8c2.36,2.27,4.73,4.54,7.09,6.82c0.51,0.42,1.02,0.83,1.53,1.25    c0.74,0.69,1.49,1.38,2.23,2.06c0.57,0.47,1.14,0.93,1.71,1.4c0.26,0.42,0.76,0.82,1.04,0.92c0.56,0.46,0.47,1.29,0.83,0.93    c0.56,0.74,1.14,0.9,1.69,1.65c2.14,1.84,4.28,3.67,6.42,5.51c2.46,1.68,4.52,4.07,6.64,6.17c0.48,0.47,1.71,1.65,2.05,1.94    c0.12,0.1,0.24,0.21,0.35,0.3c0.08-0.07,0.37-0.31,0.52-0.5c0.19-0.45,0.39-0.91,0.58-1.36c0.18-0.24,0.54-0.36,0.54-0.65    c1.58-0.49,3.09-0.81,4.73-0.97c1.53-0.22,3.06-0.44,4.59-0.67c2.5-0.01,5-0.03,7.5-0.04c2.32,0,4.64,0.01,6.96,0.01    c2.64,0.23,5.28,0.46,7.93,0.7c4.77,0.03,9.55,0.06,14.32,0.09c1.84,0.26,3.69,0.52,5.53,0.77c2.32,0,4.64,0.01,6.97,0.01    c1.64-0.2,3.4,0.02,5.03,0.2c0.9,0.1,3.36,0.14,3.89,0.74c1.71,0.11,3.23,0.51,4.88,0.92c0.71,0.19,1.22,0.33,1.93,0.52    L141.13,122.84z"/>
            <circle cx="108.42" cy="91.48" r="1.586"/>
        </g>
        <g id="__Ağrı">
            <path d="M221.05,152.25    c-2.15-1.11-4.08-2.4-5.95-3.88c-3.18-1.94-6.36-3.88-9.53-5.83c-1.1-0.66-2.19-1.32-3.29-1.98c-0.43-0.49-0.86-0.98-1.29-1.47    c-0.37-0.31-0.74-0.61-1.11-0.92c-1.55-1.12-3.1-2.25-4.65-3.37c-0.71-0.63-1.42-1.26-2.13-1.89c-1.08-0.91-2.48-1.45-3.75-2.04    c-0.37-0.2-0.75-0.4-1.12-0.6c-1.16-0.33-2.27-0.76-3.48-1.03c-0.8-0.09-1.59-0.17-2.39-0.26c-0.55,0.06-1.09,0.11-1.64,0.17    c-0.94-0.09-1.88-0.19-2.82-0.28c-1.8-0.03-3.59,0.03-5.3-0.02c-0.58,0.06-1.17,0.12-1.75,0.17c-1.67-0.19-3.34-0.38-5.01-0.56    c-2.31,0.1-5.07-0.27-7.37-0.63c-2.14-0.48-4.28-0.96-6.42-1.43c-0.55-0.19-1.1-0.39-1.65-0.58c-1.25-0.23-3.81-0.76-3.81-0.76    c-1.18-0.68-2.53-1.06-3.82-1.54c-0.61-0.23-0.96-0.33-1.57-0.56l-0.09-0.12c0.23-1.25,0.44-2.31,0.67-3.56    c0.32-0.42,0.65-0.83,0.97-1.25c0.5-1,0.99-2,1.49-3c0.43-0.84,1.66-1.96,2.4-2.56c0.93-0.79,1.85-1.58,2.78-2.36    c0.42,0.08,0.85-0.26,1.23-0.46c1.07-0.58,1.86-0.75,2.77-1.55c0.05-0.32,0.13-1,0.17-1.32c-0.14-0.45-0.49-0.87-1.53-0.97    c-2.5-0.17-1.39,0.02-2.95,0c-0.57-0.09-2.53-0.29-3.09-0.38c-0.66-0.38-0.94-0.24-0.87-0.52c0.04-0.24,0-0.9,0.11-1.19    c-0.02-0.51,0.96-1.48,1.3-1.88c0.67-0.78,1.69-1.63,2.72-2.01c1.54-0.57,2.25-0.56,3.48-1.8c0.18-0.19,0.37-0.37,0.55-0.56    c0.88-1.59,2.38-4.1,2.09-6.12c-0.19-1.27-0.43-2.71-0.04-3.95c0.38-0.58,0.77-1.16,1.15-1.75c0.42-0.74,0.83-1.48,1.25-2.22    c-0.08-0.39,0.46-0.92,0.7-1.25c0.14-0.37,0.28-0.74,0.42-1.11c0.14-0.79,0.29-1.59,0.43-2.39c0.37-2.53-1.64-4.1-2.58-6.27    c-1-2.31-1.94-4.53-3.42-6.64c-0.28-0.83-0.56-1.67-0.83-2.5c-0.74-1.25-1.48-2.5-2.23-3.75c-0.9-1.54-1.79-3.08-2.69-4.61    c-0.56-2-1.25-3.96-1.54-6c-0.3-2.15,1.25-4.04,0.45-6.14c-0.1-0.35-0.22-0.72-0.28-0.93c0.93-0.13,1.46-0.24,2.39-0.37    c2.5-0.24,5.01-0.48,7.51-0.72c3.34,0.21,6.68,0.43,10.02,0.64c1.29,0.11,2.59,0.22,3.88,0.33c0.31-0.22,1.24-0.34,1.59-0.2    c1.37-0.09,2.74-0.19,4.12-0.28c1.95,0.11,3.89,0.22,5.84,0.33c0.14,0,0.28,0.01,0.42,0.01c0.05-0.09,0.53-0.12,0.58-0.21    c0.74,0.14,1.04,0.21,1.78,0.35c0.88,0,1.76,0.01,2.64,0.01c1.07,0.09,2.13,0.18,3.2,0.26c0.46-0.19,0.93-0.37,1.39-0.56    c0.37-0.37,3.1-0.65,3.75-0.69c2.36-0.15,4.82-0.32,7.09,0.42c1.02-0.09,2.05-0.19,3.07-0.28c2.72-0.28,5.42-0.39,8.13-0.86    c3.27-0.53,6.54-1.05,9.8-1.58c2.13-0.02,4.26-0.04,6.39-0.06c1.44-0.08,2.89-0.17,4.33-0.25c1.15-0.01,2.31-0.02,3.46-0.03    c0.7,0.19,1.4,0.37,2.09,0.56c0.56,0.14,1.12,0.29,1.67,0.43c1.39,0.27,2.77,0.55,4.16,0.82c0.56,0.32,1.11,0.65,1.67,0.97    c0.51,0.51,1.03,1.01,1.54,1.52c0.09,0.1,0.18,0.19,0.27,0.29c-0.31,0.29-0.07,0.7-0.04,1.12c-0.07,0.74-0.15,1.48-0.22,2.22    c-0.52,1.07-1.03,2.13-1.55,3.2c-0.85,1.94-1.13,4.31-1.13,6.41c0,2.35,1.69,5.34,2.94,7.25c0.76,1.38,1.51,2.75,2.27,4.13    c0.63,1.11,1.27,2.23,1.9,3.35c0.74,2.38,0.46,4.52-0.02,6.94c-0.04,0.19-0.08,0.38-0.12,0.56c0.46,0.56-0.02,1.14,0.44,1.69    c0.05,0.37,0.81,1.55,0.67,1.78c0.33,0.97,0.67,1.94,1,2.91c1.08,2.9,0.97,5.7,2.52,8.46c0.03,0.05,0.18,0.34,0.21,0.4l0.02,0.05    c-0.09,0.07-0.92,1.06-1.01,1.14c-0.76,0.94-0.86,0.98-1.49,1.77c-1.29,1.56-2.72,3.13-4.01,4.69c-0.58,0.1-1.06,0.88-1.41,1.34    c-0.44,0.16-0.6,0.53-0.91,0.87c-0.77,0.95-1.53,1.9-2.3,2.85c-0.28,0.28-0.56,0.56-0.83,0.83c-0.28,0.51-0.56,1.02-0.83,1.53    c-0.51,0.51-1.01,1.01-1.52,1.52c-0.4,0.44-0.79,1.19-1.4,1.26c-0.37,0.46-0.74,0.93-1.11,1.39c-0.25,1.23-0.34,1.98-0.28,3.2    c-0.14,0.51-0.28,1.02-0.42,1.53c-0.05,0.51-0.09,1.02-0.14,1.53c-0.19,0.74-0.37,1.48-0.56,2.22c-1.11,1.72-1.97,3.52-3.23,5.07    c-0.41,0.54-0.81,1.07-1.22,1.61c-0.79,1.76-1.58,3.52-2.36,5.28c-0.81,1.45-1.75,2.79-2.45,4.33c-1.04,2.31-2.29,4.78-2.47,7.37    c-0.15,2.24,0.18,4.65-0.54,6.77c-0.18,0.52-0.07,1.24-0.46,1.63c-0.33,0.33-0.84,0.93-1.31,0.87c-0.68-0.13-1.36-0.27-2.05-0.4    c-0.55-0.23-1.1-0.45-1.66-0.68L221.05,152.25z"/>
            <circle cx="177.46" cy="114.22" r="1.586"/>
        </g>
    </g>
</svg>