<?xml version="1.0" encoding="UTF-8"?>
<!DOCTYPE svg PUBLIC "-//W3C//DTD SVG 1.1//EN" "http://www.w3.org/Graphics/SVG/1.1/DTD/svg11.dtd">
<svg version="1.1" id="HaritaCizim" xmlns="http://www.w3.org/2000/svg" xmlns:xlink="http://www.w3.org/1999/xlink" x="0px" y="0px" viewBox="0 0 600 513" preserveAspectRatio="none">
    <defs id="__def">
        <radialGradient id="f">
            <stop offset="0" stop-color="white" stop-opacity="1"/>
            <stop id="STOP1" offset=".4" stop-opacity="1"/>
            <stop offset="1" stop-color="white" stop-opacity=".2"/>
        </radialGradient>
        <filter id="__flt1" x="0" y="0" width="200%" height="200%" filterUnits="objectBoundingBox">
            <feGaussianBlur in="SourceAlpha" stdDeviation="3" result="blur1"/>
            <feSpecularLighting result="specOut" in="blur1" specularConstant="1.5" specularExponent="20" lighting-color="#bbbbbb">
                <feDistantLight azimuth="45" elevation="30"/>
            </feSpecularLighting>
            <feComposite in="specOut" in2="SourceAlpha" operator="in" result="specOut"/>
            <feComposite in="SourceGraphic" in2="specOut" operator="arithmetic" k1="0" k2="1" k3="1" k4="0"/>
        </filter>
        <filter id="__flt2" x="0" y="0" width="200%" height="200%" filterUnits="objectBoundingBox">
            <feGaussianBlur in="SourceAlpha" stdDeviation="3" result="blur1"/>
            <feSpecularLighting result="specOut" in="blur1" specularExponent="20" lighting-color="#bbbbbb">
                <fePointLight x="-2000" y="100" z="2000"/>
            </feSpecularLighting>
            <feComposite in="specOut" in2="SourceAlpha" operator="in" result="specOut"/>
            <feComposite in="SourceGraphic" in2="specOut" operator="arithmetic" k1="0" k2="1" k3="1" k4="0"/>
        </filter>
        <filter id="__flt3" x0="-50%" y0="-50%" width="200%" height="200%" filterUnits="objectBoundingBox">
            <feGaussianBlur in="SourceAlpha" stdDeviation="3" result="blur"/>
            <feOffset in="blur" dx="0" dy="0" result="offsetBlur"/>
            <feSpecularLighting in="blur" surfaceScale="4" specularConstant=".5" specularExponent="20" lighting-color="flavor" result="specOut">
                <fePointLight x="-5000" y="-10000" z="5000"/>
            </feSpecularLighting>
            <feComposite in="specOut" in2="SourceAlpha" operator="in" result="specOut"/>
            <feComposite in="SourceGraphic" in2="specOut" operator="arithmetic" k1="0" k2="1" k3="1" k4="0" result="litPaint"/>
            <feMerge>
                <feMergeNode in="offsetBlur"/>
                <feMergeNode in="litPaint"/>
            </feMerge>
        </filter>
        <filter id="__flt4" x0="-50%" y0="-50%" width="200%" height="200%">
            <feGaussianBlur in="SourceAlpha" stdDeviation="2" result="blur"/>
            <feOffset dy="-1" dx="-1"/>
            <feComposite in2="SourceAlpha" operator="arithmetic" k2="-1" k3="1" result="hlDiff"/>
            <feFlood flood-color="white" flood-opacity=".7"/>
            <feComposite in2="hlDiff" operator="in"/>
            <feComposite in2="SourceGraphic" operator="over" result="withGlow"/>
            <feOffset in="blur" dy="3" dx="3"/>
            <feComposite in2="SourceAlpha" operator="arithmetic" k2="-1" k3="1" result="shadowDiff"/>
            <feFlood flood-color="black" flood-opacity="1"/>
            <feComposite in2="shadowDiff" operator="in"/>
            <feComposite in2="withGlow" operator="over"/>
        </filter>
        <filter id="__golge1" x="0" y="0" width="200%" height="200%" filterUnits="userSpaceOnUse">
            <feOffset result="offOut" in="SourceAlpha" dx="8" dy="8"/>
            <feGaussianBlur result="blurOut" in="offOut" stdDeviation="3"/>
            <feBlend in="SourceGraphic" in2="blurOut" mode="normal"/>
        </filter>
    </defs>
    <g id="__Komsular" display="none">
        <path display="inline" fill-rule="evenodd" clip-rule="evenodd" fill="none" stroke="#000000" stroke-width="0.25" stroke-miterlimit="10" d="   M477.28,273.51c2.36,3.39,2.58,6.84,6.44,8.86c2.64,1.38,8.56,2.25,11.51,1.65c7.46-1.53,11.91-6.99,16.92-11.87   c4.91-4.79,11.67-11.16,19.9-8.19c5.4,1.95,9.53,9.07,14.83,12.22c0.94,0.56,2.11,0.85,3.12,1.48"/>
        <path display="inline" fill-rule="evenodd" clip-rule="evenodd" fill="none" stroke="#000000" stroke-width="0.25" stroke-miterlimit="10" d="   M170.3,442.42c-0.79-0.19-1.91-0.01-2.69,0.07c-0.56,2.4,1.79,4.65,1.34,6.4c-0.45,1.77-3.12,2.66-4.07,4.12   c-2.47,3.8-1.22,7.45-5.17,10.58"/>
        <linearGradient id="SVGID_1_" gradientUnits="userSpaceOnUse" x1="193.3486" y1="24.5249" x2="463.4482" y2="412.1458">
            <stop offset="0" style="stop-color:#FFFFFF"/>
            <stop offset="0.4997" style="stop-color:#929CCE"/>
            <stop offset="1" style="stop-color:#3D60AC"/>
        </linearGradient>
        <path display="inline" fill-rule="evenodd" clip-rule="evenodd" fill="url(#SVGID_1_)" d="M50,268.53   c5.34,0.59,10.08-3.49,14.9-4.69c2.76-0.69,12.69-1.14,13.81-3.22l0.61-0.29c4.48-1.97,9.04-2.79,13.68-4.36   c1.64-0.63,3.27-1.27,4.91-1.9c0.76-0.9,2.69-2.31,2.76-3.45c1.01-0.52,1.68-0.29,2.56-0.97c0.73-0.57,1.76-2.11,2.62-2.14   c1.04-2.19,2.07-4.37,3.11-6.56c1.67-0.77,3.56-1.34,4.83-2.76c1.27-1.5,2.53-2.99,3.8-4.49c1.17-2.68,1.59-2.69,0.35-5.18   c0.11-1.1,0.49-0.86-1.04-1.38c0.48-0.32,0.96-0.65,1.44-0.97c2.26-1.55,5.42-1.91,5.88-5.21c1.71-0.04,2.19-0.48,0.97-1.76   c1.07-0.31,2.56-1.02,3.45-0.35c3.94-2.69,8.08-4.86,11.09-8.79c1.63-0.46,1.35-2.88,2.72-3.64c-0.04-0.76-0.08-1.52-0.12-2.29   c-0.17-0.76-0.28-0.55,0.46-1.17c-1.93-2.12-1.85-1.83-1.6-4.48c0.05-0.56-0.05-1.66,0.53-1.83c3.16-0.95,5.66-4.21,8.95-4.6   c0.61-0.03,1.22-0.06,1.83-0.1c0.3-0.34,1.67-1.26,1.67-0.04c0,0.32,0.21,0.41,0.3,0.11c0.3-1.1,0.93-2.55,0.39-3.56   c3.17-3.13,6.34-6.26,9.5-9.4c1.76-1.32,4.17-2.49,5.34-4.41c1.35,0,4.85-1.76,6.21-2.42c2.45-1.18,5.65-0.59,8.29-0.55   c2.02,0.03,4.04,0.05,6.06,0.08c0.58-0.67,0.26-0.67,0.88-0.37l0.45,0.33c0.62,0.81,0.83,1.89,1.91,1.89   c1.38-1.15,3.09-1.51,4.83-1.73c0.32-0.19,0.65-0.38,0.97-0.57c1.07-0.31-0.3-3.75-0.63-4.61c0-1.03,1.29-1.13,2.07-1.38   c0.58-0.58,1.15-1.15,1.73-1.73c0-0.58,1.18-0.35,1.73-0.35c1.33,1.33,2.8,0.9,4.49,0.69c0.46-0.35,0.92-0.69,1.38-1.04   c0.61-0.61,0.31-3.04,0.9-4.21c1.63-2.86,9.44-3.82,10.49-4.18c0.3-0.08-2.41-1.35-2.41-1.97c1.21-1.94,2.31-0.44,3.11,1.04   c1.38,0.46,2.76,0.92,4.14,1.38c-0.82-0.82-2.76-0.34-3.45,0.35c0.12,0.35,0.23,0.69,0.35,1.04c1.38,0,2.76,0,4.14,0   c0.27,0.43,0.55,0.86,0.82,1.29c1.47,3.24,3.53,3.69,7.14,4.19c0.92-1.13,1.85-2.26,2.77-3.39c0.68-2.19,1.36-4.39,2.04-6.58   c1.27-1.96,2.53-3.91,3.8-5.87c1.33-1.37,3.68-3.32,5.61-3.54c2.04-1.93,4.08-3.85,6.13-5.78c3.32,0.88,8.87-0.24,11.39-2.76   c2.92-0.82,5.18-0.25,5.18-4.14c0.35-0.46,0.69-0.92,1.04-1.38c1.27-0.63,5.6-3.26,5.87-4.49c0.23-1.03,0.34-1.17-0.35-2.07   c0-1.15,0-2.3,0-3.45c0,0.46,0,0.92,0,1.38c0.23-0.23,0.46-0.46,0.69-0.69c0.46,0.69,0.92,1.38,1.38,2.07   c-0.22-2.15,0.74-1.73,2.07-1.73c1.14-0.72,1.04-1.11,1.04-2.42c0.93-0.93,2.21-1.04,3.8-1.04c0.46-0.23,0.92-0.46,1.38-0.69   c0.84-0.11,1.78,0.29,2.42-0.35c0.76,0,2.42,0.37,2.42-0.69c1.53-0.04,2.67,0.09,3.8-1.04c2.33,0,1.71,2.42,2.76,2.42   c0.24,0,0.47,0,0.71,0c1.45,0,1.17-2.39,2.44-2.43c3.56-0.16,7.12-0.32,10.68-0.47c0.84-0.31,3.59-2.12,2.74-2.97l-0.8,1.66   l1.83-0.63c0.12-0.81,0.23-1.61,0.35-2.42c-0.23-0.58-0.46-1.15-0.69-1.73c0.46-1.5,0.92-2.99,1.38-4.49   c3.22-0.69,6.44-1.38,9.67-2.07c2.99-0.35,5.98-0.7,8.98-1.06c0.93,0,1.12,0.51,1.63,1.21c0.83,1.02,1.31-0.75,1.82-1.53   c3-0.16,5.89-0.13,8.63,0.69c2.26-1.46,5.09,0.35,7.59,0.35c0.65,0.44,1.31,0.88,1.96,1.32c1.07,0.58,0.94,0.01,1.49-0.97   c1.43,0,2.58,0.21,3.58-0.95c0.37-0.85,1.15,0.16,1.6,0.6c0.87,0.45,1.46-0.09,2.38-0.42c1.18-0.46,1.15-1.21,1.41-2.34   c0.93-0.17,1.4-1.06,2.07-1.73c0.9,0.32,3.48-0.37,4.14-1.04c1.38-0.12,2.76-0.23,4.14-0.35c0.55,0.67,1.57,0.69,2.42,0.69   c3.87-1.33,3.06-4.21,5.18-6.9c1.24,0,4.29,0.4,4.68,1.76c0.39,1.67,3.97-2.16,4.79-2.89c1.33,0.26,2.66,0.52,3.99,0.79   c1.3-1.13,3.19-0.03,4.49,0.69l1.06-0.01c5.25,0,6.36-0.4,9.68-4.16c3.62-4.1,5.21-2.55,10.11-1.83c1.8,0.27,3.72-0.27,5.52,0   c2.22,0.34,3.27,1.41,5.42,1.28c3.39-0.21,6.14-3.53,9.31-4.04c4.18-0.66,6.71,1.63,10.59,1.84c4.85,0.27,4.64-2.29,8.16-4.22   c5.75-3.15,14.99-3.19,21.3-4.99c10.09-2.87,18.75-9.79,28.92-12.04c2.11-2.89,9.27-5.1,8.61-9.87H50V268.53z"/>
        <text transform="matrix(0.3244 0.9459 -0.9459 0.3244 492.8975 107.665)" display="inline" font-family="'MyriadPro-Regular'" font-size="20.7111">KASTAMONU</text>
        <text transform="matrix(0.5586 -0.8294 0.8294 0.5586 398.9629 455.0107)" display="inline" font-family="'MyriadPro-Regular'" font-size="20.7111">KARABÜK</text>
        <text transform="matrix(0.5353 0.8446 -0.8446 0.5353 59.4463 334.4463)" display="inline" font-family="'MyriadPro-Regular'" font-size="20.7111">ZONGULDAK</text>
    </g>
    <g id="__Harita" display="none">
        <rect id="__cer" x="0" y="0" fill="#000000" opacity="0" width="600" height="513"/>
        <g id="__Ulus">
            <path d="    M293.7,408.99c5.08-1.19,9.36,2.84,13.12,5.52c2.88,2.07,5.75,4.14,8.63,6.21c1.73,0.69,3.45,1.38,5.18,2.07    c4.03,1,8.07,1.99,12.1,2.99c1.68,0.35,4.62,0.62,5.85,1.84c2.87,0.77,4.76,2.59,7.25,4.14c1.02,0.63,2.58,0.65,3.11,1.73    c1.27-0.23,2.53-0.46,3.8-0.69c1.23-0.28,2.16-1.09,2.98-2c1.98-0.18,6.01-3.44,7.38-4.91c1.03-0.87,2.06-1.75,3.08-2.62    c2.52-2.83,4.68-5.95,6.58-9.11c0.81-2.07,1.61-4.14,2.42-6.21c0.35-2.76,0.69-5.52,1.04-8.28c0.11-3.45,0.23-6.9,0.35-10.36    c-0.12-1.15-0.23-2.3-0.35-3.45c-1.61-3.92-1.91-8.38-4.49-12.08c-1.15-1.27-2.3-2.53-3.45-3.8c-0.69-0.46-1.38-0.92-2.07-1.38    c-0.92-1.38-1.84-2.76-2.76-4.14c-0.58-1.84-1.15-3.68-1.73-5.52c-0.42-1.44-0.84-2.88-1.26-4.33c-0.75-2.26-1.5-4.52-2.24-6.79    c-0.67-1.47-1.34-2.95-2.02-4.42c-0.71-1.99-4.51-4.73-4.83-6.21c-0.87-0.08-2.31,0.19-2.69-0.5c-0.06-1.09-0.12-2.19-0.17-3.28    c0.95-1.62,1.91-3.24,2.86-4.85c3.4-2.48,6.94-3.95,11.05-5.18c1.15-0.35,2.3-0.69,3.45-1.04c3.34-2.19,6.67-4.37,10.01-6.56    c1.42-1.1,4.16-1.1,5.18-2.42c1.27,0.16,4.94,1.33,5.87,0.69c2.91,2.59,5.82,5.19,8.73,7.78c1.46,0.65,2.93,1.3,4.39,1.95    c1.11,0.19,2.81,0.08,3.45,0.97c2.87-0.28,5.56-0.57,8.28-1.04c1.15-0.58,2.3-1.15,3.45-1.73c3.52-1.63,6.91-3.07,10.67-4.16    c0.82-0.34,1.63-0.68,2.45-1.01c0.95-0.88,1.89-1.75,2.84-2.63c0.44-0.62,0.87-1.24,1.31-1.86c-0.21-1.68,0.66-1.37-0.44-2.68    c-1.98-2.19-6.17-4.48-9.22-4.23c-0.93-1.06-1.67-1.89-2.42-3.11c-0.62-1-2.16-2.32-1.94-3.43c0.19-0.58,0.37-1.17,0.56-1.75    c2.64-2.06,6.41-4.14,10.01-4.14c0.92-0.46,1.84-0.92,2.76-1.38c1.59-0.61,2.72-2.49,3.96-3.5c1.3-1.06,6.34-5.41,6.74-6.86    c1.27-0.92,2.53-1.84,3.8-2.76c4.37-0.35,8.75-0.69,13.12-1.04c5.03-3.2,10.74-5.18,16.91-5.18c0-1.82-2.88-5.18-4.83-5.18    c-0.58-0.46-1.15-0.92-1.73-1.38c-0.46-0.69-0.92-1.38-1.38-2.07c-1.52-2.17-0.82-4.88-0.35-7.25c0.23-0.81,0.46-1.61,0.69-2.42    c2.53-4.27,7.18-7.21,10.08-11.26c1.36-2.46,2.72-4.92,4.08-7.38c0.29-3.09,0.38-6.26-0.05-9.32c-0.21-1.15-0.42-2.3-0.64-3.45    c0-2.07,0-4.14,0-6.21c0.97-3.24,1.94-6.47,2.91-9.71c0.68-3,1.03-5.97,1.74-8.93c0.28-1.16,0.64-3.06,1.56-3.8    c0.23-0.92,0.46-1.84,0.69-2.76c0.35-2.19,0.69-4.37,1.04-6.56c0.81-2.62,1.54-4.57,3.11-6.9c0.46-1.04,0.92-2.07,1.38-3.11    c0.23-1.04,0.46-2.07,0.69-3.11c-0.35-5.79-1.53-8.1-4.76-12.81c-1.19-1.74-2.95-4.16-4.91-5.13c-2.15-1.07-4.46-0.36-6.59,0.21    c-2.29,0.62-4.58,1.24-6.87,1.87c-1.77,1.42-4.01,3-6.17,3.72c-2.2,1.06-4.4,2.12-6.6,3.18c-9.01,2.91-16.04,1.47-24.51-2.76    c-1.95-0.92-3.9-1.84-5.85-2.76c-0.85-0.17-2.08-0.54-2.44-1.38c-0.96-0.06-1.16,0.21-1.73-0.69c-0.81,1.61-1.61,3.22-2.42,4.83    c-3.45,1.27-6.9,2.53-10.36,3.8c-1.15,0.95-2.26,2.07-3.8,2.07c-1.54,1.05-3.06,3.38-4.83,3.8c-1.53,3.24-2.34,5.72-1.73,9.32    c-0.98,1.4-1.97,2.8-2.96,4.21c-1.36,3.05-1.82,6.44-4.29,8.91c-1.7,1.7-3.79,2.4-5.87,3.45c-0.66,0.33-2.07,0.93-2.07,1.73    c-1.82,0.41-3.09,0.82-4.49,2.07c-1.87,0-6.07,2.59-7.59,3.8c-2.52,1.94-5.03,3.88-7.55,5.82c-0.93,0.05-1.76,0.54-2.11,1.42    c-0.69,0.35-1.38,0.69-2.07,1.04c-2.17,1.86-4.34,3.72-6.5,5.58c-0.82,0.72-2.09,1.58-2.13,2.71c-3.24,1.68-7.34,5.61-10.01,8.28    c-1.61,0.92-3.23,1.83-4.84,2.75c-1.26,0.69-2.52,1.39-3.79,2.08c-3.34,3.34-6.67,6.67-10.01,10.01    c-2.53,0.46-5.06,0.92-7.59,1.38c-2.19,0-4.37,0-6.56,0c-1.44-0.11-5.14-0.16-5.87-1.38c-4.56-0.88-9.15-1.38-13.81-1.38    c-0.62,0-0.93,0.11-1.38-0.35c-2.63,0-4.89,0.36-7.02,1.8c-2.15,2.05-4.29,4.09-6.44,6.14c-3.89,4.3-6.4,9.57-8.17,15.04    c-0.47,1.44-0.25,2.84-0.12,4.29c0.05,1.49,0.09,2.98,0.14,4.47c0.64,3,1.29,6,1.93,9c0.45,1.94-0.67,4.91,0.69,6.56    c-0.23,1.27-0.46,2.53-0.69,3.8c-0.24,3.01,0.75,6.59-2.34,8.07c-1.64,0.76-3.27,1.52-4.91,2.29c-1.72,1.67-3.1,3.34-5.3,4.34    c-0.65,0.63-1.3,1.25-1.95,1.88c-1.38,1.38-2.94,3.95-4.83,4.49c-1.22,2.35-2.55,4.54-4.42,6.53c-1.09,1.16-5.13,4.17-6.62,4.17    c-2.88,2.07-5.75,4.14-8.63,6.21c-0.94,2.07-1.88,4.14-2.82,6.2c-0.26,1.82-0.4,7.86-1.33,8.99c0,2.07,0,4.14,0,6.21    c0,1.38,0.24,2.07-0.05,3.46c-0.33,1.95-0.65,3.91-0.98,5.86c0.69,1.96,1.38,3.91,2.07,5.87c0.92,1.73,1.84,3.45,2.76,5.18    c0.46,1.15,0.92,2.3,1.38,3.45c0.58,0.46,1.15,0.92,1.73,1.38c1.43,1.38,2.49,2.96,4.14,4.14c1.38,0.81,2.76,1.61,4.14,2.42    c2.51,2.01,3.47,4.79,5.87,6.9c2.67,2.35,7.36,2.62,10.7,3.8c3.6,1.26,5.53,4.47,9.32,5.87c4.81,0.99,9.63,1.99,14.44,2.98    c2.77,0.66,7.31,1.12,8.68,3.93c1.02,0.51,2.42,0.8,2.42,2.07C293.93,408.76,293.82,408.88,293.7,408.99z"/>
            <circle cx="346.69" cy="267.98" r="1.586"/>
        </g>
        <g id="__Kurucaşile">
            <path d="    M317.98,110.98c1.11,0.86,0.57,3.89,0.57,5.3c-0.5,1.03-0.99,2.06-1.49,3.1c-0.65,1.15-1.31,2.31-1.96,3.46    c-0.32,2.5-0.23,4.5,0,6.9c0.2,2.07,2.01,4.42,3.45,5.87c1.03,0,3.05,2.54,3.26,3.48c0.29,1.44-0.7,3.18-1.21,4.6    c-0.68,1.56-1.37,3.13-2.05,4.69c0.98,0.98-1.14,3.49-1.73,4.49c1.11,1.22,0.73,6.15,0.69,7.94c-0.06,2.7,0.96,3.8,3.32,5.59    c0.97,1.89,2.67,1.32,4.62,1.32c0,0,0.02,0,0,0c0.17-0.02,3.28-1.46,5.44-2.56c2.62-1.34,4.94-2.82,7.33-4.35    c0.46-0.11,0.92-0.23,1.38-0.35c0.58-0.35,1.15-0.69,1.73-1.04c0.35-0.46,0.69-0.92,1.04-1.38c1.07,0,2.9-1.62,3.45-2.42    c1.73-0.58,3.45-1.15,5.18-1.73c1.41-0.23,3.73,0.41,4.83-0.69c2.76,0.11,5.52,0.23,8.28,0.34c0.58-0.58,1.62-0.34,2.42-0.34    c2.05,0,3.85-0.42,5.87-0.69c0.92,0.11,1.84,0.23,2.76,0.35c3.22,0,6.44,0,9.67,0c1.96-1.15,3.91-2.3,5.87-3.45    c0.58-0.11,1.15-0.23,1.73-0.35c1.27-0.58,2.53-1.15,3.8-1.73c1.31-0.68,2.61-1.35,3.92-2.03c0.5-0.86,2.46-1.18,3.41-1.48    c2.64-0.84,6.79-2.36,9.59-2.36c-0.12-1.5-0.23-2.99-0.35-4.49c0.2-1.76,1.09-3.23,1.46-4.82c0.3-1.3,0.32-3.16,1.31-4.15    c0.29-2.99,0.63-6.23,2.07-8.97c-0.17-2.13-0.35-4.26-0.52-6.39c-0.73-2.19-1.29-3.7-2.93-5.35c0-1.86-2.62-4.76-4.14-5.87    c-1.62-1.18-5.17-1.99-4.68-4.5c0.29-1.72,0.59-3.44,0.88-5.17c-0.12-1.15-0.23-2.3-0.35-3.45l-0.08-0.27    c-1.3-0.72-3.18-1.82-4.49-0.69c-1.33-0.26-2.66-0.52-3.99-0.79c-0.82,0.73-4.4,4.56-4.79,2.89c-0.39-1.36-3.44-1.76-4.68-1.76    c-2.12,2.69-1.31,5.57-5.18,6.9c-0.85,0-1.87-0.02-2.42-0.69c-1.38,0.12-2.76,0.23-4.14,0.35c-0.66,0.66-3.25,1.36-4.14,1.04    c-0.67,0.67-1.14,1.55-2.07,1.73c-0.26,1.13-0.23,1.88-1.41,2.34c-0.92,0.33-1.51,0.87-2.38,0.42c-0.45-0.44-1.23-1.46-1.6-0.6    c-1,1.16-2.16,0.95-3.58,0.95c-0.54,0.98-0.42,1.55-1.49,0.97c-0.65-0.44-1.31-0.88-1.96-1.32c-2.5,0-5.33-1.8-7.59-0.35    c-2.74-0.82-5.63-0.85-8.63-0.69c-0.51,0.78-1,2.55-1.82,1.53c-0.51-0.7-0.7-1.21-1.63-1.21c-2.99,0.35-5.98,0.71-8.98,1.06    c-3.22,0.69-6.44,1.38-9.67,2.07c-0.46,1.5-0.92,2.99-1.38,4.49c0.23,0.58,0.46,1.15,0.69,1.73c-0.11,0.81-0.23,1.61-0.35,2.42    L317.98,110.98z"/>
            <circle cx="365.53" cy="102.85" r="1.586"/>
        </g>
        <g id="__Bartın">
            <path d="    M294.05,408.65c0-1.27-1.4-1.56-2.42-2.07c-1.38-2.81-5.91-3.27-8.68-3.93c-4.81-0.99-9.63-1.98-14.44-2.98    c-3.79-1.4-5.71-4.6-9.32-5.87c-3.34-1.17-8.03-1.45-10.7-3.8c-2.4-2.11-3.36-4.9-5.87-6.9c-1.38-0.81-2.76-1.61-4.14-2.42    c-1.65-1.18-2.71-2.77-4.14-4.14c-0.58-0.46-1.15-0.92-1.73-1.38c-0.46-1.15-0.92-2.3-1.38-3.45c-0.92-1.73-1.84-3.45-2.76-5.18    c-0.69-1.96-1.38-3.91-2.07-5.87c0.33-1.95,0.65-3.91,0.98-5.86c0.29-1.39,0.05-2.08,0.05-3.46c0-2.07,0-4.14,0-6.21    c0.93-1.12,1.06-7.17,1.33-8.99c0.94-2.07,1.88-4.14,2.82-6.2c2.88-2.07,5.75-4.14,8.63-6.21c1.5,0,5.53-3.01,6.62-4.17    c1.87-1.99,3.2-4.17,4.42-6.53c1.89-0.54,3.46-3.11,4.83-4.49c0.65-0.63,1.3-1.25,1.95-1.88c2.19-1,3.58-2.67,5.3-4.34    c1.64-0.76,3.27-1.52,4.91-2.29c3.09-1.48,2.1-5.06,2.34-8.07c0.23-1.27,0.46-2.53,0.69-3.8c-1.36-1.65-0.24-4.62-0.69-6.56    c-0.64-3-1.29-6-1.93-9c-0.05-1.49-0.09-2.98-0.14-4.47c-0.13-1.46-0.35-2.86,0.12-4.29c1.77-5.47,4.27-10.74,8.17-15.04    c2.15-2.05,4.29-4.09,6.44-6.14c2.13-1.44,4.39-1.8,7.02-1.8c0.46,0.46,0.76,0.35,1.38,0.35c4.65,0,9.25,0.5,13.81,1.38    c0.73,1.22,4.43,1.27,5.87,1.38c2.19,0,4.37,0,6.56,0c2.53-0.46,5.06-0.92,7.59-1.38c3.34-3.34,6.67-6.67,10.01-10.01    c1.26-0.69,2.52-1.39,3.79-2.08c1.61-0.92,3.23-1.83,4.84-2.75c2.67-2.67,6.77-6.6,10.01-8.28c0.04-1.13,1.31-1.99,2.13-2.71    c2.17-1.86,4.34-3.72,6.5-5.58c0.69-0.35,1.38-0.69,2.07-1.04c0.35-0.88,1.18-1.37,2.11-1.42c2.52-1.94,5.03-3.88,7.55-5.82    c1.53-1.21,5.73-3.8,7.59-3.8c1.4-1.25,2.67-1.66,4.49-2.07c0-0.79,1.41-1.39,2.07-1.73c2.08-1.05,4.17-1.76,5.87-3.45    c2.47-2.47,2.93-5.86,4.29-8.91c0.98-1.4,1.97-2.8,2.96-4.21c-0.62-3.6,0.19-6.08,1.73-9.32c1.77-0.42,3.29-2.75,4.83-3.8    c1.54,0,2.65-1.12,3.8-2.07c3.45-1.27,6.9-2.53,10.36-3.8c0.81-1.61,1.61-3.22,2.42-4.83l0.04-0.24l-7.02-3.83    c-0.18-1.12-1.36-1.79-2-2.72c-1.3-1.93-1.91-4.18-2.7-6.32l-0.06-0.35c-2.8,0-6.95,1.52-9.59,2.36c-0.94,0.3-2.91,0.62-3.41,1.48    c-1.3,0.68-2.61,1.35-3.92,2.03c-1.27,0.58-2.53,1.15-3.8,1.73c-0.58,0.12-1.15,0.23-1.73,0.35c-1.96,1.15-3.91,2.3-5.87,3.45    c-3.22,0-6.44,0-9.67,0c-0.92-0.12-1.84-0.23-2.76-0.35c-2.02,0.27-3.81,0.69-5.87,0.69c-0.8,0-1.84-0.23-2.42,0.34    c-2.76-0.11-5.52-0.23-8.28-0.34c-1.1,1.1-3.42,0.46-4.83,0.69c-1.73,0.58-3.45,1.15-5.18,1.73c-0.55,0.8-2.38,2.42-3.45,2.42    c-0.35,0.46-0.69,0.92-1.04,1.38c-0.58,0.35-1.15,0.69-1.73,1.04c-0.46,0.12-0.92,0.23-1.38,0.35c-2.4,1.53-4.71,3.01-7.33,4.35    c-2.15,1.1-5.26,2.54-5.44,2.56c0.61,0.61-1.6,1.7-2.07,2.42c-0.41,0.63-1.59,1.73-2.42,1.73c-0.81,0.92-1.61,1.15-2.42,2.07    c-0.46,0.35-0.92,1.38-1.38,1.73c-0.58,0.92-1.44,1.64-1.99,2.58c-1.05,1.8-3.52,2.95-3.14,5.75c-0.13,0.44-0.27,0.88-0.4,1.33    c-0.51,0.77-1.73,2.71-1.73,3.45c-1.13,0.85-2.21,1.42-3.57,1.79c-0.31,0.32-0.61,0.65-0.92,0.97c-2.53,0.81-5.06,1.61-7.59,2.42    c-1.48,0.3-5.74,2.65-6.56,4.03c-1.15,0.5-2.3,0.99-3.45,1.49c-0.81,0.23-1.61,0.46-2.42,0.69c-2.43-0.55-4.69-2.36-7.25-2.07    c-2.65,0.69-5.29,1.38-7.94,2.07c-1.04-0.11-2.07-0.23-3.11-0.35c-6.37-6.37-10.32-6.17-18.64-7.25    c-0.94-0.94-2.17-1.08-3.45-1.38c-1.67-1.67-2.48-0.96-4.14-2.07c-0.69-0.46-1.38-0.92-2.07-1.38c-0.92-0.23-1.84-0.46-2.76-0.69    c-0.92-0.46-1.84-0.92-2.76-1.38c-1.38,0-2.76,0-4.14,0c-2.19,0.46-4.37,0.92-6.56,1.38c-0.69,0.35-1.38,0.69-2.07,1.04    c0,0.97-2.37,0.93-3.11,1.38c-2.35,1.42-9.95,1.03-12.43,0.35c-2.3-1.84-4.6-3.68-6.9-5.52c-1.25-1.39-2.51-2.78-3.76-4.17    c-0.45-0.55-1.29-1.13-0.72-1.69c-0.69-0.58-1.38-1.15-2.07-1.73c0.31-1.19,0.36-0.67-0.13-1.38c-0.42-0.35-0.83-0.69-1.25-1.04    c0.21-1.16,1.17-2.8,1.46-2.51l-0.45-0.33c-0.62-0.3-0.3-0.31-0.88,0.37c-2.02-0.02-4.04-0.05-6.06-0.08    c-2.65-0.04-5.85-0.63-8.29,0.55c-1.36,0.65-4.86,2.42-6.21,2.42c-1.17,1.92-3.58,3.09-5.34,4.41c-3.17,3.13-6.34,6.26-9.5,9.4    c0.54,1.01-0.09,2.46-0.39,3.56c-0.1,0.31-0.3,0.21-0.3-0.11c0-1.21-1.37-0.3-1.67,0.04c-0.61,0.03-1.22,0.06-1.83,0.1    c-3.29,0.39-5.79,3.65-8.95,4.6c-0.58,0.18-0.48,1.27-0.53,1.83c-0.25,2.65-0.34,2.36,1.6,4.48c-0.75,0.61-0.63,0.4-0.46,1.17    c0.04,0.76,0.08,1.52,0.12,2.29c-1.37,0.76-1.09,3.17-2.72,3.64c-3.01,3.93-7.15,6.1-11.09,8.79c-0.89-0.67-2.38,0.04-3.45,0.35    c1.22,1.28,0.73,1.72-0.97,1.76c-0.46,3.3-3.62,3.66-5.88,5.21c-0.48,0.32-0.96,0.65-1.44,0.97c1.53,0.52,1.15,0.28,1.04,1.38    c1.25,2.49,0.83,2.49-0.35,5.18c-1.27,1.5-2.53,2.99-3.8,4.49c-1.27,1.42-3.17,1.99-4.83,2.76c-1.04,2.19-2.07,4.37-3.11,6.56    c-0.86,0.02-1.89,1.56-2.62,2.14c-0.88,0.69-1.55,0.45-2.56,0.97c-0.07,1.14-2.01,2.55-2.76,3.45c-1.64,0.63-3.27,1.27-4.91,1.9    c-4.64,1.57-9.2,2.39-13.68,4.36c-4.06,1.65,1.93,6.64,2.71,8.93c1.09,3.21,2.45,6.05,4.14,8.97c1.23,0.48,5.34,5.86,6.21,7.25    c1.55-0.3,2.89,1.55,4.49,1.73c3.12,0.35,5.95,0.91,8.27,3.12c2,1.88,1.78,5.42,1.74,7.92c-0.07,4.5-0.11,6.59,1.84,10.65    c0.71,1.38,0.95,0.81,2.37,1.5c0.32,0.1,0.64,0.19,0.96,0.29c-0.02-1.56,2.82-3.16,4.14-4.14c0.39,0.39,1.76-0.39,2.24-0.95    c-0.17-0.26-0.35-0.52-0.52-0.78c1.79-1.79,2.38-4.01,4.25-5.74c1.46-1.35,3.16-0.88,4.73-1.85c1.36-0.84,2.15-2.21,3.11-3.45    c0.76,0.71,1.19-0.01,2.14-0.04c1.8,0.2,3.6,0.4,5.39,0.6c0.48,0.16,0.96,0.32,1.45,0.47c-0.31,1.23,1.47,3.26,2.07,4.49    c-0.72,0.66-0.39,2.55-0.21,3.47c0.49,2.41-0.46,5.21-0.83,7.57c1.04,1,1.18,3.41,1.73,4.83c0.76,1.23,1.52,2.46,2.29,3.69    c2.22,4.36,1.31,9.46,1.17,14.26c0.23,1.38,0.46,2.76,0.69,4.14c0.58,1.96,1.15,3.91,1.73,5.87c1,0.36,1.75,2.71,2.07,3.8    c0.69,1.73,1.38,3.45,2.07,5.18c1.27,1.15,2.53,2.3,3.8,3.45c0.61,2.15,2.42,3.61,4.14,4.83c0.11,0.35,0.23,0.69,0.35,1.04    c1.71,0.28,2.79,2.51,3.8,3.8c2.01,0.46,6.74,5.79,7.62,7.61c0.4,0.86-0.32,2.71-1.06,3.44c-0.39,2.6-2.66,3.35-4.49,4.83    c0.27,1.01-0.71,2.29-0.74,3.45c-0.16,5.6,5.29,7.07,7.09,11.83c0.07,0.2,0.14,0.4,0.22,0.59c-0.78,0.13-0.72,1.28-0.69,2.07    c0.08,2.02-1.27,8.52-2.76,9.67c0.35,1.27,0.69,2.53,1.04,3.8c-0.14,1.37-0.27,2.75-0.41,4.12c-0.78,2.88-1.57,5.77-2.35,8.65    c0,1.38,0,2.76,0,4.14c0.28,1.13,0.56,2.27,0.84,3.4c0.76,3.2,1.2,7.23,2.96,10.06c2,3.23,5.17,5.52,8.28,7.59    c1.38,0.12,2.76,0.23,4.14,0.35c1.04-0.23,2.07-0.46,3.11-0.69c0.23,0.12,0.46,0.23,0.69,0.35c1.5-0.46,2.99-0.92,4.49-1.38    c1.38-0.46,2.76-0.92,4.14-1.38c6.93-3.31,15.29-2.75,22.78-3.11c3.29-0.16,6.35-0.21,9.64,0.1c0.93,0.08,1.86,0.17,2.78,0.25    c2.3,0.46,4.6,0.92,6.9,1.38c1.16,0.52,2.33,1.04,3.49,1.56c2.97,1.02,5.39,1.89,8.59,1.89c1.61-1.19,3.33-1.22,5.18-1.73    c2.02-3,4.99-4.99,7.59-7.59c0.3-1.06,1.57-1.72,2.42-2.42c0.34-1.3,1.62-2.04,2.42-3.11c1.78-2.38,3.83-4.11,5.87-6.21    c1.25-0.15,2.24-1.61,3.06-2.49c2.29-2.44,5.77-3.08,7.98-5.79c1.34-1.49,2.68-2.98,4.01-4.48l4.96-7.05L294.05,408.65z"/>
            <circle cx="194.41" cy="232.03" r="1.586"/>
        </g>
        <g id="__Amasra">
            <path d="    M318.04,110.98l-1.74,0.47c0,0-1.1,1-1.94,1.31c-3.56,0.16-7.12,0.32-10.68,0.47c-1.27,0.04-0.99,2.43-2.44,2.43    c-0.24,0-0.47,0-0.71,0c-1.05,0-0.43-2.42-2.76-2.42c-1.13,1.13-2.27,0.99-3.8,1.04c0,1.06-1.66,0.69-2.42,0.69    c-0.64,0.64-1.57,0.23-2.42,0.35c-0.46,0.23-0.92,0.46-1.38,0.69c-1.59,0-2.87,0.1-3.8,1.04c0,1.31,0.11,1.7-1.04,2.42    c-1.33,0-2.3-0.43-2.07,1.73c-0.46-0.69-0.92-1.38-1.38-2.07c-0.23,0.23-0.46,0.46-0.69,0.69c0-0.46,0-0.92,0-1.38    c0,1.15,0,2.3,0,3.45c0.69,0.9,0.57,1.04,0.35,2.07c-0.27,1.22-4.6,3.85-5.87,4.49c-0.35,0.46-0.69,0.92-1.04,1.38    c0,3.89-2.26,3.32-5.18,4.14c-2.52,2.52-8.07,3.64-11.39,2.76c-2.04,1.93-4.08,3.85-6.13,5.78c-1.93,0.21-4.28,2.17-5.61,3.54    c-1.27,1.96-2.53,3.91-3.8,5.87c-0.68,2.19-1.36,4.39-2.04,6.58c-0.92,1.13-1.85,2.26-2.77,3.39c-3.61-0.5-5.67-0.94-7.14-4.19    c-0.27-0.43-0.55-0.86-0.82-1.29c-1.38,0-2.76,0-4.14,0c-0.11-0.35-0.23-0.69-0.35-1.04c0.69-0.69,3.24-0.19,3.45-0.35    c-1.07-0.93-2.76-0.92-4.14-1.38c-0.79-1.47-1.9-2.98-3.11-1.04c0,0.61,2.71,1.88,2.41,1.97c-1.05,0.36-8.86,1.32-10.49,4.18    c-0.58,1.17-0.28,3.59-0.9,4.21c-0.46,0.35-0.92,0.69-1.38,1.04c-1.68,0.21-3.16,0.64-4.49-0.69c-0.54,0-1.73-0.23-1.73,0.35    c-0.58,0.58-1.15,1.15-1.73,1.73c-0.78,0.25-2.07,0.35-2.07,1.38c0.32,0.86,1.69,4.3,0.63,4.61c-0.32,0.19-0.65,0.38-0.97,0.57    c-1.74,0.22-3.45,0.57-4.83,1.73c-1.08,0-1.29-1.08-1.91-1.89c-0.3-0.3-1.25,1.35-1.46,2.51c0.42,0.35,0.83,0.69,1.25,1.04    c0.49,0.71,0.44,0.19,0.13,1.38c0.69,0.58,1.38,1.15,2.07,1.73c-0.56,0.56,0.27,1.14,0.72,1.69c1.25,1.39,2.51,2.78,3.76,4.17    c2.3,1.84,4.6,3.68,6.9,5.52c2.48,0.68,10.08,1.08,12.43-0.35c0.74-0.45,3.11-0.41,3.11-1.38c0.69-0.35,1.38-0.69,2.07-1.04    c2.19-0.46,4.37-0.92,6.56-1.38c1.38,0,2.76,0,4.14,0c0.92,0.46,1.84,0.92,2.76,1.38c0.92,0.23,1.84,0.46,2.76,0.69    c0.69,0.46,1.38,0.92,2.07,1.38c1.66,1.11,2.47,0.4,4.14,2.07c1.29,0.3,2.51,0.44,3.45,1.38c8.32,1.07,12.27,0.88,18.64,7.25    c1.04,0.12,2.07,0.23,3.11,0.35c2.65-0.69,5.29-1.38,7.94-2.07c2.56-0.29,4.82,1.52,7.25,2.07c0.81-0.23,1.61-0.46,2.42-0.69    c1.15-0.5,2.3-0.99,3.45-1.49c0.82-1.39,5.07-3.73,6.56-4.03c2.53-0.81,5.06-1.61,7.59-2.42c0.31-0.32,0.61-0.65,0.92-0.97    c1.36-0.37,2.44-0.94,3.57-1.79c0-0.74,1.22-2.68,1.73-3.45c0.13-0.44,0.27-0.88,0.4-1.33c-0.38-2.81,2.08-3.96,3.14-5.75    c0.54-0.94,1.41-1.67,1.99-2.58c0.46-0.35,0.92-1.38,1.38-1.73c0.81-0.92,1.61-1.15,2.42-2.07c0.83,0,2-1.09,2.42-1.73    c0.47-0.71,2.68-1.8,2.07-2.42c-1.95,0-3.65,0.57-4.62-1.32c-2.36-1.79-3.38-2.88-3.32-5.59c0.04-1.79,0.42-6.72-0.69-7.94    c0.58-1,2.7-3.51,1.73-4.49c0.68-1.56,1.37-3.13,2.05-4.69c0.51-1.42,1.5-3.15,1.21-4.6c-0.2-0.95-2.23-3.48-3.26-3.48    c-1.44-1.44-3.25-3.8-3.45-5.87c-0.23-2.4-0.32-4.4,0-6.9c0.65-1.15,1.31-2.31,1.96-3.46c0.5-1.03,0.99-2.06,1.49-3.1    C318.55,116.28,318.96,112.19,318.04,110.98z"/>
            <circle cx="219.52" cy="158.77" r="1.586"/>
        </g>
    </g>
</svg>