<?xml version="1.0" encoding="UTF-8"?>
<!DOCTYPE svg PUBLIC "-//W3C//DTD SVG 1.1//EN" "http://www.w3.org/Graphics/SVG/1.1/DTD/svg11.dtd">
<svg version="1.1" id="HaritaCizim" xmlns="http://www.w3.org/2000/svg" xmlns:xlink="http://www.w3.org/1999/xlink" x="0px" y="0px" viewBox="0 0 290 490" preserveAspectRatio="none">
    <defs id="__def">
        <radialGradient id="f">
            <stop offset="0" stop-color="white" stop-opacity="1"/>
            <stop id="STOP1" offset=".4" stop-opacity="1"/>
            <stop offset="1" stop-color="white" stop-opacity=".2"/>
        </radialGradient>
        <filter id="__flt1" x="0" y="0" width="200%" height="200%" filterUnits="objectBoundingBox">
            <feGaussianBlur in="SourceAlpha" stdDeviation="3" result="blur1"/>
            <feSpecularLighting result="specOut" in="blur1" specularConstant="1.5" specularExponent="20" lighting-color="#bbbbbb">
                <feDistantLight azimuth="45" elevation="30"/>
            </feSpecularLighting>
            <feComposite in="specOut" in2="SourceAlpha" operator="in" result="specOut"/>
            <feComposite in="SourceGraphic" in2="specOut" operator="arithmetic" k1="0" k2="1" k3="1" k4="0"/>
        </filter>
        <filter id="__flt2" x="0" y="0" width="200%" height="200%" filterUnits="objectBoundingBox">
            <feGaussianBlur in="SourceAlpha" stdDeviation="3" result="blur1"/>
            <feSpecularLighting result="specOut" in="blur1" specularExponent="20" lighting-color="#bbbbbb">
                <fePointLight x="-2000" y="100" z="2000"/>
            </feSpecularLighting>
            <feComposite in="specOut" in2="SourceAlpha" operator="in" result="specOut"/>
            <feComposite in="SourceGraphic" in2="specOut" operator="arithmetic" k1="0" k2="1" k3="1" k4="0"/>
        </filter>
        <filter id="__flt3" x0="-50%" y0="-50%" width="200%" height="200%" filterUnits="objectBoundingBox">
            <feGaussianBlur in="SourceAlpha" stdDeviation="3" result="blur"/>
            <feOffset in="blur" dx="0" dy="0" result="offsetBlur"/>
            <feSpecularLighting in="blur" surfaceScale="4" specularConstant=".5" specularExponent="20" lighting-color="flavor" result="specOut">
                <fePointLight x="-5000" y="-10000" z="5000"/>
            </feSpecularLighting>
            <feComposite in="specOut" in2="SourceAlpha" operator="in" result="specOut"/>
            <feComposite in="SourceGraphic" in2="specOut" operator="arithmetic" k1="0" k2="1" k3="1" k4="0" result="litPaint"/>
            <feMerge>
                <feMergeNode in="offsetBlur"/>
                <feMergeNode in="litPaint"/>
            </feMerge>
        </filter>
        <filter id="__flt4" x0="-50%" y0="-50%" width="200%" height="200%">
            <feGaussianBlur in="SourceAlpha" stdDeviation="2" result="blur"/>
            <feOffset dy="-1" dx="-1"/>
            <feComposite in2="SourceAlpha" operator="arithmetic" k2="-1" k3="1" result="hlDiff"/>
            <feFlood flood-color="white" flood-opacity=".7"/>
            <feComposite in2="hlDiff" operator="in"/>
            <feComposite in2="SourceGraphic" operator="over" result="withGlow"/>
            <feOffset in="blur" dy="3" dx="3"/>
            <feComposite in2="SourceAlpha" operator="arithmetic" k2="-1" k3="1" result="shadowDiff"/>
            <feFlood flood-color="black" flood-opacity="1"/>
            <feComposite in2="shadowDiff" operator="in"/>
            <feComposite in2="withGlow" operator="over"/>
        </filter>
        <filter id="__golge1" x="0" y="0" width="200%" height="200%" filterUnits="userSpaceOnUse">
            <feOffset result="offOut" in="SourceAlpha" dx="8" dy="8"/>
            <feGaussianBlur result="blurOut" in="offOut" stdDeviation="3"/>
            <feBlend in="SourceGraphic" in2="blurOut" mode="normal"/>
        </filter>
    </defs>
    <g id="__Komsular" display="none">
        <linearGradient id="SVGID_1_" gradientUnits="userSpaceOnUse" x1="41.5522" y1="167.7412" x2="162.1434" y2="167.7412">
            <stop offset="0" style="stop-color:#FFFFFF"/>
            <stop offset="0.1201" style="stop-color:#F0F1F8"/>
            <stop offset="0.3525" style="stop-color:#C8CEE5"/>
            <stop offset="0.6738" style="stop-color:#8794C7"/>
            <stop offset="1" style="stop-color:#3E54A5"/>
        </linearGradient>
        <path fill-rule="evenodd" clip-rule="evenodd" fill="url(#SVGID_1_)" stroke="#000000" stroke-miterlimit="10" d="M55.82,146.88   c0.85,0.53,0.87,1.47,1.97,1.8c2.44,0.73,4.77,0.05,7.14,1.08c0.81,2.7,3.04,4.54,4.96,6.5c0.58,0.65,1.16,1.29,1.75,1.94   c0.19,0.68,0.15,1.49,0.65,1.95c-0.46,0.97-0.82,1.26,0.22,1.95c0.69,0.3,2.26,1.23,2.81,1.08c0.82,1,1.34,2.1,2.6,2.6   c0.77,0.31,2.32-0.2,2.54,0.45c0.12,0.37,0.29,1.47,0.68,1.52c1.06,0.17,1.89-0.38,2.69,0.53c0.62,0.9,1.25,1.79,1.87,2.68   c0.36,0.2,0.73,0.39,1.09,0.59c0.07-0.27,0.14-0.54,0.21-0.8c-0.1-0.39-0.55-2.49-0.65-2.6c0.39-1,1.72-2,1.08-3.25   c-0.64-1.26-3.01-4.98-1.3-6.06c0.23-0.7,0.26-1.54,0.87-1.95c-0.22-0.43-0.43-0.87-0.65-1.3c0.18-0.45,0.39-0.59,0.22-1.08   c0.07,0.01,0.14,0.02,0.2,0.03c0.71,0.11,1.94,0.24,1.99,1.05c-0.16,2.09-0.32,4.17-0.48,6.26c0.06,1.05,0.74,1.4,0.67,2.62   c-0.22,0.87-0.43,1.73-0.65,2.6c-0.29,0.46-0.34,0.89-0.87,1.08c0.02,0.06,0.05,0.13,0.07,0.19c0.41,1.01,1.27,2.65,2.52,2.62   c0.36,0.36,0.72,0.72,1.08,1.08c-0.13,0.08-0.27,0.15-0.4,0.23c-0.58,0.33-1.36,0.23-1.76,0.85c-0.54,0.04-1.08,0.07-1.62,0.11   c-0.27,0.32-0.54,0.64-0.81,0.95c-0.29,1.06-0.31,3.31,0.55,3.73c0.28,0.09,0.57,0.19,0.85,0.28c0.15,0.51,0.03,0.7,0.29,0.45   c1.28-1.17,2.57-3.07,4.42-3.07c0.23-0.28,0.46-0.41,0.8-0.18c0.67,0.43,1.96,1.38,1.69,2.25c-0.35,1.29-2.2,3.86-1.35,4.72   c0.47,0.41,0.49,0.15,0.38,0.95c0.03-0.04,0.06-0.09,0.09-0.13c0.45-0.61,1.23-1.57,0.78-2.25c0.06,0.03,0.13,0.05,0.2,0.08   c0.58,0.25,0.81,0.19,1.1,0.79c0.71-0.17,1.84-0.78,2.38-0.43c0.15-0.23,0.29-0.45,0.44-0.68c0.27-0.58,0.63-1,0.43-1.7   c0.22-0.36,0.43-0.72,0.65-1.08c0.56-0.41,0.57-0.56,1.3-0.43c0.65-0.94,1.3-1.88,1.95-2.81c0.08-0.58,0.16-1.15,0.24-1.73   c0.06-0.43,0.21-0.71-0.03-1.08c0.3,0.33,0.61,0.66,0.91,0.99c0.42-0.68,0.46-1.51,0.39-2.29c0.6-0.6,1.4-0.59,1.9-1.41   c0.22-0.01,0.43-0.02,0.65-0.03c-0.29-0.71-0.57-1.42-0.86-2.12c0.5-0.66,1.86-2.35,1.42-3.19c-0.6-1.14-1.21-2.28-1.81-3.42   c0.1,0.21,0.09,0.49,0.37,0.37c0.7-0.44,1.4-0.89,2.1-1.33c0.35-0.31,0.46-1.56,0.1-1.78c-0.13-0.02,0.55-0.18,0.91,0.13   c0.37,0.3,1.52,0.96,1.49,1.37c-0.1,0.83,0.03,0.82-0.63,1.47c-0.07,0.58-0.14,1.15-0.22,1.73c0.63,0.76,1.15,1.37,0.65,2.38   c-0.46-0.04-2.14-0.18-2.18,0.43c-0.03,0.92-0.15,1.38-0.2,2.39c-0.06,1.11,0.56,1.94,0.29,3.09c-0.11,0.46-0.41,1.77,0.14,1.96   c0.75,0.28,2.9-0.1,2.23,0.43c-0.87,0.63-2.17,1.6-3.31,1.44c-0.38,0.35-0.75,0.69-1.13,1.03c-0.21,0.13-1.9,1.3-1.27,1.37   c1.03,0.16,2.06,0.32,3.08,0.48c-0.44,0.16-0.45,0.13-0.68,0.58c-1.34,0-2.34-0.44-2.99,0.97c-0.2,0.14-0.4,0.28-0.6,0.43   c0.55,0.62,1.1,1.24,1.65,1.85c-0.87,0.03-1.93-0.13-2.39,0.64c0-0.53-0.54-1.03-0.85-0.55c-1.07,1.74-2.26,3.38-3.82,4.7   c-0.15,0.62-0.31,1.25-0.96,1.26c0.29,0.83,0.93,1.49-0.01,1.62c-0.74,0.11-1.51-0.05-1.74-0.74c-0.29-0.81-0.57-2.48,0.02-3.05   c-0.09-0.02-0.18-0.05-0.26-0.07c-2.85-0.59-2.83-1.54-4.52-3.58c-0.5-0.58-1-1.17-1.49-1.75c-2.14,0.2-2.22,0.31-3.92-1.06   c-0.47-0.38-0.85-0.44-1.17-0.96c-0.49-0.77-0.55-1.68-0.33-2.52c-0.24-0.39-0.31-0.34-0.22-0.87c0.49-0.46,1.01-0.65,0.58-1.27   c-0.6-0.78-0.91-1.47-1.46-2.29c-0.51-0.14-0.84-0.64-0.85-1.2c-0.38-0.19-0.91-0.41-0.87-0.87c-1-0.27-2.32,0.04-3.11-0.65   c-0.19,0.07-0.38,0.14-0.57,0.22c0-0.99-1.13-0.91-1.95-1.08c-1.82-0.38-5.24,1.16-6.49-0.65c-0.62,0.46-1.34,0.57-1.51,1.3   c-0.26-0.18-0.52-0.36-0.78-0.54c-0.53-0.47-1.16-0.84-0.95-1.62c-0.63-0.38-2.81-0.77-2.81-0.91c0.07-0.42,0.14-0.84,0.22-1.26   c-0.35-0.92-0.94-2.05-0.87-3.03c-0.4-0.37-0.8-0.74-1.2-1.11c-0.49-0.62-0.77-1.58-1.61-1.7c-0.14-0.43-0.29-0.87-0.43-1.3   c-0.79-0.43-1.59-0.86-2.38-1.3c-0.8-0.37-1.33-1.5-2.18-1.56c-0.87-0.03-2.57-0.16-3.18,0.36c-0.6,0.37-0.83,0.2-0.91,0.98   c0.29-0.1,0.66-0.08,0.64-0.43c-0.03-0.91-0.64-1.51-0.14-2.38c-0.09-0.15-0.19-0.29-0.28-0.44c0.07,0.04,0.14,0.08,0.22,0.12   c0.7,0.29,1.39,0.58,2.09,0.87c0.76-0.57,0.97-1.72,1.81-1.63c-0.06-0.08-0.12-0.16-0.18-0.24c-0.36-0.52-2.48-2.8-2.1-3.37   c0.19-0.16,0.38-0.31,0.57-0.47C54.51,146.71,55.08,146.42,55.82,146.88z"/>
        <path fill-rule="evenodd" clip-rule="evenodd" fill="none" stroke="#000000" stroke-miterlimit="10" d="M138.73,65.36   c0.02-3.81,0.32-7.14-1.35-10.6c-1.46-3.02-2.31-6.78-2.81-10.17c-1.08-7.31-4.21-12.38-8.65-18.18c-1.75-2.28-3.31-4.73-5.37-6.94   c-1.8-1.93-3.45-4.07-4.33-6.48c-1.52-4.16-4.39-9.79-7.57-12.98"/>
        <path fill-rule="evenodd" clip-rule="evenodd" fill="none" stroke="#000000" stroke-miterlimit="10" d="M205.6,43.5   c0-6.98,2.14-13.75,4.39-20.13c1.15-3.26,1.62-6.4,3.87-8.67c2.22-2.24,5.01-4.1,7.49-6.32c2.53-2.26,5.1-4.76,8.7-5.41   c3.42-0.62,6.93-1.28,10.38-1.46c3.75-0.19,8.97-1.01,12.39,0.04c0.99,0.3,1.68,1.13,2.77,1.42c0.95,0.25,1.86,0.09,2.83,0.26   c1.55,0.29,3.33,1.2,4.8,1.74c4.15,1.51,8.36,1.96,12.71,2.83c2.23,0.45,4.17,0.85,6.5,0.85c1.98,0,4,0.85,5.84,0.65"/>
        <path fill-rule="evenodd" clip-rule="evenodd" fill="none" stroke="#000000" stroke-miterlimit="10" d="M240.23,144.35   c1.18,0.47,1.42,1.84,2.57,2.2c0.18,1.55,1.81,2.86,2.63,4.08c0.98,1.46,1.52,3.27,3.04,4.28c3,1.99,7.62,0.95,11.24,1.13   c1.84,0.09,3.67,0.31,5.47,0.69c3.03,0.65,5.16,1.11,8.21,1.47c3.82,0.45,7.31,2,10.33,3.73c1.14,0.65,2.61,0.92,3.47,1.9"/>
        <path fill-rule="evenodd" clip-rule="evenodd" fill="none" stroke="#000000" stroke-miterlimit="10" d="M264.03,379.17   c0.48,2.37,8.83,4.59,11.08,5.19c4.13,1.09,8.67,0.16,12.73-0.43"/>
        <path fill-rule="evenodd" clip-rule="evenodd" fill="none" stroke="#000000" stroke-miterlimit="10" d="M46.75,357.53   c-1.69,0.64-2.69,2.3-4.11,3.46c-1.36,1.12-2.9,1.89-4.38,2.76c-2.47,1.45-4.96,3.45-7.36,5.39c-5.54,4.49-9.24,10.22-15.8,13.66   c-3.67,1.92-9.05,1.81-10.59,6.49c-1.96,0.76-2.85,2.91-4.51,3.72"/>
        <text transform="matrix(0.257 -0.9664 0.9664 0.257 31.8193 208.3896)" font-family="'MyriadPro-Regular'" font-size="12.9852">DİYARBAKIR</text>
        <text transform="matrix(1 0 0 1 156.687 25.8623)" font-family="'MyriadPro-Regular'" font-size="12.9852">MUŞ</text>
        <text transform="matrix(0.2275 0.9738 -0.9738 0.2275 263.4624 78.4385)" font-family="'MyriadPro-Regular'" font-size="12.9852">BİTLİS</text>
        <text transform="matrix(0.1113 0.9938 -0.9938 0.1113 266.4497 244.8291)" font-family="'MyriadPro-Regular'" font-size="12.9852">SİİRT</text>
        <text transform="matrix(0.7127 -0.7014 0.7014 0.7127 236.8794 457.6865)" font-family="'MyriadPro-Regular'" font-size="12.9852">MARDİN</text>
        <text transform="matrix(0.3815 0.9244 -0.9244 0.3815 33.1826 410.748)" font-family="'MyriadPro-Regular'" font-size="12.9853">MARDİN</text>
    </g>
    <g id="__Harita" fill="white" stroke="#000000" stroke-width="1" stroke-miterlimit="10" display="none">
        <rect id="__cer" x="0" y="0" fill="#000000" opacity="0" width="290" height="490"/>
        <g id="__Gercüş">
            <path d="M263.56,379.44    c-0.44,1.07-0.89,2.15-1.33,3.22c-1.11,1.9-2.14,3.68-2.9,5.83c-0.26,1.28-0.53,2.55-0.79,3.83c-0.62,1.39-1.25,2.77-1.87,4.16    c-0.87,0.58-1.73,1.15-2.6,1.73c-0.69,0.25-1.77,0.29-2.17,0.87c-2.59,0.08-4.97-0.18-7.57,0c-1.02,0.07-3.22,1.94-4,2.65    c-0.49,1.13-0.99,2.25-1.48,3.38c-0.67,1.98-1.18,3.91-2.2,5.77c0.13,0.39-0.87,2.22-1.19,2.66c-1.53,1.64-3.07,3.28-4.6,4.92    c-1.76,1.14-3.23,3.25-4.27,4.21c-2.16,2.38-4.33,4.76-6.49,7.14c-1.41,0.96-2.83,1.92-4.24,2.88c-0.39,0.71-0.79,1.41-1.18,2.12    c-1.8,1.44-3.6,2.88-5.4,4.31c-0.65,0.29-1.3,0.58-1.95,0.87c-0.66,0.05-1.32,0.1-1.98,0.15c-1.07,0.24-2.15,0.48-3.22,0.72    c-1.08,1.59-2.16,3.17-3.25,4.76c-2.87,2.29-6.35,3.51-9.96,4.54c-3.75,0.29-7.5,0.58-11.25,0.87c-1.14,0.15-5.01,0.86-5.84,0.43    c-2.38,0.39-4.76,0.78-7.14,1.17c-2.17,0.26-4.33,0.52-6.5,0.78c-1.95,0-3.9,0-5.84,0c-0.43-0.07-0.87-0.14-1.3-0.22    c-0.87-0.07-1.73-0.15-2.6-0.22c-0.5-0.14-1.01-0.29-1.52-0.43c-1.37-0.65-2.74-1.3-4.11-1.95c-0.88-0.48-1.76-0.96-2.64-1.45    c-1.86-0.74-3.72-1.49-5.58-2.23c-0.65,0-1.3,0-1.95,0c-4.66,0.73-9.32,1.46-13.97,2.19c-2.04,0.37-4.09,0.75-6.13,1.12    c-2.51,1.2-4.9,2.87-7.6,3.62c-5.16,1.42-11.61,1.7-15.89-1.8c-1.23-1.01-2.33-2-3.36-3.19c-0.53-0.67-1.06-1.33-1.6-2    c-2.02-1.89-4.03-3.77-6.05-5.66c-1.15-1.53-2.77-3.12-4.31-4.25c-1-2.44-2-4.89-3-7.33c-0.1-3.08-0.95-6.95-0.3-9.94    c0.85-3.88,2.16-10.86,0.41-14.53c-0.4-0.86-0.8-1.72-1.2-2.58c-1.88-1.15-3.75-2.31-5.63-3.46c-0.89-0.46-2.99-3.73-3.58-4.78    c-1.32-2.33-1.46-4.55-1.62-7.12c-0.07-0.79-0.14-1.59-0.2-2.38c-1.58-2.73-2.73-5.67-3.81-8.64c-0.63-1.6-1.25-3.2-1.88-4.79    c-1.44-2.52-3.29-6.77-3.93-9.53c-0.17-0.74-0.96-2.48-0.56-3.01c-0.46-0.57-1.39-1.39-1.19-2.13c0.04-0.3,0.07-0.6,0.11-0.9    c0.43-0.94,0.87-1.88,1.3-2.81c0.17-0.51,0.84-1.33,1.3-1.52c0.62-0.95,1.24-1.9,1.87-2.85c0.36-0.85,0.73-1.7,1.09-2.54    c-0.12-0.15-0.24-0.3-0.36-0.45c0.07-0.01,0.14-0.03,0.2-0.04c1.03-0.18,2.17-0.1,2.83-0.8c0.29-0.31,0.18-0.36,0.65-0.24    c0.37-1.24,0.75-4.23,1.76-4.93c0.27-0.18,2.26-1.49,2.37-1.05c0.24,0.76,1.01,1.73,0.85,2.52c0.65,0.63,1.97,1.29,2.16,2.16    c0.93,0.2,2.73,1.28,3.46,0.65c0.03,0.3,0.06,0.59,0.09,0.89c0.11,0.14,0.23,0.27,0.34,0.41c-0.56,0.74-1.96,2.84-2.07,3.52    c-0.08,0.54,0.08,1.28-0.31,1.67c0.08,0.05,0.16,0.1,0.24,0.14c0.6,0.35,1.21,0.71,1.81,1.06c0.32-0.29,0.17-0.23,0.76-0.12    c0.79-1.28,1.58-2.62,3.17-2.16c0.17-0.07,0.34-0.14,0.51-0.22c0.41,0.38,2.61,1.94,2.76,1.87c0.96-0.44,4.23-2.36,5.05-1.67    c0.75,0.66,1.59,0.94,1.93,1.97c-0.43,0.14-0.87,0.29-1.3,0.43c-0.17,0.81,0.09,0.86-0.87,1.08c0.08,0.03,0.16,0.06,0.24,0.09    c0.23,0.07,0.47,0.13,0.7,0.2c0.13,0.56,0.03,0.65,0.43,0.38c0.61-0.41,0.69-0.14,1.33-0.33c1.22-0.37,2.85-1.28,3.36-2.5    c0.4-0.11,0.8-0.23,1.2-0.34c0.49,0.39,0.48,0.66,1.18,0.55c-0.27-0.27-0.36-0.62-0.52-0.14c-0.26,1.15,0.42,4.34,0.09,4.69    c0.28,0.13,0.58,1.82,0.87,1.95c1.13,0.31,1.9,0.34,3.03,0.65c0.32,0.43,1.76-0.12,2.31-0.54c1.54-1.12,3.8-2.76,5.78-1.97    c0.42-0.36,0.26-0.43,0.55-0.07c0.48,0.59,0.84,0.96,1.19,1.66c-0.14,0.48,0.35,1.57,0.78,1.79c0.19,0.67,0.12,1.71,0.65,2.16    c0.12,1.74,0.25,3.83,1.08,5.41c1.88,2.02,3.75,4.04,5.63,6.06c2.67,1.37,5.34,2.74,8.01,4.11c4.44,0.86,9.07,1.62,13.42,3.03    c3.17,0.65,6.35,1.3,9.52,1.95c0.94,0.43,1.88,0.87,2.81,1.3c0.51,0.58,1.01,1.15,1.52,1.73c0.38,1.03,0.51,2.21,1.25,3.08    c0.95,0.71,1.91,1.41,2.86,2.12c1.49,0.4,2.81,0.37,4.33,0.44c2.31,0.11,4.59,0.36,6.89-0.33c2.25-0.33,4.5-0.65,6.74-0.97    c1.3-0.36,2.59-0.72,3.89-1.08c1.89-0.84,3.77-1.68,5.66-2.52c2.68-1.05,1.19-0.34,2.02-0.81c0.54-0.33,1.09-0.66,1.63-0.99    c0.65,0.07,1.3,0.15,1.95,0.22c1.47,0.13,2.15-0.67,3.9-0.22c0.7-0.7,4.28-2.23,4.96-1.52c0.64,0.7,1.44,1.87,2.39,1.95    c0.56,1.21,0.76,2.49,1.73,3.46c0.87,0.58,1.73,1.16,2.6,1.73c0.36,0.58,0.72,1.16,1.08,1.73c0.3,0.52,0.75,0.67,0.87,1.3    c1.36,0.72,2.73,1.44,4.09,2.16c0.53,0.26,1.54,0.55,1.75,1.09c2.31,0.38,4.62,0.76,6.93,1.14c1.03,0.74,2.63,0.94,3.88,1.04    c0.67,0.56,3.44,0.77,4.35,0.63c0.84,0.28,1.69,0.56,2.53,0.84c0.56,0.12,1.35,1.06,1.94,0.84c2.15-0.77,3.76-2.5,5.48-4.27    c0.53-0.57,1.05-1.14,1.58-1.72c-0.06-2.1-0.11-4.19-0.17-6.29c0.06-0.97-0.18-0.92,0.58-1.72c-0.04-0.51-0.17-0.38,0.16-0.52    c0.87-0.41,1.75-0.81,2.62-1.22c1.87,0.06,3.74,0.12,5.61,0.18c1.31,0.16,5.27,0.85,6.3,0.26c1.27,0.21,2.33,0.52,3.58,0.12    c0.97-0.47,1.94-0.95,2.91-1.42c2.3-0.88,4.61-1.76,6.91-2.65c0.65-0.13,1.31-0.26,1.96-0.38c0.65-0.43,1.3-0.87,1.95-1.3    C263.73,379.12,263.65,379.28,263.56,379.44z"/>
            <circle cx="154.09" cy="425.91" r="1.586"/>
        </g>
        <g id="__Batman">
            <path d="M111.17,232.18    c-0.25,0.86-0.63,2.49,0.07,3.28c-0.41,1.23-1.52,4.69-0.65,5.84c-0.29,3.1-0.58,6.21-0.87,9.31c-0.5,1.59-1.01,3.17-1.52,4.76    c-1.9,0.74-3.32,2.87-4.54,4.33c-0.53,0.63-0.21,1.69-0.87,2.16c0,0.65,0,1.3,0,1.95c-0.11,1.15,0.46,2.43,0.87,3.46    c0.22,0.56,1.6,4.71,1.52,4.98c0.76,1.73,1.62,3.29,2.43,4.95c0.84,1.7,2.56,3.93,1.59,5.63c-0.46,0.31-0.92,0.76-0.99,1.32    c-1.65,1.02-3.3,2.03-4.95,3.05c-0.38,0.44-0.52,0.96-1.11,1.06c0,0.14-0.01,0.27-0.01,0.41c0,0.46,0.11,0.75-0.2,1.11    c0.37,0.89,0.75,1.77,1.12,2.66c0.2-0.02,0.41-0.04,0.61-0.06c0.59,3.81,2.17,7.4,3.85,10.94c1.25,2.63,1.92,5.34,2.98,8.03    c-0.17,0.41,0.71,2.55,0.97,3.1c0.75,1.59,3.93,3.68,4.11,5.19c0.72,0.72,1.44,1.44,2.16,2.16c2.16,1.8,4.33,3.61,6.49,5.41    c2.82,1.68,5.63,3.37,8.45,5.05c1.15,0.91,2.3,1.83,3.46,2.74c1.62,0.88,3.18,1.83,4.54,3.03c0.43,0.38,1.17,0.85,1.73,0.86    c3.32,2.83,6.95,4.87,10.17,7.79c3.97,2.89,7.94,5.77,11.9,8.66c1.41,1.47,2.82,2.94,4.23,4.42c0.54,1.28,1.07,2.39,1.83,3.59    v-0.87c-0.22,1.51,0.87,1.73,0.19,3.01c-0.79,0.44-1.57,0.88-2.35,1.32c-0.36,0.07-0.72,0.14-1.08,0.22    c-0.74,0.54-1.49,1.08-2.23,1.62c-1.33,0.78-3.5-0.67-4.9-0.92c-0.08-0.02-0.15-0.04-0.23-0.05c0.58-0.49,0.34-0.45,0.22-1.08    c-0.51-0.08-1.01-0.16-1.52-0.24c-1.07-0.04-1,0.49-1.51,1.33c-1.23-0.36-2.45-0.72-3.68-1.08c-0.94-0.45-1.92-1.75-3.01-1.37    c-1.15-0.9-2.68-1.74-4.1-1.93c-0.55-0.47-1.11-1.24-1.79-0.93c-2.65,1.21-3.17,1.44-5.39,2.07c-0.75-0.27-1.41,0.27-2.16,0.22    c-2.49-0.17-4.93-1.58-7.09-2.48c-1.07-0.45-1.24-3.91-1.31-5.1c-0.1-1.1-1.7-0.72-2.56-0.26c-0.03,0.23-0.05,0.47-0.08,0.7    c0.15-0.21,0.25-0.75-0.09-0.91c-0.34-0.09-0.68-0.18-1.02-0.26c-1.28-0.21-1.74,0.1-2.35,1.17c-1,0-1.95-0.1-3.03,0    c-0.89,0.64-3.52,1.72-4.56,1.75c-0.28-0.01-0.56-0.01-0.85-0.02c-0.31-0.86-0.44-1.85-0.24-2.75c-0.08,0.06-0.16,0.13-0.24,0.19    c-0.5-0.04-0.61-0.09-0.82,0.4c-0.28-0.19-0.55-0.37-0.83-0.56c-0.55-0.19-0.63,1-0.67,1.44c-0.12,1.45-0.19,4.45-1.2,5.5    c-0.63,0.6-0.88-0.82-1.08-1.44c-0.48-1.33-0.96-2.65-1.44-3.98c-0.38-0.56-0.76-1.12-1.14-1.68c-0.04-0.12-0.09-0.24-0.14-0.36    c-0.41,0.26-0.82,0.51-1.23,0.77c-1.17,0.69-1.92,1.21-2.41,2.48c-0.08,0.22-0.17,0.43-0.25,0.64l-0.22,1.08    c-0.53-0.45-0.46-1.5-0.65-2.16c-0.44-0.22-0.92-1.31-0.78-1.79c-0.35-0.7-0.71-1.07-1.19-1.66c-0.29-0.35-0.13-0.28-0.55,0.07    c-1.98-0.79-4.24,0.85-5.78,1.97c-0.55,0.42-1.98,0.97-2.31,0.54c-1.13-0.31-1.9-0.34-3.03-0.65c-0.28-0.13-0.58-1.82-0.87-1.95    c0.33-0.34-0.35-3.53-0.09-4.69c0.16-0.48,0.25-0.13,0.52,0.14c-0.7,0.11-0.69-0.16-1.18-0.55c-0.4,0.11-0.8,0.23-1.2,0.34    c-0.51,1.22-2.14,2.13-3.36,2.5c-0.64,0.19-0.71-0.08-1.33,0.33c-0.39,0.27-0.29,0.18-0.43-0.38c-0.23-0.07-0.47-0.13-0.7-0.2    c-0.08-0.03-0.16-0.06-0.24-0.09c0.95-0.22,0.7-0.27,0.87-1.08c0.43-0.14,0.87-0.29,1.3-0.43c-0.34-1.03-1.19-1.31-1.93-1.97    c-0.81-0.69-4.09,1.23-5.05,1.67c-0.15,0.08-2.35-1.48-2.76-1.87c-0.17,0.07-0.34,0.15-0.51,0.22c-1.59-0.46-2.38,0.89-3.17,2.16    c-0.58-0.11-0.44-0.16-0.76,0.12c-0.6-0.35-1.21-0.71-1.81-1.06c-0.08-0.05-0.16-0.09-0.24-0.14c0.39-0.39,0.23-1.13,0.31-1.67    c0.1-0.69,1.51-2.79,2.07-3.52c-0.11-0.14-0.23-0.27-0.34-0.41c-0.03-0.3-0.06-0.59-0.09-0.89c-0.73,0.63-2.54-0.45-3.46-0.65    c-0.2-0.88-1.52-1.54-2.16-2.16c0.16-0.79-0.61-1.76-0.85-2.52c-0.12-0.43-2.11,0.87-2.37,1.05c-1.01,0.7-1.39,3.69-1.76,4.93    c-0.47-0.11-0.36-0.06-0.65,0.24c-0.66,0.7-1.8,0.61-2.83,0.8l-0.15,0c0-1.18-0.06-2.98-0.95-3.6c-1-0.65-2.03-1.24-3.23-1.42    c-0.07-0.12-0.13-0.24-0.2-0.36c-1.15,0.07-2.31,0.14-3.46,0.22c-0.55,0.52-2.97,2.95-3.73,1.65c-0.32-0.65-0.34-1.46-1.04-1.65    c0.76-1.68,2.04-4.37,0.62-5.89c0.3-0.73,0.21-0.61-0.42-0.67c-1-0.05-2.01-0.1-3.02-0.15c-1.49,0.37-3.13,0.54-4.54-0.22    c-0.2-0.39-0.4-0.78-0.6-1.17c-0.88-0.76-1.77-1.53-2.65-2.29c0.13-0.38,0.26-0.76,0.39-1.14c0.21-0.44,0.38-1.06,0.91-1.03    c0.37-1.1,0.73-2.2,1.1-3.3c0.26-1.07,0.52-2.15,0.78-3.22c0.59-0.93,1.98-3.19,0.72-4.08c0.75-1.61,2.06-3.19,2.38-4.98    c0-0.94,0-1.88,0-2.81c1.66-2.52,3.32-5.05,4.98-7.57c-0.07-0.07,0.86-0.67,1.14-0.97c0.11-0.32,0.92-1.03,1.03-1.35    c0.98-1.78,1.73-2.06,3.3-3.35c0.32-0.43,1.14-0.87,1.46-1.3c0.72-0.57,0.48-0.75,1.3-1.03c1.49-0.5,4.46-2.8,4.98-4.11    c0.43-0.06,0.87-0.13,1.3-0.2c0.79-0.66,1.59-1.31,2.38-1.97c1.57-1.61,3.14-3.21,4.71-4.82c0.67-0.49,1.33-0.97,2-1.46    c0.92-1.35,1.89-1.57,2.6-2.65c0.35-0.25,1.03-0.76,1.84-1.73c0.5-0.65,1.39-1.73,1.89-2.38c0.58-0.31,0.6-0.81,1.1-1.39    c0.68-0.91,0.74-1.53,1.3-2.6c0.56-1.06,1.06-1.91,1.71-3.86c2.98-4.11,4.45-6.89,5.36-11.58c0.94-2.89,1.88-5.77,2.81-8.66    c1.05-0.81,1.95-1.58,2.81-2.6c0.05-0.46,0.1-0.92,0.16-1.38c-0.52-0.49-0.25-0.66-0.01-1.25c0.43-0.28,1.37-2.14,1.31-2.51    c0.59-1.84,1.3-2.38,1.73-4.17c0.65-0.97,1.3-2.1,1.35-3.03c0.49-0.92,0.66-1.17,1.46-2.16c0.6-0.78,0.6-1.6,1.19-2.38    c0.6-0.49,0.81-1.03,1.3-1.3c0.79-0.36,1.1-0.94,1.89-1.3c0.38-0.32,0.75-0.64,1.13-0.96c0.42,0.03,0.73-0.69,1.14-0.66    c0.81-0.7,0.38-0.97,1.03-2.43c-0.29-0.17,0.73-1.83,0.43-2l0.05,0.08c2.01,1.1,4.03,2.2,6.04,3.3c2.02,2.47,2.17,6.06,3.81,8.75    c0.22,0.37,0.73,0.74,1.32,1.03L111.17,232.18z"/>
            <circle cx="74.23" cy="299.53" r="1.586"/>
        </g>
        <g id="__Beşiri">
            <path d="M170.54,362.5    c0.1-0.72,4.83-0.74,5.61-1.33c0.93-0.7,2.21-1.84,3.44-1.96c2.25-0.35,4.5-0.7,6.75-1.04c1.95,0.14,3.9,0.29,5.84,0.43    c0.87-0.3,1.74-0.6,2.61-0.91c0.66-0.12,1.34,0.14,1.93-0.18c1.08,0.51,2.16,1.01,3.25,1.52c3.29,0.62,6.68,0.36,9.96,0.22    c0.5,0.15,1.01,0.29,1.51,0.43c3.48-0.34,7.06,0.4,10.54-0.2c0.74,0.53,1.73-0.13,2.54-0.07c1.69,0.12,5.59-0.12,6.81-1.05    c2.49-2.18,0.94-4.19,0.67-7.33c-0.04-0.49-0.43-0.65,0.43-2.81c3.03,0.22,2.6-0.22,3.68,1.3c0.25,0.55,0.86,1.4,1.52,1.51    c0.28,0.33,0.57,0.67,0.85,1c0.07,0.25,0.13,0.49,0.2,0.74c0.51,0.6,0.88,2.13,1.12,2.81c0.95,0.27,2.06-0.49,3.03-0.65    c1.39,1.48,2.63,2.96,4.11,4.33c0.6,0.55,0.9,1.42,1.73,1.73c1.01,0.22,2.02,0.43,3.03,0.65l0.54-0.49    c-0.06-0.03-0.22-0.7-0.65-1.14c-0.05-0.38-0.47-0.61-0.32-0.97c-0.29-0.51-0.58-1.01-0.87-1.52c-0.71-2.26-1.18-7.71-0.55-9.93    c0.25-1.31,0.51-2.62,0.76-3.92c0.58-1.54,1.16-3.08,1.74-4.63c0.36-0.77,0.71-1.53,1.07-2.3c1.49-2.23,3.87-4.77,3.91-7.62    c0.08-5.17-4.33-9.34-7.25-13.02c-1.19-1.34-2.39-2.69-3.58-4.03c-1.7-1.28-3.15-2.36-4.98-3.48c-0.72-0.44-1.96-0.73-2.38-1.5    c-1.46-0.54-2.86-1.46-4.11-2.38c-2.02-1.01-4.04-2.02-6.06-3.03c-1.8-0.58-3.61-1.15-5.41-1.73c-2.44-0.38-4.9-0.22-7.36-0.22    c-3.73,0-7.47,1.65-11.04,2.81c-4.99,1.63-9.73,2.54-14.93,1.51c-3.6-1.4-7.2-2.8-10.8-4.2c-0.29-0.26-0.59-0.52-0.89-0.78    c-1.56-0.76-4.77-1.06-5.84-2.38c-1.08-1.52-2.16-3.03-3.25-4.55c-0.22-0.46-0.45-0.91-0.67-1.37c-0.4-0.5-1.03-1.43-0.85-2.09    c-0.36-0.65-0.72-1.3-1.08-1.95c-1.08-1.23-2.16-2.45-3.25-3.68c-0.74-0.86-3.25-2.99-3.46-3.9c-2.01-1.17-3.87-2.01-6.07-2.72    c-0.5-0.18-1.01-0.35-1.51-0.53c-2.66-2.27-4.73-5.27-4.14-8.91c0.59-0.71,1.17-1.42,1.76-2.13c0.3-0.21,0.6-0.42,0.89-0.64    c0.65-0.64,1.29-1.28,1.94-1.91c0.21-0.02,0.42-0.03,0.63-0.05c1.28-1.6,2.59-2.47,4.3-3.51c1.09-0.78,2.18-1.56,3.27-2.33    c-0.14-0.14-0.29-0.29-0.43-0.43c2.13-1.07,4.26-2.15,6.39-3.22c1.12-0.66,2.23-1.32,3.35-1.98c1.15-0.86,2.31-1.73,3.46-2.6    c-0.22-0.29-0.43-0.58-0.65-0.87c-2.02-1.08-4.04-2.16-6.06-3.25c-0.43-0.58-0.87-1.15-1.3-1.73c-0.65-2.15-0.54-4.09-0.38-6.28    c0.05-0.79,0.11-1.59,0.16-2.38c-0.33-1.86-0.65-3.72-0.98-5.58c-0.62-1.26-1.24-2.52-1.86-3.78c-0.82-1.86-2.7-5.34-5.1-5.61    c-0.67,0.02-1.34,0.03-2.02,0.05c-0.94,0.29-1.88,0.58-2.81,0.87c-0.51,0.65-1.01,1.3-1.52,1.95c-0.49,0.57-0.27,1.49-0.87,1.95    c-0.07,1.37-0.14,2.74-0.22,4.11c0.13,0.67,0.87,4.29,0.87,4.29c-2.98,2.41-4.63,0.39-7.77-0.47c-2.53-0.38-5.05-0.76-7.58-1.14    c-0.8,0.12-1.6,0.23-2.4,0.35c-1.68,1.26-3.37,2.53-5.05,3.79c-0.26,0.11-0.53,0.21-0.79,0.32c-2.09-0.08-4.18-0.15-6.26-0.23    c-1.88-0.43-3.76-0.86-5.64-1.28c-0.66-0.31-1.33-0.61-1.99-0.92c-0.87-0.07-1.75-0.13-2.62-0.2c-0.25,0.86-0.63,2.49,0.07,3.28    c-0.41,1.23-1.52,4.69-0.65,5.84c-0.29,3.1-0.58,6.21-0.87,9.31c-0.5,1.59-1.01,3.17-1.52,4.76c-1.9,0.74-3.32,2.87-4.54,4.33    c-0.53,0.63-0.21,1.69-0.87,2.16c0,0.65,0,1.3,0,1.95c-0.11,1.15,0.46,2.43,0.87,3.46c0.22,0.56,1.6,4.71,1.52,4.98    c0.76,1.73,1.62,3.29,2.43,4.95c0.84,1.7,2.56,3.93,1.59,5.63c-0.46,0.31-0.92,0.76-0.99,1.32c-1.65,1.02-3.3,2.03-4.95,3.05    c-0.38,0.44-0.52,0.96-1.11,1.06c0,0.14-0.01,0.27-0.01,0.41c0,0.46,0.11,0.75-0.2,1.11c0.37,0.89,0.75,1.77,1.12,2.66    c0.2-0.02,0.41-0.04,0.61-0.06c0.59,3.81,2.17,7.4,3.85,10.94c1.25,2.63,1.92,5.34,2.98,8.03c-0.17,0.41,0.71,2.55,0.97,3.1    c0.75,1.59,3.93,3.68,4.11,5.19c0.72,0.72,1.44,1.44,2.16,2.16c2.16,1.8,4.33,3.61,6.49,5.41c2.82,1.68,5.63,3.37,8.45,5.05    c1.15,0.91,2.3,1.83,3.46,2.74c1.62,0.88,3.18,1.83,4.54,3.03c0.43,0.38,1.17,0.85,1.73,0.86c3.32,2.83,6.95,4.87,10.17,7.79    c3.97,2.89,7.94,5.77,11.9,8.66c1.41,1.47,2.82,2.94,4.23,4.42c0.54,1.28,1.07,2.39,1.83,3.59V362.5z"/>
            <circle cx="125.74" cy="285.24" r="1.586"/>
        </g>
        <g id="__Kozluk">
            <path d="M103.66,181.79    c0.47-0.78,1.53-0.61,2.39-0.64c-0.55-0.62-1.1-1.24-1.65-1.85c0.2-0.14,0.4-0.28,0.6-0.43c0.65-1.42,1.65-0.97,2.99-0.97    c0.23-0.45,0.25-0.42,0.68-0.58c-1.03-0.16-2.06-0.32-3.08-0.48c-0.63-0.06,1.06-1.23,1.27-1.37c0.38-0.34,0.75-0.69,1.13-1.03    c1.14,0.16,2.44-0.81,3.31-1.44c0.67-0.54-1.48-0.15-2.23-0.43c-0.55-0.19-0.24-1.5-0.14-1.96c0.27-1.15-0.35-1.98-0.29-3.09    c0.05-1.01,0.17-1.47,0.2-2.39c0.04-0.6,1.72-0.47,2.18-0.43c0.5-1.01-0.02-1.62-0.65-2.38c0.07-0.58,0.14-1.15,0.22-1.73    c0.66-0.66,0.53-0.64,0.63-1.47c0.03-0.4-1.12-1.06-1.49-1.37c-0.36-0.3-1.04-0.15-0.91-0.13c0.36,0.23,0.25,1.48-0.1,1.78    c-0.7,0.45-1.4,0.89-2.1,1.33c-0.27,0.12-0.27-0.15-0.37-0.37c0.6,1.14,1.21,2.28,1.81,3.42c0.44,0.84-0.92,2.54-1.42,3.19    c0.29,0.71,0.57,1.42,0.86,2.12c-0.22,0.01-0.43,0.02-0.65,0.03c-0.5,0.82-1.3,0.8-1.9,1.41c0.07,0.77,0.03,1.6-0.39,2.29    c-0.3-0.33-0.61-0.66-0.91-0.99c0.24,0.38,0.09,0.65,0.03,1.08l0.2-0.23c-0.47,0.01-0.97-0.39-1.45-0.92    c-0.67-0.74-1.31-1.71-1.82-2.14c-0.98-0.83-2.24-1.21-3.28-2.04c-0.63-0.51-0.38-1.66-0.38-2.46c-0.41-0.67-0.82-1.34-1.22-2.01    c-1.11-1.71-2.21-3.42-3.32-5.13c0.18-0.64-0.41-1.31-0.65-1.94c-0.36-1.3-0.72-2.6-1.08-3.9c0.14-2.67,0.29-5.34,0.43-8.01    c0-0.42,0.41-0.04,0.74-0.31c1.17-0.96,2.33-1.37,3.81-1.6c0.14-0.08,0.29-0.17,0.43-0.25c1.44,0.5,2.89,1.01,4.33,1.52    c0.51,0,1.01,0,1.52,0c2.53,0,3.43,0.42,5.62,1.51c-0.08,0.43,0.12,0.51,0.36,0.84c0.61,0.92,0.1-0.44,1.1-0.05    c2.23,0.87,4.42,1,6.73,1.54c0.44,0.17,0.89,0.33,1.33,0.49c0.65-0.07,1.3-0.14,1.95-0.22c0.47-0.01,2.6-0.03,2.6,0.43    c1.91-0.25,3.41-0.1,5.21,0.57c1.25,0.46,2.51,0.16,3.86,0.76c1.52,0.65,3.03,1.29,4.55,1.94c0.41,0.16,1.25,0.65,1.55,0.49    c1.77,0.28,4.35,1.43,6.04,0.34c0.65-0.58,1.3-1.15,1.95-1.73c0.79-0.29,1.59-0.58,2.38-0.87c0.36-0.43,0.72-0.87,1.08-1.3    c1.37-0.79,2.74-1.59,4.11-2.38c0.89-0.77,1.77-1.53,2.66-2.3c0.96-0.71,1.93-1.42,2.89-2.14c0.32-0.32,0.63-0.65,0.95-0.97    c2.55-1.38,5.04-3.28,7.14-5.19c0.7,0,2.28-1.02,2.5-1.63c1.19-0.9,2.37-1.8,3.56-2.7c1.12-1.01,2.51-1.32,3.68-2.16    c0.29-0.36,0.58-0.72,0.87-1.08c1.15-0.94,2.31-1.88,3.46-2.81c0.13-1.35,1.85-2.05,2.38-3.25c0.43-1.15,0.87-2.31,1.3-3.46    c0.36-0.43,0.72-0.87,1.08-1.3c0.72,0.32,1.75-0.79,2.14-1.37c1.38-0.28,2.75-0.56,4.13-0.84c0.53-0.05,1.12-0.36,1.52,0.04    c1.15-0.29,2.31-0.58,3.46-0.86c1.37,0.07,2.74,0.14,4.11,0.22c1.14-0.31,2.29-0.62,3.43-0.93c2.54-0.56,5.07-1.11,7.61-1.66    c1.66,0.07,3.32,0.14,4.98,0.22c5.46-0.73,11.01-2.69,16.47-0.93c-0.39,4.28-0.78,8.56-1.17,12.84c0,1.71,0.69,3.41,1.16,5.03    c0.64,2.29,1.29,4.58,1.93,6.87c1.46,1.99,2.21,2.04,2.6,4.11c1.84,2.05,1.79,2.37,3.46,5.41c-0.5,2.12-2.32,4.88-3.03,5.86    c-0.37,0.8-0.74,1.6-1.12,2.4c-0.28,0.49-0.55,0.99-0.83,1.48c-0.51,1.73-1.01,3.46-1.52,5.19c-0.09,1.66-0.18,3.31-0.26,4.97    c-0.26,4.2-0.52,8.36,0.26,12.56c0.79,1.23,1.59,2.45,2.38,3.68c0.43,0.29,0.87,0.58,1.3,0.87c0.19,0.35,0.39,0.7,0.58,1.06    c0.56,1.24-0.2,3-0.32,4.35c-0.22,2.34-0.73,4.7-1.74,6.83c-1.74,3.67-4.75,6.65-6.96,10.05c-0.07,1.08-0.14,2.16-0.22,3.25    c0.36,1.59,0.72,3.17,1.08,4.76c-0.07,0.65-0.14,1.3-0.22,1.95c-0.78,2.1-0.77,4.86-2.77,6.25c-1.16,0.81-7.22,0.83-8.7,0.46    c-0.94-0.23-3.15-0.53-3.9,0.22c-1.57,0.2-3.75,0.76-4.54,2.38c-0.72,1.3-1.44,2.6-2.16,3.9c-0.36,1.37-0.72,2.74-1.08,4.11    c-0.5,2.51-0.15,4.44-1.52,6.71c-0.29,0.79-0.58,1.59-0.87,2.38c-0.43,2.25-1.54,5.11-3.98,5.7c-2.46,0.59-5.62-3.7-7.7-5.05    c-0.59-0.38-1.89-2.01-2.6-1.95c-3.18,0.31-6.46,3.52-8.87,5.41c-1.95,1.01-3.9,2.02-5.84,3.03l-1.52,0.43    c-0.22-0.29-0.43-0.58-0.65-0.87c-2.02-1.08-4.04-2.16-6.06-3.25c-0.43-0.58-0.87-1.15-1.3-1.73c-0.65-2.15-0.54-4.09-0.38-6.28    c0.05-0.79,0.11-1.59,0.16-2.38c-0.33-1.86-0.65-3.72-0.98-5.58c-0.62-1.26-1.24-2.52-1.86-3.78c-0.82-1.86-2.7-5.34-5.1-5.61    c-0.67,0.02-1.34,0.03-2.02,0.05c-0.94,0.29-1.88,0.58-2.81,0.87c-0.51,0.65-1.01,1.3-1.52,1.95c-0.49,0.57-0.27,1.49-0.87,1.95    c-0.07,1.37-0.14,2.74-0.22,4.11c0.13,0.67,0.87,4.29,0.87,4.29c-2.98,2.41-4.63,0.39-7.77-0.47c-2.53-0.38-5.05-0.76-7.58-1.14    c-0.8,0.12-1.6,0.23-2.4,0.35c-1.68,1.26-3.37,2.53-5.05,3.79c-0.26,0.11-0.53,0.21-0.79,0.32c-2.09-0.08-4.18-0.15-6.26-0.23    c-1.88-0.43-3.76-0.86-5.64-1.28c-0.66-0.31-1.33-0.61-1.99-0.92c-0.87-0.07-1.75-0.13-2.62-0.2l-0.12-0.67    c-0.59-0.29-1.1-0.67-1.32-1.03c-1.65-2.69-1.79-6.28-3.81-8.75c-2.01-1.1-4.03-2.2-6.04-3.3c0.25-0.61,0.49-1.21,0.74-1.82    c0.38-0.87,0.66-2.52,1.46-3.02c0-1,0.28-1.83,0.57-2.78c0.17-0.54,0.55-0.59,1.09-0.77c-0.09,0.01-0.17,0.02-0.26,0.03    c-0.67-0.57-0.17-1.14,0.12-1.92c0.45-1.21,0.99-2.53,0.72-3.86c-0.29-1.95-0.58-3.9-0.87-5.84c0.41-3.85,0.65-7.59,0.65-11.47    c0-1.7-0.47-3.32-0.14-4.74L103.66,181.79z"/>
            <circle cx="189.15" cy="181.14" r="1.586"/>
        </g>
        <g id="__Sason">
            <path d="M232.65,110.59    c-0.12,0.04-0.25,0.08-0.37,0.12c1.33-2.06,1.1-3.96,1.89-6.18c0.1-0.63,0.2-1.26,0.3-1.89c0.33-1.68,0.67-3.36,1-5.04    c0.22-1.23,0.43-2.45,0.65-3.68c0.06-0.65,0.11-1.29,0.17-1.94c0.42-2.98,0.52-5.88,0.48-8.88c-0.03-1.8,1.25-6.01,2.16-7.58    c1.08-3.17,2.16-6.35,3.25-9.52c-0.4-1.66-0.79-3.32-1.18-4.98c-0.23-0.62-0.78-1.05-0.76-1.73c-1.08-1.23-2.16-2.45-3.25-3.68    c-1.22-0.66-2.44-1.33-3.67-1.99c-0.4,0.07-3.56-1.2-3.69-1.47c-2.61-0.4-5.21-0.79-7.82-1.18c-0.93-0.21-1.86-0.43-2.79-0.64    c-2.16-1.12-4.33-2.25-6.49-3.37c-0.93-0.36-1.86-0.72-2.79-1.08c-1.01-0.7-2.7-1.78-3.93-1.74c-1.12,0.04-2.03,0.4-3.04,0.81    c-0.14,0.11-0.28,0.23-0.42,0.34c-0.61,0.18-1.52,0.12-1.94,0.58c-2.24,0.5-4.47,1.01-6.71,1.51c-0.94,0.29-1.88,0.58-2.81,0.87    c-5.12-0.14-10.24-0.29-15.37-0.43c-2.11,0.62-3.96,1.14-5.63,2.6c-0.58,0.5-1.43,0.57-1.73,1.3c-2.02,1.23-4.04,2.45-6.06,3.68    c-0.63,0.21-1.26,0.42-1.89,0.62c-2.65,1.75-5.86,2.52-8.91,3.33c-0.64,0.17-3.15,1.17-3.48,1.03c-0.53,0.24-3.79,1.46-4.11,1.3    c-1.73,1.37-3.46,2.74-5.19,4.11c-3.88,1.55-8.02,3.89-11.18,6.53c-1.61,1.93-3.22,3.87-4.84,5.8c-1.54,2.07-3.07,4.15-4.61,6.22    c-2.58,2.83-5.17,5.66-7.75,8.49c-1.09,1.63-1.12,3.51-1.27,5.41c-0.36,1.08-0.72,2.16-1.08,3.25c-0.53,2.19-0.93,4.57-2.2,6.51    c-1.77,2.71-3.4,5.41-5.59,7.77c-0.64,0.95-1.28,1.9-1.93,2.85c-1.03,1.44-2.07,2.89-3.1,4.33c-1.15,0.53-3.02,3.58-4.06,3.64    c-0.09,0.43-0.17,0.85-0.26,1.28c-0.22,2.01,0.24,4.13,0.75,6.13c0.14,0.56,0.02,1.24,0.37,1.68c-0.12,1.28-0.23,2.56-0.35,3.84    c0.52,1.04-0.16,1.54,0.03,2.65c0.03,0.3,0.24,0.69,0.11,0.86c-0.05,0.16-0.52,0.88-0.38,0.87l0.68-0.09    c1.17-0.96,2.33-1.37,3.81-1.6c0.14-0.08,0.29-0.17,0.43-0.25c1.44,0.5,2.89,1.01,4.33,1.52c0.51,0,1.01,0,1.52,0    c2.53,0,3.43,0.42,5.62,1.51c-0.08,0.43,0.12,0.51,0.36,0.84c0.61,0.92,0.1-0.44,1.1-0.05c2.23,0.87,4.42,1,6.73,1.54    c0.44,0.17,0.89,0.33,1.33,0.49c0.65-0.07,1.3-0.14,1.95-0.22c0.47-0.01,2.6-0.03,2.6,0.43c1.91-0.25,3.41-0.1,5.21,0.57    c1.25,0.46,2.51,0.16,3.86,0.76c1.52,0.65,3.03,1.29,4.55,1.94c0.41,0.16,1.25,0.65,1.55,0.49c1.77,0.28,4.35,1.43,6.04,0.34    c0.65-0.58,1.3-1.15,1.95-1.73c0.79-0.29,1.59-0.58,2.38-0.87c0.36-0.43,0.72-0.87,1.08-1.3c1.37-0.79,2.74-1.59,4.11-2.38    c0.89-0.77,1.77-1.53,2.66-2.3c0.96-0.71,1.93-1.42,2.89-2.14c0.32-0.32,0.63-0.65,0.95-0.97c2.55-1.38,5.04-3.28,7.14-5.19    c0.7,0,2.28-1.02,2.5-1.63c1.19-0.9,2.37-1.8,3.56-2.7c1.12-1.01,2.51-1.32,3.68-2.16c0.29-0.36,0.58-0.72,0.87-1.08    c1.15-0.94,2.31-1.88,3.46-2.81c0.13-1.35,1.85-2.05,2.38-3.25c0.43-1.15,0.87-2.31,1.3-3.46c0.36-0.43,0.72-0.87,1.08-1.3    c0.72,0.32,1.75-0.79,2.14-1.37c1.38-0.28,2.75-0.56,4.13-0.84c0.53-0.05,1.12-0.36,1.52,0.04c1.15-0.29,2.31-0.58,3.46-0.86    c1.37,0.07,2.74,0.14,4.11,0.22c1.14-0.31,2.29-0.62,3.43-0.93c2.54-0.56,5.07-1.11,7.61-1.66c1.66,0.07,3.32,0.14,4.98,0.22    c5.46-0.73,11.01-2.69,16.47-0.93L232.65,110.59z"/>
            <circle cx="163.83" cy="117.08" r="1.586"/>
        </g>
        <g id="__Hasankeyf">
            <path d="M263.82,378.95    c-0.65,0.43-1.3,0.87-1.95,1.3c-0.65,0.13-1.31,0.26-1.96,0.38c-2.3,0.88-4.61,1.76-6.91,2.65c-0.97,0.47-1.94,0.95-2.91,1.42    c-1.25,0.4-2.31,0.08-3.58-0.12c-1.03,0.59-4.99-0.1-6.3-0.26c-1.87-0.06-3.74-0.12-5.61-0.18c-0.88,0.41-1.75,0.81-2.62,1.22    c-0.32,0.14-0.2,0.01-0.16,0.52c-0.76,0.8-0.52,0.75-0.58,1.72c0.06,2.1,0.11,4.19,0.17,6.29c-0.53,0.57-1.06,1.15-1.58,1.72    c-1.72,1.78-3.33,3.51-5.48,4.27c-0.59,0.23-1.38-0.72-1.94-0.84c-0.84-0.28-1.69-0.56-2.53-0.84c-0.91,0.14-3.68-0.07-4.35-0.63    c-1.24-0.11-2.84-0.3-3.88-1.04c-2.31-0.38-4.62-0.76-6.93-1.14c-0.21-0.53-1.22-0.83-1.75-1.09c-1.36-0.72-2.73-1.44-4.09-2.16    c-0.12-0.63-0.56-0.77-0.87-1.3c-0.36-0.58-0.72-1.15-1.08-1.73c-0.87-0.58-1.73-1.15-2.6-1.73c-0.97-0.97-1.17-2.25-1.73-3.46    c-0.96-0.09-1.76-1.25-2.39-1.95c-0.69-0.71-4.26,0.82-4.96,1.52c-1.75-0.45-2.43,0.35-3.9,0.22c-0.65-0.07-1.3-0.15-1.95-0.22    c-0.54,0.33-1.09,0.66-1.63,0.99c-0.84,0.47,0.66-0.24-2.02,0.81c-1.89,0.84-3.77,1.68-5.66,2.52c-1.3,0.36-2.59,0.72-3.89,1.08    c-2.25,0.32-4.5,0.65-6.74,0.97c-2.31,0.69-4.59,0.44-6.89,0.33c-1.52-0.07-2.84-0.04-4.33-0.44c-0.95-0.71-1.91-1.41-2.86-2.12    c-0.74-0.86-0.87-2.05-1.25-3.08c-0.5-0.58-1.01-1.15-1.52-1.73c-0.94-0.43-1.88-0.87-2.81-1.3c-3.17-0.65-6.35-1.3-9.52-1.95    c-4.35-1.41-8.98-2.17-13.42-3.03c-2.67-1.37-5.34-2.74-8.01-4.11c-1.87-2.02-3.75-4.04-5.63-6.06c-0.84-1.58-0.96-3.67-1.08-5.41    l0.22-1.08c0.08-0.21,0.17-0.43,0.25-0.64c0.49-1.27,1.24-1.8,2.41-2.48c0.41-0.26,0.82-0.51,1.23-0.77    c0.05,0.12,0.09,0.24,0.14,0.36c0.38,0.56,0.76,1.12,1.14,1.68c0.48,1.33,0.96,2.65,1.44,3.98c0.2,0.62,0.45,2.04,1.08,1.44    c1.01-1.05,1.08-4.05,1.2-5.5c0.04-0.44,0.11-1.63,0.67-1.44c0.27,0.19,0.55,0.37,0.83,0.56c0.22-0.49,0.32-0.44,0.82-0.4    c0.08-0.06,0.16-0.13,0.24-0.19c-0.21,0.9-0.08,1.89,0.24,2.75c0.28,0.01,0.56,0.01,0.85,0.02c1.04-0.04,3.68-1.11,4.56-1.75    c1.08-0.1,2.03,0,3.03,0c0.61-1.07,1.08-1.38,2.35-1.17c0.34,0.09,0.68,0.18,1.02,0.26c0.34,0.16,0.24,0.69,0.09,0.91    c0.03-0.23,0.06-0.47,0.08-0.7c0.85-0.46,2.45-0.84,2.56,0.26c0.07,1.19,0.24,4.65,1.31,5.1c2.16,0.9,4.6,2.32,7.09,2.48    c0.75,0.05,1.42-0.49,2.16-0.22c2.22-0.63,2.74-0.86,5.39-2.07c0.67-0.3,1.24,0.46,1.79,0.93c1.42,0.19,2.95,1.03,4.1,1.93    c1.09-0.38,2.07,0.92,3.01,1.37c1.23,0.36,2.45,0.72,3.68,1.08c0.51-0.83,0.44-1.36,1.51-1.33c0.51,0.08,1.01,0.16,1.52,0.24    c0.13,0.63,0.36,0.59-0.22,1.08c0.08,0.02,0.15,0.04,0.23,0.05c1.4,0.25,3.57,1.7,4.9,0.92c0.74-0.54,1.49-1.08,2.23-1.62    c0.36-0.07,0.72-0.14,1.08-0.22c0.78-0.44,1.57-0.88,2.35-1.32c0.68-1.28-0.41-1.5-0.19-3.01c0.1-0.72,4.83-0.74,5.61-1.33    c0.93-0.7,2.21-1.84,3.44-1.96c2.25-0.35,4.5-0.7,6.75-1.04c1.95,0.14,3.9,0.29,5.84,0.43c0.87-0.3,1.74-0.6,2.61-0.91    c0.66-0.12,1.34,0.14,1.93-0.18c1.08,0.51,2.16,1.01,3.25,1.52c3.29,0.62,6.68,0.36,9.96,0.22c0.5,0.15,1.01,0.29,1.51,0.43    c3.48-0.34,7.06,0.4,10.54-0.2c0.74,0.53,1.73-0.13,2.54-0.07c1.69,0.12,5.59-0.12,6.81-1.05c2.49-2.18,0.94-4.19,0.67-7.33    c-0.04-0.49-0.43-0.65,0.43-2.81c3.03,0.22,2.6-0.22,3.68,1.3c0.25,0.55,0.86,1.4,1.52,1.51c0.28,0.33,0.57,0.67,0.85,1    c0.07,0.25,0.13,0.49,0.2,0.74c0.51,0.6,0.88,2.13,1.12,2.81c0.95,0.27,2.06-0.49,3.03-0.65c1.39,1.48,2.63,2.96,4.11,4.33    c0.6,0.55,0.9,1.42,1.73,1.73c1.01,0.22,2.02,0.43,3.03,0.65c0.5,0.43,1.01,0.87,1.51,1.3c0.87,1.3,1.73,2.6,2.6,3.9    c0.97,0.75,1.2,1.37,1.73,2.38c1.7,2.46,3.4,4.92,5.1,7.37c0.17,0.34,1.06,2.52,0.88,2.64L263.82,378.95z"/>
            <circle cx="161.45" cy="370.3" r="1.586"/>
        </g>
    </g>
</svg>