<?xml version="1.0" encoding="UTF-8"?>
<!DOCTYPE svg PUBLIC "-//W3C//DTD SVG 1.1//EN" "http://www.w3.org/Graphics/SVG/1.1/DTD/svg11.dtd">
<svg version="1.1" id="HaritaCizim" xmlns="http://www.w3.org/2000/svg" xmlns:xlink="http://www.w3.org/1999/xlink" x="0px" y="0px" viewBox="0 0 480 395" preserveAspectRatio="none">
    <defs id="__def">
        <radialGradient id="f">
            <stop offset="0" stop-color="white" stop-opacity="1"/>
            <stop id="STOP1" offset=".4" stop-opacity="1"/>
            <stop offset="1" stop-color="white" stop-opacity=".2"/>
        </radialGradient>
        <filter id="__flt1" x="0" y="0" width="200%" height="200%" filterUnits="objectBoundingBox">
            <feGaussianBlur in="SourceAlpha" stdDeviation="3" result="blur1"/>
            <feSpecularLighting result="specOut" in="blur1" specularConstant="1.5" specularExponent="20" lighting-color="#bbbbbb">
                <feDistantLight azimuth="45" elevation="30"/>
            </feSpecularLighting>
            <feComposite in="specOut" in2="SourceAlpha" operator="in" result="specOut"/>
            <feComposite in="SourceGraphic" in2="specOut" operator="arithmetic" k1="0" k2="1" k3="1" k4="0"/>
        </filter>
        <filter id="__flt2" x="0" y="0" width="200%" height="200%" filterUnits="objectBoundingBox">
            <feGaussianBlur in="SourceAlpha" stdDeviation="3" result="blur1"/>
            <feSpecularLighting result="specOut" in="blur1" specularExponent="20" lighting-color="#bbbbbb">
                <fePointLight x="-2000" y="100" z="2000"/>
            </feSpecularLighting>
            <feComposite in="specOut" in2="SourceAlpha" operator="in" result="specOut"/>
            <feComposite in="SourceGraphic" in2="specOut" operator="arithmetic" k1="0" k2="1" k3="1" k4="0"/>
        </filter>
        <filter id="__flt3" x0="-50%" y0="-50%" width="200%" height="200%" filterUnits="objectBoundingBox">
            <feGaussianBlur in="SourceAlpha" stdDeviation="3" result="blur"/>
            <feOffset in="blur" dx="0" dy="0" result="offsetBlur"/>
            <feSpecularLighting in="blur" surfaceScale="4" specularConstant=".5" specularExponent="20" lighting-color="flavor" result="specOut">
                <fePointLight x="-5000" y="-10000" z="5000"/>
            </feSpecularLighting>
            <feComposite in="specOut" in2="SourceAlpha" operator="in" result="specOut"/>
            <feComposite in="SourceGraphic" in2="specOut" operator="arithmetic" k1="0" k2="1" k3="1" k4="0" result="litPaint"/>
            <feMerge>
                <feMergeNode in="offsetBlur"/>
                <feMergeNode in="litPaint"/>
            </feMerge>
        </filter>
        <filter id="__flt4" x0="-50%" y0="-50%" width="200%" height="200%">
            <feGaussianBlur in="SourceAlpha" stdDeviation="2" result="blur"/>
            <feOffset dy="-1" dx="-1"/>
            <feComposite in2="SourceAlpha" operator="arithmetic" k2="-1" k3="1" result="hlDiff"/>
            <feFlood flood-color="white" flood-opacity=".7"/>
            <feComposite in2="hlDiff" operator="in"/>
            <feComposite in2="SourceGraphic" operator="over" result="withGlow"/>
            <feOffset in="blur" dy="3" dx="3"/>
            <feComposite in2="SourceAlpha" operator="arithmetic" k2="-1" k3="1" result="shadowDiff"/>
            <feFlood flood-color="black" flood-opacity="1"/>
            <feComposite in2="shadowDiff" operator="in"/>
            <feComposite in2="withGlow" operator="over"/>
        </filter>
        <filter id="__golge1" x="0" y="0" width="200%" height="200%" filterUnits="userSpaceOnUse">
            <feOffset result="offOut" in="SourceAlpha" dx="8" dy="8"/>
            <feGaussianBlur result="blurOut" in="offOut" stdDeviation="3"/>
            <feBlend in="SourceGraphic" in2="blurOut" mode="normal"/>
        </filter>
    </defs>
    <g id="__Komsular" display="none">
        <path fill-rule="evenodd" clip-rule="evenodd" fill="none" stroke="#000000" stroke-miterlimit="10" d="M92.25,344.29   c-0.89,0.35-1.29,1.51-2.24,2.07c-1.1,0.65-2.59,0.49-3.76,1.12c-1.67,0.91-4.22,2.6-5.04,4.02c-0.23,0.1-0.44-0.03-0.66,0.08   c-1.63,3.12-10,4.64-13.05,5.97c-4.08,1.78-8.15,2.74-12.74,2.74c-4.26,0-8.87,0.71-12.69,2.55c-2.46,1.19-4.4,2.31-7.31,2.71   c-2.72,0.38-5.74,0.13-8.45,0.74c-5.18,1.17-7.92,2.69-13.51,1.55c-3.95-0.8-7.66-0.17-11.54-0.05"/>
        <path fill-rule="evenodd" clip-rule="evenodd" fill="none" stroke="#000000" stroke-miterlimit="10" d="M267,301.04   c-2.02,0.09-3.94,6.94-5.06,8.69c-2,3.14-4.33,6.12-6.51,9.06c-2.08,2.8-2.74,5.88-2.12,9.75c0.61,3.85,4.06,5.21,5.49,8.21   c1.85,0.38,3.16,2.29,4.96,3.06c1.98,0.84,4.11,0.84,6.25,1.18c4.37,0.69,7.87,3.13,12.24,3.56c5.27,0.51,8.42,3.57,13.27,4.99   c4.58,1.34,8.5,4.35,13.24,5.52c3.52,0.87,7.02,0.13,10.5,1.41c3.24,1.2,7.06,2.74,10.25,4.62c3.37,1.99,6.01,4.97,9.19,7   c1.42,0.9,2.9,1.88,4.32,2.95c1.14,0.87,2.4,2.53,3.7,3.04c1.15,4,4.41,6.19,5.81,9.96c0.65,1.76,0.95,3.9,0.48,5.74   c-0.51,2-2.23,3.34-2.25,5.51"/>
        <path fill-rule="evenodd" clip-rule="evenodd" fill="none" stroke="#000000" stroke-miterlimit="10" d="M368.5,67.79   c0.16-2.97,6.75-6.54,9.5-7.51c1.87-0.66,4.13-0.67,6-1.56c1.92-0.91,2.72-2.77,3.98-3.9c0.51-0.45,1.59-0.93,2.27-1.54   c0.75-0.67,1.2-1.53,1.99-2.2c1.26-1.08,2.9-2.29,4.26-3.06c3.53-1.97,6-4.24,9.06-7.19c4.31-4.14,8.6-8.95,13.49-12.25   c2.84-1.92,5.93-3.02,9.2-4.09c1.76-0.58,2.66-1.13,4.74-1.21c2.15-0.08,4,0.84,6.01,0.5"/>
        <path fill-rule="evenodd" clip-rule="evenodd" fill="none" stroke="#000000" stroke-miterlimit="10" d="M324,68.04   c0.17-1.82-0.04-4.12-0.25-6c-0.27-2.48-1.24-3.5-2.32-5.69c-1.72-3.47-1.15-7.59-3.23-11.05c-2.32-3.85-6.29-5.62-8.94-9.01   c-2.13-2.72-4.17-7.82-2.96-11.49c0.65-1.98,3.72-3.95,4.89-6.01c1.29-2.27,3.06-4.42,4.36-6.25c2.99-4.21,6.67-7.09,10.95-10.49"/>
        <path fill-rule="evenodd" clip-rule="evenodd" fill="none" stroke="#000000" stroke-miterlimit="10" d="M197.75,61.29   c0-4.62-3.03-7.04-1.32-11.81c1.42-3.96,2.93-7.17,0.01-10.9c-1.98-2.53-5.86-5.53-8.74-7.24c-2.74-1.62-5.47-1.76-7.75-4.04   c-1.44-1.44-2.75-3.1-4.18-4.51c-1.5-1.47-3.56-2.51-5.01-4.01c-1.61-1.66-2.23-3.13-4.75-3.51c-0.88-0.13-2.11-0.08-3,0.01   c-1.9,0.21-1.46-0.18-2.24,1.26c-0.43,0.8-0.19,1.86-0.56,2.68c-0.37,0.83-1.3,1.31-1.66,2.31c-1.29,3.55,1.1,7.87,2.39,11.01   c1.53,3.75,2.55,6.26,5.87,9.16c3.05,2.66,4.7,6.14,1.69,10.01c-2.76,3.56-5.6,3.65-9.51,5.06c-2.02,0.73-3.66,2.67-5.74,3.25   c-1.98,0.55-5.61,0.62-7.71,0.51c-3.34-0.17-8.19-0.4-10.06-3.25c-0.07-0.11-0.02-0.82-0.02-0.97c-2.76-2.81-2.73-6.68-3.9-10.54   c-1.25-4.13-2.08-7.98-4-11.81c-1.96-3.9-4.69-5.81-8.81-6.69c-3.91-0.83-9.85,0.14-13.32-1.68c-1.59-0.83-3.19-2.43-4.36-3.62   c-1.23-1.25-2.56-3.36-3.07-5.18c-0.75-2.69,2.12-3.63,2.94-5.82c0.85-2.28-0.66-5.56,1.31-7.19"/>
        <text transform="matrix(0.0257 -0.9997 0.9997 0.0257 424.6836 214.4136)" font-family="'MyriadPro-Regular'" font-size="12">ERZURUM</text>
        <text transform="matrix(1 0 0 1 344 47.04)" font-family="'MyriadPro-Regular'" font-size="12">RİZE</text>
        <text transform="matrix(1 0 0 1 224.25 32.04)" font-family="'MyriadPro-Regular'" font-size="12">TRABZON</text>
        <text transform="matrix(0.3214 -0.9469 0.9469 0.3214 34.3428 209.7563)" font-family="'MyriadPro-Regular'" font-size="12">GÜMÜŞHANE</text>
        <text transform="matrix(1 0 0 1 150.75 350.04)" font-family="'MyriadPro-Regular'" font-size="12">ERZİNCAN</text>
    </g>
    <g id="__Harita" fill="white" stroke="#000000" stroke-width="1" stroke-miterlimit="10" display="none">
        <rect id="__cer" x="0" y="0" fill="#000000" opacity="0" width="480" height="395"/>
        <g id="__Bayburt">
            <path d="    M148.25,292.22c0.47-1.24-0.3-1.83-0.52-3.05c-0.42-2.47-0.84-4.95-1.26-7.42c-0.12-2-0.23-4-0.35-5.99c0-1.7,0.1-3.42-0.54-5.04    c-0.97-2.44-2.27-4.79-3.64-7.03c-0.28-0.3-0.56-0.6-0.83-0.89c-0.72-1.12-1.44-2.23-2.16-3.35c0-0.96,0-1.92,0-2.88    c0.16-0.4,2.89-4,3.6-4.8c0.85,0.11,1.27-1.26,1.92-1.68c0.97-0.62,4.56-4.85,5.04-6c0.24-0.64,0.48-1.28,0.72-1.92    c-0.44-0.54-0.34-1.55,0-2.16c0-1.25-1.41-2.34-2.07-3.35c-0.72-1.8-0.34-1.87,0.35-3.52c0.8-1.6,3.73-1.98,5.32-2.24    c0.5,0.62,1.68,0.38,2.4,0.45c0.93,0.12,4.08-2.95,4.08-3.81c0.63,0,0.16-2.11,0.02-2.57c-0.8-0.6-1.59-1.2-2.39-1.79    c-2.45-2.22-4.88-4.27-7.71-5.95c-0.4-0.83-1.7-1.21-2.44-1.62c-2.23-1.14-4.46-2.28-6.68-3.42c-1.66-1.3-3.6-2.32-5.52-2.64    c-1.84-1.68-3.68-3.36-5.52-5.04c-1.06-0.46-2.12-0.92-3.18-1.37c-1.66-1.06-3.32-2.13-4.98-3.19c-1.18-0.57-2.23-0.88-3.29-1.74    c-1.79-1.9-3.58-3.8-5.37-5.69c-0.69-0.75-1.19-1.6-2.27-2.05c-0.99-0.41-1.88-1.26-3.04-1.02c-0.91-0.43-1.6-0.65-2.6-0.38    l-0.52-0.88c-0.63-3.4-0.92-7.54-2.59-10.57c-0.24-0.72-0.48-1.44-0.72-2.16c-0.28-1.28-0.56-2.57-0.83-3.85    c-0.8-2.09-1.2-4.06-1.57-6.23c-0.24-1.12-0.48-2.24-0.72-3.36c0.49-6.22,3.45-10.29,6.25-15.49c1.92-3.64,3.83-7.28,5.75-10.91    c0.32-1.04,0.64-2.08,0.96-3.12c0.48-1.44,0.96-2.88,1.44-4.32c0.68-3.98,1.36-7.96,2.04-11.94c0.44-1.38,0.88-2.76,1.32-4.14    c3.04-5.14,7.31-8.64,11.76-12.48c1.13-1.65,2.26-3.31,3.39-4.96l0.88-1.48c2.34,1.51,4.68,3.02,7.01,4.52    c1.04,1.2,2.08,2.4,3.12,3.6c1.52,0.8,3.04,1.6,4.56,2.4c0.96,1.04,1.92,2.08,2.88,3.12c2.08,3.2,4.16,6.4,6.24,9.6    c1.14,1.52,2.03,4.14,2.4,6c0.96,0.88,1.92,1.76,2.88,2.64c1.1,0.67,2.21,1.35,3.31,2.02c1.86,1.17,3.72,2.33,5.57,3.5    c0.38,0,3.96,2,4.56,2.4c1.13,0.76,3.6,0.85,4.32,1.92c4.59,1.35,8.03,1.3,12.72,1.44c1.36-0.16,2.72-0.32,4.08-0.48    c1.56,0.31,3.1,0.53,4.56,1.2c3.21,1.48,6.18,4.85,8.16,7.68c0.72,1.36,1.44,2.72,2.16,4.08c0.4,0.32,0.8,0.64,1.2,0.96    c0.65,0.78,1.11,2,2.15,2.2c2.79,0.59,5.16-1.43,7.94-1.99c4.98-1.01,12.02-1.26,15.11-5.97c0.4-1.2,0.8-2.4,1.2-3.6    c0.09-0.94-0.09-2.03,0.48-2.88c0.42-0.62,1.68-4.39,1.68-5.28c0.94-1.1,1.14-2.46,1.92-3.6c0.88-0.56,1.76-1.12,2.64-1.68    c1.1-0.91,1.54-2.36,2.29-3.51c0.39-0.6,1.36-1.74,0.97-2.45c-1.25-2.29-1.68-1.58-3.77-2.57c-0.48-0.23-3.33-1.61-4.76-2    c-2.24-0.54-5.24-2.32-5.81-4.64c-0.1-0.61-0.26-0.84,0.1-1.36c0.35-0.41,1.04-1.45,1.44-1.54c0.72-0.14,0.24-0.48,1.61-0.65    c3.13,1.65,7.02,4.34,10.6,3.43c0.36,0.02,0.73,0.04,1.09,0.05c0.92-0.63,2.45-2.11,2.83-3.05c0.21-0.88,0.43-1.76,0.64-2.64    c0.23-0.22,0.22-0.86,0.59-1.49c0.11-0.7,0.33-2.22,0.33-2.54c0.84-1.69,1.13-3.23,1.44-5.04c0.38-0.76,0.76-1.52,1.15-2.29    c0.18-0.52,0.35-1.03,0.53-1.55c0.1-3.16-0.61-5.91,0.72-8.88c0.4-2,0.8-4,1.2-6c0.26-1.52,0.52-3.03,0.78-4.55    c0.22-0.65,0.44-1.29,0.67-1.94c0.04-0.87-0.06-1.34,0.23-2.15c0,0,3.36,0.57,3.84,0.48c2.25-0.14,4.49-0.27,6.74-0.41    c1.03,0.06,2.07,0.11,3.1,0.17c3.84-1.2,7.68-2.4,11.52-3.6c2.4-0.29,4.8-0.58,7.2-0.87c2.48-0.08,4.96-0.16,7.43-0.23    c1.52-0.35,3.05-0.71,4.57-1.06c2,0.4,4,0.8,6,1.2c2.48-0.15,4.35,0.61,6.74,1.13c3.03,0.67,6.06,1.35,9.09,2.02    c0.91,0.29,2.33,0.36,3.13,1.17c1.76,0.28,3.17,0.42,4.56,1.44c2.66-1.17,5.54-0.03,8.3,0.24c2.46,0.24,4.82,0.62,7.27,0.08    c1.37-0.03,2.73-0.05,4.1-0.08c2.96-0.88,5.92-1.76,8.88-2.64c2.13-0.32,4.27-0.64,6.4-0.96c-1.1,3.3-2.97,6.76-3.23,10.26    c-0.43,0.45-0.62,1.36-0.53,1.98c-1.04,2.88-2.08,5.76-3.12,8.64c-1.6,1.52-3.2,3.04-4.8,4.56c-1.42,0.98-2.85,1.96-4.27,2.95    c-0.94,0.85-1.88,1.71-2.81,2.56c-0.2-0.08-0.4-0.15-0.59-0.23c-0.06,0.25-0.12,0.49-0.17,0.74c-0.54,2.59-1.06,6.79-0.31,9.58    c0.35,1.3,1.13,2.52,1.39,3.87c0.1,1.03,0.19,2.06,0.29,3.09c0.48,0.8,0.96,1.6,1.44,2.4c0.16,0.8,0.32,1.6,0.48,2.4    c0.16,0.08,0.32,0.16,0.48,0.24c0.4,0.88,0.8,1.76,1.2,2.64c2.13,0.66,4.89,3.93,6.19,6.04c0.4,0.86,0.81,1.72,1.21,2.57    c-0.06,1.21-0.13,2.42-0.19,3.62c-1.02,4.22-2.21,8.22-5.84,11.07c-2.54,1.99-5.66,2.87-8.45,4.4c-1.34,0.73-2.53,0.89-3.15,2.23    c-1.03,2.37-0.4,4.55,1.16,6.5c-0.1,1.43,2.92,5.29,3.98,6.39c0.09,0.98,0.82,1.55,1.33,2.35c1.42,2.22,3.26,3.99,4.95,5.97    c1.95,2.29,5.13,5.28,7.7,6.71c0.64,0.64,1.28,1.28,1.92,1.92c0.97,0.68,1.94,1.35,2.9,2.03c1.16,0.65,2.45,2.53,3.82,2.53    c0.79,0.9,1.58,1.79,2.36,2.69c0.73,1.02,1.46,2.04,2.2,3.07c0.33,0.65,0.66,1.29,0.99,1.94c1.32,1.87,2.48,3.65,3.37,5.78    c0.76,0.58,1.51,1.17,2.27,1.75c0.66,0.8,2.11,2.38,2.42,2.11c1.46,0.94,2.93,1.88,4.39,2.81c3.78,0.76,7.33,1.53,10.99,2.77    c1.3,0.6,2.6,1.2,3.89,1.79c1.41,1.9,3.12,3.93,3.84,6.24c0.62,2.01,1.11,4.62,0.72,6.72c-0.16,0.4-0.15,4.29-0.67,5.96    c-0.59,1.65-1.19,3.31-1.78,4.96c0.1,0.12,0.19,0.23,0.29,0.35c-1.7,1.79-2.67,3.83-3.84,6c-1.04,1.52-2.08,3.04-3.12,4.56    c0.08,0.64-4.44,3.75-6.26,5.26c-2.98,2.46-5.75,4.34-9.03,6.37c-1.3,0.76-2.61,1.53-3.91,2.29c-2.18,0.98-4.37,1.96-6.55,2.94    c-1.13,0.48-2.35,0.79-2.81,2.1c-2.8,1.37-5.6,2.73-8.39,4.1c-1,0.43-1.97,1.18-3.13,1.18c-1.44,0.96-2.88,1.92-4.32,2.88    c-4.2,2.12-8.88,1.91-13.44,2.64c-0.57,0.3-1.15,0.6-1.72,0.9c-2.43,2.43-5.4,3.64-6.9,6.86c-0.6,0.36-2.16,3-2.18,3.76    c-0.51,0.73-1.53,1.75-1.44,2.64c-1.52,1.28-3.04,2.56-4.56,3.84c-0.62,0-3.32,2.52-3.6,3.12c-0.56,0.48-1.12,0.96-1.68,1.44    c-2.22,0.87-4.34,1.35-6.53,2.27c-0.7,0.3-1.71,0.44-2.11,1.09c-3.04,0.24-6.08,0.48-9.12,0.72c-3.49-0.16-7.78-0.76-11.22-0.19    c-1.06,0.19-5.18,0.35-5.82-0.05c-0.44,0.38-4.8-1.4-5.76-1.49c-1.68-0.14-3.36-0.29-5.04-0.43c-2.11-0.45-7.97-0.56-8.64-0.72    c-3.26-1.88-6.86-2.77-10.56-3.36c-3.13-0.99-6.27-1.98-9.4-2.97c-6.98-2.01-13.84-3.39-21.08-3.99    c-6.08-0.56-12.16-1.12-18.24-1.68c-0.95-0.46-4.44-1.31-4.8-1.92c-1.13,0.14-2.27-0.47-3.34-1.01c-1.6-0.46-3.16-0.79-4.75-1.25    c-0.8-0.64-1.91-0.7-2.71-1.34c-0.24,0-7.41-0.66-10.81-0.88c-1.84,0.05-3.68,0.11-5.51,0.16c-1.12,0.16-2.24,0.32-3.36,0.48    c-0.82,0.22-2.64,1.24-3.36,0.96c-3.76,2.24-7.52,4.48-11.28,6.72c-1.88,0.9-3.77,1.81-5.65,2.71c-0.67,0.22-2,0.65-2.06,0.17    C149.01,293.52,148.92,292.96,148.25,292.22z"/>
            <circle cx="236.38" cy="191.67" r="1.586"/>
        </g>
        <g id="__Demirözü">
            <path d="    M105.36,189.04c1-0.28,1.68-0.06,2.6,0.38c1.16-0.24,2.06,0.61,3.04,1.02c1.07,0.44,1.57,1.3,2.27,2.05    c1.79,1.9,3.58,3.8,5.37,5.69c1.05,0.85,2.1,1.17,3.29,1.74c1.66,1.06,3.32,2.13,4.98,3.19c1.06,0.46,2.12,0.92,3.18,1.37    c1.84,1.68,3.68,3.36,5.52,5.04c1.92,0.32,3.86,1.34,5.52,2.64c2.23,1.14,4.46,2.28,6.68,3.42c0.73,0.41,2.04,0.79,2.44,1.62    c2.83,1.68,5.26,3.73,7.71,5.95c0.8,0.6,1.59,1.2,2.39,1.79c0.14,0.46,0.61,2.57-0.02,2.57c0,0.86-3.15,3.93-4.08,3.81    c-0.72-0.07-1.9,0.17-2.4-0.45c-1.6,0.26-4.52,0.64-5.32,2.24c-0.69,1.66-1.06,1.73-0.35,3.52c0.66,1.02,2.07,2.1,2.07,3.35    c-0.34,0.61-0.44,1.62,0,2.16c-0.24,0.64-0.48,1.28-0.72,1.92c-0.48,1.15-4.07,5.38-5.04,6c-0.65,0.42-1.07,1.79-1.92,1.68    c-0.71,0.8-2.29,3.36-3.12,3.6c-0.16,0.4-0.32,0.8-0.48,1.2c0,0.96,0,1.92,0,2.88c0.72,1.12,1.44,2.23,2.16,3.35    c0.28,0.3,0.55,0.59,0.83,0.89c1.37,2.25,2.67,4.59,3.64,7.03c0.64,1.62,0.54,3.34,0.54,5.04c0.12,2,0.23,4,0.35,5.99    c0.42,2.47,0.84,4.95,1.26,7.42c0.22,1.23,0.99,1.81,0.52,3.05c0.67,0.73,0.47,1.83,0.31,2.74c-2.56,1.44-5.12,2.88-7.68,4.32    c-1.28,0.8-2.56,1.6-3.84,2.4c-3.44,1.76-6.88,3.52-10.32,5.28c-3.6,3.2-7.2,6.4-10.8,9.6c-0.72,0.96-1.44,1.92-2.16,2.87    c-1.8,3.26-4.17,6.22-6.72,8.89c-0.72,0.48-1.44,0.96-2.16,1.44c-3.27,2.86-6.64,5.96-8.24,10.11c-0.27,0.71-2.04,4.29-2.33,4.29    c-1.32,0-1.62,0.28-2.76-0.62c-3.51-2.81-6.75-5.64-9.34-9.31c-1.16-1.73-2.33-3.46-3.49-5.19c-1.05-2.44-2.29-4.74-4.08-6.72    c-2.44-2.69-6.57-4.76-9.75-6.43c-1.13-0.59-2.59-1.97-3.93-1.97c-1.68-1.04-3.36-2.08-5.04-3.12c0-0.57-3.19-2.71-3.84-3.12    c-0.48-0.64-0.96-1.28-1.44-1.92c-0.72-0.88-1.44-1.76-2.16-2.64c-0.99-1.67-1.98-3.34-2.96-5.01c-0.45-1.13-0.91-2.26-1.36-3.39    c-1.82-3.64-2.39-7.63-3.36-11.52c-2.34-9.36-4.73-19.11,2.04-27.27c2.12-2.19,4.24-4.38,6.36-6.57c0.95-0.49,1.9-0.99,2.85-1.48    c0.74-0.6,1.48-1.2,2.21-1.8c2.5-1.49,5.19-2.41,7.9-3.44c2.15-0.83,4.31-1.65,6.46-2.48c3.52-0.94,7.05-1.87,10.58-2.81    c3.72-1,8.32-4.39,10.8-7.2c2.24-2.72,4.48-5.44,6.72-8.16c0.95-1.84,1.9-3.68,2.86-5.52c0.32-1,0.7-1.88,1.46-2.64    c0-2.08,2.6-5.63,3.29-8.17c0.24-0.88,0.25-2.52,1.03-3.11c0.09-2.82,0.09-5.62,0-8.4c-0.02-0.5,0.3-2.64-0.24-2.64    C105.16,191.01,104.91,189.17,105.36,189.04z"/>
            <circle cx="120.75" cy="234.29" r="1.586"/>
        </g>
        <g id="__Aydıntepe">
            <path d="    M248.29,121c-1.25-2.29-1.68-1.58-3.77-2.57c-0.48-0.23-3.33-1.61-4.76-2c-2.24-0.54-5.24-2.32-5.81-4.64    c-0.1-0.61-0.26-0.84,0.1-1.36c0.35-0.41,1.04-1.45,1.44-1.54c0.72-0.14,0.24-0.48,1.61-0.65c3.13,1.65,7.02,4.34,10.6,3.43    c0.36,0.02,0.73,0.04,1.09,0.05c0.92-0.63,2.45-2.11,2.83-3.05c0.21-0.88,0.43-1.76,0.64-2.64c0.23-0.22,0.22-0.86,0.59-1.49    c0.11-0.7,0.33-2.22,0.33-2.54c0.84-1.69,1.13-3.23,1.44-5.04c0.38-0.76,0.76-1.52,1.15-2.29c0.18-0.52,0.35-1.03,0.53-1.55    c0.1-3.16-0.61-5.91,0.72-8.88c0.4-2,0.8-4,1.2-6c0.26-1.52,0.52-3.03,0.78-4.55c0.22-0.65,0.44-1.29,0.67-1.94    c0.04-0.87-0.06-1.34,0.23-2.15c-0.24-0.08-3.18-0.86-3.42-0.94c-4.08-0.88-5.46-1.06-9.54-1.94c-1.8-0.84-3.6-1.68-5.41-2.52    c-0.91-0.47-1.39-0.32-2.3-0.79c-0.96-0.79-1.38-0.63-2-1.38c-0.08-0.48,0.19-3.48,0.11-3.96c-0.48-1.2-0.96-2.4-1.44-3.6    c-0.45-1.59-2.18-5.39-3.29-6.51c-1.25-1.28-3.01-2.81-5.36-2.38c-0.04,0.03-0.07,0.07-0.1,0.1c-0.72,0.72-2.8,2.58-2.77,3.74    c-0.49,0.54-1.02,0.97-1.2,1.68c-2.16,1.04-4.32,2.09-6.48,3.13c-0.69,0.49-3.48,3.8-3.36,4.54c-0.4,0.24-0.8,0.48-1.2,0.72    c-3.52,0.4-7.04,0.8-10.56,1.2c-0.94,0.03-2.99,0.82-3.6,0c-0.34,0.63-0.68,1.25-1.01,1.88c-0.24,0.58-0.7,1.87-0.43,2.44    c-1,1.44-1.49,2.95-2.03,4.61c-0.19,0.57-0.61,1.32-0.37,1.87c-0.72,0.88-1.44,1.76-2.16,2.64c-0.48,0.32-0.96,0.64-1.44,0.96    c-1.5,0.46-3.01,0.92-4.58,1c-1.03-0.09-2.07-0.19-3.1-0.28c-2.16,0.13-4.32,0.27-6.47,0.4c-1.84,0.27-3.69,0.54-5.53,0.8    c-2.48,0.56-4.96,1.12-7.44,1.68c-3.44,1.2-6.88,2.4-10.32,3.6c-1.38,0.42-2.56,0.2-3.81,0.75c-4.72,2.08-9.89,3.7-14.23,6.52    c-0.79,0.51-3.79,2.99-2.9,3.57c2.34,1.51,4.68,3.02,7.01,4.52c1.04,1.2,2.08,2.4,3.12,3.6c1.52,0.8,3.04,1.6,4.56,2.4    c0.96,1.04,1.92,2.08,2.88,3.12c2.08,3.2,4.16,6.4,6.24,9.6c1.14,1.52,2.03,4.14,2.4,6c0.96,0.88,1.92,1.76,2.88,2.64    c1.1,0.67,2.21,1.35,3.31,2.02c1.86,1.17,3.72,2.33,5.57,3.5c0.38,0,3.96,2,4.56,2.4c1.13,0.76,3.6,0.85,4.32,1.92    c4.59,1.35,8.03,1.3,12.72,1.44c1.36-0.16,2.72-0.32,4.08-0.48c1.56,0.31,3.1,0.53,4.56,1.2c3.21,1.48,6.18,4.85,8.16,7.68    c0.72,1.36,1.44,2.72,2.16,4.08c0.4,0.32,0.8,0.64,1.2,0.96c0.65,0.78,1.11,2,2.15,2.2c2.79,0.59,5.16-1.43,7.94-1.99    c4.98-1.01,12.02-1.26,15.11-5.97c0.4-1.2,0.8-2.4,1.2-3.6c0.09-0.94-0.09-2.03,0.48-2.88c0.42-0.62,1.68-4.39,1.68-5.28    c0.94-1.1,1.14-2.46,1.92-3.6c0.88-0.56,1.76-1.12,2.64-1.68c1.1-0.91,1.54-2.36,2.29-3.51    C247.72,122.85,248.68,121.71,248.29,121z"/>
            <circle cx="210.25" cy="130.79" r="1.586"/>
        </g>
    </g>
</svg>