<?xml version="1.0" encoding="UTF-8"?>
<!DOCTYPE svg PUBLIC "-//W3C//DTD SVG 1.1//EN" "http://www.w3.org/Graphics/SVG/1.1/DTD/svg11.dtd">
<svg version="1.1" id="HaritaCizim" xmlns="http://www.w3.org/2000/svg" xmlns:xlink="http://www.w3.org/1999/xlink" x="0px" y="0px" viewBox="0 0 500 496" preserveAspectRatio="none">
    <defs id="__def">
        <radialGradient id="f">
            <stop offset="0" stop-color="white" stop-opacity="1"/>
            <stop id="STOP1" offset=".4" stop-opacity="1"/>
            <stop offset="1" stop-color="white" stop-opacity=".2"/>
        </radialGradient>
        <filter id="__flt1" x="0" y="0" width="200%" height="200%" filterUnits="objectBoundingBox">
            <feGaussianBlur in="SourceAlpha" stdDeviation="3" result="blur1"/>
            <feSpecularLighting result="specOut" in="blur1" specularConstant="1.5" specularExponent="20" lighting-color="#bbbbbb">
                <feDistantLight azimuth="45" elevation="30"/>
            </feSpecularLighting>
            <feComposite in="specOut" in2="SourceAlpha" operator="in" result="specOut"/>
            <feComposite in="SourceGraphic" in2="specOut" operator="arithmetic" k1="0" k2="1" k3="1" k4="0"/>
        </filter>
        <filter id="__flt2" x="0" y="0" width="200%" height="200%" filterUnits="objectBoundingBox">
            <feGaussianBlur in="SourceAlpha" stdDeviation="3" result="blur1"/>
            <feSpecularLighting result="specOut" in="blur1" specularExponent="20" lighting-color="#bbbbbb">
                <fePointLight x="-2000" y="100" z="2000"/>
            </feSpecularLighting>
            <feComposite in="specOut" in2="SourceAlpha" operator="in" result="specOut"/>
            <feComposite in="SourceGraphic" in2="specOut" operator="arithmetic" k1="0" k2="1" k3="1" k4="0"/>
        </filter>
        <filter id="__flt3" x0="-50%" y0="-50%" width="200%" height="200%" filterUnits="objectBoundingBox">
            <feGaussianBlur in="SourceAlpha" stdDeviation="3" result="blur"/>
            <feOffset in="blur" dx="0" dy="0" result="offsetBlur"/>
            <feSpecularLighting in="blur" surfaceScale="4" specularConstant=".5" specularExponent="20" lighting-color="flavor" result="specOut">
                <fePointLight x="-5000" y="-10000" z="5000"/>
            </feSpecularLighting>
            <feComposite in="specOut" in2="SourceAlpha" operator="in" result="specOut"/>
            <feComposite in="SourceGraphic" in2="specOut" operator="arithmetic" k1="0" k2="1" k3="1" k4="0" result="litPaint"/>
            <feMerge>
                <feMergeNode in="offsetBlur"/>
                <feMergeNode in="litPaint"/>
            </feMerge>
        </filter>
        <filter id="__flt4" x0="-50%" y0="-50%" width="200%" height="200%">
            <feGaussianBlur in="SourceAlpha" stdDeviation="2" result="blur"/>
            <feOffset dy="-1" dx="-1"/>
            <feComposite in2="SourceAlpha" operator="arithmetic" k2="-1" k3="1" result="hlDiff"/>
            <feFlood flood-color="white" flood-opacity=".7"/>
            <feComposite in2="hlDiff" operator="in"/>
            <feComposite in2="SourceGraphic" operator="over" result="withGlow"/>
            <feOffset in="blur" dy="3" dx="3"/>
            <feComposite in2="SourceAlpha" operator="arithmetic" k2="-1" k3="1" result="shadowDiff"/>
            <feFlood flood-color="black" flood-opacity="1"/>
            <feComposite in2="shadowDiff" operator="in"/>
            <feComposite in2="withGlow" operator="over"/>
        </filter>
        <filter id="__golge1" x="0" y="0" width="200%" height="200%" filterUnits="userSpaceOnUse">
            <feOffset result="offOut" in="SourceAlpha" dx="8" dy="8"/>
            <feGaussianBlur result="blurOut" in="offOut" stdDeviation="3"/>
            <feBlend in="SourceGraphic" in2="blurOut" mode="normal"/>
        </filter>
    </defs>
    <g id="__Komsular" display="none">
        <path fill-rule="evenodd" clip-rule="evenodd" fill="none" stroke="#000000" stroke-miterlimit="10" d="M117.08,0   c1.52,1.88,3.76,0.54,5.68,1.21c1.6,0.56,3.05,1.6,4.6,2.26c1.88,0.8,4.22,0.15,6.03,0.91c1.8,0.76,3,2.63,4.63,3.57   c1.55,0.9,3.62,1.91,5.42,1.7c2.14-0.25,4.34-0.84,6.53-1.19c3.72-0.59,8.57,0.61,11.39,2.91c1.5,1.22,3.12,2.41,5.17,2.54   c1,0.06,2.17-0.21,3.15,0c0.84,0.18,1.67,0.81,2.45,1.3c1.08,0.68,1.38,0.93,1.3,2.33c-0.06,1-0.06,1.73,0.13,2.65   c0.19,0.94,0.75,1.61,0.87,2.52c0.19,1.49-1.05,0.43-1.7,1.6c-0.43,0.78,0.07,2.48-0.02,3.39c-0.11,1.12-0.16,1.84-0.01,2.9   c0.14,0.97-0.08,2.14,0.12,3.14c0.28,1.4,0.88,1.01,2.08,0.85c1.04-0.14,2.09-0.02,3.12-0.24c0.91-0.19,1.65-0.9,2.39-1.24   c1.68-0.77,3.7-0.64,5.32-1.45c1.8-0.9,2.95-1.9,4.95-2.32c2.07-0.44,3.5-1.76,5.23-2.88c1.61-1.04,3.22-1.86,4.75-2.96   c0.68-0.49,1.29-1.12,2-1.51c0.77-0.43,1.62-0.55,2.36-1.15c1.32-1.07,2.58-2.52,3.73-3.75c2.55-2.76,5.41-4.7,8.06-7.31   c2-1.97,3.37-2.62,6.2-2.75c1.98-0.09,3.96-0.26,6.05-0.36c2.82-0.13,4.99-1.58,7.98-1.57c3.1,0.01,5.62-0.44,7.75-2.78"/>
        <path fill-rule="evenodd" clip-rule="evenodd" fill="none" stroke="#000000" stroke-miterlimit="10" d="M197.39,40.03   c0-0.92,0.49-2.58,0.12-3.39c-0.39-0.87-1.59-1.65-2.3-2.32c-1.25-1.18-4.29-3.47-4.84-5.05"/>
        <path fill-rule="evenodd" clip-rule="evenodd" fill="none" stroke="#000000" stroke-miterlimit="10" d="M415.09,149.25   c-0.99-1.64-1.91-3.99-2.85-5.81c-0.94-1.82-2.02-3.04-3.43-4.59c-3.1-3.42-4.14-5.98-0.98-9.92c2.94-3.66,7.95,2.12,11.38-1.39   c3.14-3.22-1.53-7.62-4.68-8.57c-3.75-1.13-8.55,0.33-8.64-5.09c-0.07-4.29,4.97-6.31,6.1-10.29c1.01-3.57-1.46-7.66-2.47-10.95   c-1.12-3.64-1.59-7.49-1.21-11.6c0.19-2.07,0.23-4.89,0.71-7.03c0.54-2.38,2.97-3.52,3.88-5.56c1.09-2.44,0.45-4.58,2.24-7.01   c1.67-2.27,3.76-2.94,6.68-3.65c0.32-2.31-0.37-4.15,1.99-5.06c1.9-0.74,4.26-0.43,6.22-0.96c3.46-0.93,4.86-5.24,8.23-6.83   c3.29-1.55,9.35-1.84,13.12-0.85c1.81,0.47,3.4,1.67,5.13,2.54c2.26,1.13,3.69,0.98,6.24,0.72c5.56-0.57,4.39,3.06,7.06,6.56   c1.99,0.43,4.07-3.54,5.78-4.49c1.11-0.62,2.57-0.87,3.62-1.57c1.32-0.88,0.75-1.24,2.65-1.65c2.8-0.6,5.62-0.69,8.47-1.26   c1.27-0.25,2.36-0.65,3.64-0.91c1.26-0.25,2.97,0,4.1-0.73"/>
        <path fill-rule="evenodd" clip-rule="evenodd" fill="none" stroke="#000000" stroke-miterlimit="10" d="M440.01,200.77   c-1.08-3.89,5.23-7.01,8.43-6.98c-0.23,4.55,4.08,6.02,7.11,8.12c1,0.69,1.96,1.38,2.61,2.44c0.44,0.73,0.21,1.99,0.78,2.66   c1.35,1.6,3.18,0.31,4.78,0.05c2.31-0.37,4.47,0.69,6.54,0.44c2.51-0.31,3.24-1.06,5.97-0.13c2.81,0.95,4.42,1.74,7.33,1.88   c2.41,0.11,4.07,0.86,6.28,1.71c2.01,0.77,2.86,1.46,4.54,2.95c1.6,1.42,2.83,2.67,5.1,2.33c0.06-1.21-0.3-3.04,0.52-3.6"/>
        <path fill-rule="evenodd" clip-rule="evenodd" fill="none" stroke="#000000" stroke-miterlimit="10" d="M218.43,435.66   c1.9-0.43,4.25-0.88,6.05-1.45c1.93-0.61,3.03-1.78,5.13-2.13c4.36-0.71,7.94,0.03,11.87-2.17c3.47-1.94,7.6-2.12,11.54-2.53   c4.41-0.46,8.47,1.22,12.9-0.43c2.51-0.93,3.87-1.71,6.59-1.16c1.65,0.33,4.08,0.78,5.25,2.3c1.14,1.47,1.16,3.78,1.45,5.58   c0.3,1.87,1.07,3.72,1.34,5.62c0.3,2.08-0.18,4.1,0.53,6.07c0.81,2.25,2.81,3.58,4.08,5.53c1.14,1.76,1.29,3.91,1.73,5.82   c0.52,2.26,1.67,4.14,2.2,6.29c1.01,4.1,1.13,7.23,4.4,10.34c3.3,3.13,6.65,6.09,11.05,7.86c4.97,1.99,10.15,3.15,14.76,5.69   c2.01,1.1,2.7,1.92,3.93,3.69c0.99,1.43,1.11,3.31,2.13,4.59"/>
        <path fill-rule="evenodd" clip-rule="evenodd" fill="none" stroke="#000000" stroke-miterlimit="10" d="M113.69,346.64   c-4.06-0.87-8.47,0.01-12.59-0.74c-3.46-0.63-6.56-2.68-9.13-4.88c-2.31-1.97-4.82-8.41-8.26-8.13c-1.77,0.14-4.29,3.46-5.58,4.5   c-1.55,1.25-3.61,3.2-5.56,3.87c-3.41,1.17-8.46,0.78-12.09,0.78c-4.11,0-8.33,0.23-12.39-0.24c-3.84-0.44-7.21-2.42-10.84-3.63   c-2.18-0.73-4.3-1.97-6.53-2.43c-2.48-0.51-4.71-0.17-7.07-1.26c-2.36-1.09-8.65-3.4-11.26-2.32c-1.1,0.46-3.17,3.69-3.68,4.61   c-1.13,2.03-0.89,3.78-1.21,6.05c-0.6,4.33-1.94,8.55-1.94,13.21c0,4.4-1.51,7.87-5.56,9.96"/>
        <text transform="matrix(0.8711 0.4911 -0.4911 0.8711 306.4307 30.8289)" font-family="'MyriadPro-Regular'" font-size="8.7083">SAKARYA</text>
        <text transform="matrix(0.4514 0.8923 -0.8923 0.4514 460.6724 127.2461)" font-family="'MyriadPro-Regular'" font-size="8.7083">BOLU</text>
        <text transform="matrix(0.5583 -0.8296 0.8296 0.5583 404.9341 375.606)" font-family="'MyriadPro-Regular'" font-size="8.7083">ESKİŞEHİR</text>
        <text transform="matrix(0.8447 0.5353 -0.5353 0.8447 78.4614 443.25)" font-family="'MyriadPro-Regular'" font-size="8.7083">KÜTAHYA</text>
        <text transform="matrix(0.3725 -0.928 0.928 0.3725 35.9924 187.3918)" font-family="'MyriadPro-Regular'" font-size="8.7083">BURSA</text>
    </g>
    <g id="__Harita" display="none">
        <rect id="__cer" x="0" y="0" fill="#000000" opacity="0" width="500" height="496"/>
        <g id="__Bilecik">
            <path d="M260.04,206.22    c0-0.59,0.37-5.72,0.6-6.89c0.59-2.95-0.01-4.65-2.13-6.71c-2.29-2.1-8.24-0.81-11.29-1.27c-1.77-0.73-3.55-1.45-5.32-2.18    c-4.89-2.51-9.68-9.68-12.46-11.97c-0.94-1.16-2.06-2.66-1.81-4.6c0.24-1.69,0.42-4.44,1.57-4.47c0.88-0.03,3.56-0.94,3.51-1.45    c0.86-0.23,1.23-1.61,1.94-2.18c1.81-1.45,3.27-2.66,3.87-5.32c0.24-0.97,0.48-1.94,0.73-2.9c-0.16-3.31-0.32-6.61-0.48-9.92    l0.24-0.49c-0.32-0.16-0.65-0.32-0.97-0.47c0.16-0.08-3.14-1.19-4.82-2.2c-4.38-2.64-10.16-3.27-10.53-3.4    c-2.97-0.96-5.51,0.59-7.64,2.46c-0.62-0.33-2.28,0.58-2.9,0.97c-0.73,0.12-3.02,0.85-3.75,0.97c-1.56,0.23-1.81,0-3.02-0.48    c-0.97-0.4-1.94-0.81-2.9-1.21c-0.21-0.84-2.32-2.12-3.07-2.8c-2.53-2.29-5.58-4.09-7.82-6.64c-0.97-0.6-1.09-0.73-2.42-0.85    c-0.76,0.41-2.57,1.31-3.33,1.72c-2.27,1.17-4.35,2.24-6.87,2.88c-2.53,0.64-4.45,1.09-6.98,1.33c-1.13,0.41-2.26,0.82-3.39,1.22    c-2.98,0.5-5.96,1.01-8.94,1.51c-2.66,0.38-5.33,0.76-7.99,1.13c-0.85-0.12-1.09,0-1.57-0.6l-0.66,2.12    c-0.11,0.67-0.32,1.3,0.05,1.87c-0.24,0.56-0.48,1.13-0.73,1.69c-0.48,0.81-0.97,1.61-1.45,2.42c-1.57,1.99-3.19,3.5-3.63,6.05    c-0.26,1.53-1.04,3.11-0.23,4.55c0.48,0.58,0.96,1.16,1.44,1.74c0.7-0.04,1.71,0.24,2.18-0.24c0.05,0.04,0.09,0.08,0.14,0.12    c0.8,0.75,1.15,1.26,1.25,2.37c0.5,0.16,0.67,0.03,0.4,0.34c-2.45,3.03-5.95,3.65-9.1,5.57c-0.92,0.56-3.4,2.48-4.3,2.49    c-0.73,0.89-1.45,1.77-2.18,2.66c-0.54,2.18-1.08,4.35-1.62,6.53c-0.19,1.13-0.37,2.26-0.56,3.39c0.04,1.36,0.21,4.13-1.29,4.88    c-2.01,1.03-4.24,1.24-6.45,1.48c-0.69,0.08-1.85,0.55-2.43,0.17c-1.36,0.63-4.35,1.94-5.08,3.14c-0.8,0.42-1.6,0.84-2.4,1.25    c-0.99,0.71-2.29,2.48-3.41,2.62c-1.56,2.18-2.66,4.42-3.87,6.77c-0.73,1.69-1.45,3.39-2.18,5.08c-0.36,1.45-0.75,2.55-1.09,4.11    c-0.11,0.11-0.55,4.18-0.63,4.42c-0.88,3.52,1.37,9.35,2.88,12.53c0.47,0.67,0.94,1.34,1.41,2c0.65,2,1.3,3.99,1.94,5.99    c0.37,1.23,0.8,2.51,1.16,4.32c0.38,0.78,0.81,2.79,0.97,2.78c1.66-0.11,5.08-2.06,6.65-2.06c0.81-0.4,2.58-0.56,3.39-0.97    c1.37-0.97,2.26-1.81,3.63-2.78c4.19-2.56,5.81-4.11,8.59-6.41c0.48-0.4,10.04-5.4,10.52-5.81c1.21,0,3.14-0.48,4.35-0.48    c1.29,0.08,2.58,0.16,3.87,0.24c0.85,0.28,2.08,0.99,2.9,0.73c1.45,1.29,2.9,2.58,4.35,3.87c0.86,0.75,0.86,2.57,1.94,2.9    c0.73,2.26,1.45,4.52,2.18,6.77c0.56,0.97,1.13,1.94,1.69,2.9c0.4,0.48,0.81,0.97,1.21,1.45c0.81,0.56,1.61,1.13,2.42,1.69    c1.13,0.48,2.26,0.97,3.39,1.45c0.97,0.32,4.35,1.37,5.32,1.69c1.57-0.6,1.91-0.8,4.35-0.24c0.77,0.44,1.54,0.89,2.31,1.33    c0.63-0.22,1.06,0.5,1.56,0.85c0.48,0.16,0.97,0.32,1.45,0.48c0.67,0.55,1.35,1.09,2.02,1.64c1.1,1.15,2.2,2.29,3.3,3.44    c2.7,1.9,4.84,3.97,7.32,6.09c1.3,1.11,4.14,3.56,5.75,2.99c0.88,0.34,2.28-0.66,2.66-2.3c0.41-1.09,0.68-1.98,1.67-2.53    c0.51-0.37,1.22,0.05,1.72-0.37c0.05,0.07,1.55,3.4,0.73,4.6c0.22,1.22,0.45,2.44,0.67,3.66c0.25,0.95,0.22,1.91,0.91,2.43    c2.71,2.04,5.98,4.05,7.68,6.92c0.46,0.99,0.92,1.97,1.38,2.96c0.9,1.13,1.92,2.27,2.42,3.63c0.54-0.42,1.03-0.85,1.5-1.35    c0.47-0.5,0.92-1.07,1.41-1.8c2.2-4.08,4.49-9.54,5.87-14c0.14-2.27,0.29-4.54,0.43-6.8c0.14-3.29,0.28-6.58,0.42-9.87    c0.26-0.98,0.52-1.97,0.78-2.95c0.27-2.01,0.54-4.02,0.81-6.02c0.7-2.1,1.4-4.21,2.09-6.31c0.74-1.36,1.48-2.71,2.22-4.07    c1.03-1.79,2.07-3.58,3.1-5.37c0.73-0.89,1.45-1.77,2.18-2.66c1.68-1.28,3.35-2.55,5.03-3.83c1.36-1.13,2.91-3.48,3.76-5.05    c1.89-3.45,4.44-6.73,5.48-10.47V206.22z"/>
            <circle cx="199.08" cy="210.69" r="1.586"/>
        </g>
        <g id="__Osmaneli">
            <path d="M243.12,148    c2,1.2,6.07,2.26,8.33,1.85c0.65-0.32,2.62-1.61,3.27-1.94c1.45-1.77,2.06-3.06,3.51-4.84c1.65-2.69,2.93-5.19,5-7.58    c1.03-1.14,2.07-2.28,3.1-3.42c1.04-1.67,4.7-4.83,5.08-4.84c4.11-0.12,5.93-0.36,9.69-1.87c0.42-0.69,1.44-1.03,1.26-2.06    c0.2-2.32,0.4-4.64,0.6-6.96c0,0-6.51-0.61-9.83-1.12c-1.78-0.19-3.57-0.37-5.35-0.56c-0.81-0.24-1.61-0.48-2.42-0.73    c-1.17-0.21-5.02-2.41-5.56-3.39c-2.5-1.21-5-2.42-7.5-3.63c-2.03-0.32-3.89-1.73-5.28-3.18c-0.5-0.52-1.61-1.41-2.21-2.14    c-1.99-2.86-3.17-5.86-4.11-9.19c-0.4-1.94-0.81-3.87-1.21-5.81c-0.32-2.42-0.65-4.84-0.97-7.26c-0.05-0.74-0.09-1.47-0.14-2.21    c-0.28-2.56-0.6-4.65-2.4-6.5c-0.19-0.32-0.64-0.75-0.83-1.07c-2.38-1.01-4.65-0.75-6.71,0.54c-0.24,0.24-1.41,1.01-1.61,1.53    c-0.47,1.57-1.09,3.71-1.61,5.28c-0.25,0.65-0.77,1.79-0.48,2.42c-0.97,2.18-0.56,2.26-1.45,3.14l-1.21,1.69    c-0.97,0.2-2.26,0.32-2.9-0.24c-1.37-0.56-2.74-1.13-4.11-1.69c-0.75-0.61-1.49-1.21-2.24-1.82c-0.9-0.24-3.35-3.29-3.81-4.23    c-1.34-2.74-1.59-6.26-1.73-9.19c-0.07-1.05-0.14-2.1-0.2-3.14c-1.2-4.08-2.36-8.01-4.23-11.88c-1.4-3.15-2.81-6.29-4.21-9.44    c-0.53-1.31-1.14-2.87-2.71-2.46c-5.53,1.19-11.21,4.21-15.94,7.33c-4.66,3.07-8.6,5.84-13.55,8.47c-1.76,0.94-2.55,3.27-3.87,4.6    c-0.24,1.13-0.48,2.26-0.73,3.39c0,0.97,0,1.94,0,2.9c0.68,3.39,3.06,6.41,5.32,8.95c0.35,2.12,0.45,3.88,0.24,6.05    c0.41,0.22,0,2.66-2.66,4.11c-0.41,0.15-0.81,0.3-1.22,0.45c-2.52,0.81-5.03,1.48-7.49,2.46c-4.14,1.65-9.03,6.9-9.77,11.32    c-0.71,0.52-1.03,2.27-1.27,3.14c-0.24,1.3-0.47,2.59-0.71,3.89c-0.12,0.72-0.23,1.44-0.35,2.16c-0.46,0.83-0.92,1.66-1.38,2.49    c-0.24,0.59-0.47,1.18-0.71,1.77c1.98,2.2,4,5.37,6.43,6.99c0.02,0.99,1.17,1.95,1.78,2.68c1,1.18,2.42,3.71,2.59,3.77    c-0.07,0.23-1.72,7.14-2.3,10.64c-0.15,0.93-1.04,3.46-0.24,3.75c0.48,0.6,0.73,0.48,1.57,0.6c2.66-0.38,5.33-0.76,7.99-1.13    c2.98-0.5,5.96-1.01,8.94-1.51c1.13-0.41,2.26-0.82,3.39-1.22c2.52-0.24,4.45-0.69,6.98-1.33c2.52-0.64,4.61-1.71,6.87-2.88    c0.76-0.41,2.57-1.31,3.33-1.72c1.33,0.12,1.45,0.24,2.42,0.85c2.24,2.54,5.29,4.35,7.82,6.64c0.75,0.68,2.86,1.96,3.07,2.8    c0.97,0.4,1.94,0.81,2.9,1.21c1.21,0.48,1.47,0.71,3.02,0.48c0.73-0.12,3.02-0.85,3.75-0.97c0.62-0.39,2.28-1.3,2.9-0.97    c2.12-1.87,4.66-3.42,7.64-2.46c0.37,0.13,6.15,0.76,10.53,3.4c1.68,1.01,4.98,2.12,4.82,2.2c0.32,0.16,0.65,0.32,0.97,0.47    C239,145.85,242.03,147.35,243.12,148z"/>
            <circle cx="214.8" cy="110.79" r="1.586"/>
        </g>
        <g id="__Gölpazarı">
            <path d="M346.4,209    c0,0.3-1.79-1.99-2.18-2.18c-2.23-1.08-3.09-1.64-4.72-3.49c-0.52-0.59-1.59-1.1-1.56-2.07c-0.35-0.59-0.85-0.97-1.21-1.45    c-0.24-1.45,0.48-3.75,0.85-4.96c1.69-2.42,3.27-4.35,3.51-6.89c0.05-0.52-0.07-1.68-0.48-1.94c0.11-0.84,0.24-2.54,0-3.39    c0.73-1.61,1.45-3.23,2.18-4.84c0.48-0.56,0.97-1.13,1.45-1.69c3.72-2.38,7.87-2.7,12.06-3.95c1.4-0.67,2.51-0.58,3.91-1.25    c0.79-0.19,1.99-0.78,2.78-0.97c0.75-0.39,1.55-0.33,2.3-0.73c0.7-0.15,1.64-0.87,1.94-1.57c0.81-0.08,1.61-0.65,2.42-0.73    c1.87,0.23,1.57,1.74,3.39,0.85c1.45,0,3.48-1.44,4.35-1.81c1.1-1.46,2.2-2.92,3.3-4.38c0.85-1.58,1.69-3.17,2.54-4.75    c0.47-0.83,0.95-1.65,1.42-2.48c0.38-0.7,1.24-0.89,1.45-1.69c0.97-0.48,1.94-0.97,2.9-1.45c0.73,0,1.45,0,2.18,0    c1.64-1,2.73-2.44,4.65-2.96c2.44-0.65,4.96-0.07,7.2-0.67c1.73-1.08,3.46-2.16,5.19-3.24c-0.18-0.12-0.35-0.24-0.53-0.36    c-2.05-1.16-4.08-0.94-6.34-1.18c-0.74-0.08-2.41-0.36-2.92,0.19c-0.7-0.32-1.81-0.48-2.9-0.97c-1.42-1.37-3.05-2.49-4.72-3.54    c-0.2-0.58-1.07-0.9-1.61-1.2c-0.54-0.93-3.43-1.86-4.52-2.13c-2.44-0.5-4.89-1-7.33-1.5c-0.92-0.09-1.06-0.1-1.77-0.7    c0.12-3.02,0.76-7.38,1.33-10.52c0.17-0.8,0.35-1.6,0.52-2.4c0.15-0.97,0.66-2.79,0.81-3.76c-0.04-0.77-0.48-0.73-0.6-1.57    c-1.51-2.69-3.59-4.94-5.56-7.26c-1.54-1.81-4.73-2.54-6.71-3.64c-3.14-1.75-7.94-1.94-11.42-2.11c-1.62-0.02-2.75,0.44-4.37,0.42    c-5.08-0.18-4.96-0.18-10.04-0.36c-1.94-0.14-9.56-0.95-11.49-1.09c-2.33,0.28-4.65,0.56-6.98,0.84    c-1.29,0.29-2.59,0.57-3.89,0.86c-3.47,0.92-5.99,1.98-9.46,2.9c-1.87,1.03-4.3,2.6-6.17,3.63c-3.22,1.69-5.73,2.53-9.07,3.99    c-2.12,0.74-4.89,1.55-7.02,2.3c-0.76,0.25-2.39,0.3-2.47,1.19c-0.2,2.32-0.4,4.64-0.6,6.96c0.17,1.04-0.84,1.38-1.26,2.06    c-3.76,1.51-5.58,1.75-9.69,1.87c-0.38,0.01-4.04,3.17-5.08,4.84c-1.03,1.14-2.07,2.28-3.1,3.42c-2.07,2.39-3.36,4.89-5,7.58    c-1.45,1.77-2.06,3.06-3.51,4.84c-0.65,0.32-2.62,1.61-3.27,1.94c-2.26,0.41-6.33-0.65-8.33-1.85c-1.09-0.66-4.15-1.42-4.36-1.66    c0.16,3.31,1.2,6.29,0.48,9.92c-0.24,0.97-0.48,1.94-0.73,2.9c-0.6,2.66-2.06,3.87-3.87,5.32c-0.71,0.57-1.07,1.95-1.94,2.18    c0.05,0.51-2.63,1.42-3.51,1.45c-1.15,0.04-1.33,2.78-1.57,4.47c-0.24,1.94,0.87,3.43,1.81,4.6c2.78,2.3,7.57,9.47,12.46,11.97    c1.77,0.73,3.55,1.45,5.32,2.18c3.06,0.46,9.01-0.83,11.29,1.27c2.13,2.06,2.72,3.76,2.13,6.71c-0.23,1.17-0.85,6.79-0.85,7.38    c0.74,0.25,2.2,0.13,2.94,0.38c1.99,0.15,3.99,0.3,5.98,0.45c2.34,0.24,4.33,0.88,6.58,1.4c1.36,0.27,2.73,0.53,4.09,0.8    c8.58,2.57,10.29,3.27,19.11,4.84c2.52,0.45,11.82,1.26,14.27,1.94c0.89,0.32,1.77,0.65,2.66,0.97c2.71,0,4.39,0.77,6.76,1.68    c0.98,0.38,1.83,0.5,2.92,0.62l0.42-0.36c2.36-0.36,4.21-0.94,5.99-3.02c1.73-1.18,2.48-2.64,3.92-4.01    c0.99-0.72,1.99-1.44,2.98-2.16c1.55-0.26,2.69-0.46,4.35-0.48c0.97-0.24,2.9-0.12,3.87-0.36L346.4,209z"/>
            <circle cx="317.61" cy="148.04" r="1.586"/>
        </g>
        <g id="__Yenipazar">
            <path d="M346.4,209    c0,0.3-1.79-1.99-2.18-2.18c-2.23-1.08-3.09-1.64-4.72-3.49c-0.52-0.59-1.59-1.1-1.56-2.07c-0.35-0.59-0.85-0.97-1.21-1.45    c-0.24-1.45,0.48-3.75,0.85-4.96c1.69-2.42,3.27-4.35,3.51-6.89c0.05-0.52-0.07-1.68-0.48-1.94c0.11-0.84,0.24-2.54,0-3.39    c0.73-1.61,1.45-3.23,2.18-4.84c0.48-0.56,0.97-1.13,1.45-1.69c3.72-2.38,7.87-2.7,12.06-3.95c1.4-0.67,2.51-0.58,3.91-1.25    c0.79-0.19,1.99-0.78,2.78-0.97c0.75-0.39,1.55-0.33,2.3-0.73c0.7-0.15,1.64-0.87,1.94-1.57c0.81-0.08,1.61-0.65,2.42-0.73    c1.87,0.23,1.57,1.74,3.39,0.85c1.45,0,3.48-1.44,4.35-1.81c1.1-1.46,2.2-2.92,3.3-4.38c0.85-1.58,1.69-3.17,2.54-4.75    c0.47-0.83,0.95-1.65,1.42-2.48c0.38-0.7,1.24-0.89,1.45-1.69c0.97-0.48,1.94-0.97,2.9-1.45c0.73,0,1.45,0,2.18,0    c1.64-1,2.73-2.44,4.65-2.96c2.44-0.65,4.96-0.07,7.2-0.67c1.73-1.08,3.46-2.16,5.19-3.24l0.87,0.39    c0.57-0.06,0.75,0.44,1.35,0.71c1.95,0.87,3.49,2.33,4.69,4.08c0.16,0.56,0.32,1.13,0.48,1.69c-0.12,0.97-0.12,0.82-0.12,1.45    c1.13,0.4,1.41,0.93,2.54,1.33c0.12,0.21,0.97,1.24,1.09,1.45c0.04,2.61,0.08,5.01,0.12,7.62c0.81,0.81,1.33,0.73,2.18,1.21    c0.73,1.69,0.97,2.3,0.97,3.99c-0.15,0.53,0.03,2.13-0.12,2.66c-0.64,1.42-1.21,1.33-1.45,2.42c0.2,0.6,0.77,4.48,0.97,5.08    c0.61,0.83,1.23,1.67,1.84,2.5c1.65,1.44,3.81,2.48,5.81,3.31c0.77,0.3,1.54,0.6,2.31,0.91c0.99,0.8,1.1,2.32,0.55,3.56    c-1.34,3.01-3.63,5.46-4.35,8.71c0.07,0.17-0.43,1.65-0.36,1.81c1.09,1.09,1.93,2.54,3.39,3.27c0.62,0.27,2.09-0.73,2.9-0.85    c1.31-0.19,1.6-0.73,2.9-0.73c0.6,0.36,0.82,1.18,1.57,0.85c0.13,0.01,1.56-1.46,1.69-1.45c0.36,1.09,0.34,1.64,0,2.54    c-0.17,0.03-1.04,1.06-1.21,1.09c-0.48,0.39-3.15,1.3-3.63,1.69c-1.45,1.09-2.87,1.21-5.32,2.66c-4.69,2.79-9.52,5.68-14.76,7.5    c-2.18,0.56-4.35,1.13-6.53,1.69c-0.89,0-1.77,0-2.66,0c-5.6,1.98-7.72,4.24-9.92,9.68c0,0-2.65-1.85-3.63-2.18    c-1.33-1.33-2.57-2.17-3.73-3.1c-1.15-0.92-2.13-2.13-3.53-2.71c-3.56-1.48-7.08-2.28-10.88-2.79c-1.62-0.12-3.96-0.12-5.57-0.23    c-0.65-0.4-2.14-1.77-2.78-2.18c-0.5-1.21-2.97-2.77-4.33-3.23c-1.74-0.42-3.48-0.83-5.22-1.25c-1.53,0-3.06,0-4.6,0    c-2.04-0.41-2.99-0.36-5.08-0.36L346.4,209z"/>
            <circle cx="388.49" cy="196.9" r="1.586"/>
        </g>
        <g id="__İnhisar">
            <path d="M333.58,291.36    c-0.48,0-1.33,0.12-2.42,0.12c-4.22,0.82-8.93,0.99-13.06-0.24c-0.67-0.45-1.33-0.91-2-1.36c-1.3-0.94-2.43-1.86-3.57-2.99    c-0.56-0.81-1.13-1.61-1.69-2.42c-0.32-0.97-0.65-1.94-0.97-2.9c-0.48-0.97-0.97-1.94-1.45-2.9c-0.06-1.47-0.12-2.93-0.17-4.4    c0.06-2.24,0.12-4.48,0.18-6.71c0.24-1.78,0.48-3.56,0.72-5.34c-0.16-2,0.28-4.65,0.12-6.65c-0.41-2.11-1.58-2.16-1.41-4.43    c0.16-1.3,1.27-1.32,2.28-1.92c2.57-1.54,5.57-2.69,8.45-3.21c1.53-1.29,3.63-2.78,4.6-4.48c0.22,0.06,0.29-3.05,0.48-4.23    c0.36-2.24,0.33-4.44,0.57-6.68c-0.03-0.92-0.05-1.84-0.08-2.76c0.29-2.34,0.58-4.68,0.88-7.01c0.03-0.16,0.09-1.09,0.09-1.09    l0.42-0.36c2.36-0.36,4.21-0.94,5.99-3.02c1.73-1.18,2.48-2.64,3.92-4.01c0.99-0.72,1.99-1.44,2.98-2.16    c1.55-0.26,2.69-0.46,4.35-0.48c0.97-0.24,2.9-0.12,3.87-0.36c2.09,0,3.04-0.29,5.08,0.12c1.53,0,3.06,0,4.6,0    c1.74,0.42,3.48,0.83,5.22,1.25c1.37,0.46,3.83,2.02,4.33,3.23c0.64,0.4,2.14,1.77,2.78,2.18c1.61,0.12,3.96,0.12,5.57,0.23    c3.8,0.51,7.32,1.31,10.88,2.79c1.4,0.58,2.38,1.79,3.53,2.71c1.16,0.93,2.4,1.77,3.73,3.1c0.98,0.33,2.78,1.69,4.11,2.3    c0,0.48-0.24,0.85-0.48,1.09c-0.34,1.32-0.68,2.63-1.01,3.95c-1.5,2.87-3,5.74-4.51,8.61c-0.46,1.45-0.92,2.89-1.38,4.34    c-0.16,0.55-0.59,1.19-0.36,1.73c-1.13,1.37-2.26,2.74-3.39,4.11c-0.81,1.77-1.61,3.55-2.42,5.32c-2.14,3.53-5.34,6.67-8.22,9.43    c-1.42,1.15-2.84,2.3-4.26,3.45c-0.52,0.29-1.04,0.58-1.56,0.88c-1.2,1.07-2.68,1.86-4.13,2.52c-0.54,0.21-1.08,0.43-1.62,0.64    c-0.66,0.32-1.32,0.65-1.97,0.97c-1.21,0.4-2.42,0.81-3.63,1.21c-1.61,0.32-3.23,0.65-4.84,0.97c-4.85-1.41-8.15-2.32-13.06-0.73    c-1.34,1.48-3.19,2.75-4.11,4.6c-0.4,1.05-0.81,2.1-1.21,3.14c-0.28,1.88-0.21,3.8-0.48,5.68L333.58,291.36z"/>
            <circle cx="343.25" cy="255.44" r="1.586"/>
        </g>
        <g id="__Söğüt">
            <path d="M325.02,220.85    c-0.29,2.34-0.58,4.68-0.88,7.01c0.03,0.92,0.05,1.84,0.08,2.76c-0.24,2.24-0.21,4.43-0.57,6.68c-0.19,1.18-0.25,4.29-0.48,4.23    c-0.97,1.69-3.06,3.19-4.6,4.48c-2.88,0.51-5.88,1.66-8.45,3.21c-1.01,0.6-2.11,0.62-2.28,1.92c-0.17,2.27,1.01,2.32,1.41,4.43    c0.16,2-0.28,4.65-0.12,6.65c-0.24,1.78-0.48,3.56-0.72,5.34c-0.06,2.24-0.12,4.48-0.18,6.71c0.06,1.47,0.12,2.93,0.17,4.4    c0.48,0.97,0.97,1.94,1.45,2.9c0.32,0.97,0.65,1.94,0.97,2.9c0.56,0.81,1.13,1.61,1.69,2.42c1.14,1.14,2.26,2.06,3.57,2.99    c0.67,0.45,1.33,0.91,2,1.36c4.13,1.23,8.85,1.06,13.06,0.24c1.09,0,2.38-0.81,2.42-0.12c0.48,0.48,0.36,2.18,0,3.27    c-0.05,0.41-0.1,0.81-0.15,1.22c-0.37,3.86-0.79,7.41-2.99,10.64c-1.37,0.24-2.74,0.48-4.11,0.73c-1.07-0.22-2.13-0.44-3.2-0.67    c-1.6-0.2-3.11,0.32-4.54,0.91c-1.45-1.29-2.9-2.58-4.35-3.87c-0.75,0-2.26-0.39-2.42-0.73c-0.25-0.72,0.73-1.57,0.48-2.29    c-0.34-0.55-1.33-1.09-2.18-1.33c0,0-0.48,0.48-0.73,0.73c-0.59,2.31-0.22,4.63-0.48,7.01c-0.19,1.69-1.02,3.33-0.48,5.08    c0.5,1.62,1.88,2.91,2.05,4.63c0.26,2.72-0.84,5.25-0.84,7.95c0.32,1.13,0.65,2.26,0.97,3.39c0.84,2.67,1.06,8.09,3.63,9.55    c2.45,1.22,3.65-0.24,5.32,2.54c-0.16-0.08-0.32-0.16-0.48-0.24c-1.29,0.08-2.58,0.16-3.87,0.24c-1.42,0.55-3.71,2.58-4.35,3.87    c-0.87,1.74,0,4.6-1.09,7.5c-1.36,0.23-3.14-1.33-4.35-1.94c-1.73-0.96-2.62-0.47-4.35-1.43c-1.78-1.05-3.04-2.52-5.02-3.29    c-1.68-0.6-3.35-1.21-5.03-1.81c-2.1-1.37-4.19-2.74-6.29-4.11c-1.05-1.13-2.1-2.26-3.14-3.39c-0.73-1.53-1.45-3.06-2.18-4.6    c-0.24-2.26-0.48-4.52-0.73-6.77c-0.81-2.01-1.62-4.03-2.43-6.04c-0.66-2.65-1.81-8.59-3.14-11.01c-2.3-1.45-3.51-1.81-6.05-4.23    c-0.79-0.75-4.64-2.39-5.08-3.14c-3.63-0.36-7.01-0.48-10.61-1.55c-1.62-0.45-3.25-0.9-4.87-1.35c-1.77-1.45-3.55-2.9-5.32-4.35    c-1.53-0.96-3.06-1.91-4.59-2.86c-0.65-0.47-3.01-2.16-3.39-1.73c0-0.53-0.84-0.47-1.21-0.73c-0.83-0.58-3.02-2.3-3.75-2.78    l-0.36-0.12c2.2-4.08,4.49-9.54,5.87-14c0.14-2.27,0.29-4.54,0.43-6.8c0.14-3.29,0.28-6.58,0.42-9.87    c0.26-0.98,0.52-1.97,0.78-2.95c0.27-2.01,0.54-4.02,0.81-6.02c0.7-2.1,1.4-4.21,2.09-6.31c0.74-1.36,1.48-2.71,2.22-4.07    c1.03-1.79,2.07-3.58,3.1-5.37c0.73-0.89,1.45-1.77,2.18-2.66c1.68-1.28,3.35-2.55,5.03-3.83c1.36-1.13,2.91-3.48,3.76-5.05    c1.89-3.45,3.35-5.64,4.39-9.38l0.85-1.21c0.74,0.25,2.2,0.13,2.94,0.38c1.99,0.15,3.99,0.3,5.98,0.45    c2.34,0.24,4.33,0.88,6.58,1.4c1.36,0.27,2.73,0.53,4.09,0.8c8.58,2.57,10.29,3.27,19.11,4.84c2.52,0.45,11.82,1.26,14.27,1.94    c0.89,0.32,1.77,0.65,2.66,0.97c2.71,0,4.39,0.77,6.76,1.68c0.98,0.38,1.83,0.5,2.92,0.62    C325.11,219.76,325.05,220.69,325.02,220.85z"/>
            <circle cx="271.65" cy="271.89" r="1.586"/>
        </g>
        <g id="__Bozüyük">
            <path d="M303.82,348.94    c-0.88-0.2-1.65-0.21-2.77-0.83c-1.78-1.05-3.04-2.52-5.02-3.29c-1.68-0.6-3.35-1.21-5.03-1.81c-2.1-1.37-4.19-2.74-6.29-4.11    c-1.05-1.13-2.1-2.26-3.14-3.39c-0.73-1.53-1.45-3.06-2.18-4.6c-0.24-2.26-0.48-4.52-0.73-6.77c-0.81-2.01-1.62-4.03-2.43-6.04    c-0.66-2.65-1.81-8.59-3.14-11.01c-2.3-1.45-3.51-1.81-6.05-4.23c-0.79-0.75-4.64-2.39-5.08-3.14c-3.63-0.36-7.01-0.48-10.61-1.55    c-1.62-0.45-3.25-0.9-4.87-1.35c-1.77-1.45-3.55-2.9-5.32-4.35c-1.53-0.96-3.06-1.91-4.59-2.86c-0.65-0.47-3.01-2.16-3.39-1.73    c0-0.53-0.84-0.47-1.21-0.73c-0.83-0.58-3.02-2.3-3.75-2.78l-0.36-0.12c-0.48,0.73-0.94,1.3-1.41,1.8    c-0.47,0.5-0.95,0.92-1.5,1.35l0.24,0.12c-0.86,1.71-1.43,2.57-3.14,3.39c-2.54,1.21-6.51,2.52-8.71,3.02    c-2.34,0.99-4.19,1.91-6.53,2.9c-1.1,0.47-3.51,1.57-4.84,1.81c-1.09,0.73-2.27,0.96-3.51,1.45c-2.91,1.16-5.49,2.39-8.59,3.02    c-2.57,0.84-5.9,1.82-8.47,2.66c-2.59,0.37-4.91,0.11-7.5,0.48c-4.96,0.73-8.21,0.92-12.82,1.33c-2.34,0.62-4.67,1.43-7.01,2.06    c-1.76,0.25-4.72,0.6-6.75,0.43c-1.7-0.39-3.4-0.77-5.1-1.16c-3.46-0.03-5.86,0.27-9.31,0.24c-1.69-0.2-4.22-1.13-5.93-1.13    c-0.92,0-1.44-0.2-2.53-0.32c-0.19,0.21-0.17,1.12-0.36,1.33c-0.68,0.7-2.66,2.54-3.75,4.11c-0.81,1.48-2.47,2.36-3.28,3.84    c-0.96,1.5-1.93,3-2.89,4.51c-0.62,1.62-0.8,3.37-0.97,5.08c0,0.73,0,1.45,0,2.18c0.11,1.35,0.23,2.69,0.34,4.04    c-0.71,4.9-0.23,9.91,0.39,14.83c0.89,2.02,1.77,4.03,2.66,6.05c0.73,3.39,1.45,6.77,2.18,10.16c-0.42,2.41-0.68,5.57-1.96,7.7    c-2.23,3.72-5.71,9.92-5.54,14.32c0.11,2.88,0.57,5.75,1.45,8.47c0.46,1.41,2.89,3.74,4.11,4.6c0.48,0.24,0.97,0.48,1.45,0.73    c2.55,1.96,5.11,3.92,7.67,5.87c3.34,2.95,8.59,8.12,13.14,8.88c1.21,0.08,2.42,0.16,3.63,0.24c0.86-0.23,1.71-0.47,2.57-0.7    c1.08-0.17,2.16-0.34,3.24-0.51c4.19,0.59,8.38,1.18,12.56,1.78c0.33,0.05,0.66,0.11,0.98,0.16c0.03,0.23,0.05,0.46,0.08,0.7    c1.62-0.54,2.87,0.46,4.28,1c1.06,0.22,2.12,0.45,3.17,0.67c1.28,0.1,2.56,0.2,3.84,0.29c1.44,0.42,2.88,0.84,4.32,1.25    c1.3,0.55,2.6,1.1,3.9,1.65c1.29,1.37,2.58,2.74,3.87,4.11c0.89,1.28,1.77,2.57,2.66,3.85c1.29,1.21,2.58,2.43,3.87,3.64    c1.64,0.65,3.07,1.19,4.81,1.53c0.64,0.13,1.83,0.11,2.21,0.64c1.87-0.24,6.75-0.4,8.47,0.24c1.91-0.54,3.55-0.93,5.56-0.7    c1.21,0.23,2.42,0.45,3.63,0.68c0.46,0.15,1.59,0.75,1.43,0.42c-2.97-4.33-5.95-8.65-8.92-12.98c-1.93-3.31-2.88-7.09-4.1-10.66    c-0.56-1.63-1.51-3.03-1.7-4.82c-0.35-3.3,2.32-5.24,3.5-8.01c0.45-1.12,0.89-2.24,1.34-3.36c0.51-1.55,1.03-3.09,1.54-4.64    c0.21-1.03,0.42-2.07,0.64-3.1c0.28-1.45,1.37-2.92,2.18-4.11c0.66-0.97,3.89-3.73,5.08-3.87c1.59-1.7,3.25-3.09,4.63-4.99    c1.44-1.97,2.88-3.93,4.32-5.9c0.98-1.8,1.95-3.6,2.93-5.4c0.72-1.26,1.44-2.53,2.15-3.79c2.1-1.53,4.19-3.06,6.29-4.6    c1.01-0.46,1.77-1.36,2.78-1.81c0.88-0.49,2.06-0.73,2.78-1.57c0.57-1.06,2.1-2.05,3.19-2.6c2.72-1.39,5.92-1.77,8.89-2.27    c0.82-0.18,1.63-0.36,2.45-0.54c2.01-0.23,4.01-0.45,6.02-0.68c5.46-0.44,10.53-0.49,15.98,0.76c1.7,0.39,3.1,1.53,4.6,2.33    c1.29,0.68,2.58,1.35,3.87,2.03c2.55,0.59,6.37,1.52,8.95,1.21c1.27-0.15,4.35-1.65,4.96-1.57L303.82,348.94z"/>
            <circle cx="219.88" cy="321.72" r="1.586"/>
        </g>
        <g id="__Pazaryeri">
            <path d="M225.21,287.49    c-0.86,1.71-1.43,2.57-3.14,3.39c-2.54,1.21-6.51,2.52-8.71,3.02c-2.34,0.99-4.19,1.91-6.53,2.9c-1.1,0.47-3.51,1.57-4.84,1.81    c-1.09,0.73-2.27,0.96-3.51,1.45c-2.91,1.16-5.49,2.39-8.59,3.02c-2.57,0.84-5.9,1.82-8.47,2.66c-2.59,0.37-4.91,0.11-7.5,0.48    c-4.96,0.73-8.21,0.92-12.82,1.33c-2.34,0.62-4.67,1.43-7.01,2.06c-1.76,0.25-4.72,0.6-6.75,0.43c-1.7-0.39-3.4-0.77-5.1-1.16    c-3.46-0.03-5.86,0.27-9.31,0.24c-1.69-0.2-4.22-1.13-5.93-1.13c-0.92,0-1.44-0.2-2.53-0.32l0.12-0.24    c-0.08-0.01,0.42-2.3,0.12-3.75c-0.4-0.56-1.89-2.22-2.3-2.78c-1.66-2.06-3.06-4.42-3.67-7.01c-0.3-1.3-0.76-3.04-0.2-4.35    c0.24-0.89,0.48-1.77,0.73-2.66c0.16-2.86,0.83-6.35,0-9.19c-0.24-2.18-1.09-4.11-2.12-5.75c-0.58-1.15-1.17-2.29-1.75-3.44    c-0.81-2.5-1.61-5-2.42-7.5c-0.16-0.65-0.32-1.29-0.48-1.94c-0.2-1.19-0.4-2.37-0.6-3.56c-0.55-2.6-1.1-5.2-1.66-7.8    c-0.06-0.24-0.11-0.49-0.17-0.73l0.6-0.36c1.66-0.11,5.08-2.06,6.65-2.06c0.81-0.4,2.58-0.56,3.39-0.97    c1.37-0.97,2.26-1.81,3.63-2.78c4.19-2.56,5.81-4.11,8.59-6.41c0.48-0.4,10.04-5.4,10.52-5.81c1.21,0,3.14-0.48,4.35-0.48    c1.29,0.08,2.58,0.16,3.87,0.24c0.85,0.28,2.08,0.99,2.9,0.73c1.45,1.29,2.9,2.58,4.35,3.87c0.86,0.75,0.86,2.57,1.94,2.9    c0.73,2.26,1.45,4.52,2.18,6.77c0.56,0.97,1.13,1.94,1.69,2.9c0.4,0.48,0.81,0.97,1.21,1.45c0.81,0.56,1.61,1.13,2.42,1.69    c1.13,0.48,2.26,0.97,3.39,1.45c0.97,0.32,4.35,1.37,5.32,1.69c1.57-0.6,1.91-0.8,4.35-0.24c0.77,0.44,1.54,0.89,2.31,1.33    c0.63-0.22,1.06,0.5,1.56,0.85c0.48,0.16,0.97,0.32,1.45,0.48c0.67,0.55,1.35,1.09,2.02,1.64c1.1,1.15,2.2,2.29,3.3,3.44    c2.7,1.9,4.84,3.97,7.32,6.09c1.3,1.11,4.14,3.56,5.75,2.99c0.88,0.34,2.28-0.66,2.66-2.3c0.41-1.09,0.68-1.98,1.67-2.53    c0.51-0.37,1.22,0.05,1.72-0.37c0.05,0.07,1.55,3.4,0.73,4.6c0.22,1.22,0.45,2.44,0.67,3.66c0.25,0.95,0.22,1.91,0.91,2.43    c2.71,2.04,5.98,4.05,7.68,6.92c0.46,0.99,0.92,1.97,1.38,2.96c0.9,1.13,1.92,2.27,2.42,3.63L225.21,287.49z"/>
            <circle cx="172.23" cy="281.33" r="1.586"/>
        </g>
    </g>
</svg>