<?xml version="1.0" encoding="UTF-8"?>
<!DOCTYPE svg PUBLIC "-//W3C//DTD SVG 1.1//EN" "http://www.w3.org/Graphics/SVG/1.1/DTD/svg11.dtd">
<svg version="1.1" id="HaritaCizim" xmlns="http://www.w3.org/2000/svg" xmlns:xlink="http://www.w3.org/1999/xlink" x="0px" y="0px" viewBox="0 0 600 620" preserveAspectRatio="none">
    <defs id="__def">
        <radialGradient id="f">
            <stop offset="0" stop-color="white" stop-opacity="1"/>
            <stop id="STOP1" offset=".4" stop-opacity="1"/>
            <stop offset="1" stop-color="white" stop-opacity=".2"/>
        </radialGradient>
        <filter id="__flt1" x="0" y="0" width="200%" height="200%" filterUnits="objectBoundingBox">
            <feGaussianBlur in="SourceAlpha" stdDeviation="3" result="blur1"/>
            <feSpecularLighting result="specOut" in="blur1" specularConstant="1.5" specularExponent="20" lighting-color="#bbbbbb">
                <feDistantLight azimuth="45" elevation="30"/>
            </feSpecularLighting>
            <feComposite in="specOut" in2="SourceAlpha" operator="in" result="specOut"/>
            <feComposite in="SourceGraphic" in2="specOut" operator="arithmetic" k1="0" k2="1" k3="1" k4="0"/>
        </filter>
        <filter id="__flt2" x="0" y="0" width="200%" height="200%" filterUnits="objectBoundingBox">
            <feGaussianBlur in="SourceAlpha" stdDeviation="3" result="blur1"/>
            <feSpecularLighting result="specOut" in="blur1" specularExponent="20" lighting-color="#bbbbbb">
                <fePointLight x="-2000" y="100" z="2000"/>
            </feSpecularLighting>
            <feComposite in="specOut" in2="SourceAlpha" operator="in" result="specOut"/>
            <feComposite in="SourceGraphic" in2="specOut" operator="arithmetic" k1="0" k2="1" k3="1" k4="0"/>
        </filter>
        <filter id="__flt3" x0="-50%" y0="-50%" width="200%" height="200%" filterUnits="objectBoundingBox">
            <feGaussianBlur in="SourceAlpha" stdDeviation="3" result="blur"/>
            <feOffset in="blur" dx="0" dy="0" result="offsetBlur"/>
            <feSpecularLighting in="blur" surfaceScale="4" specularConstant=".5" specularExponent="20" lighting-color="flavor" result="specOut">
                <fePointLight x="-5000" y="-10000" z="5000"/>
            </feSpecularLighting>
            <feComposite in="specOut" in2="SourceAlpha" operator="in" result="specOut"/>
            <feComposite in="SourceGraphic" in2="specOut" operator="arithmetic" k1="0" k2="1" k3="1" k4="0" result="litPaint"/>
            <feMerge>
                <feMergeNode in="offsetBlur"/>
                <feMergeNode in="litPaint"/>
            </feMerge>
        </filter>
        <filter id="__flt4" x0="-50%" y0="-50%" width="200%" height="200%">
            <feGaussianBlur in="SourceAlpha" stdDeviation="2" result="blur"/>
            <feOffset dy="-1" dx="-1"/>
            <feComposite in2="SourceAlpha" operator="arithmetic" k2="-1" k3="1" result="hlDiff"/>
            <feFlood flood-color="white" flood-opacity=".7"/>
            <feComposite in2="hlDiff" operator="in"/>
            <feComposite in2="SourceGraphic" operator="over" result="withGlow"/>
            <feOffset in="blur" dy="3" dx="3"/>
            <feComposite in2="SourceAlpha" operator="arithmetic" k2="-1" k3="1" result="shadowDiff"/>
            <feFlood flood-color="black" flood-opacity="1"/>
            <feComposite in2="shadowDiff" operator="in"/>
            <feComposite in2="withGlow" operator="over"/>
        </filter>
        <filter id="__golge1" x="0" y="0" width="200%" height="200%" filterUnits="userSpaceOnUse">
            <feOffset result="offOut" in="SourceAlpha" dx="8" dy="8"/>
            <feGaussianBlur result="blurOut" in="offOut" stdDeviation="3"/>
            <feBlend in="SourceGraphic" in2="blurOut" mode="normal"/>
        </filter>
    </defs>
    <g id="__Harita" fill="white" stroke="#000000" stroke-width="0.25" stroke-miterlimit="10" display="none">
        <rect id="__cer" x="0" y="0" fill="#000000" opacity="0" width="600" height="620"/>
        <g id="__Yayladere">
            <path d="   M160.19,216.35c-0.32-0.79-1.05-2.36-0.54-3.1c-0.48-0.56-1.14-1.62-1.81-1.81c-1.75-3.68-2.46-7.55-4-11.18   c-2.36-4.06-4.71-8.12-7.07-12.18c-1.05-2.03-2.19-3.95-3.44-5.92c-0.56-0.88-1-2.46-2.02-2.71c-0.77-0.23-2.96-0.82-3.68-0.4   c-0.93-0.41-1.86-1.57-2.85-1.55c-1.92-1.96-3.85-3.92-5.77-5.88c-0.39-0.54-0.74-0.98-0.7-1.64c-1.04-0.86-2.07-1.73-3.11-2.59   c-1.38-1.3-2.76-2.59-4.15-3.89c-0.52-0.17-1.04-0.35-1.55-0.52l-1.3,0.26c-1.89-0.24-3.96-0.92-5.9-0.63   c-1.83,0.04-3.67,0.08-5.5,0.11c-0.97-0.14-5.15-1.86-5.44-2.59c-2.41-0.83-4.2-2.35-6.48-3.37c-0.9-0.41-3.99-0.96-4.41-1.55   c-1.31,0.12-2.29,0.64-3.51,0.98c-1.13,0.32-4.12,1.7-4.53,2.91c-0.26,0.52-0.52,1.04-0.78,1.55c-0.36,1.69-0.39,3.24-0.26,4.92   c-0.09,2.25-0.17,4.49-0.26,6.74c0.11,1.12,0.7,3.39,1.55,4.15c0.17,0.86,0.35,1.73,0.52,2.59c-0.09,0.43-0.17,0.86-0.26,1.3   c-1.73,2.42-3.46,4.84-5.18,7.26c-0.95,0.86-1.9,1.73-2.85,2.59c-0.54,0.38-2.38,2.52-2.33,3.11c-0.7,0.75-1.33,1.41-1.81,2.33   c-0.47,0.89-1.8,5.11-1.55,5.96c-0.18,0.55-0.47,1-0.26,1.55c-0.35,0.82-0.91,2-0.52,2.85c-0.5,1.15-1.3,2.63-1.3,3.89   c-3.17,4.31-7.14,7.44-11.14,11.14c-0.26,0.52-0.52,1.04-0.78,1.55c-1.41,1.77-1.3,3.94-2.59,5.44c-0.52,1.04-1.04,2.07-1.55,3.11   c-0.04,1.32-0.07,2.39-0.52,3.63c-0.17,1.17-0.34,2.34-0.51,3.51c0.43,0.65,0.31,1.81,0.19,2.58c0.65,0.8-0.2,2-0.23,2.96   c0.19,1.39,0.37,2.78,0.56,4.17c0.26,1.73,2.01,3.39,2.97,4.75c0.38,0.54,1.09,1.8,0.83,2.48c-0.77,1.55-1.54,3.1-2.31,4.66   c-0.5,0.81-1.28,0.86-1.18,1.81c0.11,0.75,0.11,1.76,0.59,2.22c0.94,0.88,1.7,2.62,2.99,2.84c1.17,0.16,2.48,0.39,3.63-0.1   c1.04-0.43,2.07-0.86,3.11-1.3c-0.09-0.43-0.17-0.86-0.26-1.3c0.55,0.63,2.66,2.96,3.51,2.2c0.46-0.43,0.47-0.64,1.15-0.65   c0.23-1.03,0.3-1.42,1.23-2.02c0.07-0.33-0.03-0.35,0.27-0.21c0.71,0.49,1.42,0.97,2.13,1.46c0.43,0.17,0.86,0.35,1.3,0.52   c1.07,0.17,1.99-0.08,2.59,0.78c0.35-0.43,0.69-0.86,1.04-1.3c0.69-0.02,2.61,0.5,2.85,0.26c1.07-1.1,2.54-2.41,3.11-3.89   c0.2,0.11,0.39,0.22,0.59,0.32c0.23,0.06,0.47,0.13,0.7,0.19c-0.27,1.08-0.73,2.05,1.04,2.11c0.5,0,0.36,0.42,0.75-0.06   c1.12-1.49,2.83-4.17,4.96-4.64c0.6-1.4,1.19-2.8,1.79-4.2c0.51-0.13,0.61-0.28,1.06,0.06c0.85-0.85,1.53-1.44,2.85-1.04   c0.84-0.89,1.68-1.78,2.53-2.66c0.58-0.39,1.49-0.45,1.88,0.07c-0.01-0.09-0.01-0.17-0.02-0.26c-0.09-0.96-0.15-2.01-0.76-2.85   c0.13-0.08,0.26-0.17,0.4-0.25c1.78-0.94,3.56-0.47,5.56-0.24c1.02,0.12,2.15,0.57,2.75-0.36c1.22-1.91-1.52-5.68-0.67-7.7   c0.23,0.34,0.55,1.04,0.79,1.06c0.86-0.01,1.72-0.02,2.58-0.02c0.43-0.26,0.86-0.52,1.3-0.78c-0.02-0.54,0.07-0.85-0.26-1.3   c0.41-1.07,0.34-1.48,0.26-2.59c0.19-0.03,0.39-0.06,0.58-0.09c1.67-0.19,3.34-0.38,5.01-0.57c0.29-0.24,0.89-0.58,0.84-0.89   c-0.29-1.71-1-4.27-2.55-5.19c1.42,0.5,3.73,3.87,5.06,3.15c0.54-0.32,0.86-0.16,1-0.79c0.21-0.82,0.27-3.3,0.97-3.47   c0.92-0.22,0.93-0.52,1.75,0.09c0.45,0.31,0.91,0.63,1.36,0.94c0.73,0.85,0.72,2.42,2.29,1.89c0.34-0.56,0.53-0.59,0.52-1.3   c0.54-0.32,1.17-0.4,1.3-1.04c0.88,0.39,1.86,0.86,2.85,0.78c0.42-0.73,0.71-0.74,0.26-1.55c2.03-0.93,3.71-1.62,5.96-1.3   c0.75-0.06,1.51-0.13,2.26-0.19c0.9-0.88,2.51-0.73,3.69-1.02c0.51-0.64,1.36-0.55,2.08-0.86c0.68-0.42,1.36-0.85,2.03-1.27   c1.34-0.31,5.06-1.66,5.74-2.87c0.95-0.35,1.9-0.69,2.85-1.04c0.16-0.6,0.45-2.86,1.03-2.84c0.59,0.04,3.12,0.63,3.12,0.25   L160.19,216.35z"/>
            <circle cx="99.4" cy="199.77" r="1.586"/>
        </g>
        <g id="__Solhan">
            <path d="   M392.33,377.2c0.3,0.84,0.61,1.67,0.92,2.51c1.75,1.44,2.47,1.23,4.55,1.87c0.88,0.27,1.15,1.06,2.32,0.62   c0.79,0.48,1.59,0.96,2.38,1.43c0.94,1.7,2.24,2.95,1.77,5.04c0,0.43,0,0.86,0,1.3c1.04,1.77,2.07,3.28,2.85,5.18   c1.64,2.5,3.28,5.01,4.92,7.51c0.52,1.04,1.04,2.07,1.55,3.11c1.16,0.99,2.32,1.97,3.48,2.96c1.07,0.49,1.96,0.78,2.76,1.66   c2.76,2.87,5.51,5.73,8.27,8.6c1.37,2.48,3.04,4.66,4.72,6.93c1.28,1.66,2.55,3.33,3.83,4.99c0.52,1.57,1.65,4.95,2.85,5.96   c0.14,1.08,0.98,4.07,0.52,4.92c0.69,1.9,1.38,3.8,2.07,5.7c0.2,0.92,0.4,1.84,0.6,2.75c0.27,0.81,1.41,4.26,1.21,4.76   c0.65,1.13,1.29,2.27,1.94,3.4c0.33,1.18,0.66,2.36,1,3.55c0.93,2.76,1.47,6.17,1.47,9.12c0.19-0.16,0.37-0.31,0.56-0.47   c3.18-2.62,6.7-4.37,10.32-6.27c2.49-0.77,4.97-1.54,7.46-2.31c1.94-1.29,4.07-2.18,6.28-3.13c1.9-0.86,3.8-1.73,5.7-2.59   c1.38-0.52,2.76-1.04,4.15-1.55c1.58-1.11,3.17-2.23,4.75-3.34c0.84-0.33,1.68-0.66,2.52-1c1.29-0.31,2.58-0.62,3.86-0.92   c3.02-0.41,6.05-0.82,9.07-1.23c1.92-0.14,3.84-0.28,5.76-0.42c0.67-0.11,1.35-0.23,2.02-0.34c0.83-0.58,2.38-1.43,2.69-2.37   c0.47-1.44,1.16-3.23,0.53-4.57c-0.58-1.13-1.44-2.25-2.23-3.38c0.09-0.49-1.75-3.8-2.28-4.19c0.27-1.39,0.8-3.5-1.04-4.15   c-0.06-0.96,0.1-2.51-1.04-2.85c-0.26-0.78-0.52-1.55-0.78-2.33c-0.26-1.81-0.52-3.63-0.78-5.44c-0.43-1.9-0.86-3.8-1.3-5.7   c-0.74-2.94-1.49-5.87-2.23-8.81c-0.29-1.3-0.58-2.59-0.87-3.89c-1.33-3.25-2.79-8.12-2.33-11.66c0.3-1.54,0.59-3.07,0.89-4.61   c0.22-1.83,0.44-3.67,0.66-5.5c-0.26-1.12-0.52-2.25-0.78-3.37c-1.14-1.45-2.28-2.9-3.43-4.36c-0.67-1.05-1.34-2.11-2.02-3.16   c-0.6-1.73-1.21-3.46-1.81-5.18c-0.03-2.3-0.06-4.6-0.09-6.91c0.22-1.88,2.45-5.83,3.72-7.09c1.13-1.11,1.42-2.86,2.92-3.68   c2.37-1.31,5.45-2.48,6.87-5.02c-0.33-0.12-0.65-0.24-0.98-0.36c0.86,0,1.73,0,2.59,0c0.31-1.6,2.35-4.37,3.37-5.7   c0-1.06,2.36-5.32,3.11-6.22c0-1.33,2.77-4.61,3.63-5.7c0.26-0.52,0.52-1.04,0.78-1.55c1.51-1.51,3.63-2.54,4.79-4.32   c0.73-0.29,1.45-0.59,2.18-0.88c1.51-1.06,2.76-2.09,4.44-2.8c1.38-0.53,2.76-1.06,4.14-1.59c2.25-3.11,4.25-6.22,6.74-8.81   c1.64-2.5,3.28-5.01,4.92-7.51c1.01-1.26,1.31-3.13,1.94-4.65c1.26-3.06,2.06-5.99,2.22-9.34c0.07-1.4,0.21-2.55-0.05-3.76   c0.09-0.23-0.31-0.94-0.22-1.17c-0.52,0-1.04-0.01-1.55-0.01c-0.95-0.17-1.9-0.34-2.85-0.51c-3.26,0.31-6.36,0.22-9.56-0.4   c-1.99-0.04-3.99-0.08-5.98-0.12c-1.45-0.21-2.9-0.42-4.36-0.63c-2.32,0.01-4.63,0.02-6.95,0.02c-2.05,0.29-4.01,0.08-6.06-0.17   c-1.03-0.04-2.06-0.08-3.09-0.12c-2.98-0.5-6.24-1.41-8.84-2.73c-0.61-0.31-2-0.47-2.32-1.04c-4.33,0.54-7.22-1.03-11.42-1.3   c-3.02-0.08-6.04-0.17-9.05-0.25c-2.67-1.6-4.24-1.81-7.26-1.81c-0.86,0-1.73,0-2.59,0c-4.24-1.63-8.6-2.41-12.96-3.63   c-3.02,0-6.05,0-9.07,0c-2.33,0.01-4.66,0.02-7,0.03c-0.71,0.04-2.11,0-2.59,0.49c-0.95-0.08-1.9-0.16-2.85-0.24   c-2.94,0.43-5.87,0.85-8.81,1.28c-1.74,0.49-3.47,0.98-5.21,1.47c-3.44,0.62-6.68,1.39-10.08,2.17c-1.55,0.43-3.11,0.85-4.66,1.28   c-1.06,0-6.04,0.18-6.48,0.78c-1.64,0-3.28,0-4.92,0c-1.04,0.26-2.07,0.52-3.11,0.78c-1.3,0.17-2.59,0.35-3.89,0.52   c-0.52,0.43-1.04,0.86-1.55,1.3l1-0.02c-1.23,7.6-4.67,13.87-7.22,21.01c0.35,1.99,0.69,3.97,1.04,5.96   c0.63,1.26,1.26,2.51,1.89,3.77c1.9,2.87,3.82,5.77,5.36,8.93c0.38,0.47,0.76,0.94,1.14,1.42c0.91,1.34,1.83,2.68,2.75,4.02   c0.26,0.6,0.52,1.21,0.78,1.81c0.6,4.49,1.21,8.98,1.81,13.47c-0.22,2.32-0.46,6.63,0.52,8.81c-0.16,1.02,0.06,2.32-0.78,3.11   c0.02,0.95,0.03,1.9,0.05,2.85c-0.02,0.69-0.03,1.38-0.05,2.07c-0.26,0.78-0.52,1.55-0.78,2.33c-0.86,1.47-1.73,2.94-2.59,4.41   c-0.52,0.95-1.04,1.9-1.55,2.85c-2.03,1.3-3.87,2.62-6.1,3.51c-0.89,0.36-2.33,0.91-2.74,1.66c-0.32,0.67-1.16,1.8-0.95,2.58   c0.14,0.45,0.11,1.01,0.49,1.2c0.33,0.21,0.66,0.42,1,0.63c1.36,0,5.5,0.4,6.48-0.26c1.04,0,2.07,0,3.11,0   c1.05,0.38,2.09,0.75,3.14,1.13c0.13,0.49,0.48,1.22,0.29,1.51c-0.43,0.76-1.04,1.42-0.84,2.29L392.33,377.2z"/>
            <circle cx="472.54" cy="324.03" r="1.586"/>
        </g>
        <g id="__Karlıova">
            <path d="   M549.63,274.92c-0.52,0-1.04-0.01-1.55-0.01c-0.95-0.17-1.9-0.34-2.85-0.51c-3.26,0.31-6.36,0.22-9.56-0.4   c-1.99-0.04-3.99-0.08-5.98-0.12c-1.45-0.21-2.9-0.42-4.36-0.63c-2.32,0.01-4.63,0.02-6.95,0.02c-2.05,0.29-4.01,0.08-6.06-0.17   c-1.03-0.04-2.06-0.08-3.09-0.12c-2.98-0.5-6.24-1.41-8.84-2.73c-0.61-0.31-2-0.47-2.32-1.04c-4.33,0.54-7.22-1.03-11.42-1.3   c-3.02-0.08-6.04-0.17-9.05-0.25c-2.67-1.6-4.24-1.81-7.26-1.81c-0.86,0-1.73,0-2.59,0c-4.24-1.63-8.6-2.41-12.96-3.63   c-3.02,0-6.05,0-9.07,0c-2.33,0.01-4.66,0.02-7,0.03c-0.71,0.04-2.11,0-2.59,0.49c-0.95-0.08-1.9-0.16-2.85-0.24   c-2.94,0.43-5.87,0.85-8.81,1.28c-1.74,0.49-3.47,0.98-5.21,1.47c-3.44,0.62-6.68,1.39-10.08,2.17c-1.55,0.43-3.11,0.85-4.66,1.28   c-1.06,0-6.04,0.18-6.48,0.78c-1.64,0-3.28,0-4.92,0c-1.04,0.26-2.07,0.52-3.11,0.78c-1.3,0.17-2.59,0.35-3.89,0.52   c-0.52,0.43-1.04,0.86-1.55,1.3l1-0.02c0.08-0.49-1.79-0.08-2.3-0.05c-2.59,0.16-4.82,0.23-7.25,1.1   c-3.4,1.22-7.08,1.22-10.62,1.81c-0.36-0.6-0.63-0.5-1.3-0.52c-0.88,0.88-4.6,1.15-5.73,0.91c-1.2,0.13-2.4,0.26-3.6,0.39   c-1.55,0.09-3.11,0.17-4.66,0.26c-1.6-0.21-2.93-0.65-4.33-1.26l-0.47-0.25c0.48-0.82,0.25-1.71,0.19-2.64   c-0.02-3.11-0.04-6.22-0.06-9.33c-0.08-3.28-0.16-6.56-0.24-9.84c0.79-0.82,0.45-2.57,0.52-3.63c-0.71-0.57-0.52-1.99-0.52-2.85   c-1.23-1.11-1.66-6.08-2.07-7.77c0.98-0.56,0.83-2.6,1.09-3.64c0.59-1.29,1.17-2.59,1.76-3.88c0.41-2.11-1.04-4.05-1.04-5.98   c0.35-0.43,0.69-0.85,1.04-1.28c0.95,0.41,4.94-2.32,5.91-2.92c1.16-0.73,1.17-1.23,1.86-2.26c-0.65-0.65-0.35-2.4-0.26-3.37   c-0.24-1.3-0.48-2.6-0.71-3.9c-0.02-1.64-0.04-3.27-0.06-4.91c-0.78-2.94-1.55-5.87-2.33-8.81c-0.85-0.8-0.56-2.12-1.04-3.11   c-0.6-2.68-1.21-5.36-1.81-8.03c0.09-0.95,0.17-1.9,0.26-2.85c-0.77-0.62-0.49-2.44-0.52-3.37c0.26-1.12,0.52-2.25,0.78-3.37   c1.06-2.47,0.33-5.9-0.78-8.29c-1.35-1.54-2.7-3.07-4.06-4.61c-0.53-0.27-4.25-2.95-4.36-3.28c-1.43-0.74-2.86-1.48-4.28-2.22   c-0.14-0.61-0.58-1.15-1.06-1.62l0.02-1.49c0.09-1.61,0.17-3.23,0.26-4.84c-0.42-0.55-0.26-1.7-0.26-2.41   c-0.35-3.97-0.69-7.95-1.04-11.92c-0.69-1.47-1.38-2.94-2.07-4.41c-0.34-2.71-0.88-5.26-0.75-8.05c0.09-1.87,0.4-3.54-0.02-5.43   c-0.32-0.76-0.65-1.52-0.97-2.28c-0.14-0.61-0.74-2.64-1.36-2.64l0.78,0.26c3.23-0.85,6.81,0.05,10.11-0.26   c4.23-0.52,8.47-1.04,12.7-1.55c4.06,0.26,8.12,0.52,12.18,0.78c2.94-0.35,5.87-0.69,8.81-1.04c1.97-1.97,4.61-2.99,7-4.41   c0.95-0.6,1.9-1.21,2.85-1.81c1.73-1.81,3.46-3.63,5.18-5.44c0.8-0.95,1.55-1.94,2.59-2.59c0.52-0.33,1.23-1.27,1.3-1.81   c1.64-1.73,3.28-3.46,4.92-5.18c1.3-0.37,2.23-1.48,3.37-2.33c0.86-0.52,1.73-1.04,2.59-1.55c2.16-1.3,4.32-2.59,6.48-3.89   c0.43-0.17,0.86-0.35,1.3-0.52c2.13-2.13,8.81-4.27,11.92-4.92c0.86,0,1.73,0,2.59,0c1.54-0.14,3.07-0.28,4.61-0.42   c1.01,0.52,2.42,0.54,3.51,0.31c1,0.87,4.93,1.2,6.39,1.41c1.04,0.35,2.07,0.69,3.11,1.04c2.42,0.6,4.84,1.21,7.26,1.81   c1.3,0.52,2.59,1.04,3.89,1.55c5.01,1.44,9.78,3.44,14.54,5.89c1.55,0.89,3.09,1.77,4.64,2.66c0.6,1.21,1.21,2.42,1.81,3.64   c2.75,0,5.18,1.57,7.77,2.07c0.52,0.26,1.04,0.52,1.55,0.78c1.25,0.36,3.45,0.6,4.41,1.55c1.21,0.43,2.42,0.86,3.63,1.3   c2.16,0.78,4.32,1.55,6.48,2.33c2.16,0.69,4.32,1.38,6.48,2.07c0.32,0.47,0.52,0.72,0.52,1.3c-0.43,3.54-0.86,7.08-1.3,10.62   c-0.17,2.5-0.35,5.01-0.52,7.51c1.4,3.23,4.16,5.56,4.92,8.81c1.02,1.03,1.81,2.93,1.81,4.41c-0.35,4.06-0.7,8.11-1.05,12.17   c-0.02,1.06-0.41,4.84-1.02,5.45c-0.31,3.69-0.62,7.38-0.92,11.07c0.95,2.17,0.99,6.03-0.36,8.01c0.08,1.07,0.16,2.14,0.24,3.21   c-0.69,2.52-0.94,5.1-1.3,7.77c-0.08,0.58,0.12,1.68,0.52,2.07c0,2,0.39,4.01,0,5.96c1.11,1.89,2.21,3.79,3.32,5.68   c0.17,0.43,0.35,0.86,0.52,1.29c1.57,1.99,3.14,3.99,4.71,5.98c1.3,2.33,2.59,4.66,3.89,7c0.35,0.86,0.69,1.73,1.04,2.59   c2.25,4.58,4.49,9.16,6.74,13.73c1.1,1.57,2.19,3.13,3.29,4.7c0.2,0.51,0.4,1.02,0.6,1.52c1.82,3.04,3.65,6.07,5.47,9.11   c1.63,2.49,3.26,4.98,4.89,7.47c2.44,3.2,4.57,6.5,6.22,10.11c1.05,2.29,3.11,6.82,3.11,9.07c0,0.59,0.36,3.11,0,3.11   L549.63,274.92z"/>
            <circle cx="454.92" cy="166.74" r="1.586"/>
        </g>
        <g id="__Yedisu">
            <path d="   M333.52,155.21c0.09-1.61,0.17-3.23,0.26-4.84c-0.42-0.55-0.26-1.7-0.26-2.41c-0.35-3.97-0.69-7.95-1.04-11.92   c-0.69-1.47-1.38-2.94-2.07-4.41c-0.34-2.71-0.88-5.26-0.75-8.05c0.09-1.87,0.4-3.54-0.02-5.43c-0.32-0.76-0.65-1.52-0.97-2.28   c-0.14-0.61-0.74-2.64-1.36-2.64c-1.87,0-5.16,0.76-6.48,2.07c-1.45,0.38-2.9,0.76-4.35,1.13c-0.67,0.12-1.34,0.25-2.02,0.37   c-1.07,0.02-2.15,0.03-3.22,0.05c-0.43,0.17-0.86,0.35-1.3,0.52c-1.38-0.43-2.76-0.86-4.15-1.3c-1.29-1.29-3.23-3.51-3.63-5.44   c-0.18-0.86-0.41-4.57,0-5.18c-0.24-1.89-0.54-3.67-1.26-5.48c-0.7-1.8-1.41-3.6-2.11-5.4c-0.4-1.91-0.79-3.82-1.19-5.73   c-0.1-0.79-0.03-2.01-0.62-2.56c0.26-2.85,0.52-5.7,0.78-8.55c0.1-1.01,1.2-3.41,0.68-4.04c0.23-0.85,0.84-1.89,0.36-2.7   c0.35-1.64,0.69-3.28,1.04-4.92c0.66-0.74,3.11-3.59,3.11-4.41c0.56-0.62,1.12-1.24,1.68-1.86c0.24-0.59,1.84-4.1,1.17-4.1   c0.17-0.17,0.35-0.35,0.52-0.52c-0.43-0.17-0.86-0.35-1.3-0.52c-1.47-0.14-2.95-0.28-4.42-0.42c-2.11-0.55-3.97-1.42-5.91-2.27   c-0.86-0.38-3.27-1.26-3.66-1.98c-6.22,0.95-12.44,1.9-18.66,2.85c-2.59,0-5.18,0-7.77,0c-2.75,0-5.32,0.13-8.03,0.52   c-1.04-0.09-2.07-0.17-3.11-0.26c-1.16,0-5.34,0.82-5.96,0.26c-3.31,0.78-6.71,1.08-10.11,1.55c-0.43,0.17-0.86,0.35-1.3,0.52   c-4.75,0.69-9.5,1.38-14.25,2.07c-0.86-0.09-1.73-0.17-2.59-0.26c-0.4,0.4-2.92,0.52-3.63,0.52c-0.85,0.8-1.6,0.84-2.75,1.01   c-2.21,0.34-4.44,0.53-6.58,1.06c-1.27,0.32-2.65,0.06-3.63,1.04c-0.95,0-2.7-0.09-3.11,0.78c-0.69,0-1.38,0-2.07,0   c-1.12,0.78-2.25,1.55-3.37,2.33c-0.69,0.35-1.38,0.69-2.07,1.04c-0.69,0.09-1.38,0.17-2.07,0.26c-0.91,0.91-3.63,2.14-3.63,3.63   c-3.7,3.7-7.94,7.88-8.55,13.22c-0.11,0.42-0.22,0.84-0.32,1.26c0.13,1.3,0.25,2.6,0.38,3.9c0.22,0.83,0.88,1.74,0.46,2.62   c1.02,1.92,2.04,3.83,2.59,5.96c0.53,2.04,0.43,4.04,0,5.96c-0.26,0.43-0.52,0.86-0.78,1.3c-0.18,0.46-0.92,2.5-0.64,2.68   c1.94,0.92,3.88,1.84,5.82,2.76c0.98,0,1.85,0.04,2.59,0.78c1.77-0.47,4.95,0.16,7,0.26c1.12,0.06,4.02,0.75,4.92,0.26   c0.6,0.17,1.21,0.35,1.81,0.52c1.4-0.02,1.71-0.61,2.85-0.78c1.47-0.09,2.94-0.17,4.41-0.26c0.77,0.77,2.79,0.78,3.89,0.78   c0.37,0.37,0.79,0.26,1.3,0.26c0.49,0.49,1.65,0.26,2.33,0.26c0.26,0.09,0.52,0.17,0.78,0.26c1.72-0.14,3.39-1.07,5.17-0.86   c2.16,0.26,4.94,1.02,6.75,2.15c3.37,0.78,6.74,1.55,10.11,2.33c1.73,0.48,6.21,2.07,7.51,3.37c0.32-0.17,0.59-0.17,0.86-0.11   l0.18,0.11c0.26,0.05,0.53,0.11,0.79,0.16c1.86,0.28,3.73,0.56,5.6,0.83c1.36,0.75,2.73,1.51,4.09,2.26   c1.26,0.73,2.52,1.46,3.77,2.19c2.25,0.95,4.49,1.9,6.74,2.85c3.33,0.86,6.83,2.43,9.85,4.15c1.36,0.64,2.72,1.28,4.07,1.92   c4.52,2.9,9.03,5.8,13.55,8.71c0.6,0.17,1.21,0.35,1.81,0.52c0.92,0.46,2.28,1.85,3.37,1.55c1.12,0.6,2.25,1.21,3.37,1.81   c1.81,1.21,3.63,2.42,5.44,3.63c4.72,2.27,8.59,5.58,13.98,6.28c2.17,0.43,4.33,0.87,6.5,1.3c0.71,0.03,1.5,0.55,2.06-0.06   c0.24,0.22,0.5,0.46,0.76,0.71L333.52,155.21z"/>
            <circle cx="278.2" cy="98.07" r="1.586"/>
        </g>
        <g id="__Bingöl">
            <path d="   M393.64,341.26c-0.98-2.18-0.74-6.49-0.52-8.81c-0.6-4.49-1.21-8.98-1.81-13.47c-0.26-0.6-0.52-1.21-0.78-1.81   c-0.92-1.34-1.83-2.68-2.75-4.02c-0.38-0.47-0.76-0.94-1.14-1.42c-1.54-3.16-3.46-6.06-5.36-8.93c-0.63-1.26-1.26-2.51-1.89-3.77   c-0.35-1.99-0.69-3.97-1.04-5.96c2.55-7.13,5.99-13.4,7.22-21.01c0.08-0.49-1.79-0.08-2.3-0.05c-2.59,0.16-4.82,0.23-7.25,1.1   c-3.4,1.22-7.08,1.22-10.62,1.81c-0.36-0.6-0.63-0.5-1.3-0.52c-0.88,0.88-4.6,1.15-5.73,0.91c-1.2,0.13-2.4,0.26-3.6,0.39   c-1.55,0.09-3.11,0.17-4.66,0.26c-1.6-0.21-2.93-0.65-4.33-1.26l-0.07,0.23c-0.52-0.02-1.05-0.03-1.57-0.05   c-0.85-0.13-2.25-0.35-2.83-0.99c-2.79,0-5.33-1.1-8.29-0.83c-1.98,0.21-3.97,0.42-5.95,0.63c-1.88,0.27-3.36,0.66-5.19,0.45   c-0.57-0.06-4.08-1.22-4.41-1.55c-3.02-0.78-6.05-1.55-9.07-2.33c-1.21-0.35-2.42-0.69-3.63-1.04c-0.76-0.34-2.35-1.36-3.11-1.04   c-0.76-0.39-1.73-1.25-2.59-0.78c-1.3-0.43-2.59-0.86-3.89-1.3c-1.03-0.18-2.34-1.55-3.37-1.04c-2.16-0.86-4.32-1.73-6.48-2.59   c-1.38-0.86-2.76-1.73-4.15-2.59c-1.3-0.6-2.59-1.21-3.89-1.81c-0.59-0.2-1.17-0.41-1.76-0.61c-1.9-0.84-3.66-1.89-5.76-2.24   c-1.9-0.69-3.8-1.38-5.7-2.07c-2.99-1.03-6.32-1.88-9.33-2.33c-2.76,0-5.53,0-8.29,0c-2.89-0.65-5.65-1.44-8.57-1.16   c-1.04,0.1-4.55-0.16-5.17,0.38c-0.88-0.14-2.35-0.57-3.11,0c-0.6,0-1.21,0-1.81,0c-0.99-0.23-2.98-1-3.89-0.52   c-0.62-0.29-1.17-0.77-1.81-0.52c-0.6-0.17-1.21-0.35-1.81-0.52c0.04-0.07,0.07-0.14,0.11-0.21l-1.14,0.21   c-3.45-0.09-6.91-0.17-10.37-0.26c-1.64-0.61-3.28-1.23-4.92-1.84c-2.76-0.25-5.53-0.5-8.29-0.75c-1.44,0.23-2.88,0.45-4.32,0.68   c-1.24-0.14-2.48-0.28-3.72-0.42c-1.23,0.02-2.24,1.03-3.36,0.15c-0.29-0.27-0.79-0.46-0.8-0.66l0.02,0.78   c0.03,2.74,0.01,2.11-0.32,3.89c-0.42,2.3-1.49,5.94-3.05,7.77c-1.43,2.07-2.86,4.14-4.28,6.21c-1.25,1.48-2.5,2.96-3.75,4.44   c-1.73,2.4-2.22,5.48-3.63,8.01c-2.21,3.97-3.94,8.46-4.66,12.96c-0.89,1.07-1.12,3.61-1.28,4.97c0.44,0.5,0.88,1,1.32,1.51   c-0.27,1.3-0.55,2.59-0.82,3.89c-0.49-0.11-0.69,0.17-1.04,0.52c0.26,0.69,0.52,1.38,0.78,2.07c-0.43,0.78-0.86,1.55-1.3,2.33   c-0.09,2.5-0.17,5.01-0.26,7.51c0.32,4.14-0.65,8.1-0.78,12.18c-0.05,1.67-0.09,3.56-0.83,5.11c-0.33,0.54-0.71-0.13-1.04,0.41   c-0.49,1.19-0.42,2.32,0.83,2.77c-0.39,1.3-0.58,2.91-0.26,4.15c-0.83,3.12-1.04,7.16-0.52,10.36c0.82,1.67,1.64,3.34,2.46,5.01   c0.45,0.77,1.39,2.06,2.36,1.93c1.34,1.72,2.5,3.03,2.96,5.24c0.5,2.45,0.49,4.83,0.78,7.26c0.09,0.78,0.17,1.55,0.26,2.33   c-0.68,5.79,0.11,11.73,3.79,16.46c0.43,0.54,4.33,0.45,5.02,0.64c3.89,1.04,4.41,1.55,8.29,2.59c1.99,1.12,3.97,0.69,5.96,1.81   c3.06,1.08,6.13,2.15,9.19,3.23c1.08,0.49,2.15,0.97,3.23,1.46c1.88,1.5,3.93,2.79,5.2,4.9c0.95,1.47,1.9,2.93,2.84,4.4   c0.35,1.28,0.82,2.34,1.51,3.44c-0.41,1.57,0.16,3.67,0.32,5.38c-0.69,0.55-1.09,2.71-1.3,3.63c-0.35,0.43-0.69,0.86-1.04,1.3   c-1.81,1.73-3.63,3.46-5.44,5.18c-0.14,1.29-1.78,2.64-2.59,3.63c-0.15,1.1-1.08,1.64-1.55,2.59c-0.87,1.73-1.99,3-2.59,4.92   c-0.71,0.02-0.81,0.29-1.3,0.78c-0.78,1.06-2.02,0.49-3.12,0.51c-1.9,0.09-3.8,0.18-5.69,0.27c-0.55-0.48-1.88-0.32-2.62-0.28   c0.51,0.79,1.03,1.58,1.54,2.36c0.7,1.03,3.51,3.06,4.7,3.61c1.77,0.82,3.5,0.48,4.92-0.52c0.86,0.08,1.73,0.16,2.59,0.23   c0.58,0.05,2.72,1.27,3.07,1.45c0.35,0.16,2.69,0.78,3.66,0.88c1.47,0.09,2.94,0.19,4.41,0.28c0.69-0.09,1.38-0.17,2.07-0.26   c1.91,0.23,2.96-0.51,4.88-0.39c0.52-0.69,2.62,0.31,3.46,0.15c0.44-0.05,0.73,1.02,0.84,1.4c0.74,0.48,1.48,0.95,2.22,1.43   c0.6-0.27,1.69,0.28,2.36,0.4c1.37,0.3,2.75,0.59,4.12,0.89c0.5-0.41,1.17-0.26,1.81-0.26c1.06-1.13,3.32-0.98,4.66-1.55   c1.5-1.34,3-2.68,4.5-4.02c0.57-0.3,1.14-0.6,1.72-0.9c2.59-2.02,4.7-3.4,7.77-4.66c4.6-1.34,9.2-2.69,13.81-4.03   c1.36-0.21,2.72-0.42,4.07-0.63c1.46,0.17,2.74,0.12,4.15-0.52c2.36-1.07,4.46-2.43,6.48-4.15c0.43-0.95,0.86-1.9,1.3-2.85   c2.5-1.81,5.01-3.63,7.51-5.44c4.43-1.93,8.99-3.45,13.47-5.44c1.04,0.25,3.29-0.65,3.13-1.04c-1.35,1,1.01-1.16,1.79-1.54   c2.38-1.15,3.6-3.34,5.45-5.19c-0.36-0.68,0.01-1.11,0.26-1.81c-0.42-1.05,0.57-2.38,1.3-3.11c0.85,0,1.78-0.21,2.48-0.75   c0.38-0.44,0.77-0.89,1.15-1.33c0.96,0.3,1.61,0.1,2.59,0c0.42,0.44,0.76,0.31,1.3,0.52c0-0.65,1.03-0.99,1.55-1.3   c0.61,0.56,2.26,0.58,3.12,0.53c2.33-0.18,4.66-0.36,6.99-0.53c-0.09-0.84,2.19-0.42,2.81-1.08c0.52-0.09,1.55-1.3,2.07-1.38   c1.21-2.07,1.38-2.76,2.67-2.93c0.44-1-0.79-0.3-0.04-1.09c1.15-1.3,2.45-2.45,3.89-3.36c0.42,0.28,3.49-0.29,4.15-0.52   c0.63-0.31,1.27-0.62,1.9-0.92c1.57-0.57,3.2-0.53,4.83-0.37c0.52-0.43,1.04-0.86,1.55-1.3c1.43-0.86,2.86-1.73,4.28-2.59   c1.28-0.75,2.66-0.64,4.01-1.04c2.59-1.03,6.26-1.78,8.85-2.81c3-0.94,4.93-2.18,7.93-3.12c2.96-0.97,5.92-1.93,8.88-2.9   c0.26,0.07,0.53,0.15,0.79,0.22c0.17,0.19,0.33,0.38,0.5,0.57c-0.2-0.87,0.41-1.53,0.84-2.29c0.19-0.29-0.16-1.02-0.29-1.51   c-1.05-0.38-2.09-0.75-3.14-1.13c-1.04,0-2.07,0-3.11,0c-0.98,0.66-5.12,0.26-6.48,0.26c-0.33-0.21-0.66-0.42-1-0.63   c-0.39-0.19-0.36-0.75-0.49-1.2c-0.21-0.78,0.63-1.91,0.95-2.58c0.4-0.75,1.85-1.3,2.74-1.66c2.23-0.89,4.06-2.21,6.1-3.51   c0.52-0.95,1.04-1.9,1.55-2.85c0.86-1.47,1.73-2.94,2.59-4.41c0.26-0.78,0.52-1.55,0.78-2.33c0.02-0.69,0.03-1.38,0.05-2.07   c-0.02-0.95-0.03-1.9-0.05-2.85C393.7,343.58,393.48,342.28,393.64,341.26z M201.63,297.86c-0.09,0.21-0.17,0.43-0.26,0.64   c-0.91-0.61-2.03-1.06-3.06-1.02c-0.77,0.03-1.82,0.77-2.38,0.24c-1.11-0.85-3.18-2.68-2.59-4.15c-0.47-0.9-1.04-1.57-1.04-2.59   c0-0.25-0.03-0.28,0.19-0.16c1.58,0.57,3.16,1.14,4.74,1.72c1.11,0.63,1.46,1.74,2.85,1.81c0.47,0.63,0.74,1.81,1.55,2.07   c0.01,0.34,0.02,0.69,0.03,1.03c0.11,0.11,0.22,0.21,0.33,0.32C201.87,297.8,201.75,297.83,201.63,297.86z"/>
            <circle cx="260.58" cy="366" r="1.586"/>
        </g>
        <g id="__Adaklı">
            <path d="   M219.25,248.49c0.86,0,3.06-2.6,3.63-3.37c-0.27-0.57,0.26-1.72,0.45-2.36c-0.32-0.68-0.64-1.36-0.96-2.04   c-0.67-2.22-1.53-4.23-2.85-5.96c-0.26-0.43-0.52-0.86-0.78-1.3c-0.67-1.12-1.33-2.24-2-3.36c-0.54-0.43-1.08-0.87-1.63-1.3   c-0.42-0.61-0.92-0.88-1.55-1.3c-0.37-0.96-1.56-1.49-2.32-2.14c-1.86-1.48-3.73-2.97-5.59-4.45c-1.68-1.17-3.37-2.34-5.05-3.51   c-0.17-0.6-0.35-1.21-0.52-1.81c0.35-0.95,0.69-1.9,1.04-2.85c0.35-0.52,0.69-1.04,1.04-1.55c1.65-1.62,2.59-3.93,3.49-6.06   c0.48-0.92,0.96-1.84,1.43-2.75c0.65-2.51,1.52-4.75,2.46-7.17c0.73-1.33,1.47-2.65,2.2-3.98c0.19-1.27,2.5-6.18,3.34-7.06   c1.41-1.08,2.82-2.16,4.24-3.25c1.88-1.66,3.76-3.32,5.64-4.98c0.6-1.12,1.21-2.25,1.81-3.37c1.64-3.37,3.28-6.74,4.92-10.11   c0.86-3.02,1.73-6.05,2.59-9.07c0.53-3.76,0.59-7.65,2.33-11.13c0.25-0.69,0.5-1.37,0.75-2.06c0.53-1.48,1.06-2.95,1.59-4.43   c2.33-3.87,4.66-7.75,7-11.62c0.27-0.84,0.24-2.09,0.52-2.63c0.38-1.03,0.76-2.07,1.13-3.1l0.16-0.53   c0.26,0.05,0.53,0.11,0.79,0.16c1.86,0.28,3.73,0.56,5.6,0.83c1.36,0.75,2.73,1.51,4.09,2.26c1.26,0.73,2.52,1.46,3.77,2.19   c2.25,0.95,4.49,1.9,6.74,2.85c3.33,0.86,6.83,2.43,9.85,4.15c1.36,0.64,2.72,1.28,4.07,1.92c4.52,2.9,9.03,5.8,13.55,8.71   c0.6,0.17,1.21,0.35,1.81,0.52c0.92,0.46,2.28,1.85,3.37,1.55c1.12,0.6,2.25,1.21,3.37,1.81c1.81,1.21,3.63,2.42,5.44,3.63   c4.72,2.27,8.59,5.58,13.98,6.28c2.17,0.43,4.33,0.87,6.5,1.3c0.71,0.03,1.5,0.55,2.06-0.06c0.24,0.22,0.5,0.46,0.76,0.71   c0.48,0.48,0.92,1.01,1.06,1.62c1.43,0.74,2.86,1.48,4.28,2.22c0.11,0.33,3.82,3.01,4.36,3.28c1.35,1.54,2.7,3.07,4.06,4.61   c1.11,2.4,1.83,5.83,0.78,8.29c-0.26,1.12-0.52,2.25-0.78,3.37c0.03,0.93-0.25,2.75,0.52,3.37c-0.09,0.95-0.17,1.9-0.26,2.85   c0.6,2.68,1.21,5.36,1.81,8.03c0.48,0.98,0.19,2.31,1.04,3.11c0.78,2.94,1.55,5.87,2.33,8.81c0.02,1.64,0.04,3.27,0.06,4.91   c0.24,1.3,0.48,2.6,0.71,3.9c-0.09,0.96-0.39,2.72,0.26,3.37c-0.7,1.03-0.7,1.53-1.86,2.26c-0.97,0.6-4.96,3.33-5.91,2.92   c-0.35,0.43-0.69,0.85-1.04,1.28c0,1.92,1.45,3.86,1.04,5.98c-0.59,1.29-1.17,2.59-1.76,3.88c-0.26,1.04-0.11,3.08-1.09,3.64   c0.41,1.69,0.84,6.66,2.07,7.77c0,0.86-0.19,2.28,0.52,2.85c-0.07,1.06,0.27,2.81-0.52,3.63c0.08,3.28,0.16,6.56,0.24,9.84   c0.02,3.11,0.04,6.22,0.06,9.33c0.06,0.93,0.3,1.82-0.19,2.64c0.13,0.16,0.26,0.32,0.4,0.48c-0.52-0.02-1.05-0.03-1.57-0.05   c-0.85-0.13-2.25-0.35-2.83-0.99c-2.79,0-5.33-1.1-8.29-0.83c-1.98,0.21-3.97,0.42-5.95,0.63c-1.88,0.27-3.36,0.66-5.19,0.45   c-0.57-0.06-4.08-1.22-4.41-1.55c-3.02-0.78-6.05-1.55-9.07-2.33c-1.21-0.35-2.42-0.69-3.63-1.04c-0.76-0.34-2.35-1.36-3.11-1.04   c-0.76-0.39-1.73-1.25-2.59-0.78c-1.3-0.43-2.59-0.86-3.89-1.3c-1.03-0.18-2.34-1.55-3.37-1.04c-2.16-0.86-4.32-1.73-6.48-2.59   c-1.38-0.86-2.76-1.73-4.15-2.59c-1.3-0.6-2.59-1.21-3.89-1.81c-0.59-0.2-1.17-0.41-1.76-0.61c-1.9-0.84-3.66-1.89-5.76-2.24   c-1.9-0.69-3.8-1.38-5.7-2.07c-2.99-1.03-6.32-1.88-9.33-2.33c-2.76,0-5.53,0-8.29,0c-2.89-0.65-5.65-1.44-8.57-1.16   c-1.04,0.1-4.55-0.16-5.17,0.38c-0.88-0.14-2.35-0.57-3.11,0c-0.6,0-1.21,0-1.81,0c-0.99-0.23-2.98-1-3.89-0.52   c-0.62-0.29-1.17-0.77-1.81-0.52c-0.6-0.17-1.21-0.35-1.81-0.52c0.04-0.07,0.07-0.14,0.11-0.21L219.25,248.49z"/>
            <circle cx="253.45" cy="198.22" r="1.586"/>
        </g>
        <g id="__Kiğı">
            <path d="   M247.59,118.42c-0.38,1.03-0.76,2.07-1.13,3.1c-0.28,0.54-0.25,1.79-0.52,2.63c-2.33,3.87-4.66,7.75-7,11.62   c-0.53,1.48-1.06,2.95-1.59,4.43c-0.25,0.69-0.5,1.37-0.75,2.06c-1.74,3.49-1.8,7.38-2.33,11.13c-0.86,3.02-1.73,6.05-2.59,9.07   c-1.64,3.37-3.28,6.74-4.92,10.11c-0.6,1.12-1.21,2.25-1.81,3.37c-1.88,1.66-3.76,3.32-5.64,4.98c-1.41,1.08-2.82,2.16-4.24,3.25   c-0.84,0.88-3.14,5.79-3.34,7.06c-0.73,1.33-1.47,2.65-2.2,3.98c-0.94,2.41-1.81,4.66-2.46,7.17c-0.48,0.92-0.96,1.84-1.43,2.75   c-0.9,2.12-1.84,4.44-3.49,6.06c-0.35,0.52-0.69,1.04-1.04,1.55c-0.35,0.95-0.69,1.9-1.04,2.85c0.17,0.6,0.35,1.21,0.52,1.81   c1.68,1.17,3.37,2.34,5.05,3.51c1.86,1.48,3.73,2.97,5.59,4.45c0.76,0.65,1.95,1.18,2.32,2.14c0.64,0.41,1.13,0.69,1.55,1.3   c0.54,0.43,1.08,0.87,1.63,1.3c0.67,1.12,1.33,2.24,2,3.36c0.26,0.43,0.52,0.86,0.78,1.3c1.32,1.73,2.18,3.74,2.85,5.96   c0.32,0.68,0.64,1.36,0.96,2.04c-0.19,0.65-0.71,1.8-0.45,2.36c-0.57,0.77-2.77,3.37-3.63,3.37c-3.45-0.09-6.91-0.17-10.37-0.26   c-1.64-0.61-3.28-1.23-4.92-1.84c-2.76-0.25-5.53-0.5-8.29-0.75c-1.44,0.23-2.88,0.45-4.32,0.68c-1.24-0.14-2.48-0.28-3.72-0.42   c-1.23,0.02-2.24,1.03-3.36,0.15c-0.29-0.27-0.79-0.46-0.8-0.66c-0.08-1.9-0.16-3.8-0.24-5.7c-0.17-0.95-0.35-1.9-0.52-2.85   c-1.39-3.02-2.42-6.34-4.41-9.07c-1.28-1.76-2.2-4.49-4.22-5.57c-1.67-0.89-2.9-1.98-4.78-2.57c-0.97-0.05-1.95-0.1-2.92-0.15   c-1.44,0.04-3.14,0.11-4.41,0.78c-0.65-0.18-1.28-0.17-1.38-0.76c0.03-0.26,0.05-0.53,0.08-0.79c0.61-0.45,1.57-0.66,1.94-1.4   c0.3-0.61,0.93-2.11,1.68-2.28c0.78-0.15,1.57-0.31,2.35-0.46c1.39,0.38,2.75,0.99,4.15,0.41c0.95-0.4,1.9-0.79,2.85-1.19   c0.55-0.46,1.1-0.91,1.64-1.37c0.75-0.32,1.5-0.64,2.24-0.96c0.6,0.08,1.2,0.16,1.81,0.23c0.84-0.04,1.51-0.4,2.34,0.02   c1.17-0.27,2.21-1,3.37-0.78c1.12-0.6,2.25-1.2,3.37-1.81c0.7-0.46,0.89-1.13,1.81-1.04c0.22-0.35,0.44-0.71,0.66-1.06   c-1.59-0.32-5.21,0.44-5.59,2.36c-0.96,0.08-1.95,0.42-2.85,0c-0.6,0.2-1.2,0.39-1.8,0.59c-0.72,0.12-1.49-0.21-2.09,0.45   c-2.24,0-3.51,0.22-5.18,1.81c-0.78,0.74-2.72,0.9-3.11,1.81c-1.62-0.2-6.31-1.98-7.51-0.52c-0.6,0.87-2.01,1.98-1.04,2.85   c-0.75,0.25-1.21,0.73-1.53-0.01c-0.32-0.79-1.05-2.36-0.54-3.1c-0.48-0.56-1.14-1.62-1.81-1.81c-1.75-3.68-2.46-7.55-4-11.18   c-2.36-4.06-4.71-8.12-7.07-12.18c-1.05-2.03-2.19-3.95-3.44-5.92c-0.56-0.88-1-2.46-2.02-2.71c-0.77-0.23-2.96-0.82-3.68-0.4   c-0.93-0.41-1.86-1.57-2.85-1.55c-1.92-1.96-3.85-3.92-5.77-5.88c-0.39-0.54-0.74-0.98-0.7-1.64c-1.04-0.86-2.07-1.73-3.11-2.59   c-1.38-1.3-2.76-2.59-4.15-3.89c-0.52-0.17-1.04-0.35-1.55-0.52c0.09-0.07,0.18-0.14,0.27-0.21c3.86-2.97,8.48-5.29,12.96-7.47   c0.37-0.54,1-0.67,1.6-0.89c0.77-0.96,1.18-2.69,2.79-1.54c0.38-0.86,2.35-1.84,3.16-2.41c2.66-1.7,5.32-3.4,7.98-5.1   c1.73-0.97,3.5-2.38,4.66-3.89c1.66-1.44,3.31-2.88,4.97-4.32c1.62-1.67,3.25-3.34,4.87-5c1.05-1.52,2.11-3.04,3.16-4.57   c2.06-3.31,4.11-6.63,6.17-9.94c0.53-1.36,2.44-5.43,3.63-5.96c0.43-1.32,2.39-5.46,3.6-5.42l0.17-0.45   c1.94,0.92,3.88,1.84,5.82,2.76c0.98,0,1.85,0.04,2.59,0.78c1.77-0.47,4.95,0.16,7,0.26c1.12,0.06,4.02,0.75,4.92,0.26   c0.6,0.17,1.21,0.35,1.81,0.52c1.4-0.02,1.71-0.61,2.85-0.78c1.47-0.09,2.94-0.17,4.41-0.26c0.77,0.77,2.79,0.78,3.89,0.78   c0.37,0.37,0.79,0.26,1.3,0.26c0.49,0.49,1.65,0.26,2.33,0.26c0.26,0.09,0.52,0.17,0.78,0.26c1.72-0.14,3.39-1.07,5.17-0.86   c2.16,0.26,4.94,1.02,6.75,2.15c3.37,0.78,6.74,1.55,10.11,2.33c1.73,0.48,6.21,2.07,7.51,3.37L247.59,118.42z"/>
            <circle cx="205.13" cy="160.52" r="1.586"/>
        </g>
        <g id="__Genç">
            <path d="   M446.84,461.96c0.79,2.83,1.67,7.76,1.08,9.51c-0.26,0.78-1.52,0.59-3.89,2.59c-1.6,1.35-2.92,3.46-4.67,4.66   c-1.7,1.17-3.3,2.05-4.92,3.32c-1.57,1.24-3.38,2.01-4.92,3.42c-1.67,1.53-3.3,2.93-5.19,3.88c-1.47,0.74-2.85,1.75-4.2,2.54   c-2.52,1.47-7.23,3.24-8.79,5.72c-3.47,1.48-5.56,4.62-8.56,6.72c-1.58,1.1-2.64,1.8-3.83,3.43c-1.08,1.48-2.87,2.95-3.67,4.36   c-1.05,0.2-1.89,0.83-2.33,1.81c-3.33,0.87-4.7,0.64-7.21,2.89c-1.26,1.13-4.15,2.33-7.26,4.66c-1.96,1.47-0.68-3.77-0.78-5.7   c-0.8,0.06-1.23,1.71-2.03,1.77c-0.1-0.7-1.83-1.59-1.86-2.29c-1.37,1.38-2.67,3.45-2.33,0.52c0.22-1.94,0.89-3.14,0.78-5.7   c-2.33-0.52-4.08-1.8-6.74-2.85c-2.48-0.98-5.42-0.37-8.03-0.98c-4.66-1.09-6.22-1.61-12.96-0.58c-1.28,0.2-3.3-0.28-5.18-1.04   c-1.94-0.78-4.36-1.29-6.48-1.3c-3.74,0-8.89-0.51-11.66,2.33c-2.7,2.77-5.65,9.4-8.03,12.44c-4.66,5.96-11.25,5.2-18.64,2.52   c-7.59-2.75-15.74-3.76-22.82-8.48c-1.89-1.26-2.47-2.6-3.94-4.15c-1.53-1.61-3.45-2.03-5.19-3.04c-3.24-1.89-5.7-4.82-8.75-6.86   c-0.42-0.28-2.68-2.22-2.84-2.24c-1.39-0.11-1,0.95-1.56,1.78c-1,1.49-1.59,3.28-2.55,4.72c-0.99,1.5-2.62,3-3.36,4.4   c-1.08,2.05-1.37,3.82-3.9,4.39c-1.18,2.06-5.28,3.33-7.31,4.81c-2.57,1.86-5.06,3.17-7.78,4.74c-4.48,2.57-7.28,5.39-11.38,8.81   c-2.16,1.8-5,3.21-5.17,5.96c-0.13,2.1-0.33,4-0.52,5.97c-0.19,1.95-0.64,4.33,0.55,6.21c1.6,2.53,4.54,2.25,3.58,5.44   c-0.78,2.59-1.04,3.37-2.14,5.63c-0.96,1.96-7.97,3.7-10.3,5.25c-1.86,1.24-3.63,1.3-5.51,3.34c-3.44-3.8-6.06-5.55-10.04-8.78   c-4.15-3.37-8.14-4.62-12.18-5.96c-1.69-1.67-1.35-4.37-2-6.55c-0.68-2.25-1.06-4.62-1.62-6.93c-0.6-2.47-1.51-4.54-2.27-7   c-0.78-2.51,0.11-5.52-1.88-7.19c-1.28-1.07-3.66-1.51-5.19-2.39c-1.72-0.99-3.51-2.05-5.2-3.11c-3.19-2.01-6.49-3.3-9.55-5.77   c-3.22-2.6-6.68-3.3-9.28-6.48c-2.26-2.76-4.4-5.24-6.29-8.22c-2.47-3.9-3.83-5.87-2.32-10.62c0.59-1.85,1.74-3.36,2.33-5.19   c0.78-2.43,1.12-3,2.91-4.92c2.69-2.9,5.06-6.45,7.7-9.4c2.48-2.76,5.45-5.57,8.03-8.28c5.09-5.35,11.16-10.3,16.67-15.41   c3.11-2.88,7.11-4.05,10.36-6.56c2.07-1.6,4.88-2.22,7.41-2.58c3.26-0.47,4.05-0.5,5.83,2.22c0.7,1.03,3.51,3.06,4.7,3.61   c1.77,0.82,3.5,0.48,4.92-0.52c0.86,0.08,1.73,0.16,2.59,0.23c0.58,0.05,2.72,1.27,3.07,1.45c0.35,0.16,2.69,0.78,3.66,0.88   c1.47,0.09,2.94,0.19,4.41,0.28c0.69-0.09,1.38-0.17,2.07-0.26c1.91,0.23,2.96-0.51,4.88-0.39c0.52-0.69,2.62,0.31,3.46,0.15   c0.44-0.05,0.73,1.02,0.84,1.4c0.74,0.48,1.48,0.95,2.22,1.43c0.6-0.27,1.69,0.28,2.36,0.4c1.37,0.3,2.75,0.59,4.12,0.89   c0.5-0.41,1.17-0.26,1.81-0.26c1.06-1.13,3.32-0.98,4.66-1.55c1.5-1.34,3-2.68,4.5-4.02c0.57-0.3,1.14-0.6,1.72-0.9   c2.59-2.02,4.7-3.4,7.77-4.66c4.6-1.34,9.2-2.69,13.81-4.03c1.36-0.21,2.72-0.42,4.07-0.63c1.46,0.17,2.74,0.12,4.15-0.52   c2.36-1.07,4.46-2.43,6.48-4.15c0.43-0.95,0.86-1.9,1.3-2.85c2.5-1.81,5.01-3.63,7.51-5.44c4.43-1.93,8.99-3.45,13.47-5.44   c1.04,0.25,3.29-0.65,3.13-1.04c-1.35,1,1.01-1.16,1.79-1.54c2.38-1.15,3.6-3.34,5.45-5.19c-0.36-0.68,0.01-1.11,0.26-1.81   c-0.42-1.05,0.57-2.38,1.3-3.11c0.85,0,1.78-0.21,2.48-0.75c0.38-0.44,0.77-0.89,1.15-1.33c0.96,0.3,1.61,0.1,2.59,0   c0.42,0.44,0.76,0.31,1.3,0.52c0-0.65,1.03-0.99,1.55-1.3c0.61,0.56,2.26,0.58,3.12,0.53c2.33-0.18,4.66-0.36,6.99-0.53   c-0.09-0.84,2.19-0.42,2.81-1.08c0.52-0.09,1.55-1.3,2.07-1.38c1.21-2.07,1.38-2.76,2.67-2.93c0.44-1-0.79-0.3-0.04-1.09   c1.15-1.3,2.45-2.45,3.89-3.36c0.42,0.28,3.49-0.29,4.15-0.52c0.63-0.31,1.27-0.62,1.9-0.92c1.57-0.57,3.2-0.53,4.83-0.37   c0.52-0.43,1.04-0.86,1.55-1.3c1.43-0.86,2.86-1.73,4.28-2.59c1.28-0.75,2.66-0.64,4.01-1.04c2.59-1.03,6.26-1.78,8.85-2.81   c3-0.94,4.93-2.18,7.93-3.12c2.96-0.97,5.92-1.93,8.88-2.9c0.26,0.07,0.53,0.15,0.79,0.22c0.17,0.19,0.33,0.38,0.5,0.57l0.5,4.07   c0.3,0.84,0.61,1.67,0.92,2.51c1.75,1.44,2.47,1.23,4.55,1.87c0.88,0.27,1.15,1.06,2.32,0.62c0.79,0.48,1.59,0.96,2.38,1.43   c0.94,1.7,2.24,2.95,1.77,5.04c0,0.43,0,0.86,0,1.3c1.04,1.77,2.07,3.28,2.85,5.18c1.64,2.5,3.28,5.01,4.92,7.51   c0.52,1.04,1.04,2.07,1.55,3.11c1.16,0.99,2.32,1.97,3.48,2.96c1.07,0.49,1.96,0.78,2.76,1.66c2.76,2.87,5.51,5.73,8.27,8.6   c1.37,2.48,3.04,4.66,4.72,6.93c1.28,1.66,2.55,3.33,3.83,4.99c0.52,1.57,1.65,4.95,2.85,5.96c0.14,1.08,0.98,4.07,0.52,4.92   c0.69,1.9,1.38,3.8,2.07,5.7c0.2,0.92,0.4,1.84,0.6,2.75c0.27,0.81,1.41,4.26,1.21,4.76c0.65,1.13,1.29,2.27,1.94,3.4   C446.18,459.6,446.51,460.78,446.84,461.96z"/>
            <circle cx="283.38" cy="432.08" r="1.586"/>
        </g>
    </g>
</svg>