<?xml version="1.0" encoding="UTF-8"?>
<!DOCTYPE svg PUBLIC "-//W3C//DTD SVG 1.1//EN" "http://www.w3.org/Graphics/SVG/1.1/DTD/svg11.dtd">
<svg version="1.1" id="HaritaCizim" xmlns="http://www.w3.org/2000/svg" xmlns:xlink="http://www.w3.org/1999/xlink" x="0px" y="0px" viewBox="0 0 500 415" preserveAspectRatio="none">
    <defs id="__def">
        <radialGradient id="f">
            <stop offset="0" stop-color="white" stop-opacity="1"/>
            <stop id="STOP1" offset=".4" stop-opacity="1"/>
            <stop offset="1" stop-color="white" stop-opacity=".2"/>
        </radialGradient>
        <filter id="__flt1" x="0" y="0" width="200%" height="200%" filterUnits="objectBoundingBox">
            <feGaussianBlur in="SourceAlpha" stdDeviation="3" result="blur1"/>
            <feSpecularLighting result="specOut" in="blur1" specularConstant="1.5" specularExponent="20" lighting-color="#bbbbbb">
                <feDistantLight azimuth="45" elevation="30"/>
            </feSpecularLighting>
            <feComposite in="specOut" in2="SourceAlpha" operator="in" result="specOut"/>
            <feComposite in="SourceGraphic" in2="specOut" operator="arithmetic" k1="0" k2="1" k3="1" k4="0"/>
        </filter>
        <filter id="__flt2" x="0" y="0" width="200%" height="200%" filterUnits="objectBoundingBox">
            <feGaussianBlur in="SourceAlpha" stdDeviation="3" result="blur1"/>
            <feSpecularLighting result="specOut" in="blur1" specularExponent="20" lighting-color="#bbbbbb">
                <fePointLight x="-2000" y="100" z="2000"/>
            </feSpecularLighting>
            <feComposite in="specOut" in2="SourceAlpha" operator="in" result="specOut"/>
            <feComposite in="SourceGraphic" in2="specOut" operator="arithmetic" k1="0" k2="1" k3="1" k4="0"/>
        </filter>
        <filter id="__flt3" x0="-50%" y0="-50%" width="200%" height="200%" filterUnits="objectBoundingBox">
            <feGaussianBlur in="SourceAlpha" stdDeviation="3" result="blur"/>
            <feOffset in="blur" dx="0" dy="0" result="offsetBlur"/>
            <feSpecularLighting in="blur" surfaceScale="4" specularConstant=".5" specularExponent="20" lighting-color="flavor" result="specOut">
                <fePointLight x="-5000" y="-10000" z="5000"/>
            </feSpecularLighting>
            <feComposite in="specOut" in2="SourceAlpha" operator="in" result="specOut"/>
            <feComposite in="SourceGraphic" in2="specOut" operator="arithmetic" k1="0" k2="1" k3="1" k4="0" result="litPaint"/>
            <feMerge>
                <feMergeNode in="offsetBlur"/>
                <feMergeNode in="litPaint"/>
            </feMerge>
        </filter>
        <filter id="__flt4" x0="-50%" y0="-50%" width="200%" height="200%">
            <feGaussianBlur in="SourceAlpha" stdDeviation="2" result="blur"/>
            <feOffset dy="-1" dx="-1"/>
            <feComposite in2="SourceAlpha" operator="arithmetic" k2="-1" k3="1" result="hlDiff"/>
            <feFlood flood-color="white" flood-opacity=".7"/>
            <feComposite in2="hlDiff" operator="in"/>
            <feComposite in2="SourceGraphic" operator="over" result="withGlow"/>

            <feOffset in="blur" dy="3" dx="3"/>
            <feComposite in2="SourceAlpha" operator="arithmetic" k2="-1" k3="1" result="shadowDiff"/>
            <feFlood flood-color="black" flood-opacity="1"/>
            <feComposite in2="shadowDiff" operator="in"/>
            <feComposite in2="withGlow" operator="over"/>
        </filter>
        <filter id="__golge1" x="0" y="0" width="200%" height="200%" filterUnits="userSpaceOnUse">
            <feOffset result="offOut" in="SourceAlpha" dx="8" dy="8"/>
            <feGaussianBlur result="blurOut" in="offOut" stdDeviation="3"/>
            <feBlend in="SourceGraphic" in2="blurOut" mode="normal"/>
        </filter>
    </defs>
    <g id="__Komsular" display="none">
        <radialGradient id="SVGID_1_" cx="401.5093" cy="104.9634" r="11.0457" gradientUnits="userSpaceOnUse">
            <stop offset="0" style="stop-color:#3E5DAA"/>
            <stop offset="1.924217e-003" style="stop-color:#3F5EAA"/>
            <stop offset="0.0893" style="stop-color:#6C84BE"/>
            <stop offset="0.1808" style="stop-color:#93A4CF"/>
            <stop offset="0.2792" style="stop-color:#B4C0DE"/>
            <stop offset="0.3837" style="stop-color:#D0D7EA"/>
            <stop offset="0.4967" style="stop-color:#E5E9F3"/>
            <stop offset="0.6225" style="stop-color:#F4F5FA"/>
            <stop offset="0.7711" style="stop-color:#FCFDFE"/>
            <stop offset="1" style="stop-color:#FFFFFF"/>
        </radialGradient>
        <path fill-rule="evenodd" clip-rule="evenodd" fill="url(#SVGID_1_)" stroke="#000000" stroke-width="0.25" stroke-miterlimit="10" d="   M394.25,103.49c-0.05,0.37-0.28,0.41-0.15,0.77c0.61,1.64,1.9,2.47,3.4,3.41c2.18,1.37,3.52,2.39,6.21,2.18   c0.28,0.02,0.55,0.03,0.83,0.05c0.68-0.37,3.09-1.45,3.19-1.97c0.07-0.47,0.13-0.95,0.2-1.42c0.3-0.3,0.66-1.78,0.56-2.21   c0.16-0.18,0.32-0.35,0.48-0.53c-0.1-0.26-0.21-0.52-0.31-0.79c-0.66-0.6-1.32-1.21-1.97-1.81c-1.05-0.23-1.92-0.38-2.8-0.66   c-0.33-0.05-0.66-0.11-0.99-0.16c-0.38,0.04-0.77,0.09-1.15,0.13c-0.66-0.15-1.32-0.3-1.97-0.46c-0.33,0.06-0.66,0.11-0.99,0.16   c-0.24,0.2-0.48,0.39-0.72,0.59c-0.38,0.19-0.76,0.28-0.93,0.73c-1.1,0.35-1.92,0.35-2.54,1.44   C394.23,103,394.29,103.16,394.25,103.49z"/>
        <radialGradient id="SVGID_2_" cx="362.0947" cy="96.9146" r="3.8139" fx="365.9086" fy="96.9427" gradientUnits="userSpaceOnUse">
            <stop offset="0" style="stop-color:#3E5DAA"/>
            <stop offset="1.924217e-003" style="stop-color:#3F5EAA"/>
            <stop offset="0.0893" style="stop-color:#6C84BE"/>
            <stop offset="0.1808" style="stop-color:#93A4CF"/>
            <stop offset="0.2792" style="stop-color:#B4C0DE"/>
            <stop offset="0.3837" style="stop-color:#D0D7EA"/>
            <stop offset="0.4967" style="stop-color:#E5E9F3"/>
            <stop offset="0.6225" style="stop-color:#F4F5FA"/>
            <stop offset="0.7711" style="stop-color:#FCFDFE"/>
            <stop offset="1" style="stop-color:#FFFFFF"/>
        </radialGradient>
        <path fill-rule="evenodd" clip-rule="evenodd" fill="url(#SVGID_2_)" stroke="#000000" stroke-width="0.25" stroke-miterlimit="10" d="   M360.13,96.71c0.05,0.34,0.1,0.68,0.15,1.02c0.49,0.37,0.73,0.84,1.3,0.81c0.66-0.07,1.79-0.44,2.06-1.16   c0.13-0.35,0.08-0.64,0.42-0.8c-0.06-0.07-0.11-0.13-0.17-0.2c-0.36-0.36,0.02-0.58-0.34-0.66c-0.49,0.01-0.98,0.03-1.47,0.04   c-0.14-0.43-0.13-0.52-0.6-0.41c-0.66,0.22-0.94,0.48-1.13,1.12C360.28,96.54,360.21,96.62,360.13,96.71z"/>
        <radialGradient id="SVGID_3_" cx="233.7734" cy="89.1836" r="27.2331" gradientUnits="userSpaceOnUse">
            <stop offset="0" style="stop-color:#3E5DAA"/>
            <stop offset="1.924217e-003" style="stop-color:#3F5EAA"/>
            <stop offset="0.0893" style="stop-color:#6C84BE"/>
            <stop offset="0.1808" style="stop-color:#93A4CF"/>
            <stop offset="0.2792" style="stop-color:#B4C0DE"/>
            <stop offset="0.3837" style="stop-color:#D0D7EA"/>
            <stop offset="0.4967" style="stop-color:#E5E9F3"/>
            <stop offset="0.6225" style="stop-color:#F4F5FA"/>
            <stop offset="0.7711" style="stop-color:#FCFDFE"/>
            <stop offset="1" style="stop-color:#FFFFFF"/>
        </radialGradient>
        <path fill-rule="evenodd" clip-rule="evenodd" fill="url(#SVGID_3_)" stroke="#000000" stroke-width="0.25" stroke-miterlimit="10"
              d="   M240.67,76.83c0.49,0.27,0.99,0.55,1.48,0.82c0.77,0.71,1.54,1.43,2.3,2.14c0.11,0.27,0.22,0.55,0.33,0.82   c0.17,0.76-0.15,3.63,0.81,3.6c0.46,0,0.63,0.07,0.83,0.51c0.14,0.63,0.22,1.19-0.02,1.81c-0.21,0.16-0.42,0.33-0.64,0.49   c0,0.62-0.39,0.97-0.19,1.6c0.43,1.1,2.62,3.44,1.34,4.44c-0.66,0.34-1.32,0.69-1.97,1.03c-0.3,0.22-0.25,0.42-0.68,0.56   c-0.61,0.19-1.91,0.31-2.28,0.76c-0.53,0.02-1.61-0.01-1.97,0.33c-1.42-0.33-2.74-0.15-4.11,0c-0.93-0.08-1.86-0.17-2.8-0.25   c-0.88,0.08-1.75,0.17-2.63,0.25c-0.22,0.33-0.44,0.66-0.66,0.99c-0.69-0.18-1.37-0.22-1.97-0.66c-0.38,0.16-0.77,0.33-1.15,0.49   c-0.4-0.33-1.15-0.83-1.15-1.32c-1.42,0.42-2.69-0.22-3.62-1.15c-0.71-0.16-1.43-0.33-2.14-0.49c-0.44-0.27-0.88-0.55-1.32-0.82   c-0.89-0.94-1.66-0.61-1.64-1.15c0.02-0.51-0.12-2.55,0.17-2.76c1.18-0.31,2.29-0.86,3.43-1.37c0.94,0.08,1.92-0.35,2.82-0.57   c1.59-0.24,3.17-0.49,4.76-0.73c0.73-0.62,1.45-1.03,2.33-1.41c1.06-0.45,2.28-0.37,3.26-1.05c1.57-1.09,3.1-2.73,3.96-4.43   c0.19-0.37,1.04-2.3,1.3-2.34C239.46,76.92,240.07,76.88,240.67,76.83z"/>
        <radialGradient id="SVGID_4_" cx="219.5308" cy="163.8345" r="13.8333" gradientUnits="userSpaceOnUse">
            <stop offset="0" style="stop-color:#3E5DAA"/>
            <stop offset="1.924217e-003" style="stop-color:#3F5EAA"/>
            <stop offset="0.0893" style="stop-color:#6C84BE"/>
            <stop offset="0.1808" style="stop-color:#93A4CF"/>
            <stop offset="0.2792" style="stop-color:#B4C0DE"/>
            <stop offset="0.3837" style="stop-color:#D0D7EA"/>
            <stop offset="0.4967" style="stop-color:#E5E9F3"/>
            <stop offset="0.6225" style="stop-color:#F4F5FA"/>
            <stop offset="0.7711" style="stop-color:#FCFDFE"/>
            <stop offset="1" style="stop-color:#FFFFFF"/>
        </radialGradient>
        <path fill-rule="evenodd" clip-rule="evenodd" fill="url(#SVGID_4_)" stroke="#000000" stroke-width="0.25" stroke-miterlimit="10"
              d="   M214.35,165.34c0.39,0.22,1.06,0.88,1.48,0.82c-0.3,0.3-1.34,1.27-1,1.65c0.44,0.48,1.37,1.01,1.5,1.64   c0.96,0.21,2.06,0.34,2.9,0.85c0.52,0.02,1.04,0.03,1.56,0.05c0.64,0.13,1.89-0.12,2.28,0.42c0.03-0.14,0.07-0.28,0.1-0.43   c0.13-0.08,0.26-0.15,0.39-0.23c-0.28-0.33-0.4-0.56-0.82-0.66c-0.13-0.5-0.57-2.02-0.33-2.3c-0.28-0.29-1.68-2.32-1.61-2.62   c0.19-0.81,0.42-1.45,0.79-2.15c0.2-0.39,0.61-0.78,0.99-0.82c-0.01-0.05-0.03-0.1-0.04-0.15c-0.11-0.36-0.46-0.69-0.29-1   c-0.49,0.03-1.25-0.15-1.48,0.33c-0.04-0.12-0.08-0.23-0.12-0.35c-0.28-0.85,0.79-1.57,0.28-2.28c0.34-0.17,0.62-0.47,0.99-0.33   c0.01-0.17,0.03-0.35,0.04-0.52c-0.04-0.25-0.08-0.49-0.11-0.74c-0.26-0.4-0.75-0.92-1.24-0.87c-0.77,0.11-1.54,0.22-2.3,0.33   c-0.38,0.16-1.12,0.52-1.51,0.69c-0.44,0.33-0.52,0.47-0.96,0.79c-0.38,0.49-0.77,0.99-1.15,1.48c-0.12,0.27-0.23,0.54-0.35,0.81   c-0.26,0.87-0.51,1.75-0.77,2.62c0.1,0.44,0.47,1.01,0.13,1.34"/>
        <linearGradient id="SVGID_5_" gradientUnits="userSpaceOnUse" x1="287.1309" y1="39.7515" x2="492.8714" y2="262.5673">
            <stop offset="0" style="stop-color:#3E5DAA"/>
            <stop offset="1.924217e-003" style="stop-color:#3F5EAA"/>
            <stop offset="0.0893" style="stop-color:#6C84BE"/>
            <stop offset="0.1808" style="stop-color:#93A4CF"/>
            <stop offset="0.2792" style="stop-color:#B4C0DE"/>
            <stop offset="0.3837" style="stop-color:#D0D7EA"/>
            <stop offset="0.4967" style="stop-color:#E5E9F3"/>
            <stop offset="0.6225" style="stop-color:#F4F5FA"/>
            <stop offset="0.7711" style="stop-color:#FCFDFE"/>
            <stop offset="1" style="stop-color:#FFFFFF"/>
        </linearGradient>
        <path fill-rule="evenodd" clip-rule="evenodd" fill="url(#SVGID_5_)"
              d="M473.85,110.19c0,1.75,0.26,3.55-1.37,4.59   c-1.29,0.82-3.96,1.7-5.45,2.1c-2.51,0.68-5.57,0.84-7.92,2.22c-1.15,0.68-2.16,1.62-3.41,2.28c-1.7,0.9-2.05,1.11-2.25,3.21   c-0.14,1.41-0.02,2.73-0.16,4.11c-0.14,1.44-0.3,2.98-0.74,4.31c-0.26,0.77-0.8,1.41-0.99,2.2c-0.14,0.59,0.24,1.18-0.02,1.85   c-0.46,1.18-2.28,2.53-3.09,3.47c-0.83,0.97-1.79,2.51-2.84,3.11c0.03,2.01-1.76,3.2-2.6,4.77c-0.82,1.54-0.88,3.32-1.5,4.98   c-0.6,1.61-0.97,3.17-1.88,4.66c-1.02,1.66-2.93,2.66-3.85,4.22c-1.59,0.53-7.31,1.02-7.66,2.91c1.74,0.89,1.98,1.36,3.42,0.03   c0.17-0.15-0.03-0.82,0.32-1.05c0.32-0.21,1.8,0.17,2.21,0.2c0.88,0.05,1.8,0.01,2.59-0.18c2.41-0.58,4.87-2.74,7.55-2.23   c2.95,0.56,4.26,3.73,5.82,5.84c1.96,2.66,5.08,4.6,7.72,6.64c1.42,1.09,3.05,1.98,4.45,3.13c1.2,0.99,2.24,2.12,3.59,2.95   c3.82,2.34,9.3,0.3,12.65,3.93c2.37,2.57,1.39,4.49,1.24,7.68c-0.16,3.26,1.88,5.41,1.72,8.57c-0.27,5.43,1.92,11.17-0.36,16.1   c-1.17,2.54-2.62,4.48-5.05,5.97c-2.75,1.69-5.87,1.17-8.99,0.89c-2.01-0.18-3.8-1-5.49,0.47c-1.08,0.95-1.8,2.37-2.91,3.34   c-1.28,1.11-2.51,1.25-3.9,2.05c-1.21,0.7-2.23,1.76-3.3,2.54c-2.12,1.54-4.37,4.08-6.2,5.82c-1.67,1.58-4.1,1.45-5.48,3.27   c-0.52,0.69-1.04,0.85-0.82,1.88c0.2,0.94,0.79,0.66,1.2,1.36c0.81,1.37,0.4,2.53,0,3.82c-0.44,1.38-0.52,2.53-0.51,4.07   c0.01,2.19-0.38,2.07-1.76,3.39c-0.38,0.36-0.7,1.52-1.01,1.72c-0.59,0.37-1.19,0.06-1.85,0.19c-3.05,0.61-6.86-0.51-10.28-0.5   c-1.58,0-2.24,1.07-3.6,1.54c-1.55,0.54-3.32,0.08-4.97,0.34c-1.4,0.23-2.35,0.71-3.95,0.3c-0.94-0.24-1.63-0.96-2.7-0.82   c-1.03,0.13-0.8,0.77-1.54,1.04c-2.04,0.75-3.18-1.41-4.33-2.75c-0.92-1.07-2.44-1.71-2.4-3.43c-3.69-1.36-5.73-2.6-9.25-1.05   c-1.57,0.69-4.82,1.16-6.49,0.86c-0.07-1.31-0.28-3.65,0.36-4.73c1.07-1.79,2.91-0.21,4.25-1.07c1.66-1.07-0.77-2.33-1.51-3.08   c-1.99-2.02-0.54-3.1,1.48-4.15c0.37-1.82-1.79-1.96-2.67-3.09c-0.91-1.18-1.65-2.54-2.64-3.69c-0.81-0.95-1.92-2.68-2.72-3.29   c-1.01-0.77-2.21-0.77-3.1-1.88c0.48-1.56,1.69-0.87,1.35-2.54c-0.14-0.7-1.71-1.4-1.13-2.62c1.13-2.34,3.54,1.48,4.57,1.91   c0.38,0.96,1.33,3.41,1.57,0.83c0.15-1.61-1.66-2.25-0.65-3.93c0.76,0.07,2.44,0.57,3.04-0.18c0.78-0.96-0.97-1.77-1.88-2.06   c-1.21-0.39-2.43,0.41-2.01-1.33c0.21-0.88,1.44-1.29,1.64-2.24c-2.16-0.11-2.75,2.56-5.25,1.99c-0.77-0.17-2.5-0.48-3.22-0.81   c-0.48-0.23-0.66-0.94-1.1-1.12c-0.51-0.21-0.63,0.11-1.05,0.04c-0.93-0.14-1.84,0.12-2.8-0.27c-2.11-0.86-1.52-1.83,0.57-2.12   c-0.32-0.69-1.87-2.97-0.72-3.52c1.08-0.54,3.34,0.07,4.06-0.75c0.21-0.24-0.09-0.36-0.26-0.47c-0.62-0.39-0.76-0.49-1.53-0.49   c-0.72-0.66-1.45-1.32-2.17-1.98c-0.27-0.22-1.01-0.89-0.92-1.27c0.16-0.55-0.19-1.31,0.63-1.35c0.05-0.55,0.11-1.1,0.16-1.65   c0.51-0.02,2.41,0.3,2.5-0.17c0.15-0.67-0.25-1.2,0.29-1.64c-0.12-0.05-0.24-0.1-0.35-0.15c-1.05-0.47-1.79-0.64-2.93-0.68   c-0.45-0.01-1.33,0.22-1.66,0.01c-0.38,0.38-0.77,0.77-1.15,1.15c-0.45-0.01-0.69-0.45-0.97,0.15c-0.14,0.3,0.11,0.54,0.26,0.78   c0.56,0.57,1.13,1.14,1.7,1.71c0.05,0.54,0.18,1.39-0.16,1.81c0.86,0.4,0.16,3.13-0.68,3.39c-1.05,0.36-2.11,0.71-3.16,1.07   c-1.93,0.47-3.67,0.08-5.54-0.32c-0.74-0.16-2.18,0.62-2.46-0.36c-0.92-0.41-3.44-1.82-4.14-0.69c-0.43,0.5-0.86,1-1.29,1.51   c0.01,0.27,0.02,0.53,0.04,0.8c-0.25,0.23-0.54,2.87-0.04,2.8c0.82-0.11,1.62-0.31,2.45-0.16c0.21,0.04,0.74,0.05,0.62,0.31   c-0.86,1.94-2.61,3.18-4.22,4.48c-0.44,0.02-0.88,0.03-1.32,0.05c-0.6,0.1-1.89,0.06-2.3,0.44h-0.16   c-0.28,0.04-0.57,0.09-0.85,0.13c-0.82,0.13-2.72-0.02-3.1,0.69c-0.37-0.05-0.84-0.2-1.15,0c-0.86-0.25-2.13-0.8-2.8,0.16   c-0.55-0.11-1.1-0.22-1.65-0.33c-0.45-0.21-0.9-0.43-1.36-0.64c-0.52-0.09-0.81,0.13-1.11-0.35c-0.13,0.1-0.25,0.21-0.38,0.31   c-0.25,0.23-0.43,0.54-0.78,0.51c-0.45,0.67-0.83,1.67-1.81,1.32c-0.27,0.34-0.54,0.69-0.81,1.03c-0.59,0.18-1.19,0.37-1.78,0.55   c-1.31-0.74-2.73-1.33-3.29-2.87c-0.12-0.01-0.25-0.01-0.37-0.02c0.01-0.07,0.03-0.14,0.04-0.21c0.01-0.04,0.02-0.09,0.03-0.13   c0.03-0.43,0.06-0.87,0.1-1.3c0.19-0.52,0.38-1.03,0.57-1.55c0.07-0.4-0.08-0.67,0.26-0.92c-0.05-0.06-0.1-0.11-0.14-0.16   c-0.17-0.27-0.34-0.55-0.51-0.82c-0.47-0.45-0.93-0.9-1.4-1.35c-0.23-0.57-0.72-2.66-0.25-3.09c-0.16-0.38-0.33-0.77-0.49-1.15   c-0.38-0.31-0.79-0.48-0.82-0.99c-0.22-0.04-0.44-0.09-0.66-0.13c-1.95-0.39-3.77-0.77-5.76-1.02c-0.42-0.33-1.27-1.22-1.77-1.07   c-0.33,0.12-0.12,0.16-0.53-0.25c-0.01,0.22-0.03,0.45-0.04,0.67c-0.91,0.27-3.79,0.29-4.4-0.5c-1.38,0.33-2.54,0.28-3.9-0.15   c-0.7-0.23-2.37-0.71-2.51-1.49c-0.52-0.1-0.93-0.38-1.32,0c-0.12-0.19-0.24-0.38-0.35-0.58c-0.19-0.35-0.22-0.67-0.63-0.74   c-0.09-0.41-0.2-1.54-0.2-1.54c-2.35-0.63-2.61,0.12-4.41,1.37c-0.22-0.06-0.44-0.11-0.66-0.16c-0.62,0.27-1.23,0.54-1.85,0.81   c-0.26,0.06-0.52,0.12-0.78,0.18c-0.58-0.08-1.15-0.15-1.73-0.23c-0.3,0.39-0.86,0.59-0.47,0.96c0.16,0.21,0.32,0.42,0.48,0.62   c0.17,0.27-0.19,0.51-0.42,0.62c0.55,0.11,1.1,0.22,1.65,0.33c0.02,0.54-0.2,1.27,0.16,1.65c-0.29,0.17-0.59,0.35-0.88,0.52   c-0.5,0.25-2.76,0.53-3.23,0.3c-0.33,0.17-0.66,0.33-0.99,0.49c-0.33,0.33-0.66,0.66-0.99,0.99c-0.2,0.56-0.41,0.72-0.16,1.32   c-0.07,0.01-0.13,0.02-0.2,0.04c-2.98,0.5-5.84-2.28-8.68-0.86c-0.76-0.18-1.81-0.61-2.27-1.18c-0.56-0.74-0.99-1.54-1.16-2.46   c-0.09-0.47-0.03-1.3-0.35-1.63c0.43-1.35,0.76-2.47,0.61-3.9c-0.02-0.33-0.03-0.67-0.05-1c-1.23-1.54-3.03-2.36-4.53-3.41   c-0.65-0.24-1.3-0.47-1.94-0.71c0.49,1.05,1.29,1.87,1.79,2.93c-0.45,0.43-1.27,1.01-1.76,0.87c-0.26-0.09-0.11-0.08-0.38,0.28   c-0.27-0.49-0.55-0.99-0.82-1.48c-0.33-0.33-0.66-0.66-0.99-0.99c-0.29-0.02-0.58-0.04-0.86-0.06c-0.27,0.74-0.33,1.41-0.45,2.2   c-0.81,0.84-1.41,1.85-2.35,2.47c-0.16,0.42-0.99,1.74-1.46,1.85c-1.31,0.36-2.91,0.34-3.92-0.7c-0.38-0.6-0.77-1.21-1.15-1.81   c-0.46-0.21-0.92-0.41-1.39-0.62c-0.92-0.44-1.48-1.6-2.51-1.08c-0.43,0.22-0.86,0.33-1.25,0.72c-0.5,0.5-0.74,1.04-1.4,1.37   c-0.97,0.47-3.33,1.42-4.31,1.1c-0.83,0.65-1.65,1.3-2.48,1.95c-0.55,0.46-2.74,2.7-3.44,1.99c-2.86-1.28-3.95-3-4.78-5.95   c-0.14-0.51-0.43-2.56-0.31-2.76c0.15-0.23,0.29-0.47,0.44-0.7c0.35-0.3,0.97-0.24,1.19-0.62c0.52-0.12,0.65-0.31,0.99,0.16   c0.02-0.07,0.04-0.15,0.07-0.22c0.02-0.07,0.04-0.13,0.06-0.2c0.18-0.7,0.65-1.75,0.36-2.38c0.19-0.15,0.38-0.31,0.58-0.46   c0.08-0.12,0.16-0.24,0.25-0.36c0.53-0.26,1.54-0.46,1.81-0.99c0.99-0.05,1.97-0.11,2.96-0.16c0.81,0.11,2.61-0.03,3.13,0.66   c0.21-0.13,0.42-0.26,0.63-0.39c0.17,0.02,0.35,0.04,0.52,0.06c0.23-0.49,0.7-0.78,0.66-1.32c0.82-0.6,1.65-1.21,2.47-1.81   c-0.06-0.28-0.12-0.56-0.18-0.84c-0.39-0.16-2.13-0.39-2.11-0.64c0.03-0.31-0.02-1.31,0.31-1.33c0.57-0.14,1.13-0.27,1.7-0.41   c0.15,0.14,0.29,0.28,0.44,0.42c-0.01-0.06-0.01-0.11-0.02-0.17c-0.1-0.55-0.21-1.09-0.31-1.64c0.44-0.66,0.88-1.32,1.32-1.97   c0.57-0.29,1.76-0.87,2.3-0.49c0.15-0.16,0.29-0.32,0.44-0.47c0.63-0.31,1.24-0.26,1.54-0.89c0.49-0.74,0.92-3.43,1.97-3.57   c-0.5-0.13-0.99-0.25-1.49-0.38c-0.03-0.39-0.17-1.17,0.2-1.37c0.37-0.19,2.03-1.11,2.16-0.77c0.39,1.06,0.93,1.93,1.6,2.85   c0.43-0.01,0.86-0.02,1.3-0.03c0.61,0.12,1.22,0.24,1.83,0.36c0.38-0.11,0.77-0.22,1.15-0.33c0.11-0.39,0.13-0.79,0.49-0.99   c-0.13-0.09-0.25-0.19-0.38-0.28c-0.26-0.24-0.51-0.47-0.77-0.71c-0.9-0.43-2.42-1.04-2.63-2.14c-0.21-0.18-0.42-0.36-0.64-0.54   c-0.71,0.07-0.57-0.17-0.61-0.78c-0.09-2.75,0.05-5.9,2.78-7.45c0.22-0.53,1.38-1.01,1.92-1.26c0.14,0.13,0.27,0.26,0.41,0.4   c0.82,0.82,2.18,1.3,2.97,2.2c0.19,0.22,0.87,0.96,0.87,0.96c0.82-0.43,1.59-0.74,2.34-1.29c0.38-0.27,0.67-0.64,1.14-0.61   c0.6-0.55,1.2-1.1,1.8-1.66c0.98-0.06,2.96,0.09,3.62,0.83c0.75-0.17,1.41-0.47,2.13-0.09c0.45-0.32,0.28-0.23,0.67-0.02   c0.41,0.22,1.99,0.24,1.94-0.05c-0.02-0.26-0.04-0.51-0.06-0.77c-0.65-0.74-1.29-1.49-1.94-2.23c0.02-0.15,0.03-0.3,0.05-0.45   c-0.22,0-0.44,0-0.66,0c-0.4-0.23-0.78-0.66-1.16-0.66c-1.28,0.04-2.07,0.59-3.17,1.21c-0.3,0.17-0.83,0.56-1.07,0.28   c-0.35-0.43-1.22-1.02-1.16-1.65c-0.06-0.71-0.12-1.43-0.18-2.14c0.44-0.49,0.88-0.99,1.32-1.48c0.6-1.39,0.99-2.68,0.24-3.84   c-0.34-0.54-0.95-1.26-0.9-1.92c-0.66-0.55-1.32-1.1-1.97-1.65c0.15-0.35,0.3-0.7,0.45-1.04c0.09-0.05,0.19-0.11,0.28-0.16   c-0.34-0.22-0.57-0.16-0.57-0.6c-0.05,0.02-0.09,0.05-0.14,0.07c-1.07,0.55-0.58,0.75-1.76,0.79l-0.07-0.2   c-0.86-1.9-2.17-3.61-3.35-5.27c-0.68-1.03-0.05-0.87,0.23-2.06c0.08-0.31,0.18-1.47-0.11-1.49c0.21-0.13,0.37-1.63,0.58-1.76   c0.37-1.25,0.75-2.5,1.12-3.74c0.02-0.16,0.34-0.97,0.36-1.13c-0.64,0.54,0.69-0.69,1.13-1.22c0.38-0.46,0.74-0.63,1.21-0.94   c0.33-0.16,0.66-0.33,0.99-0.49c0.38-0.02,0.76-0.04,1.14-0.07c1.17,0.04,1.69,0.24,2.95-0.16c0.72-0.31,1.44-0.62,2.16-0.93   c0.74-0.74,1.17-1.69,1.74-2.71c0.82-0.49,1.06-0.91,1.88-1.4c0.81,0.21,3.28-1.1,3.95-1.65c2.23-0.14,4.46-0.27,6.69-0.41   c1.37-0.31,3.26-0.23,4.39-0.99c0.91,0,1.53-1.2,2.4-1.37c0.71,0,1.11-0.36,1.82-0.36c1.18,0.41,2.18-0.56,3.27-0.84   c0.26-0.11,1.18-1.04,1.99-1.09c0.6-0.05,1.21-1.31,1.81-1.36c0.35-0.51,0.63-0.68,1.15-0.99c0.49-0.05,0.99-0.11,1.48-0.16   c0.24,0.09,0.47,0.17,0.7,0.26c0.09,0.02,1.93,1.11,2.5-0.15c0.45-0.31,0.75-0.74,1.16-0.83c0.33-0.15,0.61-0.27,0.94-0.43   c-0.01-0.01,0.85-0.4,0.84-0.41l0.14-0.04c0.24,0.07,1.63-0.07,1.89-0.2c0.97-0.5,1.4-1.01,2.69-1.01   c0.33-0.16,0.66-0.33,0.99-0.49c0.89-0.16,2.04,0.51,2.77,0.94c0.98,0.58,2.22,0.97,3.32,1.2c0.49-0.16,0.89,0.52,1.38,0.35   c0.86-0.34,1.62-0.68,1.54-1.03c0.34-0.26,0.51-0.69,0.77-0.94c0.08,0.1,0.95-0.44,1.03-0.34c0.71-0.33,0.65-0.34,1.36-0.67   c0.33-0.38,0.66-0.77,0.99-1.15c0.37-0.04,0.73-0.08,1.1-0.12c0.46-0.23,0.91-0.47,1.37-0.7c1.66,0.1,3.33,0.38,4.94,0.82   c0.53-0.31,1.55-0.13,2.14,0c0.05,0.17,0.11,0.33,0.16,0.49c0.38,0.05,0.77,0.11,1.15,0.16c0.6,0.27,1.21,0.55,1.81,0.82   c1.48,0.2,2.96,0.4,4.44,0.6c0.6,0.29,1.21,0.59,1.81,0.88c1.24,0.33,2.48,0.66,3.72,0.99c1.2,0.4,1.99,0.84,3.36,0.82   c1.73-0.02,3.07-0.31,4.67-1.07c0.54-0.44,1.09-0.88,1.63-1.32c0.42-0.19,0.85-0.38,1.27-0.58c0.99-0.06,1.97-0.11,2.96-0.16   c1.32,0.44,2.63,0.88,3.95,1.32c1.19,0.5,1.9-1.72,2.8-2.3c0.79-0.79,2.53-0.18,3.4,0.16c1.05,0.47,2.09,0.94,3.14,1.41   c1.34,1.06,2.68,2.13,4.02,3.19c2.08,0.36,2.19-0.24,3.93-1.15c0.84,0.34,1.63-0.53,1.97-1.15c1.29-0.31,4.87,0.13,5.92,0.82   c0.22,0.27,0.44,0.55,0.66,0.82c0.34,0.26,0.69,0.53,1.03,0.79c0.45,0.3,0.86-1.57,1.44-1.94c1.52-0.98,2.49-1.38,4.28-1.48   c0.78-0.77,1.09-0.29,0.24,0.88c-0.34,0.48,0.45,0.82,0.83,0.66c0.55,0.32,1.11,0.59,1.77,0.61c2.22,0.07,5.4-0.64,7.4-1.74   c0.54-0.41,1.07-0.82,1.61-1.23c2.4-1.53,4.8-3.07,7.2-4.6c0.61-0.36,1.48-0.6,2.18-0.66c0.22-0.01,0.45-0.01,0.67-0.02   c0.6-0.32,1.2-0.64,1.8-0.97c-0.2-1.06,1.42-1.42,2.13-2c0.72-0.87,1.43-1.74,2.15-2.61c1.11-0.54,2.33-0.7,3.62-1.15   c0.26-0.86,0.76-1.47,1.48-1.97c0.02-0.77,2.23-2.58,2.96-2.8c0.5-0.17,0.99-0.35,1.49-0.52c0.16-0.1,0.32-0.2,0.48-0.3   c-0.45-0.55-0.07-1.73-0.33-2.47c-0.05-0.6-0.11-1.21-0.16-1.81c-0.32-1.73-0.23-3.65,0.84-5.08c0.46-0.57,3.08-0.92,3.97-1.43   c0.42-0.21,0.41-1.37,0.38-1.84c-0.09-0.55-0.28-0.62-0.73-0.94c-1.05-0.74-2.75-0.28-3.82,0.23c-0.56,0.27-1.02,0.62-1.64,0.66   c-0.56,0.05-1.9-1.78-2.13-2.29c-1.63,0.05-2.87,0.57-4.44,0.82c-0.09-0.07-0.19-0.13-0.28-0.2c-1.23-0.26-1.15-1.22-1.36-2.1   c-0.42,0.07-0.26,0.14-0.5-0.08c-0.59-0.5-1.41,0.05-2.02,0.35c-1.02,0.55-0.75,1.77-1.1,2.69c-0.5,1.31-1.33,2.32-2.3,3.29   c0.16,0.27,0.33,0.55,0.49,0.82c0.42-0.41,1.36-1.15,1.97-1.15c0.25-0.79,2.42-1.68,3.18-1.98c0.64-0.26,0.26,0.07,0.74,0.1   c1.6,0.26,2.23,2.07,2.88,3.33c0.37,0.71,0.09,1.82-0.08,2.54c-0.04,0.33-0.08,0.66-0.12,0.99c-0.68,1.29-1.53,2.76-2.82,3.57   c-0.82,0.49-1.65,0.99-2.47,1.48c-1.38,0.27-2.78,0.32-3.95,1.15c-0.65,0-0.83-1.29-1.16-1.69c-1.4-0.41-2.41,0.46-3.77,0.21   c-1.17-0.22-2.55-1.11-3.45-1.83c-0.21-0.82-0.42-1.65-0.63-2.47c-0.15-0.68,1.69-2.07,2.18-2.53c0.25-0.22-1.69-1.71-1.85-2.12   c-0.06-0.47-0.13-0.94-0.2-1.41c-0.63-0.54-0.48-2.23-0.66-2.96c-0.21-0.89-0.55-1.49-1.15-2.14c-0.44-0.05-0.88-0.11-1.32-0.16   c-0.71,0.16-1.43,0.33-2.14,0.49c-0.27-0.37-0.82-0.43-1.24-0.62c-0.02-0.89-0.05-1.78-0.07-2.67c0-1.45,0.55-2.61,1.32-3.78   c0-0.44,0-0.88,0-1.32c-0.15-0.71,0.41-0.7,0.26-1.41c-0.13-0.46,0.67-1.27,0.86-1.2c0.51-0.65,0.27-0.46,1.02-1.17   c0.71,0.27,1.43,0.55,2.14,0.82h0.55c0.59-0.07,0.89,0.14,1.42-0.16c1.09,0.99,2.04,1.91,3.53,2.27c0.98,0.24,2.3-0.09,3.22-0.46   c0.56-0.23,1.34-0.81,1.97-0.66c0.29-0.28,0.4-0.48,0.82-0.49c0.85-1.33,1.84-2.5,2.96-3.62c0.52,0.52,1.91,0.37,2.14,1.15   c0.65-0.04,1.3-0.09,1.95-0.13c1.54,0.26,3.08,0.53,4.63,0.79c1.09-0.07,2.18-0.13,3.27-0.2c0.65,0.06,1.46,1.15,2.51,1.34   c0.05,0.11,0.1,0.23,0.14,0.34c0.2-0.09,0.41-0.17,0.61-0.26c0.94-0.46,3.56-2.15,4.49-1.22c0.49-0.22,0.99-0.44,1.48-0.66   c0.49-0.24,0.64-0.84,1.15-0.99c0.11-0.55,0.22-1.1,0.33-1.65c0.55-0.07,1.61,0.04,1.98-0.35c0.2-0.25,0.14-0.3,0.49-0.3   c0.12-0.76,0.16-1.58,1.13-1.44c1.61,0.27,2.86,1.44,4.37,1.79c2.09,0.48,4.22-1.04,6.37-0.77c1.3,0.16,2.11,0.91,3.6,0.9   c0.96,0,2.12,0.3,3.05,0.15c0.61-3.01-0.19-3.88-2.69-4.97c-1.37-4.27,2.79-1.5,4.6-0.61c2,0.99,3.74,1.35,5.27-0.43   c0.98-1.14,1.08-2.23,1.38-3.77c1.07-5.42,1.86,0.31,3.98,1.06c2.54,0.9,3.04-6.03,5.97-3.9c0.71,0.52,0.63,3.08,0.58,3.77   c-0.08,1.29,0.96,15.07,1.34,16.76c0.33,1.48-0.33,2.85-0.52,4.11c-0.22,1.45-0.26,2.88-0.55,4.28c-0.31,1.5-0.9,2.67-0.82,4.29   c0.12,2.34,0.7,4.45,1.03,6.68c0.36,2.46-0.25,4.5-0.51,6.85c-0.24,2.17,1.04,4.92-0.55,6.46c-2.62,2.54-3.3-1.72-3.42-3.7   c-2.23,1.41-2.67-1.87-3.87-2.81c-1.54-1.2-3.96-1.43-5.83-1.11c-1.51,0.25-3.26,0.85-4.73,1.47c-1.5,0.63-2.36,2.18-3.48,3.28   c1.2,1.31-1.34,2.96-1.89,4.18C473.8,105.37,473.85,107.89,473.85,110.19z"/>
        <path fill-rule="evenodd" clip-rule="evenodd" fill="none" stroke="#000000" stroke-width="1" stroke-miterlimit="10" d="   M405.3,40.1c0.34-1.6,0.05-2.36,1.16-3.6c1.14-1.29,1.79-1.67,2.22-3.43c0.46-1.83,0.37-2.07-0.97-3.46   c-1.21-1.25-1.88-2.06-2.06-3.73c-0.37-3.42,1.6-4.56,3.94-6.56c2.24-1.93,3.9-3.83,5.62-6.12c3.57-4.75,9.2-7.95,12.03-13.2"/>
        <path fill-rule="evenodd" clip-rule="evenodd" fill="none" stroke="#000000" stroke-width="0.25" stroke-miterlimit="10" d="   M333.15,62.89c0.76-2.4,0.16-5.77-0.68-7.92c-1.02-2.63-1.26-5.05-1.56-8.02c-0.29-2.94,0.13-5.31,0.7-8.05   c0.28-1.35,0.76-2.55,1.23-3.91c0.48-1.37,0.48-2.59,0.48-4.15c0-5.18,0.86-9.8,0.86-15.08c0-2.67,0.43-5.16,0.3-7.84   c-0.13-2.74-1.01-4.99-1.5-7.58"/>
        <path fill-rule="evenodd" clip-rule="evenodd" fill="none" stroke="#000000" stroke-width="1" stroke-miterlimit="10" d="   M55.7,193.82c-0.92,1.13-2.48,0.93-3.77,1.33c-1.36,0.42-2.69,0.9-4.07,1.29c-2.66,0.76-4.65,1.48-7.75,1.32   c-2.79-0.14-6.51-0.78-9.26-0.34c-1.26,0.2-1.99,1.32-3.21,1.94c-1.15,0.58-2.33,1.29-3.43,2.04c-1.18,0.81-1.91,1.44-3.12,2.02   c-0.86,0.41-2.81,0.92-3.29,1.51c-3.29,0.69-6.5,2.23-9.4,3.79c-1.42,0.76-2.21,1.85-3.77,2.45c-1.53,0.59-3.17,1.23-4.63,1.84"/>
        <path fill-rule="evenodd" clip-rule="evenodd" fill="none" stroke="#000000" stroke-width="1" stroke-miterlimit="10" d="   M83.46,271.11c-1.14,1.27-2.24,2.86-3.21,4.29c-0.94,1.39-1.65,3.71-2.93,4.65c-0.4,2.94-0.57,5.92-0.71,8.88   c-0.07,1.47-0.5,2.93-0.35,4.46c0.17,1.77,1.18,2.35,1.74,3.92c3.38,1.05,2.69,5.43,1.69,8.08c-0.56,1.49-0.76,3.3-1.58,4.64   c-0.98,1.6-2.77,2.18-3.25,4.08c-1.27,0.72-1.32,4.68-1.18,6.03c0.26,2.54,0.89,4.05-0.55,6.35c-1.38,2.21-3.58,1.59-5.99,2.06   c-1.37,0.27-2.84,0.22-4.21,0.51c-1.21,0.25-2.2,0.98-3.27,1.4c-0.68,0.92-0.92,1.05-1.4,2.21c-0.33,0.79-0.64,1.83-1.2,2.58   c-0.62,0.82-1.37,1.31-1.55,2.39c-0.16,1,0.32,2.18,0.18,3.26c-0.16,1.22-0.71,1.75-1.16,2.78c-0.41,0.93-0.17,2.25-0.88,3.05   c-1.73,1.92-3.67-0.4-4.5-1.69c-0.98-0.16-2.03-1.08-2.88-1.61c-1.29-0.8-1.95-0.8-3.39-1.14c-0.26,2.09-4.32,2.26-5.86,3.28   c-0.76,0.5-1.31,1.45-2.1,2.01c-0.7,0.5-2.17,0.88-2.36,1.55"/>
        <path fill-rule="evenodd" clip-rule="evenodd" fill="none" stroke="#000000" stroke-width="1" stroke-miterlimit="10" d="   M326.98,346.86c1.66,1.8,3.86,2.14,5.82,3.59c1.89,1.41,3.89,2.8,5.81,4.15c0.77,2.01,2.18,3.99,3.15,5.92   c1.1,2.17,2.59,4.7,4.9,5.56c2.16,4.84,8.98,7.55,10.36,12.64c0.38,1.41-0.05,2.89,0.46,4.29c0.46,1.25,1.28,2.25,1.71,3.43   c0.94,2.57,1.79,5.5,2.92,8.05c1.59,3.58,3.43,6.85,4.74,10.46c0.6,1.66,1.64,3.1,2.28,4.78c0.65,1.7,1.75,3.34,3.25,4.46"/>
        <text transform="matrix(1 0 0 1 357.4873 26.9058)" font-family="'MyriadPro-Regular'" font-size="12">AĞRI</text>
        <text transform="matrix(0.5372 0.8435 -0.8435 0.5372 445.1948 31.9841)" font-family="'MyriadPro-Regular'" font-size="12">VAN</text>
        <text transform="matrix(0.2748 -0.9615 0.9615 0.2748 391.8257 310.6431)" font-family="'MyriadPro-Regular'" font-size="12">VAN</text>
        <text transform="matrix(1 0 0 1 182.6851 368.627)" font-family="'MyriadPro-Regular'" font-size="12">SİİRT</text>
        <text transform="matrix(0.3609 0.9326 -0.9326 0.3609 33.8745 243.1069)" font-family="'MyriadPro-Regular'" font-size="12">BATMAN</text>
        <text transform="matrix(0.7408 -0.6717 0.6717 0.7408 134.4526 79.2925)" font-family="'MyriadPro-Regular'" font-size="12">MUŞ</text>
    </g>
    <g id="__Harita" fill="white" stroke="#000000" stroke-width="1" stroke-miterlimit="10" display="none">
        <rect id="__cer" x="0" y="0" fill="#000000" opacity="0" width="500" height="415"/>
        <g id="__Hizan">
            <path d="    M325.44,258.44c-0.69,0.92-1.87,2.48-1.66,3.81c0.14,0.8,0.58,2.93,1.24,3.37c0.95,0.58,1.9,1.15,2.84,1.73    c1.19,0.34,4.35-0.85,5.75-1.01c1.14-0.13,3.37-0.81,3.72-0.11c0.27,0.37,0.53,0.74,0.8,1.12c1.05,2.23,2.39,5.42,2.23,7.9    c-0.06,0.94-0.51,2.65-1.15,3.29c-0.22,0.55-0.44,1.1-0.66,1.65c-0.17,0.48-0.35,0.96-0.52,1.44c-0.13,0.55-0.26,1.1-0.4,1.65    c-0.52,1.66-1.04,3.32-1.56,4.98c-0.28,0.65-0.56,1.3-0.84,1.94c-1.23,2.21-1.75,5.07-1.91,7.59c-0.07,0.93-0.13,1.86-0.2,2.8    c-0.66,0.99-1.32,1.97-1.97,2.96c-0.44,0.6-0.88,1.21-1.32,1.81c-1.13,1.56-2.01,5.01-2.47,6.91c-0.49,1.48-0.99,2.96-1.48,4.44    c0,1.15,0,2.3,0,3.45c0,2.47-0.01,4.96,0.44,7.39c0.13,1.05,0.26,2.09,0.39,3.14c0.25,0.25,0.33,0.83,0.17,1.15    c0.6,1.37,1.21,2.74,1.81,4.11c0.19,0.96,0.01,3.17-0.33,4.11c-0.05,0.82-0.11,1.65-0.16,2.47c-0.24,0.63-0.49,1.26-0.73,1.89    c-0.25,0.74-0.5,1.48-0.75,2.22c-0.5,0.76-1.01,1.52-1.51,2.28c-0.76,1.05-1.52,2.1-2.27,3.15c-0.38,0.22-0.31,0.85-0.69,1.07    c0.37,0.37-0.65,1.29-0.85,1.75c0.11,0.59-0.68,1.37-1.09,1.78c-1.25,1.22-2.47,2.35-4.11,2.97c-0.38,0.05-0.77,0.11-1.15,0.16    c-0.26,0.26-0.63,0.16-0.99,0.16c-0.25,0.25-0.8,0.21-1.17,0.29c-1.48-0.21-2.95-0.42-4.43-0.62c-0.93-0.05-1.86-0.11-2.8-0.16    c-1.26-0.45-2.52-0.89-3.78-1.34c-1.04-0.38-2.09-0.75-3.13-1.13c-2.24-0.85-4.99-1.65-7.4-1.65c-1.79-1.39-3.23-2.71-4.64-4.58    c-0.38-0.69-0.75-1.38-1.13-2.07c-0.16-0.43-0.15-0.93-0.48-1.24c-0.11-0.38-0.22-0.77-0.33-1.15c-0.16-1.15-0.33-2.3-0.49-3.45    c-0.36-0.61-0.72-1.21-1.08-1.81c-0.35-0.55-0.71-1.09-1.06-1.64c-0.82-0.27-1.65-0.55-2.47-0.82c-2.13-1.62-4.42-2.67-6.75-3.95    c-0.85-0.46-3.47-2.14-4.28-2.14c-0.66-0.55-1.32-1.1-1.97-1.65c-0.66-0.71-1.32-1.43-1.97-2.14c-0.71-0.38-1.43-0.77-2.14-1.15    c-0.71-0.16-1.43-0.33-2.14-0.49c-1.64-0.22-3.11,0.08-4.44-1.15c-0.4-0.38-0.8-0.76-1.2-1.14c-0.77-2.16-0.84-3.95,0.71-5.77    c0.91-1.06,3.31-2.56,2.93-4.27c-0.2-0.75-0.49-1.43-1.3-1.55c-1.81-0.17-3.82,0.27-5.59,0.68c-0.6,0.12-1.2,0.25-1.8,0.37    c-1.04,0-2.08,0-3.13,0c-1.52-0.25-3.08-0.4-4.61-0.16c-1.04,0.06-2.08,0.11-3.13,0.16c-0.6-0.05-1.21-0.11-1.81-0.16    c-0.99-0.33-1.97-0.66-2.96-0.99c-0.81-0.51-1.62-1.02-2.44-1.53c-2.19-1.5-4.25-3.5-5.55-5.92c-0.98-0.5-1.24-1.91-2.02-2.64    c-0.35-0.33-0.65-0.43-0.69-0.94c-0.53-0.29-0.61-0.6-0.67-1.24c-0.23-0.57-0.72-1.24-0.65-1.89c-0.2-0.5-0.41-1-0.61-1.5    c-0.49-1.51-0.83-3.5-0.54-5.08c0.42-2.27,1.15-4.44,1.97-6.58c0.27-1.7,0.38-3.02,0.65-4.72c0,0,0.89-0.11,1.57,0.12    c1.83-0.57,3.19-0.88,4.99-0.79c0.51,0.03,1.23-0.24,1.67,0.12c1.48-0.06,2.96-0.11,4.44-0.16c1.97-0.51,3.94-1.02,5.91-1.54    c0.73-0.3,1.46-0.61,2.2-0.92c1.92-0.46,4.69,0.17,5.22-2.49c0.45-2,0.23-4.04,0.4-6.08c0.27-1.85,0.55-3.71,0.82-5.56    c0.7-1.54,1.41-3.08,2.11-4.62c0.87-1.46,1.66-2.09,2.52-3.55c0.13-0.22,1.03-2.29,1.03-2.29s2.64-0.14,4.15-0.26    c4.66,0.11,9.32,0.22,13.98,0.33c1.21,0.49,2.41,0.99,3.62,1.48c0.68,0.21,2.05,2.15,2.38,2.8c0.72,0.46,1.34,1.69,1.67,2.48    c0.96,0.62,1.63,2.36,1.71,3.44c0.12,1.43,0.24,2.85,0.36,4.28c0.02,1.46-0.23,2.96,0.2,4.4c0.21,0.71,0.9,1.06,1.29,1.64    c2.87,4.21,9.39,3.31,13.56,2.51c0.31-0.47,0.98-0.68,1.53-0.82c0.33-0.27,0.66-0.55,0.99-0.82c0.27-0.6,0.55-1.21,0.82-1.81    c0.41-0.52,0.83-1.04,1.24-1.55c0.3-0.42,0.6-0.83,0.89-1.24c0.57-1.02,1.6-2.65,2.52-3.32c1.02-0.93,2.04-1.86,3.06-2.8    c0.66-0.48,1.32-0.97,1.98-1.46c1.26-0.49,2.52-0.99,3.78-1.48c0.75-0.1,3.57-0.44,4.11-0.16c1.09-0.35,2.13-0.74,3.13-1.32    c0.55-0.32,1.16-0.75,1.71-1.25L325.44,258.44z"/>
            <circle cx="266.15" cy="285.28" r="1.586"/>
        </g>
        <g id="__Bitlis">
            <path d="    M256.21,253.2c-0.35-0.03-0.7-0.09-1.06-0.17c-0.27-0.49-1.12-0.59-1.65-0.82c-0.23-0.5-0.99-0.75-1.44-1.06    c-1.27-0.87-2.43-1.8-3.66-2.72c-1.83-1.8-3.66-3.59-5.5-5.39c-1.57-1.93-3.14-3.87-4.7-5.8c-0.71-0.71-1.43-1.43-2.14-2.14    c-1.15-0.44-2.3-0.88-3.46-1.32c-1.26-0.27-2.52-0.55-3.78-0.82c-1.1-0.66-2.19-1.32-3.29-1.97c-0.99-0.77-1.97-1.54-2.96-2.3    c-0.55-0.66-1.1-1.32-1.65-1.97c-0.14-1.05-0.28-2.1-0.42-3.15c-0.08-0.82-0.16-1.63-0.24-2.45c-0.25-1.43-0.51-2.83-0.33-4.28    c-0.22-0.55-0.44-1.1-0.66-1.65c-0.38-0.49-0.77-0.99-1.15-1.48c-0.41-1.39-0.83-2.79-1.24-4.19c-1.11-2.51-2.96-3.64-3.88-6.04    c0-0.31-0.36-0.91-0.69-1.03c-0.11-0.22-0.84-1.2-0.95-1.42c-0.32-0.48-0.22-0.75-0.33-1.31l0.02-0.35    c-1.14,0-3.01,0.28-3.64-0.14c-0.6,0.05-1.21,0.11-1.81,0.16c-1.54,1.33-3.36,1.73-5.26,2.3c-0.57,0.41-1.13,0.82-1.7,1.22    c-0.49,0.3-1.45,0.86-1.59,1.41c-1.04,0.38-2.08,0.77-3.13,1.15c-1.62,0.62-3.2,2.04-4.61,3.13c-1.15,0.6-2.3,1.21-3.46,1.81    c-0.77,0.16-1.54,0.33-2.3,0.49c-1.7,0-3.4,0-5.1,0c-0.39-0.04-0.77-0.09-1.16-0.13c-2.13-0.24-3.79-1.48-5.83-1.98    c-0.92-0.23-3.44-1.05-4.21-0.84c-1.92-0.82-3.9-1.3-5.91-1.9c-0.61-0.18-1.94-0.26-2.31-0.73c-0.66,0.12-1.31,0.24-1.97,0.36    c-0.82,0.21-1.65,0.42-2.47,0.62c-0.91-0.07-1.82-0.14-2.73-0.21c-0.83,0.06-1.61,0.11-2.37-0.29c0.09,0.17,0.4,1.21,0.48,1.38    c0.57,1.25,1.28,1.18,2.15,2.24c0.33,0.44,0.66,0.88,0.99,1.32c0.08,1.92,0.16,3.83,0.24,5.75c0.06,0.5,0.5,1.59,0.26,1.98    c1.9,2.97,3.79,5.94,5.69,8.9c1.21,1.58,3.54,3.31,5.17,4.59c0.5,0.39,0.88,1.16,1.48,1.32c0.24,0.42,0.39,0.92,0.82,1.15    c0.71,2.19,1.27,7.56-1.19,8.94c-2.2,1.1-4.69,1.8-6.88,3.01c-0.64,0.36-1.81,0.78-2,1.5c-0.2,0.63-0.02,1.7-0.79,2.19    c-0.25,1.27-0.26,2.62-0.86,3.81c0.45,0.67-0.74,3.1-1.33,3.72c-1.46,1.53-3.62,1.3-5.54,1.68c-0.35,0.07-0.65,0.35-0.99,0.16    c-0.39,0.54-0.94,0.97-1.57,1.19c-0.79,0.28-1.89,0.08-2.71-0.04c-0.39-0.15-0.78-0.3-1.17-0.45c-0.98-0.34-1.96-0.69-2.95-1.03    c-0.44-0.27-0.88-0.55-1.32-0.82c-0.72-0.49-2.29-0.71-3.13-0.66c-0.55-0.07-1.09-0.14-1.64-0.22c-0.71,0.13-1.43,0.25-2.14,0.38    c-0.66,0.33-1.32,0.66-1.97,0.99c-0.35,0.47-0.77,1.26-1.32,1.48c-0.62,1.68-1.31,3.25-2.48,4.6c-0.84,0.97-1.8,1.86-2.46,2.97    c-1.21,1.21-2.41,2.41-3.62,3.62c-1.25,1.62-2.49,3.24-3.74,4.85c-0.73,1.13-2.41,4.01-1.05,5.04c0.21,0.17,0.41,0.35,0.62,0.52    c0.3-0.07,0.48,0.08,0.72,0.28c1.33,1.35,2.66,2.7,3.99,4.06c0.39,0.5,1.19,1.1,1.27,1.7c0.66,0.38,1.5,0.65,1.97,1.32    c0.77,0,1.54,0,2.3,0c0.84,0.26,1.26,0.77,2.14,0.82c0.01,0.28,0.03,0.56,0.04,0.83c1.07,0.37,2.15,0.2,3.25,0.48    c1.65,0.71,3.29,1.43,4.94,2.14c1.15,0.44,2.3,0.88,3.46,1.32c1.86-0.06,3.59-0.17,5.43-0.49c0.38,0,0.77,0,1.15,0    c0.6,0.22,1.21,0.44,1.81,0.66c0.37,0.31,0.75,0.62,1.12,0.93c0.65,0.1,1.31,0.97,1.61,1.56c0.64,1.68,1.29,3.36,1.93,5.04    c1.53,3.01,3.54,4.23,6.61,5.38c0.9-0.14,1.81-0.27,2.71-0.41c0.71-0.44,1.43-0.88,2.14-1.32c0.38-0.44,0.77-0.88,1.15-1.32    c0.41-0.84,0.7-2,1.54-2.53c1.61-1.02,3.8-1.49,5.7-1.55c0.6-0.01,1.21-0.02,1.81-0.03c0.55-0.19,2.62-1.18,2.96-0.99    c1.73-1.53,3.47-2.81,4.94-4.61c0.34-0.42,0.99-0.22,1.4-0.73c0.42,0.05,1.25-0.74,1.67-0.69c1.46-1.21,2.92-2.42,4.38-3.62    c0.89-0.59,1.78-1.18,2.67-1.77c0.72-0.51,1.43-1.01,2.15-1.52c1.53-0.66,3.36-0.95,5.01-1.16c0.6-0.02,1.2-0.04,1.8-0.06    c2.87-0.99,5.43-0.76,8.23-1.48c2.34-0.61,4.33-2.07,6.58-2.96c1.77-0.7,5.74-1.33,7.57-0.66c0.71,0.33,1.59,0.78,2.39,0.67    c1.83-0.57,3.19-0.88,4.99-0.79c0.51,0.03,1.23-0.24,1.67,0.12c1.48-0.06,2.96-0.11,4.44-0.16c1.97-0.51,3.94-1.02,5.91-1.54    c0.73-0.3,1.46-0.61,2.2-0.92c1.92-0.46,4.69,0.17,5.22-2.49c0.45-2,0.23-4.04,0.4-6.08c0.27-1.85,0.55-3.71,0.82-5.56    c0.7-1.54,1.41-3.08,2.11-4.62c0.87-1.46,1.66-2.09,2.52-3.55c0.13-0.22,0.98-2.2,0.77-2.25L256.21,253.2z"/>
            <circle cx="195.65" cy="233.41" r="1.586"/>
        </g>
        <g id="__Tatvan">
            <path d="    M346.26,218.62c-0.82,0.13-2.72-0.02-3.1,0.69c-0.37-0.05-0.84-0.2-1.15,0c-0.86-0.25-2.13-0.8-2.8,0.16    c-0.55-0.11-1.1-0.22-1.65-0.33c-0.45-0.21-0.9-0.43-1.36-0.64c-0.52-0.09-0.81,0.13-1.11-0.35c-0.13,0.1-0.25,0.21-0.38,0.31    c-0.25,0.23-0.43,0.54-0.78,0.51c-0.45,0.67-0.83,1.67-1.81,1.32c-0.27,0.34-0.54,0.69-0.81,1.03c-0.59,0.18-1.19,0.37-1.78,0.55    c-1.31-0.74-2.73-1.33-3.29-2.87c-0.12-0.01-0.25-0.01-0.37-0.02c0.01-0.07,0.03-0.14,0.04-0.21c0.01-0.04,0.02-0.09,0.03-0.13    c0.03-0.43,0.06-0.87,0.1-1.3c0.19-0.52,0.38-1.03,0.57-1.55c0.07-0.4-0.08-0.67,0.26-0.92c-0.05-0.06-0.1-0.11-0.14-0.16    c-0.17-0.27-0.34-0.55-0.51-0.82c-0.47-0.45-0.93-0.9-1.4-1.35c-0.23-0.57-0.72-2.66-0.25-3.09c-0.16-0.38-0.33-0.77-0.49-1.15    c-0.38-0.31-0.79-0.48-0.82-0.99c-0.22-0.04-0.44-0.09-0.66-0.13c-1.95-0.39-3.77-0.77-5.76-1.02c-0.42-0.33-1.27-1.22-1.77-1.07    c-0.33,0.12-0.12,0.16-0.53-0.25c-0.01,0.22-0.03,0.45-0.04,0.67c-0.91,0.27-3.79,0.29-4.4-0.5c-1.38,0.33-2.54,0.28-3.9-0.15    c-0.7-0.23-2.37-0.71-2.51-1.49c-0.52-0.1-0.93-0.38-1.32,0c-0.12-0.19-0.24-0.38-0.35-0.58c-0.19-0.35-0.22-0.67-0.63-0.74    c-0.09-0.41-0.2-1.54-0.2-1.54c-2.35-0.63-2.61,0.12-4.41,1.37c-0.22-0.06-0.44-0.11-0.66-0.16c-0.62,0.27-1.23,0.54-1.85,0.81    c-0.26,0.06-0.52,0.12-0.78,0.18c-0.58-0.08-1.15-0.15-1.73-0.23c-0.3,0.39-0.86,0.59-0.47,0.96c0.16,0.21,0.32,0.42,0.48,0.62    c0.17,0.27-0.19,0.51-0.42,0.62c0.55,0.11,1.1,0.22,1.65,0.33c0.02,0.54-0.2,1.27,0.16,1.65c-0.29,0.17-0.59,0.35-0.88,0.52    c-0.5,0.25-2.76,0.53-3.23,0.3c-0.33,0.17-0.66,0.33-0.99,0.49c-0.33,0.33-0.66,0.66-0.99,0.99c-0.2,0.56-0.41,0.72-0.16,1.32    c-0.07,0.01-0.13,0.02-0.2,0.04c-2.98,0.5-5.84-2.28-8.68-0.86c-0.76-0.18-1.81-0.61-2.27-1.18c-0.56-0.74-0.99-1.54-1.16-2.46    c-0.09-0.47-0.03-1.3-0.35-1.63c0.43-1.35,0.76-2.47,0.61-3.9c-0.02-0.33-0.03-0.67-0.05-1c-1.23-1.54-3.03-2.36-4.53-3.41    c-0.65-0.24-1.3-0.47-1.94-0.71c0.49,1.05,1.29,1.87,1.79,2.93c-0.45,0.43-1.27,1.01-1.76,0.87c-0.26-0.09-0.11-0.08-0.38,0.28    c-0.27-0.49-0.55-0.99-0.82-1.48c-0.33-0.33-0.66-0.66-0.99-0.99c-0.29-0.02-0.58-0.04-0.86-0.06c-0.27,0.74-0.33,1.41-0.45,2.2    c-0.81,0.84-1.41,1.85-2.35,2.47c-0.16,0.42-0.99,1.74-1.46,1.85c-1.31,0.36-2.91,0.34-3.92-0.7c-0.38-0.6-0.77-1.21-1.15-1.81    c-0.46-0.21-0.92-0.41-1.39-0.62c-0.92-0.44-1.48-1.6-2.51-1.08c-0.43,0.22-0.86,0.33-1.25,0.72c-0.5,0.5-0.74,1.04-1.4,1.37    c-0.97,0.47-3.33,1.42-4.31,1.1c-0.83,0.65-1.65,1.3-2.48,1.95c-0.55,0.46-2.74,2.7-3.44,1.99c-2.86-1.28-3.95-3-4.78-5.95    c-0.14-0.51-0.43-2.56-0.31-2.76c0.15-0.23,0.29-0.47,0.44-0.7c0.35-0.3,0.97-0.24,1.19-0.62c0.52-0.12,0.65-0.31,0.99,0.16    c0.02-0.07,0.04-0.15,0.07-0.22c0.02-0.07,0.04-0.13,0.06-0.2c0.18-0.7,0.65-1.75,0.36-2.38c0.19-0.15,0.38-0.31,0.58-0.46    c0.08-0.12,0.16-0.24,0.25-0.36c0.53-0.26,1.54-0.46,1.81-0.99c0.99-0.05,1.97-0.11,2.96-0.16c0.81,0.11,2.61-0.03,3.13,0.66    c0.21-0.13,0.42-0.26,0.63-0.39c0.17,0.02,0.35,0.04,0.52,0.06c0.23-0.49,0.7-0.78,0.66-1.32c0.82-0.6,1.65-1.21,2.47-1.81    c-0.06-0.28-0.12-0.56-0.18-0.84c-0.39-0.16-2.13-0.39-2.11-0.64c0.03-0.31-0.02-1.31,0.31-1.33c0.57-0.14,1.13-0.27,1.7-0.41    c0.15,0.14,0.29,0.28,0.44,0.42c-0.01-0.06-0.01-0.11-0.02-0.17c-0.1-0.55-0.21-1.09-0.31-1.64c0.44-0.66,0.88-1.32,1.32-1.97    c0.57-0.29,1.76-0.87,2.3-0.49c0.15-0.16,0.29-0.32,0.44-0.47c0.63-0.31,1.24-0.26,1.54-0.89c0.49-0.74,0.92-3.43,1.97-3.57    c-0.5-0.13-0.99-0.25-1.49-0.38c-0.03-0.39-0.17-1.17,0.2-1.37c0.37-0.19,2.03-1.11,2.16-0.77c0.39,1.06,0.93,1.93,1.6,2.85    c0.43-0.01,0.86-0.02,1.3-0.03c0.61,0.12,1.22,0.24,1.83,0.36c0.38-0.11,0.77-0.22,1.15-0.33c0.11-0.39,0.13-0.79,0.49-0.99    c-0.13-0.09-0.25-0.19-0.38-0.28c-0.26-0.24-0.51-0.47-0.77-0.71c-0.9-0.43-2.42-1.04-2.63-2.14c-0.21-0.18-0.42-0.36-0.64-0.54    c-0.71,0.07-0.57-0.17-0.61-0.78c-0.09-2.75,0.05-5.9,2.78-7.45c0.22-0.53,1.38-1.01,1.92-1.26c0.14,0.13,0.27,0.26,0.41,0.4    c0.82,0.82,2.18,1.3,2.97,2.2c0.19,0.22,0.87,0.96,0.87,0.96c0.82-0.43,1.59-0.74,2.34-1.29c0.38-0.27,0.67-0.64,1.14-0.61    c0.6-0.55,1.2-1.1,1.8-1.66c0.98-0.06,2.96,0.09,3.62,0.83c0.75-0.17,1.41-0.47,2.13-0.09c0.45-0.32,0.28-0.23,0.67-0.02    c0.41,0.22,1.99,0.24,1.94-0.05c-0.02-0.26-0.04-0.51-0.06-0.77c-0.65-0.74-1.29-1.49-1.94-2.23c0.02-0.15,0.03-0.3,0.05-0.45    c-0.22,0-0.44,0-0.66,0c-0.4-0.23-0.78-0.66-1.16-0.66c-1.28,0.04-2.07,0.59-3.17,1.21c-0.3,0.17-0.83,0.56-1.07,0.28    c-0.35-0.43-1.22-1.02-1.16-1.65c-0.06-0.71-0.12-1.43-0.18-2.14c0.44-0.49,0.88-0.99,1.32-1.48c0.6-1.39,0.99-2.68,0.24-3.84    c-0.34-0.54-0.95-1.26-0.9-1.92c-0.66-0.55-1.32-1.1-1.97-1.65c0.15-0.35,0.3-0.7,0.45-1.04c0.09-0.05,0.19-0.11,0.28-0.16    c-0.34-0.22-0.57-0.16-0.57-0.6c-0.05,0.02-0.09,0.05-0.14,0.07c-1.07,0.55-0.58,0.75-1.76,0.79c-0.23,0.23-1.44,0.64-1.71,0.91    c-0.43,0.15-0.91,0.34-1.71,0.8c-0.21,0.27-1.26,0.91-1.71,0.91c-0.5,0.44-1.36,0.68-2.17,0.69c-2.62,1.11-4.92,2-7.54,3.12    c-1.89,0.7-3.77,1.4-5.66,2.1c-0.75,0.24-2.15,0.46-2.59,1.14c-1.64,0.52-3.29,1.05-4.93,1.57c-1.37,0.52-2.75,1.05-4.12,1.57    c-0.85,0.52-1.67,1-2.64,1.31c-1.9,0.6-4.44,0.82-6.41,0.39c-0.89-0.2-2.92-1.09-3.62-0.56c-0.53-0.11-2.42-0.57-2.7-0.04    c-0.23,0.44-0.59,1.46-1.08,1.52c-0.14,0.57-0.28,1.15-0.42,1.72c0.33,0.66,0.66,1.32,0.99,1.98c-0.1,0.54,0.65,2.78,1.07,3.21    c0.11,0.46,0.04,0.82,0.49,0.99c-0.11,0.04-0.22,0.09-0.33,0.13c-1.1-0.21-2.34-0.16-3.29-0.79c-0.12,0.16-0.23,0.32-0.35,0.48    c-0.85,1.24-1.26,2.66-1.62,4.13c-0.66,1.75-1.32,3.51-1.97,5.26c-0.41,0.58-0.14,1.52-0.66,1.97c0.27,1.7,0.55,3.4,0.82,5.1    c-0.11,0.77-0.22,1.54-0.33,2.3c-0.91,2.21-1.81,4.42-2.72,6.62c-0.68,1.3-1.37,2.6-2.05,3.91c0.11,0.56,0,0.84,0.33,1.31    c0.11,0.22,0.84,1.2,0.95,1.42c0.32,0.12,0.69,0.72,0.69,1.03c0.91,2.4,2.77,3.54,3.88,6.04c0.41,1.4,0.83,2.79,1.24,4.19    c0.38,0.49,0.77,0.99,1.15,1.48c0.22,0.55,0.44,1.1,0.66,1.65c-0.19,1.44,0.08,2.84,0.33,4.28c0.08,0.82,0.16,1.63,0.24,2.45    c0.14,1.05,0.28,2.1,0.42,3.15c0.55,0.66,1.1,1.32,1.65,1.97c0.99,0.77,1.97,1.54,2.96,2.3c1.1,0.66,2.19,1.32,3.29,1.97    c1.26,0.27,2.52,0.55,3.78,0.82c1.15,0.44,2.3,0.88,3.46,1.32c0.71,0.71,1.43,1.43,2.14,2.14c1.57,1.93,3.14,3.87,4.7,5.8    c1.83,1.8,3.66,3.59,5.5,5.39c1.23,0.92,2.39,1.85,3.66,2.72c0.45,0.31,1.21,0.56,1.44,1.06c0.52,0.23,1.38,0.34,1.65,0.82    c0.35,0.08,0.71,0.13,1.06,0.17c1.44,0.14,2.87-0.05,4.37-0.17c4.66,0.11,9.32,0.22,13.98,0.33c1.21,0.49,2.41,0.99,3.62,1.48    c0.68,0.21,2.05,2.15,2.38,2.8c0.72,0.46,1.34,1.69,1.67,2.48c0.96,0.62,1.63,2.36,1.71,3.44c0.12,1.43,0.24,2.85,0.36,4.28    c0.02,1.46-0.23,2.96,0.2,4.4c0.21,0.71,0.9,1.06,1.29,1.64c2.87,4.21,9.39,3.31,13.56,2.51c0.31-0.47,0.98-0.68,1.53-0.82    c0.33-0.27,0.66-0.55,0.99-0.82c0.27-0.6,0.55-1.21,0.82-1.81c0.41-0.52,0.83-1.04,1.24-1.55c0.3-0.42,0.6-0.83,0.89-1.24    c0.57-1.02,1.6-2.65,2.52-3.32c1.02-0.93,2.04-1.86,3.06-2.8c0.66-0.48,1.32-0.97,1.98-1.46c1.26-0.49,2.52-0.99,3.78-1.48    c0.75-0.1,3.57-0.44,4.11-0.16c1.09-0.35,2.13-0.74,3.13-1.32c0.55-0.32,1.16-0.75,1.71-1.25c0.82-0.76,1.49-1.7,1.58-2.7    c1.71-1.56,3.5-2.91,5.43-4.28c1.06-0.72,2.13-1.44,3.19-2.16c1.35-0.38,2.7-0.75,4.05-1.13c0.49-0.22,0.99-0.44,1.48-0.66    c0.71-0.93,1.43-1.86,2.14-2.8c0.27-0.48,0.79-0.6,0.99-1.15c0.72-0.33,2.6-1.29,3.29-1.15c0.76-0.71,1.25-1.05,1.97-1.81    c0.28-0.29,0.79-1.09,0.66-1.48c0.4-0.66,0.79-1.31,1.19-1.97c0.1-0.6,0.19-1.21,0.29-1.81c-0.24-0.73,0.04-3.41,0.66-3.78    c-0.17-1.15-0.35-2.3-0.52-3.46c-0.03-0.42-0.25-0.83,0.03-1.15c-1.15-1.26-2.3-2.52-3.46-3.78c-0.73-0.9-0.51-2.24-0.62-3.26    c-0.08-0.72-0.51-0.46-0.36-1.34C346.83,218.53,346.55,218.57,346.26,218.62z"/>
            <circle cx="233.21" cy="204.36" r="1.586"/>
        </g>
        <g id="__Güroymak">
            <path d="    M219.22,170.31c-0.84-0.52-1.94-0.65-2.9-0.85c-0.12-0.63-1.06-1.16-1.5-1.64c-0.33-0.38,0.7-1.35,1-1.65    c-0.42,0.06-1.09-0.6-1.48-0.82c-0.05-0.3-0.1-0.61-0.14-0.91c-0.17-0.24-0.34-0.49-0.51-0.74c0.34-0.33-0.03-0.9-0.13-1.34    c0.26-0.87,0.51-1.75,0.77-2.62c0.12-0.27,0.23-0.54,0.35-0.81c0.38-0.49,0.77-0.99,1.15-1.48c0.44-0.33,0.52-0.35,0.96-0.68    l-0.34-0.26c-0.46-1.24-2.32-3.66-3.25-4.65c-1.1-1.75-2.19-3.51-3.29-5.26c-0.99-1.75-1.97-3.51-2.96-5.26    c-2.03-2.74-4.06-5.48-6.09-8.23c-0.27-0.49-0.55-0.99-0.82-1.48c-1.13-1.43-1.84-2.99-3.13-4.28c-0.22-1.1-0.65-1.74-1.38-2.58    c-0.76-0.88-1.58-1.63-2.43-2.32l0.07,0.16c-0.07,0.21-0.13,0.42-0.2,0.63c0.16,0.27,0.33,0.55,0.49,0.82    c-0.19,0.96-0.33,1.81-0.33,2.8c-0.36,0.53-0.72,1.06-1.07,1.58c-0.33,0.57-1.95,0.69-2.71,1.05c-1.47,0.69-2.4,0.96-3.62,2.14    c-0.77,0.55-1.54,1.1-2.3,1.65c-0.88,1.21-1.75,2.41-2.63,3.62c-0.6,1.15-1.21,2.3-1.81,3.45c0,2.1-0.74,4.22-1.15,6.25    c-0.31,0.28-0.14,0.3-0.45,0.58c-0.37,0.31-1.55,0.96-2,0.77c-0.66,0.37-1.33,0.75-1.99,1.12c-1.26,0.84-2.52,1.69-3.78,2.53    c-1.62,0.53-3.51,0.48-4.78,1.74c0.08,0.35-0.59,1.74-0.78,2.18c-0.2,0.54-1.04,0.47-1.51,0.55c-1.28,0.21-2.4,0.6-3.57,1.18    c-0.37,0.18-0.38,0.13-0.43,0.59c-0.26,0.2-0.52,0.4-0.79,0.61c-0.23,0-0.85,0.82-1.07,1.06c-0.9,0.91-1.81,1.82-2.71,2.72    c-0.66,0.93-1.32,1.86-1.97,2.8c-0.33,0.05-0.1,0.66,0.01,1.46c0.33,1.63,0.69,1.42,1.8,2.49c0.52,0.5,0.87,1.05,1.48,1.48    c0.37,0.37,0.14,1.15,0.04,1.62c-0.41,1.9-2.37,2.69-3.66,3.94c-0.52,0.54,0.63,1.91,0.88,2.54c0.64,1.61,1.49,3.11,2.25,4.73    c-0.3,0.37-0.2,1.11-0.35,1.6c-0.96,2.49-4.91,3.53-7.32,4.38c-0.62,0.47-1.25,0.95-1.87,1.42c-0.59,0.4-1.19,0.8-1.78,1.2    c-0.98,0.89-1.95,1.79-2.93,2.68c-0.99,0.96-0.37,2.82-0.02,4.04c0.27,1.21,1.25,1.55,2.25,2c0.7,0.45,1.4,0.9,2.1,1.35    c1.68,1.37,3.37,2.74,5.05,4.11l-0.4-0.24c0.76,0.4,1.54,0.35,2.37,0.29c0.91,0.07,1.82,0.14,2.73,0.21    c0.82-0.21,1.65-0.41,2.47-0.62c0.66-0.12,1.31-0.24,1.97-0.36c0.37,0.47,1.7,0.55,2.31,0.73c2.01,0.59,3.99,1.07,5.91,1.9    c0.77-0.21,3.29,0.61,4.21,0.84c2.03,0.51,3.69,1.74,5.83,1.98c0.39,0.04,0.77,0.09,1.16,0.13c1.7,0,3.4,0,5.1,0    c0.77-0.17,1.54-0.33,2.3-0.49c1.15-0.6,2.3-1.21,3.46-1.81c1.4-1.08,2.99-2.5,4.61-3.13c1.04-0.38,2.08-0.77,3.13-1.15    c0.14-0.55,1.1-1.11,1.59-1.41c0.56-0.41,1.13-0.82,1.7-1.22c1.91-0.58,3.73-0.97,5.26-2.3c0.6-0.06,1.21-0.11,1.81-0.16    c0.62,0.42,2.5,0.14,3.64,0.14c0,0,1.35-2.25,2.03-3.55c0.91-2.21,1.81-4.42,2.72-6.62c0.11-0.77,0.22-1.54,0.33-2.3    c-0.27-1.7-0.55-3.4-0.82-5.1c0.52-0.45,0.25-1.39,0.66-1.97c0.66-1.75,1.32-3.51,1.97-5.26c0.36-1.47,0.78-2.89,1.62-4.13    L219.22,170.31z"/>
            <circle cx="170.98" cy="177.43" r="1.586"/>
        </g>
        <g id="__Ahlat">
            <path d="    M316.46,111.65c-0.06-0.16-0.4-1.42-0.46-1.59c-0.1-0.93-0.21-1.86-0.31-2.8c-0.44-0.99-0.88-1.97-1.32-2.96    c-0.12-0.71-0.23-1.42-0.35-2.13c-0.38-1.21-0.75-2.42-1.13-3.62c-0.2-1.3-0.45-2.47-1.15-3.62c-1.15-1.89-3.5-4.28-3.95-6.42    c-0.31-1.48-0.08-3.78,0.97-4.94c0-1.8,0.72-3.43,0.51-5.26c-0.16-1.46-0.91-3.01-1.83-4.12c-0.61-0.74-1.95-2-1.95-2.96    c-0.82,0.82-3.76-0.11-4.77-0.33c-0.77-0.33-1.54-0.66-2.3-0.99c-3.45-0.38-6.91-0.77-10.37-1.15c-1.26-0.05-2.53-0.11-3.79-0.16    c-2.9-0.05-5.81-0.11-8.71-0.16c-3.73,0.19-7.45,0.39-11.18,0.58c-1.93,0.44-3.85,0.88-5.78,1.33c-1.92,0.02-3.83,0.04-5.75,0.07    c-1.43,0.11-2.85,0.22-4.28,0.33c-2.57,0.36-5.15,0.71-7.72,1.07c-2.4,0.49-4.26,1.83-6.43,2.88c-0.93,0.38-1.86,0.77-2.8,1.15    c-0.87,0.56-1.74,1.12-2.61,1.68c-1.38,0.97-4.08,3.43-5.61,3.75c-1.6,0.34-3.11,0.62-4.77,0.49c-0.71-0.11-1.43-0.22-2.14-0.33    c-3.03,0.7-5.49,2.23-7.73,4.28c-0.78,0.71-1.1,1.86-1.52,2.78c-0.92,2.03-1.84,4.07-2.76,6.1c-1.04,1.65-2.08,3.29-3.13,4.94    c-1.42,2.67-3.31,5.01-5.22,7.34c-0.45,0.68-0.91,1.36-1.36,2.04c-0.72,0.25-1.45,0.5-2.17,0.75c-1.8,0.57-4.6,1.21-6.1,2.32    c-0.86,0.66-0.84,2.21-1.05,3.19c-0.23,1.05,1.05,2.06,1.75,2.62c0.19,0.82,1.36,1.16,1.97,1.65c1.32,1.05,2.65,1.97,3.91,3    c0.85,0.69,1.67,1.44,2.43,2.32c0.73,0.84,1.16,1.48,1.38,2.58c1.29,1.29,2,2.85,3.13,4.28c0.27,0.49,0.55,0.99,0.82,1.48    c2.03,2.74,4.06,5.48,6.09,8.23c0.99,1.75,1.97,3.51,2.96,5.26c1.1,1.75,2.19,3.51,3.29,5.26c0.93,1,2.79,3.42,3.25,4.65    l0.34,0.15c0.38-0.16,1.12-0.52,1.51-0.69c0.77-0.11,1.54-0.22,2.3-0.33c0.49-0.05,0.98,0.48,1.24,0.87    c0.04,0.25,0.08,0.49,0.11,0.74c-0.01,0.17-0.03,0.35-0.04,0.52c-0.37-0.14-0.64,0.16-0.99,0.33c0.5,0.71-0.57,1.43-0.28,2.28    c0.04,0.12,0.08,0.23,0.12,0.35c0.23-0.47,0.99-0.29,1.48-0.33c-0.18,0.31,0.26,0.79,0.26,0.79c0.28-0.54,2.17-0.08,2.7,0.04    c0.7-0.54,2.73,0.36,3.62,0.56c1.97,0.44,4.51,0.22,6.41-0.39c0.97-0.31,1.79-0.78,2.64-1.31c1.37-0.52,2.75-1.05,4.12-1.57    c1.64-0.52,3.29-1.05,4.93-1.57c0.44-0.67,1.84-0.9,2.59-1.14c1.89-0.7,3.77-1.4,5.66-2.1c2.62-1.11,4.92-2,7.54-3.12    c0.81,0,1.67-0.25,2.17-0.69c0.46,0,1.5-0.64,1.71-0.91c0.8-0.46,1.29-0.65,1.71-0.8c0.27-0.27,1.49-0.69,1.71-0.91l-0.07-0.2    c-0.86-1.9-2.17-3.61-3.35-5.27c-0.68-1.03-0.05-0.87,0.23-2.06c0.08-0.31,0.18-1.47-0.11-1.49c0.21-0.13,0.37-1.63,0.58-1.76    c0.37-1.25,0.75-2.5,1.12-3.74c0.02-0.16,0.34-0.97,0.36-1.13c-0.64,0.54,0.69-0.69,1.13-1.22c0.38-0.46,0.74-0.63,1.21-0.94    c0.33-0.16,0.66-0.33,0.99-0.49c0.38-0.02,0.76-0.04,1.14-0.07c1.17,0.04,1.69,0.24,2.95-0.16c0.72-0.31,1.44-0.62,2.16-0.93    c0.74-0.74,1.17-1.69,1.74-2.71c0.82-0.49,1.06-0.91,1.88-1.4c0.81,0.21,3.28-1.1,3.95-1.65c2.23-0.14,4.46-0.27,6.69-0.41    c1.37-0.31,3.26-0.23,4.39-0.99c0.91,0,1.53-1.2,2.4-1.37c0.71,0,1.11-0.36,1.82-0.36c1.18,0.41,2.18-0.56,3.27-0.84    c0.26-0.11,1.18-1.04,1.99-1.09c0.6-0.05,1.21-1.31,1.81-1.36c0.35-0.51,0.63-0.68,1.15-0.99c0.49-0.05,0.99-0.11,1.48-0.16    c0.24,0.09,0.47,0.17,0.7,0.26c0.09,0.02,1.93,1.11,2.5-0.15c0.45-0.31,0.75-0.74,1.16-0.83c0.33-0.15,0.61-0.27,0.94-0.43    c-0.01-0.01,0.85-0.4,0.84-0.41C316.76,112.31,316.61,112.23,316.46,111.65z M246.92,93.07c-0.66,0.34-1.32,0.69-1.97,1.03    c-0.3,0.22-0.25,0.42-0.68,0.56c-0.61,0.19-1.91,0.31-2.28,0.76c-0.53,0.02-1.61-0.01-1.97,0.33c-1.42-0.33-2.74-0.15-4.11,0    c-0.93-0.08-1.86-0.17-2.8-0.25c-0.88,0.08-1.75,0.17-2.63,0.25c-0.22,0.33-0.44,0.66-0.66,0.99c-0.69-0.18-1.37-0.22-1.97-0.66    c-0.38,0.16-0.77,0.33-1.15,0.49c-0.4-0.33-1.15-0.83-1.15-1.32c-1.42,0.42-2.69-0.22-3.62-1.15c-0.71-0.16-1.43-0.33-2.14-0.49    c-0.44-0.27-0.88-0.55-1.32-0.82c-0.89-0.94-1.66-0.61-1.64-1.15c0.02-0.51-0.12-2.55,0.17-2.76c1.18-0.31,2.29-0.86,3.43-1.37    c0.94,0.08,1.92-0.35,2.82-0.57c1.59-0.24,3.17-0.49,4.76-0.73c0.73-0.62,1.45-1.03,2.33-1.41c1.06-0.45,2.28-0.37,3.26-1.05    c1.57-1.09,3.1-2.73,3.96-4.43c0.19-0.37,1.04-2.3,1.3-2.34c0.6-0.05,1.21-0.09,1.81-0.14c0.49,0.27,0.99,0.55,1.48,0.82    c0.77,0.71,1.54,1.43,2.3,2.14c0.11,0.27,0.22,0.55,0.33,0.82c0.17,0.76-0.15,3.63,0.81,3.6c0.46,0,0.63,0.07,0.83,0.51    c0.14,0.63,0.22,1.19-0.02,1.81c-0.21,0.16-0.42,0.33-0.64,0.49c0,0.62-0.39,0.97-0.19,1.6C246.01,89.73,248.2,92.07,246.92,93.07    z"/>
            <circle cx="286.14" cy="121.22" r="1.586"/>
        </g>
        <g id="__Adilcevaz">
            <path d="    M451.68,80.65c-0.09-0.55-0.28-0.62-0.73-0.94c-1.05-0.74-2.75-0.28-3.82,0.23c-0.56,0.27-1.02,0.62-1.64,0.66    c-0.56,0.05-1.9-1.78-2.13-2.29c-1.63,0.05-2.87,0.57-4.44,0.82c-0.09-0.07-0.19-0.13-0.28-0.2c-1.23-0.26-1.15-1.22-1.36-2.1    c-0.42,0.07-0.26,0.14-0.5-0.08c-0.59-0.5-1.41,0.05-2.02,0.35c-1.02,0.55-0.75,1.77-1.1,2.69c-0.5,1.31-1.33,2.32-2.3,3.29    c0.16,0.27,0.33,0.55,0.49,0.82c0.42-0.41,1.36-1.15,1.97-1.15c0.25-0.79,2.42-1.68,3.18-1.98c0.64-0.26,0.26,0.07,0.74,0.1    c1.6,0.26,2.23,2.07,2.88,3.33c0.37,0.71,0.09,1.82-0.08,2.54c-0.04,0.33-0.08,0.66-0.12,0.99c-0.68,1.29-1.53,2.76-2.82,3.57    c-0.82,0.49-1.65,0.99-2.47,1.48c-1.38,0.27-2.78,0.32-3.95,1.15c-0.65,0-0.83-1.29-1.16-1.69c-1.4-0.41-2.41,0.46-3.77,0.21    c-1.17-0.22-2.55-1.11-3.45-1.83c-0.21-0.82-0.42-1.65-0.63-2.47c-0.15-0.68,1.69-2.07,2.18-2.53c0.25-0.22-1.69-1.71-1.85-2.12    c-0.06-0.47-0.13-0.94-0.2-1.41c-0.63-0.54-0.48-2.23-0.66-2.96c-0.21-0.89-0.55-1.49-1.15-2.14c-0.44-0.05-0.88-0.11-1.32-0.16    c-0.71,0.16-1.43,0.33-2.14,0.49c-0.27-0.37-0.82-0.43-1.24-0.62c-0.02-0.89-0.05-1.78-0.07-2.67c0-1.45,0.55-2.61,1.32-3.78    c0-0.44,0-0.88,0-1.32c-0.15-0.71,0.41-0.7,0.26-1.41c-0.13-0.46,0.67-1.27,0.86-1.2c0.51-0.65,0.27-0.46,1.02-1.17    c0.71,0.27,1.43,0.55,2.14,0.82c0.05,0,0.11,0,0.16,0c-0.01-0.13-0.01-0.25-0.02-0.38c0.56-0.44,0.53-0.76,0.65-1.44    c-0.32-0.5-0.65-0.99-0.97-1.49c-0.12-1.02-0.68-1.74-1.06-2.65c-0.25-0.81-0.49-1.63-0.74-2.44c-0.84-2.51-1.89-4.85-3.27-7.1    c-0.63-1.03-1-2.15-1.83-3.07c-1.04-1.38-2.08-2.76-3.12-4.14c-1.48-0.93-2.96-1.86-4.44-2.8c-1.86-0.19-3.73-0.37-5.59-0.56    c-1.1-0.18-1.91-0.42-2.8-1.09c-0.65,0.65-1.99,0.19-2.8,0c-0.25,0.62-0.89,0.51-1.48,0.82c-0.63,0.47-1.26,0.94-1.89,1.4    c-0.4,0.38-0.38,1.63-0.47,2.22c-1.89,2.1-4.44,5.99-5.21,8.71c0.1,1.15,0.21,2.3,0.31,3.45c0.23,2.05,0.47,4.1,0.7,6.15    c-0.04,0.86-0.82,1.78-1.35,2.41c-0.89,1.07-1.91,2.29-3.13,2.96c-1.81,0.15-3.62,0.31-5.43,0.46c-2.3-0.1-4.61-0.2-6.91-0.29    c-1.95-0.09-3.98-0.38-5.92,0c-1.19-0.61-3.03-0.58-4.33-0.45c-2.67,0.1-5.34,0.19-8.01,0.29c-1.04-0.16-2.08-0.33-3.13-0.49    c-0.78-0.22-3.05-1.27-3.68-1.08c-0.8-0.24-1.6-0.48-2.41-0.72c-2.19,0.33-4.39,0.66-6.58,0.99c-0.17-0.34-0.67-0.43-1.02-0.58    c-0.58-0.94-1.27-1.32-2.29-1.65c-0.35-0.09-0.28-0.18-0.39,0.29c-1.02,0.29-1.39,0.97-2.02,1.74c-0.29-0.09-0.59-0.17-0.88-0.26    c-0.6,0.05-1.2,0.11-1.8,0.16c-2.4,0.93-4.86,2.35-7.39,2.76c-3.43,0.56-6.95,0.09-10.36,0.66c-0.32,0.38-0.83,0.3-1.32,0.33    c-0.42,0.21-0.84,0.41-1.25,0.62c-0.75,0.48-1.49,0.95-2.24,1.43l-0.13,0.09c0,0.96,1.34,2.22,1.95,2.96    c0.92,1.11,1.67,2.66,1.83,4.12c0.21,1.83-0.51,3.47-0.51,5.26c-1.05,1.16-1.29,3.45-0.97,4.94c0.45,2.13,2.8,4.52,3.95,6.42    c0.7,1.15,0.95,2.32,1.15,3.62c0.38,1.21,0.75,2.42,1.13,3.62c0.12,0.71,0.23,1.42,0.35,2.13c0.44,0.99,0.88,1.97,1.32,2.96    c0.1,0.93,0.21,1.86,0.31,2.8c0.06,0.16,0.4,1.42,0.46,1.59c0.15,0.58,0.3,0.66,0.6,1.31l0.14-0.04c0.24,0.07,1.63-0.07,1.89-0.2    c0.97-0.5,1.4-1.01,2.69-1.01c0.33-0.16,0.66-0.33,0.99-0.49c0.89-0.16,2.04,0.51,2.77,0.94c0.98,0.58,2.22,0.97,3.32,1.2    c0.49-0.16,0.89,0.52,1.38,0.35c0.86-0.34,1.62-0.68,1.54-1.03c0.34-0.26,0.51-0.69,0.77-0.94c0.08,0.1,0.95-0.44,1.03-0.34    c0.71-0.33,0.65-0.34,1.36-0.67c0.33-0.38,0.66-0.77,0.99-1.15c0.37-0.04,0.73-0.08,1.1-0.12c0.46-0.23,0.91-0.47,1.37-0.7    c1.66,0.1,3.33,0.38,4.94,0.82c0.53-0.31,1.55-0.13,2.14,0c0.05,0.17,0.11,0.33,0.16,0.49c0.38,0.05,0.77,0.11,1.15,0.16    c0.6,0.27,1.21,0.55,1.81,0.82c1.48,0.2,2.96,0.4,4.44,0.6c0.6,0.29,1.21,0.59,1.81,0.88c1.24,0.33,2.48,0.66,3.72,0.99    c1.2,0.4,1.99,0.84,3.36,0.82c1.73-0.02,3.07-0.31,4.67-1.07c0.54-0.44,1.09-0.88,1.63-1.32c0.42-0.19,0.85-0.38,1.27-0.58    c0.99-0.06,1.97-0.11,2.96-0.16c1.32,0.44,2.63,0.88,3.95,1.32c1.19,0.5,1.9-1.72,2.8-2.3c0.79-0.79,2.53-0.18,3.4,0.16    c1.05,0.47,2.09,0.94,3.14,1.41c1.34,1.06,2.68,2.13,4.02,3.19c2.08,0.36,2.19-0.24,3.93-1.15c0.84,0.34,1.63-0.53,1.97-1.15    c1.29-0.31,4.87,0.13,5.92,0.82c0.22,0.27,0.44,0.55,0.66,0.82c0.34,0.26,0.69,0.53,1.03,0.79c0.45,0.3,0.86-1.57,1.44-1.94    c1.52-0.98,2.49-1.38,4.28-1.48c0.78-0.77,1.09-0.29,0.24,0.88c-0.34,0.48,0.45,0.82,0.83,0.66c0.55,0.32,1.11,0.59,1.77,0.61    c2.22,0.07,5.4-0.64,7.4-1.74c0.54-0.41,1.07-0.82,1.61-1.23c2.4-1.53,4.8-3.07,7.2-4.6c0.61-0.36,1.48-0.6,2.18-0.66    c0.22-0.01,0.45-0.01,0.67-0.02c0.6-0.32,1.2-0.64,1.8-0.97c-0.2-1.06,1.42-1.42,2.13-2c0.72-0.87,1.43-1.74,2.15-2.61    c1.11-0.54,2.33-0.7,3.62-1.15c0.26-0.86,0.76-1.47,1.48-1.97c0.02-0.77,2.23-2.58,2.96-2.8c0.5-0.17,0.99-0.35,1.49-0.52    c0.16-0.1,0.32-0.2,0.48-0.3c-0.45-0.55-0.07-1.73-0.33-2.47c-0.05-0.6-0.11-1.21-0.16-1.81c-0.32-1.73-0.23-3.65,0.84-5.08    c0.46-0.57,3.08-0.92,3.97-1.43C451.72,82.28,451.71,81.12,451.68,80.65z M363.64,97.37c-0.27,0.72-1.4,1.1-2.06,1.16    c-0.57,0.03-0.81-0.44-1.3-0.81c-0.05-0.34-0.1-0.68-0.15-1.02c0.08-0.08,0.15-0.17,0.23-0.25c0.19-0.64,0.47-0.9,1.13-1.12    c0.46-0.11,0.45-0.02,0.6,0.41c0.49-0.01,0.98-0.03,1.47-0.04c0.36,0.08-0.02,0.3,0.34,0.66c0.06,0.07,0.11,0.13,0.17,0.2    C363.72,96.73,363.77,97.02,363.64,97.37z M407.92,106.51c-0.07,0.47-0.13,0.95-0.2,1.42c-0.1,0.52-2.51,1.6-3.19,1.97    c-0.28-0.02-0.55-0.03-0.83-0.05c-2.68,0.21-4.03-0.81-6.21-2.18c-1.5-0.95-2.8-1.77-3.4-3.41c-0.13-0.36,0.1-0.4,0.15-0.77    c0.04-0.33-0.02-0.49,0.34-0.54c0.62-1.1,1.44-1.09,2.54-1.44c0.17-0.44,0.54-0.53,0.93-0.73c0.24-0.2,0.48-0.39,0.72-0.59    c0.33-0.05,0.66-0.11,0.99-0.16c0.66,0.15,1.32,0.31,1.97,0.46c0.38-0.04,0.77-0.09,1.15-0.13c0.33,0.05,0.66,0.11,0.99,0.16    c0.88,0.28,1.75,0.43,2.8,0.66c0.66,0.6,1.32,1.21,1.97,1.81c0.1,0.26,0.21,0.52,0.31,0.79c-0.16,0.18-0.32,0.35-0.48,0.53    C408.58,104.73,408.22,106.21,407.92,106.51z"/>
            <circle cx="343.83" cy="107.63" r="1.586"/>
        </g>
        <g id="__Mutki">
            <path d="    M113.97,281.35c-1.35-1.03,0.32-3.91,1.05-5.04c1.25-1.62,2.49-3.24,3.74-4.85c1.21-1.21,2.41-2.41,3.62-3.62    c0.65-1.12,1.62-2,2.46-2.97c1.17-1.35,1.86-2.92,2.48-4.6c0.55-0.22,0.96-1.01,1.32-1.48c0.66-0.33,1.32-0.66,1.97-0.99    c0.71-0.13,1.43-0.25,2.14-0.38c0.55,0.07,1.09,0.14,1.64,0.22c0.83-0.05,2.4,0.17,3.13,0.66c0.44,0.27,0.88,0.55,1.32,0.82    c0.98,0.34,1.96,0.69,2.95,1.03c0.39,0.15,0.78,0.3,1.17,0.45c0.82,0.12,1.92,0.32,2.71,0.04c0.63-0.23,1.18-0.66,1.57-1.19    c0.34,0.18,0.64-0.1,0.99-0.16c1.92-0.38,4.09-0.14,5.54-1.68c0.59-0.62,1.78-3.05,1.33-3.72c0.6-1.19,0.6-2.54,0.86-3.81    c0.77-0.49,0.59-1.56,0.79-2.19c0.19-0.72,1.36-1.14,2-1.5c2.19-1.21,4.68-1.91,6.88-3.01c2.46-1.38,1.9-6.75,1.19-8.94    c-0.43-0.23-0.58-0.73-0.82-1.15c-0.6-0.16-0.98-0.93-1.48-1.32c-1.63-1.27-3.96-3-5.17-4.59c-1.9-2.97-3.79-5.94-5.69-8.9    c0.24-0.39-0.2-1.48-0.26-1.98c-0.08-1.92-0.16-3.83-0.24-5.75c-0.33-0.44-0.66-0.88-0.99-1.32c-0.87-1.06-1.58-1-2.15-2.24    c-0.09-0.17-0.4-1.21-0.48-1.38c0,0-2.97-2.5-4.65-3.87c-0.7-0.45-1.4-0.9-2.1-1.35c-1-0.45-1.98-0.79-2.25-2    c-0.35-1.22-0.97-3.08,0.02-4.04c0.98-0.89,1.95-1.79,2.93-2.68c0.59-0.4,1.19-0.8,1.78-1.2c0.62-0.48,1.25-0.95,1.87-1.42    c2.41-0.85,6.36-1.89,7.32-4.38c0.15-0.49,0.05-1.23,0.35-1.6c-0.75-1.63-1.61-3.12-2.25-4.73c-0.25-0.63-0.94-1.9-0.94-1.9    c-1.31,0.05-2.82,0.74-3.89,0.55c-1.68-0.47-3.36-0.94-5.04-1.4c-0.51-0.25-1.02-0.49-1.54-0.74c-0.2-0.18-0.39-0.36-0.59-0.54    c-0.63-0.26-1.25-0.51-1.88-0.77c-0.86-0.41-1.71-0.83-2.57-1.24c-0.43-0.23-0.86-0.45-1.29-0.68c-0.98-0.37-1.97-0.74-2.95-1.12    c-1.95-0.71-3.88-1.33-5.86-1.9c-0.77-0.22-1.54-0.44-2.3-0.66c-4.06-0.6-8.12-1.21-12.17-1.81c-3.02-0.6-6.05-1.2-9.07-1.8    c-3.17-0.82-6.34-1.65-9.52-2.47c-0.78-0.03-1.55-0.06-2.33-0.1c-1.97-0.19-3.93-0.37-5.9-0.56c-1.48,0.21-2.96,0.42-4.45,0.63    c-1.26,0.23-2.52,0.46-3.78,0.69c-2.25,1.39-4.49,2.77-6.74,4.16c-0.51,0.47-1.81,1.09-2.05,1.25c-0.53,0.61-1.87,1.06-2.4,1.67    c-0.55,0.33-1.1,0.66-1.65,0.99c-1.15,1.65-2.3,3.29-3.45,4.94c-0.57,1.8-1.14,3.61-1.72,5.41c-0.19,0.79-0.38,1.57-0.58,2.36    c-0.46,2.63-0.92,5.26-1.38,7.89c-0.16,0.62-0.25,2.08-0.61,2.44c0.22,0,1.26,0.88,1.49,1.05c0.67,0.32,2.4,1.2,1,0.41    c2.4,1.16,4.81,2.32,7.21,3.48c2.77,0.88,5.79,1.72,8.72,1.81c1.97,0.93,3.95,1.86,5.92,2.8c0.09,0.53,2,2.51,2.47,3.13    c0.33,1.43,0.66,2.85,0.99,4.28c-0.1,0.48-0.19,0.97-0.29,1.45c-0.34,1.05-0.69,2.1-1.03,3.16c-0.92,2.6-2.2,5.14-2.63,7.9    c0.05,0.99,0.11,1.97,0.16,2.96c-0.49,7.88-2.93,15.46-3.75,23.18c-0.18,1.92-0.35,3.85-0.53,5.77c0.49,1.54,0.99,3.07,1.48,4.61    c0.21,0.94,0.19,1.93,0.66,2.8c0.58,1.09,1.27,2.96,2.38,3.59c0.47,1.11,1.44,2.51,2.31,3.31c0.41,0.66,0.82,1.33,1.23,1.99    c0,0.38,1.02,1.6,1.7,1.91c0.34,0.99,1.18,1.92,1.92,2.69c0.2,1.31,1.6,2.36,2.63,2.96c1.21,0.06,2.41,0.11,3.62,0.16    c0.99-0.11,1.97-0.22,2.96-0.33c0.84,0.3,1.67,0.6,2.51,0.9c0.75-0.03,1.51-0.05,2.26-0.08c1.15,0.27,2.3,0.55,3.45,0.82    c0.82,0.05,1.65,0.11,2.47,0.16c0.37-0.24,1.04-0.04,1.48,0c0.96-0.53,3.76-0.05,4.77,0.33L113.97,281.35z"/>
            <circle cx="146.87" cy="228.62" r="1.586"/>
        </g>
    </g>
</svg>