<?xml version="1.0" encoding="UTF-8"?>
<!DOCTYPE svg PUBLIC "-//W3C//DTD SVG 1.1//EN" "http://www.w3.org/Graphics/SVG/1.1/DTD/svg11.dtd">
<svg version="1.1" id="HaritaCizim" xmlns="http://www.w3.org/2000/svg" xmlns:xlink="http://www.w3.org/1999/xlink" x="0px" y="0px" viewBox="0 0 500 310" preserveAspectRatio="none">
    <defs id="__def">
        <radialGradient id="f">
            <stop offset="0" stop-color="white" stop-opacity="1"/>
            <stop id="STOP1" offset=".4" stop-opacity="1"/>
            <stop offset="1" stop-color="white" stop-opacity=".2"/>
        </radialGradient>
        <filter id="__flt1" x="0" y="0" width="200%" height="200%" filterUnits="objectBoundingBox">
            <feGaussianBlur in="SourceAlpha" stdDeviation="3" result="blur1"/>
            <feSpecularLighting result="specOut" in="blur1" specularConstant="1.5" specularExponent="20" lighting-color="#bbbbbb">
                <feDistantLight azimuth="45" elevation="30"/>
            </feSpecularLighting>
            <feComposite in="specOut" in2="SourceAlpha" operator="in" result="specOut"/>
            <feComposite in="SourceGraphic" in2="specOut" operator="arithmetic" k1="0" k2="1" k3="1" k4="0"/>
        </filter>
        <filter id="__flt2" x="0" y="0" width="200%" height="200%" filterUnits="objectBoundingBox">
            <feGaussianBlur in="SourceAlpha" stdDeviation="3" result="blur1"/>
            <feSpecularLighting result="specOut" in="blur1" specularExponent="20" lighting-color="#bbbbbb">
                <fePointLight x="-2000" y="100" z="2000"/>
            </feSpecularLighting>
            <feComposite in="specOut" in2="SourceAlpha" operator="in" result="specOut"/>
            <feComposite in="SourceGraphic" in2="specOut" operator="arithmetic" k1="0" k2="1" k3="1" k4="0"/>
        </filter>
        <filter id="__flt3" x0="-50%" y0="-50%" width="200%" height="200%" filterUnits="objectBoundingBox">
            <feGaussianBlur in="SourceAlpha" stdDeviation="3" result="blur"/>
            <feOffset in="blur" dx="0" dy="0" result="offsetBlur"/>
            <feSpecularLighting in="blur" surfaceScale="4" specularConstant=".5" specularExponent="20" lighting-color="flavor" result="specOut">
                <fePointLight x="-5000" y="-10000" z="5000"/>
            </feSpecularLighting>
            <feComposite in="specOut" in2="SourceAlpha" operator="in" result="specOut"/>
            <feComposite in="SourceGraphic" in2="specOut" operator="arithmetic" k1="0" k2="1" k3="1" k4="0" result="litPaint"/>
            <feMerge>
                <feMergeNode in="offsetBlur"/>
                <feMergeNode in="litPaint"/>
            </feMerge>
        </filter>
        <filter id="__flt4" x0="-50%" y0="-50%" width="200%" height="200%">
            <feGaussianBlur in="SourceAlpha" stdDeviation="2" result="blur"/>
            <feOffset dy="-1" dx="-1"/>
            <feComposite in2="SourceAlpha" operator="arithmetic" k2="-1" k3="1" result="hlDiff"/>
            <feFlood flood-color="white" flood-opacity=".7"/>
            <feComposite in2="hlDiff" operator="in"/>
            <feComposite in2="SourceGraphic" operator="over" result="withGlow"/>
            <feOffset in="blur" dy="3" dx="3"/>
            <feComposite in2="SourceAlpha" operator="arithmetic" k2="-1" k3="1" result="shadowDiff"/>
            <feFlood flood-color="black" flood-opacity="1"/>
            <feComposite in2="shadowDiff" operator="in"/>
            <feComposite in2="withGlow" operator="over"/>
        </filter>
        <filter id="__golge1" x="0" y="0" width="200%" height="200%" filterUnits="userSpaceOnUse">
            <feOffset result="offOut" in="SourceAlpha" dx="8" dy="8"/>
            <feGaussianBlur result="blurOut" in="offOut" stdDeviation="3"/>
            <feBlend in="SourceGraphic" in2="blurOut" mode="normal"/>
        </filter>
    </defs>
    <g id="__Komsular" display="none">
        <path fill-rule="evenodd" clip-rule="evenodd" fill="none" stroke="#000000" stroke-width="0.5" stroke-miterlimit="10" d="   M457.55,94.42c4.22-0.03,6.93-4.35,10.89-5.5c1.09-0.31,1.93-0.12,2.98-0.53c0.99-0.39,1.76-1.13,2.63-1.72   c1.21-0.82,2.24-0.98,3.66-1.25c1.06-0.2,2.51-0.04,3.49-0.42c1.77-0.69,3.8-2.86,5.21-4.06c1.57-1.34,2.95-2.81,4.34-4.21   c1.53-1.54,2.89-3.21,4.32-4.73c1.44-1.54,3.19-2.55,4.65-3.92"/>
        <path fill-rule="evenodd" clip-rule="evenodd" fill="none" stroke="#000000" stroke-width="0.5" stroke-miterlimit="10" d="   M456.57,112.64c0.65-0.57,1.24-1.56,1.99-2.07c1.21-0.81,1.65-0.07,2.73,0.29c2.12,0.71,4.16-0.31,6.34-0.46   c2.44-0.16,4.83-0.36,7.26,0.17c0.92,0.2,1.99,1.02,2.96,1.4c1.48,0.58,2.52,0.87,3.65,1.92c1.59,1.49,3.19,2.85,4.65,4.49   c0.89,1,0.9,1.86,1.47,2.94c0.52,0.97,1.49,1.61,2,2.52c1.2,2.15,2.28,4.07,3.9,5.89c1.45,1.64,1.72,3.71,3.36,5.22   c0.81,0.75,2.22,1.59,3.11,1.78"/>
        <path fill-rule="evenodd" clip-rule="evenodd" fill="none" stroke="#000000" stroke-width="0.5" stroke-miterlimit="10" d="   M335.81,32.36c-0.41-0.64-0.57-2.21-0.56-2.94c0.02-1.2,0.7-1.71,1.12-2.66c0.85-1.92,2.1-3.83,3.6-5.5   c1.38-1.54,3.37-2.6,4.8-4.19c1.45-1.61,2.44-3.43,3.54-5.26c0.72-1.19,1.44-2.52,1.95-3.79c0.55-1.36,0.96-3.61,1.79-4.8   c0.97-1.39,2.65-1.19,4.21-1.11c1.82,0.09,2.84-0.5,3.64-2.1"/>
        <path fill-rule="evenodd" clip-rule="evenodd" fill="none" stroke="#000000" stroke-width="0.5" stroke-miterlimit="10" d="   M310.17,43.01c-1.89-0.73-4.07-0.9-6.06-1.51c-1.2-0.37-2.08-0.43-3.16-1.16c-0.83-0.56-1.5-1.15-2.38-1.57   c-2.17-1.04-4.26-1.06-6.59-1.54c-2.2-0.45-4.34-1.67-6.75-1.93c-2.16-0.23-4.58-0.22-6.58-0.88c-2.11-0.69-4.13-1.37-6.45-1.36   c-2.31,0.01-4.38-0.3-6.72-0.42c-2.32-0.11-4.27-0.68-6.45-1.12c-2.55-0.51-3.99,0.21-6.29,0.83c-2.36,0.63-5.21-0.09-7.43,0.81   c-1.22,0.49-1.65,1.31-3.05,1.43c-1.18,0.1-2.39-0.11-3.53,0.11c-2.11,0.41-3.71,2.33-5.78,2.8c-2.11,0.48-4.45,0.26-6.55,0.59   c-2.2,0.35-4.09,0.24-6.31,0c-2.44-0.26-4.47,0.42-6.69,0.87c-2.17,0.43-4.37,0.19-6.48-0.2c-1.94-0.36-2.74-1.64-4.03-2.94   c-1.14-1.15-1.37-2.86-1.89-4.42c-0.53-1.59-0.6-3.36-1.09-4.94c-0.25-0.8-0.89-1.12-1.3-1.81c-0.44-0.72-0.52-1.61-0.66-2.39"/>
        <path fill-rule="evenodd" clip-rule="evenodd" fill="none" stroke="#000000" stroke-width="0.5" stroke-miterlimit="10" d="   M121.6,136.31c-0.35-1.6,1-1.35,1.66-2.27c0.51-0.72,0.4-2.17,0.44-3.05c0.06-1.16-0.01-2.34,0-3.5c0.01-1.4,0.71-2.02,0.98-3.22   c0.66-2.96-2.48-3.36-4.77-3.36c-2.53,0-4.72,0.33-6.62-1.4c-0.77-0.7-1.16-1.52-1.65-2.39c-0.55-0.99-1.1-1.27-1.97-1.92   c-1.75-1.32-3.3-2.77-4.87-4.24c-1.88-1.76-1.95-3.6-1.71-6.02c0.09-0.93-0.03-2.33,0.32-3.18c0.32-0.78,1.19-1.56,1.75-2.18   c0.64-0.71,1.27-1.68,2-2.21c0.87-0.63,2.02-0.95,2.94-1.54c1.29-0.82,4.82-2.71,4.62-4.62c-0.2-1.94-4.08-0.84-3.61-3.61   c0.34-1.99,1.9-3.95,0.22-5.89c-1.54-1.77-3.82-0.94-5.85-0.73c-1.29,0.13-2.43,0.24-3.65,0.7c-0.98,0.37-1.95,0.96-3.05,0.82   c-2.36-4.17-1.16-8.67,2.47-11.5c1.83-1.43,3.56-1.64,5.74-2.23c2.79-0.77,5.43-1.41,7.63-3.44c2.25-2.07,4.41-4.16,6.69-6.17   c1.3-1.14,1.68-2.07,2.41-3.5c0.76-1.49,2.01-2.39,2.77-3.95"/>
        <path fill-rule="evenodd" clip-rule="evenodd" fill="none" stroke="#000000" stroke-width="0.5" stroke-miterlimit="10" d="   M51.84,237.6c-0.35-1.12-1.67-1.17-2.52-1.54c-1.2-0.53-2.1-0.95-3.51-1.16c-1.12-0.17-2.39,0.3-3.36,0.18   c-1.2-0.15-1.88-1.22-2.7-1.93c-0.74-0.64-1.66-1.27-2.49-1.69c-1.24-0.63-2.19-0.28-3.51-0.59c-0.78-0.18-2.28-0.74-2.95-1.12   c-1.01-0.58-0.95-1.45-0.83-2.67c0.09-0.93,0.16-2.25,0.45-3.19c0.36-1.18,0.98-1.78,0.95-3.11c-0.05-2.15-1.9-3.9-2.98-5.6   c-1.4-2.21-2.62-2.78-5.15-3.19c-2.63-0.43-5.44-0.31-8.13-0.17c-2.32,0.12-4.39-0.58-6.72-0.56c-2.76,0.02-5.77,0.7-8.41-0.14"/>
        <path fill-rule="evenodd" clip-rule="evenodd" fill="none" stroke="#000000" stroke-width="0.5" stroke-miterlimit="10" d="   M67.11,268.42c-0.12,3.84-7.44,5.13-10.23,6.58c-1.99,1.04-4.04,1.33-6.16,2.1c-2.18,0.79-3.72,1.84-5.74,2.95   c-1.02,0.56-2.22,0.84-2.96,1.96c-0.54,0.82-0.82,1.96-1.36,2.83c-1.14,1.85-1.72,3.79-2.73,5.68c-0.91,1.7-1.85,3.82-2.35,5.64   c-0.61,2.22-2.02,3.82-3.11,5.86c-1.28,2.38-2.47,5.6-5.43,6.2"/>
        <path fill-rule="evenodd" clip-rule="evenodd" fill="none" stroke="#000000" stroke-width="0.5" stroke-miterlimit="10" d="   M102.13,275.43c0.07,1.96,0.05,4.52,0.88,6.31c0.41,0.9,1.2,1.59,1.51,2.52c0.46,1.39-0.14,1.99-0.81,3.11   c-1.32,2.23-0.16,4.17,0.84,6.13c0.47,0.93,0.32,2.13,0.91,2.98c0.68,0.98,1.72,0.83,2.7,1.08c1.58,0.41,1.94,1.61,3.19,2.42   c0.93,0.61,3.15,1.4,3.57-0.27c0.42,1.06,1.41,1.42,2.11,2.16c0.64,0.68,0.94,1.71,1.91,2.15c0.81,0.37,2.22,0.7,3.13,0.94   c1.02,0.28,2.39,0.28,3.47,0.18c1.14-0.11,2.09-0.24,3.36-0.04c1.07,0.17,2.03,0.59,3.08,0.77c1.12,0.18,2.18-0.09,3.36-0.03   c0.52,0.03,1.18,0.26,1.68,0.14c1.03-0.24,0.48-0.16,0.98-0.98c1.6-2.62,5.39-4.75,8.41-4.9c1.91-0.1,3.55,0.67,5.46,0.42   c1.5-0.2,3.83-1.16,5.19-1.81c1.76-0.84,2.34-2.87,4.65-2.29c1.89,0.47,4.29,0.85,5.96,2.02c0.88,0.62,1.59,1.44,2.52,1.96   c1.08,0.6,1.98,0.4,3.25,0.53c1.22,0.12,2.07,0.53,3.26-0.09c0.96-0.5,1.59-1.12,2.63-1.44c2.84-0.89,6.18-1,9.1-1.55   c3.39-0.63,6.53-0.31,9.95-0.42"/>
        <text transform="matrix(1 0 0 1 472.1204 102.1294)" font-family="'MyriadPro-Regular'" font-size="10">ÇANKIRI</text>
        <text transform="matrix(0.8735 -0.4868 0.4868 0.8735 365.1318 249.5254)" font-family="'MyriadPro-Regular'" font-size="10">ANKARA</text>
        <text transform="matrix(1 0 0 1 65.1443 295.741)" font-family="'MyriadPro-Regular'" font-size="10">ESKİŞEHİR</text>
        <text transform="matrix(0.381 0.9246 -0.9246 0.381 21.2876 252.1155)" font-family="'MyriadPro-Regular'" font-size="10">BİLECİK</text>
        <text transform="matrix(0.6159 -0.7879 0.7879 0.6159 43.8596 161.2209)" font-family="'MyriadPro-Regular'" font-size="10">SAKARYA</text>
        <text transform="matrix(0.732 -0.6813 0.6813 0.732 174.5962 82.6477)" font-family="'MyriadPro-Regular'" font-size="10">DÜZCE</text>
        <text transform="matrix(1 0 0 1 286.9148 17.3721)" font-family="'MyriadPro-Regular'" font-size="10">ZONGULDAK</text>
        <text transform="matrix(0.743 0.6693 -0.6693 0.743 432.012 23.729)" font-family="'MyriadPro-Regular'" font-size="10">KARABÜK</text>
    </g>
    <g id="__Harita" display="none">
        <rect id="__cer" x="0" y="0" fill="#000000" opacity="0" width="500" height="310"/>
        <g id="__Göynük">
            <path d="    M146.03,219.75c-0.54-1.02-1.84-1.09-2.77-1.52c-0.38-0.17-0.76-0.35-1.13-0.52c-0.22-0.21-0.44-0.43-0.66-0.64    c-0.2-0.3-0.4-0.6-0.6-0.9c-0.14-0.89-0.17-2.48-1.12-2.94c-0.14-0.33-0.28-0.65-0.42-0.98c-0.05-1.87-0.09-3.74-0.14-5.6    c1.12-1.33,1.66-3.67,2.8-5.04c0.45-0.46,2.18-1.51,2.17-1.54c-0.22-0.39-0.97-0.73-1.19-1.12c-0.31-0.16-0.69-0.24-0.84-0.56    c-0.39-0.18-0.94-0.3-1.12-0.7c-0.58-0.01-2.54,0.12-2.8,0.42c-0.05-0.15-0.33-0.9-0.42-1.12c-0.02-0.45-0.05-0.9-0.07-1.35    c-1.18-1.43-1.55-1.57-3.24-1.93c-0.29-0.06-0.88-0.54-0.87-0.64c0.13-0.7,0.27-1.4,0.4-2.1c0.06-0.94,0.12-1.87,0.18-2.81    c0.06-0.45-0.06-1.39,0.39-1.68c-0.42-1.65-0.84-3.3-1.27-4.96c-0.29-1.61-2.09-3.22-3.78-3.27c-0.17-0.21-1.98,0.51-2.78,0.83    c-0.22,0.14-0.56,0.26-0.58,0.53c-0.36,0.01-0.72,0.03-1.07,0.04c-0.53-0.15-1.06-0.31-1.59-0.46c-0.37-0.05-0.75-0.09-1.12-0.14    c-0.83-0.38-1.61-0.67-2.52-0.86c-0.51-0.11-1.68-0.48-2.1-0.12c-0.58-0.17-1.7-0.5-2.24-0.14c-1.55-0.24-2.96-0.84-4.48-0.88    c-0.42-0.03-0.84-0.06-1.26-0.1c-0.47-0.12-0.94-0.3-1.4-0.5c-0.63-0.28-1.24-0.6-1.83-0.9c-0.48-0.25-0.97,0.03-1.4-0.28    c-2.01,0.89-4.02,1.77-6.02,2.66c-0.79,0.09-1.59,0.19-2.38,0.28c-0.8,0.28-1.96,1.39-2.8,1.33c-0.78-0.25-1.41-1.01-2.19-1.26    c-1.03,0.92-2.13,1.19-3.34,2.1c-0.37,0.04-2.41-0.02-2.53,0.24c-0.39,0.78-0.62,1.72-0.48,2.35c-0.29,0.26-1.23,0.83-1.19,0.7    c-0.08-0.95-0.4-2.17-0.9-3.01c-0.12-0.2-0.31-0.65-0.56-0.62c-0.53,0.09-0.38,0.34-0.65,0.89c-0.51-0.08-3.08-0.28-3.71-0.49    c-1.24-0.79-2.03-1.84-3.33-2.55c-0.53-0.04-1.05-0.08-1.58-0.11c-0.24-0.2-0.66,0.26-1.26-0.14c-0.42,0.27,0-0.01-0.56,0.14    c-0.68,0.07-1.14-0.07-1.82,0c-1.04-0.17-2.04-0.16-3.08-0.1c-0.28,0.02-0.83-0.05-0.99,0.07c-0.53,0.55-1.06,1.1-1.59,1.65    c-0.4,0.07-1.2,1.28-1.53,1.77c-0.29,0.29-0.71,1.25-1,1.23c-0.39-0.01-1.23-0.11-1.47-0.42c-0.65,0.15-3.13,1-3.22,0.98    c0,0.05,0.46,1.44,0.49,1.89c-0.17,0.29-1.35,1.28-1.47,1.68c-0.93,0.09-3.12,0-3.33,0.92c0.03,1.26,0.03,2.38-0.7,3.21    c-0.1,0.41,0.1,0.49-0.04,1.13c-0.19,0.23-0.23,0.61-0.42,0.84c-0.88,0.44-2.08,0.68-2.15,1.68c-0.08,2.49,0.01,5.19-0.49,7.68    c-0.1,0.49-0.18,2.18-0.45,2.41c0.63,0.92,1.34,1.7,1.6,2.82c0.3,0.16,0.96,0.86,0.78,1.17c0.08,0.37-0.01,0.82,0.07,1.19    c0.41,0.37,0.11,1.68,0.07,2.24c-0.08,1.04-0.61,2.18-1.12,3.08c-0.74,0.23-1.15,0.89-1.82,0.98c-0.27,0.66-0.54,1.33-0.81,1.99    c0.06,0.97,0.36,1.84,1.11,2.51c-0.03,0.32-0.1,0.22,0.14,0.35c0.65,0.34,1.29,0.69,1.94,1.03c0.51-0.05,1.03-0.09,1.54-0.14    c1.03,0.28,2.05,0.56,3.08,0.84c0.38,0.27,0.35,0.73,0.84,0.84c0,0.6,0.7,2.58,0.77,2.8c-0.51,0.48-1.69,0.76-2.45,0.67    c-0.63-0.1-1.37-0.03-1.83-0.53c-0.75-0.1-1.49-0.2-2.24-0.3c-0.27-0.02-1.24-0.17-1.28,0.15c-0.07,0.71-0.54,2.67-0.26,3.23    c-0.09,0.33-0.19,0.65-0.28,0.98c-0.18,0.3-0.72,0.97-0.42,1.25c0.48,0.45,2.41,2.12,2.94,2.11c0.41,0.97,0.84,2.01,0.84,3.08    c0.24,0.28,0.34,0.44,0.7,0.56c0.24,0.48,0.26,1.13,0.7,1.4c-0.06,0.95-0.07,2.24,1.75,3.22c0.46,0.72,0.16,0.84,0.22,1.82    c0.03,0.49,0.36,2.47,0.13,2.81c0.53,0.62,1.06,1.24,1.58,1.86c0.26,0.42,0.05,1.01,0.38,1.37c0,0.33,0,0.65,0,0.98    c-0.24,0.61-0.48,1.22-0.72,1.83c-0.02,0.7,0.43,1.62,0.02,2.23c0.14,0.42,0.28,0.84,0.42,1.26c0.17,0.52,0.75,0.72,0.84,1.26    c1.31,0.65,2.62,1.31,3.92,1.96c0.36,0.27,1.65,0.53,1.82,0.91c0.15,0.35-0.06,1.31-0.14,1.47c-0.75,1.38-2.67,3.04-2.83,4.6    c-0.06,0.59,0.2,1.28-0.11,1.7c0.14,0.11,0.28,0.21,0.42,0.32c0.91,0.61,0.7,1.09,1.47,1.3c0.95-0.19,2.68-0.59,3.63-0.78    c0.07,0.1,0.71,0.48,0.78,0.57c0.34-0.21,0.5-0.91,0.84-1.12c0.22-0.77,0.06-1.33,0.28-2.1c0.73-0.65,2.98-2.55,3.98-1.81    c0.17,0.09,0.33,0.18,0.5,0.27c0.19,0.79,0.37,1.59,0.56,2.38c0.6,0.6,1.39,1.1,2.17,1.46c0.2,0.61,0.87,1.1,1.4,1.44    c0.17-0.08,0.33-0.11,0.24-0.04c-0.1,0.09-0.2,0.18-0.29,0.26c0.61,0.5,1.07,1,1.57,1.62c0.16,0.19,0.4,0.61,0.65,0.58    c0.59-0.01,1.19-0.02,1.78-0.03c0.86,0.2,1.71,0.4,2.57,0.6c0.45,0.03,1.02-0.36,1.4-0.14c0.6-0.31,1.19-0.62,1.79-0.93    c0.53,0.25,1.32,0.43,1.43,1.07c0.53,0.07,1.14-0.13,1.54-0.42c1.19,0.5,2.38,1.01,3.64,1.26c0.81,0.39,1.61,0.79,2.42,1.18    c0.7,0.12,1.39,0.24,2.09,0.36c0.43,0.16,1.28,0.72,1.66,0.56c0.63,0.49,1.19,1.33,1.85,2.18c0.72-1.13,1.36-2.6,2.49-3.45    c0.14-0.65,0.28-1.31,0.42-1.96c0.22-0.52,0.44-1.03,0.66-1.55c0.92-0.54,1.84-1.07,2.75-1.61c0.44-1.02,1.08-1.38,2.05-1.61    c0.09-0.23,0.19-0.47,0.28-0.7c0.49-0.04,0.64-0.6,1.24-0.58c0.37,0.04,0.3,0.1,0.72-0.12c0.68,0.25,2.41,0.01,2.52,0    c0.17-0.34,0.47-0.64,0.28-0.98c0.33-0.16,0.86-0.22,0.98-0.56c0.61,0.15,1.55,0.6,2.1,0.28c0.31,0.22,0.6,0.33,0.7,0.7    c0.5,0.12,1.97,0.23,2.24,0.56c0.65-0.07,1.3-0.14,1.95-0.21c0.62-0.07,1.44-0.04,1.94-0.41c0.97-0.78,1.64-2.24,1.72-3.5    c0.03-0.5,0.47-2.24,0.76-2.53c1.31-1.15,2.73-1.39,4.41-1.44c0.52-0.01,1.03-0.02,1.55-0.03c0.37-0.13,0.74-0.35,1.12-0.28    c0.36-0.27,0.87-0.54,0.98-0.98c0.9-0.4,1.97-0.89,2.52-1.82c1.07-0.37,2.15-0.75,3.22-1.12c0.61-0.1,1.21-0.2,1.82-0.29    c1.43-0.38,2.8-0.3,3.97-1.26c0.46-0.37,1.07-0.9,0.8-1.53c0.23-0.23,0.47-0.47,0.7-0.7c0.96-0.49,1.81-0.72,2.5-1.56    c0.3-0.37,0.27-0.92,0.73-1.1c-0.02-0.04-0.04-0.08-0.07-0.12c-0.43-0.74-1.25-1.86-2.18-1.98c-0.51-0.37-1.03-0.75-1.54-1.12    c-0.28-0.38-0.72-1.5-0.98-1.54c0.11-0.25,0.22-0.49,0.33-0.74c0.17-0.78,0.34-1.56,0.51-2.34c0.28-0.56,0.56-1.12,0.84-1.68    c0.61-0.55,1.57-1.11,1.55-1.97c0-0.83-0.28-1.12-0.7-1.82c0-0.8-0.01-1.69-0.32-2.43c0.11-0.08,0.21-0.15,0.32-0.23    c-0.06-0.03-0.11-0.06-0.17-0.09c-0.48-0.23-1.06-0.8-1.51-0.75c0.06-0.18,0.13-0.36,0.19-0.55c0.54-1.15,2.05-1.95,2.05-3.38    c0-0.33,0.33-0.73,0.21-1c-0.58-1.21-1.43-3-1.75-4.32C147.43,220.98,146.41,219.91,146.03,219.75z"/>
            <circle cx="92.18" cy="207.34" r="1.586"/>
        </g>
        <g id="__Mudurnu">
            <path d="    M147.59,221.63c-0.16-0.65-1.18-1.72-1.56-1.88c-0.54-1.02-1.84-1.09-2.77-1.52c-0.38-0.17-0.76-0.35-1.13-0.52    c-0.22-0.21-0.44-0.43-0.66-0.64c-0.2-0.3-0.4-0.6-0.6-0.9c-0.14-0.89-0.17-2.48-1.12-2.94c-0.14-0.33-0.28-0.65-0.42-0.98    c-0.05-1.87-0.09-3.74-0.14-5.6c1.12-1.33,1.66-3.67,2.8-5.04c0.45-0.46,2.18-1.51,2.17-1.54c-0.22-0.39-0.97-0.73-1.19-1.12    c-0.31-0.16-0.69-0.24-0.84-0.56c-0.39-0.18-0.94-0.3-1.12-0.7c-0.58-0.01-2.54,0.12-2.8,0.42c-0.05-0.15-0.33-0.9-0.42-1.12    c-0.02-0.45-0.05-0.9-0.07-1.35c-1.18-1.43-1.55-1.57-3.24-1.93c-0.29-0.06-0.88-0.54-0.87-0.64c0.13-0.7,0.27-1.4,0.4-2.1    c0.06-0.94,0.12-1.87,0.18-2.81c0.06-0.45-0.06-1.39,0.39-1.68c-0.42-1.65-0.84-3.3-1.27-4.96c-0.29-1.61-2.09-3.22-3.78-3.27    c-0.17-0.21-1.98,0.51-2.78,0.83c-0.22,0.14-0.56,0.26-0.58,0.53c-0.36,0.01-0.72,0.03-1.07,0.04c-0.53-0.15-1.06-0.31-1.59-0.46    c-0.37-0.05-0.75-0.09-1.12-0.14c-0.83-0.38-1.61-0.67-2.52-0.86c-0.51-0.11-1.68-0.48-2.1-0.12c-0.58-0.17-1.7-0.5-2.24-0.14    c-1.55-0.24-2.96-0.84-4.48-0.88c-0.42-0.03-0.84-0.06-1.26-0.1c-0.47-0.12-0.94-0.3-1.4-0.5l-0.14-0.2    c0.54-0.31,0.51-0.94,0.84-1.4c0.28-0.39,0.75-0.49,0.98-0.98c0.56-1.18,0.53-1.69,1.43-2.66c0.13-0.14,0.26-0.28,0.39-0.42    c-0.22-0.13-0.2-0.33-0.28-0.56c-0.79-0.56-1.68-1.14-1.87-2.15c-0.27-1.48,0.32-2.94,0.32-4.43c0-0.44,0.11-1.07-0.11-1.45    c0-0.56-0.03-1.49-0.45-1.91c0.19-0.93,0.37-1.87,0.56-2.8c0.2-0.96,0.81-1.62,0.84-2.66c0.03-1.19-0.46-2.75-0.14-3.92    c0.19-0.72,0.94-1.01,1.36-1.58c0.36-0.49,0.6-0.88,0.6-1.51c0.42-0.42,0.84-0.84,1.26-1.26c0.21-0.39,0.42-0.78,0.63-1.17    c0.26-0.44-0.19-2.72-0.49-3.31c0.96-1.38,1.02-3.05,0.98-4.66c0.05-0.27,0.1-0.53,0.14-0.8c0.3,0.14,0.21,0.08,0.42-0.09    c0.34-0.25,0.92-0.28,1.3-0.1c1.06,0.02,2.12,0.04,3.18,0.06c0.83-0.04,1.66-0.09,2.49-0.13c0.8-0.24,1.61-0.47,2.41-0.71    c0.37,0.05,0.75,0.09,1.12,0.14c1.21-0.14,2.43-0.28,3.64-0.42c0.47-0.12,0.99-0.12,1.4-0.42c0.79-0.79,1.59-1.59,2.38-2.38    c0.98-0.23,1.79-0.45,2.52,0.28c1.17-0.23,2.33-0.47,3.5-0.7c3.87-1.41,7.4-3.55,11.49-4.06c0.38-0.13,0.75-0.27,1.13-0.4    c1.11-0.3,2.85-0.37,3.93-0.19c0.62,0.12,0.85,1.71,1.06,2.39c0.66,2.44,1.32,4.88,1.98,7.32c0.11,0.42,2.05-0.28,2.4-0.33    c0.94-0.36,1.88-0.72,2.82-1.08c1.49,0.19,2.99,0.37,4.48,0.56c0.69,0.69,1.75,0.74,2.52,1.26c0.47,0.37,0.93,0.75,1.4,1.12    c0.23,0.14,0.47,0.28,0.7,0.42c0.56,0.75,1.12,1.49,1.68,2.24c0.09,0.65,0.19,1.31,0.28,1.96c0.3,0.04,0.48,0.48,0.7,0.7    c0.28,0.05,0.56,0.09,0.84,0.14c0.7,0,1.4,0,2.1,0c0.28,0.23,0.56,0.47,0.84,0.7c0.51,0.65,1.66,2.01,2.17,2.66    c0.2,0.2,0.96-1.18,1.26-1.4c0.33-0.56,0.72-1.82,1.05-2.38c0.49-0.91,1.13-1.97,1.9-2.53c0.12-0.08,1.79,0.23,2.16,0.29    c0.28-0.05,0.56-0.09,0.84-0.14c1.86-0.47,2.85,0.92,4.48,1.47c0.77,0.26,2.01-0.06,2.8-0.21c0.42,0.42,0.08,0.61,0.42,0.98    c0.33,0.56,0.65,1.12,0.98,1.68c0.45,0.52,0.24,1.19,0.84,1.54c1.75,0.14,2.27-1.01,2.66-1.4c1.03,0,1.89-0.21,2.8-0.98    c0.24,0.43,1.33,0.46,1.83,0.51c1.7,0.16,3.43-0.24,5.17,0.1c0.14,0.03,0.29,0.06,0.43,0.09c0.02,0.44,0.45,0.75,0.7,1.12    c0.03,0.15,0.06,0.31,0.09,0.46c0.32,0.67-0.24,1.65-0.56,2.18c-0.31,0.24-0.62,0.48-0.94,0.72c-0.83,0.75-1.4,1.67-1.4,2.8    c0,0.74,1.2,1.46,1.82,1.54c0.25,0.45,0.51,0.91,0.76,1.36c0.03,0.57,0.05,1.15,0.08,1.73c0.1,0.02,0.47,0.3,0.56,0.42    c0.16-0.28,1.23-0.84,1.54-0.84c1.04,0,1.41,1.11,1.82,1.96c0.18,0.24,0.36,0.49,0.54,0.73c0.59,0.59,0.69,1.39,1.14,2.07    c0.37,0.51,0.75,1.03,1.12,1.54c0.33,0.28,0.65,0.56,0.98,0.84c0.42,0.17,1.75,0.67,2.17,0.84c0.67,0.24,2.18,0.27,2.73-0.28    c0.51,0.33,1.03,0.65,1.54,0.98c0.19,0.28,0.37,0.56,0.56,0.84c1.13,1.22,2.1,2.35,3.79,2.64c0.53,0.09,1.34-1.24,1.68-1.66    c0.16-0.03,0.6-0.12,0.66-0.13c0.12,0.11,0.25,0.23,0.37,0.34c0.61,0.45,0.8,1.19,0.8,1.89c0.67,0.81,1.34,1.63,2.01,2.44    c0.41,0.14,0.82,0.27,1.23,0.41c0.26,0.16,0.53,0.32,0.79,0.47c0.62,0.41,0.18,0.32,0.45,0.6c0.37,0.37-0.24,1.35-0.36,1.83    c-0.09,0.37-0.62,0.95-0.95,1.23c-0.45,0.57-0.9,1.13-1.35,1.7c-0.82-0.14-1.51,1.23-1.96,1.68c-0.65,0-1.31,0-1.96,0    c-0.61,0.61-0.7,1.59-0.98,2.38c-0.56,0.27-0.84,1.48-0.84,2.1c-0.38,0.34-0.45,0.71-0.51,1.14c-0.17,1,0.9,1.97,1.35,2.8    c0.07,0.33,0.15,0.65,0.22,0.98c0.28,0.55,0.94,0.02,1.32,0.4c0.71,0.71,0.41,0.62,0.7,1.4c0.42,0.42,0.83,0.85,1.25,1.27    c0.05,0.04,0.1,0.09,0.15,0.13c-0.09,0.09-0.19,0.19-0.28,0.28c0.02,0.5-0.75,0.56-1.12,0.84c-0.28,0.28-0.56,0.56-0.84,0.84    c-0.29-0.29-0.99,0.51-1.26,0.72c-0.28,0.32-0.56,0.64-0.84,0.96c-0.3,0-2.16,1.1-2.38,1.4c-0.71,0.95-1.56,1.67-2.39,2.51    c-0.26,0.37-0.52,0.74-0.78,1.11c-0.81,0.74-1.64,1.39-2.57,1.98c-0.27,0.27-0.11,0.76-0.14,1.12c-0.09,1.19-0.22,2.09,0.23,3.24    c0.27,0.72,1.63,1,2.29,1.11c0.14-0.04,0.27-0.08,0.41-0.12c0.85,0.16,1.47,0.52,2.11,1.1c0.36,0.36,0.06,1.22,0,1.68    c0.22,0.37,0.08,0.96,0.14,1.4c0.25,0,0.02,0.73,0,0.98c-0.08,1.08-0.35,2.85-0.42,3.92c-0.77,0.35-0.91-0.07-1.61,0    c-1.94,0.19-3.36-1.26-4.97-1.82c-1.32-0.46-2.21,0.03-3.5,0.28c-1.06,0.2-2.1,0.89-2.94,1.54c-0.47,0.84-0.93,1.68-1.4,2.52    c-0.91,1.3-2.86,1.88-4.2,2.66c-0.7,0.14-1.4,0.28-2.1,0.42c-0.33,0-0.65,0-0.98,0c-0.24-0.24-0.78-0.24-1.12-0.28    c-1.2-0.14-2.59-0.14-3.78,0.14c-0.41-0.06-0.82-0.12-1.23-0.18c-0.24-0.04-1.15,0.22-1.15-0.03c-0.54,0-0.6-0.21-1.12-0.07    c-0.36-0.27-1.44,0.03-1.96,0c-0.61-0.22-1.22-0.44-1.83-0.66c-0.1-0.09-0.2-0.18-0.3-0.28c-0.64-0.19-1.28-0.37-1.92-0.56    c-0.24,0.08-0.48,0.15-0.71,0.23c-0.7,1.12-1.4,2.24-2.1,3.36c-0.23,0.23-0.8,0.24-1.14,0.31c-1.97,0.43-3.7-0.67-5.35-1.47    c-0.42-0.19-0.76,0.15-1.07,0.46c-0.23,0.05-0.47,0.09-0.7,0.14c-0.5-0.3-1-0.6-1.51-0.9c-1.02-0.71-0.01-2.42-1.05-3.1    c-0.77-0.48-2.12,0.21-2.91,0.35c-0.75,0.09-1.49,0.19-2.24,0.28c-0.7-0.09-1.4-0.19-2.1-0.28c-0.48,0.48-2.38,0.7-3.08,0.7    c-0.52-0.32-1.05-0.64-1.57-0.95c-0.55-0.43-1.1-0.86-1.65-1.29c-0.67-0.93-1.33-1.68-2.43-2.05c-0.54-0.13-2.62,1.08-3.32,1.35    c-1.17,0.33-2.34,0.65-3.5,0.98c-0.79,0.42-1.59,0.84-2.38,1.26c-0.7,0.14-1.4,0.28-2.1,0.42c-0.62,0.28-1.24,0.56-1.86,0.84    C147.93,221.63,147.76,221.63,147.59,221.63z"/>
            <circle cx="178.76" cy="188.15" r="1.586"/>
        </g>
        <g id="__Seben">
            <path d="    M227.23,217.36c0.49,1.48-0.21,1.66-0.73,2.98c-0.2,0.43-0.4,0.86-0.6,1.3c-0.15,0.8-0.77,2.14-0.77,2.73    c0.25,0.25,0.26,1.19-0.07,1.61c-0.6,0-1.14,0.72-1.54,1.12c-0.28,0.19-0.56,0.37-0.84,0.56c-0.65,0.51-1.31,1.03-1.96,1.54    c-0.39,0.28-2.13,0.95-1.96,1.12c-1.29,0.85-2.6,1.23-2.94,2.94c-0.14,0.33-0.28,0.65-0.42,0.98c-0.09,0.7-0.18,1.4-0.26,2.1    c0.02,0.39,0.04,0.79,0.06,1.18c0.44,0.36,1.2,1.05,1.76,1.06c0.82,0,1.43-0.56,2.24-0.81c0.42-0.15,0.83-0.3,1.25-0.46    c0.65-0.14,1.31-0.28,1.96-0.42c1.25,0,2.06-0.07,3.08-0.84c1.02,0,3-0.11,3.5-1.12c0.33-0.14,0.65-0.28,0.98-0.42    c0.51-0.14,1.03-0.28,1.54-0.42c0.37,0.14,0.75,0.28,1.12,0.42c0.33-0.42,0.65-0.84,0.98-1.26c0.79-0.14,1.59-0.28,2.38-0.42    c0.77,0.17,0.63,0.42,1.4,0.42c0.24-0.24,1.55-0.96,1.76-0.53c0.52,1.03,1.29,2.27,2.3,2.92c0.34,0.22,1.99,0.7,2.38,0.56    c1.58,0.6,2.99,0.92,4.34,1.96c0,0.3,0.14,1.68,0.29,1.68c0.24,0,0.3,0.36,0.5,0.21c0.62-0.26,1.24-0.52,1.86-0.77    c1.31,0.51,2.62,1.03,3.92,1.54c0.44,0.44,1.54,0.23,1.54,1.12c0.26,0,0.34,0.19,0.59,0.05c0.74-0.34,1.49-0.75,2.36-0.75    c0.47-0.37,0.93-0.75,1.4-1.12c1.21-0.7,2.43-1.4,3.64-2.1c0.89-0.47,1.77-0.93,2.66-1.4c0.7-0.75,1.4-1.49,2.1-2.24    c0.28-0.19,0.56-0.37,0.84-0.56c1.77-0.51,3.55-1.03,5.32-1.54c0.51-0.23,1.03-0.47,1.54-0.7c0.33-0.19,0.65-0.37,0.98-0.56    c0.25-0.35,0.63-0.95,0.97-1.14c1.61-0.92,2.66-1.09,4.08-2.5c0-0.91,1.55-2.63,2.1-3.36c0.23-0.51,0.47-1.03,0.7-1.54    c-0.03-0.73-0.05-1.47-0.08-2.2c0.97-1.31,3.62-2.19,3.72-3.82c-0.93-0.36-1.68-0.71-1.37-1.78c-0.01-0.11-0.02-0.22-0.03-0.32    c0.41-0.08,1.25-0.21,1.04-0.78c-0.23-0.51-0.56-0.86-0.9-1.32c0.09-0.42,0.19-0.84,0.28-1.26c-0.18-1.18-0.03-2.69-1.12-3.37    c-0.82-0.52-2.04-0.81-2.66-1.68c-0.72-1-0.52-2.84-1.12-3.64c0.12-0.64,0.25-1.27,0.37-1.91c0.24-0.96,0.61-1.74,1.31-2.43    c-0.03-0.14-0.05-0.28-0.08-0.42c-0.22-0.76-0.28-1.18-0.76-1.82c0-1.09,0.08-2.34,0.56-3.36c-0.19-0.89-0.37-1.77-0.56-2.66    c0.37-0.51,0.75-1.03,1.12-1.54c0-1.16,0.76-2.31,1.4-3.22c0.09-0.23,0.19-0.47,0.28-0.7c-0.05-0.09-0.09-0.19-0.14-0.28    c0.25-0.39,0.5-0.78,0.74-1.16c0.72-1.49-0.18-2.36,1.3-3.81c0.28-0.25,0.57-0.51,0.85-0.76c1.02-0.52,2.25-0.83,3.42-0.71    c0.71,0.07,1.39,0.2,2.1,0c1.16-0.33,2.16-0.85,3.08-1.54c0.84-0.33,1.68-0.65,2.52-0.98c0.56-0.37,1.12-0.75,1.68-1.12    c1.09-0.49,2.18-0.99,3.27-1.48c0.87-1.16,0.63-4.26,0.24-5.66c-0.25-0.25-0.98-1.27-0.98-1.54c-0.47-0.28-0.93-0.56-1.4-0.84    c-0.33-0.28-0.65-0.56-0.98-0.84c-0.19-0.51-0.37-1.03-0.56-1.54c0.05-0.98,0.09-1.96,0.14-2.94c-0.05-0.56-0.09-1.12-0.14-1.68    c-0.51-0.88-0.91-1.71-1.54-2.52c0-0.51-0.26-0.85-0.52-1.29c-0.2-0.41-0.4-0.82-0.6-1.23c-0.28-0.23-0.56-0.47-0.84-0.7    c-0.05-0.14-0.09-0.28-0.14-0.42c-0.44-0.44-0.75-0.88-1.26-1.26c0-0.41-0.27-0.84-0.7-0.84c-0.39,0.2-0.92,0.32-1.12,0.7    c-0.7,0.09-1.4,0.19-2.1,0.28c-0.37-0.05-0.75-0.09-1.12-0.14c-1.57-0.7-3.05-2.23-3.78-3.78c-1.4-0.85-3.33-1.4-4.9-1.4    c-0.09,0.05-0.19,0.09-0.28,0.14c-0.51,1.03-1.03,2.05-1.54,3.08c-0.12,0.24-0.42,0.98-0.21,1.2c0.61,0.63,1.21,0.36,1.47,0.62    c0.29,0.07,0.59,0.14,0.88,0.21c0.24,0.42,0.78,2.41,0.46,2.8c-0.73,0.77-1.46,1.54-2.18,2.31c-1.2,0.52-2.46,1.06-3.78,1.26    c-2.01,0.05-4.02,0.09-6.02,0.14c-0.38-0.38-1.28-0.56-1.82-0.56c-0.63-0.4-2.08-0.73-2.24-1.54c-0.61-0.05-1.21-0.09-1.82-0.14    c-0.65,0-0.72,1.18-1.68,0.7c-0.09-0.05-0.19-0.09-0.28-0.14c0-0.77-0.73-2.03-1.44-2.29c-0.91-0.33-2.81-0.46-3.28,0.5    c-0.64,1.4-0.47,2.38-0.18,3.9c-0.69,0.69,0.03,1.91,0.17,2.66c0.09,0.48-0.01,0.85,0.25,1.26c-0.27,0.48-0.45,0.86-0.56,1.4    c-0.89,1.12-1.77,2.24-2.66,3.36c-0.23,0.09-0.47,0.19-0.7,0.28c-0.47,0.29-0.83,0.62-1.4,0.7c-0.65-0.05-1.31-0.09-1.96-0.14    c-0.32-0.43-0.65-0.86-0.97-1.29c-1.04-0.18-1.91,0.09-2.95,0.03c-0.42-0.05-0.84-0.09-1.26-0.14c-0.48,0.05-1.33,0.56-1.54,0.56    c-0.53,0.44-1.07,0.89-1.6,1.33c-0.3,0.37-0.44,1.03-0.92,1.19c-0.5,0.84-0.74,1.59-0.98,2.52c-0.12,0.45,0.21,0.81-0.31,1.06    c-0.26,0.08-0.53,0.17-0.79,0.25c-0.8,0.4-1.6,0.81-2.4,1.21h-0.14c0.37,0.37-0.24,1.35-0.36,1.83c-0.09,0.37-0.62,0.95-0.95,1.23    c-0.45,0.57-0.9,1.13-1.35,1.7c-0.82-0.14-1.51,1.23-1.96,1.68c-0.65,0-1.31,0-1.96,0c-0.61,0.61-0.7,1.59-0.98,2.38    c-0.56,0.27-0.84,1.48-0.84,2.1c-0.38,0.34-0.45,0.71-0.51,1.14c-0.17,1,0.9,1.97,1.35,2.8c0.07,0.33,0.15,0.65,0.22,0.98    c0.28,0.55,0.94,0.02,1.32,0.4c0.71,0.71,0.41,0.62,0.7,1.4c0.42,0.42,0.83,0.85,1.25,1.27c0.05,0.04,0.1,0.09,0.15,0.13    c-0.09,0.09-0.19,0.19-0.28,0.28c0.02,0.5-0.75,0.56-1.12,0.84c-0.28,0.28-0.56,0.56-0.84,0.84c-0.29-0.29-0.99,0.51-1.26,0.72    c-0.28,0.32-0.56,0.64-0.84,0.96c-0.3,0-2.16,1.1-2.38,1.4c-0.71,0.95-1.56,1.67-2.39,2.51c-0.26,0.37-0.52,0.74-0.78,1.11    c-0.81,0.74-1.64,1.39-2.57,1.98c-0.27,0.27-0.11,0.76-0.14,1.12c-0.09,1.19-0.22,2.09,0.23,3.24c0.27,0.72,1.63,1,2.29,1.11    c0.14-0.04,0.27-0.08,0.41-0.12c0.85,0.16,1.47,0.52,2.11,1.1c0.36,0.36,0.06,1.22,0,1.68c0.22,0.37,0.08,0.96,0.14,1.4    c0.25,0,0.02,0.73,0,0.98c-0.08,1.08-0.35,2.85-0.42,3.92L227.23,217.36z"/>
            <circle cx="252.73" cy="204.4" r="1.586"/>
        </g>
        <g id="__Kıbrıscık">
            <path d="    M277.74,231.02c0.25-0.35,0.63-0.95,0.97-1.14c1.61-0.92,2.66-1.09,4.08-2.5c0-0.91,1.55-2.63,2.1-3.36    c0.23-0.51,0.47-1.03,0.7-1.54c-0.03-0.73-0.05-1.47-0.08-2.2c0.97-1.31,3.62-2.19,3.72-3.82c-0.93-0.36-1.68-0.71-1.37-1.78    c-0.01-0.11-0.02-0.22-0.03-0.32c0.41-0.08,1.25-0.21,1.04-0.78c-0.23-0.51-0.56-0.86-0.9-1.32c0.09-0.42,0.19-0.84,0.28-1.26    c-0.18-1.18-0.03-2.69-1.12-3.37c-0.82-0.52-2.04-0.81-2.66-1.68c-0.72-1-0.52-2.84-1.12-3.64c0.12-0.64,0.25-1.27,0.37-1.91    c0.24-0.96,0.61-1.74,1.31-2.43c-0.03-0.14-0.05-0.28-0.08-0.42c-0.22-0.76-0.28-1.18-0.76-1.82c0-1.09,0.08-2.34,0.56-3.36    c-0.19-0.89-0.37-1.77-0.56-2.66c0.37-0.51,0.75-1.03,1.12-1.54c0-1.16,0.76-2.31,1.4-3.22c0.09-0.23,0.19-0.47,0.28-0.7    c-0.05-0.09-0.09-0.19-0.14-0.28c0.25-0.39,0.5-0.78,0.74-1.16c0.72-1.49-0.18-2.36,1.3-3.81c0.28-0.25,0.57-0.51,0.85-0.76    c1.02-0.52,2.25-0.83,3.42-0.71c0.71,0.07,1.39,0.2,2.1,0c1.16-0.33,2.16-0.85,3.08-1.54c0.84-0.33,1.68-0.65,2.52-0.98    c0.56-0.37,1.12-0.75,1.68-1.12c1.09-0.49,2.18-0.99,3.27-1.48l-0.04,0.08c0.23,0.05,0.47,0.09,0.7,0.14    c0.33-0.05,0.65-0.09,0.98-0.14c0.19,0.03,0.42,0.08,0.42,0.28c0.98,0.14,1.96,0.28,2.94,0.42c1.12,0.93,2.24,1.87,3.36,2.8    c0.93-0.75,1.87-1.49,2.8-2.24c0.09,0.09,0.19,0.19,0.28,0.28c-0.35,0.35,0.14,0.69,0.14,1.12c0.7,1.68,1.4,3.36,2.1,5.04    c1,1,2.29,1.03,3.22,1.96c1.44,0,2.76,0.14,4.2,0c0.98,0.09,1.96,0.19,2.94,0.28c1-0.12,1.88-0.42,2.8-0.7    c0.14,0.05,0.28,0.09,0.42,0.14c0.14-0.05,0.28-0.09,0.42-0.14c0.84,0.28,1.68,0.56,2.52,0.84c0.19,0.09,0.37,0.19,0.56,0.28    c0.42,0.42,0.84,0.84,1.26,1.26c0,0.69,1.32,1.96,1.96,1.96c0.37,0.33,0.75,0.65,1.12,0.98c0.05-0.05,0.09-0.09,0.14-0.14    c0.34,0.34,0.91,0.53,1.39,0.72c0.47,0.19,1.2,0.12,1.41,0.26c0.33,0.28,0.65,0.56,0.98,0.84c0.52,0.36,1.06,0.36,1.54,0.84    c0.47,1.45,0,3.15,0,4.62c-0.28,0.28-0.42,0.74-0.42,1.12c-0.33,0.48-0.7,0.94-0.7,1.54c-0.42,0.47-0.84,0.93-1.26,1.4    c0.24,0.59,0.49,1.19,0.73,1.78c0.77,1.04,2.07,1.77,2.07,3.12c-0.5,0.76-0.98,1.45-0.98,2.38c-0.45,0.29-0.7,0.7-0.7,1.26    c-0.51,0.42-1.03,0.84-1.54,1.26c0,0.36-0.94,1.12-1.26,1.12c-0.47,0.56-0.93,1.12-1.4,1.68c-0.09,0.28-0.19,0.56-0.28,0.84    c0,0.62-0.28,1.29-0.28,1.82c-0.14,0.09-0.28,0.19-0.42,0.28c0,0.52-0.58,1.12-1.12,1.12c-0.28,0.28-0.71,0.56-1.12,0.56    c-0.42,0.28-0.84,0.56-1.26,0.84c-0.55,0.55-0.47,1.4-0.84,1.96c-0.28,0.19-0.56,0.37-0.84,0.56c-1.07,0.33-2.15,0.65-3.22,0.98    c-0.19-0.05-0.37-0.09-0.56-0.14c-0.51,0-1.03,0-1.54,0c-0.62-0.32-1.24-0.65-1.86-0.97c-0.41,0-0.81-0.01-1.22-0.01    c-0.51,0.23-1.03,0.47-1.54,0.7c-0.75,0.98-1.49,1.96-2.24,2.94c-1.1,0-2.09,0.66-2.94,1.4c-0.31,0.27-1.82,2.07-1.82,2.38    c-1.08,1.04-2.09,1.84-3.36,2.52c0,1.96-1.61,2.8-3.36,2.8c-0.75,0.75-1.18,0.98-2.24,0.98c-0.95-0.47-1.61-1.37-2.38-2.1    c-0.41,0-0.9-0.31-1.26-0.56c0-0.58-0.39-0.98-0.98-0.98c-0.23,0.56-0.47,1.12-0.7,1.68c-0.14,0.09-0.28,0.19-0.42,0.28    c-0.42-0.14-0.84-0.28-1.26-0.42c-0.42-0.05-0.84-0.09-1.26-0.14c-0.27-0.08-0.29-0.17-0.4-0.42c-0.75-0.27-1.29-0.56-1.84-1.12    c-0.65,0-1.27-0.58-1.85-0.92c-1.06-0.62-2.4-1.09-3.33-2.02c-0.66,0-1.1-0.26-1.68-0.42c-0.32-0.09-0.58,0.12-0.84-0.14    c-0.32,0-0.9-0.06-1.12-0.28c-0.35,0.35-0.5,0.84-1.12,0.84c-0.61,0.61-0.26,2.99-0.42,3.92c-0.05,0.23-0.09,0.47-0.14,0.7    c-0.14,0.19-0.28,0.37-0.42,0.56c-0.37-0.05-0.75-0.09-1.12-0.14c-0.77,0.77-1.92-0.04-2.94,0.98c-0.68-0.02-1.05-0.07-1.54,0.42    c-0.7,0-1.42,0.39-1.82,0.98c-0.51,0.33-1.03,0.65-1.54,0.98c-0.51,0-1.75,0.22-2.1-0.14c0.07-0.25-0.03-0.34-0.14-0.56    c0.16-0.16,0.7-0.16,0.7,0.14c0.14-0.09,0.28-0.19,0.42-0.28c0-0.44-0.3-0.65-0.28-1.12c0.28-0.28,0.56-0.56,0.84-0.84    L277.74,231.02z"/>
            <circle cx="309.19" cy="204.68" r="1.586"/>
        </g>
        <g id="__Dörtdivan">
            <path d="    M345.82,205.52c0-0.94,0.48-1.62,0.98-2.38c0-1.35-1.3-2.08-2.07-3.12c-0.24-0.59-0.49-1.19-0.73-1.78    c0.42-0.47,0.84-0.93,1.26-1.4c0-0.61,0.37-1.06,0.7-1.54c0-0.38,0.14-0.84,0.42-1.12c0-1.48,0.47-3.17,0-4.62    c-0.48-0.48-1.02-0.48-1.54-0.84c-0.33-0.28-0.65-0.56-0.98-0.84c-0.22-0.15-0.94-0.08-1.41-0.26c-0.48-0.19-1.04-0.37-1.39-0.72    c-0.05,0.05-0.09,0.09-0.14,0.14c-0.37-0.33-0.75-0.65-1.12-0.98c-0.64,0-1.96-1.27-1.96-1.96c-0.42-0.42-0.84-0.84-1.26-1.26    c-0.19-0.09-0.37-0.19-0.56-0.28c-0.84-0.28-1.68-0.56-2.52-0.84c-0.14,0.05-0.28,0.09-0.42,0.14c-0.14-0.05-0.28-0.09-0.42-0.14    c-0.92,0.28-1.8,0.58-2.8,0.7c-0.98-0.09-1.96-0.19-2.94-0.28c-1.44,0.14-2.76,0-4.2,0c-0.93-0.93-2.23-0.97-3.22-1.96    c-0.7-1.68-1.4-3.36-2.1-5.04c0-0.43-0.49-0.77-0.14-1.12c-0.09-0.09-0.19-0.19-0.28-0.28c-0.93,0.75-1.87,1.49-2.8,2.24    c-1.12-0.93-2.24-1.87-3.36-2.8c-0.98-0.14-1.96-0.28-2.94-0.42c0-0.21-0.23-0.25-0.42-0.28c-0.33,0.05-0.65,0.09-0.98,0.14    c-0.23-0.05-0.47-0.09-0.7-0.14l0.04-0.08c0.87-1.16,0.63-4.26,0.24-5.66c-0.25-0.25-0.98-1.27-0.98-1.54v0.28    c-0.19-1.38,1.01-3.88,2.1-4.62c0-0.46,0.5-1.2,0.84-1.54c0.42-1.03,0.84-2.05,1.26-3.08c0.15-0.66,0-1.16,0-1.82    c0.14-0.19,0.28-0.37,0.42-0.56c0.23-0.09,0.47-0.19,0.7-0.28c0.51-0.42,1.03-0.84,1.54-1.26c0-0.78,0.71-1.2,1.12-1.82    c0.44-0.67,0.47-1.03,1.12-1.68c0-0.6,0.68-1.2,1.12-1.54c0.28-0.65,0.56-1.31,0.84-1.96c0.37-0.33,0.75-0.65,1.12-0.98    c0.52,0.27,1.01-0.27,1.4-0.56c0.54,0,1.44-0.46,1.82-0.84c0.33-0.05,0.65-0.09,0.98-0.14c0.09,0.05,0.19,0.09,0.28,0.14    c0.75-0.37,1.51-0.74,2.26-1.1c0.83-0.24,1.67-0.48,2.5-0.72c0.24-0.8,0.77-0.42,1.4-0.56c0.28-0.05,0.56-0.09,0.84-0.14    c0.64-0.49,2.9-1.96,3.64-1.96c1.23-1.46,1.49-3.52,3.08-4.62c0.37-0.89,0.75-1.77,1.12-2.66c-0.11-1.8,0.93-4.17,1.82-5.6    c-0.49-0.34-0.56-2.13-0.56-2.8c0-0.31-0.48-0.53-0.7-0.7c-0.42,0.07-2.65-1.14-3.22-1.4c-0.33,0.32-1.01,0.35-1.38,0.1    c-0.3-0.2-0.37-0.43-0.52-0.75c-0.07-0.16-0.13-0.32-0.2-0.48c0.48-0.19,0.34-0.76,0.7-1.12c0.98-1.4,0.64-1.49,1.96-2.45    c0.28-0.14,1.96-1.19,2.24-1.33c1.2-0.32,2.02-1.09,3.11-1.65c0.8-0.21,1.59-0.41,2.39-0.62c0.64-0.04,1.28-0.08,1.93-0.11    c0.28-0.09,0.56-0.19,0.84-0.28c1.21,0.19,2.43,0.37,3.64,0.56c1.2-0.76,2.57-1.04,3.92-1.4c0.61-0.33,1.21-0.65,1.82-0.98    c0.56-0.56,1.12-1.12,1.68-1.68c1.06-0.19,1.21-0.63,2.31-0.77l-0.21-0.07c0.19,0.14,0.38,0.28,0.56,0.42    c0.65,0.42,1.31,0.83,1.96,1.25c0.59,0.52,1.47,1.42,1.54,2.25c0.52,0.63,1.03,1.26,1.55,1.89c0.28,0.58,0.55,1.17,0.83,1.76    c0.19,0.19,0.37,0.37,0.56,0.56c0.11,0.5,0.21,1,0.32,1.5c0.31,0.34,0.63,0.68,0.95,1.02c0,0.73,0.69,1.22,0.98,1.82    c0.07,0.28,0.14,0.57,0.21,0.85c0.02,0.56,0.05,1.11,0.07,1.67c0.14,0.61,0.28,1.21,0.42,1.82c0.05,0.37,0.09,0.75,0.14,1.12    c0,1.26,0,2.52,0,3.78c0.15,0.65,0.89,1.08,1.4,1.4c0.38,0.96,0.61,1.97,1.26,2.8c0.43,0,1.09,0.69,1.37,1    c1.11,1.22,1.39,1.27,1.71,2.92c-0.14,0.33-0.28,0.65-0.42,0.98c-0.47,0.79-0.93,1.59-1.4,2.38c-0.09,1.12-0.19,2.24-0.28,3.36    c-0.29,0.64-0.3,0.89-0.42,1.54c-0.14,0.33-0.28,0.65-0.42,0.98c-0.09,0.61-0.19,1.21-0.28,1.82c-0.19,0.37-0.37,0.75-0.56,1.12    c-0.37,0.33-0.75,0.65-1.12,0.98c-0.37,0.47-0.75,0.93-1.12,1.4c-0.05,0.75-0.09,1.49-0.14,2.24c-0.09,0.28-0.19,0.56-0.28,0.84    c0,0.79,0,1.58,0,2.37c-0.14,1.26-0.28,2.53-0.42,3.79c-0.14,0.33-0.28,0.65-0.42,0.98c-0.09,0.65-0.19,1.31-0.28,1.96    c-0.12,0.75-0.52,1.26-0.16,2.1c0.23,0.57,1.97,1.81,2.55,1.83c0.6,0.02,1.6-0.08,2.09-0.57c1.07-0.05,2.15-0.09,3.22-0.14    c0.44-0.04,0.79,0.05,1.12-0.28c1.71,0.75,3.13,0.67,4.9,0.28c0.56-0.23,1.12-0.47,1.68-0.7c0.28,0,0.56,0,0.84,0l0.77,0.42    c-1.89,0.98-3.86,1.73-5.25,3.36c-0.02,0.6-0.51,1.18-0.84,1.68c-0.09,0.56-0.19,1.12-0.28,1.68c0,0.99-0.05,2.15-0.7,2.94    c-1.03,1.17-2.05,2.33-3.08,3.5c-0.31,0.21-0.62,0.43-0.93,0.64c-0.99,0.93-2.07,1.95-3.27,2.58c-0.76,0.98-1.52,1.96-2.28,2.94    c-0.22,0.31,0.11,1.99,0.01,2.55c0.23,0.82,0.8,0.95,1.57,1.09c0.94,0.94,2.63-0.03,3.57,1.03c0.22,1.43,0.44,2.85,0.66,4.28    c0.12,0.46-0.45,0.97-0.86,1.41c-0.25,0.37-0.49,0.74-0.74,1.1c-0.27,0.43-0.53,0.85-0.8,1.28c-0.64,0.78-1.78,1.1-2.66,1.54    c-0.61,0.12-1.22,0.25-1.83,0.37c-1.61,0.29-3.12,0.62-4.76,0.83c-2.37,0.31-4.49-0.43-6.85-0.5c-1.37-0.04-2.62,0.16-3.92,0.56    c-0.11,0.49-0.8,0.6-1.11,0.84c-1.01,0.79-1.68,1.57-2.78,2.23L345.82,205.52z"/>
            <circle cx="353.18" cy="121.46" r="1.586"/>
        </g>
        <g id="__Gerede">
            <path d="    M404.66,80.13c-0.95,1.42-2.66,1.77-4.33,2.04c-1.73,0.36-3.46,0.73-5.18,1.09c-1.36,0.5-2.72,0.99-4.08,1.49    c-1.12-0.14-2.24-0.28-3.36-0.42c-0.78,0.04-1.73-0.01-2.43,0.39c-0.49,0.04-0.99,0.08-1.48,0.13c-2.87,0.8-4.87,2.96-8.12,2.12    c-0.9-0.46-1.79-0.91-2.69-1.37c0.1-0.98-1.05-1.71-1.79-2.15c-0.33-0.19-1.04-0.39-1.71-0.53l0.05,0.12    c-0.16,0.1-0.32,0.2-0.47,0.31c0,0.72-0.42,1.4-0.84,1.96c-0.19,0.47-0.37,0.93-0.56,1.4c-0.53,0.58-1.99,1.83-1.54,2.66    c-0.14,0.28-0.28,0.56-0.42,0.84c-0.22,1.35,0.01,2.64,0.14,3.92c0.12,1.1,0.78,1.67,0.17,2.72c-0.3,0.5-0.68,0.84-1.15,1.2    c0.22,0.22-0.12,1.11-0.43,1.13c-1.06,0.03-2.18,0.45-3.21,0.83c-0.21,0.32-0.42,0.63-0.63,0.95c-0.39,0.64-1.76,2.59-1.76,3.26    c0.23,0.61,0.47,1.21,0.7,1.82c0,0.37,0,0.75,0,1.12c-0.48,0.15-0.91,0.46-1.4,0.42c0.19,0.14,0.38,0.28,0.56,0.42    c0.65,0.42,1.31,0.83,1.96,1.25c0.59,0.52,1.47,1.42,1.54,2.25c0.52,0.63,1.03,1.26,1.55,1.89c0.28,0.58,0.55,1.17,0.83,1.76    c0.19,0.19,0.37,0.37,0.56,0.56c0.11,0.5,0.21,1,0.32,1.5c0.31,0.34,0.63,0.68,0.95,1.02c0,0.73,0.69,1.22,0.98,1.82    c0.07,0.28,0.14,0.57,0.21,0.85c0.02,0.56,0.05,1.11,0.07,1.67c0.14,0.61,0.28,1.21,0.42,1.82c0.05,0.37,0.09,0.75,0.14,1.12    c0,1.26,0,2.52,0,3.78c0.15,0.65,0.89,1.08,1.4,1.4c0.38,0.96,0.61,1.97,1.26,2.8c0.43,0,1.09,0.69,1.37,1    c1.11,1.22,1.39,1.27,1.71,2.92c-0.14,0.33-0.28,0.65-0.42,0.98c-0.47,0.79-0.93,1.59-1.4,2.38c-0.09,1.12-0.19,2.24-0.28,3.36    c-0.29,0.64-0.3,0.89-0.42,1.54c-0.14,0.33-0.28,0.65-0.42,0.98c-0.09,0.61-0.19,1.21-0.28,1.82c-0.19,0.37-0.37,0.75-0.56,1.12    c-0.37,0.33-0.75,0.65-1.12,0.98c-0.37,0.47-0.75,0.93-1.12,1.4c-0.05,0.75-0.09,1.49-0.14,2.24c-0.09,0.28-0.19,0.56-0.28,0.84    c0,0.79,0,1.58,0,2.37c-0.14,1.26-0.28,2.53-0.42,3.79c-0.14,0.33-0.28,0.65-0.42,0.98c-0.09,0.65-0.19,1.31-0.28,1.96    c-0.12,0.75-0.52,1.26-0.16,2.1c0.23,0.57,1.97,1.81,2.55,1.83c0.6,0.02,1.6-0.08,2.09-0.57c1.07-0.05,2.15-0.09,3.22-0.14    c0.44-0.04,0.79,0.05,1.12-0.28c1.71,0.75,3.13,0.67,4.9,0.28c0.56-0.23,1.12-0.47,1.68-0.7c0.28,0,0.56,0,0.84,0    c0.23-0.09,0.47-0.19,0.7-0.28c0.79-0.37,1.59-0.75,2.38-1.12c0.61-0.18,2.29-0.06,2.94,0c0.61-0.05,1.21-0.09,1.82-0.14    c0.62-0.31,1.54-0.8,1.54-1.54c0.62-0.15,1.17,0.1,1.68,0c1.03-0.47,2.05-0.93,3.08-1.4c0.37-0.42,0.75-0.84,1.12-1.26    c0.74,0,1.22-0.28,1.77-0.74c0.98-0.39,1.97-0.77,2.96-1.16c0.64-0.25,1.28-0.5,1.91-0.75c0.3-0.24,0.61-0.48,0.92-0.73    c1.11-0.11,4.85,0.61,5.51,1.4c0.55,0.85,1.1,1.69,1.65,2.54c0.1,0.44,0.05,0.86,0.42,1.12c-0.28,0.63-0.47,1.13-0.56,1.82    c0.16,0.59,0.32,1.18,0.47,1.77c0.31,0.81,1.42,1.82,2.23,1.97c1.44,0.24,2.43-1.58,3.88-1.5c0.31,0.31,1.88,1.34,2.24,1.21    c1.13-0.34,1.66-1.44,2.67-2.05c1.29,0,3.32,0.2,4.34-0.7c0.54-0.48,0.53-1.42,0.98-1.75c0.93-0.52,3.13-0.06,3.56-1.03    c0.2-0.39,0.93-1.98,0.86-2.22c-0.37-0.99-0.74-1.06-1.61-1.45c-0.28-0.19-0.56-0.37-0.84-0.56c-0.35-0.44-0.65-0.82-0.98-1.26    c-0.83-1.1-1.03-3.99-0.7-5.32c0.05-0.56,0.09-1.12,0.14-1.68c-0.84-0.93-1.68-1.87-2.52-2.8c-1-1.22-1.78-3.74-1.96-5.32    c0.06-0.61,0.12-1.21,0.18-1.82c0.11-0.84-0.04-1.57-0.04-2.39c0.15-0.12,0.3-0.23,0.46-0.35c0.74-0.49,1.49,0.19,2.06-0.91    c0.24-0.42,0.47-0.84,0.71-1.27c0-0.14,0-0.28,0-0.42c-0.29-0.48-0.76-1.23-0.7-1.82c0.04-0.33,0.08-0.65,0.12-0.98    c-0.05-0.37-0.29-0.94-0.14-1.2c0.24-0.4,0.22-0.66,0.71-0.58c0.58,0.1,2.33,0.73,2.81,0.25c0.33,0.14,0.65,0.28,0.98,0.42    c0.42-0.02,1.72-0.24,1.88,0.12c0.25,0.52,0.77,1.67,1.36,1.75c0.65,0.03,1.3,0.06,1.95,0.1c0.64-0.07,1.28-0.13,1.91-0.2    c0.76,0.12,1.6,0.05,2.29-0.36c0-0.29,0.05-0.48-0.14-0.7c0.23-1.03,0.47-2.05,0.7-3.08c-0.06-1.39-0.12-2.78-0.18-4.17    c0.31-1.03,0.77-2.14,1.44-2.97c0.24-0.56,0.47-1.11,0.71-1.67c0.23-0.33,0.46-0.66,0.69-0.99c1.66-1.2,2.48-1.46,4.47-1.72    c0.68-0.09,1.35-0.18,2.03-0.28c0.02,0.08,0.04,0.17,0.06,0.25c1.05,0.17,1.33-0.47,2.18-0.91c0.5-0.15,0.99-0.29,1.49-0.44    c0.21-0.21,0.7-0.39,0.7-0.7c0.19-0.75,0.37-1.49,0.56-2.24c0-0.42,0-0.84,0-1.26c0-1.28-0.02-2.49,0.51-3.67    c0.23-0.51,2.02-2.25,1.66-2.73c-1.27-1.71-1.99-3.7-2.63-5.77c0.01-0.85,0.03-1.69,0.04-2.54c0.47-0.29,1.4-0.52,1.4-1.12    c-0.02-0.4-0.16-2.38-0.7-2.38c-1.4-0.57-2.27-0.31-3.5-1.54c-0.25-0.25-0.49-0.5-0.56-0.84c-0.62-0.24-1.36-0.47-1.82-0.98    c-0.68,0.2-2.02,0.63-2.45-0.05c-0.99-1.66-0.32-3.6-0.77-5.42c-0.33-0.7-0.65-1.4-0.98-2.1c-0.09-0.79-0.19-1.59-0.28-2.38    c-0.2-0.6-0.39-1.2-0.59-1.8c-0.18-0.89-1.07-3.78-2.09-3.61c-1.9,0.31-4.29,0.43-5.73,1.91c-0.33,0.23-0.65,0.47-0.98,0.7    c-1.25,0.53-2.21,1.2-3.22,2.1c-0.56,0.23-1.12,0.47-1.68,0.7c-0.61,0.19-1.21,0.37-1.82,0.56c-1.38,0.51-4.34,1.18-5.32,2.1    c-0.36,0.07-0.87,0.03-1.12,0.28c-2.02-0.13-3.93,0.2-5.9,0.47c-0.65,0.03-1.3,0.06-1.95,0.09c-1.45-0.14-2.9-0.28-4.34-0.42    c-1.33-0.19-2.35-1.1-3.61-1.39c-0.99-0.33-1.98-0.66-2.98-0.99L404.66,80.13z"/>
            <circle cx="380.78" cy="99.75" r="1.586"/>
        </g>
        <g id="__Mengen">
            <path d="    M404.66,80.13c-0.58-0.27-1.2-0.59-1.31-1.26c-0.07-0.51-0.15-1.02-0.22-1.53c0.04-0.33,0.09-0.67,0.13-1    c0.82-1.31,1.31-3.09,2.94-3.61c1.77-0.56,3.69-0.5,5.33-1.44c0.51-0.51,1.03-1.02,1.54-1.54c1.05-0.98,2.08-1.92,2.92-2.96    c0.76-0.94,2.95-4.21,3.94-4.68c0.43-0.71-0.17-0.11-0.64-0.81c-0.73-1.14-0.71-2.06-1-3.31c-0.11-0.52-0.21-1.03-0.32-1.55    c0-0.55,0.14-1.94-0.45-2.17c-1.29-0.44-2.19-0.27-3.3,0.51c-0.21,0.15-0.72,0.26-0.73,0.53c-0.52,0.19-1.03,0.37-1.55,0.56    c-0.43,0.2-1.51,0.73-1.95,0.7c-0.4,0.75-1.18,1.68-2.1,1.68c-0.19-0.09-0.37-0.19-0.56-0.28c-0.39,0.05-0.98,0.25-1.3,0    c-0.5-0.44-0.55,0.14-0.5-0.7c0.05-0.8,0.43-1.48,0.69-2.24c0.15-0.46,0.3-0.92,0.45-1.38c0.14-0.33,0.27-0.67,0.41-1    c0.32-0.98,0.64-1.97,0.96-2.95c0.22-1.17,0.24-2.39,0.73-3.55c0.75-0.93,1.51-1.85,2.26-2.78c0.17-0.23,0.64-0.7,0.48-1.02    c-0.62-1.03-1.64-1.64-2.5-2.45c-1.18-1.11-2.73-2.25-4.33-2.67c-0.47-0.01-0.93-0.02-1.4-0.04c-0.98-0.17-1.97-0.33-2.95-0.5    c-1.03,0.04-2.05,0.08-3.08,0.11c-0.79-0.06-3.33-0.43-3.92,0c-0.36,0.02-0.82-0.06-1.12,0.14c-1.49-0.09-2.99-0.19-4.48-0.28    c-2.1-0.75-4.2-1.49-6.3-2.24c-0.61-0.23-1.21-0.47-1.82-0.7c-1.36-0.51-2.71-1.03-4.07-1.54c-0.45,0.01-1.24,0.13-1.45,0.53    c-0.62,1.2-0.79,4.56-2.25,4.51c-1.78,0.02-4.32-0.1-6.1-0.08c-0.59,0.03-1.58,0.28-1.68,0.22c-0.02,0.09-0.63,3.99-0.98,4.97    c-0.51,0.18-1.89,0.38-2.39,0.56c-0.7,0.07-1.39,0.14-2.09,0.21c-0.33-0.05-0.65-0.09-0.98-0.14c-0.93-0.29-1.85-0.57-2.78-0.86    c-1.83-0.15-2.7-0.94-4.18-1.85c-0.34-0.22-1.22-0.75-1.45-0.79c-0.51,0.23-0.89,0.75-1.4,0.98c-0.33-0.09-1.07-0.47-1.4-0.56    c-1.24-0.57-2.48-1.15-3.72-1.73c-0.54-0.36-1.07-0.72-1.61-1.08c-0.51-0.42-1.03-0.84-1.54-1.26c-0.59-0.43-0.61-1.02-1.4-1.12    c-0.47-0.47-0.93-0.93-1.4-1.4c-0.33-0.14-0.65-0.28-0.98-0.42c-2.97,0.09-5.5,1.26-7.43,3.5c-0.23,0.61-0.47,1.21-0.7,1.82    c-0.58,0.87-0.89,1.65-1.47,2.52c-0.33,0.53-0.32,1.61-1.05,1.61c-0.7,0.04-3.9,0.09-4.34-0.35c-0.36,0.16-0.74,0.46-1.12,0.42    c-0.36,0.27-0.64,0.75-1.1,0.84c-1.03,0.21-1.82-0.07-2.83-0.21c-0.65-0.03-1.3-0.06-1.95-0.1c-0.93-0.04-1.87-0.08-2.8-0.11    c-0.33,0-0.77-0.11-0.95,0.18c-0.38,0.64-0.35,1.28-0.73,1.92c-0.74,0.43-1.33,0.91-2.31,1.12c-0.8,0.58-2.52,2.31-3.92,3.5    c-0.23,0.09-1.53,0.9-1.82,1.19c-0.4,0.45-0.63,0.35-1.19,0.63c-0.27,0.36-0.56,0.49-0.84,0.84c-0.77,0.91-2.17,1.19-3.15,2.38    c-0.28,0.37-0.28,1.03-0.56,1.4c-0.73,0.68-1.89,1.75-3.15,3.08c-0.3,0.34-1.88,2.03-1.79,2.36c0.14,0.51,0.79,2.98,0.53,3.24    c0.35-0.01,0.36,0.14,0.49,0.44c0.73,0.42,0.7,0.5,1.11,1.28c1.47,0.69,2.27,3.43,3.72,4.44c0.09,0.47,0.19,0.93,0.28,1.4    c-0.05,0.33-0.37,0.72-0.17,0.99c0.42,0.57,1.06,0.71,1.71,0.97c0.62,0.31,1.24,0.61,1.86,0.92c0.58,0.18,1.16,0.36,1.73,0.54    c0.48,0.35,0.97,0.71,1.45,1.06c0.25,1.26,0.62,2.44,1.12,3.64c0.14,0.23,0.28,0.47,0.42,0.7c0.14,0.09,0.28,0.19,0.42,0.28    c0.23,0.42,0.47,0.84,0.7,1.26c0.25,0.38,0.35,1.89,1,1.62c0.28-0.11,0.26-0.02,0.4-0.35c0.59-0.13,0.75-0.21,1.12-0.7    c0.88-0.32,1.79-0.14,2.65-0.15c0.32-0.01,1.49-0.14,1.58,0.28c0.32,1.51-0.28,1.89-0.45,3.23c-0.05,0.42-0.09,0.84-0.14,1.26    c0.51,1.21,1.55,2.06,1.68,3.36c0.04,0.37-0.21,0.99,0,1.26c-0.14,0.37-0.28,0.75-0.42,1.12c-0.19,0.28-0.44,0.49-0.37,0.81    c0.12,0.21,0.23,0.42,0.35,0.63c1.12,0.38,3.22,1.02,4.36,0.67c0.51-0.16,1.01,0.03,1.4-0.4c0.09-0.05,0.19-0.11,0.28-0.16    c0.4-0.69,1.56-2.82,2.24-2.8c2.87,0,5.93,0.39,8.54-1c0.52-0.28,1.03-0.55,1.55-0.83c0.55-0.06,1.09-0.11,1.64-0.17    c0.44-0.14,0.88-0.29,1.32-0.43c0.43-0.24,0.85-0.47,1.28-0.7c0.55-0.15,1.11-0.3,1.66-0.45c0.49-0.18,1.61-0.44,2.09-0.21    c0.33-0.09,0.65-0.19,0.98-0.28c0.63-0.38,1.58-0.8,1.82-1.54c1.7-0.91,3.73-1.52,5.63-1.8c1.08-0.16,2.14,0.2,3.2,0.4    c0.85-0.09,1.7-0.19,2.55-0.28c0.44-0.07,0.84,0.06,1.23-0.14c0.52,0.18,0.82,0.56,1.4,0.56c0.23-0.05,0.47-0.09,0.7-0.14    c0.85-0.08,1.87,0.17,2.66,0.42c0.37,0.05,0.75,0.09,1.12,0.14c0.47,0,0.93,0,1.4,0c1.02-0.51,2.05-1.08,2.38-2.24    c0.73-0.38,1.47-0.76,2.2-1.13c0.48,0.09,0.96,0.18,1.44,0.28c0.28,0,0.69,0.06,1.13,0.15c0.66,0.13,1.38,0.33,1.71,0.53    c0.75,0.44,1.9,1.16,1.79,2.15c0.9,0.46,1.79,0.91,2.69,1.37c3.25,0.84,5.24-1.32,8.12-2.12c0.49-0.04,0.99-0.08,1.48-0.13    c0.7-0.4,1.65-0.35,2.43-0.39c1.12,0.14,2.24,0.28,3.36,0.42c1.36-0.5,2.72-0.99,4.08-1.49c1.73-0.36,3.46-0.73,5.18-1.09    C402.01,81.9,403.72,81.56,404.66,80.13z"/>
            <circle cx="355.14" cy="62.2" r="1.586"/>
        </g>
        <g id="__Bolu">
            <path d="    M238.93,173.16c0.8-0.4,1.6-0.81,2.4-1.21c0.26-0.08,0.53-0.17,0.79-0.25c0.52-0.25,0.2-0.61,0.31-1.06    c0.24-0.93,0.48-1.68,0.98-2.52c0.48-0.16,0.62-0.82,0.92-1.19c0.53-0.44,1.07-0.89,1.6-1.33c0.21,0,1.06-0.51,1.54-0.56    c0.42,0.05,0.84,0.09,1.26,0.14c1.05,0.06,1.91-0.21,2.95-0.03c0.32,0.43,0.65,0.86,0.97,1.29c0.65,0.05,1.31,0.09,1.96,0.14    c0.57-0.08,0.94-0.41,1.4-0.7c0.23-0.09,0.47-0.19,0.7-0.28c0.89-1.12,1.77-2.24,2.66-3.36c0.11-0.54,0.29-0.92,0.56-1.4    c-0.27-0.41-0.17-0.78-0.25-1.26c-0.14-0.75-0.86-1.97-0.17-2.66c-0.29-1.52-0.46-2.5,0.18-3.9c0.48-0.96,2.37-0.83,3.28-0.5    c0.71,0.26,1.44,1.52,1.44,2.29c0.09,0.05,0.19,0.09,0.28,0.14c0.96,0.48,1.03-0.7,1.68-0.7c0.61,0.05,1.21,0.09,1.82,0.14    c0.16,0.81,1.61,1.14,2.24,1.54c0.55,0,1.44,0.18,1.82,0.56c2.01-0.05,4.02-0.09,6.02-0.14c1.33-0.2,2.58-0.74,3.78-1.26    c0.73-0.77,1.46-1.54,2.18-2.31c0.32-0.39-0.22-2.39-0.46-2.8c-0.29-0.07-0.59-0.14-0.88-0.21c-0.26-0.26-0.86,0-1.47-0.62    c-0.21-0.22,0.09-0.96,0.21-1.2c0.51-1.03,1.03-2.05,1.54-3.08c0.09-0.05,0.19-0.09,0.28-0.14c1.57,0,3.5,0.55,4.9,1.4    c0.73,1.55,2.22,3.08,3.78,3.78c0.37,0.05,0.75,0.09,1.12,0.14c0.7-0.09,1.4-0.19,2.1-0.28c0.2-0.38,0.74-0.5,1.12-0.7    c0.43,0,0.7,0.43,0.7,0.84c0.51,0.38,0.82,0.82,1.26,1.26c0.05,0.14,0.09,0.28,0.14,0.42c0.28,0.23,0.56,0.47,0.84,0.7    c0.2,0.41,0.4,0.82,0.6,1.23c0.26,0.43,0.52,0.78,0.52,1.29c0.63,0.81,1.03,1.64,1.54,2.52c0.05,0.56,0.09,1.12,0.14,1.68    c-0.05,0.98-0.09,1.96-0.14,2.94c0.19,0.51,0.37,1.03,0.56,1.54c0.33,0.28,0.65,0.56,0.98,0.84c0.47,0.28,0.93,0.56,1.4,0.84v0.28    c-0.19-1.38,1.01-3.88,2.1-4.62c0-0.46,0.5-1.2,0.84-1.54c0.42-1.03,0.84-2.05,1.26-3.08c0.15-0.66,0-1.16,0-1.82    c0.14-0.19,0.28-0.37,0.42-0.56c0.23-0.09,0.47-0.19,0.7-0.28c0.51-0.42,1.03-0.84,1.54-1.26c0-0.78,0.71-1.2,1.12-1.82    c0.44-0.67,0.47-1.03,1.12-1.68c0-0.6,0.68-1.2,1.12-1.54c0.28-0.65,0.56-1.31,0.84-1.96c0.37-0.33,0.75-0.65,1.12-0.98    c0.52,0.27,1.01-0.27,1.4-0.56c0.54,0,1.44-0.46,1.82-0.84c0.33-0.05,0.65-0.09,0.98-0.14c0.09,0.05,0.19,0.09,0.28,0.14    c0.75-0.37,1.51-0.74,2.26-1.1c0.83-0.24,1.67-0.48,2.5-0.72c0.24-0.8,0.77-0.42,1.4-0.56c0.28-0.05,0.56-0.09,0.84-0.14    c0.64-0.49,2.9-1.96,3.64-1.96c1.23-1.46,1.49-3.52,3.08-4.62c0.37-0.89,0.75-1.77,1.12-2.66c-0.11-1.8,0.93-4.17,1.82-5.6    c-0.49-0.34-0.56-2.13-0.56-2.8c0-0.31-0.48-0.53-0.7-0.7c-0.42,0.07-2.65-1.14-3.22-1.4c-0.33,0.32-1.01,0.35-1.38,0.1    c-0.3-0.2-0.37-0.43-0.52-0.75c-0.07-0.16-0.13-0.32-0.2-0.48c0.48-0.19,0.34-0.76,0.7-1.12c0.98-1.4,0.64-1.49,1.96-2.45v-0.07    c-0.3-0.55-0.59-1.11-0.89-1.66c-0.2-0.24-0.39-0.48-0.59-0.71c-0.19-0.54,0-0.5-0.48-0.98c0.17-0.23,0.03-0.38-0.14-0.6    c-0.37-0.18-0.75-0.35-1.12-0.53c0.05-0.59-0.37-0.83-0.7-1.26c0.11-0.3-0.02-0.42-0.14-0.7c-0.19-0.14-0.37-0.28-0.56-0.42    c-0.69-1.82-1.37-3.63-2.24-5.32c-0.52-0.25-1.47-1.15-1.62-1.69c-0.5-0.28-1.34-1.2-1.63-1.73c0.01-0.19,0.03-0.38,0.04-0.57    c-0.4-0.59-0.52-1.19-0.57-1.89c-0.09-0.33-0.19-0.65-0.28-0.98c-0.27-0.19-0.31-0.53-0.42-0.84c-0.62-0.53-0.62-1.56-0.95-2.26    c-0.25-0.27-0.49-0.55-0.74-0.82c-0.22-0.23-0.13-0.19-0.06-0.49l0.21-0.07c-0.68-0.02-1.84,2.11-2.24,2.8    c-0.09,0.05-0.19,0.11-0.28,0.16c-0.39,0.43-0.88,0.24-1.4,0.4c-1.14,0.36-3.24-0.29-4.36-0.67c-0.12-0.21-0.23-0.42-0.35-0.63    c-0.07-0.32,0.18-0.53,0.37-0.81c0.14-0.37,0.28-0.75,0.42-1.12c-0.21-0.27,0.04-0.89,0-1.26c-0.13-1.3-1.17-2.15-1.68-3.36    c0.05-0.42,0.09-0.84,0.14-1.26c0.16-1.35,0.76-1.72,0.45-3.23c-0.08-0.42-1.25-0.29-1.58-0.28c-0.87,0.01-1.77-0.16-2.65,0.15    c-0.37,0.49-0.53,0.57-1.12,0.7c-0.14,0.34-0.12,0.24-0.4,0.35c-0.65,0.27-0.75-1.24-1-1.62c-0.23-0.42-0.47-0.84-0.7-1.26    c-0.14-0.09-0.28-0.19-0.42-0.28c-0.14-0.23-0.28-0.47-0.42-0.7c-0.5-1.2-0.87-2.39-1.12-3.64c-0.48-0.35-0.97-0.71-1.45-1.06    c-0.58-0.18-1.16-0.36-1.73-0.54c-0.62-0.31-1.24-0.61-1.86-0.92c-0.65-0.26-1.29-0.39-1.71-0.97c-0.2-0.27,0.12-0.67,0.17-0.99    c-0.09-0.47-0.19-0.93-0.28-1.4c-1.44-1.01-2.24-3.75-3.72-4.44c-0.41-0.78-0.38-0.86-1.11-1.28c-0.14-0.3-0.14-0.45-0.49-0.44    c0.26-0.26-0.39-2.73-0.53-3.24c-0.08-0.34,1.49-2.02,1.79-2.36c1.26-1.33,2.43-2.4,3.15-3.08l-0.07-0.28    c-0.23-0.42-0.47-0.84-0.7-1.26c-0.05-0.47-0.09-0.93-0.14-1.4c-0.42-1.02-2.02-1.79-2.96-2.19c-0.7-1.03-1.81-1.82-2.79-2.57    c-0.61,0.94-1.3,1.12-2.35,1.48c-0.33,0.11-1,0.26-1.02,0.63c-0.65,0.14-1.31,0.28-1.96,0.42c-0.36,0.34-0.73,0.67-1.09,1.01    c-0.61,0.31-2.63,1.27-2.83,1.79c-0.89,0-1.77,0-2.66,0c-0.4,0.4-0.8,0.89-1.4,0.7c-0.14,0.23-0.28,0.47-0.42,0.7    c-0.37,0.18-0.73,0.28-0.84,0.7c-0.55,0.21-1.11,0.43-1.66,0.64c-0.52,0.39-1.04,0.79-1.56,1.18c-0.82-0.21-1.67-0.06-2.52-0.14    c-0.33,0.42-0.65,0.84-0.98,1.26c-0.89-0.03-1.99-0.08-2.53,0.69c-0.74,1.11-1.39,2.16-2.37,3.09c-0.19,0.09-0.37,0.19-0.56,0.28    c-0.47,0.47-0.93,0.93-1.4,1.4c-0.28,0.51-0.56,1.03-0.84,1.54c-0.09,0.65-0.19,1.31-0.28,1.96c0.12,0.73,0.7,2.6-0.04,3.11    c-0.85,0.61-0.48,1.47-1.5,1.72c-0.35,0.08-1.16-0.31-1.54-0.35c-0.52,0.43-2.44,1.95-1.96,2.66c-0.27,0.06-0.55,0.13-0.82,0.19    c-1.37,0.64-2.69,1.57-4.22,1.77c-0.7,0-1.4,0-2.1,0c-0.73,0.55-1.57,1.2-2.41,1.44c-0.64,0.18-1.29,0.35-1.93,0.53    c-0.47,0.4-0.95,0.79-1.42,1.19c-0.26,0.1-1.32,0.58-1.2,0.89c0.53,1.25,0.78,2.76,0.23,4.08c0.13,0.77,0.42,1.82,0.98,2.38    c0.16,2.56,1.6,3.93,1.05,6.51c0.28,0.47,0.35,1.98,0.63,2.45c0.42,0.91,0.49,1.89,0.56,2.52c-0.06,0.03-0.11,0.05-0.17,0.08    c-0.32,0.16-0.63,0.32-0.95,0.48c-0.56,0.05-1.12,0.09-1.68,0.14c-0.85,0.05-1.7-0.14-2.52,0.2c-0.89,0.77-1.78,1.55-2.67,2.32    c-0.33,0.05-0.65,0.09-0.98,0.14c-1.29,0.74-2.58,1.49-3.87,2.23c-0.3,0.14-0.6,0.29-0.9,0.43c-1.35,0.51-2.71,1.03-4.06,1.54    c-1.84,0.7-3.29,0.88-4.29,2.87c-0.55,0.35-0.97,0.7-1.67,1.54c-0.24,0.05-1.51,2.17-1.39,2.24c-0.87,1.27-1.1,2.81-1.76,4.13    c-1.19,0.39-2.18,1-2.74,2.2c-0.26,0.56-1.32,2.32-0.77,2.7c0.21,0.38,0.53,0.69,0.56,1.12c0.54,0.37,2.15,0.65,2.1,1.12    c-0.17,1.15-1.41,2.43-1.92,3.46c-0.76,1.74-1.52,3.48-2.28,5.23c-0.34,1.03,0.44,3.25-0.35,3.92c-0.52,0.49-2.07,1-2.73,0.56    c-0.33,0.19-0.45,0.39-0.84,0.28c-0.56,0.7-1.12,1.4-1.68,2.1c-0.3-0.02-0.6-0.05-0.9-0.07c-0.44-0.07-0.44-1.32-0.99-1.12    c-0.42,0.18-0.99,0.36-1.2,0.77c-1.64,0.26-3.58,0.65-4.95,1.56c-0.54,0.43-0.89,0.95-1.43,1.38l-0.21,0.28    c0.42,0.42,0.08,0.61,0.42,0.98c0.33,0.56,0.65,1.12,0.98,1.68c0.45,0.52,0.24,1.19,0.84,1.54c1.75,0.14,2.27-1.01,2.66-1.4    c1.03,0,1.89-0.21,2.8-0.98c0.24,0.43,1.33,0.46,1.83,0.51c1.7,0.16,3.43-0.24,5.17,0.1c0.14,0.03,0.29,0.06,0.43,0.09    c0.02,0.44,0.45,0.75,0.7,1.12c0.03,0.15,0.06,0.31,0.09,0.46c0.32,0.67-0.24,1.65-0.56,2.18c-0.31,0.24-0.62,0.48-0.94,0.72    c-0.83,0.75-1.4,1.67-1.4,2.8c0,0.74,1.2,1.46,1.82,1.54c0.25,0.45,0.51,0.91,0.76,1.36c0.03,0.57,0.05,1.15,0.08,1.73    c0.1,0.02,0.47,0.3,0.56,0.42c0.16-0.28,1.23-0.84,1.54-0.84c1.04,0,1.41,1.11,1.82,1.96c0.18,0.24,0.36,0.49,0.54,0.73    c0.59,0.59,0.69,1.39,1.14,2.07c0.37,0.51,0.75,1.03,1.12,1.54c0.33,0.28,0.65,0.56,0.98,0.84c0.42,0.17,1.75,0.67,2.17,0.84    c0.67,0.24,2.18,0.27,2.73-0.28c0.51,0.33,1.03,0.65,1.54,0.98c0.19,0.28,0.37,0.56,0.56,0.84c1.13,1.22,2.1,2.35,3.79,2.64    c0.53,0.09,1.34-1.24,1.68-1.66c0.16-0.03,0.6-0.12,0.66-0.13c0.12,0.11,0.25,0.23,0.37,0.34c0.61,0.45,0.8,1.19,0.8,1.89    c0.67,0.81,1.34,1.63,2.01,2.44c0.41,0.14,0.82,0.27,1.23,0.41c0.26,0.16,0.53,0.32,0.79,0.47c0.62,0.41,0.18,0.32,0.45,0.6    H238.93z"/>
            <circle cx="259.88" cy="116.14" r="1.586"/>
        </g>
        <g id="__Yeniçağa">
            <path d="    M369.56,82.94c-0.45-0.09-0.89-0.15-1.18-0.16c-0.48-0.09-0.96-0.18-1.44-0.28c-0.73,0.38-1.47,0.76-2.2,1.13    c-0.33,1.16-1.36,1.73-2.38,2.24c-0.47,0-0.93,0-1.4,0c-0.37-0.05-0.75-0.09-1.12-0.14c-0.79-0.25-1.81-0.5-2.66-0.42    c-0.23,0.05-0.47,0.09-0.7,0.14c-0.58,0-0.88-0.38-1.4-0.56c-0.39,0.2-0.8,0.07-1.23,0.14c-0.85,0.09-1.7,0.19-2.55,0.28    c-1.06-0.2-2.12-0.56-3.2-0.4c-1.9,0.28-3.93,0.89-5.63,1.8c-0.25,0.74-1.19,1.17-1.82,1.54c-0.33,0.09-0.65,0.19-0.98,0.28    c-0.48-0.23-1.6,0.03-2.09,0.21c-0.55,0.15-1.11,0.3-1.66,0.45c-0.43,0.23-0.85,0.47-1.28,0.7c-0.44,0.14-0.88,0.29-1.32,0.43    c-0.55,0.06-1.09,0.11-1.64,0.17c-0.52,0.28-1.03,0.55-1.55,0.83c-2.61,1.39-5.68,1-8.54,1l-0.21,0.07    c-0.07,0.3-0.16,0.26,0.06,0.49c0.25,0.27,0.49,0.55,0.74,0.82c0.34,0.7,0.33,1.72,0.95,2.26c0.11,0.31,0.15,0.66,0.42,0.84    c0.09,0.33,0.19,0.65,0.28,0.98c0.05,0.7,0.17,1.3,0.57,1.89c-0.01,0.19-0.03,0.38-0.04,0.57c0.28,0.53,1.13,1.45,1.63,1.73    c0.16,0.54,1.11,1.44,1.62,1.69c0.87,1.7,1.55,3.5,2.24,5.32c0.19,0.14,0.37,0.28,0.56,0.42c0.12,0.28,0.25,0.4,0.14,0.7    c0.34,0.43,0.75,0.67,0.7,1.26c0.37,0.18,0.75,0.35,1.12,0.53c0.17,0.22,0.31,0.36,0.14,0.6c0.48,0.48,0.29,0.45,0.48,0.98    c0.2,0.24,0.39,0.48,0.59,0.71c0.3,0.55,0.59,1.11,0.89,1.66v0.07c0.28-0.14,1.96-1.19,2.24-1.33c1.2-0.32,2.02-1.09,3.11-1.65    c0.8-0.21,1.59-0.41,2.39-0.62c0.64-0.04,1.28-0.08,1.93-0.11c0.28-0.09,0.56-0.19,0.84-0.28c1.21,0.19,2.43,0.37,3.64,0.56    c1.2-0.76,2.57-1.04,3.92-1.4c0.61-0.33,1.21-0.65,1.82-0.98c0.56-0.56,1.12-1.12,1.68-1.68c1.06-0.19,1.21-0.63,2.31-0.77    l-0.21-0.07c0.49,0.04,0.92-0.27,1.4-0.42c0-0.37,0-0.75,0-1.12c-0.23-0.61-0.47-1.21-0.7-1.82c0-0.66,1.37-2.62,1.76-3.26    c0.21-0.32,0.42-0.63,0.63-0.95c1.03-0.38,2.15-0.8,3.21-0.83c0.31-0.02,0.65-0.91,0.43-1.13c0.47-0.36,0.85-0.7,1.15-1.2    c0.61-1.05-0.05-1.62-0.17-2.72c-0.14-1.28-0.36-2.57-0.14-3.92c0.14-0.28,0.28-0.56,0.42-0.84c-0.45-0.83,1.01-2.08,1.54-2.66    c0.19-0.47,0.37-0.93,0.56-1.4c0.42-0.56,0.84-1.24,0.84-1.96c0.16-0.1,0.32-0.2,0.47-0.31L369.56,82.94z"/>
            <circle cx="345.89" cy="107.45" r="1.586"/>
        </g>
    </g>
</svg>