<?xml version="1.0" encoding="UTF-8"?>
<!DOCTYPE svg PUBLIC "-//W3C//DTD SVG 1.1//EN" "http://www.w3.org/Graphics/SVG/1.1/DTD/svg11.dtd">
<svg version="1.1" id="HaritaCizim" xmlns="http://www.w3.org/2000/svg" xmlns:xlink="http://www.w3.org/1999/xlink" x="0px" y="0px" viewBox="0 0 600 500" preserveAspectRatio="none">
    <defs id="__def">
        <radialGradient id="f">
            <stop offset="0" stop-color="white" stop-opacity="1"/>
            <stop id="STOP1" offset=".4" stop-opacity="1"/>
            <stop offset="1" stop-color="white" stop-opacity=".2"/>
        </radialGradient>
        <filter id="__flt1" x="0" y="0" width="200%" height="200%" filterUnits="objectBoundingBox">
            <feGaussianBlur in="SourceAlpha" stdDeviation="3" result="blur1"/>
            <feSpecularLighting result="specOut" in="blur1" specularConstant="1.5" specularExponent="20" lighting-color="#bbbbbb">
                <feDistantLight azimuth="45" elevation="30"/>
            </feSpecularLighting>
            <feComposite in="specOut" in2="SourceAlpha" operator="in" result="specOut"/>
            <feComposite in="SourceGraphic" in2="specOut" operator="arithmetic" k1="0" k2="1" k3="1" k4="0"/>
        </filter>
        <filter id="__flt2" x="0" y="0" width="200%" height="200%" filterUnits="objectBoundingBox">
            <feGaussianBlur in="SourceAlpha" stdDeviation="3" result="blur1"/>
            <feSpecularLighting result="specOut" in="blur1" specularExponent="20" lighting-color="#bbbbbb">
                <fePointLight x="-2000" y="100" z="2000"/>
            </feSpecularLighting>
            <feComposite in="specOut" in2="SourceAlpha" operator="in" result="specOut"/>
            <feComposite in="SourceGraphic" in2="specOut" operator="arithmetic" k1="0" k2="1" k3="1" k4="0"/>
        </filter>
        <filter id="__flt3" x0="-50%" y0="-50%" width="200%" height="200%" filterUnits="objectBoundingBox">
            <feGaussianBlur in="SourceAlpha" stdDeviation="3" result="blur"/>
            <feOffset in="blur" dx="0" dy="0" result="offsetBlur"/>
            <feSpecularLighting in="blur" surfaceScale="4" specularConstant=".5" specularExponent="20" lighting-color="flavor" result="specOut">
                <fePointLight x="-5000" y="-10000" z="5000"/>
            </feSpecularLighting>
            <feComposite in="specOut" in2="SourceAlpha" operator="in" result="specOut"/>
            <feComposite in="SourceGraphic" in2="specOut" operator="arithmetic" k1="0" k2="1" k3="1" k4="0" result="litPaint"/>
            <feMerge>
                <feMergeNode in="offsetBlur"/>
                <feMergeNode in="litPaint"/>
            </feMerge>
        </filter>
        <filter id="__flt4" x0="-50%" y0="-50%" width="200%" height="200%">
            <feGaussianBlur in="SourceAlpha" stdDeviation="2" result="blur"/>
            <feOffset dy="-1" dx="-1"/>
            <feComposite in2="SourceAlpha" operator="arithmetic" k2="-1" k3="1" result="hlDiff"/>
            <feFlood flood-color="white" flood-opacity=".7"/>
            <feComposite in2="hlDiff" operator="in"/>
            <feComposite in2="SourceGraphic" operator="over" result="withGlow"/>
            <feOffset in="blur" dy="3" dx="3"/>
            <feComposite in2="SourceAlpha" operator="arithmetic" k2="-1" k3="1" result="shadowDiff"/>
            <feFlood flood-color="black" flood-opacity="1"/>
            <feComposite in2="shadowDiff" operator="in"/>
            <feComposite in2="withGlow" operator="over"/>
        </filter>
        <filter id="__golge1" x="0" y="0" width="200%" height="200%" filterUnits="userSpaceOnUse">
            <feOffset result="offOut" in="SourceAlpha" dx="8" dy="8"/>
            <feGaussianBlur result="blurOut" in="offOut" stdDeviation="3"/>
            <feBlend in="SourceGraphic" in2="blurOut" mode="normal"/>
        </filter>
    </defs>
    <g id="__Harita" fill="white" stroke="#000000" stroke-width="0.25" stroke-miterlimit="10" display="none">
        <rect id="__cer" x="0" y="0" fill="#000000" opacity="0" width="600" height="500"/>
        <g id="__Altınyayla">
            <path d="   M138.4,356.51c-0.8-0.8-4.53-1.17-5.75-1.23c-1.21-0.26-2.42-0.53-3.62-0.79c-1.32-0.4-2.77,0.04-4.06-0.33   c-0.99-0.21-1.99-0.43-2.98-0.64c-0.29,0.35-0.63,0.32-1.07,0.43c-0.82,0.69-1.65,1.39-2.47,2.08c-1.82,2.21-3.63,4.42-5.45,6.63   c-1.62,2.36-3.25,4.71-4.87,7.07c-0.64,0.64-1.28,1.28-1.92,1.92c-0.56,0.05-1.09,0.78-1.58,1.13c-0.68,0.34-1.36,0.67-2.04,1.01   c-0.54,0.46-1.08,0.91-1.62,1.37c-0.57,0.41-1.14,0.81-1.71,1.22c0.2,0.07,0.41,0.13,0.56,0.18c-0.89,0.14,0.24,1.59,0,1.78   c-0.24,0.19-1.06-0.92-1.13-1.06c-0.05-0.13-0.09-0.26-0.14-0.4c0.08-0.05-2.39,1.7-3.7,2.63c-1.35,1.35-2.7,2.71-4.06,4.06   c-1.24,1.21-1.69,4.63-2.13,6.31c-1.04,3.4-2.08,6.79-3.12,10.19c-1.05,3.7-1.76,7.42-4.7,10.17c-0.92,0.35-1.85,0.71-2.77,1.07   c-0.53-0.24-1.95-0.13-2.42,0.21c-3.45-0.26-6.74-1.84-9.67-3.71c-0.23-0.18-0.46-0.36-0.69-0.55l-0.03,0.51   c-0.42,0.47-0.83,0.94-1.25,1.41c-0.59,1.05-1.19,2.1-1.79,3.14c-0.61,0.66-1.23,1.31-1.84,1.97c-0.17,0.3-0.33,0.61-0.5,0.91   c-1.2,2.28-2.86,4.05-4.4,6.12c-0.17,0.05-0.35,0.1-0.52,0.15c-0.94,0.97-3.55-0.48-4.97-0.15c0.07,0.28,0.13,0.56,0.2,0.85   c0.2,0.5,0.4,1,0.6,1.5c0,0.36,0,0.71,0,1.07c0.58,1.57,1.94,2.55,3.09,3.72c1.06,1.14,2.12,2.29,3.18,3.43   c0.47,0.6,0.94,1.2,1.41,1.8c0.73,0.11,2.96,1.96,3.62,2.56c-0.17,0.68,0.4,1.46,0.64,2.13c0.64,0.51,1.27,1.01,1.91,1.52   c0.64,0.35,1.29,0.69,1.93,1.04c0.29,0.61,3.5,2.74,4.26,3.2c0.52,1.01,4.63,3.09,5.76,3.41c0.36,0.21,0.71,0.43,1.07,0.64   c0.86-0.06,1.73-0.12,2.59-0.17c0.63-0.37,1.26-0.74,1.89-1.11c1.6-0.41,2.94-0.57,4.48-1.28c0.85-0.64,1.71-1.28,2.56-1.92   c1.99-1.81,4.79-3.87,7.23-5.02c3.6-1.71,7.64-2.26,10.88-4.36c1.14-1.42,2.27-2.84,3.41-4.26c0.36-0.85,0.71-1.71,1.07-2.56   c-0.17-1.78,1.05-3.45,1.92-4.9c0.5-1.21,0.99-2.42,1.49-3.62c0.28-0.78,0.57-1.56,0.85-2.34c-0.13-1.07,1.48-4.02,2.1-4.92   c0.6-1.32,1.19-2.64,1.79-3.96c0.34-0.66,0.68-1.31,1.02-1.97c0.21-0.65,0.42-1.29,0.63-1.94c0.98-0.48,1.2-1.51,1.75-2.31   c0.9-1.1,1.8-2.2,2.7-3.3c0.58-0.7,0.67-0.67,1.31-1.53c1.17-1.07,1.51-1.34,2.45-1.81c0.96-1.81,3.09-2.77,4.16-3.84   c0.85-0.54,1.7-1.09,2.54-1.63c1.31-0.73,4.61-2.03,5.34-3.27c0.62-1.05-0.45-4.2-0.85-5.33c0.3-0.46,0.12-1.96,0-2.56   c0.33-0.49-0.28-4.24-0.43-5.12c0-0.78,0-1.56,0-2.34c1.17-1.17,0.46-3.83,1.07-5.33c0.28-0.92,0.57-1.85,0.85-2.77   c0.61-1.58,1.44-3.49,1.49-5.12l0.22-0.63C143.41,357.69,139.57,356.51,138.4,356.51z"/>
            <circle cx="125.08" cy="374.74" r="1.586"/>
        </g>
        <g id="__Çavdır">
            <path d="   M224.94,355.66c-0.19-1.21-0.38-2.42-0.57-3.62c-1.02-2.34-2.03-4.69-3.05-7.03c-0.64-1.43-1.29-2.86-1.93-4.3   c-0.92-2.4-1.84-4.81-2.76-7.21c0-1.76-1.06-2.72-1.97-4.22c0.11-0.62-1.57-3.02-2.08-3.45c0.16-0.63-1.58-3.38-2.13-3.84   c-1.14-0.94-1.86-2.25-2.98-3.2c-1.24-1.04-2.12-2.27-2.98-3.62c-0.41-0.49-0.83-0.98-1.24-1.47c-1.58-1.21-3.15-2.43-4.73-3.64   c-1.14-0.5-2.27-0.99-3.41-1.49c-0.51-0.06-1.02-0.12-1.53-0.18c-1.48-0.18-2.81-0.15-4.23-0.67c-0.51,0.45-1.52,0.14-2.14,0.03   c-0.42-0.01-0.84-0.02-1.27-0.03c-1.06-0.3-2.13-0.6-3.19-0.9c-0.79-0.06-1.57-0.12-2.36-0.17c-2.57-0.56-5.51-1.76-7.88-2.98   c-0.48,0.2-1.27-0.4-1.8-0.56c-0.92-0.28-4.45-2.85-5.02-3.7c-1.51-2.12-3.01-4.25-4.52-6.37c-0.63-1.29-1.25-2.57-1.88-3.86   c-0.14-0.36-0.28-0.71-0.43-1.07c0-1.28-0.38-2.64-1.27-3.64c-0.43-1.63-0.86-3.26-1.29-4.89c-0.71-0.92-1.42-1.85-2.13-2.77   c-0.54-0.74-1.41-1.97-2.28-2.25c-0.73-1.03-1.86-2.53-3.04-3.08c-1.2-0.5-2.4-1.01-3.6-1.51c-0.86-0.56-1.72-1.12-2.58-1.69   l-1.61-0.04c-0.01,1.21-0.02,2.42-0.03,3.64c-0.08,0.57-0.47,1.29-0.07,1.73c-0.72,1.15-1.15,2.25-1.07,3.62   c0.03,0.48,0.06,0.97,0.43,1.28c0.06,3.56,0.12,7.11,0.19,10.67c-0.09,0.99,0.67,2.63,0.03,3.4c0.59,2.14,1.24,4.14,1.24,6.39   c0.01,0.64,0.03,1.28,0.04,1.93c0.64,2.34,1.28,4.69,1.92,7.03c1.21,2.56,2.42,5.12,3.62,7.67c3.13,4.69,6.25,9.38,9.38,14.07   c1.18,1.54,2.36,3.08,3.54,4.62c-0.27,0.45-0.46,0.38-0.13,0.93c-1.09,1.05-2.11,2.39-2.56,3.84c-0.71,0.5-1.42,0.99-2.13,1.49   c-1.43,1.55-2.45,3.92-4.4,4.96c-1.45,2.32-2.9,4.65-4.34,6.97c-0.28,0.57-0.56,1.14-0.85,1.71c-0.07,0.36-0.14,0.71-0.21,1.07   c-0.5,0.78-0.99,1.56-1.49,2.34l-0.22-0.01c-0.05,1.63-0.87,3.54-1.49,5.12c-0.28,0.92-0.57,1.85-0.85,2.77   c-0.61,1.5,0.1,4.16-1.07,5.33c0,0.78,0,1.56,0,2.34c0.15,0.87,0.76,4.63,0.43,5.12c0.12,0.6,0.3,2.09,0,2.56   c0.4,1.13,1.47,4.28,0.85,5.33l0.64,0.21c0.35-0.11,0.7-0.21,1.05-0.32c2.85-1.24,5.7-2.49,8.55-3.73c1.7-0.28,3.41-0.57,5.12-0.85   c2.63,0.43,5.26,0.85,7.89,1.28c1.07,0.43,2.13,0.85,3.2,1.28c1.36,0.54,2.71,1.08,4.07,1.62c2.47,1.17,4.94,2.34,7.41,3.52   c0.44,0.14,0.87,0.27,1.31,0.41c0.71,0,1.42,0,2.13,0c1.06-0.39,4.15-1.77,5.12-1.49c0.85-0.21,1.71-0.43,2.56-0.64   c2.92-1.51,5.84-3.02,8.76-4.53c1.69-0.79,3.38-1.58,5.06-2.36c0.79-0.37,1.97-1.23,2.8-1.21c0.95-0.52,3.51-1.03,4.05-1.92   c0.42-0.07,0.84-0.15,1.27-0.22c0.71-0.57,1.43-1.13,2.15-1.7c0.26-0.85,1.7-4.05,2.34-4.48c1.66-3.03,3.32-6.06,4.98-9.09   c0.55-0.98,1.82-4.52,2.48-4.77C224.75,356.59,224.59,356.1,224.94,355.66z M179.62,351.78c-0.8,0.18-1.59,0.37-2.39,0.55   c-0.5,0.13-1.01,0.27-1.51,0.4c-0.49,0.14-1,0.5-1,0.5c0.63-0.65,3.15-2.6,3.97-2.26c0.57-0.84,0.85-0.87,0.85-1.92   c0.71-0.36,1.42-0.71,2.13-1.07c1.07-0.43,2.13-0.85,3.2-1.28c0.09,0.15,0.18,0.3,0.27,0.45c0.26-0.01,0.53-0.01,0.79-0.02   c-0.16,0.12-0.32,0.23-0.49,0.35c-0.48,0.33-0.81,0.74-0.98,1.31c-0.15,0.02-0.3,0.03-0.45,0.05c0.03,0.04,0.07,0.08,0.1,0.12   c0.61,0.95,1.21,1.91,1.82,2.86c0.5,0.43,0.99,0.85,1.49,1.28c-0.21,0.05-0.41,0.09-0.62,0.14c-1.31-0.48-2.15-1.13-3-2.27   c-0.34-0.46-0.75-0.45-0.85-1.07c-0.06,0.03-0.11,0.06-0.17,0.09C181.77,350.62,180.8,351.48,179.62,351.78z M186.28,380.82   c-0.78,0.19-0.81,0.11-1.35-0.49c-0.02-0.12-0.04-0.25-0.07-0.37c-0.58-0.48-1.16-0.97-1.74-1.45c-0.75-0.5-1.62-0.38-1.69-1.31   c-0.05-1.07-0.1-2.13-0.15-3.2c0.19-0.64,0.47-1.29,1.23-1.29c0.35-0.48,1.63-2.07,1.76-1.08c0.14,1.05-0.31,3.86,0.38,4.47   c1.28,1.13,2.16,1.24,2.77,2.95C187.64,379.56,186.79,380.74,186.28,380.82z"/>
            <circle cx="168.35" cy="315.05" r="1.586"/>
        </g>
        <g id="__Gölhisar">
            <path d="   M160.27,334.27c-1.18-1.54-2.36-3.08-3.54-4.62c-3.13-4.69-6.25-9.38-9.38-14.07c-1.21-2.56-2.42-5.12-3.62-7.67   c-0.64-2.34-1.28-4.69-1.92-7.03c-0.01-0.64-0.03-1.28-0.04-1.93c0-2.24-0.65-4.25-1.24-6.39c0.64-0.77-0.12-2.41-0.03-3.4   c-0.06-3.56-0.12-7.11-0.19-10.67c-0.37-0.31-0.4-0.8-0.43-1.28c-0.09-1.38,0.35-2.47,1.07-3.62c-0.4-0.44-0.02-1.16,0.07-1.73   c0.01-1.21,0.02-2.42,0.03-3.64l1.61,0.04c-2.17-0.77-4.53-1.71-6.82-1.71c-1.23-0.45-2.45-0.91-3.68-1.36l-0.8-0.35   c-0.68,0.64-1.5,1.61-2.56,1.49c-0.73,0.48-1.46,0.96-2.19,1.44c-1.12,0.8-2.23,1.6-3.35,2.4c-0.99,0.85-1.99,1.71-2.98,2.56   c-0.28,0.78-0.57,1.56-0.85,2.34c-1.51,1.1-2.3,2.31-3.36,3.86c-1.24,1.86-2.49,3.72-3.73,5.58c-0.62,0.69-1.24,1.39-1.86,2.08   c-1.56,0.57-3.13,1.14-4.69,1.71c-1.49,0.57-2.98,1.14-4.48,1.71c-0.61,1.07-1.12,2.89-2.34,3.41c-0.99,1.71-1.99,3.41-2.98,5.12   c-0.26,1.06-0.52,2.13-0.79,3.19c-0.34,0.27-1.48,2.41-1.35,2.78c-0.72,0.72-1.81,1.99-1.34,2.66c0.16,0.11,0.32,0.22,0.49,0.33   c0.16,0.82,0.4,1.88-0.21,2.56c-0.37,0.63-1.45,1.97-1.49,2.56c-0.92,0.57-1.85,1.14-2.77,1.71c-0.02,0.15-0.03,0.29-0.05,0.44   c-0.08,1.26,0.61,1.77,1.33,2.76c0.43,0.85,0.85,1.71,1.28,2.56c0.89,1.62,1.92,3.01,2.13,4.9c0.14,0.85,0.28,1.71,0.43,2.56   c-0.7,1.73-1.49,4.34-1.49,6.18c-0.78,1.35-0.78,2.82-1.35,4.23c-0.82,2.02-1.12,4.19-0.78,6.43c0.02,2.07,0.04,4.14,0.05,6.21   c0.6-0.09,0.39,0.7,0.75,0.53c0.81-0.31,2.15-0.92,2.15-0.92c-0.71,1.9-2,3.4-2.95,5.25c-0.28,0.53-0.81,0.9-0.85,1.5   c-0.28,0-0.55,0.01-0.83,0.01c-1.57-0.15-3.14-0.3-4.71-0.45c-0.49-0.01-1.66-0.06-1.79-0.46c-0.16-0.57-0.37-1.55-0.13-2.08   c-0.79-0.9-3.16-2.92-3.41-3.84c-0.73-0.69-1.31-1.38-2.27-1.67c-0.02-0.15-0.05-0.31-0.07-0.46c-0.04,0.22-0.09,0.44-0.13,0.66   c-0.34,2.03-0.26,5.25-1.92,6.99c-1.99,2.08-5.96,4.04-8.63,5.44c-0.78,0.41-2.5,1.33-1.62,1.94c2.75,1.17,5.5,2.34,8.25,3.51   c1.02,0.47,2.7,0.75,3.41,1.71c1.07,1.43,1.35,3.27,2,4.86c0.85,2.28,1.71,4.57,2.56,6.85c0.68,1.64,1.37,3.27,2.05,4.91   c0.13,0.4,0.26,0.8,0.39,1.2c-0.28,1.05-0.74,2.68-1.89,3.06c-1.2,1.73-2.47,3.46-4.26,4.69c-2.27,2.77-4.55,5.54-6.82,8.31   c-1.35,1.71-2.7,3.41-4.05,5.12c0.23,0.18,0.46,0.36,0.69,0.55c2.93,1.87,6.22,3.45,9.67,3.71c0.47-0.33,1.9-0.45,2.42-0.21   c0.92-0.36,1.85-0.71,2.77-1.07c2.93-2.75,3.65-6.47,4.7-10.17c1.04-3.4,2.08-6.79,3.12-10.19c0.44-1.68,0.88-5.1,2.13-6.31   c1.35-1.35,2.7-2.71,4.06-4.06c1.23-0.88,2.47-1.75,3.7-2.63c-0.33-0.94-0.66-1.88-0.99-2.83c-0.03-0.09-0.06-0.17-0.09-0.26   c-0.37,0.61-0.44,0.45-1.07,0.43c0.31-1.03,0.33-1.92,1.28-2.56c-0.03-0.15-0.06-0.3-0.09-0.45c0.15-0.96-0.54-1.68-0.9-2.57   c-0.11-0.26-0.47-0.1-0.78-0.25c-0.65-0.29,0.3,1.25-0.58,1.55c-0.71,0.25-1.22,0.12-1.91-0.2c-0.19,0.6-1.87,1.08-2.56,1.28   c-1.15,1.2-3.4,1.62-4.9,2.13c-0.36,0.35-0.71,0.71-1.07,1.07c-0.28,0.71-0.57,1.42-0.85,2.13c-0.05,0-1.4,0.43-1.23,0.11   c0.49-0.93,0.3-1.43-0.18-2.3c-0.03-0.05-0.06-0.11-0.09-0.16c0.5-0.12,0.42-0.28,0.67-0.71c0.91-0.83,1.83-1.66,2.74-2.49   c1.21-0.36,2.42-0.71,3.62-1.07c-0.15-0.95,0.81-1.19,1.49-1.71c0.96,0.92,2.99-0.79,3.84-1.49c0.24-0.7,0.49-1.4,0.73-2.1   c0.4-0.8,1.77,0.44,2.15,0.73c0.18,0.81,0.36,1.63,0.53,2.44c0.31,1.05,1.08,1.34,1.63,2.2c0.2,0.36-0.54,0.59-0.77,0.78   c0.16,1.09-0.32,1.6-1.07,2.34c0.45,0.53,0.66,2.27,0.64,2.98c0,0.23,0.24,0.36,0.5,0.46c0.57-0.41,1.14-0.81,1.71-1.22   c0.54-0.46,1.08-0.91,1.62-1.37c0.68-0.34,1.36-0.67,2.04-1.01c0.49-0.35,1.01-1.07,1.58-1.13c0.64-0.64,1.28-1.28,1.92-1.92   c1.62-2.36,3.25-4.71,4.87-7.07c1.82-2.21,3.63-4.42,5.45-6.63c0.82-0.69,1.65-1.39,2.47-2.08c0.43-0.1,0.78-0.07,1.07-0.43   c0.99,0.21,1.99,0.43,2.98,0.64c1.28,0.37,2.74-0.07,4.06,0.33c1.21,0.26,2.42,0.53,3.62,0.79c1.22,0.06,4.95,0.42,5.75,1.23   c1.17,0,5,1.18,5.76,0.43v0.64c0.5-0.78,0.99-1.56,1.49-2.34c0.07-0.36,0.14-0.71,0.21-1.07c0.28-0.57,0.56-1.14,0.85-1.71   c1.45-2.32,2.9-4.65,4.34-6.97c1.95-1.04,2.97-3.4,4.4-4.96c0.71-0.5,1.42-0.99,2.13-1.49c0.45-1.45,1.47-2.79,2.56-3.84   C159.82,334.65,160,334.72,160.27,334.27z M146.7,332.21c0.13,1.99-5.05,1.7-6.33,0.89c-1.15-0.86-1.55-2.64-1.36-4.1   c0.24-0.41,0.48-0.83,0.73-1.24c0.13-0.21,0.79-0.15,1.22-0.22c0.35-0.04,1.46,0.76,1.66,1.13c0.45,0.32,0.89,0.64,1.34,0.95   c1.13,0.78,1.83,0.65,2.78,1.93C147.08,331.98,146.67,331.77,146.7,332.21z"/>
            <circle cx="116.98" cy="314.84" r="1.586"/>
        </g>
        <g id="__Tefenni">
            <path d="   M260.97,276.23c-1.33,0-1.43-1.18-1.92-2.21c0.37-0.71-0.52-2.19-0.87-2.89c-0.43-1.59-0.86-3.19-1.29-4.78   c-0.23-0.5-0.45-0.99-0.68-1.49l0.06-0.21c-1.45-1.2-2.95-2.44-4.69-3.2c-3.16-1.37-5.62,1.03-8.77,1.55   c-0.26,0.51-0.7,0.39-1.25,0.39c-1.11,0-4.79-0.22-5.34,0.4c-1.43-0.74-2.94-1.57-4.24-2.61c-0.65-0.41-1.3-0.82-1.95-1.23   c-0.74-0.68-1.48-1.35-2.22-2.03c-1.26-0.67-2.52-1.34-3.78-2.01c-5.47-4.04-10.94-8.09-16.41-12.13c-1.35-1.04-2.48-2.17-3.62-3.4   c-0.24-0.26-0.9-1.09-1.25-0.89c-2.49-2.9-4.97-5.8-7.46-8.7c-1.08-0.41-1.68,0.33-2.76,0.23c-3.29-0.3-4.84,0.24-7.9,1.44   c-1.34-0.37-2.51-0.07-3.84,0c-3.67,0.21-7.93,0.92-11.48,2.02c-2.41,0.46-4.82,0.91-7.23,1.37c-5.82,1.03-11.96,1.57-17.55,3.6   c-0.77,0.44-1.55,0.89-2.32,1.33c-0.55,0.17-1.11,0.35-1.66,0.52c-1.86,1.46-3.73,2.92-5.59,4.38c-1.09,1.22-3.38,1.81-3.15,3.6   c0.13,0.57,0.25,1.15,0.38,1.73c0.34,0.46,0.67,0.92,1.01,1.38c0.41,1.02,0.81,2.03,1.22,3.05c0.32,0.68,1.23,1.83,0.79,2.42   c-0.28,0.37-0.36,0.35-0.25,0.82c-0.52,0.74-1.03,1.49-1.55,2.23c0.09,0.47-0.8,2.4-1.22,2.67c-0.2,0.55-0.67,1.4-0.05,1.63   c1.23,0.45,2.45,0.91,3.68,1.36c2.29,0,4.65,0.94,6.82,1.71c0.86,0.56,1.72,1.12,2.58,1.69c1.2,0.5,2.4,1.01,3.6,1.51   c1.18,0.55,2.31,2.05,3.04,3.08c0.87,0.29,1.75,1.51,2.28,2.25c0.71,0.92,1.42,1.85,2.13,2.77c0.43,1.63,0.86,3.26,1.29,4.89   c0.88,1,1.27,2.36,1.27,3.64c0.14,0.36,0.28,0.71,0.43,1.07c0.63,1.29,1.25,2.57,1.88,3.86c1.51,2.12,3.01,4.25,4.52,6.37   c0.58,0.86,4.1,3.42,5.02,3.7c0.53,0.16,1.32,0.75,1.8,0.56c2.37,1.22,5.31,2.42,7.88,2.98c0.79,0.06,1.57,0.12,2.36,0.17   c1.06,0.3,2.13,0.6,3.19,0.9c0.42,0.01,0.84,0.02,1.27,0.03c0.63,0.1,1.64,0.42,2.14-0.03c1.42,0.52,2.75,0.5,4.23,0.67   c0.51,0.06,1.02,0.12,1.53,0.18c1.14,0.5,2.27,0.99,3.41,1.49c1.58,1.21,3.15,2.43,4.73,3.64c0.41,0.49,0.83,0.98,1.24,1.47   c0.86,1.35,1.75,2.58,2.98,3.62c1.12,0.95,1.84,2.25,2.98,3.2c0.56,0.46,2.29,3.21,2.13,3.84c0.32,0.32,0.63,0.64,0.95,0.97   c1.99-1.99,3.7-4.71,5.02-7.23c1.08-0.68,3.6-4.92,4.27-6.18c1.53-0.49,4.15-3.67,5.56-4.8c0.77-0.51,1.55-1.01,2.32-1.52   c3.84-1.21,7.67-2.42,11.51-3.62c1.17-0.07,4.93-0.43,5.76-1.07c2.1-0.3,4.19-0.6,6.29-0.89c0.14-0.17,0.28-0.33,0.42-0.5   c0.18-0.18,0.36-0.35,0.54-0.53c0.13-0.86,0.26-1.72,0.39-2.58c0.6-0.47,0.12-1.66,0.5-2.34c0.86-1.56,0.91-4,1.37-5.76   c1.02-4.47,2.04-8.94,3.06-13.42L260.97,276.23z"/>
            <circle cx="197.34" cy="253.45" r="1.586"/>
        </g>
        <g id="__Karamanlı">
            <path d="   M266.72,236.51c-0.78-0.63-0.52-2.89-0.43-3.84c-0.63-0.64-0.64-3.11-0.64-4.05c-1.18-1.04-1.09-4.3-0.85-5.76   c-0.67-0.45-0.32-1.64-0.21-2.34c-0.68-0.47-0.31-1.83-0.21-2.56c-0.15-0.4-0.3-0.8-0.45-1.2c-0.21-0.52-0.41-1.05-0.62-1.57   c-0.14-0.85-0.28-1.71-0.43-2.56c-0.28-1.07-0.56-2.14-0.85-3.22c-0.36-0.63-0.72-1.27-1.07-1.9c-0.43-1.14-0.85-2.27-1.28-3.41   c-0.38-1.86-0.75-3.73-1.13-5.59c-0.22-0.91-1.44-0.53-1.44-0.53c-4.19,0.05-8.38,0.1-12.57,0.15c-5.28,1.39-10.56,2.78-15.85,4.17   c-2.25,0.3-4.49,0.6-6.74,0.89c-1.92,0.44-3.84,0.89-5.76,1.33c-0.85,0-1.71,0-2.56,0c-0.64,0.21-1.28,0.43-1.92,0.64   c-1.49-0.07-2.98-0.14-4.48-0.21c-0.75,0.18-2.14,0.8-2.77,0.21c-2.68,0.52-5.57,0.68-8.31,0c-1.13,0.01-2.26,0.01-3.4,0.02   c-0.43-0.15-0.86-0.3-1.29-0.45c-1.07-0.07-2.13-0.14-3.2-0.21c-0.57,0.05-1.18,0.18-1.49,0.64c-1.23-0.08-2.73,0.16-3.84-0.43   c-0.36,0.28-0.71,0.57-1.07,0.85c-1.71,0-3.41,0-5.12,0c-1.98,0.61-3.96,1.22-5.93,1.83c-0.79,0.39-1.59,0.77-2.38,1.16   c-1.6,0.34-4.08,0.12-5.54-0.64c-2.46,0.15-5.01,0.29-7.41-0.12c-0.86,0.02-1.72,0.04-2.58,0.06c-1.38,0.15-2.61,0.31-3.92,0.08   c-1.11-0.19-3.31,0.15-4.21-0.45c-1.6,0.21-2.91-0.05-4.47,0c-0.67,0.02-1.71,0.09-2.14-0.43c-0.87,0.14-2.34,0.53-2.98-0.21   c-0.93,0.22-2.63,0.51-3.41-0.21c-0.36,0.07-0.71,0.14-1.07,0.21c-0.95-0.21-1.9-0.42-2.85-0.63l-0.35,0.63   c-0.07-0.07-0.14-0.14-0.21-0.21c0.04,0.14,0.07,0.27,0.11,0.41c1.11,4.25,1.79,8.6,3.09,12.81c0.02,0.48,0.05,0.97,0.07,1.45   c0.33,1.01,0.52,2.97,1.21,3.66c0.5,0.21,0.99,0.43,1.49,0.64c0.92,1.07,1.85,2.13,2.77,3.2c0.25,0.11,0.51,0.22,0.76,0.33   c0.24,0.32,0.49,0.64,0.73,0.95c0.9,0.68,2.29,1.28,2.77,2.34c1.05,0.54,2.93,1.92,3.14,3.02c0.16,1.14-1.29,3-1.86,4.01   c-0.29,0.5-1.07,1.23-0.66,1.68c0.43-0.14,0.86-0.27,1.3-0.41c0.77-0.44,1.55-0.89,2.32-1.33c5.58-2.02,11.72-2.57,17.55-3.6   c2.41-0.46,4.82-0.91,7.23-1.37c3.55-1.1,7.81-1.81,11.48-2.02c1.33-0.07,2.5-0.37,3.84,0c3.06-1.2,4.61-1.74,7.9-1.44   c1.08,0.1,1.68-0.64,2.76-0.23c2.49,2.9,4.97,5.8,7.46,8.7c0.35-0.21,1.01,0.62,1.25,0.89c1.14,1.24,2.28,2.36,3.62,3.4   c5.47,4.04,10.94,8.09,16.41,12.13c1.26,0.67,2.52,1.34,3.78,2.01c0.74,0.68,1.48,1.35,2.22,2.03c0.65,0.41,1.3,0.82,1.95,1.23   c1.3,1.04,2.81,1.87,4.24,2.61c0.55-0.62,4.23-0.4,5.34-0.4c0.55,0,0.99,0.12,1.25-0.39c3.14-0.52,5.61-2.92,8.77-1.55   c1.7,0.74,3.17,1.94,4.6,3.12c-0.01-0.92,0.92-1.74,1.62-2.47c1.18-1.41,2.36-2.82,3.54-4.24c0.51-0.75,1.37-2.08,1.31-3.03   c1.4-2.31,2.2-5.82,2.33-8.57c0.22-0.69,0.44-1.39,0.67-2.08c0.21-1.35,0.43-2.7,0.64-4.05   C265.93,239.35,266.48,237.32,266.72,236.51z"/>
            <circle cx="211.84" cy="230.65" r="1.586"/>
        </g>
        <g id="__Yeşilova">
            <path d="   M260.75,85.81c-0.24-0.77-0.47-1.55-0.71-2.32c-0.51-1.61-0.98-7.14-0.18-8.41c0-0.65,0.27-2.24,0.67-2.75c0-1.05,0-2.1,0-3.14   c-0.2-1.55-0.96-3.15-0.27-4.65c-0.79-0.2-1.58-0.41-2.36-0.61c-0.69,0.12-1.37,0.24-2.06,0.36c-1.11-0.58-2.17,0.11-3.4,0.21   c-1.69,0.46-3.68,0.34-5.37,0.79c-0.92,0.22-1.85,0.44-2.77,0.65c-3.75,2-7.51,4.01-11.26,6.01c-0.64,0.57-1.28,1.14-1.92,1.71   c-2.03,2.37-4.07,4.74-6.1,7.11c-0.55,2.24-1.09,4.48-1.64,6.71c-0.91,1.66-1.82,3.32-2.73,4.98c-1.32,1.76-3.14,2.64-5.09,3.58   c-0.68,1.98-3.09,2.3-4.69,3.62c-0.92,0.07-1.85,0.14-2.77,0.21c-1.99-0.07-3.98-0.14-5.97-0.21c-1.92-0.12-3.84-0.24-5.75-0.35   c-5.61-0.02-11.23-0.05-16.84-0.07c-0.32,0.67-1.82,0.86-2.5,1.24c-2.5,1.79-5.01,3.58-7.51,5.37c-1.03,0.39-1.9,1.19-2.8,1.89   c-1.13,0.79-2.25,1.59-3.38,2.38c-0.7,0.81-1.4,1.62-2.1,2.43c-0.97,1.14-2.4,2.05-2.46,3.52c0,0.75,0.78,1.57,1.52,1.86   c0.59,0.66,1.18,1.33,1.77,1.99c0.85-0.01,1.01,0.42,1.71,0.85c0.42,0,3.08,1.36,3.41,1.71c2.62,2.73,2.31,4.12,2.54,7.47   c-1.13-0.14-2.26-0.29-3.4-0.43c-2.2-0.1-4.91,1.76-7.03,1.49c-2.47-0.31-5.12-0.31-7.46-1.07c-0.58-1.07-3.42-3.43-4.69-3.62   c-2.26-0.35-4.67-0.72-7.03-0.64c-3.51-0.29-7.02-0.57-10.52-0.86c-0.97,0-2.86,4.08-2.94,5.12c-2.76,3.45-1.11,7.48,0.03,11.3   c0,0.5,0,0.99,0,1.49c-0.56,1.64-1.12,3.28-1.69,4.92c-0.31,0.57-4.56,2.44-5.53,2.85c-0.43,0.21-0.67,1.53-0.87,2.05   c-0.15,1.42-0.3,2.83-0.45,4.25c-0.22,0.94-0.44,1.87-0.66,2.81c0.02,0.61,0.97,1.81,1.69,1.96c0.84,1.02,1.93,1.74,3.02,2.47   c2.91,0.57,5.83,1.14,8.74,1.71c1.62,1.86,3.16,3.9,4.26,6.18c0.47,0.29,1.94,3.24,1.99,3.9c-0.09,0.34-0.19,0.67-0.28,1.01   c-0.28,0.36-0.57,0.71-0.85,1.07c-1.1,0.22-1.63,1.5-2.34,2.13c-0.57,0.43-1.14,0.85-1.71,1.28c-0.02,0.66-0.34,1.03-0.74,1.55   c-0.3,0.05-0.61,0.1-0.91,0.15c-0.35-0.65-0.69-1.3-1.04-1.95c-0.03-0.06-0.05-0.12-0.08-0.17c-0.15,0.09-0.31,0.19-0.46,0.28   c-1.46-0.76-3.71-0.21-4.83,0.74c0.48,0.37,0.97,0.74,1.45,1.11c-0.14,0.36,0.04,0.81,0.19,1.09c0.6,1.34-1.64,4.54-2.24,5.92   c-0.59,1.3,0.61,1.93,1.2,3.02c0.14,1.14,0.28,2.27,0.43,3.41c0.21,0.78,0.43,1.56,0.64,2.34c-0.19,0.46,0.07,0.82,0.21,1.28   c-0.22,0.56,0.36,1.57,0.57,2.16c0.6,1.67-0.01,2.87,1.48,4.02c0.95,0.21,1.9,0.42,2.85,0.63c0.36-0.07,0.71-0.14,1.07-0.21   c0.78,0.72,2.48,0.43,3.41,0.21c0.64,0.74,2.11,0.35,2.98,0.21c0.43,0.52,1.47,0.45,2.14,0.43c1.56-0.05,2.87,0.21,4.47,0   c0.9,0.6,3.1,0.26,4.21,0.45c1.31,0.23,2.54,0.07,3.92-0.08c0.86-0.02,1.72-0.04,2.58-0.06c2.4,0.41,4.96,0.27,7.41,0.12   c1.46,0.75,3.94,0.98,5.54,0.64c0.79-0.39,1.59-0.77,2.38-1.16c1.98-0.61,3.96-1.22,5.93-1.83c1.71,0,3.41,0,5.12,0   c0.36-0.28,0.71-0.57,1.07-0.85c1.11,0.59,2.61,0.35,3.84,0.43c0.31-0.46,0.92-0.59,1.49-0.64c1.07,0.07,2.13,0.14,3.2,0.21   c0.43,0.15,0.86,0.3,1.29,0.45c1.13-0.01,2.26-0.01,3.4-0.02c2.74,0.68,5.63,0.52,8.31,0c0.63,0.59,2.03-0.03,2.77-0.21   c1.49,0.07,2.98,0.14,4.48,0.21c0.64-0.21,1.28-0.43,1.92-0.64c0.85,0,1.71,0,2.56,0c1.92-0.44,3.84-0.89,5.76-1.33   c2.25-0.3,4.49-0.6,6.74-0.89c5.28-1.39,10.56-2.78,15.85-4.17c4.19-0.05,8.38-0.1,12.57-0.15c0.43,0.05,0.86,0.1,1.29,0.15   c-0.02-0.62,0.1-1.14-0.27-1.65c0.27-0.63,0.41-1.29,0.27-1.97c-0.29-1.45-1.01-3.18-0.64-4.69c0.53-2.2-0.14-5.47-0.85-7.67   c0.42-0.46,0.29-1.78,0.09-2.36c0.04-0.85,0.08-1.69,0.12-2.54c-0.07-0.43-0.14-0.85-0.21-1.28c0.58-0.85-0.41-4.03-0.64-5.12   c0.29-0.43,0.16-1.67,0.2-2.35c0.12-1.79,0.21-3.33,0.57-5.14c0.13-0.63-0.27-0.29-0.71-0.77c-0.38,0.12-0.75,0.25-1.13,0.37   c-0.5,0.07-0.99,0.14-1.49,0.21c-0.21-0.42-0.57-0.43-1-0.61c-0.24-0.37-0.47-0.73-0.71-1.1c-1.74-0.58-1.85-3.57-1.71-5.12   c0.26-0.43,0.52-0.87,0.78-1.3c-0.3-0.26-0.41-0.42-0.6-0.9c-1.22-3.4,2.8-7.47,5.57-8.46c0.71,0.07,1.42,0.14,2.13,0.21   c0.98-1.52-0.35-3.09,0.21-4.69c0.77-2.19,0.61-5.92,0.21-8.31c0.72-0.6,0.5-3.14,0.61-4.08c0.13-1.19,0.16-2.31,0.25-3.6   c-0.57-1.92-1.14-3.84-1.71-5.76c0.21-0.34,0.08-3.3-0.2-3.68c-0.15-2.4-0.29-4.8-0.44-7.19c0.07-0.71,0.14-1.42,0.21-2.13   c0.21-0.78,0.43-1.56,0.64-2.34c0.99-0.59,1.17-2.25,1.71-3.2c0.31-0.28,0.61-0.56,0.92-0.85C262.06,95.2,261.06,90.6,260.75,85.81   z M180.82,172.14c-0.62,0.5-1.24,0.99-1.87,1.49c-0.19,0.77-0.68,0.88-0.48,1.71c-1.02,0.69-2.35,2.06-3.6,1.82   c-3.02-0.6-3.95-1.07-5.78-3.46c-0.42-0.24-0.85-0.47-1.27-0.71c-0.99-0.07-1.98-0.14-2.98-0.21c-1.21-0.92-2.42-1.85-3.63-2.77   c-0.28-0.43-0.57-0.85-0.85-1.28c0.07-0.36,0.14-0.71,0.21-1.07c-0.28-0.28-0.57-0.57-0.85-0.85c-1.03,1.03-3.54-0.15-3.78-1.33   c-0.09-0.13-0.18-0.25-0.27-0.38c0.09-0.45,0.26-0.65,0-1.07c0.21-0.43,0.43-0.85,0.64-1.28c0.19-0.85,0.37-1.71,0.56-2.56   c0.17-0.5,0.34-0.99,0.51-1.49c-0.13-0.8-0.71-1.84-1.49-2.13c-0.37-0.91-0.59-2.31,0-3.2c-0.05-0.42-0.1-0.84-0.15-1.27   c0.23-0.65,0.94-1.81,1.63-1.98c0.7-0.15,1.3-0.59,1.94,0.05c0.36-0.14,0.71-0.28,1.07-0.43c0.55-0.82,1.5-1.23,1.92-1.92   c1.6-0.1,3.21-0.21,4.9,0c0.14-0.14,0.28-0.28,0.43-0.43c0.5,0.07,0.99,0.14,1.49,0.21c1.42,0.71,2.84,1.42,4.26,2.13   c0.89,0.54,2.58,2.58,3.41,2.77c0.5,0.71,0.99,1.42,1.49,2.13c0.57,2.06,0.68,3.59,0.68,5.69c0.7,1.13,0.29,4.35,0.01,5.61   c-0.11,0.5,0.07,1.1-0.27,1.49c0.33,1.11,1.02,2.93,2.13,3.41c-0.04,0.18-0.09,0.35-0.13,0.53   C180.55,171.84,180.42,171.69,180.82,172.14z M203.43,113.31c-0.64,0.75-3.7,3-4.73,2.42c-0.99-0.59-1.97-1.19-2.96-1.79   c-1.22-0.19-2.77,0.26-3.84-0.43c-0.87,0.64-1.75,1.43-2.73,1.6c-0.34-0.04-0.68-0.08-1.02-0.13c-0.42-0.57-2.08-0.41-2.86-0.41   c0.47-0.26,1.94-1.28,1.61-1.89c-0.81-1.49-1.86-3.18-0.25-4.4c1.3-0.86,2.61-1.71,3.91-2.57c0.59,0.52,1.18,1.04,1.77,1.57   c0.72,0.14,2.05,0.65,2.34,1.32c0.36,0.07,0.71,0.14,1.07,0.21c0-0.69,1.35-1.07,1.92-1.07c0.67-0.67,1.93-0.08,2.56-0.64   c0.41,0.16,0.64,0.36,1.07,0.21c0.73,0.64,2.15,1.11,2.21,1.92C203.47,110.61,203.45,111.96,203.43,113.31z"/>
            <circle cx="189.88" cy="176.72" r="1.586"/>
        </g>
        <g id="__Burdur">
            <path d="   M413.16,113.95c0.39-0.89,1.57-3.93,2.34-4.26c0.91-1.27,2.59-2.88,2.56-4.48c0.52-0.28,1.41-1.54,1.74-1.34l-0.89-0.58   c-0.61-0.61-1.24-0.85-1.92-1.28c-0.36-0.43-0.71-0.85-1.07-1.28c-1.29-0.84-2.15-1.64-3.37-2.61c-0.39-0.31-1.52-1.87-1.96-1.44   c0-0.69-2.13-2.43-2.8-2.63c-1.91-1.96-3.82-3.93-5.73-5.9c-0.36-2.2-0.71-4.41-1.07-6.61c-0.13-1.72-0.76-3.19-0.43-4.9   c0-0.21-0.43-1.51-0.43-1.71c0-1.86-1.02-2.95-1.28-4.69c-0.78-4.12-1.56-8.24-2.34-12.36c-0.5-0.64-0.99-1.28-1.49-1.92   c-0.62-1.02-0.74-2.33-1.71-3.2c-1.09-0.99-2.8-1.49-4.26-1.49c-1.05-1.05-4.66-1.28-6.19-1.28c-0.5,0.07-0.99,0.14-1.49,0.21   c-0.08,0.09-0.16,0.17-0.24,0.26c-1.45,0.22-4.2-0.15-5.14,1.19c-0.91,0.13-2.21,0.17-2.71,1.05c-2.43,0.29-4.86,1.6-6.65,3.28   c-0.81,0.15-1.4,0.72-2.1,1.26c-1.08,0.08-2.05,0.96-2.77,1.71c-1.21,0.2-4.33,1.79-5.33,2.56c-1.19,0-1.96,0.9-2.98,1.28   c-0.77,0.29-1.39,0.43-2.13,0.85c-0.14,0.21-0.28,0.43-0.43,0.64c1.42-0.36,2.84-0.71,4.26-1.07c0.85-0.36,1.71-0.71,2.56-1.07   c1.11-0.37,2.22-0.74,3.32-1.11c0.88-0.34,1.76-0.68,2.64-1.02c1.55-0.34,3.08-0.56,4.67-0.3c0.79,0.13,1.7,1.28,2.06,2.03   c0.39,0.85-0.91,2.36-1.43,2.94c-0.35,0.57-0.7,1.15-1.05,1.72c-0.74,0.42-1.47,0.83-2.21,1.25c-1.07,0.91-1.68,2.51-3.11,2.92   c-0.22,0.24-0.43,0.49-0.65,0.73c-0.71,0.5-1.42,0.99-2.13,1.49c-0.54-0.15-1.62,0.18-2.13,0.43c-0.53-0.22-5.32-0.04-5.97,0.21   c-0.92,0.21-1.85,0.43-2.77,0.64c-0.43,0.21-0.85,0.43-1.28,0.64c-0.64,0.57-1.28,1.14-1.92,1.71c0,0.69-1.06,2.21-1.49,2.77   c-0.9,1.59-1.8,3.18-2.7,4.77c0.51,1.97,0.85,2.22,0.27,4.38c-0.18,0.61-0.78,0.33-1.41,0.87c-0.76,0.91-1.52,1.82-2.28,2.73   c-1.22,1.79-1.38,3.83-2.4,5.58c-0.64,0-0.95,0.79-1.28,1.28c-0.93-0.4-1.83,1.06-2.34,1.71c-1.14,0.78-2.27,1.56-3.41,2.34   c-0.57,0.25-1.14,0.5-1.71,0.75c-0.64,0.75-1.28,1.49-1.92,2.24c-1.4,0.28-2.33,1.55-3.41,2.34c-0.54-0.05-0.65,0.15-1.07,0.43   c-2.84-0.08-6.18,0.55-8.53,2.13c-1.05,0.71-2.26,0.77-3.2,1.71c-1.87,0.08-3.05,1.27-4.54,2.24c-0.27,0.18,0.13,0.52,0.28,0.74   c-0.06,0.77-0.13,1.55-0.19,2.32c-0.11,1.05-0.56,1.1-1.3,1.73c-1.53,2.13-5.15-0.81-6.82-1.07c-1.83-0.27-3.21,1.12-4.37,2.24   c-0.68-0.1-1.36-0.2-2.04-0.29c-1.64-0.31-3.69-1.73-4.68-3.02c-0.12-0.37-0.24-0.73-0.36-1.1c-0.24-0.64,0.91-2.19,1.45-2.7   c0.59-0.55,1.21-0.39,1.89-0.71c1.43-0.68,2.76-2.19,3.34-3.62c0.01-0.35,0.02-0.69,0.03-1.04c0.12-1.84-0.21-2.93-1.24-4.47   c0.09-0.16,0.18-0.32,0.27-0.48c-0.21-1.99,2.39-2.36,3.44-3.61c0.72-0.86,0.51-3.15,0.54-4.22c0.07-0.79,1.06-1.68,1.79-1.77   c1.44-1.86,4.09-2.81,5.7-4.42c-0.07-0.36-0.14-0.71-0.21-1.07c0.54-0.36,0.45-0.88,0.64-1.49c0.77-0.48,1.12-1.55,1.49-2.34   c0.52-0.19,0.5-0.46,0.85-0.85c0.98-0.3,1.41-1.1,2.13-1.49c0.92-0.57,1.85-1.14,2.77-1.71c1.11,0.08,3.08-0.49,4.05-1.07   c0.43-0.57,0.85-1.14,1.28-1.71c0.59-0.2,1.18-0.39,1.77-0.59c0.36-1.31,0.96-2.31,1.65-3.46c0.37,0.09,2.84-0.56,3.2-0.85   c0.44-0.49,0.87-0.98,1.31-1.47c0.41-0.51-0.22,0.02-0.45-0.67c-0.31-0.7-1.83-0.66-2.58-0.89c-2.12-0.67-4.24-1.34-6.36-2   c-0.94-0.32-3.86-1.36-4.43-1.98c-0.65,0.09-2.95-0.33-3.27-0.75c-0.99-0.18-1.98-0.37-2.96-0.55c-0.43,0.07-0.85,0.14-1.28,0.21   c-1.33,0.96-3.62,0.68-4.68,1.94c-0.65,0.13-1.77,0.24-2.22,0.69c-1.24,0.17-2.35-0.21-3.55,0.14c-0.84,0.52-1.67,1.04-2.51,1.56   c-0.7,0.45-1.15,0.75-1.96,1c-0.22,0.47-0.75,0.72-1.28,0.85c-2.13,0.07-4.26,0.14-6.39,0.21c-0.71-0.07-1.42-0.14-2.13-0.21   c-2.1-2.1-4.6-3.58-7.25-4.9c-0.58,0.21-1.16-0.38-1.71-0.64c-1.46,0.3-2.95-0.7-4.34-0.96c-0.74-0.14-1.55-0.06-2.2,0.31   c-0.54-0.13-1.08-0.26-1.62-0.39l0.42,0.45c-0.68,1.5,0.07,3.1,0.27,4.65c0,1.05,0,2.1,0,3.14c-0.4,0.51-0.67,2.1-0.67,2.75   c-0.8,1.27-0.33,6.8,0.18,8.41c0.24,0.77,0.47,1.55,0.71,2.32c0.31,4.79,1.31,9.39-0.15,14.29c-0.31,0.28-0.61,0.56-0.92,0.85   c-0.54,0.95-0.71,2.61-1.71,3.2c-0.21,0.78-0.43,1.56-0.64,2.34c-0.07,0.71-0.14,1.42-0.21,2.13c0.15,2.4,0.29,4.8,0.44,7.19   c0.28,0.38,0.41,3.34,0.2,3.68c0.57,1.92,1.14,3.84,1.71,5.76c-0.08,1.28-0.12,2.41-0.25,3.6c-0.1,0.94,0.12,3.48-0.61,4.08   c0.4,2.39,0.56,6.12-0.21,8.31c-0.55,1.56,0.72,3.11-0.16,4.6c0.81,0.38,2.83,1.31,2.98,2.03c0.11,0.69,0.84,2.98-0.1,3.26   c-0.27,0.12-0.53,0.23-0.8,0.35c-0.45-0.07-2.21-0.37-2.51,0.22l-0.03,0.5c0.08,0.73,0.47,0.8,1.22,1.2   c0.53,0.26,1.1,0.07,1.53,0.43c0.4-0.11,0.8-0.22,1.21-0.33c1.36,0.97,2.96,2.72,1.9,4.54c-0.47,0.76-1.66,2.3-2.68,2.18   c-0.58,0.48-1.16,0.96-1.75,1.44c-0.61,0.31-1.31,1.1-2.08,0.57c-0.01,0-0.01-0.01-0.02-0.01l-0.08,1.18   c-0.36,1.8-0.46,3.34-0.57,5.14c-0.04,0.68,0.09,1.93-0.2,2.35c0.23,1.09,1.22,4.26,0.64,5.12c0.07,0.43,0.14,0.85,0.21,1.28   c-0.04,0.85-0.08,1.69-0.12,2.54c0.19,0.58,0.33,1.91-0.09,2.36c0.71,2.2,1.39,5.48,0.85,7.67c-0.37,1.51,0.35,3.24,0.64,4.69   c0.14,0.69,0.01,1.34-0.27,1.97c0.37,0.52,0.25,1.03,0.27,1.65l0.15,0.38c-0.22-0.91,0.81-0.72,1.55-1.23   c1.4,0.6,2.89,0.16,4.48,0.21c0.59-0.46,1.81-0.12,2.56-0.21c0.15-0.55,0.58-0.77,1.07-1.07c1.2,0.45,2.43,0.04,3.62,0   c0.48-0.55,3.18-0.96,4-1.15c2.15-0.61,4.3-1.22,6.45-1.83c0.64-0.36,1.28-0.71,1.92-1.07c0.85,0.28,0.44,0.33,1.24-0.15   c1.2-0.25,1.23-0.09,3.45-0.92c-0.14,0-0.28,0-0.43,0c1.91-0.56,3.8-1.22,5.76-1.28c0.78-0.22,1.56-0.45,2.34-0.67   c2.13-0.38,3.38-0.71,5.55-0.18c0.43,0.21,0.85,0.43,1.28,0.64c0.71,0.57,1.42,1.14,2.13,1.71c2.2,1.92,4.41,3.84,6.61,5.76   c0.5,0.28,0.99,0.57,1.49,0.85c0.22,0.76,1.05,1.14,1.71,1.49c0.13,0.63,1.05,1.18,1.49,1.71c0.55,1.21,1.11,2.43,1.66,3.64   c0.87,2.55,1.74,5.1,2.6,7.65c0.85,2.06,1.71,4.12,2.56,6.18c1.13,4.26,2.25,8.53,3.38,12.8c0.27,1.22,0.53,2.44,0.8,3.66   c0.58,2.34,1.16,4.67,1.75,7.01c0.84,2.34,1.41,5.17,1.55,7.67c0.05,1.21,0.2,0.63,0.2,0.63c0.24-0.47,0.49-0.93,0.73-1.4   c0.89-1.89,1.78-3.78,2.66-5.67c0.3-0.84,0.6-1.67,0.9-2.51c0.25-1.2,1.58-2.38,1.39-3.65c0.81-1.4,1.01-2.86,1.63-4.32   c0.22-0.53,0.86-1.22,0.66-1.74c1.57-3.86,3.14-7.71,4.7-11.57c1.17-2.16,5-1.38,7.18-1.32c1.09,0.03,1.85,0.24,2.94,0.41   c0.78-0.42,1.93-0.11,2.77,0c0.88-0.75,3.55-0.5,4.69-0.43c0.53-0.44,1.48-0.15,2.13-0.43c1.35-0.58,2.85-0.74,4.26-1.49   c0.03-0.38,1.91-1.86,2.34-2.34c0.11-0.65,0.21-1.29,0.32-1.94c0.46-2.54,1.55-4.45,3.3-6.37c0.35-0.92,0.71-1.85,1.07-2.77   c0.59-2.09,3.01-5.83,5.12-6.61c1.28-0.36,2.56-0.71,3.84-1.07l-0.15-1.75c-0.19-1.13-0.39-2.26-0.58-3.4   c-0.68-2.69-1.36-5.38-2.04-8.07c-0.57-1.56-1.14-3.13-1.71-4.69c-0.43-0.92-0.85-1.85-1.28-2.77c-0.62-0.71-1.24-1.41-1.86-2.12   c-0.4-0.75-0.39-2.58,0.13-3.23c0-2.51,1.26-4.59,1.73-7.01c0.32-0.41,0.63-0.82,0.95-1.23c1.06-1.45,2.4-2.88,3.82-3.99   c0.33-0.32,0.66-0.64,0.99-0.96c2.83-1.13,4.96-4.38,7.61-6.1c1.65-0.88,3.31-1.76,4.96-2.64c0.65-0.02,1.35-0.21,1.8-0.75   c0.5,0.07,1.01,0.14,1.51,0.21c2.81,1.07,5.32,0.61,8.2,0.97c0.77-0.58,3.47-0.85,4.48-0.85c0.92-0.43,1.85-0.85,2.77-1.28   c0.28-0.36,0.57-0.71,0.85-1.07c0.21-0.07,0.43-0.14,0.64-0.21c0.21-0.21,0.43-0.43,0.64-0.64c0.08-0.77,0.88-1.33,1.53-1.63   l0.53-0.61c-0.76-0.96-1.51-1.92-2.27-2.88c-0.58-0.58-1.56-1.3-1.71-2.13c-1.02-0.99-1.91-2.14-2.56-3.41   c-0.63-1.22-0.31-2.76-0.43-4.05c-0.15-0.62-0.3-1.24-0.45-1.86c-0.12-1.11-0.24-2.22-0.35-3.33c0.04-0.53,0.07-1.05,0.11-1.58   c-0.14-1.31-0.41-2.79-0.15-4.1C411.91,116.75,411.86,114.64,413.16,113.95z"/>
            <circle cx="355.71" cy="98.07" r="1.586"/>
        </g>
        <g id="__Bucak">
            <path d="    M532.3,207.28c-0.3,0.88-0.99,1.73-1.49,2.58c-0.07,0.36-0.14,0.71-0.21,1.07c0.33,0.95,0.87,1.74,0.87,2.78    c0,0.55-0.48,0.92-0.65,1.49c-0.16,0.51,0.67,2.32,0.85,2.77c0.73-0.09,0.97-1.62,1.71-1.71c0.17,0.68,0.47,1.78,0.97,2.24    c0.21,0.21,0.81-2.52,0.9-2.91c0.35-0.23,0.69-0.46,1.04-0.69c-0.2-0.31-0.36-0.61-0.35-0.77c-1.54-1.76-2.86-4.31-3.5-6.53    C532.4,207.48,532.35,207.38,532.3,207.28z"/>
            <path d="    M549.79,228.19c-0.72-1.01-3.33-4.24-3.41-5.33c-1.62-1.08-3.03-2.15-4.74-3.13c-0.48-0.24-0.96-0.47-1.44-0.71    c-0.64-0.68-1.27-1.31-1.91-1.93c0,0-0.01,0.01-0.01,0.01c0.27,0.47,0.01,0.61-0.21,1.07c0.14,0.36,0.28,0.71,0.43,1.07    c-0.74,0.3-0.83,1.32-1.19,1.96c-0.17,0.33,0.15,0.16,0.39,0.29c0.72,0.36,0.72,0.08,1.44-0.33c0,1.57,0.08,2.38,1.49,3.2    c-0.3,0.68,0.23,1.48,0.43,2.13c1.19,0.54,1.74,2.89,1.92,4.05c-0.27,0.58-0.24,1-0.6,1.55c-0.08,0.12-0.17,0.25-0.25,0.37    c0.23-1.35-0.97-3.69-1.71-4.69c-0.72-0.91-2.46-1.58-3.62-1.71c-0.36,0.14-0.71,0.28-1.07,0.43c-0.21-0.35-0.43-0.71-0.64-1.07    c-0.18,0.3-0.36,0.61-0.54,0.91c0.03,0.17,0.06,0.34,0.09,0.51c0.27,1.05,0.63,0.49,1.51,0.28c-0.04,0.16,0.04,1.55,0,1.71    c0.24,1.07-1.02,0.03-1.92,0c0.07,0.71,0.14,1.42,0.21,2.13c0.09-0.06,1.55,0.17,1.92,0.21c-0.03,1.67-2.51-0.3-1.07,3.2    c-0.2,0.61-1.43-0.79-1.72-1.08c-1.31-1.31-2.86-2.48-4.46-3.42c-0.21-0.14-0.43-0.27-0.64-0.41c-0.35,0.11-2.68,0.84-1.45,1.01    c1.29,0.13,2.99,0.84,4,1.76c0.43,0.71,0.85,1.42,1.28,2.13c0.76-0.02,1.46,1.19,1.92,1.71c0.84,0.2,3.01,0.49,3.62,0.85    c0.25,0.16-0.67,0.27-0.43,0.43c-0.77-0.06-1-0.38-1.71,0c0.41,0.82,0.19,1.54-0.27,2.31c-0.23,0.37-1.36-1.77-1.7-2.28    c-0.31-0.46-0.1,0.11-0.55,0.11c-1.35,0.05-0.44,1.39-0.25,2.2c0.43,1.28,0.85,2.56,1.28,3.84c0.56,0.2,0.59,0.56,0.85,1.07    c-0.19,0.39,0.02,0.69,0.15,1.09c-1.19-1.78-2.38-3.57-3.56-5.35c-0.95-0.38-0.93-0.87-0.64-1.71c-0.31-0.38-0.12-0.81,0-1.28    c-0.64-1.14-1.28-2.27-1.92-3.41c-1.14-0.5-2.27-0.99-3.41-1.49c-0.21-0.35-0.43-0.71-0.64-1.07c-0.18,0.26-0.35,0.52-0.53,0.77    c-0.36-0.3-0.72-0.59-1.07-0.89c-0.34-0.31,0.51-0.93,0.75-1.17c-0.25-0.31-0.51-0.62-0.76-0.93c-0.08-0.13,0.74-0.56,0.97-0.78    c0.43-0.21,0.85-0.43,1.28-0.64c-0.02-0.93,0.75-1.36,1.49-1.71c0.46-0.78,0.28-1.96-0.03-2.77c-0.22-0.53-0.24-0.21-0.62-0.45    c-1.47-0.94-3.32,0.88-4.86,1.41c-0.45,0.18-0.27,1.92-0.23,2.48c-0.4,0.71-0.84,0.97-1.41,1.55c-0.04,0.04-1.17-0.55-0.76-0.49    c0.43-0.44,0.87-0.87,1.3-1.31c-0.07-0.35-0.14-0.71-0.21-1.07c-0.98-0.43-1.64-1.62-1.7-2.57c0-0.01,1.38,0.53,1.91,0.65    c-0.35-0.71-0.71-1.42-1.07-2.13c1.28,0.57,2.11,1.32,3.6,0.97c1.1-0.3,1.74-2.35,2.07-3.3c0.03-0.08,0.06-0.15,0.09-0.23    c-0.73-0.43-0.98-0.03-1.23-1.32c-0.39-2.04-0.97-2.5-2.4-4.01c0.64-1.42-2.07-3.76-3.23-4.19c-0.33,0.11-0.65,0.22-0.98,0.33    c-0.75,0.28-0.91,1.51-1.12,2.15c-0.3-0.24-0.79-0.96-0.45-1.2c0.46-1.25,1.35-2.04,2.36-2.85c-0.12-0.25-0.24-0.5-0.35-0.75    c-0.18-0.08-0.36-0.16-0.53-0.23c-1.28-0.17-1.81,0.42-2.52,1.41c-0.14-0.03-0.28-0.07-0.41-0.1c-0.22-0.04-0.44-0.08-0.65-0.11    c0.15-0.14,0.29-0.29,0.44-0.43c1.22-0.61-0.04-1.46-0.65-1.91c0.93-2.02-1.93-2-2.46-3.48c-0.18-0.56,0.5-0.73,0.97-0.99    c0.65,0.57,1.16,0.21,1.92,0.21c1.75,1.75,0.98,1.21,3.2,0.85c0.21,0,0.43,0.76,0.64,1.07c-0.14,0.36-0.28,0.71-0.43,1.07    c0.43,0.01,1.57,0.22,1.39-0.27c0.17-0.81-0.13-1.18-0.54-1.86c0.7,0.16,1.12,0.42,1.71,0.85c0.75-0.65,1.02,0.19,1.55,0.33    c0.34,0.1,0.67,0.2,1.01,0.31c0.37,1.18,1.65,1.92,2.56,2.77c0.12,0.25,0.23,0.5,0.35,0.75c0.48-0.44,0.95-0.88,1.43-1.32    c1.29-1.07,1.53-2.55,1.68-4.1c-0.37-0.44-0.58-0.74-0.51-1.31c0.02-0.14,0.03-0.28,0.05-0.41c-0.33,0.14-0.82,0.76-0.91,0.44    c-0.12-0.57-0.25-1.15-0.37-1.72c-0.24-0.24,0.91,0.27,1.49,0.39c0.09,0.02,0.16,0.05,0.23,0.08c-0.07-0.15-0.16-0.31-0.28-0.47    c-0.27-0.14-0.54-0.28-0.81-0.43c-1.49-2.27-2.98-4.55-4.48-6.82c-1.81-2.44-3.61-4.87-5.42-7.31c-0.65-0.86-1.3-1.72-1.95-2.58    c-0.68-1.37-1.62-2.46-2.65-3.54c-0.94-1.55-1.88-3.1-2.82-4.65c-1.74-2.51-1.96-5.01-2.93-7.71l-1.07-1.92    c-0.19,0.27-1.31,0.58-1.49,0.85c-2.82,0.92-5.56,1.39-8.51,1.3c-1.81-0.06-3.39,0.03-5.16,0.36c-0.56,0.09-1.12,0.17-1.68,0.26    c-1.31-0.08-5.16-0.26-6.18,0.43c-0.71-0.07-1.42-0.14-2.13-0.21c-1.31-1.4-2.99-3.06-4.93-3.24c-2.26,0.01-4.53,0.03-6.79,0.04    c-2.2-0.36-4.41-0.71-6.61-1.07c-1.38,0.02-3.48-0.59-4.69,0.21c-1.42,0-2.84,0-4.26,0c-1.28-0.14-2.56-0.28-3.84-0.43    c-0.69-0.25-1.7-0.71-2.34-0.21c-1.24-0.39-2.49-0.36-3.73-0.75l-0.53-0.32c-0.95,1.19-1.85,1.33-2.79,2.28    c-1.13,0.94-2.26,1.89-3.39,2.83c-0.64,0.57-1.28,1.14-1.92,1.71c-1.24,1.55-2.35,2.92-3.84,4.26c-0.69,0.49-1.38,0.97-2.07,1.46    c-0.83,0.79-1.66,1.59-2.49,2.38c-2.49,2.75-5.93,5.2-9.38,6.63c-2.16,0.8-4.33,1.61-6.49,2.41c-0.65,0.17-1.78,0.4-2.37,0.12    c-0.99,0.37-1.52,0.31-2.56,0.21c-1.18,0.88-3.57,1.8-5.12,1.71c-1.14,0.78-2.27,1.56-3.41,2.34c-1.92,0.21-3.84,0.43-5.76,0.64    c-1.07,0.5-2.13,0.99-3.2,1.49c-0.43-0.07-0.85-0.14-1.28-0.21c-1.12,0.63-3.68,2.42-3.2,3.84c-1.28,0.35-2.56,0.71-3.84,1.07    c-2.11,0.78-4.52,4.51-5.12,6.61c-0.36,0.92-0.71,1.85-1.07,2.77c-1.75,1.92-2.85,3.83-3.3,6.37c-0.11,0.65-0.21,1.29-0.32,1.94    c-0.43,0.49-2.32,1.97-2.34,2.34c-1.41,0.75-2.91,0.91-4.26,1.49c-0.65,0.28-1.6-0.02-2.13,0.43c-1.14-0.07-3.81-0.32-4.69,0.43    c-0.84-0.11-1.99-0.42-2.77,0c-1.1-0.17-1.86-0.38-2.94-0.41c-2.18-0.06-6.01-0.84-7.18,1.32c-1.57,3.86-3.14,7.71-4.7,11.57    c0.2,0.52-0.44,1.21-0.66,1.74c-0.62,1.46-0.82,2.91-1.63,4.32c0.19,1.27-1.14,2.46-1.39,3.65c-0.3,0.84-0.6,1.67-0.9,2.51    c-0.89,1.89-1.78,3.78-2.66,5.67c-0.24,0.47-0.49,0.93-0.73,1.4c0.23,0.08,0.46,0.17,0.69,0.25c1.34,0.38,2.85,0.08,4.21-0.04    c0.71,0,1.42,0,2.13,0c0.92,0.19,2.79,0.85,3.62,0.43c2.2,0.36,4.41,0.71,6.61,1.07c2.48,0.56,4.96,1.13,7.44,1.69    c4.41,0.08,8.82,0.15,13.24,0.23c2.4,0,4.76-0.1,7.03,0c1.49,0.28,2.98,0.57,4.48,0.85c0.24,0.2,0.48,0.4,0.71,0.6    c1.04,0.07,1.59,0.8,2.27,1.53c0.5,0.36,0.99,0.71,1.49,1.07c0.99,0.57,1.99,1.14,2.98,1.71c1.09,1.09,3.24,2.06,4.69,2.98    c0.36,0.43,0.71,0.85,1.07,1.28c1.07-0.36,3.36,1.45,4.21,2.13c3.29,2.27,6.57,4.55,9.86,6.82c1.21,0.57,2.42,1.14,3.62,1.71    c0.66,0.45,3.22,2.12,3.84,1.92c1.49,0.71,2.98,1.42,4.48,2.13c1.54,0.76,0.15,0.21,1.77,0.71c3.2-0.14,7,0.98,10.38,1.42    c1.13,0.15,1.98,0.17,3.2,0.21c0.9,0.6,1.42,0.78,2.13,0.64c0.76,0.18,4.44,0.96,4.9,0.64c2.19,0.29,4.38,0.58,6.57,0.87    c1.01,0,2.01,0,3.02-0.01c2.99,0.21,5.97,0.42,8.96,0.63c3.77,0.21,7.53,0.43,11.3,0.64c2.51,0.22,2.09,0.48,3.41,0    c1.58,0.2,2.52,0.49,3.96,0.95c0.94,0.21,1.88,0.42,2.82,0.63c0.39-0.12,1.27,0.08,1.54,0.35c0.78,0.14,1.56,0.28,2.34,0.43    c0.5,0.36,1.21,0.07,1.71,0.43c0.8-0.56,1.47,0.13,2.29,0.65c1.58,0.35,3.16,0.7,4.74,1.05c0.92,0.21,1.85,0.43,2.77,0.64    c1.07,0.21,2.13,0.43,3.2,0.64c1.28-0.36,2.56-0.71,3.84-1.07c1.14-0.71,2.27-1.42,3.41-2.13c0.93-0.77,1.86-1.54,2.8-2.31    c0.96-0.81,1.76-1.69,2.98-2.03c0.33-0.63-0.41-1.34,0.5-1.09c1.46,0.46,2.92,0.92,4.38,1.38c1.81,0.17,4.32,0.62,5.97,1.49    c0.92-0.14,1.85-0.28,2.77-0.43c1.01-0.76,2.02-1.52,3.02-2.28c1.46-1.71,2.62-3.41,4.32-4.99c0.96-1.27,1.93-2.54,2.89-3.81    c1.92-3.98,3.84-7.96,5.76-11.94c0.07-0.36,0.14-0.71,0.21-1.07c0.32-0.69,0.64-1.38,0.95-2.07c0.96-3.15,1.92-6.29,2.88-9.44    c0.21-1.35,0.42-2.7,0.63-4.05c-0.01-0.6-0.09-1.56,0.43-1.92c0.35-2.13,0.71-4.26,1.07-6.39c0.07-2.27,0.14-4.55,0.21-6.82    C549.93,228.91,549.86,228.55,549.79,228.19z"/>
            <circle cx="448.22" cy="197.61" r="1.586"/>
        </g>
        <g id="__Çeltikçi">
            <path d="   M443.21,161.05c-0.95,1.19-1.85,1.33-2.79,2.28c-1.13,0.94-2.26,1.89-3.39,2.83c-0.64,0.57-1.28,1.14-1.92,1.71   c-1.24,1.55-2.35,2.92-3.84,4.26c-0.69,0.49-1.38,0.97-2.07,1.46c-0.83,0.79-1.66,1.59-2.49,2.38c-2.49,2.75-5.93,5.2-9.38,6.63   c-2.16,0.8-4.33,1.61-6.49,2.41c-0.65,0.17-1.78,0.4-2.37,0.12c-0.99,0.37-1.52,0.31-2.56,0.21c-1.18,0.88-3.57,1.8-5.12,1.71   c-1.14,0.78-2.27,1.56-3.41,2.34c-1.92,0.21-3.84,0.43-5.76,0.64c-1.07,0.5-2.13,0.99-3.2,1.49c-0.43-0.07-0.85-0.14-1.28-0.21   c-1.12,0.63-3.68,2.42-3.2,3.84l-0.15-1.75c-0.19-1.13-0.39-2.26-0.58-3.4c-0.68-2.69-1.36-5.38-2.04-8.07   c-0.57-1.56-1.14-3.13-1.71-4.69c-0.43-0.92-0.85-1.85-1.28-2.77c-0.62-0.71-1.24-1.41-1.86-2.12c-0.4-0.75-0.39-2.58,0.13-3.23   c0-2.51,1.26-4.59,1.73-7.01c0.32-0.41,0.63-0.82,0.95-1.23c1.06-1.45,2.4-2.88,3.82-3.99c0.33-0.32,0.66-0.64,0.99-0.96   c2.83-1.13,4.96-4.38,7.61-6.1c1.65-0.88,3.31-1.76,4.96-2.64c0.65-0.02,1.35-0.21,1.8-0.75c0.5,0.07,1.01,0.14,1.51,0.21   c2.81,1.07,5.32,0.61,8.2,0.97c0.77-0.58,3.47-0.85,4.48-0.85c0.92-0.43,1.85-0.85,2.77-1.28c0.28-0.36,0.57-0.71,0.85-1.07   c0.21-0.07,0.43-0.14,0.64-0.21c0.21-0.21,0.43-0.43,0.64-0.64c0.08-0.77,0.88-1.33,1.53-1.63l0.53-0.61   c1.02,1.1,2.04,2.2,3.06,3.3c0.78,0.64,1.56,1.28,2.34,1.92c0.79,0.7,1.59,1.4,2.38,2.1c0.34,0.32,0.55,0.89,1.06,0.87   c0.48,0.38,0.96,0.75,1.45,1.13c1.5,1.26,3,2.53,4.5,3.79c0.28,0.43,0.57,0.85,0.85,1.28c0.71,0.57,1.42,1.14,2.13,1.71   c1.36,0.93,2.82,1.62,4.05,2.77c0.82,0.25,1.64,0.92,2.45,1.17L443.21,161.05z"/>
            <circle cx="415.39" cy="166.91" r="1.586"/>
        </g>
        <g id="__Ağlasun">
            <path d="   M419.8,103.87c2.36,1.46,5.52,1.81,8.27,1.51c1.35-0.2,2.7-0.4,4.06-0.6c1.49-0.36,2.98-0.71,4.48-1.07   c1.16-0.49,4.66-1.74,5.74-1.4c2.71,0.86,5.45,1.67,8.12,2.68c5.65,3.16,11.3,6.32,16.95,9.48c1.6,0.68,3.19,1.35,4.79,2.03   c1.15,0.4,2.52,0.5,3.08,1.63c1.17,0.25,2.35,0.49,3.52,0.74c1.43,0.61,2.46,1.64,4.01,2.07c1.17,0.33,3.49,0.93,4.52,0.04   c0.93,0.07,3.77,0.23,4.48-0.21c1.57,0.17,3.13,0.03,4.69-0.21c0.92,0.43,1.85,0.85,2.77,1.28c0.64,0.71,1.28,1.42,1.92,2.13   c0.73,2.56,1.04,6.34,0.64,8.95c0.07,1.28,0.14,2.56,0.21,3.84c0.19,1.17,0.39,2.34,0.58,3.5c-0.25,0.55,0.27,2.9,0.41,3.64   c-0.24,0.53,0.3,3.24,0.5,3.94c0.58,3.05,1.17,6.1,1.75,9.15c0.15,1.18,0.28,2.9,0.59,4.7c0,0.54,0.76,1.81,0.21,2.13   c-0.19,0.27-1.31,0.58-1.49,0.85c-2.82,0.92-5.56,1.39-8.51,1.3c-1.81-0.06-3.39,0.03-5.16,0.36c-0.56,0.09-1.12,0.17-1.68,0.26   c-1.31-0.08-5.16-0.26-6.18,0.43c-0.71-0.07-1.42-0.14-2.13-0.21c-1.31-1.4-2.99-3.06-4.93-3.24c-2.26,0.01-4.53,0.03-6.79,0.04   c-2.2-0.36-4.41-0.71-6.61-1.07c-1.38,0.02-3.48-0.59-4.69,0.21c-1.42,0-2.84,0-4.26,0c-1.28-0.14-2.56-0.28-3.84-0.43   c-0.69-0.25-1.7-0.71-2.34-0.21c-1.24-0.39-2.49-0.36-3.73-0.75c-0.82-0.25-1.64-0.92-2.45-1.17c-1.23-1.15-2.69-1.84-4.05-2.77   c-0.71-0.57-1.42-1.14-2.13-1.71c-0.28-0.43-0.57-0.85-0.85-1.28c-1.5-1.26-3-2.53-4.5-3.79c-0.48-0.38-0.96-0.75-1.45-1.13   c-0.51,0.03-0.72-0.55-1.06-0.87c-0.79-0.7-1.59-1.4-2.38-2.1c-0.78-0.64-1.56-1.28-2.34-1.92c-1.02-1.1-2.04-2.2-3.06-3.3   c-0.76-0.96-1.51-1.92-2.27-2.88c-0.58-0.58-1.56-1.3-1.71-2.13c-1.02-0.99-1.91-2.14-2.56-3.41c-0.63-1.22-0.31-2.76-0.43-4.05   c-0.15-0.62-0.3-1.24-0.45-1.86c-0.12-1.11-0.24-2.22-0.35-3.33c0.04-0.53,0.07-1.05,0.11-1.58c-0.14-1.31-0.41-2.79-0.15-4.1   c0.25-1.25,0.19-3.36,1.49-4.05c0.39-0.89,1.57-3.93,2.34-4.26c0.91-1.27,2.59-2.88,2.56-4.48   C418.58,104.93,419.47,103.66,419.8,103.87z"/>
            <circle cx="432.23" cy="124.07" r="1.586"/>
        </g>
        <g id="__Kemer">
            <path d="   M258.56,198.52c0.38,1.86,0.75,3.73,1.13,5.59c0.43,1.14,0.85,2.27,1.28,3.41c0.36,0.63,0.72,1.27,1.07,1.9   c0.28,1.07,0.56,2.15,0.85,3.22c0.14,0.85,0.28,1.71,0.43,2.56c0.21,0.52,0.41,1.05,0.62,1.57c0.15,0.4,0.3,0.8,0.45,1.2   c-0.09,0.73-0.47,2.09,0.21,2.56c-0.1,0.71-0.45,1.89,0.21,2.34c-0.23,1.45-0.32,4.72,0.85,5.76c0,0.94,0.01,3.41,0.64,4.05   c-0.09,0.94-0.35,3.2,0.43,3.84c-0.24,0.81-0.79,2.85-0.43,3.62c-0.21,1.35-0.43,2.7-0.64,4.05c-0.22,0.7-0.44,1.39-0.67,2.08   c-0.13,2.74-0.93,6.26-2.33,8.57c0.06,0.95-0.8,2.28-1.31,3.03c-1.18,1.41-2.36,2.82-3.54,4.24c-0.78,0.8-1.84,1.71-1.59,2.76   c0.23,0.5,0.45,0.99,0.68,1.49c0.43,1.59,0.86,3.19,1.29,4.78c0.34,0.7,1.23,2.18,0.87,2.89c0.49,1.03,0.59,2.21,1.92,2.21   c1.59-0.05,3.15-1.1,4.82-1.35c0.6-0.22,1.19-0.44,1.79-0.65c0.98,0,4.15-0.52,4.9-1.07c0.77,0.08,1.8-0.12,2.49-0.59   c1.39-1.59,2.78-3.18,4.18-4.77c0.83-0.63,1.67-1.26,2.5-1.89c2.77-0.84,5.54-1.68,8.31-2.52c1.49-0.58,2.98-1.15,4.48-1.73   c2.84-0.79,5.69-1.57,8.53-2.36c2.06-0.71,4.12-1.42,6.18-2.13c0.71-0.36,1.42-0.71,2.13-1.07c0.63-0.17,1.25-0.33,1.88-0.5   c1.04-0.51,2.08-1.01,3.12-1.52c1.46-0.53,2.92-1.07,4.38-1.61c0.71-0.11,1.41-0.22,2.12-0.33c0.76-0.18,1.51-0.35,2.27-0.53   c1.22-0.11,4.59-0.06,5.44-0.87c0.59-0.63,0.67,0.17,0.63-1.04c-0.15-2.5-0.71-5.33-1.55-7.67c-0.58-2.34-1.16-4.67-1.75-7.01   c-0.27-1.22-0.53-2.44-0.8-3.66c-1.13-4.26-2.25-8.53-3.38-12.8c-0.85-2.06-1.71-4.12-2.56-6.18c-0.87-2.55-1.74-5.1-2.6-7.65   c-0.55-1.21-1.11-2.43-1.66-3.64c-0.45-0.52-1.37-1.07-1.49-1.71c-0.66-0.35-1.48-0.73-1.71-1.49c-0.5-0.28-0.99-0.57-1.49-0.85   c-2.2-1.92-4.41-3.84-6.61-5.76c-0.71-0.57-1.42-1.14-2.13-1.71c-0.43-0.21-0.85-0.43-1.28-0.64c-2.17-0.53-3.42-0.2-5.55,0.18   c-0.78,0.22-1.56,0.45-2.34,0.67c-1.96,0.06-3.84,0.72-5.76,1.28c0.14,0,0.28,0,0.43,0c-2.22,0.83-2.25,0.67-3.45,0.92   c-0.8,0.48-0.39,0.43-1.24,0.15c-0.64,0.36-1.28,0.71-1.92,1.07c-2.15,0.61-4.3,1.22-6.45,1.83c-0.82,0.19-3.52,0.6-4,1.15   c-1.19,0.04-2.42,0.45-3.62,0c-0.49,0.3-0.92,0.51-1.07,1.07c-0.75,0.09-1.97-0.25-2.56,0.21c-1.59-0.05-3.08,0.39-4.48-0.21   C259.37,197.8,258.34,197.61,258.56,198.52z"/>
            <circle cx="285.59" cy="238.75" r="1.586"/>
        </g>
    </g>
</svg>