<?xml version="1.0" encoding="UTF-8"?>
<!DOCTYPE svg PUBLIC "-//W3C//DTD SVG 1.1//EN" "http://www.w3.org/Graphics/SVG/1.1/DTD/svg11.dtd">
<svg version="1.1" id="HaritaCizim" xmlns="http://www.w3.org/2000/svg" xmlns:xlink="http://www.w3.org/1999/xlink" x="0px" y="0px" viewBox="0 0 600 450" preserveAspectRatio="none">
    <defs id="__def">
        <radialGradient id="f">
            <stop offset="0" stop-color="white" stop-opacity="1"/>
            <stop id="STOP1" offset=".4" stop-opacity="1"/>
            <stop offset="1" stop-color="white" stop-opacity=".2"/>
        </radialGradient>
        <filter id="__flt1" x="0" y="0" width="200%" height="200%" filterUnits="objectBoundingBox">
            <feGaussianBlur in="SourceAlpha" stdDeviation="3" result="blur1"/>
            <feSpecularLighting result="specOut" in="blur1" specularConstant="1.5" specularExponent="20" lighting-color="#bbbbbb">
                <feDistantLight azimuth="45" elevation="30"/>
            </feSpecularLighting>
            <feComposite in="specOut" in2="SourceAlpha" operator="in" result="specOut"/>
            <feComposite in="SourceGraphic" in2="specOut" operator="arithmetic" k1="0" k2="1" k3="1" k4="0"/>
        </filter>
        <filter id="__flt2" x="0" y="0" width="200%" height="200%" filterUnits="objectBoundingBox">
            <feGaussianBlur in="SourceAlpha" stdDeviation="3" result="blur1"/>
            <feSpecularLighting result="specOut" in="blur1" specularExponent="20" lighting-color="#bbbbbb">
                <fePointLight x="-2000" y="100" z="2000"/>
            </feSpecularLighting>
            <feComposite in="specOut" in2="SourceAlpha" operator="in" result="specOut"/>
            <feComposite in="SourceGraphic" in2="specOut" operator="arithmetic" k1="0" k2="1" k3="1" k4="0"/>
        </filter>
        <filter id="__flt3" x0="-50%" y0="-50%" width="200%" height="200%" filterUnits="objectBoundingBox">
            <feGaussianBlur in="SourceAlpha" stdDeviation="3" result="blur"/>
            <feOffset in="blur" dx="0" dy="0" result="offsetBlur"/>
            <feSpecularLighting in="blur" surfaceScale="4" specularConstant=".5" specularExponent="20" lighting-color="flavor" result="specOut">
                <fePointLight x="-5000" y="-10000" z="5000"/>
            </feSpecularLighting>
            <feComposite in="specOut" in2="SourceAlpha" operator="in" result="specOut"/>
            <feComposite in="SourceGraphic" in2="specOut" operator="arithmetic" k1="0" k2="1" k3="1" k4="0" result="litPaint"/>
            <feMerge>
                <feMergeNode in="offsetBlur"/>
                <feMergeNode in="litPaint"/>
            </feMerge>
        </filter>
        <filter id="__flt4" x0="-50%" y0="-50%" width="200%" height="200%">
            <feGaussianBlur in="SourceAlpha" stdDeviation="2" result="blur"/>
            <feOffset dy="-1" dx="-1"/>
            <feComposite in2="SourceAlpha" operator="arithmetic" k2="-1" k3="1" result="hlDiff"/>
            <feFlood flood-color="white" flood-opacity=".7"/>
            <feComposite in2="hlDiff" operator="in"/>
            <feComposite in2="SourceGraphic" operator="over" result="withGlow"/>
            <feOffset in="blur" dy="3" dx="3"/>
            <feComposite in2="SourceAlpha" operator="arithmetic" k2="-1" k3="1" result="shadowDiff"/>
            <feFlood flood-color="black" flood-opacity="1"/>
            <feComposite in2="shadowDiff" operator="in"/>
            <feComposite in2="withGlow" operator="over"/>
        </filter>
        <filter id="__golge1" x="0" y="0" width="200%" height="200%" filterUnits="userSpaceOnUse">
            <feOffset result="offOut" in="SourceAlpha" dx="8" dy="8"/>
            <feGaussianBlur result="blurOut" in="offOut" stdDeviation="3"/>
            <feBlend in="SourceGraphic" in2="blurOut" mode="normal"/>
        </filter>
    </defs>
    <g id="__Harita" fill="white" stroke="#000000" stroke-width="0.25" stroke-miterlimit="10" display="none">
        <rect id="__cer" x="0" y="0" fill="#000000" opacity="0" width="600" height="450"/>
        <g id="__Karacabey">
            <path d="M168.93,132.67c-0.94,0.09-1.87,0.19-2.81,0.28   c-1.07,0-2.05,0.2-3.08,0.54c-0.28-0.51-1.62-0.64-2.2-0.85c-0.51-0.18-0.24-1.19-0.1-1.55c0.1-0.41,0.2-0.81,0.3-1.22   c0.24-0.24,0.48-0.48,0.72-0.72c0.43-0.16,0.86-0.32,1.28-0.49c0.49-0.17-0.5,0.86,0.36,0.86c0.63-0.02,1.23,0.38,1.87,0.06   c0.41-0.22,0.62-0.31,0.51-0.81c-0.07-0.58,0.2-0.11,0.72-0.45c0.82-0.46,1.79,0.92,2.48,1.25c0.49,0.26,0.57,0.38,0.76,0.89   C170.06,131.27,169.52,132.08,168.93,132.67z M158.25,203.03c-0.57,0-1.15,0-1.72,0c-2.69-0.04-5.33,0.08-7.97,0.77   c-1.18,0.31-2.34,0.31-3.44,1.04c-0.94,0-2.49,0.49-3.26,1.09c-1.02,0.79-1.93,1.67-2.72,2.72c0.31,0.31-0.28,0.79-0.54,1.09   c-2.01,2.24-4.52,4.07-5.98,6.7c-0.77,1.33-1.55,2.66-2.32,4c-0.25,0.54-0.51,1.08-0.76,1.62c-1.44,2.04-2.75,4.37-4.77,5.88   c-0.58,0.43-2.14,2.09-2.84,2.09c-0.18,0.12-0.36,0.24-0.54,0.36c-0.54,0.54-0.85,1.16-1.63,1.45c-0.36,0.06-0.72,0.12-1.09,0.18   c-0.41,0.41-1.08,0.43-1.63,0.36c0,0.3-1.44,0.72-1.81,0.72c-0.53,0.21-1.07,0.41-1.6,0.62c-1.92,0.7-3.49,1.08-5.46,0.29   c-1.87-1.03-3.74-2.05-5.61-3.08c-0.72-0.48-1.45-0.97-2.17-1.45c-1.99-1.54-3.28-2.17-5.8-2.17c-0.36-0.06-0.72-0.12-1.09-0.18   c-0.3,0.18-0.6,0.36-0.91,0.54c-1.48,0-1.94,1.01-2.9,1.99c-0.5,0.02-1.28,0.9-1.63,0.54c-0.07,0.03-0.14,0.07-0.2,0.1   c-0.17,0.21-0.35,0.42-0.52,0.62c-0.36,0.97-0.72,1.93-1.09,2.9c-0.97,1.03-1.93,2.05-2.9,3.08c-0.54,0.6-1.09,1.21-1.63,1.81h0.03   c0-0.56-0.21-0.89-0.21-1.45c-0.41-0.94-0.86-1.32-1.63-1.99c-0.78-0.94-1.55-1.88-2.33-2.81c-0.79-1.05-1.59-2.11-2.38-3.16   c-0.12-0.3-0.24-0.6-0.36-0.91c-0.79-0.91-1.57-1.81-2.35-2.72c-1.15-0.91-2.29-1.81-3.44-2.72c-0.44-0.32-0.51-0.69-1.09-0.72   c-0.44-0.44-0.83-0.96-1.45-1.09c-0.6-0.91-1.21-1.81-1.81-2.72c-0.63-0.9-1.13-2.74-1.09-3.8c-0.63-1.21-1.3-2.79-1.45-4.17   c-0.07-0.63-0.09-1.93-0.54-2.35c0.12-0.42,0.24-0.85,0.36-1.27c-0.06-0.66-0.12-1.33-0.18-1.99c0.11-0.2,0.22-0.4,0.33-0.61   c0.13-0.43,0.11-1.42-0.15-1.75c0.18-0.72,0.36-1.45,0.54-2.17c0.07-0.59,0.15-1.17,0.22-1.76c0.61-0.44,0.57-1.22,0.87-1.86   c-0.06-0.49-0.19-0.72,0.18-1.09c0-1.63,0-3.26-0.01-4.89c0-0.51-0.38-1.25,0.01-1.63c-0.18-0.36-0.36-0.72-0.54-1.09   c-0.56-0.53-2.38-2.47-2.9-2.54c-0.16-0.42-0.45-0.89-0.18-1.27c-1.21-0.97-2.41-1.93-3.62-2.9c-0.97-1.2-1.94-2.41-2.91-3.61   c-1.01-1.1-2.01-2.2-3.02-3.31c-0.2-0.27-0.4-0.55-0.61-0.82c-0.1-0.74,0.09-1.75,0.92-1.96c0.77-0.17,2.89-0.87,3.62-0.26   c0.48-0.03,0.7-0.12,1.09,0.18c0.57-0.12,1.34-0.16,1.81,0.18c0.87-0.15,4.68-0.21,5.43,0.18c1.73-0.29,3.68-0.33,5.38-0.96   c1.36,0.32,3.8-1.55,4.58-2.54c0.36-0.27,0.73-0.54,1.09-0.81c0.15-0.61,0.29-1.21,0.44-1.82c-0.23-1.02-0.06-2.11,0.28-3.1   c-0.26-1.09-0.18-1.86,0.18-2.9c-0.56-2.14,0.37-4.24,1.27-6.16c0.18-0.38,1.67-1.93,1.99-1.99c1.13-1.14,2.26-2.28,3.38-3.41   c0.08-0.55,0.46-0.82,0.91-1.14c0.34-1.05,1.02-2.16,1.68-3.06c1.64-2.21,2.7-5,3.57-7.71c0.44-1.66,0.88-3.31,1.32-4.97   c0.02-1.44,0.03-2.89,0.05-4.33c0.05-0.44-0.02-2.91,0.31-2.92c1.39-0.14,2.77-0.27,4.16-0.41c0.73-0.1,1.46-0.21,2.19-0.31   c1.81,0.24,3.62,0.48,5.43,0.72c0.6,0.24,1.21,0.48,1.81,0.72c0.37,0.12,2.63,0.36,2.9,0.18c0.58,0.15,1.17,0.31,1.75,0.46   c0.61-0.25,1.09,0.12,1.51-0.46c0.9,0.03,2.66,0.2,3.26-0.54c0.66,0.07,1.32,0.14,1.98,0.2c1.45-0.37,2.91-0.74,4.36-1.11   c0.6,0.12,1.21,0.24,1.81,0.36c0.71,0.04,1.67-0.03,2.17,0.54c0.66,0.06,1.33,0.12,1.99,0.18c0.95-0.09,3.64-0.19,4.35,0.54   c0.42,0.06,0.85,0.12,1.27,0.18c0.95-0.09,3.06,0.2,3.8,0.72c0.79-0.08,4.34,0.01,4.89,0.36c1.21-0.07,2.41-0.14,3.62-0.22   c1.38-0.11,2.86-0.49,4.28-0.18c0.6-0.35,1.7-0.33,2.35-0.21c0.68-0.32,2.53-0.34,3.27-0.21c1.95,0.03,3.9,0.06,5.85,0.09   c0.37-0.01,0.74-0.01,1.1-0.02c-0.01,0.01-0.01,0.01-0.02,0.02c0.02,0.01,0.05,0.03,0.07,0.04c-0.14,0.25-0.49,0.74-0.61,0.86   c-0.38,0.16-0.75,0.32-1.13,0.48c-1.7,0.84-3.07,2.3-4.87,2.75c-0.44,0.11,0.49-0.99,0.04-0.8c-0.57,0.26-1.15,0.52-1.72,0.78   c0.02,0.27,0.03,0.54,0.05,0.8c0.09,0.62,2.09-0.11,2.39-0.16c0.63-0.09,1.15-0.04,1.79-0.04c0.66-0.24,1.33-0.48,1.99-0.72   c0.6-0.48,1.21-0.97,1.81-1.45c0.18-0.24,0.37-0.48,0.55-0.72c0.4-0.44,0.22-1.42-0.3-1.77c0.01-0.02,0.02-0.04,0.03-0.06   c1.29-0.02,2.57-0.04,3.86-0.06c0.93,0.24,3.48,0.79,4.01,1.52c0.71,0.2,1.98,0.45,2.35,1.09c1.56,0.42,3.08,1.71,4.69,1.66   c0.23,0.38,0.44,0.48,0.83,0.67c0.59,0.29,1.36,0.35,1.72,0.93c0.63,0.08,1.66,0.16,1.99,0.72c0.53,0.09,1.29,0.04,1.55,0.57   l0.65,0.07c-0.34,0.08-0.41,0.56-0.59,0.97c-0.19,0.45-0.44,0.54-0.53,1.1c-0.13,0.89,0.24,0.92-0.18,1.99   c0.41,1.02-0.81,3.96-1.2,5.1c-0.02,0.71-0.05,1.43-0.07,2.14c-0.59,0.72-0.71,2.05-0.54,2.9c-0.52,0.24-0.51,0.85-0.91,1.27   c-0.24,0.36-0.48,0.72-0.72,1.09c-0.45,0.18-0.52,0.49-0.72,0.91c-0.75,0.12-0.72,0.84-0.91,1.45c0.06,0.06,0.12,0.12,0.18,0.18   c0.05,0.49,0.11,0.98,0.16,1.47c0.49,0.48,0.98,0.95,1.47,1.43c2.17,1.97,5.47,2.5,7.61,0.36c0.54,0.07,1.07,0.15,1.61,0.22   c1.51,0.76,2.48,1.41,4.19,1.41c0.32-0.44,0.79-0.37,1.26-0.61c0.24-0.28,0.49-0.56,0.73-0.84c0.18-0.08,1.27-1.19,1.45-1.27   c0.73,0.26,0.68,1.31,0.52,1.95c0.49,1.28,0.98,2.56,1.47,3.84c0.59,0.86,1.63,0.88,2.54,1.09c0.33,0.47,1.11,0.63,1.63,0.91   c1.06,1.6,2.13,3.2,3.19,4.81c0.41,0.63,1.7,1.26,1.7,2.08l0.31,0.38c0.39,0.59,0.56,1.11,0.24,1.79c1.07,0.64,1.67,2.35,1.78,3.61   c0.31,0.29,0.33,0.69,0.38,1.11c0.24,0.21,1.39,3.67,1.46,4.16c0.11,0.72-0.06,1.62-0.28,2.28c-0.05,0.56-0.11,1.12-0.16,1.68   c-0.03,1.15-0.07,2.31-0.1,3.46c-0.48,0.91-0.97,1.81-1.45,2.72c-0.75,1.86-2.45,3.67-3.82,5.08c-0.48,0.42-0.95,0.84-1.43,1.26   c-0.25,0.48-0.79,1.96-0.75,2.76c-0.31,0.08-0.66,0.16-0.89-0.02c-0.62-0.51-1.69-1.06-1.98-1.83c-0.36-0.96,0.33-2.12-0.89-2.55   c-1.12-0.4-1.68,0.14-2.73,0.38c-0.38,0.08-1.63-0.42-1.81-0.72c-0.58,0.15-1.42,0.28-1.52,0.92c-0.04,0.38,0.02,0.41-0.29,0.71   c0.07,0.36,0.18,0.58,0,0.91c0.15,0.33,0.59,0.86,0.27,1.18c-0.41,0.36-0.4,0.55-0.7,0.03c-0.28-0.52-0.56-1.05-0.84-1.57   c-0.77-0.44-2-1.56-1.63-2.54c-0.61-0.45-1.65-0.77-1.99-1.45c-0.7-0.07-1.95-0.46-2.35-1.09c-0.62-0.3-1.52-0.6-1.81-1.27   c-0.95-0.18-1.91-0.36-2.86-0.54c-0.49-0.3-0.99-0.61-1.48-0.91c-0.48-0.19-1.25-0.17-1.73-0.07c-0.7-0.29-1.52,0.02-2.25,0.07   c-0.6-0.12-1.21-0.24-1.81-0.36c-0.52-0.16-1.24,0.03-1.63-0.36c-0.39-0.04-0.78,0.06-1.09-0.18c-0.76,0.21-1.38,0.35-2,0.88   c-0.6,0.51-1.09,1.47-1.98,1.47c-0.83,0-3.91-0.72-4.17-1.45c-1.51-0.33-2.77-0.94-4.3-0.88c-0.31-0.28-0.72-0.27-1.13-0.2   c-0.7-0.51-2.09-1.4-2.72-0.36c-0.94-0.06-2.1-0.3-2.31,0.76c-0.07,0.11-0.15,0.22-0.22,0.33c0.03,0.33,0.06,0.66,0.09,1   c0.34,0.31,0.82,1.27,1.36,1.18c-0.01,0.12-0.01,0.23-0.02,0.35c0.07,0.25,0.13,0.49,0.2,0.74c-1.17,0.56-2.76,1.96-2.26,3.09   c0.67,1.39,2.53,2.33,4.04,2.64c0.37,0.42,0.64,0.39,0.76,0.97c0.17,0.03,0.34,0.07,0.52,0.1c0.62,0.14,3.13,0.46,3.11,1.17   c0.5,0.11,2.13,0.15,2.12,0.2c-0.1,0.29-0.21,0.59-0.31,0.88c0.19,0.69,0.45,1.67-0.38,1.94L158.25,203.03z"/>
            <circle cx="122.02" cy="190.18" r="1.586"/>
        </g>
        <g id="__Mudanya">
            <path d="   M181.52,132.9c0.54,0.26,1.08,0.52,1.62,0.78c2.05,0.48,4.1,0.97,6.16,1.45c0.76,0.16,2.74,0.88,3.44,0.54   c0.36,0.18,0.72,0.36,1.09,0.54c1.27,0.18,2.54,0.36,3.8,0.54c0.18,0.12,0.36,0.24,0.54,0.36c0.66,0,1.33,0,1.99,0   c0.3,0.12,0.6,0.24,0.91,0.36c1.34,0.33,3.59-0.11,4.89-0.36c0.18-0.18,0.36-0.36,0.54-0.54c0.35,0,1.27-0.72,1.27-1.09   c-0.3-0.66-0.6-1.33-0.91-1.99c0.06-0.11,0.12-0.23,0.19-0.34c0.11-0.13,0.23-0.27,0.34-0.4c0.72-0.07,3.11-0.44,3.64,0.02   c0.85-0.24,1.69-0.48,2.54-0.72c0.42-0.06,0.96-0.1,1.27,0.18c0.73-0.05,1.46-0.09,2.19-0.14c0.92-0.23,1.84-0.46,2.76-0.69   c0.16-0.27,0.32-0.54,0.49-0.81c0-0.23-0.21-0.94,0.14-0.88c0.42,0.06,0.44-0.01,0.77,0.34c0.51-0.05,0.97-0.17,1.45,0   c1.78-1.24,3.33-1.92,5.38-2.46c0.69-0.18,1.32-0.65,2.05-0.44c0.92-0.42,1.68-1,2.72-1.09c0.95-0.08,2.91-0.27,3.62,0.36   c1.75,0,3.5,0,5.25,0c0.33,0.04,1.27,0.22,1.27,0.54c0.22-0.01,0.45-0.02,0.67-0.03c0.44,0.43,0.88,0.86,1.32,1.3   c0.77,0,1.01,0.29,1.63,0.72c0.6,0,1.04,0.31,1.45,0.72c0.66,0.06,1.33,0.12,1.99,0.18c0.6,0.24,1.21,0.48,1.81,0.72   c1.21-0.32,2.52,0.02,3.44-0.91c0.54,0,1.08-0.18,1.45-0.54c1.21,0.24,2.15,1.09,3.44,1.09c0.6,0.54,1.21,1.09,1.81,1.63   c0.69,0.03,1.31,0.88,1.99,0.91c0.22,0.39,0.51-0.03,0.72,0.36c0.56,0.49,1.12,0.97,1.69,1.46c0.55,0.5,0.92,1.44,1.75,1.44   c0.73,1.06,3.23,2.77,4.53,3.08c1.99,0.06,3.98,0.12,5.98,0.18c0.24-0.24,0.48-0.48,0.72-0.72c1.72-0.63,3.27,0.17,5.01-0.03   c0.38,0.19,0.76,0.38,1.14,0.57c0.58,0.16,0.96-0.12,1.45,0.36c0.85-0.12,1.69-0.24,2.54-0.36c0.72-0.3,1.45-0.6,2.17-0.91   c0,0.16,0,0.32-0.01,0.49c0.06,0.08,0.12,0.16,0.19,0.24c0,1.1,0.15,1.87,0.36,2.9c-0.05,0.97-0.09,1.93-0.14,2.9   c-0.01,0.3-0.03,0.6-0.04,0.9c-0.18,0.3-0.36,0.6-0.54,0.91c-0.8,1.11-2.52,2.09-3.62,2.9c-0.29,0.21-0.64,0.45-0.36,0.72   c-0.18,0.12-0.36,0.24-0.54,0.36c-0.44,0.31-1.8,1.51-2.17,1.45c-0.3,0.55-0.14,0.91-0.54,1.42c0,1.14-1.84,2.9-1.81,3.84   c-0.36,0.3-0.72,0.6-1.09,0.91c-0.26,0.26-1.02,1.29-1.27,1.17c-0.3-0.14-0.67-0.39-0.81-0.05c-0.25,0.69-0.28,1.25-0.28,1.96   c-0.75,0.71-1.1,1.32-1.63,2.17c0,0.6-0.41,1.27-0.91,1.27c-0.46,0.46-0.76,0.6-0.72,1.27c-0.06-0.02-0.11-0.03-0.17-0.05   c-0.63-0.17-0.93-0.42-1.53-0.06c-0.39,0.38-0.78,0.76-1.17,1.14c-0.8,0.44-1.59,0.89-2.39,1.33c-1.43,0-2.72-0.21-4.17-0.36   c-0.84-0.33-1.68-0.67-2.51-1c-0.93,0.44-1.37,0.64-2.38,0.64c-0.64,0-1.54-0.09-1.99-0.54c-0.79,0-1.57,0-2.35,0   c-0.59,0-1.25-0.19-1.56,0.4c-0.25,0.73-0.51,1.46-0.76,2.19c-0.21,0.71,0.16,1.21-0.39,1.76c-0.91,0.06-1.81,0.12-2.72,0.18   c0,0.3-0.96,0.63-1.27,0.72c-0.45,0.13-1.11,0.02-1.45,0.36c-0.77,0-1.24,0.22-1.98,0.42c-0.67-0.08-1.34-0.16-2.01-0.24   c-0.16,0.28-0.19,0.22,0,0.54c-0.77,0.16-1.63,0.42-2.35,0.18c-0.06-0.12-0.12-0.24-0.18-0.36c0.15-0.68,0.68-1.81-0.11-2.09   c-0.42-0.11-0.85-0.22-1.27-0.33c-0.87-0.35-0.33-0.58-1-0.58c-0.33,0.79-0.88,1.29-1.6,1.73c-0.42-0.24-0.85-0.48-1.27-0.72   c-0.36,0.06-0.72,0.12-1.09,0.18c-0.18-0.06-0.36-0.12-0.54-0.18c-0.53-0.09-1.24,0.39-1.63,0c-0.53-0.6-2.38-2.54-3.08-2.54   c-1.88-1.98-3.16-4.17-6.52-3.62c-0.88,0.15-3.4,1.71-3.98,2.35c-1.09,0.24-2.17,0.48-3.26,0.72c-0.3-0.24-0.6-0.48-0.91-0.72   c-0.41-0.55-0.74-1.52-1.58-1.13c-0.78,0.4-0.88,0.7-1.5,1.31c-0.37,0.09-0.65,0.06-0.91,0.36c-1.03-0.24-2.05-0.48-3.08-0.72   c-0.9,0.15-1.54,0.91-2.54,0.91c-0.68,0.45-1.16,0.77-1.99,0.72c0-0.81-1.29-1.45-1.7-2.08c-1.06-1.6-2.13-3.2-3.19-4.81   c-0.52-0.27-1.3-0.43-1.63-0.91c-0.91-0.2-1.94-0.23-2.54-1.09c-0.49-1.28-0.98-2.56-1.47-3.84c0.16-0.64,0.21-1.69-0.52-1.95   c-0.18,0.08-1.27,1.19-1.45,1.27c-0.24,0.28-0.49,0.56-0.73,0.84c-0.47,0.24-0.95,0.17-1.26,0.61c-1.71,0-2.68-0.65-4.19-1.41   c-0.54-0.07-1.07-0.15-1.61-0.22c-2.14,2.14-5.44,1.6-7.61-0.36c-0.49-0.48-0.98-0.95-1.47-1.43c-0.05-0.49-0.11-0.98-0.16-1.47   c-0.06-0.06-0.12-0.12-0.18-0.18c0.19-0.61,0.16-1.33,0.91-1.45c0.21-0.42,0.28-0.72,0.72-0.91c0.24-0.36,0.48-0.72,0.72-1.09   c0.4-0.42,0.38-1.03,0.91-1.27c-0.16-0.85-0.05-2.18,0.54-2.9c0.02-0.71,0.05-1.43,0.07-2.14c0.39-1.15,1.61-4.08,1.2-5.1   c0.42-1.07,0.05-1.11,0.18-1.99c0.08-0.56,0.33-0.66,0.53-1.1C180.82,133.32,180.88,132.67,181.52,132.9z"/>
            <circle cx="261.75" cy="134.03" r="1.586"/>
        </g>
        <g id="__Yenişehir">
            <path d="   M492.3,197.24c-1.46,0.4-2.98,1.63-4.17,2.54c-0.79,0.47-1.57,0.95-2.36,1.42c-0.94,0.88-2.62,2.67-3.02,3.91c-0.5,1-1,2-1.5,3.01   c-0.4,1.05-0.79,2.11-1.19,3.16 M479.38,211.7c0.39-0.08,0.35-0.16,0.68-0.43c0.4-1.05,0.79-2.1,1.19-3.16c0.5-1,1-2,1.5-3.01   c0.4-1.23,2.08-3.02,3.02-3.91c0.79-0.47,1.57-0.95,2.36-1.42c1.18-0.91,2.71-2.13,4.17-2.54c1.08-0.3,2.33-0.47,3.44-0.36   c0.57-0.47,1.15-0.38,1.81-0.18c0.37-0.74,0.9-0.52,1.63-0.54c0.17-0.52,0.6-0.68,1.01-1.03c0.08-1.23,0.17-2.45,0.25-3.68   c0.18-0.72,0.36-1.45,0.54-2.17c0.1-0.48,0.19-0.97,0.29-1.45c0.29-1.7,0.78-3.04,1.7-4.53c0.96-0.67,1.92-1.34,2.88-2   c2.61-0.89,4.71-2.33,7.08-3.61c-0.05-0.56,0.27-0.7,0.49-1.17c-0.13-0.12-0.26-0.25-0.39-0.37c-0.08-0.41-0.16-0.82-0.24-1.23   c-0.3-0.38-2.83-1.44-3.65-1.98c-0.07-0.05-0.14-0.09-0.2-0.14c0.32-0.33,0.17-0.82,0.18-1.27c0.48-1.27,0.97-2.54,1.45-3.8   c0.59-0.83,1.18-1.67,1.77-2.5c0.62-0.8,1.24-1.59,1.86-2.39c0-4.78,0.94-9.36,2.26-13.97c0.03-0.11,0.06-0.22,0.09-0.33   c-0.81-0.46-0.73-1.91-1.74-2.28c-0.63-0.93-1.25-1.86-1.88-2.79c-0.46-0.11-0.94-0.64-1.22-1.05c-0.14-0.25-0.28-0.51-0.41-0.76   c-1.25-1.54-3.15-2.02-2.54-4.35l-0.23,0.37c-1.43,0.06-2.87,0.12-4.3,0.18c-1.55-0.12-2.71-0.57-4.15-0.76   c-0.92-0.12-2.67,0.18-3.27-0.69c-0.83,0.25-2.53,0.08-3.41-0.1c-2.24-0.39-4.49-0.78-6.73-1.17c-0.32,0.32-1.01,0.17-1.46,0.22   c-1.02,0.23-2.04,0.46-3.07,0.69c-1.07,0.26-1.89,0.87-2.9,1.27c-0.64,0.12-1.29,0.23-1.93,0.35c-0.93,0.49-1.85,0.97-2.78,1.46   c-0.5,0.16-0.99,0.31-1.49,0.47c-1.14,0.66-2.29,1.32-3.43,1.99c-1.12,0.27-1.96,0.2-3.05-0.19c-0.3-0.46-1.64-1.52-2.21-1.28   c-1.3,0.6-0.29,0.03-1.49-0.4c-0.4-0.1-0.55-0.06-0.83-0.41c-1.44-0.32-2.88-0.65-4.32-0.97c-0.67-0.16-1.34-0.32-2.01-0.48   c-0.91,0.06-3.17,0.39-3.8-0.36c-0.78,0.12-1.57,0.24-2.35,0.36c-1.75,0.85-3.5,1.23-5.42,1.26c-0.78,0.01-2.19,0.1-2.73-0.54   c-0.7,0-1.34,0.28-1.99-0.18c-0.97,0-1.93,0-2.9,0c-0.42,0.24-0.85,0.48-1.27,0.72c-0.96,0-2.22,0.41-2.9,1.09   c-0.54,0.13-1.08,0.26-1.62,0.4c-0.94,0.47-2.5,0.87-3.47,0.56l-0.53-0.21c-0.91-0.12-1.81-0.24-2.72-0.36   c-1.68-0.24-3.32-0.82-5.07-1.11c-0.44-0.45-2.59-0.66-3.26-0.54c-1.27,0.42-2.54,0.85-3.8,1.27c-0.06,0.33-1.29,1.14-1.63,1.27   c-2.17,1.21-4.35,2.41-6.52,3.62c-1.33-0.18-2.66-0.36-3.98-0.54l-1.34-0.33c0.09,0.19-0.48,0.4-0.65,0.69   c-0.59,1.03-1.42,0.86-2.31,1.39c-1.28,0.44-2.56,0.89-3.84,1.33c-2.46,1.61-4.19,4.46-6.97,5.57l0.34,0.82   c1.09,0.69,2.96,1.37,4.27,1.58c1.93,0.8,3.86,1.6,5.79,2.4c2.05,1.17,4.45,4.52,5.51,6.59c1.19,2.31,1.4,4.74,0.11,6.95   c-0.12,0.36-0.24,0.72-0.36,1.09c0,2.34,0.27,4.02,1.68,5.94c1.68,2.27,2.69,2.71,5.02,3.84c0.84,0.36,1.69,0.73,2.54,1.09   c1.21,0.29,2.33,1.11,3.62,1.09c0.98,0.92,3.36,3.15,3,4.69c-0.07,0.3-0.12,0.28,0.08,0.57h0.18c1.45,0,2.54-0.52,3.98-0.18   c0.33-0.26,0.84-0.23,1.27-0.18c0.97,0.11,1.65,0.55,2.55,0.84c1.2,0.38,2.41,0.76,3.61,1.14c1.35,1.01,2.71,2.02,4.06,3.03   c1.06,0.98,2.12,1.96,3.19,2.94c0.31-0.31,0.6,0.14,0.91,0.36c-0.25,0.88,0.52,1.69,0.91,2.35c-0.21,0.21,0.42,1.2,0.54,1.63   c-0.44,0.49-0.11,1.39,0.03,1.98c0.43,1.71,1.15,3.1,1.88,4.57c0.35,0.71,2.5,1.41,3.23,1.14c0.82,0.3,1.5,0.23,2.11-0.5   c2.61-0.09,4.66-2.24,7.23-2.48c0.54,0.1,1.08,0.19,1.62,0.29c1.45,0.26,2.95,2.55,3.63,3.7c0.22,0.56,0.45,1.13,0.67,1.69   c0.68,0.76,1.36,1.53,2.04,2.29c0.54,0.72,1.09,1.45,1.63,2.17c1.06,0.71,2.42,1.13,3.67,1.38c1.79,0.36,3.58-0.61,5.38-1.19   c0.3-0.3,0.6-0.6,0.91-0.91c0.91-0.48,1.81-0.97,2.72-1.45c0.53-1.57,3.54-2.72,5.07-2.72L479.38,211.7z"/>
            <circle cx="464.04" cy="170.89" r="1.586"/>
        </g>
        <g id="__Gemlik">
            <path d="   M384.98,154.01c-1.05-1.04-2.1-2.09-3.16-3.13c-0.6-0.36-1.21-0.72-1.81-1.09c-1.56-1.46-3.13-2.92-4.69-4.37   c-0.09-0.07-2.97,0.04-3.29,0.21l-0.35,0.17l-0.1-0.42c-0.26-0.2-0.53-0.34-0.76-0.37c-0.14,0.09-0.27,0.17-0.41,0.26   c-0.24,0-1.07-0.16-0.84,0.32c0.31,0.59-0.07,1.47,1.2,1.31c-0.16,0.13-0.32,0.27-0.48,0.4c-0.02,0.11-0.05,0.21-0.07,0.32   c-0.3,0.06-0.6,0.12-0.91,0.18c-0.6-0.18-1.21-0.36-1.81-0.54c-0.37,0.09-0.59,0.24-0.91,0c-0.55,0.44-1.02,0.91-1.63,0.91   c-0.75,0-2.23-0.42-2.56,0.15c-0.26,0.43-0.05,0.72-0.53,0.91c-0.58,0.24-1.38,0.66-1.98,0.2c-0.6,0.06-1.21,0.12-1.81,0.18   c-0.42,0-0.85,0-1.27,0c-0.72-0.48-1.45-0.97-2.17-1.45c-0.57-0.03-1.25-0.42-1.38,0.24c-0.14,0.1-0.29,0.2-0.43,0.31   c0.04,0.11,0.08,0.21,0.12,0.32l-0.12,0.23c-1.36-0.23-2.71-0.07-4.06-0.02c-0.62,0.03-1.52,0.46-1.95-0.08   c-0.58-0.04-1.18-0.3-1.48-0.83c-0.03-0.08-0.06-0.17-0.1-0.25c0.11-0.03,0.23-0.06,0.34-0.09c-0.3,0.12-0.6,0.24-0.91,0.36   c-0.6-0.06-1.21-0.12-1.81-0.18c-0.19-0.81-1.76-1.12-2.51-1.37c-0.92-0.27-1.83-0.54-2.75-0.8c-0.72,0.06-1.45,0.12-2.17,0.18   c-0.52-0.39-2.69-0.18-3.44-0.18c-0.44-0.29-1.65-0.5-2.04-0.16c-1.55-0.16-3.03-0.02-4.48-0.02c-0.69-0.1-1.37-0.2-2.05-0.31   c-0.63-0.21-1.26-0.41-1.89-0.62c-0.98-0.48-1.95-0.95-2.93-1.43c-2.67-0.54-5.43,0.3-7.98,0.67c-1.54,0.22-3.51,0.21-4.88,0.96   c-1.27,0-2.54,0-3.8,0c-0.35-0.25-2.74,0.21-3.26,0.45c-1.88-0.75-3.97-0.08-6-0.08c-0.33,0-0.46-0.33-0.62-0.59l-0.04-0.13   c0.05-0.97,0.09-1.93,0.14-2.9c-0.22-1.03-0.36-1.8-0.36-2.9c-0.06-0.08-0.12-0.16-0.19-0.24c0-0.16,0-0.32,0.01-0.49l0.74-0.02   c1.29-0.08,2.22,0,3.42-0.54c0.49-0.22,0.88,0.16,1.46,0.02c1.61-0.36,3.21-0.72,4.82-1.09c0.44,0.07,0.87,0.14,1.31,0.21   c0.28,0.2,0.57,0.4,0.85,0.61c1.05-0.33,2.11-0.66,3.16-1c0.72-0.6,1.45-1.21,2.17-1.81c-0.09-0.49,0.75-1.43,1.09-1.81   c0.12-0.78,0.24-1.57,0.36-2.35c-0.1-0.33-0.19-0.67-0.29-1c-0.49-1.73,0.34-2.79,1.3-4.31c0.39-1.01,0.78-2.02,1.17-3.02   c0.89-0.49,1.78-1.62,2.06-2.59c0.61-0.56,1.22-1.13,1.83-1.69c-0.03-0.08-0.06-0.17-0.09-0.25c-0.17,0.6,0.35-0.03,0.91-0.18   c0.26-0.14,0.47,0.68,0.72,0.54c0.18,0.18,0.36,0.36,0.54,0.54c0.39-0.2,3.44-0.07,3.98,0c1.63-0.66,3.26-1.33,4.89-1.99   c1.11-0.17,2.15-0.21,3.26-0.54c0.36,0.12,0.72,0.24,1.09,0.36c1.24-0.9,0.98-1.99,1.08-3.45c0.02-0.33,0.21-0.04,0.31,0.15   c0.08,0.19,0.16,0.39,0.24,0.58c-0.41-0.93-0.28-0.66-0.84-0.8c-1.21-1.56-2.67-2.52-4.41-3.37c-0.31-0.49-1.88-2.35-2.54-2.35   c-0.61-1.23-1.76-2.01-2.9-2.72c0.67-0.62-1.52-1.15-1.85-1.39c-0.65-0.62-1.3-1.25-1.95-1.87c-1.08,0.06-2.16-1.89-2.72-2.72   c-0.78,0.16-1.77-0.31-2.17-0.91c-0.58,0.17-1.2-0.24-1.81-0.36c-0.73,0.84-2.09,0.07-2.9-0.36c0-0.18,0-0.36,0-0.54   c-0.68-0.04-1.3,0.03-1.92,0.32c-0.02,0.14-0.05,0.27-0.07,0.41c0.09-0.31-0.18-0.91-0.54-0.91c-1.27,0-0.8,0.88-1.3,0.93   c-0.45-0.36-0.83,0.06-1.35-0.09c-1.34-0.39-2.61,0.03-4.05-0.29c-0.33,0.32-0.47,0.21-0.91,0.18c-0.12,0.08-0.23,0.17-0.35,0.25   c-1.26,0.19-1.6,1.78-2.48,2.57c-0.45,0.45-0.77,0.27-1.27,0.09c-0.14-0.07-0.29-0.13-0.43-0.2c0.23-0.94-0.68-1.92-1.27-2.54   c-0.64,0.22-2.96-0.79-3.26-1.27c-0.41-0.85-0.81-1.71-1.22-2.56c-0.09-0.29,1.33-1.35,1.86-1.74c1.11-1.89,2.23-3.77,3.34-5.66   c0.03-0.93-0.43-2.6-1.09-3.26c0-1.5,0-2.94,0.46-4.36c0.17-0.51-0.12-1.23,0.26-1.61c0-0.59-0.06-1.75,0.36-2.17   c0.06-0.66,0.12-1.33,0.18-1.99c0.6-1.03,1.21-2.05,1.81-3.08c-0.06-0.42-0.12-0.85-0.18-1.27c0.36-0.91,0.72-1.81,1.09-2.72   c0.33-0.62,1.9-1.45,2.54-1.45c0.41-0.41,0.39-1.06,0.49-1.6c0.09-0.34,2,0.6,2.41,0.88c1.11,0.75,1.48,1.74,2.35,2.71   c0.95,0.83,1.9,1.66,2.85,2.5c0.26-0.23,0.51-0.46,0.77-0.68c0.66-0.18,1.33-0.36,1.99-0.54c0.17-0.38,0.35-0.38,0.72-0.54   c-0.08-0.37,0.32-0.78,0.54-1.09c-0.13-0.69,0.61-1.1,1.08-1.48c1.24-1,3.55-1.39,5.08-1.06c0.77,0,0.49,2.44,0.18,2.9   c0.3-0.06,0.6-0.12,0.91-0.18c0.36-0.24,0.72-0.48,1.09-0.72c0.69,0.19,1.26,0.09,1.99,0c0.32,0.34,2.15,0.82,2.67,0.8   c1.16-0.09,1.28-1.9,1.86-2.79c0.25-0.1,0.5-0.2,0.75-0.3c1.2,0.15,2.41,0.3,3.61,0.45c0.54,0.09,2.3,2.77,2.71,3.47   c-0.01,0.14-0.02,0.28-0.02,0.42c0.33,1.09-0.65,1.85-1.25,2.84c-0.18,1.26,0.92,2.11,1.99,2.35c0.06,0.93,1.03,0.75,1.63,1.27   c-0.4,0.89,1.28,2.79,1.98,3.3c1.03,0.73,2.05-0.3,3.12-0.49c1.23-0.22,3.11,0.67,4.32,0.79c0.27,0.03,0.19-0.04,0.18,0.27   c0.7,0.63,0.59,0.91,0.73,1.75c0.97,0.72,1.93,1.45,2.9,2.17c0.56-0.5,1.18-0.07,1.77,0.24c0.77,0.43,0.46,1.6,0.53,2.3   c0.14,2.23,0.28,4.46,0.41,6.7c0.72,0.75,0.41,2.29,0.54,3.26c0.3,1.09,0.6,2.17,0.91,3.26c0,0.85,0,1.69,0,2.54   c-0.52,0.53-1.1,3.17-1.38,4.01c-0.51,1.59,0.52,6.48,1.19,7.95c0.12,1.09,0.24,2.17,0.36,3.26c0.32,0.38,0.48,0.62,0.58,1.11   c0.33,1.65,0.08,3.22,0.43,4.95c0.36,1.75,0.23,4.13,1.71,5.52c0.54,0.5,2.28,2.38,2.38,3.06c1.37,1.41,2.68,2.78,4.5,3.64   c1.57,0.12,3.14,0.24,4.71,0.36c0.52-0.62,1.98-0.51,2.72-0.36c0.52-0.35,1.35-0.38,1.99-0.36c0.47-0.55,1.8-0.71,2.54-0.72   c1.91-0.03,3.45,0.28,5.25,0.9c0.44-0.35,0.95,0.04,1.37,0.2c1.17,0.54,2.35,1.07,3.52,1.61c0.6,0.36,1.21,0.72,1.81,1.09   c0.61-0.28,2.2,1.1,2.9,1.27c1.43,0.33,2.63,1.09,3.62,2.17c0.24,0.36,0.49,0.73,0.73,1.09c1.23,1.23,2.71,2.48,3.54,4.01   c0.09,0.19-0.48,0.4-0.65,0.69c-0.59,1.03-1.42,0.86-2.31,1.39c-1.28,0.44-2.56,0.89-3.84,1.33c-2.46,1.61-4.19,4.46-6.97,5.57   L384.98,154.01z"/>
            <circle cx="335.1" cy="114.2" r="1.586"/>
        </g>
        <g id="__Orhangazi">
            <path d="   M398.41,144.21c-0.83-1.54-2.31-2.78-3.54-4.01c-0.24-0.36-0.49-0.73-0.73-1.09c-0.99-1.09-2.19-1.84-3.62-2.17   c-0.7-0.16-2.29-1.55-2.9-1.27c-0.6-0.36-1.21-0.72-1.81-1.09c-1.17-0.54-2.35-1.07-3.52-1.61c-0.42-0.16-0.93-0.55-1.37-0.2   c-1.8-0.62-3.34-0.93-5.25-0.9c-0.74,0.01-2.06,0.17-2.54,0.72c-0.64-0.02-1.47,0.01-1.99,0.36c-0.73-0.15-2.2-0.26-2.72,0.36   c-1.57-0.12-3.14-0.24-4.71-0.36c-1.82-0.87-3.14-2.23-4.5-3.64c-0.1-0.67-1.84-2.55-2.38-3.06c-1.48-1.39-1.35-3.77-1.71-5.52   c-0.35-1.73-0.1-3.3-0.43-4.95c-0.1-0.5-0.26-0.74-0.58-1.11c-0.12-1.09-0.24-2.17-0.36-3.26c-0.68-1.47-1.71-6.36-1.19-7.95   c0.27-0.84,0.86-3.47,1.38-4.01c0-0.85,0-1.69,0-2.54c-0.3-1.09-0.6-2.17-0.91-3.26c-0.14-0.97,0.17-2.51-0.54-3.26   c-0.14-2.23-0.28-4.46-0.41-6.7c-0.07-0.71,0.23-1.87-0.53-2.3l0.94,0.85c0.81,0.18,1.23-0.46,1.81-0.91   c-0.09-0.45,0.26-0.51,0.36-0.91c0.33-1.25,1.68-1.98,2.72-2.54c0.6,0,1.21,0,1.81,0c0.11-1.07,3.1-1.09,3.98-1.27   c0.27,0.28,0.51,0.32,0.91,0.36c0.24,0.18,0.48,0.36,0.72,0.54c0.27-0.54,1.3-0.54,1.81-0.72c0.48,0.55,1.22,0.41,1.92,0.35   c0.11,0.16,0.21,0.31,0.32,0.47c0.8-0.09,1.38,0.35,2.1,0.63c0.36,0.18,0.72,0.36,1.09,0.54c0.04,0.48,0.54,0.75,0.91,1.09   c0.3-0.12,0.6-0.24,0.91-0.36c0.1,0.13,0.2,0.27,0.29,0.4c0.94,0.51,1.19,0.29,2.06-0.58c-0.05-1.07,0.54-1.8,1.09-2.72   c0.87-1.47,1.64-3.09,1.99-4.71c0.22-1,1.08-1.94,0.65-2.87c-0.1-0.19-0.19-0.38-0.29-0.57c0.5,0.16,0.62-0.15,1.09-0.36   c0.14,0.14,0.45,0,0.91,0c0.08-0.83,0.86-1.18,1.4-1.65c0.68-0.53,2.08-0.35,2.8-0.01c1.5,0.31,2.99,0.62,4.49,0.93   c0,0.26,0.79,0.18,1.09,0.18c0.78,0.48,1.57,0.97,2.35,1.45c-0.12,0.39,0.42,0.97,0.72,1.27c0.6,0.24,1.21,0.48,1.81,0.72   c0.24,0.24,0.48,0.48,0.72,0.72c0.3,0.05,0.61,0.1,0.91,0.15c0.66,0.07,1.32,0.14,1.99,0.21c0.23,0.56,0.12,0.36,0.47,0.55   c0.27-0.06,0.53-0.13,0.8-0.19c0.76,0.5,1.43,0.55,1.63,1.45c0.3,0.03,0.91,0.02,0.91,0.36c0.85-0.06,1.69-0.12,2.54-0.18   c0.55,0.76,1.92,0.32,2.9,0.36c0.27,0.32,0.36,0.28,0.74,0.33c0.61,0.06,0.72-1.04,1.07-1.78c-0.17-0.55-0.34-1.09-0.5-1.64   c-0.02-0.09,0.47-0.51,0.68-0.71c0.18,0.06,0.36,0.12,0.54,0.18c0.33-0.28,0.66-0.55,0.98-0.83c0.55-0.5,0.09-1.66,0.38-2.41   c0.33-0.82,0.94-0.86,1.71-1.12c0.47-0.58,1.8-0.74,2.35-0.18c0.36,0.06,0.72,0.12,1.09,0.18c1.44,0.26,1.55,1.29,2.35,2.35   c0.51,0.39,1.01,0.78,1.52,1.17c0.68,0.76-0.07,0.96,0.15,1.9c0.39,0.94,0.79,1.88,1.18,2.82c-0.04,0.63-0.09,1.26-0.14,1.9   c0.48,0.85,0.97,1.69,1.45,2.54c0.22,0.29,0.45,0.58,0.67,0.88c0.56,0.73,1.12,1.47,1.68,2.2c0.42,1.09,0.85,2.17,1.27,3.26   c0.24,0.91,0.48,1.81,0.72,2.72c0.12,1.15,0.24,2.29,0.36,3.44c-0.12,0.3-0.24,0.6-0.36,0.91c-0.06,0.66-0.12,1.33-0.18,1.99   c-0.18,0.79-0.63,0.69-1.27,0.91c0-0.4-0.75-0.47-1.09-0.54c-0.37-0.37-0.94-0.54-1.45-0.54c-0.8-0.8-1.68-0.76-2.72-1.13   c-1.22-0.69-2.45-1.39-3.67-2.08c-0.8,0.03-1.6,0.05-2.4,0.08c-0.68,0.13-1.37,0.26-2.05,0.4c-0.79-0.59-2.47-1.1-3.47-1.43   c-0.18,0.06-0.36,0.12-0.54,0.18c-0.96-0.51-2.25-0.38-3.08-1.09c-1.22,0.15-2.41,0.12-3.44-0.72c-0.41,0.14-0.81,0.27-1.22,0.41   c-0.84-0.5-1.4-0.93-1.68-1.86c-0.66,0.08-1.32,0.16-1.98,0.24c-0.49,0.13-0.42,0.37-0.38,0.84c-0.91,0-1.18-0.45-2.01-0.69   c-0.42-0.1-0.35,0.59-0.35,0.87c-0.98,0-1.51,0.79-2.17,1.45c-1.84,0-2.97,2.7-3.8,3.98c-0.55-0.12-1.49,0.62-1.99,0.91   c-0.66-0.13-1.21,0.43-1.81,0.54c-0.3,0-0.6,0-0.91,0c-0.85,0.54-2.5,1.93-3.05,2.75c-0.31,0.59-0.62,1.19-0.93,1.78   c-0.06,1.03-0.12,2.05-0.18,3.08c0,0.66,0,1.33,0,1.99c0.76,4.26,1.27,9.23,4.89,12.32c0.36,0.42,0.72,0.85,1.09,1.27   c1.45,0.42,2.9,0.85,4.35,1.27c0.3,0,0.6,0,0.91,0c0.29-0.27,0.58-0.55,0.87-0.82c0.49-0.21,0.99-0.42,1.48-0.63   c1.45-0.24,2.9-0.48,4.35-0.72c0.07-0.15,0.14-0.3,0.21-0.45c0.56-0.03,0.84-0.2,1.06-0.71c0.29-0.12,0.58-0.25,0.88-0.37   c0.17-0.09,2.59,1.57,3.28,1.71c1.39,0.28,1.39,1.58,2.17,2.54c0.56,0.68,0.84,1.25,1.27,1.99c0.72-0.07,1.18,0.57,1.63,1.09   c0.91,0.85,1.81,1.69,2.72,2.54c0.59,0,1.41-0.21,2.09,0.06c0.6,0.23,1.31,0.89,2.07,0.85c0.56-0.03,0.78-0.03,1.27-0.36   c0.36,0.18,0.72,0.36,1.09,0.54c0.58-0.26,1.6,0.28,2.17,0.54c0.78-0.68,2.35,0.15,3.08,0.54c1.09-0.45,2.59,0.38,3.66,0.65   c0.11,0.02,0.22,0.05,0.33,0.07c0,0.79-0.09,1.38,0,2.17c-0.31,0.26-0.54,2.41-0.5,2.93c0.08,1.04-0.58,3.1-0.95,4.14   c0.25,0.47,0.04,2.27,0,2.92c-0.91-0.12-1.81-0.24-2.72-0.36c-1.68-0.24-3.32-0.82-5.07-1.11c-0.44-0.45-2.59-0.66-3.26-0.54   c-1.27,0.42-2.54,0.85-3.8,1.27c-0.06,0.33-1.29,1.14-1.63,1.27c-2.17,1.21-4.35,2.41-6.52,3.62c-1.33-0.18-2.66-0.36-3.98-0.54   L398.41,144.21z"/>
            <circle cx="374.21" cy="91.75" r="1.586"/>
        </g>
        <g id="__İznik">
            <path d="   M426.73,140.94c0.04-0.65,0.25-2.45,0-2.92c0.37-1.04,1.03-3.1,0.95-4.14c-0.04-0.52,0.19-2.67,0.5-2.93c-0.09-0.8,0-1.38,0-2.17   l0.7-0.2c0.33,0.02,0.52-0.03,0.75,0.2c0.61-0.02,1.22-0.05,1.83-0.07c1.68,0.33,1.82,0.83,3.6,0.25c0.37,0.19,0.74,0.37,1.11,0.56   c0.35-0.01,0.71-0.01,1.06-0.02c0.18-0.39,0.29-0.39,0.71-0.37c0.98,0.3,1.95,0.59,2.93,0.89c1.22-0.05,2.35,0.68,3.43-0.16   c0.48,0,1.51-0.19,1.81-0.54c1.69,0.34,3.02,0.79,4.71,0.18c0.59-0.21,1.09,0.01,1.67-0.24c0.59,0.11,1.73-0.44,2.13-0.84   c0.91,0.06,1.81,0.12,2.72,0.18c0.6,0.14,1.2,0.29,1.79,0.43c0.73-0.14,1.46-0.29,2.19-0.43c0.67-0.26,1.25-0.96,1.99-0.91   c0.6-0.24,1.21-0.48,1.81-0.72c0.78-0.53,1.56-1.06,2.34-1.59c0.85,0.29,1.7,0.58,2.55,0.87c0.43-0.09,0.74-0.29,1.09,0   c0.59-0.67,1.03-0.91,1.81-1.27c0.58-0.19,1.15-0.38,1.73-0.57c0.1,0.04,0.2,0.09,0.3,0.13c1.17-2.48,0.07-2.43,1.05-1.74   c0.06-0.36,0.12-0.72,0.18-1.09c0.6-0.36,1.21-0.72,1.81-1.09c0.62-1.74,1.25-3.49,1.87-5.23c0.38-0.74,0.76-1.49,1.14-2.23   c-0.02-0.16-0.03-0.32-0.05-0.49c0.28-0.69,0.72-1.23,0.62-2.01c-0.15-1.16-0.69-3.11-1.82-3.51c-0.51-0.16-1.13-0.02-1.4-0.48   c-0.6,0.42-1.21,0.85-1.81,1.27c-0.66,0.12-1.33,0.24-1.99,0.36c-0.97-0.36-1.93-0.72-2.9-1.09c-0.42-0.71-0.58-1.27-1.44-1.46   c-0.57-1.08-1.8-2.45-2.95-2.91c-0.03-0.47-0.07-0.94-0.1-1.41c-0.05-0.69-0.47-1.18-0.88-1.7c0.02-0.11,0.03-0.22,0.05-0.33   c-0.58-0.25-1.26-0.69-1.92-0.51c0.09-0.2,0.19-0.4,0.28-0.6c-0.69-0.46-1.32-0.35-1.18-1.39c-0.31-0.22-0.62-0.45-0.92-0.67   c-0.18-0.68-0.35-1.37-0.53-2.05c-0.6,0.04-1.16-0.29-1.27-0.91c-0.77-0.31-1.99-0.68-2.54-1.27c-0.36-0.06-0.72-0.12-1.09-0.18   c-1.37,0.27-3.34,0.24-4.52,1.09c-0.43,0.31-1.3,1.1-1.82,0.72c-0.94,0.83-2.24,1.93-3.62,1.81c-0.67,0.3-2.37,0.78-2.54,1.27   c-0.18-0.05-0.37-0.1-0.55-0.15c-0.82-0.24-1.48-1.18-2.33-1.04c-0.56,0.11-1.83,0.4-2.01,1.18c-0.53-0.06-1.06-0.12-1.59-0.19   c-0.62-0.24-1.23-0.48-1.85-0.72c-1.26-0.04-1.61-0.48-2.54-0.72c-0.55,0.05-2.16-0.05-2.72,0c-0.45-0.2-1.27,0.33-1.72,0.14   c-0.15,0.3-0.45,0.14-0.45-0.14v-0.54c0.06-0.66,0.12-1.33,0.18-1.99c0.12-0.3,0.24-0.6,0.36-0.91c-0.12-1.15-0.24-2.29-0.36-3.44   c-0.24-0.91-0.48-1.81-0.72-2.72c-0.42-1.09-0.85-2.17-1.27-3.26c-0.56-0.73-1.12-1.47-1.68-2.2l0.18-0.53   c0.14-0.12,0.28-0.23,0.42-0.35c0.18-0.06,0.36-0.12,0.54-0.18c0.72,0.12,1.45,0.24,2.17,0.36c1.2,1.02,2.21,1.63,3.8,1.63   c0.48-0.36,0.97-0.72,1.45-1.09c0.42,0.06,0.85,0.12,1.27,0.18c0.3-0.3,0.96-1.39,1.45-0.91c0.1,0.33,0.2,0.41,0,0.72   c0.92,0.64,1.63,0.78,1.63,1.99c0.07-0.11,0.13-0.22,0.2-0.33c0.63-1.08,0.05-2.2,0.35-3.48c-0.24,0-0.66-0.96-0.75-1.27   c-0.12-0.42-0.21-0.99-0.52-1.27c0.33-0.69,0.66-1.38,0.98-2.08c0.32-0.3,1.14-1.9,1.37-1.36c0.27,0.77,1,2.12,1.27,2.9   c0.06,0.6,0.12,1.21,0.18,1.81c0.17-0.06,0.35-0.12,0.52-0.19c0.13,0,0.26,0,0.38,0.01c0.34-0.34,0.44-0.36,0.91-0.36   c0.74-0.74,1.13-0.88,2.17-0.54c0.18-0.18,0.36-0.36,0.54-0.54c0.34-0.44-0.04-0.84,0.52-1.05c0.77-0.29,0.33,0.85,1.11,0.88   c0.12,0,0.24-0.01,0.36-0.01c0-0.74,0.49-2.22,1.29-2.4c0.45-0.07,1.75-0.38,1.9-0.11c0.13,0.28,0.19,1.42-0.11,1.42   c0.36,0.18,0.72,0.36,1.09,0.54c0.69-0.31,3.8-0.89,4.35-0.54c0.93-0.93,1.86-0.8,2.17-2.35c0.18-0.24,0.36-0.48,0.54-0.72   c0.66-0.36,1.33-0.72,1.99-1.09c0-0.3,0.6-0.85,0.91-0.91c0-1.75,3.02-3.13,4.38-3.73c0.29-0.33,0.58-0.65,0.87-0.98   c0.12-0.42,0.24-0.85,0.36-1.27c0.68-0.68,1.74-1.9,2.72-1.99c0.66-0.69,0.67-1.05,1.5-1.43c0.81-1.26,1.56-2.28,1.76-3.83   c0.08-0.58-1.02-1.45-0.5-2.06c0.47-0.12,1.35-0.36,1.77-0.11c0.91-0.91,1.75-1.72,2.35-2.9c0.36-0.16,0.72-0.19,0.91-0.54   c2.34,1.86,5.47,0.32,7.99,1.4c0.05,0.26,0.11,0.52,0.16,0.78c0.24,0.12,0.48,0.24,0.72,0.36c1,0.24,1.85,0.77,2.77,1.28   c1.09,0.23,2.17,0.46,3.26,0.69c0.28-0.15,1.8,0.45,2.22,0.7c0.86-0.27,1.78,0.66,2.61,0.95c1.36,0.47,2.77,0.51,4.17,0.54   c1.19,0.85,2.41,1.52,3.62,2.2c0.84,0.48,1.4,1.13,2.36,1.42c0.99,0.03,1.98,0.06,2.97,0.1c2.63-0.09,5.26-0.19,7.9-0.28   c0.58,0.19,2.25,1.09,2.72,0.91c1.27,0.91,2.54,1.81,3.8,2.72c0.66,0.18,1.33,0.36,1.99,0.54c0.61-1.33,3.86,0.38,4.31,1.44   c0.19,0.45,0.32,1.55,0.03,2c0.22,0.75,0.63,1.2,0,1.81c0.36,0.66,0.72,1.33,1.09,1.99c0.06,0.3,0.12,0.6,0.18,0.91   c-0.31-0.21-1.62-1.45-1.63-1.45c-0.05,0.12-0.09,0.23-0.14,0.35c-0.17,0.48,0.08,1.53,0.32,2c-0.08,0.39-0.05,0.83-0.36,1.09   c0.04,0.78,0.09,1.57,0.13,2.35c-0.02,0.5-0.46,0.8-0.13,1.27c-0.07,0.41-0.26,0.82,0,1.14c0.38,0.42,0.07,0.51,0.72,0.36   c2.42-0.5,4.44-1.3,6.89-1.87c0.96-0.35,1.92-0.7,2.88-1.05c0.57-0.58,2.67-1.69,3.28-1.11c1.23,1.19,2.75,3.14,3.72,4.56   c0.3,0.44,0.95,1.01,0.81,1.6c0.16,0.61,0.32,1.22,0.48,1.83c-1.79,0.54-3.58,1.07-5.37,1.61c-0.96,0.19-1.92,0.37-2.88,0.56   c-1.33,0.9-2.67,1.8-4,2.7c-1.03,0.66-2.05,1.33-3.08,1.99c-1.27,0.82-2.55,1.65-3.82,2.47c-0.62,0.37-1.69,0.87-1.98,1.51   c-2.26,1.16-5.04,3.61-5.42,6.32c-0.27,1.88,0.15,3.48,0.71,5.27c0.12,0.38,2.1,2.8,2.35,2.9c0.36,0.58,0.66,1.88,1.09,2.17   c-0.01,0.4-0.09,0.59,0.18,0.91c-0.07,0.28-0.14,0.55-0.21,0.83c0.05,0.5,0.09,0.99,0.14,1.49c-0.28,0.43-0.55,0.87-0.83,1.3   c-0.96,1.78-1.12,1.74-0.54,1.27c-0.57,0.93-1.8,2.49-3.08,1.81c-0.72,0.24-1.45,0.48-2.17,0.72c-2.11,0.76-3.89,1.87-5.69,3.18   c-0.23,0.55-1.6,2.3-2.1,2.43c-0.54,1.03-1.09,2.05-1.63,3.08c-0.2,0.71-0.39,1.43-0.59,2.15c-0.19,0.6-0.77,1.43-0.5,2.02   c-0.35,0.72-0.52,1.4-0.54,2.17c-0.02,0.91-0.79,2.15-1.47,2.8c-0.01,0.16-0.02,0.31-0.03,0.47c-1.43,0.06-2.87,0.12-4.3,0.18   c-1.55-0.12-2.71-0.57-4.15-0.76c-0.92-0.12-2.67,0.18-3.27-0.69c-0.83,0.25-2.53,0.08-3.41-0.1c-2.24-0.39-4.49-0.78-6.73-1.17   c-0.32,0.32-1.01,0.17-1.46,0.22c-1.02,0.23-2.04,0.46-3.07,0.69c-1.07,0.26-1.89,0.87-2.9,1.27c-0.64,0.12-1.29,0.23-1.93,0.35   c-0.93,0.49-1.85,0.97-2.78,1.46c-0.5,0.16-0.99,0.31-1.49,0.47c-1.14,0.66-2.29,1.32-3.43,1.99c-1.12,0.27-1.96,0.2-3.05-0.19   c-0.3-0.46-1.64-1.52-2.21-1.28c-1.3,0.6-0.29,0.03-1.49-0.4c-0.4-0.1-0.55-0.06-0.83-0.41c-1.44-0.32-2.88-0.65-4.32-0.97   c-0.67-0.16-1.34-0.32-2.01-0.48c-0.91,0.06-3.17,0.39-3.8-0.36c-0.78,0.12-1.57,0.24-2.35,0.36c-1.75,0.85-3.5,1.23-5.42,1.26   c-0.78,0.01-2.19,0.1-2.73-0.54c-0.7,0-1.34,0.28-1.99-0.18c-0.97,0-1.93,0-2.9,0c-0.42,0.24-0.85,0.48-1.27,0.72   c-0.96,0-2.22,0.41-2.9,1.09c-0.54,0.13-1.08,0.26-1.62,0.4c-0.94,0.47-2.5,0.87-3.47,0.56L426.73,140.94z"/>
            <circle cx="483.42" cy="114.75" r="1.586"/>
        </g>
        <g id="__İnegöl">
            <path d="   M414.78,301.74c0.64,0.21,1.29,0.43,1.93,0.64c0.46-0.18,1.78,0.56,2.24,0.81c1.81,0.78,3.62,1.57,5.43,2.35   c2.18,0.64,4.35,1.29,6.53,1.93c1.53,0.5,3.37,1.39,4.98,1.21c0.39,0.22,0.78,0.45,1.17,0.67c0.44,0,0.88,0,1.32,0.01   c0.8,0.2,1.28,0.53,2.21,0.38c1.43,0.8,4.48,0.93,6.23,0.75c0.87-0.09,1.92-0.14,2.55-0.78c1.21,0.2,3.02,0.76,4.17,0   c0.06-0.12,0.12-0.24,0.18-0.36c1.45-0.54,2.9-1.09,4.35-1.63c0.6-0.3,1.21-0.6,1.81-0.91c0.56-0.43,1.27-1.08,1.99-1.09   c0.67-0.81,2.67-3.54,3.61-3.42c0.39,0.06,0.82,0.04,1.08,0.36c0.13,0.24,0.26,0.47,0.38,0.71c0.46,0.46,1.42,0.92,1.27,1.63   c0.18,0.3,0.36,0.6,0.54,0.91c0.36,0.3,0.72,0.6,1.09,0.91c0.24,0.36,0.48,0.72,0.72,1.09c0.18,0.06,0.36,0.12,0.54,0.18   c0.48,0.48,0.97,0.97,1.45,1.45c0.74,0.48,2.05,0.93,2.35,1.81c0.6,0.3,1.21,0.6,1.81,0.91c1.03,0.06,2.05,0.12,3.08,0.18   c0.85-0.06,1.69-0.12,2.54-0.18c0.97,0.05,4.1,0.88,4.77,0.36c0.23-0.19,0.49-0.14,0.45-0.35c-0.76-3.35-0.51-7.24-0.51-10.69   c0-1.09,0-2.17,0-3.26c0.24-1.63,0.48-3.26,0.72-4.89c0.12-0.36,0.24-0.72,0.36-1.09c0.72-1.03,1.45-2.05,2.17-3.08   c0.48-0.36,0.97-0.72,1.45-1.09c0.56-0.71,1.12-1.42,1.68-2.13c0.67-0.87,1.61-1.64,1.75-2.75c0.24-1.95-0.71-5.06-2.52-5.99   c-0.36-0.72-0.72-1.45-1.09-2.17c-0.08-0.47-0.05-1.32-0.36-1.63c0-1.42-0.62-4.21,0.36-5.43c0.06-0.42,0.12-0.85,0.18-1.27   c-0.13-1.01-0.42-4.17,0-4.89c-0.91-3.88-3.03-7.04-4.17-10.87c-0.48-1.75-0.97-3.5-1.45-5.25c-0.5-2.44-0.56-4.85-1.45-7.24   c-0.36-0.96,0.1-2.75-0.72-3.44c-0.29-2.32-0.75-4.61-1.81-6.7c-0.6-1.17-1.99-3.04-2.18-4.33c-0.45-1.37-0.89-2.74-1.34-4.1   c0.24-0.78-0.15-1.44-0.27-2.21c-0.15-0.92,0.41-4.18,1.26-4.75c-0.06-0.32-0.14-1.27-0.36-1.27c-1.53,0-4.54,1.15-5.07,2.72   c-0.91,0.48-1.81,0.97-2.72,1.45c-0.3,0.3-0.6,0.6-0.91,0.91c-1.8,0.58-3.59,1.55-5.38,1.19c-1.25-0.25-2.61-0.67-3.67-1.38   c-0.54-0.72-1.09-1.45-1.63-2.17c-0.68-0.76-1.36-1.53-2.04-2.29c-0.22-0.56-0.45-1.13-0.67-1.69c-0.68-1.15-2.19-3.44-3.63-3.7   c-0.54-0.1-1.08-0.19-1.62-0.29c-2.57,0.24-4.63,2.39-7.23,2.48c-0.61,0.73-1.29,0.79-2.11,0.5c-0.72,0.27-2.87-0.43-3.23-1.14   c-0.74-1.48-1.46-2.86-1.88-4.57c-0.15-0.59-0.48-1.49-0.03-1.98c-0.13-0.43-0.75-1.42-0.54-1.63c-0.38-0.67-1.16-1.48-0.91-2.35   c-0.3-0.22-0.59-0.67-0.91-0.36c-1.06-0.98-2.12-1.96-3.19-2.94c-1.35-1.01-2.71-2.02-4.06-3.03c-1.2-0.38-2.41-0.76-3.61-1.14   c-0.9-0.29-1.58-0.73-2.55-0.84c-0.43-0.05-0.94-0.09-1.27,0.18c-1.45-0.34-2.53,0.18-3.98,0.18h-0.18   c-1.14,1.42-2.64,2.79-4.16,3.8c-1.87,1.21-3.75,2.42-5.62,3.62c-0.3,0.3-0.6,0.6-0.91,0.91c-0.97,0.6-1.93,1.21-2.9,1.81   c-0.73,0.46-1.17,1.17-1.92,1.62c-0.58,0.46-1.16,0.91-1.74,1.37c-0.35,0.39-0.7,0.78-1.05,1.18c-0.26,0.77-0.39,1.54-1.27,1.81   c-0.36,1.33-0.72,2.66-1.09,3.98c0.14,0.59,0.28,1.18,0.42,1.77c-0.02,0.68-0.04,1.35-0.06,2.03c-0.19,0.65-0.48,3.17-0.18,3.62   c-0.42,0.97-0.84,1.93-1.27,2.9c-0.06,0.36-0.12,0.72-0.18,1.09c-0.36,0.97-0.72,1.93-1.09,2.9c-0.36,0.63-0.25,1.81-0.91,2.17   c0.02,0.64,0.23,1.03-0.15,1.47c-1.4,1.59-2.75,0.75-4.57,1.34c-0.56,0.18-1.65,0.77-2.16,0.45c-1.01,0.6-1.85,1.27-2.54,2.17   c-0.36,0.3-0.72,0.6-1.09,0.91c-0.62,0.39-1.52,0.76-1.81,1.45c-2.51,1.22-4.88,2.59-7.61,3.44c-0.76,0.24-2.08,1.43-2.9,1.27   c-0.52,0.42-1.06,1.17-1.81,1.09c-1.04,0.92-1.63,2.02-2.52,3.05c-0.09,0.31-0.19,0.62-0.28,0.92c-0.35,0.41-0.71,0.83-1.06,1.25   l0.27-0.12c0.11-0.07,0.22-0.14,0.33-0.21c0.19,0.93,1.19,1.37,1.81,1.99c1.15,1.03,2.29,2.05,3.44,3.08   c0.36,0.97,0.72,1.93,1.09,2.9c0.12,0.72,0.24,1.45,0.36,2.17c0.12,0.18,0.24,0.36,0.36,0.54c0.04,0.72,0.08,1.43,0.12,2.15   c0.14,0.49,0.28,0.98,0.42,1.47c0.44,1.69,0.7,3.83,1.81,5.25c1.15,1.27,2.29,2.54,3.44,3.8c0.88,0.86,2.11,2.36,3.19,2.78   c1.3,1.03,2.6,2.06,3.9,3.1c0.72,1.12,1.43,2.24,2.15,3.36c0.54,1.03,1.09,2.05,1.63,3.08c-0.03,0.92,1.13,2.75,1.56,3.65   c0.4,1.11,0.8,2.22,1.2,3.33c0.41,1.61,2.09,2.99,3.23,4.06c1.6,1.3,4.22-0.19,6.18-0.42c1.32,0.08,2.63,0.16,3.95,0.24   c0.62-0.46,2.19-0.48,2.9-0.18c0.78,0.36,1.57,0.72,2.35,1.09c0.3,0.24,0.6,0.48,0.91,0.72c1.47,0.71,3.7,3.17,3.2,4.91   c0.32,0.96,0.64,1.92,0.96,2.88c-0.11,0.1-0.22,0.2-0.33,0.3L414.78,301.74z"/>
            <circle cx="427.28" cy="233.37" r="1.586"/>
        </g>
        <g id="__Kestel">
            <path d="   M416.15,189.25c0.36-1.54-2.01-3.76-3-4.69c-1.29,0.02-2.41-0.8-3.62-1.09c-0.84-0.36-1.69-0.73-2.54-1.09   c-2.33-1.13-3.34-1.56-5.02-3.84c-1.41-1.91-1.68-3.6-1.68-5.94c0.12-0.36,0.24-0.72,0.36-1.09c1.29-2.21,1.08-4.64-0.11-6.95   c-1.07-2.07-3.46-5.42-5.51-6.59c-1.93-0.8-3.86-1.6-5.79-2.4c-1.31-0.21-3.17-0.89-4.27-1.58c-1.05-1.04-2.1-2.09-3.16-3.13   c-0.6-0.36-1.21-0.72-1.81-1.09c-1.56-1.46-3.13-2.92-4.69-4.37c-0.09-0.07-2.97,0.04-3.29,0.21c-0.12,0.06-0.23,0.12-0.35,0.18   c0.72,0.39,0.72,1.29,0.91,1.99c-0.12,0.79-0.24,1.57-0.36,2.35c0.36,0.72,0.72,1.45,1.09,2.17c-0.06,0.41-0.11,0.82-0.17,1.23   c-0.31,0.91-1.59,1.23-2.37,1.85c-0.18,0.3-0.36,0.6-0.54,0.91c0.43,1.3-0.49,2.74-1.27,3.62c-0.79,0.15-2.36,1.23-2.84,1.94   c-0.49,0.71-0.54,1.46-0.57,2.28c-0.19,0.53-0.38,1.05-0.58,1.58c0.27,0.37,0.12,0.5,0,0.91c0.5,0.31,0.39,1.38,0.54,1.99   c0.48,0.48,0.97,0.97,1.45,1.45c-0.63,0.28-0.5,1.36-0.54,1.99c0.53,0.07,0.99,0.57,1.23,1.04c0.07,0.14,0.15,0.27,0.22,0.41   c-0.61,0.02-1.17,1.13-1.54,1.68c-0.34,0.55-1.34,0.38-1.9,0.5c-0.65,1.37-1.86,0.59-3.02,0.88c-1.05,0.31,0.02,1.9,0.31,2.75   c-0.65,0.53-0.55,1.81-0.36,2.54c-0.18,0.24-0.35,0.48-0.53,0.72c-0.17,0.32-0.11,0.36-0.52,0.39c-0.87-0.71-2.26-1.14-3.17-1.4   c-0.66-0.15-0.96,0.37-1.39,0.83c0.95,0.38,0.88,3.23,1,4.16c0.17,1.02,0.22,1-0.47,1.81c-0.06,0.06-0.11,0.13-0.17,0.19   c-0.42-0.27-0.61-0.23-1.09-0.18c-0.54,0.12-1.08,0.24-1.62,0.36c-0.48-0.3-2.36,0-3.08,0c-0.56,0,0.1,1.15,0.27,1.53   c0.04,0.04,0.03,0.08,0.03,0.08c-0.01-0.02-0.02-0.05-0.03-0.08c-0.05-0.06-0.2-0.13-0.58-0.13c-0.62,0.26-1.24,0.52-1.86,0.78   c-0.14,0.57-0.54,0.51-0.91,0.91c-1.12,1.21-2.19,1.58-3.8,1.63c-0.21,0.28-0.54,0.28-0.87,0.36c0.11,0.08,0.46,0.44,0.69,0.73   c0.17,0.66,0.35,1.33,0.52,1.99c0.03,1.06,0.19,2.14,0.94,2.91c0.16,1.41,1,2.55,1.62,3.79c-0.36,0.84,0.58,2.17,0.72,3.08   c-0.39,0.73,0.14,3.13,0.24,4.02c0.06,0.55-0.18,1.72-0.58,2.11c-0.33,1.32-0.66,2.48-0.75,3.83c-0.3,0.79-0.6,1.57-0.91,2.35   c-1.37,2.03-2.63,3.8-3.44,6.16c-0.59,0.98,0.38,1.03,0.91,1.63c1.3,1.49,2.6,2.81,4.17,4.17c1.62,1.4,3.17,2.92,4.89,3.98   c-0.15,0.63,0.43,1.26,0.72,1.81c0.68-0.23,2.81,2.2,3.37,2.7c1.23,0.85,2.46,1.7,3.69,2.55c0,0.52,1.19,1.04,1.63,1.27   c0.27,0.99,1.6,1.37,2.35,1.81c0.16,0.17,0.32,0.34,0.49,0.51c0.35-0.42,0.71-0.83,1.06-1.25c0.09-0.31,0.18-0.62,0.28-0.92   c0.89-1.03,1.48-2.13,2.52-3.05c0.76,0.09,1.29-0.67,1.81-1.09c0.82,0.16,2.14-1.03,2.9-1.27c2.72-0.85,5.1-2.22,7.61-3.44   c0.29-0.69,1.19-1.06,1.81-1.45c0.36-0.3,0.72-0.6,1.09-0.91c0.68-0.9,1.52-1.57,2.54-2.17c0.51,0.32,1.6-0.27,2.16-0.45   c1.83-0.59,3.17,0.25,4.57-1.34c0.39-0.45,0.17-0.83,0.15-1.47c0.65-0.37,0.54-1.55,0.91-2.17c0.36-0.97,0.72-1.93,1.09-2.9   c0.06-0.36,0.12-0.72,0.18-1.09c0.42-0.97,0.85-1.93,1.27-2.9c-0.3-0.46-0.01-2.98,0.18-3.62c0.02-0.68,0.04-1.35,0.06-2.03   c-0.14-0.59-0.28-1.18-0.42-1.77c0.36-1.33,0.72-2.66,1.09-3.98c0.88-0.27,1.01-1.04,1.27-1.81c0.35-0.39,0.7-0.78,1.05-1.18   c0.58-0.46,1.16-0.91,1.74-1.37c0.75-0.45,1.18-1.16,1.92-1.62c0.97-0.6,1.93-1.21,2.9-1.81c0.3-0.3,0.6-0.6,0.91-0.91   c1.87-1.21,3.75-2.42,5.62-3.62c1.52-1.02,3.02-2.38,4.16-3.8C416.03,189.53,416.08,189.55,416.15,189.25z M381.46,187.64   c-0.32-0.17-0.57-0.21-0.91,0c-0.27,0.37-0.54,0.73-0.81,1.1c-0.29,0.43-2.54-0.68-2.85-0.89c-0.11-0.07-0.21-0.14-0.32-0.21   c0.46-0.25,0.36-0.71,0.56-1.19c0.12-0.21,0.23-0.42,0.35-0.62c0.63,0.21,0.97-0.6,1.48-0.84c0.33-0.15,0.71,0.57,0.88,0.84   c0.5-0.34,1-0.68,1.51-1.01c0.04-0.02,0.08-0.05,0.12-0.07c-0.05,0.59,0.76,0.69,1.05,1.12   C382.84,186.36,381.92,187.13,381.46,187.64z"/>
            <circle cx="348.14" cy="195.52" r="1.586"/>
        </g>
        <g id="__Gürsu">
            <path d="   M342.52,193.8c0.34-0.08,0.69-0.08,0.91-0.36c1.61-0.05,2.68-0.42,3.8-1.63c0.37-0.39,0.77-0.33,0.91-0.91   c0.62-0.26,1.24-0.52,1.86-0.78c0.65,0,0.61,0.21,0.61,0.21c-0.08-0.25-0.91-1.6-0.31-1.6c0.73,0,2.61-0.3,3.08,0   c0.54-0.12,1.08-0.24,1.62-0.36c0.48-0.05,0.68-0.09,1.09,0.18c0.06-0.06,0.11-0.13,0.17-0.19c0.69-0.81,0.64-0.78,0.47-1.81   c-0.12-0.93-0.05-3.78-1-4.16c0.43-0.46,0.73-0.98,1.39-0.83c0.92,0.27,2.3,0.69,3.17,1.4c0.4-0.04,0.34-0.07,0.52-0.39   c0.18-0.24,0.35-0.48,0.53-0.72c-0.19-0.72-0.29-2.01,0.36-2.54c-0.28-0.85-1.36-2.44-0.31-2.75c1.16-0.29,2.37,0.5,3.02-0.88   c0.56-0.11,1.55,0.05,1.9-0.5c0.38-0.54,0.94-1.65,1.54-1.68c-0.07-0.14-0.15-0.27-0.22-0.41c-0.23-0.47-0.7-0.97-1.23-1.04   c0.04-0.63-0.09-1.72,0.54-1.99c-0.48-0.48-0.97-0.97-1.45-1.45c-0.16-0.61-0.04-1.68-0.54-1.99c0.12-0.41,0.27-0.53,0-0.91   c0.19-0.53,0.38-1.05,0.58-1.58c0.02-0.82,0.08-1.57,0.57-2.28c0.48-0.71,2.05-1.78,2.84-1.94c0.78-0.88,1.7-2.32,1.27-3.62   c0.18-0.3,0.36-0.6,0.54-0.91c0.78-0.62,2.05-0.94,2.37-1.85c0.06-0.41,0.11-0.82,0.17-1.23c-0.36-0.72-0.72-1.45-1.09-2.17   c0.12-0.78,0.24-1.57,0.36-2.35c-0.19-0.7-0.19-1.6-0.91-1.99l-0.1-0.44c-0.26-0.2-0.53-0.34-0.76-0.37   c-0.14,0.09-0.27,0.17-0.41,0.26c-0.24,0-1.07-0.16-0.84,0.32c0.31,0.59-0.07,1.47,1.2,1.31c-0.16,0.13-0.32,0.27-0.48,0.4   c-0.02,0.11-0.05,0.21-0.07,0.32c-0.3,0.06-0.6,0.12-0.91,0.18c-0.6-0.18-1.21-0.36-1.81-0.54c-0.37,0.09-0.59,0.24-0.91,0   c-0.55,0.44-1.02,0.91-1.63,0.91c-0.75,0-2.23-0.42-2.56,0.15c-0.26,0.43-0.05,0.72-0.53,0.91c-0.58,0.24-1.38,0.66-1.98,0.2   c-0.6,0.06-1.21,0.12-1.81,0.18c-0.42,0-0.85,0-1.27,0c-0.72-0.48-1.45-0.97-2.17-1.45c-0.57-0.03-1.25-0.42-1.38,0.24   c-0.14,0.1-0.29,0.2-0.43,0.31c0.04,0.11,0.08,0.21,0.12,0.32c0.14,0.38,0.28,0.75,0.42,1.13c-0.54,0.91-1.09,1.81-1.63,2.72   c-0.46,0.52-1,0.44-0.74,1.16c0.07,0.34,0.13,0.68,0.2,1.01c-0.53,0.49-1.39,1.25-0.91,1.99c-0.24,0.36-0.48,0.72-0.72,1.09   c-0.73,0.24-1.46,0.48-2.18,0.71c-0.66,0.66-0.99,2.03-1.98,2.19c-0.67,1.13-1.08,2.42-2.44,2.86c-0.51,0.13-1.03,0.26-1.54,0.4   c-0.23,0.11-0.46,0.23-0.7,0.35c-0.67,0.35-1.29,0.54-2.03,0.52c-0.62-0.02-1.45,0.33-1.62-0.5c-0.54,0.16-1.75,0.08-1.99,0.36   c-0.31-0.44-0.99-1.56-1.64-1.15c-0.92,0.63-2.74,1.44-2.53,2.78c-0.3,0.24-0.6,0.48-0.91,0.72c-0.3,0.08-0.6,0.15-0.9,0.23   c-0.36,0.29-0.73,0.57-1.09,0.85c-0.3,0.6-0.6,1.21-0.91,1.81c0.4,0.65,0.75,1.12,0.91,1.81c-0.15,0.57-0.3,1.13-0.45,1.7   c0.02,0.1,0.02,0.06,0.01,0.12c0.44,0.09,0.28-0.62,0.58-0.17c0.27,0.4,0.55,0.8,0.82,1.21c0.28,0.29,0.45,0.54,0.85,0.4   c-0.01,0.06-0.02,0.12-0.03,0.18c-0.16,1.05-0.56,2.43,0.21,3.27c-0.04,0.72-0.04,1.7,0.54,2.17c-0.27,0.23-1.66,1.47-1.35,1.7   c1.3,0.7,2.59,1.4,3.89,2.1c0.42,0,0.84,0,1.27,0c0.48,0,0.97,0,1.45,0c0.54,0.16,1.61,0.32,1.45,1.09   c0.32,0.21,0.53,0.5,0.91,0.36c0.36,0.44,0.52,0.76,1.09,0.91c0.01,0.17,0.01,0.33,0.02,0.5c0,0.74,0.41,1.85-0.2,2.4   c0.12,0.7,0.24,1.41,0.36,2.11c0.15,0.51,0.3,1.03,0.45,1.54c0.4,0.17,0.79,0.34,1.19,0.51c0.28-0.08,0.8-0.23,1.37-0.39   L342.52,193.8z"/>
            <circle cx="342.7" cy="187.1" r="1.586"/>
        </g>
        <g id="__Yıldırım">
            <path d="   M341.62,224.77c0.81-2.36,2.07-4.12,3.44-6.16c0.3-0.78,0.6-1.57,0.91-2.35c0.08-1.35,0.42-2.51,0.75-3.83   c0.4-0.39,0.64-1.56,0.58-2.11c-0.09-0.88-0.63-3.29-0.24-4.02c-0.14-0.91-1.09-2.24-0.72-3.08c-0.62-1.24-1.46-2.38-1.62-3.79   c-0.75-0.77-0.91-1.86-0.94-2.91c-0.17-0.66-0.35-1.33-0.52-1.99c-0.3-0.38-0.78-0.86-0.72-0.72l0.04-0.06   c-0.62,0.17-1.19,0.34-1.49,0.43c-0.4-0.17-0.79-0.34-1.19-0.51c-0.15-0.52-0.3-1.03-0.45-1.54c-0.12-0.7-0.24-1.41-0.36-2.11   c0.61-0.55,0.2-1.66,0.2-2.4c-0.01-0.17-0.01-0.33-0.02-0.5c-0.56-0.15-0.73-0.47-1.09-0.91c-0.38,0.14-0.58-0.16-0.91-0.36   c0.16-0.76-0.91-0.93-1.45-1.09c-0.48,0-0.97,0-1.45,0c-0.42,0-0.85,0-1.27,0c-1.3-0.7-2.59-1.4-3.89-2.1   c-0.31-0.24,1.09-1.47,1.35-1.7c-0.58-0.47-0.59-1.45-0.54-2.17c-0.77-0.84-0.37-2.21-0.21-3.27c0.01-0.06,0.02-0.12,0.03-0.18   c-0.4,0.14-0.57-0.11-0.85-0.4c-0.27-0.4-0.55-0.8-0.82-1.21c-0.3-0.45-0.16,0.25-0.58,0.17c0,0-0.56,1.56-0.1,1.98   c-0.07,0.05-0.14,0.1-0.22,0.15c-0.56,0.39-2.17,1.44-2.32,2.02c-0.36,0.12-0.72,0.24-1.09,0.36c-0.11,0.65,0.28,1.08,1.09,1.63   c-0.61-0.18-1.94,0.01-2.54-0.17c-0.29,0.12-0.59,0.24-0.88,0.36c-1.26,0.1-2.24-0.2-3.1,1c-0.41,0.18-0.71,0.56-0.72,0.98   c-0.2,0.04-0.39,0.09-0.59,0.13c-0.11-0.1-0.21-0.21-0.32-0.31c-0.07,0.19-0.14,0.38-0.2,0.57c-0.88,4.1-0.2,8.62-1.97,12.65   c0.6,0.36,0.69,0.98,0.72,1.63c-0.48,0-0.97,0-1.45,0c-1.32,1.02-2.73,2.3-3.84,3.73c-0.34,0.44-0.97,0.84-0.87,1.52   c-0.17,0.36-0.34,0.72-0.52,1.08c0.05,0.54,0.1,1.09,0.15,1.64c0.15,0.33,0.39,0.38,0.72,0.36c1.01,2,2.03,4,3.04,6   c0.62,1.07,0.63,2.35,2.05,2.73c0.11,0.11,0.23,0.21,0.34,0.32c0.45-0.03,0.74-0.13,1.09,0.18c1.61,0,3.02,0.17,4.66,0.46   c1.95,0.12,3.9,0.23,5.85,0.35c2.11,0.47,4.22,0.93,6.33,1.4c0.79,0.08,2.35-0.07,2.9,0.51c1.03-0.6,2.74-1.76,3.59-0.4   c1.05,1.89,0.06,3.69,0.33,5.6c-0.4,0.84,0.06,2.13,0.82,2.53L341.62,224.77z"/>
            <circle cx="331.84" cy="198.05" r="1.586"/>
        </g>
        <g id="__Nilüfer">
            <path d="   M226.25,237.46c0.66-0.04,3.3-0.35,3.62-0.74c0.55,0.16,1.41,0.09,1.81-0.36c0.51,0,0.62,0.14,1.07,0.32   c1.51,0.61,2.87,0.37,4.18,1.49c1.15,0.06,2.29,0.12,3.44,0.18c1.63-0.72,3.26-1.45,4.89-2.17c1.03-0.24,2.05-0.48,3.08-0.72   c1.63,0.12,3.26,0.24,4.89,0.36c1.44,0.25,2.88,0.51,4.31,0.76c0.54-0.01,1.09-0.03,1.64-0.04c1.2,0.32,2.4,0.64,3.6,0.96   c0.8-0.02,1.6-0.03,2.41-0.05c0.34,0.12,0.68,0.25,1.02,0.37c0.86-0.05,1.72-0.09,2.58-0.14c1.08-0.03,2.17-0.06,3.25-0.09   c-0.32-0.42-0.67-1.33-0.61-1.73c0.15-0.56,0.31-1.11,0.46-1.67c0.79-0.71,1.58-1.43,2.37-2.14c0.39-0.23,1.01-0.74,1.43-0.58   c0.85-0.77,1.69-1.55,2.54-2.33c0.3-0.37,0.6-0.74,0.9-1.12c0.48-0.36,0.93-0.55,1.29-1.02c0.31-0.41,0.57-1.22,1.06-1.33   c0.55-2.82,1.46-6.03,0.72-8.87c0.06-0.66,0.12-1.33,0.18-1.99c0.52-1.07,1.28-2.65,2.35-3.26c0.97-2.23,1.93-4.47,2.9-6.7   c0.38-0.63,0.27-1.76,0.91-2.17c-0.09-0.4-0.19-0.8-0.28-1.21c0.58-0.62,1.15-1.25,1.73-1.87c0.39-0.16,1.81-0.3,1.81-0.72   c0.18-0.58,0.13-1.41,0.54-1.81c-0.18-1.11-0.63-2.17-0.54-3.26c0.05-0.63,0.7-1.2,0.36-1.81c0.5-0.86,1.33-2.12,2.35-2.35   c0.21-0.26,0.42-0.52,0.63-0.79c-0.63-0.46-1.27-0.92-1.9-1.39c-0.81-0.99-1.62-1.99-2.43-2.98c-1.18-1.18-2.36-2.36-3.54-3.54   c-0.44-0.3-0.87-0.6-1.31-0.9c-0.35-0.48-0.7-0.97-1.05-1.45c-1.03-0.95-2.06-1.9-3.1-2.85c-0.48-0.38-0.95-0.76-1.43-1.14   c-0.18-0.24-0.36-0.48-0.54-0.72c-0.35-1.01-1.22-3.43-0.54-4.35c-0.31-0.26-0.5-0.6-0.91-0.54c-0.35-0.54-0.7-1.09-1.05-1.63   c-0.49-0.56-0.98-1.11-1.47-1.67l-0.19,0.22c-0.06-0.02-0.11-0.03-0.17-0.05c-0.63-0.17-0.93-0.42-1.53-0.06   c-0.39,0.38-0.78,0.76-1.17,1.14c-0.8,0.44-1.59,0.89-2.39,1.33c-1.43,0-2.72-0.21-4.17-0.36c-0.84-0.33-1.68-0.67-2.51-1   c-0.93,0.44-1.37,0.64-2.38,0.64c-0.64,0-1.54-0.09-1.99-0.54c-0.79,0-1.57,0-2.35,0c-0.59,0-1.25-0.19-1.56,0.4   c-0.25,0.73-0.51,1.46-0.76,2.19c-0.21,0.71,0.16,1.21-0.39,1.76c-0.91,0.06-1.81,0.12-2.72,0.18c0,0.3-0.96,0.63-1.27,0.72   c-0.45,0.13-1.11,0.02-1.45,0.36c-0.77,0-1.24,0.22-1.98,0.42c-0.67-0.08-1.34-0.16-2.01-0.24c-0.16,0.28-0.19,0.22,0,0.54   c-0.77,0.16-1.63,0.42-2.35,0.18c-0.06-0.12-0.12-0.24-0.18-0.36c0.15-0.68,0.68-1.81-0.11-2.09c-0.42-0.11-0.85-0.22-1.27-0.33   c-0.87-0.35-0.33-0.58-1-0.58c-0.33,0.79-0.88,1.29-1.6,1.73c-0.42-0.24-0.85-0.48-1.27-0.72c-0.36,0.06-0.72,0.12-1.09,0.18   c-0.18-0.06-0.36-0.12-0.54-0.18c-0.53-0.09-1.24,0.39-1.63,0c-0.53-0.6-2.38-2.54-3.08-2.54c-1.88-1.98-3.16-4.17-6.52-3.62   c-0.88,0.15-3.4,1.71-3.98,2.35c-1.09,0.24-2.17,0.48-3.26,0.72c-0.3-0.24-0.6-0.48-0.91-0.72c-0.41-0.55-0.74-1.52-1.58-1.13   c-0.78,0.4-0.88,0.7-1.5,1.31c-0.37,0.09-0.65,0.06-0.91,0.36c-1.03-0.24-2.05-0.48-3.08-0.72c-0.9,0.15-1.54,0.91-2.54,0.91   c-0.68,0.45-1.16,0.77-1.99,0.72l0.31,0.38c0.39,0.59,0.56,1.11,0.24,1.79c1.07,0.64,1.67,2.35,1.78,3.61   c0.31,0.29,0.33,0.69,0.38,1.11c0.24,0.21,1.39,3.67,1.46,4.16c0.11,0.72-0.06,1.62-0.28,2.28c-0.05,0.56-0.11,1.12-0.16,1.68   c-0.03,1.15-0.07,2.31-0.1,3.46c-0.48,0.91-0.97,1.81-1.45,2.72c-0.75,1.86-2.45,3.67-3.82,5.08c-0.48,0.42-0.95,0.84-1.43,1.26   c-0.31,0.59-1.05,2.68-0.63,3.19c0.47,0.53,1.8,1.98,2.57,1.43c1.32-1,0.52-2.1,2.47-2.88c0.13-0.51-0.04-0.51,0.29-0.44   c0.36,0.09,0.71-0.07,0.89,0.13c0.4,0.57,0.47,1.38,1.11,1.64c-0.12,0.6-0.24,1.21-0.36,1.81c0.29,0.23,0.58,0.45,0.88,0.68   c-0.07,0.37-0.16,0.4,0.03,0.77c-0.3,0.66-0.6,1.33-0.91,1.99c0.06-0.06,0.12-0.12,0.18-0.18c0.33,0.01,1.63,0.29,1.63-0.18   c0.64-0.69,2.08-2.23,1.45-3.26c0.18-0.36,0.36-0.72,0.54-1.09c0.66-0.48,1.33-0.97,1.99-1.45c0.05-0.49-0.1-1.9,0.53-2.03   c0.42-0.08,0.69-0.37,0.98-0.16c0.26,0.2,0.66,0.14,0.65,0.37c-0.02,0.35-0.25,1.48,0.06,1.67c0.68,0.49,1.37,0.97,2.05,1.46   c0.58-0.11,1.36,0.6,1.7,1.04c-0.04,1.03-0.48,2.91-1.44,3.44c-0.02,0.64-0.67,2.34-1.16,2.5c-0.72,0.19-1.77,1.04-2.47,0.4   c-0.25,0.28-0.53,0.9-0.77,0.98c-1.03,0.36-2.36,0.36-2.9,1.44c-0.3,0.6-1.07,1.91-0.67,2.47c-0.19,0.37-0.29,0.47-0.18,0.91   c-1.2,0.72-3.6,1.87-3.8,3.44c-0.16,0.19-0.32,0.37-0.48,0.56c-0.52-0.02-0.4,0.09-0.17,0.49l-0.33-0.48   c0.8,1.67,2.49,4.57,4.35,5.06c0.35,0.79,0.94,1.19,1.7,1.61c1.96,1.09,4.35,0.84,6.34,2.17c0.24,0.06,0.48,0.12,0.72,0.18   c1.15,0.66,2.29,1.33,3.44,1.99c0.31,0.26,0.91,0.45,0.91,0.91c0.57,0.47,1.03,0.71,1.19,1.44c-0.04,0.18-0.07,0.37-0.11,0.55   c0.36,0.91,0.72,1.81,1.09,2.72c0.06,0.54,0.12,1.09,0.18,1.63c0.44,0.44,0.47,1.73,0.54,2.35L226.25,237.46z"/>
            <circle cx="267.36" cy="190.63" r="1.586"/>
        </g>
        <g id="__Mustafakemalpaşa">
            <path d="M244.17,274.26c-0.46-0.41-0.91-0.89-1.08-1.5   c0.85-2.33-0.16-4.99-0.49-7.28c0.04-1.8,0.09-3.6,0.13-5.39c-0.19-1.19-1.66-2.68-2.53-3.44c-0.67-0.48-1.33-0.97-2-1.45   c-0.91,0.05-2.18-0.41-2.98-0.83c-2.08-1.07-4.11-2.93-5.53-4.79c-0.42-1.21-0.85-2.42-1.27-3.62c-0.6-0.85-1.21-1.69-1.81-2.54   c-0.06-0.36-0.12-0.72-0.18-1.09c-0.12-0.12-0.24-0.24-0.36-0.36c0.06-0.48,0.12-0.97,0.18-1.45c-0.24-0.97-0.48-1.93-0.72-2.9   c-0.07-0.62-0.1-1.91-0.54-2.35c-0.06-0.54-0.12-1.09-0.18-1.63c-0.36-0.91-0.72-1.81-1.09-2.72c0.04-0.18,0.07-0.37,0.11-0.55   c-0.16-0.73-0.62-0.97-1.19-1.44c0-0.45-0.6-0.65-0.91-0.91c-1.15-0.66-2.29-1.33-3.44-1.99c-0.24-0.06-0.48-0.12-0.72-0.18   c-1.98-1.33-4.38-1.09-6.34-2.17c-0.76-0.42-1.35-0.82-1.7-1.61c-1.83-0.48-3.48-3.28-4.3-4.96c0.04,0.57-1.19,1.13-1.6,1.33   c-0.74-0.22-1.44,0.48-2.17,0.54c-1,0.09-2.02,0.43-2.9,0.91c-0.06,0.12-0.12,0.24-0.18,0.36c-0.7,0.45-1.92,0.49-2.73,0.53   c-1.41,0.07-2.59-0.42-3.99-0.6c-0.72-0.04-1.44-0.08-2.16-0.11c-0.45-0.45-1.57-0.48-2.17-0.54c-1.43-0.14-2.67-0.69-3.98-1.09   c-0.08-0.59-2.23-2.58-2.86-2.49c-0.95-1-1.9-2-2.85-2.99c-0.19-0.29-0.38-1.97-0.27-2.3c-1.14-1.14-1.6-0.14-3.08-0.54   c0.34-0.11,0.75-0.8,1.09-0.91c0.57,0.3,0.39-0.04,0.91,0.36c0.25-0.12,1.75,0.48,1.99,0.36c-0.6-0.37-1.45-1.07-1.45-1.63   c0.3-0.6,0.6-1.21,0.91-1.81c-0.34-0.68-0.68-1.35-1.02-2.03c-0.1-0.22-1.69-0.22-2.06-0.14c-0.45-0.65-0.91-1.29-1.36-1.94   c-0.71,0.15-1.11,0.22-1.71,0.67c-1.18-0.13-2.03,0.62-2.72,1.45c-0.43-0.73-1.47-0.07-2.17,0c-1.09-0.12-2.17-0.24-3.26-0.36   c-0.35,0.34-1.12,0.36-1.63,0.36c-0.37-0.22-0.54-0.28-0.54-0.72c-0.44-0.16-1.16-0.67-1.45-0.72c-1.09,0-2.17,0-3.26,0   c-2.69-0.04-5.33,0.08-7.97,0.77c-1.18,0.31-2.34,0.31-3.44,1.04c-0.94,0-2.49,0.49-3.26,1.09c-1.02,0.79-1.93,1.67-2.72,2.72   c0.31,0.31-0.28,0.79-0.54,1.09c-2.01,2.24-4.52,4.07-5.98,6.7c-0.77,1.33-1.55,2.66-2.32,4c-0.25,0.54-0.51,1.08-0.76,1.62   c-1.44,2.04-2.75,4.37-4.77,5.88c-0.58,0.43-2.14,2.09-2.84,2.09c-0.18,0.12-0.36,0.24-0.54,0.36c-0.54,0.54-0.85,1.16-1.63,1.45   c-0.36,0.06-0.72,0.12-1.09,0.18c-0.41,0.41-1.08,0.43-1.63,0.36c0,0.3-1.44,0.72-1.81,0.72c-0.53,0.21-1.07,0.41-1.6,0.62   c-1.92,0.7-3.49,1.08-5.46,0.29c-1.87-1.03-3.74-2.05-5.61-3.08c-0.72-0.48-1.45-0.97-2.17-1.45c-1.99-1.54-3.28-2.17-5.8-2.17   c-0.36-0.06-0.72-0.12-1.09-0.18c-0.3,0.18-0.6,0.36-0.91,0.54c-1.48,0-1.94,1.01-2.9,1.99c-0.5,0.02-1.28,0.9-1.63,0.54   c-0.07,0.03-0.14,0.07-0.2,0.1c-0.17,0.21-0.35,0.42-0.52,0.62c-0.36,0.97-0.72,1.93-1.09,2.9c-0.97,1.03-1.93,2.05-2.9,3.08   c-0.54,0.6-1.09,1.21-1.63,1.81c-0.19,0.98-0.38,1.96-0.58,2.94c-0.43,3.57-0.88,7.11-0.33,10.65c-0.06,0.48-0.12,0.97-0.18,1.45   c0.08,1.38,0.16,2.77,0.24,4.15c0.16,1.21,1.95,2.69,3.08,3.28c0.38,0.2,0.21-0.06,0.48-0.01c-0.33,0.5,0.19,1.3,0.62,1.71   c0.22,0.03,0.43,0.07,0.65,0.1c1.04,1.14,2.07,2.27,3.11,3.41c1.08,1.3,2.4,2.47,3.31,3.8c0.29,0.42,0.8,0.63,0.89,1.11   c1.61,1.51,3.21,3.03,4.82,4.54c0.3,0.85,0.6,1.69,0.91,2.54c-0.12,1.45-0.24,2.9-0.36,4.35c-0.12,2.29-0.24,4.59-0.36,6.88   c0.24,1.03,0.48,2.05,0.72,3.08c0.19,0.93,0.28,1.83,0.88,2.59c1.09,1.39,2.36,2.71,3.65,3.75c0.72,0.48,1.45,0.97,2.17,1.45   c0.58,0.69,1.17,1.38,1.75,2.07c0.61,0.65,0.84,0.6,1.69,0.65c-0.1,0.37,0.03,0.56,0.18,0.91c0.42-0.07,0.95-0.28,1.34-0.06   c0.88,0.62,1.77,1.25,2.65,1.87c1.09,0.54,2.17,1.09,3.26,1.63c1.06,0.73,2.1,1.51,3.33,1.98c0.71,0.17,1.42,0.34,2.13,0.51   c3.01,0.93,6.13,1.3,9.22,1.76c1.34,0.17,2.69,0.35,4.04,0.52c1.91,0.58,3.82,1.17,5.73,1.75c1.21,1.21,2.42,2.42,3.62,3.62   c0.48,0.97,0.97,1.93,1.45,2.9c1.8,2.42,3,5.11,4.71,7.61c0.12,0.36,0.24,0.72,0.36,1.09c1.83,2.7,3.66,5.48,5.8,7.97   c0.42,0.66,0.85,1.33,1.27,1.99c-0.08,0.45,0.64,1.11,0.94,1.45c0.7,0.92,1.4,1.83,2.1,2.75c1,0.98,2.55,1.15,3.79,1.86   c1.34,0.88,2.69,1.75,4.04,2.63c1.03,0.54,2.05,1.09,3.08,1.63c0.97,0.24,1.93,0.48,2.9,0.72c1.21-0.1,2.41-0.2,3.62-0.29   c2.17-0.44,4.35-0.89,6.53-1.34c3.63-0.47,7.27-0.94,10.9-1.42c1.14-0.04,2.75-0.17,3.41-1.12c0.17,0.37,0.31,0.54,0.72,0.54   c2.26-1.57,4.2-3.48,6.16-5.43c0.66-0.66,1.33-1.33,1.99-1.99c0.42,0,0.85,0,1.27,0c0.48-0.18,0.97-0.36,1.45-0.54   c1.45,0.24,2.9,0.48,4.35,0.72l0.54-0.18c0.06-0.18,0.12-0.36,0.18-0.54c0.18-0.18,0.36-0.36,0.54-0.54   c-0.06-0.18-0.12-0.36-0.18-0.54c0.57-0.57-0.01-2.73-0.54-3.26c-0.36-1.15-0.72-2.29-1.09-3.44c-0.29,0-0.47-0.27-0.54-0.54   c-0.43-1.27-0.86-2.54-1.29-3.81c-0.4-0.97-0.8-1.94-1.19-2.91c-0.14-0.45-0.71-0.59-0.23-1.07c0-0.48,0.21-0.56,0.6-0.81   c2.04-1.22,4.39,1.02,5.92,2.08c1.24,0,3.85-0.23,4.71-1.09c0.3-0.12,0.6-0.24,0.91-0.36c0.97,0,1.93,0,2.9,0   c0.24-0.12,0.48-0.24,0.72-0.36c0.59-0.82,1.2-1.62,1.99-2.17l0.08-0.61c0.45-1.06,0.91-2.13,1.36-3.19   c-0.06-1.03-0.12-2.05-0.18-3.08c-0.24-0.6-0.48-1.21-0.72-1.81c-1.63-1.51-3.26-3.02-4.89-4.53c-1.1-0.9-2.29-1.88-3.08-3.08   c-0.18-0.42-0.36-0.84-0.54-1.27c0.03-0.15,0.05-0.3,0.08-0.45c-0.03-0.33-0.05-0.67-0.08-1c0.51-0.33,0.48-1.06,0.91-1.45   c1.26-1.16,2.46-2.35,3.63-3.62c1.09-1.34,2.18-2.67,3.27-4.01c1.24-1.37,2.82-2.65,4.33-3.6c0.42-0.42,0.85-0.85,1.27-1.27   c0.36-0.24,0.72-0.48,1.09-0.72c0.58-0.41,3.45-1.09,4.17-1.09c0.54-0.24,1.09-0.48,1.63-0.72c0.63-0.41,1.26-0.81,1.89-1.22   c0.47-0.43,0.49-0.82,0.83-1.31C245.94,279.21,244.23,277.13,244.17,274.26z M178.95,220.58c-0.25,0.32-1.49,0.25-1.96,0.2   c0.11-0.38,0.22-0.76,0.33-1.14c0.44-0.88,0.89-1.77,1.33-2.65c0.53-0.68,0.89,2.45,0.88,2.71   C179.33,220,179.14,220.29,178.95,220.58z"/>
            <circle cx="134.43" cy="250.57" r="1.586"/>
        </g>
        <g id="__Büyükorhan">
            <path d="   M276.22,389.92c0.73-0.78,1.56-1.26,2.37-1.98c0.55-0.49,1.24-0.4,1.82-0.91c1.25-1.11,2.25-2.36,3.62-3.26   c0.85-0.84,1.69-1.69,2.54-2.54c1.45-1.75,2.9-3.5,4.35-5.25c0.22-0.46,0.43-0.92,0.65-1.38c0.83-1.28,1.83-2.5,2.97-3.51   c0.84-0.74,1.42-1.98,2.54-2.35c0.76-0.98,1.55-1.76,2.35-2.72c0.39-0.62,0.79-1.25,1.18-1.87c1.54-1.43,3.08-2.86,4.62-4.29   c0.53-0.47,0.79-1.37,1.45-1.63c0.11-0.66,0.3-1.32,0.5-1.98l-0.86-1.47c-0.87,0-1.54-0.52-2.34-0.78   c-1.65-0.54-3.32-0.94-4.88-1.98c-0.7-0.46-2.89-2.31-3.46-2.31c-0.6-0.6-0.8-1.02-1.27-1.63c-0.91-0.85-1.81-1.69-2.72-2.54   c-1.15-1.51-2.29-3.02-3.44-4.53c-0.7-0.95-1.77-1.23-2.54-1.99c-0.94-0.94-3.59-3.69-3.62-4.89c-0.66-0.66-1.33-1.33-1.99-1.99   c-0.6-1.33-1.21-2.66-1.81-3.98c-0.44-0.61-0.91-1.42-0.91-2.17c-0.35-0.51-1.27-2.2-1.27-2.72c-0.66-0.66-1.33-1.33-1.99-1.99   c-0.6-0.42-1.21-0.85-1.81-1.27c-0.54,0-1.09,0-1.63,0c-0.36-0.12-0.72-0.24-1.09-0.36c-0.24-0.3-0.48-0.6-0.72-0.91   c-1.07-1.07,0.88-2.47,1.09-3.26c0.22-0.84,0.18-1.78,0.18-2.72c-0.12-0.24-0.24-0.48-0.36-0.72c0-1.12-2.02-2.02-2.72-2.72   c-0.32,0-0.49,0.06-0.72-0.18c-1.87,0-3.74,0-5.61,0c-1.51,0.78-3.02,1.57-4.53,2.35c-2.17,1.27-4.35,2.54-6.52,3.8   c-0.48,0.18-0.97,0.36-1.45,0.54c-2.04,1.42-4.27,2.9-6.88,2.9c-3.35,2.14-5.53,1.98-8.89,1.49c-0.91-0.13-1.08,0.49-1.98-0.41   c-0.48,0-0.85,0.42-1.27,0c-0.8,0.56-1.4,1.36-1.99,2.17c-0.24,0.12-0.48,0.24-0.72,0.36c-0.97,0-1.93,0-2.9,0   c-0.3,0.12-0.6,0.24-0.91,0.36c-0.86,0.86-3.47,1.09-4.71,1.09c-1.53-1.05-3.88-3.3-5.92-2.08c-0.39,0.25-0.6,0.33-0.6,0.81   c-0.47,0.47,0.09,0.62,0.23,1.07c0.4,0.97,0.8,1.94,1.19,2.91c0.43,1.27,0.86,2.54,1.29,3.81c0.08,0.27,0.25,0.54,0.54,0.54   c0.36,1.15,0.72,2.29,1.09,3.44c0.53,0.53,1.12,2.69,0.54,3.26c0.06,0.18,0.12,0.36,0.18,0.54c-0.18,0.18-0.36,0.36-0.54,0.54   c-0.06,0.18-0.12,0.36-0.18,0.54c0.7,1.12,1.77,1.74,2.72,2.72c0.36,0.54,0.72,1.09,1.09,1.63c0.22,0.33,0.28,1.45,0.72,1.45   c-0.36,0.36,0.25,1.7,0.54,1.99c0,0.3,0,0.6,0,0.91c-0.49,0.53-0.19,2.37,0,3.08c-0.5,0.32-0.53,1.67-0.24,2.21   c-0.58,2.81,0.42,5.68,0.42,8.47c0.36,0.78,0.72,1.57,1.09,2.35c0.46,0.19,0.45,0.47,0.77,0.8c0.15,0.16,0.15,0.1,0.32-0.07   c0.24,0.3,0.48,0.6,0.72,0.91c0.59,0.06,1.63,0.84,1.99,1.27c0.62,0,1.07,0.35,1.68,0.37c0.29,0.18,0.57,0.36,0.86,0.54   c1.33,0.54,2.66,1.09,3.98,1.63c0.78,0.84,1.57,1.69,2.35,2.54c0,0.74,0.62,1.39,1.09,1.99c-0.35,0.99,0.17,0.89,0.36,1.81   c0.31,1.46-0.54,2.48-0.54,3.98c0.32,0.32,0.72,2.31,0.72,2.9c0.98,0.98,2.72,3.73,2.72,5.07c0.29,0.29,0.54,0.84,0.54,1.27   c0.58,0.58,2.16,1.63,2.9,1.63c0.3,0.18,0.6,0.36,0.91,0.54c0.43,0.43,0.86,0.92,1.45,1.09c0.6,0,1.21,0,1.81,0   c0.45,0.45,1.4,0.06,1.99,0.18c0.65,0.14,1.28,0.16,1.99,0.18c0.3-0.3,2.62-0.33,3.08-0.18c0.56-0.2,0.85-0.36,1.45-0.36   c0.6,0.36,1.21,0.72,1.81,1.09c1.63-0.24,3.26-0.48,4.89-0.72c0.42-0.12,0.85-0.24,1.27-0.36c0.79-0.66,1.57-1.33,2.35-1.99   c-0.24-0.24-0.24-0.12,0-0.36c0.36,0.06,0.72,0.12,1.09,0.18c0.36-0.06,0.72-0.12,1.09-0.18c0.36,0.24,0.72,0.48,1.09,0.72   c1.19,0,2.27,0.25,3.44,0.36c0.88,0.08,3.06-0.36,3.44-0.18L276.22,389.92z"/>
            <circle cx="261.57" cy="341.31" r="1.586"/>
        </g>
        <g id="__Harmancık">
            <path d="   M373.05,352.21c-1.53,2.41-2.9,5.01-4.45,7.48c-0.93,1.48-1.05,3.09-2.33,4.37c-0.03,0.52-1.86,2.81-2.38,3.06   c-0.22,0.66-0.44,1.28-0.89,1.81c-1.27,1.46-2.38,3.25-3.96,4.39c-1.44,0.92-2.87,1.84-4.31,2.76c-0.4,0.62-0.8,1.23-1.21,1.85   c-0.64,1.01-1.17,2.21-1.4,3.32c-0.12,0.57-0.77,1.25-0.54,1.81c-0.27,0.46-0.7,1.29-0.54,1.81c-0.25,0.55-0.95,2.65-0.72,3.08   c-1.17,2.25-2.78,5.56-4.71,7.24c-0.68,0.37-1.36,0.74-2.04,1.11c-0.96,0.67-1.92,1.3-3.03,1.61c-0.66,0-1.33,0-1.99,0   c-1.39-0.06-2.78-0.12-4.17-0.18c-0.55-0.12-3.58-0.22-3.98,0c-1.56-0.57-3.21-0.35-4.88-0.59c-1.67-0.24-3.34-0.91-5.08-0.67   c-0.36-0.07-0.72-0.13-1.09-0.2c-2.11-0.05-4.23-0.11-6.34-0.16c-0.9-0.26-1.81-0.53-2.71-0.79c-1.33,0.18-2.68,0-3.99-0.29   c-0.96,0.07-1.93,0.14-2.89,0.21c-0.47,0.38-3.83,0.74-4.35,0.52c-0.86,0.37-2.16,0.85-2.54,1.81c-0.4,0.23-0.77,0.62-1.18,0.4   c-0.21-0.07-0.42-0.14-0.63-0.21c-0.56-0.51-1.53-1.52-2.35-1.45c-1.46-1.29-3.87-2.92-5.75-3.07c-0.39-0.33-2.66-0.72-3.12-0.37   c0.19-0.18,0.51-0.32,0.14-0.42c-1.62-0.58-3.23-1.17-4.85-1.75c-0.3-0.18-0.6-0.36-0.91-0.54c-0.39-0.12-1.96,0.17-1.64-0.19   c0.73-0.78,1.56-1.26,2.37-1.98c0.55-0.49,1.24-0.4,1.82-0.91c1.25-1.11,2.25-2.36,3.62-3.26c0.85-0.84,1.69-1.69,2.54-2.54   c1.45-1.75,2.9-3.5,4.35-5.25c0.22-0.46,0.43-0.92,0.65-1.38c0.83-1.28,1.83-2.5,2.97-3.51c0.84-0.74,1.42-1.98,2.54-2.35   c0.76-0.98,1.55-1.76,2.35-2.72c0.39-0.62,0.79-1.25,1.18-1.87c1.54-1.43,3.08-2.86,4.62-4.29c0.53-0.47,0.79-1.37,1.45-1.63   c0.11-0.66,0.3-1.32,0.5-1.98c0.43-1.38,0.95-2.76,0.95-4.18c0.3-0.54,0.6-1.09,0.91-1.63c0.49-0.53,0.98-1.06,1.47-1.6   c0.68-0.41,1.35-0.81,2.03-1.22c2.32-0.87,4.53-2.32,6.51-3.8c1.07-0.87,2.14-1.74,3.21-2.61c0.83-1.11,1.98-2.93,3.44-3.26   c0.71-0.8,1.42-1.6,2.12-2.4c0.75-0.62,2.39-1.69,2.59-2.67c0.52-0.47,1.07-1.29,1.81-1.27c0.38-0.45,0.76-0.76,1.3-1   c0.47-0.09,0.94-0.18,1.42-0.27l0.68,0.92c1.15,1.19,2.15,2.39,3.07,3.81c0.32,0.48,0.63,0.95,0.95,1.43   c1.1,1.18,2.2,2.37,3.29,3.55c0.35,0.2,0.7,0.41,1.05,0.61c1.36,0.23,2.6,0.47,3.98,0.36c1.21-0.06,2.41-0.12,3.62-0.18   c0.62,0.27,1.32,0.71,1.99,0.54c0.72,0.24,1.45,0.48,2.17,0.72c2.84,1.45,5.67,2.9,8.51,4.35c1.31,0.92,2.61,1.85,3.92,2.77   c1.62,0.94,2.96,2.09,4.78,2.67L373.05,352.21z"/>
            <circle cx="333.1" cy="373.36" r="1.586"/>
        </g>
        <g id="__Keles">
            <path d="   M345.98,264.49c-0.26,0.1-1.69,0.71-1.83,0.85c-1.38-0.26-2.72-0.69-4.17-0.91c-0.78-0.12-1.57-0.24-2.35-0.36   c-0.97-0.36-1.93-0.72-2.9-1.09c-0.81-0.23-1.54-0.01-2.34,0.02c-0.67-0.07-1.34-0.13-2-0.2c-0.36-0.29-0.88-0.94-1.27-0.54   c-1.28-1.28-4.46-2.73-6.33-2.85c-0.12-0.08-0.25-0.17-0.37-0.25c-0.73,0.05-1.45,0.1-2.18,0.15c-0.3,0.14-0.6,0.28-0.9,0.41   c-0.36,2.11-0.72,4.23-1.09,6.34c0.09,0.85,0.17,1.69,0.26,2.54c0.23,0.68,0.28,1.07,0.28,1.81c0.12,0.42,0.24,0.85,0.36,1.27   c2.47,3.76,5.81,7.36,5.18,12.27c-0.38,2.96-1.22,4.34-3.01,6.56c-0.24,0.36-0.48,0.72-0.72,1.09c-0.18,0.56-0.35,1.13-0.53,1.69   c-0.25,1.13-0.49,2.25-0.74,3.38c-0.24,0.6-0.48,1.21-0.72,1.81c-0.88,0.88-2.65,3.15-2.72,4.35c0.16,1.08,0.32,2.17,0.48,3.25   c0.21,0.9,1.81,3.47,2.6,3.81c0.18,0.24,0.36,0.48,0.54,0.72c0.16,0.41,0.2,1.01,0.54,1.27c-0.13,1.31-0.1,1.61,0.72,2.72   c0.61,0.82,3.01,2.15,3.98,2.54c0.96,0.38,2.6,1.63,3.27,2.41c0.81,0.29,2.65,1.87,3.14,2.64c1.02,1.63,2.28,3.22,2.28,5.27   c0.71,1.27,1.42,2.54,2.13,3.81c1.15,1.19,2.15,2.39,3.07,3.81c0.32,0.48,0.63,0.95,0.95,1.43c1.1,1.18,2.2,2.37,3.29,3.55   c0.35,0.2,0.7,0.41,1.05,0.61c1.36,0.23,2.6,0.47,3.98,0.36c1.21-0.06,2.41-0.12,3.62-0.18c0.62,0.27,1.32,0.71,1.99,0.54   c0.72,0.24,1.45,0.48,2.17,0.72c2.84,1.45,5.67,2.9,8.51,4.35c1.31,0.92,2.61,1.85,3.92,2.77c1.62,0.94,2.96,2.09,4.78,2.67   c0.16-0.19,0.33-0.39,0.49-0.58c0.44-0.41,0.88-0.82,1.32-1.23c1.32-1.6,2.63-3.2,3.95-4.8c0.69-0.16,1.92-1.44,2.42-2   c0.77-0.18,1.16-1.13,1.85-1.44c0.49-0.41,0.99-0.81,1.48-1.22c1.78-1.27,3.09-2.6,4.61-4.11c0.33-0.33,1.02-0.73,1.45-0.72   c0.43-0.42,0.82-0.91,1.45-0.91c0.66-0.6,1.33-1.21,1.99-1.81c0.52-0.33,1.05-0.65,1.57-0.98c1.65-1.3,3.3-2.61,4.95-3.91   c0.64-0.64,1.42-1.74,2.35-1.81c0.6-0.91,1.21-1.81,1.81-2.72c0.2-0.44,0.25-0.94,0.72-1.09c0.32-0.75,0.5-2.01,1.27-2.35   c0.36-1.03,0.72-2.05,1.09-3.08c0.41-3.26-0.23-6.47,0.54-9.6c0.25-1.01,0.22-1.98,0.74-2.89c0.63-1.08,0.87-1.28,1.77-2.14   c0.32-0.13,0.65-0.27,0.97-0.4c0.88-0.02,2.3-0.2,2.53-0.97c0.11-0.1,0.22-0.2,0.33-0.3c-0.32-0.96-0.64-1.92-0.96-2.88   c0.5-1.74-1.73-4.2-3.2-4.91c-0.3-0.24-0.6-0.48-0.91-0.72c-0.78-0.36-1.57-0.72-2.35-1.09c-0.7-0.29-2.28-0.28-2.9,0.18   c-1.32-0.08-2.63-0.16-3.95-0.24c-1.96,0.23-4.58,1.73-6.18,0.42c-1.14-1.07-2.82-2.46-3.23-4.06c-0.4-1.11-0.8-2.22-1.2-3.33   c-0.43-0.9-1.59-2.73-1.56-3.65c-0.54-1.03-1.09-2.05-1.63-3.08c-0.72-1.12-1.43-2.24-2.15-3.36c-1.3-1.03-2.6-2.06-3.9-3.1   c-1.08-0.43-2.31-1.92-3.19-2.78c-1.15-1.27-2.29-2.54-3.44-3.8c-1.11-1.42-1.37-3.56-1.81-5.25c-0.14-0.49-0.28-0.98-0.42-1.47   c-0.04-0.72-0.08-1.43-0.12-2.15c-0.12-0.18-0.24-0.36-0.36-0.54c-0.12-0.72-0.24-1.45-0.36-2.17c-0.36-0.97-0.72-1.93-1.09-2.9   c-1.15-1.03-2.29-2.05-3.44-3.08c-0.62-0.62-1.63-1.07-1.81-1.99c-0.11,0.07-0.22,0.14-0.33,0.21c-0.4,0.31-0.8,0.63-1.2,0.95   c-0.35,0.37-0.39,0.87-1,1.02c-0.31,0.54-0.62,1.08-0.93,1.62c-0.63,0.84-1.47,1.14-1.79,2.18c-2.02,1.67-4.11,4.02-6.55,4.88   c-0.35,0.55-0.7,1.09-1.05,1.64c-0.49,0-1.83,1.43-2.17,1.81c-0.72,1.09-1.45,2.17-2.17,3.26   C347.23,263.02,346.57,264.26,345.98,264.49z"/>
            <circle cx="352.21" cy="291.6" r="1.586"/>
        </g>
        <g id="__Orhaneli">
            <path d="   M307.16,356.27l-0.86-1.47c-0.87,0-1.54-0.52-2.34-0.78c-1.65-0.54-3.32-0.94-4.88-1.98c-0.7-0.46-2.89-2.31-3.46-2.31   c-0.6-0.6-0.8-1.02-1.27-1.63c-0.91-0.85-1.81-1.69-2.72-2.54c-1.15-1.51-2.29-3.02-3.44-4.53c-0.7-0.95-1.77-1.23-2.54-1.99   c-0.94-0.94-3.59-3.69-3.62-4.89c-0.66-0.66-1.33-1.33-1.99-1.99c-0.6-1.33-1.21-2.66-1.81-3.98c-0.44-0.61-0.91-1.42-0.91-2.17   c-0.35-0.51-1.27-2.2-1.27-2.72c-0.66-0.66-1.33-1.33-1.99-1.99c-0.6-0.42-1.21-0.85-1.81-1.27c-0.54,0-1.09,0-1.63,0   c-0.36-0.12-0.72-0.24-1.09-0.36c-0.24-0.3-0.48-0.6-0.72-0.91c-1.07-1.07,0.88-2.47,1.09-3.26c0.22-0.84,0.18-1.78,0.18-2.72   c-0.12-0.24-0.24-0.48-0.36-0.72c0-1.12-2.02-2.02-2.72-2.72c-0.32,0-0.49,0.06-0.72-0.18c-1.87,0-3.74,0-5.61,0   c-1.51,0.78-3.02,1.57-4.53,2.35c-2.17,1.27-4.35,2.54-6.52,3.8c-0.48,0.18-0.97,0.36-1.45,0.54c-2.04,1.42-4.27,2.9-6.88,2.9   c-3.35,2.14-5.53,1.98-8.89,1.49c-0.91-0.13-1.08,0.49-1.98-0.41c-0.48,0-0.85,0.42-1.27,0l0.08-0.61   c0.45-1.06,0.91-2.13,1.36-3.19c-0.06-1.03-0.12-2.05-0.18-3.08c-0.24-0.6-0.48-1.21-0.72-1.81c-1.63-1.51-3.26-3.02-4.89-4.53   c-1.1-0.9-2.29-1.88-3.08-3.08c-0.18-0.42-0.36-0.84-0.54-1.27c0.03-0.15,0.05-0.3,0.08-0.45c-0.03-0.33-0.05-0.67-0.08-1   c0.51-0.33,0.48-1.06,0.91-1.45c1.26-1.16,2.46-2.35,3.63-3.62c1.09-1.34,2.18-2.67,3.27-4.01c1.24-1.37,2.82-2.65,4.33-3.6   c0.42-0.42,0.85-0.85,1.27-1.27c0.36-0.24,0.72-0.48,1.09-0.72c0.58-0.41,3.45-1.09,4.17-1.09c0.54-0.24,1.09-0.48,1.63-0.72   c0.63-0.41,1.26-0.81,1.89-1.22c0.47-0.43,0.49-0.82,0.83-1.31c1.76-2.6,0.05-4.69-0.01-7.56c-0.46-0.41-0.91-0.89-1.08-1.5   c0.85-2.33-0.16-4.99-0.49-7.28c0.04-1.8,0.09-3.6,0.13-5.39c-0.19-1.19-1.66-2.68-2.53-3.44c-0.67-0.48-1.33-0.97-2-1.45   c-0.91,0.05-2.18-0.41-2.98-0.83c-2.08-1.07-4.11-2.93-5.53-4.79c-0.42-1.21-0.85-2.42-1.27-3.62c-0.6-0.85-1.21-1.69-1.81-2.54   c-0.06-0.36-0.12-0.72-0.18-1.09c-0.12-0.12-0.24-0.24-0.36-0.36c0.06-0.48,0.12-0.97,0.18-1.45c-0.24-0.97-0.48-1.93-0.72-2.9   l0.72-0.17c0.66-0.04,3.3-0.35,3.62-0.74c0.55,0.16,1.41,0.09,1.81-0.36c0.51,0,0.62,0.14,1.07,0.32c1.51,0.61,2.87,0.37,4.18,1.49   c1.15,0.06,2.29,0.12,3.44,0.18c1.63-0.72,3.26-1.45,4.89-2.17c1.03-0.24,2.05-0.48,3.08-0.72c1.63,0.12,3.26,0.24,4.89,0.36   c1.44,0.25,2.88,0.51,4.31,0.76c0.54-0.01,1.09-0.03,1.64-0.04c1.2,0.32,2.4,0.64,3.6,0.96c0.8-0.02,1.6-0.03,2.41-0.05   c0.34,0.12,0.68,0.25,1.02,0.37c0.86-0.05,1.72-0.09,2.58-0.14c1.08-0.03,2.17-0.06,3.25-0.09l0.03,0.04   c0.97,0.18,1.93,0.36,2.9,0.54c1.99,0.91,3.98,1.81,5.98,2.72c4.4,2.78,8.8,5.57,13.2,8.35c1.43,1.04,2.86,2.08,4.3,3.12   c0.57,0.54,1.1,1.02,1.79,0.54c2.07-1.45,4.35-2.97,5.79-5.07c0.4-0.5,0.79-1,1.19-1.51c0.55-0.42,2.36-1.82,3.02-1.36   c0.79,0.54,1.43,1.24,1.87,2.09c0.29,0.56,0.46,1.56,1.09,1.81c0,0.58-0.2,1.58,0.18,1.99c-0.06,0.72-0.12,1.45-0.18,2.17   c-0.18,0.48-0.36,0.97-0.54,1.45c-1.56,1.67-3.08,6.32-0.95,8.04c0.44,0.46,0.88,0.92,1.31,1.38c0.86,0.39,2.57,1.67,3.44,1.63   c0.66,0.48,1.33,0.97,1.99,1.45l0.08,1.63c0.23,0.68,0.28,1.07,0.28,1.81c0.12,0.42,0.24,0.85,0.36,1.27   c2.47,3.76,5.81,7.36,5.18,12.27c-0.38,2.96-1.22,4.34-3.01,6.56c-0.24,0.36-0.48,0.72-0.72,1.09c-0.18,0.56-0.35,1.13-0.53,1.69   c-0.25,1.13-0.49,2.25-0.74,3.38c-0.24,0.6-0.48,1.21-0.72,1.81c-0.88,0.88-2.65,3.15-2.72,4.35c0.16,1.08,0.32,2.17,0.48,3.25   c0.21,0.9,1.81,3.47,2.6,3.81c0.18,0.24,0.36,0.48,0.54,0.72c0.16,0.41,0.2,1.01,0.54,1.27c-0.13,1.31-0.1,1.61,0.72,2.72   c0.61,0.82,3.01,2.15,3.98,2.54c0.96,0.38,2.6,1.63,3.27,2.41c0.81,0.29,2.65,1.87,3.14,2.64c1.02,1.63,2.28,3.22,2.28,5.27   c0.71,1.27,1.42,2.54,2.13,3.81l-0.68-0.92c-0.47,0.09-0.94,0.18-1.42,0.27c-0.54,0.23-0.92,0.55-1.3,1   c-0.75-0.03-1.3,0.8-1.81,1.27c-0.2,0.98-1.83,2.06-2.59,2.67c-0.71,0.8-1.42,1.6-2.12,2.4c-1.46,0.33-2.61,2.15-3.44,3.26   c-1.07,0.87-2.14,1.74-3.21,2.61c-1.98,1.49-4.19,2.93-6.51,3.8c-0.68,0.41-1.35,0.81-2.03,1.22c-0.49,0.53-0.98,1.06-1.47,1.6   c-0.3,0.54-0.6,1.09-0.91,1.63C308.11,353.51,307.6,354.89,307.16,356.27z"/>
            <circle cx="290.18" cy="294.58" r="1.586"/>
        </g>
        <g id="__Osmangazi">
            <path d="M363.83,245.2c-0.16-0.17-0.32-0.34-0.49-0.51   c-0.76-0.44-2.09-0.82-2.35-1.81c-0.44-0.23-1.63-0.74-1.63-1.27c-1.23-0.85-2.46-1.7-3.69-2.55c-0.56-0.5-2.7-2.93-3.37-2.7   c-0.3-0.55-0.87-1.18-0.72-1.81c-1.72-1.06-3.27-2.58-4.89-3.98c-1.56-1.35-2.86-2.67-4.17-4.17c-0.52-0.6-1.5-0.65-0.91-1.63   l-1.06,0.12c-0.76-0.4-1.22-1.69-0.82-2.53c-0.27-1.9,0.73-3.71-0.33-5.6c-0.85-1.35-2.56-0.2-3.59,0.4   c-0.55-0.58-2.11-0.43-2.9-0.51c-2.11-0.47-4.22-0.93-6.33-1.4c-1.95-0.12-3.9-0.23-5.85-0.35c-1.64-0.29-3.05-0.46-4.66-0.46   c-0.34-0.31-0.64-0.21-1.09-0.18c-0.11-0.11-0.23-0.21-0.34-0.32c-1.42-0.38-1.43-1.66-2.05-2.73c-1.01-2-2.03-4-3.04-6   c-0.33,0.02-0.58-0.04-0.72-0.36c-0.05-0.55-0.1-1.09-0.15-1.64c0.17-0.36,0.34-0.72,0.52-1.08c-0.1-0.68,0.53-1.08,0.87-1.52   c1.1-1.43,2.52-2.71,3.84-3.73c0.48,0,0.97,0,1.45,0c-0.04-0.65-0.13-1.27-0.72-1.63c1.77-4.03,1.09-8.55,1.97-12.65   c0.07-0.19,0.14-0.38,0.2-0.57c0.11,0.1,0.21,0.21,0.32,0.31c0.2-0.04,0.39-0.09,0.59-0.13c0.01-0.43,0.31-0.8,0.72-0.98   c0.86-1.19,1.84-0.9,3.1-1c0.29-0.12,0.59-0.24,0.88-0.36c0.61,0.18,1.94-0.01,2.54,0.17c-0.81-0.55-1.2-0.98-1.09-1.63   c0.36-0.12,0.72-0.24,1.09-0.36c0.15-0.58,1.76-1.63,2.32-2.02c0.07-0.05,0.14-0.1,0.22-0.15c-0.45-0.42,0.1-1.98,0.1-1.98   l-0.01-0.12c0.15-0.57,0.3-1.13,0.45-1.7c-0.16-0.69-0.5-1.17-0.91-1.81c0.3-0.6,0.6-1.21,0.91-1.81c0.36-0.29,0.73-0.57,1.09-0.85   c0.3-0.08,0.6-0.15,0.9-0.23c0.3-0.24,0.6-0.48,0.91-0.72c-0.21-1.34,1.61-2.15,2.53-2.78c0.65-0.41,1.32,0.71,1.64,1.15   c0.24-0.28,1.45-0.2,1.99-0.36c0.17,0.83,1,0.48,1.62,0.5c0.74,0.03,1.36-0.17,2.03-0.52c0.23-0.12,0.46-0.23,0.7-0.35   c0.51-0.13,1.03-0.26,1.54-0.4c1.37-0.44,1.78-1.74,2.44-2.86c0.99-0.15,1.32-1.52,1.98-2.19c0.73-0.24,1.46-0.48,2.18-0.71   c0.24-0.36,0.48-0.72,0.72-1.09c-0.49-0.74,0.38-1.5,0.91-1.99c-0.07-0.34-0.13-0.68-0.2-1.01c-0.26-0.72,0.28-0.64,0.74-1.16   c0.54-0.91,1.09-1.81,1.63-2.72c-0.14-0.38-0.28-0.75-0.42-1.13l-0.12,0.23c-1.36-0.23-2.71-0.07-4.06-0.02   c-0.62,0.03-1.52,0.46-1.95-0.08c-0.58-0.04-1.18-0.3-1.48-0.83c-0.03-0.07-0.05-0.14-0.08-0.21c-0.19,0.08-0.39,0.16-0.58,0.23   c-0.6-0.06-1.21-0.12-1.81-0.18c-0.19-0.81-1.76-1.12-2.51-1.37c-0.92-0.27-1.83-0.54-2.75-0.8c-0.72,0.06-1.45,0.12-2.17,0.18   c-0.52-0.39-2.69-0.18-3.44-0.18c-0.44-0.29-1.65-0.5-2.04-0.16c-1.55-0.16-3.03-0.02-4.48-0.02c-0.69-0.1-1.37-0.2-2.05-0.31   c-0.63-0.21-1.26-0.41-1.89-0.62c-0.98-0.48-1.95-0.95-2.93-1.43c-2.67-0.54-5.43,0.3-7.98,0.67c-1.54,0.22-3.51,0.21-4.88,0.96   c-1.27,0-2.54,0-3.8,0c-0.35-0.25-2.74,0.21-3.26,0.45c-1.88-0.75-3.97-0.08-6-0.08c-0.33,0-0.46-0.33-0.62-0.59l-0.04-0.13   c-0.01,0.3-0.03,0.6-0.04,0.9c-0.18,0.3-0.36,0.6-0.54,0.91c-0.8,1.11-2.52,2.09-3.62,2.9c-0.29,0.21-0.64,0.45-0.36,0.72   c-0.18,0.12-0.36,0.24-0.54,0.36c-0.44,0.31-1.8,1.51-2.17,1.45c-0.3,0.55-0.14,0.91-0.54,1.42c0,1.14-1.84,2.9-1.81,3.84   c-0.36,0.3-0.72,0.6-1.09,0.91c-0.26,0.26-1.02,1.29-1.27,1.17c-0.3-0.14-0.67-0.39-0.81-0.05c-0.25,0.69-0.28,1.25-0.28,1.96   c-0.75,0.71-1.1,1.32-1.63,2.17c0,0.6-0.41,1.27-0.91,1.27c-0.46,0.46-0.76,0.6-0.72,1.27l0.19-0.22c0.49,0.56,0.98,1.11,1.47,1.67   c0.35,0.54,0.7,1.09,1.05,1.63c0.41-0.06,0.6,0.28,0.91,0.54c-0.67,0.92,0.2,3.34,0.54,4.35c0.18,0.24,0.36,0.48,0.54,0.72   c0.48,0.38,0.95,0.76,1.43,1.14c1.03,0.95,2.06,1.9,3.1,2.85c0.35,0.48,0.7,0.97,1.05,1.45c0.44,0.3,0.87,0.6,1.31,0.9   c1.18,1.18,2.36,2.36,3.54,3.54c0.81,0.99,1.62,1.99,2.43,2.98c0.63,0.46,1.27,0.92,1.9,1.39c-0.21,0.26-0.42,0.52-0.63,0.79   c-1.02,0.23-1.86,1.5-2.35,2.35c0.34,0.61-0.31,1.18-0.36,1.81c-0.08,1.09,0.36,2.15,0.54,3.26c-0.41,0.4-0.37,1.23-0.54,1.81   c0,0.42-1.43,0.56-1.81,0.72c-0.58,0.62-1.15,1.25-1.73,1.87c0.09,0.4,0.19,0.8,0.28,1.21c-0.63,0.42-0.52,1.55-0.91,2.17   c-0.97,2.23-1.93,4.47-2.9,6.7c-1.07,0.61-1.84,2.19-2.35,3.26c-0.06,0.66-0.12,1.33-0.18,1.99c0.73,2.85-0.18,6.06-0.72,8.87   c-0.5,0.11-0.75,0.92-1.06,1.33c-0.33,0.43-0.72,0.62-1.14,0.92c1.18-0.28,3.08-0.58,3.13-1.16c0.03-1.08,0.19-1.44-0.2-2.54   c0.35-0.56,0.53-1.62,1.04-0.8c0.3,0.49,0.12,0.79,0.23,1.35c0.13,0.63,0.53,1.12,0.96,1.57c-0.07,0.33,0.02,0.29,0.27,0.47   c1.07,0.75,2.16,0.99,3.46,1.05c0.75,0.15,1.51,0.3,2.26,0.45c0.65,0.97,0.66,2.08,1.29,3.08c0.07,0.41,0.14,0.81,0.2,1.22   c-0.38-0.71-2.05-2.69-1.56-3.31c-0.21-0.1-0.42-0.2-0.63-0.29c-0.54-0.17-1.89-0.6-2.27,0.11c-0.43-0.22-0.89-0.28-1.09-0.72   c-0.35-0.02-0.71-0.05-1.06-0.07c-0.7-0.38-1.39-0.76-2.09-1.14c-0.97,0.65-1.4,1-2.62,1.13c-0.31,0.03-1.06-0.07-1.6-0.11   c-0.26,0.32-0.51,0.64-0.77,0.95c-0.85,0.77-1.69,1.55-2.54,2.33c-0.42-0.17-1.04,0.35-1.43,0.58c-0.79,0.71-1.58,1.43-2.37,2.14   c-0.15,0.56-0.31,1.11-0.46,1.67c-0.07,0.4,0.28,1.31,0.61,1.73l0.03,0.04c0.97,0.18,1.93,0.36,2.9,0.54   c1.99,0.91,3.98,1.81,5.98,2.72c4.4,2.78,8.8,5.57,13.2,8.35c1.43,1.04,2.86,2.08,4.3,3.12c0.57,0.54,1.1,1.02,1.79,0.54   c2.07-1.45,4.35-2.97,5.79-5.07c0.4-0.5,0.79-1,1.19-1.51c0.55-0.42,2.36-1.82,3.02-1.36c0.79,0.54,1.43,1.24,1.87,2.09   c0.29,0.56,0.46,1.56,1.09,1.81c0,0.58-0.2,1.58,0.18,1.99c-0.06,0.72-0.12,1.45-0.18,2.17c-0.18,0.48-0.36,0.97-0.54,1.45   c-1.56,1.67-3.08,6.32-0.95,8.04c0.44,0.46,0.88,0.92,1.31,1.38c0.86,0.39,2.57,1.67,3.44,1.63c0.66,0.48,1.33,0.97,1.99,1.45   l-0.18-0.91c0.36-2.11,0.72-4.23,1.09-6.34c0.3-0.14,0.6-0.28,0.9-0.41c0.73-0.05,1.45-0.1,2.18-0.15   c0.12,0.08,0.25,0.17,0.37,0.25c1.87,0.12,5.05,1.56,6.33,2.85c0.39-0.39,0.9,0.26,1.27,0.54c0.67,0.07,1.34,0.13,2,0.2   c0.8-0.03,1.53-0.25,2.34-0.02c0.97,0.36,1.93,0.72,2.9,1.09c0.78,0.12,1.57,0.24,2.35,0.36c1.44,0.22,2.78,0.65,4.17,0.91   c0.14-0.14,1.57-0.75,1.83-0.85c0.59-0.23,1.25-1.46,1.25-2.05c0.72-1.09,1.45-2.17,2.17-3.26c0.34-0.39,1.68-1.81,2.17-1.81   c0.35-0.55,0.7-1.09,1.05-1.64c2.45-0.86,4.53-3.2,6.55-4.88c0.32-1.04,1.15-1.35,1.79-2.18c0.31-0.54,0.62-1.08,0.93-1.62   c0.61-0.15,0.65-0.65,1-1.02c0.4-0.31,0.8-0.63,1.2-0.95L363.83,245.2z"/>
            <circle cx="309.92" cy="169.62" r="1.586"/>
        </g>
    </g>
</svg>