<?xml version="1.0" encoding="UTF-8"?>
<!DOCTYPE svg PUBLIC "-//W3C//DTD SVG 1.1//EN" "http://www.w3.org/Graphics/SVG/1.1/DTD/svg11.dtd">
<svg version="1.1" id="HaritaCizim" xmlns="http://www.w3.org/2000/svg" xmlns:xlink="http://www.w3.org/1999/xlink" x="0px" y="0px" viewBox="0 0 600 450" preserveAspectRatio="none">
    <defs id="__def">
        <radialGradient id="f">
            <stop offset="0" stop-color="white" stop-opacity="1"/>
            <stop id="STOP1" offset=".4" stop-opacity="1"/>
            <stop offset="1" stop-color="white" stop-opacity=".2"/>
        </radialGradient>
        <filter id="__flt1" x="0" y="0" width="200%" height="200%" filterUnits="objectBoundingBox">
            <feGaussianBlur in="SourceAlpha" stdDeviation="3" result="blur1"/>
            <feSpecularLighting result="specOut" in="blur1" specularConstant="1.5" specularExponent="20" lighting-color="#bbbbbb">
                <feDistantLight azimuth="45" elevation="30"/>
            </feSpecularLighting>
            <feComposite in="specOut" in2="SourceAlpha" operator="in" result="specOut"/>
            <feComposite in="SourceGraphic" in2="specOut" operator="arithmetic" k1="0" k2="1" k3="1" k4="0"/>
        </filter>
        <filter id="__flt2" x="0" y="0" width="200%" height="200%" filterUnits="objectBoundingBox">
            <feGaussianBlur in="SourceAlpha" stdDeviation="3" result="blur1"/>
            <feSpecularLighting result="specOut" in="blur1" specularExponent="20" lighting-color="#bbbbbb">
                <fePointLight x="-2000" y="100" z="2000"/>
            </feSpecularLighting>
            <feComposite in="specOut" in2="SourceAlpha" operator="in" result="specOut"/>
            <feComposite in="SourceGraphic" in2="specOut" operator="arithmetic" k1="0" k2="1" k3="1" k4="0"/>
        </filter>
        <filter id="__flt3" x0="-50%" y0="-50%" width="200%" height="200%" filterUnits="objectBoundingBox">
            <feGaussianBlur in="SourceAlpha" stdDeviation="3" result="blur"/>
            <feOffset in="blur" dx="0" dy="0" result="offsetBlur"/>
            <feSpecularLighting in="blur" surfaceScale="4" specularConstant=".5" specularExponent="20" lighting-color="flavor" result="specOut">
                <fePointLight x="-5000" y="-10000" z="5000"/>
            </feSpecularLighting>
            <feComposite in="specOut" in2="SourceAlpha" operator="in" result="specOut"/>
            <feComposite in="SourceGraphic" in2="specOut" operator="arithmetic" k1="0" k2="1" k3="1" k4="0" result="litPaint"/>
            <feMerge>
                <feMergeNode in="offsetBlur"/>
                <feMergeNode in="litPaint"/>
            </feMerge>
        </filter>
        <filter id="__flt4" x0="-50%" y0="-50%" width="200%" height="200%">
            <feGaussianBlur in="SourceAlpha" stdDeviation="2" result="blur"/>
            <feOffset dy="-1" dx="-1"/>
            <feComposite in2="SourceAlpha" operator="arithmetic" k2="-1" k3="1" result="hlDiff"/>
            <feFlood flood-color="white" flood-opacity=".7"/>
            <feComposite in2="hlDiff" operator="in"/>
            <feComposite in2="SourceGraphic" operator="over" result="withGlow"/>
            <feOffset in="blur" dy="3" dx="3"/>
            <feComposite in2="SourceAlpha" operator="arithmetic" k2="-1" k3="1" result="shadowDiff"/>
            <feFlood flood-color="black" flood-opacity="1"/>
            <feComposite in2="shadowDiff" operator="in"/>
            <feComposite in2="withGlow" operator="over"/>
        </filter>
        <filter id="__golge1" x="0" y="0" width="200%" height="200%" filterUnits="userSpaceOnUse">
            <feOffset result="offOut" in="SourceAlpha" dx="8" dy="8"/>
            <feGaussianBlur result="blurOut" in="offOut" stdDeviation="3"/>
            <feBlend in="SourceGraphic" in2="blurOut" mode="normal"/>
        </filter>
    </defs>
    <g id="__Harita" fill="white" stroke="#000000" stroke-width="0.25" stroke-miterlimit="10" display="none">
        <rect id="__cer" x="0" y="0" fill="#000000" opacity="0" width="600" height="450"/>
        <g id="__Kocaköy">
            <path d="   M390.26,196.95c-0.79,0.79-1.61,0.99-2.57,1.5c-0.74,0.48-1.48,0.96-2.22,1.44c-0.46,0.41-0.93,0.82-1.39,1.23   c-0.21,0.44-0.27,1.07-0.62,1.39c0.11,1.65,0.23,3.29,0.34,4.94c0.04,0.6,0.14,0.99-0.07,1.61c0.07,0.08,0.13,0.16,0.2,0.24   c-0.09,0.11-0.19,0.22-0.28,0.33c-0.7,0.8-1.87,2.03-2.92,1.95c-0.32-0.06-0.65,0.04-0.82-0.12c-0.92-0.86-1.5-1.76-2-2.93   c-0.21-0.88-0.41-1.75-0.62-2.62c-0.03-1.22-0.05-2.43-0.08-3.65c-0.18-0.22-0.36-0.45-0.54-0.68c-0.72-0.25-1.8-0.44-2.47,0.15   c-2.58,0.18-3.76,2.63-5.77,3.82c-0.18,0.35-2.04,1.59-2.26,1.57c-0.43-0.07-0.86-0.14-1.29-0.21c-0.19-0.28-0.21-0.52-0.56-0.55   c-0.1-1.13,0.53-3.91-0.32-4.62c-0.38-0.32-1.01-1.15-1.54-1.07c-0.45,0.12-0.9,0.24-1.36,0.36c-0.57,0.76-0.83,1.39-1.85,1.29   c-0.1,0.04-0.2,0.08-0.29,0.12c-3.48-1.81-2.95-5.34-2.66-8.58c0.07-0.8,0.56-2.01,0.17-2.74c-0.22-0.41-0.74-1.19-0.79-1.58   c-0.51-0.51-1.03-1.03-1.54-1.54c-0.57-0.41-1.13-0.82-1.7-1.23c-0.21-0.31-0.41-0.62-0.62-0.93c-1.29-1.18-2.57-2.37-3.86-3.55   c-1.25-1.58-2.51-3.16-3.76-4.74c-0.6-0.53-1.2-1.06-1.79-1.59c-0.42-0.45-2.13-1.69-2.78-1.23c-0.32-0.14-0.75-0.43-1.08-0.31   c-0.52-0.23-1.37-0.53-1.06-0.88c0.7-0.3,1.39-0.6,2.09-0.9c0.45-0.32,0.9-0.63,1.35-0.95c0.52-0.19,1.51-0.64,1.79-1.13   c2.47-0.2,4.94-0.41,7.41-0.61c1.2,0.02,2.77,0.18,3.45-0.84c0.68-1.1,0.84-2.19,0.88-3.49c0.26-1.08,0.52-2.16,0.77-3.24   c0.31-0.77,0.62-1.54,0.93-2.32c1.22-1.69,2.84-3.83,2.84-3.83c-0.18,0.35,0.65,1.22,0.88,1.5c0.73,0.86,1.29,1.25,2.3,1.71   c0.41-0.17,1.63,0.09,1.92,0.38c0.28,0.05,0.57,0.11,0.85,0.16c0.48,0.22,2.74,1.06,2.92,1.4c0.85,0.24,1.81,0.62,2.34,1.3   c0.47-0.11,0.28,0.15,0.62,0.31c0.26,0,0.51,0,0.77,0c0.23,0.4,0.68,0.5,1.08,0.77c1.96,0.05,3.91,0.1,5.87,0.15   c0.26,0.1,0.51,0.21,0.77,0.31c0.57,0.26,1.13,0.51,1.7,0.77c0.57,0.59,2.6,0.83,3.4,0.65c0.63-0.12,1.08-0.83,1.54-1.26   c-0.08-0.32,0.18-0.63,0.36-0.91c0.19-0.21,0.38-0.43,0.57-0.64c-0.18-1.02,1.34-2.16,2.01-2.81c0.66-0.64,1.54-0.66,2.31-1.05   c1.73-0.89,2.47-0.81,4.32-0.93c0.82,0.36,1.64,0.73,2.46,1.1c0.91,0.37,1.95,1.31,2.48,2.15c0.54,0.85,0.31,1.51,0.46,2.47   c0.27,0.68,0.53,1.37,0.8,2.06l-0.33,0.28c-0.77,0.05-1.54,0.09-2.32,0.14c-1.29-0.39-3.2-0.77-4.17-1.7   c-0.6-0.73-1.2-1.47-1.8-2.2c-0.38-0.25-0.76-0.49-1.13-0.73c-1-0.06-2.55-0.29-3.19,0.49c-1.32,1.67-2.3,3.78-3.08,5.8   c-0.33,0.73-0.66,1.46-0.98,2.2c0.05,0.77,0.11,1.55,0.16,2.32c0.3,0.62,0.96,1.33,0.93,2.01c1.18,0.8,2.35,2.17,3.01,3.43   c0.76,0.4,1.22,1.33,1.22,2.11c-0.07,0.87-0.38,1.83,0.1,2.64c-0.31,0.62-0.66,1.9-0.34,2.55c0.5,0.92,1.09,0.94,1.88,1.62   c0.46,0.39,0.67,1.16,1.24,1.39c0.1,0.25,0.2,0.5,0.29,0.75c0.23,0.33,0.71,0.61,0.54,1.02c0.18,0.54,0.35,1.08,0.53,1.62   c-0.09,0.38-0.26,0.72-0.12,1.09c-1.07,1.14-1.69,2.57-2.93,3.55C390.88,196.54,390.26,196.95,390.26,196.95z"/>
            <circle cx="365.17" cy="171.78" r="1.586"/>
        </g>
        <g id="__Sur">
            <path d="   M358.33,302.4l-0.65-1.99c0.03-0.91-0.65-1.52-0.13-2.3c0.35-0.52,0.7-1.04,1.06-1.56c0.26-0.21,0.51-0.41,0.77-0.62   c0.53-0.71,0.53-1.72,1.39-2.16c0.09-0.92,0.2-2.03,0-2.93c0.1-0.62,0.21-1.24,0.31-1.85c0.21-0.41,0.41-0.82,0.62-1.23   c0.24-0.74,0.75-2.24,0.46-2.93c0.42-0.51,1.47-1.97,2.01-2.16c0.45-0.73,1.02-1.32,0.96-2.22c0.35-0.24,0.7-0.47,1.05-0.71   c0.1-0.46,0.21-0.93,0.31-1.39c0.12-1.79,0.24-3.58,0.36-5.38c-0.07-0.58-0.13-1.16-0.2-1.74c-0.24-0.21-0.48-0.96-0.32-1.22   c-0.12-0.29-0.29-0.47-0.15-0.77c-0.31-0.62-0.62-1.24-0.93-1.85c-1.6-1.75-3.05-3.85-4-6.03c-0.31-1.13-0.63-2.26-0.95-3.39   c-0.17-0.54,0.14-1.27-0.31-1.7c0.05-0.82,0.1-1.65,0.15-2.47c0.27-0.66,0.54-1.32,0.81-1.98c-0.13-0.71,0.73-1.74,1.05-2.34   c0.1-0.36,0.21-0.72,0.31-1.08c0.45-0.62,0.89-1.24,1.34-1.86c1.1-1.09,2.05-2.14,3.3-3.07c0.92-0.06,1.58-0.78,2.47-0.78   c0.46-0.25,0.93-0.51,1.39-0.76c0.82-0.25,1.65-0.5,2.47-0.74c0.41-0.06,0.82-0.13,1.24-0.19c0.64-0.17,2.07-0.77,2.32-1.39   c0.81-0.19,1.83-0.19,2.3-0.88c0.57-0.07,0.52-0.59,1.1-0.66c0.08-0.94,1.08-0.46,1.85-1.43c1.18-0.09,2.37-0.18,3.55-0.27   c0.62-0.15,1.24-0.31,1.85-0.46c1.57-0.66,3.14-1.32,4.71-1.98c0.35,0.2,0.62-0.1,1-0.18c0.92-0.17,1.74-0.43,2.51-0.85   c0.41-0.23,0.81-0.51,1.19-0.84c1.03-0.91,1.84-2.06,2.47-3.24c0.82-0.98,1.63-1.97,2.45-2.95c1.36-1.36,2.83-3.42,3.2-5.24   c0.06-0.64,0.12-1.27,0.18-1.91c-0.38-0.58-2.43-2.68-3.05-2.72c-0.38-0.28-0.78-0.76-1.24-0.77c-0.21-0.54-0.84-2.32-0.62-2.78   c-0.26-0.83-0.69-2.06-0.46-2.93c-0.57-1.13-1.13-2.27-1.7-3.4c-1.06-0.52-2.05-0.95-3.09-1.54c-0.82-0.52-1.65-1.03-2.47-1.54   c-0.36-0.51-0.72-1.03-1.08-1.54c-0.32-0.92-0.64-1.85-0.96-2.78c-0.13-0.36-0.03-1.95-0.27-1.71c-0.79,0.79-1.61,0.99-2.57,1.5   c-0.74,0.48-1.48,0.96-2.22,1.44c-0.46,0.41-0.93,0.82-1.39,1.23c-0.21,0.44-0.27,1.07-0.62,1.39c0.11,1.65,0.23,3.29,0.34,4.94   c0.04,0.6,0.14,0.99-0.07,1.61c0.07,0.08,0.13,0.16,0.2,0.24c-0.09,0.11-0.19,0.22-0.28,0.33c-0.7,0.8-1.87,2.03-2.92,1.95   c-0.32-0.06-0.65,0.04-0.82-0.12c-0.92-0.86-1.5-1.76-2-2.93c-0.21-0.88-0.41-1.75-0.62-2.62c-0.03-1.22-0.05-2.43-0.08-3.65   c-0.18-0.22-0.36-0.45-0.54-0.68c-0.72-0.25-1.8-0.44-2.47,0.15c-2.58,0.18-3.76,2.63-5.77,3.82c-0.18,0.35-2.04,1.59-2.26,1.57   c-0.43-0.07-0.86-0.14-1.29-0.21c-0.19-0.28-0.21-0.52-0.56-0.55c-0.1-1.13,0.53-3.91-0.32-4.62c-0.38-0.32-1.01-1.15-1.54-1.07   c-0.45,0.12-0.9,0.24-1.36,0.36c-0.57,0.76-0.83,1.39-1.85,1.29c-0.1,0.04-0.2,0.08-0.29,0.12c-3.48-1.81-2.95-5.34-2.66-8.58   c0.07-0.8,0.56-2.01,0.17-2.74c-0.22-0.41-0.74-1.19-0.79-1.58c-0.51-0.51-1.03-1.03-1.54-1.54c-0.57-0.41-1.13-0.82-1.7-1.23   c-0.21-0.31-0.41-0.62-0.62-0.93c-1.29-1.18-2.57-2.37-3.86-3.55c-1.25-1.58-2.51-3.16-3.76-4.74c-0.6-0.53-1.2-1.06-1.79-1.59   c-0.42-0.45-2.13-1.69-2.78-1.23c-0.32-0.14-0.75-0.43-1.08-0.31c-0.52-0.23-1.35-0.76-1.82-0.42c-1.24,1.02-2.49,2.03-3.73,3.05   c-0.19,0.15-1.25,0.86-1.25,0.46c-0.26,0.41-0.51,0.82-0.77,1.24c-1.29,0.94-2.57,1.88-3.86,2.82c-0.46,0.81-3.26,2.58-4.21,3.02   c-0.57,0.39-1.14,0.78-1.71,1.16c-2.09,1.51-4.9,2.15-7.36,2.73c-1.32,1.71-2.62,3.43-3.71,5.25c-0.41,1.39-0.82,2.78-1.24,4.17   c0.03,0.61,0.06,1.23,0.09,1.84c0.16,0.55,0.32,1.11,0.48,1.66c0.31,0.72,0.62,1.45,0.93,2.18c0.3,0.63,0.6,1.27,0.91,1.9   c0.49,0.48,0.98,0.96,1.47,1.45c0.49,0.14,0.85,0.65,1.21,1c0.86,0.82,3.1,2.85,2.74,4.16c-0.19,0.57-0.39,1.14-0.58,1.71   c-0.26,0.26-0.52,0.52-0.77,0.77c-0.77,0.31-1.54,0.62-2.32,0.93c-0.53,0-2.57,0.18-2.78,0c0.02,0.14,0.04,0.29,0.07,0.43   c1.07,5.41,2.15,10.81,3.22,16.22c-0.15,0.68-0.31,1.35-0.46,2.03c-0.35,0.28-0.61,0.55-0.36,0.94c-0.63,0.49-1.95,1.93-2.16,2.62   c0.05,0.21,0.1,0.41,0.15,0.62c-0.48,0-1.24,0.14-1.28,0.44c-0.11,0.69-0.08,1.24,0.2,1.87c-0.26,0.41-0.51,0.82-0.77,1.23   c0.15,0.57,0.31,1.13,0.46,1.7c0.9,0.28,0.91,0.67,1.39,1.39c-0.48,0.88-0.25,1.61-0.15,2.62c0.03,0.31,0.02,0.68-0.15,0.93   c0.23,0.95,0.42,1.85,0.77,2.78c-0.29,0.54-0.57,1.09-0.86,1.64c-0.21,1.21-0.42,2.42-0.63,3.63c-0.07,0.1-0.14,0.19-0.21,0.29   c0.18,0.04,0.69,0.06,0.54,0.26c-0.53,0.48-1.06,0.96-1.58,1.44c-0.17,0.04-0.35,0.08-0.52,0.12c-0.39,0.26-0.93,0.61-1.37,0.35   c-0.3,0.2-0.55,0.25-0.46,0.62c-0.41,0-0.82,0-1.24,0c-0.26,0.22-0.51,0.44-0.77,0.66c0,0.31-0.01,0.62-0.01,0.94   c0.22,0.34,1.6,0.42,1.53,0.87c-0.13,0.42-0.25,0.84-0.38,1.26c0.08,0.41,0.16,0.81,0.25,1.22c0.96,1.29,2.04,2.6,2.32,4.17   c0.19,1.07-1.25,2.78-0.93,3.4c-0.1,0.26-0.21,0.52-0.31,0.77c-0.43,0.55-0.68,0.49-0.48,1.19c-0.04,0.12-0.09,0.24-0.14,0.35   c0.31,0.33,0.57,0.47,0.62,0.93c0.36,0.15,0.72,0.3,1.09,0.44c0.34,0.32,0.49,0.82,0.92,0.95c0,1.1,0.56,4.02-0.15,4.79   c0.41,1.04,1.34,2.76,0.63,3.75c-0.25,0.31-0.28,0.56-0.65,0.64c-0.85,0.14-3.21,0.45-3.68-0.22c-0.16,0.21-0.32,0.41-0.48,0.62   c-0.43,0.65-0.29,1.5-0.91,2.16c0.05,0.56,0.09,1.13,0.14,1.69c-0.03,0.62-0.04,1.58,0.48,2.01c0.06,0.62,0.12,1.25,0.18,1.87   c0.6,0.63,2.14,2.92,3.06,2.14c0.23,0.25,1.28,1.17,1.16,1.35c-0.71,1.07-1.16,1.95-2.09,2.67c-0.03,0.44-0.28,1.44,0.28,1.33   c0.42-0.08,0.84-0.16,1.26-0.25c0.1-0.18,0.21-0.52,0.42-0.4c0.31,0.17,0.72,0.34,0.66,0.71c0.99,0.1,2.88,0.78,3.71,0   c0.62,0,1.24,0,1.85,0c1.29,0.37,2.57,0.75,3.86,1.12c1.06,0.39,2,0.88,2.94,1.5c0.42,0.28,0.78,0.6,0.77,1.08   c0.1,0,0.21,0.01,0.31,0.01c0.38-0.01,0.81-0.14,1.08,0.14c0.75-0.66,2.59-2.86,3.41-2.73c1.13,0.14,2.26,0.27,3.38,0.41   c0.72,0.44,1.04,0.86,1.58,1.47c0.4-0.12,0.66,0.08,1.04,0.23c0.68-0.24,1.14-0.61,1.9-0.51c0.12-0.07,0.25-0.14,0.37-0.2   c0.35,0.23,0.89,0.68,1.28,0.71c0.46,0.72,0.93,1.44,1.39,2.16c0.26,0.1,0.52,0.21,0.77,0.31c1.08-0.17,2.61-0.75,3.5-0.23   c0.64,0.39,0.77,1.55,1.59,1.44c0.51-0.1,1.02-0.21,1.52-0.31c0.4-0.23,0.52-0.58,0.95-0.75c0.23-0.14,0.45-0.28,0.68-0.42   c0.57,0.36,1.14,0.73,1.71,1.09c0.03,0.14,0.05,0.27,0.08,0.41c0.05-0.01,0.09-0.03,0.14-0.04c0.92-0.25,2.3-0.85,2.33-1.97   c0.51-0.52,1.03-1.03,1.54-1.54c0.44-0.24,0.87-0.48,1.3-0.71c0.51-0.35,1.24-0.7,2.09-0.98L358.33,302.4z"/>
            <circle cx="317.45" cy="276.25" r="1.586"/>
        </g>
        <g id="__Çınar">
            <path d="   M402.3,329.75c-0.82,1.03-1.65,2.06-2.47,3.09c-0.46,0.66-1.01,3.45-1.08,4.32c0.05,0.36,0.1,0.72,0.15,1.08   c-0.05,0.72-0.09,1.43-0.14,2.15c0.25,1.75,0.5,3.51,0.76,5.26c-0.12,1.65-0.24,3.29-0.36,4.94c-0.09,1.88,0.04,3.72,0.36,5.56   c1.09,3.3,2.17,6.6,3.26,9.9c0.04,1.13,0.09,2.25,0.13,3.38c0.21,1.44,0.41,2.88,0.62,4.32c-0.05,0.61-0.1,1.23-0.15,1.84   c0,1.07,0.07,2.86-0.92,3.46c-1.65,1-3.98,0.69-5.87,0.41c-1.14-0.4-2.27-0.81-3.41-1.21c-1.39-0.57-2.78-1.15-4.16-1.72   c-0.77-0.36-1.54-0.72-2.31-1.08c-1.44-0.62-2.88-1.24-4.32-1.85c-0.42-0.12-0.83-0.24-1.25-0.36c-1.71-0.84-4.97-0.9-6.93-1.23   c-1.69-0.17-3.39-0.35-5.08-0.52c-0.65,0.01-1.29,0.01-1.94,0.02c-0.73-0.24-1.46-0.48-2.19-0.72c-0.54-0.87-1.07-1.73-1.61-2.6   c-0.22-0.35-0.18-0.78-0.61-0.76c-0.52,0.06-1.39,0.04-1.4,0.76c-0.98,0.36-1.96,0.72-2.93,1.08c-0.42,0.02-0.91-0.1-1.24,0.15   c-1.44-0.24-2.89-0.47-4.33-0.71c-0.82,0.44-1.64,0.88-2.46,1.33c-0.47,0.77-0.94,1.54-1.4,2.31c-0.36,0.57-0.71,1.14-1.07,1.71   c-0.63,0.46-2,1.18-2.32,1.85c-0.59,0.38-1.57,0.73-1.85,1.39c-0.49,0.29-1.25,0.48-1.39,1.08c-2.18,1.02-4.35,2.05-6.53,3.07   c-2.26,1.35-4.51,2.69-6.77,4.03c-1.85,1.08-3.69,2.16-5.54,3.24c-3.98,1.56-7.53,2.88-11.71,3.79c-1.55,0.28-3.1,0.56-4.66,0.84   c-0.32-0.07-0.64-0.13-0.96-0.2c-1.96-0.46-2.64-1.31-4.29-2.27c-0.39-0.31-0.78-0.62-1.17-0.93c-1.72-0.77-3.44-1.54-5.16-2.32   c-0.58-0.48-0.97-0.83-1.7-1.08c-0.36-0.26-0.72-0.53-1.08-0.79c-0.46-0.3-0.93-0.61-1.39-0.91c-1.23-0.42-2.46-0.85-3.7-1.27   c-0.81-0.33-2.92-1.18-3.72-0.89c-0.65-0.11-1.31-0.22-1.96-0.33c-0.58-0.07-1.15-0.14-1.73-0.21c-1.34-0.07-4.13-0.08-5.26,0.69   c-1.67,0.16-3.4,0.02-5.1-0.19c-0.73-0.27-1.45-0.55-2.18-0.82c-0.06,0.84,0.27,1.22-0.6,1.48c-2.55,0.98-6.51,1.71-7.41,4.63   c-0.64,0.6-2.14,1.9-2.16,2.62c-1.49,0.77-2.99,1.54-4.48,2.32c-0.57,0.09-1.25,0.25-1.7,0.62c-0.45,0.04-0.96-0.03-1.24,0.31   c-0.57-0.1-1.13-0.21-1.7-0.31c-0.98-0.31-1.96-0.62-2.93-0.93c-1.75-0.04-3.49-0.07-5.24-0.11c-1.9,0.34-3.59,1.03-5.42,1.62   c-0.53,0.69-1.93,0.72-2.31,1.58c-0.15-0.03-0.3-0.06-0.45-0.09c-0.34-0.1-0.36-0.22-0.63,0.09c-0.19-0.37-0.42-0.45-0.81-0.59   c-0.83-1.31-0.98-2.77-2.35-3.79c-1.01-0.6-2.01-1.2-3.02-1.79c-0.88-0.62-2.38-2.08-3.55-2.01c-0.88-0.93-1.75-1.85-2.63-2.78   c-0.8-1.25-2.13-3.83-1.91-5.36c0.27-1.84,0.25-3.28-0.44-4.96c-0.09-0.22-0.18-0.43-0.28-0.65c0.03-0.37,0.22-0.93,0-1.24   c0.43-1.06,0.14-2.21,0.51-3.22c0.14-0.38,0.2-1.2-0.04-1.57c0.05-1.03,0.1-2.06,0.15-3.09c-0.09-0.53-0.36-1.52-0.77-1.85   c-0.23-0.91-0.42-1.68-0.93-2.47c-0.16-0.24-0.28-0.68-0.15-0.93c-0.3-0.48-1.12-1.48-0.93-2.01c-0.57-0.57-0.81-1.42-1.1-2.15   c-0.56-1.65-1.12-3.3-1.67-4.95c-0.05-0.36-0.1-0.72-0.15-1.08c-0.26-0.77-0.52-1.54-0.77-2.32c-0.15-1.03-0.3-2.06-0.45-3.09   c0.05-0.36,0.1-0.72,0.15-1.08c-0.05-0.77-0.1-1.54-0.15-2.32c-0.17-0.82-0.34-1.64-0.52-2.46c0-0.37-0.01-0.75-0.01-1.12   c-1.12-3.52-1.35-7.44-1.02-11.09c-0.05-0.77-0.1-1.54-0.15-2.32c0.1-0.41,0.21-0.82,0.31-1.24c-0.05-0.41-0.1-0.82-0.15-1.24   c0.03-0.58,0.06-1.15,0.1-1.73c0.19-1.38,0.38-2.75,0.56-4.13c0.06-0.5,0.21-1.4,0.57-1.4c0.98,0.1,1.96,0.21,2.94,0.31   c0.31-0.05,0.62-0.1,0.93-0.15c0.36,0,0.72,0,1.08,0c1.44-0.27,2.87-0.55,4.31-0.82c0.93-0.31,3.74-1.72,4.65-1.19   c1.87-0.59,4.66-1.26,6.61-1.13c0.68-0.04,1.36-0.07,2.04-0.11c1.39,0.39,2.72,1.45,3.71,2.47c0.51,0.41,1.03,0.82,1.54,1.24   c0.41,0,0.94-0.12,1.24,0.15c0.67-0.21,1.34-0.41,2.01-0.62c1.39-0.72,2.78-1.44,4.17-2.16c0.59-0.27,2.25-0.18,2.92-0.26   c0.31-0.12,0.62-0.24,0.94-0.36c0.36-2.44,2.81-2.97,4.69-3.74c0.75-0.3,1.5-0.59,2.25-0.89c1.33-1.03,2.93-1.93,4.63-2.01   c0.52-0.02,1.1-0.15,1.49,0.24c0.18,0.2,0.06,0.16,0.37,0.07c-0.2,0.62-0.53,1.56,0.35,1.8c0.31,0.06,2.1,0.48,2.27,0.36   c0.04,0.11,0.09,0.22,0.13,0.32c0.32,0.79,0.71,1.31,0.9,2.13c0.05,0.23,0.08,0.62,0.35,0.65c0.52,0.1,1.04,0.19,1.56,0.29   c0.31-0.05,0.62-0.1,0.93-0.15c0.75-0.6,1-0.73,1.97-0.83c0.43,0.13,0.76,0.93,1.17,0.72c0.43-0.2,0.87-0.44,1.34-0.36   c0.57-0.51,1.13-1.03,1.7-1.54c0.51-0.82,1.03-1.65,1.54-2.47c0.23-0.33,1.77-1.55,2-1.52c0.92,0.11,1.32,0.07,1.44,1.14   c-0.14,0.69-0.24,1.16-0.05,1.86c-0.59,0.88-0.6,3.78,0.08,4.62c0.33,0.08,0.67,0.16,1,0.24c0.21,0.26,0.41,0.51,0.62,0.77   c0.28,0.61,0.55,1.21,0.83,1.82c0.12,0.24,0.3,0.8,0.56,0.81c0.33,0.01,0.58,0.18,0.83,0.02c0.66-0.45,1.51-0.8,2.04-1.53   c0.81-0.08,1.62-0.85,2.09-1.49c0.2-0.13,0.4-0.27,0.59-0.4c0.48-0.69,0.12-1.79,0.93-2.32c1.16,0,3.98-1.09,4.64-0.16   c0.97,1.49,1.22,3.5,2.73,4.59c0.08,0.36,0.35,1.8,0.81,1.72c0.78-0.1,1.29-0.62,2.17-0.44c0.55,0.11,0.91,0.61,1.54,0.62   c0.31,0.36,0.62,0.72,0.93,1.08c0.79,0.52,2.05,0.62,2.08,1.71c0.01,0.59,0.01,1.18,0.02,1.77c-0.41,0.98-0.71,1.98-0.71,3   c-0.86-0.2-1.67,0.22-2.47,0.62c-0.19,0.33-0.63,0.98-1.08,0.9c-0.77-0.15-1.89-0.31-2.48-0.9c-0.15-0.21-0.31-0.41-0.46-0.62   c0.22-0.44-0.05-0.64-0.42-0.95c-0.07-0.46-1.7-2.34-2.1-2.37c-0.66-0.17-1.8,1.14-2.73,1.47c-0.17,0.36-0.33,0.71-0.5,1.07   c-0.35,0.52-0.69,1.04-1.04,1.56c-0.13,0.74-0.06,1.61,0.15,2.32c0.15,1.75,0.31,3.5,0.46,5.25c0.07,0.77,0.14,1.54,0.21,2.3   c0.17,0.48,0.67,0.78,0.41,1.25c0.19-0.39,0.5-0.64,0.46-1.08c0.45-0.36,0.96-0.72,1.54-0.77c0.98-0.77,1.96-1.54,2.93-2.32   c0.57-0.36,1.13-0.72,1.7-1.08c0.42-0.11,0.87-0.07,1.08-0.46c0.3,0.08,0.59,0.17,0.89,0.25c0.64-0.32,1.57,0,2.05-0.4   c0.31,0,0.62,0,0.93,0c0.29,0.07,1.19,0.47,1.25,0.01c0.18-0.95-0.27-4.05,0.9-4.29c1.03-0.22,2.06-0.44,3.09-0.66   c0.3-0.04,0.95-0.29,0.91-0.62c-0.28-2.14-0.56-4.22-0.94-6.33c-0.15-0.77-0.29-1.54-0.43-2.32c0.57-0.95,1.24-1.55,0.78-2.73   c0.05-0.12,0.1-0.24,0.15-0.36c-0.1-0.05-0.21-0.11-0.31-0.16c-0.38-0.19-1.83-0.13-2.16,0.16c-0.26-0.16-0.51-0.31-0.77-0.46   c-0.61-0.12-0.97-0.1-1.32-0.66c-0.27-0.47,0.16-1.09-0.05-1.41c-0.41-0.62-1.14-1.55-2.02-1.33c-0.26-0.26-0.54-0.56-0.46-0.93   c-0.11-0.69,0.22-1.04,0.31-1.7c0.13-0.97-0.62-1.85-1.24-2.47c0.29-0.03,0.58-0.05,0.87-0.08c0.13,0.15,0.72,0.55,0.89,0.3   c0.23-0.34,0.42-0.58,0.37-0.99c0.01-0.77,0.03-1.55,0.04-2.32c-0.07-0.32-0.16-0.36-0.46-0.46c0.28-0.64-0.12-0.68-0.26-1.28   c-0.11-0.56-0.22-1.12-0.33-1.68c0.58-0.5,1.35-0.64,1.93-1.1c0.25-0.17,0.51-0.33,0.76-0.5l0.15-0.14   c0.71,0.81,1.6,1.68,2.23,1.16c0.23,0.25,1.28,1.17,1.16,1.35c-0.71,1.07-1.16,1.95-2.09,2.67c-0.03,0.44-0.28,1.44,0.28,1.33   c0.42-0.08,0.84-0.16,1.26-0.25c0.1-0.18,0.21-0.52,0.42-0.4c0.31,0.17,0.72,0.34,0.66,0.71c0.99,0.1,2.88,0.78,3.71,0   c0.62,0,1.24,0,1.85,0c1.29,0.37,2.57,0.75,3.86,1.12c1.06,0.39,2,0.88,2.94,1.5c0.42,0.28,0.78,0.6,0.77,1.08   c0.1,0,0.21,0.01,0.31,0.01c0.38-0.01,0.81-0.14,1.08,0.14c0.75-0.66,2.59-2.86,3.41-2.73c1.13,0.14,2.26,0.27,3.38,0.41   c0.72,0.44,1.04,0.86,1.58,1.47c0.4-0.12,0.66,0.08,1.04,0.23c0.68-0.24,1.14-0.61,1.9-0.51c0.12-0.07,0.25-0.14,0.37-0.2   c0.35,0.23,0.89,0.68,1.28,0.71c0.46,0.72,0.93,1.44,1.39,2.16c0.26,0.1,0.52,0.21,0.77,0.31c1.08-0.17,2.61-0.75,3.5-0.23   c0.64,0.39,0.77,1.55,1.59,1.44c0.51-0.1,1.02-0.21,1.52-0.31c0.4-0.23,0.52-0.58,0.95-0.75c0.23-0.14,0.45-0.28,0.68-0.42   c0.57,0.36,1.14,0.73,1.71,1.09c0.03,0.14,0.05,0.27,0.08,0.41c0.05-0.01,0.09-0.03,0.14-0.04c0.92-0.25,2.3-0.85,2.33-1.97   c0.51-0.52,1.03-1.03,1.54-1.54c0.44-0.24,0.87-0.48,1.3-0.71c0.51-0.35,1.24-0.7,2.09-0.98l2.35-0.94   c0.56,0.26,1.11,0.52,1.67,0.79c0.31,0.36,0.62,0.72,0.93,1.08c0.72,0.15,1.44,0.31,2.16,0.46c0,0.39,1.81,1.68,2.32,1.7   c0.51,0.57,1.03,1.13,1.54,1.7c0.57,0.46,1.13,0.93,1.7,1.39c0.21,0.31,0.41,0.62,0.62,0.93c0.36,0.31,0.72,0.62,1.08,0.93   c0.19,0.75,0.65,1.22,1.08,1.85c0.05,0.26,0.1,0.52,0.15,0.77c0.68,1.12,1.31,2.2,1.76,3.43c0.35,0.97,0.1,3.05,0.87,3.52   c0.16,0.49,0.17,0.8,0.5,1.2c0.95,1.13,2.09,1.53,3.46,2.02c0.48,0.16,0.96,0.33,1.44,0.49c0.24,0.24,0.91,0.58,1.24,0.46   c0.97,0.75,1.6,1.29,2.47,2.16c0.31,0.51,0.62,1.03,0.93,1.54c0.06,0.46,0.13,0.92,0.19,1.38c-0.01,0.57-0.02,1.14-0.03,1.71   c0.1,0.63,0.36,1.03,0.16,1.65c-0.47,1.51-1.79,1.81-1.71,3.75c0.01,0.32-0.05,0.88,0.15,1.08c0.49,0.49,0.66,0.67,1.35,0.57   c0.84-0.19,1.67-0.38,2.51-0.57c0.51-0.46,1.03-0.93,1.54-1.39c0.1-0.31,0.21-0.62,0.31-0.93c0.81-0.81,1.27-1.79,1.85-2.78   c0.88-1.18,1.75-2.37,2.63-3.55c0.23-0.45,0.46-0.89,0.69-1.34c0.59-0.64,1.18-1.27,1.78-1.91c0.37-0.2,0.74-0.4,1.11-0.61   c0.33-0.28,1.04-0.68,1.51-0.6c1.88,0.3,2.56,1.3,3.87,2.6c0.05,0.1,0.1,0.21,0.15,0.31c0,0.64,0,0.85,0.57,1.2L402.3,329.75z"/>
            <circle cx="345.09" cy="333.84" r="1.586"/>
        </g>
        <g id="__Bismil">
            <path d="   M413,304.39c-1.14-0.34-2.32-1.36-3.47-0.59c-0.35,0-0.69,0.01-1.04,0.01c-0.25-0.49-0.74-1.05-0.31-1.54   c-0.21-0.26-0.41-0.51-0.62-0.77c-0.61,0.29-1.22,0.58-1.83,0.86c-0.44-0.23-1.19-0.57-1.41-1.02c-1.11-0.21-2.03,0.03-3.09,0   c-0.28-0.19-0.56-0.38-0.83-0.57c-0.08,0.19-0.16,0.38-0.25,0.57c-0.31,0.1-0.48-0.05-0.71-0.3c-0.2-0.29-0.48-0.55-0.22-0.94   c-0.6-0.28-1.62-0.85-2.01-1.39c-0.62,0.31-1.23,0.62-1.85,0.93c0.46-0.47,1.55-2.12,2.14-1.97c1.33,0.38,2.13,2.84,3.25,2.91   c0.16-0.05,0.32-0.11,0.47-0.16c0.33,0.05,0.71,0.05,0.93,0.31c1.03-0.05,2.06-0.1,3.09-0.15c0.72-0.15,0.87-0.72,1.65-0.47   c0.1-0.03,0.21-0.05,0.31-0.08c0.84,0.7,1.68,1.39,2.52,2.09c0.5,0.32,1.01,0.64,1.51,0.96C411.23,303.07,413.59,304.56,413,304.39   z M477.35,314.46c0.41,0.1,0.82,0.21,1.23,0.31c0.26-0.21,0.52-0.41,0.77-0.62c0.37,0,1.65,1.37,0.92,1.68   c-0.72,0.29-1.76,1.2-2.42,0.96c-0.34-0.15-2.04-1.44-2.21-1.87c-0.79,0.02-1.36,0.22-2.15-0.04c0.25-0.09,0.51-0.18,0.76-0.27   c0.33,0,0.53,0.08,0.78-0.15C475.65,314.55,476.81,314.89,477.35,314.46z M509.03,260.95c-0.07,0.42-0.57,0.19-0.95,0.2   c-0.98,0.17-1.96,0.34-2.94,0.5c-0.41,0.28-1.36,0.01-1.86-0.01c-0.51,0.05-1.02,0.11-1.53,0.16c-0.46-0.15-0.93-0.31-1.39-0.46   c-0.67-0.72-1.34-1.44-2.01-2.16c-0.38,0.2-0.97-0.19-1.41-0.26c-1.43-0.27-2.87-0.55-4.3-0.82c-1.59,0.3-3.17,0.61-4.76,0.92   c-1.62,0.36-3.14,0.73-4.82,0.63c-0.81-0.05-2.48-0.1-3.14,0.27c-1.03-0.07-2.53-0.16-3.5,0.19c-0.29-0.3-0.83-0.12-1.24-0.19   c-1.36-0.22-2.63-0.25-4.01-0.12c-0.32-0.42-0.99-0.26-1.39-0.62c-0.46-0.31-0.93-0.62-1.39-0.93c-0.57-0.65-3.01-2.24-3.86-2.47   c-1.49-0.4-3.37,0.32-4.79,0c-2.06-0.98-4.12-1.96-6.18-2.93c-0.36-0.26-0.72-0.52-1.08-0.77c0.01-0.42-0.32-0.93-0.61-1.23   c-0.4-1.64-1.66-3.35-3.4-3.86c-1.03-0.36-2.06-0.72-3.09-1.08c-1.13,0.05-2.26,0.1-3.4,0.15c-1.23,0.26-2.47,0.51-3.71,0.77   c-0.47,0.08-0.95,0.16-1.42,0.24c-0.5,0.23-1.01,0.46-1.51,0.69c-0.26,0.21-0.52,0.41-0.77,0.62c-0.85,0.36-1.63,0.76-2.3,1.42   c-0.55,0.38-1.09,0.76-1.64,1.15c-1.46,0.96-3.29,3.48-3.94,4.99c0.05,0.57,0.1,1.13,0.15,1.7c0.3,1.09,0.6,2.18,0.9,3.26   c0.86,2.38,1.54,4.63,2.19,7.08c0.05,1.29,0.1,2.57,0.15,3.86c-0.3,0.13-0.31,0.41-0.43,0.71c-0.65,1.4-3.1,2.18-4.52,1.79   c-0.2-0.3-0.4-0.61-0.6-0.91c-0.46-0.68-0.34-1.11-0.47-1.9c-0.3-0.24-0.35-0.72-0.46-1.08c-0.38-0.1-0.51-0.48-0.77-0.77   c-0.62-0.36-1.23-0.72-1.85-1.08c-0.33-0.71-0.66-1.42-0.99-2.13c-0.44-0.65-1.63-2.55-2.26-2.77c-0.34-0.57-0.81-1.16-1.31-1.55   c-0.85-1.04-1.69-2.09-2.54-3.13c-1.18-0.93-2.37-1.85-3.55-2.78c-0.79-0.92-1.31-2.17-1.72-3.23c-0.39-0.62-0.79-1.25-1.18-1.88   c-1.1-1.65-1.93-3.38-3.12-4.93c-0.42-0.13-0.43-0.41-0.77-0.62c-0.36-0.24-0.71-0.49-1.07-0.73c-0.52-0.53-1.04-1.06-1.55-1.59   c-0.62-0.41-1.23-0.82-1.85-1.24c-0.57-0.1-1.13-0.21-1.7-0.31c-0.9-0.52-1.68-1.32-2.01-2.32c-0.22-0.67-0.11-1.32,0-2.01   c-0.01-0.56-0.03-1.11-0.04-1.67c-0.05-0.37-0.11-0.75-0.16-1.12c0.22-0.61,0.45-1.23,0.67-1.84l-0.11,0.07   c-0.77,0.42-1.59,0.68-2.51,0.85c-0.38,0.07-0.65,0.38-1,0.18c-1.57,0.66-3.14,1.32-4.71,1.98c-0.62,0.15-1.24,0.31-1.85,0.46   c-1.18,0.09-2.37,0.18-3.55,0.27c-0.77,0.97-1.77,0.5-1.85,1.43c-0.57,0.07-0.52,0.59-1.1,0.66c-0.47,0.7-1.49,0.69-2.3,0.88   c-0.24,0.62-1.67,1.22-2.32,1.39c-0.41,0.06-0.82,0.13-1.24,0.19c-0.82,0.25-1.65,0.5-2.47,0.74c-0.46,0.25-0.93,0.51-1.39,0.76   c-0.89,0-1.55,0.72-2.47,0.78c-1.24,0.93-2.19,1.98-3.3,3.07c-0.44,0.62-0.89,1.24-1.34,1.86c-0.1,0.36-0.21,0.72-0.31,1.08   c-0.32,0.6-1.18,1.63-1.05,2.34c-0.27,0.66-0.54,1.32-0.81,1.98c-0.05,0.82-0.1,1.65-0.15,2.47c0.45,0.43,0.14,1.16,0.31,1.7   c0.32,1.13,0.63,2.26,0.95,3.39c0.95,2.18,2.4,4.28,4,6.03c0.31,0.62,0.62,1.24,0.93,1.85c-0.13,0.3,0.03,0.48,0.15,0.77   c-0.16,0.26,0.07,1.01,0.32,1.22c0.07,0.58,0.13,1.16,0.2,1.74c-0.12,1.79-0.24,3.58-0.36,5.38c-0.1,0.46-0.21,0.93-0.31,1.39   c-0.35,0.24-0.7,0.47-1.05,0.71c0.07,0.9-0.51,1.49-0.96,2.22c-0.54,0.19-1.59,1.66-2.01,2.16c0.28,0.7-0.22,2.2-0.46,2.93   c-0.21,0.41-0.41,0.82-0.62,1.23c-0.1,0.62-0.21,1.24-0.31,1.85c0.2,0.9,0.09,2.02,0,2.93c-0.86,0.44-0.86,1.45-1.39,2.16   c-0.26,0.21-0.51,0.41-0.77,0.62c-0.35,0.52-0.7,1.04-1.06,1.56c-0.52,0.78,0.16,1.38,0.13,2.3l0.65,1.99   c0.56,0.26,1.11,0.52,1.67,0.79c0.31,0.36,0.62,0.72,0.93,1.08c0.72,0.15,1.44,0.31,2.16,0.46c0,0.39,1.81,1.68,2.32,1.7   c0.51,0.57,1.03,1.13,1.54,1.7c0.57,0.46,1.13,0.93,1.7,1.39c0.21,0.31,0.41,0.62,0.62,0.93c0.36,0.31,0.72,0.62,1.08,0.93   c0.19,0.75,0.65,1.22,1.08,1.85c0.05,0.26,0.1,0.52,0.15,0.77c0.68,1.12,1.31,2.2,1.76,3.43c0.35,0.97,0.1,3.05,0.87,3.52   c0.16,0.49,0.17,0.8,0.5,1.2c0.95,1.13,2.09,1.53,3.46,2.02c0.48,0.16,0.96,0.33,1.44,0.49c0.24,0.24,0.91,0.58,1.24,0.46   c0.97,0.75,1.6,1.29,2.47,2.16c0.31,0.51,0.62,1.03,0.93,1.54c0.06,0.46,0.13,0.92,0.19,1.38c-0.01,0.57-0.02,1.14-0.03,1.71   c0.1,0.63,0.36,1.03,0.16,1.65c-0.47,1.51-1.79,1.81-1.71,3.75c0.01,0.32-0.05,0.88,0.15,1.08c0.49,0.49,0.66,0.67,1.35,0.57   c0.84-0.19,1.67-0.38,2.51-0.57c0.51-0.46,1.03-0.93,1.54-1.39c0.1-0.31,0.21-0.62,0.31-0.93c0.81-0.81,1.27-1.79,1.85-2.78   c0.88-1.18,1.75-2.37,2.63-3.55c0.23-0.45,0.46-0.89,0.69-1.34c0.59-0.64,1.18-1.27,1.78-1.91c0.37-0.2,0.74-0.4,1.11-0.61   c0.33-0.28,1.04-0.68,1.51-0.6c1.88,0.3,2.56,1.3,3.87,2.6c0.05,0.1,0.1,0.21,0.15,0.31c0,0.64,0,0.85,0.57,1.2   c0.07,0.06,0.14,0.13,0.2,0.19c0.51-0.05,1.03-0.1,1.54-0.16c0.58,0.1,2.44,1.11,2.74,1.56c0.87,1.3,0.9,2.13,1.25,3.6   c-0.09,0.16,0.13,2.61,0.22,2.85c0.21,0.6,0.58,2.1,1.2,2.26c1.23,0.33,2.47,0.67,3.7,1c1.7,1.08,3.4,2.16,5.1,3.24   c1.34,0.67,2.68,1.34,4.01,2.01c1.7,0.96,3.41,1.91,5.11,2.87c1.97,0.99,3.94,1.78,6.01,2.53c1.03,0.26,2.06,0.51,3.09,0.77   c0.57,0.51,1.13,1.03,1.7,1.54c1.35,0.49,2.69,0.97,4.04,1.46c2.77,0.95,5.82,1.74,8.78,1.16c0.67-0.26,1.34-0.51,2.01-0.77   c0.51-0.41,1.03-0.82,1.54-1.24c1.34-1.11,1.92-2.87,3.4-3.86c0.81-0.22,1.62-0.44,2.43-0.66c2.56-1.15,5.29-2.47,7.6-4.29   c1.6-1.39,3.19-2.78,4.79-4.17c0.36-0.36,0.72-0.72,1.08-1.08c0.29-0.18,0.58-0.35,0.87-0.53c0.22-0.18,0.45-0.37,0.67-0.55   c0.41-0.57,0.82-1.13,1.24-1.7c0-0.6,0.35-1.12,0.79-1.51c0.47-0.25,0.93-0.5,1.4-0.75c1.28-0.89,2.56-1.77,3.85-2.66   c0.97-0.84,1.37-1.31,2.47-1.87c0.44-0.22,0.56-0.7,1.08-0.77c0.36-0.78,0.77-1.76,0.77-2.63c0.77-0.93,1.54-1.85,2.32-2.78   c0.36-0.67,0.72-1.34,1.08-2.01c-0.05-0.31-0.1-0.62-0.15-0.93c0.09-1.17,0.44-3-0.97-3.42c-0.09-0.1-0.18-0.19-0.27-0.28   c-0.46-0.1-0.98-0.06-1.24-0.46c-0.62,0.05-1.23,0.1-1.85,0.15c-1.03,0.36-2.06,0.72-3.09,1.08c-0.2-0.12-0.39-0.24-0.59-0.36   c-0.48-0.41-0.9-0.5-0.72-1.18c0.52-1.06,1.79-3.86,0.07-4.43c-0.64-0.2-1.73-0.4-2.46-0.2c-0.77,0.21-1.16,0.85-2.01,0.46   c-0.37-0.37-1.01-0.45-1.15-1.07c-0.18-0.37-0.36-0.73-0.55-1.1c-0.1-1.18-0.21-2.37-0.31-3.55c0.26-0.62,0.51-1.23,0.77-1.85   c-0.15-0.68-0.3-1.95,0.46-2.32c-0.04-0.72-0.03-1.26-0.31-1.85c0.39-0.39,0.11-1.22,0.46-1.85c0.1-0.05,0.21-0.1,0.31-0.15   c0.15-0.31,0.31-0.62,0.46-0.93c0.15-0.62,0.31-1.24,0.46-1.85c0.24-0.38,0.62-1.07,0.46-1.54c0.36-0.46,0.72-0.93,1.08-1.39   c0.36-0.31,0.72-0.62,1.08-0.93c0.51-0.72,1.03-1.44,1.54-2.16c0.93-1.29,1.85-2.57,2.78-3.86c0.36-0.16,0.72-0.31,1.08-0.46   c1.31-1.23,2.88-2.57,4.48-3.4c0.31-0.36,0.62-0.72,0.93-1.08c0.77-0.02,1.18-0.11,1.85-0.46c-0.26-0.26,1.15-1.42,1.42-1.82   c1.89-1.76,3.79-3.52,5.68-5.28c0.72-0.77,1.44-1.54,2.16-2.32c0.36-0.57,0.72-1.13,1.08-1.7c0.26-0.15,0.52-0.31,0.77-0.46   c0.26-0.31,0.52-0.62,0.77-0.93c0-1.24,1-3.47,1.85-4.32c0.15-0.26,0.31-0.51,0.46-0.77c0.57-0.93,1.13-1.85,1.7-2.78   L509.03,260.95z"/>
            <circle cx="403" cy="297.4" r="1.586"/>
        </g>
        <g id="__Ergani">
            <path d="M233.11,152.01c0.08,0.03-1.63-1.36-1.74-1.99   c-1.46-1.72-2.91-3.44-4.37-5.17c-0.44-0.54-0.87-1.07-1.31-1.61l-0.65,1.84c-0.5,0.13-0.88,0.64-1.04,1.11   c-0.59,0.43-1.17,0.86-1.76,1.29c-0.66,0.26-1.31,0.52-1.97,0.77c0.1,0.03,0.2,0.05,0.29,0.07c0.45-0.29,0.74-0.55,1.25-0.6   c0.15,0,0.3-0.01,0.44-0.01c-0.27,0.31-0.41,2.28-0.62,2.93c0.55,0.22,0.44,0.46,0.73,0.95c0.35,0.53,1.26,0.63,1.89,0.75   c0.32-0.29,0.85-0.38,1.24-0.16c0.38-0.26,0.76-0.53,1.14-0.8c0.53-0.3,0.31,0.33,0.25,0.64c0.48-0.07,1.03,0.49,1.54,0.62   c0.62-0.05,1.24-0.1,1.85-0.15c0.34-0.78,1.83-0.38,2.63-0.31C232.98,152.12,233.04,152.06,233.11,152.01z"/>
            <path d="M206.05,293.78c0.44-0.01,0.56-0.66,0.61-1.09   c-0.01-0.25-0.02-0.5-0.03-0.74c0.16-0.52,0.33-1.05,0.49-1.57c0-0.42,0.01-0.83,0.01-1.24c0-1.09-0.32-2.14,0.3-2.15   c0.13-0.83,0.4-2.23,0.05-3.01c0.2-0.59,0.4-1.18,0.6-1.77c0.66-0.98,1.32-1.96,1.97-2.94c-0.15-1.59-0.03-3.22,0.31-4.79   c0-1.18,0-2.37,0-3.55c-0.41-3.67,0.14-6.3,3.06-8.83c1.45-1.26,1.64-1.84,3.79-1.64c0.99-0.8,1-1.83,1.49-2.95   c0.26-0.51,0.51-1.03,0.77-1.54c0.31-0.93,0.62-1.85,0.93-2.78c0.71-2.1,1.43-4.19,2.14-6.29c0.75-1.71,1.59-3.43,2.64-4.98   c-0.02-0.52,0.38-0.88,0.46-1.39c0.04-1.19,0.08-2.37,0.12-3.56c-0.06-0.76,0.51-2.55,0.15-3.04c0.17-0.58,0.33-1.41,0.11-1.96   c0.34-0.6,0.68-1.19,1.01-1.79c0.72-0.72,1.44-1.44,2.16-2.16c0.43-0.07,0.7-0.54,1.08-0.77c0.77-0.51,1.54-1.03,2.32-1.54   c0.51-0.51,1.03-1.03,1.54-1.54c0.41-0.72,0.82-1.44,1.24-2.16c0.26-0.67,0.51-1.34,0.77-2.01c0.53-1.82,1.06-3.64,1.6-5.45   c0.22-0.68,0.53-0.88,0.86-1.4c0.16-0.44,0.32-0.88,0.48-1.33c0.34,0.01,0.64-0.42,0.9-0.65c0.26-0.22,0.33-0.23,0.41-0.58   c0.54-0.52,1.09-1.03,1.63-1.55c0.13-0.47,2.02-2.58,2.5-2.9c0.38-0.9,0.28-1.89,0.59-2.81c0.69-2.03,1.12-3.91,1.39-6.02   c-0.05-0.62-0.1-1.24-0.15-1.85c-0.26-0.82-0.52-1.65-0.77-2.47c-1.08-1.9-2.16-3.81-3.24-5.71c-0.46-1.03-0.93-2.06-1.39-3.09   c0-0.72-0.85-2.11-1.24-2.78c0.31-0.33,0.09-0.97,0.12-1.39c0.17-1.03,0.33-2.06,0.5-3.08c0.43-0.84,0.86-1.69,1.29-2.53   c0.39-0.8,0.79-1.6,1.18-2.41l0.37-0.5c-0.38-0.82-1.9-3.02-1.61-3.83c-0.18-0.27-0.4-0.45-0.31-0.77   c-0.31-0.77-0.62-1.54-0.93-2.32c-0.21-0.37-0.75-1.24-0.62-1.54c-0.29-0.45-0.58-1-0.62-1.54c-0.51-0.61-1.85-2.45-1.85-3.24   c-0.26-0.51-0.52-1.03-0.77-1.54c-0.2-0.21-0.39-0.39-0.57-0.57l-0.31,0.08c-0.12,0.03-0.24,0.06-0.36,0.09   c-1.26,0.31-2.36-0.43-3.55-0.22c-0.46,1-1.6,0.85-2.47,0.77c-0.52,0.83-1.71,1.41-2.65,1.38c-0.29,0.01,0.1-0.47,0.18-0.63   c0.35-0.68,0.33-1.24,0.93-1.84c-0.52-0.52-0.71-0.95-1.33-1.36c-0.22,0.26-0.44,0.51-0.66,0.77c-0.11,0.14-0.22,0.29-0.33,0.43   c-0.52-0.72-1.93-0.65-2.64-0.3c-0.1,0.05-0.2,0.1-0.29,0.15c0.1-0.23,0.21-0.46,0.31-0.7c0.05-0.13,0.1-0.26,0.15-0.39   c-0.6,0.06-0.98-0.47-1.6-0.6c-0.09,0.04-0.19,0.07-0.28,0.11c-0.57,0.01-0.53,0.03-1.01-0.21c-0.59-0.32-0.02-0.53,0.41-0.53   c0.1-0.21,0.21-0.41,0.31-0.62c-0.15-0.36-0.31-0.72-0.46-1.08c0.21-0.21,0.15-0.49,0.15-0.78c-0.36-0.46-0.72-0.92-1.08-1.38   c-0.23,0.12-0.35,0.01-0.56-0.1c-0.52-0.33-2.11,0.48-2.84,0.67c-0.35,0.1-2.22-1.1-2.62-1.35c-0.15,0.46-0.68,0.44-1.08,0.39   c-0.99-0.17-1.41-0.93-1.85-1.67c-0.38-0.06-0.75-0.11-1.13-0.17c-0.96,0.02-1.92,0.05-2.89,0.07c-2.93,1.34-5.87,2.68-8.8,4.02   c-0.67-0.1-1.34-0.21-2.01-0.31c-3.18-1.11-6.23-1.38-9.42-0.15c-0.33-0.16-0.59,0.02-0.93,0.15c-0.62,0.1-1.24,0.21-1.85,0.31   c-0.21,0.62-0.85,0.47-1.24,0.93c-0.46,0.52-0.93,1.03-1.39,1.54c-0.26,0.1-0.51,0.21-0.77,0.31c-0.01,0.24-0.13,0.77,0.15,0.77   c-0.48,0.03-1.06,0.68-1.16,1.11c-0.8,0.76-1.6,1.52-2.39,2.28c-0.57,0.31-1.13,0.62-1.7,0.93c-0.67,0.15-1.34,0.31-2.01,0.46   c-1.29,0.02-2.57,0.04-3.86,0.05c-1.34,0.55-2.68,1.1-4.02,1.65c-0.4,1.18-1.85,2.66-2.78,3.4c0.12,0.7-0.91,2.37-1.24,3.09   c-0.21,0.21-0.41,0.41-0.62,0.62c-0.26,0.82-0.51,1.65-0.77,2.47c-0.29,0.66-0.58,1.33-0.87,1.99c-0.45,1.02-0.91,2.05-1.36,3.07   c-0.49,0.85-1.12,1.48-1.79,2.19c-0.36,0.16-0.72,0.31-1.08,0.46c-0.52-0.31-1.73,0.02-2.32,0.15c-0.78-0.33-3.08,0.37-3.84,0.68   l-0.28,0.32c-0.27,0.74,0.57,2.32,1.03,3.02c-0.12,0.79,1.42,2.88,1.95,3.49c0.87,0.99,1.11,2.33,1.75,3.46   c0.82,1.13,1.65,2.27,2.47,3.4c0.5,0.38,0.99,0.77,1.49,1.15c0.43,0.28,0.86,0.57,1.29,0.85c0.06,0.59,0.83,1.13,1.24,1.54   c0.26,0.77,0.51,1.54,0.77,2.32c-0.24,0.34,0.01,0.82,0,1.23c-0.06,1.85,0.49,3.16,1.24,4.79c0.21,0.26,0.41,0.52,0.62,0.77   c0.38,0.04,0.49,0.22,0.77,0.46c0.52,0.05,0.76,0.46,1.24,0.62c1.17,0.38,2.44,0.95,3.4,1.7c-0.04,0.53,0.43,1.09,0.63,1.6   c0.34,0.89,0.87,2.8,1.53,3.5c0.31,0.41,0.62,0.82,0.93,1.24c0.35,1.13,0.7,2.27,1.05,3.4c0.54,1.83,1.03,3.5,1.27,5.4   c0.51,0.35,0.85,2.15,0.93,2.78c0.78,0.7,0.49,1.72,0.6,2.63c0.34,2.65,1.02,3.62-0.54,6.2c-0.02,0.04-0.04,0.08-0.07,0.13   c-0.1-0.09-0.21-0.18-0.31-0.27c-0.13,0.06-0.26,0.12-0.39,0.17c-0.4,0.12-0.38,0.2-0.41-0.3c-1-0.59-1.37-2.17-1.52-3.31   c-0.11-0.14-0.22-0.28-0.33-0.41c-0.38-0.93-1.05-1.06-1.99-1.12c-0.87,0.67-1.75,1.33-2.62,2c-0.85-0.22-1.62,1.09-2.24,1.65   c-0.72,0.65-1.19,1.44-2.08,1.9c-0.41,0.15-0.82,0.31-1.24,0.46c-0.93,0.57-1.85,1.13-2.78,1.7c-0.11,0.21-0.22,0.42-0.33,0.62   c-0.21,0.24,0.22,0.63,0.49,0.77c0.77,0.1,1.54,0.21,2.32,0.31c0.4-0.35,1.89-0.53,2.47-0.62c0.5-0.19,1.01-0.38,1.52-0.56   c1.75-0.7,2.96-0.93,4.82-0.98c0.39,0,0.73,0.39,1.06,0.64c0.29,0.22,0.43,1.46,0.25,1.85c0.08,1.54,0.16,3.08,0.24,4.61   c-0.09,0.26-0.18,0.52-0.27,0.78c-0.32,0.26-0.63,0.52-0.95,0.78c-0.14,0.11-1.64-0.44-2.02-0.63c-0.31,0-0.62,0-0.93,0   c-0.36,0.1-0.72,0.21-1.08,0.31c-0.15,0.23-1.13,0.81-1.47,1.15c-0.07,0.29-0.13,0.58-0.2,0.87c-0.08,0.38,0.15,0.72,0.33,1.04   c0.23,0.4,0.83,0.09,1.21,0.13c1.31,0.13,2.55,0,3.84,0.21c0.15,0.38,0.42,0.43,0.77,0.62c0.29,0.62,0.58,1.24,0.87,1.85   c0.02,0.67,0.04,1.34,0.06,2.01c-0.1,0.41-0.21,0.82-0.31,1.24c-0.02,1.28-0.04,2.57-0.05,3.85c-0.07,0.77-0.56,1.27-1.28,1.68   c-0.37,0.19-0.71,0.12-1.14,0.18c-0.15-0.44-0.52-0.41-0.93-0.62c-0.19-0.14-0.38-0.28-0.57-0.42c0.04-1.09,0.07-2.19,0.11-3.29   c-0.15-0.39-0.29-0.79-0.44-1.18c-0.52-0.85-1.04-1.71-1.55-2.56c-0.43-0.57-1.39-0.62-2.14-0.71c-0.63,0.25-1.26,0.5-1.89,0.74   c-1.52-0.58-3.15,1.95-3.24,3.24c-0.02,0.54,1.26,1.78,1.79,1.92c0.47,0.58,0.93,1.15,1.4,1.73c0.37,0.48,1.74,3.21,1.75,3.76   c0.31,0.46,0.61,0.93,0.92,1.39c0.21,1.08,0.41,2.16,0.62,3.24c0,3.6,0,7.21,0,10.81c-0.44,0.16-0.44,0.51-0.62,0.93   c-0.81,0.55-1.36,2.74-1.64,3.68c-0.51,0.89-1.03,1.77-1.54,2.66c-0.33,1.54-0.66,3.08-0.98,4.62c-0.1,0.26-0.21,0.51-0.31,0.77   c-0.35,0.22-0.36,0.54-0.54,0.91c-0.26,0.46-0.51,0.93-0.77,1.39c-0.07,0.36-0.13,0.73-0.2,1.09c-0.03,0.11,0.53,0.73,0.73,0.93   c1.08,0.57,2.16,1.13,3.24,1.7c0.49,0.12,0.82,0.46,1.24,0.77c0.85-0.28,2.04,0.53,2.78,0.93c0.27-0.31,0.69-0.09,1.09-0.04   c0.4,0.04,0.91,0.52,1.39,0.81c0.31-0.12,0.64,0.16,0.93,0.31c-0.08,0.82,1.81,2.76,2.24,3.56c-0.09,0.52-0.18,1.04-0.27,1.55   c0.06,0.35,0.13,0.71,0.19,1.06c-0.37,1.1-0.44,2.03-0.36,3.15c0.02,0.35-0.02,0.39,0.37,0.46c0.59,1.01,1.57,1.27,2.49,1.73   c0.92,0.46,2.02,1.07,3.06,0.98c0.36,0.31,0.72,0.62,1.08,0.93c0.99,0.06,1.97,0.11,2.96,0.17c0.82-0.15,1.64-0.31,2.46-0.46   c0.87-0.12,1.52-1.58,1.77-2.38c0.28-0.45,0.56-0.89,0.84-1.34c-0.15-0.61,0.36-0.94,0.46-1.54c0.21-1.13,0.41-2.26,0.62-3.4   c0.23-0.45,0.47-0.89,0.7-1.34c0.23-0.49,1-0.89,1.46-1.13c0.76,0.44,2.42-0.2,3.24-0.46c0.57-0.41,1.13-0.82,1.7-1.24   c0.51-0.67,1.03-1.34,1.54-2.01c0.34-0.9,2.93-3.15,3.97-3.07c0.38-0.18,0.94-0.54,1.34-0.41c0.75-0.32,2.33-0.77,3.06-0.45   C204.32,294.14,205.18,293.96,206.05,293.78z"/>
            <circle cx="199.02" cy="177.19" r="1.586"/>
        </g>
        <g id="__Çermik">
            <path d="   M79.24,220.17c-0.62-0.28-1.04,1.41-1.16,1.8c-0.07,0.36-0.13,0.71-0.2,1.07c-0.31,0.52-0.62,1.03-0.93,1.54   c-0.1,0.41-0.2,0.82-0.3,1.23c-0.27,0.93-0.22,1.68-0.63,2.57c-1.17,2.01-2.35,4.01-3.52,6.02c-0.12,0.35-0.25,0.71-0.37,1.06   c0.37-0.34,0.75-0.67,1.12-1c0.26,0.21,0.51,0.41,0.77,0.62c0.76,0.07,1.4,0.29,1.93-0.24c0.36-0.38,1.22-2.34,1.16-2.85   c0.14-0.29,0.32-0.66,0.62-0.77c0.35-1,1.13-4.06,1.7-4.63c0.03-0.41,0.07-0.81,0.1-1.22c0.09-0.35,0.17-0.52,0.52-0.63   c-0.05-0.26-0.11-0.51-0.16-0.77c-0.09-0.75,0.57-1.96,0.01-2.63c0.12-0.19,0.28-0.42,0.49-0.68   C80,220.51,79.62,220.34,79.24,220.17z"/>
            <path d="   M61.81,249.89c1.56-0.25,2.29-1.13,3.44-2.08c0.6-0.5,1.17-0.69,1.52-1.44c0.02-0.67,0.07-0.9-0.15-1.54   c0.25-0.84,1.18-2.12,2.01-2.47c0.59-0.76,1.79-2.04,2.78-2.32c0.18-0.58,0.75-1.74,0.31-2.32c-0.13-0.03-0.32-0.04-0.52-0.05   c-0.41,0.32-1.03,1.32-1.33,1.59c-1.03,0.46-2.06,0.93-3.09,1.39c-0.26,0.72-0.51,1.44-0.77,2.16c-0.25,0.7-0.53,1.24-0.93,1.85   c-0.35,0.14-0.58,0.44-0.77,0.77c-0.41,1.13-0.82,2.27-1.24,3.4c-0.43,0.24-0.86,0.47-1.29,0.71c-0.3,0.16-0.86-0.05-1.43-0.34   C60.74,249.61,61.2,250.01,61.81,249.89z"/>
            <path d="   M174.22,228.92c-0.12-0.91,0.17-1.92-0.6-2.63c-0.08-0.63-0.42-2.43-0.93-2.78c-0.24-1.9-0.73-3.57-1.27-5.4   c-0.35-1.13-0.7-2.27-1.05-3.4c-0.31-0.41-0.62-0.82-0.93-1.24c-0.66-0.7-1.19-2.61-1.53-3.5c-0.2-0.51-0.67-1.06-0.63-1.6   c-0.96-0.75-2.23-1.32-3.4-1.7c-0.48-0.16-0.71-0.57-1.24-0.62c-0.28-0.24-0.4-0.43-0.77-0.46c-0.21-0.26-0.41-0.51-0.62-0.77   c-0.74-1.62-1.29-2.94-1.24-4.79c0.01-0.41-0.24-0.89,0-1.23c-0.26-0.77-0.51-1.54-0.77-2.32c-0.4-0.41-1.18-0.95-1.24-1.54   c-0.43-0.28-0.86-0.57-1.29-0.85c-0.5-0.38-0.99-0.77-1.49-1.15c-0.82-1.13-1.65-2.26-2.47-3.4c-0.65-1.13-0.89-2.47-1.75-3.46   c-0.53-0.61-2.07-2.7-1.95-3.49c-0.46-0.69-1.3-2.28-1.03-3.02l-0.2,0.08c-0.21-0.1-0.41-0.21-0.62-0.31   c-0.3,0.17-0.61-0.01-0.94-0.04c-0.72,0.01-1.43,0.03-2.15,0.04c-0.26-0.05-0.51-0.1-0.77-0.15c-0.14-0.1-0.29-0.2-0.43-0.29   c-0.17-0.06-0.33-0.11-0.5-0.17c-0.04-0.41-0.51-0.77-0.41-1.14c-1.15-1.66-1.85-3.36-1.91-5.36c0-0.05,0-0.1,0-0.15   c-0.05,0.05-0.1,0.11-0.15,0.16c-0.05,0.56-0.11,1.13-0.16,1.69c0,1.34,0,2.68,0,4.01c0.54,3.24-0.96,6.62-1.22,9.89   c-0.21,0.56-0.42,1.13-0.63,1.69c-0.27,1.21-0.69,2.66-1.54,3.55c-1.99,2.09-4.37,3.67-7.2,4.52c-1.51,0.66-3.03,1.31-4.54,1.97   c-0.72,0.15-1.44,0.31-2.16,0.46c-1.29,0.05-2.57,0.1-3.86,0.15c-0.27,0.51-1.22,0.51-1.76,0.71c-0.39,0.23-0.79,0.45-1.18,0.68   c-1.18,0.26-2.37,0.51-3.55,0.77c-1.75,0.97-3.51,1.95-5.26,2.92c-1.77,1.43-3.53,2.87-5.3,4.3c-0.86,1.14-1.71,2.29-2.57,3.43   c-0.36,1.08-0.72,2.16-1.08,3.24c-0.77,0.88-1.54,1.75-2.32,2.62c-0.56,0.17-1.03,0.78-1.39,1.24c-0.45-0.1-1.14,0.32-1.59,0.56   c-0.86,0.47-1.57,1.16-2.58,1.29c-1.39,0.05-2.78,0.1-4.17,0.15c-0.98-0.41-1.96-0.82-2.93-1.24c-0.32,0.19-0.92-0.05-1.28-0.11   c-0.09,0-0.18-0.01-0.26-0.01c-0.05,0.04-0.1,0.08-0.15,0.12c-0.15,0.6-0.81,1.76-0.31,2.32c-0.25,0.91-0.44,3.66-1.08,4.17   c-0.01,0.33,0.05,0.51-0.15,0.77c0.03,0.95,0,2.37-0.31,3.23c-0.21,0.61-1.45,2.37-0.73,2.94c0.18,0.17,0.15,0.22,0.42,0.16   c0.45-0.9,1.05-1.58,2.14-1.51c0.12,0.01,0.24,0.03,0.36,0.04c0.32,0.62,0.79,1.33,1.39,1.72c0.35,0.23,0.75,0.04,1.05,0.37   c0.54-0.07,2.72-0.14,3.09,0.15c0,0.26,0,0.52,0,0.77c-0.16,0.4-0.64,1.21-0.31,1.54c0.91,0.12,1.56,0.46,2.47,0.46   c0.03,0.27,0.16,0.77,0,0.76c-0.8-0.05-1.75-0.3-2.49-0.67c-0.32-0.16-0.56-0.61-0.91-0.55c0.12-0.61,0.73-1.74-0.31-1.24   c-0.51-0.1-1.03-0.21-1.54-0.31c-0.21,0.21-0.41,0.41-0.62,0.62c-0.49-0.3-0.98-0.31-1.54-0.31c-0.16-0.15-0.61-0.64-0.67-0.52   c-0.22,0.45-0.16,1.1-0.88,1.14c-0.68,0.04-1.9,0.23-2.47-0.32c-0.47,0.06-1.12,0.38-1.54,0.15c-0.46,0.15-1.1,0.57-1.54,0.31   c-0.26,0.05-0.51,0.1-0.77,0.15c-1.02,0.8-0.72,0.63-1,1.66c-0.09,0.27-0.19,0.54-0.28,0.82c-0.05,0.45,0.02,0.8-0.26,1.23   c-0.48,0.72-0.93,0.69-1.7,0.93c-0.21,0.21-0.41,0.41-0.62,0.62c-0.33,1.25-0.97,0.93-1.47,1.95c-0.13,0.64-0.26,1.27-0.39,1.91   c-0.41,0.48-1.84,1.98-2.47,1.85c-0.64,0.71-1.79,2.24-2.78,2.32c-0.25,0.51-0.37,0.76-0.94,0.89c-0.61,0.12-1.69,0.39-2-0.43   c-0.89-0.2-1.25-0.65-2-0.89c-0.65-0.08-1.29-0.15-1.94-0.23c-0.02,0.02-0.05,0.03-0.07,0.05c0.26,0.51,0.51,1.02,0.77,1.53   c0.49,0.62,0.98,1.24,1.47,1.86c0.49,0.26,0.98,0.51,1.47,0.77c0.62,0.15,1.24,0.31,1.85,0.46c0.57,0,1.13,0,1.7,0   c2.15-0.55,4.14-0.41,6.33-0.62c1.6,0.67,3.19,1.34,4.79,2.01c0.67,0.88,1.34,1.75,2.01,2.63c0.1,0.26,0.21,0.52,0.31,0.77   c1.18,0.62,2.37,1.24,3.55,1.85c0.82,0.16,1.65,0.31,2.47,0.46c1.32,0.2,2.6,0.32,3.86,0.77c0.57,0.05,1.13,0.1,1.7,0.15   c0.73-0.53,2-0.12,2.63,0.31c0.59,0,0.99,0.11,1.54,0.31c0.67-0.59,3.61,0.13,4.5,0.36c1.69,0.43,3.66,0.04,5.23,0.72   c1.83,0.89,3.67,1.78,5.51,2.67c1.51,0.46,2.38,2.21,3.14,3.35c0.67,0.19,0.85,1,1.39,1.39c0.9,0.64,1.81,1.27,2.71,1.91   c1.63,0.58,3.26,1.15,4.89,1.73c3.15,1.5,6.08,3.37,9.38,4.54c0.88,0.16,1.75,0.31,2.63,0.46c1.96,0.41,3.91,0.82,5.87,1.23   c1.4,0.64,3.53,2.31,4.97,2.49c0.43,0.34,0.87,0.68,1.3,1.01c1.1,0.63,2.2,1.26,3.31,1.9c0.46,0.88,0.93,1.75,1.39,2.63   c0.51,0.72,1.03,1.44,1.54,2.16c0.41,0.15,0.65,0.59,0.93,0.93c0.68,0.13,1.11,0.78,1.7,1.08c1.25,0.64,2.7,1.22,4.13,0.93   l0.08-0.16c0.07-0.36,0.14-0.73,0.2-1.09c0.26-0.46,0.51-0.93,0.77-1.39c0.18-0.37,0.19-0.69,0.54-0.91   c0.1-0.26,0.21-0.51,0.31-0.77c0.33-1.54,0.66-3.08,0.98-4.62c0.51-0.89,1.03-1.77,1.54-2.66c0.29-0.94,0.83-3.13,1.64-3.68   c0.18-0.42,0.18-0.76,0.62-0.93c0-3.6,0-7.21,0-10.81c-0.21-1.08-0.41-2.16-0.62-3.24c-0.31-0.46-0.62-0.93-0.92-1.39   c-0.01-0.54-1.38-3.27-1.75-3.76c-0.47-0.58-0.93-1.16-1.4-1.73c-0.53-0.14-1.81-1.38-1.79-1.92c0.08-1.29,1.72-3.82,3.24-3.24   c0.63-0.25,1.26-0.5,1.89-0.74c0.75,0.08,1.71,0.14,2.14,0.71c0.52,0.85,1.04,1.71,1.55,2.56c0.15,0.39,0.29,0.79,0.44,1.18   c-0.04,1.1-0.07,2.19-0.11,3.29c0.19,0.14,0.38,0.28,0.57,0.42c0.4,0.21,0.77,0.18,0.93,0.62c0.43-0.06,0.77,0.02,1.14-0.18   c0.72-0.41,1.21-0.91,1.28-1.68c0.02-1.28,0.04-2.57,0.05-3.85c0.1-0.41,0.21-0.82,0.31-1.24c-0.02-0.67-0.04-1.34-0.06-2.01   c-0.29-0.62-0.58-1.24-0.87-1.85c-0.35-0.19-0.62-0.24-0.77-0.62c-1.29-0.21-2.53-0.08-3.84-0.21c-0.38-0.04-0.98,0.28-1.21-0.13   c-0.18-0.32-0.41-0.66-0.33-1.04c0.07-0.29,0.13-0.58,0.2-0.87c0.34-0.34,1.33-0.93,1.47-1.15c0.36-0.1,0.72-0.21,1.08-0.31   c0.31,0,0.62,0,0.93,0c0.38,0.2,1.89,0.75,2.02,0.63c0.31-0.26,0.63-0.52,0.95-0.78c0.09-0.26,0.18-0.52,0.27-0.78   c-0.08-1.54-0.16-3.08-0.24-4.61c0.19-0.4,0.04-1.63-0.25-1.85c-0.33-0.25-0.67-0.64-1.06-0.64c-1.86,0.06-3.06,0.28-4.82,0.98   c-0.5,0.19-1.01,0.38-1.52,0.56c-0.58,0.09-2.07,0.26-2.47,0.62c-0.77-0.1-1.54-0.21-2.32-0.31c-0.26-0.14-0.69-0.53-0.49-0.77   c0.11-0.21,0.22-0.41,0.33-0.62c0.93-0.57,1.85-1.13,2.78-1.7c0.41-0.15,0.82-0.31,1.24-0.46c0.89-0.46,1.36-1.25,2.08-1.9   c0.63-0.56,1.39-1.87,2.24-1.65c0.87-0.67,1.75-1.33,2.62-2c0.94,0.06,1.62,0.2,1.99,1.12c0.11,0.14,0.22,0.28,0.33,0.41   c0.15,1.14,0.52,2.72,1.52,3.31c0.03,0.5,0.01,0.42,0.41,0.3c0.13-0.06,0.26-0.12,0.39-0.17c0.1,0.09,0.21,0.18,0.31,0.27   c0.02-0.04,0.04-0.08,0.07-0.13C175.24,232.54,174.56,231.57,174.22,228.92z"/>
            <circle cx="131.38" cy="215.87" r="1.586"/>
        </g>
        <g id="__Çüngüş">
            <path d="   M57.96,166.92c0.1,0.64-0.15,2.56,0.31,2.86c-0.21,0.66-0.26,2.72,0,3.24c-0.15,0.53-0.2,1.42,0.15,1.85   c-0.05,0.46-0.16,1.37,0.15,1.7c-0.03,0.09-0.05,0.19-0.08,0.28c1.34-0.49,1.64-2.33,2.08-3.52c0.05-1.49,0.1-2.99,0.15-4.48   c-0.98-1.35-1.83-2.24-2.5-3.59c-0.48-0.04-0.92-0.04-0.8,0.47C57.62,166.13,57.79,166.52,57.96,166.92z"/>
            <path d="   M83.13,218.26c0.18-0.45,0.62-1.1,1.08-1.23c0.12-0.43,0.68-1.45,1.08-1.7c0.13-0.51,0.72-2.34,1.08-2.63   c-0.13-1.4-0.22-2.79-0.62-4.17c-0.14-0.47-0.49-0.62-0.6-1.1c-0.08-0.29-0.25-0.52-0.38-0.78c-1.39,3.22-1.21,6.84-3.21,9.72   c-0.42,0.6-1.07,2.24-1.67,2.5c-0.16,0.29-0.53,0.71-0.3,0.91l-0.35,0.39c0.38,0.17,0.75,0.33,1.13,0.5   C81.14,219.7,82.4,218.39,83.13,218.26z"/>
            <path d="   M139.8,173.95c0.05-0.56,0.11-1.13,0.16-1.69l-0.16,0c-0.11-0.39-0.38-0.85-0.31-1.23c-0.36-0.52-0.72-1.03-1.08-1.54   c-0.43-0.42-1.13-0.76-1.24-1.39c-0.54-0.4-1.49-0.81-1.54-1.54c-1.18-0.67-2.37-1.34-3.55-2.01c-1.34-0.36-2.68-0.72-4.01-1.08   c-1.7-0.26-3.4-0.51-5.1-0.77c-1.03,0-2.06,0-3.09,0c-0.87-0.1-1.75-0.21-2.63-0.31c-1.23-0.28-2.36,0.07-3.55-0.31   c-0.82-0.1-1.65-0.21-2.47-0.31c-0.62,0.68-1.62,2.01-2.46,1.98c-0.3,0-0.44,0.1-0.62-0.15c-0.21-0.76-0.42-1.52-0.63-2.29   c-0.36-0.41-0.9-1-0.93-1.54c-1.08-0.88-2.16-1.75-3.24-2.63c-1.55-0.87-3.09-1.75-4.64-2.62c-0.55-0.43-1.25-0.71-1.96-0.62   c-0.47-0.14-0.94-0.28-1.41-0.42c-1.23,0.55-2.17,1.16-3.11,2.11c-0.31,0.46-0.61,0.93-0.92,1.39c-0.52,0.52-1.04,1.03-1.55,1.54   c-0.48,0.61-1.87,1.57-1.39,2.47c-0.13,0.31-0.24,0.43-0.15,0.77c-0.37,0.44-0.74,0.88-1.1,1.33c-0.75,0.56-1.5,1.11-2.24,1.66   c-0.6,0.48-1.21,0.96-1.81,1.43c-0.35,0.14-0.69,0.27-1.04,0.41c-0.76-0.13-1.32,0.17-2.06,0.26c-2.38,0.27-4.75,0.54-7.13,0.81   c-0.35,0.01-2.2-1.08-2.36-1.42c-0.54-0.03-2.52-0.37-2.78-0.77c-1.36,0.18-2.51-0.04-3.86-0.31c-1.27,0.04-2.53,0.07-3.8,0.11   c0.03,0.07,0.06,0.13,0.09,0.2c0.21-0.03,0.42-0.07,0.64-0.1c0.3,0.86,0.6,1.72,0.91,2.57c0.24,0.26,0.57,0.43,0.62,0.77   c0.04-0.02,0.09-0.04,0.14-0.06c1.79-0.74,3.05-0.91,4.95-1.1c-0.05,0.13-0.1,0.26-0.14,0.39c-0.26,0.21-0.51,0.41-0.77,0.62   c-1.04-0.06-1.6,0.04-2.59,0.49c-0.19,0.01-0.37,0.02-0.56,0.03c-0.44,0.55-0.89,1.09-1.33,1.64c0.16,0.58,0.43,1.81,0.15,2.32   c0.36,0.18,2.07,1.02,1.4,1.11c-0.81,0.07-1.33-0.17-1.79,0.49c-0.21,0.35-0.26,0.55-0.19,0.95c-0.48,0.56-0.89,1.25-0.56,1.99   c-0.45,1.13-0.92,2.02-0.58,3.26c0.22,0.05,0.45,0.09,0.67,0.14c0.09,0.18,0.19,0.37,0.28,0.55c-0.13,0.5-0.55,1.39-0.31,1.85   c-0.11,0.32-0.29,0.61-0.15,0.93c-0.5,0.05-1.54,0.04-1.54,0.62c0.23,0.67,0.45,1.34,0.68,2.02c-0.51,0.95-0.83,1.66-0.83,2.77   c-0.1,0.26-0.21,0.52-0.31,0.77c-0.82,0-1.2,1.04-1.85,1.39c-0.23,0.78-0.64,1.48-1.39,1.85c0.21-0.3,0.42-0.59,0.64-0.89   c0.42-0.83,0.89-2.41,1.68-2.97c0.21-0.77,0.41-1.54,0.62-2.32c-0.05-0.77-0.1-1.54-0.15-2.32c0.26-1.24,0.61-2.43-0.31-3.4   c0-0.36,0-0.72,0-1.08c0.16-0.27,0.31-0.53,0.47-0.8c-0.08-0.57-0.17-1.14-0.25-1.71c-0.02,0.57-0.02,1.13-0.11,1.73   c-0.09,0.59-0.38,1.49-0.11,2.02c-0.1,0.51-0.21,1.03-0.31,1.54c0,0.46,0,0.93,0,1.39c-0.19,0.71-0.97,2.22-0.77,2.93   c-0.57,1.29-1.13,2.57-1.7,3.86c-0.26,0.26-0.51,0.51-0.77,0.77c-1.01,0.56-1.97,1.15-1.8,2.46c0.21,1.64,1.36,3.4,2.82,4.5   c0.38,0.29,0.95,0.51,0.99,1.07c0.04-0.02,0.08-0.05,0.12-0.07c1.18-0.69,2.22-0.93,3.58-0.82c0.31,0.02,0.27-0.03,0.47,0.28   c0.26-0.05,0.51-0.1,0.77-0.15c0.68-0.07,1.74-0.65,2.32-0.15c0.58-0.19,1.23-0.51,1.85-0.31c0.57-0.19,1.13-0.38,1.7-0.57   c0.22-0.29,0.55-0.37,0.9-0.45c0.52-0.62,1.14-0.38,1.72-0.83c0.26-0.05,0.51-0.1,0.77-0.15c0.47,0.05,1.16,0.13,1.54-0.15   c0.37,0.06,0.62,0.24,0.93,0c0.71,0.28,1.42,0.57,2.12,0.85c0.56,0.22,2.4,0.64,2.66,1c0.57,0.02,0.98,0.13,1.42,0.29   c-0.17-0.49-0.26-1-0.03-1.37c-0.67-0.6-1.57-1.07-2.01-1.85c-0.29-0.09-0.57-0.19-0.86-0.28c-0.28,0.16-0.73,0.18-0.99-0.02   c-0.21,0.15-0.41,0.31-0.62,0.46c-1.03-0.16-2.06-0.31-3.09-0.46c-0.67,0.36-1.34,0.72-2.01,1.08c0.47-0.34,0.95-0.69,1.42-1.03   c0.5-0.19,1.46-0.23,1.82,0.1c0.77-0.23,2.59-0.51,3.24-0.15c0.51-0.1,1.47-0.39,1.85,0c0.61,0.26,1.04,0.42,1.08,1.08   c0.56,0.47,1.19,1.45,0.77,2.16c0.22,0.24,0.33,0.25,0.31,0.62c1.74,0.39,4.83,2.88,5.4,4.63c0.12,0.37,0.09,0.66-0.15,0.93   c0.23,0.45,0.59,1.09,0.31,1.54c0.06,0.42,0.19,0.66,0.15,1.08c0.31,1,0.61,2,0.92,3c-0.05,0.08-0.1,0.16-0.14,0.25   c0.08,0.44,0.16,0.88,0.25,1.33c-0.14,0.33-0.29,0.73-0.16,1.07c-0.13,0.34-0.46,0.71-0.31,1.06c-0.27,0.81-1.01,2.52-1.79,2.88   c-0.45,1.52-0.98,1.7-2.27,2.54c-0.38,0.3-0.75,0.6-1.13,0.89c0.09,0,0.18,0.01,0.26,0.01c0.36,0.06,0.96,0.3,1.28,0.11   c0.98,0.41,1.96,0.82,2.93,1.24c1.39-0.05,2.78-0.1,4.17-0.15c1.01-0.13,1.72-0.81,2.58-1.29c0.45-0.24,1.13-0.66,1.59-0.56   c0.36-0.46,0.83-1.06,1.39-1.24c0.77-0.88,1.54-1.75,2.32-2.62c0.36-1.08,0.72-2.16,1.08-3.24c0.86-1.14,1.71-2.29,2.57-3.43   c1.77-1.43,3.53-2.87,5.3-4.3c1.75-0.97,3.51-1.95,5.26-2.92c1.18-0.26,2.37-0.51,3.55-0.77c0.39-0.22,0.79-0.45,1.18-0.68   c0.53-0.2,1.49-0.2,1.76-0.71c1.29-0.05,2.57-0.1,3.86-0.15c0.72-0.15,1.44-0.31,2.16-0.46c1.51-0.66,3.03-1.31,4.54-1.97   c2.82-0.85,5.2-2.43,7.2-4.52c0.85-0.9,1.28-2.35,1.54-3.55c0.21-0.56,0.42-1.13,0.63-1.69c0.26-3.27,1.76-6.65,1.22-9.89   C139.8,176.62,139.8,175.28,139.8,173.95z"/>
            <circle cx="92.94" cy="194.48" r="1.586"/>
        </g>
        <g id="__Dicle">
            <path d="   M333.26,172.09c-0.18-0.29-0.36-0.58-0.54-0.87c-0.64-1.09-2.02-1.64-2.84-2.52c-0.21-0.46-0.41-0.93-0.62-1.39   c0.16-0.8-0.75-3.35-1.24-4.02c-0.46-0.51-0.93-1.03-1.39-1.54c-0.31-0.57-0.62-1.13-0.93-1.7c-0.31-0.88-0.62-1.75-0.93-2.63   c0.34-0.86-0.6-1.63-0.93-2.32c-0.46-0.88-0.93-1.75-1.39-2.63c0.24-0.69-0.57-1.93-0.93-2.47c0.15-0.39-0.25-0.95-0.31-1.39   c-0.15-1.2-0.24-2.38-0.62-3.55c0.48-0.37,0.31-1.01,0.15-1.54c0.68-0.46,0.37-1.48,0.48-2.21c0.21-1.41-0.16-2.94-0.79-4.28   c-0.21-0.21-0.41-0.41-0.62-0.62c-0.31-0.51-0.62-1.03-0.93-1.54c-0.51-0.46-1.03-0.93-1.54-1.39c-0.19,0.08-2.55-0.83-2.85-1.02   c-1.34-0.86-1.81-3.66-2.71-5c-0.21-0.26-0.41-0.52-0.62-0.77c-0.88,0.27-1.98-0.7-2.63-1.24c-0.33-1-0.75-2.03-1.12-3.07   l-1.2-0.32c-1.08,0-2.16,0-3.24,0c-0.67,0-1.34,0-2.01,0c-0.42,0.18-1.39,0.08-1.85,0c-0.31,0-0.62,0.01-0.94,0.01   c-1.02-0.08-1.66-0.15-2.62-0.63c-0.24,0.22-2.34,0.48-2.8,0.35c-0.14-0.24-0.28-0.47-0.42-0.71c-0.63-0.21-1.12-0.09-1.57,0.36   c-0.36-0.21-0.72-0.41-1.08-0.62c-0.31,0.36-0.62,0.72-0.93,1.08c-0.62-0.05-1.24-0.1-1.85-0.15c-2.23,0.07-4.51-0.94-6.49-1.85   c-0.54,0.39-1.65,0.2-2.32,0.15c-0.69,0.5-3.42,0.21-4.32,0.15c-0.67,0.1-1.34,0.21-2.01,0.31c-1.76,0.46-3.72,0.61-5.56,0.31   c-0.52,0-1.04,0-1.55,0c-0.67-0.01-1.05,0.18-1.69,0.31c-0.31-0.1-0.62-0.21-0.93-0.31c-0.77,0.03-1.53,0.06-2.3,0.09   c-3.87-0.8-7.73-1.6-11.6-2.4c-1.85,0.1-3.71,0.21-5.56,0.31c-1.09,0.66-2.18,1.32-3.27,1.99c-0.95,0.74-1.76,1.56-2.44,2.49   c-0.59,0.1-1.45,1.24-1.85,1.7c-0.35-0.09-0.48,0.11-0.77,0.31c-0.98,1.39-1.96,2.78-2.93,4.17c0.02,0.58-0.33,0.93-0.62,1.39   c-0.1,0.26-0.21,0.51-0.31,0.77c-0.5,1.54-1.46,2.64-2.25,4.04c-0.18,0.61-0.35,1.22-0.53,1.82c-0.49,0.47-0.55,1.65-0.62,2.32   c-0.23,0.14-1.24,2.97-1.36,3.41c0.44,0.54,0.87,1.07,1.31,1.61c1.46,1.72,2.91,3.45,4.37,5.17c0.11,0.64,1.82,2.02,1.74,1.99   c0.3-0.25,0.59-0.51,0.89-0.76c0.82,0.05,1.65,0.1,2.47,0.15c0.14-0.42,2.78-2.16,3.24-2.32c0.51,0,1.03,0,1.54,0   c-0.06,0.78,1.23,0.39,1.64,0.18c0.02-0.1,0.04-0.21,0.05-0.31c0.57-0.85,0.34-2.14-0.03-3.1c-0.19-0.51-2.16-0.44-2.74-0.32   c0.02-0.6-0.52-0.46-0.93-0.62c-0.46-0.19-0.65,0.06-1.08,0.31c-0.5-0.2-0.78,0.03-1.28,0.25c-0.13,0.07-0.35-0.46-0.57-0.56   c0.43,0.07,1.81-0.84,2.18-1.13c-0.06-0.76-0.12-1.52-0.17-2.28c0-0.43,1.53,1.47,1.74,1.84c0.04,0.06,0.07,0.12,0.11,0.17   c0.15-0.18,2.04-0.44,2.47-0.46c0.72,0.57,1.44,1.13,2.16,1.7c0.35-0.13,0.94-0.06,1.24,0.15c0.27-0.06,0.54-0.13,0.82-0.19   c0.33,0.11,1-0.97,1.19-1.2c0.01-0.26,0.01-0.52,0.02-0.78c-0.09-1.26-2.32-1.23-3.26-1.23c-0.33-0.31-0.67-0.62-1-0.94   c-0.18-0.41-0.36-0.82-0.55-1.23c-0.1,0.05-0.21,0.1-0.31,0.15c-0.29-0.38-0.74-0.48-1.16-0.32c-0.24-0.09-0.48-0.18-0.71-0.27   c-0.3-0.07-0.01-0.28,0.11-0.42c0.02-0.13,0.05-0.26,0.07-0.39c0,0.78,1.23,0.8,1.74,0.71c0.2,0.13,0.41,0.25,0.61,0.37   c1.12,0.72,2.24,1.44,3.36,2.16c0.29-0.21,0.6-0.09,0.95,0.04c0.65,0.24,1.01,0.96,1.37,1.51c0.31,0.08,0.54,0.52,0.77,0.77   c0.27,0.06,0.53,0.12,0.8,0.18c0.48,0.2-0.56,1.75-0.8,2.29c0.1,0.26,0.21,0.51,0.31,0.77c-0.47,0.06-0.72,1.01-1.09,1.38   c-0.49,0.52,2.08,0.17,2.38,0.13c0.31,0.12,0.62,0.25,0.94,0.37c0.13,0.14,0.26,0.29,0.4,0.43c0.02-0.19,0.05-0.39,0.07-0.58   c0.13-0.06,0.26-0.13,0.39-0.19c-0.31-0.35-0.24-1.55-0.19-2.03c0.05-0.77,2.61-2.03,3.08-3.27c0.07-0.19-0.67-0.22-0.88-0.27   c-0.09-0.21-0.17-0.43-0.26-0.64c-0.02-0.05-0.02-0.11,0-0.17c0.12,0.29,0.19,0.5,0.57,0.5c0.36,0,0.72,0,1.08,0   c0,0.21,0,0.41,0,0.62c-0.21,0.31-0.41,0.62-0.62,0.93c0.14,1.13-1.31,1.67-2.16,2.08c-0.57,0.3,0.04,2.13,0.46,2.55   c0.02,0.7,0.94,1.52,0.77,2.01c0.99,0.47,1.84,0.8,2.72,1.4c0.1,0.17,0.19,0.35,0.29,0.52c0.42,0.42,0.17,0.97,0.1,1.5   c-0.06,0.56-0.92,1.05-1.4,1.17c-0.42,0.12-1.68-1.01-2.01-1.35c-1.16-0.09-1.92-1.07-2.5-1.98c-0.1-0.41-0.2-0.82-0.3-1.23   c-0.15-0.27-0.3-0.53-0.44-0.8c-0.13-0.1-0.25-0.2-0.38-0.3c-0.27-0.45-0.38-0.17-0.7,0.15c-0.31,0-0.62,0-0.93,0   c-0.32-0.36-0.71-0.56-0.97-0.17c-1.17-0.26-1.75,0.71-2.58,1.25c-0.41,0.21-0.82,0.41-1.23,0.62c-1.16,1.07-3.05,2.85-4.79,2.78   c-1.28,0.77-2.75,1.32-4.28,1.74c0.19,0.18,0.38,0.37,0.57,0.57c0.26,0.51,0.51,1.03,0.77,1.54c0,0.8,1.35,2.63,1.85,3.24   c0.04,0.55,0.33,1.1,0.62,1.54c-0.13,0.31,0.41,1.17,0.62,1.54c0.31,0.77,0.62,1.54,0.93,2.32c-0.09,0.33,0.13,0.5,0.31,0.77   c-0.3,0.8,1.23,3,1.61,3.83c0.08,0.17,2.6,0.34,3.05,0.27c0.69-0.1,1.64,0.02,2.29,0.23c0.26-0.36,0.95-0.45,1.39-0.31   c1.48-0.74,3.1-0.98,4.79-1.08c0.87-0.76,3.54-0.57,4.63-0.46c0.48-0.66,2.28-0.85,3.09-0.93c0.32-0.4,1.21-0.32,1.7-0.46   c0.62-0.1,1.24-0.21,1.85-0.31c0.08-0.03,0.15-0.06,0.23-0.09c-0.28-0.13-0.56-0.25-0.85-0.38c-0.36-0.62-0.72-1.24-1.08-1.85   c-1-0.04-1.49-1.09-1.54-2.01c0.04,0.08,0.07,0.15,0.11,0.23c0.26,0.45,0.54,0.72,0.97,1.01c0.05,0.05,0.1,0.1,0.15,0.15   c0.46,0.31,0.93,0.62,1.39,0.93c-0.05,0.71-0.25,0.71,0.36,1.16c0.31,0.2,0.62,0.4,0.93,0.6c0.78-0.27,1.58-0.46,2.42-0.37   c0.64-0.59,2.4-0.36,3.24-0.15c0.48-0.72,2.24-0.18,2.96-0.11c0.45-0.07,0.91-0.14,1.36-0.2c0.82,0.05,1.65,0.1,2.47,0.15   c0.98,0.26,1.96,0.51,2.93,0.77c0.6-0.55,2.28,0.07,2.93,0.15c0.51,0,1.03,0,1.54,0c0.48,0.45,1.27,0.29,1.87,0.28   c0.51,0.1,1.02,0.21,1.53,0.31c0.14-0.01,0.29-0.02,0.43-0.03c0.02-0.58,0.03-1.17,0.05-1.75c0.3-0.32,0.61-0.64,0.91-0.97   c0.67,0.05,1.34,0.1,2.01,0.15c0.1-0.15,0.21-0.31,0.31-0.46c-0.57-1.01-0.65-2.13-0.79-3.22c-0.04-0.29,0.1-1.18-0.29-1.26   c0.15-0.06,0.3-0.12,0.45-0.17c0.27-0.16,0.79-0.41,0.79-0.75c0.44,0.07,0.87,0.13,1.31,0.2c0.57-0.48,2.5-0.22,2.58-1.14   c0.04-0.2,0.08-0.4,0.13-0.6c-0.93-0.93-2.25-1.57-2.65-2.9c0.23-1.48,3.01-2.67,2.75-4.04c-0.08-0.21-0.16-0.42-0.25-0.63   c-0.91,0-1.38,0.71-2.25,0.9c-0.46,0.1-0.5-0.33-0.99-0.13c0.09-0.11,0.19-0.23,0.28-0.34c0.41-0.54,0.81-0.39,1.41-0.28   c0.36-0.36,0.12-0.86,0.31-1.24c0.15-0.19,0.3-0.37,0.44-0.56c0.37-0.28,0.73-0.55,1.1-0.83c0.6-0.15,2.01-0.46,1.87-0.7   c-0.06-0.18-0.12-0.36-0.17-0.54c-0.54-0.48-0.99-0.84-1.24-1.54c-0.08-0.23-0.27-1.22-0.03-0.93c0.32,0.57,0.64,1.13,0.96,1.7   c0.84-0.12,1.38,0.11,2.16,0.31c0.18,0.34,0.24,0.69,0.62,0.77c-0.04,0.08-0.09,0.15-0.13,0.23c-0.42,0.7-0.8,1.31-1.41,1.93   c-0.35,0.35-0.81,0.32-0.93,0.78c-0.15-0.21-0.31-0.41-0.46-0.62c-0.09,0.03-0.18,0.06-0.27,0.1c-0.41,0.18-0.47-0.3-0.59,0.25   c-0.06,0.33-0.24,0.88-0.08,1.08c0.59,0.65,2.75,1.38,2.58,2.26c-0.17,0.71-0.73,1.13-1.47,1.13c-1.07-0.07-2.38-0.77-3.06,0.39   c-0.25,0.52-0.03,0.55-0.66,0.81c0.31,0.31,0.62,0.62,0.93,0.93c0.41,0.26,0.82,0.51,1.24,0.77c0.51,0.07,1.25,0.16,1.54,0.62   c0.39,0,0.64-0.12,0.93,0.15c0.31-0.21,0.61-0.42,0.92-0.63c0.96-0.06,2.51,0.27,2.94-0.76c-0.31,0.76-0.44,1.27-1.06,1.85   c-0.52,0.49-1.54,0.79-1.6,1.57c0,0.32,0.08,0.25-0.27,0.44c0.21,0.15,0.41,0.31,0.62,0.46c0.07,0.11,0.11,0.2,0.14,0.27   c0.17-0.1,0.25-0.27,0.51,0.24c0.04,0.08,0.08,0.17,0.12,0.26c-0.53-0.17-0.52-0.23-0.63-0.5c-0.09,0.05-0.22,0.08-0.42-0.04   c-1.65-0.96-2.59-1.23-4.51-0.55c-0.23,0.84-0.23,0.63-0.77,1.24c-0.5-0.26-1.1-0.47-1.67-0.26c-0.44,0.16-0.55,0.45-0.96,0.1   c-0.05,0.26-0.1,0.52-0.15,0.77c0.15,0.67,0.31,1.34,0.46,2.01c0.05,0.48,0.51,0.62,0.37,1.05c-0.1,0.35-0.44,1.35-0.69,1.1   c-0.23-0.18-0.28-0.13-0.3-0.45c-0.33-0.06-1.2-0.22-1.42-0.03c-0.32,0.38-0.22,0.54-0.74,0.65c0.05,0.15,0.1,0.31,0.15,0.46   c0.04,0.26,0.09,0.52,0.13,0.79c0.06,0,0.12-0.01,0.18-0.01c1.89,0.53,2.56,3.81,1.73,5.3c0.1,0.12,0.18,0.28,0.28,0.42   c-0.41,0.53,0.29,1.51,0.56,1.95c0.49,0.73,1.36,0.67,2.21,0.83c0.14,0.12,0.28,0.24,0.42,0.36c0.9,0.47,0.76,2.24,1.27,3.04   c0.67,0.46,1.33,0.93,2,1.39c0.83,0.87,1.65,1.75,2.48,2.62c1.39,0.88,2.78,1.75,4.17,2.63c0.57-0.05,1.13-0.1,1.7-0.15   c0.39-0.61,1.45-0.74,2.02-0.85c1.45-0.28,1.2,0.37,2.15,1c0.51,0.31,1.03,0.62,1.54,0.93c0.33-0.3,1.1-0.13,1.54-0.15   c1.53-0.59,3.05-1.17,4.58-1.76c0.53-0.34,1.06-0.68,1.6-1.02c0.99-0.48,1.85-1.2,2.75-1.81c0.5-0.35,1.24-0.65,1.55-1.19   c0.27-0.19,0.53-0.38,0.8-0.56c0.38-0.13,0.75-0.26,1.13-0.4c0.6-0.65,1.2-1.29,1.79-1.94c0.57-0.58,1.47-1.01,1.86-1.81   C331.74,177.65,332.87,175.16,333.26,172.09z"/>
            <circle cx="269.28" cy="148.55" r="1.586"/>
        </g>
        <g id="__Yenişehir">
            <path d="M310.07,215.54c-1.05-0.18-2.71-0.67-3.66-1.14   c-0.93-0.47-1.39-0.85-2.48-0.62c-1.1,0.23-2.14,0.53-3.32,0.54c-1.27,0.01-2.28-0.21-3.56-0.08c-0.57,0.06-1.39,0.03-1.95,0.23   c-0.49,0.18-1.02,0.64-1.44,0.93c-1.1,0.74-2.23,1.23-3.4,1.78c-1.13,0.53-2.23,1.08-3.38,1.72c-0.6,0.33-0.94,0.5-1.66,0.6   c-0.62,0.09-1.12,0.55-1.67,0.55c-0.28,0.42-0.81,0.56-1.09,0.99c-0.3,0.45-0.42,0.94-0.85,1.3c-0.89,0.75-1.77,0.88-2.85,1.1   c-1.1,0.22-1.92,0.53-2.93,0.85c-0.97,0.31-2.01,0.15-3,0.55c-0.17,0.35-1.07,0.63-1.48,0.84c-0.48,0.25-1.08,1.2-1.62,1.16   c-1.09-0.09-2.22-1.4-3.17-1.85c-0.72-0.35-1.15,0.1-1.79,0.24c-0.6,0.13-1.38,0-1.99,0c-0.64,0-1.24-0.11-1.85-0.08   c-0.62,0.03-1.3,0.31-1.87-0.06c-0.74-0.48-1.14-1.87-0.99-3.41c0.06-0.61-0.62-3.48-0.09-3.87c0.24-0.6-0.35-1.22-0.54-1.77   c-0.2-0.57-0.03-1.33-0.44-1.78c-1.78-1.93-2.4-4.71-3.78-6.17c-0.89-0.94-2.81-1.03-4.01-1.39c-1.1-0.33-3.17-1.08-4.48-1.31   l-0.21,0.73c-0.48,0.32-2.36,2.43-2.5,2.9c-0.54,0.52-1.09,1.03-1.63,1.55c-0.08,0.35-0.15,0.36-0.41,0.58   c-0.26,0.22-0.56,0.66-0.9,0.65c-0.16,0.44-0.32,0.88-0.48,1.33c-0.33,0.52-0.48,0.74-0.48,0.74c0.78,0.44,1.57,0.89,2.35,1.33   c0.21,0.31,0.41,0.62,0.62,0.93c0.62,0.85,0.77,1.26,1.39,2.01c1,0.39,1.44,0.84,2.01,1.62c0.22,0.32,0.73,0.39,0.82,0.69   c1.19,2.42,2.38,4.85,3.58,7.27c0.34,0.83,0.79,2.41,1.61,2.65c0.88,0.29,1.77,0.59,2.65,0.89c0.8,0.8,1.34,1.6,2.01,2.47   c0.26,0.21,0.52,0.41,0.77,0.62c0.26,0.41,0.52,0.82,0.77,1.23c0,0.26,0,0.51,0,0.77c0.15,0.36,0.31,0.72,0.46,1.08   c0.31,0.21,0.62,0.41,0.93,0.62c2.33,2.33,4.76,4.46,7.57,6.18c0.67,0.57,1.34,1.13,2.01,1.7c0.44,0.43,0.87,0.87,1.31,1.3   c0.86,0.66,1.71,1.32,2.57,1.98c0.38,0.27,1.07,0.73,0.75,1.2c0.05-0.1,0.1-0.21,0.15-0.31c0.48,0.38,1,1.23,3.53,3.13   c0.16,0.04,0.32,0.08,0.48,0.12c0.4,0.48,1.93,2.37,2.37,1.92c0.45-0.36,0.51-0.42,0.95-0.01c0.97,0.85,2.15,1.71,3.16,2.72   c0.05,0.26,0.1,0.52,0.15,0.77c0.31,0,0.62,0,0.93,0c0.51,0.51,1.03,1.03,1.54,1.54c0.46,0.31,0.93,0.62,1.39,0.93   c0.8,0.61,1.46,1.88,1.85,2.78c0.36,0.21,0.72,0.41,1.08,0.62c0-0.37,1.57-0.19,1.81,0.17c0.22,0.33,0.16,0.55-0.1,0.89   c-0.06,0.06-0.12,0.11-0.17,0.17c0.17-0.03,0.33-0.07,0.5-0.1c0.7,0.38,1.61,0.79,1.81,1.65c0.36,0.1,0.72,0.21,1.08,0.31   c-0.24,1.46-0.07,0.96,0.77,1.85c-0.1,0.1-0.21,0.21-0.31,0.31c0.85-0.85,2.62,2.58,2.75,3c0.54,1.66,1.39,2.11,2.52,3.39   c0.74,0.84,0.62,2.21,0.85,3.29c0.23,1.07,0.49,2.26,1.21,3.01c0.35,0.36,1.23,0.45,1.5,0.9c0.32,0.55,0.01,1.49,0.24,2.09   c-0.16,0.07-0.1,0.15-0.17,0.28l0.51-0.05c0.47,0.68,2.83,0.36,3.68,0.22c0.38-0.08,0.41-0.33,0.65-0.64   c0.71-0.99-0.21-2.72-0.63-3.75c0.71-0.76,0.15-3.69,0.15-4.79c-0.43-0.13-0.58-0.63-0.92-0.95c-0.36-0.15-0.72-0.3-1.09-0.44   c-0.05-0.45-0.31-0.6-0.62-0.93c0.04-0.12,0.09-0.23,0.14-0.35c-0.2-0.7,0.06-0.64,0.48-1.19c0.1-0.26,0.21-0.52,0.31-0.77   c-0.33-0.62,1.12-2.33,0.93-3.4c-0.28-1.57-1.36-2.88-2.32-4.17c-0.08-0.4-0.16-0.81-0.25-1.22c0.13-0.42,0.25-0.84,0.38-1.26   c0.07-0.45-1.31-0.53-1.53-0.87c0-0.31,0.01-0.62,0.01-0.94c0.26-0.22,0.51-0.44,0.77-0.66c0.41,0,0.82,0,1.24,0   c-0.08-0.37,0.16-0.42,0.46-0.62c0.44,0.27,0.98-0.09,1.37-0.35c0.17-0.04,0.35-0.08,0.52-0.12c0.53-0.48,1.06-0.96,1.58-1.44   c0.16-0.2-0.36-0.22-0.54-0.26c0.07-0.1,0.14-0.19,0.21-0.29c0.21-1.21,0.42-2.42,0.63-3.63c0.29-0.54,0.57-1.09,0.86-1.64   c-0.35-0.93-0.54-1.83-0.77-2.78c0.18-0.24,0.18-0.62,0.15-0.93c-0.09-1.01-0.33-1.74,0.15-2.62c-0.48-0.72-0.49-1.11-1.39-1.39   c-0.15-0.57-0.31-1.13-0.46-1.7c0.26-0.41,0.51-0.82,0.77-1.23c-0.28-0.64-0.31-1.19-0.2-1.87c0.04-0.3,0.8-0.44,1.28-0.44   c-0.05-0.21-0.1-0.41-0.15-0.62c0.21-0.69,1.54-2.13,2.16-2.62c-0.25-0.39,0.01-0.66,0.36-0.94c0.15-0.68,0.31-1.35,0.46-2.03   c-1.07-5.4-2.15-10.81-3.22-16.22c-0.02-0.14-0.04-0.29-0.07-0.43L310.07,215.54z"/>
            <circle cx="300.78" cy="264.2" r="1.586"/>
        </g>
        <g id="__Kayapınar">
            <path d="M295.29,269.84c0.1-0.1,0.21-0.21,0.31-0.31   c-0.84-0.89-1.01-0.39-0.77-1.85c-0.36-0.1-0.72-0.21-1.08-0.31c-0.2-0.85-1.12-1.27-1.81-1.65c-0.17,0.03-0.33,0.07-0.5,0.1   c0.06-0.06,0.12-0.11,0.17-0.17c0.25-0.34,0.32-0.56,0.1-0.89c-0.24-0.36-1.81-0.55-1.81-0.17c-0.36-0.21-0.72-0.41-1.08-0.62   c-0.39-0.9-1.05-2.17-1.85-2.78c-0.46-0.31-0.93-0.62-1.39-0.93c-0.51-0.52-1.03-1.03-1.54-1.54c-0.31,0-0.62,0-0.93,0   c-0.05-0.26-0.1-0.52-0.15-0.77c-1.01-1.01-2.19-1.87-3.16-2.72c-0.44-0.41-0.5-0.35-0.95,0.01c-0.44,0.44-1.98-1.44-2.37-1.92   c-0.16-0.04-0.32-0.08-0.48-0.12c-2.53-1.9-3.06-2.75-3.53-3.13c-0.03,0.07-0.07,0.14-0.1,0.2c0.16-0.43-0.45-0.85-0.81-1.1   c-0.86-0.66-1.71-1.32-2.57-1.98c-0.44-0.43-0.87-0.87-1.31-1.3c-0.67-0.57-1.34-1.13-2.01-1.7c-2.8-1.72-5.24-3.85-7.57-6.18   c-0.31-0.21-0.62-0.41-0.93-0.62c-0.15-0.36-0.31-0.72-0.46-1.08c0-0.26,0-0.52,0-0.77c-0.26-0.41-0.51-0.82-0.77-1.23   c-0.26-0.21-0.51-0.41-0.77-0.62c-0.66-0.87-1.21-1.67-2.01-2.47c-0.88-0.3-1.77-0.59-2.65-0.89c-0.82-0.24-1.27-1.83-1.61-2.65   c-1.19-2.42-2.38-4.85-3.58-7.27c-0.09-0.3,0.56-0.4,0.35-0.72c-0.57-0.78-1.5-1.79-2.47-1.97c-0.62-0.75-1.18-1.43-2.09-1.63   c-0.21-0.31-0.41-0.62-0.62-0.93c-0.78-0.44-1.57-0.89-2.35-1.33l-0.38,0.67c-0.53,1.82-1.06,3.63-1.6,5.45   c-0.26,0.67-0.51,1.34-0.77,2.01c-0.41,0.72-0.82,1.44-1.24,2.16c-0.51,0.51-1.03,1.03-1.54,1.54c-0.77,0.52-1.54,1.03-2.32,1.54   c-0.38,0.23-0.65,0.7-1.08,0.77c-0.72,0.72-1.44,1.44-2.16,2.16c-0.34,0.59-0.68,1.19-1.01,1.79c0.22,0.56,0.06,1.39-0.11,1.96   c0.36,0.48-0.21,2.28-0.15,3.04c-0.04,1.19-0.08,2.37-0.12,3.56c-0.08,0.51-0.49,0.86-0.46,1.39c-1.06,1.55-1.9,3.27-2.64,4.98   c-0.71,2.1-1.43,4.19-2.14,6.29c-0.31,0.93-0.62,1.85-0.93,2.78c-0.26,0.51-0.51,1.03-0.77,1.54c-0.49,1.13-0.5,2.15-1.49,2.95   c-2.15-0.2-2.34,0.39-3.79,1.64c-2.92,2.53-3.47,5.16-3.06,8.83c0,1.19,0,2.37,0,3.55c-0.34,1.57-0.46,3.2-0.31,4.79   c-0.66,0.98-1.32,1.96-1.97,2.94c-0.2,0.59-0.4,1.18-0.6,1.77c0.35,0.78,0.08,2.17-0.05,3.01l2.47-1.08   c0.35-0.52,4.28-1.64,4.77-1.68c1.09-0.05,2-0.16,3.1-0.02c0.25-0.28,0.86-0.25,1.24-0.31c0.47-0.43,1.79-0.62,2.48-0.72   c0.49-0.07,0.88,0.22,1.38,0.41c0.61-0.44,2.28,0.16,3.09,0c1.13-0.1,2.26-0.21,3.4-0.31c0.75-0.21,1.51-0.42,2.26-0.63   c0.79,0.26,1.58,0.52,2.37,0.78c3.02-0.08,6.09-0.33,9.11-0.81c0.21-0.04,0.42-0.08,0.62-0.12c-0.12-0.05,0.51-0.41,1.52-0.01   c0.01,0.05,0.02,0.11,0.02,0.16c0,0.54,0.12,0.69,0.46,1.08c1.26,1.09,2.53,2.17,3.79,3.26c0.66,0.13,1.32,0.27,1.98,0.4   c0.45,0.08,0.83-0.73,1.18-1.04c0.98-0.06,1.83-0.07,2.78-0.46c0.2-0.26,0.4-0.51,0.6-0.77c0.55-0.16,1.09-0.32,1.64-0.49   c0.95-0.35,1.9-0.71,2.85-1.06c0.96-0.11,1.59-0.06,2.47-0.46c0.77-0.04,1.53-0.07,2.3-0.11c0.57-0.08-0.05-0.89-0.29-1.28   c0.37,0.03,0.59-0.17,0.93-0.31c0.33,0.38,0.6,0.25,1.08,0.31c1.08-0.36,2.16-0.72,3.24-1.08c0.57-0.05,1.13-0.1,1.7-0.15   c0.1,0.31,1.04,0.22,1.34,0.13c0.69-0.4,1.37-0.81,2.06-1.22c0.44,0.86,2.63,0.46,3.4,0.46c0.26-0.31,0.51-0.62,0.77-0.93   c0.68,0.62,2.47-0.48,3.09-0.77c0.53-0.02,1.06-0.04,1.59-0.07c0.76-0.39,1.51-0.78,2.27-1.17c0.83-0.28,1.67-0.56,2.5-0.83   c0.09-0.03,0.19-0.06,0.28-0.09c-0.28-0.34-0.17-0.75,0.15-1.08c0.77,0,1.54,0,2.32,0c0.57,0.1,1.13,0.21,1.7,0.31   c1.39-0.53,2.31-0.57,4.48-1.85l0.13-0.56C297.91,272.41,296.14,268.99,295.29,269.84z M249.49,241.41   c-0.76,0.39-1.72,0.28-2.37,0.94c-0.29,0.29-0.22,0.77-0.62,0.93c-0.04,0.57,0.09,0.93-0.36,1.35c-0.22,0.2-0.42,0.26-0.42-0.11   c-0.05-0.15-0.1-0.31-0.15-0.46c0.04-1.3,0.5-2.62,1.24-3.71c-0.1,0-0.2,0.01-0.3,0.02c-0.8,0.08-1.66,0.65-2.02,1.53   c-0.4,0.98-0.03,2.31-1.19,2.62c-0.52,0.14-1.02-0.21-1.28,0.31c-0.14-0.18-0.28-0.37-0.42-0.55c-0.07-0.07-0.13-0.15-0.2-0.22   c0.01,0.2,0.02,0.4,0.02,0.61c0,0.49,0.44,1.25,0.9,1.4c-0.02,0.04-0.04,0.08-0.06,0.13c-0.32,0.64-0.65,1.78-1.47,1.69   c-0.36-0.03-0.72-0.05-1.09-0.08c-0.02-0.48-0.16-0.97-0.01-1.43c-0.56-0.2-0.89-0.77-1.54-0.77c-0.23-0.37-0.85-1.21-0.62-1.54   c-0.43-0.16-0.95-0.18-0.62-0.7c0.29-0.5,1.16-0.56,1.7-0.85c-0.09-0.29-0.14-0.33,0-0.62c0.16-0.32,0.28-0.41,0.15-0.77   c0.58-0.11,0.88-0.08,0.99-0.72c0.32-0.28,0.15-0.62-0.14-0.92c-0.29-0.12-0.57-0.25-0.86-0.37c0-0.42-1.18-0.76-1.54-0.77   c-0.41-0.62-0.82-1.24-1.24-1.85c-0.11,0.05-0.21,0.1-0.32,0.14c-0.35,0.32-0.58,0.57-1.07,0.47c-0.15,0.26-0.31,0.51-0.46,0.77   c-0.46,0.36-0.93,0.72-1.39,1.08c-0.1,0.15-0.21,0.31-0.31,0.46c-0.21,0.05-0.41,0.1-0.62,0.15c-0.51,0.31-1.03,0.62-1.54,0.93   c0.05-0.05,0.1-0.1,0.15-0.15c0.9-1.04,1.81-2.09,2.71-3.13c-0.44-0.24-0.88-0.48-1.32-0.73c0.08-0.28,0.15-0.56,0.23-0.84   c-0.17-0.14-0.59-0.54-0.69-0.52c-0.51,0.13-1.03,0.27-1.54,0.4c-0.16-0.04-0.31-0.08-0.47-0.12c0-0.35-0.27-0.96-0.66-0.7   c-0.04,0.16-0.09,0.32-0.11,0.49c0,0.12,0,0.25,0,0.37c-0.02-0.13-0.02-0.25,0-0.37c0-0.13,0-0.27,0-0.4   c0.04-0.04,0.07-0.06,0.11-0.09c0.06-0.23,0.11-0.46,0.05-0.69c0.31-0.19,0.6-0.13,0.77-0.46c-0.31,0.63-0.45,1.16,0.15,1.54   c0.44-0.21,1.05-0.32,1.24-0.77c0.55,0.09,1.2,0.4,1.7,0.15c0.39,0.54,0.78,1.08,1.17,1.63c0.29-0.23,0.24-0.28,0.69-0.24   c0.36-0.5,0.53-1.12,1.2-1.04c0.58,0.06,0.68,0.66,1.27,0.27c0.15,0.31,0.31,0.62,0.46,0.93c0.21,0.21,0.41,0.41,0.62,0.62   c1.08,0.41,2.16,0.82,3.24,1.23c0.27-0.34,0.75-0.75,0.62-1.23c0.72-0.21,1.44-0.41,2.16-0.62c0-0.35-0.72-1.08-0.65-1.09   c0.88-0.1,1.77-0.2,2.65-0.3c0.46,0.05,0.93,0.1,1.39,0.15c0.34,0.03,0.68,0.06,1.02,0.09c0.54,0.34,0.56,1,0.56,1.56   c0.16,1.1,0.32,2.2,0.49,3.3C249.57,240.22,249.78,241.26,249.49,241.41z M270.1,266.91c-0.82-0.42-1.63-0.83-2.45-1.25   c-0.35,0.03-0.69,0.05-1.04,0.08c-0.37-0.02-0.75-0.05-1.12-0.08c-0.43-0.3-1.43-0.61-1.24-1.23c-0.68-0.19-1.4,0.02-1.73-0.68   c-0.15-0.37-0.16-0.82,0.03-1.17c-0.28-0.5-1.13-1.38-0.31-1.65c0.48-0.17,0.63-0.11,0.92-0.61c0.47-0.17,0.93-0.34,1.4-0.52   c0.05,0.41,0.1,0.82,0.15,1.24c0.41,0.41,0.88,0.52,1.28,0.99c0.14-0.02,0.28-0.04,0.42-0.06c-0.02,0.04-0.04,0.08-0.06,0.12   c-0.16,0.3-0.29,0.33-0.09,0.65c-0.3,0.14-0.6,0.27-0.91,0.41c0.1,0.32,0.2,0.37-0.02,0.67c0.62,0.32,0.87,0.42,1.54,0.46   c0.62,0.21,1.24,0.41,1.85,0.62c0.57,0.72,1.07,1.49,1.7,2.16C270.32,267.01,270.21,266.96,270.1,266.91z"/>
            <circle cx="287.34" cy="270.76" r="1.586"/>
        </g>
        <g id="__Bağlar">
            <path d="   M219.15,313.02c-1.44,0.27-2.87,0.55-4.31,0.82c-0.36,0-0.72,0-1.08,0c-0.31,0.05-0.62,0.1-0.93,0.15   c-0.98-0.1-1.96-0.21-2.94-0.31l-0.23-0.08c-1.64-1.64,2.56-8.48,2.71-11.5c0.08-1.68,0.17-4.2-0.43-5.75   c-0.81-2.08-2.19-1.97-4.21-1.97l-1.69-0.61c0.44-0.01,0.56-0.66,0.61-1.09c-0.01-0.25-0.02-0.5-0.03-0.74   c0.16-0.52,0.33-1.05,0.49-1.57c0-0.42,0.01-0.83,0.01-1.24c0-1.09-0.32-2.14,0.3-2.15l2.47-1.08c0.35-0.52,4.28-1.64,4.77-1.68   c1.09-0.05,2-0.16,3.1-0.02c0.25-0.28,0.86-0.25,1.24-0.31c0.47-0.43,1.79-0.62,2.48-0.72c0.49-0.07,0.88,0.22,1.38,0.41   c0.61-0.44,2.28,0.16,3.09,0c1.13-0.1,2.26-0.21,3.4-0.31c0.75-0.21,1.51-0.42,2.26-0.63c0.79,0.26,1.58,0.52,2.37,0.78   c3.02-0.08,6.09-0.33,9.11-0.81c0.21-0.04,0.42-0.08,0.62-0.12c-0.12-0.05,0.51-0.41,1.52-0.01c0.01,0.05,0.02,0.11,0.02,0.16   c0,0.54,0.12,0.69,0.46,1.08c1.26,1.09,2.53,2.17,3.79,3.26c0.66,0.13,1.32,0.27,1.98,0.4c0.45,0.08,0.83-0.73,1.18-1.04   c0.98-0.06,1.83-0.07,2.78-0.46c0.2-0.26,0.4-0.51,0.6-0.77c0.55-0.16,1.09-0.32,1.64-0.49c0.95-0.35,1.9-0.71,2.85-1.06   c0.96-0.11,1.59-0.06,2.47-0.46c0.77-0.04,1.53-0.07,2.3-0.11c0.57-0.08-0.05-0.89-0.29-1.28c0.37,0.03,0.59-0.17,0.93-0.31   c0.33,0.38,0.6,0.25,1.08,0.31c1.08-0.36,2.16-0.72,3.24-1.08c0.57-0.05,1.13-0.1,1.7-0.15c0.1,0.31,1.04,0.22,1.34,0.13   c0.69-0.4,1.37-0.81,2.06-1.22c0.44,0.86,2.63,0.46,3.4,0.46c0.26-0.31,0.51-0.62,0.77-0.93c0.68,0.62,2.47-0.48,3.09-0.77   c0.53-0.02,1.06-0.04,1.59-0.07c0.76-0.39,1.51-0.78,2.27-1.17c0.83-0.28,1.67-0.56,2.5-0.83c0.09-0.03,0.19-0.06,0.28-0.09   c-0.28-0.34-0.17-0.75,0.15-1.08c0.77,0,1.54,0,2.32,0c0.57,0.1,1.13,0.21,1.7,0.31c1.39-0.53,2.31-0.57,4.48-1.85l0.13-0.56   c0.54,1.66,1.39,2.11,2.52,3.39c0.74,0.84,0.62,2.21,0.85,3.29c0.23,1.07,0.49,2.26,1.21,3.01c0.35,0.36,1.23,0.45,1.5,0.9   c0.32,0.55,0.01,1.49,0.24,2.09c-0.16,0.07-0.1,0.15-0.17,0.28l0.51-0.05c-0.16,0.21-0.32,0.41-0.48,0.62   c-0.43,0.65-0.29,1.5-0.91,2.16c0.05,0.56,0.09,1.13,0.14,1.69c-0.03,0.62-0.04,1.58,0.48,2.01c0.06,0.62,0.12,1.25,0.18,1.87   c0.2,0.21,0.51,0.61,0.87,1.02l-0.18,0.1c-0.25,0.17-0.51,0.33-0.76,0.5c-0.58,0.46-1.35,0.61-1.93,1.1   c0.11,0.56,0.22,1.12,0.33,1.68c0.13,0.6,0.54,0.64,0.26,1.28c0.31,0.11,0.39,0.14,0.46,0.46c-0.01,0.77-0.03,1.55-0.04,2.32   c0.05,0.41-0.14,0.65-0.37,0.99c-0.17,0.25-0.75-0.15-0.89-0.3c-0.29,0.03-0.58,0.05-0.87,0.08c0.62,0.62,1.36,1.5,1.24,2.47   c-0.08,0.66-0.42,1.01-0.31,1.7c-0.08,0.37,0.2,0.66,0.46,0.93c0.88-0.23,1.61,0.7,2.02,1.33c0.21,0.32-0.22,0.95,0.05,1.41   c0.35,0.56,0.71,0.54,1.32,0.66c0.26,0.15,0.51,0.31,0.77,0.46c0.33-0.29,1.78-0.35,2.16-0.16c0.1,0.05,0.21,0.1,0.31,0.16   c-0.05,0.12-0.1,0.24-0.15,0.36c0.46,1.18-0.21,1.78-0.78,2.73c0.15,0.77,0.29,1.54,0.43,2.32c0.37,2.11,0.66,4.2,0.94,6.33   c0.04,0.32-0.61,0.58-0.91,0.62c-1.03,0.22-2.06,0.44-3.09,0.66c-1.17,0.24-0.73,3.34-0.9,4.29c-0.06,0.46-0.96,0.06-1.25-0.01   c-0.31,0-0.62,0-0.93,0c-0.47,0.4-1.41,0.09-2.05,0.4c-0.3-0.08-0.59-0.17-0.89-0.25c-0.21,0.39-0.66,0.35-1.08,0.46   c-0.57,0.36-1.13,0.72-1.7,1.08c-0.98,0.77-1.96,1.54-2.93,2.32c-0.58,0.05-1.09,0.41-1.54,0.77c0.04,0.44-0.27,0.69-0.46,1.08   c0.26-0.47-0.23-0.77-0.41-1.25c-0.07-0.77-0.14-1.54-0.21-2.3c-0.15-1.75-0.31-3.5-0.46-5.25c-0.21-0.7-0.29-1.58-0.15-2.32   c0.35-0.52,0.69-1.04,1.04-1.56c0.17-0.36,0.33-0.71,0.5-1.07c0.93-0.33,2.06-1.64,2.73-1.47c0.4,0.04,2.03,1.91,2.1,2.37   c0.37,0.31,0.64,0.51,0.42,0.95c0.15,0.21,0.31,0.41,0.46,0.62c0.58,0.58,1.71,0.75,2.48,0.9c0.44,0.09,0.89-0.57,1.08-0.9   c0.8-0.4,1.61-0.81,2.47-0.62c0-1.02,0.3-2.02,0.71-3c-0.01-0.59-0.01-1.18-0.02-1.77c-0.03-1.09-1.29-1.19-2.08-1.71   c-0.31-0.36-0.62-0.72-0.93-1.08c-0.63-0.01-0.99-0.51-1.54-0.62c-0.88-0.18-1.39,0.34-2.17,0.44c-0.45,0.08-0.73-1.36-0.81-1.72   c-1.51-1.09-1.76-3.1-2.73-4.59c-0.66-0.93-3.48,0.16-4.64,0.16c-0.81,0.53-0.44,1.62-0.93,2.32c-0.2,0.13-0.4,0.27-0.59,0.4   c-0.48,0.64-1.29,1.41-2.09,1.49c-0.53,0.73-1.38,1.08-2.04,1.53c-0.25,0.16-0.5-0.01-0.83-0.02c-0.26-0.01-0.44-0.57-0.56-0.81   c-0.27-0.61-0.55-1.21-0.83-1.82c-0.21-0.26-0.41-0.51-0.62-0.77c-0.33-0.08-0.67-0.16-1-0.24c-0.68-0.84-0.67-3.74-0.08-4.62   c-0.18-0.71-0.09-1.17,0.05-1.86c-0.12-1.07-0.53-1.02-1.44-1.14c-0.23-0.03-1.77,1.19-2,1.52c-0.51,0.82-1.03,1.65-1.54,2.47   c-0.57,0.51-1.13,1.03-1.7,1.54c-0.46-0.09-0.91,0.16-1.34,0.36c-0.41,0.21-0.73-0.59-1.17-0.72c-0.97,0.1-1.22,0.23-1.97,0.83   c-0.31,0.05-0.62,0.1-0.93,0.15c-0.52-0.1-1.04-0.19-1.56-0.29c-0.26-0.04-0.29-0.42-0.35-0.65c-0.19-0.82-0.58-1.34-0.9-2.13   c-0.04-0.11-0.09-0.22-0.13-0.32c-0.18,0.12-1.96-0.3-2.27-0.36c-0.88-0.24-0.55-1.18-0.35-1.8c-0.31,0.08-0.19,0.13-0.37-0.07   c-0.38-0.38-0.97-0.26-1.49-0.24c-1.7,0.08-3.3,0.98-4.63,2.01c-0.75,0.3-1.5,0.59-2.25,0.89c-1.89,0.78-4.33,1.31-4.69,3.74   c-0.31,0.12-0.62,0.24-0.94,0.36c-0.67,0.08-2.33-0.01-2.92,0.26c-1.39,0.72-2.78,1.44-4.17,2.16c-0.67,0.21-1.34,0.41-2.01,0.62   c-0.3-0.27-0.83-0.15-1.24-0.15c-0.51-0.41-1.03-0.82-1.54-1.24c-0.98-1.02-2.32-2.08-3.71-2.47c-0.68,0.04-1.36,0.07-2.04,0.11   c-1.95-0.13-4.74,0.54-6.61,1.13C222.9,311.3,220.09,312.72,219.15,313.02z"/>
            <circle cx="293.98" cy="282.73" r="1.586"/>
        </g>
        <g id="__Eğil">
            <path d="M290.31,169c-0.02,0.58-0.02,1.1-0.04,1.68   c0.1,0.42,0.78,0.76,1.16,1.1c-0.26,0.55,0.74,1.81,1.08,2.32c-0.05,0.26-0.1,0.51-0.15,0.77c-0.89-0.79-1.83,0.75-2.21,1.44   c-0.24,0.51,0.08,1.03,0.22,1.54c0.48,1.75,0.85,2.42,2.31,3.55c0.1,0.09,0.2,0.18,0.29,0.27c-0.36,0.72-0.54,1.33-0.62,2.16   c0.55-0.07,0.88,0.73,1.24,1.08c0,0.8-0.15,1.27-0.31,2.01c-0.29,0.16-0.34,0.47-0.46,0.77c-0.12-0.03-0.23-0.06-0.35-0.09   c-0.61-1.11-0.52-1.56-0.27-2.85c-0.53-0.08-0.45-0.18-0.7-0.59c-0.08-0.11-0.15-0.22-0.23-0.34c-0.28,0.21-0.68,0.09-0.93-0.15   c-0.91,0.29-1.89,0.74-2.63,0c0.54-0.36,0.12-0.86,0-1.39c-0.31,0-0.62,0-0.93,0c-0.21,0.67-1.25,1.08-1.87,1.38   c-0.5,0.27-0.17-0.12-0.54-0.29c-0.13,0-0.2-0.21-0.33-0.21c-0.24-0.22-0.45-0.44-0.69-0.66c0-0.65-0.41-0.76-0.73-1.31   c-0.02-0.14-0.04-0.28-0.07-0.42c-0.18-0.27-0.14-0.41-0.46-0.25c-0.88-0.49-1.57-0.02-2.4,0.35c-0.26,0.05-0.51,0.1-0.77,0.16   c-0.67,0-1.34,0-2.01,0c-1.2-0.18-2.53,0-3.71-0.46c-0.2-0.32-0.32-0.38-0.26-0.77c-0.94-0.86-0.47-1.88-0.21-2.94   c-0.37,0.02-0.46-0.15-0.77-0.31c-0.41,0.21-0.59,0.22-1,0.42c0.06-0.22-0.6-1.24-0.69-1.66c0.24-0.48-0.06-1.33-0.15-1.85   c0.2-0.31,0.12-0.57,0.15-0.93c0.17-1.65-1-2.2-2.01-3.24c-0.29-0.3-1.22-1.33-1.59-1.13l-0.06-0.04c0.78-0.27,1.58-0.46,2.42-0.37   c0.64-0.59,2.4-0.36,3.24-0.15c0.48-0.72,2.24-0.18,2.96-0.11c0.45-0.07,0.91-0.14,1.36-0.2c0.82,0.05,1.65,0.1,2.47,0.15   c0.98,0.26,1.96,0.51,2.93,0.77c0.6-0.55,2.28,0.07,2.93,0.15c0.51,0,1.03,0,1.54,0c0.48,0.45,1.27,0.29,1.87,0.28   c0.51,0.1,1.02,0.21,1.53,0.31L290.31,169z"/>
            <path d="M313.05,215.48c-0.69,0.28-2.23,0.19-2.98,0.06   c-1.05-0.18-2.71-0.67-3.66-1.14c-0.93-0.47-1.39-0.85-2.48-0.62c-1.1,0.23-2.14,0.53-3.32,0.54c-1.27,0.01-2.28-0.21-3.56-0.08   c-0.57,0.06-1.39,0.03-1.95,0.23c-0.49,0.18-1.02,0.64-1.44,0.93c-1.1,0.74-2.23,1.23-3.4,1.78c-1.13,0.53-2.23,1.08-3.38,1.72   c-0.6,0.33-0.94,0.5-1.66,0.6c-0.62,0.09-1.12,0.55-1.67,0.55c-0.28,0.42-0.81,0.56-1.09,0.99c-0.3,0.45-0.42,0.94-0.85,1.3   c-0.89,0.75-1.77,0.88-2.85,1.1c-1.1,0.22-1.92,0.53-2.93,0.85c-0.97,0.31-2.01,0.15-3,0.55c-0.17,0.35-1.07,0.63-1.48,0.84   c-0.48,0.25-1.08,1.2-1.62,1.16c-1.09-0.09-2.22-1.4-3.17-1.85c-0.72-0.35-1.15,0.1-1.79,0.24c-0.6,0.13-1.38,0-1.99,0   c-0.64,0-1.24-0.11-1.85-0.08c-0.62,0.03-1.3,0.31-1.87-0.06c-0.74-0.48-1.14-1.87-0.99-3.41c0.06-0.61-0.62-3.48-0.09-3.87   c0.24-0.6-0.35-1.22-0.54-1.77c-0.2-0.57-0.03-1.33-0.44-1.78c-1.78-1.93-2.4-4.71-3.78-6.17c-0.89-0.94-2.81-1.03-4.01-1.39   c-1.1-0.33-3.17-1.08-4.48-1.31c-0.31-0.05,0.2-0.74,0.19-1.12c-0.03-1.08,0.64-2.31,0.9-3.35c0.3-1.2,0.53-2.41,0.68-3.64   c-0.05-0.62-0.1-1.24-0.15-1.85c-0.26-0.82-0.52-1.65-0.77-2.47c-1.08-1.9-2.16-3.81-3.24-5.71c-0.46-1.03-0.93-2.06-1.39-3.09   c0-0.72-0.85-2.11-1.24-2.78c0.31-0.33,0.09-0.97,0.12-1.39c0.17-1.03,0.33-2.06,0.5-3.08c0.43-0.84,0.86-1.69,1.29-2.53   c0.39-0.8,0.79-1.6,1.18-2.41l0.37-0.5c0.08,0.17,2.6,0.34,3.05,0.27c0.69-0.1,1.64,0.02,2.29,0.23c0.26-0.36,0.95-0.45,1.39-0.31   c1.48-0.74,3.1-0.98,4.79-1.08c0.87-0.76,3.54-0.57,4.63-0.46c0.48-0.66,2.28-0.85,3.09-0.93c0.32-0.4,1.21-0.32,1.7-0.46   c0.62-0.1,1.35-0.24,1.97-0.35l0.11-0.05c0.18,0.08,0.36,0.16,0.54,0.24c0.15,0.97,2.1,1.79,2.74,2.64   c0.57,0.82-0.02,1.07,0.04,1.83c0.15,0.62,0.31,1.24,0.46,1.85c-0.24,0.65,0.1,1.45,0.5,1.97c0.39,0.48,0.63,0.38,1.2,0.34   c0.15,0.21,0.31,0.41,0.46,0.62c-0.04,0.98-0.09,1.95-0.13,2.93c0.1,0.13,0.21,0.27,0.31,0.4c0.04,0.07,0.09,0.15,0.13,0.22   c-0.14-0.29,0.02-0.49,0.15-0.77c0.36,0.46,0.72,0.93,1.08,1.39c1.17-0.72,2.43,0.07,3.71-0.15c1.68-0.3,2.86-1.58,4.79-0.62   c-0.25,0.06-0.5,0.13-0.76,0.19c0.3-0.01,0.61-0.02,0.91-0.04c0.41,0.51,0.82,1.03,1.24,1.54c0.56,0.5,1.11,1.01,1.67,1.51   c0.22-0.15,0.44-0.29,0.66-0.44c0.2-0.15,0.41-0.3,0.61-0.45c0.46,1.36,3.23,1.28,4.48,1.24c0.35,0.35,0.06,1.1,0,1.54   c0.36,0.79,0.71,1.58,1.07,2.37c0.06,0.08,0.11,0.17,0.17,0.25c0.41-0.22,0.81-0.44,1.22-0.66c0.77-1.45,1.09-2.8,0.93-4.48   c-0.15-0.19-0.3-0.38-0.44-0.57c0.31-0.4,0-1.44,0-2.01c-0.5-0.14-0.73-0.7-1.08-1.08c-0.31-0.21-0.62-0.41-0.93-0.62   c-0.05-0.54-0.6-0.59-0.77-1.08c-0.1-0.26-0.21-0.51-0.31-0.77c0.13-0.34-0.05-0.58-0.15-0.93c0.46-0.19,0.44-0.51,0.69-0.93   c0.21-0.29,0.16-0.36,0.49-0.14c0.23-0.06,0.45-0.12,0.68-0.17c0.09-0.36,0.35-0.52,0.62-0.77c0-0.74-0.55-1.06-0.77-1.7   c-0.28-0.83-0.33-1.83-1.15-2.43c0.08-0.53,0.15-1.06,0.23-1.59c-0.01-0.05-0.02-0.09-0.02-0.14l0.18-0.01   c1.89,0.53,2.56,3.81,1.73,5.3c0.1,0.12,0.18,0.28,0.28,0.42c-0.41,0.53,0.29,1.51,0.56,1.95c0.49,0.73,1.36,0.67,2.21,0.83   c0.14,0.12,0.28,0.24,0.42,0.36c0.9,0.47,0.76,2.24,1.27,3.04c0.67,0.46,1.33,0.93,2,1.39c0.83,0.87,1.65,1.75,2.48,2.62   c1.39,0.88,2.78,1.75,4.17,2.63c0.57-0.05,1.13-0.1,1.7-0.15c0.39-0.61,1.45-0.74,2.02-0.85c1.45-0.28,1.2,0.37,2.15,1   c0.51,0.31,1.03,0.62,1.54,0.93l-0.31,0.16c-1.32,1.71-2.62,3.43-3.71,5.25c-0.41,1.39-0.82,2.78-1.24,4.17   c0.03,0.61,0.06,1.23,0.09,1.84c0.16,0.55,0.32,1.11,0.48,1.66c0.31,0.72,0.62,1.45,0.93,2.18c0.3,0.63,0.6,1.27,0.91,1.9   c0.49,0.48,0.98,0.96,1.47,1.45c0.49,0.14,0.85,0.65,1.21,1c0.86,0.82,3.1,2.85,2.74,4.16c-0.19,0.57-0.39,1.14-0.58,1.71   c-0.26,0.26-0.52,0.52-0.77,0.77C314.6,214.87,313.82,215.17,313.05,215.48z"/>
            <circle cx="272.36" cy="182.52" r="1.586"/>
        </g>
        <g id="__Hazro">
            <path d="   M390.26,196.95c0.24-0.24,0.15,1.35,0.27,1.71c0.32,0.92,0.64,1.85,0.96,2.78c0.36,0.51,0.72,1.03,1.08,1.54   c0.82,0.51,1.65,1.03,2.47,1.54c1.04,0.59,2.03,1.03,3.09,1.54c0.57,1.13,1.13,2.26,1.7,3.4c-0.23,0.87,0.2,2.1,0.46,2.93   c-0.22,0.46,0.41,2.24,0.62,2.78c0.46,0.01,0.85,0.49,1.24,0.77c0.62,0.04,3.33,2.95,3.33,2.95c1.22-1.02,2.36-1.98,3.31-3.26   c0.36-0.46,0.72-0.93,1.08-1.39c0-0.97-0.3-1.99,0.25-2.88c0.43-0.38,0.87-0.76,1.3-1.14c0.22-0.83,1.22-1.5,1.89-1.94   c0.13,0,0.27,0.01,0.41,0.01c1.62-0.25,3.53,0.42,4.81,1.47c0.46,0.07,0.92,0.14,1.38,0.21c1,0.27,2.25,0.31,3.25,0.1   c0.5,0.5,0.99,0.44,1.71,0.28c1.5-0.31,2.97-1.09,4.62-0.75c0.93,0.31,1.85,0.62,2.78,0.93c0.41,0.05,0.82,0.1,1.24,0.15   c0.72-0.05,1.44-0.1,2.16-0.15c1.08-0.46,2.16-0.93,3.24-1.39c0.06-0.19,1.14-1.12,1.39-1.39c0.41-0.82,0.82-1.65,1.24-2.47   c0.5-1.01,1-2.02,1.5-3.03c0.33-0.48,0.66-0.96,0.99-1.43c0.41-0.52,0.81-1.04,1.22-1.56c0.57-0.82,1.13-1.65,1.7-2.47   c1.44-1.49,2.88-2.99,4.32-4.48c1.75-1.39,3.5-2.78,5.25-4.17c0.72-0.82,1.44-1.65,2.16-2.47c0.1-0.26,0.21-0.52,0.31-0.77   c0.06-0.82,0.12-1.65,0.17-2.47c-0.06-2.03,0.06-4.01-0.33-6.02c-0.1-0.26-0.21-0.51-0.31-0.77c-0.54-0.14-0.54-0.7-0.93-1.08   c-0.72-0.72-1.44-1.44-2.16-2.16c-3.07-1.2-7.42-1.42-9.46-4.32c-0.47-0.64-0.3-2.73-0.27-3.56c-0.09-0.78-0.19-1.55-0.28-2.33   c0.59-2.77-0.18-0.99-0.8-1.07c-1.38,0.33-2.76,0.66-4.14,0.99c-0.8,0.35-1.88,0.88-2.19,1.79c-0.31,0.26-0.62,0.51-0.93,0.77   c-0.81,0.22-3.38,0.66-4.01,0.31c-1.01,0.41-2.19,0.49-3.24,0.31c-0.28,0.06-0.55,0.13-0.83,0.19c-0.54,0.08-1.09,0.17-1.63,0.25   c-0.5,0-1,0.01-1.51,0.01c-0.63-0.26-1.27-0.51-1.9-0.77c-1.65-1.18-3.29-2.37-4.94-3.55c-0.56-0.18-1.13-0.35-1.69-0.53   c-0.28,0.11-0.71,0.11-0.94-0.09c-0.84,0.37-1.68,0.75-2.52,1.12c-0.76,0.68-1.52,1.37-2.29,2.05c-0.56,0.44-1.12,0.87-1.67,1.31   c-1.36,0.38-2.66,1.02-4.02,1.37c-0.36,0.16-0.71,0.32-1.07,0.49c-0.26,0-0.51,0-0.77,0c-0.44-0.24-0.89-0.49-1.33-0.73   c-0.58-0.18-1.08-0.04-1.27-0.61l-0.33,0.28c-0.77,0.05-1.54,0.09-2.32,0.14c-1.29-0.39-3.2-0.77-4.17-1.7   c-0.6-0.73-1.2-1.47-1.8-2.2c-0.38-0.25-0.76-0.49-1.13-0.73c-1-0.06-2.55-0.29-3.19,0.49c-1.32,1.67-2.3,3.78-3.08,5.8   c-0.33,0.73-0.66,1.46-0.98,2.2c0.05,0.77,0.11,1.55,0.16,2.32c0.3,0.62,0.96,1.33,0.93,2.01c1.18,0.8,2.35,2.17,3.01,3.43   c0.76,0.4,1.22,1.33,1.22,2.11c-0.07,0.87-0.38,1.83,0.1,2.64c-0.31,0.62-0.66,1.9-0.34,2.55c0.5,0.92,1.09,0.94,1.88,1.62   c0.46,0.39,0.67,1.16,1.24,1.39c0.1,0.25,0.2,0.5,0.29,0.75c0.23,0.33,0.71,0.61,0.54,1.02c0.18,0.54,0.35,1.08,0.53,1.62   c-0.09,0.38-0.26,0.72-0.12,1.09c-1.07,1.14-1.69,2.57-2.93,3.55c-0.31,0.36-0.62,0.72-0.93,1.08L390.26,196.95z"/>
            <circle cx="427.86" cy="182.05" r="1.586"/>
        </g>
        <g id="__Silvan">
            <path d="    M517.96,182c-0.91,0.18-1.84-0.25-2.78-0.15c-2.21,0.35-4.43,0.7-6.64,1.05c-0.83,0.4-1.65,0.8-2.48,1.21    c-1.23,0.48-2.87,1.86-4.16,0.95l0.34,0.12c0.04,0.06,0.08,0.13,0.13,0.19c0.29,0.01,0.45,0.4,0.62,0.62    c0.83,0.19,1.3,1.34,1.79,1.91c0.4,0.47,0.12,1.26-0.06,1.83c-0.09,0.28,2.07,1.07,2.43,1.21c0.02,0.33,0.72,1.48,1.07,1.65    c0.26,0.07,0.52,0.14,0.79,0.21c0.21,0.1,0.41,0.21,0.62,0.31c0.12,0.51,1.16,0.79,1.54,1.08c0.52,0,1.03,0,1.54,0    c0.26,0.15,0.51,0.31,0.77,0.46c0.13,0.51,0.47,0.89,0.62,1.54c0.31-0.04,0.42,0.23,0.62,0.46c0.41,0.44,0.3,0.18,0.61-0.3    c-0.95-1.85-0.54-2.01,0.62-3.4c-0.14-0.67-0.28-0.89-0.77-1.39c-0.26-0.57-0.52-1.13-0.77-1.7c-0.59-0.87,0.53-2.3,0.93-3.09    c-0.14-0.47-0.28-0.94-0.42-1.41c-0.03-0.1,0.44-0.36,0.63-0.53c0.15-0.05,0.3-0.1,0.44-0.15c0.91,0.12,0.94,1.63,0.89,2.4    c-0.49,0.55-0.53,1.93-0.46,2.63c0.24,0.19,0.32,0.64,0.33,0.96c0.06,1.39-0.29,2.45-1.03,3.57c-0.02,0.04-0.05,0.07-0.07,0.11    c0.41,0.06,0.49,0.47,0.77,0.77c-0.31,0.39,0.58,0.56,0.93,0.62c0.18,0.58,0.48,0.87,0.86,1.32c-0.21,0.15-0.41,0.31-0.62,0.46    c-0.7,0.57-1.42,0.53-2.22,0.78c-0.56,0.21-0.57,2.28-0.53,2.83c0.04,0.54,0.7,0.65,1.15,0.88c0.33,0.17,0.56-0.33,0.74-0.55    c0-0.31,0.38-0.46,0.62-0.62c0.15-0.67,1.26-1.24,1.87-1.5c0.44,0.17,0.88,0.34,1.32,0.52c0.39,0.22,0.38,0.58,0.61,1.01    c-0.03,0.3-0.06,0.6-0.09,0.89c-0.11,0.08-0.22,0.17-0.33,0.25c-0.45,0.88-1.15,1.65-0.83,2.73c0.03,0.09,0.05,0.17,0.08,0.26    c0.26-0.1,0.51-0.21,0.77-0.31c0.14-0.78,0.29-1.56,0.43-2.34c0.08-0.33,0.53,1.59,0.62,1.8c0.06-0.06,0.12-0.13,0.18-0.19    c0.84,0,1.39-0.12,2.18-0.33c0.05-0.01,0.1-0.02,0.15-0.03c-0.09-0.1-0.19-0.21-0.28-0.31c0.12-0.45,0.23-0.9,0.35-1.35    c0.55-0.84,1.45-1.35,2.3-1.92c-0.04-1.11-0.09-2.22-0.13-3.33c-0.46-0.65-1.32-1.6-2.14-1.85c-0.31-0.13-0.61-0.25-0.92-0.38    c-0.37-0.28-0.41-0.73-0.87-0.9c0-0.46,0-0.93,0-1.39c-1.42-2.4-3.05-4.61-3.84-7.28c-0.16-0.77-0.33-1.53-0.49-2.3    c-0.01-0.24-0.09-0.77-0.3-0.79V182z"/>
            <path d="    M395.7,232.85c0.41-0.23,0.81-0.51,1.19-0.84c1.03-0.91,1.84-2.06,2.47-3.24c0.82-0.98,1.63-1.97,2.45-2.95    c1.36-1.36,2.83-3.42,3.2-5.24c0.06-0.64,0.12-1.27,0.18-1.91l0.28,0.23c1.22-1.02,2.36-1.98,3.31-3.26    c0.36-0.46,0.72-0.93,1.08-1.39c0-0.97-0.3-1.99,0.25-2.88c0.43-0.38,0.87-0.76,1.3-1.14c0.22-0.83,1.22-1.5,1.89-1.94    c0.13,0,0.27,0.01,0.41,0.01c1.62-0.25,3.53,0.42,4.81,1.47c0.46,0.07,0.92,0.14,1.38,0.21c1,0.27,2.25,0.31,3.25,0.1    c0.5,0.5,0.99,0.44,1.71,0.28c1.5-0.31,2.97-1.09,4.62-0.75c0.93,0.31,1.85,0.62,2.78,0.93c0.41,0.05,0.82,0.1,1.24,0.15    c0.72-0.05,1.44-0.1,2.16-0.15c1.08-0.46,2.16-0.93,3.24-1.39c0.06-0.19,1.14-1.12,1.39-1.39c0.41-0.82,0.82-1.65,1.24-2.47    c0.5-1.01,1-2.02,1.5-3.03c0.33-0.48,0.66-0.96,0.99-1.43c0.41-0.52,0.81-1.04,1.22-1.56c0.57-0.82,1.13-1.65,1.7-2.47    c1.44-1.49,2.88-2.99,4.32-4.48c1.75-1.39,3.5-2.78,5.25-4.17c0.72-0.82,1.44-1.65,2.16-2.47c0.1-0.26,0.21-0.52,0.31-0.77    c0.06-0.82,0.12-1.65,0.17-2.47c-0.06-2.03,0.06-4.01-0.33-6.02c-0.1-0.26-0.21-0.51-0.31-0.77c-0.54-0.14-0.54-0.7-0.93-1.08    c-0.72-0.72-1.44-1.44-2.16-2.16c-3.07-1.2-7.42-1.42-9.46-4.32c-0.47-0.64-0.3-2.73-0.27-3.56c-0.09-0.78-0.19-1.55-0.28-2.33    c0.05-2.77,1.71-5.41,4.15-6.63c1.32-0.66,2.67-0.51,4.04-0.85l0.32,0.18c-0.15,0.2,0.55,0.47,0.7,0.56    c0.68,0.41,1.36,0.83,2.04,1.25c1.42,0.69,2.39,1.89,3.86,2.57c1.77,0.12,3.55,0.24,5.33,0.36c0.69,0.14,1.39,0.27,2.08,0.41    c1.86,0.68,3.87,0.97,5.71,1.54c1.39,0.87,2.78,1.75,4.17,2.63c1.39,1.23,2.78,2.47,4.17,3.71c0.62,0.72,1.24,1.44,1.85,2.16    c1.09,1.09,2.16,2.03,3.09,3.24c0.81-0.14,1.87,1.13,2.32,1.7c1.03,1.19,2.06,2.38,3.08,3.57l0.67,0.54    c-0.41-0.09-0.82-0.17-1.23-0.26c-0.38-0.15-0.76-0.31-1.14-0.46c-0.29-0.47-0.59-0.94-0.88-1.41c-0.79-0.68-1.63-0.49-2.4-0.98    c0.17,0.28,0.33,0.57,0.5,0.85c0.34-0.03,0.68-0.06,1.02-0.09c0.72,0.61,1.52,2.42,2.38,2.56c-0.04,0.61,0.17,0.97,0.31,1.54    c0.46,0.52,0.93,1.03,1.39,1.54c-0.26,0-0.51,0-0.77,0c-0.05,0.26-0.1,0.52-0.15,0.77c-0.31,0.15-0.62,0.31-0.93,0.46    c-0.46-0.36-0.93-0.72-1.39-1.08c-0.07,0.71-0.05,1.12,0.62,1.54c-0.12,0.39-0.41,0.79,0.17,0.77c0.1,0.05,0.2,0.1,0.29,0.15    c0.98-0.92,1.19-1.17,2.46-0.48c0.28,0.3,0.55,0.45,0.94,0.33c-0.07,0.14-0.15,0.27-0.22,0.41c-0.09,0.17-0.21,0.36,0.06,0.36    c0.49,0.08,0.97,0.15,1.46,0.23c0.47,0.5,0.7,1.61,1.48,1.77c-0.21,0.14-1.17,0.57-0.98,0.68c0.17,0.14,0.34,0.27,0.52,0.41    c0.36,0,0.72,0,1.08,0c0.51,0.26,1.03,0.52,1.54,0.77c-0.25,0.1-1.65,0.73-1.35,1.14c0.08,0.09,0.16,0.18,0.25,0.27    c0.04,0.25,0.6-0.27,0.64-0.48c0.05,0.63,0.09,1.25,0.14,1.88c0.51,0.1,1.32-0.27,1.55-0.03c0.34,0.37,1.19,2.03,1.38,1.97    c0.81-0.19,1.02-0.74,1.71-1.2c0.05,0.13,0.11,0.27,0.16,0.4c0.14,0.32-0.14,0.37,0.29,0.37c0.67,0.05,1.35,0.1,2.03,0.15    c0.36-0.11,0.72-0.21,1.09-0.32c0.46-0.05,0.92-0.09,1.39-0.14c0.32,0.21,0.38,0.39,0.77,0.31c-0.22,0.45-0.5,0.75-0.08,1.15    c0.08,0.13,0.15,0.26,0.23,0.4c0.82,0.05,1.65,0.1,2.47,0.16c0.47,0.28,0.96,0.44,0.93,1.08c0.62,0.43,0.91,0.69,1.24,1.39    c-0.53,0.98-0.49,2.01-0.14,2.99c0.49,0.69,1.39,1.53,2.25,1.86c0.25,0.05,0.51,0.1,0.76,0.16c0.59-0.16,1.03-0.2,1.39,0.31    c0.02,0.13,0.04,0.27,0.06,0.4c0.5,0.52,0.75,0.53,0.93,1.24c0.26,0.26,0.71,0.58,0.77,0.93c0.52,0.21,1.47,0.3,1.72,0.78    c0.1,0.05,0.19,0.1,0.29,0.14c-0.35,0.88-0.36,1.96,0.65,2.31c0.29,0.37,0.18,0.43,0.74,0.47c-0.16,0.21-0.6,0.67-0.58,0.76    c0.04,0.21,0.08,0.42,0.12,0.63c0.37,0.3,0.57,0.28,0.62,0.77c0.09-0.07,0.18-0.14,0.27-0.2c0.12-0.09,0.23-0.17,0.35-0.26    c-0.65-0.5-0.82-0.76-0.45-1.42c0-0.35-0.01-0.7-0.01-1.05c-0.13-0.29-0.26-0.58-0.39-0.86c0.78-0.89,2.1-1.74,2.35-3.02    c0.23-0.18,0.47-0.36,0.7-0.54c0.38-0.47,0.46-1.11-0.04-1.59c0.06,0.03,0.12,0.06,0.18,0.09c0.24,0.13,0.48,0.26,0.71,0.4    c0.14,0.37,0.21,0.79,0.26,1.07c0.22,1.24,0.19,2.43,0.23,3.7c-0.05,0.31-0.1,0.62-0.15,0.93c0.05,0.53,0.38,1.59,0.02,2.01    c-0.01,1.65-0.02,3.29-0.02,4.94c-0.1,0.31-0.21,0.62-0.31,0.93c0.09,0.57,0.17,1.14,0.26,1.71c0.12,0.67,0.24,1.33,0.36,2    c-0.33,0.33-0.13,1.22-0.15,1.7c-0.21,0.57-0.41,1.13-0.62,1.7c-0.88,0.62-0.93,2.29-0.93,3.24c-0.18,0.43-0.36,0.86-0.54,1.28    c-0.19,0.29-0.37,0.58-0.55,0.87c-0.51,1.44-1.02,2.89-1.53,4.33c0,0.19,0,0.37,0,0.56c-0.26,0.02-0.52,0.04-0.77,0.06    c0,0.72-1.23,1.6-1.93,2.4c0.08-0.18,0.15-0.36,0.23-0.54c-0.2,0.04-0.41,0.08-0.61,0.13c-0.33,0.29-0.66,0.58-0.99,0.87    c-0.77,1-1.55,2.4-1.87,3.6c-0.54,0.37-1.08,0.75-1.63,1.12c0.14,0.24,0.29,0.49,0.43,0.73c0.29,0.37-0.22,1.07-0.44,1.49    c-0.36,0.29-0.71,0.58-1.07,0.87c-0.02,0.77-0.89,1.63-1.39,2.16c-0.27,0-0.23,0.38-0.24,0.62c0.03,0.41,0.06,0.82,0.09,1.23    c-0.11,0.37-0.22,0.73-0.33,1.1c-0.64,0.57-0.93,1.57-1.06,2.39c-0.33,0.79-0.67,1.58-1,2.36c-0.29,1.29-0.57,2.58-0.86,3.87    c-0.36,0.57-0.72,1.13-1.08,1.7c0.01,0.18,0.02,0.36,0.03,0.54c-0.07,0.42-0.57,0.19-0.95,0.2c-0.98,0.17-1.96,0.34-2.94,0.5    c-0.41,0.28-1.36,0.01-1.86-0.01c-0.51,0.05-1.02,0.11-1.53,0.16c-0.46-0.15-0.93-0.31-1.39-0.46c-0.67-0.72-1.34-1.44-2.01-2.16    c-0.38,0.2-0.97-0.19-1.41-0.26c-1.43-0.27-2.87-0.55-4.3-0.82c-1.59,0.3-3.17,0.61-4.76,0.92c-1.62,0.36-3.14,0.73-4.82,0.63    c-0.81-0.05-2.48-0.1-3.14,0.27c-1.03-0.07-2.53-0.16-3.5,0.19c-0.29-0.3-0.83-0.12-1.24-0.19c-1.36-0.22-2.63-0.25-4.01-0.12    c-0.32-0.42-0.99-0.26-1.39-0.62c-0.46-0.31-0.93-0.62-1.39-0.93c-0.57-0.65-3.01-2.24-3.86-2.47c-1.49-0.4-3.37,0.32-4.79,0    c-2.06-0.98-4.12-1.96-6.18-2.93c-0.36-0.26-0.72-0.52-1.08-0.77c0.01-0.42-0.32-0.93-0.61-1.23c-0.4-1.64-1.66-3.35-3.4-3.86    c-1.03-0.36-2.06-0.72-3.09-1.08c-1.13,0.05-2.26,0.1-3.4,0.15c-1.23,0.26-2.47,0.51-3.71,0.77c-0.47,0.08-0.95,0.16-1.42,0.24    c-0.5,0.23-1.01,0.46-1.51,0.69c-0.26,0.21-0.52,0.41-0.77,0.62c-0.85,0.36-1.63,0.76-2.3,1.42c-0.55,0.38-1.09,0.76-1.64,1.15    c-1.46,0.96-3.29,3.48-3.94,4.99c0.05,0.57,0.1,1.13,0.15,1.7c0.3,1.09,0.6,2.18,0.9,3.26c0.86,2.38,1.54,4.63,2.19,7.08    c0.05,1.29,0.1,2.57,0.15,3.86c-0.3,0.13-0.31,0.41-0.43,0.71c-0.65,1.4-3.1,2.18-4.52,1.79c-0.2-0.3-0.4-0.61-0.6-0.91    c-0.46-0.68-0.34-1.11-0.47-1.9c-0.3-0.24-0.35-0.72-0.46-1.08c-0.38-0.1-0.51-0.48-0.77-0.77c-0.62-0.36-1.23-0.72-1.85-1.08    c-0.33-0.71-0.66-1.42-0.99-2.13c-0.44-0.65-1.63-2.55-2.26-2.77c-0.34-0.57-0.81-1.16-1.31-1.55c-0.85-1.04-1.69-2.09-2.54-3.13    c-1.18-0.93-2.37-1.85-3.55-2.78c-0.79-0.92-1.31-2.17-1.72-3.23c-0.39-0.62-0.79-1.25-1.18-1.88c-1.1-1.65-1.93-3.38-3.12-4.93    c-0.42-0.13-0.43-0.41-0.77-0.62c-0.36-0.24-0.71-0.49-1.07-0.73c-0.52-0.53-1.04-1.06-1.55-1.59c-0.62-0.41-1.23-0.82-1.85-1.24    c-0.57-0.1-1.13-0.21-1.7-0.31c-0.9-0.52-1.68-1.32-2.01-2.32c-0.22-0.67-0.11-1.32,0-2.01c-0.01-0.56-0.03-1.11-0.04-1.67    c-0.05-0.37-0.11-0.75-0.16-1.12c0.22-0.61,0.45-1.23,0.67-1.84L395.7,232.85z"/>
            <circle cx="478.51" cy="213.86" r="1.586"/>
        </g>
        <g id="__Kulp">
            <path d="   M513.71,48.95c0.34-0.39,0.67-0.78,1.01-1.16c0.18-0.6,0.27-1.04,0.9-1.26c0.01-0.1,0.02-0.19,0.02-0.28   c0.06,0.02,0.12,0.05,0.18,0.08c1.33,0.44,2.66,0.88,3.99,1.31c0.93,0.41,1.85,0.82,2.78,1.24c0.46,0.29,1.17,0.93,1.7,0.93   c1.81,2.91,3.28,7.37,3.53,10.77c0.16,0.63,0.32,1.26,0.49,1.89c0.25,1.39,0.5,2.78,0.75,4.17c0.26,1.75,0.53,3.5,0.79,5.25   c1.54,2.83,3.09,5.66,4.63,8.49c0.62,0.93,1.23,1.85,1.85,2.78c0.53,1,2.45,3.26,2.32,4.32c1.88,1.58,3.61,4.95,4.94,7.1   c0.87,0.77,1.75,1.54,2.63,2.32c0.18,0.29,0.35,0.58,0.53,0.87c0.9,1.31,1.68,2.61,1.79,4.23c0.41,1.49,0.82,2.99,1.23,4.48   c0.21,1.54,0.42,3.09,0.63,4.63c0.57,1.54,1.13,3.09,1.7,4.63c0.43,1.52,0.8,2.77,0.6,4.32c-0.09,0.37-0.18,0.74-0.27,1.11   c-0.26,0.32-0.45,0.31-0.48,0.75c-2.18,1.19-4.37,2.38-6.55,3.58c-0.16,0.54-0.9,0.77-1.22,1.26c-0.34,0.53-1.93,2.49-2.42,2.73   c-0.98,1.34-1.96,2.68-2.93,4.01c-0.57,0.34-1.23,1.01-1.24,1.7c-0.39,0.29-1.09,1.1-1.24,1.54c-1.39,1.39-2.78,2.78-4.17,4.17   c-0.81,0.87-0.48,1.73-0.72,2.78c-0.08,0.34-0.24,0.77-0.05,1.08c-0.53,1.37-1.18,2.75-1.39,4.17c-0.1,0.36-0.21,0.72-0.31,1.08   c-0.25,0.52-0.5,1.03-0.76,1.55c-0.45,0.88-0.9,1.77-1.36,2.65c-1.51,1.95-3.02,3.89-4.53,5.84c-0.35,0.65-1.17,1.09-1.24,1.85   c-0.75,0.79-1.51,1.58-2.26,2.36c-0.35,0.25-0.71,0.5-1.06,0.75c-0.13,0.25-0.26,0.5-0.39,0.75c0,0.62,0,1.23,0,1.85   c0.32,1.03,0.63,2.05,0.95,3.08c0.06,0.89,0.02,2.01-0.33,2.79c0.11,1.12-0.02,1.99,0,3.09c-0.1,0.31-0.2,0.61-0.3,0.92   c0.06,1.17,0.12,2.25-0.03,3.38c-0.04,0.28-0.12,1.07-0.43,1.12c-0.91,0.18-1.84-0.25-2.78-0.15c-2.21,0.35-4.43,0.7-6.64,1.05   c-0.83,0.4-1.65,0.8-2.48,1.21c-1.23,0.48-2.87,1.86-4.16,0.95c-0.22-0.6-0.53-1.24-1.24-1.26c-0.39-0.72-0.64-2.49-1.56-2.68   c-1.25-0.29-2.47-0.13-3.69-0.25c-0.43-0.09-0.86-0.17-1.29-0.26c-0.17-0.35-0.41-0.58-0.41-0.96c-0.46-0.35-0.93-0.71-1.39-1.06   c-1.03-1.19-2.06-2.38-3.08-3.57c-0.44-0.57-1.51-1.84-2.32-1.7c-0.92-1.21-2-2.15-3.09-3.24c-0.62-0.72-1.23-1.44-1.85-2.16   c-1.39-1.24-2.78-2.47-4.17-3.71c-1.39-0.88-2.78-1.75-4.17-2.63c-1.84-0.57-3.85-0.86-5.71-1.54c-0.69-0.14-1.39-0.27-2.08-0.41   c-1.78-0.12-3.55-0.24-5.33-0.36c-1.47-0.68-2.44-1.88-3.86-2.57c-0.68-0.42-1.36-0.83-2.04-1.25c-0.15-0.09-0.85-0.37-0.7-0.56   c0.23-0.45,0.45-0.9,0.68-1.34c1.28-0.89,1.94-4.01,1.94-5.54c0-0.54,0.65-1.85,0-2.13c-0.12,0.04-0.24,0.08-0.35,0.12   c0.02-0.06,0.05-0.12,0.07-0.18c-0.23-1.67-2.09-3.18-2.39-4.61c-0.58-0.59-1.16-1.19-1.74-1.78c-0.4-0.51-1.01-1.42-1.66-1.61   c-0.72-0.88-1.44-1.75-2.16-2.63c-0.89-0.66-2.33-0.88-3.38-1.13c-0.26,0.07-1.12-0.13-1.26-0.26c-1.28-1.28-1.98-3.24-2.71-4.88   c0.15-0.38-0.25-1.19-0.42-1.56c-0.35-0.77-1.41-2.22-1.34-2.98c-0.66-1.29-1.39-2.69-1.39-4.17c-0.6-1.04-1.2-2.08-1.8-3.12   c-0.22-0.56-0.45-1.11-0.67-1.67c-0.43-0.61-0.86-1.22-1.29-1.83c-0.55-1.45-1.09-2.9-1.64-4.34c-0.05-1.76,0.5-2.81,1.04-4.38   c0.06-0.34,0.13-0.68,0.19-1.02c0.26-0.95,0.81-2.23,1.39-2.93c0.19-0.47,0.37-0.95,0.56-1.42c0.43-0.24,0.57-0.82,0.83-1.2   c0.09-0.31,0.19-0.61,0.28-0.92c0.16-0.36,0.33-0.73,0.49-1.09c0.55-0.81,1.42-1.9,2.47-2.01c0.27-0.25,0.4-0.42,0.77-0.46   c0.57-0.93,1.13-1.85,1.7-2.78c0.21-0.62,0.41-1.24,0.62-1.85c0.57-0.67,1.13-1.34,1.7-2.01c1.06-1.09,2.12-2.18,3.18-3.28   c0.84-0.86,1.69-1.73,2.53-2.59c0.42-0.26,0.84-0.52,1.26-0.78c0.35-0.41,0.7-0.82,1.05-1.23c1.8-1.23,3.73-2.19,5.69-3.14   c0.83-0.39,1.66-0.79,2.49-1.18c0.68-0.35,0.9-1.06,1.7-1.24c1.06-1.14,2.35-1.99,3.55-3.09c0.57-0.41,1.13-0.82,1.7-1.24   c0.69-0.61,1.38-1.23,2.07-1.84c0.46-0.87,2.09-1.45,2.92-1.92c0.39-0.19,0.79-0.37,1.18-0.56c1.91-2.03,4.38-3.64,6.79-5.1   c0.67-0.4,2.79-1.4,3.55-1.23c1.83-0.91,3.88-1.51,5.67-2.67c1.81-0.71,3.62-1.42,5.43-2.14c0.67-0.31,1.78-0.57,2.18-1.22   c0.57-0.21,1.57-0.54,1.85-1.08c0.26-0.15,0.51-0.31,0.77-0.46c1.99-0.7,4.06-1.18,6.17-1.38c1.6-0.11,3.19-0.22,4.79-0.32   C511.59,49.47,513.33,49.32,513.71,48.95z"/>
            <circle cx="479.9" cy="112.72" r="1.586"/>
        </g>
        <g id="__Lice">
            <path d="   M453.92,154.9c0.23-0.45,0.45-0.9,0.68-1.34c1.28-0.89,1.94-4.01,1.94-5.54c0-0.54,0.65-1.85,0-2.13   c-0.12,0.04-0.24,0.08-0.35,0.12c0.02-0.06,0.05-0.12,0.07-0.18c-0.23-1.67-2.09-3.18-2.39-4.61c-0.58-0.59-1.16-1.19-1.74-1.78   c-0.4-0.51-1.01-1.42-1.66-1.61c-0.72-0.88-1.44-1.75-2.16-2.63c-0.89-0.66-2.33-0.88-3.38-1.13c-0.26,0.07-1.12-0.13-1.26-0.26   c-1.28-1.28-1.98-3.24-2.71-4.88c0.15-0.38-0.25-1.19-0.42-1.56c-0.35-0.77-1.41-2.22-1.34-2.98c-0.66-1.29-1.39-2.69-1.39-4.17   c-0.6-1.04-1.2-2.08-1.8-3.12c-0.22-0.56-0.45-1.11-0.67-1.67c-0.43-0.61-0.86-1.22-1.29-1.83c-0.55-1.45-1.09-2.9-1.64-4.34   c-0.05-1.76,0.5-2.81,1.04-4.38c0.06-0.34,0.13-0.68,0.19-1.02c0.26-0.95,0.81-2.23,1.39-2.93c0.19-0.47,0.37-0.95,0.56-1.42   c0.43-0.24,0.57-0.82,0.83-1.2c0.09-0.31,0.19-0.61,0.28-0.92c0.16-0.36,0.33-0.73,0.49-1.09c0.55-0.81,1.42-1.9,2.47-2.01   c0.27-0.25,0.4-0.42,0.77-0.46c0.57-0.93,1.13-1.85,1.7-2.78c0.21-0.62,0.29-1.48,0.29-1.48c-0.19-0.58-0.96-0.43-1.54-0.51   c-0.28-0.04-2.38,1.35-2.6,1.8c-1.45,0.35-2.4,1.41-3.71,2.08c-0.06,0.04-0.12,0.07-0.17,0.11c0.04-0.6-0.09-0.48-0.37-0.91   c-0.15-0.26,0.1-0.66,0.22-0.94c-0.05-0.21-0.1-0.42-0.14-0.63c-0.62-0.1-1.24-0.2-1.86-0.3c-0.21-0.15-0.41-0.31-0.62-0.46   c-0.18,0.33-0.44,0.32-0.77,0.46c-0.42-1.26-0.18-1.2,0.46-2.16c-0.43-0.42-0.23-1.27-0.64-1.88c-0.38-0.62-1.3-0.79-2-1.01   c-1.71-0.38-3.42-0.77-5.13-1.15c-1.48-0.3-2.95-0.6-4.42-0.9c-0.39,0.22-1.96,0.04-2.47,0c-0.44,0.33-3.68,0.3-4.32,0.15   c-3.28-0.72-7.4-1.86-10.33-0.35c-0.47,0.17-0.94,0.34-1.41,0.51c-0.54,0.39-1.25,1.1-1.22,1.8c-0.98,0.87-1.91,3.02-2.49,4.22   c-0.48,0.19-2.09,2.11-2.27,2.62c-1.57,0.95-3.26,1.34-4.83,2.01c-1.39-0.21-2.78-0.41-4.17-0.62c-3.71-1.34-7.41-2.68-11.12-4.02   c-3.36-2.04-6.79-3.93-9.91-6.3c-0.71-0.54-1.18-1.36-1.52-2.2c-0.64,0.37-0.95-0.58-1.24-1.08c-0.95,0.3-2.13-1.46-3-1.89   c-1-0.49-1.2,0.37-1.79,1.11c-1.03,1.65-2.06,3.29-3.09,4.94c-0.15,0.36-0.31,0.72-0.46,1.08c-0.26,0.56-0.52,1.13-0.79,1.69   c-0.46,1.02-1.07,1.76-0.76,2.94c-0.52,0.37-0.33,1.7-0.31,2.32c-0.54,0.48-0.94,2.53-1.08,3.4c-0.39,0.32-0.72,2.17-0.77,2.78   c-0.53,0.64-0.15,2.32,0,3.09c-0.37,0.26-0.3,0.8-0.3,1.23c-0.02,1.19,0.04,2.22,0.3,3.4c0.16,0.36,0.32,0.72,0.48,1.08   c0.46,0.72,0.92,1.44,1.38,2.17c1.13,0.46,2.27,0.93,3.4,1.39c1.03,0.15,2.06,0.31,3.09,0.46c0.82,0.36,1.65,0.72,2.47,1.08   c0.47,0.14,0.94,0.28,1.4,0.42c1.32,0.46,2.02,0.7,3.07,1.75c0.16,0.15,0.66,2.56,0.51,2.85c0.17,0.76-0.84,2.59-1.4,3.28   c-0.93,1.13-2.37,3.88-2.65,5.3c0.3,0.93,0.6,1.87,0.91,2.8c0.42,0.97,0.84,1.94,1.25,2.91c0,0.26,0,0.51,0,0.77   c0.65,1.35,1.3,2.7,1.95,4.05c1.03,1.8,3.16,2.72,4.99,3.52c0.15,0.34,0.46,0.43,0.77,0.62c0.31,0.77,0.62,1.54,0.93,2.32   c0.81,0.34,2.03,2,2.47,2.78c0.01,0.57,0.03,1.14,0.04,1.71c0.15,1.59,0.33,3.19-0.41,4.59c-0.16,0.31-0.99,0.57-1.39,0.69   c-0.89,0.27-1.65,0.66-2.6,0.72c-0.12-0.07-0.23-0.13-0.35-0.2c-0.24,0.02-0.48,0.03-0.72,0.04c-0.2,0.05-0.39,0.11-0.59,0.16   c-0.36-0.44-1.85-0.44-2.49-0.51c-0.81-0.08-1.4,0.18-2.15,0.35c-1.77-0.93-4.4,1.7-5.19,3.12c-0.18,0.35,0.65,1.22,0.88,1.5   c0.73,0.86,1.29,1.25,2.3,1.71c0.41-0.17,1.63,0.09,1.92,0.38c0.28,0.05,0.57,0.11,0.85,0.16c0.48,0.22,2.74,1.06,2.92,1.4   c0.85,0.24,1.81,0.62,2.34,1.3c0.47-0.11,0.28,0.15,0.62,0.31c0.26,0,0.51,0,0.77,0c0.23,0.4,0.68,0.5,1.08,0.77   c1.96,0.05,3.91,0.1,5.87,0.15c0.26,0.1,0.51,0.21,0.77,0.31c0.57,0.26,1.13,0.51,1.7,0.77c0.57,0.59,2.6,0.83,3.4,0.65   c0.63-0.12,1.08-0.83,1.54-1.26c-0.08-0.32,0.18-0.63,0.36-0.91c0.19-0.21,0.38-0.43,0.57-0.64c-0.18-1.02,1.34-2.16,2.01-2.81   c0.66-0.64,1.54-0.66,2.31-1.05c1.73-0.89,2.47-0.81,4.32-0.93c0.82,0.36,1.64,0.73,2.46,1.1c0.91,0.37,1.95,1.31,2.48,2.15   c0.54,0.85,0.31,1.51,0.46,2.47c0.27,0.68,0.53,1.37,0.8,2.06c0.19,0.57,0.69,0.44,1.27,0.61c0.44,0.24,0.89,0.49,1.33,0.73   c0.26,0,0.52,0,0.77,0c0.36-0.16,0.71-0.33,1.07-0.49c1.36-0.35,2.67-0.98,4.02-1.37c0.56-0.44,1.12-0.87,1.67-1.31   c0.76-0.68,1.53-1.37,2.29-2.05c0.84-0.37,1.68-0.75,2.52-1.12c0.23,0.19,0.66,0.2,0.94,0.09c0.56,0.18,1.13,0.35,1.69,0.53   c1.65,1.18,3.29,2.37,4.94,3.55c0.63,0.26,1.27,0.51,1.9,0.77c0.5,0,1-0.01,1.51-0.01c0.54-0.08,1.09-0.17,1.63-0.25   c0.28-0.06,0.55-0.13,0.83-0.19c1.05,0.18,2.23,0.1,3.24-0.31c0.63,0.35,3.21-0.09,4.01-0.31c0.31-0.26,0.62-0.52,0.93-0.77   c0.31-0.91,1.39-1.44,2.19-1.79c1.38-0.33,2.76-0.66,4.14-0.99c0.81-0.45,1.11-1.39,1.54-2.16c0.56-0.99,1.18-1.7,2.01-2.47   c0.83-0.44,1.67-0.88,2.5-1.33c0.71-0.32,2.1-0.45,2.9-0.37L453.92,154.9z"/>
            <circle cx="398.37" cy="124.3" r="1.586"/>
        </g>
        <g id="__Hani">
            <path d="   M358.98,156.22c0.79-1.41,3.42-4.05,5.19-3.12c0.75-0.17,1.34-0.44,2.15-0.35c0.63,0.07,2.13,0.06,2.49,0.51   c0.2-0.05,0.39-0.11,0.59-0.16c0.24-0.02,0.48-0.03,0.72-0.04c0.12,0.07,0.23,0.13,0.35,0.2c0.96-0.06,1.71-0.45,2.6-0.72   c0.4-0.12,1.23-0.38,1.39-0.69c0.74-1.4,0.56-3,0.41-4.59c-0.01-0.57-0.03-1.14-0.04-1.71c-0.44-0.78-1.66-2.44-2.47-2.78   c-0.31-0.77-0.62-1.54-0.93-2.32c-0.31-0.19-0.62-0.28-0.77-0.62c-1.83-0.8-3.96-1.72-4.99-3.52c-0.65-1.35-1.3-2.7-1.95-4.05   c0-0.26,0-0.51,0-0.77c-0.42-0.97-0.84-1.94-1.25-2.91c-0.3-0.93-0.6-1.87-0.91-2.8c0.28-1.42,1.72-4.17,2.65-5.3   c0.56-0.68,1.58-2.52,1.4-3.28c0.15-0.3-0.35-2.7-0.51-2.85c-1.05-1.05-1.75-1.28-3.07-1.75c-0.47-0.14-0.94-0.28-1.4-0.42   c-0.82-0.36-1.65-0.72-2.47-1.08c-1.03-0.15-2.06-0.31-3.09-0.46c-1.13-0.46-2.26-0.93-3.4-1.39c-0.46-0.72-0.92-1.44-1.38-2.17   c-0.16-0.36-0.32-0.72-0.48-1.08c-0.27-1.18-0.32-2.21-0.3-3.4c0.01-0.43-0.07-0.97,0.3-1.23c-0.15-0.77-0.53-2.44,0-3.09   c0.06-0.61,0.38-2.46,0.77-2.78c0.14-0.87,0.54-2.92,1.08-3.4c-0.02-0.61-0.21-1.95,0.31-2.32c-0.31-1.18,0.3-1.92,0.76-2.94   l-0.18,0.17c-0.38,0.09-1.06,0.38-2.13,0.92c-1.56,0.91-3.11,1.83-4.67,2.74c-0.73,0.1-1.4,0.69-1.97,1.12   c-0.25,0.19-0.83,0.42-1.08,0.31c-2.06,1.56-4.13,3.12-6.19,4.69c-0.97,0.78-2.41,1.4-2.99,2.52c-0.43,0.83-1,1.71-1.15,2.66   c-0.16,0.83-0.32,1.66-0.48,2.48c0.15,0.41,0.11,0.65,0.46,0.93c-0.2,1.16,0.01,2.9,0.62,3.86c0.31,0.49,1.91,2.12,1.81,2.46   c-0.4,1.04-0.81,2.09-1.21,3.13c-0.56,0.52-2.65,2.22-3.38,2.13c-1.03,0.46-2.06,0.93-3.09,1.39c-1.23,0.62-2.47,1.23-3.71,1.85   c-1.29,0.31-2.57,0.62-3.86,0.93c-1.23,0.12-2.47,0.23-3.7,0.35c-2.09,0.34-4.2,0.3-6.34,0.43c-0.61,0.04-2.25-0.12-2.05,0.47   c0.37,1.04,0.79,2.07,1.12,3.07c0.65,0.53,1.74,1.5,2.63,1.24c0.21,0.26,0.41,0.51,0.62,0.77c0.9,1.34,1.37,4.14,2.71,5   c0.31,0.2,2.66,1.1,2.85,1.02c0.52,0.46,1.03,0.93,1.54,1.39c0.31,0.52,0.62,1.03,0.93,1.54c0.21,0.21,0.41,0.41,0.62,0.62   c0.63,1.34,1,2.87,0.79,4.28c-0.11,0.73,0.2,1.74-0.48,2.21c0.15,0.53,0.33,1.18-0.15,1.54c0.38,1.17,0.46,2.35,0.62,3.55   c0.06,0.44,0.46,1,0.31,1.39c0.35,0.54,1.17,1.78,0.93,2.47c0.46,0.87,0.93,1.75,1.39,2.63c0.33,0.69,1.27,1.45,0.93,2.32   c0.31,0.87,0.62,1.75,0.93,2.63c0.31,0.57,0.62,1.13,0.93,1.7c0.46,0.51,0.93,1.03,1.39,1.54c0.48,0.66,1.39,3.21,1.24,4.02   c0.21,0.46,0.41,0.93,0.62,1.39c0.82,0.88,2.2,1.42,2.84,2.52c0.18,0.29,0.36,0.58,0.54,0.87c-0.4,3.07-1.85,6.37-1.75,6.33   c0.13,0,0.25,0.01,0.38,0.01c0.31-0.36,0.62-0.72,0.93-1.08c0.52-0.35,1.05-0.7,1.57-1.05c0.71-0.58,1.42-1.16,2.13-1.73   c0.32-0.34,0.63-0.69,0.95-1.03c0.7-0.3,1.39-0.6,2.09-0.9c0.45-0.32,0.9-0.63,1.35-0.95c0.52-0.19,1.51-0.64,1.79-1.13   c2.47-0.2,4.94-0.41,7.41-0.61c1.2,0.02,2.77,0.18,3.45-0.84c0.68-1.1,0.84-2.19,0.88-3.49c0.26-1.08,0.52-2.16,0.77-3.24   c0.31-0.77,0.62-1.54,0.93-2.32C357.35,158.36,358.98,156.22,358.98,156.22z"/>
            <circle cx="341.23" cy="137.35" r="1.586"/>
        </g>
    </g>
</svg>