<?xml version="1.0" encoding="utf-8"?>
<!-- Generator: Adobe Illustrator 16.0.0, SVG Export Plug-In . SVG Version: 6.00 Build 0)  -->
<!DOCTYPE svg PUBLIC "-//W3C//DTD SVG 1.1//EN" "http://www.w3.org/Graphics/SVG/1.1/DTD/svg11.dtd">
<svg version="1.1" id="HaritaCizim" xmlns="http://www.w3.org/2000/svg" xmlns:xlink="http://www.w3.org/1999/xlink" x="0px" y="0px" viewBox="0 0 500 354" preserveAspectRatio="none">
    <defs id="__def">
        <radialGradient id="f">
            <stop offset="0" stop-color="white" stop-opacity="1"/>
            <stop id="STOP1" offset=".4" stop-opacity="1"/>
            <stop offset="1" stop-color="white" stop-opacity=".2"/>
        </radialGradient>
        <filter id="__flt1" x="0" y="0" width="200%" height="200%" filterUnits="objectBoundingBox">
            <feGaussianBlur in="SourceAlpha" stdDeviation="3" result="blur1"/>
            <feSpecularLighting result="specOut" in="blur1" specularConstant="1.5" specularExponent="20" lighting-color="#bbbbbb">
                <feDistantLight azimuth="45" elevation="30"/>
            </feSpecularLighting>
            <feComposite in="specOut" in2="SourceAlpha" operator="in" result="specOut"/>
            <feComposite in="SourceGraphic" in2="specOut" operator="arithmetic" k1="0" k2="1" k3="1" k4="0"/>
        </filter>
        <filter id="__flt2" x="0" y="0" width="200%" height="200%" filterUnits="objectBoundingBox">
            <feGaussianBlur in="SourceAlpha" stdDeviation="3" result="blur1"/>
            <feSpecularLighting result="specOut" in="blur1" specularExponent="20" lighting-color="#bbbbbb">
                <fePointLight x="-2000" y="100" z="2000"/>
            </feSpecularLighting>
            <feComposite in="specOut" in2="SourceAlpha" operator="in" result="specOut"/>
            <feComposite in="SourceGraphic" in2="specOut" operator="arithmetic" k1="0" k2="1" k3="1" k4="0"/>
        </filter>
        <filter id="__flt3" x0="-50%" y0="-50%" width="200%" height="200%" filterUnits="objectBoundingBox">
            <feGaussianBlur in="SourceAlpha" stdDeviation="3" result="blur"/>
            <feOffset in="blur" dx="0" dy="0" result="offsetBlur"/>
            <feSpecularLighting in="blur" surfaceScale="4" specularConstant=".5" specularExponent="20" lighting-color="flavor" result="specOut">
                <fePointLight x="-5000" y="-10000" z="5000"/>
            </feSpecularLighting>
            <feComposite in="specOut" in2="SourceAlpha" operator="in" result="specOut"/>
            <feComposite in="SourceGraphic" in2="specOut" operator="arithmetic" k1="0" k2="1" k3="1" k4="0" result="litPaint"/>
            <feMerge>
                <feMergeNode in="offsetBlur"/>
                <feMergeNode in="litPaint"/>
            </feMerge>
        </filter>
        <filter id="__flt4" x0="-50%" y0="-50%" width="200%" height="200%">
            <feGaussianBlur in="SourceAlpha" stdDeviation="2" result="blur"/>
            <feOffset dy="-1" dx="-1"/>
            <feComposite in2="SourceAlpha" operator="arithmetic" k2="-1" k3="1" result="hlDiff"/>
            <feFlood flood-color="white" flood-opacity=".7"/>
            <feComposite in2="hlDiff" operator="in"/>
            <feComposite in2="SourceGraphic" operator="over" result="withGlow"/>
            <feOffset in="blur" dy="3" dx="3"/>
            <feComposite in2="SourceAlpha" operator="arithmetic" k2="-1" k3="1" result="shadowDiff"/>
            <feFlood flood-color="black" flood-opacity="1"/>
            <feComposite in2="shadowDiff" operator="in"/>
            <feComposite in2="withGlow" operator="over"/>
        </filter>
        <filter id="__golge1" x="0" y="0" width="200%" height="200%" filterUnits="userSpaceOnUse">
            <feOffset result="offOut" in="SourceAlpha" dx="8" dy="8"/>
            <feGaussianBlur result="blurOut" in="offOut" stdDeviation="3"/>
            <feBlend in="SourceGraphic" in2="blurOut" mode="normal"/>
        </filter>
    </defs>
    <g id="__Komsular" display="none">
        <path fill-rule="evenodd" clip-rule="evenodd" fill="none" stroke="#000000" stroke-width="0.25" stroke-miterlimit="10" d="
		M83.33,293.94c-2.18,0.22-3.94-0.69-6.05-0.79c-1.56-0.07-5.49-0.98-6.85-0.26c-2.06,1.09-0.52,2.98-0.53,5
		c-0.01,2.24-1.34,3.59-1.85,5.52c-1.07,4.09,1.04,8.08-1.63,11.52c-2.25,2.9-5.51,6.15-5.74,9.82c-0.18,2.88,1.03,4.62,0.07,7.18
		c-0.92,2.44-1.51,4.55-1.65,7.31c-0.26,5.12,1.91,9.37,0,14.49"/>
        <path fill-rule="evenodd" clip-rule="evenodd" fill="none" stroke="#000000" stroke-width="0.25" stroke-miterlimit="10" d="
		M436.5,117.75c1.95-0.41,3.9,0.8,6.06,0.79c2.33-0.01,3.98-0.31,6.05-0.8c4-0.95,8.66-0.49,12.91-0.52
		c3.02-0.02,3.18-0.7,4.48-3.17c0.99-1.89,2.48-3.23,3.76-4.98c2.19-3.01,3.95-6.14,7.56-7.84c2.19-1.03,4.34-1.47,6.79-1.7
		c2.8-0.26,3.56,0.79,5.57,2.75c3.41,3.32,7.49,5.15,10.81,8.37"/>
        <text transform="matrix(1 0 0 1 316.1438 47.1692)" font-family="'MyriadPro-Regular'" font-size="12.6416">ZONGULDAK</text>
        <text transform="matrix(0.6802 -0.733 0.733 0.6802 339.3423 295.3135)" font-family="'MyriadPro-Regular'" font-size="12.6416">BOLU</text>
        <text transform="matrix(0.0576 0.9983 -0.9983 0.0576 15.7537 183.6052)" font-family="'MyriadPro-Regular'" font-size="12.6416">SAKARYA</text>
        <linearGradient id="SVGID_1_" gradientUnits="userSpaceOnUse" x1="134.1182" y1="158.6487" x2="132.7442" y2="-107.3673">
            <stop offset="0" style="stop-color:#88A2D4"/>
            <stop offset="1" style="stop-color:#FFFFFF;stop-opacity:0"/>
        </linearGradient>
        <path fill-rule="evenodd" clip-rule="evenodd" fill="url(#SVGID_1_)" d="M0.5-0.5v69l1.92,0.07c3.31,1.53,6.35,4.32,9.73,5.8
		c3.58,1.57,8.15,2.86,11.92,3.62c3.97,0.8,7.91,1.24,11.65,2.57c4.09,1.45,7.37,2.95,11.85,2.49c7.98-0.83,16.92-0.02,24.45,1.77
		c5.01,1.19,10.18,0.41,15.26,0.42c4.39,0.01,8.46,0.78,12.78,0.78c2.21,0.03,4.42,0.07,6.63,0.1c1.04-0.12,2.07-0.24,3.11-0.36
		c0.7,0.09,1.4,0.18,2.11,0.26c1.32-0.18,2.63-0.35,3.95-0.53c0.69-0.46,1.06-0.93,1.58-1.58c4.06,0,8.06-0.03,12.11-0.34
		c1.4-0.1,2.8-0.21,4.2-0.31c0.57-0.14,1.17-0.58,1.6-0.14c1.14-0.35,2.28-0.7,3.42-1.05c0.4-0.66,1.59-0.83,2.32-1.17
		c1.46-0.68,2.42-1.35,3.74-2.26c0.7-0.09,1.4-0.18,2.11-0.26c0.35-0.09,0.7-0.18,1.05-0.26c0.09,0.18,3.56,0.04,4.35-0.4
		c-0.4-0.4,2.14,0.13,2.9,0c0.91-0.37,1.6-0.22,2.52-0.58c5.09-0.55,10.17-1.1,15.26-1.65c2.55-0.3,5.07-0.79,7.64-0.79
		c1.15-0.24,2.3-0.48,3.45-0.72c3.33-1.04,10.91-1.79,13.54-2.05c0.88-0.35,1.36,0.48,2.24,0.13c0.14-0.7,4.83-1.32,5.27-1.58
		c0-1.16,3.09-2.29,3.95-2.63c2.24-0.4,3.98-1.09,4.53-1.77c3.04-0.77,6.29-1.3,9.25-2.25c3.05-0.97,5.36-3.19,8.21-4.55
		c3.05-1.46,7.25-3.8,9.42-6.58c2.53-3.24,1.79-7.64,4.35-10.72c2.51-3.03,6.6-4.8,9.22-7.9c1.07-1.27,2.1-2.72,2.63-4.23
		c0.53-1.52,0.17-3.26,1.19-4.6c0.76-1.01,2.58-1.65,3.49-2.58c1.13-1.14,2.26-2.67,3.12-4.21c1.8-3.26,3.28-5.67,0.51-8.68
		c-2.7-2.95-2.3-6.25-2.3-10.27H0.5z"/>
    </g>
    <g id="__Harita" display="none">
        <rect id="__cer" x="0" y="0" fill="#000000" opacity="0" width="500" height="354"/>
        <g id="__Gölyaka">
            <path d="
			M114.54,205.85c-2.44,0.64-5.35-0.59-7.64,1.05c-2.37,1.67-4.74,3.34-7.11,5c-2.28,1.67-4.57,3.34-6.85,5
			c-1.23,1.23-3.72,3.81-4.21,5.53c-0.51,0.44-1.42,0.94-1.58,1.58c-1.57,0.69-3.13,1.38-4.7,2.07c-2.73,0.63-5.47,1.25-8.21,1.88
			c-1.76,0.26-3.51,0.53-5.27,0.79c-0.8,0.22-5.3,0.49-5.79,0c-2.11,0.61-4.21,1.23-6.32,1.84c-2.03,0.59-4.06,1.18-6.09,1.77
			c-1.04,0.2-2.34,0.07-3.13,0.86c-0.53,1.14-1.05,2.28-1.58,3.42c-0.67,2.43,0.1,10.12,3.42,10.53c1.4,0.77,5.83,2.51,7.11,2.37
			c2.19,1.8,4.45,3.27,6.14,5.46c0.75,0.97,2.24,2.49,2.29,3.75c0.79,0.97,1.58,1.93,2.37,2.9c1.84,0.97,3.69,1.93,5.53,2.9
			c1.55,0.26,3.1,0.53,4.65,0.79c2.4,0.11,5.23-1.63,7.43-0.21c0.67,0.43,1.61,0.88,1.61,1.79c0.35,0.53,0.7,1.05,1.05,1.58
			c-0.22,1.23-0.43,2.45-0.65,3.68c-0.57,1.32-1.15,2.64-1.72,3.96c0.09,2.28,0.18,4.57,0.26,6.85c-0.12,0.86-0.24,1.72-0.35,2.58
			c-0.06,0.63-0.12,1.27-0.17,1.9c-0.88,1.32-1.76,2.63-2.63,3.95c0,0.48,0.25,1.54,0.8,1.79c2.02,0.77,3.63,0.11,5.76-0.19
			c0.65-0.09,1.67-0.09,2.13-0.55c2.98-0.35,5.97-0.7,8.95-1.05c1.32-1.32,2.63-2.63,3.95-3.95c0.61-0.44,1.23-0.88,1.84-1.32
			c0.69,0,1.21,0.02,1.84-0.26c1.32,0.61,2,1.32,3.42,1.32c1.56-1.56,3.36-0.82,5.2-1.48c4.09-1.46,8.35-2.88,12.18-5.1
			c1.6-0.47,3.19-0.94,4.79-1.41c0.72-0.21,1.52-0.17,1.6-0.99c0.24-1.31,0.48-2.62,0.72-3.93c-0.83-0.83,0.09-2.43,0-3.42
			c-0.09-0.61-0.18-1.23-0.26-1.84c0.13-1.1,0.38-4.22-0.53-5c0.26-1.23,0.53-2.46,0.79-3.69c-0.36-3.87-2.9-7.89-2.9-11.59
			c-0.35-0.44-0.7-0.88-1.05-1.32c-0.35-0.79-0.7-1.58-1.05-2.37c-0.77,0-1.22-0.85-1.84-1.32c-1.03,0-5-1.88-5-2.9
			c-0.02-0.76-0.03-1.03,0.53-1.58c-0.18-0.88-0.35-1.76-0.53-2.63c-0.44-0.7-0.88-1.4-1.32-2.11c-0.44-0.26-0.88-0.53-1.32-0.79
			c-0.37-1.4-0.75-2.8-1.12-4.21c-0.49-1.32-2.47-2.71-1.81-4.25c0.37-0.92,0.62-1.93,1.61-2.35c0.73-3.48,0.79-7.41-0.53-10.8
			c-0.18,0-0.35,0-0.53,0c-0.61-0.88-1.23-1.75-1.84-2.63c-0.43-0.48-0.68-0.57-1.32-0.53
			C114.91,208.09,114.62,206.97,114.54,205.85z"/>
            <circle cx="107.56" cy="236" r="1.586"/>
        </g>
        <g id="__Cumayeri">
            <path d="
			M51.3,166.47c3.07-0.8,7.79,1.48,10.3-0.39c1.05-1.32,2.11-2.63,3.16-3.95c2.2-2.57,5.04-4.38,7.64-6.32
			c1.62-1.2,2.5-2.24,3.16-3.16c1.4-1.49,2.81-2.99,4.21-4.48c0.87-0.6,1.61-1.09,2.37-1.84c1.51-1.51,2.96-3.36,3.42-5.53
			c0.14-0.67,0.61-0.83,0.53-1.58c0.98-1.1,0.98-1.65,2.1-0.53c0.43,0.43,1.59,1.32,1.06,1.85c0.79,0.7,1.58,1.4,2.37,2.11
			c1.03-0.04,2.19,0.61,2.9,1.32c1.8,0.42,3.34,1.28,4.94,2.22c0.55,0.33,2.17,1.06,2.17,1.73c0.53,0.61,1.05,1.23,1.58,1.84
			c0.59,0.59,2.11,1.76,2.11,2.63c1.26,1.26,2.95,3.35,2.95,5.24c0,1.51-0.54,2.43-1.11,3.71c-0.48,1.07-0.34,3.08-1.58,3.69
			c-0.48,3.08-1.24,6.3-0.79,9.48c0.35,1.32,0.7,2.63,1.05,3.95c0,1.21-0.2,1.88,0,3.16c-0.09,1.93-0.18,3.86-0.26,5.79
			c-0.54,0.2-1.08,0.4-1.61,0.59c-2.1,0.42-4.19,0.83-6.29,1.25c-0.54,0.35-1.08,0.7-1.62,1.05c-0.6,0.71-1.2,1.41-1.8,2.12
			c-0.44,0-0.88,0-1.32,0c-0.3,0.23-0.6,0.46-0.91,0.69c-1.8,0.71-5.07,0.71-6.47-0.69c-0.91-0.91-0.69-2.7-2.16-3.09
			c-4.2-1.09-7.49-2.03-11.09-4.67c-0.5-0.22-1-0.44-1.5-0.66c-1.09,0-2.84,0.05-3.69,0.79c-0.61,0-1.23,0-1.84,0
			c-0.84-0.53-1.89-1.6-2.9-1.58c-0.61-0.7-1.23-1.4-1.84-2.11c-0.5-0.3-1-0.59-1.51-0.89c-0.7-0.57-2.71-2.92-2.71-3.85
			c-0.35-0.26-0.7-0.53-1.05-0.79c-0.92-1.25-1.46-2.25-2.63-3.42c0-0.78-1.8-4.48-2.37-4.48C50.64,167.12,50.71,166.62,51.3,166.47
			z"/>
            <circle cx="89.91" cy="186.75" r="1.586"/>
        </g>
        <g id="__Akçakoca">
            <path d="
			M141.92,138.7c1.63,0.03,4.46-0.98,6.07-1.59c0.69-0.26,3.94-0.78,4.48-0.53c1.58-0.35,3.16-0.7,4.74-1.05
			c3.92-0.32,7.84-0.64,11.76-0.96c3.18-0.67,6.03-2.39,9.04-3.25c0.79-0.44,1.58-0.88,2.37-1.32c3.42-1.36,6.32-1.88,9.48-3.95
			c1.06-0.69,4.48-0.79,5.79-0.79c0.68-0.19,1.37-0.38,2.05-0.57c0.63-0.43,1.27-0.85,1.9-1.28c0.95-0.53,4.68,0.2,5.53,0.79
			c0.46,0.02,1.84-0.16,1.84,0.26c0.44,0.18,0.88,0.35,1.32,0.53c0.95-0.03,1.97-0.13,2.86,0.31c1.72,0.87,3.97,1.09,5.05-0.31
			c2.23-2.23,3.83-4.89,6.06-7.37c0.94-1.05,2.4-1.74,2.9-3.16c0.7-0.44,1.4-0.88,2.11-1.32c1.47-1.44,2.94-2.89,4.4-4.33
			c1.25-2.07,2.51-4.14,3.76-6.21c-0.09-2.86-0.52-5.42-1.58-8.16c-0.88-2.02-1.75-4.04-2.63-6.06c-1.14-3.69-2.29-7.37-3.43-11.06
			c-0.09-0.79-0.18-1.58-0.26-2.37c-0.44-1.76-0.88-3.51-1.32-5.27c-0.88-1.4-1.76-2.81-2.63-4.21c-1.6-0.74-1.76-1.5-2.37-1.32
			c-2.53,0.64-5.06,1.28-7.59,1.92c-0.54,0.68-2.29,1.37-4.53,1.77c-0.86,0.35-3.95,1.48-3.95,2.63c-0.44,0.26-5.13,0.88-5.27,1.58
			c-0.88,0.35-1.36-0.48-2.24-0.13c-2.63,0.26-10.21,1.01-13.54,2.05c-1.15,0.24-2.3,0.48-3.45,0.72c-2.57,0-5.08,0.49-7.64,0.79
			c-5.09,0.55-10.17,1.1-15.26,1.65c-0.91,0.37-1.6,0.22-2.52,0.58c-0.76,0.13-3.29-0.4-2.9,0c-0.79,0.44-4.26,0.57-4.35,0.4
			c-0.35,0.09-0.7,0.18-1.05,0.26c-0.7,0.09-1.4,0.18-2.11,0.26c-1.31,0.9-2.27,1.58-3.74,2.26c-0.73,0.34-1.92,0.51-2.32,1.17
			c-1.14,0.35-2.28,0.7-3.42,1.05c-0.44-0.44-1.04,0-1.6,0.14c-1.4,0.1-2.8,0.21-4.2,0.31c-4.04,0.31-8.05,0.34-12.11,0.34
			c-0.52,0.65-0.89,1.12-1.58,1.58c-1.32,0.18-2.63,0.35-3.95,0.53c-0.7-0.09-1.4-0.18-2.11-0.26c-1.04,0.12-2.07,0.24-3.11,0.36
			c-2.21-0.03-4.42-0.07-6.63-0.1c-1.23,0-3.46-0.56-4.3,0.4c-0.41,0.48-0.82,0.96-1.23,1.44c0,0.58-0.99,2.85-0.55,2.97
			c1.9,0.61,3.71,1.91,5.3,3.09c0.53,0.26,1.05,0.53,1.58,0.79c1.13,1.37,0.84,4.48,2.44,5.11c2.27,0.84,4.52,0.14,6.69-0.71
			c0.65,0.14,1.24,0.33,1.67-0.19c0.09,0.18,0.18,0.35,0.26,0.53c0,3.44-1.07,4.92-3.42,7.37c-0.66,0.69-0.77,1.65-1.56,2.32
			c-0.27,0.1-0.54,0.21-0.81,0.31c-1.9,1.9-4.74,3.94-4.74,6.85c-2.98,2.02-5.97,4.04-8.95,6.06c-1.33,1.78,0.09,3.68,0.76,5.28
			c0.29,0.7,1.22,1.96,0.56,2.62c-0.04,0.51-0.08,1.02-0.12,1.52c-1.03,1.98-2.96,2.35-4.63,4.01c-0.53,0.61-1.05,1.23-1.58,1.84
			c0.13,0.15,0.26,0.3,0.39,0.45l0.4,0.59c0.43,0.43,1.59,1.32,1.06,1.85c0.79,0.7,1.58,1.4,2.37,2.11c1.03-0.04,2.19,0.61,2.9,1.32
			c1.8,0.42,3.34,1.28,4.94,2.22c0.55,0.33,2.69,1.2,2.69,1.2c1.34,0.02,2.17,0.84,3.46,1.26c0.88,0.15,1.75,0.3,2.63,0.45
			c0.75,0.1,2.05-0.27,2.62,0.13c1.9-0.59,5.48-1.29,7.37-0.79c1.03-1.03,3.4-0.48,4.72-0.53c1.01-0.05,3.32-1.1,3.97-0.78
			c1.48-1.27,4.87-2.93,6.84-3.45c0.61-1.13,3.25-2.31,4.44-2.91c0.93-0.47,3.69-2.12,3.87-2.21L141.92,138.7z"/>
            <circle cx="155.49" cy="82.46" r="1.586"/>
        </g>
        <g id="__Yığılca">
            <path d="
			M216.2,124.99c2.23-2.23,3.83-4.89,6.06-7.37c0.94-1.05,2.4-1.74,2.9-3.16c0.7-0.44,1.4-0.88,2.11-1.32
			c1.47-1.44,2.94-2.89,4.4-4.33c1.25-2.07,3.5-5.15,3.5-5.15c0.88,0.97,3.99,4.17,4.87,5.14c1.25,1.47,3.15,1.37,4.96,1.92
			c3.82,1.16,7.67,0.39,11.44-0.31c1.6-0.32,3.2-0.63,4.8-0.95c2.81-0.18,5.62-0.35,8.43-0.53c4.3-0.5,8.61-1,12.91-1.51
			c10.45-1.2,20.55-4.64,31.04-5.37c4.75-1.22,9.5-2.44,14.25-3.66c5.84-0.56,11.63-0.33,17.41-1.43c1.66-0.14,3.32-0.27,4.98-0.41
			c3.77,0.53,7.55,1.05,11.32,1.58c0.61-0.18,7.8,1.26,10,1.62c6.05,1.16,12.1,2.32,18.16,3.48c3.95,0.82,7.9,1.64,11.84,2.45
			c1.33,0.2,2.66,0.41,3.98,0.61c2.01,0.54,4,0.92,6.06,1.05c1.13,0.63,2.26,1.26,3.38,1.89c1.33,1.04,2.66,2.07,3.99,3.11
			c1.93,0.82,3.87,1.64,5.8,2.45c2.01,0.63,4.32,1.53,6.45,1.25c0.5,0.66,2.68,1.33,3.55,1.04c0.89,0.22,2.51,0.29,1.65,1.62
			c-1.48,2.62-1.85,3.01-4.28,4.7c-0.71,0-1.54,0.34-2.11,0.79c-2.25,2-4.5,4.01-6.76,6.01c-1.26,0.72-2.52,1.44-3.78,2.16
			c-0.53,0.61-1.05,1.23-1.58,1.84c-0.88,0.61-1.76,1.23-2.63,1.84c-1.38,1.07-2.89,1.17-4.21,2.37c0,0.7-1.61,3.54-1.74,3.35
			c-2.66-1.49-1.6-3.59-3-6.25c-0.53-0.44-1.05-0.88-1.58-1.32c-0.61-0.41-1.15-0.7-1.84-0.53c-0.57-0.52-1.09-1.12-1.84-1.32
			c-0.76-0.94-2.88-4.24-4.35-3.51c-0.78,0.36-2.07,0.65-2.49,1.4c-1.32,0.08-2.11,0.23-3.16,1.05c-0.88,0.35-1.76,0.7-2.63,1.05
			c-1.14,0.27-2.28,0.55-3.42,0.82c-0.74,0.44-1.66,1.07-1.84,1.81c-0.82,0.54-2.63,1.39-2.9,2.37c-0.66,0.23-1.68,0.28-2.11,0.79
			c-1.23,0-2.46,0-3.69,0c-1.34,0.67-2.67,1.34-4.01,2.02c-0.33,0.64-0.66,1.29-1,1.93c-1.09,0-2.57,1.17-3.42,0.79
			c-0.53,0.79-1.05,1.58-1.58,2.37c-0.73,0.07-3.31,0.15-3.69,0.53c-0.88-0.09-1.76-0.18-2.63-0.26c-0.98,0.95-3.28,3.1-4.74,2.11
			c-0.7,0.44-1.4,0.88-2.11,1.32c-0.2,0.54-0.51,1.04-0.26,1.58c-1.09,1.96-2.19,3.23-3.99,4.41c-0.6,0.37-1.2,0.75-1.8,1.12
			c-0.7,0.88-1.4,1.76-2.11,2.63c-0.59,2.2-1.62,3.96-1.59,6.31c0.02,1.23,1.91,2.32,1.06,3.17c-0.18,0.44-0.35,0.88-0.53,1.32
			c-0.97,1.14-4.34,4.62-6.06,2.9c-0.44,0.24-0.54,0.38-1.05,0.26c-0.79,0.88-1.58,1.76-2.37,2.63c-0.09,0.44-0.18,0.88-0.26,1.32
			c-0.53,0.61-1.05,1.23-1.58,1.84c-1.91,0.32-3.41,1.39-5,2.37c-1.77,1.09-4.4,0.47-6.32,0.79c-1.32,0.68-2.65,1.37-3.98,2.05
			c-1.34,0.5-2.45,1.11-3.93,1.11c-1.27,0.79-2.53,1.57-3.8,2.36c-0.22,0.27-0.45,0.53-0.67,0.8c-0.28,0.11-1.85,0.52-1.47,0.91
			c2.25,2.07,0.67,7.09,0.67,9.89c1.84,2.38,1.93,3.93,2.37,6.85c0.35,1.05,0.7,2.11,1.05,3.16c0.09,1.76,0.18,3.51,0.26,5.27
			c-0.15,0.46-0.31,0.91-0.46,1.37c1.68,1.46,2.27,3.64,2.57,5.74c0.06,0.44,0.55,1.36,0.12,1.69c-0.55,0.41-0.8,0.92-1.44,0.96
			c-1.05,0.17-2.11,0.34-3.16,0.51c-1.73-0.43-3.31-0.19-5,0.26c-1.82,0.49-3.66,3.31-5.53,4.48c-0.83,0.27-1.65,0.55-2.48,0.82
			c-1.29,0.85-2.58,1.7-3.87,2.55c-1.6,0.69-3.45,0.89-4.72,2.16c-1.22,0.35-2.45,0.7-3.67,1.05c-2.6,0.98-4.39,2.13-7.13,2.63
			c-0.96,0.18-1.96,0.85-2.63,1.58c-0.41,0.45-0.93,1.58-1.58,1.58l-0.88,0.01c-0.13-0.76-0.51-2.11-1.49-2.11
			c-0.44-0.88-0.88-1.76-1.32-2.63c0-1.47-1.12-2.31-1.32-3.69c-0.2-1.39-0.15-3.11-0.85-4.44c-1.57-3.01-5.11-4.79-6-8.2
			c0-1.49,0-2.99,0-4.48c-0.44-2.63-0.88-5.27-1.32-7.9c-0.79-2.29-0.23-4.83-1.27-7c-0.93-2.6-1.86-5.2-2.79-7.8
			c-0.05-0.51-0.1-1.02-0.16-1.52c-1.03-1.03-0.97-1.99-2.41-2.55l-0.99-1.39c-0.06-1-1.32-1.37-2.13-1.85
			c-0.49-1.46-1.87-1.55-2.9-2.37c-2.16-1.72-5.19-2.63-7.7-3.55c-0.86-0.31-1.71-0.62-2.57-0.93c-0.34-0.47-2.49-1.48-3.03-1.98
			c-1.84-0.53-4.08-3.03-5.14-4.08c-0.88-2.11-1.76-4.21-2.63-6.32c-1.2,0-2.37-4.39-2.37-5.53c-0.7-0.35-1.4-0.7-2.11-1.05
			c-1.01-1.01-3.95-4.22-3.95-5.79c-0.42-0.42-0.02-1.49,0.07-2.1c0.46-2.01,0.91-4.02,1.37-6.02c0.23-1.15,0.45-2.31,0.68-3.46
			c-0.09-0.53-0.18-1.05-0.26-1.58c-0.09-0.08-0.19-0.15-0.28-0.23c0.27-0.71,0.54-1.43,0.81-2.14c-0.97-2.23-0.93-4.57-1.32-6.85
			c-0.32-1.89-1.04-3.63-1.07-5.56L216.2,124.99z"/>
            <circle cx="280.59" cy="143.3" r="1.586"/>
        </g>
        <g id="__Kaynaşlı">
            <path d="
			M250.29,189.52c-0.38,0.62-0.76,1.23-1.14,1.85c-1.13,3.08-2.07,6.68-4.25,9.21c-0.35,0.79-0.7,1.58-1.05,2.37
			c-0.46-0.46-0.74,0.37-1.03,0.81c-0.8,1.18-1.71,2.05-2.66,3.14c-1.85,2.13-3.57,4.71-5.97,6.3c-1.61,1.06-3.22,2.12-4.83,3.19
			c-3.08,1.09-6.16,2.19-9.23,3.28c-1.1,0.48-4.85,1.24-5.25,1.98c-1.66-0.15-3.33-0.31-4.99-0.46c-0.8,0.15-1.59,0.31-2.39,0.46
			c-0.53,0.26-1.05,0.53-1.58,0.79c-1.14-0.09-2.28-0.18-3.42-0.26c-1.14,0.18-2.28,0.35-3.42,0.53c-1.62-0.04-3.24-0.09-4.86-0.13
			c-0.74,0.92-0.76,1.43,0.38,1.98c0.35,0.26,0.7,0.53,1.05,0.79c1.4,0,2.16-0.34,3.42,0.53c0,0.44,0,0.88,0,1.32
			c0.31,1.54,0.25,3.13-0.53,3.69c0,1.92-1.45,4-1,6.04c0.33,1.15,0.67,2.29,1,3.44c1.05,1.24,1.94,2.28,2.72,3.74
			c0.65,1.34,1.29,2.68,1.94,4.02c0.29,0.84,0.58,1.68,0.86,2.52c1.17,1.77,2.41,3.25,3.95,4.74c0.7,0.79,1.4,1.58,2.11,2.37
			c0,0.77-0.04,1.02,0.53,1.58c0,2.99,1.18,5.31,1.58,8.16c0.25,1.83-0.39,3.49-0.53,5.27c0,1.23,0,2.46,0,3.69
			c0.89,1.37,1.9,2.33,2.11,4.21c0.16,1.41-1.11,4.3-1.84,5.53c-0.18,0.53-0.35,1.05-0.53,1.58c-1.81,2.57-3.62,5.14-5.43,7.7
			c-0.74,1.38-1.47,2.77-2.21,4.15c-0.09,0.57-0.67,0.91-0.26,1.32c0.29,0.64,0.88,0.81,1.53,1.14c1.28,0.64,2.25,1.4,3.74,1.23
			c1.14-0.26,2.28-0.53,3.42-0.79c1.58,0.88,3.16,1.76,4.74,2.63c1.84,0.09,3.69,0.18,5.53,0.26c3.26-3.26,7.08-4.95,11.59-5.53
			c0.61-0.18,1.23-0.35,1.84-0.53c0.69-0.92,0.92-1.38,2.11-1.32c0.7,0.72,2.36,1.29,2.63,2.11c0.3-0.11,0.6-0.22,0.9-0.33
			c1.52-0.76,1.75-1.82,2.79-2.57c0.21-0.48,0.45-1.32,1.05-1.32c1.67-0.16,3.35-0.33,5.02-0.49c1.18-0.91,1.83-1.72,1.83-3.19
			c0-2.03-0.58-4.04,0.11-6.06c0.35-1.02,1.08-2.86,2-3.42c0.66-1.73,1.31-3.47,1.97-5.2c1.08-2.46,3.38-4.57,3.3-7.44
			c-2.55,0-4.81-2.72-4.41-5.21c0.43-2.1,1.53-4.52,3.14-6.25c1.53-0.42,2.6-1.3,3.91-2.24c0.35-1.14,0.7-2.28,1.05-3.42
			c0.14-0.96,0.08-2.45,0.79-3.16c0-0.95,0.34-3.37,1.05-3.95c-0.18-0.61-0.35-1.23-0.53-1.84c0.68,0.68,3.83,0.42,4.74,0
			c-0.31-0.53-0.79-0.27-0.66-0.46c0.45-0.62,0.7-1.2,1.45-1.38c-0.03-0.26-0.06-0.52-0.09-0.78c-0.13-0.76-0.51-2.11-1.49-2.11
			c-0.44-0.88-0.88-1.76-1.32-2.63c0-1.47-1.12-2.31-1.32-3.69c-0.2-1.39-0.15-3.11-0.85-4.44c-1.57-3.01-5.11-4.79-6-8.2
			c0-1.49,0-2.99,0-4.48c-0.44-2.63-0.88-5.27-1.32-7.9c-0.79-2.29-0.23-4.83-1.27-7c-0.93-2.6-1.86-5.2-2.79-7.8
			c-0.05-0.51-0.1-1.02-0.16-1.52c-1.03-1.03-0.97-1.99-2.41-2.55C250.51,188.82,250.64,188.75,250.29,189.52z"/>
            <circle cx="229.5" cy="239.16" r="1.586"/>
        </g>
        <g id="__Çilimli">
            <path d="
			M117.96,197.95c0.08,0.1,0.17,0.19,0.26,0.29c0.27,0.26,0.53,0.51,0.8,0.77c0.75,0.13,0.97,0.54,1.71,0.57
			c0.49,0.02,0.97,0.26,1.32,0.09c1.24,0.16,2.32-0.03,3.56,0.13c1.01-0.13,1.54,0.06,2.59-0.22c0.88,0,1.76-0.09,2.63-0.09
			c1.32,0.18,2.98,0.35,4.56,0.26c2.47,0.33,3.82-0.79,6.28-1.01c0.38-0.45,4.3-2,5-2.11c0.78-0.39,1.1-0.57,1.8-1.45
			c0.53-0.35,0.82-0.75,1.8-1.43c0.91-0.64,1.43-2.33,1.75-3.32c0.67-1.01,1.35-2.01,2.02-3.02c0.35-1.05,0.7-2.11,1.05-3.16
			c-0.09-0.53-0.18-1.05-0.26-1.58c-0.7-1.14-1.4-2.28-2.11-3.42c-2.16-2.34-4.78-3.89-6.85-6.32c-0.18-1.4-0.35-2.81-0.53-4.21
			c-0.18-1.49-0.35-2.98-0.53-4.48c-0.09-1.67-0.18-3.34-0.26-5c-0.7-1.84-1.4-3.69-2.11-5.53c-0.03-4.47-0.07-8.94-0.1-13.42
			c-0.05-0.27-0.24-1.46-0.3-1.73c-0.18,0.08-2.93,1.74-3.87,2.21c-1.18,0.59-3.82,1.77-4.44,2.91c-1.97,0.52-5.36,2.18-6.84,3.45
			c-0.64-0.31-2.95,0.74-3.97,0.78c-1.33,0.06-3.69-0.49-4.72,0.53c-1.89-0.5-5.47,0.2-7.37,0.79c-0.57-0.41-1.87-0.03-2.62-0.13
			c-0.88-0.15-1.75-0.3-2.63-0.45c-1.29-0.41-2.11-1.24-3.46-1.26l-0.52,0.53c0.53,0.61,1.05,1.23,1.58,1.84
			c0.59,0.59,2.11,1.76,2.11,2.63c1.26,1.26,2.95,3.35,2.95,5.24c0,1.51-0.54,2.43-1.11,3.71c-0.48,1.07-0.34,3.08-1.58,3.69
			c-0.48,3.08-1.24,6.3-0.79,9.48c0.35,1.32,0.7,2.63,1.05,3.95c0,1.21-0.2,1.88,0,3.16c-0.09,1.93-0.18,3.86-0.26,5.79l0.58,0.35
			c3.13,0.84,9.46,3.07,11.09,5.93C118.12,195.58,117.96,197.95,117.96,197.95z"/>
            <circle cx="126.26" cy="175.96" r="1.586"/>
        </g>
        <g id="__Gümüşova">
            <path d="
			M47.93,231.85c-0.81-1.55-2.2-0.78-3.79-1.37c-0.24-0.13-0.47-0.26-0.71-0.4c1.85-1.74,4.03-2.84,5.66-4.85
			c1.19-1.28,2.37-2.56,3.56-3.84c1.44-0.84,2.88-1.69,4.32-2.53c1.24-0.53,2.47-1.05,3.71-1.58c0.92-0.65,1.84-1.29,2.77-1.94
			c1.66-1.21,4.49-2.21,5.19-4.24c-0.15-0.52-0.3-1.04-0.44-1.56c-1.01-0.83-1.54-1.71-2.58-2.39c0.36-0.44-0.18-0.2-0.58-0.25
			c-0.47,1.27-2.68,1.09-3.81,0.44c-0.73-0.46-0.55-0.7-0.92-1.42c-0.27-0.54,0.34-3.54,0.81-4.13c-0.1-1.02-0.19-2.04-0.29-3.06
			c1.78-1.59,2.9-5.33,2.9-7.9c-0.35-0.61-0.7-1.23-1.05-1.84c-1.05-0.04-2.1-0.07-3.14-0.11c-1.06,0.39-2.12,0.77-3.18,1.16
			c-1.84,0-3.69,0-5.53,0c-1.46,0.5-2.78,1.12-4.21,1.58c-0.8,1.3-3.02,1.94-4.44,2.27c-0.82,0.27-2.49-0.92-3.19-1.51
			c-1.7-1.45-3.07-6.93-2.65-9.18c0.64-3.39,1.78-6.52,4.21-8.95c0.83-4.14,5.94-6.88,9.74-7.64v1.05c0.57,0,2.37,3.7,2.37,4.48
			c1.18,1.18,1.71,2.17,2.63,3.42c0.35,0.26,0.7,0.53,1.05,0.79c0,0.94,2.01,3.28,2.71,3.85c0.5,0.3,1,0.59,1.51,0.89
			c0.61,0.7,1.23,1.4,1.84,2.11c1-0.02,2.05,1.05,2.9,1.58c0.61,0,1.23,0,1.84,0c0.84-0.74,2.6-0.79,3.69-0.79
			c0.5,0.22,1,0.44,1.5,0.66c3.61,2.64,6.89,3.59,11.09,4.67c1.46,0.4,1.24,2.18,2.16,3.09c1.4,1.4,4.66,1.4,6.47,0.69
			c0.3-0.23,0.6-0.46,0.91-0.69c0.44,0,0.88,0,1.32,0c0.6-0.71,1.2-1.41,1.8-2.12c0.54-0.35,1.08-0.7,1.62-1.05
			c2.1-0.42,4.19-0.83,6.29-1.25c0.54-0.2,1.08-0.4,1.61-0.59l0.58,0.35c3.13,0.84,9.46,3.07,11.09,5.93
			c0.86,1.9,0.65,2.7,0.44,4.79c-0.07,0.73-0.33,1.08,0.26,1.58c-0.1,0.04-3.67,1.6-4.48,2.9c0.44,0.97,0.83,1.82,1.27,2.79
			l-0.22,0.11c-2.44,0.64-5.35-0.59-7.64,1.05c-2.37,1.67-4.74,3.34-7.11,5c-2.28,1.67-4.57,3.34-6.85,5
			c-1.23,1.23-3.72,3.81-4.21,5.53c-0.51,0.44-1.42,0.94-1.58,1.58c-1.57,0.69-3.13,1.38-4.7,2.07c-2.73,0.63-5.47,1.25-8.21,1.88
			c-1.76,0.26-3.51,0.53-5.27,0.79c-0.8,0.22-5.3,0.49-5.79,0c-2.11,0.61-4.21,1.23-6.32,1.84c-2.03,0.59-4.06,1.18-6.09,1.77
			c-1.04,0.2-2.34,0.07-3.13,0.86C47.64,233.24,48.1,232.17,47.93,231.85z"/>
            <circle cx="85.96" cy="201.24" r="1.586"/>
        </g>
        <g id="__Düzce">
            <path d="
			M114.76,205.74c-0.44-0.97-0.83-1.82-1.27-2.79c0.81-1.3,4.37-2.85,4.48-2.9c-0.6-0.5-0.34-0.85-0.26-1.58l0.52-0.24
			c0.27,0.26,0.53,0.51,0.8,0.77c0.75,0.13,0.97,0.54,1.71,0.57c0.49,0.02,0.97,0.26,1.32,0.09c1.24,0.16,2.32-0.03,3.56,0.13
			c1.01-0.13,1.54,0.06,2.59-0.22c0.88,0,1.76-0.09,2.63-0.09c1.32,0.18,2.98,0.35,4.56,0.26c2.47,0.33,3.82-0.79,6.28-1.01
			c0.38-0.45,4.3-2,5-2.11c0.78-0.39,1.1-0.57,1.8-1.45c0.53-0.35,0.82-0.75,1.8-1.43c0.91-0.64,1.43-2.33,1.75-3.32
			c0.67-1.01,1.35-2.01,2.02-3.02c0.35-1.05,0.7-2.11,1.05-3.16c-0.09-0.53-0.18-1.05-0.26-1.58c-0.7-1.14-1.4-2.28-2.11-3.42
			c-2.16-2.34-4.78-3.89-6.85-6.32c-0.18-1.4-0.35-2.81-0.53-4.21c-0.18-1.49-0.35-2.98-0.53-4.48c-0.09-1.67-0.18-3.34-0.26-5
			c-0.7-1.84-1.4-3.69-2.11-5.53c-0.03-4.47-0.07-8.94-0.1-13.42l-0.44-1.59c1.63,0.03,4.46-0.98,6.07-1.59
			c0.69-0.26,3.94-0.78,4.48-0.53c1.58-0.35,3.16-0.7,4.74-1.05c3.92-0.32,7.84-0.64,11.76-0.96c3.18-0.67,6.03-2.39,9.04-3.25
			c0.79-0.44,1.58-0.88,2.37-1.32c3.42-1.36,6.32-1.88,9.48-3.95c1.06-0.69,4.48-0.79,5.79-0.79c0.68-0.19,1.37-0.38,2.05-0.57
			c0.63-0.43,1.27-0.85,1.9-1.28c0.95-0.53,4.68,0.2,5.53,0.79c0.46,0.02,1.84-0.16,1.84,0.26c0.44,0.18,0.88,0.35,1.32,0.53
			c0.95-0.03,1.97-0.13,2.86,0.31c1.72,0.87,3.97,1.09,5.05-0.31l-0.54,1.28c0.03,1.93,0.75,3.67,1.07,5.56
			c0.39,2.28,0.35,4.62,1.32,6.85c-0.27,0.71-0.54,1.43-0.81,2.14c0.09,0.08,0.19,0.15,0.28,0.23c0.09,0.53,0.18,1.05,0.26,1.58
			c-0.23,1.15-0.45,2.31-0.68,3.46c-0.46,2.01-0.91,4.02-1.37,6.02c-0.09,0.61-0.49,1.68-0.07,2.1c0,1.57,2.94,4.78,3.95,5.79
			c0.7,0.35,1.4,0.7,2.11,1.05c0,1.14,1.17,5.53,2.37,5.53c0.88,2.11,1.76,4.21,2.63,6.32c1.05,1.05,3.29,3.56,5.14,4.08
			c0.54,0.5,2.69,1.51,3.03,1.98c0.86,0.31,1.71,0.62,2.57,0.93c2.51,0.91,5.54,1.82,7.7,3.55c1.03,0.82,2.4,0.92,2.9,2.37
			c0.81,0.48,2.07,0.85,2.13,1.85l0.99,1.39c-0.67-0.25-0.54-0.32-0.9,0.44c-0.38,0.62-0.76,1.23-1.14,1.85
			c-1.13,3.08-2.07,6.68-4.25,9.21c-0.35,0.79-0.7,1.58-1.05,2.37c-0.46-0.46-0.74,0.37-1.03,0.81c-0.8,1.18-1.71,2.05-2.66,3.14
			c-1.85,2.13-3.57,4.71-5.97,6.3c-1.61,1.06-3.22,2.12-4.83,3.19c-3.08,1.09-6.16,2.19-9.23,3.28c-1.1,0.48-4.85,1.24-5.25,1.98
			c-1.66-0.15-3.33-0.31-4.99-0.46c-0.8,0.15-1.59,0.31-2.39,0.46c-0.53,0.26-1.05,0.53-1.58,0.79c-1.14-0.09-2.28-0.18-3.42-0.26
			c-1.14,0.18-2.28,0.35-3.42,0.53c-1.62-0.04-3.24-0.09-4.86-0.13c-0.74,0.92-0.76,1.43,0.38,1.98c0.35,0.26,0.7,0.53,1.05,0.79
			c1.4,0,2.16-0.34,3.42,0.53c0,0.44,0,0.88,0,1.32c0.31,1.54,0.25,3.13-0.53,3.69c0,1.92-1.45,4-1,6.04c0.33,1.15,0.67,2.29,1,3.44
			c1.05,1.24,1.94,2.28,2.72,3.74c0.65,1.34,1.29,2.68,1.94,4.02c0.29,0.84,0.58,1.68,0.86,2.52c1.17,1.77,2.41,3.25,3.95,4.74
			c0.7,0.79,1.4,1.58,2.11,2.37c0,0.77-0.04,1.02,0.53,1.58c0,2.99,1.18,5.31,1.58,8.16c0.25,1.83-0.39,3.49-0.53,5.27
			c0,1.23,0,2.46,0,3.69c0.89,1.37,1.9,2.33,2.11,4.21c0.16,1.41-1.11,4.3-1.84,5.53c-0.18,0.53-0.35,1.05-0.53,1.58
			c-1.81,2.57-3.62,5.14-5.43,7.7c-0.74,1.38-1.47,2.77-2.21,4.15c-0.09,0.57-0.67,0.91-0.26,1.32c0.29,0.64,0.88,0.81,1.53,1.14
			l-0.08,0.05c-1.4,0.53-1.81,0.53-2.5,1.98c-0.79,1.05-1.58,2.11-2.37,3.16c0,0.97-1.1,1.83-1.58,2.63
			c-0.18,0.53-0.35,1.05-0.53,1.58c-0.74,0.92-1.48,1.84-2.21,2.76c-0.36,0.32-0.96-0.76-1.19-1.05c-1.23-1.45-2.47-2.89-3.7-4.34
			c-0.7-0.18-1.4-0.35-2.11-0.53c-1.32-0.1-2.64-0.19-3.97-0.29c-0.52-0.17-1.04-0.33-1.56-0.5c-0.09-1.49-0.18-2.99-0.26-4.48
			c-0.7-0.79-1.4-1.58-2.11-2.37c0.5-0.5-0.62-1.18-1.05-1.58c-0.31-0.98-1.46-2.13-2.42-2.54c-0.36-0.16-0.49,0.19-0.74,0.44
			c-0.78-0.1-1.55-0.21-2.33-0.31c-0.94-0.86-1.88-1.73-2.82-2.59c-2.48-1.32-5.68-0.71-8.28-1.57c-1.84,0.79-3.69,1.58-5.53,2.37
			c-0.72-0.28-3.41,0.25-3.95,0.79c-1.6-1.2-1.76-3.51-2.37-5.27c-1.14-3.95-2.28-7.9-3.42-11.85c-0.48-1.54-2.59-1.97-4.06-1.74
			c-0.75,0.05-1.51,0.11-2.26,0.16c-1.63,0.65-2.85,1.27-4.61,1.27c-0.7,0.35-1.13,0.23-2.28,0.53l0.12-0.51
			c0.24-1.31,0.48-2.62,0.72-3.93c-0.83-0.83,0.09-2.43,0-3.42c-0.09-0.61-0.18-1.23-0.26-1.84c0.13-1.1,0.38-4.22-0.53-5
			c0.26-1.23,0.53-2.46,0.79-3.69c-0.36-3.87-2.9-7.89-2.9-11.59c-0.35-0.44-0.7-0.88-1.05-1.32c-0.35-0.79-0.7-1.58-1.05-2.37
			c-0.77,0-1.22-0.85-1.84-1.32c-1.03,0-5-1.88-5-2.9c-0.02-0.76-0.03-1.03,0.53-1.58c-0.18-0.88-0.35-1.76-0.53-2.63
			c-0.44-0.7-0.88-1.4-1.32-2.11c-0.44-0.26-0.88-0.53-1.32-0.79c-0.37-1.4-0.75-2.8-1.12-4.21c-0.49-1.32-2.47-2.71-1.81-4.25
			c0.37-0.92,0.62-1.93,1.61-2.35c0.73-3.48,0.79-7.41-0.53-10.8c-0.18,0-0.35,0-0.53,0c-0.61-0.88-1.23-1.75-1.84-2.63
			c-0.43-0.48-0.68-0.57-1.32-0.53c-0.68-0.92-0.97-2.03-1.05-3.16L114.76,205.74z"/>
            <circle cx="169.71" cy="202.55" r="1.586"/>
        </g>
    </g>
</svg>
