<?xml version="1.0" encoding="UTF-8"?>
<!DOCTYPE svg PUBLIC "-//W3C//DTD SVG 1.1//EN" "http://www.w3.org/Graphics/SVG/1.1/DTD/svg11.dtd">
<svg version="1.1" id="HaritaCizim" xmlns="http://www.w3.org/2000/svg" xmlns:xlink="http://www.w3.org/1999/xlink" x="0px" y="0px" viewBox="0 0 272 452" preserveAspectRatio="none">
    <defs id="__def">
        <radialGradient id="f">
            <stop offset="0" stop-color="white" stop-opacity="1"/>
            <stop id="STOP1" offset=".4" stop-opacity="1"/>
            <stop offset="1" stop-color="white" stop-opacity=".2"/>
        </radialGradient>
        <filter id="__flt1" x="0" y="0" width="200%" height="200%" filterUnits="objectBoundingBox">
            <feGaussianBlur in="SourceAlpha" stdDeviation="3" result="blur1"/>
            <feSpecularLighting result="specOut" in="blur1" specularConstant="1.5" specularExponent="20" lighting-color="#bbbbbb">
                <feDistantLight azimuth="45" elevation="30"/>
            </feSpecularLighting>
            <feComposite in="specOut" in2="SourceAlpha" operator="in" result="specOut"/>
            <feComposite in="SourceGraphic" in2="specOut" operator="arithmetic" k1="0" k2="1" k3="1" k4="0"/>
        </filter>
        <filter id="__flt2" x="0" y="0" width="200%" height="200%" filterUnits="objectBoundingBox">
            <feGaussianBlur in="SourceAlpha" stdDeviation="3" result="blur1"/>
            <feSpecularLighting result="specOut" in="blur1" specularExponent="20" lighting-color="#bbbbbb">
                <fePointLight x="-2000" y="100" z="2000"/>
            </feSpecularLighting>
            <feComposite in="specOut" in2="SourceAlpha" operator="in" result="specOut"/>
            <feComposite in="SourceGraphic" in2="specOut" operator="arithmetic" k1="0" k2="1" k3="1" k4="0"/>
        </filter>
        <filter id="__flt3" x0="-50%" y0="-50%" width="200%" height="200%" filterUnits="objectBoundingBox">
            <feGaussianBlur in="SourceAlpha" stdDeviation="3" result="blur"/>
            <feOffset in="blur" dx="0" dy="0" result="offsetBlur"/>
            <feSpecularLighting in="blur" surfaceScale="4" specularConstant=".5" specularExponent="20" lighting-color="flavor" result="specOut">
                <fePointLight x="-5000" y="-10000" z="5000"/>
            </feSpecularLighting>
            <feComposite in="specOut" in2="SourceAlpha" operator="in" result="specOut"/>
            <feComposite in="SourceGraphic" in2="specOut" operator="arithmetic" k1="0" k2="1" k3="1" k4="0" result="litPaint"/>
            <feMerge>
                <feMergeNode in="offsetBlur"/>
                <feMergeNode in="litPaint"/>
            </feMerge>
        </filter>
        <filter id="__flt4" x0="-50%" y0="-50%" width="200%" height="200%">
            <feGaussianBlur in="SourceAlpha" stdDeviation="2" result="blur"/>
            <feOffset dy="-1" dx="-1"/>
            <feComposite in2="SourceAlpha" operator="arithmetic" k2="-1" k3="1" result="hlDiff"/>
            <feFlood flood-color="white" flood-opacity=".7"/>
            <feComposite in2="hlDiff" operator="in"/>
            <feComposite in2="SourceGraphic" operator="over" result="withGlow"/>
            <feOffset in="blur" dy="3" dx="3"/>
            <feComposite in2="SourceAlpha" operator="arithmetic" k2="-1" k3="1" result="shadowDiff"/>
            <feFlood flood-color="black" flood-opacity="1"/>
            <feComposite in2="shadowDiff" operator="in"/>
            <feComposite in2="withGlow" operator="over"/>
        </filter>
        <filter id="__golge1" x="0" y="0" width="200%" height="200%" filterUnits="userSpaceOnUse">
            <feOffset result="offOut" in="SourceAlpha" dx="8" dy="8"/>
            <feGaussianBlur result="blurOut" in="offOut" stdDeviation="3"/>
            <feBlend in="SourceGraphic" in2="blurOut" mode="normal"/>
        </filter>
    </defs>
    <g id="__Komsular" display="none">
        <linearGradient id="SVGID_1_" gradientUnits="userSpaceOnUse" x1="37.2461" y1="468.1206" x2="107.648" y2="359.224">
            <stop offset="0" style="stop-color:#FFFFFF;stop-opacity:0"/>
            <stop offset="1" style="stop-color:#4577BB"/>
        </linearGradient>
        <path fill-rule="evenodd" clip-rule="evenodd" fill="url(#SVGID_1_)" d="M0.14,336.55c2.1,0.33,4.29,1.16,6.49,1.15   c2.37-0.01,4.43-0.87,6.63-1.01c2.5-0.16,4.76,1.04,7.21,1.29c2.67,0.27,3.65,1.16,5.66,2.85c3.6,3.02,3.98,7.43,6.7,10.89   c1.45,1.85,2.85,3.39,3.93,5.43c0.53,1.01,1.1,1.86,1.15,3.03c0.03,0.59-0.25,1.08-0.26,1.59c-0.01,0.54,0.35,1.26,0.29,1.73   c-0.14,1.04-3.5,2.6-0.49,3.63c0.03,0.28,0.1,0.7,0.02,0.98l0.36-0.43c0.62,0.57,1.26,1.97,1.88,2.54   c0.26,0.42,0.52,0.84,0.78,1.26c0.23,0.24,0.47,0.61,0.46,0.97c0.28,0.37,0.55,0.74,0.83,1.11c0.02,0.21,0.04,0.48,0.05,0.77   c0.01-0.06,0.03-0.11,0.06-0.17c0.1-0.19,0.21-0.48,0.44-0.45c0.46,0.09,0.93,0.17,1.39,0.26c0.12,0.09,0.23,0.18,0.35,0.27   c0,0.04,0,0.09,0,0.13c0.02,0.1,0.04,0.19,0.06,0.29c-0.21,0.14-0.42,0.28-0.63,0.42c-0.06,0.26-0.64,0.95-0.7,0.9   c-0.36-0.3-0.6-0.31-0.76-0.76c-0.07-0.18-0.15-0.35-0.19-0.52c0.04,0.84,0.05,1.71,0.04,1.75c-0.08,0.23-0.16,0.47-0.25,0.71   c0.65,1.08,1.4,2.09,1.67,3.35c0.27,1.1,0.54,2.2,0.82,3.29c-0.11,1.05-0.21,2.1-0.32,3.14c0.07,0.75,0.14,1.5,0.22,2.25   c0.04,1.23-0.42,2.3-0.98,3.37c0.08,0.16,0.17,0.31,0.25,0.47c0.55,1.1,1.1,2.21,1.64,3.31c2.11,2.73,4.69,4.89,7.74,6.44   c0.7,0.31,1.41,0.63,2.11,0.94c1.15,0.25,2.29,0.5,3.44,0.74c1.27,0.26,2.58,0.66,3.89,0.64c1.29-0.02,3.08-0.69,4.38-1.03   c1.08-0.17,2.15-0.33,3.23-0.5c1.89-0.23,3.79-0.46,5.68-0.69c1.25,0.09,2.49,0.18,3.74,0.28c0.78,0.07,1.55,0.15,2.33,0.22   c1.95,0.37,3.91,0.74,5.86,1.12c1.14,0.06,2.29,0.12,3.43,0.19c0.44,0.05,0.96-0.09,1.25,0.28c2.25-0.44,4.29-0.49,6.36-1.44   c0.23-0.07,0.46-0.14,0.7-0.22c0.78-0.6,1.57-1.2,2.35-1.8c0.83-0.19,1.67-0.38,2.5-0.57l0.64-0.39c0.41-0.04,1-0.09,1.44,0   c0.14-0.29,0.38-0.56,1.01-0.58c0.43,0.11,1.04,0.63,1.47,0.74c1.8,0.64,3.59,1.27,5.39,1.91c1.06-0.23,2.12-0.46,3.18-0.69   c0.97-0.91,1.64-2.01,2.63-2.91c0.55-0.17,1.1-0.34,1.65-0.51c0.71-0.33,2.02-0.29,2.78-0.19c3.15,0.42,6.3,2.97,8.58,4.98   c0.35-0.1,0.77,0.15,1.11,0.28c0.4-0.29,1.95-0.72,2.45-0.59c0.74,0.2,1.07,1.55,1.84,1.55c0.47,0,0.94-0.57,1.31-1.02   c0.9-1.04,1.8-2.08,2.7-3.12c0.6-0.37,1.2-0.74,1.79-1.11c0.23,0.09,0.46,0.18,0.69,0.28c0.14-0.37,0.32-0.32,0.69-0.42   c0.27-0.74,1.33-1.46,1.94-1.94c-0.06-0.29,0.27-0.58,0.45-0.81c0.68-0.65,1.36-1.3,2.04-1.95c0.65-0.09,1.29-0.18,1.94-0.28   c0.31-0.5,1.88-1.45,2.49-1.52c0.78,0.14,1.57,0.28,2.35,0.42c0.6,0,1.2,0,1.8,0c0.26-0.69,1.97-0.61,2.62-0.58   c1.52,0.09,2.94,0.22,4.44-0.12c0.28,0.28,1.26,0.18,1.69,0.13c0.64-0.14,1.27-0.27,1.91-0.41c0.55,0.14,1.11,0.28,1.66,0.41   c0.25-0.17,0.66-0.04,0.97,0c0.4-0.2,0.81-0.41,1.21-0.61c0.89-0.4,1.3-1.1,2.19-1.49c0.08-0.39,1.33,0.76,1.73,0.48   c1.54-1.25,2.11-0.07,3.6,0.09c0.37-0.32,0.73-0.63,1.1-0.95c0.75-0.84,1.26-1.45,2.79-1.64l0.58-0.53   c2.1-0.11,4.28-0.96,6.63-0.58c2.27,0.37,3.55,2.23,4.75,4.04c1.29,1.95,0.99,4.07,1.58,6.34c0.56,2.17,1.44,4.23,1.89,6.34   c0.73,3.46-4.5,6.59-6.92,8.52c-0.8,0.64-1.5,0.94-2.34,1.69c-0.8,0.71-1.38,1.31-2.42,1.76c-1.87,0.81-4.55,0.52-6.61,0.41   c-0.04-0.86,0.06-1.76-0.19-2.55c-0.59,0.01-1.77,1.53-2.29,2c-0.85,0.76-1.65,1.22-2.59,1.83c-2.4,1.57-2,3.3-2.71,5.69   c-0.76,2.58-2.73,2.85-5.22,2.85c-2.55,0-4.45-0.03-6.77,0.58c-3.95,1.05-9.02,1.01-12.54,3.17c-1.88,1.15-3.53,1.96-5.34,3.28   c-1.68,1.22-3.54,1.96-5.21,3.06c-0.95,0.63-1.99,1.04-2.85,1.77c-0.83,0.7-1.35,1.46-2.31,2.1c-0.9,0.6-1.61,1.4-2.44,1.9   c-1.04,0.63-2.24,0.67-3.43,1.04c-4.05,1.27-9.08,2.79-11.97,6.02c-0.62,0.69-1.75,2.24-1.61,2.88h0.14H0L0.14,336.55z"/>
        <path fill-rule="evenodd" clip-rule="evenodd" fill="none" stroke="#000000" stroke-width="0.25" stroke-miterlimit="10" d="   M102.05,104.06c-1.35,0.83-2.42,0-3.61-0.44c-1.31-0.48-1.82-0.14-2.99,0.33c-2.15,0.87-5.77,0.76-7.82-0.04   c-3.96-1.54-7.31-3.42-9.4-7.06c-0.39-0.68-0.91-0.94-0.86-1.85c-1.76-1.28-1.16,3.73-3.41,3.69c-0.78-0.01-2.25-0.97-3.21-1.13   c-1.04-0.17-2.25,0.1-3.13-0.61c-0.87-0.7-0.77-2.04-2.05-2.27c-0.87-0.16-2.5,0.46-3.2,0.82c-1.11,0.58-1.92,1.31-3.14,1.81   c-0.99,0.4-2.03,0.73-2.89,1.37c-1.87,1.38-2.69,3.84-3.04,6.07c-1.76-0.38-3.08-0.96-5.16-0.85c-2.7,0.15-2.28,1.65-3.75,3.31"/>
        <path fill-rule="evenodd" clip-rule="evenodd" fill="none" stroke="#000000" stroke-width="0.25" stroke-miterlimit="10" d="   M224.27,27.38c1.58-1.15,4.78-2.36,5.34-4.6c0.35-1.38-0.57-2.66-0.44-3.9c0.13-1.27,1.3-1.47,2.45-1.71   c0.32,0.36,0.55,0.64,0.6,1.11c1.6,0.28,1.4-2.23,1.96-3.14c0.7-1.14,1.9-1.99,2.74-3.04c1.01-1.26,1.11-1.81,0.57-3.28   c-0.47-1.27-0.59-2.39-0.51-3.9c0.53,0.06,0.96,0.53,1.54,0.38c0.31-0.08,0.58-0.69,0.89-0.84c1.08-0.49,2.17-0.03,3.31-0.29   c1.15-0.26,1.95-2.04,3.02-2.17c0.71-0.09,2.11,0.95,3.15,0.98c1.07,0.03,2.18-0.37,3.35-0.26c1.51,0.15,1.49,0.8,2.74,1.44   c1.28,0.66,1.59,0.24,2.31,1.72c0.43,0.88,1.11,2.06,1.31,3.01c1.06-0.1,2.35-0.77,3.33-0.81c0.89-0.04,0.91,0.27,1.59,0.5   c0.85,0.29,0.58,0.33,1.55,0.18c0.91-0.15,2.32-1.46,3.18-1.29c1.01,0.2,0.99,1.98,2.31,2.3"/>
        <path fill-rule="evenodd" clip-rule="evenodd" fill="none" stroke="#000000" stroke-width="0.25" stroke-miterlimit="10" d="   M217.79,212.3c1.86-0.99,3.8-1.62,5.45-3.31c1.5-1.54,2.23-3.71,3.6-5.33c1.38-1.64,2.18-3.56,4.48-4.07   c1.94-0.43,4.53,0.21,6.38,1.03c0.88,0.39,1.62,1.19,2.45,1.71c0.96,0.6,2.02,0.87,3.01,1.37c0.97,0.48,1.69,1.14,2.6,1.55   c0.98,0.44,2.27,0.55,3.14,1.3c1.88,1.64,1.73,4.04,2.3,6.2c0.61,2.31,1.5,4.4,1.73,6.77c0.12,1.19-0.35,2.28,1.05,2.88   c1.07,0.46,2.3-0.42,2.99-1.18c1.45-1.6,1.53-4.13,1.03-6.01c-0.27-1.03-0.3-2.11-0.57-3.18c-0.23-0.91-1.59-2.39-0.18-2.59   c0.92-0.13,2,1.27,2.92,1.55c1.24,0.39,2.3,0.12,3.46-0.22c2.19-0.63,4.52-1,6.49-2.05"/>
        <path fill-rule="evenodd" clip-rule="evenodd" fill="none" stroke="#000000" stroke-width="0.25" stroke-miterlimit="10" d="   M189.68,365.09c2.39,0,4.74-0.15,7.06-0.14c2.44,0,4.47-0.49,6.77-0.58c1.39-0.05,2.66,0.05,4,0.32c1.31,0.26,2.01-0.1,3.32-0.36   c2.21-0.44,4.76-0.25,7.09-0.25c4.39,0,9.27,0.69,12.72,3.28c0.88,0.66,1.85,1.26,2.41,2.2c0.49,0.83,0.46,1.93,0.87,2.87   c0.92,2.13,1.4,4.16,1.15,6.64c-0.21,2.1-1.63,3.77-2.42,5.65c-0.46,1.08-0.51,1.96-1.22,3c-0.76,1.1-1.77,2.07-2.44,3.17   c-1.17,1.91-2.44,3.72-3.39,5.66c-0.48,0.99-0.87,2.05-1.3,3.03c-0.43,0.97-0.92,1.74-1.48,2.71c-1.29,2.24-2.04,4.96-3.28,7.35   c-1.33,2.57-1.28,5.14-1.76,7.93"/>
        <text transform="matrix(0.4575 -0.8892 0.8892 0.4575 206.1919 417.3843)" font-family="'MyriadPro-Regular'" font-size="10.3777">Çanakkale</text>
        <text transform="matrix(0.3212 -0.947 0.947 0.3212 240.1582 315.6929)" font-family="'MyriadPro-Regular'" font-size="10.3777">Tekirdağ</text>
        <text transform="matrix(0.094 0.9956 -0.9956 0.094 255.792 92.1689)" font-family="'MyriadPro-Regular'" font-size="10.3777">Kırklareli</text>
        <text transform="matrix(0.882 -0.4712 0.4712 0.882 93.0986 36.2026)" font-family="'MyriadPro-Regular'" font-size="10.3777">Bulgaristan</text>
        <text transform="matrix(0.4044 -0.9146 0.9146 0.4044 36.4058 226.2603)" font-family="'MyriadPro-Regular'" font-size="10.3777">Yunanistan</text>
        <linearGradient id="SVGID_2_" gradientUnits="userSpaceOnUse" x1="213.0049" y1="409.0942" x2="248.0934" y2="452.399">
            <stop offset="0" style="stop-color:#4577BB"/>
            <stop offset="1" style="stop-color:#FFFFFF;stop-opacity:0"/>
        </linearGradient>
        <path fill-rule="evenodd" clip-rule="evenodd" fill="url(#SVGID_2_)" d="M167.39,451.14h103.54v-68.89l-1.39,0.67   c-0.37,0.06-0.76,0.25-1.06,0.38c-2.72,1.21-4.75,3.41-7.4,4.79c-1.36,0.71-2.84,1.03-4.13,1.87c-1.32,0.86-2.56,1.89-3.63,2.96   c-2.06,2.06-4.47,3.89-6.62,5.69c-1.06,0.89-2.17,1.76-3.2,2.64c-1.56,1.35-3.42,2.11-4.67,3.72c-1.28,1.65-3.21,2.56-4.58,4.11   c-1.65,1.87-3.09,3.77-5.65,4.62c-1.12,0.37-2.34,0.31-3.46,0.71c-1.12,0.41-2.17,1.14-3.2,1.67c-1.95,0.99-3.8,1.5-5.7,2.24   c-1.83,0.72-4.03,1.51-5.83,2.67c-1.66,1.07-3,2.77-4.76,3.75c-1.78,0.99-3.78,1.45-5.58,2.38c-2.06,1.07-3.99,1.2-6.06,2.08   c-1.97,0.84-3.81,1.88-5.76,2.63c-2.04,0.79-4.35,0.92-6.21,2.05c-1.9,1.16-3.12,2.37-4.49,3.96c-1.54,1.78-3.45,2.45-5.37,3.61   c-2.17,1.31-0.88,3.86-0.65,5.94c0.38,3.41-1.2,2.84-3.87,3.48L167.39,451.14z"/>
    </g>
    <g id="__Harita" display="none">
        <rect id="__cer" x="0" y="0" fill="#000000" opacity="0" width="272" height="452"/>
        <g id="__Lalapaşa">
            <path d="M225.57,58.01    c-0.32-0.05-0.76-0.31-1.08-0.36c-0.28,0.14-0.74,0.42-1.02,0.56c-1.04,0.48-2.17,0.54-2.94,1.32c-1.58,0-4.18,2.26-5.36,3.26    c-0.69,0.92-1.23,1.23-1.92,2.15c-0.23,0.09-2.13,1.18-2.45,1.37c-0.69,0-0.75,0.08-1.44,0.08c-0.46,0.09-0.77,0.12-1.23,0.21    c-0.32-0.05-0.81-0.02-1.13-0.07c-0.92,0.09-1.85,0.18-2.77,0.28c-0.97,0.36-1.94,0.71-2.91,1.07c-0.55,0.24-1.1,0.49-1.66,0.73    c-0.25,0.21-0.04,0.37-0.31,0.51c-0.45,0.24-1.32,0.37-1.77,0.74c-0.83,0.78-1.82,1.08-2.65,1.87c-0.72,0.65-1.67,1.55-2.33,2.29    c-0.94,1.05-1.22,2.22-1.89,3.41c-0.31,0.44-0.61,0.88-0.92,1.31c-0.05,1.28-0.1,2.56-0.15,3.84c-0.17,0.46-0.33,0.93-0.5,1.39    c-0.65,1.06-1.32,1.57-2.21,2.45l-0.24,0.37c0.38,0.07-1.54,0.58-2.12,1.05c-1.08,0.7-2.16,1.4-3.24,2.1    c-0.46,0.24-1.49,0.79-1.99,0.46c-1.01-0.7-1.79-1.41-2.64-2.28c-0.42-0.32-0.85-0.65-1.27-0.97c-1.6-1.93-2.18-4.35-4.72-5.2    c-0.5-0.14-0.79-0.07-1.23-0.48c-1.23-0.61-2.37-1.3-3.74-1.86c-1.11-0.35-2.21-0.7-3.32-1.05c-2.03-1.18-4.21-1.79-6.4-2.69    c-0.84-0.35-3.67-1.29-3.71-2.28c0.05-2.31,0.1-4.62,0.15-6.93c-0.37-0.69-0.74-1.38-1.11-2.08c-0.2-0.56-0.4-1.13-0.61-1.69    c-0.3-0.79-0.6-1.58-0.9-2.37c-0.58-0.17-0.83-1.71-1.32-2.62c-0.28-0.15-0.95-1.62-1.24-2.05l-0.07-0.29    c-0.14-1.08,0.41-1.6,0.96-1.91c0.01-0.29,0.34-0.68,0.41-1.04c-0.05-0.04-2.19-1.16-2.9-2.14c-0.26-0.56-0.53-1.12-0.79-1.67    c-0.48-0.52-0.82-1.73-0.36-2.29c0.41-0.45,0.83-0.89,1.24-1.34c0.24-1.06,1.42-2.02,2.02-2.82c0.36-0.43,0.72-0.86,1.08-1.28    c1.06-0.93,2.17-1.6,3.32-2.35c0.88-0.77,1.76-1.54,2.64-2.31c0.71-0.71,0.72-1.51,1.16-2.34c-0.05-0.18,0.34-1.15,0.43-1.23    c0.24-0.18,0.51-0.43,0.77-0.24c0.5,0.35,1.01,0.6,1.64,0.58c0.52,0.53,0.61,0.86,1.41,1.06c0.34,0.08,0.95,0.15,1.21-0.09    c1,0.42,1.92,0.59,2.77,1.25c0.46,0.35,0.99,0.14,1.25,0.69c0.29-0.23,0.58-0.32,0.69-0.69c1.04-0.07,2.05,0.16,3.04,0.42    c0.23,0,0.46,0,0.69,0c0.28,0.14,0.55,0.28,0.83,0.42c0.94,0.16,3.4,0.35,4.15-0.28c0.72,0.17,1.71,0.54,2.21,1.11    c1.26,0.41,2.7,0.41,4.01,0.55c0.46,0.05,0.85,0.62,1.18,0.43c0.9-0.53,0.8-1.56,1.45-2.37c0.28-0.14,0.55-0.28,0.83-0.42    c0.4-0.28,1.17-0.94,1.24-1.38c0.32-0.28,0.65-0.55,0.97-0.83c0.51-0.32,1.02-0.65,1.52-0.97c0.47-0.64,0.55-2.68,1.6-2.19    c0.82,0.45,1.22,1.27,1.86,1.92c1.16,0.32,1.14,0.78,1.96,1.31c0.59,0.39,1.18,0.79,1.77,1.18c0.88,0.14,1.75,0.28,2.63,0.42    c0.89,0.27,1.53,0.55,2.49,0.55c0.31,0,0.8-0.03,0.85-0.41c0.17-1.07-0.08-2.33,1-2.78c0.7-0.28,1.38-0.26,2.01-0.69    c0.74-0.55,1.49-1.1,2.23-1.65c1.34,0.24,2.68,0.48,4.03,0.71c0.64,0.04,1.28,0.08,1.92,0.12c0.79-0.27,2.42-0.91,2.77-1.66    c0.42-0.14,0.83-0.28,1.25-0.42c0.61-0.48,0.98-1.39,1.8-1.43c0.37-0.03,0.74-0.06,1.1-0.1c0.55,0.05,1.1,0.11,1.66,0.16    c0.86-0.03,1.51-0.17,2.38,0.07c0.5,0.14,1.52,0.57,1.53,0.7c0.16,1.06,0.54,2.6,1.45,3.25c0.69,0.49,2.87,1.84,3,2.61    c0.3,1.81-2.31,2.27-3.25,3.74c-0.65,0.1-1.12,1.19-1.59,1.51c0.01-0.33,0.36,0.94,0.38,0.95c0.2,0.45,0.33,1.18,0.8,1.4    c0.09,0.32,0.18,0.65,0.28,0.97c0.05,0.88,0.09,1.75,0.14,2.63c-0.05,0.46-0.09,0.92-0.14,1.38c-0.36,1.69-0.52,2.69-1.32,4.29    c-0.25,0.69-0.53,0.95-0.79,1.64c0.42,1.01,0.86,2.46,1.27,3.48C225.93,57,225.57,58.01,225.57,58.01z"/>
            <circle cx="179.09" cy="70.26" r="1.586"/>
        </g>
        <g id="__Süloğlu">
            <path d="M186.94,86.4    c0.88-0.88,1.56-1.39,2.21-2.45c0.17-0.46,0.33-0.93,0.5-1.39c0.05-1.28,0.1-2.56,0.15-3.84c0.31-0.44,0.61-0.88,0.92-1.31    c0.67-1.19,0.95-2.37,1.89-3.41c0.66-0.74,1.61-1.64,2.33-2.29c0.83-0.78,1.82-1.08,2.65-1.87c0.45-0.37,1.32-0.5,1.77-0.74    c0.26-0.14,0.06-0.29,0.31-0.51c0.55-0.24,1.1-0.49,1.66-0.73c0.97-0.36,1.94-0.71,2.91-1.07c0.92-0.09,1.84-0.18,2.77-0.28    c0.32,0.05,0.81,0.02,1.13,0.07c0.46-0.09,0.77-0.12,1.23-0.21c0.69,0,0.75-0.08,1.44-0.08c0.32-0.18,2.22-1.28,2.45-1.37    c0.69-0.92,1.23-1.23,1.92-2.15c1.19-0.99,3.78-3.26,5.36-3.26c0.78-0.78,1.91-0.84,2.94-1.32c0.28-0.14,0.74-0.42,1.02-0.56    c0.32,0.05,0.76,0.31,1.08,0.36c0.22,1.01,0.29,2.13,0.48,2.7c0.46,1.43,1.35,3.07,1.15,4.7c-0.16,1.34-0.55,3.25-0.34,4.55    c0.08,0.5,0.88,0.66,1.34,0.76c1.33,0.25,2.65,0.49,3.98,0.74c0.65,0.22,1.25,2.43,1.47,3.1c0.53,1.58,0.6,3.21,0.87,4.83    c0.34,2.07,0.9,3.65,0.97,5.81c-0.09,0.65-0.18,1.29-0.28,1.94c-0.48,0.86-0.97,1.73-1.45,2.59c-0.42,0.55-0.89,0.77-1.45,1.14    c-0.19,0.28-0.37,0.56-0.56,0.85c-0.41,0.87-0.83,1.74-1.24,2.61c-0.21,1.15-0.42,2.29-0.64,3.44c-0.16,0.47-0.31,0.94-0.47,1.41    c0.05,0.37,0.09,0.74,0.14,1.11c-0.14,0.69-0.28,1.38-0.42,2.08c-0.28,0.28-1.11,1.75-1.11,2.21c-0.37,0.69-0.74,1.38-1.11,2.08    c0.24,0.21,0.24,1.03,0.35,1.4c0.46,1.64,0.51,3.79-0.48,5.24c-0.6,0.65-1.1,0.89-1.7,1.54c-0.69,0.28-1.42,0.44-2.11,0.72    c-0.63,0.44-2.34,0.86-3.12,0.96c-0.64,0.14-1.53,0.68-2.1,0.68l0.03-0.03c-0.03-0.19,0.17-0.64,0.14-0.83    c-0.06-0.22-0.73-0.81-0.79-1.03c-0.37-0.47-0.36-0.72-0.59-1.33c-0.28-0.51-0.21-1.12-0.49-1.63c-0.88-1.01-1.93-2.16-2.81-3.17    c-0.88-0.83-1.43-1.33-2.31-2.16c-0.46-0.32-1.4-0.74-1.87-1.06c-0.46-0.09-0.92-0.19-1.38-0.28c-1.81,0.34-3.6,0.93-5.28,1.73    c-1.45,0.69-2.85,1.59-4.43,1.96c-0.92,0.25-0.71,0.02-1.63,0.27l-0.01-0.08c-0.05-0.05-0.05-0.51,0-0.69    c-0.09-0.37-0.19-0.74-0.28-1.11c-1.14-2.47,0.27-4.13,0-6.64c-0.3-2.76-2.52-4.26-4.12-6.27c-0.79-1.14-1.59-2.27-2.39-3.41    c-0.19-0.38-0.39-0.76-0.58-1.14c-0.5-0.81-0.99-1.63-1.49-2.44c-0.37-0.45-0.22-0.49-0.79-1.07L186.94,86.4z"/>
            <circle cx="214.62" cy="89.07" r="1.586"/>
        </g>
        <g id="__Uzunköprü">
            <path d="M150.13,283.06    c0.03,0.12,0.06,0.24,0.09,0.36l0.05,0.06c0.11,0.55,0.22,1.1,0.34,1.64l-0.21,0.4c1.74-0.47,2.78-1.78,4.62-1.72    c0.51,0.02,1.97,0.13,2.23,0.58c0.51-0.06,1.01-0.07,1.73-0.22c0.11,0.15,0.51,0.6,0.62,0.75c0.48,0.68,0.63,1.58,1.25,2.23    c0.54,0.57,1.51,0.44,1.88,0.84c0.96,0.03,1.42,0.27,2.31-0.22c0.78-0.43,1.37-1.29,2.23-1.51c0.94-0.1,2.31,0.02,3.24-0.07    l-0.44-0.87c-0.19-0.8-0.39-1.59-0.58-2.39c-0.07-0.75,0.04-1.5-0.26-2.2c0.57-0.57,0.79-1.22,1.11-1.94    c0.45-0.1,0.7-0.61,0.97-0.97c0.52-0.02,0.78-0.48,1.24-0.69c1.04-0.48,1.86-1.22,3.04-1.38c1.56-0.22,3.03,0.26,4.57,0.28    c0.92,0.01,1.84,0.01,2.76,0.02c1.82,0.11,3.64,0.41,5.4-0.07c0.92-0.21,1.85-0.43,2.77-0.64c1.97-1.13,4.07-2.1,5.95-3.46    c0.42-0.51,0.83-1.01,1.25-1.52c0.68-0.97,1.36-1.93,2.04-2.9c0.33-0.18,0.84-1.81,1.66-1.68c0.14,0.09,1.77-0.17,2.26-0.22    c0.27-0.03,0.49,0.01,0.69-0.19c0.71-0.05,2.37,0.16,2.91-0.25c1.66,0.11,3.06-0.01,4.53-0.9c0.34-0.68,0.67-1.35,1.01-2.03    c0.72-1.55,0.74-3.67,0.89-5.41c0.11-1.01,0.23-2.03,0.34-3.04c0.34-0.3,0.5-1.51,0.97-2.08c1.42-0.47,3.18-2.41,4.01-3.6    c0-0.7,0.13-1.32,0.33-1.99c0.41-1.33,0.86-2.4,0.77-3.82c-0.17-0.41-0.33-0.82-0.5-1.23c-0.36-0.98-0.83-1.88-1.02-2.92    c0.18-0.51,0.37-1.02,0.55-1.52c0.97-0.88,1.94-1.75,2.91-2.63c-0.03-0.67,0.9-2.38,1.25-3.04c0.09-1.07,0.18-2.13,0.27-3.2    c0.11-1.92-2.77-2.63-3.84-3.41c-1.06-0.74-0.83-0.38-1.13-0.86c-0.17-0.19-0.42-0.39-0.55-0.69c-1.22-1.95-1.42-4.38-1.25-6.64    c0.14-0.97,0.28-1.94,0.41-2.91c-0.31-1.71-0.63-3.42-0.94-5.13c-0.14-0.59,0-1.38-0.44-1.93c-0.74-0.6-1.48-1.2-2.21-1.8    c-0.28-0.46-0.7-0.47-0.97-0.93c-0.23,0-1.02-1-1.35-1.25c-1.02-0.82,0.74-3.64,0.1-5.02c-0.53-1.23-1.06-2.45-1.59-3.68    c-0.24-0.45-0.48-0.89-0.71-1.34c-0.39-0.81-0.49-1.4-0.87-2.36c-0.67-0.87-1.22-1.94-1.39-2.45c-0.14-0.51-0.28-1.01-0.42-1.52    c0.3-0.64,0.06-1.32-0.14-1.94l0.19-0.16c-0.42,0.15-1.65-0.71-2.09-0.79c-1.18-0.21-2.04-0.14-2.94-0.99    c-0.28-0.23-0.55-0.46-0.83-0.69c-0.69-0.29-1.67-1.06-2.35-1.35c-1.25-0.68-2.61-1.65-2.74-1.8c-0.77-0.49-1.9-1.17-2.67-1.66    c-1.54-0.65-4.32-1.03-5.98-0.81c-0.82-0.06-1.65-0.12-2.47-0.17c-2.4-0.33-4.29-0.91-6.69-1.25c-1.53-0.12-3.3-0.02-4.83,0.07    c-1.15,0-2.45,0.07-3.6,0.07c-0.14,0-1.09,0.07-1.23,0.07l-0.07-0.08c-0.25,0.16-0.51,0.32-0.76,0.48    c-0.87,0.51-1.75,0.65-2.74,0.86c-2.42,0.75-4.84,1.5-7.25,2.25c-1.23,0.22-2.48,1.08-3.68,0.35c0,0,0.1,2.07,0.42,2.69    c-0.22,0.51,0.65,1.26,1,1.59c0.25,0.23,0.19,0.23,0.59,0.12c0.35,0.17,0.69,0.34,1.04,0.51c-0.38,0.38,0.72,1.15,0.83,1.66    c-0.05,0.37-0.09,0.74-0.14,1.11c0.09,0.46,0.18,0.92,0.28,1.38c0.04,0.97,0.07,1.93,0.11,2.9c0.19,1.02,0.39,2.04,0.58,3.05    c-0.39,0.58-0.29,1.34-0.37,1.95c-0.19,1.46-0.48,2.86-0.29,4.35c-0.72,1.21-0.86,2.46-1.13,3.81c-0.23,0.37-0.46,0.74-0.69,1.11    c-0.92,0.78-1.85,1.57-2.77,2.35c-0.45,0.2-0.91,0.4-1.36,0.59c-0.32,0.19-0.83,0.72-0.95,1.07c-0.97,0.65-1.86,1.24-3.08,1.24    c-0.27-0.07-0.55-0.15-0.82-0.22c-1.92-0.47-2.7-2.03-3.88-3.51c-0.94-0.05-0.93-0.82-1.66-1.44c-0.13,0-0.48-0.48-1.25-0.19    c0.1,0.58,0,1.7,0,2.19c0,1.65-0.19,3.42,0.42,4.93c0.34,0.84,1.24,1.38,1.93,1.99c0.12,0.43,1.39,2.57,1.72,2.72    c0.71,0.99,1.42,1.98,2.13,2.98c0.17,0.5,0.34,1,0.51,1.5c0.54,1.46-0.13,3.28-0.54,4.73c-0.43,1.52-0.3,2.99-0.16,4.54    c0.07,0.7,0.75,4.35,0.87,5.96c0.04,0.48,0.48,1.44,0.19,1.82c-0.01,0.32-0.01,0.63-0.02,0.95c-0.65,2.17-1.39,4.23-2.91,5.95    c-0.83,0.69-1.66,1.38-2.49,2.08c-0.66,0.36-1.32,0.74-1.8,1.38c-1.31,1.75-1.79,2.97-4.17,3.52c-0.13,0.03-1.04,0.51-1.27,0.93    c-0.31,0.53-0.13,1.34-0.44,1.87c0.07,0.75,0.14,1.51,0.21,2.26c-0.05,1.52-0.09,3.04-0.14,4.57c-0.37,1.15-0.74,2.31-1.11,3.46    c-0.18,0.37-1.03,3.32-1.21,3.69c-0.63,2.64-1.68,5.08-1.69,5.16c0.33-0.27,0.91-0.05,1.39-0.03c1.42,0.27,2.85,0.55,4.27,0.82    c1.24,0.31,2.75,1.66,3.86,2.35c1.42,0.88,4.03,1.09,5.15,2.25c0.73,0.75,1.52,1.2,2.41,1.81c0.31,0.21,0.42,0.5,0.75,0.62    l0.52,0.61L150.13,283.06z"/>
            <circle cx="170.51" cy="224.27" r="1.586"/>
        </g>
        <g id="__Meriç">
            <path d="M130.59,273.25    c0.01-0.08,1.1-2.26,1.73-4.89c0.18-0.37,1.03-3.33,1.21-3.69c0.37-1.15,0.74-2.31,1.11-3.46c0.05-1.52,0.1-3.04,0.14-4.57    c-0.07-0.75-0.14-1.51-0.21-2.26c0.31-0.53,0.13-1.34,0.44-1.87c0.23-0.42,1.13-0.9,1.27-0.93c2.38-0.55,2.86-1.76,4.17-3.52    c0.48-0.65,1.14-1.02,1.8-1.38c0.83-0.69,1.66-1.38,2.49-2.08c1.51-1.72,2.26-3.78,2.91-5.95c0.01-0.32,0.01-0.63,0.02-0.95    c0.29-0.39-0.15-1.35-0.19-1.82c-0.13-1.61-0.81-5.25-0.87-5.96c-0.15-1.54-0.28-3.01,0.16-4.54c0.41-1.45,1.08-3.27,0.54-4.73    c-0.17-0.5-0.34-1-0.51-1.5c-0.71-0.99-1.42-1.98-2.13-2.98c-0.33-0.15-1.6-2.29-1.72-2.72c-0.69-0.61-1.6-1.15-1.93-1.99    c-0.6-1.51-0.42-3.28-0.42-4.93c0-0.48,0.09-1.61,0-2.19l-0.55-0.03c-0.78,0.46-1.57,0.92-2.35,1.38c-0.3-0.2-0.61-0.11-0.97-0.14    c-0.29-0.72-0.67-0.56-1.26-0.56c-0.43,0.02-0.26,2.06-0.26,2.5c-0.15,0.18-0.29,0.36-0.44,0.54c-0.56,0.74-2.24,0-2.88-0.26    c-1,0.56-2.08,2.35-2.21,3.46c-0.09,0.73-0.05,1.37-0.28,2.06c-0.36,1.18-2.44,1.16-3.46,1.74c-0.81,0.16-1.67,0.16-1.46,1.64    c0.01,0.26,0.03,0.51,0.04,0.77c0.05,0.69-0.34,1.48-0.2,2.13c-1.08,1.49-1.9,0.92-3.5,0.92c-0.4,0.83-1.68,0.47-2.35,0.97    c-0.37,0.46-0.74,0.92-1.11,1.38c-0.59,0.17-1.05,0.85-1.52,1.24c-0.31,0.26-0.71,0.55-1.11,0.55c-0.4,0.46-0.79,0.92-1.19,1.38    c-0.3,0.35-0.26,0.81-0.33,1.25c-0.33,0.09-0.47,0.45-0.7,0.71c-0.6,0.65-1.79,0.27-2.63,0.25c-1.66,0.1-3.31,0.2-4.97,0.31    c-0.6,0.18-1.2,0.36-1.8,0.54c-0.93-0.45-1.21-1.63-1.94-2.35c-0.23-0.05-0.46-0.09-0.69-0.14c-0.84-0.5-1.5,0.68-2.08,1.11    c-0.1-0.04-0.2-0.08-0.3-0.12c-0.91,0-1.27-0.01-1.98,0.61c-0.37,0.34-0.28,0.88-0.35,1.31c-1.1,1.1-0.7,3.71-0.28,4.98    c0.61,0.25,1.11,1.21,1.38,1.8c0.18,0.1,0.37,0.2,0.55,0.3c0.97,0.88-0.77,2.16-1.17,3.05c-0.72,1.6-0.88,3.33-0.55,5.06    c0.13,0.39,0.25,0.78,0.38,1.16c-0.1,0.26-0.21,0.53-0.31,0.8c-0.6,0-1.2,0-1.8,0c-0.54,0.54-1,1.08-1.25,1.8    c-0.18,1.72,0.45,2.26,1.52,3.46c-0.05,0.37-0.1,0.73-0.14,1.1c0.2,0.21,0.41,0.43,0.61,0.64c0.73,0.69,1.65,1.09,2.58,1.44    c0.44,0.75,0.88,1.49,1.33,2.24c0.13,0.25-0.16,0.54-0.29,0.8c-0.47,1-1.44,1.1-2.15,1.8c-0.06,0.2-0.13,0.4-0.19,0.61    c-0.17,0.73-0.13,1.45-0.59,2.09c-0.37,0.02-0.75,0.04-1.12,0.06c-0.37,0.29-0.77,0.46-1.24,0.41c0.01-0.09-0.91,1.39-1.09,2.52    c-0.06,0.39,0.06,0.34,0.15,0.67c0.3,0.77,2.39,1.14,2.88,0.44c0.41,0.03,1.04,0.01,1.34-0.29c0.37,0,0.74,0,1.11,0    c0.45,0,0.63,0.4,0.9,0.73c-0.11,0.49-0.23,0.99-0.34,1.48c-0.13,1.04-0.61,1.93-1.52,2.49c-0.37,0.18-0.74,0.37-1.11,0.55    c-0.74,0.57-1.4,1.23-1.85,2.06c-0.23,0.42-0.04,1.46,0.11,1.94c0.12,0.56,0.24,1.12,0.36,1.67c0.63,0.95,1.23,1.79,2.08,2.63    c0.46,0.92,0.92,1.85,1.38,2.77c-0.18,0.6-0.37,1.2-0.55,1.8c0,0.44,1.79,0.43,2.18,0.51c0.32,0.08,0.64,0.87,0.86,1.15    c0.04,0.78,0.56,1.8,1.38,1.8c0.45,0,0.52-0.47,0.83-0.97c-0.29-1.01,0.89-1.68,1.25-2.49c0.09-0.23,0.18-0.46,0.28-0.69    c0.18-0.28,0.37-0.55,0.55-0.83c0.65-0.74,1.29-1.48,1.94-2.21c0.46-0.37,0.92-0.74,1.38-1.11c-0.06-0.35,0.45-0.72,0.69-0.97    c0.23-0.23,1.09-0.83,1.38-0.83c0.49-0.43,0.91-0.74,1.52-0.97c0.85-1.16,2.11-1.79,3.32-2.49c1.25-0.09,2.49-0.18,3.74-0.28    c0.56,0.18,1.12,0.37,1.69,0.55c0.54,0.05,1.09,0.09,1.63,0.14c0.42-0.04,0.84-0.08,1.25-0.13c0.73-0.19,1.47-0.38,2.21-0.57    c0.44,0.3,1.18,0.09,1.68,0.02C127.91,274.04,130.59,273.25,130.59,273.25z"/>
            <circle cx="115.6" cy="244.3" r="1.586"/>
        </g>
        <g id="__Enez">
            <path d="M96.31,363.48c-1.61-0.05-3.19-1.35-4.71-2    c-3.46-1.48-6.49-3.06-9.95-4.54c-0.58-0.29-1.56-1.49-2.23-1.87c-0.26-0.46-1.18-0.89-1.1-1.44c-1.01-1.01-1.56-2.32-2.43-3.42    c-1.16-1.4-2.32-2.8-3.48-4.2c-0.33-0.51-1.21-1.62-1.27-2.25l-0.15-0.5c-0.08-0.22-0.16-0.71-0.42-0.67    c-0.78,0.15-1.4,0.43-2.02,0.89c-0.71-0.48-1.58,1.08-1.44,1.85c-0.21-0.06-0.52-1.3-0.73-1.36c-0.08-0.5-0.87,0.81-1.23,1.15    c-0.31,0.31-1.13,1.33-0.95,1.87c-0.15,0.07-0.29,0.15-0.44,0.22c-0.37,0.19-0.98-0.47-1.16-0.28c-0.38,0.42-1,1.05-1.03,1.58    c-0.23,0.25-0.34,0.5-0.69,0.55c-0.51,1.03-0.88,1.38-1.66,2.21c0.03,0.27,0.05,0.54,0.08,0.81c-0.14,0.28-0.31,0.55-0.22,0.85    c-0.45,0.41-1.11,1.14-0.69,1.8c-0.32,0.14-0.65,0.28-0.97,0.42c0.02,0.35-0.29,0.58-0.27,0.93c-0.04,0.28-0.29,0.57-0.5,0.58    c-0.29,0.64,0.04,0.99,0.06,1.69c0.01,0.29-0.12,0.83,0.3,0.68c-0.52,1.05-0.33,2.21-0.55,3.32c-0.07,0.37-0.43,0.96-0.14,1.25    c-0.24,0.26-0.68,0.65-0.55,0.97c-1.24,0.39-2.47,0.77-3.71,1.16c-0.46-0.08-1.18,0.37-1.41,0.78c-0.71,0-1.46-0.07-2.14,0.19    c-0.27,0.1-0.28,0.23-0.22,0.51c-0.23,0.18-0.46,0.37-0.69,0.55c-0.55,0.23-1.11,0.46-1.66,0.69c-0.37,0-0.74,0-1.11,0    c-1.07-0.33-1.99-0.31-3.1-0.39c-0.76-0.05-1.53-0.11-2.29-0.16c-0.37,0.02-1.83-0.43-1.6-0.2c0.62,0.57,1.26,1.97,1.88,2.54    c0.26,0.42,0.52,0.84,0.78,1.26c0.23,0.24,0.47,0.61,0.46,0.97c0.28,0.37,0.55,0.74,0.83,1.11c0.02,0.21,0.04,0.48,0.05,0.77    c0.01-0.06,0.03-0.11,0.06-0.17c0.1-0.19,0.21-0.48,0.44-0.45c0.46,0.09,0.93,0.17,1.39,0.26c0.12,0.09,0.23,0.18,0.35,0.27    c0,0.04,0,0.09,0,0.13c0.02,0.1,0.04,0.19,0.06,0.29c-0.21,0.14-0.42,0.28-0.63,0.42c-0.06,0.26-0.64,0.95-0.7,0.9    c-0.36-0.3-0.6-0.31-0.76-0.76c-0.07-0.18-0.15-0.35-0.19-0.52c0.04,0.84,0.05,1.71,0.04,1.75c-0.08,0.23-0.16,0.47-0.25,0.71    c0.65,1.08,1.4,2.09,1.67,3.35c0.27,1.1,0.54,2.2,0.82,3.29c-0.11,1.05-0.21,2.1-0.32,3.14c0.07,0.75,0.14,1.5,0.22,2.25    c0.04,1.23-0.42,2.3-0.98,3.37c0.08,0.16,0.17,0.31,0.25,0.47c0.55,1.1,1.1,2.21,1.64,3.31c2.11,2.73,4.69,4.89,7.74,6.44    c0.7,0.31,1.41,0.63,2.11,0.94c1.15,0.25,2.29,0.5,3.44,0.74c1.27,0.26,2.58,0.66,3.89,0.64c1.29-0.02,3.08-0.69,4.38-1.03    c1.08-0.17,2.15-0.33,3.23-0.5c1.89-0.23,3.79-0.46,5.68-0.69c1.25,0.09,2.49,0.18,3.74,0.28c0.78,0.07,1.55,0.15,2.33,0.22    c1.95,0.37,3.91,0.74,5.86,1.12c1.14,0.06,2.29,0.12,3.43,0.19c0.44,0.05,0.96-0.09,1.25,0.28c2.25-0.44,4.29-0.49,6.36-1.44    c0.23-0.07,0.46-0.14,0.7-0.22c0.78-0.6,1.57-1.2,2.35-1.8c0.83-0.19,1.67-0.38,2.5-0.57l0.64-0.39    c-0.22-0.36-0.44-0.93-0.47-1.12c-0.04-0.35-0.13-0.53,0.09-0.82c-0.46-1.66-0.92-3.32-1.38-4.98c-0.2-0.66-0.09-3.35,0.42-3.74    c-0.18-0.79-0.79-2.9-1.52-3.18c-0.05-0.73,0-2.19-0.3-2.88c-0.43-1.09-0.96-1.29-1.39-2.38c-0.17-0.42-0.23-1.11-0.66-1.25    c0.32-1.15,0.65-2.31,0.97-3.46c0.37-1.8,0.74-3.6,1.11-5.4c0.54-1.31,1.08-2.63,1.63-3.94c0.29-1.5,0.58-3,0.87-4.5    c0.17-0.27,0.35-0.55,0.52-0.82c0.08-0.2,0.15-0.41,0.23-0.61l0.04-0.49c-1.16-0.03-2.9,0.68-3.33,0.86    C99.41,362.42,98.45,363.55,96.31,363.48z"/>
            <circle cx="48.43" cy="370.42" r="1.586"/>
        </g>
        <g id="__İpsala">
            <path d="M148.97,281.95l-0.52-0.61    c-0.33-0.12-0.44-0.41-0.75-0.62c-0.89-0.61-1.69-1.06-2.41-1.81c-1.12-1.16-3.73-1.37-5.15-2.25c-1.12-0.69-2.62-2.03-3.86-2.35    c-1.42-0.27-2.85-0.55-4.27-0.82c-0.48-0.02-1.06-0.24-1.39,0.03l-0.03-0.27c0,0-2.68,0.8-3.96,0.98    c-0.49,0.07-1.24,0.28-1.68-0.02c-0.74,0.19-1.47,0.38-2.21,0.57c-0.42,0.04-0.84,0.08-1.25,0.13c-0.54-0.05-1.09-0.09-1.63-0.14    c-0.56-0.18-1.12-0.37-1.69-0.55c-1.25,0.09-2.49,0.18-3.74,0.28c-1.21,0.7-2.47,1.33-3.32,2.49c-0.62,0.23-1.03,0.53-1.52,0.97    c-0.29,0-1.16,0.6-1.38,0.83c-0.24,0.24-0.75,0.62-0.69,0.97c-0.46,0.37-0.92,0.74-1.38,1.11c-0.65,0.74-1.29,1.48-1.94,2.21    c-0.18,0.28-0.37,0.55-0.55,0.83c-0.09,0.23-0.18,0.46-0.28,0.69c-0.35,0.81-1.53,1.48-1.25,2.49c-0.31,0.5-0.38,0.97-0.83,0.97    l0.92,0.29c0.89,0.1,1.15,0.47,1.57,0.41c0.24,0.56,0.48,1.12,0.73,1.68c0.15,0.92-0.27,1.51-0.59,2.33    c0.23,1.13-1.1,3.23-1.66,4.15c-0.71,0.57-1.43,1.15-2.14,1.72c-0.29-0.09-0.58-0.18-0.88-0.26c-0.48-0.21-1.41-0.24-1.96-0.13    c-0.84,0.18-0.82,2.46-0.85,3.24c0.02,0.43,0.69,0.65,1.09,0.77c0.15,0.11,0.3,0.23,0.45,0.34c0.42,0.55,0.83,1.11,1.25,1.66    c0.31,0.31,0.72-0.13,1.07,0.06c0.38,0.49,0.76,0.98,1.14,1.47c0.14,0.63,0.27,1.25,0.41,1.88c0.35,0.75,0.83,1.26,1.39,1.85    c-0.04,0.1-0.08,0.2-0.12,0.3c0.18,0.66-0.46,1.06-1.03,1.43c-0.4-0.11-0.8-0.22-1.2-0.32c-1.06-0.05-2.12-0.11-3.18-0.16    c-1.01,0.41-2.03,0.83-3.04,1.25c-0.29,0.32-0.57,0.64-0.86,0.96c-0.31,0.51-0.63,1.02-0.94,1.53c-0.35,0.03-0.52,0.32-0.81,0.52    c-0.1,0.06-0.2,0.11-0.3,0.17c-0.24-0.57-1.12-0.6-1.66-0.79c-0.63-0.2-1.44,0.55-1.76,1.02c-0.21,0.38-0.1,1.2-0.03,1.7    c0.33,0.19,0.38,0.5,0.55,0.83c0.79,0.22,1.06,1.54,1.38,2.21c0.28,0.32,0.55,0.65,0.83,0.97c0.14,0.18,0.28,0.37,0.42,0.55    c-0.54,0.2-0.17,0.52-0.47,0.93c-0.45,0.47-0.89,0.94-1.34,1.41c-0.12,0.14-2.2,0.32-2.62,0.29c-0.28-0.28-0.55-0.56-0.83-0.83    c-0.26-0.26-0.52-0.52-0.78-0.77c-1.3-0.93-1.13-2.08-1.21-3.52c-0.04-0.37,0.02-0.55-0.39-0.56c-1.03,0-1.67,1.62-1.9,2.51    c-0.14,0.54,0.04,1.25,0.25,1.75c0.11,0.11,0.22,0.22,0.33,0.32c-0.15,0.28-0.29,0.56-0.44,0.83c-0.09,0.37-0.18,0.74-0.28,1.11    c0.28,0.55-0.41,1.81-0.87,2.14c-0.35-0.08-0.69-0.17-1.04-0.25c-0.52-0.26-1.03-0.52-1.55-0.78c-0.44,0.32-0.97-0.13-1.29-0.23    c-0.41-0.14-0.06-0.74-0.3-1.17c-0.16-0.29-1.16,0.83-1.18,1.41c-0.05,0.5-0.09,1.01-0.14,1.51c0.18,0.65,0.37,1.29,0.55,1.94    c-0.25,0.25-0.15,0.62-0.14,0.97c-0.05,0.08-0.11,0.16-0.16,0.25c-0.08,0.24-0.17,0.48-0.25,0.72c-0.36-0.2-0.69-0.03-1.11,0    c-0.34-0.45-1.62-0.41-1.66-0.42c0.03,0.42-0.25,0.55-0.49,0.88c-0.02,0.03-0.04,0.06-0.06,0.09c0.09,0.04,0.18,0.08,0.27,0.13    c0.04,0.28,0.08,0.56,0.11,0.84c0.4,0.3,0.92-0.01,1.32,0.3c-0.02,0.28,0.3,1.17,0.29,1.44c-0.43-0.07-1.35-0.33-1.58-0.35    c0.09,0.37-0.38,0.71-0.55,1.11c0,0.28,0,0.92,0,0.97c0.55,0.3,0.98,0.16,1.05,0.22c0.19-0.49,0.94-0.5,1.73-0.07    c0.12,0.28-0.46,1.25-0.43,1.51c-0.47,0.03-0.64,0.37-0.97,0.69c0.08,0.36-0.16,0.76-0.28,1.11c0,0.46,0,1.48,0,1.52    c-0.92,0.43-1.06-1.06-1.14-1.15c-0.03,0.17-0.57,1.07-0.75,1.13c-0.18,0.82,0.99,1.33,0.97,1.61c-0.15,0.59-1.54,0.29-1.01,0.58    c0.06,0.63,0.94,1.73,1.27,2.25c1.16,1.4,2.32,2.8,3.48,4.2c0.87,1.11,1.42,2.41,2.43,3.42c-0.08,0.55,0.84,0.98,1.1,1.44    c0.67,0.38,1.66,1.59,2.23,1.87c3.46,1.48,6.49,3.06,9.95,4.54c1.51,0.65,3.1,1.95,4.71,2c2.14,0.07,3.1-1.06,5.07-1.65    c0.45-0.19,2.59-1.06,3.75-0.96c2.21-0.67,3.17-1.38,5.31-2.19c2.3-1.03,4.49-1.65,6.41-3.1c1.39-0.6,2.67-0.9,3.91-1.77    c0.34-0.25,0.67-0.5,1.01-0.74c0.37-0.37,0.74-0.74,1.11-1.11c1.35-2.56,3.03-4.92,4.15-7.61c-0.23-0.39,0.08-1.24,0.18-1.69    c0.19-0.88,0.05-1.88-0.03-2.77c-0.11-1.12-1.74-3.08-2.25-4.01c0.48-0.77,1.5-2.15,2.52-3.15c1.13-0.92,1.83-1.98,2.96-2.9    c0.3-0.51,1.03-0.88,1.33-1.39c-0.15-0.43,0.47-0.71,0.68-1.11c0.36-0.24,0.59-1.03,0.95-1.27c1.09-0.73,1.91-1.64,2.8-2.61    c1.36-1.45,2.72-2.89,4.07-4.34c1.06-1.24,3.04-3.82,3-3.9c0.39-0.65,0.78-1.29,1.17-1.94c0.81-1.09,1.62-2.17,2.43-3.26    c0.23-0.54,0.46-1.08,0.68-1.62c0.22-0.42,0.45-0.85,0.67-1.27c0.14-0.55,0.28-1.11,0.42-1.66c0.49-0.31,0.67-1.41,0.85-1.94    c0.6-1.82,1.07-4.31,0.95-6.23c0.33-0.48,0.38-1.89,0.42-2.49c0.1-0.78,0.19-1.57,0.29-2.35c0.13-2.02,0.42-3.86-0.06-5.59    l-0.45-1.76c-0.11-0.55-0.22-1.1-0.34-1.64l-0.05-0.06L148.97,281.95z"/>
            <circle cx="107.81" cy="317.81" r="1.586"/>
        </g>
        <g id="__Keşan">
            <path d="M189.57,364.16    c-0.14-0.65-0.28-1.3-0.42-1.95c0.21-0.42,0.38-2.95,0.19-3.37c0.03-0.44,0.06-0.89,0.09-1.33c-0.49-0.35-0.34-0.78-0.48-1.35    c-0.2-0.85-0.54-2.05-1.12-2.68c-0.23-0.25-1.31-2.34-1.31-2.61c-0.55-0.65-1.11-1.29-1.66-1.94c-2.53-2.42-5.43-4.57-7.23-7.62    c-1.09-1.85-2.52-3.89-2.15-6.03c0.13-0.57,0.98-0.72,1.64-0.87c1.32-0.31,2.7-0.36,3.53-1.58c-0.35-0.72-0.69-1.44-1.04-2.16    c-0.18-0.59-0.8-2.16-0.62-2.69c-0.4-1.67-0.79-3.36-0.9-5.05c0.12-0.69,0.24-1.39,0.36-2.08c0.39-1.36,1.19-2.59,1.32-4.02    c0.13-1.46-0.55-2.97-0.9-4.4c-0.45-1.84-0.15-3.73-0.09-5.55c0.18-0.6,0.37-1.2,0.55-1.8c0.41-0.61,0.83-1.21,1.24-1.82    c0.85-1.3,1.86-2.37,2.44-3.86c-0.1-0.54-0.21-1.08-0.31-1.63c-1.08-1.16-2.16-2.32-3.24-3.49c0.03-0.61-1.96-2.12-2.35-2.63    c-0.78-0.97-1.57-1.94-2.35-2.91c-0.77-0.49-1.54-0.98-2.31-1.47c-0.64-0.39-1.18-0.98-1.94-1.1c-0.94,0.1-2.31-0.02-3.24,0.07    c-0.86,0.22-1.45,1.09-2.23,1.51c-0.88,0.48-1.34,0.25-2.31,0.22c-0.37-0.4-1.34-0.28-1.88-0.84c-0.61-0.64-0.77-1.54-1.25-2.23    c-0.11-0.15-0.51-0.6-0.62-0.75c-0.72,0.14-1.22,0.15-1.73,0.22c-0.27-0.44-1.73-0.56-2.23-0.58c-1.84-0.06-2.88,1.25-4.62,1.72    l0.66,1.37c0.48,1.73,0.18,3.57,0.06,5.59c-0.1,0.78-0.19,1.57-0.29,2.35c-0.04,0.6-0.08,2.02-0.42,2.49    c0.12,1.91-0.35,4.41-0.95,6.23c-0.18,0.53-0.35,1.63-0.85,1.94c-0.14,0.55-0.28,1.11-0.42,1.66c-0.22,0.42-0.45,0.85-0.67,1.27    c-0.23,0.54-0.46,1.08-0.68,1.62c-0.81,1.09-1.62,2.17-2.43,3.26c-0.39,0.65-0.78,1.29-1.17,1.94c0.04,0.07-1.95,2.65-3,3.9    c-1.36,1.45-2.72,2.89-4.07,4.34c-0.9,0.97-1.72,1.87-2.8,2.61c-0.36,0.24-0.59,1.03-0.95,1.27c-0.21,0.39-0.84,0.68-0.68,1.11    c-0.3,0.51-1.03,0.88-1.33,1.39c-1.13,0.92-1.83,1.98-2.96,2.9c-1.02,1-2.04,2.39-2.52,3.15c0.51,0.93,2.14,2.89,2.25,4.01    c0.09,0.89,0.22,1.89,0.03,2.77c-0.1,0.45-0.41,1.3-0.18,1.69c-1.12,2.69-2.8,5.05-4.15,7.61c-0.37,0.37-0.74,0.74-1.11,1.11    c-0.34,0.25-0.67,0.5-1.01,0.74c-1.24,0.87-2.51,1.17-3.91,1.77c-1.92,1.44-4.11,2.06-6.41,3.1c-2.15,0.81-3.1,1.52-5.31,2.19    l-0.46,0.59c-0.08,0.2-0.15,0.41-0.23,0.61c-0.17,0.27-0.35,0.55-0.52,0.82c-0.29,1.5-0.58,3-0.87,4.5    c-0.54,1.31-1.08,2.63-1.63,3.94c-0.37,1.8-0.74,3.6-1.11,5.4c-0.32,1.15-0.65,2.31-0.97,3.46c0.43,0.14,0.5,0.83,0.66,1.25    c0.43,1.09,0.96,1.29,1.39,2.38c0.31,0.69,0.26,2.14,0.3,2.88c0.73,0.29,1.34,2.39,1.52,3.18c-0.5,0.39-0.62,3.08-0.42,3.74    c0.46,1.66,0.92,3.32,1.38,4.98c-0.23,0.29-0.14,0.47-0.09,0.82c0.03,0.19,0.25,0.76,0.47,1.12c0.41-0.04,1-0.09,1.44,0    c0.14-0.29,0.38-0.56,1.01-0.58c0.43,0.11,1.04,0.63,1.47,0.74c1.8,0.64,3.59,1.27,5.39,1.91c1.06-0.23,2.12-0.46,3.18-0.69    c0.97-0.91,1.64-2.01,2.63-2.91c0.55-0.17,1.1-0.34,1.65-0.51c0.71-0.33,2.02-0.29,2.78-0.19c3.15,0.42,6.3,2.97,8.58,4.98    c0.35-0.1,0.77,0.15,1.11,0.28c0.4-0.29,1.95-0.72,2.45-0.59c0.74,0.2,1.07,1.55,1.84,1.55c0.47,0,0.94-0.57,1.31-1.02    c0.9-1.04,1.8-2.08,2.7-3.12c0.6-0.37,1.2-0.74,1.79-1.11c0.23,0.09,0.46,0.18,0.69,0.28c0.14-0.37,0.32-0.32,0.69-0.42    c0.27-0.74,1.33-1.46,1.94-1.94c-0.06-0.29,0.27-0.58,0.45-0.81c0.68-0.65,1.36-1.3,2.04-1.95c0.65-0.09,1.29-0.18,1.94-0.28    c0.31-0.5,1.88-1.45,2.49-1.52c0.78,0.14,1.57,0.28,2.35,0.42c0.6,0,1.2,0,1.8,0c0.26-0.69,1.97-0.61,2.62-0.58    c1.52,0.09,2.94,0.22,4.44-0.12c0.28,0.28,1.26,0.18,1.69,0.13c0.64-0.14,1.27-0.27,1.91-0.41c0.55,0.14,1.11,0.28,1.66,0.41    c0.25-0.17,0.66-0.04,0.97,0c0.4-0.2,0.81-0.41,1.21-0.61c0.89-0.4,1.3-1.1,2.19-1.49c0.08-0.39,1.33,0.76,1.73,0.48    c1.54-1.25,2.11-0.07,3.6,0.09c0.37-0.32,0.73-0.63,1.1-0.95c0.75-0.84,1.26-1.45,2.79-1.64c0.13-0.05,0.27-0.67,0.38-1.13    c0.17-0.71-0.42-1.89-0.02-2.57c-0.05-0.06-1.02,0.34-1.51,0.46c-0.25,0.07-0.54,0.16-1.09,0.33c-0.79,0.17-2.01,0.27-2.8,0.44    c-0.13,0,0.28-1.01,0.43-1.59c0.23-0.86,0.38-1.8,0.94-2.52c0.13-0.04,0.5-0.5,0.46-0.92c0.18-0.51,0.37-1.01,0.55-1.52    c0.14-0.37,0.47-0.87,0.83-1.38c0.81-1.15,1.64-2.23,2.28-3.5c0.08-0.08,0.67-1.46,0.9-1.47c0.05,0,0.17-0.87,0.16-1.4    c-0.05-1.52-0.86-3.06-0.93-3.78c0.44-0.63,3.61-1.64,4.49-2.07C189.71,365.52,189.61,364.59,189.57,364.16z"/>
            <circle cx="157.83" cy="332.51" r="1.586"/>
        </g>
        <g id="__Havsa">
            <path d="M217.93,116.33    c-0.06-0.22-0.73-0.81-0.79-1.03c-0.37-0.47-0.36-0.72-0.59-1.33c-0.28-0.51-0.21-1.12-0.49-1.63c-0.88-1.01-1.93-2.16-2.81-3.17    c-0.88-0.83-1.43-1.33-2.31-2.16c-0.46-0.32-1.4-0.74-1.87-1.06c-0.46-0.09-0.92-0.19-1.38-0.28c-1.81,0.34-3.6,0.93-5.28,1.73    c-1.45,0.69-2.85,1.59-4.43,1.96c-0.92,0.25-0.71,0.02-1.63,0.27c-0.68,0.09-2.02,0.48-2.93,0.58c-0.58,0.24-0.77,0.38-1.51,0.45    c-0.87,0.11-2.54,0.18-3.18,0.83c-0.32,0.09-0.65,0.18-0.97,0.28c-1.62,1.06-3.1,2.61-4.43,4.01c-0.43,0.45-1.01,2.08-1.66,2.21    c-0.1,0.35-0.05,0.69-0.42,0.83c0.24,1.23,0.13,2.5,0,3.74c-1.29,1.29-1.95,2.59-2.49,4.29c-0.46,1.44,0.7,3.29,0.45,4.78    c-0.24,1.45-0.49,2.9-0.73,4.35c-0.43,1.31-0.49,2.67-1.11,3.93c-0.23,0.46-0.32,1.48-0.6,1.99c-0.43,1.37-0.79,1.47-1.05,2.66    c-0.51,1.57-1.01,3.14-1.52,4.7c-0.23,0.6-0.46,1.2-0.69,1.8c-0.26,0.4-0.8,1.17-0.69,1.66c-0.92,1.72-1.84,3.44-2.76,5.17    c-0.41,0.87-0.93,1.79-0.56,2.96c0.12,0.36-0.05,1.61-0.22,1.87c0,0.72,0.15,1.71-0.01,2.96c-0.16,1.3-0.31,2.61-0.47,3.91    c-0.05,0.92-0.09,1.84-0.14,2.77c-0.12,0.73,0.09,1.69-0.03,2.03c0.14,0,1.09-0.07,1.23-0.07c1.15,0,2.45-0.07,3.6-0.07    c1.52-0.09,3.29-0.2,4.83-0.07c2.4,0.33,4.29,0.91,6.69,1.25c0.82,0.06,1.65,0.12,2.47,0.17c1.66-0.21,4.43,0.16,5.98,0.81    c0.77,0.49,1.9,1.17,2.67,1.66c0.13,0.15,1.49,1.12,2.74,1.8c0.69,0.29,1.67,1.06,2.35,1.35c0.28,0.23,0.55,0.46,0.83,0.69    c0.9,0.85,1.76,0.78,2.94,0.99c0.44,0.08,1.67,0.94,2.09,0.79c0.33-0.16,0.74-2.78,0.79-2.96c0.81-2.6,1.71-1.94,3.35-4.07    c1-1.25,0.91-1.6,1.91-2.85c0.28-0.42,1.65-1.73,1.92-2.14c0-0.67,0.78-2.65,1.11-3.32c0.54-1.44,1.08-2.87,1.61-4.31    c0.27-0.49,0.56-1.63,0.83-2.11c0.69-0.3,2.23-0.14,3.1-0.07c0.23,0,1.71,0.22,1.95,0.22c1.23-1.08,3.06-1.98,3.72-3.41    c0.39-0.84,0.99-2.21,0.89-3.15c0.08-0.06-1.3-0.43-1.45-1.41c0.04-0.74,0.09-1.48,0.13-2.21c0.58-1.38,1.03-2.76,1.52-4.15    c0.14-1.84,0.28-3.69,0.42-5.53c0.17-1-0.7-3.41,0.31-3.98c0.94-0.54,0.89-0.85,1.95-1.23c0.44-0.16,1.15-0.52,1.66-0.43    c-0.43-0.14,0.81-0.36,0.82-0.46c0.14-1.46-0.23-2.61-0.59-4c-0.28-0.65-0.55-1.29-0.83-1.94c-0.32-0.46-0.65-0.92-0.97-1.38    c-0.62-0.58-1.24-1.16-1.86-1.73c-0.44-0.47-1.72-2.14-1.96-2.67c-0.16,0.04-0.36-0.06-0.72,0.05c-0.78,0.92-1.59,2.04-2.38,2.97    c-0.33,0.29-0.65,0.58-0.98,0.87c-0.32,0.44-0.82,1.24-1.38,1.34c-0.63,1.27-0.98,3.11-2.52,3.48c-1.22,0.24-2.7,0.34-3.81-0.51    c-0.45,0.11-1.55-0.44-1.76-0.89c-0.38-0.71-0.67-1.55-0.77-2.35c0.09-1.01,0.19-2.03,0.28-3.04c-0.21-0.93-0.41-1.86-0.61-2.79    c-0.04-0.43-0.09-0.86-0.13-1.29c-0.08-0.32-0.22-0.14-0.27-0.5c-0.04-0.3,0-0.45-0.23-0.67c0.05-0.02,0.14-1.14,0.19-1.17    c0.19-0.34,0.23-0.23,0.78-0.77c0.63-0.37,0.66-0.59,1-0.67c-0.12,0.01,0.91-0.38,1.49-0.44c0.62-0.16,1.27-0.67,2.21-0.83    C217.76,116.96,217.96,116.52,217.93,116.33z"/>
            <circle cx="196.02" cy="148.74" r="1.586"/>
        </g>
        <g id="__Edirne">
            <path d="M150.82,136.67    c0.01,0.91,0.83,2.89,0.59,3.65c-0.43,1.16-1.51,1.4-2.09,2.46c0.92,0.6,1.48,0.96,1.24,2.16c-0.18,0.88-0.7,1.88-0.44,2.79    c0.32,0.46,0.65,0.92,0.97,1.38c0.05,0.42,0.09,0.83,0.14,1.25c0.12,1.62-1.46,3.55-1.12,4.95c0.14,0.58,1.08,2.51,0.85,2.94    c0.61,0.85,1.48,1.84,1.56,2.91c0.06,0.75,0.11,2.82-0.07,3.39c-0.25,0.79-1.61,1.82-0.94,2.82c0.29,1.21,1.94,2.6,1.94,3.6    c0.38,0.52,0.68,0.74,0.78,1.41c0.13,0.95-0.5,3.3,0.19,3.98c-0.09,0.37-0.67,2.3-0.28,1.88c1.19,0.73,2.45-0.13,3.68-0.35    c2.42-0.75,4.83-1.5,7.25-2.25c0.99-0.21,1.87-0.35,2.74-0.86c0.25-0.16,0.51-0.32,0.76-0.48l0.07,0.08    c0.13-0.34-0.08-1.3,0.03-2.03c0.05-0.92,0.09-1.85,0.14-2.77c0.16-1.3,0.31-2.61,0.47-3.91c0.16-1.25,0.01-2.24,0.01-2.96    c0.17-0.26,0.33-1.51,0.22-1.87c-0.37-1.17,0.14-2.09,0.56-2.96c0.92-1.72,1.84-3.44,2.76-5.17c-0.11-0.49,0.44-1.26,0.69-1.66    c0.23-0.6,0.46-1.2,0.69-1.8c0.51-1.57,1.01-3.14,1.52-4.7c0.27-1.19,0.62-1.29,1.05-2.66c0.29-0.5,0.38-1.53,0.6-1.99    c0.62-1.26,0.69-2.62,1.11-3.93c0.24-1.45,0.49-2.9,0.73-4.35c0.25-1.49-0.91-3.34-0.45-4.78c0.54-1.7,1.2-3,2.49-4.29    c0.13-1.24,0.24-2.51,0-3.74c0.36-0.14,0.32-0.48,0.42-0.83c0.65-0.14,1.23-1.76,1.66-2.21c1.33-1.4,2.81-2.95,4.43-4.01    c0.32-0.09,0.65-0.18,0.97-0.28c0.65-0.65,2.31-0.72,3.18-0.83c0.74-0.06,0.93-0.21,1.51-0.45c0.91-0.1,2.25-0.49,2.93-0.58    l-0.01-0.08c-0.05-0.05-0.05-0.51,0-0.69c-0.09-0.37-0.19-0.74-0.28-1.11c-1.14-2.47,0.27-4.13,0-6.64    c-0.3-2.76-2.52-4.26-4.12-6.27c-0.79-1.14-1.59-2.27-2.39-3.41c-0.19-0.38-0.39-0.76-0.58-1.14c-0.5-0.81-0.99-1.63-1.49-2.44    c-0.37-0.45-0.22-0.49-0.79-1.07c0.38,0.07-1.54,0.58-2.12,1.05c-1.08,0.7-2.16,1.4-3.24,2.1c-0.46,0.24-1.49,0.79-1.99,0.46    c-1.01-0.7-1.79-1.41-2.64-2.28c-0.42-0.32-0.85-0.65-1.27-0.97c-1.6-1.93-2.18-4.35-4.72-5.2c-0.5-0.14-0.79-0.07-1.23-0.48    c-1.23-0.61-2.37-1.3-3.74-1.86c-1.11-0.35-2.21-0.7-3.32-1.05c-2.03-1.18-4.21-1.79-6.4-2.69c-0.84-0.35-3.67-1.29-3.71-2.28    c0.05-2.31,0.1-4.62,0.15-6.93c-0.37-0.69-0.74-1.38-1.11-2.08c-0.2-0.56-0.4-1.13-0.61-1.69c-0.3-0.79-0.6-1.58-0.9-2.37    c-0.58-0.17-0.83-1.71-1.32-2.62c-0.28-0.15-0.95-1.62-1.24-2.05c-0.22-0.33-0.61,0.42-0.92,0.7c-0.25,0.26-0.95,0.57-1.2,0.82    c-0.11,0.39,0.44,0.59,0.1,0.85c0.04,0.11,0.82,0.72,1.06,1.08c1.09,0.26,1.44,0.15,1.34,1.44c0.06,0.1-0.25,1.05-0.43,1.18    c-0.42,0.25-2.33,1.18-2.42,1.55c-0.13,0.58-0.97,2.52-0.52,2.91c-0.78,0.74-1.57,1.48-2.35,2.21c-0.48,1.1-0.97,2.21-1.45,3.31    c-0.45,0.93-1.46,2.66-1.46,2.78c-0.05,0-0.09,0-0.14,0c-1.61,0.05-2.98-0.17-4.59-0.12c-1.16-0.15-2.46-0.13-3.64,0.19    c-0.5,0.01-1.85-0.05-2.42-0.19c-1.14-0.08-1.64,0.28-2.77,0.2c-0.51-0.01-1.02-0.02-1.53-0.03c-0.92,0.08-1.6-0.25-2.52-0.17    c-0.74-0.09-1.73,0.22-2.46,0.13c-1.47,0-2.95-0.01-4.42-0.01c-0.55,0.05-1.1,0.1-1.66,0.15c-1.48,0.04-2.96,0.08-4.43,0.13    c-0.88-0.05-1.74-0.19-2.5,0.32c-0.52,0.4-1.14,0.93-0.82,1.62c-0.09,0.23-0.18,0.46-0.28,0.69c-0.46,0.43-0.81,1.32-1.38,1.52    c-0.38,0.75-0.75,1.49-1.12,2.24c-0.27,0.64-0.54,1.28-0.81,1.92c-1.12,1.57-1.49,2.98-2.35,4.7c-0.08,0.32-0.15,0.64-0.23,0.96    c-0.34,1.06-0.68,2.12-1.02,3.19c-0.14,0.37-0.28,0.74-0.42,1.11c-0.09,1.61-0.18,3.23-0.28,4.84c0.88,1.54,2.18,2.7,3.29,4.04    c0.93,1.28,1.87,2.57,2.8,3.85c1.66-0.93,2.32-0.76,3.2,1.09c0.07,0.24,0.29,2.11,1.95,3.02c0.43,0.3,0.84,0.25,1.49,0.6    c1,0.5,1.66,0.8,2.77,0.83c0.32,0.32,0.65,0.65,0.97,0.97c0.64,0.08,1.28,0.15,1.92,0.23c0.76,0.16,2.04,0.79,2.71,0.42    c0.23-0.14,0.77-1.35,1.36-1.35c0.28,0.03,1.37,0.17,1.48,0.29c0.7,0.7,1.45,1.49,1.66,2.5c0.46,0.51,0.94,0.89,1.52,1.25    c0.9,0.55,2.8,0.27,3.5-0.47c0.96-0.1,1.54-0.38,2.31,0c0.15,0.63,0.29,1.83,0.1,2.98l-1.44,1.06c0.96,1.73,3.35,4.44,4.81,5.98    c1.16,1.25,2.21,2.71,3.64,3.65c1.26,0.83,2.62,0.93,3.97,1.47c0.78,0.31,1.41,0.88,2.23,1.16c1.64,0.56,3.25,0.51,4.96,0.48    c0.3,0,1.67,0.06,1.65-0.26C150.12,131.83,150.76,132.69,150.82,136.67z"/>
            <circle cx="143.7" cy="113.86" r="1.586"/>
        </g>
    </g>
</svg>