<?xml version="1.0" encoding="UTF-8"?>
<!DOCTYPE svg PUBLIC "-//W3C//DTD SVG 1.1//EN" "http://www.w3.org/Graphics/SVG/1.1/DTD/svg11.dtd">
<svg version="1.1" id="HaritaCizim" xmlns="http://www.w3.org/2000/svg" xmlns:xlink="http://www.w3.org/1999/xlink" x="0px" y="0px" viewBox="0 0 600 395" preserveAspectRatio="none">
    <defs id="__def">
        <radialGradient id="f">
            <stop offset="0" stop-color="white" stop-opacity="1"/>
            <stop id="STOP1" offset=".4" stop-opacity="1"/>
            <stop offset="1" stop-color="white" stop-opacity=".2"/>
        </radialGradient>
        <filter id="__flt1" x="0" y="0" width="200%" height="200%" filterUnits="objectBoundingBox">
            <feGaussianBlur in="SourceAlpha" stdDeviation="3" result="blur1"/>
            <feSpecularLighting result="specOut" in="blur1" specularConstant="1.5" specularExponent="20" lighting-color="#bbbbbb">
                <feDistantLight azimuth="45" elevation="30"/>
            </feSpecularLighting>
            <feComposite in="specOut" in2="SourceAlpha" operator="in" result="specOut"/>
            <feComposite in="SourceGraphic" in2="specOut" operator="arithmetic" k1="0" k2="1" k3="1" k4="0"/>
        </filter>
        <filter id="__flt2" x="0" y="0" width="200%" height="200%" filterUnits="objectBoundingBox">
            <feGaussianBlur in="SourceAlpha" stdDeviation="3" result="blur1"/>
            <feSpecularLighting result="specOut" in="blur1" specularExponent="20" lighting-color="#bbbbbb">
                <fePointLight x="-2000" y="100" z="2000"/>
            </feSpecularLighting>
            <feComposite in="specOut" in2="SourceAlpha" operator="in" result="specOut"/>
            <feComposite in="SourceGraphic" in2="specOut" operator="arithmetic" k1="0" k2="1" k3="1" k4="0"/>
        </filter>
        <filter id="__flt3" x0="-50%" y0="-50%" width="200%" height="200%" filterUnits="objectBoundingBox">
            <feGaussianBlur in="SourceAlpha" stdDeviation="3" result="blur"/>
            <feOffset in="blur" dx="0" dy="0" result="offsetBlur"/>
            <feSpecularLighting in="blur" surfaceScale="4" specularConstant=".5" specularExponent="20" lighting-color="flavor" result="specOut">
                <fePointLight x="-5000" y="-10000" z="5000"/>
            </feSpecularLighting>
            <feComposite in="specOut" in2="SourceAlpha" operator="in" result="specOut"/>
            <feComposite in="SourceGraphic" in2="specOut" operator="arithmetic" k1="0" k2="1" k3="1" k4="0" result="litPaint"/>
            <feMerge>
                <feMergeNode in="offsetBlur"/>
                <feMergeNode in="litPaint"/>
            </feMerge>
        </filter>
        <filter id="__flt4" x0="-50%" y0="-50%" width="200%" height="200%">
            <feGaussianBlur in="SourceAlpha" stdDeviation="2" result="blur"/>
            <feOffset dy="-1" dx="-1"/>
            <feComposite in2="SourceAlpha" operator="arithmetic" k2="-1" k3="1" result="hlDiff"/>
            <feFlood flood-color="white" flood-opacity=".7"/>
            <feComposite in2="hlDiff" operator="in"/>
            <feComposite in2="SourceGraphic" operator="over" result="withGlow"/>
            <feOffset in="blur" dy="3" dx="3"/>
            <feComposite in2="SourceAlpha" operator="arithmetic" k2="-1" k3="1" result="shadowDiff"/>
            <feFlood flood-color="black" flood-opacity="1"/>
            <feComposite in2="shadowDiff" operator="in"/>
            <feComposite in2="withGlow" operator="over"/>
        </filter>
        <filter id="__golge1" x="0" y="0" width="200%" height="200%" filterUnits="userSpaceOnUse">
            <feOffset result="offOut" in="SourceAlpha" dx="8" dy="8"/>
            <feGaussianBlur result="blurOut" in="offOut" stdDeviation="3"/>
            <feBlend in="SourceGraphic" in2="blurOut" mode="normal"/>
        </filter>
    </defs>
    <g id="__Harita" fill="white" stroke="#000000" stroke-width="0.25" stroke-miterlimit="10" display="none">
        <rect id="__cer" x="0" y="0" fill="#000000" opacity="0" width="600" height="395"/>
        <g id="__Ağın">
            <path d="   M128.96,95.04c-1.37,5.47-6.72,8.74-10.62,12.26c-0.7,0.51-1.39,1.01-2.09,1.52c-2.34,2.39-4.37,5.08-6.65,7.55   c-0.54,0.61-1.08,1.22-1.62,1.83c-0.23,0.44-0.26,1.47-0.05,1.86c-0.19,0.56-0.44,2.13-0.17,2.57c-0.23,0.57-0.46,1.14-0.69,1.71   c-0.34,0.57-0.69,1.14-1.03,1.71c-1.33,0.9-3.02,1.53-4.12,2.7c-0.69,0.08-2.48,1.66-2.81,2.36c-0.53,1.12-0.71,2.15-0.95,3.33   c-0.1,0.5,0.13,1.3,0.34,1.71c0.04,0.3,0.09,0.6,0.13,0.9c0.16,0.34,0.32,0.68,0.48,1.02c0.67,0.82,1.34,1.64,2.01,2.46   c0.27,0.25,0.54,0.51,0.81,0.76c1.03,1.03,2.06,2.05,3.08,3.08c1.15,1.12,1.65,2.88,2.57,3.94c0.61,0.71,3.44,2.79,3.6,3.6   c1.54,1.37,3.08,2.74,4.62,4.11c0.65,0.66,1.51,0.4,1.54,1.54c0.55,0.29,3.09,1.85,3.6,1.71c0.38,0.23,0.79,0.68,1.2,0.68   c0.57,0.17,1.14,0.34,1.71,0.51c0.1-0.12,0.56,0.26,0.66,0.14c0.21-0.3,0.11-0.29,0.2-0.66c-0.1-0.27-0.2-0.54-0.29-0.81   c-0.02-0.29-0.28-0.53-0.31-0.82c-0.26-0.33-0.66-1.33-0.49-1.71c-0.23-0.63-0.23-1-0.46-1.63c-0.55-0.96-0.91-1.6-0.65-2.73   c0.27-0.52,0.75-0.83,1.02-1.35c0.4-0.52,1.97-1.54,2.71-1.57c0.74-0.34,1.54-0.49,2.28-0.83c1.4-0.14,3.11-0.83,4.45-1.48   c0.62-0.14,0.17-1.35,0.13-1.79c-0.2-0.15-0.41-0.3-0.61-0.45c-0.11,0.01-0.21,0.03-0.32,0.04c-0.19,0.38-0.74,1.39-0.62,1.77   c-0.23,0.23-0.46,0.46-0.69,0.68c-0.01-0.07-0.16-0.45-0.17-0.51c-0.08-0.61-0.66-0.92-0.69-1.2c0-0.95,0.13-1.74-0.79-2.17   c-0.14,0-0.29-0.01-0.43-0.01c-0.26,0.5-0.45,0.53-0.32,1.15c-1.09,0.49-2.18,0.98-3.28,1.47c-0.74,0.03-1.47,0.05-2.21,0.08   c-0.3-0.02-0.61-0.05-0.91-0.07c1.07-0.63,2.81-0.49,2.97-2.16c0.11-0.91,0.23-1.83,0.34-2.74c-0.4-0.01-1.73-0.12-1.7-0.51   c-0.01-0.23-0.01-0.46-0.02-0.69c0.15-0.45,0.3-0.9,0.44-1.34c-0.28-0.55-0.44-1.1-1.13-1.22c-0.22-0.84-0.48-1.2-1.03-1.88   c-0.07-0.41-0.45-1.57-0.65-1.47c-0.3,0.21-0.59,0.41-0.89,0.62c-0.63-0.17-1.26-0.34-1.88-0.51c0.37-0.17,1.71-0.17,1.77-0.26   c0.09-0.2,0.19-0.4,0.28-0.59c-1.29-1.37-0.9-3.23-2.23-4.45c-0.25-0.23-0.44-0.84-0.71-0.9c-0.46-0.09-3.12-0.82-2.38-0.8   c0.44-0.01,1.02-0.11,1.38,0.16c0.9-0.18,1.7-0.29,2.57-0.51c-0.23-0.34-0.46-0.68-0.69-1.03c-0.23-1.54-0.46-3.08-0.69-4.63   c-1-0.83-0.91-1.28-1.03-2.57c-0.4-0.4-0.81-0.8-1.21-1.2c-0.5-0.99-1.25-2.03-1.42-3.11c-0.04-0.24-0.79-1.49-0.45-1.35   c-0.4-0.09-0.4-0.74,0-0.86c0.5-0.14,1.1,0.76,1.47,2.16c0.33,1.23,1.61,0.99,1.27,2.63c0.6,0.99,1.82,3.04,2.74,3.6   c0.08,0.45,0.22,0.6,0,1.03c0.28,0.75,0.79,3.01,1.37,3.43c-0.55,0.4-0.86,0.33-0.77,1c0.07,0.42,0.39,0.67,0.77,0.88   c0.06,0.29,0.11,0.57,0.17,0.86c-0.27,0.15-1.25-0.12-1.2,0c0.36,0.73,0.94,2.29,1.3,3.03c-0.2,0.44,0.25,1.61,0.51,1.83   c0.74,0.71,1.64,0.14,2.1,1.06c0.33,0.79,0.12,1.49,0.36,2.31c0.29,0.06,0.74-0.57,1.03-0.51c-0.09,0.37-0.77,1.35-0.86,1.71   c0.38,0.35,1.45,0.76,1.37,1.37c0.29,0.11,0.06,0.91,0.34,1.03c0.32-1.6,0.77,0.25,1.71,0.34c0.12-0.1,1.08-0.24,1.2-0.34   c0.66-0.26,1.61-0.3,1.88-1.03c0.48,0.17,0.54,0.99,0.86,1.37c0.05-0.66,1.33-0.96,0.17,1.2c0.33,0.24,0.67,0.66,1.04,0.37   c0.81-0.58,1.14-2.92,2.72-2.97c1.49-0.1,3.12-0.24,4.63,0.54c-0.41-0.67-2.71-2.67-1.03-3.6c0.67,0.07,2.66,1.29,2.97,0.96   c0.32-0.3,0.64-0.41,0.39-0.94c-0.22-0.46-0.88-0.21-0.79-0.71c-0.03,0.34-0.57,0.17-0.86,0.17c-0.23-0.22,0.17-1.21-0.17-1.2   c0.12,0.12,0.91,0.57,1.03,0.69c0.27,0.27,0.21-0.65,0.09-0.75c-0.68-0.48-1.37-0.96-2.05-1.44c-0.26-0.41-0.52-0.82-0.78-1.23   c0.07,0.03,0.14,0.06,0.2,0.1c1.24,0.57,2.23,1.63,3.7,1.18c0.32-0.1,0.71-0.07,0.77-0.3c0.11-0.43,0.33-1.1,0.12-1.49   c0.27-0.35,0.49-0.4,0.51-0.86c0.46-0.1,1.33-0.51,1.71-0.34c0.44-0.76,0.37-0.78,1.2-1.03c0.17-0.29,0.34-0.57,0.51-0.86   c-0.61-0.9-0.92-2.35,0-3.08c0.23-0.71,0.34-1.3,1.2-1.2c-0.02-0.54,0.35-2.01,0.17-2.23c0.4-0.39,0.44,0.1,1.03,0.17   c-0.03-0.04-0.05-0.78-0.08-0.82c-0.2-0.38-1.47-1.06-1.47-1.06c0.86-0.11,1.69,0.2,2.24-0.32c0.68-0.71,1.89-4.38,1.31-5.12   c-0.5-0.47-0.99-0.95-1.49-1.42c-0.51-0.06-1.03-0.11-1.54-0.17c-0.53,0.35-0.71,0.6-1.34,0.3c-1.04-0.79-2.08-1.57-3.12-2.36   c-0.23-0.23-0.46-0.46-0.69-0.68c-0.29-0.12-0.57-0.23-0.86-0.34c-0.32,0.15-0.63,0.3-0.95,0.45c-0.46-0.3-1.29-0.63-1.45-1.13   c-0.25,0.22-0.5,0.44-0.75,0.66c-0.74,0.16-1.8-1.02-2.84-0.83c-0.29-0.21-0.62-0.32-0.69-0.69c-0.98-0.29-3.29-1.88-3.25-2.91   c-0.32-0.42-1.09-1.05-1.03-1.54c-0.53-0.5-1.31-0.93-0.86-1.71c-0.45-0.41-0.89-0.82-1.34-1.23c-0.33-0.69-0.66-1.38-1-2.07   c-0.66-0.87-0.39-0.88,0.11-0.64c0.06,0.29,1.48,1.94,1.54,2.23c0.48,0.45,1.36,1.01,1.37,1.71c0.29,0.34,0.57,0.68,0.86,1.03   c0.8,0.47,1.61,0.94,2.41,1.41c0.11-0.01,0.22-0.03,0.33-0.04c-0.06-0.06-0.12-0.11-0.18-0.17c-0.9-1.03-1.81-2.07-2.71-3.1   c-0.65-1.07-1.31-2.14-1.96-3.21C129.98,96.44,129.47,95.74,128.96,95.04z"/>
            <circle cx="135.69" cy="128.37" r="1.586"/>
        </g>
        <g id="__Kovancılar">
            <path d="   M520.39,156.43c-0.03,1.18-2.65,3.8-3.75,4.23c-1.12,2.02-3.21,4.39-5.14,5.65c-0.29,0.29-0.57,0.57-0.86,0.86   c-0.5,0.31-0.99,0.61-1.49,0.92c-1.79,1.58-3.58,3.15-5.36,4.73c-0.84,0.35-1.67,0.7-2.51,1.05c-0.92,0-0.8-0.33-1.61,0.14   c-2.8-1.65-4.88-0.74-7.88-1.03c-0.84,0.49-1.82,0.75-2.74,1.2c-1.13,0.56-3.19,0.86-3.69,1.92c-0.2,0.46-0.66,1.44-0.25,1.85   c-0.16,0.7-0.65,1.75-0.17,2.4c-0.18,1.02-0.36,2.03-0.54,3.05c-0.04,1.41-0.3,2.85-1.76,3.6c-1.46,0.69-3.61,0.17-5.24,0.02   c-0.53-0.05-1.27,0.25-1.71,0.02c-0.6,0.26-1.35,0.91-2.06,0.69c-1.42,0.96-2.5,2.15-3.38,3.62c-0.53,0.89-0.82,2.11-1.76,2.71   c-0.66,0.43-1.31,0.68-2.08,0.84c-0.2,0.49-0.54,0.37-1,0.53c-1.01,0.35-2.91-0.05-3.77,0.86c-1.08,0.06-2.17,0.11-3.25,0.17   c-0.91,0-1.82,0-2.73-0.01c-0.92,0.06-1.83,0.12-2.75,0.18c-0.8-0.17-1.6-0.34-2.4-0.51c-0.57-0.57-2.43-1.34-3.26-1.49   c-1.13-0.21-3.81-0.69-4.62,0.12c-1.14,1.14-2.28,2.29-3.43,3.43c-2.64,2.03-5.27,4.06-7.91,6.1c-1.76,1.39-3.52,2.79-5.28,4.18   c-0.97,0.74-1.94,1.48-2.91,2.23c-1.03,0-1.18,0.4-2.06,0.86c-0.2,0.37-0.35,0.46-0.17,0.86c-0.23,0.34-0.46,0.69-0.69,1.03   c-0.16,0.43-0.33,0.86-0.49,1.29c-0.29,0.43-0.68,0-0.74,0.16c-0.33,0.68-0.66,1.36-0.99,2.04c-0.74,0.44-1.49,0.88-2.23,1.31   c-1.54,0.06-0.6,1.31-2.14,1.37c-0.11,0.4-2.71-0.4-2.83,0c-0.4-0.06-0.8-0.11-1.2-0.17c-0.98,0.38-2.18,0.86-3.25,0.86   c-0.86,0.36-1.72,0.73-2.58,1.09c-0.83,0.15-3.43,0.25-3.93,0.62c-0.39-0.01-0.73-0.1-1.03,0.17c-0.34-0.11-0.69-0.23-1.03-0.34   c0.24,0.52-0.71,0.92-1.24,1.1c-1.55,0.55-3.3,0.68-4.75,1.5l-0.19,0.11c-0.28,0.04-0.16,0.05-0.19-0.32   c-0.73-0.32-1.31-1.32-1.73-2.06c-1.45-2.48-2.44-4.93-5.06-6.24c-1.21-0.59-3.31-0.22-4.86,0.3c-0.34,0.11-1.08,0.46-1.43,0.57   c-0.46-0.06-1,0.46-1.46,0.4c-1.27,0.88-2.88,1.64-4.45,1.88c-1.24,0.19-2.22-0.21-3.25-0.86c-0.96,0-2-0.13-2.91,0.17   c-0.63-0.4-1.26-0.8-1.88-1.2c-0.34,0.11-0.69,0.23-1.03,0.34c-0.72,0.05-1.45,0.1-2.17,0.15c-1.05,0.38-1.83,0.81-2.78,1.6   c-0.57,0.47-0.99,1.11-0.5,1.61c0.33,0.32,0.12,0.41-0.22,0.42c-0.51-0.02-1.02-0.04-1.54-0.06c-0.08-0.36-0.2-0.46,0.01-0.81   c-0.51-0.69-1.03-1.37-1.54-2.06c-0.8-0.29-1.6-0.57-2.4-0.86c-0.66-0.34-1.49,0.05-2.06-0.51c-0.89,0.17-1.34,0.48-2.23,0.34   c0.38-0.38-0.1-1-0.36-1.36c0.01-0.12-2.02-2-2.32-2.23c-0.59-0.44-1.24-1.2-1.6-1.89c-0.66-0.19-0.61-0.56-1.03-1.03   c-0.63-0.46-1.26-0.91-1.88-1.37c-0.44,0.3-2.96-0.41-3.88-0.3c-0.77-0.7-0.09-0.9-1.32-1.37c-0.15-0.01-0.3-0.03-0.45-0.04   c-0.34,0.13-0.68,0.25-1.02,0.38c-1.46,0.34-1.87,0.26-3.26-0.38c-0.8,0-1.3-2.24-1.37-2.91c-0.12-1.15-0.21-2.16-0.86-3.08   c0.23-0.46-0.24-2.83-0.4-3.41c-0.17-0.65-0.72-0.97-0.97-1.56c-0.31-0.73-0.07-1.52,0.12-2.24c0.6-0.33,1.19-0.65,1.79-0.97   c0.34-0.09-0.58-0.21-0.71-1.24c-0.08-0.59-0.24-1.13-0.72-1.55c-0.35-1-0.65-1.82-0.65-2.91c0.25-0.43,0.51-0.86,0.77-1.28   c0.43,0.03,0.86,0.06,1.29,0.09c0.81-0.22,1.63-0.44,2.44-0.65c1.15-0.13,1.77,0.23,2.87-0.2c0.76,0,1.7-1.99,2-2.62   c0.03-0.07-0.35-2.63-0.8-2.17c0-0.38,0-0.75,0.01-1.13c0.58-0.54,0.45-1.37,0.85-1.95c0.72-1.04,1.63-1.87,2.74-2.4   c-0.09-0.64,0.62-1.36,1.03-1.88c0.74-0.34,1.48-0.69,2.23-1.03c0.35-0.12,0.95-0.08,1.2,0.17c0.29-0.37,1.09-0.51,1.54-0.69   c0.65-0.9,3.23-2.4,4.28-2.4c0.56-0.4,1.05-0.64,1.73-0.79c1.98-0.43,4.1-0.03,6.15,0.1c2.46,0.23,4.91,0.46,7.37,0.68   c0.28,0.28,0.96,0.3,1.37,0.34c1.37,0.06,2.74,0.11,4.11,0.17c2.06,0,4.11,0,6.17,0c1.22-0.1,2.33-0.25,3.53,0.14   c0.02,0.29,2.4-0.08,3.83,0.28c0.4-0.16,1.14,0.16,1.54,0c0.34-0.3,0.69,0.21,1.03-0.08c0.57-0.12,1.14-0.23,1.71-0.34   c0.44-0.44,0.9-0.65,1.37-1.03c1.62-1.28,2.6-2.3,4.62-2.92c0.34-0.17,0.69-0.34,1.03-0.5c2.9-0.59,5.99,0.06,8.74-1.03   c0.78,0.17,1.48-1.23,1.81-1.77c0.25-0.38,0.51-0.76,0.76-1.15c0.06-1.31,0.11-2.63,0.17-3.94c0.28-0.51,0.57-1.03,0.85-1.54   c0.49-0.97,2.6-0.8,3.6-1.03c0.74-0.63,1.48-1.26,2.23-1.88c0.22-0.86,0.45-1.72,0.67-2.58c0.01-0.05,0.01-0.1,0.02-0.16   c0.12,0.41,0.49,0.63,0.86,0.86c0.74,0.68,1.48,1.36,2.22,2.04c1.69,1.8,3.37,3.6,5.06,5.41c0.35,0.35,1.57,1.69,1.97,1.29   c0.74,0.57,1.48,1.14,2.23,1.71c1.95,1.07,3.9,2.14,5.86,3.21c2.44,0.64,4.89,1.29,7.33,1.93c1.03-0.06,2.05-0.11,3.08-0.17   c2.69,0.05,5.37,0.11,8.06,0.17c0.49,0.37,0.97,0.73,1.46,1.1c0.65,0.49,1.31,0.98,1.96,1.47c1.83,0.06,3.65,0.12,5.48,0.17   c0.74-0.06,1.48-0.11,2.23-0.17c0.51-0.17,1.03-0.34,1.54-0.51c0.69-0.63,1.37-1.26,2.06-1.88c0.23-0.74,0.46-1.49,0.69-2.23   c0.4-0.68,0.8-1.37,1.19-2.05c0.28-0.06,2.85-2.37,3.25-2.77c0.28-0.28,3.4-2.19,3.6-2.19c1.32-1.45,3.22-2.25,4.8-3.43   c1.42-0.49,2.84-0.98,4.26-1.47c0.64-0.14,1.27-0.28,1.91-0.42c2.54-0.41,5.51-1.45,8.05-1.37c0.58-0.67,2.53-0.63,3.4-0.86   c3.13-0.82,6.19-1.48,9.44-1.88c2.29-0.54,4.58-1.09,6.87-1.63c0.77-0.09,1.53-0.19,2.3-0.28c1.25-0.4,3.37-1.26,4.56-0.42   c0.71,0.94,0.49,2.26,0.49,3.37c0,2.16-0.17,4.11,0.51,6.17L520.39,156.43z"/>
            <circle cx="423.63" cy="201.17" r="1.586"/>
        </g>
        <g id="__Elazığ">
            <path d="   M189.64,155.69c-0.33,0.23-0.36,0.65-0.38,1.06c-0.06,1.52-0.26,3-0.94,4.4c-0.19,0.63-0.38,1.27-0.56,1.9   c-0.11,0.23-0.23,0.46-0.34,0.69c-0.68,0.4-1.4,2.94-1.88,3.77c-0.55,0.95-1.15,1.35-1.37,2.4c-0.76,0.23-0.65,1.3-1.03,1.88   c-0.83,1.28-2.12,2.96-2.4,4.62c-0.12,0.73-0.08,3.16,0.37,3.63c-0.05,0.67,0.1,1.79,0.49,2.36c0.46,0.67,1,1.67,1.03,2.52   c0.17,0.3,0.34,0.6,0.51,0.9c-0.11,0.63-0.23,1.26-0.34,1.88c0,0.29,0,0.57,0,0.86c-0.53,0.36-1.71,3.09-2.06,3.77   c-0.01,0.34-0.02,0.69-0.03,1.03c-0.14,1.87,0.48,4.14,1.74,5.48c0.11,0.29,0.23,0.57,0.34,0.86c0.88,1.07,1.5,1.82,1.71,3.25   c0.13,0.85-0.4,1.62-0.51,2.4c-0.11,0.86-0.23,1.71-0.34,2.57c-0.46,1.58-1.37,2.58-1.37,4.45c0.29,0.57,0.57,1.14,0.86,1.71   c1.14,0.74,2.28,1.48,3.43,2.23c-0.03,1.13,0.32,2.2,0,3.25c-0.36,1.17-1.31,1.88-2.06,2.74c-0.57,0.74-1.14,1.49-1.71,2.23h-0.51   c0.11,0,0.22-0.01,0.34-0.01c2.17-0.05,4.34-0.11,6.51-0.16c0.51,0.06,1.03,0.11,1.54,0.17c0.8,0,1.6,0,2.4,0   c0.69-0.17,1.37-0.34,2.06-0.51c1.23-0.32,3.22-0.36,3.6,1.07c0.08,0.31,0.15,0.31,0.08,0.65c-0.13,0.77-1.18,3.01-1.65,3.3   c-0.7,0.37-1.09,0.6-1.93,0.53c-0.78,0.8-1.84,1.89-1.35,3.13c0.17,0.36,0.3,0.51,0.23,0.91c0.88,0.88,2.73,2.9,2.27,4.14   c-0.12,0.18-0.24,0.35-0.35,0.53c0.18,0.62,0.1,0.48-0.39,0.64c-0.48,0.13-1.07,0.13-1.35,0.52c-0.63-0.06-1.26-0.12-1.88-0.17   c-0.33,0.03-0.67,0.06-1.01,0.09c-1.19-0.64-1.32-3.85-2.59-3.85c0.18-0.5,0.09-1.98-0.55-2.09c-1.73-0.29-4.32,0.1-5.43,1.61   c-1.42,1.9-0.65,5.2,0.67,7.14c0.74,0.69,1.48,1.38,2.23,2.06c0.59,0.68,1.45,2.5,2.22,2.59c0.1,0.96,0.18,1.79,0.34,2.74   c-0.05,0.51-0.1,1.02-0.15,1.54c0.09,0.58,0.63,1.63,0.32,2.06c0.23,0.16,0.46,0.32,0.69,0.49c0.57,0.45,1.15,0.9,1.72,1.35   c0.41,0.05,0.73,0.25,1.02,0.56c0.51,0.17,1.03,0.34,1.54,0.51c0.7,0.41,1.61,1.37,2.4,1.37c1.12,1.85,2.58,6.74,2.11,8.87   c-0.13,0.47-0.27,0.94-0.4,1.41c-0.27,0.4-0.65,0.72-0.69,1.2c-0.37,0.43-0.81,0.81-0.86,1.37c-0.53,0.44-1.05,0.88-1.58,1.32   c-1.02,1.67-2.72,3.15-2.72,5.15c-0.54,0.69-1.08,1.39-1.63,2.08c0.11,1.28,0.2,2.69,1.24,3.45c0.14,0.51,0.27,1.01,0.41,1.52   c0,0.34,0,0.69,0,1.03c-0.42,1.22-1.41,2.22-0.83,3.58c0.49,1.16,3.28,3.17,2.37,2.4c1.59,1.33,1.97,1.46,4,2.06   c1.91-0.46,3.54,0.9,5.1,0.27l0.07-0.09c0.65-0.16,2.43-1.78,2.65-2.4c0.58-0.42,1.15-0.68,1.75-1.06   c0.25-0.16,0.06-0.29-0.03-0.48c0.74-0.43,1.26-0.64,2.13-0.5c2.2,0.4,4.4,0.79,6.61,1.19c0.4,0.4,1.72,0.95,2.23,0.69   c1.27-0.88,2.49-1.51,3.77-2.4c1.88,0,4.01-0.44,5.45-1.74c2.7-2.43,3.94-6.39,5.8-9.44c0.83-1.12,1.67-2.24,2.51-3.36   c0.58-0.77,1.17-1.53,1.75-2.3c0.46-0.38,1.51-0.81,1.62-1.32c0.16,0.08,0.33,0.16,0.49,0.24c0.92,0.49,1.84,0.99,2.76,1.48   c1.08,0.2,2.16,0.4,3.23,0.6c2.72,0.8,5.5,1.65,8.4,1.45c0.98-0.11,1.95-0.22,2.93-0.33c1.14-0.52,2.07-0.84,3.25-0.86   c0.47-0.13,0.93-0.26,1.4-0.4c0.83-0.03,1.66-0.07,2.48-0.1c0.61,0.41,1.98,0.4,2.69,0.28c0.77,0.61,1.48,0.34,2.27-0.07   c0.39-0.22,0.77-0.42,0.57-0.91c0.97-0.11,1.94-0.23,2.91-0.34c1.48-0.86,2.97-1.71,4.45-2.57c0.86-0.4,1.71-0.8,2.57-1.2   c0.91-0.34,1.83-0.68,2.74-1.03c0.74,0,1.48,0,2.23,0c0.57,0.17,1.14,0.34,1.71,0.51c0.68,0.4,1.37,0.8,2.06,1.2   c0.97,0.17,1.94,0.34,2.91,0.51c0.93,0.25,1.79,0.82,2.55,1.39c0.58,0.43,2.58,1.88,2.42,2.04l0,0.21c0.98-0.34,2.05,0.3,3.25,0.48   c1.31-0.46,2.63-0.91,3.94-1.37c0.22-0.35,0.64-0.37,1.03-0.51c1.08-0.57,2.17-1.14,3.25-1.71c0.11-0.7,1.61-1.71,2.23-1.71   c0.4-0.57,0.8-1.14,1.2-1.71c0.46-0.51,0.91-1.03,1.37-1.54c0.43,0.01,2.9-1.17,3.25-1.5c0.06-0.19,0.13-0.38,0.19-0.56   c0.33-0.37,0.25-0.42,0.63,0.04c0.19-0.01,0.37-0.02,0.56-0.03c0.72-0.54,1.79-0.48,2.64-0.74c0.2-0.1,0.41-0.19,0.61-0.29   c0.31,0.4,1.36,0.61,1.88,0.69c1.29,0.2,2.54,0.42,3.79,0.74c0.48,0.12,0.84-0.02,1.34-0.05c0.92,0.22,1.83,0.44,2.75,0.65   c0.51-0.05,1.02-0.09,1.53-0.14c0.34,0.17,0.69,0.34,1.03,0.51c0.64-0.31,1.74,0.15,2.37,0.22c0.56,0.1,0.25,0.13,0.6,0.58   c0.71,0.03,0.75,0.99,0.8,1.63l0.56-1.27c0.39-0.73,0.47-1.46,0.81-2.18c1.24-2.92,2.39-5.76,4-8.51c0.9-1.27,1.79-2.54,2.69-3.81   c0.4-0.46,0.79-0.92,1.19-1.38c0.28-0.37,0.56-0.73,0.84-1.1c1.38-0.78,2.75-1.56,4.13-2.33c1.93-1.33,5.67-3.59,8.02-3.77   c0.57-0.08,1.13-0.15,1.7-0.23c0.57,0.08,1.13,0.16,1.7,0.24c0.76,0.4,1.52,0.8,2.29,1.19c0.51,0.51,1.03,1.03,1.54,1.54   c0.4,0.23,0.8,0.46,1.2,0.69c0.8,0,1.6,0,2.4,0c0.5,0.12,1,0.23,1.5,0.35c1.35,0.08,1.6-0.26,2.95,0.34   c0.63,0.28,1.19,0.77,1.6,1.31c0.58,0.07,2.64,1.71,2.85,2.29c0.63,0.57,1.26,1.14,1.88,1.71c0.34,0.17,0.69,0.34,1.03,0.51   c0.29,0.34,0.57,0.69,0.86,1.03c0.51,0.46,1.03,0.91,1.54,1.37c0.34,0.11,0.69,0.23,1.03,0.34c1.38,0.6,5.75,0.51,7.2,0.08   c0.74-0.33,1.47-0.65,2.21-0.97c0.46,0.1,2.88-1.36,3.07-1.86l-0.04,0.38c0.5-2.06,0.44-4.18,0.41-6.35   c-0.02-1.17,0.07-2.3-0.2-3.43c-0.51-1.85-2.83-2.42-4.45-3c-0.33-0.08-0.66-0.16-1-0.25c-0.8-0.34-1.6-0.68-2.4-1.03   c-0.11-0.54-0.84-1.07-1.2-1.54c-0.23-0.69-0.46-1.37-0.69-2.06c-0.11-1.08-0.23-2.17-0.34-3.25c0.44-1.41,1.37-2.43,1.37-3.94   c0.51-0.51,1.03-1.03,1.54-1.54c0.69-0.27,1.34-0.85,1.34-0.85l0.54,0.14c-0.28,0.04-0.16,0.05-0.19-0.32   c-0.73-0.32-1.31-1.32-1.73-2.06c-1.45-2.48-2.44-4.93-5.06-6.24c-1.21-0.59-3.31-0.22-4.86,0.3c-0.34,0.11-1.08,0.46-1.43,0.57   c-0.46-0.06-1,0.46-1.46,0.4c-1.27,0.88-2.88,1.64-4.45,1.88c0,0-1.11,0.54-1.88,0.86c-0.06,0.23-0.11,0.46-0.17,0.68   c2.97,1.65,4.62-0.36,7.19-1.56c0.18-0.03,0.99-0.13,1.17-0.16c0.52,0.32-0.14,1.24-0.27,1.72c-0.08,0.3-1.19,1.49-1.61,1.64   c-1.81-0.05-3.45-0.05-5.25-0.23c-2.28-0.23-3.08,0.3-4.48,0.8c-0.4,0-0.8,0-1.2,0c-1.24-0.7-2.96-0.39-4.29-0.31   c-2.73,0.17-4.93-0.28-7.58,0.61c-0.04,0.01-0.08,0.03-0.12,0.04c0.35,0.09,0.48,0.56,0.69,0.86c0.05,0.3,0.1,0.6,0.15,0.91   c0.01,0.04,0.01,0.08,0.02,0.12c-0.34-0.25-0.51-0.3-0.86,0c-1.4,1.21-3.54-0.14-5.14,0.17c-1.32,0.26-3.24,1.56-4.28,2.4   c-0.19,0.68-0.81,1.46-1.2,1.88c-0.65,0.65-1.58,0.2-2.4,0c-0.51,0.25-1.34-0.05-1.88-0.17c-0.32,0.19-0.5,0.06-0.86,0   c-0.74,0.17-1.48,0.34-2.23,0.51c-0.28,0.42-2.12,1.01-2.72,1.25c-0.86,0.27-1.73,0.54-2.59,0.81c-0.63,0.4-1.26,0.8-1.88,1.2   c-0.09-0.05-0.19-0.09-0.28-0.14c-0.53,0.22-1.07,0.44-1.6,0.65c-0.34,0.06-0.69,0.11-1.03,0.17c-1.2,1.31-2.4,2.63-3.6,3.94   c-0.63,0.09-1.2,0.65-1.71,1.03c-0.8,0.23-1.6,0.46-2.4,0.69c-1.07-1.16-4.85-0.35-6.17-0.51c-1.08-1.68-3.16-1.37-4.97-1.37   c-0.43,0-0.75-0.59-0.96-0.92c-0.57-0.88-0.93-1.87-1.5-2.78c-0.46-1,0.17-2.3,1.01-2.93c0.32-0.41,0.64-0.82,0.96-1.24   c0.98-1.2,1.99-2.22,3.4-2.75c0.01-0.57,0.47-0.97,1.03-1.12c0.29-0.31,0.57-0.63,0.86-0.94c1.76-1.17,3.3-2.12,5.22-2.98   c0.6-0.43,1.2-0.87,1.8-1.3c0.45-0.19,0.89-0.38,1.34-0.57c1.31-0.81,2.62-1.61,3.93-2.42c0.59-0.7,1.18-1.41,1.77-2.11   c0.73-1.85,1.01-3.86,1.01-5.86c0.42-0.18,0.73-0.83,1.03-1.2c-0.49-0.49-0.25-3.21-0.17-3.96c0-0.28,0-0.56,0-0.84   c-0.29-0.09-1.35-0.27-1.52,0.07c-0.01,0.03-0.02,0.06-0.02,0.1c0-0.04,0.01-0.07,0.02-0.1c0.18-0.71,0.35-0.83,1-1.27   c-1.18-1.47-0.75-1.38-0.17-2.91c-0.34-0.19-0.6-0.96-0.74-1.35c-0.43-0.51-1.11-0.7-1.83-0.7c0-0.42,0.01-0.83,0.02-1.25   c0.17-0.44,0.33-0.88,0.5-1.32c0.53-0.43,0.88-0.82,1.11-1.49c-0.03-0.59-0.05-1.17-0.08-1.76c0.81-0.81-0.03-2.32-0.17-3.25   c-0.15-1.02,0.3-1.1-0.31-2.18c-0.03-0.06-0.03-0.1-0.01-0.13c-0.18,0.14-0.36,0.29-0.54,0.43c-0.17,0.52-0.29,2.12-0.83,2.26   c-0.74,0.23-2.85,0.75-3.24,0.32c-0.24-0.29-0.49-0.58-0.73-0.87c0.29-1.14,0.57-2.28,0.86-3.43c-0.73-0.05-1.16,0.04-1.71-0.51   c-0.11-0.23-0.23-0.46-0.34-0.69c-0.69-0.3-1.38-0.6-2.07-0.9c-0.19-0.36-0.75-0.69-1.18-0.64c-1.22-0.78-1.37-1.31-3.08-1.03   c-0.06,0.34-0.11,0.68-0.17,1.03c-0.79-0.38-1.35,0.98-1.35,1.67c-0.78,0.46-1.67,1.01-2.07,1.92c-0.51,0.34-1.03,0.68-1.54,1.03   c-0.11,0.29-0.23,0.57-0.34,0.86c-0.34,0-0.69,0-1.03,0c-0.36,0.36-0.94,0.21-1.54,0.09c-0.34-0.09-1.16-0.42-1.37-0.69   c-0.52-0.62-0.74-1.4-0.51-1.97c-0.17-0.17-0.34-0.34-0.51-0.51c-0.11-0.34-0.23-0.68-0.34-1.03c0.32-0.01,1.14,0.04,1.24-0.32   c0.3-0.96,0.61-1.93,0.92-2.89c-0.43-0.47-0.87-0.94-1.3-1.41c0.91-0.45-0.86-1.87-1.37-2.23c-0.92,0.37-2.53-1.85-2.74-2.74   c-0.53-0.48-0.95-0.63-1.66-0.69c-1.2-0.89-1.94-0.16-3.14,1.03c-0.89-0.03-1.92-3.08-2.74-2.74c-0.1-0.08-1.1,1.63-1.2,1.54   c-0.07,0.1-0.15,0.2-0.22,0.31c-0.27,0.3-0.54,0.6-0.81,0.89c-0.06,0.29-0.11,0.57-0.17,0.86c-0.47,0.71-0.95,1.42-1.42,2.13   c-0.52,0-1.16-0.91-1.49-4.18c-0.26-0.25-1.12,0.42-1.37,0.17c-0.29-0.11-0.06-0.74-0.34-0.86c-0.71,0-2.39-0.17-2.91-0.69   c-0.96-0.71-0.98-0.8-1.71-1.71c0-0.8-0.51-1.6-0.51-2.4c-0.58,0-0.99,0.02-1.54-0.17c0.11-0.36,0.21-0.72,0.32-1.09   c-0.32-0.27-0.64-0.55-0.96-0.82c-1.38-0.45-2.77-0.9-4.15-1.35c-0.34-0.07-1.44-0.4-1.25-0.69c0.19-0.23,0.38-0.45,0.57-0.68   c0.17-0.4,0.34-0.8,0.51-1.2c-0.09-0.69-0.34-1.59,0-2.23c-0.67,0.33-1.14,0.38-1.71,0.17c-0.07-0.85-0.15-1.7-0.22-2.54   c-0.09-0.21-0.17-0.43-0.26-0.64c-0.24,0.09-0.48,0.18-0.72,0.27c-0.34-0.15-0.68-0.31-1.02-0.46c-1.6,0.51-3.78,1.49-3.78,3.38   c-0.29-0.34-0.57-0.69-0.86-1.03c-0.23,0.11-0.46,0.23-0.69,0.34c-0.14,0.16-0.27,0.32-0.41,0.48c-0.21-0.1-0.41-0.21-0.62-0.31   c-0.36-0.45-0.54-1.62-1.19-1.75c-0.63-0.16-1.26-0.32-1.89-0.48c-0.27,0.08-0.53,0.17-0.8,0.25c0.42,0.62,1.15,1.26,1.03,1.95   c-0.18,1.27-0.51,1.51,0.16,2.64c0.04,0.16,0.08,0.31,0.12,0.47c0.29,0.17,0.57,0.34,0.86,0.51c0.29,0.29,0.57,0.57,0.86,0.86   c-0.18,0.15-0.36,0.31-0.55,0.46c-0.45,0.3-0.89,0.61-1.34,0.91c-0.3,0.53-0.6,2.39-0.34,2.91c-0.23,0.17-0.46,0.34-0.69,0.51   c0-0.28-0.01-0.56-0.01-0.84c-0.11-0.79-0.52-2.08-1.19-2.59c-0.35-0.27-1.71-0.52-1.71-0.52c0.06-0.57,0.11-1.14,0.17-1.71   c-0.55-0.66-1.51-1.49-1.76-2.28c-0.27-0.9,1.23-2.42-0.46-2.33c-0.36,0-0.27-0.06-0.53,0.33c-0.41-0.05-0.66,0.04-0.86-0.34   c-0.4,0.11-0.8,0.23-1.2,0.34c-0.54-0.04-1.24-0.36-1.71,0c-0.32-0.17-0.67-0.44-1.03-0.34c-0.01-0.08-0.02-0.15-0.03-0.22   c-0.1-0.95-0.21-1.91-0.31-2.86c-0.33-0.33-0.3-1.22-0.78-0.51c-0.63,0.92,0.42,1.46-0.8,2.15c-0.54,0.3-1.38,0.34-1.65-0.24   c-0.12-0.47-0.24-0.93-0.36-1.4c0.46-0.46,0.17-0.65-0.31-1.05c-0.79-0.51-1.58-1.01-2.37-1.52c-0.07-0.32-0.68-1.37-0.93-1.37   c-0.4,0-0.8,0-1.19,0c-0.11,0.29-0.23,0.57-0.34,0.86c-0.8-0.06-2.23,0.56-2.23,1.36c0,0.59,0.93,1.45,0.93,1.45   c-0.11,0.06-0.21,0.13-0.32,0.19c-0.2,0.01-0.4,0.03-0.6,0.04c-0.41-0.1-0.28-0.17-0.7,0.21c0-0.34-0.49-1.2-0.95-0.98   c-0.59,0.33-0.79,0.68-0.89,1.33c-0.05,0.41,0.28,0.57,0.64,0.34c0.05,0.26,0.33,2.17-0.35,1.66c-0.33,0.02-0.8,0.4-0.9,0.02   c-0.09-0.44-0.48-2.39-0.93-2.11c-0.34,0.23-0.47,0.45-0.9,0.44c0,1.04-2.29,2.69-2.91,3.6c-0.11,0.68-0.23,1.37-0.34,2.06   c-0.1-0.26-0.2-0.53-0.3-0.79c-0.07,0.59-0.15,1.18-0.22,1.77c0.13,0.64,0.83,0.97,1.38,0.74c-0.03,0.08-0.07,0.16-0.1,0.25   c-0.19,0.43-0.29,0.7-0.75,0.78c-0.49,0.61-0.59,1.22-0.89,1.83c-0.05-0.38-0.09-0.76-0.14-1.14c0.27-0.27,0.38-0.27,0.2-0.61   c-0.37-0.65-1.45-2-2.26-1.27c-0.3-0.3-1-1.22-1.37-0.86c-0.14-0.38-0.15-0.65-0.51-0.86c1.49-1.36,1.38-1.56,1.98-3.26   c0.54-0.8,1.08-1.59,1.62-2.39c0.71-0.97,2.74-1.44,2.91-2.57c0.69-0.24,0.75-0.67,0.86-1.37c-0.4-0.06-0.8-0.11-1.2-0.17   c0.06-0.06,0.11-0.11,0.17-0.17c-0.7-0.35-1.53-0.93-1.37-1.88c-0.34-0.29-0.69-0.57-1.03-0.86c-0.4,0.12-0.8,0.23-1.2,0.34   c-0.62-0.62-1.56-0.78-2.4-0.51c-0.6-0.23-1.84-0.27-2.23-0.68c-0.78,0.37-1.38,0.8-2.23,1.03c-0.27,0.43-0.36,2.09-0.66,1.69   c-0.22-0.26-0.44-0.52-0.66-0.79c-0.07,0.04-0.15,0.08-0.22,0.11c-0.34,0.31-0.28,0.66-0.48,0.2c-0.26-0.61-0.49-2.02-1.25-1.46   c-0.24,0.12-0.48,0.23-0.71,0.35c-0.3,0.57-0.94-0.87-0.99-0.13c0,0.44,0,0.87,0,1.31c0.32,0.31,0.65,0.61,0.97,0.92   c0.08,0.24,0.16,0.47,0.24,0.71c-0.4-0.34-0.8-0.69-1.2-1.03c-0.54,0.24-1.54,0.65-1.2,1.37c-0.23-0.23-0.46-0.46-0.69-0.68   c0.11-0.51,0.23-1.03,0.34-1.54c-0.23-0.06-0.46-0.11-0.69-0.17c0.1-0.46,0.39-1-0.17-1.11c-0.46-0.08-1.35,0.2-1.71-0.26   c-0.15,0.09-0.3,0.17-0.45,0.26c-0.14,0.03-0.27,0.06-0.41,0.08c-0.26,0.52-0.57,1.51-1.03,1.71c0.15,0.16,0.31,0.33,0.46,0.49   c0.38,0.27,0.33,0.09,0.4,0.71c0.4-0.06,2.12-0.09,1.83,0.66c-0.09,0.24-0.19,0.47-0.28,0.71c-0.65-0.18-0.7,0.02-1.31-0.43   c-0.41,0.16-0.65,0.37-0.99,0.16c0.47,0.34,1.89,1.48,1.47,1.74c-0.4,0.09-3.06,0.71-2.58,0.25c0.23-0.34,0.45-0.69,0.67-1.03   c-0.47-0.46-1.38-0.92-1.54-1.54c0.34-0.34,0.69-0.68,1.03-1.03c-0.64-0.64-1.05-0.62-0.17-1.2c-0.11-0.23-0.23-0.46-0.34-0.68   c-0.3,0.17-2.22,1.44-2.23,1.03c0.06-0.75,0.12-1.51,0.18-2.26c-0.67-0.11-1-0.23-1.55-0.65c-0.18,0.49-0.34,1.24-0.96,1.14   c-0.31,0.02-0.61,0.04-0.92,0.05c-0.32-0.63-0.17-1.12-0.96-0.96c-0.46,0.11-1.18,0.09-0.97,0.58c0.42,0.64,0.83,1.28,1.25,1.92   c0.09,0.24,0.18,0.49,0.27,0.73c-0.52,0.35-0.94,0.21-1.12,0.81c-0.21-0.39-0.22-0.68-0.67-0.72c-0.16-0.02-0.32-0.05-0.48-0.07   c-0.47,0.29-0.74,0.25-1.02,0.73c-0.96,1.77,0.28,3.72,0.28,5.54c-0.11-0.06-0.22-0.13-0.33-0.19c-1.11-0.84-3.27-3.36-3.27-5.12   c-0.28-0.28-0.35-1.2-0.17-1.54c-0.27-0.23-0.65-0.71-0.89-0.58c-0.62,0.08-1.23,0.16-1.85,0.24c0.34,0.34-0.56,0.93-0.86,1.2   c-0.51-0.25-1.71-0.98-1.72-0.51c0,0.99,1.38,2.52,1.38,3.59c0.27,0.46,0.94,1.03,0.41,1.38c-0.35,0.22-0.58,0.51-0.58-0.01   c-0.34,0-0.69,0-1.03,0L189.64,155.69z"/>
            <circle cx="264.16" cy="215.04" r="1.586"/>
        </g>
        <g id="__Karakoçan">
            <path d="   M519.58,146.32c-1.18-0.83-3.31,0.02-4.56,0.42c-0.77,0.09-1.53,0.19-2.3,0.28c-2.29,0.54-4.58,1.09-6.87,1.63   c-3.25,0.39-6.31,1.06-9.44,1.88c-0.88,0.23-2.82,0.19-3.4,0.86c-2.54-0.08-5.51,0.96-8.05,1.37c-0.64,0.14-1.27,0.28-1.91,0.42   c-1.42,0.49-2.84,0.98-4.26,1.47c-1.57,1.18-3.48,1.97-4.8,3.43c-0.2,0-3.31,1.91-3.6,2.19c-0.41,0.41-2.98,2.72-3.25,2.77   c-0.4,0.68-0.8,1.37-1.19,2.05c-0.23,0.74-0.46,1.49-0.69,2.23c-0.69,0.63-1.37,1.26-2.06,1.88c-0.51,0.17-1.03,0.34-1.54,0.51   c-0.74,0.06-1.48,0.12-2.23,0.17c-1.83-0.06-3.65-0.11-5.48-0.17c-0.65-0.49-1.31-0.98-1.96-1.47c-0.49-0.37-0.97-0.73-1.46-1.1   c-2.69-0.06-5.37-0.11-8.06-0.17c-1.03,0.05-2.05,0.11-3.08,0.17c-2.44-0.64-4.89-1.29-7.33-1.93c-1.95-1.07-3.9-2.14-5.86-3.21   c-0.74-0.57-1.48-1.14-2.23-1.71c-0.4,0.4-1.62-0.95-1.97-1.29c-1.69-1.8-3.37-3.6-5.06-5.41c-0.74-0.68-1.48-1.36-2.22-2.04   c-0.37-0.23-0.74-0.44-0.86-0.86l0.31-0.58c0.64-0.38,1.28-0.75,1.92-1.13c0.92,0,1.66,0.23,2.57,0c0.51-0.4,1.03-0.8,1.54-1.2   c0.01-0.27,0.03-0.55,0.04-0.82c0.21-1.31,0.98-2.44,0.98-3.81c1.26-1.31,2.51-2.63,3.77-3.94c0.4-0.68,0.8-1.37,1.2-2.06   c-0.06-0.86-0.11-1.71-0.17-2.57c-0.34-1.26-0.69-2.51-1.03-3.77c0.23-1.6,0.46-3.2,0.69-4.8c0.13-0.75,0.58-1.47,1.03-2.06   c-0.16-0.62-0.17-0.98,0.51-1.2c0.12-0.76,0.13-1.84,0.69-2.4c-0.11-0.74-0.23-1.48-0.34-2.23c0.46-0.97,0.92-1.93,1.38-2.9   c0.34-0.41,0.68-0.81,1.02-1.22c-0.01-0.38-0.12-0.58,0.17-0.85c-0.24-0.52-0.84-1.72-0.22-2.04c0.35-0.15,0.67-0.28,1.08-0.18   c1.24-0.62,2.4-1.29,2.74-2.57c0.23-0.88,0.64-0.58,0.23-1.57c-0.19-0.79-0.38-1.58-0.57-2.37c-0.15,0.15-2.09-2.38-2.5-2.91   c-1.53-0.03-4.19-2.19-5.38-3.09c-0.67-0.51-1.39-0.95-1.54-1.71c-1.07-0.24-2.36-1.36-2.21-2.56c0.11-0.63,0.21-1.26,0.32-1.89   c1.52-1.52,3.34-2.86,4.8-4.63c1.87-2.27,2.83-5.21,5.15-7.18c0.7-0.6,1.4-0.8,2.22-1.21c2.21-1.11,2.26,0.38,4.11,0.69   c1.13,0.19,2.69-0.78,3.6-1.37c0,0.35,0.95,0.46,1.28,0.48c0.3,0.24,0.43,0.66,0.43,1.06c0.4,0.38,0.94,1.37,1.54,1.37   c1.86,0,3.63-0.82,5.48-1.2c0.34,0.34,0.87,0.38,1.03,0.86c0.06-0.06,0.11-0.12,0.17-0.17c0.43-0.65,1.07-1.87,1.72-2   c0.65-0.13,0.46,0.17,0.9,0.5c0.67-0.13,1.97,1.52,3.24,0.99c0.38-0.13,0.33-0.05,0.47-0.52c0.42-0.02,0.85-0.04,1.27-0.06   c0.32-0.09,0.64-0.19,0.95-0.28c0.34-0.34,1.61-2.05,1.87-2.06c0.18,0,0.35,0,0.53,0.01c0.08,0.38,0.41,2.33,0.86,1.88   c0.63-0.55,1.64-1.06,1.54-2.06c0.94-0.42,1.83-0.97,2.57-1.71c0.34-0.74,0.69-1.48,1.03-2.23c0.34-0.17,0.69-0.34,1.03-0.51   c0.56-0.14,1.11-0.27,1.67-0.41c0.3-0.44,0.6-0.87,0.9-1.31c0.47-0.17,1.4-0.2,1.33-0.66c-0.12-0.74-0.38-1.08,0.11-1.69   c-0.08-0.47-0.1-0.39,0.28-0.53c0.51-0.2,3.87,0.31,4.62,0.49c0.31-0.13,0.61-0.27,0.92-0.4c0.38-0.17,1.36,0.15,1.26-0.34   c-0.29-1.46,0.89-2.38,1.92-3.26c0.01-0.4,0.18-0.92,0.52-1.14c0.02-0.47,0.05-0.94,0.07-1.41c0.7-0.29,1.38-0.21,1.81-0.65   c0.4,0,0.8,0,1.2,0c0.47-0.47,1.81-1.82,2.57-1.2c0.79-0.79,0.98-0.85,2.06-0.69c1.14-0.63,2.28-1.26,3.43-1.88   c0.74,0.12,1.48,0.23,2.23,0.34c0.8-0.63,1.6-1.26,2.4-1.88c0.33-0.08,1.18,0.15,1.37,0.34c1.75-0.56,3.83-0.51,5.65-0.51   c0.47-0.35,0.69-0.71,1.24-0.89c1.2-0.42,1.84-0.25,2.7-1.33c1.18,1.18,0.86,0.3,2.06,0.51c-0.11-0.06-0.23-0.11-0.34-0.17   c-0.66-0.38-1.84-1-0.82-1.46c1.23-0.47,2.47-0.94,3.7-1.41c0.62-0.67,3.51-1.41,4.48-1.41c0.89,0.08,1.77,0.17,2.66,0.25   c0.35,0.35,0.43,0.55,0.94,0.6c0.92,0.72,1.88,1.33,2.74,2.06c0.21,0.36,0.43,0.72,0.64,1.08c0.71,0.39,1.28,2.14,1.69,2.88   c1.52,2.73,2.76,5.23,2.65,8.53c0.36,0.44,0.17,1.83,0.06,2.39c0.03,0.81,0.06,1.61,0.09,2.42c-0.29,1.14-0.57,2.28-0.86,3.43   c-1.39,2.06-2.78,4.13-4.18,6.19c-0.74,0.38-1.16,1.37-1.65,2.03c-1.38,1.85-2.58,3.76-3.25,6c-0.23,0.46-0.46,0.91-0.69,1.37   c-0.56,1.49-1.12,2.97-1.68,4.45c-0.64,2.17-1.28,4.34-1.92,6.51c-0.17,5.42-0.34,10.85-0.51,16.27c-0.29,1.94-0.57,3.88-0.86,5.82   c-0.24,1.24-1.54,0.55-1.21,2.53c0.04,0.16,0.99-0.22,0.83,0.55c-0.16,1.66-0.32,3.32-0.48,4.98c-0.06,1.2-0.11,2.4-0.17,3.6   c0.13,0.9,1.61,3.26,1.37,3.94c1.15,1.08,2.33,1.65,3.43,2.74c0.26,1.32,1.05,2.68,0.77,4.07c0.1,0.24,0.17,0.97-0.15,1.09   L519.58,146.32z"/>
            <circle cx="467.48" cy="124.25" r="1.586"/>
        </g>
        <g id="__Palu">
            <path d="   M455.59,242.02c-0.24-0.81,2.61-0.35,2.84-0.29c1.16,0.31,2.86,0.88,4.08,0.63c1.19-0.24,2.12-1.03,2.91-1.88   c1.37-0.63,2.74-1.26,4.11-1.88c0.08-0.58,0.93-1.11,1.37-1.54c0-0.95,1.02-1.44,1.54-2.06c0.41-0.57,0.81-1.14,1.22-1.71   c0.97-1.59,1.95-3.18,2.92-4.77c1.07-1.26,2.15-2.53,3.22-3.79c0.7-0.09,1.48-0.94,2.06-1.37c0.46,0,0.91,0,1.37,0   c0.51-0.12,1.03-0.23,1.54-0.34c0.9,0.13,3.55,0.22,4.33-0.08c1.6,0.29,3.12,0.43,4.75,0.43l1.12-0.89   c0.33-0.75,1.91-3.34,2.65-3.57c0.17-0.35,0.35-0.69,0.52-1.04c0.44-0.41,0.88-0.81,1.32-1.22c0.49-0.6,1.22-2.01,1.92-2.2   c0.77-1.37,0.77-1.88,1.63-2.4c2.06-1.71,2.04-1.56,2.14-1.54c2.62-2.35,5.24-4.7,7.85-7.05c1.27-1.07,2.53-2.15,3.8-3.22   c1.37-1.28,3.42-3.39,5.14-4.08c1.25-0.69,2.51-1.39,3.76-2.08c1.37-0.17,2.74-0.34,4.11-0.51c2.89-0.04,5.78-0.07,8.67-0.11   c2.92-1.18,3.53-4.65,5.37-6.92c1.01-1.24,2.03-2.24,3.18-3.31c0.42-0.39,0.9-1.2,1.45-1.31c0.47-1.15,0.95-2.3,1.42-3.45   c0.27-1.46-0.23-3.02-0.57-4.43c-0.17-0.51-0.34-1.03-0.51-1.54c-0.57-0.86-1.14-1.71-1.71-2.57c-0.24-0.25-0.49-0.49-0.73-0.74   c-0.36-0.52-0.71-1.05-1.07-1.57c-3.76-3.17-10.13-4.33-14.71-5.92c-2.07-0.5-4.14-1.01-6.2-1.51c-0.44-0.08-2.03-0.27-2.16-0.7   c-0.38-0.76-0.76-1.52-1.13-2.28c-0.04-0.05-0.7-1.25-0.72-0.77c-0.03,1.18-2.65,3.8-3.75,4.23c-1.12,2.02-3.21,4.39-5.14,5.65   c-0.29,0.29-0.57,0.57-0.86,0.86c-0.5,0.31-0.99,0.61-1.49,0.92c-1.79,1.58-3.58,3.15-5.36,4.73c-0.84,0.35-1.67,0.7-2.51,1.05   c-0.92,0-0.8-0.33-1.61,0.14c-2.8-1.65-4.88-0.74-7.88-1.03c-0.84,0.49-1.82,0.75-2.74,1.2c-1.13,0.56-3.19,0.86-3.69,1.92   c-0.2,0.46-0.66,1.44-0.25,1.85c-0.16,0.7-0.65,1.75-0.17,2.4c-0.18,1.02-0.36,2.03-0.54,3.05c-0.04,1.41-0.3,2.85-1.76,3.6   c-1.46,0.69-3.61,0.17-5.24,0.02c-0.53-0.05-1.27,0.25-1.71,0.02c-0.6,0.26-1.35,0.91-2.06,0.69c-1.42,0.96-2.5,2.15-3.38,3.62   c-0.53,0.89-0.82,2.11-1.76,2.71c-0.66,0.43-1.31,0.68-2.08,0.84c-0.2,0.49-0.54,0.37-1,0.53c-1.01,0.35-2.91-0.05-3.77,0.86   c-1.08,0.06-2.17,0.11-3.25,0.17c-0.91,0-1.82,0-2.73-0.01c-0.92,0.06-1.83,0.12-2.75,0.18c-0.8-0.17-1.6-0.34-2.4-0.51   c-0.57-0.57-2.43-1.34-3.26-1.49c-1.13-0.21-3.81-0.69-4.62,0.12c-1.14,1.14-2.28,2.29-3.43,3.43c-2.64,2.03-5.27,4.06-7.91,6.1   c-1.76,1.39-3.52,2.79-5.28,4.18c-0.97,0.74-1.94,1.48-2.91,2.23c-1.03,0-1.18,0.4-2.06,0.86c-0.2,0.37-0.35,0.46-0.17,0.86   c-0.23,0.34-0.46,0.69-0.69,1.03c-0.16,0.43-0.33,0.86-0.49,1.29c-0.29,0.43-0.68,0-0.74,0.16c-0.33,0.68-0.66,1.36-0.99,2.04   c-0.74,0.44-1.49,0.88-2.23,1.31c-1.54,0.06-0.6,1.31-2.14,1.37c-0.11,0.4-2.71-0.4-2.83,0c-0.4-0.06-0.8-0.11-1.2-0.17   c-0.98,0.38-2.18,0.86-3.25,0.86c-0.86,0.36-1.72,0.73-2.58,1.09c-0.83,0.15-3.43,0.25-3.93,0.62c-0.39-0.01-0.73-0.1-1.03,0.17   c-0.34-0.11-0.69-0.23-1.03-0.34c0.24,0.52-0.71,0.92-1.24,1.1c-1.55,0.55-3.3,0.68-4.75,1.5c-0.69,0.27-1.38,0.55-2.07,0.82   c-0.51,0.51-1.03,1.03-1.54,1.54c0,1.51-0.93,2.53-1.37,3.94c0.11,1.08,0.23,2.17,0.34,3.25c0.23,0.69,0.46,1.37,0.69,2.06   c0.36,0.47,1.09,1,1.2,1.54c0.8,0.34,1.6,0.69,2.4,1.03c0.33,0.08,0.66,0.16,1,0.25c1.62,0.58,3.94,1.15,4.45,3   c0.27,1.13,0.19,2.26,0.2,3.43c0.03,2.17,0.09,4.3-0.41,6.35l0.04-0.38l-0.14,0.7c0,0.46,0,0.91,0,1.37   c-0.36,0.54-0.04,1.2,0.2,1.75c0.29,1.57,3,1.62,3.89,1.93c2.45,0.86,5.44,2.08,6.63,4.57l0.93,0.66c1.14,0.15,2.99,0.47,3.94-0.34   c1.26-0.08,2.5-0.01,3.73-0.44c1.67-0.59,3.34-1.19,5.01-1.78c1.66-0.8,3.31-1.6,4.97-2.4c1.86-2.11,3.73-4.23,5.59-6.34   c1.38-1.1,3-1.79,4.51-2.62c0.34-0.21,0.69-0.42,1.03-0.63c1.09-1.13,2.02-2.73,2.4-4.28c0.19-0.78,0.59-1.93,1.53-2.08   c1.48-0.23,2.86-0.69,4.27-1.21c0.69-0.21,1.38-0.43,2.08-0.65c1.08,0.23,2.17,0.46,3.25,0.68c0.46,0.23,0.91,0.46,1.37,0.68   L455.59,242.02z"/>
            <circle cx="439.56" cy="209.22" r="1.586"/>
        </g>
        <g id="__Arıcak">
            <path d="   M455.59,242.02c0.31,1.03,0.62,2.06,0.93,3.08c0.39,1.25,1.28,2.29,1.54,3.6c0.29,0.34,0.57,0.69,0.86,1.03   c0.23,0.46,0.46,0.91,0.69,1.37c-0.37,0.83-0.1,1.36-0.29,2.21c-0.06,0.27-0.35,0.44-0.4,0.88c-0.17,1.66-0.34,3.31-0.51,4.97   c-0.24,0.92-0.47,1.85-0.71,2.77c-0.05,0.67-0.1,1.35-0.14,2.02c-0.5,2.51-1.26,4.87-2.45,7.09c-0.55,1.58-1.11,3.16-1.66,4.73   c-0.14,0.48-0.65,1.42-0.52,1.59c1,1.15,3.35,1.19,4.8,1.49c2.68,0.57,5.37,1.14,8.05,1.71c0.9-0.01,1.81-0.03,2.71-0.04   c0.7-0.1,1.39-0.2,2.09-0.31c2.06,0.06,4.11,0.11,6.17,0.17c2-0.23,4-0.46,6-0.68c1.14-0.06,2.28-0.11,3.43-0.17   c0.46-0.02,1.19,0.13,1.54-0.17c2.61,0.56,4.93,1.82,7.54,2.06c0.57,0.05,2.93,0.02,3.08,0.17c1.03-0.85,2.59-1.63,3.93-1.52   c0.85,0.07,1.7,0.21,1.89,1.18c0.69,0,1.37,0,2.06,0c0.61,0.42,0.81,0.37,1.54,0.51c2.97,0,5.94,0,8.9,0.01   c3.71-0.22,7.42-0.44,11.13-0.66c1.49-0.11,2.98-0.22,4.47-0.33c1.19-0.32,2.38-0.64,3.57-0.95c0.53-0.15,1.26-0.23,1.14-0.82   c-0.17-0.3,0.16-0.13,0.37-0.13c0.13-0.01,0.26-0.01,0.4-0.02c-0.21,0.21-0.13,0.2-0.31,0.08c-0.18-0.03-0.37-0.05-0.55-0.08   c-2.1-2.7-6.21-5.26-9.08-7.19c-0.35-0.14-0.71-0.27-1.06-0.41c-1.56-0.82-3.19-1.16-4.41-2.46c-0.49-0.05-0.5-0.32-0.67-0.74   c-0.35-1.76-0.7-3.53-1.05-5.29c-0.63-1.94-1.26-3.88-1.88-5.82c-0.23-1.54-0.46-3.08-0.69-4.63c-0.74-0.68-1.48-1.37-2.23-2.05   c-0.29-0.17-0.57-0.34-0.86-0.51c-0.63-0.23-1.26-0.46-1.88-0.69c-0.74-0.23-1.48-0.46-2.23-0.69c-0.37-0.28-1.54-0.88-1.54-1.37   c-0.23,0.06-0.46,0.11-0.69,0.17c-1.45-1.16-2.89-2.31-4.34-3.47c-0.94-0.55-1.88-1.11-2.83-1.66c-2.02-1.43-4.26-3.6-5.85-5.49   c-0.17-0.34-0.34-0.69-0.51-1.03c-1.16-1.47-2.66-3.5-2.57-5.48c0.09-1.92,0.49-3.59,1.36-5.31c0.15-0.3,0.26-1.37,0.01-1.37   c-1.63,0-3.15-0.14-4.75-0.43c-0.78,0.3-3.43,0.22-4.33,0.08c-0.51,0.12-1.03,0.23-1.54,0.34c-0.46,0-0.91,0-1.37,0   c-0.58,0.43-1.36,1.28-2.06,1.37c-1.07,1.26-2.15,2.53-3.22,3.79c-0.97,1.59-1.95,3.18-2.92,4.77c-0.41,0.57-0.81,1.14-1.22,1.71   c-0.52,0.61-1.54,1.1-1.54,2.06c-0.44,0.43-1.29,0.96-1.37,1.54c-1.37,0.63-2.74,1.26-4.11,1.88c-0.79,0.86-1.72,1.64-2.91,1.88   c-1.22,0.25-2.92-0.32-4.08-0.63C458.2,241.67,455.35,241.21,455.59,242.02z"/>
            <circle cx="490.95" cy="250.84" r="1.586"/>
        </g>
        <g id="__Alacakaya">
            <path d="   M410.33,308.97c0.2-0.38,0.26-0.03,0.24-0.66c-0.03-1.08-0.27-4.72,0.21-5.48c0-0.46,0-0.91,0-1.37c-0.03-0.25-0.04-2.64-0.69-2.08   c-1.67,1.53-5.14,0.49-6.68-0.8c-0.62-0.07-1.89-1.61-2.36-2.14c-0.19-0.16-0.37-0.31-0.56-0.47c-0.34-0.8-0.69-1.6-1.03-2.4   c0.03-1.1-0.45-3.68-1.03-4.62c0-1.31-0.29-2.91-0.81-4.06c-0.79-1.71-1.73-3.24-2.27-5.02c-0.23-0.63-0.46-1.26-0.69-1.88   c-0.33-0.65-0.67-1.3-1-1.94c-0.82-1.08-2.87-2.54-2.47-4.04c0.21-0.79,0.75-1.11,1.25-1.73c0.35-0.47,0.71-0.94,1.06-1.4   c0.85-0.7,1.71-1.39,2.56-2.09c0.49-0.28,0.98-0.55,1.47-0.83c0.93-0.62,1.86-1.23,2.79-1.85c0.84-0.11,1.68-0.22,2.53-0.33   c1.28-0.33,2.29-1.04,3.47-1.56c0.26-0.12,1.15-0.25,0.96-0.66l0.93,0.66c1.14,0.15,2.99,0.47,3.94-0.34   c1.26-0.08,2.5-0.01,3.73-0.44c1.67-0.59,3.34-1.19,5.01-1.78c1.66-0.8,3.31-1.6,4.97-2.4c1.86-2.11,3.73-4.23,5.59-6.34   c1.38-1.1,3-1.79,4.51-2.62c0.34-0.21,0.69-0.42,1.03-0.63c1.09-1.13,2.02-2.73,2.4-4.28c0.19-0.78,0.59-1.93,1.53-2.08   c1.48-0.23,2.86-0.69,4.27-1.21c0.69-0.21,1.38-0.43,2.08-0.65c1.08,0.23,2.17,0.46,3.25,0.68c0.46,0.23,0.91,0.46,1.37,0.68   c1.5,0.4,3.39,0.79,3.39,0.79l0.31,0.41c0.31,1.03,0.62,2.06,0.93,3.08c0.39,1.25,1.28,2.29,1.54,3.6   c0.29,0.34,0.57,0.69,0.86,1.03c0.23,0.46,0.46,0.91,0.69,1.37c-0.37,0.83-0.1,1.36-0.29,2.21c-0.06,0.27-0.35,0.44-0.4,0.88   c-0.17,1.66-0.34,3.31-0.51,4.97c-0.24,0.92-0.47,1.85-0.71,2.77c-0.05,0.67-0.1,1.35-0.14,2.02c-0.5,2.51-1.26,4.87-2.45,7.09   c-0.55,1.58-1.11,3.16-1.66,4.73c-0.14,0.48-0.65,1.42-0.52,1.59l-0.59,0.38c-0.5,0.03-1.01,0.06-1.52,0.1   c-1.66,0.16-3.35,0.05-4.91,0.79c-2.24,1.06-4.2,3.11-5.82,5.03c-0.76,0.27-2.21,1.6-2.76,2.25c-2.46,2.93-3.72,6.06-5.29,9.4   c-0.53,0.27-0.89,1.2-1.2,1.71c-0.27,0.92-0.54,1.83-0.81,2.75c-0.81,2.77-1.69,5.56-3.13,8.04c-0.86,0.74-1.71,1.48-2.57,2.23   c-0.69,0.17-1.37,0.34-2.06,0.51c-0.8-0.56-1.37-0.24-2.23,0c-0.57-0.23-1.14-0.46-1.71-0.69c-0.26,0.29-0.48,0.19-0.86,0.17   c-0.96,1.41-1.6,0.42-2.74,0c-0.78,0.41-1.76,0-2.51-0.32L410.33,308.97z"/>

            <circle cx="424.14" cy="283.38" r="1.586"/>
        </g>
        <g id="__Maden">
            <path d="   M335.92,265.69c0.02,0.59-0.42,0.95-1,1.05c-0.19,0.46-0.31,0.61-0.78,0.78c-0.15,0.35-0.3,0.7-0.44,1.05   c0.76,0.53,0.53,0.94,0.44,1.66c-0.18,0.75-1.69,1-2.39,1.36c-0.38,0.25-0.76,0.5-1.14,0.75c-0.63,0.07-1.27,0.14-1.91,0.2   c-1.37,1.18-2.65,1.25-4.26,1.85c-0.17,0.37-2.91,1.9-3.42,1.86c-1.6,0.81-3.2,1.62-4.81,2.42c-0.75,0.06-1.49,0.12-2.24,0.18   c-1.92,0.42-3.82,1.16-5.13,2.73c-0.57,0.06-1.14,0.11-1.71,0.17l0.86,0.51c0,2.97,0.94,4.16,3.77,4.97   c0.34,0.23,0.69,0.46,1.03,0.68c0.29,0.46,0.57,0.91,0.86,1.37c0.07,0.68,0.06,3,0.86,3.25c0,1.14,0,2.28,0,3.43   c0.1,1.33-1.16,4.09-2.03,5.11c-0.04,0.57-0.47,0.86-0.76,1.33c-0.17,0.41-0.34,0.82-0.51,1.23c-0.56,0.64-1.11,1.28-1.67,1.92   c-0.74,0.86-1.48,1.71-2.23,2.57c-2.26,1.91-4.52,3.82-6.78,5.73c-0.57,0.46-1.6,1.4-1.61,2.15c-0.67,0.81-1.35,1.63-2.02,2.44   c-0.64,0.5-1.28,1-1.92,1.5c-0.6,0.48-0.6,1.21-1.4,1.24c-0.15,0.51-0.09,0.51-0.47,0.25l1.19,0.92c1.39,1.26,2.52,2.4,2.91,4.28   c0.08,0.39,0.38,1.34,0.93,1.18c0.59-0.18,1.04-0.59,1.64-0.66c0.22-0.24,0.44-0.49,0.65-0.73c0.35-0.16,0.71-0.31,1.06-0.47   c2.51,0.29,5.02,0.57,7.54,0.86c6.7-0.22,13.98,0.7,19.4,4.64c1.18,1.36,2.37,2.73,3.55,4.09c0.29,0.57,0.57,1.14,0.86,1.71   c0.06,0.8,0.11,1.6,0.17,2.4c0.18,1.04,0.99,1.84,1.47,2.7c0.51,0.94,0.88,2.52,2.11,2.82c3.26,0.92,6.87-0.58,10.12-0.73   c0.7-0.03,3.17,0.01,3.56-0.52c0.81-1.08,1.62-2.16,2.43-3.24c0.56-1.2,1.12-2.39,1.68-3.59c0.54-1.38,0.52-2.85,1.24-4.12   c1.19-2.12,3.06-3.3,4.37-5.19c0.23-0.34-0.49,0.12-0.41-0.24c0.25-0.83,0.7-1.9,1.41-2.34c1.35-0.62,2.71-1.24,4.06-1.86   c2.43-0.4,4.85,0.18,7.18-0.82c2.48-1.07,3.89-3.74,5.65-5.65c1.03-0.97,2.06-1.94,3.08-2.91c2.23-0.46,4.45-0.91,6.68-1.37   c1.34-0.4,4.36,0.21,5.65,0.69c0.51,0.17,1.03,0.34,1.54,0.51c0.51,0.06,1.03,0.11,1.54,0.17c3.37-0.79,6.43-2.88,9.67-4.19   c1.13-0.46,3.73,0.06,4.27-0.8c0.2-0.38,0.26-0.03,0.24-0.66c-0.03-1.08-0.27-4.72,0.21-5.48c0-0.46,0-0.91,0-1.37   c-0.03-0.25-0.04-2.64-0.69-2.08c-1.67,1.53-5.14,0.49-6.68-0.8c-0.62-0.07-1.89-1.61-2.36-2.14c-0.19-0.16-0.37-0.31-0.56-0.47   c-0.34-0.8-0.69-1.6-1.03-2.4c0.03-1.1-0.45-3.68-1.03-4.62c0-1.31-0.29-2.91-0.81-4.06c-0.79-1.71-1.73-3.24-2.27-5.02   c-0.23-0.63-0.46-1.26-0.69-1.88c-0.33-0.65-0.67-1.3-1-1.94c-0.82-1.08-2.87-2.54-2.47-4.04c0.21-0.79,0.75-1.11,1.25-1.73   c0.35-0.47,0.71-0.94,1.06-1.4c0.85-0.7,1.71-1.39,2.56-2.09c0.49-0.28,0.98-0.55,1.47-0.83c0.93-0.62,1.86-1.23,2.79-1.85   c0.84-0.11,1.68-0.22,2.53-0.33c1.28-0.33,2.29-1.04,3.47-1.56c0.26-0.12,1.15-0.25,0.96-0.66c-1.19-2.49-4.18-3.71-6.63-4.57   c-0.9-0.31-3.6-0.37-3.89-1.93c-0.24-0.54-0.56-1.21-0.2-1.75c0-0.46,0-0.91,0-1.37l0.14-0.7c-0.19,0.49-2.62,1.96-3.07,1.86   c-0.73,0.32-1.47,0.65-2.21,0.97c-1.45,0.44-5.82,0.52-7.2-0.08c-0.34-0.11-0.69-0.23-1.03-0.34c-0.51-0.46-1.03-0.91-1.54-1.37   c-0.29-0.34-0.57-0.68-0.86-1.03c-0.34-0.17-0.69-0.34-1.03-0.51c-0.63-0.57-1.26-1.14-1.88-1.71c-0.21-0.58-2.27-2.21-2.85-2.29   c-0.41-0.55-0.97-1.03-1.6-1.31c-1.35-0.6-1.6-0.25-2.95-0.34c-0.5-0.12-1-0.23-1.5-0.35c-0.8,0-1.6,0-2.4,0   c-0.4-0.23-0.8-0.46-1.2-0.69c-0.51-0.51-1.03-1.03-1.54-1.54c-0.76-0.4-1.52-0.79-2.29-1.19c-0.57-0.08-1.13-0.16-1.7-0.24   c-0.57,0.08-1.13,0.15-1.7,0.23c-2.34,0.18-6.09,2.44-8.02,3.77c-1.38,0.78-2.75,1.56-4.13,2.33c-0.28,0.37-0.56,0.73-0.84,1.1   c-0.4,0.46-0.79,0.92-1.19,1.38c-0.9,1.27-1.79,2.54-2.69,3.81c-1.61,2.75-2.76,5.59-4,8.51c-0.34,0.73-0.43,1.46-0.81,2.18   L335.92,265.69z"/>

            <circle cx="376.52" cy="304.97" r="1.586"/>
        </g>
        <g id="__Sivrice">
            <path d="   M308.01,282.27c0,2.97,0.94,4.16,3.77,4.97c0.34,0.23,0.69,0.46,1.03,0.68c0.29,0.46,0.57,0.91,0.86,1.37   c0.07,0.68,0.06,3,0.86,3.25c0,1.14,0,2.28,0,3.43c0.1,1.33-1.16,4.09-2.03,5.11c-0.04,0.57-0.47,0.86-0.76,1.33   c-0.17,0.41-0.34,0.82-0.51,1.23c-0.56,0.64-1.11,1.28-1.67,1.92c-0.74,0.86-1.48,1.71-2.23,2.57c-2.26,1.91-4.52,3.82-6.78,5.73   c-0.57,0.46-1.6,1.4-1.61,2.15c-0.67,0.81-1.35,1.63-2.02,2.44c-0.64,0.5-1.28,1-1.92,1.5c-0.6,0.48-0.6,1.21-1.4,1.24   c-0.15,0.51-0.09,0.51-0.47,0.25c-2.13-1.28-4.25-2.56-6.38-3.83c-0.84-0.35-1.67-0.71-2.51-1.06c-3.08,0.48-4.06,2.56-6.02,4.78   c-0.63,0.46-1.26,0.91-1.88,1.37c-0.31,1.13-0.61,2.25-0.92,3.38c-0.95,0.87-1.9,1.75-2.85,2.62c-0.63,0.46-1.26,0.91-1.88,1.37   c-1.49,0.86-3.33,1.21-4.97,1.39c-0.85,0.11-1.71,0.21-2.56,0.32c-0.59,0.02-2.37,0.03-2.74,0.34c-0.63,0-1.26,0-1.88,0   c-2.19-0.66-3.99-2-6.34-2.23c-0.27-0.48-0.67-0.91-0.34-1.37c-0.29-0.06-0.57-0.11-0.86-0.17c-1.31-0.12-2.63-0.23-3.94-0.35   c-0.06,0.35-0.13,1.55-0.51,1.54c-0.61-0.07-1.21-0.14-1.82-0.21c-0.31-0.1-0.61-0.2-0.92-0.3c-0.86-1.26-2.11-2.35-3.29-3.38   c-0.67-0.53-1.35-1.06-2.02-1.58c-0.24-0.31-0.31-0.54-0.69-0.69c-0.29-0.8-0.57-1.6-0.86-2.4c0-0.78-0.05-2.08-0.87-2.36   c-0.5-0.16-1-0.33-1.49-0.49c-0.64,0.43-1.28,0.87-1.92,1.3c-1.48-1.22-1.15-0.34-2.57-0.34c-0.51,0-0.99-0.41-1.54-0.17   c-1-0.13-2.01-0.25-3.01-0.38c-0.66,0.28-1.32,0.55-1.98,0.82c-0.4,0.61-1.8,1.02-2.52,1.15c-0.21,0.29-2.75,1.14-3.12,0.97   c-0.74,0.34-1.48,0.69-2.23,1.03c-0.79,0.26-1.7,0.35-2.23-0.34c-1.53,0.44-2.96,0.28-4.41,0.93c-0.89,0.4-2.34,1.09-2.27,2.16   c-0.93,0.78-2.25,1.29-3.38,1.49c-0.45,0.46-2.26,0.51-2.79,0.21c-1.58-0.9-3.04-1.7-4.28-3.07c-0.34-0.4-0.69-0.8-1.03-1.2   c-0.97-0.68-1.94-1.37-2.91-2.06c-0.48-0.48-1-1.34-1.03-2.05c-0.91-0.98-1.82-1.96-2.74-2.94c-1.43-1.54-4.26-0.99-5.72-3.06   c-0.68-1.05,0.49-0.97-0.59-1.74c-0.18-0.1-0.36-0.21-0.54-0.31c-0.55,0.58-0.99,1.32-1.56,0.56c-0.56-1.04-1.13-2.09-1.69-3.13   c-0.1-0.35-0.36-0.79-0.1-1.12c1.35-1.43,2.44-1.28,4.03-2.17c2.37-1.33,4.88-2.05,7.55-2.19c2.23-2.11,4.64-3.68,7.46-4.91   c0.71-0.36,1.42-0.72,2.14-1.08c1.11-1.35,1.72-2.08,2.83-3.43c0.65-0.16,2.43-1.78,2.65-2.4c0.58-0.42,1.15-0.68,1.75-1.06   c0.25-0.16,0.06-0.29-0.03-0.48c0.74-0.43,1.26-0.64,2.13-0.5c2.2,0.4,4.4,0.79,6.61,1.19c0.4,0.4,1.72,0.95,2.23,0.69   c1.27-0.88,2.49-1.51,3.77-2.4c1.88,0,4.01-0.44,5.45-1.74c2.7-2.43,3.94-6.39,5.8-9.44c0.83-1.12,1.67-2.24,2.51-3.36   c0.58-0.77,1.17-1.53,1.75-2.3c0.46-0.38,1.51-0.81,1.62-1.32c0.16,0.08,0.33,0.16,0.49,0.24c0.92,0.49,1.84,0.99,2.76,1.48   c1.08,0.2,2.16,0.4,3.23,0.6c2.72,0.8,5.5,1.65,8.4,1.45c0.98-0.11,1.95-0.22,2.93-0.33c1.14-0.52,2.07-0.84,3.25-0.86   c0.47-0.13,0.93-0.26,1.4-0.4c0.83-0.03,1.66-0.07,2.48-0.1c0.61,0.41,1.98,0.4,2.69,0.28c0.77,0.61,1.48,0.34,2.27-0.07   c0.39-0.22,0.77-0.42,0.57-0.91c0.97-0.11,1.94-0.23,2.91-0.34c1.48-0.86,2.97-1.71,4.45-2.57c0.86-0.4,1.71-0.8,2.57-1.2   c0.91-0.34,1.83-0.68,2.74-1.03c0.74,0,1.48,0,2.23,0c0.57,0.17,1.14,0.34,1.71,0.51c0.68,0.4,1.37,0.8,2.06,1.2   c0.97,0.17,1.94,0.34,2.91,0.51c0.93,0.25,1.79,0.82,2.55,1.39c0.58,0.43,2.58,1.88,2.42,2.04c-0.63,0.46-1.26,0.91-1.88,1.37   c0,0.57,0,1.14,0,1.71c0.09,0.12,0.17,0.24,0.26,0.36c-0.83,0.22-1.66,0.45-2.48,0.67c-0.46-0.4-0.91-0.8-1.37-1.2   c-0.75,0-3.37,0.63-3.71,1.22c-0.11,0.26-0.23,0.52-0.34,0.79c-0.11,0.04-0.21,0.08-0.32,0.12c0.56,0.49,0.41,0.75,1.28,0.62   c-0.34,0.17-0.69,0.34-1.03,0.51c-0.8,0.11-1.6,0.23-2.4,0.34c-0.36,0.22-0.72,0.45-1.08,0.67c-0.25,0.46-0.51,0.92-0.77,1.38   c0.35,1.33,1.03,1.53,1.5,2.58c0.36,0.79,0.32,1.45,0.9,2.18c-0.06,0.2-0.13,0.4-0.19,0.61c1.18,0.73,1.58,0.5,2.88,0.64   c0.24,0.18,0.87,0.46,0.78,0.67c-0.13,0.39-0.31,0.32-0.05,0.71c0.13,0.13,0.26,0.27,0.39,0.4c-0.03,0.15-0.06,0.3-0.09,0.44   c0.17-0.01,0.34-0.03,0.51-0.04c0.97-0.1,1.95-0.2,2.92-0.31c0.41-0.15,0.82-0.3,1.23-0.46c0.49-0.1,1.05-0.51,1.52-0.06   c0.57-0.46,1.14-0.91,1.71-1.37c0.86-0.2,1.66-0.35,2.4-0.86c0.46-0.43,0.91-0.86,1.37-1.29c0.97-0.16,1.94-0.32,2.92-0.49   c0.78-0.3,2.05-1.38,2.91-1.13c0.21-0.26,0.52-0.87,0.86-0.85C306.65,281.81,308.01,281.94,308.01,282.27z"/>
            <circle cx="284.88" cy="287.67" r="1.586"/>
        </g>
        <g id="__Baskil">
            <path d="   M178.41,306.85c1.35-1.43,2.44-1.28,4.03-2.17c2.37-1.33,4.88-2.05,7.55-2.19c2.23-2.11,4.64-3.68,7.46-4.91   c0.71-0.36,1.42-0.72,2.14-1.08c1.11-1.35,2.76-3.34,2.76-3.34c-1.56,0.63-3.19-0.73-5.1-0.27c-2.03-0.6-2.41-0.73-4-2.06   c0.92,0.77-1.88-1.24-2.37-2.4c-0.58-1.36,0.41-2.35,0.83-3.58c0-0.34,0-0.68,0-1.03c-0.14-0.51-0.27-1.01-0.41-1.52   c-1.04-0.76-1.13-2.18-1.24-3.45c0.54-0.69,1.08-1.39,1.63-2.08c0-2,1.71-3.49,2.72-5.15c0.53-0.44,1.05-0.88,1.58-1.32   c0.04-0.56,0.49-0.94,0.86-1.37c0.04-0.48,0.42-0.8,0.69-1.2c0.13-0.47,0.27-0.94,0.4-1.41c0.47-2.13-1-7.02-2.11-8.87   c-0.79,0-1.7-0.96-2.4-1.37c-0.51-0.17-1.03-0.34-1.54-0.51c-0.29-0.31-0.61-0.5-1.02-0.56c-0.57-0.45-1.15-0.9-1.72-1.35   c-0.23-0.16-0.46-0.32-0.69-0.49c0.31-0.43-0.23-1.48-0.32-2.06c0.05-0.51,0.1-1.03,0.15-1.54c-0.16-0.95-0.25-1.78-0.34-2.74   c-0.77-0.09-1.63-1.91-2.22-2.59c-0.74-0.69-1.48-1.37-2.23-2.06c-1.32-1.94-2.09-5.24-0.67-7.14c1.11-1.51,3.7-1.89,5.43-1.61   c0.64,0.12,0.73,1.59,0.55,2.09c1.27,0,1.4,3.21,2.59,3.85c0.34-0.03,0.67-0.06,1.01-0.09c0.63,0.06,1.26,0.11,1.88,0.17   c0.28-0.39,0.88-0.39,1.35-0.52c0.49-0.15,0.57-0.02,0.39-0.64c0.12-0.18,0.24-0.35,0.35-0.53c0.46-1.24-1.39-3.26-2.27-4.14   c0.07-0.4-0.06-0.55-0.23-0.91c-0.49-1.24,0.57-2.33,1.35-3.13c0.84,0.07,1.24-0.16,1.93-0.53c0.48-0.29,1.52-2.53,1.65-3.3   c0.07-0.34,0-0.34-0.08-0.65c-0.39-1.43-2.37-1.39-3.6-1.07c-0.69,0.17-1.37,0.34-2.06,0.51c-0.8,0-1.6,0-2.4,0   c-0.51-0.06-1.03-0.12-1.54-0.17c-2.17,0.05-4.34,0.11-6.51,0.16l0.18,0.01c-1.55,0.24-2.64-0.85-4.12-1.17   c-1.02-0.01-2.05-0.02-3.07-0.03c-1.2-0.29-2.4-0.57-3.6-0.86c-0.52,0.52-1.24-0.15-1.88-0.17c-0.63,0.06-1.26,0.11-1.88,0.17   c-0.58-0.63-1.78-0.51-2.57-0.51c-0.4-0.17-0.8-0.34-1.2-0.51c-2.82-0.6-5.77-0.51-8.56-0.51c-0.49-0.49-2.02-0.56-2.74-0.69   c-0.36-0.51-1.31-0.69-1.88-0.86c-1.49-0.43-3.62-2.59-4.87-3.69c-0.4,0.05-0.8,0.1-1.19,0.14c-0.66-0.07-1.32-0.15-1.99-0.22   c-0.29,0.38-0.56,0.34-1.03,0.34c-0.34,0.11-0.69,0.23-1.03,0.34c-1.36,1.32-2.51,2.35-4.31,2.87c-0.82,0.24-1.82-0.49-2.54-0.81   c-0.62,0.07-1.8-0.26-2.23-0.69c-1.1,0-2.37-0.31-3.3-0.79c-0.31-0.15-1.19-1.88-1.05-2.22c-0.71-1.29-1.02-2.61-2.33-3.5   c-0.63-0.43-2.4-0.86-3.03-0.54c-0.87-0.22-1.75-0.44-2.62-0.66c-0.5-0.5-2.79-1.03-3.6-1.03c-1.14-0.63-2.28-1.26-3.43-1.88   c-0.53-1-2.57-2-3.6-2.4c-0.16-0.28-1.78-1.37-2.06-1.37c-0.4-0.46-0.8-0.91-1.2-1.37c-0.62-0.49-1.25-0.98-1.87-1.47   c-0.52-0.31-1.04-0.62-1.56-0.93c-0.34-0.29-0.69-0.57-1.03-0.86c-1.03-0.51-2.06-1.03-3.08-1.54c-0.96-0.47-1.92-0.93-2.88-1.4   c-0.92-0.73-1.96-1.21-3.06-1.57c-1.68-0.9-3.36-1.81-5.04-2.71c-0.17-0.16-0.33-0.33-0.5-0.49l0.28,0.03   c-1.21,0.85-2.02,1.19-3.5,0.77c-0.37,0.09-0.9-0.14-1.07-0.46c-0.34-0.11-0.69-0.23-1.03-0.34c-1-0.55-1.92-1.31-3.15-1.2   c-0.09-0.11-0.19-0.23-0.28-0.34c-0.03,0.03-0.06,0.05-0.1,0.08c-0.28,0.29-0.56,0.59-0.83,0.88c-0.35,0.08-0.2,0.13-0.44-0.11   c-0.71,0.55-1.36,1.13-1.1,2.07c0.11,0.48,0.58,1,0.93,1.35c0,0.23,0,0.46,0,0.68c0.42,1.23,0.9,2.51,1.85,3.44   c1.58,1.55,3.17,1.64,3.29,4.09c0.03,0.55,0.36,0.79,0.25,1.35c-0.17,0.83-1.17,1.25-1.79,1.73c-0.37,0.29-0.39,0.7-0.86,0.86   c0,1.02-0.85,3.07-1.72,3.58c-0.89,0.52-1.83,0.88-2.9,1.04c-0.8-0.01-1.6-0.02-2.39-0.04c-0.34,0.18-0.69,0.37-1.03,0.55   c-0.8,0-1.26,0.42-1.88,0.86c-0.3-0.3-0.63,0.03-1.03,0c-1.2-0.09-1.96,0-3.04,0.58c-1.83,0.99-5.09,4.86-5.01,6.96   c-0.91,1.2-1.83,2.4-2.74,3.6c-0.31,0.31-0.62,0.61-0.93,0.92c-1.16,0.49-3.35,2.17-3.35,3.54c-0.56,0.74-0.69,1.15-0.69,2.06   c-0.35,0.35-0.31,0.89,0,1.2c-0.4,0.29-0.8,0.57-1.2,0.86c0,0.61-0.45,1.65-0.86,2.06c0.06,0.51,0.11,1.03,0.17,1.54   c0.06,0.46-0.36,0.84,0,1.2c0,0.6-0.27,1.76-0.69,2.23c0.51,1.31,1.03,2.63,1.54,3.94c-0.13,1.01-0.26,1.91,0,2.91   c-0.9,0.9-0.46,2.16-0.51,3.25c-0.3,0.3-1.28,1.63-1.03,1.88c0.17,0.4,0.34,0.8,0.51,1.2c0.79,0,1.71-0.29,1.71,0.69   c0,0-0.69,0.48-0.86,0.86c0.11,0.34,0.23,0.68,0.34,1.03c0.31,0.38,0.62,0.77,0.93,1.16c0.57,0.85,0.95-0.42,0.95,0.37   c0,0.35,0,0.69,0,1.04c-0.08,0.37-0.82,1.71,0,1.71c0.23,0.17,0.46,0.34,0.69,0.51c0.56,0,0.63-0.79,1.54-0.68   c-0.2,0.28-1.03,1.11-0.67,1.3c0.65,1,1.48,1.79,2.73,1.79c0.4,0.4,1.17,0.75,1.73,0.62c0.34-0.12,0.43,0.21,0.59-0.14   c0.21-0.52,0.41-1.05,0.62-1.57c0.06,0.08,0.13,0.16,0.19,0.25c0.88-0.44,1.3-1.13,2.07-0.66c0.35,0.2,0.72,0.6,0.79,1   c0.46,0.17,0.91,0.34,1.37,0.51c0.95,0.09,1.89,0.17,2.84,0.26c0.25,0.2,0.51,0.4,0.76,0.6c0.14,0.26,0.29,0.51,0.43,0.77   c-0.14,0.41,0.13,0.81,0.43,1.11c-0.71,0-0.85,2.24-0.51,2.22c1.99-0.12,2.15,0.1,3.6,1.55c0.23,0.11,0.46,0.23,0.69,0.34   c0.78,0,1.31,0.31,2.06,0.34c0.46,0.63,0.91,1.26,1.37,1.88c0.26,0.17,0.76,0.27,1.03,0.17c0.74,0.29,1.48,0.57,2.23,0.86   c0.29,0.17,0.57,0.34,0.86,0.51c0.85,0.65,1.31,1.26,2.38,1.44c0.38,0,0.76,0.01,1.15,0.01c0.24-0.21,0.74-0.99,0.55-0.5   c-0.07,0.28-0.15,0.55-0.22,0.83c0.66,0.61,1.48,0.6,1.98,1.3c0.4,0.06,0.8,0.12,1.2,0.17c1.27,0.57,2.54,1.13,3.81,1.7   c0.84,0.06,1.68,0.12,2.53,0.18c0,0.33,0.38,0.51,0.69,0.51c0.99,0.99,1.31,0.58,2.57,0.68c0.34,0.23,0.69,0.46,1.03,0.69   c1.08,0.71,2.6,1.37,3.94,1.37c0.57,0.8,1.14,1.6,1.71,2.4c0.93,0.44,3.05,1.54,3.94,1.54c0.47,0.36,0.95,0.72,1.42,1.09   c0.71,0.4,1.11,0.17,1.83,0.63c1.04,0,1.42-0.11,2.23-0.69c0.56,0.14,1.39,0.38,1.88,0c0.95,0.7,2.1,1.16,3.25,1.37   c1.35,0.08,2.71,0.17,4.06,0.25c0.88,0.59,1.05,1.55,1.76,2.32c0.83,0.9,1.65,0.77,2.23,2.06c0.56,0,1.16,0.2,1.37,0.69   c0.47,0.16,1.04,0.16,1.37,0.51c0.87-0.17,1.74,0.17,2.57,0c1.37-0.27,2.69-0.84,3.83-1.62c0.44-0.3,1.55-1.05,2-0.6   c0.63,0.33,1.23,0.41,1.37,1.2c0.28,0.14,1.2,0.36,1.2,0.69c0.79,0,0.99-0.17,1.69-0.39c0.86,0.07,1.73,0.15,2.59,0.22   c0.89-0.89,1.9-1.74,3.14-2.06c0.57,0.35,1.51,0.18,2.17,0.18c0.86,0,1.71,0,2.57,0c0.29-0.17,0.57-0.34,0.86-0.51   c0.72,0,1.97-0.94,2.57-0.34c0.29-0.11,0.57-0.23,0.86-0.34c0.46-0.46,0.91-0.93,1.37-1.39c0.47,0.03,1.48-0.25,1.72-0.66   c0.24,0.11,0.3,0.24,0.48,0c0.42-0.52,0.84-2.47,1.32-2.75c0.76,0.56,0.43,2.65,0.43,3.6c0.4,0.46,0.8,0.91,1.2,1.37   c-0.33,0,3.5,3.46,3.68,3.25c0.27,0.66-0.7,4.99-0.43,5.65c0.63,0.63,1.26,1.26,1.88,1.88c0.8,0.23,1.6,0.46,2.4,0.69   c1.48,0.8,2.97,1.6,4.45,2.4c0.4,0.34,0.8,0.69,1.2,1.03c0.51,0.68,0.72,1.45,1.54,1.88L178.41,306.85z"/>
            <circle cx="165.15" cy="247.76" r="1.586"/>
        </g>
        <g id="__Keban">
            <path d="   M124.52,160.8c0.21-0.3,0.11-0.29,0.2-0.66c-0.1-0.27-0.2-0.54-0.29-0.81c-0.02-0.29-0.28-0.53-0.31-0.82   c-0.26-0.33-0.66-1.33-0.49-1.71c-0.23-0.63-0.23-1-0.46-1.63c-0.55-0.96-0.91-1.6-0.65-2.73c0.27-0.52,0.75-0.84,1.02-1.35   c0.4-0.51,1.97-1.54,2.71-1.57c0.74-0.34,1.54-0.49,2.28-0.83c1.4-0.14,3.11-0.83,4.45-1.48l0.2,0.29   c-0.12,0.42-0.24,0.84-0.36,1.25c0.09,0.48,0.19,0.97,0.28,1.45c-0.16-0.62,0.95-1.8,1.37-2.23c0.17-0.11,0.34-0.23,0.51-0.34   c-0.29-0.55-0.38-1.09-0.51-1.71c0.36-0.25,0.28-0.45,0.34-0.86c0.21-0.2,0.41-0.41,0.62-0.61c0.59,0.1,1.17,0.19,1.76,0.29   c0.64-0.46,1.27-0.93,1.91-1.39c0.51,0.12,1.03,0.23,1.54,0.34c0.18,0,1.02,1.43,1.28,1.76c0.22,0.3-0.1,0.55-0.25,0.81   c0.17,0.29,0.34,0.57,0.51,0.86c0.57,0.57,1.14,1.14,1.71,1.71c-0.17,0.34-0.34,0.68-0.51,1.03c1.05,0.29,1.63-0.25,2.57-0.51   c0.83-0.23,1.26,0.28,1.88,0.68c0.8-0.44,1.2-0.53,2.15,0.04c0.5,0.26,0.48,0.93,0.08,1.33c0.11,0.46,0.23,0.91,0.34,1.37   c0.17,0.29,0.34,0.57,0.51,0.86c0.78,0.13,1.48,1.09,1.74,1.7c0.24,0.59-0.14,0.99-0.37,1.56c-0.01-0.87-0.93-0.81-1.54-1.2   c-0.22,0.15-0.87,0.46-0.49,0.57c0.43,0.46,0.53,0.89,0.66,1.48c-1.07,0.3-1.78,0.35-2.91,0.17c-0.17,0.06-0.34,0.11-0.51,0.17   c-0.35,0-0.57,0.88-0.69,1.2c-0.23,0.29-0.46,0.57-0.69,0.86c-0.51-0.09-1.15,0.57-1.54,0.86c-0.11-0.11-0.23-0.23-0.34-0.34   c0.16,0.41,0.94,0.52,0.74,0.9c-0.45,0.45-0.16,1.23,0.01,1.71c0.21,0.56,0.62,0.61,1.13,0.81c0.06,0.4,0.11,0.8,0.17,1.2   c-0.06,0.46-0.13,0.92-0.19,1.38c0.03,0.33,0.43,0.39,0.7,0.51c0.25-0.25,0.48-0.28,0.6,0.07c0.66,0.66,0.1,0.57-0.09,1.47   c0.25,0.36-0.03,1.23-0.01,1.71c0.21,0.58,0.42,1.16,0.64,1.73c0.39,1-2.05,0.36-2.18,0.44c-0.35,0.77-0.97,1.34-1.61,1.86   c-0.68,0.56-2.33-0.57-3-0.78c-0.57-0.06-1.14-0.11-1.71-0.17c-0.29,0.23-0.57,0.46-0.86,0.68c0.25,0.1,0.51,0.2,0.76,0.3   c0.37,0.17,0.57-0.41,0.78-0.64c0.18,0.01,0.36,0.01,0.54,0.02c0.68,0.45,1.36,0.9,2.03,1.36c0.35,0.01,0.7,0.02,1.05,0.04   c0.65-0.02,1.27-0.64,1.69-1.07c0.61-0.04,1.23-0.51,1.71-0.86c0.57-0.06,1.14-0.11,1.71-0.17c0.58,0,0.92,1.11,1.2,1.54   c0.23,0,0.46,0,0.69,0c0.06,0,0.11,0,0.17,0c-0.47-0.47,0.05-1.26,0.17-1.88c0.59,0.61,0.87,1,1.71,1.03   c0.57,0.51,1.14,1.03,1.71,1.54c0.09,0.24,0.19,0.49,0.28,0.73c0.02,0.04,0.04,0.08,0.06,0.12c0.05-0.12,0.1-0.24,0.15-0.35   c0.1-1.48-0.45-2.25-2.02-2.77c-0.47-0.17-0.13-0.3-0.18-0.81c-0.31-0.32,1.24-0.27,1.54-0.34c-0.03-0.12-0.92-0.24-0.95-0.36   c-0.19-1.21-0.49-1.2-1.03-2.24c-0.16-0.31,0.55-0.66,0.79-0.82c0-1.83-1.14-2.53-0.17-1.75c-0.09-0.19-0.3-0.36-0.34-0.81   c0.35,0.21,1.26,0.68,1.71,0.68c0.92,0-0.58-0.86,0.34-0.86c-0.18-0.28-0.42-1.52-0.34-1.2c0,0-0.47-0.36-1.37,0.32   c-0.67-0.15-0.52-0.56,0.35-1.04c-0.04-0.55-1.38,0.27-1.67,0.16c-0.11-0.59,0.05-0.77-0.54-1.05c-0.5-0.26-0.21-0.27-0.11-0.7   c0.14-0.51,1.48-0.77,1.97-1.12c-0.61,0,1.43-1.78,1.71-2.05c-0.14-0.78,0.34-1.37,0.86-1.88c0.83-0.83,1.86,0.17,2.55,0.71   c0.06,0.05,0.13,0.1,0.19,0.15c-0.58,0.69-0.41,1.7,0.03,2.37c0.65,0.92,0.95-0.86,1.08-0.78c0.47,0.31,0.76,0.98,1.28,0.98   c0.44,0,0.49,0,0.73-0.36c0.25-0.32-0.24-0.83-0.39-1.18c0.85-0.19,1.42-0.99,2.57-1.2c-0.4-0.69-0.96-1.75-0.13-2.32   c0.21-0.13,0.15,1.31,0.47,1.63c0.34-0.06,0.69-0.11,1.03-0.17c0.17,0.35,0.21,0.55,0.1,0.93c0.17,0.45,0.35,0.89,0.52,1.34   c0.02,0.04,0.04,0.09,0.06,0.13c0.23-0.29,0.46-0.57,0.69-0.86c0.49,0.49,0.92-0.34,1.37-0.34c0.11-0.06,0.23-0.11,0.34-0.17   c0.29,0.46,0.57,0.91,0.86,1.37c0.34-0.23,0.69-0.46,1.03-0.69c0.11,0,0.23,0,0.34,0c0.57,0.26,0.33,0.67,0.69,1.03   c-0.11,0.34-0.23,0.69-0.34,1.03c-0.23,0.23-0.46,0.46-0.69,0.68c-0.08,0.89-0.71,1.44-0.34,2.4c0,0.37,1.61-0.83,1.88-1.03   c0.57,0.23,1.14,0.46,1.71,0.69c-0.94,0.77-1.41,0.48-1.03,1.54c-0.4,0.33,0.03,0.54,0,1.03c0-0.07-0.01,0.89-0.01,0.82   c0.94-1.17,1.3-1.25,2.58-0.82c-0.08-0.05,0.42-0.47,0.34-0.51c-0.04-0.71-0.79-0.14-1.37-0.51c0.55-0.6,0.52-1.92,0.66-2.76   c0.02-0.11,1.12-0.56,1.4-0.67c-0.74-0.14-1.03-0.85-1.03-1.54c0.15-0.47,0.3-0.95,0.46-1.42c0.09-0.2,0.06-0.13,0.25,0.04   c0.1,0.68,0.19,1.05,0.67,1.55c0.6-0.25,0.93-0.42,1.56-0.22c0.24,0.08,0.45-0.32,0.61-0.51c0.21-0.28,0.23-0.39-0.14-0.35   c-1.61,0.05-0.71-0.45-1.33-1.21c-0.12-0.15-0.24-0.3-0.35-0.44c0.46-0.46,1.3-0.28,1.88-0.17c0.51-0.12,1.03-0.23,1.54-0.34   c0.33-0.24,0.67-0.48,1.01-0.73c0.22-0.15,0.63-1.9,0.88-2.35c-0.17-0.34-0.34-0.69-0.51-1.03c0.86-0.72,1.26,0.06,2.08,0.37   c0.85,0.37,0.35,0.92,0.56,1.66c0.15,0.61,0.43,0.52,0.96,0.54c1.58,0.21,1.79,0.72,2.74,0.51c0.03-0.07,0.75-1.01,0.78-1.08   c0.57,0.2,0.56-0.25,0.93,0.22c0.05,0.06,0.29,0.62,0.34,0.69c-0.33,0.23-0.36,0.65-0.38,1.07c-0.06,1.52-0.26,3-0.94,4.4   c-0.19,0.63-0.38,1.27-0.56,1.9c-0.11,0.23-0.23,0.46-0.34,0.69c-0.68,0.4-1.4,2.94-1.88,3.77c-0.55,0.95-1.15,1.35-1.37,2.4   c-0.76,0.23-0.65,1.3-1.03,1.88c-0.83,1.28-2.12,2.96-2.4,4.63c-0.12,0.73-0.08,3.16,0.37,3.63c-0.05,0.67,0.1,1.79,0.49,2.36   c0.46,0.67,1,1.67,1.03,2.52c0.17,0.3,0.34,0.6,0.51,0.9c-0.11,0.63-0.23,1.26-0.34,1.88c0,0.29,0,0.57,0,0.86   c-0.53,0.36-1.71,3.09-2.06,3.77c-0.01,0.34-0.02,0.69-0.03,1.03c-0.14,1.87,0.48,4.14,1.74,5.48c0.11,0.29,0.23,0.57,0.34,0.86   c0.88,1.07,1.5,1.82,1.71,3.25c0.13,0.85-0.4,1.62-0.51,2.4c-0.11,0.86-0.23,1.71-0.34,2.57c-0.46,1.58-1.37,2.58-1.37,4.45   c0.29,0.57,0.57,1.14,0.86,1.71c1.14,0.74,2.28,1.49,3.43,2.23c-0.03,1.13,0.32,2.2,0,3.25c-0.36,1.17-1.31,1.88-2.06,2.74   c-0.57,0.74-1.14,1.49-1.71,2.23c-1.55,0.24-2.64-0.85-4.12-1.17c-1.02-0.01-2.05-0.02-3.07-0.03c-1.2-0.29-2.4-0.57-3.6-0.86   c-0.52,0.52-1.24-0.15-1.88-0.17c-0.63,0.06-1.26,0.12-1.88,0.17c-0.58-0.63-1.78-0.51-2.57-0.51c-0.4-0.17-0.8-0.34-1.2-0.51   c-2.82-0.6-5.77-0.51-8.56-0.51c-0.49-0.49-2.02-0.57-2.74-0.69c-0.36-0.51-1.31-0.69-1.88-0.86c-1.49-0.43-3.62-2.59-4.87-3.69   c-0.4,0.05-0.8,0.1-1.19,0.14c-0.66-0.07-1.32-0.15-1.99-0.22c-0.29,0.38-0.56,0.34-1.03,0.34c-0.34,0.12-0.69,0.23-1.03,0.34   c-1.36,1.32-2.51,2.35-4.31,2.87c-0.82,0.24-1.82-0.49-2.54-0.81c-0.62,0.07-1.8-0.26-2.23-0.69c-1.1,0-2.37-0.31-3.3-0.79   c-0.31-0.15-1.19-1.88-1.05-2.22c-0.71-1.29-1.02-2.61-2.33-3.5c-0.63-0.43-2.4-0.86-3.03-0.54c-0.87-0.22-1.75-0.44-2.62-0.66   c-0.5-0.5-2.79-1.03-3.6-1.03c-1.14-0.63-2.28-1.26-3.43-1.88c-0.53-1-2.57-2-3.6-2.4c-0.16-0.28-1.78-1.37-2.06-1.37   c-0.4-0.46-0.8-0.91-1.2-1.37c-0.62-0.49-1.25-0.98-1.87-1.47c-0.52-0.31-1.04-0.62-1.56-0.93c-0.34-0.29-0.69-0.57-1.03-0.86   c-1.03-0.51-2.06-1.03-3.08-1.54c-0.96-0.46-1.92-0.93-2.88-1.4c-0.92-0.73-1.96-1.21-3.06-1.57c-1.68-0.9-3.36-1.81-5.04-2.71   c-0.17-0.16-0.33-0.32-0.5-0.49c0.78-1.39,1.56-2.78,2.34-4.16c1.35-1.71,5.27-0.73,6.57,0.57c0.69,0.22,1.38,0.44,2.08,0.66   c0.84,0.35,1.35,0.84,2.03,1.4c1.3,0,2.14,1.1,3.23,1.67c1.04,0.53,3.99-0.21,5.34-0.29c0.43,0.23,1.21,0.06,1.71,0   c0.78,0.54,1.83,0.35,2.78,1.22c2.53-0.29,5.64-1.32,6.75-3.82c0.31-0.69-0.21-1.82-0.62-2.2c-0.86-0.8-1.71-1.6-3.08-2.06   c0.06-0.49-0.41-1.26-0.63-1.74c-0.13-0.32,0.03-0.36,0.19-0.62c0.69-1.09,1.54-0.95,2.67-1.06c0.16-0.01,0.43-1.24,0.57-1.53   c0.52-1.76,1.05-3.53,1.57-5.29c0.31-0.76,0.62-1.52,0.93-2.28c0.29-0.97,0.57-1.94,0.86-2.91c0.06-1.26,0.11-2.51,0.17-3.77   c0.34-0.68,0.69-1.37,1.03-2.06c0.47-0.52,1.04-1.13,1.17-1.86V160.8z"/>
            <circle cx="143.05" cy="176.16" r="1.586"/>
        </g>
    </g>
</svg>