<?xml version="1.0" encoding="UTF-8"?>
<!DOCTYPE svg PUBLIC "-//W3C//DTD SVG 1.1//EN" "http://www.w3.org/Graphics/SVG/1.1/DTD/svg11.dtd">
<svg version="1.1" id="HaritaCizim" xmlns="http://www.w3.org/2000/svg" xmlns:xlink="http://www.w3.org/1999/xlink" x="0px" y="0px" viewBox="0 0 500 330" preserveAspectRatio="none">
    <defs id="__def">
        <radialGradient id="f">
            <stop offset="0" stop-color="white" stop-opacity="1"/>
            <stop id="STOP1" offset=".4" stop-opacity="1"/>
            <stop offset="1" stop-color="white" stop-opacity=".2"/>
        </radialGradient>
        <filter id="__flt1" x="0" y="0" width="200%" height="200%" filterUnits="objectBoundingBox">
            <feGaussianBlur in="SourceAlpha" stdDeviation="3" result="blur1"/>
            <feSpecularLighting result="specOut" in="blur1" specularConstant="1.5" specularExponent="20" lighting-color="#bbbbbb">
                <feDistantLight azimuth="45" elevation="30"/>
            </feSpecularLighting>
            <feComposite in="specOut" in2="SourceAlpha" operator="in" result="specOut"/>
            <feComposite in="SourceGraphic" in2="specOut" operator="arithmetic" k1="0" k2="1" k3="1" k4="0"/>
        </filter>
        <filter id="__flt2" x="0" y="0" width="200%" height="200%" filterUnits="objectBoundingBox">
            <feGaussianBlur in="SourceAlpha" stdDeviation="3" result="blur1"/>
            <feSpecularLighting result="specOut" in="blur1" specularExponent="20" lighting-color="#bbbbbb">
                <fePointLight x="-2000" y="100" z="2000"/>
            </feSpecularLighting>
            <feComposite in="specOut" in2="SourceAlpha" operator="in" result="specOut"/>
            <feComposite in="SourceGraphic" in2="specOut" operator="arithmetic" k1="0" k2="1" k3="1" k4="0"/>
        </filter>
        <filter id="__flt3" x0="-50%" y0="-50%" width="200%" height="200%" filterUnits="objectBoundingBox">
            <feGaussianBlur in="SourceAlpha" stdDeviation="3" result="blur"/>
            <feOffset in="blur" dx="0" dy="0" result="offsetBlur"/>
            <feSpecularLighting in="blur" surfaceScale="4" specularConstant=".5" specularExponent="20" lighting-color="flavor" result="specOut">
                <fePointLight x="-5000" y="-10000" z="5000"/>
            </feSpecularLighting>
            <feComposite in="specOut" in2="SourceAlpha" operator="in" result="specOut"/>
            <feComposite in="SourceGraphic" in2="specOut" operator="arithmetic" k1="0" k2="1" k3="1" k4="0" result="litPaint"/>
            <feMerge>
                <feMergeNode in="offsetBlur"/>
                <feMergeNode in="litPaint"/>
            </feMerge>
        </filter>
        <filter id="__flt4" x0="-50%" y0="-50%" width="200%" height="200%">
            <feGaussianBlur in="SourceAlpha" stdDeviation="2" result="blur"/>
            <feOffset dy="-1" dx="-1"/>
            <feComposite in2="SourceAlpha" operator="arithmetic" k2="-1" k3="1" result="hlDiff"/>
            <feFlood flood-color="white" flood-opacity=".7"/>
            <feComposite in2="hlDiff" operator="in"/>
            <feComposite in2="SourceGraphic" operator="over" result="withGlow"/>
            <feOffset in="blur" dy="3" dx="3"/>
            <feComposite in2="SourceAlpha" operator="arithmetic" k2="-1" k3="1" result="shadowDiff"/>
            <feFlood flood-color="black" flood-opacity="1"/>
            <feComposite in2="shadowDiff" operator="in"/>
            <feComposite in2="withGlow" operator="over"/>
        </filter>
        <filter id="__golge1" x="0" y="0" width="200%" height="200%" filterUnits="userSpaceOnUse">
            <feOffset result="offOut" in="SourceAlpha" dx="8" dy="8"/>
            <feGaussianBlur result="blurOut" in="offOut" stdDeviation="3"/>
            <feBlend in="SourceGraphic" in2="blurOut" mode="normal"/>
        </filter>
    </defs>
    <g id="__Komsular" display="none">
        <radialGradient id="SVGID_1_" cx="3428.9883" cy="966.0317" r="87.3828" gradientTransform="matrix(0.0877 0.0886 -0.0443 0.0439 169.491 -229.6605)" gradientUnits="userSpaceOnUse">
            <stop offset="0" style="stop-color:#5087C7"/>
            <stop offset="1" style="stop-color:#FFFFFF"/>
        </radialGradient>
        <path fill-rule="evenodd" clip-rule="evenodd" fill="url(#SVGID_1_)" stroke="#000000" stroke-width="0.25" stroke-miterlimit="10" d="   M427.08,107.99c-0.11,0.18,0,0.33-0.35,0.27c-0.61,0.76-1.69,1.28-2.48,2c-0.77,0.71-1.54,1.61-2.38,2.11   c-0.07,0.24-0.07,0.72,0,0.96c0.88,0.14,2.22,0.5,2.98,0.98c0.84,0.53,1.06,1.32,2.09,1.68c0.84,0.3,2.05,0.24,2.74,0.88   c0.66,0.61,0.78,2.02,1.75,2.23c0.69,0.95,1.26,2.17,2.75,2.25c-1.64,1.41,0.39,2.5,1.5,3.69c-2.35,0.17-2.77-1.58-4.23-2.84   c-1.19-1.04-2.29-2.37-3.48-3.53c-0.83-0.8-1.67-0.92-2.6-1.36c-0.78-0.37-1.19-1.05-1.93-1.56c-0.81-0.56-1.15-0.7-1.74-1.53   c-0.23-0.33-0.52-0.96-0.84-1.16c-0.54-0.34-0.99,0.17-1.37-0.44c1.18,0.06,2.13-1.14,3.01-1.85c0.93-0.75,2.23-1.81,3.34-2.28   L427.08,107.99z"/>
        <radialGradient id="SVGID_2_" cx="808.7849" cy="2020.0205" r="701.2165" gradientTransform="matrix(0.1247 0 0 0.1247 0 -3.9389)" gradientUnits="userSpaceOnUse">
            <stop offset="0" style="stop-color:#5087C7"/>
            <stop offset="1" style="stop-color:#FFFFFF"/>
        </radialGradient>
        <path fill-rule="evenodd" clip-rule="evenodd" fill="url(#SVGID_2_)" stroke="#000000" stroke-width="0.25" stroke-miterlimit="10" d="   M165.59,312.42c-0.31,0.25-0.97,0.91-1.07,0.48c-0.09-0.79,0.24-2.35-0.29-3.15c-0.42-0.47-0.83-0.94-1.25-1.41   c-0.38-0.13-0.75-0.27-1.13-0.4c-0.36-0.22-0.44-0.56-0.87-0.62c-0.12-0.35-0.24-0.71-0.35-1.06c-0.02-0.07-0.61,0.1-0.77-0.06   c-0.3-0.28-0.59-0.7-0.49-1.12c-0.27-0.18-0.48-0.32-0.62-0.62c0.18-0.28,0.83-0.91,0.62-1.14c-0.25-0.24-0.49-0.49-0.74-0.73   c-0.21-0.12-0.42-0.25-0.62-0.37c0-0.35-0.28-0.83-0.5-1.12c-0.2-0.26-0.76-0.5-0.75-0.12c0.01,0.21,0.05,0.2-0.12,0.37   c0.1,0.95,0.2,1.9,0.3,2.84c-0.03,0.46-0.06,0.91-0.1,1.37c-0.09,0.52-0.18,1.03-0.26,1.55c-0.24,0.12-0.28,0.06-0.31,0.35   c-0.43-0.29-0.75-0.57-1.12-0.87c-0.08,0.42-0.12,0.87-0.38,0.81c-0.12,0.11-0.25,0.21-0.37,0.32c-0.06-0.26-0.13-0.53-0.19-0.79   c-0.06-0.11-0.12-0.22-0.18-0.33c-0.23-0.01-0.26,0.03-0.37,0.25c-0.19-0.25-0.83-1.38-1.06-1.17c-0.19,0.18-0.37,0.36-0.56,0.55   c0.5,0.5,0.62,0.69,0.69,1.4c0.17,0.1,0.23,0.06,0.11,0.16c-0.16,0.15-0.32,0.21-0.31,0.44c-0.37,0.12-1.36,0.67-1.7,0.45   c-0.17-0.12-0.21-0.25-0.42-0.2c-0.08-0.19-0.5-1.11-0.7-0.93c-0.1,0.1-0.2,0.21-0.3,0.31c0.04,0.46,0.08,0.91,0.12,1.37   c-0.32,0.18-0.55,0.4-0.76,0.01c-0.45-0.67-0.9-1.34-1.36-2c-0.14-0.36-0.29-0.71-0.43-1.07c-0.23-0.35-0.46-0.7-0.69-1.05   c-0.05-0.3-0.1-0.61-0.15-0.91c-0.11-0.33-0.36-1.71-0.72-1.71c0.04-0.79,0.08-1.58,0.12-2.37c-0.08-0.37-0.17-0.75-0.25-1.12   c-0.03-0.64,0.18-1.13,0.25-1.75c-0.04-0.33-0.08-0.67-0.12-1c0-0.61,0.65-0.82,0.28-1.27c-0.14-0.17-0.31-0.6-0.53-0.6   c0.54-0.02,1.01-0.53,1.25-0.5c-0.29-0.05-0.59-0.11-0.88-0.16c-0.27-1.01,0.06-2.56,0.76-3.45c0-0.58-0.07-0.62,0.5-0.87   c0.15-0.34,0.44-1.25,0.87-1.25c0-0.38,0.37-0.75,0.62-1c0.17-0.58,0.34-1.15,0.51-1.73c0.04-0.35-0.31-0.41-0.14-0.76   c-0.41,1.03-0.81,1.05-1.4,1.85c-0.28,0.55-0.57,1.09-0.85,1.64c-0.23,0.15-0.46,0.31-0.69,0.46c-0.31,0.21-0.68,0.74-0.93,0.79   c-0.17,0.83-0.33,1.66-0.5,2.49c-0.17,0.4-0.62,0.54-0.62,1c-0.12-0.02-0.23-0.03-0.35-0.05c-0.03-0.01-0.07-0.02-0.1-0.02   c-0.06,0.02-0.11,0.05-0.17,0.07c0-0.44-1.41-0.83-1.34-0.67c0.19,0.38,0.39,0.53,0.71,0.8c0.08,0.33,0.17,0.67,0.25,1   c-0.22,1.33-0.43,2.66-0.65,3.98c0.01,0.13,0.02,0.25,0.02,0.38c-0.19,0.38-0.4,0.51-0.12,0.87c-0.12,0.05-0.23,0.1-0.35,0.16   c-0.45,0.22-0.56-0.34-0.51-0.04c0.1,0.53,0.01,0.74-0.52,1c0.04,0.42,0.08,0.83,0.12,1.25c-0.22,1.1-1.37,1.44-1.12,2.62   c0.12,0.21,0.25,0.42,0.37,0.62c-0.18,0.52,0.33,1.01,0.87,1.12c0.14,0.34,0.33,0.56,0.62,0.75c0.34,0.23,0.44,0.84,0.87,0.87   c-0.06,0.11-0.11,0.22-0.17,0.34c0,0.09,0.01,0.19,0.01,0.28c-0.23,0-0.47-0.14-0.64,0.06c-0.15,0.36-0.3,0.71-0.45,1.07   c-0.6,0.54-1.36,1.04-2.12,0.89c-0.58-0.11-1.53-0.12-1.62-0.77c-0.02,0.09-0.04,0.18-0.06,0.26c-0.23,1.15,1.16,3.26,0.31,4.1   c0.41,0.75,0.88,1.24,0.7,2.17c0.04,0.08,0.08,0.17,0.11,0.25c-0.36,0.4-0.56,0.9-1.14,0.76c-0.2-0.08-0.27,0.01-0.36-0.22   c-0.5-1.09-1-2.18-1.5-3.27c-0.19-0.65,1.13-0.51,0.31-0.9c-1.39-0.7-0.88-0.89-1.61-1.92c-0.14-0.19-0.23-0.14-0.39-0.03   c-0.08,0.05-0.15,0.1-0.23,0.16c0.19,0.19,0.12,0.48,0.12,0.75c-0.21,0.12-0.42,0.25-0.62,0.37c0.25,0.25-0.05,0.64-0.25,0.87   c-0.36,0.27-0.72,0.54-1.08,0.81c-0.27,0.19-0.45,0.67-0.79,0.5c-0.23-0.14-0.36,0.18-0.37-0.06c0-0.75-0.05-1.53-0.46-2.19   c-0.22-0.33-0.62-0.53-0.97-0.32c-0.11,0.13-0.21,0.26-0.32,0.39c-0.24,0.46-0.48,0.92-0.72,1.38c-0.03,0.24-0.05,0.48-0.08,0.72   c0.06,0.09,0.12,0.18,0.18,0.27c-0.07,0.05-0.14,0.11-0.2,0.16c-0.13,0.06-0.26,0.13-0.39,0.19c-0.39-0.07-0.6-1.21-0.82-0.77   c-0.23,0.48-0.39,1.54-1.08,1.54c-0.54-0.12-1.08-0.25-1.62-0.37c0.28-0.2,0.59-0.34,0.61-0.69c0.09-0.1,0.18-0.21,0.26-0.31   c-0.08,0.01-0.17,0.01-0.25,0.02c-0.37,0.04-0.75,0.07-1.12,0.11c-0.08-0.04-0.17-0.08-0.25-0.12c-0.33,0.2-0.52,0.48-0.82,0.19   c-0.82-0.82-0.79-1.69-0.88-2.79c-0.03-0.39-0.14-1.01,0.21-1.26c0.03-0.23,0.11-0.87,0.25-0.87c0.29-0.14,2.12-0.76,2.12-0.25   c0-0.25,0-0.5,0-0.75c-0.17-0.29-0.33-0.58-0.5-0.87c0.08-0.64-0.04-1.12,0.75-1.12c0.5,0.22,0.99,0.43,1.49,0.65   c1.22,0.37,2.36,0.72,3.62,0.72c0.38-0.37,0.48-0.35,0.62-0.87c0.25-0.04,0.5-0.09,0.76-0.13c0.34-0.35,0.83-0.33,1.24-0.25   c-0.19-0.18-0.37-0.37-0.56-0.55c0.39-0.18,0.77-0.35,1.16-0.53c0.47,0.22,1.12,0.97,1.4,0.2c0.56,0.29,0.7,0.5,1.01-0.12   c0.15-0.27,0.23-0.31,0.11-0.62c0.29-0.12,0.58-0.25,0.87-0.37c-0.19-0.21-0.22-0.31-0.5-0.37c-0.33-0.72-0.45-2.25-1.25-2.49   c0-0.33,0-0.67,0-1c-0.29-0.42-0.58-0.83-0.87-1.25c-0.19,0.06-0.37,0.12-0.56,0.18c-0.69-0.73-1.37-1.45-2.06-2.18   c-0.71,0-1.41,0-2.12,0c-0.01-0.13-0.02-0.25-0.03-0.38c-0.03-0.78,0.53-1.12,0.53-1.86c0.15-0.24,0.28-0.33,0.25-0.62   c0.26,0,0.28-0.02,0.31-0.3c0.06-0.45-0.27-1.45-0.69-1.57c0.18-1.16,0.36-2.33,0.54-3.49c0.01-0.48-0.32-1.27-0.59-1.59   c-0.22-0.26-0.71-0.58-0.47-0.92c0.46-0.7,0.93-1.4,1.4-2.1c-0.09-0.01-0.17-0.02-0.26-0.02c-0.58-0.02-1.11,0.52-1.74,0.52   c-0.26,0.23-0.4,0.46-0.74,0.55c-0.31,0.08-0.71,0.36-0.91,0.19c-0.07-0.04-0.15-0.08-0.22-0.12c-0.09-0.21-0.17-0.41-0.26-0.62   c-0.41-0.33-0.83-0.67-1.24-1.01c-0.59-0.4-1.3-0.14-1.62-0.81c-0.19-0.41-0.28-0.68-0.18-1.13c0.12-0.34,0.77-1.34,1.17-1.3   c0.15-0.37,0.24-0.88,0.62-1c-0.07,0.01-0.15,0.02-0.22,0.04c-0.76,0.24-1.51,0.48-2.27,0.71c-0.1,0.12-0.19,0.24-0.29,0.37   c-0.67-0.18-0.95-0.71-1.33-1.24c0.35-1.28,0.37-2.59,0.37-3.87c0.22-0.38,0.25-0.64,0.62-0.87c-0.02-0.03-0.04-0.06-0.07-0.09   c-0.31-0.39-0.62-0.77-0.93-1.16c0-0.59-0.44-1.3-0.75-1.75c-0.49-0.72-1.35-1.53-1.04-2.51c0.14-0.4,0.43-1.37,0.79-1.61   c0.03-0.96-0.28-1.95,0-2.87c0.11-0.35,0.22-1.88,0.15-1.92c-0.41-0.22-1.52-1.22-1.9-1.07c0.14-0.11-0.64-0.52-0.5-0.62   c-0.01-0.6,0.14-0.9,0.12-1.5c0-0.25,0.32-0.69-0.62-1.25c-0.03-0.88,0.14-0.37,0.37-0.75c-0.23,0.07,0.23-0.57,0-0.5   c-0.19,0.18,0.15-0.38,0.12-0.25c0.06-0.2,0-0.5,0.12-0.5c0.3,0,2.49-0.72,2.49-1c0.29-0.16,0.58-0.31,0.88-0.47   c-0.59,0.18-1.18,0.36-1.77,0.55c-0.5,0.08-0.62,0.12-0.85-0.08c-0.75,0.42-1.2,0.49-1.87,0.37c-0.14-0.3-0.2-0.75-0.5-0.87   c0.07-0.64,0.76-2.2,0.42-2.75c-0.32-0.54-0.65-1.08-0.97-1.62c-0.23-0.21-0.46-0.41-0.69-0.62c-0.25-0.12-0.5-0.25-0.75-0.37   c-0.49-0.43-0.84-0.71-1.39-1.04c-0.49-0.28-0.99-0.55-1.48-0.83c-1.91-0.32-3.69-0.11-5.61,0.12c-0.33,0-0.67,0-1,0   c-0.42,0.15-0.84,0.3-1.26,0.44c-0.33,0.1-0.65,0.2-0.98,0.3c-0.92,0.17-1.76,0.34-2.64,0.55c-0.28,0.07-0.57,0.14-0.85,0.2   c-0.29-0.04-0.58-0.08-0.87-0.12c-0.33-0.24-0.52-0.48-0.92-0.64c-0.54-0.21-1.08-0.43-1.62-0.64c-0.15-0.45-0.3-0.9-0.45-1.34   c-0.66-0.59-1.1-1.35-1.44-2.15c-0.38-0.88-0.26-1.79-0.43-2.72c-0.14-0.8-1.03-1.61-0.42-2.44c0.1-0.02-0.64-0.08-0.45,0.63   c0.21,1.12,0.54,2.18,0.75,3.3c-0.1,0.52-0.1,0.86,0,1.37c0.25,0.46,0.5,0.91,0.75,1.37c0.12,0.48,0.38,0.75,0.75,1.12   c0.11,0.74,0.56,1.32,0.87,2c0.34-0.34,0.68,0.12,0.79,0.48c0.02-0.06,0.05-0.13,0.07-0.19c0.09-0.18,0.18-0.36,0.26-0.54   c0.71,0.65,1.31,1.16,2.24,1.37c0.28-0.16,1.83-0.55,1.96-0.39c0.97-0.28,1.1-0.48,2.53-0.73c0.37-0.17,0.75-0.33,1.12-0.5   c0.51,0.18,1.69,0.06,2.12-0.25c0.48,0.05,0.96,0.09,1.43,0.14c0.72-0.54,2.83-0.28,3.68-0.02c0.19,0.45,0.41,0.54,0.75,0.87   c-0.1,0.51,0.49,0.51,0.87,0.37c0.29,0.37,0.58,0.75,0.87,1.12c0.47-0.06,0.96-0.1,1.18,0.38c0.19,0.45,0.32,1.36,0.69,1.62   c-0.25,0.79-0.5,1.58-0.75,2.37c0.7,0.7,0.81,1.6,1.37,2.24c-0.02,0.29-0.04,0.57-0.06,0.86c0.15,0.5,0.29,1.01,0.44,1.51   c0.1,0.67-0.75,1.23-0.12,1.87c0.33,0.43,0.85,0.79,1.37,1c0.25,0.5,0.5,1,0.75,1.5c-0.04,0.12-0.08,0.25-0.12,0.37   c-0.25,0.33-0.5,0.67-0.75,1c0.38,0.76,0.27,2.57-0.12,3.24c0.56,0.56,0.3,1.64,0.37,2.37c0.29,0.29,0.38,0.74,0.25,1.12   c-0.16-0.07-1.75-0.63-1.37-0.25c0.75,0.49,1.38,1.24,1.62,2.12c-0.08,0-0.17,0-0.25,0c0,0.29-0.07,0.52,0.12,0.75   c-0.1,0.27-0.21,0.54-0.31,0.8c-0.1,0.24-0.32,0.68-0.56,0.44c-0.23,0.53-0.8,2.36-0.62,2.87c-0.26,0.12-0.29,0.29-0.5,0.5   c-0.21,0.08-0.42,0.17-0.62,0.25c0.04,0.04,0.08,0.08,0.12,0.12c0.46,0.12,0.91,0.25,1.37,0.37c0,0.64,1.12,2.16,1.75,2.12   c0.11,0.28,0.39,0.76,0.12,0.97c-0.43,0.38-0.61-0.26-1.09,0.02c-1.02,0.62-2.82,1.19-4.02,1c-0.46-0.08-0.91-0.17-1.37-0.25   c-0.12-0.12-0.25-0.25-0.37-0.37c-0.21-0.04-0.42-0.08-0.62-0.12c-0.41-0.27-0.57-0.75-1.12-0.75c-0.28-0.33-0.67-1.09-1.12-0.87   c-0.31-1.16-1.24-1.71-2.12-2.49c-0.17-0.25-0.33-0.5-0.5-0.75c0.19,0.19,0.09,0.37,0.12,0.62c0.44,0.31,1.61,1.65,1.62,2.12   c0.39,0.39,0.87,1.05,0.87,1.62c0.63,0.41,1.2,1.02,1.37,1.75c0.17,0.21,0.33,0.42,0.5,0.62c0.85,0.63,1.53,1.03,2.24,1.75   c0.51-0.51,1.51,0.21,2.11,0.5c0.33,0-0.09-0.43,0.37-0.37c0.82,0.2,1.28,0.35,2.14,0.25c1.04,0.87,2.08,1.75,3.12,2.62   c0.41-0.2,1.66-0.63,2.07-0.32c1.69,1.39,0.79,2.41,0.79,4.18c-0.44,0.44-0.66,0.8-0.87,1.37c-0.29,0.77-2.37,1.5-1.25,2.62   c-0.08-0.02-0.16-0.04-0.24-0.05c-0.1-0.01-0.2-0.01-0.3-0.02c-0.11,0.36-0.23,0.71-0.34,1.07c-0.23,0.1-0.37,0.28-0.62,0.25   c0.01,0.08,0.01,0.16,0.02,0.25c0.18,0.59,0.36,1.18,0.54,1.78c-0.23,0.07-0.46,0.15-0.69,0.22c-0.33,0.25-0.67,0.5-1,0.75   c-0.29,0.17-0.58,0.33-0.87,0.5c-0.35,0.56-0.01,1.36-0.79,1.59c-1.13,0.34-1.92-0.19-2.7-0.97c-0.21,0.21,0.03,0.37,0.2,0.56   c0.52,0.58,1.23,0.99,1.8,1.56c-0.03,0.06-0.06,0.13-0.1,0.19c-0.17,0.33-0.51,0.58-0.16,0.84c0.2,0.18,0.79,0.96,0.14,0.96   c-0.37-0.08-1.52-0.57-1.78-0.42c-0.16,0.1-0.31,0.19-0.47,0.29c0.08,0.5,0.17,1,0.25,1.5c-0.12,0.08-0.25,0.17-0.37,0.25   c-0.74-0.28-1.84-0.47-2.53,0c-0.11,0-0.23,0-0.34,0c-0.33,0.58-0.67,1.16-1,1.75c-0.12,0.12-0.64,0.36-0.71,0.31   c-0.14-0.1-0.28-0.21-0.42-0.31c0.08-0.46,0.17-0.91,0.25-1.37c-0.7,0.23-0.5-0.56-1.13-0.25c-0.62,0.32-1.43,0.55-2.11,0.53   c-0.04,0.12-0.09,0.23-0.13,0.35c-0.05-0.04-0.09-0.08-0.14-0.11c-0.47-0.38-0.86-0.64-1.24-1.13c-0.29-0.46-0.58-0.91-0.87-1.37   c0.17-0.17-0.44-1-0.62-1.25c0.23-0.23,0.2-1.05,0-1.25c-0.63-0.19-0.98-0.13-1.45-0.64c-0.37,0.02-0.3,0.02-0.39-0.28   c-0.09-0.53-0.18-1.05-0.28-1.58c-0.21-0.46-0.42-0.91-0.62-1.37c0-0.29,0.14,0.19,0.28-0.05c0.25-0.54,0.32-0.89,0.07-1.36   c0.05-0.36,0.1-0.72,0.15-1.08c-0.12-0.29-0.25-0.58-0.37-0.87c-0.12-0.58-0.25-1.16-0.37-1.75c-0.12-0.29-0.25-0.58-0.37-0.87   c-0.36-0.38-0.85-0.62-1.07-1.09c-0.61-1.32-1.06-2.8-2.11-3.84c-0.31-0.31-0.62-0.62-0.94-0.93c-0.57-0.14-1.17-0.19-1.62-0.62   c-0.13,0.07-0.26,0.15-0.39,0.22c-0.05-0.02-0.1-0.03-0.15-0.05c0.7,0.41,1.48,0.71,1.88,1.5c-0.07,0.11-0.14,0.22-0.21,0.32   c0.14-0.14,0.53-0.56,0.71-0.44c0.18,0.15,0.36,0.29,0.54,0.44c-0.2,1.5,0.66,1.99,1.3,3.19c0.18,0.33,0.47,0.97,0.82,1.05   c0,0.42,0,0.83,0,1.25c0.25,0.21,0.5,0.42,0.75,0.62c-0.02,0.38-0.04,0.76-0.06,1.15c0.2,0.65,0.41,1.3,0.61,1.96   c0.05,0.2,0.4,0.61,0.21,0.67c-0.64,0.22-1.2,0.34-1.88,0.34c0,0.04,0,0.08,0,0.12c0.38,0.21,0.69,0.27,0.99,0.6   c0.33,0.38,0.67,0.76,1,1.14c0.11,0.51,0.13,0.97,0.37,1.43c0.17,0.27,0.33,0.54,0.5,0.81c0,0.27-0.05,0.54,0.12,0.75   c-0.21,0.08-0.42,0.17-0.62,0.25c0.13,0.02,0.26,0.03,0.4,0.05c0.42,0.13,0.81-0.09,1.22,0.07c-0.35,0.71,0.24,0.8,0.53,1.23   c0.14,0.36,0.28,0.71,0.42,1.07c0.18,0.15,0.36,0.3,0.55,0.44c-0.08,0.62-0.17,1.25-0.25,1.87c0.42,0.21,0.83,0.42,1.25,0.62   c-0.12,0.37-0.25,0.75-0.37,1.12c-0.04,0.37,0.17,0.56-0.03,0.87c-0.25,0.34-1.08,1.1-1.47,1.13c0.12,0.03,0.24,0.05,0.35,0.08   c0.88-0.11,1.76-0.22,2.64-0.33c0.62-0.5,1.25-1,1.87-1.5c0.08,0.21,0.16,0.41,0.24,0.62c0.09,0.21,0.17,0.42,0.26,0.63   c-0.1,0.33-0.09,1.2,0.41,1.25c0.15,0.04,0.31,0.08,0.46,0.12c0.12-0.27,0.24-0.54,0.35-0.8c0.17-0.23,0.35-0.46,0.52-0.69   c0.16,0.25,0.32,0.5,0.49,0.74c0,0.46,0.01,0.92,0.01,1.38c-0.13,0.47-0.37,0.85-0.37,1.37c0.04-0.04,0.09-0.08,0.13-0.11   c0.37-0.26,0.74-0.52,1.11-0.79c0.12-0.28,0.25-0.56,0.37-0.85c-0.1-0.45-0.64-1.11-0.25-1.5c0-0.29-0.05-0.76,0.37-0.74   c0.5,0.12,1,0.25,1.5,0.37c0.06-0.06,0.13-0.12,0.19-0.18c0.2-0.17,0.27-0.16,0.31-0.44c0.89-0.52,1.66-0.53,2.49,0.12   c0,1.22,0.7,2.35,1.75,3.12c0.09,0.29,0.05,0.76,0.42,0.84c0.61-0.07,1.22-0.15,1.82-0.22c0.25,0.08,0.5,0.17,0.75,0.25   c0.2,0,0.4,0,0.6,0c0.42,0.06,1.2,0.35,1.27,0.87c0.04,0.58,0.08,1.16,0.12,1.75c0.5,0.33,1,0.67,1.5,1   c0.02,0.09,0.03,0.17,0.05,0.26c0.01,0.21,0.02,0.41,0.03,0.62c-0.35,0.09-0.24-0.03-0.33,0.49c-0.11-0.16-0.68-0.8-0.91-0.44   c-0.13,0.25-0.06,0.31-0.34,0.44c0.11,0.14,0.22,0.27,0.33,0.41c-0.87,0.58-1.17,0.56-2.2,0.46c-0.29,0.21-0.58,0.42-0.87,0.62   c-0.31,0.36-0.33,0.81-0.77,1.2c-0.24,0.21-0.97,0.54-0.97,0.54c0.08,0.5,0.16,1,0.24,1.5c0.42,0.46,0.83,0.91,1.25,1.37   c-0.34,0.46-0.35,1.45,0.47,1.51c0.61,0.1,3.16,0.49,3.74,0.19c0.55-0.28,1.4-0.96,1.18-1.62c-0.26-0.52-0.52-1.05-0.78-1.57   c0-0.93,0.49-1.65,1-2.42c0.11-0.17,0.73-0.83,0.5-0.83c0.04-0.21,0.08-0.42,0.12-0.62c0.24-0.2,0.48-0.4,0.72-0.6   c1.26,0.4,1.4,0.67,1.4,1.85c0.25,0.25,0.72,0.66,0.75,0.62c0.08-0.21,0.17-0.42,0.25-0.62c0.98,0,1.35-0.46,2.15-0.92   c0.32-0.18,0.76-0.58,1.09-0.55c0.4,0.03,1.03,0.03,1.09,0.23c0.07,0.22,0.14,0.89,0.41,0.84c0.29-0.04,0.49-0.13,0.76,0.02   c0.33-0.12,0.67-0.25,1-0.37c0.08,0.29,0.17,0.58,0.25,0.87c0.21-0.12,0.42-0.25,0.62-0.37c0.51,0,1.14,0.25,1.11,0.74   c0.05,0.09,0.09,0.17,0.14,0.26c-0.62,0.65-1.23,1-1.05,1.98c0.04,0.17-0.02,0.27,0.19,0.25c0.31-0.05,2.36-0.52,2.36,0.02   c-0.2,0.2-0.48,0.75-0.75,0.75c0.04,0.55,0.18,0.9,0.5,1.37c0.59-0.21,0.95-0.43,1.5-0.75c-0.21-0.01-0.41-0.03-0.62-0.04   c-0.15-0.05-0.27-0.01-0.23-0.2c0.4-1.43,0.72-2.67,0.72-4.13c0.12,0.02,0.23,0.03,0.35,0.05c0.33,0.08,0.94,0.6,1.64,0.42   c0.21-0.05,0.63-0.1,0.58-0.2c-0.02-0.09-0.05-0.18-0.07-0.27c-0.26-0.26-0.63-0.55-1-0.5c-0.11-0.48-0.49-0.85,0.13-0.95   c1.32-0.22,2.35,0.4,3.06-1.19c0.12-0.26,0.02-2.13,0.65-1.94c0.38,0.16,0.76,0.31,1.14,0.47c0.08,0.33,0.1,1.19,0.48,1.27   c0.56,0.16,1.46-0.04,1.89,0.35c0.67-0.29,0.99-0.42,1.74-0.36c0.25,0.02,1.4,0.22,1.35-0.01c-0.18-0.96-1.06-1.66-1.34-2.63   c-0.06-0.21-0.35-0.87-0.13-0.87c0.63-0.06,0.79,0.25,1.37,0.25c0.28-0.28,0.66-0.48,0.75-0.87c0.29,0,0.58,0,0.87,0   c0.14-0.14,0.56-0.25,0.67-0.03c0.23,0.42,0.6,1.17,0.33,1.65c0.3,0.46,0.27,0.91,0.5,1.37c0.26,0.31,0.52,0.62,0.78,0.94   c0.2,0.23,1.02,1.43,1.22,1.43c0.02-0.09,0.03-0.18,0.05-0.27c0.13-1-0.21-1.99-0.41-2.98c-0.07-0.33-0.11-0.87,0.21-1.04   c0.3-0.14,0.6-0.29,0.9-0.43c0.35,0.06,0.95,0.33,1,0.73c0.09-0.07,0.17-0.15,0.26-0.22c0.33-0.2,0.38-0.26,0.25-0.61   c0.04-0.1,0.08-0.19,0.11-0.29c-0.42-0.54-0.83-1.08-1.25-1.62c0.08-0.04,0.16-0.09,0.24-0.13c0.41-0.2,0.68-0.25,1.13-0.25   c-0.17,0.17-0.27,0.67,0.07,0.57c0.23-0.07,0.45-0.13,0.68-0.2c0.1,0.11,0.19,0.23,0.29,0.34c0.19-0.2,0.38-0.4,0.58-0.6   c0.47,0,0.66-0.05,0.82,0.42c0.06,0.21-0.02,0.14,0.31,0.21c-0.06,0.22-0.41,1.37,0,1.37"/>
        <path fill-rule="evenodd" clip-rule="evenodd" fill="none" stroke="#000000" stroke-width="0.25" stroke-miterlimit="10" d="   M107.86,278.07c-1.83,0.39-1.76,3.27-2.9,4.46c-1.21,1.26-3.03,2.03-4.33,3.27c-2.61,2.5-5.43,4.99-7.64,7.95   c-1.2,1.6-1.08,3.4-1.74,5.24c-0.61,1.69-2.16,2.89-3.69,3.92c-2.26,1.52-2.29,2.4-1.77,4.95c0.44,2.1,1.4,3.09,2.89,4.59   c1.3,1.31,2.24,2.24,3.25,3.64c1.09,1.51,2.17,2.98,3.71,4.12c1.36,1.01,2.92,1.99,4.2,3.28c0.75,0.75,1.16,1.25,2.14,1.72   c1.19,0.57,1.18,0.96,1.25,2.36c0.03,0.55,0.04,1.11-0.12,1.62"/>
        <path fill-rule="evenodd" clip-rule="evenodd" fill="none" stroke="#000000" stroke-width="0.25" stroke-miterlimit="10" d="   M42.52,253.25c-0.89,0.92-0.8,1.34-2.12,1.62c-1.03,0.22-2.01,0.43-2.99,0.75c-1.8,0.59-3.32,1-5.36,1c-3.93,0-6.87,3.57-9.85,5.74   c-1.51,1.1-2.98,2.33-4.36,3.49c-1.4,1.18-2.71,2.85-4.46,3.64c-1.47,0.66-4.21,0.68-5.79,0.5c-2.03-0.23-3.94-0.65-6.08-0.65   c-0.5,0-1,0-1.5,0"/>
        <path fill-rule="evenodd" clip-rule="evenodd" fill="none" stroke="#000000" stroke-width="0.25" stroke-miterlimit="10" d="   M123.82,36.29c-0.58-1.53-2.9-2.92-4.61-2.5c-2.16,0.53-1.74,3.02-4.49,2.87c-0.93-0.05-2.17,0.05-2.97-0.41   c-0.8-0.46-1.39-1.28-2.24-1.75c-1.62-0.9-3.35-1.27-5.02-2.18c-3.55-1.94-8.26-0.55-12.09-0.16c-1.6,0.16-3.99-1.14-5.36-2.25   c-1.4-1.14-2.76-2.39-4.09-3.61c-1.12-1.02-3.22-2.71-3.64-4.12c-0.61-2.05,0.57-3.84,0.24-5.86c-0.4-2.51-2.86-0.82-4.08-0.22   c-1.01,0.49-1.91,0.18-3.03,0.34c-1.02,0.15-1.53,0.52-2.64,0.04c-0.72-0.31-1.44-1.18-2.31-0.88c-0.64,0.22-1.83,1.68-2.3,2.23   c-1.17,1.35-1.77,3.07-3.58,3.61c-1.51,0.45-3.94-0.84-5.23-1.47c-1.81-0.89-3.8-0.71-5.5-1.67c-2.97-1.67-5.26-4.91-7.98-7.22   c-1.48-1.26-3.12-1.72-4.77-2.83c-1.82-1.22-3.36-1.6-5.33-2.3c-2.34-0.83-5.4-2.15-7.86-2.09"/>
        <path fill-rule="evenodd" clip-rule="evenodd" fill="none" stroke="#000000" stroke-width="0.25" stroke-miterlimit="10" d="   M156.37,36.29c0.01-2.01,0.93-3.51,0.75-5.61c-0.15-1.68-1.02-3.67-2.15-4.96c-1.1-1.26-2.71-2.19-4.09-3.15   c-1.51-1.05-2.95-2.35-4.33-3.53c-1.28-1.1-2.83-2.21-3.03-3.95c-0.22-1.97,0.49-3,1.27-4.71c1.55-3.37,1.72-6.42,1.72-10.38"/>
        <path fill-rule="evenodd" clip-rule="evenodd" fill="none" stroke="#000000" stroke-width="0.25" stroke-miterlimit="10" d="   M312.73,72.2c-2.92-2.44-5.44-4.72-7.08-8.23c-0.8-1.71-1.41-3.04-2.92-4.33c-1.58-1.35-3.41-2.37-5.09-3.62   c-3.06-2.26-7.17-4.21-9.01-7.73c-0.84-1.61-1.72-3.21-2.31-4.9c-0.65-1.85-0.27-3.81-0.65-5.73c-0.4-2.04-1.21-3.44-0.88-5.64   c0.27-1.83,0.28-4.03,1.4-5.56c2.24-3.03,6.46-4.65,9.44-6.55c0.81-0.52,1.5-1.21,2.38-1.58c0.88-0.37,1.79-0.39,2.74-0.53   c1.21-0.18,2.52-0.36,3.72-0.82c0.94-0.36,1.75-1.06,2.64-1.42c3.31-1.34,6.62-3.71,8.7-6.71c0.94-1.35,1.81-2.9,2.77-4.24   c0.89-1.24,1.98-2.53,2.12-3.99"/>
        <path fill-rule="evenodd" clip-rule="evenodd" fill="none" stroke="#000000" stroke-width="0.25" stroke-miterlimit="10" d="   M403.26,49.5c2.18-0.01,4.4-0.27,6.61-0.12c1.92,0.13,3.94,0.54,5.86,0.87c1.51,0.26,1.82,0.15,3.24-0.26   c0.99-0.28,1.93,0.04,2.88,0.13c2.52,0.25,4.98-0.45,7.36-0.75c3.32-0.42,7.13-4.24,8.36-7.23c0.87-2.1,1.99-2.73,3.99-3.87   c1.89-1.08,3.97-0.9,5.86-1.75c3.45-1.53,5.94-4.51,9.87-5.21c1.91-0.34,3.62-0.91,5.08-2.27c1.69-1.56,3.42-2.53,5.21-3.88   c1.73-1.31,3.34-2.26,4.86-3.89c1.33-1.42,2.66-3.14,3.28-4.96c0.36-1.06,0.3-2.31,0.61-3.37c0.25-0.84,0.55-1.75,0.76-2.61   c0.42-1.7,0.99-3.71-0.41-5.21c-2.99-3.2-8.07-2.62-11.32-5.02"/>
        <path fill-rule="evenodd" clip-rule="evenodd" fill="none" stroke="#000000" stroke-width="0.25" stroke-miterlimit="10" d="   M459.5,165.97c-1.18,0.48-2.54,3.19-3,4.36c-0.67,1.72-1.12,3.39-1.4,5.21c-0.28,1.87-0.38,4.02-0.47,5.89   c-0.12,2.37,0.9,3.69,1.87,5.64c0.93,1.86-0.15,4.02,0.46,5.96c0.53,1.67,2.52,3.17,4.4,3.11c1.07-0.03,1.65-0.6,2.62-0.87   c1.07-0.3,2.25,0.07,3.34-0.15c1.86-0.38,3.51-1.25,5.51-1.34c2.05-0.1,4.02,0.12,6.11,0.12c2.44,0,4.5,0.12,6.86,0.46   c2.07,0.3,3.84-1,5.74-1.84c1.64-0.72,2.69-2.27,3.98-3.48c0.94-0.89,1.78-1.31,2.9-1.85c1.43-0.69,1.26-1.23,1.57-2.64   c-0.03,0.07-0.19,0.29-0.22,0.36"/>
        <path fill-rule="evenodd" clip-rule="evenodd" fill="none" stroke="#000000" stroke-width="0.25" stroke-miterlimit="10" d="   M404.63,170.58c-1.84,0.01-3.1,1.44-4.21,2.74c-1.13,1.31-2.51,2.81-3.24,4.39c-0.99,2.14,0.33,3.54,1.09,5.47   c0.58,1.46,0.95,4.1,0.47,5.7c-0.46,1.56-2.2,3.61-3.18,5.15c-1.02,1.59-2.38,3.03-3.27,4.73c-1.58,3.01-4.3,6.53-6.82,8.86   c-2.76,2.55-6.08,4.24-9.27,6.33c-0.83,0.55-1.58,1.3-2.46,1.81c-0.91,0.52-1.94,0.62-2.89,0.99c-2.02,0.77-3.26,1.98-5.64,1.5   c-1.05-0.21-1.92-0.8-2.96-1.15c-0.84-0.28-1.73-0.44-2.49-0.89c-1.59-0.95-3.21-2.31-5.36-1.73c-0.89,0.24-2.03,1.1-2.84,1.53   c-0.92,0.48-1.24,0.84-1.53,1.94c-0.56,2.1,0.12,3.28,0.85,5.14c0.56,1.41,0.69,3.06-0.22,4.26c-0.53,0.7-1.03,1.31-1.53,1.95   c-0.51,0.65-1.6,1.1-1.94,1.68c-0.21,0.36-0.01,0.74-0.15,1.09c-0.17,0.42-0.38,0.64-0.62,0.99c-0.39,0.59-0.78,1.31-1.16,1.97   c-0.86,1.51-1.22,2.62-1.22,4.52"/>
        <text transform="matrix(0.2235 0.9747 -0.9747 0.2235 481.3069 96.9336)" font-family="'MyriadPro-Regular'" font-size="11">ERZURUM</text>
        <text transform="matrix(1 0 0 1 417.103 195.0222)" font-family="'MyriadPro-Regular'" font-size="11">BİNGÖL</text>
        <text transform="matrix(0.8959 -0.4443 0.4443 0.8959 222.8562 246.3655)" font-family="'MyriadPro-Regular'" font-size="11">TUNCELİ</text>
        <text transform="matrix(0.1566 0.9877 -0.9877 0.1566 108.1211 301.0972)" font-family="'MyriadPro-Regular'" font-size="11">ELAZIĞ</text>
        <text transform="matrix(1 0 0 1 43.5183 289.416)" font-family="'MyriadPro-Regular'" font-size="11">MALATYA</text>
        <text transform="matrix(0.1023 -0.9947 0.9947 0.1023 19.1262 115.613)" font-family="'MyriadPro-Regular'" font-size="11">SİVAS</text>
        <text transform="matrix(0.8718 0.4899 -0.4899 0.8718 108.6743 12.9106)" font-family="'MyriadPro-Regular'" font-size="11">GİRESUN</text>
        <text transform="matrix(0.9646 0.2637 -0.2637 0.9646 214.7344 24.9067)" font-family="'MyriadPro-Regular'" font-size="11">GÜMÜŞHANE</text>
        <text transform="matrix(1 0 0 1 376.8267 20.6995)" font-family="'MyriadPro-Regular'" font-size="11">BAYBURT</text>
    </g>
    <g id="__Harita" display="none">
        <rect id="__cer" x="0" y="0" fill="#000000" opacity="0" width="500" height="330"/>
        <g id="__Kemaliye">
            <path d="    M111.6,283.74c0.21,0.04,0.42,0.08,0.62,0.12c0.12,0.12,0.25,0.25,0.37,0.37c0.46,0.08,0.91,0.17,1.37,0.25c1.2,0.2,3-0.38,4.02-1    c0.48-0.29,0.65,0.35,1.09-0.02c0.27-0.21-0.01-0.7-0.12-0.97c-0.63,0.04-1.75-1.48-1.75-2.12c-0.46-0.12-0.91-0.25-1.37-0.37    c-0.04-0.04-0.08-0.08-0.12-0.12c0.21-0.08,0.42-0.17,0.62-0.25c0.21-0.21,0.24-0.38,0.5-0.5c-0.17-0.51,0.39-2.34,0.62-2.87    c0.24,0.24,0.47-0.2,0.56-0.44c0.1-0.27,0.21-0.54,0.31-0.8c-0.2-0.23-0.12-0.45-0.12-0.75c0.08,0,0.17,0,0.25,0    c-0.25-0.88-0.87-1.63-1.62-2.12c-0.38-0.38,1.21,0.18,1.37,0.25c0.13-0.38,0.05-0.83-0.25-1.12c-0.07-0.73,0.19-1.81-0.37-2.37    c0.39-0.67,0.51-2.48,0.12-3.24c0.25-0.33,0.5-0.67,0.75-1c0.04-0.12,0.08-0.25,0.12-0.37c-0.25-0.5-0.5-1-0.75-1.5    c-0.52-0.21-1.04-0.57-1.37-1c-0.63-0.64,0.22-1.2,0.12-1.87c-0.15-0.5-0.29-1.01-0.44-1.51c0.02-0.29,0.04-0.57,0.06-0.86    c-0.56-0.64-0.67-1.55-1.37-2.24c0.25-0.79,0.5-1.58,0.75-2.37c-0.37-0.26-0.5-1.16-0.69-1.62c-0.22-0.48-0.71-0.43-1.18-0.38    c-0.29-0.37-0.58-0.75-0.87-1.12c-0.38,0.13-0.97,0.14-0.87-0.37c-0.33-0.33-0.55-0.43-0.75-0.87c-0.85-0.26-2.96-0.52-3.68,0.02    c-0.48-0.05-0.96-0.09-1.43-0.14c-0.43,0.31-1.61,0.43-2.12,0.25c-0.37,0.17-0.75,0.33-1.12,0.5c-1.42,0.25-1.56,0.45-2.53,0.73    c-0.13-0.16-1.68,0.24-1.96,0.39c-0.94-0.21-1.53-0.73-2.24-1.37c-0.09,0.18-0.31,0.67-0.34,0.73c-0.11-0.36-0.44-0.82-0.79-0.48    c-0.32-0.68-0.76-1.25-0.87-2c-0.37-0.37-0.62-0.65-0.75-1.12c-0.25-0.46-0.5-0.91-0.75-1.37c-0.1-0.52-0.1-0.86,0-1.37    c-0.21-1.12-0.54-2.18-0.75-3.3c-0.19-0.71,0.55-0.65,0.45-0.63c-0.61,0.83,0.28,1.64,0.42,2.44c0.17,0.93,0.05,1.83,0.43,2.72    c0.34,0.8,0.79,1.56,1.44,2.15c0.15,0.45,0.3,0.9,0.45,1.34c0.54,0.21,1.08,0.43,1.62,0.64c0.4,0.15,0.59,0.39,0.92,0.64    c0.29,0.04,0.58,0.08,0.87,0.12c0.28-0.07,0.57-0.14,0.85-0.2c0.88-0.21,1.73-0.37,2.64-0.55c0.33-0.1,0.65-0.2,0.98-0.3    c0.42-0.15,0.84-0.3,1.26-0.44c0.33,0,0.67,0,1,0c1.92-0.23,3.7-0.45,5.61-0.12c0.49,0.28,0.99,0.55,1.48,0.83    c0.55,0.33,0.9,0.61,1.39,1.04c0.25,0.12,0.5,0.25,0.75,0.37c0.23,0.21,0.46,0.41,0.69,0.62c0.32,0.54,0.65,1.08,0.97,1.62    c0.34,0.55-0.35,2.11-0.42,2.75c0.3,0.12,0.36,0.57,0.5,0.87c0.67,0.11,1.12,0.05,1.87-0.37l0.62-1.62    c0.7-0.33,1.24-0.97,1.76-1.54c0.52-0.17,0.77-0.76,1.19-1.09c0.52-0.41,0.74-1.02,1-1.62c0.97-2.26,0.42-3.81-0.58-5.97    c0.25-0.62,0.5-1.25,0.75-1.87c0.15-0.3,1.68-1.83,2-2c0.41-0.14,0.82-0.27,1.23-0.41c0.5-0.2,1.01-0.39,1.51-0.59    c1.16-0.17,2.33-0.33,3.49-0.5c2.45-0.37,4.9-0.75,7.36-1.12c0.33,0.04,0.67,0.08,1,0.12c0.5-0.08,1-0.17,1.5-0.25    c1.92-0.3,3.64-1.04,5.49-1.56c0.58-0.23,1.16-0.45,1.74-0.68c2.68-1.6,6.15-3.11,5.67-6.85c0.16-0.31-0.36-0.73-0.05-1.13    c-0.22-0.19-0.44-0.37-0.66-0.56c-2.19-1.69-4.85-2.48-7.19-4.06c-1.05-0.71-0.84-1.93-1.5-2.87c-0.42,0.42-1.38,0.16-1.89,0.06    c-0.66-0.05-1.31-0.1-1.97-0.15c-0.72-0.13-1.34-0.43-2.1-0.42c-0.49,0.01-2.59-0.01-2.9-0.24c-0.83,0.13-1.66,0.26-2.49,0.39    c-0.52,0.02-1.84-0.05-2.24,0.23c-1.5-0.12-2.99-0.25-4.49-0.37c-0.89-0.14-2.19-0.77-3.12-0.37c-0.84-0.21-1.67-0.43-2.51-0.64    c-1.92-0.17-3.71-0.72-5.47-1.61c-1.35-0.67-2.55-2.37-3.72-3.37c-2.34-2-5.21-4.34-7.95-5.68c-1.21-0.59-3.32-1.67-4.67-1.8    c-2.49,0-4.99,0-7.48,0c-1.5,0-2.99,0-4.49,0c-1.41-0.42-2.83-0.83-4.24-1.25c-0.49-0.15-2.19-1.08-2.37-1.5    c-0.91-0.62-1.83-1.25-2.74-1.87c-1.12-0.54-2.24-1.08-3.37-1.62c-1.22-0.08-3.23-0.21-4.36,0.16c-0.4,0.13-1.39,0.71-1.75,0.34    c-0.33,0.33-0.67,0.67-1,1c-0.92-0.02-1.83-0.05-2.75-0.07c-0.33-0.09-0.9-0.1-1.11,0.19c-0.76-0.09-1.75-0.1-2.49,0.12    c-0.58,0.25-1.16,0.5-1.75,0.75c-0.5,0.12-1,0.25-1.5,0.37c-0.5-0.08-1-0.17-1.5-0.25c-0.44-0.33-1.3-1.42-1.75-1.18    c-1.12,0.59-2.61,1.61-3.58,2.47c-0.37,0.33-0.96,1.14-1.41,1.21c-0.36,0.83-0.68,1.58-0.94,2.45c-0.08,0.55-0.15,1.1-0.23,1.65    c-0.2,0.94-0.25,1.92-0.2,2.88c0.02,0.33-0.09,0.74,0.12,1c-0.17,0.63,0.6,5.22,0.65,5.6c0.28,1.79,0.57,3.58,0.85,5.37    c0.12,1.62,0.25,3.24,0.37,4.86c0.21,0.71,0.42,1.41,0.62,2.12c-0.37,2.29-0.75,4.57-1.12,6.86c-0.33,0.96-0.67,1.91-1,2.87    c-0.44,1.11-0.88,2.22-1.32,3.33c0.11,0.25-0.65,2.36-0.83,2.75c-0.32,0.72-0.63,1.44-0.95,2.15c-0.21,0.41-0.42,0.83-0.64,1.24    c-0.66,0.95-1.82,2.81-1.75,3.99c1.81,0.25,2.57,1.91,3.66,3.21c1.11,1.22,2.22,2.43,3.33,3.65c1.15,0.6,2.1,1.34,3.39,1.63    c1.42,0.32,2.89,0.24,4.34,0.24c0.71-0.5,1.41-1,2.12-1.5c1.62-0.83,3.24-1.66,4.86-2.49c1.17-0.68,2.35-1.37,3.52-2.05    c1.34-0.59,2.97-0.37,4.42-0.53c0.28,0.14,1.17,0.16,1.41-0.04c0.75,0.21,1.5,0.42,2.24,0.62c2.02,0.9,3.66,2.7,4.99,4.24    c0.33,0.21,0.67,0.42,1,0.62c0.29,0.1,0.58,0.21,0.87,0.31c0.43,0.61,1.51,0.62,2.13,0.96c0.53,0.08,1.06,0.16,1.59,0.24    c0.35,0.24,0.84,0.05,1.24,0.08c0.93,0.07,1.91-0.04,2.78,0.46c0.42,0.04,0.93,0.76,1.14,0.91c0.8,0.67,1.6,1.34,2.4,2.01    c0.46,0.42,0.89,0.66,1.23,1.22c0.21,0.34,0.54,0.63,0.59,1.03c0.42,0.27,0.84,0.55,1.27,0.82c0.33,0.14,0.65,0.28,0.98,0.42    c1.16,1.21,2.33,2.41,3.49,3.62c1.75,1.48,3.87,2.76,5.49,4.49c0.37,0.54,0.75,1.08,1.12,1.62c0.98,1.21,1.7,2.65,2.74,3.87    L111.6,283.74z"/>
            <circle cx="74.19" cy="228.19" r="1.586"/>
        </g>
        <g id="__İliç">
            <path d="    M144.4,219.4c-0.42,0.42-1.38,0.16-1.89,0.06c-0.66-0.05-1.31-0.1-1.97-0.15c-0.72-0.13-1.34-0.43-2.1-0.42    c-0.49,0.01-2.59-0.01-2.9-0.24c-0.83,0.13-1.66,0.26-2.49,0.39c-0.52,0.02-1.84-0.05-2.24,0.23c-1.5-0.12-2.99-0.25-4.49-0.37    c-0.89-0.14-2.19-0.77-3.12-0.37c-0.84-0.21-1.67-0.43-2.51-0.64c-1.92-0.17-3.71-0.72-5.47-1.61c-1.35-0.67-2.55-2.37-3.72-3.37    c-2.34-2-5.21-4.34-7.95-5.68c-1.21-0.59-3.32-1.67-4.67-1.8c-2.49,0-4.99,0-7.48,0c-1.5,0-2.99,0-4.49,0    c-1.41-0.42-2.83-0.83-4.24-1.25c-0.49-0.15-2.19-1.08-2.37-1.5c-0.91-0.62-1.83-1.25-2.74-1.87c-1.12-0.54-2.24-1.08-3.37-1.62    c-1.22-0.08-3.23-0.21-4.36,0.16c-0.4,0.13-1.39,0.71-1.75,0.34c-0.33,0.33-0.67,0.67-1,1c-0.92-0.02-1.83-0.05-2.75-0.07    c-0.33-0.09-0.9-0.1-1.11,0.19c-0.76-0.09-1.75-0.1-2.49,0.12c-0.58,0.25-1.16,0.5-1.75,0.75c-0.5,0.12-1,0.25-1.5,0.37    c-0.5-0.08-1-0.17-1.5-0.25c-0.44-0.33-1.3-1.42-1.75-1.18l0.14,0.04c-0.24-0.16-0.13-0.11,0.14-0.3    c-0.37-0.92-0.18-1.78-0.05-2.8c-0.03-0.09-0.06-0.19-0.09-0.28c0.06-0.56,0.13-1.13,0.19-1.69c0.41-2.01,1.28-3.94,0.04-5.88    c-0.74-1.34-1.49-2.67-2.23-4.01c-1.54-1.53-3.09-3.06-4.63-4.59c-0.84-0.57-1.68-1.15-2.52-1.72c-1.53-1.21-3.06-2.43-4.59-3.64    c-0.54-0.96-1.08-1.91-1.62-2.87c0-1.03-0.2-3.12-0.75-3.99c-0.67-1.21-1.33-2.41-2-3.62c-0.21-0.93-0.27-2.78-0.18-3.73    c0.05-0.55,0.51-0.8,0.92-1.13c0-0.27,0.62-1,0.87-1c0.25-0.67,1.1-1.05,1.62-1.5c0.18-0.27,0.35-0.55,0.53-0.82    c0.24-0.31,0.48-0.62,0.72-0.93c0.62,0,2.22-1.22,2.49-1.75c0.27-0.5,0.53-1.01,0.8-1.51c0.23-0.83,0.46-1.65,0.7-2.48    c0.04-0.42,0.08-0.83,0.12-1.25c-0.02-0.54-0.04-1.07-0.07-1.61c-0.77-2.21-1.54-4.41-2.3-6.62c0-1.5,0-2.99,0-4.49    c0.12-0.42,0.25-0.83,0.37-1.25c0.17-0.58,0.34-1.16,0.51-1.75c0.63-2.2,2.05-4.24,3.35-6.11c0.16-0.37,0.32-0.75,0.48-1.12    c0.34-1.08,0.68-2.16,1.02-3.24c0.32-1.13,0.64-2.26,0.95-3.39c0.35-1.24,0.69-2.48,1.04-3.72c0.16-1.24,0.42-2.63,0.98-3.76    c0.22-0.45,0.45-0.5,0.8-0.81c1.24-0.97,2.47-1.94,3.71-2.91c0.75-0.54,1.5-1.08,2.24-1.62c2.25-2.36,4.54-4.54,7.51-5.94    c0.17-0.07,0.44,0.35,0.58,0.48c0.66,0.66,1.05,1.16,1.47,2c0.53,1.01,1.06,2.02,1.59,3.03c0.26,0.69,1.29,1.34,1.38,2.01    c1.23,1.14,2.47,2.27,3.7,3.41c0.08-0.04,0.17-0.08,0.25-0.12c0.58,0.33,1.16,0.67,1.75,1c0.75,0.25,1.5,0.5,2.24,0.75    c1.08,0.12,2.16,0.25,3.24,0.37c1.16-0.12,2.33-0.25,3.49-0.37c1.08-0.25,2.16-0.5,3.24-0.75c0.98-0.13,1.92,0.13,2.87,0.25    c0.91,0.08,1.82,0.15,2.72,0.23c1.34,0.45,2.68,0.9,4.02,1.36c1,0.35,2.12,0.37,3.06,0.86c0.84,0.43,0.97,1.93,1.03,2.91    c0.01,0.24,0.88,0.4,1.13,0.38c0.46-0.12,0.91-0.25,1.37-0.37c0.73-0.16,1.52-0.13,2.25-0.03c1-0.03,1.99-0.06,2.99-0.09    c0.46,0.08,0.91,0.17,1.37,0.25c0.25,0.17,0.5,0.33,0.75,0.5c0.29,0.34,0.58,0.68,0.88,1.01c0.87,1.02,2.11,2.13,2.35,3.48    c0.04,0.49-0.28,0.48-0.7,0.74c-0.83,0.51-1.63,0.88-2.4,1.5c-0.12,0.67-0.95,1.42-1.43,1.85c-0.35,0.51-0.71,1.01-1.06,1.52    c-1.11,1.31-2.13,3.83-2.74,5.49c-0.06,2.91-0.12,5.83-0.18,8.74c-0.14,0.76,0.99,2.08,1.43,2.73c-0.21,0.41-0.02,1.41,0.04,1.89    c0.18,1.37,0.48,2.62,0.33,3.97c-0.12,1.02-0.66,1.85-1.03,2.76c-0.2,0.33-0.39,0.66-0.59,0.99c-0.19,0.38-0.37,0.76-0.56,1.13    c-0.15,0.49-0.29,0.99-0.44,1.48c-0.21,0.29-0.42,0.58-0.62,0.87c-0.17,0.42-0.33,0.83-0.5,1.25c-0.32,1.4-1.12,2.74-1.12,4.24    c0,0.96,0.54,1.94,1,2.74c0.24,0.05,1.94,1.59,2.12,1.87c2.05,2.14,4.1,4.28,6.15,6.42c1.83,2.16,3.66,4.33,5.49,6.49    c0.61,0.81,1.22,1.62,1.83,2.42c0.8,0.9,1.87,1.4,2.74,2.24c0.44,0.15,0.89,0.31,1.33,0.46c1.06,0.41,2.05,0.95,3.02,1.55    c0.38,0.27,0.76,0.53,1.14,0.8c0.91,0.52,1.82,1.04,2.74,1.55c1.43,0.45,2.74,1.05,3.99,1.87c0.75,0.16,1.5,0.32,2.25,0.49    c1.04,0.06,2.07,0.12,3.11,0.18c0.22,0.01,0.88-0.03,0.88,0.21c0.91,0.12,1.83,0.25,2.74,0.37c1.21,0.58,2.41,1.16,3.62,1.75    c1.25,0.49,2.5,0.98,3.76,1.47c1.79,0.83,3.56,1.57,5.22,2.65c1.24,0.5,2.49,1,3.73,1.5c0.26,0.12,0.2,0.2,0.38,0.37    c-0.92,0.57-1.85,1.14-2.77,1.71c-2.64,1.95-5.65,2.5-8.58,3.9c-0.47,0.4-0.94,0.81-1.4,1.21c-0.65,0.76-1.31,1.52-1.96,2.28    c-0.19,0.38-0.39,0.76-0.58,1.14c-0.1,0.45-0.19,0.9-0.29,1.36c-0.17,0.37-0.33,0.75-0.5,1.12c-0.17,0.46-0.33,0.91-0.5,1.37    c0.18,0.39-0.03,0.82,0,1.25c0.08,0.5,0.17,1,0.25,1.5L144.4,219.4z"/>
            <circle cx="86.66" cy="181.8" r="1.586"/>
        </g>
        <g id="__Refahiye">
            <path d="    M115.72,123.26c0.71-0.42,1.41-0.83,2.12-1.25c0.62,0.12,1.74-0.77,2.27-1.07c1.4-0.6,2.8-1.2,4.2-1.8    c0.42-0.21,0.84-0.41,1.27-0.62c0.77-0.1,2.9-0.5,3.53-0.16c1.11-0.03,2.22-0.06,3.33-0.09c1.63,0.16,3.13,1.08,4.61,1.62    c0.48-0.34,1.66-0.16,2.24-0.12c0.33-0.08,0.67-0.17,1-0.25c1.12-0.42,2.24-0.83,3.37-1.25c0.59-0.44,1.19-0.88,1.78-1.32    c1.43-0.73,2.83-1.7,4.05-2.74c0.34-0.36,0.68-0.73,1.01-1.09c1.13-0.82,2.26-1.64,3.39-2.47c0.89-0.71,2.1-0.95,3.11-1.38    c0.67-0.49,1.33-0.98,2-1.48c0.2-0.28,0.4-0.57,0.6-0.85c0.69-1.15,0.96-1.42,2.01-2.27c0.18-0.49,0.72-0.68,1-1.12    c0.44-0.58,0.88-1.16,1.31-1.74c0.31-0.75,0.62-1.5,0.93-2.25c0.66-1.12,1.33-2.24,2-3.37c0.04-0.37,0.08-0.75,0.12-1.12    c-0.07-0.36-0.14-0.72-0.2-1.08c-0.18-0.64-0.36-1.28-0.55-1.91c0-0.5,0-1,0-1.5c0.33-0.12,0.35-0.38,0.48-0.7    c0.28-0.61,1.02-0.8,1.63-0.95c1.5-0.36,2.1-0.37,3.62-0.28l0.18-0.02c0.15-0.22,0.29-0.45,0.44-0.67    c-0.12-0.46-0.02-3.4,0.25-3.87c-0.04-0.21-0.08-0.42-0.12-0.62c-0.35-0.74-1.13-2.76-0.58-3.46c0.17-0.22,0.39-0.37,0.33-0.65    c0.8-0.8,1.6-1.59,2.4-2.39c1.23-0.83,2.62-1.32,4.06-1.56c0.51-0.05,1.01-0.11,1.52-0.16c2.11-0.25,4.23-0.49,6.34-0.74    c1.03-0.11,2.05-0.22,3.08-0.32c1.01-0.3,2.03-0.53,2.95-1.08c1.28-0.76,2.45-1.87,3.96-2.1c0.83-0.25,1.66-0.5,2.49-0.75    c0.45-0.06,0.9-0.11,1.36-0.17c1.62-0.23,3.44-0.28,4.88-1.08c-0.25-0.12-0.51-0.24-0.76-0.35c-1.13-0.46-2.24-0.79-3.2-1.57    c-0.28-0.23-0.65-0.29-0.77-0.58c-0.54-1.16-0.64-2.26-0.79-3.48c-0.04-0.35-0.28-0.97-0.09-1.25c-0.92-1.37-1.83-2.74-2.75-4.11    c-0.41-0.54-0.83-1.08-1.24-1.62c-0.29-0.47-1.73-1.03-2.24-1.25c-1.25-0.62-2.49-1.25-3.74-1.87c-0.5-0.14-1-0.29-1.5-0.43    c-1.27-0.52-3.04-1.03-4.41-1.18c-0.38-0.06-0.76-0.12-1.14-0.18c-1.35-0.36-2.69-0.72-4.04-1.08c-2.5-1.03-4.66-2.11-6.61-3.87    c-0.67,0-1.61-0.62-1.75-1c-1.49-0.85-2.4-1.28-3.37-2.24c-1.52-1.18-3.1-2.31-4.61-3.49c-0.85-0.49-1.64-1.01-2.49-1.5    c-0.96-0.54-1.79-1.08-2.74-1.62c-0.36,0-0.72,0-0.87-0.37c-0.16,0.3-0.21,0.7-0.37,1c-0.47,1.32-0.66,2.41-1.13,3.73    c-0.17,0.32-0.6,1.33-0.99,1.38c-0.82,0.01-1.55-0.01-2.37,0c-0.63-0.06-1.37-0.07-1.99-0.12c-1.58-0.59-3.04-1.42-4.62-2.01    c-1.16-0.41-2.32-0.82-3.48-1.24c-2.12,0.26-4.25,0.52-6.37,0.79c-0.78,0.04-1.76-0.23-2.49-0.16c-0.37-0.21-0.62-0.54-1-0.75    c-0.48-0.47-0.84-1.07-1.32-1.54c-1.46-0.87-3.03-1.57-4.68-1.26c-0.2,0.03-0.41,0.06-0.61,0.09c-0.46,0.19-0.46,0.51-1,0.46    c-0.01,0.12-0.02,0.24-0.04,0.36c-0.11,1.58-0.23,3.17-0.34,4.75c-0.43,1.95-0.87,3.89-1.3,5.84c-0.2,0.92-0.36,3.6-1.57,3.64    c-2.96,0.1-5.6-1.49-8.56-1.85c-0.42-0.34-1.73-0.53-2.29-0.58c-0.2-0.05-0.41-0.1-0.61-0.15c-0.38,0.13-0.63,0.14-1.01,0.09    c-0.44,0.59-1.13,1.55-1.57,2.14c-0.15,0.48-0.84,1.61-1.29,1.85c-1.38,0.63-1.93-0.24-3.24-0.62c-0.58-0.11-1.05-0.51-1.62-0.62    c-0.74,0.49-1.47,0.99-2.21,1.48c-1.16,0.89,0.08,0.02-0.85,0.68c-1.97,1.4-3.95,2.8-5.92,4.19c-1.61,0.84-3.21,1.68-4.82,2.52    c-0.96,0.62-1.87,1.23-2.94,1.64c-0.25,0.1-0.89,0.37-1.09,0.25c-1.91-1.13-3.82-2.25-5.72-3.38c-1.02-0.87-3.6-1.92-4.96-2.01    c-0.88,0.05-1.76,0.1-2.64,0.14c-0.28,0.07-0.48-0.07-0.67,0.07c-1.25,1.28-2.49,2.56-3.74,3.83c-0.58,0.8-1.36,1.76-2.21,2.29    c-0.25,0.49-0.5,0.99-0.74,1.48c-0.38,0.46-0.75,0.92-1.13,1.38c-1.04,1.11-2.07,2.22-3.11,3.33c-0.38,0.47-0.76,0.94-1.13,1.41    c-0.46,1.21-0.91,2.41-1.37,3.62c-0.07,0.98-0.13,1.96-0.2,2.95c0.13,0.31,0.25,0.88,0.07,1.17c0.16,0.29,0.32,0.58,0.48,0.87    c0.75,1.58,1.51,3.16,2.26,4.74c0.48,0.61,0.43,1.12,1.26,1.27c0.37,0.06,0.98,1.04,1.38,1.42c0.53,0.02,1.73,0.72,2.09,0.8    c2.66,0.71,5.38,1.51,7.44,3.29c0.48,0.42,1.78,1.43,1.78,2.07c-0.04,1.04-0.08,2.08-0.12,3.12c-0.33,0.54-0.67,1.08-1,1.62    c-0.37,0.46-0.75,0.91-1.12,1.37c-0.87,0.41-1.74,0.82-2.61,1.23c-0.55,0.43-0.37-0.09-0.63,0.64l-0.27,0.65    c0.66,0.66,1.05,1.16,1.47,2c0.53,1.01,1.06,2.02,1.59,3.03c0.26,0.69,1.29,1.34,1.38,2.01c1.23,1.14,2.47,2.27,3.7,3.41    c0.08-0.04,0.17-0.08,0.25-0.12c0.58,0.33,1.16,0.67,1.75,1c0.75,0.25,1.5,0.5,2.24,0.75c1.08,0.12,2.16,0.25,3.24,0.37    c1.16-0.12,2.33-0.25,3.49-0.37c1.08-0.25,2.16-0.5,3.24-0.75c0.98-0.13,1.92,0.13,2.87,0.25c0.91,0.08,1.82,0.15,2.72,0.23    c1.34,0.45,2.68,0.9,4.02,1.36c1,0.35,2.12,0.37,3.06,0.86c0.84,0.43,0.97,1.93,1.03,2.91c0.01,0.24,0.88,0.4,1.13,0.38    c0.46-0.12,0.91-0.25,1.37-0.37c0.73-0.16,1.52-0.13,2.25-0.03c1-0.03,1.99-0.06,2.99-0.09c0.46,0.08,0.91,0.17,1.37,0.25    c0.25,0.17,0.5,0.33,0.75,0.5c0.29,0.34,0.58,0.68,0.88,1.01c0.87,1.02,2.11,2.13,2.35,3.48L115.72,123.26z"/>
            <circle cx="123.45" cy="76.31" r="1.586"/>
        </g>
        <g id="__Erzincan">
            <path d="    M312.53,146.27c0.33-0.47,1.08-0.5,1.2-1.56c-0.26-0.01-1.55-1.35-1.51-1.4c0.06,0.03,0.13,0.06,0.19,0.09    c-1.13-1.06-2.38-1.38-3.75-2.02c-0.47-0.26-0.95-0.52-1.42-0.78c-1.33-1.12-2.66-2.24-3.99-3.37c-0.78-0.37-1.38-0.6-2.24-0.75    c-0.46,0-0.91,0-1.37,0c-0.6,0.2-1.2,0.4-1.8,0.6c-0.7,0.12-1.41-0.3-2.07,0.02c-0.46-0.17-0.91-0.33-1.37-0.5    c-1.23-0.04-2.55,0.01-3.74,0.25c-0.33-0.04-0.67-0.08-1-0.12c-0.91,0.04-1.83,0.08-2.74,0.12c-0.92-0.21-1.76-0.35-2.62-0.75    c-0.38-0.18-0.72-0.76-1.12-0.75c-0.3-0.43-0.61-0.85-0.91-1.28c-0.33-0.15-0.66-0.31-0.99-0.46c-0.18-0.15-0.56-0.63-0.72-0.61    c-0.41,0.05-0.93,0-1.24,0.23c-0.04-0.07-0.07-0.14-0.11-0.21c-0.73-1.6-0.18-3.63,0.46-5.17c0.29-0.68,0.96-1.72,1.76-1.48    c0.27-0.27,0.5-0.65,0.87-0.75c0.13-0.31,0.21-0.83,0.5-1c-0.17-1.12-0.33-2.24-0.5-3.37c0.81-2.78,3.45-3.93,5.11-6.11    c0.04-0.83,0.08-1.66,0.12-2.49c-0.05-0.78,0.77-2.29,1.12-2.99c0.46-0.92,0.31-2.23,0.38-3.24c0.08-1.25,0.39-2.39,0.53-3.6    c0.08-0.67,0.14-1.1,0.09-1.26c0.06-0.08-0.31-0.67-0.25-0.75c-0.08-0.01-0.16-0.02-0.24-0.03c-2.01-0.19-4.02-0.23-5.99-0.65    c-0.4-0.08-1.92-0.46-2.1-0.71c-0.42-0.59-1.06-1.3-1.02-2.1c-1.2-2.3-1.41-3.27-1.37-5.86c0.04-0.83,0.08-1.66,0.12-2.49    c0.04-0.83,0.08-1.66,0.12-2.49c0-0.82,0.26-2.05-0.26-2.54c-0.2-0.19-0.52-0.27-1.01-0.17c-4.39,0.57-8.76,0.5-13.17,0.7    c-0.59,0.09-1.18,0.18-1.77,0.27c-1.1,0-2.04,0.03-3.12,0c-1.16,0.11-2.31,0.22-3.47,0.33c-1.07-0.07-2.14-0.14-3.21-0.21    c-0.39-0.26-1.74-0.16-2.29-0.22c-0.99-0.12-1.91-0.58-2.78-0.98c-0.5-0.22-2.71-0.37-3.22-0.17c-0.41-0.1-0.82-0.19-1.23-0.29    c-0.4-0.1-1.08-0.18-1.39-0.58c-1.54-0.8-3.08-1.59-4.61-2.39c-0.62-0.37-1.25-0.74-1.87-1.1c-0.84-0.11-1.51,0.01-2.37-0.05    c-0.21-0.01-0.75,0.03-0.74-0.2c0.07-0.36,0.14-0.71,0.2-1.07c0.02-0.02,1.88,0.17,0.99-0.35c-1.27-0.73-3.68-1.77-5.19-1.32    c-0.29-0.04-0.58-0.08-0.87-0.12c-1.47-0.82-3.27-0.81-4.86-1.12c-0.95-0.28-1.91-0.56-2.86-0.85c-0.88-0.49-1.76-0.98-2.64-1.47    c-0.21-0.33-0.64-0.33-0.95-0.55c-0.87-0.6-1.21-0.6-2.15-0.94c-1.73-0.64-3.7-1.29-5.58-1.29c-0.27-0.25-2.57-0.58-3.02-0.51    c-0.33,0.12-0.67,0.25-1,0.37c-3.22,0.2-6.86,0.96-9.85,2.12c-0.71,0.54-1.41,1.08-2.12,1.62c-1.26,0.45-2.52,0.96-3.87,1.09    c-2.37,0.23-4.75,0.4-7.11,0.65c-0.83,0.12-1.66,0.25-2.49,0.37c-1.8,0.05-3.5,0.54-4.74,1.87c-0.18,0.2-0.48,0.55-0.75,0.5    c-0.21,0.33-0.42,0.67-0.62,1c-0.12,0.23-0.38,0.44-0.62,0.5c-0.3,0.46-0.78,1.09-0.72,1.61c0.04,0.22,0.05,0.1-0.27,0.27    c0.62,0.86,0.96,1.68,1.03,2.75c-0.01,0.99-0.02,1.99-0.04,2.98c-0.08,0.25-0.57,1.62-0.39,1.63c2.92,0.29,5.7,0.39,8.62,0.99    c1.37-0.04,2.74-0.08,4.11-0.12c3.05,0.63,6.05,0.9,8.85,2.37c0,0.34,0.86,0.86,1.12,0.87c0.87,1.29,1.75,2.58,2.62,3.87    c0.24,0.83,0.49,1.66,0.73,2.49c0.08,0.33,0.29,0.69,0.14,1c0.33,0.29,0.67,0.58,1,0.87c0.12,0.37,0.25,0.75,0.37,1.12    c0.03,0.85,0.24,2.12,0.76,2.76c0.67,0.83,1.55,1.25,2.48,1.73c0.33,0.21,0.67,0.42,1,0.62c0.46,0.53,1.93,2.24,2.62,2.37    c0.3,0.41,0.72,1.07,1.25,1.12c0.44,0.59,1.69,2.43,2.37,2.49c0.52,0.63,0.94,1.26,1.62,1.75c0.73,0.45,1.47,0.89,2.2,1.34    c0.44,0.3,0.64,0.71,1.17,0.78c0.39,0.06,0.6,0.5,1,0.5c1.19,1.13,2.39,2.26,3.58,3.39c1.63,1.07,3.27,2.15,4.9,3.22    c1,0.54,2,1.08,2.99,1.62c0.85,0.14,2.2,0.27,2.51,1.04c0.32,0.9,0.16,3.26,0.99,3.62c1.25,0.54,2.57,0.74,3.88,1.06    c1.67,0.41,3.39,0.82,5.09,0.64c0.54,0.08,1.08,0.17,1.62,0.25c0.4,0.16,0.82,0.51,1.25,0.5c0.17,0.17,0.33,0.33,0.5,0.5    c0.18,0.34,0.39,0.98,0.75,1.12c0.27,2.09-0.07,4.01-1.04,5.87c-0.19,0.25-0.38,0.49-0.58,0.74c-0.36,0.43-0.38,1.47-0.4,2    c-0.01,0.23-0.1,0.61-0.01,0.75c0.18,0.33,0.36,0.66,0.53,0.99c0.65,0.66,1.29,1.32,1.94,1.98c0.29,0.02,0.67,0.11,0.8,0.39    c0.79,0.21,1.58,0.42,2.37,0.62c0.54-0.02,1.08-0.05,1.62-0.07c1.2,0.19,2.39,0.37,3.58,0.56c0.68,0.17,1.35,0.34,2.03,0.51    c0.54,0.25,1.08,0.5,1.62,0.75c0.37,0.21,0.75,0.42,1.12,0.62c1.05,1.44,1.94,3.06,2.63,4.73c0.16,0.38,0.32,0.75,0.48,1.13    c0.88,1.03,1.79,2.22,2.3,3.48c0.1,0.24,0.42,0.65,0.32,0.88c0.33,0.33,0.67,0.67,1,1c0.59,1.19,1.36,2.18,1.83,3.38    c0.51,1.29,0.69,2.61,0.94,3.96c0.11,0.59,0.4,1.18,0.22,1.76c0.64,0.19,1.28,0.37,1.92,0.56c0.52,0.31,1.05,0.63,1.57,0.94    c0.47,0.18,0.95,0.36,1.42,0.54c0.57,0.24,1.13,0.47,1.7,0.71c1.12,0.66,2.14,1.37,3.37,1.91c0.36,0.15,0.79,0.66,1.24,0.46    c0.6,0.6,1.18,0.7,2,0.87c0.65,0.03,1.3,0.06,1.95,0.09c1.27,0.13,2.5,0.08,3.78,0.02c0.6-0.03,1.55-0.01,1.87-0.62    c0.46-0.21,0.91-0.42,1.37-0.62c0.65-0.23,2.73-0.72,3.12-1.12c1.01-0.29,2.02-0.59,3.03-0.88c0.25-0.33,2.17-1.24,2.58-1.24    c0.59-0.38,1.98-1.1,2.62-0.62c0.38-0.31,1.54-1.2,2-1.12c0.21-0.42,0.42-0.83,0.62-1.25c0.29-0.02,0.42-0.11,0.62,0.12    c1-0.62,2-1.25,2.99-1.87c0.42-0.42,0.83-0.83,1.25-1.25c0.77-2.41,0.56-5.2,0.23-7.72c-0.01-0.35-0.02-0.7-0.03-1.05    c-0.2-0.87-0.34-1.7-0.33-2.58c0.04-1.79,0.08-3.57,0.12-5.36c0.26-0.59,1.44-2.35,1.94-2.6    C311.05,146.66,311.79,146.46,312.53,146.27z"/>
            <circle cx="254.38" cy="112.97" r="1.586"/>
        </g>
        <g id="__Kemah">
            <path d="    M160.86,201.94c-0.19-0.17-0.12-0.25-0.38-0.37c-1.24-0.5-2.49-1-3.73-1.5c-1.66-1.08-3.43-1.82-5.22-2.65    c-1.25-0.49-2.5-0.98-3.76-1.47c-1.21-0.58-2.41-1.16-3.62-1.75c-0.91-0.12-1.83-0.25-2.74-0.37c0-0.24-0.66-0.2-0.88-0.21    c-1.04-0.06-2.07-0.12-3.11-0.18c-0.75-0.16-1.5-0.32-2.25-0.49c-1.25-0.82-2.56-1.42-3.99-1.87c-0.91-0.52-1.82-1.04-2.74-1.55    c-0.38-0.27-0.76-0.53-1.14-0.8c-0.97-0.6-1.96-1.14-3.02-1.55c-0.44-0.15-0.89-0.31-1.33-0.46c-0.87-0.84-1.94-1.35-2.74-2.24    c-0.61-0.81-1.22-1.62-1.83-2.42c-1.83-2.16-3.66-4.33-5.49-6.49c-2.05-2.14-4.1-4.28-6.15-6.42c-0.18-0.28-1.88-1.82-2.12-1.87    c-0.46-0.81-1-1.78-1-2.74c0-1.5,0.8-2.84,1.12-4.24c0.17-0.42,0.33-0.83,0.5-1.25c0.21-0.29,0.42-0.58,0.62-0.87    c0.15-0.49,0.29-0.99,0.44-1.48c0.19-0.38,0.37-0.76,0.56-1.13c0.2-0.33,0.39-0.66,0.59-0.99c0.37-0.9,0.92-1.73,1.03-2.76    c0.15-1.35-0.15-2.59-0.33-3.97c-0.06-0.48-0.25-1.49-0.04-1.89c-0.44-0.65-1.57-1.97-1.43-2.73c0.06-2.91,0.12-5.83,0.18-8.74    c0.61-1.65,1.63-4.18,2.74-5.49c0.35-0.51,0.71-1.01,1.06-1.52c0.48-0.43,1.31-1.18,1.43-1.85c0.77-0.62,1.57-0.99,2.4-1.5    c0.42-0.26,0.75-0.26,0.7-0.74l0.52-0.12c0.71-0.42,1.41-0.83,2.12-1.25c0.62,0.12,1.74-0.77,2.27-1.07c1.4-0.6,2.8-1.2,4.2-1.8    c0.42-0.21,0.84-0.41,1.27-0.62c0.77-0.1,2.9-0.5,3.53-0.16c1.11-0.03,2.22-0.06,3.33-0.09c1.63,0.16,3.13,1.08,4.61,1.62    c0.48-0.34,1.66-0.16,2.24-0.12c0.33-0.08,0.67-0.17,1-0.25c1.12-0.42,2.24-0.83,3.37-1.25c0.59-0.44,1.19-0.88,1.78-1.32    c1.43-0.73,2.83-1.7,4.05-2.74c0.34-0.36,0.68-0.73,1.01-1.09c1.13-0.82,2.26-1.64,3.39-2.47c0.89-0.71,2.1-0.95,3.11-1.38    c0.67-0.49,1.33-0.98,2-1.48c0.2-0.28,0.4-0.57,0.6-0.85c0.69-1.15,0.96-1.42,2.01-2.27c0.18-0.49,0.72-0.68,1-1.12    c0.44-0.58,0.88-1.16,1.31-1.74c0.31-0.75,0.62-1.5,0.93-2.25c0.66-1.12,1.33-2.24,2-3.37c0.04-0.37,0.08-0.75,0.12-1.12    c-0.07-0.36-0.14-0.72-0.2-1.08c-0.18-0.64-0.36-1.28-0.55-1.91c0-0.5,0-1,0-1.5c0.33-0.12,0.35-0.38,0.48-0.7    c0.28-0.61,1.02-0.8,1.63-0.95c1.5-0.36,2.1-0.37,3.62-0.28l-0.02-0.05c2.92,0.29,5.7,0.39,8.62,0.99    c1.37-0.04,2.74-0.08,4.11-0.12c3.05,0.63,6.05,0.9,8.85,2.37c0,0.34,0.86,0.86,1.12,0.87c0.87,1.29,1.75,2.58,2.62,3.87    c0.24,0.83,0.49,1.66,0.73,2.49c0.08,0.33,0.29,0.69,0.14,1c0.33,0.29,0.67,0.58,1,0.87c0.12,0.37,0.25,0.75,0.37,1.12    c0.03,0.85,0.24,2.12,0.76,2.76c0.67,0.83,1.55,1.25,2.48,1.73c0.33,0.21,0.67,0.42,1,0.62c0.46,0.53,1.93,2.24,2.62,2.37    c0.3,0.41,0.72,1.07,1.25,1.12c0.44,0.59,1.69,2.43,2.37,2.49c0.52,0.63,0.94,1.26,1.62,1.75c0.73,0.45,1.47,0.89,2.2,1.34    c0.44,0.3,0.64,0.71,1.17,0.78c0.39,0.06,0.6,0.5,1,0.5c1.19,1.13,2.39,2.26,3.58,3.39c1.63,1.07,3.27,2.15,4.9,3.22    c1,0.54,2,1.08,2.99,1.62c0.85,0.14,2.2,0.27,2.51,1.04c0.32,0.9,0.16,3.26,0.99,3.62c1.25,0.54,2.57,0.74,3.88,1.06    c1.67,0.41,3.39,0.82,5.09,0.64c0.54,0.08,1.08,0.17,1.62,0.25c0.4,0.16,0.82,0.51,1.25,0.5c0.17,0.17,0.33,0.33,0.5,0.5    c0.18,0.34,0.39,0.98,0.75,1.12c0.27,2.09-0.07,4.01-1.04,5.87c-0.19,0.25-0.38,0.49-0.58,0.74c-0.36,0.43-0.38,1.47-0.4,2    c-0.01,0.23-0.1,0.61-0.01,0.75c0.18,0.33,0.36,0.66,0.53,0.99c0.65,0.66,1.29,1.32,1.94,1.98c0.29,0.02,0.67,0.11,0.8,0.39    c0.79,0.21,1.58,0.42,2.37,0.62c0.54-0.02,1.08-0.05,1.62-0.07c1.2,0.19,2.39,0.37,3.58,0.56c0.68,0.17,1.35,0.34,2.03,0.51    c0.54,0.25,1.08,0.5,1.62,0.75c0.37,0.21,0.75,0.42,1.12,0.62c1.05,1.44,1.94,3.06,2.63,4.73c0.16,0.38,0.32,0.75,0.48,1.13    c0.88,1.03,1.79,2.22,2.3,3.48c0.1,0.24,0.42,0.65,0.32,0.88c0.33,0.33,0.67,0.67,1,1c0.59,1.19,1.36,2.18,1.83,3.38    c0.51,1.29,0.69,2.61,0.94,3.96c0.11,0.59,0.4,1.18,0.22,1.76v0.12c-1.02-0.33-2.53-0.23-3.62-0.25    c-0.46,0.08-0.91,0.17-1.37,0.25c-1.04,0.12-2.08,0.25-3.12,0.37c-0.63,0.17-1.26,0.34-1.89,0.51c-1.3,0.39-2.51,0.77-3.85,0.98    c-1.45,0.17-2.91,0.33-4.36,0.5c-0.3-0.18-1.14-0.2-1.5-0.12c-0.5,0.08-1,0.17-1.5,0.25c-1.08,0.04-2.16,0.08-3.24,0.12    c-0.88,0.24-1.75,0.48-2.63,0.71c-1.29,0.43-2.57,0.85-3.86,1.28c-2.16,0.87-4.32,1.75-6.48,2.62c-1.01,0.41-2.3,0.58-2.99,1.5    c-0.64-0.3-1.61,0.28-2.22,0.43c-1.79,0.31-3.59,0.63-5.39,0.94c-0.87-0.07-1.75-0.15-2.62-0.22c-1.17-0.1-2.33-0.19-3.5-0.29    c-1.08,0.03-2.16,0.06-3.24,0.09c-4.31,0-8.57-0.13-12.87-0.59c-1.53-0.25-3.06-0.49-4.58-0.74c-1.13,0.05-2.27,0.11-3.4,0.16    c-1.57,0.14-2.95,0.26-4.47,0.55c-0.78,0.14-1.84,0.28-2.48,0.79c-0.35,0.25-0.71,0.5-1.06,0.75c-0.59,0.58-1.19,1.15-1.78,1.73    c-1.18,1.54-2.36,3.08-3.54,4.62c-0.91,1.91-1.81,3.83-2.72,5.74c-1.29,1.99-3.09,3.9-5.05,5.22c-0.73,0.41-1.47,0.82-2.2,1.23    c-1.24,0.73-2.51,1.67-3.97,1.91L160.86,201.94z"/>
            <circle cx="171.7" cy="147.76" r="1.586"/>
        </g>
        <g id="__Üzümlü">
            <path d="    M312.53,146.27c0.33-0.47,1.08-0.5,1.2-1.56c-0.26-0.01-1.55-1.35-1.51-1.4c0.06,0.03,0.13,0.06,0.19,0.09    c-1.13-1.06-2.38-1.38-3.75-2.02c-0.47-0.26-0.95-0.52-1.42-0.78c-1.33-1.12-2.66-2.24-3.99-3.37c-0.78-0.37-1.38-0.6-2.24-0.75    c-0.46,0-0.91,0-1.37,0c-0.6,0.2-1.2,0.4-1.8,0.6c-0.7,0.12-1.41-0.3-2.07,0.02c-0.46-0.17-0.91-0.33-1.37-0.5    c-1.23-0.04-2.55,0.01-3.74,0.25c-0.33-0.04-0.67-0.08-1-0.12c-0.91,0.04-1.83,0.08-2.74,0.12c-0.92-0.21-1.76-0.35-2.62-0.75    c-0.38-0.18-0.72-0.76-1.12-0.75c-0.3-0.43-0.61-0.85-0.91-1.28c-0.33-0.15-0.66-0.31-0.99-0.46c-0.18-0.15-0.56-0.63-0.72-0.61    c-0.41,0.05-0.93,0-1.24,0.23c-0.04-0.07-0.07-0.14-0.11-0.21c-0.73-1.6-0.18-3.63,0.46-5.17c0.29-0.68,0.96-1.72,1.76-1.48    c0.27-0.27,0.5-0.65,0.87-0.75c0.13-0.31,0.21-0.83,0.5-1c-0.17-1.12-0.33-2.24-0.5-3.37c0.81-2.78,3.45-3.93,5.11-6.11    c0.04-0.83,0.08-1.66,0.12-2.49c-0.05-0.78,0.77-2.29,1.12-2.99c0.46-0.92,0.31-2.23,0.38-3.24c0.08-1.25,0.39-2.39,0.53-3.6    c0.08-0.67,0.14-1.1,0.09-1.26c0.06-0.08-0.31-0.67-0.25-0.75h0.12c0.54,0.17,1.08,0.33,1.62,0.5c0.42,0.42,0.83,0.83,1.25,1.25    c0.96,0.87,1.91,1.75,2.87,2.62c0.29,0.17,0.58,0.33,0.87,0.5c1.2,0.12,2.34,0.07,3.49,0.5c0.23-0.12,1.24,0.21,1.62,0.25    c1.21,0.08,2.41,0.17,3.62,0.25c0.67,0.14,1.34,0.29,2.01,0.43c1.7,0.29,3.5,0.19,5.23,0.19c0.55,0,1.71-0.21,2.15,0.11    c1.12-0.02,2.25-0.05,3.37-0.07c0.79,0,1.57,0,2.36,0c1.22,0.15,2.69-0.45,3.84-0.67c0.54,0.04,1.08,0.08,1.62,0.12    c1.33,0.28,3.53,0.46,4.63,1.15c0.54,0.33,1.34,1.15,1.6,1.72c0.21,0.29,0.42,0.58,0.62,0.87c0.49,0.5,0.99,1,1.48,1.5    c1.52,1.61,2.74,3.3,4.01,5.11c0.17,0.62,0.34,1.24,0.51,1.87c0.29,1,0.57,2,0.86,3c0.13,0.98,0.39,2.49,1.12,3.24    c1.92,1.95,4.02,0.59,6.11,1.37c0.79,0.04,1.58,0.08,2.37,0.12c0.71,0.25,1.41,0.5,2.12,0.75c0.5,0.25,1,0.5,1.5,0.75    c0.69,0.19,1.21,0.81,1.75,1.25c0.46,0.17,0.91,0.33,1.37,0.5c0.42,0,0.83-0.01,1.25-0.01c0.04,0,0.08,0.01,0.12,0.01    c-0.14,0.27,0.1,0.41,0.23,0.67c0.29,0.59-0.58,2.51-0.81,3.2c-0.31,0.93,1.02,1.9,1.58,2.49c0.16,0.16-0.23,1.06-0.37,1.37    c0.08,0.08-0.98,2.85-1.5,3.37c-0.48,2.04,0.16,4.46,1.19,6.26c0.36,0.63,0.49,1.24,1.05,1.72c0.37,0.33,0.75,0.67,1.12,1    c1,0.21,2,0.42,2.99,0.62c0.91-0.04,1.83-0.08,2.74-0.12c1.42,0.06,2.84,0.11,4.27,0.17c0.69-0.01,1.39-0.03,2.08-0.04    c1.02,0.07,1.95,0.44,2.88,0.86c0.3,0.37,0.59,0.74,0.89,1.1c0.03,0.21,0.07,0.43,0.1,0.64c0.01,0.2-0.77,0.3-0.99,0.37    c-0.5-0.26-2.28,0.26-2.86,0.4c-0.72,0.25-1.45,0.49-2.17,0.74c-0.94,0.26-1.87,0.52-2.81,0.78c-2.44,0.57-4.87,1.14-7.31,1.71    c-1.29,0.18-2.64,0.26-3.93,0.11c-0.75-0.29-1.5-0.57-2.26-0.86c-1.37-0.67-2.74-1.34-4.1-2.01c-0.38,0.36-2.42,0.03-3-0.05    c-0.41-0.07-0.83-0.14-1.24-0.2c-1.04,0-2.08,0-3.12,0c-1.3-0.21-2.47-0.6-3.73-1.03c-0.93-0.13-1.87-0.25-2.8-0.38    c-0.69-0.32-1.38-0.64-2.07-0.96c-0.33-0.08-0.67-0.17-1-0.25c-0.85,0.22-1.46,0.51-1.87-0.37c-0.32,0.08-0.48-0.13-0.8-0.12    c-0.48,0.04-0.97,0.08-1.45,0.12c-0.35-0.3-1.28-0.59-1-1.12c-0.46-0.04-0.92-0.07-1.38-0.11c-1.15-0.21-2.17-0.77-3.36-0.77    c-0.42-0.33-0.83-0.67-1.25-1c-0.67-0.17-1.33-0.33-2-0.5c-0.29-0.08-0.58-0.17-0.87-0.25c-0.6-0.68-1.93-0.5-2.74-0.5    c-0.6-0.6-1.33-0.64-2.11-0.84L312.53,146.27z"/>
            <circle cx="293.28" cy="122.33" r="1.586"/>
        </g>
        <g id="__Çayırlı">
            <path d="    M289.42,100.82c-0.08-0.01-0.16-0.02-0.24-0.03c-2.01-0.19-4.02-0.23-5.99-0.65c-0.4-0.08-1.92-0.46-2.1-0.71    c-0.42-0.59-1.06-1.3-1.02-2.1c-1.2-2.3-1.41-3.27-1.37-5.86c0.04-0.83,0.08-1.66,0.12-2.49c0.04-0.83,0.08-1.66,0.12-2.49    c0-0.82,0.26-2.05-0.26-2.54l0.74-0.29c1.46-0.29,2.93-0.59,4.4-0.88c2.57-0.55,5.14-1.1,7.72-1.65c1.95-0.62,3.91-1.25,5.86-1.87    c2.08-0.63,3.65-1.68,5.49-2.74c0.22-0.49,0.97-0.85,1.43-1.09c0.11,0.04,0.21,0.08,0.32,0.12c0.54-0.13,1.08-0.26,1.62-0.4    c0.54-0.25,1.08-0.5,1.62-0.75c1.68-1.21,3.82-1.89,5.74-2.62c0.2-0.25,0.4-0.5,0.6-0.76c0.09-0.33,0.18-0.66,0.27-0.99    c0.41-0.88,0.93-2.06,1.66-2.72c0.51-0.46,0.7-1.26,1.34-1.64c0.92-0.71,1.84-1.42,2.77-2.12c1.02-1.21,1.78-2.37,2.7-3.63    l0.76-0.24c0.5,0.5,1.02,0.85,1.45,1.46c0.63,0.08,1.19,0.61,1.52,1.15c0.71,0.04,1.4,0.61,1.92,1.1c0.9,0.47,1.8,0.94,2.7,1.41    c0.34,0.21,0.68,0.41,1.01,0.62c0.87,0.29,1.74,0.58,2.61,0.88c0.79,0.42,1.58,0.83,2.37,1.25c0.36,0.19,0.85,0.55,1.25,0.49    c1.19,1.05,2.42,1.81,3.74,2.62c1,0.37,2,0.75,2.99,1.12c0.43,0.07,0.85,0.15,1.28,0.22c0.4,0.17,0.76,0.37,0.92,0.8    c0.04,0.1,0.07,0.19,0.11,0.29c0.23,0.23,0.6,0.38,0.69,0.69c0.79,0.25,1.58,0.5,2.37,0.75c0.23-0.06,0.47-0.11,0.7-0.17    c0.55,0.06,1.11,0.13,1.66,0.19c0.51,0.06,1.83,0.28,2.25-0.02c1,0.13,2.31,0.08,3.12-0.62c1.45-0.18,3.2-1.22,3.87-2.62    c0.19-0.4,0.66-0.55,0.75-1c0.96-0.59,1.96-1.35,2.49-2.37c1.05-0.81,2.1-1.61,3.15-2.42c0.46-0.29,1-0.81,1.59-0.7    c0.23-0.14,0.34-0.26,0.62-0.25c1.66-1.99,3.33-3.99,4.99-5.99c0.79-1,1.57-2,2.36-3c0.45-0.49,0.86-1.11,1.51-1.36    c0.96-1.23,2.68-2.82,3.99-3.62c0.41-0.35,0.82-0.69,1.24-1.04c0.42-0.24,0.84-0.47,1.26-0.71c0.87-0.71,1.75-1.41,2.62-2.12    c0.23-0.18,1.42-1.29,1.12-1.44l0.11,0.19c0.89-0.35,2.12,0.41,3.01,0.62c1,0.32,1.99,0.65,2.99,0.97    c1.12,0.28,2.24,0.56,3.37,0.84c1.42,0.49,2.87,0.44,3.64,1.87c0.16,0.37-0.19,0.92-0.39,1.3c-0.74,1.13-1.49,2.25-2.23,3.38    c-0.58,0.99-1.17,1.99-1.75,2.98c-0.72,0.9-1.21,1.91-1.7,2.93c-0.18,0.35-0.36,0.7-0.55,1.06c0.03,0.38,0.06,0.77,0.09,1.15    c-0.24,1.39,0.02,2.15,0.66,3.34c-0.44,1.04-1.41,1.15-2.37,1.5c-0.21,0.25-0.42,0.5-0.62,0.75c-0.09,0.64-0.56,1.31-1,1.75    c0.06,0.43-0.63,0.8-0.94,1.02c-1.15,0.8-2.4,1.21-3.8,1.35c-0.49,0.92-1.78,0.38-2.49,0.12c-0.81,0.69-1.62,1.37-2.43,2.06    c-0.19,0.19-0.58,0.04-0.74-0.1c-0.98,0.04-1.65-0.48-2.61-0.07c-0.1,0.04-0.45,0.64-0.45,0.85c-0.37,0.25-0.75,0.5-1.12,0.75    c0.24,0.28-0.06,0.51-0.27,0.73c-0.41,0.38-0.82,0.76-1.22,1.14c0.31,0.3,0.05,0.82,0,1.25c-0.46-0.02-0.69,0.51-1.06,0.81    c-0.23-0.11-0.46-0.21-0.69-0.32c-0.16,0.38-0.74,0.47-1.12,0.62c0.13,0.51-1.28,1.82-1.75,2.24c-0.33,0.87-0.67,1.75-1,2.62    c-0.27,0.02-0.5,0.48-0.5,0.75c-0.56,0.28-1.12,0.56-1.68,0.83c-0.05,0.15-0.11,0.3-0.16,0.45c-0.07,0.49,0.57,1.46,0.9,1.92    c0.56,0.6,1.13,1.19,1.69,1.79c0.93,1.02,1.81,2.07,2.99,2.74c0.62,0.67,1.25,1.33,1.87,2c0.74,0.09,1.58,0.42,2,1.12    c1.08,1.66,2.16,3.33,3.24,4.99c0.27,0.02,0.45,0.29,0.62,0.5c0.25,0.42,0.5,0.83,0.75,1.25c0.41,0.04,0.7,0.6,0.99,0.89    c1.13,0.7,2.25,1.4,3.38,2.1c0.37,0.42,0.75,0.83,1.12,1.25c-0.16,0.37,0.15,0.98,0.25,1.37c-0.08,0.29-0.15,0.58-0.23,0.86    c-0.09,0.61-0.32,0.68-0.85,0.96c-0.34,0.16-2.23-0.1-2.91-0.08c-0.42,0.04-0.83,0.08-1.25,0.12c-0.58-0.08-1.16-0.17-1.75-0.25    c-0.75,0.04-1.5,0.08-2.24,0.12c-1.36-0.28-2.62-0.21-3.99-0.12c-0.46,0.25-0.91,0.5-1.37,0.75c-0.71,0.67-1.41,1.33-2.12,2    c-0.62,0.42-1.25,0.83-1.87,1.25c-0.71,0.62-1.41,1.25-2.12,1.87c-1.08,1-2.16,2-3.24,2.99c-0.99,1.48-1.57,3.4-2,5.11    c-0.18,0.31-0.35,0.61-0.53,0.92c-0.5,1.14-0.99,2.29-1.49,3.43c-0.5,1.13-1,2.25-1.5,3.38c-0.28,1.13-0.75,2.59-1.47,3.49    l-0.12,0.62c-0.56-0.59-1.89-1.56-1.58-2.49c0.24-0.69,1.1-2.61,0.81-3.2c-0.13-0.26-0.37-0.41-0.23-0.67    c-0.04,0-0.08-0.01-0.12-0.01c-0.42,0-0.83,0.01-1.25,0.01c-0.46-0.17-0.91-0.33-1.37-0.5c-0.53-0.43-1.06-1.06-1.75-1.25    c-0.5-0.25-1-0.5-1.5-0.75c-0.71-0.25-1.41-0.5-2.12-0.75c-0.79-0.04-1.58-0.08-2.37-0.12c-2.09-0.78-4.19,0.58-6.11-1.37    c-0.74-0.75-1-2.27-1.12-3.24c-0.29-1-0.57-2-0.86-3c-0.17-0.62-0.34-1.24-0.51-1.87c-1.27-1.8-2.49-3.5-4.01-5.11    c-0.49-0.5-0.99-1-1.48-1.5c-0.21-0.29-0.42-0.58-0.62-0.87c-0.26-0.57-1.06-1.39-1.6-1.72c-1.11-0.68-3.3-0.87-4.63-1.15    c-0.54-0.04-1.08-0.08-1.62-0.12c-1.15,0.22-2.62,0.82-3.84,0.67c-0.79,0-1.57,0-2.36,0c-1.12,0.02-2.25,0.05-3.37,0.07    c-0.44-0.32-1.6-0.11-2.15-0.11c-1.73,0-3.52,0.09-5.23-0.19c-0.67-0.14-1.34-0.29-2.01-0.43c-1.21-0.08-2.41-0.17-3.62-0.25    c-0.38-0.04-1.39-0.37-1.62-0.25c-1.16-0.43-2.29-0.38-3.49-0.5c-0.29-0.17-0.58-0.33-0.87-0.5c-0.96-0.87-1.91-1.75-2.87-2.62    c-0.42-0.42-0.83-0.83-1.25-1.25c-0.54-0.17-1.08-0.33-1.62-0.5H289.42z"/>
            <circle cx="353.26" cy="99.51" r="1.586"/>
        </g>
        <g id="__Tercan">
            <path d="    M375.32,153.31c-0.03-0.21-0.07-0.43-0.1-0.64c-0.3-0.37-0.59-0.74-0.89-1.1c-0.93-0.43-1.86-0.8-2.88-0.86    c-0.69,0.01-1.39,0.03-2.08,0.04c-1.42-0.06-2.84-0.11-4.27-0.17c-0.91,0.04-1.83,0.08-2.74,0.12c-1-0.21-2-0.42-2.99-0.62    c-0.37-0.33-0.75-0.67-1.12-1c-0.57-0.48-0.69-1.1-1.05-1.72c-1.03-1.8-1.68-4.22-1.19-6.26c0.52-0.52,1.58-3.28,1.5-3.37    c0.15-0.32,0.54-1.21,0.37-1.37l0.12-0.62c0.71-0.91,1.19-2.36,1.47-3.49c0.5-1.13,1-2.25,1.5-3.38c0.5-1.14,0.99-2.29,1.49-3.43    c0.18-0.31,0.35-0.61,0.53-0.92c0.43-1.71,1-3.63,2-5.11c1.08-1,2.16-2,3.24-2.99c0.71-0.62,1.41-1.25,2.12-1.87    c0.62-0.42,1.25-0.83,1.87-1.25c0.71-0.67,1.41-1.33,2.12-2c0.46-0.25,0.91-0.5,1.37-0.75c1.37-0.09,2.63-0.16,3.99,0.12    c0.75-0.04,1.5-0.08,2.24-0.12c0.58,0.08,1.16,0.17,1.75,0.25c0.42-0.04,0.83-0.08,1.25-0.12c0.68-0.02,2.57,0.24,2.91,0.08    c0.53-0.28,0.76-0.35,0.85-0.96c0.08-0.29,0.15-0.58,0.23-0.86c-0.1-0.39-0.41-1-0.25-1.37c-0.37-0.42-0.75-0.83-1.12-1.25    c-1.13-0.7-2.25-1.4-3.38-2.1c-0.29-0.29-0.58-0.85-0.99-0.89c-0.25-0.42-0.5-0.83-0.75-1.25c-0.17-0.21-0.36-0.48-0.62-0.5    c-1.08-1.66-2.16-3.33-3.24-4.99c-0.41-0.71-1.25-1.03-2-1.12c-0.62-0.67-1.25-1.33-1.87-2c-1.18-0.67-2.06-1.72-2.99-2.74    c-0.56-0.6-1.13-1.19-1.69-1.79c-0.33-0.46-0.97-1.42-0.9-1.92c0.05-0.15,0.11-0.3,0.16-0.45c0.56-0.28,1.12-0.56,1.68-0.83    c0-0.27,0.22-0.73,0.5-0.75c0.33-0.87,0.67-1.75,1-2.62c0.47-0.42,1.87-1.74,1.75-2.24c0.38-0.15,0.97-0.24,1.12-0.62    c0.23,0.11,0.46,0.21,0.69,0.32c0.36-0.31,0.59-0.83,1.06-0.81c0.05-0.43,0.31-0.95,0-1.25c0.41-0.38,0.82-0.76,1.22-1.14    c0.21-0.22,0.51-0.45,0.27-0.73c0.37-0.25,0.75-0.5,1.12-0.75c0-0.21,0.35-0.8,0.45-0.85c0.96-0.41,1.63,0.1,2.61,0.07    c0.16,0.14,0.55,0.29,0.74,0.1c0.81-0.69,1.62-1.37,2.43-2.06c0.72,0.26,2,0.79,2.49-0.12c1.4-0.14,2.65-0.55,3.8-1.35    c0.31-0.22,1-0.59,0.94-1.02c0.44-0.44,0.9-1.1,1-1.75c0.21-0.25,0.42-0.5,0.62-0.75c0.96-0.35,1.93-0.46,2.37-1.5l0.5,0.87    c0.27-0.01,0.23-0.05,0.32,0.27c0.71,0.28,1.19,0.65,1.79,1.1c0.54,0.25,1.08,0.5,1.62,0.75c1.55,0.55,3.09,1.1,4.64,1.64    c1.86,0.32,3.72,0.65,5.58,0.97c0.62,0.23,1.24,0.47,1.87,0.7c0.62,0.3,1.24,0.61,1.86,0.91c1.75,0.91,3.5,1.83,5.25,2.74    c1.34,0.49,2.68,0.97,4.03,1.46c1.53,0.18,3.05,0.37,4.58,0.55c1.12,0.37,2.24,0.75,3.37,1.12c0.04,0.82,1.34,1.36,2.01,1.69    c0.91,0.6,1.82,1.2,2.73,1.8c0.2-0.04,1.78,0.9,2,1.12c0.49,0.52,1.13,0.75,1.75,1.12c0.09,0.36,0.46,0.53,0.75,0.75    c0.24,0.73,0.97,0.89,1.5,1.37c0.17,0.21,0.33,0.42,0.5,0.62c0.33,0.25,0.67,0.5,1,0.75c0.08,0.55,0.68,0.85,1.12,1.12    c0.03,0.44,0.45,0.61,0.62,1c0.58,1.29,1.13,2.37,2.49,2.74c-0.04,0.4-0.08,0.8-0.11,1.2c-0.17,0.01-0.34,0.03-0.51,0.04    c-0.04,0.32-0.42,0.59-0.58,0.91c-0.06,0.4-0.11,0.81-0.17,1.21c-0.21,0.35-0.41,0.71-0.62,1.06c-0.42,0.6-0.84,1.2-1.25,1.8    c0.05,0.27-0.13,0.5-0.25,0.75c0.22,0.33-0.1,0.63-0.12,1c-0.08,1-0.17,2-0.25,2.99c0,2.76,2.02,4.91,3.17,7.21    c1,1.99,2.12,3.84,2.19,6.13c0.62,0.83,1.24,1.67,1.87,2.5c0.92,0.69,1.98,1.27,2.74,2.12c0.5,0.75,1,1.5,1.5,2.24    c1.11,1.43,2.18,2.9,3.49,4.11c0.67,0.46,1.33,0.91,2,1.37c0.26-0.24,0.79-0.03,1.13,0.05c0.7,0.03,1.41,0.05,2.11,0.08    c0.62,0.25,1.25,0.5,1.87,0.75c0.4,0.53,0.81,1.07,1.21,1.6c0.56,0.88,0.67,2.48,0.48,3.57c0.02,0.65,0.04,1.29,0.06,1.94    c-0.12,1.58-0.25,3.16-0.37,4.74c0.26,1.1,0.52,2.19,0.78,3.29c0.81,3.16,0.83,5.41-0.03,8.56c0.25,0.29,0.07,0.89,0.1,1.25    c0.1,1.51-0.45,2.94-1.09,4.24c-0.26,0.08-1.85,1.56-1.91,1.76c-0.76,0.55-1.53,1.1-2.29,1.65c-0.29,0.15-0.5-0.14-1.04,0.2    c0.02,0.26-0.32,0.45-0.5,0.62c-0.21,0.99-1.09,1.3-1.77,1.76c-0.69,0.47-1.55-0.03-2.35,0.11c-1.09,0.19-3.48-0.4-4.48-0.9    c-0.78-0.39-1.45-0.95-2.25-1.22c-0.46,0.04-0.91,0.09-1.37,0.13c-2.41,0.37-4.82,0.74-7.23,1.11c-1.29,0-2.58,0-3.87,0    c-2.95,0.08-5.9,0.17-8.85,0.25c-3.99,0.67-7.98,1.33-11.97,2c-0.69,0.03-1.39,0.06-2.08,0.1c-0.31,0.11-0.62,0.21-0.94,0.32    c-0.37-0.01-0.73-0.03-1.1-0.04c-0.37,0.12-0.75,0.25-1.12,0.37c-0.88,0.12-1.75,0.24-2.63,0.37c-1.41,0.32-3.17,0.48-4.44,1.22    c-0.42,0.31-0.84,0.62-1.27,0.94c-0.27,0.19-0.14-0.07-0.4-0.02c0.21-1.66,0.45-2.32,1.25-3.74c0.07,0.02,0.14,0.04,0.2,0.07    c0.31-0.26,0.63-0.52,0.94-0.79c0.82-0.42,1.65-0.84,2.47-1.27c0.33-0.13,0.67-0.25,1-0.38c1-0.54,2-1.08,2.99-1.62    c2.23-1.46,4.41-3.24,5.49-5.74c-0.04-0.71-0.08-1.41-0.12-2.12c-0.52-1.48-0.85-2.35-2-3.49c-0.75-0.29-1.5-0.58-2.25-0.88    c-0.91-0.12-1.83-0.25-2.74-0.37c-0.58,0.06-1.16,0.13-1.75,0.19c-1.47,0.18-2.92,0.63-4.36,0.68c-1.22,0.38-2.44,0.77-3.66,1.15    c-1.67,0.46-3.34,0.93-5.02,1.39c-1.08,0.34-2.03,0.77-3.18,0.95c-1.54-0.02-3.07-0.04-4.61-0.06c-1.92-0.19-3.84-0.37-5.76-0.56    c-0.78-0.04-1.56-0.09-2.35-0.13c-0.74-0.22-3.8-0.49-4.49-0.25C376.1,153.33,375.32,153.31,375.32,153.31z"/>
            <circle cx="418.6" cy="106.49" r="1.586"/>
        </g>
        <g id="__Otlukbeli">
            <path d="    M389.92,45.26c-0.37-0.11-0.75-0.21-1.12-0.32c-0.86-0.52-4.17-0.92-5.21-0.88c-1.66-0.17-3.33-0.35-4.99-0.52    c-2.08-0.19-4.17-0.38-6.25-0.58c-1.4-0.51-2.81-1.02-4.21-1.53c-1.67-0.53-3.35-1.06-5.02-1.59c-2.2-0.1-4.39-0.21-6.59-0.31    c-0.6,0.11-2.55,0.65-3.02,0.43c-0.65,0.21-2.57,0.79-2.87,1.37c-0.73,0.26-1.46,0.52-2.19,0.79c-0.51,0.3-1.48,0.47-1.43,1.21    c-0.75,0.41-1.5,0.82-2.24,1.24c-1,0.54-2,1.09-2.99,1.63c-2.22,1.36-4.63,2.44-6.73,3.99c-1.54,0.75-3.08,1.5-4.61,2.24    c-1.08,0.99-2.16,1.99-3.25,2.98c-0.83,0.75-1.66,1.5-2.49,2.24c-0.19,0.18-0.75,0.61-0.75,0.88c-0.19,0.27-0.48,0.9-0.25,1.12    c0.5,0.5,1.02,0.85,1.45,1.46c0.63,0.08,1.19,0.61,1.52,1.15c0.71,0.04,1.4,0.61,1.92,1.1c0.9,0.47,1.8,0.94,2.7,1.41    c0.34,0.21,0.68,0.41,1.01,0.62c0.87,0.29,1.74,0.58,2.61,0.88c0.79,0.42,1.58,0.83,2.37,1.25c0.36,0.19,0.85,0.55,1.25,0.49    c1.19,1.05,2.42,1.81,3.74,2.62c1,0.37,2,0.75,2.99,1.12c0.43,0.07,0.85,0.15,1.28,0.22c0.4,0.17,0.76,0.37,0.92,0.8    c0.04,0.1,0.07,0.19,0.11,0.29c0.23,0.23,0.6,0.38,0.69,0.69c0.79,0.25,1.58,0.5,2.37,0.75c0.23-0.06,0.47-0.11,0.7-0.17    c0.55,0.06,1.11,0.13,1.66,0.19c0.51,0.06,1.83,0.28,2.25-0.02c1,0.13,2.31,0.08,3.12-0.62c1.45-0.18,3.2-1.22,3.87-2.62    c0.19-0.4,0.66-0.55,0.75-1c0.96-0.59,1.96-1.35,2.49-2.37c1.05-0.81,2.1-1.61,3.15-2.42c0.46-0.29,1-0.81,1.59-0.7    c0.23-0.14,0.34-0.26,0.62-0.25c1.66-1.99,3.33-3.99,4.99-5.99c0.79-1,1.57-2,2.36-3c0.45-0.49,0.86-1.11,1.51-1.36    c0.96-1.23,2.68-2.82,3.99-3.62c0.41-0.35,0.82-0.69,1.24-1.04c0.42-0.24,0.84-0.47,1.26-0.71c0.87-0.71,1.75-1.41,2.62-2.12    C389.02,46.52,390.22,45.41,389.92,45.26z"/>
            <circle cx="352.64" cy="59.98" r="1.586"/>
        </g>
    </g>
</svg>