<?xml version="1.0" encoding="UTF-8"?>
<!DOCTYPE svg PUBLIC "-//W3C//DTD SVG 1.1//EN" "http://www.w3.org/Graphics/SVG/1.1/DTD/svg11.dtd">
<svg version="1.1" id="HaritaCizim" xmlns="http://www.w3.org/2000/svg" xmlns:xlink="http://www.w3.org/1999/xlink" x="0px" y="0px" viewBox="0 0 500 480" preserveAspectRatio="none">
    <defs id="__def">
        <radialGradient id="f">
            <stop offset="0" stop-color="white" stop-opacity="1"/>
            <stop id="STOP1" offset=".4" stop-opacity="1"/>
            <stop offset="1" stop-color="white" stop-opacity=".2"/>
        </radialGradient>
        <filter id="__flt1" x="0" y="0" width="200%" height="200%" filterUnits="objectBoundingBox">
            <feGaussianBlur in="SourceAlpha" stdDeviation="3" result="blur1"/>
            <feSpecularLighting result="specOut" in="blur1" specularConstant="1.5" specularExponent="20" lighting-color="#bbbbbb">
                <feDistantLight azimuth="45" elevation="30"/>
            </feSpecularLighting>
            <feComposite in="specOut" in2="SourceAlpha" operator="in" result="specOut"/>
            <feComposite in="SourceGraphic" in2="specOut" operator="arithmetic" k1="0" k2="1" k3="1" k4="0"/>
        </filter>
        <filter id="__flt2" x="0" y="0" width="200%" height="200%" filterUnits="objectBoundingBox">
            <feGaussianBlur in="SourceAlpha" stdDeviation="3" result="blur1"/>
            <feSpecularLighting result="specOut" in="blur1" specularExponent="20" lighting-color="#bbbbbb">
                <fePointLight x="-2000" y="100" z="2000"/>
            </feSpecularLighting>
            <feComposite in="specOut" in2="SourceAlpha" operator="in" result="specOut"/>
            <feComposite in="SourceGraphic" in2="specOut" operator="arithmetic" k1="0" k2="1" k3="1" k4="0"/>
        </filter>
        <filter id="__flt3" x0="-50%" y0="-50%" width="200%" height="200%" filterUnits="objectBoundingBox">
            <feGaussianBlur in="SourceAlpha" stdDeviation="3" result="blur"/>
            <feOffset in="blur" dx="0" dy="0" result="offsetBlur"/>
            <feSpecularLighting in="blur" surfaceScale="4" specularConstant=".5" specularExponent="20" lighting-color="flavor" result="specOut">
                <fePointLight x="-5000" y="-10000" z="5000"/>
            </feSpecularLighting>
            <feComposite in="specOut" in2="SourceAlpha" operator="in" result="specOut"/>
            <feComposite in="SourceGraphic" in2="specOut" operator="arithmetic" k1="0" k2="1" k3="1" k4="0" result="litPaint"/>
            <feMerge>
                <feMergeNode in="offsetBlur"/>
                <feMergeNode in="litPaint"/>
            </feMerge>
        </filter>
        <filter id="__flt4" x0="-50%" y0="-50%" width="200%" height="200%">
            <feGaussianBlur in="SourceAlpha" stdDeviation="2" result="blur"/>
            <feOffset dy="-1" dx="-1"/>
            <feComposite in2="SourceAlpha" operator="arithmetic" k2="-1" k3="1" result="hlDiff"/>
            <feFlood flood-color="white" flood-opacity=".7"/>
            <feComposite in2="hlDiff" operator="in"/>
            <feComposite in2="SourceGraphic" operator="over" result="withGlow"/>
            <feOffset in="blur" dy="3" dx="3"/>
            <feComposite in2="SourceAlpha" operator="arithmetic" k2="-1" k3="1" result="shadowDiff"/>
            <feFlood flood-color="black" flood-opacity="1"/>
            <feComposite in2="shadowDiff" operator="in"/>
            <feComposite in2="withGlow" operator="over"/>
        </filter>
        <filter id="__golge1" x="0" y="0" width="200%" height="200%" filterUnits="userSpaceOnUse">
            <feOffset result="offOut" in="SourceAlpha" dx="8" dy="8"/>
            <feGaussianBlur result="blurOut" in="offOut" stdDeviation="3"/>
            <feBlend in="SourceGraphic" in2="blurOut" mode="normal"/>
        </filter>
    </defs>
    <g id="__Komsular" display="none">
        <path fill-rule="evenodd" clip-rule="evenodd" fill="none" stroke="#000000" stroke-width="0.25" stroke-miterlimit="10" d="   M110.29,139.95c-3.82-0.03-7.27,1.42-11.21,1.42c-1.98,0-3.79-0.26-5.66-0.35c-0.97-0.05-1.82,0.02-2.71-0.24   c-0.9-0.26-1.77-0.65-2.72-0.94c-1.6-0.49-3.13-1.48-4.83-1.65c-1.84-0.18-4.06-0.19-5.9,0c-1.84,0.19-3.41,1.08-5.31,1.18   c-2.01,0.1-3.65,0.32-5.45,0.8c-1.02,0.27-2.18,0.71-3.28,0.62"/>
        <path fill-rule="evenodd" clip-rule="evenodd" fill="none" stroke="#000000" stroke-width="0.25" stroke-miterlimit="10" d="   M79.03,51.13c0.43,1.73,0.1,3.95,0.12,5.78c0.03,2.35,2,2.54,3.28,4.15c1.08,1.37,2,2.43,3.3,3.67c1.14,1.08,2.27,2.54,2.82,4   c0.92,2.44-1.51,2.66-3.03,3.66c-1.62,1.05-2.79,2.08-4.01,3.52c-1.24,1.46-1.85,2.52-0.86,4.51c0.76,1.52,2.1,2.74,2.39,4.45   c0.31,1.88-1.24,3.6-0.44,5.42c0.41,0.94,1.38,1.09,2.19,1.69c0.6,0.45,0.9,1.07,1.47,1.59c2.62,2.39,6.38,2.35,7.43,6.37   c0.46,1.77-0.13,3.72-0.73,5.22c-0.76,1.89-2.43,2.19-3.63,3.8c-1.04,1.4-1.61,2.89-2.94,4.13c-1.27,1.19-2.34,2.16-3.31,3.65   c-1.11,1.7-1.23,2.9-1.44,4.93c-0.1,1-0.27,1.83,0.26,2.69c0.41,0.67,1.17,1.36,1.65,2c1.1,1.47,2.09,2.79,3.01,4.3   c1.03,1.7,1.29,3.12,1.95,4.93c0.35,0.97,0.76,1.69,0.66,2.81c-0.13,0.07-0.13,0.05-0.23,0.14c0.08,0.18,0.19,0.11,0.37,0.12"/>
        <path fill-rule="evenodd" clip-rule="evenodd" fill="none" stroke="#000000" stroke-width="0.25" stroke-miterlimit="10" d="   M201.82,73.31c0.43-1.57,1.13-2.99,1.68-4.46c0.51-1.35,1.29-3.06,2.3-4.07c1.22-1.22,3.01-1.76,3.95-3.24   c0.9-1.41,1.91-3.06,2.6-4.6c0.74-1.67,0.82-3.59,1.26-5.34c0.48-1.94,0.84-3.61,1.07-5.66c0.49-4.38,3.98-5.64,7.17-7.94   c3.24-2.33,6.59-3.97,9.23-7.05c2.32-2.71,3.96-6.56,4.87-9.99c0.7-2.64,1.85-5.15,1.85-7.94c0-1.41,0.2-2.97,0-4.36   c-0.21-1.48-1.46-2.48-1.65-3.89"/>
        <path fill-rule="evenodd" clip-rule="evenodd" fill="none" stroke="#000000" stroke-width="0.25" stroke-miterlimit="10" d="   M394.08,54.43c1.28,0.06,2.82-2.53,3.77-3.33c1.37-1.16,2.63-2.17,3.52-3.77c1.82-3.28,2.71-7.08,1.79-10.83   c-0.47-1.91-0.68-3.48-0.7-5.54c-0.02-1.86-0.81-3.69-1.18-5.42c-0.44-2.05-0.36-3.4,0.03-5.4c0.41-2.08,1.49-3.17,3.01-4.66   c1.52-1.48,2.99-3.33,4.51-4.92c0.82-0.86,1.4-1.73,2.03-2.69c0.58-0.89,0.69-1.87,1.15-2.74"/>
        <path fill-rule="evenodd" clip-rule="evenodd" fill="none" stroke="#000000" stroke-width="0.25" stroke-miterlimit="10" d="   M435.48,113.41c0.45,0.16,0.45,0.54,0.94,0.71c0.4,0.14,1.11-0.01,1.54-0.01c0.98,0,1.84-0.12,2.83-0.12c2.02,0,3.87-0.27,5.78-0.7   c1.92-0.43,3.72-1.59,5.43-2.46c1.66-0.84,3.52-0.95,4.95-2.14c1.61-1.34,2.85-3.07,4.69-4.05c1.66-0.89,2.93-2.09,4.51-3.18   c1.55-1.06,3.33-1.33,4.86-2.42c1.87-1.33,3.35-1.81,5.52-2.15c1.49-0.24,3.3-0.86,4.27-2.13c0.99-1.28,1.58-3.51,1.89-5.07   c0.73-3.66-2.69-8,0.59-11.44c1.04-1.09,2.96-1.08,4.22-1.88c1.28-0.81,1.68-2.58,1.91-3.99c0.28-1.72-0.23-3.45,0.33-5.1   c0.54-1.61,0.64-3.2,0.73-4.94c2.08-0.11,4.01,0.42,6.11,0.22c1.19-0.11,1.84-0.4,2.51-1.42c0.53-0.81,0.34-1.99,0.91-2.71"/>
        <path fill-rule="evenodd" clip-rule="evenodd" fill="none" stroke="#000000" stroke-width="0.25" stroke-miterlimit="10" d="   M434.42,268.4c1.98,0,3.93-0.19,5.9,0c2.05,0.2,3.8-0.29,5.78-0.83c1.94-0.53,3.57-0.4,5.33-1.41c1.6-0.91,3.12-1.72,4.93-2.01   c2.08-0.33,3.83-0.74,5.78-1.55c1.64-0.68,3.37-1.58,5.07-2.19c0.86-0.31,1.77-0.17,2.71-0.26c0.91-0.09,1.78-0.47,2.69-0.62   c2.06-0.34,3.52-1.59,5.48-2.19c0.71-0.22,1.45-0.28,2.21-0.41c0.97-0.17,1.67-0.58,2.6-0.92c2.25-0.83,3.61,1,5.78,0.6   c1.79-0.33,3.11-0.85,5.05-0.57c1.62,0.24,3.26,0.45,4.98,0.21"/>
        <path fill-rule="evenodd" clip-rule="evenodd" fill="none" stroke="#000000" stroke-width="0.25" stroke-miterlimit="10" d="   M404.93,360.64c1-0.11,1.86,0.31,2.83,0.35c1.02,0.05,2.05,0,3.07,0c1.76,0,3.59,0.29,4.98,1.27c1.38,0.97,2.12,2.78,3.28,3.95   c1.15,1.17,2.57,2.27,3.39,3.66c1.87,3.17,1.87,6.75,2.74,10.24c0.21,0.84,0.63,1.62,0.92,2.47c0.32,0.95,0.14,1.72,0.14,2.71   c0,2.07,0.46,3.89,2.83,4.13c1.97,0.2,3.85-0.01,5.66,0.59c1.54,0.51,2.44,2.25,3.41,3.45c0.73,0.89,0.95,1.16,1.18,2.33   c0.18,0.9,0.34,1.78,0.47,2.71c0.24,1.67,1.11,3.14,1.74,4.72c1.35,3.36,2.73,6.66,4.78,9.79c1.05,1.61,1.98,3.39,3.25,4.84   c1.27,1.45,2.21,2.82,3,4.57c1.18,2.6,2.6,5.04,2.92,7.93c0.29,2.62,0.9,5.76,2.36,7.9"/>
        <path fill-rule="evenodd" clip-rule="evenodd" fill="none" stroke="#000000" stroke-width="0.25" stroke-miterlimit="10" d="   M201.82,391.42c-0.07,2.04,0.2,3.44-0.38,5.4c-0.58,1.94-0.6,3.62-0.8,5.69c-0.17,1.79-1.2,3.29-0.92,5.19   c0.28,1.9,0.34,3.65,0.06,5.54c-0.29,1.94,0.45,3.66,1.53,5.2c1,1.41,1.52,2.86,2.54,4.21c2.15,2.85,4.14,5.97,5.27,9.35   c1.23,3.67,3.58,6.81,6.02,9.81c1.16,1.43,1.9,2.89,2.83,4.45c0.58,0.97,1.01,1.61,1.06,2.72c0.04,0.95-0.23,1.84-0.24,2.83   c-0.02,1.85-0.76,3.8-0.24,5.66"/>
        <path fill-rule="evenodd" clip-rule="evenodd" fill="none" stroke="#000000" stroke-width="0.25" stroke-miterlimit="10" d="   M112.76,355.57c-1.92,0.23-3.39-0.8-4.95-1.56c-1.74-0.85-3.58-1.19-5.46-0.59c-1.67,0.53-3.65,0.54-5.4,0.97   c-1.79,0.45-3.72,0.26-5.66,0.36c-1.93,0.1-3.83-0.05-5.66,0.36c-1.8,0.41-3.69,0.42-5.55,0.7c-1.87,0.28-3.66,0.47-5.66,0.47   c-2.13,0-3.88,0.43-5.75,1.33c-1.46,0.71-2.9,1.44-4.42,2.06c-1.7,0.69-3.1,0.92-4.45,2.3c-1.08,1.11-2.73,2.66-3.19,4.22   c-0.52,1.77,0.79,3.71,1.06,5.43c0.14,0.9,0.45,2.01,0.25,2.95c-0.21,0.99-1.08,1.64-1.4,2.59c-0.58,1.74-0.79,3.45-1.91,5.05   c-0.98,1.4-2.52,2.5-3.33,4.03c-0.87,1.64-1.96,2.63-3.07,4.1c-1.06,1.41-1.61,2.46-3.16,3.42c-1,0.62-2.52,2.43-3.63,2.64   c-0.66,1.09-2.76,2.49-3.91,2.93"/>
        <path fill-rule="evenodd" clip-rule="evenodd" fill="none" stroke="#000000" stroke-width="0.25" stroke-miterlimit="10" d="   M62.4,249.88c-1.56-0.85-3.18-1.27-4.83-1.89c-1.53-0.58-3.59-1.07-5.19-1.29c-1.93-0.27-3.31-0.69-5.05-1.44   c-2.1-0.91-3.71-0.26-5.81,0.14c-1.72,0.34-4.22,0.38-5.77-0.37c-1.02-0.5-1.67-0.69-2.84-0.8c-0.89-0.09-1.94-0.16-2.72-0.7   c-0.98-0.67-1.32-1.38-2.59-1.54c-0.98-0.12-1.71-0.21-2.62-0.45c-1.71-0.45-3.61-0.68-5.52-0.5c-1.63,0.15-3.13,1.04-4.72,1.42   c-1.85,0.44-3.29,1.55-4.96,2.56c-1.55,0.94-2.95,1.52-4.69,2.06c-1.55,0.49-3.1,1.85-4.42,2.77c-0.24,0.17-0.45,0.34-0.68,0.51"/>
        <text transform="matrix(0.854 -0.5202 0.5202 0.854 133.3853 80.4741)" font-family="'MyriadPro-Regular'" font-size="11.3234">RİZE</text>
        <text transform="matrix(0.9374 -0.3482 0.3482 0.9374 264.4214 53.6152)" font-family="'MyriadPro-Regular'" font-size="11.3234">ARTVİN</text>
        <text transform="matrix(0.791 0.6118 -0.6118 0.791 428.2363 25.3242)" font-family="'MyriadPro-Regular'" font-size="11.3234">ARDAHAAN</text>
        <text transform="matrix(0.393 -0.9196 0.9196 0.393 462.5928 190.5259)" font-family="'MyriadPro-Regular'" font-size="11.3234">KARS</text>
        <text transform="matrix(0.1948 -0.9808 0.9808 0.1948 474.6055 335.6821)" font-family="'MyriadPro-Regular'" font-size="11.3234">AĞRI</text>
        <text transform="matrix(1 0 0 1 319.1787 452.8774)" font-family="'MyriadPro-Regular'" font-size="11.3234">MUŞ</text>
        <text transform="matrix(0.9636 0.2675 -0.2675 0.9636 93.6709 422.3628)" font-family="'MyriadPro-Regular'" font-size="11.3234">BİNGÖL</text>
        <text transform="matrix(1 0 0 1 12.5029 319.8276)" font-family="'MyriadPro-Regular'" font-size="11.3234">ERZİNCAN</text>
        <text transform="matrix(0.9991 -0.0418 0.0418 0.9991 30.2349 203.9604)" font-family="'MyriadPro-Regular'" font-size="11.3234">BAYBURT</text>
    </g>
    <g id="__Harita" display="none">
        <rect id="__cer" x="0" y="0" fill="#000000" opacity="0" width="500" height="480"/>
        <g id="__Olur">
            <path d="    M406.59,75.87c-0.51-0.4-1.02-0.8-1.54-1.21c-0.99-0.86-1.86-1.72-2.65-2.76c-1.09-1.43-2.19-2.87-3.28-4.3    c-1.15-1.91-2.05-3.96-2.96-6c-0.45-0.91-0.9-1.81-1.34-2.72c-0.11-0.6-0.23-1.21-0.34-1.81c-0.68-0.48-0.72-1.58-0.88-2.36    c-0.01-0.04-0.02-0.09-0.03-0.13c-0.29,0.15-0.58-0.23-0.91-0.26c-0.89-0.09-1.81,0.06-2.71,0.15c-0.34-0.23-0.68-0.45-1.02-0.68    c-0.15-0.23-2.7-1.74-2.94-1.7c-0.18-0.18-0.44-0.13-0.68-0.11c-0.64-0.42-1.28-0.83-1.93-1.25c-0.57-0.08-1.13-0.15-1.7-0.23    c-0.64,0.11-1.28,0.21-1.93,0.32c-0.4,0.14-0.8,0.28-1.2,0.41c-1.21,0.22-2.79-0.09-3.99-0.36c-3.89-1.14-7.78-2.29-11.67-3.43    c-1.13-0.26-2.26-0.53-3.4-0.79c-0.68-0.11-1.36-0.23-2.04-0.34c-0.69-0.21-1.39-0.41-2.08-0.62c-1.46-0.49-2.84-0.95-4.37-1.2    c-0.83-0.18-1.67-0.36-2.5-0.54c-2.01-0.43-3.98-0.63-5.99-0.48c-0.69,0.05-1.49-0.05-2.15,0.23c-1.4,0.59-3.09,1.04-4.19,2.15    c-0.68,0.6-1.36,1.21-2.04,1.82c-0.41,0.48-0.81,0.95-1.22,1.43c-0.38,0.31-0.77,0.63-1.15,0.94c-0.14,0.2-1.28,1.41-1.71,1.82    c-1.08,0.86-1.73,1.39-2.72,2.38c-0.6,0.19-0.76,0.49-1.13,0.79c-1.13,0.91-2.28,1.88-3.28,2.94c-1.36,1.8-2.72,3.61-4.08,5.41    c-0.53,0.88-1.06,1.75-1.58,2.63c-0.04,0.53-0.08,1.06-0.11,1.58c0.35,0.35,0.21,1.04,0.11,1.47c0.36,0.36,0.29,0.84,0.57,1.25    c0.74,1.1,1.62,2.09,2.35,3.2c0.23,0.37,0.47,0.74,0.7,1.1c0.12,0.35,0.24,0.7,0.36,1.05c0.07,0.37,0.14,0.74,0.21,1.1    c0,0.75,0,1.51,0,2.26c-0.13,0.93-0.27,1.89-0.62,2.76c-0.26,0.54-0.52,1.08-0.79,1.62c-0.21,0.47-0.74,1.91-0.74,1.91    c0.26,0.11,1.31,0.5,1.58,0.61c0.25,0.35,0.87,0.44,1.26,0.6c1.16,0.46,2.15,1.18,3.4,1.45c0.56,0.03,1.12,0.06,1.68,0.1    c0.49,0.26,0.98,0.53,1.47,0.79c0.98,0.32,1.97,0.64,2.95,0.96c0.56,0.03,1.12,0.06,1.67,0.08c0.68,0.13,1.37,0.27,2.05,0.4    c0.6,0.01,1.21,0.02,1.81,0.02c0.53,0.15,1.06,0.3,1.58,0.45c0.45-0.04,0.91-0.08,1.36-0.11c1.17,0.08,2.34,0.15,3.51,0.23    c0.76-0.39,2.71,0.1,3.46,0.46c0.57,0.28,0.88,0.68,1.29,1.16c0.45,0.44,0.91,0.88,1.36,1.32c0.42,0.57,0.83,1.13,1.25,1.7    c0.67-0.02,1.04,0.97,1.7,1.13c0.59,0.15,1.3,0.18,1.81,0.57c0.42,0.23,0.83,0.45,1.25,0.68c0.34-0.04,0.68-0.08,1.02-0.11    c0.45,0.08,0.91,0.15,1.36,0.23c1.28,0,2.57,0,3.85,0c0.87-0.2,1.74-0.4,2.61-0.61c0.85-0.1,1.66-0.05,2.5,0.09    c0.63,0.1,1.41-0.13,2.02-0.28c0.23,0.04,0.45,0.07,0.68,0.11c0.99,0.03,3.65-0.82,4.18,0.14l-0.08-0.47    c0.37-1.02,1.03-3.22,0.99-3.29c0.3-0.75,1.06-2.34,1.13-2.38c0.82-1.52,1.76-2.89,2.72-4.3c0.64-0.67,1.27-1.34,1.91-2.01    c0.9-0.95,1.82-1.88,2.96-2.52c0.47-0.33,0.94-0.67,1.41-1c1.87-0.61,3.74-1.22,5.61-1.83c0.53,0.04,1.06,0.08,1.59,0.11    c0.56-0.07,1.12-0.14,1.67-0.21c1.55-0.21,3.1-0.42,4.65-0.64c0.83-0.22,1.55-0.21,2.4-0.28c0.32-0.03,0.59-0.24,0.91-0.11    c0.99-0.59,2.05-0.82,3.17-0.79c0.64-0.47,1.02-0.81,1.81-0.91c0.23,0.23,0.6,0.05,0.89,0.15    C407.71,77.04,407.12,76.25,406.59,75.87z"/>
            <circle cx="362.94" cy="74.96" r="1.586"/>
        </g>
        <g id="__Pasinler">
            <path d="    M312.38,224.55c0,1.75,0.03,3.45,0.21,5.19c-0.16,0.22,0.03,0.55,0.06,0.82c0.09,0.76,0.02,1.38,0.19,2.14    c-0.08,0.72-0.15,1.43-0.23,2.15c0.1,1.2-0.08,2.21-0.11,3.4c0,1.85,0,3.7,0,5.55c0.08,0.49,0.15,0.98,0.23,1.47    c0.23,0.6,0.45,1.21,0.68,1.81c-0.01,1.62-0.03,3.24-0.04,4.86c-0.04,0.56-0.23,1.64-0.64,2.05c-0.11,0.53-0.23,1.06-0.34,1.59    c-0.02,0.33-0.04,0.65-0.06,0.98c-0.16,0.66-0.32,1.31-0.48,1.97c-0.05,0.32,0.02,1.43-0.14,1.56c-0.62,0.47-1.07,0.99-1.58,1.61    c-0.19,0.19-0.38,0.38-0.57,0.56c0,0.53,0,1.06,0,1.59c-0.17,0.9-0.33,1.81-0.5,2.71c-0.14,0.53-0.27,1.06-0.41,1.59    c-0.01,1.31-0.02,2.62-0.03,3.93c0.21,2.08,0.03,4.29-0.08,6.37c0.23,0,0.19,0.69,0.2,0.9c-0.01,1.02-0.01,2.04-0.02,3.06    c0.02,1.18-0.45,2.23-0.89,3.32c-0.11,0.26-0.23,1.01-0.53,0.99c-0.13,0.6-0.35,1.36-1.04,1.53c-0.69,0.14-2.36,0.33-2.81,0.85    c-0.3,0-0.56,0.01-0.79,0.23c-0.3,0-0.6,0-0.91,0c-1.13,0.57-2.26,1.13-3.4,1.7c-1.62,0.91-3.25,1.81-4.87,2.72    c-0.58,0.17-2.32,1.46-2.71,1.93c-0.18,0.21-0.64,0.84-0.46,1.02l-0.45-0.34c-0.32-0.16-0.11,0.43-0.45,0.11    c-0.18-0.18-0.56,0.04-0.8,0.12c-0.79,0.34-1.58,0.68-2.37,1.02c-0.87,0.53-1.74,1.06-2.6,1.59c-1.48,0.23-3.11,0.63-4.42,1.36    c-0.87,0.08-1.74,0.15-2.6,0.23c-1.11,0.12-2.43-0.11-3.51-0.34c-0.91-0.42-1.81-0.83-2.72-1.25c-1.11,0.16-2.16-0.45-3.29-0.56    c-0.49,0-0.98,0-1.47-0.01c-1.06-0.25-2.12-0.49-3.18-0.74c-1.66-0.02-3.31-0.04-4.97-0.06c-0.76-0.11-1.51-0.22-2.27-0.33    c-3.01-0.48-4.79-0.42-7.23,1.59c-0.27,0.19-0.54,0.37-0.8,0.56c0,0,0.21-0.53,0.31-0.78c-0.32-1.42,0.38-2.63,0.38-4.01    c-0.04-0.22-0.09-0.43-0.13-0.65c0.38-0.53,0.15-0.8,0.27-1.44c0.33-1.22,0.65-2.43,0.98-3.65c0.55-0.24,1.13-1.28,1.13-1.7    c0.42-0.49,0.83-0.98,1.25-1.47c1.1-1.19,1.78-2.62,2.83-3.85c1.23-1.27,2.45-2.54,3.68-3.81c0.25-0.39,0.51-0.78,0.77-1.17    c0.16-0.21-0.32-0.97-0.48-1.25c-0.61-1.06-2.02-0.89-2.46-2.39c-0.37-1.24-0.56-2.51-1.05-3.72c-0.43-0.48-0.86-0.96-1.28-1.45    c-0.63-0.76-1.26-1.53-1.89-2.29c-0.23-0.38-0.45-0.75-0.68-1.13c-1.07-1.39-2.15-2.77-3.22-4.16c-0.38-0.54-0.73-1.15-0.86-1.84    c-0.6-0.83-1.2-1.67-1.8-2.51l-0.34-0.41c-0.08-0.43-0.15-0.85-0.23-1.28c0.04-1.31,0.09-2.73,0.45-3.96    c0.22-0.73,1.36-1.83,1.91-2.37c0.23-0.3,0.45-0.6,0.68-0.91c0.63-0.73,1.26-1.45,1.89-2.18c0.2-0.33,0.4-0.66,0.6-0.99    c0.66-0.92,1.67-1.62,2.51-2.36c0.52-0.61,1.04-1.22,1.56-1.83c0.96-1.06,1.88-2.12,2.72-3.28c0.69-0.21,1.15-1.03,1.67-1.5    c0.27-0.24,0.6-0.41,0.77-0.71c0.43-0.36,0.86-0.72,1.29-1.08c0.91-0.75,1.82-1.5,2.72-2.26c0.34-0.23,0.68-0.45,1.02-0.68    c0.98-0.98,1.96-1.96,2.94-2.94c0.55-0.6,0.97-1.18,1.7-1.59c1.59-1.81,3.17-3.62,4.76-5.44c0.35-0.4,1.56-1.52,1.52-1.4    l-0.01,0.02c0,0,0.71-0.75,0.94-1.03c1.48-1.78,2.85-3.72,4.57-5.29c1.55-0.72,4.76-2.26,4.76-2.26c0.66,0.74,1.52,1.08,2.26,1.7    c0.98,0.96,1.97,1.92,2.95,2.87c0.91,0.6,2.04,0.62,3.05,0.98c0.31,0.17,0.62,0.34,0.93,0.52c0.73,0.34,1.47,0.55,2.24,0.73    c0.51,0.12,2,1.09,2.38,1.47c0.83,0.3,1.66,0.6,2.49,0.91c0.3,0.15,0.6,0.3,0.91,0.45c0.38,0.38,0.76,0.75,1.13,1.13    c0.83,0.25,1.66,0.5,2.48,0.74c0.27,0.05,0.53,0.11,0.8,0.16c1.02,0.39,2.03,0.78,3.05,1.17c0.53,0.25,1.06,0.5,1.6,0.75    L312.38,224.55z"/>
            <circle cx="286.15" cy="258.61" r="1.586"/>
        </g>
        <g id="__Aşkale">
            <path d="    M118.73,322.41c-0.5,0.79-2.62,0.36-3.39-0.05c-1.09-0.57-1.94-1.4-2.75-2.31c-0.21-0.28-0.42-0.56-0.63-0.84    c-0.42-0.45-0.83-0.91-1.25-1.36c-0.5-0.72-1-1.45-1.51-2.17c-0.74-0.6-1.49-1.2-2.23-1.79c-0.5-0.62-1-1.24-1.51-1.86    c-0.74-1.05-0.34-2.71-1.1-3.8c-0.38-0.72-0.76-1.43-1.13-2.15c-0.29-0.47-0.58-0.94-0.87-1.41c-0.24-0.36-0.47-0.72-0.71-1.08    c-0.49-1.27-1-2.52-1.36-3.85c0.02-0.38,0.04-0.75,0.06-1.13c0.17-1.3,0.16-2.59,0.51-3.86c0.25-0.36,0.5-0.73,0.74-1.09    c0.28-0.39,0.56-0.79,0.84-1.18c0.11-0.57,0.22-1.13,0.33-1.7c0.04-0.28-0.14-1.22-0.13-1.56c-0.02-0.26-0.33-0.91-0.45-1.15    c-0.37-0.65-0.74-1.29-1.11-1.94c-0.45-0.13-0.94-0.79-1.26-1.13c-1.16-1.1-2.33-2.19-3.49-3.29c-2.83-1.74-5.66-3.47-8.49-5.21    c-0.27,0.13-2.4-0.99-2.72-1.02c-2-0.2-3.81-0.53-5.69-1.19c-0.41-0.13-0.81-0.26-1.22-0.4c-2.1-1.12-4.2-2.24-6.31-3.36    c-1.39-0.72-2.84-0.82-4.34-1.05c-3.65-0.56-7.2-1.78-10.19-3.96c-0.34-0.41-0.68-0.83-1.02-1.25c-0.11-0.45-0.23-0.91-0.34-1.36    c0.02-0.64,0.03-1.28,0.05-1.92c0.08-0.98,0.56-1.74,1.02-2.59c0.65-1.18,1.32-2.29,2.22-3.31c0.24-0.52,0.49-1.04,0.73-1.56    c0.33-0.57,0.73-1.05,1.08-1.61c0.5-0.8,0.98-1.73,1.77-2.28c0.51-0.03,1.01-0.06,1.52-0.09c1.43,0.14,2.87,0.28,4.3,0.41    c3.47,0.38,6.94,0.52,10.42,0.84c1.43-0.12,2.87-0.24,4.3-0.36c0.85-0.68,2.46-0.98,3.51-1.25c0.3-0.19,0.6-0.38,0.91-0.57    c0.79-0.68,1.58-1.36,2.38-2.04c0.5-0.54,0.8-1.08,1.22-1.67c0.14-0.18,0.28-0.36,0.42-0.54c0.28-0.21,0.57-0.41,0.85-0.62    c0.23-0.49,0.45-0.98,0.68-1.47c0.26-0.38,0.53-0.75,0.79-1.13c0.66-0.85,1.53-1.51,2.41-2.1c0.67-0.32,1.34-0.64,2.01-0.96    c1.52-0.31,3.18-0.04,4.64-0.68c1.12-0.49,2.32-1.09,3.28-1.81c1.32-0.6,2.64-1.21,3.96-1.81c0.34-0.19,0.68-0.38,1.02-0.57    c1.03-0.78,2.11-1.39,3.31-1.84l0.65-0.08c0,0.29,1.63,1.81,1.93,1.81c0.31,0.48,1.01,0.7,1.49,0.99    c1.47,0.88,3.04,1.53,4.63,2.18c0.34,0.01,0.68,0.02,1.02,0.02c1.13-0.16,2.27-0.32,3.4-0.48c1.32-0.53,2.64-1.06,3.96-1.59    c0.52,0.13,1.7-0.64,2.15-0.91c1.59-0.04,3.17-0.08,4.76-0.11c0.24,0.25,1.02,0.18,1.36,0.11c0.69-0.24,1.38-0.48,2.06-0.73    c0.49-0.22,0.98-0.44,1.47-0.67c1.78-0.32,3.83-0.42,5.64-0.42c0.31,0.31,1.24,0.19,1.7,0.22c0.3,0.02,1.03,1.19,1.25,1.48    c0,0.26,0,0.53,0,0.79c-0.02,1.42,0.24,2.4,0.54,3.77c0.23,1,0.37,1.94,0.7,2.92c-0.24,0.3,0.06,1.71,0.11,2.15    c0.4,0.33,0.69,2.05,0.85,2.62c0.23,0.56,0.45,1.13,0.68,1.69c0.05,0.34,0.1,0.69,0.15,1.03c0.1,0.45,0.21,0.9,0.31,1.35    c0,1.41-0.53,3.91,0.06,5.19c0.83,1.8,1.47,3.82,2.49,5.55c1.32,2.24,2.8,4.22,3.74,6.68c-0.26,0.39-0.02,2.62,0.02,3.22    c-0.01,0.96-0.02,1.93-0.02,2.89c-0.08,0.26-0.15,0.53-0.23,0.79c0,0.87,0,1.74,0,2.6c0.32,0.32,0.18,1.13,0.24,1.56    c0.25,0.68,0.49,1.35,0.74,2.03l0.16,0.59c0,0,0.28,1.2,0.23,1.59c-0.15,1.36-0.3,2.72-0.45,4.08c-0.28,0.58-0.29,1.17-0.35,1.8    c-0.15,0.76-0.29,1.52-0.44,2.28c-0.15,0.54-0.43,0.67-0.68,1.02c-0.26,0.6-0.53,1.21-0.79,1.81c0,0.34,0,0.68,0,1.02    c0,1.41,0.04,1.61-0.68,2.83c-0.04,1.47-0.08,2.94-0.11,4.42c0.04,0.26,0.11,1.02,0.11,1.13l0.22,0.15    c-0.46,1.15-0.07,2.39-0.1,3.59c-0.06,2.17-0.81,4.81-2.26,6.45c-0.64,0.72-0.85,1.7-1.7,2.27c-0.49,0.32-1.25,0.29-1.81,0.36    c-0.34,0.07-0.68,0.14-1.02,0.2c-0.38-0.04-0.75-0.08-1.13-0.11c-0.68,0.06-1.36,0.12-2.04,0.17c-0.34-0.01-0.67-0.02-1.01-0.02    c-2.95,0.69-5.9,1.38-8.85,2.08c-1.73,0.24-3.47,0.47-5.21,0.71c-0.68,0-1.35,0-2.03,0c-0.87,0.16-1.74,0.31-2.61,0.47    c-1.17,0.07-2.34,0.14-3.51,0.22c-0.38-0.04-0.75-0.08-1.13-0.13c-1.08-0.1-2.22-0.22-3.29,0.03c-0.75,0.22-1.5,0.44-2.25,0.66    c-0.23,0.23-0.46,0.45-0.68,0.68c-0.14,0.35-0.29,0.84-0.33,1.3L118.73,322.41z"/>
            <circle cx="125.38" cy="270.64" r="1.586"/>
        </g>
        <g id="__Çat">
            <path d="    M199.71,375.41c0.24-0.31,0.23-0.89,0.23-1.28c0.08-0.45,0.17-0.9,0.25-1.34c0.03-0.72,0.07-1.44,0.1-2.17    c-0.01-0.35,0-0.64-0.35-0.79c-0.22-0.76-0.44-1.52-0.66-2.27c-0.27-0.98-0.54-1.96-0.81-2.94c-0.54-1.13-1.09-2.27-1.63-3.4    c-0.15-0.38-0.3-0.77-0.45-1.15c-0.06-0.29-0.13-0.59-0.19-0.88c0.26-2.74,1.36-5.35,1.92-8.04c0.11-0.75,0.23-1.51,0.34-2.26    c0.6-2.31,1.21-4.63,1.81-6.94c0.24-0.85,0.47-1.7,0.71-2.55c0.73-1.51,1.83-2.86,2.91-4.09c0.98-1.33,1.95-2.65,2.93-3.98    c0.63-0.8,1.26-1.61,1.89-2.41c0.69-1.16,1.38-2.32,2.07-3.48c0.5-1.05,1-2.1,1.49-3.15c0.53-0.87,1.06-1.74,1.59-2.6    c0.2-0.71,0.4-1.43,0.6-2.14c0.66-1.77,1.32-3.55,1.97-5.32c0.3-0.8,0.56-2.59,1.16-3.18c0.13-0.64,0.25-1.28,0.38-1.91    c0.21-0.53,0.43-1.06,0.64-1.6c0.12-0.72,0.25-1.43,0.37-2.15c0.67-2.36,1.25-4.42,2.68-6.11l-1.12,0.44    c-1.28,0.6-2.57,1.21-3.85,1.81c-0.83,0.6-1.66,1.21-2.49,1.81c-1.25,0.48-2.5,0.96-3.74,1.44c-0.45,0.13-0.9,0.25-1.35,0.38    c-0.31,0.3-1.27,0.54-1.7,0.45c-0.83,0.44-1.66,0.87-2.49,1.31c-0.56,0.24-1.13,0.49-1.69,0.73c-1.09-0.03-2.86-0.28-3.74,0.34    c-0.29,0-0.57-0.04-0.79,0.11c-0.39,0.27-1.23,0.21-1.47,0.68c-1.21,0.19-2.42,0.38-3.62,0.57c-0.75,0.19-1.82,0.58-2.38,1.13    c-0.66,0.11-2.52,0.65-2.94,1.13c-0.57,0.19-1.13,0.38-1.7,0.57c-0.49,0.19-0.98,0.38-1.47,0.57c-0.48,0.22-0.92,0.4-1.45,0.46    c-0.47,0.2-0.94,0.39-1.41,0.59c-0.54,0.09-0.88-0.11-1.33-0.37c-0.8,0-1.37-0.29-2.14-0.41c-0.24,0.14-0.75-0.04-1.02-0.1    c-0.64-0.06-1.29-0.12-1.93-0.17c-0.22-0.11-0.45-0.23-0.67-0.34c-0.54-0.11-1.5-0.35-1.94-0.68c-2.24-0.14-4.46-0.47-6.56-1.38    c-0.91-0.39-1.78-0.62-2.5-1.34c-0.45,0-1.25-0.94-1.25-1.36c-0.11-0.19-0.23-0.38-0.34-0.57c-0.49-0.53-0.98-1.06-1.47-1.58    c-0.32,0-1.26-0.65-1.26-0.65c-0.46,1.15-0.07,2.39-0.1,3.59c-0.06,2.17-0.81,4.81-2.26,6.45c-0.64,0.72-0.85,1.7-1.7,2.27    c-0.49,0.32-1.25,0.29-1.81,0.36c-0.34,0.07-0.68,0.14-1.02,0.2c-0.38-0.04-0.75-0.08-1.13-0.11c-0.68,0.06-1.36,0.12-2.04,0.17    c-0.34-0.01-0.67-0.02-1.01-0.02c-2.95,0.69-5.9,1.38-8.85,2.08c-1.73,0.24-3.47,0.47-5.21,0.71c-0.68,0-1.35,0-2.03,0    c-0.87,0.16-1.74,0.31-2.61,0.47c-1.17,0.07-2.34,0.14-3.51,0.22c-0.38-0.04-0.75-0.08-1.13-0.13c-1.08-0.1-2.22-0.22-3.29,0.03    c-0.75,0.22-1.5,0.44-2.25,0.66c-0.23,0.23-0.46,0.45-0.68,0.68c-0.28,0.7-0.59,1.95-0.04,2.4c0.98,0.75,1.59,1.21,2.31,2.24    c0.75,1.06,0.49,3.7,0.42,4.98c-0.02,0.51-0.28,1.5,0.03,1.93c-0.05,0.48-0.11,0.97-0.16,1.45c0,0.34-0.01,0.68-0.01,1.03    c0.07,0.42,0.14,0.84,0.22,1.26c0.44,2.08,1.02,4.09,0.92,6.23c-0.03,0.64-0.27,1.1-0.4,1.7c-0.11,1.47-0.23,2.94-0.34,4.42    c-0.15,0.49-0.3,0.98-0.45,1.47c-0.79,0.72-1.59,1.44-2.38,2.15c-0.6,0.11-1.21,0.23-1.81,0.34c-0.78,0.83-1.04,1.9-2,2.59    c-0.46,0.27-0.93,0.54-1.39,0.81c-0.25-0.01-1.07-0.15-1.17,0.1c-0.25,0.61-0.5,1.22-0.75,1.83c-0.26,0.38-0.53,0.76-0.79,1.13    c-0.49,0.72-0.98,1.43-1.47,2.15c-0.11,0.98-0.23,1.96-0.34,2.94c-0.27,1.87-0.82,3.73-0.71,5.65c0.04,0.65,0.39,2.76,0.82,3.19    c0.42,1.32,0.83,2.64,1.25,3.96c0.73,1.83-0.4,3.8,1.34,5.32c0.13,0.17,0.25,0.33,0.38,0.5c0.37,0.14,0.74,0.27,1.11,0.41    c0.78,0.05,1.49-0.06,2.26-0.11c0.42,0,0.83,0,1.25,0c1.18-0.41,2.36-0.82,3.54-1.24c0.94-0.15,1.87-0.3,2.81-0.45    c0,0,1.24,0.21,1.24,0.21c0.57,0,1.13,0,1.7,0c1.06-0.12,2.12-0.25,3.18-0.37c0.75-0.1,1.51-0.21,2.26-0.31    c0.87,0.04,1.73,0.08,2.6,0.12c1.52,0.12,3.13,0.4,4.63,0.05c0.65-0.06,1.29-0.11,1.94-0.17c1.14-0.26,2.85-2.15,3.85-2.15    c1.3-0.98,3.02-2.52,3.96-3.85c0.39-0.39,0.77-0.78,1.16-1.16c0.42-0.77,1.32-1.58,2-2.14c0.99-0.81,2.82-2.06,3.98-2.47    c1.02-0.63,2.04-1.25,3.05-1.88c2.06-1.09,4.24-1.56,6.57-1.63c0.83,0.12,1.66,0.23,2.48,0.35c1.08,0.16,2.26,0.25,3.29,0.67    c1.02,0.26,2.04,0.53,3.06,0.79c1.5,0.51,3.01,1.01,4.51,1.52c1.59,0.74,3.18,1.48,4.78,2.22c0.77,0.51,1.92,1.02,1.92,2.04    c1.2,0.42,2.41,0.85,3.61,1.27c0.68,0.22,1.37,0.43,2.05,0.65c2.08,0.77,4.17,1.53,6.26,2.3c0.68,0.27,1.4,0.37,1.9,0.87    c0-0.08,0-0.15,0-0.23C199.6,377.53,199.48,377.52,199.71,375.41z"/>
            <circle cx="172.33" cy="337.05" r="1.586"/>
        </g>
        <g id="__Tekman">
            <path d="    M236.02,393.9c-2.11,0.85-3.81-0.26-6.07-0.15c-1.58,0.07-3.17,0.14-4.76,0.21c-0.64-0.01-1.29-0.01-1.93-0.02    c-2.62,0.51-5.26,1.06-7.93,0.71c-1.55-0.26-3.1-0.51-4.65-0.77c-0.52-0.13-1.05-0.26-1.57-0.4c-1.13-0.26-2.27-0.53-3.4-0.79    c-0.28-0.28-0.73-0.39-1.13-0.45c-0.72-0.11-2.22-0.46-2.65-0.99c-0.3-0.38-1.31-1.86-1.31-2.3c-0.88-1.13-1.69-2.31-2.04-3.74    c0.22-0.22,0.21-0.82,0.23-1.13c0.07-0.79,0.14-1.58,0.21-2.37c0.23-2.1,0.47-4.21,0.7-6.32c0.24-0.31,0.23-0.89,0.23-1.28    c0.08-0.45,0.17-0.9,0.25-1.34c0.03-0.72,0.07-1.44,0.1-2.17c-0.01-0.35,0-0.64-0.35-0.79c-0.22-0.76-0.44-1.52-0.66-2.27    c-0.27-0.98-0.54-1.96-0.81-2.94c-0.54-1.13-1.09-2.27-1.63-3.4c-0.15-0.38-0.3-0.77-0.45-1.15c-0.06-0.29-0.13-0.59-0.19-0.88    c0.26-2.74,1.36-5.35,1.92-8.04c0.11-0.75,0.23-1.51,0.34-2.26c0.6-2.31,1.21-4.63,1.81-6.94c0.24-0.85,0.47-1.7,0.71-2.55    c0.73-1.51,1.83-2.86,2.91-4.09c0.98-1.33,1.95-2.65,2.93-3.98c0.63-0.8,1.26-1.61,1.89-2.41c0.69-1.16,1.38-2.32,2.07-3.48    c0.5-1.05,1-2.1,1.49-3.15c0.53-0.87,1.06-1.74,1.59-2.6c0.2-0.71,0.4-1.43,0.6-2.14c0.66-1.77,1.32-3.55,1.97-5.32    c0.3-0.8,0.56-2.59,1.16-3.18c0.13-0.64,0.25-1.28,0.38-1.91c0.21-0.53,0.43-1.06,0.64-1.6c0.12-0.72,0.25-1.43,0.37-2.15    c0.67-2.36,1.25-4.42,2.68-6.11c0.63-0.74,1.53-1.4,2.5-2c2.89-1.79,5.31,0.05,7.08,2.27c0.47,0.51,0.94,1.02,1.4,1.53    c1.33,0.88,2.58,1.8,4.08,2.38c0.73,0.28,1.97-0.03,2.49,0.68c1.06-0.15,2.11-0.3,3.17-0.45c1.58-0.68,3.17-1.36,4.76-2.04    c0.27-0.19,0.54-0.37,0.8-0.56c2.44-2.01,4.22-2.07,7.23-1.59c0.76,0.11,1.51,0.22,2.27,0.33c1.66,0.02,3.31,0.04,4.97,0.06    c1.06,0.25,2.12,0.49,3.18,0.74c0.49,0,0.98,0,1.47,0.01c1.13,0.11,2.17,0.72,3.29,0.56c0.91,0.42,1.81,0.83,2.72,1.25    c1.08,0.23,2.4,0.46,3.51,0.34c0.87-0.08,1.74-0.15,2.6-0.23c1.31-0.73,2.94-1.12,4.42-1.36c0.87-0.53,1.74-1.06,2.6-1.59    c0.79-0.34,1.58-0.68,2.37-1.02c0.24-0.08,0.61-0.3,0.8-0.12c0.34,0.32,0.13-0.27,0.45-0.11c1.61,1.3,2.6,3.05,3.51,4.88    c0.32,0.64,0.91,1.49,0.68,2.26c0.13,0.49,0.47,1.45,0.23,1.92c0.2,0.49,0.4,0.99,0.6,1.48c0.53,0.29,0.87,1.37,1.01,1.94    c0.35,1.38,0.43,2.76,0.54,4.16c0.08,0.38,0.15,0.75,0.23,1.13c0.02,0.56,0.04,1.12,0.06,1.68c0.15,0.83,0.45,2.54,0.96,3.19    c0.33,1.55,0.65,3.11,0.98,4.66c0.11,0.63,0,1.18-0.07,1.79c0.04,0.68,0.08,1.36,0.12,2.03c0.04,2.59,0.7,4.94,1.47,7.36    c0.08,0.38,0.15,0.75,0.23,1.13c0.19,0.4,0.59,0.44,0.57,0.91c0.18-0.04,0.36-0.07,0.54-0.11c0.56-0.13,1.22-0.76,1.7-0.55    c0.32,0.15,0.35,0.3,0.71,0.2c0.03,0.07,0.06,0.15,0.1,0.22c0.61,1.42,0.9,2.87,0.92,4.42c0.03,1.97-0.32,3.81,0.6,5.63    c0.29,0.54,0.59,1.08,0.88,1.61c0.83,0.59,1.72,1.25,2.32,2.07c0.22,0.29,0.53,0.6,0.48,0.97c-0.03,0.95-0.05,1.89-0.08,2.84    c-0.23,0.6-0.45,1.2-0.68,1.8c-0.21,0.52,0.24,1.51-0.45,1.57l-0.35-0.13c-0.56-0.41-1.26-0.86-1.47-0.86    c-1.36-0.79-2.72-1.59-4.08-2.38c-1.34-0.79-3.93-2.49-4.25-2.69c-1.34-0.63-2.33-1.23-3.68-2.3c-0.79-0.38-1.58-0.76-2.38-1.13    c-1.09-0.94-2.19-1.89-3.28-2.83c-0.26-0.08-0.54-0.09-0.68-0.34c-1.02,0.08-2.04,0.15-3.06,0.23c-0.97,0.09-1.95,0.19-2.92,0.28    c-0.48,0.2-0.96,0.41-1.43,0.61c-1.29,0.98-1.46,3.07-1.86,4.52c-0.27,0.88-0.54,1.75-0.8,2.63c-0.18,1.32-0.48,2.34-0.78,3.62    c-0.18,0.8-0.23,2.5-0.81,3.06c-0.27,1.39-0.62,2.52-1.65,3.55c-0.61,0.61-1.25,1.09-1.96,1.56c-0.23,0.15-0.46,0.29-0.69,0.44    c-0.8,0.62-1.55,1.19-2.49,1.59c-1.32,0.53-2.64,1.06-3.96,1.58c-0.69-0.11-1.39-0.22-2.08-0.33c-1.16-0.42-2.09-1.05-3.35-1.14    c-1.41,0.7-2.99,1.22-4.3,2.15c-0.3,0.26-0.6,0.53-0.91,0.79c-0.75,0.4-1.59,0.5-2.33,0.98c-1.07,0.8-2.15,1.61-3.22,2.41    c-0.23,0.75-0.45,1.51-0.68,2.26c-0.22,0.77-0.17,1.58-0.68,2.26c-0.49,0.83-0.98,1.66-1.47,2.49c-0.39,0.58-0.78,1.16-1.16,1.74    c-0.68,1.18-1.4,2.29-2.13,3.46c-0.54,0.78-1.07,1.57-1.61,2.35c-1.15,1.49-2.3,2.98-3.45,4.47c-0.32,0.4-0.93,1.17-1.16,1.65    L236.02,393.9z"/>
            <circle cx="260.08" cy="329.5" r="1.586"/>
        </g>
        <g id="__Hınıs">
            <path d="    M297.83,351.52c-1.34-0.63-2.33-1.23-3.68-2.3c-0.79-0.38-1.58-0.76-2.38-1.13c-1.09-0.94-2.19-1.89-3.28-2.83    c-0.26-0.08-0.54-0.09-0.68-0.34c-1.02,0.08-2.04,0.15-3.06,0.23c-0.97,0.09-1.95,0.19-2.92,0.28c-0.48,0.2-0.96,0.41-1.43,0.61    c-1.29,0.98-1.46,3.07-1.86,4.52c-0.27,0.88-0.54,1.75-0.8,2.63c-0.18,1.32-0.48,2.34-0.78,3.62c-0.18,0.8-0.23,2.5-0.81,3.06    c-0.27,1.39-0.62,2.52-1.65,3.55c-0.61,0.61-1.25,1.09-1.96,1.56c-0.23,0.15-0.46,0.29-0.69,0.44c-0.8,0.62-1.55,1.19-2.49,1.59    c-1.32,0.53-2.64,1.06-3.96,1.58c-0.69-0.11-1.39-0.22-2.08-0.33c-1.16-0.42-2.09-1.05-3.35-1.14c-1.41,0.7-2.99,1.22-4.3,2.15    c-0.3,0.26-0.6,0.53-0.91,0.79c-0.75,0.4-1.59,0.5-2.33,0.98c-1.07,0.8-2.15,1.61-3.22,2.41c-0.23,0.75-0.45,1.51-0.68,2.26    c-0.22,0.77-0.17,1.58-0.68,2.26c-0.49,0.83-0.98,1.66-1.47,2.49c-0.39,0.58-0.78,1.16-1.16,1.74c-0.68,1.18-1.4,2.29-2.13,3.46    c-0.54,0.78-1.07,1.57-1.61,2.35c-1.15,1.49-2.3,2.98-3.45,4.47c-0.32,0.4-0.93,1.17-1.16,1.65c1.85,0.24,4.37,0.41,6.22,0.65    c1.9,0.64,3.8,1.28,5.7,1.92c2.94,0.86,5.8,1.91,8.49,3.43c0.75,0.47,1.5,0.93,2.24,1.4c0.79,0.72,1.58,1.43,2.38,2.15    c1.31,1.67,2.4,3.5,3.86,5.08c0.35,0.38,0.7,0.76,1.05,1.15c1.79,1.39,2.85,1.5,5.05,1.61c0.66,0.03,2,0.01,2.31,0.75    c0.81,1.76,0.5,3.42,0.41,5.34c-0.15,3.48,0.01,7.61,0.79,10.98c0.34,0.6,0.68,1.21,1.02,1.81c0.61,0.76,1.46,1.39,2.26,1.93    c0.38,0.15,0.75,0.3,1.13,0.45c0.76,0.4,1.89,0.42,2.72,0.34c6.57-0.57,13.14-1.13,19.7-1.7c1.13-0.23,2.27-0.45,3.4-0.68    c0.91-0.36,1.82-0.71,2.73-1.07c1.06-0.22,2.12-0.44,3.17-0.65c0.86-0.06,1.73-0.13,2.59-0.19c0.47,0.01,0.94,0.02,1.4,0.04    c0.44-0.01,0.88-0.03,1.32-0.04c0.83-0.17,1.65-0.34,2.48-0.51c0.83-0.13,1.67-0.27,2.5-0.4c0-0.19,0-0.38,0-0.57    c0.19-0.39,0.37-2.28,0.11-2.6c0.14-0.55,0.27-2.56,0.11-3.06c0.11-1.02,0.23-2.04,0.34-3.06c0.04-0.34,0.08-0.68,0.11-1.02    c0.11-0.15,0.23-0.3,0.34-0.45c0.5-1.27,1.08-2.32,2.27-3.06c0.53-0.26,1.05-0.53,1.58-0.79c0.16-0.08,0.45-0.15,0.45-0.34    c0.2-0.2,0.64-0.53,0.91-0.45c0.2-0.21,0.4-0.42,0.6-0.62c0.13-0.15,0.43-0.31,0.4-0.51c-0.23-1.86-2.05-2.64-3.36-3.67    c-0.66-0.52-1.54-1.23-1.44-2.12c0.09-0.73,0.11-1.42,0.28-2.14c0.42-1.02,0.83-2.04,1.25-3.06c0.07-0.25,0.26-0.69,0.11-0.9    c0.27-0.87,0.54-1.74,0.81-2.61c0.14-0.72,0.29-1.43,0.43-2.15c0.09-1.17,0.19-2.34,0.28-3.5c0.25-1.29,0.49-2.57,0.74-3.86    c0.25-0.65,0.5-1.29,0.74-1.94c0.56-1.66,1.12-3.32,1.68-4.98c0.36-2.2,0.46-4.46-0.01-6.67c-0.15-0.7-0.25-1.91-0.45-2.06    c-0.72-0.48-1.81-0.69-2.65-0.82c-0.3-0.05-0.74-0.2-1.01-0.06c-0.4-0.11-1.38-0.4-1.7-0.11c-1.12-0.57-2.33-1.04-3.51-1.36    c-0.39-0.1-0.72-0.53-1.13-0.45c-0.79-0.57-1.59-1.13-2.38-1.7c-2.11-1.77-4.23-3.55-6.34-5.32c-1.01-1.29-2.02-2.59-3.03-3.88    c-0.29-0.31-1.84-1.44-2.18-1.44c-1.36-0.79-2.72-1.59-4.08-2.38C300.73,353.41,298.14,351.71,297.83,351.52z"/>
            <circle cx="294.29" cy="391.19" r="1.586"/>
        </g>
        <g id="__Karaçoban">
            <path d="    M321.78,427.92c0-0.19,0-0.38,0-0.57c0.19-0.39,0.37-2.28,0.11-2.6c0.14-0.55,0.27-2.56,0.11-3.06c0.11-1.02,0.23-2.04,0.34-3.06    c0.04-0.34,0.08-0.68,0.11-1.02c0.11-0.15,0.23-0.3,0.34-0.45c0.5-1.27,1.08-2.32,2.27-3.06c0.53-0.26,1.05-0.53,1.58-0.79    c0.16-0.08,0.45-0.15,0.45-0.34c0.2-0.2,0.64-0.53,0.91-0.45c0.2-0.21,0.4-0.42,0.6-0.62c0.13-0.15,0.43-0.31,0.4-0.51    c-0.23-1.86-2.05-2.64-3.36-3.67c-0.66-0.52-1.54-1.23-1.44-2.12c0.09-0.73,0.11-1.42,0.28-2.14c0.42-1.02,0.83-2.04,1.25-3.06    c0.07-0.25,0.26-0.69,0.11-0.9c0.27-0.87,0.54-1.74,0.81-2.61c0.14-0.72,0.29-1.43,0.43-2.15c0.09-1.17,0.19-2.34,0.28-3.5    c0.25-1.29,0.49-2.57,0.74-3.86c0.25-0.65,0.5-1.29,0.74-1.94c0.56-1.66,1.12-3.32,1.68-4.98c0.36-2.2,0.46-4.46-0.01-6.67    c-0.15-0.7-0.25-1.91-0.45-2.06l0.41-0.18c1.59,0.37,3.28,0.88,4.88,0.88c0.59,0.59,1.64,0.49,2.38,0.68    c0.92,0.24,1.65,0.71,2.61,0.87c0.22,0.04,0.55-0.21,0.8-0.37c0.59-0.38,0.5-1.43,0.56-2.04c0.18-1.68-0.77-3.7,0.17-5.29    c0.17-0.27,0.87-0.69,1.2-0.63c0.86-0.25,1.72-0.5,2.59-0.74c0.34-0.06,0.68-0.13,1.03-0.19c0.41,0.04,0.83,0.07,1.25,0.11    c2.88-0.63,5.65-0.22,8.49,0.23c0.46,0.25,0.93,0.5,1.39,0.74c0.52,0.31,0.27,2.37,0.31,2.99c0.15,1.06,0.3,2.11,0.45,3.17    c-0.08,1.47-0.15,2.94-0.23,4.42c-0.28,0.54-0.56,1.07-0.85,1.61c-0.17,0.53,0.17,1,0.59,1.5c0.28,0.33,0.64,0.46,1.04,0.64    c1.42,0.66,2.55,0.39,4.08,0.44c0.72-0.19,1.43-0.38,2.15-0.57c0.58-0.56,1.17-1.12,1.75-1.68c0.32-0.42,0.65-0.84,0.97-1.26    c0.07-0.34,0.14-0.68,0.22-1.02c0.34-0.9,0.69-1.81,1.03-2.71c0.83-1.13,1.66-2.27,2.49-3.4c0.72-0.45,1.43-0.91,2.15-1.36    c2.36-0.55,5.62,0.84,7.82,1.76c0.66,0.28,1.41,0.62,2.14,0.62c0.04,0.11-0.84,0.65-1.04,0.75c-0.97,0.62-1.95,1.24-2.92,1.85    c-0.45,0.3-0.91,0.6-1.36,0.91c-1.19,1.04-2.38,2.07-3.57,3.11c-0.21,0.32-0.41,0.64-0.62,0.97c-0.79,0.75-1.73,2.06-2.08,3.13    c-0.14,0.28-0.28,0.56-0.42,0.84c-0.11,0.15-0.22,0.3-0.33,0.45c-0.12,0.46-0.23,0.91-0.35,1.37c0.04,0.25,0.08,0.49,0.12,0.74    c-0.04,0.51-0.08,1.01-0.12,1.52c0.1,0.37,0.19,0.74,0.29,1.11c0.28,0.53,0.56,1.07,0.84,1.6c0.35,0.41,0.7,0.81,1.05,1.22    c1.1,1.33,1.87,2.79,1.67,4.55c-0.15,1.34-1.14,2.57-1.92,3.62c-0.39,0.56-0.77,1.13-1.16,1.69c-0.29,0.38-0.58,0.76-0.88,1.14    c-0.94,0.18-1.53,0.98-2.27,1.47c-0.64,0.35-1.27,0.71-1.91,1.06c-0.93,0.49-1.71,1.16-2.74,1.43c-0.19,0-0.38-0.01-0.57-0.01    c-0.11,0.04-0.22,0.08-0.34,0.12c-0.23-0.04-0.45-0.08-0.68-0.11c-0.34,0.08-0.68,0.15-1.02,0.23c-0.64-0.1-1.29-0.2-1.94-0.3    c-0.56-0.09-1.13-0.18-1.69-0.27c-0.83,0.11-1.66,0.23-2.49,0.34c-0.44-0.15-1.05,0.08-1.47,0.23c-0.19,0.18-0.38,0.37-0.58,0.56    c-0.41,0.76-0.82,1.52-1.24,2.28c-0.53,0.54-0.58,1.68-0.69,2.38c-0.03,0.68-0.05,1.35-0.08,2.03c-0.08,0.53-0.17,1.06-0.25,1.59    c0.04,0.34,0.08,0.68,0.11,1.02c-0.6,0.72-0.88,1.47-1.73,1.99c-0.68,0.41-1.95,0.12-2.69,0.16c-1.07,0.07-2.18,0.41-3.06,1.02    c-0.53,0.19-1.06,0.38-1.59,0.57c-0.65,0.44-1.3,0.88-1.95,1.32c-1.18,0.89-2.29,1.83-3.62,2.49c-0.6,0.2-1.2,0.4-1.79,0.61    c-1.39,0.42-2.79,0.83-4.18,1.25c-0.3,0.05-0.6,0.09-0.9,0.14c-1.17,0.37-2.34,0.74-3.52,1.11c-0.34,0.19-0.68,0.37-1.02,0.56    c-0.79,0.3-1.59,0.6-2.38,0.91L321.78,427.92z"/>
            <circle cx="355.74" cy="393.31" r="1.586"/>
        </g>
        <g id="__Karayazı">
            <path d="    M383.94,370.96c-0.73,0-1.48-0.34-2.14-0.62c-2.2-0.92-5.46-2.31-7.82-1.76c-0.72,0.45-1.44,0.91-2.15,1.36    c-0.83,1.13-1.66,2.26-2.49,3.4c-0.34,0.9-0.69,1.81-1.03,2.71c-0.07,0.34-0.14,0.68-0.22,1.02c-0.32,0.42-0.65,0.84-0.97,1.26    c-0.58,0.56-1.17,1.12-1.75,1.68c-0.72,0.19-1.43,0.38-2.15,0.57c-1.53-0.05-2.66,0.22-4.08-0.44c-0.4-0.19-0.76-0.31-1.04-0.64    c-0.42-0.5-0.76-0.98-0.59-1.5c0.28-0.54,0.56-1.07,0.85-1.61c0.08-1.47,0.15-2.94,0.23-4.42c-0.15-1.06-0.3-2.11-0.45-3.17    c-0.04-0.62,0.21-2.68-0.31-2.99c-0.46-0.25-0.93-0.5-1.39-0.74c-2.84-0.44-5.62-0.86-8.49-0.23c-0.42-0.04-0.83-0.08-1.25-0.11    c-0.34,0.06-0.68,0.12-1.03,0.19c-0.86,0.25-1.72,0.5-2.59,0.74c-0.32-0.06-1.03,0.36-1.2,0.63c-0.94,1.58,0.01,3.61-0.17,5.29    c-0.07,0.62,0.03,1.66-0.56,2.04c-0.25,0.15-0.57,0.4-0.8,0.37c-0.96-0.16-1.68-0.63-2.61-0.87c-0.74-0.19-1.79-0.09-2.38-0.68    c-1.6,0-3.28-0.51-4.88-0.88l-0.41,0.18c-0.72-0.48-1.81-0.69-2.65-0.82c-0.3-0.05-0.74-0.2-1.01-0.06    c-0.4-0.11-1.38-0.4-1.7-0.11c-1.12-0.57-2.33-1.04-3.51-1.36c-0.39-0.1-0.72-0.53-1.13-0.45c-0.79-0.57-1.59-1.13-2.38-1.7    c-2.11-1.77-4.23-3.55-6.34-5.32c-1.01-1.29-2.02-2.59-3.03-3.88l-0.36-0.45c0.69-0.06,0.24-1.05,0.45-1.57    c0.23-0.6,0.45-1.2,0.68-1.8c0.03-0.95,0.05-1.89,0.08-2.84c0.05-0.37-0.26-0.68-0.48-0.97c-0.6-0.82-1.49-1.49-2.32-2.07    c-0.29-0.54-0.58-1.08-0.88-1.61c-0.91-1.83-0.57-3.66-0.6-5.63c-0.02-1.55-0.31-3-0.92-4.42c-0.03-0.07-0.06-0.15-0.1-0.22    c-0.36,0.1-0.39-0.06-0.71-0.2c-0.48-0.21-1.14,0.41-1.7,0.55c-0.18,0.04-0.36,0.07-0.54,0.11c0.03-0.47-0.38-0.51-0.57-0.91    c-0.08-0.38-0.15-0.75-0.23-1.13c-0.77-2.43-1.42-4.77-1.47-7.36c-0.04-0.68-0.08-1.36-0.12-2.03c0.07-0.62,0.18-1.17,0.07-1.79    c-0.16-0.76-0.32-1.51-0.48-2.27l0.29,0.21c0-0.27,0.78-0.25,1.01-0.28c1.02-0.13,2.02-0.51,2.84-1.19    c0.45-0.38,0.91-0.76,1.36-1.13c0.45-0.49,0.91-0.98,1.36-1.47c0.38-0.3,0.76-0.6,1.13-0.91c0.34-0.15,0.68-0.3,1.02-0.45    c0.63,0.07,1.27,0.15,1.9,0.22c0.42,0.15,0.84,0.3,1.27,0.46c0.59,0.04,1.18,0.08,1.77,0.12c1.23,0,2.5-0.31,3.56-0.92    c0.32-0.78,1.55-1.02,2.27-1.33c1.19-0.53,2.46-0.8,3.59-1.45c0.76-0.58,1.53-1.16,2.29-1.74c0.08-0.42,0.58-0.81,0.83-1.16    c0.17-0.33,0.35-0.66,0.52-0.99c-0.3-0.57,0.65-2.62,0.79-3.28c0.53-2.51,1.68-4.67,3.41-6.57c0.37-0.6,0.75-1.21,1.12-1.81    c0.45-0.38,0.91-0.75,1.36-1.13c2.78,0,5.62-0.4,8.38,0.11c0.57-0.04,1.13-0.08,1.7-0.11c1.78-0.13,3.66,0.45,5.32,1.02    c0.98,0.34,2.01,0.58,3.05,0.44c0.51-0.59,2.4-0.76,2.95-0.21c1.26-0.79,2.77-1.57,3.66-2.76c0.64-0.86,0.94-2.03,1.32-3.01    l0.57-0.45c1.53,0.12,3.16-0.3,4.61-0.79c0.92-0.38,1.83-0.76,2.75-1.14c0.68-0.01,1.36-0.02,2.03-0.03    c1.13-0.1,2.27-0.21,3.4-0.31c1.7,0,3.4,0,5.1,0c0.45-0.03,0.89-0.06,1.34-0.09c0.79-0.12,1.47-0.39,2.28-0.44    c1.28-0.08,2.64,0.53,3.86,0.87c0.34,0.19,0.68,0.38,1.02,0.57c1.09,0.62,1.7,0.9,2.98,0.57l-0.26,0.23    c0.37,0.78,0.74,1.56,1.11,2.33c0.35,0.58,0.71,1.17,1.06,1.75c0.26,0.41,0.51,0.82,0.77,1.23c0.35,0.4,0.7,0.8,1.05,1.2    c0.81,0.74,1.63,1.47,2.45,2.21c1,1,2.01,1.99,3.01,2.99c1.19,1.08,2.38,2.15,3.57,3.23c0.6,0.53,1.21,1.06,1.81,1.59    c0.76,1.06,2.05,1.94,3.17,2.6c0.24,0.33,0.47,0.66,0.71,0.99c0.75,0.73,1.49,1.45,2.24,2.18c1.85,1.48,3.69,2.95,5.42,4.54    c0.53,0.5,1.06,1,1.59,1.5c0.42,0.4,0.84,0.8,1.25,1.2c1.02,0.98,1.98,2.05,3.17,2.83c0.49,0.18,0.97,0.35,1.46,0.53    c1.02,0.55,2.15,0.86,3.07,1.62c0.21,0.39,0.42,0.77,0.63,1.16c0.55,1.14,0.92,2.37,1.11,3.62c0.7,4.6-1.7,8.93-4.45,12.43    c-0.26,0.42-0.51,0.85-0.77,1.27c-0.76,0.97-1.52,1.95-2.29,2.92c-0.2,0.19-1.13,0.97-1.13,1.16c-0.26,0.37-0.53,0.74-0.79,1.1    c-0.68,0.38-1.36,0.76-2.04,1.13c-1.11,1.12-2.21,2.24-3.32,3.36c-0.52,0.32-1.03,0.63-1.55,0.95c-0.87,0.79-1.35,1.89-2.15,2.72    c-1,0.92-2,1.85-3,2.77c-0.7,0.61-2.24,0.42-3.23,0.32c-1.71-0.18-3.56-0.08-5.2,0.41c-0.42,0.3-0.83,0.6-1.25,0.91    c-2.58,3.75-6.29,6.74-10.36,8.77c-0.32,0.13-0.64,0.27-0.97,0.4H383.94z"/>
            <circle cx="364.94" cy="317.23" r="1.586"/>
        </g>
        <g id="__Horasan">
            <path d="    M394.81,217.76c1-0.08,1.93-0.23,2.94-0.11c3.02,0.34,6.88,2.42,8.88,4.69c0.55,0.7,1.1,1.4,1.65,2.1    c0.41,0.81,0.83,1.62,1.24,2.43c0.5,0.81,1.05,1.48,1.71,2.09c0.53,1.43,1.06,2.87,1.59,4.3c0.2,0.38,0.98,1.69,0.9,2.04    c0.26,0.53,0.53,1.06,0.79,1.59c0.13,0.64,0.26,1.27,0.4,1.91c0.28,0.8,0.57,1.6,0.85,2.4c0.34,0.53,0.68,1.06,1.02,1.58    c2.28,1.88,4.36,3.89,7.02,5.21c0.72,0.45,1.43,0.91,2.15,1.36c1.17,0.98,2.34,1.96,3.51,2.94c0.38,0.38,0.75,0.75,1.13,1.13    c0.72,1.32,1.43,2.64,2.15,3.96c0.46,0.67,0.75,2.44,0.93,3.28c0.58,2.67,1.11,5.21,0.66,7.93c-0.87-0.14-1.82,0.22-2.72,0.38    c-1.46,0.24-2.92,0.49-4.37,0.73c-0.66,0.28-1.33,0.56-1.99,0.84c-1.84,0.38-3.68,0.75-5.52,1.13c-1.33,0.55-2.58,1.13-3.83,1.87    c-0.36,0.22-1.03,0.88-1.38,0.84c-0.34,0.34-0.68,0.68-1.02,1.02c-1.11,1.46-2.66,2.8-4.19,3.74c-1.05,0.24-2.1,0.47-3.16,0.71    c-0.41,0.15-1.3,0.63-1.37,0.88c-0.57,0.28-1.19,0.28-1.81,0.34c-0.59,0.29-1.18,0.58-1.77,0.86c-1.52,0.92-3.05,1.83-4.57,2.75    c-0.46,0.13-1.03,0.5-1.47,0.35c-0.42,0.42-0.83,0.83-1.25,1.25c-0.42,0.16-0.83,0.33-1.25,0.49c-0.99,0.52-2.08,0.92-2.94,1.66    c-0.66,0.57-0.47,2.02-1.55,2.38c-1.28,0.33-1.89,0.05-2.98-0.57c-0.34-0.19-0.68-0.38-1.02-0.57c-1.22-0.34-2.57-0.95-3.86-0.87    c-0.81,0.05-1.49,0.32-2.28,0.44c-0.45,0.03-0.89,0.06-1.34,0.09c-1.7,0-3.4,0-5.1,0c-1.13,0.1-2.27,0.21-3.4,0.31    c-0.68,0.01-1.36,0.02-2.03,0.03c-0.92,0.38-1.83,0.76-2.75,1.14c-1.45,0.48-3.09,0.91-4.61,0.79c-0.87,0.07-1.74,0.13-2.6,0.2    c-2.38-0.15-4.82-0.64-6.72-2.07c-0.82-0.61-1.63-0.92-1.8-1.99c-0.21-1.66,0.35-3.22,0.15-4.74c0.11-0.42,0.23-0.83,0.34-1.25    c0-1.06,0-2.11,0-3.17c0.11-1.79-1.13-3.92-1.81-5.55c-0.45-1.08-0.56-2.26-0.79-3.4c-0.23-0.73-0.46-1.46-0.69-2.19    c-0.12-1.16-0.97-3.17-1.5-4.25c-0.42-0.85-1-1.52-1.55-2.27c-0.15-0.3-0.3-0.6-0.45-0.91c-0.33-0.38-0.66-0.76-0.99-1.14    c-0.2-0.22-0.4-0.45-0.59-0.67c-0.6-1.21-1.21-2.42-1.81-3.62c-0.23-0.38-0.45-0.75-0.68-1.13c0-0.61-0.77-1.99-1.13-2.49    c-0.87-2.04-1.74-4.08-2.6-6.12c-0.53-0.75-1.06-1.51-1.59-2.26c-0.33-0.46-0.66-0.92-0.99-1.37c-0.96-0.92-1.3-2.4-1.45-3.73    c-0.2-1.28-0.41-2.57-0.61-3.85c-0.23-0.64-0.46-1.28-0.68-1.92c-0.95-2-1.9-4-2.84-6c-0.49-0.87-0.97-1.74-1.46-2.61    c-0.23-0.3-0.45-0.6-0.68-0.91c0.04-0.04,0.08-0.08,0.11-0.11c0.41-0.15,0.83-0.31,1.24-0.46c0.81-0.33,3.03-1.27,3.51-1.91    c0.31-0.22,0.61-0.44,0.92-0.67c0.54-0.47,1.09-0.95,1.63-1.42c0.34-0.4,0.68-0.81,1.01-1.21c1.05-0.82,1.83-2.32,2.22-3.61    c0.33-0.8,0.67-1.6,1-2.4c0.77-2.04,1.47-4.08,2.42-6.04c0.07-0.25,0.14-0.49,0.21-0.74c0.65-1.06,1.31-2.03,2.13-2.95    c0.21-0.23,0.42-0.45,0.63-0.68c0.85-0.59,1.69-1.18,2.54-1.77c0.5-0.16,0.99-0.33,1.49-0.49c0.45,0,0.91,0,1.36,0    c0.53-0.19,1.06-0.38,1.58-0.57c0.26,0.04,0.53,0.08,0.79,0.11c0.81,0.09,1.87-0.33,2.31-0.99c0.65-1,1.47-2.4,2.33-3.2    c0.32-0.24,0.64-0.47,0.96-0.71c0.29-0.14,0.57-0.28,0.86-0.42c0.53-0.04,1.06-0.08,1.59-0.11c1.02,0.29,2.1,1.13,3.17,1.13    c0.57,0.57,1.71,0.84,2.49,0.68c0-0.05,1.1,0.51,1.36,0.68c0.3,0.53,0.6,1.06,0.9,1.59c0.08,0.19,0.16,0.37,0.24,0.56    c0.39,0.32,1.12,0.75,1.25,1.25c0.33,0.21,0.65,0.42,0.98,0.63c0.53,0.56,1.07,1.11,1.6,1.67c0.33,0.25,0.65,0.5,0.98,0.75    c0.63,0.27,1.25,0.54,1.88,0.8c0.26,0.18,0.61,0.48,0.68,0.79c1.64,0.91,3.58,3,5.42,3.19c0.27,0.21,0.59,0.38,0.92,0.32    c0.86,1.02,2.25,2.35,3.74,2.03c0.57,0.6,1.72,0.46,2.49,0.47c0.64,0.04,1.29,0.07,1.93,0.11c1.06,0.6,2.11,1.21,3.17,1.81    c0.53,0.91,1.06,1.81,1.59,2.72c0.12,0.33,0.24,0.67,0.36,1c0.36,0.93,0.86,1.9,1.68,2.51    C393.27,216.79,394.36,217.79,394.81,217.76z"/>
            <circle cx="368.95" cy="245.64" r="1.586"/>
        </g>
        <g id="__Köprüköy">
            <path d="    M358.81,291.58c-0.87,0.07-1.74,0.13-2.6,0.2c-2.38-0.15-4.82-0.64-6.72-2.07c-0.82-0.61-1.63-0.92-1.8-1.99    c-0.21-1.66,0.35-3.22,0.15-4.74c0.11-0.42,0.23-0.83,0.34-1.25c0-1.06,0-2.11,0-3.17c0.11-1.79-1.13-3.92-1.81-5.55    c-0.45-1.08-0.56-2.26-0.79-3.4c-0.23-0.73-0.46-1.46-0.69-2.19c-0.12-1.16-0.97-3.17-1.5-4.25c-0.42-0.85-1-1.52-1.55-2.27    c-0.15-0.3-0.3-0.6-0.45-0.91c-0.33-0.38-0.66-0.76-0.99-1.14c-0.2-0.22-0.4-0.45-0.59-0.67c-0.6-1.21-1.21-2.42-1.81-3.62    c-0.23-0.38-0.45-0.75-0.68-1.13c0-0.61-0.77-1.99-1.13-2.49c-0.87-2.04-1.74-4.08-2.6-6.12c-0.53-0.75-1.06-1.51-1.59-2.26    c-0.33-0.46-0.66-0.92-0.99-1.37c-0.96-0.92-1.3-2.4-1.45-3.73c-0.2-1.28-0.41-2.57-0.61-3.85c-0.23-0.64-0.46-1.28-0.68-1.92    c-0.95-2-1.9-4-2.84-6c-0.49-0.87-0.97-1.74-1.46-2.61c-0.23-0.3-0.45-0.6-0.68-0.91l0.11,0.11c-0.08-0.04-0.15-0.08-0.23-0.11    c-0.07,0.05-0.14,0.1-0.21,0.16c-2.17,0.98-5.19,2.52-7.6,2.25c-0.76-0.06-1.52-0.12-2.29-0.18c-0.23-0.04-0.66-0.2-0.66,0.15    c0,1.75,0.03,3.45,0.21,5.19c-0.16,0.22,0.03,0.55,0.06,0.82c0.09,0.76,0.02,1.38,0.19,2.14c-0.08,0.72-0.15,1.43-0.23,2.15    c0.1,1.2-0.08,2.21-0.11,3.4c0,1.85,0,3.7,0,5.55c0.08,0.49,0.15,0.98,0.23,1.47c0.23,0.6,0.45,1.21,0.68,1.81    c-0.01,1.62-0.03,3.24-0.04,4.86c-0.04,0.56-0.23,1.64-0.64,2.05c-0.11,0.53-0.23,1.06-0.34,1.59c-0.02,0.33-0.04,0.65-0.06,0.98    c-0.16,0.66-0.32,1.31-0.48,1.97c-0.05,0.32,0.02,1.43-0.14,1.56c-0.62,0.47-1.07,0.99-1.58,1.61c-0.19,0.19-0.38,0.38-0.57,0.56    c0,0.53,0,1.06,0,1.59c-0.17,0.9-0.33,1.81-0.5,2.71c-0.14,0.53-0.27,1.06-0.41,1.59c-0.01,1.31-0.02,2.62-0.03,3.93    c0.21,2.08,0.03,4.29-0.08,6.37c0.23,0,0.19,0.69,0.2,0.9c-0.01,1.02-0.01,2.04-0.02,3.06c0.02,1.18-0.45,2.23-0.89,3.32    c-0.11,0.26-0.23,1.01-0.53,0.99c-0.13,0.6-0.35,1.36-1.04,1.53c-0.69,0.14-2.36,0.33-2.81,0.85c-0.3,0-0.56,0.01-0.79,0.23    c-0.3,0-0.6,0-0.91,0c-1.13,0.57-2.26,1.13-3.4,1.7c-1.62,0.91-3.25,1.81-4.87,2.72c-0.58,0.17-2.32,1.46-2.71,1.93    c-0.18,0.21-0.64,0.84-0.46,1.02l-0.04,0.02c1.37,1.26,2.27,2.85,3.1,4.52c0.32,0.64,0.91,1.49,0.68,2.26    c0.13,0.49,0.47,1.45,0.23,1.92c0.2,0.49,0.4,0.99,0.6,1.48c0.53,0.29,0.87,1.37,1.01,1.94c0.35,1.38,0.43,2.76,0.54,4.16    c0.08,0.38,0.15,0.75,0.23,1.13c0.02,0.56,0.04,1.12,0.06,1.68c0.15,0.83,0.45,2.54,0.96,3.19c0.19,0.88,0.37,1.77,0.56,2.65    l0.23-0.05c0-0.27,0.78-0.25,1.01-0.28c1.02-0.13,2.02-0.51,2.84-1.19c0.45-0.38,0.91-0.76,1.36-1.13    c0.45-0.49,0.91-0.98,1.36-1.47c0.38-0.3,0.76-0.6,1.13-0.91c0.34-0.15,0.68-0.3,1.02-0.45c0.63,0.07,1.27,0.15,1.9,0.22    c0.42,0.15,0.84,0.3,1.27,0.46c0.59,0.04,1.18,0.08,1.77,0.12c1.23,0,2.5-0.31,3.56-0.92c0.32-0.78,1.55-1.02,2.27-1.33    c1.19-0.53,2.46-0.8,3.59-1.45c0.76-0.58,1.53-1.16,2.29-1.74c0.08-0.42,0.58-0.81,0.83-1.16c0.17-0.33,0.35-0.66,0.52-0.99    c-0.3-0.57,0.65-2.62,0.79-3.28c0.53-2.51,1.68-4.67,3.41-6.57c0.37-0.6,0.75-1.21,1.12-1.81c0.45-0.38,0.91-0.75,1.36-1.13    c2.78,0,5.62-0.4,8.38,0.11c0.57-0.04,1.13-0.08,1.7-0.11c1.78-0.13,3.66,0.45,5.32,1.02c0.98,0.34,2.01,0.58,3.05,0.44    c0.51-0.59,2.4-0.76,2.95-0.21c1.26-0.79,2.77-1.57,3.66-2.76c0.64-0.86,0.94-2.03,1.32-3.01L358.81,291.58z"/>
            <circle cx="320.59" cy="260.5" r="1.586"/>
        </g>
        <g id="__Aziziye">
            <path d="    M115.46,231.34c0,0.29,1.63,1.81,1.93,1.81c0.31,0.48,1.01,0.7,1.49,0.99c1.47,0.88,3.04,1.53,4.63,2.18    c0.34,0.01,0.68,0.02,1.02,0.02c1.13-0.16,2.27-0.32,3.4-0.48c1.32-0.53,2.64-1.06,3.96-1.59c0.52,0.13,1.7-0.64,2.15-0.91    c1.59-0.04,3.17-0.08,4.76-0.11c0.24,0.25,1.02,0.18,1.36,0.11c0.69-0.24,1.38-0.48,2.06-0.73c0.49-0.22,0.98-0.44,1.47-0.67    c1.78-0.32,3.83-0.42,5.64-0.42c0.31,0.31,1.24,0.19,1.7,0.22c0.3,0.02,1.03,1.19,1.25,1.48c0,0.26,0,0.53,0,0.79    c-0.02,1.42,0.24,2.4,0.54,3.77c0.23,1,0.37,1.94,0.7,2.92c-0.24,0.3,0.06,1.71,0.11,2.15c0.4,0.33,0.69,2.05,0.85,2.62    c0.23,0.56,0.45,1.13,0.68,1.69c0.05,0.34,0.1,0.69,0.15,1.03c0.1,0.45,0.21,0.9,0.31,1.35c0,1.41-0.53,3.91,0.06,5.19    c0.83,1.8,1.47,3.82,2.49,5.55c1.32,2.24,2.8,4.22,3.74,6.68c-0.26,0.39-0.02,2.62,0.02,3.22c-0.01,0.96-0.02,1.93-0.02,2.89    c-0.08,0.26-0.15,0.53-0.23,0.79c0,0.87,0,1.74,0,2.6c0.32,0.32,0.18,1.13,0.24,1.56c0.25,0.68,0.49,1.35,0.74,2.03l0.16,0.59    l0.11,0.11c0.28-0.28,0.91,0.02,1.25,0.11c0.19,0.11,0.38,0.23,0.57,0.34c0.49,0.11,0.88,0.2,1.25,0.57    c1.35,0.16,2.7,0.31,4.04,0.47c0.6,0.03,2.52-0.31,2.86-0.02c0.3-0.15,0.6-0.3,0.91-0.45c0.39-0.12,1.53-0.05,1.81,0.23    c0.34,0.36,0.93,1.36,1.47,1.36c0.19,0.3,0.38,0.6,0.57,0.91c0,0.68,0.19,1.48,0.79,1.92c0.87,0.38,1.74,0.75,2.6,1.13    c0.76,0.48,1.52,0.95,2.29,1.43c0.63,0.31,1.61,0.32,1.9,0.89c0.12,0.51,0.23,1.02,0.35,1.53c0.43,0.36,1.03,0.39,1.35,0.69    c1.74-0.11,3.29-0.66,4.89-1.31c0.64-0.26,1.33-0.39,1.9-0.84c0.04-0.08,0.08-0.15,0.11-0.23c0.53-0.34,1.06-0.68,1.58-1.02    c0.38-0.23,0.75-0.45,1.13-0.68c0.26-0.26,0.53-0.53,0.79-0.79c1.93-1.32,3.85-2.63,5.78-3.95c0.75-0.68,1.51-1.37,2.26-2.05    c0-0.25,0.45-0.67,0.68-0.79c1.13-0.59,4.87-0.17,6.17-0.27l-0.4-0.97c-0.27-0.27-0.41-0.5-0.58-0.84c-0.9-1.66-1.89-3.4-1.8-5.39    c0.04-0.81-0.58-2.87-1.04-2.88c-0.07-0.13-0.04-1.65-0.43-1.65c-1.23,0-2.67-0.65-3.74-1.25c-0.94-0.49-1.88-0.99-2.82-1.48    c-0.53-0.45-1.06-0.9-1.6-1.35c-0.83-1.34-1.65-2.67-2.48-4.01c-0.1-1.01-0.19-2.02-0.29-3.02c-0.87-1.99-1.73-3.98-2.6-5.97    c-0.93-2.16-1.86-4.31-2.79-6.47c-0.26-0.64-0.53-1.28-0.79-1.93c0.08-0.02,0.15-0.05,0.23-0.07c0.48-0.13,0.96-0.22,1.47-0.16    c0.76,0.1,1.54,0.53,1.93-0.45c0.25-0.49,0.5-0.99,0.75-1.48c0.13-0.34,0.25-0.67,0.38-1.01c0.05-0.9,0.1-1.81,0.16-2.71    c-0.04-0.79-0.27-1.43-0.27-2.27c-0.22-0.22-0.21-0.71-0.27-1.01c-0.17-0.87-0.3-1.72-0.3-2.61c0-1.19-0.05-3.47,1.22-3.96    c0.34-0.13,2.46-0.5,2.75-0.34c0.42-0.11,0.83-0.23,1.25-0.34c0.77-0.16,1.5-0.01,2.24-0.39c0.57-0.36,1.15-0.72,1.72-1.09    c0.56-0.3,1.13-0.61,1.69-0.91c1.21-0.86,2.43-1.73,3.64-2.59c0.34-0.4,0.69-0.8,1.03-1.2c0.39-0.59,0.71-1.39,1.34-1.76    c1.2-2.48,1.45-5.4,2.29-8.01c0.15-0.61,0.31-1.22,0.46-1.82c0.56-0.94,1.13-1.89,1.69-2.83c0.58-0.84,1.19-1.23,1.9-1.94    c0.26-0.23,0.53-0.45,0.79-0.68c0.23-0.19,0.45-0.38,0.68-0.57c0,0-0.35-0.91-0.44-1.14c-0.57-1.56-1.12-3.2-1.96-4.62    c-0.5-0.84-1.11-1.13-1.87-1.67c-0.25-0.19-0.49-0.38-0.74-0.57c-0.71-0.39-1.38-0.45-1.91-1.14c-0.41-0.65-0.83-1.3-1.24-1.95    c-0.6-0.75-1.21-1.51-1.81-2.26c-0.08-1.02-1.47-3.03-2.26-3.62c-0.36-1-0.35-1.44-1.04-2.37l-0.77-0.24    c-0.2,0-0.3,0.04-0.45-0.11c-0.75,0.1-1.51,0.19-2.26,0.29c-0.49,0.09-0.98,0.19-1.47,0.28c-0.52,0.23-1.05,0.46-1.57,0.69    c-0.91,0.15-1.82,0.29-2.73,0.44c-0.59,0.31-1.18,0.63-1.77,0.94c-0.88,0.44-1.77,0.88-2.65,1.33c-0.79,0.19-1.58,0.38-2.38,0.57    c-1.13,0.72-2.27,1.43-3.4,2.15c-0.68,0.19-1.36,0.38-2.04,0.58c-1.36,0.37-2.72,0.75-4.08,1.12c-0.45,0.04-0.91,0.08-1.36,0.11    c-2.64,0.47-5.07,1.57-7.81,1.93c-0.75,0.23-1.51,0.45-2.26,0.68c-0.6,0.15-1.21,0.3-1.81,0.45c-0.38,0.16-0.77,0.32-1.15,0.48    c-0.45,0.14-0.89,0.28-1.34,0.42c-0.49,0.08-0.98,0.15-1.47,0.23c-0.36,0.1-2.04,0.99-2.15,1.25c-1.96,0.62-3.85,0.87-5.89,1.03    c-0.79,0.07-1.59,0.14-2.38,0.21c-1.58,1.08-2.86,1.59-4.76,1.13c-0.38,0.04-0.75,0.08-1.13,0.11c-0.3,0.38-0.6,0.75-0.91,1.13    c-0.83,0.3-1.66,0.6-2.49,0.91c-0.49,0.12-0.98,0.23-1.47,0.35c-1.55,0.19-3.1,0.37-4.64,0.56c-0.29,0.19-0.76,0.37-0.91,0.68    c-0.89,0.16-1.91,0.16-2.74,0.57c-1.01,0.68-2.02,1.36-3.04,2.04c-0.59,0.4-1.26,0.49-1.92,0.68c-0.26,0.19-0.53,0.38-0.79,0.57    c-0.28,0.34-0.76,1.25-1.13,1.25l0.23-0.08c-0.47,0.51,0.65,0.96,0.95,1.45c0.78,1.27,1.37,2.97,1.08,4.52    c-0.26,1.37-0.79,2.59-1.23,3.9c-0.42,1.23-0.6,2.49-1.36,3.58c-0.42,0.71-0.84,1.43-1.26,2.14c-0.57,0.57-1.13,1.13-1.7,1.7    c-0.31,0.06-0.82,0.41-1.02,0.68c-0.42,0.41-0.85,0.82-1.27,1.22c-0.6,0.49-1.19,0.97-1.79,1.46c-0.64,0.39-1.28,0.78-1.92,1.16    C117.28,230.26,115.46,231.18,115.46,231.34z"/>
            <circle cx="193.32" cy="264.74" r="1.586"/>
        </g>
        <g id="__İspir">
            <path d="    M110.82,195.68c0.26,0.26,0.83-0.26,0.91-0.23c0.57-0.44,1.15-0.89,1.72-1.33c1.45-1.14,3.08-1.83,4.79-2.45    c1.23-0.54,2.46-1.07,3.69-1.61c1.77-0.65,3.54-1.31,5.31-1.96c0.42-0.08,0.83-0.15,1.25-0.23c0.38-0.19,0.75-0.38,1.13-0.57    c1.02-0.42,2.05-0.84,3.07-1.26c1.54-0.34,3.06-1.04,4.4-1.91c0.45-0.19,0.91-0.38,1.36-0.57c0.46-0.36,0.92-0.73,1.39-1.09    c0.71-0.47,1.49-0.82,2.05-1.47c0.76-0.88,1.01-2.15,2-2.87c0.61-0.44,1.15-0.26,1.81-0.11c1.02-0.47,3.09-0.09,4.19,0.11    c0.69-0.36,1.86-0.43,2.26-1.25c0.3-0.53,0.6-1.06,0.91-1.59c0.13-0.91,0.59-1.93,1.02-2.72c-0.27-0.72-0.29-1.39-0.23-2.15    c-0.31-0.41-0.61-0.81-0.92-1.22c-1.06-0.74-2.43-1.03-3.61-1.61c-0.4-0.72-0.81-1.44-1.21-2.17c-0.1-0.19-0.27-0.67-0.49-0.67    c-0.36-1.56-0.57-3.23-0.57-4.87c-0.3-0.38-0.6-0.75-0.91-1.13c-0.31-0.1-0.51-0.39-0.75-0.62c-0.41-0.4-0.61-1.19-1.29-1.19    c-0.1-0.24-0.21-0.49-0.31-0.73c-0.21-0.45-0.41-0.89-0.62-1.34c-0.17-0.26-0.34-0.52-0.52-0.77c-0.12-0.34-0.24-0.67-0.36-1.01    c-0.04-0.38-0.08-0.75-0.11-1.13c-0.26-0.85-0.58-1.59-0.68-2.49c-0.11-0.98-0.08-1.81-0.45-2.72c0-0.49,0-0.98,0-1.47    c0.09-0.26,0.18-0.53,0.27-0.79c0.26-0.93,0.52-1.74,0.63-2.72c0.15-0.57,0.3-1.13,0.45-1.7c-0.29-0.18-0.25-0.53-0.39-0.83    c-0.28-0.59-0.57-1.18-0.85-1.77c-0.45-0.79-0.91-1.58-1.37-2.38c-0.64-1.4-1.28-2.8-1.92-4.19c-0.07-0.45-0.14-0.9-0.21-1.36    c-0.4-1.51-0.79-3.01-1.19-4.52c-0.18-0.61-0.35-1.22-0.53-1.82c-0.11-0.53-0.23-1.06-0.34-1.58c0-0.23,0-0.45,0-0.68    c-0.15-0.15-0.3-0.3-0.45-0.45l0.57-0.23c0.73,0,1.47-0.79,2.26-0.91c0.23,0.04,0.45,0.08,0.68,0.11    c0.63-0.22,1.24-0.35,1.93-0.45c0.56-0.05,1.13-0.1,1.69-0.15c0.6,0.01,1.21,0.02,1.82,0.04c0.79-0.13,1.58-0.25,2.37-0.38    c0.91-0.23,1.82-0.46,2.73-0.69c1.73-0.31,2.67-0.17,4.17-1.36c0.76-0.6,1.19-1.4,1.82-2.11c0.3-0.23,0.6-0.45,0.91-0.68    c0.98-1.28,1.96-2.57,2.94-3.85c1.25-1.85,2.49-3.7,3.74-5.55c1.28-1.25,2.57-2.49,3.85-3.74c1.87-1.79,3.9-3.55,6.02-5.08    c1.32-0.87,2.63-1.75,3.95-2.62c0.64-0.53,1.28-1.06,1.91-1.59c0.82-0.67,1.66-1.48,2.66-1.84c0.11-0.47,0.55-0.73,0.87-1.08    c0.45-0.65,0.9-1.29,1.35-1.94c0.39-0.09,1.19-0.38,1.47-0.11c0.72-0.42,1.43-0.84,2.15-1.27c0.41-0.18,0.82-0.37,1.23-0.55    c0.46-0.26,0.92-0.52,1.38-0.79c0.76-0.64,1.51-1.28,2.27-1.91c0.69-0.62,1.48-1.05,2.29-1.5c0.38-0.88,2.16-2.33,2.92-2.92    c0.34-0.34,0.68-0.68,1.02-1.02c0.74-0.85,1.49-1.45,2.38-2.15c0.33-0.26,0.57-0.79,1.06-0.63c1.14,0.36,1.57,1.64,2.03,2.56    c0.16,0.31,0.34,1.04,0.07,1.25c0.38,0.38,0.75,0.75,1.13,1.13c0.21,0.09,0.43,0.19,0.64,0.28c0.28,0.25,0.55,0.49,0.83,0.74    c0.63,0.47,1,1.26,1.7,1.7c0.42,0.23,0.83,0.45,1.25,0.68c0.42,0.11,0.83,0.23,1.25,0.34c1.04,0.65,2.11,1.11,3.28,1.47    c0.45,0.03,0.89,0.05,1.34,0.08c0.91,0.31,1.83,0.63,2.74,0.94c1,0.45,1.93,1.64,2.72,2.38c0.55,0.52,1.43,0.73,2.15,0.91    c1.33,0.33,2.69,0.62,3.95,1.16c0.8,0.37,1.59,0.74,2.39,1.1c0.81,0.62,1.62,1.24,2.43,1.86c0.32,0.28,0.69,0.87,1.08,0.97    c0.23,0.32,0.45,0.96,0.79,1.13c0.29,0.88,0.67,1.93,0.59,2.89c-0.08,0.77-0.17,1.55-0.25,2.32c-1.2,1.88-2.23,3.75-3.17,5.78    c-0.53,1.36-1.06,2.72-1.58,4.08c-0.26,1.36-0.53,2.72-0.79,4.08c0.15,1.13,0.3,2.26,0.45,3.4c0.32,0.79,0.63,1.57,0.95,2.36    c0.1,0.31,0.2,0.62,0.3,0.92c0.26,0.53,0.53,1.06,0.79,1.59c0.11,0.34,0.23,0.68,0.34,1.02c0.83,1.08,1.67,2.16,2.5,3.24    c0.71,0.98,1.59,2.19,2.59,2.88c0.45,0.15,0.91,0.3,1.36,0.45c1.55,0.69,3.31,0.57,4.98,0.57c-0.94,0-1.89,0-2.83,0    c0.67,0.02,1.35,0.05,2.02,0.07c0.12,0.02,0.65,0.07,0.53,0.22c-1,1.35-2.54,2.66-4.15,3.23c-0.37,0.13-0.86,0.56-1.35,0.44    c-0.64,0.23-1.28,0.47-1.92,0.7c-0.41,0.11-2.43,0.64-2.72,0.54c-0.74,0.52-1.05,0.9-1.95,1.18c-1.3,0.41-2.5,0.84-3.74,1.37    c-0.48,0.21-0.96,0.41-1.45,0.62c-0.89,0.25-1.79,0.5-2.68,0.74c-0.73,0.27-1.46,0.53-2.2,0.8c-0.87,0.17-2.15,0.08-2.75,0.89    c-0.76,1.15-0.68,2.34-0.46,3.66c-0.06,0.54-0.12,1.07-0.18,1.61c-0.19,0.38-0.38,0.75-0.57,1.13c-0.34,0.42-0.68,0.83-1.02,1.25    c-0.92,1-2.35,2.07-2.94,3.28c-0.4,0.5-0.8,0.99-1.21,1.49c-0.84,1.35-1.69,2.7-2.53,4.05c-0.91,1.4-1.81,2.8-2.72,4.2    c-0.83,1.57-0.65,3.6-1.13,5.32c0.04,1.06,0.08,2.11,0.11,3.17c-0.05,0.44-0.25,1.63,0.11,1.92c-0.08,0.71-0.14,2.46,0.23,3.06    c0,0.68,0,1.36,0,2.04c0.2,0.8,0.39,1.59,0.59,2.39c0.15,1,0.16,1.94,0.21,2.93c0.01,0.2,0.12,0.91-0.12,0.91    c-0.2,0-0.3,0.04-0.45-0.11c-0.75,0.1-1.51,0.19-2.26,0.29c-0.49,0.09-0.98,0.19-1.47,0.28c-0.52,0.23-1.05,0.46-1.57,0.69    c-0.91,0.15-1.82,0.29-2.73,0.44c-0.59,0.31-1.18,0.63-1.77,0.94c-0.88,0.44-1.77,0.88-2.65,1.33c-0.79,0.19-1.58,0.38-2.38,0.57    c-1.13,0.72-2.27,1.43-3.4,2.15c-0.68,0.19-1.36,0.38-2.04,0.58c-1.36,0.37-2.72,0.75-4.08,1.12c-0.45,0.04-0.91,0.08-1.36,0.11    c-2.64,0.47-5.07,1.57-7.81,1.93c-0.75,0.23-1.51,0.45-2.26,0.68c-0.6,0.15-1.21,0.3-1.81,0.45c-0.38,0.16-0.77,0.32-1.15,0.48    c-0.45,0.14-0.89,0.28-1.34,0.42c-0.49,0.08-0.98,0.15-1.47,0.23c-0.36,0.1-2.04,0.99-2.15,1.25c-1.96,0.62-3.85,0.87-5.89,1.03    c-0.79,0.07-1.59,0.14-2.38,0.21c-1.58,1.08-2.86,1.59-4.76,1.13c-0.38,0.04-0.75,0.08-1.13,0.11c-0.3,0.38-0.6,0.75-0.91,1.13    c-0.83,0.3-1.66,0.6-2.49,0.91c-0.49,0.12-0.98,0.23-1.47,0.35c-1.55,0.19-3.1,0.37-4.64,0.56c-0.29,0.19-0.76,0.37-0.91,0.68    c-0.89,0.16-1.91,0.16-2.74,0.57c-1.01,0.68-2.02,1.36-3.04,2.04c-0.59,0.4-1.26,0.49-1.92,0.68c-0.26,0.19-0.53,0.38-0.79,0.57    c-0.28,0.34-0.76,1.25-1.13,1.25c-0.46-0.24-0.92-0.48-1.39-0.73c-1.54-0.7-2.94-0.98-4.61-1.2c-0.45-0.19-0.91-0.38-1.36-0.57    c-1.18-0.87-2.62-1.84-3.58-2.95c-1.11-1.66-2.22-3.32-3.33-4.98C112.25,196.76,110.82,195.68,110.82,195.68z"/>
            <circle cx="176.1" cy="148.8" r="1.586"/>
        </g>
        <g id="__Pazaryolu">
            <path d="    M153.85,170.42c-0.06,0.76-0.04,1.43,0.23,2.15c-0.43,0.79-0.89,1.81-1.02,2.72c-0.3,0.53-0.6,1.06-0.91,1.59    c-0.4,0.82-1.57,0.89-2.26,1.25c-1.1-0.21-3.17-0.58-4.19-0.11c-0.67-0.15-1.2-0.33-1.81,0.11c-0.99,0.72-1.24,1.99-2,2.87    c-0.56,0.65-1.34,1.01-2.05,1.47c-0.46,0.36-0.92,0.73-1.39,1.09c-0.45,0.19-0.91,0.38-1.36,0.57c-1.34,0.87-2.85,1.57-4.4,1.91    c-1.02,0.42-2.05,0.84-3.07,1.26c-0.38,0.19-0.75,0.38-1.13,0.57c-0.42,0.08-0.83,0.15-1.25,0.23c-1.77,0.65-3.54,1.31-5.31,1.96    c-1.23,0.54-2.46,1.07-3.69,1.61c-1.72,0.62-3.35,1.32-4.79,2.45c-0.57,0.44-1.15,0.89-1.72,1.33c-0.08-0.04-0.64,0.49-0.91,0.23    c-1.21-0.98-2.42-1.96-3.63-2.94c-0.33-0.32-1.41-1.3-1.8-1.36c-0.87-1.09-1.89-1.91-2.83-2.94c-0.84-1.24-1.68-2.48-2.53-3.72    c-0.25-0.41-0.82-1.1-0.76-1.6c-0.6-0.91-1.55-2.88-0.32-3.71c1.73-0.76,3.46-1.53,5.19-2.29c2.17-1.92,3.32-5.13,2.72-7.93    c-0.49-0.6-0.98-1.21-1.47-1.81c-0.6-0.53-1.21-1.06-1.81-1.59c-0.52-0.66-0.88-1.66-0.91-2.49c-0.54-0.75-0.69-1.53-0.99-2.39    c-0.08-0.37-0.17-0.75-0.25-1.12c-0.34-0.86-0.58-1.78-0.54-2.71c0.01-0.25,0.01-0.63,0.2-0.8c-0.06-0.61-0.13-1.57,0.22-2.09    c0.49-0.4,0.99-0.79,1.48-1.19c1.43-1.18,3.47-2.13,4.43-3.79c0.83-2.47,1.65-4.95,2.48-7.42c0.1-0.61,0.33-1.41,0.73-1.91    c0.68-0.85,1.85-1.54,2.89-1.83c0.34-0.15,0.68-0.3,1.02-0.45c1.09-0.68,2.19-1.36,3.28-2.04c0.33-0.28,0.65-0.57,0.98-0.85    c1.3-1.02,2.52-2.13,3.78-3.22c0.8-0.83,1.59-1.65,2.39-2.48c0.32-0.3,1.64-1.23,2.03-1.15c0.87-0.79,1.74-1.58,2.61-2.37    c1.92-1.66,3.85-3.33,5.77-4.99c0.15,0.15,0.3,0.3,0.45,0.45c0,0.23,0,0.45,0,0.68c0.11,0.53,0.23,1.06,0.34,1.58    c0.18,0.61,0.35,1.21,0.53,1.82c0.4,1.51,0.79,3.01,1.19,4.52c0.07,0.45,0.14,0.9,0.21,1.36c0.64,1.4,1.28,2.8,1.92,4.19    c0.46,0.79,0.91,1.59,1.37,2.38c0.28,0.59,0.57,1.18,0.85,1.77c0.15,0.31,0.11,0.65,0.39,0.83c-0.15,0.57-0.3,1.13-0.45,1.7    c-0.11,0.98-0.37,1.79-0.63,2.72c-0.09,0.26-0.18,0.53-0.27,0.79c0,0.49,0,0.98,0,1.47c0.37,0.91,0.34,1.74,0.45,2.72    c0.1,0.9,0.42,1.64,0.68,2.49c0.04,0.38,0.08,0.75,0.11,1.13c0.12,0.34,0.24,0.67,0.36,1.01c0.17,0.26,0.34,0.52,0.52,0.77    c0.21,0.45,0.41,0.89,0.62,1.34c0.1,0.24,0.21,0.49,0.31,0.73c0.68,0,0.88,0.79,1.29,1.19c0.24,0.23,0.43,0.52,0.75,0.62    c0.3,0.38,0.6,0.75,0.91,1.13c0,1.64,0.2,3.31,0.57,4.87c0.22,0,0.38,0.48,0.49,0.67c0.4,0.72,0.81,1.44,1.21,2.17    c1.18,0.58,2.55,0.87,3.61,1.61C153.23,169.61,153.54,170.01,153.85,170.42z"/>
            <circle cx="140.36" cy="163.19" r="1.586"/>
        </g>
        <g id="__Tortum">
            <path d="    M285.42,210.59c0,0,0.73-0.24,0.92-0.3c1.06-0.3,2.11-0.61,3.17-0.91c0.79-0.15,1.59-0.3,2.38-0.45c0.94-0.62,1.88-1.23,2.81-1.85    c1.26-0.73,2.51-1.62,3.4-2.77c0.34-0.57,0.69-1.15,1.03-1.72c-0.28-0.17-0.31-0.79-0.45-1.13c-0.53-0.49-1.06-0.98-1.59-1.48    c-0.68-0.68-1.36-1.36-2.03-2.03c-0.49-0.6-0.98-1.21-1.47-1.81c-0.99-1.06-1.79-1.58-3.06-2.26c-0.83-0.72-1.66-1.43-2.49-2.15    c-0.3-0.43-1.36-1.55-1.36-1.13c0-0.7-1.06-1.29-1.13-2.15c-0.12-1.46,0.2-1.75,1.13-2.83c0-1.56,0.19-3.74,0.82-5.22    c0.18-0.26,0.36-0.52,0.53-0.78c0.38-0.54,0.57-1.23,1.02-1.81c0.83-0.72,1.66-1.43,2.49-2.15c0.45-0.17,0.89-0.34,1.34-0.51    c0.24-0.12,0.7-0.43,0.94-0.36c0.75-0.54,1.5-1.08,2.24-1.63c0,0-0.72-0.53-0.91-0.68c-0.97-1.06-1.95-2.12-2.92-3.19    c-0.93-1.19-1.53-2.54-2.74-3.5c-1.16-0.15-2.42-0.61-3.28-1.47c-1.21-0.15-2.32-0.75-3.06-1.81c-0.26-0.75-0.53-1.51-0.79-2.26    c-0.52-0.9-1.04-1.79-1.55-2.69l0.02-0.14c-0.47-0.47-1.68-1.17-1.98-1.38c-2.08-1.47-4.19-2.86-6.35-4.17    c-0.38-0.34-0.75-0.68-1.13-1.02c-0.6-0.45-1.21-0.91-1.81-1.36c-0.6-0.68-1.21-1.36-1.81-2.04c-0.44-0.1-0.88-0.21-1.31-0.31    c-1.65-0.4-2.47-0.57-3.9-1.62c-0.87-0.49-1.74-0.98-2.6-1.47c-0.91-0.72-1.81-1.43-2.72-2.15c-0.15-0.49-0.3-0.98-0.45-1.47    c-1.21-1.28-0.86-2.15-1.09-3.73c-0.13-0.46-0.26-0.91-0.39-1.37c-0.57-0.45-1.13-0.91-1.7-1.36c-0.51,0-1.17-0.63-1.53-0.96    c-0.92-1.01-1.84-2.01-2.75-3.02c-0.36-0.42-1.98-1.35-1.27-2.18l-0.47,0.12c-1.15,1.2-3.61,1.49-5.03,1.93l-0.43,0.22    c-1,1.35-2.54,2.66-4.15,3.23c-0.37,0.13-0.86,0.56-1.35,0.44c-0.64,0.23-1.28,0.47-1.92,0.7c-0.41,0.11-2.43,0.64-2.72,0.54    c-0.74,0.52-1.05,0.9-1.95,1.18c-1.3,0.41-2.5,0.84-3.74,1.37c-0.48,0.21-0.96,0.41-1.45,0.62c-0.89,0.25-1.79,0.5-2.68,0.74    c-0.73,0.27-1.46,0.53-2.2,0.8c-0.87,0.17-2.15,0.08-2.75,0.89c-0.76,1.15-0.68,2.34-0.46,3.66c-0.06,0.54-0.12,1.07-0.18,1.61    c-0.19,0.38-0.38,0.75-0.57,1.13c-0.34,0.42-0.68,0.83-1.02,1.25c-0.92,1-2.35,2.07-2.94,3.28c-0.4,0.5-0.8,0.99-1.21,1.49    c-0.84,1.35-1.69,2.7-2.53,4.05c-0.91,1.4-1.81,2.8-2.72,4.2c-0.83,1.57-0.65,3.6-1.13,5.32c0.04,1.06,0.08,2.11,0.11,3.17    c-0.05,0.44-0.25,1.63,0.11,1.92c-0.08,0.71-0.14,2.46,0.23,3.06c0,0.68,0,1.36,0,2.04c0.2,0.8,0.39,1.59,0.59,2.39    c0.15,1,0.16,1.94,0.21,2.93c0.01,0.2,0.12,0.91-0.12,0.91l0.77,0.24c0.69,0.93,0.68,1.37,1.04,2.37c0.8,0.6,2.19,2.6,2.26,3.62    c0.6,0.75,1.21,1.51,1.81,2.26c0.41,0.65,0.83,1.3,1.24,1.95c0.52,0.68,1.19,0.75,1.91,1.14c0.25,0.19,0.49,0.38,0.74,0.57    c0.76,0.54,1.37,0.83,1.87,1.67c0.84,1.42,1.39,3.06,1.96,4.62c0.09,0.24,0.44,1.14,0.44,1.14c0,0.61,0.27,1.1,0.45,1.7    c0.35,0.21,0.69,0.42,1.04,0.63c0.81,0.4,1.57,0.67,2.48,0.73c0.89,0.06,1.62-0.24,2.48-0.33c1.14-0.12,2.27-0.25,3.41-0.37    c0.9,0.01,1.8,0.02,2.71,0.03c0.37-0.08,0.75-0.17,1.12-0.25c1.78-0.18,3.56-0.36,5.34-0.54c1.02-0.42,2.04-0.83,3.06-1.25    c0.45-0.08,0.91-0.15,1.36-0.23c0.15,0.03,0.3,0.05,0.45,0.08c0.58-0.08,1.44-0.36,2.05-0.08c0.68-0.19,1.36-0.38,2.04-0.57    c0.34-0.19,0.68-0.38,1.02-0.57c1.13,0.13,2.26,0.26,3.39,0.39c1,0.05,2,0.11,2.99,0.16c0.48,0.33,1.63,1.52,1.99,1.6    c0.4,1.25,0.55,2.65,1.36,3.74c0.08,0.04,0.15,0.08,0.23,0.11c1.17,1.83,3.23,3.13,4.86,4.53c1.77,1.52,3.79,2.97,5.9,3.97    c0.52,0.25,1.08,0.61,1.47,1.02c0.73,0,1.18,0.56,1.81,0.79c0.39,0.14,0.73,0.04,1.02,0.34c0.46,0.22,0.94,0.77,1.4,0.99    c0,0,0.71-0.75,0.94-1.03c1.48-1.78,2.85-3.72,4.57-5.29c1.55-0.72,3.09-1.43,4.64-2.15L285.42,210.59z"/>
            <circle cx="265.98" cy="189.49" r="1.586"/>
        </g>
        <g id="__Uzundere">
            <path d="    M248.05,127.8c0.57-0.67,1.43-1.18,2.16-1.65c0.64-0.45,1.28-0.91,1.92-1.36c0.83-1.09,1.66-2.19,2.49-3.28    c1.25-1.06,2.49-2.11,3.74-3.17c1.16-1.03,1.83-2.34,2.83-3.51c0.21-0.17,0.41-0.34,0.62-0.51c0.47-0.47,0.95-0.95,1.42-1.42    c2.15-1.85,4.3-3.7,6.45-5.55c1.55-1.78,3.11-3.57,4.66-5.35c1.09-0.52,2.18-1.04,3.26-1.55c1.47,0,2.94-0.01,4.41-0.01    c0.53,0.04,1.06,0.08,1.6,0.13c0.94,0.35,1.87,0.69,2.81,1.04c0.3,0.16,0.82,0.42,1.15,0.32c0.11,0.19,0.96,0.88,1.25,0.79    c0.6,0.3,1.21,0.61,1.81,0.91c2,1.09,4,2.19,6.01,3.28c0,0.38,0.33,0.42,0.57,0.68c0.57,0.64,1.24,1.77,1.8,2.41    c0.24,0.35,0.59,1.02,0.58,1.44c0.23,0.42,0.45,0.83,0.68,1.25c0.61,0.79,1.22,1.59,1.83,2.38c0.49,0.85,1.07,1.51,1.74,2.2    c0.17,0.17,0.34,0.34,0.51,0.51c0,0.4,0.3,1.89,0.57,2.15c0.11,1.13,0.23,2.26,0.34,3.4c0,0.87,0,1.74,0,2.6    c0.03,0.98-0.6,1.95-1,2.78c-0.37,0.93-0.74,1.85-1.11,2.78c-0.56,1.29-0.77,2.75-1.62,3.96c0,0.49-0.17,1.19-0.45,1.59    c-1.01,1.32-2.03,2.64-3.04,3.97c-0.46,0.57-0.92,1.13-1.37,1.7c-1.28,0.87-2.57,1.74-3.85,2.6c-0.17,0.21-0.33,0.42-0.5,0.63    c-0.51,0.47-1.03,0.94-1.54,1.4c-0.3,0.55-0.71,1.32-1.36,1.47c-0.15,0.19-0.3,0.38-0.45,0.57c-0.36,1.03-0.46,2-0.68,3.06    c-0.3,0.72-0.6,1.43-0.91,2.15c-0.72,0.49-1.43,0.98-2.15,1.47c-1.59,0.1-3.19,0.19-4.36,1.36c-0.47-0.47-1.68-1.17-1.98-1.38    c-2.08-1.47-4.19-2.86-6.35-4.17c-0.38-0.34-0.75-0.68-1.13-1.02c-0.6-0.45-1.21-0.91-1.81-1.36c-0.6-0.68-1.21-1.36-1.81-2.04    c-0.44-0.1-0.88-0.21-1.31-0.31c-1.65-0.4-2.47-0.57-3.9-1.62c-0.87-0.49-1.74-0.98-2.6-1.47c-0.91-0.72-1.81-1.43-2.72-2.15    c-0.15-0.49-0.3-0.98-0.45-1.47c-1.21-1.28-0.86-2.15-1.09-3.73c-0.13-0.46-0.26-0.91-0.39-1.37c-0.57-0.45-1.13-0.91-1.7-1.36    c-0.51,0-1.17-0.63-1.53-0.96c-0.92-1.01-1.84-2.01-2.75-3.02C248.97,129.56,247.35,128.63,248.05,127.8z"/>
            <circle cx="266.1" cy="138.65" r="1.586"/>
        </g>
        <g id="__Oltu">
            <path d="    M280.82,157.54c0.52,0.9,1.04,1.79,1.55,2.69c0.26,0.75,0.53,1.51,0.79,2.26c0.73,1.06,1.84,1.66,3.06,1.81    c0.86,0.86,2.12,1.33,3.28,1.47c1.21,0.96,1.81,2.31,2.74,3.5c0.97,1.06,1.95,2.12,2.92,3.19c0.19,0.15,0.94,0.72,1.13,0.87    c0.21,0.06,1.05,0.05,1.48-0.19c0.29,0.05,0.59,0.1,0.88,0.15c0.77-0.19,1.53-0.37,2.3-0.56c0.79-0.09,2.52-0.28,3.17-0.72    c1.99-1.15,3.99-2.31,5.98-3.46c0.38-0.14,0.75-0.28,1.13-0.42c0.95-0.52,1.91-1.04,2.86-1.55c1.06-0.79,2.11-1.59,3.17-2.38    c1.09-0.6,2.96-1.35,4.05-1.95c1.17-1.02,1.89-1.89,2.36-2.59c1.31-0.21,2.85-1.18,4.12-1.45c1.55-0.33,2.72,1.11,3.79,1.93    c0.58,0.44,1.24,0.91,1.55,1.59c0.68,0.41,1.56,0.93,1.56,1.23c0.6,0.57,1.21,1.13,1.81,1.7c0.94,0.87,1.89,1.74,2.83,2.6    c0.6,0.11,1.21,0.23,1.81,0.34c0.49,0.15,0.98,0.3,1.47,0.45c0.6,0.15,1.21,0.3,1.81,0.45c0.45-0.11,0.91-0.23,1.36-0.34    c0.68,0.04,1.36,0.08,2.04,0.11c1.28-0.4,2.48-0.81,3.85-0.79c2,0.3,4,0.6,6,0.91c0.62,0.46,1.41,0.66,2.16,0.86    c0.43,0.12,2.66,0.44,2.93,0.27c0.58,0.25,1.16,0.5,1.74,0.75c0.52,0.09,1.03,0.18,1.55,0.27c1.12,0.51,2.25,1.01,3.37,1.52    c0.51,0.22,1.11,0.44,1.5,0.84c0.25,0.27,0.5,0.55,0.75,0.82c0.63,0.54,1.25,1.08,1.88,1.62c0.49,0.73,0.97,1.47,1.45,2.2    c0.33,0.72,0.67,1.44,1,2.16c0,0.23,0.06,1.08,0.27,1.15c1.16,0.26,1.59,0.1,2.45,0.1c0.2,0,1.01,0,1.01,0    c-0.07-1.36-0.15-2.72-0.22-4.08c0.04-1.47,0.08-2.94,0.11-4.42c-0.27-0.67-0.54-1.35-0.82-2.02c-0.48-0.72-0.97-1.45-1.45-2.17    c-0.29-0.67-0.75-1.28-1.25-1.81c-1.93-2.09-4.42-3.47-6.46-5.44c-0.46-0.33-0.92-0.66-1.38-0.99c-0.48-0.56-0.86-1.05-1.13-1.72    c-0.18-0.49-0.37-0.98-0.55-1.48c0.05-0.93-0.1-1.85,0.34-2.72c0.68-1.35,1.6-2.61,2.04-4.08c0.15-0.3,0.3-0.6,0.45-0.91    c0.66-0.75,1.4-1.45,1.86-2.35c0.41-0.93,0.82-1.86,1.23-2.79c0.14-0.44,0.28-0.88,0.42-1.32c0.08-0.53,0.15-1.06,0.23-1.59    c0.19-0.75,0.38-1.51,0.57-2.26c0.54-0.83,0.91-2.17,0.91-3.17c0.25-0.25,0.28-0.79,0.31-1.14c0.11-1.2-0.67-2.26-0.67-3.48    c0-1.39,0.06-2.73-0.21-4.09c-1.01-2.25-2.01-4.49-3.02-6.74c-0.36-0.93-0.48-1.9-0.49-2.89c0-0.42,0-0.83,0-1.25    c0.17-0.67,0.35-1.34,0.52-2.01c0.12-0.31,0.37-0.54,0.16-0.82c0.42-0.26,2.14-1.41,2.49-1.36c0.68-1.33,2.04-2.5,2.04-4.08    c0.12-0.53,0.25-1.06,0.37-1.59c0-1.45-1.04-2.83-1.43-4.19c-0.28-1.66-0.71-4.42-0.71-4.42c-0.53-0.96-3.25-0.19-4.24-0.22    c-0.22-0.04-0.45-0.07-0.68-0.11c-0.61,0.15-1.39,0.38-2.02,0.28c-0.84-0.14-1.65-0.18-2.5-0.09c-0.87,0.2-1.74,0.4-2.61,0.61    c-1.28,0-2.57,0-3.85,0c-0.45-0.08-0.91-0.15-1.36-0.23c-0.34,0.04-0.68,0.08-1.02,0.11c-0.42-0.23-0.83-0.45-1.25-0.68    c-0.51-0.39-1.22-0.42-1.81-0.57c-0.66-0.16-1.02-1.16-1.7-1.13c-0.42-0.57-0.83-1.13-1.25-1.7c-0.45-0.44-0.91-0.88-1.36-1.32    c-0.41-0.48-0.73-0.88-1.29-1.16c-0.75-0.37-2.7-0.86-3.46-0.46c-1.17-0.08-2.34-0.15-3.51-0.23c-0.45,0.04-0.91,0.08-1.36,0.11    c-0.53-0.15-1.06-0.3-1.58-0.45c-0.6-0.01-1.21-0.02-1.81-0.02c-0.68-0.13-1.37-0.27-2.05-0.4c-0.56-0.03-1.12-0.06-1.67-0.08    c-0.98-0.32-1.97-0.64-2.95-0.96c-0.49-0.26-0.98-0.53-1.47-0.79c-0.56-0.03-1.12-0.06-1.68-0.1c-1.24-0.27-2.23-1-3.4-1.45    c-0.4-0.16-1.02-0.25-1.26-0.6c-0.26-0.11-1.31-0.5-1.58-0.61c-0.24,0.59-0.24,0.33-0.65,0.96c-0.32,0.56-0.64,1.11-0.96,1.67    c-0.22,0.23-0.45,0.46-0.67,0.7c-0.35,0.18-0.69,0.36-1.04,0.54c-1.21,0.69-2.13,1.7-2.93,2.86c-0.62,0.9-0.17,2.03-0.34,2.94    c-0.2,0.57-0.4,1.14-0.59,1.71c-0.17,1.54-0.34,3.08-0.51,4.62c-0.13,1.15-0.02,2.71-0.61,3.74c-0.79,1.36-1.62,2.77-2.82,3.86    c-0.6,0.34-1.21,0.67-1.81,1.01c-0.37,0.11-0.76,0.39-1.25,0.46c-1.29,0.17-2.94,0.29-3.4,0.11c-0.81-0.29-2.09-0.57-2.94-0.57    l0.22,0.03c0.24,0.35,0.59,1.02,0.58,1.44c0.23,0.42,0.45,0.83,0.68,1.25c0.61,0.79,1.22,1.59,1.83,2.38    c0.49,0.85,1.07,1.51,1.74,2.2c0.17,0.17,0.34,0.34,0.51,0.51c0,0.4,0.3,1.89,0.57,2.15c0.11,1.13,0.23,2.26,0.34,3.4    c0,0.87,0,1.74,0,2.6c0.03,0.98-0.6,1.95-1,2.78c-0.37,0.93-0.74,1.85-1.11,2.78c-0.56,1.29-0.77,2.75-1.62,3.96    c0,0.49-0.17,1.19-0.45,1.59c-1.01,1.32-2.03,2.64-3.04,3.97c-0.46,0.57-0.92,1.13-1.37,1.7c-1.28,0.87-2.57,1.74-3.85,2.6    c-0.17,0.21-0.33,0.42-0.5,0.63c-0.51,0.47-1.03,0.94-1.54,1.4c-0.3,0.55-0.71,1.32-1.36,1.47c-0.15,0.19-0.3,0.38-0.45,0.57    c-0.36,1.03-0.46,2-0.68,3.06c-0.3,0.72-0.6,1.43-0.91,2.15c-0.72,0.49-1.43,0.98-2.15,1.47c-1.59,0.1-3.19,0.19-4.36,1.36    C280.84,157.41,280.72,157.37,280.82,157.54z"/>
            <circle cx="338.88" cy="135.35" r="1.586"/>
        </g>
        <g id="__Narman">
            <path d="    M312.38,224.55c0-0.35,0.43-0.19,0.66-0.15c0.76,0.06,1.52,0.12,2.29,0.18c2.42,0.26,5.44-1.27,7.6-2.25l0.44-0.27    c0.41-0.15,0.83-0.31,1.24-0.46c0.81-0.33,3.03-1.27,3.51-1.91c0.31-0.22,0.61-0.44,0.92-0.67c0.54-0.47,1.09-0.95,1.63-1.42    c0.34-0.4,0.68-0.81,1.01-1.21c1.05-0.82,1.83-2.32,2.22-3.61c0.33-0.8,0.67-1.6,1-2.4c0.77-2.04,1.47-4.08,2.42-6.04    c0.07-0.25,0.14-0.49,0.21-0.74c0.65-1.06,1.31-2.03,2.13-2.95c0.21-0.23,0.42-0.45,0.63-0.68c0.85-0.59,1.69-1.18,2.54-1.77    c0.5-0.16,0.99-0.33,1.49-0.49c0.45,0,0.91,0,1.36,0c0.53-0.19,1.06-0.38,1.58-0.57c0.26,0.04,0.53,0.08,0.79,0.11    c0.81,0.09,1.87-0.33,2.31-0.99c0.65-1,1.47-2.4,2.33-3.2c0.32-0.24,0.64-0.47,0.96-0.71c0.29-0.14,0.57-0.28,0.86-0.42    c0.53-0.04,1.06-0.08,1.59-0.11c1.02,0.29,2.1,1.13,3.17,1.13c0.57,0.57,1.71,0.84,2.49,0.68c0-0.05,1.1,0.51,1.36,0.68h0.11    c-0.81-0.81-0.67-3.02-0.59-4.08c0.03-0.4,0.08-1.07,0.36-1.36c0.3-1.34,1.07-2.52,2.15-3.4c0.68-0.34,1.36-0.68,2.04-1.02    c1.09-0.75,2.5-1.23,3.74-1.58c1.28-0.6,2.57-1.21,3.85-1.81c0.64,0,1.51-0.21,1.51-0.21c-0.23-0.14-0.27-0.91-0.27-1.15    c-0.33-0.72-0.67-1.44-1-2.16c-0.48-0.73-0.97-1.47-1.45-2.2c-0.63-0.54-1.25-1.08-1.88-1.62c-0.25-0.27-0.5-0.55-0.75-0.82    c-0.39-0.4-0.99-0.61-1.5-0.84c-1.12-0.51-2.25-1.01-3.37-1.52c-0.52-0.09-1.03-0.18-1.55-0.27c-0.58-0.25-1.16-0.5-1.74-0.75    c-0.27,0.17-2.5-0.15-2.93-0.27c-0.75-0.2-1.54-0.4-2.16-0.86c-2-0.3-4-0.6-6-0.91c-1.37-0.02-2.57,0.39-3.85,0.79    c-0.68-0.04-1.36-0.08-2.04-0.11c-0.45,0.11-0.91,0.23-1.36,0.34c-0.6-0.15-1.21-0.3-1.81-0.45c-0.49-0.15-0.98-0.3-1.47-0.45    c-0.6-0.11-1.21-0.23-1.81-0.34c-0.94-0.87-1.89-1.74-2.83-2.6c-0.6-0.57-1.21-1.13-1.81-1.7c0-0.3-0.88-0.83-1.56-1.23    c-0.31-0.69-0.98-1.15-1.55-1.59c-1.07-0.82-2.25-2.26-3.79-1.93c-1.27,0.27-2.81,1.24-4.12,1.45c-0.47,0.71-1.19,1.58-2.36,2.59    c-1.09,0.6-2.96,1.35-4.05,1.95c-1.06,0.79-2.11,1.58-3.17,2.38c-0.95,0.52-1.91,1.04-2.86,1.55c-0.38,0.14-0.75,0.28-1.13,0.42    c-1.99,1.15-3.99,2.31-5.98,3.46c-0.65,0.44-2.37,0.63-3.17,0.72c-0.77,0.19-1.53,0.37-2.3,0.56c-0.29-0.05-0.58-0.1-0.88-0.15    c-0.43,0.24-1.27,0.25-1.48,0.19l-0.22-0.19c-0.75,0.54-1.5,1.08-2.24,1.63c-0.24-0.08-0.71,0.24-0.94,0.36    c-0.45,0.17-0.89,0.34-1.34,0.51c-0.83,0.72-1.66,1.43-2.49,2.15c-0.45,0.58-0.64,1.27-1.02,1.81c-0.18,0.26-0.36,0.52-0.53,0.78    c-0.63,1.48-0.82,3.66-0.82,5.22c-0.93,1.08-1.25,1.38-1.13,2.83c0.07,0.86,1.13,1.45,1.13,2.15c0-0.41,1.06,0.71,1.36,1.13    c0.83,0.72,1.66,1.43,2.49,2.15c1.27,0.69,2.07,1.21,3.06,2.26c0.49,0.6,0.98,1.21,1.47,1.81c0.68,0.68,1.36,1.36,2.03,2.03    c0.53,0.49,1.06,0.98,1.59,1.48c0.14,0.34,0.17,0.96,0.45,1.13c-0.34,0.57-0.69,1.15-1.03,1.72c-0.89,1.15-2.14,2.04-3.4,2.77    c-0.94,0.62-1.88,1.23-2.81,1.85c-0.79,0.15-1.59,0.3-2.38,0.45c-1.06,0.3-2.11,0.61-3.17,0.91c-0.19,0.06-1.02,0.3-1.02,0.34    c0.66,0.74,1.52,1.08,2.26,1.7c0.98,0.96,1.97,1.92,2.95,2.87c0.91,0.6,2.04,0.62,3.05,0.98c0.31,0.17,0.62,0.34,0.93,0.52    c0.73,0.34,1.47,0.55,2.24,0.73c0.51,0.12,2,1.09,2.38,1.47c0.83,0.3,1.66,0.6,2.49,0.91c0.3,0.15,0.6,0.3,0.91,0.45    c0.38,0.38,0.76,0.75,1.13,1.13c0.83,0.25,1.66,0.5,2.48,0.74c0.27,0.05,0.53,0.11,0.8,0.16c1.02,0.39,2.03,0.78,3.05,1.17    c0.53,0.25,1.06,0.5,1.6,0.75L312.38,224.55z"/>
            <circle cx="319.18" cy="178.64" r="1.586"/>
        </g>
        <g id="__Şenkaya">
            <path d="    M407.71,77.04c1.05,0.37,2.51,0.45,3.63,0.55c0.8,0.11,1.6,0.22,2.39,0.33c0.32,0.02,0.96-0.15,1.12-0.13    c1.92,0.34,3.85,0.68,5.77,1.02c0.76,0.18,1.52,0.35,2.27,0.53c0.38,0.13,0.75,0.25,1.13,0.38c1.32,1.36,2.31,3.09,3.32,4.7    c0.4,0.58,0.81,1.17,1.21,1.75c1.32,1.13,2.64,2.26,3.96,3.4c0.45,1.09,0.91,2.19,1.36,3.28c0.04,1.51,0.08,3.02,0.11,4.53    c0.04,2.42,0.08,4.83,0.11,7.25c-0.06,0.57-0.12,1.13-0.18,1.7c-0.13,1.15-0.27,2.35-0.16,3.51c0.34,0.04-0.11,0.19,0.23,0.23    c-0.17,0.04-0.31-0.08-0.11,0.11c0.09,0.18,0.08-0.07,0.16,0.09c0.29,0.65,0.58,1.29,0.87,1.94c0.11,0.34,0.22,0.69,0.33,1.03    c-0.17,0.64-0.33,1.27-0.5,1.91c-0.34,0.81-0.82,1.63-0.98,2.51c-0.19,0.87-0.38,1.74-0.57,2.6c-0.54,0.94-1.07,1.88-1.61,2.82    c-0.52,1.31-0.85,2.59-1.11,3.97c-0.34,0.29-0.51,0.54-0.91,0.79c0.04,0.53,0.08,1.06,0.11,1.59c-0.61,2.29-1.05,4.65-1.25,7.01    c-0.46,5.61-0.69,11.23-1.7,16.78c-0.29,1.6,0.09,3.25-0.11,4.85c-0.16,0.52-0.32,1.05-0.48,1.57c-0.11,0.34-0.22,0.69-0.33,1.03    c-0.45,0.98-0.9,1.97-1.34,2.95c-0.72,1.22-2.25,2.03-3.32,2.84c-0.14,0.15-0.28,0.29-0.42,0.44c-1.92,0.98-3.85,1.96-5.77,2.94    c-1.32,0.6-2.64,1.21-3.96,1.81c-0.34,0.23-0.68,0.45-1.02,0.68c-1.77,0.93-3.53,1.86-5.3,2.79c-1.52,0.5-3.03,1.01-4.55,1.51    c-3.69,1.52-7.73,2.65-11.66,3.26c-1.47,0.29-2.95,0.57-4.42,0.86c-0.7,0.27-1.51,0.38-2.26,0.38c-0.31,0-2.03,0.12-2.05-0.2    c-0.07-1.36-0.15-2.72-0.22-4.08c0.04-1.47,0.08-2.94,0.11-4.42c-0.27-0.67-0.54-1.35-0.82-2.02c-0.48-0.72-0.97-1.45-1.45-2.17    c-0.29-0.67-0.75-1.28-1.25-1.81c-1.93-2.09-4.42-3.47-6.46-5.44c-0.46-0.33-0.92-0.66-1.38-0.99c-0.48-0.56-0.86-1.05-1.13-1.72    c-0.18-0.49-0.37-0.98-0.55-1.48c0.05-0.93-0.1-1.85,0.34-2.72c0.68-1.35,1.6-2.61,2.04-4.08c0.15-0.3,0.3-0.6,0.45-0.91    c0.66-0.75,1.4-1.45,1.86-2.35c0.41-0.93,0.82-1.86,1.23-2.79c0.14-0.44,0.28-0.88,0.42-1.32c0.08-0.53,0.15-1.06,0.23-1.59    c0.19-0.75,0.38-1.51,0.57-2.26c0.54-0.83,0.91-2.17,0.91-3.17c0.25-0.25,0.28-0.79,0.31-1.14c0.11-1.2-0.67-2.26-0.67-3.48    c0-1.39,0.06-2.73-0.21-4.09c-1.01-2.25-2.01-4.49-3.02-6.74c-0.36-0.93-0.48-1.9-0.49-2.89c0-0.42,0-0.83,0-1.25    c0.17-0.67,0.35-1.34,0.52-2.01c0.12-0.31,0.37-0.54,0.16-0.82c0.42-0.26,2.14-1.41,2.49-1.36c0.68-1.33,2.04-2.5,2.04-4.08    c0.12-0.53,0.25-1.06,0.37-1.59c0-1.45-1.04-2.83-1.43-4.19c-0.28-1.66-0.56-3.31-0.85-4.97c0.37-1.02,1.03-3.22,0.99-3.29    c0.3-0.75,1.06-2.34,1.13-2.38c0.82-1.52,1.76-2.89,2.72-4.3c0.64-0.67,1.27-1.34,1.91-2.01c0.9-0.95,1.82-1.88,2.96-2.52    c0.47-0.33,0.94-0.67,1.41-1c1.87-0.61,3.74-1.22,5.61-1.83c0.53,0.04,1.06,0.08,1.59,0.11c0.56-0.07,1.12-0.14,1.67-0.21    c1.55-0.21,3.1-0.42,4.65-0.64c0.83-0.22,1.55-0.21,2.4-0.28c0.32-0.03,0.59-0.24,0.91-0.11c0.99-0.59,2.05-0.82,3.17-0.79    c0.64-0.47,1.02-0.81,1.81-0.91C407.05,77.12,407.41,76.94,407.71,77.04z"/>
            <circle cx="398.09" cy="132.52" r="1.586"/>
        </g>
        <g id="__Palandöken">
            <path d="    M221.67,297.26c0.63-0.74,1.53-1.4,2.5-2c2.89-1.79,5.31,0.05,7.08,2.27c0.47,0.51,0.94,1.02,1.4,1.53    c1.33,0.88,2.58,1.8,4.08,2.38c0.73,0.28,1.97-0.03,2.49,0.68c1.06-0.15,2.11-0.3,3.17-0.45c1.58-0.68,3.17-1.36,4.76-2.04    l0.31-0.78c-0.32-1.42,0.38-2.63,0.38-4.01c-0.04-0.22-0.09-0.43-0.13-0.65c0.38-0.53,0.15-0.8,0.27-1.44    c0.33-1.22,0.65-2.43,0.98-3.65c0.55-0.24,1.13-1.28,1.13-1.7c0.42-0.49,0.83-0.98,1.25-1.47c1.1-1.19,1.78-2.62,2.83-3.85    c1.23-1.27,2.45-2.54,3.68-3.81c0.25-0.39,0.51-0.78,0.77-1.17c0.16-0.21-0.32-0.97-0.48-1.25c-0.61-1.06-2.02-0.89-2.46-2.39    c-0.37-1.24-0.56-2.51-1.05-3.72c-0.43-0.48-0.86-0.96-1.28-1.45c-0.63-0.76-1.26-1.53-1.89-2.29c-0.23-0.38-0.45-0.75-0.68-1.13    c-1.07-1.39-2.15-2.77-3.22-4.16c-0.38-0.54-0.73-1.15-0.86-1.84c-0.6-0.83-1.2-1.67-1.8-2.51c-0.23-0.38-0.44,0.13-0.81,0.13    c-0.49,0.45-1.77,1.51-1.92,1.58c-1.85,1.17-3.7,2.34-5.55,3.51c-0.75,0.45-1.51,0.91-2.26,1.36c0.25,0.28-1.13,0.98-1.7,1.02    c-0.45,0.3-0.91,0.6-1.36,0.91c-1.55,2.04-3.1,4.08-4.64,6.11c-0.81,1.16-1.99,1.94-2.49,3.28c-0.39-0.01-0.53,0.37-0.91,0.45    c-0.69,0.15-1.24,0.57-1.3,0.57c-0.55,0.07-1.19,0.22-1.42,0.22c-0.42,0-0.84,0-1.25,0c-0.24,0.01-0.82,0.08-1.01,0.46    c-0.26,0.11-0.53,0.23-0.79,0.34c-0.74,0.19-1.34,0.5-1.92,1.02c-0.11,0.23-0.23,0.45-0.34,0.68c-0.23,0.28-0.47,0.55-0.7,0.83    c-0.35,0.37-1.69,1.17-2.3,1.16c-1.3,0.1-5.04-0.32-6.17,0.27c-0.23,0.12-0.68,0.54-0.68,0.79c-0.75,0.68-1.51,1.37-2.26,2.05    c-1.93,1.32-3.85,2.63-5.78,3.95c-0.26,0.26-0.53,0.53-0.79,0.79c-0.38,0.23-0.75,0.45-1.13,0.68c-0.53,0.34-1.06,0.68-1.58,1.02    c-0.04,0.08-0.08,0.15-0.11,0.23c-0.57,0.45-1.26,0.57-1.9,0.84c-1.6,0.66-3.15,1.2-4.89,1.31c-0.32-0.3-0.93-0.33-1.35-0.69    c-0.12-0.51-0.23-1.02-0.35-1.53c-0.29-0.57-1.27-0.57-1.9-0.89c-0.76-0.48-1.52-0.95-2.29-1.43c-0.87-0.38-1.74-0.75-2.6-1.13    c-0.61-0.44-0.79-1.24-0.79-1.92c-0.19-0.3-0.38-0.6-0.57-0.91c-0.55,0-1.13-0.99-1.47-1.36c-0.28-0.28-1.42-0.34-1.81-0.23    c-0.3,0.15-0.6,0.3-0.91,0.45c-0.34-0.29-2.27,0.04-2.86,0.02c-1.35-0.16-2.7-0.31-4.04-0.47c-0.37-0.37-0.75-0.46-1.25-0.57    c-0.19-0.11-0.38-0.23-0.57-0.34c-0.34-0.09-0.96-0.39-1.25-0.11c-0.04-0.04-0.08-0.08-0.11-0.11c0,0,0.28,1.2,0.23,1.59    c-0.15,1.36-0.3,2.72-0.45,4.08c-0.28,0.58-0.29,1.17-0.35,1.8c-0.15,0.76-0.29,1.52-0.44,2.28c-0.15,0.54-0.43,0.67-0.68,1.02    c-0.26,0.6-0.53,1.21-0.79,1.81c0,0.34,0,0.68,0,1.02c0,1.41,0.04,1.61-0.68,2.83c-0.04,1.47-0.08,2.94-0.11,4.42    c0.04,0.26,0.11,1.02,0.11,1.13c0.23,0.23,1.15,0.79,1.47,0.79c0.49,0.53,0.98,1.06,1.47,1.58c0.11,0.19,0.23,0.38,0.34,0.57    c0,0.42,0.79,1.36,1.25,1.36c0.72,0.72,1.6,0.94,2.5,1.34c2.1,0.91,4.31,1.24,6.56,1.38c0.43,0.33,1.39,0.56,1.94,0.68    c0.22,0.11,0.45,0.23,0.67,0.34c0.64,0.06,1.29,0.12,1.93,0.17c0.28,0.05,0.79,0.23,1.02,0.1c0.77,0.12,1.35,0.41,2.14,0.41    c0.45,0.26,0.79,0.45,1.33,0.37c0.47-0.2,0.94-0.39,1.41-0.59c0.52-0.06,0.97-0.24,1.45-0.46c0.49-0.19,0.98-0.38,1.47-0.57    c0.57-0.19,1.13-0.38,1.7-0.57c0.43-0.48,2.28-1.03,2.94-1.13c0.55-0.55,1.63-0.94,2.38-1.13c1.21-0.19,2.42-0.38,3.62-0.57    c0.24-0.47,1.08-0.41,1.47-0.68c0.23-0.16,0.5-0.11,0.79-0.11c0.88-0.62,2.65-0.37,3.74-0.34c0.56-0.24,1.13-0.49,1.69-0.73    c0.83-0.44,1.66-0.87,2.49-1.31c0.43,0.09,1.39-0.15,1.7-0.45c0.45-0.13,0.9-0.25,1.35-0.38c1.25-0.48,2.5-0.96,3.74-1.44    c0.83-0.6,1.66-1.21,2.49-1.81c1.28-0.6,2.57-1.21,3.85-1.81L221.67,297.26z"/>
            <circle cx="222.69" cy="281.96" r="1.586"/>
        </g>
        <g id="__Yakutiye">
            <path d="    M244.1,256.48c-0.49,0.45-1.77,1.51-1.92,1.58c-1.85,1.17-3.7,2.34-5.55,3.51c-0.75,0.45-1.51,0.91-2.26,1.36    c0.25,0.28-1.13,0.98-1.7,1.02c-0.45,0.3-0.91,0.6-1.36,0.91c-1.55,2.04-3.1,4.08-4.64,6.11c-0.81,1.16-1.99,1.94-2.49,3.28    c-0.39-0.01-0.53,0.37-0.91,0.45c-0.69,0.15-1.24,0.57-1.3,0.57c-0.55,0.07-1.19,0.22-1.42,0.22c-0.42,0-0.84,0-1.25,0    c-0.24,0.01-0.82,0.08-1.01,0.46c-0.26,0.11-0.53,0.23-0.79,0.34c-0.74,0.19-1.34,0.5-1.92,1.02c-0.11,0.23-0.23,0.45-0.34,0.68    c-0.23,0.28-0.47,0.55-0.7,0.83c-0.35,0.37-1.69,1.17-2.3,1.16l-0.4-0.97c-0.27-0.27-0.41-0.5-0.58-0.84    c-0.9-1.66-1.89-3.4-1.8-5.39c0.04-0.81-0.58-2.87-1.04-2.88c-0.07-0.13-0.04-1.65-0.43-1.65c-1.23,0-2.67-0.65-3.74-1.25    c-0.94-0.49-1.88-0.99-2.82-1.48c-0.53-0.45-1.06-0.9-1.6-1.35c-0.83-1.34-1.65-2.67-2.48-4.01c-0.1-1.01-0.19-2.02-0.29-3.02    c-0.87-1.99-1.73-3.98-2.6-5.97c-0.93-2.16-1.86-4.31-2.79-6.47c-0.26-0.64-0.53-1.28-0.79-1.93c0.08-0.02,0.15-0.05,0.23-0.07    c0.48-0.13,0.96-0.22,1.47-0.16c0.76,0.1,1.54,0.53,1.93-0.45c0.25-0.49,0.5-0.99,0.75-1.48c0.13-0.34,0.25-0.67,0.38-1.01    c0.05-0.9,0.1-1.81,0.16-2.71c-0.04-0.79-0.27-1.43-0.27-2.27c-0.22-0.22-0.21-0.71-0.27-1.01c-0.17-0.87-0.3-1.72-0.3-2.61    c0-1.19-0.05-3.47,1.22-3.96c0.34-0.13,2.46-0.5,2.75-0.34c0.42-0.11,0.83-0.23,1.25-0.34c0.77-0.16,1.5-0.01,2.24-0.39    c0.57-0.36,1.15-0.72,1.72-1.09c0.56-0.3,1.13-0.61,1.69-0.91c1.21-0.86,2.43-1.73,3.64-2.59c0.34-0.4,0.69-0.8,1.03-1.2    c0.39-0.59,0.71-1.39,1.34-1.76c1.2-2.48,1.45-5.4,2.29-8.01c0.15-0.61,0.31-1.22,0.46-1.82c0.56-0.94,1.13-1.89,1.69-2.83    c0.58-0.84,1.19-1.23,1.9-1.94c0.26-0.23,0.53-0.45,0.79-0.68c0.23-0.19,0.45-0.38,0.68-0.57c0,0.61,0.27,1.1,0.45,1.7    c0.35,0.21,0.69,0.42,1.04,0.63c0.81,0.4,1.57,0.67,2.48,0.73c0.89,0.06,1.62-0.24,2.48-0.33c1.14-0.12,2.27-0.25,3.41-0.37    c0.9,0.01,1.8,0.02,2.71,0.03c0.37-0.08,0.75-0.17,1.12-0.25c1.78-0.18,3.56-0.36,5.34-0.54c1.02-0.42,2.04-0.83,3.06-1.25    c0.45-0.08,0.91-0.15,1.36-0.23c0.15,0.03,0.3,0.05,0.45,0.08c0.58-0.08,1.44-0.36,2.05-0.08c0.68-0.19,1.36-0.38,2.04-0.57    c0.34-0.19,0.68-0.38,1.02-0.57c1.13,0.13,2.26,0.26,3.39,0.39c1,0.05,2,0.11,2.99,0.16c0.48,0.33,1.63,1.52,1.99,1.6    c0.4,1.25,0.55,2.65,1.36,3.74c0.08,0.04,0.15,0.08,0.23,0.11c1.17,1.83,3.23,3.13,4.86,4.53c1.77,1.52,3.79,2.97,5.9,3.97    c0.52,0.25,1.08,0.61,1.47,1.02c0.73,0,1.18,0.56,1.81,0.79c0.39,0.14,0.73,0.04,1.02,0.34c0.46,0.22,0.95,0.76,1.41,0.98    c0.04-0.12-1.17,1.01-1.52,1.4c-1.58,1.81-3.17,3.62-4.76,5.44c-0.73,0.41-1.15,0.98-1.7,1.59c-0.98,0.98-1.96,1.96-2.94,2.94    c-0.34,0.23-0.68,0.45-1.02,0.68c-0.91,0.75-1.82,1.51-2.72,2.26c-0.43,0.36-0.86,0.72-1.29,1.08c-0.17,0.31-0.5,0.47-0.77,0.71    c-0.52,0.46-0.98,1.29-1.67,1.5c-0.84,1.16-1.76,2.23-2.72,3.28c-0.52,0.61-1.04,1.22-1.56,1.83c-0.84,0.74-1.85,1.44-2.51,2.36    c-0.2,0.33-0.4,0.66-0.6,0.99c-0.63,0.73-1.26,1.45-1.89,2.18c-0.23,0.3-0.45,0.6-0.68,0.91c-0.55,0.55-1.69,1.64-1.91,2.37    c-0.37,1.23-0.41,2.66-0.45,3.96c0.08,0.43,0.15,0.85,0.23,1.28L244.1,256.48z"/>
            <circle cx="222.22" cy="266.75" r="1.586"/>
        </g>
    </g>
</svg>