<?xml version="1.0" encoding="UTF-8"?>
<!DOCTYPE svg PUBLIC "-//W3C//DTD SVG 1.1//EN" "http://www.w3.org/Graphics/SVG/1.1/DTD/svg11.dtd">
<svg version="1.1" id="HaritaCizim" xmlns="http://www.w3.org/2000/svg" xmlns:xlink="http://www.w3.org/1999/xlink" x="0px" y="0px" viewBox="0 0 600 470" preserveAspectRatio="none">
    <defs id="__def">
        <radialGradient id="f">
            <stop offset="0" stop-color="white" stop-opacity="1"/>
            <stop id="STOP1" offset=".4" stop-opacity="1"/>
            <stop offset="1" stop-color="white" stop-opacity=".2"/>
        </radialGradient>
        <filter id="__flt1" x="0" y="0" width="200%" height="200%" filterUnits="objectBoundingBox">
            <feGaussianBlur in="SourceAlpha" stdDeviation="3" result="blur1"/>
            <feSpecularLighting result="specOut" in="blur1" specularConstant="1.5" specularExponent="20" lighting-color="#bbbbbb">
                <feDistantLight azimuth="45" elevation="30"/>
            </feSpecularLighting>
            <feComposite in="specOut" in2="SourceAlpha" operator="in" result="specOut"/>
            <feComposite in="SourceGraphic" in2="specOut" operator="arithmetic" k1="0" k2="1" k3="1" k4="0"/>
        </filter>
        <filter id="__flt2" x="0" y="0" width="200%" height="200%" filterUnits="objectBoundingBox">
            <feGaussianBlur in="SourceAlpha" stdDeviation="3" result="blur1"/>
            <feSpecularLighting result="specOut" in="blur1" specularExponent="20" lighting-color="#bbbbbb">
                <fePointLight x="-2000" y="100" z="2000"/>
            </feSpecularLighting>
            <feComposite in="specOut" in2="SourceAlpha" operator="in" result="specOut"/>
            <feComposite in="SourceGraphic" in2="specOut" operator="arithmetic" k1="0" k2="1" k3="1" k4="0"/>
        </filter>
        <filter id="__flt3" x0="-50%" y0="-50%" width="200%" height="200%" filterUnits="objectBoundingBox">
            <feGaussianBlur in="SourceAlpha" stdDeviation="3" result="blur"/>
            <feOffset in="blur" dx="0" dy="0" result="offsetBlur"/>
            <feSpecularLighting in="blur" surfaceScale="4" specularConstant=".5" specularExponent="20" lighting-color="flavor" result="specOut">
                <fePointLight x="-5000" y="-10000" z="5000"/>
            </feSpecularLighting>
            <feComposite in="specOut" in2="SourceAlpha" operator="in" result="specOut"/>
            <feComposite in="SourceGraphic" in2="specOut" operator="arithmetic" k1="0" k2="1" k3="1" k4="0" result="litPaint"/>
            <feMerge>
                <feMergeNode in="offsetBlur"/>
                <feMergeNode in="litPaint"/>
            </feMerge>
        </filter>
        <filter id="__flt4" x0="-50%" y0="-50%" width="200%" height="200%">
            <feGaussianBlur in="SourceAlpha" stdDeviation="2" result="blur"/>
            <feOffset dy="-1" dx="-1"/>
            <feComposite in2="SourceAlpha" operator="arithmetic" k2="-1" k3="1" result="hlDiff"/>
            <feFlood flood-color="white" flood-opacity=".7"/>
            <feComposite in2="hlDiff" operator="in"/>
            <feComposite in2="SourceGraphic" operator="over" result="withGlow"/>
            <feOffset in="blur" dy="3" dx="3"/>
            <feComposite in2="SourceAlpha" operator="arithmetic" k2="-1" k3="1" result="shadowDiff"/>
            <feFlood flood-color="black" flood-opacity="1"/>
            <feComposite in2="shadowDiff" operator="in"/>
            <feComposite in2="withGlow" operator="over"/>
        </filter>
        <filter id="__golge1" x="0" y="0" width="200%" height="200%" filterUnits="userSpaceOnUse">
            <feOffset result="offOut" in="SourceAlpha" dx="8" dy="8"/>
            <feGaussianBlur result="blurOut" in="offOut" stdDeviation="3"/>
            <feBlend in="SourceGraphic" in2="blurOut" mode="normal"/>
        </filter>
    </defs>
    <g id="__Harita" fill="white" stroke="#000000" stroke-width="0.25" stroke-miterlimit="10" display="none">
        <rect id="__cer" x="0" y="0" fill="#000000" opacity="0" width="600" height="470"/>
        <g id="__İnönü">
            <path d="   M119.84,160.12c-0.05,0.95-0.1,1.91-0.15,2.86c0.44,0.95,0.89,1.91,1.33,2.86c0.16,0.64-0.39,1.74-0.84,2.19   c0.07,0.49,0.14,0.99,0.22,1.48c-0.04,1.69-0.08,3.38-0.12,5.07c0.42,1.05-0.12,2.62-0.09,3.71c0.01,0.4,0.33,1.11-0.17,1.35   c-1.9-0.44-2.46-0.06-3.87,1.35c-0.54,0-0.97,0.53-1.35,0.84c-0.78,0.64-1.97,0.94-2.53,1.85c-0.75,0.31-3.18,1.44-3.54,2.02   c-0.29,0.08-0.57,0.15-0.86,0.23c-0.6,0.29-0.95,1.23-1.67,1.12c-1.11,0.82-2.99,2.41-4.38,2.53c-0.7,0.6-2.68,2.56-3.37,2.69   c-0.38,0.79-0.77,1.58-1.15,2.37c-0.01,0.78-0.02,1.56-0.03,2.35c0.58,1.11,1.26,3.77,2.19,4.55c0.11,0.28,0.22,0.56,0.34,0.84   c0.08,0.64,0.02,1.61,0.51,2.02c-0.06,0.9-0.11,1.8-0.17,2.69c0.04,0.67,0.08,1.34,0.13,2.01c-0.11,0.39-0.22,0.78-0.33,1.17   c0,0.29,0.06,1.21-0.31,1.18c-0.5-0.08-1-0.16-1.5-0.24c-2.92,0.76-5.84,1.52-8.77,2.27c-0.84,0.11-1.68,0.22-2.53,0.34   c-0.51-0.08-1.17-0.34-1.52,0.17c-0.62-0.08-1.64-0.39-2.19,0c-1.01-0.11-2.02-0.22-3.03-0.34c-0.39,0.17-0.79,0.34-1.18,0.51   c-1.4,0.22-2.19,0.96-3.56,1.15c-0.23,0.31-1.43,0.51-1.83,0.37c-0.84,0.11-1.68,0.22-2.53,0.34c-0.84,0.11-1.68,0.22-2.53,0.34   c-1.91,0.69-3.82,1.38-5.73,2.07c-0.4,0.21-1.8,0.64-2.12,0.48c-0.97-0.59-0.81-1.08-1.42-2.05c-0.81-1.29-2.06-2.24-2.69-3.54   c-0.22-0.22-0.45-0.45-0.67-0.67c-0.56-0.84-1.12-1.68-1.68-2.53c-0.18-0.44-0.37-0.88-0.55-1.33c-0.59-1.28-1.13-2.48-1.57-3.83   c-0.15-0.59-0.3-1.19-0.45-1.78c-0.7-1.34-1.24-2.79-1.59-4.27c0.04-0.42,0.08-0.83,0.13-1.25c0.84-1.4,1.68-2.81,2.53-4.21   c0.34-1.18,0.67-2.36,1.01-3.54c0.27-0.51,0.54-1.02,0.81-1.53c0.55-1.68,0.61-3.72,1.72-5.2c0.53-0.71,2.28-2.58,3.2-2.53   c0.65-0.53,1.3-1.05,1.96-1.58c0.34-0.38,0.68-0.75,1.02-1.13c1.14-1.57,2.28-3.13,3.42-4.7c1.4-2.41,2.81-4.83,4.21-7.24   c1.41-0.98,2.83-1.97,4.24-2.95c0.46-0.22,1.01-0.65,1.48-0.58c0.32-0.92,1.23-1.29,2.02-1.85c0.47-0.33,0.65-0.52,1.23-0.9   c0.32-0.26,0.64-0.52,0.96-0.78c1.93-0.94,4.13-1.33,6.22-1.72c0.72-0.13,3.16-0.24,3.54-0.64c0.28,0.06,0.56,0.11,0.84,0.17   c0.9-0.41,1.77-0.3,2.69-0.51c0.28,0,0.56,0,0.84,0c2.9-0.37,5.69,0.19,8.55,0.19c0.74,0.27,1.48,0.54,2.23,0.82   c1.31,0.82,2.62,1.63,3.93,2.45c1.4,0.33,2.81,0.66,4.21,0.98c0.64,0.05,1.28,0.11,1.93,0.16c0.95-0.1,3.25-1.16,3.91-0.89   c0.11-0.22,0.22-0.45,0.34-0.67C119.74,159.28,119.84,159.53,119.84,160.12z"/>
            <circle cx="87.84" cy="168.96" r="1.586"/>
        </g>
        <g id="__Beylikova">
            <path d="   M336.73,127.45c0.03,2.75,0.06,5.5,0.08,8.25c0.31,2.04,0.66,4.31,0.28,6.35c0.02,0.62,0.03,1.24,0.05,1.86   c0.13,0.85,0.27,1.36,0.07,2.25c-0.18,0.44-0.36,0.89-0.55,1.33c-0.41,1.6-0.53,2.94-1.5,4.34c-0.38,0.97-0.77,1.94-1.15,2.92   c-0.07,0.98-0.9,4.07-1.68,4.71c-0.11,0.28-0.22,0.56-0.34,0.84c-0.39,1.74-0.79,3.48-1.18,5.22c-0.18,0.79-0.08,2.17,0.34,2.86   c-0.13,2.08,0.43,4.09,0.67,6.23c0.07,0.59,0.19,1.89-0.17,2.36c0.11,0.95,0.22,1.91,0.34,2.86c-0.07,0.67-0.14,1.34-0.22,2   c0.07,0.38,0.14,0.77,0.21,1.15c-0.07,0.96-0.58,3.54,0.01,4.25c-0.92,3.94-0.8,7.46-3.03,10.95c-1.08,1.69-4.57,4.45-3.74,6.58   c0.22,1.08,1.09,2.9,0.2,3.86c0.11,1.01,0.22,2.02,0.34,3.03c0.65,2.02,1.29,4.04,1.94,6.07c0.27,1.08,1.14,2.64,0.53,3.7   l6.13,10.18l5.13,8.08c1.01,1.14,1.49,2.57,2.46,3.79c1.63,2.36,3.25,4.72,4.88,7.07c1.46,1.85,2.92,3.7,4.38,5.56   c1.6,0.84,2.7,2.26,4.21,3.2c0.95,0.44,1.9,0.88,2.85,1.33c0.73,0.12,1.47,0.24,2.2,0.36c0.75-0.24,1.49-0.48,2.24-0.72   c0.71-0.04,1.42-0.08,2.14-0.13c1.46,0.38,2.62,0.2,3.98-0.48c1.01-0.51,1.8-1.25,2.58-2.05c0.23-0.28,0.45-0.56,0.68-0.84   c1.35-1.29,2.7-2.58,4.05-3.87c1.23-1.07,2.47-2.14,3.7-3.2c1.19-0.87,2.41-3.27,3.24-4.53c0.97-1.26,1.95-2.53,2.92-3.79   c0.99-1.62,1.98-3.23,2.97-4.85c0.36-0.59,0.85-1.15,1.47-1.48c0.36-1.8,1.77-3.11,2.53-4.71c0.67-1.46,1.35-2.92,2.02-4.38   c0.35-1.57,0.7-3.14,1.05-4.7c0.15-0.4,0.31-0.79,0.46-1.19c0.06-0.62,0.22-1.52,0.31-2.19c-0.03-0.2,0.02-0.59,0-0.7l-0.06,0.06   l-0.31-1.49c-0.34-3.28-0.34-7.02-0.28-8.36c0.02-0.51,0.65-1.57,1.18-2.3c0-1.54-0.12-2.93-0.47-4.43   c-0.48-1.21-0.96-2.42-1.44-3.64c-0.26-0.54-0.52-1.07-0.78-1.61c-0.26-0.57-0.52-1.14-0.78-1.72c-0.13-0.53-0.27-1.05-0.4-1.58   c-0.9-1.23-1.8-2.47-2.69-3.7c-0.51-0.9-1.01-1.8-1.52-2.69c-0.28-1.07-0.55-2.13-0.83-3.2c-0.05-0.67,0.1-1.81-0.35-2.36   c0.01-0.49-0.05-0.86,0.34-1.18c-0.06-0.34-0.11-0.67-0.17-1.01c0.11-0.39,0.22-0.79,0.34-1.18c-0.11-0.56-0.22-1.12-0.34-1.68   c-0.36-1.28-0.72-2.56-1.08-3.84c-0.42-0.74-0.85-1.48-1.27-2.22c-1.17-1.29-2.59-1.92-3.9-2.99c-0.66-0.29-1.33-0.59-1.99-0.88   c-1.74-0.17-3.48-0.34-5.22-0.51c-0.9,0.11-1.8,0.22-2.69,0.34c-0.8-0.06-1.59-0.13-2.39-0.19c-0.4-0.37-1.07-0.55-1.54-0.9   c-0.6-0.53-1.2-1.07-1.8-1.6c-1.53-2.7-3.6-4.86-5.32-7.46c-0.98-1.56-1.95-3.11-2.93-4.67c-0.24-1.22-0.48-2.45-0.73-3.67   c-0.04-1.13-0.08-2.27-0.12-3.4c-0.27-0.72-0.55-1.44-0.82-2.16c-0.09-0.45-0.09-1.33,0.15-1.71c-0.17-0.51-0.34-1.01-0.51-1.52   c-0.06-1.01-0.11-2.02-0.17-3.03c-0.22-0.83-0.44-1.66-0.66-2.48c-0.66-1.91-2.47-3.99-3.87-5.46c-0.41-0.43-1.95-1.43-2.04-1.83   c-0.9,0.06-1.8,0.11-2.69,0.17c-0.99-0.33-2.11-0.36-3.14-0.09c-1.54,0.65-3.07,1.3-4.61,1.95c-0.67,0.11-1.35,0.22-2.02,0.34   L336.73,127.45z"/>
            <circle cx="348.5" cy="208.7" r="1.586"/>
        </g>
        <g id="__Tepebaşı">
            <path d="   M264.02,174.45c0.14-0.6,0.05-1.43,0.46-1.87c-0.34-1.18-0.67-2.36-1.01-3.54c-1.02-1.54-2.15-3.8-2.02-5.73   c-0.37,0-0.59-1.73-0.37-2.04c0.9-1.42,1.8-2.84,2.7-4.26c0.85-0.23,2.03-1.25,1.88-2.29c0,0.2,0.4,0.6,0.58,0.44   c1.28-1.12,2.88-2.61,4.48-3.27c0.48-0.2,1.39-0.45,1.84-0.2c3.31-1.3,7.21-0.82,10.61-1.35c1.5-0.23,3.39,0.58,4.71-0.17   c0.65,0,1.79-0.01,2.16-0.53c1-1.51-0.18-5.05-0.44-6.88c-0.32-2.29-0.36-4.64-0.54-7.07c-0.28-0.84-0.56-1.68-0.84-2.53   c-0.47-0.52-1.38-1.15-1.52-1.85c-0.45-0.33-0.91-0.67-1.36-1c-0.46-0.41-0.85-0.96-1.5-1.02c-0.28-0.36-0.43-0.84-0.84-1.01   c-0.45-0.67-0.9-1.35-1.35-2.02c-0.28-0.62-0.56-1.23-0.84-1.85c-0.16-1.01-0.2-3.72-0.84-4.38c0.31-2.42,0.9-5.05-0.17-7.41   c-0.44-0.96-1.5-1.51-2.17-2.23c-0.68-0.6-1.36-1.21-2.04-1.81c-1.54-0.74-2.89-0.66-4.55-0.48c-0.51,0.05-1.01,0.1-1.52,0.15   c-1.45-0.19-2.96,0.26-4.36,0.39c-0.68,0.09-1.36,0.19-2.04,0.28c-1.68-0.11-3.37-0.22-5.05-0.34c-0.88-0.26-1.76-0.52-2.64-0.77   c-0.47-0.25-0.93-0.49-1.4-0.74c-0.34-0.34-0.67-0.67-1.01-1.01l-0.47,0.25c-0.23,0.71-0.67,1.27-1.22,1.77   c-0.24,0.22-0.35,0.55-0.34,0.84c-1.1,0.97-1.82,2.17-3.03,3.03c-0.46,0.99-0.92,1.6-1.85,2.19c-0.79,1.09-1.57,2.19-2.36,3.28   c-0.92,0.84-2.1,1.05-3.03,1.77c-0.49,0.38-1.47,0.25-1.68,0.84c-0.4,0.12-0.78,0.15-1.01,0.51c-0.78,0.17-2.54,0.54-2.86,1.35   c-0.57,0.11-1.38,0.15-1.68,0.67c-0.69-0.02-1.84-0.07-2.36,0.51c-1.76,0.32-3.55,0.61-5.22,1.18c-1.76,0.88-3.52,1.75-5.28,2.63   c-1.11,0.5-2.22,1-3.33,1.5c-0.28,0.07-1.16,0.35-1.16,0.08c0.07-0.72,0.15-1.43,0.22-2.15c-0.33-0.31-0.42-1.63-0.22-2.06   c-0.18-0.56-0.36-1.13-0.55-1.69l-0.53,0.41c-0.48,0.48-1.73,0.84-2.47,0.92c-0.8,0.99-2.35,1.68-3.55,2.07   c-0.2,0.45-0.68,0.54-1.15,0.65c-0.63,0.67-2.02,2.29-2.02,3.2c-0.36,0.51-1.01,1.04-1.01,1.68c-0.27,0.31-1.25,1.37-1.51,1.3   c-1.26-0.35-2.46-0.65-3.86-0.76c-0.33-0.35-3.19-0.96-3.73-0.88c-0.96,0.32-1.93,0.65-2.89,0.97c-0.38,0.31-0.77,0.62-1.15,0.93   c-0.6,0.34-2.64,1.21-2.86,1.64c-0.85,0.18-1.7,0.37-2.55,0.55c-0.45,0.16-0.89,0.32-1.34,0.47c-0.52,0.02-1.52,0.27-1.49-0.18   c0.1-1.48,0.54-2.91,0.86-4.38c0.1-0.68,0.2-1.35,0.31-2.03c0.24-0.31,0.45-0.44,0.51-0.84c1.19-0.51,4.2-2.14,4.6-3.25   c0.39-1.06,0.05-1.81-0.23-2.82c0.06-0.84,0.11-1.68,0.17-2.53c-0.1-0.73-0.2-1.45-0.29-2.18c-0.09-0.89-0.18-1.78-0.26-2.66   c-0.22,0.12-0.44,0.25-0.66,0.37c-0.6,0.14-1.21,0.29-1.81,0.43c-1.29,0.31-2.43-0.69-3.69-0.71c-1.69-0.16-3.38-0.32-5.07-0.47   c-0.43-0.47-0.66-0.64-1.27-0.82c-0.43,0.26-0.94-0.03-1.43-0.02c-0.71-0.03-1.43-0.06-2.14-0.08c-0.58-0.31-1.15-0.62-1.73-0.93   c-0.19-0.2-0.38-0.39-0.57-0.59c-0.73-0.23-1.32-1.02-1.78-1.6c-0.28-0.22-0.56-0.45-0.84-0.67c-0.22-0.28-0.45-0.56-0.67-0.84   c-0.34-0.22-0.67-0.45-1.01-0.67c-0.41-0.53-0.82-1.06-1.24-1.58c-0.71-0.25-0.5-1.29-0.95-1.78l-0.32-0.01   c-0.82,0.42-1.64,0.85-2.46,1.27c-2.05,0.65-4.1,1.29-6.15,1.94c-0.41-0.01-0.87-0.1-1.18,0.17c-0.67-0.22-1.35-0.45-2.02-0.67   c-0.9-0.06-2.47-0.05-3.2-0.51c-0.9,0.06-1.8,0.11-2.69,0.17c-0.73,0.45-1.46,0.9-2.19,1.35c-0.54,0.49-0.94,1.33-1.68,1.52   c-0.45,1.29-0.9,2.58-1.35,3.87c-0.06,0.51-0.11,1.01-0.17,1.52c0.07,0.72,0.41,3.21,0,3.7c0.02,0.65,0.05,1.3,0.07,1.95   c-0.14,0.3-0.27,0.61-0.41,0.91c-0.08,0.67-0.17,1.35-0.25,2.02c-0.23,1.18-0.45,2.36-0.68,3.55c-0.11,0.12-0.22,0.23-0.34,0.35   c-0.21,0.48-0.27,1.11-0.76,1.26c-1.07,0.3-2.23,0.51-3.36,0.4c-0.78-0.22-1.57-0.44-2.35-0.66c-0.62,0.09-0.94,0.19-1.35,0.66   c-0.34,0.11-0.67,0.22-1.01,0.34c-0.15-0.13-0.31-0.26-0.46-0.38c-0.65-0.61-2.2-1.42-2.23-2.31c-0.39-0.01-0.77-0.02-1.16-0.03   c-0.23-0.17-1.03-0.64-0.99-0.79c0.11-0.35,0.19-0.36-0.04-0.69c0.3-0.47,0.56-1.44,1.01-1.68c-0.11,0.17-0.22,0.34-0.34,0.51   c-0.52-0.05-1.87-0.68-2.11-0.14c-0.71,1.79-0.64,3.68-0.78,5.52c-0.05,0.65,0.13,1.82-0.47,2.19c0.23,0.6,0.46,1.2,0.69,1.8   c0.57,1.02,1.33,2.02,1.33,3.25c-0.34,1.23-0.67,2.47-1.01,3.7c0.16,1.69,0.77,3.3,1.2,4.83c0.22,0.8,0.44,1.61,0.65,2.41   c0.36,0.75,0.71,1.49,1.07,2.24c0.42,0.34,1.01,0.37,1.29,0.79c0.78-0.13,1.63,0.15,2.19,0c-0.48,0,1.12,1.32,0.04,1.36   c-0.68,0.02-1.22-0.23-2.06-0.18c-0.34,0.17-0.67,0.34-1.01,0.51c-0.77,0.33-2.31,1.86-2.43,2.73c-0.14,1.22-0.29,2.45-0.43,3.67   c-0.05,0.29,0.21,1.01-0.17,1.01c-0.62,0.06-1.23,0.11-1.85,0.17c-0.92-0.37-1.7-0.51-2.69-0.51c0.22,0,0.17-0.06,0.17,0.17   c-0.05,0.95-0.1,1.91-0.15,2.86c0.44,0.95,0.89,1.91,1.33,2.86c0.16,0.64-0.39,1.74-0.84,2.19c0.07,0.49,0.14,0.99,0.22,1.48   c-0.04,1.69-0.08,3.38-0.12,5.07c0.42,1.05-0.12,2.62-0.09,3.71c0.01,0.4,0.33,1.11-0.17,1.35c-1.9-0.44-2.46-0.06-3.87,1.35   c-0.54,0-0.97,0.53-1.35,0.84c-0.78,0.64-1.97,0.94-2.53,1.85c-0.75,0.31-3.18,1.44-3.54,2.02c-0.29,0.08-0.57,0.15-0.86,0.23   c-0.6,0.29-0.95,1.23-1.67,1.12c-1.11,0.82-2.99,2.41-4.38,2.53c-0.7,0.6-2.68,2.56-3.37,2.69c-0.38,0.79-0.77,1.58-1.15,2.37   c-0.01,0.78-0.02,1.56-0.03,2.35c0.58,1.11,1.26,3.77,2.19,4.55c0.11,0.28,0.22,0.56,0.34,0.84c0.08,0.64,0.02,1.61,0.51,2.02   c-0.06,0.9-0.11,1.8-0.17,2.69c0.04,0.67,0.08,1.34,0.13,2.01c-0.11,0.39-0.22,0.78-0.33,1.17c0,0.29,0.06,1.21-0.31,1.18   l1.01,0.18c0.28,0.17,0.56,0.34,0.84,0.51c1.95,1.19,1.88,3.52,1.82,5.55c-0.11,0.39-0.21,0.79-0.32,1.18   c0.06,0.68,0.12,1.35,0.18,2.03c0.34,0.51,0.67,1.01,1.01,1.52c0.46,0.28,0.91,0.55,1.37,0.83c0.11,0.12,0.21,0.24,0.32,0.35   c-0.11,0.34-0.22,0.67-0.34,1.01c0.28,0.17,0.56,0.34,0.84,0.51c0.34-0.17,0.67-0.34,1.01-0.51c0.17,0.06,0.34,0.11,0.51,0.17   c-0.02-0.05-0.05-0.09-0.07-0.14c-0.08-0.15-1.11-2.26-0.62-1.7c0.22,0.2,0.2,0.15,0.19,0.5c0.62,0.39,1.23,0.79,1.85,1.18   c0-0.89,1.36-0.23,1.77-0.07c0.36-0.03,0.73-0.07,1.09-0.1c0.58,1.01,1.95,0.94,2.69,1.68c0.87-0.06,1.1-0.77,1.97-0.13   c0.46,0.34,0.62,1,1.23,1.14c0.33,0.66,0.5,1.16,1.35,1.18c-0.05-0.09-0.09-0.18-0.14-0.27c-0.12-0.43-0.23-0.85-0.35-1.28   c-0.05-0.33,0.38-0.49,0.66-0.49c0.35-0.01,0.74-0.07,1,0.19c0.05,0.41,0.3,0.64-0.14,0.74c-0.49,0.13-0.39,0.26-0.01,0.51   c1.14,0.6,1.54,0.36,2.85,0.1c0.29-0.06,1.01,0.31,1.01,0c0.34-0.06,0.67-0.11,1.01-0.17c0.61,0.08,1.47,0.36,2.02,0   c0.57,0,1.61,0.07,2.02-0.34c0.62,0.08,1.63,0.43,2.02-0.17c0.86-0.11,3.2-0.08,3.7-0.67c1.12,0.22,3.54,1.25,4.04-0.11   c0.73-1.14,1.46-2.29,2.19-3.43c0.27-0.36,0.59-0.34,0.67-0.84c0.43-0.2,2.53-0.99,2.53-0.68c0,0.7,0.15,2.66,1.01,2.44   c1.75-0.47,5.57-1.16,6.57-2.6c0.09-0.39,0.27-0.86,0.12-1.31c-0.25-0.73-1.19-1.32-0.91-2.22c0.04-0.23,0.08-0.46,0.12-0.69   c0.17-0.11,0.34-0.22,0.51-0.34c0-0.68,0.27-1.34,0.84-1.68c0.7,0.48,1.4,0.95,2.09,1.43c0.8-0.97,1.8-3.69,0.94-4.79   c0.06-0.28,0.11-0.56,0.17-0.84c0.81-0.59,1.44-1.14,1.68-2.19c-0.06-0.17-0.11-0.34-0.17-0.51c-0.63-1.31-0.79-2.59-1.09-4.07   c-0.1-0.47-0.18-1.35,0.28-1.6c0.45-0.23,0.82-0.26,1.32-0.23c0.31-0.26,1.23-0.92,1.15-1.35c-0.25-1.24-1.79-1.72-2.16-3.03   c-0.09-0.34-0.25-0.93,0-1.18c-0.28-0.39-0.56-0.79-0.84-1.18c0.11-0.39,0.22-0.79,0.34-1.18c0.07-0.5,0.11-1.44-0.17-1.85   c0.25-0.93,0.5-2.18,1.18-2.86c0.25-1.1,0.6-1.61,1.35-2.36c0.17,0.06,0.34,0.11,0.51,0.17c0.73-0.06,1.46-0.11,2.19-0.17   c0.24,0.24,0.59,0.42,0.84,0.17c0.45,0,1.2,0.15,1.52-0.17c0.57,0.13,1.34,0.04,1.85-0.34c0.73,0.73,2.01,0.52,2.69-0.17   c0.42-0.42,1.35-2.19,1.18-2.36c0.34-0.17,0.67-0.34,1.01-0.51c0.91-0.91,1.18-2.02,2.69-2.02c0.23-0.19,0.45-0.37,0.68-0.56   c0.85-0.24,1.6,0.07,2.52-0.12c0.35,0.11,0.74,0.44,1.01,0.17c0,0.81-0.02,0.87,0.81,0.79c0.25-0.04,0.54,0,0.54-0.28   c0.62-0.06,1.23-0.11,1.85-0.17c0,0.4,0.99,0.67,1.35,0.67c0.41,0,0.2-1.08,0.94-0.81c0.76,0.32,1.66,0.55,2.26,1.14   c1.25,0.08,2.53,0.15,3.7,0.51c0.67-0.11,1.35-0.22,2.02-0.34c1.67-0.11,3.49-0.08,5.19-0.05c1.47,0.03,5.02-0.05,5.73-0.97   c0.51-0.79,1.02-1.57,1.53-2.36c0.73-0.05,1.79,0.09,2.37-0.49c0.84,0,1.68,0,2.53,0c0.39-0.24,0.78-0.47,1.17-0.71   c0.83-0.18,1.53-0.47,2.37-0.47c0.04-0.12,0.08-0.23,0.12-0.35c0.22-0.72,0.17-1.39,0.32-2.16c0.08-0.34,0.16-0.69,0.24-1.03   c0.6,0,1.2-1.3,1.18-1.85c0.39-0.28,0.79-0.56,1.18-0.84c0-0.45,0.31-0.75,0.67-1.01c0.32-0.23,0.89-0.46,1.18-0.17   c0.39-0.17,0.79-0.34,1.18-0.51c1.63,0.06,3.26,0.11,4.88,0.17c0.51-0.51,1.68-0.51,2.36-0.51c0.28-0.17,0.56-0.34,0.84-0.51   c0.62,0.41,1,0.83,1.68,1.01c0.18-0.18,0.41-0.23,0.67-0.17c0.56,0.28,1.12,0.56,1.68,0.84c0.45-0.11,0.9-0.22,1.35-0.34   c0.28,0.11,0.56,0.22,0.84,0.34c0-0.66,1.73-1.2,2.19-1.52c0.69,0,1.43,0.04,1.98-0.41c1.08-0.86,0.18-1.13,1.05-1.62   c0.52,0.52,2.8,0.13,3.58,0.01c0.47-0.07,1.3-0.01,1.64,0.33c1.2-0.54,2.47-0.01,3.54,0.67c0,0.38-0.08,1.85,0.34,1.85   c0.42,0,1.89-0.24,2.36-0.51c0.32,0.01,0.64,0.01,0.95,0.02c0.53-0.09,1.34-0.34,1.7,0.16c1.04,1.56,0.55,1.08,0.55,2.69   c0.9,1.52,1.8,3.03,2.69,4.55c1.74,0.62,3.48,1.23,5.22,1.85c1.2,0.33,3.09,1.8,4.04,0.84   C263.98,179.66,263.35,177.19,264.02,174.45z"/>
            <circle cx="173.22" cy="175.53" r="1.586"/>
        </g>
        <g id="__Mihalgazi">
            <path d="   M187.86,69.36c0,1.63,0.29,2.92,0.48,4.56c0.42,0.35,1.27,1.94,0.86,2.35c1.83,2.4,4.51,3.88,6.39,6.13   c0.82,0.25,2.33,1.88,2.87,2.63c0.35,0.88,0.69,1.77,1.04,2.65c0.07,2.14,0.46,4.2,0.81,6.27c0.49,1.01,0.99,2.02,1.48,3.04   c0.42,0.33,2.02,2.51,1.89,2.86c0.7,0.83,1.39,1.65,2.09,2.48c0.37,1.25,0.74,2.5,1.11,3.75c0.45,0.9,0.9,1.8,1.35,2.69   c0.51,0.62,1.01,1.23,1.52,1.85c0.7,0.8,1.19,2.24,2.19,2.69c0.59,0.95,2.07,3.45,1.85,4.55c0.17,0.34,0.34,0.67,0.51,1.01   c0.14,0.62,0.86,1.56,0.51,2.19c0.53,0.64,0.92,1.27,0.27,1.92c-0.48,0.48-1.73,0.84-2.47,0.92c-0.8,0.99-2.35,1.68-3.55,2.07   c-0.2,0.45-0.68,0.54-1.15,0.65c-0.63,0.67-2.02,2.29-2.02,3.2c-0.36,0.51-1.01,1.04-1.01,1.68c-0.27,0.31-1.25,1.37-1.51,1.3   c-1.26-0.35-2.46-0.65-3.86-0.76c-0.33-0.35-3.19-0.96-3.73-0.88c-0.96,0.32-1.93,0.65-2.89,0.97c-0.38,0.31-0.77,0.62-1.15,0.93   c-0.6,0.34-2.64,1.21-2.86,1.64c-0.85,0.18-1.7,0.37-2.55,0.55c-0.45,0.16-0.89,0.32-1.34,0.47c-0.52,0.02-1.52,0.27-1.49-0.18   c0.1-1.48,0.54-2.91,0.86-4.38c0.1-0.68,0.2-1.35,0.31-2.03c0.24-0.31,0.45-0.44,0.51-0.84c1.19-0.51,4.2-2.14,4.6-3.25   c0.39-1.06,0.05-1.81-0.23-2.82c0.06-0.84,0.11-1.68,0.17-2.53c-0.1-0.73-0.2-1.45-0.29-2.18c-0.09-0.89-0.18-1.78-0.26-2.66   c-0.22,0.12-0.44,0.25-0.66,0.37c-0.6,0.14-1.21,0.29-1.81,0.43c-1.29,0.31-2.43-0.69-3.69-0.71c-1.69-0.16-3.38-0.32-5.07-0.47   c-0.43-0.47-0.66-0.64-1.27-0.82c-0.43,0.26-0.94-0.03-1.43-0.02c-0.71-0.03-1.43-0.06-2.14-0.08c-0.58-0.31-1.15-0.62-1.73-0.93   c-0.19-0.2-0.38-0.39-0.57-0.59c-0.73-0.23-1.32-1.02-1.78-1.6c-0.28-0.22-0.56-0.45-0.84-0.67c-0.22-0.28-0.45-0.56-0.67-0.84   c-0.34-0.22-0.67-0.45-1.01-0.67c-0.41-0.53-0.82-1.06-1.24-1.58c-0.71-0.25-0.5-1.29-0.95-1.78c0.09-0.18,0.19-0.36,0.28-0.54   c0.6-0.45,1.2-0.9,1.8-1.35c0.65-0.32,1.31-0.65,1.96-0.97c0.22-0.17,0.45-0.34,0.67-0.51c0.88-1.36,1.97-1.92,2.99-3.07   c0.78-1.01,1.56-2.02,2.34-3.03c0.3-0.49,0.59-0.98,0.89-1.47c0.56-1.29,1.13-2.58,1.69-3.87c0.51-0.51,1.01-1.01,1.52-1.52   c0.22-0.39,0.45-0.79,0.67-1.18c0.27-1.13,0.55-2.25,0.82-3.38c0.68-1.34,1.36-2.69,2.04-4.03c0.59-1.1,1.19-2.19,1.78-3.29   c0.46-1.77,0.92-3.55,1.38-5.33c0.24-0.35,0.48-0.7,0.73-1.05c0.72-0.59,1.45-1.19,2.17-1.78   C187.98,68.8,187.92,69.08,187.86,69.36z"/>
            <circle cx="193.59" cy="100.85" r="1.586"/>
        </g>
        <g id="__Sarıcakaya">
            <path d="   M214.81,121.06c0.36-0.63-0.36-1.57-0.51-2.19c-0.17-0.34-0.34-0.67-0.51-1.01c0.21-1.09-1.26-3.6-1.85-4.55   c-1-0.46-1.49-1.89-2.19-2.69c-0.51-0.62-1.01-1.23-1.52-1.85c-0.45-0.9-0.9-1.8-1.35-2.69c-0.37-1.25-0.74-2.5-1.11-3.75   c-0.7-0.83-1.39-1.65-2.09-2.48c0.13-0.35-1.47-2.53-1.89-2.86c-0.49-1.01-0.99-2.02-1.48-3.04c-0.35-2.08-0.74-4.13-0.81-6.27   c-0.35-0.88-0.69-1.77-1.04-2.65c-0.54-0.75-2.06-2.38-2.87-2.63c-1.88-2.24-4.56-3.72-6.39-6.13c0.41-0.41-0.44-2-0.86-2.35   c-0.2-1.64-0.48-2.92-0.48-4.56l0.14-0.44c0.11-0.21,0.21-0.43,0.32-0.64c0.86-0.37,1.72-0.74,2.57-1.11c0.84,0,1.68,0,2.53,0   c0.6-0.07,1.52-0.75,2.02-0.51c0.55-0.39,1.78-0.91,2.53-0.84c1.62-0.76,3.23-1.51,4.85-2.27c0.63-0.25,1.26-0.51,1.89-0.76   c1.18-0.79,2.35-1.58,3.53-2.36c1.7-0.82,3.39-1.65,5.09-2.47c0.44-0.34,1.28-0.74,1.43-1.23c0.22-0.58,0.46-2.02,0.06-2.53   c0.22-0.67,0.45-1.35,0.67-2.02c0.28-0.17,0.56-0.34,0.84-0.51c0.22-0.28,0.45-0.56,0.67-0.84c0.62-0.28,1.23-0.56,1.85-0.84   c0.4,0.01,1.17-0.1,1.43,0.27c0.75,0.96,0.61,2.06,1.1,3.09c0.29,0.6,1.72,2.02,2.36,2.02c0.33,0.32,0.73,0.57,0.84,1.01   c0.67,0.55,1.33,1.11,2,1.66c0.31,0.3,0.7,1.53,1.03,1.2c0.1,0.31,0.13,0.59,0.47,0.72c0.43,0.16,0.93,0.17,1.22-0.22   c0.28,0,0.56,0,0.84,0c1.54,0.74,3.01,1.01,4.71,1.01c1.19-1.19,1.47-1.12,3.03-1.52c0.45,0.45,0.9,0.9,1.35,1.35   c0.78-0.2,1.2-0.51,2.02-0.51c1.23,0.75,2.3,1.18,3.7,1.18c0.64,0.64,3.07,1.86,4.04,2.02c0.74,0.12,1.61-0.63,2.02-0.51   c0.03,1.04,0.72,1.18,1.68,1.18c0.36,0.36,1.2,0.66,0.84,1.18c0.22,0.34,0.45,0.67,0.67,1.01c0.45,0.45,0.52,0.66,1.01,0.17   c0.38-0.38,1.16-3.13,1.51-1.83c0.28,1.73,0.56,3.47,0.85,5.2c0.51,0.95,1.01,1.91,1.52,2.86c0.34,1.07,0.67,2.13,1.01,3.2   c-0.16,1.64-1.35,4-0.92,5.54c0.29,1.02,0.8,1.87,1.42,2.71c0.11,0.39,0.22,0.79,0.34,1.18c-0.06,1.07-0.11,2.13-0.17,3.2   c0.43,0.4,1.14,0.98,0.98,1.64c-0.43,1.45-1.61,2.74-2.49,3.91c-0.23,0.36-0.47,0.73-0.7,1.09c-0.26,0.32-0.51,0.64-0.77,0.95   c-0.13,0.44-0.26,0.88-0.38,1.33c-0.53,0.83-1.06,1.66-1.58,2.49c-0.37,0.69-0.74,1.37-1.11,2.06c0,0.55-0.8,1.9-1.18,2.33   c0.01,0.82-0.72,1.37-0.97,2.13c-0.23,0.71-0.67,1.27-1.22,1.77c-0.24,0.22-0.35,0.55-0.34,0.84c-1.1,0.97-1.82,2.17-3.03,3.03   c-0.46,0.99-0.92,1.6-1.85,2.19c-0.79,1.09-1.57,2.19-2.36,3.28c-0.92,0.84-2.1,1.05-3.03,1.77c-0.49,0.38-1.47,0.25-1.68,0.84   c-0.4,0.12-0.78,0.15-1.01,0.51c-0.78,0.17-2.54,0.54-2.86,1.35c-0.57,0.11-1.38,0.15-1.68,0.67c-0.69-0.02-1.84-0.07-2.36,0.51   c-1.76,0.32-3.55,0.61-5.22,1.18c-1.76,0.88-3.52,1.75-5.28,2.63c-1.11,0.5-2.22,1-3.33,1.5c-0.28,0.07-1.16,0.35-1.16,0.08   c0.07-0.72,0.15-1.43,0.22-2.15c-0.33-0.31-0.42-1.63-0.22-2.06c-0.18-0.56-0.36-1.13-0.55-1.69L214.81,121.06z"/>
            <circle cx="204.37" cy="97.06" r="1.586"/>
        </g>
        <g id="__Alpu">
            <path d="   M252.56,106.32c0.25-0.75,0.98-1.31,0.97-2.13c0.39-0.43,1.18-1.78,1.18-2.33c0.37-0.69,0.74-1.37,1.11-2.06   c0.53-0.83,1.06-1.66,1.58-2.49c0.13-0.44,0.26-0.88,0.38-1.33c0.26-0.32,0.51-0.64,0.77-0.95c0.23-0.36,0.47-0.73,0.7-1.09   c0.88-1.17,2.07-2.47,2.49-3.91l0.54,0.04c0.57,1.38,1.82,0.7,2.93,1.35c0.52,0.31,0.74,0.87,1.12,1.34   c0.56,0.39,1.12,0.79,1.68,1.18c0.22,0.28,0.45,0.56,0.67,0.84c0.27,0.06,0.54,0.12,0.82,0.17c0.12,0.05,0.24,0.11,0.36,0.16   c0.28-0.06,0.56-0.11,0.84-0.17c0.51-0.45,1.01-0.9,1.52-1.35c0.08,0.13,0.16,0.25,0.24,0.38c0.2,0.55,0.4,1.09,0.6,1.64   c0.46,0.5,0.91,1,1.37,1.5c0.33,0.28,0.66,0.57,0.99,0.85c0.45,0.11,0.9,0.22,1.35,0.34c0.85,0,1.83-0.18,2.53,0.34   c0.51,0.45,1.01,0.9,1.52,1.35c0.2,0.28,0.31,0.84,0.67,0.84c0.98,0,4.52-0.91,5.05-1.68c1.02,0,2.46,0.18,3.37,0.67   c0.39-0.01,0.78-0.02,1.16-0.04c0.45,0.01,0.91,0.02,1.36,0.04c2.37,0.65,4.81,1.19,6.74-0.67c0.41-0.01,0.99,0.13,1.18,0.51   c0.36-0.09,0.73-0.19,1.09-0.28c0.31-0.58,0.62-1.16,0.93-1.74c0.36-0.49,1.11-0.22,1.47-0.4c0.84-0.43,1.22-1.05,1.98-1.58   c0.39-0.27,1.95-1.23,1.94-1.56c0.4-0.03,0.88,0.11,1.18-0.17c2.47,0.25,4.94,0.5,7.41,0.75c0.47-0.07,2.38-0.57,2.59-0.83   c0.25-0.29,0.19-0.34,0.61-0.42c0.09-0.75,0.42-1.05,0.67-1.68c-0.22,0-0.59,0.58-0.43,0.76c0.45,0.45,0.81,0.75,1.45,0.82   c0.42,0.01,0.9-0.1,1.34-0.06c0.3-0.26,1.37-1.35,1.33-1.02c-0.05,0.34-0.1,0.68-0.15,1.02c0.37,0.5,0.81,1.3,1.35,1.52   c-0.32,1.95,0.19,3.76,0.04,5.71c-0.07,1.41-0.14,2.81-0.21,4.22c0.06,0.5,0.13,1.01,0.19,1.51c0.02,0.63-0.05,1.82,0.48,2.19   c0.03,0.72,0.06,1.45,0.09,2.17c0.21,0.76,1.04,3.25,0.58,3.89c0.17,0.39,0.34,0.79,0.51,1.18c1.06,1.24,1.83,2.58,2.72,4.03   c0.33,0.51,0.66,1.02,0.98,1.53c0.62,0.95,1.23,1.91,1.85,2.86c1.22,0.78,2.65,1.36,3.54,2.53c0.29,0.28,0.57,0.55,0.86,0.83   c0.03,2.75,0.06,5.5,0.08,8.25c0.31,2.04,0.66,4.31,0.28,6.35c0.02,0.62,0.03,1.24,0.05,1.86c0.13,0.85,0.27,1.36,0.07,2.25   c-0.18,0.44-0.36,0.89-0.55,1.33c-0.41,1.6-0.53,2.94-1.5,4.34c-0.38,0.97-0.77,1.94-1.15,2.92c-0.07,0.98-0.9,4.07-1.68,4.71   c-0.11,0.28-0.22,0.56-0.34,0.84c-0.39,1.74-0.79,3.48-1.18,5.22c-0.18,0.79-0.08,2.17,0.34,2.86c-0.13,2.08,0.43,4.09,0.67,6.23   c0.07,0.59,0.19,1.89-0.17,2.36c0.11,0.95,0.22,1.91,0.34,2.86c-0.07,0.67-0.14,1.34-0.22,2c0.07,0.38,0.14,0.77,0.21,1.15   c-0.07,0.96-0.58,3.54,0.01,4.25c-0.92,3.94-0.8,7.46-3.03,10.95c-1.08,1.69-4.57,4.45-3.74,6.58c0.22,1.08,1.09,2.9,0.2,3.86   c0.11,1.01,0.22,2.02,0.34,3.03c0.65,2.02,1.29,4.04,1.94,6.07c0.27,1.08,1.14,2.64,0.53,3.7c0.26,0.37,0.34,0.25,0.06,0.45   c-1.95,1.24-3.76,0.47-5.85,0.81c-0.46,0.14-0.92,0.28-1.38,0.42c-2.4-0.22-4.78-0.11-7.19-0.02c-2.99-0.46-5.97-0.93-8.96-1.39   c-1.34-0.24-3.49-1.11-4.73-0.78c-0.34-0.06-0.67-0.11-1.01-0.17c-1.05-0.38-2.22-0.51-3.36-0.38c-1.15,0.12-2.09,0.8-3.04,1.39   c-0.36,0.23-0.77,0.13-1.01,0.51c-0.73,0.31-1.69,0.56-2.19,1.18c-1.8,0.34-3.59,0.67-5.39,1.01c-0.39-0.06-0.79-0.11-1.18-0.17   c-0.65-0.01-2.02-0.09-2.53,0.34c-1.06-0.12-2.12-0.24-3.18-0.35c-0.72-0.59-1.78-0.62-2.63-0.34c-0.64-0.11-1.29-0.21-1.93-0.32   c-0.56,0.22-1.12,0.45-1.68,0.67c-0.25-0.25-0.37-0.1-0.68,0c-0.26,0.08-0.72,0.44-0.92,0.27c-0.4-0.39-0.75-0.98-1.27-1.11   c-0.12-0.76-0.5-1.14-0.77-1.83c-0.09-0.12-0.19-0.24-0.28-0.35c-0.74-2.95-1.4-6.45-0.96-9.43c0.11-0.51,0.22-1.01,0.34-1.52   c0.39-0.74,1.02-0.77,0.84-1.68c-0.25-1.25-0.7-2.5-1.31-3.63c-0.22-0.4-0.96-1.34-0.88-1.76c-1.42-1.52-2.62-3.07-3.42-4.95   c-0.45-0.16-0.35-0.41-0.53-0.79c-0.48-1.06-0.96-2.12-1.45-3.18c0-0.84,0-1.68,0-2.53c0.6-1.13,1.21-2.26,1.81-3.38   c0.8-0.95,1.6-1.9,2.4-2.85c0.61-0.88-0.04-2.74,0.51-3.37c-0.65-2.6-1.13-4.99-0.46-7.73c0.14-0.6,0.05-1.43,0.46-1.87   c-0.34-1.18-0.67-2.36-1.01-3.54c-1.02-1.54-2.15-3.8-2.02-5.73c-0.37,0-0.59-1.73-0.37-2.04c0.9-1.42,1.8-2.84,2.7-4.26   c0.85-0.23,2.03-1.25,1.88-2.29c0,0.2,0.4,0.6,0.58,0.44c1.28-1.12,2.88-2.61,4.48-3.27c0.48-0.2,1.39-0.45,1.84-0.2   c3.31-1.3,7.21-0.82,10.61-1.35c1.5-0.23,3.39,0.58,4.71-0.17c0.65,0,1.79-0.01,2.16-0.53c1-1.51-0.18-5.05-0.44-6.88   c-0.32-2.29-0.36-4.64-0.54-7.07c-0.28-0.84-0.56-1.68-0.84-2.53c-0.47-0.52-1.38-1.15-1.52-1.85c-0.45-0.33-0.91-0.67-1.36-1   c-0.46-0.41-0.85-0.96-1.5-1.02c-0.28-0.36-0.43-0.84-0.84-1.01c-0.45-0.67-0.9-1.35-1.35-2.02c-0.28-0.62-0.56-1.23-0.84-1.85   c-0.16-1.01-0.2-3.72-0.84-4.38c0.31-2.42,0.9-5.05-0.17-7.41c-0.44-0.96-1.5-1.51-2.17-2.23c-0.68-0.6-1.36-1.21-2.04-1.81   c-1.54-0.74-2.89-0.66-4.55-0.48c-0.51,0.05-1.01,0.1-1.52,0.15c-1.45-0.19-2.96,0.26-4.36,0.39c-0.68,0.09-1.36,0.19-2.04,0.28   c-1.68-0.11-3.37-0.22-5.05-0.34c-0.88-0.26-1.76-0.52-2.64-0.77c-0.47-0.25-0.93-0.49-1.4-0.74c-0.34-0.34-0.67-0.67-1.01-1.01   L252.56,106.32z"/>
            <circle cx="287.55" cy="184.79" r="1.586"/>
        </g>
        <g id="__Mihalıççık">
            <path d="   M484.58,194.01c-0.35,0.31-0.71,0.62-1.06,0.94c-0.71,0.73-1.46,1.02-2.3,1.58c-0.49,0.41-0.99,0.82-1.48,1.23   c-2.89,2.32-3.89,6.29-6.28,9c-0.48,0.3-0.95,0.59-1.43,0.89c-0.48,0.15-0.96,0.31-1.44,0.46c-0.6-0.15-1.2-0.31-1.8-0.46   c-0.77-0.27-0.71-0.97-0.89-1.73c-0.57-0.18-0.89-0.99-1.25-1.47c-0.58-0.77-1.34-1.29-2.14-1.81c-0.28-0.17-1.73,0.42-1.99,0.76   c-1.49,1.33-2.98,2.66-4.46,3.99c-1.66,1.65-3.31,3.29-4.97,4.94c-0.95,0.62-1.91,1.24-2.86,1.85c-1.01,0.79-2.02,1.57-3.03,2.36   c-1.39,0.82-2.79,1.64-4.18,2.46c-1.41,0.92-2.83,1.84-4.24,2.76c-1.21,0.36-2.41,0.72-3.62,1.08c-2.79,0.93-5.32,2.7-8.2,3.12   c-0.93,0.14-1.87,1.24-2.49,1.86c-0.67,0.22-1.35,0.45-2.02,0.67c-1.12,0-2.25,0-3.37,0c-1.01,0.06-2.02,0.13-3.03,0.19   c-1.07-0.23-2.14-0.47-3.2-0.7c-0.79-0.56-1.57-1.12-2.36-1.68c-0.84-1.02-1.69-2.03-2.53-3.05c-1.36-1.28-2.81-2.82-4.54-3.69   c-1.07-0.45-2.13-0.9-3.2-1.35c-0.88-0.19-1.72-0.33-2.54-0.69c-0.11-0.05-0.81-0.24-0.92-0.29l-0.31-1.49   c-0.34-3.28-0.34-7.02-0.28-8.36c0.02-0.51,0.65-1.57,1.18-2.3c0-1.54-0.12-2.93-0.47-4.43c-0.48-1.21-0.96-2.42-1.44-3.64   c-0.26-0.54-0.52-1.07-0.78-1.61c-0.26-0.57-0.52-1.14-0.78-1.72c-0.13-0.53-0.27-1.05-0.4-1.58c-0.9-1.23-1.8-2.47-2.69-3.7   c-0.51-0.9-1.01-1.8-1.52-2.69c-0.28-1.07-0.55-2.13-0.83-3.2c-0.05-0.67,0.1-1.81-0.35-2.36c0.01-0.49-0.05-0.86,0.34-1.18   c-0.06-0.34-0.11-0.67-0.17-1.01c0.11-0.39,0.22-0.79,0.34-1.18c-0.11-0.56-0.22-1.12-0.34-1.68c-0.36-1.28-0.72-2.56-1.08-3.84   c-0.42-0.74-0.85-1.48-1.27-2.22c-1.17-1.29-2.59-1.92-3.9-2.99c-0.66-0.29-1.33-0.59-1.99-0.88c-1.74-0.17-3.48-0.34-5.22-0.51   c-0.9,0.11-1.8,0.22-2.69,0.34c-0.8-0.06-1.59-0.13-2.39-0.19c-0.4-0.37-1.07-0.55-1.54-0.9c-0.6-0.53-1.2-1.07-1.8-1.6   c-1.53-2.7-3.6-4.86-5.32-7.46c-0.98-1.56-1.95-3.11-2.93-4.67c-0.24-1.22-0.48-2.45-0.73-3.67c-0.04-1.13-0.08-2.27-0.12-3.4   c-0.27-0.72-0.55-1.44-0.82-2.16c-0.09-0.45-0.09-1.33,0.15-1.71c-0.17-0.51-0.34-1.01-0.51-1.52c-0.06-1.01-0.11-2.02-0.17-3.03   c-0.22-0.83-0.44-1.66-0.66-2.48c-0.66-1.91-2.47-3.99-3.87-5.46c-0.41-0.43-1.95-1.43-2.04-1.83c-0.9,0.06-1.8,0.11-2.69,0.17   c-0.99-0.33-2.11-0.36-3.14-0.09c-1.54,0.65-3.07,1.3-4.61,1.95c-0.67,0.11-1.35,0.22-2.02,0.34l-0.15,0.16   c-0.29-0.28-0.57-0.55-0.86-0.83c-0.89-1.16-2.32-1.75-3.54-2.53c-0.62-0.95-1.23-1.91-1.85-2.86c-0.33-0.51-0.66-1.02-0.98-1.53   c-0.89-1.44-1.66-2.78-2.72-4.03c-0.17-0.39-0.34-0.79-0.51-1.18c0.46-0.64-0.37-3.12-0.58-3.89c-0.03-0.72-0.06-1.45-0.09-2.17   c-0.53-0.38-0.46-1.56-0.48-2.19c-0.06-0.5-0.13-1.01-0.19-1.51c0.07-1.41,0.14-2.81,0.21-4.22c0.15-1.95-0.36-3.77-0.04-5.71   l-0.17,0.34c0.11-0.22,0.22-0.45,0.34-0.67c0-0.33,0.07-0.6-0.17-0.84c0-0.61,0.35-1.41-0.17-1.85c0.1-0.55,0.26-1.51,0.67-1.85   c-0.06-0.45-0.11-0.9-0.17-1.35c0.09-0.18,0.45-1.02,0.54-0.69c0.16,0.58-0.1,0.65,0.37,1.12c0.32,0.32,1.75,1.19,2.22,1.07   c0.64-0.22,1.28-0.43,1.92-0.65c1.18,0.51,2.36,1.01,3.54,1.52c0.86,0.86,1.17,2.21,2.13,2.87c1.24,0.52,2.48,1.04,3.73,1.56   c0.55,0.03,1.11,0.06,1.66,0.09c1.38,0.33,3.18,0.45,4.6,0.2c0.41-0.07,1.06,0,1.31-0.35c0.35-0.5,0.7-1,1.05-1.5   c0.02-0.59,0-1.17,0.34-1.68c0.22,0.17,0.45,0.34,0.67,0.51c0.39-0.03,0.57-0.15,0.84,0.17c0.84-0.45,1.68-0.9,2.53-1.35   c0.37,0.01,0.72-0.07,1.01,0.17c0.67-0.28,1.35-0.56,2.02-0.84c1.59,0.86,2.23,0.76,3.87,0c0.59-0.27,1.58-0.03,2.02-0.51   c1,0.07,2.47,0.05,3.03,1.01c0.9,0.06,1.8,0.11,2.69,0.17c0.77-0.06,1.55-0.12,2.32-0.18c0.2-0.15,0.77-0.8,0.83-0.76   c2.43,1.4,6.5,1.14,7.96,3.8c0.72,0.26,1.43,0.51,2.15,0.77c0.56-0.33,1.98-1.41,2.57-1.27c0.74-0.59,1.25-0.88,2.18-1.19   c0.56-0.19,1.47-0.53,2.03-0.16c0.69-0.34,1.37-0.68,2.06-1.02c0.49-0.61,1.39-1.24,2.16-1.06c0.49-0.02,0.99-0.05,1.48-0.07   c1.04,0.15,2.14,1.05,2.63,1.95c0.32,0.04,0.25-0.05,0.29,0.21c0.06,0.36,0.04,0.58,0.31,0.84c-0.05,0.49-0.3,1.06-0.17,1.52   c-0.34,0.56-0.67,1.12-1.01,1.68c-0.55,0.34-1.96,1.56-2.53,1.35c-0.28,0.33-0.56,0.67-0.84,1.01c0.05,0.51,0.11,1.01,0.16,1.52   c0.92,0.52,2.29,0.87,2.17,2.18c-0.11,1-0.54,0.82-0.99,1.52c0.15,0.02,0.3,0.05,0.45,0.07c0.19-0.01,0.37-0.02,0.56-0.03   c0.03,0.4-0.23,0.78,0.24,1.01c0.9,0.39,1.55,0.27,2.45-0.04c0.44-0.15,0.24-0.41,0.84-0.34c0.12-0.35,0.28-0.65,0.17-1.01   c0.31-0.29,0.59-0.42,0.67-0.84c0.17,0.05,0.33,0.1,0.5,0.15c0.85,0.26,1.41,0.54,1.52,1.53c0.22-0.01,0.43-0.02,0.65-0.04   c0.4-0.21,0.8-0.42,1.21-0.64c0.62,0.06,1.23,0.11,1.85,0.17c0.55-0.44,1.89-1.13,2.02-1.85c0.48-0.16,2.14-0.45,2.53-0.17   c0.56-0.51,1.12-1.01,1.68-1.52c1.02-1.29-0.26-3.02,0.75-3.59c0.46-0.25,0.24-0.36,0.72,0.06c0.35,0.45,0.7,0.89,1.05,1.34   c0.43,0.29,0.85,0.58,1.28,0.87c0.33,0.18,0.67,0.37,1.01,0.55c-0.12,0.13-1.86,1.93-1.32,1.73c0.6-0.24,1.2-0.48,1.79-0.73   c1.04,1.04,2.09,2.09,3.13,3.13c1.14,0.3,2.29,0.59,3.43,0.89c0.61-0.62,1.23-1.24,1.84-1.86c0.08,0.07,0.16,0.14,0.24,0.21   c0.13-0.03,0.25-0.05,0.38-0.08c0.05,0.38-0.02,0.95,0.42,0.68c0.57-0.38,1.28-1.58,1.43-2.36c0.48-0.41,0.95-0.82,1.43-1.24   c0.14-0.46,0.77-0.53,1.23-0.59c0.07-0.12,0.14-0.24,0.21-0.36c0.05,0.02,0.09,0.04,0.14,0.06c0.45,0.22,2.28,1.26,2.66,1.06   c0.3-0.15,0.6-0.3,0.91-0.45c0.63,1.1,1.78,1.26,2.69,2.02c-0.39,0.71-0.37,1.43-0.51,2.19c0.02-0.11,0.05-0.21,0.07-0.32   c0.05-0.18,0-0.4,0.23-0.29c0.63,0.26,1.26,0.52,1.89,0.78c0.39-0.39,0.62-0.2,1.01-0.51c0.39,0.08,1.65,0.07,1.76,0.37   c0.24,0.66,0.43,2.03,1.19,2.24c0.36,0.1,0.32-0.01,0.42,0.42c0.13-0.19,0.25-0.39,0.38-0.58c0.1-0.09,0.2-0.18,0.29-0.26   c0.25-0.66,0.27-1.53,0.84-2.02c-0.01,0.11-0.01,0.21-0.02,0.32c-0.05,0.5-0.32,2.21-0.66,2.54c0.1,0.06,0.21,0.11,0.31,0.17   c0.15,0.04,0.29,0.07,0.44,0.11c0.03,0.13,0.06,0.27,0.09,0.4c0.02-0.07,0.03-0.14,0.05-0.21c0.14-0.48,1.14-2.32,1.29-2.31   c0.98,0.11,1.88,0.39,2.88,0.31c0.26-0.02,0.82-0.13,0.84,0.17c0.04,0.38,0.33,0.68,0.18,0.87c-0.61,0.78-0.96,1.3-1.91,1.53   c-0.38,0.33-0.76,0.66-1.15,0.98c0.22,0,0.43-0.01,0.65-0.01c0.82,0.04,2.01,0.41,2.89,0.01c0.16,0.33,0.25,0.78,0.64,0.87   c0.27,0.02,0.55,0.04,0.82,0.06c0.51-0.35,0.92-0.65,0.84-1.26c0.02-0.11,0.04-0.23,0.06-0.34c-0.27-0.37-0.44-0.83-0.84-1.01   c0.06-0.77-0.03-2.68,0.35-3c1.29-1.14,2.68-2.14,3.86-3.39c0.5-0.53,1.29-0.57,1.52-1.35c0.48-0.46,0.96-0.92,1.44-1.38   c0.28-0.56,2.08-3.02,2.47-3.03c0.19,0.02,0.38,0.05,0.57,0.07c0.08-0.05,0.16-0.11,0.24-0.16c0.03,0.41-0.08,0.42,0.34,0.63   c-0.58,0.66-1.17,1.34-1.52,2.19c-0.11,0.84-0.22,1.68-0.34,2.53c-0.02,0.64-0.03,1.28-0.05,1.92c-0.49,0.75-2.45,1.66-3.32,1.95   c-0.4,0.55-1.36,2.28-1.01,2.86c-0.34,0.39-0.67,0.79-1.01,1.18c0.39,0.95,0.95,1.79,2.03,1.94c0.6,0.09,1.25-0.39,1.9-0.52   c0.99,0.2,1.99,0.4,2.98,0.61c0.11-0.17,0.22-0.34,0.34-0.51c0.09,0.22,0.15,0.67,0.32,0.69c0.64,0.07,0.69-0.26,1.22-0.42   c0.83-0.2,1.67-0.41,2.5-0.61c0.37-0.14,0.75-0.28,1.12-0.42c-0.24-0.45-0.48-0.9-0.73-1.35c0.32-0.48,0.63-0.96,0.95-1.44   c0.54-0.36,1.56-0.54,1.85-1.18c0.16,0.03,0.33,0.05,0.49,0.08c0.31,0.06,0.65,0.04,0.83,0.28c0.3,0.41,0.92,1.73,0.92,1.73   c0.49,0.09,0.98-0.21,1.3,0.11c0.17-0.22,0.34-0.45,0.51-0.67c0.36-0.02,0.57,0.08,0.84-0.17c-0.01,0.05-0.03,0.1-0.04,0.15   c-0.73,2.13-1.46,4.27-2.18,6.4c-0.19,0.51-0.87,1.89-0.64,2.37c-0.22,0.67-0.45,1.35-0.67,2.02c-0.58,0.49-1.19,0.7-0.89,1.52   c0.1,0.3,0.39,1.34,0.54,1.38c0.55,0.13,1.34,0.17,1.69,0.64c0.39,0,0.79,0,1.18,0c0.83-0.23,2.65-0.95,3.37-0.34   c0.69-0.16,2.9-0.44,3.45,0.07c0.2,0.2,0.3,0.43,0.59,0.43c0.27,0.69,0.36,1.89,1.01,2.19c-0.06,0.11-0.12,0.22-0.18,0.34   c-2.07,3.5-4.13,8.52-0.57,11.85c0.58,0.54,1.44,1.57,2.27,1.62c0.45,0.62,0.9,1.23,1.35,1.85c0.36,0.87,0.67,1.54,0.67,2.52   c0.03,0.36,0.07,0.72,0.1,1.08c1.31,0.82,2.63,1.64,3.94,2.46c1.23,1.18,2.47,2.36,3.7,3.54c0.45,0.28,0.9,0.56,1.35,0.84   c0.64,0.21,1.28,0.43,1.92,0.64c0.95,0.45,2.32,2.28,3.33,1.9c0.5-0.17,0.99-0.35,1.49-0.52c0.17,0.06,0.34,0.11,0.51,0.17   c1.64-1.48,3.8-2.42,6.01-2.1c0.6-0.06,1.2-0.12,1.8-0.17c0.31,0.31,0.62,0.62,0.94,0.93c0.2,0.59,0.4,1.18,0.59,1.77   c-0.63,0.71-1.04,1.55-1.77,2.27c-1.05,1.03-3.08,1.81-3.31,3.39c-0.03,0.47-0.02,1.75,0.38,2.07c0.74,0.58,2.33,1.53,3.1,0.76   c1.91-0.49,2.87-2.4,4.29-3.47c0.45-0.34,1.75-1.03,2.26-0.86c0.88,0.29,1.72,0.22,2.29,1.02c0.45,0.62,0.82,1.35,0.66,2.06   c0.29,0.26,0.35,0.15,0.18,0.35c-0.53,0.64-1.06,1.28-1.59,1.92c-1.5,0.89-3.76,2.78-2.8,4.57c0.55,0.55,1.1,1.1,1.65,1.65   c0.08,0.59,0.15,1.17,0.23,1.76c-1.19,0.88-3.16,0.71-4.63,0.78c-0.41-0.05-0.82-0.11-1.23-0.16c-0.68,0.19-1.47,0.51-2.14,0.16   c-0.78,0.18-2.1,0.65-2.86,0.34c-0.79,0.06-1.57,0.11-2.36,0.17c-1.25,0.53-2.49,1.06-3.74,1.59c-0.2,0.39-0.6,0.42-1,0.55   c-1.12,0.8-2.23,1.6-3.35,2.4c-0.45,0.22-0.9,0.45-1.35,0.67c-0.83,1.19-2.88,3.31-3.17,4.76c-0.62,2.02-1.25,4.03-1.87,6.05   c-0.12,0.83-0.36,1.77-0.86,2.47c-0.56,0.68-1.12,1.36-1.68,2.04c-0.26,0.86-0.53,1.71-0.79,2.57L484.58,194.01z"/>
            <circle cx="417.88" cy="151.96" r="1.586"/>
        </g>
        <g id="__Sivrihisar">
            <path d="   M484.58,194.01c0.72,1.76,0.46,3.33,0.82,5.18c0.9,1.8,1.8,3.59,2.69,5.39c0.62,0.52,2.95,2.36,3.7,2.36   c0.4,0.27,0.67,0.76,1.19,0.84c1.21,0.5,2.43,1.01,3.64,1.52c1.61,0.04,3.08-0.69,4.74-0.72c0.63-0.01,1.52-0.13,1.88,0.56   c0.67-0.06,1.4-0.13,2.02,0.17c1.29,0.84,2.58,1.68,3.87,2.53c0.77,0.53,1.55,1.55,2.53,1.68c0.52,0.74,2.08,3.03,3.03,3.03   c1.07-0.12,2.14-0.23,3.2-0.35c0.43-0.02,0.81-0.05,1.01,0.35c0-0.07,0-0.14,0-0.22c-0.04-0.37,0.46-1.35,0.83-1.26   c0.79,0.27,1.58,0.54,2.37,0.81c1.82,1.56,3.3,3.41,4.55,5.56c0.84,1.57,1.68,3.14,2.53,4.71c0.31,0.46,0.69,1.09,1.18,1.35   c0.72,1.53,1.36,2.97,1.42,4.71c0.01,0.49,0.03,0.98,0.04,1.47c-0.27,0.54-0.99,1.16-0.95,1.73c-0.22,0.22-0.45,0.45-0.67,0.67   c-0.73,0.49-1.47,0.99-2.2,1.48c-2.15,1.66-4.29,3.33-6.44,4.99c-0.88,0.65-1.77,1.29-2.65,1.94c-0.21,0.17-0.94,0.57-0.84,0.86   c0.04,0.21,0.08,0.41,0.12,0.62c1.25,1.36,2.68,1.94,4.09,3.07c0.74,0.59,1.9,0.98,2.36,1.85c1.02,0.44,1.88,1.05,2.68,1.82   c0.8,0.07,1.81,1.17,2.31,1.77c1.48,0.41,3.08,3.81,3.26,5.33c0.29,1.28,0.59,2.56,0.88,3.85c0.23,0.52,0.45,1.35,0.07,1.81   c-0.9,1.2-2,0.87-3.47,1.25c-1.07,0.33-2.13,0.67-3.2,1c-0.72,0.03-1.44,0.07-2.16,0.1c-1.25,0.36-2.49,0.73-3.74,1.09   c-2.19,0.28-4.38,0.56-6.57,0.84c-1.58,0.44-3.16,0.88-4.74,1.32c-1.27,0.15-2.55,0.29-3.83,0.44c-1.47,0.42-2.94,0.85-4.4,1.27   c-0.73,0.28-1.46,0.56-2.19,0.84c-0.67,0-1.35,0-2.02,0c-1.52,0.28-3.03,0.56-4.55,0.84c-0.45,0.12-0.89,0.24-1.34,0.36   c-1.64,0.36-3.22,0.75-4.89,0.65c-1.75-0.1-3.19,1.68-4.88,1.68c-0.73,0.66-1.46,1.33-2.19,1.99c-0.33,0.4-0.67,0.8-1.01,1.21   c-0.46,1.11-1.6,3.89-1.35,5.05c-1.07,1.57-2.13,3.14-3.2,4.71c-1.86,2.27-3.72,4.55-5.58,6.82c-1.38,2.14-1.97,4.74-2.72,7.1   c-0.45,1.44-1.54,4.38-0.61,5.57c0.24,0.3,0.57,0.49,0.48,0.88c0.76,0.54,1.71,1.45,2.69,1.35c1.38,0.87,2.77,1.74,4.15,2.6   c0.97,0.82,1.95,1.63,2.92,2.45c0.32,0.41,0.65,1.59,1.18,1.68c0.17,0.39,0.34,0.79,0.51,1.18c0.13,0.57,0.35,2.4,0.67,2.69   c-0.22,0.84-0.44,1.69-0.65,2.53c-0.12,0.5-0.24,1.01-0.36,1.51c0.05,0.82,0.36,1.98-0.17,2.69c0.16,1.12,0.04,2.08,0,3.2   c0.22,1.46,0.43,2.92,0.65,4.37c0.18,0.34,0.35,0.68,0.53,1.02c-0.3,0.85-0.04,1.81,0,2.69c0.14,1.8,0.28,3.61,0.42,5.41   c0.16,0.82,1.67,3.87,2.28,4.18c0.28,1.01,0.55,2.02,0.83,3.03c0.26,0.56,0.58,0.93,1.02,1.35c0.04,0.45,0.09,0.89,0.13,1.34   c0.11,1.74,0.04,3.48-0.17,5.2c-0.04,0.51-0.09,1.03-0.13,1.54c0,0.56,0,1.12,0,1.68c0.62,1.35,1.23,2.69,1.85,4.04   c0.3,0.84,0.6,3.52,1.35,3.87c0.04,1.13,0.53,3.42-0.17,4.38c0.04,1.22,0.31,2.44,0,3.7c0.28,0.62,0.56,1.23,0.84,1.85   c0.4,0.39,1.03,0.8,1.18,1.35c1.49,0.88,3,1.65,4.64,2.19c0.48,0.19,1.44,0.57,1.83,0.55c0.62,0.47,1.95,1.32,1.95,2.14   c1.29,0.78,2.13,1.79,3.06,3.02c0.02,0.37-0.03,0.43-0.26,0.71c-1.93,0.51-4.2,1.03-6.13,1.53c-2.87,1.66-4.85,4.29-7.67,6.04   c-0.6,0.84-1.2,1.68-1.8,2.52c-1.22,2.85-3.98,4.02-6.75,5c-3.98,1.41-7.38,1.8-11.6,1.73c-2.02-0.22-4.04-0.45-6.06-0.67   c-0.79,0.15-1.58,0.3-2.37,0.45c-0.72,0.15-1.44,0.29-2.16,0.44c-0.47,0.23-1.22,0.48-1.36,0.96c-0.85,0.46-1.59,0.66-2.5,0.93   c-0.4,0.14-0.8,0.28-1.2,0.42c-0.36,0.48-1.1,2.03-1.85,1.85c-0.51,2.19-2.05,1.87-3.2,3.37c-0.33,0.43-1.26,1.92-1.01,2.36   c-0.26,0.13-0.53,0.26-0.79,0.38c-1.64,0.52-2.4-0.1-3.91-0.49c-0.64-0.16-1.24-0.71-1.86-0.73c-0.43-0.43-0.73-0.97-1.35-1.01   c-0.48-1.3-0.96-2.6-1.44-3.89c-0.31-2.8-0.61-5.6-0.92-8.4c-0.25-0.55-0.49-1.09-0.74-1.64c-0.26-0.29-0.52-0.59-0.78-0.88   c-0.51-0.22-1.01-0.45-1.52-0.67c-0.34-0.28-0.67-0.56-1.01-0.84c-0.39-0.22-0.79-0.45-1.18-0.67c-1.18-0.12-2.36-0.24-3.54-0.36   c-0.79,0.01-1.57,0.01-2.36,0.02c-1.65-0.71-3.22-1.35-5.05-1.35c-0.62-0.28-1.23-0.56-1.85-0.84c-1.02-0.37-2.01-1.17-2.85-1.86   c-0.41-0.33-0.67-0.9-1.19-1.01c-0.2-0.5-0.09-0.73-0.67-0.84c-0.73-1.08-1.16-2-1.18-3.37c0.06-0.67,0.11-1.35,0.17-2.02   c-0.11-0.66-0.22-1.32-0.34-1.98c-0.21-2.85-0.72-5.89-3.58-7.32c-0.81-0.41-3.71-1.1-4.5-0.63c-1.46-0.49-3.05-0.86-4.23-1.86   c-1.63-1.39-2.18-2.66-3.35-4.37c-0.28-0.39-0.56-0.79-0.84-1.18c-0.97-0.75-1.9-1.5-3.08-1.9c-0.67-0.23-2.01-0.62-2.65-0.29   c-1.51-0.48-3.01-0.95-4.52-1.43c-0.75-0.25-2.32-0.93-2.42-1.73c-0.1-0.52-0.2-1.04-0.3-1.56c0.05-0.68,0.1-1.36,0.15-2.04   c0.28-0.35,0.55-0.71,0.83-1.06c-0.25-0.28-0.43-0.55-0.81-0.44c-0.16-0.49-0.19-1.15-0.67-1.35c0.23-2.55,1.06-5.2,0.51-7.75   c-0.62-0.73-1.24-1.46-1.85-2.19c-0.35-0.37-0.69-0.74-1.04-1.12c-0.16-0.08-0.32-0.16-0.47-0.24c-0.45-0.61-0.9-1.23-1.35-1.84   c-0.79-1.84-1.33-3.83-1.85-5.74c-0.23-0.84-0.45-1.67-0.68-2.51c0-2.95,0.19-5.79,0.52-8.72c0.25-0.79,0.49-1.59,0.74-2.38   c0.68-1.77,1.23-3.39,1.6-5.23c0.12-0.44,0.24-0.88,0.36-1.32c-0.01-0.68-0.02-1.37-0.03-2.05c-0.11-0.51-0.22-1.01-0.34-1.52   c-1.49-2.13-3.45-3.84-5.39-5.71c-1.06-0.75-2.12-1.5-3.18-2.25c-1.75-1.43-3.5-2.91-5.58-3.83c-0.46-0.31-0.92-0.62-1.38-0.93   c-2.41-1.11-4.82-2.23-7.24-3.34c-1.58-0.89-3.39-1.75-4.69-3.05c-0.28-0.08-0.56-0.17-0.84-0.25c-0.65-0.45-1.21-1.36-2.02-1.35   c-0.56-0.9-1.12-1.8-1.68-2.69c-0.22-0.67-0.45-1.35-0.67-2.02c-0.24-0.58-0.32-3.77,0-4.21c-0.53-2.4-0.34-4.84-0.34-7.24   c-0.5-1.3-0.99-2.59-1.49-3.89c-0.96-1.24-2.06-2.37-3.15-3.51c-1.72-1.79-3.43-3.57-4.66-5.74c-1.44-2.56-1.8-6.54-0.81-9.26   c0.06-0.37,0.12-0.74,0.18-1.12c0.39-0.81,0.78-1.61,1.16-2.42c0.06-0.51,0.11-1.01,0.17-1.52c0.73-1.96,1.46-3.93,2.19-5.89   c0.83-1.96,1.9-3.64,3.08-5.37c0.15-0.22,0.92-1.76,1.21-1.45c1.01,1.14,1.49,2.57,2.46,3.79c1.63,2.36,3.25,4.72,4.88,7.07   c1.46,1.85,2.92,3.7,4.38,5.56c1.6,0.84,2.7,2.26,4.21,3.2c0.95,0.44,1.9,0.88,2.85,1.33c0.73,0.12,1.47,0.24,2.2,0.36   c0.75-0.24,1.49-0.48,2.24-0.72c0.71-0.04,1.42-0.08,2.14-0.13c1.46,0.38,2.62,0.2,3.98-0.48c1.01-0.51,1.8-1.25,2.58-2.05   c0.23-0.28,0.45-0.56,0.68-0.84c1.35-1.29,2.7-2.58,4.05-3.87c1.23-1.07,2.47-2.14,3.7-3.2c1.19-0.87,2.41-3.27,3.24-4.53   c0.97-1.26,1.95-2.53,2.92-3.79c0.99-1.62,1.98-3.23,2.97-4.85c0.36-0.59,0.85-1.15,1.47-1.48c0.36-1.8,1.77-3.11,2.53-4.71   c0.67-1.46,1.35-2.92,2.02-4.38c0.35-1.57,0.7-3.14,1.05-4.7c0.15-0.4,0.31-0.79,0.46-1.19c0.06-0.62,0.22-1.52,0.31-2.19   c-0.03-0.2,0.02-0.59,0-0.7c0.11,0.05,0.75,0.29,0.86,0.34c0.82,0.36,1.66,0.5,2.54,0.69c1.07,0.45,2.13,0.9,3.2,1.35   c1.73,0.87,3.18,2.41,4.54,3.69c0.84,1.02,1.69,2.03,2.53,3.05c0.79,0.56,1.57,1.12,2.36,1.68c1.07,0.23,2.14,0.47,3.2,0.7   c1.01-0.06,2.02-0.13,3.03-0.19c1.12,0,2.25,0,3.37,0c0.67-0.22,1.35-0.45,2.02-0.67c0.61-0.61,1.56-1.72,2.49-1.86   c2.88-0.42,5.41-2.19,8.2-3.12c1.21-0.36,2.41-0.72,3.62-1.08c1.41-0.92,2.83-1.84,4.24-2.76c1.39-0.82,2.79-1.64,4.18-2.46   c1.01-0.79,2.02-1.57,3.03-2.36c0.95-0.62,1.91-1.23,2.86-1.85c1.66-1.65,3.31-3.29,4.97-4.94c1.49-1.33,2.97-2.66,4.46-3.99   c0.27-0.33,1.71-0.92,1.99-0.76c0.8,0.52,1.56,1.04,2.14,1.81c0.36,0.48,0.69,1.29,1.25,1.47c0.18,0.75,0.12,1.46,0.89,1.73   c0.6,0.15,1.2,0.31,1.8,0.46c0.48-0.15,0.96-0.31,1.44-0.46c0.48-0.3,0.95-0.59,1.43-0.89c2.39-2.71,3.4-6.68,6.28-9   c0.49-0.41,0.99-0.82,1.48-1.23c0.84-0.56,1.6-0.85,2.3-1.58C483.87,194.64,484.23,194.32,484.58,194.01z"/>
            <circle cx="428.82" cy="285.57" r="1.586"/>
        </g>
        <g id="__Günyüzü">
            <path d="   M498.73,391.31c-0.92-1.23-1.76-2.24-3.06-3.02c0-0.82-1.33-1.66-1.95-2.14c-0.39,0.01-1.35-0.37-1.83-0.55   c-1.64-0.55-3.15-1.32-4.64-2.19c-0.15-0.55-0.77-0.96-1.18-1.35c-0.28-0.62-0.56-1.23-0.84-1.85c0.31-1.27,0.04-2.48,0-3.7   c0.69-0.95,0.2-3.25,0.17-4.38c-0.74-0.35-1.05-3.04-1.35-3.87c-0.62-1.35-1.23-2.69-1.85-4.04c0-0.56,0-1.12,0-1.68   c0.04-0.51,0.09-1.03,0.13-1.54c0.2-1.73,0.28-3.47,0.17-5.2c-0.04-0.45-0.09-0.89-0.13-1.34c-0.44-0.42-0.76-0.79-1.02-1.35   c-0.28-1.01-0.55-2.02-0.83-3.03c-0.61-0.31-2.12-3.36-2.28-4.18c-0.14-1.8-0.28-3.61-0.42-5.41c-0.04-0.88-0.3-1.84,0-2.69   c-0.18-0.34-0.35-0.68-0.53-1.02c-0.22-1.46-0.43-2.92-0.65-4.37c0.04-1.12,0.16-2.08,0-3.2c0.53-0.72,0.22-1.87,0.17-2.69   c0.12-0.5,0.24-1.01,0.36-1.51c0.22-0.84,0.44-1.69,0.65-2.53c-0.32-0.3-0.54-2.12-0.67-2.69c-0.17-0.39-0.34-0.79-0.51-1.18   c-0.52-0.09-0.86-1.27-1.18-1.68c-0.97-0.82-1.95-1.63-2.92-2.45c-1.38-0.87-2.77-1.74-4.15-2.6c-0.99,0.1-1.94-0.8-2.69-1.35   c0.09-0.39-0.24-0.58-0.48-0.88c-0.93-1.2,0.16-4.13,0.61-5.57c0.75-2.37,1.34-4.96,2.72-7.1c1.86-2.27,3.72-4.55,5.58-6.82   c1.07-1.57,2.13-3.14,3.2-4.71c-0.25-1.16,0.89-3.94,1.35-5.05c0.33-0.4,0.67-0.8,1.01-1.21c0.73-0.66,1.46-1.33,2.19-1.99   c1.69,0,3.13-1.79,4.88-1.68c1.68,0.1,3.25-0.3,4.89-0.65c0.45-0.12,0.89-0.24,1.34-0.36c1.52-0.28,3.03-0.56,4.55-0.84   c0.67,0,1.35,0,2.02,0c0.73-0.28,1.46-0.56,2.19-0.84c1.47-0.42,2.94-0.85,4.4-1.27c1.27-0.15,2.55-0.29,3.83-0.44   c1.58-0.44,3.16-0.88,4.74-1.32c2.19-0.28,4.38-0.56,6.57-0.84c1.25-0.36,2.49-0.73,3.74-1.09c0.72-0.03,1.44-0.07,2.16-0.1   c1.07-0.33,2.13-0.67,3.2-1c1.48-0.38,2.57-0.05,3.47-1.25l0.32,0.78c0.63,1.22,0.53,1.71,1.25,2.78c1.02,1.53,1.39,3.41,2.23,5.05   c0.38,0.85,0.76,1.71,1.15,2.56c0.62,0.83,1.38,1.38,2.11,2.1c0.36,0.36,0.73,0.73,1.09,1.09c0.68,2.09,0.61,4.41,0.17,6.57   c-0.28,2.08-0.56,4.15-0.84,6.23c-0.45,2.46-3.91,2.31-4.21,4.88c0.97,2.01,1.03,4.12,1.52,6.23c0.56,1.23,1.12,2.47,1.68,3.7   c0.17,0.67,0.34,1.35,0.51,2.02c-0.48,2.91-1.69,4.94-0.67,7.91c0.69,1.13,1.38,2.26,2.06,3.38c1.35,2.35,2.7,4.7,4.05,7.05   c0.21,0.17,0.42,0.34,0.63,0.52c0.22,0.49,0.45,0.99,0.67,1.48c1.34,1.94,2.89,4.74,2.36,7.27c-0.22,0.51-0.45,1.01-0.67,1.52   c-0.5,0.79-1.01,1.57-1.52,2.36c-0.43,0.68-0.85,1.35-1.28,2.03c-1,0.97-1.66,2.11-2.76,3.02c-0.72,0.6-1.27,1.66-2.19,2.02   c-0.37,0.58-0.42,0.97-0.87,1.49c-0.38,0.46-0.77,0.91-1.15,1.37c-0.71,0.32-1.41,0.63-2.12,0.95c-0.64,0.47-1.28,0.94-1.92,1.41   c-0.48,0.59-1.24,1.6-2.02,1.68c-0.28,0.34-0.56,0.67-0.84,1.01c-0.62,0.51-1.23,1.01-1.85,1.52c-0.52,0.49-2.08,1.95-2.69,2.02   c-0.62,0.62-1.23,1.23-1.85,1.85c-0.79,0.67-1.57,1.35-2.36,2.02c-3.33,1.86-6.66,3.72-9.99,5.57c-0.98,0.8-1.95,1.59-2.93,2.39   c-0.39,0.31-0.85,0.52-1.06,0.96c-0.71,0.32-1.78,0.66-2.19,1.35c-1.72,1.02-3.43,2.03-5.15,3.05c-0.54,0.55-1.09,1.09-1.63,1.64   c-0.72,2.25-0.42,4.4,1.39,6.04c0.43,0.39,0.78,0.94,1.35,1.05c0.53,0.73,1.07,1.45,1.6,2.18c0.71,0.71,1.42,1.43,2.13,2.14   c0.14,0.31,0.28,0.62,0.43,0.94c0.01,0.2-0.04,0.29-0.24,0.33c-2.87,0.76-6.03,0.98-8.96,0.98   C498.54,391.99,498.79,391.65,498.73,391.31z"/>
            <circle cx="496.35" cy="305.44" r="1.586"/>
        </g>
        <g id="__Çifteler">
            <path d="   M377.13,349.39c-0.35-0.37-0.69-0.74-1.04-1.12c-0.16-0.08-0.32-0.16-0.47-0.24c-0.45-0.61-0.9-1.23-1.35-1.84   c-0.79-1.84-1.33-3.83-1.85-5.74c-0.23-0.84-0.45-1.67-0.68-2.51c0-2.95,0.19-5.79,0.52-8.72c0.25-0.79,0.49-1.59,0.74-2.38   c0.68-1.77,1.23-3.39,1.6-5.23c0.12-0.44,0.24-0.88,0.36-1.32c-0.01-0.68-0.02-1.37-0.03-2.05c-0.11-0.51-0.22-1.01-0.34-1.52   c-1.49-2.13-3.45-3.84-5.39-5.71c-1.06-0.75-2.12-1.5-3.18-2.25c-1.75-1.43-3.5-2.91-5.58-3.83c-0.46-0.31-0.92-0.62-1.38-0.93   c-2.41-1.11-4.82-2.23-7.24-3.34c-1.58-0.89-3.39-1.75-4.69-3.05c-0.28-0.08-0.56-0.17-0.84-0.25c-0.65-0.45-1.21-1.36-2.02-1.35   c-0.56-0.9-1.12-1.8-1.68-2.69c-0.22-0.67-0.45-1.35-0.67-2.02c-0.24-0.58-0.32-3.77,0-4.21c-0.53-2.4-0.34-4.84-0.34-7.24   c-0.5-1.3-0.99-2.59-1.49-3.89c-0.96-1.24-2.06-2.37-3.15-3.51l-0.16,0.63c0.03-0.1,0.06-0.2,0.08-0.31   c-1.57,1.02-3.14,2.04-4.7,3.06c-2.61,1.63-5.22,3.26-7.83,4.88c-1.83,0.72-3.66,1.44-5.49,2.16c-1.96,0.51-3.93,1.01-5.89,1.52   c-1.27,0.02-2.35,0.23-3.54,0.67c-0.95-0.02-1.91-0.04-2.86-0.06c-1.1-0.14-3.33-0.11-4.26,0.55c-1.8-0.13-3.91,0.19-5.69,0.65   c-3.05,0.79-6.07,2.35-8.72,4.12c-1.07,0.83-2.15,1.66-3.22,2.49c-2.41,1.4-4.9,2.96-7.02,4.62c-2.51,1.97-4.92,4.11-7.63,5.82   c-0.73,0.73-1.46,1.46-2.19,2.19c-1.66,1.76-3.32,3.53-4.98,5.29c-0.25,0.37-0.5,0.74-0.75,1.11c-1.14,0.49-1.9,1.62-2.86,2.36   c-0.34,0.22-0.67,0.45-1.01,0.67c-0.4,0.51-1.36,1.52-2.02,1.52l-0.12,0.59c-0.02,1.49-0.03,2.97-0.05,4.46   c-0.41,1.95-0.82,3.9-1.23,5.85l0.04,0.55c1.74,1.51,3.49,3.03,5.23,4.54c2.16,2.1,4.1,4.63,5.91,7.04c0.09,0.3,0.18,0.6,0.27,0.91   c1.66,2.37,3.43,4.55,4.58,7.22c0.34,0.5,0.67,1.01,1.01,1.52c0.76,1.61,1.46,3.48,1.69,5.21c0.22,0.68,0.44,1.35,0.66,2.03   c0.17,0.34,0.34,0.67,0.51,1.01c0.22,0.28,0.45,0.56,0.67,0.84c0.62,0.91,0.57,2.21,0.73,3.22c0.04,0.84,0.07,1.67,0.11,2.51   l-0.18-0.5c0.03,0.92,3.62,1.68,4.56,2.52c1.76,1.56,3.64,2.88,5.56,4.21c0.4-0.05,0.65,0.15,1.01,0.34   c0.79,0.11,1.57,0.22,2.36,0.34c0.48-0.46,1.4-0.31,2.02-0.17c0.49-0.5,1.39-0.25,2.02-0.17c0.49-0.53,1.37-0.29,2.02-0.17   c0.58-0.34,3.01-0.28,3.7-0.17c0.02,0.04,1.63,1.41,1.89,1.68c0.83,1.07,1.66,2.13,2.49,3.2c0.39,0.22,0.79,0.45,1.18,0.67   c0.41-0.05,0.65,0.15,1.04,0.29c0.51,0.17,1.64-0.47,1.69-0.94c1-0.55,1.35-1.57,1.76-2.58c0.02-0.05,0.04-0.09,0.06-0.14   c-0.52-0.22-0.49-0.53-0.75-1c-0.75-1.4-2.05-2.05-2.6-3.65c0.22-0.08,0.43-0.15,0.65-0.23c0.01-0.23,0.02-0.45,0.03-0.68   c0-1.53,3.48-2.08,4.85-2.35c1.12,0.34,2.25,0.67,3.37,1.01c1.46,0.79,3.4,1.01,5.05,1.01c0.53-0.48,1.34-0.38,2.02-0.34   c0.18-0.5,0.31-0.42,0.76-0.63c0.24-0.36,0.47-0.72,0.71-1.08c0.24-0.55,0.48-1.1,0.73-1.66c-0.52-0.65-0.09-1.74-0.51-2.53   c-0.94-1.77-1.2-4.01-2.12-5.74c0.14-1.98,0.9-4.87,2.2-6.33c0.61-0.75,1.36-0.76,2.27-0.73c0.53-0.43,1.7-0.08,2.36-0.17   c2.09-0.29,4.26,0.92,6.22,1.39c0.62,0.03,1.24,0.07,1.86,0.1c0.79,0.18,1.57,0.35,2.36,0.53c1.29-0.01,2.59-0.01,3.88-0.02   c1.29,0.29,2.57,0.57,3.86,0.86c0.73-0.11,1.46-0.22,2.19-0.34c1.4,0.07,2.58,0.73,3.87,1.18c1.41,0.32,2.81,0.65,4.22,0.97   c1.34,0.29,2.69,0.59,4.03,0.88c0.45-0.43,1.72-0.23,2.36-0.17c3.22-0.14,7.19-2.41,5.35-1.25c2.72-1.25,5.12-2.05,8.12-1.95   L377.13,349.39z"/>
            <circle cx="307.5" cy="308.64" r="1.586"/>
        </g>
        <g id="__Han">
            <path d="   M222.64,404.44c-0.75-1.57-0.97-3.51-0.86-5.2c0.04-0.55-0.33-1.12,0.11-1.53c-1.11-1.57-0.17-3.56,0-5.22   c0.08-0.72-0.19-2.17-0.67-2.69c-0.23-1.45-0.3-3.09,0-4.55c0.3-1.45,0.94-2.76,1.24-4.2c0.09-0.45,0.18-0.91,0.27-1.36   c0.93-1.36,1.85-2.65,2.26-4.28c0.31-1.26,0.37-2.21,0.1-3.46c-0.06-0.62-0.11-1.24-0.17-1.85c-0.06-0.67-0.11-1.35-0.17-2.02   c-0.04-1.15,0.22-2.19,0-3.37c-0.15-0.76,0.53-2.54,0-3.03c0.24-0.77,0.66-2.43,1.35-2.86c0.14-0.88,0.46-1.64,1.01-2.36   c0.62-0.62,1.23-1.23,1.85-1.85c1.3-1.6,2.44-3.28,3.48-5.08c0.69-1.45,1.39-2.9,2.08-4.35c0.11-1.01,0.22-2.02,0.34-3.03   c0.67-1.23,1.35-2.47,2.02-3.7c0.63-1.12,1.26-2.23,1.89-3.35c0.78-1.14,1.57-2.27,2.35-3.41c0.61-0.67,1.21-1.33,1.82-2   c1.02-0.51,2.72-0.82,3.37-1.85c2.25-0.65,4.26,0.67,6.49,0.35c0.72-0.1,1.28-0.65,1.93-0.35l0.16-0.01   c1.74,1.51,3.49,3.03,5.23,4.54c2.16,2.1,4.1,4.63,5.91,7.04c0.09,0.3,0.18,0.6,0.27,0.91c1.66,2.37,3.43,4.55,4.58,7.22   c0.34,0.5,0.67,1.01,1.01,1.52c0.76,1.61,1.46,3.48,1.69,5.21c0.22,0.68,0.44,1.35,0.66,2.03c0.17,0.34,0.34,0.67,0.51,1.01   c0.22,0.28,0.45,0.56,0.67,0.84c0.62,0.91,0.57,2.21,0.73,3.22c0.04,0.84,0.07,1.67,0.11,2.51c-0.11,0.01-0.22,0.02-0.34,0.03   c-1.32,0.12-2.76,0.77-3.88,1.47c-0.35,0.26-0.69,0.53-1.04,0.79c-0.47,1.13-1.32,2.06-0.96,3.29c0.16,0.61,1.14,3.53,0.99,3.85   c1.24,1.55,2.48,3.09,3.72,4.64c0.74,0.18,1.11,1.11,1.62,1.61c0.68,0.62,1.36,1.23,2.05,1.85c0.71,0.96,2.56,4.43,1.99,5.49   c-0.32,0.64-0.63,1.27-0.95,1.9c-0.56,0.56-1.12,1.12-1.68,1.68c-0.81,0.27-2.09,0.32-2.69,1.01c-0.78-0.08-1.56-0.15-2.34-0.23   c-1.43,0.18-2.76,0.09-4.21,0.09c-1.52,0.05-3.04,0.09-4.56,0.14c-0.4-0.06-1.08-0.07-1.35-0.34c-0.67,0.06-1.35,0.11-2.02,0.17   c-0.63-0.1-1.32-0.28-2.02-0.17c-1.52,0.25-3.2,1.62-4.38,2.53c-0.84,0.56-1.68,1.12-2.53,1.68c-1.05,0.86-1.62,2.04-2.9,2.54   c-0.18,0.22-0.17,0.11,0.04,0.33c-0.32,0.26-0.31,0.18-0.34,0.67c-0.87,0.82-2.77,3.18-2.86,4.38c-0.34,0.62-0.67,1.23-1.01,1.85   c-0.28,0.28-0.56,0.56-0.84,0.84c-0.56,0.15-1.52,0.45-1.68,1.01c-1.07,0.2-2.14,0.4-3.21,0.59c-0.73,0.24-1.09,0.6-1.84,0.75   c-0.72,0.15-2.49,0.35-2.86,1.01c-1.31,0.04-2.49,0.5-3.83,0.28c-2.09-0.33-4.37-2.39-6-3.51c-0.65-0.61-1.3-1.21-1.95-1.82   L222.64,404.44z"/>
            <circle cx="263.22" cy="378.1" r="1.586"/>
        </g>
        <g id="__Seyitgazi">
            <path d="   M134.15,288.94c0.45,1.15,0.75,2.24,1.41,3.3c0.27,0.44,0.96,0.93,0.95,1.41c0.91,0.38,1.82,0.76,2.74,1.14   c1.58-0.71,3.73,0.34,5.17,0.91c0.29,0.11,1.54,0.41,1.55,0.46c-0.05,0.43-0.11,0.86-0.16,1.29c0.1,0.08,0.21,0.16,0.31,0.24   c-0.18,0.1-0.35,0.2-0.53,0.31c-0.43,0.23-1.19,0.59-1.66,0.37c-0.5,0.22-1.01,0.45-1.52,0.67c-1.08,1.02-2.76,2.84-4.38,2.69   c-0.39,0.34-0.79,0.67-1.18,1.01c-0.44,0.85-0.93,1.62-0.75,2.64c-0.52,0.46-0.64,1.25-0.76,1.91c0.17,0.95,0.34,1.91,0.51,2.86   c0.62,1.18,1.23,2.36,1.85,3.54c0.06,0.34,0.11,0.67,0.17,1.01c0.45,0.67,0.9,1.35,1.35,2.02c1.19,1.09,2.26,2.1,2.69,3.7   c0.28,0.51,0.56,1.01,0.84,1.52c2.02,2.08,3.69,3.69,4.88,6.4c0.72,1.63,1.21,4.86,0.67,6.57c-0.18,0.56,0.12,1.1-0.34,1.52   c-0.11,3.39-0.7,5.96,0.67,9.26c0.34,0.51,0.67,1.01,1.01,1.52c0.49,0.38,1.27,0.77,1.52,1.35c0.47,0.33,0.93,0.67,1.4,1   c0.77,0.72,1.54,1.43,2.31,2.15c0.63,0.09,1.26,0.67,1.66,1.17c0.48,0.08,2.13,1.58,2.38,2.08c0.95,0.56,1.91,1.12,2.86,1.68   c0.88,0.3,1.75,0.6,2.63,0.9c1.99,0.26,3.97,0.52,5.96,0.78c0.56,0.39,1.12,0.79,1.68,1.18c1.42,1.67,3.06,3.22,4.26,5.11   c0.33,0.75,0.66,1.5,0.98,2.25c0.22,0.41,0.44,0.81,0.65,1.22c0.19,0.51,0.37,1.03,0.56,1.54c-0.54,1.47,0.63,3.55,1.48,4.64   c0.39,0.58,0.77,1.15,1.16,1.73c0.11,0.39,0.22,0.79,0.34,1.18c-0.3-0.04-1.76-0.14-1.65,0.32c0.64,2.73,2.14,4.7,3.5,7.09   c0.52,1.03,1.05,2.07,1.57,3.1c0.63,0.7,1.25,1.41,1.88,2.11c0.53,0.45,1.07,0.9,1.6,1.35c2.26,1.44,4.52,2.7,6.9,3.86   c0.53,0.26,2.4,1.08,2.53,1.53c1.71,0.37,3.4,0.23,5.05,0.53c0.55,0.1,2.19,0.32,2.53,0.65c1.68-0.06,3.37-0.12,5.05-0.18   c0.9-0.05,1.8-0.11,2.69-0.16c1.07,0.17,2.13,0.34,3.2,0.51c0.84,0.73,1.68,1.46,2.53,2.19c0.36,0.49,0.71,0.97,1.07,1.46   c0.52,0.56,1.43,1.15,1.63,1.91c0.44,0.4,1.1,0.61,1.18,1.18c-0.03-0.06-0.06-0.12-0.08-0.17c-0.75-1.57-0.97-3.51-0.86-5.2   c0.04-0.55-0.33-1.12,0.11-1.53c-1.11-1.57-0.17-3.56,0-5.22c0.08-0.72-0.19-2.17-0.67-2.69c-0.23-1.45-0.3-3.09,0-4.55   c0.3-1.45,0.94-2.76,1.24-4.2c0.09-0.45,0.18-0.91,0.27-1.36c0.93-1.36,1.85-2.65,2.26-4.28c0.31-1.26,0.37-2.21,0.1-3.46   c-0.06-0.62-0.11-1.24-0.17-1.85c-0.06-0.67-0.11-1.35-0.17-2.02c-0.04-1.15,0.22-2.19,0-3.37c-0.15-0.76,0.53-2.54,0-3.03   c0.24-0.77,0.66-2.43,1.35-2.86c0.14-0.88,0.46-1.64,1.01-2.36c0.62-0.62,1.23-1.23,1.85-1.85c1.3-1.6,2.44-3.28,3.48-5.08   c0.69-1.45,1.39-2.9,2.08-4.35c0.11-1.01,0.22-2.02,0.34-3.03c0.67-1.23,1.35-2.47,2.02-3.7c0.63-1.12,1.26-2.23,1.89-3.35   c0.78-1.14,1.57-2.27,2.35-3.41c0.61-0.67,1.21-1.33,1.82-2c1.02-0.51,2.72-0.82,3.37-1.85c2.25-0.65,4.26,0.67,6.49,0.35   c0.72-0.1,1.28-0.65,1.93-0.35c0.04-0.18,0.08-0.37,0.12-0.55c0.41-1.95,0.82-3.9,1.23-5.85c0.02-1.49,0.03-2.97,0.05-4.46   c0.01-0.92,0.02-1.84,0.03-2.76c-0.14-1.8-0.28-3.61-0.42-5.41c0.52-4.04,1.04-8.08,1.56-12.12c0.24-1.2,0.51-2.26,0.87-3.4   c0.14-0.44,0.29-0.88,0.43-1.32c-0.11-0.95-0.22-1.91-0.34-2.86c-0.7-0.84-1.3-1.66-1.65-2.71c-0.18-0.61-0.36-1.22-0.54-1.84   c0-0.5,0-1.01,0-1.52c0.4-1.44,0.8-2.88,1.19-4.31c1.09-1.72,2.18-3.45,3.26-5.17c0.4-0.67,1.87-3.18,1.6-3.82   c0.76-1.92,1.82-4.31,1.35-6.4c-0.37-1.62-1.14-3.23-1.85-4.73c-0.34-0.67-0.67-1.34-1.01-2.01c-2.49-2.39-4.79-4.79-7.24-7.24   c-0.56-0.56-3.35-2.6-4.04-2.69c-0.85-0.73-1.69-1.46-2.54-2.18c-1.73-1.54-3.46-3.07-5.19-4.61c-0.69-0.5-2.02-1.11-2.05-2.13   c0-1.86,0.06-3.58,0.52-5.39c0.11-0.43,0.01-1.75-0.04-1.77c-0.83-0.36-1.66-0.73-2.49-1.09c-2.38-0.15-4.75,0.49-7.07,0.67   c-0.65-0.07-1.29-0.14-1.94-0.22c-0.53,0.46-2.78,0.11-3.61,0.38c-0.91,0.3-2.47-0.43-3.2,0.17c-0.52,0-1.14-0.06-1.27,0.52   c-0.08,0.16-0.17,0.33-0.25,0.49c0.46,1.29,0.93,2.57,1.39,3.86c0.07,0.13,0.43,1.57,0.43,1.57c-0.15,0.16-0.29,0.31-0.44,0.47   c0.05,0.17,0.09,0.34,0.14,0.51c-0.06,0-0.11,0.01-0.17,0.01c-3.34,0.31-6.84,0.38-10.23-0.09c-0.65-0.09-3.05-0.1-3.29,0.57   c-0.66,1.69-1.31,3.38-1.97,5.07c-0.39,0.45-0.79,0.9-1.18,1.35c-0.34,0.22-0.67,0.45-1.01,0.67c-0.9,0.12-1.8,0.24-2.69,0.35   c-0.62,0.05-1.23,0.1-1.85,0.15c-0.97-0.18-2.83-0.58-3.55,0.18c-0.78,0.92-0.81,2.85-0.99,4.19c-0.05,0.39-0.23,1.1-0.51,1.35   c-0.06,0.51-0.11,1.01-0.17,1.52c0.04,1.28,0.07,2.38-0.08,3.68c-0.1,0.66-0.21,1.32-0.31,1.98c-0.04,0.53-0.08,1.05-0.12,1.58   c-0.21,0.85-0.65,2.5-1.17,3.06c-0.62,0.49-1.24,0.99-1.86,1.48c-4.59,1.8-9.54,2.61-13.97,4.59c-1.44,0.64-2.86,1.44-4.05,2.48   c-0.46,0.24-0.93,0.47-1.39,0.71c-1.98,1.32-4.07,2.12-6.39,2.7c-1,0.16-2,0.32-3,0.47c-0.9,0-1.79-0.01-2.69-0.01   c-1.01,0.06-2.02,0.11-3.03,0.17c-1.12-0.01-2.23-0.02-3.35-0.04c-2.71,0.25-4.46,1.44-6.11,3.55c-0.33,0.42-1.45,1.22-1.32,1.7   c-2.36,1.4-4.72,2.81-7.07,4.21c-1.12,0.52-1.18,0.76-2.36,1.43c-0.84,0.51-1.28,1.48-2.02,1.09   C133.93,288.38,134.04,288.66,134.15,288.94z"/>
            <circle cx="222.38" cy="286.67" r="1.586"/>
        </g>
        <g id="__Odunpazarı">
            <path d="   M133.85,286.91c-0.32-1.6-0.2-3.22-0.2-4.87c0.43-0.34,0.33-1.46,0.33-2.03c0.07-0.18,0.14-0.36,0.21-0.55   c0.05-1.1,0.09-2.21,0.14-3.32c0.27-2.25,0.95-4.67,0.51-6.9c0.57-0.47,0.27-1.68,0.18-2.36c0.06-0.73,0.12-1.46,0.18-2.19   c-0.12-0.56-0.24-1.12-0.36-1.68c0-0.39,0-0.79,0-1.18c-0.67-1.35-1.35-2.69-2.02-4.04c-0.45-0.15-0.62-0.72-0.98-1.04   c-0.96-0.61-1.93-1.21-2.89-1.82c-1.79-0.74-3.59-1.49-5.38-2.23c-0.3-0.28-1.89-0.96-2.19-0.94c-0.5-0.3-1.96-1.3-2.4-1.12   c-0.93-0.53-1.87-1.05-2.8-1.58c-1.22-1.01-2.44-2.02-3.66-3.03c-0.72-1.41-1.45-2.82-2.17-4.24c-0.36-0.86-0.73-1.72-1.09-2.58   c-0.17-0.88-0.33-1.76-0.5-2.65c-0.65-1.55-1.02-3.17-1.66-4.72c-0.34-0.83-0.97-1.45-0.73-2.37c0.06-0.25,0.81,0.08,1.05,0.19   c1.19,0.58,1.21,1.37,2.53,1.65c0.3,0.06,0.5-0.41,0.67-0.64c-0.14-0.35-0.44-0.91-0.17-1.18c0.71-1,3-0.85,4.04-0.51   c0.31-0.28,0.81-0.3,1.23-0.37c1.16,0.53-1,2.39-1.56,2.9c0.55,0.58,0.02,0.98-0.15,1.62c-0.06,0.02-0.12,0.04-0.18,0.06   c0.82,0,2.11,0.58,2.69,0c0.13,0.85,0.77,0.91,1.52,0.99c0.29,0.04-0.01-0.56-0.01-0.82c-0.27-0.8-0.53-1.59-0.8-2.39   c-0.01-0.21-0.03-0.43-0.04-0.64c0.44,0.37,0.83,0.05,0.97-0.44c0.58-0.25,1.15-0.49,1.73-0.74c0.11-0.39,0.22-0.79,0.34-1.18   l0.18-0.27c1.14,0.6,1.54,0.36,2.85,0.1c0.29-0.06,1.01,0.31,1.01,0c0.34-0.06,0.67-0.11,1.01-0.17c0.61,0.08,1.47,0.36,2.02,0   c0.57,0,1.61,0.07,2.02-0.34c0.62,0.08,1.63,0.43,2.02-0.17c0.86-0.11,3.2-0.08,3.7-0.67c1.12,0.22,3.54,1.25,4.04-0.11   c0.73-1.14,1.46-2.29,2.19-3.43c0.27-0.36,0.59-0.34,0.67-0.84c0.43-0.2,2.53-0.99,2.53-0.68c0,0.7,0.15,2.66,1.01,2.44   c1.75-0.47,5.57-1.16,6.57-2.6c0.09-0.39,0.27-0.86,0.12-1.31c-0.25-0.73-1.19-1.32-0.91-2.22c0.04-0.23,0.08-0.46,0.12-0.69   c0.17-0.11,0.34-0.22,0.51-0.34c0-0.68,0.27-1.34,0.84-1.68c0.7,0.48,1.4,0.95,2.09,1.43c0.8-0.97,1.8-3.69,0.94-4.79   c0.06-0.28,0.11-0.56,0.17-0.84c0.81-0.59,1.44-1.14,1.68-2.19c-0.06-0.17-0.11-0.34-0.17-0.51c-0.63-1.31-0.79-2.59-1.09-4.07   c-0.1-0.47-0.18-1.35,0.28-1.6c0.45-0.23,0.82-0.26,1.32-0.23c0.31-0.26,1.23-0.92,1.15-1.35c-0.25-1.24-1.79-1.72-2.16-3.03   c-0.09-0.34-0.25-0.93,0-1.18c-0.28-0.39-0.56-0.79-0.84-1.18c0.11-0.39,0.22-0.79,0.34-1.18c0.07-0.5,0.11-1.44-0.17-1.85   c0.25-0.93,0.5-2.18,1.18-2.86c0.25-1.1,0.6-1.61,1.35-2.36c0.17,0.06,0.34,0.11,0.51,0.17c0.73-0.06,1.46-0.11,2.19-0.17   c0.24,0.24,0.59,0.42,0.84,0.17c0.45,0,1.2,0.15,1.52-0.17c0.57,0.13,1.34,0.04,1.85-0.34c0.73,0.73,2.01,0.52,2.69-0.17   c0.42-0.42,1.35-2.19,1.18-2.36c0.34-0.17,0.67-0.34,1.01-0.51c0.91-0.91,1.18-2.02,2.69-2.02c0.23-0.19,0.45-0.37,0.68-0.56   c0.85-0.24,1.6,0.07,2.52-0.12c0.35,0.11,0.74,0.44,1.01,0.17c0,0.81-0.02,0.87,0.81,0.79c0.25-0.04,0.54,0,0.54-0.28   c0.62-0.06,1.23-0.11,1.85-0.17c0,0.4,0.99,0.67,1.35,0.67c0.41,0,0.2-1.08,0.94-0.81c0.76,0.32,1.66,0.55,2.26,1.14   c1.25,0.08,2.53,0.15,3.7,0.51c0.67-0.11,1.35-0.22,2.02-0.34c1.67-0.11,3.49-0.08,5.19-0.05c1.47,0.03,5.02-0.05,5.73-0.97   c0.51-0.79,1.02-1.57,1.53-2.36c0.73-0.05,1.79,0.09,2.37-0.49c0.84,0,1.68,0,2.53,0c0.39-0.24,0.78-0.47,1.17-0.71   c0.83-0.18,1.53-0.47,2.37-0.47c0.04-0.12,0.08-0.23,0.12-0.35c0.22-0.72,0.17-1.39,0.32-2.16c0.08-0.34,0.16-0.69,0.24-1.03   c0.6,0,1.2-1.3,1.18-1.85c0.39-0.28,0.79-0.56,1.18-0.84c0-0.45,0.31-0.75,0.67-1.01c0.32-0.23,0.89-0.46,1.18-0.17   c0.39-0.17,0.79-0.34,1.18-0.51c1.63,0.06,3.26,0.11,4.88,0.17c0.51-0.51,1.68-0.51,2.36-0.51c0.28-0.17,0.56-0.34,0.84-0.51   c0.62,0.41,1,0.83,1.68,1.01c0.18-0.18,0.41-0.23,0.67-0.17c0.56,0.28,1.12,0.56,1.68,0.84c0.45-0.11,0.9-0.22,1.35-0.34   c0.28,0.11,0.56,0.22,0.84,0.34c0-0.66,1.73-1.2,2.19-1.52c0.69,0,1.43,0.04,1.98-0.41c1.08-0.86,0.18-1.13,1.05-1.62   c0.52,0.52,2.8,0.13,3.58,0.01c0.47-0.07,1.3-0.01,1.64,0.33c1.2-0.54,2.47-0.01,3.54,0.67c0,0.38-0.08,1.85,0.34,1.85   c0.42,0,1.89-0.24,2.36-0.51c0.32,0.01,0.64,0.01,0.95,0.02c0.53-0.09,1.34-0.34,1.7,0.16c1.04,1.56,0.55,1.08,0.55,2.69   c0.9,1.52,1.8,3.03,2.69,4.55c1.74,0.62,3.48,1.23,5.22,1.85c1.2,0.33,3.09,1.8,4.04,0.84l0.17,1.09c0.1,0.47,0.22,0.95,0.34,1.43   c-0.55,0.63,0.11,2.49-0.51,3.37c-0.8,0.95-1.6,1.9-2.4,2.85c-0.6,1.13-1.21,2.26-1.81,3.38c0,0.84,0,1.68,0,2.53   c0.48,1.06,0.96,2.12,1.45,3.18c0.18,0.38,0.08,0.63,0.53,0.79c0.8,1.88,1.99,3.44,3.42,4.95c-0.08,0.42,0.67,1.36,0.88,1.76   c0.61,1.12,1.05,2.38,1.31,3.63c0.18,0.91-0.46,0.94-0.84,1.68c-0.11,0.51-0.22,1.01-0.34,1.52c-0.43,2.98,0.22,6.48,0.96,9.43   c0.09,0.12,0.19,0.24,0.28,0.35c0.28,0.7,0.66,1.08,0.77,1.83c0.52,0.13,0.87,0.72,1.27,1.11l0.16,0.15   c-0.25,0.13-0.5,0.28-0.76,0.43c-0.19,0.61-0.97,0.79-1.52,1.01c-0.18,0.73-1.24,1.29-1.85,1.68c-0.04,0.66-0.63,0.94-1.03,1.47   c-0.16,0.35-0.49,0.45-0.65,0.81c-0.79,0.17-1.23,0.84-2.02,1.01c-0.4,0.17-0.89,0.17-1.29,0.34c-0.45,0.28-0.96,0.48-1.4,0.76   c-1.63,0.2-3.69,1.24-5.39,1.52c-2.7,0.44-5.45-0.2-8.09-0.85c-1.01-0.17-2.01-0.33-3.02-0.5c-0.51-0.39-1.01-0.79-1.52-1.18   c-0.28-0.25-0.62-0.31-0.79-0.36l-0.26-0.23c-0.83-0.36-1.66-0.73-2.49-1.09c-2.38-0.15-4.75,0.49-7.07,0.67   c-0.65-0.07-1.29-0.14-1.94-0.22c-0.53,0.46-2.78,0.11-3.61,0.38c-0.91,0.3-2.47-0.43-3.2,0.17c-0.52,0-1.14-0.06-1.27,0.52   c-0.08,0.16-0.17,0.33-0.25,0.49c0.46,1.29,0.93,2.57,1.39,3.86c0.07,0.13,0.43,1.57,0.43,1.57c-0.15,0.16-0.29,0.31-0.44,0.47   c0.05,0.17,0.09,0.34,0.14,0.51c-0.06,0-0.11,0.01-0.17,0.01c-3.34,0.31-6.84,0.38-10.23-0.09c-0.65-0.09-3.05-0.1-3.29,0.57   c-0.66,1.69-1.31,3.38-1.97,5.07c-0.39,0.45-0.79,0.9-1.18,1.35c-0.34,0.22-0.67,0.45-1.01,0.67c-0.9,0.12-1.8,0.24-2.69,0.35   c-0.62,0.05-1.23,0.1-1.85,0.15c-0.97-0.18-2.83-0.58-3.55,0.18c-0.78,0.92-0.81,2.85-0.99,4.19c-0.05,0.39-0.23,1.1-0.51,1.35   c-0.06,0.51-0.11,1.01-0.17,1.52c0.04,1.28,0.07,2.38-0.08,3.68c-0.1,0.66-0.21,1.32-0.31,1.98c-0.04,0.53-0.08,1.05-0.12,1.58   c-0.21,0.85-0.65,2.5-1.17,3.06c-0.62,0.49-1.24,0.99-1.86,1.48c-4.59,1.8-9.54,2.61-13.97,4.59c-1.44,0.64-2.86,1.44-4.05,2.48   c-0.46,0.24-0.93,0.47-1.39,0.71c-1.98,1.32-4.07,2.12-6.39,2.7c-1,0.16-2,0.32-3,0.47c-0.9,0-1.79-0.01-2.69-0.01   c-1.01,0.06-2.02,0.11-3.03,0.17c-1.12-0.01-2.23-0.02-3.35-0.04c-2.71,0.25-4.46,1.44-6.11,3.55c-0.33,0.42-1.45,1.22-1.32,1.7   c-2.36,1.4-4.72,2.81-7.07,4.21c-1.12,0.52-1.18,0.76-2.36,1.43c-0.84,0.51-1.28,1.48-2.02,1.09   C133.81,288.1,133.89,287.15,133.85,286.91z"/>
            <circle cx="180.79" cy="187.49" r="1.586"/>
        </g>
        <g id="__Mahmudiye">
            <path d="   M336.89,272.77c-1.57,1.02-3.14,2.04-4.7,3.06c-2.61,1.63-5.22,3.26-7.83,4.88c-1.83,0.72-3.66,1.44-5.49,2.16   c-1.96,0.51-3.93,1.01-5.89,1.52c-1.27,0.02-2.35,0.23-3.54,0.67c-0.95-0.02-1.91-0.04-2.86-0.06c-1.1-0.14-3.33-0.11-4.26,0.55   c-1.8-0.13-3.91,0.19-5.69,0.65c-3.05,0.79-6.07,2.35-8.72,4.12c-1.07,0.83-2.15,1.66-3.22,2.49c-2.41,1.4-4.9,2.96-7.02,4.62   c-2.51,1.97-4.92,4.11-7.63,5.82c-0.73,0.73-1.46,1.46-2.19,2.19c-1.66,1.76-3.32,3.53-4.98,5.29c-0.25,0.37-0.5,0.74-0.75,1.11   c-1.14,0.49-1.9,1.62-2.86,2.36c-0.34,0.22-0.67,0.45-1.01,0.67c-0.4,0.51-1.36,1.52-2.02,1.52c0,0-0.09-1.25-0.08-2.17   c-0.14-1.8-0.28-3.61-0.42-5.41c0.52-4.04,1.04-8.08,1.56-12.12c0.24-1.2,0.51-2.26,0.87-3.4c0.14-0.44,0.29-0.88,0.43-1.32   c-0.11-0.95-0.22-1.91-0.34-2.86c-0.7-0.84-1.3-1.66-1.65-2.71c-0.18-0.61-0.36-1.22-0.54-1.84c0-0.5,0-1.01,0-1.52   c0.4-1.44,0.8-2.88,1.19-4.31c1.09-1.72,2.18-3.45,3.26-5.17c0.4-0.67,1.87-3.18,1.6-3.82c0.76-1.92,1.82-4.31,1.35-6.4   c-0.37-1.62-1.14-3.23-1.85-4.73c-0.34-0.67-0.67-1.34-1.01-2.01c-2.49-2.39-4.79-4.79-7.24-7.24c-0.56-0.56-3.35-2.6-4.04-2.69   c-0.85-0.73-1.69-1.46-2.54-2.18c-1.73-1.54-3.46-3.07-5.19-4.61c-0.69-0.5-2.02-1.11-2.05-2.13c0-1.86,0.06-3.58,0.52-5.39   c0.11-0.43,0.01-1.75-0.04-1.77l0.26,0.23c0.17,0.06,0.51,0.11,0.79,0.36c0.51,0.39,1.01,0.79,1.52,1.18   c1.01,0.17,2.01,0.33,3.02,0.5c2.64,0.65,5.39,1.29,8.09,0.85c1.7-0.28,3.76-1.32,5.39-1.52c0.45-0.28,0.96-0.48,1.4-0.76   c0.4-0.17,0.89-0.17,1.29-0.34c0.79-0.17,1.23-0.84,2.02-1.01c0.16-0.35,0.49-0.45,0.65-0.81c0.4-0.53,0.99-0.8,1.03-1.47   c0.61-0.39,1.67-0.95,1.85-1.68c0.55-0.22,1.33-0.4,1.52-1.01c0.26-0.15,0.51-0.29,0.76-0.43l-0.16-0.15   c0.19,0.17,0.66-0.18,0.92-0.27c0.31-0.1,0.43-0.25,0.68,0c0.56-0.22,1.12-0.45,1.68-0.67c0.64,0.11,1.29,0.21,1.93,0.32   c0.86-0.29,1.92-0.26,2.63,0.34c1.06,0.12,2.12,0.23,3.18,0.35c0.51-0.42,1.88-0.35,2.53-0.34c0.39,0.06,0.79,0.11,1.18,0.17   c1.8-0.34,3.59-0.67,5.39-1.01c0.49-0.62,1.46-0.87,2.19-1.18c0.24-0.38,0.65-0.28,1.01-0.51c0.95-0.59,1.89-1.27,3.04-1.39   c1.14-0.12,2.31,0.01,3.36,0.38c0.34,0.06,0.67,0.11,1.01,0.17c1.23-0.33,3.39,0.54,4.73,0.78c2.99,0.46,5.97,0.93,8.96,1.39   c2.42-0.09,4.79-0.21,7.19,0.02c0.46-0.14,0.92-0.28,1.38-0.42c2.09-0.34,3.9,0.43,5.85-0.81l-0.06-0.45l6.13,10.18l5.13,8.08   c-0.28-0.3-1.06,1.23-1.21,1.45c-1.18,1.74-2.25,3.41-3.08,5.37c-0.73,1.96-1.46,3.93-2.19,5.89c-0.06,0.51-0.11,1.01-0.17,1.52   c-0.39,0.81-0.78,1.61-1.16,2.42c-0.06,0.37-0.12,0.74-0.18,1.12c-0.99,2.72-0.63,6.7,0.81,9.26c1.23,2.17,2.94,3.95,4.66,5.74   L336.89,272.77z"/>
            <circle cx="293.61" cy="270.75" r="1.586"/>
        </g>
    </g>
</svg>