<?xml version="1.0" encoding="UTF-8"?>
<!DOCTYPE svg PUBLIC "-//W3C//DTD SVG 1.1//EN" "http://www.w3.org/Graphics/SVG/1.1/DTD/svg11.dtd">
<svg version="1.1" id="HaritaCizim" xmlns="http://www.w3.org/2000/svg" xmlns:xlink="http://www.w3.org/1999/xlink" x="0px" y="0px" viewBox="0 0 600 425" preserveAspectRatio="none">
    <defs id="__def">
        <radialGradient id="f">
            <stop offset="0" stop-color="white" stop-opacity="1"/>
            <stop id="STOP1" offset=".4" stop-opacity="1"/>
            <stop offset="1" stop-color="white" stop-opacity=".2"/>
        </radialGradient>
        <filter id="__flt1" x="0" y="0" width="200%" height="200%" filterUnits="objectBoundingBox">
            <feGaussianBlur in="SourceAlpha" stdDeviation="3" result="blur1"/>
            <feSpecularLighting result="specOut" in="blur1" specularConstant="1.5" specularExponent="20" lighting-color="#bbbbbb">
                <feDistantLight azimuth="45" elevation="30"/>
            </feSpecularLighting>
            <feComposite in="specOut" in2="SourceAlpha" operator="in" result="specOut"/>
            <feComposite in="SourceGraphic" in2="specOut" operator="arithmetic" k1="0" k2="1" k3="1" k4="0"/>
        </filter>
        <filter id="__flt2" x="0" y="0" width="200%" height="200%" filterUnits="objectBoundingBox">
            <feGaussianBlur in="SourceAlpha" stdDeviation="3" result="blur1"/>
            <feSpecularLighting result="specOut" in="blur1" specularExponent="20" lighting-color="#bbbbbb">
                <fePointLight x="-2000" y="100" z="2000"/>
            </feSpecularLighting>
            <feComposite in="specOut" in2="SourceAlpha" operator="in" result="specOut"/>
            <feComposite in="SourceGraphic" in2="specOut" operator="arithmetic" k1="0" k2="1" k3="1" k4="0"/>
        </filter>
        <filter id="__flt3" x0="-50%" y0="-50%" width="200%" height="200%" filterUnits="objectBoundingBox">
            <feGaussianBlur in="SourceAlpha" stdDeviation="3" result="blur"/>
            <feOffset in="blur" dx="0" dy="0" result="offsetBlur"/>
            <feSpecularLighting in="blur" surfaceScale="4" specularConstant=".5" specularExponent="20" lighting-color="flavor" result="specOut">
                <fePointLight x="-5000" y="-10000" z="5000"/>
            </feSpecularLighting>
            <feComposite in="specOut" in2="SourceAlpha" operator="in" result="specOut"/>
            <feComposite in="SourceGraphic" in2="specOut" operator="arithmetic" k1="0" k2="1" k3="1" k4="0" result="litPaint"/>
            <feMerge>
                <feMergeNode in="offsetBlur"/>
                <feMergeNode in="litPaint"/>
            </feMerge>
        </filter>
        <filter id="__flt4" x0="-50%" y0="-50%" width="200%" height="200%">
            <feGaussianBlur in="SourceAlpha" stdDeviation="2" result="blur"/>
            <feOffset dy="-1" dx="-1"/>
            <feComposite in2="SourceAlpha" operator="arithmetic" k2="-1" k3="1" result="hlDiff"/>
            <feFlood flood-color="white" flood-opacity=".7"/>
            <feComposite in2="hlDiff" operator="in"/>
            <feComposite in2="SourceGraphic" operator="over" result="withGlow"/>
            <feOffset in="blur" dy="3" dx="3"/>
            <feComposite in2="SourceAlpha" operator="arithmetic" k2="-1" k3="1" result="shadowDiff"/>
            <feFlood flood-color="black" flood-opacity="1"/>
            <feComposite in2="shadowDiff" operator="in"/>
            <feComposite in2="withGlow" operator="over"/>
        </filter>
        <filter id="__golge1" x="0" y="0" width="200%" height="200%" filterUnits="userSpaceOnUse">
            <feOffset result="offOut" in="SourceAlpha" dx="8" dy="8"/>
            <feGaussianBlur result="blurOut" in="offOut" stdDeviation="3"/>
            <feBlend in="SourceGraphic" in2="blurOut" mode="normal"/>
        </filter>
    </defs>
    <g id="__Komsular" display="none">
        <linearGradient id="SVGID_1_" gradientUnits="userSpaceOnUse" x1="452.3518" y1="212.8223" x2="535.0212" y2="212.8223">
            <stop offset="0" style="stop-color:#5860AB"/>
            <stop offset="0.9948" style="stop-color:#FFFFFF"/>
        </linearGradient>
        <path fill-rule="evenodd" clip-rule="evenodd" fill="url(#SVGID_1_)" stroke="#000000" stroke-width="0.25" stroke-miterlimit="10" d="   M540.59,107.67c-3.52-0.07-4.83-2.94-6.66-5.35c-0.86-1.14-2.07-2.03-3.25-2.97c-1.39-1.11-2.57-1.08-4.33-1.08l-0.76,0.11   c-0.58,0.67-0.99,1.24-1.93,1.62c-0.35,1.1-0.7,2.21-1.05,3.31c-0.32,0.7,0,0.79-0.65,1.53c-0.7,0.56-1.21,0.88-1.9,0.65   c-0.27,0.28-0.88-0.88-1.23-1.52c-0.38-0.44-0.54-0.38-0.67-1.03c-0.68-0.06-1.13-0.91-1.81-0.97c-0.57-0.52-3.08-1.38-3.85-1.21   c-0.74,0.17-1.03,0.15-1.76,0.32c-0.39,0.18-1.09,0.65-1.49,0.84c-0.42,0.46-0.9,0.68-1.35,0.93c-0.54,0.3-1.35,0.88-2.04,0.74   c-2.54-1.5-5.57-2.99-8.3-1.01c-1.35,0.98-3.18,3.67-2.42,5.37c-0.56,0.8-1.11,1.61-1.67,2.41c-0.37,0.28-0.77,0.49-0.93,0.93   c-1.15,0.53-2.12,1.15-3.16,1.86c-0.71,0.62-1.42,1.23-2.12,1.85c-0.11,0.48-0.22,0.96-0.34,1.44c-0.23,0.82-0.46,1.64-0.7,2.47   c-0.31,0.59-0.84,1.02-0.93,1.67c-0.86,0.38-2.77,0.97-2.97,2.04c-1.15,0.63-0.34,1.81-1.11,2.79c-0.47,0.6-1.49,1.72-2.23,2.23   c-0.69,0.81-1.17,1.61-2.04,2.04c-1.12,0.83-2.51,2.2-3.88,2.38l-2.06,1.33c-1.09,1.01-1.6,1.95-2.01,2.96   c0.19,0.96,0.55,1.94,1.32,2.51c0.7,0.52,1.49,0.23,2.1,1.02c0.57,0.01,0.48,0.1,0.36,0.59c-0.11,0.36-0.07,0.89-0.31,1.06   c-0.91,0.68-3.35,1.69-4.43,1.15c-0.81,0.48-1.45,0.9-2.09,1.58c-0.19,0.88-0.39,1.76-0.58,2.65c-0.18,1.25-0.66,2.34-0.99,3.65   c-0.43,1.68-0.38,3.45-1.31,4.97c-0.44,0.72-0.74,1.44-1.36,2.15c-0.06,0.26-0.11,0.53-0.17,0.79c-0.23,0.01-0.46,0.01-0.7,0.02   c-0.26-0.01-0.53-0.01-0.79-0.02l-0.6,0.64c0.75-0.28,0.5,1.09,0.41,1.59c0.47-0.47,0.54,1.66,0.56,2.04   c0.52,0.52,1.11,1.62,1.11,2.41c0.61,0.61,0.7,1.21,1.11,1.86c0.48,0.74,1.27,0.47,1.86,0.93c0.43,0.33,0.75,0.7,1.24,0.87   c0,0,0.21-0.5,0.62-0.5c0.65,1.21,1.3,2.43,1.95,3.64c1,0.91,2.72,2.93,2.88,4.35c0,0.62,0,1.24,0,1.86c0,0.94-2.51,0.34-2.97,0   c-0.43-0.56-0.87-1.11-1.3-1.67c-0.06-0.19-0.12-0.37-0.19-0.56c-0.37-0.31-0.74-0.62-1.11-0.93c-0.8-0.21-1.59-0.42-2.39-0.63   c-0.86,0.26-1.57,0.41-2.25,1c-0.36,0.03-0.71,0.05-1.07,0.08c-0.2,0.28-0.4,0.56-0.6,0.85c0.42,0.35,0.35,0.44,0.15,0.91   c-0.5,0.96-1.01,1.91-1.51,2.87c0.38,0.66,1.12,3.66,0.07,3.66c1.58,1.67,1.88,3.88,2.23,6.13c0.38,0.43,0.56,1.02,0.55,1.58   c0.47,0.55,1.08,1.62,0.8,2.26c0.31,0.56,0.47,1.19,0.38,1.84c-0.08,0.33-0.1,0.26-0.42,0.26c0.49-0.07,0.86,0.19,1.03,0.66   c1.51,0.92,1.93,2.75,3.08,3.96c0.57,0.59,0.59,1.34,1.46,1.44c0.18,0.02,0.37,0.04,0.55,0.06c-0.42,0.97,0.37,0.82,0.37,1.67   c1.02,1.72,1.8,4.14,0.78,6.23c-0.32-0.16-0.64-0.32-0.96-0.48c0.32,0.34,0.63,0.68,0.95,1.03c0.26,0.43-0.18,1.6-0.39,2.13   c-0.37,0.25-0.74,0.5-1.11,0.75c-0.14,0.69-0.52,1.1-0.93,1.67c0.06,0.19,0.12,0.37,0.19,0.56c-0.2,0.57-0.52,0.86-0.93,1.3   c0.2,0.68-0.49,0.89-0.99,1.2c0.18,0.97-0.35,2.46-0.87,3.26c0.06,0.25,0.12,0.5,0.19,0.74c-0.24,0.26-0.48,0.53-0.72,0.79   c0.09,1.27-0.3,2.34-0.72,3.51c-0.07,0.22,0.26,0.09,0.51,0.15c0.23,0.45,0.45,0.91,0.68,1.36c0.09,0.43,0.15,0.5-0.31,0.5   c0.25,0.12,0.5,0.25,0.74,0.37c0.52,0.03,0.54-0.21,1.07,0.06c0.7,0.38,0.45,2.02,0.24,2.66c-0.07,0.02-0.14,0.04-0.2,0.06   c0.28,0.1,0.55,0.21,0.83,0.31c0.22-0.23,0.44-0.46,0.66-0.68c0.18,0.01,0.36,0.01,0.54,0.02c0.96,0.12,1.88,0.41,2.16,1.47   c0.32,0.25,0.46,0.32,0.46,0.74c0.25,0.06,0.5,0.12,0.74,0.19c0.21,0.28,0.41,0.56,0.62,0.84c0.16,0.22,0.33,0.43,0.49,0.65   c1.01,0,1-0.25,1.67-0.93c0.18,0.04,0.36,0.08,0.55,0.12c1.06,0.04,2.12,0.73,2.8,1.52c0.26,0.3,0.67,0.66,0.37,0.96   c1.1,0.06,2.23,0.54,3.16,1.11c0.25,0.06,0.5,0.12,0.74,0.19c1.44,0.26,2.98,0.44,4.44,0.28c2.66-0.3,3.99-2.21,5.77-3.99   c0.68-0.43,1.36-0.87,2.04-1.3c0.68-0.11,1.37-0.21,2.05-0.32c0.67-0.11,1.35,0.47,1.83,0.91c0.97,0.85,1.51,3.15,1.14,4.42   c-0.35,0.7-0.7,1.4-1.05,2.09c-0.27,0.62-0.83,2.36-1.55,1.99c-0.12,0.56-0.25,1.11-0.37,1.67c0,0.56,0,1.11,0,1.67   c-0.56,1.11-1.11,2.23-1.67,3.34c-0.19,1.11-0.37,2.23-0.56,3.34c0.06,0.37,0.12,0.74,0.19,1.11c0.4,1.05,0.8,2.1,1.2,3.16   c-0.14,0.24-0.27,0.48-0.41,0.73c0.45,1.67,1.63,2.72,2.19,4.29c0.8,0.37,1.61,0.74,2.41,1.11c0.49,0.06,0.99,0.12,1.49,0.19   c0.99,0.43,1.98,0.87,2.97,1.3c0.62,0.8,1.24,1.61,1.86,2.41c0.49,0.49,0.24,0.97-0.2,1.49l0.57,1.38c0.19,0.42-0.35,1.5-0.56,2.15   c0.26,0.72-0.31,1.35-0.37,2.04c-0.25,1.18-0.5,2.35-0.74,3.53c0.19,0.74,0.37,1.49,0.56,2.23c-0.31,0.28-0.4,0.85-0.37,1.3   c0.1,1.52,0.92,2.97,1.68,4.19c1.13,1.67,1.25,0.12,2.38,1.09c0.51,0.44,1.93,2.67,2.07,3.26c0.12,0.31,0.25,0.62,0.37,0.93   c0.6,0.72,1.28,0.84,2.04,1.3l0.13,1.17c0.18,1.24-1.67,3.65-2.45,4.73c-0.41,0.57-0.96,0.81-1.01,1.53   c-0.02,0.61,0.56,0.86,0.92,1.49c-0.3,0.39-0.09,0.83,0,1.3c-0.66,0.54-0.11,1.34,0,2.04c-0.94,0.82,0,3.75,0.37,4.64   c-0.04,0.3-0.08,0.6-0.12,0.9l0.27,0.93c0.54,0.41,0.6,1.1,0.89,1.71c0.29,0.62,1.01,1.12,1.19,1.78c0.43,1.58-0.45,3.13-0.32,4.56   c0.06,0.65,0.71,1.44,0.6,2.1c-0.09,0.56-0.78,1.21-0.97,1.77c-0.38,1.13-0.66,3.32,0.34,4.18l2.48,1.35   c-1.02-0.93-1.21-2.4-1.21-3.85c-0.78-0.29-0.97-0.97-0.64-1.65c0.02-0.17,0.05-0.33,0.07-0.5c0.19,0.04,0.61-1.05,0.62-1.28   c0.57-0.41,0.37-0.56,0.97-0.7c0-0.33,0.24-0.97,0.42-1.53c0.35-1.07,0.19-2.74-0.08-3.81c-0.24-0.85-1.41-1.39-2.29-1.86   c-0.59-1.08-0.67-1.98-0.93-3.16c-0.19-0.43-0.37-0.87-0.56-1.3c-0.61,0-0.97-1.25-0.93-1.86c0.19-1.86,0.37-3.71,0.56-5.57   c0.37-0.56,0.74-1.11,1.11-1.67c0.82-0.24,1.16-1.24,1.73-1.81c0.25-0.25,0.4-0.44,0.76-0.37c1.45-1.32,3.77-3.41,3.42-5.65   c-0.19-1.22-1.08-2.28-2.22-2.72c-1.12-1.66-3.12-2.19-4.43-3.75c0.21-0.96-1.05-2.13-1.67-2.79c-0.25-0.62-0.5-1.24-0.74-1.86   c-0.25-1.05-0.5-2.1-0.74-3.16c0-0.43,0-0.87,0-1.3c-0.81-0.61-1.06-2.05-1.3-2.97c0.3-0.58-0.22-1.23-0.19-1.86   c0.05-1.04,0.24-1.91,0-2.97l0.74-1.11c0.04-0.55-0.37-0.94-0.37-1.58c0-0.58-0.4-1.75-0.93-1.76c-0.46-0.49-0.84,0.3-1.3-0.19   c0.03-0.13-0.96-0.24-0.93-0.37c-1.29,0.07-1.35-0.02-2.6-0.37c0-0.42-0.69-0.95-0.93-1.3c-0.39,0.39-0.4-0.56-0.93-0.56   c-0.34,0-1.23-0.63-1.3-0.93c-0.16-0.57-0.36-1.17-0.93-1.11c-0.55-0.69-0.38-0.61-0.93-1.3c-0.41-0.68-0.46-0.78-0.93-1.67   c-0.44-0.85-0.92-1.51-1.11-2.41c0.12-0.5,0.25-0.99,0.37-1.49c0-0.56-0.01-1.11-0.01-1.67c0.05-0.78,0.36-1.56,0.75-1.86   c0.29-0.85,0.58-0.85,0.93-1.67c0.36-0.86,0.6-1.2,0.93-2.04c0.28-0.68,0.12-0.72,0.37-1.11c0.58-0.98,0.31-0.36,0.31-1.46   c0.07-1.09,0.19-0.77,0.62-1.32c0-0.5,0.37-0.8,0.37-1.3c0.19-0.12,0.37-0.25,0.56-0.37c0.06-0.99,0.12-1.98,0.19-2.97   c-0.39-1.38-1.14-2.76-2.28-3.62c-0.71-0.52-2.14-0.35-2.95-0.17c-1.54,0.34-3.17,0.85-4.24,2.12c-0.12,0.31-0.25,0.62-0.37,0.93   c-0.41,0.18-1.53,1.29-1.86,1.67c-0.87,0.31-1.73,0.62-2.6,0.93c-1.23,0.21-2.46-0.64-3.71-0.3c-0.45,0.12-0.02-0.23-0.56-0.26   c-0.64-0.14-0.66-0.29-0.74-0.19c-0.56-0.53-0.2-0.19-1.11-0.93c-1.07-1.11-2.33-2.41-3.96-2.5c-1.15-0.27-0.32-0.76,0.25-1.59   c-0.43-0.62-0.87-1.24-1.3-1.86c-1.16-0.3-2.06-1.79-2.79-2.79c0.42-0.54-0.07-1.21,0-1.86c-0.3-2.35-0.61-4.71-0.91-7.06   c0.12-0.37,0.24-0.74,0.35-1.11c0-0.87,0.74-0.8,0.74-1.67c0.19-0.06-0.37-1.05-0.19-1.11c0-0.86,0.19-1.74,0.74-2.41   c-0.29-0.63,0.09-2.44,0.19-3.16c0.13-0.95-0.16-1.7-0.37-2.6c0-0.31,0-0.62,0-0.93c0.63-0.57,0.19-1.32,0.19-2.04   c-0.31-0.5-0.62-0.99-0.93-1.49c-0.36,0.05-1.41-0.97-1.67-1.3c-0.43-0.93-0.87-1.86-1.3-2.79c-0.93-1.05-1.86-2.1-2.79-3.16   c-0.06-0.99-1.11-2.67-1.67-3.53c-0.31-0.37-0.62-0.74-0.93-1.11c-0.87-2.41-1.73-4.83-2.6-7.24c0.12-1.42,0.25-2.85,0.37-4.27   c0.31-0.29,0.29-0.38,0.34-0.77c0.13-0.69,0.19-0.94,0.86-1.22c3.12-1.08,5.42,4.26,8.82,4.04c0.68-0.33,1.35-0.65,2.03-0.98   c0.68-0.46,0.6-1.58,0.91-2.3c-0.28-0.65-0.57-1.3-0.85-1.94c-0.31-0.67-0.61-1.33-0.92-2c-0.82-0.81-1.65-1.61-2.47-2.42   c-0.3-0.35-0.43-0.88-0.36-1.32c0.09-0.28-0.42-0.77-0.93-0.73c-0.52-0.98-0.27-0.99-2.22-1.87c-0.35-0.78-1.37,0.68-1.86,0   c-0.51-0.42-0.98-2-1.49-2.41c-0.19-0.25-1.11-2.17-1.3-2.41c0.36-1.53,0.94-1.81,1.3-3.34c0.02-0.39,1.09-0.54,1.11-0.93   c0.43-0.74,0.5-0.38,0.93-1.11c-0.03-0.49-0.12-0.31,0.37-0.74c0.15-0.18,0.23-1.45,0.19-1.86c0.11-0.68,0.22-1.37,0.34-2.05   c0.21-1.29,1.38-3.07,1.26-4.33c-0.07-0.72,0.83-2.03,0.44-2.53c2.03-2.17,5.98-0.86,7.18-3.92c-0.02-0.3-0.03-0.6-0.05-0.91   c-0.29-1.64-0.91-1.67-2.3-1.86c-0.32-0.35-0.85-0.4-1.3-0.56c-0.07-0.18-0.14-0.36-0.21-0.55c-0.11-0.13-0.23-0.26-0.34-0.38   c0.08-0.15,0.16-0.3,0.24-0.45c-0.17-0.75,0.66-1.94,1.43-2.15c0.56-0.15,0.68-0.41,1.13-0.75c0.74-0.37,1.48-0.73,2.22-1.1   c1.04-0.82,3.03-2.18,3.71-2.79c0.04,0.08,0.56-0.89,0.93-1.11c0.31-0.43,0.25-0.5,0.56-0.93c-0.19-0.21,0.48-0.44,0.64-0.7   c0.53-0.84,1.59-1.39,1.59-2.46c0.65-1.23,0.58-1.68,1.49-2.04c0.71-0.3,1.42-0.08,1.82-0.63c0.53-0.67,1.06-1.33,1.59-2   c0.1-0.3,0.21-0.6,0.31-0.91c-0.05-0.18-0.09-0.36-0.14-0.55c0.23-0.81,0.46-1.62,0.7-2.43c1.31-1.31,2.5-2.43,4.29-2.88   c0.22-0.5,0.26-0.62,0.8-0.78c0.59-0.7,1.18-1.39,1.78-2.09c0.62-0.89,1.42-2.18,1.11-3.34c0.49-0.87,0.99-1.73,1.49-2.6   c0.68-0.43,1.36-0.87,2.04-1.3c0.36-0.36,1.17-0.32,1.67-0.36c2.14-0.17,3.62,1.76,5.76,1.66c0.73-0.04,1.29-0.76,1.86-1.11   c1.78-1.12,2.97-1.47,5-1.33c0.81,0.05,1.51,0.79,2.06,1.33c-0.74-0.06,1.47,0.37,1.78,1.49c0.41,0.19,0.62,0.29,0.73,0.74   c0.34,0.26,0.69,0.53,1.03,0.79c0.69,0.21,1.39,0.43,2.08,0.64c0.28,0.12,1.13-1.04,1.32-1.33c0.91-1.36,0.78-2.46,1.42-4.18   c0.05-0.4,1.71-1.08,2.04-1.3c1.24-0.65,2.1-0.23,2.74-0.06c1.45,0.37,2.02,1.82,2.99,2.88c0.55,0.64,1.09,1.28,1.64,1.93   c0.62,0.95,1.05,1.46,1.91,2.12c0.52,0.4,1.49,0.1,1.49,0.74c0.99,0.38,1.98,0.76,2.97,1.14L540.59,107.67z"/>
        <linearGradient id="SVGID_2_" gradientUnits="userSpaceOnUse" x1="144.7373" y1="286.2251" x2="158.6638" y2="286.2251">
            <stop offset="0" style="stop-color:#5860AB"/>
            <stop offset="0.9948" style="stop-color:#FFFFFF"/>
        </linearGradient>
        <path fill-rule="evenodd" clip-rule="evenodd" fill="url(#SVGID_2_)" stroke="#000000" stroke-width="0.25" stroke-miterlimit="10" d="   M145.61,290.1c0.21-0.06,0.41-0.12,0.61-0.18c0.8,0.1,1.61,0.21,2.41,0.31c0.46-0.16,0.89-0.39,1.3-0.13   c-0.03-0.06-0.05-0.12-0.08-0.17c-0.3-0.7-0.89-1.47-0.32-2.07c1.05-1.12,3.26-4.53,2.07-5.92c0.12-0.53,0.5-1.4,0.19-1.86   c0.52-0.65,1.04-1.07,1.86-1.3c0.28-0.76,0.57-1.51,0.85-2.27c0.42-0.86,1.32-2.01,1.53-2.75c0.09-0.42,0.19-0.84,0.28-1.26   c1.59,1.01,1.68,1.97,2.02,3.7c0.12,0.59,0.33,1.06,0.21,1.61c0.04,0.14,0.08,0.28,0.12,0.42c-0.74,0.93-1.49,1.86-2.23,2.79   c-0.03,0.44-0.07,0.88-0.1,1.32c-0.1,0.5-0.63,0.94-0.27,1.46c-0.62,0.8-1.24,1.61-1.86,2.41c-0.31,0.74-0.62,1.49-0.93,2.23   c0.12,0.19,0.25,0.37,0.37,0.56c0,0.31,0,0.62,0,0.93c0.1,0.63-1.28,3.41-1.86,3.53c-0.41,1.3-1.31,5.54-2.18,6.07   c-0.3,0.17-0.07,0.43-0.42,0.43c-0.27-0.03-0.55-0.06-0.82-0.09c-0.27-0.3-1.32-2.31-1.22-2.7c-0.71-0.71-1.38-1.71-0.74-2.79   c-0.18-0.34-0.48-0.73-0.37-1.11c-0.43-0.85-0.62-1.81-1.3-2.41c0.06-0.13,0.12-0.25,0.19-0.38   C145.11,290.08,145.2,290.1,145.61,290.1z"/>
        <text transform="matrix(1 0 0 1 224.1187 116.3965)" font-family="'MyriadPro-Regular'" font-size="11.1412">KAHRAMANMARAŞ</text>
        <text transform="matrix(0.674 -0.7387 0.7387 0.674 83.3774 224.6655)" font-family="'MyriadPro-Regular'" font-size="11.1412">OSMANİYE</text>
        <text transform="matrix(1 0 0 1 149.1008 346.0916)" font-family="'MyriadPro-Regular'" font-size="11.1412">SURİYE</text>
        <text transform="matrix(0.8735 0.4868 -0.4868 0.8735 257.1631 321.7266)" font-family="'MyriadPro-Regular'" font-size="11.1412">KİLİS</text>
        <text transform="matrix(0.8724 0.4887 -0.4887 0.8724 74.0203 307.9175)" font-family="'MyriadPro-Regular'" font-size="11.1412">HATAY</text>
        <path fill-rule="evenodd" clip-rule="evenodd" fill="none" stroke="#000000" stroke-width="0.25" stroke-miterlimit="10" d="   M395.69,83.53c-0.17-2.37-2.85-4.64-3.76-6.45c-1.1-2.19-1.88-4.6-2.98-6.91c-1.24-2.6-1.2-5.72-1.63-8.55   c-0.2-1.32-0.48-2.71-0.55-4.09c-0.08-1.75-0.63-2.67-0.96-4.24c-0.16-0.08-0.33,0.01-0.5-0.05c-1.61-2.95-4.91-2.6-7.83-2.75   c-3.33-0.17-5.23,1.27-8.12,2.46c-2.42,1-4.44,2.54-6.88,3.52c-1.91,0.76-1.89,1.12-2.45-0.98c-0.37-1.39-0.76-2.55-1.5-3.7"/>
        <path fill-rule="evenodd" clip-rule="evenodd" fill="none" stroke="#000000" stroke-width="0.25" stroke-miterlimit="10" d="   M147.06,188.63c0.01-4.13,2.08-3.73,4.79-5.98c1.96-1.62,2.96-4.81,3.19-7.39c0.54-6-7.71-8.72-11.14-12.26   c-2.07-2.14-1.45-5.46-1.9-8.35c-0.46-2.96-1.53-5.76-2.93-8.31c-0.6-1.09-1.54-2.33-0.8-3.58c0.7-1.19,2.67-1.05,3.72-1.89   c2.06-1.65,1.55-5.75,0.98-8.13c-0.77-3.24-1.26-4.67-4.23-5.99c-3.17-1.4-5.44-0.92-8.59-0.32c-2.82,0.55-6.59,0.41-9.33-0.15   c-2.95-0.6-6.55,0.4-9.24-0.6c-1.53-0.57-3.05-1.67-4.46-2.41"/>
        <path fill-rule="evenodd" clip-rule="evenodd" fill="none" stroke="#000000" stroke-width="0.25" stroke-miterlimit="10" d="   M82.81,277.94c-2.96,0-5.55,0.48-8.35,0.75c-1.47,0.14-2.99-0.08-4.47-0.01c-1.51,0.08-3.13,0.77-4.66,0.75   c-2.65-0.03-5.45-2.47-7.59-3.96c-2.47-1.71-4.79-2.95-7.75-3.26c0.2,0.11,0.45,0.26,0.69,0.34"/>
        <path fill-rule="evenodd" clip-rule="evenodd" fill="none" stroke="#000000" stroke-width="2" stroke-miterlimit="10" d="   M142.82,309.53c-0.3,1.38,1.26,1.8,1.28,3.33c0.01,0.64-0.55,1.1-0.56,1.85c-0.01,0.81,0.46,1.27,0.57,2.04   c0.43,3.22-3.04,4.35-4.85,6.27c-0.95,1.01-2.46,2-2.95,3.01c-0.59,1.23-0.79,2.79-1.5,3.9c-0.71,1.12-2.27,1.49-3.16,2.79   c-0.61,0.87-2.1,2.38-2.55,3.38c-0.63,1.4-0.37,3.97,1.04,4.62c0.45,1.18,0.53,2.29,0.97,3.5c0.45,1.23,1.68,1.94,2.18,3.02   c0.78,1.67-1.05,5.21-2.19,6.27"/>
        <path fill-rule="evenodd" clip-rule="evenodd" fill="none" stroke="#000000" stroke-width="2" stroke-miterlimit="10" d="   M220.96,328.64c-0.76-0.31-1.71-1.52-2.36-1.72c-1.66-0.5-1.75,1.37-3.36,0.95c-0.11-0.8-0.39-1.59-1.3-1.67   c-0.13-0.63-0.27-1.21-0.43-1.8c-2.04,0.05-3.63-0.94-5.02,1.24c-3.2,0.57-6.04,0.03-9.44-0.15c-2.67-0.14-5.64-0.87-7.99-1.99   c-5.19-2.48-11.72-1.81-16.67-4.51c-1.78-0.97-3.41-2.54-5.1-3.68c-1.85-1.25-2.85-3.25-5.5-3.73c-0.03,0.49-0.34,0.61-0.43,1.06   c-2.52,0.13-6.47-2.94-8.88-2.75"/>
        <path fill-rule="evenodd" clip-rule="evenodd" fill="none" stroke="#000000" stroke-width="0.25" stroke-miterlimit="10" d="   M387.15,351.48c-1.88-0.18-2.73,1.07-4.13,1.82c-1.32,0.71-2.91,0.75-4.23,1.33c-1.29,0.56-2.55,1.38-3.71,2.04   c-1.27,0.73-3.01,2.38-4.42,2.64c-0.63,0.93-1.95,0.83-2.96,1.31c-1.42,0.68-1.44,1.18-1.9,2.55c-0.66,1.99-1.84,4.03-2.04,6.13   c-0.12,1.18,0.2,2.28-0.36,3.31c-0.05,0.1-2.11,2.46-2.2,2.5c-0.96,0.44-2.06-0.3-3.02-0.43c-1.29-0.17-2.46,0.32-3.73,0.2   c-0.15-0.18-0.14-0.25,0.02-0.01"/>
        <text transform="matrix(0.9746 0.2239 -0.2239 0.9746 431.6414 59.0881)" font-family="'MyriadPro-Regular'" font-size="11.1412">ADIYAMAN</text>
        <text transform="matrix(0.131 0.9914 -0.9914 0.131 511.8496 183.1523)" font-family="'MyriadPro-Regular'" font-size="11.1412">ŞANLIURFA</text>
        <path fill-rule="evenodd" clip-rule="evenodd" fill="none" d="M510.45,309.33c1.23-1.09,2.57-1.51,2.37-3.34   c-0.17-1.55-1.43-2.5-1.07-4.27c0.4-1.99,4.12-5.31,6.5-5.01c1.39,0.17,2.37,2.05,4.09,1.31c1.83-0.79,0.64-2.86,1.7-3.88   c0.59-0.56,3.32-0.5,4.22-0.79c1.23-0.39,2.79-0.6,4.1-1.15c0.96-0.41,1.5-1.28,2.56-1.47c0.73-1.11,2-1.98,3.23-2.53   c0.35-0.16,0.95-0.06,1.27-0.21c0.42-0.21,0.58-0.85,1.1-0.99c1.13-0.28,1.42,0.21,2.6,0.42c4.19,0.71,3.51-5.26,6.87-5.57"/>
        <text transform="matrix(0.9333 -0.3591 0.3591 0.9333 435.6638 370.1428)" font-family="'MyriadPro-Regular'" font-size="11.1412">S U R İ Y E</text>
    </g>
    <g id="__Harita" fill="white" stroke="#000000" stroke-width="0.25" stroke-miterlimit="10" display="none">
        <rect id="__cer" x="0" y="0" fill="#000000" opacity="0" width="600" height="425"/>
        <g id="__İslahiye">
            <path d="    M223.84,242.39c-0.02-0.78-0.03-1.56-0.05-2.34c-0.8-0.64-0.89-2.02-1.25-2.85c-0.46-1.08-1.11-2.04-1.26-3.27    c-0.32-0.54-0.65-1.08-0.97-1.62c-0.44-1.05-1.35-3.49-2.21-4.03c-0.43-0.04-0.86-0.08-1.29-0.13c-0.5,0.17-1,0.34-1.5,0.5    c-1.58,1.3-3.16,2.6-4.74,3.9c-1.14,0.4-2.27,0.8-3.41,1.2c-0.4,0.1-0.78,0.33-1.13,0.1c-2.14,1.37-4.11,2.8-6.31,4.09    c-1.49,0.68-2.97,1.36-4.46,2.04c-1,0.23-4.09,0.4-4.64,0.93c-1.97-0.19-4.02-0.48-5.94-1.11c-2.17-0.43-4.33-0.87-6.5-1.3    c-0.74-0.56-1.49-1.11-2.23-1.67c-0.68-0.56-2.07-1.34-2.23-2.23c-1.72-0.88-3.58-0.7-4.87-2.18c-0.12-0.03-0.24-0.07-0.36-0.1    c-0.52-1.31-0.17-2.21-0.15-3.46c0.01-0.55-0.29-1.24-0.01-1.69c-0.31-0.74-0.62-1.49-0.93-2.23c-1.73-2.01-3.58-3.81-5.39-5.76    c-1.79-1-3.59-2-5.38-2.99c-1.23-0.85-2.57-1.25-3.53-2.39c-0.43-0.37-0.87-0.74-1.3-1.11c-1.15-0.54-2.16-1.06-3.16-1.86    c-0.61-0.49-2.03-1.88-1.67-2.6c-0.43-0.5-0.87-0.99-1.3-1.49c-1.16-1.3-1.92-2.99-2.41-4.64c-0.2-0.69-0.88-1.33-0.74-2.04    c-0.31-0.31-0.62-0.62-0.93-0.93c-0.22-0.32-1.83-2.25-2.01-2.16c-1.07,0.51-2.11,1.4-2.86,2.27c-0.35,0.41-0.9,1.25-1.44,1.18    c-0.31,0.54-0.62,1.54-1.11,1.86c-0.22,1.11,0.12,2.21-0.37,3.16c-0.56,0.43-1.11,0.87-1.67,1.3c-0.56,1.79-1.11,3.59-1.67,5.39    c-0.68,0.62-1.36,1.24-2.04,1.86c-1.67,0.74-3.34,1.49-5.01,2.23c-0.6,0.04-1.21,0.08-1.81,0.12c-1.75,0.33-3.39,0.45-4.72,2.05    c-1.45,1.74-3.04,3.6-3.98,5.69c-0.44,0.2-0.67,0.81-0.85,1.25c-0.48,0.23-0.56,0.76-0.77,1.24c-0.47,1.31-0.95,2.62-1.42,3.93    c0.17,0.56,0.33,1.12,0.5,1.68c0.55,1.46,1.8,3.61,1.17,5.19c-0.49,1.25-1.98,2.28-2.41,3.34c0,0.12,0,0.25,0,0.37    c-0.31,0.68-0.62,1.36-0.93,2.04c-1.3,1.92-2.6,3.84-3.9,5.76c-1.57,1.42-3.14,2.84-4.71,4.25c0.12,0.65-1.39,2.57-1.71,3.37    c-0.73,1.01-1.46,2.03-2.19,3.04c-0.31,0.46-1.32,1.16-1.79,1.22c-0.23,0.39-0.34,0.7-0.74,0.93c-1.11,1.49-2.23,2.97-3.34,4.46    c-0.93,1.79-1.86,3.59-2.79,5.39c-0.34,0.71-2.02,2.16-2.6,2.23c-0.25,0.96-1.28,3.44-0.89,4.14c0.11,0.23,0.22,0.46,0.33,0.68    c0.69,0.48,1.19,0.5,1.62,1.32c0.21,0.39,0.5,0.98,0.97,0.91c0.49,0.82,0.96,1.61,1.86,2.04c0.74,1.39,3.28,4.27,4.83,4.75    c0.38,0.18,0.77,0.36,1.15,0.53c0.85,0.22,1.71,0.44,2.56,0.66c0.43,0.12,0.87,0.25,1.3,0.37c0.89,0.4,1.78,0.8,2.66,1.21    c0.97,0.34,1.94,0.68,2.91,1.02c0.35,0.12,0.7,0.24,1.05,0.36c0.52,0.07,1.03,0.13,1.55,0.2c1.2,0.03,3.25,1.22,4.27,1.86    c2.19,0.7,2.93,0.84,4.62,1.53c0.87,0.17,1.74,0.34,2.62,0.52c0.43,0,0.87,0,1.3,0c2.4-0.56,4.5-0.97,6.95-0.19    c0.87-0.53,3.22,1.17,3.82,0.56c0.16,0.21,0.31,0.42,0.47,0.63c0.64,0.17,0.67,0.61,0.83,1.04c0.15,0.74,0.75,2.94,0.37,3.53    c0.5,0.31,0.99,0.62,1.49,0.93c-0.02,0.56-0.59,1.34-0.24,1.74c0.08,0.16,0.16,0.32,0.24,0.49c0.74,0.74,1.49,1.49,2.23,2.23    c0.37,0.31,0.74,0.62,1.11,0.93c2.48,0.62,4.95,1.24,7.43,1.86c0.62,0.03,1.24,0.07,1.86,0.1c1.11,0.3,3.83,0.65,4.82,0.08    c1.49,0.12,2.97,0.25,4.46,0.37c0.03-0.14,0.07-0.29,0.1-0.43c0.06-0.45-0.01-0.87,0.27-1.24c-0.09-0.29-0.25-0.88,0-0.93    c0.3-0.16,0.44-0.21,0.74-0.37c0.34-0.06,0.37,0.11,0.74,0c0.56-0.06,1.11-0.5,1.67-0.56c0.47-0.38,0.94-0.39,1.41-0.78    c0.47-0.41,0.94-0.82,1.4-1.24c0.27-1.5,0.53-3,0.8-4.5c0.08-0.61-0.09-1.38,0.47-1.66c-0.06-0.25-0.12-0.5-0.19-0.74    c0.37-0.55,0.38-1.31,0.74-1.86c0.01-0.43,2.02-2.18,2.41-2.23c0.13-0.39,1.3-0.93,1.11-1.3c0.91-0.73,1.5-1.13,2.41-1.86    c0.14-0.55,2.78-2.72,3.34-2.79c0.31-0.25,0.62-0.5,0.93-0.74c0.53-0.7,1.17-1.81,2.04-2.04c1.57-2.91,2.52-4.75,5.54-6.37    c0.69-0.37,1.66-0.64,2.45-0.5c0.68,0.31,1.37,0.62,2.05,0.93c1.57,0.75,3.32,1.4,4.63,2.6c0.88,0.91,1.76,1.81,2.64,2.72    c0.8,0.66,3.12,2.17,4.2,1.67c1.17-0.52,3.12-1.79,3.45-2.92c0.1-0.12,0.2-0.23,0.3-0.35c0.19-0.74,0.37-1.49,0.56-2.23    c-0.03-0.47-0.06-0.94-0.09-1.42c0.26-1.42-0.04-2.82,0.69-4.14c0.9-1.61,4.61-4.33,6.27-5.22c0.94-0.5,2.46-2.34,3.34-2.41    c1.1-2.21,1.92-4.82,2.41-7.24c0.21-1.06,1.91-4.46,2.79-5.01c0.42-0.9,0.84-1.81,1.25-2.71c0.62-1.16,1.71-3.18,3.02-3.6    c0.55-0.81,1.1-1.61,1.65-2.42c0.64-0.89,1.59-1.27,1.63-2.43C224.17,243.38,224.22,242.73,223.84,242.39z M156.44,281.01    c-0.03,0.44-0.07,0.88-0.1,1.32c-0.1,0.5-0.63,0.94-0.27,1.46c-0.62,0.8-1.24,1.61-1.86,2.41c-0.31,0.74-0.62,1.49-0.93,2.23    c0.12,0.19,0.25,0.37,0.37,0.56c0,0.31,0,0.62,0,0.93c0.1,0.63-1.28,3.41-1.86,3.53c-0.41,1.3-1.31,5.54-2.18,6.07    c-0.3,0.17-0.07,0.43-0.42,0.43c-0.27-0.03-0.55-0.06-0.82-0.09c-0.27-0.3-1.32-2.31-1.22-2.7c-0.71-0.71-1.38-1.71-0.74-2.79    c-0.18-0.34-0.48-0.73-0.37-1.11c-0.43-0.85-0.62-1.81-1.3-2.41c0.06-0.13,0.12-0.25,0.19-0.38c0.18-0.4,0.27-0.38,0.68-0.37    c0.21-0.06,0.41-0.12,0.61-0.18c0.8,0.1,1.61,0.21,2.41,0.31c0.46-0.16,0.89-0.39,1.3-0.13c-0.03-0.06-0.05-0.12-0.08-0.17    c-0.3-0.7-0.89-1.47-0.32-2.07c1.05-1.12,3.26-4.53,2.07-5.92c0.12-0.53,0.5-1.4,0.19-1.86c0.52-0.65,1.04-1.07,1.86-1.3    c0.28-0.76,0.57-1.51,0.85-2.27c0.42-0.86,1.32-2.01,1.53-2.75c0.09-0.42,0.19-0.84,0.28-1.26c1.59,1.01,1.68,1.97,2.02,3.7    c0.12,0.59,0.33,1.06,0.21,1.61c0.04,0.14,0.08,0.28,0.12,0.42C157.92,279.15,157.18,280.08,156.44,281.01z"/>
            <circle cx="134.06" cy="243.96" r="1.86"/>
        </g>
        <g id="__Nurdağı">
            <path d="    M245.93,217.71c-0.97,0-0.91,0.97-1.47,1.65c-0.88,1.06-0.76,2.04-0.93,3.34c-0.18,0.74-0.37,1.49-0.55,2.23    c-0.68,1.61-1.37,3.22-2.05,4.83c-0.67,0.02-2.37,2.08-2.46,2.74c-0.48,0.51-0.96,1.02-1.44,1.53c-0.43,0.31-0.87,0.62-1.3,0.93    c-0.55,0.63-1.1,1.26-1.65,1.89c-1.05,1.16-2.42,1.87-3.1,3.32l-0.07-0.2c-0.5,0.37-0.99,0.74-1.49,1.11    c-1.18,0.68-2.35,1.36-3.53,2.04c-0.56,0.27-1.34,1.04-1.67,0.37l-0.06,0.35c0.02-0.47,0.06-1.13-0.31-1.47    c-0.02-0.78-0.03-1.56-0.05-2.34c-0.8-0.64-0.89-2.02-1.25-2.85c-0.46-1.08-1.11-2.04-1.26-3.27c-0.32-0.54-0.65-1.08-0.97-1.62    c-0.44-1.05-1.35-3.49-2.21-4.03c-0.43-0.04-0.86-0.08-1.29-0.13c-0.5,0.17-1,0.34-1.5,0.5c-1.58,1.3-3.16,2.6-4.74,3.9    c-1.14,0.4-2.27,0.8-3.41,1.2c-0.4,0.1-0.78,0.33-1.13,0.1c-2.14,1.37-4.11,2.8-6.31,4.09c-1.49,0.68-2.97,1.36-4.46,2.04    c-1,0.23-4.09,0.4-4.64,0.93c-1.97-0.19-4.02-0.48-5.94-1.11c-2.17-0.43-4.33-0.87-6.5-1.3c-0.74-0.56-1.49-1.11-2.23-1.67    c-0.68-0.56-2.07-1.34-2.23-2.23c-1.72-0.88-3.58-0.7-4.87-2.18c-0.12-0.03-0.24-0.07-0.36-0.1c-0.52-1.31-0.17-2.21-0.15-3.46    c0.01-0.55-0.29-1.24-0.01-1.69c-0.31-0.74-0.62-1.49-0.93-2.23c-1.73-2.01-3.58-3.81-5.39-5.76c-1.79-1-3.59-2-5.38-2.99    c-1.23-0.85-2.57-1.25-3.53-2.39c-0.43-0.37-0.87-0.74-1.3-1.11c-1.15-0.54-2.16-1.06-3.16-1.86c-0.61-0.49-2.03-1.88-1.67-2.6    c-0.43-0.5-0.87-0.99-1.3-1.49c-1.16-1.3-1.92-2.99-2.41-4.64c-0.2-0.69-0.88-1.33-0.74-2.04c-0.31-0.31-0.62-0.62-0.93-0.93    c-0.22-0.32-1.83-2.25-2.01-2.16l0.01,0.12c0.27-1.16,2.56-3.16,3.67-3.72c1.49-2.71,3.65-4.97,6.13-6.87    c0.68-0.56,1.36-1.11,2.04-1.67c4.15-3.53,8.29-7.06,12.44-10.58c2.23-0.88,4.75-1.03,7.09-1.52c0.86-0.36,1.71-0.72,2.57-1.08    c0.89-0.65,1.78-1.29,2.68-1.94c0.55,0.15,0.87-0.49,1.22-0.85c0.93-0.68,1.86-1.36,2.79-2.04c0.97-0.49,1.94-0.98,2.91-1.46    c1.38-0.75,2.76-1.5,4.14-2.25c1.49-0.37,2.97-0.74,4.46-1.11c0.88-0.26,1.62-1.35,2.41-1.49c3.46-2.81,3.55-8.85,4.35-13.02    c0.22-1.13,0.45-4.69,1.37-5.27c2.81-1.73,4.16-0.19,6.92,0.97c0.86,0.32,1.73,0.65,2.59,0.97c1.8,0.15,3.59,0.31,5.39,0.46    c0.86,0.03,1.73,0.06,2.59,0.09c0.31,0.12,0.62,0.25,0.93,0.37c1.72,2.05,3.44,4.1,5.16,6.15c0.48,0.55,1.27,2.04,2.08,2.02    c0.63,1.37,1.82,2.35,2.97,3.34c0.62,0.74,1.24,1.49,1.86,2.23c0.3,0.8,1.34,2.99,1.55,2.81c0.66,0.42,1.32,0.85,1.98,1.27    c0.43,0.76,1.01,2.38,1.86,2.6c0.39,0.62,0.85,1.54,1.49,1.86c0.22,0.45,1.07,2.55,0.77,2.66c-0.32,0.14-0.44,0.27-0.77,0.13    c-0.94,0.78-1.88,1.57-2.83,2.35c-0.79,0.47-1.84,1.11-2.04,2.09c-0.34,2.05,0.4,4.17,0.78,6.14c0.17,1.02,0.34,2.03,0.51,3.05    c-0.46,0.97,0.08,2.09,0.24,3.06c0.09,0.59,0.19,1.6-0.19,2.06c0.12,0.43,0.25,0.87,0.37,1.3c-0.06,0.8-0.12,1.61-0.19,2.41    c0.06,0.31,0.12,0.62,0.19,0.93c0.12,0.31,0.25,0.62,0.37,0.93c0.52,0.5,1.28,0.93,1.48,1.67c0.19,0.43,0.38,0.87,0.56,1.3    c0.25,1.11,0.5,2.23,0.74,3.34c1.49,3.16,2.97,6.31,4.46,9.47c0.68,0.8,1.36,1.61,2.04,2.41c0.31,0.74,0.62,1.49,0.93,2.23    c0.56,0.93,1.11,1.86,1.67,2.79L245.93,217.71z"/>
            <circle cx="163.96" cy="191.41" r="1.86"/>
        </g>
        <g id="__Şahinbey">
            <path d="    M318.17,224.37c-0.23,0.62-0.46,1.25-0.69,1.87c-0.26,0.49-0.53,0.98-0.79,1.47c0.01,0.51,0.03,1.02,0.04,1.53    c-0.08,0.05-0.15,0.1-0.23,0.15c-0.19,0.74-0.39,1.47-0.58,2.21c-0.05,0.45,0.12,0.98-0.16,1.32c0.21,0.4,0.4,0.5,0.19,0.93    c0.44,0.14,0.88,0.28,1.32,0.42c0.55,0.04,1.22,0.01,1.81-0.12c0.21-0.09,0.43-0.18,0.64-0.27c0.47,0.47,1.04,1.03,0.88,1.83    c0.15-0.08,0.31-0.15,0.46-0.23c1.19-0.86,1.28-2.77,2.22-3.96c0.32-0.41,0.79-0.67,0.85-1.19c0.06,0.01,0.12,0.02,0.18,0.02    c2.91,0.36,6.16-0.08,9.03-0.71c0.51-0.27,1.03-0.55,1.54-0.82c0.93,0.38,1.87,0.76,2.8,1.14c0.64-0.48,1.22-1.16,1.8-0.85    c0.71,0.39,1.41,1.1,2.28,0.85c1.11,0.65,1.67,0.93,2.97,0.93c0.6,0.56,1.87,2.09,2.6,2.23c0.31,0.74,0.62,1.49,0.93,2.23    c0.1,0.56-0.02,1.08,0.37,1.49c0,0.4,0.12,0.65-0.19,0.93c0.13,0.05,0.26,0.1,0.39,0.15c0.18,0.14,0.36,0.27,0.54,0.41    c0.31,0,0.62,0,0.93,0c1.05,0.68,2.1,1.36,3.16,2.04c0.43,0.19,0.87,0.37,1.3,0.56c2.22,0.46,4.44,0.92,6.66,1.39    c0.75,0.16,1.5,0.31,2.26,0.47c0.66,0.07,1.68-0.55,2.04,0.15c0.19,0.45,0.38,0.89,0.56,1.34c-0.08,0.48-0.35,0.76,0,1.11    c-0.15,0.09-0.3,0.18-0.45,0.27c0.02,0,0.03,0,0.05,0.01c0.26,0.05,0.39-0.01,0.4,0.3c-0.09,0.45-0.18,0.91-0.27,1.36    c-2.24,2.31-5.82,2.49-8.08,4.94c-0.49,0.53-1.68,1.13-1.68,2.04c0,4.9-0.88,9.78-1.67,14.67c-0.09,0.54-0.16,1.81,0.19,2.23    c-0.07,0.37-0.14,0.75-0.21,1.12c-0.25,0.68-0.49,1.35-0.74,2.03c-0.94,1.15-1.5,4.26-1.94,5.74c-0.98,2.35-1.96,4.7-2.94,7.05    c-0.28,0.46-0.56,0.93-0.84,1.39c-0.38,0.79-0.76,1.57-1.14,2.36c-0.06,0.31-0.12,0.62-0.19,0.93c-0.37,0.68-0.74,1.36-1.11,2.04    c-0.14,0.61-0.27,1.22-0.41,1.83c-0.13,0.49-0.39,1.04-0.15,1.51c-0.28,1.35-0.04,2.4,0.13,3.72c0.07,0.51-0.09,1.1,0.24,1.48    c0,0.5-0.13,1.1,0.19,1.49c-1.19,2.7-2.32,4.18-0.93,7.06c-2.71,0-3.64,2.87-4.83,4.83c-0.65,1.19-1.3,2.38-1.94,3.57    c-0.34,0.85-0.68,1.7-1.03,2.55c-0.13,0.97,0.03,2.29-0.56,3.16c0.06,0.56,0.12,1.11,0.19,1.67c-0.06,0.19-0.12,0.37-0.19,0.56    c0.06,0.68,0.12,1.36,0.19,2.04c0.25,1.07,0.77,2.52,1.67,3.16c0.37,1.05,0.74,2.1,1.11,3.16c0.41,1.55-0.4,4.16-1.13,5.66    c-0.06,0.22-0.11,0.44-0.17,0.66c-0.37,0.32-0.73,0.65-1.1,0.97c-1.47,0.33-2.94,0.65-4.4,0.98c-1.78-1.34-2.67-3.09-3.78-4.93    c-0.62-0.62-1.24-1.24-1.86-1.86c-1.85-0.77-3.58-1.37-5.38-2.23c-0.99-0.74-1.98-1.49-2.97-2.23c-0.56-0.8-1.11-1.61-1.67-2.41    c-1.9-2.89-0.72-6.84-2.91-9.63c-0.12-0.79-0.12-2.18,0.68-2.62c-0.06-0.56-0.12-1.11-0.19-1.67c0.25-1.11,0.5-2.23,0.74-3.34    c0.19-1.67,0.39-3.34,0.58-5.01c0.05-0.68,0.11-1.37,0.16-2.05c-0.09-0.58-0.35-1,0-1.49c-0.43-0.73-0.54-1.34-0.88-2.09    c-0.73-1.57-1.84-2.98-3.1-4.14c-2.22-2.04-5.23-3.64-8.07-4.59c-0.93-0.29-1.87-0.58-2.8-0.88c-1.23-0.73-2.32-1.03-3.72-1.28    c-1.61-0.19-3.21-0.39-4.82-0.58c-1.9-0.54-3.86-0.36-5.78-0.1c-0.56,0.08-1.4-0.06-1.83,0.28c-1.16,0.05-2.32,0.1-3.49,0.15    c-0.51-0.05-1.02-0.1-1.53-0.15c-0.56-0.19-1.11-0.37-1.67-0.56c-0.74-0.62-1.49-1.24-2.23-1.86c-1.48-1.02-3.4-0.96-5.07-1.25    c-1.78-0.14-3.55-0.28-5.33-0.42c-2.35-1.05-4.7-2.1-7.06-3.16c-2.44-2.52-5.5-5.53-7.06-8.73c-1.16-2.4-3.09-4.29-3.34-7.06    c0.25-0.49,1.71-2.43,0.94-2.41c-0.13,0-0.26,0-0.38-0.01c0.09-0.05,0.17-0.11,0.26-0.16c0.44-0.29,2.76-0.49,2.69-0.94    c-0.05-0.56-0.1-1.12-0.16-1.68c-0.43-1.18-0.87-2.35-1.3-3.53c-0.42-1.11-0.58-2.36-1.3-3.34c-0.62-0.56-1.24-1.11-1.86-1.67    c-0.7-0.26-2.09-0.93-2.79-0.56c-0.91-0.23-1.83-0.45-2.74-0.68c-0.73,0.08-1.47,0.15-2.2,0.23c-0.77-0.53-1.54-1.06-2.3-1.6    c-0.9-1.19-1.8-2.37-2.7-3.56c-0.47-0.85-0.93-1.71-1.4-2.56c-0.32-0.51-1.26-2.66-1.1-3.17c-0.29-0.74-0.57-1.47-0.86-2.21    c0.68-1.45,2.05-2.17,3.1-3.32c0.55-0.63,1.1-1.26,1.65-1.89c0.43-0.31,0.87-0.62,1.3-0.93c0.48-0.51,0.96-1.02,1.44-1.53    c0.09-0.66,1.79-2.72,2.46-2.74c0.68-1.61,1.37-3.22,2.05-4.83c0.18-0.74,0.37-1.49,0.55-2.23c0.17-1.31,0.05-2.28,0.93-3.34    c0.56-0.68,0.51-1.65,1.47-1.65c0.97,0.03,1.56,0.53,2.43,0.91c0.74,0.06,1.49,0.12,2.23,0.19c0.65-0.31,2.74-1.38,3.34-0.93    c2.76-1.49,6-1.44,8.91-2.6c0.91-0.58,1.82-1.16,2.73-1.75c1.77-0.7,3.54-1.4,5.3-2.11c1.35-0.32,2.69-0.65,4.04-0.97    c0.81-0.09,1.98,0.5,2.6-0.19c0.47,0.03,1.11,0.27,1.49,0c1.7,1.55,3.79,2.41,5.57,3.81c0.84-0.21,2,0.67,2.79,1.02    c1.47,0.66,3.3,0.8,4.92,1.04c0.52-0.22,1.51-0.33,1.95,0.07c0.68-0.12,1.36-0.25,2.04-0.37c1.11-0.08,1.96-0.69,3.01-0.91    c1.16-0.07,2.33-0.14,3.49-0.2c1.5-0.12,2.75,0.84,4.07,1.33c1.24,0.46,2.19,1.25,3.36,1.82c0.68,0.19,1.36,0.37,2.04,0.56    c1.67,1.31,3.31,2.95,4.48,4.73C317.31,223.01,317.84,223.88,318.17,224.37z"/>
            <circle cx="288.55" cy="282.96" r="1.86"/>
        </g>
        <g id="__Oğuzeli">
            <path d="    M446.29,335.79c-0.29,0.29-0.26-0.12-0.66-0.24c-0.34-0.19-0.69-0.37-1.03-0.56c-0.12-1.51-1.04-2.79-1.49-4.21    c-0.61-1.67-1.22-3.35-1.83-5.02c0.21-0.81-0.62-2.21-0.93-2.97c0-0.25,0-0.5,0-0.74c-0.42-1.31-0.84-2.62-1.26-3.93    c0.05-0.2,0.1-0.4,0.15-0.6c-0.24-1.34-0.19-2.41-0.19-3.64v0.37c0-0.43-0.98-0.71-1.34-0.87c-0.3-0.02-0.59-0.04-0.89-0.06    c-1.02-0.68-2.2-0.87-2.97-1.86c-0.93-1.3-1.86-2.6-2.79-3.9c-0.65-1.5-1.21-3.23-2.23-4.64c-0.5-0.69-2.23-3.7-2.23-4.46    c-1.2-1.2-1.1-3.04-2.23-4.46c-0.22-0.46-0.71-0.77-1.39-0.96c-0.25-0.25-0.8-0.31-1.58-0.34c-0.37-0.06-0.74-0.12-1.11-0.19    c-0.31-0.25-0.62-0.5-0.93-0.74c-0.74-0.61-2.79-2.16-2.79-3.16c-3.18-3.18-4.44-5.69-3.71-10.21c0.34-0.73,0.68-1.45,1.02-2.18    c1.44-2.16,3.42-4.03,2.68-6.92c-0.37-1.45-1.39-2.71-2.21-3.9c-0.31-0.87-0.62-1.73-0.93-2.6c0.06-0.12,0.12-0.25,0.19-0.37    c-0.19-0.37-0.37-0.74-0.56-1.11c-0.06-0.93-0.12-1.86-0.19-2.79c0.19-1.18,0.37-2.35,0.56-3.53c0.62-1.09,0.85-2.21,0.85-2.21    c-0.19-0.68-1.35,0-1.96,0.17c-0.27-0.54-1.62-0.67-2.23-0.93c-0.58-0.74-1.44-0.2-2.22-0.41c-1.74-0.67-3.47-1.34-5.21-2.01    c-1.66-0.87-3.15-1.43-5.01-1.67c-0.37-0.47-0.97-0.3-1.49-0.56c-2.13-1.08-4.18-1.47-6.5-1.86c-1.92-1.05-3.83-2.1-5.75-3.16    c-2.63-1.49-6.22-5.27-9.55-4.33c-0.97,0.08-1.93,0.17-2.9,0.25c-1.98,0.93-2.06,1.06-3.71,2.41c-0.63,0.51-2.03,1.35-1.95,2.14    l-0.1,0.05c0.19,0.45,0.38,0.89,0.56,1.34c-0.08,0.48-0.35,0.76,0,1.11c-0.15,0.09-0.3,0.18-0.45,0.27c0.02,0,0.03,0,0.05,0.01    c0.26,0.05,0.39-0.01,0.4,0.3c-0.09,0.45-0.18,0.91-0.27,1.36c-2.24,2.31-5.82,2.49-8.08,4.94c-0.49,0.53-1.68,1.13-1.68,2.04    c0,4.9-0.88,9.78-1.67,14.67c-0.09,0.54-0.16,1.81,0.19,2.23c-0.07,0.37-0.14,0.75-0.21,1.12c-0.25,0.68-0.49,1.35-0.74,2.03    c-0.94,1.15-1.5,4.26-1.94,5.74c-0.98,2.35-1.96,4.7-2.94,7.05c-0.28,0.46-0.56,0.93-0.84,1.39c-0.38,0.79-0.76,1.57-1.14,2.36    c-0.06,0.31-0.12,0.62-0.19,0.93c-0.37,0.68-0.74,1.36-1.11,2.04c-0.14,0.61-0.27,1.22-0.41,1.83c-0.13,0.49-0.39,1.04-0.15,1.51    c-0.28,1.35-0.04,2.4,0.13,3.72c0.07,0.51-0.09,1.1,0.24,1.48c0,0.5-0.13,1.1,0.19,1.49c-1.19,2.7-2.32,4.18-0.93,7.06l0.19,0.09    c0.24,0.09,0.32-0.37,0.56-0.28c0.99-0.09,1.97-0.17,2.96-0.26c0.87,0.15,1.74,0.3,2.61,0.45c1.64,1.04,3.91,2.74,4.83,4.46    c0.25,0.8,0.49,1.6,0.74,2.4c0.5,0.99,0.99,1.99,1.49,2.98c0.68,0.62,1.36,1.24,2.04,1.86c0.5,0.19,0.99,0.37,1.49,0.56    c0.99,0.8,1.98,1.61,2.97,2.41c1.1,1.67,2.19,3.34,3.29,5.01c1.19,1.3,2.39,2.6,3.58,3.91c0.92,0.57,1.84,1.15,2.76,1.72    c0.32,0.14,0.95,0.32,0.95,0.7c0.45,0.33,1.12,0.6,1.3,1.11c1.68,0.77,3.35,1.54,5.03,2.3c1.21,1.54,2.41,3.08,3.62,4.62    c0.4,0.85,0.79,1.7,1.19,2.55c0.51,1.23,0.56,2.97,1.02,4.08c0.54-0.16,1.36-0.87,1.9-1.03c2.86-1.29,5.45-2.76,8.22-4.17    c1.08-0.42,2.17-0.84,3.26-1.26c0.9-0.57,1.79-1.14,2.69-1.71c1-0.96,2-1.93,3.01-2.89c1.1-0.83,2.21-1.66,3.31-2.5    c0.72-0.4,1.42-1.67,2.23-1.67c0.9-0.06,2.56,0.07,2.79,1.3c0.69,0.27,2.5,0.73,3.15,0.49c2.79-1,3.02-3.86,6.21-4.76    c0.84,0.27,1.68,0.55,2.52,0.82c2.06,0.84,4.11,1.25,6.31,1.59c0.93,0.06,1.86,0.12,2.79,0.19c1.04,0.01,2.86,0.27,3.9,0.28    c1.18,0.12,4.26,0.51,5.06-0.07L446.29,335.79z"/>
            <circle cx="371.74" cy="264.02" r="1.86"/>
        </g>
        <g id="__Karkamış">
            <path d="    M504.77,267.83c-0.96,1.02-3.18-0.01-4.42,0.35c-0.57,0.25-1.13,0.5-1.7,0.75c-0.5,0.06-0.99,0.12-1.49,0.19    c-1.11-0.06-2.23-0.12-3.34-0.19c-1.79,0.06-3.59,0.12-5.39,0.19c-0.87-0.12-1.73-0.25-2.6-0.37c-2.2,0-4.33,0.2-6.5,0.56    c-1.43,0.24-3.13,1.16-4.09,2.23c-0.78,0.25-2.41,1.14-2.41,2.23c-1.4,1.4-2.51,2.46-3.34,4.27c-0.47,0.53-0.93,1.06-1.4,1.59    c-2.39,2.49-3.72,5.6-5.84,8.25c0.18,0.38,0.1,0.93-0.12,1.33c-0.09,0.11-0.17,0.23-0.26,0.34c-0.5-0.48-3.18,0.33-3.86,0.64    c-1.53,0.69-2.62,2.1-3.93,3.08c-1.54,0-3.27,1.6-4.27,2.6c-0.24,0.24-0.12,0.43-0.17,0.75c-0.26,1.75,0.33,1.72,1.03,3.17    c0.13,0.27-0.91,1.33-1.22,1.64c-0.25,0.31-0.5,0.62-0.74,0.93c-1.55,0.31-3.09,0.62-4.64,0.93c-0.99,0.85-1.97,1.7-2.96,2.55    c-0.4,0.64-0.79,1.28-1.19,1.91c-0.28,0.37-0.56,0.73-0.85,1.1c0.18,0.4,0.08,1.73-0.2,2.11c0.06,1.03,0.03,1.04,0.09,2.07    c0,0.06,0.09,1.15,0.09,1.21v-0.37c0,1.24-0.05,2.3,0.19,3.64c-0.05,0.2-0.1,0.4-0.15,0.6c0.42,1.31,0.84,2.62,1.26,3.93    c0,0.25,0,0.5,0,0.74c0.31,0.76,1.14,2.16,0.93,2.97c0.61,1.67,1.22,3.35,1.83,5.02c0.45,1.42,1.37,2.7,1.49,4.21    c0.34,0.19,0.69,0.37,1.03,0.56c0.41,0.12,0.38,0.52,0.66,0.24c1.14-1.14,2.15-2.39,3.02-3.64c0.35-0.33,0.71-0.67,1.06-1    c0.79-0.21,1.59-0.43,2.38-0.64c0.82-0.16,1.63-0.31,2.45-0.47c0.88-0.32,2.68-1.11,3.53-0.93c1.35-0.74,2.64-1.47,3.86-2.44    c0.52,0.03,0.78-0.22,1.18-0.53c0.47,0,1.1-0.25,1.08-0.74c0.37,0,0.74,0,1.11,0c1.73-0.67,3.46-1.33,5.19-2    c2.29-0.63,4.86-1.16,7.25-0.78c0.44-1.55,1.33-2.45,2.36-3.74c1.93-2.42,4.42-4.87,7.37-6c1.36-0.52,2.89-0.74,4.37-0.9    c0.5-0.04,1-0.09,1.5-0.13c2.48-1.18,4.95-2.35,7.43-3.53c0.37,0,0.74,0,1.11,0c0.67,0.45,2.64,1.43,3.34,0.93    c0.67,0.49,2.22,1.68,2.91,1.22c0.62-0.39,1.39-0.77,1.43-1.43c0.04-0.3,0.08-0.6,0.12-0.9c-0.37-0.9-1.31-3.82-0.37-4.64    c-0.11-0.7-0.66-1.51,0-2.04c-0.09-0.47-0.3-0.91,0-1.3c-0.36-0.62-0.94-0.87-0.92-1.49c0.05-0.72,0.6-0.96,1.01-1.53    c0.78-1.08,2.63-3.49,2.45-4.73c-0.04-0.39-0.08-0.78-0.13-1.17c-0.77-0.46-1.45-0.58-2.04-1.3c-0.12-0.31-0.25-0.62-0.37-0.93    c-0.14-0.59-1.56-2.82-2.07-3.26c-1.13-0.97-1.25,0.58-2.38-1.09c-0.75-1.22-1.58-2.67-1.68-4.19c-0.03-0.45,0.06-1.02,0.37-1.3    c-0.19-0.74-0.37-1.49-0.56-2.23c0.25-1.18,0.5-2.35,0.74-3.53c0.07-0.69,0.63-1.32,0.37-2.04c0.2-0.65,0.75-1.73,0.56-2.15    c-0.25-0.5-0.87-1.39-1.49-1.38H504.77z"/>
            <circle cx="500.42" cy="304.13" r="1.86"/>
        </g>
        <g id="__Nizip">
            <path d="    M459.44,159.09c-1.35,0.53-2.7,1.06-4.04,1.59c-0.99-0.09-1.98-0.18-2.97-0.27c-3.38-0.44-6.28-0.93-9.63,0.06    c-0.55,0.08-1.11,0.17-1.67,0.25c-1.37,0.48-2.75,0.96-4.12,1.44c-0.43,0.06-0.87,0.12-1.3,0.19c-0.96,0.38-1.87,1.3-2.97,1.3    c-1.97,1.42-4.22,2.3-6.31,3.53c-1,0.59-2.56,0.52-3.34,1.3c-1.11,0.37-2.23,0.74-3.34,1.11c-1.05,0.14-2.1,0.29-3.15,0.43    c-1.73,0.35-3.47,0.7-5.21,1.06c-0.93,0.8-1.86,1.61-2.79,2.41c0,0.57-0.73,1.47-1.11,1.86c-0.87,1.29-1.74,2.59-2.62,3.88    c0.14,1.62-1.09,2.94-1.47,4.47c0.06,0.13,0.13,0.25,0.19,0.38c-0.07,0.12-0.14,0.24-0.21,0.35c-0.36,0.6-0.79,1.07-1.46,1.32    c-0.16,0.39-0.2,0.89-0.56,1.11c-0.12,0.62-0.25,1.24-0.37,1.86c0.06,0.99,0.12,1.98,0.19,2.97c-0.06,1.36-0.12,2.72-0.19,4.08    c0.12,0.37,0.25,0.74,0.37,1.11c0.43,0.8,0.87,1.61,1.3,2.41c1.42,1.67,2.85,3.34,4.27,5.01c0.93,0.87,1.86,1.73,2.79,2.6    c1.05,1.3,2.1,2.6,3.16,3.9c1.04,1.29,2.48,2.79,2.79,4.46c0.32,1.74,0.37,3.41,0.37,5.18c0,0.56,0,1.13,0,1.69    c-0.12,0.31-0.25,0.62-0.37,0.93c0.06,0.43,0.12,0.87,0.19,1.3c-0.25,0.68-0.5,1.36-0.74,2.04c0.04,0.93,0.18,4.64-0.37,5.2    c0,0.93,0,1.86,0,2.79c0.39,1.13,0.79,2.26,1.18,3.38c0.13,0.9-0.74,2.25,0.3,2.74c-0.54,1.83-0.62,3.86-0.56,5.76    c0.02,0.85,0.04,1.71,0.06,2.56c-0.15,0.57-0.29,1.14-0.44,1.71c-0.19,0.37-0.37,0.74-0.56,1.11c-0.28,1.24-0.68,2.25-1.3,3.34    c-0.19,1.18-0.37,2.35-0.56,3.53c0.06,0.93,0.12,1.86,0.19,2.79c0.19,0.37,0.37,0.74,0.56,1.11c-0.06,0.12-0.12,0.25-0.19,0.37    c0.31,0.87,0.62,1.73,0.93,2.6c0.82,1.19,1.84,2.45,2.21,3.9c0.73,2.89-1.24,4.76-2.68,6.92c-0.34,0.73-0.68,1.45-1.02,2.18    c-0.73,4.52,0.53,7.03,3.71,10.21c0,1,2.04,2.55,2.79,3.16c0.31,0.25,0.62,0.5,0.93,0.74c0.37,0.06,0.74,0.12,1.11,0.19    c0.77,0.03,1.33,0.09,1.58,0.34c0.68,0.19,1.18,0.5,1.39,0.96c1.12,1.42,1.03,3.26,2.23,4.46c0,0.76,1.73,3.76,2.23,4.46    c1.02,1.41,1.58,3.15,2.23,4.64c0.93,1.3,1.86,2.6,2.79,3.9c0.77,0.99,1.96,1.18,2.97,1.86c0.3,0.02,0.59,0.04,0.89,0.06    c0.36,0.16,1.34,0.45,1.34,0.87c0-0.06-0.09-1.15-0.09-1.21c-0.06-1.03-0.03-1.04-0.09-2.07c0.28-0.38,0.39-1.71,0.2-2.11    c0.28-0.37,0.56-0.73,0.85-1.1c0.4-0.64,0.79-1.28,1.19-1.91c0.99-0.85,1.97-1.7,2.96-2.55c1.55-0.31,3.09-0.62,4.64-0.93    c0.25-0.31,0.5-0.62,0.74-0.93c0.32-0.32,1.35-1.37,1.22-1.64c-0.7-1.45-1.29-1.42-1.03-3.17c0.05-0.33-0.06-0.52,0.17-0.75    c1-1,2.73-2.6,4.27-2.6c1.32-0.98,2.4-2.39,3.93-3.08c0.69-0.31,3.36-1.12,3.86-0.64c0.08-0.11,0.17-0.23,0.26-0.34    c0.22-0.4,0.29-0.95,0.12-1.33c2.12-2.66,3.45-5.76,5.84-8.25c0.47-0.53,0.93-1.06,1.4-1.59c0.84-1.81,1.94-2.87,3.34-4.27    c0-1.08,1.63-1.98,2.41-2.23c0.95-1.07,2.65-1.99,4.09-2.23c2.16-0.36,4.3-0.56,6.5-0.56c0.87,0.12,1.73,0.25,2.6,0.37    c1.79-0.06,3.59-0.12,5.39-0.19c1.11,0.06,2.23,0.12,3.34,0.19c0.5-0.06,0.99-0.12,1.49-0.19c0.57-0.25,1.13-0.5,1.7-0.75    c1.24-0.37,3.46,0.67,4.42-0.35c0.44-0.52,0.69-1,0.2-1.49c-0.62-0.8-1.24-1.61-1.86-2.41c-0.99-0.43-1.98-0.87-2.97-1.3    c-0.5-0.06-0.99-0.12-1.49-0.19c-0.8-0.37-1.61-0.74-2.41-1.11c-0.56-1.56-1.74-2.62-2.19-4.29c0.14-0.24,0.27-0.48,0.41-0.73    c-0.4-1.05-0.8-2.1-1.2-3.16c-0.06-0.37-0.12-0.74-0.19-1.11c0.19-1.11,0.37-2.23,0.56-3.34c0.56-1.11,1.11-2.23,1.67-3.34    c0-0.56,0-1.11,0-1.67c0.12-0.56,0.25-1.11,0.37-1.67c0.72,0.37,1.28-1.37,1.55-1.99c0.35-0.7,0.7-1.4,1.05-2.09    c0.37-1.27-0.17-3.57-1.14-4.42c-0.48-0.45-1.15-1.02-1.83-0.91c-0.68,0.11-1.37,0.21-2.05,0.32c-0.68,0.43-1.36,0.87-2.04,1.3    c-1.78,1.78-3.11,3.7-5.77,3.99c-1.47,0.16-3-0.02-4.44-0.28c-0.25-0.06-0.5-0.12-0.74-0.19c-0.92-0.58-2.06-1.06-3.16-1.11    c0.3-0.3-0.11-0.66-0.37-0.96c-0.68-0.79-1.74-1.48-2.8-1.52c-0.18-0.04-0.36-0.08-0.55-0.12c-0.68,0.68-0.66,0.93-1.67,0.93    c-0.16-0.22-0.33-0.43-0.49-0.65c-0.21-0.28-0.41-0.56-0.62-0.84c-0.25-0.06-0.5-0.12-0.74-0.19c0-0.42-0.14-0.49-0.46-0.74    c-0.28-1.06-1.2-1.34-2.16-1.47c-0.18-0.01-0.36-0.01-0.54-0.02c-0.22,0.23-0.44,0.46-0.66,0.68c-0.28-0.1-0.55-0.21-0.83-0.31    c0.07-0.02,0.14-0.04,0.2-0.06c0.21-0.64,0.45-2.29-0.24-2.66c-0.53-0.27-0.56-0.03-1.07-0.06c-0.25-0.12-0.5-0.25-0.74-0.37    c0.45,0,0.4-0.07,0.31-0.5c-0.23-0.45-0.45-0.91-0.68-1.36c-0.25-0.06-0.58,0.07-0.51-0.15c0.42-1.17,0.81-2.24,0.72-3.51    c0.24-0.27,0.48-0.53,0.72-0.79c-0.06-0.25-0.12-0.5-0.19-0.74c0.52-0.79,1.05-2.28,0.87-3.26c0.49-0.31,1.19-0.52,0.99-1.2    c0.41-0.44,0.73-0.73,0.93-1.3c-0.06-0.19-0.12-0.37-0.19-0.56c0.41-0.56,0.79-0.98,0.93-1.67c0.37-0.25,0.74-0.5,1.11-0.75    c0.21-0.53,0.65-1.7,0.39-2.13c-0.32-0.34-0.63-0.68-0.95-1.03c0.32,0.16,0.64,0.32,0.96,0.48c1.02-2.1,0.24-4.51-0.78-6.23    c0-0.85-0.79-0.7-0.37-1.67c-0.18-0.02-0.37-0.04-0.55-0.06c-0.87-0.1-0.9-0.84-1.46-1.44c-1.16-1.22-1.57-3.04-3.08-3.96    c-0.17-0.47-0.55-0.73-1.03-0.66c0.32,0,0.34,0.07,0.42-0.26c0.09-0.65-0.07-1.28-0.38-1.84c0.28-0.64-0.34-1.71-0.8-2.26    c0.01-0.56-0.16-1.15-0.55-1.58c-0.35-2.24-0.65-4.46-2.23-6.13c1.05,0,0.31-3-0.07-3.66c0.5-0.96,1.01-1.91,1.51-2.87    c0.21-0.46,0.28-0.56-0.15-0.91c0.2-0.28,0.4-0.56,0.6-0.85c0.36-0.03,0.71-0.05,1.07-0.08c0.69-0.59,1.39-0.74,2.25-1    c0.8,0.21,1.59,0.42,2.39,0.63c0.37,0.31,0.74,0.62,1.11,0.93c0.06,0.19,0.12,0.37,0.19,0.56c0.43,0.56,0.87,1.11,1.3,1.67    c0.46,0.34,2.97,0.94,2.97,0c0-0.62,0-1.24,0-1.86c-0.16-1.41-1.88-3.44-2.88-4.35c-0.65-1.21-1.3-2.43-1.95-3.64    c-0.41,0-0.62,0.5-0.62,0.5c-0.49-0.17-0.8-0.54-1.24-0.87c-0.59-0.45-1.38-0.19-1.86-0.93c-0.42-0.64-0.51-1.25-1.11-1.86    c0-0.79-0.59-1.89-1.11-2.41c-0.01-0.39-0.09-2.51-0.56-2.04C459.93,160.19,460.19,158.82,459.44,159.09z"/>
            <circle cx="449.54" cy="248.05" r="1.86"/>
        </g>
        <g id="__Şehitkamil">
            <path d="    M414.27,252.8c-0.19-0.68-1.35,0-1.96,0.17c-0.27-0.54-1.62-0.67-2.23-0.93c-0.58-0.74-1.44-0.2-2.22-0.41    c-1.74-0.67-3.47-1.34-5.21-2.01c-1.66-0.87-3.15-1.43-5.01-1.67c-0.37-0.47-0.97-0.3-1.49-0.56c-2.13-1.08-4.18-1.47-6.5-1.86    c-1.92-1.05-3.83-2.1-5.75-3.16c-2.63-1.49-6.22-5.27-9.55-4.33c-0.97,0.08-1.93,0.17-2.9,0.25c-1.98,0.93-2.06,1.06-3.71,2.41    c-0.63,0.51-2.03,1.35-1.95,2.14l-0.1,0.05c-0.36-0.7-1.38-0.07-2.04-0.15c-0.75-0.16-1.5-0.31-2.26-0.47    c-2.22-0.46-4.44-0.92-6.66-1.39c-0.43-0.19-0.87-0.37-1.3-0.56c-1.05-0.68-2.1-1.36-3.16-2.04c-0.31,0-0.62,0-0.93,0    c-0.18-0.14-0.36-0.27-0.54-0.41c-0.13-0.05-0.26-0.1-0.39-0.15c0.31-0.28,0.19-0.53,0.19-0.93c-0.39-0.4-0.27-0.93-0.37-1.49    c-0.31-0.74-0.62-1.49-0.93-2.23c-0.73-0.14-2-1.67-2.6-2.23c-1.3,0-1.86-0.28-2.97-0.93c-0.87,0.25-1.57-0.47-2.28-0.85    c-0.58-0.3-1.16,0.37-1.8,0.85c-0.93-0.38-1.87-0.76-2.8-1.14c-0.51,0.27-1.03,0.55-1.54,0.82c-2.87,0.64-6.11,1.08-9.03,0.71    c-0.06-0.01-0.12-0.02-0.18-0.02c-0.06,0.52-0.53,0.78-0.85,1.19c-0.94,1.19-1.03,3.1-2.22,3.96c-0.15,0.08-0.31,0.15-0.46,0.23    c0.17-0.79-0.41-1.36-0.88-1.83c-0.21,0.09-0.43,0.18-0.64,0.27c-0.59,0.13-1.26,0.16-1.81,0.12c-0.44-0.14-0.88-0.28-1.32-0.42    c0.21-0.42,0.02-0.53-0.19-0.93c0.28-0.33,0.11-0.87,0.16-1.32c0.19-0.74,0.39-1.47,0.58-2.21c0.08-0.05,0.15-0.1,0.23-0.15    c-0.01-0.51-0.03-1.02-0.04-1.53c0.26-0.49,0.53-0.98,0.79-1.47c0.23-0.62,0.46-1.25,0.69-1.87c-0.33-0.49-0.86-1.36-1.46-1.21    c-1.17-1.78-2.81-3.41-4.48-4.73c-0.68-0.19-1.36-0.37-2.04-0.56c-1.17-0.58-2.12-1.36-3.36-1.82c-1.31-0.49-2.56-1.46-4.07-1.33    c-1.16,0.07-2.33,0.14-3.49,0.2c-1.05,0.22-1.91,0.83-3.01,0.91c-0.68,0.12-1.36,0.25-2.04,0.37c-0.44-0.4-1.43-0.29-1.95-0.07    c-1.62-0.25-3.45-0.38-4.92-1.04c-0.79-0.35-1.94-1.23-2.79-1.02c-1.78-1.4-3.87-2.26-5.57-3.81c-0.38,0.27-1.02,0.03-1.49,0    c-0.62,0.68-1.79,0.1-2.6,0.19c-1.35,0.32-2.69,0.65-4.04,0.97c-1.77,0.7-3.54,1.4-5.3,2.11c-0.91,0.58-1.82,1.16-2.73,1.75    c-2.92,1.16-6.15,1.11-8.91,2.6c-0.61-0.45-2.69,0.62-3.34,0.93c-0.74-0.06-1.49-0.12-2.23-0.19c-0.87-0.38-1.45-0.88-2.43-0.91    l0.38-0.02c-0.56-0.93-1.11-1.86-1.67-2.79c-0.31-0.74-0.62-1.49-0.93-2.23c-0.68-0.8-1.36-1.61-2.04-2.41    c-1.49-3.16-2.97-6.31-4.46-9.47c-0.25-1.11-0.5-2.23-0.74-3.34c-0.19-0.43-0.38-0.87-0.56-1.3c-0.2-0.74-0.96-1.17-1.48-1.67    c-0.12-0.31-0.25-0.62-0.37-0.93c-0.06-0.31-0.12-0.62-0.19-0.93c0.06-0.8,0.12-1.61,0.19-2.41c-0.12-0.43-0.25-0.87-0.37-1.3    c0.38-0.46,0.29-1.47,0.19-2.06c-0.16-0.97-0.7-2.09-0.24-3.06c-0.17-1.02-0.34-2.03-0.51-3.05c-0.37-1.96-1.12-4.09-0.78-6.14    l0.03-0.73c0.08,0.21,0.15,0.42,0.23,0.63c0.3,0.67,0.89,1.15,0.89,1.97c0.92,1.11,1.83,2.22,2.75,3.33    c0.53,0.73,1.03,1.87,2.08,1.87c5.21,0.67,10.44,0.17,15.42-1.07c1.54-0.32,3.09-0.65,4.63-0.97c0.99-0.44,1.21-1.54,2.23-1.86    c0.32-0.87,0.75-1.29,1.49-1.86c0.19-0.56,0.37-1.11,0.56-1.67c0.37-2.35,1.46-4.21,2.6-6.31c0.99,0,1.88-1,2.77-1.42    c1.32-0.63,4.13-1.39,5.03-2.29c2.36-0.65,4.47-1.83,6.67-2.74c1.52-0.63,3.3-0.99,4.66-1.9c0.31-0.43,0.62-0.87,0.93-1.3    c1.3-0.17,2.14-0.67,3.16-1.49c-0.4,0,0.09-0.71,0.22-0.95c-0.13-1.36,0.97-2.44,1.23-3.77c0.2-0.47,0.39-0.94,0.59-1.42    c0.31-0.99,0.62-1.98,0.93-2.97c0.43-0.87,0.86-1.74,1.29-2.61c0.38-0.75,1.49-1.55,1.49-2.41c0.68-0.74,1.36-1.49,2.04-2.23    c0.56-0.48,1.12-0.75,1.67-1.3c0.93-0.25,1.86-0.5,2.79-0.74c1.04,0.04,2.09,0.07,3.13,0.11c0.57,0.09,1.13,0.17,1.7,0.26    c0.68,0.25,1.36,0.5,2.04,0.74c2.85,0.68,5.77,1.53,8.36,2.79c0.87,0.25,1.73,0.5,2.6,0.74c1.01-0.26,4.14-0.3,5.01,0.19    c2.85-0.74,5.69-1.49,8.54-2.23c0.73-0.37,1.46-0.74,2.19-1.11c0.45-0.43,0.89-0.87,1.34-1.3c0.31-0.19,0.62-0.37,0.93-0.56    c0.19-0.31,0.37-0.62,0.56-0.93c1.11-0.8,2.23-1.61,3.34-2.41c0.37-0.37,0.74-0.74,1.11-1.11c1.67-1.11,3.34-2.23,5.01-3.34    c0.62-0.5,1.24-0.99,1.86-1.49c0.57,0,1.39-0.74,1.86-1.11c0.3-0.24,0.35-0.51,0.74-0.74c-0.06-0.06-0.12-0.12-0.19-0.19    c1.09-1.05,2.17-2.1,3.26-3.16c0.39-0.28,1.07-1.17,1.44-0.66c0.26,0.36,0.51,0.58,0.43,1.02c-0.21,0.85-0.43,1.69-0.64,2.54    c0.24,0.42-0.02,0.51-0.05,0.95c0.07,0.33,0.13,0.66,0.2,0.99c-0.1,0.78-0.19,1.56-0.29,2.34c0.03,1.08,0.07,2.15,0.1,3.23    c0.19,0.74,0.37,1.49,0.56,2.23c-0.06,0.12-0.12,0.25-0.19,0.37c0.31,0.87,0.62,1.73,0.93,2.6c0.56,0.99,1.11,1.98,1.67,2.97    c0.37,0.31,0.74,0.62,1.11,0.93c0.37,0.43,0.74,0.87,1.11,1.3c0.37,0.25,0.74,0.5,1.11,0.74c0.99,0.99,1.98,1.98,2.97,2.97    c0.68,1.61,1.22,3.15,1.67,4.83c0.31,0,0.54,1.15,0.56,1.49c0.06,0.99,0.12,1.98,0.19,2.97c0.19,1.36,0.37,2.72,0.56,4.09    c-0.26,1.48-0.52,2.96-0.78,4.44c-0.17,0.56-0.34,1.12-0.52,1.68c0,1.11,0,2.23,0,3.34c-0.12,0.31-0.25,0.62-0.37,0.93    c-0.1,0.67-0.19,1.35-0.29,2.02c-0.27,1.35,0.13,2.53,0.85,3.55c0.31,0.44,0.18,0.97,0.77,1.2c1.25,0.44,2.42,1.3,3.87,1.03    c1.51-0.84,3.02-1.69,4.53-2.53c1.33-0.46,2.14-1.69,3.23-2.52c1.46-1.12,2.66-2.2,3.95-3.49c1.11-0.68,2.23-1.36,3.34-2.04    c2.08-1.47,3.21-3.44,5.78-3.94c2.22-0.43,4.26-0.1,6.48,0.23c0.43,0.12,0.87,0.25,1.3,0.37c1.3,0.93,2.6,1.86,3.9,2.79    c0.43,0.25,0.87,0.5,1.3,0.74c1.26,0.9,1.63,1.74,3.27,1.74c0.42,0,0.8,0.15,1.27,0.1c0.19,0.08,0.43,0.01,0.54,0.07l1.42-0.06    c-0.93,0.8-1.86,1.61-2.79,2.41c0,0.57-0.73,1.47-1.11,1.86c-0.87,1.29-1.74,2.59-2.62,3.88c0.14,1.62-1.09,2.94-1.47,4.47    c0.06,0.13,0.13,0.25,0.19,0.38c-0.07,0.12-0.14,0.24-0.21,0.35c-0.36,0.6-0.79,1.07-1.46,1.32c-0.16,0.39-0.2,0.89-0.56,1.11    c-0.12,0.62-0.25,1.24-0.37,1.86c0.06,0.99,0.12,1.98,0.19,2.97c-0.06,1.36-0.12,2.72-0.19,4.08c0.12,0.37,0.25,0.74,0.37,1.11    c0.43,0.8,0.87,1.61,1.3,2.41c1.42,1.67,2.85,3.34,4.27,5.01c0.93,0.87,1.86,1.73,2.79,2.6c1.05,1.3,2.1,2.6,3.16,3.9    c1.04,1.29,2.48,2.79,2.79,4.46c0.32,1.74,0.37,3.41,0.37,5.18c0,0.56,0,1.13,0,1.69c-0.12,0.31-0.25,0.62-0.37,0.93    c0.06,0.43,0.12,0.87,0.19,1.3c-0.25,0.68-0.5,1.36-0.74,2.04c0.04,0.93,0.18,4.64-0.37,5.2c0,0.93,0,1.86,0,2.79    c0.39,1.13,0.79,2.26,1.18,3.38c0.13,0.9-0.74,2.25,0.3,2.74c-0.54,1.83-0.62,3.86-0.56,5.76c0.02,0.85,0.04,1.71,0.06,2.56    c-0.15,0.57-0.29,1.14-0.44,1.71c-0.19,0.37-0.37,0.74-0.56,1.11L414.27,252.8z"/>
            <circle cx="334.79" cy="214.44" r="1.86"/>
        </g>
        <g id="__Araban">
            <path d="    M470.99,133.39c0.09-0.37-1.61-0.32-1.86-0.37c-1.24-0.27-2.49-0.55-3.73-0.82c-1.67-0.72-3.33-1.44-5-2.15    c-1.05-0.31-2.1-0.62-3.16-0.93c-1.98-0.96-4-1.48-6.16-2.14c-3.46-0.71-6.91-1.42-10.37-2.14c-0.5,0.06-0.99,0.12-1.49,0.19    c-1.68-0.21-3.35-0.41-5.03-0.61c-1.81-0.06-3.44,0.18-5.18-0.31c-1.51,0.37-2.75,0.41-4.27,0.49c-0.5,0.02-0.99,0.05-1.49,0.07    c-0.4,0.17-0.79,0.35-1.19,0.52c-0.67,0.04-1.34,0.07-2.01,0.11c-1.41-0.09-2.82-0.17-4.23-0.26c-1.99,0.16-3.39,0-5.21-0.45    c-1.3-0.03-2.6-0.07-3.9-0.1c-0.93-0.13-1.86-0.25-2.79-0.38c-5.07-0.65-7.4-4.89-11.69-6.87c-0.38,0.36-1.34,0.16-1.86,0.17    c-1.66,0.03-2.64,0.17-4.27,0.57c-0.8,0.56-1.61,1.11-2.41,1.67c-2.63,2.84-6.01,6.41-10.22,6.13c-2.04-0.07-2.79-2.13-3.7-3.53    c0.19-0.59-0.17-1.64-0.45-2.2l-0.11-0.59c2.79-1.51,3.98-4.05,6.13-6.31c0.74-1.18,1.49-2.35,2.23-3.53    c0.87-2.28,1.74-4.55,2.61-6.83c0.36-0.87,0.87-1.62,1.59-2.24c0.2-0.79,0.4-1.57,0.6-2.36c0.19-0.46,0.39-0.92,0.58-1.38    c1.52-1.81,3.04-3.63,4.56-5.44c0.58-0.61,1.81-1.53,1.94-2.36c0.72-0.45,2.14-1.01,2.41-1.86c1.22-0.87,2.86-1.81,3.53-3.16    c0.43-0.37,0.87-0.74,1.3-1.11c4.14-2.57,8.42-4.47,12.81-6.5c0.98-0.15,1.95-0.31,2.93-0.46c2.24-0.46,4.67-0.74,6.91-0.46    c1.18,0,2.35,0,3.53,0c0.68-0.06,1.36-0.12,2.04-0.19c2.42,0.16,4.83,0.43,7.24,0c0.99,0,1.98,0,2.97,0    c1.11,0.31,2.23,0.62,3.34,0.93c3.22,1.73,6.44,3.47,9.66,5.2c0.54,0.75,0.79,1.34,1.55,1.86c1.71,0.87,3.42,1.73,5.14,2.6    c0.68,0.06,1.36,0.12,2.04,0.19c2.66,1.42,5.32,2.85,7.98,4.27c1.48,0.4,2.95,0.79,4.43,1.19c0.53,0.12,1.44,0.16,1.7,0.67    c1.58,0.06,3.01,0.65,4.65,0.84c2.53,0.16,5.06,0.31,7.58,0.47c0.9,0.04,2.7-0.3,3.37,0.37c2.85-0.62,5.69-1.24,8.54-1.86    c1.67-0.21,3.33-0.41,5-0.62c0.81-0.04,1.62-0.09,2.43-0.13c0.48,0.08,0.96,0.16,1.44,0.24c0.45-0.14,0.9-0.28,1.35-0.42    c0.86,0.06,3.03,0.47,3.71,0c1.49,0.25,2.97,0.5,4.46,0.74c0.37,0,0.74,0,1.11,0c0.32,0.32,0.95,0.44,1.3,0.19    c0.93,0.37,1.86,0.74,2.79,1.11c1.38,0.74,4.88,1.96,5.57,3.34c0.55,0.37,1.67,1.41,1.31,1.93c-0.58,0.67-0.99,1.24-1.93,1.62    c-0.35,1.1-0.7,2.21-1.05,3.31c-0.32,0.7,0,0.79-0.65,1.53c-0.7,0.56-1.21,0.88-1.9,0.65c-0.27,0.28-0.88-0.88-1.23-1.52    c-0.38-0.44-0.54-0.38-0.67-1.03c-0.68-0.06-1.13-0.91-1.81-0.97c-0.57-0.52-3.08-1.38-3.85-1.21c-0.74,0.17-1.03,0.15-1.76,0.32    c-0.39,0.18-1.09,0.65-1.49,0.84c-0.42,0.46-0.9,0.68-1.35,0.93c-0.54,0.3-1.35,0.88-2.04,0.74c-2.54-1.5-5.57-2.99-8.3-1.01    c-1.35,0.98-3.18,3.67-2.42,5.37c-0.56,0.8-1.11,1.61-1.67,2.41c-0.37,0.28-0.77,0.49-0.93,0.93c-1.15,0.53-2.12,1.15-3.16,1.86    c-0.71,0.62-1.42,1.23-2.12,1.85c-0.11,0.48-0.22,0.96-0.34,1.44c-0.23,0.82-0.46,1.64-0.7,2.47c-0.31,0.59-0.84,1.02-0.93,1.67    c-0.86,0.38-2.77,0.97-2.97,2.04c-1.15,0.63-0.34,1.81-1.11,2.79c-0.47,0.6-1.49,1.72-2.23,2.23c-0.69,0.81-1.17,1.61-2.04,2.04    c-1.12,0.83-2.51,2.2-3.88,2.38L470.99,133.39z"/>
            <circle cx="420.39" cy="107.11" r="1.86"/>
        </g>
        <g id="__Yavuzeli">
            <path d="    M459.44,159.09c-1.35,0.53-2.7,1.06-4.04,1.59c-0.99-0.09-1.98-0.18-2.97-0.27c-3.38-0.44-6.28-0.93-9.63,0.06    c-0.55,0.08-1.11,0.17-1.67,0.25c-1.37,0.48-2.75,0.96-4.12,1.44c-0.43,0.06-0.87,0.12-1.3,0.19c-0.96,0.38-1.87,1.3-2.97,1.3    c-1.97,1.42-4.22,2.3-6.31,3.53c-1,0.59-2.56,0.52-3.34,1.3c-1.11,0.37-2.23,0.74-3.34,1.11c-1.05,0.14-2.1,0.29-3.15,0.43    c-1.73,0.35-3.47,0.7-5.21,1.06l-1.42,0.06c-0.12-0.07-0.36,0-0.54-0.07c-0.46,0.05-0.85-0.1-1.27-0.1c-1.64,0-2-0.84-3.27-1.74    c-0.43-0.25-0.87-0.5-1.3-0.74c-1.3-0.93-2.6-1.86-3.9-2.79c-0.43-0.12-0.87-0.25-1.3-0.37c-2.22-0.33-4.25-0.66-6.48-0.23    c-2.57,0.5-3.7,2.47-5.78,3.94c-1.11,0.68-2.23,1.36-3.34,2.04c-1.29,1.29-2.48,2.37-3.95,3.49c-1.08,0.83-1.89,2.06-3.23,2.52    c-1.51,0.84-3.02,1.69-4.53,2.53c-1.45,0.27-2.62-0.6-3.87-1.03c-0.59-0.22-0.46-0.75-0.77-1.2c-0.71-1.02-1.12-2.2-0.85-3.55    c0.1-0.67,0.19-1.35,0.29-2.02c0.12-0.31,0.25-0.62,0.37-0.93c0-1.11,0-2.23,0-3.34c0.17-0.56,0.34-1.12,0.52-1.68    c0.26-1.48,0.52-2.96,0.78-4.44c-0.19-1.36-0.37-2.72-0.56-4.09c-0.06-0.99-0.12-1.98-0.19-2.97c-0.02-0.34-0.24-1.49-0.56-1.49    c-0.45-1.68-0.99-3.22-1.67-4.83c-0.99-0.99-1.98-1.98-2.97-2.97c-0.37-0.25-0.74-0.5-1.11-0.74c-0.37-0.43-0.74-0.87-1.11-1.3    c-0.37-0.31-0.74-0.62-1.11-0.93c-0.56-0.99-1.11-1.98-1.67-2.97c-0.31-0.87-0.62-1.73-0.93-2.6c0.06-0.12,0.12-0.25,0.19-0.37    c-0.19-0.74-0.37-1.49-0.56-2.23c-0.03-1.08-0.07-2.15-0.1-3.23c0.1-0.78,0.19-1.56,0.29-2.34c-0.07-0.33-0.13-0.66-0.2-0.99    c0.03-0.44,0.29-0.53,0.05-0.95c0.21-0.85,0.43-1.69,0.64-2.54c0.08-0.44-0.17-0.66-0.43-1.02l-0.24-0.27    c0.13-0.1,0.27-0.21,0.4-0.31c1.08-0.8,2.93-1.08,4.24-1.18c2.04-0.38,4.09-0.77,6.13-1.15c1-0.18,2.9-0.77,3.27,0.06    c0.28,0.56,0.64,1.61,0.45,2.2c0.91,1.4,1.66,3.47,3.7,3.53c4.22,0.27,7.6-3.29,10.22-6.13c0.8-0.56,1.61-1.11,2.41-1.67    c1.63-0.41,2.61-0.55,4.27-0.57c0.53-0.01,1.49,0.2,1.86-0.17c4.29,1.98,6.61,6.22,11.69,6.87c0.93,0.13,1.86,0.25,2.79,0.38    c1.3,0.03,2.6,0.07,3.9,0.1c1.82,0.45,3.22,0.62,5.21,0.45c1.41,0.09,2.82,0.17,4.23,0.26c0.67-0.04,1.34-0.07,2.01-0.11    c0.4-0.17,0.79-0.35,1.19-0.52c0.5-0.02,0.99-0.05,1.49-0.07c1.52-0.07,2.76-0.12,4.27-0.49c1.74,0.5,3.37,0.25,5.18,0.31    c1.68,0.2,3.35,0.41,5.03,0.61c0.49-0.06,0.99-0.12,1.49-0.19c3.46,0.71,6.91,1.42,10.37,2.14c2.15,0.65,4.18,1.18,6.16,2.14    c1.05,0.31,2.1,0.62,3.16,0.93c1.67,0.72,3.33,1.44,5,2.15c1.24,0.27,2.49,0.55,3.73,0.82c0.24,0.06,1.94,0,1.86,0.37    c-1.09,1.01-1.6,1.95-2.01,2.96c0.19,0.96,0.55,1.94,1.32,2.51c0.7,0.52,1.49,0.23,2.1,1.02c0.57,0.01,0.48,0.1,0.36,0.59    c-0.11,0.36-0.07,0.89-0.31,1.06c-0.91,0.68-3.35,1.69-4.43,1.15c-0.81,0.48-1.45,0.9-2.09,1.58c-0.19,0.88-0.39,1.76-0.58,2.65    c-0.18,1.25-0.66,2.34-0.99,3.65c-0.43,1.68-0.38,3.45-1.31,4.97c-0.44,0.72-0.74,1.44-1.36,2.15c-0.06,0.26-0.11,0.53-0.17,0.79    c-0.23,0.01-0.46,0.01-0.7,0.02c-0.26-0.01-0.53-0.01-0.79-0.02L459.44,159.09z"/>
            <circle cx="386.04" cy="145.36" r="1.86"/>
        </g>
    </g>
</svg>