<?xml version="1.0" encoding="UTF-8"?>
<!DOCTYPE svg PUBLIC "-//W3C//DTD SVG 1.1//EN" "http://www.w3.org/Graphics/SVG/1.1/DTD/svg11.dtd">
<svg version="1.1" id="HaritaCizim" xmlns="http://www.w3.org/2000/svg" xmlns:xlink="http://www.w3.org/1999/xlink" x="0px" y="0px" viewBox="0 0 479 500" preserveAspectRatio="none">
    <defs id="__def">
        <radialGradient id="f">
            <stop offset="0" stop-color="white" stop-opacity="1"/>
            <stop id="STOP1" offset=".4" stop-opacity="1"/>
            <stop offset="1" stop-color="white" stop-opacity=".2"/>
        </radialGradient>
        <filter id="__flt1" x="0" y="0" width="200%" height="200%" filterUnits="objectBoundingBox">
            <feGaussianBlur in="SourceAlpha" stdDeviation="3" result="blur1"/>
            <feSpecularLighting result="specOut" in="blur1" specularConstant="1.5" specularExponent="20" lighting-color="#bbbbbb">
                <feDistantLight azimuth="45" elevation="30"/>
            </feSpecularLighting>
            <feComposite in="specOut" in2="SourceAlpha" operator="in" result="specOut"/>
            <feComposite in="SourceGraphic" in2="specOut" operator="arithmetic" k1="0" k2="1" k3="1" k4="0"/>
        </filter>
        <filter id="__flt2" x="0" y="0" width="200%" height="200%" filterUnits="objectBoundingBox">
            <feGaussianBlur in="SourceAlpha" stdDeviation="3" result="blur1"/>
            <feSpecularLighting result="specOut" in="blur1" specularExponent="20" lighting-color="#bbbbbb">
                <fePointLight x="-2000" y="100" z="2000"/>
            </feSpecularLighting>
            <feComposite in="specOut" in2="SourceAlpha" operator="in" result="specOut"/>
            <feComposite in="SourceGraphic" in2="specOut" operator="arithmetic" k1="0" k2="1" k3="1" k4="0"/>
        </filter>
        <filter id="__flt3" x0="-50%" y0="-50%" width="200%" height="200%" filterUnits="objectBoundingBox">
            <feGaussianBlur in="SourceAlpha" stdDeviation="3" result="blur"/>
            <feOffset in="blur" dx="0" dy="0" result="offsetBlur"/>
            <feSpecularLighting in="blur" surfaceScale="4" specularConstant=".5" specularExponent="20" lighting-color="flavor" result="specOut">
                <fePointLight x="-5000" y="-10000" z="5000"/>
            </feSpecularLighting>
            <feComposite in="specOut" in2="SourceAlpha" operator="in" result="specOut"/>
            <feComposite in="SourceGraphic" in2="specOut" operator="arithmetic" k1="0" k2="1" k3="1" k4="0" result="litPaint"/>
            <feMerge>
                <feMergeNode in="offsetBlur"/>
                <feMergeNode in="litPaint"/>
            </feMerge>
        </filter>
        <filter id="__flt4" x0="-50%" y0="-50%" width="200%" height="200%">
            <feGaussianBlur in="SourceAlpha" stdDeviation="2" result="blur"/>
            <feOffset dy="-1" dx="-1"/>
            <feComposite in2="SourceAlpha" operator="arithmetic" k2="-1" k3="1" result="hlDiff"/>
            <feFlood flood-color="white" flood-opacity=".7"/>
            <feComposite in2="hlDiff" operator="in"/>
            <feComposite in2="SourceGraphic" operator="over" result="withGlow"/>
            <feOffset in="blur" dy="3" dx="3"/>
            <feComposite in2="SourceAlpha" operator="arithmetic" k2="-1" k3="1" result="shadowDiff"/>
            <feFlood flood-color="black" flood-opacity="1"/>
            <feComposite in2="shadowDiff" operator="in"/>
            <feComposite in2="withGlow" operator="over"/>
        </filter>
        <filter id="__golge1" x="0" y="0" width="200%" height="200%" filterUnits="userSpaceOnUse">
            <feOffset result="offOut" in="SourceAlpha" dx="8" dy="8"/>
            <feGaussianBlur result="blurOut" in="offOut" stdDeviation="3"/>
            <feBlend in="SourceGraphic" in2="blurOut" mode="normal"/>
        </filter>
    </defs>
    <g id="__Komsular" display="none">
        <linearGradient id="SVGID_1_" gradientUnits="userSpaceOnUse" x1="103.6892" y1="390.731" x2="174.0146" y2="390.731">
            <stop offset="0" style="stop-color:#FFFFFF;stop-opacity:0"/>
            <stop offset="1" style="stop-color:#2E76BC"/>
        </linearGradient>
        <path fill-rule="evenodd" clip-rule="evenodd" fill="url(#SVGID_1_)" d="M108.54,360.59c-0.16,0.47-0.32,0.93-0.48,1.4   c0.1,0.48,0.1,1.03,0.48,1.34c0,1.05,0,2.11,0,3.16c-0.84,1.48-1.69,2.95-2.53,4.43c-0.82,0.55-1.47,0.69-2.32,1.05   c0.1,0.11,0.21,0.21,0.31,0.32c0.82,0.77,1.59,0.72,2.64,0.95c0.7,0.16,1.87,0.61,2.11,1.26c0.58-0.02,1.21,0.13,1.69-0.21   c0.73,0.25,1.32,0.51,2.11,0.42c0.56-0.07,1.12-0.14,1.69-0.21c0.35,0.21,0.7,0.42,1.05,0.63c1.12,0.46,3.76-0.35,4,0.84   c0.79-0.07,1.63,0.06,2.32-0.42c0.86,0.4,1.54,0.83,2.53,0.63c0.51-0.1,2.35-0.8,2.63-0.53c0.75,0.7,2,1.99,2,3.06   c0.38,0.55,0.85,0.79,0.84,1.48c0.98,0.84,1.97,1.69,2.95,2.53c1.17-0.07,4.12,1,4.85,0.42c3.04,2.32,6.23,5.38,7.57,9   c0.49,0.31,0.76,0.73,0.65,1.33c0.49,0.77,0.98,1.55,1.48,2.32c-0.06,0.19-0.12,0.38-0.18,0.57c-0.52,1.4-1.94,1.22-2.34,2.8   c0.3,0.48,1.46,2.67,1.21,3.04c-0.19,0.32-0.38,0.65-0.57,0.97c-0.67,0.34-2.18,0.77-2.32,1.48c-0.55,0.02-1.1,0.03-1.65,0.05   c-0.36,0.69-0.73,1.37-1.09,2.06c-1.26-0.55-2.52-0.86-3.95-0.65c-0.01,0.06-0.01,0.11-0.02,0.17c0.14,0.51-0.18,0.52-0.55,0.68   c-0.18,0.14-0.36,0.29-0.54,0.43c-1.11-0.18-4.77,0.1-5.06-1.26c-0.58,0-0.76,0.14-1.26-0.21c-0.35,0.21-0.7,0.42-1.05,0.63   c-1.29-0.25-2.87-1.17-3.37-2.53c-0.35-0.26-0.93-0.43-1.05-0.84c-2.41-0.3-4.84-1.03-6.95-2.16c-2.64-1.41-4.4-1.19-7.31-1   c-0.58-0.44-1.58-0.72-2.22-0.36c-0.77,0.43-0.96,1.62-1.43,2.26c0.62,0.04,1.65-0.08,1.48,0.84c-0.12,1.61-0.24,3.22-0.36,4.83   c0.07,0.38,0.76,1.69,0.97,1.75c0.61,0.17,1.8,0.49,2.13,1c0.4-0.08,0.68-0.2,1.05,0c0.7-0.28,1.41-0.56,2.11-0.84   c1.19-0.09,2.38-0.17,3.57-0.26c1.07-0.12,1.95-0.73,2.83-0.2c0.26-0.14,0.38-0.3,0.3-0.02c-0.15,0.58-0.38,1.68,0.02,2.17   c0.63,0.8,1.43,2.37,2.36,2.65c0.52,0.15,2.5,0.24,2.79-0.25c0.2-0.36,0.13-0.47,0.57-0.52c-0.24-0.26-1.8-2.05-1.08-2.13   c1.99-0.21,1.84,0.29,3.61-1.03c0.47-0.35,1.22-0.31,1.48-0.84c0.96,0.09,2.38,0.17,3.16,0.84c0.97-0.16,2.48-0.58,3.16,0.42   c0.43,0,0.72-0.08,1.05,0.21c0.35-0.07,0.7-0.14,1.05-0.21c0.7-0.35,1.41-0.7,2.11-1.05c0.54-0.06,1.09-0.11,1.63-0.17   c0.65-0.35,1.3-0.71,1.96-1.06c0.56-0.29,1.12-0.58,1.68-0.88c0.02,0.06,0.05,0.12,0.07,0.18c0.23,0.67,0.45,1.34,0.68,2.02   c-0.18,0.95-2.22,3.24-3.09,3.39c-0.6,0.06-2.73-0.54-2.73-0.54c-0.02,0.48-0.13,0.71,0.22,1.07c-0.25,0.61-0.8,2.02-1.47,2.15   c-0.28,0.13-0.57,0.25-0.85,0.38c-0.21-0.56-0.42-1.12-0.63-1.69c-0.14,0-0.28,0-0.42,0c-0.17,0.4-0.23,1.66-0.63,1.71   c-0.47,0.08-3-0.11-2.93,0.38c0.09,0.46,0.19,0.92,0.28,1.38c0.88,0.67,1.76,1.34,2.64,2.01c0.46,0.19,0.92,0.37,1.38,0.56   c0.13,0.19,0.25,0.37,0.38,0.56c0.26,0.19,0.51,0.38,0.77,0.57c0.35,0.07,0.7,0.14,1.05,0.21c1.14-0.15,2.1-0.17,3-0.98   c0.13,0.05,0.25,0.09,0.38,0.14c0.51-0.54,1.02-1.09,1.53-1.63c0.33-0.51,0.67-1.02,1-1.53c0.01-0.43-0.08-0.73,0.21-1.05   c-0.73-0.68-1.92-1.36-1.11-2.42c1-1.16,2-2.32,3-3.48c0.24-0.71,0.47-1.43,0.71-2.14c0.28-0.6,0.16-1.14,0.76-1.44   c-0.09-0.13-0.17-0.26-0.26-0.4c-0.19-0.29-0.27-0.3-0.16-0.66c-0.86-0.64-1.84-1.43-1.99-2.47c0.2-0.5,0.4-1,0.59-1.49   c0.68,0.34,2.52,0.73,3.08,0.17c0.77,0.35,1.55,0.7,2.32,1.05c1.32,0.76,2.27,2.38,3.14,3.57c0.71,0.57,1.42,1.13,2.13,1.7   c0.63,0.49,1.26,0.98,1.9,1.48c1.62,0.31,2.73,0.69,4.09,1.59c1.48,0.98,2.18,0.84,3.87,0.7c0.42-0.03,1.47-0.12,1.57-0.6   c0.34-1.06,0.68-2.13,1.01-3.19c0.81-0.05,2.14,1.21,3.37,0.44c0.99,0.23-3.36-1.42-4.18-1.14c-1.11,0.4-0.77,0.72-1.72,1.35   c-0.68-0.18-1.76-0.43-2.11-1.05c-0.6,0.13-1.16,0.09-1.48,0.63c-0.07-0.02-0.13-0.04-0.2-0.06c-0.96-0.3-2.13-1.39-3.17-1.21   c-1.58-1.5-3.39-2.54-5.06-4.21c-0.45-0.46-1.2-1.49-1.9-1.26c-0.64-0.48-1.27-0.96-1.91-1.44c-0.81-0.29-1.74,0.22-2.52-0.25   c-0.4,0.23-0.93,0.39-1.05,0.84c-0.26-0.11-0.51-0.22-0.77-0.34c-0.56-0.15-1.43-0.93-1.19-1.49c0.72-1.64,2.32-1.07,2.69-2.67   c0.22-1.21-0.97-3.37-1.13-4.79c-0.06-0.13-0.12-0.27-0.18-0.4c0.35-0.68,0.69-1.37,1.04-2.05c1.28-0.79,2.73-1.05,4.18-1.11   c0.39-1.22,0.97-2.16,2.32-1.69c0.35-0.07,0.7-0.14,1.05-0.21c1.23-1.02,2.42-1.83,3.97-2.36c0.91,0.17,1.58,1.39,2.5,0.79   c0.98-0.65,1.47-1.45,1.75-2.64c0.42-0.28,0.84-0.56,1.26-0.84c-0.14-0.14-0.27-0.28-0.41-0.42c-0.1-0.06-0.2-0.12-0.3-0.18   c-0.89,0.4-2.14,1.63-1.82,2.71c-0.44,0.17-0.89,0.19-1.05,0.63c-0.08-0.05-0.17-0.1-0.25-0.15c-1.63-0.95-5.82-2.19-7.13-0.48   c-0.47,0.17-0.97,0.22-1.26,0.63c-0.86,0.11-4.04,0.64-3.79,1.9c-0.64,0.36-1.71,0.56-2.11,0.84c-0.8-0.23-1.41-0.35-2.11-0.84   c-0.28-0.28-0.56-0.56-0.84-0.84c-0.12-0.91-0.16-1.12-0.63-1.9c-0.7-0.77-1.41-1.55-2.11-2.32c-0.42-0.07-0.84-0.14-1.26-0.21   c-0.7-0.49-1.41-0.98-2.11-1.48c-0.81,0.43-1.96,1.34-2.62,1.03c-0.75-0.31-3.71-1.25-4-1.83c-0.46-0.88-0.9-1.56-0.97-2.57   c-0.55-0.65-1.59-1.83-1.05-2.74c0.05-0.92,0.34-2.02,0.84-2.95c0.21-0.35,0.42-0.7,0.63-1.05c1.62-1.05,3.23-2.11,4.85-3.16   c-0.86-0.96-1.85-1.94-1.69-3.37c-0.16,0.18-0.32,0.36-0.47,0.55c-0.31,0.41-0.48,2.4-0.85,2.4c-0.26,0.07-0.52,0.14-0.78,0.21   c-0.51-0.66-0.61-1.12-0.84-1.9c-0.21,0.49-0.42,0.98-0.63,1.48c-0.07-0.02-0.13-0.04-0.2-0.05c-0.29-0.05-0.57-0.11-0.86-0.16   c0.08-0.46,0.09-2.11-0.42-1.75c-0.35,0.25-0.23-0.02-0.22,0.7c-0.91,0.8-1.22,1.6-2.32,1.48c0.09,0.11,0.18,0.22,0.27,0.32   c0.05,0.17,0.1,0.35,0.15,0.52c-0.54,0.05-0.77-0.09-1.05,0.42c-0.43-0.11-0.64,0.02-0.84-0.42c-0.01,0.07-0.01,0.15-0.02,0.22   c0.01,0.35,0.01,0.69,0.02,1.04c-0.38,0.03-0.79-0.38-0.92,0.04c-0.04,0.27-0.09,0.54-0.13,0.8c-0.46,0.57-1.64,1.44-1.69,2.11   c-0.87,0.2-1.97,1.02-2.95,0.63c-0.3,0.37-0.58,0.57-0.63,1.05c-0.58-0.12-1.79-0.14-2.11-0.63c-0.23,0.92,0.12,1.45-0.69,1.76   c-0.23,0.08-0.47,0.17-0.7,0.25c-1.79-1.16-3.86-0.88-5.85-1.84c-0.58-0.28-1.32-0.26-1.66-0.9c-0.14-0.28-0.54-0.83-0.51-0.92   c0.87-1.83,1.37-3.73,1.4-5.72c-0.28-1.4-0.56-2.81-0.84-4.21C108.54,360.17,108.54,360.38,108.54,360.59z"/>
        <linearGradient id="SVGID_2_" gradientUnits="userSpaceOnUse" x1="238.8796" y1="-19.2595" x2="240.2809" y2="139.0025">
            <stop offset="0" style="stop-color:#FFFFFF;stop-opacity:0"/>
            <stop offset="1" style="stop-color:#2E76BC"/>
        </linearGradient>
        <path fill-rule="evenodd" clip-rule="evenodd" fill="url(#SVGID_2_)" d="M0,58.03V0h478.61v23.57l0.11,0.03   c-1.3,2.61-3.63,4.8-6.12,6.27c-2.52,1.49-5.28,2.15-7.59,4.05c-2.16,1.78-4.72,3.15-7.21,4.6c-1.26,0.73-2.62,1.65-3.95,2.16   c-1.48,0.56-3.07,0.35-4.59,1.11c-3.11,1.54-5.19,3.77-8.9,3.95c-3.34,0.16-6.16-0.52-9.48-0.84c-3.17-0.31-5.49-0.73-7.85-3.11   c-1.76-1.77-3.35-5.47-5.84-6.39c-1.44-0.53-3.45,0.34-4.86,0.43c-1.9,0.12-2.99-0.33-4.64-1.05c0,0-0.09,0.36-0.11,0.21   c-0.98-0.49-1.97-0.98-2.95-1.48c-0.77,0.63-0.91,0.11-1.69,0.74c-0.84,0.21-1.84,0.83-2.74,1.58c-0.56,0.56-1.12,1.12-1.69,1.69   c-0.84,0.63-0.84,1.16-1.69,1.79c-0.65,0.66-1.66,1.34-2.32,2c-0.68,0.39-1.01,0.87-1.69,1.26c-0.28,0.28-1.41,0.56-1.69,0.84   c-0.49,0.14-0.67,0.7-1.16,0.84c-1.3,0.84-1.93,1.06-3.37,1.37c-1.74,0.37-3.79,0.32-5.27,0.74c-0.42,0.32-1.71,0.36-2.42,0.63   c-0.99,0.37-1.79,0.53-2.32,0.74l-0.11-0.11c0,0.36-2.04,0.74-2.42,0.74c-0.58,0.58-1.86,1.15-3.27,1.79   c-0.63-0.11-2.35,0.66-3.06,0.63c-0.18,0.82-1.59,1.31-1.79,1.37c-1.02,0-2.14-0.06-3.06,0.32c-1.69-0.42-2.42-0.21-3.58-0.11   c-0.45,0.04-1.48-0.58-1.9-0.32c-2.2-0.93-2.32-2-4.43-2.21c-1.16-0.21-2.32-0.03-3.79-0.11c-2.11-0.11-4.54,0.81-6.95,0.54   c-0.99-0.11-1.97-0.22-2.96-0.33c-1.11,0.09-1.88,0.29-2.98-0.11c-1.2-0.43-1.55-0.94-2.5-2c-0.13-0.04-0.88,0.54-1.01,0.5   c-0.43,0.25-1.31,0.53-1.42,0.87l-0.05,0.21c-0.58,0-1.49-0.03-2.16,0.11c-1.21,0.84-2.79,2.11-4.48,3.42   c-0.8,0.63-3.95,3.9-4.74,4.53c-1.21,0.55-2.05,1.42-2.95,1.95c-0.63,0.7-2.05,1.26-2.9,1.69c-0.77,0-2.3,0.12-2.85-0.42   c-1.11,0.11-3.22,0.05-3.74,0.63c-1.05,0.16-1.63,0.11-2.74,0.74c-0.51,0.29-1.26,0.58-1.9,1.21c-0.56,1.27-1.79-1.63-2.48,0.58   c-0.43-0.47-0.65-0.67-1.07-1.14c-1-0.64-1.56,0.56-1.75-1.27c-1.19,0.09-1.92,1.25-2.98,2.04c0,0.56,0.12,1.44-0.47,1.48   c-1.58,0.15-5.16,1-5.22,2.9c-2.44,0.81-4.5,2.47-6.11,4.43c-1.23,1.5-3.16,3.06-4.43,4c-1.97,1.48-3.57,3.11-5.53,4.58   c-0.21,0.37-2.48,1.93-2.58,2.11l-0.21,0.05c-3.69,3.32-5.77,2.4-7.8,3.06c-1.07,0.18-3.32,0.47-4.53,0.74   c-1.09-0.47-3.56-1.07-4.19-1.67c-1.55-0.03-3.96-2.14-4.13-2.6c-0.4-1.1-0.88-1.77-1.59-2.68c-0.29-0.49-0.58-0.97-0.86-1.46   c-0.75-0.62-2.19-1.28-2.19-1.71c-0.15-0.02-1.03,0.18-1.18,0.16c-0.89-0.03-1.77-0.06-2.66-0.09c-1.35,0.69-3.1,2-4.7,1.61   c-0.53,0.18-0.7,0.36-1.26,0.21c-1.07,1.73-2.13,3.46-3.2,5.2c-0.69,0.09-1.38,0.19-2.07,0.28c-0.7,1.05-1.41,2.11-2.11,3.16   c-0.42,0.28-0.84,0.56-1.26,0.84c-0.64,0.2-1.28,0.41-1.92,0.61c-2.6,2.22-4.63,4.79-7.9,6.05c-0.96,1.07-1.03,1.31-2.23,1.49   c-0.51,1.11-1.61,0.9-2.82,1.56c-1.67,0.59-3.35,1.19-5.02,1.78c-1.24,0.11-4.28-0.53-4.56-0.95c-0.84,0.21-1.69,0.42-2.53,0.63   c-0.94,0.03-3.92,0.3-4.64,0.84c-0.86-0.3-2.01-0.7-2.53-1.48c-0.42-0.07-0.84-0.14-1.26-0.21c-0.7,0.21-1.41,0.41-2.11,0.62   c-0.73-0.05-2.5-0.31-2.94,0.28l-0.4,0.54c-0.08-0.05-2.24,0.4-2.32,0.35c-2.04,0-2.03,0.94-4,0.88c-0.53-0.91-3.62-1.51-4.92-1.51   c-1.04,0.99-4.52,1.17-5.57-0.39c-0.39-0.59-0.4-1.33-0.72-2.03c-0.25-0.7-0.6-0.98-1.05-1.48c-0.04,0.08-2.21,0.75-2.53,0.42   c-0.12,0.25-1.14,0.49-1.01,1.04c0.27,1.01,0.35,0.94,0.27,1.98c-0.63-0.21-0.84,1.05-1.48,0.84c-0.77,1.83-1.93,2.04-2.88,2.32   c-0.14,0.12-1.05,0-1.86-0.28c-1.55-0.41-2.61-1.32-4.04-1.75c-0.72-0.19-1.44-0.38-2.17-0.57c-0.46,0.14-1.09,0-1.55,0.14   c-1.9-1.29-3.26-2.6-5.02-3.99c-1.02-0.78-2.04-1.56-3.06-2.34c0.05-0.48-0.25-0.72-0.55-1.07l-0.71-0.11   c-0.49-0.79-2.74-1.82-3.55-1.69c-0.47-0.18-1.41-1.13-1.72-1.54c-0.28-1.41-2.39-1.55-3.55-1.62c-0.77-0.05-2.33-0.28-2.95,0.21   c-4.3-0.4-8.04,1.71-12.42,1.91c-2.04,0.21-4.08,0.41-6.13,0.62c-1.14-0.14-2.97-0.81-4-0.21c-0.63-0.14-1.26-0.28-1.9-0.42   c-0.74-0.46-1.48-0.93-2.23-1.39c-0.78-0.31-1.25-0.37-1.25-0.37c-0.27-0.16-1.33-0.05-1.67-0.1c-0.17-0.03-0.36-0.04-0.54-0.04   c-0.17-0.13-0.34-0.25-0.51-0.38c-0.11-0.08-0.22-0.17-0.34-0.25c0-0.25-0.17-0.49-0.41-0.72c-0.13-0.12-0.29-0.24-0.45-0.35   c-0.38-0.26-0.79-0.47-1.04-0.62c-0.17,0.1-0.64,0.1-1.06,0.12c-0.47,0.02-0.81-0.16-0.83-0.39c-0.02-0.25-0.01-0.5-0.01-0.79   c-0.3,0-0.54-0.07-0.75-0.16c-0.35-0.15-0.62-0.36-1.01-0.35c-0.12,0-0.24,0.01-0.36,0.02c-0.16,0.01-0.33,0.04-0.49,0.06   c-0.16,0.02-0.33,0.05-0.49,0.08c-0.21,0.04-0.43,0.07-0.64,0.1c-0.16,0.02-0.33,0.04-0.49,0.05c-0.21,0.01-0.42,0.01-0.62-0.01   c-0.21-0.02-0.52-0.07-0.88-0.12c-0.16-0.02-0.32-0.04-0.49-0.07c-0.24-0.03-0.49-0.05-0.73-0.07c-0.18-0.01-0.35-0.01-0.51-0.01   c-0.22,0.01-0.42,0.03-0.59,0.07c-0.16,0.04-0.3,0.11-0.39,0.2c-0.35-0.08-0.73-0.15-1.11-0.19l-0.26-0.66   c-0.02-0.22,0.03-0.38-0.04-0.6c-1.39-0.57-2.96-0.29-4.35-0.92c-1.73-0.79-2.36-1.23-4.47-1.22c-3.84,0-6.38-0.93-9.91-1.89   c-3.02-0.83-6.29-0.89-9.06-2.11c-2.95-1.3-5.61-1.71-8.86-2.54c-3.05-0.77-6.36-1.49-9.48-2.11c-3.37-0.67-6.47,0.61-9.91,0.43   c-3.29-0.18-6.81-0.53-10.11-0.85c-2.97-0.3-7.08,0.72-8.91-2.04c-1.37-2.06-1.28-4.81-2.69-7.01c-0.61-0.95-1.03-2.29-2.05-3   C3,58.56,1.54,58.96,0.53,58.17L0,58.03z"/>
        <path fill-rule="evenodd" clip-rule="evenodd" fill="none" stroke="#000000" stroke-width="0.25" stroke-miterlimit="10" d="   M397.95,143.06c1.55,2.08,0.26,4.43-0.86,6.41c-1.4,2.49-1.78,3.59-1.37,6.57c0.63,4.61,3.66,8.55,7.86,10.8   c9.18,4.93,20.79,3.34,31.04,4.37c4.62,0.47,9.95,0.4,14.15,2.27c5.73,2.54,5.01,7.03,6.15,12.19c1.04,4.72,5.99,7.51,9.81,9.86   c4.84,2.99,7.46,5.07,13.52,5.07c0.21,0,0.42,0,0.63,0"/>
        <path fill-rule="evenodd" clip-rule="evenodd" fill="none" stroke="#000000" stroke-width="0.25" stroke-miterlimit="10" d="   M339.62,439.41c2.8,1.82,5.12,3.11,8.22,4.27c3.05,1.13,5.22,3.31,7.63,5.38c4.63,3.96,8.94,8.16,14.55,10.95   c2.83,1.41,5.34,3.74,8.16,5.29c3.67,2.02,7.36,1.14,11.38,1.72c5.36,0.78,12.82,3.03,17.02,6.79c1.24,1.11,1.48,2.64,2.41,3.9   c1.06,1.42,2.61,1.88,3.32,3.64c0.61,1.51,0.34,3.32,0.84,4.84c0.51,1.55,1.35,2.98,1.9,4.44c1.19,3.18,4.64,2.93,7.38,4.2   c1.4,0.65,2.69,1.62,4.21,2.18c1.69,0.62,3.47,0.08,5.27,0.37c1.73,0.27,7.74,3.2,8.64,2.53"/>
        <path fill-rule="evenodd" clip-rule="evenodd" fill="none" stroke="#000000" stroke-width="0.25" stroke-miterlimit="10" d="   M283.99,440.26c-0.47,4.08-1.28,8.11-1.7,12.21c-0.41,4.04-0.74,8.77-2.77,12.41c-3.54,1.35-6.42-0.2-9.49-1.39   c-3.24-1.26-6.67-1.2-10.28-1.52c-2.38-0.21-2.52-0.38-3.79,1.26c-0.77,1-1.35,2.5-2.47,3.21c-3.37,2.13-5.97-2.37-9.54-1.16   c-1.12,0.38-2.66,2.04-3.63,2.74c-1.36,0.99-2.6,2.12-4,2.97c-2.68,1.62-5.21,3.13-7.91,4.74c-4.07,2.42-12.13,9.22-16.53,6.05   c-2.85-2.05-4.79-3.16-8.17-4.05c-2.98-0.78-5.8-3.62-8.85-3.75c-6.47-0.28-9.18,6.98-13.22,10.54c-1,0.88-1.94,1.33-2.78,2.36   c-0.82,1.01-1.41,2-2.37,2.9c-1.97,1.83-3.16,5.33-5.44,6.75"/>
        <path fill-rule="evenodd" clip-rule="evenodd" fill="none" stroke="#000000" stroke-width="0.25" stroke-miterlimit="10" d="   M58.9,265.55c-3.45,0.01-5.72,1.98-8.85,2.95c-2.09,0.64-2.42,1.08-3.96,2.75c-1.03,1.11-1.93,1.91-3.42,2.47   c-3.04,1.13-6.7-1.43-9.91-0.17c-3.35,1.31-4,5.47-5.31,8.18c-1.32,2.73-1.29,6.21-2.22,9.16c-1.04,3.3-2.09,6.64-3.36,9.86   c-1.15,2.92-1.73,5.68-2.8,8.42c-1.18,3.04-2.28,5.83-3.1,8.92c-0.49,1.84-0.4,3.96-1.38,5.62c-0.92,1.56-2.28,3.47-3.47,4.86   c-1.19,1.4-2.93,1.99-4.47,2.79c-1.99,1.03-3.78,2.16-6.12,1.84"/>
        <text transform="matrix(0.193 -0.9812 0.9812 0.193 16.7588 199.2527)" font-family="'MyriadPro-Regular'" font-size="10.116">ORDU</text>
        <text transform="matrix(0.6932 0.7207 -0.7207 0.6932 48.1692 431.2458)" font-family="'MyriadPro-Regular'" font-size="10.116">SİVAS</text>
        <text transform="matrix(1 0 0 1 305.4827 487.887)" font-family="'MyriadPro-Regular'" font-size="10.116">ERZİNCAN</text>
        <text transform="matrix(0.1344 0.9909 -0.9909 0.1344 425.281 258.678)" font-family="'MyriadPro-Regular'" font-size="10.116">GÜMÜŞHANE</text>
        <text transform="matrix(1 0 0 1 427.0857 110.2227)" font-family="'MyriadPro-Regular'" font-size="10.116">TRABZON</text>
    </g>
    <g id="__Harita" display="none">
        <g id="__Piraziz">
            <path d="    M56.48,154.06c0-0.07,0-0.14,0-0.21c-0.17-0.13-0.35-0.25-0.53-0.37c-0.22-0.15-0.45-0.29-0.67-0.44    c-0.19-0.12-0.38-0.23-0.56-0.35c-0.16-0.1-0.32-0.2-0.47-0.29c-0.14-0.09-0.29-0.18-0.43-0.27c-0.15-0.1-0.3-0.2-0.45-0.3    c-0.17-0.12-0.34-0.23-0.5-0.36c-0.13-0.1-0.27-0.2-0.4-0.3c-0.3-0.24-0.59-0.5-0.87-0.78c-0.28-0.29-0.55-0.61-0.8-0.96    c-0.11-0.16-0.22-0.44-0.32-0.8c-0.09-0.34-0.18-0.75-0.24-1.17c-0.03-0.21-0.06-0.43-0.08-0.64c-0.03-0.29-0.04-0.58-0.04-0.84    c0-0.55-0.13-0.78,0.05-0.98c-0.18-0.18-0.12-0.58-0.23-0.76c-0.12-0.2-0.21-0.41-0.27-0.62c-0.06-0.2-0.09-0.42-0.11-0.64    c-0.02-0.28-0.03-0.59-0.03-0.92c-0.09-0.09-0.17-0.29-0.24-0.55c-0.05-0.2-0.1-0.45-0.14-0.72c-0.04-0.26-0.08-0.54-0.11-0.83    c-0.02-0.14-0.03-0.28-0.04-0.42c-0.03-0.25-0.05-0.51-0.07-0.77c-0.01-0.15-0.02-0.29-0.04-0.43c-0.03-0.33-0.05-0.64-0.08-0.92    c-0.04-0.46-0.08-0.83-0.12-1.06c-0.06-0.3-0.13-0.64-0.2-1.01c-0.06-0.33-0.13-0.68-0.18-1.03c-0.07-0.49-0.12-0.99-0.12-1.47    c0-0.19,0.01-0.38,0.03-0.57c0.04-0.36,0.12-0.69,0.25-0.98c-0.02-0.16-0.04-0.33-0.06-0.49c-0.05-0.4-0.1-0.8-0.15-1.19    c0.22-0.57,0.43-1.15,0.65-1.72c0.19-0.51,0.38-1.02,0.57-1.52c0.19-0.51,0.39-1.03,0.58-1.54c0.24-0.65,0.49-1.3,0.73-1.96    c0.25-0.27,0.48-0.54,0.72-0.81c0.14-0.17,0.29-0.33,0.43-0.5c0.14-0.16,0.28-0.33,0.42-0.49c0.1-0.12,0.2-0.24,0.3-0.35    c0.27-0.31,0.54-0.62,0.82-0.92c0.22-0.24,0.45-0.48,0.69-0.72c0.14-0.23,0.27-0.45,0.41-0.68c0.15-0.25,0.3-0.5,0.45-0.74    c0.14-0.23,0.27-0.45,0.41-0.68c0.25-0.35,0.47-0.71,0.69-1.06c0.11-0.18,0.22-0.36,0.34-0.54c0.14-0.22,0.29-0.43,0.45-0.64    c0.19-0.25,0.39-0.48,0.63-0.7c0-0.25,0.05-0.46,0.14-0.63c0.14-0.27,0.36-0.47,0.6-0.65c0.19-0.14,0.39-0.28,0.57-0.44    c0.14-0.11,0.26-0.24,0.37-0.38c0.04-0.15,0.07-0.3,0.11-0.45c0.03-0.13,0.07-0.26,0.1-0.4c0.14-0.12,0.28-0.24,0.41-0.36    c0.18-0.15,0.35-0.31,0.53-0.46c0.14-0.12,0.27-0.24,0.41-0.36c0.11-0.1,0.23-0.2,0.34-0.3c0.18-0.15,0.35-0.31,0.53-0.46    c0.15-0.13,0.29-0.26,0.44-0.38c0.24-0.21,0.48-0.42,0.72-0.63c0.16-0.04,0.32-0.08,0.48-0.11c0.38-0.09,0.75-0.18,1.13-0.27    c0.4-0.09,0.8-0.19,1.19-0.28c0.28-0.07,0.56-0.13,0.85-0.2c0.26-0.06,0.52-0.12,0.78-0.19c0.34-0.1,0.63-0.27,0.9-0.49    c0.26-0.2,0.49-0.45,0.72-0.7c0.3-0.33,0.58-0.69,0.89-1.01c0.21-0.21,0.42-0.41,0.66-0.57c0.14-0.1,0.3-0.18,0.46-0.25    c0.18-0.07,0.38-0.13,0.59-0.15c0.28-0.21,0.56-0.42,0.84-0.63c0.15-0.15,0.17-0.34,0.21-0.51c0.05-0.19,0.12-0.33,0.42-0.33    c0.03-0.11,0.05-0.27,0.08-0.44c0.03-0.17,0.06-0.36,0.1-0.56c0.04-0.22,0.09-0.45,0.16-0.67c0.12-0.4,0.28-0.75,0.51-0.86    c-0.04-0.26-0.08-0.53-0.11-0.79c-0.06-0.48-0.1-0.93-0.1-1.32c0.14-0.24,0.27-0.47,0.41-0.71c0.15-0.25,0.29-0.51,0.44-0.76    c0.27-0.2,0.54-0.39,0.81-0.59c0.25-0.18,0.49-0.36,0.74-0.54c0.26-0.19,0.51-0.37,0.77-0.56c0.08-0.11,0.15-0.21,0.23-0.32    c0.08-0.12,0.16-0.23,0.25-0.35c0.08-0.11,0.16-0.23,0.24-0.34c0.11-0.16,0.22-0.31,0.34-0.47c0-0.18,0-0.37,0.01-0.56    c0.03-0.67,0.11-1.38,0.25-2.11c0.08-0.42,0.18-0.84,0.3-1.26c0.13-0.43,0.28-0.86,0.45-1.28c0.06-0.14,0.12-0.27,0.18-0.4    c0.09-0.18,0.18-0.36,0.27-0.53c0.15-0.27,0.31-0.52,0.48-0.77c0.12-0.17,0.25-0.34,0.38-0.5c0.13-0.15,0.27-0.3,0.41-0.44    c0.09-0.09,0.18-0.17,0.27-0.25c0.08-0.07,0.16-0.13,0.24-0.2c0.06-0.05,0.12-0.09,0.18-0.13c0.05-0.03,0.09-0.06,0.14-0.09    c0.19-0.12,0.38-0.24,0.59-0.34c0.15-0.07,0.3-0.14,0.46-0.2c0.22-0.08,0.45-0.14,0.68-0.17c0.38-0.06,0.77-0.05,1.16-0.02    c0.38,0.04,0.76,0.11,1.11,0.19c0.09-0.09,0.22-0.15,0.39-0.2c0.17-0.04,0.37-0.07,0.59-0.07c0.16,0,0.33,0,0.51,0.01    c0.24,0.01,0.49,0.04,0.73,0.07c0.17,0.02,0.33,0.04,0.49,0.07c0.35,0.05,0.67,0.1,0.88,0.12c0.2,0.02,0.41,0.02,0.62,0.01    c0.16-0.01,0.32-0.03,0.49-0.05c0.21-0.03,0.42-0.06,0.64-0.1c0.16-0.03,0.33-0.05,0.49-0.08c0.16-0.02,0.33-0.05,0.49-0.06    c0.12-0.01,0.24-0.02,0.36-0.02c0.39-0.01,0.66,0.2,1.01,0.35c0.21,0.09,0.44,0.17,0.75,0.16c0,0.28-0.01,0.54,0.01,0.79    c0.02,0.23,0.08,0.45,0.2,0.69c-0.24-0.24,0.15-0.28,0.63-0.3c0.41-0.02,0.89-0.02,1.06-0.12c0.25,0.14,0.66,0.36,1.04,0.62    c0.16,0.11,0.32,0.23,0.45,0.35c0.24,0.22,0.41,0.47,0.41,0.72c0.11,0.08,0.23,0.17,0.34,0.25c0.17,0.13,0.34,0.25,0.51,0.38    c0.18,0,0.36,0.01,0.54,0.04c0.34,0.05,1.4-0.06,1.67,0.1l-0.13,0.85c0.08,0.16,0.16,0.32,0.24,0.49    c-0.21,0.84-0.42,1.69-0.63,2.53c0.07,0.7,0.14,1.41,0.21,2.11c-0.14,0.49-0.28,0.98-0.42,1.48c-0.21,1.09-1.69,1.68-1.69,2.74    c-0.91,0.21-1.83,0.42-2.74,0.63c-1.07,1.02-2.15,2.05-3.22,3.07c-0.95,0.71-3.25,2.45-3.6,3.48c-0.16,0.54-0.16,1.28-0.55,1.67    c0.35,1.48,0.7,2.95,1.05,4.43c0.49,1.37,0.02,2.38,0.81,3.81c0.38,0.68,0.63,2.23,1.3,2.52c0.06,1.18,0.11,2.36,0.17,3.54    c0.15,0.72,0.31,1.44,0.46,2.15c-0.4,2.16-2.36,4.73-4,6.11c-0.78,0.66-1.96,0.96-2.11,2.11c-1.25,0.8-2.59,1.56-2.74,3.16    c-0.84,0.49-1.69,0.98-2.53,1.48c-1.05-0.07-3.09,0.45-3.79-0.21c-0.42,0.56-0.84,1.12-1.26,1.69c-0.57,0.53-1.41,0.94-1.69,1.69    c-1.39,0.6-2.77,1.2-4.16,1.8c-0.58,0.24-1.6,0.45-1.95,0.94c-0.84,0-3.32-0.12-3.91,0.29c-1.7,1.44-1.51,2.97-2,4.98    c-0.49,0.99-0.98,1.99-1.48,2.98c-0.36,0.72-1.63,1.99-1.48,2.71c-0.56,0.47-1.17,1.25-1.9,1.26L56.48,154.06z"/>
            <circle cx="86.41" cy="86.09" r="1.586"/>
        </g>
        <rect id="__cer" x="0" y="0" fill="#000000" opacity="0" width="479" height="500"/>
        <g id="__Bulancak">
            <path d="    M47,188.83c1.05,2.11,2.1,4.22,3.15,6.33c1.28,1.72,2.33,4.12,2.33,6.32c1.14,1.97,2.01,3.98,2.79,6.09    c0.2,1.48,0.39,2.97,0.59,4.45c0,0.91,0,1.83,0,2.74c0.16,0.64,0.33,1.28,0.49,1.92c0.26,1.89,0.52,3.78,0.78,5.67    c0.22,1.19,0.43,2.37,0.65,3.56c0.02,0.7,0.05,1.41,0.07,2.11c1.11,2.17,2.56,3.66,4.24,5.38c0.67,0.67,1.33,1.35,2,2.02    c0.83,0.65,1.82,1.12,2.35,1.97c0.77,1.21,1.84,1.87,1.78,3.43c0.08,0.16,0.15,0.32,0.23,0.48c-0.6,1.94-3.41,5.28-4.99,6.55    c-0.42,0.56-0.84,1.12-1.26,1.69c0,0.61-0.33,1.04-0.84,1.26c-0.55,2.94-1.62,5.73-1.73,8.79c-0.74,1.2,0.01,3.76-0.38,5.12    c0.34,0.39,0.45,0.26,0.21,0.84c0.27,0.03,0.55,0.05,0.82,0.08c5.56,0.68,11.11,1.35,16.67,2.03c1.2,0.41,4.4,1.58,5.43,1.01    l0.93,0.11c-0.28-1.49,2.96-4.46,3.96-5.78c1.52-2.27,3.05-4.54,4.57-6.8c0.57-0.68,1.14-1.36,1.71-2.04    c0.51-1.12,1.01-2.24,1.52-3.35c0.63-1.26,1.26-2.53,1.9-3.79c0.6-2.26,0.96-4.57,1.26-6.95c0.56-0.39,0.75-1.48,1.05-2.11    c1.33-1.76,2.67-3.51,4-5.27c0.2-1.13,0.39-2.26,0.59-3.39c0.09-0.7,0.17-1.39,0.26-2.09c0.66-2.85,1.08-6.62,3.56-8.42    c0.54-0.75,1.08-1.51,1.63-2.26c1.22-2.14,2.44-4.29,3.66-6.43c2.21-2.5,3.94-2.8,6.96-3.75c0.64-0.56,1.27-1.12,1.91-1.68    c1.47-1.51,2.68-3.44,4.73-4.57l-0.53-0.07c-0.59-0.17-0.92-0.18-1.23-0.76c-0.59-1.18-0.38-2.42-0.24-3.66    c0.27-2.56,0.81-5.1,1.48-7.59c-0.21-0.63-0.42-1.26-0.63-1.9c-0.35-0.59-0.69-1.19-1.04-1.78c0.06-0.23,0.12-0.46,0.18-0.69    c0.48-0.83,1.01-1.04,1.66-1.74c0.83-0.08,2.27-1.82,2.25-2.6c-0.01-0.43,0.14-0.77,0.11-1.4c-0.66-1.19-0.93-2.44-1.05-3.79    c0-2.46,0-4.92,0-7.38c-0.07-0.84-0.14-1.69-0.21-2.53c0.06-2.39,0.11-4.78,0.17-7.17c0.15-0.77,0.31-1.54,0.46-2.31    c0.24-1.28,0.49-2.56,0.73-3.84c0.59-1.6,1.19-3.21,1.78-4.81c0.16-0.66,0.69-1.74,0.86-2.3c-0.1-1.12,0.21-2.59-1.23-2.49    c-1.16,0.17-2,0.71-3.16,0.87c-0.37-0.48-0.91-0.7-1.51-1.76c-0.32-0.86-0.64-1.71-0.96-2.57c-0.53-1.58-1.06-3.17-1.59-4.75    c-0.19-4.34,2.51-8.67,5.46-11.62c1.63-2.04,3.26-4.09,4.89-6.13c0.21-1.19,0.42-2.39,0.63-3.58c0.21-0.94,1.69-2.13,1.48-2.74    c1.11-0.75,3.74-1.59,3.27-3.16c0-0.98-0.77-1.55-1.33-2.18c-0.36-0.95,0.98-2.39,1.26-3.58c0.89-1.37,0.17-0.81,0.33-2.46    c0.09-0.84,0.18-1.68,0.27-2.52c-0.04-0.48-0.08-0.95-0.12-1.43c0.45-0.71,1.14-0.61,1.35-1.31c-0.49-0.79-2.74-1.82-3.55-1.69    c-0.47-0.18-1.41-1.13-1.72-1.54c-0.28-1.41-2.39-1.55-3.55-1.62c-0.77-0.05-2.33-0.28-2.95,0.21c-4.3-0.4-8.04,1.71-12.42,1.91    c-2.04,0.21-4.08,0.41-6.13,0.62c-1.14-0.14-2.97-0.81-4-0.21c-0.63-0.14-1.26-0.28-1.9-0.42c-0.74-0.46-1.48-0.93-2.23-1.39    c-0.78-0.31-1.32-0.49-1.38,0.48c0.08,0.16,0.16,0.32,0.24,0.49c-0.21,0.84-0.42,1.69-0.63,2.53c0.07,0.7,0.14,1.41,0.21,2.11    c-0.14,0.49-0.28,0.98-0.42,1.48c-0.21,1.09-1.69,1.68-1.69,2.74c-0.91,0.21-1.83,0.42-2.74,0.63c-1.07,1.02-2.15,2.05-3.22,3.07    c-0.95,0.71-3.25,2.45-3.6,3.48c-0.16,0.54-0.16,1.28-0.55,1.67c0.35,1.48,0.7,2.95,1.05,4.43c0.49,1.37,0.02,2.38,0.81,3.81    c0.38,0.68,0.63,2.23,1.3,2.52c0.06,1.18,0.11,2.36,0.17,3.54c0.15,0.72,0.31,1.44,0.46,2.15c-0.4,2.16-2.36,4.73-4,6.11    c-0.78,0.66-1.96,0.96-2.11,2.11c-1.25,0.8-2.59,1.56-2.74,3.16c-0.84,0.49-1.69,0.98-2.53,1.48c-1.05-0.07-3.09,0.45-3.79-0.21    c-0.42,0.56-0.84,1.12-1.26,1.69c-0.57,0.53-1.41,0.94-1.69,1.69c-1.39,0.6-2.77,1.2-4.16,1.8c-0.58,0.24-1.6,0.45-1.95,0.94    c-0.84,0-3.32-0.12-3.91,0.29c-1.7,1.44-1.51,2.97-2,4.98c-0.49,0.99-0.98,1.99-1.48,2.98c-0.36,0.72-1.63,1.99-1.48,2.71    c-0.56,0.47-1.17,1.25-1.9,1.26c-0.64,1.64-1.51,3.01-2.39,4.46c-0.42,0.7-1.09,2.33-1.82,2.5c-0.21,0.7-0.42,1.41-0.63,2.11    c-0.91,0.91-1.83,1.83-2.74,2.74c-1.12,1.69-2.25,3.37-3.37,5.06c-0.59,1.42-1.17,2.83-1.76,4.25c-0.19,0.76-0.37,1.52-0.56,2.29    c0.35,2.04,0.7,4.07,1.05,6.11c0.53,0.79,0.91,1.2,1.05,2.11L47,188.83z"/>
            <circle cx="110.33" cy="93.15" r="1.586"/>
        </g>
        <g id="__Giresun">
            <path d="    M185.89,105.07c-1.22,1.68,0.68,3.06,1.59,4.2c0.31,0.39,0.62,1.06,1.13,0.95c0.75,0.88,1.13,1.48,2.11,2.11    c0.42,0.49,0.84,0.98,1.26,1.48c1.44,1.25,2.88,2.51,4.31,3.76c0.13,0.54,0.3,0.59,0.74,0.88c0.21,1.55,0.42,3.09,0.63,4.64    c0.8,1.59,1.85,2.85,2.83,4.28c0.8,0.76,1.6,1.52,2.4,2.28c0.65,1.19,1.3,2.37,1.94,3.56c0.09,3.02,0.17,6.04,0.26,9.06    c0.1,1.46,0.21,2.92,0.31,4.39c0.13,0.56,0.51,1.8,1.01,2.08c-0.05,0.12-3.27,4.66-4.11,7.45l0.04,0.42    c-0.61-0.48-2.88-0.98-4.04-1.69c-0.01-0.22-0.02-0.43-0.03-0.65c-0.06-1.05-0.12-2.1-0.18-3.15c0.07-0.63,0.14-1.26,0.21-1.9    c-0.07-0.42-0.14-0.84-0.21-1.26c-0.49-0.77-0.98-1.55-1.48-2.32c-0.76-0.48-2.25-1.61-3.16-1.05c-0.67-0.53-1.98-1.7-2.31-1.67    c-1.44,0.19-3.08,0.2-3.39,1.83c0,1.69,0.03,4.42-1.57,4.91c-1.9,0.57-4.18-1.09-6.06-1.48c-0.17-0.22-2.16-0.36-2.19-0.34    c-1.6,1.3-2.62,2.93-3.53,4.77c-0.33,0.77-0.66,1.53-0.99,2.3c-0.19,1.3-0.88,3.81-1.34,4c-2.25,0.85-4.21,1.68-6.24,2.96    c-0.77,0.48-1.2,1.72-2.11,1.9c-0.56,0.84-1.12,1.69-1.69,2.53c-0.05,0.54,0.34,3.2-0.25,3.37c-1.76-0.63-3.49-0.2-5.27,0.14    c-0.88,0.38-1.81,1.07-2.24,1.87c-1.13,0.72-2.46,2.08-3.2,3.04c-0.45,0.58-1.08,1.59-1.69,1.9c-0.21,0.56-0.42,1.12-0.63,1.69    c-0.21,2.32-0.42,4.64-0.63,6.95c-0.14,0.7-0.28,1.41-0.42,2.11c-0.28,0.42-0.56,0.84-0.84,1.26c-2.47,1.23-4.94,2.47-7.41,3.7    c-0.57,0.42-1.14,0.84-1.71,1.26c-1.75,0.98-3.51,1.96-5.26,2.94c-1.41,0.72-2.65,1.39-3.95,2.28c-0.74,0.49-1.38,0.77-2.01,1.26    l-0.53-0.07c-0.59-0.17-0.92-0.18-1.23-0.76c-0.59-1.18-0.38-2.42-0.24-3.66c0.27-2.56,0.81-5.1,1.48-7.59    c-0.21-0.63-0.42-1.26-0.63-1.9c-0.35-0.59-0.69-1.19-1.04-1.78c0.06-0.23,0.12-0.46,0.18-0.69c0.48-0.83,1.01-1.04,1.66-1.74    c0.83-0.08,2.27-1.82,2.25-2.6c-0.01-0.43,0.14-0.77,0.11-1.4c-0.66-1.19-0.93-2.44-1.05-3.79c0-2.46,0-4.92,0-7.38    c-0.07-0.84-0.14-1.69-0.21-2.53c0.06-2.39,0.11-4.78,0.17-7.17c0.15-0.77,0.31-1.54,0.46-2.31c0.24-1.28,0.49-2.56,0.73-3.84    c0.59-1.6,1.19-3.21,1.78-4.81c0.16-0.66,0.69-1.74,0.86-2.3c-0.1-1.12,0.21-2.59-1.23-2.49c-1.16,0.17-2,0.71-3.16,0.87    c-0.37-0.48-0.91-0.7-1.51-1.76c-0.32-0.86-0.64-1.71-0.96-2.57c-0.53-1.58-1.06-3.17-1.59-4.75c-0.19-4.34,2.51-8.67,5.46-11.62    c1.63-2.04,3.26-4.09,4.89-6.13c0.21-1.19,0.42-2.39,0.63-3.58c0.21-0.94,1.69-2.13,1.48-2.74c1.11-0.75,3.74-1.59,3.27-3.16    c0-0.98-0.77-1.55-1.33-2.18c-0.36-0.95,0.98-2.39,1.26-3.58c0.89-1.37,0.17-0.81,0.33-2.46c0.09-0.84,0.18-1.68,0.27-2.52    c-0.04-0.48-0.08-0.95-0.12-1.43c0.45-0.71,1.14-0.61,1.35-1.31l0.71,0.11c0.3,0.35,0.6,0.6,0.55,1.07    c1.02,0.78,2.04,1.56,3.06,2.34c1.76,1.39,3.12,2.69,5.02,3.99c0.46-0.14,1.09,0,1.55-0.14c0.72,0.19,1.44,0.38,2.17,0.57    c1.43,0.42,2.49,1.33,4.04,1.75c0.81,0.28,1.72,0.4,1.86,0.28c0.95-0.28,2.11-0.49,2.88-2.32c0.63,0.21,0.84-1.05,1.48-0.84    c0.08-1.04,0-0.97-0.27-1.98c-0.13-0.55,0.88-0.79,1.01-1.04c0.32,0.32,2.49-0.34,2.53-0.42c0.46,0.49,0.81,0.77,1.05,1.48    c0.32,0.7,0.33,1.45,0.72,2.03c1.05,1.56,4.53,1.37,5.57,0.39c1.3,0,4.39,0.6,4.92,1.51c1.98,0.06,1.97-0.88,4-0.88    c0.08,0.05,2.24-0.4,2.32-0.35C185.5,99.86,184.82,103.63,185.89,105.07z"/>
            <circle cx="164.7" cy="100.11" r="1.586"/>
        </g>
        <g id="__Keşap">
            <path d="    M220.13,187.04c-0.35-2.04-1.44-5.02-1.79-7.06c0.04-2.72,1.25-4.92,1.79-7.59c0.28-1.36,0.63-2.53,0.42-3.58    c-0.84-0.95-4.38-1.52-4.64-1.37c-0.81-0.65-2.47-1.79-3.15-2.53c-0.46-0.46-0.92-0.91-1.38-1.37c-1.12-0.21-2.25-0.42-3.37-0.63    c-0.4-0.4-0.7-0.94-1.26-1.05c-0.38-0.53-0.76-1.07-1.14-1.6c-0.6-0.8-1.21-1.6-1.81-2.4c-0.32-0.63-0.84-0.74-1.44-1.26    l-0.04-0.42c0.84-2.79,4.05-7.33,4.11-7.45c-0.5-0.28-0.88-1.53-1.01-2.08c-0.1-1.46-0.21-2.92-0.31-4.39    c-0.09-3.02-0.17-6.04-0.26-9.06c-0.65-1.19-1.3-2.37-1.94-3.56c-0.8-0.76-1.6-1.52-2.4-2.28c-0.97-1.43-2.03-2.69-2.83-4.28    c-0.21-1.55-0.42-3.09-0.63-4.64c-0.44-0.28-0.61-0.34-0.74-0.88c-1.44-1.25-2.88-2.51-4.31-3.76c-0.42-0.49-0.84-0.98-1.26-1.48    c-0.98-0.63-1.36-1.23-2.11-2.11c-0.51,0.1-0.82-0.57-1.13-0.95c-0.91-1.14-2.81-2.52-1.59-4.2c-1.07-1.43-0.87-4.23,0-5.75    c0.44-0.58,2.21-0.32,2.94-0.28c0.7-0.21,1.41-0.41,2.11-0.62c0.42,0.07,0.84,0.14,1.26,0.21c0.52,0.77,1.67,1.17,2.53,1.48    c0.71-0.54,3.7-0.81,4.64-0.84c0.84-0.21,1.69-0.42,2.53-0.63c0.28,0.42,3.32,1.05,4.56,0.95c1.67-0.59,3.35-1.19,5.02-1.78    c1.21-0.66,2.31-0.44,2.82-1.56c1.2-0.18,1.26-0.42,2.23-1.49c3.27-1.26,5.3-3.83,7.9-6.05c0.64-0.2,1.28-0.41,1.92-0.61    c0.42-0.28,0.84-0.56,1.26-0.84c0.7-1.05,1.41-2.11,2.11-3.16c0.69-0.09,1.38-0.19,2.07-0.28c1.07-1.73,2.13-3.46,3.2-5.2    c0.57,0.15,0.74-0.03,1.26-0.21c1.6,0.39,3.35-0.92,4.7-1.61c0.89,0.03,1.77,0.06,2.66,0.09c0.15,0.02,1.03-0.18,1.18-0.16    c0,0.42,0.32,1.05-0.12,1.14c0.31,0.45-0.5,1.92-0.83,2.23c0.02,0.68,0.05,1.36,0.07,2.03c0.16,1.42,0.32,2.84,0.48,4.25    c0.31,1.21,0.61,2.41,0.92,3.62c-0.74,1.79-1.69,4.43-2,7.38c-0.56,0.63-1.23,0.63-1.79,1.26c0.04,0.64-0.53,1.32-0.84,1.9    c-0.14,0.49-0.28,0.98-0.42,1.48c0.45,0.41-0.18,1.42-0.42,1.9c-0.41,0.79-0.84,1.9-1.16,2.42c-1.39,1-2.76,2.22-3.92,3.42    c-0.27,0.44-0.55,0.88-0.82,1.32c-1.66,1.47-3.5,2.75-5.27,4.21c-0.35,0.91-0.7,1.83-1.05,2.74c-0.35,1.26-0.4,2.71-0.21,4    c1.19,1.05,2.39,2.11,3.58,3.16c0.07,0.7,0.14,1.41,0.21,2.11c-0.14,0.63-0.28,1.26-0.42,1.9c0.05,0.49,0.1,0.98,0.14,1.48    c0.23,0.91,0.47,1.83,0.7,2.74c-1.14,0.82-0.87,1.95-1.48,2.95c-0.91,2.25-1.72,5.02-2.63,7.27c-0.95,0.32-1.3,0.49-1.78,0.97    c-0.85,0.76-1.69,1.53-2.54,2.29c0.23,0.57-0.63,2.12-0.84,2.74c0,1.42,1.04,2.56,1.9,3.58c1.08,1.28,2.44,2.13,3.58,3.37    c0.63,0.7,1.26,1.41,1.9,2.11c-0.34,0.55,0.28,1.3,0.42,1.9c0.54,2.28,2.55,4.19,2.74,6.53c0.21,1.05,0.46,1.19,0.53,2.53    c-0.21,0.53-0.51,3.25-0.63,3.79c-0.31,1.96-0.85,3.52-1.16,5.48c-0.1,0.06-0.84,2.94-1.26,4.11c-0.53,0.01-1.66,0.06-1.89,0.48    c-2.22,1.21-5.73,3.88-8.12,3.42L220.13,187.04z"/>
            <circle cx="205.38" cy="101.58" r="1.586"/>
        </g>
        <g id="__Espiye">
            <path d="    M288.31,253.32c-0.56,0.02-1.11,0.04-1.67,0.05c-2.17-0.51-4.55-0.19-6.61-1.14c-0.61-0.13-1.22-0.26-1.83-0.39    c-1.01,0.09-1.91,0.25-2.9,0.03c-3.04-1.21-6.08-2.41-9.12-3.62c-1.62-0.5-3.24-1-4.86-1.5c-0.56-0.09-1.09,0.06-1.45-0.38    l-0.13-0.7c-0.8-1.22-0.35-2.29-0.29-3.67c0.22-2.13,0.45-4.26,0.67-6.39c0.03-1.68-0.47-3.46-2.15-4    c-2.94-0.19-5.58-2.17-8.59-1.88c-0.93,0.09-0.65,0.17-1.35,0.69c-1.3,0.28-1.34-1-1.39-1.15c-0.37-1.47-0.73-2.93-1.1-4.4    c0.24-0.75,0.48-1.5,0.72-2.25c0.87-1.75,2.09-3.22,2.51-5.16c0.05-0.97,0.09-1.95,0.14-2.92c-0.06-0.5-0.13-1-0.19-1.5    c0.56-1.89,1.11-3.78,1.67-5.67c0.16-0.73,0.19-3.04-0.21-3.58c0.16-0.89,1-3.27,0.63-4c0.35-0.98,0.7-1.97,1.05-2.95    c0.25-0.44,0.5-0.88,0.74-1.32c0.56-1.55,1.78-2.59,2.63-3.95c0.55-0.87,1.68-1.35,1.75-2.33c0.07-0.98,0.17-2.1-0.48-2.94    c-0.05-1.31-0.1-2.62-0.15-3.93c-0.06-0.72,0.16-2.11,0.79-2.34c0.69-0.21,3.75-1.32,3.83-1.73c0.19-0.95,1.19-2.88,1.01-3.6    c0.9-0.64,1.81-1.27,2.71-1.91c0.51-0.27,1.01-0.54,1.52-0.8c0.49-0.5,0.97-1,1.46-1.5c0.21-0.42,0.42-0.84,0.63-1.26    c0.28-1.19,0.56-2.39,0.84-3.58c0.07-0.63,0.14-1.26,0.21-1.9c-0.08-0.41-0.17-0.83-0.25-1.24c0-0.63,0.02-1.87-0.38-2.34    c0.07-0.7,0.14-1.41,0.21-2.11c0.48-0.7,1.92-2.26,1.62-3.14c-1.02-2.75-1.74-5.32-3.94-7.4c-0.97-0.91-1.65-2.63-2.95-3.16    c-0.93-1.29-2.62-3.78-4.21-4.21c-0.42-0.49-0.84-0.98-1.26-1.48c-0.28-0.49-0.56-0.98-0.84-1.48c-0.02-1.05-0.05-2.1-0.07-3.15    c-0.09-0.61-0.48-1.4-0.14-1.91c-0.53-1.02-2.07-3.98-1.69-5.06c-0.28-0.84-0.56-1.69-0.84-2.53c-1.79-1.58-3.58-3.16-5.37-4.74    c-0.29-0.47-2.16-2.35-2.64-2.42c-0.78-1.05-2.61-3.68-3.58-4.21c-0.54-0.3-0.64-0.93-1.26-1.05c-0.17-0.77-0.35-1.55-0.52-2.32    c0-0.41-0.01-0.83-0.01-1.24c-0.24-0.42-2.42-2.45-2.79-2.26l0.42,0.19l-0.15-0.17c0.32-0.53,0.75-1.64,1.16-2.42    c0.25-0.47,0.88-1.49,0.42-1.9c0.14-0.49,0.28-0.98,0.42-1.48c0.31-0.58,0.89-1.25,0.84-1.9c0.56-0.63,1.23-0.63,1.79-1.26    c0.32-2.95,1.26-5.58,2-7.38c-0.31-1.21-0.61-2.41-0.92-3.62c-0.16-1.42-0.32-2.84-0.48-4.25c-0.02-0.68-0.05-1.36-0.07-2.03    c0.33-0.31,1.14-1.79,0.83-2.23l0.36-0.05c0.41-1.01,1.2,0,1.95,0.62c0.29,0.48,0.58,0.97,0.86,1.46    c0.71,0.91,1.19,1.58,1.59,2.68c0.17,0.46,2.58,2.58,4.13,2.6c0.63,0.61,3.1,1.21,4.19,1.67c1.21-0.26,3.46-0.56,4.53-0.74    c2.03-0.66,4.11,0.26,7.8-3.06c0.26,0.58,0.53,0.95,0.74,1.48c1.22,1.01,2.34,1.66,3.37,2.95c0.58,0.58,4.26,0.29,5.25,0.35    c0.51,0.03,1.02,0.18,1.6,0.44c2.11,1.69,2.49,3.5,3.58,5.8c0.32,0.3,1.79,1.23,2.11,1.53c0.19,0.3-1.94-0.29-2.22-0.3    c-0.99-0.19-1.97-0.38-2.96-0.57c-1.33-0.17-2.18,0.81-2.96,1.8c-0.13,0.43-0.26,0.86-0.4,1.28c-0.21,1.05,0.39,1.76,1.18,2.36    c0.47,0.36,0.97,0.66,1.5,0.92c1.34,0.65,2.84,1.04,4.27,1.36c0.13,0.55,0.66,0.87,1.05,1.26c0.65,1.68,1.3,3.35,1.94,5.03    c1.75,1.4-0.13,2.89-1.51,3.31c-0.28,0.38-0.57,0.76-0.85,1.14c-0.35,1.4-0.7,2.81-1.05,4.21c0.14,0.63,0.28,1.26,0.42,1.9    c0.07,0.98,0.14,1.97,0.21,2.95c0.49,1.05,0.98,2.11,1.48,3.16c0.46,1.54,1.05,3.63,1.05,5.27c0.37,0.92,0.75,1.85,1.12,2.77    c0.89,3.96,0.83,6.12,4.14,9.04c1.05,0.96,0.39,2.83-0.2,3.68c-0.14,0.42-1.12,1.16-1.26,1.58c0.07,1.33,0.14,2.67,0.21,4    c0.47,1.97,1.24,3.31,2.74,4.64c1.19,0.63,2.39,1.26,3.58,1.9c0.56,0.91,1.12,1.83,1.69,2.74c0.22,1.12,0.42,2.36,1.08,3.31    c0.77,1.1,1.66,1.55,2.92,1.75c0.12,0.18,0.25,0.35,0.37,0.53c1.38,0.88,0.9,3.16,0.47,4.53c-0.07,0.7-0.14,1.41-0.2,2.11    c0.04,1.47,0.08,2.94,0.13,4.41c-0.21,1.66-1.66,3.74-2.36,5.53c-0.46,1.74-0.92,3.48-1.38,5.22c-0.62,1.48-1.25,2.96-1.87,4.44    c-0.49,2.04-0.98,4.07-1.48,6.11c-0.51,0.76-1.03,1.52-1.54,2.27c-1.38,1.78-2.11,3.82-3.03,5.88c-0.3,0.58-0.61,1.17-0.91,1.75    c-0.28,0.84-0.56,1.69-0.84,2.53c-0.07,0.56-0.14,1.12-0.21,1.69c-0.41,1.07-0.82,2.14-1.22,3.21c-0.99,1.6-1.49,3.28-2.32,4.93    c-0.72,1.45-1.41,3.13-2.57,4.29c-0.51,1.91-0.83,4.71-0.42,6.74c0.32,1.58,0.46,3.17,1.26,4.64c0.98,1.8,2.79,3.74,3.69,5.48    c-0.46,1.46-1.12,2.53-1.58,3.99c-0.71,2.14,0.53,4.75,0.53,6.97H288.31z"/>
            <circle cx="265.65" cy="88.52" r="1.586"/>
        </g>
        <g id="__Tirebolu">
            <path d="    M336.88,126.1c-1.02,0.57-1.44,1.14-2.67,1.33c-1.69-0.07-4.6-0.29-6.29-0.36c-0.87,0-2.75-0.51-3.22,0.19    c-0.82,1.41-1.4,3.39-2.22,4.8c-0.42,1.19-0.98,2.74-1.41,3.93c-0.42,1.05-0.98,2.18-1.4,3.23c-0.7,1.9-1.26,3.16-1.97,5.06    c-0.35,1.48,0.2,3.24,0.07,4.85c-0.09,1.11-1.69,2.31-1.82,3.44l-0.16-0.07c-1.6-0.49-1.95-0.26-3.7-0.7    c-0.49,0.2-2.79-0.55-3.44-0.77c-0.36-0.57-0.7-1.33-1.37-2.04c-0.45-1.63-0.91-3.25-1.36-4.88c-0.27-1.3,0.22-2.54-0.85-3.36    c-1.13-0.92-2.36-1.53-3.34-2.63c-0.26-0.31-0.51-0.62-0.77-0.93c0.09-1.32,0.18-2.64,0.26-3.96c0.19-0.86,0.39-1.72,0.58-2.58    c0.45-0.52,0.9-1.04,1.34-1.57c0.38-0.47,0.73-0.75,1.43-1.17c0.28-0.42,1.19-2.44,1.69-2.74c-0.53-3.16-0.53-7.87-0.84-11.31    c-0.34-1.34-0.7-4.14-1.4-5.34c-0.39-1.34-0.14-1.33-0.14-2.74c0.07-0.77,0.14-1.58,0.14-2.11c-0.35-0.77-1.05-0.98-1.61-0.82    c-0.2-0.15-1.42,0.4-1.62,0.25c-1.01,0.27-1.2-0.08-2.14-0.7c-0.63-0.49-1.26-0.98-1.9-1.48c-0.42-0.49-0.18-0.21-0.6-0.7    c-0.17-0.37-0.14-1.33-0.63-1.76c-3.54-0.11-4.55,1.55-8.22,1.55c-0.58,0-6.11,0.28-6.3,0.79l-0.11,0.23    c-0.53-0.26-1.04-0.56-1.5-0.92c-0.79-0.6-1.39-1.3-1.18-2.36c0.13-0.43,0.26-0.86,0.4-1.28c0.78-0.99,1.63-1.97,2.96-1.8    c0.99,0.19,1.97,0.38,2.96,0.57c0.28,0,2.41,0.6,2.22,0.3c-0.32-0.3-1.79-1.23-2.11-1.53c-1.09-2.3-1.48-4.11-3.58-5.8    c-0.58-0.26-1.09-0.41-1.6-0.44c-0.99-0.06-4.67,0.23-5.25-0.35c-1.03-1.29-2.15-1.94-3.37-2.95c-0.21-0.52-0.47-0.9-0.74-1.48    l0.21-0.05c0.1-0.18,2.37-1.74,2.58-2.11c1.97-1.48,3.57-3.11,5.53-4.58c1.26-0.95,3.2-2.51,4.43-4c1.61-1.95,3.68-3.61,6.11-4.43    c0.06-1.9,3.63-2.74,5.22-2.9c0.59-0.04,0.47-0.91,0.47-1.48c1.05-0.79,1.79-1.95,2.98-2.04c0.18,1.83,0.74,0.63,1.75,1.27    c0.43,0.47,0.65,0.67,1.07,1.14c0.69-2.21,1.92,0.69,2.48-0.58c0.63-0.63,1.39-0.92,1.9-1.21c1.11-0.63,1.69-0.58,2.74-0.74    c0.52-0.58,2.63-0.53,3.74-0.63c0.54,0.54,2.08,0.42,2.85,0.42c0.84-0.42,2.27-0.98,2.9-1.69c0.9-0.53,1.74-1.4,2.95-1.95    c0.79-0.63,3.94-3.9,4.74-4.53c1.69-1.32,3.27-2.58,4.48-3.42c0.67-0.13,1.58-0.11,2.16-0.11l0.05-0.21    c-0.1,0.6-0.21,1.19-0.31,1.79c-0.28,0.49-0.56,0.98-0.84,1.48c0.07,0.77,0.14,1.55,0.21,2.32c0.82,1.48,1.65,2.97,2.47,4.45    c0.34,0.67,0.59,0.71,0.9,1.66c-0.42,0.7-0.84,1.41-1.26,2.11c0.07,0.68,0.74,2.04,0.42,2.53c0.74,0.97,2.73,3.03,2.95,4.22    c0.37,1.98,0.01,3.97-0.17,5.9c-0.06,0.58,0.14,1.71-0.25,2.11c0.31,0.39,0.62,0.79,0.94,1.18c3.15,3.57,5.18,5.22,5.18,10.2    c0.36,0.36,0.35,0.66,0.84,0.84c0.07,0.6,0.21,1.05,0.42,1.69c-0.15,0.11,0.14,0.84,0,0.95c-0.36,0.23-1.17-0.31-1.26,0.11    c-0.81,0.01-1.61,0.02-2.42,0.03c-0.66,0.15-1.14,0.58-1.8,0.39c-0.64,0.71-1.07,1.4-1.96,1.78c-0.57,0.25-2.57,1.36-2.42,2    c0.32,1.27,0.64,2.55,0.96,3.82c0.1,0.69-0.22,1.4,0.26,1.88c-0.67,0.74-1.35,1.48-2.02,2.22c1.01,1.2,1.67,2.91,3.39,2.73    c0.42-0.07,1.79-0.46,2.21-0.53c0.39,0.39,1.84,0.73,1.92,1.46c0.06,0.48-0.03,0.61,0.4,0.86c-0.92,2.85-0.4,6.21,0.07,9.07    c0.11,0.67,0.2,2.78,0.56,3.15c-0.14,0.42-0.28,0.84-0.42,1.26c-0.47-0.47-2.6,1.07-3.06,1.53c-0.21,0.22-0.7,0.83-0.42,1.09    V126.1z"/>
            <circle cx="308.43" cy="63.44" r="1.586"/>
        </g>
        <g id="__Görele">
            <path d="    M394.84,131.93c-0.07-0.84-0.67-1.05-0.74-1.9c0.07-0.14,0.25-1.44,0.32-1.58c-0.09-1.41-0.21-1.07-0.53-2.42    c-0.43-0.56-0.86-1.13-1.3-1.69c-0.37,0.01-1.95-1.5-2.07-1.89c-0.56-0.49-1.12-0.98-1.69-1.48c-0.98-0.42-1.97-0.84-2.95-1.26    c-0.63-0.14-1.26-0.28-1.9-0.42c-0.45-0.61-0.89-1.23-1.34-1.84c-1.38-1.42-2.76-2.85-4.14-4.27c-0.42-1.62-0.84-3.23-1.26-4.85    c0.53-3.26,0.59-4.47-1.9-6.95c-0.52-1.96-0.89-4.32-2.06-5.99c-0.58-0.81-1.15-1.62-1.73-2.44c-0.99,0-2.06-0.91-3.02-1.28    c-2.63-1.02-5.38-2.41-8.15-2.71c-1.37-0.15-4.06-0.13-5.06,1.05c-1.08,1.24-3.04,4.74-4.95,4.32c-1.78-0.39-2.81-2.62-4.93-2.12    c-0.56,0.14-0.55,0.12-0.89,0.97c0.01,0.28,0.02,0.56,0.03,0.84c0.69,1.01,1.71,2.15,2.74,2.85c-0.1,0.23-1.8,0.99-1.9,1.37    c-0.86,1.58-1.29,1.64-1.94,3.41c-0.18,0.49-0.18,1.12-0.59,1.44c0.07,0.14,0.14,0.28,0.2,0.42c0.49,0.77,0.99,1.55,1.48,2.32    c0.49,0.42,0.98,0.84,1.48,1.26c0.35,0.84,0.7,1.69,1.05,2.53c-0.14,1.76-0.28,3.51-0.42,5.27c-0.22,1.05-0.83,3.39-0.53,4.33    c0.72,2,1.36,1.58,2.64,2.82c1.26,1.2,2.52,2.4,3.79,3.6c0.14,0.28,0.28,0.56,0.42,0.84c0.35,0.35,0.7,0.7,1.05,1.05    c0.92,0.99,1.83,1.97,2.75,2.96c0.42,0.07,0.84,0.14,1.26,0.21c0.98,0.09,3.58-0.55,4.12,0.68c0.52,0.9,1.05,1.8,1.57,2.69    c0.56,0.98,1.12,1.97,1.69,2.95c0.24,0.47,0.47,0.94,0.71,1.4c1.17,2.41,2.34,4.83,3.5,7.24c0.7,1.48,1.41,2.95,2.11,4.43    c0.28,0.49,0.56,0.98,0.84,1.48c0.5,1.14,1.89,2.74,2.74,3.37l0.11,0.11c-0.42,0.14-1.58,0.6-2,0.74c-0.63,0.35-1.26,0.7-1.9,1.05    c-0.5,0.04-0.99,0.09-1.49,0.13c-1.56,0.19-3.46,0.29-4.83,0.71c0.04-1.11,0.8-1.53,0.84-2.63c-1.98-2.81-4.38-5.94-6.36-8.75    c-0.77-1.13-1.53-2.26-2.3-3.39c-0.35-0.7-0.69-1.39-1.04-2.09c-0.85-0.96-1.69-1.93-2.54-2.89c-0.21-0.51-0.41-1.02-0.62-1.53    c-0.63-0.63-1.26-1.26-1.88-1.9c-1.47-1.19-3.37-1.75-5.02-2.64c-3.33-1.8-6.62-3.77-9.43-6.32c-0.28-0.26,0.21-0.88,0.42-1.09    c0.46-0.47,2.59-2,3.06-1.53c0.14-0.42,0.28-0.84,0.42-1.26c-0.36-0.37-0.45-2.48-0.56-3.15c-0.47-2.86-0.99-6.21-0.07-9.07    c-0.44-0.25-0.34-0.38-0.4-0.86c-0.08-0.73-1.53-1.07-1.92-1.46c-0.42,0.07-1.79,0.46-2.21,0.53c-1.72,0.18-2.38-1.53-3.39-2.73    c0.67-0.74,1.35-1.48,2.02-2.22c-0.48-0.49-0.16-1.2-0.26-1.88c-0.32-1.27-0.64-2.55-0.96-3.82c-0.15-0.63,1.85-1.74,2.42-2    c0.89-0.39,1.31-1.08,1.96-1.78c0.65,0.19,1.14-0.24,1.8-0.39c0.81-0.01,1.61-0.02,2.42-0.03c0.09-0.42,0.9,0.13,1.26-0.11    c0.14-0.11-0.15-0.84,0-0.95c-0.21-0.63-0.35-1.09-0.42-1.69c-0.5-0.19-0.48-0.48-0.84-0.84c0-4.98-2.02-6.63-5.18-10.2    c-0.31-0.39-0.62-0.79-0.94-1.18c0.4-0.39,0.2-1.53,0.25-2.11c0.18-1.93,0.54-3.92,0.17-5.9c-0.22-1.18-2.21-3.25-2.95-4.22    c0.32-0.49-0.36-1.85-0.42-2.53c0.42-0.7,0.84-1.41,1.26-2.11c-0.32-0.95-0.56-0.99-0.9-1.66c-0.82-1.48-1.65-2.97-2.47-4.45    c-0.07-0.77-0.14-1.55-0.21-2.32c0.28-0.49,0.56-0.98,0.84-1.48c0.1-0.6,0.21-1.19,0.31-1.79c0.12-0.34,0.99-0.62,1.42-0.87    c0.13,0.04,0.88-0.54,1.01-0.5c0.95,1.05,1.3,1.56,2.5,2c1.1,0.4,1.87,0.2,2.98,0.11c0.99,0.11,1.97,0.22,2.96,0.33    c2.41,0.27,4.84-0.65,6.95-0.54c1.48,0.07,2.63-0.11,3.79,0.11c2.11,0.21,2.23,1.29,4.43,2.21c0.42-0.27,1.45,0.36,1.9,0.32    c1.16-0.11,1.9-0.32,3.58,0.11c0.91-0.38,2.04-0.32,3.06-0.32c0.21-0.06,1.61-0.54,1.79-1.37c0.71,0.02,2.42-0.74,3.06-0.63    c1.4-0.64,2.68-1.21,3.27-1.79c0.39,0,2.42-0.37,2.42-0.74c0.33,0.33,0.11,2.08,0.11,2.53c0.58,0.58,1.05,0.83,1.05,1.69    c0.91,0.63,1.83,1.26,2.74,1.9c0.49,0.84,0.98,1.69,1.48,2.53c-0.21,0.48,0.13,1.67,0.38,2.14c0.21,0.41,0.14,1.35-0.16,1.65    c0.07,0.42,0.14,0.84,0.21,1.26c0.35,0.84,0.7,1.69,1.05,2.53c0,0.77,0,1.55,0,2.32c-0.14,0.35-0.28,0.7-0.42,1.05    c0,0.74,1.34,1.53,1.9,1.9c0.53,0.11,0.79-0.09,1.27-0.03c0.3,0.04,0.81,0.74,1.05,1.08c0.82,1.17,0.47,2,0.57,3.42    c-0.12,0.83-0.24,1.66-0.36,2.48c-0.07,1.51,0.26,4.94,1.26,6.11c0.7,0.56,1.41,1.12,2.11,1.69c-0.05,1.48-0.25,2.6,0.16,4.04    c0.4,1.47,2.42,1.28,3.52,1.54c0.44,0.1,2.21,0.84,3.37,0.21c0.25,0.72,0.89,3.39,1.14,4.11c0.57,1.63,0.8,3.12,0.65,4.85    c-0.21,0.49-0.42,0.98-0.63,1.48c-0.28,0.63-0.56,1.26-0.84,1.9c0,2.3,0.47,2.08,1.41,4.02c0.16,0.42,0.32,0.83,0.49,1.25    c0.52,2.41,0.65,4.92,0.42,7.38c-0.53,0.3-0.7,1.05-1.04,1.57c-0.73,1.11-1.68,1.81-2.12,3.06c-0.44,0.44,0.19,1.55,0.36,2.12    c0.58,1.26,1.16,2.52,1.75,3.78c0.07,0.77,0.13,1.55,0.2,2.32c0.13,2.03-2.83,3.37-4.41,4.32L394.84,131.93z"/>
            <circle cx="354.17" cy="53.32" r="1.586"/>
        </g>
        <g id="__Eynesil">
            <path d="    M397.69,89.15c0-1.48,1.08-3.36,1.9-4.64c0.28-1.48,0.56-2.95,0.84-4.43c-0.07-1.48-0.14-2.95-0.21-4.43    c-0.08-2.03-0.16-4.07-0.24-6.1c-0.34-2.11-0.68-4.22-1.02-6.33c-0.1-1.29-0.09-4.13,0.84-5.06c0.32-1.16,0.53-2.32,1.05-2.74    c0.86-2.78,2.2-5.59,3.71-8.04c0.53-0.85,1.45-2.07,1.98-2.92c0.49-1.12,0.98-2.25,1.48-3.37c0.2-1.6,0.71-4.42-0.36-5.68    c-0.02-0.15-0.04-0.29-0.06-0.43c-0.98-0.49-1.97-0.98-2.95-1.48c-0.77,0.63-0.91,0.11-1.69,0.74c-0.84,0.21-1.84,0.83-2.74,1.58    c-0.56,0.56-1.12,1.12-1.69,1.69c-0.84,0.63-0.84,1.16-1.69,1.79c-0.65,0.66-1.66,1.34-2.32,2c-0.68,0.39-1.01,0.87-1.69,1.26    c-0.28,0.28-1.41,0.56-1.69,0.84c-0.49,0.14-0.67,0.7-1.16,0.84c-1.3,0.84-1.93,1.06-3.37,1.37c-1.74,0.37-3.79,0.32-5.27,0.74    c-0.42,0.32-1.71,0.36-2.42,0.63c-0.99,0.37-1.79,0.53-2.32,0.74l-0.11-0.11c0.33,0.33,0.11,2.08,0.11,2.53    c0.58,0.58,1.05,0.83,1.05,1.69c0.91,0.63,1.83,1.26,2.74,1.9c0.49,0.84,0.98,1.69,1.48,2.53c-0.21,0.48,0.13,1.67,0.38,2.14    c0.21,0.41,0.14,1.35-0.16,1.65c0.07,0.42,0.14,0.84,0.21,1.26c0.35,0.84,0.7,1.69,1.05,2.53c0,0.77,0,1.55,0,2.32    c-0.14,0.35-0.28,0.7-0.42,1.05c0,0.74,1.34,1.53,1.9,1.9c0.53,0.11,0.79-0.09,1.27-0.03c0.3,0.04,0.81,0.74,1.05,1.08    c0.82,1.17,0.47,2,0.57,3.42c-0.12,0.83-0.24,1.66-0.36,2.48c-0.07,1.51,0.26,4.94,1.26,6.11c0.7,0.56,1.41,1.12,2.11,1.69    c-0.05,1.48-0.25,2.6,0.16,4.04c0.4,1.47,2.42,1.28,3.52,1.54c0.44,0.1,2.21,0.84,3.37,0.21L397.69,89.15z"/>
            <circle cx="392.31" cy="46.15" r="1.586"/>
        </g>
        <g id="__Çanakçı">
            <path d="    M376.1,154.41c1.94-0.97,3.58-1.88,5.7-2.35c0.86-0.11,1.73-0.21,2.59-0.32c4.79,0.22,8.4-0.32,10.88-4.86    c0.37-0.67,2.13-3.08,2.61-3.15c-0.06-0.19-0.13-0.39-0.19-0.58c-0.78-1.93-3.52-3.57-3.83-5.94c-0.06-1.06-0.13-2.12-0.19-3.17    c0.21-0.49,0.95-1.62,1.16-2.11c-0.07-0.84-0.67-1.05-0.74-1.9c0.07-0.14,0.25-1.44,0.32-1.58c-0.09-1.41-0.21-1.07-0.53-2.42    c-0.43-0.56-0.86-1.13-1.3-1.69c-0.37,0.01-1.95-1.5-2.07-1.89c-0.56-0.49-1.12-0.98-1.69-1.48c-0.98-0.42-1.97-0.84-2.95-1.26    c-0.63-0.14-1.26-0.28-1.9-0.42c-0.45-0.61-0.89-1.23-1.34-1.84c-1.38-1.42-2.76-2.85-4.14-4.27c-0.42-1.62-0.84-3.23-1.26-4.85    c0.53-3.26,0.59-4.47-1.9-6.95c-0.52-1.96-0.89-4.32-2.06-5.99c-0.58-0.81-1.15-1.62-1.73-2.44c-0.99,0-2.06-0.91-3.02-1.28    c-2.63-1.02-5.38-2.41-8.15-2.71c-1.37-0.15-4.06-0.13-5.06,1.05c-1.08,1.24-3.04,4.74-4.95,4.32c-1.78-0.39-2.81-2.62-4.93-2.12    c-0.56,0.14-0.55,0.12-0.89,0.97c0.01,0.28,0.02,0.56,0.03,0.84c0.69,1.01,1.71,2.15,2.74,2.85c-0.1,0.23-1.8,0.99-1.9,1.37    c-0.86,1.58-1.29,1.64-1.94,3.41c-0.18,0.49-0.18,1.12-0.59,1.44c0.07,0.14,0.14,0.28,0.2,0.42c0.49,0.77,0.99,1.55,1.48,2.32    c0.49,0.42,0.98,0.84,1.48,1.26c0.35,0.84,0.7,1.69,1.05,2.53c-0.14,1.76-0.28,3.51-0.42,5.27c-0.22,1.05-0.83,3.39-0.53,4.33    c0.72,2,1.36,1.58,2.64,2.82c1.26,1.2,2.52,2.4,3.79,3.6c0.14,0.28,0.28,0.56,0.42,0.84c0.35,0.35,0.7,0.7,1.05,1.05    c0.92,0.99,1.83,1.97,2.75,2.96c0.42,0.07,0.84,0.14,1.26,0.21c0.98,0.09,3.58-0.55,4.12,0.68c0.52,0.9,1.05,1.8,1.57,2.69    c0.56,0.98,1.12,1.97,1.69,2.95c0.24,0.47,0.47,0.94,0.71,1.4c1.17,2.41,2.34,4.83,3.5,7.24c0.7,1.48,1.41,2.95,2.11,4.43    c0.28,0.49,0.56,0.98,0.84,1.48c0.5,1.14,1.89,2.74,2.74,3.37C375.6,154.74,375.85,154.58,376.1,154.41z"/>
            <circle cx="355.43" cy="101.16" r="1.586"/>
        </g>
        <g id="__Doğankent">
            <path d="    M326.35,180.4c-0.14-0.35-0.6-0.91-0.74-1.26c-0.77-1.02-0.95-2.53-2.42-3.27c-0.56-0.33-1.55-0.71-2.21-0.74    c-1.08-1.76-2.46-4.03-2.74-6.11c-0.21-1.56-0.54-3.04-0.42-4.64c0.07-0.98,0.14-1.97,0.21-2.95c-0.24-1.9-1.06-3.78-1.77-5.53    c-0.22-0.55-0.43-3.38-0.46-3.39l0.16,0.07c0.13-1.13,1.73-2.34,1.82-3.44c0.13-1.61-0.42-3.37-0.07-4.85    c0.7-1.9,1.26-3.16,1.97-5.06c0.42-1.05,0.98-2.18,1.4-3.23c0.42-1.19,0.98-2.74,1.41-3.93c0.82-1.41,1.4-3.39,2.22-4.8    c0.47-0.7,2.35-0.19,3.22-0.19c1.69,0.07,4.6,0.28,6.29,0.36c1.23-0.19,1.65-0.76,2.67-1.33v-0.6c2.81,2.56,6.1,4.53,9.43,6.32    c1.65,0.89,3.55,1.45,5.02,2.64c0.63,0.63,1.26,1.26,1.88,1.9c0.21,0.51,0.41,1.02,0.62,1.53c0.85,0.96,1.69,1.93,2.54,2.89    c0.35,0.7,0.69,1.39,1.04,2.09c0.77,1.13,1.53,2.26,2.3,3.39c1.98,2.81,4.38,5.94,6.36,8.75c-0.04,1.11-0.8,1.53-0.84,2.63    l-0.74-0.11c-1.02,0.11-2.04,0.23-3.06,0.34c-2.68,0.08-4.83-0.78-7.37-0.63c-0.42-0.01-0.84-0.02-1.26-0.03    c-2.39,1.19-4.78,2.39-7.17,3.58c-3.92,0.88-6.89,2.11-10.33,4.21c-0.84,0.42-1.69,0.84-2.53,1.26c-0.84,0.84-1.69,1.69-2.53,2.53    c-0.6,0-2.73,1.93-2.95,2.53c-0.89,2.43-0.84,5.26-0.84,7.8L326.35,180.4z"/>
            <circle cx="328.67" cy="142.68" r="1.586"/>
        </g>
        <g id="__Yağlıdere">
            <path d="    M211.55,272.04c1.42-1.04,2.84-2.08,4.25-3.12c0.49-0.63,0.98-1.26,1.48-1.9c0.68-2.83,0.03-5.09-0.84-7.8    c0.11-0.14,0.22-0.28,0.32-0.41c0.17-1.21,0.69-1.37,1.67-2.03c1.09-0.72,3.08,0.15,3.93,0.99c1.19,0.2,2.38,0.41,3.56,0.61    c0.98-0.42,1.97-0.84,2.95-1.26c-0.17-0.58,0.84-1.26,1.26-1.69c0.07-0.28,0.14-0.56,0.21-0.84c0.35-0.14,0.7-0.28,1.05-0.42    c0.47-0.65,0.93-1.3,1.4-1.95c1.07-2.1,2.01-4.13,3.25-6.07c0.63-0.95,2.44-0.34,3.59-0.03c0.34,0.08,0.2,0.03,0.05,0.45    c0.54,0.57,1.08,1.14,1.63,1.71c0.68,1.08,1.37,2.16,2.05,3.23c1.05,1.58,2.58,2.77,3.95,4.04c0.99,0.93,4,0.25,5.16-0.05    c0.54-0.75,1.08-1.49,1.62-2.24c1.79-2.16,3.58-4.32,5.37-6.47c0.13-0.13,0.26-0.27,0.4-0.4l0.21-0.21    c-0.11-0.16-0.22-0.32-0.34-0.49c-0.8-1.22-0.35-2.29-0.29-3.67c0.22-2.13,0.45-4.26,0.67-6.39c0.03-1.68-0.47-3.46-2.15-4    c-2.94-0.19-5.58-2.17-8.59-1.88c-0.93,0.09-0.65,0.17-1.35,0.69c-1.3,0.28-1.34-1-1.39-1.15c-0.37-1.47-0.73-2.93-1.1-4.4    c0.24-0.75,0.48-1.5,0.72-2.25c0.87-1.75,2.09-3.22,2.51-5.16c0.05-0.97,0.09-1.95,0.14-2.92c-0.06-0.5-0.13-1-0.19-1.5    c0.56-1.89,1.11-3.78,1.67-5.67c0.16-0.73,0.19-3.04-0.21-3.58c0.16-0.89,1-3.27,0.63-4c0.35-0.98,0.7-1.97,1.05-2.95    c0.25-0.44,0.5-0.88,0.74-1.32c0.56-1.55,1.78-2.59,2.63-3.95c0.55-0.87,1.68-1.35,1.75-2.33c0.07-0.98,0.17-2.1-0.48-2.94    c-0.05-1.31-0.1-2.62-0.15-3.93c-0.06-0.72,0.16-2.11,0.79-2.34c0.69-0.21,3.75-1.32,3.83-1.73c0.19-0.95,1.19-2.88,1.01-3.6    c0.9-0.64,1.81-1.27,2.71-1.91c0.51-0.27,1.01-0.54,1.52-0.8c0.49-0.5,0.97-1,1.46-1.5c0.21-0.42,0.42-0.84,0.63-1.26    c0.28-1.19,0.56-2.39,0.84-3.58c0.07-0.63,0.14-1.26,0.21-1.9c-0.08-0.41-0.17-0.83-0.25-1.24c0-0.63,0.02-1.87-0.38-2.34    c0.07-0.7,0.14-1.41,0.21-2.11c0.48-0.7,1.92-2.26,1.62-3.14c-1.02-2.75-1.74-5.32-3.94-7.4c-0.97-0.91-1.65-2.63-2.95-3.16    c-0.93-1.29-2.62-3.78-4.21-4.21c-0.42-0.49-0.84-0.98-1.26-1.48c-0.28-0.49-0.56-0.98-0.84-1.48c-0.02-1.05-0.05-2.1-0.07-3.15    c-0.09-0.61-0.48-1.4-0.14-1.91c-0.53-1.02-2.07-3.98-1.69-5.06c-0.28-0.84-0.56-1.69-0.84-2.53c-1.79-1.58-3.58-3.16-5.37-4.74    c-0.29-0.47-2.16-2.35-2.64-2.42c-0.78-1.05-2.61-3.68-3.58-4.21c-0.54-0.3-0.64-0.93-1.26-1.05c-0.17-0.77-0.35-1.55-0.52-2.32    c0-0.41-0.01-0.83-0.01-1.24c-0.24-0.42-2.42-2.45-2.79-2.26l0.26,0.02c-1.39,1-2.76,2.22-3.92,3.42    c-0.27,0.44-0.55,0.88-0.82,1.32c-1.66,1.47-3.5,2.75-5.27,4.21c-0.35,0.91-0.7,1.83-1.05,2.74c-0.35,1.26-0.4,2.71-0.21,4    c1.19,1.05,2.39,2.11,3.58,3.16c0.07,0.7,0.14,1.41,0.21,2.11c-0.14,0.63-0.28,1.26-0.42,1.9c0.05,0.49,0.1,0.98,0.14,1.48    c0.23,0.91,0.47,1.83,0.7,2.74c-1.14,0.82-0.87,1.95-1.48,2.95c-0.91,2.25-1.72,5.02-2.63,7.27c-0.95,0.32-1.3,0.49-1.78,0.97    c-0.85,0.76-1.69,1.53-2.54,2.29c0.23,0.57-0.63,2.12-0.84,2.74c0,1.42,1.04,2.56,1.9,3.58c1.08,1.28,2.44,2.13,3.58,3.37    c0.63,0.7,1.26,1.41,1.9,2.11c-0.34,0.55,0.28,1.3,0.42,1.9c0.54,2.28,2.55,4.19,2.74,6.53c0.21,1.05,0.46,1.19,0.53,2.53    c-0.21,0.53-0.51,3.25-0.63,3.79c-0.31,1.96-0.85,3.52-1.16,5.48c-0.1,0.06-0.84,2.94-1.26,4.11c-0.53,0.01-1.66,0.06-1.89,0.48    c-2.22,1.21-5.73,3.88-8.12,3.42l-0.21,0.11c0.59,0.24,1.63,3.49,1.79,5.16c-0.36,1.08-0.72,2.16-1.07,3.24    c-0.7,1.99-1.25,3.75-2.3,5.61c-0.56,0.56-1.12,1.12-1.69,1.69c-1.25-0.1-2.33,2.42-3.06,3.26c0.03,0.12,0.06,0.24,0.09,0.36    c0.13,1.24,0.39,2.22,1.29,3.12c0.28,0.42,0.56,0.84,0.84,1.26c0.21,0.42,0.42,0.84,0.63,1.26c0.83,1.35,1.66,2.71,2.48,4.06    c0.83,1.12,1.93,2.26,2.15,3.73c0.19,1.21,0.52,2.75,0.21,4c-0.21,1.4-0.42,2.81-0.63,4.22c-0.07,1.05-0.14,2.11-0.21,3.16    c0.6,0.3,0.67,1.67,0.84,2.32c-0.45,0.4-0.34,1.3-0.42,1.9c-0.28,1.05-0.56,2.11-0.84,3.16c-0.28,0.7-0.56,1.41-0.84,2.11    c-0.78,0.84-1.56,1.67-2.34,2.51c-0.76,0.86-1.51,1.73-2.27,2.59c-1.04,1.44-1.47,2.23-2.85,3.43c-1.5,1.3-4.91-1.38-6.24-2    c-1.12,0.21-2.25,0.42-3.37,0.63c-0.98,0.91-1.97,1.83-2.95,2.74c-0.21,0.63-0.42,1.26-0.63,1.9c-0.33,2.07,0.44,4.26,0.63,6.32    c-0.14,0.7-0.28,1.41-0.42,2.11c-0.49,1.55-0.18,1.41-0.67,2.95c-0.46,1.69-1.05,2.56-1.26,3.23l2.18,1.56    c0.56,0.5,1.58,0.86,1.86,1.53c0.63,0.49,1.26,0.98,1.9,1.48c1.12,0.42,2.25,0.84,3.37,1.26c0.98,0.14,1.97,0.28,2.95,0.42    l0.24,0.47C209.51,273.81,211.01,272.4,211.55,272.04z"/>
            <circle cx="238.46" cy="121.81" r="1.586"/>
        </g>
        <g id="__Alucra">
            <path d="    M366.28,328.14c0.35-1.12,0.7-2.25,1.05-3.37c0.02-1.18,0.04-2.36,0.06-3.54c-0.15-0.79-0.3-1.58-0.45-2.37    c-0.08-0.63-0.16-1.26-0.24-1.88c0.16-1.68,0.51-3.49,0.12-5.16c-0.86-2.75-1.72-5.5-2.58-8.25c-0.73-2.56-1.21-5.28-2.49-7.62    c-1.07-1.36-2.14-2.72-3.21-4.08c-0.96-0.85-1.91-1.71-2.87-2.56c-0.51-0.6-1.02-1.2-1.53-1.8c-0.11-0.58-2.73-3.73-3.25-3.83    c-2.44-2.85-4.91-3.61-8.22-4.95c-1.12-0.39-2.25-0.77-3.37-1.16c-0.51-0.09-2.59-0.75-2.74-1.05c-1.85-0.6-3.54-1.21-5.48-1.26    c-0.42-0.28-0.85-0.56-1.27-0.84c-0.99-0.78-2.37-1.18-3.58-1.48c-0.97-0.41-1.93-0.83-2.9-1.24c-0.86-0.29-1.72-0.58-2.58-0.87    c-2.88-1.95-5.55-3.75-8.64-5.27c-0.52-0.26-3.21-0.7-3.58-0.42c-3.28-1.58-6.74-1.22-10.31-1.46c-0.27-0.27-2.44-1.35-2.75-1.28    c-0.53-0.39-1.07-0.77-1.6-1.16c-0.18-0.65-1.04-1.22-1.56-1.58c-0.83-0.58-3.16-3.82-3.16-4.85c-0.45-0.54-1.07-0.8-0.84-1.48    c-0.56,0.02-1.11,0.04-1.67,0.05c-2.17-0.51-4.55-0.19-6.61-1.14c-0.61-0.13-1.22-0.26-1.83-0.39c-1.01,0.09-1.91,0.25-2.9,0.03    c-3.04-1.21-6.08-2.41-9.12-3.62c-1.62-0.5-3.24-1-4.86-1.5c-0.56-0.09-1.09,0.06-1.45-0.38c-0.13,0.13-0.26,0.27-0.4,0.4    c-1.79,2.16-3.58,4.32-5.37,6.47c-0.54,0.75-1.08,1.49-1.62,2.24c-1.16,0.31-4.17,0.98-5.16,0.05c-1.36-1.27-2.9-2.46-3.95-4.04    c-0.68-1.08-1.37-2.16-2.05-3.23c-0.54-0.57-1.08-1.14-1.63-1.71c0.16-0.42,0.29-0.37-0.05-0.45c-1.15-0.31-2.96-0.92-3.59,0.03    c-1.24,1.95-2.18,3.97-3.25,6.07c-0.47,0.65-0.93,1.3-1.4,1.95c-0.35,0.14-0.7,0.28-1.05,0.42c-0.07,0.28-0.14,0.56-0.21,0.84    c-0.42,0.42-1.44,1.1-1.26,1.69c-0.98,0.42-1.97,0.84-2.95,1.26c-1.19-0.2-2.38-0.41-3.56-0.61c-0.85-0.85-2.84-1.72-3.93-0.99    c-0.97,0.66-1.49,0.83-1.67,2.03c-0.11,0.14-0.22,0.28-0.32,0.41c0.87,2.71,1.53,4.97,0.84,7.8c-0.49,0.63-0.98,1.26-1.48,1.9    c-1.42,1.04-2.84,2.08-4.25,3.12c-0.55,0.36-2.08,1.52-2.02,1.93c0.09,0.64,0.49,1.29,0.38,1.9c1.06,0.87,3.08,2.42,2.95,4    c0.62,0.31,1.28,0.37,1.48,1.05c0.6-0.02,1.23-0.17,1.69,0.21c1.33-0.98,2.67-1.97,4-2.95c0.84-0.25,1.69-0.51,2.54-0.76    c1.93-0.57,6.03-0.61,7.98-0.16c1.77,0.41,4.09,0.8,5.5,1.98c0.42,0.42,0.84,0.84,1.26,1.26c0.63,1.2,1.25,2.41,1.88,3.61    c0.26,0.61,0.29,1.33,0.86,1.66c-0.14,0.77-0.28,1.55-0.42,2.32c0.07,0.56,0.14,1.12,0.21,1.69c0,0.63,0,1.26,0,1.9    c0.35,0.56,0.7,1.12,1.05,1.69c0.35,1.12,1.48,3.75,0.84,4.85c0.14,0.42,0.28,0.84,0.42,1.26c0.52,0.68,1.03,1.35,1.55,2.03    c0.58,1.13,1.15,2.26,1.73,3.39c0.63,0.81,1.26,1.61,1.89,2.42c0.51,1.14,1.23,2.43,0.42,3.56c-0.04,0.21-0.07,0.41-0.11,0.62    c-0.46,0.29-0.71,0.63-1.26,0.63c-0.47,0.74-1.54,2.23-1.38,2.98c0.18,1.18,0.36,2.36,0.55,3.54c1.5,1.24,2.68,2.36,4.63,2.76    c1.1,0.23,3.82-0.77,4.64,0c0.63-0.02,1.55-0.14,2,0.28c0.25,0.19,0.49,0.37,0.74,0.56c0.24,0.43,0.36,0.91,0.84,1.05    c0.14,0.7,0.28,1.41,0.42,2.11c-0.07,1.48-0.14,2.95-0.21,4.43c-0.41,0.58-0.83,1.15-1.24,1.73c-0.03,0.53-0.56,0.87-1.07,1.01    c-0.35,0.42-0.7,0.84-1.05,1.26c-0.28,1.09-0.82,2.02-1.54,2.88c-0.54,0.58-1.08,1.17-1.62,1.75c-0.9,0.28-2.39,0.79-2.25,1.66    c-0.02,0.22-0.05,0.44-0.07,0.66c0.39,0.39,0.59,0.71,0.67,1.28c0.06,0.77,0.12,1.54,0.18,2.3c-0.15,0.53-0.51,1.21-0.21,1.69    c-1.77,1.88-3.75,4.81-4.85,7.17c-1.49,1-2.48,1.87-4.39,2.1c-1,0.89-3.37,2.59-4.67,2.96c-0.45,0.45-0.75,0.61-0.84,1.26    c-1.19,0.91-2.39,1.83-3.58,2.74c-0.46,0.21-0.53,0.84-1.05,1.05c-0.56,0.98-1.12,1.97-1.69,2.95c0.1,0.98,0.19,1.96,0.29,2.94    c1.1,2.65,3.56,4.14,4.42,6.93c0.37,1.19,0.53,2.99-0.28,4.04c0.14,0.55,0.28,1.11,0.41,1.66c0.3,2.79,0.48,4.36,2.86,6.42    c0.51,0.44,1.4,2.12,2.13,2.02c0.51-0.05,0.8-0.18,1.13,0.23c0.77-0.3,2.55-1.19,3.16-0.63c0.11-0.16,0.7-0.05,0.81-0.21    c0.7-0.92,0.91-2.11,1.61-3.03c-0.1-0.55,1.13-0.35,1.59-0.76c1.64,0.89,2.82,1.83,4.6,1.83c0.92-0.33,1.85-0.66,2.77-0.99    c0.42-0.28,0.84-0.56,1.26-0.84c0.93-0.19,1.47-0.4,2.28-0.92c0.33-0.21,1.69-0.98,2.15-1.19c1.42-0.98,3.45-2.57,5.22-2.16    c1.82,0.52,2.91,1.85,4.89,2c0.66,0.05,1.67,0.22,1.77-0.25c0.23-1.16-1.16-3.24-0.39-4.02c0.16-0.1,6.25-0.7,7.69-0.63    c1.33-0.42,2.67-0.84,4-1.26c0.49-0.28,0.98-0.56,1.48-0.84c-0.41-0.41,0.78-1.24,1.17-1.54c1.45-0.79,2.89-1.59,4.34-2.38    c0.83-0.17,1.66-0.34,2.5-0.51c0.65-0.31,1.3-0.63,1.94-0.94c0.5-0.23,0.92-0.53,1.3,0c0.58,0.78,2.24,2.6,1.61,3.68    c0.56,0.84,1.12,1.69,1.69,2.53c1.05,0.21,2.11,0.42,3.16,0.63c0.7,0.77,1.41,1.55,2.11,2.32c0.64-0.33,1.28-0.67,1.92-1    c1.48,0.09,0.39,6.37-0.4,8.61c-0.22,0.63-1.14,4.16-0.58,4.69c0.59,0.52,1.6,0.74,2.42,0.35c0.49,0.56,0.98,1.12,1.48,1.69    c0,0.47,0.74,2.5,1.09,2.53c0.4,0.11,1.33-0.56,1.62-0.84c0.42-2.11,1.66-4.01,2.76-3.75c1.4,0.34,2.96,0.58,4.02,1.64    c0.53-0.28,0.88-1.12,1.05-1.9c0.49-0.98,0.98-1.97,1.48-2.95c0.28-0.77,0.56-1.55,0.84-2.32c0.67-1.33,0.42-3.99,0.42-5.48    c0-0.89,0.13-2.46-0.42-3.16c0.2-0.55,0.59-1.12,0.42-1.69c0.49-0.7,0.98-1.41,1.48-2.11c0.75-0.62,2.12-1.36,2.32-2.32    c2.34-1.42,4.94-2.81,6.95-4.64c1.62-0.84,3.23-1.69,4.85-2.53c0.62-0.78,1.24-1.56,1.86-2.34c0.66-1,2.35-4.56,1.94-5.67    c0.56-1.55,1.12-3.09,1.69-4.64c0.63-1.12,1.26-2.25,1.9-3.37c0.21-0.37,0.58-1.35,0.42-1.69c0.57-0.83,1.14-1.66,1.71-2.49    c0.89-1.13,2.08-1.95,2.92-3.2c1.1-1.64,1.4-3.89,2.88-5.3c0.8-1.04,1.59-2.09,2.39-3.13c2.58-1.16,5.45-1.83,7.71-3.48    C364.67,330.14,366.2,328.69,366.28,328.14z"/>
            <circle cx="283.35" cy="339.94" r="1.586"/>
        </g>
        <g id="__Çamoluk">
            <path d="    M319.29,394.31c-1.06-1.06-2.62-1.3-4.02-1.64c-1.1-0.26-2.34,1.64-2.76,3.75c-0.28,0.28-1.22,0.95-1.62,0.84    c-0.35-0.03-1.09-2.06-1.09-2.53c-0.49-0.56-0.98-1.12-1.48-1.69c-0.83,0.39-1.83,0.17-2.42-0.35c-0.56-0.52,0.36-4.05,0.58-4.69    c0.79-2.24,1.88-8.52,0.4-8.61c-0.64,0.33-1.28,0.67-1.92,1c-0.7-0.77-1.41-1.55-2.11-2.32c-1.05-0.21-2.11-0.42-3.16-0.63    c-0.56-0.84-1.12-1.69-1.69-2.53c0.63-1.08-1.02-2.9-1.61-3.68c-0.38-0.53-0.8-0.23-1.3,0c-0.65,0.31-1.3,0.63-1.94,0.94    c-0.83,0.17-1.66,0.34-2.5,0.51c-1.45,0.79-2.89,1.59-4.34,2.38c-0.39,0.3-1.58,1.13-1.17,1.54c-0.49,0.28-0.98,0.56-1.48,0.84    c-1.33,0.42-2.67,0.84-4,1.26c-1.44-0.07-7.53,0.53-7.69,0.63c-0.77,0.77,0.62,2.86,0.39,4.02c-0.09,0.47-1.11,0.3-1.77,0.25    c-1.98-0.15-3.06-1.48-4.89-2c-1.77-0.41-3.8,1.18-5.22,2.16c-0.46,0.21-1.82,0.98-2.15,1.19c-0.8,0.52-1.34,0.73-2.28,0.92    c-0.42,0.28-0.84,0.56-1.26,0.84c-0.92,0.33-1.85,0.66-2.77,0.99c-1.79,0-2.96-0.94-4.6-1.83c-0.45,0.41-1.69,0.21-1.59,0.76    c-0.7,0.92-0.91,2.11-1.61,3.03c-0.11,0.16-0.7,0.05-0.81,0.21c-0.61-0.56-2.39,0.34-3.16,0.63l-0.42,0.21    c-1.16,0.75-1.83,1.95-3.16,2.53c-0.73,0.32-2.04-0.01-2.53,0.63c-1.37-0.26-3.47-0.55-4.83-0.11c-0.78,0.25-1.55,0.5-2.33,0.74    c-1.21,0.15-2.72,0.03-3.81,0.68c-0.42,0.48-0.83,0.95-1.25,1.43c-1.06,0.65-2.19,0.8-2.95,1.9c-2.28,0.47-6.69,2.63-6.53,5.27    c-0.19,0.34-0.53,0.68-0.42,1.05c-0.6,0.75-1.75,2.68-1.69,3.58c-0.48,0.74-0.92,1.87-1.69,2.32c-0.13,0.61-0.03,1.44-0.42,1.9    c0.07,0.34,0.14,0.69,0.22,1.03c0.06,0.91,0.4,3.16,0.84,3.55c0.92,0.75,1.72,1.34,2.81,1.96c0.17,0.52,0.49,0.71,0.89,1.06    c0.85-0.06,1.41,0.74,1.88,1.33c0.35,0.44,1.38,1.06,1.36,1.6c0.54,0.43,2.63,2.13,2.74,2.74c0.35,0.14,0.7,0.28,1.05,0.42    c1.14,1.44,2.89,2.18,4,3.58c1.76,0.98,3.51,1.97,5.27,2.95c0.58,0.04,1.11-0.04,1.48,0.42c0.94-0.19,3.19-0.86,4-0.42    c0.84-0.07,1.69-0.14,2.53-0.21c0.49-0.14,0.98-0.28,1.48-0.42c1.48-0.07,2.95-0.14,4.43-0.21c1.99-0.39,3.85-0.64,5.9-0.84    c0.42,0.07,0.84,0.14,1.26,0.21c0.68,0.53,1.41,1.48,2.32,1.48c0.8,0.63,1.25,1.33,2.32,1.48c0.69,0.55,1.59,1.55,2.53,1.48    c1.61,1.61,4.21,2.93,6.32,4c0.84,0.14,1.69,0.28,2.53,0.42c1.53,0,3.07,0,4.6,0c0.34-0.29,0.88-0.41,1.3-0.21    c1.16-1.6,2.63-3.12,4.45-3.9c0.65-0.28,1.47-0.96,2.08-0.92c0.62,0.06,1.38,0.64,1.9,0.4c0.38,0.29,0.56,0.58,1.05,0.63    c0.63,1.14,1.53,3.95,2.92,3.67c0.99-0.31,1.99-0.62,2.98-0.93c0.35,0,0.7,0,1.05,0c1.11,0.29,2.23,0.57,3.35,0.86    c0.44,0.24,0.87,0.48,1.31,0.72c1.06,0.93,2.11,1.86,3.17,2.79c0.62,0.44,1.25,0.88,1.87,1.32c0.91,0.28,1.83,0.56,2.74,0.84    c0.74,0.28,2.64,0.08,3.28-0.18c0.62,0.38,2.09-0.25,2.83-0.45c2.04-0.21,4.07-0.42,6.11-0.63c0.87,0.08,3.96,0.97,4.43,1.48    c0.35-0.07,0.7-0.14,1.05-0.21c0.26,0.24,0.44,0.27,0.42,0.63c0.35,0.21,0.7,0.42,1.05,0.63c0.63,0.02,1.35,0.29,1.9,0    c0.49,0.42,0.98,0.84,1.48,1.26c0.47-0.47,2.57,0.59,2.95,1.05c0.42,0.14,0.84,0.28,1.26,0.42c1.51-0.15,2.91-0.07,4.43,0.21    c0.77-0.07,1.55-0.14,2.32-0.21c0.42-0.35,0.84-0.7,1.26-1.05c0.46-1.46,2.23-4.29,1.9-5.69c1.68-3.76,2.43-8.3,1.9-12.43    c-0.28-2.14-0.21-5.19-1.69-6.96c-0.77-0.92-3.31-2.65-3.58-3.79c-0.67-0.41-1.75-0.78-2.11-1.48c-0.76-0.37-3.84-2.24-4.22-2.95    c-3-1.96-5.68-3.3-8.04-6.05c-0.22-0.5-0.45-1-0.67-1.5c-1.3-2.9-1.61-5.54-1.61-8.68c0.96-0.96,1.22-2.92,1.69-4.21    c0-0.07,0-0.14,0-0.21L319.29,394.31z"/>
            <circle cx="272.18" cy="414.97" r="1.586"/>
        </g>
        <g id="__Şebinkarahisar">
            <path d="    M169.48,411.61c0.34-1.06,0.68-2.13,1.01-3.19c0.81-0.05,2.14,1.21,3.37,0.44c0.99,0.23-3.36-1.42-4.18-1.14    c-1.11,0.4-0.77,0.72-1.72,1.35c-0.68-0.18-1.76-0.43-2.11-1.05c-0.6,0.13-1.16,0.09-1.48,0.63c-0.07-0.02-0.13-0.04-0.2-0.06    c-0.96-0.3-2.13-1.39-3.17-1.21c-1.58-1.5-3.39-2.54-5.06-4.21c-0.45-0.46-1.2-1.49-1.9-1.26c-0.64-0.48-1.27-0.96-1.91-1.44    l-0.3-0.07c-0.74-0.48-1.48-0.96-2.21-1.44c-0.49-0.84-0.5-0.79-1.22-1.23c0.4-0.23,0.75-0.52,0.89-1.16    c0.22-1.21-0.97-3.37-1.13-4.79c-0.06-0.13-0.12-0.27-0.18-0.4c0.35-0.68,0.69-1.37,1.04-2.05c1.28-0.79,2.73-1.05,4.18-1.11    c0.39-1.22,0.97-2.16,2.32-1.69c0.35-0.07,0.7-0.14,1.05-0.21c1.23-1.02,2.42-1.83,3.97-2.36c0.91,0.17,1.58,1.39,2.5,0.79    c0.98-0.65,1.47-1.45,1.75-2.64c0.42-0.28,0.84-0.56,1.26-0.84c-0.14-0.14-0.27-0.28-0.41-0.42c-0.1-0.06-0.2-0.12-0.3-0.18    c-0.89,0.4-2.14,1.63-1.82,2.71c-0.44,0.17-0.89,0.19-1.05,0.63c-0.08-0.05-0.17-0.1-0.25-0.15c-1.63-0.95-5.82-2.19-7.13-0.48    c-0.47,0.17-0.97,0.22-1.26,0.63c-0.86,0.11-4.04,0.64-3.79,1.9c-0.64,0.36-1.71,0.56-2.11,0.84c-0.8-0.23-1.41-0.35-2.11-0.84    c-0.28-0.28-0.56-0.56-0.84-0.84c-0.12-0.91-0.16-1.12-0.63-1.9c-0.7-0.77-1.41-1.55-2.11-2.32c-0.42-0.07-0.84-0.14-1.26-0.21    c-0.7-0.49-1.41-0.98-2.11-1.48c-0.81,0.43-1.96,1.34-2.62,1.03c-0.75-0.31-3.71-1.25-4-1.83c-0.46-0.88-0.9-1.56-0.97-2.57    c-0.55-0.65-1.59-1.83-1.05-2.74c0.05-0.92,0.34-2.02,0.84-2.95c0.21-0.35,0.42-0.7,0.63-1.05c1.62-1.05,3.23-2.11,4.85-3.16    c-0.86-0.96-1.85-1.94-1.69-3.37c-0.16,0.18-0.32,0.36-0.47,0.55c-0.31,0.41-0.48,2.4-0.85,2.4c-0.26,0.07-0.52,0.14-0.78,0.21    c-0.51-0.66-0.61-1.12-0.84-1.9c-0.21,0.49-0.42,0.98-0.63,1.48c-0.07-0.02-0.13-0.04-0.2-0.05c-0.29-0.05-0.57-0.11-0.86-0.16    c0.08-0.46,0.09-2.11-0.42-1.75c-0.35,0.25-0.23-0.02-0.22,0.7c-0.91,0.8-1.22,1.6-2.32,1.48c0.09,0.11,0.18,0.22,0.27,0.32    c0.05,0.17,0.1,0.35,0.15,0.52c-0.54,0.05-0.77-0.09-1.05,0.42c-0.43-0.11-0.64,0.02-0.84-0.42c-0.01,0.07-0.01,0.15-0.02,0.22    c0.01,0.35,0.01,0.69,0.02,1.04c-0.38,0.03-0.79-0.38-0.92,0.04c-0.04,0.27-0.09,0.54-0.13,0.8c-0.46,0.57-1.64,1.44-1.69,2.11    c-0.87,0.2-1.97,1.02-2.95,0.63c-0.3,0.37-0.58,0.57-0.63,1.05c-0.58-0.12-1.79-0.14-2.11-0.63c-0.23,0.92,0.12,1.45-0.69,1.76    c-0.23,0.08-0.47,0.17-0.7,0.25c-1.79-1.16-3.86-0.88-5.85-1.84c-0.58-0.28-1.32-0.26-1.66-0.9c-0.14-0.28-0.54-0.83-0.51-0.92    c0.87-1.83,1.37-3.73,1.4-5.72c-0.28-1.4-0.56-2.81-0.84-4.21c0,0.21,0,0.42,0,0.63c-0.16,0.47-0.32,0.93-0.48,1.4    c0.1,0.48,0.1,1.03,0.48,1.34c0,1.05,0,2.11,0,3.16c-0.84,1.48-1.69,2.95-2.53,4.43c-0.82,0.55-1.47,0.69-2.32,1.05    c0.1,0.11,0.21,0.21,0.31,0.32c0.82,0.77,1.59,0.72,2.64,0.95c0.7,0.16,1.87,0.61,2.11,1.26c0.58-0.02,1.21,0.13,1.69-0.21    c0.73,0.25,1.32,0.51,2.11,0.42c0.56-0.07,1.12-0.14,1.69-0.21c0.35,0.21,0.7,0.42,1.05,0.63c1.12,0.46,3.76-0.35,4,0.84    c0.79-0.07,1.63,0.06,2.32-0.42c0.86,0.4,1.54,0.83,2.53,0.63c0.51-0.1,2.35-0.8,2.63-0.53c0.75,0.7,2,1.99,2,3.06    c0.38,0.55,0.85,0.79,0.84,1.48c0.98,0.84,1.97,1.69,2.95,2.53c1.17-0.07,4.12,1,4.85,0.42c3.04,2.32,6.23,5.38,7.57,9    c0.49,0.31,0.76,0.73,0.65,1.33c0.49,0.77,0.98,1.55,1.48,2.32c-0.06,0.19-0.12,0.38-0.18,0.57c-0.04,0.11-0.09,0.2-0.14,0.29    c-0.15-0.11-2.43-2.27-3.26-2.34c-1.33-0.93-2.66-1.86-3.98-2.79c-0.57-0.13-1.14-0.26-1.71-0.4c-0.54-0.04-1.22-0.25-1.69,0.02    c-2.25-0.62-4.17-1.41-6.24-2.42c-1.15-0.53-2.3-1.06-3.45-1.59c-1.9-0.35-3.79-0.7-5.69-1.05c-1.26-0.07-2.53-0.14-3.79-0.21    c-0.77-0.15-2.5-0.02-2.95-0.63c-1.61,0.15-3.08,0-4.64-0.21c-0.83-0.11-1.26-1.07-2.11-1.05c-0.28-0.42-0.56-0.84-0.84-1.26    c-0.82-1.01-2-1.27-2.95-2.09c-0.4-0.4-0.79-0.8-1.19-1.21c-0.65-0.65-1.97-1.56-1.95-2.19c0.05-0.84,0.31-1.7-0.03-2.53    c0.16-0.75,0.71-1.76,0.21-2.32c1.4-1.92,3.85-6.06,3.89-8.22c-0.43-2.88-0.86-5.77-1.29-8.65c-0.58-4.07-1.17-8.14-1.75-12.21    c-1.12-2.81-2.25-5.62-3.37-8.43c-0.5-2.24-1-4.48-1.5-6.72c-0.29-1.13-0.58-2.27-0.88-3.4c-0.54-2.18-1.09-4.36-1.63-6.53    c-0.07-0.63-0.14-1.26-0.21-1.9c-0.17-0.61,0.05-3.77,0.42-4.22c-0.06-1.19-0.11-2.38-0.17-3.58c0.02-0.7-0.13-2.01,0.38-2.54    c-0.21-3.38,0.34-6.56,0.82-9.91c0.29-1.68,0.58-3.37,0.86-5.05c0.28-1.4,0.56-2.81,0.84-4.21c-0.21-2.25-0.42-4.5-0.63-6.74    c-0.25-1.99-2.18-3.89-2.95-5.69c-0.75-0.45-1.49-0.89-2.24-1.34c-0.69-0.43-3.86-2.35-3.93-2.76c0.02-0.39,0.04-0.78,0.05-1.17    c0.46-0.16,2.48-1.76,2.53-2.11c0.85-0.28,1.7-0.56,2.56-0.84c1.6-0.22,3.21-0.43,4.81-0.65c0.78,0,1.55,0,2.33,0.01    c1.12,0.14,2.25,0.28,3.37,0.42c1.7,1.22,3.3,1.72,5.27,2.32c0.56,0.07,1.12,0.14,1.69,0.21c0.23,0.17,0.46,0.33,0.69,0.5    c2.02,0.4,4.04,0.79,6.05,1.19c1.93,0.59,3.76,1.48,5.48,2.53c2.11,0.7,4.22,1.41,6.32,2.11c2.92-0.28,6.01-0.12,8.89,0.43    c0.97,0.28,1.94,0.55,2.91,0.83c2.96,0.1,5.63,1,8.43,1.9c0.93,0.21,1.85,0.41,2.78,0.62c1.98,0.91,4.14,1.01,6.09,2.11    c0.42,0.21,0.83,0.43,1.25,0.65c1.71,0.29,3.57,0.45,5.06,1.48c1.18,0.81,3.57,2.42,4,3.79c0.83,0.38,2.18,0.82,3.06,0.53    c1.62-0.67,2.05-1.42,2.85-2.85c0.39-0.7,0.2-1.84,0.84-2.32c-0.04-1.33,0.1-3.28,0.89-4.38c1.35-1.88,2.83-2.53,5.01-3    c0.64-0.14,1.03-0.92,1.69-0.63c0.89-1.44,1.79-2.89,2.68-4.33c0.52-0.7,1.79-1.39,1.96-2.2c1.08-0.22,3.3-0.98,4.22-0.21    c2.64-0.35,4.19-0.87,5.97-0.12c0.7,0.29,1.43,0.78,2.28,1.54c0.56,0.5,1.58,0.86,1.86,1.53c0.63,0.49,1.26,0.98,1.9,1.48    c1.12,0.42,2.25,0.84,3.37,1.26c0.98,0.14,1.97,0.28,2.95,0.42l0.26,0.63c0.09,0.64,0.49,1.29,0.38,1.9    c1.06,0.87,3.08,2.42,2.95,4c0.62,0.31,1.28,0.37,1.48,1.05c0.6-0.02,1.23-0.17,1.69,0.21c1.33-0.98,2.67-1.97,4-2.95    c0.84-0.25,1.69-0.51,2.54-0.76c1.93-0.57,6.03-0.61,7.98-0.16c1.77,0.41,4.09,0.8,5.5,1.98c0.42,0.42,0.84,0.84,1.26,1.26    c0.63,1.2,1.25,2.41,1.88,3.61c0.26,0.61,0.29,1.33,0.86,1.66c-0.14,0.77-0.28,1.55-0.42,2.32c0.07,0.56,0.14,1.12,0.21,1.69    c0,0.63,0,1.26,0,1.9c0.35,0.56,0.7,1.12,1.05,1.69c0.35,1.12,1.48,3.75,0.84,4.85c0.14,0.42,0.28,0.84,0.42,1.26    c0.52,0.68,1.03,1.35,1.55,2.03c0.58,1.13,1.15,2.26,1.73,3.39c0.63,0.81,1.26,1.61,1.89,2.42c0.51,1.14,1.23,2.43,0.42,3.56    c-0.04,0.21-0.07,0.41-0.11,0.62c-0.46,0.29-0.71,0.63-1.26,0.63c-0.47,0.74-1.54,2.23-1.38,2.98c0.18,1.18,0.36,2.36,0.55,3.54    c1.5,1.24,2.68,2.36,4.63,2.76c1.1,0.23,3.82-0.77,4.64,0c0.63-0.02,1.55-0.14,2,0.28c0.25,0.19,0.49,0.37,0.74,0.56    c0.24,0.43,0.36,0.91,0.84,1.05c0.14,0.7,0.28,1.41,0.42,2.11c-0.07,1.48-0.14,2.95-0.21,4.43c-0.41,0.58-0.83,1.15-1.24,1.73    c-0.03,0.53-0.56,0.87-1.07,1.01c-0.35,0.42-0.7,0.84-1.05,1.26c-0.28,1.09-0.82,2.02-1.54,2.88c-0.54,0.58-1.08,1.17-1.62,1.75    c-0.9,0.28-2.39,0.79-2.25,1.66c-0.02,0.22-0.05,0.44-0.07,0.66c0.39,0.39,0.59,0.71,0.67,1.28c0.06,0.77,0.12,1.54,0.18,2.3    c-0.15,0.53-0.51,1.21-0.21,1.69c-1.77,1.88-3.75,4.81-4.85,7.17c-1.49,1-2.48,1.87-4.39,2.1c-1,0.89-3.37,2.59-4.67,2.96    c-0.45,0.45-0.75,0.61-0.84,1.26c-1.19,0.91-2.39,1.83-3.58,2.74c-0.46,0.21-0.53,0.84-1.05,1.05c-0.56,0.98-1.12,1.97-1.69,2.95    c0.1,0.98,0.19,1.96,0.29,2.94c1.1,2.65,3.56,4.14,4.42,6.93c0.37,1.19,0.53,2.99-0.28,4.04c0.14,0.55,0.28,1.11,0.41,1.66    c0.3,2.79,0.48,4.36,2.86,6.42c0.51,0.44,1.4,2.12,2.13,2.02c0.51-0.05,0.8-0.18,1.13,0.23l-0.42,0.21    c-1.16,0.75-1.83,1.95-3.16,2.53c-0.73,0.32-2.04-0.01-2.53,0.63c-1.37-0.26-3.47-0.55-4.83-0.11c-0.78,0.25-1.55,0.5-2.33,0.74    c-1.21,0.15-2.72,0.03-3.81,0.68c-0.42,0.48-0.83,0.95-1.25,1.43c-1.06,0.65-2.19,0.8-2.95,1.9c-2.28,0.47-6.69,2.63-6.53,5.27    c-0.19,0.34-0.53,0.68-0.42,1.05c-0.6,0.75-1.75,2.68-1.69,3.58c-0.48,0.74-0.92,1.87-1.69,2.32l0.11-0.56    c0.21-1.62,0.42-2.39,0.42-4.07c-0.09-0.39-0.02-1.87-0.07-1.9c-4.36-1.57-7.92,2.89-12.05,3.16c-1.25,0.08-2.36-0.4-3.58-0.42    c-1.55-1.21-2.07-1.85-4-2.32c-0.35,0.14-0.7,0.28-1.05,0.42c-0.73,0.88-1.29,1.98-2.32,2.53c-0.82,1.21-1.65,2.42-2.47,3.62    c-0.25,1.59-3.24,4.12-4.72,4.2c-1.91,0.06-5.9-1.38-7.54-2.4c-0.7-0.44-1.45-0.76-2.05-1.07l-0.06-0.04L169.48,411.61z"/>
            <circle cx="176.71" cy="352.8" r="1.586"/>
        </g>
        <g id="__Dereli">
            <path d="    M87.2,270.3c0.02-0.39,0.04-0.78,0.05-1.17c0.46-0.16,2.48-1.76,2.53-2.11c0.85-0.28,1.7-0.56,2.56-0.84    c1.6-0.22,3.21-0.43,4.81-0.65c0.78,0,1.55,0,2.33,0.01c1.12,0.14,2.25,0.28,3.37,0.42c1.7,1.22,3.3,1.72,5.27,2.32    c0.56,0.07,1.12,0.14,1.69,0.21c0.23,0.17,0.46,0.33,0.69,0.5c2.02,0.4,4.04,0.79,6.05,1.19c1.93,0.59,3.76,1.48,5.48,2.53    c2.11,0.7,4.22,1.41,6.32,2.11c2.92-0.28,6.01-0.12,8.89,0.43c0.97,0.28,1.94,0.55,2.91,0.83c2.96,0.1,5.63,1,8.43,1.9    c0.93,0.21,1.85,0.41,2.78,0.62c1.98,0.91,4.14,1.01,6.09,2.11c0.42,0.21,0.83,0.43,1.25,0.65c1.71,0.29,3.57,0.45,5.06,1.48    c1.18,0.81,3.57,2.42,4,3.79c0.83,0.38,2.18,0.82,3.06,0.53c1.62-0.67,2.05-1.42,2.85-2.85c0.39-0.7,0.2-1.84,0.84-2.32    c-0.04-1.33,0.1-3.28,0.89-4.38c1.35-1.88,2.83-2.53,5.01-3c0.64-0.14,1.03-0.92,1.69-0.63c0.89-1.44,1.79-2.89,2.68-4.33    c0.52-0.7,1.79-1.39,1.96-2.2c1.08-0.22,3.3-0.98,4.22-0.21c2.64-0.35,4.19-0.87,5.97-0.12l0.11-0.02    c0.21-0.67,0.81-1.55,1.26-3.23c0.49-1.55,0.18-1.41,0.67-2.95c0.14-0.7,0.28-1.41,0.42-2.11c-0.19-2.06-0.97-4.25-0.63-6.32    c0.21-0.63,0.42-1.26,0.63-1.9c0.98-0.91,1.97-1.83,2.95-2.74c1.12-0.21,2.25-0.42,3.37-0.63c1.33,0.61,4.75,3.3,6.24,2    c1.38-1.2,1.81-1.99,2.85-3.43c0.76-0.86,1.51-1.73,2.27-2.59c0.78-0.84,1.56-1.67,2.34-2.51c0.28-0.7,0.56-1.41,0.84-2.11    c0.28-1.05,0.56-2.11,0.84-3.16c0.09-0.6-0.03-1.5,0.42-1.9c-0.17-0.65-0.25-2.02-0.84-2.32c0.07-1.05,0.14-2.11,0.21-3.16    c0.21-1.4,0.42-2.81,0.63-4.22c0.31-1.25-0.03-2.79-0.21-4c-0.22-1.47-1.33-2.61-2.15-3.73c-0.83-1.35-1.66-2.71-2.48-4.06    c-0.21-0.42-0.42-0.84-0.63-1.26c-0.28-0.42-0.56-0.84-0.84-1.26c-0.9-0.9-1.16-1.88-1.29-3.12c-0.03-0.12-0.06-0.24-0.09-0.36    c0.73-0.84,1.81-3.36,3.06-3.26c0.56-0.56,1.12-1.12,1.69-1.69c1.05-1.86,1.6-3.63,2.3-5.61c0.36-1.08,0.72-2.16,1.07-3.24    c-0.16-1.67-1.2-4.92-1.79-5.16c-0.35-2.04-1.44-5.02-1.79-7.06c0.04-2.72,1.25-4.92,1.79-7.59c0.28-1.36,0.63-2.53,0.42-3.58    c-0.84-0.95-4.38-1.52-4.64-1.37c-0.81-0.65-2.47-1.79-3.15-2.53c-0.46-0.46-0.92-0.91-1.38-1.37c-1.12-0.21-2.25-0.42-3.37-0.63    c-0.4-0.4-0.7-0.94-1.26-1.05c-0.38-0.53-0.76-1.07-1.14-1.6c-0.6-0.8-1.21-1.6-1.81-2.4c-0.32-0.63-0.84-0.74-1.44-1.26    c-0.61-0.48-2.88-0.98-4.04-1.69c-0.01-0.22-0.02-0.43-0.03-0.65c-0.06-1.05-0.12-2.1-0.18-3.15c0.07-0.63,0.14-1.26,0.21-1.9    c-0.07-0.42-0.14-0.84-0.21-1.26c-0.49-0.77-0.98-1.55-1.48-2.32c-0.76-0.48-2.25-1.61-3.16-1.05c-0.67-0.53-1.98-1.7-2.31-1.67    c-1.44,0.19-3.08,0.2-3.39,1.83c0,1.69,0.03,4.42-1.57,4.91c-1.9,0.57-4.18-1.09-6.06-1.48c-0.17-0.22-2.16-0.36-2.19-0.34    c-1.6,1.3-2.62,2.93-3.53,4.77c-0.33,0.77-0.66,1.53-0.99,2.3c-0.19,1.3-0.88,3.81-1.34,4c-2.25,0.85-4.21,1.68-6.24,2.96    c-0.77,0.48-1.2,1.72-2.11,1.9c-0.56,0.84-1.12,1.69-1.69,2.53c-0.05,0.54,0.34,3.2-0.25,3.37c-1.76-0.63-3.49-0.2-5.27,0.14    c-0.88,0.38-1.81,1.07-2.24,1.87c-1.13,0.72-2.46,2.08-3.2,3.04c-0.45,0.58-1.08,1.59-1.69,1.9c-0.21,0.56-0.42,1.12-0.63,1.69    c-0.21,2.32-0.42,4.64-0.63,6.95c-0.14,0.7-0.28,1.41-0.42,2.11c-0.28,0.42-0.56,0.84-0.84,1.26c-2.47,1.23-4.94,2.47-7.41,3.7    c-0.57,0.42-1.14,0.84-1.71,1.26c-1.75,0.98-3.51,1.96-5.26,2.94c-1.41,0.72-2.65,1.39-3.95,2.28c-0.74,0.49-1.38,0.77-2.01,1.26    c-2.05,1.13-3.26,3.07-4.73,4.57c-0.64,0.56-1.27,1.12-1.91,1.68c-3.02,0.96-4.75,1.25-6.96,3.75c-1.22,2.14-2.44,4.29-3.66,6.43    c-0.54,0.75-1.08,1.51-1.63,2.26c-2.49,1.81-2.9,5.58-3.56,8.42c-0.09,0.7-0.17,1.39-0.26,2.09c-0.2,1.13-0.39,2.26-0.59,3.39    c-1.33,1.76-2.67,3.51-4,5.27c-0.31,0.63-0.49,1.72-1.05,2.11c-0.31,2.39-0.67,4.7-1.26,6.95c-0.63,1.26-1.26,2.53-1.9,3.79    c-0.51,1.12-1.01,2.24-1.52,3.35c-0.57,0.68-1.14,1.36-1.71,2.04c-1.52,2.27-3.05,4.54-4.57,6.8c-1,1.32-4.24,4.29-3.96,5.78    c0.09,0.46-0.18,0.55,0.37,0.64c0.47,0.06,0.94,0.02,1.28,0.36L87.2,270.3z"/>
            <circle cx="186.2" cy="172.39" r="1.586"/>
        </g>
        <g id="__Güce">
            <path d="    M289.27,241.97c-0.9-1.74-2.51-3.29-3.5-5.09c-0.8-1.47-0.95-3.06-1.26-4.64c-0.41-2.04-0.09-4.83,0.42-6.74    c1.16-1.16,1.84-2.84,2.57-4.29c0.83-1.65,1.33-3.34,2.32-4.93c0.41-1.07,0.82-2.14,1.22-3.21c0.07-0.56,0.14-1.12,0.21-1.69    c0.28-0.84,0.56-1.69,0.84-2.53c0.3-0.58,0.61-1.17,0.91-1.75c0.92-2.06,1.65-4.11,3.03-5.88c0.51-0.76,1.03-1.51,1.54-2.27    c0.49-2.04,0.98-4.07,1.48-6.11c0.62-1.48,1.25-2.96,1.87-4.44c0.46-1.74,0.92-3.48,1.38-5.22c0.71-1.78,2.15-3.86,2.36-5.53    c-0.04-1.47-0.08-2.94-0.13-4.41c0.07-0.7,0.14-1.41,0.2-2.11c0.42-1.37,0.91-3.65-0.47-4.53c-0.12-0.18-0.25-0.35-0.37-0.53    c-1.27-0.2-2.16-0.65-2.92-1.75c-0.66-0.95-0.86-2.2-1.08-3.31c-0.56-0.91-1.12-1.83-1.69-2.74c-1.19-0.63-2.39-1.26-3.58-1.9    c-1.5-1.32-2.27-2.67-2.74-4.64c-0.07-1.33-0.14-2.67-0.21-4c0.14-0.42,1.12-1.16,1.26-1.58c0.59-0.85,1.25-2.72,0.2-3.68    c-3.3-2.91-3.25-5.08-4.14-9.04c-0.37-0.92-0.75-1.85-1.12-2.77c0-1.64-0.6-3.73-1.05-5.27c-0.49-1.05-0.98-2.11-1.48-3.16    c-0.07-0.98-0.14-1.97-0.21-2.95c-0.14-0.63-0.28-1.26-0.42-1.9c0.35-1.4,0.7-2.81,1.05-4.21c0.28-0.38,0.57-0.76,0.85-1.14    c1.39-0.42,3.26-1.92,1.51-3.31c-0.65-1.68-1.3-3.35-1.94-5.03c-0.4-0.4-0.92-0.72-1.05-1.26c-1.43-0.32-2.93-0.71-4.27-1.36    l0.11-0.23c0.19-0.51,5.73-0.79,6.3-0.79c3.67,0,4.68-1.66,8.22-1.55c0.49,0.42,0.46,1.39,0.63,1.76c0.42,0.49,0.18,0.21,0.6,0.7    c0.63,0.49,1.26,0.98,1.9,1.48c0.94,0.62,1.13,0.98,2.14,0.7c0.2,0.15,1.42-0.4,1.62-0.25c0.55-0.17,1.26,0.04,1.61,0.82    c0,0.52-0.07,1.33-0.14,2.11c0,1.4-0.25,1.4,0.14,2.74c0.7,1.19,1.06,4,1.4,5.34c0.32,3.44,0.32,8.15,0.84,11.31    c-0.5,0.3-1.41,2.32-1.69,2.74c-0.7,0.42-1.05,0.7-1.43,1.17c-0.45,0.52-0.9,1.04-1.34,1.57c-0.19,0.86-0.39,1.72-0.58,2.58    c-0.09,1.32-0.18,2.64-0.26,3.96c0.26,0.31,0.51,0.62,0.77,0.93c0.98,1.1,2.21,1.72,3.34,2.63c1.07,0.82,0.58,2.06,0.85,3.36    c0.45,1.63,0.91,3.25,1.36,4.88c0.67,0.7,1.01,1.47,1.37,2.04c0.66,0.22,2.95,0.97,3.44,0.77c1.75,0.44,2.11,0.21,3.7,0.7    c0.03,0.02,0.24,2.84,0.46,3.39c0.72,1.75,1.53,3.63,1.77,5.53c-0.07,0.98-0.14,1.97-0.21,2.95c-0.12,1.6,0.21,3.08,0.42,4.64    c0.28,2.08,1.66,4.35,2.74,6.11c0.66,0.02,1.65,0.41,2.21,0.74c1.48,0.74,1.66,2.25,2.42,3.27c0.14,0.35,0.6,0.91,0.74,1.26    c-0.11,1.58,0.23,3.57,0.95,5.06c0.79,1.64,2.59,3.62,2.95,5.48c0.7,2.53,1.41,5.06,2.11,7.59c0.04,0.76,0.07,1.52,0.11,2.29    c0.44,2.1-3.56,2.86-4.95,3.4c-0.74,0-0.79-0.2-1.26-0.21c-4.57-4.57-13.28,0.02-17.7,2.74c-0.49,0.63-0.98,1.26-1.48,1.9    c-1.26,2.18-2.53,4.36-3.79,6.53c-1.4,3.58-2.81,7.17-4.22,10.75c-0.28,0.4-0.74,1.05-1.26,1.48c-2.04,3.58-3.86,6.53-5.9,10.12    c-0.32,1.12-0.93,2.34-1.58,3.32c-0.31,0.45-0.32,0.79-0.74,1.32L289.27,241.97z"/>
            <circle cx="295.37" cy="106.85" r="1.586"/>
        </g>
    </g>
</svg>