<?xml version="1.0" encoding="UTF-8"?>
<!DOCTYPE svg PUBLIC "-//W3C//DTD SVG 1.1//EN" "http://www.w3.org/Graphics/SVG/1.1/DTD/svg11.dtd">
<svg version="1.1" id="HaritaCizim" xmlns="http://www.w3.org/2000/svg" xmlns:xlink="http://www.w3.org/1999/xlink" x="0px" y="0px" viewBox="0 0 500 470" preserveAspectRatio="none">
    <defs id="__def">
        <radialGradient id="f">
            <stop offset="0" stop-color="white" stop-opacity="1"/>
            <stop id="STOP1" offset=".4" stop-opacity="1"/>
            <stop offset="1" stop-color="white" stop-opacity=".2"/>
        </radialGradient>
        <filter id="__flt1" x="0" y="0" width="200%" height="200%" filterUnits="objectBoundingBox">
            <feGaussianBlur in="SourceAlpha" stdDeviation="3" result="blur1"/>
            <feSpecularLighting result="specOut" in="blur1" specularConstant="1.5" specularExponent="20" lighting-color="#bbbbbb">
                <feDistantLight azimuth="45" elevation="30"/>
            </feSpecularLighting>
            <feComposite in="specOut" in2="SourceAlpha" operator="in" result="specOut"/>
            <feComposite in="SourceGraphic" in2="specOut" operator="arithmetic" k1="0" k2="1" k3="1" k4="0"/>
        </filter>
        <filter id="__flt2" x="0" y="0" width="200%" height="200%" filterUnits="objectBoundingBox">
            <feGaussianBlur in="SourceAlpha" stdDeviation="3" result="blur1"/>
            <feSpecularLighting result="specOut" in="blur1" specularExponent="20" lighting-color="#bbbbbb">
                <fePointLight x="-2000" y="100" z="2000"/>
            </feSpecularLighting>
            <feComposite in="specOut" in2="SourceAlpha" operator="in" result="specOut"/>
            <feComposite in="SourceGraphic" in2="specOut" operator="arithmetic" k1="0" k2="1" k3="1" k4="0"/>
        </filter>
        <filter id="__flt3" x0="-50%" y0="-50%" width="200%" height="200%" filterUnits="objectBoundingBox">
            <feGaussianBlur in="SourceAlpha" stdDeviation="3" result="blur"/>
            <feOffset in="blur" dx="0" dy="0" result="offsetBlur"/>
            <feSpecularLighting in="blur" surfaceScale="4" specularConstant=".5" specularExponent="20" lighting-color="flavor" result="specOut">
                <fePointLight x="-5000" y="-10000" z="5000"/>
            </feSpecularLighting>
            <feComposite in="specOut" in2="SourceAlpha" operator="in" result="specOut"/>
            <feComposite in="SourceGraphic" in2="specOut" operator="arithmetic" k1="0" k2="1" k3="1" k4="0" result="litPaint"/>
            <feMerge>
                <feMergeNode in="offsetBlur"/>
                <feMergeNode in="litPaint"/>
            </feMerge>
        </filter>
        <filter id="__flt4" x0="-50%" y0="-50%" width="200%" height="200%">
            <feGaussianBlur in="SourceAlpha" stdDeviation="2" result="blur"/>
            <feOffset dy="-1" dx="-1"/>
            <feComposite in2="SourceAlpha" operator="arithmetic" k2="-1" k3="1" result="hlDiff"/>
            <feFlood flood-color="white" flood-opacity=".7"/>
            <feComposite in2="hlDiff" operator="in"/>
            <feComposite in2="SourceGraphic" operator="over" result="withGlow"/>
            <feOffset in="blur" dy="3" dx="3"/>
            <feComposite in2="SourceAlpha" operator="arithmetic" k2="-1" k3="1" result="shadowDiff"/>
            <feFlood flood-color="black" flood-opacity="1"/>
            <feComposite in2="shadowDiff" operator="in"/>
            <feComposite in2="withGlow" operator="over"/>
        </filter>
        <filter id="__golge1" x="0" y="0" width="200%" height="200%" filterUnits="userSpaceOnUse">
            <feOffset result="offOut" in="SourceAlpha" dx="8" dy="8"/>
            <feGaussianBlur result="blurOut" in="offOut" stdDeviation="3"/>
            <feBlend in="SourceGraphic" in2="blurOut" mode="normal"/>
        </filter>
    </defs>
    <g id="__Komsular" display="none">
        <path fill-rule="evenodd" clip-rule="evenodd" fill="none" stroke="#000000" stroke-miterlimit="10" d="M144.9,0   c0,3.49,0.58,5.86-0.64,8.97c-1,2.54-2.21,5.64-2.49,8.47c-0.38,3.8,2.97,4.66,2.99,7.64c0.01,1.51-1.04,2.89-1.03,4.51   c0.01,1.64,0.61,2.98,0.78,4.51c0.2,1.78,0.13,3.54,0.2,5.29c0.1,2.54-1.44,2.51-1.97,4.5c-0.96,3.6,1.55,6.51,1.35,9.97   c-2.39,1.78-4.85,2.79-5.02,6.3c-0.07,1.59,0.23,3,1.09,4.32c0.64,0.98,2.02,1.92,2.39,2.94"/>
        <path fill-rule="evenodd" clip-rule="evenodd" fill="none" stroke="#000000" stroke-miterlimit="10" d="M419.65,167.75   c3.36,0.46,6.17-0.8,9.6-0.98c1.8-0.09,2.89-0.48,4.3-1.52c1.42-1.04,1.82-2.34,3.14-3.34c1.27-0.95,3.2-0.69,4.33-1.65   c1.03-0.88,1.22-2.82,2.48-3.73c3.05-2.21,5.73,0.84,6.76,3.53c0.84,2.2,0.56,4.65,1.51,6.71c0.31,0.68,1.14,2.55,1.77,2.89   c0.81,0.44,2.96,0.15,3.89,0.27c1.69,1.88,5.04,2.76,7.68,3.3c3.05,0.63,6.05,1.82,9.42,1.38c2.76-0.36,6.44-0.02,8.99-0.76   c1.73-0.5,2.93-1.19,4.7-1.4c1.66-0.19,3.34-0.22,4.91-0.6c1-0.24,2.13-0.83,3.13-0.98c1.24-0.19,2.57,0.24,3.73-0.19"/>
        <path fill-rule="evenodd" clip-rule="evenodd" fill="none" stroke="#000000" stroke-miterlimit="10" d="M334.01,399.2   c1.44-0.25,2-1.71,3.1-2.19c0.85-2.26,1.36-4.15,3.02-5.84c1.54-1.57,3.26-2.89,4.86-4.47c1.8-1.76,2.88-3.37,4.15-5.49   c1.19-1.98,3.32-3.51,4.3-5.3c0.17-0.08,0.34-0.01,0.52-0.06c1.43-2.48,4.68-4.07,7.13-5.81c2.25-1.6,4.26-3.83,6.77-5.58   c2.4-1.68,5.64-2.14,8.23-3.88c2.54-1.7,5.25-3.25,7.69-5.12c0.77-0.59,1.48-1.53,2.49-1.98c1.05-0.47,2.41-0.48,3.59-0.88   c2.04-0.69,4.43-1.48,5.71-3.35c2.56-1.09,6.21-1.83,8.98-2.24c3.15-0.47,6.46-0.06,9.41,0.64c2.8,0.67,6.17,1.21,8.82,2.35   c2.95,1.26,5.59,2.37,9.01,2.36c6.38-0.02,12.05,1.44,18.03,2.94c1.5,0.38,2.96,1.04,4.51,1.37c1.61,0.34,3.31,0.19,4.9,0.59   c2.83,0.7,5.96,0.89,8.81,1.57c2.17,0.52,3.86,1.94,6.08,2.55"/>
        <path fill-rule="evenodd" clip-rule="evenodd" fill="none" stroke="#000000" stroke-miterlimit="10" d="M88.46,342.36   c0,2.7-1.93,6.2-3.49,8.23c-1.78,2.31-5.97,1.51-8.41,0.74c-2.65-0.85-5.58-1.69-8.14-2.64c-1.46-0.54-2.6-1.54-4.07-1.97   c-1.54-0.44-3.34-0.24-4.9,0c-2.34,0.36-4.93,0.99-7.25,0.16c-1.75-0.63-5.94-1.31-6.3-3.3c-2.94-1.91-6.25-0.6-9.37-0.43"/>
        <text transform="matrix(0.0253 -0.9997 0.9997 0.0253 26.2598 220.4907)" font-family="'MyriadPro-Regular'" font-size="11.7583">GİRESUN</text>
        <text transform="matrix(1 0 0 1 156.2642 437.0186)" font-family="'MyriadPro-Regular'" font-size="11.7583">ERZİNCAN</text>
        <text transform="matrix(0.288 -0.9576 0.9576 0.288 424.9302 296.2832)" font-family="'MyriadPro-Regular'" font-size="11.7583">BAYBURT</text>
        <text transform="matrix(1 0 0 1 317.3535 50.3652)" font-family="'MyriadPro-Regular'" font-size="11.7583">TRABZON</text>
    </g>
    <g id="__Harita" fill="white" stroke="#000000" stroke-width="1" stroke-miterlimit="10" display="none">
        <rect id="__cer" x="0" y="0" fill="#000000" opacity="0" width="500" height="470"/>
        <g id="__Kelkit">
            <path d="M211.38,408.75    c0.15,0.13,0.78,0.75,0.93,0.88c0.29,0.34,0.59,0.39,1.18,0.93c1.11,0.65,2.22,1.31,3.33,1.96c2.35,1.18,4.7,2.35,7.06,3.53    c2.12,1.03,4.77,0.7,7.04,0.88c0.91,0.21,1.82,0.42,2.73,0.64c0.61,0.68,3.01,1.03,3.95,1.08c0.42,0.01,0.85,0.01,1.27,0.02    c1.21,0.11,2.41,0.22,3.62,0.32c1.83,0.07,3.66,0.13,5.49,0.2c1.5-0.13,3-0.26,4.51-0.39c2.29-0.1,4.58-0.2,6.87-0.31    c0.61,0.06,2.39-0.62,2.83-0.18c1.57,0,1.76,0,3.33,0c0.78-0.29,1.45,0.11,2.23-0.18c0.4,0.14,1.69-0.02,1.98-0.31    c3.44,0.3,7.16-0.2,10.58-0.59c2.61-0.46,5.23-0.91,7.84-1.37c0.65-0.2,1.31-0.39,1.96-0.59c2.81-0.59,5.62-1.18,8.43-1.76    c1.91-0.24,3.54-1.02,5.4-1.51c0.81-0.28,1.63-0.56,2.44-0.85c2.14-0.61,4.27-1.22,6.41-1.83c4.86-2.45,9.71-4.9,14.57-7.35    c1.56-0.73,3.13-1.45,4.69-2.18c0.48-0.33,1.55-0.23,1.55-0.86c0.02-0.4-0.14-1.26-0.39-1.47c-1.23-0.99-2.47-1.97-3.71-2.96    c-1.63-2.09-3.27-4.18-4.9-6.27c-1.44-2.48-2.87-4.96-4.31-7.45c-1.75-1.28-3.5-2.57-5.25-3.85c-0.86-0.09-1.23-0.47-2.09-0.56    c-0.44-0.51-1.38-0.72-1.82-1.23c-1.7-1.5-3.98-2.02-5.73-3.37c-1.44-1.18-2.87-2.35-4.31-3.53c-1.24-1.57-2.48-3.14-3.72-4.7    c-0.73-1.57-1.47-3.14-2.2-4.71c-0.31-0.65-0.62-1.3-0.93-1.95c-1.76-7.27-4.35-14.33-4.12-21.95c0.07-2.09,0.96-4.1,1.76-6.08    c0.38-0.68,0.75-1.36,1.13-2.03c-0.8-1.26-2.98-0.88-4.46-0.91c-1.83-0.03-3.23-0.54-4.7-1.57c-0.47-1.11-0.94-2.21-1.42-3.32    c-0.89-2.25-1.64-4.43-2.9-6.48c-0.68-1.1-0.9-2.39-1.73-3.36c-0.64-0.76-2.34-2.99-3.36-2.86c-0.39,0.05-0.79,0.1-1.18,0.15    c-0.86,0.61-3.37,2.46-4.05,1.51c-0.93-1.38-1.57-3.21-2.09-4.83c-0.24-0.72-0.48-1.45-0.72-2.17c-0.22-0.32-0.41-0.83-0.78-0.78    c-0.51-1.21-1.02-2.43-1.53-3.64c-0.34-0.55-0.68-1.1-1.02-1.65c-0.25-0.73-0.5-1.47-0.75-2.2c-1.71-2.73-3.42-5.46-5.13-8.19    c-0.2-0.59-0.39-1.18-0.59-1.76c-0.82-1.09-3.46-4.45-3.53-5.68c-0.33-0.52-0.65-1.05-0.98-1.57c-0.77-1-1.53-1.99-2.3-2.99    c-0.54-0.7-1.08-1.4-1.62-2.1c-0.76-0.93-2.5-1.21-2.94-2.35c-0.62-0.31-1.88-0.57-2.16-1.18c-3.14,0.33-6.27,0.65-9.41,0.98    c-3.21-1.85-6.12-4.8-8.18-7.74c-0.64-0.49-1.03-0.83-1.22-1.27c-2.33-2.71-5.04-5.04-8.62-4.31c-2.89,0.59-3,2.86-5.24,3.53    c-3.28,0.98-4.95-0.69-5.54-0.98c-0.95,0.06-4.49,0.47-5.1,0.98c-0.72,0-1.44,0-2.16,0c-1.04,0.14-0.88,0.05-1.81,0.54    c-0.12,0.79-0.23,2.4-0.34,3.18c0.39,1.83,0.78,3.66,1.18,5.49c-0.07,1.24-0.13,2.48-0.2,3.72c0,4.2-0.17,8.27-1.3,12.34    c-0.26,0.95-0.7,2.67-1.83,3.34c-0.56,0.22-2.71,1.29-3.77,1.42c-0.31,0.09-0.21,0.09-0.54,0.15c-0.07,0.01-0.13,0.01-0.2,0.02    c-2.42,0.23-6.1,1.38-7.84,3.12c-0.29,0.18-0.57,0.35-0.86,0.53c-0.98,0.33-1.77,1.13-1.91,2.2c-0.19,1.18-0.38,2.36-0.56,3.54    c-0.02,2.67-0.05,5.34-0.07,8.02c-0.3,2.15-0.6,4.3-0.89,6.44c-0.21,0.98-0.43,1.96-0.64,2.95c0.07,4.44-1.22,9.08-1.92,13.56    c-0.49,1.49-0.98,2.98-1.46,4.47c-0.66,2.55-1.47,5.25-3.24,7.29c-0.59,0.39-1.18,0.78-1.76,1.18c0,0.96-1.53,2.12-2.16,2.74    c-0.26-0.02-0.51-0.04-0.77-0.07c-0.13,0.09-0.27,0.18-0.4,0.26c-0.82-0.74-1.65-1.49-2.47-2.23c-0.37-0.33-0.6-0.39-0.67-0.91    c-0.91-0.63-1.82-1.25-2.73-1.88c-1.57-0.82-3.47-0.28-5.11-0.28c-0.57,0.34-0.98,0.96-1.57,0.59c-0.15,0.59-0.29,1.18-0.44,1.78    c0.08,2.67,0.16,5.35,0.24,8.02c-0.12,2.67-0.44,5.35,0.15,8c0.62,2.81,3.2,5.01,3.43,7.85c0.16,1.98-0.02,4.63-1.2,6.34    c-0.44,0.94-0.95,3.3-1.2,3.55c0.13,0.33,0.56,0.95,0.69,1.27c1.03,1.66,1.37,2.55,2.39,4.21c0.39,1.35,0.24,2.66,0.45,4.05    c0.21,0.58,0.42,1.16,0.64,1.75c0.17,0.61,0.29,1.34,0.74,1.8c1.9,1.94,4.45,2.79,7.01,3.59c1.12,0.3,2.25,0.6,3.37,0.9    c2.02,0.29,4.03,0.58,6.05,0.86c1.89,0.58,3.79,1.16,5.68,1.75c0.92,0.37,1.85,0.74,2.77,1.11c2.91,1.88,5.71,3.23,9.02,4.31    c2.32,0.76,7.62,0.76,9.21,2.35c0.77,0,3.9-0.21,4.31,0.2c1.26,0.21,3.77,1.08,4.7,1.96C206.13,404.8,211.23,408.72,211.38,408.75    z"/>
            <circle cx="227.21" cy="319.83" r="1.586"/>
        </g>
        <g id="__Torul">
            <path d="M181.38,257.8    c-0.43-0.32-0.19-1.45-0.29-2.04c-0.25-1.43-0.49-2.86-0.73-4.29c-0.77-3.68-1.47-7.76-1.11-11.57c0.23-2.48,0.12-4.81,1.13-7.08    c0.78-1.76,1.18,0.2,6.72-6.28c0.96-1.69,1.92-3.39,2.88-5.08c0.33-1.37,0.65-2.74,0.98-4.12c0.98-1.37,1.96-2.74,2.94-4.12    c0.38-1.04,1.18-1.76,1.96-2.55c-0.18-0.59,0.65-1.32,1.04-1.73c1.22-1.45,2.44-2.9,3.66-4.35c0.21-0.65,0.43-1.29,0.64-1.94    c0.24-0.73,0.49-1.45,0.73-2.18c0.59-1.15,1.32-2.09,1.76-3.33c-0.24-1.49-0.48-2.98-0.72-4.47c-0.21-0.28-0.42-0.55-0.63-0.83    c-0.52-1.02-1.04-2.03-1.57-3.05c-1.21-1.17-2.41-2.34-3.62-3.51c-0.7-1.21-1.39-2.42-2.09-3.63c0-1.99-0.62-3.93-0.98-5.88    c0.33-0.78,0.65-1.57,0.98-2.35c0.62-0.05,0.97-1.21,1.6-1.47c2.13-0.89,4.19-1.55,6.43-2.06c1.05,0.53,4.34,0.09,5.52-0.13    c0.52-0.1,1.36-0.09,1.73-0.46c3.55-0.57,6.99-1.04,10.58-1.37c1.15-0.79,4.02-1.03,5.47-1.37c1.24-0.29,2.17-2.16,3.74-3.14    c0.3-0.19,2.55-1.76,3.92-2.55c0.5,0.27,1.41-0.11,1.95-0.23c1.7-0.33,3.4-0.67,5.1-1c2.14-0.34,4.33-1.13,6.28-2.1    c0.4,0.16,3.37-0.84,3.91-1.1c0.78-0.24,1.56-0.49,2.34-0.73c1.44-0.46,2.81-1,4.34-1.11c0.92-0.04,1.83-0.08,2.75-0.12    c1.37-0.18,0.89-1.96,0.94-3.02c-0.18-1.57-0.37-3.13-0.55-4.7c-0.11-1.45-0.23-1.77,0.2-3.14c0.04-0.13,0.55-1.63,0.59-1.76    l-0.26,0.36c0.16-0.4-0.4-0.57-0.71-0.61c-1.17-0.22-2.34-0.43-3.52-0.65c-1.12-0.16-2.23-0.31-3.35-0.47    c-0.72-0.2-1.44-0.39-2.16-0.59c-1.83-0.03-3.67-0.07-5.5-0.1c-1.23,0.02-3.53-0.14-3.91,1.28c-2.32-3.23-4.82-2.1-8.05-2.52    c-0.58-0.4-1.17-0.8-1.75-1.2c-0.39-0.13-0.78-0.26-1.18-0.39c-0.2-0.39,0.86,0.17-0.98-1.18c-0.23-0.68-3.69-1.48-3.92-2.16    c-0.76-0.23-1.42-1.22-1.92-1.83c-1.72-2.11-2.3-5.53-3.22-8.15c-0.05-0.2-0.11-0.4-0.16-0.61c0.22,0.11-0.52-2.03-1.37-2.16    c-0.72-1.22-2-1.85-3.32-2.28c-1.64-0.35-3.27-0.7-4.91-1.05c-1.05-0.38-2.1-0.77-3.15-1.15c-0.84-0.33-1.69-0.67-2.54-1    c-1.63-1.04-3.27-2.09-4.9-3.14c-1.56-1.19-3.12-2.38-4.68-3.57c-0.14-0.12-0.52-0.05-0.57,0.1c-1.14,0.22-2.13,0.71-2.98,1.51    c-1.07,0-3.47,1.68-4.26,2.42c-2.04,2.13-4.09,4.27-6.13,6.4c-0.65,0.59-1.31,1.18-1.96,1.76c-1.06,0.63-3.84,1.69-5.1,1.57    c-2.06-0.21-3.94-0.16-5.84,0.88c-1.52,0.95-3.03,1.9-4.55,2.85c-1.31,0.59-2.61,1.18-3.92,1.76c-1.56,1-3.12,2-4.68,2.99    c-0.17,0.24-0.35,0.48-0.52,0.72c-1.21,0.97-2.42,1.94-3.63,2.92c-1.24,1.3-2.05,2.69-3.71,3.56c-0.59,0.06-1.18,0.13-1.76,0.2    c-2.5-0.21-5.15-0.42-7.64,0c-0.65-0.52-2.51-0.17-3.31-0.04c-1.25,0.39-2.51,0.78-3.76,1.16c-0.4,0.13-0.76,1.04-1.16,1.04    c-1.92,0.06-2.01,1.44-3.33,2.55c-1.93,1.62-3.82,3.34-4.9,5.68c-0.15,0.79-0.31,1.58-0.46,2.38c-0.95,4.76-0.9,9.67-1.65,14.45    c-0.38,2.37-1.21,5.02-2.38,7.1c-0.18,0.57-0.35,1.15-0.53,1.72c-0.74,1.8-1.48,3.61-2.22,5.41c-1.4,2.42-3.45,4.33-5.32,6.36    c-2.67,2.81-5.35,5.63-8.02,8.44c-0.91,0.72-0.84,0.42-1.57,1.11c-0.17,0.16-1.6,1.47-1.76,1.63c0.26,0.23,1.76,1.62,2.41,2.5    c2.28,3.08,5.05,5.6,7.58,8.48c0.48,1.24,0.97,2.47,1.45,3.71c0.5,1.77,0.99,3.54,1.49,5.3c0.59,1.44,1.18,2.87,1.76,4.31    c0.12,0.98,0.24,1.96,0.36,2.94c-0.02,1.31-0.05,2.62-0.07,3.93c0.09,0.86,0.17,1.72,0.26,2.58c0.08,0.38,0.16,0.76,0.24,1.13    c0.12,0.11,0.24,0.8,0.36,0.91l0.23,0.46c1.15,0.04,2.29,0.09,3.44,0.13c0.94,0.22,1.89,0.44,2.84,0.66c1.11,0,3.4,0.29,4.51,0.29    c1.37-0.39,1.57-1.08,2.94-1.47c6.06-0.73,11.29-0.76,16.07,3.72c0.34,0.15,0.69,0.31,1.04,0.46c1.78,0.77,4.15,0.99,5.31,2.69    c0.23,0.33,0.49-0.01,0.54,0.37c0.19,0.92,0.38,1.83,0.56,2.75c-0.29,1.5-0.56,2.92-0.04,4.41c-0.43,0.83-0.27,1.53-0.15,2.45    c0.92,1.85,1.85,3.7,2.77,5.55c0.84,0.83,1.68,1.66,2.52,2.49c0.72,0.39,1.44,0.78,2.16,1.18c3.65,0.81,7.29,0.61,10.97-0.2    c3.14-0.37,6.28-0.73,9.41-1.1L181.38,257.8z"/>
            <circle cx="186.84" cy="159.52" r="1.586"/>
        </g>
        <g id="__Şiran">
            <path d="M68.3,305.34    c0.77-2.55,1.55-5.1,2.32-7.65c0.7-2.11,2.14-3.82,2.43-6.09c0.25-1.96-0.06-3.73-0.09-5.66c-0.01-0.57,0.33-1.52,0.01-1.96    c0.17-0.21,1.93-1.37,1.76-1.86c0.73-0.69,1.27-1.3,1.57-2.25c1.1-0.93,1.93-1.43,3.14-2.16c0.93-0.69,1.86-1.38,2.79-2.07    c0.75-0.5,2.74-2.07,3.67-1.85c1.08-0.59,2.45-1.08,3.04-1.96c0.39-0.59,1.27-2.55,1.67-3.14c0.3-1.38,0.59-2.76,0.89-4.14    c0.36-1.1,0.71-2.2,1.07-3.31c0.57-0.85,1.15-1.7,1.72-2.55c0.17-0.7,0.34-1.4,0.51-2.1c0.5-0.8,1.58-1.89,2.08-2.69    c1.01-0.98,1.79-1.63,2.46-2.93c0.68-1.34,1.36-2.69,2.05-4.03c0.65-0.91,1.31-1.83,1.96-2.74c1.83-1.47,3.74-2.24,5.86-3.18    c0.99-0.44,1.97-0.89,2.96-1.33c0.52-0.72,1.04-1.44,1.57-2.16c0.25-0.6-0.08-1.34,0.59-1.76c0.06-0.45,0.07-1.7,0.31-1.71    c0.29-0.12,0.22-0.03,0.28-0.44c1.15,0.04,2.29,0.09,3.44,0.13c0.94,0.22,1.89,0.44,2.84,0.66c1.11,0,3.4,0.29,4.51,0.29    c1.37-0.39,1.57-1.08,2.94-1.47c6.06-0.73,11.29-0.76,16.07,3.72c0.34,0.15,0.69,0.31,1.04,0.46c1.78,0.77,4.15,0.99,5.31,2.69    c0.23,0.33,0.49-0.01,0.54,0.37c0.19,0.92,0.38,1.83,0.56,2.75c-0.29,1.5-0.56,2.92-0.04,4.41c-0.43,0.83-0.27,1.53-0.15,2.45    c0.92,1.85,1.85,3.7,2.77,5.55c0.84,0.83,1.68,1.66,2.52,2.49c0.72,0.39,1.44,0.78,2.16,1.18c3.65,0.81,7.29,0.61,10.97-0.2    c3.14-0.37,6.28-0.73,9.41-1.1l1.59-0.18c0.26,0.2,2.17,0.28,2.87,0.47c0.9,0.24,1.75,0.79,2.68,1.02    c0.99,0.24,2.07,0.29,3.07,0.54c1.51,0.38,3.05,0.69,4.61,0.77c0.79,0.04,1.18,0,1.18,0c-0.12,0.79-0.23,2.4-0.34,3.18    c0.39,1.83,0.78,3.66,1.18,5.49c-0.07,1.24-0.13,2.48-0.2,3.72c0,4.2-0.17,8.27-1.3,12.34c-0.26,0.95-0.7,2.67-1.83,3.34    c-0.56,0.22-2.71,1.29-3.77,1.42c-0.31,0.09-0.21,0.09-0.54,0.15c-0.07,0.01-0.13,0.01-0.2,0.02c-2.42,0.23-6.1,1.38-7.84,3.12    c-0.29,0.18-0.57,0.35-0.86,0.53c-0.98,0.33-1.77,1.13-1.91,2.2c-0.19,1.18-0.38,2.36-0.56,3.54c-0.02,2.67-0.05,5.34-0.07,8.02    c-0.3,2.15-0.6,4.3-0.89,6.44c-0.21,0.98-0.43,1.96-0.64,2.95c0.07,4.44-1.22,9.08-1.92,13.56c-0.49,1.49-0.98,2.98-1.46,4.47    c-0.66,2.55-1.47,5.25-3.24,7.29c-0.59,0.39-1.18,0.78-1.76,1.18c0,0.96-1.53,2.12-2.16,2.74c-0.26-0.02-1.04,0.11-1.18,0.2    c-0.82-0.74-1.65-1.49-2.47-2.23c-0.37-0.33-0.6-0.39-0.67-0.91c-0.91-0.63-1.82-1.25-2.73-1.88c-1.57-0.82-3.47-0.28-5.11-0.28    c-0.57,0.34-0.98,0.96-1.57,0.59c-0.15,0.59-0.29,1.18-0.44,1.78c0.08,2.67,0.16,5.35,0.24,8.02c-0.12,2.67-0.44,5.35,0.15,8    c0.62,2.81,3.2,5.01,3.43,7.85c0.16,1.98-0.02,4.63-1.2,6.34c-0.44,0.94-0.95,3.3-1.2,3.55l-0.29-0.37c-0.3,0-0.85-0.82-1.03-1.09    c-1.49-2.16-2.82-3.01-5.14-3.91c-0.93-0.5-1.85-1-2.78-1.49c-1.83-0.9-3.67-1.66-5.65-2.24c-4.63-1.14-9.26-2.29-13.9-3.43    c-0.68-0.24-2.11-1.1-2.76-0.88c-1.14-0.8-2.28-1.6-3.42-2.41c-0.89-0.57-1.77-1.14-2.66-1.71c-0.98-0.65-1.96-1.31-2.94-1.96    c-0.66-0.16-0.88-0.59-1.57-0.78c-0.45-0.37-0.78-0.29-1.47-0.88c-0.59-0.78-1.27-0.69-1.86-1.47c-2.21-1.72-4.63-3.31-6.53-5.39    c-1.15-0.22-2.36-1.53-3.26-2.25c-1.87-1.02-3.74-2.04-5.6-3.06c-0.67-0.33-2.74-1.12-3.07-1.73c-0.74-1.47-0.52-3.37-0.15-5    c0.21-0.9,0.28-3.97-0.2-4.7c-0.04-0.65-0.08-1.3-0.12-1.95c-0.34-1.44-1.83-4.71-3.17-5.5c-1.26-0.9-2.53-1.8-3.79-2.71    c-1.14-1.09-2.49-2.06-3.9-2.77c-1.37-0.85-2.74-1.7-4.12-2.55c-0.74-0.71-2.34-2.96-3.14-3.14c-0.62-1.98-1.25-3.96-1.87-5.94    c-0.18-0.37,0.19-0.46,0.01-0.82L68.3,305.34z"/>
            <circle cx="137.26" cy="298.86" r="1.586"/>
        </g>
        <g id="__Köse">
            <path d="M249.79,274.5    c0.77,1,1.53,2,2.3,2.99c0.33,0.52,0.65,1.05,0.98,1.57c0.06,1.24,2.71,4.59,3.53,5.68c0.2,0.59,0.39,1.18,0.59,1.76    c1.71,2.73,3.42,5.46,5.13,8.19c0.25,0.73,0.5,1.47,0.75,2.2c0.34,0.55,0.68,1.1,1.02,1.65c0.51,1.21,1.02,2.43,1.53,3.64    c0.38-0.04,0.57,0.47,0.78,0.78c0.24,0.72,0.48,1.45,0.72,2.17c0.52,1.62,1.15,3.45,2.09,4.83c0.68,0.95,3.19-0.9,4.05-1.51    c0.39-0.05,0.79-0.1,1.18-0.15c1.02-0.13,2.72,2.1,3.36,2.86c0.83,0.98,1.05,2.26,1.73,3.36c1.26,2.05,2,4.22,2.9,6.48    c0.47,1.11,0.94,2.21,1.42,3.32c1.47,1.02,2.87,1.54,4.7,1.57c1.47,0.02,3.65-0.36,4.46,0.91l1.42-1.3    c1.83-1.83,3.49-3.84,5.49-5.49c0.61,0,1.43-0.47,1.96-0.78c0.66-0.5,1.32-1.01,1.98-1.51c1.44-0.64,2.88-1.28,4.32-1.92    c0.89-0.27,1.78-0.55,2.67-0.82c1.58-0.68,3.15-1.36,4.73-2.03c2.03-0.52,4.07-1.03,6.1-1.55c1.08,0,4.77-1.48,5.68-2.16    c1.5-1.18,3-2.35,4.51-3.53c1.47-1.8,2.94-3.6,4.42-5.4c0.85-1.01,2.84-3.45,2.84-4.79c1.48-2.29,2.7-4.53,3.7-7.09    c0.66-2.08,1.32-4.16,1.98-6.24c-0.01-0.85-0.02-1.7-0.02-2.55c-0.06-1.91-0.12-3.59-0.37-5.49c0.06-0.78,0.13-1.57,0.2-2.35    c-0.52-2.61-1.04-5.23-1.57-7.84c-0.46-2.49-2.09-5.23-2.36-7.8c-0.39-1.26-0.78-2.51-1.16-3.77c-0.13-1.04-0.16-2.06-0.29-3.11    c0.14-0.91,0.61-3.67,0.72-4.07c-0.2,0.01-0.37,0.07-0.54,0.14c-1.53,0.91-3.07,1.83-4.6,2.74c-0.85,0.39-1.7,0.78-2.55,1.16    c-1.93,1.93-4.58,3.02-7.11,4.02c-0.91,0.36-4.19,1.94-4.84,1.86c-1.21,0.91-1.9,2.18-2.98,3.12c-0.38,0.26-0.56,0.93-0.94,1.19    c-0.43-0.01-0.59,0-1.18-0.2c-2.29-0.91-4.57-1.83-6.86-2.74c-1.05-0.21-2.09-0.42-3.14-0.63c-0.59,0.01-1.17,0.03-1.76,0.04    c-1.7,1.04-3.4,2.09-5.1,3.14c-0.79,0.69-1.58,1.37-2.37,2.06c-1.89,1.34-3.78,2.68-5.67,4.02c-0.85,0.52-1.7,1.05-2.55,1.57    c-0.85,0.26-1.7,0.52-2.55,0.78c-2.16-0.46-4.31-0.91-6.47-1.37c-2.51,0.23-4.48,1.61-7.05,1.37c-2.6-0.24-4.72-1.73-7.45-1.18    c-1.31,0.59-2.61,1.18-3.92,1.76c-0.51,0.21-1.03,0.42-1.54,0.62c-1.9,1.1-3.8,2.2-5.7,3.31c-1.01,0.77-1.7,1.24-2.66,1.92    L249.79,274.5z"/>
            <circle cx="288.74" cy="291.41" r="1.586"/>
        </g>
        <g id="__Gümüşhane">
            <path d="M181.09,255.76    c0.1,0.59-0.14,1.72,0.29,2.04c0.26,0.2,2.17,0.28,2.87,0.47c0.9,0.24,1.75,0.79,2.68,1.02c0.99,0.24,2.07,0.29,3.07,0.54    c1.51,0.38,3.05,0.69,4.61,0.77c0.79,0.04,1.14-0.07,1.83-0.33c0.36-0.13,0.79-0.21,1.17-0.21c0.72,0,1.44,0,2.16,0    c0.6-0.51,4.15-0.92,5.1-0.98c0.59,0.29,2.25,1.96,5.54,0.98c2.25-0.67,2.35-2.94,5.24-3.53c3.58-0.73,6.3,1.6,8.62,4.31    c0.2,0.44,0.59,0.78,1.22,1.27c2.06,2.94,4.97,5.89,8.18,7.74c3.14-0.33,6.27-0.65,9.41-0.98c0.27,0.6,1.54,0.87,2.16,1.18    c0.44,1.14,2.18,1.42,2.94,2.35c0.54,0.7,1.08,1.4,1.62,2.1l0.64-0.56c0.96-0.69,1.65-1.16,2.66-1.92c1.9-1.1,3.8-2.21,5.7-3.31    c0.51-0.21,1.03-0.42,1.54-0.62c1.31-0.59,2.61-1.18,3.92-1.76c2.73-0.55,4.84,0.94,7.45,1.18c2.57,0.24,4.55-1.14,7.05-1.37    c2.16,0.46,4.31,0.91,6.47,1.37c0.85-0.26,1.7-0.52,2.55-0.78c0.85-0.52,1.7-1.05,2.55-1.57c1.89-1.34,3.78-2.68,5.67-4.02    c0.79-0.69,1.58-1.37,2.37-2.06c1.7-1.04,3.4-2.09,5.1-3.14c0.59-0.01,1.17-0.03,1.76-0.04c1.05,0.21,2.09,0.42,3.14,0.63    c2.29,0.91,4.57,1.83,6.86,2.74c0.59,0.2,0.75,0.18,1.18,0.2c0.38-0.26,0.56-0.93,0.94-1.19c1.08-0.93,1.77-2.21,2.98-3.12    c0.66,0.08,3.93-1.5,4.84-1.86c2.53-1,5.18-2.09,7.11-4.02c0.85-0.39,1.7-0.78,2.55-1.16c1.53-0.91,3.07-1.83,4.6-2.74    c0.17-0.07,0.5-0.22,0.5-0.22c0.4-1.04,0.8-2.08,1.2-3.12c1.23-2.16,2.47-4.32,3.7-6.48c0.06-0.65,1.25-2.07,1.37-1.96    c0.08-0.19,0.17-0.37,0.25-0.56c1.08-2.44,2.2-4.66,3.13-7.15c0.38-1.09,0.75-2.18,1.13-3.27c0.33-2.09,0.65-4.18,0.98-6.27    c0.75-2.75,0.85-5.72,2.25-8.27c0.85-1.23,1.71-2.47,2.56-3.71c0.99-0.81,3.13-2.37,3.61-3.51c1.26-0.78,2.57-1.74,3.53-2.94    c1.5-1.88,2.79-4.26,3.7-6.53c2.03-1.15,4.07-2.31,6.1-3.46c1.24-0.33,2.48-0.65,3.72-0.98c0.59-0.26,1.18-0.52,1.76-0.78    c0.72-0.69,1.45-1.39,2.17-2.08c0.84-0.48,1.69-0.96,2.54-1.45c1.17-0.18,3.33-1.05,4.31,0c0.33,0,0.65,0,0.98,0    c4.58-1.1,9.18-2.02,13.88-2.65c0.99-0.1,1.98-0.2,2.97-0.29c1.11,0.07,2.22,0.13,3.33,0.2c1.44-0.2,2.88-0.39,4.32-0.59    c0.33-0.2,0.65-0.39,0.98-0.59c0.85-1.18,1.7-2.35,2.55-3.53c0.19-0.69,0.38-1.38,0.58-2.06c0.66-1.62,1.24-3.07,1.54-4.8    c0.34-0.59,0.68-1.17,1.02-1.76c-0.04-0.57-0.51-1.85-0.39-2.16c-0.46-0.59-0.92-1.18-1.37-1.76c-0.13-0.72-0.26-1.44-0.39-2.16    c0.2-1.37,0.39-2.74,0.59-4.12c0.33-0.72,0.65-1.44,0.98-2.16c0.13-0.59,1.07-1.87,0.59-2.35c0-3.16-4.63-5.19-7.06-6.49    c-4.62-2.46-10.36-6.33-12.74-11.15c-0.65-0.72-1.31-1.44-1.96-2.16c-2.31-1.24-3.41-2.24-6.08-2.37    c-0.54-0.03-0.91-0.18-1.38,0.17c-1.23,0.95-2.06,2.04-2.74,3.37c-2.06,4.01-1.7,6.56,0.32,10.43c0.63,1.2,1.12,2.24,2.03,3.3    c1.18,1.5,2.35,3.01,3.53,4.51c2.54,2.54,3.76,2.62,3.53,6.47c-0.32,0.32-0.82,1.29-0.78,1.76c-0.39,0.49-0.79,0.98-1.18,1.48    c-1.04,0.78-2.07,1.57-3.11,2.35c-1.98,1.06-3.95,1.54-6.11,2.05c-0.78,0.2-1.56,0.39-2.33,0.59c-0.85,0.33-1.7,0.65-2.55,0.98    c-1.93,0.37-4.27,1.31-6.27,0.98c-0.59-0.2-1.18-0.39-1.76-0.59c-0.52-0.2-1.05-0.39-1.57-0.59c-0.64-0.26-1.05-1.16-1.76-1.18    c-0.72-0.85-1.44-1.7-2.16-2.55c-0.25-0.47-0.65-1.68-1.18-1.76c-0.72-2.39-0.98-4.78-1.31-7.23c-0.09-0.27-0.19-0.53-0.28-0.8    c-0.12-1.31-0.25-2.61-0.37-3.92c-0.58-2.49-2.82-6.71-4.9-8.43c-0.65-0.54-2.25-0.95-2.55-1.76c-1.76-0.37-3.54,0.17-5.27-0.12    c-2.49-0.42-4.97-0.47-7.47-1.1c-2.24-0.56-4.98-1.68-5.22-4.28c-0.13-2.03-0.09-4.06,0.32-6.06c0.51-1.89,1.02-3.78,1.53-5.67    c0.21-0.85,0.42-1.71,0.63-2.57c0.13-1.04,0.26-2.09,0.39-3.14c-0.39-1.24-0.78-2.48-1.18-3.72c0-0.47,0.62-0.7,0.98-0.59    c-0.06-0.5-0.12-1.01-0.18-1.51c-0.13-0.15-0.27-0.3-0.4-0.45c0.3-1.2,0.59-2.28,0.59-3.53c0.46-0.2,0.91-0.39,1.37-0.59    c0.74-1.19,1.46-3.43,1.02-4.73c-0.56-1.37-1.47-2.14-2.42-3.3c-0.32-0.46-0.63-0.92-0.95-1.38c-2.74-1.44-6.28-1.6-8.97,0.19    c-2.2-0.95-4.65,0.67-5.93,2.36c-0.07,1.04-0.13,2.09-0.2,3.14c-0.25,0.32-0.57,0.57-0.59,0.98c-2.82,2.34-7.97,5.46-8.82,9.21    c-0.5,1.71-1,3.41-1.51,5.12c-0.14,0.68-0.06,1.58-0.65,1.94c0.11,0.65,0.22,1.31,0.34,1.96c0.09,0.72,0.03,2.72-0.54,2.81    c-0.53,0.07-0.83,0.07-1.36-0.07c-0.55,0.38-1.09,0.76-1.64,1.15c-0.6,1.35-0.96,2.49-1.19,3.93c-0.08,0.5-0.06,1.73-0.31,1.98    c-0.12,1.25-0.03,2.77-0.98,3.72c-1.24,0.59-2.48,1.18-3.72,1.76c-1.18-0.09-4.48-0.85-5.1-1.76c-3.24-0.61-8.24-0.18-10.78,2.16    c-0.33,0-0.65,0-0.98,0c-2.24-1.15-4.48-2.02-7.05-1.54c-0.92,0.25-1.83,0.51-2.75,0.76c-0.59,0-1.18,0-1.76,0    c-1.04,0.32-2.07,0.77-2.89,1.45c-0.62,0.51-1.73,1.23-1.62,2.08c-1.5,0.65-3.01,1.31-4.51,1.96c-1.05,0.04-2.1,0.08-3.15,0.12    c-0.9,0.09-2.03,0.52-2.54-0.12c-0.04,0.13-0.55,1.63-0.59,1.76c-0.43,1.37-0.31,1.69-0.2,3.14c0.18,1.57,0.37,3.13,0.55,4.7    c-0.05,1.06,0.43,2.84-0.94,3.02c-0.92,0.04-1.83,0.08-2.75,0.12c-1.53,0.11-2.9,0.65-4.34,1.11c-0.78,0.24-1.56,0.49-2.34,0.73    c-0.54,0.26-3.5,1.26-3.91,1.1c-1.95,0.98-4.14,1.76-6.28,2.1c-1.7,0.33-3.4,0.67-5.1,1c-0.54,0.12-1.45,0.5-1.95,0.23    c-1.37,0.78-3.62,2.36-3.92,2.55c-1.57,0.98-2.5,2.85-3.74,3.14c-1.45,0.34-4.32,0.58-5.47,1.37c-3.59,0.34-7.03,0.8-10.58,1.37    c-0.37,0.37-1.21,0.36-1.73,0.46c-1.18,0.22-4.47,0.66-5.52,0.13c-2.24,0.51-4.3,1.17-6.43,2.06c-0.63,0.26-0.98,1.42-1.6,1.47    c-0.33,0.78-0.65,1.57-0.98,2.35c0.36,1.94,0.98,3.89,0.98,5.88c0.7,1.21,1.39,2.42,2.09,3.63c1.21,1.17,2.41,2.34,3.62,3.51    c0.52,1.02,1.04,2.03,1.57,3.05c0.21,0.28,0.42,0.55,0.63,0.83c0.24,1.49,0.48,2.98,0.72,4.47c-0.44,1.24-1.17,2.18-1.76,3.33    c-0.24,0.73-0.49,1.45-0.73,2.18c-0.21,0.65-0.43,1.29-0.64,1.94c-1.22,1.45-2.44,2.9-3.66,4.35c-0.39,0.41-1.22,1.14-1.04,1.73    c-0.78,0.78-1.58,1.51-1.96,2.55c-0.98,1.37-1.96,2.74-2.94,4.12c-0.33,1.37-0.65,2.74-0.98,4.12c-0.96,1.69-1.92,3.39-2.88,5.08    c-5.54,6.48-5.93,4.52-6.72,6.28c-1.01,2.27-0.9,4.6-1.13,7.08c-0.35,3.81,0.35,7.9,1.11,11.57    C180.6,252.9,180.85,254.33,181.09,255.76z"/>
            <circle cx="249.35" cy="206.16" r="1.586"/>
        </g>
        <g id="__Kürtün">
            <path d="M98.81,196.95    c-0.61-0.52-1-1.53-1.63-1.96c-0.77-0.53-1.77-0.57-2.59-0.84c-1.75-2.62-8.69-3.78-11.66-4.51c-1.99-0.49-3.81-1.42-5.72-2.12    c-1.55-0.57-5.17-0.91-6.03-2.3c-2.19-0.64-3.95-3.02-5.73-4.39c-2.26-1.74-4.96-0.6-7.48-1.55c-2.21-0.84-4.88-1.44-7.34-1.6    c-2.98-0.19-4.51-0.39-6.01-2.98c-1.28-2.21-3.09-3.54-3.67-6.13c-0.47-2.13-1.55-4.71-0.83-6.94c0.65-2.01,2.26-3.64,3.27-5.55    c1.14-2.16,1.85-4.68,3.31-6.69c1.44-1.98,2.93-3.89,4.2-6.01c1.36-2.26,1.74-4.92,2.62-7.38c1.33-3.73,3.82-9.7,7.68-11.77    c2.15-1.15,3.8-1.4,6.08-2.24c1.3-0.48,3.13-0.86,4.74-0.78c2.78,0.13,3.47,2.27,5.06,2.09c1.47-0.16,4.47-0.43,4.74-3.43    c0.21-2.41-0.79-4.85-1.14-7.19c-0.16-1.09-0.97-2.36-1.47-3.43c-0.47-0.98-2.09-3.82-2.61-4.74c-1.25-2.18,0.13-2.85,0-5.39    c-0.3-5.8,2.41-9.16,7.38-11.56c4.55-2.2,8.62-4.82,13.52-6.44c2.39-0.79,4.75-1.6,7.35-1.59c2.63,0,5.29,0.94,7.84,0.45    c5.02-0.95,9.64-3.39,14.21-5.35c2.32-0.99,5.34,0.49,7.67-0.37c2.31-0.86,4.57-2.31,6.21-4.08c0.78-0.84,0.59-2.38,1.96-3.09    c0.39,4.43-0.76,3.78-1.63,5.9c-0.81,1.99-0.78,4.09-0.29,6.17c0.99,4.2,1.42,8.03,3.91,11.6c2.8,0.16,5.07,0.75,7.81,0.52    c2.89-0.24,5.76-0.3,7.06-0.16c5.68,0.59,11.72,1.57,17.28,1.63c2.5,0.03,6.12,0.77,8.59,0.91c2.8,0.17,2.7,0.65,5.01,2.14    c2.12,1.37,4.76,2.42,4.56,4.94c-0.36,4.67,0.78,4.54,0.78,7.02l0.08,1.04c-1.14,0.22-2.13,0.71-2.98,1.51    c-1.07,0-3.47,1.68-4.26,2.42c-2.04,2.13-4.09,4.27-6.13,6.4c-0.65,0.59-1.31,1.18-1.96,1.76c-1.06,0.63-3.84,1.69-5.1,1.57    c-2.06-0.21-3.94-0.16-5.84,0.88c-1.52,0.95-3.03,1.9-4.55,2.85c-1.31,0.59-2.61,1.18-3.92,1.76c-1.56,1-3.12,2-4.68,2.99    c-0.17,0.24-0.35,0.48-0.52,0.72c-1.21,0.97-2.42,1.94-3.63,2.92c-1.24,1.3-2.05,2.69-3.71,3.56c-0.59,0.06-1.18,0.13-1.76,0.2    c-2.5-0.21-5.15-0.42-7.64,0c-0.65-0.52-2.51-0.17-3.31-0.04c-1.25,0.39-2.51,0.78-3.76,1.16c-0.4,0.13-0.76,1.04-1.16,1.04    c-1.92,0.06-2.01,1.44-3.33,2.55c-1.93,1.62-3.82,3.34-4.9,5.68c-0.15,0.79-0.31,1.58-0.46,2.38c-0.95,4.76-0.9,9.67-1.65,14.45    c-0.38,2.37-1.21,5.02-2.38,7.1c-0.18,0.57-0.35,1.15-0.53,1.72c-0.74,1.8-1.48,3.61-2.22,5.41c-1.4,2.42-3.45,4.33-5.32,6.36    c-2.67,2.81-5.35,5.63-8.02,8.44c-0.91,0.72-0.84,0.42-1.57,1.11c-0.17,0.16-1.6,1.47-1.76,1.63L98.81,196.95z"/>
            <circle cx="131.47" cy="106.9" r="1.586"/>
        </g>
    </g>
</svg>