<?xml version="1.0" encoding="utf-8"?>
<!DOCTYPE svg PUBLIC "-//W3C//DTD SVG 1.1//EN" "http://www.w3.org/Graphics/SVG/1.1/DTD/svg11.dtd">
<svg version="1.1" id="HaritaCizim" xmlns="http://www.w3.org/2000/svg" xmlns:xlink="http://www.w3.org/1999/xlink" x="0px" y="0px" viewBox="0 0 500 402" preserveAspectRatio="none">
    <defs id="__def">
        <radialGradient id="f">
            <stop offset="0" stop-color="white" stop-opacity="1"/>
            <stop id="STOP1" offset=".4" stop-opacity="1"/>
            <stop offset="1" stop-color="white" stop-opacity=".2"/>
        </radialGradient>
        <filter id="__flt1" x="0" y="0" width="200%" height="200%" filterUnits="objectBoundingBox">
            <feGaussianBlur in="SourceAlpha" stdDeviation="3" result="blur1"/>
            <feSpecularLighting result="specOut" in="blur1" specularConstant="1.5" specularExponent="20" lighting-color="#bbbbbb">
                <feDistantLight azimuth="45" elevation="30"/>
            </feSpecularLighting>
            <feComposite in="specOut" in2="SourceAlpha" operator="in" result="specOut"/>
            <feComposite in="SourceGraphic" in2="specOut" operator="arithmetic" k1="0" k2="1" k3="1" k4="0"/>
        </filter>
        <filter id="__flt2" x="0" y="0" width="200%" height="200%" filterUnits="objectBoundingBox">
            <feGaussianBlur in="SourceAlpha" stdDeviation="3" result="blur1"/>
            <feSpecularLighting result="specOut" in="blur1" specularExponent="20" lighting-color="#bbbbbb">
                <fePointLight x="-2000" y="100" z="2000"/>
            </feSpecularLighting>
            <feComposite in="specOut" in2="SourceAlpha" operator="in" result="specOut"/>
            <feComposite in="SourceGraphic" in2="specOut" operator="arithmetic" k1="0" k2="1" k3="1" k4="0"/>
        </filter>
        <filter id="__flt3" x0="-50%" y0="-50%" width="200%" height="200%" filterUnits="objectBoundingBox">
            <feGaussianBlur in="SourceAlpha" stdDeviation="3" result="blur"/>
            <feOffset in="blur" dx="0" dy="0" result="offsetBlur"/>
            <feSpecularLighting in="blur" surfaceScale="4" specularConstant=".5" specularExponent="20" lighting-color="flavor" result="specOut">
                <fePointLight x="-5000" y="-10000" z="5000"/>
            </feSpecularLighting>
            <feComposite in="specOut" in2="SourceAlpha" operator="in" result="specOut"/>
            <feComposite in="SourceGraphic" in2="specOut" operator="arithmetic" k1="0" k2="1" k3="1" k4="0" result="litPaint"/>
            <feMerge>
                <feMergeNode in="offsetBlur"/>
                <feMergeNode in="litPaint"/>
            </feMerge>
        </filter>
        <filter id="__flt4" x0="-50%" y0="-50%" width="200%" height="200%">
            <feGaussianBlur in="SourceAlpha" stdDeviation="2" result="blur"/>
            <feOffset dy="-1" dx="-1"/>
            <feComposite in2="SourceAlpha" operator="arithmetic" k2="-1" k3="1" result="hlDiff"/>
            <feFlood flood-color="white" flood-opacity=".7"/>
            <feComposite in2="hlDiff" operator="in"/>
            <feComposite in2="SourceGraphic" operator="over" result="withGlow"/>
            <feOffset in="blur" dy="3" dx="3"/>
            <feComposite in2="SourceAlpha" operator="arithmetic" k2="-1" k3="1" result="shadowDiff"/>
            <feFlood flood-color="black" flood-opacity="1"/>
            <feComposite in2="shadowDiff" operator="in"/>
            <feComposite in2="withGlow" operator="over"/>
        </filter>
        <filter id="__golge1" x="0" y="0" width="200%" height="200%" filterUnits="userSpaceOnUse">
            <feOffset result="offOut" in="SourceAlpha" dx="8" dy="8"/>
            <feGaussianBlur result="blurOut" in="offOut" stdDeviation="3"/>
            <feBlend in="SourceGraphic" in2="blurOut" mode="normal"/>
        </filter>
    </defs>
    <g id="__Komsular" display="none">
        <path fill-rule="evenodd" clip-rule="evenodd" fill="none" stroke="#000000" stroke-width="0.25" stroke-miterlimit="10" d="
		M451.83,280.1c-0.07,0.37-0.36,0.59-0.38,1.02c-1.06,0.39-2.58,0.33-3.51,1.03c-1.24,0.92-0.63,2.34-1.48,3.42
		c-1.38,1.74-5.51,2.21-2.8,5.37c1.76,2.05,3.72,3.29,5.86,4.58c0.55,0.33,1.19,0.69,1.48,1.32c0.49,1.04,0.31,0.34-0.17,1.31
		c-0.28,0.56-0.91,0.11-1.09,1c-0.08,0.39,0.37,1.69,0.56,2.06c1.04,2.03,3.52,2.24,4.5,4.59c0.69,1.66,0.69,4.4,1.96,5.76
		c0.73,0.79,1.95,1.01,2.93,1.18c1.68,0.3,1.4-0.16,2.67-0.78c1.32-0.64,4.7-1.29,6.21-1.07c0.6,1.46,0.13,2.07,1.77,2.9
		c1.1,0.55,2.35,0.94,3.54,1.4c2.48,0.96,4.5,1.42,5.9,3.89c1.46,2.56,0.34,5.08-0.74,7.47c-1.07,2.38-1.34,4.96-2.04,7.38
		c-0.67,2.28-2.21,5.15-0.49,7.33c0.99,1.25,2.47,0.86,3.46,1.96c0.67,0.75,0.85,2.52,1.21,3.47c0.96,2.49,0.63,5.37,1.04,8.05
		c0.19,1.23,0.7,2.74,0.19,4.01c-0.28,0.7-1.12,1.12-1.37,1.92c-0.22,0.7,0.08,1.55-0.03,2.27c-0.21,1.3-0.47,3.42-1.01,4.58
		c-0.93,2-2.66,1.74-4.27,2.71c-0.63,0.38-1.02,1.18-1.7,1.45c-0.84,0.34-1.98-0.15-2.8,0.16c-2.01,0.74-0.37,2.67-0.02,4.17
		c-1.72,0.05-1.98,0.48-2.99,1.61c-0.91,1.02-2.06,1.71-2.75,2.8c-1.74,2.76-0.99,4.7-0.88,7.85c0.08,2.53,2.18,5.47,4.72,5.94
		c2.01,0.37,1.4-0.86,2.79-1.74c1.16-0.75,3.04-0.28,4.38-0.35c2.5-0.13,4.68,0.85,7.16,0.7c2.03-0.13,4.08-3.01,5.95-2.32
		c0.64,0.24,2.66,2.08,3.1,2.54c0.59,0.63,1.16,1.98,1.61,2.76c0.64,1.14,2.02,5.42,3.33,5.41"/>
        <path fill-rule="evenodd" clip-rule="evenodd" fill="none" stroke="#000000" stroke-width="0.25" stroke-miterlimit="10" d="
		M86.99,229.95c-1.18,0.1-2.6-0.5-3.67-0.87c-1.97-0.69-1.66-1.08-1.56-2.96c0.1-2.12,0.01-2.47-2.11-2.46
		c-1.93,0.01-2.54-0.05-3.32-1.75c-1.47-3.23-2.54-4.02-6.29-4.02c-1.34,0-3.07,0.29-4.37-0.04c-1.44-0.36-1.99-1.54-3.01-2.36
		c-2.38-1.9-5.48,0.72-7.64-0.92c-1.1-0.83-1.29-2.28-2.14-3.32c-1.2-1.47-1.87-0.24-3.23,0.05c-1.57,0.33-2.32-0.65-3.71-0.93
		c-1.62-0.33-2.65,0.64-4.03,1.1c-2.5,0.84-5.77,0.76-8.39,1c-1.63,0.15-1.65,0.1-2.83,1.01c-0.81,0.62-1.72,1.31-2.72,1.66
		c-0.73,0.26-2.43,0.82-3.18,0.83c-1.17,0.01-1.92-0.83-3.12-0.67c0.2,1.65-0.78,1.92-1.55,2.99c-0.67,0.92-0.77,2.29-1.44,3.28
		c-1.4,2.03-4.57,2.41-6.83,2.78c-1.07,0.17-2.56,0.29-3.52,0.83c-1.27,0.72-1.49,2.58-2.53,3.24c-1.23,0.77-1.9-0.84-2.89-1.57
		c-1.07-0.79-1.99-1.1-3.23-1.49"/>
        <path fill-rule="evenodd" clip-rule="evenodd" fill="none" stroke="#000000" stroke-width="0.25" stroke-miterlimit="10" d="
		M138.36,97.51c-5.36,0.16-10.43-1.65-15.73-2.93c-2.7-0.65-5.11-0.91-8.04-0.91c-2.95,0-4.79-1.03-7.51-1.4
		c-10.85-1.48-20.89,3.23-30.94,5.23c-5.25,1.05-11.33,0.53-16.59,0.02c-5.66-0.55-10.81-0.72-16.08-2.32
		c-2.71-0.83-5.86-0.34-8.6-0.79c-2.81-0.46-5.57-1.14-8.35-1.61c-5.35-0.92-11.06-1.01-16.6-1.22"/>
        <path fill-rule="evenodd" clip-rule="evenodd" fill="none" stroke="#000000" stroke-width="0.25" stroke-miterlimit="10" d="
		M361.67,76.54c0.7-3.49-4.15-3.22-5.38-5.28c-0.84-1.41,0-2.86,0.79-3.86c0.99-1.24,1.47-1.61,1.27-3.45
		c-0.28-2.58-2.61-4.46-5.08-5.07c-2.79-0.69-5.26,0.48-7.86-0.87c-2.06-1.07-4.54-2.26-6.8-2.97c-2.07-0.65-1.71-0.14-2.83,1.19
		c-0.74,0.88-2.2,1.6-3.46,1.26c-1.41-0.37-1.62-1.74-3.33-1.59c-1.27,0.11-2.33,1.32-3.66,1.41c-1.58,0.1-2-0.61-3.19-1.36
		c-1.08-0.68-2.29-0.84-2.93-1.62c-0.96-1.18-0.38-1.78-2.27-2.27c-1.04-0.27-2.22-0.53-3.25-0.7c1.44-0.38,1.97-0.73,2.2-2.27
		c0.22-1.48-1.25-2.62-1.05-3.67c0.12-0.65,0.97-0.43,1.19-1.08c0.21-0.62-0.43-1.31-0.32-1.7c0.19-0.71,0.82-0.91,1.24-1.58
		c0.32-0.5,0.1-1.2,0.55-1.71c0.78-0.87,1.57-0.96,2.28-2.14c0.68-1.13,1.56-2.28,1.18-3.63c-0.29-1.03-1.43-2.02-1.91-3.01
		c-0.51-1.05-1.05-2.29-1.21-3.33c3.03-1.08,2.7-3.36,4.52-5.28c0.87-0.91,1.86-1.13,2.45-2.23c0.67-1.28,0.28-2.42,0.53-3.84
		c0.58-3.31,2.93-4.37,5.28-6.25c1.03-0.82,1.2-1.53,1.84-2.66c0.52-0.92,2.01-1.65,2.28-2.66c0.09-0.33,0.09-0.82,0.01-1.15
		c-1.32-0.57-0.9-3.47,0.55-3.7"/>
        <text transform="matrix(1 0 0 1 171.0378 44.9109)" font-family="'MyriadPro-Regular'" font-size="16.7744">VAN</text>
        <text transform="matrix(1 0 0 1 15.5249 159.5361)" font-family="'MyriadPro-Regular'" font-size="16.7744">ŞIRNAK</text>
        <text transform="matrix(1 0 0 1 187.1135 339.5112)" font-family="'MyriadPro-Regular'" font-size="16.7744">IRAK</text>
        <text transform="matrix(0.1962 0.9806 -0.9806 0.1962 479.1472 105.3965)" font-family="'MyriadPro-Regular'" font-size="16.7744">İRAN</text>
        <radialGradient id="SVGID_1_" cx="346.7869" cy="182.207" r="14.0121" gradientUnits="userSpaceOnUse">
            <stop offset="0" style="stop-color:#4982C3"/>
            <stop offset="1" style="stop-color:#FFFFFF;stop-opacity:0"/>
        </radialGradient>
        <path fill-rule="evenodd" clip-rule="evenodd" fill="url(#SVGID_1_)" stroke="#000000" stroke-width="0.25" stroke-miterlimit="10" d="
		M333.82,175.49c2.23,1.34,5.57,2.09,8.05,0.9c0.67-0.32,1.05-1.09,1.68-1.34c0.34-0.95,0.67-1.9,1.01-2.85
		c0.04-0.61,0.17-2.01,0.71-2.29c0.58-0.29,1.18-0.62,1.82-0.31c0.6,0.31,1.94,0.73,2.12,1.31c0.06,0.3,0.26,0.39,0.07,0.63
		c-0.36,0.47-1.56,1.52-1.37,2.17c0.29,0.5,0.56,1.28,0.34,1.85c0.58,0.58,1.17,1.12,1.17,2.01c0.35,0.39,0.83,0.68,1.01,1.17
		c0.71,0.46,2.59,1.27,2.94,1.92c0.14,0.37,0.28,0.73,0.42,1.1c0.24,0.5,0.79,0.8,0.84,1.34c0.29,0.17,0.57,0.35,0.86,0.52
		c0.3,0.23,0.6,0.74,0.99,0.65c0.17,0.34,0.33,0.67,0.5,1.01c-0.37,0.52-0.99,0.88-1.03,1.49c-0.07,1.08,0.14,3.44-1.15,3.87
		c-0.13,0.38-0.58,1.52-0.84,1.5c-2.41-0.08-4.57-1.9-6.71-2.84c-1.06-0.47-2.44,0.31-3.16-1.04c-1.11-2.15-0.37-5.43-2.54-7.18
		c-1.06-0.85-2.42-1.25-3.66-1.6c-0.37-0.1-0.67-0.4-1.03-0.25c-0.28-0.11-0.56-0.22-0.84-0.34c-0.69-0.74-0.93-1.52-1.5-2.34
		C334.27,176.2,334.04,175.84,333.82,175.49z"/>
    </g>
    <g id="__Harita" display="none">
        <rect id="__cer" x="0" y="0" fill="#000000" opacity="0" width="500" height="402"/>
        <g id="__Yüksekova">
            <path d="
			M411.82,102.68c-0.2-0.49-0.18-0.92-0.18-1.45c-0.28-0.45-0.56-0.89-0.84-1.34c-0.58-0.25-2.18-1.73-2.18-2.35
			c-0.5-0.39-1.01-0.78-1.51-1.17c0-0.33-0.06-0.62-0.33-0.84c-0.34-0.22-0.67-0.45-1.01-0.67c-1-1.19-1.52-3.48-2.01-5.03
			c-0.2-0.2-0.41-0.4-0.61-0.59c-0.46-0.06-0.92-0.13-1.37-0.19c-1.18-0.58-2.37-1.15-3.55-1.73c-0.89-0.89-0.89-1.97-2.32-2.79
			c-0.71-0.44-1.71-0.03-2.54-0.14c-0.61-0.08-0.97-0.31-1.51-0.59c-1.16,0.15-2.17-0.17-3.35-0.17c-0.46,0.3-0.92,0.6-1.38,0.9
			c-0.38,0.37-0.75,0.74-1.13,1.12c-1.52,0-4.38,0.52-5.37,1.51c-0.39,0-0.78,0-1.17,0c-0.56-0.11-1.12-0.22-1.68-0.34
			c-0.28,0.11-0.56,0.22-0.84,0.34c-0.13,0.36-1.63,1.76-2.01,1.84c-1.41,0.31-2.66-0.5-4.03-0.5c-0.64-0.64-1.23-0.9-2.18-0.84
			c-0.17-0.28-0.34-0.56-0.51-0.84c-0.15-0.33-0.05-1.26,0.17-1.68c0.31,0.31,1.41-1.52,1.51-2.01c-0.12-1.46-0.23-2.93-0.35-4.39
			c-0.02-0.71,0.49-1.18,0.25-1.95c-0.24-0.71-1.23,0.12-1.73,0.32c-1.33,0.53-1.89,2.17-3.53,1.66c-0.7-0.23-1.34-0.87-1.34-1.68
			c-0.24-0.24-0.84-0.5-0.84-0.84c-1.01,0.45-2.01,0.89-3.02,1.34c-0.39,0.17-0.78,0.34-1.17,0.5c-1.38,0-2.77,1.09-3.69,2.01
			c-1.12,0.67-2.24,1.34-3.35,2.01c-1.45,0.22-2.91,0.45-4.36,0.67c-0.37,0-1.62,0.11-1.85,0.34c-0.67,0.17-1.34,0.34-2.01,0.5
			c-0.45,0.06-0.89,0.11-1.34,0.17c-1.17-0.06-2.35-0.11-3.52-0.17c-0.95,0.22-1.9,0.45-2.85,0.67c-1.12,0.73-2.24,1.45-3.36,2.18
			c-0.96,0.96-1.88,1.8-3.02,2.52c-0.42-0.03-1.04,0.2-1.34,0.5c-0.74-0.08-3.76,1.21-4.36,1.68c-0.73,0.56-1.45,1.12-2.18,1.68
			c-0.86,0.86-1.57,1.69-2.52,2.52c-0.66,0.1-1.49,0.93-2.02,1.36c-0.95,0.5-1.9,1-2.85,1.49c-0.45,0.28-0.9,0.56-1.34,0.84
			c-1.06,0.39-2.13-0.25-3.19,0c-0.73,0.05-1.46,0.11-2.19,0.16c-1.93,0.09-3.74,0.09-5.7-0.04c-1.12-0.15-2.24-0.3-3.35-0.46
			c-0.78-0.28-1.57-0.56-2.35-0.84c-0.2,0.14-2.76,0.19-3.35,0.3c-1.47,0.27-3.01,0.73-4.36,1.38c-1.06,0.11-2.13,0.22-3.19,0.34
			l-1.84,0.17c-1.53,0.76-3.05,1.05-4.37,2.64c-0.36,0.55-0.73,1.1-1.09,1.66c-0.81,0.27-1.59,0.32-2.26,0.91
			c-0.71,0-1.43-0.01-2.14-0.01c-0.75,0.15-0.67,1.13-1.72,0.68c-0.34,0.45-0.67,0.89-1.01,1.34c-1.33-0.55-2.67-1.1-4-1.65
			c-0.73,0.16-1.47,0.31-2.2,0.47c-0.5,0.34-1.01,0.67-1.51,1.01c-0.6,1.05-0.85,1.79-2.03,2.46c-2.23,1.26-4.73,1.01-7.17,0.9
			c-2.19-0.1-3.93-0.15-6.09-0.61c-0.95,0.09-1.89,0.18-2.84,0.27c-0.52,0.52-1.1,0.67-1.69,1.03c-1.05,0.65-1.38,1.81-2.8,1.6
			c-0.29-0.09-1.77-0.28-2.22-0.28c-0.81,0.68-0.7,0.52-0.84,1.51c0.11,0.73,0.22,1.45,0.34,2.18c1.17,1.68,2.35,3.35,3.52,5.03
			c0.34,1.71,1.62,2.98,2.55,4.41c0.36,0.56,0.98,1.5,1.64,1.63c0.53,0.63,1.06,1.27,1.58,1.9c2.09,1.26,4.65,4.83,5.65,7.16
			c0.27,0.84,0.55,1.68,0.82,2.52c0.62,1.06,1.23,2.12,1.84,3.19c0.36,0.46,1.02,1.09,0.99,1.67c-0.01,0.4-0.26,1.78-0.15,1.91
			c0.68,1.19,1.05,2.93,1.18,4.3c0.06,0.67,0.11,1.34,0.17,2.01c-0.18,0.71-0.36,1.41-0.54,2.12c0.05,1.79,0.76,3.46,0.04,5.26
			c-0.45,0.67-0.89,1.34-1.34,2.01c-0.16,0.59-0.31,1.17-0.47,1.76c-0.4,0.65-0.81,1.29-1.21,1.93c-2.22,0.72-4.17,1.7-6.21,2.85
			c-0.62,0.08-1.23,0.16-1.85,0.25c-0.46,0.02-1.22,0.1-1.51-0.25c-0.89,0.17-1.79,0.34-2.68,0.5c-0.73,0.11-1.45,0.22-2.18,0.34
			c-1.34-0.03-2.67-0.06-4.01-0.09c-1.59,0.29-2.29,1.08-3.54,1.93c-0.84,0.39-1.68,0.78-2.52,1.17c-0.5,0.59-0.93,1.59-1.68,1.84
			c-0.27,0.84-0.54,1.68-0.81,2.52c-0.28,1.57,0.45,2.87,0.64,4.36c0.24,0.29,0.45,0.44,0.5,0.84c1.86,1.92,4.92,4.18,7.79,4.31
			c0.96,0.8,1.89,1.74,3.16,2.11c0.41,0.95,1.97,1.74,2.87,2.17c0.6,0.28,1.1,1.03,1.95,0.97c1.31,1.01,2.67,2.04,4.19,2.68
			c1.68,0.64,3.37,1.28,5.05,1.91c0.61,0.37,1.22,0.74,1.83,1.11c0.33,0.39,0.67,0.78,1.01,1.17c2.29,4.57,3.24,11.16,1.34,15.94
			c-0.43,1.08-1.49,1.96-2.35,2.68c-1.68,1.51-3.36,3.02-5.03,4.53c-0.65,0.55-1.9,0.24-2.35,0.67c-2.35,0.22-3.64,0.71-5.99,0.93
			c0,0-0.89,2.13-1.14,3.2c0.67,1.89,1.14,4.17,0.42,6.11c-0.33,0.67-0.67,1.34-1.01,2.01c0,0.67-0.02,1.65-0.67,2.01
			c-0.02,0.38-0.04,0.77-0.07,1.15c-0.24,0.75-1.94,3.26-2.62,3.54c-0.66,1.05-1.54,2.1-2.52,2.85c-0.45,0.67-0.89,1.34-1.34,2.01
			c-0.25,1.19-0.56,3.46,0.17,4.53c-0.06,2.4-0.26,3.9-0.31,6.3l0.15,0.41c0,0.58,1.55,0.64,2.01,0.62
			c0.54-0.02,1.49-0.26,1.85-0.62c0.73,0,1.45,0,2.18,0c0.56-0.17,1.12-0.34,1.68-0.5c0.54-0.62,0.83-1.38,1.01-2.18
			c0.06-0.28,0.11-0.56,0.17-0.84c0.66-0.59,1.33-1.18,1.99-1.77c0.46-0.19,0.93-0.37,1.39-0.56c0.38-0.23,0.37-0.43,0.28-0.89
			c-0.17-0.34-0.22-0.26-0.52-0.48c-0.15-0.11-0.3-0.22-0.45-0.33c0.89-0.41,1.65-0.71,2.36-1.35c0.43-0.42,0.17-0.87,0.49-1.34
			c0.52-0.75,1.19-1.99,0.33-2.85c0.04-0.37-0.08-1.25-0.33-1.51c0.89-0.11,1.79-0.22,2.68-0.34c0.79-0.79,0.62-1.88,0.45-2.82
			c-0.07-0.37-0.36-1.21-0.79-1.21c0-0.92,0.07-1.7,0.41-2.49c0.41-0.93,1.46-0.43,2.27-0.19c0.3-0.32,0.74-0.26,1.17-0.34
			c1.55-1.66,4.16-0.54,5.99-2.14c0.45-0.35,1.02-3.62,0.89-4.19c0.23,0.04,0.45,0.07,0.68,0.1c0.11,0.01,0.22,0.02,0.33,0.03
			c0.08-0.44,0.44-0.74,0.67-1.17c0.78-0.02,1.92-0.99,1.8-1.8c0.6-0.55,1.2-1.09,1.79-1.64c0.14-0.03,0.29-0.06,0.43-0.08
			c0.02,0.29,0.16,1.17-0.17,1.17c0.72,0.72,0.43,0.98,0.49,1.69c0.01,0.43,0.2,0.48,0.59,0.62c0.14,0.05,1.36-1.79,1.5-2.17
			c0.04-0.1,0.07-0.21,0.11-0.31c0.12,0.42,0.45,0.5,0.84,0.67c0.26-0.43,0.68-0.35,1.17-0.34c0,0.56,1.06,0.85,1.5,0.9
			c0.79,0.26,1.57,0.52,2.36,0.78c0.13-0.11,1.19-0.34,1.34-0.34c0.35,0,1.31,1.44,1.76,1.8c0.53,0.31,1.3-0.1,1.93-0.29
			c0.69,0.2,1.33,0.14,2.01,0c-0.29-0.29,0.36-0.28,0.67-0.34c0.36,0.62,1.53,0.27,2.18,0.17c-0.18-0.18,0.87,0.01,1.34,0
			c0.56-0.49,1.63-0.48,2.35-0.5c0.18-0.41,0.43-0.37,0.84-0.5c0.5-0.69,1.37-1.04,2.19-1.01c0.3,0.01,0.52,0.75,0.67,1.01
			c1.66,0.35,3.67,1.83,4.87,3.02c0,0.76,0.65,1.34,1.08,1.9c0.42,0.52,1.31,0.5,1.93,0.45c0.22-0.11,0.45-0.22,0.67-0.34
			c1.21,0.26,1.9,1.06,2.68,1.84c0.39-0.33,0.78-0.67,1.17-1.01c1.06-0.39,2.13-0.78,3.19-1.17c1.29-0.83,2.58-1.66,3.87-2.5
			c0.89-0.51,1.78-1.02,2.67-1.53c0.71-0.32,1.43-0.64,2.14-0.96c1.63-0.85,3.27-1.71,4.9-2.56c1.16-0.8,2.6-2.13,3.36-3.35
			c0.8-1.31,1.36-2.7,2.35-3.86c1.59-1.86,3.96-4.11,6.54-4.19c0.56-0.61,1.12-1.23,1.68-1.85c0.61,0.24,1.1-0.54,1.68-0.67
			c1.01-0.28,2.01-0.56,3.02-0.84c0.61-0.43,1.23-0.86,1.84-1.29c0.56-0.19,1.11-0.39,1.67-0.58c0.16-0.12,0.32-0.24,0.48-0.37
			c0.85-0.26,1.71-0.52,2.56-0.78c0.28,0,0.56,0,0.84,0c1.11-0.22,2.22-0.44,3.33-0.67c1.13-0.51,2.25-1.01,3.38-1.52
			c1.15,0,3.73-1.85,4.7-2.52c0.34-0.39,0.67-0.78,1.01-1.17c0.23-0.29,0.46-0.58,0.7-0.87c0.85-0.82,1.58-1.28,2.49-1.98
			c0.34-0.39,0.67-0.78,1.01-1.17c0.22-0.11,0.45-0.22,0.67-0.34c0.67-0.49,0.72-1.24,1.17-1.85c0.56-0.67,1.12-1.34,1.68-2.01
			c0.71-0.54,1.25-0.33,2.01-0.5c0.28-0.11,0.56-0.22,0.84-0.34c1.17-1.17,2.35-2.35,3.52-3.52c0.61-0.43,0.98-0.39,1.68-0.5
			c0.67-0.39,1.34-0.78,2.01-1.17c0.62-0.5,1.23-1.01,1.85-1.51c1.57-1.29,3.13-2.57,4.7-3.86c0.69,0,1.83-0.56,2.35-1.01
			c0.65-0.56,1.93-1.51,2.85-1.51c0.35-0.35,0.92,0.22,1.34,0.34c1.38,0.36,3.51,1.89,4.19,3.19c1.26,0,2.35,0.9,3.53,1.12
			c1.26,0.23,2.6,0.02,3.85-0.11c0.61,0.06,1.23,0.11,1.84,0.17c-0.32,0-0.22-0.67-0.17-0.94c0.23-0.92,0.45-1.84,0.68-2.75
			c-0.11-0.56-0.22-1.12-0.33-1.68c-0.67-0.41-0.5-1.66-0.44-2.36c0.19-2.07,0.37-4.14,0.56-6.21c0.02-0.33,0.03-0.66,0.05-0.99
			c0.56,0.54,1.84-0.17,2.52-0.17c1.45-1.45,1.38-2.25,1.51-4.19c0.51-0.51,1.39-2.69,1-3.28c0.34-0.81,0.41-1.24,1.18-1.75
			c-0.2-0.57,0.15-0.84,0.5-1.34c0.25-0.43,0.15-0.72,0-1.17c-1.25,0.17-2.22-1.1-2.73-2.08c-0.17-0.38,0.05-0.57,0.26-0.91
			c0.77-0.29,1.53-0.58,2.3-0.87c0.36-1.66-0.3-1.66-0.96-2.94c0.27,0.03,0.53,0.06,0.8,0.08c-0.22-0.45-0.45-0.9-0.67-1.34
			c-0.28-0.22-0.56-0.45-0.84-0.67c-0.76,0.38-1.02-0.28-1.24-0.88c-0.19-0.52,1.21-1.37,1.74-1.64c-0.17-0.17,1.05-0.96,1.17-1.51
			c0-0.45,0-0.89,0-1.34c0.15-0.67,0.3-1.35,0.45-2.02c0.02-0.11,0.04-0.22,0.05-0.32c-0.5-0.19-0.5-0.52-0.74-0.99
			c-0.82-1.13-1.63-2.25-2.45-3.38c-0.62,0.07-1.51-0.17-2.01-0.5c-0.21-1.32-1.23-1.89-1.78-3.02c-0.33-0.88-0.66-1.77-0.99-2.65
			c-0.33-0.84-1.81-0.73-2.56-0.97c-0.42-0.14-0.45-0.56-0.6-0.95c-0.44-1.12,0.8-3.55,1.4-4.49c0.03-0.78,0.07-1.56,0.1-2.33
			c0.19-1.16,2.63-1.1,3.34-1.78c0.73-0.76,0.31-2.76,0.88-3.87c0.29-0.08,0.58-0.16,0.88-0.24c0.53-0.8,1.98-1.63,2.85-2.01
			c0-0.31,0.8-0.68,1.01-1.01c0.45-0.78,0.89-1.57,1.34-2.35c0.6-0.78,1.56-1.14,1.89-2.16
			C413.04,105.72,412.25,103.72,411.82,102.68z M355.93,186.77c-0.07,1.08,0.14,3.44-1.15,3.87c-0.13,0.38-0.58,1.52-0.84,1.5
			c-2.41-0.08-4.57-1.9-6.71-2.84c-1.06-0.47-2.44,0.31-3.16-1.04c-1.11-2.15-0.37-5.43-2.54-7.18c-1.06-0.85-2.42-1.25-3.66-1.6
			c-0.37-0.1-0.67-0.4-1.03-0.25c-0.28-0.11-0.56-0.22-0.84-0.34c-0.69-0.74-0.93-1.52-1.5-2.34c-0.23-0.36-0.45-0.72-0.68-1.07
			c2.23,1.34,5.57,2.09,8.05,0.9c0.67-0.32,1.05-1.09,1.68-1.34c0.34-0.95,0.67-1.9,1.01-2.85c0.04-0.61,0.17-2.01,0.71-2.29
			c0.58-0.29,1.18-0.62,1.82-0.31c0.6,0.31,1.94,0.73,2.12,1.31c0.06,0.3,0.26,0.39,0.07,0.63c-0.36,0.47-1.56,1.52-1.37,2.17
			c0.29,0.5,0.56,1.28,0.34,1.85c0.58,0.58,1.17,1.12,1.17,2.01c0.35,0.39,0.83,0.68,1.01,1.17c0.71,0.46,2.59,1.27,2.94,1.92
			c0.14,0.37,0.28,0.73,0.42,1.1c0.24,0.5,0.79,0.8,0.84,1.34c0.29,0.17,0.57,0.35,0.86,0.52c0.3,0.23,0.6,0.74,0.99,0.65
			c0.17,0.34,0.33,0.67,0.5,1.01C356.59,185.8,355.97,186.15,355.93,186.77z"/>
            <circle cx="329.87" cy="150.97" r="1.586"/>
        </g>
        <g id="__Şemdinli">
            <path d="
			M302.26,233.71c1,0.66,2.22,0.1,3.2,0.72c0.77,0.49,1.21,1.01,1.84,1.68c0.75,0,1.76,0.6,2.35,1.01c0.5,0.35,0.67,1.51,1.51,1.51
			c0.42-0.42,0.88,0,1.34,0c0.62-0.43,1.11-0.29,1.83-0.29c0.11,0.04,0.23,0.08,0.35,0.13c0.28-0.11,0.56-0.22,0.84-0.34
			c0.12,0.1,0.23,0.21,0.35,0.31c0.28,0.23,0.55,0.46,0.83,0.69c0.22,0.39,0.45,0.78,0.67,1.17c0.11,0.28,0.22,0.56,0.34,0.84
			c0.33,0.22,0.67,0.45,1.01,0.67c0.12,0.42,0.65,1.2,0.34,1.51c0.33,0.45,0.67,0.89,1.01,1.34c-0.06,0.34-0.11,0.67-0.17,1.01
			c0.14,0.32,0.27,0.65,0.41,0.97c0.31,0.46,0.62,0.92,0.93,1.38c1.57,0,2.85,0.65,3.95,1.76c0.37,0.37,0.96,0.86,0.91,1.43
			c0.11,1.13-0.6,1.99-0.67,3.19c0.34,0.89,0.67,1.79,1.01,2.68c-0.17,0.28-0.34,0.56-0.5,0.84c0.06,0.61,0.11,1.23,0.17,1.85
			c-0.83,1.11-1.68,1.68-1.68,3.19c0.1,0.19,0.21,0.37,0.31,0.56c0.1,0.46-0.02,0.44,0.4,0.72c0.1,0.13,0.19,0.27,0.29,0.4
			c0.8,0.4,2.68,0.58,2.68,1.51c0.11,0.17,0.22,0.34,0.34,0.5c-0.41,0.81-0.72,2.9,0.17,3.35c0,0.34-0.23,0.44,0,0.67
			c-0.6-0.6-0.67,1.64-0.67,2.01c-0.11,0.22-0.22,0.45-0.33,0.67c-0.56,0.56-1.12,1.12-1.68,1.68c-0.45,0.06-0.89,0.11-1.34,0.17
			c-0.73,0.28-1.45,0.56-2.18,0.84c-0.87,0-1.54,0.34-2.35,0.34c-0.73-0.28-1.45-0.56-2.18-0.84c-0.67,0.16-1.35,0.31-2.02,0.47
			c-0.65,0.06-0.72-0.22-1.33,0.2c-0.25-0.25-0.22-0.12-0.4,0.11c-0.94,1.07-0.44,1.44-0.44,2.57c-0.48,0.51-1.36,1.12-0.5,1.68
			c-0.34,0.39-0.67,0.78-1.01,1.17c-0.28,0.62-0.56,1.23-0.84,1.85c-0.74,1.01-0.96,1.33-1.32,2.5c-0.13,0.44-0.76,2.46-1.2,2.03
			c-0.47,0.61-1.84,1.18-1.84,2.01c-0.34,0.11-0.67,0.22-1.01,0.33c-0.64,0.73-1.61,3.42-0.84,4.19c0.39,0,2.35,1.19,2.34,1.5
			c-0.05,1.57-0.73,3.92,0.89,4.95c0.92,0.62,2.45,0.94,3.15,1.93c0.11,0.28,0.22,0.56,0.34,0.84c0.33,0.28,0.67,0.56,1.01,0.84
			c0.22,0.34,0.45,0.67,0.67,1.01c0,0.52,0.43,1.21,0.84,1.51c0.22,0.11,0.45,0.22,0.67,0.34c0.11,0.17,0.22,0.34,0.34,0.5
			c0.22,0.22,0.45,0.45,0.67,0.67c0.48,0.68,0.39,1.75,0.5,2.52c0.07,0.47,0.29,0.79,0.03,1.24c-0.61,0.94-1.2,0.95-1.87,1.61
			c0,0.16,0,0.33-0.01,0.49c0,0.84,1.7,1.84,1.67,2.19c0,0.28,0.01,0.57,0.01,0.85c-0.28,0.58-0.54,1.26-0.17,1.85
			c0.07-0.15,0.14-0.29,0.21-0.44c0.48,0.69,0.51,1.5,1.13,2.11c0.61,0.61,1.26-0.39,1.8,0.69c0.21,0.42,0.21,0.67,0.21,1.15
			c0.28,0.5,0.56,1.01,0.84,1.51c0.56,0.51,0.9,1.07,1.01,1.85c0.21,0.27,0.42,0.53,0.62,0.8c0.15,0.54-0.91,2.07-0.71,2.32
			c0.78,0.92,1.48,0.91,2.61,1.07c0.31-0.08,0.62-0.16,0.93-0.24c0.54,0.62,0.62,1.58,1.59,1.58c1.48-0.08,2.91-0.34,4.36,0.17
			c0.78,0.88,1.46,1.85,2.68,1.85c0.67,0.5,1.34,1.01,2.01,1.51c0.39-0.39,0.61-0.67,0.84-1.17c-0.46-0.46-0.74-1.25-1.34-1.34
			c0.11-0.16,0.21-0.32,0.32-0.48c0.12-0.06,0.23-0.13,0.35-0.19c0.45-0.78,0.89-1.57,1.34-2.35c0.11-0.28,0.22-0.56,0.34-0.84
			c0.22-0.06,0.45-0.11,0.67-0.17c0.56-0.37,1.03-0.7,1.51-1.17c0.5,0,0.96-0.02,1.1-0.52c0.06-0.27,0.12-0.27-0.09-0.48
			c0.06-0.34,0.11-0.67,0.17-1.01c0.14-0.85,0.7-1.35,1.17-2.01c0.17-0.24,0.2-0.3,0-0.5c0.22-0.34,0.45-0.67,0.67-1.01
			c0.39-0.46,1.04-0.56,1.4-1.11c0.65-0.75,1.3-1.5,1.95-2.24c1.02-0.42,2.04-0.85,3.07-1.27c0.13-0.25,0.57-0.96,0.37-1.18
			c-0.25-0.27-0.86-0.63-0.58-0.91c-0.39-0.22-0.78-0.45-1.17-0.67c-0.39-0.5-0.78-1.01-1.17-1.51c-0.29-0.39-0.84-0.67-0.84-1.17
			c0-1.54,2.18-4.08,3.86-3.69c0.84-0.84,1.2-0.84,2.35-0.84c0.28-0.34,0.56-0.67,0.84-1.01c-0.23-0.23-0.13-0.34,0.17-0.34
			c0.33,0,0.6-0.07,0.84,0.17c0.34,0.34,1.11,1.34,1.68,1.34c0.24,0.63,0.22,1.17,0.88,1.36c0.13,0.02,0.26,0.04,0.39,0.06
			c0.5-0.44,0.5-1.02,0.91-1.42c0,1.11,2.64,0.39,3.19,0.84c0.23-0.17,0.47-0.33,0.7-0.5c0.38-0.28,0.76-0.56,1.14-0.84
			c0-1.06,0.64-1.02,1.34-1.51c1.15-0.81,2.93-1.91,4.36-1.34c0.55-0.79,0.97-1.08,1.81-1.53c0.55,0.06,2.22-0.44,2.22-0.99
			c0.53-0.19,1.25-0.42,1.68,0c0.28-0.28,0.56-0.56,0.84-0.84c0.37-0.38,1.34-0.84,1.84-0.84c0.45-0.45,1.17-1.53,1.17-2.18
			c0.49-0.49,1.17-0.35,1.17-1.17c0,0.43,0.17,0.52,0.55,0.42c0.32,0.28,0.24,0.26,0.58,0.2c0.9-0.17,1.02-0.56,1.73-0.92
			c1.24-0.62,2.13-1.46,3.18-2.39c0.42-0.37,1.51-1,1.51-1.51c-0.06-0.5-0.11-1.01-0.17-1.51c-0.17-0.34-0.33-0.67-0.5-1.01
			c0.06-0.06,0.11-0.11,0.17-0.17c0.38-0.4,0.97-1.01,1.51-1.01c0.11-0.28,0.22-0.56,0.33-0.84c0.37-0.37,0.75-0.2,0.84-0.84
			c0.32-0.02,0.64-0.05,0.95-0.07c0.64-0.13,0.26-0.6,0.26-0.6c0.35-0.01,0.7-0.02,1.05-0.03c0.32,0.26,2.27,1.25,2.56,0.85
			c0.12-0.16,0.24-0.32,0.37-0.48c0.24-0.03,0.48-0.06,0.72-0.08c0.15-0.25,0.3-0.5,0.45-0.75c-0.31-0.72-0.67-1.18-0.67-2.01
			c0.24-0.24,0.17-0.51,0.17-0.84c1.25-0.52,2.18-1.25,2.18-2.68c0.58-0.57,0.42-1,0.17-1.68c0.44-0.49,0.54-0.71,0.67-1.34
			c1.08,0,1.48-0.91,2.18-1.51c0.17-0.11,0.34-0.22,0.5-0.34c0.4-0.41,0.44-1.17,1.17-1.17c1.08,0.47,1.43,0.13,2.45-0.36
			c1.27,0.11,2.92-0.42,2.92-1.66c0.39-0.39,0.78-0.78,1.17-1.17c0.73-0.41,1.46-0.82,2.19-1.23c0.32-0.13,0.8-0.08,0.97-0.29
			c0.53-0.67,0.79-1.27,1.2-2c-0.11-0.33-0.6-1.17,0-1.17c0.78-0.02,1.56-0.04,2.34-0.06c1.28-0.17-0.03-1.12,1.18-1.12
			c0.39,0.39,0.78,0.78,1.17,1.17c0.33-0.06,0.67-0.11,1.01-0.17c0.52,0.75,0.6,0.81,1.34,1.34c-0.41,0.41,1.52,1.34,2.01,1.34
			c0.63,0.82,1.73,1.95,2.85,2.01c0,0.24-0.13,0.86,0.15,0.82c0.34-0.1,0.68-0.21,1.03-0.31c0.54,0.19,0.93,0.34,1.51,0.34
			c0.32-0.35,1.71-1.66,2.15-1.44c0.64,0.37,1.29,0.74,1.93,1.11c1.42,0.25,2.64-0.24,3.97-0.5c0.28,0.11,0.56,0.22,0.84,0.34
			c0.33,0,0.67,0,1.01,0c1.7,0.39,1.57,1.32,2.85,2.01c0.73,0.22,1.45,0.45,2.18,0.67c0.39-0.06,0.78-0.11,1.17-0.17
			c0.54,0.35,1.04,0.6,1.68,0.67c0-0.93,0.54-1.24,1.17-1.68c-0.35,0.35,0.86,0.32,1.17,0.34c-0.57,0,0.88,1.25,1.01,1.5
			c0.17,0.28,0.33,0.56,0.5,0.84c0,1.05,0.17,1.72,0.5,2.68c0.28,0.17,0.56,0.34,0.84,0.5c0.09,0.38,0.11,0.65,0.46,0.87
			c0.19,0.12,0.89,0.66,0.89,0.3c0.23-0.23,0.67-0.25,0.67-0.67c0.06-1.4,0.11-2.8,0.17-4.19c-0.07-0.49-0.44-1.29-0.17-1.68
			c-0.28-0.67-0.56-1.34-0.84-2.01c-0.7-0.35-2.37-1.21-2.52-2.01c-0.89-0.89-1.17-0.7-1.17-2.18c0-1.8,0.33-3.09-1.01-5.03
			c-0.11-0.34-0.22-0.67-0.33-1.01c-0.06-0.95-0.11-1.9-0.17-2.85c0-0.39,0.11-0.89-0.17-1.17c0.78,0-0.09-2.07-0.33-2.35
			c0.05-0.78,0.27-1.41,0-2.18c0.43,0.43,1.52-0.65,1.77-1.07c0.26-0.44,0.41-1.15,0.41-1.61c1.51-1.23,3.02-2.46,4.53-3.69
			c0.86-0.59,1.28-0.34,2.18-0.34c0.73-0.34,1.45-0.67,2.18-1.01c0.64-0.64,0.52-1.44,1.01-2.18c0.11-0.06,0.22-0.11,0.34-0.17
			c0.22-0.28,0.45-0.56,0.67-0.84c0.16-0.72,0-0.85,0-1.51c0.5-0.5,0.58-1.29,0.49-1.99c-0.1-0.78-0.43-1.65-0.99-2.2
			c-0.22-0.61-0.45-1.23-0.67-1.84c-0.17-0.62-0.33-1.23-0.5-1.85c-0.73-0.73-0.94-1.56-1.34-2.52c-0.6-1.41-3.65-2.22-3.35-3.69
			c-0.33-0.06-0.67-0.11-1.01-0.17c-0.11-0.28-0.22-0.56-0.34-0.84c-0.33-0.06-0.67-0.11-1.01-0.17c-0.28-0.34-0.56-0.67-0.84-1.01
			c-0.22-0.17-0.45-0.34-0.67-0.5c-0.22-0.11-0.45-0.22-0.67-0.34c-2.02,0.61-5.38-1.24-7.04-2.35c0-0.77-0.68-0.87-1.01-1.34
			c-0.17-0.39-0.33-0.78-0.5-1.17c-0.28-0.17-0.56-0.34-0.84-0.5c-0.46-0.62-0.68-1.25-0.84-2.01c-0.17-0.34-0.33-0.67-0.5-1.01
			c-0.28-0.22-0.56-0.45-0.84-0.67c0-1.14,0.19-2.25,0-3.35c-0.09-0.53,0.28-1.24-0.3-1.64c-0.18-0.01-0.36-0.02-0.53-0.04
			c-0.45-0.5-0.9-1.01-1.34-1.51c-0.9-0.17-1.79-0.34-2.68-0.5c-0.73-0.28-1.45-0.56-2.18-0.84c-0.33,0-0.67,0-1.01,0
			c-0.58,0.15-1.24,0.13-1.68,0.5c-0.62-0.11-1.23-0.22-1.85-0.34c-0.22,0.11-0.45,0.22-0.67,0.34c-0.43,0.13-2.35-0.6-2.71-0.85
			c-0.89-0.69-1.15-1.27-1.15-2.33c0-0.93,0.96-1.53,0.5-2.52c-1.23-0.12-1.57-0.97-2.35-1.85c-0.39-0.28-0.78-0.56-1.17-0.84
			c-0.56-0.84-1.12-1.68-1.68-2.52c0-0.76,0.49-1.53-0.17-2.18c0-0.45,0.32-0.52-0.17-1.01c-0.33-0.33-0.67-0.67-1.01-1.01
			c-0.61,0-1.55-0.71-2.01-1.17c-0.45-0.11-0.9-0.22-1.34-0.34c-0.36,0.36-1.76,0.34-2.35,0.34c-0.39-0.39-3.15-0.89-3.69-0.67
			c-0.45-0.34-0.89-0.67-1.34-1.01c-0.17-0.28-0.33-0.56-0.5-0.84c-0.3-0.3-0.81-0.86-0.5-1.17c0.2-0.17,0.39-0.34,0.59-0.51
			c-0.03-0.05,0.38-0.58,0.48-0.89c0.19-0.63,0.25-2.39-0.37-2.69l-0.03,0.07c-0.62-0.06-1.23-0.11-1.84-0.17
			c-1.26,0.13-2.59,0.34-3.85,0.11c-1.18-0.21-2.27-1.12-3.53-1.12c-0.68-1.29-2.81-2.82-4.19-3.19c-0.42-0.11-0.99-0.68-1.34-0.34
			c-0.92,0-2.2,0.95-2.85,1.51c-0.52,0.44-1.66,1.01-2.35,1.01c-1.57,1.29-3.13,2.57-4.7,3.86c-0.62,0.5-1.23,1.01-1.85,1.51
			c-0.67,0.39-1.34,0.78-2.01,1.17c-0.69,0.11-1.07,0.07-1.68,0.5c-1.17,1.17-2.35,2.35-3.52,3.52c-0.28,0.11-0.56,0.22-0.84,0.34
			c-0.77,0.17-1.31-0.03-2.01,0.5c-0.56,0.67-1.12,1.34-1.68,2.01c-0.45,0.6-0.5,1.35-1.17,1.85c-0.22,0.11-0.45,0.22-0.67,0.34
			c-0.34,0.39-0.67,0.78-1.01,1.17c-0.91,0.71-1.64,1.16-2.49,1.98c-0.23,0.29-0.46,0.58-0.7,0.87c-0.34,0.39-0.67,0.78-1.01,1.17
			c-0.97,0.66-3.55,2.52-4.7,2.52c-1.13,0.5-2.25,1.01-3.38,1.52c-1.11,0.22-2.22,0.44-3.33,0.67c-0.28,0-0.56,0-0.84,0
			c-0.85,0.26-1.71,0.52-2.56,0.78c-0.16,0.12-0.32,0.24-0.48,0.37c-0.56,0.19-1.11,0.39-1.67,0.58c-0.61,0.43-1.23,0.86-1.84,1.29
			c-1.01,0.28-2.01,0.56-3.02,0.84c-0.58,0.13-1.07,0.91-1.68,0.67c-0.56,0.62-1.12,1.23-1.68,1.85c-2.58,0.08-4.95,2.33-6.54,4.19
			c-0.99,1.16-1.54,2.55-2.35,3.86c-0.75,1.22-2.19,2.55-3.36,3.35c-1.63,0.85-3.27,1.71-4.9,2.56c-0.71,0.32-1.43,0.64-2.14,0.96
			c-0.89,0.51-1.78,1.02-2.67,1.53c-1.29,0.83-2.58,1.66-3.87,2.5c-1.06,0.39-2.13,0.78-3.19,1.17c-0.39,0.34-0.78,0.67-1.17,1.01
			L302.26,233.71z"/>
            <circle cx="399.41" cy="230.77" r="1.586"/>
        </g>
        <g id="__Çukurca">
            <path d="
			M240.93,222.44c-0.13-0.39-1.26-0.69-1.05-1.1c-1.3-2.92-3.99-4.78-6.88-5.69c-0.35-0.38-1.15-0.69-1.68-0.69
			c-1.69-1.03-3.61-1.27-5.54-1.51c-0.73-0.09-2.15-0.57-2.35-1.34c-2.29-0.49-4.55-0.57-6.87-0.65c-1.18-0.12-2.35-0.24-3.53-0.36
			c-1.4-0.07-3.68-1.32-5.03-1.85c-0.78-0.3-3.5-1.43-4.19-1.17c-2.03-1.19-5.15-1.94-7.5-2.03c-0.3,0.08-0.6,0.15-0.9,0.23
			c-0.39-0.25-2.09-0.13-2.5,0.13c-2.06-0.13-4.11-0.26-6.17-0.39c-1.19-0.15-2.37-0.3-3.56-0.45c-0.78,0-3.15-0.14-3.52,0.5
			c-2.09-0.07-4.03,0.63-6.04,0.84c-0.65,0.07-2.96,0.73-3.35,0.5c-2.46,1.45-4.92,2.91-7.38,4.36c-1.4,0.62-2.79,1.24-4.19,1.86
			c-1.51,0.72-3.02,1.45-4.53,2.17c-1.37,0.79-2.73,1.59-4.1,2.38c-1.85,0.87-6.28,2.07-7.62,0.18c-0.18-0.24-0.35-0.48-0.53-0.71
			c-0.28-0.67-0.56-1.34-0.84-2.01c-0.22,0-0.45,0-0.67,0c-1.03-1.03-2.58-1.34-3.73-2.54c-0.35-0.36-1.62-2-1.31-2.32
			c-0.56-0.67-1.12-1.34-1.68-2.01c-1.06-0.95-2.13-1.9-3.19-2.85c-1.62-0.78-3.24-1.57-4.86-2.35c-1.12-0.39-2.24-0.78-3.35-1.17
			c-1.01-0.45-2.01-0.89-3.02-1.34c-1.27,0-3.81-1.73-5.02-2.3c-1.32-0.62-2.78-0.75-4.2-0.93c-0.56-0.04-1.12-0.08-1.68-0.13
			c-1.84-0.21-3.69-0.42-5.54-0.63c-3.02-0.29-6.04-0.58-9.06-0.88c-0.67-0.17-1.34-0.34-2.01-0.5l0.13,0.38
			c-0.85,0.35-0.45,1.3-0.72,2.09c-0.67,2.03-1.34,4.06-2,6.1c-0.08,0.95-0.17,1.89-0.25,2.84c-0.17,1.4-0.34,2.8-0.5,4.19
			c-0.15,3.8-0.3,7.61-0.45,11.41c-0.2,2.49,0.02,4.81-0.84,7.22c-0.1,0.29,0.51,0.55,0.74,0.72c1.14,0.83,2.03,0.93,3.39,0.84
			c0.53-0.05,1.02-0.49,1.44-0.87c0.14-0.12,0.27-0.24,0.41-0.37c0.06-0.89,0.11-1.79,0.17-2.68c0.8-0.19,1.74-2.28,2.08-3.04
			c0.52-0.73,1.71-0.24,2.45-0.15c0.45-0.06,0.89-0.11,1.34-0.17c0.71-0.71,3.42-0.46,4.26-0.02c0.45,0.26,0.92,0.79,0.95,1.36
			c0.39,0.56,0.86,0.87,1.33,1.34c-0.21,0.89,0.17,1.72,0.31,2.53c0.14,0.78,2.72,0.89,3.38,1.03c1.2,0.27,1.19,1.53,1.34,2.47
			c0.43,0.07,0.71,0.67,1.01,1.01c0.67,0.34,1.34,0.67,2.01,1.01c0.5,0,1.01,0,1.51,0c0,1.17,1.26,2.56,2.18,3.19
			c1.09,0.4,2.18,0.79,3.28,1.19c1.02,0.42,1.86,0.99,2.93,1.33c1.57,0.45,3.13,0.89,4.7,1.34c0.62,1,2.04,1.35,2.91,1.97
			c0.15,0.13,0.3,0.25,0.45,0.38c-0.44,0.44,0,1.58,0,2.18c0,0.06,0,0.12,0,0.17c0.12,0,0.24,0.01,0.36,0.01
			c0.5,0.7,1.26,0.95,2.1,1.31c1.15,0.48,1.85,1.5,2.96,2.02c1.16,0.54,2.45-0.16,3.47,0.86c1.09-0.33,1.9-1.65,2.85-2.35
			c0.78-0.11,1.57-0.22,2.35-0.34c0.92,0.43,2.47-0.15,3.37-0.42c0.78-0.09,1.56-0.18,2.34-0.27c0.33-0.16,0.67-0.32,1-0.48
			c-0.01-0.79,0.57-0.96,1.22-1.11c0.48-0.09,1.31,0.53,1.64,1.03c1.62,0.77,2.35,2.92,3.01,4.44c0.14-0.02,0.29-0.05,0.43-0.07
			c0.39,0.66,0.99,0.97,1.64,1.35c0.54-0.03,1.08-0.07,1.63-0.1c0.1-0.51,0.6-0.7,1.01-1.01c0.47,0.09,0.46,0.02,0.84-0.17
			c0.09,0.1,0.19,0.19,0.28,0.29c2.43,0.61,2.06,3.56,3.7,5.09c0.43,0.38,1.58,0.63,2.15,0.38c0.64,0.15,1.28,0.3,1.92,0.45
			c0.13,0.33,0.21,0.33,0.5,0.5c0.61-0.69,0.9-1.49,1.66-2.05c0.27-0.19,0.8,0.1,1.2,0.04c1.01-0.17,2.01-0.34,3.02-0.5
			c1.06-0.22,2.12-0.45,3.19-0.67c1-0.74,2-1.47,3-2.21c0.12-0.1,1.41,0.29,1.78,0.5c1.51,0.87,2.96,0.73,4.28,2.04
			c0.06,0.06,0.11,0.12,0.17,0.17c0.06-0.13,0.11-0.26,0.17-0.38c1.05,0.04,1.56-1.03,2.25-1.72c0.51-0.51,2.1,0.14,2.78,0.42
			c0.39,0,0.78,0,1.17,0c0.65-1.24,2.41-0.59,3.52-0.32c1.29,0.39,2.58,0.77,3.86,1.16c0.5,0.06,1.01,0.11,1.51,0.17
			c1.17-0.11,2.35-0.22,3.52-0.34c1.06,0.26,2.11,0.53,3.17,0.79c0.26,0.07,0.2-0.02,0.15,0.27c1.06,0.92,1.09,2.25,1.55,3.47
			c0.56,0.73,1.13,1.45,1.69,2.18c0.27,0.5,0.55,1.01,0.82,1.51c0.36-0.09,1.46,1.42,1.85,1.85c0.2,0.02,0.39,0.04,0.59,0.05
			c0.14,0.04,0.28,0.08,0.42,0.12c-0.02-0.58,0.25-0.65,0.67-1.01c0.16-0.37,0.33-0.75,0.49-1.12c0.2-0.65,0.4-1.31,0.6-1.96
			c0.05-0.42,0.1-0.84,0.16-1.26c0.41-0.9,1.09-1.53,1.93-2.03c0.37-0.53,0.73-1.06,1.1-1.59c0.58,0.06,1.17,0.13,1.75,0.19
			c0.67,0.13,1.35,0.26,2.02,0.39c0.42-0.49,3.33-0.39,3.38-0.07c0.06-2.4,0.26-3.9,0.31-6.3c-0.72-1.07-0.41-3.34-0.17-4.53
			c0.45-0.67,0.9-1.34,1.34-2.01c0.97-0.76,1.86-1.8,2.52-2.85c0.68-0.29,2.38-2.79,2.62-3.54c0.02-0.38,0.05-0.77,0.07-1.15
			c0.65-0.36,0.67-1.34,0.67-2.01c0.34-0.67,0.67-1.34,1.01-2.01c0.72-1.94,0.25-4.22-0.42-6.11
			C240.04,224.57,240.93,222.44,240.93,222.44z"/>
            <circle cx="166.9" cy="247.78" r="1.586"/>
        </g>
        <g id="__Hakkari">
            <path d="
			M91.93,195.51c-0.22-0.84,0.03-1.6,0-2.52c0.02-1.79,0.03-3.58,0.05-5.37c0.15-0.67,0.3-1.34,0.46-2.01
			c-0.38-1.79-0.55-3.52-0.69-5.35c-0.06-0.8-0.22-1.86,0.02-2.7c0.34-0.89,0.71-3.11,0.17-3.02c-0.32-1.97,0.16-3.47,0.34-5.37
			c0-0.73,0-1.45,0-2.18c0.26-1.29,0.52-2.58,0.79-3.87c0.14-1.07,0.49-3.77,1.24-4.24c2.77-1.9,5.53-3.81,8.3-5.71
			c0.54-0.47,2.45-1.7,2.59-2.29c2.4-0.83,4.72-1.78,6.76-3.5c0.86-0.73,3.5-3.02,3.64-4.05c2.37-2.37,4.7-4.47,6.4-7.39
			c0.44-0.75,2.12-3.09,2.16-3.69c0.58-0.65,1.16-1.31,1.75-1.96c0.3-0.51,0.59-1.03,0.89-1.54c0.52-0.68,1.04-1.36,1.56-2.03
			c1.54-2.03,3.09-4.06,4.63-6.09c1.41-1.86,2.27-3.83,3.42-5.82c0.93-1.62,0.97-4.69,1.51-6.54c0.57-0.37,0.95-4.14,0.5-4.53
			c0.06-1.29,0.11-2.57,0.17-3.86c-0.29-0.29-0.35-1.36-0.15-1.71c0.29-0.33,0.49-0.35,0.48-0.8c0.16,0,5.53,0,8.05,0
			c1.42-0.44,4.35-1.27,5.2-1.84c1.46-0.64,2.93-1.27,4.39-1.91c2.56-0.8,4.84-1.88,7.2-3.08c0.89-0.57,1.78-1.15,2.67-1.72
			c1.17-0.38,2.35-0.77,3.52-1.15c0.5-0.06,1.01-0.13,1.51-0.19c0.67,0.12,1.34,0.23,2,0.35c1.57,0,3.14-0.01,4.7-0.01
			c1.53,0.02,3.12,0.19,4.7,0c2.68,0.28,5.37,0.56,8.05,0.84c0.62,0.17,1.23,0.34,1.84,0.5c0.56,0,1.12,0,1.68,0
			c2.46,0.65,4.93,1.31,7.4,1.96c2.15,0.3,4.13-0.39,6.35-0.35c3.66,0.06,7.22,0.82,10.91,0.54c1.96-0.38,3.92-0.76,5.88-1.14
			c1.73-0.22,3.47-0.45,5.2-0.67c1.17-0.45,2.35-0.9,3.52-1.34c2.91-1.01,5.82-2.01,8.72-3.02c0.08-0.35,2.84-0.87,3.86-1.34
			c0.73,0.22,3.79-0.63,4.29-0.96c0.61,0.18,1.75-0.87,3.09-1.38c1.9-0.45,3.8-0.9,5.7-1.34c0.95-0.25,1.89-0.5,2.84-0.74
			c3.93-0.85,7.86-1.7,11.79-2.54c1.9-0.25,6.42,0.06,7.1,1.96c0.87,1.86,1.07,3.71,0.71,5.71c-0.12,0.69,0.15,1.34-0.3,1.83
			c0.12,0.03,0.23,0.05,0.35,0.08c0.29,0.05,0.47-0.01,0.51,0.3c0.04,1.34-0.98,2.64-1.06,3.93c-0.16,0.91-0.32,1.82-0.48,2.74
			c-0.28,0.17,0.67,2.73,0.84,3.8c-0.27,0.49,0.7,1.57,1.01,2.91c-1.53,0.76-3.05,1.05-4.37,2.64c-0.36,0.55-0.73,1.1-1.09,1.66
			c-0.81,0.27-1.59,0.32-2.26,0.91c-0.71,0-1.43-0.01-2.14-0.01c-0.75,0.15-0.67,1.13-1.72,0.68c-0.34,0.45-0.67,0.89-1.01,1.34
			c-1.33-0.55-2.67-1.1-4-1.65c-0.73,0.16-1.47,0.31-2.2,0.47c-0.5,0.34-1.01,0.67-1.51,1.01c-0.6,1.05-0.85,1.79-2.03,2.46
			c-2.23,1.26-4.73,1.01-7.17,0.9c-2.19-0.1-3.93-0.15-6.09-0.61c-0.95,0.09-1.89,0.18-2.84,0.27c-0.52,0.52-1.1,0.67-1.69,1.03
			c-1.05,0.65-1.38,1.81-2.8,1.6c-0.29-0.09-1.77-0.28-2.22-0.28c-0.81,0.68-0.7,0.52-0.84,1.51c0.11,0.73,0.22,1.45,0.34,2.18
			c1.17,1.68,2.35,3.35,3.52,5.03c0.34,1.71,1.62,2.98,2.55,4.41c0.36,0.56,0.98,1.5,1.64,1.63c0.53,0.63,1.06,1.27,1.58,1.9
			c2.09,1.26,4.65,4.83,5.65,7.16c0.27,0.84,0.55,1.68,0.82,2.52c0.62,1.06,1.23,2.12,1.84,3.19c0.36,0.46,1.02,1.09,0.99,1.67
			c-0.01,0.4-0.26,1.78-0.15,1.91c0.68,1.19,1.05,2.93,1.18,4.3c0.06,0.67,0.11,1.34,0.17,2.01c-0.18,0.71-0.36,1.41-0.54,2.12
			c0.05,1.79,0.76,3.46,0.04,5.26c-0.45,0.67-0.89,1.34-1.34,2.01c-0.16,0.59-0.31,1.17-0.47,1.76c-0.4,0.65-0.81,1.29-1.21,1.93
			c-2.22,0.72-4.17,1.7-6.21,2.85c-0.62,0.08-1.23,0.16-1.85,0.25c-0.46,0.02-1.22,0.1-1.51-0.25c-0.89,0.17-1.79,0.34-2.68,0.5
			c-0.73,0.11-1.45,0.22-2.18,0.34c-1.34-0.03-2.67-0.06-4.01-0.09c-1.59,0.29-2.29,1.08-3.54,1.93c-0.84,0.39-1.68,0.78-2.52,1.17
			c-0.5,0.59-0.93,1.59-1.68,1.84c-0.27,0.84-0.54,1.68-0.81,2.52c-0.28,1.57,0.45,2.87,0.64,4.36c0.24,0.29,0.45,0.44,0.5,0.84
			c1.86,1.92,4.92,4.18,7.79,4.31c0.96,0.8,1.89,1.74,3.16,2.11c0.41,0.95,1.97,1.74,2.87,2.17c0.6,0.28,1.1,1.03,1.95,0.97
			c1.31,1.01,2.67,2.04,4.19,2.68c1.68,0.64,3.37,1.28,5.05,1.91c0.61,0.37,1.22,0.74,1.83,1.11c0.33,0.39,0.67,0.78,1.01,1.17
			c2.29,4.57,3.24,11.16,1.34,15.94c-0.43,1.08-1.49,1.96-2.35,2.68c-1.68,1.51-3.36,3.02-5.03,4.53c-0.65,0.55-1.9,0.24-2.35,0.67
			c-2.35,0.22-3.64,0.71-5.99,0.93c-0.13-0.39-1.26-0.69-1.05-1.1c-1.3-2.92-3.99-4.78-6.88-5.69c-0.35-0.38-1.15-0.69-1.68-0.69
			c-1.69-1.03-3.61-1.27-5.54-1.51c-0.73-0.09-2.15-0.57-2.35-1.34c-2.29-0.49-4.55-0.57-6.87-0.65c-1.18-0.12-2.35-0.24-3.53-0.36
			c-1.4-0.07-3.68-1.32-5.03-1.85c-0.78-0.3-3.5-1.43-4.19-1.17c-2.03-1.19-5.15-1.94-7.5-2.03c-0.3,0.08-0.6,0.15-0.9,0.23
			c-0.39-0.25-2.09-0.13-2.5,0.13c-2.06-0.13-4.11-0.26-6.17-0.39c-1.19-0.15-2.37-0.3-3.56-0.45c-0.78,0-3.15-0.14-3.52,0.5
			c-2.09-0.07-4.03,0.63-6.04,0.84c-0.65,0.07-2.96,0.73-3.35,0.5c-2.46,1.45-4.92,2.91-7.38,4.36c-1.4,0.62-2.79,1.24-4.19,1.86
			c-1.51,0.72-3.02,1.45-4.53,2.17c-1.37,0.79-2.73,1.59-4.1,2.38c-1.85,0.87-6.28,2.07-7.62,0.18c-0.18-0.24-0.35-0.48-0.53-0.71
			c-0.28-0.67-0.56-1.34-0.84-2.01c-0.22,0-0.45,0-0.67,0c-1.03-1.03-2.58-1.34-3.73-2.54c-0.35-0.36-1.62-2-1.31-2.32
			c-0.56-0.67-1.12-1.34-1.68-2.01c-1.06-0.95-2.13-1.9-3.19-2.85c-1.62-0.78-3.24-1.57-4.86-2.35c-1.12-0.39-2.24-0.78-3.35-1.17
			c-1.01-0.45-2.01-0.89-3.02-1.34c-1.27,0-3.81-1.73-5.02-2.3c-1.32-0.62-2.78-0.75-4.2-0.93c-0.56-0.04-1.12-0.08-1.68-0.13
			c-1.84-0.21-3.69-0.42-5.54-0.63c-3.02-0.29-6.04-0.58-9.06-0.88c-0.67-0.17-1.34-0.34-2.01-0.5
			C91.81,195.62,91.87,195.57,91.93,195.51z"/>
            <circle cx="194.8" cy="147.19" r="1.586"/>
        </g>
    </g>
</svg>
