<?xml version="1.0" encoding="UTF-8"?>
<!DOCTYPE svg PUBLIC "-//W3C//DTD SVG 1.1//EN" "http://www.w3.org/Graphics/SVG/1.1/DTD/svg11.dtd">
<svg version="1.1" id="HaritaCizim" xmlns="http://www.w3.org/2000/svg" xmlns:xlink="http://www.w3.org/1999/xlink" x="0px" y="0px" viewBox="0 0 340 500" preserveAspectRatio="none">
    <defs id="__def">
        <radialGradient id="f">
            <stop offset="0" stop-color="white" stop-opacity="1"/>
            <stop id="STOP1" offset=".4" stop-opacity="1"/>
            <stop offset="1" stop-color="white" stop-opacity=".2"/>
        </radialGradient>
        <filter id="__flt1" x="0" y="0" width="200%" height="200%" filterUnits="objectBoundingBox">
            <feGaussianBlur in="SourceAlpha" stdDeviation="3" result="blur1"/>
            <feSpecularLighting result="specOut" in="blur1" specularConstant="1.5" specularExponent="20" lighting-color="#bbbbbb">
                <feDistantLight azimuth="45" elevation="30"/>
            </feSpecularLighting>
            <feComposite in="specOut" in2="SourceAlpha" operator="in" result="specOut"/>
            <feComposite in="SourceGraphic" in2="specOut" operator="arithmetic" k1="0" k2="1" k3="1" k4="0"/>
        </filter>
        <filter id="__flt2" x="0" y="0" width="200%" height="200%" filterUnits="objectBoundingBox">
            <feGaussianBlur in="SourceAlpha" stdDeviation="3" result="blur1"/>
            <feSpecularLighting result="specOut" in="blur1" specularExponent="20" lighting-color="#bbbbbb">
                <fePointLight x="-2000" y="100" z="2000"/>
            </feSpecularLighting>
            <feComposite in="specOut" in2="SourceAlpha" operator="in" result="specOut"/>
            <feComposite in="SourceGraphic" in2="specOut" operator="arithmetic" k1="0" k2="1" k3="1" k4="0"/>
        </filter>
        <filter id="__flt3" x0="-50%" y0="-50%" width="200%" height="200%" filterUnits="objectBoundingBox">
            <feGaussianBlur in="SourceAlpha" stdDeviation="3" result="blur"/>
            <feOffset in="blur" dx="0" dy="0" result="offsetBlur"/>
            <feSpecularLighting in="blur" surfaceScale="4" specularConstant=".5" specularExponent="20" lighting-color="flavor" result="specOut">
                <fePointLight x="-5000" y="-10000" z="5000"/>
            </feSpecularLighting>
            <feComposite in="specOut" in2="SourceAlpha" operator="in" result="specOut"/>
            <feComposite in="SourceGraphic" in2="specOut" operator="arithmetic" k1="0" k2="1" k3="1" k4="0" result="litPaint"/>
            <feMerge>
                <feMergeNode in="offsetBlur"/>
                <feMergeNode in="litPaint"/>
            </feMerge>
        </filter>
        <filter id="__flt4" x0="-50%" y0="-50%" width="200%" height="200%">
            <feGaussianBlur in="SourceAlpha" stdDeviation="2" result="blur"/>
            <feOffset dy="-1" dx="-1"/>
            <feComposite in2="SourceAlpha" operator="arithmetic" k2="-1" k3="1" result="hlDiff"/>
            <feFlood flood-color="white" flood-opacity=".7"/>
            <feComposite in2="hlDiff" operator="in"/>
            <feComposite in2="SourceGraphic" operator="over" result="withGlow"/>
            <feOffset in="blur" dy="3" dx="3"/>
            <feComposite in2="SourceAlpha" operator="arithmetic" k2="-1" k3="1" result="shadowDiff"/>
            <feFlood flood-color="black" flood-opacity="1"/>
            <feComposite in2="shadowDiff" operator="in"/>
            <feComposite in2="withGlow" operator="over"/>
        </filter>
        <filter id="__golge1" x="0" y="0" width="200%" height="200%" filterUnits="userSpaceOnUse">
            <feOffset result="offOut" in="SourceAlpha" dx="8" dy="8"/>
            <feGaussianBlur result="blurOut" in="offOut" stdDeviation="3"/>
            <feBlend in="SourceGraphic" in2="blurOut" mode="normal"/>
        </filter>
    </defs>
    <g id="__Komsular" display="none">
        <linearGradient id="SVGID_1_" gradientUnits="userSpaceOnUse" x1="-22" y1="292.7642" x2="137.8149" y2="292.7642">
            <stop offset="0" style="stop-color:#FFFFFF;stop-opacity:0"/>
            <stop offset="1" style="stop-color:#78B1E1"/>
        </linearGradient>
        <path fill-rule="evenodd" clip-rule="evenodd" fill="url(#SVGID_1_)" d="M0.25,500V201.68v-3.81c0.07-1.04,0.15-2.08,0.22-3.12   c0.5-1.38,1-2.77,1.51-4.15c0.17-0.88,0.34-1.75,0.51-2.63c0.06-0.81,0.12-1.62,0.19-2.43c-0.1-1.31-0.21-2.61-0.31-3.92   c0.1-1.19,0.21-2.37,0.31-3.56c1.3-2.42,2.79-5.42,5.11-6.89c0.79-0.26,1.58-0.51,2.36-0.77c0.75-0.56,1.49-1.12,2.24-1.68   c0.61-0.32,1.23-0.65,1.84-0.98c0.38-0.17,0.76-0.35,1.14-0.52c1.74-1.28,3.73-2.35,5.23-3.92c0.44-0.69,0.87-1.37,1.31-2.06   c0.61-0.05,2.86-1.03,4.52-1.43c-1.18-1-1.18-1-2.62-1.74c0-0.81-3.96,1.18-3.96,0.37c-0.75,0.17-3.18-0.05-3.18-1.12   c0-1.93-2.58,0.93-2.58-1c0-0.57-4.22-0.93-4.86-0.87c-0.68,0.02-7.22-1.86-7.22-2.06c0-0.81-2.44-5.02-1.96-7.78   c0.62-3.61,4.2-5.92,4.2-6.98c0.03-0.43,12.49,3.18,12.56,3.07c0.41-0.76-0.54-0.86,0.42-0.86c0.89,0.03,1.59,0.04,2.35,0.55   c1.39,0.95,0.84,2.5,3.41,1.84c1.63-0.45,3.25-0.9,4.88-1.35c0.51-0.28,1.01-0.55,1.52-0.83c1.43-0.28,2.87-0.57,4.3-0.85   c1.74,0.03,3.48,0.07,5.23,0.1c0.87,0.12,1.74,0.25,2.62,0.37c0.25-0.87,0.5-1.74,0.75-2.62c0.33,0.32,0.51,0.64,0.98,0.64   c0.42-0.21,0.84-0.42,1.26-0.64c0.94,0.75,1.99,0.98,3.18,0.75c1.02-2.74,4.98-3.42,7.18-5.21c1.34-1.13,2.69-2.26,4.03-3.39   c0.53-1.35,0.85-2.87,1.85-3.96c0.97-1.07,2.32-1.5,3.47-2.33c0.4-0.29,0.95-0.95,1.41-0.81c0.47-1.32,1.48-2.37,2.43-3.36   c1.18-1.06,2.37-2.12,3.55-3.18c1.01-0.1,1.6,0.05,2-0.96c0.22-0.59,0.69-1.64,0.43-2.22c0.73-1.01,1.45-2.02,2.18-3.02   c0.27-0.67,0.54-1.35,0.81-2.02c0.89-1.34,2.09-2.47,2.8-3.92c1.09-0.67,2.18-1.34,3.28-2.01c1.17-0.79,1.18-2.48,2.89-2.48   l1.34-0.85c1.39,0.37,3.21-3.08,3.89-4.08c0.45-0.66,1.66-1.62,2.43-1.62c1.1-1.2,2.19-2.4,3.29-3.6c1.87-1.49,3.96-2.37,5.68-4.06   c0.75-0.74,3.83,0.51,4.67,0.94c0.77-0.2,3.7,1.59,4.49,2.03c3.81,2.15,7.69,3.98,11.36,6.42c1.84,1.26,3.69,2.53,5.53,3.79   l0.48,0.28c0.88-0.03,1.15,0.9,1.87,1.31c2.42,1.38,4.39,3.63,6.36,5.6c0.81,1,1.62,2,2.42,3c3.13,2.9,5.41,6.58,6.91,10.46   c0.66,0.92,1.32,1.85,1.98,2.77c1.33,2.13,2.67,4.26,4,6.39c0.37,0.37,0.75,0.75,1.12,1.12c0.1,0.22,0.2,0.43,0.3,0.65l0.07,0.66   c0.38,0,2.3,2.51,2.43,2.99c0.53,2.01,1.15,4.41,0.75,6.55c-0.38,0.68-0.75,1.36-1.13,2.04c-0.44,0.12-0.87,0.25-1.31,0.37   c-0.59,0.96-1.18,1.92-1.76,2.88c-0.32,1.6,0.45,4.86,0.83,6.46c-0.19,0.25-0.37,0.5-0.56,0.75l0.57,0.71   c0.74-0.05,1.47,0.47,1.96,1.06c-0.34,0.53-0.69,1.06-1.03,1.59c0.26,0.32-0.2,1.22-0.19,1.68c0.04,1.36-0.84,3.46-0.37,4.67   c0.68,1.78,1.37,3.55,2.05,5.33c0.47,0.78,0.93,1.56,1.4,2.34c0.51,1.17,0.87,2.29,1.03,3.54c0.31,0.37,0.62,0.75,0.93,1.12   c0,0.62,0,1.25,0,1.87c-0.68,0.73-0.59,3.28-0.56,4.3c-0.19,0.62-0.37,1.25-0.56,1.87c-0.37,0.69-0.75,1.37-1.12,2.06   c-0.31,0.31-0.62,0.63-0.93,0.94c-0.12,0.19-0.9,1.37-1.03,1.55c0.23-0.15,0,0-0.3,1.23c-0.72,0.38-0.2,1.71-0.36,2.45   c0,0.56,0,1.12,0,1.68c-0.9,0.96-0.2,3.2-1.15,4.46c-0.42,0.55-2.12,2.45-3.95,2.6c-0.29,0.49-3.1-0.76-3.72-0.98   c-0.11-0.03-0.23-0.07-0.34-0.1c-0.22,0.46-2.07,1.14-2.66,1.33c-0.8,0.26-1.24,0.91-2.2,0.91c-1.12,1.06-2.24,2.12-3.36,3.18   c-1.37,1.06-2.74,2.12-4.11,3.18v-0.37c0,0.4-0.96,0.37-1.31,0.37c0,0.52-2.51,2.2-3.07,2.72c-0.71,0.67-3.59,2.93-4.41,2.51   c0,0.44-2.52,1.89-3.03,2.16c-3.21,1.71-6.48,3.42-9.86,4.75c-0.12,0.57-0.76,1.03-1.12,1.49c0,2.38-2.76,4.53-4.3,5.98   c-0.36,0.69-0.72,1.38-1.08,2.07c-0.7,0.87-1.4,1.73-2.1,2.6c-0.81,0.5-1.62,1-2.43,1.49c-1.06,2.58-2.97,5.77-5.44,7.19   c-0.68,0.22-1.35,0.44-2.03,0.66c-0.91,0.44-1.82,0.89-2.73,1.33c-0.44,0.1-0.89,0.19-1.33,0.29c-0.82,0.4-1.64,0.81-2.45,1.21   c-0.44,0.3-0.89,0.6-1.33,0.91c-0.87,0.06-1.74,0.12-2.62,0.19c0.02,0.71-0.36,0.64-0.75,1.12c-0.25,0.5-0.5,1-0.75,1.49   c-0.43,0.61-1.21,1-1.87,1.31c-0.07,0.59-0.72,1.05-1.12,1.49c-0.75,0.06-1.5,0.12-2.24,0.19c0.04,0.71-0.9,1.04-1.46,1.36   c-0.07,0.04-0.15,0.09-0.22,0.13c0.28,0.35-0.09,1.76-0.13,2.42c-0.12,1.93-0.77,3.77-1.78,5.4c-0.51,0.79-2.49-0.01-3.11-0.39   c-0.36-0.24-0.22-0.09-0.29,0.4c-1.2,0.48-1.73,2.04-2.39,3.16c-0.85,1.45-1.8,2.22-3.13,3.21c-0.11,0.68-0.22,1.36-0.33,2.04   c-0.21,2.12-0.2,4.23-1.24,6.14c-0.67,1.28-3.64,1.97-4.97,2.28c-0.32-0.27-0.89-0.17-1.31-0.19c-0.4,0.17-0.8,0.33-1.2,0.5   c-0.73,0.54-1.46,1.08-2.2,1.62c-1.7,0.99-0.98,3.58-2.4,5.17c-1.09,1.22-2.15,2.24-3.51,3.17c-0.76,0.5-1.52,1-2.28,1.5   c-0.84,1.08-1.69,2.17-2.53,3.25c-0.54,0.69,0.42,2.17,0.47,2.91c0.09,0.75,0.18,1.5,0.27,2.25c0.04,2.29-0.36,3.68,0.8,5.84   c0.39,0.98,0.78,1.95,1.17,2.93c0.69,0.63,1.38,1.26,2.07,1.89c1.05,1.55,2.11,3.1,3.16,4.65c0.75,0.69,1.5,1.37,2.24,2.06   c0.26,0.55,0.52,1.11,0.78,1.66c0.75,1.33,1.86,2.99,3.07,3.89c0.34,0.45,0.67,0.9,1.01,1.35c0.84,0.83,1.13,1.71,1.63,2.75   c0.76,1.33,1.53,2.65,2.29,3.98c0.19,0.33,0.4,1.18,0.75,1.31l0.71,1.79c1.13,1.96,2.27,3.92,3.4,5.87   c0.5,0.63,1.31,1.57,1.31,2.43c1.95,2.28,3.9,4.57,5.84,6.85c0.48,0.77,0.96,1.54,1.44,2.31c0.44,1,0.87,1.99,1.31,2.99   c-0.12,0.12-0.25,0.25-0.37,0.37c0.54,0,1.16,0.89,1.44,1.3c0.86,1.79,1.71,3.59,2.57,5.38c0.57,1.37,1.56,2.51,2.53,3.59   c0,1.06,2,5.17,2.8,5.98c0.58,2.11,1.52,3.91,2.5,5.84c0.71,1.4,1.79,3.4,1.79,4.99c0.78,1.7,1.55,3.39,2.33,5.09   c0.34,0.92,0.69,1.84,1.03,2.76c1.05,1.38,1.55,2.86,2.8,4.11c-0.19,0.72,1.45,5.48,1.49,5.61l-0.56,0.75   c-0.7,1.34-3.11,3.84-4.48,4.48c-0.72,1.33-1.31,2-1.31,3.55c-1.78,1.8-3.55,3.61-5.33,5.41c-0.63,0.55-1.54,1.94-2.33,2.06   c-0.4,0.73-0.95,2.14-1.87,2.24c-0.5,1.37-1,2.74-1.49,4.11c0.12,0.75,0.25,1.49,0.37,2.24c-0.15,1.12-0.44,2.63-0.44,2.63   c-0.29,0-0.58-0.01-0.86-0.01c-0.61,0.54-1.22,1.09-1.83,1.63c-0.7,0.33-1.4,0.65-2.1,0.98c-0.79,1.05-1.17,2.17-1.68,3.36   c-0.44,0.89-0.88,1.79-1.32,2.68c-0.49,1.17-0.59,2.44-0.74,3.67c-0.19,0.81-0.37,1.62-0.56,2.43c-0.44,1.32-0.88,2.65-1.31,3.97   c-0.37,0.54-0.74,1.09-1.12,1.64c-0.6,0.31-1.7,1.06-2.24,0.56c-2.02,2.09-4.2,4.67-7.1,5.42c-1.13,0.29-3.99,0.38-4.3-0.93   c-1.3-0.08-2.32-0.75-3.55-0.92c-0.55-0.07-2.8,0.39-2.72,0.61c0.13,0.33-0.15,0.65,0.08,0.74c0.69,0.26,2.65,0.64,2.65,1.44   c-0.6,0.89-0.59,1.73-0.64,2.76c-0.36,0.28-0.32,0.26-0.17,0.64c0.5,0.74,1,1.48,1.51,2.22c0.48-0.02,1.65,0.39,1.54,0.92   c0.25,1.37,0.5,2.74,0.75,4.11c-0.17,0.45-0.07,0.78-0.56,0.93c0.37,0.31,0.75,0.62,1.12,0.93c0.58,0.85,0.84,1.8,1.23,2.65   c0.3,0.66,0.73,1.74,0.27,2.4c1.96,1.96,2.77,5.24,2.72,8.03c-0.01,0.57,0.39,1.64,0.08,2.06c0.5,1.2,0.74,2.52,0.19,3.74   c0.4,0.27,0.93,0.46,0.93,0.89c-0.11,1.33-0.52,2.5-0.93,3.78c-0.38,0.07-0.6,0.23-0.93,0c-0.32,0.36-0.64,0.73-0.96,1.09   c-0.27,1.87-0.54,3.74-0.81,5.61c-0.14,0.53-0.23,1.59-0.73,1.82c-0.66,0.21-1.32,0.42-1.99,0.63c-0.84,0.62-1.04,1.42-1.65,2.11   c-0.45,0.35-0.89,0.71-1.34,1.06c-4.55,0-9.09,0-13.64-0.01c-1.62-0.01-3.24-0.02-4.86-0.04c-0.35-0.02-1.49,0.07-1.49-0.33   L0.25,500z"/>
        <path fill-rule="evenodd" clip-rule="evenodd" fill="none" stroke="#000000" stroke-width="0.25" stroke-miterlimit="10" d="   M115.44,60.91c0-3.62,0.37-7.04,0.37-10.66c0-1.78-0.31-3.84,0.78-5.23c1.22-1.54,3.55-1.97,5.2-3.44   c2.02,0.67,3.76,1.86,4.48-1.08c0.17-0.69,0.08-1.86,0-2.56c-0.06-0.53,0.01-0.84-0.18-1.31c-0.22-0.55-1.26-1.12-1.33-1.55   c-0.22-1.39,2.06-2.82,1.89-4.99c-0.22-2.64-2.85-2.89-4.07-4.87c-1.5-2.45,0.66-3.4,1.48-5.41c0.31-0.75,0.07-1.83,0.34-2.62   c0.36-1.05,0.93-1.81,1.28-2.8c0.65-1.84,1.4-3.53,0.37-5.41c-1.05-1.92-3.57-3.3-4.08-5.47c-0.39-1.67,1.24-2.1,1.13-3.51"/>
        <path fill-rule="evenodd" clip-rule="evenodd" fill="none" stroke="#000000" stroke-width="0.25" stroke-miterlimit="10" d="   M222.31,88.38c0.02-0.71-0.07-1.98,0.22-2.61c0.54-1.15,1.64-1.4,2.35-2.44c1.16-1.69,1.64-3.72,3.02-5.41   c1.39-1.72,2.11-3.79,3.52-5.42c0.78-0.89,1.55-1.32,2.33-2.26c0.7-0.83,0.9-1.91,1.57-2.76c0.69-0.86,1.86-1.6,2.63-2.48   c0.79-0.9,1.19-2.16,1.95-3.04c1.44-1.67,3.32-3.18,4.83-4.8c2.77-2.99,5.86-6.31,6.34-10.65c0.38-3.44-1-7.78,0.7-10.89   c2.1-3.85,5.03-7.46,9.06-8.55c4.15-1.13,7.94-2.84,9.72-7.14c1.54-3.74,2.25-8.5,5.89-10.79c1.57-0.99,3.53-1.75,4.95-3.16   c1.41-1.41,1.81-4.19,3.13-5.25"/>
        <path fill-rule="evenodd" clip-rule="evenodd" fill="none" stroke="#000000" stroke-width="0.25" stroke-miterlimit="10" d="   M339.65,136.77c-0.67-0.24-1.28-0.45-1.88-0.79c-1.05-0.58-1.65-1.52-2.8-1.83c-0.74-0.2-1.84,0-2.62,0   c-1.89,0-3.98,0.33-5.64-0.55c-0.95-0.5-1.78-1.79-2.8-2.08c-0.76-0.22-1.81,0.1-2.62,0.02c-1.88-0.18-3.95-0.21-5.52-1.32   c-1.87-1.33-3.57-2.03-5.47-3.19c-1.83-1.12-3.24-2.83-5.41-3.35c-2.21-0.54-3.47-0.21-5.42-1.48c-0.93-0.6-5.33-0.98-5.45-1.92   c-0.09-0.65,2.51-1.78,3.07-2.32c2.04-1.97,3.13-4.81,4.3-7.34c0.86-1.85,2.13-3.68,3.14-5.47c1.17-2.08,2.75-3.18,4.48-4.67   c1.71-1.47,3.77-2.65,5.04-4.44c1.27-1.78,2.28-4.13,4.47-5.1c3.61-1.61,7.09,0.11,9.68,2.31c1.62,1.37,3.02,0.9,4.72,1.66   c1.03,0.45,0.86,0.98,2.24,1.13c0.78,0.09,1.63,0,2.42,0"/>
        <text transform="matrix(0.6712 -0.7412 0.7412 0.6712 277.0232 82.5601)" font-family="'MyriadPro-Regular'" font-size="11.2108">GAZİANTEP</text>
        <text transform="matrix(1 0 0 1 166.0742 30.4561)" font-family="'MyriadPro-Regular'" font-size="11.2108">OSMANİYE</text>
        <text transform="matrix(0.3623 -0.9321 0.9321 0.3623 54.6396 57.3127)" font-family="'MyriadPro-Regular'" font-size="11.2108">ADANA</text>
        <path fill-rule="evenodd" clip-rule="evenodd" fill="none" stroke="#000000" stroke-width="0.25" stroke-miterlimit="10" d="   M283.41,120.33c1.77,1.51,8.74,0.37,11.21,0.37"/>
        <text transform="matrix(0.4925 -0.8703 0.8703 0.4925 284.5347 381.7903)" font-family="'MyriadPro-Regular'" font-size="11">S U R İ Y E</text>
    </g>
    <g id="__Harita" display="none">
        <rect id="__cer" x="0" y="0" fill="#000000" opacity="0" width="340" height="500"/>
        <g id="__Arsuz">
            <path d="    M133.47,207.4c0,3.01,5.05,5.29,7.1,7.47c0.32-0.07,2.31-0.52,2.21-0.04c-0.18,0.51-0.35,1.02-0.53,1.53    c0.04,0.63,0.18,1.32-0.19,1.87c0.1,0,0.21,0,0.32,0.01c0.31,0.03,0.25,1.83,0.25,2.05c-0.23,1-0.06,1.35,0.37,2.24    c-0.06,0.5-0.12,1-0.19,1.49c-1.03,1.36-2.34,2.72-2.99,4.3c-0.21,0.73-0.42,1.45-0.63,2.18c-0.35,0.89-0.7,1.79-1.05,2.68    c-0.73,1.4-1.72,2.34-2.62,3.55c-0.37,0.82-0.74,1.64-1.11,2.46c-1.42,1.95-2.84,3.9-4.26,5.84c-0.57,0.51-1.14,1.01-1.72,1.52    c-1.76,1.95-3.52,3.9-5.27,5.86c-1.34,1.41-2.91,2.68-3.71,4.5c-0.27,1.17-0.55,2.35-0.82,3.52c-0.6,1.44-1.19,2.88-1.79,4.33    c-0.06,0.93-0.12,1.87-0.19,2.8c-0.74,0.37-0.79,1.28-0.93,2.06c-0.31,1.65-0.89,3.22-1.31,4.86c-0.16,0.63-0.1,1.61-0.56,2.06    c0.05,0.45,0.1,0.9,0.15,1.35c-0.6,0.6-0.41,1.44-0.71,2.2c-0.62,0.87-1.25,1.74-1.87,2.62c-0.65,1.15-0.98,4.81-1.68,5.42    c-0.19,1.86-0.39,3.72-0.58,5.58c-0.05,0.94-0.11,1.89-0.16,2.83c-0.45,0.68-0.9,1.35-1.35,2.03c-0.92,0.82-1.84,1.64-2.76,2.45    c-1.9,2.63-6.57,5.22-9.72,5.98c-0.79,0.37-1.57,0.75-2.36,1.12c-0.75,0.29-1.49,0.58-2.24,0.86c-0.71,0.09-1.42,0.17-2.13,0.26    c-0.51,0.11-1.57-0.11-1.87,0.19c-1.5,2.03-2.96,3.38-5.25,4.46c-0.55,0.26-1.11,0.52-1.66,0.78c-2.28,2.28-5.13,2.98-7.67,4.66    c-1.17,0.78-2.2,1.77-3.17,2.79c-0.51,0.53-0.99,1.43-1.68,1.71c-0.94,1.66-2.44,3.11-3.98,4.21c-0.45,0.32-1.25,1.81-1.81,1.58    c-0.35-0.13-0.55-0.79-0.75-1.12c-0.76-1.33-1.53-2.65-2.29-3.98c-0.5-1.04-0.79-1.92-1.63-2.75c-0.34-0.45-0.67-0.9-1.01-1.35    c-1.21-0.91-2.31-2.56-3.07-3.89c-0.26-0.55-0.52-1.11-0.78-1.66c-0.75-0.68-1.49-1.37-2.24-2.06c-1.05-1.55-2.11-3.1-3.16-4.65    c-0.69-0.63-1.38-1.26-2.07-1.89c-0.39-0.98-0.78-1.95-1.17-2.93c-1.16-2.17-0.76-3.56-0.8-5.84c-0.09-0.75-0.18-1.5-0.27-2.25    c-0.05-0.74-1.02-2.23-0.47-2.91c0.84-1.08,1.69-2.17,2.53-3.25c0.76-0.5,1.52-1,2.28-1.5c1.36-0.93,2.42-1.95,3.51-3.17    c1.42-1.59,0.7-4.18,2.4-5.17c0.73-0.54,1.46-1.08,2.2-1.62c0.4-0.17,0.8-0.33,1.2-0.5c0.42,0.01,0.99-0.09,1.31,0.19    c1.33-0.31,4.3-1,4.97-2.28c1.03-1.91,1.03-4.02,1.24-6.14c0.11-0.68,0.22-1.36,0.33-2.04c1.33-1,2.27-1.76,3.13-3.21    c0.67-1.13,1.19-2.68,2.39-3.16c0.07-0.49-0.07-0.64,0.29-0.4c0.61,0.38,2.6,1.18,3.11,0.39c1.01-1.63,1.66-3.48,1.78-5.4    c0.04-0.66,0.42-2.06,0.13-2.42c0.07-0.04,0.15-0.09,0.22-0.13c0.56-0.32,1.5-0.65,1.46-1.36c0.75-0.06,1.49-0.12,2.24-0.19    c0.41-0.45,1.05-0.9,1.12-1.49c0.66-0.3,1.44-0.69,1.87-1.31c0.25-0.5,0.5-1,0.75-1.49c0.38-0.48,0.76-0.41,0.75-1.12    c0.87-0.06,1.74-0.12,2.62-0.19c0.44-0.3,0.89-0.6,1.33-0.91c0.82-0.4,1.64-0.81,2.45-1.21c0.44-0.1,0.89-0.19,1.33-0.29    c0.91-0.44,1.82-0.89,2.73-1.33c0.68-0.22,1.35-0.44,2.03-0.66c2.47-1.42,4.38-4.61,5.44-7.19c0.81-0.5,1.62-1,2.43-1.49    c0.7-0.87,1.4-1.73,2.1-2.6c0.36-0.69,0.72-1.38,1.08-2.07c1.54-1.45,4.3-3.6,4.3-5.98c0.36-0.47,1-0.93,1.12-1.49    c3.39-1.33,6.65-3.04,9.86-4.75c0.51-0.27,3.03-1.72,3.03-2.16c0.82,0.42,3.7-1.84,4.41-2.51c0.55-0.52,3.07-2.2,3.07-2.72    C132.51,207.96,133.47,207.8,133.47,207.4z"/>
            <circle cx="71.16" cy="262.74" r="1.586"/>
        </g>
        <g id="__Payas">
            <path d="    M157.95,130.79c0.62,0,1.25,0,1.87,0c0.81-0.19,1.62-0.37,2.43-0.56c1.54,0.13,3.08,0.26,4.61,0.39c1.51,0.62,3.03,1.23,4.54,1.85    c1.12,0.11,2.24,0.73,3.11,1.4c3.16,2.41,5.76,5.66,9.41,7.39c0.81,0.19,1.62,0.37,2.43,0.56c0.69,0.19,1.37,0.37,2.06,0.56    c1.06,0.06,2.12,0.12,3.18,0.19c0.64,0.44,1.51,0.9,1.54,1.69c0,2.56-0.51,5.02-0.23,7.65c0.13,1.23-0.19,2.49,0.26,3.68    c0.35,0.7,0.7,1.41,1.04,2.11c0.16,0.57,0.32,1.14,0.47,1.72c0.15,0.35,0.68,1.98,0.15,2.17c-1.02,0.4-0.37-0.19-1.53-0.78    c-0.88-0.54-1.76-1.07-2.65-1.61c-0.93-0.25-1.87-0.5-2.8-0.75c-0.44,0.12-0.87,0.25-1.31,0.37c-1,0.57-2.21,1.17-3.39,1.23    c-3.29-0.22-6.58-0.44-9.87-0.67c-2.14-0.27-3.83-1.88-5.84-2.65c-2.1-0.8-4.2-1.61-6.29-2.41c-1.67-0.14-3.35-0.1-5.02-0.25    c-0.88-0.22-1.77-0.45-2.65-0.67c0.19-0.25,0.37-0.5,0.56-0.75c-0.38-1.6-1.14-4.86-0.83-6.46c0.59-0.96,1.18-1.92,1.76-2.88    c0.44-0.12,0.87-0.25,1.31-0.37c0.38-0.68,0.75-1.36,1.13-2.04c0.39-2.14-0.22-4.54-0.75-6.55c-0.13-0.48-2.05-3.18-2.43-3.18    C154.27,130.98,156.98,130.94,157.95,130.79z"/>
            <circle cx="160.58" cy="145.97" r="1.586"/>
        </g>
        <g id="__Kırıkhan">
            <path d="    M174.39,260.65c0.44-0.56,0.82-1.5,1.5-1.68c-0.05-1.6,0.61-2.85,1.06-4.31c0.21-0.62,0.41-1.24,0.62-1.86    c-0.11-0.61-0.36-0.76,0-1.31c-0.8,0,0.06-2.07,0.37-1.87c0-0.19,0-0.37,0-0.56c0-1.43,0-2.86,0-4.3    c0.53-1.87,2.63-3.57,1.99-5.59c0.02-0.13,0.04-0.26,0.06-0.39c-0.69-1.62-1.37-3.24-2.06-4.86c-0.66-0.99-1.74-1.67-2.8-2.06    c-0.17-1.03-0.34-3.97-0.44-5.6c0.02-0.94,0.05-1.87,0.07-2.81c2.87-4.01,4.71-8.21,8.02-11.97c0.75-0.94,1.49-1.87,2.24-2.81    c0.37-0.59,0.84-1.62,1.51-1.85c1.18-2.64,2.36-5.27,3.54-7.91c0.38-1.91,0.75-3.82,1.13-5.73c1.01-2.49,2.02-4.97,3.04-7.46    c0.18-0.63,0.9-2.06,0.51-2.63c0.97-1.7,1.95-3.4,2.92-5.1c0.8-1.87,1.67-3.9,1.19-5.92c0.36-1,0.44-1.23,0.37-2.24    c-1.12-1.44-2.51-3.27-2.89-5.07c0.01-0.68,0.03-1.35,0.04-2.03c2.27,0.06,4.57,2.73,6.4,4.11c1.75,1.32,3.7,2.1,5.31,3.66    c1.3,1.56,2.6,3.13,3.91,4.69c0.73,0.7,1.46,1.41,2.18,2.11c0.81,0.37,1.62,0.75,2.43,1.12c0.44,0.1,0.88,0.19,1.32,0.29    c1.61,0.31,3.37,0.14,5.03,0.46c0.63,0.12,1.56-0.25,2.06,0.19c0.88-0.2,1.75-0.4,2.63-0.61c0.89-0.09,3.22,0.36,3.73-0.33    c1.51-0.37,3.7-0.64,4.28,1c0.11,0.68,0.22,1.37,0.33,2.06c0.16,0.2,0.32,0.41,0.47,0.61c0.79,1.01,0.88,1.42,0.02,2.38    c-1.32,1.34-2.63,2.67-3.95,4.01c-0.65,0.57-1.29,1.14-1.94,1.71c-0.06,0.6-0.12,1.21-0.18,1.81c1.99,1.49,4.68-1.67,6.08-2.81    c0.78-0.6,1.57-1.2,2.35-1.8c0.75-1.5,1.94-2.81,3.12-3.98c1.22-1.27,2.44-2.54,3.67-3.81c0.41-0.33,0.83-0.67,1.24-1    c1.05-0.12,2.09-0.23,3.14-0.35c1.5-0.39,2.75-0.94,4.33-0.99c0.52-0.02,1.3-0.16,1.69,0.22c0,0.25,0.52,0.41,0.78,0.24    c0.86,1.49,1.11,3.77,1.11,5.49c0.12,0.58,0.23,1.16,0.35,1.75c-0.14,0.61-0.28,1.21-0.42,1.82c0.02,1.7,0.03,3.4,0.05,5.1    c0.19,1.18,0.37,2.37,0.56,3.55c0.75,0.81,1.49,1.62,2.24,2.43c0.25,0.87,0.5,1.74,0.75,2.62c0.34,0.85,0.85,1.45,0.58,2.37    c-0.56,1.63-0.95,3.31-1.79,4.79c-0.25,0.44-0.5,0.88-0.75,1.31c0.41,1.46,0.3,3.86-1.22,4.61c-0.39,2.61-0.79,5.22-1.18,7.84    c-0.48,0.94-0.97,1.88-1.45,2.82c-0.77,1.15-1.75,1.93-2.64,2.94c-1.13,1.24-2.25,2.48-3.38,3.73c-0.4,0.55,0.81,2.82,0.99,3.98    c-0.27,0.57-1.25,1.78-1.15,2c0.28,0.48,0.47,0.59,0.4,1.18c1.15,0,1.94,1.22,2.62,2.06c-0.06,0.93-0.13,1.87-0.19,2.8    c0.4,0,2.12,0.97,1.96,1.33c-0.3,0.71-0.85,2.03-1.6,2.08c-3.64,0-8.89,0.59-10.35,4.67c-0.19,0.52,0.03,0.95,0.09,1.48    c0.12,1,0.4,1.93,0.18,3.34c-0.25-0.44,0.88,0.91,0.3,1.63c-1.02,1.21-2.21,1.79-3.44,2.72c-0.97,0.73-1.77,1.58-2.91,2.04    c-0.84,0.17-1.68,0.34-2.52,0.51c-0.69,0.19-1.39,0.39-2.08,0.58c-1.56,0.87-3.11,1.74-4.67,2.62c-1.47,0.72-3.56,1.2-5.19,1.32    c-1.62,1.25-4.29,1.07-6.17,1.59c-2.95,1.05-5.89,2.1-8.84,3.15c-1,0.41-2.14,0.74-3.25,0.69c-0.41,0.23-3.28,0.25-3.64-0.03    c-1.36,0.52-2.63,0.78-4.1,0.64c-1.36-0.13-5.62-1.5-6.74-2.32c-0.58-0.32-1.15-0.64-1.73-0.96c-1.6-0.24-3.21-0.48-4.81-0.72    c-0.46,0.02-0.95-0.11-1.31,0.19c-0.87-0.22-2.21,0-3.55-0.19c-0.36-0.25-0.36-0.25-0.93-0.37c-0.22-1.41-0.47-2.48-1.52-3.51    c-0.43-0.43-2.32-2.73-2.77-2.28C172.7,262.96,174.39,261.38,174.39,260.65z"/>
            <circle cx="197.93" cy="233.4" r="1.586"/>
        </g>
        <g id="__Antakya">
            <path d="    M154.21,344.36c-0.87-0.68-1.74-1.37-2.62-2.06c-0.38-0.87-0.75-1.75-1.13-2.62c-0.62-0.93-1.24-1.86-1.86-2.8    c-1.47-1.23-3.28-2.26-4.47-3.89c-0.35-0.74-0.69-1.48-1.04-2.21c-0.65-0.71-1.31-1.41-1.96-2.12c-2.93-1.52-4.79-4.42-7.23-6.6    c-1.08-1.1-2.15-2.2-3.23-3.3c-0.44-0.25-0.87-0.5-1.31-0.75c-1.49-0.3-4.33-1.02-5.42-2.06c-2.59-0.16-5.1-1.41-6.78-3.43    c-1.16-1.47-2.33-2.95-3.49-4.42c-0.06-0.5-0.12-1-0.19-1.49c-0.26-1.44-2.06-3.45-2.96-4.52c-0.67-0.88-1.34-1.76-2.01-2.64    c-0.23-0.3-0.68-0.73-0.57-1.09c0.35-0.74,0.7-1.48,1.06-2.22c0.97-0.59,1.78-1.26,2.51-2.14c0.34-0.49,0.69-0.98,1.03-1.48    c2.05-2.28,4.51-4.06,6.92-5.93c1.5-1.24,2.99-2.48,4.49-3.73c2.08-1.91,4.16-3.81,6.24-5.72c1.44-0.9,2.88-1.8,4.33-2.7    c3.61-1.47,7.22-2.94,10.83-4.4c0.81-0.61,1.62-1.22,2.43-1.83c0.32-0.37,0.63-0.74,0.95-1.12c0.41-0.28,1.47-0.9,1.38-1.42    c0.68-0.44,1.37-0.87,2.06-1.31c2.75-1.24,5.67-2.47,8.62-3.02c1.36-0.05,2.72-0.11,4.08-0.16c1.96,0.55,3.92,1.09,5.87,1.64    c0.66,0.08,1.32,0.15,1.97,0.23c0.98,0.82,1.95,1.64,2.93,2.46c0.27,0.36,0.54,0.73,0.81,1.09c0.12,0.44,0.25,0.87,0.37,1.31    c0,0.62,0,1.25,0,1.87c0.09,0.34,0.24,0.64,0.56,0.75c0.08,1.27,0.52,2.33,0.99,3.5c1.04,2.32,2.08,4.64,3.12,6.97    c2.07,1.91,4.34,1.96,6.94,2.62c0.71,0.18,1.86,0.81,2.41,0.37c0.14,0.32,0.29,0.65,0.43,0.97c0.56,2.04,1.12,4.08,1.68,6.13    c0.48,1,0.96,2,1.44,3c1.17,1.45,2.33,2.89,3.5,4.34c1.39,1.42,2.78,2.84,4.16,4.26c1.52,1.38,3.5,2.68,3.92,4.86    c0.58,2.95,0.32,5.92-0.56,8.78c-0.3,0.75-0.6,1.49-0.9,2.24c-1.12,0.97-2.33,2.29-1.69,3.87c0.6,1.24,1.44,2.38,2.67,3    c0.24,0.12,1.71,0.69,1.52,0.89c-0.43,0.49-1.18,1.27-1.78,1.21c0.34-0.16,0.69-0.32,1.03-0.47c0.4,0.53,0.81,1.06,1.21,1.59    c-0.34,0.55-1.1,1.51-0.75,2.06c0.08-0.05,0.15-0.09,0.23-0.14c0.32-0.23,0.8-1.08,1.05-0.82c0.74,0.8,0.07,1.96,0.74,2.93    c-0.17,0.28-0.33,0.56-0.5,0.85l1.96,1.45c-1.54-0.54-5.04-0.3-6.66,0.29c-0.53,0.19-1.3,0.12-1.68,0.49    c-1.99,0.06-3.99,0.12-5.98,0.19c-1.27,0.15-2.55,0.31-3.82,0.46c-0.35-0.47-4.63,0.13-4.96,0.06c-1.99-0.45-4.13-0.33-5.98-1.27    c-0.9-0.45-1.83-1.38-2.71-1.31c-1.17,0-3.36,0-4.02-0.19c-0.65,0.06-1.01-0.02-1.59,0.36c-0.56,0.36-1.15,1.19-1.77,1.33    c-0.48,0.72-0.96,1.45-1.44,2.17c-0.83,0.77-1.66,1.54-2.49,2.31c-1.39,0.63-2.77,1.27-4.16,1.9c-1.54,0.34-3.09,0.68-4.64,1.02    c-1.76,0.43-2.41,0.17-3.68,1.77L154.21,344.36z"/>
            <circle cx="144.52" cy="326.23" r="1.586"/>
        </g>
        <g id="__Altınözü">
            <path d="    M210.19,334.99c-1.54-0.54-5.04-0.3-6.66,0.29c-0.53,0.19-1.3,0.12-1.68,0.49c-1.99,0.06-3.99,0.12-5.98,0.19    c-1.27,0.15-2.55,0.31-3.82,0.46c-0.35-0.47-4.63,0.13-4.96,0.06c-1.99-0.45-4.13-0.33-5.98-1.27c-0.9-0.45-1.83-1.38-2.71-1.31    c-0.47,0-2.48-0.03-4.02-0.19c-0.65,0.06-1.01-0.02-1.59,0.36c-0.56,0.36-1.15,1.19-1.77,1.33c-0.48,0.72-0.96,1.45-1.44,2.17    c-0.83,0.77-1.66,1.54-2.49,2.31c-1.39,0.63-2.77,1.27-4.16,1.9c-1.54,0.34-3.09,0.68-4.64,1.02c-1.76,0.43-2.41,0.17-3.68,1.77    c-0.28,0.35-0.4,0.05-0.55,0.55c-0.14,0.3-0.28,0.61-0.43,0.91c-0.06,1.18-0.12,2.37-0.19,3.55c0.04,0.66,0.07,1.31,0.11,1.97    c-1.09,1.03-2.19,2.05-3.28,3.08c-0.5,0.31-1,0.62-1.49,0.93c-0.68,0.66-1.31,2-2.24,2.25c-0.25,0.44-0.5,0.87-0.75,1.31    c-0.16,0.82-0.66,2.98-1.31,3.36c0.1,0.98,0.26,4.06-0.19,4.86c0.26,1.95,1.4,3.93,2.42,5.6c0.38,0.75,0.75,1.5,1.13,2.25    c0.37,1.44,0.22,2.64,0.22,4.1c-0.01,0.31-0.02,0.63-0.03,0.94c-0.11,0.14-0.21,0.28-0.32,0.41c0.54,0.86,1.07,1.72,1.61,2.57    c0.81,0.93,1.62,1.73,2.26,2.8c-0.06,0.69-0.12,1.37-0.19,2.06c0.58,2.17,2.2,4.31,4.48,4.45c0.91,0.06,4.42,0.16,4.77,0.53    c0.3,0.32,0.37,0.67,0.83,0.63c-0.02,0.18-0.03,0.37-0.05,0.55c-0.03,0.49-0.44,2.42-0.33,2.62c-0.03,0.32-0.06,0.65-0.09,0.97    c0.54,0.18,1.61,0.26,1.91,0.74c1.79,3.02,0.62,5.93-2,7.81c-0.69,0.44-1.37,0.88-2.06,1.31c-1.3,1.48-2.78,3.31-3.54,5.15    c-0.66,1.59-1.84,2.97-1.61,4.74c0,0.17,0.01,0.34,0.01,0.51c0.17,0.2,0.61,0.86,0.79,0.72c0.88-0.73,1.76-1.45,2.63-2.18    c0.83-0.27,1.65-0.54,2.48-0.81c1.3-0.34,2.61-0.69,3.91-1.03c1.2-0.58,2.09-0.91,3.36-1.12c1.01-0.17,3.79-1.01,4.62-0.25    c1.57,1.39,3.19,3.98,5.43,3.76c1.28-0.18,2.5-1.05,3.41-1.96c0.87-0.15,2.2-0.97,2.27-1.92c-0.07-0.63-0.15-1.26-0.22-1.89    c-1.08-0.57-1.62-3.06-2.2-4.14c-0.33-0.68-0.65-1.35-0.98-2.03c0.01-1.24,0.02-2.49,0.03-3.73c-0.06-1.01-0.28-3.96,0.75-4.25    c3.81-1.01,7.62,2.25,9.87,4.84c0.82,0.95,3.4,3,4.71,2.04c1.76-1.09,3.52-2.19,5.28-3.28c1.03-1.22,2.06-2.44,3.09-3.66    c0-0.68,0-1.37,0-2.06c0.23-0.39,0.47-0.78,0.7-1.17c-0.1-0.21-0.19-0.43-0.29-0.64c-0.14,0.04-0.27,0.09-0.41,0.13    c0.02-0.18,0.05-0.37,0.08-0.55c0.08-0.51,0.24-0.69-0.08-1.13c1.12-1.15,1.97-1.93,1.87-3.74c0.72-0.48,2.07-0.64,1.94-1.76    c-0.13-0.47,0.85-0.36,0.27-0.55c-0.41-0.12-1.69-0.17-1.82-0.32c-0.21-0.25-0.9-1.15-0.83-1.19c0.38-0.28,2.88-1.38,2.1-1.94    c-0.44-0.31-1.42-0.86-1.48-1.45c-0.16-1.51-0.53-3.16,0.15-4.67c-0.07-0.17-0.15-0.34-0.22-0.51c0.55-0.33,1.45-1.03,1.95-0.86    c0.01-0.06,0.02-0.12,0.04-0.19c0.11-0.31,0.23-0.62,0.34-0.93c0-0.52-0.25-1.26,0-1.68c-0.87-1.06-1.74-2.12-2.62-3.18    c-0.18-0.27-0.58-1.12-0.37-1.19c0.47-0.17,0.32,0.09,0.37-0.68c0.19,0.23,0.38,0.46,0.57,0.69c0.26,0.31,0.52,0.63,0.78,0.94    c0.34-0.58,0.57-1.77,0.3-2.22c-0.41-0.64-1.02-0.63-1.45-1.09c0.17-0.87,0.11-1.6-0.19-2.43c-0.18-0.02-0.37-0.04-0.55-0.06    c-0.28,0.35-0.25,0.19-0.43-0.14c-0.33-0.74-0.77-1.21-0.89-2.04c0.71-0.43,1.08-0.88,1.31-1.68c-0.27-0.08-0.54-0.15-0.81-0.23    c-0.1,0.14-0.21,0.28-0.31,0.41c0.09-0.16,0.18-0.32,0.27-0.48c0.47-0.68,0.77-1.84,1.59-2.14c0.34-0.86,0.53-1.51,1.02-2.3    c0.4-0.56,0.8-1.12,1.2-1.68c-0.4-0.31-0.04-1.57-0.33-1.7c-0.55-0.25-0.83-0.23-0.96-0.86c-0.99,0.12-1.61,0.55-1.84-0.57    c-0.12-0.7,1.92-0.92,0.55-1.65c-0.72-0.33-3.11-1.31-2.95-2.23c0.21-0.38,0.36-0.97,0.12-1.34c0.3-0.39,0.59-0.45,0.37-0.93    c0.29-0.1,1.4-0.38,1.23-0.71c-0.4-0.67-0.81-1.34-1.21-2.01c-0.1-0.04-0.19-0.08-0.29-0.12c0.93-0.33,1.54-0.81,2.33-1.45    c0.93-0.12,1.87-0.25,2.8-0.37c0.12-0.44,0.25-0.87,0.37-1.31c0.5-0.06,1-0.12,1.49-0.19c0.62-0.44,1.25-0.87,1.87-1.31    C210.49,335.5,210.34,335.24,210.19,334.99z"/>
            <circle cx="169.81" cy="361.17" r="1.586"/>
        </g>
        <g id="__Yayladağı">
            <path d="    M95.73,397.61c-0.7,1.34-3.11,3.84-4.48,4.48c-0.72,1.33-1.31,2-1.31,3.55c-1.78,1.8-3.55,3.61-5.33,5.41    c-0.63,0.55-1.54,1.94-2.33,2.06c-0.4,0.73-0.95,2.14-1.87,2.24c-0.5,1.37-1,2.74-1.49,4.11c0.12,0.75,0.25,1.49,0.37,2.24    c-0.15,1.12-0.45,2.63,0.22,3.52c0.46,0.61,1.03,1.33,1.84,1.35c1.06-0.03,2.24-0.1,3.21-0.6c0.97-0.5,1.92-1.53,3-1.73    c0.76-0.15,1.26-0.13,2,0.12c0.36,0.08,0.71,0.16,1.07,0.25c0.44-0.4,0.88-0.8,1.32-1.2c0.78-0.03,1.9-0.95,2.48-1.5    c0.13-0.19,0.26-0.38,0.39-0.57c0.04-0.02,1.68-1.13,1.68-1.13c1.44-0.05,2.69,0.5,4.12,0.68c0.67,0.09,1.33,0.17,2,0.26    c1.44,1.03,3.22,4.68,2.84,6.53c-0.55,1.38-1.11,2.76-1.66,4.13c-0.16-0.09-0.5,0.37-0.37,0.93c-0.71,1.73-1.42,3.46-2.14,5.19    c-0.17,0.38-0.65,1.73-1.04,1.35c1.78,2.02,2.91,1.07,5.23,0.81c0.75-0.08,1.5-0.16,2.25-0.25c1.06,0.5,2.12,1,3.18,1.49    c0.5,0.06,1,0.12,1.49,0.19c0.81-0.12,1.62-0.25,2.43-0.37c1.24,0.22,3.82,2.14,4.67,2.99c1.12,0.1,1.95-0.19,2.99-0.56    c1.2,0.33,3.23,1.55,4.11,2.43c1.9,0.18,3.65,0.4,5.42,0.93c0.37,0.56,0.75,1.12,1.12,1.68c1.81,1.7,5.37,4.93,5.79,7.43    c0.05,1.7,0.11,3.39,0.16,5.09c0.08,0.45,0.08,1.4,0.4,1.65c1.1,0.85,3.32,2.41,4.61,1.61c1.14-0.84,2.5-1.56,2.3-2.9    c-0.06-0.49-0.13-0.98-0.19-1.47c1.23-1.54,2.16-2.52,2.27-4.68c0.05-1.05,0.11-2.11,0.16-3.16c-0.08-0.65-0.42-0.99-0.36-1.66    c0.26-2.91,1.07-4.79,0.36-7.87c-0.25-0.62-0.5-1.25-0.75-1.87c0.03-0.5,0.2-0.98-0.19-1.31c1.21-2.84,1.13-5.96,0.93-8.97    c0.25-1.25,0.5-2.49,0.75-3.74c0.31-0.5,0.62-1,0.93-1.49c0.12-0.31,0.25-0.62,0.37-0.93c0.25-0.5,0.5-1,0.75-1.49    c0.37-0.5,0.75-1,1.12-1.49c0.42-0.61,0.84-1.22,1.26-1.83l0.74-0.69c-0.18,0.13-0.62-0.52-0.79-0.72c0-0.17-0.01-0.34-0.01-0.51    c-0.23-1.77,0.95-3.15,1.61-4.74c0.77-1.84,2.24-3.67,3.54-5.15c0.68-0.44,1.37-0.88,2.06-1.31c2.62-1.88,3.8-4.8,2-7.81    c-0.3-0.48-1.37-0.56-1.91-0.74c0.03-0.32,0.06-0.65,0.09-0.97c-0.11-0.2,0.3-2.14,0.33-2.62c0.02-0.18,0.03-0.37,0.05-0.55    c-0.46,0.04-0.54-0.31-0.83-0.63c-0.35-0.37-3.86-0.47-4.77-0.53c-2.29-0.14-3.91-2.28-4.48-4.45c0.06-0.68,0.12-1.37,0.19-2.06    c-0.64-1.07-1.45-1.87-2.26-2.8c-0.54-0.86-1.07-1.72-1.61-2.57c0.11-0.14,0.21-0.28,0.32-0.41c0.01-0.31,0.02-0.63,0.03-0.94    c0-1.47,0.16-2.66-0.22-4.1c-0.38-0.75-0.76-1.5-1.13-2.25c-1.02-1.67-2.16-3.65-2.42-5.6c0.45-0.8,0.28-3.87,0.19-4.86    c0.64-0.38,1.14-2.55,1.31-3.36v-0.88c-0.55-0.36-2.58-1.13-3.13-0.69c-3.81,3.17-5.61,7.93-9.01,11.49    c-2.37,1.92-4.74,3.85-7.11,5.77c-0.31,0.06-0.62,0.12-0.93,0.19c-1.35,0.93-2.71,1.85-4.06,2.78c-1.82,1.52-4.76,4.32-7.15,3.98    c-0.57-0.08-1.26-0.41-1.68-0.03c-0.03-0.06-0.07-0.11-0.1-0.17c-0.4-1-0.8-2-1.2-3.01c0.06-0.43,0.12-0.86,0.18-1.3    c-0.1-0.5-0.2-0.99-0.3-1.49l-0.63-0.2c-0.45,0.31-0.9,0.62-1.35,0.93c-1.37,1.23-2.74,2.45-4.11,3.68    c-0.57,0.48-1.81,1.57-1.73,1.94c0.43,2.17,0.54,4.54-0.68,6.51c-0.54,0.87-3.05,3.44-2.77,4.5c-0.88,1.02-1.76,2.05-2.65,3.07    c-0.36,0.22-0.73,0.44-1.09,0.67L95.73,397.61z"/>
            <circle cx="117.12" cy="432.74" r="1.586"/>
        </g>
        <g id="__Samandağ">
            <path d="    M61.35,329.6c0.56,0.23,1.36-1.26,1.81-1.58c1.54-1.1,3.04-2.55,3.98-4.21c0.69-0.27,1.17-1.17,1.68-1.71    c0.97-1.02,2-2.02,3.17-2.79c2.54-1.68,5.4-2.38,7.67-4.66c0.55-0.26,1.11-0.52,1.66-0.78c2.29-1.07,3.75-2.42,5.25-4.46    c0.3-0.3,1.35-0.08,1.87-0.19c0.71-0.09,1.42-0.17,2.13-0.26c0.75-0.29,1.49-0.58,2.24-0.86c0.79-0.37,1.57-0.75,2.36-1.12    c3.15-0.76,7.82-3.35,9.72-5.98c0.92-0.82,1.84-1.64,2.76-2.45l0.23,0.02c0.13,0.18,0.27,0.35,0.4,0.53    c0.51,0.79,1.85,1.89,1.84,2.83c1.69,1.49,3.3,3.54,3.55,5.79c0.24,2.14-0.82,4.31-0.93,6.35c-0.36,0-0.56,0.64-0.73,0.94    c-0.52,0.95-0.51,2.28-0.58,3.36c-0.5,0.5-0.25,1.2-0.93,1.49c0.08,0.28,0.16,0.56,0.23,0.85c0.73,2.12,2.58,3.38,4.09,4.92    c0.57,0.58,1.72,1.91,1.63,2.82c-0.21,1.64-0.84,2.45-1.66,3.93c-0.81,1.44-0.35,4.25,0.19,5.74c2.01,3.43,4.02,6.85,6.03,10.28    c0.56,0.86,2.37,3.37,2,4.35c0.66,1.11,1.92,2.93,1.27,4.23c-0.9,1.81-2.62,3.17-4.02,4.61c-0.34,0.35-1.09,1.28-1.55,1.25    c-0.31,0.44-0.62,0.87-0.93,1.31c-0.87,0.95-2.17,1.35-2.92,2.42c-0.68,1.26-1.36,2.53-2.04,3.8c-0.28,0.63-0.71,1.6-1.39,1.82    c-0.15,0.93,0,2.65-0.75,3.36c-0.45,0.31-0.9,0.62-1.35,0.93c-1.37,1.23-2.74,2.45-4.11,3.68c-0.57,0.48-1.81,1.57-1.73,1.94    c0.43,2.17,0.54,4.54-0.68,6.51c-0.54,0.87-3.05,3.44-2.77,4.5c-0.88,1.02-1.76,2.05-2.65,3.07c-0.36,0.22-0.73,0.44-1.09,0.67    c-0.05-0.12-1.69-4.88-1.49-5.61c-1.25-1.25-1.75-2.73-2.8-4.11c-0.34-0.92-0.69-1.84-1.03-2.76c-0.78-1.7-1.55-3.39-2.33-5.09    c0-1.59-1.08-3.6-1.79-4.99c-0.98-1.94-1.92-3.73-2.5-5.84c-0.81-0.81-2.8-4.92-2.8-5.98c-0.97-1.08-1.96-2.22-2.53-3.59    c-0.86-1.79-1.71-3.59-2.57-5.38c-0.28-0.41-0.9-1.3-1.44-1.3c0.12-0.12,0.25-0.25,0.37-0.37c-0.44-1-0.87-1.99-1.31-2.99    c-0.48-0.77-0.96-1.54-1.44-2.31c-1.95-2.28-3.9-4.57-5.84-6.85c0-0.86-0.81-1.79-1.31-2.43c-1.13-1.96-2.27-3.92-3.4-5.87    L61.35,329.6z"/>
            <circle cx="95.82" cy="372.94" r="1.586"/>
        </g>
        <g id="__Defne">
            <path d="    M110.67,375.56c0.75-0.71,0.6-2.43,0.75-3.36c0.68-0.22,1.11-1.19,1.39-1.82c0.68-1.26,1.36-2.53,2.04-3.8    c0.75-1.06,2.05-1.46,2.92-2.42c0.31-0.44,0.62-0.87,0.93-1.31c0.46,0.03,1.22-0.9,1.55-1.25c1.4-1.44,3.11-2.81,4.02-4.61    c0.65-1.3-0.61-3.12-1.27-4.23c0.37-0.98-1.45-3.49-2-4.35c-2.01-3.43-4.02-6.85-6.03-10.28c-0.54-1.49-0.99-4.3-0.19-5.74    c0.83-1.48,1.46-2.29,1.66-3.93c0.09-0.91-1.06-2.24-1.63-2.82c-1.51-1.54-3.36-2.81-4.09-4.92c-0.08-0.28-0.16-0.56-0.23-0.85    c0.69-0.29,0.44-1,0.93-1.49c0.07-1.07,0.06-2.4,0.58-3.36c0.17-0.3,0.37-0.94,0.73-0.94c0.11-2.05,1.18-4.22,0.93-6.35v0.37    c1.16,1.47,2.33,2.95,3.49,4.42c1.69,2.02,4.19,3.27,6.78,3.43c1.09,1.04,3.93,1.76,5.42,2.06c0.44,0.25,0.87,0.5,1.31,0.75    c1.08,1.1,2.15,2.2,3.23,3.3c2.44,2.19,4.3,5.08,7.23,6.6c0.65,0.71,1.31,1.41,1.96,2.12c0.35,0.74,0.69,1.48,1.04,2.21    c1.2,1.63,3,2.66,4.47,3.89c0.62,0.93,1.24,1.86,1.86,2.8c0.38,0.87,0.75,1.75,1.13,2.62c0.87,0.69,1.74,1.37,2.62,2.06l0.41,0.22    c-0.28,0.35-0.4,0.05-0.55,0.55c-0.14,0.3-0.28,0.61-0.43,0.91c-0.06,1.18-0.12,2.37-0.19,3.55c0.04,0.66,0.07,1.31,0.11,1.97    c-1.09,1.03-2.19,2.05-3.28,3.08c-0.5,0.31-1,0.62-1.49,0.93c-0.68,0.66-1.31,2-2.24,2.25c-0.25,0.44-0.75,0.43-0.75,0.43    c-0.55-0.36-2.58-1.13-3.13-0.69c-3.81,3.17-5.61,7.93-9.01,11.49c-2.37,1.92-4.74,3.85-7.11,5.77c-0.31,0.06-0.62,0.12-0.93,0.19    c-1.35,0.93-2.71,1.85-4.06,2.78c-1.82,1.52-4.76,4.32-7.15,3.98c-0.57-0.08-1.26-0.41-1.68-0.03c-0.03-0.06-0.07-0.11-0.1-0.17    c-0.4-1-0.8-2-1.2-3.01c0.06-0.43,0.12-0.86,0.18-1.3c-0.1-0.5-0.2-0.99-0.3-1.49L110.67,375.56z"/>
            <circle cx="138.79" cy="332.37" r="1.586"/>
        </g>
        <g id="__Belen">
            <path d="    M172.71,263.08c-0.01-0.12,1.68-1.7,1.68-2.43c0.44-0.56,0.82-1.5,1.5-1.68c-0.05-1.6,0.61-2.85,1.06-4.31    c0.21-0.62,0.41-1.24,0.62-1.86c-0.11-0.61-0.36-0.76,0-1.31c-0.8,0,0.06-2.07,0.37-1.87c0-0.19,0-0.37,0-0.56    c0-1.43,0-2.86,0-4.3c0.53-1.87,2.63-3.57,1.99-5.59c0.02-0.13,0.04-0.26,0.06-0.39c-0.69-1.62-1.37-3.24-2.06-4.86    c-0.66-0.99-1.74-1.67-2.8-2.06c0,0-4.21-1.07-5.47-1.69c-0.95-0.47-2.86-1.07-4.7-1.3c-1.54-0.19-3.4-1.31-5.15-1.12    c-1.47,0.16-2.85,1.84-4.19,1.5c-0.87-0.22-1.69-0.87-2.44-1.45c-0.78-0.6-1.58-0.85-2.25-1.35c-1.21-0.89-2.87-3.11-3.32-4.54    c-0.52-1.65,0.14-3.3-0.57-4.81c-0.84-1.8-1.57-2.04-3.58-2.06l-0.68-0.22c-0.18,0.51-0.35,1.02-0.53,1.53    c0.04,0.63,0.18,1.32-0.19,1.87c0.1,0,0.21,0,0.32,0.01c0.31,0.03,0.25,1.83,0.25,2.05c-0.23,1-0.06,1.35,0.37,2.24    c-0.06,0.5-0.12,1-0.19,1.49c-1.03,1.36-2.34,2.72-2.99,4.3c-0.21,0.73-0.42,1.45-0.63,2.18c-0.35,0.89-0.7,1.79-1.05,2.68    c-0.73,1.4-1.72,2.34-2.62,3.55c-0.37,0.82-0.74,1.64-1.11,2.46c-1.42,1.95-2.84,3.9-4.26,5.84c-0.57,0.51-1.14,1.01-1.72,1.52    c-1.76,1.95-3.52,3.9-5.27,5.86c-1.34,1.41-2.91,2.68-3.71,4.5c-0.27,1.17-0.55,2.35-0.82,3.52c-0.6,1.44-1.19,2.88-1.79,4.33    c-0.06,0.93-0.12,1.87-0.19,2.8c-0.74,0.37-0.79,1.28-0.93,2.06c-0.31,1.65-0.89,3.22-1.31,4.86c-0.16,0.63-0.1,1.61-0.56,2.06    c0.05,0.45,0.1,0.9,0.15,1.35c-0.6,0.6-0.41,1.44-0.71,2.2c-0.62,0.87-1.25,1.74-1.87,2.62c-0.65,1.15-0.98,4.81-1.68,5.42    c-0.19,1.86-0.39,3.72-0.58,5.58c-0.05,0.94-0.11,1.89-0.16,2.83v-0.37c0.97-0.59,1.78-1.26,2.51-2.14    c0.34-0.49,0.69-0.98,1.03-1.48c2.05-2.28,4.51-4.06,6.92-5.93c1.5-1.24,2.99-2.48,4.49-3.73c2.08-1.91,4.16-3.81,6.24-5.72    c1.44-0.9,2.88-1.8,4.33-2.7c3.61-1.47,7.22-2.94,10.83-4.4c0.81-0.61,1.62-1.22,2.43-1.83c0.32-0.37,0.63-0.74,0.95-1.12    c0.41-0.28,1.47-0.9,1.38-1.42c0.68-0.44,1.37-0.87,2.06-1.31c2.75-1.24,5.67-2.47,8.62-3.02c1.36-0.05,2.72-0.11,4.08-0.16    c1.96,0.55,3.92,1.09,5.87,1.64C171.39,262.93,172.05,263,172.71,263.08z"/>
            <circle cx="149.1" cy="228.51" r="1.586"/>
        </g>
        <g id="__Reyhanlı">
            <path d="    M207.12,326.58c0.66-0.59,1.08-1.58,1.96-1.44c2.26,0.5,4.3,2.55,6.38,3.8c0.82,0.53,1.64,1.06,2.46,1.59    c1.61,0.3,3.24,0.13,4.83-0.02c0.82-0.08,1.63-0.53,2.1,0.1c0.18,0.29,0.04,0.17,0.54,0.11c-0.02,0.69,0.02,1.69,0.41,2.01    c0.32,0.24,1.82,1.23,2.14,1.13c0.4-0.12,0.44-0.27,0.81,0.04c0.19-0.25,0.39-0.5,0.58-0.75c0.31-0.5,0.61-1,0.92-1.49    c0.2-1.02-0.05-1.74,0.43-2.67c0.44-0.19,0.79-0.59,0.88-1.07c0.75-0.5,1.49-1,2.24-1.49c-0.13-0.19-0.25-0.37-0.37-0.56    c0.06-0.68,0.12-1.37,0.19-2.06c-0.11-0.2-0.22-0.41-0.33-0.61c-0.08-0.31-0.29-1.27-0.06-1.22c2.14,0.43,1.42,0.81,2.74,2.1    c0.35,0.27,0.71,0.55,1.06,0.82c0.47-0.3,0.46-0.51,1.07-0.34c0-0.13,0-0.25,0.01-0.38c-0.06-1.87-0.62-4.86,1.7-5.51    c1.16-0.31,4.05-0.7,4.83,0.28c0.38-0.04,1.71-0.26,1.73-0.25c1.7,1.1,2.52,3.14,3.85,4.57c0.64,0.68,1.19,0.51,1.33,1.48    c0.06-0.06,0.13-0.12,0.19-0.18c0.76-0.7,1.07-1.17,2.05-1.5c0.17-0.68,0.07-1.49,0.64-1.81c0.57-0.22,0.38-0.48,1.02-0.2    c1,0.45,3.92,1.73,4.13,2.76c1.52,0.36,3.14,0.35,4.52,1.16c0.45,0.27,0.89,0.59,0.52,1.09c0.68,0.26,1.36,0.53,2.04,0.79    c1.04,0.33,4.62,1.65,5,0.29c0.29-1.05,0.66-2.18-0.12-3.14c0.25-0.63,0.35-1.15,0.93-1.49c-0.02-0.04-0.05-0.09-0.07-0.13    c-0.34-0.64-1.28-1.36-1.05-1.73c0.17-0.24,0.23-0.57,0.37-0.58c0.41-0.01,0.81,0.09,1.12-0.18c1.31,0.68,2.61,1.35,3.92,2.03    c0.81,0.38,1.62,0.77,2.43,1.15c1.25-0.06,2.49-0.12,3.74-0.19c-0.24-0.62-0.8-1.68-0.37-1.68c0.31-0.45,0.82-1,0.56-1.49    c0.17,0.07,0.34,0.15,0.51,0.22c0.7,0.08,2.33,1.14,3.01,0.66c0.28-0.22,0.57-0.32,0.59-0.69c0.85-0.08,2.22-0.04,2.47-1.11    c0.11-1.62,0.22-3.25,0.33-4.87c-0.47-0.78-0.94-1.56-1.41-2.35c-0.59-0.71-1.18-1.42-1.76-2.14c-0.17-0.61,0.02-1.47-0.37-1.87    c0.33-1.96,1.98-2.29,3.12-3.64c0.28-0.33,1.3-1.13,1.11-1.58c-0.24-0.62-0.9-1.35-0.68-1.89c-0.64-0.02-1.27-0.04-1.91-0.06    c-0.49-0.14-1.24-0.2-1.45-0.68c-1.62-0.01-3.24-0.03-4.86-0.04c-0.44-0.05-1.85-0.23-1.88-0.71c0.13-1.81,0.26-3.61,0.39-5.42    c0.83-0.92,2.53-3.01,1.78-4.26c-0.5-0.81-1.94-3.06-2.9-3.03c-1.03,0.15-2.05,0.31-3.08,0.46c-0.59-0.72-1.37-2.19-2.35-2.36    c-0.57-0.11-1.14,0.12-1.49-0.34c-0.05,0.08-0.09,0.16-0.14,0.23c-0.51,0.88-1.04,2.31-2.16,2.54c-0.42,0.08-0.44-0.02-0.69,0.4    c-0.57-0.27-1.28-0.77-1.79-0.29c-0.68,0.68-1.62,1.63-1.95,2.53c0.31,0.44,0.62,0.87,0.93,1.31c0.37,1.49-0.74,0.11-1.11,0.16    c-1.38-0.27-2.76-0.55-4.14-0.82c-2.49-0.27-5-0.14-7.46-0.65c-0.82-0.17-3.34,1.12-3.55,1.12c0.12,0.28,0.25,0.56,0.37,0.83    c0.91,1.48,1.73,2.96,2.5,4.54c0.18,0.36,0.79,1.2,0.58,1.48c-0.33,0.43,0.09,0.64-0.47,0.62c-0.36-0.04-0.73-0.08-1.09-0.12    c-0.41-0.49-2.17-1.37-2.83-2.12c-0.12-0.62-0.88-1.54-1.49-1.87c-0.94-0.97-1.88-1.93-2.83-2.9c-1.13-1.69-2.31-3.11-3.71-4.57    c-0.31-0.51-0.63-1.02-0.94-1.52c-0.81-0.68-1.62-1.35-2.42-2.03c-0.36-0.44-0.72-0.89-1.08-1.33c-0.33-0.3-0.65-0.61-0.98-0.91    c-1.47-0.47-2.54-0.88-4.11-0.93c-0.65-0.58-1.13-1.17-2.04-1.3c-0.87-0.13-1.59-0.31-2.44-0.01c-0.58-0.32-0.82,0.09-1.49,0    c-0.42,0.05-1.43,0.84-1.85,0.89c-0.49,2.38-4.08,1.71-7.11,2.23c-0.45,0.1-0.9,0.2-1.35,0.3c-0.49-0.02-0.98-0.04-1.47-0.06    c-2.81,0.72-5.44,1.63-8.4,1.4c-1.33-0.11-2.25-0.77-3.44-1.26c-0.92-0.38-1.93-0.47-2.92-0.47c-1.42,0-2.73,0.37-4.11,0.52    c-0.64,0.07-1.22,0.91-1.87,0.75c-0.5,0.3-1.15,1.13-1.68,1.12l-0.75,0.19c0.14,0.32,0.29,0.65,0.43,0.97    c0.56,2.04,1.12,4.08,1.68,6.13c0.48,1,0.96,2,1.44,3c1.17,1.45,2.33,2.89,3.5,4.34c1.39,1.42,2.78,2.84,4.16,4.26    c1.52,1.38,3.5,2.68,3.92,4.86c0.58,2.95,0.32,5.92-0.56,8.78c-0.3,0.75-0.6,1.49-0.9,2.24c-1.12,0.97-2.33,2.29-1.69,3.87    c0.6,1.24,1.44,2.38,2.67,3c0.24,0.12,1.71,0.69,1.52,0.89L207.12,326.58z"/>
            <circle cx="255.95" cy="310.35" r="1.586"/>
        </g>
        <g id="__Kumlu">
            <path d="    M265.57,289.42c0.31,0.44,0.62,0.87,0.93,1.31c0.37,1.49-0.74,0.11-1.11,0.16c-1.38-0.27-2.76-0.55-4.14-0.82    c-2.49-0.27-5-0.14-7.46-0.65c-0.82-0.17-3.34,1.12-3.55,1.12c0.12,0.28,0.25,0.56,0.37,0.83c0.91,1.48,1.73,2.96,2.5,4.54    c0.18,0.36,0.79,1.2,0.58,1.48c-0.33,0.43,0.09,0.64-0.47,0.62c-0.36-0.04-0.73-0.08-1.09-0.12c-0.41-0.49-2.17-1.37-2.83-2.12    c-0.12-0.62-0.88-1.54-1.49-1.87c-0.94-0.97-1.88-1.93-2.83-2.9c-1.13-1.69-2.31-3.11-3.71-4.57c-0.31-0.51-0.63-1.02-0.94-1.52    c-0.81-0.68-1.62-1.35-2.42-2.03c-0.36-0.44-0.72-0.89-1.08-1.33c-0.33-0.3-0.65-0.61-0.98-0.91c-1.47-0.47-2.54-0.88-4.11-0.93    c-0.65-0.58-1.13-1.17-2.04-1.3c-0.87-0.13-1.59-0.31-2.44-0.01c-0.58-0.32-0.82,0.09-1.49,0c-0.42,0.05-1.43,0.84-1.85,0.89    c-0.49,2.38-4.08,1.71-7.11,2.23c-0.45,0.1-0.9,0.2-1.35,0.3c-0.49-0.02-0.98-0.04-1.47-0.06c-2.81,0.72-5.44,1.63-8.4,1.4    c-1.33-0.11-2.25-0.77-3.44-1.26c-0.92-0.38-1.93-0.47-2.92-0.47c-1.42,0-2.73,0.37-4.11,0.52c-0.64,0.07-1.22,0.91-1.87,0.75    c-0.5,0.3-1.15,1.13-1.68,1.12l-0.75,0.19c-0.55,0.45-1.69-0.19-2.41-0.37c-2.6-0.66-4.86-0.71-6.94-2.62    c-1.04-2.32-2.08-4.64-3.12-6.97c-0.47-1.17-0.91-2.23-0.99-3.5c-0.32-0.11-0.47-0.41-0.56-0.75c0-0.62,0.19-0.93,0.19-0.93    c0.57,0.13,0.57,0.13,0.93,0.37c1.34,0.19,2.68-0.04,3.55,0.19c0.36-0.3,0.85-0.17,1.31-0.19c1.6,0.24,3.21,0.48,4.81,0.72    c0.58,0.32,1.15,0.64,1.73,0.96c1.12,0.81,5.38,2.19,6.74,2.32c1.47,0.14,2.74-0.12,4.1-0.64c0.36,0.28,3.23,0.26,3.64,0.03    c1.1,0.04,2.25-0.28,3.25-0.69c2.95-1.05,5.89-2.1,8.84-3.15c1.89-0.51,4.55-0.34,6.17-1.59c1.63-0.12,3.72-0.6,5.19-1.32    c1.56-0.87,3.11-1.74,4.67-2.62c0.69-0.19,1.39-0.39,2.08-0.58c0.84-0.17,1.68-0.34,2.52-0.51c1.14-0.46,1.94-1.31,2.91-2.04    c1.23-0.92,2.42-1.5,3.44-2.72c0.58-0.72-0.55-2.07-0.3-1.63c0.21-1.41-0.06-2.34-0.18-3.34c-0.06-0.53-0.27-0.96-0.09-1.48    c1.45-4.07,6.71-4.67,10.35-4.67l1.26-0.19c-0.31,0.12,0.17,0.92-0.4,1.63c-0.37,0.47-0.01,1.27-1.03,1.68    c0.11,0.52,0.48,1.05,0.19,1.49c0.61,0.4,2.08,1.69,2.62,1.49c0,0.37,0.01,0.73,0.01,1.1c-0.16,1.52-0.72,2.9,0.17,4.37    c-0.06,0.11-0.12,0.22-0.18,0.33c0.07,0.04,0.14,0.08,0.22,0.12c0.43,0.15,0.85,0.3,1.28,0.44c1.11,1.11,1.37,1.52,2,3    c0.43,1.02,1.02,2.05,0.81,3.16c0.07-0.03,0.15-0.05,0.22-0.08c0.34,0.85,0.69,1.71,1.03,2.56c0.39,0.17,0.78,0.34,1.17,0.51    c0.76-0.07,2.91-0.27,3.42,0.45c0.84,1.06,0.9,3.63,0.23,4.96c-0.4,0.8-1.48,0.93-1.59,1.68c-0.19,0-0.37,0.01-0.56,0.01    c0.1,0.1,0.2,0.19,0.3,0.29c1.38,1.29,3.08,1.99,4.43,3.39c0.49,0.5,0.65,1.38,1.25,1.55c-0.12,0.12-0.25,0.24-0.37,0.36    c-1,0.94-2.03,1.35-3.23,1.93c-0.38,0.18-1.22,0.41-1.27,0.88c-0.11,1.15,0.57,3.97,1.51,4.68L265.57,289.42z"/>
            <circle cx="224.68" cy="276.71" r="1.586"/>
        </g>
        <g id="__İskenderun">
            <path d="    M133.47,207.4c0,3.01,5.05,5.29,7.1,7.47c0.32-0.07,2.31-0.52,2.21-0.04l0.68,0.22c2.01,0.02,2.74,0.26,3.58,2.06    c0.7,1.51,0.05,3.16,0.57,4.81c0.45,1.43,2.11,3.65,3.32,4.54c0.67,0.5,1.47,0.75,2.25,1.35c0.75,0.58,1.57,1.22,2.44,1.45    c1.34,0.35,2.72-1.34,4.19-1.5c1.75-0.19,3.61,0.93,5.15,1.12c1.84,0.23,3.75,0.84,4.7,1.3c1.26,0.62,5.47,1.69,5.47,1.69    c-0.17-1.03-0.34-3.97-0.44-5.6c0.02-0.94,0.05-1.87,0.07-2.81c2.87-4.01,4.71-8.21,8.02-11.97c0.75-0.94,1.49-1.87,2.24-2.81    c0.37-0.59,0.84-1.62,1.51-1.85c1.18-2.64,2.36-5.27,3.54-7.91c0.38-1.91,0.75-3.82,1.13-5.73c1.01-2.49,2.02-4.97,3.04-7.46    c0.18-0.63,0.9-2.06,0.51-2.63c0.97-1.7,1.95-3.4,2.92-5.1c0.8-1.87,1.67-3.9,1.19-5.92c0.36-1,0.44-1.23,0.37-2.24    c-1.12-1.44-2.51-3.27-2.89-5.07c0.01-0.68,0.03-1.35,0.04-2.03l-1.57-1.16c-1.02,0.4-0.37-0.19-1.53-0.78    c-0.88-0.54-1.76-1.07-2.65-1.61c-0.93-0.25-1.87-0.5-2.8-0.75c-0.44,0.12-0.87,0.25-1.31,0.37c-1,0.57-2.21,1.17-3.39,1.23    c-3.29-0.22-6.58-0.44-9.87-0.67c-2.14-0.27-3.83-1.88-5.84-2.65c-2.1-0.8-4.2-1.61-6.29-2.41c-1.67-0.14-3.35-0.1-5.02-0.25    c-0.88-0.22-1.77-0.45-2.65-0.67l0.57,0.71c0.74-0.05,1.47,0.47,1.96,1.06c-0.34,0.53-0.69,1.06-1.03,1.59    c0.26,0.32-0.2,1.22-0.19,1.68c0.04,1.36-0.84,3.46-0.37,4.67c0.68,1.78,1.37,3.55,2.05,5.33c0.47,0.78,0.93,1.56,1.4,2.34    c0.51,1.17,0.87,2.29,1.03,3.54c0.31,0.37,0.62,0.75,0.93,1.12c0,0.62,0,1.25,0,1.87c-0.68,0.73-0.59,3.28-0.56,4.3    c-0.19,0.62-0.37,1.25-0.56,1.87c-0.37,0.69-0.75,1.37-1.12,2.06c-0.31,0.31-0.62,0.63-0.93,0.94c-0.12,0.18-0.9,1.37-1.03,1.55    c0.23-0.15,0,0-0.3,1.23c-0.72,0.38-0.2,1.71-0.36,2.45c0,0.56,0,1.12,0,1.68c-0.9,0.96-0.2,3.2-1.15,4.46    c-0.42,0.55-2.12,2.45-3.95,2.6c-0.29,0.49-3.1-0.76-3.72-0.98c-0.11-0.03-0.23-0.07-0.34-0.1c-0.22,0.46-2.07,1.14-2.66,1.33    c-0.8,0.26-1.24,0.91-2.2,0.91c-1.12,1.06-2.24,2.12-3.36,3.18c-1.37,1.06-2.74,1.93-4.11,2.99V207.4z"/>
            <circle cx="146.05" cy="202.73" r="1.586"/>
        </g>
        <g id="__Hassa">
            <path d="    M256.82,177.74c-0.26,0.17-0.78,0.01-0.78-0.24c-0.38-0.38-1.17-0.24-1.69-0.22c-1.58,0.05-2.83,0.6-4.33,0.99    c-1.05,0.12-2.09,0.23-3.14,0.35c-0.41,0.33-0.83,0.67-1.24,1c-1.22,1.27-2.44,2.54-3.67,3.81c-1.19,1.17-2.37,2.48-3.12,3.98    c-0.78,0.6-1.57,1.2-2.35,1.8c-1.4,1.14-4.09,4.31-6.08,2.81c0.06-0.6,0.12-1.21,0.18-1.81c0.65-0.57,1.29-1.14,1.94-1.71    c1.32-1.34,2.63-2.67,3.95-4.01c0.86-0.97,0.76-1.37-0.02-2.38c-0.16-0.2-0.32-0.41-0.47-0.61c-0.11-0.69-0.22-1.37-0.33-2.06    c-0.58-1.64-2.77-1.36-4.28-1c-0.51,0.69-2.83,0.24-3.73,0.33c-0.88,0.2-1.75,0.41-2.63,0.61c-0.5-0.44-1.43-0.07-2.06-0.19    c-1.67-0.32-3.43-0.15-5.03-0.46c-0.44-0.1-0.88-0.19-1.32-0.29c-0.81-0.37-1.62-0.75-2.43-1.12c-0.73-0.7-1.46-1.41-2.18-2.11    c-1.3-1.56-2.6-3.13-3.91-4.69c-1.61-1.56-3.56-2.34-5.31-3.66c-1.83-1.38-4.13-4.05-6.4-4.11l-1.57-1.16    c0.53-0.19,0-1.82-0.15-2.17c-0.16-0.57-0.32-1.14-0.47-1.72c-0.35-0.7-0.7-1.41-1.04-2.11c-0.46-1.19-0.13-2.46-0.26-3.68    c-0.28-2.64,0.23-5.1,0.23-7.65l0.51-1.13c-0.06-0.69-0.12-1.37-0.19-2.06c0.27-1.68,0.53-3.36,0.8-5.04    c0.04-0.94,0.09-1.87,0.13-2.81c0.25-1.25,0.5-2.49,0.75-3.74c0.58-1.39,1.17-2.78,1.75-4.16c0.81-1.88,1.39-3.81,2.63-5.48    c0.42-0.57,2.19-1.91,2.16-2.31c0.75-0.12,1.49-0.25,2.24-0.37c1.87-1.81,3.74-3.61,5.61-5.42c0.43-0.82,0.85-1.64,1.28-2.45    c0.58-0.76,2.81-3.35,3.58-3.53c0.37-0.56,0.75-1.12,1.12-1.68c1.41-1.76,1.76-4.05,2.73-6.01c0.34-0.8,0.67-1.6,1.01-2.39    c0.81-0.93,1.62-1.87,2.43-2.8c0.75-1.06,1.49-2.12,2.24-3.18c0.09,0.09,0.18,0.17,0.26,0.26c1.34,1.41,2.67,2.83,4.01,4.24    c1.07,1.05,2.13,2.11,3.2,3.16c1.68,1.09,3.85,1.74,5.79,2.24c2.3,0.87,4.61,1.74,6.91,2.62c0.66,0.14,1.33,0.28,1.99,0.41    c2.57,0.98,5.14,1.97,7.71,2.95c0.79,0.29,2.8,0.22,3.19,0.93c3.37-0.76,7.07-1.3,10.41-0.08c1.44,0.53,3.14,1.22,3.33,2.67    c0.16,1.13,0.31,2.26,0.47,3.39c0.26,0.04,1.28,2.96,3.07,4.05c0.28,1.11,1.55,1.58,2.54,1.93c1.36,0.34,2.73,0.68,4.09,1.02    c0.71,0.12,1.5,0.06,1.82,0.79c0.27,0.58,0.55,1.16,0.82,1.75c0.21,0.63-0.07,0.95,0.37,1.49c-0.31,0.5-0.62,1-0.93,1.49    c0.24,0.31,0.37,0.62,0.75,0.75c0.46,2.3-0.65,4.68-2.27,6.32c-0.89,0.71-1.77,1.42-2.66,2.13c-0.66,0.4-1.29,0.61-1.82,1.2    c-0.34,0.38-1.48,4-1.28,4.36c-0.17,0.1-0.33,0.19-0.5,0.29c-0.83,0.34-1.66,0.68-2.49,1.02c-0.52,1.91-1.92,3.8-3.04,5.54    c-0.38,0.59-0.62,0.94-0.8,1.64c-0.15,0.04-0.3,0.07-0.46,0.11c0.02,0.05,0.05,0.11,0.07,0.16c0.5,1.04,0.41,2.16,0.79,3.16    c0.28,0.75,1.12,1.82,0.82,2.66c0.37,0.53,0.75,1.05,1.12,1.58c0.21,0.11,1.35,0.92,1.35,0.92c0.94,1.61,0.23,4-0.92,5.3    c-0.28,1.23-1.83,4.44-3.23,4.53c-0.38,1.78-0.77,3.54-1.87,5.04c-1.06,0-1.25,0.97-2.06,1.49c-0.69,0.37-1.37,0.75-2.06,1.12    c-0.31,0.62-0.62,1.25-0.93,1.87c-0.36,0.57-2.9,1.71-3.4,1.58L256.82,177.74z"/>
            <circle cx="243.05" cy="130.23" r="1.586"/>
        </g>
        <g id="__Dörtyol">
            <path d="    M154.21,131.17c0.06-0.19,2.77-0.23,3.74-0.37c0.62,0,1.25,0,1.87,0c0.81-0.19,1.62-0.37,2.43-0.56c1.54,0.13,3.08,0.26,4.61,0.39    c1.51,0.62,3.03,1.23,4.54,1.85c1.12,0.11,2.24,0.73,3.11,1.4c3.16,2.41,5.76,5.66,9.41,7.39c0.81,0.19,1.62,0.37,2.43,0.56    c0.69,0.19,1.37,0.37,2.06,0.56c1.06,0.06,2.12,0.12,3.18,0.19c0.64,0.44,1.51,0.9,1.54,1.69l0.51-1.13    c-0.06-0.69-0.12-1.37-0.19-2.06c0.27-1.68,0.53-3.36,0.8-5.04c0.04-0.94,0.09-1.87,0.13-2.81c0.25-1.25,0.5-2.49,0.75-3.74    c0.58-1.39,1.17-2.78,1.75-4.16c0.81-1.88,1.39-3.81,2.63-5.48c0.42-0.57,2.19-1.91,2.16-2.31c0.75-0.12,1.49-0.25,2.24-0.37    c1.87-1.81,3.74-3.61,5.61-5.42c0.43-0.82,0.85-1.64,1.28-2.45c0.58-0.76,2.81-3.35,3.58-3.53c0.37-0.56,0.75-1.12,1.12-1.68    c1.41-1.76,1.76-4.05,2.73-6.01c0.34-0.8,0.67-1.6,1.01-2.39c0.81-0.93,1.62-1.87,2.43-2.8c0.75-1.06,1.49-2.12,2.24-3.18    c0,0-0.67-0.29-0.71-0.46c-0.42-1.27-3.92-0.62-5.06-0.41c-5.67,1.03-10.6,1.15-16.25,0.02c-0.63-0.17-1.27-0.34-1.9-0.51    c-1.49-0.11-2.98-0.21-4.47-0.32c-1.64,0.51-3.28,1.03-4.92,1.54c-2.66,0.61-5.22,1.4-7.6,2.76c-1.15,0-2.04,0.74-2.99,1.31    c-1.88,0-3.75-0.47-5.56-0.94c-1.08-0.28-2.09-0.75-3.22-0.75c-0.56,0.11-1.13,0.22-1.69,0.33c-1.74,0.24-3.39,0.4-5.03,0.99    c-0.73-0.4-3.87,0.34-4.88,0.41c-1.76,0.12-3.55,0.82-5.44,1.07c-1.17,0.07-2.34,0.14-3.51,0.2c-1.75,0.26-3.5,0.52-5.25,0.78    c-1.36,0.11-2.73,0.23-4.09,0.34c-1.01,0.23-2.03,0.47-3.04,0.7c-1.77,0.25-3.5,0.47-5.19,1.02c-1.2,0.41-2.4,0.82-3.6,1.23    c-0.1,0.08-0.21,0.15-0.31,0.23c0.88-0.03,1.15,1.09,1.87,1.49c2.42,1.38,4.39,3.63,6.36,5.6c0.81,1,1.62,2,2.42,3    c3.13,2.9,5.41,6.58,6.91,10.46c0.66,0.92,1.32,1.85,1.98,2.77c1.33,2.13,2.67,4.26,4,6.39c0.37,0.37,0.75,0.75,1.12,1.12    c0.1,0.22,0.2,0.43,0.3,0.65L154.21,131.17z"/>
            <circle cx="164.84" cy="117.65" r="1.586"/>
        </g>
        <g id="__Erzin">
            <path d="    M128.69,98.94c-1.84-1.26-3.69-2.34-5.53-3.6c-3.67-2.43-7.56-4.27-11.36-6.42c-0.79-0.45-3.72-2.23-4.49-2.03    c-0.84-0.43-3.92-1.68-4.67-0.94c-1.72,1.69-3.81,2.58-5.68,4.06c-1.1,1.2-2.19,2.4-3.29,3.6c-0.78,0-1.99,0.96-2.43,1.62    c-0.68,1-2.5,4.45-3.89,4.08c-0.31-0.11-0.75-0.13-0.71-0.23c0.66-1.24,0.74-2.91,1.8-3.97c0-0.5,0-1,0-1.49    c0.69-0.56,1.37-1.12,2.06-1.68c0.44-0.56,0.87-1.12,1.31-1.68c1.03-1.21,2.06-2.42,3.09-3.63c1.67-1.47,3.61-2.55,5.32-3.85    c1.01-0.77,2.65-1.29,3.18-2.62c0.75-2.99,1.5-5.98,2.24-8.97c-0.41-0.41-0.18-1.19,0-1.68c1.11-0.55,1.86-1.56,2.77-2.46    c1.56-1.49,3.13-2.98,4.69-4.47c0.75-0.74,1.5-1.48,2.25-2.22c0.38,0.05,0.76,0.1,1.14,0.15c0.68,0.26,1.36,0.52,2.04,0.78    c0.62,0.12,1.25,0.25,1.87,0.37c1.99-0.06,3.99-0.12,5.98-0.19c1.68,0.11,3.36,0.23,5.04,0.34c1.3-0.06,4.2,0.53,4.7-0.91    c0.51-1.63,1.03-3.27,1.54-4.9c0.7,0,0.37-0.79,0.68-0.16c0.25,0.32,0.5,0.64,0.75,0.96c0.25,1.23,0.9,2.45,1.52,3.53    c0.3,0.52,0.62,1.31,1.25,1.33c2.92,0.02,5.84,0.04,8.76,0.06c1.57-0.2,3.98-0.54,5.49,0.1c1.13,0.48,2.43,2.46,3.23,3.5    c2.03,2.64,4.06,5.27,6.08,7.91c0.5,0.5,1,1,1.49,1.49c1.99,1.12,3.99,2.24,5.98,3.36c6.35,1.74,12.71,3.49,19.06,5.23    c1.39,0.37,3.15,1.37,4.24,2.29c0.25,0.29,0.49,0.58,0.74,0.86c0.75,0.03,1.21,0.58,1.74,0.58c0.63,0.48,1.3,1.26,1.3,1.26    c-1.49-0.11-2.98-0.21-4.47-0.32c-1.64,0.51-3.28,1.03-4.92,1.54c-2.66,0.61-5.22,1.4-7.6,2.76c-1.15,0-2.04,0.74-2.99,1.31    c-1.88,0-3.75-0.47-5.56-0.94c-1.08-0.28-2.09-0.75-3.22-0.75c-0.56,0.11-1.13,0.22-1.69,0.33c-1.74,0.24-3.39,0.4-5.03,0.99    c-0.73-0.4-3.87,0.34-4.88,0.41c-1.76,0.12-3.55,0.82-5.44,1.07c-1.17,0.07-2.34,0.14-3.51,0.2c-1.75,0.26-3.5,0.52-5.25,0.78    c-1.36,0.11-2.73,0.23-4.09,0.34c-1.01,0.23-2.03,0.47-3.04,0.7c-1.77,0.25-3.5,0.47-5.19,1.02c-1.2,0.41-2.4,0.82-3.6,1.23    L128.69,98.94z"/>
            <circle cx="154.65" cy="77.2" r="1.586"/>
        </g>
    </g>
</svg>