<?xml version="1.0" encoding="UTF-8"?>
<!DOCTYPE svg PUBLIC "-//W3C//DTD SVG 1.1//EN" "http://www.w3.org/Graphics/SVG/1.1/DTD/svg11.dtd">
<svg version="1.1" id="HaritaCizim" xmlns="http://www.w3.org/2000/svg" xmlns:xlink="http://www.w3.org/1999/xlink" x="0px" y="0px" viewBox="0 0 500 470" preserveAspectRatio="none">
    <defs id="__def">
        <radialGradient id="f">
            <stop offset="0" stop-color="white" stop-opacity="1"/>
            <stop id="STOP1" offset=".4" stop-opacity="1"/>
            <stop offset="1" stop-color="white" stop-opacity=".2"/>
        </radialGradient>
        <filter id="__flt1" x="0" y="0" width="200%" height="200%" filterUnits="objectBoundingBox">
            <feGaussianBlur in="SourceAlpha" stdDeviation="3" result="blur1"/>
            <feSpecularLighting result="specOut" in="blur1" specularConstant="1.5" specularExponent="20" lighting-color="#bbbbbb">
                <feDistantLight azimuth="45" elevation="30"/>
            </feSpecularLighting>
            <feComposite in="specOut" in2="SourceAlpha" operator="in" result="specOut"/>
            <feComposite in="SourceGraphic" in2="specOut" operator="arithmetic" k1="0" k2="1" k3="1" k4="0"/>
        </filter>
        <filter id="__flt2" x="0" y="0" width="200%" height="200%" filterUnits="objectBoundingBox">
            <feGaussianBlur in="SourceAlpha" stdDeviation="3" result="blur1"/>
            <feSpecularLighting result="specOut" in="blur1" specularExponent="20" lighting-color="#bbbbbb">
                <fePointLight x="-2000" y="100" z="2000"/>
            </feSpecularLighting>
            <feComposite in="specOut" in2="SourceAlpha" operator="in" result="specOut"/>
            <feComposite in="SourceGraphic" in2="specOut" operator="arithmetic" k1="0" k2="1" k3="1" k4="0"/>
        </filter>
        <filter id="__flt3" x0="-50%" y0="-50%" width="200%" height="200%" filterUnits="objectBoundingBox">
            <feGaussianBlur in="SourceAlpha" stdDeviation="3" result="blur"/>
            <feOffset in="blur" dx="0" dy="0" result="offsetBlur"/>
            <feSpecularLighting in="blur" surfaceScale="4" specularConstant=".5" specularExponent="20" lighting-color="flavor" result="specOut">
                <fePointLight x="-5000" y="-10000" z="5000"/>
            </feSpecularLighting>
            <feComposite in="specOut" in2="SourceAlpha" operator="in" result="specOut"/>
            <feComposite in="SourceGraphic" in2="specOut" operator="arithmetic" k1="0" k2="1" k3="1" k4="0" result="litPaint"/>
            <feMerge>
                <feMergeNode in="offsetBlur"/>
                <feMergeNode in="litPaint"/>
            </feMerge>
        </filter>
        <filter id="__flt4" x0="-50%" y0="-50%" width="200%" height="200%">
            <feGaussianBlur in="SourceAlpha" stdDeviation="2" result="blur"/>
            <feOffset dy="-1" dx="-1"/>
            <feComposite in2="SourceAlpha" operator="arithmetic" k2="-1" k3="1" result="hlDiff"/>
            <feFlood flood-color="white" flood-opacity=".7"/>
            <feComposite in2="hlDiff" operator="in"/>
            <feComposite in2="SourceGraphic" operator="over" result="withGlow"/>
            <feOffset in="blur" dy="3" dx="3"/>
            <feComposite in2="SourceAlpha" operator="arithmetic" k2="-1" k3="1" result="shadowDiff"/>
            <feFlood flood-color="black" flood-opacity="1"/>
            <feComposite in2="shadowDiff" operator="in"/>
            <feComposite in2="withGlow" operator="over"/>
        </filter>
        <filter id="__golge1" x="0" y="0" width="200%" height="200%" filterUnits="userSpaceOnUse">
            <feOffset result="offOut" in="SourceAlpha" dx="8" dy="8"/>
            <feGaussianBlur result="blurOut" in="offOut" stdDeviation="3"/>
            <feBlend in="SourceGraphic" in2="blurOut" mode="normal"/>
        </filter>
    </defs>
    <g id="__Komsular" display="none">
        <radialGradient id="SVGID_1_" cx="94.6799" cy="309.3188" r="46.0928" gradientTransform="matrix(0.7974 -0.6034 0.3017 0.3987 -74.1442 243.1205)" gradientUnits="userSpaceOnUse">
            <stop offset="0" style="stop-color:#7492CB"/>
            <stop offset="1" style="stop-color:#FFFFFF"/>
        </radialGradient>
        <path fill-rule="evenodd" clip-rule="evenodd" fill="url(#SVGID_1_)" stroke="#000000" stroke-miterlimit="10" d="M105.36,289.07   c0,0.11,0,0.23,0,0.34c-0.85,0.16-1.7,0.33-2.55,0.49c-0.64,0.1-2.68,0.6-3.09,0.19c-1.35,0.42-2.79,1-3.92,1.88   c-1.68,1.3-3.69,2.42-4.79,4.27c-0.85,0.06-1.95,0.81-2.56,0.68c-0.34,0.68-0.68,1.37-1.03,2.05c-0.66,0.53-2.87,2.12-2.9,2.73   c-1.01,0.19-2.03,0.38-3.04,0.57c-0.81,0.49-1.62,0.99-2.43,1.48c-1.19,0.71-3.54,3.31-3.69,4.62c-0.08,0.45-0.16,0.91-0.24,1.36   c-1.43,1.03-2.87,2.06-4.3,3.09c-0.47,0.28-1.29,0.91-1.35,1.51c-0.03,0.88,0,3.7-0.67,4.29c-0.61,0.02-2.55,0.66-2.57,1.37   c0,0.46,0,0.91,0.01,1.37c0.99,0.25,1.02,4.16,0.4,4.92c-0.65,0.64-1.29,1.27-1.94,1.91c-0.76,0.25-1.51,0.51-2.27,0.76   c-0.3,0.53-1.07,1.73-0.71,2.3c0.59,0.92,1.19,1.84,1.78,2.76c0,0.34,0,0.68,0,1.03c0.14,0.53,0.61,0.59,0.51,1.2   c0.06-0.05,0.12-0.11,0.18-0.16c0.59-0.52,1.89-2.03,2.73-1.38c0.4-0.17,0.8-0.34,1.2-0.51c0.68-0.63,1.07-1.15,2-1.12   c0.23-0.26,0.25-0.28,0.57-0.25c1.43,0.15,2.44,1.49,3.9,1.33c0.11,0.05,0.22,0.1,0.33,0.14c0.95-0.4,2.23-0.83,2.42-1.86   c0.05-0.85,0.1-1.69,0.14-2.54c1.07-1.46,1.94-1.29,3.37-2c1.38-0.69,2.76-1.39,4.14-2.08c1.1-0.26,2.2-0.52,3.29-0.77   c0.93-0.14,1.79-0.02,2.69-0.4c0.96-0.4,1.45-1.17,2.26-1.74c0.34-0.11,0.68-0.23,1.03-0.34c0.46-0.29,0.91-0.58,1.37-0.88   c0.61-0.52,0.53-1.2,1.11-1.77c0.48-0.15,0.95-0.3,1.43-0.44c1.53-0.93,2.54-2.49,4.13-3.23c0.34-0.63,0.68-1.25,1.03-1.88   c0.46-0.75,0.29-1.66,0.87-2.42c0.59-0.77,1.19-1.35,1.58-2.21c0.44-0.17,0.88-0.33,1.31-0.5c0.11-0.4,0.23-0.8,0.34-1.2   c0.34-0.34,0.53-0.57,0.68-1.02c-0.49-0.58-1.13-1.37-0.71-2.18c1.09-1.95,2.18-3.9,3.27-5.85c0.85-0.57,1.71-1.14,2.56-1.71   c1.19-0.72,3.75-0.68,5.13-0.68c0.51,0,1.03,0,1.54,0c0.4-0.12,0.8-0.33,1.2-0.17c1.32-0.52,2.55-1.21,3.6-2.21   c0.73-0.69,2.63-3.02,3.57-3.09c0.33-0.52,0.66-1.05,0.99-1.57c0.29-0.35,1.34-1.66,0.98-2.11c-0.43-0.51-1.12-1.83-1.98-1.77   c-0.52,0.05-0.87-0.03-1.37-0.18c-2.22,0.68-4.44,1.37-6.66,2.05c-1.53,0.81-3.53,1.71-5.3,1.88c-0.57,0.06-1.14,0.11-1.71,0.17   c-0.35,0.12-0.7,0.24-1.06,0.36c-0.62-0.23-1.23-0.47-1.85-0.7c-0.06,0.11-0.11,0.23-0.17,0.34c-1.14,0.06-2.28,0.11-3.42,0.17   c0-0.23,0-0.46,0-0.68C106.27,289.58,105.77,289.63,105.36,289.07z"/>
        <radialGradient id="SVGID_2_" cx="261.0364" cy="414.0559" r="22.4387" gradientUnits="userSpaceOnUse">
            <stop offset="0" style="stop-color:#7492CB"/>
            <stop offset="1" style="stop-color:#FFFFFF"/>
        </radialGradient>
        <path fill-rule="evenodd" clip-rule="evenodd" fill="url(#SVGID_2_)" stroke="#000000" stroke-miterlimit="10" d="M267.31,399.42   c0.29,0.31-0.07,1.41,0.06,1.39c0.21,0,0.43,0,0.64,0.01c0-0.96,0.9-1.03,1.71-1.03c0.17-0.1,0.33-0.2,0.5-0.29   c0.12,0.04,0.24,0.08,0.36,0.12c-0.28,0.57-0.57,1.14-0.85,1.71c-0.28,1.14-0.57,2.28-0.85,3.42c-0.28,0.23-0.57,0.46-0.85,0.68   c0.05,0.52,0.34,2.71-0.09,2.96c-0.5,0.31-0.82,0.62-1.45,0.46c-0.02,0.05-0.04,0.1-0.05,0.15c-0.43,1.37-0.74,1.76-1.43,2.98   c0.06,0.57-0.28,1.77-0.23,2.33c-0.8,0.37-0.79,0.39-1.03,1.2c0.56,0.08,1.12,0.17,1.68,0.25c-0.18,0.58-0.04,1.04-0.14,1.63   c1.24,0.68,1.92,2.02,2.48,3.27c0.2,0.45,0.4,0.89,0.6,1.34c0,0.57,0,1.14,0,1.71c-0.17,0.23-0.34,0.46-0.51,0.68   c-0.01-0.05-0.02-0.1-0.03-0.14c-0.34-1.32-0.31-3.06-1.36-3.92c-0.92-0.78-2.22-1.37-3.39-1.39c-0.63-0.01-1.63-0.08-1.41,0.62   c-0.04,0.13-0.09,0.26-0.13,0.4c0.67,0.21,1.6,0.4,1.34,0.92c0.01,0.15,0.02,0.3,0.03,0.44c-0.26-0.14-0.97-0.73-1.07-0.33   c-0.15,0.85-0.64,0.37-0.27,1.14c-0.01,0.13-0.02,0.26-0.03,0.39c0.31,0.33,1.55,1.15,1.24,1.52c-0.22,0.27-0.82,1.5-0.85,1.48   c-0.81-0.56-2.03-1.22-2.44-2.14c-0.57-0.34-1.14-0.68-1.71-1.03c-0.42-0.13-2.66-0.66-1.68,0.15c0.05,0.12,0.09,0.24,0.14,0.36   c0.43,0.13,0.56,0.29,1.03,0.17c0.28,0.17,0.57,0.34,0.85,0.51c0.57,0.68,1.14,1.37,1.7,2.05c0.46,0.46,0.91,0.91,1.37,1.37   c0.36,0.18,0.88,0.3,1.03,0.68c0.54,0,1.12-0.32,1.54,0.17c-0.34,0.11-0.68,0.23-1.03,0.34c-0.06,0.53-0.41,1.33,0,1.71   c-0.29-0.27-2.01-1.77-2.05-2.05c-1.15,1.57,0.36,3.4,0.51,5.13c-0.17-0.17-0.33-0.35-0.5-0.52c-0.5-0.55-1.25-2.46-1.89-2.38   c-0.05-1.58,0.32-2.23-0.73-3.81c-0.71-1.06-1.42-1.19-2.52-1.66c-0.91-0.57-1.82-1.14-2.73-1.71c0.23,0,0.46,0,0.68,0   c-0.16-0.32-0.32-0.63-0.48-0.95c0.17-0.32,0.32-0.38,0.3-0.76c1.04-0.31,1.3-1.1,2.14-1.61c0.2-0.38,0.4-0.75,0.6-1.13   c0.06-0.65,0.25-1.59-0.53-1.84c-0.49-0.1-0.99-0.21-1.48-0.31c-0.82,0.45-1.64,0.89-2.46,1.34c-0.14,0.42-0.06,0.61-0.49,0.81   c0.19,0.7,0.34,0.8,0.14,1.52c0.04,0.29-0.82,0.75-0.85,0.53c-0.09-0.52-0.09-1.27,0.37-1.54c-0.55-0.7-1.85-1.62-1.88-2.56   c0.22,0.11,0.45,0.22,0.67,0.34c0.47,0.1,0.57-0.26,1.04,0.01c-0.05-0.12-0.1-0.23-0.16-0.35c-0.1-0.24-0.45-0.5-0.2-0.51   c0.7-0.02,1.55,0.44,2.11,0.18c0.46-0.21,0.63-0.4,0.9-0.84c0.47-0.02,0.39,0.11,0.44-0.19c0.12-0.71,0.24-1.42,0.35-2.13   c-0.16-1.16-1.33-3.45-2.6-3.51c-0.31-1.43-0.51-2.6-1.84-3.31c-0.29-0.13-0.59-0.26-0.88-0.4c-0.23,0.04-0.47,0.08-0.7,0.12   c-0.17,0.28-0.34,0.57-0.51,0.85c-0.37,0.01-0.58-0.08-0.85,0.17c0.08-0.16,0.15-0.32,0.23-0.48c0.54-0.67,1.07-1.35,1.61-2.02   c-0.43-0.92-0.28-0.84-1.49-0.68c-0.12-0.02-0.23-0.04-0.35-0.06c-0.29,0.36-0.74,1.1-1.11,0.86c-0.14-0.06-0.29-0.12-0.43-0.18   c0.51-0.48,0.97-0.35,0.72-1.05c-0.2-0.79-1.27-1.99-1.75-2.33c-0.46-0.32-1.38-0.72-1.31-1.32c0.04-0.24-0.08-0.66,0.28-0.56   c0.59,0.2,2.03,0.93,2.58,0.64c0.34,0.22,0.47,0.28,0.51,0.68c0.4,0.03,0.53,0.11,0.85-0.17c0.28,0.06,0.57,0.11,0.85,0.17   c0.32,0.61,0.32,0.9,0.81,1.31c0.08,0.05,0.16,0.11,0.24,0.16c0.09-0.29,0.05-0.46,0.33-0.62c-0.12-0.27-0.64-1.04-0.33-1.01   c0.35,0.03,0.43,0.1,0.67-0.19c0.57,0.37,1.15,0.73,1.72,1.1c0.34-0.01,0.68-0.02,1.03-0.03c0.16,0.6,0.4,1.22,1.01,1.5   c0.37,0.73,0.57,1.5,1.37,1.88c0.08-0.17,0.15-0.33,0.23-0.5c-0.02-0.18-0.04-0.35-0.06-0.53c0.24-0.1,0.48-0.21,0.72-0.31   c0.14-0.38,0.25-0.48,0.58-0.67c0.25-0.7,0.5-1.4,0.75-2.09c-0.45-0.74-0.38-0.91-0.65-1.64c0.01-0.04,0.2-2.01,0.44-1.27   c0.1,0.33,0.2,0.66,0.29,0.99c0.45,0.22,0.7,0.54,0.6,1.06c0.55,0.69,1.11,1.38,1.66,2.08c0.4,0.61,0.8,1.49,1.59,1.34   c0.05,0.48-0.07,0.34,0.51,0.68c-0.18,0.04-0.36,0.09-0.54,0.13c-0.32,0.38-0.64,0.75-0.96,1.13c0.4,0.73-1.24,1.82-0.84,2.55   c0.05,0.09,0.23,1.77,0.28,3.76c0.02,0.56,2.13,3.12,2.68,1.99c0.19-0.39,1.46-1.72,1.37-2.85c-0.12-1.49-1.64-2.81-1.6-2.86   c0.28,0.34,0.46,0.01,0.38-0.31c-0.09-0.21-0.17-0.43-0.26-0.64c0.12-0.56,0.42-1.1,0-1.54c0.17-0.44,0.4-0.57,0.17-1.03   c0.37-0.42,0.8-1.24,1.37-1.03c0.44-0.88,0.8-2.22,1.88-2.39c0.1-0.56,0.5-1.97,1.03-1.71   C266.73,398.96,267.35,398.93,267.31,399.42z"/>
        <radialGradient id="SVGID_3_" cx="266.9575" cy="340.8052" r="11.1646" gradientUnits="userSpaceOnUse">
            <stop offset="0" style="stop-color:#7492CB"/>
            <stop offset="1" style="stop-color:#FFFFFF"/>
        </radialGradient>
        <path fill-rule="evenodd" clip-rule="evenodd" fill="url(#SVGID_3_)" stroke="#000000" stroke-miterlimit="10" d="M267.13,334.02   c0.34,0.61,0.68,1.22,1.02,1.84c-0.11,0.44-0.2,0.41,0.04,0.88c-0.25,0.35-0.76,1.58-0.61,1.83c0.37,0.6,0.77,1.25,1.46,1.42   c-0.35,1.56-0.02,2.03,0.63,3.36c0.13,0.36,0.26,0.72,0.4,1.08c0,0.67-0.13,1.38,0.51,1.71c-0.07,0.42-0.09,1.89-0.52,1.87   c-0.67,0.04-1.34,0.07-2.01,0.11c-0.85-0.47-2.73-1.55-2.59-2.66c-0.59,0.15-1.43,0.19-1.72-0.33c-0.5-0.9-0.15-1.35-0.28-2.26   c-0.41-0.27,0.36-0.32,0.64-0.49c0.23,0.68,0.46,1.37,0.68,2.05c0.07-0.1,0.13-0.19,0.2-0.29c0.62-0.89-0.39-4.06-1.39-4.5   c-0.12-1.25-0.2-2.63,0.51-3.76c-0.12-0.42-0.89-1.69-0.01-1.92c0.35-0.16,0.69-0.31,1.04-0.47   C265.79,333.67,266.46,333.85,267.13,334.02z"/>
        <radialGradient id="SVGID_4_" cx="424.1704" cy="295.3162" r="84.1403" gradientTransform="matrix(-0.4897 -0.8719 0.4359 -0.2449 503.1478 737.4542)" gradientUnits="userSpaceOnUse">
            <stop offset="0" style="stop-color:#7492CB"/>
            <stop offset="1" style="stop-color:#FFFFFF"/>
        </radialGradient>
        <path fill-rule="evenodd" clip-rule="evenodd" fill="url(#SVGID_4_)" stroke="#000000" stroke-miterlimit="10" d="M406.76,240.4   c-0.49-0.38-1.3-1.04-1.88-0.71c-0.07-0.25-0.15-0.5-0.22-0.75c-0.11-0.73,0.32-2.04-0.19-2.58c-0.6-0.58-0.77-0.97-1.65-1.12   c-0.78-0.81-1.48-1.47-2.66-1.03c-0.48,0.28-0.97,0.57-1.45,0.85c-0.61-0.3-1.79,0.39-2.25,0.82c-0.11,0.03-0.22,0.06-0.33,0.1   c-0.59,1.07-1.19,2.15-1.78,3.23c-0.43,0.91-0.43,1.55-1.28,2.16c-0.39,0.28-0.93,0.87-1.31,0.92c-0.9,0.11-1.73-0.7-2.51-1.06   c-0.6-0.23-1.2-0.46-1.79-0.69c-0.68,0.4-1.71-0.54-2.39-0.85c-1.63,1.42-2.45-0.07-4.1,0.34c-0.24,0.51-1.05,1.52-0.68,2.05   c-0.08-0.04-0.16-0.09-0.25-0.13c-0.2-0.07-0.41-0.14-0.61-0.21c-0.29-1.1-0.57-2.13-1.8-2.48c-0.03-0.09-0.05-0.17-0.08-0.26   c-0.06,0.06-0.11,0.11-0.17,0.17c-0.46,0.52-0.82,0.76-0.74,1.49c-0.04,0.13-0.08,0.26-0.12,0.4c0.06,0.28,0.11,0.57,0.17,0.85   c0.13,0.21,0.27,0.42,0.4,0.62c0.5,0.87,1.24,2.33,1.02,3.26c-0.09,0.29-0.37,1.24-0.74,1.24c-0.17-0.28-0.34-0.57-0.51-0.85   c-0.59-0.21-1.85-0.41-2.06,0c-0.24,0.51-0.35,0.85-1.02,0.85c-0.34,0.78-0.93,1.34-0.75,2.21c0.08,0.53,1.08,1.9,1.6,2.06   c0.17,0.4,0.34,0.8,0.51,1.2c0.34,0.4,0.68,0.8,1.03,1.2c0.17,0.51,0.34,1.03,0.51,1.54c0.06,0.17,0.11,0.34,0.17,0.51   c1.02,1.03,2.05,2.05,3.08,3.08c0.28,0.68,0.57,1.37,0.85,2.05c0.23,0.4,0.46,0.8,0.68,1.2c-0.09,0.35-0.23,0.56,0,0.85   c-0.47,0.4-0.9,0.51-0.74,1.15c0.18,0.71,1.12,2.43,1.94,2.43c0.17,0.46,0.34,0.91,0.51,1.37c0.83,1.15,1.67,2.3,2.5,3.44   c0.11,0.54,0.57,0.92,0.92,1.34c0.37,0.44,0.98,1.34,1.03,1.88c0.91,0.8,1.82,1.59,2.73,2.39c0.73,0.69,0.57,1.57,1.15,2.28   c1.88,2.29,3.88,4.22,5.55,6.73c0.27,0.4,0.57,2.05,0.3,2.43c2.4,2.05,2.23,2.47,1.88,5.3c-0.06,0.46-0.04,0.77,0.34,1.03   c-0.1,0.38-0.2,0.77-0.29,1.15c0.55,0.7,1.11,1.4,1.66,2.1c0.13,0.51,0.26,1.02,0.38,1.53c0.38,0.57,0.77,1.14,1.15,1.71   c0.17-0.06,0.34-0.11,0.51-0.17c0.28,0.34,0.57,0.68,0.85,1.03c-0.03,0.38-0.07,0.77-0.1,1.15c0.42,0.52,0.84,1.05,1.25,1.57   c0.39,0.81,0.78,1.62,1.17,2.43c0.21,0.43,0.75,1.01,0.58,1.51c0.52,0.82,1.78,2.39,1.54,3.42c0.36,0.89,1.73,2.7,1.03,3.59   c0.34,0.63,0.68,1.25,1.03,1.88c0,0.59,0.03,1.22,0.51,1.54c-0.2,0.2-0.39,0.4-0.59,0.59c-0.81,0.76-2.13,0.81-3,1.63   c0.08,0.55,0.16,1.1,0.24,1.66c-0.24,0.78-1.45,2.33-0.69,3.24c0.58,0.65,0.78,0.9,1.47,0.41c0.81,0.19,1.4,0.7,1.81,1.42   c0.02,0.04-0.27,0.65-0.27,0.98c0.57,0.72,0.92,1.4,1.2,2.22c-0.09-0.09-0.62-0.35-0.7-0.13c-0.27,1.29,0.17,1.98,1.04,2.86   c0.23,0.23,0.46,0.46,0.68,0.68c0.13,1.01,0.09,2.04,0,3.08c-0.4-0.28-1.01-0.67-1.52-0.45c-0.18,0.09-0.36,0.19-0.53,0.28   c0.09,0.73,0.17,1.45,0.26,2.18c-0.54,0.53-1.08,1.05-1.62,1.58c1.2,1.2,0.34,1.57,0.17,2.9c-0.06,0.43,0.17,0.58,0,1.03   c0.25,0.53,0.62,0.93,0.44,1.51c-0.2,0.35-0.41,0.7-0.61,1.05c0.16,0.8,0.32,1.59,0.48,2.39c0.01,0.06-0.76,3.12,0.19,2.87   c0.9-0.21,1.34-0.93,2.23-0.3c0.46-0.51,0.91-1.03,1.37-1.54c0.48-0.21,0.96-0.42,1.45-0.62c0.16-0.05,0.1-0.52,0.26-0.57   c0.06-0.11,0.35,0.2,0.41,0.09c0.09,0.12,0.17,0.25,0.26,0.37c0.63,0.98,0.62,2.21,1.04,3.31c0.05,0.3,0.06,0.32,0.17,0.51   c0.1,0.36,0.33,0.42,0.68,0.34c0.23,0,0.7-0.59,0.68-0.68c-0.28-0.23-0.75,0.25-0.87,0.29c-0.3,0.1-0.6-0.86-0.25-1.24   c0.54-0.58,0.89-1.71,1.8-1.09c0.14-0.13-0.14-0.56,0-0.68c-0.03-0.1,0.37,0.1,0.34,0c0.13,0.13,0.26,0.26,0.38,0.39   c0.1,0.16,0.2,0.31,0.3,0.46c0.65,0.42,0.98,2.29,1.2,2.9c0.48-0.26,1.21-1.76,1.57-1.41c0.1-0.04,0.21-0.08,0.31-0.12   c0.02,0.06,0.04,0.12,0.06,0.18c0.23,0.75,0.47,1.51,0.7,2.26c0.43,0.27,0.59,0.12,0.77,0.63c0.1-0.23,0.2-0.46,0.3-0.69   c0.28-0.22,0.55-0.16,0.9-0.17c0.4-1,1.24-1.22,1.03-2.39c-0.31-0.92-0.78-1.93-0.51-2.9c-0.32-0.48-1.34-1.92-1.88-1.88   c-0.27-1.14-0.5-2.73,0.17-3.76c-0.11-0.71-0.43-1.18,0.07-1.63c0.25-0.21,0.16-0.73,0.16-0.73c1.38,0.83,2.06,2.28,2.67,3.64   c0.31,0.36,0.63,0.72,0.95,1.08c0.76-0.32,0.73,0.36,0.96-0.65c0.1-0.43,0.16-0.95,0.5-1.2c-0.15-0.43-0.57-1.17-0.33-1.46   c0.19-0.2,0.23-0.12,0.16-0.42c0.75-0.23,1.05-0.41,1.71-0.85c0.04-0.5-0.25-1.69,0.68-1.71c1.53,1.08,3.86,0.32,5.64,0.13   c1.7-0.18,3.34-0.62,5.12-0.81c1.3-0.07,2.6-0.15,3.9-0.22c1.37-0.21,2.74-0.42,4.11-0.62c1.44-1.33,4.87-0.82,6.01-1.76   c0.28,0.13,0.57,0.25,0.85,0.38c1.63-0.9,1.74-1.77,1.91-3.59c0.03-0.34,0.06-1.56,0.48-1.52c0.78,0.11,2.71-0.27,2.92,0.67   c1.03-0.07,3.47-0.1,4.27,0.34c0.28,0,0.57,0,0.85,0c0.44-0.27,1.21-0.95,1.71-0.85c-0.03-0.37-0.14-1.67,0.33-1.73   c0.76-0.01,1.51-0.03,2.27-0.04c0.63-1.1,1.18-2.33,1.45-3.55c0,0,2.32-1.35,1.74-1.6c-1.56-0.68-4.63-1.93-4.59-4.02   c-0.39-0.16-0.65-0.4-1.03-0.17c-0.41-0.5-0.83-1.78-1.54-1.54c-0.4-0.7-1.41-2.8-2.05-2.9c-0.29-1.38-0.66-3.62,0.85-4.44   c0.07-0.5-0.06-0.88,0.34-1.2c-0.03-0.03-0.06-0.06-0.09-0.09c-0.6-0.37-1.19-0.74-1.79-1.11c-0.05-0.53,0.4-1.54-0.17-1.56   c-0.34-0.01-0.6-0.06-0.86,0.2c-0.37,0.62-0.58,1.31-1.27,1.67c0.02,0.18,0.05,0.37,0.07,0.55c-0.06-0.1-0.11-0.21-0.17-0.31   c-0.25-0.47-0.51-0.94-0.76-1.41c-0.2-0.68-0.4-1.36-0.6-2.04c-0.27-0.4-1.62-1.6-2.05-1.54c-0.11-0.34-0.23-0.68-0.34-1.03   c0.06-0.28,0.11-0.57,0.17-0.85c-0.12-0.73-0.24-1.46-0.36-2.18c0.36-0.39,0.18-1.16-0.21-1.48c-0.61-0.47-0.95-0.7-1.27,0.01   c-0.22,0.53-0.5,1.83-0.38,2.46c-0.09,0.17-0.44,1.05-0.57,0.71c-0.44-1.55-0.88-3.09-1.31-4.64c0.18-0.26,0.36-0.52,0.54-0.78   c0.16-0.25,0.32-0.5,0.49-0.75c0.4-0.27,0.8-0.54,1.2-0.82c-0.31-0.46-0.62-0.91-0.93-1.37c0.55-0.77,0.9-1.16,0.58-2.11   c0.2-0.56,0.32-0.39-0.01-0.61c-1.51-1.09-4.35-2.03-5.97-0.73c-0.45,0.43-0.91,0.86-1.36,1.29c-0.38,0.08-1.1,0.51-1.28,0.9   s-0.37,3.04-0.26,3.28c-0.35,0.45-0.71,0.89-1.06,1.34c-0.49,0.74-1.83,2.62-2.49,1.42c0.04-0.58,0.09-1.16,0.13-1.74   c-0.83-0.65-0.88-1.63-1.54-2.39c-0.13-0.7,0.16-1.78-0.68-2.05c0.06-0.63,0.11-1.25,0.17-1.88c0.34-0.34,0.68-0.68,1.03-1.03   c0.28-1.09,0.44-2.07,0.2-3.2c0.37-0.58,0.51-2.08-0.2-2.44c0-1.13-0.83-1.78-1.88-2.22c0.12-0.46,0.81-1.38,0.19-1.59   c-1.58-0.6-2.47-0.5-3.52-2.23c-0.14-0.27-0.28-0.54-0.42-0.81c-0.03-0.6-0.06-1.2-0.09-1.79c0.64-0.61,1.82-3.35,1-4.07   c-0.21-0.23-0.42-0.47-0.62-0.7c-0.36-0.51-1.06-0.54-1.67-0.25c0.19-0.19,0.94-0.77,0.76-0.96c-0.91-0.94-2.02-1.79-3.15-2.46   c-0.72-0.42-1.82-0.51-2.39-0.85c-0.01-0.02-0.03-0.04-0.04-0.05c-0.26-0.35-0.34-0.26-0.3-0.8c-0.28-0.28-0.57-0.57-0.85-0.85   c-0.97-0.28-1.94-0.57-2.9-0.85c-0.06,0.11-0.11,0.23-0.17,0.34c-0.23-0.28-0.46-0.57-0.68-0.85c-0.8,0-2.78-1.2-3.25-0.17   c-0.11-0.15-0.21-0.31-0.32-0.46c-0.51-1.14-1.01-2.27-1.52-3.41c-0.45-1.75-1.21-3.77-2.87-4.68c-0.23-1-0.44-1.75-1.24-2.46   c-0.04-0.69-0.63-1.38-1.19-1.79c-0.32-0.23-0.74-0.49-1.06-0.18c-0.59-0.79-1.46-0.76-2.39-1.03c0-1.48-1.35-1.2-2.39-1.2   c-0.6-0.6-1.09-1.61-1.88-1.71c-0.8-1.38-1.42-3.04-1.71-4.61C407.1,241.98,406.93,241.19,406.76,240.4z"/>
        <radialGradient id="SVGID_5_" cx="264.5408" cy="206.709" r="79.5667" gradientTransform="matrix(-0.0654 -0.9979 0.4989 -0.0327 178.712 477.4439)" gradientUnits="userSpaceOnUse">
            <stop offset="0" style="stop-color:#7492CB"/>
            <stop offset="1" style="stop-color:#FFFFFF"/>
        </radialGradient>
        <path fill-rule="evenodd" clip-rule="evenodd" fill="url(#SVGID_5_)" stroke="#000000" stroke-miterlimit="10" d="M269.04,142.13   c-0.3,0.61-0.68,2.12-1.53,1.21c-0.06-0.12-0.12-0.23-0.18-0.35c0.44-0.77,1.16-1.63,0.8-2.54c-1.07-2.43-1.6-2.01-3.87-2.59   c-1.25,0.43-2.27,1.1-3.49,1.52c-0.7,0.24-1.13-0.03-1.81,0.02c-0.4,0.06-0.8,0.11-1.2,0.17c-0.46,0.3-0.81,0.59-1.37,0.68   c-0.23-0.11-0.46-0.23-0.68-0.34c-1.45,0.56-2.02,0.85-3.59,0.85c-0.51,0.34-1.03,0.68-1.54,1.03c-0.28,0.06-0.57,0.11-0.85,0.17   c-1.12,0.69-2.33,1.17-3.48,1.84c-0.12-0.03-0.24-0.06-0.36-0.1c-0.88,0.5-1.77,1-2.65,1.51c-0.28,0.34-0.57,0.68-0.85,1.03   c-0.32,0.28-0.61,0.51-1.03,0.51c-0.23,0.34-0.46,0.68-0.68,1.03c-0.4,0.23-0.8,0.46-1.2,0.68c-1.22,0.78-2.55,2.7-3.25,3.93   c-0.37,0.67-0.49,1.47-0.51,2.22c-0.23,0.63-0.46,1.25-0.68,1.88c-0.28,0.57-0.57,1.14-0.85,1.71c-0.27,1.31-0.72,2.61-1.3,3.79   c-0.08,0.22-0.16,0.44-0.23,0.66c0.24,1.14,0.25,3,0.73,3.85c0.77,0.99,1.55,1.97,2.32,2.96c0.07,0.29,0.13,0.59,0.2,0.88   c-0.17,1.82,0.4,1.48,0.17,1.71c0,0.72,0.29,0.94-0.17,1.54c-0.28,0.68-0.57,1.37-0.85,2.05c-0.06,0.51-0.11,1.03-0.17,1.54   c-0.39,0.39-0.63,1.13-0.43,1.48c0.51,0.86,1.19,1.03,1.93,1.57c0.6,0.43,0.58,1.11,1.34,1.43c1.15,0.47,2.12,0.02,3.28,0.26   c0.43,0.09,1.04,0.37,1.22,0.73c1.13,0,1.43,0.62,2.22,1.37c0.81,0,1.84,0.42,2.41,0.56c0.45,0.11,0.83-0.01,1.18,0.29   c0.63,0.06,1.25,0.11,1.88,0.17c1.48-0.19,2.6-0.71,3.95,0.28c0.17,0.17,0.35,0.33,0.52,0.5c0.33,0.93,0.66,1.87,0.99,2.8   c0.23,0.4,0.46,0.8,0.68,1.2c-0.06,0.46-0.11,0.91-0.17,1.37c0.06,0.43,0.72,1.6,0.72,1.67c0,0.45,0.39,2.51,0.65,2.78   c-0.04,1.23,0.36,4.29,1.2,5.13c0.55,0.38,1,0.17,1.71,0.17c-0.3,0.3-0.17,0.94-0.17,1.37c-0.39,0.39-0.68,0.95-0.68,1.54   c-0.94,0.94-0.85,2.48-1.6,3.49c-0.09,0.15-0.19,0.29-0.28,0.44c-0.13-0.28-0.23-0.49-0.46-0.19c-0.19,0.52-0.37,1.04-0.56,1.55   c-0.57,1.08-1.14,2.16-1.71,3.25c-0.75,0.76-1.51,1.52-2.26,2.29c-0.54,0.97-1.32,2.63-1.47,3.67c-0.18,0.06-0.36,0.13-0.54,0.19   c-0.23,0.34-0.46,0.68-0.68,1.03c-0.03,0.41,0.12,0.71-0.17,1.03c0.27,0.91,0.65,1.69,0.71,2.63c-0.14,0.39-0.28,0.77-0.42,1.16   c-0.04,0.62-0.08,1.24-0.12,1.85c-0.46,0.57-0.91,1.14-1.37,1.71c-1.94,0.83-3.67,2.36-5.64,2.9c-2.01,2.43-3.42,5.36-3.27,8.55   c0.01,0.74,0.02,1.47,0.03,2.21c-0.11,0.74-0.23,1.48-0.34,2.22c0.02,0.36,0.21,0.87,0.51,1.03c0.23,0.8,0.46,1.59,0.68,2.39   c0.73,1.29,2.23,2.46,3.76,2.56c0.35-0.12,0.7-0.23,1.06-0.35c0.33,0.07,0.66,0.13,0.98,0.2c0.77,0.12,1.86-1.37,2.45-0.46   c0.26,0.45,0.47,0.58,0.41,1.11c0.02,0.17,0.04,0.35,0.06,0.52c-0.34,0.23-0.68,0.46-1.03,0.68c0.17,0.56,0.17,0.95,0.17,1.54   c-0.2,0.54-0.4,1.09-0.6,1.63c0.7,0.74,1.65,1.03,2.14,1.96c0.11,1.03,0.23,2.05,0.34,3.08c0.34,0.4,0.68,0.8,1.03,1.2   c0,0.84-0.29,1.39,0.17,2.22c0.38,0,0.9-0.06,1.2,0.17c0.11-0.23,0.09-0.4,0.31-0.24c0.46,0.59,0.92,1.18,1.37,1.76   c1.49,0.06,2.98,0.12,4.46,0.19c0.28-0.23,0.57-0.46,0.85-0.68c-0.41,0.41-1.57,0.48-1.48,1.01c0.15,0.46,0.31,0.92,0.46,1.38   c-0.76,0.68-0.11,1.27-0.51,1.88c0.17,0.46,0.34,0.91,0.51,1.37c0.42,0.55,0.85,1.1,1.27,1.64c0.42,0.72,0.84,1.44,1.26,2.16   c0.44,0.27,0.87,0.53,1.31,0.8c0.52,0.39,0.33,0.86,0.68,0.95c1.18,0.36,2.66-0.77,4.02-0.77c0.25-0.22,0.51-0.45,0.76-0.67   c0.56-0.74,0.56-1.84,1.29-2.57c0.34,0,1.77-0.66,1.8-0.75c0.14-0.72,0.28-1.43,0.42-2.15c0.29-0.43,0.57-0.85,0.86-1.28   c0.23-0.6,0.45-1.2,0.68-1.79c-0.28-0.46-0.57-0.91-0.85-1.37c-0.17-2.22-0.34-4.44-0.51-6.66c0.11-0.68,0.23-1.37,0.34-2.05   c0.35-0.53,0.69-1.06,1.04-1.6c0.49-0.17,0.67-0.81,1.06-1.19c0.82-0.82,1.73-1.56,1.98-2.72c0.39-0.57,0.78-1.14,1.17-1.7   c0.18-0.27,0.35-0.54,0.53-0.81c0.54-0.67,1.26-0.14,1.37-1.22c0.12-0.51,0.25-1.02,0.37-1.53c-0.06-0.4-0.11-0.8-0.17-1.2   c0-0.26,0.05-0.68,0.34-0.68c0.63-0.05,2.24,0.16,2.19-0.7c-0.01-0.4-0.02-0.8-0.03-1.2c-0.38-0.05-0.75-0.1-1.13-0.15   c0.57-0.06,1.14-0.11,1.71-0.17c0.57-0.4,1.14-0.8,1.71-1.2c0.47-0.56,0.92-1.34,1.54-1.54c-0.06-0.34-0.11-0.68-0.17-1.03   c0.74-0.74,0.72-1.56,1.2-2.39c-0.06-0.74-0.11-1.48-0.17-2.22c0.98-0.98,2.18-4.04,1.88-5.3c-0.39-0.58-0.26-1.22-1.03-1.2   c0-0.74,0-1.48,0-2.22c-0.87-0.77-2.12-1.35-2.49-2.47c-0.27-0.8-0.44-1.64-0.24-2.48c-0.39-0.5-0.94-1.09-1.04-1.77   c-0.06-0.43-0.28-1.04-0.67-1.31c-0.1-1.03-0.39-3.1,0.51-3.76c-0.04-0.43-0.18-0.81,0-1.2c-0.4-0.46-0.8-0.91-1.2-1.37   c-0.11-0.34-0.23-0.68-0.34-1.03c-0.19-0.82-0.51-3-1.2-3.42c0-1-0.09-1.72-0.68-2.56c0.28-1.51,0.56-3.03,0.83-4.54   c0.37-0.46,0.75-1.9,0.49-2.26c-0.36-0.5-0.95-1.57-1.66-1.57c-0.57-0.68-1.14-1.37-1.71-2.05c-0.52-1.21-1.27-2.73-2.39-3.42   c-0.09-0.47-0.1-0.89-0.51-1.2c-1.61-1.2-3.48-2.02-5.3-2.88c-0.64-0.3-1.45-0.97-2.22-0.7c-0.85-0.55-1.54-1.08-2.61-0.98   c-0.61-0.47-1.22-0.94-1.83-1.41c-0.32,0.8-0.47,0.76-1.36,0.88c-0.57-0.07-1.15-0.13-1.72-0.2c-0.8,0.17-1.59,0.34-2.39,0.51   c-0.33-0.33-1.66-1.11-1.28-1.66c0.39-0.51,0.78-1.14,1.45-1.07c0.42-0.56,0.73-1.02,1.2-1.54c0.06-0.34,0.11-0.68,0.17-1.03   c-0.51-0.28-1.03-0.57-1.54-0.85c0.21-0.16,0.24-0.25,0.51-0.17c0.17-0.23,0.34-0.46,0.51-0.68c-0.55-1.15,2.64-3.93,2.22-5.3   c0.29-0.44,0.5-1.1,1.03-1.2c0.04-0.71-0.01-1.68,0.85-1.88c0.2-0.59,0.41-1.88,0.85-2.22c-0.18-0.78-0.52-1.6-0.17-2.39   c-0.38-0.38-0.56-1.67-0.51-2.22c0.1-1.04,0.68-1.83,0.68-2.9c0.57-0.85,1.14-1.71,1.71-2.56c0.7-0.72,1.68-1.74,1.88-2.73   c0.2-1.01,1.92-2.96,1.88-3.93c0.56-0.76,1.38-1.73,1.37-2.73c-0.01-0.6,0.48-1.57,0-2.05   C270.24,142.67,269.55,142.13,269.04,142.13z"/>
        <path fill-rule="evenodd" clip-rule="evenodd" fill="none" stroke="#000000" stroke-miterlimit="10" d="M364.17,106.13   c-1.89-3.08-5.43-6.44-5.9-9.99c-0.46-3.41-2.5-9.33,0.78-11.07c3.29-1.74,8.1-1.86,11.06-3.75c2.9-1.85,5.61-5.67,7.15-8.49   c0.38-0.7,0.69-1.61,1.06-2.28c1.34-0.95,4.54-3.11,5.12-4.36c0.23-0.11,0.44,0,0.68-0.09c0.96-1.37,3.08-1.99,4.66-2.52   c1.91-0.64,3.39-1.45,5.13-2.31c3.26-1.61,6.7-3.87,9.49-6.34c6.07-5.37,13.3-10.53,20.25-15.5c6.33-4.53,12.95-8.92,18.11-14.87   c3.46-4,3.97-6.27,0.76-10.63c-2.37-3.22-4.82-6.36-7.36-9.54c-0.36-0.45-0.88-1.01-1.28-1.54"/>
        <path fill-rule="evenodd" clip-rule="evenodd" fill="none" stroke="#000000" stroke-miterlimit="10" d="M386.21,405.72   c3.55,6.8,5.81,14.34,12.36,19.41c6.98,5.4,17.02,7.51,25.83,8c4.37,0.24,8.54,1.51,13.07,1.29c4.32-0.21,8.34-1.02,12.81-1.02   c4.65,0,8.23,0.94,12.57-0.71c3.6-1.37,9.32-1.21,11.59-4.67c0.69-1.06,0.33-2.8,1.71-3.55c0.94-0.51,3.73,0.13,4.64,0.46   c2.34,0.87,5.42,2.42,7.41,3.81c2.15,1.5,4.09,3.66,5.7,5.63c1.97,2.4,4.28,4.3,6.09,6.72"/>
        <path fill-rule="evenodd" clip-rule="evenodd" fill="none" stroke="#000000" stroke-miterlimit="10" d="M274.22,421.87   c-0.4,2.04-1.33,3.7-1.54,5.89c-0.19,1.99-0.55,4.12-0.75,6.16c-0.19,1.88,0,4.17-0.27,6.14c-0.26,1.86-1.22,3.5-1.86,5.32   c-1.4,3.99-2.54,7.45-5.13,11.01c-1.48,2.03-4.85,7.85-7.16,8.99c-1.59,0.78-4.85-0.21-6.61-0.21c-2.07,0.01-4.36-0.29-6.41,0   c-4.21,0.6-6,4.73-10.76,5.13c-2.59,0.21-4.11-0.97-6.39-1.55c-1.95-0.5-4.14-0.31-6.16-0.74c-4.11-0.87-8.36-0.94-12.56-1.55   c-4.39-0.64-8.69-2.33-13.07-2.56c-4.45-0.24-9.13-0.23-13.58,0c-8.43,0.43-15.42-4.21-22.37-8.7   c-6.96-4.5-12.77-10.68-21.14-12.89c-3.81-1-8.08-1.13-12.1-1.72c-4.14-0.61-7.35-2.03-11.79-1.81c-3.49,0.17-7.39,0.11-10.82,0.46   c-3.46,0.35-7.94-0.05-11.23,1.07c-3.03,1.03-5.8,2.56-8.97,3.34c-3.25,0.8-7.08,1.23-9.47,3.59"/>
        <path fill-rule="evenodd" clip-rule="evenodd" fill="none" stroke="#000000" stroke-miterlimit="10" d="M67.66,291.68   c-0.43,2.69-9.23,3.06-11.54,2.37c-1.82-0.54-3.32-2.04-5.12-2.64c-1.75-0.58-3.81-0.97-5.64-1.27c-4.29-0.7-8.17,0.41-12.3,1.01   c-4.1,0.6-7.96,1.02-11.55,3.08c-1.36,0.78-2.51,2.21-3.79,2.62c-2.39,3.05-5.38,6.59-6.9,10.01c-1.81,4.06-4.97,7.83-5.23,12.46   c-2.14,0.17-3.64-0.87-5.6-1.24"/>
        <text transform="matrix(0.7064 -0.7079 0.7079 0.7064 72.0513 144.0745)" font-family="'MyriadPro-Regular'" font-size="12">AFYONKARAHİSAR</text>
        <text transform="matrix(0.2123 -0.9772 0.9772 0.2123 477.6389 246.6152)" font-family="'MyriadPro-Regular'" font-size="12">KONYA</text>
        <text transform="matrix(0.9582 -0.2862 0.2862 0.9582 322.0171 465.4514)" font-family="'MyriadPro-Regular'" font-size="12">ANTALYA</text>
        <text transform="matrix(0.644 0.765 -0.765 0.644 109.8142 371.9153)" font-family="'MyriadPro-Regular'" font-size="12">BURDUR</text>
    </g>
    <g id="__Harita" fill="white" stroke="#000000" stroke-width="1" stroke-miterlimit="10" display="none">
        <rect id="__cer" x="0" y="0" fill="#000000" opacity="0" width="500" height="470"/>
        <g id="__Sütçüler">
            <path d="M265.46,412.26    c0.23,0.27,0.46,0.54,0.68,0.82c0.06,0.18,0.11,0.37,0.17,0.55c1.66,0.86,3.17,1.64,4.53,2.98c0.79,0.78,1.09,1.72,1.62,2.66    c0.4,0.51,0.8,1.03,1.2,1.54c2.49,1.6,7.2,2.93,10.18,2.59c1.35-0.15,3.07-0.58,4.17-1.4c0.4-0.23,0.79-0.45,1.19-0.68    c0.97-0.29,1.94-0.57,2.91-0.86c0.59-0.13,1.1-0.36,1.7-0.28c2.06,0.26,4.89,1.51,6.5,2.68c1.08,0.57,2.16,1.14,3.25,1.71    c0.93,0.55,2.29,0.08,3.2-0.21c0.71-0.24,1.42-0.48,2.13-0.72c1.81-0.77,3.62-1.54,5.43-2.32c0.8-0.4,1.59-0.8,2.39-1.2    c1.19-1.44,2.78-2.76,4.52-3.49c1.4-0.6,2.8-1.2,4.2-1.8c4.84-1.06,9.61-2.35,14.52-3.25c0.85-0.28,1.71-0.57,2.56-0.85    c1.03-0.36,2.07-0.73,3.1-1.09c1.36-0.32,2.72-0.64,4.07-0.96c1-0.24,2.76-1.01,3.76-0.51c2.12-0.85,4.23-1.71,6.35-2.56    c1.82-0.25,3.58-1.23,5.44-1.54c2.33-0.51,4.67-1.02,7.01-1.54c1.65,0.11,3.3,0.23,4.95,0.34c0.72,0.22,1.45,0.43,2.17,0.65    c1.73,0.52,3.46,1.04,5.2,1.55c0.69,0.3,0.75,0.27,1.13,0.57c0.02,0.05,0.69,0.17,0.94,0.15c0.11-0.34-0.35-2.44-0.48-3.63    c-0.15-2.22-0.29-4.43-0.44-6.65c-0.05-1.88-0.1-3.76-0.15-5.64c0.11-0.97,0.23-1.94,0.34-2.9c-0.06-2.05-0.11-4.1-0.17-6.15    c-0.46-4.33-0.91-8.66-1.37-12.99c-0.07-2.17-0.61-4.41-0.91-6.49c-0.24-1.72-0.47-3.43-0.71-5.15c-0.31-1.93-0.63-3.86-0.95-5.79    c-1.06,1.06-1.36,1.71-1.96,3.04c-0.14,0.3-0.28,0.59-0.43,0.89c-0.33,0.48-0.67,0.96-1,1.44c-0.25,1.01-0.91,2-1.74,2.66    c-1.06,0.85-2.33,1.37-3.59,1.71c-1.09,0.46-2.19,0.93-3.28,1.39c-1.58,0.22-3.16,0.45-4.74,0.67c-0.63-0.06-1.26-0.12-1.89-0.18    c-0.63-0.4-1.25-0.8-1.88-1.2c-0.93-0.21-1.6-0.52-2.39-1.03c-0.57-0.37-0.5-1.18-1.2-1.37c-0.11-0.51-0.23-1.03-0.34-1.54    c-0.23-0.34-0.46-0.68-0.68-1.03c0-1.22-1.3-3.02-2.01-4.01c-0.64-0.77-1.28-1.54-1.92-2.31c-1.1-0.81-2.53-1.55-3.08-2.9    c-0.91-0.57-1.82-1.14-2.73-1.71c-0.8-0.74-1.59-1.48-2.39-2.22c-0.8-0.46-1.59-0.91-2.39-1.37c-0.97-0.68-1.94-1.37-2.9-2.05    c-0.34-0.51-0.68-1.02-1.03-1.54c-1.86-1.54-4.02-1.93-5.47-3.93c0-0.52-0.41-0.82-0.62-1.23c-0.35-0.67-0.55-1.12-1.09-1.68    c-0.11-0.4-0.23-0.8-0.34-1.2c-0.15-0.25-0.31-0.49-0.46-0.74c-0.52-1.73-1.63-3.44-2.76-4.79c-0.67-0.8-1.69-1.64-2.08-2.68    c-0.51-0.34-1.03-0.68-1.54-1.03c-0.8-0.7-1.98-1.93-3.08-2.05c-0.8-0.51-1.59-1.03-2.39-1.54c-0.4-0.06-0.8-0.11-1.2-0.17    c-0.74-0.28-1.48-0.57-2.22-0.85c-0.76-0.31-3.44-1.74-4.1-1.54c-0.4-0.2-0.81-0.28-1.03-0.68c-1.03-0.06-2.05-0.11-3.08-0.17    c-0.85,0.23-1.71,0.46-2.56,0.68c-0.74,0.4-1.48,0.8-2.22,1.2c-0.58,0.72-1.74,2.06-1.37,3.08c-0.65,1.04-0.95,2.11-1.37,3.25    c-1.29,3.5-2.21,6.86-3.43,10.41c-0.56,1.54-1.13,3.08-1.69,4.62c-1.43,2.04-3.13,2.28-4.96,3.76c-0.73-0.13-1.59-0.01-2.22,0.51    c-0.51,0.06-1.03,0.11-1.54,0.17c-1.2,0.46-2.39,0.91-3.59,1.37c-1.4,0.31-2.81,0.61-4.21,0.92c-1.73,0.49-3.46,0.98-5.18,1.47    c-0.92,0.92-1.97,1.98-2.39,3.25c-0.34,0.28-0.68,0.57-1.03,0.85c-0.85,0.97-1.71,1.94-2.56,2.9c-0.47,0.75-0.94,1.5-1.41,2.25    c-0.44,0.28-0.88,0.55-1.32,0.83c-0.09,0.56-0.19,1.13-0.28,1.69c-0.35,1.39-1.03,2.86-1.82,4.1c-0.44,0.52-0.88,1.04-1.32,1.56    c-0.34,0.63-0.68,1.25-1.03,1.88c-0.85,1.03-1.71,2.05-2.56,3.08c-0.74,1.08-1.48,2.16-2.22,3.25c-0.33,0.5-1.32,1.6-1.88,1.71    c-0.46,0.51-0.91,1.03-1.37,1.54c-1.65,1.37-3.3,2.73-4.95,4.1c-0.58,0.56-1.9,1.84-1.9,2.58c-0.11,0.05-0.22,0.1-0.33,0.16    c0.05,0.06,0.1,0.12,0.15,0.18c0.13,0.16,0.26,0.31,0.39,0.47c0.74,0.87,1.48,1.74,2.22,2.61c1.47,2.05,2.94,4.09,4.42,6.14    c1.14,1.65,2.28,3.3,3.42,4.96c0.34,0.17,0.65,0.82,0.97,1.08c0.23,0.28,0.28,0.8,0.51,1.08l0.53,0.22    c0.1,0.33,0.2,0.66,0.29,0.99c0.45,0.22,0.7,0.54,0.6,1.06c0.55,0.69,1.11,1.38,1.66,2.08c0.4,0.61,0.8,1.49,1.59,1.34    c0.05,0.48-0.07,0.34,0.51,0.68c-0.18,0.04-0.36,0.09-0.54,0.13c-0.32,0.38-0.64,0.75-0.96,1.13l1.89,2.59    c0.28,0.34,0.46,0.01,0.38-0.31c-0.09-0.21-0.17-0.43-0.26-0.64c0.12-0.56,0.42-1.1,0-1.54c0.17-0.44,0.4-0.57,0.17-1.03    c0.37-0.42,0.8-1.24,1.37-1.03c0.44-0.88,0.8-2.22,1.88-2.39c0.1-0.56,0.5-1.97,1.03-1.71c0.41,0.19,1.03,0.17,1,0.65    c0.29,0.31-0.07,1.41,0.06,1.39c0.21,0,0.43,0,0.64,0.01c0-0.96,0.9-1.03,1.71-1.03c0.17-0.1,0.33-0.2,0.5-0.29    c0.12,0.04,0.24,0.08,0.36,0.12c-0.28,0.57-0.57,1.14-0.85,1.71c-0.28,1.14-0.57,2.28-0.85,3.42c-0.28,0.23-0.57,0.46-0.85,0.68    c0.05,0.52,0.34,2.71-0.09,2.96c-0.5,0.31-0.82,0.62-1.45,0.46c-0.02,0.05-0.04,0.1-0.05,0.15c-0.43,1.37-0.74,1.76-1.43,2.98    L265.46,412.26z"/>
            <circle cx="290.62" cy="384.2" r="1.586"/>
        </g>
        <g id="__Aksu">
            <path d="M381.81,350.41    c-1.06,1.06-1.36,1.71-1.96,3.04c-0.14,0.3-0.28,0.59-0.43,0.89c-0.33,0.48-0.67,0.96-1,1.44c-0.25,1.01-0.91,2-1.74,2.66    c-1.06,0.85-2.33,1.37-3.59,1.71c-1.09,0.46-2.19,0.93-3.28,1.39c-1.58,0.22-3.16,0.45-4.74,0.67c-0.63-0.06-1.26-0.12-1.89-0.18    c-0.63-0.4-1.25-0.8-1.88-1.2c-0.93-0.21-1.6-0.52-2.39-1.03c-0.57-0.37-0.5-1.18-1.2-1.37c-0.11-0.51-0.23-1.03-0.34-1.54    c-0.23-0.34-0.46-0.68-0.68-1.03c0-1.22-1.3-3.02-2.01-4.01c-0.64-0.77-1.28-1.54-1.92-2.31c-1.1-0.81-2.53-1.55-3.08-2.9    c-0.91-0.57-1.82-1.14-2.73-1.71c-0.8-0.74-1.59-1.48-2.39-2.22c-0.8-0.46-1.59-0.91-2.39-1.37c-0.97-0.68-1.94-1.37-2.9-2.05    c-0.34-0.51-0.68-1.02-1.03-1.54c-1.86-1.54-4.02-1.93-5.47-3.93c0-0.52-0.41-0.82-0.62-1.23c-0.35-0.67-0.55-1.12-1.09-1.68    c-0.11-0.4-0.23-0.8-0.34-1.2c-0.15-0.25-0.31-0.49-0.46-0.74c-0.52-1.73-1.63-3.44-2.76-4.79c-0.67-0.8-1.69-1.64-2.08-2.68    c-0.51-0.34-1.03-0.68-1.54-1.03c-0.8-0.7-1.98-1.93-3.08-2.05c-0.8-0.51-1.59-1.03-2.39-1.54c-0.4-0.06-0.8-0.11-1.2-0.17    c-0.74-0.28-1.48-0.57-2.22-0.85c-0.76-0.31-3.44-1.74-4.1-1.54l0.34-1.03c0.09-0.52,0.18-1.03,0.27-1.55    c0.02-0.68,0.05-1.36,0.07-2.04c0.05-1.6,0.83-3.11,1.19-4.61c0.23-0.91,0.46-1.82,0.68-2.73c0.51-0.68,1.03-1.37,1.54-2.05    c0.23-0.51,0.46-1.03,0.68-1.54c0.78-1.08,1.2-2.02,1.65-3.27c0.21-0.54-0.96-0.63-1.3-0.7c-1.54-0.04-3.08-0.09-4.62-0.13    c-2.96-0.17-5.92-0.34-8.88-0.51c-1.5-0.33-2.91-0.71-4.44-0.85c-1.59-0.68-3.19-1.37-4.78-2.05c-0.93-0.93-1.53-3.94-0.51-4.96    c0-1.78,0.64-3.18,1.71-4.61c0.52-0.7,0.7-1.72,0.85-2.56c0.57-0.63,1.14-1.25,1.71-1.88c0.46-0.23,0.91-0.46,1.37-0.68    c0.68-0.06,1.37-0.11,2.05-0.17c1.02,0.17,2.05,0.34,3.08,0.51c1.67-0.13,3.35-0.26,5.02-0.39c1.48-0.47,2.93-1.41,4.04-2.51    c0.69,0.12,1.53-0.63,2.07-0.99c1.22-0.92,2.43-1.84,3.65-2.76c0.43-0.46,0.86-0.92,1.29-1.38c0.46-0.17,0.91-0.34,1.37-0.51    c0.51-0.28,1.03-0.57,1.54-0.85c1.54-1.37,3.51-1.86,5.3-2.73c0.8-0.51,1.59-1.03,2.39-1.54c2.33-2.01,4.32-2.18,7.01-3.42    c0.42-0.33,0.84-0.67,1.25-1c0.85-0.63,3.42-2.76,4.39-2.76c0.55,0,0.46,0.14,0.68,0.51c0.6,1.03,2.25,2.31,2.89,3.58    c0.67,1.31,2.02,2.87,3.09,3.94c0.52,0.62,1.04,1.24,1.55,1.86c1.32,1.52,2.29,2.71,3.4,4.37c0.6,0.6,1.1,1.03,1.54,1.45    c0.22,0.35,0.94,1.89,1.16,2.23c0.58,0.75,1.16,1.5,1.74,2.25c0.29,0.61,0.57,1.22,0.86,1.84c0.34,0.8,0.68,1.59,1.03,2.39    c0.56,0.36,0.66,0.86,1.03,1.37c0.68,0.85,1.37,1.71,2.05,2.56c0.57,0.91,1.14,1.82,1.71,2.73c0.9,0.92,1.71,2.11,1.71,3.42    c0.63,1.2,1.25,2.39,1.88,3.59c0.06,0.51,0.11,1.03,0.17,1.54c0.47,0.29,0.44,1.03,0.58,1.52c0.35,1.27,0.79,2.43,0.79,3.77    c0.56,0.56,0.39,3.31,0.62,4.24c0.13,0.69,0.27,1.39,0.4,2.08c0,0.63,0,1.25,0,1.88c0.97,2.71,1.94,5.42,2.9,8.13    c0.72,1.82,1.55,2.27,2.9,3.49c0.74,0.69,1.48,1.37,2.22,2.06c1.2,0.8,2.4,1.59,3.59,2.39c0.17,0.35,0.35,0.69,0.52,1.04    c0.23,0.51,0.06,1.29-0.35,1.7c-0.57,1.54-1.14,3.08-1.71,4.61c-0.59,4.07-0.87,8.35-0.67,12.47    C381.36,346.88,381.59,348.64,381.81,350.41z"/>
            <circle cx="314.45" cy="287.84" r="1.586"/>
        </g>
        <g id="__Yenişarbademli">
            <path d="M383.87,326.33    c-0.17-0.35-0.35-0.69-0.52-1.04c-1.2-0.8-2.4-1.59-3.59-2.39c-0.74-0.69-1.48-1.37-2.22-2.06c-1.36-1.22-2.18-1.66-2.9-3.49    c-0.97-2.71-1.94-5.42-2.9-8.13c0-0.63,0-1.25,0-1.88c-0.13-0.69-0.27-1.39-0.4-2.08c-0.24-0.93-0.06-3.68-0.62-4.24    c0-1.34-0.45-2.5-0.79-3.77c-0.13-0.49-0.11-1.23-0.58-1.52c-0.06-0.51-0.11-1.03-0.17-1.54c-0.63-1.2-1.25-2.39-1.88-3.59    c0-1.31-0.81-2.5-1.71-3.42c-0.57-0.91-1.14-1.82-1.71-2.73c-0.68-0.85-1.37-1.71-2.05-2.56c-0.36-0.5-0.46-1-1.03-1.37    c-0.34-0.8-0.68-1.59-1.03-2.39c-0.29-0.61-0.57-1.22-0.86-1.84c-0.58-0.75-1.16-1.5-1.74-2.25c-0.22-0.35-0.94-1.89-1.16-2.23    l0.13-0.01c0.46-0.67,1.5-0.76,2-0.93c0-0.27,0.28-0.26,0.6-0.26c0.42,0,0.6,0.26,1.37,0.17c0.74-0.06,1.48-0.11,2.22-0.17    c0.97-0.09,4.41,0.03,5.04-0.6c3.19-0.06,5.78-0.2,8.97-0.26c0.74,0.11,3.87,0.31,4.61,0.43c1.54-0.23,1.71-0.63,3.25-0.85    c0,0,0.64,0.84,1.47,1.99c0.11,0.54,0.57,0.92,0.92,1.34c0.37,0.44,0.98,1.34,1.03,1.88c0.91,0.8,1.82,1.59,2.73,2.39    c0.73,0.69,0.57,1.57,1.15,2.28c1.88,2.29,3.88,4.22,5.55,6.73c0.27,0.4,0.57,2.05,0.3,2.43c2.4,2.05,2.23,2.47,1.88,5.3    c-0.06,0.46-0.04,0.77,0.34,1.03c-0.1,0.38-0.2,0.77-0.29,1.15c0.55,0.7,1.11,1.4,1.66,2.1c0.13,0.51,0.26,1.02,0.38,1.53    c0.38,0.57,0.77,1.14,1.15,1.71l0.17,0.51c-0.18,1.24,0,2.35,0,3.59c0.03,0.92,0.05,1.84,0.08,2.76c0.2,1.53,0.4,3.06,0.6,4.59    c0.8,0.93,0.89,2.02,1.07,3.23c0.1,0.7,0.49,2.38-0.04,2.92c0,0.31-0.72,0.51-1.03,0.51c-0.45,0.45-3.49,0.5-4.29,0.59    c-2.5,0.49-5,0.97-7.5,1.46c-1.37,0.57-2.73,1.14-4.1,1.71c-0.98,0.98-2.56,3.25-3.42,4.19L383.87,326.33z"/>
            <circle cx="396.72" cy="312.44" r="1.586"/>
        </g>
        <g id="__Yalvaç">
            <path d="M256.14,180.62    c0.39-0.51,0.78-1.14,1.45-1.07c0.42-0.56,0.73-1.02,1.2-1.54c0.06-0.34,0.11-0.68,0.17-1.03c-0.51-0.28-1.03-0.57-1.54-0.85    c0.21-0.16,0.24-0.25,0.51-0.17c0.17-0.23,0.34-0.46,0.51-0.68c-0.55-1.15,2.64-3.93,2.22-5.3c0.29-0.44,0.5-1.1,1.03-1.2    c0.04-0.71-0.01-1.68,0.85-1.88c0.2-0.59,0.41-1.88,0.85-2.22c-0.18-0.78-0.52-1.6-0.17-2.39c-0.38-0.38-0.56-1.67-0.51-2.22    c0.1-1.04,0.68-1.83,0.68-2.9c0.57-0.85,1.14-1.71,1.71-2.56c0.7-0.72,1.68-1.74,1.88-2.73c0.2-1.01,1.92-2.96,1.88-3.93    c0.56-0.76,1.38-1.73,1.37-2.73c-0.01-0.6,0.48-1.57,0-2.05c0-0.49-0.69-1.03-1.2-1.03c-0.3,0.61-0.68,2.12-1.53,1.21    c-0.06-0.12-0.12-0.23-0.18-0.35c0.44-0.77,1.16-1.63,0.8-2.54c-1.07-2.43-1.6-2.01-3.87-2.59c-1.25,0.43-2.27,1.1-3.49,1.52    c-0.7,0.24-1.13-0.03-1.81,0.02c-0.4,0.06-0.8,0.11-1.2,0.17c-0.46,0.3-0.81,0.59-1.37,0.68c-0.23-0.11-0.46-0.23-0.68-0.34    c-1.45,0.56-2.02,0.85-3.59,0.85c-0.51,0.34-1.03,0.68-1.54,1.03c-0.28,0.06-0.57,0.11-0.85,0.17c-1.12,0.69-2.33,1.17-3.48,1.84    c-0.12-0.03-0.24-0.06-0.36-0.1c-0.88,0.5-1.77,1-2.65,1.51c-0.28,0.34-0.57,0.68-0.85,1.03c-0.32,0.28-0.61,0.51-1.03,0.51    c0.61-0.61,0.66-0.87,0.77-1.7c0.09-0.23,0.17-0.46,0.26-0.69c-0.34-0.8-0.68-1.59-1.03-2.39c-0.06-0.68-0.11-1.37-0.17-2.05    c-0.23-0.97-0.46-1.94-0.68-2.9c-0.73-1.99-1.45-3.98-2.18-5.97l0.13-0.01c0.19-0.25,0.38-0.5,0.57-0.75    c2.61-2.61,5.7-3.78,6.95-7.62c0.57-1.77,0.43-3.47,0.51-5.3c0.17-1.03,0.33-2.05,0.5-3.08c0.2-0.92,0.38-2.17,1.04-2.9    c0.8-0.63,1.59-1.25,2.39-1.88c0.68-0.17,1.37-0.34,2.05-0.51c1.24-0.15,2.47-0.29,3.71-0.44c0.79-0.63,2.06-2.17,1.76-3.32    c1.25-1.54,2.51-3.08,3.76-4.61c0.62-0.35,1.24-0.7,1.86-1.05c3.89-2.15,8.48-2.26,12.84-2.97c1.01-0.17,2.03-0.34,3.04-0.51    c2.06-0.99,4.12-1.99,6.18-2.98c1.15-0.98,1.98-1.81,2.05-3.42c-0.06-0.68-0.11-1.37-0.17-2.05c0.49-1.55,0.98-3.1,1.46-4.65    c1.12-2.38,2.59-4.16,4.52-5.94c0.46-0.46,0.91-0.91,1.37-1.37c0.51-0.8,1.03-1.59,1.54-2.39c0.3-1.29,0.27-2.66,1.11-3.74    c0.65-0.58,1.31-1.15,1.96-1.73c0.7,0,1.52-0.87,2.41-0.97c1.42-0.06,2.83-0.12,4.25-0.18c0.97,0.04,1.94,0.08,2.91,0.12    c0.28,0.28,1.13,0.23,1.54,0.17c1.1-0.16,1.82-0.83,2.9-1.03c1.14-0.11,2.28-0.23,3.42-0.34c1.15,0.03,1.67,0.46,2.73,0.68    c1.65,0.14,3.3,0.28,4.94,0.42c0.86,0.14,1.72,0.29,2.57,0.43c1.33,0.89,1.53,1.8,2.39,3.08c0.28,0.51,0.57,1.03,0.85,1.54    c0.46,0.46,0.91,0.91,1.37,1.37c-0.15,0.99,1.78,3.83,2.43,4.93c0.56,0.81,1.11,1.61,1.67,2.42c0.35,0.51,0.7,1.01,1.05,1.52    c0.85,0.92,1.69,1.84,2.54,2.76c2.07,1.48,4.57,2.67,6.15,4.78c0.43,0.58,0.38,1.56,1.03,1.88c0.07,0.94,0.14,1.89,0.21,2.84    c0.27,0.99,0.54,1.98,0.82,2.97c0.54,1.32,1.08,2.63,1.62,3.95c0.26,0.39,0.51,0.78,0.77,1.17c1.65,1.42,3.3,2.85,4.95,4.27    c1.42,0.23,2.85,0.46,4.27,0.68c0.63,0.19,2.79-0.06,3.08,0.17c0.4-0.28,0.8-0.57,1.2-0.85c0.42-0.04,1.44-0.19,1.64,0.2    c1.81,3.61,1.35,7.79,1.79,11.76c0.16,1.45,0.89,2.65,1.16,4.04c0.46,1.04,0.92,2.09,1.38,3.13c0.4,0.63,0.8,1.26,1.21,1.88    c0.78,1.08,2.23,1.48,3.09,2.34c0.82,0.62,1.65,1.25,2.47,1.87c0.88,0.53,1.76,1.06,2.64,1.59c2.51,1.79,4.91,3.65,7.52,5.3    c1.2,0.85,2.4,1.7,3.59,2.55c0.5,0.44,1.18,1.25,1.87,1.21c2.85,3.64,5.7,7.29,8.54,10.94c0.17,0.23,0.34,0.46,0.51,0.68    l0.51,0.68c-0.04,0.19-0.11,0.36-0.13,0.6c-0.74,1.25-1.35,2.42-2.09,3.67c-0.28,0.85-0.57,1.71-0.85,2.56    c-0.65,1-1.31,2.01-1.96,3.01c0.2,0.56-1.37,3.43-1.79,3.99c-1.38,1.84-3.45,3.23-5.49,4.22c-2.22,1.08-4.39,1.5-6.79,1.91    c-0.86,0.18-1.72,0.35-2.58,0.53c-0.64-0.02-2.66-0.28-3.08-0.68c-1.87,0.5-3.44,1.46-5.47,1.2c-0.99,0.67-1.98,1.34-2.97,2.01    c-0.54,0.29-1.29,0.35-1.64,0.89c-2.56,1.08-5.13,2.16-7.69,3.25c-1.36,0.25-2.72,0.51-4.07,0.76c-2.05,0.44-3.79,1.67-5.5,2.81    c-0.57,0.4-1.14,0.8-1.7,1.21c-1.31,0.68-2.19,0.94-3.5,1.62l-0.15-0.22l-0.1-0.04c-0.01-0.74-0.56-3.24-1.54-3.24    c-0.68-1.03-1.37-2.05-2.05-3.08c0-1.15-1.8-3.56-2.54-4.49c-0.3-0.38-0.59-1.08-1.05-1.15c-0.06-0.46-0.11-0.91-0.17-1.37    c-0.66-0.82-1.32-1.63-1.98-2.45c-0.65-0.38-1.3-0.76-1.95-1.14c-0.57-0.57-1.14-1.14-1.71-1.71c-0.51-0.29-1.01-0.59-1.52-0.88    c-0.86-0.79-1.72-1.58-2.58-2.37c-0.57-0.23-1.14-0.46-1.71-0.68c-1.44-0.75-3.55-0.59-4.78-1.71c-0.8-0.17-1.59-0.34-2.39-0.51    c-0.65-0.34-1.3-0.69-1.95-1.03c-1.9-0.26-5.01-2.27-6.59-3.41c-0.34-0.11-0.68-0.23-1.03-0.34c-0.34-0.28-0.68-0.57-1.03-0.85    c-0.41,0-0.7-0.02-1.03-0.31c-0.57-0.52-1.14-1.05-1.71-1.57c-0.51-0.23-1.03-0.46-1.54-0.68c-0.19,0.19-2.18,0.04-2.39-0.17    c-0.63,0.23-1.25,0.46-1.88,0.68c-1.09-0.04-3.67,1.41-4.61,2.05c-1.31,0.51-2.62,1.03-3.93,1.54c-2.05,1.14-4.1,2.28-6.15,3.42    c-0.4,0.23-0.8,0.46-1.2,0.68c-1.4,1.1-2.96,2.56-4.78,2.56c-0.34,0.17-0.68,0.34-1.03,0.51c-1.78,1.1-3.56,2.21-5.34,3.32    c-0.24,0.51-2.44,2.03-3.03,2.15c-0.51,0.57-1.03,1.14-1.54,1.71c-0.17,0.06-0.34,0.11-0.51,0.17c-0.38,0.26-0.95,0.91-1.37,0.51    c-0.34,0.17-0.68,0.34-1.03,0.51c-0.23,0.28-0.46,0.57-0.68,0.85c-1.08,0.63-2.16,1.25-3.25,1.88c-0.53,0.35-1.84,2.6-2.22,2.22    c-0.28,0.23-0.57,0.46-0.85,0.68L256.14,180.62z"/>
            <circle cx="340.34" cy="132.79" r="1.586"/>
        </g>
        <g id="__Uluborlu">
            <path d="M186.35,211.16    c-0.51,0-1.02-1.04-1.32-1.41c-0.92-1.11-1.85-1.55-2.87-2.98c-0.64-0.08-1.07-0.73-1.58-1.14c-1.7-1.34-2.75-3.07-3.63-5.07    c-0.68-1.31-1.37-2.62-2.05-3.93c-0.11-0.74-0.23-1.48-0.34-2.22c0.32-2.1,0.64-4.2,0.96-6.3c0.08-1.03,0.16-2.06,0.24-3.1    c0.7-2.64,1.7-5.14,1.03-7.86c0.04-1.02,0.08-2.04,0.12-3.06c-0.04-1.37-0.08-2.74-0.12-4.11c-0.08-1.1,0.27-1.42-0.35-2.46    c0.17-0.27,0.43-1.61,0.01-1.67c-1.38-0.22-2.69-0.38-4.1-0.29c-0.7,0.04-1.77,0.36-2.4-0.03c-1.13,0.25-2.25,0.5-3.38,0.75    c-0.47,0.21-0.94,0.41-1.4,0.62c-0.53,0.7-1.06,1.4-1.59,2.1c-0.89,0.61-1.16,1.73-2.05,2.34c-0.51,0.74-1.14,1.42-1.65,1.99    c-0.84,0.98-1.06,1.67-2.22,2.28c-0.4,0.28-1.08,1.03-1.71,1.42c-0.46,0.4-0.91,0.85-1.54,1.31c-0.46,0.4-0.91,0.8-1.37,1.2    c-1.06,1.56-2.12,3.11-3.18,4.67c-1.09,1.14-2.19,2.29-3.28,3.43c-0.85,0.23-2.6,2.43-3.21,3.21c-0.82,0.28-1.77,1.76-2.12,2.53    c-0.63,1.08-1.25,2.16-1.88,3.25c-0.91,1.88-1.82,3.76-2.73,5.64c-0.74,1.81-2.06,3.1-3.16,4.67c-0.37,0.52-0.97,1.31-1.45,1.82    c-0.49,0.72-0.93,1.91-1.74,2.36l0.03,0.03c1.14,0.54,2.29,1.08,3.43,1.61c1.3,0.49,2.6,0.97,3.9,1.46    c0.44,0.22,1.78,0.86,1.72,0.83c0,0,0.04,0.09,0.17,0.03c0.37,0.2,0.59,0.33,1.04,0.41c1.73,0.3,3.18,1.16,4.6,2.15    c0.61-0.3,3.49,0.72,4.27,1.03c0.63-0.21,2.44,0.52,3.09,0.78c0.85,0.2,1.7,0.39,2.55,0.59c1.04,0.56,3.58,1.59,4.61,1.37    c0.73,0.55,1.12,1.39,2.06,1.48c0.96,0.12,1.52-0.48,2.39-0.8c1.39-0.52,3.34-0.78,4.44-1.88c1.17-0.41,2.34-0.81,3.5-1.22    c1.4-0.62,2.79-1.24,4.19-1.85c1.07,0.11,2.33-0.7,3.23-1.21c0.67-0.38,1.04-0.38,1.67-0.44c0,0,1.77-1.42,4.16-2.28    c0.51-0.68,0.8-1.2,1.31-1.88L186.35,211.16z"/>
            <circle cx="158.12" cy="200.7" r="1.586"/>
        </g>
        <g id="__Gönen">
            <path d="M194.89,260.31    c-0.34-0.09-0.68-0.19-1.03-0.28c-1.94,0.34-3.87,0.68-5.81,1.03c-1.25,0.8-2.51,1.59-3.76,2.39c-0.85,0.97-1.71,1.94-2.56,2.9    c-0.19,0.31-0.39,0.62-0.58,0.93c-0.74,1.08-1.6,1.91-2.66,2.65c-1.82,0.85-3.65,1.71-5.47,2.56c-0.47,0-1.67,0.8-1.88,1.2    c-2.43,0.76-4.31,2.1-6.32,3.59c-1.14,0.51-2.28,1.03-3.42,1.54c-0.91,0.68-1.82,1.37-2.73,2.05c-1.16,0-2.07,0.32-3.06,0.89    c-1.45,0.83-2.54,2.7-4.46,2.7h-0.11c-0.68-0.68-0.67-1.17-1.08-1.71c-0.86-1.11-1.42-2.36-2.56-3.25c-1.71-0.4-3.42-0.8-5.13-1.2    c-0.91-0.1-1.81-0.21-2.72-0.31l-0.44,0.26c-0.16-0.74-0.9-2.13-1.15-2.68c-0.62-1.09-1.22-2.16-1.84-3.25    c-0.09-0.4-0.19-0.81-0.28-1.21c-0.37-1.48-0.73-2.73-1.37-4.13c-0.27-0.63,0.65-1.8,0.95-2.35c1.16-2.15,2.55-4.2,3.38-6.51    c0.12-0.28,0.44-1.67,0.83-2.24c0.49-0.7,0.23-2.07-0.01-2.82c-0.7-2.25-2.65-4.29-4.19-6.01c-1.34-1.49-2.22-3.42-3.24-5.13    c-0.34-1.54-0.68-3.08-1.03-4.61c-0.2-0.47-0.4-0.95-0.6-1.42c-0.11-0.94-0.22-1.89-0.33-2.84c-0.26-0.92-0.52-1.83-0.78-2.75    c-0.28-0.68-0.57-1.37-0.85-2.05c0.05-0.69,0.11-1.37,0.16-2.06c0.71-0.9,1.42-1.79,2.13-2.69c1.86-2,3.72-4,5.59-6.01    c0.68-0.74,2.54-1.62,2.89-2.44l0.17,0.03c0.37,0.2,0.59,0.33,1.04,0.41c1.73,0.3,3.18,1.16,4.6,2.15    c0.61-0.3,3.49,0.72,4.27,1.03c0.63-0.21,2.44,0.52,3.09,0.78c0.85,0.2,1.7,0.39,2.55,0.59c1.04,0.56,3.58,1.59,4.61,1.37    c0.73,0.55,1.12,1.39,2.06,1.48c0.96,0.12,1.52-0.48,2.39-0.8c1.39-0.52,3.34-0.78,4.44-1.88c1.17-0.41,2.34-0.81,3.5-1.22    c1.4-0.62,2.79-1.24,4.19-1.85c1.07,0.11,2.33-0.7,3.23-1.21c0.67-0.38,1.04-0.38,1.67-0.44l0.08,0.44    c-0.06,0.12,1.63,3.88,2.54,5.65c0.4,0.97,0.8,1.94,1.2,2.9c0,1.72,1.58,2.45,2.56,3.59c0.34,0.57,0.68,1.14,1.03,1.71    c0.89,1.09,1.75,2.1,2.56,3.25c0.38,0.54,0.21,3.37-0.17,3.76c0.06,0.97,0.11,1.94,0.17,2.9c0.23,0.8,0.46,1.59,0.68,2.39    c-0.06,0.57-0.11,1.14-0.17,1.71c0.22,1.09,0.43,2.18,0.65,3.26c0.07,1.36,0.14,2.72,0.21,4.08c0.47,0.47,0.39,2.51,0.51,3.25    c0.11,0.28,0.23,0.57,0.34,0.85c0.23,1.24,0.37,2.17,0.84,3.35c0.24,0.59,0.81,1.26,0.69,1.78L194.89,260.31z"/>
            <circle cx="174.53" cy="239.4" r="1.586"/>
        </g>
        <g id="__Atabey">
            <path d="M235.04,258.49    c-0.13-0.15-1.22-0.25-1.35-0.4c-1.91-0.64-3.5-1.48-5.49-2c-0.85-0.06-1.71-0.11-2.56-0.17c-1.25,0.51-2.51,1.03-3.76,1.54    c-0.46,0.46-1.57,1.35-2.22,1.37c-0.34,0.4-0.68,0.8-1.03,1.2c-0.32,0.27-2.61,1.45-2.9,1.37c-0.46,0.34-0.91,0.68-1.37,1.03    c-0.91,0.23-1.82,0.46-2.73,0.68c-1.12,0.1-2.25,0.21-3.37,0.31c-2.49,0.22-6.57,0.06-8.93-0.65c-0.34-0.06-0.68-0.12-1.03-0.18    c-0.52-0.44-1.04-0.88-1.55-1.31c-0.43-0.23-0.81-0.26-1.01-0.74c-0.28-0.08-0.57-0.16-0.85-0.23l0,0.06    c0.12-0.52-0.46-1.19-0.69-1.78c-0.48-1.18-0.62-2.11-0.84-3.35c-0.11-0.28-0.23-0.57-0.34-0.85c-0.12-0.73-0.04-2.77-0.51-3.25    c-0.07-1.36-0.14-2.72-0.21-4.08c-0.22-1.09-0.43-2.18-0.65-3.26c0.06-0.57,0.11-1.14,0.17-1.71c-0.23-0.8-0.46-1.59-0.68-2.39    c-0.06-0.97-0.11-1.94-0.17-2.9c0.38-0.38,0.55-3.22,0.17-3.76c-0.82-1.15-1.67-2.15-2.56-3.25c-0.34-0.57-0.68-1.14-1.03-1.71    c-0.99-1.14-2.56-1.87-2.56-3.59c-0.4-0.97-0.8-1.94-1.2-2.9c-0.91-1.77-2.61-5.53-2.54-5.65c-0.08-1.16,3.15-2.07,4.08-2.72    c0.51-0.68,1.03-1.37,1.54-2.05c2.03-1.52,4.48-2.67,7.01-2.9c0.34,0.06,0.68,0.11,1.03,0.17c0.8-0.8,1.46-1.57,2.39-2.22    c0.91-0.28,1.82-0.57,2.73-0.85c0.57,0,1.14,0,1.71,0c0.7-0.16,1.4-0.32,2.09-0.49c1.88-0.43,3.26-1.02,5.25-1.22    c1.12-0.11,2.18,0.45,3.25,0.34c0.86-0.08,4.01-0.21,4.62-0.64c0.83-0.04,1.67-0.09,2.5-0.13c1.84-0.54,3.68-1.08,5.52-1.62    c0.51,0,1.03,0,1.54,0c1.48-0.46,2.96-0.91,4.44-1.37c1.15-0.79,2.29-1.58,3.44-2.37c0.59-0.24,1.19,0.07,1.68,0.5    c0.03,0.03-0.38,2.23-0.43,2.73c-0.34,1.48-0.69,2.97-1.03,4.45c0.03,0.68,0.07,1.36,0.1,2.04c-0.17,0.68-0.34,1.37-0.51,2.05    c0.48,0.51-0.11,2.03-0.15,2.73c-0.06,1.03-0.12,2.05-0.19,3.08c-0.28,0.74-0.57,1.48-0.85,2.22c-0.18,1.24-0.26,2.26-0.79,3.41    c-0.66,1.44-0.71,2.92-0.97,4.42c-0.27,0.81-0.53,1.62-0.8,2.42c-0.05,1.65-0.11,3.31-0.16,4.96c-0.2,2.35,0.42,4.84,0.67,7.17    c-0.04,0.91-0.09,1.82-0.13,2.73c0.07,1.05,0.57,1.98,0.99,2.91c0.17,0.4,0.34,0.8,0.51,1.2c0.73,1.65,1.47,3.3,2.2,4.95    c0.6,0.9,0.32,2.1,0.61,3.1c0.23,0.8-0.57,3.06,0.09,3.06L235.04,258.49z"/>
            <circle cx="207.07" cy="239.91" r="1.586"/>
        </g>
        <g id="__Keçiborlu">
            <path d="M137.52,278.46    c-2.92,0.38-4.69,1.55-7.39,2.58c-1.49,0.83-2.98,1.67-4.46,2.5c-0.84,0.57-1.68,1.15-2.53,1.72c-2.74,1.27-5.48,2.54-8.22,3.81    c-0.75,0.42-2.6,0.59-3.4,0.32c-0.79,0.42-2.34,0.21-3.27,0.19c-1.03,0.11-2.05,0.23-3.08,0.34c-0.46-0.06-0.91-0.11-1.37-0.17    c-1.59,0.17-3.19,0.34-4.78,0.51c-1.73,0.6-3.35,1.61-4.71,2.78c-0.39,0.34-1.44,1.4-1.95,1.28c-2.62-0.67-5.24-1.34-7.86-2.01    c-0.63-0.28-1.25-0.57-1.88-0.85c-2.05-0.63-4.1-1.25-6.15-1.88c-2.68-0.46-6.71,3.22-9.06,2.05c0.1-0.34,0.04-0.39,0.33-0.68    c1.62-1.62,3.55-3.2,4.79-5.13c1.14-1.77,1.84-3.89,3.25-5.47c1.4-1.67,2.81-3.34,4.21-5c0.42-0.61,0.84-1.22,1.26-1.83    c0.25-0.32,0.49-0.63,0.74-0.95c0.85-1.75,1.71-3.5,2.56-5.24c0.44-1.24,0.87-2.48,1.31-3.72c0.43-0.86,0.36-2.18,0.17-3.08    c0.06-0.8,0.11-1.59,0.17-2.39c-0.07-0.91-0.15-1.82-0.22-2.73c-0.02-0.75,0.24-2.16-0.29-2.73c0.33-2.09,1.39-3.72,2.18-5.62    c0.13-0.63,0.26-1.26,0.38-1.9c0.27-0.9,1.02-1.62,1.57-2.33c1.59-2.06,3.22-4.49,3.9-7.06c0.31-1.7,0.63-3.41,0.95-5.11    c0.27-1.29,0.23-2.5,1.15-3.56c-0.05-0.49-0.08-0.39,0.3-0.39c3.19,0.47,6.38,0.93,9.56,1.4c0.99,0.11,3.28,0.39,4.13-0.16    c0.39-0.24,0.78-0.48,1.17-0.73c0.9-1.2,1.37-2.89,1.37-4.44c0.23-0.97,0.46-1.94,0.68-2.9c0.15-0.95,0.3-1.89,0.45-2.84    c0.26-0.25,0.27-0.13,0.23-0.58c0.32,0,1.46-2.06,1.88-2.9c1.73,0,3.33-0.24,4.95-0.85c0.63-0.11,1.25-0.23,1.88-0.34    c0.97-0.28,1.94-0.57,2.9-0.85c1.08-0.06,2.16-0.11,3.25-0.17c0.57-0.06,1.14-0.11,1.71-0.17c1.14,0.54,2.29,1.08,3.43,1.61    c1.3,0.49,2.6,0.97,3.9,1.46c0.44,0.22,1.78,0.86,1.72,0.83c-0.35,0.82-2.21,1.7-2.89,2.44c-1.86,2-3.72,4-5.59,6.01    c-0.71,0.9-1.42,1.79-2.13,2.69c-0.05,0.69-0.11,1.37-0.16,2.06c0.28,0.68,0.57,1.37,0.85,2.05c0.26,0.92,0.52,1.83,0.78,2.75    c0.11,0.95,0.22,1.89,0.33,2.84c0.2,0.47,0.4,0.95,0.6,1.42c0.34,1.54,0.68,3.08,1.03,4.61c1.02,1.71,1.9,3.64,3.24,5.13    c1.54,1.72,3.49,3.76,4.19,6.01c0.23,0.75,0.49,2.12,0.01,2.82c-0.39,0.57-0.71,1.96-0.83,2.24c-0.83,2.31-2.22,4.36-3.38,6.51    c-0.3,0.56-1.22,1.73-0.95,2.35c0.64,1.4,1,2.65,1.37,4.13c0.09,0.4,0.19,0.81,0.28,1.21c0.62,1.09,1.22,2.16,1.84,3.25    c0.25,0.54,1,1.94,1.15,2.68C138.37,278.35,138.02,278.4,137.52,278.46z"/>
            <circle cx="120.96" cy="244.27" r="1.586"/>
        </g>
        <g id="__Senirkent">
            <path d="M254.82,187.12    c-0.43,0.39-1.36,0.89-2.01,1.31c-0.91,0.74-1.82,1.48-2.73,2.22c-1.48,0.85-2.96,1.71-4.44,2.56c-0.97,0.51-1.94,1.03-2.9,1.54    c-1.59,0.46-3.19,0.91-4.78,1.37c-0.38,0.23-0.86,0.61-1.03,1.03c-0.34,0.17-0.68,0.34-1.03,0.51c0,0-0.93-0.05-1.52,0.19    c-1.15,0.79-2.29,1.58-3.44,2.37c-1.48,0.46-2.96,0.91-4.44,1.37c-0.51,0-1.03,0-1.54,0c-1.84,0.54-3.68,1.08-5.52,1.62    c-0.83,0.04-1.67,0.09-2.5,0.13c-0.61,0.43-3.77,0.56-4.62,0.64c-1.07,0.11-2.13-0.45-3.25-0.34c-2,0.2-3.38,0.79-5.25,1.22    c-0.7,0.16-1.4,0.32-2.09,0.49c-0.57,0-1.14,0-1.71,0c-0.91,0.28-1.82,0.57-2.73,0.85c-0.93,0.65-1.59,1.42-2.39,2.22    c-0.34-0.06-0.68-0.11-1.03-0.17c-2.52,0.24-4.98,1.38-7.01,2.9c-0.51,0.68-0.51,0-0.51,0c-0.51,0-1.02-1.04-1.32-1.41    c-0.92-1.11-1.85-1.55-2.87-2.98c-0.64-0.08-1.07-0.73-1.58-1.14c-1.7-1.34-2.75-3.07-3.63-5.07c-0.68-1.31-1.37-2.62-2.05-3.93    c-0.11-0.74-0.23-1.48-0.34-2.22c0.32-2.1,0.64-4.2,0.96-6.3c0.08-1.03,0.16-2.06,0.24-3.1c0.7-2.64,1.7-5.14,1.03-7.86    c0.04-1.02,0.08-2.04,0.12-3.06c-0.04-1.37-0.08-2.74-0.12-4.11c-0.08-1.1,0.27-1.42-0.35-2.46c0.17-0.27,0.43-1.61,0.01-1.67    l0.84,0.22c1.21,0.21,2.36,0.32,3.6,0.32c1.08-0.57,2.16-1.14,3.25-1.71c1.94-1.31,3.87-2.62,5.81-3.93    c1.99-0.97,3.98-1.94,5.97-2.91c1.08-0.62,2.17-1.25,3.25-1.87c1.08-0.63,2.16-1.25,3.25-1.88c2.04-1.9,4.09-3.79,6.14-5.69    c0.63-0.49,1.26-0.99,1.9-1.48c1.72-1.61,3.21-3.24,5.13-4.61c0.85-0.4,1.71-0.8,2.56-1.2c1.42-1.06,2.94-1.82,4.47-2.68    c2.25-1.06,4.51-2.13,6.76-3.19c0.48-0.14,0.95-0.28,1.43-0.42c1.32-0.47,2.68-0.89,3.81-1.71c0.91-0.63,1.82-1.27,2.73-1.9    c0.26-0.13,0.92-0.52,1-0.18c0.73,1.99,1.45,3.98,2.18,5.97c0.23,0.97,0.46,1.94,0.68,2.9c0.06,0.68,0.11,1.37,0.17,2.05    c0.34,0.8,0.68,1.59,1.03,2.39c-0.09,0.23-0.17,0.46-0.26,0.69c-0.11,0.83-0.15,1.08-0.77,1.7c-0.23,0.34-0.46,0.68-0.68,1.03    c-0.4,0.23-0.8,0.46-1.2,0.68c-1.22,0.78-2.55,2.7-3.25,3.93c-0.37,0.67-0.49,1.47-0.51,2.22c-0.23,0.63-0.46,1.25-0.68,1.88    c-0.28,0.57-0.57,1.14-0.85,1.71c-0.27,1.31-0.72,2.61-1.3,3.79c-0.08,0.22-0.16,0.44-0.23,0.66c0.24,1.14,0.25,3,0.73,3.85    c0.77,0.99,1.55,1.97,2.32,2.96c0.07,0.29,0.13,0.59,0.2,0.88c-0.17,1.82,0.4,1.48,0.17,1.71c0,0.72,0.29,0.94-0.17,1.54    c-0.28,0.68-0.57,1.37-0.85,2.05c-0.06,0.51-0.11,1.03-0.17,1.54c-0.39,0.39-0.63,1.13-0.43,1.48c0.51,0.86,1.19,1.03,1.93,1.57    c0.6,0.43,0.58,1.11,1.34,1.43c1.15,0.47,2.12,0.02,3.28,0.26c0.43,0.09,1.04,0.37,1.22,0.73c1.13,0,1.43,0.62,2.22,1.37    c0.81,0,1.84,0.42,2.41,0.56c0.45,0.11,0.83-0.01,1.18,0.29c0.63,0.06,1.25,0.11,1.88,0.17c1.48-0.19,2.6-0.71,3.95,0.28    c0.17,0.17,0.35,0.33,0.52,0.5L254.82,187.12z"/>
            <circle cx="185.29" cy="191.22" r="1.586"/>
        </g>
        <g id="__Gelendost">
            <path d="M286.3,232.17    c0.98-0.98,2.18-4.04,1.88-5.3c-0.39-0.58-0.26-1.22-1.03-1.2c0-0.74,0-1.48,0-2.22c-0.87-0.77-2.12-1.35-2.49-2.47    c-0.27-0.8-0.44-1.64-0.24-2.48c-0.39-0.5-0.94-1.09-1.04-1.77c-0.06-0.43-0.28-1.04-0.67-1.31c-0.1-1.03-0.39-3.1,0.51-3.76    c-0.04-0.43-0.18-0.81,0-1.2c-0.4-0.46-0.8-0.91-1.2-1.37c-0.11-0.34-0.23-0.68-0.34-1.03c-0.19-0.82-0.51-3-1.2-3.42    c0-1-0.09-1.72-0.68-2.56c0.28-1.51,0.56-3.03,0.83-4.54c0.37-0.46,0.75-1.9,0.49-2.26c-0.36-0.5-0.95-1.57-1.66-1.57    c-0.57-0.68-1.14-1.37-1.71-2.05c-0.52-1.21-1.27-2.73-2.39-3.42c-0.09-0.47-0.1-0.89-0.51-1.2c-1.61-1.2-3.48-2.02-5.3-2.88    c-0.64-0.3-1.45-0.97-2.22-0.7c-0.85-0.55-1.54-1.08-2.61-0.98c-0.61-0.47-1.22-0.94-1.83-1.41c-0.32,0.8-0.47,0.76-1.36,0.88    c-0.57-0.07-1.15-0.13-1.72-0.2c-0.8,0.17-1.59,0.34-2.39,0.51c-0.33-0.33-1.66-1.11-1.28-1.66l1.11-0.22    c0.28-0.23,0.57-0.46,0.85-0.68c0.38,0.38,1.69-1.87,2.22-2.22c1.08-0.63,2.16-1.25,3.25-1.88c0.23-0.28,0.46-0.57,0.68-0.85    c0.34-0.17,0.68-0.34,1.03-0.51c0.42,0.4,0.99-0.26,1.37-0.51c0.17-0.06,0.34-0.11,0.51-0.17c0.51-0.57,1.03-1.14,1.54-1.71    c0.59-0.12,2.79-1.64,3.03-2.15c1.78-1.11,3.56-2.21,5.34-3.32c0.34-0.17,0.68-0.34,1.03-0.51c1.82,0,3.39-1.46,4.78-2.56    c0.4-0.23,0.8-0.46,1.2-0.68c2.05-1.14,4.1-2.28,6.15-3.42c1.31-0.51,2.62-1.03,3.93-1.54c0.94-0.64,3.53-2.09,4.61-2.05    c0.63-0.23,1.25-0.46,1.88-0.68c0.21,0.21,2.21,0.36,2.39,0.17c0.51,0.23,1.03,0.46,1.54,0.68c0.57,0.52,1.14,1.05,1.71,1.57    c0.33,0.29,0.62,0.31,1.03,0.31c0.34,0.28,0.68,0.57,1.03,0.85c0.34,0.11,0.68,0.23,1.03,0.34c1.58,1.14,4.69,3.15,6.59,3.41    c0.65,0.34,1.3,0.69,1.95,1.03c0.8,0.17,1.59,0.34,2.39,0.51c1.23,1.12,3.35,0.96,4.78,1.71c0.57,0.23,1.14,0.46,1.71,0.68    c0.86,0.79,1.72,1.58,2.58,2.37c0.51,0.29,1.01,0.59,1.52,0.88c0.57,0.57,1.14,1.14,1.71,1.71c0.65,0.38,1.3,0.76,1.95,1.14    c0.66,0.81,1.32,1.63,1.98,2.45c0.06,0.46,0.11,0.91,0.17,1.37c0.47,0.07,0.75,0.78,1.05,1.15c0.73,0.92,2.54,3.34,2.54,4.49    c0.68,1.02,1.37,2.05,2.05,3.08c0.98,0,1.53,2.5,1.54,3.24c0.01,0.72-0.63,0.46-1.03,0.86c-1.57,0.87-3.15,1.75-4.73,2.62    c-0.48,0.27-0.95,0.53-1.43,0.8c-2.7,0.58-4.1,3.46-5.66,5.45c-1.19,1.51-2.66,2.84-3.05,4.8c-0.35,1.74,0.17,3.48,0.17,5.13    c0.7,1.1,1.41,2.19,2.11,3.29c0.43,1.41,0.87,2.82,1.3,4.23c0.5,1.11,0.99,2.22,1.49,3.33c0.13,0.54,0.26,1.08,0.39,1.62    c0.61,0.92,1.21,1.84,1.82,2.77c0.41,0.71,0.78,0.69,0.83,1.51c0.23,0,0.51,1.08,0.51,0.85l-0.43,0.34    c-2.68,0.63-5.42,2.38-8.03,3.25c-0.85,0.17-1.71,0.34-2.56,0.51c-0.74,0.11-1.48,0.23-2.22,0.34c-0.85-0.06-1.7-0.11-2.55-0.17    c-1.43,0.17-2.86,0.34-4.29,0.51c-1.44,0.15-2.87,0.08-4.27,0.51c-4.72,1.46-8.17,3.76-13.33,3.76c-0.51-0.09-1.9,0.18-2.22,0.17    c-1.37-0.06-0.85,0.14-2.22,0.09c-0.07,0.32-1.3,0.15-1.7,0.04c-0.69-0.17-1.96-0.78-2.57-0.47c-0.52-0.45-1.05-0.9-1.57-1.35    c-0.09-0.07-0.6-0.56-0.67-0.3L286.3,232.17z"/>
            <circle cx="301.64" cy="186.86" r="1.586"/>
        </g>
        <g id="__Eğirdir">
            <path d="M341.83,253.7c-1-1.17-1.85-2.64-2.39-4.1    c-0.74-3.59-1.48-7.18-2.22-10.76c0.17-0.8,0.34-1.59,0.51-2.39c0.01-1.2,0.03-2.4,0.04-3.59c0-2.22,0.11-3.71-0.81-5.72    l-0.34-1.79l-0.43,0.34c-2.68,0.63-5.42,2.38-8.03,3.25c-0.85,0.17-1.71,0.34-2.56,0.51c-0.74,0.11-1.48,0.23-2.22,0.34    c-0.85-0.06-1.7-0.11-2.55-0.17c-1.43,0.17-2.86,0.34-4.29,0.51c-1.44,0.15-2.87,0.08-4.27,0.51c-4.72,1.46-8.17,3.76-13.33,3.76    c-0.51-0.09-1.9,0.18-2.22,0.17c-1.37-0.06-0.85,0.14-2.22,0.09c-0.07,0.32-1.3,0.15-1.7,0.04c-0.69-0.17-1.96-0.78-2.57-0.47    c-0.52-0.45-1.05-0.9-1.57-1.35c-0.09-0.07-0.6-0.56-0.67-0.3l-1.69-0.41c0.06,0.74,0.11,1.48,0.17,2.22    c-0.47,0.84-0.46,1.66-1.2,2.39c0.06,0.34,0.11,0.68,0.17,1.03c-0.61,0.2-1.07,0.97-1.54,1.54c-0.57,0.4-1.14,0.8-1.71,1.2    c-0.57,0.06-1.14,0.11-1.71,0.17c0.38,0.05,0.75,0.1,1.13,0.15c0.01,0.4,0.02,0.8,0.03,1.2c0.06,0.86-1.56,0.65-2.19,0.7    c-0.29,0-0.34,0.42-0.34,0.68c0.06,0.4,0.11,0.8,0.17,1.2c-0.12,0.51-0.25,1.02-0.37,1.53c-0.11,1.07-0.83,0.55-1.37,1.22    c-0.18,0.27-0.35,0.54-0.53,0.81c-0.39,0.57-0.78,1.14-1.17,1.7c-0.25,1.16-1.16,1.9-1.98,2.72c-0.38,0.38-0.57,1.03-1.06,1.19    c-0.35,0.53-0.69,1.06-1.04,1.6c-0.11,0.68-0.23,1.37-0.34,2.05c0.17,2.22,0.34,4.44,0.51,6.66c0.28,0.46,0.57,0.91,0.85,1.37    c-0.23,0.6-0.45,1.2-0.68,1.79c-0.29,0.43-0.57,0.85-0.86,1.28c-0.14,0.72-0.28,1.43-0.42,2.15c-0.03,0.09-1.45,0.75-1.8,0.75    c-0.73,0.73-0.74,1.83-1.29,2.57c-0.25,0.22-0.51,0.45-0.76,0.67c-1.36,0-2.84,1.13-4.02,0.77c-0.35-0.1-0.17-0.56-0.68-0.95    c-0.44-0.27-0.87-0.53-1.31-0.8c-0.42-0.72-0.84-1.44-1.26-2.16c-0.42-0.55-0.85-1.1-1.27-1.64c-0.17-0.46-0.34-0.91-0.51-1.37    c0.4-0.61-0.25-1.2,0.51-1.88c-0.15-0.46-0.31-0.92-0.46-1.38c-0.02-0.15,0.05-0.26,0.17-0.35c-1.34-0.06-2.67-0.11-4.01-0.17    c-0.46-0.59-0.91-1.17-1.37-1.76c-0.22-0.16-0.2,0.02-0.31,0.24c-0.29-0.24-0.82-0.17-1.2-0.17c-0.47-0.83-0.17-1.38-0.17-2.22    c-0.34-0.4-0.68-0.8-1.03-1.2c-0.11-1.03-0.23-2.05-0.34-3.08c-0.48-0.93-1.44-1.21-2.14-1.96c0.2-0.54,0.4-1.09,0.6-1.63    c0-0.59,0-0.97-0.17-1.54c0.34-0.23,0.68-0.46,1.03-0.68c-0.02-0.17-0.04-0.35-0.06-0.52c0.07-0.53-0.14-0.66-0.41-1.11    c-0.59-0.91-1.68,0.58-2.45,0.46c-0.33-0.07-0.66-0.13-0.98-0.2c-0.35,0.12-0.7,0.23-1.06,0.35c-1.53-0.1-3.03-1.27-3.76-2.56    c-0.23-0.8-0.46-1.59-0.68-2.39c-0.3-0.16-0.49-0.66-0.51-1.03c0.11-0.74,0.23-1.48,0.34-2.22c-0.01-0.74-0.02-1.47-0.03-2.21    c-0.15-3.2,1.26-6.13,3.27-8.55c1.96-0.54,3.69-2.07,5.64-2.9c0.46-0.57,0.91-1.14,1.37-1.71c0.04-0.62,0.08-1.24,0.12-1.85    c0.14-0.39,0.28-0.77,0.42-1.16c-0.06-0.94-0.44-1.72-0.71-2.63c0.29-0.32,0.14-0.61,0.17-1.03c0.23-0.34,0.46-0.68,0.68-1.03    c0.18-0.06,0.36-0.13,0.54-0.19c0.14-1.04,0.93-2.7,1.47-3.67c0.75-0.76,1.51-1.52,2.26-2.29c0.57-1.08,1.14-2.16,1.71-3.25    c0.19-0.52,0.37-1.04,0.56-1.55c0.24-0.3,0.33-0.09,0.46,0.19c0.09-0.15,0.19-0.29,0.28-0.44c0.76-1.02,0.66-2.55,1.6-3.49    c0-0.59,0.3-1.15,0.68-1.54c0-0.42-0.13-1.06,0.17-1.37c-0.71,0-1.16,0.21-1.71-0.17c-0.83-0.83-1.24-3.89-1.2-5.13    c-0.26-0.27-0.65-2.33-0.65-2.78c0-0.07-0.66-1.24-0.72-1.67c0.06-0.46,0.11-0.91,0.17-1.37c-0.23-0.4-0.46-0.8-0.68-1.2    c-0.33-0.93-0.66-1.87-0.99-2.8l0.37,1.36c-0.65,0.42-1.3,0.85-1.94,1.27c-0.91,0.74-1.82,1.48-2.73,2.22    c-1.48,0.85-2.96,1.71-4.44,2.56c-0.97,0.51-1.94,1.03-2.9,1.54c-1.59,0.46-3.19,0.91-4.78,1.37c-0.38,0.23-0.86,0.61-1.03,1.03    c-0.34,0.17-0.68,0.34-1.03,0.51l0.17,0.69c0.03,0.03-0.38,2.23-0.43,2.73c-0.34,1.48-0.69,2.97-1.03,4.45    c0.03,0.68,0.07,1.36,0.1,2.04c-0.17,0.68-0.34,1.37-0.51,2.05c0.48,0.51-0.11,2.03-0.15,2.73c-0.06,1.03-0.12,2.05-0.19,3.08    c-0.28,0.74-0.57,1.48-0.85,2.22c-0.18,1.24-0.26,2.26-0.79,3.41c-0.66,1.44-0.71,2.92-0.97,4.42c-0.27,0.81-0.53,1.62-0.8,2.42    c-0.05,1.65-0.11,3.31-0.16,4.96c-0.2,2.35,0.42,4.84,0.67,7.17c-0.04,0.91-0.09,1.82-0.13,2.73c0.07,1.05,0.57,1.98,0.99,2.91    c0.17,0.4,0.34,0.8,0.51,1.2c0.73,1.65,1.47,3.3,2.2,4.95c0.6,0.9,0.32,2.1,0.61,3.1c0.23,0.8-0.57,3.06,0.09,3.06l-0.17,0.51    c0.48,1.11-1.52,1.89-1.54,3.08c0.17,0.97,0.34,1.94,0.51,2.9c0.17,1.77,0.34,3.53,0.51,5.3c0.43,0.44,0.35,1.14,0.51,1.71    c0.22,1.14,0.43,2.28,0.65,3.42c0.18,0.57,0.37,1.14,0.55,1.7c0.28,0.74,0.57,1.48,0.85,2.22c0.3,1.62,0.68,3.01,1.54,4.44    c0.22,3.24,0.45,6.48,0.67,9.72c0.2,0.72,0.4,1.45,0.6,2.17c0.02,0.54,0.04,1.07,0.05,1.61c0.18,1.73,0.44,3.21,0.22,4.96    c0.42,0.39,0.31,1.47,0.34,2.05c0.38,1.26,0.77,2.52,1.15,3.78c0.6,1.94,0.68,4.28,1.93,5.96c0.17,0.4,0.34,0.8,0.51,1.2    c1.13,1.6,1.77,3.54,2.62,5.3c0.61,0.85,1.21,1.71,1.82,2.56c0,1.19,1.66,3.91,2.22,5.13c0.75,0.52,0.85,1.55,1.37,2.22    c1.09,1.43,2.08,3.29,2.22,5.13c0.11,1.48-0.31,4.08-0.85,5.47c-0.28,0.74-0.57,1.48-0.85,2.22c-1.03,1.59-2.05,3.19-3.08,4.78    c-0.94,1.61-1.8,3.49-2.22,5.3c-1.32,1.32-1.84,3.06-2.22,4.78c-0.23,0.4-0.46,0.8-0.68,1.2c-0.11,0.46-0.23,0.91-0.34,1.37    c-0.46,0.74-0.91,1.48-1.37,2.22c-1.26,1.69-2.28,3.76-3.76,5.3l0.17,1.03c0.2,0.75,0.4,1.5,0.6,2.24    c0.6,2.03,1.04,4.11,2.18,5.94l2.17,3.78c0.11-0.05,0.22-0.1,0.33-0.16c0-0.74,1.32-2.02,1.9-2.58c1.65-1.37,3.3-2.73,4.95-4.1    c0.46-0.51,0.91-1.03,1.37-1.54c0.56-0.1,1.55-1.21,1.88-1.71c0.74-1.08,1.48-2.16,2.22-3.25c0.85-1.03,1.71-2.05,2.56-3.08    c0.34-0.63,0.68-1.25,1.03-1.88c0.44-0.52,0.88-1.04,1.32-1.56c0.78-1.23,1.47-2.71,1.82-4.1c0.09-0.56,0.19-1.13,0.28-1.69    c0.44-0.28,0.88-0.55,1.32-0.83c0.47-0.75,0.94-1.5,1.41-2.25c0.85-0.97,1.71-1.94,2.56-2.9c0.34-0.28,0.68-0.57,1.03-0.85    c0.02-0.07,0.06-0.15,0.09-0.22c-0.03,0.02-0.06,0.04-0.09,0.04c-0.67,0.04-1.34,0.07-2.01,0.11c-0.85-0.47-2.73-1.55-2.59-2.66    c-0.59,0.15-1.43,0.19-1.72-0.33c-0.5-0.9-0.15-1.35-0.28-2.26c-0.41-0.27,0.36-0.32,0.64-0.49c0.23,0.68,0.46,1.37,0.68,2.05    c0.07-0.1,0.13-0.19,0.2-0.29c0.62-0.89-0.39-4.06-1.39-4.5c-0.12-1.25-0.2-2.63,0.51-3.76c-0.12-0.42-0.89-1.69-0.01-1.92    c0.35-0.16,0.69-0.31,1.04-0.47c0.67,0.18,1.35,0.35,2.02,0.53c0.34,0.61,0.68,1.22,1.02,1.84c-0.11,0.44-0.2,0.41,0.04,0.88    c-0.25,0.35-0.76,1.58-0.61,1.83c0.37,0.6,0.77,1.25,1.46,1.42c-0.35,1.56-0.02,2.03,0.63,3.36c0.13,0.36,0.26,0.72,0.4,1.08    c0,0.67-0.13,1.38,0.51,1.71c-0.04,0.24-0.07,0.81-0.16,1.27c0.52-0.93,1.31-1.74,2.04-2.46c1.73-0.49,3.46-0.98,5.18-1.47    c1.4-0.31,2.81-0.61,4.21-0.92c1.2-0.46,2.39-0.91,3.59-1.37c0.51-0.06,1.03-0.11,1.54-0.17c0.64-0.53,1.49-0.64,2.22-0.51    c1.83-1.48,3.52-1.71,4.96-3.76c0.56-1.54,1.13-3.08,1.69-4.62c1.23-3.55,2.15-6.91,3.43-10.41c0.42-1.13,0.72-2.21,1.37-3.25    c-0.38-1.02,0.79-2.35,1.37-3.08c0.74-0.4,1.48-0.8,2.22-1.2c0.85-0.23,1.71-0.46,2.56-0.68c1.03,0.06,2.05,0.11,3.08,0.17    c0.21,0.4,0.62,0.49,1.03,0.68l0.34-1.03c0.09-0.52,0.18-1.03,0.27-1.55c0.02-0.68,0.05-1.36,0.07-2.04    c0.05-1.6,0.83-3.11,1.19-4.61c0.23-0.91,0.46-1.82,0.68-2.73c0.51-0.68,1.03-1.37,1.54-2.05c0.23-0.51,0.46-1.03,0.68-1.54    c0.78-1.08,1.2-2.02,1.65-3.27c0.21-0.54-0.96-0.63-1.3-0.7c-1.54-0.04-3.08-0.09-4.62-0.13c-2.96-0.17-5.92-0.34-8.88-0.51    c-1.5-0.33-2.91-0.71-4.44-0.85c-1.59-0.68-3.19-1.37-4.78-2.05c-0.93-0.93-1.53-3.94-0.51-4.96c0-1.78,0.64-3.18,1.71-4.61    c0.52-0.7,0.7-1.72,0.85-2.56c0.57-0.63,1.14-1.25,1.71-1.88c0.46-0.23,0.91-0.46,1.37-0.68c0.68-0.06,1.37-0.11,2.05-0.17    c1.02,0.17,2.05,0.34,3.08,0.51c1.67-0.13,3.35-0.26,5.02-0.39c1.48-0.47,2.93-1.41,4.04-2.51c0.69,0.12,1.53-0.63,2.07-0.99    c1.22-0.92,2.43-1.84,3.65-2.76c0.43-0.46,0.86-0.92,1.29-1.38c0.46-0.17,0.91-0.34,1.37-0.51c0.51-0.28,1.03-0.57,1.54-0.85    c1.54-1.37,3.51-1.86,5.3-2.73c0.8-0.51,1.59-1.03,2.39-1.54c2.33-2.01,4.32-2.18,7.01-3.42c0.42-0.33,0.84-0.67,1.25-1    c0.85-0.63,3.42-2.76,4.39-2.76l0.51-0.09C342.6,255.07,342.51,254.49,341.83,253.7z"/>
            <circle cx="254.48" cy="266.57" r="1.586"/>
        </g>
        <g id="__Isparta">
            <path d="M238.97,367.67    c1.48-1.54,2.49-3.6,3.76-5.3c0.46-0.74,0.91-1.48,1.37-2.22c0.11-0.46,0.23-0.91,0.34-1.37c0.23-0.4,0.46-0.8,0.68-1.2    c0.39-1.72,0.9-3.46,2.22-4.78c0.42-1.81,1.28-3.69,2.22-5.3c1.02-1.59,2.05-3.19,3.08-4.78c0.28-0.74,0.57-1.48,0.85-2.22    c0.54-1.39,0.97-3.99,0.85-5.47c-0.14-1.84-1.13-3.7-2.22-5.13c-0.51-0.67-0.61-1.7-1.37-2.22c-0.56-1.21-2.22-3.93-2.22-5.13    c-0.61-0.85-1.21-1.71-1.82-2.56c-0.85-1.76-1.49-3.7-2.62-5.3c-0.17-0.4-0.34-0.8-0.51-1.2c-1.25-1.68-1.33-4.03-1.93-5.96    c-0.38-1.26-0.77-2.52-1.15-3.78c-0.03-0.58,0.08-1.66-0.34-2.05c0.22-1.75-0.03-3.23-0.22-4.96c-0.02-0.54-0.04-1.07-0.05-1.61    c-0.2-0.72-0.4-1.45-0.6-2.17c-0.22-3.24-0.45-6.48-0.67-9.72c-0.86-1.43-1.24-2.82-1.54-4.44c-0.28-0.74-0.57-1.48-0.85-2.22    c-0.18-0.57-0.37-1.14-0.55-1.7c-0.22-1.14-0.43-2.28-0.65-3.42c-0.17-0.56-0.09-1.27-0.51-1.71c-0.17-1.77-0.34-3.53-0.51-5.3    c-0.17-0.97-0.34-1.94-0.51-2.9c0.02-1.19,2.02-1.96,1.54-3.08c-0.13-0.15-1.22-0.25-1.35-0.4c-1.91-0.64-3.5-1.48-5.49-2    c-0.85-0.06-1.71-0.11-2.56-0.17c-1.25,0.51-2.51,1.03-3.76,1.54c-0.46,0.46-1.57,1.35-2.22,1.37c-0.34,0.4-0.68,0.8-1.03,1.2    c-0.32,0.27-2.61,1.45-2.9,1.37c-0.46,0.34-0.91,0.68-1.37,1.03c-0.91,0.23-1.82,0.46-2.73,0.68c-1.12,0.1-2.25,0.21-3.37,0.31    c-2.49,0.22-6.57,0.06-8.93-0.65c-0.34-0.06-0.68-0.12-1.03-0.18c-0.52-0.44-1.04-0.88-1.55-1.31c-0.43-0.23-0.81-0.26-1.01-0.74    c-0.28-0.08-0.57-0.16-0.85-0.23c-0.34-0.09-0.68-0.19-1.03-0.28c-1.94,0.34-3.87,0.68-5.81,1.03c-1.25,0.8-2.51,1.59-3.76,2.39    c-0.85,0.97-1.71,1.94-2.56,2.9c-0.19,0.31-0.39,0.62-0.58,0.93c-0.74,1.08-1.6,1.91-2.66,2.65c-1.82,0.85-3.65,1.71-5.47,2.56    c-0.47,0-1.67,0.8-1.88,1.2c-2.43,0.76-4.31,2.1-6.32,3.59c-1.14,0.51-2.28,1.03-3.42,1.54c-0.91,0.68-1.82,1.37-2.73,2.05    c-1.16,0-2.07,0.32-3.06,0.89c-1.45,0.83-2.54,2.7-4.46,2.7c0.01,0.17,0.03,0.34,0.04,0.51c0.18,1.78,0.8,3.64,0.98,5.47    c0.05,0.51,0.21,1.62,0.85,1.54c0.15,0.92,0.31,1.84,0.46,2.76c-0.04,0.44-0.07,0.88-0.11,1.32c0.11,0.92,0.22,1.83,0.33,2.75    c0.23,0.85,0.46,1.71,0.68,2.56c0.11,1.03,0.23,2.05,0.34,3.08c0.23,1.25,0.46,2.51,0.68,3.76c0.17,0.34,0.34,0.68,0.51,1.03    c4.23,4.23,8.68,8.08,13.33,11.79c1.06,0.84,2.64,0.59,3.59,1.54c2.11,0,4.75,0.15,6.77-0.43c1.45-0.37,2.89-0.74,4.34-1.11    c0.46-0.23,0.91-0.46,1.37-0.68c0.85-0.11,1.71-0.23,2.56-0.34c1.02,0.28,2.05,0.57,3.08,0.85c1.2,0.46,2.39,0.91,3.59,1.37    c0.86,0.58,3.06,2.39,4.1,2.39c1.36,0.86,2.87,1.6,4.26,2.41c0.75,0.34,1.49,0.67,2.24,1.01c0.78,0.64,3.31,2.3,4.27,2.22    c1.02,0.51,2.05,1.03,3.08,1.54c0.34-0.06,0.68-0.11,1.03-0.17c2.2,0.9,4.92,1.38,6.66,3.08c0.63,0.11,1.25,0.23,1.88,0.34    c0.56-0.56,2.64,0.02,3.42,0c2.93-0.09,7.32-1.21,9.15,1.82c1.05,1.7,0.76,5.12,0.76,7.06c0,0.85,0,1.71,0,2.56    c0.17,0.57,0.34,1.14,0.51,1.71c-0.06,0.46,0.58,2.41,0.34,3.25c0.23,0.11,0.34,2.28,0.17,3.25c0.28,1.71,0.57,3.42,0.85,5.13    C237.81,362.33,238.43,365.14,238.97,367.67z"/>
            <circle cx="182.98" cy="299.63" r="1.586"/>
        </g>
        <g id="__Şarkikaraağaç">
            <path d="M410.86,249.09    c-0.6-0.6-1.09-1.61-1.88-1.71c-0.8-1.38-1.42-3.04-1.71-4.61c-0.17-0.79-0.34-1.58-0.51-2.37c-0.49-0.38-1.3-1.04-1.88-0.71    c-0.07-0.25-0.15-0.5-0.22-0.75c-0.11-0.73,0.32-2.04-0.19-2.58c-0.6-0.58-0.77-0.97-1.65-1.12c-0.78-0.81-1.48-1.47-2.66-1.03    c-0.48,0.28-0.97,0.57-1.45,0.85c-0.61-0.3-1.79,0.39-2.25,0.82c-0.11,0.03-0.22,0.06-0.33,0.1c-0.59,1.07-1.19,2.15-1.78,3.23    c-0.43,0.91-0.43,1.55-1.28,2.16c-0.39,0.28-0.93,0.87-1.31,0.92c-0.9,0.11-1.73-0.7-2.51-1.06c-0.6-0.23-1.2-0.46-1.79-0.69    c-0.68,0.4-1.71-0.54-2.39-0.85c-1.63,1.42-2.45-0.07-4.1,0.34c-0.24,0.51-1.05,1.52-0.68,2.05c-0.08-0.04-0.16-0.09-0.25-0.13    c-0.2-0.07-0.41-0.14-0.61-0.21c-0.29-1.1-0.57-2.13-1.8-2.48c-0.03-0.09-0.05-0.17-0.08-0.26c-0.06,0.06-0.11,0.11-0.17,0.17    c-0.46,0.52-0.82,0.76-0.74,1.49c-0.04,0.13-0.08,0.26-0.12,0.4c0.06,0.28,0.11,0.57,0.17,0.85c0.13,0.21,0.27,0.42,0.4,0.62    c0.5,0.87,1.24,2.33,1.02,3.26c-0.09,0.29-0.37,1.24-0.74,1.24c-0.17-0.28-0.34-0.57-0.51-0.85c-0.59-0.21-1.85-0.41-2.06,0    c-0.24,0.51-0.35,0.85-1.02,0.85c-0.34,0.78-0.93,1.34-0.75,2.21c0.08,0.53,1.08,1.9,1.6,2.06c0.17,0.4,0.34,0.8,0.51,1.2    c0.34,0.4,0.68,0.8,1.03,1.2c0.17,0.51,0.34,1.03,0.51,1.54c0.06,0.17,0.11,0.34,0.17,0.51c1.02,1.03,2.05,2.05,3.08,3.08    c0.28,0.68,0.57,1.37,0.85,2.05c0.23,0.4,0.46,0.8,0.68,1.2c-0.09,0.35-0.23,0.56,0,0.85c-0.47,0.4-0.9,0.51-0.74,1.15    c0.18,0.71,1.12,2.43,1.94,2.43c0.17,0.46,0.34,0.91,0.51,1.37c0.83,1.15,1.03,1.45,1.03,1.45c-1.54,0.23-1.71,0.63-3.25,0.85    c-0.74-0.11-3.87-0.31-4.61-0.43c-3.19,0.06-5.78,0.2-8.97,0.26c-0.63,0.63-4.07,0.51-5.04,0.6c-0.74,0.06-1.48,0.11-2.22,0.17    c-0.77,0.09-0.94-0.17-1.37-0.17c-0.31,0-0.6-0.01-0.6,0.26c-0.51,0.16-1.54,0.26-2,0.93l-0.13,0.01    c-0.43-0.42-0.94-0.85-1.54-1.45c-1.11-1.66-2.09-2.86-3.4-4.37c-0.52-0.62-1.04-1.24-1.55-1.86c-1.06-1.06-2.42-2.62-3.09-3.94    c-0.65-1.27-2.3-2.56-2.89-3.58l-0.17-0.6c-0.77-0.94-0.86-1.52-1.54-2.31c-1-1.17-1.85-2.64-2.39-4.1    c-0.74-3.59-1.48-7.18-2.22-10.76c0.17-0.8,0.34-1.59,0.51-2.39c0.01-1.2,0.03-2.4,0.04-3.59c0-2.22,0.11-3.71-0.81-5.72    l-0.34-1.79c0,0.23-0.28-0.85-0.51-0.85c-0.05-0.82-0.42-0.8-0.83-1.51c-0.61-0.92-1.21-1.84-1.82-2.77    c-0.13-0.54-0.26-1.08-0.39-1.62c-0.5-1.11-0.99-2.22-1.49-3.33c-0.43-1.41-0.87-2.82-1.3-4.23c-0.7-1.1-1.41-2.19-2.11-3.29    c0-1.65-0.53-3.38-0.17-5.13c0.4-1.96,1.87-3.29,3.05-4.8c1.56-1.99,2.96-4.87,5.66-5.45c0.48-0.27,0.95-0.53,1.43-0.8    c1.57-0.87,3.15-1.75,4.73-2.62c0.4-0.4,1.28-0.6,1.28-0.6c1.31-0.68,2.19-0.94,3.5-1.62c0.57-0.4,1.14-0.8,1.7-1.21    c1.71-1.15,3.45-2.37,5.5-2.81c1.36-0.25,2.72-0.51,4.07-0.76c2.56-1.08,5.13-2.16,7.69-3.25c0.36-0.55,1.1-0.6,1.64-0.89    c0.99-0.67,1.98-1.34,2.97-2.01c2.02,0.26,3.59-0.7,5.47-1.2c0.42,0.39,2.43,0.66,3.08,0.68c0.86-0.18,1.72-0.35,2.58-0.53    c2.4-0.41,4.57-0.83,6.79-1.91c2.04-0.99,4.11-2.38,5.49-4.22c0.42-0.56,2-3.43,1.79-3.99c0.66-1,1.31-2.01,1.96-3.01    c0.28-0.85,0.57-1.71,0.85-2.56c0.74-1.25,1.35-2.42,2.09-3.67c0.02-0.23,0.09-0.41,0.13-0.6c2.58,1.75,6.49,4.4,11.75,7.97    c1.15,0.65,2.3,1.29,3.45,1.94c1.53,0.46,3.11,1.15,4.44,2.05c0.4,0.8,0.8,1.59,1.2,2.39c0.28,1.03,0.57,2.05,0.85,3.08    c0.74,3.04,0,6.17,0,9.23c0,0.63,0,1.25,0,1.88c0.4,2.28,0.8,4.56,1.2,6.83c0.74,1.6,1.48,3.2,2.22,4.79    c2.52,4.95,5.28,10.34,4.79,16.05c-0.17,0.57-0.34,1.14-0.51,1.71c-0.63,1.2-1.25,2.39-1.88,3.59c-1.78,1.6-3.55,3.19-5.33,4.79    c-1.1,1.14-1.85,2.8-2.53,4.27c-0.06,1.37-0.11,2.73-0.17,4.1c-0.06,2.33-0.11,4.67-0.17,7.01c-0.4,0.8-0.8,1.59-1.2,2.39    c-1.65,1.88-3.3,3.76-4.95,5.64c-0.4,0.46-0.8,0.91-1.2,1.37c-0.24,1.09-0.77,2.14-1.11,3.16    C412.31,249,411.9,249.09,410.86,249.09z"/>
            <circle cx="387.49" cy="200.7" r="1.586"/>
        </g>
    </g>
</svg>