<?xml version="1.0" encoding="UTF-8"?>
<!DOCTYPE svg PUBLIC "-//W3C//DTD SVG 1.1//EN" "http://www.w3.org/Graphics/SVG/1.1/DTD/svg11.dtd">
<svg version="1.1" id="HaritaCizim" xmlns="http://www.w3.org/2000/svg" xmlns:xlink="http://www.w3.org/1999/xlink" x="0px" y="0px" width="500px" height="242px" viewBox="0 0 500 242" preserveAspectRatio="none">
  <defs id="__def">

    <radialGradient id="f">
      <stop offset="0" stop-color="white" stop-opacity="1"/>
      <stop id="STOP1" offset=".4" stop-opacity="1"/>
      <stop offset="1" stop-color="white" stop-opacity=".2"/>
    </radialGradient>


    <filter id="__flt1" x="0" y="0" width="200%" height="200%" filterUnits="objectBoundingBox">

      <feGaussianBlur in="SourceAlpha" stdDeviation="3" result="blur1"/>
      <feSpecularLighting result="specOut" in="blur1" specularConstant="1.5" specularExponent="20" lighting-color="#bbbbbb">
        <feDistantLight azimuth="45" elevation="30"/>
      </feSpecularLighting>
      <feComposite in="specOut" in2="SourceAlpha" operator="in" result="specOut"/>
      <feComposite in="SourceGraphic" in2="specOut" operator="arithmetic" k1="0" k2="1" k3="1" k4="0"/>
    </filter>

    <filter id="__flt2" x="0" y="0" width="200%" height="200%" filterUnits="objectBoundingBox">
      <feGaussianBlur in="SourceAlpha" stdDeviation="3" result="blur1"/>
      <feSpecularLighting result="specOut" in="blur1" specularExponent="20" lighting-color="#bbbbbb">
        <fePointLight x="-2000" y="100" z="2000"/>
      </feSpecularLighting>
      <feComposite in="specOut" in2="SourceAlpha" operator="in" result="specOut"/>
      <feComposite in="SourceGraphic" in2="specOut" operator="arithmetic" k1="0" k2="1" k3="1" k4="0"/>
    </filter>

    <filter id="__flt3" x0="-50%" y0="-50%" width="200%" height="200%" filterUnits="objectBoundingBox">
      <feGaussianBlur in="SourceAlpha" stdDeviation="3" result="blur"/>
      <feOffset in="blur" dx="0" dy="0" result="offsetBlur"/>
      <feSpecularLighting in="blur" surfaceScale="4" specularConstant=".5" specularExponent="20" lighting-color="flavor" result="specOut">
        <fePointLight x="-5000" y="-10000" z="5000"/>
      </feSpecularLighting>
      <feComposite in="specOut" in2="SourceAlpha" operator="in" result="specOut"/>
      <feComposite in="SourceGraphic" in2="specOut" operator="arithmetic" k1="0" k2="1" k3="1" k4="0" result="litPaint"/>
      <feMerge>
        <feMergeNode in="offsetBlur"/>
        <feMergeNode in="litPaint"/>
      </feMerge>

    </filter>



    <filter id="__flt4" x0="-50%" y0="-50%" width="200%" height="200%">
      <feGaussianBlur in="SourceAlpha" stdDeviation="2" result="blur"/>
      <feOffset dy="-1" dx="-1"/>
      <feComposite in2="SourceAlpha" operator="arithmetic" k2="-1" k3="1" result="hlDiff"/>
      <feFlood flood-color="white" flood-opacity=".7"/>
      <feComposite in2="hlDiff" operator="in"/>
      <feComposite in2="SourceGraphic" operator="over" result="withGlow"/>

      <feOffset in="blur" dy="3" dx="3"/>
      <feComposite in2="SourceAlpha" operator="arithmetic" k2="-1" k3="1" result="shadowDiff"/>
      <feFlood flood-color="black" flood-opacity="1"/>
      <feComposite in2="shadowDiff" operator="in"/>
      <feComposite in2="withGlow" operator="over"/>
    </filter>

    <filter id="__golge1" x="0" y="0" width="200%" height="200%" filterUnits="userSpaceOnUse">
      <feOffset result="offOut" in="SourceAlpha" dx="8" dy="8"/>
      <feGaussianBlur result="blurOut" in="offOut" stdDeviation="3"/>
      <feBlend in="SourceGraphic" in2="blurOut" mode="normal"/>
    </filter>

  </defs>

  <g id="__Komsular" display="none">

    <path fill-rule="evenodd" clip-rule="evenodd" fill="none" stroke="#000000" stroke-width="0.25" stroke-miterlimit="10" d="  M134.62,35.34c-0.11-0.99,0.15-3.26,0.52-4.15c0.45-1.1,1.61-1.62,2.56-2.3c2.24-1.62,4.38-2.02,6.97-2.56  c2.06-0.43,6.25-0.52,6.42-2.94c0.15-2.06-0.97-2.23-2.26-2.99c-1.29-0.76-1.61-1.33-2.12-2.87c-0.34-1.03-0.49-1.93-1.13-2.68  c-0.65-0.75-1.78-1.14-2.46-1.73c-0.86-0.74-1.25-1.62-2.03-2.43c-0.82-0.84-2.07-1.33-2.82-2.21c-1.02-1.21-3.42-3.92-1.04-4.68  c1.32-0.42,6.76,2.22,5.87-0.83c-0.49-0.07-0.84-0.39-1.34-0.41c0.47-0.83,1.58-1.01,1.16-2.37c-0.29,0.05-0.37-0.15-0.49-0.2"/>
    <path fill-rule="evenodd" clip-rule="evenodd" fill="none" stroke="#000000" stroke-width="0.25" stroke-miterlimit="10" d="  M417.01,171.69c2.47-1.02,5.35-0.93,7.98-1.55c2.59-0.61,5.32-1.42,7.83-2.21c1.12-0.35,2.22-0.93,3.43-1.26  c1.29-0.34,2.56-0.21,3.98-0.35c1.42-0.14,2.68-0.78,3.82-1.69c0.79-0.63,1.47-1.87,2.24-2.3c1.22-0.67,2.75,0.37,3.81,1.25  c1.7,1.41,1.63,2.31,2.1,4.27c2.77,0.05,5.52,1.4,8.29,0.89c2.19-0.4,4.01-2.85,6.28-3.43c2.65-0.67,4.43-1.24,6.76-2.76  c0.95-0.62,2.39-0.91,3.12-1.77c0.99-1.16,0.32-2.64,1.3-3.69c0.55-0.59,1.84-0.92,2.62-0.84c0.07-1.32-0.19-2.04,0.89-2.88  c0.71-0.55,2.17-0.79,2.98-1.22c1.84-0.97,2.91-2.67,4.46-3.84c1.3-0.99,0.99-1.17,2.39-0.47c1,0.5,1.81,1.07,2.86,1.47  c2.16,0.83,3.8,2.1,5.85,3.16"/>
    <path fill-rule="evenodd" clip-rule="evenodd" fill="none" stroke="#000000" stroke-width="0.25" stroke-miterlimit="10" d="  M426.89,200.45c0.55,1.13,1.11,2.23,1.73,3.29c0.86,1.48,1.49,1.57,3.08,1.77c1.18,0.15,2.76,0.11,3.89,0.61  c1.41,0.62,1.46,1.84,2.56,2.64c3.63,2.67,3-3.73,5.37-3.99c1.37-0.15,2.09,1.42,1.91,2.6c-0.2,1.29-1.87,1.99-2.04,3.15  c-0.25,1.7,1.94,2.17,3.27,1.71c1.32-0.46,1.69-2.07,1.58-3.45c1.75-0.13,3.23,1.66,2.62,3.3c-0.51,1.38-1.96,2.98-3.1,3.9  c1.75,0.56,3.03,1.58,4.31,2.95c0.54,0.58,1.78,1.22,2.08,1.9c0.58,1.29-0.33,1.5-0.79,2.43c-0.73,1.48-0.43,3.22-0.86,5.03  c-0.35,1.5-0.7,0.63,0.74,1.77c0.89,0.71,1.41,1.2,1.18,2.56c-0.53,0.32-1.08,0.51-1.68,0.58c-0.32,1.67,0.88,2.23,1.92,3.22  c1.02,0.97,1.75,2.87,3.25,2.83c1.56-0.03,2.01-1.73,3.11,0.33c0.59,1.1,0.78,2.74,1.39,3.81"/>
    <path fill-rule="evenodd" clip-rule="evenodd" fill="none" stroke="#000000" stroke-width="0.25" stroke-miterlimit="10" d="  M341.48,182.26c0.54,2.2,3.73,3.55,4.47,5.58c0.8,2.22,0.04,6.08,0.25,8.41c0.24,2.67-1.03,5.01-1.56,7.53  c-0.36,1.72-0.29,1.97-1.39,3.3c-0.75,0.9-1.36,1.83-2.07,2.73c-0.77,0.99-1.45,2.05-2.34,2.91c-1.27,1.21-1.39,1.46-2.03,2.98  c-1.17,2.79-3.89,3.21-6.07,4.8c-0.96,0.7-1.55,1.92-1.94,2.99c-0.56,1.53,0.04,1.93,0.72,3.29c1.11,2.21,0.98,4.73,2.08,6.92  c0.38,0.75,1.14,1.73,1.19,2.57c0.02,0.42-0.62,0.78-0.5,1.42c0.1,0.55,0.49,0.88,0.74,1.35c1.35,2.54,0.04,2.48-0.9,4.72"/>
    <path fill-rule="evenodd" clip-rule="evenodd" fill="none" stroke="#000000" stroke-width="0.25" stroke-miterlimit="10" d="  M43.66,79.7c-5.62-0.04-11.3,0.7-16.77,1.25c-2.74,0.28-5.29,1.07-8.01,1.17c-2.81,0.11-5.26,0.87-7.97,0.87  C7.33,82.98,3.7,82.17,0,82.81"/>
    <text transform="matrix(0.961 0.2767 -0.2767 0.961 303.3904 28.8535)" font-family="'MyriadPro-Regular'" font-size="11">ERMENİSTAN</text>
    <text transform="matrix(0.8866 0.4626 -0.4626 0.8866 455.4338 191.8408)" font-family="'MyriadPro-Regular'" font-size="11">NAHCİVAN</text>
    <text transform="matrix(1 0 0 1 376.2993 213.9641)" font-family="'MyriadPro-Regular'" font-size="11">İRAN</text>
    <text transform="matrix(0.9712 0.2384 -0.2384 0.9712 106.2092 194.2195)" font-family="'MyriadPro-Regular'" font-size="11">AĞRI</text>
    <text transform="matrix(0.9266 -0.376 0.376 0.9266 43.3411 29.4136)" font-family="'MyriadPro-Regular'" font-size="11">KARS</text>
  </g>

  <g id="__Harita" display="none">
    <rect id="__cer" x="0" y="0" fill="#000000" opacity="0" width="500" height="242"/>
	<g id="__Iğdır">
		<path d="M174.94,58.39    c0.7-0.18,2.28,0.05,2.7,0.54c0.21,0.19,0.42,0.39,0.63,0.58c0.17,0.64,0.35,1.27,0.52,1.91c0.03,0.3,0.05,0.61,0.08,0.92    c0.38,0.21,0.56,0.18,0.62,0.64c0.64-0.06,1.27-0.12,1.91-0.17c0.83,0.43,3.48,2.05,4.33,1.56c0.81,0.75,1.62,1.5,2.43,2.25    c2.31,1.21,4.62,2.43,6.93,3.64c0.46,0.06,0.92,0.12,1.39,0.17c1.58,0.86,2.92,0.25,4.5,0.37c2.47,0.19,4.91,0.74,7.41,0.66    c1.05-0.03,3.79,0.24,4.55,1.05c0.68-0.08,1.36-0.16,2.04-0.24c0.25-0.09,0.49-0.18,0.74-0.28c0.24-0.25,0.51-0.71,0.87-0.69    c0.17-0.37,0.33-0.74,0.5-1.1c0.24-0.32,0.48-0.65,0.71-0.97c0.35-0.17,0.69-0.35,1.04-0.52c1.04-0.12,2.08-0.23,3.12-0.35    c1.19,0.37,3.69,1.5,4.5,2.43c1.82-0.4,3.88-0.69,5.72-0.69c0.46-0.35,0.92-0.69,1.39-1.04c0.46,0,0.92,0,1.39,0    c1.62,0.46,2.09,0.8,3.79,0.29c0.41-0.1,0.82-0.19,1.23-0.29c-0.03-0.11-0.06-0.22-0.1-0.32c-0.21-0.75-0.42-0.72,0.45-0.86    c2.52-0.41,5.97-0.54,8.39,0.43c0.5,0.2,1.06,0.11,1.48,0.41c1.1-0.52,2.19-1.04,3.29-1.56c0.06,0.15,0.12,0.29,0.18,0.44    c0.57,1.41,0.09,2.83-0.18,4.24c0.34,0.72-0.09,1.34-0.17,2.08c-0.2,1.77,0.35,3.32,0.35,5.02c0.4,0.64,0.81,1.27,1.21,1.91    c2.72,2.48,4.61,5.31,6.24,8.49c0.78,2.41,1.56,4.83,2.34,7.24c0.27,0.81,0.96,2.15,0.6,2.98c0.06,0.69,0.12,1.39,0.17,2.08    c0.35,1.73,0.69,3.47,1.04,5.2c1.59,2.78,2.85,5.8,4.41,8.58c-0.01,0.23-0.03,0.45-0.04,0.68c0.45,0.9,0.9,1.8,1.35,2.7    c0.45,0.63,0.9,1.27,1.35,1.9c0.24,1.21,1.62,2.4,2.46,3.3c0.28,0.3,0.62,0.93,1.04,0.87c0.52,0.81,1.04,1.62,1.56,2.43    c0.09,0.4,0.18,0.8,0.27,1.21c-0.2,0.75-0.14,1.93,0.25,2.6c-0.53,2.41-0.88,5.29,0.52,7.45c0.33,0.12,0.66,0.23,0.99,0.35    c0.65,0.46,1.31,0.92,1.96,1.38c0.23,0.29,0.46,0.58,0.69,0.87c0.23,0.23,0.46,0.46,0.69,0.69c1.15,1.13,1.11,1.89,2.95,2.08    c0.52-0.06,1.04-0.12,1.56-0.17c0.69-0.08,1.38-0.16,2.07-0.24c2.31-0.8,4.62-1.6,6.92-2.39c1.12-0.31,2.24-0.62,3.36-0.93    c1.04,1.51,0.74,2.93,0.64,4.6c0.03,0.86,0.06,1.71,0.1,2.57c-0.39,0.81-0.28,2.24-0.16,3.1c-0.32,0.63-0.04,3.88,0.06,4.73    c0.31,1.26,0.62,2.52,0.94,3.77c-0.1,0.54,0.65,3.33,1.14,3.5c0.13,0.45,0.26,0.9,0.4,1.35c1.15,2.41,2.45,4.77,3.07,7.31    c0.37,1.53,1.21,2.82,1.44,4.34c0.23,1.49,0.45,2.99,0.68,4.48c0.17,0.7,0.72,1.57,0.48,2.27c0.18,0.55,0.6,1.17,0.35,1.73    c0.16,0.56,1.04,1.75,0.53,2.23c-0.36,0.33-0.3,0.54-0.71,0.55c-0.86-0.05-1.73-0.1-2.59-0.15c-0.89,0.19-1.58,0.91-2.39,0.83    c-1.17-0.29-2.33-0.57-3.5-0.86c-0.5-0.16-0.87-0.57-1.39-0.52c-1.04-0.75-2.08-1.5-3.12-2.25c-2.37-2.86-5.92-5.06-9.36-6.58    c-0.52-0.35-1.04-0.69-1.56-1.04c-0.75-0.29-1.5-0.58-2.25-0.87c-2.82-0.72-5.51,0.29-8.32-0.17c-1.44-0.35-2.89-0.69-4.33-1.04    c-1.57-1-3.1-2.24-4.33-3.64c-0.4-0.52-0.81-1.04-1.21-1.56c-0.4-1.35-1.61-2.97-2.95-3.64c-0.33-0.17-0.64-0.53-0.69-0.87    c-0.23-0.09-0.47-0.18-0.7-0.27c-0.26-0.38-1.1-0.95-1.55-0.94c-0.14-0.39,0.1-1.04-0.35-1.04c-0.69,0.12-1.39,0.23-2.08,0.35    c-0.61,0.21-1.44,0.99-2.08,0.69c-1.1,0.92-2.19,1.85-3.29,2.77c-0.34,0.25-0.81,0.51-1.21,0.52c-0.99,0.72-1.98,1.5-3.16,1.85    c-0.23,0.38-0.68,0.38-1.05,0.6c-0.96,0.56-1.8,1.25-2.95,1.57c-0.79,0.22-1.58,0.44-2.37,0.66c-1.1,0.06-2.19,0.12-3.29,0.17    c-0.6-0.08-1.78-0.52-2.25-0.17c-0.99-0.58-3.83-2.59-4.85-2.43c-0.37-0.17-0.62-0.41-1.04-0.35c-0.29-0.29-0.58-0.58-0.87-0.87    c-0.57-0.35-1.14-0.7-1.72-1.06c-0.49-0.41-1.19-1.22-1.92-1.2c-2.3-1.97-4.77-3.45-7.8-3.98c-0.92-0.12-1.85-0.23-2.77-0.35    c-1.16,0-2.31,0-3.47,0c-1.9-0.32-3.8-0.64-5.7-0.96c-0.58-0.09-1.59-0.55-2.1-0.25c-2.16-0.83-4.58-1.44-6.93-1.21    c-0.64-0.06-1.27-0.12-1.91-0.17c-1.1-0.75-2.19-1.5-3.29-2.25c-2.01-1-4.02-2-6.03-3c-1.39-0.77-2.96-2.2-4.68-1.92    c-1.34,0.02-2.68,0.05-4.02,0.07c-0.92,0.29-1.85,0.58-2.77,0.87c-0.34,0.3-0.57,0.41-0.69,0.87c-4.23,2.06-11.61,3.75-15.77,1.04    c-0.23-0.06-0.46-0.12-0.69-0.17c-1.42-0.49-2.62-1.17-4.16-1.21c-0.46-0.2-0.92-0.39-1.38-0.58c1.44-2.29,2.88-4.58,4.32-6.87    c0.35-0.35,0.69-0.69,1.04-1.04c0.64-0.92,1.27-1.85,1.91-2.77c1.15-1.47,2.44-2.76,3.47-4.33c1.57-2.39,3-3.01,2.78-6.2    c0.63-0.76,1.26-1.53,1.9-2.29c0.55-1.7,1.15-3.37,1.4-5.17c0.17-0.76,0.34-1.52,0.5-2.28c0.84-1.19,1.67-2.38,2.51-3.57    c0.95-1.06,1.91-2.13,2.86-3.19c0.4-0.81,0.81-1.62,1.21-2.43c0.12-0.75,0.23-1.5,0.35-2.25c0.33-2.09-0.53-3.37-1.01-5.26    c-0.06-0.66-0.12-1.32-0.17-1.99c0.45-0.62,0.33-3.6,0.42-4.54c0.02-0.9,0.03-1.8,0.05-2.7c0.48-0.57,0.37-2.09,0.45-2.85    c0.15-0.86,0.29-1.73,0.44-2.59c0.22-1.64-0.15-3.23-0.5-4.79c0.1-0.37,0.2-0.73,0.3-1.1c1-0.92,2.26-2.83,1.84-4.32    c-0.52-1.5-1.04-3-1.55-4.5c-0.16-0.58-0.32-1.16-0.48-1.73c-0.07-1.33-0.14-2.67-0.21-4c-0.09-0.84-0.63-3.15-0.27-3.82    c-0.05-1.58-0.19-3.27,1.04-4.5c-0.08-0.55-0.16-1.09-0.24-1.64C174.4,58.96,174.51,58.49,174.94,58.39z"/>
		
			<circle cx="239.43" cy="105.68" r="1.586"/>
	</g>
	<g id="__Aralık">
		<path d="M309.6,186.68    c0.63,0.02,1.26,0.03,1.89,0.05c1.78-0.19,3.65,0.97,5.38,1.33c0.69,0.26,1.38,0.51,2.07,0.77c0.95,0.19,1.95,0.15,2.9-0.02    c0.25,0.16,0.5,0.31,0.75,0.47c1.19-0.03,2.37-0.06,3.56-0.09c0.49,0.03,0.98,0.06,1.47,0.09c0.37,0.4,0.83,0.54,1.38,0.56    c0.69-0.13,1.39-0.26,2.08-0.39c1.23-0.11,4.19,0.41,5.11-0.23c1.25-0.88,2.07-1.78,3.04-2.89c1.12-1.29,1.21-3.18,2.56-4.33    c1.17-0.87,2.34-1.73,3.51-2.6c2.07-1.97,4.13-3.93,6.2-5.9c2.07-1.89,4.21-3.52,5.93-5.71c0.46-0.58,1.74-0.8,1.91-1.56    c1.21-0.6,2.1-1.35,3.16-2.19c0.35-0.28,0.7-0.56,1.04-0.84c1.31-1.18,2.62-2.37,3.94-3.55c2.22-1.87,4.43-3.73,6.65-5.6    c0.3-0.4,0.61-0.8,0.92-1.21c0.32-0.32,0.63-0.64,0.95-0.96c0.28-0.13,0.56-0.26,0.84-0.38c0.17-0.17,0.61-0.76,0.8-0.61    c0.29,0.25,0.36,0.41,0.76,0.44c0.5,1.26,1.01,2.51,1.51,3.77c0.15,0.5,0.59,0.92,0.57,1.43c0.46,0.52,0.92,1.04,1.39,1.56    c0.12,0.29,0.23,0.58,0.35,0.87c0.04,0.67,0.23,1.13-0.17,1.73c0.17,0.58,0.35,1.16,0.52,1.73c0.32,1.01,1.41,1.29,2.01,2.1    c0.31,0.42,0.41,1.04,0.41,1.54c0.76,0.48,1.13,1.54,1.73,2.25c0.81,0.12,1.28,0.27,1.95,0.74c0.2,0.46,0.6,0.8,1.06,1.01    c0.11,0.32-0.16,0.81,0.12,0.92c0.51,0.2,1.69,0.27,1.72,0.97c1.6,0.58,3.37,0.28,5.02,0c-0.02,0.32-0.14,0.83,0.2,0.92    c0.45,0.07,0.9,0.15,1.35,0.22c0.84,0.22,1.32,0.74,2.2,0.59c0.56-0.09,2.05-1.23,2.55-0.82c0.44,0.62,0.88,1.24,1.33,1.86    c0.92,0.35,1.85,0.69,2.77,1.04c-0.01,0.23-0.01,0.46-0.02,0.69c0.01,0.35,0.01,0.69,0.02,1.04c0.39,0.12,0.51,0.22,0.87,0    c-0.08,0.64-0.31,1.08,0.17,1.56c0.58,0.62,1.51,0.29,2.25,0.71c0.33,0.19,0.82,0.86,0.88,1.2c0.29,0.17,0.58,0.35,0.87,0.52    c0.45,0.69,0.51,1.26,1.12,1.75c-0.19,0.79,0.15,1.42,0.93,1.32c0.54-0.08,0.35,0.35,0.3,0.71c-0.21,0.46-0.67,1.35-1.14,1.25    c0.06,0.04,0.13,0.09,0.19,0.14c0.49,0.35,1.05,0.93,1.71,0.73c0.36,0.9,1.09,1.67,2.08,1.73c0.17,0.35,0.35,0.69,0.52,1.04    c0.35,0.06,0.69,0.12,1.04,0.17c0.69,0.46,1.39,0.92,2.08,1.39c0.34,0.67,1.57,2.28,2.43,1.91c0.29,0.19,0.52,0.45,0.87,0.35    c0.52,0.92,1.04,1.85,1.56,2.77c0.01,0.69,0.03,1.38,0.04,2.06c0.13,0.4,0.78,1.73,0.89,1.35c0.13-0.46,0.35-0.74,0.1-1.16    c0.35-0.64,0.69-1.27,1.04-1.91c0.87-0.93,1.92-2.38,1.59-3.64c-0.19-0.68-0.12-1.18-0.76-1.44c-0.39-0.14-0.76-0.13-1-0.46    c-0.73,0.09-1.32,0.29-1.87-0.22c-0.51,0.06-0.43-0.05-0.47-0.5c-0.03-0.42,0.1-0.58-0.26-0.84c0.6-0.91,1.73-2.08,1.51-3.16    c0.11-0.11,0.21-0.22,0.32-0.32c-0.89-0.19-2.05,0-2.7,0.71c0.03-0.11,0.06-0.22,0.1-0.33c0.26-0.83,0.39-2.77,1.29-3.13    c-0.06-0.3-0.12-0.6-0.18-0.9c-0.1-0.21-0.15-0.48-0.33-0.49c-0.89,0.03-1.77,0.06-2.66,0.1c-0.29-0.46-0.23-0.75-0.81-0.78    c0.34-1.06,0.55-1.68-0.43-2.34c-0.14-0.4-0.37-1.03-0.78-1.13c-0.14-0.9-0.34-1.82-1.27-2.07c-0.45-0.08-1.24-0.12-1.67,0.34    c-0.16-0.13-0.32-0.27-0.48-0.4c-0.53,0.07-0.41-0.01-0.32-0.43c-0.08-0.13-0.16-0.25-0.24-0.38c0.46-0.71,1.07-1.1,0.88-1.97    c0.43-0.36,0.36-0.27,0.01-0.59c-0.57-0.44,0.14-0.63-0.86-0.6c-1.6,0.13-3.38,1.19-4.07-0.79c0.02-0.76,0.04-1.53,0.06-2.29    c-0.85-0.85-1.25-1.74-1.39-2.95c-0.1-0.88,0.56-1.9,0.14-2.65c-0.43-0.7-0.54-0.86-1.35-0.86c-1.61,0-1.12,1.31-3.07,0.89    c-0.11,0.03-0.21,0.06-0.32,0.09c-0.96-0.91-1.47-2.06-1.98-3.37c-0.16-0.4-0.64-0.79-0.52-1.21c-0.31-0.55-0.62-1.1-0.93-1.65    c0.23-1-0.82-2.24-0.63-3.21c-0.24-0.05-0.48-0.1-0.73-0.16c-0.65-0.09-1.93-0.06-2.39-0.54c-1.05,0.27-1.99,0.78-2.34-0.57    c-0.07-0.34-0.48-0.09-0.4-0.47c0.26-1.08,0.35-1.98,0.9-3c0.4-0.18,1.45-0.21,1.52-0.67c0.13-0.81,0.09-1.3-0.21-2.05    c-0.82-0.68-2.73-2.01-3.43-0.67c-0.41,0.79-0.15,1.4-0.72,2.11c0.05,0.1,0.11,0.2,0.16,0.3c-0.05-0.02-0.1-0.04-0.15-0.06    c-0.7-0.32-1.45-0.46-1.93-1.15c-0.29-0.12-0.58-0.23-0.87-0.35c-0.61,0.1-1.96,0.05-2.25,0.52c-0.17-0.13-0.33-0.25-0.5-0.38    c-0.5-0.4-1.4-1.23-1.41-1.87c-0.31-0.37-0.62-0.55-0.69-1.04c-0.38-0.19-0.88-0.29-1.04-0.69c-0.69-0.17-1.39-0.35-2.08-0.52    c-1.09-0.59-1.37-2.07-2.43-2.77c-0.81,0.1-2.47,0.47-2.97-0.28c-0.15-0.32-0.29-0.64-0.44-0.95c0.62-0.28,2.1-1.16,1.8-2.04    c-0.18-0.52-0.13-0.74-0.56-1.14c-0.27-0.25-0.96-0.88-1.29-0.69c-1.22,0.72-1.96,1.74-3.45,1.58c-0.06,0.08-0.13,0.15-0.19,0.23    c-0.06-0.06-0.11-0.12-0.17-0.18c-0.87-0.93-2.05-2.1-1.87-3.41c0.19-1.26,1.49-5.18,0.81-6.24c-0.37-0.57-1.19-1.31-1.2-1.95    c-0.9-0.58-2.17-1.41-3.29-1.39c-0.47-0.7-1.94-2.21-2.77-2.25c-0.52-0.64-1.04-1.27-1.56-1.91c-0.46-0.75-0.92-1.5-1.39-2.25    c-0.52-1.91-0.06-3.99-0.48-6.03c0.02-0.16,0.04-0.32,0.05-0.48c-0.25-0.75-0.73-1.72-1.65-1.64c-0.17-0.29-0.35-0.58-0.52-0.87    c-0.44-0.7-1.14-2.81-1.67-3.11c-0.35-0.18-0.34-0.08-0.41-0.53c-0.66-0.11-1.85-0.4-2.43,0c-0.29-0.12-0.58-0.23-0.87-0.35    c-0.58-0.87-1.16-1.73-1.73-2.6c-0.69-0.35-1.39-0.69-2.08-1.04c-0.23-0.29-0.46-0.58-0.69-0.87c-0.27-0.6-0.72-1.52-0.35-2.08    c-0.71-1.09-1.43-2.19-2.43-2.95c-0.07-0.51-0.24-0.94,0-1.39c-0.17-0.29-0.35-0.58-0.52-0.87c-0.49-1.05-2.59-2.51-2.43-3.64    c-0.3-0.33-0.64-0.59-0.69-1.04c-0.36-0.2-0.49-0.39-0.87-0.17c-1.24-1.49-2.71-2.75-3.77-4.35c-0.18-0.27-0.73-1.43-1.05-1.31    c-0.51,0.19-1.01-0.22-1.25,0.64c-1,0.12-2.85,0.14-3.47,0.87c-0.24-0.12-0.47-0.23-0.71-0.35c-0.27-0.19-0.55-0.38-0.82-0.57    c-0.46-0.67-0.99-1.43-1.82-1.51c-2.16,0.03-4.32,0.06-6.48,0.09c-0.68-0.01-1.36-0.01-2.05-0.02c-1.29-0.54-2.59-1.09-3.88-1.63    c-2.34-0.39-4.51-1.67-6.68-2.52c-1.23-0.48-3.7,0.15-4.41-0.25c-1.56,0.52-3.12,1.04-4.68,1.56c-0.92,0.58-1.85,1.16-2.77,1.73    c-0.29,0.29-0.58,0.58-0.87,0.87c-0.73,0.44-1.51,0.89-1.98,1.64c-0.26,0.42-0.49,0.93-0.97,1.13c-0.06,1.27-0.12,2.54-0.17,3.81    c-0.19,1.71-0.2,3.72,0.13,5.37c0.26,2.02,0.42,4.11,1.14,6.04c0.39,1.1,0.77,2.21,1.16,3.31c1.37,1.72,2.84,3.16,4.33,4.85    c0.4,0.69,0.81,1.39,1.21,2.08c1.16,2.77,2.31,5.54,3.47,8.32c-0.15,1.28-0.29,2.55-0.44,3.83c-0.32,0.94-0.76,2.03-0.72,3.03    c-0.47,0.51-1.1,2.29-1.34,3.05c-0.03,0.45-0.06,0.91-0.1,1.36c-0.23,0.75-0.45,1.51-0.68,2.26c-0.29,1.07-0.57,2.15-0.86,3.22    c-0.22,0.41-0.74,1.04-0.36,1.45c-0.46,0.99-0.34,1.16-0.37,2.19c-0.3,0.48-1.65,2.16-1.49,2.24l-0.68,0.15    c1.04,1.51,0.74,2.93,0.64,4.6c0.03,0.86,0.06,1.71,0.1,2.57c-0.39,0.81-0.28,2.24-0.16,3.1c-0.32,0.63-0.04,3.88,0.06,4.73    c0.31,1.26,0.62,2.52,0.94,3.77c-0.1,0.54,0.65,3.33,1.14,3.5c0.13,0.45,0.26,0.9,0.4,1.35c1.15,2.41,2.45,4.77,3.07,7.31    c0.37,1.53,1.21,2.82,1.44,4.34c0.23,1.49,0.45,2.99,0.68,4.48c0.17,0.7,0.72,1.57,0.48,2.27c0.18,0.55,0.6,1.17,0.35,1.73    c0.16,0.56,1.04,1.75,0.53,2.23C309.26,186.13,309.39,186.56,309.6,186.68z"/>
		
			<circle cx="354.12" cy="121.28" r="1.586"/>
		
	</g>
	<g id="__Karakoyunlu">
		<path d="M299.6,140.15    c-1.12,0.31-2.24,0.62-3.36,0.93c-2.31,0.8-4.62,1.6-6.92,2.39c-0.69,0.08-1.38,0.16-2.07,0.24c-0.52,0.06-1.04,0.12-1.56,0.17    c-1.83-0.19-1.8-0.95-2.95-2.08c-0.23-0.23-0.46-0.46-0.69-0.69c-0.23-0.29-0.46-0.58-0.69-0.87c-0.65-0.46-1.31-0.92-1.96-1.38    c-0.33-0.12-0.66-0.23-0.99-0.35c-1.4-2.16-1.05-5.04-0.52-7.45c-0.4-0.68-0.45-1.85-0.25-2.6c-0.09-0.4-0.18-0.8-0.27-1.21    c-0.52-0.81-1.04-1.62-1.56-2.43c-0.42,0.06-0.76-0.57-1.04-0.87c-0.84-0.89-2.22-2.08-2.46-3.3c-0.45-0.63-0.9-1.27-1.35-1.9    c-0.45-0.9-0.9-1.8-1.35-2.7c0.01-0.23,0.03-0.45,0.04-0.68c-1.55-2.78-2.82-5.79-4.41-8.58c-0.35-1.73-0.69-3.47-1.04-5.2    c-0.06-0.69-0.12-1.39-0.17-2.08c0.35-0.83-0.33-2.17-0.6-2.98c-0.78-2.41-1.56-4.83-2.34-7.24c-1.62-3.18-3.51-6.01-6.24-8.49    c-0.4-0.64-0.81-1.27-1.21-1.91c0-1.71-0.55-3.25-0.35-5.02c0.09-0.74,0.52-1.36,0.17-2.08c0.27-1.41,0.76-2.83,0.18-4.24    l0.34-0.44c0.64,0.46,1.27,0.92,1.91,1.39c0.4,0.06,0.81,0.12,1.21,0.17c-0.34-0.34,1-0.76,1.39-0.81c1.58-0.2,2.88-0.1,4.41,0.43    c0.71-0.37,1.55,0.31,2.17-0.14c0.4,0.29,0.81,0.58,1.21,0.87c0.4,0,0.81,0,1.21,0c0.57-0.37,0.89-0.52,1.56-0.52    c0.34,0,1.01,0.14,1.21-0.17c0.47-0.73,0.16-2.95,1.39-2.95c0.52-0.06,1.04-0.12,1.56-0.17c0.63,0.63,1.96,0.57,2.77,1.39    c0.44,0.03,0.89,0.06,1.33,0.09c0.92-0.7,1.06-1.96,1.96-2.86c0.58,0.12,1.16,0.23,1.73,0.35c0.51-0.51,0.79-1.25,1.56-1.39    c0.98-0.18,1.61,0.25,2.43,0.21c0.52-0.03,0.58-0.13,0.87-0.55c1.5,0.17,3,0.35,4.5,0.52c0.24-0.15,0.48-0.3,0.71-0.45    c0.3-0.14,2.32-0.31,2.5-0.16c1.52,1.47,2.16,1.83,4.24,2c0.31,1.01,0.52,1.6,1.39,2.25c0-0.4,2.12-1.23,2.42-1.19    c1.36,0.23,1.49,0.42,2.43,1.36c0.23,0.29,0.46,0.58,0.69,0.87c1.17,0.8,2.16,0.26,3.46,0.35c0.21,0.41,0.77,1.35,1.2,1.53    c0.83,0.35,2.74-0.43,3.3,0.48c0.59,1.02,1.17,2.04,1.76,3.06c0.63,0.45,1.25,0.89,1.88,1.34c0.86,0.74,1.73,1.47,2.59,2.21    c0.76,0.31,2.86,0.6,3.48,0.05c0.64,0.23,1.27,0.46,1.91,0.69c0.75,0,1.5,0,2.25,0c0.69,0.23,1.39,0.46,2.08,0.69    c0.58,0.75,1.16,1.5,1.73,2.25l-0.24,0.69c-2.16,0.03-4.32,0.06-6.48,0.09c-0.68-0.01-1.36-0.01-2.05-0.02    c-1.29-0.54-2.59-1.09-3.88-1.63c-2.34-0.39-4.51-1.67-6.68-2.52c-1.23-0.48-3.7,0.15-4.41-0.25c-1.56,0.52-3.12,1.04-4.68,1.56    c-0.92,0.58-1.85,1.16-2.77,1.73c-0.29,0.29-0.58,0.58-0.87,0.87c-0.73,0.44-1.51,0.89-1.98,1.64c-0.26,0.42-0.49,0.93-0.97,1.13    c-0.06,1.27-0.12,2.54-0.17,3.81c-0.19,1.71-0.2,3.72,0.13,5.37c0.26,2.02,0.42,4.11,1.14,6.04c0.39,1.1,0.77,2.21,1.16,3.31    c1.37,1.72,2.84,3.16,4.33,4.85c0.4,0.69,0.81,1.39,1.21,2.08c1.16,2.77,2.31,5.54,3.47,8.32c-0.15,1.28-0.29,2.55-0.44,3.83    c-0.32,0.94-0.76,2.03-0.72,3.03c-0.47,0.51-1.1,2.29-1.34,3.05c-0.03,0.45-0.06,0.91-0.1,1.36c-0.23,0.75-0.45,1.51-0.68,2.26    c-0.29,1.07-0.57,2.15-0.86,3.22c-0.22,0.41-0.74,1.04-0.36,1.45c-0.46,0.99-0.34,1.16-0.37,2.19c-0.3,0.48-1.65,2.16-1.49,2.24    L299.6,140.15z"/>
		
			<circle cx="268.71" cy="88.36" r="1.586"/>
	</g>
	<g id="__Tuzluca">
		<path d="M149.7,151.96    c1.44-2.29,2.88-4.58,4.32-6.87c0.35-0.35,0.69-0.69,1.04-1.04c0.64-0.92,1.27-1.85,1.91-2.77c1.15-1.47,2.44-2.76,3.47-4.33    c1.57-2.39,3-3.01,2.78-6.2c0.63-0.76,1.26-1.53,1.9-2.29c0.55-1.7,1.15-3.37,1.4-5.17c0.17-0.76,0.34-1.52,0.5-2.28    c0.84-1.19,1.67-2.38,2.51-3.57c0.95-1.06,1.91-2.13,2.86-3.19c0.4-0.81,0.81-1.62,1.21-2.43c0.12-0.75,0.23-1.5,0.35-2.25    c0.33-2.09-0.53-3.37-1.01-5.26c-0.06-0.66-0.12-1.32-0.17-1.99c0.45-0.62,0.33-3.6,0.42-4.54c0.02-0.9,0.03-1.8,0.05-2.7    c0.48-0.57,0.37-2.09,0.45-2.85c0.15-0.86,0.29-1.73,0.44-2.59c0.22-1.64-0.15-3.23-0.5-4.79c0.1-0.37,0.2-0.73,0.3-1.1    c1-0.92,2.26-2.83,1.84-4.32c-0.52-1.5-1.04-3-1.55-4.5c-0.16-0.58-0.32-1.16-0.48-1.73c-0.07-1.33-0.14-2.67-0.21-4    c-0.09-0.84-0.63-3.15-0.27-3.82c-0.05-1.58-0.19-3.27,1.04-4.5c-0.08-0.55-0.16-1.09-0.24-1.64c0.35-0.29,0.46-0.76,0.89-0.87    l0.14,0.18c-0.01-0.06-0.03-0.12-0.04-0.18c-0.94-0.78-1.89-1.56-2.83-2.34c-0.98-0.12-1.96-0.23-2.95-0.35    c-0.72-0.49-1.65-1.59-2.6-1.56c-0.87-1.09-1.73-2.19-2.6-3.28c-1.28,0.12-2.34,0.84-3.49,1.48c-0.36,0.2-0.77,0.06-1.01,0.42    c-0.03-0.12-0.2-1.21-0.52-1.22c-0.87-0.03-1.74-0.28-2.6,0.18c-0.57,0.3-1.54,1.37-2.25,1.21c-0.81-0.35-1.62-0.69-2.43-1.04    c-0.69-0.28-1.09-0.02-1.77-0.55c-0.83-0.64-1.8-1.72-2.91-1.88c-0.4-0.66-0.81-1.32-1.21-1.99c-0.68-0.71-2.05-0.64-2.95-0.61    c-0.4-0.24-0.76-0.69-1.21-0.69c-0.49-0.75-1.13-3.17-1.6-3.39c-1.32-0.62-3.19-0.29-3.64-1.82c-0.43-1.45-0.24-2.65-1.01-4.13    c-0.31-0.59-0.61-1.25-1.2-1.23c-1.87,0.19-3.57,0.07-5.54,0.13c-1.23,0.04-2.42,0.34-3.64,0.4c-0.93-0.24-1.86-0.48-2.78-0.71    c-1.3-0.12-2.8,0.2-3.8,1.06c-0.79,0.15-1.58,0.2-2.25,0.69c-0.04,1.18-1.08,2.29-1.73,3.29c-0.2,0.3-0.44,0.87-0.87,0.87    c-0.64,0.19-1.24,0.44-1.79,0.07c-0.56-0.43-1.12-0.86-1.68-1.28c-2.43-0.29-4.85-0.58-7.28-0.87c-0.69,0.06-1.39,0.12-2.08,0.17    c-2.08,1.16-4.16,2.31-6.24,3.47c-1.15,0.4-2.31,0.81-3.46,1.21c-0.98-0.1-1.96-0.2-2.95-0.3c-1.62-0.59-3.23-1.19-4.85-1.78    c-0.98-0.12-1.96-0.23-2.95-0.35c-0.29,0.23-2.87-1.15-3.65-1.6c-2.39-1.34-5.09-1.53-7.79-1.69c-2.02-0.17-4.04-0.35-6.06-0.52    c-2.98,0.79-6.25,4.19-6.91,7.28c-0.12,0.92-0.24,1.85-0.36,2.77c0.06,0.4,0.12,0.81,0.17,1.21c0.17,0.62,0.33,1.23,0.5,1.85    c0.52,0.6,1.12,2.53,1.27,3.35c0.31,1.66,0.83,2.51,0.83,3.2c0,0.52-0.52,2.6-1.21,3.21c-2.95,2.77-5.89,5.54-8.84,8.32    c-1.41,1.58-2.05,3.34-3.09,5.07c-0.55,0.99-1.1,1.99-1.65,2.98c-0.05,0.43-0.1,0.87-0.15,1.3c-0.07,0.27-0.34,1.4-0.17,1.4    c3.01-0.12,6.03-0.23,9.04-0.35c2.48,0.53,4.95,1.05,7.43,1.58c0.56,0.14,1.12,0.29,1.67,0.43c0.34-0.14,0.52-0.02,0.85,0.12    c1.25-0.27,3.7,1.66,4.43,2.54c0.44,0.53,0.7,1.26,0.67,1.95c0.46,0.7,0.15,2.13-0.08,2.91c-0.74,2.52-2.32,4.02-2.73,6.72    c-0.16,1.11-0.32,2.21-0.48,3.32c-0.05,0.59,0.16,1.32-0.32,1.72c0.23,1.33,0.46,2.66,0.69,3.98c1.39,2.59,2.78,5.18,4.17,7.76    c1.59,2.49,3.44,4.95,4.41,7.76c0.77,2.23,0.58,4.42-0.09,6.65c-0.2,0.67,0.07,1.75-0.35,2.25c0.54,1.67,1.08,3.34,1.61,5.01    c1.15,2.46,2.43,6.46,2.2,9.19c-0.12,0.01,0.35,0.84,0.68,1.56c0.9,1.88,1.86,4.02,3.39,5.45c2.16,2,4.89,3.17,7.87,2.98    c0.29,0.02,0.58,0.04,0.88,0.06c0.4-0.23,0.81-0.46,1.21-0.69c0.52-0.29,1.04-0.58,1.56-0.87c0.58-0.46,1.16-0.92,1.73-1.39    c0.69-0.87,1.39-1.73,2.08-2.6c0.53-2.2,1.04-3.98,1.04-6.24c0-0.63,0.21-1.75-0.17-2.25c0.21-0.53,0.83-1.2,0.69-1.73    c0.58-0.64,1.16-1.27,1.73-1.91c1.6-1.84,3.02-4.12,5.5-4.95c0.59-0.2,1.18-0.4,1.78-0.6c0.58,0.29,1.16,0.58,1.73,0.87    c1.5,0.06,3,0.12,4.5,0.17c0.58,0.35,1.16,0.69,1.73,1.04c1.79,1.85,3.58,3.7,5.37,5.54c0.4,0.64,0.81,1.27,1.21,1.91    c0.75,0.87,1.5,1.73,2.25,2.6c0.49,0.73,1.41,1.11,2.08,1.56c2.24,1.51,4.74,2.28,7.42,2.86c2.15,0.32,4.29,0.64,6.44,0.95    c1.82,0.43,3.65,0.86,5.47,1.29c1,0.46,1.58,1.2,2.43,1.86C147.66,151.34,149.7,151.96,149.7,151.96z"/>
		
			<circle cx="137.99" cy="65.75" r="1.586"/>
	</g>
</g>

</svg>