<?xml version="1.0" encoding="UTF-8"?>
<!DOCTYPE svg PUBLIC "-//W3C//DTD SVG 1.1//EN" "http://www.w3.org/Graphics/SVG/1.1/DTD/svg11.dtd">
<svg version="1.1" id="HaritaCizim" xmlns="http://www.w3.org/2000/svg" xmlns:xlink="http://www.w3.org/1999/xlink" x="0px" y="0px" viewBox="0 0 447 500" preserveAspectRatio="none">
    <defs id="__def">
        <radialGradient id="f">
            <stop offset="0" stop-color="white" stop-opacity="1"/>
            <stop id="STOP1" offset=".4" stop-opacity="1"/>
            <stop offset="1" stop-color="white" stop-opacity=".2"/>
        </radialGradient>
        <filter id="__flt1" x="0" y="0" width="200%" height="200%" filterUnits="objectBoundingBox">
            <feGaussianBlur in="SourceAlpha" stdDeviation="3" result="blur1"/>
            <feSpecularLighting result="specOut" in="blur1" specularConstant="1.5" specularExponent="20" lighting-color="#bbbbbb">
                <feDistantLight azimuth="45" elevation="30"/>
            </feSpecularLighting>
            <feComposite in="specOut" in2="SourceAlpha" operator="in" result="specOut"/>
            <feComposite in="SourceGraphic" in2="specOut" operator="arithmetic" k1="0" k2="1" k3="1" k4="0"/>
        </filter>
        <filter id="__flt2" x="0" y="0" width="200%" height="200%" filterUnits="objectBoundingBox">
            <feGaussianBlur in="SourceAlpha" stdDeviation="3" result="blur1"/>
            <feSpecularLighting result="specOut" in="blur1" specularExponent="20" lighting-color="#bbbbbb">
                <fePointLight x="-2000" y="100" z="2000"/>
            </feSpecularLighting>
            <feComposite in="specOut" in2="SourceAlpha" operator="in" result="specOut"/>
            <feComposite in="SourceGraphic" in2="specOut" operator="arithmetic" k1="0" k2="1" k3="1" k4="0"/>
        </filter>
        <filter id="__flt3" x0="-50%" y0="-50%" width="200%" height="200%" filterUnits="objectBoundingBox">
            <feGaussianBlur in="SourceAlpha" stdDeviation="3" result="blur"/>
            <feOffset in="blur" dx="0" dy="0" result="offsetBlur"/>
            <feSpecularLighting in="blur" surfaceScale="4" specularConstant=".5" specularExponent="20" lighting-color="flavor" result="specOut">
                <fePointLight x="-5000" y="-10000" z="5000"/>
            </feSpecularLighting>
            <feComposite in="specOut" in2="SourceAlpha" operator="in" result="specOut"/>
            <feComposite in="SourceGraphic" in2="specOut" operator="arithmetic" k1="0" k2="1" k3="1" k4="0" result="litPaint"/>
            <feMerge>
                <feMergeNode in="offsetBlur"/>
                <feMergeNode in="litPaint"/>
            </feMerge>
        </filter>
        <filter id="__flt4" x0="-50%" y0="-50%" width="200%" height="200%">
            <feGaussianBlur in="SourceAlpha" stdDeviation="2" result="blur"/>
            <feOffset dy="-1" dx="-1"/>
            <feComposite in2="SourceAlpha" operator="arithmetic" k2="-1" k3="1" result="hlDiff"/>
            <feFlood flood-color="white" flood-opacity=".7"/>
            <feComposite in2="hlDiff" operator="in"/>
            <feComposite in2="SourceGraphic" operator="over" result="withGlow"/>
            <feOffset in="blur" dy="3" dx="3"/>
            <feComposite in2="SourceAlpha" operator="arithmetic" k2="-1" k3="1" result="shadowDiff"/>
            <feFlood flood-color="black" flood-opacity="1"/>
            <feComposite in2="shadowDiff" operator="in"/>
            <feComposite in2="withGlow" operator="over"/>
        </filter>
        <filter id="__golge1" x="0" y="0" width="200%" height="200%" filterUnits="userSpaceOnUse">
            <feOffset result="offOut" in="SourceAlpha" dx="8" dy="8"/>
            <feGaussianBlur result="blurOut" in="offOut" stdDeviation="3"/>
            <feBlend in="SourceGraphic" in2="blurOut" mode="normal"/>
        </filter>
    </defs>
    <g id="__Komsular" display="none">
        <linearGradient id="SVGID_1_" gradientUnits="userSpaceOnUse" x1="176.6272" y1="294.8823" x2="223.7185" y2="294.8823">
            <stop offset="0" style="stop-color:#FFFFFF;stop-opacity:0"/>
            <stop offset="1" style="stop-color:#79B2E0"/>
        </linearGradient>
        <path fill-rule="evenodd" clip-rule="evenodd" fill="url(#SVGID_1_)" d="M223.72,272.73c-0.28,1.44-0.91,2.9-1.55,4.22   c-0.38,0.22-0.99,0.64-1.11,1.04c-0.7,0.27-2.58,1.7-2.68,2.37c-0.64,0.54-1.7,1.4-1.74,2.34c0,0.84-0.09,2.89,0.64,3.18   c0.05,0.95,0.11,1.89,0.16,2.84c-0.12,0.31-0.25,0.45-0.16,0.79c-0.36,0.45-0.73,0.57-0.47,1.09c0.26,0.46,0.82,1.01,1.58,0.96   c-0.05,0.26-0.11,0.53-0.16,0.79c-0.01-0.09-0.03-0.18-0.04-0.28c-0.29-0.24-0.58,0.71-0.66,0.94c-0.17,0.55-0.16,1.78-0.4,2.01   c-0.52,0.38-2.15,1.62-2.52,1.12c-0.03,0.16-0.07,0.31-0.1,0.47c-0.06,0.46-0.07,0.93-0.37,1.27c0.19,0.59,0.43,2.31-0.04,2.89   c0.09,0.35,0.25,0.37,0.04,0.73c0.06,0,0.12,0,0.18,0c0.49,0,2.88,0.19,2.75,0.44c-0.4,0.54-0.8,1.07-1.2,1.61   c-0.44,0.1-1.04,0.34-1.26,0.79c-1.17-0.11-3.41-0.69-4.26,0.47c0.16,0.42,0.12,0.93,0.41,1.13c0.35,0.25,0.73,0.49,1.17,0.29   c-0.02,0.76-0.23,1.3,0.65,1.5c0.44,0.11,0.59,0.2,1.07,0.19c0.25-0.16,1.73-0.75,1.96-0.54c-0.1,0.29,0.46,0.37,0.11,0.46   c-0.63,0.17-2.33,0.28-2.69,0.75c-0.69-0.17-1.15-0.37-1.8-0.64c-0.35-0.1-0.69-0.21-1.04-0.31c-0.34,0.09-0.68,0.19-1.02,0.28   c-0.41-0.14-0.53-0.43-0.66-0.78c0.02-0.02,0.05-0.04,0.07-0.06c-0.15,0.03-0.3,0.06-0.45,0.09c-0.13,0.39-0.34,1.21-0.78,1.29   c-0.26,0.1-0.53,0.19-0.79,0.29c-0.37-0.03-0.75-0.07-1.12-0.1c-0.19,0.07-0.37,0.14-0.56,0.22c-0.16,0.12,0.44,1.72,0.57,2.03   c0.04,0.47-0.88,0.9-1.16,0.64c-0.64-0.64-1.42-1.16-2.29-1.37c0-0.16-0.01-0.31-0.01-0.47c-0.11,0.16-0.21,0.32-0.32,0.48   c-0.18,0.28-0.37,0.02-0.22,0.36c0.36,0.67,1.29,1.21,0.96,1.98c0.12,0.11,0.25,0.23,0.37,0.34c-0.37,0-0.74,0-1.1,0   c-0.41-0.4-1-1.48-1.41-1.28c-0.32,0.11-0.63,0.22-0.95,0.34c-0.54,0.45-1.09,0.89-1.63,1.34c-0.42,0.34-0.78,0-0.71,0.69   c0.21,0.92,0.41,1.84,0.62,2.76c-0.49,0.16-1.8,0.57-2.12,0.19c-0.18-0.3-0.36-0.6-0.54-0.91c-0.07-0.23,0.12-0.17,0.28-0.12   c0.12-0.36,0.11-0.63,0.47-0.79c-0.08-0.16-0.16-0.32-0.25-0.48c0.45-0.56-0.21-0.47-0.7-0.5c-0.42-0.04-0.84-0.08-1.26-0.12   c-0.37,0.19-0.75,0.37-1.12,0.56c-0.31,0.05-0.61,0.11-0.92,0.16c-0.01-0.08-0.02-0.16-0.02-0.24c-0.1-0.1-0.2-0.21-0.3-0.32   c0.1-0.06,0.2-0.12,0.3-0.18c0.16-0.04,0.33-0.09,0.49-0.13c0.54-0.68,1.08-1.35,1.62-2.03c0.5-0.53,1.18-0.82,1.42-1.59   c0.11-0.34,0.53-1.28,0.35-1.55c-0.31-0.46-0.46-0.88-1.02-0.79c-0.88,0.16-1.76,0.32-2.64,0.48c0.41-0.51,0.81-1.02,1.22-1.52   c-0.01-0.08-0.02-0.16-0.02-0.24c0.34-0.13,0.65-0.14,0.29-0.23c-0.52-0.11-1.26-0.46-1.7-0.27c-0.07-0.34-0.15-0.46,0-0.79   c-0.16-0.21-0.32-0.42-0.47-0.63c-0.12,0.04-0.24,0.08-0.36,0.11c0-0.44-0.21-0.82-0.55-1.01c-0.5-0.22-1.93-0.39-2.56-0.21   c0.12-0.08,0.23-0.15,0.35-0.23c0.24-0.14,0.29-0.1,0.28-0.4c0.53-0.14,1.39-0.67,1.89-0.32c-0.01-0.1-0.02-0.2-0.03-0.31   c-0.09-0.56-0.58-0.78-0.28-1.27c-0.07-0.01-0.15-0.02-0.22-0.02c-0.41-0.04-1.66-0.19-1.69-0.45c-0.13-1.04-0.55-2.9-1.76-3.13   c-0.13-0.03-0.25-0.06-0.37-0.09c-0.38,0.34-0.77,0.68-1.15,1.02c-0.19-0.22-0.24-0.19-0.16-0.47c-0.58-0.16-1.16-0.32-1.74-0.47   c-0.4-0.71-0.55-1.81-1.58-1.1c-0.42-0.74-0.84-1.47-1.26-2.21c-0.42-0.53-0.84-1.05-1.26-1.58c-0.36-0.1-1.93-0.05-1.84-0.3   c0.12-0.32,0.24-0.64,0.36-0.97c0.27-0.36,0.55-0.71,0.82-1.07c-0.08-0.52-0.24-1.06-0.76-1.29c0.11,0.05,0.21,0.1,0.32,0.16   c0.51-0.32,0.59-0.7,1.21-0.6c0.07-0.1,0.14-0.2,0.21-0.31c-0.08,0.37-0.17,0.74-0.25,1.11c0.77,0.56,1.14,1.25,1.72,1.94   c0.73,0.86,1.45,1.45,2.01,2.43c0,1.29,0.31,2.52,1.26,3.47c0.48-0.3,1.74-0.35,2.05-0.95c0.14,0.06,0.27,0.13,0.41,0.19   c0.4,0.09,0.33-0.05,0.54,0.44c0.69,0,1.39,0.32,1.89,0.79c0.21,0.26,0.42,0.53,0.63,0.79c0.02,0.54,0.25,1.26,0.78,1.25   c0.32-0.01,0.2,0.05,0.48-0.3c0.26,0.16,0.53,0.32,0.79,0.47c0.51,0.03,0.83-0.13,1.26,0.16c0.42-0.53,0.84-1.05,1.26-1.58   c-0.08,0.34-0.26,0.88,0,1.1c-0.53,0.74-1.34,1.72-1.34,2.67c-0.35,0.15-0.51,0.08-0.29,0.25c0.35,0.29,0.69,0.57,1.04,0.86   c0.35,0.05,0.71,0.11,1.06,0.16c0.46-0.11,1.15-0.44,1.58-0.32c0.42-0.22,1.36-0.85,1.82-0.39c0.45,0.48,1.64,2.07,1.47,2.69   c-0.16,0.51-1.13,2.33-1.71,2.43c0.09-0.01,0.19-0.03,0.28-0.04c0.17,0.01,0.34,0.03,0.51,0.04c0.52-0.39,1.41-1.19,2.05-1.26   c-0.05-0.4,0.02-0.52-0.32-0.79c0.05-0.07,0.1-0.14,0.15-0.21c0.47-0.4,0.95-0.81,1.42-1.21c0.1,0.06,0.21,0.11,0.32,0.17   c0.16-0.06,0.32-0.11,0.47-0.17c0.32,0.21,0.63,0.42,0.95,0.63c0.26,0.67,0.68,1.25,0.47,1.89c0.14-0.08,0.29-0.15,0.43-0.23   c0.22-0.13,0.45-0.27,0.68-0.4c-0.24-0.56-0.49-1.12-0.73-1.69c0.3-0.54,0.59-1.08,0.89-1.63c-0.03-0.33-0.21-1.08,0.02-1.21   c0.74-0.39,1.33-0.37,2.19-0.37c0.27,0.39,0.78,1.02,0.63,1.42c0.14-0.05,0.27-0.1,0.41-0.15c0.57-0.28,1.55-0.81,1.33-1.32   c-0.13-0.55-0.93-0.74,0.23-1.24c0.5-0.19,0.94,0.19,1.51,0.19c-0.01-0.27,0.05-0.43-0.16-0.63c0.21-0.29,0.53-0.59,0.47-0.95   c0.21-0.08,0.65-0.11,0.58-0.28c-0.2-0.29-0.4-0.58-0.6-0.87c-0.12,0.02-0.45,0.05-0.46-0.14c0.06-0.25,0.11-0.51,0.17-0.76   c0.32-0.39,1.01-0.99,0.95-1.42c0.47-0.21,0.95-0.42,1.42-0.63c0.02-0.66-0.19-0.89,0.5-1.17c0.32-0.12,0.44-0.08,0.6-0.4   c0.36,0.08,1.13,0.19,1.14,0.16c0.13-0.46,0.41-0.66,0.09-1.05c-0.04-0.12-0.09-0.25-0.13-0.37c-0.42-0.27-0.66-0.27-0.63-0.79   c-0.6,0.6-1.2,0.03-0.93-0.73c-0.01-0.13-0.01-0.25-0.02-0.38c0.48-0.12,1.63-0.18,1.58-0.79c0.1-0.88,0.2-1.76,0.3-2.65   c-0.08-0.69-0.62-1.44-0.3-2.08c-0.14-0.22-0.27-0.44-0.41-0.66c-0.07-0.01-0.15-0.02-0.22-0.03c0.99-0.92,1.33-3.92,2.84-4.04   c0.32-0.61,0.45-1.2,1.26-1.1c0.36-0.37,1.01-1.23,1.58-1.1c0.37-0.42,0.67-1.26,1.26-1.26c0.66-1.18,1.31-1.89,0.95-3.31   C223.21,272.77,223.46,272.75,223.72,272.73z"/>
        <linearGradient id="SVGID_2_" gradientUnits="userSpaceOnUse" x1="168.8306" y1="376.8843" x2="178.2007" y2="328.4334">
            <stop offset="0" style="stop-color:#FFFFFF;stop-opacity:0"/>
            <stop offset="1" style="stop-color:#79B2E0"/>
        </linearGradient>
        <path fill-rule="evenodd" clip-rule="evenodd" fill="url(#SVGID_2_)" d="M183.83,332.57c-0.05,0.09-0.1,0.19-0.14,0.28   c-0.27,0.54,0.14,2.26,0.14,3.03c0.58,0.21,1.16,0.42,1.74,0.63c-0.11,0.05-0.21,0.1-0.32,0.14c-0.21,0.06-0.42,0.11-0.63,0.17   c0,0.56,0.23,1.98-0.16,2.37c-0.1,0.11-0.21,0.21-0.32,0.32c-0.35,0-1.89-0.34-1.89-0.16c0.36,0.42,0.72,0.83,1.08,1.25   c-0.05,0.38-0.17,1.11,0.02,1.43c-0.72,1.1-1.79,2.24-1.75,3.62c-0.05,0.63-0.1,1.27-0.14,1.9c0.11,0,0.21,0,0.32,0   c0.37,0,0.73-0.25,0.78-0.63c0.42,0,0.84,0,1.26,0c0.53-0.26,1.05-0.53,1.58-0.79c1.84,0.32,3.68,0.63,5.52,0.95   c0.98,0.92,1.61,2.08,2.52,3c0.34,0.06,0.46,0.17,0.79,0c1.04,0.71,1.52,1.52,2.37,2.37c0.21,0.21,0.42,0.42,0.63,0.63   c0.56,0.36,2.05,0.48,2.05,1.42c0.17,0.17,0.35,0.33,0.52,0.5c0.03,0.19,0.07,0.38,0.1,0.57c0.03,0.28-1.76,0.51-2.05,0.51   c0.55,0,1.11-0.86,0.45-1.04c-0.73-0.13-1.46-0.25-2.19-0.38c-0.26-0.16-0.53-0.32-0.79-0.47c-0.84-0.16-1.68-0.32-2.52-0.47   c-0.88-0.88-1.35-2.04-2.68-2.37c-0.76,0-0.04,0.78-0.49,0.79c-0.15-0.06-0.31-0.11-0.46-0.17c-0.47-0.42-0.95-0.84-1.42-1.26   c-0.61-0.82,0.17-1.53-0.95-2.21c-0.63,0-1.37-0.42-1.89-0.16c-0.63-0.5-1.1-0.74-1.89-0.48c-0.6,0.35-1.2,0.7-1.79,1.04   c-0.35,0.13-0.7,0.25-1.04,0.38c-0.52-0.52-0.37-0.76-1.1-1.26c-0.23,0.23-0.48,0.16-0.79,0.16c-0.89,0.37-1.79,0.74-2.68,1.1   c-0.37-0.12-0.74-0.14-0.95-0.47c-0.16-0.11-0.32-0.21-0.47-0.32c-0.08-0.54-0.16-1.08-0.24-1.62c-0.28-0.13-0.45-0.13-0.55-0.43   c-1.13,0.29-2.31,0.16-3.47,0.16c-0.44-0.44-0.36-0.82-0.8-0.6c-0.52,0.09-1.04,0.19-1.56,0.28c-0.37,0.26-0.74,0.53-1.1,0.79   c-0.28-0.06-0.57-0.13-0.85-0.19c-0.35,0.07-0.89,0.25-0.89,0.67c0-0.2-0.14-0.21-0.31-0.13c-0.63,0.28-1.31,1.81-1.66,1.28   c-0.48-0.74-1.18-1.33-1.18-2.41c-0.26-0.26-0.39-0.49-0.77-0.46c-0.11-0.06-0.22-0.11-0.33-0.17c-0.54,0.26-1.21,0.49-1.42,1.1   c-0.14-0.12-0.28-0.24-0.42-0.35c-0.65-0.83-0.55-2.05-1.15-2.96c-0.16,0.04-0.33,0.09-0.49,0.13c-0.55,0.41-1.69,0.84-1.52,1.62   c0.09,0.52,0.18,1.04,0.28,1.56c0.44,0.74,1.6,1.19,1.57,2.04c0,0.22,0,0.43,0.01,0.65c-0.54,0.45-1.64,1.55-2.21,1.74   c-0.26,0.86-0.52,1.71-0.78,2.57c-0.38,0.11-0.77,0.22-1.15,0.33c-0.25-0.61-0.96-1.21-0.63-1.88c0.43-0.65,0.86-1.31,1.3-1.96   c0.05-0.5,0.05-1.26,0.63-1.26c0-0.93-0.18-0.94-0.47-1.74c-0.08-0.61-0.15-1.23-0.23-1.84c-0.08-0.23-0.16-0.46-0.25-0.69   c0.06-0.69,0.06-1.79,0.47-2.37c0.11-0.05,0.21-0.11,0.32-0.16c0.32-0.69,0.63-1.47,0.63-2.21c-0.31-0.31-0.67-0.55-1.1-0.47   c0.01-0.39-0.07-0.95,0.16-1.26c-0.39-0.55-0.77-1.09-1.16-1.64c-0.17-0.59-0.34-1.19-0.51-1.78c-0.17-0.46-0.56-0.83-0.54-1.31   c-0.43-0.32-1.43-0.93-1.22-1.55c0.15-0.35,0.32-0.47,0.11-0.81c0.05,0.05,0.11,0.1,0.16,0.15c0.67,0.53,1.27,0.82,1.89,1.43   c0.29,0.28,0.38,0.74,0.79,0.79c0,0.74,0.15,1.05,0.6,1.65c0.43,0.58,1.45,1.38,1.45,2.13c0.61,0.46,1.8,1.1,1.42,2.05   c0.97-0.19,1.68,0.12,2.52,0.63c-0.02,0.6-0.32,1.28,0.15,1.68c0.12,0.08,0.24,0.39,0.36,0.13c0.9-1.91,0.34-3.59,0.4-5.57   c0.01-0.32,0.02-0.65,0.03-0.97c0.39-0.39,0.41-0.24,0.32-0.95c0.11,0.23,0.22,0.46,0.33,0.69c0.17,0.49-0.14,0.9-0.01,1.36   c0.11,0.26,0.21,0.53,0.32,0.79c-0.99,0-0.82,2.45-0.63,3.09c-0.15,0.21-0.73,1.15-0.43,1.36c0.11,0.07,0.23,0.13,0.34,0.2   c0.79,0.38,1.48,0.46,2.29,0.08c-0.16-0.1-0.32-0.21-0.47-0.32c0.16,0.05,0.32,0.11,0.47,0.16c-0.23,0.22-0.98,0.66-0.91,0.94   c0.08,0.34,0.37,1.43,0.75,1.43c0.26,0.05,0.53,0.1,0.79,0.16c0-0.5,0.5-0.68,0.79-1.06c0.47-0.61,1-2.49,1.89-2.41   c1.28,0.08,2.39,0.31,3.63,0.79c0.1,0.35,0.38,1.74,0.79,1.74c0.64,0,0.39-1.32,0.81-0.95c0.69,0.74,0.14,2.68,1.24,2.84   c0.82-0.29,1.64-0.58,2.46-0.87c0.39,0.45,0.78,0.9,1.17,1.35c0,0.76-0.5,2.05,0.63,2.05c0.26-0.32,0.53-0.63,0.79-0.95   c0.96-0.28,2.53-0.11,2.23-1.41c-0.11-0.75-1.03-2.43-0.6-2.96c0.09-0.12,0.17-0.24,0.26-0.35c0.43-0.02,0.86-0.05,1.29-0.07   c0.17-0.44,0.3-0.51,0.01-0.87c-0.47-0.58-1.79-1.5-1.19-2.27c0.54-0.67,0.89-1.52,1.94-1.52c-0.22-0.22-0.14-0.19,0.07-0.38   c0.82-0.77,0.56-0.26,1.35-0.56c-0.06-0.05-0.11-0.1-0.17-0.15c-0.3-0.3-0.51-0.02-0.29-0.46c0.2-0.4,0.42-0.57,0.62-0.97   c-0.07-0.33-0.08-0.95-0.47-0.95C183.2,333.41,183.52,332.99,183.83,332.57z"/>
        <linearGradient id="SVGID_3_" gradientUnits="userSpaceOnUse" x1="57.5068" y1="439.0342" x2="78.4485" y2="400.0296">
            <stop offset="0" style="stop-color:#FFFFFF;stop-opacity:0"/>
            <stop offset="1" style="stop-color:#79B2E0"/>
        </linearGradient>
        <path fill-rule="evenodd" clip-rule="evenodd" fill="url(#SVGID_3_)" d="M61.09,393.3c0.21,0.93,1.17,1.29,1.21,2.31   c-0.13,0.4-0.73,1.34-1.02,1.47c0.5,1.15,0.93,2.36,0.48,3.62c0.38,0.43,0.44,1.02,0.94,1.27c-0.07,1.12-0.08,1.05,0.63,1.89   c-0.1,0.42-0.21,0.84-0.32,1.26c0.48,0.45,1.33,2.39,1.1,3c0.09-0.1,0.18-0.2,0.27-0.3c0.12-0.06,0.24-0.12,0.36-0.18   c0.23-0.49,0.7-0.9,0.79-1.42c0.21-0.21,0.42-0.42,0.63-0.63c0.38-0.59,0.25-1.55,0.79-2.21c0-0.85-0.35-2.67,0.79-2.84   c-0.04-0.61-0.29-2.08,0.16-2.52c-0.05-0.26-0.11-0.53-0.16-0.79c0.11-0.79,0.21-1.58,0.32-2.37c-0.03-0.39-0.06-0.78-0.08-1.17   c1.15,1.47,1.52,3.19,2.45,4.8c0.66,0.33,0.95,1.38,1.73,1.42c0.23,0.51,0.58,1.1,1.03,1.46c0.66,0.51,1.31,1.03,1.97,1.54   c0.24,0.19,0.6,0.16,0.66,0.49c0.16,0.91-0.2,1.84,0.64,2.48c0.04,0.11,0.08,0.23,0.12,0.34c0.95,0.26,1.78,0.98,2.53,1.55   c0.38,0.28,0.63,0.78,1,0.44c0.45-0.49,0.91-0.98,1.36-1.47c0.26,0.04,0.52,0.08,0.78,0.11c0.26,0.16,0.53,0.32,0.79,0.47   c0.64,0.92,2.65,3.68,3.64,3.85c0.84,0.14,1.65-0.18,2.51-0.38c0.29-0.25,0.58-0.5,0.87-0.75c0.44-0.18,1.05-0.14,1.34-0.51   c0.53,0.37,1.05,0.74,1.58,1.1c0.26-0.03,1.48-0.37,1.1,0c-0.79,0.77-1.42,0.74-2.49,0.78c-0.11-0.04-0.23-0.09-0.34-0.13   c-0.97,0.13-1.76,0.62-2.69,0.62c-0.42,0.47-0.84,0.95-1.26,1.42c-0.66,0-2.09,0.18-2.37,0.81c-0.2,0.49-0.69,1.35-0.41,1.69   c0.25,0.17,0.49,0.33,0.73,0.5c-0.62,0.14-1.1,0.12-1.37,0.66c-0.12,0.2-0.24,0.4-0.36,0.61c-0.01,0.34,0.55,1.85,0.17,1.92   c-0.27,0.04-0.53,0.09-0.8,0.13c-0.23,0.2-0.45,0.39-0.68,0.59c-0.32-0.27-0.42-0.59-0.11-0.91c-0.16-0.37-0.32-0.74-0.47-1.1   c0.13-0.48,0.55-0.44,0.63-0.95c0.12-0.56,0.24-1.12,0.35-1.69c0.2-0.44,0.39-0.87,0.59-1.31c0.09-0.58,0.17-1.16,0.26-1.74   c0.18-0.63,0.34-2.61-0.26-2.92c-0.3-0.15-0.31-0.41-0.31-0.71c-0.37-0.25-0.5-0.67-0.93-0.57c-0.84,0.24-1.51,2.56-2.83,1.92   c-0.98-0.47-1.61-1.09-2.39-1.83c-0.14,0.02-0.29,0.05-0.43,0.07c-0.86,0.57-0.52,1.03-1.06,1.63c-0.66,0.59-1.32,1.18-1.98,1.76   c0.05,0.16,0.11,0.32,0.16,0.47c-0.11,0.21-0.21,0.42-0.32,0.63c-0.26,0.32-0.53,0.63-0.79,0.95c-0.58,0.37-1.16,0.74-1.74,1.1   c-0.98,0-1.84,0.8-2.37,1.58c0,0.22-0.01,0.44-0.01,0.66c-0.17,0.58-0.63,0.94-0.46,1.54c-0.59,0.72-2.12,2.98-1.74,3.79   c-0.26,0.17-0.49,0.47-0.79,0.32c-0.74,0.87-1.4,1.96-1.7,3.08c-0.09,0.33-0.17,1.11-0.5,1.23c-0.18,0.29-1.09,1.1-1.41,1.01   c-0.37-0.14-0.74-0.29-1.11-0.43c-0.36,0.05-1.38,0.15-1.43,0.59c-0.04,0.34-0.1,0.52,0.13,0.82c0.29,0.58,0.58,1.15,0.87,1.73   c0.52-0.18,1.73-1.06,2.17-0.62c0,0.47,0.02,0.86,0.32,1.26c0.27,0.36,1.06,0.74,0.9,1.24c-0.1,0.29-0.69,2.11-1,1.82   c-0.44-0.6-0.88-1.2-1.32-1.8c-0.37-0.05-0.74-0.1-1.1-0.16c-0.43-0.03-0.39-0.17-0.79,0.16c-0.26-0.37-0.53-0.74-0.79-1.1   c-0.2-0.08-0.39-0.15-0.59-0.23c0.23-0.34,0.65-0.59,0.56-1.02c-0.17-0.75-0.44-1.27-0.44-2.06c-0.37-0.26-0.74-0.53-1.1-0.79   c0.29,0,2.84,0.55,2.37-0.32c0-0.26,0-0.53,0-0.79c-0.42,0.05-0.84,0.11-1.26,0.16c0.06-0.35,0.04-0.72,0.32-0.95   c-0.08-0.08-0.16-0.17-0.25-0.25c-0.38-0.38-2.88-0.66-3.22-0.38c-0.89-0.47-1.79-0.95-2.68-1.42c-0.56,0-0.15-0.63,0.16-0.63   c0.58,0.17,1.17,0.35,1.75,0.52c0.47,0.04,0.94,0.08,1.4,0.11c0.55,0.55,1.43,0.41,2.14,0.53c0.51,0.21,1.02,0.43,1.53,0.64   c0.25-0.52,0.27-0.9,0.27-1.48c-0.42-0.55-1.43-1.87-0.74-2.35c0.55-0.39,0.62,0.29,1.24-0.12c0.2-0.28,0.4-0.56,0.61-0.84   c-0.75,0-1.02-0.31-1.42-0.95c0.49-0.19,1.38-0.27,1.48-0.79c-0.02-0.16-0.04-0.32-0.06-0.47c0.37-1.16,0.74-2.31,1.1-3.47   c-0.33-0.4-1.1-0.88-1.1-1.42c0.35-0.33,0.95-0.58,1.01-0.97c0.03-0.2,0.06-0.4,0.09-0.61c-0.04-0.2-0.12-0.32-0.32-0.32   c-0.13-0.44-0.26-2.05-0.79-2.05c-0.77-0.42-1.56-0.3-2.37-0.47c0.05-0.05,0.11-0.1,0.16-0.15c0.46-0.42,2.07-2.44,2.07-2.87   c0-0.4-0.13-1.06,0.13-1.4c-0.26-0.53-0.53-1.05-0.79-1.58c0.23-0.96,0.13-2.37,0.79-3.15c-0.43-0.6-1.66-2.28-0.95-3   c0.47-0.32,0.95-0.63,1.42-0.95c0-0.6-0.35-0.97-0.32-1.58c0.1-0.37,0.21-0.74,0.32-1.1C61,392.98,61.04,393.14,61.09,393.3z"/>
        <linearGradient id="SVGID_4_" gradientUnits="userSpaceOnUse" x1="285.436" y1="372.2397" x2="298.344" y2="372.2397">
            <stop offset="0" style="stop-color:#FFFFFF;stop-opacity:0"/>
            <stop offset="1" style="stop-color:#79B2E0"/>
        </linearGradient>
        <path fill-rule="evenodd" clip-rule="evenodd" fill="url(#SVGID_4_)" d="M288.01,373.5c0.08,0.24,0.16,0.48,0.24,0.71   c-0.16,0.32-0.32,0.63-0.47,0.95c-0.56,0.38-1.71,0.91-1.89,1.58c-0.09,0.34-0.88,0.92-0.11,0.92c0.87-0.05,1.63-0.52,2.49-0.13   c0.1-0.05,0.2-0.1,0.3-0.15c0,0.05,0,0.11,0,0.16c-0.12,0.45-0.48,1.21-0.17,1.61c0.27,0.2,0.54,0.4,0.8,0.6   c-0.1,0.1-0.21,0.21-0.32,0.32c0.15-0.07,0.29-0.15,0.44-0.22c0.86-0.42,1.46-0.58,1.99-1.48c0.87,0.02,1.74,0.04,2.61,0.06   c0.25-0.02,0.81,0.03,0.78-0.25c-0.05-0.42-0.1-0.84-0.14-1.26c-0.74,0-1.47,0-2.21,0c0.05-0.24,0.11-0.48,0.16-0.72   c0.29-0.75,1.31-1.85,0.94-2.75c1.13-1.16,1.75-2.69,2.68-3.94c0.76-1.01,2.21-1.77,2.21-3.15c-0.54-0.54-0.21-1.31-0.79-1.89   c-0.13,0.15-0.64,0.63-0.32,0.63c-1.21,0.84-2.42,1.68-3.63,2.52c-0.89,1.05-1.79,2.1-2.68,3.15c-0.39,0.29-0.77,0.59-1.16,0.88   c-0.19,0.39-0.38,0.78-0.58,1.17C288.8,373.03,288.41,373.26,288.01,373.5z"/>
        <path fill-rule="evenodd" clip-rule="evenodd" fill="none" stroke="#000000" stroke-width="0.25" d="M368.3,369.72   c0.91-1.62,3.97-2.18,5.52-3.15c2-1.25,4.31-1.74,6.46-2.52c5.05-1.83,11.5-0.17,16.88-0.63c2.39-0.21,5.37-1.06,7.58,0.16   c2.05,1.13,3.81,2.76,5.63,4.11c2.37,1.75,4.39,1.78,7.3,2.35c2.28,0.45,3.68,2.38,5.55,3.59c3.67,2.38,7.29,3.35,11.48,4.31   c3.71,0.85,7.91-0.51,11.51,0.63"/>
        <path fill-rule="evenodd" clip-rule="evenodd" fill="none" stroke="#000000" stroke-width="0.25" d="M378.39,238.8   c3.8,3.07,8.28,4.73,12.34,7.06c1.15,0.66,2.18,1.66,3.44,2.08c1.21,0.41,2.51,0.34,3.79,0.47c1.16,0.12,2.46,0.31,3.62,0.48   c1.45,0.21,3.12-0.13,4.57,0.16c1.4,0.28,2.16,1.34,3.32,2.01c1.12,0.64,2.22,0.95,3.46,1.15c2.27,0.37,5.03,1.36,7.43,0.95   c2.19-0.37,4.72-1.7,7.09-2.07c2.99-0.47,5.36,0.39,8.2,0.8c1.78,0.25,3.22,0.85,5.05,0.95c2,0.11,3.67,0.19,5.52,0.63"/>
        <path fill-rule="evenodd" clip-rule="evenodd" fill="none" stroke="#000000" stroke-width="0.25" d="M303.31,58.52   c0.52-1.12,1.41-1.98,1.94-3.12c0.47-1.01,0.86-1.97,1.34-2.91c1.26-2.49,2.47-3.35,4.93-4.57c2.07-1.02,4.67-1.48,6.43-3   c1.85-1.6,2.36-4.14,2.72-6.58c0.69-4.67,0.73-10.43,4.7-13.45c1.76-1.34,4.22-2.66,5.6-4.34c1.52-1.85,2.78-4.18,3.94-6.31   c1.57-2.9,3.19-5.97,5.28-8.6c2.28-2.86,4.74-4.5,8.25-5.63"/>
        <path fill-rule="evenodd" clip-rule="evenodd" fill="none" stroke="#000000" stroke-width="0.25" d="M180.6,65.46   c-0.77-2.24-3.74-3.09-4.1-5.68c-0.37-2.64,0.66-5.58,0.63-8.36c-0.03-2.35,0.13-5.39-0.35-7.73c-0.3-1.44-1.21-2.67-1.23-4.26   c-0.02-1.34,0.4-2.48,0.48-3.78c0.2-3.17-1.23-4.15-2.65-6.63c-1.32-2.32-1.65-4.92-1.77-7.61c-0.16-3.5-0.79-5.73,1.58-8.64   c1.98-2.43,3.03-4.74,3.48-7.88c0.21-1.48,0.15-3.04,0.15-4.57"/>
        <path fill-rule="evenodd" clip-rule="evenodd" fill="none" stroke="#000000" stroke-width="0.25" d="M90.22,151.58   c-1.38-3,1.57-3.77,2.05-6.31c0.2-1.04-0.33-2.49-1.06-3.2c-1.03-1-1.9-0.4-3.08-0.87c-1.94-0.76-4.24-4.46-4.03-6.51   c0.29-2.83,0.98-5.92,1.38-8.87c0.82-6.02-1.72-10.58-7.09-13.18c-2.54-1.23-6,0.22-8.36-1.25c-0.99-0.62-1.6-1.46-2.08-2.41   c-0.67-1.34-1.3-2.34-2.14-3.64c-0.66-1.02-1.19-2.18-1.6-3.3c-0.7-1.92-0.85-1.83-2.69-1.21c-2.55,0.85-5.25,0.83-7.76,1.34   c-2.82,0.57-4.14,2.44-6.55,3.7c-0.93,0.48-2.18,0.64-3.04,1.22c-0.98,0.65-1.58,1.77-2.24,2.68   c-5.61,7.82-13.16,14.96-20.03,21.44c-1.83,1.73-3.89,2.59-5.68,4.23c-1.96,1.79-3.31,2.93-4.57,5.24c-1.04,1.91-3.1,2.8-4.19,4.61   c-0.69,1.14-0.48,2.38-1.27,3.48c-0.56,0.79-1.34,1.42-2.04,2.21c-0.47,0.53-0.92,1.07-1.3,1.69"/>
        <path fill-rule="evenodd" clip-rule="evenodd" fill="none" stroke="#000000" stroke-width="0.25" d="M59.94,296.06   c-2.66,0.19-5.41-0.44-8.2-0.16c-1.34,0.14-2.22,0.7-3.48,1.1c-1.16,0.37-2.41,0.33-3.62,0.51c-2.23,0.34-4.58,0.99-6.43,2.21   c-2.07,1.38-4.26,1.83-6.35,3.08c-2.18,1.31-5.03,4.13-5.83,6.51c-0.39,1.17-0.32,2.4-0.99,3.47c-0.66,1.06-1.65,1.85-2.33,2.84   c-1.34,1.93-1.02,3.94-2.72,5.8c-1.03,1.13-0.97,1.94-1.53,3.2c-0.55,1.22-1.89,1.94-2.88,2.63c-1.48,1.04-2.23,2.11-3.32,3.47   c-1.06,1.32-2.54,2.14-3.71,3.4c-1.22,1.31-2.11,2.87-3.66,3.9c-1.6,1.06-3.41,1.78-4.89,3"/>
        <path fill-rule="evenodd" clip-rule="evenodd" fill="none" stroke="#000000" stroke-width="0.25" d="M156.78,459.31   c-1.9,1.36-3.52,2.77-4.86,4.73c-0.63,0.92-1.02,1.99-1.92,2.73c-0.85,0.69-2.15,0.71-2.89,1.34c-1.48,1.27-2.63,4.63-3.15,6.35   c-0.79,2.63-1.47,4.04-3.59,5.99c-1.97,1.81-4.4,1.88-6.82,2.65c-2.03,0.65-3.71,2.86-5.01,4.44c-0.65,0.79-1.3,1.84-1.86,2.72   c-0.48,0.76-1.54,1.91-1.77,2.81c-0.38,1.48,0.61,5.86,1.43,6.94"/>
        <text transform="matrix(0.9068 -0.4215 0.4215 0.9068 286.6653 471.3555)" font-family="'MyriadPro-Regular'" font-size="7.571">G A Z İ A N T E P</text>
        <text transform="matrix(0.2186 -0.9758 0.9758 0.2186 398.0557 331.9829)" font-family="'MyriadPro-Regular'" font-size="7.571">A D I Y A M A N</text>
        <text transform="matrix(0.3448 0.9387 -0.9387 0.3448 408.4653 129.5867)" font-family="'MyriadPro-Regular'" font-size="7.571">M A L A T Y A</text>
        <text transform="matrix(1 0 0 1 239.5896 28.7065)" font-family="'MyriadPro-Regular'" font-size="7.571">S İ V A S</text>
        <text transform="matrix(0.7144 -0.6997 0.6997 0.7144 107.0898 92.3684)" font-family="'MyriadPro-Regular'" font-size="7.571">K A Y S E R İ</text>
        <text transform="matrix(0.3043 -0.9526 0.9526 0.3043 23.7131 241.2974)" font-family="'MyriadPro-Regular'" font-size="7.571">A D A N A</text>
        <text transform="matrix(0.8171 0.5765 -0.5765 0.8171 26.8237 431.6848)" font-family="'MyriadPro-Regular'" font-size="7.571">O S M A N İ Y E</text>
    </g>
    <g id="__Harita" display="none">
        <rect id="__cer" x="0" y="0" fill="#000000" opacity="0" width="447" height="500"/>
        <g id="__Göksun">
            <path d="M150.32,133.26    c1.23,0.87,2.65,2.32,3.23,3.89c0.24,0.65,1.09,1.1,0.95,1.89c0.21,0.53,0.42,1.05,0.63,1.58c2.16,2.78,3.44,5.88,5.05,8.99    c0.42,1.37,0.84,2.73,1.26,4.1c0.57,1.38,1.85,2.26,2.72,3.42c1.1,1.45,2.39,2.88,3.83,4.03c0.92,0.62,1.84,1.24,2.76,1.86    c0.84,0.84,1.68,1.68,2.52,2.52c0.16,0.36,0.27,0.95,0.63,1.1c0,0.32-0.07,0.55,0.16,0.79c-0.14,1.5-0.17,3.15-0.92,4.48    c-0.35,0.42-0.7,0.83-1.05,1.25c-0.09,0-0.18,0.01-0.27,0.01c-0.41,0.98-0.82,1.96-1.23,2.93c-0.16,0.63-0.32,1.26-0.47,1.89    c0.11,0.74,0.21,1.47,0.32,2.21c0.21,0.37,0.42,0.74,0.63,1.1c0.42,0.37,0.84,0.74,1.26,1.1c0.68,0.42,1.37,0.84,2.05,1.26    c0.95,0.26,1.89,0.53,2.84,0.79c0.81-0.07,1.62-0.14,2.43-0.22c0.39,0.02,1.11-0.07,1.36-0.41c0.74-0.1,1.47-0.21,2.21-0.32    c0.86,0.2,3.29,0.87,3.94,0.16c0.71,0.09,2.11,0.48,2.68,0c1.74,0.39,3.35,0.54,5.18,0.69c0.27-0.03,0.54-0.05,0.81-0.08    c0.9,0.11,1.79,0.22,2.69,0.33c0.37,0.05,0.74,0.1,1.1,0.16c1.1-0.32,2.21-0.63,3.31-0.95c1.1-0.18,2.19-0.35,3.29-0.53    c1.47-0.32,2.79-0.76,4.28-0.89c2.21,0.26,4.42,0.53,6.63,0.79c0.79,0.09,3.41-0.16,3.79,0.32c0.55-0.2,0.94-0.34,1.48-0.55    c0.4-0.16,0.92-0.05,1.2-0.39c1.23,0.37,2.32,0.43,3.62,0.49c0.86,0.12,1.71,0.24,2.57,0.36c0.23,0.08,0.75,0.18,0.75,0.39    c0.06,0.86,0.55,0.39-0.13,1.14c-0.38,0.46-0.75,0.91-1.13,1.37c-0.32,0.22-0.63,0.44-0.95,0.66c-0.68,0.9-1.3,2.7-0.79,3.79    c-0.11,0.47-0.22,0.94-0.33,1.41c-0.09,1.79,0.8,5.46-0.78,6.79c0,0.74,0,1.47,0,2.21c-0.28,0.41-0.91,2.69-0.79,3.16    c-0.21,0.32-0.42,0.63-0.63,0.95c-0.21,0.37-0.42,0.74-0.63,1.1c-0.27,0.71-1.09,2.16-1.74,2.52c-0.28,0.75-0.29,1.68-1.1,2.05    c-0.52,0.86-0.73,1.76-1.15,2.64c0.28,0.5,0.48,0.58,0.04,0.93c-0.21,0.14-0.35,1.41-0.55,1.12c-0.16,0.39-0.43,0.75-0.63,1.18    c-0.12,0.39-0.43,0.59-0.55,0.91c-0.6,0.76-1.2,1.52-1.8,2.29c-0.49,0.53-1.75,1.59-2.44,1.43c-0.58-0.16-1.17,0.03-1.91-0.19    c-2.57-1.03-5.15-2.06-7.72-3.09c-0.56-0.19-2.54-1.51-2.98-1.34c-0.51,0.23-0.83,0.41-1.09,0.92c-0.46,0.95-0.69,4.02-1.32,4.53    c-0.52,0.43-1.04,0.85-1.56,1.28c-1.26,0.23-2.53,0.47-3.79,0.7c-0.68,0.03-1.36,0.06-2.05,0.09c-1.95-0.24-4.05-0.61-5.99-0.46    c-1.37,0.11-2.7,0.4-4.08,0.46c-0.43,0.02-0.91,0.22-1.28,0c-0.55,0.15-1.36,0.16-1.73,0.63c-0.72,0.02-1.91-0.11-2.52,0.32    c-0.71-0.04-1.75-0.07-2.37,0.32c-0.83,0-2.14,0-2.84,0.47c-0.64,0.02-2.36,0.03-2.68,0.63c-0.32-0.05-0.63-0.1-0.95-0.16    c-1.16,0.26-2.31,0.53-3.47,0.79c-0.52,0.08-1.35-0.2-1.73,0.16c-0.53-0.16-1.05-0.32-1.58-0.47c-1.5-0.09-2.95-0.29-4.42-0.63    c-1.26-0.1-2.52-0.21-3.79-0.32c-2.99-0.68-6.01-1.72-9.15-2.05c-1.05-0.11-2,0.49-2.97,0.5c-2.78,0.04-6.45,2.6-8.39,4.52    c-1.78,1.75-2.49,3.97-3.76,6.09c-0.29,0.49-0.83,1.51-1.44,1.19c-0.24,0.51-0.38,1.22-0.95,1.42c-0.25,0.69-0.5,1.39-0.74,2.08    c-1.28,0.81-1.92,2.18-2.77,3.41c-0.46,0.69-0.92,1.39-1.38,2.08c-0.17,0.58-0.34,1.17-0.52,1.75c-0.35,0.52-0.71,1.04-1.06,1.56    c-0.54,1.25-0.71,4.09-0.47,5.36c0,0.37,0,0.74,0,1.1c-0.28,0.81-0.44,1.45-0.35,2.32c-0.25,0.54-0.5,1.08-0.75,1.62    c-0.92,0.97-1.84,1.94-2.76,2.91c-0.5,0.55-1,1.11-1.5,1.66c0,0.37-0.14,1.04-0.63,0.95c-0.21,0.47-0.42,0.95-0.63,1.42    c-0.37,0.31-0.73,0.61-1.1,0.92c-0.93,0.91-2.01,3.32-1.59,4.6c0.31,0.9,0.88,1.46,1.42,2.21c0.18,0.22,0.37,0.44,0.55,0.67    c-1.62,0.62-3.4-0.86-5.03-1.26c-1.77-0.49-3.53-0.97-5.3-1.46c-0.48-0.23-0.96-0.45-1.44-0.68c-1.78-0.25-3.56-0.49-5.34-0.74    c-1.59-0.26-3.35-0.04-4.91,0.26c-0.52,0.04-1.04,0.08-1.56,0.12c-0.63,0.24-1.26,0.48-1.89,0.72c-0.26-0.26-0.76,0-1.11,0.1    c-0.86,0.25-2.61,0.58-3.15,1.32c-1.1,0.16-2.21,0.32-3.31,0.47c-0.34,0.2-0.68,0.39-1.02,0.59c-0.41,0.18-0.9,0.18-1.19,0.52    c-0.66-0.08-1.85,0.18-2.37-0.32c-1.15,0.14-3.35,0.54-4.1,1.42c-1.06,0.24-2.45-0.05-3.43-0.48c-0.5-0.22-0.98-0.86-1.46-0.78    c0.08-0.25,0.17-0.5,0.25-0.75c0.65-1.35,1.76-2.48,2.43-3.82c0.36-0.37,0.73-0.74,1.09-1.1c0.16-0.42,0.33-0.84,0.49-1.26    c0.1-0.37,1.16-1.64,1.03-1.86c-0.59-0.76-1.18-1.52-1.76-2.28c-0.24-0.33-0.44-0.82-0.84-0.91c-0.35-1.81-0.37-3.67-0.32-5.52    c0.03-0.96,0.32-1.89,0-2.84c-0.44-1.31-1.36-2.17-2.17-3.23c-0.06-0.42-0.75-1.17-1.14-1.35c-0.79-1.18-1.74-2.78-3-3.47    c-0.5-0.27-0.68-0.93-1.26-1.1c-1.13-1.42-2.5-2.9-4.06-3.93c-1.28-0.85-2.36-0.79-3.82-0.6c-0.74,0.09-1.48,0.18-2.21,0.27    c-0.59,0.14-1.18,0.37-1.69,0.09c-0.61-0.35-1.07-0.39-1.07-1.12c-0.06-0.11,0.29-0.28,0.24-0.39c0.54-1.23,0.29-2.99,0.81-3.83    c0.25-0.4,0.66-1.27,1.24-1.21c0.16-0.85,0.46-4.01,0.95-4.42c0.03-0.88,0.92-3.04,1.74-3.31c0.42-0.68,0.84-1.37,1.26-2.05    c-0.1-0.68-0.21-1.37-0.32-2.05c0.59-1.28,0.77-2.46,1.42-3.79c0.22-0.44,0.17-1.51,0.69-1.63c0.85-0.18,2.4-0.36,2.63-1.37    c0.5-0.02,0.72-0.18,1.1,0.16c0.03-0.06,0.06-0.13,0.09-0.19c0.15-0.35,0.18-0.61,0.54-0.75c-0.13-0.79-0.77-2.85-0.32-3.47    c0.26-0.3,0.56-0.77,0.95-0.79c0.44-0.79,1.6-2.84,2.38-3.12c1.59-0.49,3.24,0.24,4.86,0.02c1.01,0.09,2.01,0.17,3.02,0.26    c0.84-0.01,1.67-0.02,2.51-0.02c1.37,0.17,2.74,0.33,4.12,0.5c1.05,0.05,2.1,0.11,3.15,0.16c0.39-0.03,0.79-0.24,1.1,0    c-0.02-0.08-0.03-0.17-0.05-0.25c-0.09-1.86-0.18-3.72-0.27-5.58c-0.05-0.53-0.11-1.05-0.16-1.58c0.06-0.83,0.13-1.66,0.19-2.49    c-0.01-0.33-0.02-0.65-0.03-0.98c-0.57-1.98-0.31-4.25-0.31-6.3c0-1.27-0.14-2.57,0.38-3.77c0.76-0.96,1.53-1.91,2.29-2.87    c1.68-2.16,3.36-4.31,5.05-6.47c0.1-0.36,0.21-0.72,0.31-1.08c-0.44-1.28-0.42-2.91-0.24-4.26c-0.52-1.31-0.23-3.78-0.23-5.22    c0-0.48,0-1.45,0.47-1.74c-0.21-0.76-0.3-1.39-0.32-2.17c0.38-1.69,0.76-3.38,1.14-5.08c0.3-2.15,0.59-4.3,0.89-6.45    c2.64-1.63,5.29-3.27,7.94-4.9c1.87-1.57,4.38-2.25,6.47-3.54c1.98-1.23,4.54-2.4,6.76-3.11c2.1-0.26,4.21-0.53,6.31-0.79    c1.56,0.19,3.12,0.38,4.68,0.57c0.38,0.03,0.76,0.06,1.13,0.09c0.67-0.01,2.05-0.22,2.54,0.29c1.8-0.12,3.6,0.08,5.36,0.47    c0.28-0.28,0.86-0.16,1.25-0.16c1,0,1.85-0.22,2.85-0.31c1.21-0.37,2.43-0.75,3.64-1.12c1.42-0.57,2.83-1.15,4.25-1.72    c0.42-0.29,0.84-0.59,1.27-0.88c0.79-0.44,1.57-0.88,2.36-1.33C148.16,134.69,149.24,133.97,150.32,133.26z"/>
            <circle cx="114.98" cy="216.09" r="1.586"/>
        </g>
        <g id="__Pazarcık">
            <path d="M332.71,315.9    c-1.02-0.31-2.12-0.05-3.18,0.34c-0.51,0.19-1.02,0.37-1.53,0.56c-0.4,0.24-0.79,0.48-1.19,0.71c-1.01,0.47-2.02,0.94-3.04,1.4    c-1.38,0.61-2.76,1.22-4.14,1.82c-1.47,0.89-2.94,1.79-4.42,2.68c-2.92,0.75-5.77,2.07-8.83,2.21c-2.51,0.12-4.7-0.68-7.1-1.11    c-0.77-0.97-2.28-1.93-3.47-2.37c-0.31-0.11-0.69-0.5-0.79-0.79c-1.08-0.41-2.4-1.08-3.58-0.76c-1.79,0.58-4.46,4.17-5.18,5.89    c-0.47,0.16-0.23,0.78-0.25,1.18c-0.08,1.38,0.39,2.43,0.57,3.76c0.1,1.16,0.2,2.33,0.3,3.49c-0.05,2.52-0.1,5.05-0.16,7.57    c-0.28,1.42-0.57,2.84-0.85,4.26c-0.26,1.4-1.54,3.32-2.37,4.42c-1.1,1.79-2.21,3.58-3.31,5.36c-0.93,1.18-0.93,3.18-1.97,4.18    c-1.7,1.65-4.13,2.11-5.6,3.86c0.31,0.31-0.93,1.84-1.02,2.39c-0.13,0.99-0.27,1.98-0.4,2.98c-0.12,1.89,0.14,3.62-0.79,5.36    c-0.44-0.44-0.81,1.41-0.87,1.75c-0.1,0.11-0.2,0.22-0.3,0.33c-0.16,0.45-0.48,1.19-0.09,1.55c-0.37,0.84-0.74,1.68-1.1,2.52    c-0.16,0.79-0.32,1.58-0.47,2.37c-0.43,1.28-1.11,2.7-1.89,3.79c-0.21,0.47-0.42,0.95-0.63,1.42c-0.39,1.11-1.51,2.19-2.31,2.93    c-0.39,0.44-0.78,0.89-1.16,1.33c-0.13,0.43-0.51,1.04-0.32,1.42c-0.67,1.06-1.34,2.11-2.01,3.17c-0.96,2.36-1.92,4.72-2.88,7.08    c-0.25,0.72-0.89,1.88-1.58,2.21c-0.5,0.69-0.99,1.39-1.49,2.08c-0.35,0.31-0.69,0.61-1.04,0.92c-0.82,0.13-1.34,0.7-2.11,0.91    c-1.6,0.43-3.15,1.44-4.2,2.72c-0.32,0.16-0.63,0.32-0.95,0.47c-1.34,0.09-5.1,1.1-5.99-0.32c-0.2-0.16-0.51-0.35-1.1-0.63    c0.03,0.21,0.04,3.4-0.66,4.56c-0.72,0.82-1.44,1.64-2.16,2.45c-0.22,0.55-0.43,1.1-0.65,1.66c-0.02,0.61-0.04,1.22-0.05,1.83    c-0.19,0.81-0.31,0.83-0.5,1.64c-0.16,0-0.39,0.79-0.55,0.79c-0.93,1.12-1.85,2.24-2.78,3.36c-1.08,1.54-2.14,2.79-3.53,4.05    c-0.37,0.33,1.22,2.38,1.49,2.57c1.53,1.07,3.27,3.38,4.51,4.84c0.52,0.62,1.32,1.47,0.8,2.11c-0.01,0.14-0.01,0.28-0.01,0.41    c-1.23,0.41-2.4,1.02-3.42,1.97c-0.34,0.32-1.1,0.95-0.97,1.48c0.62,1.98,1.72,3.27,3.02,4.86c0.31,0.38,0.99,1.46,1.52,1.46    c0.42,0,0.95-0.11,1.26,0.16c1.21-0.05,2.42-0.1,3.63-0.16c0.73-0.02,1.46-0.04,2.18-0.05c1.14,0.14,2.58,0.16,3.65-0.26    c0.52-0.06,1.03-0.13,1.55-0.19c1.48-0.36,2.96-0.71,4.45-1.07c0.5-0.25,1.06-0.8,1.58-0.79c0.87-1.22,1.73-2.45,2.6-3.67    c0.76-1.64,0.97-3.49,2.13-5.01c0.87-1.13,2.39-1.78,3.63-2.37c2.01-0.81,4.02-1.62,6.03-2.43c1.93-0.87,3.85-1.74,5.78-2.61    c0.84-0.26,1.34-0.77,2.1-1.12c0.29,0.17,1.59-0.29,1.71-0.66c1.31-3.41,2.62-6.82,3.93-10.22c0.84-1.26,1.68-2.52,2.52-3.79    c0.56-0.55,1.11-1.09,1.67-1.64c1.46-0.38,2.67-0.68,4.16-0.89c1.74-0.24,3.98,1.14,5.64,1.27c1.17,0.42,2.34,0.83,3.5,1.25    c0.83,0.18,2.06,0.33,2.68,0.95c0.84,0.1,1.68,0.21,2.52,0.32c0.47-0.05,0.95-0.11,1.42-0.16c0.79,0.11,1.58,0.21,2.37,0.32    c2.18-0.17,4.4-0.91,6.47-1.58c1.86-0.6,3.39-1.7,4.8-3.06c0.44-0.42,1.17-0.76,1.35-1.36c0.63-0.33,3.2-2.13,3.47-2.68    c1-0.63,2-1.26,3-1.89c0.59-0.34,0.98-1.1,1.74-1.1c1.7-1.58,3.4-3.15,5.11-4.73c0.82-0.53,1.64-1.05,2.46-1.58    c1.45-0.29,2.9-0.58,4.35-0.86c2.39-0.55,4.77-1.11,7.16-1.66c0.79-0.79,1.58-1.58,2.37-2.37c0.55-0.78,1.09-1.55,1.64-2.33    c0.66-0.91,1.32-1.81,1.99-2.72c1.17-3.05,2.33-6.1,3.5-9.15c0.46-0.86,0.93-1.72,1.39-2.57c0.89-1.03,1.79-2.07,2.68-3.11    c0.53-0.51,0.86-1.48,1.58-1.74c0.91-1.17,2.05-2.36,3.31-3.15c0.71-0.45,1.4-1.58,2.21-1.74c0.29-0.47,0.43-1.1,0.95-1.26    c-0.07-0.2-0.14-0.4-0.22-0.6c-0.41-0.97-1.76-2.95-2.07-3.9c-0.26-0.58-1-1.47-1.26-2.05c-1.1-1.58-1.41-3.64-1.98-5.64    c-0.42-2.98-0.84-5.97-1.26-8.95c-0.21-1.1-0.41-2.21-0.62-3.31c-1-1.4-2.73-3.01-4.39-3.59c-0.97-0.34-2.41-0.82-3.18,0.12    c-0.47,0-0.95,0-1.42,0c-0.52,0.29-1.03,0.59-1.55,0.88c-2.12,1.07-4.24,2.14-6.36,3.2c-1.06,0.56-2.12,1.11-3.17,1.67    c-0.55,0.25-0.93,0.53-1.38,0.09c-1.1-1.1-1.38-2.66-1.89-4.11c-0.16-0.53-0.32-1.05-0.47-1.58c-0.21-0.68-0.42-1.37-0.63-2.05    c0-0.47,0-0.95,0-1.42c1.32-2.42,3.78-4.77,3.15-7.73c-0.41-0.76-0.99-1.31-1.74-1.73c-1.12,0.18-2.23,0.36-3.35,0.55    c-0.55,0.1-0.91-0.08-1.23,0.4c-0.09-0.11-0.17-0.23-0.26-0.34c-0.71-1.12-0.37-2.18,0.26-3.28c0.72-1.26,1.28-4.63,0.79-5.99    c1.22-1.15,0.23-2.44-0.52-3.55C333.17,316.59,333.24,316.06,332.71,315.9z"/>
            <circle cx="299.21" cy="371.77" r="1.586"/>
        </g>
        <g id="__Elbistan">
            <path d="M247.56,49.61    c0.47,0.34,1.5,0.59,2.05,0.32c1.05,0.1,1.94,0.21,2.99,0.23c3.1,0.19,6.21,0.37,9.32,0.56c1.2,0.11,2.4,0.23,3.6,0.34    c0.89,0.22,1.77,0.43,2.66,0.65c-0.11,0.81,1.99,1.61,2.74,1.54c0.13-0.33,0.41-1.09,0.79-1.11c6.21-0.2,12.71,1.73,18.76,2.81    c0.58,0.12,1.16,0.23,1.74,0.35c1.1,0.07,2.2,0.13,3.3,0.2c0.52,0.08,1.63,0.4,2.06,0.11c1.51,0.62,3.87,1.58,5.05,2.68    c0.31,0.29,1.09,1.17,1.08,1.26c-0.04,0.6-0.16,1.9,0.17,2.37c-0.5,1.09-1.73,4.23-3.31,4.1c-0.43,1.39-1.61,1.92-2.59,2.86    c-0.63,0.47-1.26,0.95-1.89,1.42c-0.29,0.15-0.59,0.3-0.88,0.45c-0.4,0.37-0.8,0.74-1.19,1.11c-0.92,0.52-1.83,1.05-2.75,1.57    c-0.55,1.51-1.74,2.78-2.9,3.85c-0.26,0.24-1.2,0.96-0.84,1.12c0.92,0.75,1.84,1.49,2.76,2.24c1.34,0.69,2.68,1.37,4.02,2.06    c0.62,0.54,1.23,1.07,1.85,1.61c0.25,0.31,0.5,0.62,0.74,0.94c1.16,1.18,1.84,2.84,3.36,3.63c1.05,0.37,2.1,0.74,3.15,1.11    c1.16,0.51,2.32,1.03,3.48,1.54c0.94,0.22,1.88,0.44,2.82,0.67c1.53,0.62,3.06,1.25,4.59,1.87c1.56,0.35,3.11,0.7,4.67,1.05    c2.58,0.87,4.85,2.51,7.3,3.7c3,1.46,6.17,2.14,9.29,3.18c1.63,0.73,3.27,1.45,4.9,2.18c0.45,0.43,0.9,0.86,1.35,1.29    c0.86,0.99,1.73,1.98,2.59,2.97c1.84,1.89,3.68,3.79,5.52,5.68c0.62,0.43,1.24,0.87,1.86,1.3c0.8,0.57,1.6,1.13,2.4,1.7    c1.37,0.32,2.73,0.63,4.1,0.95c0.79,0.1,1.58,0.21,2.37,0.32c1.46,0.36,3.26,1.6,4.56,2.39c1.57,0.95,1.9,2.31,3.11,3.46    c0.38,0.36,0.93,1.02,1,1.56c1.26,0.9,2.75,1.38,4.14,2.03c1.2,0.71,2.41,1.43,3.61,2.14c0.83,0.3,1.49,0.79,2.19,1.35    c0.26,0.47,0.53,0.95,0.79,1.42c0.33,0.38,0.67,0.77,1.01,1.15c0.29,0.5,0.34,1.04,0.89,1.22c0.39,2.1,0.75,4.43,0.59,6.57    c0.34,0.7,0.68,1.41,1.03,2.11c1.14,1.94,2.29,3.89,3.43,5.83c1.16,1.63,2.31,3.26,3.47,4.89c0.31,0.68,0.63,1.37,0.95,2.05    c0.37,0.84,0.74,1.68,1.1,2.52c0.37,1,0.74,2,1.11,3c0.32,0.88,0.65,1.76,0.98,2.65c0.83,1.69,1.28,3.52,1.23,5.4    c-0.01,0.37,0.07,0.86,0.32,1.1c0,1.04,0.07,1.81,0,2.84c0.05,0.37,0.1,0.74,0.16,1.1c-0.05,0.58-0.11,1.16-0.16,1.73    c-0.05,0.63-0.11,1.26-0.16,1.89c-0.08,0.48-0.37,1.14-0.16,1.58c-0.36,1.07-0.73,2.14-1.09,3.21c-0.07,0.41-0.65,2.44-0.96,2.62    c0,0.69-0.25,1.15-0.49,1.79c-0.15,0.56-0.31,1.12-0.46,1.68c-0.86,1.26-1.76,2.42-2.84,3.47c-0.28,0.51-0.57,1.03-0.85,1.54    c-1.18,1.46-2.85,2.74-4.51,3.67c-1.2,0.86-2.4,1.72-3.59,2.58c-0.45,0.37-0.96,1.18-1.61,1.2c-0.77,0.61-1.3,1.31-2.21,1.73    c-1,0.79-2,1.58-3,2.37c-0.93,0.83-2.58,2.56-3.89,1.8c-0.27-0.1-0.53-0.2-0.8-0.31c-1.59-0.92-3.18-1.84-4.78-2.76    c-1.05-0.32-2.1-0.63-3.15-0.95c-0.68-0.42-1.37-0.84-2.05-1.26c-1.47-0.47-2.94-0.95-4.42-1.42c-0.95-0.42-1.89-0.84-2.84-1.26    c-1.66-0.48-3.48-0.21-5.17-0.85c-1.96-0.4-3.92-0.8-5.88-1.2c-0.34-0.34-2.09-0.86-2.52-0.63c-1.75-0.67-4.29-1.44-6.15-1.4    c-0.47-0.01-0.95-0.01-1.42-0.01c-0.73-0.16-2.86-0.45-3.47-0.16c-1.42-0.42-2.84-0.84-4.26-1.26c-0.49-0.63-1.2-0.97-1.89-1.42    c-0.19-0.28-0.38-0.56-0.57-0.83c-0.46-0.14-1.75-1.33-1.79-1.85c-0.79-0.26-1.58-0.53-2.37-0.79c-0.49-0.2-2.75-0.42-3.15-0.16    c-1.05,0.11-2.1,0.21-3.15,0.32c-1.76,1.03-3.41,1.96-5.21,2.84c-1.89,0.63-3.79,1.26-5.68,1.88c-1.38,0.75-2.76,1.5-4.14,2.26    c-0.72,0.14-1.44,0.29-2.16,0.43c-1.05-0.16-2.1-0.32-3.15-0.47c-0.67-0.07-1.25-0.51-1.89-0.16c-0.63-0.42-1.27-0.83-1.9-1.25    c-0.5-0.45-0.99-0.9-1.49-1.35c-0.44-0.21-0.69-0.64-1.18-0.71c-0.39-0.48-0.78-0.96-1.17-1.44c-0.28-0.22-0.56-0.43-0.84-0.65    c-0.61-0.66-1.67-2.37-1.62-3.27c-0.25-0.31-0.58-0.55-0.63-0.95c-0.39-0.16-1.32-0.84-1.61-0.7c-0.3,0.15-0.51,0.38-0.75,0.06    c-1.9,0.73-3.85,0.79-5.84,0.47c-0.74,0.05-1.47,0.11-2.21,0.16c-1.47-0.32-2.94-0.63-4.42-0.95c-1.57-0.74-3.14-1.47-4.71-2.21    c-0.6-0.23-1.17-0.7-1.64-0.37c-0.22,0.17-0.21,0.28-0.43,0.05c-1,0.79-2,1.58-3,2.37c-0.62,0.23-1.24,0.46-1.86,0.69    c-3.13,1.49-6.42,2-9.81,2.63c-0.32,0.11-0.63,0.21-0.95,0.32c-0.89,0.05-1.77,0.1-2.66,0.15c-0.43,0.01-0.91,0.22-1.28,0    c-1.07,0.55-3.22,0.23-4.42,0c-0.68-0.16-1.37-0.32-2.05-0.47c-0.26-0.21-0.53-0.42-0.79-0.63c-0.58-0.25-1.17-0.49-1.75-0.74    c-0.27-0.1-1.41,1.08-1.4,0.75c0.05-0.7,0.46-1.09,0.47-1.59c0.84-0.68,1.68-1.37,2.52-2.05c0.5-0.69,1.12-2.1,1.89-2.52    c1-1.47,2-2.94,3-4.42c0.72-1.44,1.44-2.88,2.15-4.31c0.81-1.24,1.61-2.49,2.42-3.73c0.26-0.26,0.53-0.53,0.79-0.79    c0.34-0.58,0.67-1.17,1.01-1.75c0.26-0.36,0.68-0.64,0.73-1.08c0.53-0.37,1.05-0.74,1.58-1.1c-0.04-1.26,0.43-2.34,0.85-3.51    c-0.13-0.53,0.8-2.84,1.08-3.41c0.24-0.54,0.49-1.09,0.73-1.63c0.15-0.66,0.31-1.76-0.14-2.33c-0.05-0.42-0.11-0.84-0.16-1.26    c0.11-1.7,0.87-3.19,1.58-4.73c0.11-0.47,0.21-0.95,0.32-1.42c-0.02-0.51,0.26-3.33,0.47-3.63c-0.26-1.21-0.53-2.42-0.79-3.63    c-0.87-1.24-1.39-2.73-1.46-4.27c-0.04-0.79,0.19-3.6,0.68-4.09c0.1-1,0.21-2,0.32-3c-0.59-1.33-0.4-2.53-0.58-3.93    c0.21-0.79,0.41-1.58,0.62-2.37c0.25-0.79,0.5-1.59,0.75-2.38c0.76-0.76,0.59-2.98,1.1-3.63c-0.06-0.41-0.12-0.82-0.18-1.24    c-0.1-0.59-0.48-2.59-0.92-2.86c0.03-0.94,0.26-1.94,0-2.84c-0.44-0.87-0.88-1.74-1.33-2.6c0.17-0.61-1.56-2.84-2.07-3.26    c-1.65-1.38-3.75-2.88-4.84-4.78c-0.91-1.58-0.83-3.67-0.91-5.45c-0.1-1-0.21-2-0.32-3c0.06-0.57,0.13-1.13,0.19-1.7    c-0.02-0.44-0.28-1.08-0.03-1.45c-0.1-0.42-0.21-0.84-0.32-1.26c0.16-1.21,0.32-2.42,0.47-3.63c0.11-0.11,0.21-0.21,0.32-0.32    c0.32-0.32,0.76-1.15,0.79-1.58c0.77-0.86,1.54-1.71,2.32-2.57c0.59-0.77,1.19-1.55,1.78-2.32c1.11-3.12,2.06-6.1,2.11-9.47    c0.01-0.83-0.08-2.97-0.54-3.62c-0.11-1.31-0.21-2.63-0.32-3.94c0.34-2.05,0.67-4.09,1.01-6.14c0.2-0.64,0.17-1.34-0.22-1.91    c0,0.11,0,0.21,0,0.32c0.05-0.07,0.1-0.14,0.15-0.22C247.13,49.99,247.34,49.8,247.56,49.61z"/>
            <circle cx="275.08" cy="163.88" r="1.586"/>
        </g>
        <g id="__Afşin">
            <path d="M230.84,184.94    c0.5-0.69,1.12-2.1,1.89-2.52c1-1.47,2-2.94,3-4.42c0.72-1.44,1.44-2.88,2.15-4.31c0.81-1.24,1.61-2.49,2.42-3.73    c0.26-0.26,0.53-0.53,0.79-0.79c0.34-0.58,0.67-1.17,1.01-1.75c0.26-0.36,0.68-0.64,0.73-1.08c0.53-0.37,1.05-0.74,1.58-1.1    c-0.04-1.26,0.43-2.34,0.85-3.51c-0.13-0.53,0.8-2.84,1.08-3.41c0.24-0.54,0.49-1.09,0.73-1.63c0.15-0.66,0.31-1.76-0.14-2.33    c-0.05-0.42-0.11-0.84-0.16-1.26c0.11-1.7,0.87-3.19,1.58-4.73c0.11-0.47,0.21-0.95,0.32-1.42c-0.02-0.51,0.26-3.33,0.47-3.63    c-0.26-1.21-0.53-2.42-0.79-3.63c-0.87-1.24-1.39-2.73-1.46-4.27c-0.04-0.79,0.19-3.6,0.68-4.09c0.1-1,0.21-2,0.32-3    c-0.59-1.33-0.4-2.53-0.58-3.93c0.21-0.79,0.41-1.58,0.62-2.37c0.25-0.79,0.5-1.59,0.75-2.38c0.76-0.76,0.59-2.98,1.1-3.63    c-0.06-0.41-0.12-0.82-0.18-1.24c-0.1-0.59-0.48-2.59-0.92-2.86c0.03-0.94,0.26-1.94,0-2.84c-0.44-0.87-0.88-1.74-1.33-2.6    c0.17-0.61-1.56-2.84-2.07-3.26c-1.65-1.38-3.75-2.88-4.84-4.78c-0.91-1.58-0.83-3.67-0.91-5.45c-0.1-1-0.21-2-0.32-3    c0.06-0.57,0.13-1.13,0.19-1.7c-0.02-0.44-0.28-1.08-0.03-1.45c-0.1-0.42-0.21-0.84-0.32-1.26c0.16-1.21,0.32-2.42,0.47-3.63    c0.11-0.11,0.21-0.21,0.32-0.32c0.32-0.32,0.76-1.15,0.79-1.58c0.77-0.86,1.54-1.71,2.32-2.57c0.59-0.77,1.19-1.55,1.78-2.32    c1.11-3.12,2.06-6.1,2.11-9.47c0.01-0.83-0.08-2.97-0.54-3.62c-0.11-1.31-0.21-2.63-0.32-3.94c0.34-2.05,0.67-4.09,1.01-6.14    c0.2-0.64,0.17-1.34-0.22-1.91c0,0-0.05-0.32-0.32-0.32c-1.06-0.01-2.12-0.03-3.18-0.04c-2.49-0.22-4.02,0.15-5.97,1.78    c-1.79,0.5-3.58,1.01-5.38,1.51c-3.04,0.5-6.09,0.99-9.13,1.49c-0.75,0.1-3.09,0.23-3.52,0.71c-1.77,0.13-3.54,0.27-5.31,0.4    c-3.06,0.38-6.12,0.39-9.16,1c-1.73,0.25-3.46,0.49-5.19,0.74c-1.68,0.89-3.36,1.79-5.05,2.68c-1.49,0.68-3.53,0.54-4.73,1.73    c-0.32,0.11-0.63,0.21-0.95,0.32c-1.21,0.58-2.42,1.16-3.63,1.74c-0.84,0.82-4.3,2.01-5.47,1.9c-0.02-0.16-0.04-0.32-0.05-0.48    c0.08,0.5-0.57,0.7-0.99,0.82c-1.14,0.36-2.29,0.71-3.43,1.07c-0.68,0.21-1.37,0.42-2.05,0.63c-1.11,0.63-2.21,1.26-3.32,1.89    c-0.73,0.39-1.45,0.77-2.18,1.16c-1.78,1.04-3.56,2.41-4.73,4.08c-0.17,0.78-0.33,1.56-0.5,2.34c0,0.63-0.01,1.27-0.01,1.9    c0.23,1.41,0.47,2.83,0.7,4.24c0.19,0.63,0.38,1.27,0.57,1.9c0.68,1.47,1.37,2.94,2.05,4.42c0.56,0.86,1.01,2.12,1.1,3.16    c0.21,2.24-0.43,4.43-1.56,6.35c-0.22,0.46-0.43,0.92-0.65,1.38c-0.21,0.58-0.42,1.16-0.63,1.74c-0.53,1.26-1.05,2.52-1.58,3.79    c-0.47,2.73-0.95,5.47-1.42,8.2c0.08,1.65,0.25,4.09-0.16,5.68c-0.21,0.58-0.42,1.16-0.63,1.74c-0.21,0.84-0.42,1.68-0.63,2.52    c-0.27,0.37-0.54,0.75-0.8,1.12c-0.84,1.1-1.67,2.2-2.51,3.29c-0.81,0.6-1.61,1.21-2.42,1.81c-1.19,0.87-2.38,1.74-3.57,2.61    l-0.08,0.21c1.23,0.87,2.65,2.32,3.23,3.89c0.24,0.65,1.09,1.1,0.95,1.89c0.21,0.53,0.42,1.05,0.63,1.58    c2.16,2.78,3.44,5.88,5.05,8.99c0.42,1.37,0.84,2.73,1.26,4.1c0.57,1.38,1.85,2.26,2.72,3.42c1.1,1.45,2.39,2.88,3.83,4.03    c0.92,0.62,1.84,1.24,2.76,1.86c0.84,0.84,1.68,1.68,2.52,2.52c0.16,0.36,0.27,0.95,0.63,1.1c0,0.32-0.07,0.55,0.16,0.79    c-0.14,1.5-0.17,3.15-0.92,4.48c-0.35,0.42-0.7,0.83-1.05,1.25c-0.09,0-0.18,0.01-0.27,0.01c-0.41,0.98-0.82,1.96-1.23,2.93    c-0.16,0.63-0.32,1.26-0.47,1.89c0.11,0.74,0.21,1.47,0.32,2.21c0.21,0.37,0.42,0.74,0.63,1.1c0.42,0.37,0.84,0.74,1.26,1.1    c0.68,0.42,1.37,0.84,2.05,1.26c0.95,0.26,1.89,0.53,2.84,0.79c0.81-0.07,1.62-0.14,2.43-0.22c0.39,0.02,1.11-0.07,1.36-0.41    c0.74-0.1,1.47-0.21,2.21-0.32c0.86,0.2,3.29,0.87,3.94,0.16c0.71,0.09,2.11,0.48,2.68,0c1.74,0.39,3.35,0.54,5.18,0.69    c0.27-0.03,0.54-0.05,0.81-0.08c0.9,0.11,1.79,0.22,2.69,0.33c0.37,0.05,0.74,0.1,1.1,0.16c1.1-0.32,2.21-0.63,3.31-0.95    c1.1-0.18,2.19-0.35,3.29-0.53c1.47-0.32,2.79-0.76,4.28-0.89c2.21,0.26,4.42,0.53,6.63,0.79c0.79,0.09,3.41-0.16,3.79,0.32    c0.55-0.2,0.94-0.34,1.48-0.55c0.4-0.16,0.92-0.05,1.2-0.39c1.23,0.37,2.32,0.43,3.62,0.49c0.86,0.12,1.71,0.24,2.57,0.36    c0.23,0.08,0.75,0.18,0.75,0.39C230.58,184.68,230.84,184.94,230.84,184.94z"/>
            <circle cx="211.12" cy="150.08" r="1.586"/>
        </g>
        <g id="__Andırın">
            <path d="M94.87,409.7    c0.19-0.61,0.46-2.14,0.98-2.39c0.69-0.29,1.91,0.57,2.91,0.35c0.35-0.06,0.59-1.63,1.37-1.41c0.83,0.18,1.76,0.45,2.61,0.23    c0.34-0.09,0.84-0.19,1.12,0.07c1.31-0.51,2.62-1.02,3.93-1.53c0.64-0.16,1.22-0.56,1.82-0.28c0.79-0.63,3.08-0.75,3.63-1.1    l0.71-1.97c0.06-0.65,0.1-2.14,0.63-2.52c-0.01-0.43-0.12-0.93,0.16-1.26c0.04-0.63,0.04-1.72,0.47-2.21    c0.27-1.39,0.28-2.71,0.47-4.1c0.47-2.37,0.94-4.73,1.4-7.1c0.18-0.81,0.07-2.03,0.65-2.68c0.08-0.52,0.01-1.14,0.32-1.58    c-0.28-2.25-0.56-4.51-0.83-6.76c-0.14-0.85-0.29-1.7-0.43-2.55c0.14-2.09-0.19-4.81-0.5-6.92c-0.39-2.71-1.34-5.31-1.24-8.06    c0.32-1.26,0.63-2.52,0.95-3.79c0.32-0.42,0.63-0.84,0.95-1.26c0.9-1.36,1.01-3.99,2.43-5.08c0.68-0.64,1.35-1.28,2.03-1.92    c0.3-0.19,0.6-0.38,0.9-0.57c0.58-0.26,1.16-0.53,1.73-0.79c0.79-0.16,1.58-0.32,2.37-0.47c0.61-0.43,1.22-0.86,1.83-1.3    c0.49-0.41,0.99-0.82,1.48-1.23c0.53-0.16,1.05-0.32,1.58-0.47c0.68-0.47,1.37-0.95,2.05-1.42c-0.07-0.31,0.55-0.39,0.87-0.55    c0.17-0.51,0.79-0.47,0.95-1.26c0.14-0.47-1.22-1.81-1.08-2.28c-0.48-1.34-1.78-2.35-2.57-3.58c-0.32-0.5-1.06-1.46-1.63-1.64    c-0.93-1.43-1.86-2.86-2.79-4.29c-0.49-1.04-0.98-2.08-1.47-3.13c-0.32-1.47-0.63-2.94-0.95-4.42c0.07-0.8,0.35-3.01,0-3.63    c0.37-1.42,0.74-2.84,1.1-4.26c0.32-0.58,0.63-1.16,0.95-1.74c0.32-0.68,0.63-1.37,0.95-2.05c0.68-0.89,1.37-1.79,2.05-2.68    c1.07-1.6,1.18-4.49,0.95-6.31c-0.47-0.89-0.95-1.79-1.42-2.68c-0.54-1.26-1.67-3.01-2.64-3.99c-0.66-0.49-1.31-0.98-1.97-1.47    c-0.57-0.28-1.13-0.57-1.7-0.85c-0.43-0.34-1.77-1.78-2.21-1.73c-0.91-1.04-1.82-2.08-2.73-3.12c-0.85-0.85-1.49-1.75-2.05-2.77    c-0.18-0.33-0.61-0.7-0.59-1.06c-0.44-0.46-0.98-0.88-1.26-1.42c-0.43-0.84-1.63-1.16-1.94-2.11l-0.5-0.22    c-1.62,0.62-3.4-0.86-5.03-1.26c-1.77-0.49-3.53-0.97-5.3-1.46c-0.48-0.23-0.96-0.45-1.44-0.68c-1.78-0.25-3.56-0.49-5.34-0.74    c-1.59-0.26-3.35-0.04-4.91,0.26c-0.52,0.04-1.04,0.08-1.56,0.12c-0.63,0.24-1.26,0.48-1.89,0.72c-0.26-0.26-0.76,0-1.11,0.1    c-0.86,0.25-2.61,0.58-3.15,1.32c-1.1,0.16-2.21,0.32-3.31,0.47c-0.34,0.2-0.68,0.39-1.02,0.59c-0.41,0.18-0.9,0.18-1.19,0.52    c-0.66-0.08-1.85,0.18-2.37-0.32c-1.15,0.14-3.35,0.54-4.1,1.42c-1.06,0.24-2.45-0.05-3.43-0.48c-0.5-0.22-0.98-0.86-1.46-0.78    l-0.51,0.14c-1.05,1.94-2.11,3.88-3.16,5.83c-0.41,0.64-0.81,1.28-1.22,1.92c-1.63,1.52-3.26,3.05-4.89,4.57    c-0.45,1.61-0.9,3.21-1.35,4.82c1.39,1.48,3.34,2.22,4.82,3.54c0.68,0.61,1.33,0.65,1.48,1.62c0.01,0.4,0.38,0.17,0,0.49    c-0.8,0.68-1.9,0.72-2.76,1.37c-0.63,0.79-1.25,1.57-1.88,2.36c-0.48,0.15-0.95,0.3-1.43,0.44c-0.63,0.48-1.65,2.14-2.51,1.45    c-0.49,0.61-0.98,1.22-1.47,1.83c-0.19,0.15-0.38,0.29-0.58,0.44c0,0.24,0,0.48,0,0.72c0.68,1.05,1.45,1.95,2.42,2.72    c0.16,0.41,1.14,1.87,1.6,1.77c0.67,0.7,1.58,1.74,1.89,2.52c0.63,0.79,1.75,2.16,1.91,2.52c0.9,2.07,3.15,3.25,4.32,5.13    c0.05,0.68,0.11,1.37,0.16,2.05c-0.26,1.47-0.53,2.94-0.79,4.42c-0.41,1.52-0.82,3.04-1.23,4.56c0.07,1.06,0.13,2.11,0.2,3.17    c-0.13,0.73-0.26,1.47-0.39,2.2c-0.03,0.73-0.06,1.45-0.08,2.18c-0.18,0.84-0.75,1.41-1.1,2.15c-0.26,0.81-0.52,1.63-0.78,2.44    c-0.28,1.72-0.33,3.32-0.11,5.05c0.14,1.11,0.63,1.94,0.4,3.08c-0.23,1.16-0.87,2.1-0.82,3.31c-0.4,0.77-0.81,1.54-1.21,2.32    c-0.27,0.64-0.79,1.87-0.39,2.49c-0.16,0.42-0.32,0.84-0.47,1.26c-0.22,1.44,0.6,3,0.95,4.42c0.05,0.53,0.1,1.05,0.16,1.58    c0.41,0,0.63,0.63,0.79,0.95c-0.05,0.53-0.11,1.05-0.16,1.58c0.21,0,1.15,0.38,1.26,0.47c-0.43,0.6-0.87,1.17-0.99,1.91    c-0.12,0.79,0.41,3.11,0.04,3.61c0.41,0.28,0.6,0.53,1.1,0.47c0.32,0.95,0.63,1.89,0.95,2.84c0.14,0.64,0.68,0.98,0.46,1.5    c-0.39,0.78-0.92,1.17-1.09,2.13c-0.1,0.51,0.34,0.55-0.16,0.95c0.21,0.13,1.15,0.56,1.03,0.74c-0.27,0.41-0.43,1.12-0.39,1.62    c-0.11,0.11-0.64,0.94-0.47,1.1c0.48,0.48,1.12,0.69,1.58,1.26c-0.26,0.26-0.53,0.53-0.79,0.79c-0.05,0.63-0.1,1.26-0.16,1.89    c-0.41,0.41-0.83,1.78-0.32,2.05c0.63-0.16,1.26-0.32,1.89-0.47l0.16,0.32c0.04,0.16,0.08,0.32,0.12,0.48    c0.21,0.93,1.17,1.29,1.21,2.31c-0.13,0.4-0.73,1.34-1.02,1.47c0.5,1.15,0.93,2.36,0.48,3.62c0.38,0.43,0.44,1.02,0.94,1.27    c-0.07,1.12-0.08,1.05,0.63,1.89c-0.1,0.42-0.21,0.84-0.32,1.26c0.48,0.45,1.33,2.39,1.1,3c0.09-0.1,0.18-0.2,0.27-0.3    c0.12-0.06,0.24-0.12,0.36-0.18c0.23-0.49,0.7-0.9,0.79-1.42c0.21-0.21,0.42-0.42,0.63-0.63c0.38-0.59,0.25-1.55,0.79-2.21    c0-0.85-0.35-2.67,0.79-2.84c-0.04-0.61-0.29-2.08,0.16-2.52c-0.05-0.26-0.11-0.53-0.16-0.79c0.11-0.79,0.21-1.58,0.32-2.37    c-0.03-0.39-0.06-0.78-0.08-1.17c1.15,1.47,1.52,3.19,2.45,4.8c0.66,0.33,0.95,1.38,1.73,1.42c0.23,0.51,0.58,1.1,1.03,1.46    c0.66,0.51,1.31,1.03,1.97,1.54c0.24,0.19,0.6,0.16,0.66,0.49c0.16,0.91-0.2,1.84,0.64,2.48c0.04,0.11,0.08,0.23,0.12,0.34    c0.95,0.26,1.78,0.98,2.53,1.55c0.38,0.28,0.63,0.78,1,0.44c0.45-0.49,0.91-0.98,1.36-1.47c0.26,0.04,0.52,0.08,0.78,0.11    c0.26,0.16,0.53,0.32,0.79,0.47c0.64,0.92,2.65,3.68,3.64,3.85c0.84,0.14,1.65-0.18,2.51-0.38c0.29-0.25,0.58-0.5,0.87-0.75    c0.44-0.18,1.05-0.14,1.34-0.51c0.53,0.37,1.05,0.74,1.58,1.1c0.26-0.03,1.48-0.37,1.1,0L94.87,409.7z"/>
            <circle cx="81.39" cy="347.16" r="1.586"/>
        </g>
        <g id="__Dulkadiroğlu">
            <path d="M293.61,367.59    c-0.89,1.05-1.79,2.1-2.68,3.15c-0.39,0.29-0.77,0.59-1.16,0.88c-0.19,0.39-0.38,0.78-0.58,1.17c-0.39,0.24-0.79,0.47-1.18,0.71    c0.08,0.24,0.16,0.48,0.24,0.71c-0.16,0.32-0.32,0.63-0.47,0.95c-0.56,0.38-1.71,0.91-1.89,1.58c-0.09,0.34-0.88,0.92-0.11,0.92    c0.87-0.05,1.63-0.52,2.49-0.13c0.1-0.05,0.2-0.1,0.3-0.15c0,0.05,0,0.11,0,0.16c-0.12,0.45-0.48,1.21-0.17,1.61    c0.27,0.2,0.54,0.4,0.8,0.6c-0.1,0.1-0.21,0.21-0.32,0.32c0.15-0.07,0.29-0.15,0.44-0.22 M291.45,320.61    c-1.79,0.58-4.46,4.17-5.18,5.89c-0.47,0.16-0.23,0.78-0.25,1.18c-0.08,1.38,0.39,2.43,0.57,3.76c0.1,1.16,0.2,2.33,0.3,3.49    c-0.05,2.52-0.1,5.05-0.16,7.57c-0.28,1.42-0.57,2.84-0.85,4.26c-0.26,1.4-1.54,3.32-2.37,4.42c-1.1,1.79-2.21,3.58-3.31,5.36    c-0.93,1.18-0.93,3.18-1.97,4.18c-1.7,1.65-4.13,2.11-5.6,3.86c0.31,0.31-0.93,1.84-1.02,2.39c-0.13,0.99-0.27,1.98-0.4,2.98    c-0.12,1.89,0.14,3.62-0.79,5.36c-0.44-0.44-0.81,1.41-0.87,1.75c-0.1,0.11-0.2,0.22-0.3,0.33c-0.16,0.45-0.48,1.19-0.09,1.55    c-0.37,0.84-0.74,1.68-1.1,2.52c-0.16,0.79-0.32,1.58-0.47,2.37c-0.43,1.28-1.11,2.7-1.89,3.79c-0.21,0.47-0.42,0.95-0.63,1.42    c-0.39,1.11-1.51,2.19-2.31,2.93c-0.39,0.44-0.78,0.89-1.16,1.33c-0.13,0.43-0.51,1.04-0.32,1.42c-0.67,1.06-1.34,2.11-2.01,3.17    c-0.96,2.36-1.92,4.72-2.88,7.08c-0.25,0.72-0.89,1.88-1.58,2.21c-0.5,0.69-0.99,1.39-1.49,2.08c-0.35,0.31-0.69,0.61-1.04,0.92    c-0.82,0.13-1.34,0.7-2.11,0.91c-1.6,0.43-3.15,1.44-4.2,2.72c-0.32,0.16-0.63,0.32-0.95,0.47c-1.34,0.09-5.1,1.1-5.99-0.32    l-1.1-0.63c-0.54-0.3-0.79-2.11-0.93-2.81c-0.11-0.55-0.34-1.42-0.8-1.76c0.07-0.48,0.13-0.96,0.2-1.44    c-0.28-0.89-0.4-2.26-0.04-3.13c-0.84-1.05-1.71-1.6-3-1.89c0-0.45-0.57-0.55-0.95-0.63c-1.08-0.22-2.08-0.55-3.15-0.79    c-0.58-0.26-1.16-0.53-1.74-0.79c-0.26-0.26-0.53-0.53-0.79-0.79c-0.47-0.16-0.95-0.32-1.42-0.47c-0.42-0.32-0.84-0.63-1.26-0.95    c-1.25-1.46-2.51-2.92-3.76-4.37c-0.5-0.63-1.01-1.27-1.51-1.9c-0.46-0.37-0.82-1.77-1.51-1.77c-0.37-0.58-0.74-1.16-1.1-1.74    c-0.32-0.8-0.65-1.6-0.98-2.4c-1.05-1.34-2.81-1.78-4.07-2.97c0.12-0.54-0.24-1.19-0.63-1.58c0-0.61-1.15-2.33-1.64-2.78    c-0.48-0.43-2.18-0.22-2.93-0.22l-0.49-0.64c0.11-0.68,0.22-1.36,0.33-2.05c0-1.52-0.08-3.31,0.16-4.96    c-0.21-0.37,0.32-1.45,0.47-1.89c0.08-0.24,0.14-0.32,0.53-0.92c0.05-0.37,0.58-0.58,0.63-0.95c0.47-0.47,0.74-0.58,1.21-1.05    c0.21-0.53,0.42-1.05,0.63-1.58c0.56-1.06,1.12-2.12,1.68-3.18l0.22-2.03c0.78-1.79,1.09-3.88,1.27-5.87    c0.31-1.83,0.63-3.66,0.94-5.49c-0.05-1.42-0.11-2.84-0.16-4.26c0.18-0.32,0.36-0.64,0.54-0.97c0.4-0.73,0.8-1.46,1.2-2.19    c-0.32-0.72,0.19-2.82,0.32-3.63c-0.16-0.47-0.32-0.95-0.47-1.42c0.16-0.84,0.32-1.68,0.47-2.52c0.14-2.18-0.39-4.62,0.3-6.74    c0.11,0.67,0.22,1.34,0.34,2.01c0-1.79,0.53-3.31,0.66-5.08c-0.01-0.88-0.02-1.76-0.03-2.65c0-0.74,0-1.47,0-2.21    c-0.16-0.37-0.32-0.74-0.47-1.1c-0.6-2.47-1.84-5.15-3.23-7.23c-0.47-0.42-1.73-1.61-1.73-1.61c0.65,0.27,1.12,0.46,1.8,0.64    c0.36-0.47,2.06-0.58,2.69-0.75c0.35-0.09-0.22-0.17-0.11-0.46c-0.23-0.21-1.71,0.37-1.96,0.54c-0.48,0.02-0.63-0.08-1.07-0.19    c-0.88-0.2-0.67-0.75-0.65-1.5c-0.44,0.2-0.81-0.04-1.17-0.29c-0.29-0.2-0.25-0.71-0.41-1.13c0.85-1.16,3.09-0.58,4.26-0.47    c0.22-0.45,0.82-0.69,1.26-0.79c0.4-0.54,0.8-1.07,1.2-1.61c0.12-0.25-2.26-0.44-2.75-0.44c-0.06,0-0.12,0-0.18,0    c0.2-0.36,0.05-0.38-0.04-0.73c0.48-0.58,0.24-2.3,0.04-2.89c0.3-0.33,0.31-0.8,0.37-1.27c0.03-0.16,0.07-0.31,0.1-0.47    c0.38,0.5,2.01-0.74,2.52-1.12c0.25-0.23,0.23-1.46,0.4-2.01c0.07-0.22,0.36-1.17,0.66-0.94c0.01,0.09,0.03,0.18,0.04,0.28    c0.05-0.26,0.11-0.53,0.16-0.79c-0.76,0.05-1.31-0.5-1.58-0.96c-0.25-0.52,0.11-0.65,0.47-1.09c-0.09-0.34,0.04-0.48,0.16-0.79    c-0.05-0.95-0.11-1.89-0.16-2.84c-0.72-0.29-0.64-2.34-0.64-3.18c0.04-0.94,1.1-1.79,1.74-2.34c0.1-0.66,1.98-2.09,2.68-2.37    c0.12-0.4,0.73-0.82,1.11-1.04c0.65-1.33,1.28-2.78,1.55-4.22c0,0-0.49-0.92-0.9-1.09c-0.37-0.22-0.08-1.13,0-1.53    c0.15-0.68,0.3-1.37,0.44-2.06c0-1.01-0.55-1.78-0.32-2.84c-0.24-0.29-0.09-0.45-0.16-0.79c-0.19-0.92-0.49-1.74-0.6-2.69    c-0.01-0.57-0.02-1.15-0.03-1.73c-0.28-1.22-1.09-2.11-1.42-3.31c0.16-0.58,0.32-1.16,0.47-1.74c0.75-1.01,1.72-1.97,2.21-3.15    c0.33-1.59,0.66-3.18,1-4.78c0.71-1.52,1.42-3.04,2.13-4.55c0.05-0.22,0.42,0.73,0.58,1.21c0.47,0.95,0.67,1.42,0.87,1.97    c1.11,0.31,1.43,2.16,2.05,3c0.26,0.32,0.53,0.63,0.79,0.95c0.31-0.02,0.55,0.11,0.79,0.32c0.26,0.32,0.53,0.63,0.79,0.95    c1.28,1.02,2.06,1.82,2.84,3.31c0.79,0.36,1.17,1.47,1.62,2.18c1.64,2.6,1.93,5.73,3.43,8.39c1.42,1.31,2.84,2.63,4.26,3.94    c0.53,0.58,1.05,1.16,1.58,1.73c2.04,1.17,4.04,2.04,6.15,3c0.89,0.53,1.79,1.05,2.68,1.58c0.79,0.37,1.57,0.75,2.36,1.12    c2.02,0.87,3.97,1.7,6.02,2.45c0.1,0.07,0.2,0.14,0.3,0.21c-0.27,0.36,0.08,0.41,0,0.79c-0.25,1.2-0.45,2.36-0.47,3.63    c0.11,0.95,0.21,1.89,0.32,2.84c0.42,1,0.84,2,1.26,3c0.34,0.57,0.68,1.15,1.02,1.72c0.29,0.85,0.58,1.69,0.88,2.54    c0.79,0.79,1.58,1.58,2.37,2.37c0.42,0.89,0.84,1.79,1.26,2.68c0.32,1.1,0.63,2.21,0.95,3.31c0.21,0.47,0.42,0.95,0.63,1.42    c1,1,2,2,3,3c-0.05,0.55,0.6,1.44,0.96,1.9c0.89,1.21,1.78,2.42,2.67,3.62c0.42,0.47,0.84,0.95,1.26,1.42    c0.79,0.58,1.58,1.16,2.37,1.74c0.32,0.37,0.63,0.74,0.95,1.1c1.14,0.95,2.28,1.89,3.42,2.84c0.77,0.55,1.37,0.42,2.26,0.47    c0.87,0.06,3.21,0.5,3.92,1c0.11,0.09,0.23,0.17,0.34,0.26L291.45,320.61z"/>
            <circle cx="222.08" cy="344.16" r="1.586"/>
        </g>
        <g id="__Türkoğlu">
            <path d="M237.93,413.33    c0.03,0.21,0.04,3.4-0.66,4.56c-0.72,0.82-1.44,1.64-2.16,2.45c-0.22,0.55-0.43,1.1-0.65,1.66c-0.02,0.61-0.04,1.22-0.05,1.83    c-0.19,0.81-0.31,0.83-0.5,1.64c-0.16,0-0.39,0.79-0.55,0.79c-0.93,1.12-1.85,2.24-2.78,3.36c-1.08,1.54-2.14,2.79-3.53,4.05    l-0.79,0.47c-0.39-0.73-1.05-1.12-1.53-1.85c-0.28-0.59-0.56-1.18-0.83-1.77c-1.63-1.89-3.26-3.79-4.89-5.68    c-0.7-0.76-1.64-2.84-2.84-2.84c-1.46-0.05-2.92-0.11-4.38-0.16c-0.2-0.15-2.51-0.4-2.72-0.31c-1.78-0.78-3.57-1.57-5.35-2.35    c-0.73,0.1-1.68,0.35-2.07,0.91c-0.17,0.25-0.14,0.26-0.47,0.34c-0.12,0.98-0.25,1.95-0.37,2.93c-0.48,2.58-0.96,5.17-1.43,7.75    c-0.61,1.33-1.22,2.66-1.82,3.99c-0.63,0.42-1.26,0.84-1.89,1.26c-1.62,0.44-3.24,0.89-4.86,1.33c-1.01,0.56-2.01,1.11-3.02,1.67    c-0.73,0.38-1.45,0.77-2.18,1.15c-1.22,0.88-2.44,1.76-3.66,2.64c-1.21,0.79-2.42,1.58-3.63,2.37c-1.63,0.32-3.26,0.63-4.89,0.95    c-0.46,0.09-1.89,0.16-1.74,0.31c-3.79,2.74-7.08,6.17-10.76,9.11c-1.15,0.96-2.29,1.92-3.44,2.88c-0.24,0.21-0.55,0.56-0.79,0.32    c-0.05,0.05-0.11,0.11-0.16,0.16c0.03-0.08,0.07-0.16,0.1-0.24c0.45-1.07,0.46-2.09,1.16-3.08c0.37-0.26,0.74-0.53,1.1-0.79    c0.3-0.27,0.6-0.54,0.91-0.8c1.63-1.33,3.35-2.44,3.52-4.72c0.04-0.94,0.08-1.89,0.11-2.83c-0.02-0.24-0.04-0.47-0.06-0.71    c-2.06-1.77-4.22-3.41-6.08-5.35c-0.3-0.31-0.85-0.65-1.25-0.73c-1.49-1.63-3.02-3.54-3.15-5.84c-0.05-0.84-0.83-3.32-0.47-3.94    c-0.19-0.65-0.61-2.92-0.32-3.47c-0.28-0.26-0.58-0.73-0.95-0.79c-0.16-0.83-0.2-1.63-0.9-2.24c-0.35-0.3-1.08-1.01-0.96-1.54    c0.09-0.37,0.19-0.74,0.28-1.11c0.26-0.42,0.53-0.84,0.79-1.26c1.1-0.7,3.87-2.06,3.74-3.47c-0.17-1.71-0.55-3.4-1.05-5.05    c-0.24-0.8-0.19-1.6-0.65-2.35c-0.16-0.26-1.06-2.38-0.88-2.6c1.4-1.19,2.81-2.38,4.21-3.57c0.53-0.58,1.05-1.16,1.58-1.74    c1.35-1.31,2.9-2.72,4.11-4.36c0.9-1.27,1.81-2.53,2.71-3.8c0.36-0.44,0.63-1.16,1.23-1.3c0.69-1.56,2.05-2.97,2.05-4.73    c1-1.05,2-2.1,3-3.15c1.2-0.66,2.4-1.31,3.59-1.97c0.44-0.21,0.94-0.67,1.45-0.56c1.34-1.01,2.88-1.71,4.45-2.28    c1.17-0.43,3.96-1.34,4.31-2.39c0.41-1.23-0.22-1.87-0.07-3.06c0.04-0.3,0.03-0.93,0.3-1.1c1.78-1.16,3.32,0.73,4.89,0.47    c1.88-0.31,3.48-1.71,4.9-2.82c0.41-0.33,1.66-0.88,2.04-0.49c0.91,0.68,2.16,1.44,2.75,2.36c1.06,1.67,0.92,3.37,2.84,4.64    c1.34,0.56,2.69,1.11,4.03,1.67c0.75,0,2.45-0.21,2.93,0.22c0.5,0.44,1.64,2.16,1.64,2.78c0.39,0.39,0.75,1.04,0.63,1.58    c1.26,1.18,3.02,1.63,4.07,2.97c0.33,0.8,0.65,1.6,0.98,2.4c0.37,0.58,0.74,1.16,1.1,1.74c0.69,0,1.05,1.4,1.51,1.77    c0.5,0.63,1.01,1.27,1.51,1.9c1.25,1.46,2.51,2.91,3.76,4.37c0.42,0.32,0.84,0.63,1.26,0.95c0.47,0.16,0.95,0.32,1.42,0.47    c0.26,0.26,0.53,0.53,0.79,0.79c0.58,0.26,1.16,0.53,1.74,0.79c1.08,0.24,2.07,0.56,3.15,0.79c0.37,0.08,0.95,0.18,0.95,0.63    c1.28,0.3,2.16,0.84,3,1.89c-0.36,0.87-0.24,2.24,0.04,3.13c-0.07,0.48-0.13,0.96-0.2,1.44c0.46,0.34,0.69,1.2,0.8,1.76    C237.14,411.22,237.39,413.03,237.93,413.33z"/>
            <circle cx="195.74" cy="401.26" r="1.586"/>
        </g>
        <g id="__Onikişubat">
            <path d="M211.21,307.96    c-0.35-0.1-0.69-0.21-1.04-0.31c-0.34,0.09-0.68,0.19-1.02,0.28c-0.41-0.14-0.53-0.43-0.66-0.78c0.02-0.02,0.05-0.04,0.07-0.06    c-0.15,0.03-0.3,0.06-0.45,0.09c-0.13,0.39-0.34,1.21-0.78,1.29c-0.26,0.1-0.53,0.19-0.79,0.29c-0.37-0.03-0.75-0.07-1.12-0.1    c-0.19,0.07-0.37,0.14-0.56,0.22c-0.16,0.12,0.44,1.72,0.57,2.03c0.04,0.47-0.88,0.9-1.16,0.64c-0.64-0.64-1.42-1.16-2.29-1.37    c0-0.16-0.01-0.31-0.01-0.47c-0.11,0.16-0.21,0.32-0.32,0.48c-0.18,0.28-0.37,0.02-0.22,0.36c0.36,0.67,1.29,1.21,0.96,1.98    c0.12,0.11,0.25,0.23,0.37,0.34c-0.37,0-0.74,0-1.1,0c-0.41-0.4-1-1.48-1.41-1.28c-0.32,0.11-0.63,0.22-0.95,0.34    c-0.54,0.45-1.09,0.89-1.63,1.34c-0.42,0.34-0.78,0-0.71,0.69c0.21,0.92,0.41,1.84,0.62,2.76c-0.49,0.16-1.8,0.57-2.12,0.19    c-0.18-0.3-0.36-0.6-0.54-0.91c-0.07-0.23,0.12-0.17,0.28-0.12c0.12-0.36,0.11-0.63,0.47-0.79c-0.08-0.16-0.16-0.32-0.25-0.48    c0.45-0.56-0.21-0.47-0.7-0.5c-0.42-0.04-0.84-0.08-1.26-0.12c-0.37,0.19-0.75,0.37-1.12,0.56c-0.31,0.05-0.61,0.11-0.92,0.16    c-0.01-0.08-0.02-0.16-0.02-0.24c-0.1-0.1-0.2-0.21-0.3-0.32c0.1-0.06,0.2-0.12,0.3-0.18c0.16-0.04,0.33-0.09,0.49-0.13    c0.54-0.68,1.08-1.35,1.62-2.03c0.5-0.53,1.18-0.82,1.42-1.59c0.11-0.34,0.53-1.28,0.35-1.55c-0.31-0.46-0.46-0.88-1.02-0.79    c-0.88,0.16-1.76,0.32-2.64,0.48c0.41-0.51,0.81-1.02,1.22-1.52c-0.01-0.08-0.02-0.16-0.02-0.24c0.34-0.13,0.65-0.14,0.29-0.23    c-0.52-0.11-1.26-0.46-1.7-0.27c-0.07-0.34-0.15-0.46,0-0.79c-0.16-0.21-0.32-0.42-0.47-0.63c-0.12,0.04-0.24,0.08-0.36,0.11    c0-0.44-0.21-0.82-0.55-1.01c-0.5-0.22-1.93-0.39-2.56-0.21c0.12-0.08,0.23-0.15,0.35-0.23c0.24-0.14,0.29-0.1,0.28-0.4    c0.53-0.14,1.39-0.67,1.89-0.32c-0.01-0.1-0.02-0.2-0.03-0.31c-0.09-0.56-0.58-0.78-0.28-1.27c-0.07-0.01-0.15-0.02-0.22-0.02    c-0.41-0.04-1.66-0.19-1.69-0.45c-0.13-1.04-0.55-2.9-1.76-3.13c-0.13-0.03-0.25-0.06-0.37-0.09c-0.38,0.34-0.77,0.68-1.15,1.02    c-0.19-0.22-0.24-0.19-0.16-0.47c-0.58-0.16-1.16-0.32-1.74-0.47c-0.4-0.71-0.55-1.81-1.58-1.1c-0.42-0.74-0.84-1.47-1.26-2.21    c-0.42-0.53-0.84-1.05-1.26-1.58c-0.36-0.1-1.93-0.05-1.84-0.3c0.12-0.32,0.24-0.64,0.36-0.97c0.27-0.36,0.55-0.71,0.82-1.07    c-0.08-0.52-0.24-1.06-0.76-1.29c0.11,0.05,0.21,0.1,0.32,0.16c0.51-0.32,0.59-0.7,1.21-0.6c0.07-0.1,0.14-0.2,0.21-0.31    c-0.08,0.37-0.17,0.74-0.25,1.11c0.77,0.56,1.14,1.25,1.72,1.94c0.73,0.86,1.45,1.45,2.01,2.43c0,1.29,0.31,2.52,1.26,3.47    c0.48-0.3,1.74-0.35,2.05-0.95c0.14,0.06,0.27,0.13,0.41,0.19c0.4,0.09,0.33-0.05,0.54,0.44c0.69,0,1.39,0.32,1.89,0.79    c0.21,0.26,0.42,0.53,0.63,0.79c0.02,0.54,0.25,1.26,0.78,1.25c0.32-0.01,0.2,0.05,0.48-0.3c0.26,0.16,0.53,0.32,0.79,0.47    c0.51,0.03,0.83-0.13,1.26,0.16c0.42-0.53,0.84-1.05,1.26-1.58c-0.08,0.34-0.26,0.88,0,1.1c-0.53,0.74-1.34,1.72-1.34,2.67    c-0.35,0.15-0.51,0.08-0.29,0.25c0.35,0.29,0.69,0.57,1.04,0.86c0.35,0.05,0.71,0.11,1.06,0.16c0.46-0.11,1.15-0.44,1.58-0.32    c0.42-0.22,1.36-0.85,1.82-0.39c0.45,0.48,1.64,2.07,1.47,2.69c-0.16,0.51-1.13,2.33-1.71,2.43c0.09-0.01,0.19-0.03,0.28-0.04    c0.17,0.01,0.34,0.03,0.51,0.04c0.52-0.39,1.41-1.19,2.05-1.26c-0.05-0.4,0.02-0.52-0.32-0.79c0.05-0.07,0.1-0.14,0.15-0.21    c0.47-0.4,0.95-0.81,1.42-1.21c0.1,0.06,0.21,0.11,0.32,0.17c0.16-0.06,0.32-0.11,0.47-0.17c0.32,0.21,0.63,0.42,0.95,0.63    c0.26,0.67,0.68,1.25,0.47,1.89c0.14-0.08,0.29-0.15,0.43-0.23c0.22-0.13,0.45-0.27,0.68-0.4c-0.24-0.56-0.49-1.12-0.73-1.69    c0.3-0.54,0.59-1.08,0.89-1.63c-0.03-0.33-0.21-1.08,0.02-1.21c0.74-0.39,1.33-0.37,2.19-0.37c0.27,0.39,0.78,1.02,0.63,1.42    c0.14-0.05,0.27-0.1,0.41-0.15c0.57-0.28,1.55-0.81,1.33-1.32c-0.13-0.55-0.93-0.74,0.23-1.24c0.5-0.19,0.94,0.19,1.51,0.19    c-0.01-0.27,0.05-0.43-0.16-0.63c0.21-0.29,0.53-0.59,0.47-0.95c0.21-0.08,0.65-0.11,0.58-0.28c-0.2-0.29-0.4-0.58-0.6-0.87    c-0.12,0.02-0.45,0.05-0.46-0.14c0.06-0.25,0.11-0.51,0.17-0.76c0.32-0.39,1.01-0.99,0.95-1.42c0.47-0.21,0.95-0.42,1.42-0.63    c0.02-0.66-0.19-0.89,0.5-1.17c0.32-0.12,0.44-0.08,0.6-0.4c0.36,0.08,1.13,0.19,1.14,0.16c0.13-0.46,0.41-0.66,0.09-1.05    c-0.04-0.12-0.09-0.25-0.13-0.37c-0.42-0.27-0.66-0.27-0.63-0.79c-0.6,0.6-1.2,0.03-0.93-0.73c-0.01-0.13-0.01-0.25-0.02-0.38    c0.48-0.12,1.63-0.18,1.58-0.79c0.1-0.88,0.2-1.76,0.3-2.65c-0.08-0.69-0.62-1.44-0.3-2.08c-0.14-0.22-0.27-0.44-0.41-0.66    c-0.07-0.01-0.15-0.02-0.22-0.03c0.99-0.92,1.33-3.92,2.84-4.04c0.32-0.61,0.45-1.2,1.26-1.1c0.36-0.37,1.01-1.23,1.58-1.1    c0.37-0.42,0.67-1.26,1.26-1.26c0.66-1.18,1.31-1.89,0.95-3.31l0.77-0.06c0,0-0.49-0.92-0.9-1.09c-0.37-0.22-0.08-1.13,0-1.53    c0.15-0.68,0.3-1.37,0.44-2.06c0-1.01-0.55-1.78-0.32-2.84c-0.24-0.29-0.09-0.45-0.16-0.79c-0.19-0.92-0.49-1.74-0.6-2.69    c-0.01-0.57-0.02-1.15-0.03-1.73c-0.28-1.22-1.09-2.11-1.42-3.31c0.16-0.58,0.32-1.16,0.47-1.74c0.75-1.01,1.72-1.97,2.21-3.15    c0.33-1.59,0.66-3.18,1-4.78c0.71-1.52,1.42-3.04,2.13-4.55l-0.15-0.64c-0.69-0.3,0.66-2.56,0.66-3.28    c0.05-0.16,0.11-0.32,0.16-0.47c0.21-0.32,0.42-0.63,0.63-0.95c0.1-0.59,0.2-1.17,0.3-1.75c0.11-0.47,0.22-0.93,0.33-1.4    c-0.06-0.59-0.11-1.18-0.17-1.77c-0.14-1.41-0.08-2.57-0.73-3.84c-0.62-1.21-2.19-2.02-3.2-2.9c-2.26-0.58-4.52-1.16-6.78-1.73    c-0.01-0.4-1.46-1.77-1.81-2.26l-1.33-0.02c-0.58-0.16-1.17,0.03-1.91-0.19c-2.57-1.03-5.15-2.06-7.72-3.09    c-0.56-0.19-2.54-1.51-2.98-1.34c-0.51,0.23-0.83,0.41-1.09,0.92c-0.46,0.95-0.69,4.02-1.32,4.53c-0.52,0.43-1.04,0.85-1.56,1.28    c-1.26,0.23-2.53,0.47-3.79,0.7c-0.68,0.03-1.36,0.06-2.05,0.09c-1.95-0.24-4.05-0.61-5.99-0.46c-1.37,0.11-2.7,0.4-4.08,0.46    c-0.43,0.02-0.91,0.22-1.28,0c-0.55,0.15-1.36,0.16-1.73,0.63c-0.72,0.02-1.91-0.11-2.52,0.32c-0.71-0.04-1.75-0.07-2.37,0.32    c-0.83,0-2.14,0-2.84,0.47c-0.64,0.02-2.36,0.03-2.68,0.63c-0.32-0.05-0.63-0.1-0.95-0.16c-1.16,0.26-2.31,0.53-3.47,0.79    c-0.52,0.08-1.35-0.2-1.73,0.16c-0.53-0.16-1.05-0.32-1.58-0.47c-1.5-0.09-2.95-0.29-4.42-0.63c-1.26-0.1-2.52-0.21-3.79-0.32    c-2.99-0.68-6.01-1.72-9.15-2.05c-1.05-0.11-2,0.49-2.97,0.5c-2.78,0.04-6.45,2.6-8.39,4.52c-1.78,1.75-2.49,3.97-3.76,6.09    c-0.29,0.49-0.83,1.51-1.44,1.19c-0.24,0.51-0.38,1.22-0.95,1.42c-0.25,0.69-0.5,1.39-0.74,2.08c-1.28,0.81-1.92,2.18-2.77,3.41    c-0.46,0.69-0.92,1.39-1.38,2.08c-0.17,0.58-0.34,1.17-0.52,1.75c-0.35,0.52-0.71,1.04-1.06,1.56c-0.54,1.25-0.71,4.09-0.47,5.36    c0,0.37,0,0.74,0,1.1c-0.28,0.81-0.44,1.45-0.35,2.32c-0.25,0.54-0.5,1.08-0.75,1.62c-0.92,0.97-1.84,1.94-2.76,2.91    c-0.5,0.55-1,1.11-1.5,1.66c0,0.37-0.14,1.04-0.63,0.95c-0.21,0.47-0.42,0.95-0.63,1.42c-0.37,0.31-0.73,0.61-1.1,0.92    c-0.93,0.91-2.01,3.32-1.59,4.6c0.31,0.9,0.88,1.46,1.42,2.21c0.18,0.22,0.37,0.44,0.55,0.67l0.5,0.22    c0.32,0.95,1.51,1.27,1.94,2.11c0.28,0.54,0.82,0.96,1.26,1.42c-0.02,0.36,0.41,0.73,0.59,1.06c0.55,1.01,1.2,1.92,2.05,2.77    c0.91,1.04,1.82,2.08,2.73,3.12c0.44-0.05,1.78,1.4,2.21,1.73c0.56,0.28,1.13,0.57,1.7,0.85c0.66,0.49,1.31,0.98,1.97,1.47    c0.97,0.97,2.1,2.73,2.64,3.99c0.47,0.89,0.95,1.79,1.42,2.68c0.23,1.82,0.13,4.71-0.95,6.31c-0.68,0.89-1.37,1.79-2.05,2.68    c-0.32,0.68-0.63,1.37-0.95,2.05c-0.32,0.58-0.63,1.16-0.95,1.74c-0.37,1.42-0.74,2.84-1.1,4.26c0.35,0.62,0.07,2.82,0,3.63    c0.32,1.47,0.63,2.94,0.95,4.42c0.49,1.04,0.98,2.08,1.47,3.13c0.93,1.43,1.86,2.86,2.79,4.29c0.57,0.18,1.31,1.14,1.63,1.64    c0.8,1.23,2.09,2.23,2.57,3.58c-0.14,0.47,1.22,1.81,1.08,2.28c-0.16,0.79-0.77,0.75-0.95,1.26c-0.32,0.16-0.94,0.24-0.87,0.55    c-0.68,0.47-1.37,0.95-2.05,1.42c-0.53,0.16-1.05,0.32-1.58,0.47c-0.49,0.41-0.99,0.82-1.48,1.23c-0.61,0.43-1.22,0.86-1.83,1.3    c-0.79,0.16-1.58,0.32-2.37,0.47c-0.58,0.26-1.16,0.53-1.73,0.79c-0.3,0.19-0.6,0.38-0.9,0.57c-0.68,0.64-1.35,1.28-2.03,1.92    c-1.42,1.09-1.53,3.71-2.43,5.08c-0.32,0.42-0.63,0.84-0.95,1.26c-0.32,1.26-0.63,2.52-0.95,3.79c-0.11,2.75,0.84,5.36,1.24,8.06    c0.31,2.11,0.64,4.83,0.5,6.92c0.14,0.85,0.29,1.7,0.43,2.55c0.28,2.25,0.56,4.51,0.83,6.76c-0.3,0.43-0.24,1.06-0.32,1.58    c-0.57,0.65-0.47,1.87-0.65,2.68c-0.47,2.37-0.94,4.73-1.4,7.1c-0.2,1.4-0.2,2.71-0.47,4.1c-0.43,0.49-0.43,1.58-0.47,2.21    c-0.28,0.33-0.17,0.83-0.16,1.26c-0.53,0.38-0.57,1.88-0.63,2.52l-0.71,1.97l0.32,0.63c2.23-0.2,6.9-0.63,9.14-0.57    c0.46,0.14,1.28,0.39,1.82,0.5c0.95,0.26,1.9,0.52,2.84,0.78c0.32,0.16,0.63,0.32,0.95,0.47c1.95,1.06,4.09,1.35,6.31,1.42    c0.47-0.1,1.08,0.08,1.55-0.03c1.8-0.01,2.84,0,3.81-0.08c0.66,0.03,1.39-0.03,1.87-0.04c0.74-0.07,0.97-0.12,1.71-0.12    c0.12,0.08,0.65-0.08,0.78,0c0.3,0.02,0.81-0.01,1.1,0.01c0.48,0.04,1.52-0.01,1.77-0.04c0.13-0.01,0.58,0,1.13-0.11    c0.24,0.01,0.5-0.01,1.25-0.03c0.51,0.03,1.02,0.07,1.52,0.1l0.43-0.21c1.4-1.19,2.81-2.38,4.21-3.57    c0.53-0.58,1.05-1.16,1.58-1.74c1.35-1.31,2.9-2.72,4.11-4.36c0.9-1.27,1.81-2.53,2.71-3.8c0.36-0.44,0.63-1.16,1.23-1.3    c0.69-1.56,2.05-2.97,2.05-4.73c1-1.05,2-2.1,3-3.15c1.2-0.66,2.4-1.31,3.59-1.97c0.44-0.21,0.94-0.67,1.45-0.56    c1.34-1.01,2.88-1.71,4.45-2.28c1.17-0.43,3.96-1.34,4.31-2.39c0.41-1.23-0.22-1.87-0.07-3.06c0.04-0.3,0.03-0.93,0.3-1.1    c1.78-1.16,3.32,0.73,4.89,0.47c1.88-0.31,3.48-1.71,4.9-2.82c0.41-0.33,1.66-0.88,2.04-0.49c0.91,0.68,2.16,1.44,2.75,2.36    c1.06,1.67,0.92,3.37,2.84,4.64c1.34,0.56,2.69,1.11,4.03,1.67l-0.49-0.64c0.11-0.68,0.22-1.36,0.33-2.05    c0-1.52-0.08-3.31,0.16-4.96c-0.21-0.37,0.32-1.45,0.47-1.89c0.08-0.24,0.14-0.32,0.53-0.92c0.05-0.37,0.58-0.58,0.63-0.95    c0.47-0.47,0.74-0.58,1.21-1.05c0.21-0.53,0.42-1.05,0.63-1.58c0.56-1.06,1.12-2.12,1.68-3.18l0.22-2.03    c0.78-1.79,1.09-3.88,1.27-5.87c0.31-1.83,0.63-3.66,0.94-5.49c-0.05-1.42-0.11-2.84-0.16-4.26c0.18-0.32,0.36-0.64,0.54-0.97    c0.4-0.73,0.8-1.46,1.2-2.19c-0.32-0.72,0.19-2.82,0.32-3.63c-0.16-0.47-0.32-0.95-0.47-1.42c0.16-0.84,0.32-1.68,0.47-2.52    c0.14-2.18-0.39-4.62,0.3-6.74c0.11,0.67,0.22,1.34,0.34,2.01c0-1.79,0.53-3.31,0.66-5.08c-0.01-0.88-0.02-1.76-0.03-2.65    c0-0.74,0-1.47,0-2.21c-0.16-0.37-0.32-0.74-0.47-1.1c-0.6-2.47-1.84-5.15-3.23-7.23C212.46,309.15,211.21,307.96,211.21,307.96z"/>
            <circle cx="204.57" cy="343.38" r="1.586"/>
        </g>
        <g id="__Nurhak">
            <path d="M291.07,197.06    c-0.21,0.22-0.41,0.43-0.62,0.65c-0.74,0.47-1.47,0.95-2.21,1.42c-0.55,0.19-2.06,1.2-2.34,1.59c-0.44,0.61-1.18,1.52-1.05,2.17    c0.38,1.91,0.77,3.71,1.02,5.7c0.76,0.76,0.64,2.2,0.95,3.15c0.11,0.05,0.21,0.11,0.32,0.16c0.46,2.28,1.09,4.48,1.26,6.78    c0.07,0.95,0.54,1.88,0.16,2.84c0.11,0.94,0.23,1.88,0.34,2.81c-0.26,1.49-0.51,2.98-0.77,4.47c-0.32,0.21-0.77,1.6-0.83,2.03    c-1.14,1.34-2.49,2.46-3.15,4.1c-0.32,1.74-0.63,3.47-0.95,5.21c-0.1,0.21-0.2,0.43-0.3,0.64c-0.16,0.57-0.49,1.56-0.02,2.04    c-0.16,0-0.32,0-0.47,0c-0.29,0.29-0.64,0.94-0.32,1.26c-0.77,0-1.12,1.35-1.44,1.88c-2.1,3.45-3.06,7.46-4.92,11.02    c-1.56,2.8-3.12,5.6-4.67,8.4c-1,1.37-2,2.73-3,4.1c-0.16,0.42-0.32,0.84-0.47,1.26c-0.45,0.7-0.89,1.4-1.34,2.1    c-0.98,1.33-1.2,2.58-1.76,4.01c-0.15,0.45-0.3,0.91-0.45,1.36c3.21,2.21,6.38,1.75,9.86,0.57c0.62-0.08,1.25-0.17,1.87-0.25    c0.9-0.23,1.8-0.46,2.71-0.69c2.07-0.65,3.83-1.69,5.99-1.89c1.73-0.63,3.47-1.26,5.21-1.89c0.63-0.37,1.26-0.74,1.89-1.1    c2.21,0.42,4.42,0.84,6.62,1.26c0.89-0.25,1.64-0.14,2.52,0c0.63,0,1.26,0,1.89,0c1.21,0.16,2.42,0.32,3.63,0.47    c1.74,0,3.47,0,5.21,0c0.89,0.21,1.79,0.42,2.68,0.63c1.52,0,3.05,0,4.57,0c1.03,0.15,2.07,0.31,3.1,0.46    c0.86,0.27,1.72,0.54,2.58,0.8c1.09,0.11,2.19,0.22,3.28,0.33c1.87,0.16,3.96,0.58,5.55,1.57c1.16,0.47,2.31,0.95,3.47,1.42    c3.47,0,7.45-0.88,10.88-1.58c0.32-0.16,0.63-0.32,0.95-0.47c0.93,0.17,2.11-0.32,3.16-0.32c0.68-0.68,1.44-1.17,2.37-1.42    c1.56-1.56,3.06-2.92,4.5-4.58c-0.08-0.52,0.46-1.57,0.81-1.57c2.08-1.51,3.7-3.81,4.95-5.99c0.27-0.47,0.83-2.24,1.06-3.43    c0.66-1.52,1.18-2.6,2.25-3.51c-0.59,0.2,0.21-0.95,0.32-1.42c0.25-0.59,0.67-1.78,1.26-2.05c1.11-2.71,2.73-5.23,4.56-7.55    c0.27-0.59,0.53-1.17,0.8-1.76c0.16-0.1,0.32-0.21,0.47-0.32c0.46-0.75,0.91-1.5,1.37-2.25c0.49-0.72,0.98-1.45,1.47-2.17    c0.17-0.69,0.03-1.1-0.51-1.49c-0.36-0.19-0.71-0.37-1.07-0.56c-2.12-1.61-4.23-3.17-5.99-5.2c-1.83-2.11-2.89-5.77-3.15-8.52    c-0.16-0.89-0.32-1.79-0.47-2.68c0.32-2.26,0.63-4.52,0.95-6.78c0.79-1.42,1.58-2.84,2.37-4.26c0.29-0.42,0.99-0.68,0.91-1.23    l-0.54-0.76c-0.27-0.1-0.53-0.2-0.8-0.31c-1.59-0.92-3.18-1.84-4.78-2.76c-1.05-0.32-2.1-0.63-3.15-0.95    c-0.68-0.42-1.37-0.84-2.05-1.26c-1.47-0.47-2.94-0.95-4.42-1.42c-0.95-0.42-1.89-0.84-2.84-1.26c-1.66-0.48-3.48-0.21-5.17-0.85    c-1.96-0.4-3.92-0.8-5.88-1.2c-0.34-0.34-2.09-0.86-2.52-0.63c-1.75-0.67-4.29-1.44-6.15-1.4c-0.47-0.01-0.95-0.01-1.42-0.01    c-0.73-0.16-2.86-0.45-3.47-0.16c-1.42-0.42-2.84-0.84-4.26-1.26c-0.49-0.63-1.2-0.97-1.89-1.42c-0.19-0.28-0.38-0.56-0.57-0.83    c-0.46-0.14-1.75-1.33-1.79-1.85c-0.79-0.26-1.58-0.53-2.37-0.79c-0.49-0.2-2.75-0.42-3.15-0.16c-1.05,0.11-2.1,0.21-3.15,0.32    c-1.76,1.03-3.41,1.96-5.21,2.84c-1.89,0.63-3.79,1.26-5.68,1.88c-1.38,0.75-2.76,1.5-4.14,2.26c-0.72,0.14-1.44,0.29-2.16,0.43    L291.07,197.06z"/>
            <circle cx="334.86" cy="232.33" r="1.586"/>
        </g>
        <g id="__Çağlayancerit">
            <path d="M264.04,278.21    c3.21,2.21,6.38,1.75,9.86,0.57c0.62-0.08,1.25-0.17,1.87-0.25c0.9-0.23,1.8-0.46,2.71-0.69c2.07-0.65,3.83-1.69,5.99-1.89    c1.73-0.63,3.47-1.26,5.21-1.89c0.63-0.37,1.26-0.74,1.89-1.1c2.21,0.42,4.42,0.84,6.62,1.26c0.89-0.25,1.64-0.14,2.52,0    c0.63,0,1.26,0,1.89,0c1.21,0.16,2.42,0.32,3.63,0.47c1.74,0,3.47,0,5.21,0c0.89,0.21,1.79,0.42,2.68,0.63c1.52,0,3.05,0,4.57,0    c1.03,0.15,2.07,0.31,3.1,0.46c0.86,0.27,1.72,0.54,2.58,0.8c1.09,0.11,2.19,0.22,3.28,0.33c1.87,0.16,3.96,0.58,5.55,1.57    c1.16,0.47,2.31,0.95,3.47,1.42c3.47,0,7.45-0.88,10.88-1.58c0.32-0.16,0.63-0.32,0.95-0.47c0.93,0.17,2.11-0.32,3.16-0.32    c0,0-0.02,1.53-0.43,2.14c-0.79,1.39-1.59,2.79-2.38,4.18c-0.21,0.36-1.04,2.16-1.29,2.19c-0.28,0.68-0.44,1.26-0.76,1.97    c-0.96,1.54-1.92,3.09-2.88,4.63c-0.94,2.16-1.88,4.33-2.82,6.49c-0.18,0.78-0.36,1.57-0.54,2.35c-0.47,1.25-0.49,2.94-0.57,4.27    c-0.06,0.96-0.6,1.81-1.03,2.62c-1.13,1.75-2.27,3.51-3.4,5.26c-0.4,0.74-0.66,2.58-0.15,3.32c-0.15,0.34-0.29,0.68-0.44,1.02    c0.14,0.28-0.08,1.34,0.28,1.35l-1.26,1.26c1.22-1.15,0.23-2.44-0.52-3.55c-0.3-0.44-0.23-0.97-0.76-1.13    c-1.02-0.31-2.12-0.05-3.18,0.34c-0.51,0.19-1.02,0.37-1.53,0.56c-0.4,0.24-0.79,0.48-1.19,0.71c-1.01,0.47-2.02,0.94-3.04,1.4    c-1.38,0.61-2.76,1.22-4.14,1.82c-1.47,0.89-2.94,1.79-4.42,2.68c-2.92,0.75-5.77,2.07-8.83,2.21c-2.51,0.12-4.7-0.68-7.1-1.11    c-0.77-0.97-2.28-1.93-3.47-2.37c-0.31-0.11-0.69-0.5-0.79-0.79c-1.08-0.41-2.39-1.21-2.39-1.21c-0.71-0.5-3.05-0.95-3.92-1    c-0.89-0.06-1.49,0.07-2.26-0.47c-1.14-0.95-2.28-1.89-3.42-2.84c-0.32-0.37-0.63-0.74-0.95-1.1c-0.79-0.58-1.58-1.16-2.37-1.74    c-0.42-0.47-0.84-0.95-1.26-1.42c-0.89-1.21-1.78-2.42-2.67-3.62c-0.36-0.46-1.02-1.35-0.96-1.9c-1-1-2-2-3-3    c-0.21-0.47-0.42-0.95-0.63-1.42c-0.32-1.1-0.63-2.21-0.95-3.31c-0.42-0.89-0.84-1.79-1.26-2.68c-0.79-0.79-1.58-1.58-2.37-2.37    c-0.29-0.85-0.58-1.69-0.88-2.54c-0.34-0.57-0.68-1.15-1.02-1.72c-0.42-1-0.84-2-1.26-3c-0.11-0.95-0.21-1.89-0.32-2.84    c0.02-1.26,0.22-2.43,0.47-3.63c0.08-0.38-0.27-0.43,0-0.79L264.04,278.21z"/>
            <circle cx="297.32" cy="296.06" r="1.586"/>
        </g>
        <g id="__Ekinözü">
            <path d="M216.89,220.03    c0.6-0.76,1.2-1.52,1.8-2.29c0.12-0.32,0.43-0.51,0.55-0.91c0.2-0.43,0.47-0.79,0.63-1.18c0.2,0.29,0.33-0.98,0.55-1.12    c0.44-0.35,0.24-0.44-0.04-0.93c0.42-0.88,0.63-1.77,1.15-2.64c0.81-0.37,0.83-1.3,1.1-2.05c0.65-0.37,1.47-1.82,1.74-2.52    c0.21-0.37,0.42-0.74,0.63-1.1c0.21-0.32,0.42-0.63,0.63-0.95c-0.12-0.47,0.51-2.75,0.79-3.16c0-0.74,0-1.47,0-2.21    c1.58-1.33,0.69-5,0.78-6.79c0.11-0.47,0.22-0.94,0.33-1.41c-0.3-0.63-0.21-1.5,0.04-2.3l0.28,0.1c-0.01,0.33,1.13-0.84,1.4-0.75    c0.58,0.25,1.17,0.49,1.75,0.74c0.26,0.21,0.53,0.42,0.79,0.63c0.68,0.16,1.37,0.32,2.05,0.47c1.19,0.23,3.35,0.55,4.42,0    c0.38,0.21,0.85,0,1.28,0c0.89-0.05,1.77-0.1,2.66-0.15c0.32-0.11,0.63-0.21,0.95-0.32c3.4-0.62,6.69-1.14,9.81-2.63    c0.62-0.23,1.24-0.46,1.86-0.69c1-0.79,2-1.58,3-2.37c0.23,0.23,0.22,0.11,0.43-0.05c0.46-0.33,1.04,0.14,1.64,0.37    c1.57,0.74,3.14,1.47,4.71,2.21c1.47,0.32,2.94,0.63,4.42,0.95c0.74-0.05,1.47-0.11,2.21-0.16c1.98,0.32,3.93,0.26,5.84-0.47    c0.25,0.31,0.45,0.09,0.75-0.06c0.29-0.14,1.22,0.53,1.61,0.7c0.05,0.4,0.38,0.64,0.63,0.95c-0.05,0.91,1.01,2.61,1.62,3.27    c0.28,0.22,0.56,0.43,0.84,0.65c0.39,0.48,0.78,0.96,1.17,1.44c0.49,0.07,0.74,0.5,1.18,0.71c0.5,0.45,0.99,0.9,1.49,1.35    c0.63,0.42,1.27,0.83,1.9,1.25c0.65-0.35,1.22,0.08,1.89,0.16c1.05,0.16,0.93,0.3,0.93,0.3c-0.21,0.22-0.41,0.43-0.62,0.65    c-0.74,0.47-1.47,0.95-2.21,1.42c-0.55,0.19-2.06,1.2-2.34,1.59c-0.44,0.61-1.18,1.52-1.05,2.17c0.38,1.91,0.77,3.71,1.02,5.7    c0.76,0.76,0.64,2.2,0.95,3.15c0.11,0.05,0.21,0.11,0.32,0.16c0.46,2.28,1.09,4.48,1.26,6.78c0.07,0.95,0.54,1.88,0.16,2.84    c0.11,0.94,0.23,1.88,0.34,2.81c-0.26,1.49-0.51,2.98-0.77,4.47c-0.32,0.21-0.77,1.6-0.83,2.03c-1.14,1.34-2.49,2.46-3.15,4.1    c-0.32,1.74-0.63,3.47-0.95,5.21c-0.1,0.21-0.2,0.43-0.3,0.64c-0.16,0.57-0.33,2.04-0.49,2.04c-0.29,0.29-0.64,0.94-0.32,1.26    c-0.77,0-1.12,1.35-1.44,1.88c-2.1,3.45-3.06,7.46-4.92,11.02c-1.56,2.8-3.12,5.6-4.67,8.4c-1,1.37-2,2.73-3,4.1    c-0.16,0.42-0.32,0.84-0.47,1.26c-0.45,0.7-0.89,1.4-1.34,2.1c-0.98,1.33-1.2,2.58-1.76,4.01c-0.15,0.45-0.3,0.91-0.45,1.36    l-0.7,0.36c-2.05-0.75-4-1.58-6.02-2.45c-0.79-0.37-1.57-0.75-2.36-1.12c-0.89-0.53-1.79-1.05-2.68-1.58    c-2.12-0.96-4.12-1.83-6.15-3c-0.53-0.58-1.05-1.16-1.58-1.73c-1.42-1.31-2.84-2.63-4.26-3.94c-1.5-2.65-1.79-5.79-3.43-8.39    c-0.44-0.71-0.82-1.82-1.62-2.18c-0.78-1.49-1.55-2.29-2.84-3.31c-0.26-0.32-0.53-0.63-0.79-0.95c-0.24-0.2-0.48-0.33-0.79-0.32    c-0.26-0.32-0.53-0.63-0.79-0.95c-0.62-0.84-0.94-2.69-2.05-3c-0.2-0.55-0.39-1.03-0.87-1.97c-0.16-0.47-0.53-1.43-0.58-1.21    l-0.15-0.64c-0.69-0.3,0.66-2.56,0.66-3.28c0.05-0.16,0.11-0.32,0.16-0.47c0.21-0.32,0.42-0.63,0.63-0.95    c0.1-0.59,0.2-1.17,0.3-1.75c0.11-0.47,0.22-0.93,0.33-1.4c-0.06-0.59-0.11-1.18-0.17-1.77c-0.14-1.41-0.08-2.57-0.73-3.84    c-0.62-1.21-2.19-2.02-3.2-2.9c-2.26-0.58-4.52-1.16-6.78-1.73c-0.01-0.4-1.46-1.77-1.81-2.26    C215.77,221.48,216.4,220.56,216.89,220.03z"/>
            <circle cx="273.5" cy="205.36" r="1.586"/>
        </g>
    </g>
</svg>