<?xml version="1.0" encoding="UTF-8"?>
<!DOCTYPE svg PUBLIC "-//W3C//DTD SVG 1.1//EN" "http://www.w3.org/Graphics/SVG/1.1/DTD/svg11.dtd">
<svg version="1.1" id="HaritaCizim" xmlns="http://www.w3.org/2000/svg" xmlns:xlink="http://www.w3.org/1999/xlink" x="0px" y="0px" viewBox="0 0 650 490" preserveAspectRatio="none">
    <defs id="__def">
        <radialGradient id="f">
            <stop offset="0" stop-color="white" stop-opacity="1"/>
            <stop id="STOP1" offset=".4" stop-opacity="1"/>
            <stop offset="1" stop-color="white" stop-opacity=".2"/>
        </radialGradient>
        <filter id="__flt1" x="0" y="0" width="200%" height="200%" filterUnits="objectBoundingBox">
            <feGaussianBlur in="SourceAlpha" stdDeviation="3" result="blur1"/>
            <feSpecularLighting result="specOut" in="blur1" specularConstant="1.5" specularExponent="20" lighting-color="#bbbbbb">
                <feDistantLight azimuth="45" elevation="30"/>
            </feSpecularLighting>
            <feComposite in="specOut" in2="SourceAlpha" operator="in" result="specOut"/>
            <feComposite in="SourceGraphic" in2="specOut" operator="arithmetic" k1="0" k2="1" k3="1" k4="0"/>
        </filter>
        <filter id="__flt2" x="0" y="0" width="200%" height="200%" filterUnits="objectBoundingBox">
            <feGaussianBlur in="SourceAlpha" stdDeviation="3" result="blur1"/>
            <feSpecularLighting result="specOut" in="blur1" specularExponent="20" lighting-color="#bbbbbb">
                <fePointLight x="-2000" y="100" z="2000"/>
            </feSpecularLighting>
            <feComposite in="specOut" in2="SourceAlpha" operator="in" result="specOut"/>
            <feComposite in="SourceGraphic" in2="specOut" operator="arithmetic" k1="0" k2="1" k3="1" k4="0"/>
        </filter>
        <filter id="__flt3" x0="-50%" y0="-50%" width="200%" height="200%" filterUnits="objectBoundingBox">
            <feGaussianBlur in="SourceAlpha" stdDeviation="3" result="blur"/>
            <feOffset in="blur" dx="0" dy="0" result="offsetBlur"/>
            <feSpecularLighting in="blur" surfaceScale="4" specularConstant=".5" specularExponent="20" lighting-color="flavor" result="specOut">
                <fePointLight x="-5000" y="-10000" z="5000"/>
            </feSpecularLighting>
            <feComposite in="specOut" in2="SourceAlpha" operator="in" result="specOut"/>
            <feComposite in="SourceGraphic" in2="specOut" operator="arithmetic" k1="0" k2="1" k3="1" k4="0" result="litPaint"/>
            <feMerge>
                <feMergeNode in="offsetBlur"/>
                <feMergeNode in="litPaint"/>
            </feMerge>
        </filter>
        <filter id="__flt4" x0="-50%" y0="-50%" width="200%" height="200%">
            <feGaussianBlur in="SourceAlpha" stdDeviation="2" result="blur"/>
            <feOffset dy="-1" dx="-1"/>
            <feComposite in2="SourceAlpha" operator="arithmetic" k2="-1" k3="1" result="hlDiff"/>
            <feFlood flood-color="white" flood-opacity=".7"/>
            <feComposite in2="hlDiff" operator="in"/>
            <feComposite in2="SourceGraphic" operator="over" result="withGlow"/>
            <feOffset in="blur" dy="3" dx="3"/>
            <feComposite in2="SourceAlpha" operator="arithmetic" k2="-1" k3="1" result="shadowDiff"/>
            <feFlood flood-color="black" flood-opacity="1"/>
            <feComposite in2="shadowDiff" operator="in"/>
            <feComposite in2="withGlow" operator="over"/>
        </filter>
        <filter id="__golge1" x="0" y="0" width="200%" height="200%" filterUnits="userSpaceOnUse">
            <feOffset result="offOut" in="SourceAlpha" dx="8" dy="8"/>
            <feGaussianBlur result="blurOut" in="offOut" stdDeviation="3"/>
            <feBlend in="SourceGraphic" in2="blurOut" mode="normal"/>
        </filter>
    </defs>
    <g id="__Harita" fill="white" stroke="#000000" stroke-width="0.25" stroke-miterlimit="10" display="none">
        <rect id="__cer" x="0" y="0" fill="#000000" opacity="0" width="650" height="490"/>
        <g id="__Karaman">
            <path d="   M198.93,314.97c-1.92,0.96-3.99-0.1-6.07-0.19c-3.23-0.15-6.58-0.42-9.68-1.33c-0.89-0.13-1.77-0.25-2.66-0.38   c-1.9-0.44-3.8-0.89-5.69-1.33c-2.42-0.41-4.84-0.83-7.26-1.24c-2.28-0.11-4.56-0.23-6.84-0.34c-1,0.02-1.99,0.04-2.99,0.06   c-4.11,0.06-8.12,0.82-12.14,1.33c-1.33-0.06-2.66-0.13-3.99-0.19c-1.27,0-2.53,0-3.8,0c-0.54,0-1.08-0.01-1.62-0.03l0.29,0.03   c0.91-0.71,1.77-1.59,2.28-2.66c0.2-1.01,0.41-2.02,0.61-3.03c0.63-2.55,1.04-5.35,1.66-7.99c0.38-1.64,0.76-3.29,1.14-4.93   c0.5-1,1.06-1.71,1.26-2.85c0.34-0.19,0.68-0.38,1.01-0.56c0.54-1.75,0.65-3.53,1.07-5.3c0.21-1.65,0.42-3.3,0.63-4.95   c0.13-1.14,0.25-2.28,0.38-3.42c0.46-1.64,0.91-3.27,1.37-4.91c0.49-1.28,0.98-2.55,1.48-3.83c0.26-1.57-0.01-3.42-0.19-4.94   c-0.42-3.44-3.15-5.39-5.32-7.78c-0.35-0.71-0.71-1.42-1.06-2.12c-0.79-0.46-1.11-2.3-1.29-3.16c-0.29-1.28-0.59-2.56-0.88-3.83   c0.15-0.8,0.23-1.44,0.2-2.26c-0.04-0.86-0.62-2.29,0.37-2.87c-0.22-0.47-0.69-1.07-0.38-1.52c-0.9-0.95-1.49-1.11-2.13-2.35   c-0.64-1.24-0.63-2.55-1.57-3.65c-0.6-0.53-1.21-1.06-1.81-1.6c-0.5-0.2-1.48-0.25-1.68-0.69c-0.2-0.42-0.49-0.57-0.13-0.91   c1.79-1.58,4.16-2.76,6.31-4.16c0.56-0.36,2.68-1.24,3.28-1.07c1.01-0.31,3.55-0.66,3.7-1.73c0.05-0.47-0.02-0.96,0.29-1.31   c-0.39-1.33-1-2.33-1.9-3.42c-0.33-0.4-0.43-1-0.95-1.14c-0.13-0.7-0.25-1.39-0.38-2.09c0-0.44,0-0.89,0-1.33   c-0.55-2.29-0.05-4.49-0.32-6.8c-0.06-0.55-0.14-2.79,0.13-3.07c-0.42-1.65-0.46-3.29-0.76-4.94c-0.61-1.66-1.23-3.31-1.84-4.97   c-0.65-1.57-1.31-3.14-1.96-4.72c-0.19-1.77-0.38-3.54-0.57-5.32c0.1-0.5,0.2-1,0.3-1.5c0.05-0.61-0.14-1.87,0.27-2.3   c-0.07-0.53-0.15-1.06-0.23-1.59c0.82-0.37,1.25-1.21,2.12-1.45c0.62,0.62,3.19,0.71,4.13,0.91c0.51,0.11,0.81,0.24,1.18,0.6   c1.38,0.08,2.76,0.15,4.15,0.23c0.96,0.18,1.92,0.35,2.88,0.53c1.46,0,2.91,0,4.37,0c1.36-0.5,2.47-0.85,3.92-0.65   c0.61-0.26,1.73-0.36,2.23,0.01c1.27,0.95,2.38,1.95,3.27,3.35c0.67,0.76,1.34,1.52,2.01,2.28c0.43,0.36,0.86,0.72,1.29,1.08   c0.38,0.13,0.76,0.25,1.14,0.38c0.62,0.02,1.25,0.04,1.87,0.05c0.85,0.3,1.49,0.8,2.13,1.42c0.69,0.33,1.38,0.66,2.07,1   c1.61,0.73,4.55,3.31,6.26,2.91c0.44-0.08,0.89-0.17,1.33-0.25c1.71-1.28,3.3-2.76,4.73-4.44c1.71-2.06,3.43-4.13,5.14-6.19   c0.84-1.42,1.67-2.83,2.51-4.25c1.33-2.33,2.12-7.12,5.59-6.35c2.34,0.54,5.83,1.79,7.54-0.68c1.68-2.47,0.12-5.15-0.25-7.71   c-0.08-0.73-0.17-1.47-0.26-2.2c0.08-0.53,0.16-1.06,0.24-1.59c1.16-2.38,2.93-4.28,4.63-6.35c0.68-0.83,1.95-1.99,2.03-3.13   c0.15-4.4-3.54-8.19-7.61-9.31c-0.75-0.21-1.73-1.52-2.47-1.33c-2.21-2.01-3.84-4.64-5.32-7.21c-0.55-0.97-2-1.88-2.09-3.04   c-1.39-1.08-2.75-2.07-3.8-3.42c-0.89-0.57-1.77-1.14-2.66-1.71c-1.08-0.82-2.15-1.65-3.23-2.47c-1.21-0.71-2.43-1.43-3.64-2.14   c-1.9-1.36-3.79-2.72-5.69-4.08c-1.09-0.71-1.72-1.05-2.59-2.11c-0.14,0.06-0.28,0.11-0.42,0.17c0.02-0.17,0.04-0.34,0.07-0.5   c0.09-0.31-0.45-0.32-0.13-0.53c1.35-0.86,2.7-1.72,4.05-2.57c1.58-0.82,3.16-1.65,4.75-2.47c0.29-0.25,3.19-1.61,3.42-1.52   c1-0.83,1.93-1.56,2.85-2.47c0.23-0.4,0.46-0.81,0.69-1.21c0.57-0.26,1.57-2.18,1.89-2.81c0.41-0.62,0.81-1.24,1.22-1.86   c0.66-1.56,1.31-3.12,1.97-4.67c0.93-1.51,2.32-2.6,3.78-3.57c1.45-0.96,2.92-1.58,4.55-2.19c0.5-0.19,1.11-0.77,1.66-0.57   c3.07-1.74,6.55-2.5,9.71-3.94c0.37-0.27,0.74-0.54,1.11-0.81c0.32,0,0.63,0,0.95,0c0.92-0.51,1.84-1.03,2.75-1.54   c-0.03-0.18-0.06-0.36-0.09-0.55c3.1,0.6,4.08-0.82,6.73-1.99c0.5-0.24,1.01-0.48,1.51-0.72c0.29-0.04,0.58-0.09,0.87-0.13   c0.71-0.41,2.61-2.19,3.04-2.85c0.79-0.79,1.57-1.58,2.36-2.37c1.66-1.77,2.96-3.57,4.85-5.03c0.6-0.46,1.52-1.17,2.28-0.95   c0.94-0.64,1.7-1.14,2.85-1.33c1.01,0,2.02,0,3.04,0c2.01,0.43,3.73,1.44,5.32,2.66c0.45,0.34,1.43,0.51,1.52,1.14   c0.82,0.63,1.65,1.27,2.47,1.9c2.02,1.2,4.05,2.4,6.07,3.61c2.2,1.34,4.79,2.02,7.15,2.97c1,0.4,2.18,0.39,3.05,1.09   c1.56,1.27,2.3,3.29,3.47,4.85c0.38,0.51,1.07,1.08,0.94,1.73c0.98,0,1.96,0.75,2.93,1.06c2.44,0.91,4.88,1.82,7.32,2.73   c1.01,0,2.02,0,3.04,0c1.63-0.27,3.26-0.54,4.89-0.81c0.54-0.21,1.6-0.64,2.14-0.33c3.1-1.2,6.2-2.4,9.3-3.61   c3.35-0.82,6.71-1.65,10.06-2.47c0.82-0.06,1.65-0.13,2.47-0.19c1.24-0.94,2.47-1.88,3.71-2.82c0.68-0.26,3.37-0.45,3.89-0.02   c1.41-0.48,2.81-0.97,4.22-1.45c3.28-1.06,6.55-2.13,9.83-3.19c0.38-0.16,0.76-0.32,1.14-0.49c0.41,0.01,1.89,0,1.9,0.56   c0,2.51-0.1,4.93-0.33,7.42c-0.07,0.71-0.35,2.33,0.14,2.85c-0.14,1.24-0.28,2.49-0.43,3.73c0.26,4.69,0.46,9.96-0.71,14.49   c-0.33,1.29,0.11,2.93,0.38,4.18c-0.02,0.95-0.03,1.89-0.05,2.84c0.02,0.95,0.03,1.9,0.05,2.85c0.47,2.22,0.95,4.44,1.42,6.66   c0.09,1.07,0.19,2.14,0.28,3.22c0.25,1.58,0.5,2.95,0.38,4.56c0,0.51,0,1.01,0,1.52c0.13,0.76,0.25,1.52,0.38,2.28   c0.01,1.96,0.02,3.92,0.04,5.88c0,0.54,0.17,0.77,0.53,1.14c-0.34,0.63-0.44,1.44-0.95,1.9c0.17,0.6-0.71,5.91-1.04,6.45   c-0.95,3.23,0.12-1.33,1.75,2.9c0.33,1.06,0.67,2.12,1,3.18c0.18,0.13,0.35,0.26,0.53,0.39c0.2,0.25,0.41,0.5,0.61,0.75   c0.73,1.97,1.07,2.43,2.47,3.99c-0.17,0.97,0.34,1.32,0.87,2.08c0.41,0.63,0.81,1.27,1.22,1.9c0.72,0.67,1.44,1.34,2.15,2.01   c0.67,0.71,1.34,1.41,2.01,2.12c0.02,0.87,2.45,2.62,3.1,3.41c1.25,0.97,2.5,1.94,3.75,2.91c0.44,0.25,2.74,2.47,2.85,2.85   c1.46,1.2,2.91,2.4,4.37,3.61c1.21,0.79,2.42,1.58,3.64,2.37c1.45,0.98,2.89,1.97,4.34,2.95c1.14,0.86,2.29,1.73,3.43,2.59   c0.87,0.16,3.46,2.88,3.95,3.62c1.85,2.85,2.31,6.17,1.73,9.54c-0.95,2.47-1.9,4.94-2.85,7.4c-0.16,1.06-0.33,2.12-0.49,3.18   c-0.85,3.24-1.7,6.49-2.54,9.73c-0.39,2.28-0.78,4.56-1.17,6.83c0.08,1.46,0.15,2.91,0.23,4.37c1,2.7,2.17,5.52,2.66,8.35   c0.87,2.03,1.75,4.07,2.62,6.1c0.46,1.19,0.92,2.39,1.38,3.58c0.1,0.42,0.2,0.83,0.3,1.25c-1.31-0.01-2.61-0.02-3.92-0.03   c-2.78,0.04-5.57,0.15-8.35,0.58c-1.27,0.22-2.54,0.44-3.8,0.66c-0.94,0.09-1.88,0.17-2.82,0.26c-0.43,0.11-0.85,0.23-1.28,0.34   c-0.66,0.12-1.31,0.23-1.97,0.35c0.15,0.15-2.3,0.17-3.23,0c-0.63,0.13-2.78,0.82-3.42,0.95c0,0.3-0.99,0.82-1.33,0.94   c-2.53,0.7-5.06,1.4-7.59,2.1c-1.95,0.6-3.92,0.77-5.69,1.9c-0.82,0.25-1.65,0.51-2.47,0.76c-1.83,0.06-3.54,0.49-5.33,0.9   c-0.69,0.16-1.73,0.07-2.26,0.62c-0.83,0.21-1.66,0.43-2.49,0.64c-1.39,0.52-2.78,1.04-4.18,1.56c-1.45,0.28-2.9,0.56-4.34,0.84   c-1.74,0.68-3.48,1.36-5.21,2.04c-1.74,0.46-3.48,0.92-5.23,1.38c-0.13,0.13-0.25,0.25-0.38,0.38c-2.59,0.58-5.12,1.85-7.63,2.79   c-2.77,0.92-5.54,1.84-8.32,2.76c-1.12,0.42-2.25,0.84-3.37,1.26c-2.13,0.77-4.25,1.58-6.5,1.99c-2.97,0.53-6.15,0.7-8.9,1.87   c-1.02,0.43-2.04,0.86-3.06,1.29c-0.56,0.15-1.13,0.29-1.69,0.44c-1.32,0.5-2.73,1.17-4.05,0.57c-0.17,0.04-0.35,0.09-0.52,0.13   c-1.85-2.11-4.27-3.32-6.46-5.1c-0.78-0.63-2.19-1.84-3.22-1.38c-1,0.39-1.99,0.79-2.99,1.18c-1.15,0.18-1.84,0.02-2.88,0.9   c-1.59,1.34-3.16,3.24-5.14,4.02c-1.27,1.9-2.53,3.8-3.8,5.7c-0.65,2.08-2.18,4.25-3.61,5.88c-0.44,0.7-0.89,1.39-1.33,2.09   c-0.5,0.51-1,1.02-1.51,1.53c-0.86,0.74-1.71,1.48-2.57,2.22c-0.79,0.51-1.59,1.02-2.38,1.54c-2.23-0.27-3.47-1.25-5.39-2.33   c-0.94-0.46-1.89-0.93-2.83-1.39c-0.69-1.23-4.33-3.11-5.64-3.85c-1.35-0.76-3.25-0.61-4.75-0.78c-0.52-0.06-1.29,0.12-1.71-0.17   c-1.26,0.16-2.52,0.33-3.78,0.49c-0.7,0.28-1.4,0.56-2.11,0.84c-0.89,0.57-1.77,1.14-2.66,1.71c-1.03,0.94-2.07,1.89-3.1,2.83   c-1.05,1.84-2.11,3.68-3.16,5.52c0,1.12-0.58,1.83-0.95,2.85c-0.13,0.5-0.26,1.01-0.39,1.51c-0.48,1.26-0.97,2.52-1.45,3.77   c-0.08,0.58-0.16,1.16-0.24,1.74c0.13,0.63,0.25,1.27,0.38,1.9c0.13,0.7,0.25,1.39,0.38,2.09c-0.06,0.44-0.13,0.89-0.19,1.33   L198.93,314.97z"/>
            <circle cx="259.97" cy="185.5" r="1.586"/>
        </g>
        <g id="__Ayrancı">
            <path d="   M391.17,246.36c-0.1-0.42-0.2-0.83-0.3-1.25c-0.46-1.19-0.92-2.39-1.38-3.58c-0.87-2.03-1.75-4.07-2.62-6.1   c-0.48-2.83-1.66-5.66-2.66-8.35c-0.08-1.46-0.15-2.91-0.23-4.37c0.39-2.28,0.78-4.56,1.17-6.83c0.85-3.24,1.7-6.49,2.54-9.73   c0.16-1.06,0.33-2.12,0.49-3.18c0.95-2.47,1.9-4.94,2.85-7.4c0.58-3.37,0.12-6.69-1.73-9.54c-0.48-0.75-3.08-3.47-3.95-3.62   c-1.14-0.86-2.29-1.73-3.43-2.59c-1.45-0.98-2.89-1.97-4.34-2.95c-1.21-0.79-2.42-1.58-3.64-2.37c-1.46-1.2-2.91-2.4-4.37-3.61   c-0.11-0.38-2.41-2.59-2.85-2.85c-1.25-0.97-2.5-1.94-3.75-2.91c-0.65-0.79-3.07-2.54-3.1-3.41c-0.67-0.71-1.34-1.41-2.01-2.12   c-0.72-0.67-1.44-1.34-2.15-2.01c-0.41-0.63-0.81-1.27-1.22-1.9c-0.53-0.76-1.04-1.11-0.87-2.08c-1.4-1.56-1.74-2.01-2.47-3.99   c-0.2-0.25-0.41-0.5-0.61-0.75c-0.18-0.13-0.35-0.26-0.53-0.39c-0.33-1.06-0.67-2.12-1-3.18c-1.63-4.22-2.7,0.33-1.75-2.9   c0.33-0.54,1.22-5.86,1.04-6.45c0.51-0.46,0.61-1.27,0.95-1.9c-0.37-0.38-0.53-0.6-0.53-1.14c-0.01-1.96-0.02-3.92-0.04-5.88   c-0.13-0.76-0.25-1.52-0.38-2.28c0-0.51,0-1.01,0-1.52c0.12-1.61-0.13-2.98-0.38-4.56c-0.09-1.07-0.19-2.14-0.28-3.22   c-0.47-2.22-0.95-4.44-1.42-6.66c-0.02-0.95-0.03-1.9-0.05-2.85c0.02-0.95,0.03-1.89,0.05-2.84c-0.27-1.25-0.71-2.89-0.38-4.18   c1.17-4.53,0.98-9.81,0.71-14.49c0.14-1.24,0.28-2.49,0.43-3.73c-0.49-0.52-0.2-2.13-0.14-2.85c0.24-2.49,0.33-4.91,0.33-7.42   l0.79-1.23c3.21-0.98,6.42-1.97,9.63-2.95c2.15-0.95,4.31-1.89,6.46-2.84c1.19-0.32,2.12-1.33,3.42-1.33   c0.71-0.51,1.31-0.73,2.11-1.04c1.07-0.54,2.14-1.08,3.21-1.61c3.23-0.82,6.45-1.65,9.68-2.47c3.42-1.08,6.83-2.15,10.25-3.23   c3.14-0.97,6.28-1.94,9.41-2.91c0.68-0.31,3.51-1.13,4.09-0.75c0.69,0.46,1.38,0.92,2.06,1.38c0.91,2.28,1.82,4.56,2.73,6.84   c0.31,0.86,1.6,3.22,0.31,3.22c-1.01-0.25-2.02-0.51-3.04-0.76c-0.46-1.64-0.68-1.02-1.99-1.56c-0.4-0.15-0.79-0.31-1.19-0.46   c-0.27,0.17-0.53,0.34-0.8,0.5c-0.05,0.38-0.1,0.76-0.15,1.15c-0.58,0.25-0.7,0.71-0.23,1.13c-0.42,0.42-0.52,0.78-1.14,0.76   c0.25,0.8-0.16,1.48-0.76,2.09c-0.19,1.01-0.38,2.02-0.57,3.04c-0.45,0.68-1.41,2.29-1.55,3.03c-0.15,0.75-0.32,2.64-0.91,3.05   c0.12,0.37,0.14,0.92,0.44,1.06c1.41,0.65,4.02,0.93,5.07,1.98c1.3,0.13,2.48,0.07,3.78,0.01c0.54-0.02,2.9,0.19,2.85-0.39   c-0.04-0.43-0.12-0.29,0.4-0.57c-0.33-0.23-0.66-0.47-0.98-0.7c-0.67-0.38-0.08-0.54,0.38-0.68c1.19-0.33,4.36-0.99,4.93-0.27   c0.96,0.99,1.93,1.98,2.89,2.97c0.44,0.3,0.88,0.6,1.32,0.9c1.99,1.87,4.25,3.83,6.91,4.64c3.02,0.37,6.03,0.74,9.05,1.11   c3.42,0.31,6.83,0.62,10.25,0.93c1,0.12,3.02-0.05,3.68,0.88c1.14,1.52,0.79,4.65,0.88,6.54c0.13,2.75,0.54,5.7,1.33,8.35   c0.49,1.66,2,3.39,3.13,4.66c0.48,0.47,0.95,0.95,1.43,1.42c4.74,1.15,9.48,2.31,14.22,3.46c0.64,0.17,1.28,0.35,1.92,0.52   c0.61,0.42,1.19,1.19,1.9,1.33c2.54,2.98,3.95,7.02,7.21,9.3c1.39,0.52,2.78,1.03,4.16,1.55c2.34,0.62,4.69,1.25,7.04,1.87   c0.41,0.08,1.2,0.04,1.52-0.19c1.1,0.07,1.97,0.14,3.04,0.38c0.6,0.14,3.14-0.36,3.3-0.04c4.2,0.89,4.05,0.6,5.63,0.52   c1.65-0.07,4.94,0.81,6.25,1.79c0.43,0.25,0.87,0.49,1.3,0.74c2.94,0.91,5.05,2.86,7.24,4.95c1.03,0.99,2.06,1.97,3.09,2.96   c0.87,1.23,1.74,2.46,2.6,3.69c4.51,5.29,7.82,11.35,12.02,16.86c2.1,2.36,4.2,4.73,6.29,7.09c0.64,0.59,1.52,1.71,2.37,1.86   c0.37,0.38,2.44,1.97,2.12,2.21c-2.84,2.16-5.3,4.71-8.45,6.57c-1.88,1.18-3.76,2.35-5.64,3.53c-1.65,1.07-3.29,2.13-4.94,3.2   c-1.67,0.65-4.52,2.91-6.25,2.91c-0.82,0.7-1.65,1.39-2.47,2.09c-1.01,1.95-2.15,4.24-2.47,6.45c-0.28,1.96-0.31,4.1-0.04,6.06   c0.26,1.27,0.53,2.54,0.79,3.81c0.81,1.64,1.63,3.29,2.44,4.93c0.56,1.08,1.12,2.15,1.68,3.23c0.25,0.42,0.49,0.84,0.74,1.26   c1.85,2.32,0.69,7.14-0.88,9.37c-0.57,0.82-1.14,1.65-1.71,2.47c-0.76,0.57-1.52,1.14-2.28,1.71c-1.01,0.7-2.03,1.39-3.04,2.09   c-2.16,0.42-3.79,1.68-5.69,2.65c-0.89,0.51-1.77,1.02-2.66,1.52c-1.07,0.35-2.14,0.7-3.21,1.06c-1.02,0.6-2.04,1.19-3.06,1.79   c-1.83,0.76-3.67,1.52-5.51,2.28c-1.83,0.76-3.67,1.52-5.51,2.28c-1.39,0.43-2.78,0.87-4.18,1.3c-2.45,0.66-4.86,1.31-7.4,1.55   c-0.89,0.25-1.77,0.51-2.66,0.76c-1.62,0.25-3.11,0.3-4.75,0.38c-0.76,0.06-1.52,0.13-2.28,0.19c-5.44-1.06-10.89-2.13-16.33-3.19   c-2.25-0.25-4.57-0.4-6.82-0.14c-1.14,0.23-2.29,0.45-3.43,0.68c-0.82,0.38-1.65,0.76-2.47,1.14c-2.27,0.6-4.54,1.21-6.81,1.81   c-3.06,0.98-6.12,1.95-9.18,2.93c-2.07,0.13-4.15,0.26-6.22,0.39c-2.28,0.25-4.56,0.51-6.83,0.76c-2.85-0.04-5.7-0.07-8.55-0.11   c-2.96-0.14-6.69,0.44-9.52-0.4c-0.83-0.11-1.67-0.23-2.5-0.34L391.17,246.36z"/>
            <circle cx="388.1" cy="122.67" r="1.586"/>
        </g>
        <g id="__Sarıveliler">
            <path d="   M77.1,323.58c0.3,0.61,0.61,1.22,0.91,1.83c0.06,0.44,0.13,0.89,0.19,1.33c-0.12,1.24-0.16,2.52,1.01,3.35   c1.51,1.01,3.38,1.42,5.21,1.42c0.7,0.01,1.41,0.02,2.11,0.02c1.46,0.68,2.93,1.36,4.39,2.04c2.23,1.72,5.3,3.52,4.56,6.64   c0.39-0.39,1.1,1.28,1.14,1.71c0.41,0.26,1.09,0.46,1.14,0.95c1.13-0.1,2.26-0.21,3.39-0.31c0.27,0.13,0.59,0.19,0.62,0.5   c0.24,1.86,0.56,5.53-0.02,7.21c-0.57,1.2-1.14,2.4-1.71,3.61c-0.34,1.02-0.68,2.04-1.02,3.07c-0.35,0.71-0.72,1.85-0.59,2.56   c0.26,0.89,0.86,1.73,1.79,1.79c1.78,0.11,3.45,0.24,5.13,0.96c0.89,0.43,1.78,0.87,2.67,1.3c1.8,0.95,0.92,1.84,1.52,2.47   c1.12,1.16,1.72,2.51,2.85,3.61c1.19,1.17,2.61,1.87,3.8,2.85c0.38,0.63,0.76,1.27,1.14,1.9c0.29,0.42,0.47,0.76,0.95,0.95   c0.96,3.53,1.81,7.24,1.14,10.82c0.1,1.05,0.21,2.1,0.31,3.15c-0.16,0.66-0.32,1.31-0.49,1.97c0.12,1.05,0.46,2.76-0.37,3.59   c-0.58,0.58-1.16,1.15-1.73,1.73c-1.82,0.55-4.98,1.49-5.51,3.45c-0.57,2,0.4,4.05,0.43,6.04c-0.08,0.95-0.16,1.9-0.24,2.85   c-0.19,0.32-0.38,0.63-0.57,0.95c-0.41,0.33-0.82,0.66-1.23,0.99c-0.42,1.05-1.07,3.73-2.2,3.78c-2.09,0.08-4.03-0.97-6.06-1.32   c-0.61-0.69-3.57-1.63-4.56-1.74c-2.66-0.32-5.32-0.63-7.97-0.95c-1.96,0.12-3.91,0.24-5.87,0.36c-1.96,0-2.96-0.36-4.78-1.12   c-0.37-0.15-4.51-2.44-4.73-2.09c1.08,0.74-1-0.57-5.13-2.85c-0.76-1.06-1.56-1.97-2.47-2.85c-0.33-0.56-0.65-1.12-0.98-1.67   c-0.56-0.36-0.7-0.94-1.13-1.42c-1.43-1.61-1.89-3.74-2.88-5.6c-0.68-1.53-1.37-3.06-2.05-4.6c-1.14-3.8-2.27-7.59-3.41-11.39   c-0.2-3.35-0.39-6.71-0.59-10.06c0.03-1.95,0.29-3.78-0.17-5.69c-0.43-1.76-1.39-3.3-2.47-4.75c-0.49-1.18-0.97-2.37-1.46-3.55   c-0.17-0.6-0.29-1.67-0.82-1.96c-0.48,0.2-0.45-0.04,0.72-0.78c1.21-0.69,2.43-1.38,3.64-2.06c3.1-2.53,6.2-5.06,9.3-7.59   c0.47-0.58,0.95-1.17,1.42-1.75c0.86-0.86,1.72-1.73,2.59-2.59c0.69-0.77,1.38-1.53,2.07-2.3c0.3-0.56,0.57-1.43,1.14-1.71   c0.38-0.72,0.75-1.43,1.13-2.15c0.2,0.58,1.38-1.17,1.72-2.6c0.64-0.8,1.29-1.6,1.93-2.4C76.33,324.84,76.72,324.21,77.1,323.58z"/>
            <circle cx="91.96" cy="351.41" r="1.586"/>
        </g>
        <g id="__Başyayla">
            <path d="   M108,363.56c-0.89-0.43-1.78-0.87-2.67-1.3c-1.68-0.72-3.34-0.85-5.13-0.96c-0.93-0.06-1.53-0.9-1.79-1.79   c-0.14-0.71,0.24-1.85,0.59-2.56c0.34-1.02,0.68-2.04,1.02-3.07c0.57-1.2,1.14-2.4,1.71-3.61c0.58-1.68,0.26-5.35,0.02-7.21   c-0.03-0.31-0.35-0.37-0.62-0.5c-1.13,0.1-2.26,0.21-3.39,0.31c-0.05-0.49-0.73-0.69-1.14-0.95c-0.04-0.43-0.75-2.1-1.14-1.71   c0.74-3.12-2.33-4.92-4.56-6.64c-1.46-0.68-2.93-1.36-4.39-2.04c-0.7-0.01-1.41-0.02-2.11-0.02c-1.83,0-3.7-0.42-5.21-1.42   c-1.17-0.82-1.12-2.11-1.01-3.35c-0.06-0.44-0.13-0.89-0.19-1.33c-0.3-0.61-0.61-1.22-0.91-1.83l-0.71-1.01   c-1.09-1.46-2.04-2.75-3.19-4.1c-0.52-0.62-1.04-1.54-1.84-1.79c-0.27-0.32-0.85-0.73-0.76-1.14c-0.73-0.62-1.46-1.23-2.19-1.85   c-0.08-0.41-1.89-2.26-2.36-2.33c-0.32-0.44-0.63-0.89-0.95-1.33c0-1.77,0-3.54,0-5.32c0-2.08-0.24-4.59,1.52-6.07   c0.49-0.41,0.55-0.93,1.09-1.29c0.49-0.31,2.92-1.29,3.45-1.12c1.7,0.47,3.22,1.66,4.57,2.79c1.36,0.9,2.71,1.8,4.07,2.71   c0.63,0.56,2.64,2.74,3.32,2.56c0.83-0.36,1.65-0.73,2.48-1.09c0.45-0.35,0.9-0.71,1.35-1.06c2.23-1.1,4.94-1.82,7.38-1.79   c0.69,0.01,3.05-0.34,3.33,0.2c0.54,1.19,1.9,3.61,2.97,4.05c0.94,0.29,1.87,0.58,2.81,0.87c0.95-0.19,1.9-0.38,2.85-0.57   c0.63-0.34,1.25-0.68,1.87-1.01c1.02-0.42,2.04-0.84,3.06-1.26c2.14-0.13,4.08,0.66,5.7,2.09c1.45,0.82,2.9,1.65,4.35,2.47   c1.34,0.72,3.33,1.54,4.07,2.83c0.56,1.12-0.11,1.6-0.04,2.61c0.03,2.03,0.05,4.07,0.08,6.1c-0.38,1.46-1.48,5.54-1.05,6.86   c-0.32,0.89-0.63,1.77-0.95,2.66c0.08,0.76,0.66,2.71,0.38,3.23c0.57,0.82,1.14,1.65,1.71,2.47c0.21,0.63,0.86,2.52,0.57,3.04   c0.32,0.62,1.05,1.25,0.95,1.9c0.32,0.08,0.65,0.16,0.97,0.24c2.15,0.35,3.81,0.3,5.13,2.32c0.3,0.09,1.11,1.57,1.1,1.8   c-0.14,4.41-1.44,5.47-4.9,8c-0.9,0.37-1.79,0.75-2.69,1.12c-2.24-0.49-4.74-1.66-6.98-0.3c-1.22,0.92-2.44,1.84-3.65,2.76   c-0.82,1.39-1.65,2.78-2.47,4.18c-0.73,0.66-1.46,1.33-2.18,1.99c-0.89,0.95-1.54,2.01-2.18,3.14L108,363.56z"/>
            <circle cx="108.67" cy="332.05" r="1.586"/>
        </g>
        <g id="__Ermenek">
            <path d="   M125.34,310.02c0.56,1.12-0.11,1.6-0.04,2.61c0.03,2.03,0.05,4.07,0.08,6.1c-0.38,1.46-1.48,5.54-1.05,6.86   c-0.32,0.89-0.63,1.77-0.95,2.66c0.08,0.76,0.66,2.71,0.38,3.23c0.57,0.82,1.14,1.65,1.71,2.47c0.21,0.63,0.86,2.52,0.57,3.04   c0.32,0.62,1.05,1.25,0.95,1.9c0.32,0.08,0.65,0.16,0.97,0.24c2.15,0.35,3.81,0.3,5.13,2.32c0.3,0.09,1.11,1.57,1.1,1.8   c-0.14,4.41-1.44,5.47-4.9,8c-0.9,0.37-1.79,0.75-2.69,1.12c-2.24-0.49-4.74-1.66-6.98-0.3c-1.22,0.92-2.44,1.84-3.65,2.76   c-0.82,1.39-1.65,2.78-2.47,4.18c-0.73,0.66-1.46,1.33-2.18,1.99c-0.89,0.95-1.54,2.01-2.18,3.14l0.09,0.13   c-0.25,1.39,0,1.01,0.28,1.77c1.12,1.16,1.72,2.51,2.85,3.61c1.19,1.17,2.61,1.87,3.8,2.85c0.38,0.63,0.76,1.27,1.14,1.9   c0.29,0.42,0.47,0.76,0.95,0.95c0.96,3.53,1.81,7.24,1.14,10.82c0.1,1.05,0.21,2.1,0.31,3.15c-0.16,0.66-0.32,1.31-0.49,1.97   c0.12,1.05,0.46,2.76-0.37,3.59c-0.58,0.58-1.16,1.15-1.73,1.73c-1.82,0.55-4.98,1.49-5.51,3.45c-0.57,2,0.4,4.05,0.43,6.04   c-0.08,0.95-0.16,1.9-0.24,2.85c-0.19,0.32-0.38,0.63-0.57,0.95c-0.41,0.33-0.82,0.66-1.23,0.99c-0.42,1.05-1.07,3.73-2.2,3.78   l-0.37-0.02c2.59,0.9,5.17,1.8,7.76,2.71c3.36,1.25,6.72,2.5,10.08,3.75c2.88,1.17,5.68,2.22,8.73,2.66   c0.82,0.19,1.65,0.38,2.47,0.57c2.02,0.01,4.05,0.03,6.07,0.04c1.52,0.21,3.05,0.42,4.57,0.62c2.88,0.23,5.76,0.46,8.64,0.69   c1.74,0.5,3.48,0.99,5.21,1.49c1.71,0.51,3.42,1.01,5.13,1.52c4.26,2.62,8.9,4.91,13.53,6.83c1.11,0.46,1.94,1.19,3.16,1.58   c0.43,0.14,0.86,0.47,1.15,0.08c1.42,0,2.64,0.42,3.99,0.81c0.57,0.04,1.14,0.07,1.7,0.11c1.58,0.24,3.16,0.47,4.73,0.71   c2.58,0.45,6.29-0.7,8.73-1.47c1.68-0.52,3.79-0.98,5.13-2.27c1.72-1.65,2.46-3.92,3.09-6.1c0.18-0.35,0.35-0.7,0.53-1.05   c0.25-2.28,0.51-4.56,0.76-6.83c-0.59-3-1.19-6-1.78-9.01c-0.52-1.93-1.34-3.79-1.45-5.8c-0.15-2.76,1.02-5.37,1.71-7.97   c1.14-1.08,2.28-2.15,3.42-3.23c2.66-1.75,4.97-1.53,7.95-1.82c2.02-0.2,3.86-0.89,5.95-0.58c0.43-0.02,0.86-0.05,1.29-0.07   c0.7,0.22,1.4,0.45,2.11,0.67c1.45,0.28,2.9,0.57,4.35,0.85c0.21,0.53,1.17,0.58,1.71,0.76c1.01,0.63,2.02,1.27,3.04,1.9   c1.96,1.27,3.91,2.21,5.99,3.25c1.98,0.99,3.33,2.03,5.37,0.52c0.07-0.05,0.14-0.11,0.21-0.16c-0.24-0.41,0.02-0.88,0.11-1.34   c0.25-1.29-0.52-4.35-1.32-5.35c-0.67-1.57-1.35-3.13-2.02-4.7c-1.01-0.39-2.01-2.75-2.8-3.68c-2.36-2.32-4.71-4.64-7.07-6.96   c-1.27-1.26-2.53-2.52-3.8-3.79c-1.64-1.15-3.27-2.29-4.91-3.44c-0.96-0.69-1.91-1.38-2.87-2.06c-0.82-0.44-1.65-0.89-2.47-1.33   c-1.43-1.13-2.85-2.26-4.28-3.39c-2.75-2.16-2.67-4.65-3.7-7.62c-0.69-1.36-1.38-2.72-2.07-4.08c-0.52-0.82-1.13-1.19-1.82-1.83   c-0.79-1.01-1.59-2.01-2.38-3.02c-2.39-2.15-4.74-4.03-6.64-6.65c-0.74-1.03-1.01-2.4-1.39-3.58c-1.18-3.64-1.45-7.4-1.84-11.22   c-0.23-2.23-0.67-4.46-1.36-6.57c-0.21-0.65-0.24-0.84-0.92-0.84c0.16-1.4-0.82-2.05-0.18-3.54c0.06-0.15,0.12-0.3,0.18-0.45   c-1.92,0.96-3.99-0.1-6.07-0.19c-3.23-0.15-6.58-0.42-9.68-1.33c-0.89-0.13-1.77-0.25-2.66-0.38c-1.9-0.44-3.8-0.89-5.69-1.33   c-2.42-0.41-4.84-0.83-7.26-1.24c-2.28-0.11-4.56-0.23-6.84-0.34c-1,0.02-1.99,0.04-2.99,0.06c-4.11,0.06-8.12,0.82-12.14,1.33   c-1.33-0.06-2.66-0.13-3.99-0.19c-1.27,0-2.53,0-3.8,0c-0.54,0-1.08-0.01-1.62-0.03c-3.24-0.13-6.38-0.62-9.64-1.08   c-0.24-0.01-0.47-0.02-0.71-0.02L125.34,310.02z"/>
            <circle cx="169.04" cy="372.11" r="1.586"/>
        </g>
        <g id="__Kazımkarabekir">
            <path d="   M141.03,176.39c0.62,0.62,3.19,0.71,4.13,0.91c0.51,0.11,0.81,0.24,1.18,0.6c1.38,0.08,2.76,0.15,4.15,0.23   c0.96,0.18,1.92,0.35,2.88,0.53c1.46,0,2.91,0,4.37,0c1.36-0.5,2.47-0.85,3.92-0.65c0.61-0.26,1.73-0.36,2.23,0.01   c1.27,0.95,2.38,1.95,3.27,3.35c0.67,0.76,1.34,1.52,2.01,2.28c0.43,0.36,0.86,0.72,1.29,1.08c0.38,0.13,0.76,0.25,1.14,0.38   c0.62,0.02,1.25,0.04,1.87,0.05c0.85,0.3,1.49,0.8,2.13,1.42c0.69,0.33,1.38,0.66,2.07,1c1.61,0.73,4.55,3.31,6.26,2.91   c0.44-0.08,0.89-0.17,1.33-0.25c1.71-1.28,3.3-2.76,4.73-4.44c1.71-2.06,3.43-4.13,5.14-6.19c0.84-1.42,1.67-2.83,2.51-4.25   c1.33-2.33,2.12-7.12,5.59-6.35c2.34,0.54,5.83,1.79,7.54-0.68c1.68-2.47,0.12-5.15-0.25-7.71c-0.08-0.73-0.17-1.47-0.26-2.2   c0.08-0.53,0.16-1.06,0.24-1.59c1.16-2.38,2.93-4.28,4.63-6.35c0.68-0.83,1.95-1.99,2.03-3.13c0.15-4.4-3.54-8.19-7.61-9.31   c-0.75-0.21-1.73-1.52-2.47-1.33c-2.21-2.01-3.84-4.64-5.32-7.21c-0.55-0.97-2-1.88-2.09-3.04c-1.39-1.08-2.75-2.07-3.8-3.42   c-0.89-0.57-1.77-1.14-2.66-1.71c-1.08-0.82-2.15-1.65-3.23-2.47c-1.21-0.71-2.43-1.43-3.64-2.14c-1.9-1.36-3.79-2.72-5.69-4.08   c-1.09-0.71-1.72-1.05-2.59-2.11l-2.17,0.28c0.27-0.23,0.54-0.45,0.81-0.68c-1.73,1.28-3.46,2.55-5.19,3.83   c-4.41,3.97-8.82,7.95-13.22,11.92c-0.95,0.57-1.9,1.14-2.85,1.71c-1.45,0.76-2.91,1.51-4.36,2.27c-1.46,0.74-1.95,2.97-2.85,4.18   c-0.25,0.63-0.51,1.27-0.76,1.9c-0.93,0.93-0.87,2.58-1.22,3.75c-1.02,3.42-1.09,7.66-0.37,11.19c0.4,1.96,0.81,3.93,1.21,5.89   c-0.17,0.78-0.34,1.57-0.5,2.35c-0.66,2.54-1.62,4.92-2.54,7.38c-0.95,2.47-1.89,4.94-2.84,7.4c-0.23,0.51-1.08,2.01-0.95,2.28   c-0.17-0.06-0.34-0.11-0.5-0.17L141.03,176.39z"/>
            <circle cx="186.12" cy="169.74" r="1.586"/>
        </g>
    </g>
</svg>