<?xml version="1.0" encoding="UTF-8"?>
<!DOCTYPE svg PUBLIC "-//W3C//DTD SVG 1.1//EN" "http://www.w3.org/Graphics/SVG/1.1/DTD/svg11.dtd">
<svg version="1.1" id="HaritaCizim" xmlns="http://www.w3.org/2000/svg" xmlns:xlink="http://www.w3.org/1999/xlink" x="0px" y="0px" viewBox="0 0 500 437" preserveAspectRatio="none">
    <defs id="__def">
        <radialGradient id="f">
            <stop offset="0" stop-color="white" stop-opacity="1"/>
            <stop id="STOP1" offset=".4" stop-opacity="1"/>
            <stop offset="1" stop-color="white" stop-opacity=".2"/>
        </radialGradient>
        <filter id="__flt1" x="0" y="0" width="200%" height="200%" filterUnits="objectBoundingBox">
            <feGaussianBlur in="SourceAlpha" stdDeviation="3" result="blur1"/>
            <feSpecularLighting result="specOut" in="blur1" specularConstant="1.5" specularExponent="20" lighting-color="#bbbbbb">
                <feDistantLight azimuth="45" elevation="30"/>
            </feSpecularLighting>
            <feComposite in="specOut" in2="SourceAlpha" operator="in" result="specOut"/>
            <feComposite in="SourceGraphic" in2="specOut" operator="arithmetic" k1="0" k2="1" k3="1" k4="0"/>
        </filter>
        <filter id="__flt2" x="0" y="0" width="200%" height="200%" filterUnits="objectBoundingBox">
            <feGaussianBlur in="SourceAlpha" stdDeviation="3" result="blur1"/>
            <feSpecularLighting result="specOut" in="blur1" specularExponent="20" lighting-color="#bbbbbb">
                <fePointLight x="-2000" y="100" z="2000"/>
            </feSpecularLighting>
            <feComposite in="specOut" in2="SourceAlpha" operator="in" result="specOut"/>
            <feComposite in="SourceGraphic" in2="specOut" operator="arithmetic" k1="0" k2="1" k3="1" k4="0"/>
        </filter>
        <filter id="__flt3" x0="-50%" y0="-50%" width="200%" height="200%" filterUnits="objectBoundingBox">
            <feGaussianBlur in="SourceAlpha" stdDeviation="3" result="blur"/>
            <feOffset in="blur" dx="0" dy="0" result="offsetBlur"/>
            <feSpecularLighting in="blur" surfaceScale="4" specularConstant=".5" specularExponent="20" lighting-color="flavor" result="specOut">
                <fePointLight x="-5000" y="-10000" z="5000"/>
            </feSpecularLighting>
            <feComposite in="specOut" in2="SourceAlpha" operator="in" result="specOut"/>
            <feComposite in="SourceGraphic" in2="specOut" operator="arithmetic" k1="0" k2="1" k3="1" k4="0" result="litPaint"/>
            <feMerge>
                <feMergeNode in="offsetBlur"/>
                <feMergeNode in="litPaint"/>
            </feMerge>
        </filter>
        <filter id="__flt4" x0="-50%" y0="-50%" width="200%" height="200%">
            <feGaussianBlur in="SourceAlpha" stdDeviation="2" result="blur"/>
            <feOffset dy="-1" dx="-1"/>
            <feComposite in2="SourceAlpha" operator="arithmetic" k2="-1" k3="1" result="hlDiff"/>
            <feFlood flood-color="white" flood-opacity=".7"/>
            <feComposite in2="hlDiff" operator="in"/>
            <feComposite in2="SourceGraphic" operator="over" result="withGlow"/>
            <feOffset in="blur" dy="3" dx="3"/>
            <feComposite in2="SourceAlpha" operator="arithmetic" k2="-1" k3="1" result="shadowDiff"/>
            <feFlood flood-color="black" flood-opacity="1"/>
            <feComposite in2="shadowDiff" operator="in"/>
            <feComposite in2="withGlow" operator="over"/>
        </filter>
        <filter id="__golge1" x="0" y="0" width="200%" height="200%" filterUnits="userSpaceOnUse">
            <feOffset result="offOut" in="SourceAlpha" dx="8" dy="8"/>
            <feGaussianBlur result="blurOut" in="offOut" stdDeviation="3"/>
            <feBlend in="SourceGraphic" in2="blurOut" mode="normal"/>
        </filter>
    </defs>
    <g id="__Komsular" display="none">
        <path fill-rule="evenodd" clip-rule="evenodd" fill="none" stroke="#000000" stroke-width="0.25" stroke-miterlimit="10" d="   M168.27,163.02c-0.69-1.56-0.3-3.07-0.66-4.81c-0.3-1.49-1.88-2.75-1.53-4.59c0.29-1.53,1.93-2.85,2.2-4.58   c0.27-1.76-0.06-3.39,0.43-5.02c1-3.27,2.26-6.02,1.36-9.47c-0.82-3.14-5.83-4.59-5.53-7.81c0.29-3.13,5.59-3.5,5.04-7.22   c-0.29-1.96-1.78-2.16-3.24-3.32c-1.49-1.18-2.23-2.99-3.55-4.28c-2.28-2.24-5.26-3.51-6.94-6.38c-1.61-2.74-2.39-6.38-3.11-9.4   c-0.4-1.66-0.12-3.52-0.22-5.24c-0.11-2.05-0.67-3.35-1.26-5.25c-0.93-3-2.35-6.48-2.46-9.61c-0.07-2.04,0.66-3.21-0.87-4.86   c-1.17-1.26-3.05-1.67-4.76-1.21c-2.45,0.66-5.61,4.24-6.17,6.73c-0.36,1.6,0.56,2.92,0.62,4.33c-5.08,3.36-8.72-2.75-8.92-6.96   c-0.16-3.35-0.41-3.95-2.62-6.34c-2.08-2.25-3.11-2.96-6.34-3.28"/>
        <path fill-rule="evenodd" clip-rule="evenodd" fill="none" stroke="#000000" stroke-width="0.25" stroke-miterlimit="10" d="   M362.33,55.29c-0.13-1.44-1.84-2.5-3.05-3.22c-1.96-1.18-2.73-1.13-3.28-3.55c-0.9-3.95,1.76-5.45,4.1-8.14   c1.9-2.18,4.55-4.15,5.08-7.16c0.59-3.29,0.94-6.99,1.26-10.32c0.2-2.07-0.14-4.23,0.44-6.12c0.54-1.76,1.56-3.58,2.23-5.37   c0.62-1.66,1.22-3.54,1.91-5.34c0.8-2.08,0.56-3.97,1.15-6.07"/>
        <path fill-rule="evenodd" clip-rule="evenodd" fill="none" stroke="#000000" stroke-width="0.25" stroke-miterlimit="10" d="   M421.77,274.26c1.77,0.28,3.02,1.62,5.03,1.32c1.47-0.22,3.53-1.11,5.02-1.59c2.87-0.92,5.51-2.6,8.3-3.45   c1.54-0.47,3.33-0.4,4.82-0.86c1.44-0.44,2.84-1.25,4.36-1.54c3.1-0.6,7.27-0.46,9.77,1.36c2.92,2.12,4.94,4.38,8.41,5.57   c1.55,0.53,2.75,1.43,4.15,2.18c1.69,0.91,3.34,1.2,5.15,1.86c5.91,2.15,12.07,4.58,16.28,9.57c1.19,1.41,2.5,2.95,3.66,4.54   c1.14,1.57,1.8,3.79,3.27,5.07"/>
        <path fill-rule="evenodd" clip-rule="evenodd" fill="none" stroke="#000000" stroke-width="0.25" stroke-miterlimit="10" d="   M261.15,375.44c0.12,0.88,0,1.81-0.25,2.59c-3.8-0.85-1.57,6.5-1.06,8.34c0.46,1.66,1.35,2.6,2.36,3.99   c1.27,1.73,0.91,1.95-0.34,3.72c-1.02,1.45-1.96,2.38-2.24,4.1c-0.28,1.75,0.02,3.54-0.22,5.24c-0.63,4.53-3.06,4.26-6.79,5.83   c-1.65,0.7-2.7,1.37-4.58,1.6c-1.5,0.18-3.42,0.23-4.75,0.93c-1.53,0.8-1.68,2.11-2.73,3.38c-1.1,1.34-2.31,1.9-2.8,3.78   c-0.89,3.37-1.53,7.1-1.52,10.71c0,1.74,0.41,4.15-1.31,5.04c-1.1,0.56-4.19,0.09-5.46,0.21c-2.63,0.24-2.3-0.66-4.32-2.19   c-1.5-1.13-3.06-1.04-4.86-1.31c-1.23-0.18-3.93-1.33-5.09-0.5c-1.13,0.8-0.81,3.6-0.81,4.87"/>
        <path fill-rule="evenodd" clip-rule="evenodd" fill="none" stroke="#000000" stroke-width="0.25" stroke-miterlimit="10" d="   M260.49,402.97c1.84-4.23,5.71-0.4,8.52-0.66c2.02-0.18,2.49-1.67,4.2-2.36c1.38-0.56,3.39,0.18,4.98,0.18   c6.7-0.02,14.73,0.35,20.26,4.43c2.34,1.72,5.37,5.16,7,7.65c1.83,2.78,2.06,6.18,4.27,9.08c1.93,2.53,2.95,4.92,4.58,7.64   c1.88,3.13,3.85,4.64,6.95,6.39c0.68,0.39,1.33,0.9,1.96,1.32"/>
        <path fill-rule="evenodd" clip-rule="evenodd" fill="none" stroke="#000000" stroke-width="0.25" stroke-miterlimit="10" d="   M71.9,279.28c-2.8-0.07-6.49,0.71-8.75,2.4c-2.08,1.55-3.59,4.57-5.86,6.16c-1.03,3.17-2.36,6.17-5.71,6.92   c-3.58,0.8-6.74,1.14-10.02,0.64c-1.82-0.28-3.09,0.48-4.86,0.49c-1.85,0.02-3.69-1.43-5.42-0.67c-1.23,0.54-1.82,2.34-2.72,3.23   c-1.06,1.05-2.51,1.89-3.67,2.89c-2.51,2.17-5.36,4.31-7.92,6.06c-1.42,0.97-2.68,2.4-4.11,3.29c-1.57,0.97-3.76,1.5-3.74,3.72   c-1.67,0.9-2.77-3.91-3.68-4.93c-1.32-1.48-3.26-3.14-5.02-3.77"/>
        <path fill-rule="evenodd" clip-rule="evenodd" fill="none" stroke="#000000" stroke-width="0.25" stroke-miterlimit="10" d="   M30.59,295.02c-2.22-1.14-4.97-1.98-7.26-2.57c-2.91-0.76-5.5-0.1-7.76-2.45c-4.38-4.54-9.41-4.63-15.58-4.81"/>
        <text transform="matrix(0.6583 -0.7527 0.7527 0.6583 57.3367 201.0095)" font-family="'MyriadPro-Regular'" font-size="10.4895">ZONGULDAK</text>
        <text transform="matrix(0.7522 -0.659 0.659 0.7522 243.5945 67.8438)" font-family="'MyriadPro-Regular'" font-size="10.4895">BARTIN</text>
        <text transform="matrix(0.1602 0.9871 -0.9871 0.1602 477.6309 101.0122)" font-family="'MyriadPro-Regular'" font-size="10.4895">KASTAMONU</text>
        <text transform="matrix(0.791 -0.6118 0.6118 0.791 404.2297 381.606)" font-family="'MyriadPro-Regular'" font-size="10.4895">ÇANKIRI</text>
        <text transform="matrix(0.703 0.7112 -0.7112 0.703 99.0986 366.5474)" font-family="'MyriadPro-Regular'" font-size="10.4895">BOLU</text>
    </g>
    <g id="__Harita" display="none">
        <rect id="__cer" x="0" y="0" fill="#000000" opacity="0" width="500" height="437"/>
        <g id="__Yenice">
            <path d="    M164.12,285.62c-3.34-0.05-8.46-0.17-11.8-0.22c-2.76-0.96-5.53-1.91-8.29-2.87c-2.04-0.8-4.09-1.59-6.13-2.39    c-2.52-0.71-3.56-2.08-6.22-1.55c-0.33,0.59-0.66,1.19-0.99,1.78c-0.89,1.81-1.79,3.61-2.68,5.42c-0.3,0.5-2.33,0.37-2.85,0.12    c-2.67,0.15-5.33,0.3-8,0.45c-0.7,0.07-1.17,0.2-1.76,0.57c-0.38,1.89-0.75,3.78-1.13,5.67c-0.06,0.3-0.12,0.59-0.18,0.89    c-0.14-0.03-0.28-0.07-0.42-0.1c-0.72,1-1.49,1.33-2.63,1.7c-3.26,1.06-6.7-0.2-9.83-1c-1.46-0.35-2.92-0.69-4.38-1.04    c-1.02-0.8-2.04-1.6-3.06-2.4c-0.49,0.37-0.89-0.85-1.53-0.87c-0.88,0.15-1.52,1.16-2.4,1.31c-0.58-0.18-1.81-0.58-2.38-0.76    c-5.51-1.38-13.42-7.48-16.41-12.13c-0.29-0.95-0.58-1.89-0.87-2.84c0-0.66,0-1.31,0-1.97c0.48-1.53,0.96-3.06,1.43-4.6    c0.93-2.3,2.64-4.28,4.03-6.33c1.19-0.37,2.45-2.5,3.5-3.29c2.81-2.13,5.42-4.9,7.68-7.66c0.72-1.09,1.44-2.17,2.16-3.26    c0.87-0.95,1.75-1.89,2.62-2.84c1.06-2.41,2.12-4.82,3.18-7.23c0.69-2.25,1.38-4.5,2.06-6.75c0.5-0.1,0.63-0.37,0.96-0.74    c1.28-0.02,2.55-0.04,3.83-0.06c2.42,0.27,4.4,0.55,6.34-1.19c0.18-0.31,0.36-0.62,0.54-0.93c0.92-1.54,1.24-3.42,1.71-5.16    c0.2-0.66,0.41-1.32,0.61-1.97c1.68-3.5,3.35-6.99,5.03-10.49c0.73-1.03,1.46-2.06,2.19-3.09c1.75-2.06,3.49-4.12,5.24-6.17    c0.95-0.77,1.9-1.55,2.85-2.32c4.08-4.4,12.87-7.07,18.77-7.42c3.31-0.2,6.85,1.01,9.94,0.13c1.34-0.46,0.62-0.13,1.15-1.13    c0.45-0.81,0.06-2.21-0.02-3.19c-0.04-0.72-0.08-1.44-0.12-2.16c-0.51-1.46-1.02-2.91-1.53-4.37c0.05-0.65,0.11-1.29,0.16-1.94    c0.09-0.98,1.57-2.01,2.29-2.62c2.53-1.76,5.06-3.51,7.59-5.27c0.28-0.03,0.56-0.05,0.83-0.08c0.68-0.23,0.66-1.36,0.96-2.09    c0.77-1.9,1.4-4.09,2.47-5.76c0.16-0.23,1.28,1.39,1.54,1.68c0.98,0.92,1.95,1.84,2.93,2.76c1.21-0.2,1.01,0.19,1.95,0.82    c0.36,0.23,2.76,0.01,3.52-0.14c2.98-0.95,5.97-1.91,8.95-2.86c1.46-0.22,2.91-0.44,4.37-0.66c3.35-0.15,6.7-0.29,10.05-0.44    c3.04,0.24,6.18,0.36,9.11,1.28c2.01,0.82,4.01,1.65,6.02,2.47c1.24-0.37,3.52-0.1,4.76-0.48l0.22-0.66    c0.11,0.28,1.55,2.86,2.62,3.06c1.26,1.26,2.42,2.54,3.75,3.75c2.3,3.05,4.61,6.1,6.91,9.15c1.48,2.31,2.96,4.62,4.45,6.92    c1.16,2.57,2.31,5.14,3.47,7.71c0.45,1.53,0.9,3.06,1.35,4.58c0.06,0.88,0.12,1.75,0.18,2.63c-0.38,0.8-0.77,1.6-1.15,2.4    c-0.46,0.65-1.24,1.18-1.25,1.97c-1.25,0.89-2.03,1.88-3.06,3.06c-0.22,0.44-0.44,0.87-0.66,1.31c-0.92,1.05-1.83,2.1-2.75,3.15    c-0.31,1.22-1.61,1.99-2.16,2.94c-1.57,2.78-3.13,5.56-4.7,8.34c-0.22,2.19-0.66,3.28-1.53,4.81c-0.38,0.84-0.76,1.67-1.13,2.51    c-0.57,2.01-1.14,4.02-1.71,6.02c-1.55,5.31-3.09,10.61-4.64,15.92c-0.64,2.56-1.28,5.12-1.92,7.68    c-0.36,2.12-0.71,4.23-1.07,6.35c-0.2,1.09-0.4,2.18-0.6,3.27c0,0.36-0.54,1.09-0.29,1.09c0,0-2.64,0.28-4.59,0    c-1.18-0.17-2.95,0.37-3.93-0.44c-2.26,0.51-4.52,1.02-6.77,1.53c-2.97-0.28-5.77,0.34-8.74,0.44c-1.27,0.04-4.92,1.24-5.9,0.44    c-1.74,0.31-3.47,0.62-5.21,0.93c-0.52,0.2-1.04,0.4-1.56,0.6c-0.66,0.35-1.32,0.7-1.97,1.05c-1.75,0.43-3.5,0.87-5.25,1.3    c-0.68,0.19-2.79,1-3.26,0.7c-0.87,0.43-1.75,0.87-2.62,1.3c-0.3,0.31-1.04,0.75-0.64,1.07L164.12,285.62z"/>
            <circle cx="175.26" cy="208.48" r="1.586"/>
        </g>
        <g id="__Karabük">
            <path d="    M216.13,275.79c-0.24,0.01,0.29-0.72,0.29-1.09c0.2-1.09,0.4-2.18,0.6-3.27c0.36-2.12,0.71-4.23,1.07-6.35    c0.64-2.56,1.28-5.12,1.92-7.68c1.55-5.31,3.09-10.61,4.64-15.92c0.57-2.01,1.14-4.02,1.71-6.02c0.38-0.84,0.76-1.67,1.13-2.51    c0.87-1.53,1.09-2.84,1.53-4.81c1.57-2.78,3.13-5.56,4.7-8.34c0.55-0.95,1.85-1.72,2.16-2.94c0.92-1.05,1.83-2.1,2.75-3.15    c0.22-0.44,0.44-0.87,0.66-1.31c1.03-1.18,1.81-2.17,3.06-3.06c0.01-0.79,0.79-1.32,1.25-1.97c0.38-0.8,0.77-1.6,1.15-2.4    c-0.06-0.88-0.12-1.75-0.18-2.63c-0.45-1.53-0.9-3.05-1.35-4.58c-1.16-2.57-2.31-5.14-3.47-7.71c-1.48-2.31-2.96-4.62-4.45-6.92    c-2.3-3.05-4.61-6.1-6.91-9.15c-1.33-1.21-2.49-2.49-3.75-3.75c-1.08-0.2-2.51-2.78-2.62-3.06c0.86-0.28,0.99-1.29,1.53-1.97    c0.95-0.95,1.89-1.89,2.84-2.84c0.87-1.31,1.97-1.97,3.5-3.5c0.9-0.9,3.06-3.06,3.86-3.86c0.51-0.36,1.68-1.38,2.19-1.75    c0.44-0.51,1.31-1.17,1.75-1.68c0.44-0.44,1.53-1.17,1.82-1.75c0.73-0.73,1.6-1.53,2.11-2.19c1.02-0.73,1.46-1.75,2.04-2.33    c0.66-0.94,1.32-1.89,1.98-2.83c1.28-1.41,4.5-0.07,5.97,0.73c2.89,2.08,5.77,4.17,8.66,6.26c0.95,0.36,1.42,0.68,2.19,0.87    c2.78,0.7,6.12,1.31,8.74,2.84l0.83,0.15c-0.38,0.28-1.52,0.91-1.45,1.37c0.2,1.04,0.23,3.39,0.84,4.16    c-0.78,1.3-1.22,2.85-1.31,4.37c0.99,0.1,1.38-0.08,1.77,0.93c0.57,1.78,0.26,2.4,1.51,4.1c0.36-0.07,0.73-0.15,1.09-0.22    c0.29,0.58,0.58,1.17,0.87,1.75c1.52,0.24,2.31,0.48,3.72,1.09c0.85,0.37,1.22,1.34,2.19,1.31c0.33,0.76,1.19,2.21,0.87,2.84    c0.28,0.42,0.37,0.58,0.22,1.09c0.54,0.47,1.08,0.94,1.63,1.41c0.49,0.52,0.98,1.44,1.65,1.65c0.17,1.66,0.35,3.33,0.52,4.99    c0.17,0.55,0.35,1.58-0.08,2c0.43,0.95,0.86,1.9,1.29,2.85c0.25,1.08,0.51,2.16,0.76,3.24c0.56,0.89,1.11,1.77,1.67,2.66    c-0.07,0.15-0.15,0.29-0.22,0.44c1.09,2.18,1.08,4.47,1.53,6.77c0.61,1.87,1.21,3.74,1.82,5.61c1.82,1.41,2.98,3.67,4.3,5.53    c0.48,0.68,1.48,0.95,1.75,1.75c1.81,0.8,3.63,1.6,5.44,2.4c1.44,0.46,2.88,0.91,4.32,1.37c0.83,0.2,1.65,0.41,2.48,0.61    c0.95,0.15,1.89,0.29,2.84,0.44c2.73,1.7,4.54,2.89,6.58,5.42c1.31,1.62,2.63,3.17,3.48,5.07c0.09,1.6,0.18,3.2,0.27,4.79    c0.28,2.55,0.55,5.11,0.83,7.66c0.29,1.52-0.66,3.7,0.14,4.96c0.34,0.5,1.17,1.95,1.81,1.76l0.2,0.94c0,1.53,2.01,3.5,3.31,3.93    c0.71,1.29,2.32,2.16,3.46,3.01c0.24,0.35,0.47,0.7,0.71,1.05c-0.15,2.25,1.23,2.83,2.6,4.24c0.29,0.44,0.58,0.87,0.87,1.31    c0.04,1.23,0.18,2.68-0.44,3.72c0.2,0.64,0.29,1.87-0.22,2.4c0.16,0.78,0.48,1.92,0,2.62c0.03,0.79,0.06,1.57,0.1,2.36    c0.2,0.81,0.41,1.63,0.61,2.44c0.76,1.56,1.2,2.88,1.26,4.6c0.03,0.94-0.74,3.65-1.53,4.15c-0.2,0.74-0.31,1.84-1.09,2.19    c-0.22,0.36-0.44,0.73-0.66,1.09c-0.22,0.44-0.44,0.87-0.66,1.31c-0.28,1.74-0.06,3.25,0.01,4.96l0.81,0.66    c-1.43,0.78-2.63,1.43-4.3,1.59c-1.02,0.07-2.05,0.15-3.07,0.22c-0.8-0.15-1.6-0.29-2.4-0.44c-0.73-0.36-1.46-0.73-2.19-1.09    c-1.28-0.55-3.91-0.99-4.81-1.97c-1.68-0.26-3.34-0.31-5.03,0c-0.8,0-1.6,0-2.4,0c-1.17-0.51-2.33-1.02-3.5-1.53    c-2.05-2.43-3.9-4.79-5.72-7.42c-0.79-1.39-1.58-2.77-2.37-4.16c-0.73-0.34-2.98-1.27-3.28-1.97c-1.17-0.15-2.33-0.29-3.5-0.44    c-3.18,0.3-7.91,1.26-9.83,3.93c-1.26,0.45-2.83,1.3-3.57,2.49c-0.33,0.77-0.67,1.55-1,2.32c-0.76,0.96-2.16,2.07-1.98,3.49    c-0.28,0.33-0.52,0.41-0.44,0.87c-0.8,0.51-1.6,1.02-2.4,1.53c-0.97,0.12-2.28,0.45-2.84,1.31c-0.59,0.16-1.19,0.14-1.53,0.66    c-0.87,0.15-1.75,0.29-2.62,0.44c-0.36,0-0.73,0-1.09,0c-0.87-0.36-1.75-0.73-2.62-1.09c-0.45-0.65-0.9-1.29-1.35-1.94    c-0.33-0.43-0.97-0.66-1.06-1.34c-3.04-3.14-6.49-6.16-7.87-10.49c-0.66-0.95-1.31-1.89-1.97-2.84c-0.54-0.41-1.47-1.11-1.53-1.75    c-0.9-0.4-1.8-0.81-2.7-1.21c-0.67-0.16-1.47,0.01-1.89-0.54c-2.33-0.07-4.66-0.15-6.99-0.22c-0.8,0.14-1.6,0.28-2.4,0.42    c-1.46-0.07-2.92-0.14-4.38-0.2c-0.83-0.1-3.51-0.05-4.15,0.44c-0.66-0.07-1.31-0.15-1.97-0.22c-0.66-0.07-1.31-0.15-1.97-0.22    c-2.19,0.15-4.37,0.29-6.56,0.44L216.13,275.79z"/>
            <circle cx="275.57" cy="212.63" r="1.586"/>
        </g>
        <g id="__Safranbolu">
            <path d="    M390.73,234.48c-0.79-0.11-1.87-0.25-2.4-0.87c-1.8-0.11-5.05,0.91-6.34-1.09c-0.44-0.22-0.87-0.44-1.31-0.66    c-1.27-0.29-5.61-0.89-6.34-1.75c-0.8,0-1.6,0-2.4,0c-1.76,1.27-3.51,2.54-5.27,3.8c-0.35,0.43-0.7,0.87-1.04,1.3    c-0.03,0.97-1.39,2.41-2.21,2.98c-1.28,0.89-2.84,0.22-4.15,0.66c-3.65-0.71-7.51-0.94-11.15,0c-1.38,0.36-2.61,1.37-3.72,2.19    c-0.8,0.44-1.6,0.87-2.4,1.31c-2.93,0.18-5.79-0.19-8.09,1.75c-0.73,0.51-1.46,1.02-2.19,1.53c-0.22,0.36-0.44,0.73-0.66,1.09    c-0.37,0.34-0.74,0.68-1.11,1.02c-0.75,0.12-2.62,2.14-2.64,2.69l-0.2-0.94c-0.64,0.2-1.47-1.25-1.81-1.76    c-0.8-1.26,0.15-3.44-0.14-4.96c-0.28-2.55-0.55-5.11-0.83-7.66c-0.09-1.6-0.18-3.2-0.27-4.79c-0.85-1.91-2.17-3.45-3.48-5.07    c-2.03-2.52-3.85-3.71-6.58-5.42c-0.95-0.15-1.89-0.29-2.84-0.44c-0.83-0.2-1.65-0.41-2.48-0.61c-1.44-0.46-2.88-0.91-4.32-1.37    c-1.81-0.8-3.63-1.6-5.44-2.4c-0.27-0.8-1.27-1.07-1.75-1.75c-1.32-1.86-2.49-4.12-4.3-5.53c-0.61-1.87-1.21-3.74-1.82-5.61    c-0.45-2.31-0.44-4.6-1.53-6.77c0.07-0.15,0.15-0.29,0.22-0.44c-0.56-0.89-1.11-1.77-1.67-2.66c-0.25-1.08-0.51-2.16-0.76-3.24    c-0.43-0.95-0.86-1.9-1.29-2.85c0.43-0.42,0.26-1.45,0.08-2c-0.17-1.66-0.35-3.33-0.52-4.99c-0.67-0.22-1.16-1.13-1.65-1.65    c-0.54-0.47-1.08-0.94-1.63-1.41c0.15-0.51,0.06-0.68-0.22-1.09c0.32-0.63-0.55-2.08-0.87-2.84c-0.96,0.02-1.34-0.94-2.19-1.31    c-1.4-0.61-2.19-0.85-3.72-1.09c-0.29-0.58-0.58-1.17-0.87-1.75c-0.36,0.07-0.73,0.15-1.09,0.22c-1.25-1.7-0.94-2.32-1.51-4.1    c-0.39-1.01-0.77-0.83-1.77-0.93c0.09-1.52,0.54-3.07,1.31-4.37c-0.61-0.77-0.64-3.12-0.84-4.16c-0.07-0.46,1.06-1.09,1.45-1.37    c0.16-0.12,0.32-0.25,0.48-0.37c0.23,0,2,0.48,2.18,0.67c1.96,0.32,1.96,1.11,3.5,1.95c0.96,0.55,1.92,1.1,2.88,1.65    c0.42-0.06,0.84-0.13,1.26-0.19c1.79-0.2,3.31-1.17,4.79-2.13c5.31-3.41,9.77-8.9,10.78-15.27c0.61-3.82,0.62-7.95,0.44-11.84    c-0.23-0.64-0.46-1.29-0.7-1.93c-0.44-1.6-0.87-3.21-1.31-4.81c-2.13-2.75-4.93-4.97-6.41-8.19c-0.17-0.37-0.17-0.29,0.09-0.72    c-0.51-1.55-1.03-3.09-1.54-4.64c-0.8-2.04-1.6-4.08-2.4-6.12c-1.54-1.88-2.65-4.08-4.47-5.78c-0.33-0.05-0.66-0.1-1-0.14    c-0.22,0.01-0.44,0.01-0.66,0.02c0.85,0.6,0.41,0.44,1.03,0.13c1.02-0.56,0.5-1.23,0.28-2.31c0.63-0.36,0.45-1.11,0.82-1.71    c0.7-1.14,2.2-1.64,3.33-2.23c-0.2-0.67,0.07-0.78,0.44-1.31c0.73,0.07,1.46,0.15,2.19,0.22c0.13-0.21,3.2-1.19,3.87-1.5    c3.1-1.45,5.77-3.58,8.59-5.49c0.42,0.4,1.17,0.19,1.75,0.2c1.17,0.15,2.33,0.31,3.5,0.46c1.82,1.6,3.64,3.21,5.46,4.81    c1.55,0.79,3.12,1.31,4.81,1.75c0.58-0.56,2.66-0.22,3.5-0.22c2.19-0.98,4.38-1.97,6.57-2.95c3.24-1.27,5.36-1.46,7.74-4.34    c0.46-0.55-0.44-1.83-0.68-2.35c-0.03-0.06-0.05-0.13-0.08-0.19c0.59,0.37,1.41-0.28,1.82-0.81c1.63,0.29,3.29-0.41,4.76-0.61    c1.9-0.18,3.47,1.14,4.79,2.51c0.22,0.23,0.05,0.65,0.26,1.16c0.83,1.98,0.52,4.23,0.36,6.31c0.01,1.74,0.02,3.47,0.03,5.21    c0.45,0.51,0.54,1.83,0.16,2.34c-0.05,0.89-0.11,1.79-0.16,2.68c-1.7,3.77-4.6,5.25-7.43,8.09c-0.22,0.8-0.44,1.6-0.66,2.4    c0.05,1.45,0.11,2.9,0.16,4.35c0.43,1.11,0.86,2.21,1.28,3.32c1.18,2.47,2.19,5.73,1.58,8.43c-1.11,4.93-5.46,6.99-3.9,12.53    c0.36,0.51,0.73,1.02,1.09,1.53c2.82,1.8,4.8,4.18,6.04,7.25c0.17,0.28,0.34,0.56,0.51,0.84c0,0.66,0,1.31,0,1.97    c0.36,1.31,0.73,2.62,1.09,3.93c0.23,0.94,0.19,3,1.21,3.41c0.25,0.32,0.51,0.64,0.76,0.96c0.66,0.15,1.31,0.29,1.97,0.44    c0.58,0.36,1.17,0.73,1.75,1.09c0.45,1.4,1.96,2.02,3.06,2.84c1.06,0.1,3.03,1.33,3.93,1.97c0.15,0.73,0.86,1.17,1.31,1.75    c1.48,1.88,3.4,2.82,5.46,3.93c1.68,0.23,3.36,0.47,5.04,0.7c2.48,0.12,4.9,0.37,7.32,0.95c0.91,0.03,1.81,0.06,2.72,0.1    c1.75,0.29,3.5,0.58,5.24,0.87c0.15,0.77,1.32,1.26,1.95,1.77c0.08,0.07,0.16,0.13,0.24,0.2c0.31,0.13,1.09,0.15,0.91,0.25    c-0.18,0.62-1.71,0.76-2.22,1.28c-0.26,0.81-0.53,1.63-0.79,2.44c-0.67,1.67-1.2,3.77-2.7,4.99c-3.34,2.73-6.74,5.89-7.65,10.27    c0.68,1.02,0.55,3.75,0.19,4.94c-0.38,1.25-1.22,2.26-1.94,3.37c-0.15,0.44-0.29,0.87-0.44,1.31c-0.03,1.44-0.05,2.89-0.08,4.33    c-0.09,0.85-0.72,1.39-0.79,2.23c-0.01,0.81-0.02,1.61-0.03,2.42c0.13,0.87,0.26,1.75,0.38,2.62c0.39,3.13,0.78,6.26,1.17,9.38    c1.89,0.66,3.79,1.31,5.68,1.97c1.75,1.38,3.5,2.77,5.24,4.15c0.49-0.33,2.33,0.03,2.53,0.55c0.9,0.62,1.81,1.23,2.71,1.85    c-0.08,0.57,0.67,1.77,1.09,2.19L390.73,234.48z"/>
            <circle cx="294.8" cy="194.27" r="1.586"/>
        </g>
        <g id="__Eflani">
            <path d="    M333.04,78.45c0.59,0.37,1.41-0.28,1.82-0.81c1.63,0.29,3.29-0.41,4.76-0.61c1.9-0.18,3.47,1.14,4.79,2.51    c0.22,0.23,0.05,0.65,0.26,1.16c0.83,1.98,0.52,4.23,0.36,6.31c0.01,1.74,0.02,3.47,0.03,5.21c0.45,0.51,0.54,1.83,0.16,2.34    c-0.05,0.89-0.11,1.79-0.16,2.68c-1.7,3.77-4.6,5.25-7.43,8.09c-0.22,0.8-0.44,1.6-0.66,2.4c0.05,1.45,0.11,2.9,0.16,4.35    c0.43,1.11,0.86,2.21,1.28,3.32c1.18,2.47,2.19,5.73,1.58,8.43c-1.11,4.93-5.46,6.99-3.9,12.53c0.36,0.51,0.73,1.02,1.09,1.53    c2.82,1.8,4.8,4.18,6.04,7.25c0.17,0.28,0.34,0.56,0.51,0.84c0,0.66,0,1.31,0,1.97c0.36,1.31,0.73,2.62,1.09,3.93    c0.23,0.94,0.19,3,1.21,3.41c0.25,0.32,0.51,0.64,0.76,0.96c0.66,0.15,1.31,0.29,1.97,0.44c0.58,0.36,1.17,0.73,1.75,1.09    c0.45,1.4,1.96,2.02,3.06,2.84c1.06,0.1,3.03,1.33,3.93,1.97c0.15,0.73,0.86,1.17,1.31,1.75c1.48,1.88,3.4,2.82,5.46,3.93    c1.68,0.23,3.36,0.47,5.04,0.7c2.48,0.12,4.9,0.37,7.32,0.95c0.91,0.03,1.81,0.06,2.72,0.1c1.75,0.29,3.5,0.58,5.24,0.87    c0.15,0.77,1.32,1.26,1.95,1.77l0.28,0.2c1.54,0.77,3.07-1.02,4.24-2.11c0.82-0.51,1.72-1.3,2.46-1.73    c2.69-1.57,3.81-4.33,6.65-5.64c2.14-0.99,4.2-1.1,6.49-1c2.99-0.66,5.97-1.31,8.96-1.97c3.35-3.24,6.63-6.48,10.59-9.03    c0.9-0.58,3.68-2.03,4.71-1.68c0.73-0.44,1.46-0.87,2.19-1.31c1.3-1.83,2.34-3.75,3.5-5.68c1.18-1.35,2.37-2.7,3.55-4.05    c0.25-0.19,0.5-0.39,0.75-0.58c0.9-1.16,2.72-3.77,2.91-5.2c0.23-3.63,0.46-7.27,0.7-10.9c0.13-2.12,0.49-4.27-1.29-5.89    c0.23-0.7-0.15-0.6-0.73-0.81c-1.17-0.45-2.34-0.91-3.52-1.36c-1.6-0.36-3.21-0.72-4.81-1.08c-0.97-0.21-1.93-0.43-2.9-0.64    c-2.24-3.26-2.81-8.9-2.32-12.77c0.16-1.24,0.38-2.31,0.13-3.6c0.29-0.31,0.57-0.88,0.05-1.09c-3.92-1.44-8.94-0.01-12.59-2.59    c-0.38-0.2-0.76-0.39-1.13-0.59c-0.51-0.66-1.02-1.31-1.54-1.97c0-1.65,0.61-3.27,1.32-4.81c0.29-1.02,0.58-2.04,0.87-3.06    c1.25-3.14,0.65-7.92,0-11.15c-1.02-1.53-2.04-3.06-3.06-4.59c0.31-1.66,0.62-3.32,0.94-4.99c0.46-0.32,0.37-0.24,0.34-0.7    c-0.1-0.69-0.2-1.37-0.3-2.06c-0.25-0.26-0.51-0.52-0.76-0.79c-2.38-1.06-4.95-1.34-7.56-1.24c-0.39-0.38-0.66-0.29-1.18-0.29    c-1.01,0.63-4.31,2.72-4.59,3.72c-0.59,0.1-1.18,0.21-1.77,0.31c-0.07,0.19-0.13,0.37-0.2,0.56c-0.32-0.27-0.65-0.55-0.97-0.82    c-1.01-0.89-2.36-2.85-2.53-4.21c-2.33-1.89-8.15-3.75-11.23-3.09c-4.48,0.97-6.59,5.69-9.75,8.33c-0.75,0.63-2.94,0.88-3.91,0.91    c-1.09,0.84-3.9-0.75-5.05-0.47c-0.16-0.3-0.33-0.61-0.49-0.92c-0.74-1.42-0.6-3-2.08-4c0.06-0.18,0.11-0.36,0.17-0.55    c-0.07-0.01-0.15-0.01-0.22-0.02c-3.34-0.21-6.55,0.03-9.4,1.99c-0.73,0.5-1.95,0.34-2.4,1.09c-0.98-0.03-3.21-0.29-3.93,0.44    c-1.08,0.03-1.99-0.08-3.06-0.22c-3.45,2.1-5.54,5.45-8.74,7.87c-2.33,1.76-5.37,1.54-7.65,3.28c-0.68,0.52-0.73,0.78-1.28,1.39    c-0.37,0.21-0.49,0.86-0.39,1.11c0.14,0.29,0.28,0.58,0.42,0.87c0.92,1.25,1.81,2.39,3,3.41c1.54,0,2.73,0.78,4.21,1.11    L333.04,78.45z"/>
            <circle cx="381.34" cy="119.1" r="1.586"/>
        </g>
        <g id="__Ovacık">
            <path d="    M336.76,296.33c-0.49,0.78-0.23,0.75,0,1.53c-0.21,1.6-0.42,3.21-0.63,4.81c-0.03,0.54,1.29,1.94,1.72,2.62    c1.33,2.11,2.82,2.92,4.81,4.15c0.29,0.83,1.48,1.27,2.19,1.75c0.38,0.55,0.76,1.11,1.15,1.66c0.36,0.45,0.52,1.23,0.38,1.84    l0.22,0.44c-0.07,0-0.15,0-0.22,0c0.51,0.8,1.02,1.6,1.53,2.4c0.46,0.2,0.81,0.24,1.09,0.66c0.73,0.19,2.19,0.32,2.62,0.87    c1.17,0.22,2.33,0.44,3.5,0.66c1.38-0.02,2.76-0.03,4.14-0.05c1.45-0.03,2.9-0.05,4.36-0.08c0.96-0.18,1.91-0.36,2.87-0.53    c2.99-0.79,5.98-1.58,8.97-2.36c2.26-0.52,4.51-1.05,6.77-1.57c0.73-0.22,1.46-0.44,2.19-0.66c3.08-0.5,5.28-1.25,8.13-2.29    c1.08-0.48,2.16-0.95,3.24-1.43c0.74-0.3,1.48-0.61,2.21-0.92c2.24-1.37,4.93-2.83,6.75-4.77c2.25-1.75,4.5-3.5,6.75-5.24    c0.04-0.62,0.45-0.83,0.85-1.27c0.18-0.35,0.36-0.7,0.53-1.04c0.06-0.47,0.11-0.93,0.17-1.4c-0.2-0.8-0.39-1.6-0.59-2.4    c-1.49-1.14-2.37-3.29-2.04-5.03c2.15-2.37,4.93-3.74,7.43-5.67c0.8-0.88,1.6-1.76,2.4-2.64c0.07-0.95,0.15-1.89,0.22-2.84    c0.21-0.62,0.42-1.24,0.63-1.86c0.16-0.75-0.32-1.01,0.46-1.41c-0.82-0.31-1.64-0.62-2.46-0.93c-3.95-2.66-5.44-11.31-5.22-15.89    c0.24-0.87,0.48-1.74,0.72-2.61c0.06-0.81,0.13-1.62,0.19-2.42c-0.8-0.66-1.6-1.31-2.4-1.97c-0.93-1.22-1.87-2.43-2.8-3.65    c-0.06-0.73-0.46-0.82-0.83-1.39c-0.81-1.25-1.61-2.5-2.42-3.74c-0.83-0.86-1.65-1.72-2.48-2.58c-1.53-1.02-3.06-2.04-4.59-3.06    c-1.97-0.16-3.93-0.32-5.9-0.48c-1.03-0.05-2.14,0.06-2.62-1.05c-0.79-0.11-1.87-0.25-2.4-0.87c-1.8-0.11-5.05,0.91-6.34-1.09    c-0.44-0.22-0.87-0.44-1.31-0.66c-1.27-0.29-5.61-0.89-6.34-1.75c-0.8,0-1.6,0-2.4,0c-1.76,1.27-3.51,2.54-5.27,3.8    c-0.35,0.43-0.7,0.87-1.04,1.3c-0.03,0.97-1.39,2.41-2.21,2.98c-1.28,0.89-2.84,0.22-4.15,0.66c-3.65-0.71-7.51-0.94-11.15,0    c-1.38,0.36-2.61,1.37-3.72,2.19c-0.8,0.44-1.6,0.87-2.4,1.31c-2.93,0.18-5.79-0.19-8.09,1.75c-0.73,0.51-1.46,1.02-2.19,1.53    c-0.22,0.36-0.44,0.73-0.66,1.09c-0.37,0.34-0.74,0.68-1.11,1.02c-0.75,0.12-2.62,2.14-2.64,2.69c0,1.53,2.01,3.5,3.31,3.93    c0.71,1.29,2.32,2.16,3.46,3.01c0.24,0.35,0.47,0.7,0.71,1.05c-0.15,2.25,1.23,2.83,2.6,4.24c0.29,0.44,0.58,0.87,0.87,1.31    c0.04,1.23,0.18,2.68-0.44,3.72c0.2,0.64,0.29,1.87-0.22,2.4c0.16,0.78,0.48,1.92,0,2.62c0.03,0.79,0.06,1.57,0.1,2.36    c0.2,0.81,0.41,1.63,0.61,2.44c0.76,1.56,1.2,2.88,1.26,4.6c0.03,0.94-0.74,3.65-1.53,4.15c-0.2,0.74-0.31,1.84-1.09,2.19    c-0.22,0.36-0.44,0.73-0.66,1.09c-0.22,0.44-0.44,0.87-0.66,1.31c-0.28,1.74-0.06,3.25,0.01,4.96L336.76,296.33z"/>
            <circle cx="370.85" cy="267.26" r="1.586"/>
        </g>
        <g id="__Eskipazar">
            <path d="    M345.99,312.85c-0.38-0.55-0.76-1.11-1.15-1.66c-0.71-0.48-1.89-0.91-2.19-1.75c-1.99-1.24-3.48-2.04-4.81-4.15    c-0.43-0.68-1.75-2.08-1.72-2.62c0.21-1.6,0.42-3.21,0.63-4.81c-0.23-0.78-0.49-0.75,0-1.53c-0.09,0.05-0.19,0.1-0.28,0.16    c-1.43,0.78-2.63,1.43-4.3,1.59c-1.02,0.07-2.05,0.15-3.07,0.22c-0.8-0.15-1.6-0.29-2.4-0.44c-0.73-0.36-1.46-0.73-2.19-1.09    c-1.28-0.55-3.91-0.99-4.81-1.97c-1.68-0.26-3.34-0.31-5.03,0c-0.8,0-1.6,0-2.4,0c-1.17-0.51-2.33-1.02-3.5-1.53    c-2.05-2.43-3.9-4.79-5.72-7.42c-0.79-1.39-1.58-2.77-2.37-4.16c-0.73-0.34-2.98-1.27-3.28-1.97c-1.17-0.15-2.33-0.29-3.5-0.44    c-3.18,0.3-7.91,1.26-9.83,3.93c-1.26,0.45-2.83,1.3-3.57,2.49c-0.33,0.77-0.67,1.55-1,2.32c-0.76,0.96-2.16,2.07-1.98,3.49    c-0.28,0.33-0.52,0.41-0.44,0.87c-0.8,0.51-1.6,1.02-2.4,1.53c-0.97,0.12-2.28,0.45-2.84,1.31c-0.59,0.16-1.19,0.14-1.53,0.66    c-0.87,0.15-1.75,0.29-2.62,0.44c-0.36,0-0.73,0-1.09,0c-0.87-0.36-1.75-0.73-2.62-1.09c-0.45-0.65-0.9-1.29-1.35-1.94    c-0.33-0.43-0.97-0.66-1.06-1.34c-3.04-3.14-6.49-6.16-7.87-10.49c-0.66-0.95-1.31-1.89-1.97-2.84c-0.54-0.41-1.47-1.11-1.53-1.75    c-0.9-0.4-1.8-0.81-2.7-1.21c-0.67-0.16-1.47,0.01-1.89-0.54c-2.33-0.07-4.66-0.15-6.99-0.22c-0.8,0.14-1.6,0.28-2.4,0.42    c-1.46-0.07-2.92-0.14-4.38-0.2c-0.83-0.1-3.51-0.05-4.15,0.44c-0.66-0.07-1.31-0.15-1.97-0.22c-0.66-0.07-1.31-0.15-1.97-0.22    c-2.19,0.15-4.37,0.29-6.56,0.44c-1.88,0.38-3.73,0.5-5.68,0.22c-1.18-0.17-2.95,0.37-3.93-0.44c-2.26,0.51-4.52,1.02-6.77,1.53    c-2.97-0.28-5.77,0.34-8.74,0.44c-1.27,0.04-4.92,1.24-5.9,0.44c-1.74,0.31-3.47,0.62-5.21,0.93c-0.52,0.2-1.04,0.4-1.56,0.6    c-0.66,0.35-1.32,0.7-1.97,1.05c-1.75,0.43-3.5,0.87-5.25,1.3c-0.68,0.19-2.79,1-3.26,0.7c-0.87,0.43-1.75,0.87-2.62,1.3    c-0.3,0.31-1.04,0.75-0.64,1.07c0.36,0.3,0.71,0.61,1.07,0.92c1.6-0.15,5.69-0.01,6.13,0.21c4.55,0.29,9.9,0.75,12.67,4.81    c0.61,0.89,3.2,2.12,3.3,3.1c-0.12,0.59,0.61,0.65,0.2,1.04c-1.74,1.68-2.82,3.76-4.39,5.62c-0.14,0.81-0.29,1.62-0.43,2.42    c-0.11,1.75-0.72,3.24-1.2,4.88c-0.32,0.86-0.65,1.73-0.97,2.59c-0.1,0.44-0.2,0.87-0.29,1.31c-0.54,1.21-2.53,5.3-1.68,6.42    c0.22,0.27,0.43,0.54,0.65,0.81c0.85,0.08,3.39-0.29,3.95,0.2c0.79-0.59,1.26-1.1,1.93-1.77c0.48-0.48,1.28-0.69,1.56-1.29    c1.82-0.18,3.64-0.92,5.17-1.97c1.48-1.01,2.84-1.77,4.64-1.42c0.26,0.07,0.51,0.15,0.77,0.22c0.19,0.18,0.38,0.36,0.57,0.55    c-0.07,1.02-0.15,2.04-0.22,3.06c0.15,0.86,0.3,1.72,0.45,2.57c0.36,0.47,0.78,2.18,0.42,2.67c0.22,0.44,0.44,0.87,0.66,1.31    c0.44,0.44,0.87,0.87,1.31,1.31c-1.03,1.28-2.07,2.57-3.1,3.85c-1.46,2.05-2.33,4.08-4.33,5.76c-0.68,0.57-1.34,1.51-2.19,1.75    c-1.02,1.28-2.08,2.63-3.5,3.5c-0.87,0.23-1.74,0.46-2.62,0.69c-0.8,0.21-1.6,0.43-2.4,0.64c-2.97,0.7-5.53,1.62-6.26,4.82    c-0.57,0.35-1.7,2.92-1.56,3.44c0.37,1.35,0.63,3.29,1.75,4.1c1.28,0.94,3.03,1.36,4.53,1.82c1.24,0.44,2.48,0.87,3.71,1.31    c0.8,0.36,1.6,0.73,2.4,1.09c1.27,0.16,3.95,0.91,5.03,0.44c1.88,0.39,4.18,1.05,6.1,0.55c2.53-0.66,5.04-0.83,7.66-0.74    c0.8-0.01,1.61-0.01,2.41-0.02c1.45-0.68,2.91-1.37,4.36-2.05c1.6-0.56,3.21-1.11,4.81-1.67c1.61-0.45,3.21-0.91,4.82-1.36    c0.88-0.77,1.76-1.53,2.64-2.3c2.25-1.4,4.6-2.42,6.75-3.99c1.43-1.05,3.95-0.95,5.24-1.75c0.87,0.07,1.75,0.15,2.62,0.22    c0.51,1.24,1.02,2.48,1.53,3.72c0.32,1.3,0.63,2.6,0.95,3.91c0.49,1.25,0.78,2.81,0.19,4.08c-0.15,0.3-0.34,0.03-0.48-0.12    c0.09,0.19,0.19,0.37,0.28,0.56c-0.02,0.1-0.04,0.21-0.06,0.31c0.44,0.22,0.87,0.44,1.31,0.66c0.44,0.8,0.87,1.6,1.31,2.4    c0.07,2.19,0.15,4.37,0.22,6.56c0.47,0.73,1.08,1.93,1.96,1.99c0.62,0.04,2.44,0.14,2.85-0.46c0.21,0.15,0.43,0.3,0.64,0.44    c0.51,0.29,1.03,0.58,1.54,0.87c0.58,0.66,1.17,1.31,1.75,1.97c0.52,0.39,1.32,0.7,1.53,1.31c1.02,0.15,2.04,0.29,3.06,0.44    c0.38,0.27,0.62,0.71,1.09,0.66c0.12,0.77,0.07,1.17,0.92,1.25c0.06,0.17,0.12,0.33,0.18,0.5c0.14-0.08,0.28-0.15,0.42-0.23    c1.97-1.16,3.94-2.32,5.91-3.48c1.04-0.45,2.08-0.91,3.11-1.36c0.5-0.36,3.26-1.84,3.66-1.7c1.48-0.92,3.1-1.8,4.83-2.16    c0.59-0.33,1.18-0.66,1.77-0.99c2.97-0.7,5.95-1.4,8.92-2.1c1.02-0.36,2.04-0.73,3.06-1.09c0.36-0.11,0.73-0.22,1.09-0.33    c2.04-1.06,4.08-2.11,6.12-3.17c0.74-0.37,1.48-0.74,2.22-1.11c2.18-1.64,4.55-3.5,5.87-5.89c0.51-0.73,1.02-1.46,1.53-2.19    c1.38-1.46,2.77-2.91,4.15-4.37c1.17-0.73,2.33-1.46,3.5-2.19c1.17-1.02,2.33-2.04,3.5-3.06c0.5-0.88,0.99-1.77,1.49-2.65    c0.6-0.65,1.19-1.29,1.79-1.94c1.18-0.7,2.71-1.37,3.56-2.51c0.56-0.91,1.12-1.82,1.69-2.73c0.08-0.53,0.07-1.14,0.44-1.53    c0.07-2.11,0.15-4.23,0.22-6.34c-0.56-1.15-2.13-3.84-1.09-5.03c0.38-0.6,1.38-1.97,2.14-1.62c0.23,0.25,0.46,0.5,0.7,0.74    c0.95,0.51,1.89,1.02,2.84,1.53c0.8,0.22,1.6,0.44,2.4,0.66c1.99-0.47,4.58-0.73,6.12-1.97c0.26-0.21,1.98-1.38,2.07-0.78    c0.06,0.27,0.71-0.92,0.77-1.19C346.51,314.07,346.35,313.3,345.99,312.85z"/>
            <circle cx="246.72" cy="324.08" r="1.586"/>
        </g>
    </g>
</svg>