<?xml version="1.0" encoding="UTF-8"?>
<!DOCTYPE svg PUBLIC "-//W3C//DTD SVG 1.1//EN" "http://www.w3.org/Graphics/SVG/1.1/DTD/svg11.dtd">
<svg version="1.1" id="HaritaCizim" xmlns="http://www.w3.org/2000/svg" xmlns:xlink="http://www.w3.org/1999/xlink" x="0px" y="0px" viewBox="0 0 530 552" preserveAspectRatio="none">
    <defs id="__def">
        <radialGradient id="f">
            <stop offset="0" stop-color="white" stop-opacity="1"/>
            <stop id="STOP1" offset=".4" stop-opacity="1"/>
            <stop offset="1" stop-color="white" stop-opacity=".2"/>
        </radialGradient>
        <filter id="__flt1" x="0" y="0" width="200%" height="200%" filterUnits="objectBoundingBox">
            <feGaussianBlur in="SourceAlpha" stdDeviation="3" result="blur1"/>
            <feSpecularLighting result="specOut" in="blur1" specularConstant="1.5" specularExponent="20" lighting-color="#bbbbbb">
                <feDistantLight azimuth="45" elevation="30"/>
            </feSpecularLighting>
            <feComposite in="specOut" in2="SourceAlpha" operator="in" result="specOut"/>
            <feComposite in="SourceGraphic" in2="specOut" operator="arithmetic" k1="0" k2="1" k3="1" k4="0"/>
        </filter>
        <filter id="__flt2" x="0" y="0" width="200%" height="200%" filterUnits="objectBoundingBox">
            <feGaussianBlur in="SourceAlpha" stdDeviation="3" result="blur1"/>
            <feSpecularLighting result="specOut" in="blur1" specularExponent="20" lighting-color="#bbbbbb">
                <fePointLight x="-2000" y="100" z="2000"/>
            </feSpecularLighting>
            <feComposite in="specOut" in2="SourceAlpha" operator="in" result="specOut"/>
            <feComposite in="SourceGraphic" in2="specOut" operator="arithmetic" k1="0" k2="1" k3="1" k4="0"/>
        </filter>
        <filter id="__flt3" x0="-50%" y0="-50%" width="200%" height="200%" filterUnits="objectBoundingBox">
            <feGaussianBlur in="SourceAlpha" stdDeviation="3" result="blur"/>
            <feOffset in="blur" dx="0" dy="0" result="offsetBlur"/>
            <feSpecularLighting in="blur" surfaceScale="4" specularConstant=".5" specularExponent="20" lighting-color="flavor" result="specOut">
                <fePointLight x="-5000" y="-10000" z="5000"/>
            </feSpecularLighting>
            <feComposite in="specOut" in2="SourceAlpha" operator="in" result="specOut"/>
            <feComposite in="SourceGraphic" in2="specOut" operator="arithmetic" k1="0" k2="1" k3="1" k4="0" result="litPaint"/>
            <feMerge>
                <feMergeNode in="offsetBlur"/>
                <feMergeNode in="litPaint"/>
            </feMerge>
        </filter>
        <filter id="__flt4" x0="-50%" y0="-50%" width="200%" height="200%">
            <feGaussianBlur in="SourceAlpha" stdDeviation="2" result="blur"/>
            <feOffset dy="-1" dx="-1"/>
            <feComposite in2="SourceAlpha" operator="arithmetic" k2="-1" k3="1" result="hlDiff"/>
            <feFlood flood-color="white" flood-opacity=".7"/>
            <feComposite in2="hlDiff" operator="in"/>
            <feComposite in2="SourceGraphic" operator="over" result="withGlow"/>
            <feOffset in="blur" dy="3" dx="3"/>
            <feComposite in2="SourceAlpha" operator="arithmetic" k2="-1" k3="1" result="shadowDiff"/>
            <feFlood flood-color="black" flood-opacity="1"/>
            <feComposite in2="shadowDiff" operator="in"/>
            <feComposite in2="withGlow" operator="over"/>
        </filter>
        <filter id="__golge1" x="0" y="0" width="200%" height="200%" filterUnits="userSpaceOnUse">
            <feOffset result="offOut" in="SourceAlpha" dx="8" dy="8"/>
            <feGaussianBlur result="blurOut" in="offOut" stdDeviation="3"/>
            <feBlend in="SourceGraphic" in2="blurOut" mode="normal"/>
        </filter>
    </defs>
    <g id="__Komsular" display="none">
        <linearGradient id="SVGID_1_" gradientUnits="userSpaceOnUse" x1="324.4414" y1="67.0859" x2="367.3482" y2="121.1081">
            <stop offset="0" style="stop-color:#FFFFFF"/>
            <stop offset="1" style="stop-color:#6182C1"/>
        </linearGradient>
        <path fill-rule="evenodd" clip-rule="evenodd" fill="url(#SVGID_1_)" stroke="#000000" stroke-width="0.25" stroke-miterlimit="10" d="   M311.57,72.18c-1.4,0.83-4.05,4-2.77,5.36c0.87,0.82,1.97,1.45,2.64,2.49c0.81,1.27,0.25,3.08,1.42,4.07   c0.94,0.35,1.89,0.71,2.83,1.06c-0.36,0.23-0.95,0.72-0.42,1.16c0.2,0.2,0.4,0.41,0.59,0.61c0.81,0.28,1.91,0.6,2.3,1.42   c0.47,0.18,0.94,0.35,1.42,0.53c0.36-0.07,0.56-0.2,0.89,0c0.66-0.32,1.84-0.69,2.48-0.18c0.43-0.03,1.31-0.14,1.56,0.19   c0.19,0.29,0.38,0.58,0.56,0.87c1.06,0.94,2.13,1.89,3.19,2.83c0.47,0.3,0.94,0.59,1.42,0.89c0.41,0.41,0.83,0.83,1.24,1.24   c0.8,0.93,0.6,2.05,1,2.94c0.43,0.91,0.14,1.16,0.57,2.07c0.91,0.78,2.85,1.98,3.33,3.16c0.72,1.77,0.89,3.54,1.8,5.21   c0.19,0.35,1.18,1.48,1.26,1.47c0.63-0.07,1.27-0.15,1.9-0.22c0.59,0.57,1.45,2.02,2.36,2.02c0.7-0.02,2.11,0.21,2.48-0.35   c0.22,0.31,0.54,0.7,0.35,0.89c-0.31,0.33-0.42,0.77-0.82,0.54c-0.77-0.4-0.98-0.43-1.36,0.39c-0.12,0.54-0.25,1.08-0.37,1.62   c0.67,1.75,1.34,3.49,2.01,5.24c0.24,0.35,0.47,0.71,0.71,1.06c0.04-0.07,0.09-0.14,0.13-0.2c0.44-0.65,0.95-2.96,0.75-3.69   c0.29-0.79,0.47-1.5,0.71-2.3c-0.48-0.57-1.73-1.4-1.42-2.13c0.66-1.02,1.5-1.98,1.77-3.19c0.24-1.05-0.16-2.06,0.4-3.04   c0.25-0.45,0.72-3.02,0.49-3.33c0.32-0.45,0.65-0.9,0.97-1.35c0.39-2.03,0.77-4.06,1.16-6.09c0.05-0.51,0.18-1.47,0.53-1.77   c-0.24-0.77-0.47-1.54-0.71-2.3c0.11-0.42,0.21-0.83,0.32-1.25c-0.28,0.06-0.57,0.12-0.85,0.18c-0.88-0.25-1.34-0.32-2.04-0.98   c-0.21-0.26-0.41-0.52-0.62-0.77c0-0.84,1.78-3.47,2.66-3.2c0.35-0.35,0.56-0.69,1.06-0.71c0.37-0.65,0.49-0.92,1.25-0.99   c0.52-0.05,3.38-0.06,3.34-0.43c-0.05-0.47-0.11-0.94-0.16-1.42c-0.73-0.17-1.46-0.34-2.19-0.51c-0.26-0.7-0.78-2.14-0.66-2.14   c0.12-0.06,0.25-0.13,0.37-0.19c0.41,0.35,0.83,0.71,1.24,1.06c0.92-0.03,1.66-0.26,2.22-0.94c0.09,0.02,0.17,0.04,0.26,0.06   c0.01-0.06,0.01-0.11,0.02-0.17c0.07-0.57-0.07-1.63,0.33-1.95c-0.23-0.13-0.46-0.25-0.7-0.38c-0.06-0.17-0.13-0.34-0.19-0.51   c-0.42,0.12-0.9,0.12-1.06,0.53c-0.19-0.11-0.39-0.21-0.58-0.32c-0.13,0.01-0.25,0.03-0.38,0.04c-0.39-0.62-0.77-1.24-1.16-1.85   c-0.29-0.18-1.13-0.45-1.43-0.63c-0.68-0.04-2.76-0.07-2.85-0.79c-0.05-0.3-0.1-0.59-0.15-0.89c0.08-0.42,0.17-0.85,0.25-1.27   c-0.24-1.41-1.77-2.28-3.09-2.45c-1.11-0.86-1.28-1.97-2.3-2.83c-0.73-0.61-1.96,0.21-2.3-0.89c-0.71,0.18-1.42,0.35-2.13,0.53   c-1.17,0.54-2.34,1.08-3.51,1.62c-0.72,0.4-1.44,0.81-2.16,1.21c-0.35,0-0.71,0-1.06,0c-0.64,0.31-1.28,0.61-1.92,0.92   c-0.36,0.11-0.73,0.21-1.09,0.32c-0.47-0.12-0.94-0.24-1.42-0.35c-1.18,0.16-2.66,0.99-3.37,1.95c-0.92,0.3-1.8,0.48-2.48,1.24   c-0.6-0.14-1.92-0.98-1.95,0.18c-0.41-0.06-0.83-0.12-1.24-0.18c-0.47-0.24-0.94-0.47-1.42-0.71c-1.25-0.23-2.18,0.43-3.37,0.53   C313.49,72.11,312.53,72.14,311.57,72.18z"/>
        <linearGradient id="SVGID_2_" gradientUnits="userSpaceOnUse" x1="464.5483" y1="230.4617" x2="435.761" y2="219.7206">
            <stop offset="0" style="stop-color:#FFFFFF"/>
            <stop offset="1" style="stop-color:#6182C1"/>
        </linearGradient>
        <path fill-rule="evenodd" clip-rule="evenodd" fill="url(#SVGID_2_)" stroke="#000000" stroke-width="0.25" stroke-miterlimit="10" d="   M438.97,249.72c0.64-1.05,1.44-1.22,2.83-1.59c0.31-0.64,0.48-0.56,1.06-0.53c0.33,0.14,1.23,0.65,1.25-0.02   c-0.09-0.85-0.42-2.02-0.71-2.82c0.86,1,3.01-1.6,3.19-3.19c0.07-0.6-1.01-0.11-0.64-0.71c0.51-1.42,1.02-2.83,1.53-4.25   c0.17-0.61-0.03-1.38-0.35-1.95c-0.15-0.43-0.37-0.33-0.43-0.9c-0.03-1.06-0.07-2.11-0.1-3.17c-0.14-0.72-0.28-1.44-0.42-2.15   c-0.14-1.41-0.28-2.81-0.59-5.18c-0.85-1.01,0.59-3.07,1.01-4.36c-0.08-1.17-1.39-0.15-1.24-2.83l0.34,0.2   c0.57,0.92,2.76,1.61,3.2,1.04c0.71,0.47,1.09,1.56,2.3,1.42c1.19,1,2.22,3.44,1.77,7.08c-0.49,3.87,1.5,0.8,1.24,1.24   c0.32-1.42,1.08-2.7,1.62-4.04c0.34-0.77,0.69-1.55,1.03-2.33c0.98-2.85,2.52-5.61,3.91-8.35c0.59-1.35,1.17-2.71,1.76-4.06   c0.27-0.39,0.67-1.12,0.53-1.59c0.35-0.83,0.71-1.65,1.06-2.48c0.08-0.83,0.15-1.65,0.23-2.48l0.96-0.37   c-0.04-0.05,1.24,1.44,2.54,1.74c0.41-0.16,0.82-0.32,1.23-0.49c0.27,0.57,0.94,1.74,0.43,2.2c0.43,1.63-0.88,2.1-2.03,2.76   c0.26,0.3,0.1,0.52,0,0.89c-0.84,0.09-1.06,1.88-1.06,2.66c-0.47,0.12-0.94,0.24-1.42,0.35c-0.01,0.36-0.12,0.33-0.35,0.53   c0.51,0.81,0.29,1.39,0.18,2.3c0.12,0.14,0.24,0.28,0.35,0.43c-0.18,0.51-0.35,1.01-0.53,1.52c-0.47,0.65-0.94,1.3-1.42,1.95   c0.31,0.29,0.37,0.48,0.18,0.89c-0.18,0.47-0.35,0.94-0.53,1.42c-0.24,0.3-0.47,0.59-0.71,0.89c-0.59,1.17-0.77,2.84-1.77,3.54   c0.44,0.44,0.39,1.48,0.27,2.02c-0.3,1.28-1.19,3.31-2.62,3.94c-0.26,0.13-0.47-0.26-1.01,0.07c-0.08,0.43-0.43,0.56-0.71,0.89   c0.2,0.9-0.77,2.03-0.92,2.5c-0.31,0.45-0.62,0.89-0.93,1.34c-0.44,0.85-0.89,1.69-1.33,2.54c-0.29,0.24-0.59,0.47-0.89,0.71   c0.02,0.13,0.03,0.26,0.05,0.39c-0.08,0.16-0.15,0.33-0.23,0.49c0.14-0.05-0.71,1.36-0.89,1.24c-0.73,0.71-1.45,1.41-2.18,2.11   c-0.22,0.65-0.44,1.31-0.65,1.96c-0.59,1-1.18,2.01-1.77,3.01c0.2,0.94-1.06,2.7-1.68,3.28c-0.13-0.06-0.27-0.13-0.4-0.19   c-0.25,0.03-0.51,0.07-0.76,0.1c-0.71,0.09-1.02-0.05-1.76-0.18c-0.27-1.18-1.93-1.12-2.76-0.58L438.97,249.72z"/>
        <path fill-rule="evenodd" clip-rule="evenodd" fill="none" stroke="#000000" stroke-width="0.25" stroke-miterlimit="10" d="   M395.59,91.7c-5.71-3.46,2.78-12.1-2.54-15.54c-1.32-0.86-2.16-0.64-2.82-2.16c-0.53-1.23-0.94-2.53-1.51-3.84   c-0.58-1.33-0.81-3.14-0.18-4.51c0.33-0.71,1.19-1.04,1.48-1.66c0.38-0.79,0.02-1.54,0.21-2.36c0.1-0.44,0.17-0.81,0.23-1.26   c1.21-0.46,2.36-0.6,3.63-0.99c0.42-1.53,0.67-2.02,0.03-3.47c-0.64-1.45-1.12-2.66-1.44-4.25c-0.55-2.74-1.05-4.92-2.21-7.39   c-1.02-2.2-2.05-4.47-4.29-5.53c-2.33-1.09-5.32-1.37-7.67-2.58c-0.65-1.73-5.59-3.21-7.27-4.02c-3.1-1.48-5.58-1.34-9.04-1.15   c-5.91,0.32-11.06,2.04-16.01,5.01c-2.05,1.23-3.73,1.59-6.13,2.17c-2.11,0.51-4.78,0.43-6.83,1.1c-0.52-1.39,0.1-3.11-0.18-4.59   c-0.28-1.48-1.06-2.25-2.03-3.36c-1.91-2.17-3.4-4.7-4.98-7.16c-1.5-2.35-1.6-5.26-2.44-7.89c-1.08-3.38-3.84-2.73-6.79-2.44   c-1.48,0.15-2.93,0.09-4.43,0.18c-0.95,0.06-3.11,0.89-3.92,0.23c-2.72-2.17,3.62-3.49,4.89-4.29c2.36-1.49,4.59-3.15,7.16-4.43   c1.44-0.72,3.04-1.38,4.24-2.41c1.05-0.9,1.41-2.06,2.21-3.13"/>
        <path fill-rule="evenodd" clip-rule="evenodd" fill="none" stroke="#000000" stroke-width="0.25" stroke-miterlimit="10" d="   M440.24,395.39c0.82,1.22,1.46,2.47,1.66,3.87c0.3,2.08,0.07,2.87,2.26,3.67c1.32,0.48,2.49,0.22,3.14,1.65   c0.79,1.74-0.5,2.69,1.98,3.18c0.65,0.13,1.63-0.26,2.22,0.03c0.76,0.37,0.73,1.28,1.13,1.77c1.18,1.45,2.17,1.57,3.84,2.07   c1.27,0.38,2.55,1.08,3.87,1.29c1.5,0.24,3-0.19,4.43-0.19c0.7,0,1.43,0.27,2.21,0.19c0.75-0.08,1.27-0.65,2.03-0.56   c1.28,0.14,2.7,1.6,3.69,2.36c2.62,2.04,5.67,2.37,8.48,3.96c2.71,1.53,4.43,3.99,7.21,5.15c2.88,1.2,5.8,3.34,8.67,4.81   c2.2,1.13,3.39,3.29,5.71,4.01c1.96,0.61,3.92,0.86,5.9,1.3c3.86,0.86,7.77,3.74,11.04,5.75c0.09,0.61,0.4,0.82,0.77,1.26"/>
        <path fill-rule="evenodd" clip-rule="evenodd" fill="none" stroke="#000000" stroke-width="0.25" stroke-miterlimit="10" d="   M347.25,440.78c1.97,1.52,6.45,0.21,8.86,0.33c3.27,0.16,7.15,0.29,10.16,1.47c2.82,1.11,5.69,3.38,4.74,6.46   c-0.89,2.88-2.21,5.39-2.54,8.53c-0.32,3.11-0.52,5.54,0.69,8.34c1.27,2.94,2.65,4.72,4.52,7.34c1.78,2.49,1.39,6.02,3.31,8.64   c0.88,1.2,1.74,1.75,1.99,3.35c0.24,1.55-0.27,2.85-0.59,4.2c-0.77,3.18-0.89,5.58,0.73,8.34c1.74,2.96,2.16,5.95,3.55,9.06   c1.21,2.7,2.12,5.44,4.79,7.19c2.1,1.38,6.59,1.63,9.05,1.84c5.98,0.52,6.93-12.02,8.71-15.83c3.1-6.62,10.61-7.02,16.71-4.23   c6.28,2.87,8.58,11.47,15.73,13.47c3.29,0.92,6.5,1.27,9.95,1.61c3.52,0.34,5.66,2.2,8.86,3.17c1.48,0.45,2.65,1.31,4.06,2.01   c1.48,0.74,2.92,0.8,4.61,1.06c1.89,0.29,3.16-0.31,4.98-0.51c1.71-0.19,3.01,0.18,4.57-0.6c2.62-1.31,5.84-2.8,8.7-2.2   c1.79,0.37,3.52,1.1,5.36,1.5c1.5,0.32,3.36,0.91,4.75,1.66c0.74,0.4,1.29,0.98,2.08,1.3"/>
        <path fill-rule="evenodd" clip-rule="evenodd" fill="none" stroke="#000000" stroke-width="0.25" stroke-miterlimit="10" d="   M161.09,462.92c-0.51,0.36-3.05-0.03-4.1,0.14c-1.41,0.23-2.53,1.03-3.87,1.48c-2.79,0.93-5.97,1.32-8.82,2.43   c-1.43,0.56-2.56,1.33-4.05,1.71c-1.58,0.4-3.45,0.49-4.99,1.06c-2.93,1.09-6.49,4.15-8.72,6.27c-4.41,4.21-9.98,4.59-15.41,6.88   c-2.61,1.1-4.5,3.74-7.23,4.58c-1.79,0.54-2.69,0.63-4.24,1.88c-1.29,1.04-2.47,1.84-3.89,2.68c-1.13,0.67-3.15,1.28-4.06,2.21   c-0.76,0.78-1.48,2.7-1.88,3.74c-0.65,1.71,0.02,2.07,0.91,3.51c0.78,1.26,0.98,2.4,1.38,3.87c0.85,3.11,3.56,5.06,6.02,7.05   c2.46,1.99,4.73,4.36,7.18,6.47c2.16,1.86,4.36,3.38,6.18,5.66c1.64,2.06,3.76,4.66,5.85,6.14c5.46,3.85,11.2,7.98,15.88,12.78   c2.05,2.1,3.39,4.33,5.91,5.81c2.39,1.41,5.52,1.13,7.01,3.51"/>
        <path fill-rule="evenodd" clip-rule="evenodd" fill="none" stroke="#000000" stroke-width="0.25" stroke-miterlimit="10" d="   M162.38,220.85c-1.23-2.41-1.35-5.66-1.89-8.27c-0.53-2.59-0.56-6.08,0.27-8.7c0.92-2.91,0.49-6.17,0.32-9.43   c-0.09-1.78-0.4-2.97-1.02-4.64c-0.52-1.4-0.56-2.88-1.24-4.19c-1.3-2.55-3.88-4.46-5.86-6.45c-2.44-2.45-4.35-4.28-6.13-7.34   c-1.49-2.55-3.55-4.01-6.27-4.99c-3.5-1.26-7.31-0.27-10.84-1.51c-1.94-0.68-3.57-1.39-5.59-1.49c-1.7-0.08-3.47,0.19-5.07-0.23   c-3.04-0.8-6.19-2.84-8.53-5.11c-2.28-2.21-3.85-4.75-5.59-7.35c-1.52-2.28-3.67-4.54-4.94-7.04c-1.29-2.54,0.38-5.39-1.13-7.9   c-0.8-1.33-1.55-1.98-1.81-3.55c-0.21-1.32-0.26-2.76-0.55-4.06"/>
        <text transform="matrix(0.6554 -0.7553 0.7553 0.6554 206.3862 104.012)" font-family="'MyriadPro-Regular'" font-size="17.7122">ARDAHAN</text>
        <text transform="matrix(0.2396 -0.9709 0.9709 0.2396 34.895 347.1921)" font-family="'MyriadPro-Regular'" font-size="17.7122">ERZURUM</text>
        <text transform="matrix(1 0 0 1 241.7803 503.9993)" font-family="'MyriadPro-Regular'" font-size="17.7122">AĞRI</text>
        <text transform="matrix(1 0 0 1 388.3984 442.7444)" font-family="'MyriadPro-Regular'" font-size="17.7122">IĞDIR</text>
        <text transform="matrix(0.065 -0.9979 0.9979 0.065 500.8491 271.9109)" font-family="'MyriadPro-Regular'" font-size="17.7122">ERMENİSTAN</text>
    </g>
    <g id="__Harita" display="none">
        <rect id="__cer" x="0" y="0" fill="#000000" opacity="0" width="530" height="552"/>
        <g id="__Arpaçay">
            <path d="    M332.49,99.75c0.91,0.78,2.85,1.98,3.33,3.16c0.72,1.77,0.89,3.54,1.8,5.21c0.19,0.35,1.18,1.48,1.26,1.47    c0.63-0.07,1.27-0.15,1.9-0.22c0.59,0.57,1.45,2.02,2.36,2.02c0.7-0.02,2.11,0.21,2.48-0.35c0.22,0.31,0.54,0.7,0.35,0.89    c-0.31,0.33-0.42,0.77-0.82,0.54c-0.77-0.4-0.98-0.43-1.36,0.39c-0.12,0.54-0.25,1.08-0.37,1.62c0.67,1.75,1.34,3.49,2.01,5.24    c0.24,0.35,0.47,0.71,0.71,1.06c0.04-0.07,0.09-0.14,0.13-0.2c0.44-0.65,0.95-2.96,0.75-3.69c0.29-0.79,0.47-1.5,0.71-2.3    c-0.48-0.57-1.73-1.4-1.42-2.13c0.66-1.02,1.5-1.98,1.77-3.19c0.24-1.05-0.16-2.06,0.4-3.04c0.25-0.45,0.72-3.02,0.49-3.33    c0.32-0.45,0.65-0.9,0.97-1.35c0.39-2.03,0.77-4.06,1.16-6.09c0.05-0.51,0.18-1.47,0.53-1.77c-0.24-0.77-0.47-1.54-0.71-2.3    c0.11-0.42,0.21-0.83,0.32-1.25c-0.28,0.06-0.57,0.12-0.85,0.18c-0.88-0.25-1.34-0.32-2.04-0.98c-0.21-0.26-0.41-0.52-0.62-0.77    c0-0.84,1.78-3.47,2.66-3.2c0.35-0.35,0.56-0.69,1.06-0.71c0.37-0.65,0.49-0.92,1.25-0.99c0.52-0.05,3.38-0.06,3.34-0.43    c-0.05-0.47-0.11-0.94-0.16-1.42c-0.73-0.17-1.46-0.34-2.19-0.51c-0.26-0.7-0.78-2.14-0.66-2.14c0.12-0.06,0.25-0.13,0.37-0.19    c0.41,0.35,0.83,0.71,1.24,1.06c0.92-0.03,1.66-0.26,2.22-0.94c0.09,0.02,0.17,0.04,0.26,0.06c0.01-0.06,0.01-0.11,0.02-0.17    c0.07-0.57-0.07-1.63,0.33-1.95c-0.23-0.13-0.46-0.25-0.7-0.38c-0.06-0.17-0.13-0.34-0.19-0.51c-0.42,0.12-0.9,0.12-1.06,0.53    c-0.19-0.11-0.39-0.21-0.58-0.32c-0.13,0.01-0.25,0.03-0.38,0.04c-0.39-0.62-0.77-1.24-1.16-1.85c-0.29-0.18-1.13-0.45-1.43-0.63    l-0.07-0.17c0.63-1.38,1.85-2.15,3.09-3.11c0.89-0.65,1.77-1.3,2.66-1.95c4.03-0.94,7.62-0.54,11.31,1.23    c0.77,0.42,1.55,0.83,2.32,1.25c1,0.59,2.01,1.18,3.01,1.77c0.38,0.19,0.76,0.38,1.13,0.56c1.39,0.93,2.79,1.87,4.18,2.8    c0.46,0.28,0.92,0.56,1.38,0.84c1.57,1.37,3.02,2.9,4.06,4.7c1.43,2.23,2.86,4.45,4.29,6.68c0.94,0.77,1.89,1.53,2.83,2.3    c1.27,0.59,1.64,0.05,2.83,0.89c0.96,0.67,2.18,2.37,2.66,3.37c1.36,0.18,2.72,0.35,4.03,0.36c0.7,0.12,1.22,0.77,2.01,0.83    c1.6,0.13,2.7-0.74,4.32-0.13c2.1,0.79,3.78,2.73,5.52,4.08c1.09,0.62,2.19,1.25,3.28,1.87c1.24,0.57,2.36,0.5,3.68,0.61    c0.52,0.04,1.17,0.28,1.6-0.01c0.69,0.69,1.23,1.39,2.05,1.97c1.03,0.47,2.06,0.93,3.09,1.39c0.77,0.64,1.54,1.29,2.31,1.93    c0.72,0.59,1.89,1.66,2.47,2.14c-0.55,1.25-0.63,2.19-0.89,3.54c0.29,2.13,0.59,4.25,0.89,6.38c-0.31,2.01-0.62,4.03-0.93,6.04    c-0.58,1.82-1.15,3.65-1.73,5.47c-0.28,0.71-0.89,1.34-0.89,2.13c-0.83,1.24-1.65,2.48-2.48,3.72c-0.84,1.02-1.95,2.54-2.13,3.9    c-0.35,2.75,1.33,4.5,3.37,6.02c0.06,1.06,0.12,2.13,0.18,3.19c-0.35,0.59-0.71,1.18-1.06,1.77c-0.96,1.11-1.92,2.22-2.88,3.34    c-0.81,1.13-1.62,2.26-2.44,3.39c-0.18,0.41-0.46,0.8-0.35,1.24c-1,1.83-2.01,3.66-3.01,5.49c-0.72,0.68-1.45,1.37-2.18,2.05    c-0.83,0.64-1.66,1.28-2.5,1.92c-0.56,0.53-0.59,0.72-1.53,0.99c-0.97,0.16-2.04,0.45-2.83,1.06c-1.83,2.07-3.66,4.13-5.49,6.2    c-0.29,1.3-0.59,2.6-0.89,3.9c-1.12,1.12-1.55,2.63-2.13,4.07c-0.97,1.75-1.94,3.51-2.92,5.26c-0.85,1.84-1.53,4.13-3.07,5.47    c-0.06,0.83-2.34,3.9-2.98,4.77c-0.34,0.46-0.75,1.17-1.31,1.33c-1.01,1.69-1.1,2.68-2.74,3.8c-0.42,0.15-1.66,0.94-2.08,1.09    c-2.27,0.93-4.41,1.48-6.87,1.48c-0.62-0.24-1.25-0.48-1.87-0.73c-1.26-0.66-2.53-1.32-3.79-1.98c-1.69-1.05-2.9-2.69-4.96-3.14    c-1.61-0.35-3.21,0-4.78,0.18c-0.89,0-1.77,0-2.66,0c-0.89,0.12-1.77,0.24-2.66,0.35c-0.83-0.06-1.65-0.12-2.48-0.18    c-0.57,0.03-3.29,0.56-3.54,0.89c-2.81-0.84-4.26-1.48-5.49-4.25c-0.06,0-0.12,0-0.18,0c-0.12-0.83-0.24-1.65-0.35-2.48    c-0.61-0.76-0.75-1.4-1.13-2.27c-1.08-0.94-1.13-2.62-1.7-3.93c-0.25-1.29-0.51-2.59-0.76-3.88c-0.24-1.3-0.91-2.86-0.66-4.09    c0.01-0.03,0.02-0.22,0-0.35c-0.05-0.18-0.07-0.14,0-0.53c0.63-4.57,1.23-5.28,2.18-6.88c0.28-0.54,0.55-1.08,0.83-1.62    c0.47-1.83,1.12-3.66,1.59-5.49c0-0.53,0-1.42,0-1.95c-1.75-2.52-3.52-2.46-5.85-4.07c-0.83-0.65-1.65-1.3-2.48-1.95    c-0.48-0.8-1.77-2.65-1.77-3.54c-1.11-1.29-1.7-2.07-2.3-3.72c-0.46-1.26,0.13-2.67,0.28-3.91c0.04-1.06,0.07-2.12,0.11-3.18    c0.01-0.43-0.14-0.93,0.14-1.24c-0.42-0.98-1-2.09-1.77-2.83c-0.44-0.39-0.89-0.78-1.33-1.17c-0.31-0.36-1.25-1.04-1.15-1.49    c-1.6-0.88-3.27-1.43-4.78-2.48c-0.65-0.35-1.3-0.71-1.95-1.06c-1.56-0.27-3.11-0.54-4.67-0.81c-1.59-0.66-2.98-1.61-4.36-2.56    c-0.63-0.27-1.26-0.55-1.89-0.82c-0.67-0.32-1.34-0.63-2.01-0.95c-0.89-0.11-1.79-0.23-2.68-0.34c-2.3-0.58-4.6-1.16-6.9-1.74    c-0.46-0.07-1.22-0.15-1.58,0.13c-1.06-0.15-2.11-0.31-3.17-0.46c-1.02-0.19-1.9-0.54-2.85-0.97c-0.82-0.16-1.65-0.32-2.47-0.48    c-0.89-0.07-1.77-0.14-2.66-0.22c-0.42-0.23-0.84-0.47-1.26-0.7c-0.71-0.83-1.42-1.65-2.13-2.48c-0.29-0.78-0.59-1.56-0.88-2.34    c-0.35-0.26-0.32-1.28-0.4-1.73c-0.29-1.65-0.68-3.29-0.31-4.97c1.31-0.59,2.61-1.18,3.92-1.76c2.75-1.06,5.35-1.64,8.3-1.78    c4.12-0.19,7.59,1.1,11.51,1.77c0.89,0.29,1.77,0.59,2.66,0.89c0.53,0,1.06,0,1.59,0c5.85,0,11.09-3.93,15.55-7.3    c1.34-1.01,2.84-1.83,3.93-3.16c0.71-1.18,1.42-2.36,2.13-3.54L332.49,99.75z"/>
            <circle cx="357.4" cy="152.4" r="1.586"/>
        </g>
        <g id="__Susuz">
            <path d="    M345.8,200.3c-0.12-0.83-0.24-1.65-0.35-2.48c-0.61-0.76-0.75-1.4-1.13-2.27c-1.08-0.94-1.13-2.62-1.7-3.93    c-0.25-1.29-0.51-2.59-0.76-3.88c-0.24-1.3-0.91-2.86-0.66-4.09c0.01-0.03,0.02-0.22,0-0.35c-0.05-0.18-0.07-0.14,0-0.53    c0.63-4.57,1.23-5.28,2.18-6.88c0.28-0.54,0.55-1.08,0.83-1.62c0.47-1.83,1.12-3.66,1.59-5.49c0-0.53,0-1.42,0-1.95    c-1.75-2.52-3.52-2.46-5.85-4.07c-0.83-0.65-1.65-1.3-2.48-1.95c-0.48-0.8-1.77-2.65-1.77-3.54c-1.11-1.29-1.7-2.07-2.3-3.72    c-0.46-1.26,0.13-2.67,0.28-3.91c0.04-1.06,0.07-2.12,0.11-3.18c0.01-0.43-0.14-0.93,0.14-1.24c-0.42-0.98-1-2.09-1.77-2.83    c-0.44-0.39-0.89-0.78-1.33-1.17c-0.31-0.36-1.25-1.04-1.15-1.49c-1.6-0.88-3.27-1.43-4.78-2.48c-0.65-0.35-1.3-0.71-1.95-1.06    c-1.56-0.27-3.11-0.54-4.67-0.81c-1.59-0.66-2.98-1.61-4.36-2.56c-0.63-0.27-1.26-0.55-1.89-0.82c-0.67-0.32-1.34-0.63-2.01-0.95    c-0.89-0.11-1.79-0.23-2.68-0.34c-2.3-0.58-4.6-1.16-6.9-1.74c-0.46-0.07-1.22-0.15-1.58,0.13c-1.06-0.15-2.11-0.31-3.17-0.46    c-1.02-0.19-1.9-0.54-2.85-0.97c-0.82-0.16-1.65-0.32-2.47-0.48c-0.89-0.07-1.77-0.14-2.66-0.22c-0.42-0.23-0.84-0.47-1.26-0.7    c-0.71-0.83-1.42-1.65-2.13-2.48c-0.29-0.78-0.59-1.56-0.88-2.34c-0.35-0.26-0.32-1.28-0.4-1.73c-0.29-1.65-0.68-3.29-0.31-4.97    v0.18c-1.3,0.65-3.13,1.12-4.43,1.77c-0.24,0.78-2.01,2.26-2.65,2.84c-0.8,0.74-3.25,2.82-3.46,3.74    c-0.62,0.46-1.24,0.92-1.86,1.38c-0.35,0.18-0.71,0.35-1.06,0.53c-0.18,0.3-0.35,0.59-0.53,0.89c-0.56,1.1-0.9,1.62-1.42,2.48    c-0.19,0.4-0.2,0.73-0.71,1.06c0,0.6-0.02,0.33-0.35,0.89c-0.08,0.66-1.13,1.85-1.42,2.66c-0.47,0.83-0.94,1.65-1.42,2.48    c-0.47,1.12-0.94,2.24-1.42,3.37c-0.25,0.59-0.82,2.42-1.06,3.01c-0.49,0.26-1.45-0.15-3.2-0.32c-1.65-0.25-3.3-0.49-4.95-0.74    c-1.18-0.37-2.48-0.69-3.9-0.89c-0.29,0.29-0.35,2.06-0.53,2.83c-0.47,3.3-0.93,6.61-1.4,9.91c-0.48,3.07-0.96,7.56-1.43,10.63    c0.39,0.2,0.51,0.01,0.85,0.15c0.29,0.14,0.59,0.29,0.89,0.43c1.98,1.86,3.62,3.65,5.17,5.79c0.8,1.11,1.79,1.97,2.66,3.01    c0.67,1.21,2.88,4.18,3.81,5.29c0.44,0.66,0.89,1.14,1.33,1.79c0.83,1,1.27,1.45,1.77,2.13c0.92,1.23,2.01,2.57,2.3,4.07    c0.41,1.18,0.83,2.36,1.24,3.54c0.35,0.35,0.53,0.71,0.89,1.06c0.35,0.14,0.88,0.27,1.23,0.41c0.44,0.31,0.87,0.62,1.31,0.92    c3.34,1.64,6.69,3.28,10.03,4.92c1.09,0.56,1.96,1.31,3.01,1.9c1.28,0.72,2.46,1.14,3.79,1.79c0.57,0.64,1.14,1.29,1.7,1.93    c1.24,0.77,2.48,1.54,3.72,2.3c1.76,0.39,4.44-0.75,6.02-1.42c0.49-1.13,2.82-2.4,3.87-3.23c1.22-0.97,2.25-2.24,3.92-2.44    c2.18-0.18,4.37-0.35,6.55-0.53c0.77,0.12,1.54,0.24,2.3,0.35c1.35,0.04,2.69,0.07,4.04,0.11c1.9,1.08,3.8,2.17,5.7,3.25    c0.32-0.17,0.87,0.11,1.25,0.19c1.11,0.24,1.79,0.29,2.65,0.34c0.53,0.2,0.99,0.27,1.42,0.33c1.12,0.1,2.24,0.2,3.37,0.29    c1.59,0.03,3.16-0.96,4.6-1.68c0.68-0.22,1.47-0.46,1.95-0.71c0.34-0.08,0.83-0.24,1.06-0.53c0.35,0.06,0.35-0.24,0.71-0.18    c0.68-0.13,1.23-0.29,1.95-0.18c1.11,0.18,1.23,0.09,2.13,0.71c0,0.12,0.89,0.41,0.89,0.53L345.8,200.3z"/>
            <circle cx="307.59" cy="176.2" r="1.586"/>
        </g>
        <g id="__Kars">
            <path d="    M323.48,335.62c0.13-3.8-0.59-10.41-0.53-12.75c0.02-0.89,0.69-3.69,1.42-4.07c-0.04-0.72-0.12-2.09,0.35-2.66    c0.12-0.83,0.24-1.65,0.35-2.48c-0.05-0.71-0.11-1.42-0.16-2.13c-0.01-1-0.01-2-0.02-3.01c0.77-1.48,1.54-2.95,2.3-4.43    c0.15-2.4,0-4.7,0-7.09c0.69-0.89,1.38-1.79,2.07-2.68c0.11-0.67,1.5-2.32,2-2.81c0.87-1.21,1.74-2.41,2.61-3.62    c1.04-1.08,2.07-2.15,3.11-3.23c1.18-0.95,2.35-1.9,3.53-2.86c0.7-0.43,1.39-0.85,2.09-1.28c3.43-1.35,7.24-2.29,10.98-2.13    c1.3-0.11,2.59-0.23,3.89-0.34c1.54,0.11,3.07,0.23,4.61,0.34c1.3-0.1,2.59-0.2,3.89-0.3c1.89,0.04,3.78,0.08,5.67,0.13    c1.41-0.1,2.82-0.19,4.23-0.29c3.78,0,7.56,0,11.35-0.01c1.12-0.06,2.24-0.11,3.35-0.17c1.48,0.09,2.96,0.19,4.44,0.28    c0.71-0.06,1.42-0.12,2.13-0.18c2.89,0.22,5.79,0.44,8.68,0.66c2.11,0.17,5.1,0.28,7.08,0.58c0-2.21,3.91-0.44,4.22-2.68    c0.09-0.25-0.88-4.06,0.74-3.66c0.69-0.64,2.3,0,2.3-0.21c-0.84-1.75,0.36-2.24,0.53-3.01c0.56-0.04,1.24-0.26,1.59,0.18    c0.9-1.1,1.34-1.34,2.13-1.06c0.84-0.3,1.68-0.61,2.51-0.91c0.97-0.65,1.31-1.44,2.09-2.27c0.19,0.08,0.56,0.17,0.75,0.25    c0.16,0.51,0.29,0.68,0.67,0.45c0.89-0.94,1.24-1.72,2.13-2.66c-0.05-0.18,0.23-0.71,0.18-0.89c0.26,0.08,0.62-0.26,0.89-0.18    c0.44,0.21,0.46,0.52,0.89,0.71c-1.03,0.72-0.51,1.57,0.71,1.24c0.11,0.15,1.13,0.02,1.24,0.18c0.04-0.07,0.49-0.46,0.53-0.53    c0.27-0.51,0.26-0.38,0.53-0.89c0.16-0.01,0.19-0.7,0.35-0.71c-0.03-0.05-0.06-0.1-0.09-0.14c-0.9-1.3-2.1-2.38-2.56-3.93    c-0.06-0.25,1.2-0.95,1.3-0.78c1.03,3.41,1.16-0.05,2.06,0.96c0.76-0.76-0.41,1.93,0.71,1.95c0.31-0.04,1.28-0.32,1.59-0.35    c0.11-0.44-0.11-2.39,0-2.83c-0.35-0.47-0.71-0.94-1.06-1.42c-0.54-1.45-2.05-5.07-0.89-6.2c0.64-1.05,1.44-1.22,2.83-1.59    c0.31-0.64,0.48-0.56,1.06-0.53c0.33,0.14,1.23,0.65,1.25-0.02c-0.09-0.85-0.42-2.02-0.71-2.82c0.86,1,3.01-1.6,3.19-3.19    c0.07-0.6-1.01-0.11-0.64-0.71c0.51-1.42,1.02-2.83,1.53-4.25c0.17-0.61-0.03-1.38-0.35-1.95c-0.15-0.43-0.37-0.33-0.43-0.9    c-0.03-1.06-0.07-2.11-0.1-3.17c-0.14-0.72-0.28-1.44-0.42-2.15c-0.14-1.41-0.28-2.81-0.59-5.18c-0.85-1.01,0.59-3.07,1.01-4.36    c-0.08-1.17-1.39-0.15-1.24-2.83c-0.37-0.49-0.6-1.16-0.92-1.75c-0.72-1.31-1.26-2.61-1.72-4.05c-0.16-0.49-0.48-0.96-0.37-1.47    c-0.35-0.59-0.71-1.18-1.06-1.77c-0.66-0.44-1.19-0.77-1.77-1.42c-0.57-0.33-0.36-1.41,0-1.95c0.17-0.16,0.8-0.6,0.61-0.82    c0.19-0.61-0.99-1.25-1.68-1.13c-0.83-0.16-0.56-0.81-0.18-1.24c1-0.14,0.79-0.53,0.89-1.06c-0.04-0.23-0.74-1.51-1.42-1.06    c-1.51-1.06-5.63-2.79-5.14-0.53c-0.59,0.64-0.78,0.7-1.95,0c-0.87-1.09-1.48-1.61-3.18-1.25c-0.06-1.28-2.44-1.63-3.55-2.29    c-1.16-0.68-3.38-1.67-4.25-1.77c-1.98,1.69-4.11,3.75-6.09,5.44c-0.42,0.36-2.07,1.75-2.59,1.64c-1,0.71-2.01,1.42-3.01,2.13    c-0.89,0.06-1.77,0.12-2.66,0.18c-0.49-0.27-0.98-0.55-1.47-0.82c-0.48-0.21-0.84-0.51-1.54-0.77c-0.71,0.12-1.42,0.24-2.13,0.35    c-0.71,0.3-1.42,0.59-2.13,0.89c-0.59,0.35-1.18,0.71-1.77,1.06c-1,0.41-2.01,0.83-3.01,1.24c-0.47,0.29-0.94,0.59-1.42,0.89    c-0.99,0.32-2.55,0.92-3.54,1.24l-1.14,0.61c-0.42,0.15-1.66,0.94-2.08,1.09c-2.27,0.93-4.41,1.48-6.87,1.48    c-0.62-0.24-1.25-0.48-1.87-0.73c-1.26-0.66-2.53-1.32-3.79-1.98c-1.69-1.05-2.9-2.69-4.96-3.14c-1.61-0.35-3.21,0-4.78,0.18    c-0.89,0-1.77,0-2.66,0c-0.89,0.12-1.77,0.24-2.66,0.35c-0.83-0.06-1.65-0.12-2.48-0.18c-0.57,0.03-3.29,0.56-3.54,0.89    c-2.81-0.84-4.26-1.48-5.49-4.25l-0.35-0.18c0-0.12-0.89-0.41-0.89-0.53c-0.89-0.62-1.01-0.53-2.13-0.71    c-0.71-0.12-1.27,0.05-1.95,0.18c-0.35-0.06-0.35,0.24-0.71,0.18c-0.24,0.3-0.72,0.45-1.06,0.53c-0.48,0.25-1.27,0.48-1.95,0.71    c-1.44,0.72-3.01,1.71-4.6,1.68c-1.12-0.1-2.24-0.2-3.37-0.29c-0.42-0.06-0.88-0.12-1.42-0.33c-0.86-0.05-1.54-0.1-2.65-0.34    c-0.38-0.08-0.92-0.37-1.25-0.19c-1.9-1.09-3.8-2.17-5.7-3.25c-1.35-0.04-2.69-0.07-4.04-0.11c-0.77-0.12-1.54-0.24-2.3-0.35    c-2.18,0.18-4.37,0.35-6.55,0.53c-1.68,0.19-2.7,1.47-3.92,2.44c-1.04,0.83-3.38,2.11-3.87,3.23c-1.58,0.67-4.27,1.8-6.02,1.42    c-1.24-0.77-2.48-1.54-3.72-2.3c-0.57-0.64-1.14-1.29-1.7-1.93c-1.33-0.65-2.5-1.07-3.79-1.79c-1.05-0.59-1.92-1.34-3.01-1.9    c-3.34-1.64-6.69-3.28-10.03-4.92c-0.44-0.31-0.87-0.62-1.31-0.92c-0.35-0.14-0.88-0.27-1.23-0.41c-0.35-0.35-0.53-0.71-0.89-1.06    c-0.41-1.18-0.83-2.36-1.24-3.54c-0.3-1.5-1.38-2.84-2.3-4.07c-0.5-0.68-0.94-1.12-1.77-2.13c-0.44-0.66-0.89-1.14-1.33-1.79    c-0.93-1.11-3.14-4.08-3.81-5.29c-0.87-1.04-1.86-1.9-2.66-3.01c-1.55-2.14-3.19-3.93-5.17-5.79c-0.29-0.14-0.59-0.29-0.89-0.43    c-0.34-0.15-0.46,0.04-0.85-0.15v-0.14c-2.62,0.49-5.24,0.98-7.86,1.47c-1.75,0.72-1.3,3.5-1.62,5.38    c-0.1,0.58-0.37,1.65-0.09,2.15c-0.06,0.77-0.12,1.54-0.18,2.3c-0.12,0.53-0.24,1.06-0.35,1.59c0.06,0.12,0.12,0.24,0.18,0.35    c0,0.77,0,1.54,0,2.3c-0.09,1.98-0.17,3.97-0.26,5.96c-0.16,1.67-0.31,3.35-0.47,5.02c-0.1,0.54-0.21,1.07-0.31,1.61    c-0.23,0.27-0.58,0.51-0.55,0.87c-1.89,0.89-3.78,1.77-5.67,2.66c-2.12,1.14-4.76,1.36-6.73,2.83c-0.08,1.06-0.32,2.72,0.18,3.72    c1.06,2.16,3.14,2.76,4.78,4.4c1.44,1.44,2.36,3.16,3.79,4.67c1.15,1.22,2.76,1.6,3.82,2.94c0.23,0.42,0.46,0.85,0.69,1.27    c-0.14,0.88-0.28,1.76-0.42,2.64c-0.18,0.56-0.53,1.34-0.8,1.62c-0.62,0.48-1.43,1.22-1.41,1.77c0.06,0.81-0.02,2.2,0.53,2.84    c0.33,4.6,0.77,3.52,1.16,5.27c0.99,2.89,2.16,5.58,2.11,8.71c-0.02,1.34-0.47,3.08-1.15,4.26c-0.83,1.12-1.65,1.85-2.48,3.37    c-0.25,0.51-1.08,1.39-0.53,2.3c0.02,0.74,0.33,1.56,0.35,2.3c0.35,1.12,0.71,2.24,1.06,3.37c0.23,1.09,2.11,2.83,2.82,3.74    c0.83,0.94,1.66,1.87,2.5,2.81c0.41,0.35,0.83,0.71,1.24,1.06c1.15,0.63,2.3,1.27,3.45,1.9c1.51,1.14,3.01,2.28,4.52,3.42    c0.33,0.23,1.03,0.62,1.42,0.53c0.76,0.54,1.53,1.08,2.29,1.63c0.92,0.87,1.34,2.11,2.1,3.19c1.8,2.56,5.77,6.23,7.29,8.11    c0.33,0.46,0.59,0.98,0.89,1.42c2.42,1.5,4.61,5.08,5.14,7.97c0.31,2.15,0.25,4.77,0,6.91c-0.11,0.95-0.49,3.11-0.71,4.07    c-0.79,2.07-1.98,5.15-3.23,7.72c-0.68,1.39-1.68,2.49-2.21,3.99c-0.77,2.2-1.04,4.73-0.86,7.06c0.07,0.86-0.06,1.9,0.28,2.67    c0,0,3.42,2.9,7.79,3.9c0.65,0.06,1.3,0.12,1.95,0.18c0.92,0.23,1.84,0.46,2.76,0.7c0.55,0.3,1.11,0.6,1.67,0.9    c1.89,0.65,3.78,1.3,5.67,1.95c1.28,0.44,1.96,1.9,3.23,2.39c3.08,1.18,6.78,1.63,10.05,2.04c1.36,0.35,2.72,0.71,4.07,1.06    c1.36-0.06,2.72-0.12,4.07-0.18c0.53-0.18,1.05-0.37,1.58-0.55c1.6-0.1,3.22,0.15,4.8,0.37c1.77-0.11,3.54-0.23,5.31-0.34    c2.17,0.1,4.09,1.01,6.2,1.42c0.89,0.17,1.77,0.35,2.66,0.52c0.4,0,0.8,0,1.2,0L323.48,335.62z"/>
            <circle cx="298.91" cy="235.43" r="1.586"/>
        </g>
        <g id="__Selim">
            <path d="    M214.2,369.81c-0.53-1.06-2.13-3.37-2.66-4.43c-0.35-0.3-0.71-0.59-1.06-0.89c-0.47-0.59-0.94-1.18-1.42-1.77c0-0.77,0-1.54,0-2.3    c-0.22-1.23-0.43-2.47-0.65-3.7c0.12-2.32,0.83-4.46,1.13-6.74c0.1-1.89,0.21-3.78,0.31-5.67c0.15-1.59,0.3-3.19,0.45-4.78    c0.24-1.3,0.47-2.61,0.71-3.91c-0.18-2.59-0.36-5.18-0.54-7.77c-0.22-2.59-2.18-4.64-2.47-7.27c-0.32-2.84,0.07-5.83,0.2-8.68    c0.05-0.59,0.1-1.18,0.15-1.77c-0.12-0.65-0.24-1.3-0.35-1.95c-1.21-2.41-2.23-5.14-3.62-7.23c-3.3-4.3-5.12-6.55-7.18-9.59    c-1.12-1.24-2.24-2.48-3.37-3.72c-0.65-0.59-1.3-1.18-1.95-1.77c-1.24-0.77-2.48-1.53-3.72-2.3c-0.31,0-3.08-1.03-3.19-1.24    c-1.42-0.29-2.84-0.58-4.26-0.87c-0.99-0.05-1.97-0.09-2.96-0.14c-2.76-0.4-5.63,0.18-8.19,1.19c-0.51,0.13-1.01,0.26-1.52,0.39    c-1.74,0.87-3.48,1.75-5.21,2.62c-0.57,0.23-1.13,0.45-1.7,0.68c-0.5,0.31-0.99,0.61-1.49,0.92c-1.81,0.65-3.41,1.51-4.78,2.83    c-1.61,1.56-4.06,1.31-5.67,1.24c0.02-2.07-0.15-5.02-0.13-7.08c0.22-1.06,0.44-2.13,0.66-3.19c0.09-1.53,0.19-3.06,0.28-4.59    c0.26-1.83,0.52-3.67,0.78-5.5c0.58-5.61,0.68-11.23,1.42-16.83c0.3-1.83,0.59-3.66,0.89-5.49c0.65-2.36,1.3-4.72,1.95-7.08    c0.25-0.88,0.5-1.76,0.75-2.65c0.34-1.13,0.68-2.25,1.02-3.38c0.63-1.07,1.26-2.14,1.89-3.21c1.47-2.46,1.31-5.36,2.71-7.77    c0.65-1.11,0.64-2.84,1.24-3.72c0.58,1.51,2.24,1.06,3.18,1.06c2.89-0.15,5.79-0.3,8.68-0.45c4.46-0.35,9.27-1.24,13.28-3.12    c1.87-0.88,3.72-2.22,5.31-3.51c1.81-1.13,3.63-2.25,5.44-3.38c2.15-1.63,4.31-3.26,6.46-4.89c1.29-0.78,2.58-1.57,3.86-2.35    c4.14-2.04,8.61-4.16,12.75-6.2c-0.08,1.06-0.32,2.72,0.18,3.72c1.06,2.16,3.14,2.76,4.78,4.4c1.44,1.44,2.36,3.16,3.79,4.67    c1.15,1.22,2.76,1.6,3.82,2.94c0.23,0.42,0.46,0.85,0.69,1.27c-0.14,0.88-0.28,1.76-0.42,2.64c-0.18,0.56-0.53,1.34-0.8,1.62    c-0.62,0.48-1.43,1.22-1.41,1.77c0.06,0.81-0.02,2.2,0.53,2.84c0.33,4.6,0.77,3.52,1.16,5.27c0.99,2.89,2.16,5.58,2.11,8.71    c-0.02,1.34-0.47,3.08-1.15,4.26c-0.83,1.12-1.65,1.85-2.48,3.37c-0.25,0.51-1.08,1.39-0.53,2.3c0.02,0.74,0.33,1.56,0.35,2.3    c0.35,1.12,0.71,2.24,1.06,3.37c0.23,1.09,2.11,2.83,2.82,3.74c0.83,0.94,1.66,1.87,2.5,2.81c0.41,0.35,0.83,0.71,1.24,1.06    c1.15,0.63,2.3,1.27,3.45,1.9c1.51,1.14,3.01,2.28,4.52,3.42c0.33,0.23,1.03,0.62,1.42,0.53c0.76,0.54,1.53,1.08,2.29,1.63    c0.92,0.87,1.34,2.11,2.1,3.19c1.8,2.56,5.77,6.23,7.29,8.11c0.33,0.46,0.59,0.98,0.89,1.42c2.42,1.5,4.61,5.08,5.14,7.97    c0.31,2.15,0.25,4.77,0,6.91c-0.11,0.95-0.49,3.11-0.71,4.07c-0.79,2.07-1.98,5.15-3.23,7.72c-0.68,1.39-1.68,2.49-2.21,3.99    c-0.77,2.2-1.04,4.73-0.86,7.06c0.07,0.86-0.06,1.9,0.28,2.67c0,0.06-0.7,0.47-0.71,0.53c-0.87,0.72-1.17,1.1-3.37,1.24    c-0.3,0-0.59,0-0.89,0c-0.19-0.01-0.52,0.2-0.71,0.18c-0.67,0.14-0.67,0.08-1.42,0.18c-1.05-0.1-2.18-0.24-3.19,0    c-0.66,0.16-1.69,0.44-2.3,0.53c-3.38,2.8-6.5,5.95-8.96,9.59c-0.85,1.47-1.7,2.93-2.56,4.4c-0.59,0.59-1.18,1.18-1.77,1.77    c-0.95,0.75-1.96,2.97-2.45,4.09c-0.84,2.24-1.68,4.48-2.51,6.71c-0.77,1.77-1.54,3.54-2.3,5.31c-0.35,0.89-0.71,1.77-1.06,2.66    c-1.16,2.05-2.6,3.79-4.13,5.56c-1.25,1.45-1.95,2.46-3.67,3.48c-0.32,0.27-2.11,1.4-2.66,1.59c-0.11,0.03-1.13,0.68-1.24,0.71    L214.2,369.81z"/>
            <circle cx="218.1" cy="281.74" r="1.586"/>
        </g>
        <g id="__Sarıkamış">
            <path d="    M148.66,292.05c-0.47,1.3-0.94,2.6-1.42,3.9c-0.53,1.12-1.06,2.24-1.59,3.37c-0.99,1.54-2.64,2.65-4.06,3.75    c-4.35,3.37-9.58,5.34-14.53,7.62c-4.16,2.25-8.33,4.51-12.49,6.76c-2.32,0.78-4.65,1.55-6.97,2.33    c-2.61,0.91-5.21,1.83-7.82,2.74c-3.66,0.77-7.32,1.54-10.98,2.3c-3,0.65-6,1.3-9,1.95c-4.08-0.06-8.17-0.12-12.25-0.18    c-1.61,0.79-3.21,1.59-4.82,2.38c-4.28,1.84-9.52,3.23-12.36,7.18c-0.35,1.12-0.71,2.24-1.06,3.37c-0.58,0.58-0.53,2.98-0.53,3.89    c0,3,1.54,5.85,3.43,8.09c0.38,0.45,2.35,2.23,2.59,2.36c0.37,0.47,0.65,0.77,1.24,1.24c1.92,2.4,3.39,2.85,5.14,3.19    c2.29,2.05,4.7,3.84,7.27,5.63c1.72,1.2,2.13,1.38,4.07,1.46c0.98,0.98,2.4,2.67,3.72,3.19c1.53,0.41,3.07,0.83,4.61,1.24    c1.4-0.18,2.5-0.67,3.9-0.35c0.43,0.11,1.16,0.6,1.59,0.71c0.82,0.57,2.75,1.92,3.72,1.95c1.53,1.63,2.63,3.75,3.36,5.84    c0.24,0.65,0.48,1.3,0.71,1.95c0.98,1.37,2.19,2.37,3.37,3.54c0.77,0.3,1.53,0.59,2.3,0.89c0.77-0.12,1.54-0.24,2.3-0.35    c0.59,0.06,1.18,0.12,1.77,0.18c5.72,0.82,9.88,3.53,13.99,7.26c0.3,0.41,0.6,0.82,0.9,1.23c1.57,2.06,2.29,3.99,3.53,6.21    c0.89,1.12,1.77,2.24,2.66,3.36c0.72,1.88,1.45,3.76,2.18,5.65c0.82,1.79,1.78,3.54,2.61,5.34c0.98,2.48,1.02,5.24,2.33,7.58    c1.16,2.07,2.81,3.67,4.58,5.18c1.48,1.26,2.79,2.63,4.46,3.66c2.13,1.31,5.11,2.54,6.88,4.26c0.91,0.71,1.82,1.41,2.73,2.11    c2.22,1.77,4.39,3.76,5.79,6.28c0.91,1.95,1.83,3.9,2.75,5.85c0.32,1.12,0.63,2.23,0.95,3.35c0.57,3.02,1.19,6.06,1.24,9.21    c0.03,0.84,0.06,2.47,0.18,2.83c1.48,0.09,3.44,0.18,4.96,0c1,0.04,1.73-0.12,2.69-0.35c4.72-0.64,9.5-1.5,14.14-2.66    c0.65-0.18,1.3-0.35,1.95-0.53c1.88-0.38,3.61-0.86,5.49-1.24c0.68-0.16,1.65-0.3,2.24-0.54c0.25-0.97,0.87-2.22,1.15-3.36    c0.37-1.53,0.75-3.07,1.12-4.6c0.15-0.94,0.3-1.89,0.45-2.83c1.4-3.5,2.1-7.23,2.6-10.98c0.31-1.83,0.62-3.67,0.94-5.5    c0.01-0.34,0.28-1.59,0.01-1.59c0.57-0.57,1.17-3.03,1.42-3.9c0.41-0.94,0.83-1.89,1.24-2.83c0.96-1.44,2.3-2.94,2.3-4.78    c1.06-0.96,2.26-1.54,3.45-2.3c0.37-0.08,0.56-0.19,0.97-0.36c0.4-0.15,0.62-0.24,1.06-0.35c0.83-0.47,1.65-0.94,2.48-1.42    c0.71-0.24,1.42-0.47,2.13-0.71c3.29-0.11,6.55,0.2,9.87,0.89c1.2,0.23,2.39,0.47,3.59,0.7c1.55,0.63,2.75,0.99,4.42,1.04    c0.56,0.02,2.51-0.09,2.79-0.54c2.11-1.23,1.72-8.71,1.29-13.08c-0.05-0.5-0.12-1.78,0.18-2.13c-0.75-2.57-0.72-5-0.89-7.62    c-0.34-0.5-0.37-1.09-0.71-1.59c-0.87-0.94-2.06-1.8-2.93-2.74c-1.39-1.31-3.06-2.11-4.51-3.31c-1.45-1.93-3.72-3.23-5.49-4.93    c-3.23-3.39-4.59-6.2-7.79-9.56c-0.53-1.06-2.13-3.37-2.66-4.43c-0.35-0.3-0.71-0.59-1.06-0.89c-0.47-0.59-0.94-1.18-1.42-1.77    c0-0.77,0-1.54,0-2.3c-0.22-1.23-0.43-2.47-0.65-3.7c0.12-2.32,0.83-4.46,1.13-6.74c0.1-1.89,0.21-3.78,0.31-5.67    c0.15-1.59,0.3-3.19,0.45-4.78c0.24-1.3,0.47-2.61,0.71-3.91c-0.18-2.59-0.36-5.18-0.54-7.77c-0.22-2.59-2.18-4.64-2.47-7.27    c-0.32-2.84,0.07-5.83,0.2-8.68c0.05-0.59,0.1-1.18,0.15-1.77c-0.12-0.65-0.24-1.3-0.35-1.95c-1.21-2.41-2.23-5.14-3.62-7.23    c-3.3-4.3-5.12-6.55-7.18-9.59c-1.12-1.24-2.24-2.48-3.37-3.72c-0.65-0.59-1.3-1.18-1.95-1.77c-1.24-0.77-2.48-1.53-3.72-2.3    c-0.31,0-3.08-1.03-3.19-1.24c-1.42-0.29-2.84-0.58-4.26-0.87c-0.99-0.05-1.97-0.09-2.96-0.14c-2.76-0.4-5.63,0.18-8.19,1.19    c-0.51,0.13-1.01,0.26-1.52,0.39c-1.74,0.87-3.48,1.75-5.21,2.62c-0.57,0.23-1.13,0.45-1.7,0.68c-0.5,0.31-0.99,0.61-1.49,0.92    c-1.81,0.65-3.41,1.51-4.78,2.83c-1.61,1.56-4.06,1.31-5.67,1.24C149,291.41,148.85,291.73,148.66,292.05z"/>
            <circle cx="167.92" cy="327.86" r="1.586"/>
        </g>
        <g id="__Kağızman">
            <path d="    M193.06,458.18c0.25-0.97,0.87-2.22,1.15-3.36c0.37-1.53,0.75-3.07,1.12-4.6c0.15-0.94,0.3-1.89,0.45-2.83    c1.4-3.5,2.1-7.23,2.6-10.98c0.31-1.83,0.62-3.67,0.94-5.5c0.01-0.34,0.28-1.59,0.01-1.59c0.57-0.57,1.17-3.03,1.42-3.9    c0.41-0.94,0.83-1.89,1.24-2.83c0.96-1.44,2.3-2.94,2.3-4.78c1.06-0.96,2.26-1.54,3.45-2.3c0.37-0.08,0.56-0.19,0.97-0.36    c0.4-0.15,0.62-0.24,1.06-0.35c0.83-0.47,1.65-0.94,2.48-1.42c0.71-0.24,1.42-0.47,2.13-0.71c3.29-0.11,6.55,0.2,9.87,0.89    c1.2,0.23,2.39,0.47,3.59,0.7c1.55,0.63,2.75,0.99,4.42,1.04c0.56,0.02,2.51-0.09,2.79-0.54c2.11-1.23,1.72-8.71,1.29-13.08    c-0.05-0.5-0.12-1.78,0.18-2.13c-0.75-2.57-0.72-5-0.89-7.62c-0.34-0.5-0.37-1.09-0.71-1.59c-0.87-0.94-2.06-1.8-2.93-2.74    c-1.39-1.31-3.06-2.11-4.51-3.31c-1.45-1.93-3.72-3.23-5.49-4.93c-3.23-3.39-4.59-6.2-7.79-9.56h0.18    c0.06-0.06,0.12-0.12,0.18-0.18l-0.18,0.35c0.11-0.03,1.13-0.68,1.24-0.71c0.55-0.19,2.34-1.32,2.66-1.59    c1.71-1.02,2.41-2.03,3.67-3.48c1.53-1.77,2.97-3.51,4.13-5.56c0.35-0.89,0.71-1.77,1.06-2.66c0.77-1.77,1.54-3.54,2.3-5.31    c0.84-2.24,1.68-4.48,2.51-6.71c0.49-1.12,1.5-3.34,2.45-4.09c0.59-0.59,1.18-1.18,1.77-1.77c0.85-1.47,1.71-2.93,2.56-4.4    c2.45-3.65,5.57-6.79,8.96-9.59c0.61-0.09,1.64-0.37,2.3-0.53c1.01-0.24,2.13-0.1,3.19,0c0.75-0.09,0.74-0.04,1.42-0.18    c0.19,0.02,0.52-0.18,0.71-0.18c0.3,0,0.59,0,0.89,0c2.19-0.14,2.49-0.52,3.37-1.24c0-0.06,0.71-0.47,0.71-0.53    c0,0,3.42,2.9,7.79,3.9c0.65,0.06,1.3,0.12,1.95,0.18c0.92,0.23,1.84,0.46,2.76,0.7c0.55,0.3,1.11,0.6,1.67,0.9    c1.89,0.65,3.78,1.3,5.67,1.95c1.28,0.44,1.96,1.9,3.23,2.39c3.08,1.18,6.78,1.63,10.05,2.04c1.36,0.35,2.72,0.71,4.07,1.06    c1.36-0.06,2.72-0.12,4.07-0.18c0.53-0.18,1.05-0.37,1.58-0.55c1.6-0.1,3.22,0.15,4.8,0.37c1.77-0.11,3.54-0.23,5.31-0.34    c2.17,0.1,4.09,1.01,6.2,1.42c0.89,0.17,1.77,0.35,2.66,0.52c0.4,0,0.8,0,1.2,0l0.39-0.18c1.57,0.03,3.88,0.1,5.45,0.13    c0.72,0.25,1.8,0.32,2.52,0.58c0.94,0.06,1.53,0.3,2.48,0.35c1.24,0.18,2.48,0.35,3.72,0.53c0.89,0,1.77,0,2.66,0    c1.18-0.24,2.36-0.47,3.54-0.71c1.19,0.08,2.04,0.6,3.19,0.89c0.57,0.07,1.32-0.15,1.89-0.07c0.79,0.79,1.4,1.58,2.18,2.37    c0.18,0.41,0.71,0.65,0.89,1.06c0.77,0.83,1.36,1.83,2.13,2.66c0.62,0.78,1.51,1.52,2.13,2.3c3.1,2.76,5.93,5.56,9.03,8.33    c0.41,0.25,0.82,0.49,1.23,0.74c1.42,0.7,2.85,1.58,4.26,2.27c1.42,0.81,2.66,1.49,4.07,2.3c1.63,1.45,4.22,2.4,6.22,3.29    c0.52,0.26,1.04,0.51,1.57,0.77c1.68,0.51,3.64,1.19,4.96,2.31c0.65,1.36,1.3,2.72,1.95,4.07c0.94,1.06,2.92,4.05,3.24,5.34    c0.43,1.73,0.48,3.98,0.19,5.73c0,0.71,0,1.42-0.01,2.13c0.93,1.3,1.61,2.16,2.77,3.27c0.4,0.38,0.88,1.16,0.89,1.24    c0,0.22,0.79,0.84,1.06,1.06c0.47,1.18,0.54,1.4,1.24,2.66c0.06,1.59,0.13,3.19,0.19,4.78c0.18,1,0.37,2,0.55,3.01    c0.05,0.58,0.22,4.08,0.32,4.08l-0.18,0.18c-1.69,0.81-3.39,1.44-5.31,1.47c-0.77-0.14-1.54-0.27-2.3-0.41    c-2.07-0.93-3.44-1.94-6.38-2.02c-0.41-0.04-0.83-0.07-1.24-0.11c-1.78-0.81-3.56-1.62-5.35-2.42c-1.89-0.55-3.73-0.59-5.63-0.94    c-0.83-0.06-1.65-0.12-2.48-0.18c-0.5-0.01-1.01-0.02-1.51-0.03c-1.08-0.62-4.28,0-5.06,0.71c-0.5,0.41-1.01,0.82-1.51,1.23    c-0.23,0.45-0.52,0.57-0.77,1.09c-0.23,0.29-0.67,0.86-0.71,1.24c-0.24,0.35-0.47,0.71-0.71,1.06c-2.68,5.65,1.81,9,1.04,14.34    c-0.12,0.83-0.25,2.91-0.76,3.48c-0.86,0.89-1.44,1.6-2.57,2.2c-0.08,0.1-0.44,0.45-0.53,0.53c-0.06,0.16-0.23,0.35-0.53,0.53    c-0.15,0.14-0.44,0.3-0.71,0.53c-1.24,1.27-1.69,1.83-2.83,2.83c-0.59,0.65-1.18,1.3-1.77,1.95c-0.58,0.94-1.16,1.89-1.74,2.83    c-0.75,1.34-1.5,2.69-2.25,4.04c-0.44,1.25-0.88,2.51-1.32,3.76c-8.03-0.5-15.65,1.71-23.57,2.59c-3.18,0.27-6.37,0.54-9.55,0.8    c-1.48-0.17-2.95-0.34-4.43-0.51c-1.71,0.07-3.42,0.13-5.13,0.2c-0.76,0.06-4.05,0.65-4.43,0.47c-1.24,0.51-2.33,1.06-3.72,1.06    c-0.89-0.12-1.77-0.24-2.66-0.37c-2.95-0.07-5.9-0.14-8.85-0.22c-3.15-0.15-6.25-0.47-9.39-0.13c-2.18,0.06-4.37,0.12-6.55,0.18    c-1.77-0.15-3.53-0.31-5.3-0.46c-1.54-0.1-3.08-0.2-4.62-0.29c-2.3-0.03-4.6-0.06-6.91-0.09c-5.57,0.26-10.95,1.33-16.45,2.09    c-0.9,0.29-1.8,0.59-2.7,0.88c-1.9,0.52-3.69,1.18-5.67,1.54c-2.47,0.38-4.95,0.75-7.42,1.12c-1.18,0.36-2.36,0.72-3.54,1.08    c-2.07,0.58-4.14,1.17-6.2,1.75c-2.84,1.15-5.69,2.31-8.53,3.46c-2.22,0.84-6.43,1.66-8.3,2.2L193.06,458.18z"/>
            <circle cx="303.34" cy="392.44" r="1.586"/>
        </g>
        <g id="__Digor">
            <path d="    M323.48,335.62c0.13-3.8-0.59-10.41-0.53-12.75c0.02-0.89,0.69-3.69,1.42-4.07c-0.04-0.72-0.12-2.09,0.35-2.66    c0.12-0.83,0.24-1.65,0.35-2.48c-0.05-0.71-0.11-1.42-0.16-2.13c-0.01-1-0.01-2-0.02-3.01c0.77-1.48,1.54-2.95,2.3-4.43    c0.15-2.4,0-4.7,0-7.09c0.69-0.89,1.38-1.79,2.07-2.68c0.11-0.67,1.5-2.32,2-2.81c0.87-1.21,1.74-2.41,2.61-3.62    c1.04-1.08,2.07-2.15,3.11-3.23c1.18-0.95,2.35-1.9,3.53-2.86c0.7-0.43,1.39-0.85,2.09-1.28c3.43-1.35,7.24-2.29,10.98-2.13    c1.3-0.11,2.59-0.23,3.89-0.34c1.54,0.11,3.07,0.23,4.61,0.34c1.3-0.1,2.59-0.2,3.89-0.3c1.89,0.04,3.78,0.08,5.67,0.13    c1.41-0.1,2.82-0.19,4.23-0.29c3.78,0,7.56,0,11.35-0.01c1.12-0.06,2.24-0.11,3.35-0.17c1.48,0.09,2.96,0.19,4.44,0.28    c0.71-0.06,1.42-0.12,2.13-0.18c2.89,0.22,5.79,0.44,8.68,0.66c2.11,0.17,5.1,0.28,7.08,0.58l0.18-0.18    c0.83,0.05,0.86,0.12,1.37,1.15c0.01,0.03,0.03,0.06,0.04,0.09c0.04-0.09-0.44,0.99-0.35,1.42c0.52,0.35,1.08,0.36,1.59,0.71    c0.29,0.47,0.59,0.94,0.89,1.42c0.15,0.02,0.56,0.68,0.71,0.71c0.38,0.27,0.5-0.09,0.89,0.18c0.9-0.69,1.62-0.43,2.54,0.15    c0.31,0.39,0.52,1.05,0.83,1.44c0.96,0.99,2.28,1.68,2.66,3.01c0.55,0,0.98-0.33,1.77-0.18c-0.11,1.19,1.05,1.97,1.95,2.48    c0.65,0.53,1.65,0.71,2.3,1.24c0.06,0.56,0.45,0.92,0.71,1.42c-0.19,1.71,1.29,2.5,1.95,3.01c0.06,1.47-0.09,2.61-1.42,2.3    c0,1.45-0.58,2.44,0.89,3.54c-0.28,0.54-0.47,1.4,0.71,2.13c-0.34,0.3-0.42,2.15-0.65,2.79c-0.23,0.62-0.7-0.03-1.3,0.39    c-0.23,0.61-1.22,1.2-1.59,1.77c-0.35,0.54-0.2,1.63,0,2.3c0.03,0.14-0.03,0.75,0,0.89c-0.3,0.65-0.69,0.89-1.77,0.89    c0.05,0.12,0.13,0.76,0.18,0.89c-0.71,1.09-0.94,2.18-1.59,3.01c1.07,0.95,0,3.58-0.53,4.61c-0.44,0.35-0.01,0.82,0,1.06    c-0.08,0.72,1.96,2.97,2.41,3.78c0.54,1.4,1.64,2.24,2.46,3.35c0.42,0.6,0.53,1.21,0.8,1.9c0.03,1.37,1.77,2.25,2.48,3.54    c0.77,1.4,0.89,1.31,0.89,2.48c0.47,0.48,1.17,0.84,1.75,1.27c1.13,0.99,0.28,2.92-0.33,4.05c-0.62,0.6,1.42,1.18,1.77,1.42    c0.15,1.15,0.28,3.03,1.54,2.62c0.2-0.05,0.39-0.1,0.59-0.14c0.16,0.53,1.07,0.69,1.59,0.89c0.68-0.46,1.87-0.54,2.66-0.18    c1.27,0.59,3.19,2.9,3.19,4.25c0.41,0.12,2.53-0.17,0.53,1.24c0.27,0.39,0.4,0.37,0.89,0.89c-0.16,0.46-0.04,0.54-0.64,0.5    c-0.17,0.26-0.43,0.48-0.6,0.74c-0.17,0.27,1.53,2.15,1.77,2.48c0.02,0.26-0.34,0.48-1.24,0.35c-0.14,0.62,0.85,0.62,0.71,1.24    c-0.23,0.23-1.14,0.85-1.23,1.23c0.1,0.47-0.21,0.78,1.58,1.78c0.2,0.37-0.72,0.38-0.79,0.45c-0.42,0.2-0.9,0.13-1.34,0.26    c-1.08-1.11-3.86-1.31-5.49-0.53c-0.44,1.27,1.03,0.56,1.06,1.06c0.08,1.18,1.02,1.4,1.59,2.48c-0.06,0.18-0.47,0.35-0.53,0.53    c0.53,0.03,0.97,0.23,1.27,0.65c0.63,0.89,1.28,1.64,2.1,2.36c0.75,0.49,1.55,0.92,2.3,1.42c0.83,0.93,1.65,1.85,2.48,2.78    c1.03,1.47,1.21,3.45,2.13,5.01c0.87,0.13,1.7,1.03,2.37,1.54c0.15,0.13,0.31,0.27,0.46,0.4c0.06,0.55,0.13,2.6,0,3.37    c-0.04,0.32-3.43,0.52-4.26,0.65c-0.74,0.04-1.49,0.08-2.23,0.12c-0.72,0.3-1.82,0.53-2.54,0.83c-1.7,0.53-2.47,1.01-4.07,1.77    c-0.72,0.53-1.31,0.98-1.72,1.52c-0.31,0.32-0.62,0.64-0.94,0.96c0.67,1.65-0.57,3.52-0.89,4.61c-0.1,0.36-4.09,0.82-5.49,0.35    c-0.36,0.36-0.78,0.08-1.24,0.18c-1.43,0.31-2.3,0.18-3.72,0.18c-0.83-0.24-1.65-0.47-2.48-0.71c-0.99-0.03-2.17,0.79-3.01,1.24    c-0.43-0.23-1.87,0-2.3,0.18c-0.52,0.28-0.21,1.28-0.89,2.3c-0.68,1.02-1.34,1.74-2.22,2.57c-0.05,0.05-0.87-0.28-1.15-0.27    c-0.26-0.22-0.8-0.31-1.06-0.53c-0.65-0.32-1.3-0.39-1.95-0.71c-0.77-0.07-1.55-0.14-2.32-0.22c-1.87-0.23-3.76-0.68-5.65-0.49    c-0.7,0.26-1.4,0.69-2.1,0.95c-1.6,0.74-3.18,1.71-4.63,2.41c-0.1,0-0.28-3.51-0.32-4.08c-0.18-1-0.37-2-0.55-3.01    c-0.06-1.59-0.13-3.18-0.19-4.78c-0.7-1.25-0.77-1.48-1.24-2.66c-0.27-0.22-1.07-0.84-1.06-1.06c0-0.08-0.49-0.86-0.89-1.24    c-1.16-1.11-1.84-1.97-2.77-3.27c0-0.71,0-1.42,0.01-2.13c0.29-1.75,0.25-4-0.19-5.73c-0.32-1.29-2.31-4.28-3.24-5.34    c-0.65-1.36-1.3-2.72-1.95-4.07c-1.33-1.12-3.28-1.81-4.96-2.31c-0.52-0.26-1.04-0.51-1.57-0.77c-2-0.89-4.59-1.84-6.22-3.29    c-1.42-0.81-2.66-1.49-4.07-2.3c-1.42-0.7-2.85-1.58-4.26-2.27c-0.41-0.25-0.82-0.49-1.23-0.74c-3.1-2.76-5.93-5.56-9.03-8.33    c-0.62-0.78-1.51-1.52-2.13-2.3c-0.77-0.83-1.36-1.83-2.13-2.66c-0.18-0.41-0.71-0.65-0.89-1.06c-0.79-0.79-1.4-1.58-2.18-2.37    c-0.57-0.07-1.32,0.15-1.89,0.07c-1.14-0.29-1.99-0.81-3.19-0.89c-1.18,0.24-2.36,0.47-3.54,0.71c-0.89,0-1.77,0-2.66,0    c-1.24-0.18-2.48-0.35-3.72-0.53c-0.94-0.06-1.54-0.3-2.48-0.35c-0.72-0.25-1.8-0.32-2.52-0.58c-1.57-0.03-3.88-0.1-5.45-0.13    H323.48z"/>
            <circle cx="380.65" cy="312.55" r="1.586"/>
        </g>
        <g id="__Akyaka">
            <path d="    M445.34,216.07c-0.37-0.49-0.6-1.16-0.92-1.75c-0.72-1.31-1.26-2.61-1.72-4.05c-0.16-0.49-0.48-0.96-0.37-1.47    c-0.35-0.59-0.71-1.18-1.06-1.77c-0.66-0.44-1.19-0.77-1.77-1.42c-0.57-0.33-0.36-1.41,0-1.95c0.17-0.16,0.8-0.6,0.61-0.82    c0.19-0.61-0.99-1.25-1.68-1.13c-0.83-0.16-0.56-0.81-0.18-1.24c1-0.14,0.79-0.53,0.89-1.06c-0.04-0.23-0.74-1.51-1.42-1.06    c-1.51-1.06-5.63-2.79-5.14-0.53c-0.59,0.64-0.78,0.7-1.95,0c-0.87-1.09-1.48-1.61-3.18-1.25c-0.06-1.28-2.44-1.63-3.55-2.29    c-1.16-0.68-3.38-1.67-4.25-1.77c-1.98,1.69-4.11,3.75-6.09,5.44c-0.42,0.36-2.07,1.75-2.59,1.64c-1,0.71-2.01,1.42-3.01,2.13    c-0.89,0.06-1.77,0.12-2.66,0.18c-0.49-0.27-0.98-0.55-1.47-0.82c-0.48-0.21-0.84-0.51-1.54-0.77c-0.71,0.12-1.42,0.24-2.13,0.35    c-0.71,0.3-1.42,0.59-2.13,0.89c-0.59,0.35-1.18,0.71-1.77,1.06c-1,0.41-2.01,0.83-3.01,1.24c-0.47,0.29-0.94,0.59-1.42,0.89    c-0.99,0.32-2.55,0.92-3.54,1.24l-0.59,0.32c0,0,1.17-1.82,2.19-3.51c0.56-0.16,0.97-0.87,1.31-1.33    c0.64-0.86,2.91-3.93,2.98-4.77c1.55-1.34,2.22-3.63,3.07-5.47c0.97-1.75,1.94-3.51,2.92-5.26c0.57-1.45,1.01-2.96,2.13-4.07    c0.29-1.3,0.59-2.6,0.89-3.9c1.83-2.07,3.66-4.13,5.49-6.2c0.8-0.61,1.86-0.91,2.83-1.06c0.94-0.27,0.97-0.46,1.53-0.99    c0.83-0.64,1.66-1.28,2.5-1.92c0.73-0.68,1.45-1.36,2.18-2.05c1-1.83,2.01-3.66,3.01-5.49c-0.1-0.44,0.17-0.83,0.35-1.24    c0.81-1.13,1.62-2.26,2.44-3.39c0.96-1.11,1.92-2.23,2.88-3.34c0.35-0.59,0.71-1.18,1.06-1.77c-0.06-1.06-0.12-2.13-0.18-3.19    c-2.03-1.52-3.72-3.27-3.37-6.02c0.17-1.35,1.29-2.88,2.13-3.9c0.83-1.24,1.65-2.48,2.48-3.72c0-0.78,0.61-1.42,0.89-2.13    c0.58-1.82,1.15-3.65,1.73-5.47c0.31-2.01,0.62-4.03,0.93-6.04c-0.3-2.13-0.59-4.25-0.89-6.38c0.25-1.35,0.34-2.29,0.89-3.54    c0.05-0.17,0.65,0.7,0.71,0.53c1.21,1.25,2.17,1.56,3.37,2.66c0.95,0.76,1.9,1.52,2.85,2.28c1.23,1.25,2.65,2.49,3.88,3.74    c1.74,1.47,3.28,2.6,4.25,4.07c0.92,1.22-0.35,1.4-0.35,1.95c-0.16,1.59-0.26,2.43-0.89,4.96c0.04,0.3,0.49,0.41,0.53,0.71    c0.87,0.52,1.2,0.69,1.59,1.26c0.18,0.23,0.36,0.52,0.54,0.69c0.4,0.16-0.98,2.13-1.42,5.78c0.06,0.72,0.12,1.36,0.18,2.01    c0.18,0.65,0.35,1.3,0.53,1.95c-0.29,0.28-0.37,1.2-0.35,1.59c0.18,0.48,0.88,1.12,1.06,1.59c0.16,1.14-0.03,1.74,0.13,2.88    c0.04,0.55-0.09,1.33-0.48,1.73c-0.05,0.53-0.3,1.42-0.35,1.95c-0.06,0.98,1.7,2.89,2.48,3.72c0.36,0.3,1.06,0.77,1.42,1.06    c2.39,2.6,2.78,3.9,4.25,6.02c1,2.77,2.01,5.55,3.01,8.32c0.32,1.37,0.89,2.11,0.71,3.54c0.24,0.65,0.47,1.3,0.71,1.95    c0.75,1.33,0.99,2.93,1.24,4.43c0.59,0.71,1,1.42,1.59,2.13c-0.21,0.31,0.56,2.08,0.71,2.66c0.88,2.4,1.74,4.65,2.08,7.27    c0.07,0.24-0.33,0.7-0.49,0.94c-0.65,0.81-1.29,1.62-1.94,2.42c0.32,0.41-0.09,1.12-0.37,1.53c-0.06,0.08-0.11,0.16-0.17,0.24    c0.66,0.03,1.3,0.7,1.59,1.24c-0.02,0.52-0.28,1.25-0.3,1.77c-0.08,0.83-0.15,1.65-0.23,2.48c-0.35,0.83-0.71,1.65-1.06,2.48    c0.14,0.47-0.26,1.21-0.53,1.59c-0.59,1.35-1.17,2.71-1.76,4.06c-1.39,2.74-2.94,5.5-3.91,8.35c-0.34,0.77-0.69,1.55-1.03,2.33    c-0.55,1.34-1.3,2.62-1.62,4.04c0.26-0.44-1.73,2.63-1.24-1.24c0.45-3.64-0.58-6.09-1.77-7.08c-1.21,0.15-1.59-0.94-2.3-1.42    c-0.44,0.57-2.63-0.13-3.2-1.04L445.34,216.07z"/>
            <circle cx="434.8" cy="188.84" r="1.586"/>
        </g>
    </g>
</svg>