<?xml version="1.0" encoding="UTF-8"?>
<!DOCTYPE svg PUBLIC "-//W3C//DTD SVG 1.1//EN" "http://www.w3.org/Graphics/SVG/1.1/DTD/svg11.dtd">
<svg version="1.1" id="HaritaCizim" xmlns="http://www.w3.org/2000/svg" xmlns:xlink="http://www.w3.org/1999/xlink" x="0px" y="0px" viewBox="0 0 500 445" preserveAspectRatio="none">
    <defs id="__def">
        <radialGradient id="f">
            <stop offset="0" stop-color="white" stop-opacity="1"/>
            <stop id="STOP1" offset=".4" stop-opacity="1"/>
            <stop offset="1" stop-color="white" stop-opacity=".2"/>
        </radialGradient>
        <filter id="__flt1" x="0" y="0" width="200%" height="200%" filterUnits="objectBoundingBox">
            <feGaussianBlur in="SourceAlpha" stdDeviation="3" result="blur1"/>
            <feSpecularLighting result="specOut" in="blur1" specularConstant="1.5" specularExponent="20" lighting-color="#bbbbbb">
                <feDistantLight azimuth="45" elevation="30"/>
            </feSpecularLighting>
            <feComposite in="specOut" in2="SourceAlpha" operator="in" result="specOut"/>
            <feComposite in="SourceGraphic" in2="specOut" operator="arithmetic" k1="0" k2="1" k3="1" k4="0"/>
        </filter>
        <filter id="__flt2" x="0" y="0" width="200%" height="200%" filterUnits="objectBoundingBox">
            <feGaussianBlur in="SourceAlpha" stdDeviation="3" result="blur1"/>
            <feSpecularLighting result="specOut" in="blur1" specularExponent="20" lighting-color="#bbbbbb">
                <fePointLight x="-2000" y="100" z="2000"/>
            </feSpecularLighting>
            <feComposite in="specOut" in2="SourceAlpha" operator="in" result="specOut"/>
            <feComposite in="SourceGraphic" in2="specOut" operator="arithmetic" k1="0" k2="1" k3="1" k4="0"/>
        </filter>
        <filter id="__flt3" x0="-50%" y0="-50%" width="200%" height="200%" filterUnits="objectBoundingBox">
            <feGaussianBlur in="SourceAlpha" stdDeviation="3" result="blur"/>
            <feOffset in="blur" dx="0" dy="0" result="offsetBlur"/>
            <feSpecularLighting in="blur" surfaceScale="4" specularConstant=".5" specularExponent="20" lighting-color="flavor" result="specOut">
                <fePointLight x="-5000" y="-10000" z="5000"/>
            </feSpecularLighting>
            <feComposite in="specOut" in2="SourceAlpha" operator="in" result="specOut"/>
            <feComposite in="SourceGraphic" in2="specOut" operator="arithmetic" k1="0" k2="1" k3="1" k4="0" result="litPaint"/>
            <feMerge>
                <feMergeNode in="offsetBlur"/>
                <feMergeNode in="litPaint"/>
            </feMerge>
        </filter>
        <filter id="__flt4" x0="-50%" y0="-50%" width="200%" height="200%">
            <feGaussianBlur in="SourceAlpha" stdDeviation="2" result="blur"/>
            <feOffset dy="-1" dx="-1"/>
            <feComposite in2="SourceAlpha" operator="arithmetic" k2="-1" k3="1" result="hlDiff"/>
            <feFlood flood-color="white" flood-opacity=".7"/>
            <feComposite in2="hlDiff" operator="in"/>
            <feComposite in2="SourceGraphic" operator="over" result="withGlow"/>
            <feOffset in="blur" dy="3" dx="3"/>
            <feComposite in2="SourceAlpha" operator="arithmetic" k2="-1" k3="1" result="shadowDiff"/>
            <feFlood flood-color="black" flood-opacity="1"/>
            <feComposite in2="shadowDiff" operator="in"/>
            <feComposite in2="withGlow" operator="over"/>
        </filter>
        <filter id="__golge1" x="0" y="0" width="200%" height="200%" filterUnits="userSpaceOnUse">
            <feOffset result="offOut" in="SourceAlpha" dx="8" dy="8"/>
            <feGaussianBlur result="blurOut" in="offOut" stdDeviation="3"/>
            <feBlend in="SourceGraphic" in2="blurOut" mode="normal"/>
        </filter>
    </defs>
    <g id="__Komsular" display="none">
        <radialGradient id="SVGID_1_" cx="248.2681" cy="57.9912" r="325.4894" gradientTransform="matrix(1 0 0 0.3 0 40.5938)" gradientUnits="userSpaceOnUse">
            <stop offset="0" style="stop-color:#6790CB"/>
            <stop offset="1" style="stop-color:#FFFFFF"/>
        </radialGradient>
        <path fill-rule="evenodd" clip-rule="evenodd" fill="url(#SVGID_1_)" d="M0.31,115.98c2.19-1.06,4.24-1.35,6.57-1.94   c2.26-0.57,4.76-0.25,7.03-0.93c2.74-0.82,1.73-3.44,3.97-4.31c2.17-0.84,5.07-0.2,7.34-0.77c2.48-0.62,4.41-0.72,7.03-0.45   c2.13,0.21,4.95,0.13,6.85-0.79c0.51-1.78,2.78-1.53,4.16-1.51c2.45,0.03,1.49-1.35,2.77-2.87c1.14-0.3,0.94,0.63,1.68,0.89   c0.74,0.26,1.25-0.02,1.93-0.34c0.31-0.15,0.27-0.57,0.79-0.74c0.33-0.1,0.88-0.01,1.22,0c0.85,0.01,1.62,0.1,2.44,0.15l0.18,0.23   c0.62-0.12,0.5-0.4,1.05-0.63c0.3-0.13,0.89,0.03,1.3,0.04c0.19,0.24,0.62-0.09,0.88-0.59c0.34-0.7,1.07-0.99,1.68-1.42   c-0.04-0.18-0.32-0.31-0.36-0.49c-0.03-0.08,0.18-0.21,0.15-0.29c0.42,0.19,1.13,0.42,1.76-0.29c0.81,0.54,1.37,0.49,1.47,0.15   c0.22,0.33,0.65,0.03,1.03,0.15c0.06,0.07,0.82,0.08,0.88,0.15c0.78,0.05,0.98,0.24,1.76,0.29c0.77-0.01,1.29,0.45,2.05,0.44   c0.53-0.1,0.94-0.91,1.32-1.32c0.38,0.22,0.77-0.15,1.17-0.29c0.4,0.09,1.04-0.07,1.42,0.43c0.27,0.36,0.57-0.09,1.09-0.06   c1.25,0.07,2.6-0.26,3.66,0.51c0.32,0.17,0.25,0.01,0.59-0.15c0.15-0.02,0.34-0.01,0.44,0c-0.46-0.65-0.21-1.33,0.44-1.47   c0.69-0.02,1.45-0.64,2.2-1.17c2.36,0.39,5.42-0.21,7.98-1.54c0.41,0.02,0.79-0.18,1.06-0.29c0.83-0.32,1.83-0.86,2.55-1.26   c1.06,0.05,3.13-1.27,4.25-1.61c2.98-0.92,5.32-1.79,7.63-3.96c-0.05-0.15,0.3-0.07,0.15-0.44c0.05-0.12-0.05-0.32,0-0.44   c-0.41-0.14-0.49-0.54-0.67-0.91c-0.01-0.21-0.24-0.61,0.09-0.71c0.31,0.07,0.89,0.61,0.66-0.16c0.33-0.62,1.93-0.44,2.56-0.42   c0.33-0.55,1.16-0.51,1.76-0.59c0.49-0.44,0.98-0.88,1.47-1.32c1.12,0.19,2.26-0.77,2.64-1.03c0.31-0.45,0.55-0.58,0.59-1.03   c0.09-0.37-0.09-0.8,0-1.17c0.1,0.02,0.49-0.16,0.65-0.13c1.19-0.59,1.82-0.65,2.73-1.05c0.26,0.16,1.03-0.18,1.32-0.29   c1.41-0.57,2.45-0.5,3.96-0.73c0.33-0.55,1.39-0.6,1.91-0.74c1.43-0.47,2.85-0.93,4.28-1.4c0.65-0.18,1.29-0.36,1.94-0.55   c0.83-0.35,1.56-0.79,2.44-0.99c0.99-0.22,2.27-0.76,3.26-0.5c0.44,0.11,0.94-0.2,1.33,0.03c0.81,0.35,1.43-0.37,2.1-0.87   c1.19-0.19,2.39-0.38,3.58-0.56c0.16-0.46,0.84-0.79,1.18-1.17c0.23-0.36,0.46-0.72,0.7-1.08c0.5-0.55,0.85-1.33,1.64-1.42   c0.33,0.25,0.63,0.06,1.03,0c0.34-0.24,0.68-0.48,1.03-0.72c0.96-0.82,1.9-1.34,3.23-1.48c0.54-0.55,1.1-1.12,1.91-1.13   c1.22-0.21,2.44-0.42,3.67-0.63c0.64-0.33,1.27-0.67,1.91-1c1.91-1.01,3.28-1.36,4.39-1.52c1.7-0.23,2.58-1.99,3.97-3.19   c0.87-0.02,1.29-0.61,2.34-0.75c0.2-0.31,0.14-0.23,0.59-0.44c0.14-0.27,0.79-0.5,1.1-0.76c0.91-0.24,1.81-0.47,2.72-0.71   c0.95-1.28,2.4-2.01,3.96-2.35c0.29,0,0.59,0,0.88,0c0.73-0.1,1.47-0.2,2.2-0.29c1.71,0.38,3.37,0.86,5.13,1.03   c0.64-0.19,1.27-0.37,1.91-0.56c0.33-0.06,0.29,0.03,0.58,0.12l0.44,0.59c0.18-0.38,2.39-0.8,1.91,0.15   c0.34,0.15,0.99-0.82,1.17,0.44c0.36-0.27,1.13-0.29,1.61-0.29c0.8,0.8,1.56,1.24,2.64,1.61c0.68-0.05,1.37-0.1,2.05-0.15   c0.46-0.15,0.96,0.06,1.32-0.29c0.36-0.06,0.67-0.38,1.03-0.44c0.44,0,0.88,0,1.32,0c0.86,0.52,1.67,0.27,2.64,0.15   c-0.13,0.54,0.88,0.94,1.32,1.32c0.71,0.34,0.42,0.18,1.47,0.44c1.8,0.11,2.97,0.09,4.7,0.26c1.12,0.06,2.68,0.12,3.81,0.18   c1.56,0.27,3.49,1.1,4.4,0.88h-0.15c1.22,0,2.05,0.69,3.23,1.03c0.34-0.03,0.67-0.05,1.01-0.08c1.3,0.04,2.66,0.11,3.39,1.25   c0.74-0.03,1.37,0.46,2.05,0.73c0.33-0.37,3,0.33,3.59,0.5c0.5,0.15,0.67,0.1,0.81,0.08c0.39,0.12,0.63-0.12,1.03,0   c0.58,0.02,1.47,0.12,2.05,0.15c0.63,0.17,1.04,0.31,1.76,0.29c0.39,0.05,0.78,0.1,1.17,0.15c0.49,0,0.98,0,1.47,0   c0.93,0.29,1.74,0.44,2.79,0.44c0.63-0.01,1.83-0.03,2.49,0c0.31,0.03,0.93-0.04,1.17,0c0.44-0.01,1.81,0.72,2.35,0.73   c0.33,0.13,0.74,0.11,1.03,0.15c1.43-0.04,2.01,0.15,2.93,0.15c0.41,0.11,0.65-0.04,1.03,0c1.17,0.05,1.03,0.1,2.2,0.15   c0.27,0.01,0.96,0.16,1.17,0.15c1.47-0.55,2.26,0.16,2.93,0.29c1.17,0.1,2.35,0.2,3.52,0.29c0.36,0.03,0.71,0.02,0.88,0   c0.31-0.04,0.58-0.05,0.88-0.15c0.49,0.03,1.16-0.09,1.32-0.15c0.85-0.15,1.61-0.44,1.61-0.44c0.12-0.35,0.7-0.64,1.76-0.44   c0.41,0.08,1.01,0.56-0.15,0.29c-0.25-0.06-0.81-0.27-1.03,0.29c0.46,0.86,1.54-0.71,0.88,0.73c0.4,0.39,0.95,0.6,1.22,0.68   c0.98,0.24,2.02,0.46,3.03,0.29c0.96-0.16,2.09-0.76,3.08-0.54c0.55,0.23,1.42-0.05,2.05,0c0.29,0.38,5.58,0.58,8.5,0.37   c2.43,0.07,5.28,0.22,7.34,0.07c0.57,0.47,1.38,0.64,2.2,0.73c0.78-0.15,1.86-0.29,2.64-0.44h0.15c1.32-0.1,1.91-0.2,3.23-0.29   c0.93-0.05,1.86-0.1,2.79-0.15c0.96,0.04,1.89-0.1,2.79-0.44c0.55,0.15,2.97-0.59,3.37-0.88c1.73-0.1,2.93,0,2.93,0l-0.15,0.1   l0.15-0.1c0.14,0.01,0.74-0.16,0.88-0.15c1.15,0.07,2.04-0.32,3.24-0.3c0.92,0.15,2.3-0.14,3.22,0.01   c2.27,0.04,4.06,0.16,6.31,0.05c0.78-0.01,1.56-0.02,2.34-0.02c0.56,0.12,1.34,0.57,1.77,0.27c0.02,0.1,0.56,0.19,0.59,0.29   c0.64-0.14,0.25-0.17,1.03-0.15c0.96-0.03,0.75,0.06,1.61,0.15c0.37,0.02,0.71,0.15,0.9,0.1c0.86-0.11,1.73-0.21,2.59-0.32   c0.79,0.12,1.58,0.24,2.37,0.37c0.98,0.55,2.51,1.38,3.67,1.32l0.15,0.15c0.51,0.28,1.34,0.78,1.91,0.44   c0.59,0.15,1.17,0.29,1.76,0.44c1.05,0.4,2.33,0.85,3.37,0.59c0.58,0.18,1.41,0.88,1.91,0.44c-0.05,0.79-0.33,1.18,0.45,1.38   c0.58,0.06,1.17,0.62,1.75,0.68c0.83,0.17,2.45,0.72,3.23,0.29c0.52,0.24,1.08,0.62,1.91,0.59c0.81,0.28,1.43,0.32,2.25,0.21   c0.96,0.05,2.51,0.18,3.47,0.23l0.68-0.19c1.37,0.86,2.5,1.52,4.07,1.83c1.54,0.3,3.63-0.29,5.09,0.25   c1.55,0.57,1.59,1.73,3.46,1.99c1.6,0.22,3.54,0.03,5.09-0.2c1.79-0.27,2.01-0.77,3.51-1.58c1.84-1.01,2-0.26,3.77,0.42   c1.61,0.61,2.45,0.06,3.92-0.47c1.5-0.54,3.77,0.01,5.1-0.6c0.98-0.45,1.46-1.72,2.65-2.4c1.27-0.72,2.31-0.59,3.68-0.86   c2.44-0.48,4.81-1.03,7.28-1.28c1-0.1,2.66,0.11,3.67-0.2c0.9-0.28,1.71-1.33,2.53-1.78c1.12-0.61,1.71-1.32,3.06-0.27   c1.76,1.36,0.07,1.4,0.19,3.09c1.84-0.12,3.75,1.41,5.47,2.02c2.08,0.73,4.23,0.81,6.33,1.47c2.31,0.72,3.86,1.31,6.52,0.78   c2.52-0.5,3.72-0.64,5.53,1.44c3.11,0.78,6.5,0.24,9.75,0.24c1.65,0,3.27,0.5,4.9,0c1.77-0.54,1.95-1.3,3.91-0.87   c3.35,0.73,5.51,0.27,8.71-0.75c1.5-0.48,3.04-1.06,4.53-1.39c1.68-0.37,3.04,0.1,4.69,0.11c3.13,0.03,5.66-2.36,8.92-2.2   l-0.2,0.51V0H0v115.83L0.31,115.98z"/>
        <path fill-rule="evenodd" clip-rule="evenodd" fill="none" stroke="#000000" stroke-miterlimit="10" d="M123.47,327.32   c-0.08,2.2-0.83,4.77-2.42,6.43c-1.4,1.47-4.79,1.81-4.61,4.12c0.17,2.24,2.27,4.01,0.65,6.46c-1.25,1.88-3.4,2.91-5.35,3.94   c-4.13,2.17-8.62,4.45-13.17,6.15c-2.32,0.87-4.8,1.47-7.19,2.1c-1.1,0.29-2.38,0.3-3.51,0.47c-1.2,0.18-2.22,0.68-3.37,0.91   c-2.48,0.51-4.79-0.26-7.18-0.61c-2.32-0.34-4.08-2.61-6.31-1.53c-2.28,1.09-4.64,0.82-7.15,0.2c-2.96-0.74-3.42,1.84-2.55,4.07   c1.12,2.86,1.05,5.55-1.58,7.47c-1.89,1.38-4.45,2.91-5.21,5.35c-2.05,0.93-3.78,2.31-5.33,3.96c-1.38,1.48-2.25,3.64-3.82,4.93   c-1.89,1.55-3.66,2.52-5.84,3.63c-0.92,0.46-1.74,0.95-2.71,1.27c-1.1,0.36-1.97,1.02-3.05,1.34c-1.44,0.43-3.04,0.49-4.43,0.94   c-1.46,0.47-2.96,1.2-4.43,1.69c-2.42,0.81-5.48,1.85-7.6,3.36c0.23,0.12,0.47,0.25,0.72,0.31"/>
        <path fill-rule="evenodd" clip-rule="evenodd" fill="none" stroke="#000000" stroke-miterlimit="10" d="M321.21,391.66   c2.57,3.04,5.74,6.12,9.47,7.83c2.18,1,4.96,0.35,7.07,1.46c1.9,1,2.62,3.59,2.07,5.69c-0.28,1.06-1.32,1.9-1.84,2.71   c-0.67,1.06-0.58,1.96-1.03,3.1c-0.36,0.92-1.12,1.68-1.57,2.56c-0.54,1.07-0.65,2.08-0.58,3.39c0.21,4.03,3.73,8.73,6.42,11.61   c2.09,2.24,4.8,3.76,6.43,6.38c2.06,3.31-1.55,5.8-1.69,8.75"/>
        <path fill-rule="evenodd" clip-rule="evenodd" fill="none" stroke="#000000" stroke-miterlimit="10" d="M418.7,252.29   c2.31,2.12,3.88,1.06,6.3-0.27c2.57-1.41,5.23-0.46,6.1,2.38c2.15,0.72,2.81,3.24,5.13,3.73c2.41,0.51,4.07,0.6,6.45-0.19   c4.54-1.51,8.86-0.55,12.7,2.1c0.98,0.68,1.45,1.87,2.32,2.61c1.05,0.9,1.96,0.72,3.33,0.79c2.61,0.13,3.43-1.11,5.5-2.59   c1.46-1.04,4.4-1.97,6.26-0.93c2.9,1.63,0.3,3.91-0.81,5.5c-3.98,5.72,4.54,6.24,7.87,7.16c2.29,0.64,4.42,0.31,6.57,1.36   c2.08,1.01,3.35,2.79,5.31,4.17c1.34,0.94,3.01,1.52,4.29,2.56c1.43,1.17,2.26,2.85,3.96,3.7"/>
        <text transform="matrix(0.1235 0.9923 -0.9923 0.1235 467.8936 138.7437)" stroke="#000000" stroke-miterlimit="10" font-family="'MyriadPro-Regular'" font-size="14.6699">SİNOP</text>
        <text transform="matrix(0.2831 -0.9591 0.9591 0.2831 437.2344 381.0693)" stroke="#000000" stroke-miterlimit="10" font-family="'MyriadPro-Regular'" font-size="14.6699">ÇORUM</text>
        <text transform="matrix(1 0 0 1 185.208 393.6416)" stroke="#000000" stroke-miterlimit="10" font-family="'MyriadPro-Regular'" font-size="14.6699">ÇANKIRI</text>
        <path fill-rule="evenodd" clip-rule="evenodd" fill="none" stroke="#000000" stroke-miterlimit="10" d="M84.2,181.08   c-2.21-0.72-4.76,0.78-6.91,1.34c-2.41,0.62-4.72,0.19-6.81,1.56c-2.18,1.43-3.26,3.42-5.35,5.05c-1.51,1.18-5.51,1.08-5.69,3.2   c-0.2,2.32,3.98,2.5,5.15,4.32c1.74,2.7-2.45,3.43-4.08,4.12c-2.21,0.94-4.24,2.26-6.73,2.26c-1.2,0-2.86,0.22-3.98-0.15   c-1.11-0.36-1.74-1.18-2.9-1.38c-4.59-0.82-10.74,2.01-11.31,6.88c-0.28,2.39,0.19,5.29,0.31,7.64c0.05,0.96,0.16,2.56,0.45,3.52   c0.36,1.17,1.41,1.88,1.96,2.94c0.73,1.41,1.41,3.39,1.99,4.89c0.63,1.65,0.47,4.03,0.15,5.78c-0.35,1.9-0.47,3.99-1,5.84   c-0.49,1.73-1.94,2.96-2.48,4.4"/>
        <text transform="matrix(0.1414 0.9899 -0.9899 0.1414 48.0479 263.7358)" stroke="#000000" stroke-miterlimit="10" font-family="'MyriadPro-Regular'" font-size="14.6699">KARABÜK</text>
        <text transform="matrix(1 0 0 1 9.3218 165.647)" font-family="'MyriadPro-Regular'" font-size="14.6699">BARTIN</text>
    </g>
    <g id="__Harita" display="none">
        <rect id="__cer" x="0" y="0" fill="#000000" opacity="0" width="500" height="445"/>
        <g id="__Çatalzeytin">
            <path d="    M347.53,66.53c0.51,0.28,1.34,0.78,1.91,0.44c0.59,0.15,1.17,0.29,1.76,0.44c1.05,0.4,2.33,0.85,3.37,0.59    c0.58,0.18,1.41,0.88,1.91,0.44c-0.05,0.79-0.33,1.18,0.45,1.38c0.58,0.06,1.17,0.62,1.75,0.68c0.83,0.17,2.45,0.72,3.23,0.29    c0.52,0.24,1.08,0.62,1.91,0.59c0.81,0.28,1.43,0.32,2.25,0.21c0.96,0.05,2.51,0.18,3.47,0.23c0.1,0.17-0.24,1-0.15,1.17    c-0.16,0.63-0.13,0.74-0.15,1.17c0,1.51,0.12,3.09,1.02,4.37c1.05,1.49,2.55,3.07,4.26,3.7c0.44,0.16,0.52,0.55,1.03,0.59    c0.47,0.74,0.99,1.37,0.61,2.13c-0.46,0.9-2.73,3.04-1.64,3.74c1.36,1.42,2.8,2.77,4.16,4.19c0.21,0.28,0.42,0.55,0.63,0.83    c0.34,0.75,0.68,1.5,1.02,2.26c0.68,1.08,1.93,2.43,1.67,3.79c-0.34,1.35-1.22,2.43-1.76,3.75c-0.19,0.46-0.38,0.71-0.59,1.17    c-0.07,0.43-0.25,0.7-0.15,1.03c0.59,1.32,1.17,2.64,1.76,3.96c0.15,0.98,0.29,1.96,0.44,2.93c0.02,0.55-0.2,1.5,0.15,1.91    c-0.05,0.64-0.1,1.27-0.15,1.91c-0.3,1.35-0.49,2.69-0.91,4.07c-0.28,0.75-0.56,1.49-0.85,2.24c-0.24,0.49-0.49,0.98-0.73,1.47    c-0.44,0.59-0.88,1.17-1.32,1.76c-1.11,0.78-2.4,0.78-3.54,1.52c-0.6,0.45-1.44,0.41-1.6,1.71c-0.93-0.16-2.22-0.22-3.23-0.15    c-0.67-0.16-2.58-0.19-3.08-0.44c-0.44-0.15-0.88-0.29-1.32-0.44c-0.98,0.05-1.96,0.1-2.93,0.15c-0.73,0.34-1.47,0.68-2.2,1.03    c-1.7,0.45-3.36,0.85-4.99,1.47c-0.58,0.22-2.13,0.95-2.79,1.03c-1.21-0.59-2.51-0.3-3.81,0c-0.79,0.31-1.41,0.72-2.2,1.03    c-0.02-0.58,0.07-1.53-0.44-1.76c-0.87-0.51-2.83-1.84-2.79-3.37c-0.02-0.31,0.02-0.88,0.15-0.88c3.05,0.35,2.89,0.14,4.12-1.01    c0.81-0.76,1.49-1.21,2.19-2.07c0.12,0,0.32-0.29,0.44-0.29c0.17-0.74,0.35-1.48,0.52-2.22c0.27-0.77,0.19-1.64,0.94-2.18    c0.85-0.68-0.02-0.82,2.22-1.58c0.13-0.04,0.9,0.19,1.59-0.33c0.04-0.1,0.09-0.2,0.13-0.29c0.34-0.76,0.87-1.87,1.33-2.49    c0.33-0.37,0.43-0.96,0.29-1.47c-0.14-1.51-0.16-3.24-0.73-4.69c-0.34-0.78-0.68-1.56-1.03-2.35c-0.98-1.03-1.96-2.05-2.93-3.08    c-0.49-0.39-0.98-0.78-1.47-1.17c-0.74-0.3-1.68-0.59-2.17-1.19c-0.49-0.59-1.17-1.54-0.76-2.33c-0.11-0.49-0.22-0.98-0.33-1.46    c-0.05-0.52-0.16-1.59-0.56-1.71c-0.48-0.12-0.93-0.35-1.46-0.2c-0.64,0.68-1.44,1.49-2.49,1.47c-0.41,0.49-0.83,0.98-1.24,1.47    c-0.44-0.09-1.1-0.56-1.2-0.91c-0.48-1.97,0.15-2.67,0.97-4.52c0.15-0.44,0.29-0.88,0.44-1.32c-0.1-0.29-0.2-0.59-0.29-0.88    c-0.08-1.32,0.02-1.83,0.73-2.93c0.27-0.3,0.39-0.44,0.59-0.59c0.25-0.35,0.17-0.82,0.42-1.17c-0.14-1.01-0.82-1.91-1.74-2.35    c-0.15-0.34-0.73-0.1-0.88-0.44c0.18-1.14,1.76-3.04,1.15-4.24c-0.41-1.21-2.38-2.44-1.68-2.93c0.53-1.33,1.34-1.97,2.29-2.95    c0.44-0.44,0.88-0.88,1.33-1.32c0.64-1.27,1.34-2.98,2.93-3.23C347.77,67.43,347.31,66.41,347.53,66.53z"/>
            <circle cx="365.07" cy="72.89" r="1.586"/>
        </g>
        <g id="__Abana">
            <path d="    M340.78,82.52c0.18-1.14,1.76-3.04,1.15-4.24c-0.41-1.21-2.38-2.44-1.68-2.93c0.53-1.33,1.34-1.97,2.29-2.95    c0.44-0.44,0.88-0.88,1.33-1.32c0.64-1.27,1.34-2.98,2.93-3.23c0.97-0.42,0.52-1.44,0.73-1.32l-0.15-0.15    c-1.16,0.06-2.69-0.77-3.67-1.32c-0.79-0.12-1.58-0.24-2.37-0.37c-0.86,0.11-1.73,0.21-2.59,0.32c-0.19,0.04-0.54-0.08-0.9-0.1    c-0.86-0.08-0.66-0.18-1.61-0.15c-0.78-0.02-0.39,0.01-1.03,0.15c-0.02-0.1-0.56-0.19-0.59-0.29c-0.43,0.31-1.21-0.15-1.77-0.27    c-0.78,0.01-1.56,0.02-2.34,0.02c-2.25,0.11-4.03-0.01-6.31-0.05c-0.92-0.15-2.3,0.14-3.22-0.01c-1.2-0.02-2.09,0.37-3.24,0.3    c-0.14-0.01-0.74,0.16-0.88,0.15l-0.15,0.1c0.34,0.03,0.72,0.04,1.18,0.04c0.97,0.21,2.86,0.33,2.64,0.88    c1.17,3.15,6.33,3.55,8.36,4.4c0.39,0.39,1.08,1.22,1.47,1.61c0.19,0.71,1.73,3.14,2.35,3.52c0.25,0.2,0.49,0.39,0.73,0.59    c1.27,0.92,1.37,2.05,2.05,3.08c0.24,0.54,0.35,1.44,0.73,1.61c0.81-0.02,1.71,0.93,2.42,1.32c0.52,0.28,1.02,0.26,1.55,0.44    L340.78,82.52z"/>
            <circle cx="325.49" cy="65.56" r="1.586"/>
        </g>
        <g id="__Bozkurt">
            <path d="    M301.76,66.53c1.32-0.1,1.91-0.2,3.23-0.29c0.93-0.05,1.86-0.1,2.79-0.15c0.96,0.04,1.89-0.1,2.79-0.44    c0.55,0.15,2.97-0.59,3.37-0.88c1.73-0.1,2.32,0.15,3.96,0.15l-1.03-0.15l-0.15,0.1c0.34,0.03,0.72,0.04,1.18,0.04    c0.97,0.21,2.86,0.33,2.64,0.88c1.17,3.15,6.33,3.55,8.36,4.4c0.39,0.39,1.08,1.22,1.47,1.61c0.19,0.71,1.73,3.14,2.35,3.52    c0.25,0.2,0.49,0.39,0.73,0.59c1.27,0.92,1.37,2.05,2.05,3.08c0.24,0.54,0.35,1.44,0.73,1.61c0.81-0.02,1.71,0.93,2.42,1.32    c0.52,0.28,1.02,0.26,1.55,0.44l0.59,0.15c0.15,0.34,0.73,0.1,0.88,0.44c0.92,0.44,1.6,1.33,1.74,2.35    c-0.25,0.35-0.17,0.82-0.42,1.17c-0.2,0.15-0.32,0.28-0.59,0.59c-0.71,1.1-0.81,1.62-0.73,2.93c0.1,0.29,0.2,0.59,0.29,0.88    c-0.15,0.44-0.29,0.88-0.44,1.32c-0.82,1.86-1.45,2.56-0.97,4.52c0.1,0.35,0.76,0.82,1.2,0.91c0.41-0.49,0.82-0.98,1.24-1.47    c1.05,0.02,1.85-0.78,2.49-1.47c0.53-0.15,0.98,0.08,1.46,0.2c0.41,0.12,0.51,1.19,0.56,1.71c0.11,0.49,0.22,0.98,0.33,1.46    c-0.41,0.8,0.27,1.75,0.76,2.33c0.5,0.59,1.43,0.89,2.17,1.19c0.49,0.39,0.98,0.78,1.47,1.17c0.98,1.03,1.96,2.05,2.93,3.08    c0.34,0.78,0.68,1.56,1.03,2.35c0.57,1.46,0.59,3.18,0.73,4.69c0.13,0.51,0.04,1.09-0.29,1.47c-0.47,0.62-1,1.74-1.33,2.49    c-0.04,0.1-0.09,0.2-0.13,0.29c-0.69,0.51-1.46,0.28-1.59,0.33c-2.24,0.76-1.37,0.9-2.22,1.58c-0.75,0.54-0.68,1.4-0.94,2.18    c-0.17,0.74-0.35,1.48-0.52,2.22c-0.12,0-0.32,0.29-0.44,0.29c-0.7,0.86-1.38,1.31-2.19,2.07c-1.23,1.15-1.06,1.36-4.12,1.01    l-0.15,0.15c-0.89-0.52-1.79-1.04-2.68-1.55c-0.57-0.22-1.15-0.43-1.72-0.65c-0.94-0.73-1.88-1.46-2.82-2.19    c-1.33-1.17-1.62-3-3.19-3.97c-0.86-0.48-1.72-0.95-2.58-1.43c-0.51-0.16-1.02-0.32-1.53-0.48c-0.74,0.11-1.47,0.22-2.21,0.33    c-0.44-0.01-0.87-0.03-1.31-0.04c-1.47,0.55-2.93,1.1-4.4,1.65c-1.01,0.33-2.2,1.3-3.34,0.85c-0.79-0.35-1.34-1.83-1.51-2.65    c-0.55-0.47-0.62-1.57-0.74-2.21c-0.19-0.88-0.39-1.75-0.58-2.63c0.07-0.64,0.14-1.27,0.2-1.91c0.13-0.98,0.26-1.96,0.38-2.93    c-0.59-2.05-2.66-2.18-4.4-2.35c-1.52-0.29-3.03-0.59-4.55-0.88c-0.77-0.93-1.54-1.86-2.31-2.8l-0.18,0.01    c0.71-0.48,1.73-1.37,1.91-1.76c-0.11-0.3-0.48-1.17-0.59-1.47c-0.09-0.09-0.2-0.49-0.29-0.59c0.05-0.59,0.39-0.88,0.44-1.47    c0.42-1.02,0.83-2.13,0.59-3.23c-0.67-2.99-1.05,0.5-1.47-5.28c-0.44-0.62-1.74-1.17-1.76-1.91c-0.04-1.09,0.29-2.6,0.73-3.52    c0.2-0.42,0.53-0.53,0.59-1.03c0.1-0.66-0.23-1.12-0.59-1.32c-0.04-0.48-0.07-0.97-0.1-1.45c0.15-2.14,1.87-0.81-0.19-4.71    c-0.83-1.57-1.04-3.4-1.17-5.13c-0.03-0.39,0.14-1.75,0-1.76H301.76z"/>
            <circle cx="323.35" cy="70.29" r="1.586"/>
        </g>
        <g id="__İnebolu">
            <path d="    M288.41,115.53c1.17-0.52,2.27,0.09,3.52-0.15c0.54-0.24,1.08-0.49,1.61-0.73c1.56-1.14,2.71-3.01,3.52-4.69    c0.52-1.08,1.86-2.67,1.37-3.77c-0.54-1.04-1.31-2.08-1.43-3.28c-0.05-0.49-0.24-1.3,0.21-1.59c2.14,0.01,3.37,0.06,4.82-0.17    c0.24-0.04,0.75,0.01,0.75-0.28c0.53,0.19,0.69-0.04,0.92,0.28l-0.18,0.01c0.71-0.48,1.73-1.37,1.91-1.76    c-0.11-0.3-0.48-1.17-0.59-1.47c-0.09-0.09-0.2-0.49-0.29-0.59c0.05-0.59,0.39-0.88,0.44-1.47c0.42-1.02,0.83-2.13,0.59-3.23    c-0.67-2.99-1.05,0.5-1.47-5.28c-0.44-0.62-1.74-1.17-1.76-1.91c-0.04-1.09,0.29-2.6,0.73-3.52c0.2-0.42,0.53-0.53,0.59-1.03    c0.1-0.66-0.23-1.12-0.59-1.32c-0.04-0.48-0.07-0.97-0.1-1.45c0.15-2.14,1.87-0.81-0.19-4.71c-0.83-1.57-1.04-3.4-1.17-5.13    c-0.03-0.39,0.14-1.75,0-1.76c-0.78,0.15-1.86,0.29-2.64,0.44c-0.82-0.09-1.63-0.26-2.2-0.73c-2.06,0.15-4.91,0-7.34-0.07    c-2.92,0.21-8.21,0.01-8.5-0.37c-0.63-0.05-1.5,0.23-2.05,0c-1-0.23-2.13,0.37-3.08,0.54c-1.01,0.17-2.06-0.05-3.03-0.29    c-0.27-0.09-0.82-0.29-1.22-0.68c0.66-1.45-0.42,0.13-0.88-0.73c0.22-0.56,0.77-0.35,1.03-0.29c1.16,0.26,0.55-0.22,0.15-0.29    c-1.06-0.2-1.64,0.09-1.76,0.44c0,0-0.76,0.29-1.61,0.44c-0.16,0.05-0.83,0.17-1.32,0.15c-0.3,0.1-0.57,0.11-0.88,0.15    c-0.17,0.02-0.52,0.03-0.88,0c-1.17-0.1-2.35-0.2-3.52-0.29c-0.68-0.14-1.47-0.84-2.93-0.29c-0.21,0.01-0.9-0.14-1.17-0.15    c-1.17-0.05-1.03-0.1-2.2-0.15c-0.38-0.04-0.62,0.11-1.03,0c-0.93,0-1.5-0.19-2.93-0.15c-0.29-0.03-0.69-0.02-1.03-0.15    c-0.54-0.02-1.91-0.74-2.35-0.73c-0.24-0.04-0.86,0.03-1.17,0c-0.66-0.03-1.86-0.01-2.49,0c-1.05,0-1.86-0.15-2.79-0.44    c-0.49,0-0.98,0-1.47,0c-0.39-0.05-0.78-0.1-1.17-0.15c-0.72,0.02-1.13-0.12-1.76-0.29c-0.58-0.02-1.47-0.12-2.05-0.15    c-0.39-0.12-0.63,0.12-1.03,0c-0.14,0.02-0.31,0.07-0.81-0.08c-0.59-0.18-3.27-0.87-3.59-0.5c-0.68-0.27-1.31-0.76-2.05-0.73    c-0.73-1.14-2.1-1.21-3.39-1.25c-0.34,0.03-0.67,0.05-1.01,0.08c-1.18-0.34-2-1.03-3.23-1.03c0.06,0.06,0.08,0.67,0.15,0.73    c0.24,0.69,0.22,0.77,0.28,1.47c0.09,0.47,0.21,1.39,0.17,1.88c0.27,0.35,0.13,1.04,0.08,1.47c-0.15,1.24-0.76,2.38-1.04,3.64    c0.19,0.5-0.38,3.23-0.66,3.72c-0.71,1.25-0.13,2.65-1.17,3.37c-0.17,0.24-0.48,0.46-0.73,0.42c-0.6-0.12-1.04-0.65-1.76-0.56    c-0.29,0.17-0.68,0.52-0.59,1.17c-0.11,0.58-0.22,1.16-0.33,1.75c-1.35,2.69-1.15,5.62-0.69,8.52c0.22,0.25,0.44,0.5,0.66,0.74    c0.12,0.39,0.25,0.78,0.37,1.16c0.58,0.39,1.65,2.54,1.61,3.23c0.09-0.05,0.64-0.69,0.73-0.73c1.1-0.51,3.14-0.93,4.4-1.06    c0.73-0.09,1.18-0.02,1.91-0.11c0.49-0.49,1.81-2.35,2.05-3.08c0.29-0.25,0.59-0.48,0.88-0.73c1.72-0.28,3.27-0.6,4.99-0.88    c0.77,0.02,1.55,0.05,2.32,0.07c1.47-0.37,3.25-0.13,4.72-0.37c0.68,0.1,1.37,0.2,2.05,0.29c0.48-0.06,0.97-0.11,1.45-0.17    c1.19-0.49,2.35-1.1,3.54-1.59c0.3-0.08,1.41,0.09,1.46,0.15c0.83,0.91,1.55,1.75,2.21,2.79c0.45,0.71,2.35,2.4,2.2,3.23    c0.29,0.44,0.59,1.03,0.88,1.47c0.81,0.79,1.53,1.17,2.49,1.76c0.54,0.44,1.08,1.18,1.61,1.61c1.47,0.74,2.93,1.32,4.4,2.05    c0.53,0.06,1.27,1.22,1.91,1.76c1.17,0.78,2.35,1.57,3.52,2.35c0.39,0.28,0.79,0.41,1.18,0.69c0.39,0.12,0.78,0.37,1.16,0.49    c0.34,0.14,0.68,0.15,1.03,0.29c1.98,0.2,0.05,3.19,3.06,2.37c1.46-0.39,2.63-1.69,4.29-1.77c0.27,0.02,0.45-0.04,0.71-0.01    c0.09-0.06,0.27-0.03,0.37-0.09c0.31,0.28,0.75,0.9,1.1,0.97c0.29,0.67,0.89,1.46,1.03,2.2c0.51,1.02,0.86,2.04,1.37,3.06    c0.17,0.34,0.44,1.34,0.68,1.78c0.26,0.29,0.64,0.98,1.03,1.32c0.99,0.94,1.67,0.47,2.68,1.3c0.83,0.21,1.02,2.06,2.6,2.66H288.41    z"/>
            <circle cx="269.41" cy="67.08" r="1.586"/>
        </g>
        <g id="__Doğanyurt">
            <path d="    M188.95,54.5c0.18-0.38,2.39-0.8,1.91,0.15c0.34,0.15,0.99-0.82,1.17,0.44c0.36-0.27,1.13-0.29,1.61-0.29    c0.8,0.8,1.56,1.24,2.64,1.61c0.68-0.05,1.37-0.1,2.05-0.15c0.46-0.15,0.96,0.06,1.32-0.29c0.36-0.06,0.67-0.38,1.03-0.44    c0.44,0,0.88,0,1.32,0c0.86,0.52,1.67,0.27,2.64,0.15c-0.13,0.54,0.88,0.94,1.32,1.32c0.71,0.34,0.42,0.18,1.47,0.44    c1.8,0.11,2.97,0.09,4.7,0.26c1.12,0.06,2.68,0.12,3.81,0.18c1.56,0.27,3.49,1.1,4.4,0.88h-0.15c0.06,0.06,0.08,0.67,0.15,0.73    c0.24,0.69,0.22,0.77,0.28,1.47c0.09,0.47,0.21,1.39,0.17,1.88c0.27,0.35,0.13,1.04,0.08,1.47c-0.15,1.24-0.76,2.38-1.04,3.64    c0.19,0.5-0.38,3.23-0.66,3.72c-0.71,1.25-0.13,2.65-1.17,3.37c-0.17,0.24-0.48,0.46-0.73,0.42c-0.6-0.12-1.04-0.65-1.76-0.56    c-0.29,0.17-0.68,0.52-0.59,1.17c-0.11,0.58-0.22,1.16-0.33,1.75c-1.35,2.69-1.15,5.62-0.69,8.52c0.22,0.25,0.44,0.5,0.66,0.74    c0.12,0.39,0.25,0.78,0.37,1.16c0.58,0.39,1.65,2.54,1.61,3.23h-0.15c-1.08,0.56-2.56,1.9-3.81,2.2    c-0.64,0.32-1.42,0.59-2.05,0.73c-0.78,0.29-1.56,0.59-2.35,0.88l0.88-0.29c-0.8,0.39-2.37,0.12-2.93,0.44    c-0.33-0.21-0.65-0.41-0.98-0.62c-0.32-0.42-0.95-1.16-1.22-1.44c-1.23-0.6-2.89-1.51-4.25-1.61c-0.34-0.03-0.91-0.06-1.17,0.15    c-0.59-0.15-1.17-0.29-1.76-0.44c-1.7-0.43-3.19-1.23-4.99-1.31c-0.54-0.05-1.07-0.1-1.61-0.16c-1.17,0.29-2.35,0.59-3.52,0.88    c-0.41,0.25-0.52,0.39-1.03,0.15c-0.1-0.15-0.2-0.29-0.29-0.44c-0.68-1.23-1.94-2.05-2.79-2.23v0.03    c-0.05-0.05-0.2-1.07-0.44-1.03c-0.78-0.73-1.42-1.03-2.25-1.79c-1.06-1.1-0.44-1-0.54-1.44c0.07-0.1,0.13-0.39,0.1-0.46    l-0.69-0.27c0.2,0.06,0.39,0.23,0.69,0.27l-0.03,0.64c-0.11-0.63,0.47-1.25,0.81-1.63c1.5-1.68,1.25-1.24,1.03-2.81    c-0.2-0.83-0.39-1.66-0.59-2.49c-0.05-0.73-0.1-1.47-0.15-2.2c0.05-1.42,0.1-2.84,0.15-4.25c-0.2-0.44-0.39-0.88-0.59-1.32    c-0.34-0.68-0.68-1.37-1.03-2.05c-0.05-0.54-0.24-1.22-0.29-1.76c0.09-0.34,0.32-0.54,0.41-0.88c0.3-0.29,0.6-0.58,0.91-0.88    c0.83-0.59,1.81-1.17,2.64-1.76c0.88-1.12,1.76-2.26,2.64-3.37c0.73-0.88,1.47-1.61,2.2-2.49    C187.98,55.81,188.62,55.19,188.95,54.5z"/>
            <circle cx="205.38" cy="58.37" r="1.586"/>
        </g>
        <g id="__Cide">
            <path d="    M188.51,53.91c-0.29-0.09-0.26-0.18-0.58-0.12c-0.64,0.19-1.27,0.37-1.91,0.56c-1.76-0.17-3.43-0.64-5.13-1.03    c-0.73,0.1-1.47,0.2-2.2,0.29c-0.29,0-0.59,0-0.88,0c-1.57,0.34-3.01,1.07-3.96,2.35c-0.91,0.24-1.81,0.47-2.72,0.71    c-0.31,0.26-0.95,0.48-1.1,0.76c-0.45,0.21-0.38,0.13-0.59,0.44c-1.05,0.14-1.47,0.73-2.34,0.75c-1.4,1.2-2.27,2.95-3.97,3.19    c-1.11,0.15-2.48,0.5-4.39,1.52c-0.64,0.33-1.27,0.67-1.91,1c-1.22,0.21-2.45,0.42-3.67,0.63c-0.81,0.01-1.36,0.59-1.91,1.13    c-1.33,0.15-2.27,0.66-3.23,1.48c-0.34,0.24-0.68,0.48-1.03,0.72c-0.4,0.06-0.7,0.25-1.03,0c-0.79,0.09-1.14,0.87-1.64,1.42    c-0.23,0.36-0.46,0.72-0.7,1.08c-0.35,0.38-1.02,0.71-1.18,1.17c-1.19,0.19-2.39,0.38-3.58,0.56c-0.66,0.49-1.29,1.22-2.1,0.87    c-0.4-0.23-0.89,0.08-1.33-0.03c-0.99-0.25-2.26,0.29-3.26,0.5c-0.88,0.19-1.61,0.63-2.44,0.99c-0.65,0.18-1.29,0.36-1.94,0.55    c-1.43,0.47-2.85,0.93-4.28,1.4c-0.52,0.13-1.57,0.19-1.91,0.74c-1.51,0.24-2.55,0.16-3.96,0.73c-0.29,0.12-1.06,0.45-1.32,0.29    c-0.91,0.39-1.53,0.45-2.73,1.05c-0.16-0.04-0.55,0.15-0.65,0.13c-0.09,0.37,0.09,0.8,0,1.17c-0.04,0.45-0.27,0.57-0.59,1.03    c-0.38,0.25-1.52,1.21-2.64,1.03c-0.49,0.44-0.98,0.88-1.47,1.32c-0.6,0.08-1.43,0.03-1.76,0.59c-0.63-0.02-2.23-0.2-2.56,0.42    c0.23,0.77-0.36,0.23-0.66,0.16c-0.32,0.09-0.09,0.5-0.09,0.71c0.19,0.37,0.27,0.77,0.67,0.91c-0.05,0.12,0.05,0.32,0,0.44    c0.15,0.37-0.19,0.29-0.15,0.44c-2.31,2.17-4.65,3.04-7.63,3.96c-1.13,0.35-3.2,1.66-4.25,1.61c-0.71,0.4-1.72,0.93-2.55,1.26    c-0.27,0.1-0.65,0.31-1.06,0.29c-2.56,1.33-5.62,1.93-7.98,1.54c-0.75,0.54-1.51,1.15-2.2,1.17c-0.65,0.14-0.9,0.81-0.44,1.47    c-0.1-0.01-0.29-0.02-0.44,0c-0.34,0.16-0.27,0.32-0.59,0.15c-1.06-0.77-2.41-0.44-3.66-0.51c-0.52-0.03-0.82,0.41-1.09,0.06    c-0.37-0.49-1.02-0.33-1.42-0.43c-0.4,0.14-0.79,0.51-1.17,0.29c-0.38,0.41-0.79,1.22-1.32,1.32c-0.77,0.01-1.29-0.45-2.05-0.44    c-0.78-0.05-0.98-0.24-1.76-0.29c-0.06-0.07-0.82-0.08-0.88-0.15c-0.38-0.12-0.81,0.18-1.03-0.15c-0.09,0.34-0.66,0.4-1.47-0.15    c-0.63,0.72-1.34,0.48-1.76,0.29c0.03,0.09-0.18,0.21-0.15,0.29c0.04,0.18,0.32,0.31,0.36,0.49c-0.62,0.42-1.34,0.71-1.68,1.42    c-0.26,0.5-0.69,0.83-0.88,0.59c-0.41-0.01-1-0.17-1.3-0.04c-0.55,0.23-0.43,0.51-1.05,0.63c0.01,0.09-0.28,0.18-0.27,0.27    c0.01,0.32,0.1,0.38-0.17,0.6c0.05,0.34,0.1,0.68,0.15,1.03c0,1.01-0.62,1.68,0.1,2.61c-0.13,0.44-0.02,0.35,0.34,0.49    c0.31,0.12,0.61,0.24,0.92,0.36c0.43,0.36,0.85,0.73,1.28,1.09c0.15,0.34,0.29,0.68,0.44,1.03c0.34,0.49,0.68,0.98,1.03,1.47    c0.24,0.98,0.49,1.96,0.73,2.93c-0.15,1.63-0.49,3.41-1.15,4.92c-0.09,0.23,0.02,0.26-0.03,0.51c0.07,0.35,0,0.38-0.15,0.73    c-0.25,0.77-0.5,1.55-0.76,2.32c-0.02,0.32,0.1,0.65-0.12,0.91c0.27,1.23,0.53,2.35,1.03,3.52c0.64,0.83,1.27,1.66,1.91,2.49    c1.13,0.49,2.25,0.98,3.38,1.48c2.11,1.53,4.72,2.42,7.18,3.22c1.08,0.15,2.15,0.29,3.23,0.44c0.98-0.15,1.96-0.29,2.93-0.44    c0.93-0.49,1.86-0.98,2.79-1.47c1.47-0.73,2.93-1.47,4.4-2.2c0.65-0.16,2.64-0.63,3.07-0.81c0.55,0.28,0.97-0.02,1.48,0.37    c0.21,0.12,0.37,0.47,0.59,0.59v-0.15c0.45-0.52,0.8-1.23,1.38-1.51c0.55-0.15,1.1-0.3,1.65-0.44c1.02-0.25,2.11-0.69,2.98-1.27    c1.31-0.86,2.95-0.71,4.39-1.21c3.16-1.09,6.09-2.32,9.4-2.76c0.39,0.05,0.78,0.1,1.17,0.15c0.43-0.04,0.87-0.09,1.3-0.13    c0.64,0.19,1.29,0.38,1.93,0.57c0.38,0.4,0.76,0.79,1.14,1.19c0.26,0.29,0.51,0.57,0.77,0.86c0.73,0.2,1.47,0.39,2.2,0.59    c1.2,0.72,2.39,1.44,3.59,2.16c0.61,0.45,1.23,0.91,1.84,1.36c0.34,0.34,0.68,0.69,1.03,1.03c0.78,0.54,1.56,1.08,2.34,1.62    c0.85,0.56,2.13,1.28,3.5,1.82l0.18,0.08c-0.06-0.02,0.5-0.78,0.59-0.88c0.62-0.71,0.78-2.02,0.75-2.93    c0.04-1.47,0.09-2.94,0.13-4.41c-0.24-0.73-0.49-1.47-0.73-2.2c-0.05-0.49-0.1-0.98-0.15-1.47c0.1-0.29,0.2-0.59,0.29-0.88    c0.19-0.16,0.53-0.77,0.73-1.17c0.45-0.89,0.6-1.6,0.59-2.49c-0.01-0.76,0-0.91-0.33-1.61c0-0.19-0.19-0.56-0.25-0.89    c-0.08-0.25-0.19-0.74-0.59-1.17c-0.49-1.37-0.98-2.74-1.47-4.11c-0.12-0.58-0.29-0.91-0.15-1.47c0.02-0.05,0.42-0.39,0.44-0.44    c0.69-0.21,0.93-0.2,1.47-0.29c1.29,0.42,2.61-0.57,4.55-0.73c1.52-0.93,3.03-1.86,4.55-2.79c0.39-0.34,0.78-0.68,1.17-1.03    c0.26-0.42,0.56-0.68,0.73-1.03c0.61-1.2,1.53-1.92,2.64-2.64c0.7-0.11,0.9-0.09,1.32-0.13c0.49,0,0.98-0.01,1.47-0.01    c0.46-0.21,0.81-0.36,1.17-0.59c0.45-0.42,1.02-0.9,1.47-1.32c1.01-1.08-0.1-2.67-0.23-3.68c-0.05-0.33-0.31-0.69,0.09-0.72    c0.21-0.15,0.18-0.11,0.39-0.23c0.46-0.64,1.84-0.68,2.54-0.94c0.49-0.1,0.83-0.34,1.32-0.44c0.15-0.15,0.59-0.15,0.73-0.29    c2.09-0.07,3.92,0.23,6.01,0.29c0.51-0.05,1.02-0.11,1.53-0.17c0.86-0.24,1.72-0.48,2.58-0.71c1.3-0.53,2.6-1.05,3.9-1.58    c0.65-0.51,1.3-1.03,1.95-1.54c1.69-1.13,3.42-2.39,5.3-5.54c0.68-0.01,0.49,0.16,1.17,0.15c0.83,0.14,1.17,0.3,1.61,0.44    c0.2,0.06,0.39,0.23,0.69,0.27l-0.03,0.64c-0.11-0.63,0.47-1.25,0.81-1.63c1.5-1.68,1.25-1.24,1.03-2.81    c-0.2-0.83-0.39-1.66-0.59-2.49c-0.05-0.73-0.1-1.47-0.15-2.2c0.05-1.42,0.1-2.84,0.15-4.25c-0.2-0.44-0.39-0.88-0.59-1.32    c-0.34-0.68-0.68-1.37-1.03-2.05c-0.05-0.54-0.24-1.22-0.29-1.76c0.09-0.34,0.32-0.54,0.41-0.88c0.3-0.29,0.6-0.58,0.91-0.88    c0.83-0.59,1.81-1.17,2.64-1.76c0.88-1.12,1.76-2.26,2.64-3.37c0.73-0.88,1.47-1.61,2.2-2.49c0.5-0.59,1.13-1.22,1.47-1.91    L188.51,53.91z"/>
            <circle cx="106.05" cy="89.24" r="1.586"/>
        </g>
        <g id="__Daday">
            <path d="    M142,189.31c0.05,0.05,0.1,0.68,0.15,0.73c0.09,0.49-0.04,0.29,0.88,0.32c0.69,0.09,1.37,0.18,2.06,0.27    c1.19-0.32,2.4-1.17,3.53-0.33c0.44,0.16,0.72,0.32,1.16,0.48c0.66,0.84,1.28,1.17,1.47,1.17c1.28,0.66,2.39,0.86,3.78,1.27    c0.69,0.2,1.67,0.54,2.38,0.35c0.7,0.24,1.84,0.51,2.48,0.11c1.27-0.78,1.92-2.15,3.11-3.03c0.38-0.18,0.77-0.37,1.15-0.55    c2.13-1.39,4.34-2.25,6.76-2.65c0.73-0.26,1.46-0.51,2.2-0.77c1.51-0.08,3.02-0.16,4.52-0.24c1.41,0.8,2.31,1.96,4,2.31    c0.3,0.06,1.32,0.12,1.45-0.01c1.24-1.34,0.71-3.37,0.88-4.99c0.54-0.68,1.08-1.37,1.61-2.05c1.37-0.81,2.94-0.5,4.53-0.81    c0.59-0.17,1.19-0.34,1.78-0.51c0.29-0.15,0.59-0.29,0.88-0.44c0.62-0.91,0.62-1.53,2.14-2.61c1.82-1.29,4.61-1.42,6.67-1.9    c1.36-0.32,4.16-0.82,4.91-1.9c0.22-0.31,0.44-0.62,0.66-0.93c-0.2-0.71-0.21-3.31-0.44-3.81c0,0,0.19-0.83,0.57-0.74    c1.75,0.58,3.43,1.35,5.05,2.26c0.57,0.28,1.14,0.55,1.71,0.83c0.83,0.15,1.66,0.29,2.49,0.44c0.39,0,0.78,0,1.17,0    c0.83-0.34,1.66-0.68,2.49-1.03c0.69-0.43,1.38-0.86,2.06-1.28c1.44-0.64,3.18-0.46,4.67-0.26c2.21,0.29,2.19,0.22,3.1,0.83    c0.52,0.58,1.92,1.96,2.65,2.65l0.43,0.9c0.14,0.57,0.17,1.22,0.16,1.76c-0.01,0.61-0.08,1.07-0.08,1.07    c-0.46-0.08-0.7-0.28-0.99-0.14c-0.72,0.36-1.45,0.72-2.17,1.09c-0.93,0.87-1.85,1.74-2.78,2.6c-0.68,0.29-1.36,0.57-2.04,0.86    c-0.94-0.38-1.78-0.82-2.8-1.03c-0.4-0.08-0.79-0.72-1.04-0.38c-0.08,0.02-0.21,0.42-0.29,0.44c-0.27,2.01-0.54,4.01-0.81,6.02    c-0.15,1.17-0.25,2.48-0.88,3.48c0.05,0.27-0.52,1.36-0.81,1.79c0,1,0.17,1.62,0.88,2.35c0.32,0.08,0.64,0.16,0.95,0.24    c0.71-0.29,1.55-0.72,2.42-0.97c0.41-0.12,1.05-0.59,1.31-0.57c1.11,0.12,1.72,0.47,2.48,1.31c0.42-0.01,1.56,1.07,1.79,1.46    c0.72,0.32,1.36,0.7,1.87,1.29c0.71,0.12,0.81,1.2,1.5,1.21c-0.03,0.14-0.06,0.28-0.09,0.41c-0.07,0.3,0.16,0.28-0.11,0.51    c-0.26,0.21-0.35,0.18-0.38,0.54c-0.49,0.16-1.53,0.43-1.64,1.03c0.03,0.37,0.06,0.75,0.09,1.12c0.2,0.27,0.35,0.32,0.23,0.64    c1.63,0.49,3.1,1.27,4.84,1.17c0.64-0.04,1.58,0.87,2.05,0.59c0.03,0.11,0.07,0.23,0.1,0.34c0.04,0.26,0.08,0.53,0.11,0.79    c-0.97,1.4-2.45,2.19-3.59,3.39c-0.59,0.59-1.17,1.19-1.76,1.78c-0.57,0.82-1.76,2.31-1.47,3.37c-0.13,0.38-0.38,0.84-0.15,1.17    c-0.49,0.64-0.98,1.27-1.47,1.91c-1.58,1.15-3.13,2.29-4.37,3.84c-0.11,0.38-0.22,0.77-0.33,1.15c0.15,0.24,0.29,0.49,0.44,0.73    c0.06,0.64-0.18,1.39-0.42,1.97c0.23,0.43-0.05,1.19-0.06,1.7c0.01,0.78,0.02,1.57,0.04,2.35c0.31,1.17,0.81,1.88,0.73,3.08    c-0.03,0.45,0.32,0.81,0.19,1.11c-0.26,0.51-0.52,1.02-0.78,1.53c-0.29,0.29-0.59,0.59-0.88,0.88c-0.39,0.24-0.78,0.49-1.17,0.73    c-1.97,0-3.56-0.01-5.15,1.14c-0.4,0.29-0.72,0.41-0.84,0.9c-0.13,0.66-0.27,1.33-0.4,1.99c0.03,0.22,0.06,0.44,0.09,0.67    c-0.31,1.5-1.28,3.38-2.27,4.43c-0.53,0.56-0.88,1.7-1.8,1.5l0.26,0.37c-2.36,0.54-4.09,1.2-6.07,2.64    c-0.63,0.46-0.54,0.9-1.38,1.14c-0.09,0.36-0.45,0.3-0.47,0.33c-0.1-0.05-0.2-0.1-0.29-0.16c-1.08-0.63-2.15-1.26-3.23-1.9    c-0.98-0.15-1.96-0.29-2.93-0.44c-1.62-0.54-3.25-1.08-4.87-1.62c-1.72-0.36-2.83-0.22-4.39-1.27c-0.29-0.2-0.56-0.31-0.72-0.63    c-0.88-0.49-1.76-0.98-2.64-1.47c-0.42-0.94-0.9-1.8-1.03-2.79c-0.08-0.63-0.98-1.2-0.88-1.76c-1.48-0.76-2.31-0.9-3.96-0.88    c-0.49,0.05-0.98,0.1-1.47,0.14c-1.86-0.04-3.72-0.08-5.58-0.12c-1.02,0.04-2.05,0.08-3.08,0.12c-0.73,0.2-1.47,0.39-2.2,0.59    c-1.13,0.22-2.02,1.1-3.04,1.54c-0.84,0.37-1.47,0.68-2.38,0.88c-0.44,0.12-0.89,0.24-1.33,0.37c-0.44-0.05-0.88-0.1-1.32-0.15    c-0.88-0.59-1.76-1.17-2.64-1.76c-1.66-0.2-3.33-0.39-4.99-0.59c-1.76,0.34-3.52,0.68-5.28,1.03c-0.64-0.07-2.1-0.83-2.64-0.59    c-0.59-0.24-1.17-0.49-1.76-0.73c-0.83-0.54-1.66-1.08-2.49-1.61c-0.44-0.44-0.88-0.88-1.32-1.32h0.44c0-0.24,0.45-0.63,0.45-0.87    c0.24-1.08,0.48-2.16,0.72-3.24c-0.12-0.61-0.36-1.8,0-2.35c0.05-0.88,0.1-1.76,0.15-2.64c-0.02-0.33-0.04-0.67-0.06-1    c0.14-0.93,0.46-3.08-0.56-3.65c-1.1-0.46-2.21-0.91-3.31-1.37c-0.53-0.11-1.06-0.22-1.6-0.33c-0.4,0.09-2.95-0.48-3.24-0.73    c-1.25-1.16-1.79-4.59-1.64-6.27c-0.04-0.39-0.08-0.78-0.12-1.16c0.1-0.87,0.19-1.74,0.28-2.61c0.14-1.31-0.2-1.08-0.7-2.05    c-0.78-1.49-0.32-1.73,0.74-3.24c0.47-0.67,0.73-1.5,1.19-2.17c0.98-1.46,2.27-2.41,3.25-3.93c1.19-1.84,2.69-3.42,4.24-4.78    c1.42-1.24,1.99-2.25,3.82-3.06L142,189.31z"/>
            <circle cx="206.6" cy="208.28" r="1.586"/>
        </g>
        <g id="__Araç">
            <path d="    M207.43,330.15c-0.39-0.1-0.78-0.2-1.17-0.29c-1.49-0.21-2.76-0.85-3.81-1.91c-0.65,0-2.35-1.56-2.42-2.07    c-0.04-0.31,0-0.64-0.22-0.87c0.05-0.29,0.1-0.59,0.15-0.88c0.39-0.54,0.78-1.08,1.17-1.61c0.44-0.24,0.88-0.49,1.32-0.73    c0.2-0.29,0.39-0.59,0.59-0.88c0.05-1.91,0.1-3.81,0.15-5.72c0.66-0.74,1.19-1.67,1.01-2.74c0.03-0.1,0.06-0.21,0.09-0.31    c-0.89-1.61-2.41-1.87-4.08-1.24c-0.27,0.45-1.54,1.04-2.09,0.9c-0.42-0.19-0.85-0.37-1.27-0.56c-0.31-0.27-0.45-0.69-0.85-0.74    c-0.27-1.17-0.46-2.18-0.66-3.38c-0.02-0.44-0.05-0.87-0.07-1.31c0.1-0.44,0.2-0.88,0.29-1.32c0.15-0.29,0.29-0.59,0.44-0.88    c0.49-0.64,0.98-1.27,1.47-1.91c0.22-0.82,0.43-1.65,0.65-2.47c0.12-0.23,0.22-0.64,0.52-0.6c0.98,0.13,1.68,0.98,2.5,1.45    c0.59,0.17,1.19,0.33,1.78,0.5c3,0.48,4.43-1.54,5.85-3.73c0.2-0.59,0.39-1.17,0.59-1.76c-0.1-0.39-0.2-0.78-0.29-1.17    c-0.54-0.34-1.08-0.69-1.61-1.03c-0.54-0.34-1.08-0.68-1.61-1.02c-0.15-0.54-0.29-1.08-0.44-1.61c0.53-0.87,1.1-3.95,0.88-4.99    c-0.39-1.47-0.78-2.93-1.17-4.4c-0.23-1.37,0.24-2.4,0.49-3.68c0.11-0.55,0.23-1.4,0.69-1.75c0.33-1.69,0.58-2.46,1.38-4    c0.76-1.45,1.82-2.45,3.26-3.24c0.44-0.24,1.02-0.71,1.51-0.68c0.39-0.2,0.78-0.39,1.17-0.59c0.49-0.34,0.98-0.69,1.47-1.03    c0.65-1.12,2.21-3.12,2.49-4.25c0.25-0.99-0.17-2.25,0.16-3.08c0.55,0,0.96-0.76,1.6-0.88c0.3,0.3,0.94-0.06,1.32-0.15    c0.3-0.07,0.66-0.04,0.88,0.15c0.38-0.12,0.75-0.24,1.13-0.36c0.67,0.24,0.85,0.02,1.51-0.23c0.1,0,0.63,0,0.73,0    c0.36-0.46,0.66-0.71,1.03-1.17l-0.15,0.73c0.02-0.45,0.24-0.72,0.15-1.17c0-0.34-0.01-0.69-0.01-1.03    c-0.04-0.38-0.19-0.99,0.01-1.32c-1.41-2.08-3.4-3.83-4.55-6.01c-0.15-0.05-0.29-0.1-0.44-0.15c-1.66,0.1-2.38,0.98-3.67,1.76    c-0.32,0.31-0.65,0.62-0.97,0.94c-0.46,0.47-0.92,0.94-1.38,1.41c-0.4,0.28-1.08,1.04-1.76,1.03c-0.36,0.37-0.52,0.34-0.59-0.44    c-0.01-0.24-0.02-0.49-0.02-0.73c-0.09-1.49,0.44-3.47-0.71-4.7c0-0.05,0-0.1,0-0.15c-2.36,0.54-4.09,1.2-6.07,2.64    c-0.63,0.46-0.54,0.9-1.38,1.14c-0.09,0.36-0.45,0.3-0.47,0.33c-0.1-0.05-0.2-0.1-0.29-0.16c-1.08-0.63-2.15-1.26-3.23-1.9    c-0.98-0.15-1.96-0.29-2.93-0.44c-1.62-0.54-3.25-1.08-4.87-1.62c-1.72-0.36-2.83-0.22-4.39-1.27c-0.29-0.2-0.56-0.31-0.72-0.63    c-0.88-0.49-1.76-0.98-2.64-1.47c-0.42-0.94-0.9-1.8-1.03-2.79c-0.08-0.63-0.98-1.2-0.88-1.76c-1.48-0.76-2.31-0.9-3.96-0.88    c-0.49,0.05-0.98,0.1-1.47,0.14c-1.86-0.04-3.72-0.08-5.58-0.12c-1.02,0.04-2.05,0.08-3.08,0.12c-0.73,0.2-1.47,0.39-2.2,0.59    c-1.13,0.22-2.02,1.1-3.04,1.54c-0.84,0.37-1.47,0.68-2.38,0.88c-0.44,0.12-0.89,0.24-1.33,0.37c-0.44-0.05-0.88-0.1-1.32-0.15    c-0.88-0.59-1.76-1.17-2.64-1.76c-1.66-0.2-3.33-0.39-4.99-0.59c-1.76,0.34-3.52,0.68-5.28,1.03c-0.64-0.07-2.1-0.83-2.64-0.59    c-0.59-0.24-1.17-0.49-1.76-0.73c-0.83-0.54-1.66-1.08-2.49-1.61c-0.44-0.44-0.88-0.88-1.32-1.32c-0.47,0.78-1.32,2.12-2.2,2.49    c-0.49,0.59-0.98,1.17-1.47,1.76c-0.64,1.12-1.27,2.23-1.91,3.35c-0.34,0.35-0.68,0.7-1.02,1.05c-1.03,0.25-2.05,0.49-3.08,0.73    c-0.59,0.33-1.19,0.66-1.78,0.98c-0.36,0.54-0.83,0.77-1.44,0.77c-0.73,0.64-1.47,1.27-2.2,1.91c-0.21,0.42-0.56,1.14-0.73,1.32    c-0.52,0.39-0.65,0.63-1.17,1.03c-0.26,0.14-0.62,0.3-0.88,0.44c-1.98,0.26-3.92,1.46-5.98,1.32c-0.3,0.24-1.17,0.22-1.5,0    c-0.83,0.19-1.66,0.39-2.49,0.59c-2,1.57-3.78,3.31-5.93,4.9c-1.35,0.86-2.7,1.72-4.05,2.59c-0.29,0.33-0.23,0.5-0.29,0.88    c-0.11,0.66-0.78,2.41-1.18,2.92c-0.34,0.44-0.68,0.89-1.02,1.33c-0.74,0.67-1.48,1.34-2.22,2.01c-0.48,0.5-0.96,1.01-1.44,1.51    c-0.49,0.93-0.98,1.86-1.47,2.79c0.05,0.59,0.1,1.17,0.15,1.76c0.15,0.39,0.29,0.78,0.44,1.17c-0.07,1.2-1.04,1.98-1.48,2.99    c-0.19,0.52-0.38,1.04-0.57,1.56c0,0.98,0,1.96,0,2.93c-0.44,1.1-0.69,2.01-0.58,3.22c0.19,1,0.38,2.01,0.56,3.02    c0.2,0.56,0.41,1.11,0.61,1.67c0.07,0.83-0.47,2.56,0.18,3.05c0.48-0.2,1.35,0.31,1.87,0.48c0.77,0.25,1.46,0.49,2.14,0.97    c0.51,0.36,1.02,0.73,1.53,1.09c0.51,0.49,0.93,1.17,1.64,1.43c0.77,0.11,1.55,0.22,2.32,0.34c0.68,0.93,1.37,1.86,2.05,2.79    c0.34,0.34,0.68,0.69,1.03,1.03c1.27,0.4,2.48,0.46,3.81,0.62c0.59,0.08,1.18,0.17,1.77,0.26c3.28,2.31,5.21,4.86,7.35,8.21    c0.24,0.34,0.48,0.69,0.72,1.04c0.29,0.2,0.59,0.39,0.88,0.59c0.37,0.32,0.88,1.1,0.89,1.46c0,0.39-0.01,0.79-0.01,1.18    c-0.17,0.6-0.48,0.98-0.53,1.62c0,1.02-0.01,2.04-0.01,3.06c0.13,0.59,0.26,1.18,0.39,1.77c0.49,1.32,0.98,2.64,1.47,3.96    c0.49,0.52,1.49,1.2,1.61,1.91c1.38,0.49,2.75,0.99,4.13,1.48c0.82,0,1.65-0.01,2.47-0.01c1.42-0.44,2.84-0.88,4.25-1.32    c1.58-0.88,3.32-1.26,4.96-1.96c0.82-0.32,1.64-0.64,2.45-0.96c0.81-0.25,1.62-0.5,2.43-0.74c0.63-0.1,1.26-0.2,1.89-0.3    c1.98,0.27,3.37,1.09,5.01,2.16c0.68,0.45,1.35,0.91,2.03,1.36c0.54,0.29,1.08,0.59,1.61,0.88c0.24,0.1,0.49,0.2,0.73,0.29    c0.64,0.34,1.27,0.68,1.91,1.03c0.76,0.28,1.53,0.56,2.29,0.84c0.51,0.31,1.02,0.61,1.53,0.92c0.88,0.2,1.76,0.39,2.64,0.59    c1.71,0.78,3.42,1.56,5.13,2.35c0.71,0.47,1.42,0.95,2.12,1.42c0.46,0.2,0.71,0.6,1.1,0.93c0.07,0.03,0.4,0.7,0.88,1.03    c0.89,1.35,0.21,0.94,1.32,2.05c0,0.26,0.75,0.85,0.73,1.03c0.1,0.3,0.56,0.45,0.73,0.88c0.44,0.59,0.44,0.59,0.88,1.17    c0.23,0.48,0.36,0.85,0.59,1.32c0.04,0.37,0.63,0.64,0.77,1.09c0.45,0.55,0.41,0.77,0.98,1.34c0.64,0.66,1.27,1.31,1.91,1.97    c1.07,0.56,2.49,0.59,3.66,0.57c3-0.05,5.23-0.49,7.93-1.84c0.99-0.49,2.97-1.57,3.2-2.56c0.4-1.45,0.25-2.93,0.47-4.39    c0.15-0.44,0.29-0.88,0.44-1.32c0.54-0.49,1.08-0.98,1.61-1.47c0.44-0.29,0.88-0.59,1.32-0.88c1.17-0.9,2.34-1.24,3.91-1.23    c0.81,0.24,2.53,0,2.94-0.56c0.53-1.09,1.66-2.31,2.25-3.78V330.15z"/>
            <circle cx="175.58" cy="274.3" r="1.586"/>
        </g>
        <g id="__Hanönü">
            <path d="    M447.49,163.97c-0.09,0.32-0.07,0.47-0.2,0.55c0,0.34,0,0.68,0,1.03c-0.1,0.05,0,0.93,0.15,1.32c0.22,0.78-0.07,2.13-0.53,2.67    c-2.1,1.19-3.59,2.37-4.6,3.64c-0.68,1.02-0.84,2.65-0.86,3.81c-0.01,0.48,0.02,0.74,0.11,1.07c-1.01,0.24-0.87,0.98-1.31,1.42    c-0.37,0.92-0.73,1.85-1.1,2.77c-0.97,0.96-2.04,2.04-2.72,3.24c0,1.34-1.15,2.81-2.05,3.67c-0.53,0.5-2.8,1.74-3.52,1.61    c-1.03,0.39-2.05,0.78-3.08,1.17c-0.83,0.49-1.66,0.98-2.49,1.47c-3.24,1.86-5.97,5.03-9.15,6.04c-0.13-0.3-0.26-0.6-0.39-0.9    c-0.2-0.24-0.39-0.49-0.59-0.73c-0.46-0.21-0.93-0.42-1.39-0.63c-0.61-0.28-1.23-0.56-1.84-0.84c-1.76-1.26-3.41-1.82-4.99-3.37    c-1.04-1.02-1.99-2.29-2.66-3.58c-0.48-0.93-0.73-1.84-1.3-2.72c-0.71-1.1-1.44-2.07-2.05-3.24c-0.15-0.29-0.3-0.58-0.44-0.87    c-0.24-1.16-0.74-2.34-1.35-3.37c-0.8-1.36-1.23-2.78-2.17-4.12c-0.21-0.3-0.12-0.66-0.44-0.88c0.12-0.64,0.25-1.28,0.37-1.92    c0.1-0.55-0.11-1.13,0.2-1.45c0.61-0.63,2.2-1.54,2.23-2.5c-0.03-0.27-0.06-0.55-0.09-0.82c-0.27-0.26-0.53-0.52-0.8-0.78    c-0.08-0.19-0.17-0.39-0.25-0.58c-0.6-0.54-1.2-1.08-1.8-1.62c-0.96-1.38-1.93-2.76-2.89-4.14c-0.21-0.43-0.42-0.86-0.63-1.29    c-0.6-0.48-1.21-0.96-1.81-1.43c-0.32-0.3-0.98-0.88-0.98-1.35c-0.66-0.6-1.33-1.21-1.99-1.81c-0.43-0.5-1.52-2.08-1.38-2.74    c-0.29-0.44-0.59-0.88-0.88-1.32c0.03-0.58,0.06-1.17,0.1-1.75c-0.18-0.69-0.36-1.38-0.54-2.06c-0.25-0.25-0.72-1.14-0.7-1.32    c0.19-1.15,1.32-2.15,2.07-3.02c0.27-0.32,0.55-0.63,0.83-0.95c0.53-1.89,1.23-3.63,1.52-5.57c0.23-0.83,0.45-1.66,0.68-2.49    c0-0.21,0.1-0.44-0.15-0.44c1.45,0,3.62,0.52,4.99,1.03c0.78,0.1,1.57,0.2,2.35,0.29c0.29-0.01,0.57-0.01,0.86-0.02    c1.68,0.08,3.2-0.57,4.85-0.57c1.28,0.15,2.56,0.29,3.83,0.44c3.14,0.87,6.28,2.04,9.52,2.4c0.98,0.1,1.95,0.2,2.92,0.29    c1.38-0.11,2.75-0.23,4.13-0.34c0.54-0.29,1.08-0.59,1.61-0.88c1.32-0.24,2.64-0.49,3.96-0.73c0.34,0,0.68,0,1.03,0    c0.57,0.2,1.14,0.39,1.71,0.59c0.98,0.51,1.38,1.78,2.11,2.54c1.58,1.64,2.29,4.01,3.97,5.68c0.93,0.93,1.66,1.27,2.75,1.94    c0.55,0.33,1.1,0.66,1.65,0.99c1.16,0.88,2.31,1.76,3.47,2.64c1.47,0.99,2.62,1.5,3.72,2.93c0.62,0.81,0.42,1.97,0.43,2.91    c0.05,0.99,0.1,1.97,0.16,2.96c-0.29,1.03-0.59,2.05-0.88,3.08C448.33,161.99,447.91,162.98,447.49,163.97z"/>
            <circle cx="419.62" cy="165.95" r="1.586"/>
        </g>
        <g id="__Tosya">
            <path d="    M320.95,392.08c-1.02-0.74-2.04-1.48-3.05-2.22c-1.41-1.03-5.33-1.15-7.04-1.03c-0.73-0.15-1.47-0.29-2.2-0.44    c-0.43-0.13-0.86-0.26-1.29-0.39c-1.56-0.46-2.93-1.17-4.43-1.67c-0.73-0.34-1.47-0.68-2.2-1.03c-1.42-0.28-2.84-0.56-4.26-0.84    c-3.2-0.36-6.57-0.58-9.53-1.94c-1.26-0.58-3.54-2.41-4.46-3.45c-0.56-0.17-1.92-1.65-2.27-2.15c-0.94-1.56-1.88-3.12-2.81-4.68    c-0.1-0.98-0.2-1.96-0.29-2.93c0.05-0.49,0.09-0.98,0.14-1.47c0-0.68,0-1.37,0-2.05c-0.06-0.64-0.37-1.8,0-2.35    c-0.05-1.71-0.1-3.42-0.15-5.13c0.1-0.81,0.19-1.61,0.29-2.42c0.25-0.86,0.49-1.71,0.74-2.57c0.37-0.8,0.75-1.6,1.12-2.39    c0.71-2.3,2.03-4.67,3.61-6.52c0.62-0.6,1.25-1.2,1.87-1.8c0.87-1.27,1.53-2.63,2.3-3.98c0.26-0.53,0.52-1.06,0.78-1.59    c0.65-2.58,1.19-5.26,1.03-7.92c-0.2-1.37-0.39-2.74-0.59-4.11c-0.38-1.16-0.77-2.22-1.48-3.21c-0.17-0.24-0.73-0.81-0.42-0.98    c0.63-0.31,0.75-0.92,1.31-1.38c0.29-0.15,0.59-0.29,0.88-0.44c0.68-0.59,1.37-1.17,2.05-1.76c0.38-0.21,0.76-0.42,1.13-0.64    c0.68-0.55,0.84-1.08,1.65-1.56c1.13-0.66,3.63-0.46,4.97-0.37c0.4,0.03,1.79,0.06,1.89-0.1c0.35-0.53,0.7-1.07,1.05-1.6    c0.02-0.12,0.04-0.23,0.06-0.35c0.32-0.37,0.65-0.73,0.98-1.1c1.76-1.12,4.33-2.12,6.46-1.61c0.05,0.1,0.1,0.2,0.15,0.29    c0.89,0.3,1.78,0.59,2.67,0.89c0.97,0.05,1.94,0.09,2.91,0.14c0.49,0.06,3.19-0.66,3.37-1.03c0.49-0.2,1.18-0.29,1.47-0.73    c1-0.42,2-0.84,2.99-1.27c1.06-0.51,2.12-1.46,2.44-2.62c0.11-0.85,0.22-1.69,0.33-2.54c0.13-0.25,0.26-0.51,0.39-0.76    c0.12-0.73,0.25-1.45,0.37-2.18c0.07-0.4,0.14-0.79,0.21-1.19c0.29-0.93,0.59-1.86,0.88-2.79c1.02-1.39,2.07-2.61,3.72-3.24    c0.17-0.5,0.59-0.82,0.97-1.16c1.81,0,3.2-0.8,4.88-1.3c1.65-0.49,3.39-0.87,5.13-0.95c1.45-0.07,2.92,0.06,4.35,0.5    c0.98,0.3,1.95,0.59,2.93,0.89c0.44,0.19,0.89,0.38,1.33,0.56c1.08,0.1,2.15,0.2,3.23,0.29c0.69-0.1,1.38-0.2,2.07-0.3    c0.83,0.05,1.65,0.1,2.48,0.16c1.99,0.54,3.98,1.08,5.96,1.61c1.04,0.29,2.09,0.58,3.13,0.87c0.35,0.11,1.03,0.15,1.03,0.54    c0.06,0.2,0.12,0.41,0.18,0.61c0,1.58,0.34,2.87,0.99,4.29c0.1,0.39,0.2,0.78,0.29,1.17c-0.05,0.44-0.1,0.88-0.15,1.32    c-0.28,0.89-1.1,1.44-1.15,2.36c-0.07,1.46,0.68,2.24,0.89,3.53c0.23,1.46,0.47,2.92,0.7,4.39c0.12,1.46,0.25,2.92,0.37,4.39    c0.24,1.15,0.78,2.03,1.39,2.98c0.24,0.09,1.3,1.45,1.32,1.72c0.64,0.54,1.27,1.08,1.91,1.61c0.78,0.39,1.57,0.78,2.35,1.17    c0.73,0.54,1.47,1.08,2.2,1.61c0.59,0.29,1.17,0.59,1.76,0.88c0.75,0.2,1.5,0.39,2.25,0.59c1.35,0.78,2.71,1.57,4.06,2.35    c0.44,0.44,0.88,0.88,1.32,1.32c0.4,0.79,0.8,1.58,1.2,2.37c0.64,0.97,0.87,2.17,0.93,3.35c-0.02,0.78-0.05,1.56-0.07,2.35    c-0.34,0.88-0.68,1.76-1.03,2.64c-0.78,0.93-1.57,1.86-2.35,2.79c-0.89,0.74-2.45,0.88-2.79,2.05c-0.4,0.19-1.23,1.13-0.96,1.23    c-0.56,0.81-1.12,1.63-1.68,2.44c-0.59,0.29-1.17,0.59-1.76,0.88c-1.03,0.67-2.31,1.58-2.89,2.68c-1.82,3.45-1.77,8.43-2.39,12.28    c-0.58,3.61-2.11,6.89-3.11,10.41c-0.19,0.88-0.37,1.77-0.56,2.65c-0.33,0.94-0.66,1.87-0.99,2.81c-0.13,0.41-0.72,1.63-0.62,1.89    c-1.86,0.98-3.72,1.96-5.57,2.93c-1.27,0.2-2.54,0.39-3.81,0.59c-2.09-0.06-4.12-0.01-6.15,0.48c-0.64,0.18-1.28,0.37-1.92,0.55    c-0.59,0-1.17,0-1.76,0c-0.66-0.66-3.14-1-4.08-1.13c-3.53-0.52-6.95-1.91-10.59-1.85c-1.32,0.12-2.64,0.23-3.96,0.34    c-0.54,0.15-1.08,0.29-1.61,0.44c-0.69,0.32-1.37,0.63-2.06,0.95c-1.22,0.8-2.44,1.61-3.66,2.42c-0.93,0.59-1.86,1.18-2.79,1.77    C321.6,391.41,321.28,392.31,320.95,392.08z"/>
            <circle cx="330.68" cy="340.77" r="1.586"/>
        </g>
        <g id="__İhsangazi">
            <path d="    M226.49,256.24c0.75,1.97,1.82,4.22,2.07,6.43c0.09,0.79-0.32,2.17,0.29,2.79c0.44,0.44,1.05,1.28,1.76,1.15    c0.64-0.24,1.27-0.47,1.91-0.71c0.19-0.63,1.75-1.4,2.38-1.09c0.48,0.36,0.96,0.72,1.44,1.09c1.03,0.1,2.05,0.2,3.08,0.29    c0.88,0.39,1.76,0.78,2.64,1.17c1.66,1.71,2.66,3.71,4.11,5.57c0.89,1.14,0.4,2.22,0.06,3.38c-0.14,0.47-0.21,1.6,0.16,1.98    c0.43,0.41,1.12,0.64,1.39,0.95c0.52,0.13,1.17,0.14,1.43,0.46c0.56,0.74,0.96,2,0.63,2.91c-0.21,0.4-0.42,0.8-0.63,1.2    c-0.16,0.77-0.07,1.58,0.08,2.35c0.08,0.42,0.48,2.24-0.03,2.36c-0.39,0.09-0.79,0.17-1.18,0.26c-0.55-0.08-0.91-0.29-1.47-0.29    c-0.34,0.1-0.68,0.2-1.03,0.29c-0.81,0.55-1.95,1.54-2.38,2.37c-1.35,2.59-0.34,7.25,0.33,9.95c0.2,0.8,1.16,1.79,1.17,2.49    c1.44,1.24,3.33,1.69,5.13,2.2c0.54,0.15,1.08,0.29,1.61,0.44c0.59,0.54,1.17,1.08,1.76,1.61c0.34,0.63,0.68,1.27,1.03,1.91    c0.12,1.89,0.7,3.65,0.58,5.56c-0.29,1.28-0.58,2.55-0.87,3.83c-0.53,0.53-2.05,2.11-1.82,2.95c0.05,0.38,0.1,0.76,0.14,1.14    c0.27,0.64,0.54,1.28,0.8,1.93c0.19,0.78,0.37,1.56,0.56,2.35c0.1,0.51,0.42,1.66,0.03,2.05c-0.74,0.17-1.47,0.35-2.21,0.52    c-1.9,0.45-4.12,0.88-5.71,1.97c-0.64,0.33-1.27,0.66-1.91,0.99c-1.85,1.78-5.49,4.07-8.08,4.36c-2.6,0.29-5.07,0.14-7.61-0.36    c-1.2-0.24-2.45-0.07-3.59-0.61c-1.3-0.82-2.6-1.64-3.89-2.47c-0.85-0.74-1.36-1.62-2.37-2.16c-1.61-0.87-3.58-1.56-5.4-1.95    c-1.13-0.15-2.25-0.29-3.37-0.44c-0.46,0.46-1.43,0.61-2.05,0.73c-0.39-0.1-0.78-0.2-1.17-0.29c-1.49-0.21-2.76-0.85-3.81-1.91    c-0.65,0-2.35-1.56-2.42-2.07c-0.04-0.31,0-0.64-0.22-0.87c0.05-0.29,0.1-0.59,0.15-0.88c0.39-0.54,0.78-1.08,1.17-1.61    c0.44-0.24,0.88-0.49,1.32-0.73c0.2-0.29,0.39-0.59,0.59-0.88c0.05-1.91,0.1-3.81,0.15-5.72c0.66-0.74,1.19-1.67,1.01-2.74    c0.03-0.1,0.06-0.21,0.09-0.31c-0.89-1.61-2.41-1.87-4.08-1.24c-0.27,0.45-1.54,1.04-2.09,0.9c-0.42-0.19-0.85-0.37-1.27-0.56    c-0.31-0.27-0.45-0.69-0.85-0.74c-0.27-1.17-0.46-2.18-0.66-3.38c-0.02-0.44-0.05-0.87-0.07-1.31c0.1-0.44,0.2-0.88,0.29-1.32    c0.15-0.29,0.29-0.59,0.44-0.88c0.49-0.64,0.98-1.27,1.47-1.91c0.22-0.82,0.43-1.65,0.65-2.47c0.12-0.23,0.22-0.64,0.52-0.6    c0.98,0.13,1.68,0.98,2.5,1.45c0.59,0.17,1.19,0.33,1.78,0.5c3,0.48,4.43-1.54,5.85-3.73c0.2-0.59,0.39-1.17,0.59-1.76    c-0.1-0.39-0.2-0.78-0.29-1.17c-0.54-0.34-1.08-0.69-1.61-1.03c-0.54-0.34-1.08-0.68-1.61-1.02c-0.15-0.54-0.29-1.08-0.44-1.61    c0.53-0.87,1.1-3.95,0.88-4.99c-0.39-1.47-0.78-2.93-1.17-4.4c-0.23-1.37,0.24-2.4,0.49-3.68c0.11-0.55,0.23-1.4,0.69-1.75    c0.33-1.69,0.58-2.46,1.38-4c0.76-1.45,1.82-2.45,3.26-3.24c0.44-0.24,1.02-0.71,1.51-0.68c0.39-0.2,0.78-0.39,1.17-0.59    c0.49-0.34,0.98-0.69,1.47-1.03c0.65-1.12,2.21-3.12,2.49-4.25c0.25-0.99-0.17-2.25,0.16-3.08c0.55,0,0.96-0.76,1.6-0.88    c0.3,0.3,0.94-0.06,1.32-0.15c0.3-0.07,0.66-0.04,0.88,0.15c0.38-0.12,0.75-0.24,1.13-0.36c0.67,0.24,0.85,0.02,1.51-0.23    c0.1,0,0.63,0,0.73,0c0.36-0.46,0.66-0.71,1.03-1.17C226.29,255.92,226.35,255.87,226.49,256.24z"/>
            <circle cx="225.55" cy="286.67" r="1.586"/>
        </g>
        <g id="__Şenpazar">
            <path d="    M134.82,136.21c0.48,0.38,1.53,0.64,2.09,0.21c0.75-0.23,1.56-0.12,2.31-0.35c0.78-0.47,1.01-1.42,1.91-1.76    c0.15,0.05,0.29,0.1,0.44,0.15c1.46-1.25,2.73-2.51,4.55-3.23c1.52-0.26,3.04-0.51,4.56-0.77c0.84-0.27,1.62-0.5,2.04-1.28    c1.3-0.81,1.86-0.9,4.25-0.73c0.37-0.72,1.08-0.7,1.61-0.44c0.5,0.12,1,0.24,1.5,0.35c1.01,0.24,2.33,0.12,3.33-0.07    c1.08,0.06,1.99-0.71,2.92-1.4c0.48-0.53,1.17-0.34,1.8-0.36c0.73-0.07,1.48,0.11,2.19,0.3c0.35,0,0.71,0.01,1.06,0.01    c0.28-0.09,0.56-0.18,0.84-0.27c0.63-0.12,0.13-2.32,0-2.81c0.17-0.34,0.41-0.54,0.59-0.88c1.16-0.77,1.77-2.03,2.05-3.37    c0-0.68,0-1.37,0-2.05c0.25-1.31,0.92-2.45,0.88-3.81c0.74-0.21,0.84-2.38,0.88-3.08c0.2-0.74,0.68-0.87,0.88-1.61    c0.18-0.28,0.16-1.16-0.15-1.32c-0.93-0.88-2.01-1.76-2.94-2.64c-1.31-1.31-2.1-3.1-1.48-4.46c0.48-1.05,2.37-2.38,3.25-3.17    c0.59-0.49,1.17-0.98,1.76-1.47c0.62-0.8,1.23-1.6,1.85-2.41c0.37-0.81,0.75-1.61,1.12-2.42c0.28-0.74,0.56-1.48,0.84-2.21    c0.16-0.24,1.03-0.44,0.73-0.47v0.03c-0.05-0.05-0.2-1.07-0.44-1.03c-0.78-0.73-1.42-1.03-2.25-1.79c-1.06-1.1-0.44-1-0.54-1.44    c0.07-0.1,0.13-0.39,0.1-0.46c0,0-0.31-0.04,0,0l-0.03,0.64l0.03-0.64c-0.31-0.04-0.49-0.21-0.69-0.27    c-0.45-0.14-0.79-0.3-1.61-0.44c-0.68,0.01-0.49-0.16-1.17-0.15c-1.89,3.14-3.62,4.41-5.3,5.54c-0.65,0.51-1.3,1.03-1.95,1.54    c-1.3,0.53-2.6,1.05-3.9,1.58c-0.86,0.24-1.72,0.48-2.58,0.71c-0.51,0.06-1.02,0.11-1.53,0.17c-2.09-0.07-3.92-0.36-6.01-0.29    c-0.15,0.15-0.59,0.15-0.73,0.29c-0.49,0.1-0.83,0.34-1.32,0.44c-0.7,0.27-2.08,0.31-2.54,0.94c-0.21,0.12-0.18,0.08-0.39,0.23    c-0.4,0.04-0.14,0.39-0.09,0.72c0.13,1,1.25,2.6,0.23,3.68c-0.45,0.42-1.02,0.9-1.47,1.32c-0.36,0.23-0.71,0.37-1.17,0.59    c-0.49,0-0.98,0.01-1.47,0.01c-0.42,0.05-0.62,0.02-1.32,0.13c-1.11,0.72-2.03,1.44-2.64,2.64c-0.18,0.35-0.48,0.6-0.73,1.03    c-0.39,0.34-0.78,0.68-1.17,1.03c-1.52,0.93-3.03,1.86-4.55,2.79c-1.94,0.16-3.26,1.16-4.55,0.73c-0.54,0.1-0.77,0.08-1.47,0.29    c-0.02,0.05-0.42,0.39-0.44,0.44c-0.14,0.56,0.02,0.88,0.15,1.47c0.49,1.37,0.98,2.74,1.47,4.11c0.4,0.43,0.5,0.92,0.59,1.17    c0.06,0.32,0.25,0.69,0.25,0.89c0.34,0.7,0.33,0.85,0.33,1.61c0.02,0.9-0.14,1.61-0.59,2.49c-0.21,0.41-0.55,1.01-0.73,1.17    c-0.1,0.29-0.2,0.59-0.29,0.88c0.05,0.49,0.1,0.98,0.15,1.47c0.24,0.73,0.49,1.47,0.73,2.2c-0.04,1.47-0.09,2.94-0.13,4.41    c0.03,0.91-0.13,2.22-0.75,2.93c-0.09,0.1-0.65,0.86-0.59,0.88c0.73,0.24,3.23,0.65,3.96,0.59c0.3,0.15,0.83,0.39,1.36,0.6    L134.82,136.21z"/>
            <circle cx="156.78" cy="113.08" r="1.586"/>
        </g>
        <g id="__Seydiler">
            <path d="    M233.1,176.55c0.34,0.88,0.68,1.76,1.03,2.64c0.06,0.48,0.12,0.95,0.17,1.43c0.19,0.7,0.37,1.39,0.56,2.09    c0.59,0.88,1.43,1.57,2.28,2.19c0.39,0.29,1.1,0.6,1.24,1.04c0.59,0.25,1.17,0.49,1.76,0.73c1.32-0.1,2.64-0.2,3.96-0.29    c0.73,0.13,1.47,0.25,2.2,0.38c0.55,0.05,2.83,0.33,3.08,0.65c0.98-0.39,1.96-0.78,2.93-1.17c1.27-0.15,2.54-0.3,3.81-0.44    c0.49-0.05,0.98-0.09,1.48-0.14c0.42-0.23,0.83-0.45,1.25-0.68c0.37-0.12,0.73-0.23,1.1-0.35c0.23,0.14,2.05,1.26,2.05,0.73    c0.04-1.34,0.09-2.67,0.13-4.01c0.32-0.09,0.59-0.4,0.78-0.3c0.33,0.16,0.66,0.33,0.99,0.49c0.61,0.56,0.94,0.96,1.77,1.04    c0.18,0.36,0.2,0.26,0.53,0.14c2.49-0.96,4.62-3.53,5.45-6.03c0.15-0.45,0.63-2.2,0.39-2.61c-0.9-1.6-3.89-2.73-3.94-4.44    c0.07-0.44,0.13-0.87,0.2-1.31c0.93-0.78,1.86-1.56,2.79-2.35c0.25-0.29,0.35-0.5,0.73-0.59c0.85-2.25,0.91-4.57,2.49-6.45    c0.37-0.44,1.73-1.48,2.64-1.76c0.25-0.43,0.61-0.63,0.88-1.03c-0.04-0.16-0.09-0.32-0.13-0.49c-0.53-1.21-1.5-2.03-2.51-2.89    c-0.33-0.28-0.46-0.73-0.88-0.88c-0.15-0.34-0.29-0.68-0.44-1.03c-0.05-0.49-0.1-0.98-0.15-1.47c0.08-1.26,0.36-2.86,1.03-3.96    c0.74-1.23,2.17-2.2,1.8-3.79c-0.44-1.74-1.48-3.11-2.47-4.62c-0.31-0.5-0.61-1-0.92-1.5c-1.13-0.74-2.24-0.86-3.55-0.66    c-0.54,0-1.08,0-1.61,0c-1.44-0.18-3.23-0.02-4.1,1.27c-0.28,0.42-0.48,0.62-0.29,1.11c0.94,2.15,2.91,3.06,2.78,5.67    c-0.02,0.46-0.03,0.93-0.05,1.39c-0.42,0.54-1.13,1-1.27,1.7c-0.33,0.21-1,0.4-1.17,0.73c-0.34,0.05-0.68,0.1-1.03,0.15    c-1.02-0.59-2.2-1.41-3.38-1.6c-0.92,0.01-1.85,0.02-2.77,0.02c-0.56-0.03-1.12-0.07-1.68-0.1c-0.76,1.13-1.43,2.05-2.43,3    c-0.32,0.09-0.64,0.19-0.97,0.28c-0.85,0.15-1.58,0.31-2.39,0.65c-0.54,0.23-1.09,0.46-1.63,0.68c-1.66,0.3-3.32,0.56-4.98,0.93    c-1.21,0.27-4.36-0.07-5.18,0.66c-0.28,0.25-0.17,0.85-0.07,1.17c0.37,1.04,0.81,2.16,0.84,3.26c0.01,0.47-0.31,0.89-0.15,1.32    c-0.54,0.88-1.08,1.76-1.61,2.64c0.02,0.31,0.04,0.63,0.06,0.94c0.53,0.49,1.62,2.22,2.29,2.29c0.17,0.38,0.17,0.45-0.15,1.03    c-1.05,0.55-2.09,1.06-2.28,2.21c-0.08,0.61-0.03,2.76,0.38,3.07c-0.29,0.68-0.59,1.37-0.88,2.05c-0.49,0.54-0.98,1.08-1.47,1.61    c-0.47,0.56-0.78,0.41-1.08,0.18l-0.23,0.15c0.14,0.57,0.17,1.22,0.16,1.76c-0.01,0.61-0.08,1.07-0.08,1.07L233.1,176.55z"/>
            <circle cx="260.24" cy="168.4" r="1.586"/>
        </g>
        <g id="__Ağlı">
            <path d="    M255.05,145.24c-0.76,1.13-1.43,2.05-2.43,3c-0.32,0.09-0.64,0.19-0.97,0.28c-0.85,0.15-1.58,0.31-2.39,0.65    c-0.54,0.23-1.09,0.46-1.63,0.68c-1.66,0.3-3.32,0.56-4.98,0.93c-1.21,0.27-4.36-0.07-5.18,0.66c-0.28,0.25-0.17,0.85-0.07,1.17    c0.37,1.04,0.81,2.16,0.84,3.26c0.01,0.47-0.31,0.89-0.15,1.32c-0.54,0.88-1.08,1.76-1.61,2.64c0.02,0.31,0.04,0.63,0.06,0.94    c0.53,0.49,1.62,2.22,2.29,2.29c0.17,0.38,0.17,0.45-0.15,1.03c-1.05,0.55-2.09,1.06-2.28,2.21c-0.08,0.61-0.03,2.76,0.38,3.07    c-0.29,0.68-0.59,1.37-0.88,2.05c-0.49,0.54-0.98,1.08-1.47,1.61c-0.47,0.56-0.78,0.41-1.08,0.18l-0.23,0.15l-0.43-0.9    c-0.73-0.68-2.12-2.07-2.65-2.65c-0.92-0.61-0.89-0.54-3.1-0.83c-1.49-0.2-3.24-0.38-4.67,0.26c-0.69,0.43-1.38,0.86-2.06,1.28    c-0.83,0.34-1.66,0.68-2.49,1.03c-0.39,0-0.78,0-1.17,0c-0.83-0.15-1.66-0.29-2.49-0.44c-0.57-0.28-1.14-0.55-1.71-0.83    c-1.62-0.91-3.3-1.67-5.05-2.26l-0.51-0.25c0.03-0.5,0.06-1,0.09-1.5c0.69-1.12,1.37-2.25,2.05-3.37c0.98-0.84,2.4-1.42,3.54-2.27    c0.42-0.52,0.86-0.96,1.3-1.4c0.68-0.78,1.37-1.56,2.05-2.35c0.31-1.02,0.61-2.12,1.37-2.9c1.97-2.03,2.63-2.74,2.11-5.46    c-0.11-0.6-0.19-1.54-0.61-1.99c-0.91-1.43-2.07-1.54-3.9-1.22c-1.09,0.95-4.27,2.54-5.69,1.99c-2.64-1.03-2.64-3.51-2.96-5.97    c0.29-0.3,0.58-0.6,0.87-0.91c0.22-0.01,0.44-0.02,0.66-0.04c0.42,0.49,0.96,0.43,0.96,1.09c0.13,0.09,0.22,0.54,0.15,0.73    c-0.22,0.81-0.89,1-0.88,1.91c-0.11,0.34-0.24,0.86-0.15,0.88c0.07,0.38,0.46,0.76,0.88,0.59c0.29-0.13,0.38-0.22,0.59-0.44    c0.26-0.63,0.33-1.42,0.59-2.06c0.64-1.19,1.38-0.86,1.91-1.32c-0.67-1.04-1.16-1.63,0.46-1.76c0.63-0.1,1.7,0.1,2.32,0    c-0.2,0,0.64,0,0.44,0c0.26-0.12,0.61-0.06,0.29-0.73c0.03-0.04-0.36-0.82-0.47-1.32c-0.14-0.59-0.29-2.5-0.11-2.94    c0-0.64-1.33-1.57-1.17-3.23c-0.27,0-0.29-0.77-0.29-1.03c0.42-0.73,1.25-1.78,1.17-2.64c0.54-0.25,1.05-0.53,1.03-1.17    c0-1.95-2.3-2.6-3.37-3.96c-0.71-0.9-0.51-1.59-0.44-2.64c0-0.29,0-0.59,0-0.88c-1.2-1.2-1.96-2.97-2.04-4.69    c-0.03-0.61-0.16-1.33,0.29-1.75c0.27-0.75,1.01-0.97,1.75-1.19c1.13-0.84,1.97-1.96,2.64-3.23c0.17-0.56,0.28-0.9,0.15-1.47    c0.29-0.59,0.58-1.18,0.87-1.77l0.73-1.08l0.31-0.09c0.7,0.28,0.76,0.3,1.32,0.44c0.05,0.05,0.68,0.24,0.73,0.29    c-0.29-0.05,0.59-0.1,0.29-0.15c-0.1-0.1,0.54,0.1,0.44,0c0.98,0.24,0.05,0.2,1.03,0.44c1.71,1.18,2.17,2.48,3.08,4.25    c0.8,0.25,1.09,1.23,1.32,1.91c-0.44,1.52-0.88,3.03-1.32,4.55c0.2,0.59,0.39,1.17,0.59,1.76c0.68,0.18,1.52,1.78,1.91,2.35    c0.39,0.49,0.78,0.98,1.17,1.47c0,1.57,0.36,2.36,1.03,3.81c-0.46,1.02,0.64,2.7,1.17,3.52c1.04,0.2,1.75-0.21,2.79-0.44    c0.2,0.33,0.63,0.29,1,0.38c0.89,0.22,1.78,0.43,2.67,0.65c0.16,0.33,0.71,0.4,1.03,0.59c0.99,0.58,1.87,1.14,2.95,1.56    c0.2,0.41,0.41,0.82,0.61,1.23c0.4,1.16,0.65,2.62,1.57,3.52c1.08,1.04,2.39,1.43,3.4,2.45c0.43,0.44,0.45,0.93,0.71,1.51    c0.43,0.11,0.72,0.57,1,0.9c0.36,0.42,1.88,1.71,2.37,1.88c0.39,0.2,0.78,0.39,1.17,0.59c0.4,0.13,0.8,0.26,1.2,0.39    c1.06,0.39,2.22,0.64,3.13,1.32L255.05,145.24z"/>
            <circle cx="226.01" cy="148.99" r="1.586"/>
        </g>
        <g id="__Küre">
            <path d="    M288.41,115.53c-1.41,0.67-1.51,2.92-1.93,4.24c-0.29,0.59-0.57,1.19-0.86,1.78c0.17,0.87,0.28,1.72,0,2.58    c-0.28,0.87-1.06,1.33-1.42,2.11c-0.21,0.55-0.41,1.1-0.62,1.65c-0.37,0.6-2.39,1.85-3.02,1.65c-0.95,0.76-1.91,1.51-2.86,2.27    c-1.31,0.86-2.63,1.72-3.95,2.59c-0.2,0.17-0.4,0.33-0.6,0.5l0.03,0.66c-1.13-0.74-2.24-0.86-3.55-0.66c-0.54,0-1.08,0-1.61,0    c-1.44-0.18-3.23-0.02-4.1,1.27c-0.28,0.42-0.48,0.62-0.29,1.11c0.94,2.15,2.91,3.06,2.78,5.67c-0.02,0.46-0.03,0.93-0.05,1.39    c-0.42,0.54-1.13,1-1.27,1.7c-0.33,0.21-1,0.4-1.17,0.73c-0.34,0.05-0.68,0.1-1.03,0.15c-1.02-0.59-2.2-1.41-3.38-1.6    c-0.92,0.01-1.85,0.02-2.77,0.02c-0.56-0.03-1.12-0.07-1.68-0.1l-0.46,0.15c-0.91-0.68-2.07-0.92-3.13-1.32    c-0.4-0.13-0.8-0.26-1.2-0.39c-0.39-0.2-0.78-0.39-1.17-0.59c-0.49-0.17-2.01-1.47-2.37-1.88c-0.29-0.33-0.58-0.79-1-0.9    c-0.25-0.58-0.27-1.07-0.71-1.51c-1.01-1.03-2.33-1.41-3.4-2.45c-0.92-0.89-1.17-2.35-1.57-3.52c-0.2-0.41-0.41-0.82-0.61-1.23    c-1.08-0.42-1.96-0.99-2.95-1.56c-0.32-0.19-0.86-0.25-1.03-0.59c-0.89-0.22-1.78-0.43-2.67-0.65c-0.37-0.09-0.8-0.05-1-0.38    c-1.04,0.23-1.75,0.64-2.79,0.44c-0.54-0.83-1.63-2.5-1.17-3.52c-0.67-1.45-1.03-2.25-1.03-3.81c-0.39-0.49-0.78-0.98-1.17-1.47    c-0.39-0.57-1.23-2.16-1.91-2.35c-0.2-0.59-0.39-1.17-0.59-1.76c0.44-1.52,0.88-3.03,1.32-4.55c-0.23-0.68-0.52-1.65-1.32-1.91    c-0.91-1.77-1.37-3.07-3.08-4.25c-0.98-0.24-0.05-0.2-1.03-0.44c0.1,0.1-0.54-0.1-0.44,0c0.29,0.05-0.59,0.1-0.29,0.15    c-0.05-0.05-0.68-0.24-0.73-0.29c-0.56-0.14-0.62-0.16-1.32-0.44l-0.31,0.09c0.35-0.52,0.7-1.04,1.05-1.55    c-0.23-0.23-0.18-0.57-0.2-0.88c-0.03-0.29-0.06-0.58-0.1-0.88c0.19-0.66,0.93-2.27,0.5-2.78c-0.62-0.71-1.68-1.08-2.55-1.33    c-0.24-0.15-0.49-0.29-0.73-0.44c-0.89-0.31-1.78-0.61-2.67-0.92c-0.43-0.12-1.52-0.13-2.17-0.55l-0.88,0.29    c0.78-0.29,1.56-0.59,2.35-0.88c0.63-0.14,1.41-0.41,2.05-0.73c1.26-0.3,2.74-1.64,3.81-2.2c0.06-0.24-0.02-0.33,0.04-0.56    l0.11,0.56c0.09-0.05,0.64-0.69,0.73-0.73c1.1-0.51,3.14-0.93,4.4-1.06c0.73-0.09,1.18-0.02,1.91-0.11    c0.49-0.49,1.81-2.35,2.05-3.08c0.29-0.25,0.59-0.48,0.88-0.73c1.72-0.28,3.27-0.6,4.99-0.88c0.77,0.02,1.55,0.05,2.32,0.07    c1.47-0.37,3.25-0.13,4.72-0.37c0.68,0.1,1.37,0.2,2.05,0.29c0.48-0.06,0.97-0.11,1.45-0.17c1.19-0.49,2.35-1.1,3.54-1.59    c0.3-0.08,1.41,0.09,1.46,0.15c0.83,0.91,1.55,1.75,2.21,2.79c0.45,0.71,2.35,2.4,2.2,3.23c0.29,0.44,0.59,1.03,0.88,1.47    c0.81,0.79,1.53,1.17,2.49,1.76c0.54,0.44,1.08,1.18,1.61,1.61c1.47,0.74,2.93,1.32,4.4,2.05c0.53,0.06,1.27,1.22,1.91,1.76    c1.17,0.78,2.35,1.57,3.52,2.35c0.39,0.28,0.79,0.41,1.18,0.69c0.39,0.12,0.78,0.37,1.16,0.49c0.34,0.14,0.68,0.15,1.03,0.29    c1.98,0.2,0.05,3.19,3.06,2.37c1.46-0.39,2.63-1.69,4.29-1.77c0.27,0.02,0.45-0.04,0.71-0.01c0.09-0.06,0.27-0.03,0.37-0.09    c0.31,0.28,0.75,0.9,1.1,0.97c0.29,0.67,0.89,1.46,1.03,2.2c0.51,1.02,0.86,2.04,1.37,3.06c0.17,0.34,0.44,1.34,0.68,1.78    c0.26,0.29,0.64,0.98,1.03,1.32c0.99,0.94,1.67,0.47,2.68,1.3c0.83,0.21,1.02,2.06,2.6,2.66H288.41z"/>
            <circle cx="259.17" cy="115.22" r="1.586"/>
        </g>
        <g id="__Devrekani">
            <path d="    M346.21,132.84c-0.02-0.58,0.07-1.53-0.44-1.76c-0.87-0.51-2.83-1.84-2.79-3.37c-0.02-0.31,0.02-0.88,0.15-0.88l-0.15,0.15    c-0.89-0.52-1.79-1.04-2.68-1.55c-0.57-0.22-1.15-0.43-1.72-0.65c-0.94-0.73-1.88-1.46-2.82-2.19c-1.33-1.17-1.62-3-3.19-3.97    c-0.86-0.48-1.72-0.95-2.58-1.43c-0.51-0.16-1.02-0.32-1.53-0.48c-0.74,0.11-1.47,0.22-2.21,0.33c-0.44-0.01-0.87-0.03-1.31-0.04    c-1.47,0.55-2.93,1.1-4.4,1.65c-1.01,0.33-2.2,1.3-3.34,0.85c-0.79-0.35-1.34-1.83-1.51-2.65c-0.55-0.47-0.62-1.57-0.74-2.21    c-0.19-0.88-0.39-1.75-0.58-2.63c0.07-0.64,0.14-1.27,0.2-1.91c0.13-0.98,0.26-1.96,0.38-2.93c-0.59-2.05-2.66-2.18-4.4-2.35    c-1.52-0.29-3.03-0.59-4.55-0.88c-0.77-0.93-1.54-1.86-2.31-2.8c-0.23-0.32-0.39-0.1-0.92-0.28c0,0.29-0.51,0.24-0.75,0.28    c-1.44,0.23-2.67,0.18-4.82,0.17c-0.45,0.29-0.26,1.11-0.21,1.59c0.12,1.19,0.89,2.23,1.43,3.28c0.49,1.1-0.85,2.7-1.37,3.77    c-0.81,1.68-1.96,3.56-3.52,4.69c-0.54,0.24-1.08,0.49-1.61,0.73c-1.25,0.24-2.35-0.37-3.52,0.15c-1.41,0.67-1.51,2.92-1.93,4.24    c-0.29,0.59-0.57,1.19-0.86,1.78c0.17,0.87,0.28,1.72,0,2.58c-0.28,0.87-1.06,1.33-1.42,2.11c-0.21,0.55-0.41,1.1-0.62,1.65    c-0.37,0.6-2.39,1.85-3.02,1.65c-0.95,0.76-1.91,1.51-2.86,2.27c-1.31,0.86-2.63,1.72-3.95,2.59c-0.2,0.17-0.4,0.33-0.6,0.5    l0.03,0.66c0.31,0.5,0.61,1,0.92,1.5c0.98,1.5,2.03,2.87,2.47,4.62c0.37,1.59-1.06,2.55-1.8,3.79c-0.66,1.1-0.95,2.7-1.03,3.96    c0.05,0.49,0.1,0.98,0.15,1.47c0.15,0.34,0.29,0.69,0.44,1.03c0.42,0.15,0.55,0.6,0.88,0.88c1.01,0.86,1.98,1.68,2.51,2.89    c0.04,0.16,0.09,0.32,0.13,0.49c-0.27,0.39-0.63,0.6-0.88,1.03c-0.91,0.28-2.27,1.32-2.64,1.76c-1.59,1.89-1.64,4.2-2.49,6.45    c-0.38,0.09-0.49,0.3-0.73,0.59c-0.93,0.78-1.86,1.56-2.79,2.35c-0.07,0.44-0.13,0.87-0.2,1.31c0.06,1.71,3.04,2.83,3.94,4.44    c0.24,0.41-0.24,2.15-0.39,2.61c-0.83,2.5-2.97,5.08-5.45,6.03c-0.33,0.12-0.35,0.22-0.53-0.14c-0.84-0.08-1.16-0.49-1.77-1.04    c-0.33-0.16-0.66-0.33-0.99-0.49c-0.19-0.1-0.46,0.21-0.78,0.3c-0.04,1.34-0.09,2.67-0.13,4.01l0.03,0.08    c0.05,1.71,0.58,3.4,1.95,4.54c0.33-0.08,0.66-0.17,0.99-0.25c0.87-0.14,1.74-0.27,2.61-0.41c0.23,0.4,1.13,0.52,1.56,0.82    c0.55,0.51,1.11,1.02,1.66,1.53c0.54,0.15,1.08,0.29,1.61,0.44c1.6-0.03,3.21-0.07,4.81-0.1c1.38,0.77,2.76,1.53,4.14,2.3    c0.44-0.29,1.67,0.04,2.2,0.15c2.34-0.12,4.68-0.24,7.02-0.37c0.92-0.24,3.31-0.89,3.84-1.69c0.54-0.82,0.79-1.59,1.17-2.49    c0.47-0.13,0.83-0.69,1.17-1.03c0.39-0.15,0.77-0.31,1.16-0.46c1.49-0.69,3.11-1.44,4.41-0.13c1.03,0,2-1.3,2.79-1.91    c1.04-0.3,2.07-0.61,3.11-0.91c1.94-0.53,3.89-1.05,5.84-1.58c1.67-0.79,3.33-1.42,5.13-1.91c0.44-0.29,0.88-0.59,1.32-0.88    c0.34-0.4,0.68-0.8,1.02-1.21c0.79-0.92,1.57-1.84,2.36-2.76c1.02-0.18,2.02-1.05,2.64-1.91c0.47-0.81,0.94-1.62,1.4-2.43    c0.46-0.32,0.92-0.63,1.38-0.95c0.45-0.48,0.9-0.97,1.34-1.45c0.29-0.37,0.07-1.15-0.06-1.58c-0.28-0.96-0.84-4.15-1.43-4.75    c0.15-0.68,0.29-1.37,0.44-2.05c0.49-0.49,0.98-0.98,1.47-1.47c1.67-0.66,2.99-1.88,4.69-2.49c0.4-0.42,0.8-0.84,1.21-1.27    c1.01-1.21,1.91-2.45,3.34-3.28c0.83-0.93,1.66-1.86,2.49-2.79c0.5-0.29,0.99-0.57,1.49-0.86c0.99-0.87,0.83-0.83,0.72-2.07    c0.85-0.8,0.58-2.63,0.48-3.67c0.03-0.73,0.07-1.47,0.1-2.2c-0.5-0.73-0.24-2.49-0.29-3.38c-0.1-0.73-0.2-1.46-0.3-2.19    c0.01-0.87,0.65-1.56,0.88-2.35C346.02,133.65,346.21,132.84,346.21,132.84z"/>
            <circle cx="285.91" cy="172.22" r="1.586"/>
        </g>
        <g id="__Azdavay">
            <path d="    M172.94,100.5c-0.63,1.36,0.17,3.15,1.48,4.46c0.93,0.88,2.01,1.76,2.94,2.64c0.31,0.16,0.32,1.04,0.15,1.32    c-0.2,0.74-0.68,0.87-0.88,1.61c-0.04,0.7-0.14,2.88-0.88,3.08c0.04,1.37-0.63,2.5-0.88,3.81c0,0.68,0,1.37,0,2.05    c-0.28,1.35-0.9,2.6-2.05,3.37c-0.17,0.34-0.41,0.54-0.59,0.88c0.13,0.5,0.63,2.7,0,2.81c-0.28,0.09-0.56,0.18-0.84,0.27    c-0.35,0-0.71-0.01-1.06-0.01c-0.7-0.19-1.46-0.37-2.19-0.3c-0.63,0.02-1.32-0.17-1.8,0.36c-0.93,0.69-1.83,1.46-2.92,1.4    c-1.01,0.19-2.32,0.31-3.33,0.07c-0.5-0.12-1-0.24-1.5-0.35c-0.53-0.26-1.25-0.28-1.61,0.44c-2.39-0.16-2.95-0.08-4.25,0.73    c-0.42,0.79-1.2,1.02-2.04,1.28c-1.52,0.26-3.04,0.51-4.56,0.77c-1.82,0.72-3.09,1.98-4.55,3.23c-0.15-0.05-0.29-0.1-0.44-0.15    c-0.9,0.34-1.13,1.29-1.91,1.76c-0.75,0.23-1.56,0.12-2.31,0.35c-0.56,0.44-1.61,0.17-2.09-0.21c-0.23,1.3,0.36,2.64,0.83,3.87    c0.11,0.37,0.23,0.74,0.34,1.11c0.01,0.74-0.09,1.43-0.35,2.03c0.24,0.68-0.48,2.52-0.82,3.1c-0.03,0.3-0.04,0.32,0.12,0.59    c0.01,0.39,0.34,0.62,0.61,0.88c1.5-0.21,3.02,0.65,2.49,1.47c0.28,2-1.17,3.46-1.64,4.69c-0.19,0.5-0.62,1.63,0.05,1.9    c0.81,0.33,0.72,0.49,1.45,0.31c0.21-0.05,0.25-0.28,0.29-0.44c0.13-0.34,0.22-0.41,0.29-0.59c0.17-0.4,0.42-0.77,0.59-1.17    c0.59-0.43,1.1-0.74,1.91-0.59c0.31,0.07,0.59,0.33,0.73,0.44c1.12,1.01,1.12,0.38,1.5,0.86c0.59-0.01,1.21-0.04,1.83-0.07    c0.96,0.24,1.64,1.05,2.54,1.27c0.34-0.1,0.68-0.2,1.03-0.29c0.54-0.11,1.08-0.45,1.61-0.17c0.46,0.2,0.94,0.5,1.43,0.92    c0.55,0.28,1.36,0.6,1.65,0.87c0.44-0.19,1.59,1.37,1.61,1.76c0.19,0.36,0.02,0.82,0,1.17c-0.05,0.29-0.1,0.59-0.15,0.88    c-0.29,0.16,0.03,1.3-0.29,1.17c-0.25,0.44-0.04,0.59-0.29,1.03c0.14,0.32-0.58,0.56-0.44,0.88c-1,1.41-2.04,2.42-2.61,4.13    c-0.58,0.48-1.02,1.28-0.72,2.31c0.12,0.63,0.63,0.88,0.91,1.44c0.27,0.54,0.22,1.46,0.66,1.81c-0.18,2.72,0.63,5.53,0,8.22    c-0.14,0.6-1.36,2.18-1.91,2.35c-0.63,1.21-1.55,1.62-2.64,2.35c-1.6,1.07-2.95,1.81-4.84,2.35c-0.21,0.18-0.23,0.19-0.59,0.29    c0.05,0.05,0.1,0.68,0.15,0.73c0.09,0.49-0.04,0.29,0.88,0.32c0.69,0.09,1.37,0.18,2.06,0.27c1.19-0.32,2.4-1.17,3.53-0.33    c0.44,0.16,0.72,0.32,1.16,0.48c0.66,0.84,1.28,1.17,1.47,1.17c1.28,0.66,2.39,0.86,3.78,1.27c0.69,0.2,1.67,0.54,2.38,0.35    c0.7,0.24,1.84,0.51,2.48,0.11c1.27-0.78,1.92-2.15,3.11-3.03c0.38-0.18,0.77-0.37,1.15-0.55c2.13-1.39,4.34-2.25,6.76-2.65    c0.73-0.26,1.46-0.51,2.2-0.77c1.51-0.08,3.02-0.16,4.52-0.24c1.41,0.8,2.31,1.96,4,2.31c0.3,0.06,1.32,0.12,1.45-0.01    c1.24-1.34,0.71-3.37,0.88-4.99c0.54-0.68,1.08-1.37,1.61-2.05c1.37-0.81,2.94-0.5,4.53-0.81c0.59-0.17,1.19-0.34,1.78-0.51    c0.29-0.15,0.59-0.29,0.88-0.44c0.62-0.91,0.62-1.53,2.14-2.61c1.82-1.29,4.61-1.42,6.67-1.9c1.36-0.32,4.16-0.82,4.91-1.9    c0.22-0.31,0.44-0.62,0.66-0.93c-0.2-0.71-0.21-3.31-0.44-3.81c0.05-0.83,0.1-1.66,0.15-2.49c0.69-1.12,1.37-2.25,2.05-3.37    c0.98-0.84,2.4-1.42,3.54-2.27c0.42-0.52,0.86-0.96,1.3-1.4c0.68-0.78,1.37-1.56,2.05-2.35c0.31-1.02,0.61-2.12,1.37-2.9    c1.97-2.03,2.63-2.74,2.11-5.46c-0.11-0.6-0.19-1.54-0.61-1.99c-0.91-1.43-2.07-1.54-3.9-1.22c-1.09,0.95-4.27,2.54-5.69,1.99    c-2.64-1.03-2.64-3.51-2.96-5.97c0.29-0.3,0.58-0.6,0.87-0.91c0.22-0.01,0.44-0.02,0.66-0.04c0.42,0.49,0.96,0.43,0.96,1.09    c0.13,0.09,0.22,0.54,0.15,0.73c-0.22,0.81-0.89,1-0.88,1.91c-0.11,0.34-0.24,0.86-0.15,0.88c0.07,0.38,0.46,0.76,0.88,0.59    c0.29-0.13,0.38-0.22,0.59-0.44c0.26-0.63,0.33-1.42,0.59-2.06c0.64-1.19,1.38-0.86,1.91-1.32c-0.67-1.04-1.16-1.63,0.46-1.76    c0.63-0.1,1.7,0.1,2.32,0c-0.2,0,0.64,0,0.44,0c0.26-0.12,0.61-0.06,0.29-0.73c0.03-0.04-0.36-0.82-0.47-1.32    c-0.14-0.59-0.29-2.5-0.11-2.94c0-0.64-1.33-1.57-1.17-3.23c-0.27,0-0.29-0.77-0.29-1.03c0.42-0.73,1.25-1.78,1.17-2.64    c0.54-0.25,1.05-0.53,1.03-1.17c0-1.95-2.3-2.6-3.37-3.96c-0.71-0.9-0.51-1.59-0.44-2.64c0-0.29,0-0.59,0-0.88    c-1.2-1.2-1.96-2.97-2.04-4.69c-0.03-0.61-0.16-1.33,0.29-1.75c0.27-0.75,1.01-0.97,1.75-1.19c1.13-0.84,1.97-1.96,2.64-3.23    c0.17-0.56,0.28-0.9,0.15-1.47c0.29-0.59,0.58-1.18,0.87-1.77c0.59-0.88,1.18-1.75,1.77-2.63c-0.23-0.23-0.18-0.57-0.2-0.88    c-0.03-0.29-0.06-0.58-0.1-0.88c0.19-0.66,0.93-2.27,0.5-2.78c-0.62-0.71-1.68-1.08-2.55-1.33c-0.24-0.15-0.49-0.29-0.73-0.44    c-0.89-0.31-1.78-0.61-2.67-0.92c-0.43-0.12-1.52-0.13-2.17-0.55c-0.8,0.39-2.37,0.12-2.93,0.44c-0.33-0.21-0.65-0.41-0.98-0.62    c-0.32-0.42-0.95-1.16-1.22-1.44c-1.23-0.6-2.89-1.51-4.25-1.61c-0.34-0.03-0.91-0.06-1.17,0.15c-0.59-0.15-1.17-0.29-1.76-0.44    c-1.7-0.43-3.19-1.23-4.99-1.31c-0.54-0.05-1.07-0.1-1.61-0.16c-1.17,0.29-2.35,0.59-3.52,0.88c-0.41,0.25-0.52,0.39-1.03,0.15    c-0.1-0.15-0.2-0.29-0.29-0.44c-0.68-1.23-1.94-2.05-2.79-2.23c0.29,0.03-0.57,0.24-0.73,0.47c-0.28,0.74-0.56,1.48-0.84,2.21    c-0.37,0.81-0.75,1.61-1.12,2.42c-0.62,0.8-1.23,1.6-1.85,2.41c-0.59,0.49-1.17,0.98-1.76,1.47    C175.3,98.12,173.42,99.45,172.94,100.5z"/>
            <circle cx="173.29" cy="161.67" r="1.586"/>
        </g>
        <g id="__Taşköprü">
            <path d="    M341.7,289.46c1.45-0.07,2.92,0.06,4.35,0.5c0.98,0.3,1.95,0.59,2.93,0.89c0.44,0.19,0.89,0.38,1.33,0.56    c1.08,0.1,2.15,0.2,3.23,0.29c0.69-0.1,1.38-0.2,2.07-0.3c0.83,0.05,1.65,0.1,2.48,0.16c1.99,0.54,3.98,1.08,5.96,1.61    c1.04,0.29,2.09,0.58,3.13,0.87c0.35,0.11,1.03,0.15,1.03,0.54l0.17-1.97c1.37-2.8,4.84-3.27,7.49-4.08    c0.92-0.31,1.83-0.62,2.75-0.93c1.22-0.93,2.45-1.86,3.67-2.79c0.67-0.96,1.44-1.69,1.91-2.79c0.29-1.02,0.58-2.04,0.88-3.06    c0.27-0.61,0.54-1.22,0.81-1.83c0.23-0.5,0.46-1.5,0.95-1.72c0-0.31,0.73-1.86,1.17-2.35c0.34-0.73,0.68-1.47,1.03-2.2    c0.38-1.48,1.16-3.83,2.21-5.01c0.78-1.02,1.56-2.04,2.34-3.06c0.68-0.34,1.37-0.69,2.05-1.03c0.68,0,1.35,0.01,2.03,0.01    c2.27,0.09,4.32,0.98,6.33,1.96c0.64,0.31,1.83,0.65,2.21,1.25c0.78,1.25,0.58,2.5,1.81,3.58c-0.08,0.33,0.65,0.4,0.92,0.18    c1.07-0.95,2.22-2.27,2.8-3.62c0.52-0.86,1.04-1.72,1.56-2.58c1.57-2.57,5.32-3.38,5.89-6.1c0.2-0.94-0.22-1.71-0.36-2.63    c-0.05-0.38-0.1-0.76-0.15-1.15c0.13-1,0.38-2.06,0.17-3.06c-0.26-1.19-1.21-2.85-0.9-3.98c0.48-1.77,1.42-3.62,2.62-5.01    c0.32-0.37,0.61-0.96,1.04-1.16c0.53-1.77,1.13-4.62,0.59-6.41c-0.98-3.24-3.25-5.52-4.87-8.41c-0.68-1.37-1.35-2.74-2.03-4.11    c0.11-3.42,1.88-5.83,0.73-9.39c-0.55-1.7-1.91-3.03-2.79-4.55c-0.3-0.77-0.84-1.53-0.55-2.35c-0.05-0.55-0.1-1.07,0.14-1.58    c0.61-1.51,1.4-2.17,2.46-2.67c0.19-0.16,0.92-0.34,0.83-0.56h0c-0.13-0.3-0.26-0.6-0.39-0.9c-0.2-0.24-0.39-0.49-0.59-0.73    c-0.46-0.21-0.93-0.42-1.39-0.63c-0.61-0.28-1.23-0.56-1.84-0.84c-1.76-1.26-3.41-1.82-4.99-3.37c-1.04-1.02-1.99-2.29-2.66-3.58    c-0.48-0.93-0.73-1.84-1.3-2.72c-0.71-1.1-1.44-2.07-2.05-3.24c-0.15-0.29-0.3-0.58-0.44-0.87c-0.24-1.16-0.74-2.34-1.35-3.37    c-0.8-1.36-1.23-2.78-2.17-4.12c-0.21-0.3-0.12-0.66-0.44-0.88c0.12-0.64,0.25-1.28,0.37-1.92c0.1-0.55-0.11-1.13,0.2-1.45    c0.61-0.63,2.2-1.54,2.23-2.5c-0.03-0.27-0.06-0.55-0.09-0.82c-0.27-0.26-0.53-0.52-0.8-0.78c-0.08-0.19-0.17-0.39-0.25-0.58    c-0.6-0.54-1.2-1.08-1.8-1.62c-0.96-1.38-1.93-2.76-2.89-4.14c-0.21-0.43-0.42-0.86-0.63-1.29c-0.6-0.48-1.21-0.96-1.81-1.43    c-0.32-0.3-0.98-0.88-0.98-1.35c-0.66-0.6-1.33-1.21-1.99-1.81c-0.43-0.5-1.52-2.08-1.38-2.74c-0.29-0.44-0.59-0.88-0.88-1.32    c0.03-0.58,0.06-1.17,0.1-1.75c-0.18-0.69-0.36-1.38-0.54-2.06c-0.25-0.25-0.72-1.14-0.7-1.32c0.19-1.15,1.32-2.15,2.07-3.02    c0.27-0.32,0.55-0.63,0.83-0.95c0.53-1.89,1.23-3.63,1.52-5.57c0.23-0.83,0.45-1.66,0.68-2.49c0-0.21,0.1-0.44-0.15-0.44    c0,0-2-0.68-3.23-1.03c-0.64,0-1.27,0-1.91,0c-1.03,0.54-2.05,1.08-3.08,1.61c-1.62,0.87-3.77,0.8-5.55,0.87    c-1.2,0.05-2.11-0.26-2.81-1.31c-0.21-0.23-0.24-0.5-0.44-0.73c-0.02-0.75-0.3-1.33-0.14-2.05c0.06-0.29,0.19-0.48,0.24-0.78    l0.05-0.24c-0.93-0.16-2.22-0.22-3.23-0.15c-0.67-0.16-2.58-0.19-3.08-0.44c-0.44-0.15-0.88-0.29-1.32-0.44    c-0.98,0.05-1.96,0.1-2.93,0.15c-0.73,0.34-1.47,0.68-2.2,1.03c-1.7,0.45-3.36,0.85-4.99,1.47c-0.58,0.22-2.13,0.95-2.79,1.03    c-1.21-0.59-2.51-0.3-3.81,0c-0.79,0.31-1.41,0.72-2.2,1.03l-0.29,1.17c-0.23,0.79-0.87,1.47-0.88,2.35    c0.1,0.73,0.2,1.46,0.3,2.19c0.05,0.9-0.21,2.65,0.29,3.38c-0.04,0.73-0.07,1.47-0.1,2.2c0.1,1.04,0.36,2.87-0.48,3.67    c0.12,1.24,0.27,1.2-0.72,2.07c-0.5,0.29-0.99,0.57-1.49,0.86c-0.83,0.93-1.66,1.86-2.49,2.79c-1.43,0.83-2.33,2.07-3.34,3.28    c-0.4,0.42-0.8,0.84-1.21,1.27c-1.71,0.61-3.03,1.84-4.69,2.49c-0.49,0.49-0.98,0.98-1.47,1.47c-0.15,0.68-0.29,1.37-0.44,2.05    c0.59,0.59,1.15,3.79,1.43,4.75c0.13,0.43,0.35,1.21,0.06,1.58c-0.45,0.48-0.9,0.97-1.34,1.45c-0.46,0.32-0.92,0.63-1.38,0.95    c-0.47,0.81-0.94,1.62-1.4,2.43c-0.62,0.85-1.62,1.73-2.64,1.91c-0.79,0.92-1.57,1.84-2.36,2.76c-0.34,0.4-0.68,0.8-1.02,1.21    c-0.44,0.29-0.88,0.59-1.32,0.88c-1.81,0.48-3.46,1.12-5.13,1.91c-1.95,0.53-3.89,1.05-5.84,1.58c-1.04,0.3-2.08,0.61-3.11,0.91    c-0.79,0.61-1.75,1.91-2.79,1.91l0.22,1.96c0.04,1.04,0.9,1.9,1.07,3.06c0.17,1.12,0.52,2.3,0.62,3.36    c0.25,2.75-1.1,4.21,1.41,6.23c1.44,1.16,3.76,2.73,5.47,3.09c2.27,0.47,4.43,1.38,6.88,1.39c0.79,0,1.58-0.32,2.41,0.02    c0.43,1.91-3.37,3.4-4.86,3.8c-1,0.27-2.64-0.21-3.51,0.45c-0.6,0.45-0.34,0.94-0.72,1.58c-0.29,0.48-0.91,0.76-1.23,1.06    c-1.56,1.46-2.83,3.13-4.01,4.86c-0.71,1.04-1.78,2.14-0.46,2.9c1.05,0.61,2.03,0.23,3.25,0.88c1.49,0.8,1.26,2.58,0.69,3.52    c-0.69,1.14-2.23,0.51-2.11,2.48c0.15,2.46,3.16,3.32,3.54,5.63c1.97,0.87,2.48,3.42,4.44,4.27c2.09,0.9,4.43,1.13,6.54,2.13    c2.03,0.96,4.24,2.04,6.1,3.07c1.97,1.09,2.9,2.99,4.89,4c1.2,0.61,2.39,1.21,3.64,1.7c0.4,0.87,1.26,1.46,1.74,2.24    c0.67,1.07,0.85,1.22,2.26,1.56c2.32,0.57,3.2-0.4,5.65-0.15c1.79,0.19,6.38,2.92,7.03,4.89c0.69,2.08-0.36,5.24-1.06,7.04    c-0.75,1.9-0.06,4.05-0.19,6.23c-1.54,1.38-2.97-0.89-4.67,0.52c-1.69,1.41-2.01,3.01-1.91,5.19c0.06,1.24,0.44,1.49-0.12,2.41    c-0.57,0.94-1.72,1.73-2.14,2.76c-0.73,1.79-0.28,4.54-1.38,6.1L341.7,289.46z"/>
            <circle cx="366.9" cy="199.88" r="1.586"/>
        </g>
        <g id="__Kastamonu">
            <path d="    M253.97,329.26c0.6,0.06,1.08-0.29,1.63-0.41c0.63-0.13,1.2-0.13,1.81-0.33c1.12-0.35,2.36-0.79,3.59-1    c1.53-1.12,2.31-1.11,3.79-1.5c1.5-0.4,2.97-0.65,4.46-1.04c2.84-0.75,5.8-2.04,8.43-2.78c2.71-0.76,5.63-1.4,7.77-1.46    c2.56-0.07,4.13-2.93,6.29-4.14c0.68-0.55,0.84-1.08,1.65-1.56c1.13-0.66,3.63-0.46,4.97-0.37c0.4,0.03,1.79,0.06,1.89-0.1    c0.35-0.53,0.7-1.07,1.05-1.6c0.02-0.12,0.04-0.23,0.06-0.35c0.32-0.37,0.65-0.73,0.98-1.1c1.76-1.12,4.33-2.12,6.46-1.61    c0.05,0.1,0.1,0.2,0.15,0.29c0.89,0.3,1.78,0.59,2.67,0.89c0.97,0.05,1.94,0.09,2.91,0.14c0.49,0.06,3.19-0.66,3.37-1.03    c0.49-0.2,1.18-0.29,1.47-0.73c1-0.42,2-0.84,2.99-1.27c1.06-0.51,2.12-1.46,2.44-2.62c0.11-0.85,0.22-1.69,0.33-2.54    c0.13-0.25,0.26-0.51,0.39-0.76c0.12-0.73,0.25-1.45,0.37-2.18c0.07-0.4,0.14-0.79,0.21-1.19c0.29-0.93,0.59-1.86,0.88-2.79    c1.02-1.39,2.07-2.61,3.72-3.24c0.17-0.5,0.59-0.82,0.97-1.16c1.81,0,3.2-0.8,4.88-1.3c1.65-0.49,3.39-0.87,5.13-0.95l0.14-0.95    c1.09-1.56,0.64-4.32,1.38-6.1c0.42-1.03,1.57-1.81,2.14-2.76c0.56-0.92,0.18-1.17,0.12-2.41c-0.11-2.18,0.21-3.78,1.91-5.19    c1.7-1.41,3.13,0.86,4.67-0.52c0.13-2.19-0.56-4.33,0.19-6.23c0.71-1.8,1.75-4.96,1.06-7.04c-0.65-1.97-5.24-4.7-7.03-4.89    c-2.46-0.25-3.33,0.72-5.65,0.15c-1.41-0.34-1.59-0.49-2.26-1.56c-0.48-0.77-1.34-1.36-1.74-2.24c-1.25-0.49-2.44-1.09-3.64-1.7    c-1.99-1.02-2.92-2.91-4.89-4c-1.86-1.03-4.07-2.11-6.1-3.07c-2.12-1-4.45-1.23-6.54-2.13c-1.96-0.85-2.47-3.4-4.44-4.27    c-0.38-2.31-3.39-3.17-3.54-5.63c-0.12-1.97,1.41-1.34,2.11-2.48c0.57-0.93,0.8-2.72-0.69-3.52c-1.22-0.66-2.21-0.28-3.25-0.88    c-1.32-0.76-0.26-1.86,0.46-2.9c1.18-1.73,2.44-3.39,4.01-4.86c0.33-0.31,0.95-0.58,1.23-1.06c0.38-0.64,0.12-1.12,0.72-1.58    c0.87-0.66,2.51-0.18,3.51-0.45c1.49-0.39,5.29-1.89,4.86-3.8c-0.83-0.33-1.62-0.02-2.41-0.02c-2.45-0.01-4.61-0.92-6.88-1.39    c-1.71-0.36-4.02-1.93-5.47-3.09c-2.51-2.02-1.16-3.48-1.41-6.23c-0.1-1.06-0.45-2.24-0.62-3.36c-0.17-1.15-1.03-2.02-1.07-3.06    l-0.22-1.96c-1.31-1.31-2.92-0.56-4.41,0.13c-0.39,0.15-0.77,0.31-1.16,0.46c-0.34,0.34-0.71,0.9-1.17,1.03    c-0.38,0.9-0.63,1.67-1.17,2.49c-0.53,0.8-2.92,1.45-3.84,1.69c-2.34,0.12-4.68,0.24-7.02,0.37c-0.53-0.1-1.76-0.44-2.2-0.15    c-1.38-0.77-2.76-1.53-4.14-2.3c-1.6,0.03-3.21,0.07-4.81,0.1c-0.54-0.15-1.08-0.29-1.61-0.44c-0.55-0.51-1.11-1.02-1.66-1.53    c-0.43-0.29-1.33-0.42-1.56-0.82c-0.87,0.14-1.74,0.27-2.61,0.41c-0.33,0.08-0.66,0.17-0.99,0.25c-1.37-1.14-1.9-2.83-1.95-4.54    l-0.03-0.08c0,0.53-1.82-0.59-2.05-0.73c-0.37,0.12-0.73,0.23-1.1,0.35c-0.42,0.23-0.83,0.45-1.25,0.68    c-0.49,0.05-0.98,0.09-1.48,0.14c-1.27,0.15-2.54,0.3-3.81,0.44c-0.98,0.39-1.96,0.78-2.93,1.17c-0.25-0.32-2.53-0.6-3.08-0.65    c-0.73-0.13-1.47-0.25-2.2-0.38c-1.32,0.1-2.64,0.2-3.96,0.29c-0.59-0.24-1.17-0.49-1.76-0.73c-0.15-0.44-0.85-0.75-1.24-1.04    c-0.85-0.62-1.69-1.31-2.28-2.19c-0.19-0.7-0.37-1.39-0.56-2.09c-0.06-0.48-0.12-0.95-0.17-1.43c-0.34-0.88-0.68-1.76-1.03-2.64    l0.09-0.36c-0.46-0.08-0.7-0.28-0.99-0.14c-0.72,0.36-1.45,0.72-2.17,1.09c-0.93,0.87-1.85,1.74-2.78,2.6    c-0.68,0.29-1.36,0.57-2.04,0.86c-0.94-0.38-1.78-0.82-2.8-1.03c-0.4-0.08-0.79-0.72-1.04-0.38c-0.08,0.02-0.21,0.42-0.29,0.44    c-0.27,2.01-0.54,4.01-0.81,6.02c-0.15,1.17-0.25,2.48-0.88,3.48c0.05,0.27-0.52,1.36-0.81,1.79c0,1,0.17,1.62,0.88,2.35    c0.32,0.08,0.64,0.16,0.95,0.24c0.71-0.29,1.55-0.72,2.42-0.97c0.41-0.12,1.05-0.59,1.31-0.57c1.11,0.12,1.72,0.47,2.48,1.31    c0.42-0.01,1.56,1.07,1.79,1.46c0.72,0.32,1.36,0.7,1.87,1.29c0.71,0.12,0.81,1.2,1.5,1.21c-0.03,0.14-0.06,0.28-0.09,0.41    c-0.07,0.3,0.16,0.28-0.11,0.51c-0.26,0.21-0.35,0.18-0.38,0.54c-0.49,0.16-1.53,0.43-1.64,1.03c0.03,0.37,0.06,0.75,0.09,1.12    c0.2,0.27,0.35,0.32,0.23,0.64c1.63,0.49,3.1,1.27,4.84,1.17c0.64-0.04,1.58,0.87,2.05,0.59c0.03,0.11,0.07,0.23,0.1,0.34    c0.04,0.26,0.08,0.53,0.11,0.79c-0.97,1.4-2.45,2.19-3.59,3.39c-0.59,0.59-1.17,1.19-1.76,1.78c-0.57,0.82-1.76,2.31-1.47,3.37    c-0.13,0.38-0.38,0.84-0.15,1.17c-0.49,0.64-0.98,1.27-1.47,1.91c-1.58,1.15-3.13,2.29-4.37,3.84c-0.11,0.38-0.22,0.77-0.33,1.15    c0.15,0.24,0.29,0.49,0.44,0.73c0.06,0.64-0.18,1.39-0.42,1.97c0.23,0.43-0.05,1.19-0.06,1.7c0.01,0.78,0.02,1.57,0.04,2.35    c0.31,1.17,0.81,1.88,0.73,3.08c-0.03,0.45,0.32,0.81,0.19,1.11c-0.26,0.51-0.52,1.02-0.78,1.53c-0.29,0.29-0.59,0.59-0.88,0.88    c-0.39,0.24-0.78,0.49-1.17,0.73c-1.97,0-3.56-0.01-5.15,1.14c-0.4,0.29-0.72,0.41-0.84,0.9c-0.13,0.66-0.27,1.33-0.4,1.99    c0.03,0.22,0.06,0.44,0.09,0.67c-0.31,1.5-1.28,3.38-2.27,4.43c-0.53,0.56-0.88,1.7-1.8,1.5l0.26,0.37c0,0.05,0,0.1,0,0.15    c1.15,1.23,0.62,3.21,0.71,4.7c0.01,0.24,0.02,0.49,0.02,0.73c0.06,0.77,0.23,0.81,0.59,0.44c0.69,0.01,1.36-0.75,1.76-1.03    c0.46-0.47,0.92-0.94,1.38-1.41c0.32-0.31,0.65-0.62,0.97-0.94c1.29-0.78,2.01-1.66,3.67-1.76c0.15,0.05,0.29,0.1,0.44,0.15    c1.15,2.18,3.14,3.93,4.55,6.01c-0.21,0.32-0.05,0.93-0.01,1.32c0,0.34,0.01,0.69,0.01,1.03v0.44c0.37,0,0.43-0.04,0.57,0.32    c0.75,1.97,1.82,4.22,2.07,6.43c0.09,0.79-0.32,2.17,0.29,2.79c0.44,0.44,1.05,1.28,1.76,1.15c0.64-0.24,1.27-0.47,1.91-0.71    c0.19-0.63,1.75-1.4,2.38-1.09c0.48,0.36,0.96,0.72,1.44,1.09c1.03,0.1,2.05,0.2,3.08,0.29c0.88,0.39,1.76,0.78,2.64,1.17    c1.66,1.71,2.66,3.71,4.11,5.57c0.89,1.14,0.4,2.22,0.06,3.38c-0.14,0.47-0.21,1.6,0.16,1.98c0.43,0.41,1.12,0.64,1.39,0.95    c0.52,0.13,1.17,0.14,1.43,0.46c0.56,0.74,0.96,2,0.63,2.91c-0.21,0.4-0.42,0.8-0.63,1.2c-0.16,0.77-0.07,1.58,0.08,2.35    c0.08,0.42,0.48,2.24-0.03,2.36c-0.39,0.09-0.79,0.17-1.18,0.26c-0.55-0.08-0.91-0.29-1.47-0.29c-0.34,0.1-0.68,0.2-1.03,0.29    c-0.81,0.55-1.95,1.54-2.38,2.37c-1.35,2.59-0.34,7.25,0.33,9.95c0.2,0.8,1.16,1.79,1.17,2.49c1.44,1.24,3.33,1.69,5.13,2.2    c0.54,0.15,1.08,0.29,1.61,0.44c0.59,0.54,1.17,1.08,1.76,1.61c0.34,0.63,0.68,1.27,1.03,1.91c0.12,1.89,0.7,3.65,0.58,5.56    c-0.29,1.28-0.58,2.55-0.87,3.83c-0.53,0.53-2.05,2.11-1.82,2.95c0.05,0.38,0.1,0.76,0.14,1.14c0.27,0.64,0.54,1.28,0.8,1.93    c0.19,0.78,0.37,1.56,0.56,2.35c0.1,0.51,0.42,1.66,0.03,2.05L253.97,329.26z"/>
            <circle cx="273.99" cy="234.11" r="1.586"/>
        </g>
        <g id="__Pınarbaşı">
            <path d="    M129,203.58c0.47-0.67,0.73-1.5,1.19-2.17c0.98-1.46,2.27-2.41,3.25-3.93c1.19-1.84,2.69-3.42,4.24-4.78    c1.42-1.24,1.99-2.25,3.82-3.06l0.5-0.32c0.36-0.1,0.37-0.11,0.59-0.29c1.89-0.54,3.24-1.28,4.84-2.35    c1.09-0.72,2.01-1.13,2.64-2.35c0.54-0.17,1.77-1.75,1.91-2.35c0.63-2.68-0.18-5.5,0-8.22c-0.44-0.34-0.39-1.27-0.66-1.81    c-0.28-0.56-0.79-0.81-0.91-1.44c-0.3-1.03,0.14-1.83,0.72-2.31c0.57-1.7,1.61-2.71,2.61-4.13c-0.14-0.32,0.58-0.56,0.44-0.88    c0.25-0.44,0.04-0.59,0.29-1.03c0.32,0.12,0-1.01,0.29-1.17c0.05-0.29,0.1-0.59,0.15-0.88c0.02-0.35,0.19-0.81,0-1.17    c-0.02-0.39-1.17-1.95-1.61-1.76c-0.29-0.27-1.09-0.58-1.65-0.87c-0.49-0.42-0.97-0.71-1.43-0.92c-0.53-0.28-1.08,0.06-1.61,0.17    c-0.34,0.1-0.68,0.2-1.03,0.29c-0.91-0.22-1.59-1.03-2.54-1.27c-0.62,0.03-1.24,0.06-1.83,0.07c-0.38-0.47-0.38,0.15-1.5-0.86    c-0.15-0.11-0.42-0.37-0.73-0.44c-0.81-0.15-1.31,0.15-1.91,0.59c-0.17,0.4-0.42,0.77-0.59,1.17c-0.07,0.18-0.16,0.25-0.29,0.59    c-0.04,0.16-0.08,0.39-0.29,0.44c-0.73,0.18-0.64,0.02-1.45-0.31c-0.67-0.28-0.24-1.4-0.05-1.9c0.47-1.22,1.92-2.68,1.64-4.69    c0.53-0.82-1-1.68-2.49-1.47c-0.27-0.26-0.6-0.49-0.61-0.88c-0.17-0.27-0.16-0.29-0.12-0.59c0.34-0.58,1.06-2.42,0.82-3.1    c0.26-0.6,0.36-1.29,0.35-2.03c-0.11-0.37-0.23-0.74-0.34-1.11c-0.48-1.23-1.07-2.58-0.83-3.87l-0.11,0.02    c-0.52-0.21-1.06-0.45-1.36-0.6c-0.73,0.06-3.23-0.35-3.96-0.59l-0.18-0.08c-1.36-0.54-2.65-1.26-3.5-1.82    c-0.78-0.54-1.56-1.08-2.34-1.62c-0.34-0.34-0.68-0.68-1.03-1.03c-0.61-0.45-1.23-0.91-1.84-1.36c-1.19-0.72-2.39-1.44-3.59-2.16    c-0.73-0.2-1.47-0.39-2.2-0.59c-0.26-0.29-0.51-0.57-0.77-0.86c-0.38-0.4-0.76-0.79-1.14-1.19c-0.64-0.19-1.29-0.38-1.93-0.57    c-0.43,0.04-0.87,0.09-1.3,0.13c-0.39-0.05-0.78-0.1-1.17-0.15c-3.31,0.44-6.24,1.67-9.4,2.76c-1.44,0.5-3.08,0.34-4.39,1.21    c-0.88,0.58-1.96,1.02-2.98,1.27c-0.55,0.15-1.1,0.3-1.65,0.44c-0.59,0.29-0.93,0.99-1.38,1.51c0.44,0.54,0.44,0.78,0.88,1.32    c0.38,0.54,0.76,1.09,1.14,1.63c0.63,0.98,0.91,1.91,1.06,3.06c0,0.64,0,1.27,0,1.91c-0.22,0.99-0.93,1.61-1.32,2.49    c-0.25,0.59-0.49,1.17-0.73,1.76c-0.06,0.54-0.12,1.08-0.18,1.62c-0.18,0.88-0.37,1.75-0.55,2.63c-0.29,0.68-0.59,1.37-0.88,2.05    c-0.2,1.27-0.39,2.54-0.59,3.81c-0.2,0.49-0.39,0.98-0.59,1.47c-0.2,0.73-0.39,1.47-0.59,2.2c0,0.83,0,1.67,0,2.5    c0,1.86,0.66,3.67,0.29,5.57c-0.54,0.99-1.07,1.98-1.61,2.98c-0.95,1.23-2.17,2.19-3.09,3.48c-0.41,0-1.16,1.23-1.32,1.61    c-0.37,0.88-0.43,1.91-0.54,2.79c-0.25,1.92,2.08,2.92,3.33,3.81c0.29,0.53,0.59,1.07,0.88,1.6c0.72,1.45,0.41,2.38,1.68,3.6    c0.56,0.12,1.13,0.24,1.69,0.37c0.29-0.05,0.59-0.1,0.88-0.15c0.87,0.01,1.64-0.01,2.49-0.15c0.52-0.5,1.33-0.62,1.76-1.32    c0.73-0.78,1.47-1.56,2.2-2.35c0.85-1.17,1.96-1.97,3.23-2.64c0.64,0.05,1.27,0.1,1.91,0.15c1.14,0.23,3.77,0.68,4.69,1.32    c1.49,1.04,1.68,2.97,3.32,4.12c0.56,0.38,0.89-0.21,1.3-0.44c1.1-0.64,1.84-2.15,3.15-2.5c0.64,0.03,1.27,0.06,1.91,0.09    c1.7,0.15,2.65-0.08,4.14,1.13c0.37,0.25,0.39,1.03,0.41,1.42c0.04,1.14-0.76,2.24-0.94,3.62c0.23,0.62,0.54,1.19,0.86,1.71    c1.84,1.89,1.97,4.72,1.55,7.73c-0.2,0.88-0.39,1.76-0.59,2.64c-0.69,1.12-1.17,3.07-0.99,4.36c0.11,0.68,1.28,1.42,1.95,1.76    c1.95,0.96,4.09,1,6.23,1.07c0.26,0,0.67-0.09,0.76-0.38l-0.28,0.19C127.52,206.59,127.94,205.08,129,203.58z"/>
            <circle cx="130.81" cy="173.14" r="1.586"/>
        </g>
    </g>
</svg>