<?xml version="1.0" encoding="UTF-8"?>
<!DOCTYPE svg PUBLIC "-//W3C//DTD SVG 1.1//EN" "http://www.w3.org/Graphics/SVG/1.1/DTD/svg11.dtd">
<svg version="1.1" id="HaritaCizim" xmlns="http://www.w3.org/2000/svg" xmlns:xlink="http://www.w3.org/1999/xlink" x="0px" y="0px" viewBox="0 0 500 500" preserveAspectRatio="none">
    <defs id="__def">
        <radialGradient id="f">
            <stop offset="0" stop-color="white" stop-opacity="1"/>
            <stop id="STOP1" offset=".4" stop-opacity="1"/>
            <stop offset="1" stop-color="white" stop-opacity=".2"/>
        </radialGradient>
        <filter id="__flt1" x="0" y="0" width="200%" height="200%" filterUnits="objectBoundingBox">
            <feGaussianBlur in="SourceAlpha" stdDeviation="3" result="blur1"/>
            <feSpecularLighting result="specOut" in="blur1" specularConstant="1.5" specularExponent="20" lighting-color="#bbbbbb">
                <feDistantLight azimuth="45" elevation="30"/>
            </feSpecularLighting>
            <feComposite in="specOut" in2="SourceAlpha" operator="in" result="specOut"/>
            <feComposite in="SourceGraphic" in2="specOut" operator="arithmetic" k1="0" k2="1" k3="1" k4="0"/>
        </filter>
        <filter id="__flt2" x="0" y="0" width="200%" height="200%" filterUnits="objectBoundingBox">
            <feGaussianBlur in="SourceAlpha" stdDeviation="3" result="blur1"/>
            <feSpecularLighting result="specOut" in="blur1" specularExponent="20" lighting-color="#bbbbbb">
                <fePointLight x="-2000" y="100" z="2000"/>
            </feSpecularLighting>
            <feComposite in="specOut" in2="SourceAlpha" operator="in" result="specOut"/>
            <feComposite in="SourceGraphic" in2="specOut" operator="arithmetic" k1="0" k2="1" k3="1" k4="0"/>
        </filter>
        <filter id="__flt3" x0="-50%" y0="-50%" width="200%" height="200%" filterUnits="objectBoundingBox">
            <feGaussianBlur in="SourceAlpha" stdDeviation="3" result="blur"/>
            <feOffset in="blur" dx="0" dy="0" result="offsetBlur"/>
            <feSpecularLighting in="blur" surfaceScale="4" specularConstant=".5" specularExponent="20" lighting-color="flavor" result="specOut">
                <fePointLight x="-5000" y="-10000" z="5000"/>
            </feSpecularLighting>
            <feComposite in="specOut" in2="SourceAlpha" operator="in" result="specOut"/>
            <feComposite in="SourceGraphic" in2="specOut" operator="arithmetic" k1="0" k2="1" k3="1" k4="0" result="litPaint"/>
            <feMerge>
                <feMergeNode in="offsetBlur"/>
                <feMergeNode in="litPaint"/>
            </feMerge>
        </filter>
        <filter id="__flt4" x0="-50%" y0="-50%" width="200%" height="200%">
            <feGaussianBlur in="SourceAlpha" stdDeviation="2" result="blur"/>
            <feOffset dy="-1" dx="-1"/>
            <feComposite in2="SourceAlpha" operator="arithmetic" k2="-1" k3="1" result="hlDiff"/>
            <feFlood flood-color="white" flood-opacity=".7"/>
            <feComposite in2="hlDiff" operator="in"/>
            <feComposite in2="SourceGraphic" operator="over" result="withGlow"/>
            <feOffset in="blur" dy="3" dx="3"/>
            <feComposite in2="SourceAlpha" operator="arithmetic" k2="-1" k3="1" result="shadowDiff"/>
            <feFlood flood-color="black" flood-opacity="1"/>
            <feComposite in2="shadowDiff" operator="in"/>
            <feComposite in2="withGlow" operator="over"/>
        </filter>
        <filter id="__golge1" x="0" y="0" width="200%" height="200%" filterUnits="userSpaceOnUse">
            <feOffset result="offOut" in="SourceAlpha" dx="8" dy="8"/>
            <feGaussianBlur result="blurOut" in="offOut" stdDeviation="3"/>
            <feBlend in="SourceGraphic" in2="blurOut" mode="normal"/>
        </filter>
    </defs>
    <g id="__Komsular" display="none">
        <radialGradient id="SVGID_1_" cx="244.4688" cy="107.3921" r="16.2463" gradientTransform="matrix(0.66 -0.7511 0.3755 0.33 42.7598 255.5551)" gradientUnits="userSpaceOnUse">
            <stop offset="0" style="stop-color:#FFFFFF"/>
            <stop offset="1" style="stop-color:#536AB2"/>
        </radialGradient>
        <path fill-rule="evenodd" clip-rule="evenodd" fill="url(#SVGID_1_)" stroke="#000000" stroke-width="0.25" stroke-miterlimit="10" d="   M250.14,100.12c-1.2-0.26-2.22-0.6-3.48-0.58c-0.75,0.05-1.49,0.09-2.23,0.14c-0.3,0.21-0.59,0.34-0.7,0.7   c-0.52,0.36-1.04,0.73-1.57,1.1c-0.26,0.19-0.49,0.57-0.81,0.58c-0.3,0.55-0.84,1.78-0.7,2.37c-0.71,0.92-1.42,1.84-2.13,2.76   c-0.79,1.16-0.82,2.35-1.08,3.66c-0.17,0.84-0.68,1.25-0.48,2.12c0.11,0.45,0.12,1.65,0.6,1.84c1.01,0.42,1.95,0.83,2.81,1.49   c0.4,0,1.1-0.11,1.4,0.14c0.6-0.19,1.21-0.37,1.82-0.56c0.45-0.12,1.41-0.06,1.71-0.47c0.03-0.35,0.07-0.71,0.1-1.06   c0.56-0.65,1.12-1.3,1.68-1.96c-0.09-0.28-0.19-0.56-0.28-0.84c0.48-0.48,1.65-0.95,1.35-1.81c-0.23-0.72-0.95-1.01-1.35-1.68   c0.44-0.21-0.1-0.43-0.14-1.08c0.14-0.01,0.28-0.03,0.42-0.04c0.15-0.19,0.3-0.37,0.45-0.56c0.05-0.29,0.03-0.49,0.25-0.7   c0-1.01,0.11-1.64,0.84-2.37c0.06-0.31,0.5-1.24,0.72-1.3c0.76-0.17,1.46,0.36,1.88-0.26c0.13-0.23,0.32,0.03,0.35-0.25   c0.05-0.14,0.09-0.28,0.14-0.43c-0.07-0.26-0.15-0.52-0.22-0.78c0.24-0.27,0.39-0.48,0.76-0.48c0.1,0,0.19,0.01,0.29,0.01   c0.1,0.42,0.4,1.22,0.14,1.54c0.11,0.05,0.23,0.09,0.34,0.14c0.12,0.05,0.24,0.09,0.36,0.14c0.88-0.74,1.43-1.14,2.51-1.4   c-0.34-0.16-0.65-0.16-0.4-0.53c0.04-0.34,0.08-0.67,0.12-1.01c-0.54,0.27-1.04,0.05-1.54-0.28c-0.05-0.19-0.09-0.37-0.14-0.56   c-0.46,0.01-0.92,0.02-1.38,0.03c-0.52-0.09,0.46-0.79-0.44-0.96c-0.11,0.01-0.22,0.02-0.32,0.03c-0.12,0.11-0.24,0.23-0.36,0.34   c0.25,0.34,0.14,0.51,0.56,0.7c-0.02,0.03-0.05,0.06-0.07,0.08c-0.21,0.16-0.42,0.32-0.63,0.48c-0.42,0.56-0.27,1.25-0.7,1.68   C250.42,100.2,250.28,100.16,250.14,100.12z"/>
        <radialGradient id="SVGID_2_" cx="123.9443" cy="264.3677" r="6.3609" gradientTransform="matrix(-0.5417 -0.8404 0.4202 -0.2709 79.9898 440.1022)" gradientUnits="userSpaceOnUse">
            <stop offset="0" style="stop-color:#FFFFFF"/>
            <stop offset="1" style="stop-color:#536AB2"/>
        </radialGradient>
        <path fill-rule="evenodd" clip-rule="evenodd" fill="url(#SVGID_2_)" stroke="#000000" stroke-width="0.25" stroke-miterlimit="10" d="   M119.4,258.47c-0.15,0.54-0.31,1.95-0.02,2.39c-0.06,0.13-0.11,0.26-0.17,0.39c0.3-0.07,0.59-0.13,0.89-0.2   c0.38,0.13,0.29,0.39,0.74,0.34c0.03,0.23,0.06,0.47,0.08,0.7c0.05,0.35-0.2,1.68-0.1,1.71c0.59,0.17,0.95,0.26,1.27,0.8   c0.85,0,1.68,1.15,2.03,1.87c0.12,0.26,0.23,0.52,0.34,0.78c0.08,0.56,0.17,1.12,0.25,1.68c0.24,0.18,0.49,0.37,0.73,0.55   c-0.08,0.27-0.04,1.35,0.39,1.01c0.31-0.28,1.42-0.41,1.42-1.01c-0.77-1.53-0.87-4.12-2.06-5.31c-0.21-0.75-0.29-1.24-1.06-1.59   c-0.34-0.74-0.05-1.02-0.91-1.59c-0.21-0.14-0.26-0.22-0.45-0.03c-0.19-0.14-0.37-0.28-0.56-0.42c-0.34-0.16-0.67-0.32-1.01-0.48   c-0.36-0.3-0.72-0.61-1.09-0.91C120.01,258.96,119.49,258.13,119.4,258.47z"/>
        <radialGradient id="SVGID_3_" cx="119.1021" cy="247.1123" r="7.9577" gradientTransform="matrix(0.3812 -0.9243 0.4622 0.1906 -40.5142 310.0797)" gradientUnits="userSpaceOnUse">
            <stop offset="0" style="stop-color:#FFFFFF"/>
            <stop offset="1" style="stop-color:#536AB2"/>
        </radialGradient>
        <path fill-rule="evenodd" clip-rule="evenodd" fill="url(#SVGID_3_)" stroke="#000000" stroke-width="0.25" stroke-miterlimit="10" d="   M120.3,240.39c0.77,0.34,1.52-0.07,1.95,0.69c0.09,0.07,0.18,0.13,0.27,0.2c0,0.28,0,0.56,0,0.84c0.21,0.47,0.57,0.78,0.64,1.26   c0.01,0.17,0.01,0.33,0.02,0.5c0.11,0.07,0.21,0.13,0.32,0.2c-0.02,0.02-0.05,0.04-0.07,0.07c-0.16,0.16-0.32,0.33-0.48,0.49   c-0.54,0.08-0.96-0.04-1.08,0.55c-0.16,0.95-0.31,1.89-0.47,2.84c-0.12,0.33-0.24,0.67-0.37,1c0.47,0.68,0.77,1.19,0.94,2.04   c-0.35,0.02-0.69,0.05-1.03,0.07c-0.17,0.21-0.33,0.42-0.5,0.63c0.27,0.15,0.54,0.29,0.81,0.44c-0.07,0.04-0.14,0.08-0.21,0.13   c-0.15,0.42-0.85-0.1-0.92,0.33c-0.03,0.26,0.05,0.17-0.25,0.36c0.14,0.05,0.27,0.11,0.41,0.16c0.31,0.2,0.3,0.14,0.27,0.53   c-0.04,0.3,0.29,0.15,0.02,0.42c-0.19,0.09-1.32,0.58-1.32,0.58c-0.2,0.54-0.65,1.44,0.07,1.8c-0.34-0.09-0.69-0.18-1.03-0.27   c-0.4-0.28-0.8-0.57-1.2-0.85c0.42,0.21,0.45-0.19,0.55-0.59c0.21-0.91,0.42-1.83,0.64-2.74c0.12-0.29,0.23-0.57,0.35-0.86   c-0.09-0.05-0.18-0.1-0.27-0.14c-0.31-0.14-1.41-0.47-1.41-0.05c-0.1,1.25-0.2,2.49-0.3,3.74c0.48,0.68,0.08,1.34-0.4,1.34   c0,0.21,0.1,0.54-0.14,0.59c-0.77,0.14-1.25,0.25-1.96-0.17c-0.3,0-1.2,0.13-1.27-0.41c-0.04-0.56-0.08-1.12-0.12-1.68   c0.4-0.58,0.79-1.16,1.19-1.74c-0.12-0.36,0.24-1.02,0.39-1.39c-0.13-0.66,1.54-2.95,2.05-3.3c-0.3,0-0.06-0.77-0.14-0.98   c0.55-1.25,0.52-2.59,0.7-3.91c0.02-0.26,0.03-0.53,0.05-0.79c-0.04-0.09-0.08-0.18-0.13-0.27c0.46-0.49,0.86-0.79,1.48-1.01   c0.19-0.06,0.55-0.29,0.55-0.03c0.25-0.21,0.98-0.51,0.98-0.84C120.01,240.24,120.15,240.31,120.3,240.39z"/>
        <radialGradient id="SVGID_4_" cx="156.937" cy="329.4976" r="2.8512" gradientTransform="matrix(0.9998 0 0 0.9998 7.324219e-003 7.812500e-003)" gradientUnits="userSpaceOnUse">
            <stop offset="0" style="stop-color:#FFFFFF"/>
            <stop offset="1" style="stop-color:#536AB2"/>
        </radialGradient>
        <path fill-rule="evenodd" clip-rule="evenodd" fill="url(#SVGID_4_)" stroke="#000000" stroke-width="0.25" stroke-miterlimit="10" d="   M156.74,325.98c0.39,0.1,2.26,0.18,2.19,0.46c-0.04,0.19-0.07,0.39-0.11,0.58c-0.11,0.14-0.21,0.28-0.32,0.42   c-0.13,0.57-0.04,1.62-0.52,1.96c0.22,0.46,0.97,1.97,0.78,2.34c-0.11,0.24-0.26,0.74-0.39,0.79c-0.67,0.14-1.34,0.29-2.02,0.43   c-0.66-0.49-1.07-1.1-1.24-1.92c-0.24-0.13-0.23-0.03-0.15-0.24c0.1-0.27,0.11-0.42,0.37-0.56c0.16-0.93,0.32-1.86,0.48-2.78   c0.06-0.27,0.02-1.14,0.07-1.15C156.32,326.19,156.34,325.88,156.74,325.98z"/>
        <radialGradient id="SVGID_5_" cx="107.0918" cy="331.3354" r="1.9577" gradientTransform="matrix(0.9998 0 0 0.9998 7.324219e-003 7.812500e-003)" gradientUnits="userSpaceOnUse">
            <stop offset="0" style="stop-color:#FFFFFF"/>
            <stop offset="1" style="stop-color:#536AB2"/>
        </radialGradient>
        <path fill-rule="evenodd" clip-rule="evenodd" fill="url(#SVGID_5_)" stroke="#000000" stroke-width="0.25" stroke-miterlimit="10" d="   M105.75,329.59c0.79-0.19,1.41,0.55,2.1,0.36c0.28,0.33,0.56,0.65,0.84,0.98c-0.38,0.96-0.89,2.12,0.14,2.93   c-0.95-0.39-1.55-0.92-2.23-1.68c-0.4-0.5-0.8-1-1.2-1.5C105.24,330.58,105.46,329.66,105.75,329.59z"/>
        <radialGradient id="SVGID_6_" cx="230.2495" cy="144.8062" r="3.5087" gradientTransform="matrix(0.9998 0 0 0.9998 7.324219e-003 7.812500e-003)" gradientUnits="userSpaceOnUse">
            <stop offset="0" style="stop-color:#FFFFFF"/>
            <stop offset="1" style="stop-color:#536AB2"/>
        </radialGradient>
        <path fill-rule="evenodd" clip-rule="evenodd" fill="url(#SVGID_6_)" stroke="#000000" stroke-width="0.25" stroke-miterlimit="10" d="   M227.77,141.92c-0.64,0.25-1.16,0.35-1.39,1.07c-0.07,0.1-0.13,0.21-0.2,0.31c1.03,0.94,1.7,0.75,2.75,1.39   c0.33,0.2,0.96,0.64,0.96,1.06c1.05,0.56,2.3,0.84,3.26,1.61c0.46-0.1,0.56,0.07,0.94,0.27c0.24,0.13,0.12-0.18,0.1-0.34   c-0.06-0.4-0.23-0.82-0.64-1.04c-0.69-0.42-1.54-0.76-2.03-1.5c-0.51,0.02-1.1-0.6-1.5-0.96c-0.65-0.59-0.86-1.12-1.68-1.12   C228.26,142.4,228.12,141.78,227.77,141.92z"/>
        <radialGradient id="SVGID_7_" cx="132.1196" cy="284.9355" r="17.0266" gradientTransform="matrix(-0.5351 -0.8446 0.4223 -0.2676 82.4794 472.7259)" gradientUnits="userSpaceOnUse">
            <stop offset="0" style="stop-color:#FFFFFF"/>
            <stop offset="1" style="stop-color:#536AB2"/>
        </radialGradient>
        <path fill-rule="evenodd" clip-rule="evenodd" fill="url(#SVGID_7_)" stroke="#000000" stroke-width="0.25" stroke-miterlimit="10" d="   M133.13,293.92c0,0-0.58-0.61-1.26-0.56c-0.28,0.05-0.56,0.09-0.84,0.14c-0.22-0.36-0.74-0.49-1.12-0.7   c-1.27,0-1.87-0.27-2.92-1.13c-0.91-0.75-0.48-2.49-0.29-3.47c-0.36-0.32-0.42-1.33-0.42-1.81c-0.62-0.62-0.73-1.19-1.12-1.96   c-0.19-0.19-0.37-0.37-0.56-0.56c0-0.51,0-1.02,0-1.54c-0.79-0.79-0.89-2.07-0.7-3.21c0.42-1.12,0.84-2.23,1.26-3.35   c0.28-1.16,0.74-2.39,1.71-3.16c0.49-0.39,0.67,0.45,0.8,0.93c0.6,0,1.09,0.66,1.4,1.12c0.51,0.25,0.83,0.28,1.4,0.28   c0.28,0.33,0.56,0.65,0.84,0.98c0.31,0.31,0.06,0.99,0,1.4c0.69,0.61-0.01,2.8-0.14,3.63c0.14,0.74,0.28,1.49,0.42,2.23   c0.28,0.33,0.56,0.65,0.84,0.98c0.53,0.53,1.1,0.08,1.88,0.77l-0.07-0.21c1.16,0.42,2.33,0.84,3.49,1.26   c0.33,0.28,0.65,0.56,0.98,0.84c0.35-0.35,0.91,0.63,1.12,0.84c0.23-0.14,0.47-0.28,0.7-0.42c0.07,0.11,0.15,0.21,0.22,0.32   c0.2,0.31,0.41,0.62,0.61,0.93c-0.02,0.43-0.03,0.99-0.41,1.26c0.08,0.29,0.39,1.29-0.14,1.12c0.07,0.02,0.13,0.04,0.2,0.05   c0.34,0.35,0.66,0.53,0.91,0.94c0.33,0.58-1.09,0.95-0.28,1.4c0.23,0.14,0.36,0.34,0.57,0.13c0.45-0.72,0.64-1.41,1.4-1.82   c0.33,0.05,0.65,0.09,0.98,0.14c-0.05,0.05-0.09,0.09-0.14,0.14c0.07,1.23-0.62,1.35-1.21,2.4c-0.15,0.46-0.31,0.92-0.46,1.38   c-0.15,0.36-0.27,1.09-0.69,1.13c-0.43,0.06-0.78-0.29-1.12-0.01c-0.81-0.74-1.48-2.02-2.54-2.28c-0.22-0.08-0.45-0.15-0.67-0.23   c-0.79,0.19-1.58,0.37-2.37,0.56C134.89,294.65,133.49,293.56,133.13,293.92z"/>
        <path fill-rule="evenodd" clip-rule="evenodd" fill="none" stroke="#000000" stroke-width="0.25" stroke-miterlimit="10" d="   M96.63,463.82c-0.7,0.07-1.46-0.19-2.23-0.19c-0.84,0-1.68,0-2.52,0c-1.81,0-3.22-0.06-4.82-0.67c-1.34-0.51-2.86-0.87-4.31-1.37   c-1.4-0.49-2.61-1.35-4-1.68c-1.14-0.27-1.76,0.15-2.42,0.75c-0.68,0.62-1.68,0.94-2.51,1.39c-0.81,0.45-1.53,1.7-2.31,1.19   c-0.48-0.32-1.17-1.78-1.34-2.39c-0.65-0.33-1.27-1.93-1.64-2.55c-0.55-0.93-0.74-1.87-0.87-2.94c-0.75-0.04-1.56,0.08-2.29-0.04   c-0.71-0.11-1.37-0.42-2.16-0.44c-1.67-0.06-2.99,0.52-4.56,0.65c-1.74,0.14-2.94-0.69-4.07,0.93c-0.87,1.25-1.52,2.55-2.61,3.65   c-0.46,0.47-0.93,1.06-1.16,1.64c-0.49,0.46-1.39,1.27-1.76,1.8c-0.53,0.76-0.5,1.54-0.74,2.4"/>
        <path fill-rule="evenodd" clip-rule="evenodd" fill="none" stroke="#000000" stroke-width="0.25" stroke-miterlimit="10" d="   M359.91,310.4c0,0.8,0.12,1.6,0,2.33c-0.12,0.67-0.38,1.35-0.49,2.05c-0.23,1.55-0.62,3.04-0.54,4.66   c0.03,0.68,0.17,1.47,0.02,2.16c-0.18,0.83-0.49,1.32-0.49,2.23c0,1.81,0.23,3.5,0.37,5.2c0.09,1.06,0.3,3.79-0.16,4.76   c-0.36,0.77-1.44,0.99-1.79,1.86c-0.3,0.73-0.58,1.23-1.06,1.85c-0.52,0.69-0.8,1.43-1.3,2.15c-0.54,0.78-1.24,0.95-1.82,1.65   c-1.1,1.33-1.74,3.29-1.7,5.05c0.03,1.33,0.77,2.21,0.64,3.61c-0.11,1.18-0.52,2.38-0.44,3.65c0.07,1.18,0.47,2.1,0.47,3.35   c0,1.35,0.55,2.28,0.64,3.53c-0.64,0.13-1.44-0.23-2.13-0.27c-0.76-0.04-1.56-0.04-2.33,0c-1.72,0.08-3.32,0.06-5.03-0.28   c-0.74-0.15-1.53-0.42-2.25-0.53c-0.96-0.16-1.65,0.37-2.49,0.63c-0.8,0.25-1.52,0.13-2.33,0.09c-1.26-0.07-1.16,0.14-1.61,1.1   c-0.19,0.4-0.6,0.66-0.82,1.02c-0.19,0.33-0.11,0.66-0.45,0.87c-0.17,0.99-0.24,2.21-0.57,3.13c-0.27,0.73-0.19,0.75-0.93,0.95   c-0.58,0.16-1.47-0.15-1.51,0.73c-1.36,0.36-1.37,1.32-1.85,2.36c-0.49,1.06-0.76,1.99-0.93,3.14c-0.19,1.27-0.36,3.14-1.21,4.15   c-0.7,0.83-1.41,1.22-1.49,2.46"/>
        <path fill-rule="evenodd" clip-rule="evenodd" fill="none" stroke="#000000" stroke-width="0.25" stroke-miterlimit="10" d="   M438.76,234.9c0.72,0.27,1.42,0.04,2.04-0.3c0.77-0.43,1.34-0.54,2.15-0.81c1.4-0.47,2.47-1.57,3.82-2.12   c0.77-0.32,1.24,0.09,1.97-0.12c0.77-0.22,1.74-0.68,2.5-1.02c1.46-0.66,2.58-1.61,3.98-2.54c1.62-1.07,2.89-0.91,4.77-0.91   c0.83,0,1.7,0.08,2.52,0c0.89-0.09,1.58-0.47,2.43-0.75c1.8-0.61,3.93-1.46,5.86-1.58c1.23-0.08,2,0.49,3.07,0.77   c1.19,0.31,2.02-0.09,3.07-0.51c1.58-0.63,3.1-0.56,4.75-0.79c1.65-0.23,3.12-1.01,4.75-1.14c1-0.08,1.51,0.13,2.42-0.26   c0.81-0.35,1.43-0.85,2.15-1.3c1.45-0.9,3.31-1.1,5.12-0.87c0.09,0.01,0.26,0.07,0.37,0.1"/>
        <path fill-rule="evenodd" clip-rule="evenodd" fill="none" stroke="#000000" stroke-width="0.25" stroke-miterlimit="10" d="   M248.56,34.75c0.7-0.6,0.43-1.31,0.37-2.14c-0.06-0.86,0.22-1.45,0.38-2.23c0.32-1.55-0.03-3.27,0.44-4.77   c0.88-2.8,1.93-5.7,3.17-8.36c1.06-2.29,2.7-4.28,3.3-6.77c0.27-1.13,0.12-2.43,0.17-3.65c0.05-1.34,0.56-2.53,0.74-3.82"/>
        <path fill-rule="evenodd" clip-rule="evenodd" fill="none" stroke="#000000" stroke-width="0.25" stroke-miterlimit="10" d="   M89.37,111.74c0.45-1.42-0.05-3.24-0.19-4.66c-0.14-1.41-0.29-3.15-0.93-4.38c-0.73-1.4-1.47-2.59-1.84-4.19   c-0.18-0.76-0.24-1.63-0.55-2.33c-0.35-0.78-1.04-1.24-1.5-1.95c-1.88-2.92-1.49-6.52-3-9.51c-1.31-2.59-1.95-5.4-2.44-8.27   c-0.27-1.6-1.27-2.79-1.75-4.28c-0.2-0.64-0.33-1.36-0.56-2.05c-0.26-0.8-0.96-1.34-1.31-2.04c-0.54-1.09-0.65-2.82-0.65-4.1   c0-0.79,0.15-1.55,0.09-2.33c-0.05-0.76-0.4-1.44-0.54-2.14c-0.29-1.5,0.07-3.17-0.4-4.66c-0.41-1.33-0.96-2.75-1.58-4.09   c-0.68-1.46-0.78-3.05-1.57-4.47c-0.7-1.27-1.74-2.58-2.72-3.63c-0.8-0.86-1.77-1.69-2.58-2.61c-1.48-1.68-2.79-4.04-4.88-5.19   c-1.36-0.75-3-1.19-4.45-1.76c-1.44-0.57-2.89-1.19-4.38-1.7"/>
        <path fill-rule="evenodd" clip-rule="evenodd" fill="none" stroke="#000000" stroke-width="0.25" stroke-miterlimit="10" d="   M58.74,282.66c-1.78,0-3.48-0.28-5.31-0.28c-1.52,0-3.09-0.04-4.63-0.11c-1.5-0.07-2.82,0.31-4.3,0.3   c-1.62-0.01-2.85,0.57-4.38,0.82c-1.44,0.24-3.11,0.32-4.56,0.39c-1.61,0.08-3,0.52-4.56,0.82c-1.49,0.29-2.79,0.41-4.37,0.49   c-1.64,0.08-3.12,0.93-4.66,1.37c-2.89,0.83-5.68,1.67-8.65,2.27c-1.68,0.34-3,0.53-4.57,1.13c-1.45,0.56-3.12,0.75-4.75,0.83   c-1.2,0.06-2.96,0.08-4-0.47"/>
        <text transform="matrix(0.2432 0.97 -0.97 0.2432 52.9565 360.481)" font-family="'MyriadPro-Regular'" font-size="12">NİĞDE</text>
        <text transform="matrix(0.6948 -0.7192 0.7192 0.6948 259.7207 395.0313)" font-family="'MyriadPro-Regular'" font-size="12">ADANA</text>
        <text transform="matrix(0.6291 -0.7773 0.7773 0.6291 411.6699 343.436)" font-family="'MyriadPro-Regular'" font-size="12">KAHRAMANMARAŞ</text>
        <text transform="matrix(1 0 0 1 343.1572 44.4727)" font-family="'MyriadPro-Regular'" font-size="12">SİVAS</text>
        <text transform="matrix(0.4386 -0.8987 0.8987 0.4386 489.5269 143.8452)" font-family="'MyriadPro-Regular'" font-size="12">SİVAS</text>
        <text transform="matrix(0.777 -0.6295 0.6295 0.777 149.166 58.3979)" font-family="'MyriadPro-Regular'" font-size="12">YOZGAT</text>
        <text transform="matrix(8.653373e-003 -1 1 8.653370e-003 38.1641 182.3193)" font-family="'MyriadPro-Regular'" font-size="12">NEVŞEHİR</text>
    </g>
    <g id="__Harita" fill="white" stroke="#000000" stroke-width="1" stroke-miterlimit="10" display="none">
        <rect id="__cer" x="0" y="0" fill="#000000" opacity="0" width="500" height="400"/>
        <g id="__Tomarza">
            <path d="    M254.9,217.54c-0.26,0.29-0.53,0.58-0.79,0.87c-0.57,0.71-3.51,0.91-4.49,1.06c-1.03,0.33-2.07,0.67-3.1,1    c-1.77,0.47-3.54,0.93-5.31,1.4c-0.28,0-0.56,0-0.84,0c-0.88,0.05-1.77,0.09-2.65,0.14c-0.33-0.05-0.65-0.09-0.98-0.14    c-0.89-0.11-1.74,0-2.51,0.42c-1.73,0.96-3.31,4.69-4.05,6.56c-0.99,1.53-1.98,3.06-2.96,4.59c-0.45,1-0.9,2-1.34,3.01    c-0.19,0.31-0.64,0.58-0.58,0.92c-0.05,0-0.1-0.01-0.14-0.01c-0.28-0.02-0.35-0.06-0.55,0.15c-0.23-0.05-0.47-0.09-0.7-0.14    c-0.88-0.6-1.5-1.38-2.09-2.23c-0.23-0.28-0.47-0.56-0.7-0.84c-0.7-0.42-1.4-0.84-2.09-1.26c-0.22,0.22-0.41,0.09-0.7,0.14    c-0.69,0.11-1.91,0.74-2.17,1.27c-0.19,0.41,0,1.03-0.34,1.38c0.05,0.23,0.09,0.47,0.14,0.7c0.33,0.54,0.82,1.08,0.63,1.66    c-0.07,0.33-0.14,0.66-0.21,0.99c-0.23,0.37-0.47,0.74-0.7,1.12c-0.27,0.28-0.74,0.58-0.7,0.98c-1.14,0.71-1.98,1.42-2.93,2.37    c-0.6-0.02-2.37,0.2-2.79,0.56c-0.44-0.01-1.75,0.26-2.09,0.56c-0.56,0.05-2.18,0.07-2.51,0.42c-0.65,0.04-1.78-0.06-2.23,0.42    c-0.79-0.21-1.67-0.55-2.5-0.46c-0.33,0.06-0.66,0.12-0.99,0.18c0.08,0.1,0.15,0.2,0.23,0.3c0.67,0.89,1.77,1.37,2.71,2.07    c1.05,1.03,2.1,2.06,3.15,3.09c0.63,0.5,1.25,1.01,1.88,1.51c0.37,0.23,0.75,0.47,1.12,0.7c0.37,0.37,0.74,0.74,1.12,1.12    c0.61,0.88,1.21,1.77,1.82,2.65c0.7,0.7,1.4,1.4,2.09,2.09c0.42,0.7,0.84,1.4,1.26,2.09c0.51,1.54,1.02,3.07,1.54,4.61    c0.03,0.88,0.07,1.77,0.1,2.65c0.03,0.33,0.11,0.87-0.1,1.12c0.43,1.3,0.2,2.73,0.38,4.04c0.17,1.21,0.67,2.37,1.06,3.49    c0.47,1.31,0.94,2.63,1.41,3.94c0.73,1.45,1.46,2.91,2.19,4.36c0.48,0.33,1.91,1.84,2.09,2.33c1.15,0.73,2.24,1.82,3.21,2.79    c0.6,1.16,1.21,2.33,1.82,3.49c1,1.08,2,2.17,3,3.25c0.23,0.77,2.03,2.43,2.8,2.81c3.28,1.62,6.9,1.97,10.28,3.26    c0.92,0.35,2.72,0.58,3.2,1.44c0.65,0.05,1.3,0.09,1.96,0.14c0.7-0.23,1.4-0.47,2.09-0.7c0.48-0.3,0.96-0.6,1.44-0.89    c0.31-0.17,0.62-0.33,0.93-0.5c1.16-0.28,2.33-0.56,3.49-0.84c1.11,0.03,2.23,0.07,3.34,0.1c0.42,0.15,0.84,0.3,1.27,0.45    c0.62,0.5,1.1,1.01,1.54,1.68c0.19,0.37,0.37,0.75,0.56,1.12c0,2.15-0.1,6.16,2.66,6.81c0.79,0.15,1.58,0.3,2.37,0.45    c1.29-0.21,2.47-0.18,3.77-0.28c0.37-0.09,0.74-0.19,1.12-0.28c0.7-0.02,1.39-0.04,2.09-0.06c0.39-0.02,0.9-0.22,1.26,0.06    c0.68-0.04,2.31-0.17,2.52,0.09c0.4,0.42,1.32,1.34,1.79,1.29c0.41-0.06,0.69-0.07,0.85-0.43c0-0.13,0.01-0.26,0.01-0.39    c0.68-0.76,1.37-1.51,2.05-2.27c0.28-0.34,0.58-0.86,1.02-0.94c1.94-3.31,3.89-6.62,5.83-9.92c1.77-1.87,3.83-3.24,5.78-4.85    c0.55-0.46,1.71-1.75,2.35-1.84c0.93-0.74,1.86-1.49,2.79-2.23c0.28-0.33,0.56-0.65,0.84-0.98c0.88-0.75,1.77-1.49,2.65-2.23    c1.44-1.4,2.89-2.79,4.33-4.19c0.88-0.7,1.77-1.4,2.65-2.09c1.05-1,1.4-2.11,2.93-2.65c0-0.37,0-0.74,0-1.12    c0.09-0.28,0.19-0.56,0.28-0.84c0.71-1.09,1.77-1.86,2.65-2.79c0.47-0.6,0.93-1.21,1.4-1.81c0.28-0.43,0.98-1.72,1.4-1.82    c0.09-0.65,0.19-1.3,0.28-1.96c0.65-1.83,1.59-3.53,2.79-5.03c2.41-3.01,5.33-6.5,8.8-8.24c0.64-0.44,1.27-0.87,1.91-1.3    c0.32-0.3,0.75-0.83,1.16-0.93c1.05-2.21,2.51-4.65,2.67-7.13c0.06-1,0.47-1.74-0.23-2.63c0.02-0.1,0.05-0.2,0.07-0.3    c-0.09,0.05-0.19,0.1-0.28,0.15c-0.23,0.13-0.43,0.34-0.69,0.27c-0.35,0.27-0.69,0.75-1.12,0.84c-0.74,0.84-1.48,1.69-2.22,2.53    c-0.56,0.56-1.13,1.12-1.69,1.68c-0.55,0.09-1.43-0.01-1.82,0.4c-3.34-0.43-6.24,0.11-9.5-1.12c-1.17-0.78-2.34-1.56-3.51-2.34    c-1.1-0.44-1.9-0.05-2.9-0.22c-0.8-0.17-1.59-0.34-2.39-0.51c-0.89-0.44-1.79-0.88-2.68-1.32c-0.41-0.16-0.82-0.33-1.23-0.49    c-0.79-0.19-1.58-0.37-2.37-0.56c-0.6-0.23-1.21-0.47-1.81-0.7c-0.38-0.17-0.75-0.34-1.13-0.51c-1.58-0.31-3.16-0.63-4.74-0.94    c-1.52-0.07-2.95,0.13-4.32,0.8c-0.82,0.4-1.73,1.32-2.66,1.35c-0.84,0.6-1.68,1.21-2.51,1.82c-1.76,0.42-3.1,0.33-4.75-0.7    c-0.41-0.39-0.82-0.77-1.23-1.16c-1.4-1.21-2.72-2.47-3.92-3.86c-0.24-0.56-0.48-1.12-0.72-1.68c-0.36-1.28-0.72-2.57-1.08-3.85    c-0.19-1.19-0.38-2.38-0.57-3.57c-0.24-1.93,0.12-3.68,0.12-5.57c-0.14-0.61-0.28-1.22-0.41-1.83c-1.1-0.15-1.98,0.5-3.08,0.44    c-2.34-0.14-4.55-0.84-6.86-1.27c-0.65-0.04-1.29-0.08-1.94-0.12c-0.92-0.2-1.37-0.37-2.37-0.42c-1.22-0.05-2.48-0.65-3.6-1.06    c-0.37-0.14-1.07-0.54-1.43-0.33C256.35,217.87,255.91,217.67,254.9,217.54z"/>
            <circle cx="239.53" cy="257.62" r="1.05"/>
        </g>
        <g id="__Sarız">
            <path d="    M338.96,241.7c1.64-1.67,2.76-2.75,5.17-2.64c0.37,0,0.75-0.01,1.12-0.01c0.99-0.39,3.37-0.87,4.33-0.28    c1.38-0.13,2.75-0.08,4.15,0.25c0.48,0.15,0.96,0.3,1.44,0.45c0.65,0,1.3,0,1.96,0c0.8,0.21,1.6,0.41,2.4,0.62    c0.77,0.2,2.19-0.22,2.77,0.36c0.56,0,1.12,0,1.68,0c1.7-0.89,3.53-1.83,4.05-3.77c0.1-0.38,0.71-1.1,0.42-1.4    c0-1.38-1.28-1.71-2.09-2.79c-0.82-1.09-0.46-3.17-0.42-4.47c0.02-0.72-0.18-1.16,0.14-1.82c0.22-0.45,0.11-1.14,0.56-1.4    c-0.03-0.43-0.05-0.68,0.28-0.98c0.56-0.1,1.14,0.19,1.44-0.4c0.17-0.56,0.35-1.13,0.52-1.69c1.91-1.91,4.93-3.63,7.41-4.73    c0.37-0.14,0.74-0.29,1.11-0.43c0.48-0.29,0.86-0.77,1.4-0.84c0.98-0.98,1.92-1.97,2.79-3.07c0.65-0.47,1.3-0.93,1.96-1.4    c0.23-0.28,0.47-0.56,0.7-0.84c1.35-1.07,2.7-2.14,4.05-3.21c0.84-0.51,1.68-1.02,2.51-1.54c0.79-0.25,1.58-0.49,2.37-0.74    c0.65-0.26,1.31-0.53,1.96-0.79c0.52-0.25,1.04-0.5,1.56-0.75c1.07-0.6,1.84-1.41,3.05-1.73c0.14-0.06,0.28-0.12,0.41-0.17    c0.4-0.37,0.85-1.09,1.4-1.12c0.42-0.93,0.84-1.86,1.26-2.79c0.01-0.26,0.02-0.53,0.03-0.79c0.13-0.29,0.26-0.59,0.39-0.88    c0.45-0.38,1.4-1.01,1.4-1.68c0.14-0.19,0.28-0.37,0.42-0.56c0.88-0.58,1.71-0.86,2.65-1.26c0.7-0.14,1.4-0.28,2.09-0.42    c0.47,0,0.93,0,1.4,0c2.5-0.71,6.25-1.4,8.87-1.15c1.6,0.06,3.21,0.12,4.81,0.17c0.6-0.21,1.21-0.41,1.81-0.62    c1.14-0.48,2.15-0.33,3.36-0.22c0.42-0.05,0.84-0.09,1.26-0.14c0.76-0.02,1.14-0.16,1.68-0.7c0.18,0.18,0.13,0.17,0.06,0.39    c-0.25,0.85-0.5,1.7-0.75,2.54c0.47,2.09,0.93,4.19,1.4,6.28c0.19,0.79,0.37,1.58,0.56,2.37c0.83,1.24,1.67,2.51,1.95,3.91    c0.33,1.58,0.14,3.43-0.14,5.03c-0.05,0.42-0.09,0.84-0.14,1.26c0.01,0.17,0.02,0.34,0.04,0.51c-0.06,0.76-0.12,1.52-0.17,2.29    c-0.09,0.14-0.19,0.28-0.28,0.42c0.53,1.54,0.15,3.13,0.28,4.75c0.15,1.92,0.55,3.7,0.7,5.59c0.09,0.47,0.19,0.93,0.28,1.4    c0.09,1.21,0.19,2.42,0.28,3.63c0.23,0.74,0.47,1.49,0.7,2.23c0.67,0.71,1.67,1.26,1.47,2.34c0,0.13-0.01,0.26-0.01,0.39    c-0.46,0.49-1.22,0.35-1.88,0.48c-1.06,0.38-2.13,0.76-3.19,1.14c-1.59,0.88-3.74,1.48-5.05,2.63c-0.76,0.67-1.85,0.99-2.37,1.82    c-0.39,0-1.55,1.18-1.82,1.54c-0.28,0.98-0.56,1.96-0.84,2.93c0.14,0.88,0.28,1.77,0.42,2.65c0.35,3.74,2.39,6.41,3.49,9.77    c0.05,1.07,0.09,2.14,0.14,3.21c-0.69,1.99-1.59,4.56-2.79,6.28c-0.46,0.66-0.31,2.29-1.12,2.65c-0.22,1.68-0.54,3.43-0.7,5.17    c-0.47,0.47-0.56,2.76-0.61,3.48c-0.05,0.54-0.26,1.06-0.93,0.71c0.18-0.03,0.36-0.06,0.54-0.08c0.48-0.08,0.37,0.36,0.38,0.78    c0.36,5.77-3.82,11.18-8.59,13.71c-0.24,0.27-0.47,0.54-0.71,0.81c-0.42,0.19-0.84,0.37-1.26,0.56c0.2,0.2-1.48,1.08-1.82,1.4    c-1.35,0.79-2.7,1.58-4.05,2.37c-1.54,0.56-3.07,1.12-4.61,1.68c-1.21,0.28-2.42,0.56-3.63,0.84c-0.93-0.05-1.86-0.09-2.79-0.14    c-0.09-0.09-0.19-0.19-0.28-0.28c-0.6,0.06-2.15,0.47-2.51-0.14c-1.38,0.22-2.8-0.04-4.19-0.15c-0.51-0.09-1.02-0.18-1.54-0.27    c-1.02-0.09-2.05-0.19-3.07-0.28c-0.55,0.04-1.09,0.09-1.64,0.13c-1.22,0.21-2.44,0.42-3.65,0.63c-0.56,0.21-1.13,0.42-1.69,0.63    c-2.54,1.54-5.28,2.73-7.96,4.05c-1.13,0.68-2.25,1.36-3.38,2.04c-1.35,0.84-2.69,1.67-4.04,2.51c-0.24,0.12-1.52,0.83-1.52,0.2    c0-0.83,0.11-1.62,0.42-2.37c0.42-0.74,0.84-1.49,1.26-2.23c0.23-0.06,0.47-0.12,0.7-0.17c0.19-1.04-0.13-0.96-0.6-1.56    c-0.17-0.21-0.35-0.42-0.52-0.64c-0.4-0.87-0.96-1.62-1.82-2.09c-1.14-0.63-2.48-0.54-2.75-2.1c-0.14-1.53-0.27-2.94-0.32-4.46    c0-0.6,0-1.21,0-1.82c0.09-1.44,0.19-2.89,0.28-4.33c0.13-1.48,0.56-3.73,0.28-5.17c-0.31-1.59-2.49-4.44-3.77-5.45    c-0.74-0.58-2.74-1.5-3.62-1.66c-0.46-0.47-1.6-0.69-2.24-0.71c-0.79-0.05-1.58-0.09-2.37-0.14c-0.34,0-0.87,0.1-1.12-0.14    c-0.59,0-1.37,0.11-1.85-0.28c-0.81-0.62-1.53-2.97-1.78-4.05c-0.35-1.55-1.48-2.88-2.45-4.09c-0.63-0.79-1.22-2.34-2.44-1.96    c-3.3,1.14-6.6,2.27-9.91,3.41c-0.37,0.14-0.75,0.28-1.12,0.41c-0.58,0.02-0.91-0.06-1.39,0.22c-0.29,0.09-0.58,0.18-0.88,0.27    c-0.13-0.3-0.27-0.58-0.19-0.9c0.78-2.74,2.64-5.23,4.69-7.27c0.65-0.74,1.3-1.49,1.96-2.23c2.04-2.04,4.25-3.77,6.7-5.31    c0.36-0.22,0.41-0.59,0.84-0.7c0.19-0.28,0.37-0.56,0.56-0.84c0.79-1.63,1.58-3.26,2.37-4.89c-0.05-0.09-0.09-0.19-0.14-0.28    c0.05-0.61,0.09-1.21,0.14-1.82c0.09-0.19,0.19-0.37,0.28-0.56c-0.05-0.23-0.09-0.47-0.14-0.7c0.05-0.28,0.09-0.56,0.14-0.84    c-0.05-0.09-0.09-0.19-0.14-0.28c0.05,0,0.09,0,0.14,0C339.01,242.14,338.79,241.87,338.96,241.7z"/>
            <circle cx="381.69" cy="249.94" r="1.05"/>
        </g>
        <g id="__İncesu">
            <path d="    M162.73,231.08c-0.28-0.37-0.56-0.75-0.84-1.12c-0.76-0.76-1.86-1.4-2.32-2.4c-0.06-0.64-0.13-1.29-0.19-1.93    c-0.1-0.37-0.2-0.74-0.3-1.11c-0.13-0.24-0.27-0.47-0.4-0.71c-0.19-0.98-0.37-1.96-0.56-2.94c-0.23-0.6-0.47-1.21-0.7-1.81    c-1.02-0.98-2.05-1.96-3.07-2.93c-0.16-0.27-0.32-0.54-0.48-0.82c-0.3-0.6-0.6-0.81-1.06-1.28c-0.37-0.51-0.74-1.02-1.12-1.54    c-0.56-0.42-1.12-0.84-1.68-1.26c-0.48-0.74-0.95-1.48-1.43-2.22c-0.33-0.5,0.45-1.96,0.57-2.54c0.08-0.42-0.36-0.61-0.67-0.83    c-0.34,0.34-1.3-0.22-1.68-0.42c-0.32,0.08-0.62-0.2-0.84-0.42c-1.19,0-1.99-0.45-2.79-1.26c-0.22-0.8-0.78-1.32-1.26-1.95    c0-0.53-0.62-1.18-0.98-1.54c0-1.14-1.14-1.88-1.56-2.84c-0.86-1.97-0.72-4.74-1.07-6.94c-0.05-0.36,1.31-1.04,1.66-1.25    c-0.05-0.09-0.09-0.19-0.14-0.28c0.36-1.16,1.06-2.11,1.26-3.35c0.14-0.88,0.1-1.62,0-2.51c0.05-0.6,0.09-1.21,0.14-1.82    c-0.15-0.57-0.3-1.13-0.45-1.7c-0.08-0.32-0.17-0.63-0.25-0.95c-0.58-0.22-0.64-0.76-1.1-1.08c-0.42-0.26-0.98,0.53-1.41,0.1    c-0.52,0.36-0.75,0.56-1.38,0.63c-0.19,0.02-0.38,0.04-0.57,0.07c0.3-0.49-0.35-0.93-0.64-1.43c0.12-0.45,0.24-0.89,0.37-1.34    c-0.01-0.4-1.35-0.07-1.68-0.03c-0.28-0.33-0.56-0.65-0.84-0.98c0-0.28,0-0.56,0-0.84c-0.06-0.06-0.12-0.12-0.18-0.18    c-0.41-0.79-2.06-0.85-2.89-0.93c-0.11-0.31-0.15-0.28-0.42-0.41c-1.49-0.77-0.63-1.94-1.4-2.94c0-0.37,0-0.75,0-1.12    c-0.3-0.53-0.59-1.06-0.89-1.58c-0.15-0.43-1.62-0.48-2.18-0.37c-0.36-0.13-0.71-0.26-1.07-0.4c-0.34-0.26-0.68-0.53-1.02-0.79    c-1.26-0.6-2.53-1.2-3.79-1.8c-1.93-1.1-3.83-2.34-5.72-3.57c-0.79,0.09-1.58,0.19-2.37,0.28c-0.9,0.77-1.8,1.54-2.7,2.31    c-1.38,0.77-2.76,1.53-4.14,2.3c-0.23,0.28-0.47,0.56-0.7,0.84c-1.08,1.1-2.1,2.13-3.35,2.93c-0.56,0.14-1.12,0.28-1.68,0.42    c-0.42,0-0.84,0-1.26,0c-0.47,0.14-0.93,0.28-1.4,0.42c-0.36,0.11-0.85,0.01-1.12,0.28c-1.51-0.24-2.75,0.33-4.19,0.79    c-1.07,0.29-2.15,0.57-3.22,0.86c-1.16,0.28-2.09,0.61-3.2,0.72c-0.36,0.03-0.99,0.27-1.25,0.01c-0.84,0.23-1.68,0.47-2.51,0.7    c-0.4,0,0.3,0.7,0.42,0.84c0.7,0.52,1.39,1.03,2.09,1.54c1.23,1.05,2.46,2.09,3.69,3.14c0.31,0.22,1.09,1.16,1.35,0.9    c0.54,0.81,1.34,1.49,2.09,2.09c0.79,0.98,1.58,1.96,2.37,2.93c0.38,0.58,0.75,1.17,1.13,1.75c0.38,0.65,0.27,1.24,0.46,1.9    c1.29,1.12,2.13,1.8,3.16,3.19c0.05,0.23,0.09,0.47,0.14,0.7c-0.27,0.38-0.12,1.11,0.05,1.51c0.45,1.12,0.9,2.25,1.35,3.37    c0.74,2.16,1.18,4.19,1.57,6.42c0.17,1.17,0.35,2.33,0.52,3.5c0.02,0.59-1.25,0.58-1.25,0.28c0,0.51,0.68,0.43,0.41,0.72    c-0.08,0.26-0.2,0.34,0,0.54c-0.92-0.41-2.21-0.59-3.21-0.56c-0.22-0.29-0.89-0.34-1.26-0.42c-0.44-0.44-2.57-0.59-3.14-0.32    c-0.4,0.23-0.81,1.54-0.77,1.99c0.09,0.47,0.19,0.93,0.28,1.4c0.3,1.93,1.09,2.96,2.09,4.61c0,0.23,0,0.47,0,0.7    c-0.48,0.99,1.32,1.95,1.85,2.3c0.15,0.11,0.29,2.27,0.23,2.59c-0.04,0.23-0.09,0.46-0.13,0.69c1.07,0.26,2.01,0.46,2.87,1.2    c-0.09,0.25-0.19,0.5-0.28,0.75c-0.32,0.47-1.84,0.7-2.43,0.92c-0.52,0.2-0.11,0.68,0.19,0.94c0.88,0.75,1.83,0.99,2.59,1.9    c0.65,0.93,1.3,1.87,1.95,2.8c0.14,0.42,0.28,0.84,0.42,1.26c0.28,0.42,0.56,0.84,0.84,1.26c0,0.47-0.06,1.33,0.28,1.68    c-0.27,0.66-0.62,0.92-1.12,1.4c-0.09,0.7-0.18,1.4-0.27,2.09c-0.02,0.38,0.24,0.41,0.55,0.56c0.05,0.37,0.09,0.74,0.14,1.12    c0.31,0.67,2.76,2.09,3.49,2.09c0.97,0.97,1.75,2.52,3.21,2.93c0.65,0.05,1.3,0.09,1.96,0.14c-0.28,2.22-2.48,3.47-3.44,5.46    c-0.13,0.31,0.82,0.63,1.06,0.82c1.08,0.85,1.39,2.09,2.37,3.07c0.09,0.23,0.19,0.47,0.28,0.7c0.33,1.17,1.13,1.97,2.12,2.52    c-0.02-0.04-0.04-0.09-0.05-0.14c-0.04-0.56-0.08-1.12-0.12-1.68c0.4-0.58,0.79-1.16,1.19-1.74c-0.12-0.36,0.24-1.02,0.39-1.39    c-0.13-0.66,1.54-2.95,2.05-3.3c-0.3,0-0.06-0.77-0.14-0.98c0.55-1.25,0.52-2.59,0.7-3.91c0.02-0.26,0.03-0.53,0.05-0.79    c-0.04-0.09-0.08-0.18-0.13-0.27c0.46-0.49,0.86-0.79,1.48-1.01c0.19-0.06,0.55-0.29,0.55-0.03c0.25-0.21,0.98-0.51,0.98-0.84    c0.15,0.08,0.29,0.15,0.44,0.23c0.77,0.34,1.52-0.07,1.95,0.69c0.09,0.07,0.18,0.13,0.27,0.2c0,0.28,0,0.56,0,0.84    c0.21,0.47,0.57,0.78,0.64,1.26c0.01,0.17,0.01,0.33,0.02,0.5c0.11,0.07,0.21,0.13,0.32,0.2c-0.02,0.02-0.05,0.04-0.07,0.07    c-0.16,0.16-0.32,0.33-0.48,0.49c-0.54,0.08-0.96-0.04-1.08,0.55c-0.16,0.95-0.31,1.89-0.47,2.84c-0.12,0.33-0.24,0.67-0.37,1    c0.47,0.68,0.77,1.19,0.94,2.04c-0.35,0.02-0.69,0.05-1.03,0.07c-0.17,0.21-0.33,0.42-0.5,0.63c0.27,0.15,0.54,0.29,0.81,0.44    c-0.07,0.04-0.14,0.08-0.21,0.13c-0.15,0.42-0.85-0.1-0.92,0.33c-0.03,0.26,0.05,0.17-0.25,0.36c0.14,0.05,0.27,0.11,0.41,0.16    c0.31,0.2,0.3,0.14,0.27,0.53c-0.04,0.3,0.29,0.15,0.02,0.42c-0.19,0.09-1.32,0.58-1.32,0.58c-0.2,0.54-0.65,1.44,0.07,1.8    c-0.34-0.09-0.69-0.18-1.03-0.27c-0.4-0.28-0.8-0.57-1.2-0.85c0.42,0.21,0.45-0.19,0.55-0.59c0.21-0.91,0.42-1.83,0.64-2.74    c0.12-0.29,0.23-0.57,0.35-0.86c-0.09-0.05-0.18-0.1-0.27-0.14c-0.31-0.14-1.41-0.47-1.41-0.05c-0.1,1.25-0.2,2.49-0.3,3.74    c0.48,0.68,0.08,1.34-0.4,1.34c0,0.21,0.1,0.54-0.14,0.59c-0.77,0.14-1.25,0.25-1.96-0.17c-0.14,0-0.4,0.03-0.66,0.01    c0.44,0.19,0.91,0.34,1.38,0.46c0.61,0.15,1.6-0.09,2.07,0.37c1,0.06,2.35-0.03,3.21,0.56c0.33,0.33,0.65,0.65,0.98,0.98    c1.43,1.21,2.8,2.48,4.19,3.63c0.7,0.98,1.12,0.98,2.09,1.4c2.45,1.42,4.87,3.35,7.82,3.35c0.41,0.01,0.65-1.59,0.69-1.96    c0.08-0.28,0.17-0.56,0.25-0.84c0.25-1.7,0.47-3.6,1.58-5.02c0.79-1.44,1.58-2.89,2.37-4.33c0.23-0.51,0.47-1.02,0.7-1.54    c0.84-0.88,1.68-1.77,2.51-2.65c0.42-0.6,0.84-1.21,1.26-1.81c1.02-0.79,2.05-1.58,3.07-2.37c0.51-0.56,1.02-1.12,1.54-1.68    c0.88-0.75,1.77-1.49,2.65-2.23c0.49-0.63,0.98-1.26,1.47-1.89c0.62-0.59,1.6-1.23,1.6-2.16c0.14-0.23,0.28-0.47,0.42-0.7    c0.28-0.28-0.19-1.03-0.34-1.37c-0.12-0.43-0.24-0.86-0.36-1.28c-0.48-0.61-0.87-1.11-1.1-1.86c-0.2-0.85,1.13-0.28,1.51-0.37    c0.28-0.14,0.56-0.28,0.84-0.42c0.88,0.09,1.77,0.19,2.65,0.28c1.77-0.18,3.54-0.36,5.31-0.54c0.19-0.02,0.08-0.31,0.24-0.53    C163.64,231.67,163.18,231.38,162.73,231.08z"/>
            <circle cx="114.41" cy="212.65" r="1.05"/>
        </g>
        <g id="__Özvatan">
            <path d="    M231.44,46.34c-1.16,1.07-2.33,2.14-3.49,3.21c-1.07,1.3-2.14,2.61-3.21,3.91c-1.26,0.88-2.53,1.75-3.79,2.63    c-0.98,0.69-1.97,1.37-2.95,2.06c-0.27,0.21-0.54,0.42-0.8,0.62c0.05,0.05,0.09,0.09,0.14,0.14c0.33,0.23,0.65,0.47,0.98,0.7    c0.44,0.99,0.48,1.99,0.79,3.02c0.36,1.17,1.19,3.6,0.89,4.8c-0.26,1.01-0.56,2.01-0.56,3.07c-1.36,2.3-2.65,3.9-4.75,5.59    c-0.65,0.29-1.3,0.58-1.95,0.86c-1.48,0.65-3.02,1.39-4.34,2.35c-0.88,0.88-1.77,1.77-2.65,2.65c-0.29,0.59-0.58,1.18-0.86,1.77    c-0.04,0.39-0.08,0.77-0.11,1.16c0,0.84,0,1.68,0,2.51c0.19,0.4,0.37,0.81,0.56,1.21c0.35,0.5,0.7,1.01,1.05,1.51    c0.95,0.91,1.91,1.82,2.86,2.73c0.91,0.22,1.77,0.81,2.51,1.4c0.87,0.69,3.02,2.66,2.51,3.91c0.25,0.25,0.98,0.98,1.26,0.7    c0.47,0.37,0.93,0.74,1.4,1.12c0.67,2.12,1.62,4.1,3.07,5.87c0.45,0.55,1.3,1.91,1.96,2.09c0.28,0.51,0.56,1.02,0.84,1.54    c0.09,0.28,0.19,0.56,0.28,0.84c0.54,0.82,0.5,1.23,0.7,2.09c0.09,0.28,0.19,0.56,0.28,0.84c0.09-0.01,0.18-0.02,0.27-0.04    c0.54-0.05,2.17-0.57,2.52-0.38c0.51-0.19,1.02-0.39,1.53-0.58c0.93-0.08,1.86-0.17,2.8-0.25c0.33-0.14,0.65-0.28,0.98-0.42    c0.3-0.25,0.6-0.5,0.9-0.75c0.3-0.17,0.61-0.34,0.91-0.51c1.02-1.13,0.76-2.99,1.81-4.05c0.22-1.42,0.28-2.72,0.28-4.19    c0-0.47-0.14-1.4,0.22-1.75c1.51-1.46,3.52-2.13,5.09-3.55c1.61-1.47,3.02-3.04,3.86-5.04c0.11-0.18,0.22-0.36,0.33-0.54    c0.16-0.5,0.31-1,0.47-1.51c0.18-0.26,0.36-0.52,0.55-0.78c0.61-1.21,1.07-3.01,0.8-4.28c-0.62-2.96-3.52-4.3-5.57-6.02    c-0.81-0.68-1.42-1.67-1.38-2.73c-0.04-0.1-0.08-0.2-0.12-0.31c0.91-1.82,2.35-3.14,3.95-4.42c0.29-0.24,1.44-1.27,1.72-1.19    c0.65-0.56,1.3-1.12,1.96-1.68c0.34-0.61,0.62-1.15,0.79-1.83c0.11-0.37,0.22-0.74,0.32-1.1c0.09-0.65,0.19-1.3,0.28-1.96    c-0.25-1.98-1.45-5.51-2.87-7.05c-0.53-0.4-1.06-0.79-1.6-1.19c-1.08-0.74-2.03-1.56-3.21-2.23c-0.52-0.23-1.04-0.46-1.56-0.69    c-0.4-0.07-1.33-0.3-1.51-0.71c-0.69-0.33-1.38-0.67-2.07-1c-1.1-0.76-2.31-1.71-3.15-2.74c-0.26-0.29-0.53-0.58-0.79-0.86    C232.24,46.73,231.64,46.15,231.44,46.34z"/>
            <circle cx="219.98" cy="85.58" r="1.05"/>
        </g>
        <g id="__Akkışla">
            <path d="    M313.96,90.74c0.37,0.37,0.74,0.75,1.12,1.12c0.51,0.75,1.02,1.49,1.54,2.23c0.6,0,1.96,1.55,1.96,2.09    c-0.01,0.29-0.07,0.49,0.14,0.7c-0.15,0.23-0.37,0.42-0.28,0.7c-1.17,0.63-2.33,1.11-3.35,1.96c-0.33,0.28-0.65,0.56-0.98,0.84    c-0.69,0.28-2.5,1.14-3.21,0.98c-0.7,0.28-1.4,0.56-2.09,0.84c-0.33,0.23-0.65,0.47-0.98,0.7c-0.97,0.97-2.48,2.36-3.78,2.91    c-0.79,0.29-1.58,0.58-2.37,0.86c-0.89,0.39-1.99,0.28-2.93,0.28c-0.24-0.24-0.66-0.18-0.98-0.14c-0.55,0.02-1.09,0.04-1.64,0.06    c-0.53,0.36-1.09,0.7-1.31,1.32c-0.02,0.41-0.04,0.82-0.06,1.24c0.85,1.4,1.57,1.01,2.85,1.61c1.05,0.49,2.29,1.12,3.54,1.41    c1.25,0.12,2.49,0.24,3.74,0.37c0.33,0.09,0.65,0.19,0.98,0.28c0.71,0.59,1.26,1.22,1.82,1.96c0.05,0.33,0.09,0.65,0.14,0.98    c-0.09,0.28-0.19,0.56-0.28,0.84c-0.29,0.38-0.65,1.03-1.12,1.12c0,0.28,0,0.56,0,0.84c-0.84,0.42-1.43,0.73-2.1,1.4    c-0.47,1.07-0.93,2.14-1.4,3.21c-0.7,1.86-1.4,3.72-2.09,5.59c-0.14,0.65-0.28,1.3-0.42,1.95c-0.09,0.79-0.19,1.58-0.28,2.37    c0.39,0.99,0.73,1.95,1.12,2.93c0.32,0.8,1.59,1.6,2.23,2.09c0.19,0.19,0.37,0.37,0.56,0.56c0.23,0.14,0.45,0.29,0.68,0.43    c1.04,0.77,2.17,1.11,3.32,1.64c0.37,0.2,0.74,0.4,1.11,0.61c0.6,0.26,1.2,0.51,1.8,0.77c0.54-0.36,1.08-0.72,1.61-1.07    c0-0.5,0.73-0.89,1.12-1.12c1.29,0,3.35-0.08,4.33-0.98c0.42-0.74,0.84-1.49,1.26-2.23c1.21-1.66,1.93-3.46,3.8-4.55    c0.78-0.45,3.36-0.17,4.3-0.2c1.8-0.06,3.65-1.16,4.61-2.65c1.04-1.6,1.53-3.39,1.53-5.31c0.23-0.28,0.47-0.56,0.7-0.84    c0.19-0.56,0.38-1.12,0.56-1.68c0.21-0.42,1.37-2.39,1.11-2.65c0.65-0.93,1.3-1.86,1.96-2.79c0.23-0.65,0.47-1.3,0.7-1.96    c0.07-0.41,0.14-0.82,0.21-1.23c0.21-0.62,0.42-1.23,0.63-1.85c0.45-0.57,2.09-2.57,2.09-3.21c0.93-1.16,1.86-2.33,2.79-3.49    c0.7-0.98,1.4-1.96,2.09-2.93c0.35-2.14-0.36-4.4,0.18-6.55c0.23-0.91,0.68-1.89,0.8-2.8c0-0.6,0-1.21,0-1.82    c0.14-0.13,0.46-0.78,0.35-0.94c-0.28-0.39-0.29-0.57-0.76-0.64c-1.77-0.4-3.54-0.81-5.31-1.21c-2.01,0-4-0.08-6-0.31    c-1.54-0.18-3.07-0.35-4.61-0.53c-2.82,0.22-5.65,0.83-8.37,1.48c-1.82,0.4-3.65,0.81-5.47,1.21c-0.65,0.13-1.29,0.26-1.94,0.38    c-0.05-0.09-0.09-0.19-0.14-0.28C314.77,90.01,313.43,90.21,313.96,90.74z"/>
            <circle cx="315.5" cy="113.92" r="1.05"/>
        </g>
        <g id="__Yahyalı">
            <path d="    M215.45,377.05l0.7-0.45c-0.33,0.19-1.37-0.51-1.81-0.77c-0.31-0.18-0.57-0.35-0.93-0.35c-0.51-0.56-1.02-1.12-1.54-1.68    c-0.7-0.51-1.4-1.02-2.09-1.54c-2.08-2.44-5.09-3.82-7.26-6.28c-1.4-2-2.79-4-4.19-6c-0.75-0.49-1.42-0.78-2.09-1.4    c-0.88,0-1.46-0.49-2.23-0.84c-1.54-0.75-3.07-1.49-4.61-2.23c-0.35-0.71-0.71-1.43-1.06-2.14c-0.26-1,0.81-3.14,1.34-4.01    c0-0.38,0.45-1.61,0.75-1.79c0.5-0.94,0.99-1.88,1.49-2.81c0.28-0.28,0.56-0.56,0.84-0.84c0.58-0.81,0.88-2.1,0.98-3.07    c0.28-1.12,0.56-2.23,0.84-3.35c-0.02-0.51-0.05-1.02-0.07-1.52c0.38-1.75,2.03-4.2,1.61-5.88c0.57-0.57,0.27-2.16,0-2.93    c-0.21-0.26-0.42-0.52-0.62-0.77c-0.74-0.68-1.69-1.16-2.59-1.6c-0.6-0.23-1.21-0.47-1.81-0.7c-1.11,0-2.15,0.17-3.21,0    c-1.3-0.37-2.61-0.75-3.91-1.12c-1.06-0.27-1.8-0.84-2.93-0.84c-0.79-0.32-1.59-0.65-2.38-0.97c-0.65-0.28-1.3-0.56-1.95-0.85    c-0.86-0.19-1.62-0.37-2.42-0.74c-0.45-0.17-0.9-0.34-1.35-0.51c-1.21-0.37-2.42-0.75-3.63-1.12c-0.75-0.52-2.43-1.26-3.35-1.26    c-0.6-0.38-1.2-0.77-1.79-1.15c-1.27-1.02-2.91-2.84-4.49-3.32c-0.74-0.33-1.49-0.65-2.23-0.98c-2.23-0.56-4.47-1.12-6.7-1.68    c-1.44-0.23-2.89-0.47-4.33-0.7c-0.55-0.01-1.1-0.01-1.65-0.02c-0.75-0.18-1.5-0.36-2.26-0.54c-1.3-0.09-2.61-0.19-3.91-0.28    c-1.11-0.19-2.33-0.22-3.35,0.28l-0.56,0.56c0.43,0,0.9,1.56,1.4,1.82c0.65,0.47,1.3,0.93,1.95,1.4c1.41,0,4.5,1.69,5.24,2.83    c0.18,0.28-0.1,1.23-0.25,1.54c-0.55,1.14-1.93,2.68-2.9,3.59c-0.8,0.75-1.57,1.64-2.79,1.54c-4-1.02-8.01-2.03-12.01-3.05    c-2.48-0.48-0.68,3.44-0.68,4.6c0,0.85,0.04,2.41,0.68,3.05c-0.14,1.09-0.02,1.89,0.21,2.95c0.07,0.32-0.02,0.73,0.21,0.96    c-0.08,0.85-0.13,1.67,0,2.51c0.23,1.5,0.54,3.14-0.02,4.6l0.02,0.29c0.07,0.14,0.14,0.28,0.21,0.42c0.35,0.7,1.19,1.1,1.33,1.95    c0,0.37,0,0.74,0,1.12c0.07,0.69,0.21,1.28,0.38,1.91c0.07,1.83,0.13,3.66,0.2,5.49c0.24,1.91,0.48,3.82,0.72,5.73    c0.02,1.66,0.04,3.33,0.05,4.99c0.23,1.75,0.32,3.53,0.32,5.34c-0.05,0.7-0.09,1.4-0.14,2.09c0.12,1.88,0.06,3.71,0,5.59    c0.05,0.79,0.09,1.58,0.14,2.37c-0.15,0.93-0.04,1.71,0.02,2.65c0.02,0.29-0.03,0.83,0.12,0.98c0,1.35,0,2.7,0,4.05    c0.09,0.28,0.19,0.56,0.28,0.84c-0.05,1.21-0.09,2.42-0.14,3.63c0.14,0.6,0.28,1.21,0.42,1.81c-0.05,1.26-0.09,2.51-0.14,3.77    c-0.15,1.93-0.76,3.73-1.23,5.59c-0.24,1.44-0.49,2.88-0.73,4.32c-0.33,1.21-0.65,2.42-0.98,3.63c-0.26,1.39-0.52,2.77-0.79,4.16    c-0.44,1.31-0.87,2.62-1.31,3.93c-0.19,0.54-0.25,2.08-0.84,2.67c0,0.79-0.3,1.36-0.42,2.09c-0.38,2.26-0.76,4.51-1.73,6.81    c0.13,0.4-0.47,2.02-0.78,2.41c-0.19,1.97-0.91,3.93-1.4,5.86c-0.76,0.91-1.53,1.82-2.29,2.74c-0.25,0.37-0.64,0.68-0.64,1.17    c-0.79,0.93-1.58,1.86-2.37,2.79c0,0.57-1.54,2.6-1.96,3.07c-0.56,0.47-1.12,0.93-1.68,1.4c-0.19,0.47-0.37,0.93-0.56,1.4    c-0.28,0.19-0.56,0.37-0.84,0.56c-0.37,0.65-0.74,1.3-1.12,1.96c-0.23,0.28-0.47,0.56-0.7,0.84c-0.6,0.79-1.21,1.58-1.81,2.37    c-0.09,0-0.19,0-0.28,0c-0.23,0.47-0.47,0.93-0.7,1.4c-0.32,0.48-0.98,0.61-0.98,1.26c-0.37,0.51-0.75,1.02-1.12,1.54    c-1.44,1.91-2.89,3.82-4.33,5.73c-0.49,0.65-1.26,1.24-1.26,2.09c0.26-0.26,0.89-0.14,1.26-0.14c1.12,0,2.23,0,3.35,0    c0.44,0,1.96-0.51,1.96,0c0.6,0,0.65,0,1.26,0c0.28-0.23,0.84,0.09,1.12-0.14c1.14,0.25,3.2-0.06,4.33-0.42    c0.49-0.22,0.97-0.44,1.46-0.66c0.66,0.2,1.33-0.27,2-0.34c1.86-0.21,3.79-0.85,5.59-1.41c0.29,0.07,2.78-0.63,2.95-0.8    c0.47-0.14,0.93-0.28,1.4-0.42c2.38,0,4.63-0.68,6.97-0.94c0.59-0.04,1.18-0.07,1.77-0.11c0.58-0.12,1.15-0.23,1.73-0.35    c1.32-0.13,2.6-0.1,3.91-0.42c1.82-0.6,3.63-1.21,5.45-1.82c1.25-0.36,2.69-0.81,3.54-1.85c1.51,0.16,3.09-0.17,4.56-0.52    c2.61-0.33,5.21-0.65,7.82-0.98c1.81-0.23,3.63-0.47,5.45-0.7c0.33-0.22,0.66-0.45,0.99-0.67c0.46-0.34,0.92-0.67,1.38-1.01    c1.21-0.77,2.51-1.57,2.51-3.21c0.92-0.75,1.84-1.5,2.76-2.25c0.3-0.26,0.77-0.78,1.15-0.4c0.49,0.32,0.58,0.91,0.98,1.4    c0.28,0.19,0.56,0.37,0.84,0.56c-0.36,0.36-0.61,1.43-0.42,1.81c0.29,0.61,0.64,1.04,1.12,1.54c0.34,0,0.9,0.17,1.12,0.42    c0.51,0.58,0.56,1.51,0.56,2.23c0.28,0.28,0.56,0.56,0.84,0.84c0.19,0.05,0.37,0.09,0.56,0.14c0.28,0.09,0.56,0.19,0.84,0.28    c0.47,0.33,0.93,0.65,1.4,0.98c0.28,0.01,0.55,0.01,0.83,0.02c0.55,0.02,1.1,0.04,1.65,0.06c0.44-0.25,2.4-2.01,2.4-2.45    c0.42-0.33,0.84-0.65,1.26-0.98c0.09-0.19,0.19-0.37,0.28-0.56c0.19-0.26,0.84-0.57,0.84-0.84c0-0.27,0.06-0.5-0.14-0.7    c0.14-0.72,0.23-1.39,0-2.09c0.31-0.31,0.2-1.64,0.14-2.1c-0.28-1.63-0.56-3.26-0.84-4.89c-0.09-0.65-0.19-1.3-0.28-1.96    c-0.25-0.88-1.3-3.26-0.89-4.08c0.3-0.36,0.6-0.73,0.89-1.09c0.37-0.6,0.74-1.21,1.12-1.82c0.28-0.23,0.56-0.47,0.84-0.7    c0.34-0.41,0.67-0.81,1.01-1.22c0.26-0.34,1.1-1.58,1.5-1.58c0.77-0.07,1.54-0.14,2.31-0.21c1.36-1.21,2.19-2.77,3.32-4.23    c0.59-0.75,1.18-1.51,1.77-2.26c0.85-0.47,3.68-1.32,3.61-2.37c-0.18-3.12-0.36-6.24-0.54-9.36c-0.28-0.42-0.56-0.84-0.84-1.26    c0-0.67-0.63-1.26-0.98-1.81c-0.14-0.28-0.28-0.56-0.42-0.84c-0.05-0.33-0.09-0.65-0.14-0.98c-0.54-0.49-1.14-0.87-1.26-1.68    c-0.08-0.57,0.13-2.8,0.42-3.21c-0.23-1.01-0.56-1.79-0.84-2.79c-0.14-0.28-0.28-0.56-0.42-0.84c-0.31-2.31-0.63-4.62-0.94-6.93    c0.02-0.37,0.05-0.74,0.07-1.11c0.24-0.62,0.49-1.25,0.73-1.87c0.31-0.49,0.96-0.94,0.98-1.54c0.56-0.38,0.98-0.71,1.4-1.26    c0.7-0.23,1.4-0.47,2.09-0.7c0.88,0,1.54-0.46,2.37-0.7c1.54-0.28,3.07-0.56,4.61-0.84c0.84-0.16,1.48-0.8,2.23-1.12    c0.32-0.09,0.65-0.18,0.97-0.27c0.43-0.14,2.38-1.03,2.38-1.4c0.4-0.29,1.08-0.41,0.88-0.99    C215.52,377.1,215.49,377.08,215.45,377.05z M158.93,326.44c-0.04,0.19-0.07,0.39-0.11,0.58c-0.11,0.14-0.21,0.28-0.32,0.42    c-0.13,0.57-0.04,1.62-0.52,1.96c0.22,0.46,0.97,1.97,0.78,2.34c-0.11,0.24-0.26,0.74-0.39,0.79c-0.67,0.14-1.34,0.29-2.02,0.43    c-0.66-0.49-1.07-1.1-1.24-1.92c-0.24-0.13-0.23-0.03-0.15-0.24c0.1-0.27,0.11-0.42,0.37-0.56c0.16-0.93,0.32-1.86,0.48-2.78    c0.06-0.27,0.02-1.14,0.07-1.15c0.44-0.11,0.46-0.42,0.86-0.31C157.13,326.08,159,326.16,158.93,326.44z"/>
            <circle cx="149.53" cy="348.32" r="1.05"/>
        </g>
        <g id="__Felahiye">
            <path d="    M214.26,98.14c0.51-1.25-1.65-3.22-2.51-3.91c-0.74-0.59-1.6-1.18-2.51-1.4c-0.95-0.91-1.91-1.82-2.86-2.73    c-0.35-0.5-0.7-1.01-1.05-1.51c-0.19-0.4-0.37-0.81-0.56-1.21c0-0.84,0-1.68,0-2.51c0.04-0.39,0.08-0.77,0.11-1.16    c0.29-0.59,0.58-1.18,0.86-1.77c0.88-0.88,1.77-1.77,2.65-2.65c1.32-0.96,2.86-1.7,4.34-2.35c0.65-0.29,1.3-0.58,1.95-0.86    c2.1-1.69,3.39-3.28,4.75-5.59c0-1.06,0.3-2.06,0.56-3.07c0.31-1.19-0.53-3.62-0.89-4.8c-0.31-1.03-0.35-2.03-0.79-3.02    c-0.33-0.23-0.65-0.47-0.98-0.7h-0.42c-0.02-0.03-0.04-0.06-0.07-0.08c-1.76,1.51-3.82,2.72-6.08,3.29    c-0.88,0.22-2.3,1.15-3.21,0.84c-1.76,1.05-4.81,1.44-6.84,1.54c-1.3,0.23-2.61,0.47-3.91,0.7c-0.84,0-1.68,0-2.51,0    c-2.29-0.07-4.54-1.09-6.84-0.84c-1.09,0.12-2.18,0.37-2.93,1.12c-0.28,0.19-0.56,0.37-0.84,0.56c-0.7,0.33-1.4,0.65-2.09,0.98    c-1.02,0.33-2.05,0.65-3.07,0.98c-0.93,0.41-1.87,0.82-2.8,1.23c-0.42,0.19-0.83,0.39-1.25,0.58c-1.03,0.65-2.05,1.29-3.08,1.94    c-1.27,1.12-2.31,2.61-3.23,4.02c-0.36,0.57-0.72,1.15-1.09,1.72c-0.82,1.01-1.73,2.36-2.08,3.62c-0.39,1.39-0.35,2.46,0.55,3.64    c0.19,0.33,0.37,0.65,0.56,0.98c0.37,0.7,0.75,1.4,1.12,2.09c0.6,0.88,1.21,1.77,1.82,2.65c0.77,1.15,2.46,3.39,2.02,4.87    c-0.42,1.26-1.42,2.35-2.3,3.37c-0.23,0.28-0.47,0.56-0.7,0.84c-0.84,0.65-1.68,1.3-2.51,1.95c-2.89,2.37-5.77,4.75-8.66,7.12    c-0.65,0.7-1.21,1.11-1.95,1.63c-0.68,0.48-0.9,0.77-1.4,1.4c-0.19,0.23-0.84,0.7-1.02,0.93c-0.75,0.79-1.02,0.7-1.77,1.49    c-0.18,0.18-1.12,1.59-1.96,2.05l0.42,0.32c0.09,0.05,0.19,0.09,0.28,0.14c2.22,0,3.97,1.66,5.97,2.33    c0.94,0.3,1.89,0.59,2.83,0.89c0.56-0.05,1.12-0.09,1.68-0.14c0.74,0.09,1.49,0.19,2.23,0.28c0.58,0.04,1.51-0.03,1.81-0.56    c1.54-0.11,3.14-0.7,4.58-1.19c0.52-0.21,1.04-0.42,1.56-0.62c1.27-0.79,2.81-1.8,4.33-1.26c0.37,0.37,0.65,1.69,1.13,1.47    c1.27-0.56,2.27-1.65,3.2-2.58c0.51-0.23,1.02-0.47,1.54-0.7c0.69-0.07,1.37-0.13,2.06-0.2c2.18-0.77,3.69-2.37,5.62-3.56    c1.1-0.67,2.29-1.03,3.5-1.41c0.56-0.33,1.12-0.65,1.68-0.98c0.14-0.06,0.27-0.11,0.41-0.17c1.12-0.32,2.24-0.63,3.36-0.95    c1.01-0.63,2.43-0.8,3.63-0.84c0.28-0.14,0.56-0.28,0.84-0.42c0.81-0.81,2.67-1.6,3.72-2.07c0.39-0.19,0.78-0.39,1.17-0.58    c1.49-1.02,2.98-2.05,4.47-3.07c0.54-0.37,2.33-1.48,2.93-1.4c-0.1,0.08,0.8-0.13,0.7-0.05C214.4,98.8,214.51,98.4,214.26,98.14z"/>
            <circle cx="191.71" cy="90.6" r="1.05"/>
        </g>
        <g id="__Sarıoğlan">
            <path d="    M318.71,96.89c-0.21-0.21-0.15-0.41-0.14-0.7c0-0.54-1.36-2.09-1.96-2.09c-0.51-0.74-1.02-1.49-1.54-2.23    c-0.37-0.37-0.75-0.74-1.12-1.12l-0.42-0.42c-0.1,0.02-0.2,0.04-0.31,0.06c-1.15,0.21-2.12,0.1-3.33,0.22    c-1.23,0.13-2.54,0.39-3.76,0.27c-0.98-0.23-1.96-0.46-2.94-0.69c-0.88-0.28-1.77-0.56-2.65-0.84c-1.81-1.39-3.41-3.07-4.9-4.74    c-1.03-1.05-2.07-2.11-3.1-3.16c-0.53-0.83-1.06-1.67-1.59-2.5c-0.76-0.95-1.52-1.91-2.28-2.86c-0.88-0.16-2.42-2.31-2.93-3.07    c-0.52-0.06-0.88-0.61-1.26-0.98c-0.71-0.19-1.28-0.93-1.81-1.41c-0.78-0.71-0.75-0.76-1.26-1.66c-0.51-0.26-0.85-1.04-1.12-1.54    c-0.38-0.14-1.29-1.98-1.52-2.45c-1.07-2.13-1.76-4.35-2.39-6.63c-0.39-0.19-1.11-2.21-1.4-2.79c-0.62-0.39-1.04-0.61-1.74-0.73    c-0.73-0.99-2.69-2.41-3.85-2.9c-1.02-0.43-3.63-1.01-4.33-1.68c-0.72-0.69-1.15-1.23-2.09-1.68c0.13-0.25-0.18-0.69-0.28-0.98    c-0.37-0.1-1.6-1.53-1.96-1.95c-0.28,0.05-0.56,0.09-0.84,0.14c-0.23-0.23-0.47-0.47-0.7-0.7c-0.4-0.5-0.44-1.27-1.13-1.49    c-1.35-1.41-2.7-2.83-4.05-4.24c-0.55-0.61-1.52-1.98-2.28-2.19c-0.56-1.06-1.54-2.03-2.74-2.36c-1.76-0.48-3.73,1.44-5.15,2.17    c-1.06,0.55-2.42,1.65-3.21,2.51c-0.55,0.38-1.11,0.75-1.66,1.13c-1.18,0.79-2.35,1.48-3.51,2.37c-0.28,0.19-0.56,0.37-0.84,0.56    c-1.08,0.87-2.17,1.74-3.26,2.6l0.04,0.19c0.21-0.19,0.81,0.4,1.12,0.56c0.26,0.29,0.53,0.58,0.79,0.86    c0.84,1.03,2.04,1.98,3.15,2.74c0.69,0.33,1.38,0.67,2.07,1c0.18,0.41,1.11,0.64,1.51,0.71c0.52,0.23,1.04,0.46,1.56,0.69    c1.18,0.67,2.13,1.49,3.21,2.23c0.53,0.4,1.06,0.79,1.6,1.19c1.42,1.54,2.62,5.08,2.87,7.05c-0.09,0.65-0.19,1.3-0.28,1.96    c-0.11,0.37-0.22,0.74-0.32,1.1c-0.17,0.68-0.45,1.22-0.79,1.83c-0.65,0.56-1.3,1.12-1.96,1.68c-0.28-0.07-1.43,0.96-1.72,1.19    c-1.6,1.28-3.04,2.59-3.95,4.42c0.04,0.1,0.08,0.2,0.12,0.31c-0.04,1.06,0.57,2.04,1.38,2.73c2.05,1.72,4.95,3.07,5.57,6.02    c0.27,1.27-0.19,3.07-0.8,4.28c-0.18,0.26-0.36,0.52-0.55,0.78c-0.16,0.5-0.31,1-0.47,1.51c-0.11,0.18-0.22,0.36-0.33,0.54    c-0.83,2.01-2.24,3.58-3.86,5.04c-1.57,1.43-3.58,2.09-5.09,3.55c-0.36,0.36-0.22,1.29-0.22,1.75c0,1.47-0.06,2.77-0.28,4.19    c-1.06,1.06-0.8,2.92-1.81,4.05l0.16,0.26c0.27,1.41,1.87,3.17,2.92,4.16c0.44,0.16,0.88,0.33,1.32,0.49    c0.3,0.16,0.83,0.37,1.27,0.59c-0.65-0.39-1.34-0.68-2.07-0.99c-0.48-0.19-0.49-1.39-0.6-1.84c-0.21-0.87,0.31-1.28,0.48-2.12    c0.26-1.31,0.3-2.5,1.08-3.66c0.71-0.92,1.42-1.84,2.13-2.76c-0.15-0.6,0.4-1.82,0.7-2.37c0.31-0.01,0.55-0.39,0.81-0.58    c0.52-0.37,1.04-0.73,1.57-1.1c0.11-0.35,0.4-0.49,0.7-0.7c0.74-0.05,1.49-0.09,2.23-0.14c1.26-0.02,2.28,0.32,3.48,0.58    c0.14,0.04,0.28,0.08,0.43,0.11c0.42-0.42,0.28-1.11,0.7-1.68c0.21-0.16,0.42-0.32,0.63-0.48c0.02-0.03,0.05-0.06,0.07-0.08    c-0.42-0.18-0.31-0.35-0.56-0.7c0.12-0.11,0.24-0.23,0.36-0.34c0.11-0.01,0.22-0.02,0.32-0.03c0.9,0.17-0.08,0.87,0.44,0.96    c0.46-0.01,0.92-0.02,1.38-0.03c0.05,0.19,0.09,0.37,0.14,0.56c0.5,0.33,0.99,0.55,1.54,0.28c-0.04,0.34-0.08,0.67-0.12,1.01    c-0.25,0.36,0.06,0.37,0.4,0.53c-1.08,0.25-1.63,0.65-2.51,1.4c-0.12-0.05-0.24-0.09-0.36-0.14c-0.11-0.05-0.23-0.09-0.34-0.14    c0.25-0.32-0.04-1.12-0.14-1.54c-0.1,0-0.19-0.01-0.29-0.01c-0.37,0-0.52,0.21-0.76,0.48c0.07,0.26,0.15,0.52,0.22,0.78    c-0.04,0.14-0.09,0.29-0.14,0.43c-0.04,0.28-0.22,0.02-0.35,0.25c-0.42,0.62-1.12,0.09-1.88,0.26c-0.22,0.06-0.66,0.99-0.72,1.3    c-0.73,0.73-0.84,1.36-0.84,2.37c-0.22,0.21-0.2,0.41-0.25,0.7c-0.15,0.19-0.3,0.37-0.45,0.56c-0.14,0.01-0.28,0.03-0.42,0.04    c0.04,0.65,0.58,0.87,0.14,1.08c0.4,0.67,1.12,0.96,1.35,1.68c0.3,0.86-0.86,1.33-1.35,1.81c0.09,0.28,0.19,0.56,0.28,0.84    c-0.56,0.65-1.12,1.3-1.68,1.96c-0.03,0.35-0.07,0.71-0.1,1.06c-0.31,0.41-1.26,0.35-1.71,0.47c-0.51,0.16-1.02,0.31-1.53,0.47    c0.74,0.02,1.48,0.04,2.22,0.07c0.45-0.03,1.05,0.07,1.4-0.26c0.37,0,0.74,0,1.12,0c0.42-0.14,0.85-0.29,1.27-0.43    c0.6-0.07,1.2-0.14,1.8-0.21c0.37-0.1,1.22-0.16,1.53,0.08c0.88-0.17,1.62-0.38,2.51-0.42c1.21,0.05,2.42,0.11,3.63,0.16    c0.47,0.09,0.93,0.17,1.4,0.26c1.21-0.14,2.42-0.28,3.63-0.42c1.35,0.14,2.7,0.28,4.05,0.42c0.88,0.38,1.76,0.76,2.64,1.14    c1.04,0.4,2.09,0.79,3.13,1.19c0.4,0.12,0.71,0.08,0.93,0.46c0.32,0,0.59-0.08,0.84,0.14c0.42-0.09,0.84-0.19,1.26-0.28    c0.29-0.05,0.42,0.17,0.7,0c0.67,0.33,1.43,0.64,2.18,0.71c0.74,0.06,2.78,0.21,3.26,0.55c0.51-0.09,1.02-0.19,1.54-0.28    c0.34-0.01,0.73-0.09,0.98,0.14c0.79-0.17,1.58-0.34,2.37-0.51c0.79-0.16,1.59-0.31,2.38-0.47c0.96,0.09,1.82,0.02,2.79,0    c0.36-0.01,0.86-0.12,1.12,0.14c0.64-0.28,2.36-0.7,3.03-0.61c1.6,0.02,3.19,0.04,4.79,0.05c0.74,0.06,1.47,0.12,2.21,0.17    c0.35-0.03,0.65-0.04,0.86-0.31c0.88,0.09,1.77,0.19,2.65,0.28l0.14-0.14c0.47-0.08,0.83-0.74,1.12-1.12    c0.09-0.28,0.19-0.56,0.28-0.84c-0.05-0.33-0.09-0.65-0.14-0.98c-0.55-0.74-1.1-1.37-1.82-1.96c-0.33-0.09-0.65-0.19-0.98-0.28    c-1.25-0.12-2.49-0.24-3.74-0.37c-1.25-0.3-2.49-0.92-3.54-1.41c-1.29-0.6-2-0.21-2.85-1.61c0.02-0.41,0.04-0.82,0.06-1.24    c0.22-0.62,0.79-0.96,1.31-1.32c0.55-0.02,1.09-0.04,1.64-0.06c0.31-0.04,0.74-0.1,0.98,0.14c0.94,0,2.04,0.11,2.93-0.28    c0.79-0.29,1.58-0.58,2.37-0.86c1.3-0.55,2.81-1.94,3.78-2.91c0.33-0.23,0.65-0.47,0.98-0.7c0.7-0.28,1.4-0.56,2.09-0.84    c0.71,0.16,2.52-0.7,3.21-0.98c0.33-0.28,0.65-0.56,0.98-0.84c1.02-0.84,2.19-1.33,3.35-1.96    C318.34,97.31,318.56,97.12,318.71,96.89z"/>
            <circle cx="273.61" cy="93.67" r="1.05"/>
        </g>
        <g id="__Pınarbaşı">
            <path d="    M432.94,189.33c-0.53,0.53-0.91,0.67-1.68,0.7c-0.42,0.05-0.84,0.09-1.26,0.14c-1.2-0.11-2.21-0.26-3.36,0.22    c-0.6,0.21-1.21,0.41-1.81,0.62c-1.6-0.06-3.21-0.12-4.81-0.17c-2.62-0.25-6.37,0.44-8.87,1.15c-0.47,0-0.93,0-1.4,0    c-0.7,0.14-1.4,0.28-2.09,0.42c-0.94,0.4-1.78,0.68-2.65,1.26c-0.14,0.19-0.28,0.37-0.42,0.56c0,0.66-0.95,1.29-1.4,1.68    c-0.13,0.29-0.26,0.59-0.39,0.88c-0.01,0.27-0.02,0.53-0.03,0.79c-0.42,0.93-0.84,1.86-1.26,2.79c-0.55,0.03-1,0.75-1.4,1.12    c-0.14,0.06-0.28,0.12-0.41,0.17c-1.22,0.33-1.98,1.13-3.05,1.73c-0.52,0.25-1.04,0.5-1.56,0.75c-0.65,0.26-1.31,0.53-1.96,0.79    c-0.79,0.25-1.58,0.49-2.37,0.74c-0.84,0.51-1.68,1.02-2.51,1.54c-1.35,1.07-2.7,2.14-4.05,3.21c-0.23,0.28-0.47,0.56-0.7,0.84    c-0.65,0.47-1.3,0.93-1.96,1.4c-0.88,1.1-1.81,2.09-2.79,3.07c-0.53,0.07-0.92,0.55-1.4,0.84c-0.37,0.14-0.74,0.29-1.11,0.43    c-2.48,1.11-5.49,2.82-7.41,4.73c-0.17,0.56-0.35,1.13-0.52,1.69c-0.3,0.59-0.88,0.3-1.44,0.4c-0.33,0.3-0.31,0.55-0.28,0.98    c-0.44,0.25-0.34,0.94-0.56,1.4c-0.32,0.66-0.12,1.09-0.14,1.82c-0.04,1.29-0.4,3.38,0.42,4.47c0.81,1.08,2.09,1.41,2.09,2.79    c0.29,0.29-0.32,1.02-0.42,1.4c-0.52,1.94-2.35,2.89-4.05,3.77c-0.56,0-1.12,0-1.68,0c-0.58-0.58-2-0.16-2.77-0.36    c-0.8-0.21-1.6-0.41-2.4-0.62c-0.65,0-1.3,0-1.96,0c-0.48-0.15-0.96-0.3-1.44-0.45c-1.4-0.32-2.77-0.38-4.15-0.25    c-0.96-0.59-3.34-0.11-4.33,0.28c-0.37,0-0.75,0.01-1.12,0.01c-2.41-0.11-3.52,0.97-5.17,2.64l-0.56,0.71    c-0.23,0.13-0.43,0.34-0.69,0.27c-0.35,0.27-0.69,0.75-1.12,0.84c-0.74,0.84-1.48,1.69-2.22,2.53c-0.56,0.56-1.13,1.12-1.69,1.68    c-0.55,0.09-1.43-0.01-1.82,0.4c-3.34-0.43-6.24,0.11-9.5-1.12c-1.17-0.78-2.34-1.56-3.51-2.34c-1.1-0.44-1.9-0.05-2.9-0.22    c-0.8-0.17-1.59-0.34-2.39-0.51c-0.89-0.44-1.79-0.88-2.68-1.32c-0.41-0.16-0.82-0.33-1.23-0.49c-0.79-0.19-1.58-0.37-2.37-0.56    c-0.6-0.23-1.21-0.47-1.81-0.7c-0.38-0.17-0.75-0.34-1.13-0.51c-1.58-0.31-3.16-0.63-4.74-0.94c-1.52-0.07-2.95,0.13-4.32,0.8    c-0.82,0.4-1.73,1.32-2.66,1.35c-0.84,0.6-1.68,1.21-2.51,1.82c-1.76,0.42-3.1,0.33-4.75-0.7c-0.41-0.39-0.82-0.77-1.23-1.16    c-1.4-1.21-2.72-2.47-3.92-3.86c-0.24-0.56-0.48-1.12-0.72-1.68c-0.36-1.28-0.72-2.57-1.08-3.85c-0.19-1.19-0.38-2.38-0.57-3.57    c-0.24-1.93,0.12-3.68,0.12-5.57c-0.14-0.61-0.28-1.22-0.41-1.83l0.13-0.12c0.75-1.11,2.67-2.09,4.05-2.37    c2.56-0.47,5.12-0.93,7.68-1.4c1.07-0.28,2.14-0.56,3.21-0.84c0.33,0,0.65,0,0.98,0c1.8,0.21,3.52-0.26,5.31-0.54    c0.29-0.04,0.35-0.6,0.41-0.85c-0.56-1.18-0.98-2.45-0.98-3.77c0.47-1.07,0.93-2.14,1.4-3.21c0-2.28,0-4.56,0-6.84    c0.35-0.4,0.44-1.92,0.56-2.51c0.51-0.24,0.66-1.04,0.84-1.54c0.19-0.23,0.39-0.46,0.58-0.69c0.32-0.28,0.64-0.57,0.96-0.85    c0.01-0.34,0.33-0.58,0.56-0.84c-0.09-0.5,0.52-1.07,0.7-1.54c1.05-2.77-1.03-5.52-2.79-7.4c-0.07-0.3-0.13-0.59-0.2-0.89    c0.22-0.72,0.06-1.29,0.06-2.05c0.86-1.81,1.72-3.61,2.58-5.42c0.91-1.55,1.82-3.09,2.73-4.64c0.09-0.61,0.19-1.21,0.28-1.82    c0.1-0.86-0.75-2.42-1.2-3.21c0.02-1.73,0.03-3.47,0.05-5.2c0.06-0.27,0.11-0.54,0.17-0.8c0.05-1.02,0.09-2.05,0.14-3.07    c0-0.77,0.08-1.6-0.4-2.26c0.09-1.02,0.17-2.03,0.26-3.05c0.23-0.47,0.47-0.93,0.7-1.4c0.48-1.25,0.87-2.42,1.63-3.55    c1.34-1.98,3.29-3.59,3.92-5.95l0.1-0.17c0.54-0.36,1.08-0.72,1.61-1.07c0-0.5,0.73-0.89,1.12-1.12c1.29,0,3.35-0.08,4.33-0.98    c0.42-0.74,0.84-1.49,1.26-2.23c1.21-1.66,1.93-3.46,3.8-4.55c0.78-0.45,3.36-0.17,4.3-0.2c1.8-0.06,3.65-1.16,4.61-2.65    c1.04-1.6,1.53-3.39,1.53-5.31c0.23-0.28,0.47-0.56,0.7-0.84c0.19-0.56,0.38-1.12,0.56-1.68c0.21-0.42,1.37-2.39,1.11-2.65    c0.65-0.93,1.3-1.86,1.96-2.79c0.23-0.65,0.47-1.3,0.7-1.96c0.07-0.41,0.14-0.82,0.21-1.23c0.21-0.62,0.42-1.23,0.63-1.85    c0.45-0.57,2.09-2.57,2.09-3.21c0.93-1.16,1.86-2.33,2.79-3.49c0.7-0.98,1.4-1.96,2.09-2.93c0.35-2.14-0.36-4.4,0.18-6.55    c0.23-0.91,0.68-1.89,0.8-2.8c0-0.6,0-1.21,0-1.82c0.14-0.13,0.46-0.78,0.35-0.94l0.3-0.32c0.59,0.41,3.96,0.99,4.65,0.65    c4.07,0.42,7.4-3.12,10.33-5.54c0.47-0.23,0.93-0.47,1.4-0.7c0.33-0.05,0.65-0.09,0.98-0.14c2.47,0.33,4.93,0.65,7.4,0.98    c2.93,0.51,5.87,1.02,8.8,1.54c1.49,0.19,2.98,0.37,4.47,0.56c1.54-0.05,3.07-0.09,4.61-0.14c1.63-0.65,3.26-1.3,4.89-1.96    c0.8-0.49,1.61-0.98,2.41-1.47c0.36-0.22,0.8-0.62,1.22-0.63c0.43-0.56,0.86-0.84,1.4-1.26c0.32-0.24,0.65-0.6,0.7-0.98    c1.96-1.01,3.98-1.91,6.14-2.51c0.52-0.52,3.73-1.52,4.61-1.67c0.51-0.2,1.03-0.4,1.54-0.6c0.96-0.55,3.93-1.57,5.02-1.64    c4.52-0.28,10.67,0.11,14.24,3.07c0.6,0,1.06,0.4,1.54,0.7c0.84,0.47,1.68,0.93,2.51,1.4c2.79,1.58,5.59,3.17,8.38,4.75    c0.93,0.7,1.86,1.4,2.79,2.09c0,0.59,1.59,0.83,1.96,1.26c0.6,0.79,0.74,0.21,1.26,0.98c0.24,0.7,0.05,0.81,0.56,0.84    c0.94,0.2,1.79,0.93,2.51,1.54c0.23,0.19,0.84,0.38,0.84,0.7c0.86,0.43,1.89,0.97,2.51,1.68c0.37,0.23,0.74,0.47,1.12,0.7    c0.88,0.65,1.77,1.3,2.65,1.96c0.2-0.2,0.72,0.19,0.95,0.39c0.84,0.8,1.68,1.61,2.53,2.41c1.46,1.66,2.71,3.2,3.71,5.12    c0.3,0.57,1.05,1.17,1.05,1.86c0.33,0.47,0.65,0.93,0.98,1.4c0.47,0.33,0.93,0.65,1.4,0.98c0.37,0.51,0.74,1.02,1.12,1.54    c0.06,0.22,0.13,0.44,0.19,0.66c0.66,1.42,1.32,2.83,1.99,4.25c0.3,0.6,0.6,1.2,0.89,1.79c0,1.76-0.04,3.43-0.28,5.17    c-0.3,2.18-2.17,4.83-3.47,6.58c-0.38,0.6-0.76,1.2-1.14,1.8c-1.19,0.9-2.39,1.8-3.58,2.7c-1.34,1.11-2.86,1.88-4.24,2.89    c-0.51,0.28-1.02,0.56-1.54,0.84c-0.7,0.84-1.4,1.68-2.1,2.51c-0.16,0.88-0.32,1.75-0.48,2.63c-0.12,0.29-0.24,0.58-0.35,0.86    c0,1.25-0.32,2.39-0.48,3.62c-0.18,0.88-0.36,1.77-0.54,2.65c-0.08,0.22-0.17,0.72-0.38,0.72c-1,0.85-3.49,2.03-4.75,2.37    c-0.42,0.23-0.84,0.47-1.26,0.7c-0.91,0.26-1.98,0.7-2.79,0.7c-0.46,0.44-1.18,1.49-1.95,1.26c-0.37,0.37-1.14,0.84-1.68,0.84    c-0.23,0.14-0.47,0.28-0.7,0.42c-0.94,1.44-0.9,2.04-1.26,3.63c-0.42,1.16-0.84,2.33-1.26,3.49c-0.33,0.75-0.65,1.49-0.98,2.23    c-1.05,1.77-1.49,4.18-2.23,6.28c-0.1,0.28-0.41,1.08-0.7,1.12c0,0.41-0.69,2.12-0.98,2.37c-0.6,2.19-1.21,4.38-1.82,6.56    c-0.22,0-0.27,0.26-0.33,0.46c-0.11,0.41-0.17,1.66,0.05,1.91c-0.51,1.11-0.52,1.75-0.79,2.92c-0.39,1.12-0.78,2.24-1.17,3.36    H432.94z"/>
            <circle cx="359.77" cy="186.12" r="1.05"/>
        </g>
        <g id="__Bünyan">
            <path d="    M276.68,221.03c0.75-1.11,2.67-2.09,4.05-2.37c2.56-0.47,5.12-0.93,7.68-1.4c1.07-0.28,2.14-0.56,3.21-0.84c0.33,0,0.65,0,0.98,0    c1.8,0.21,3.52-0.26,5.31-0.54c0.29-0.04,0.35-0.6,0.41-0.85c-0.56-1.18-0.98-2.45-0.98-3.77c0.47-1.07,0.93-2.14,1.4-3.21    c0-2.28,0-4.56,0-6.84c0.35-0.4,0.44-1.92,0.56-2.51c0.51-0.24,0.66-1.04,0.84-1.54c0.19-0.23,0.39-0.46,0.58-0.69    c0.32-0.28,0.64-0.57,0.96-0.85c0.01-0.34,0.33-0.58,0.56-0.84c-0.09-0.5,0.52-1.07,0.7-1.54c1.05-2.77-1.03-5.52-2.79-7.4    c-0.07-0.3-0.13-0.59-0.2-0.89c0.22-0.72,0.06-1.29,0.06-2.05c0.86-1.81,1.72-3.61,2.58-5.42c0.91-1.55,1.82-3.09,2.73-4.64    c0.09-0.61,0.19-1.21,0.28-1.82c0.1-0.86-0.75-2.42-1.2-3.21c0.02-1.73,0.03-3.47,0.05-5.2c0.06-0.27,0.11-0.54,0.17-0.8    c0.05-1.02,0.09-2.05,0.14-3.07c0-0.77,0.08-1.6-0.4-2.26c0.09-1.02,0.17-2.03,0.26-3.05c0.23-0.47,0.47-0.93,0.7-1.4    c0.48-1.25,0.87-2.42,1.63-3.55c1.34-1.98,3.29-3.59,3.92-5.95l0.1-0.17c-0.6-0.26-1.2-0.51-1.8-0.77    c-0.37-0.2-0.74-0.4-1.11-0.61c-1.15-0.53-2.29-0.88-3.32-1.64c-0.23-0.14-0.45-0.29-0.68-0.43c-0.19-0.19-0.37-0.37-0.56-0.56    c-0.65-0.5-1.92-1.29-2.23-2.09c-0.39-0.98-0.73-1.94-1.12-2.93c0.09-0.79,0.19-1.58,0.28-2.37c0.14-0.65,0.28-1.3,0.42-1.95    c0.7-1.86,1.4-3.72,2.09-5.59c0.47-1.07,0.93-2.14,1.4-3.21c0.67-0.67,1.26-0.98,2.1-1.4c0-0.28,0-0.56,0-0.84l-0.14,0.14    c-0.88-0.09-1.77-0.19-2.65-0.28c-0.21,0.27-0.52,0.28-0.86,0.31c-0.74-0.06-1.47-0.12-2.21-0.17c-1.6-0.02-3.19-0.03-4.79-0.05    c-0.68-0.09-2.39,0.33-3.03,0.61c-0.25-0.25-0.76-0.15-1.12-0.14c-0.98,0.02-1.83,0.09-2.79,0c-0.79,0.16-1.58,0.31-2.38,0.47    c-0.79,0.17-1.58,0.34-2.37,0.51c-0.24-0.23-0.64-0.15-0.98-0.14c-0.51,0.09-1.02,0.19-1.54,0.28c-0.48-0.34-2.53-0.49-3.26-0.55    c-0.76-0.06-1.51-0.38-2.18-0.71c-0.28,0.17-0.41-0.05-0.7,0c-0.42,0.09-0.84,0.19-1.26,0.28c-0.25-0.22-0.51-0.14-0.84-0.14    c-0.22-0.39-0.53-0.35-0.93-0.46c-1.04-0.4-2.09-0.79-3.13-1.19c-0.88-0.38-1.76-0.76-2.64-1.14c-1.35-0.14-2.7-0.28-4.05-0.42    c-1.21,0.14-2.42,0.28-3.63,0.42c-0.47-0.09-0.93-0.17-1.4-0.26c-1.21-0.05-2.42-0.11-3.63-0.16c-0.89,0.04-1.63,0.25-2.51,0.42    c-0.31-0.25-1.16-0.18-1.53-0.08c-0.6,0.07-1.2,0.14-1.8,0.21c-0.42,0.14-0.85,0.29-1.27,0.43c-0.37,0-0.75,0-1.12,0    c-0.35,0.33-0.96,0.23-1.4,0.26c-1.3-0.04-2.6-0.08-3.91-0.12c-0.25-0.37-1.49-0.81-2.02-1.09c-0.44-0.16-0.88-0.33-1.32-0.49    c-1.06-1-2.66-2.75-2.92-4.16l-0.16-0.26c-0.3,0.17-0.61,0.34-0.91,0.51c-0.3,0.25-0.6,0.5-0.9,0.75    c-0.33,0.14-0.65,0.28-0.98,0.42c-0.93,0.08-1.86,0.17-2.8,0.25c-0.51,0.19-1.02,0.39-1.53,0.58c-0.35-0.18-1.98,0.33-2.52,0.38    l-0.41,0.04c-0.26,1.04-1.08,1.03-1.81,1.68c-1.1,0.98-2.56,1.72-3.21,3.07c-0.09,0.51-0.17,1.02-0.26,1.54    c-0.02,0.2-0.24,1.36-0.24,1.36c0.73,1.38,1.05,2.94,2.18,4.23c0.88,0.88,1.77,1.77,2.65,2.65c0.56,0.42,1.12,0.84,1.68,1.26    c0.19,0,0.37,0,0.56,0c0.23,0.14,0.47,0.28,0.7,0.42c0.87,0.48,2.34,1.77,3.35,1.68c0.19,0.09,0.37,0.19,0.56,0.28    c1.08,0.74,2.18,1.29,3.33,1.87c0.37,0.54,0.74,1.08,1.11,1.63c-0.04,0.09-0.07,0.18-0.11,0.27c0.21,0.39,0.43,0.98,0.84,0.99    l0.82,0.39c0.28,0.03,0.45,0.73,0.58,1c0.38,0.74,1.54,1.93,1.54,2.79c0.68,0.68,0.49,1.81,0.72,2.66    c0.13,0.28,0.27,0.56,0.4,0.83c0,1.63-0.18,3.17-0.56,4.75c-0.14,0.23-0.28,0.47-0.42,0.7c0,1.55-0.7,2.91-0.7,4.47    c-0.47,0.65-0.84,2.05-0.84,2.79c0,1.24,2.4,1.95,3.27,2.59c0.03,0.49,0.05,0.97,0.08,1.46c0.19,0.42,0.37,0.84,0.56,1.26    c0,0.24-0.38,0.38-0.56,0.56c-0.04,0.93-0.08,1.86-0.13,2.79c-0.07,0.73,0.75,1.16,1.24,1.54c-0.08,0.78-0.14,1.1-0.7,1.68    c-0.06,0.32-0.13,0.64-0.19,0.96c-0.15,0.47,1.07,1.19,1.45,1.55c0.05,0.28,0.09,0.56,0.14,0.84c-0.09,0.42-0.19,0.84-0.28,1.26    c1.17,1.24,3,1.37,2.94,3.35c0,0.05,0,0.1,0,0.14c-0.48-0.11-0.43,0.28-0.84,0.28c-0.18,0.19-0.36,0.38-0.55,0.58    c-0.43,0.34-1.12-0.57-1.41-0.86c-0.29,0.12-0.57,0.24-0.86,0.37c-0.09,0.11-0.18,0.22-0.27,0.34c-0.73,0.74-0.51,1.49-1.11,2.09    c-0.08,0.35-0.16,0.7-0.24,1.05c-0.62,1.24-0.82,1.69-1.85,2.72c0.41,0.56,0.19,1.11,0.31,1.76c0.15,0.78-0.03,1.39-0.03,2.15    c0.05,1.12,0.09,2.23,0.14,3.35c-0.09,0.28-0.19,0.56-0.28,0.84c-0.25,0.25-0.09,0.52-0.14,0.84c-0.11,0.7-0.75,1.75-0.31,2.39    c0.36,0.57,0.72,1.14,1.08,1.71c0.41,0.25,1.22,0.76,1.61,0.38c0.65,0.14,1.3,0.28,1.96,0.42c0.51,0.05,1.02,0.09,1.54,0.14    c0.47-0.19,0.93-0.37,1.4-0.56c1.22,0.39,2.44,0.79,3.66,1.18c0.5,0.16,1,0.33,1.51,0.49c1.09,1.24,0.7,2,0.7,3.49    c0.19,0.47,0.37,0.93,0.56,1.4c0.61,0.65,1.21,1.3,1.82,1.96c0.39,0.57,0.79,1.14,1.18,1.71c0.37,0.49,0.68,0.85,0.68,1.49    c0.12,0.05,0.24,0.1,0.37,0.15c-0.05,0.04-0.1,0.09-0.14,0.13c-1.02,1.02-2.06,1.87-3.18,2.71c-0.32,0.24-1.14,0.59-1.14,1.07    c-0.26,0.33-1.01,1.28-0.81,1.74c0.68,1.58,1.34,2.37,2.75,2.92c0.36,0.14,0.98,0.67,1.28,0.38c0.6,0.23,2.43,0.61,3.35,1.12    c0.35-0.21,1.06,0.2,1.43,0.33c1.12,0.41,2.38,1.01,3.6,1.06c1,0.04,1.45,0.22,2.37,0.42c0.65,0.04,1.29,0.08,1.94,0.12    c2.31,0.43,4.52,1.13,6.86,1.27c1.09,0.07,1.97-0.58,3.08-0.44L276.68,221.03z"/>
            <circle cx="251.4" cy="153.72" r="1.05"/>
        </g>
        <g id="__Hacılar">
            <path d="    M167.34,245.05c-0.05-0.33-0.09-0.65-0.14-0.98c0.08-0.51,0.17-1.03,0.25-1.54c-0.04-0.32-0.08-0.65-0.11-0.97    c0.17-1.01,0.22-1.64,0.15-2.64c-0.05-0.57-0.01-0.55-0.01-0.85c0-3.13,2.57-2.29,4.19-3.91c0.28,0,0.37-0.49,0.43-0.73    c0.23-0.92,0.46-1.84,0.69-2.76c0.57-0.57,1.05-2.38,1.28-3.2c0.36-1.28,0.72-2.47,0.96-3.78c0-0.23,0-0.47,0-0.7    c-0.26-1.63-0.28-3.24-0.28-4.89c-0.19-0.47-0.37-0.93-0.56-1.4c0-0.68,0.71-1.31,1.12-1.81c0.09-1.49,0.19-2.98,0.28-4.47    c-0.09-0.65-0.19-1.31-0.28-1.96c-0.02-0.66-0.01-0.13-0.43-0.51c-0.14-0.06-0.27-0.12-0.41-0.18c0.26-0.71,0.52-1.41,0.79-2.12    c0.01-0.03-0.86-0.72-0.93-1.1c0.05-0.56,0.09-1.12,0.14-1.68c-0.2-0.86-0.47-1.73-1.12-2.37c0.17-0.57-0.33-1.19-0.56-1.68    c0.14-0.26,0.12-0.22,0.04-0.45c-0.17-0.52-1.52-0.09-1.91,0.06c-0.4,0.27-0.8,0.54-1.2,0.81c-0.33,0.19-0.65,0.37-0.98,0.56    c-0.76,0-1.14,0.87-1.68,1.26c-0.32,0.16-0.64,0.31-0.96,0.47c-0.05,0.03-0.1,0.06-0.16,0.09c-0.13-0.32-0.53-0.39-0.84-0.56    c-0.09-0.28-0.19-0.56-0.28-0.84c-0.89-0.03-1.82-0.11-2.65-0.42c-0.14,0.33-0.28,0.65-0.42,0.98c-0.35,0.59-1.11,0.89-1.68,1.12    c-0.2,0.2-0.31,0.1-0.57,0.03c-0.23-0.24-0.46-0.49-0.69-0.73c-0.25,0,0.07-0.49,0.14-0.7c-0.23-0.05-0.47-0.09-0.7-0.14    c0-1.22-0.61-2.43-0.28-3.63c-0.86-1.13-1.73-2.26-2.59-3.39c0.05-0.54,0.09-1.09,0.14-1.63c0.03-0.93,0.05-1.87,0.08-2.8    c-0.05-0.23-0.09-0.47-0.14-0.7c-0.14-0.15-0.27-0.3-0.41-0.45c0-0.31,0.01-0.63,0.01-0.94c-0.03-0.23-0.24-0.22-0.44-0.28    c-0.3-0.47-0.61-0.42-1.12-0.42c0.24,0.05,1.01-0.14,0.95-0.42c-0.09-0.79-0.19-1.59-0.28-2.38c0.01-0.48,0.21-0.85,0.04-1.34    c-0.09-0.28-0.97-0.35-1.13-0.19c-0.39-0.39-0.76-0.43-1.26-0.28c-0.19-0.37-0.37-0.75-0.56-1.12c-0.6,0-1.21,0-1.82,0    c-0.28-0.09-0.56-0.19-0.84-0.28c-0.19,0.13-0.38,0.25-0.56,0.38c-0.21,0.26,0,1.66,0,2.13c-0.67,0.67-1.41,2.51-1.54,3.49    c-0.14,0.09-0.28,0.19-0.42,0.28c-0.3,0.3-0.9-0.12-1.27-0.24c-0.32-0.06-0.64-0.12-0.96-0.18c-0.44-0.44-1.5-0.46-2.09-0.42    l-0.7-0.14c-0.2,1.24-0.9,2.19-1.26,3.35c0.05,0.09,0.09,0.19,0.14,0.28c-0.35,0.21-1.7,0.89-1.66,1.25    c0.35,2.2,0.21,4.97,1.07,6.94c0.42,0.96,1.56,1.7,1.56,2.84c0.36,0.36,0.98,1,0.98,1.54c0.47,0.63,1.04,1.15,1.26,1.95    c0.81,0.81,1.61,1.26,2.79,1.26c0.22,0.22,0.52,0.5,0.84,0.42c0.38,0.2,1.34,0.76,1.68,0.42c0.31,0.22,0.75,0.42,0.67,0.83    c-0.11,0.57-0.9,2.04-0.57,2.54c0.48,0.74,0.95,1.48,1.43,2.22c0.56,0.42,1.12,0.84,1.68,1.26c0.37,0.51,0.75,1.02,1.12,1.54    c0.46,0.46,0.76,0.68,1.06,1.28c0.16,0.27,0.32,0.54,0.48,0.82c1.02,0.98,2.05,1.96,3.07,2.93c0.23,0.6,0.47,1.21,0.7,1.81    c0.19,0.98,0.37,1.96,0.56,2.94c0.13,0.24,0.27,0.47,0.4,0.71c0.1,0.37,0.2,0.74,0.3,1.11c0.06,0.64,0.13,1.29,0.19,1.93    c0.46,1,1.56,1.63,2.32,2.4c0.28,0.37,0.56,0.74,0.84,1.12c0.45,0.29,0.91,0.59,1.36,0.88c-0.16,0.22-0.06,0.51-0.24,0.53    c-1.77,0.18-3.54,0.36-5.31,0.54c-0.88-0.09-1.77-0.19-2.65-0.28c-0.28,0.14-0.56,0.28-0.84,0.42c-0.39,0.09-1.72-0.48-1.51,0.37    c0.22,0.76,0.61,1.25,1.1,1.86c0.12,0.43,0.24,0.86,0.36,1.28c0.16,0.34,0.62,1.09,0.62,1.09c0.14,0.05,0.28,0.09,0.42,0.14    c0.57,0.57,0.67,1.06,0.7,1.82c0.19,0.6,0.37,1.21,0.56,1.82c0.16,0.46,0.32,0.91,0.48,1.37c0.41,1.01,1.19,1.95,2.19,2.23    c0.29,0.12,0.57,0.24,0.86,0.35c1.05,0.22,2.11,0.44,3.16,0.65c1.2,0.27,1.72,0.7,3.07,0.7    C167.06,246.86,167.34,245.65,167.34,245.05z"/>
            <circle cx="169.01" cy="206.65" r="1.05"/>
        </g>
        <g id="__Melikgazi">
            <path d="M241.63,172.99c0.09-0.42,0.19-0.84,0.28-1.26    c-0.05-0.28-0.09-0.56-0.14-0.84c-0.38-0.36-1.6-1.08-1.45-1.55c0.06-0.32,0.13-0.64,0.19-0.96c0.56-0.58,0.62-0.89,0.7-1.68    c-0.5-0.37-1.31-0.8-1.24-1.54c0.04-0.93,0.08-1.86,0.13-2.79c0.18-0.17,0.56-0.31,0.56-0.56c-0.19-0.42-0.37-0.84-0.56-1.26    c-0.03-0.49-0.05-0.97-0.08-1.46c-0.88-0.64-3.27-1.36-3.27-2.59c0-0.74,0.37-2.14,0.84-2.79c0-1.55,0.7-2.92,0.7-4.47    c0.14-0.23,0.28-0.47,0.42-0.7c0.38-1.57,0.56-3.12,0.56-4.75c-0.13-0.28-0.27-0.56-0.4-0.83c-0.23-0.84-0.03-1.98-0.72-2.66    c0-0.86-1.16-2.05-1.54-2.79c-0.14-0.26-0.3-0.97-0.58-1c-0.75-0.03-2.21,0.02-2.21,1c-0.65,0.11-1.5-0.08-1.96,0.42    c-0.23,0.05-0.47,0.09-0.7,0.14c-0.35-0.06-0.69-0.12-1.04-0.17c-0.35,0.1-0.7,0.21-1.06,0.31c-0.4,0.03-0.8,0.06-1.2,0.08    c-1.77,0.42-4.61,1.5-5.64,2.99c0,0.14,0,0.28,0,0.42c0-0.99-0.72,0.75-0.75,0.82c-0.26,0.84-0.53,1.69-0.79,2.53    c-0.46,0.46-0.64,1.07-0.84,1.68c-0.3,0.3-0.61,0.59-0.91,0.89c-0.58,0.4-1.16,0.8-1.74,1.2c-0.22,0-0.7-0.11-0.7,0.14    c-0.06-0.03-0.11-0.06-0.17-0.09c-0.2,0.43-0.2,0.93,0.03,1.35c0.84,0.56,1.68,1.12,2.51,1.68c0.25,0.21,0.46,0.76,0.33,1    c-0.31,0.62-0.67,1.02-1.17,1.51c-0.75,0.09-1.49,0.19-2.23,0.28c-0.74,0.74-2.44,0.72-3.35,1.26c-0.49,0-0.9,0.11-1.21-0.28    c-0.11,0.05-0.22,0.1-0.33,0.14c-0.27-0.72-0.9-0.95-1.4-1.54c-0.18-0.21-0.32-0.72-0.66-0.49c-1.45,1.04-1.45,3.37-3.95,3    c-0.38-0.06-0.71,0.41-0.98,0.14c-0.56-0.65-1.12-1.3-1.68-1.96c-0.09-0.35-0.18-0.69-0.27-1.04c-0.24-0.37-0.57-0.84-1-0.66    c-1.42,0.63-2.41,1.98-3.07,3.37c-0.33,0.09-0.65,0.19-0.98,0.28c0,0.51,0,1.02,0,1.54c-0.65,0.74-0.56,0.46-0.56,1.4    c-0.27,0.27-0.56,0.72-0.56,1.12c-0.52,0.44-1.48,0.55-1.29,1.27c0.29,0.51,0.58,1.02,0.87,1.53c0,0.61,0,1.21,0,1.82    c0.6,0.51,1.21,1.02,1.82,1.54c-0.18,0.58-0.73,1.36-0.21,1.92c0.21,0.2,0.2,0.12,0.21,0.46c0.28,0.03,1.12,0.1,1.12,0.42    c0.1,0.27,0.55,1.37,0.13,1.41c-1.16,0.04-1.74-0.23-2.78,0.27c-0.37,0.17-0.83,0.26-0.83,0.7c-0.14,0.23-0.28,0.47-0.42,0.7    c0,1.13,0.16,1.8-0.7,2.65c-0.11,0.46-0.19,1.38-0.58,1.65c-0.64,0.34-1.29,0.67-1.93,1.01c-1.14,0.18-2.37,0.11-3.07,1.12    c0,0.44,0.36,0.26,0.12,0.68c-0.61,1.03-1.4,1.8-2.31,2.57c-0.43,0.27-0.87,0.54-1.3,0.8c-0.78,0-1.08,0.33-1.68,0.84    c-0.61,0-1.42,0.05-1.96,0.42c-0.88,0.62-2,1.05-3.07,1.26c-0.33,0.15-0.65,0.29-0.98,0.44c-0.74,0.13-1.49,0.27-2.23,0.4    c-0.38-0.17-0.76-0.35-1.13-0.52c-0.38-0.12-1.05-0.25-1.24-0.59c-0.62-0.12-1.44-0.04-1.96-0.56c-1.62-0.25-3.02-0.95-4.47-1.68    c-0.56-0.33-1.11-0.65-1.67-0.98c-0.37-0.19-0.74-0.37-1.12-0.56c-0.51-0.24-1.02-0.48-1.52-0.72c-0.24-0.25-0.48-0.51-0.72-0.76    c-0.62-0.49-2.46-1.45-3.2-1.45c-0.33-0.19-0.65-0.37-0.98-0.56c-0.09-0.33-0.19-0.65-0.28-0.98c-0.65-0.33-1.3-0.65-1.96-0.98    c-0.6,0.14-1.21,0.28-1.82,0.42c-0.09-0.09-0.19-0.19-0.28-0.28c-0.56-0.56-0.58-1.33-1.47-1.56c-0.08-0.31,0.02-0.28-0.24-0.22    c-0.78,0.13-1.57,0.26-2.35,0.38c-1.12,0.51-2.23,1.02-3.35,1.54c-0.52,0.24-1.05,0.48-1.57,0.72c-0.38-0.16-0.36-0.29-0.41-0.03    c-0.13,0.38-0.26,0.75-0.39,1.13c-0.9,0-1.86,0.25-1.82,1.24c0.14,0.42,0.29,0.85,0.43,1.27c-0.05,0.28-0.09,0.56-0.14,0.84    c-0.09,1.19-0.18,2.75,0.7,3.63c0.59-0.04,1.66-0.02,2.09,0.42c0.32,0.06,0.64,0.12,0.96,0.18c0.37,0.13,0.98,0.54,1.27,0.24    c0.14-0.09,0.28-0.19,0.42-0.28c0.12-0.98,0.86-2.82,1.54-3.49c0-0.47-0.21-1.87,0-2.13c0.19-0.13,0.38-0.25,0.56-0.38    c0.28,0.09,0.56,0.19,0.84,0.28c0.61,0,1.21,0,1.82,0c0.19,0.37,0.37,0.75,0.56,1.12c0.5-0.15,0.87-0.11,1.26,0.28    c0.16-0.16,1.04-0.09,1.13,0.19c0.17,0.5-0.04,0.86-0.04,1.34c0.09,0.79,0.19,1.59,0.28,2.38c0.04,0.21-0.39,0.37-0.71,0.41    c0.37,0,0.63,0.03,0.87,0.42c0.2,0.07,0.41,0.06,0.44,0.28c0,0.31-0.01,0.63-0.01,0.94c0.14,0.15,0.27,0.3,0.41,0.45    c0.05,0.23,0.09,0.47,0.14,0.7c-0.03,0.93-0.05,1.87-0.08,2.8c-0.05,0.54-0.09,1.09-0.14,1.63c0.86,1.13,1.73,2.26,2.59,3.39    c-0.33,1.2,0.28,2.41,0.28,3.63c0.23,0.05,0.47,0.09,0.7,0.14c-0.07,0.21-0.39,0.7-0.14,0.7c0.23,0.24,0.46,0.49,0.69,0.73    c0.25,0.07,0.37,0.17,0.57-0.03c0.57-0.22,1.33-0.52,1.68-1.12c0.14-0.33,0.28-0.65,0.42-0.98c0.84,0.31,1.77,0.39,2.65,0.42    c0.09,0.28,0.19,0.56,0.28,0.84c0.3,0.16,0.7,0.24,0.84,0.56c0.05-0.03,0.1-0.06,0.16-0.09c0.32-0.16,0.64-0.31,0.96-0.47    c0.54-0.39,0.91-1.26,1.68-1.26c0.33-0.19,0.65-0.37,0.98-0.56c0.4-0.27,0.8-0.54,1.2-0.81c0.39-0.15,1.75-0.57,1.91-0.06    c0.09,0.23,0.11,0.19-0.04,0.45c0.22,0.48,0.73,1.1,0.56,1.68c0.64,0.64,0.91,1.52,1.12,2.37c-0.05,0.56-0.09,1.12-0.14,1.68    c0.06,0.38,0.94,1.06,0.93,1.1c-0.26,0.71-0.52,1.41-0.79,2.12c0.14,0.06,0.27,0.12,0.41,0.18c0.41,0.38,0.41-0.16,0.43,0.51    c0.09,0.65,0.19,1.31,0.28,1.96c-0.09,1.49-0.19,2.98-0.28,4.47c-0.41,0.51-1.12,1.13-1.12,1.81c0.19,0.47,0.37,0.93,0.56,1.4    c0,1.65,0.02,3.26,0.28,4.89c0,0.23,0,0.47,0,0.7c-0.24,1.31-0.6,2.5-0.96,3.78c-0.23,0.82-0.71,2.63-1.28,3.2    c-0.23,0.92-0.46,1.84-0.69,2.76c-0.06,0.25-0.15,0.73-0.43,0.73c-1.62,1.62-4.19,0.78-4.19,3.91c0,0.3-0.04,0.28,0.01,0.85    c0.06,1.01,0.01,1.64-0.15,2.64c0.04,0.32,0.08,0.65,0.11,0.97c-0.08,0.51-0.17,1.03-0.25,1.54c0.05,0.33,0.09,0.65,0.14,0.98    c0,0.6-0.53,2.01,0.27,2.14c1.86,0.34,3.72,0.67,5.57,1.01c1.03,0.3,2.06,0.6,3.09,0.9c0.49,0.21,0.98,0.43,1.47,0.65    c1.37,0.39,2.74,0.78,4.12,1.17c1.63-0.05,3.26-0.09,4.89-0.14c0.37-0.14,0.74-0.28,1.12-0.42c0.28,0,0.56,0,0.84,0    c0.28-0.09,0.56-0.19,0.84-0.28c0.23-0.23,0.47-0.47,0.7-0.7c0.33-0.14,0.65-0.28,0.98-0.42c0.35,0.35,1.29-0.42,1.64-0.62    c0.48-0.28,0.74-0.35,1.29-0.35c1.08-0.6,2.15-1.2,3.23-1.8c0.44-0.34,1.25-0.85,1.22-1.42c-0.01-0.73-0.03-1.47-0.04-2.2    c-0.38-1.39-0.91-2.72-1.37-4.06c-0.12-0.35-0.79-1.97-1.07-1.97c-1.5,0-4.19,0.36-5.28-0.6c-0.34-0.36-0.68-0.72-1.02-1.08    c-0.02-0.65-0.13-1.76,0.43-2.23c0.3-0.26,1.04-0.32,1.12-0.42c0.47-0.7,0.93-1.4,1.4-2.1c0-0.43,0.05-1.86,0.28-2.09    c-0.09-0.41-0.35-0.65-0.07-0.93c0.16-0.16,0.15-0.22,0.37-0.1c0.69,0.35,1.7,0.89,2.49,0.89c0.24-0.02,0.48-0.04,0.72-0.05    c0.35-0.78,0.43-2.65-0.3-3.16c0.05-0.23,0.09-0.47,0.14-0.7c-0.18-0.45-0.54-1.28-0.14-1.68c-0.28-0.42-0.56-0.84-0.84-1.26    c0.25-0.31,0.49-0.82,0.84-0.98c-0.06-0.14-0.11-0.28-0.17-0.41c-0.33-0.54-0.76-0.84-1.23-1.26c0-0.96-2.09-2.72-2.79-3.35    c-0.33-0.3-1.69-1.24-1.67-1.67c0.03-1.01,0.4-1.75,0.83-2.66c-0.17,0.04-0.35,0.09-0.52,0.13c-0.59,0.21-0.99,0.74-1.58,1.13    c-0.09-0.09-0.19-0.19-0.28-0.28c-0.59,0.33-0.85,0.78-1.34,0.13c-1.51-2.01-0.17-4.34-0.62-6.55c-0.56-1.12-1.12-2.23-1.68-3.35    c0.06-0.41,0.11-0.83,0.17-1.24c0.08-0.42,0.17-0.85,0.25-1.27c0.19-0.37,0.37-0.75,0.56-1.12c-0.2-0.2-0.09-0.31,0.01-0.56    c0.09-0.23,0.18-0.47,0.27-0.7c0.28-0.28,1.02-1.42,0.92-1.69c-0.4-1.43-1.07-2.7-1.34-4.17c-0.18-0.96-1.05-1.32-0.2-1.99    c0.45-0.34,1.03-0.43,1.59-0.66c0-0.39,1.44-1.42,1.82-1.38c1.07,0.1,2.15,0.21,3.22,0.31c0.09,0.5,0.17,0.99,0.26,1.49    c0.81,0.81,1.01,1.8,1.81,2.65c0.33-0.05,0.65-0.09,0.98-0.14c1.03,0.73,1.66,1.62,2.23,2.79c0.37,0.51,0.74,1.02,1.12,1.54    c0.19,0.47,0.37,0.93,0.56,1.4c0.54,0.61,1.54,1.66,1.54,2.51c0.05-0.05,0.09-0.09,0.14-0.14c0.36,0.03,0.56,0.28,0.71,0.15    c0.77-0.59,1.33-1.22,1.85-2.01c0.22-0.2,0.43-0.39,0.65-0.59c0.31-0.42,0.84-1.19,1.39-1.19c0.75-0.04,1.5-0.09,2.24-0.13    c0.43,0.38,0.76,0.43,1.32,0.53c0.03,0.1,0.05,0.21,0.08,0.31c0.24-0.19,0.49-0.38,0.73-0.58c0.31-0.09,0.63-0.17,0.94-0.26    c0.48,0,0.46,0.95,1.1,0.64c0.15-0.08,0.52-0.14,0.36-0.31c-0.38-0.38-0.25-0.72-0.48-1.17c-0.19-0.23-0.37-0.47-0.56-0.7    c0-0.26-0.02-0.68,0.14-0.84c-0.05-0.28-0.09-0.56-0.14-0.84c-0.16-0.29-0.33-0.58-0.49-0.88c-0.22-0.48-0.63-1.32-0.21-1.78    c0.05-0.51,0.09-1.02,0.14-1.54c0.46-0.35,0.87-0.82,1.46-0.59c1.05,0.38,2.1,0.77,3.15,1.15c1.07,0.73,1.33,2.37,2.93,2.37    c0.05,0.35,0.19,0.68,0,0.98c1.04,1.25,2.21,2.21,3.35,3.35c1.24,0.12,2.35,0.37,3.63,0.17c0.54-0.09,0.66-0.96,1.2-0.55    c0.31,0.25,0.39,0.24,0.48,0.67c0.05-0.05,0.09-0.09,0.14-0.14c0.25-0.91,0.59-1.43,1.26-2.09c0.09-0.33,0.19-0.65,0.28-0.98    c-0.09-1.26-0.19-2.51-0.28-3.77c0.18-0.37,0.33-0.83,0.72-0.9c0.54-0.09,2.25,0,2.64,0.34c0.33-0.05,0.65-0.09,0.98-0.14    c0.46-0.01,1.22,0.07,1.52-0.29c0.56-0.69,1.13-1.39,1.69-2.08c0.33-0.7,0.65-1.4,0.98-2.09c0.14-0.23,0.28-0.47,0.42-0.7    c1.04-1.04,1.23-1.48,1.85-2.72c0.08-0.35,0.16-0.7,0.24-1.05c0.6-0.6,0.38-1.35,1.11-2.09c0.09-0.11,0.18-0.22,0.27-0.34    c0.29-0.12,0.57-0.24,0.86-0.37c0.29,0.29,0.98,1.2,1.41,0.86c0.18-0.19,0.36-0.38,0.55-0.58c0.41,0,0.36-0.39,0.84-0.28    c0-0.05,0-0.1,0-0.14C244.63,174.37,242.8,174.23,241.63,172.99z M234.11,147.65c-0.39-0.21-0.48-0.37-0.94-0.27    c-0.97-0.77-2.22-1.05-3.26-1.61c0-0.43-0.63-0.86-0.96-1.06c-1.04-0.64-1.71-0.45-2.75-1.39c0.07-0.1,0.13-0.21,0.2-0.31    c0.23-0.72,0.75-0.82,1.39-1.07c0.35-0.14,0.49,0.48,0.59,0.77c0.82,0,1.03,0.52,1.68,1.12c0.4,0.36,0.99,0.98,1.5,0.96    c0.49,0.74,1.34,1.08,2.03,1.5c0.41,0.22,0.58,0.64,0.64,1.04C234.23,147.47,234.35,147.78,234.11,147.65z"/>
            <circle cx="177.53" cy="191.43" r="1.05"/>
        </g>
        <g id="__Talas">
            <path d="    M198.59,244.76c-0.01-0.73-0.03-1.47-0.04-2.2c-0.38-1.39-0.91-2.72-1.37-4.06c-0.12-0.35-0.79-1.97-1.07-1.97    c-1.5,0-4.19,0.36-5.28-0.6c-0.34-0.36-0.68-0.72-1.02-1.08c-0.02-0.65-0.13-1.76,0.43-2.23c0.3-0.26,1.04-0.32,1.12-0.42    c0.47-0.7,0.93-1.4,1.4-2.1c0-0.43,0.05-1.86,0.28-2.09c-0.09-0.41-0.35-0.65-0.07-0.93c0.16-0.16,0.15-0.22,0.37-0.1    c0.69,0.35,1.7,0.89,2.49,0.89c0.24-0.02,0.48-0.04,0.72-0.05c0.35-0.78,0.43-2.65-0.3-3.16c0.05-0.23,0.09-0.47,0.14-0.7    c-0.18-0.45-0.54-1.28-0.14-1.68c-0.28-0.42-0.56-0.84-0.84-1.26c0.25-0.31,0.49-0.82,0.84-0.98c-0.06-0.14-0.11-0.28-0.17-0.41    c-0.33-0.54-0.76-0.84-1.23-1.26c0-0.96-2.09-2.72-2.79-3.35c-0.33-0.3-1.69-1.24-1.67-1.67c0.03-1.01,0.4-1.75,0.83-2.66    c-0.17,0.04-0.35,0.09-0.52,0.13c-0.59,0.21-0.99,0.74-1.58,1.13c-0.09-0.09-0.19-0.19-0.28-0.28c-0.59,0.33-0.85,0.78-1.34,0.13    c-1.51-2.01-0.17-4.34-0.62-6.55c-0.56-1.12-1.12-2.23-1.68-3.35c0.06-0.41,0.11-0.83,0.17-1.24c0.08-0.42,0.17-0.85,0.25-1.27    c0.19-0.37,0.37-0.75,0.56-1.12c-0.2-0.2-0.09-0.31,0.01-0.56c0.09-0.23,0.18-0.47,0.27-0.7c0.28-0.28,1.02-1.42,0.92-1.69    c-0.4-1.43-1.07-2.7-1.34-4.17c-0.18-0.96-1.05-1.32-0.2-1.99c0.45-0.34,1.03-0.43,1.59-0.66c0-0.39,1.44-1.42,1.82-1.38    c1.07,0.1,2.15,0.21,3.22,0.31c0.09,0.5,0.17,0.99,0.26,1.49c0.81,0.81,1.01,1.8,1.81,2.65c0.33-0.05,0.65-0.09,0.98-0.14    c1.03,0.73,1.66,1.62,2.23,2.79c0.37,0.51,0.74,1.02,1.12,1.54c0.19,0.47,0.37,0.93,0.56,1.4c0.54,0.61,1.54,1.66,1.54,2.51    c0.05-0.05,0.09-0.09,0.14-0.14c0.36,0.03,0.56,0.28,0.71,0.15c0.77-0.59,1.33-1.22,1.85-2.01c0.22-0.2,0.43-0.39,0.65-0.59    c0.31-0.42,0.84-1.19,1.39-1.19c0.75-0.04,1.5-0.09,2.24-0.13c0.43,0.38,0.76,0.43,1.32,0.53c0.03,0.1,0.05,0.21,0.08,0.31    c0.24-0.19,0.49-0.38,0.73-0.58c0.31-0.09,0.63-0.17,0.94-0.26c0.48,0,0.46,0.95,1.1,0.64c0.15-0.08,0.52-0.14,0.36-0.31    c-0.38-0.38-0.25-0.72-0.48-1.17c-0.19-0.23-0.37-0.47-0.56-0.7c0-0.26-0.02-0.68,0.14-0.84c-0.05-0.28-0.09-0.56-0.14-0.84    c-0.16-0.29-0.33-0.58-0.49-0.88c-0.22-0.48-0.63-1.32-0.21-1.78c0.05-0.51,0.09-1.02,0.14-1.54c0.46-0.35,0.87-0.82,1.46-0.59    c1.05,0.38,2.1,0.77,3.15,1.15c1.07,0.73,1.33,2.37,2.93,2.37c0.05,0.35,0.19,0.68,0,0.98c1.04,1.25,2.21,2.21,3.35,3.35    c1.24,0.12,2.35,0.37,3.63,0.17c0.54-0.09,0.66-0.96,1.2-0.55c0.31,0.25,0.39,0.24,0.48,0.67c0.05-0.05,0.09-0.09,0.14-0.14    c0.25-0.91,0.59-1.43,1.26-2.09c0.09-0.33,0.19-0.65,0.28-0.98c-0.09-1.26-0.19-2.51-0.28-3.77c0.18-0.37,0.33-0.83,0.72-0.9    c0.54-0.09,2.25,0,2.64,0.34c0.33-0.05,0.65-0.09,0.98-0.14c0.46-0.01,1.22,0.07,1.52-0.29c0.56-0.69,1.13-1.39,1.69-2.08    c0.33-0.7,0.65-1.4,0.98-2.09l0.42-0.7c0.41,0.56,0.19,1.11,0.31,1.76c0.15,0.78-0.03,1.39-0.03,2.15    c0.05,1.12,0.09,2.23,0.14,3.35c-0.09,0.28-0.19,0.56-0.28,0.84c-0.25,0.25-0.09,0.52-0.14,0.84c-0.11,0.7-0.75,1.75-0.31,2.39    c0.36,0.57,0.72,1.14,1.08,1.71c0.41,0.25,1.22,0.76,1.61,0.38c0.65,0.14,1.3,0.28,1.96,0.42c0.51,0.05,1.02,0.09,1.54,0.14    c0.47-0.19,0.93-0.37,1.4-0.56c1.22,0.39,2.44,0.79,3.66,1.18c0.5,0.16,1,0.33,1.51,0.49c1.09,1.24,0.7,2,0.7,3.49    c0.19,0.47,0.37,0.93,0.56,1.4c0.61,0.65,1.21,1.3,1.82,1.96c0.39,0.57,0.79,1.14,1.18,1.71c0.37,0.49,0.68,0.85,0.68,1.49    c0.12,0.05,0.24,0.1,0.37,0.15c-0.05,0.04-0.1,0.09-0.14,0.13c-1.02,1.02-2.06,1.87-3.18,2.71c-0.32,0.24-1.14,0.59-1.14,1.07    c-0.26,0.33-1.01,1.28-0.81,1.74c0.68,1.58,1.34,2.37,2.75,2.92c0.36,0.14,0.98,0.67,1.28,0.38l0.98,0.28    c-0.26,0.29-0.53,0.58-0.79,0.87c-0.57,0.71-3.51,0.91-4.49,1.06c-1.03,0.33-2.07,0.67-3.1,1c-1.77,0.47-3.54,0.93-5.31,1.4    c-0.28,0-0.56,0-0.84,0c-0.88,0.05-1.77,0.09-2.65,0.14c-0.33-0.05-0.65-0.09-0.98-0.14c-0.89-0.11-1.74,0-2.51,0.42    c-1.73,0.96-3.31,4.69-4.05,6.56c-0.99,1.53-1.98,3.06-2.96,4.59c-0.45,1-0.9,2-1.34,3.01c-0.19,0.31-0.64,0.58-0.58,0.92    c-0.05,0-0.1-0.01-0.14-0.01c-0.28-0.02-0.35-0.06-0.55,0.15c-0.23-0.05-0.47-0.09-0.7-0.14c-0.88-0.6-1.5-1.38-2.09-2.23    c-0.23-0.28-0.47-0.56-0.7-0.84c-0.7-0.42-1.4-0.84-2.09-1.26c-0.22,0.22-0.41,0.09-0.7,0.14c-0.69,0.11-1.91,0.74-2.17,1.27    c-0.19,0.41,0,1.03-0.34,1.38c0.05,0.23,0.09,0.47,0.14,0.7c0.33,0.54,0.82,1.08,0.63,1.66c-0.07,0.33-0.14,0.66-0.21,0.99    c-0.23,0.37-0.47,0.74-0.7,1.12c-0.27,0.28-0.74,0.58-0.7,0.98c-1.14,0.71-1.98,1.42-2.93,2.37c-0.6-0.02-2.37,0.2-2.79,0.56    c-0.44-0.01-1.75,0.26-2.09,0.56c-0.56,0.05-2.18,0.07-2.51,0.42c-0.65,0.04-1.78-0.06-2.23,0.42c-0.79-0.21-1.67-0.55-2.5-0.46    c-0.33,0.06-0.66,0.12-0.99,0.18L198.59,244.76z"/>
            <circle cx="192.13" cy="196.59" r="1.05"/>
        </g>
        <g id="__Develi">
            <path d="    M281.41,313.18c-0.47,0.05-1.39-0.87-1.79-1.29c-0.21-0.26-1.84-0.14-2.52-0.09c-0.36-0.27-0.87-0.08-1.26-0.06    c-0.7,0.02-1.39,0.04-2.09,0.06c-0.37,0.09-0.75,0.19-1.12,0.28c-1.3,0.1-2.48,0.07-3.77,0.28c-0.79-0.15-1.58-0.3-2.37-0.45    c-2.77-0.65-2.66-4.66-2.66-6.81c-0.19-0.37-0.37-0.74-0.56-1.12c-0.44-0.67-0.91-1.18-1.54-1.68c-0.42-0.15-0.84-0.3-1.27-0.45    c-1.11-0.03-2.23-0.07-3.34-0.1c-1.16,0.28-2.33,0.56-3.49,0.84c-0.31,0.17-0.62,0.33-0.93,0.5c-0.48,0.3-0.96,0.6-1.44,0.89    c-0.7,0.23-1.4,0.47-2.09,0.7c-0.65-0.05-1.3-0.09-1.96-0.14c-0.48-0.86-2.28-1.09-3.2-1.44c-3.38-1.29-6.99-1.64-10.28-3.26    c-0.76-0.38-2.56-2.04-2.8-2.81c-1-1.08-2-2.16-3-3.25c-0.6-1.16-1.21-2.33-1.82-3.49c-0.97-0.97-2.06-2.06-3.21-2.79    c-0.18-0.48-1.61-2-2.09-2.33c-0.73-1.45-1.46-2.91-2.19-4.36c-0.47-1.31-0.94-2.63-1.41-3.94c-0.39-1.12-0.89-2.28-1.06-3.49    c-0.18-1.3,0.05-2.73-0.38-4.04c0.21-0.25,0.13-0.8,0.1-1.12c-0.03-0.88-0.07-1.77-0.1-2.65c-0.51-1.54-1.02-3.07-1.54-4.61    c-0.42-0.7-0.84-1.4-1.26-2.09c-0.7-0.7-1.4-1.4-2.09-2.09c-0.6-0.88-1.21-1.77-1.82-2.65c-0.37-0.37-0.74-0.74-1.12-1.12    c-0.37-0.23-0.75-0.47-1.12-0.7c-0.63-0.5-1.25-1.01-1.88-1.51c-1.05-1.03-2.1-2.06-3.15-3.09c-0.94-0.71-2.04-1.18-2.71-2.07    l-0.23-0.3l-0.31-0.57c0.04,0.57-0.78,1.08-1.22,1.42c-1.08,0.6-2.15,1.2-3.23,1.8c-0.55,0-0.81,0.08-1.29,0.35    c-0.35,0.21-1.29,0.97-1.64,0.62c-0.33,0.14-0.65,0.28-0.98,0.42c-0.23,0.23-0.47,0.47-0.7,0.7c-0.28,0.09-0.56,0.19-0.84,0.28    c-0.28,0-0.56,0-0.84,0c-0.37,0.14-0.75,0.28-1.12,0.42c-1.63,0.05-3.26,0.09-4.89,0.14c-1.37-0.39-2.74-0.78-4.12-1.17    c-0.49-0.22-0.98-0.43-1.47-0.65c-1.03-0.3-2.06-0.6-3.09-0.9c-1.86-0.34-3.72-0.67-5.57-1.01l-0.55-0.32    c-1.35,0-1.87-0.42-3.07-0.7c-1.05-0.22-2.11-0.44-3.16-0.65c-0.29-0.12-0.57-0.24-0.86-0.35c-1.01-0.29-1.78-1.23-2.19-2.23    c-0.16-0.46-0.32-0.91-0.48-1.37c-0.19-0.6-0.37-1.21-0.56-1.82c-0.02-0.76-0.13-1.25-0.7-1.82c-0.14-0.05-0.28-0.09-0.42-0.14    l-0.28,0.28c-0.14,0.23-0.28,0.47-0.42,0.7c0,0.94-0.98,1.58-1.6,2.16c-0.49,0.63-0.98,1.26-1.47,1.89    c-0.88,0.74-1.77,1.49-2.65,2.23c-0.51,0.56-1.02,1.12-1.54,1.68c-1.02,0.79-2.05,1.58-3.07,2.37c-0.42,0.6-0.84,1.21-1.26,1.81    c-0.84,0.88-1.68,1.77-2.51,2.65c-0.23,0.51-0.47,1.02-0.7,1.54c-0.79,1.44-1.58,2.89-2.37,4.33c-1.1,1.42-1.33,3.32-1.58,5.02    c-0.08,0.28-0.17,0.56-0.25,0.84c-0.04,0.37-0.28,1.97-0.69,1.96l0.66-1.54c-0.17,0.51-0.35,1.03-0.52,1.54    c0.05,0.33,0.09,0.65,0.14,0.98c-0.22,0.22-0.14,0.54-0.14,0.84c-0.45,0.45-0.03,2.26-0.84,3.07c-0.17,0.85,0.08,1.85-0.56,2.65    c0,0.88,0,1.77,0,2.65c0,0.93,0,1.86,0,2.79c0,0.35-0.11,0.87,0.14,1.12c0,1.1-0.36,2.42,0.14,3.35c1.16,0.42,2.33,0.84,3.49,1.26    c0.33,0.28,0.65,0.56,0.98,0.84c0.35-0.35,0.91,0.63,1.12,0.84c0.23-0.14,0.47-0.28,0.7-0.42c0.07,0.11,0.15,0.21,0.22,0.32    c0.2,0.31,0.41,0.62,0.61,0.93c-0.02,0.43-0.03,0.99-0.41,1.26c0.08,0.29,0.39,1.29-0.14,1.12c0.07,0.02,0.13,0.04,0.2,0.05    c0.34,0.35,0.66,0.53,0.91,0.94c0.33,0.58-1.09,0.95-0.28,1.4c0.23,0.14,0.36,0.34,0.57,0.13c0.45-0.72,0.64-1.41,1.4-1.82    c0.33,0.05,0.65,0.09,0.98,0.14c-0.05,0.05-0.09,0.09-0.14,0.14c0.07,1.23-0.62,1.35-1.21,2.4c-0.15,0.46-0.31,0.92-0.46,1.38    c-0.15,0.36-0.27,1.09-0.69,1.13c-0.43,0.06-0.78-0.29-1.12-0.01c-0.81-0.74-1.48-2.02-2.54-2.28c-0.22-0.08-0.45-0.15-0.67-0.23    c-0.79,0.19-1.58,0.37-2.37,0.56c-0.47-0.11-1.87-1.2-2.23-0.84c0,1.15-0.13,2.65,0,3.91c0.05,0.42,0.09,0.84,0.14,1.26    c-0.05,0.28-0.11,0.56-0.16,0.85c0.01,0.32,0.01,0.65,0.02,0.97c-0.25,1.47-0.61,3.13-0.28,4.61c0.12,0.54,1.82,2.79,2.37,2.79    c1.02-0.49,2.24-0.47,3.35-0.28c1.3,0.09,2.61,0.19,3.91,0.28c0.75,0.18,1.5,0.36,2.26,0.54c0.55,0.01,1.1,0.01,1.65,0.02    c1.44,0.23,2.89,0.47,4.33,0.7c2.23,0.56,4.47,1.12,6.7,1.68c0.74,0.33,1.49,0.65,2.23,0.98c1.58,0.47,3.22,2.3,4.49,3.32    c0.6,0.38,1.2,0.77,1.79,1.15c0.92,0,2.61,0.74,3.35,1.26c1.21,0.37,2.42,0.75,3.63,1.12c0.45,0.17,0.9,0.34,1.35,0.51    c0.8,0.37,1.56,0.55,2.42,0.74c0.65,0.28,1.3,0.56,1.95,0.85c0.79,0.32,1.59,0.65,2.38,0.97c1.14,0,1.87,0.57,2.93,0.84    c1.3,0.37,2.61,0.75,3.91,1.12c1.06,0.17,2.1,0,3.21,0c0.6,0.23,1.21,0.47,1.81,0.7c0.9,0.44,1.85,0.92,2.59,1.6    c0.21,0.26,0.42,0.51,0.62,0.77c0.27,0.78,0.57,2.36,0,2.93c0.42,1.68-1.23,4.13-1.61,5.88c0.02,0.51,0.05,1.02,0.07,1.52    c-0.28,1.12-0.56,2.23-0.84,3.35c-0.1,0.97-0.4,2.26-0.98,3.07c-0.28,0.28-0.56,0.56-0.84,0.84c-0.5,0.94-0.99,1.88-1.49,2.81    c-0.3,0.19-0.75,1.42-0.75,1.79c-0.54,0.86-1.6,3.01-1.34,4.01c0.35,0.71,0.71,1.43,1.06,2.14c1.54,0.74,3.07,1.49,4.61,2.23    c0.77,0.35,1.35,0.84,2.23,0.84c0.67,0.61,1.35,0.91,2.09,1.4c1.4,2,2.79,4,4.19,6c2.17,2.46,5.18,3.84,7.26,6.28    c0.7,0.51,1.4,1.02,2.09,1.54c0.51,0.56,1.02,1.12,1.54,1.68c0.36,0,0.62,0.17,0.93,0.35c0.44,0.26,1.48,0.96,1.81,0.77    c1.94-1.24,3.2-3.26,4.8-4.89c0.47-0.48,1-1.66,1.68-1.82c0.19-0.33,0.37-0.65,0.56-0.98c0.42-2,0.84-4,1.26-6    c1.3-1.54,2.61-3.07,3.91-4.61c1.35-0.65,2.69-1.31,4.04-1.96c2.03-0.98,4.56-2.58,6.71-3.06c0.37-0.19,0.75-0.37,1.12-0.56    c1.21-0.37,2.42-0.73,3.64-1.1c0.49-0.09,1.81-0.16,2.09-0.44c1.99,0,4.08-0.58,6-0.98c0.28,0.05,0.56,0.09,0.84,0.14    c0.51-0.07,1.02-0.14,1.54-0.21c1.68-0.58,3.35-1.16,5.03-1.74c0.56-0.23,1.12-0.47,1.68-0.7c1.02-0.42,2.05-0.84,3.07-1.26    c0.51-0.42,1.02-0.84,1.54-1.26c0.42-0.09,0.84-0.19,1.26-0.28c0.7-0.5,1.41-1,2.11-1.51c1.02-0.71,2.03-1.41,3.05-2.12    c1.4-1.44,2.8-2.89,4.2-4.33c0.77-0.77,2.45-2.07,2.76-2.98c0.48-1.39,0.19-3.19-0.11-4.56c0.07-0.87,0.13-1.75,0.2-2.62    c-0.13-0.73,0.18-2.93-0.34-3.38c0.05-0.79,0.09-1.58,0.14-2.37c-0.07-1.05,1.19-3.76,1.74-4.77c0.39-0.7,0.82-1.53,0.64-2.35    L281.41,313.18z"/>
            <circle cx="176.69" cy="273.68" r="1.05"/>
        </g>
        <g id="__Yeşilhisar">
            <path d="    M143.25,314.91c-0.74-1.14-3.83-2.83-5.24-2.83c-0.65-0.47-1.3-0.93-1.95-1.4c-0.5-0.25-0.97-1.82-1.4-1.82l0.56-0.56    c-0.55,0-2.25-2.25-2.37-2.79c-0.33-1.48,0.03-3.14,0.28-4.61c-0.01-0.32-0.01-0.65-0.02-0.97c0.05-0.28,0.11-0.56,0.16-0.85    c-0.05-0.42-0.09-0.84-0.14-1.26c-0.13-1.26,0-2.76,0-3.91l0.14-0.42c-0.64,0.46-0.72-0.19-1.4-0.14    c-0.28,0.05-0.56,0.09-0.84,0.14c-0.22-0.36-0.74-0.49-1.12-0.7c-1.27,0-1.87-0.27-2.92-1.13c-0.91-0.75-0.48-2.49-0.29-3.47    c-0.36-0.32-0.42-1.33-0.42-1.81c-0.62-0.62-0.73-1.19-1.12-1.96c-0.19-0.19-0.37-0.37-0.56-0.56c0-0.51,0-1.02,0-1.54    c-0.79-0.79-0.89-2.07-0.7-3.21c0.42-1.12,0.84-2.23,1.26-3.35c0.28-1.16,0.74-2.39,1.71-3.16c0.49-0.39,0.67,0.45,0.8,0.93    c0.6,0,1.09,0.66,1.4,1.12c0.51,0.25,0.83,0.28,1.4,0.28c0.28,0.33,0.56,0.65,0.84,0.98c0.31,0.31,0.06,0.99,0,1.4    c0.69,0.61-0.01,2.8-0.14,3.63c0.14,0.74,0.28,1.49,0.42,2.23c0.28,0.33,0.56,0.65,0.84,0.98c0.53,0.53,1.1,0.08,1.88,0.77    l-0.07-0.21c-0.5-0.93-0.14-2.25-0.14-3.35c-0.25-0.25-0.14-0.77-0.14-1.12c0-0.93,0-1.86,0-2.79c0-0.88,0-1.77,0-2.65    c0.64-0.8,0.39-1.8,0.56-2.65c0.81-0.81,0.39-2.62,0.84-3.07c0-0.3-0.08-0.62,0.14-0.84c-0.05-0.33-0.09-0.65-0.14-0.98l-0.14,0    c-2.95,0-5.37-1.93-7.82-3.35c-0.98-0.42-1.4-0.42-2.09-1.4c-1.39-1.15-2.76-2.42-4.19-3.63c-0.33-0.33-0.65-0.65-0.98-0.98    c-0.86-0.59-2.21-0.5-3.21-0.56c-0.47-0.47-1.46-0.22-2.07-0.37c-1.8-0.45-3.55-1.38-4.08-3.26c-0.09-0.23-0.19-0.47-0.28-0.7    c-0.98-0.98-1.29-2.22-2.37-3.07c-0.24-0.19-1.2-0.51-1.06-0.82l-0.76,0.21c-1.07-0.08-2.13-0.15-3.2-0.23    c-1.82-0.12-4.18,0.26-5.98,0.66c-1.07,0.23-2.2,0.51-3.1,1.02c-0.84,0.23-1.68,0.47-2.51,0.7c-0.64,0.14-1.29,0.28-1.93,0.42    c-1.05,0.36-2.09,0.73-3.14,1.09c-2.13,0.66-4.25,1.32-6.38,1.98c-2.09,0.93-4.19,1.86-6.28,2.79c-0.93,0.51-1.86,1.02-2.79,1.54    c-0.45,0.16-1.72,0.52-1.96,0.84c-0.84,0.06-1.05,0.22-1.82,0.56c-1.02,0.38-2.04,0.77-3.06,1.15c-0.7,0.18-1.4,0.35-2.1,0.53    c-0.65,0.19-1.3,0.37-1.96,0.56c-1.4,0.27-2.81,0.99-3.35,2.37c-0.24,0.61-1.15,1.33-1.1,1.95c0.44,3.82,1.62,7.42,2.36,11.18    c0.28,1.44,0.56,2.89,0.84,4.33c0.65,0.65,2.72,2.59,3.63,2.51c0.37,0.33,0.74,0.65,1.12,0.98c0.13,0.24,0.26,0.47,0.39,0.71    c0.41,0.45,1.01,0.75,1.56,0.96c0.29,0.33,0.58,0.66,0.87,0.99c0.96,0.72,1.59,1.98,2.34,2.92c0.51,0.84,1.02,1.68,1.54,2.51    c0.64,1.14,1.49,2.18,1.82,3.49c0.15,0.6,0.83,1.38,0.42,1.96c0.99,1.89,2.26,3.43,3.49,5.17c0.56,0.88,1.12,1.77,1.68,2.65    c0.49,2.01,1.16,3.91,1.54,6c0.36,2.01,0.08,4.11,0.64,6.11c0.25,0.57,0.51,1.14,0.76,1.71c0.12,0.62,0.23,1.23,0.35,1.85    c0.12,0.32,0.23,0.63,0.35,0.95c0.28,0.19,0.56,0.37,0.84,0.56c0.57,0.95,1.15,1.91,1.72,2.86c1.23,1.68,2.39,3.1,4.31,4.35    c0.73,0.31,1.46,0.62,2.19,0.93c1.03,0.45,2.06,0.9,3.09,1.35c1.02,0.12,2.03,0.23,3.05,0.35c0.41,0.05,0.89,0.26,1.28,0.07    c0.69,0.06,1.38,0.13,2.06,0.19c0.62,0.06,1.23,0.11,1.85,0.17c1.64,0.15,3.38,0.29,5.02,0.06c3.68,0.09,7.35,0.19,11.03,0.28    c0.25,0.05,0.51,0.09,0.76,0.14c0.58-0.36,1.41,0.05,2.03,0.16c0.6,0.09,1.21,0.18,1.81,0.27c0.56,0.19,1.12,0.37,1.68,0.56    c0.54,0.12,1.42,1.28,1.65,0.69c0.56-1.45,0.25-3.1,0.02-4.6c-0.13-0.84-0.08-1.67,0-2.51c-0.23-0.23-0.15-0.65-0.21-0.96    c-0.23-1.06-0.35-1.86-0.21-2.95c-0.64-0.64-0.68-2.2-0.68-3.05c0-1.17-1.8-5.08,0.68-4.6c4,1.02,8.01,2.03,12.01,3.05    c1.22,0.1,2-0.79,2.79-1.54c0.97-0.91,2.34-2.44,2.9-3.59C143.16,316.13,143.43,315.19,143.25,314.91z M106.59,332.19    c-0.4-0.5-0.8-1-1.2-1.5c-0.15-0.1,0.07-1.02,0.36-1.09c0.79-0.19,1.41,0.55,2.1,0.36c0.28,0.33,0.56,0.65,0.84,0.98    c-0.38,0.96-0.89,2.12,0.14,2.93C107.87,333.47,107.28,332.94,106.59,332.19z M122.09,264.6c-0.32-0.55-0.68-0.63-1.27-0.8    c-0.1-0.03,0.15-1.35,0.1-1.71c-0.03-0.23-0.06-0.47-0.08-0.7c-0.44,0.05-0.36-0.21-0.74-0.34c-0.3,0.07-0.59,0.13-0.89,0.2    c0.06-0.13,0.11-0.26,0.17-0.39c-0.29-0.43-0.13-1.85,0.02-2.39c0.1-0.34,0.62,0.5,0.74,0.69c0.36,0.3,0.72,0.61,1.09,0.91    c0.34,0.16,0.67,0.32,1.01,0.48c0.19,0.14,0.37,0.28,0.56,0.42c0.19-0.19,0.23-0.11,0.45,0.03c0.86,0.57,0.58,0.84,0.91,1.59    c0.77,0.35,0.84,0.84,1.06,1.59c1.19,1.19,1.29,3.77,2.06,5.31c0,0.61-1.11,0.73-1.42,1.01c-0.43,0.34-0.47-0.74-0.39-1.01    c-0.24-0.18-0.49-0.37-0.73-0.55c-0.08-0.56-0.17-1.12-0.25-1.68c-0.11-0.26-0.23-0.52-0.34-0.78    C123.78,265.75,122.95,264.6,122.09,264.6z"/>
            <circle cx="95.21" cy="282.82" r="1.05"/>
        </g>
        <g id="__Kocasinan">
            <path d="    M223.89,113.23c-0.26,1.04-1.08,1.03-1.81,1.68c-1.1,0.98-2.56,1.72-3.21,3.07c-0.09,0.51-0.17,1.02-0.26,1.54    c-0.02,0.2-0.24,1.36-0.24,1.36c0.73,1.38,1.05,2.94,2.18,4.23c0.88,0.88,1.77,1.77,2.65,2.65c0.56,0.42,1.12,0.84,1.68,1.26    c0.19,0,0.37,0,0.56,0c0.23,0.14,0.47,0.28,0.7,0.42c0.87,0.48,2.34,1.77,3.35,1.68c0.19,0.09,0.37,0.19,0.56,0.28    c1.08,0.74,2.18,1.29,3.33,1.87c0.37,0.54,0.74,1.08,1.11,1.63c-0.04,0.09-0.07,0.18-0.11,0.27c0.21,0.39,0.43,0.98,0.84,0.99    l0.82,0.39c-0.75-0.03-2.21,0.02-2.21,1c-0.65,0.11-1.5-0.08-1.96,0.42c-0.23,0.05-0.47,0.09-0.7,0.14    c-0.35-0.06-0.69-0.12-1.04-0.17c-0.35,0.1-0.7,0.21-1.06,0.31c-0.4,0.03-0.8,0.06-1.2,0.08c-1.77,0.42-4.61,1.5-5.64,2.99    c0,0.14,0,0.28,0,0.42c0-0.99-0.72,0.75-0.75,0.82c-0.26,0.84-0.53,1.69-0.79,2.53c-0.46,0.46-0.64,1.07-0.84,1.68    c-0.3,0.3-0.61,0.59-0.91,0.89c-0.58,0.4-1.16,0.8-1.74,1.2c-0.22,0-0.7-0.11-0.7,0.14c-0.06-0.03-0.11-0.06-0.17-0.09    c-0.2,0.43-0.2,0.93,0.03,1.35c0.84,0.56,1.68,1.12,2.51,1.68c0.25,0.21,0.46,0.76,0.33,1c-0.31,0.62-0.67,1.02-1.17,1.51    c-0.75,0.09-1.49,0.19-2.23,0.28c-0.74,0.74-2.44,0.72-3.35,1.26c-0.49,0-0.9,0.11-1.21-0.28c-0.11,0.05-0.22,0.1-0.33,0.14    c-0.27-0.72-0.9-0.95-1.4-1.54c-0.18-0.21-0.32-0.72-0.66-0.49c-1.45,1.04-1.45,3.37-3.95,3c-0.38-0.06-0.71,0.41-0.98,0.14    c-0.56-0.65-1.12-1.3-1.68-1.96c-0.09-0.35-0.18-0.69-0.27-1.04c-0.24-0.37-0.57-0.84-1-0.66c-1.42,0.63-2.41,1.98-3.07,3.37    c-0.33,0.09-0.65,0.19-0.98,0.28c0,0.51,0,1.02,0,1.54c-0.65,0.74-0.56,0.46-0.56,1.4c-0.27,0.27-0.56,0.72-0.56,1.12    c-0.52,0.44-1.48,0.55-1.29,1.27c0.29,0.51,0.58,1.02,0.87,1.53c0,0.61,0,1.21,0,1.82c0.6,0.51,1.21,1.02,1.82,1.54    c-0.18,0.58-0.73,1.36-0.21,1.92c0.21,0.2,0.2,0.12,0.21,0.46c0.28,0.03,1.12,0.1,1.12,0.42c0.1,0.27,0.55,1.37,0.13,1.41    c-1.16,0.04-1.74-0.23-2.78,0.27c-0.37,0.17-0.83,0.26-0.83,0.7c-0.14,0.23-0.28,0.47-0.42,0.7c0,1.13,0.16,1.8-0.7,2.65    c-0.11,0.46-0.19,1.38-0.58,1.65c-0.64,0.34-1.29,0.67-1.93,1.01c-1.14,0.18-2.37,0.11-3.07,1.12c0,0.44,0.36,0.26,0.12,0.68    c-0.61,1.03-1.4,1.8-2.31,2.57c-0.43,0.27-0.87,0.54-1.3,0.8c-0.78,0-1.08,0.33-1.68,0.84c-0.61,0-1.42,0.05-1.96,0.42    c-0.88,0.62-2,1.05-3.07,1.26c-0.33,0.15-0.65,0.29-0.98,0.44c-0.74,0.13-1.49,0.27-2.23,0.4c-0.38-0.17-0.76-0.35-1.13-0.52    c-0.38-0.12-1.05-0.25-1.24-0.59c-0.62-0.12-1.44-0.04-1.96-0.56c-1.62-0.25-3.02-0.95-4.47-1.68c-0.56-0.33-1.11-0.65-1.67-0.98    c-0.37-0.19-0.74-0.37-1.12-0.56c-0.51-0.24-1.02-0.48-1.52-0.72c-0.24-0.25-0.48-0.51-0.72-0.76c-0.62-0.49-2.46-1.45-3.2-1.45    c-0.33-0.19-0.65-0.37-0.98-0.56c-0.09-0.33-0.19-0.65-0.28-0.98c-0.65-0.33-1.3-0.65-1.96-0.98c-0.6,0.14-1.21,0.28-1.82,0.42    c-0.09-0.09-0.19-0.19-0.28-0.28c-0.56-0.56-0.58-1.33-1.47-1.56c-0.08-0.31,0.02-0.28-0.24-0.22c-0.78,0.13-1.57,0.26-2.35,0.38    c-1.12,0.51-2.23,1.02-3.35,1.54c-0.52,0.24-1.05,0.48-1.57,0.72c-0.38-0.16-0.36-0.29-0.41-0.03c-0.13,0.38-0.26,0.75-0.39,1.13    c-0.9,0-1.86,0.25-1.82,1.24l-0.02-0.43c-0.08-0.32-0.17-0.63-0.25-0.95c-0.58-0.22-0.64-0.76-1.1-1.08    c-0.42-0.26-0.98,0.53-1.41,0.1c-0.52,0.36-0.75,0.56-1.38,0.63c-0.19,0.02-0.38,0.04-0.57,0.07c0.3-0.49-0.35-0.93-0.64-1.43    c0.12-0.45,0.24-0.89,0.37-1.34c-0.01-0.4-1.35-0.07-1.68-0.03c-0.28-0.33-0.56-0.65-0.84-0.98c0-0.28,0-0.56,0-0.84    c-0.06-0.06-0.12-0.12-0.18-0.18c-0.41-0.79-2.06-0.85-2.89-0.93c-0.11-0.31-0.15-0.28-0.42-0.41c-1.49-0.77-0.63-1.94-1.4-2.94    c0-0.37,0-0.75,0-1.12c-0.3-0.53-0.59-1.06-0.89-1.58c-0.15-0.43-1.62-0.48-2.18-0.37c-0.36-0.13-0.71-0.26-1.07-0.4    c-0.34-0.26-0.68-0.53-1.02-0.79c-1.26-0.6-2.53-1.2-3.79-1.8c-1.93-1.1-3.83-2.34-5.72-3.57c-0.79,0.09-1.58,0.19-2.37,0.28    c-0.9,0.77-1.8,1.54-2.7,2.31c-1.38,0.77-2.76,1.53-4.14,2.3c-0.23,0.28-0.47,0.56-0.7,0.84c-1.08,1.1-2.1,2.13-3.35,2.93    c-0.56,0.14-1.12,0.28-1.68,0.42c-0.42,0-0.84,0-1.26,0c-0.47,0.14-0.93,0.28-1.4,0.42c-0.36,0.11-0.85,0.01-1.12,0.28    c-1.51-0.24-2.75,0.33-4.19,0.79c-1.07,0.29-2.15,0.57-3.22,0.86c-1.16,0.28-2.09,0.61-3.2,0.72c-0.36,0.03-0.99,0.27-1.25,0.01    c-0.84,0.23-1.68,0.47-2.51,0.7h-0.84c-0.23-0.14-0.47-0.28-0.7-0.42c-0.88-0.61-2.02-0.7-2.81-1.49    c-0.44-0.07-0.8-0.43-1.06-0.79c-1.23-0.38-2.33-1.88-2.3-3.16c-0.79-1.01-1-3.23-0.71-4.56c-0.24-0.45,0.57-1.96,0.71-2.5    c0.92-2.5,1.83-5,2.75-7.5c0.63-1.7,1.27-4.07,2.34-5.52c0.16-0.42,0.33-0.85,0.49-1.27c0.71-1.4,1.42-2.8,2.13-4.19    c1.33-2.58,2.65-5.15,3.98-7.73c0.38-1.02,1.62-3.8,2.44-4.41c0.15-0.65,0.3-1.29,0.44-1.94c0.09-1.03,0.17-2.06,0.26-3.09    c0.27-0.27,0.21-1.38,0-1.68c0.11-0.31,0.15-0.65,0.42-0.84c-0.02-0.76,0.06-1.36,0.21-2.08c0.12-0.59,0.36-3.09,0.63-3.36    c0.09-1.26,0.19-2.51,0.28-3.77c0.19-0.23,0.37-0.47,0.56-0.7c-0.3-0.3,0.22-0.48,0.42-0.7c0.89-1.01,1.33-1.25,2.55-1.81    c0.22-0.31,1.22-1.53,1.22-1.68c1.53-0.31,3.31-0.5,4.89-0.28c0.09-0.46-0.03-1.09,0.56-1.13c1.94-0.16,3.89-0.31,5.83-0.47    c0.71,0.02,1.42,0.04,2.13,0.06c1.72,0.7,3.44,1.4,5.17,2.09c0.87,0.87,2.58,2.06,3.7,2.54c0.2,0.68,1.23,1.06,1.75,1.51    c0.51,0.47,1.02,0.93,1.54,1.4c1.21,1.16,2.42,2.32,3.63,3.47c0.85,0.7,1.69,1.4,2.54,2.09c1.39,1.26,2.78,2.53,4.16,3.79    c0.97,0.72,3.15,0.99,4.33,1.26c0.19,0.09,0.37,0.19,0.56,0.28c0.56-0.05,1.12-0.09,1.68-0.14c0.56,0,1.12,0,1.68,0    c0.74-0.14,1.49-0.28,2.23-0.42c0.74-0.47,1.49-0.93,2.23-1.4c1.07-0.88,2.14-1.77,3.21-2.65c0.65-0.65,1.3-1.3,1.96-1.95    c0.22-0.22,0.59-0.8,0.84-0.56c0.22-0.22,0.3-0.4,0.56-0.14c0.09,0.05,0.19,0.09,0.28,0.14c2.22,0,3.97,1.66,5.97,2.33    c0.94,0.3,1.89,0.59,2.83,0.89c0.56-0.05,1.12-0.09,1.68-0.14c0.74,0.09,1.49,0.19,2.23,0.28c0.58,0.04,1.51-0.03,1.81-0.56    c1.54-0.11,3.14-0.7,4.58-1.19c0.52-0.21,1.04-0.42,1.56-0.62c1.27-0.79,2.81-1.8,4.33-1.26c0.37,0.37,0.65,1.69,1.13,1.47    c1.27-0.56,2.27-1.65,3.2-2.58c0.51-0.23,1.02-0.47,1.54-0.7c0.69-0.07,1.37-0.13,2.06-0.2c2.18-0.77,3.69-2.37,5.62-3.56    c1.1-0.67,2.29-1.03,3.5-1.41c0.56-0.33,1.12-0.65,1.68-0.98c0.14-0.06,0.27-0.11,0.41-0.17c1.12-0.32,2.24-0.63,3.36-0.95    c1.01-0.63,2.43-0.8,3.63-0.84c0.28-0.14,0.56-0.28,0.84-0.42c0.81-0.81,2.67-1.6,3.72-2.07c0.39-0.19,0.78-0.39,1.17-0.58    c1.49-1.02,2.98-2.05,4.47-3.07c0.54-0.37,2.33-1.48,2.93-1.4c-0.1,0.08,0.8-0.13,0.7-0.05c0,0,0.65,0,1.12,0.05    c0.47,0.37,0.93,0.74,1.4,1.12c0.67,2.12,1.62,4.1,3.07,5.87c0.45,0.55,1.3,1.91,1.96,2.09c0.28,0.51,0.56,1.02,0.84,1.54    c0.09,0.28,0.19,0.56,0.28,0.84c0.54,0.82,0.5,1.23,0.7,2.09c0.09,0.28,0.19,0.56,0.28,0.84H223.89z"/>
            <circle cx="173.76" cy="172.15" r="1.05"/>
        </g>
    </g>
</svg>