<?xml version="1.0" encoding="UTF-8"?>
<!DOCTYPE svg PUBLIC "-//W3C//DTD SVG 1.1//EN" "http://www.w3.org/Graphics/SVG/1.1/DTD/svg11.dtd">
<svg version="1.1" id="HaritaCizim" xmlns="http://www.w3.org/2000/svg" xmlns:xlink="http://www.w3.org/1999/xlink" x="0px" y="0px" viewBox="0 0 600 390" preserveAspectRatio="none">
    <defs id="__def">
        <radialGradient id="f">
            <stop offset="0" stop-color="white" stop-opacity="1"/>
            <stop id="STOP1" offset=".4" stop-opacity="1"/>
            <stop offset="1" stop-color="white" stop-opacity=".2"/>
        </radialGradient>
        <filter id="__flt1" x="0" y="0" width="200%" height="200%" filterUnits="objectBoundingBox">
            <feGaussianBlur in="SourceAlpha" stdDeviation="3" result="blur1"/>
            <feSpecularLighting result="specOut" in="blur1" specularConstant="1.5" specularExponent="20" lighting-color="#bbbbbb">
                <feDistantLight azimuth="45" elevation="30"/>
            </feSpecularLighting>
            <feComposite in="specOut" in2="SourceAlpha" operator="in" result="specOut"/>
            <feComposite in="SourceGraphic" in2="specOut" operator="arithmetic" k1="0" k2="1" k3="1" k4="0"/>
        </filter>
        <filter id="__flt2" x="0" y="0" width="200%" height="200%" filterUnits="objectBoundingBox">
            <feGaussianBlur in="SourceAlpha" stdDeviation="3" result="blur1"/>
            <feSpecularLighting result="specOut" in="blur1" specularExponent="20" lighting-color="#bbbbbb">
                <fePointLight x="-2000" y="100" z="2000"/>
            </feSpecularLighting>
            <feComposite in="specOut" in2="SourceAlpha" operator="in" result="specOut"/>
            <feComposite in="SourceGraphic" in2="specOut" operator="arithmetic" k1="0" k2="1" k3="1" k4="0"/>
        </filter>
        <filter id="__flt3" x0="-50%" y0="-50%" width="200%" height="200%" filterUnits="objectBoundingBox">
            <feGaussianBlur in="SourceAlpha" stdDeviation="3" result="blur"/>
            <feOffset in="blur" dx="0" dy="0" result="offsetBlur"/>
            <feSpecularLighting in="blur" surfaceScale="4" specularConstant=".5" specularExponent="20" lighting-color="flavor" result="specOut">
                <fePointLight x="-5000" y="-10000" z="5000"/>
            </feSpecularLighting>
            <feComposite in="specOut" in2="SourceAlpha" operator="in" result="specOut"/>
            <feComposite in="SourceGraphic" in2="specOut" operator="arithmetic" k1="0" k2="1" k3="1" k4="0" result="litPaint"/>
            <feMerge>
                <feMergeNode in="offsetBlur"/>
                <feMergeNode in="litPaint"/>
            </feMerge>
        </filter>
        <filter id="__flt4" x0="-50%" y0="-50%" width="200%" height="200%">
            <feGaussianBlur in="SourceAlpha" stdDeviation="2" result="blur"/>
            <feOffset dy="-1" dx="-1"/>
            <feComposite in2="SourceAlpha" operator="arithmetic" k2="-1" k3="1" result="hlDiff"/>
            <feFlood flood-color="white" flood-opacity=".7"/>
            <feComposite in2="hlDiff" operator="in"/>
            <feComposite in2="SourceGraphic" operator="over" result="withGlow"/>
            <feOffset in="blur" dy="3" dx="3"/>
            <feComposite in2="SourceAlpha" operator="arithmetic" k2="-1" k3="1" result="shadowDiff"/>
            <feFlood flood-color="black" flood-opacity="1"/>
            <feComposite in2="shadowDiff" operator="in"/>
            <feComposite in2="withGlow" operator="over"/>
        </filter>
        <filter id="__golge1" x="0" y="0" width="200%" height="200%" filterUnits="userSpaceOnUse">
            <feOffset result="offOut" in="SourceAlpha" dx="8" dy="8"/>
            <feGaussianBlur result="blurOut" in="offOut" stdDeviation="3"/>
            <feBlend in="SourceGraphic" in2="blurOut" mode="normal"/>
        </filter>
    </defs>
    <g id="__Harita" fill="white" stroke="#000000" stroke-width="0.25" stroke-miterlimit="10" display="none">
        <rect id="__cer" x="0" y="0" fill="#000000" opacity="0" width="600" height="390"/>
        <g id="__Musabeyli">
            <path d="   M213.62,50.12c1.57,2.15,1.69,5.42,2.72,7.94c0.86,2.12,3.83,9.29,5.47,10.06c0.57,1.1,0.77,2.06,2,2.4c0.94,1.57,1.72,2.88,3.2,4   c2.22,1.68,5.06,3.96,7.99,2.8c1.47,0.13,2.93,0.27,4.4,0.4c1.43,0.53,3.49,2.01,4.8,0.8c0.67,0,1.33,0,2,0   c1.64,0.67,5.19,4.32,6,4.4c1.07,1.79,1.33,3.36,2.06,5.16c1.35,3.3,2.73,6.52,3.27,10.06c0.17,1.08,0.65,4.79-0.45,5.32   c-1.22,0.42-2.45,0.84-3.67,1.26c-0.14,2.14-3.4,6.2-2.74,7.53c4.1,7.56,8.86,15.79,14.45,22.5c1.64,1.97,6.95,6.17,6.46,8.43   c0.07,0.3,0.13,0.6,0.2,0.9c-1.49,2.97-2.98,5.95-4.47,8.92c-1.25,1.54-3.69,2.36-4.32,4.27c-2.89,1.88-5.36,3.81-8.03,5.95   c-1.12,0.89-2.33,1.17-3.16,2.45c-1.16,0.57-2.32,1.14-3.49,1.71c-1.08,0.16-2.17,0.33-3.25,0.49c-0.81,0.3-1.62,0.61-2.44,0.91   c-0.67,0.96-1.35,1.92-2.02,2.89c-1.97,1.32-3.93,2.64-5.9,3.96c-1.39,0.06-2.44,1.37-3.67,2.06c-3.46,1.94-5.5,1.97-7.36,5.68   c-0.22,0.5-0.44,0.99-0.66,1.49c-0.53,0.67-1.07,1.33-1.6,2c-0.92,0.76-2,0.85-2.4,2c-1.47,0.53-2.93,1.07-4.4,1.6   c-2.79,0.54-5.57,1.08-8.36,1.62c-1.05,0.1-5.14,0.91-5.63,1.57c-1.79-0.11-4.12-0.1-5.2,1.6c-2,0.93-4,1.87-6,2.8   c-5.74-3.39-9.84-5.08-16.39-1.6c-1.31,0.7-3.17,0.18-4,1.6c-1.5-0.11-2.61-0.29-3.2,1.2c-1.39-0.22-2.82-0.64-4,0.4   c-2.09-0.41-4.94-2.41-6.8-4c-3.47-3.14-6.83-1.36-10.66-1.52c-2.19-0.1-4.32-1.04-6.35-0.64c-1.3-0.52-7.81-2.29-8.58-1.84   c-1.19-1.31-5.48-5.73-7.56-5.08c-1.01,0.35-3.06,0.72-3.64,1.49c-1.07,0-2.13,0-3.2,0c-1.82,0.53-2.63,1.69-4.76,1   c-1.67-0.54-3.38-2.6-4.83-2.6c-2.22-3.38-2.65-7.45-6.1-9.89c-2.09-1.39-4.18-2.77-6.27-4.16c-1.05,0.16-3.63-1.74-4.02-2.74   c-1.87-0.93-3.73-1.87-5.6-2.8c-1.47-0.4-2.53-1.6-4-2c-4.84,0.9-10.96,2.91-8.39,0.42c2.6-2.12,5.2-4.23,7.8-6.35   c4.6-4.29,9.19-8.58,13.79-12.87c1.67-1.5,2.51-3.98,3.02-6.11c1.12-1.43,2.25-2.86,3.37-4.28c1.5-1.59,5.68-2.94,6.4-4   c0.85-0.03,1.3,0.14,2-0.4c2,0.13,4,0.27,6,0.4c1.8,1.53,4.12,2.87,6.4,3.6c1.73,0.55,2.29,2.41,4.4,2   c2.15,2.22,4.31,4.43,6.46,6.65c2.31,1.7,6.99,5.51,9.98,3.44c5.28-3.22,9.11-8.31,8.34-14.88c-0.15-1.28,0.62-2.83,0-4   c0.27-1.33,0.53-2.67,0.8-4c0.62-0.78,1.06-0.95,1.2-2c3.46-2.93,6.93-5.86,10.39-8.79c3.44-2.59,8.33-3.76,10.54-7.86   c1.44-2.67,2.25-6.74,2.25-9.73c1.25-2.9,2.5-5.81,3.75-8.71c1.42-2.16,2.83-4.32,4.25-6.48c0.58-1.44,1.17-2.87,1.75-4.31   c1.4-2.72,2.92-5.02,4.91-7.36c0.98-0.91,1.96-1.82,2.94-2.72c0.93-1.33,1.87-2.67,2.8-4c2.6-2.21,4.64-4.63,7.47-6.58   c1.02-0.71,4.42-3.46,5.32-3.41c1.87-1.07,3.73-2.13,5.6-3.2C213.22,49.6,213.42,49.86,213.62,50.12z"/>
            <circle cx="171.51" cy="159.27" r="1.586"/>
        </g>
        <g id="__Kilis">
            <path d="   M223.01,184.85v1.6c-0.53,0.67-1.07,1.33-1.6,2v2c-0.59,3.89-2.91,7.46-4.8,10.79c-0.42,1.22-0.85,2.43-1.27,3.65   c-0.61,1.12-3.19,3.93-1.55,5.02c0.14,0.31,0.28,0.62,0.42,0.92c1.62,0.45,5.48,1.47,5.6,3.6c0.84,0.5,1.7,0.65,2,1.6   c1.2,0.53,2.4,1.07,3.6,1.6c1.31-0.26,3.45-0.8,4.4,0.4c1.9-0.18,4.5-0.42,6,0.8c3.73-0.15,7.45-0.3,11.18-0.45   c3.33,0.2,6.71,1.03,9.93,0.6c1.24,0.65,3.58,0.75,4.87,0.25c1.37,0.39,5.4,1.8,6.8,1.2c0.67,0.4,1.33,0.8,2,1.2   c2.66,0.13,5.33,0.27,8,0.4c3.86,1.41,7.73,2.82,11.59,4.23c6.16,2.43,12.32,4.86,18.48,7.28c1.01,1.53,7.14,2.11,8.81,0.94   c2.23-1.49,4.46-2.97,6.7-4.46c1.42-1.78,4.9-5.67,6.8-6.4c1.33-0.21,2.67-0.42,4-0.62c1.47-0.33,2.93-0.65,4.4-0.97   c2.53-1.64,4.49-2.88,7.53-2.16c0.88,0.21,0.82-0.26,1.75,0.4c1.66,1.18,5.87,3.91,5.91,6.16c0.6,0.25,1.19,0.51,1.79,0.76   c0.23,0.28,0.47,0.56,0.7,0.84c2.11-0.09,3.56,0.31,5.07-1.2c0.09-0.91,1.23-2.28,2.04-2.4c0.4-2.93,0.8-5.86,1.2-8.79   c-0.45-1.97-1.38-8.44-0.4-9.99c-1.8-7.2-2.03-11,2.4-17.59c0.67-1,4.09-4.73,5.2-4.4c2.7-2.97,5.79-4.4,9.59-5.2   c1.4-0.29,3.81,0.14,4.8-0.8c0.67,0.13,1.33,0.27,2,0.4c0.91,0.51,2.92,2.07,4,1.6l-0.92-0.42c0.52,0.22,2.6,3.31,2.41,4.11   c2.51,4.48,1.86,7.12,1.86,11.92c-0.07,2.14-0.42,1.52-2.15,2.39c0.16,1.31-0.36,1.45-1.2,2.4c-0.53,2.8-1.07,5.6-1.6,8.4   c0.13,0.8,0.27,1.6,0.4,2.4c3.21,3.21,1.19,8.67,0.8,12.39c0.93,2.13,1.87,4.26,2.8,6.4c-0.53,1.09,0.08,2.87,0.32,4.04   c0.7,3.38,0.73,7,2.47,9.96c1.04,1.25,2.08,2.49,3.12,3.74c1.76,1.55,3.51,3.11,5.27,4.66c1.47,0.93,2.93,1.87,4.4,2.8   c1.09-0.5,2.93,0.56,4,1.2c1.85-0.2,5.9,2.85,7.6,4c0.11,1.52,2.14,2.91,3.2,4c-0.05,1.57,1.11,3.15,2,4.4   c0.13,0.8,0.27,1.6,0.4,2.4l0.21-0.31c-0.2,1.3-0.41,2.61-0.61,3.91c-1.08,0.35-1.72,1.98-2.29,2.97c-0.8,1.39-1.53,1.88-2.91,2.62   c-0.11,0.94-0.81,1.79-1.6,2.4c-1.08,0.83-2.47,0.58-3.16,1.89c-1.21,0.44-2.42,0.87-3.64,1.31c-2,0.4-4,0.8-6,1.2   c-1.33,0-2.67,0-4,0c-1.14-0.49-2.85-0.01-4,0.4c-2.33-1.11-5.74,0.58-8.02,1.11c-2.26,0.53-4.6,3.72-4.26,6.07   c-0.68,1.42,0.18,2.4,0.29,4.01c-0.13,0.67-0.27,1.33-0.4,2c0.89,1.01,0.67,5.06,0.74,6.47c0.82,1.84,1.64,3.68,2.46,5.52   c-0.21,0.93-0.42,1.87-0.62,2.8l-0.57-0.57c-2.02-0.34-4.04-0.68-6.06-1.02c-0.98,0-1.23,0.13-2.04,0.69   c-0.98,0.7-0.58,2.08-0.7,3.31c-1.2,0.13-2.4,0.27-3.6,0.4c-0.54-1.35-7.34-2.54-9.12-3.06c-2.86-0.84-5.94-1.22-8.87-0.94   c-1.57-1.66-6.23-0.87-8.39-0.8c-0.67-0.13-1.33-0.27-2-0.4c-0.92-0.76-1.83-1.52-2.75-2.29c-0.55,0.08-1.11,0.17-1.66,0.25   c-1.99,0.81-3.99,1.62-5.98,2.44c-4.51,1.21-7.96,3.69-12.24,5.93c-1.51,0.55-3.02,1.11-4.53,1.66c-2.25,1.09-5.33,3.26-7.88,2.66   c-1.78-0.57-1.78-1.45-2.52-3.06c-2.43,0.51-5.77-3.86-7.2-5.6c-0.6-1.27-1.2-2.55-1.8-3.82c-0.95-1.48-2.24-0.11-3.4,1.02   c-2.42,1.67-4.83,3.34-7.25,5.01c-1.28,0.23-3.88-1.34-4.62-2.72c-2.51-0.93-4.48-2.11-7.18-1.1c-0.45,1.74-0.89,3.47-1.34,5.21   c-0.96,3.95-1.92,7.9-2.87,11.84c-1.95,2.86-3.9,5.71-5.85,8.57c-0.98,1.53-2.23,0.71-3.6,0.15c-2.87-1.23-5.75-2.46-8.62-3.69   c-1.28-0.69-2.57-1.39-3.85-2.09c-0.53-0.93-1.07-1.87-1.6-2.8c-0.13-1.33-0.27-2.67-0.4-4c-0.8-0.67-1.6-1.33-2.4-2   c-3.84-1.45-7.21-3.88-10.39-6.4c-0.93,0.6-7.03-0.74-8.39-1.2c0.41-0.49,0.08-3.82-0.25-4.57c0.66-3.43,0.65-6.38-1.35-9.42   c-0.02-1.4-0.34-5.07-0.9-6.15c-0.39-0.81,1.41-2.56,2.5-3.05c0.93-0.27,1.87-0.53,2.8-0.8c1.75,0.94,6.91-1.34,8.34-2.46   c1.27-0.96,0.58-3.35,0.45-4.73c1.14-0.41,0.79-1.62,1.6-2.4c1.01-0.98,1.35-2.59,1.69-3.98c1-4.13,0.93-7.54-2.12-10.79   c-0.64-0.69-0.51-0.94-1.45-0.45c-2.01-1.22-3.3-1.59-5.31-2.36c-0.67,0.65-1.47,0.49-2.4,0.4c-5.78-0.55-13.63-0.88-18.63-3.82   c-0.45-0.32-0.91-0.65-1.36-0.97c1.27-0.46,0.93-0.79,1.2-2c1.83-0.62,1.87-2.05,2.4-3.6c-0.78-0.84-1.25-2.22-1.15-3.37   c-0.55-0.74-1.1-1.48-1.65-2.22c0.13-0.53,0.27-1.07,0.4-1.6c0.92-1.35,1.53-1.99,1.91-3.62c0.19-0.8-1.78-0.13-2.32,0.02   c-1.19,0.53-2.39,1.07-3.59,1.6c-1.47,0.27-2.93,0.53-4.4,0.8c-0.9-1.79-4.82-1.69-6.4-2.8c-2.26-1.2-4.53-2.4-6.8-3.6   c-2.4-1.81-3.74-3.31-6.86-3.65c-0.51,0.42-1.02,0.83-1.54,1.25c-1.63-1.29-3.19,0.38-4.78,0.23c-2.35-0.39,0.27-2.29,0.06-4.14   c0,0-2.82,0.39-4.07,0.31c0.13-0.67,0.27-1.33,0.4-2c-1.04-0.43-1.74-1.57-2.32-2.52c-0.43-0.18-0.87-0.36-1.3-0.54   c-2.96-1.09-6.59,3.07-8.77,4.26c-3.52,1.92-7.75,0.68-11.59,0.8c-2.4-0.53-4.8-1.07-7.2-1.6c-1.87-0.67-3.73-1.33-5.6-2   c-1.31-1.31-4.24-1.53-6.05-1.86c-1.72-0.58-3.43-1.16-5.15-1.74c-0.8,0.13-1.6,0.27-2.4,0.4c-0.98-0.98-5.24-1.37-6.78-1.67   c-0.92-0.18-4.72-0.42-4.01-1.12c-3.59-0.24-6.98-0.71-10.39-1.2c-0.76-0.77-3.17-2.03-4-1.2c0-0.69-1.02-0.71-1.6-1   c-1.68-0.84-4.1-1.27-6-1.4c-0.77-1.16-2.85-1.24-4-2c-1.81-1.2-3.77-4-6-4c-1.6-1.73-3.2-3.46-4.8-5.2c-0.4,0-0.8,0-1.2,0   c-0.8-0.8-1.6-1.6-2.4-2.4c-0.81-0.1-2.24-1.04-2.8-1.6c-0.53-0.13-1.07-0.27-1.6-0.4c-1.47,0.27-2.93,0.53-4.4,0.8   c-1.4-0.97-2.68-1.33-4.38-1.09c-0.54-0.17-1.07-0.34-1.61-0.51c-0.79-0.79-1.1-2.25-2.1-2.55c-2.73-0.8-6.92-0.19-8.89-2.41   c-0.65-0.77,0.31-2.22,0.6-3.04c0-0.72,2.44-2,3.2-2c0-0.68,0.67-0.87,1.2-1.2c2.95,0,5.19-2.18,7.55-3.7   c1.35-0.9,0.86-3.88,1.35-5.47c1.81-5.94,1.15-12,6.05-16.59c0,0,5.01-1.33,9.84-2.22c1.47,0.4,2.53,1.6,4,2   c1.87,0.93,3.73,1.87,5.6,2.8c0.4,1,2.97,2.89,4.02,2.74c2.09,1.39,4.18,2.77,6.27,4.16c3.44,2.44,3.88,6.52,6.1,9.89   c1.45,0,3.16,2.06,4.83,2.6c2.13,0.69,2.94-0.47,4.76-1c1.07,0,2.13,0,3.2,0c0.57-0.77,2.63-1.14,3.64-1.49   c2.08-0.64,6.36,3.77,7.56,5.08c0.77-0.46,7.29,1.31,8.58,1.84c2.03-0.41,4.15,0.54,6.35,0.64c3.82,0.17,7.19-1.62,10.66,1.52   c1.86,1.59,4.71,3.59,6.8,4c1.18-1.04,2.61-0.62,4-0.4c0.59-1.49,1.69-1.31,3.2-1.2c0.82-1.42,2.69-0.9,4-1.6   c6.55-3.48,10.65-1.79,16.39,1.6c2-0.93,4-1.87,6-2.8c1.08-1.7,3.41-1.71,5.2-1.6c0.49-0.67,4.59-1.47,5.63-1.57   c2.79-0.54,5.57-1.08,8.36-1.62c1.47-0.53,2.93-1.07,4.4-1.6c0.4-1.15,1.48-1.24,2.4-2C221.95,186.18,222.48,185.52,223.01,184.85z   "/>
            <circle cx="288.24" cy="282.39" r="1.586"/>
        </g>
        <g id="__Polateli">
            <path d="   M223.01,186.45c-0.53,0.67-1.07,1.33-1.6,2v2c-0.59,3.89-2.91,7.46-4.8,10.79c-0.42,1.22-0.85,2.43-1.27,3.65   c-0.61,1.12-3.19,3.93-1.55,5.02c0.14,0.31,0.28,0.62,0.42,0.92c1.62,0.45,5.48,1.47,5.6,3.6c0.84,0.5,1.7,0.65,2,1.6   c1.2,0.53,2.4,1.07,3.6,1.6c1.31-0.26,3.45-0.8,4.4,0.4c1.9-0.18,4.5-0.42,6,0.8c3.73-0.15,7.45-0.3,11.18-0.45   c3.33,0.2,6.71,1.03,9.93,0.6c1.24,0.65,3.58,0.75,4.87,0.25c1.37,0.39,5.4,1.8,6.8,1.2c0.67,0.4,1.33,0.8,2,1.2   c2.66,0.13,5.33,0.27,8,0.4c3.86,1.41,7.73,2.82,11.59,4.23c6.16,2.43,12.32,4.86,18.48,7.28c1.01,1.53,7.14,2.11,8.81,0.94   c2.23-1.49,4.46-2.97,6.7-4.46c1.42-1.78,4.9-5.67,6.8-6.4c1.33-0.21,2.67-0.42,4-0.62c1.47-0.33,2.93-0.65,4.4-0.97   c2.53-1.64,4.49-2.88,7.53-2.16c0.88,0.21,0.82-0.26,1.75,0.4c1.66,1.18,5.87,3.91,5.91,6.16c0.6,0.25,1.19,0.51,1.79,0.76   c0.23,0.28,0.47,0.56,0.7,0.84c2.11-0.09,3.56,0.31,5.07-1.2c0.09-0.91,1.23-2.28,2.04-2.4c0.4-2.93,0.8-5.86,1.2-8.79   c-0.45-1.97-1.38-8.44-0.4-9.99c-1.8-7.2-2.03-11,2.4-17.59c0.67-1,4.09-4.73,5.2-4.4c2.7-2.97,5.79-4.4,9.59-5.2   c1.4-0.29,3.81,0.14,4.8-0.8c0.67,0.13,1.33,0.27,2,0.4c0.91,0.51,2.92,2.07,4,1.6c-0.22-0.3-0.43-0.6-0.65-0.9   c-0.72-0.9-1.43-1.8-2.15-2.7c-1.33-1.2-2.67-2.4-4-3.6c-2.13-1.33-4.26-2.67-6.4-4c-1.47-0.67-2.95-1.34-4.42-2.01   c-1.31-0.84-6.29-3.31-7.57-2.79c-2.78-1.25-5.56-2.5-8.33-3.75c-2.29-0.35-4.57-0.7-6.86-1.05c-2.53-0.27-5.06-0.53-7.6-0.8   c-1.25,0.08-2.88,0.25-4-0.4c-1.3,0.08-2.85,0.83-4,0c-2.4,0.4-4.8,0.8-7.2,1.2c-2.93,0.13-5.86,0.27-8.79,0.4   c-2.19,0.16-9.38-3.48-9.99-5.2c-2.78-1.24-6.24-3.38-9.34-2.35c-1.59-0.64-4.39-1.52-6.25-0.85c-3.63-0.97-6.95-0.89-10.38-1.94   c-1.18-0.36-4.75-1.59-5.21-2.46c-1.07-0.39-7.09-2.87-7.17-2.79l-0.82,0.39c-1.49,2.97-2.98,5.95-4.47,8.92   c-1.25,1.54-3.69,2.36-4.32,4.27c-2.89,1.88-5.36,3.81-8.03,5.95c-1.12,0.89-2.33,1.17-3.16,2.45c-1.16,0.57-2.32,1.14-3.49,1.71   c-1.08,0.16-2.17,0.33-3.25,0.49c-0.81,0.3-1.62,0.61-2.44,0.91c-0.67,0.96-1.35,1.92-2.02,2.89c-1.97,1.32-3.93,2.64-5.9,3.96   c-1.39,0.06-2.44,1.37-3.67,2.06c-3.46,1.94-5.5,1.97-7.36,5.68c-0.22,0.5-0.44,0.99-0.66,1.49V186.45z"/>
            <circle cx="303.69" cy="187.78" r="1.586"/>
        </g>
        <g id="__Elbeyli">
            <path d="   M392.08,288.3c2.28-0.53,5.69-2.22,8.02-1.11c1.14-0.41,2.85-0.89,4-0.4c1.33,0,2.67,0,4,0c2-0.4,4-0.8,6-1.2   c1.21-0.44,2.42-0.87,3.64-1.31c0.69-1.31,2.08-1.05,3.16-1.89c0.78-0.61,1.49-1.46,1.6-2.4c1.38-0.75,2.11-1.24,2.91-2.62   c0.57-0.99,1.21-2.63,2.29-2.97c0.2-1.3,0.41-2.61,0.61-3.91c1.09,0.54,4.27,2.16,4.62,2.06c3.89-1.07,9.76-1.16,11.26-5.65   c0.34-0.95,1.02-2.77,0.7-3.7c2.22-4.82,2.11-8.3-0.4-12.79c-0.83-1.48-0.97-3.29-2.4-4.4c-0.67-1.47-1.33-2.93-2-4.4   c0-3.6,0-7.2,0-10.79c0.4-2.4,0.8-4.8,1.2-7.2c0.24-0.54,0.48-1.08,0.72-1.62c1.31-3.71,3.09-7.03,5.27-10.37   c2.32-3.56,4.14-7.29,7.72-9.57c2.89-0.41,5.78-0.82,8.67-1.22c1.59,0.02,3.18,0.04,4.77,0.06c1.34,0.25,2.68,0.49,4.02,0.74   c2.28,1.5,4.16,3.12,6,5.2c1.08,1.22,2.01,3.22,3.6,3.6c0.74,3.68,2.89,9.68,5.2,12.79c0.95,1.28,3.82,1.45,4,3.2   c0.67,0.13,1.33,0.27,2,0.4c3.03,2.55,6.06,5.1,9.09,7.65c1.5,2.65,3,5.3,4.5,7.94c1.4,1.65,2.42,2.94,3.6,4.8   c2.27,1.72,4.55,3.43,6.82,5.15c0.97,0.87,5.42,5.35,6.77,5.25c1.77,1.61,7.28,5.51,9.59,5.2c1.73,1.2,3.46,2.4,5.2,3.6   c3.56,4.99,8.1,9.57,9.56,15.58c0.47,1.95,1.98,5.94,0.49,7.6c-1.88,2.2-4.77,2.57-7.25,4.01c-0.8,0.27-1.59,0.55-2.39,0.82   c-2.75,1.75-8.18,4.59-11.28,5.06c-5.06,2.93-10.13,5.85-15.19,8.78c-2.3,1.24-6.93,3.77-8.42,5.85c-0.85,1.19-1.83,3.3-1.1,4.67   c-0.8,3.2-0.8,4.44-0.8,7.6c-0.56,0.67-1.23,2.33-1.2,3.2c-1.07,1.72-2.14,3.45-3.21,5.17c-0.58,0.84-2.91,5.25-3.57,5.18   c-2.27-0.1-4.54-0.21-6.81-0.31c-2.13,0.52-4.26,1.03-6.4,1.55c-1.47,0-2.93,0-4.4,0c-3.04-1.77-5.63-3.64-8.4-6   c-1.33-0.67-2.67-1.33-4-2c-2.8,0.13-5.6,0.27-8.39,0.4c-3.6-1.6-7.2-3.2-10.79-4.8c-2.27-0.67-4.53-1.33-6.8-2   c-0.96-0.5-3.91-1.22-4.8-0.8c-4.33-2.64-10.24-1.34-14.37-4.44c-0.8-0.27-1.61-0.54-2.41-0.81c-2.01,0.75-5.79-1.32-7.81-2.29   c-1.18,0.67-3.69-0.69-4.85-1.37c-1.4,0.29-2.75-0.17-4.12-0.3c-1.03-0.1-2.01-0.19-2.82,0.41c-2.34-0.67-4.68-1.33-7.02-2   c0.21-0.93,0.42-1.87,0.62-2.8c-0.82-1.84-1.64-3.68-2.46-5.52c-0.07-1.41,0.15-5.46-0.74-6.47c0.13-0.67,0.27-1.33,0.4-2   c-0.11-1.61-0.96-2.59-0.29-4.01C387.48,292.02,389.82,288.82,392.08,288.3z"/>
            <circle cx="491.31" cy="309.57" r="1.586"/>
        </g>
    </g>
</svg>