<?xml version="1.0" encoding="UTF-8"?>
<!DOCTYPE svg PUBLIC "-//W3C//DTD SVG 1.1//EN" "http://www.w3.org/Graphics/SVG/1.1/DTD/svg11.dtd">
<svg version="1.1" id="HaritaCizim" xmlns="http://www.w3.org/2000/svg" xmlns:xlink="http://www.w3.org/1999/xlink" x="0px" y="0px" viewBox="0 0 600 500" preserveAspectRatio="none">
    <defs id="__def">
        <radialGradient id="f">
            <stop offset="0" stop-color="white" stop-opacity="1"/>
            <stop id="STOP1" offset=".4" stop-opacity="1"/>
            <stop offset="1" stop-color="white" stop-opacity=".2"/>
        </radialGradient>
        <filter id="__flt1" x="0" y="0" width="200%" height="200%" filterUnits="objectBoundingBox">
            <feGaussianBlur in="SourceAlpha" stdDeviation="3" result="blur1"/>
            <feSpecularLighting result="specOut" in="blur1" specularConstant="1.5" specularExponent="20" lighting-color="#bbbbbb">
                <feDistantLight azimuth="45" elevation="30"/>
            </feSpecularLighting>
            <feComposite in="specOut" in2="SourceAlpha" operator="in" result="specOut"/>
            <feComposite in="SourceGraphic" in2="specOut" operator="arithmetic" k1="0" k2="1" k3="1" k4="0"/>
        </filter>
        <filter id="__flt2" x="0" y="0" width="200%" height="200%" filterUnits="objectBoundingBox">
            <feGaussianBlur in="SourceAlpha" stdDeviation="3" result="blur1"/>
            <feSpecularLighting result="specOut" in="blur1" specularExponent="20" lighting-color="#bbbbbb">
                <fePointLight x="-2000" y="100" z="2000"/>
            </feSpecularLighting>
            <feComposite in="specOut" in2="SourceAlpha" operator="in" result="specOut"/>
            <feComposite in="SourceGraphic" in2="specOut" operator="arithmetic" k1="0" k2="1" k3="1" k4="0"/>
        </filter>
        <filter id="__flt3" x0="-50%" y0="-50%" width="200%" height="200%" filterUnits="objectBoundingBox">
            <feGaussianBlur in="SourceAlpha" stdDeviation="3" result="blur"/>
            <feOffset in="blur" dx="0" dy="0" result="offsetBlur"/>
            <feSpecularLighting in="blur" surfaceScale="4" specularConstant=".5" specularExponent="20" lighting-color="flavor" result="specOut">
                <fePointLight x="-5000" y="-10000" z="5000"/>
            </feSpecularLighting>
            <feComposite in="specOut" in2="SourceAlpha" operator="in" result="specOut"/>
            <feComposite in="SourceGraphic" in2="specOut" operator="arithmetic" k1="0" k2="1" k3="1" k4="0" result="litPaint"/>
            <feMerge>
                <feMergeNode in="offsetBlur"/>
                <feMergeNode in="litPaint"/>
            </feMerge>
        </filter>
        <filter id="__flt4" x0="-50%" y0="-50%" width="200%" height="200%">
            <feGaussianBlur in="SourceAlpha" stdDeviation="2" result="blur"/>
            <feOffset dy="-1" dx="-1"/>
            <feComposite in2="SourceAlpha" operator="arithmetic" k2="-1" k3="1" result="hlDiff"/>
            <feFlood flood-color="white" flood-opacity=".7"/>
            <feComposite in2="hlDiff" operator="in"/>
            <feComposite in2="SourceGraphic" operator="over" result="withGlow"/>
            <feOffset in="blur" dy="3" dx="3"/>
            <feComposite in2="SourceAlpha" operator="arithmetic" k2="-1" k3="1" result="shadowDiff"/>
            <feFlood flood-color="black" flood-opacity="1"/>
            <feComposite in2="shadowDiff" operator="in"/>
            <feComposite in2="withGlow" operator="over"/>
        </filter>
        <filter id="__golge1" x="0" y="0" width="200%" height="200%" filterUnits="userSpaceOnUse">
            <feOffset result="offOut" in="SourceAlpha" dx="8" dy="8"/>
            <feGaussianBlur result="blurOut" in="offOut" stdDeviation="3"/>
            <feBlend in="SourceGraphic" in2="blurOut" mode="normal"/>
        </filter>
    </defs>
    <g id="__Komsular" display="none">
        <radialGradient id="SVGID_1_" cx="468.0459" cy="330" r="41.0532" gradientUnits="userSpaceOnUse">
            <stop offset="0" style="stop-color:#2F4A9F"/>
            <stop offset="1" style="stop-color:#FFFFFF"/>
        </radialGradient>
        <path fill-rule="evenodd" clip-rule="evenodd" fill="url(#SVGID_1_)" stroke="#000000" stroke-width="0.25" stroke-miterlimit="10" d="   M430.4,333.43c-1.3,0.1-5.23-1.08-3.5-2.75c1.93-1.93,6.57-1.88,9.32-2.51c0.68-0.17,1.35-0.34,2.03-0.51   c1.14-0.67,2.28-1.34,3.43-2.01c3.26-0.66,5.5-1.14,8.23-3.17c0.66-0.49,1.3-0.7,1.84-1.43c0.86-0.21,1.7,1.46,2.3,0.86   c0.67,0.29,1.34,0.29,2.01,0.57c0.61-0.22,1.37-0.54,2.01-0.29c0.55,0.54,1.17,0.04,1.72,0.57c1.24,0.1,2.49,0.19,3.73,0.29   c0-0.96-0.09-2.9,1.15-2.87c0.86-0.1,1.72-0.19,2.58-0.29c0.96,0.1,1.91,0.19,2.87,0.29c0.34-0.24,0.68-0.48,1.02-0.73l-0.16,0.44   c0.71,0,4.59-1.07,4.88-1.44c0.46,0.28,1.18,1.05,1.67,0.68c1.42-1.01,2.23-3.35,4.28-2.78c0.89,0.22,1.78,0.44,2.67,0.66   c0.49,0.97,0.66,1.97,2.01,1.72c0.32-0.59,0.64-1.18,0.96-1.77c2.22-0.8,4.81-0.53,7.08-0.53c1.25,1.43,2.5,2.17,4.16,3.19   c0.64-0.04,1.71,0.48,1.87,1.12c1.05,0.1,3.45,0.25,3.83,0.88c0.21,0.3,0.42,0.6,0.63,0.9c-0.82,0.37-1.78,1.57-2.74,0.81   c-0.1,0.31-0.19,0.63-0.29,0.94c-0.29,1.64,0.3,5.8-0.39,6.98c-0.92,2.08-4.27,3.9-5.94,5.28c-1.12,0.92-1.83,1.91-3.22,2.42   c-2.06,0.76-4.11,0.58-6.13,1.54c-2.15,1.03-1.99,3.04-4.89,2.82c-0.47,0.48-0.33,0.48-0.71,0.14c-0.66-0.87-1.32-1.74-1.98-2.61   c-1.03-0.59-2.06-1.17-3.1-1.76c-3.18-0.66-6.36-1.32-9.54-1.97c-1.92,0.56-4.94,0.97-6.86,0.74c-1.4-0.16-4.16,1.03-5.16-0.03   c-2.3-0.1-4.64-1.48-6.94-1.58c-1.37-1.37-1.26-1.17-3.21-1.68c-2.04,0.7-2.28-1.53-4.4-1.53c-0.1-0.64-2.7-0.47-3.35-0.59   c-1.14-0.04-2.28-0.08-3.42-0.13c-0.35,0.09-2.07,0.44-2.42,0.52L430.4,333.43z"/>
        <radialGradient id="SVGID_2_" cx="60.3135" cy="320.7883" r="287.634" gradientTransform="matrix(1 0 0 0.3 0 224.5518)" gradientUnits="userSpaceOnUse">
            <stop offset="0" style="stop-color:#2F4A9F"/>
            <stop offset="1" style="stop-color:#FFFFFF"/>
        </radialGradient>
        <radialGradient id="SVGID_3_" cx="195.8442" cy="303.5171" r="110.8022" gradientUnits="userSpaceOnUse">
            <stop offset="0" style="stop-color:#FFFFFF"/>
            <stop offset="1" style="stop-color:#000000"/>
        </radialGradient>
        <path fill-rule="evenodd" clip-rule="evenodd" fill="url(#SVGID_2_)" stroke="url(#SVGID_3_)" stroke-width="0.25" stroke-miterlimit="10" d="   M50.77,244.82c2.48,1.34,6.92,2.25,6.3,5.74c-0.31,1.78-2.29,1.87-2.58,3.14c-0.62,2.67,1.58,2.31,2.89,1.74   c1.65-0.71,1.9-1.61,4.3-1.73c1.37-0.07,4-0.39,5.17,0.27c2.99,1.68,0.95,6.34-1.96,7.24c0.05,4.91-3.95,3.96-5.43,0.33   c-0.58,1.2-0.08,2.66,0.73,3.71c0.77,1.01,0.91,0.7,1.79,1.36c0.8,0.59,1.53-0.04,2.03,0.87c1.22,2.22-1.54,2.44-2.32,3.39   c-1.05,1.28-1.34,1.92-1.2,3.75c-2.63,2.26-4.78-0.56-6.76,1.28c1.8,0.72,0.73,4.62,0.82,6.49c3.08-0.66,2.63-4.89,6.34-5.36   c3.12-0.4,5.9,0.7,9.07,0.18c0.64-3.91,4.74-2.6,4.97,0.57c4.03,0.63,3.81-1.78,4.6-4.79c2.29-0.17,4.01,1.63,5.91,2.61   c1.78,0.92,3.98,0.85,5.24,2.51l-0.55,0.11c0.4,1.93,3.75,5.41,2.13,7.5l1.15,1.44c-0.13,0.27-0.26,0.54-0.39,0.82   c-0.57,1.16-1.26,0.59-1.62,1.48c-1.04-1.04-1.53-2.31-3.11-1.15c-0.45,0.28-0.49,0.24-0.62,0.86c-0.96,0.19-1.84,0.84-1.32,0.98   c0.73,0.63,1.45,1.26,2.18,1.89c0.83-0.14,3.41-0.56,3.42-0.56c1.28,1.5,1.54,2.91,2.32,4.58c0.39,0.85-0.01,1.82,0.57,2.58   c-0.26,0.96-0.5,1.56-1.11,2.36c-0.07,0.93,0.95,5.78,1.54,6.41c0.33,0.33,0.67,0.66,1.01,1c0.96-0.38,1.91-0.77,2.87-1.15   c0.86,0.19,1.72,0.38,2.58,0.57c0.46-0.3,0.85-0.7,1.44-0.57c1.01,0.21,1.73,0.8,2.87,0.86c1.06,0.06,3.8,1.57,4.35,1.24   c1.8-0.99,3.61-1.97,5.41-2.96c0.67-1.04,2.81-2.56,4.11-2.15c0.26,0.14,0.76-1.04,0.76-1.04c1.66-0.21,4.16-0.7,5.18-2.26   c1.15-0.29,2.3-0.57,3.45-0.86c1.28-0.27,4.9,0.58,6.03,1.15c2.37-1.06,4.94-1.65,7.47-1.72c1.36-1.21,2.76-1.73,4.26-2.65   c0.64,0.12,5.54-1.87,5.79-2.23c0.57,0.29,1.15,0.57,1.72,0.86c1.71-0.32,3.4,0.24,3.4,0.24c1.99,1.92,2.68,4.8,4.98,6.36   c1.91,1.29,1.98-0.2,3.83-0.01c1.53,0.16,2.13,1.29,3.96,0.68c1.48-0.5,2.51-1.31,4.07-1.67c1.49-0.34,2.83-1.25,4.25-1.49   c2.88-0.48,5.28,1.98,8,2.25c1.96,0.2,7.68-2.67,8.37-4.63l-0.96,0.85c2.64-1.39,5.28-2.79,7.91-4.18c0.91-0.5,2.51-1.17,3.28-0.41   c0.98-0.74,0.38-1.44,1.71-0.65c1.25,1.27,2.5,2.54,3.75,3.81c0.57,0.19,1.15,0.38,1.72,0.57c0.95,0.24,5.42-0.31,6.03-0.86   c0.48-0.1,0.96-0.19,1.44-0.29c1.34,0,2.68,0,4.02,0c0.57-0.1,1.15-0.19,1.72-0.29c1.22,0.31,2.45,0.61,3.67,0.92   c0.5-0.21,1-0.42,1.5-0.63c0.96,0,1.91,0,2.87,0c2.14,0.38,4.04,1.01,6.02,1.68c1.34-0.08,2.69-0.16,4.03-0.24   c0.96,0.57,1.91,1.15,2.87,1.72c0.53,0.34,3.16,1.37,3.16,1.72c0.86-0.86,2.55-1.11,3.73-1.15c1.37,0.75,2.75,1.51,4.12,2.26   c2.18,1.66,4.21,4.25,5.74,6.49c0.98,1.43,3.05,6.17,4.5,6.76c1.05,0,2.11,0,3.16,0c0.67,0.29,1.34,0.57,2.01,0.86   c0.59,0.17,0.95-0.17,1.44,0.29c0.86-0.77,1.72-1.53,2.58-2.3c1.5,0.15,2.13,1.1,2.58-0.57v0.85c0.97,0,3.26-1.27,4.02-2.01   c0.35,0.08,0.69,0.16,1.04,0.24c1.47-0.9,3.22-0.4,4.41-1.1c1.05,0.19,2.11,0.38,3.16,0.57c0.09,0.48,0.21,1.21,0.83,1.1   c0.3,0.01,1.45,0.17,1.75,0.19c0.91-0.83,0.95-1.81,1.86-2.64c0.67-0.25,1.35-0.19,1.88-0.66c1.82,0.48,2.8,1.44,5.46,1.44   c0.19-0.48,0.38-0.96,0.57-1.44c1.23-0.16,2.23,0.29,3.09-0.5l0.02-1.35c1.89-0.44,3.59-0.9,5.51-1.24   c0.72-0.13,1.66-0.29,2.01-0.92c1.53,0.1,3.06,0.21,4.59,0.31c0.96,0.18,1.92,0.36,2.88,0.55c0.48-0.19,0.96-0.38,1.44-0.57   c0.75,0,2.04-0.25,2.58,0.29c1.53-0.62,3.11-0.77,4.68-0.22c0.54-0.22,1.09-0.43,1.63-0.65c0.42-1.07,0.61-1.15,1.72-1.15   c0.48,0.86,0.96,1.72,1.44,2.58c0.98,0.42,2.87,0.68,3.28,1.76c0.34,1.04,0.68,2.08,1.02,3.12c-0.19,0.96-0.38,1.91-0.57,2.87   c-0.04,0.84-0.08,1.81,0.57,2.3c-0.12,1.13-0.23,2.26-0.35,3.38c-0.05,0.71-0.11,1.42-0.16,2.13c0.4,0.93,0.74,1.02,0.22,1.96   l0.14,0.14c-0.73,0.69-0.78,2.17-1.44,3.02c-0.7,0.89-1.42,2.03-2.55,2.4c-1.34,0.43-2.69-0.46-4.05-0.25   c-1.36,0.2-1.6,1.22-3.16,1.15c-1.3-0.06-2.1,0.56-3.3,0.43c-1.2-0.13-1.55-1.2-2.55-1.58c-1.32-0.5-1.97,0.65-3.05,1.01   c-2.03,0.69-4.16-1.17-6.32-0.87c-1.65,0.23-1.63,0.26-2.57-1.01c-0.76-1.01-1.33-2.38,0.68-2.02c0.16-0.86-0.11-2.94-0.73-3.53   c-1.09-1.05-2.12,0.18-3.28,0.5c-1.39,0.38-2.06-0.25-3.3-0.4c-1.18-0.14-1.98,0.3-3.15-0.42l-0.14,0.29   c-2.7,0.85-6.08,3.46-8.9,2.87c-0.67-0.48-1.34-0.96-2.01-1.44c-0.57-0.1-1.15-0.19-1.72-0.29c-0.57,0.38-1.15,0.77-1.72,1.15   c-0.95-0.63-1.44-1.66-1.44-2.87c0-0.47,0.44-0.57,0.86-0.57c-2.3,0.57-4.59,1.15-6.89,1.72c-0.77,0.86-1.53,1.72-2.3,2.58   c-1.65-0.99-6.34,1.19-8.33,1.6c-1.92,0.38-3.84,0.75-5.76,1.13c-1.43,0.14-2.86,0.29-4.29,0.43c-0.57,0.29-1.15,0.57-1.72,0.86   c-1.39,0.16-3.44,0.12-4.47,1.06c-0.46,0.42-1.56,0.87-1.56,1.53c-0.96,0.1-1.91,0.19-2.87,0.29c-0.67-0.19-1.34-0.38-2.01-0.57   c-0.9,0.67-1.25,0.4-2.3,0.29c-0.67,0.38-1.34,0.77-2.01,1.15c-1.53,0-6.11,0.59-7.18,0c-0.69,1.12-0.57,1.1-1.72,1.72h0.57   c-0.87-0.86-2.38,0.61-3.16,1.15c-2.63,0.08-5.68-0.64-8.05,0.75c-1.08-0.11-2.15-0.23-3.23-0.34c-0.45,0.84-0.64,2.22-1.41,2.65   c-1.74,0.94-3.16,0.57-5.11,0.39c-0.68,0.1-1.36,0.2-2.05,0.31c-1.9-0.01-3.8-0.01-5.71-0.02c-0.69,0.69-5.13,3.16-6.03,3.16   c-0.22,0.39-2.39,0.1-3.16-0.57c-2.98,0.89-5.84,0.28-8.9,0.57c-1.07,0.54-2.14,1.09-3.2,1.63l-0.39,0.81   c-3.13,1.75-8.9-4.94-9.23-7.99c-2.85-1.35-1.9-5.22-5.63-6.42c-2.54-0.81-6.44-1.02-9.22-1.42c-0.86-3.26,2.9-3.29,4.05-5.62   c1.08-2.19-0.23-5.71-0.13-8.08c-1.32,0.53-2.3,2.8-3.32,4.06c-1.37,1.68-2.85,3.26-4.31,4.82c-2.37,2.52-6.16,3.68-8.6,5.79   c-2.91,2.52-4.58,8.96-8.12,9.98c-1.15,0.33-2.58-0.29-3.74-0.01c-0.88,0.22-1.45,1.08-2.28,1.45c-1.94,0.88-3.97,2.09-6.04,2.29   c-5.12,0.5-6.61-3.91-10.69-5.39c-3.09-1.12-9.53-1.49-12.52,0.27c-0.64,1.73-2.51,3.04-4.01,4.32c-3.09,2.66-5.45,6.62-8.9,8.62   c-3.93,2.27-7.8,1.83-12.13,2.79c-4.45,0.99-8.82,2.92-12.9,4.61c-4.45,1.83-9.46,1.43-14.37,1.43L50.77,244.82z"/>
        <linearGradient id="SVGID_4_" gradientUnits="userSpaceOnUse" x1="312.634" y1="98.813" x2="312.634" y2="50">
            <stop offset="0" style="stop-color:#2F4A9F"/>
            <stop offset="1" style="stop-color:#FFFFFF"/>
        </linearGradient>
        <path fill="url(#SVGID_4_)" d="M550,85.75L549.62,50H75.27l0.77,0.14c2.1,1.01,3.8,3.06,5.98,3.72c2.12,0.64,4.93,0.76,7.22,0.88   c2.37,0.12,4.7,0.29,6.89,0.51c2.65,0.26,4.98,1.23,7.47,1.51c2.82,0.33,3.62-2.14,5.97-2.09c1.56,0.03,3.39,2.51,5.23,2.94   c2.52,0.59,4.71,0.59,7.17,1.38c2.05,0.66,4.09,0.72,6.03,1.48c2.26,0.88,4.28,2.17,6.32,3.17c1.68,0.83,4.3,1.11,6.31,1.71   c4.3,1.29,9.11,2.91,13.5,3.76c2.52,0.49,4.36,0.73,6.6,1.93c2.24,1.21,3.76,1.4,6.3,1.8c4.56,0.72,8.84,1.43,13.06,3.14   c4.28,1.74,8.7,1.44,13.66,1.95c2.64,0.27,4.11,0.69,6.04-1.09c0.97-0.9,0.62-1.73,2-2.29c0.82-0.34,2.84-0.07,3.73,0.01   c1.98,0.17,1.7,0.4,3.09,1.17c0.82,0.46,1.81,0.93,2.66,1.39c2.15,1.18,3.34,2.36,6.03,2.6c1.11,0.1,2.22-0.09,3.22,0.22   c1.16,0.36,1.8,1.46,2.87,1.73c1.11,0.28,2.15-0.32,3.09-0.23c1.77,0.17,1.83,0.75,3.24,1.39c3.82,1.74,7.94-1.12,11.98,0.92   c1.88,0.95,3.42,1.71,5.45,2.02c1.79,0.27,5.73-0.11,6.67,1.37c0.12-0.03,0.93-0.03,1.05,0c1.38-3.05,11.02-2.18,13.84-1.59   c4.55,0.95,8.79,1.85,12.98,3.59c4.04,1.68,8.05,4.65,12.29,5.51c2.19,0.45,4.23,1.32,6.61,1.17c2.16-0.14,3.84-1.03,6.01-1.16   c3.96-0.23,6.16,2.3,10.27,1.37c3.08-0.69,8.49,0.14,11.26-1.37l0.83-0.12c0.09-0.38,0.02-0.6,0.46-0.6   c1.05,0.29,2.11,0.57,3.16,0.86c3.19-0.1,7.43-0.47,10.05,1.44c2.11,0.1,4.21,0.19,6.32,0.29c0.91-0.29,1.66-0.94,2.53-0.79   c2.62,0.44,3.07,1.25,5.22,2.51c1.24,0.1,2.49,0.19,3.73,0.29c0.97-0.49,1.95-0.98,2.93-1.46c2.27-0.14,5,0.76,7.12-0.55   c0.81,0.23,0.92,0.47,1.72,0c0.32,1.21,1.21,2.28,2.61,1.8c1.1-0.34,0.43-2.93,2-2.51c0.57,0.04,1.14,0.09,1.7,0.13   c2.39,0.77,4.79,1.53,7.18,2.3c0.86-0.48,1.72-0.96,2.58-1.44c1.34,0.19,2.68,0.38,4.02,0.57c1.37,0.91,2.95,1.39,4.59,1.44   c0.6-1.24,1.37-2.58,2.86-2.68c1.61-0.06,5.98,1.23,6.61-0.76c0.23,0.72,0.85,2.87,1.72,2.87c0.95-1.57,2.69-3.58,4.69-3.76   c0.73-0.18,1.47-0.36,2.2-0.55c1.34,0,2.68,0,4.02,0c1.1,0.23,4.91,0.89,5.46,0.29c1.37,1.06,3.01,1.98,4.85,1.81   c2.32-0.21,4.33-1.68,6.06-2.96c0.56-0.06,1.12-0.13,1.68-0.19c1.3-0.26,2.16-0.47,3.2-1.25c0.1-1.15,0.19-2.3,0.29-3.45   c0.06,0.29,0.11,0.59,0.17,0.88c0.42,0.66,0.84,1.33,1.27,1.99c0.64-0.18,0.82-0.38,1.29,0.12c0.3,0.32,0.84,1.45,1.19,1.18   c0.85-0.64,1.92-1.24,1.53-2.44c0.8-0.83,1.77-1.45,1.62-2.58c-0.06-0.39-0.13-0.77-0.19-1.16c-0.7-0.44-2.45-2.02-0.86-2.49   c1.34-0.03,2.68-0.07,4.02-0.1c0.93-0.54,2.06-0.95,3.16-0.86c0,0.44-0.2,1.13,0.29,1.18c0.68,0.06,3.77,1.59,4.16,0.85   c0.42-0.78,3.15-2.93,2.12-3.71c-0.68-0.49-0.94-1.07-1.4-1.77c-0.68-0.3-2.73-1.09-2.08-2.04c0.75-1.17,1.1-1.8,2.32-2.54   c0.62-0.03,3.08,0.3,3.49,0.56c-0.11-0.21-0.22-0.42-0.32-0.64c-0.54-0.96-0.25-1.8-0.25-2.81c-1.45-1.35-2.03-0.74-2.58-2.87   c0.46,0.01,0.92,0.03,1.38,0.04c1.33-0.05,1.93-0.14,3.21-1c1,1.67,2.62,2.04,3.97,1.42c1.94-0.82,3.69-1.89,5.22-3.34   c0.06-1.94,0.96-2.14,1.66-3.85c0.35-0.87-0.04-1.3,0.28-2.07c0.25-0.61,0.23-1.62,0.85-1.94c0.76-0.4,1.16-0.79,2.03-0.69   c0.4-0.02,0.81-0.04,1.21-0.06c0.59,0.54,1.18,1.07,1.77,1.61c0.77,0.49,1.88,0.41,2.25,1.27c2.11,0.57,4.21,1.15,6.32,1.72   c1.15,0.1,2.3,0.19,3.45,0.29c0.61-0.28,1.22-0.56,1.83-0.84c1.52,0.88,2.72,1.48,4.49,1.7c0.87-1.28,3.08-1.83,4.59-1.15   c-0.09,1.02-0.07,2.5,0.89,3.05c1.47,0.8,2.91,1.17,4.56,1.27c0.63,0.04,1.18,0.32,1.73-0.02c0.06,0.11,0.12,0.23,0.18,0.34   c0.5,1.12,1,2.25,1.51,3.37c1.54,1.06,3.09,2.12,4.63,3.18c0.61,0.61,0.91,0.79,1.72,0.57l-0.14-0.43   c4.12,3.96,9.51,4.69,14.64,6.37c5.05,1.66,11.03,3,14.93,6.55L550,85.75z"/>
        <text transform="matrix(0.6249 -0.7807 0.7807 0.6249 90.8818 177.938)" font-family="'MyriadPro-Regular'" font-size="17.2282">İSTANBUL</text>
        <path fill="none" stroke="#000000" stroke-width="0.25" stroke-miterlimit="10" d="M149.16,413.47c-2.32-1.32-8.53-2.28-9.96,0   c-1.71,2.72,2.36,8.07-3.76,6.95c1.33,11.96-25.77-1.29-30.28-3.12c-5.29-2.14-14.34-6.03-17.64,0.79c-1.38,2.86-2.4,5.27-4.2,8.02   c-1.63,2.49-1.84,6.34-3.43,8.44c-3.02,4-9.59-1.59-13.41-2.59c-5.62-1.48-10.86,0.56-16.46-0.1"/>
        <text transform="matrix(1 0 0 1 74.885 392.793)" font-family="'MyriadPro-Regular'" font-size="17.2282">YALOVA</text>
        <text transform="matrix(1 0 0 1 223.0474 445.2432)" font-family="'MyriadPro-Regular'" font-size="17.2282">BURSA</text>
        <path fill="none" stroke="#000000" stroke-width="0.25" stroke-miterlimit="10" d="M347.86,427.63c1,2.6,4.52,4.57,6.06,6.98   c1.38,2.17,2.15,5.1,3.03,7.56c0.95,2.67,2.98,5.13,3.85,7.67c0.96,2.82-0.54,5.87,2.37,7.66"/>
        <text transform="matrix(0.6927 -0.7213 0.7213 0.6927 443.6724 425.2244)" font-family="'MyriadPro-Regular'" font-size="17.2282">SAKARYA</text>
        <text transform="matrix(0.1315 -0.9913 0.9913 0.1315 526.7153 256.9014)" font-family="'MyriadPro-Regular'" font-size="17.2282">SAKARYA</text>
    </g>
    <g id="__Harita" fill="white" stroke="#000000" stroke-width="0.25" stroke-miterlimit="10" display="none">
        <rect id="__cer" x="0" y="0" fill="#000000" opacity="0" width="600" height="500"/>
        <g id="__Gebze">
            <path d="    M120.67,303.22c1.66-0.21,4.16-0.7,5.18-2.26c1.15-0.29,2.3-0.57,3.45-0.86c1.28-0.27,4.9,0.58,6.03,1.15    c2.37-1.06,4.94-1.65,7.47-1.72c1.36-1.21,2.76-1.73,4.26-2.65c0.64,0.12,5.54-1.87,5.79-2.23c0.57,0.29,1.15,0.57,1.72,0.86    c1.71-0.32,3.42-0.63,5.12-0.95c0.59-0.21,2.05-0.66,2.05-1.35c0.19-1.15,0.38-2.3,0.57-3.45c-0.19-1.05-0.38-2.11-0.57-3.16    c-0.79-0.74-1.58-1.49-2.37-2.23c-0.17,0.07-0.33,0.15-0.5,0.22c-0.38-0.57-0.77-1.15-1.15-1.72c-0.4-0.25-1.83-0.83-1.66-1.34    c0.64-1.42-0.68-1,0.85-1.62c2.18-0.54,4.37-1.09,6.55-1.63c0.96,0.19,1.91,0.38,2.87,0.57c0.19,0.42,0.37,0.84,0.56,1.26    c0.31,1.87,0.61,3.74,0.92,5.61c0.19,0.64,0.38,1.29,0.57,1.93c0.56-0.92,1.12-1.84,1.69-2.76c0.17-1.31,0.18-2.54-0.57-3.73    c-0.06-2.02,0.31-2.51-1.37-4.32c-0.15-0.67-0.58-1.46-1.21-1.71c0.29-0.48,0.57-0.96,0.86-1.44c-0.29,0-0.57,0-0.86,0    c-0.39-1.44-0.79-2.88-1.18-4.32c-0.22-2.41-0.9-6.96-2.55-8.88c0.19-1.91,0.38-3.83,0.57-5.74c-0.06,0.22-0.13,0.44-0.19,0.66    c-0.03,0.36-0.07,0.71-0.1,1.07c0.02-0.57,0.04-1.14,0.05-1.7c-0.16-1.13-1.05-4.45-0.35-5.2c0.5-0.52,2.17-2.35,2.59-2.58    c0.66-1.19,1.31-2.22,2.3-3.16c2.34-1.42,4.69-2.84,7.03-4.25c1.28-1.09,2.57-2.17,3.85-3.26c0.58-0.18,1.17-0.35,1.75-0.53    c0.92-0.36,1.29-1.03,2.3-0.86c0.61-0.48,0.93-0.83,1.72-0.86c1.63-2.52,2.63-5.05,5.13-6.95c0.69-0.53,2.24-1.64,3.03-1.12    c0.25,0.11,0.49,0.22,0.74,0.32c0.74,1.05,2.15,3.85,3.43,4.06c1.17,0.23,1.59,0.08,2.6-0.62c1.82-0.19,3.64-0.38,5.46-0.57    c0.67-0.17,1.33-0.35,2-0.52c1.62,0.33,4.31,1.55,4.6,3.39c0.57,0.38,1.15,0.77,1.72,1.15c0.76,0.19,1.51,0.38,2.27,0.57    c0.74,0.46,3.02,3.01,3.73,2.81c1.29-0.32,2.57-0.63,3.86-0.95c1.4-0.14,2.81-0.28,4.21-0.41c1.25,0.38,2.5,0.77,3.75,1.15    c0.52-0.01,1.23,0.04,1.95,0.01c1.09-0.04,2.19-0.27,2.63-1.16c0.99-0.14,1.97-0.29,2.96-0.43c0.85-1.33,0.85-3.48,1.79-3.98    c0.71-0.44,1.43-0.89,2.14-1.33c0.62-0.15,1.23-0.3,1.85-0.46c1.73-0.6,3.76-2.01,4.76-3.56c1.14-2.78,2.28-5.55,3.42-8.33    c0.51-2.48,0.04-5.26,2.32-6.89c1.05-1.05,2.11-2.11,3.16-3.16c-1.05-0.38-2.25,0.05-3.16-1.15c0.9-0.85,2.47-1.42,1.98-2.47    c0.01-0.23,0.02-0.46,0.03-0.69c-0.86-0.48-1.71-0.96-2.57-1.44c0.05-0.85,0.07-2.22,0.56-2.87c-0.29-1.72-0.57-3.45-0.86-5.17    c0.51-1.41,1.81-5.31,1.15-6.6c0.2-0.66,0.25-1.4,0.86-1.72c0.07-1.12,0.14-2.24,0.21-3.36c0.06-0.78,0.75-1.72,0.37-2.39    c3.75-3.31,3.82-4.12,4.71-8.81c0.14-0.79,0.28-1.58,0.42-2.37c0.62-0.31,0.73-0.11,0.48-0.5c-1.22-1.92-2.78-3.65-3.61-5.83    c-0.77-2.02,0.44-5.2-0.5-7.03c-0.31-0.61-0.86-1.07-1.8-1.29c-0.44-0.77-1.76-2.3-1.44-3.16c-0.28,0.01-0.56,0.02-0.83,0.03    c-0.73,0.07-0.39-0.58-0.98,0.13c-0.42,0.56-0.26,0.71-1.06,0.7c-0.96,1.61-1.48,3.43-3.35,4.18c-0.15,0.63-0.51,1.63-1.26,1.52    c-3.04-0.39-3.67-1.27-6.31-2.54c-0.21,0.42-0.42,0.84-0.63,1.27c-0.39,0.86-2.12,5.13-2.08,5.29c0.44,1.61,1.33,1.93,1.99,3.36    c0.26,0.63,0.53,1.26,0.79,1.88c0.37,0.12,0.75,0.25,1.12,0.37c0.32,0.99,0.28,0.75,1.02,0.39c0.7-0.26,1.39-0.52,2.09-0.78    c0.08,0.11,0.17,0.23,0.25,0.34c0.66,0.93,1.33,1.87,1.99,2.8c-0.13,0.55-0.26,1.09-0.39,1.64c-0.73,0.91-1.21,1.59-2.42,1.25    c-0.84,1.23-4.41,4.83-4.31,6.03c-0.96,0.38-1.91,0.77-2.87,1.15c-0.29,0.29-0.57,0.57-0.86,0.86c-0.34,1.47-0.8,2.49-1.62,3.73    c0.06,0.19,0.12,0.38,0.18,0.57c-0.57,0.57-1.15,1.15-1.72,1.72c-1.2,2.76-1.16,4.57-3.73,6.6c-1.62-0.31-6.03,1.2-6.83,0.73    c-0.64-0.39-0.74-0.62-1.5-0.44c-0.26-0.72-1.08-1.68-0.86-2.3c-0.38-0.19-0.77-0.38-1.15-0.57c-3.95-0.25-7.85-1.31-11.12-3.32    c-1.08-0.71-2.16-1.42-3.24-2.14c-1.09-0.3-4.08-0.43-4.37-1.71c-0.17-0.39-0.34-0.77-0.51-1.16c0.23-1.39,0.37-3.86,2.01-4.02    c0.06-1.69,0.11-3.38,0.17-5.07c-0.08-1,0.15-2.24-0.7-2.95c0.08-0.29,0.16-0.59,0.24-0.88c-0.09,0.01-0.19,0.02-0.28,0.04    c-0.81,0.15-4.06,1.62-3.98,1.1c0.08-0.63-0.03-0.76,0.53-1.14c0.1-1.15,0.19-2.3,0.29-3.45c-0.5-1.61-1-3.21-1.5-4.82    c0.13-0.66,0.25-1.32,0.38-1.98c0.28-0.13,0.56-0.25,0.83-0.38c-0.21-0.16-0.42-0.33-0.64-0.49c-1.5-1.07-3.84-1.88-5.72-2.19    c-1.27-0.21-2.76-0.03-3.41-1.34c-1.08-0.14-2.45-0.63-3.16,0.29c-1.67-1.09-2.99-2.2-4.88-2.87c-0.94,0.37-3.1,0.53-3.45,1.72    c-0.57-0.29-1.15-0.57-1.72-0.86c-0.84,0.2-1.63,0.6-2.3,0c-1.06,0.58-2.26,2.35-3.19,2.13c-2.4-0.58-2.83-2.34-4.55-3.81    c-0.96-0.82-1.83-0.23-2.02-1.76c-0.46,0.17-0.92,0.35-1.37,0.52c-2.59,0.93-1.62,1.54-2.73,3.17c-2.02,2.98-3.56,3.88-2.88,7.71    c-0.36,0.68-0.85,2.27-0.48,2.96c-1.08,1.27-3.59,3.42-2.4,5.11c0.07,0.09,0.96,1.94,0.97,2.06c1.68,1.38,2.81,2.22,3.82,4.12    c0.15,0.34,0.29,0.69,0.44,1.03c-0.13,1.38-0.27,2.77-0.4,4.15c-0.91,0.62-1.82,1.24-2.74,1.86c-1.11,1.17-2.21,2.34-3.32,3.51    c-1.6,1.03-2.66,1.51-3.12,3.49c-0.5,0.26-0.45,0.06-0.37,0.48c0.33,0.86,0.66,1.71,1,2.57c-0.28,0.57-0.57,1.13-0.85,1.7    c-0.5,0.67-1.99,1.36-1.63,2.36c-0.3,0.1-0.59,0.2-0.89,0.31c-0.22-0.06-0.44-0.12-0.66-0.18c-1.16,1.35-1.91,3.67-3.62,4.18    c-1.2-0.42-2.92-1.71-3.82-0.92c-0.33,0.37-0.1,0.25-0.77,0.06c-0.58,1.88-0.68,2.09-2.3,3.45c-1.84,1.55-3.36,0.78-4.31,3.43    c-0.34,0.96-0.73,0.35-0.39,1.6c0.28,0.87,0.66,2.76,1.54,3.01c0,0.96,0,1.91,0,2.87c-0.09,1.96-0.76,3.77,1.2,5.08    c0.61,0.32,0.52,0.11,0.81,0.95c1.13-0.3,1.4-0.66,2.41-0.02c0.55,0.02,0.42-0.13,0.53,0.29c0.09,0.4,0.17,0.8,0.26,1.19    c0.14,0.13,0.28,0.26,0.42,0.39c-1.4,1.88-3.1,3.64-4.46,5.34c-0.87,0.57-1.74,1.14-2.61,1.71c-2.58,0.24-9.05-0.31-9.95,2.6    c-0.22,0.81-0.33,1.87,0.19,2.57c-0.38,1.72-0.77,3.45-1.15,5.17c0.1,1.15,0.19,2.3,0.29,3.45c0.86,1.63,1.72,3.25,2.58,4.88    c-0.09,0.68,0.02,1.03-0.57,1.44c0.48,1.53,0.96,3.06,1.44,4.59c-0.17,0.62-0.33,0.85,0,1.44c-0.96,1.24-1.91,2.49-2.87,3.73    c0.57,0.14,2.9,0.3,2.84,0.85c-0.07,0.65-0.13,1.31-0.2,1.97c-0.12,0.67-2.85,0.64-2.51,1.09c0.31,0.39,2.46,2.83,2.17,3.15    c-0.53,1.24-1.8,2.03-2.27,3.43c-0.2,0.04-0.41,0.09-0.61,0.13c0.74,1.92,1.58,3.28,0.18,5.2c-0.25,0.3-0.5,0.6-0.74,0.9    c-0.39,0.17-0.77,0.34-1.16,0.51c-1.15-0.38-2.3-0.77-3.45-1.15c-0.73-0.06-1.45-0.11-2.18-0.17c-0.74-0.34-1.49-0.69-2.23-1.03    c-0.79-0.34-3.27-2.11-3.87-1.85c-1.29,0.64-3.5,2.16-3.2,3.91c-0.44,0.5-0.79,0.76-0.86,1.44c-0.08,0.69,0.06,1.07-0.57,1.44    c0.07,0.04,0.13,0.08,0.2,0.13c2.42,1.54,5.21,4.66,7,6.95c0.46,0.59,0.37,0.98,1.13,1.25c0,0.63,0.53,0.62,0.91,1.39    c0.1,0,1.94,0.57,3.11,2.06c0.38,0.38,0.77,0.77,1.15,1.15c1.84,0.88,3.69,1.75,5.53,2.63c0.83,0.28,3.85,1.02,3.97,1.8    c0.06,0.69,0.55,1.31,0.39,1.64c-0.69,1.29-3.02,3.09-4.43,3.4C120.68,301.52,119.23,303.4,120.67,303.22z"/>
            <circle cx="128.01" cy="283.87" r="1.586"/>
        </g>
        <g id="__Kandıra">
            <path d="    M329.43,93.93c1.05,0.29,2.11,0.57,3.16,0.86c3.19-0.1,7.43-0.47,10.05,1.44c2.11,0.1,4.21,0.19,6.32,0.29    c0.91-0.29,1.66-0.94,2.53-0.79c2.62,0.44,3.07,1.25,5.22,2.51c1.24,0.1,2.49,0.19,3.73,0.29c0.97-0.49,1.95-0.98,2.93-1.46    c2.27-0.14,5,0.76,7.12-0.55c0.81,0.23,0.92,0.47,1.72,0c0.32,1.21,1.21,2.28,2.61,1.8c1.1-0.34,0.43-2.93,2-2.51    c0.57,0.04,1.14,0.09,1.7,0.13c2.39,0.77,4.79,1.53,7.18,2.3c0.86-0.48,1.72-0.96,2.58-1.44c1.34,0.19,2.68,0.38,4.02,0.57    c1.37,0.91,2.95,1.39,4.59,1.44c0.6-1.24,1.37-2.58,2.86-2.68c1.61-0.06,5.98,1.23,6.61-0.76c0.23,0.72,0.85,2.87,1.72,2.87    c0.95-1.57,2.69-3.58,4.69-3.76c0.73-0.18,1.47-0.36,2.2-0.55c1.34,0,2.68,0,4.02,0c1.1,0.23,4.91,0.89,5.46,0.29    c1.37,1.06,3.01,1.98,4.85,1.81c2.32-0.21,4.33-1.68,6.06-2.96c0.56-0.06,1.12-0.13,1.68-0.19c1.3-0.26,2.16-0.47,3.2-1.25    c0.1-1.15,0.19-2.3,0.29-3.45c0.06,0.29,0.11,0.59,0.17,0.88c0.42,0.66,0.84,1.33,1.27,1.99c0.64-0.18,0.82-0.38,1.29,0.12    c0.3,0.32,0.84,1.45,1.19,1.18c0.85-0.64,1.92-1.24,1.53-2.44c0.8-0.83,1.77-1.45,1.62-2.58c-0.06-0.39-0.13-0.77-0.19-1.16    c-0.7-0.44-2.45-2.02-0.86-2.49c1.34-0.03,2.68-0.07,4.02-0.1c0.93-0.54,2.06-0.95,3.16-0.86c0,0.44-0.2,1.13,0.29,1.18    c0.68,0.06,3.77,1.59,4.16,0.85c0.42-0.78,3.15-2.93,2.12-3.71c-0.68-0.49-0.94-1.07-1.4-1.77c-0.68-0.3-2.73-1.09-2.08-2.04    c0.75-1.17,1.1-1.8,2.32-2.54c0.62-0.03,3.08,0.3,3.49,0.56c-0.11-0.21-0.22-0.42-0.32-0.64c-0.54-0.96-0.25-1.8-0.25-2.81    c-1.45-1.35-2.03-0.74-2.58-2.87c0.46,0.01,0.92,0.03,1.38,0.04c1.33-0.05,1.93-0.14,3.21-1c1,1.67,2.62,2.04,3.97,1.42    c1.94-0.82,3.69-1.89,5.22-3.34c0.06-1.94,0.96-2.14,1.66-3.85c0.35-0.87-0.04-1.3,0.28-2.07c0.25-0.61,0.23-1.62,0.85-1.94    c0.76-0.4,1.16-0.79,2.03-0.69c0.4-0.02,0.81-0.04,1.21-0.06c0.59,0.54,1.18,1.07,1.77,1.61c0.77,0.49,1.88,0.41,2.25,1.27    c2.11,0.57,4.21,1.15,6.32,1.72c1.15,0.1,2.3,0.19,3.45,0.29c0.61-0.28,1.22-0.56,1.83-0.84c1.52,0.88,2.72,1.48,4.49,1.7    c0.87-1.28,3.08-1.83,4.59-1.15c-0.09,1.02-0.07,2.5,0.89,3.05c1.47,0.8,2.91,1.17,4.56,1.27c0.63,0.04,1.18,0.32,1.73-0.02    c0.06,0.11,0.12,0.23,0.18,0.34c0.5,1.12,1,2.25,1.51,3.37c1.54,1.06,3.09,2.12,4.63,3.18c0.61,0.61,0.91,0.79,1.72,0.57    c-0.05,0.08-0.1,0.16-0.14,0.24c-0.62,1.16-1.24,2.33-1.87,3.49c-1.95,0.91-4.02,1.32-5.86,2.54c-0.82,0.88-1.65,1.75-2.47,2.63    c-1.05,0.57-2.11,1.15-3.16,1.72c-0.67,0.67-1.34,1.34-2.01,2.01c0.02,0.71-0.15,1.74,0.29,2.3c-0.77,1.15-1.53,2.3-2.3,3.45    c0.25,0.24,0.5,0.48,0.75,0.72c-0.56,0.93-0.62,4.12-0.18,5.02c-0.38,2.2-0.77,4.4-1.15,6.6c-0.56,1.23-2.9,2.88-3.45,3.16    c-1.73,1.76-3.15,2.83-4.88,4.59c-1.14,0.44-1.16,2.72-2.3,3.16c-2.01,2.49-4.02,4.98-6.03,7.47c-0.65,0.33-1.73,0.54-2.01,1.15    c-1.09-0.32-5.45-1.44-6.03-0.86c-0.29,0.1-0.57,0.19-0.86,0.29c-0.48,0.96-0.96,1.93-1.44,2.89c-1.56,0.15-3.77-0.26-5.12,0.52    c-0.21-0.18-0.41-0.36-0.62-0.54c-0.03,0.55-0.07,1.09-0.1,1.64c0.18,1.05,0.36,2.1,0.55,3.15c0.33,0.89,0.66,1.78,0.99,2.67    c0.73,1,1.87,1.87,1.44,3.16c0.79,1.57,0.78,2.97,1.24,4.56c-0.32,0.5-0.64,1-0.96,1.51c0,0.28,0.01,0.55,0.01,0.83    c-1.03,0.54-4.61,3.07-4.23,4.27c0.34,1.11,1.01,1.73,0.21,2.62c0.32,0.69,0.53,1.28,1.15,1.72c-0.09,2.84-0.7,4.97-2.62,7.23    c-0.53,0.62-0.94,1.71-1.69,1.96c-0.25,1.02-1.29,1.39-2.63,1.96c-0.96,0.57-0.9,1.15-1.03,0.82c1.32,2.81,2.63,5.61,3.95,8.42    c0.19,0.86,0.38,1.72,0.57,2.58c-0.12,0.66-0.25,1.33-0.37,1.99c-0.07,1.25-0.14,2.5-0.21,3.75c0.36,1.08,1.39,2.75,1.15,3.73    c0.37,0.01,0.75,0.02,1.12,0.03c0.2,0.09,0.4,0.17,0.6,0.26c0.82-0.66,2.84-2.58,3.73-2.58c0.67,0,1.34,0,2.01,0    c0.08,0.19,0.17,0.37,0.25,0.56c0.33,0.78,0.54,1.51,1.27,1.97c0.57,0.27,1.15,0.53,1.72,0.8c0.52,1.06,1.04,2.12,1.56,3.18    c0.2,0.3,0.34-1.06,0.52-0.91c0.71,0.72,1.42,1.44,2.14,2.16c0.19,0.57,0.38,1.15,0.57,1.72c0,1.67-0.7,4.75,1.18,5.02    c0.18,0.14,0.36,0.29,0.55,0.43c1.36-0.31,3.61-1.21,3.91,0.3c0.04,0.19,0.07,0.38,0.11,0.57c-0.19-0.1-0.38-0.19-0.57-0.29    c-0.73,0.68-1.52,1.86-2.58,1.72c0,0.09-0.01,0.19-0.01,0.28c0,0.58,0.01,1.15,0.01,1.73c-0.73,1.34-2.26,3.57-1.83,5.03    c0.13,0.43,0.26,0.86,0.39,1.28c0.63,0.44,4.07,2.72,3.59,3.35c-0.72,1.01-1.24,1.81-2.44,2.4c-0.61,0.3-1.93,0.37-2.15,0.92    c-0.24,0.65-0.48,1.3-0.72,1.95c0.27,0.8,0.61,1.05,0,1.72c0.2,0.04,0.39,0.08,0.59,0.13c0.66-0.05,1.32-0.11,1.97-0.16    c0.86,0.91-0.15,2.46,0.88,3.48c0.74,0.74,2.29-0.6,2.77,0.38c0.51,1.21,1.02,2.43,1.53,3.64c-0.24-0.09-0.47-0.17-0.71-0.26    c-0.57-0.17-1.15-0.47-1.59-0.03c-1.02,1.02-0.71,6.58-2.8,6.23c-2.36-0.61-5.67-2.01-6.68-4.5c-0.25-0.62-0.92-0.72-1.15-1.44    c-1.15-0.38-2.3-0.77-3.45-1.15c-0.72-0.23-1.37,0.16-2.01-0.29c-1.05,0.29-2.11,0.57-3.16,0.86c-1.07,0.62-2.14,1.24-3.21,1.87    c-0.75,0.05-1.5,0.1-2.24,0.14c-0.48-0.8-0.99-1.3-0.51-2.13c0.54-0.88,0.8-1.47,1.95-1.89c0.29-0.57,0.57-1.15,0.86-1.72    c-0.28-0.2-0.56-0.41-0.84-0.61c-2.26-1.62-4.52-3.83-5.76-6.28c-0.55-1.09-0.24-1.85-1.21-2.82c0.07-0.19,0.14-0.39,0.22-0.58    c-0.63,0.37-1.25,0.74-1.88,1.1c-1.63,0.29-3.25,0.57-4.88,0.86c-0.59,0.14-1.59,0.07-2.01-0.29c-1.25,0.17-2.51,0.34-3.76,0.51    c-1.3,0.07-4.19-1.3-4.53-0.5c-0.88,2.17-1.24,3.65-1.2,6.01c-0.06,0.52-0.12,1.04-0.18,1.56c0.95,1.08,1.51,2.39,2.7,3.45    c0.1,0.87,0.43,1.19,0.94,1.88c0.38,0.1,0.77,0.19,1.15,0.29c-0.13,0.31-0.26,0.62-0.39,0.92c-0.15,0.41-0.01,1.1-0.46,1.07    c-1.89-0.13-4.05-0.34-5.75,0.88c-0.22,0.78-0.07,0.97-0.71,1.6c-0.99,0.97-2.05,1.14-2.21,2.51c-0.02,0.57,0.11,0.42-0.53,0.77    c0.49,0.41,0.98,0.83,1.47,1.24c-0.16,0.56-0.38,1.67-0.67,1.85c-2.7,1.71-5.28,1.17-8.55,1.22c-1.72,0.29-3.45,0.57-5.17,0.86    c-1.36,0.15-1.92-0.45-2.87-1.44c-0.3,0.28-0.6,0.55-0.9,0.83c-1.1,1.18-4.72,5.49-6.28,5.49c-1.91-0.1-3.83-0.19-5.74-0.29    c-0.67-0.29-1.34-0.57-2.01-0.86c-0.38-0.38-0.77-0.77-1.15-1.15c0.21-0.67,0.99-2.44,0.41-3.04c-0.58-0.6-1.89-2.39-2.71-2.41    c-1.4,0-0.06-2.23-2.3-3.45c-2.46-1.67-2.99-3.62-1.72-4.88c0.08-0.9-0.23-1.52,0.57-2.01c-0.38-0.14-0.77-0.29-1.15-0.43    c-2.05-0.68-8.01-1.77-8.58-3.63c-0.45-0.82-0.9-1.65-1.35-2.47c-0.76-0.08-0.72,0.16-0.67-0.36c0.12-1.25,0.21-2.32,1.7-2.3    c0.91-2.17,1.9-2.67,3.45-4.31c0-0.84-0.8-0.91-0.22-1.75c0.27-0.39,0.31-0.57,0.79-0.55c0.41-1.17,0.81-2.33,1.22-3.5    c0.16-0.16,0.32-0.32,0.48-0.48c-0.22-1.62-0.13-3.63-1.99-3.8c-1.57,0.74-2.25,3.09-2.14,3.62c0.28,1.19-2.62,1.81-3.28,2.48    c-0.48,0.46,0.28,0.88-0.3,0.77c-0.39,0.02-0.77,0.04-1.16,0.05c-1.23-0.4-3.51-1.56-4.31,0c0.32-0.62,0.97-1.62,0-2.01    c0.13-0.06,0.25-0.13,0.38-0.19c0.89-0.52,1.38-1.02,1.35-2.11c-0.86-0.38-1.72-0.77-2.58-1.15c0-2.19-0.66-4.81-3.45-4.55    c-0.48-0.02-0.96-0.03-1.44-0.04c-0.96,0.77-1.91,1.53-2.87,2.3c-0.78-0.15-0.88-0.4-1.44,0.29c0-0.94,0.28-2.72-0.59-2.33    c-0.28,0.01-0.56,0.02-0.84,0.04c-1.11,1.23-2.29,1.8-2.66,3.49c-0.17,0.18-0.33,0.35-0.5,0.53c0.45,1.8,1.58,2.94,0.51,4.69    c0.12,0.16,0.23,0.32,0.35,0.48c-0.11,0.04-0.23,0.08-0.34,0.13c-1.06,0.39-3.93,1.08-4.24,0.48c-0.38-0.74-1.07-1.51-0.58-2.33    c-0.27-0.22-0.53-0.44-0.8-0.66c-0.92-0.37-5.11,0.73-5.31,0.13c-0.26-0.83-0.53-1.66-0.79-2.49c0.45-0.66-0.07-2.19-0.35-2.98    c-0.26-0.73-1.08-1.6-0.5-2.33c-1.19-0.27-2.82,0.1-3.04-1.14c0.06-0.29,0.11-0.58,0.17-0.87c-0.33-1.23-0.78-5.43-1.35-5.84    c-0.86-0.65-2.39-0.77-2.67-1.91c-0.19,0.09-0.39,0.19-0.58,0.28c-0.59,0.31-0.83,0.63-1.43,0.3c-1.84,2.3-3.19,4.53-6.33,4.68    c-0.24-0.01-0.48-0.02-0.73-0.04c-0.45,0.57-0.25,0.68-0.69,0.22c-0.61-0.68-1.6-0.68-1.72-1.71c-0.09,0.02-2.55,1.37-2.63,1.39    c-1.83,0.36-1.28-0.6-3.11-0.24c-0.36-0.69-0.11-1.12-0.9-1.27c-1.73-0.3-3.84,0.36-5.95,0.17c-0.49,0.46-1.91,1.07-2.63,1.1    c-0.2,0.49-0.28,3.55-0.81,3.3c-1.26-0.83-3.09-2.48-4.35-3.3c0-0.48,0-0.96,0-1.44c0.33-1.35,0.66-2.69,0.99-4.04    c-0.42-0.82-1.84-1.98-1.56-2.85c-0.4-0.15-0.8-0.29-1.19-0.44c-2.02-0.54-2.7,0.91-4.36-0.87c-1.04-1.25-1.88-2.39-2.69-3.89    c-0.41-0.75-0.82-1.51-1.23-2.26c0.3-2.38,0.29-4.63,0.29-6.89c-0.83-0.57-1.92-1.62-2.87-1.72c-0.37-0.78-0.74-1.56-1.11-2.33    c-0.39-0.51-1.42-1.69-1.14-2.37c0.66-1.37,1.77-2.91,3.4-3.05c1.05-1.24,2.11-2.49,3.16-3.73c1.24-0.48,2.49-0.96,3.73-1.44    c1.14-2.12,2.18-4.29,4.02-6.03c1.42,0.2,3.67,0.48,3.89-0.89c0.15-0.95,0.61-1.85,0.41-2.84c-0.21-1.05-0.83-2.45-0.29-3.45    c0.86-0.77,1.72-1.53,2.58-2.3c0.46-0.68,0.56-2.93,1.72-2.58c0.25-0.5,0.34-0.94,0.86-1.15c0.04-1.42,0.08-2.84,0.13-4.25    c0.11-0.72,0.19-1.76,1.02-1.49c-0.1-0.48-0.19-0.96-0.29-1.44c-0.55,1.14-0.79,1.24-2.01,1.44c-0.29-0.39-0.59-0.77-0.88-1.16    c0.01-0.86,0.01-1.72,0.02-2.58c0.79-0.79,2.08-2.89,1.44-4.02c0.68-0.72,0.93-0.64,0.86-1.72c0.18-0.06,0.36-0.11,0.54-0.17    c0.87-0.23,1.75-0.46,2.62-0.69c0.83,0.28,3.52,0.87,3.97,0.25c0.79-1.05,1.6-1.62,1.05-2.84c-0.33-1.24-0.66-2.49-1-3.73    c0.33-0.54,0.65-1.07,0.98-1.61c0.34-0.61,0.69-1.23,1.03-1.84c-0.26-0.68-0.51-1.37-0.77-2.05c-0.12-1.26,0.58-3.86-0.66-4.55    c0.81-1.47,1.68-2.61,1.72-4.31c0.05-1.82-1.6-4.81-1.32-6C329.07,94.16,328.99,93.93,329.43,93.93z"/>
            <circle cx="429.21" cy="135.42" r="1.586"/>
        </g>
        <g id="__Kartepe">
            <path d="    M441.8,295.97c-0.91,0.72-4.65,3.63-4.69,4.13c-0.33-0.21-0.66-0.42-0.99-0.63c-1.95-1.17-3.09-2.91-4.18-4.83    c-0.81-1.43,0.05-2.2-1.52-3.04c-1.02-0.53-1.13-0.34-1.93,0.46c-1.16,1.16-1.39,2.94-2.87,4.02c-0.77,0.38-1.53,0.77-2.3,1.15    c-0.76-0.63-1.22-1.23-2.24-1.05c-3.17,0.63-3.73,3.32-5.64,5.24c-1.39,1.39-2.99,2.06-3.89,3.85c-0.77,0.16-2.04,0.03-2.58,0.57    c-0.96,0.96-1.89,2.34-3.26,2.69c-0.37,0.1-0.75,0.2-1.12,0.31c-1.6-2.43-3.21-4.87-4.81-7.3c-0.77-0.57-1.53-1.15-2.3-1.72    c-1.11-0.27-2.23-0.54-3.34-0.82c-1.77-0.74-3.57-2.22-5.56-1.77c-1.05,0.57-2.11,1.15-3.16,1.72c-2.74,0.17-4.9,1.7-7.48,2.23    c-1.43,0.02-2.86,0.05-4.29,0.07c-1.07,0.28-1.38,0.88-2.3,0.74c-1.09-0.2-2.17-0.41-3.26-0.61c-0.73,1.01-1.47,2.02-2.2,3.02    c-0.77,0-4.53,2.08-4.85,2.89c-0.79,2-0.18,5.47,1.4,6.87c0.29,0.86,0.57,1.72,0.86,2.58c0,1.93-1.95,0.91-0.43,2.96    c0.76,1.04,3.59,4.19,3.59,5.37c0,0.73-0.88,2.5-1.44,2.87c0.04,1.37-0.12,2.53,0.46,3.78c0.57,1.19,3.58,2.54,5,2.54    c0.28,0.26,1.43,1.02,0.93,1.25c-1.24,0.64-4.21,1.6-4.02,3.04c0.26,1.65,0.12,4.23,1.36,5.47c0.1,0.67,0.19,1.34,0.29,2.01    c-0.1,0.57-0.19,1.15-0.29,1.72c0,0.67,0,1.34,0,2.01c0.19,1.24,0.38,2.49,0.57,3.73c-1.49,2.18-3.33,1.07-2.87,3.73    c0.09,1.14,0.87,1.72,0.1,2.77c-0.55,0.64-0.84,0.96-1.82,0.96c-0.57,0.48-1.15,0.96-1.72,1.44c0.57,0.57,1.15,1.15,1.72,1.72    c0.24,0.71,0.19,1.41,0.86,1.72c-0.48,0.48-2.15,3.6-1.84,3.89c0.79,0.69,1.01,1.06,2.1,0.95c0.2,0.11,0.4,0.22,0.6,0.32    c0.86-0.67,1.72-1.34,2.58-2.01c1.51,0.15,3.03,0.3,4.54,0.45c0.54,0.11,1.08,0.22,1.62,0.32c2.44,3.75,0.45,7.73-0.13,11.86    c-0.15,1.1,0.13,5.05,0.86,5.74c-0.38,1.44-0.77,2.87-1.15,4.31c0.38,0.29,0.77,0.57,1.15,0.86c0.64-0.96,0.67-4.42,2.01-3.73    c1,0.86,3.29,3.78,4.88,3.73c1.6,2.11,3.16,5.11,5.17,6.6c1.34,0.26,2.68,0.53,4.02,0.79c2.39,0.29,4.51,0.05,6.89,0.01    c2.11-0.07,4.21-0.15,6.32-0.22c0.77-0.19,1.53-0.38,2.3-0.57c0.48-0.38,0.96-0.77,1.44-1.15c1.08-0.83,3.23-0.93,3.54-2.08    c1.34-5.36,3.14-10.65,6.51-15.15c0.88-1.63,1.76-3.26,2.65-4.89c2.47-3.89,5.97-4.76,5.97-10.04c2.62-2.62,2.78-6.18,3.45-9.48    c0.23-1.14,1.42-1.88,0.86-3.16c0.29-1.51,0.61-3.19,1.72-4.31c0.48-1.82,0.96-3.64,1.44-5.46c-0.43-0.83-0.86-1.67-1.28-2.5    c-1.1-1.65-2.21-3.31-3.31-4.96c-0.03-0.85-0.07-1.71-0.1-2.56c-1.3,0.1-5.23-1.08-3.5-2.75c1.93-1.93,6.57-1.88,9.32-2.51    c0.68-0.17,1.35-0.34,2.03-0.51c1.14-0.67,2.28-1.34,3.43-2.01c3.26-0.66,5.5-1.14,8.23-3.17c0.66-0.49,1.3-0.7,1.84-1.43    c0.86-0.21,1.7,1.46,2.3,0.86c0.67,0.29,1.34,0.29,2.01,0.57c0.61-0.22,1.37-0.54,2.01-0.29c0.55,0.54,1.17,0.04,1.72,0.57    c1.24,0.1,2.49,0.19,3.73,0.29c0-0.96-0.09-2.9,1.15-2.87c0.86-0.1,1.72-0.19,2.58-0.29c0.96,0.1,1.91,0.19,2.87,0.29    c0.34-0.24,0.68-0.48,1.02-0.73c0.53-0.49,0.42-0.88,0.31-1.56c-0.21-1.05-0.73-2.27-1.62-3.17c-0.49-1.9-0.89-6.84-2.3-8.04    c-0.1-0.96-0.19-1.91-0.29-2.87c0.26-0.98,1.14-2.36,0.86-3.45c-0.39-1.53-1.44-2.63-1.44-4.31c-0.4-0.12-0.81-0.23-1.21-0.35    c-1.13-0.07-2.26-0.15-3.38-0.22c-0.78-0.13-1.18-0.64-1.72-1.15c-1.44,0.15-2.87,0.3-4.31,0.46c-1.15,0.13-3.82,0.95-4.59,0.12    c-1.53,0.57-3.06,1.15-4.59,1.72c-0.38-0.15-0.75-0.3-1.13-0.45C444.39,295.54,442.96,295.05,441.8,295.97z"/>
            <circle cx="379.82" cy="311.44" r="1.586"/>
        </g>
        <g id="__Gölcük">
            <path d="    M235.25,334.55c1.06,0.59,5.65,0,7.18,0c0.67-0.38,1.34-0.77,2.01-1.15c1.05,0.12,1.4,0.38,2.3-0.29    c0.67,0.19,1.34,0.38,2.01,0.57c0.96-0.1,1.91-0.19,2.87-0.29c0-0.66,1.1-1.11,1.56-1.53c1.03-0.94,3.07-0.9,4.47-1.06    c0.57-0.29,1.15-0.57,1.72-0.86c1.43-0.14,2.86-0.29,4.29-0.43c1.92-0.38,3.84-0.75,5.76-1.13c1.99-0.41,6.67-2.58,8.33-1.6    c0.77-0.86,1.53-1.72,2.3-2.58c2.3-0.57,4.59-1.15,6.89-1.72c-0.42,0-0.86,0.1-0.86,0.57c0,1.21,0.48,2.24,1.44,2.87    c0.57-0.38,1.15-0.77,1.72-1.15c0.57,0.1,1.15,0.19,1.72,0.29c0.67,0.48,1.34,0.96,2.01,1.44c2.82,0.59,6.2-2.02,8.9-2.87    c0.29,0.67,0.14,0.43,0,1.15c2.15,2.15,3.16,5.06,3.16,8.04c1,0,1.76,1.48,2.49,2.05c1.29,1.03,1.04,0.5,2.4,0.82    c0.84,0.99,1.71,1.69,2.87,2.3c0.57,0.14,0.73-0.16,0.86,0.04c0.77,0.38,0.48,0.05,1.1,0.62c0.07,0.44,0.14,0.38,0.05,0.77    c0,2.58-5.06,4.39-4.45,7.43c0.05,0.2,0.1,0.41,0.14,0.61c0.86,0,2.16-1.86,2.87-1.15c1.05,1.24,2.11,2.49,3.16,3.73    c0.1,1.82,0.19,3.64,0.29,5.46c-0.48,0.38-0.96,0.77-1.44,1.15c0,0.46,0.42,0.49,0.8,0.65c0.74,0.29,1.47,1.04,2.36,0.79    c1.05-0.38,2.11-0.77,3.16-1.15c0,0.96,0,1.91,0,2.87c0.45,0.71,0.91,1.42,1.36,2.13c-0.17,0.82-0.33,1.65-0.5,2.47    c-0.69,1.03-1.56,2.62-0.76,3.76c0.44,0.52,0.38,0.64,1.09,1.01c1.34,0.65,2.24,0.12,3.69,0.12c0.1,0.23,0.2,0.46,0.3,0.69    c0.72,2.09-0.97,2.31-1.61,3.66c-0.14,0.85-0.28,1.69-0.41,2.54c-0.33,0.71-0.65,1.43-0.98,2.14c-0.74,2.08,0.12,3.53,0.12,5.61    c-0.19,0.77-0.38,1.53-0.57,2.3c-1.94,3.08-5.22,6.84-5.64,10.63c-0.16,1.45,0.21,5.98,0.7,7.05c0.53,0.68,1.05,1.36,1.58,2.04    c0.37,0.91,1.13,2.84-0.11,3.06c-0.85,0.06-1.71,0.13-2.56,0.19c-1.86-0.78-3.63-1.72-5.23-2.94c-1.13-0.55-2.26-1.1-3.38-1.65    c-1.35-0.53-2.7-1.05-4.05-1.58c-3.58-0.4-6.98,0.49-10.6,0.43c-2.2-0.1-4.4-0.19-6.6-0.29c-2.3-1.44-4.59-2.87-6.89-4.31    c-1.05-0.57-2.11-1.15-3.16-1.72c-2.56,0.16-4.75,0.14-6.89-1.44c-0.77-0.38-1.53-0.77-2.3-1.15c-1.53-0.29-3.06-0.57-4.59-0.86    c-1.31-0.28-2.36-0.02-3.66-0.65c-1.75-0.65-3.49-1.29-5.24-1.94c-0.57-0.77-1.15-1.53-1.72-2.3c-2.16-0.25-4.32-0.49-6.48-0.74    c-1.15,0.45-3.01,0.48-3.91-0.15c-0.36-0.37-0.73-0.75-1.09-1.12c1.05,0,2.38-3.18,1.15-4.02c0.36-0.74,0.73-1.48,1.09-2.22    c-0.59-1.82-1.66-2.88-3.1-4.1c-0.92,0-2.17,0.37-2.91-0.29c-0.69-0.69-1.11-1.35-1.11-2.3c-1.64-2.26-3.06-6.49,0.02-8.27    c2.01-1.06,4.31-1.62,5.72-3.5c0.57-0.96,1.15-1.91,1.72-2.87c0.02-0.75,0.1-1.38,0.57-2.01c0.9-0.89,1.81-1.78,2.71-2.67    c-0.51-0.25-0.82-0.23-0.99-0.78c-0.93,0.57-3.31,2.15-4.31,1.15c-0.99-0.99-1.13-0.25-1.48-1.79c-0.18-0.85-0.65-2.4,0.04-3.1    c-0.19-0.57-0.38-1.15-0.57-1.72c-0.11-0.71,1.37-1.91,0-2.13c-1.59-0.24-3.19-0.48-4.78-0.73c-0.91,0.64-2.57,0.05-3.54-0.31    c0.39-0.53,0.78-1.06,1.17-1.59c0.67-0.8,4.81-3.35,3.71-4.44c-1-0.18-2-0.35-3.01-0.53c-0.56-0.16-0.7-1.22-0.44-1.48    c0.1-0.29,0.19-0.57,0.29-0.86C234.68,335.65,234.56,335.67,235.25,334.55z"/>
            <circle cx="307.18" cy="339.58" r="1.586"/>
        </g>
        <g id="__Karamürsel">
            <path d="    M241.57,386.81c1.05,0,2.38-3.18,1.15-4.02c0.36-0.74,0.73-1.48,1.09-2.22c-0.59-1.82-1.66-2.88-3.1-4.1    c-0.92,0-2.17,0.37-2.91-0.29c-0.69-0.69-1.11-1.35-1.11-2.3c-1.64-2.26-3.06-6.49,0.02-8.27c2.01-1.06,4.31-1.62,5.72-3.5    c0.57-0.96,1.15-1.91,1.72-2.87c0.02-0.75,0.1-1.38,0.57-2.01c0.9-0.89,1.81-1.78,2.71-2.67c-0.51-0.25-0.82-0.23-0.99-0.78    c-0.93,0.57-3.31,2.15-4.31,1.15c-0.99-0.99-1.13-0.25-1.48-1.79c-0.18-0.85-0.65-2.4,0.04-3.1c-0.19-0.57-0.38-1.15-0.57-1.72    c-0.11-0.71,1.37-1.91,0-2.13c-1.59-0.24-3.19-0.48-4.78-0.73c-0.91,0.64-2.57,0.05-3.54-0.31c0.39-0.53,0.78-1.06,1.17-1.59    c0.67-0.8,4.81-3.35,3.71-4.44c-1-0.18-2-0.35-3.01-0.53c-0.56-0.16-0.7-1.22-0.44-1.48l0.86-0.86c-0.87-0.86-2.38,0.61-3.16,1.15    c-2.63,0.08-5.68-0.64-8.05,0.75c-1.08-0.11-2.15-0.23-3.23-0.34c-0.45,0.84-0.64,2.22-1.41,2.65c-1.74,0.94-3.16,0.57-5.11,0.39    c-0.68,0.1-1.36,0.2-2.05,0.31c-1.9-0.01-3.8-0.01-5.71-0.02c-0.69,0.69-5.13,3.16-6.03,3.16c-0.22,0.39-2.39,0.1-3.16-0.57    c-2.98,0.89-5.84,0.28-8.9,0.57c-1.07,0.54-2.14,1.09-3.2,1.63c-3.33,1.27-3.44,0.2-4.84,3.82c-1.23,0.67-3.16,2.15-3.16,3.73    c-1.72,1.15-3.45,2.3-5.17,3.45c-0.39,0.08-2.31,0.19-1.87,0.76c1.07,1.39,3.51,3.55,2.78,5.38c-0.15,0.36-0.32,1.03-0.61,1.09    c-0.52,0.1-0.68,0.22-1.17-0.05c-1.72,0.86-3.53,1.86-5.46,2.01c-0.96,0.19-1.91,0.38-2.87,0.57c-0.82,0.69-1.63,1.38-2.45,2.06    c-1.54,1.07-3.19,1.44-3.41,3.68c-0.09,1.26-0.34,6.17,0.69,6.89c-1.18,2.56-0.92,4.82,1.15,6.89c-0.19,1.53-0.38,3.06-0.57,4.59    c-0.57,0.67-1.15,1.34-1.72,2.01c0,1.65-0.87,2.7-1.15,4.31c-0.38,0.38-0.29,0.59-0.26,1.1c-0.2,0.11-0.4,0.22-0.6,0.33    c0.04,0.06,0.09,0.12,0.13,0.18c0.74,0.9,1.77,2.44,3.02,2.4c-0.08,0.39-0.17,0.78-0.25,1.18c-0.3,0.95-0.6,1.9-0.9,2.84    c1.06,2.38-0.82,4.13-2.3,6.03c-0.65,0.83-4.62,1.32-4.23,2.55c0.45,1.26,0.9,2.51,1.35,3.77c0.79,1.18,2.51,0.43,2.67,1.78    c0.12,1.66-0.17,3.17,0.21,4.83c0.67,0.96,1.34,1.91,2.01,2.87c-0.5,1.22-0.81,2.46,0,3.73c0.29,0.77,0.57,1.53,0.86,2.3    c0.74,0.57,2.89,1.59,2.3,2.58c0.21-0.76,0.76-2.58,1.72-2.58c2.84,0,6.7,3.83,8.61,2.87c0.44,0.04,0.89,0.09,1.33,0.13    c0.61-0.52,1.22-1.05,1.83-1.57c0.93,0.05,0.99,0.41,1.84-0.19c0.54-0.42,1.07-0.83,1.61-1.25c0.1,0.1,0.19,0.19,0.29,0.29    c0,0.55-0.04,2.27,0.57,2.32c1.15,0.28,2.29,0.56,3.44,0.83c-0.19-0.96-0.37-1.91-0.56-2.87c0.1-0.96,0.19-1.91,0.29-2.87    c-0.21-0.49-0.42-0.98-0.63-1.47c-0.21-0.68-1.32-2.33-0.81-2.84c0.9-1.32,1.81-2.64,2.71-3.96c2.88,1.7,0.36,2.68,2.17,4.24    c0.12,0.96,0.24,2.66,1.42,2.5c0.87-0.16,1.73-0.33,2.6-0.49c0.52-0.71,0.85-1.89,1.68-1.44c0.11,0.19,0.22,0.39,0.33,0.58    c0.48,0,0.96,0,1.44,0c0.38-0.96,0.77-1.91,1.15-2.87c0.19,0.4,0.65,1.69,0.77,1.64c0.7-0.28,1.06-0.68,1.81-0.49    c0.53-1.25,1.33-2.54,2.3-3.45c0.54,0.1,1.08,0.2,1.61,0.3c0.23-0.01,0.45-0.01,0.68-0.02c0.48,0.86,0.96,1.72,1.44,2.58    c1.69,0.3,2.16-0.36,4.02,0.57c2.01-0.86,4.02-1.72,6.03-2.58c0.61-1.31,1.26-2.64,2.39-3.6c1.34-1.13,2.84-1.86,3.93-3.29    c0.1-0.48,0.19-0.96,0.29-1.44c0.29-0.38,0.57-0.77,0.86-1.15c2.16-1.08,4.36-1.85,6.01-3.73c0.63-1.01,1.26-2.01,1.88-3.01    c1.03-0.96,2.74-3.01,4.16-3.01c1.05-1.15,2.11-2.3,3.16-3.45c0.38-0.57,0.77-1.15,1.15-1.72c0.19-0.67,0.38-1.34,0.57-2.01    c0.3-1.42-0.34-2.49-0.86-3.73c0.1-0.1,0.19-0.19,0.29-0.29c2.05-0.71,7.68-3.67,6.8-6.3L241.57,386.81z"/>
            <circle cx="201.23" cy="348.19" r="1.586"/>
        </g>
        <g id="__Başiskele">
            <path d="    M302.01,323.35c1.17,0.73,1.97,0.28,3.15,0.42c1.24,0.15,1.91,0.78,3.3,0.4c1.16-0.32,2.19-1.54,3.28-0.5    c0.62,0.59,0.89,2.67,0.73,3.53c-2.01-0.35-1.44,1.01-0.68,2.02c0.95,1.27,0.92,1.25,2.57,1.01c2.17-0.31,4.29,1.56,6.32,0.87    c1.07-0.37,1.72-1.52,3.05-1.01c1,0.38,1.35,1.45,2.55,1.58c1.2,0.13,2-0.49,3.3-0.43c1.56,0.07,1.79-0.95,3.16-1.15    c1.36-0.2,2.71,0.69,4.05,0.25c1.13-0.36,1.85-1.51,2.55-2.4c0.66-0.84,0.71-2.33,1.44-3.02c0.41-0.39,1.4-0.06,1.94-0.35    c0.95-0.5,3.04-0.6,3.72-1.29c0.61-0.61,0.31-2.45,0.29-3.31c-0.03-1.18-1.07-6.11-0.36-6.96c0.56-0.68,1.29-1.72,1.58-2.44    c0.43-1.72,0.53-0.81,1.58-2.15c-0.27-0.25,0.71-1.88,0.46-1.87c1.1-0.98,1.84-0.67,3.56-0.86c1.57-0.18,2.15,0.14,3.45,0.14    c0.67,0.1,1.34,0.19,2.01,0.29c0.73,0.12,1.33,1.05,1.87,0.57l0.18,0.59c-0.79,2-0.18,5.47,1.4,6.87    c0.29,0.86,0.57,1.72,0.86,2.58c0,1.93-1.95,0.91-0.43,2.96c0.76,1.04,3.59,4.19,3.59,5.37c0,0.73-0.88,2.5-1.44,2.87    c0.04,1.37-0.12,2.53,0.46,3.78c0.57,1.19,3.58,2.54,5,2.54c0.28,0.26,1.43,1.02,0.93,1.25c-1.24,0.64-4.21,1.6-4.02,3.04    c0.26,1.65,0.12,4.23,1.36,5.47c0.1,0.67,0.19,1.34,0.29,2.01c-0.1,0.57-0.19,1.15-0.29,1.72c0,0.67,0,1.34,0,2.01    c0.19,1.24,0.38,2.49,0.57,3.73c-1.49,2.18-3.33,1.07-2.87,3.73c0.09,1.14,0.87,1.72,0.1,2.77c-0.55,0.64-0.84,0.96-1.82,0.96    c-0.57,0.48-1.15,0.96-1.72,1.44c0.57,0.57,1.15,1.15,1.72,1.72c0.24,0.71,0.19,1.41,0.86,1.72c-0.48,0.48-2.15,3.6-1.84,3.89    c0.79,0.69,1.01,1.06,2.1,0.95c0.2,0.11,0.4,0.22,0.6,0.32c0.86-0.67,1.72-1.34,2.58-2.01c1.51,0.15,3.03,0.3,4.54,0.45    c0.54,0.11,1.08,0.22,1.62,0.32c2.44,3.75,0.45,7.73-0.13,11.86c-0.15,1.1,0.13,5.05,0.86,5.74c-0.38,1.44-0.77,2.87-1.15,4.31    c0.38,0.29,0.77,0.57,1.15,0.86c0.64-0.96,0.67-4.42,2.01-3.73c1,0.86,3.29,3.78,4.88,3.73c1.6,2.11,3.16,5.11,5.17,6.6    c1.34,0.26,1.46,0.41,1.46,0.41c-1.25,0.53-2.51,1.06-3.76,1.6c-1.24,0.67-2.49,1.34-3.73,2.01c-1.29,0.92-2.57,1.85-3.86,2.77    c-0.98,0.79-1.3,1.8-2.84,2.05c-2.58,0.41-4.14,2.96-6.23,4.37c-1.26,0.92-2.52,1.84-3.79,2.75c-1.42,1-2.84,1.99-4.25,2.99    c-0.23,1.03-3.55,3.48-4.59,4.02c-3.05,1.72-6.1,3.45-9.15,5.17c-3.72,1.37-7.45,2.74-11.17,4.11c-3.5,1.03-7.64,3.09-10.9,2.23    c0.28-4.22,0.55-8.44,0.83-12.66c-0.11-1.71,1.65-0.18,2.26,0.58c-0.57-0.86-1.15-1.72-1.72-2.58c0.26-0.57-0.12-1.13-0.29-1.72    c0.47-1.63,0.61-4.19-0.11-5.68c-1.21-0.79-2.42-1.57-3.63-2.36c-0.51,0.13-1.09-0.23-1.44-0.57c0,0-0.7-1.76-1.07-2.67    c-0.53-0.68-1.05-1.36-1.58-2.04c-0.49-1.07-0.86-5.61-0.7-7.05c0.43-3.79,3.7-7.56,5.64-10.63c0.19-0.77,0.38-1.53,0.57-2.3    c0-2.08-0.85-3.53-0.12-5.61c0.33-0.71,0.65-1.43,0.98-2.14c0.14-0.85,0.28-1.69,0.41-2.54c0.64-1.35,2.33-1.57,1.61-3.66    c-0.1-0.23-0.2-0.46-0.3-0.69c-1.45,0-2.34,0.53-3.69-0.12c-0.71-0.36-0.65-0.49-1.09-1.01c-0.8-1.14,0.07-2.72,0.76-3.76    c0.17-0.82,0.33-1.65,0.5-2.47c-0.45-0.71-0.91-1.42-1.36-2.13c0-0.96,0-1.91,0-2.87c-1.05,0.38-2.11,0.77-3.16,1.15    c-0.89,0.25-1.62-0.5-2.36-0.79c-0.38-0.16-0.8-0.19-0.8-0.65c0.48-0.38,0.96-0.77,1.44-1.15c-0.1-1.82-0.19-3.64-0.29-5.46    c-1.05-1.24-2.11-2.49-3.16-3.73c-0.72-0.72-2.01,1.15-2.87,1.15c-0.05-0.2-0.1-0.41-0.14-0.61c-0.61-3.04,4.45-4.85,4.45-7.43    c0.1-0.39,0.02-0.33-0.05-0.77c-0.62-0.57-0.34-0.24-1.1-0.62c-0.13-0.21-0.29,0.1-0.86-0.04c-1.16-0.6-2.03-1.31-2.87-2.3    c-1.36-0.32-1.11,0.21-2.4-0.82c-0.73-0.58-1.48-2.05-2.49-2.05c0-2.98-1-5.89-3.16-8.04c0.14-0.72,0.29-0.48,0-1.15    L302.01,323.35z"/>
            <circle cx="335.6" cy="337.57" r="1.586"/>
        </g>
        <g id="__İzmit">
            <path d="    M334.03,197.3c-1.13,0.6-2.12,0.71-1.97,2.14c-0.3,0.15-0.6,0.3-0.91,0.45c0.02,0.64-0.31,1.5,0,2.01    c-0.96,0.96-2.64,2.89-4.02,2.58c0,0.29,0,0.58,0,0.87c0.08,1.16,0.47,0.56,1.71,1.31c1.41,1.15,2.81,2.3,4.22,3.45    c0.63,0.35,1.33,0.17,1.53,0.98c0.73-0.25,1.45-0.49,2.18-0.74c0.62,0.5,1.05,1.18,1.84,1.31c0,0.29,0,0.57,0,0.86    c0,1.15,0,2.3,0,3.45c-0.19,0.57-0.38,1.15-0.57,1.72c-0.98,1.29-2.37,2.11-2.58,3.73c-0.21,1.62,0.21,3.3,0.66,4.85    c0.36,2.4,0.71,4.81,1.07,7.21c-0.57,0.77-1.15,1.53-1.72,2.3c0.18,1.81,1.84,5.3,3.73,5.74c0.48,0.86,0.96,1.72,1.44,2.58    c0.15,1.23,0.52,3.11-0.57,4.02c-0.05,1.51,0.06,3.17-0.57,4.59c-0.48,0.86-0.96,1.72-1.44,2.58c-0.1,1.05-0.19,2.11-0.29,3.16    c-0.57,0.77-1.15,1.53-1.72,2.3c0.05,1.7,0.41,1.75-1.48,2.55c-2.38,0.97-4.76,1.94-7.13,2.91c-0.57-0.09-1.15-0.19-1.72-0.28    c-1.05-0.19-2.11-0.39-3.16-0.58c-0.86-0.1-1.72-0.19-2.58-0.29c-1.58,0.95-3.16,1.9-4.74,2.85c-2.28,1.01-3.29,0.9-5,2.91    c-0.45,0.53-1.16,0.59-1.07,0.83c0.47,1.03,1.41,3.37,0.96,4.14c-0.43,0.69-0.6,2.17-1.64,2.2c-0.27,0.84-0.86,2.88-1.72,3.16    c-0.34,2.55-0.69,5.1-1.03,7.65c0.32,0.73,0.59,3.83,0.17,4.41c0.11,1.32,0.22,2.65,0.32,3.98c-0.11,1.23-0.99,6.34-1.76,6.65    c0.16,0.21,0.32,0.42,0.48,0.63c0.81,1.13,1.83,4.12,3.19,3.83c1.89-0.44,3.59-0.9,5.51-1.24c0.72-0.13,1.66-0.29,2.01-0.92    c1.53,0.1,3.06,0.21,4.59,0.31c0.96,0.18,1.92,0.36,2.88,0.55c0.48-0.19,0.96-0.38,1.44-0.57c0.75,0,2.04-0.25,2.58,0.29    c1.53-0.62,3.11-0.77,4.68-0.22c0.54-0.22,1.09-0.43,1.63-0.65c0.42-1.07,0.61-1.15,1.72-1.15c0.48,0.86,0.96,1.72,1.44,2.58    c0.98,0.42,2.87,0.68,3.28,1.76c0.34,1.04,0.68,2.08,1.02,3.12c-0.19,0.96-0.38,1.91-0.57,2.87c-0.04,0.84-0.08,1.81,0.57,2.3    c-0.12,1.13-0.23,2.26-0.35,3.38c-0.05,0.71-0.11,1.42-0.16,2.13c0.4,0.93,0.74,1.02,0.22,1.96c0.19-0.02,0.38-0.05,0.57-0.07    c1.42-0.18,4.03-1.08,5.46-1.51c0.29-2.87-0.19-7.51-0.29-10.19c0.56-0.68,1.29-1.72,1.58-2.44c0.43-1.72,0.53-0.81,1.58-2.15    c-0.27-0.25,0.71-1.88,0.46-1.87c1.1-0.98,1.84-0.67,3.56-0.86c1.57-0.18,2.15,0.14,3.45,0.14c0.67,0.1,1.34,0.19,2.01,0.29    c0.73,0.12,1.33,1.05,1.87,0.57l0.18,0.59c0.32-0.81,4.07-2.89,4.85-2.89c0.73-1.01,1.47-2.02,2.2-3.02    c1.09,0.2,2.17,0.41,3.26,0.61c0.92,0.13,1.23-0.46,2.3-0.74c1.43-0.02,2.86-0.05,4.29-0.07c2.59-0.53,4.75-2.05,7.48-2.23    c1.05-0.57,2.11-1.15,3.16-1.72c1.99-0.45,3.79,1.03,5.56,1.77c1.11,0.27,2.23,0.54,3.34,0.82c0.77,0.57,1.53,1.15,2.3,1.72    c1.6,2.43,3.21,4.87,4.81,7.3l1.12-0.31c1.36-0.35,2.3-1.73,3.26-2.69c0.54-0.54,1.82-0.41,2.58-0.57    c0.89-1.79,2.49-2.46,3.89-3.85c1.92-1.92,2.47-4.61,5.64-5.24c1.02-0.18,1.48,0.42,2.24,1.05c0.77-0.38,1.53-0.77,2.3-1.15    c1.48-1.08,1.71-2.86,2.87-4.02c0.8-0.8,0.91-0.99,1.93-0.46c1.56,0.84,0.7,1.61,1.52,3.04c1.09,1.92,2.23,3.66,4.18,4.83    c0.33,0.21,0.66,0.42,0.99,0.63c0.04-0.49,3.79-3.41,4.69-4.13c1.16-0.92,2.59-0.43,3.94,0.23c0.38,0.15,0.75,0.3,1.13,0.45    c1.53-0.57,3.06-1.15,4.59-1.72c0.78,0.84,3.44,0.02,4.59-0.12c1.44-0.15,2.87-0.3,4.31-0.46l0.29,0.29    c0.58-0.68,0.57-0.57-0.29-0.86c0.9-1.61,0.14-3.2,0.74-4.88c0.52-0.48,1.04-0.96,1.56-1.44c-0.1-1.15-0.19-2.3-0.29-3.45    c-0.57-0.49-1.14-0.98-1.7-1.47c-1.36-1.95-2.72-3.65-4.32-5.42c-0.1-0.67-0.19-1.34-0.29-2.01c0.19-1.05,0.38-2.11,0.57-3.16    c-0.1-0.19-0.19-0.38-0.29-0.57c0-2.52,1.85-2.99,3.21-4.85c0.46-0.61,3.1,0.1,3.1,0.83c0.99-1.52,0.73-1.37,1.15-2.87    c1.68-0.84,1.72-3.13,1.72-4.88c1.54-1.54,4.07,0.19,5.74,0.52c0.1,0.02,0.19,0.04,0.29,0.05c0-0.87,0.48-1.53,0.86-2.3    c-0.41-1.12,0.93-5.83,1.5-7c0.55-0.92,1.11-1.84,1.66-2.76c0-2.17,0.24-4.93-1.44-6.6c-0.19-0.57-0.38-1.15-0.57-1.72    c0.78-2.25,0.21-4.39-1.72-6.03c-1.52-1.29-3.24-1.44-5.17-1.44c-1.1-0.54-2.2-1.09-3.3-1.63c0.14-0.99,0.29-1.97,0.43-2.96    l-0.05-0.43c-0.75,0.05-1.5,0.1-2.24,0.14c-0.48-0.8-0.99-1.3-0.51-2.13c0.54-0.88,0.8-1.47,1.95-1.89    c0.29-0.57,0.57-1.15,0.86-1.72c-0.28-0.2-0.56-0.41-0.84-0.61c-2.26-1.62-4.52-3.83-5.76-6.28c-0.55-1.09-0.24-1.85-1.21-2.82    c0.07-0.19,0.14-0.39,0.22-0.58c-0.63,0.37-1.25,0.74-1.88,1.1c-1.63,0.29-3.25,0.57-4.88,0.86c-0.59,0.14-1.59,0.07-2.01-0.29    c-1.25,0.17-2.51,0.34-3.76,0.51c-1.3,0.07-4.19-1.3-4.53-0.5c-0.88,2.17-1.24,3.65-1.2,6.01c-0.06,0.52-0.12,1.04-0.18,1.56    c0.95,1.08,1.51,2.39,2.7,3.45c0.1,0.87,0.43,1.19,0.94,1.88c0.38,0.1,0.77,0.19,1.15,0.29c-0.13,0.31-0.26,0.62-0.39,0.92    c-0.15,0.41-0.01,1.1-0.46,1.07c-1.89-0.13-4.05-0.34-5.75,0.88c-0.22,0.78-0.07,0.97-0.71,1.6c-0.99,0.97-2.05,1.14-2.21,2.51    c-0.02,0.57,0.11,0.42-0.53,0.77c0.49,0.41,0.98,0.83,1.47,1.24c-0.16,0.56-0.38,1.67-0.67,1.85c-2.7,1.71-5.28,1.17-8.55,1.22    c-1.72,0.29-3.45,0.57-5.17,0.86c-1.36,0.15-1.92-0.45-2.87-1.44c-0.3,0.28-0.6,0.55-0.9,0.83c-1.1,1.18-4.72,5.49-6.28,5.49    c-1.91-0.1-3.83-0.19-5.74-0.29c-0.67-0.29-1.34-0.57-2.01-0.86c-0.38-0.38-0.77-0.77-1.15-1.15c0.21-0.67,0.99-2.44,0.41-3.04    c-0.58-0.6-1.89-2.39-2.71-2.41c-1.4,0-0.06-2.23-2.3-3.45c-2.46-1.67-2.99-3.62-1.72-4.88c0.08-0.9-0.23-1.52,0.57-2.01    c-0.38-0.14-0.77-0.29-1.15-0.43c-2.05-0.68-8.01-1.77-8.58-3.63c-0.45-0.82-0.9-1.65-1.35-2.47c-0.76-0.08-0.72,0.16-0.67-0.36    c0.12-1.25,0.21-2.32,1.7-2.3c0.91-2.17,1.9-2.67,3.45-4.31c0-0.84-0.8-0.91-0.22-1.75c0.27-0.39,0.31-0.57,0.79-0.55    c0.41-1.17,0.81-2.33,1.22-3.5c0.16-0.16,0.32-0.32,0.48-0.48c-0.22-1.62-0.13-3.63-1.99-3.8c-1.57,0.74-2.25,3.09-2.14,3.62    c0.28,1.19-2.62,1.81-3.28,2.48c-0.48,0.46,0.28,0.88-0.3,0.77c-0.39,0.02-0.77,0.04-1.16,0.05c-1.23-0.4-3.51-1.56-4.31,0    c0.32-0.62,0.97-1.62,0-2.01c0.13-0.06,0.25-0.13,0.38-0.19c0.89-0.52,1.38-1.02,1.35-2.11c-0.86-0.38-1.72-0.77-2.58-1.15    c0-2.19-0.66-4.81-3.45-4.55c-0.48-0.02-0.96-0.03-1.44-0.04c-0.96,0.77-1.91,1.53-2.87,2.3c-0.78-0.15-0.88-0.4-1.44,0.29    c0-0.94,0.28-2.72-0.59-2.33c-0.28,0.01-0.56,0.02-0.84,0.04c-1.11,1.23-2.29,1.8-2.66,3.49c-0.17,0.18-0.33,0.35-0.5,0.53    c0.45,1.8,1.58,2.94,0.51,4.69c0.12,0.16,0.23,0.32,0.35,0.48c-0.11,0.04-0.23,0.08-0.34,0.13c-1.06,0.39-3.93,1.08-4.24,0.48    c-0.38-0.74-1.07-1.51-0.58-2.33c-0.27-0.22-0.53-0.44-0.8-0.66c-0.92-0.37-5.11,0.73-5.31,0.13c-0.26-0.83-0.53-1.66-0.79-2.49    c0.45-0.66-0.07-2.19-0.35-2.98c-0.26-0.73-1.08-1.6-0.5-2.33c-1.19-0.27-2.82,0.1-3.04-1.14c0.06-0.29,0.11-0.58,0.17-0.87    c-0.33-1.23-0.78-5.43-1.35-5.84c-0.86-0.65-2.39-0.77-2.67-1.91c-0.19,0.09-0.39,0.19-0.58,0.28c-0.59,0.31-0.83,0.63-1.43,0.3    c-1.84,2.3-3.19,4.53-6.33,4.68c-0.24-0.01-0.48-0.02-0.73-0.04c-0.45,0.57-0.25,0.68-0.69,0.22    C334.03,194.42,333.9,195.97,334.03,197.3z"/>
            <circle cx="342.78" cy="297.08" r="1.586"/>
        </g>
        <g id="__Derince">
            <path d="    M279.9,162.32c2.22-0.01,3.87,0.09,6.09,0.22c0.5,0.93,1.2,2.16,2.14,2.7c0.28,0.16,3.05,1.07,3.1,1.06    c1.14-0.21,1.14-1.59,2.06-2.07c1.04-0.55,2.24-0.11,3.06,0.57l0.67-0.06c-0.28,0.67,0.75,1.86,1.14,2.37    c0.37,0.78,0.74,1.56,1.11,2.33c0.95,0.1,2.04,1.15,2.87,1.72c0,2.26,0.01,4.51-0.29,6.89c0.41,0.75,0.82,1.51,1.23,2.26    c0.81,1.5,1.66,2.64,2.69,3.89c1.67,1.78,2.34,0.33,4.36,0.87c0.4,0.15,0.8,0.29,1.19,0.44c-0.28,0.87,1.14,2.03,1.56,2.85    c-0.33,1.35-0.66,2.69-0.99,4.04c0,0.48,0,0.96,0,1.44c1.26,0.83,3.09,2.48,4.35,3.3c0.54,0.25,0.61-2.81,0.81-3.3    c0.72-0.03,2.14-0.64,2.63-1.1c2.11,0.19,4.21-0.48,5.95-0.17c0.78,0.15,0.53,0.58,0.9,1.27c1.83-0.36,1.28,0.6,3.11,0.24    c0.09-0.02,2.55-1.37,2.63-1.39c0.13,1.03,1.12,1.04,1.72,1.71c0,0-0.12,1.55,0,2.88c-1.13,0.6-2.12,0.71-1.97,2.14    c-0.3,0.15-0.6,0.3-0.91,0.45c0.02,0.64-0.31,1.5,0,2.01c-0.96,0.96-2.64,2.89-4.02,2.58c0,0.29,0,0.58,0,0.87    c0.08,1.16,0.47,0.56,1.71,1.31c1.41,1.15,2.81,2.3,4.22,3.45c0.63,0.35,1.33,0.17,1.53,0.98c0.73-0.25,1.45-0.49,2.18-0.74    c0.62,0.5,1.05,1.18,1.84,1.31c0,0.29,0,0.57,0,0.86c0,1.15,0,2.3,0,3.45c-0.19,0.57-0.38,1.15-0.57,1.72    c-0.98,1.29-2.37,2.11-2.58,3.73c-0.21,1.62,0.21,3.3,0.66,4.85c0.36,2.4,0.71,4.81,1.07,7.21c-0.57,0.77-1.15,1.53-1.72,2.3    c0.18,1.81,1.84,5.3,3.73,5.74c0.48,0.86,0.96,1.72,1.44,2.58c0.15,1.23,0.52,3.11-0.57,4.02c-0.05,1.51,0.06,3.17-0.57,4.59    c-0.48,0.86-0.96,1.72-1.44,2.58c-0.1,1.05-0.19,2.11-0.29,3.16c-0.57,0.77-1.15,1.53-1.72,2.3c0.05,1.7,0.41,1.75-1.48,2.55    c-2.38,0.97-4.76,1.94-7.13,2.91c-0.57-0.09-1.15-0.19-1.72-0.28c-1.05-0.19-2.11-0.39-3.16-0.58c-0.86-0.1-1.72-0.19-2.58-0.29    c-1.58,0.95-3.16,1.9-4.74,2.85c-2.28,1.01-3.29,0.9-5,2.91c-0.45,0.53-1.16,0.59-1.07,0.83c0.47,1.03,1.41,3.37,0.96,4.14    c-0.43,0.69-0.6,2.17-1.64,2.2c-0.27,0.84-0.86,2.88-1.72,3.16c-0.34,2.55-0.69,5.1-1.03,7.65c0.32,0.73,0.59,3.83,0.17,4.41    c0.11,1.32,0.22,2.65,0.32,3.98c-0.11,1.23-0.99,6.34-1.76,6.65c0.16,0.21,0.32,0.42,0.48,0.63c0.81,1.13,1.83,4.12,3.19,3.83    l-0.02,1.35c-0.86,0.79-1.86,0.34-3.09,0.5c-0.19,0.48-0.38,0.96-0.57,1.44c-2.66,0-3.64-0.96-5.46-1.44    c-0.53,0.48-1.2,0.41-1.88,0.66c-0.91,0.83-0.95,1.81-1.86,2.64c-0.3-0.02-1.45-0.17-1.75-0.19c-0.63,0.11-0.74-0.63-0.83-1.1    c-1.05-0.19-2.11-0.38-3.16-0.57c-1.19,0.7-2.94,0.2-4.41,1.1c-0.35-0.08-0.69-0.16-1.04-0.24c-0.76,0.74-3.04,2.01-4.02,2.01    v-0.85c0.33-1.13,0.68-2.94,1.72-3.74c0.16-1.05,0.65-2.74-0.29-3.45c0.5-0.89,1-1.78,1.51-2.67c0.53-1.47-0.1-2.97,1.36-3.93    c0-1.05,0-2.11,0-3.16c-0.39-0.41-0.78-0.83-1.18-1.24c-0.26-1.21,0.11-2.21,0.27-3.4c0.29-2.14-0.98-7.81,0.91-8.86    c0.38-1.44,0.77-2.87,1.15-4.31c-0.11-1.27-0.12-3.09,0.78-3.55c0.76-0.4,1.45-0.94,2.38-0.75c0.49-1.03,1.68-2.27,1.44-3.45    c0.48-0.19,0.96-0.38,1.44-0.57c0.57-0.67,1.15-1.34,1.72-2.01c0.19-0.57,0.38-1.15,0.57-1.72c0.75-1.12,1.42-1.9,1.76-3.25    c0.18-0.07,0.36-0.13,0.54-0.2c0.29-1.44,0.57-2.87,0.86-4.31c-0.47-1.96-1.92-3.05-2.45-4.95c-0.19-0.7,0-1.04-0.71-1.36    c0.1-0.09,0.2-0.17,0.31-0.26c1.39-1.15,5.86-3.29,7.45-1.75c0.02-0.29,0.04-0.59,0.05-0.88c-0.11-0.66-0.23-1.33-0.34-1.99    c-1.72-1.35-6.13-5.22-4.71-7.45c0.04-0.2,0.08-0.39,0.12-0.59c1.55-1.75,3.46-2.95,4.46-5c0.22-0.45,1.33-1.84,1.14-2.07    c-0.72-1.18-1.44-2.37-2.15-3.55c-0.57-0.38-1.15-0.77-1.72-1.15c-2.17-2.45-3.6-3.59-6.48-5.1c-0.85-0.44-3.49-2.21-3.28-3.23    c-0.99-0.48-2.86-1.07-2.9-2.31c0.1-1.05,0.21-2.1,0.31-3.15c-0.48-2.11-0.96-4.21-1.44-6.32c-0.03-0.88-0.74-2.2-0.28-2.87    c-0.78-1.57-3.58-6.19-3.16-7.47c-0.38-0.19-0.77-0.38-1.15-0.57c-0.24-0.61-0.56-1.11-0.29-1.72c-0.9-1.6-1.31-2.79-1.47-4.62    c-0.14-1.59-0.04-6.73,1.18-7.73c0.05-0.72,0.23-1.18-0.29-1.72c0.26-1.55,0.55-2.44,0.29-4.02c0.98-1.47,2.57-2.1,1.92-3.99    c-0.67-2.51-1.33-5.01-2-7.52c-0.07-0.69,0.2-2.99,0.09-3.08L279.9,162.32z"/>
            <circle cx="294.83" cy="304.26" r="1.586"/>
        </g>
        <g id="__Körfez">
            <path d="    M233.2,236.37c1.09-0.04,2.19-0.27,2.63-1.16c0.99-0.14,1.97-0.29,2.96-0.43c0.85-1.33,0.85-3.48,1.79-3.98    c0.71-0.44,1.43-0.89,2.14-1.33c0.62-0.15,1.23-0.3,1.85-0.46c1.73-0.6,3.76-2.01,4.76-3.56c1.14-2.78,2.28-5.55,3.42-8.33    c0.51-2.48,0.04-5.26,2.32-6.89c1.05-1.05,2.11-2.11,3.16-3.16c-1.05-0.38-2.25,0.05-3.16-1.15c0.9-0.85,2.47-1.42,1.98-2.47    c0.01-0.23,0.02-0.46,0.03-0.69c-0.86-0.48-1.71-0.96-2.57-1.44c0.05-0.85,0.07-2.22,0.56-2.87c-0.29-1.72-0.57-3.45-0.86-5.17    c0.51-1.41,1.81-5.31,1.15-6.6c0.2-0.66,0.25-1.4,0.86-1.72c0.07-1.12,0.14-2.24,0.21-3.36c0.06-0.78,0.75-1.72,0.37-2.39    c3.75-3.31,3.82-4.12,4.71-8.81c0.14-0.79,0.28-1.58,0.42-2.37c0.62-0.31,0.73-0.11,0.48-0.5c-1.22-1.92-2.78-3.65-3.61-5.83    c-0.77-2.02,0.44-5.2-0.5-7.03l1.89,0.36c0.57-0.37,2.86,2.54,3.49,3.23c1-1.22,3.07,0.48,4.31,0.57    c1.54,0.12,2.83-0.17,4.31-0.57c0.57,0.19,1.15,0.38,1.72,0.57c1.29,0.66,1.87,1.62,2.87,2.58c0.86,0.4,1.73,0.8,2.59,1.2    c0.11,0.09-0.16,2.39-0.09,3.08c0.67,2.51,1.33,5.01,2,7.52c0.65,1.9-0.94,2.52-1.92,3.99c0.26,1.58-0.03,2.47-0.29,4.02    c0.52,0.55,0.33,1,0.29,1.72c-1.23,1-1.33,6.13-1.18,7.73c0.16,1.83,0.57,3.02,1.47,4.62c-0.27,0.61,0.04,1.11,0.29,1.72    c0.38,0.19,0.77,0.38,1.15,0.57c-0.42,1.28,2.37,5.9,3.16,7.47c-0.46,0.67,0.25,1.99,0.28,2.87c0.48,2.11,0.96,4.21,1.44,6.32    c-0.1,1.05-0.21,2.1-0.31,3.15c0.04,1.23,1.91,1.83,2.9,2.31c-0.21,1.02,2.44,2.79,3.28,3.23c2.88,1.5,4.31,2.65,6.48,5.1    c0.57,0.38,1.15,0.77,1.72,1.15c0.72,1.18,1.44,2.37,2.15,3.55c0.19,0.24-0.92,1.63-1.14,2.07c-1,2.05-2.91,3.25-4.46,5    c-0.04,0.2-0.08,0.39-0.12,0.59c-1.42,2.23,2.99,6.1,4.71,7.45c0.11,0.66,0.23,1.33,0.34,1.99c-0.02,0.29-0.04,0.59-0.05,0.88    c-1.59-1.54-6.06,0.6-7.45,1.75c-0.1,0.09-0.2,0.17-0.31,0.26c0.71,0.33,0.52,0.67,0.71,1.36c0.53,1.91,1.97,2.99,2.45,4.95    c-0.29,1.44-0.57,2.87-0.86,4.31c-0.18,0.07-0.36,0.13-0.54,0.2c-0.34,1.34-1.01,2.13-1.76,3.25c-0.19,0.57-0.38,1.15-0.57,1.72    c-0.57,0.67-1.15,1.34-1.72,2.01c-0.48,0.19-0.96,0.38-1.44,0.57c0.25,1.17-0.94,2.42-1.44,3.45c-0.92-0.18-1.62,0.35-2.38,0.75    c-0.9,0.46-0.89,2.29-0.78,3.55c-0.38,1.44-0.77,2.87-1.15,4.31c-1.89,1.04-0.61,6.72-0.91,8.86c-0.16,1.19-0.53,2.19-0.27,3.4    c0.39,0.41,0.78,0.83,1.18,1.24c0,1.05,0,2.11,0,3.16c-1.46,0.96-0.83,2.46-1.36,3.93c-0.5,0.89-1,1.78-1.51,2.67    c0.93,0.71,0.45,2.4,0.29,3.45c-1.04,0.8-1.39,2.61-1.72,3.74c-0.45,1.66-1.09,0.72-2.58,0.57c-0.86,0.77-1.72,1.53-2.58,2.3    c-0.49-0.46-0.85-0.11-1.44-0.29c-0.67-0.29-1.34-0.57-2.01-0.86c-1.05,0-2.11,0-3.16,0c-1.44-0.58-3.51-5.32-4.5-6.76    c-1.53-2.23-3.56-4.83-5.74-6.49c-1.37-0.75-2.75-1.51-4.12-2.26c-1.18,0.04-2.87,0.28-3.73,1.15c0-0.35-2.63-1.38-3.16-1.72    c-0.96-0.57-1.91-1.15-2.87-1.72c-1.34,0.08-2.69,0.16-4.03,0.24c-1.98-0.67-3.88-1.3-6.02-1.68c-0.96,0-1.91,0-2.87,0    c-0.5,0.21-1,0.42-1.5,0.63c-1.22-0.3-2.45-0.61-3.67-0.92c-0.57,0.1-1.15,0.19-1.72,0.29c-1.34,0-2.68,0-4.02,0    c-0.48,0.1-0.96,0.19-1.44,0.29c-0.61,0.55-5.08,1.11-6.03,0.86c-0.57-0.19-1.15-0.38-1.72-0.57c-1.25-1.27-2.5-2.54-3.75-3.81    c-1.33-0.79-0.72-0.08-1.71,0.65c-0.77-0.76-2.38-0.09-3.28,0.41c-2.64,1.39-5.28,2.79-7.91,4.18c0.5-0.28,0.59-1.05,0.87-1.58    c0.55-0.95-1.33-2.52-2.02-3.3c-0.35-1.97-0.82-2.73-0.04-4.78c0.58-1.27,1.96-1.21,3.2-1.25c0.15-1.41,0.86-0.77,1.72-1.72    c0.97-1.07,1.16-2.11,1.44-3.45c0.76,0.49,0.92,0.21,1.72,0c-0.09-0.59,0.51-0.94,0.86-1.44c-0.08-2.62,1.15-4.87,1.44-7.47    c1.24-1.15,2.49-2.3,3.73-3.45c0.73-0.8,0.78-2.07,2.01-2.87c1.34-0.88,2.63-0.81,4.31-0.86c0.88-1.2,2.7-1.11,4.01-1.5    c3.3-0.97,6.45-1.42,9.05-3.85c1-0.94,1.51-3.16,1.87-4.7c0-0.57,0-1.15,0-1.72c0.56-1.29,1.14-2.02,2.3-2.87    c-0.77-0.91-0.21-1.94-0.57-3.16c0.69-0.2,0.77-0.58,1.15-1.15c-0.52-0.66-0.11-1.2,0-2.01c-0.67-0.57-1.34-1.15-2.01-1.72    c-0.48,0-0.96,0-1.44,0c0.19-0.57,0.38-1.15,0.57-1.72c0.97,0.06,4.31-3.49,4.31-4.31L233.2,236.37z"/>
            <circle cx="272.15" cy="304.26" r="1.586"/>
        </g>
        <g id="__Çayırova">
            <path d="    M92.4,285.88c0.84-0.88,1.84-1.52,3.06-1.63c1.03-0.09,2.31,0,3.23-0.5c2.17-1.17,2.95-3.25,3.59-5.4    c0.82-2.72,1.42-5.56,4.37-6.87c0.6-0.26,3.08,1.51,3.87,1.85c0.74,0.34,1.49,0.69,2.23,1.03c0.73,0.06,1.45,0.11,2.18,0.17    c1.15,0.38,2.3,0.77,3.45,1.15c0.39-0.17,0.77-0.34,1.16-0.51c0.25-0.3,0.5-0.6,0.74-0.9c1.4-1.91,0.56-3.27-0.18-5.2    c0.2-0.04,0.41-0.09,0.61-0.13c0.47-1.4,1.74-2.19,2.27-3.43c0.29-0.32-1.86-2.76-2.17-3.15c-0.34-0.45,2.39-0.42,2.51-1.09    c0.07-0.66,0.13-1.31,0.2-1.97c0.05-0.56-2.27-0.72-2.84-0.85c0.96-1.24,1.91-2.49,2.87-3.73c-0.33-0.59-0.17-0.81,0-1.44    c-0.48-1.53-0.96-3.06-1.44-4.59c0.6-0.4,0.49-0.75,0.57-1.44c-0.86-1.63-1.72-3.25-2.58-4.88c-0.1-1.15-0.19-2.3-0.29-3.45v0.86    c0-0.51-0.7-0.41-1.13-0.42c-0.68,0-1.36,0-2.05,0c-0.47,0.13-3.87,2.21-4,2.43c-2.95,0.69-5.87,1.32-8.09,3.38    c-0.54,0.5-1.74,1.6-1.67,2.36c-0.48,0.52-0.74,0.99-1.44,1.15c-1.15,1.72-1.54,3.47-1.15,5.46c-2.41,2.41-0.52,4.33,0.53,6.9    c0.37,0.92,0.44,2.28,1.19,2.86c-1.33,2.56-2.23,5.29-2.63,8.02c-0.13,0.87-0.31,2.87-0.67,2.75c-1.04-0.42-0.72,0.54-1.55-0.62    c-0.2-0.23-0.4-0.45-0.6-0.68c0.58-0.58,1.02-0.67,0.44-1.35c-1.03-0.65-2.06-1.29-3.1-1.94c-1.09,2.39-4.28,5.52-3.78,8.14    c0.4,1.93,3.75,5.41,2.13,7.5L92.4,285.88z"/>
            <circle cx="108.48" cy="266.07" r="1.586"/>
        </g>
        <g id="__Darıca">
            <path d="    M120.67,303.22c-1.44,0.19,0-1.7,0.3-2.55c1.41-0.31,3.74-2.11,4.43-3.4c0.15-0.33-0.33-0.95-0.39-1.64    c-0.11-0.79-3.13-1.53-3.97-1.8c-1.84-0.88-3.69-1.75-5.53-2.63c-0.38-0.38-0.77-0.77-1.15-1.15c-1.17-1.49-3.01-2.06-3.11-2.06    c-0.38-0.77-0.91-0.76-0.91-1.39c-0.76-0.27-0.67-0.65-1.13-1.25c-1.79-2.3-4.57-5.41-7-6.95l0.07-0.04    c-0.65,2.15-1.42,4.22-3.59,5.4c-0.92,0.5-2.2,0.41-3.23,0.5c-1.22,0.11-2.22,0.75-3.06,1.63l-0.14-0.14    c0.36,0.73,0.32,1.2,1.15,1.44c-0.13,0.27-0.26,0.54-0.39,0.82c-0.57,1.16-1.26,0.59-1.62,1.48c-1.04-1.04-1.53-2.31-3.11-1.15    c-0.45,0.28-0.49,0.24-0.62,0.86c-0.96,0.19-1.84,0.84-1.32,0.98c0.73,0.63,1.45,1.26,2.18,1.89c0.83-0.14,3.41-0.56,3.42-0.56    c1.28,1.5,1.54,2.91,2.32,4.58c0.39,0.85-0.01,1.82,0.57,2.58c-0.26,0.96-0.5,1.56-1.11,2.36c-0.07,0.93,0.95,5.78,1.54,6.41    c0.33,0.33,0.67,0.66,1.01,1c0.96-0.38,1.91-0.77,2.87-1.15c0.86,0.19,1.72,0.38,2.58,0.57c0.46-0.3,0.85-0.7,1.44-0.57    c1.01,0.21,1.73,0.8,2.87,0.86c1.06,0.06,3.8,1.57,4.35,1.24c1.8-0.99,3.61-1.97,5.41-2.96c0.67-1.04,2.81-2.56,4.11-2.15    C120.17,304.4,120.67,303.22,120.67,303.22z"/>
            <circle cx="100.44" cy="299.38" r="1.586"/>
        </g>
        <g id="__Dilovası">
            <path d="    M157.96,295.74c1.99,1.92,2.68,4.8,4.98,6.36c1.91,1.29,1.98-0.2,3.83-0.01c1.53,0.16,2.13,1.29,3.96,0.68    c1.48-0.5,2.51-1.31,4.07-1.67c1.49-0.34,2.83-1.25,4.25-1.49c2.88-0.48,5.28,1.98,8,2.25c1.96,0.2,7.68-2.67,8.37-4.63    c0.64-1.82-1.2-2.5-1.92-3.82c-0.8-1.45-0.8-3.48-0.23-5c0.58-1.27,1.96-1.21,3.2-1.25c0.15-1.41,0.86-0.77,1.72-1.72    c0.97-1.07,1.16-2.11,1.44-3.45c0.76,0.49,0.92,0.21,1.72,0c-0.09-0.59,0.51-0.94,0.86-1.44c-0.08-2.62,1.15-4.87,1.44-7.47    c1.24-1.15,2.49-2.3,3.73-3.45c0.73-0.8,0.78-2.07,2.01-2.87c1.34-0.88,2.63-0.81,4.31-0.86c0.88-1.2,2.7-1.11,4.01-1.5    c3.3-0.97,6.45-1.42,9.05-3.85c1-0.94,1.51-3.16,1.87-4.7c0-0.57,0-1.15,0-1.72c0.56-1.29,1.14-2.02,2.3-2.87    c-0.77-0.91-0.21-1.94-0.57-3.16c0.69-0.2,0.77-0.58,1.15-1.15c-0.52-0.66-0.11-1.2,0-2.01c-0.67-0.57-1.34-1.15-2.01-1.72    c-0.48,0-0.96,0-1.44,0c0.19-0.57,0.38-1.15,0.57-1.72c0.97,0.06,4.31-3.49,4.31-4.31l0.24-0.85c-0.72,0.03-1.43-0.02-1.95-0.01    c-1.25-0.38-2.5-0.77-3.75-1.15c-1.4,0.14-2.81,0.28-4.21,0.41c-1.29,0.32-2.57,0.63-3.86,0.95c-0.71,0.2-3-2.35-3.73-2.81    c-0.76-0.19-1.51-0.38-2.27-0.57c-0.57-0.38-1.15-0.77-1.72-1.15c-0.3-1.84-2.98-3.06-4.6-3.39c-0.67,0.17-1.33,0.35-2,0.52    c-1.82,0.19-3.64,0.38-5.46,0.57c-1.01,0.7-1.43,0.85-2.6,0.62c-1.28-0.21-2.68-3.01-3.43-4.06c-0.25-0.11-0.49-0.22-0.74-0.32    c-0.79-0.52-2.34,0.59-3.03,1.12c-2.5,1.91-3.5,4.44-5.13,6.95c-0.79,0.03-1.12,0.39-1.72,0.86c-1.01-0.17-1.38,0.5-2.3,0.86    c-0.58,0.18-1.17,0.35-1.75,0.53c-1.28,1.09-2.57,2.17-3.85,3.26c-2.34,1.42-4.69,2.84-7.03,4.25c-0.99,0.94-1.64,1.97-2.3,3.16    c-0.42,0.23-2.09,2.06-2.59,2.58c-0.7,0.75,0.19,4.06,0.35,5.2c-0.02,0.57-0.04,1.14-0.05,1.7c0.03-0.36,0.07-0.71,0.1-1.07    c0.06-0.22,0.13-0.44,0.19-0.66c-0.19,1.91-0.38,3.83-0.57,5.74c1.65,1.93,2.33,6.47,2.55,8.88c0.39,1.44,0.79,2.88,1.18,4.32    c0.29,0,0.57,0,0.86,0c-0.29,0.48-0.57,0.96-0.86,1.44c0.63,0.25,1.06,1.04,1.21,1.71c1.69,1.81,1.31,2.3,1.37,4.32    c0.76,1.19,0.74,2.42,0.57,3.73c-0.56,0.92-1.12,1.84-1.69,2.76c-0.19-0.64-0.38-1.29-0.57-1.93c-0.31-1.87-0.61-3.74-0.92-5.61    c-0.19-0.42-0.37-0.84-0.56-1.26c-0.96-0.19-1.91-0.38-2.87-0.57c-2.18,0.54-4.37,1.09-6.55,1.63c-1.54,0.62-0.22,0.21-0.85,1.62    c-0.17,0.51,1.26,1.09,1.66,1.34c0.38,0.57,0.77,1.15,1.15,1.72c0.17-0.07,0.33-0.15,0.5-0.22c0.79,0.74,1.58,1.49,2.37,2.23    c0.19,1.05,0.38,2.11,0.57,3.16c-0.19,1.15-0.38,2.3-0.57,3.45c0,0.69-1.47,1.14-2.05,1.35L157.96,295.74z"/>
            <circle cx="172.22" cy="288.47" r="1.586"/>
        </g>
    </g>
</svg>