<?xml version="1.0" encoding="UTF-8"?>
<!DOCTYPE svg PUBLIC "-//W3C//DTD SVG 1.1//EN" "http://www.w3.org/Graphics/SVG/1.1/DTD/svg11.dtd">
<svg version="1.1" id="HaritaCizim" xmlns="http://www.w3.org/2000/svg" xmlns:xlink="http://www.w3.org/1999/xlink" x="0px" y="0px" viewBox="0 0 500 376" preserveAspectRatio="none">
    <defs id="__def">
        <radialGradient id="f">
            <stop offset="0" stop-color="white" stop-opacity="1"/>
            <stop id="STOP1" offset=".4" stop-opacity="1"/>
            <stop offset="1" stop-color="white" stop-opacity=".2"/>
        </radialGradient>
        <filter id="__flt1" x="0" y="0" width="200%" height="200%" filterUnits="objectBoundingBox">
            <feGaussianBlur in="SourceAlpha" stdDeviation="3" result="blur1"/>
            <feSpecularLighting result="specOut" in="blur1" specularConstant="1.5" specularExponent="20" lighting-color="#bbbbbb">
                <feDistantLight azimuth="45" elevation="30"/>
            </feSpecularLighting>
            <feComposite in="specOut" in2="SourceAlpha" operator="in" result="specOut"/>
            <feComposite in="SourceGraphic" in2="specOut" operator="arithmetic" k1="0" k2="1" k3="1" k4="0"/>
        </filter>
        <filter id="__flt2" x="0" y="0" width="200%" height="200%" filterUnits="objectBoundingBox">
            <feGaussianBlur in="SourceAlpha" stdDeviation="3" result="blur1"/>
            <feSpecularLighting result="specOut" in="blur1" specularExponent="20" lighting-color="#bbbbbb">
                <fePointLight x="-2000" y="100" z="2000"/>
            </feSpecularLighting>
            <feComposite in="specOut" in2="SourceAlpha" operator="in" result="specOut"/>
            <feComposite in="SourceGraphic" in2="specOut" operator="arithmetic" k1="0" k2="1" k3="1" k4="0"/>
        </filter>
        <filter id="__flt3" x0="-50%" y0="-50%" width="200%" height="200%" filterUnits="objectBoundingBox">
            <feGaussianBlur in="SourceAlpha" stdDeviation="3" result="blur"/>
            <feOffset in="blur" dx="0" dy="0" result="offsetBlur"/>
            <feSpecularLighting in="blur" surfaceScale="4" specularConstant=".5" specularExponent="20" lighting-color="flavor" result="specOut">
                <fePointLight x="-5000" y="-10000" z="5000"/>
            </feSpecularLighting>
            <feComposite in="specOut" in2="SourceAlpha" operator="in" result="specOut"/>
            <feComposite in="SourceGraphic" in2="specOut" operator="arithmetic" k1="0" k2="1" k3="1" k4="0" result="litPaint"/>
            <feMerge>
                <feMergeNode in="offsetBlur"/>
                <feMergeNode in="litPaint"/>
            </feMerge>
        </filter>
        <filter id="__flt4" x0="-50%" y0="-50%" width="200%" height="200%">
            <feGaussianBlur in="SourceAlpha" stdDeviation="2" result="blur"/>
            <feOffset dy="-1" dx="-1"/>
            <feComposite in2="SourceAlpha" operator="arithmetic" k2="-1" k3="1" result="hlDiff"/>
            <feFlood flood-color="white" flood-opacity=".7"/>
            <feComposite in2="hlDiff" operator="in"/>
            <feComposite in2="SourceGraphic" operator="over" result="withGlow"/>
            <feOffset in="blur" dy="3" dx="3"/>
            <feComposite in2="SourceAlpha" operator="arithmetic" k2="-1" k3="1" result="shadowDiff"/>
            <feFlood flood-color="black" flood-opacity="1"/>
            <feComposite in2="shadowDiff" operator="in"/>
            <feComposite in2="withGlow" operator="over"/>
        </filter>
        <filter id="__golge1" x="0" y="0" width="200%" height="200%" filterUnits="userSpaceOnUse">
            <feOffset result="offOut" in="SourceAlpha" dx="8" dy="8"/>
            <feGaussianBlur result="blurOut" in="offOut" stdDeviation="3"/>
            <feBlend in="SourceGraphic" in2="blurOut" mode="normal"/>
        </filter>
    </defs>
    <g id="__Komsular" display="none">
        <linearGradient id="SVGID_1_" gradientUnits="userSpaceOnUse" x1="358.2158" y1="115.5376" x2="396.8667" y2="115.5376">
            <stop offset="0" style="stop-color:#6DA2D7"/>
            <stop offset="1" style="stop-color:#FFFFFF"/>
            <stop offset="1" style="stop-color:#69A0D6"/>
        </linearGradient>
        <path fill-rule="evenodd" clip-rule="evenodd" fill="url(#SVGID_1_)" stroke="#000000" stroke-width="0.25" stroke-miterlimit="10" d="   M362.32,129.5c1.27-0.25,1.13-0.21,2.01-1.09c0.02-0.4,0.17-0.52,0.46-0.76c-0.01-0.47,0.2-0.77,0.71-0.87   c0.13-0.92,0.06-1.94,1.04-2.36c0.09-0.08,0.17-0.16,0.26-0.23c0.34-0.05,0.67-0.1,1.01-0.14c0.53-0.07,0.9,0.17,1.44,0   c0.58-0.29,1.15-0.57,1.73-0.86c0.8-0.21,1.71-0.69,1.83-1.58c-0.03-0.97-0.07-1.93-0.1-2.9c2.61-0.51,1.91-2,2.6-3.75   c0.32-0.81,2.03-3,2.88-3.03c0.58-0.43,1.15-0.87,1.73-1.3c0.41-0.47,0.87-1.33,1.43-1.3c0.28,0.03,0.22-0.23,0.45,0   c0.08,0.11,0.17,0.22,0.25,0.33c0.14,0.28,0.03,0.21,0.46,0.25c-0.02,0.69-0.12,1.18,0.55,1.61c0.38,0.24,0.88,0.46,1.32,0.26   c0.93,0.56,1.86,1.12,2.79,1.69c0.33,0.29,0.92,0.67,1.23,0.41c0.21-0.21,0.07-0.14,0.45-0.08c0-0.62,0.03-0.96,0.57-1.34   c0.01-0.29-0.07-0.23,0.14-0.28c0.45-0.09,1.31-0.18,1.6-0.54c0.86,0.24,1.73,0.48,2.6,0.72c-0.07,0.11-0.15,0.21-0.22,0.32   c-0.02,0.18-0.05,0.36-0.07,0.55c-0.34,0.32-0.81,0.97-1.3,0.72c0.01,0.05,0.01,0.09,0.02,0.14c0.09,0.68,0.1,1.59,0.57,1.83   c0.77,0.23,1.54,0.47,2.32,0.7c0.13-0.29,0.27-0.35,0.22-0.65c-0.07-0.42-0.36-0.83-0.09-1.16c-0.21-0.29-0.36-0.71-0.72-0.72   c0.04-0.13,0.08-0.26,0.13-0.39c-0.04-0.11-0.08-0.22-0.13-0.33c0.11-0.01,0.21-0.02,0.32-0.04c0.23,0.01,0.46,0.02,0.69,0.04   c0.46-0.51,0.92-1.01,1.38-1.52c-0.26-0.34-1.05-1.28-0.95-1.65c0.14,0.41,0.79,1.91,0.11,1.31c-0.32-0.31-1.98-1.9-1.98-2.03   c-0.43-0.07-0.89-0.22-1.15,0.14c-0.31-0.1-1.01-0.2-1.01-0.58c-0.3-0.06-0.61-0.18-0.86,0c-0.34-0.13-0.68-0.27-1.02-0.41   c-0.52-0.2-1.05-0.4-1.57-0.6c-0.79,0.05-1.95,0.22-2.6,0.72c-0.44-0.09-0.42-0.26-0.87,0c-0.01-0.06-0.02-0.11-0.03-0.17   c-0.04-0.47-0.08-0.94-0.12-1.41c-0.62-0.41-1.13-1.18-1.87-1.3c-0.28-0.49-0.69-1.23-1.3-1.3c-0.03-0.35-0.14-0.46,0.14-0.72   c-0.33-0.43-0.82-0.95-1.36-1.12c-0.62-0.19-2.5-0.31-2.82-0.76c-0.35-0.01-0.61-0.11-0.87,0.14c-0.39-0.24-1.06-0.33-1.3-0.58   c0,0.12,0,0.25,0,0.37c-0.11,0.15-0.14,0.36,0.02,0.46c0.19,0.16,0.37,0.31,0.56,0.47c0.72-0.05,1.44-0.1,2.16-0.14   c0.62,0.05,1.47,0.56,2.02,0.43c0.41,0.34,1.27,0.76,1.01,1.3c-0.72,0.82-1.44,1.63-2.16,2.45c-1.11,0.46-1.88,1.17-2.86,1.77   c-0.35,0.22-0.78,0.79-1.18,0.68c-0.08,0.33-0.14,0.39,0,0.72c-0.82,1.1-1.63,2.21-2.45,3.32c0.15,0.38,0.67,2.58-0.29,2.02   c-0.24,0.84-1.13,2.78-2.02,3.17c-0.34,0.48-0.67,0.96-1.01,1.44c-0.11,0.54,0.21,0.93,0.3,1.43c0.09,0.5-0.59,0.82-0.01,1.59   c-0.1,0.01-0.2,0.02-0.3,0.03c-0.82,0.03-1.76-0.42-2.47,0.03c-1.06,0.6-1.55,1.62-2.27,2.54c-0.14,0.29-0.29,0.58-0.43,0.87   c-0.35,0.44-0.79,1.3-1.45,1.3c-1.27,0.04-2.88-0.43-4.03-1.44c0.19,0,0.38,0,0.58,0c-0.31,0.05-0.62,0.1-0.94,0.14   c0.1,0.12,0.2,0.23,0.3,0.35c0.08,0.1,0.27,0.31,0.06,0.37c0.46,0.33,1.81,1.57,2.31,1.44   C361.28,129.03,361.71,129.62,362.32,129.5z"/>
        <path fill-rule="evenodd" clip-rule="evenodd" fill="none" stroke="#000000" stroke-width="0.25" stroke-miterlimit="10" d="   M283.87,0.74c-0.3,1.25,0.91,1.72,1.36,2.7c0.44,0.96,0.29,2.37,0.45,3.46c0.33,2.25,1.23,4.27,1.34,6.61   c0.12,2.38-1.06,4.72,0,6.91c0.79,1.64,2.75,3.28,3.17,5.09c0.94,4.16-5.02,7.15-6.01,10.82c-0.56,2.1-0.45,4.89-0.45,7.06   c0,2.45,0.08,4.56,0.15,6.91"/>
        <path fill-rule="evenodd" clip-rule="evenodd" fill="none" stroke="#000000" stroke-width="0.25" stroke-miterlimit="10" d="   M345.9,103.32c-0.47-0.86-0.56-1.87-1.01-2.74c-0.43-0.83-1.18-1.47-1.42-2.34c-1.94-1.07-2.61-3.32-3.43-5.14   c-0.83-1.84-1.76-3.84-1.95-6c-0.22-2.55,1.38-4.13,2.14-6.27c0.7-1.96,0.69-4.5,1.6-6.35c0.99-2.01,3.24-3.34,4.85-4.78   c1.52-1.36,3.23-3.04,4.06-4.95c0.79-1.82,1.79-3.92,3.3-5.44c1.55-1.57,3.53-2.5,5.38-3.76c1.78-1.21,3.42-2.34,5.24-3.49   c2.24-1.4,4.88-1.28,7.38-2.04c5.81-1.77,11.6,1.88,17.11,2.83c1.01,0.17,1.82,0.58,2.85,0.78c1.53,0.3,1.88-0.33,3.12-0.67   c1.03-0.28,1.7,0.2,2.59,0.65c1.19,0.6,2.65,0.89,4.04,1.29c0.25-1.51-0.22-3.57,0.36-5.02c0.6-1.49,3.76-1.9,3.24-3.62   c-1.88-0.76-2.72-0.93-3.14-3.02c-0.32-1.64-0.8-3.23-1.2-4.81c-0.44-1.77-0.27-2.84,0.03-4.62c0.36-2.16-0.59-2.27-1.38-3.94"/>
        <path fill-rule="evenodd" clip-rule="evenodd" fill="none" stroke="#000000" stroke-width="0.25" stroke-miterlimit="10" d="   M435.57,221.98c0.3,0.99,2.41,0.73,3.3,0.86c1.19,0.17,2.5,0.61,3.5,1.23c2.17,1.37,2.7,3.63,3.3,5.84   c0.6,2.19,1.21,4.24,1.65,6.49c0.4,2,1.1,4.53,1.88,6.34c0.92,2.15,3.05,4.06,4.36,6.01c1.32,1.96,3.88,3.7,5.92,4.93   c2.17,1.31,4.52,2.08,6.87,2.55c2.4,0.49,5.09,0.93,7.52,0.6c2.01-0.27,4.3-1.38,6.2-0.04c0.66,0.46,1.05,1.69,1.49,2.29   c0.65,0.89,1.5,1.36,2.32,2c1.51,1.17,2.39,3.09,4.1,4.13c1.87,1.13,4.14,1.65,6.43,1.51c0.47-0.82,4.53-0.78,5.58-0.88"/>
        <path fill-rule="evenodd" clip-rule="evenodd" fill="none" stroke="#000000" stroke-width="0.25" stroke-miterlimit="10" d="   M343.2,331.32c-2.56,0.99-1.62,4.04-1.34,6.01c0.35,2.42-0.24,4.84-1.21,6.91c-0.84,1.81-1.24,4.5-2.55,6.01   c-1.23,1.42-4.79,1.5-6.47,2.25c-4.08,1.81-8.02,4.4-10.21,8.42c-0.59,1.08-0.44,2.19-0.86,3.34c-0.39,1.08-1.12,1.98-1.43,3.26   c-0.58,2.4-0.92,4.6-1.31,7.06c-0.12,0.74-0.01,1.22-0.45,1.8"/>
        <path fill-rule="evenodd" clip-rule="evenodd" fill="none" stroke="#000000" stroke-width="0.25" stroke-miterlimit="10" d="   M156.95,323.36c-2.89,0.01-4.46,0.72-6.77,2.4c-0.65,0.47-2.28,1.72-2.67,2.56c-0.43,0.94-0.52,2.48-0.78,3.46   c-1.21,4.62-2.07,9.1-3.95,13.52c-0.78,1.85-3.17,5.1-4.93,6.12c-1,0.58-2.12,0.76-3.14,1.35c-1.13,0.66-2.07,1.52-3.15,2.26   c-1.01,0.68-0.22,0.58-1.36,0.93c-1.36,0.42-2.54,1.99-3.91,2.25c-1.04,0.2-2.14,1.29-3.15,1.5c-1.24,0.26-2.74,0.96-3.91,1.5   c-1.62,0.75-3.63,1.12-5.41,1.5c-2.1,0.45-3.95,0.55-5.86,0.3c-2.43-0.32-4.26,1.07-6.76,1.2c-1.34,0.07-1.94-0.12-2.82,0.92   c-0.89,1.05-0.88,2.12-0.94,3.44c-0.06,1.47-0.8,2.47-1.05,3.75c-0.27,1.42,0.23,2.35-0.75,3.6"/>
        <path fill-rule="evenodd" clip-rule="evenodd" fill="none" stroke="#000000" stroke-width="0.25" stroke-miterlimit="10" d="   M0,253.22c2.46,0.68,4.91-0.01,7.36-0.15c2.49-0.15,4.96,0.06,7.33-0.33c4.58-0.76,6.5-5.63,10.58-7.44   c1.82-0.81,3.61-1.32,5.37-2.32c0.82-0.47,1.83-1.08,2.72-1.31c1.13-0.3,2.41,0.05,3.6-0.16c1.94-0.34,2.53-2.11,4.66-2.4   c1.76-0.24,4.61-0.21,6.16,0.45"/>
        <path fill-rule="evenodd" clip-rule="evenodd" fill="none" stroke="#000000" stroke-width="0.25" stroke-miterlimit="10" d="   M43.86,78.99c2.86,0,5.63-0.48,8.56-0.45c2.46,0.03,3.95-1.35,5.59-3.15c1.53-1.67,3.28-3.36,5.67-3.31   c2.64,0.05,4.43,1.69,5.71,3.75c0.68,1.09,0.58,2.06,0.91,3.31c0.28,1.06,0.92,2.01,1.2,3.15c0.61,2.43,0.13,5.1,0.71,7.51   c0.54,2.24,2.98,4.1,5.13,4.99c2.36,0.97,3.9,2.14,5.56,3.94c1,1.08,1.83,1.31,1.4,2.82c-0.36,1.25-0.84,2.09-0.53,3.56   c0.52,2.47,2.36,4.12,3.78,5.86c0.79,0.96,1.49,2.04,2.71,2.41c0.81,0.24,1.88,0,2.71,0.15c0.61,0.11,1.18,0.51,1.75,0.64   c1.18,0.26,2.8,0.27,4.1,0.23c1.56-0.06,2.76,0.36,4.25,0.07c0.89-0.17,1.68-0.4,2.63-0.36c0.74-1.26,0.54-1.58,2.12-1.28   c1.03,0.19,2.58,0.81,3.62,0.57c0.47-0.11,0.82-0.62,1.35-0.77c0.61-0.16,1.34,0.13,1.96,0c1.64-0.33,1.7-0.96,3.3,0.15   c2.24,1.55,4.86,1.35,7.37,2.37c1.49,0.6,4.72,1.52,5.4,3.19"/>
        <text transform="matrix(0.7305 -0.6829 0.6829 0.7305 157.3867 57.0991)" font-family="'MyriadPro-Regular'" font-size="14.4187">BURSA</text>
        <text transform="matrix(0.5231 -0.8523 0.8523 0.5231 29.9556 194.6592)" font-family="'MyriadPro-Regular'" font-size="14.4187">BALIKESİR</text>
        <text transform="matrix(0.6414 0.7672 -0.7672 0.6414 41.3103 298.0352)" font-family="'MyriadPro-Regular'" font-size="14.4187">MANİSA</text>
        <text transform="matrix(1 0 0 1 206.8193 358.0547)" font-family="'MyriadPro-Regular'" font-size="14.4187">UŞAK</text>
        <text transform="matrix(0.6142 -0.7891 0.7891 0.6142 400.6826 369.2783)" font-family="'MyriadPro-Regular'" font-size="14.4187">AFYONKARAHİSAR</text>
        <text transform="matrix(0.5017 0.865 -0.865 0.5017 431.1514 96.0244)" font-family="'MyriadPro-Regular'" font-size="14.4187">ESKİŞEHİR</text>
        <text transform="matrix(0.8498 0.5271 -0.5271 0.8498 306.791 24.6096)" font-family="'MyriadPro-Regular'" font-size="14.4187">BİLECİK</text>
    </g>
    <g id="__Harita" display="none">
        <rect id="__cer" x="0" y="0" fill="#000000" opacity="0" width="500" height="376"/>
        <g id="__Kütahya">
            <path d="    M385.11,112.42c0.71,1.67,1.41,3.35,2.12,5.02c0.45,1.67,0.9,3.35,1.34,5.02c0.34,0.72,0.67,1.44,1.01,2.16    c0.37,0.88,1.44,2.45,2.18,3.01c0.36,0.27,1.32,0.74,1.28,1.18c1.17,0.65,2.33,1.31,3.5,1.96c1.19,0.51,2.37,1.02,3.56,1.53    c1.11,0.47,2.22,0.94,3.33,1.41c1.39,0.77,2.79,1.54,4.18,2.31c0.85,1.1,1.26,2.26,1.87,3.46c0.77,1.52,0.62,3.4,0.52,5.04    c-0.04,0.33-0.09,0.66-0.13,1c-0.07,0.86-0.05,2.55-0.24,3.05c-0.18,1.52-0.11,2.95-0.29,4.47c-0.13,0.5-0.22,1.44-0.25,2    c-0.08,1.67-0.38,3.23-0.32,4.92c0.06,1.92,0.5,3.88,1.33,5.59c0.31,1.24,0.79,1.72,1.34,1.9c0.98,1.07,2.81,0.89,4.97,1.02    c0.53,0.24,1.06,0.48,1.59,0.72c0.49,0.23,1.58,0.41,1.65,0.73c0,0.27,0.01,0.54,0.01,0.8c-0.17,0.26-0.34,0.51-0.51,0.77    c-1.06,0.48-2.11,0.96-3.17,1.44c-0.58,0.29-1.15,0.58-1.73,0.87c-0.67,0.34-1.35,0.67-2.02,1.01c-0.97,0.82-1.41,1.56-1.31,2.22    c-0.34,0.58-0.57,1.19-0.56,1.82c0.24,1.2,0.48,2.4,0.72,3.6c0.39,0.68,0.79,1.37,1.18,2.05c0,0.47,0.17,1.54,0.55,1.99    c0.67,0.58,1.35,1.15,2.02,1.73c0.72,0.7,0.75,1.8,1.29,2.57c0.24,0.35,0.48,0.69,0.73,1.04c0.65,0.69,1.31,1.38,1.96,2.06    c0.46,0.64,0.91,1.29,1.37,1.93c0.28,0.59,0.57,1.18,0.85,1.78c0.29,1.23,0.6,2.42,0.59,3.7c-0.2,1.46-0.39,2.92-0.59,4.38    c-0.05,1.25-0.1,2.5-0.14,3.75c0.07,0.82,0.34,1.67,0.88,2.57c0.38,0.54,0.76,1.08,1.14,1.61c0.72,0.67,1.44,1.35,2.16,2.02    c0.99,0.7,1.98,1.39,2.97,2.09c1.2,0.98,2.41,1.98,3.55,2.9c1.08,0.62,2.8,1.72,3.87,1.48c-0.06,0.47-0.29,0.76-0.59,0.89    c-1.4,0.85-2.33,0.89-3.63,2.46c-0.48,0.58-1.19,0.91-1.71,1.86c-1.45,3.69-4.05,8.07-7.21,10.38c-1.48,1.08-2.64,2.38-4.38,3.05    c-0.8,0.23-1.6,0.46-2.4,0.69c-0.52-0.07-1.58-0.3-1.87-0.72c-2.38-0.37-4.46-1.17-7.1,0.4c-0.26,0.13-0.45,0.18-0.64,0.23    c-1.21,0.47-2.3,1.1-3.15,2.02c-1.86,1.76-3.8,3.21-5.59,5.28c-0.45,0.52-2.18,2.99-2.33,2.83l-0.08-0.53    c-1.17-1.73-2.12-3.53-3.12-5.36c-0.4-0.91-0.8-1.81-1.2-2.72c-0.3-0.45-0.59-0.9-0.89-1.35c-0.81-1.45-1.53-2.84-2.62-4.09    c-1.14-1.3-2.64-2.14-4.13-2.93c-0.24-0.19-0.48-0.38-0.72-0.58c-0.91-0.53-1.83-1.06-2.74-1.59c-0.87-0.67-1.73-1.35-2.6-2.02    c-2.02-1.01-4.04-2.02-6.06-3.03c-0.62-0.29-2.38-0.67-3.03-0.58c-0.49-0.22-0.95-0.59-1.45-0.61c-0.86,0.06-1.72,0.12-2.59,0.18    c-0.77-0.1-1.54-0.19-2.31-0.29c-0.58,0-1.15,0-1.73,0c-1.2,0.25-2.4,0.5-3.6,0.75c-0.47,0-2.62,0.49-2.88,0.84    c-1.03,0.03-2.16,0.43-2.16,0.43c-1.11-1.15-1.92-2.31-3.03-3.46c-0.53-0.29-1.06-0.58-1.59-0.87c-1.59-0.76-2.66-1.97-4.04-3.03    c-1.2-0.82-2.4-1.64-3.6-2.46c-0.67-0.55-1.35-1.11-2.02-1.66c-1.75-0.86-3.49-1.71-5.24-2.57c-1.48-0.67-2.99-0.39-4.58-0.39    c-0.62,0.01-1.24,0.01-1.87,0.02c-1.35-0.28-2.64-0.7-3.89-1.3c-0.96-0.63-1.92-1.25-2.88-1.88c-0.48-0.29-1.1-1.29-1.15-1.58    c-0.19-0.39-0.32-0.67-0.58-1.44c-0.6-0.09-0.62-0.76-1.01-1.15c-0.62-0.82-1.25-1.63-1.87-2.45c-0.29-0.63-0.58-1.25-0.86-1.88    c-0.19-0.43-0.38-0.86-0.58-1.3c-0.29-1.3-1.23-2.38-2.16-3.32c-0.16-0.98-1.42-1.7-2.02-2.45c-0.29-0.43-0.58-0.87-0.87-1.3    c-1.2-1.2-2.4-2.4-3.6-3.61c-0.33-0.58-0.67-1.17-1-1.75c-0.39-0.91-0.77-1.81-1.16-2.72c-0.55-0.46-1.1-0.93-1.66-1.39    c-0.79-0.79-1.59-1.57-2.38-2.36c-0.34-0.63-0.82-1.25-1.15-1.88c-1.29-1.45-2.24-2.96-3.89-4.04c0.07-0.41-0.71-0.89-1.01-1.15    c-0.42-0.49-1.61-1.8-2.03-2.46c-0.18-0.28-0.64-0.21-0.42-0.28l0.29,0.14c-0.09-0.56,0.9-1.24,1.3-1.59    c0.29-0.63,0.58-1.25,0.87-1.87c0.24-1.15,0.48-2.31,0.72-3.46c-0.05-0.38-0.1-0.77-0.14-1.15c-0.46-1.32-1.24-2.67-2.45-3.46    c-2.08-1.36-4.78-1.75-6.64-3.47c-0.72-0.66-1.11-1.54-1.6-2.47c-0.03-1.58,0.47-2.25,0.74-3.29c-0.13-0.76-0.24-1.52,0-2.16    c0.14-0.67,0.29-1.35,0.43-2.02c-0.05-0.48-0.1-0.96-0.14-1.44c0.14-0.58,0.29-1.15,0.43-1.73c-0.19-0.23-0.12-0.56-0.14-0.87    c0.27-0.25,0.31-0.9,0.29-1.3c0.05-0.77,0.1-1.54,0.14-2.31c-0.64-0.31-0.52-2.16-0.44-2.87c0.29-0.97,0.58-1.93,0.87-2.9    c0-1.3,0.75-2.74,1.3-3.89c-0.17-1.7,0.33-3.52,0.42-5.19c0.13-2.5-0.45-4.74,1.19-6.82c0.19-0.41,0.37-0.83,0.55-1.25    c1.86-2.99,5.44-5.71,9.8-6.78c0.22-0.45,0.96-0.76,1.39-1.02c0.87-0.79,1.83-1.48,3.1-1.81c0.24-0.1,0.81-1.55,0.8-1.84    c0.06-0.56,0.13-1.12,0.19-1.68c-0.21-1.72-1-3.1-2.02-4.46c-1.45-1.94-1.14-7.17-1.44-7.94h0.14c0.29,0.01,0.45,0.09,0.87,0    c0.02,0.05,0.84,0.09,0.87,0.14c0.37,0.03,1.14-0.06,1.44-0.14c1.05-0.19,0.89-0.16,1.87-0.58c0.95,0.11,3.92,0.53,4.76,0.73    c2.83-0.01,5.66,0.62,8.22,1.72c0.38,0.05,0.77,0.1,1.15,0.16c1.16,0.15,2.28,0.16,3.38,0.59c2,0.76,3.86,1.7,5.27,3.29    c0.42,0.63,0.84,1.26,1.27,1.89c1.08,1.11,1.76,2.26,3.15,3.07c2.02,1.18,3.93,0.75,6.11,1.09c0.82,0.12,1.79-0.09,2.61,0.04    c0.81-0.07,1.62-0.14,2.43-0.21c0.58,0.01,1.16,0.02,1.73,0.03c0.98,0.22,2.15,0.73,3.17,0.58c1.35-0.53,2.69-1.06,4.04-1.59    c0.28-0.1,0.46-0.12,0.72,0c1.48-0.74,3.15-0.79,4.76-1.01c1.44-0.2,2.67-0.54,4.02-1.04c0.24-0.09,1.28-0.58,1.41-0.5    c0.35-0.02,0.87-0.22,1.2-0.19c0.15,0.02,1.08-0.06,1.3,0c0.11,0.02,1.08,0.14,1.15,0.14c0.12,0.03,0.83,0.1,1.02,0.07    c2.09-0.33,4.19-0.66,6.29-0.99c1.57-0.56,3.42-1.11,5.1-1.22c0.93-0.06,3.37,0.13,3.83,1c0.94,1.87,1.47,2.89,0.81,5.15    l0.26,2.62c-0.28-0.49-0.69-1.23-1.3-1.3c-0.03-0.35-0.14-0.46,0.14-0.72c-0.33-0.43-0.82-0.95-1.36-1.12    c-0.62-0.19-2.5-0.31-2.82-0.76c-0.35-0.01-0.61-0.11-0.87,0.14c-0.39-0.24-1.06-0.33-1.3-0.58c0,0.12,0,0.25,0,0.37    c-0.11,0.15-0.14,0.36,0.02,0.46c0.19,0.16,0.37,0.31,0.56,0.47c0.72-0.05,1.44-0.1,2.16-0.14c0.62,0.05,1.47,0.56,2.02,0.43    c0.41,0.34,1.27,0.76,1.01,1.3c-0.72,0.82-1.44,1.63-2.16,2.45c-1.11,0.46-1.88,1.17-2.86,1.77c-0.35,0.22-0.78,0.79-1.18,0.68    c-0.08,0.33-0.14,0.39,0,0.72c-0.82,1.1-1.63,2.21-2.45,3.32c0.15,0.38,0.67,2.58-0.29,2.02c-0.24,0.84-1.13,2.78-2.02,3.17    c-0.34,0.48-0.67,0.96-1.01,1.44c-0.11,0.54,0.21,0.93,0.3,1.43c0.09,0.5-0.59,0.82-0.01,1.59c-0.1,0.01-0.2,0.02-0.3,0.03    c-0.82,0.03-1.76-0.42-2.47,0.03c-1.06,0.6-1.55,1.62-2.27,2.54c-0.14,0.29-0.29,0.58-0.43,0.87c-0.35,0.44-0.79,1.3-1.45,1.3    c-1.27,0.04-2.88-0.43-4.03-1.44c0.19,0,0.38,0,0.58,0c-0.31,0.05-0.62,0.1-0.94,0.14c0.1,0.12,0.2,0.23,0.3,0.35    c0.08,0.1,0.27,0.31,0.06,0.37c0.46,0.33,1.81,1.57,2.31,1.44c0.39,0.37,0.83,0.96,1.43,0.84c1.27-0.25,1.13-0.21,2.01-1.09    c0.02-0.4,0.17-0.52,0.46-0.76c-0.01-0.47,0.2-0.77,0.71-0.87c0.13-0.92,0.06-1.94,1.04-2.36c0.09-0.08,0.17-0.16,0.26-0.23    c0.34-0.05,0.67-0.1,1.01-0.14c0.53-0.07,0.9,0.17,1.44,0c0.58-0.29,1.15-0.57,1.73-0.86c0.8-0.21,1.71-0.69,1.83-1.58    c-0.03-0.97-0.07-1.93-0.1-2.9c2.61-0.51,1.91-2,2.6-3.75c0.32-0.81,2.03-3,2.88-3.03c0.58-0.43,1.15-0.87,1.73-1.3    c0.41-0.47,0.87-1.33,1.43-1.3c0.28,0.03,0.22-0.23,0.45,0c0.08,0.11,0.17,0.22,0.25,0.33c0.14,0.28,0.03,0.21,0.46,0.25    c-0.02,0.69-0.12,1.18,0.55,1.61c0.38,0.24,0.88,0.46,1.32,0.26L385.11,112.42z"/>
            <circle cx="335.99" cy="168.36" r="1.586"/>
        </g>
        <g id="__Simav">
            <path d="    M139.84,320.58c-1.17,0.35-2.39,0.5-3.6,0.58c-0.37,0.37-1.63,0.29-2.16,0.27c-2.1-0.07-4.35-1.19-5.75-2.74    c-0.68-0.62-1.36-1.24-2.05-1.86c-0.42-0.92-0.84-1.85-1.26-2.77c-0.48-1.15-0.96-2.3-1.44-3.45c-0.3-0.67-0.6-1.33-0.91-2    c-0.38-1.39-0.77-2.79-1.15-4.18c-0.74-1.54-1.07-3.07-2.59-4.61c-0.92-0.86-0.84-0.94-1.59-2.02c-0.05-0.01-0.5-0.4-0.58-0.43    c-0.03-0.02-0.37-0.29-0.43-0.29c-0.04-0.03-0.2-0.29-0.29-0.29c0.1,0.04-0.44-0.42-0.43-0.43c0-0.07-0.43-0.42-0.43-0.43    c-0.62-0.67-1.39-1.05-2.01-1.72c-0.63-0.97-1.26-1.93-1.89-2.9c-0.03-1.27-0.01-2.79,0.38-4c0.3-0.73,0.61-1.47,0.91-2.2    c0.77-1.06,1.54-2.11,2.31-3.17c0.14-0.72,0.29-1.44,0.43-2.16c-0.15-0.77-0.29-1.54-0.44-2.32c-0.38-0.67-0.77-1.34-1.15-2.01    c-0.78-2.14-2.63-3.75-4.19-5.33c-2.13-2.17-4.67-3.87-6.92-5.91c-3.47-2.94-6.95-5.87-10.42-8.81c-0.9-0.62-1.8-1.24-2.7-1.86    c-0.11-0.04-1.13,0.05-2.04-0.13c-1.11-0.23-3.15-0.12-4.74,0.28c-0.45-0.27-2.37-0.05-2.96,0.04c-1.59,0.23-3.4-0.17-4.97-0.4    c-2.43-0.36-5.02-0.57-7.33-1.48c-2.33-0.92-4.3-2.44-6.38-3.78c-1.73-1.11-2.95-1.97-4.75-3.18c-0.36-0.31-0.58-0.43-1.01-0.72    c-0.23-0.02-0.63-0.55-0.86-0.58c-0.45-0.49-1-0.44-1.3-0.87c-0.97-0.94-2.22-1.18-3.17-2.02c-0.14-0.17-1.4-0.83-2.02-1.44    c0.32,0.22,2.57,0.44,2.9,0.66c0.76,0.27,1.52,0.55,2.28,0.82c2.41,0.71,4.82,1.42,7.23,2.12c0.81,0.06,1.95-0.11,2.74-0.72    c0.27-0.11-0.3-1.85-0.37-2.29c-0.41-2.41-0.81-4.81-1.22-7.22c-0.14-1.1-0.5-3.51-0.72-4.9c-0.13-0.33-0.15-1.41-0.29-1.87    c-0.04-0.91-0.06-1.39-0.43-2.31c-0.15-1.35-0.44-2.55-0.59-3.89c-0.23-1.58-0.45-3.08-1.19-4.56c-0.74-1.49-2.01-2.42-2.94-3.73    c-0.46-0.52-0.92-1.04-1.37-1.56c-0.34-0.86-1.04-1.79-0.82-2.84c0.18-0.53,0.35-1.07,0.53-1.6c0.41-0.27,0.81-0.55,1.22-0.82    c1.55-0.94,4.03-0.9,5.79-0.54c1.89,0.38,3.75,1.11,5.44,1.96c2.12,0.05,4.23,0.11,6.35,0.16c3.15,0.15,6.7-0.75,9.61-1.87    c2.22-1.12,4.44-2.24,6.66-3.37c0.58-0.38,1.17-0.75,1.75-1.13c2.13-0.89,4.07-2.13,6.06-3.32c-0.1-0.37,0.48-0.96,0.51-1.48    c0.66-1.35,1.31-2.71,1.97-4.06c0.93-1.84,2.09-3.51,3.14-5.28c0.79-1.29,1.57-2.58,2.36-3.88c0.85-1.06,1.7-2.13,2.55-3.19    c0.77-1.49,1.54-2.98,2.31-4.47c2.43-3.37,7.3-0.52,9.17-3.64c-0.14-0.44-0.12-0.72-0.1-0.99c0.24-0.9,0.65-2.65-0.21-3.32    c-0.41-0.65-0.74-1.33-1.08-2c0.01-2.22,2.07-5.89,1.22-6.46c-0.3-0.25-0.46-0.77-0.74-0.97c-0.58-0.99-1.15-1.99-1.73-2.98    c-0.89-1.45-2.92-4.26-2.78-6.01c0-1.98,1.14-3.7,0.88-4.92c0.23-2.63-0.1-4.2,1.28-6.33c0.03-0.04,0.4-1.26,0.43-1.3    c0.01,0.06,1.65,0.22,2.45,0.87c2.43,1.85,4.87,3.69,7.3,5.54c0.45,0.46,0.9,0.92,1.35,1.38c0.72,0.48,1.44,0.96,2.16,1.44    c1.14,1.63,2.28,3.27,3.42,4.91c0.53,1.13,1.06,2.26,1.6,3.38c0.54,0.68,1.08,1.37,1.62,2.05c0.2,0.38,0.41,0.75,0.61,1.13    c0.71,0.79,1.41,1.58,2.12,2.37c0.78-0.01,3.02,1.8,3.75,2.31c0.26-0.18,2.6,0.5,3.05,0.64c1.85,0.61,3.82,0.92,5.75,1.23    c0.35,0.24,0.72,0.39,0.86,0.72c0.25,0.38,0.5,0.76,0.74,1.14c0.34,0.45,0.58,0.14,0.27,0.45v-0.14c-0.19-0.06-0.47,0.2-0.64,0.36    c-0.63,0.58-1.18,1.07-1.69,1.78c-0.28,1.07-0.56,2.13-0.84,3.19c-1,1.99-2,3.99-3.01,5.98c-1.38,1.72-2.77,3.45-4.15,5.17    c-1.86,1.86-4.09,3.42-5.38,5.79c-1.29,2.39-1.49,4.54-1.82,7.12c-0.19,0.78-0.39,1.56-0.58,2.34c0.02,0.85,0.04,1.71,0.05,2.56    c0.14,1.53,0.42,2.97,0.46,4.49c0.16,0.31,0.31,0.61,0.47,0.92c0.28,1.14,0.55,2.27,0.83,3.41c0.44,3.22,0.06,7.07,0.72,10.09    l0.14,0.14c-0.42,1.13,0.05,2.55,0.03,3.75c-0.01,1.3-0.02,2.6-0.03,3.9c0.66,1.17,0.8,2.24,1.3,3.46    c0.14,0.67,0.29,1.35,0.43,2.02c0.72,1.87,1.77,3.64,3.17,5.05c2.4,0.23,4.8,0.45,7.2,0.68c1.78-0.14,3.29-0.68,5.2-0.68    c0.57-0.13,0.29-0.14,1.15-0.14c0.91,0,0.96,0.14,1.87,0.14c0.25,0.06,0.83,0.1,1.01,0.14c0.49,0.15,0.84,0.59,1.33,0.74    c1.24,0.47,2.48,0.95,3.71,1.42c0.84,0.5,1.67,1,2.51,1.5c1.72,0.56,2.11-0.46,3.55-0.63c1.65-0.2,3.4,0.86,4.89,1.47    c0.58,0.28,1.16,0.56,1.74,0.84c0.5,1.09,1.44,2.24,1.44,3.46c0,0.33,0.1,0.77-0.14,1.01h0.14c-0.35,1.6-0.78,2.11-1.59,3.6    c-0.19,0.21-0.76,1.02-1.01,1.44c0.02,0.26-0.16,1.33-0.14,1.59c0,0,0.02,0.07-0.04,0.28c-0.13,0.48-0.26,0.97-0.4,1.45    c-0.1,1.3-0.19,2.6-0.29,3.89c-0.19,0.43-0.38,0.87-0.58,1.3c-1.99,2.54-3.98,5.09-5.97,7.63c-0.6,0.76-2.12,1.68-2.39,2.6    c-0.45,0.42-1.68,1.6-1.73,2.16c-0.91,0.5-1.54,0.97-2.16,1.73c-0.24,0.29-1.01,1.15-1.01,1.15c-1.06-0.48-0.71,0.1-1.44-0.29    c-0.41,0.11-0.89-0.3-1.01-0.43c-0.24-0.1-0.77-0.63-1.01-0.72c-0.39-0.3-0.69-0.65-1.59-0.87c-0.34-0.34-0.7-0.48-1.3-1.01    c-0.56-0.22-0.74-0.79-1.3-1.01c-0.21-0.41-0.93-1-1.59-1.01c-1.17-1.03-0.93-1.02-2.45-1.59c-0.16-0.42-1.07-0.94-1.01-1.3    c-0.62-0.33-0.57-0.87-1.3-0.72c-0.07-0.1-0.65-0.04-0.72-0.14c-0.07,0.2-0.13,0.4-0.21,0.61c-0.44,0.89-0.12,1.45-0.07,2.13    c-0.21,0.85-0.42,1.71-0.63,2.56c-0.08,0.44-0.16,0.89-0.24,1.33c-0.19,0.43-0.38,0.87-0.58,1.3c-0.14,0.58-0.29,1.15-0.43,1.73    c0.19,1.44,0.38,2.88,0.58,4.33c0.24,1.01,0.48,2.02,0.7,3.02c-0.07,1.06,0.38,2.26,0.64,3.41c0.37,1.09,0.66,1.97,0.57,3.15    c0.14,1.02,0.27,2.04,0.41,3.05c1.08,1.5,0.21,3.45-0.29,4.95c-0.27,0.29-0.54,0.59-0.81,0.88c-0.22,1.01-1.2,1.77-1.93,2.43    c-0.51,0-3.52,1.12-3.75,1.44c-0.82,0.2-1.56,0.07-2.48,0.67c-0.24,0.26-0.31,0.25-0.72,0.71c-1.19,1.06-0.89,4-0.58,6.12    c0.05,0.33-0.06,1,0.17,0.87c-0.2,0.21,0.25,0.86,0.29,1.15c0.25,1.52,0.68,1.91,1.3,3.32c0.53,1.21,0.77,2.41,1.59,3.46    c0.22,0.61,0.36,1.56,0.58,2.16H139.84z"/>
            <circle cx="123.61" cy="258.33" r="1.586"/>
        </g>
        <g id="__Aslanapa">
            <path d="    M279.99,253.1c0.17-0.21,0.55-0.51,0.72-0.72c0.46-0.46,0.99-0.98,1.44-1.44c0.43-0.63,0.87-0.82,1.3-1.44    c0.44-0.96,0.87-1.92,1.31-2.88c0.33-0.87,0.65-1.74,0.98-2.61c0.2-0.67,0.4-1.35,0.6-2.02c0.29-1.21,0.57-2.41,0.86-3.62    c0.05-0.52,0.09-1.04,0.14-1.56c0-0.63,0.01-1.25,0.01-1.87c0.2-1.87,0.59-3.76,0.56-5.62c-0.19-1.54-0.38-3.08-0.58-4.61    c-0.37-0.77-0.61-1.46-0.72-2.31c-0.13-0.28-0.35-0.63-0.43-0.86c-0.12-0.16-0.21-0.39-0.43-0.58c-0.88-1.49-1.97-1.93-3.17-3.17    c-2.31-2.33-4.76-4.59-7.07-6.92c-0.3-0.24-0.61-0.47-0.91-0.71c-0.16-0.47-0.55-0.61-0.85-0.98c-0.56-0.68-1.5-1.59-1.7-2.49    c-0.14-0.43-0.29-0.87-0.43-1.3c-0.05-0.43-0.1-0.87-0.14-1.3c0.05-0.48,0.1-0.96,0.14-1.44c0.65-1.02,1.31-2.04,1.96-3.06    c0.5-0.95,1-1.9,1.5-2.86c0.12-1.14,0.21-2.17,0.03-3.32c-0.14-0.9-0.76-1.6-1.12-2.41c-0.23-0.53-0.36-0.93-0.21-1.48    c-0.14-0.38-0.29-0.77-0.43-1.15c-0.1-0.43-0.32-1.42,0-1.73c-0.62-1.06-1.24-2.12-1.86-3.19c-0.24-0.57-0.68-1.58-0.73-1.72    c1.37-0.98,4.26-1.57,6.08-2.07c0.57-0.13,1.14-0.26,1.7-0.38c0.05-0.1,0.53-0.19,0.58-0.29c0.53-0.38,0.91-0.77,1.44-1.15    c0.66-0.35,1.04-0.7,1.7-1.04c0.39-0.32,0.79-0.79,1.18-1.12c0.43-0.24,0.87-0.48,1.3-0.72c0.23-0.21,0.49-0.37,0.72-0.58    c1.32-0.93,1.84-1.79,3.32-2.45l0.29,0.14l-0.29-0.14c-0.23,0.07,0.24,0,0.42,0.28c0.43,0.66,1.61,1.97,2.03,2.46    c0.3,0.26,1.08,0.74,1.01,1.15c1.65,1.08,2.61,2.59,3.89,4.04c0.34,0.63,0.82,1.25,1.15,1.88c0.79,0.79,1.59,1.57,2.38,2.36    c0.55,0.46,1.1,0.92,1.66,1.39c0.39,0.91,0.77,1.81,1.16,2.72c0.33,0.58,0.67,1.17,1,1.75c1.2,1.2,2.4,2.4,3.6,3.61    c0.29,0.43,0.58,0.87,0.87,1.3c0.6,0.75,1.86,1.47,2.02,2.45c0.93,0.93,1.87,2.01,2.16,3.32c0.19,0.43,0.38,0.86,0.58,1.3    c0.29,0.63,0.58,1.25,0.86,1.88c0.63,0.82,1.25,1.63,1.87,2.45c0.39,0.4,0.41,1.07,1.01,1.15c0.26,0.77,0.39,1.05,0.58,1.44    c0.05,0.3,0.67,1.29,1.15,1.58c0.96,0.63,1.92,1.25,2.88,1.88c1.25,0.59,2.54,1.01,3.89,1.3c0.62-0.01,1.24-0.01,1.87-0.02    c1.59,0,3.1-0.28,4.58,0.39c1.75,0.86,3.49,1.71,5.24,2.57c0.67,0.55,1.35,1.11,2.02,1.66c1.2,0.82,2.4,1.64,3.6,2.46    c1.38,1.06,2.45,2.27,4.04,3.03c0.53,0.29,1.06,0.58,1.59,0.87c1.11,1.15,1.92,2.31,3.03,3.46l-0.14-0.02    c-0.39,0.15-0.74,0.34-1.01,0.59c-0.69,0.22-1.38,0.44-2.06,0.66c-0.54,0.26-0.97,0.62-1.11,1.22c-0.55,0.08-1.65,0.19-1.87,0.87    c-2.18,0.51-4.35,2.19-6.1,3.67c-0.71,0.65-1.41,1.3-2.12,1.95c-2.82,0.88-5.57,2.37-7.93,4.18c-0.36,0.16-0.73,0.32-1.09,0.48    c-2.18,1.71-4.37,3.43-6.55,5.15c-1.05,1.36-2.29,2.5-3.4,3.8c-0.69,0.9-1.38,1.79-2.08,2.69c-0.86,1.11-1.73,2.21-2.6,3.32    c-0.78,1.29-1.19,2.76-2.02,4.04c-0.36,0.56-0.33,1.26-0.43,1.87c-0.16,0.96-1.39,3.45-2.34,3.78c-0.76,0.23-1.52,0.46-2.28,0.69    c-0.72,0.03-1.44,0.06-2.16,0.08c-0.82,0.36-1.64,0.71-2.46,1.07c-0.34,0.14-0.67,0.29-1.01,0.43c-0.87,0.4-1.67,0.85-2.37,1.5    c-0.99,1.23-1.98,2.46-2.96,3.69c-0.34,0.63-0.67,1.25-1.01,1.88c-0.24,1.44-0.48,2.88-0.72,4.33l-0.14-0.87    c-0.22-0.22-0.29-0.41-0.29-0.72c-0.59-1.08-1.31-1.77-2.05-2.39c-0.84-1.37-1.59-2.92-3.52-4.06c-1.91-1.12-3.35-1.09-5.08-1.41    c-0.63-0.22-1.26-0.44-1.89-0.65c-0.84-0.47-1.68-0.93-2.52-1.4c-0.36-0.25-0.72-0.51-1.08-0.76c-0.79-0.49-1.27-1.21-1.51-2.13    c-0.62-1.35-0.87-3.16-0.51-4.79c0.24-0.43,0.19-1.01,0.43-1.44c0.38-0.58,0.77-1.01,1.15-1.59c0.63-0.84,1.6-1.71,2.02-2.16    c0.73-0.79,1.65-1.61,2.02-2.59L279.99,253.1z"/>
            <circle cx="312.26" cy="224.98" r="1.586"/>
        </g>
        <g id="__Çavdarhisar">
            <path d="    M221.84,231.85c0.26,0.12,1-0.57,1.2-0.68c0.74-0.43,1.48-0.85,2.21-1.28c0.56-0.4,1.11-0.81,1.67-1.21    c1.15-0.36,1.93-1.01,2.76-1.83c0.64,0,3.22-1.88,4.04-2.31c0.82-0.24,1.63-0.48,2.45-0.72c0.99-0.29,1.99-0.58,2.98-0.87    c0.59-0.39,1.17-0.78,1.76-1.18c0.68-0.37,1.36-0.75,2.04-1.12c0.86-0.79,1.5-1.94,1.76-3.06c0.03-1.18,1.07-1,1.27-2.42    c0.58-0.53,1.15-1.06,1.73-1.59c0.53-0.67,1.06-1.35,1.59-2.02c0.53,0,1.12-0.64,1.56-0.94c0.95-0.51,1.9-1.02,2.84-1.53    c0.32-0.18,1.22-0.61,1.22-1c0.71-0.3,1.15-0.81,1.54-1.37c0.7-0.64,1.41-1.28,2.11-1.92c0.48-0.68,0.95-1.35,1.43-2.03    c0.36-0.57,1.12-1.49,1.12-2.18c0.46-1.06,0.92-2.13,1.38-3.19c0.12-0.43,0.23-0.85,0.35-1.28c0.75-1.25,1.49-2.84,1.73-4.33    c0.07-0.77,0.14-1.53,0.21-2.3c0.12-0.48,0.24-0.97,0.36-1.45c-0.1-1.49-0.19-2.98-0.29-4.47l-0.15-0.58    c-0.15-0.31,0.86-0.39,1.18-0.5c0.62-0.27,1.23-0.53,1.85-0.8c0.87,0,2.16,0,3.03,0c0.06,0.14,0.49,1.15,0.73,1.72    c0.62,1.06,1.24,2.12,1.86,3.19c-0.32,0.31-0.1,1.3,0,1.73c0.14,0.38,0.29,0.77,0.43,1.15c-0.15,0.55-0.02,0.94,0.21,1.48    c0.35,0.81,0.98,1.51,1.12,2.41c0.18,1.15,0.09,2.18-0.03,3.32c-0.5,0.95-1,1.9-1.5,2.86c-0.65,1.02-1.31,2.04-1.96,3.06    c-0.05,0.48-0.1,0.96-0.14,1.44c0.05,0.43,0.1,0.87,0.14,1.3c0.14,0.43,0.29,0.87,0.43,1.3c0.2,0.9,1.13,1.81,1.7,2.49    c0.3,0.37,0.7,0.51,0.85,0.98c0.3,0.24,0.61,0.47,0.91,0.71c2.31,2.33,4.76,4.59,7.07,6.92c1.2,1.25,2.29,1.68,3.17,3.17    c0.23,0.18,0.32,0.42,0.43,0.58c0.09,0.23,0.3,0.58,0.43,0.86c0.11,0.85,0.35,1.53,0.72,2.31c0.19,1.54,0.38,3.08,0.58,4.61    c0.03,1.87-0.36,3.75-0.56,5.62c0,0.63-0.01,1.25-0.01,1.87c-0.05,0.52-0.09,1.04-0.14,1.56c-0.29,1.21-0.57,2.41-0.86,3.62    c-0.2,0.67-0.4,1.35-0.6,2.02c-0.33,0.87-0.65,1.74-0.98,2.61c-0.44,0.96-0.87,1.92-1.31,2.88c-0.43,0.63-0.87,0.82-1.3,1.44    c-0.46,0.46-0.99,0.98-1.44,1.44c-0.17,0.21-0.55,0.51-0.72,0.72l0.14-0.14c-0.14,0.05-0.58-0.05-0.72,0    c-1.69,0.23-3.37,0.46-5.06,0.68c-0.72,0.01-1.43,0.02-2.15,0.04c-0.93,0.55-1.91,0.59-2.86,0.37c-2.17-0.37-4.34-0.73-6.52-1.09    c-0.52-0.18-2.31-0.71-2.74-0.43c-1.15-0.54-2.48-0.88-3.75-0.94c-2.72-0.13-5.51-0.53-8.19-1.15c-0.7-0.16-2.44-0.45-2.91-0.94    c-1.11-0.18-2.21-0.35-3.32-0.53c-0.79-0.29-1.63,0.29-2.3,0.68c-1.1-0.24-2.07-0.91-3.17-1.15c-1.52-0.61-2.77-1.76-3.89-2.88    c-0.34-0.28-0.69-0.56-1.03-0.84c-0.67-0.68-1.33-1.36-2-2.04c-0.42-0.6-0.84-1.2-1.27-1.79c-0.6-0.64-1.2-1.28-1.79-1.91    c-0.48-0.76-0.97-1.53-1.45-2.29c-0.37-0.43-1.84-2.03-2.27-2.46c-0.29-0.91-0.58-1.34-0.87-2.21    C221.89,232.05,221.78,231.83,221.84,231.85z"/>
            <circle cx="258.94" cy="229.94" r="1.586"/>
        </g>
        <g id="__Hisarcık">
            <path d="    M137.25,217.77l0.14,0.14c-0.42,1.13,0.05,2.55,0.03,3.75c-0.01,1.3-0.02,2.6-0.03,3.9c0.66,1.17,0.8,2.24,1.3,3.46    c0.14,0.67,0.29,1.35,0.43,2.02c0.72,1.87,1.77,3.64,3.17,5.05c2.4,0.23,4.8,0.45,7.2,0.68c1.78-0.14,3.29-0.68,5.2-0.68    c0.57-0.13,0.29-0.14,1.15-0.14c0.91,0,0.96,0.14,1.87,0.14c0.25,0.06,0.83,0.1,1.01,0.14c0.49,0.15,0.84,0.59,1.33,0.74    c1.24,0.47,2.48,0.95,3.71,1.42c0.84,0.5,1.67,1,2.51,1.5c1.72,0.56,2.11-0.46,3.55-0.63c1.65-0.2,3.4,0.86,4.89,1.47    c0.58,0.28,1.16,0.56,1.74,0.84c0.5,1.09,1.44,2.24,1.44,3.46c0,0.33,0.1,0.77-0.14,1.01h0.14c0.05-0.2,1.17,0.19,1.44,0.29    c0.29,0.01,1.07-0.5,1.46-0.49c1.32-0.09,2.66-0.51,4-0.77c0.68-0.25,1.36-0.5,2.05-0.76c0.51-0.1,0.65,0.1,1.21-0.13    c3.22-1.59,6.03-2.57,8.77-3.99c1.38-0.79,2.76-1.58,4.15-2.37c0.59-0.25,1.17-0.5,1.76-0.76c1.08-0.35,2.17-0.7,3.25-1.05    c0.54-0.26,1.08-0.52,1.62-0.78c1.58-0.31,3.16-0.62,4.74-0.93c1.24-0.44,2.48-0.89,3.72-1.33c0.55-0.25,1.09-0.51,1.64-0.76    c0.96-0.25,1.92-0.54,2.88-0.34c0.46-0.14,0.9,0.28,1.3,0.19l-0.14-0.42c0-1.04-0.37-2.09-0.72-3.05    c-0.17-0.76-0.34-1.52-0.5-2.28c-0.64-1.7-1.28-3.4-1.92-5.1c-0.11-0.47-0.21-0.95-0.32-1.42c-0.37-1.02-0.74-2.03-1.1-3.05    c-0.26-0.57-0.51-1.14-0.77-1.71c-0.87-0.67-1.73-1.35-2.6-2.02c-0.19-0.29-0.38-0.58-0.58-0.87c-0.05-0.82-0.1-1.63-0.14-2.45    c-0.63-0.92-1.02-1.71-2.17-1.71c-0.09-0.06-0.19-0.11-0.28-0.17c-1.79,0.63-3.4,0.73-5.21,1.25c-0.58,0.17-1.61,0.33-1.85,0.92    c-1.59-0.05-3.17-0.1-4.76-0.14c-0.98,0.03-1.78,0.59-2.63,0.94c-0.52,0.17-1.03,0.34-1.55,0.5c-0.82-0.05-2.16-0.13-2.88,0.29    c-1-0.01-2.01-0.02-3.01-0.02c-1.34-0.34-2.67-0.68-4.01-1.02c-0.7-0.28-1.39-0.56-2.09-0.85c-1.3-0.26-3.08,0.18-4.01-0.99    c-1.06-0.55-1.35-1.11-2.6-1.15c-0.19-0.43-1.04-0.25-1.73-0.29c-3.32,0-4.92,1.61-7.78,2.88c-0.28,0.07-0.56,0.13-0.84,0.2    c-2.06,0.65-4.34,0.9-6.51,1.39c-1.3,0.72-2.6,1.44-3.89,2.16c-1.59,0.63-3.17,1.25-4.76,1.88c-1.3,0.26-2.61,0.53-3.92,0.79    c-1.09,0.07-2.18,0.14-3.27,0.21c-0.87,0.15-1.75,0.3-2.62,0.45c-0.38-0.01-0.77-0.02-1.15-0.03    C139.17,217.21,137.25,217.89,137.25,217.77z"/>
            <circle cx="177.08" cy="214.92" r="1.586"/>
        </g>
        <g id="__Pazarlar">
            <path d="    M141,320.58c0.32,0.07,0.69-0.36,1.01-0.29c0.41-0.08,0.76-0.29,1.08-0.56c0.34-0.29,0.64-0.65,0.94-1.03    c0.33-0.33,0.33-0.49,0.72-0.87c0.37-0.62,0.78-0.93,1.3-1.44c0.48-0.43,0.96-0.87,1.44-1.3c0.53-0.63,1.06-1.25,1.59-1.87    c0.82-0.71,1.65-1.41,2.47-2.12c0.53-0.32,0.89-0.88,1.42-1.2c0.62-0.6,1.39-0.94,2-1.54c0.1-0.55,1.04-1.13,1.6-1.63    c0.36-0.22,0.79-0.36,1.01-0.72c1.58-0.81,3.38-1.86,5.18-1.68c0.76,0.07,3.74,1.16,4.19,0.68c0.44-0.44,0.64-0.61,0.78-1.32    c0.05-0.36-0.01-0.72,0.23-0.99c-0.13-1.06-0.71-1.88-1.3-2.74c-0.19-0.43-0.38-0.87-0.58-1.3c-1.12-1.45-2.18-2.77-2.84-4.49    c-0.22-0.57-0.83-3.11-0.62-3.59c-0.74-2.17-0.75-4.25-0.82-6.49c-0.05-0.96-0.28-1.35-0.33-2.31c0.04-0.55,0.29-3.38,0-3.75    c0-0.39,0.01-0.71,0-1.3c-0.38-0.92-0.64-1.04-0.86-1.87c-1.06-0.48-0.71,0.1-1.44-0.29c-0.41,0.11-0.89-0.3-1.01-0.43    c-0.24-0.1-0.77-0.63-1.01-0.72c-0.39-0.3-0.69-0.65-1.59-0.87c-0.34-0.34-0.7-0.48-1.3-1.01c-0.56-0.22-0.74-0.79-1.3-1.01    c-0.21-0.41-0.93-1-1.59-1.01c-1.17-1.03-0.93-1.02-2.45-1.59c-0.16-0.42-1.07-0.94-1.01-1.3c-0.62-0.33-0.57-0.87-1.3-0.72    c-0.07-0.1-0.65-0.04-0.72-0.14c-0.07,0.2-0.13,0.4-0.21,0.61c-0.44,0.89-0.12,1.45-0.07,2.13c-0.21,0.85-0.42,1.71-0.63,2.56    c-0.08,0.44-0.16,0.89-0.24,1.33c-0.19,0.43-0.38,0.87-0.58,1.3c-0.14,0.58-0.29,1.15-0.43,1.73c0.19,1.44,0.38,2.88,0.58,4.33    c0.24,1.01,0.48,2.02,0.7,3.02c-0.07,1.06,0.38,2.26,0.64,3.41c0.37,1.09,0.66,1.97,0.57,3.15c0.14,1.02,0.27,2.04,0.41,3.05    c1.08,1.5,0.21,3.45-0.29,4.95c-0.27,0.29-0.54,0.59-0.81,0.88c-0.22,1.01-1.2,1.77-1.93,2.43c-0.51,0-3.52,1.12-3.75,1.44    c-0.82,0.2-1.56,0.07-2.48,0.67c-0.24,0.26-0.31,0.25-0.72,0.71c-1.19,1.06-0.89,4-0.58,6.12c0.05,0.33-0.06,1,0.17,0.87    c-0.2,0.21,0.25,0.86,0.29,1.15c0.25,1.52,0.68,1.91,1.3,3.32c0.53,1.21,0.77,2.41,1.59,3.46c0.22,0.61,0.36,1.56,0.58,2.16    C140.11,320.66,140.88,320.49,141,320.58z"/>
            <circle cx="154.4" cy="284.16" r="1.586"/>
        </g>
        <g id="__Emet">
            <path d="    M221.74,231.63c0-1.04-0.37-2.09-0.72-3.05c-0.17-0.76-0.34-1.52-0.5-2.28c-0.64-1.7-1.28-3.4-1.92-5.1    c-0.11-0.47-0.21-0.95-0.32-1.42c-0.37-1.02-0.74-2.03-1.1-3.05c-0.26-0.57-0.51-1.14-0.77-1.71c-0.87-0.67-1.73-1.35-2.6-2.02    c-0.19-0.29-0.38-0.58-0.58-0.87c-0.05-0.82-0.1-1.63-0.14-2.45c-0.63-0.92-1.02-1.71-2.17-1.71c-0.09-0.06-0.19-0.11-0.28-0.17    c-1.79,0.63-3.4,0.73-5.21,1.25c-0.58,0.17-1.61,0.33-1.85,0.92c-1.59-0.05-3.17-0.1-4.76-0.14c-0.98,0.03-1.78,0.59-2.63,0.94    c-0.52,0.17-1.03,0.34-1.55,0.5c-0.82-0.05-2.16-0.13-2.88,0.29c-1-0.01-2.01-0.02-3.01-0.02c-1.34-0.34-2.67-0.68-4.01-1.02    c-0.7-0.28-1.39-0.56-2.09-0.85c-1.3-0.26-3.08,0.18-4.01-0.99c-1.06-0.55-1.35-1.11-2.6-1.15c-0.19-0.43-1.04-0.25-1.73-0.29    c-3.32,0-4.92,1.61-7.78,2.88c-0.28,0.07-0.56,0.13-0.84,0.2c-2.06,0.65-4.34,0.9-6.51,1.39c-1.3,0.72-2.6,1.44-3.89,2.16    c-1.59,0.63-3.17,1.25-4.76,1.88c-1.3,0.26-2.61,0.53-3.92,0.79c-1.09,0.07-2.18,0.14-3.27,0.21c-0.87,0.15-1.75,0.3-2.62,0.45    c-0.38-0.01-0.77-0.02-1.15-0.03c-0.39,0.04-2.31,0.72-2.31,0.61c-0.67-3.02-0.28-6.88-0.72-10.09c-0.28-1.13-0.55-2.27-0.83-3.41    c-0.16-0.31-0.31-0.61-0.47-0.92c-0.05-1.52-0.33-2.96-0.46-4.49c-0.02-0.85-0.04-1.71-0.05-2.56c0.19-0.78,0.39-1.56,0.58-2.34    c0.34-2.58,0.53-4.74,1.82-7.12c1.29-2.37,3.51-3.93,5.38-5.79c1.38-1.72,2.77-3.45,4.15-5.17c1-1.99,2-3.99,3.01-5.98    c0.28-1.06,0.56-2.13,0.84-3.19c0.51-0.71,1.06-1.2,1.69-1.78c0.17-0.16,0.45-0.42,0.64-0.36c0.81,0.17,1.59,0.1,2.4,0.27    c2.16,0.82,4.15,2.15,6.56,1.89c0.22-0.01,0.45-0.03,0.67-0.04c1.99-0.74,2.57-2.73,3.18-4.56c0.17-0.46,0.35-0.92,0.52-1.38    c1.17-1.27,2.83-1.83,3.97-3.1c0.38-0.29,0.77-0.58,1.15-0.86c0.84-0.42,2.13-0.69,2.74-1.44c1.15-0.1,2.31-0.19,3.46-0.29    c0.37-0.22,1.48-0.87,1.87-0.58c1.62-0.67,3.34-0.95,4.9-1.73c1.08-0.27,2.17-0.53,3.25-0.8c0.41-0.5,0.81-1.01,1.22-1.51    c0.19-1.01,0.38-2.02,0.58-3.03c0.15-0.34,0.31-0.69,0.46-1.04c0.12-0.79,0.34-2.87,0.93-3.37c0.59-0.47,1.12-1.07,1.85-1.33    c0.27-0.09,0.8-0.36,0.8,0.11c0.53,0.67,1.06,1.35,1.59,2.02c0.24,0.96,0.48,1.92,0.72,2.88c0.42,2.11,0.21,3.46,1.87,5.19    c1.24,1.29,2.89,2.13,4.33,3.17c1.16,0.89,2.32,1.79,3.48,2.69c0.33,0.35,0.66,0.71,0.99,1.06c0.29,0.14,0.58,0.29,0.87,0.43    c1.11,1.06,2.21,2.11,3.32,3.17c0.48,0.34,0.96,0.67,1.44,1.01c1.49,0.58,2.98,1.15,4.47,1.73c0.77,0.91,1.54,1.83,2.31,2.74    c0.38,1.01,0.76,2.02,1.14,3.03c0.39,1.15,0.79,2.29,1.18,3.44c0.62,1.11,1.24,2.22,1.86,3.33c0.24,0.48,0.49,0.95,0.73,1.43    c0.61,1.07,1.01,2.25,2.01,3.04c0.53,0.24,1.06,0.48,1.59,0.72c0.72,0.47,1.43,0.93,2.15,1.4c1.25,0.53,2.42,0.74,3.76,0.91    c0.43,0.05,0.87,0.09,1.3,0.14c0.48,0.48,2.69,0.43,3.46,0.58c3.62,0.7,7.49,0.56,11.24,0.62c1.62-0.1,3.24-0.21,4.86-0.31    c0.27-0.22,0.56-0.18,0.9-0.19c0.56-0.02,0.91-0.89,1.46-0.54c2.21-0.07,4.4-0.98,6.52-1.8c0.41-0.16,1.99-0.91,1.99-0.08    c0.1,1.49,0.19,2.98,0.29,4.47c-0.12,0.48-0.24,0.97-0.36,1.45c-0.07,0.77-0.14,1.53-0.21,2.3c-0.24,1.48-0.98,3.07-1.73,4.33    c-0.12,0.43-0.23,0.85-0.35,1.28c-0.46,1.06-0.92,2.13-1.38,3.19c0,0.69-0.76,1.61-1.12,2.18c-0.48,0.68-0.95,1.35-1.43,2.03    c-0.7,0.64-1.41,1.28-2.11,1.92c-0.4,0.56-0.83,1.06-1.54,1.37c0,0.38-0.91,0.82-1.22,1c-0.95,0.51-1.9,1.02-2.84,1.53    c-0.44,0.3-1.03,0.94-1.56,0.94c-0.53,0.67-1.06,1.35-1.59,2.02c-0.58,0.53-1.15,1.06-1.73,1.59c-0.19,1.42-1.24,1.24-1.27,2.42    c-0.26,1.11-0.9,2.27-1.76,3.06c-0.68,0.37-1.36,0.75-2.04,1.12c-0.59,0.39-1.17,0.78-1.76,1.18c-0.99,0.29-1.99,0.58-2.98,0.87    c-0.82,0.24-1.63,0.48-2.45,0.72c-0.82,0.43-3.4,2.31-4.04,2.31c-0.83,0.83-1.61,1.47-2.76,1.83c-0.56,0.4-1.11,0.81-1.67,1.21    c-0.74,0.43-1.47,0.85-2.21,1.28C222.8,231.3,221.74,232.32,221.74,231.63z"/>
            <circle cx="182.49" cy="190.44" r="1.586"/>
        </g>
        <g id="__Şaphane">
            <path d="    M143.09,319.73c0.34-0.29,0.64-0.65,0.94-1.03c0.33-0.33,0.33-0.49,0.72-0.87c0.37-0.62,0.78-0.93,1.3-1.44    c0.48-0.43,0.96-0.87,1.44-1.3c0.53-0.63,1.06-1.25,1.59-1.87c0.82-0.71,1.65-1.41,2.47-2.12c0.53-0.32,0.89-0.88,1.42-1.2    c0.62-0.6,1.39-0.94,2-1.54c0.1-0.55,1.04-1.13,1.6-1.63c0.36-0.22,0.79-0.36,1.01-0.72c1.58-0.81,3.38-1.86,5.18-1.68    c0.76,0.07,3.74,1.16,4.19,0.68c0.44-0.44,0.64-0.61,0.78-1.32c0.05-0.36-0.01-0.72,0.23-0.99c-0.13-1.06-0.71-1.88-1.3-2.74    c-0.19-0.43-0.38-0.87-0.58-1.3c-1.12-1.45-2.18-2.77-2.84-4.49c-0.22-0.57-0.83-3.11-0.62-3.59c-0.74-2.17-0.75-4.25-0.82-6.49    c-0.05-0.96-0.28-1.35-0.33-2.31c0.04-0.55,0.29-3.38,0-3.75c0-0.39,0.01-0.71,0-1.3c-0.38-0.92-0.64-1.04-0.86-1.87    c0,0,0.77-0.86,1.01-1.15c0.63-0.76,1.25-1.23,2.16-1.73c0.05-0.56,1.28-1.74,1.73-2.16c0.27-0.92,1.79-1.84,2.39-2.6    c1.99-2.54,3.98-5.09,5.97-7.63c0.19-0.43,0.38-0.87,0.58-1.3c0.1-1.3,0.19-2.6,0.29-3.89c0.13-0.48,0.26-0.97,0.4-1.45    c0.05-0.21,0.62,0.08,1.07,0.21c1.05,0.15,2.11,0.31,3.16,0.46c0.92,0.11,1.74,0.4,2.6,0.71c1.29,0.4,2.59,0.81,3.88,1.21    c0.53,0.34,1.05,0.68,1.58,1.02c0.43,0.24,0.86,0.48,1.3,0.72c0.74,0.48,1.38,1.31,1.87,2.02c0.24,0.19,0.48,0.38,0.72,0.58    c1.45,2.27,0.76,5.39,1.15,7.93c-0.12,0.88-0.25,1.75-0.37,2.62c-1.09,5.29-1.97,10.8-3.91,15.94c-0.71,1.21-1.42,2.41-2.12,3.61    c-0.63,1.54-1.25,3.08-1.88,4.62c-0.46,0.92-0.92,1.84-1.38,2.76c-0.48,0.12-0.78,0.69-1.15,1.01c-1.35,1.39-2.69,2.79-4.04,4.18    c-0.82,0.62-1.63,1.25-2.45,1.87c-1.2,1.15-2.4,2.31-3.6,3.46c-0.95,0.61-1.77,1.39-2.45,2.31c-0.82,1.1-0.39,2.36-0.72,3.46    c-0.34,0.91-0.67,1.83-1.01,2.74c-0.9,1.5-1.66,3.06-2.88,4.33c-0.1,0.38-0.19,0.77-0.29,1.15c-0.6,0.6-1.27,1.38-1.59,2.16    c-0.1,0.14-0.19,0.29-0.29,0.43c-1.83-0.34-3.65-0.67-5.48-1.01c-0.76-0.72-1.12-1.65-1.73-2.45c-0.69-0.91-3.76-2.44-4.9-2.74    c-0.38,0.1-0.77,0.19-1.15,0.29c-1.67-0.44-4.18,1.15-5.77,1.15L143.09,319.73z"/>
            <circle cx="174.83" cy="276.05" r="1.586"/>
        </g>
        <g id="__Dumlupınar">
            <path d="    M382.22,297.8c-0.96,0-2.81,0.08-3.6-0.43c-1.15,0.1-2.31,0.19-3.46,0.29c-0.65,0.05-1.58-0.39-2.16,0    c-0.87-0.19-1.73-0.38-2.6-0.58c-0.43,0-0.87,0-1.3,0c-1.61,0.16-3.23,0.32-4.84,0.48c-0.8-0.06-1.89-0.07-1.5,0.67    c-2.44,2.59-2.14,6.43-3.76,9.37c0.03,0.56-1.27,3.01-1.62,3.26c-0.47,0.26-0.93,0.52-1.4,0.78c-0.53,0.03-2.14,0.22-2.45,0.58    c-0.63,0.05-1.25,0.1-1.87,0.14c-0.34-0.24-1.11-0.33-1.44-0.58c-0.48-0.02-2.07-0.57-2.22-1.11c-0.33-0.93-0.73-1.11-0.84-2.22    c-0.2-2.03,0.09-4.18-0.84-6.04c-0.19-0.72-0.38-1.44-0.58-2.16c0.05-1.69,0.28-3.98,1.01-5.48c0.1-0.34,0.19-0.67,0.29-1.01    c-0.13-0.6-0.1-1.61-0.58-2.02c0.05-1.78-0.12-3.56-0.36-5.31c-0.17-0.49-0.34-0.98-0.5-1.46c-0.05-0.34-0.1-0.67-0.14-1.01    c-0.22-0.98-1.5-2.45-2.07-3.28c-0.46-0.67-1.08-1.16-1.86-1.41c-0.09-0.07-0.17-0.15-0.26-0.22c-2.4,0-2.66,0.44-4.6,1.76    c-0.69,0.38-1.37,0.75-2.06,1.13c-0.57,0.77-1.14,1.54-1.7,2.31c-0.63,0.96-1.25,1.92-1.88,2.88c-0.44,1.23-0.89,2.46-1.33,3.69    c-0.23,0.64-0.46,1.29-0.69,1.93c-0.03,0.86-0.11,2.37,0,3.17c0.07,0.43,0.16,1.11-0.29,1.3c-0.2,0.09-0.81,0.2-1.01,0.29    c0.01,0.04-3.57-0.14-5.48-0.43c-0.58-0.28-1.15-0.57-1.73-0.85c-0.58-0.1-1.16-0.2-1.73-0.3c-1.32-0.97-2.37-1.06-3.75-1.73    c-0.57-0.34-1.15-0.68-1.73-1.01c-1.2-0.21-2.39-0.42-3.59-0.64c-1.17-0.25-2.54-0.71-3.75-0.56c-0.95,0.12-1.82,0.15-2.75,0.48    c-0.99,0.35-1.86,0.9-2.88,1.14c-0.33,0.08-1.75,0.18-1.73,0.3c0.71,0.92,1.38,2.13,2.09,3.05c0.91,1.4,1.7,2.93,2.23,4.45    c0.65,0.32,1.62,2.17,1.83,2.97c0.23,0.89,1.67,3.28,1.77,3.66c1.4,0.18,3.07,0.54,4.47,0.72c0.38,0,0.77,0,1.15,0    c0.95-0.03,1.99,0.21,2.88,0.43c0.43,0.21,0.87,0.43,1.3,0.64c1.3,0.51,2.59,1.01,3.89,1.52c0.45,0.13,0.66,0.51,1.15,0.43    c0.96,1.2,1.92,2.4,2.88,3.6c0.77,1.44,1.54,2.88,2.31,4.33c0.87,1.03,1.82,2.5,2.45,4.18c0.69,0.56,1.8,1.29,2.31,2.02    c0.14,0.14,0.58,0.29,0.72,0.43c0.58,0.34,1.11,0.6,1.59,1.01c0.84,0.72,1.77,1,2.73,1.47c1.83,0.71,3.66,1.42,5.48,2.13    c0.77,0.19,1.54,0.38,2.31,0.58c0.53-0.1,1.06-0.19,1.59-0.29c0.34,0.05,0.67,0.1,1.01,0.14c0.44,0.21,0.87,0.43,1.31,0.64    c0.67,0.12,1.34,0.24,2,0.37c0.96-0.19,1.92-0.38,2.88-0.58c1.37-0.35,3.66-1.69,4.61-2.59c1.59-2.31,3.17-4.61,4.76-6.92    c0.34-1.49,0.67-2.98,1.01-4.47c0.43-1.01,0.86-2.02,1.3-3.03c1.12-1.42,2.83-2.34,4.46-3.03c0.15-0.1,0.3-0.19,0.45-0.29    c1.01-0.14,2.02-0.29,3.03-0.43c0.7-0.51,2.84-2.13,3.6-2.16c0.91-0.96,1.83-1.92,2.74-2.88c0.43-0.72,0.86-1.44,1.3-2.16    c0.26-0.63,0.52-1.27,0.78-1.9c0.18-0.33,0.36-0.65,0.55-0.98c0.23-0.77,0.47-1.55,0.7-2.32    C382.24,298.4,382.39,297.8,382.22,297.8z"/>
            <circle cx="335.09" cy="322.31" r="1.586"/>
        </g>
        <g id="__Gediz">
            <path d="    M298.59,293.9l-0.5-0.63c-0.53-0.89-1.05-1.78-1.58-2.67c-0.79-1.73-1.51-2.42-2.25-3.48c-0.29-0.87-0.58-1.73-0.87-2.59    c-0.58-1.67-0.74-2.82-0.29-4.61l-0.14-0.87c-0.22-0.22-0.29-0.41-0.29-0.72c-0.59-1.08-1.31-1.77-2.05-2.39    c-0.84-1.37-1.59-2.92-3.52-4.06c-1.91-1.12-3.35-1.09-5.08-1.41c-0.63-0.22-1.26-0.44-1.89-0.65c-0.84-0.47-1.68-0.93-2.52-1.4    c-0.36-0.25-0.72-0.51-1.08-0.76c-0.79-0.49-1.27-1.21-1.51-2.13c-0.62-1.35-0.87-3.16-0.51-4.79c0.24-0.43,0.19-1.01,0.43-1.44    c0.38-0.58,0.77-1.01,1.15-1.59c0.63-0.84,1.6-1.71,2.02-2.16c0.73-0.79,1.65-1.61,2.02-2.59c-0.14,0.05-0.58-0.05-0.72,0    c-1.69,0.23-3.37,0.46-5.06,0.68c-0.72,0.01-1.43,0.02-2.15,0.04c-0.93,0.55-1.91,0.59-2.86,0.37c-2.17-0.37-4.34-0.73-6.52-1.09    c-0.52-0.18-2.31-0.71-2.74-0.43c-1.15-0.54-2.48-0.88-3.75-0.94c-2.72-0.13-5.51-0.53-8.19-1.15c-0.7-0.16-2.44-0.45-2.91-0.94    c-1.11-0.18-2.21-0.35-3.32-0.53c-0.79-0.29-1.63,0.29-2.3,0.68c-1.1-0.24-2.07-0.91-3.17-1.15c-1.52-0.61-2.77-1.76-3.89-2.88    c-0.34-0.28-0.69-0.56-1.03-0.84c-0.67-0.68-1.33-1.36-2-2.04c-0.42-0.6-0.84-1.2-1.27-1.79c-0.6-0.64-1.2-1.28-1.79-1.91    c-0.48-0.76-0.97-1.53-1.45-2.29c-0.37-0.43-1.84-2.03-2.27-2.46c-0.29-0.91-0.58-1.34-0.87-2.21c-0.4,0.09-0.84-0.33-1.3-0.19    c-0.96-0.2-1.92,0.09-2.88,0.34c-0.55,0.25-1.09,0.51-1.64,0.76c-1.24,0.44-2.48,0.89-3.72,1.33c-1.58,0.31-3.16,0.62-4.74,0.93    c-0.54,0.26-1.08,0.52-1.62,0.78c-1.08,0.35-2.17,0.7-3.25,1.05c-0.59,0.25-1.17,0.5-1.76,0.76c-1.38,0.79-2.76,1.58-4.15,2.37    c-2.74,1.42-5.55,2.41-8.77,3.99c-0.57,0.23-0.71,0.02-1.21,0.13c-0.68,0.25-1.36,0.5-2.05,0.76c-1.33,0.26-2.67,0.68-4,0.77    c-0.39,0-1.17,0.5-1.46,0.49c-0.27-0.1-1.39-0.49-1.44-0.29c-0.35,1.6-0.78,2.11-1.59,3.6c-0.19,0.21-0.76,1.02-1.01,1.44    c0.02,0.26-0.16,1.33-0.14,1.59l-0.04,0.28c0.05-0.21,0.62,0.08,1.07,0.21c1.05,0.15,2.11,0.31,3.16,0.46    c0.92,0.11,1.74,0.4,2.6,0.71c1.29,0.4,2.59,0.81,3.88,1.21c0.53,0.34,1.05,0.68,1.58,1.02c0.43,0.24,0.86,0.48,1.3,0.72    c0.74,0.48,1.38,1.31,1.87,2.02c0.24,0.19,0.48,0.38,0.72,0.58c1.45,2.27,0.76,5.39,1.15,7.93c-0.12,0.88-0.25,1.75-0.37,2.62    c-1.09,5.29-1.97,10.8-3.91,15.94c-0.71,1.21-1.42,2.41-2.12,3.61c-0.63,1.54-1.25,3.08-1.88,4.62c-0.46,0.92-0.92,1.84-1.38,2.76    c-0.48,0.12-0.78,0.69-1.15,1.01c-1.35,1.39-2.69,2.79-4.04,4.18c-0.82,0.62-1.63,1.25-2.45,1.87c-1.2,1.15-2.4,2.31-3.6,3.46    c-0.95,0.61-1.77,1.39-2.45,2.31c-0.82,1.1-0.39,2.36-0.72,3.46c-0.34,0.91-0.67,1.83-1.01,2.74c-0.9,1.5-1.66,3.06-2.88,4.33    c-0.1,0.38-0.19,0.77-0.29,1.15c-0.6,0.6-1.27,1.38-1.59,2.16c-0.1,0.14-0.19,0.29-0.29,0.43h-0.14c0.05,0,1.15,0.1,1.44,0.14    c1.07-0.33,1.73-0.66,3.45-0.58c0.57,0.34,1.65,1.27,2.32,1.01c0.89,0.79,1.79,1.57,2.68,2.36c0.4,0.33,0.83,0.97,1.07,1.39    c0.84,1.02,1.32,1.41,2.16,2.02c1.4,0.68,2.81,1.35,4.21,2.03c0.38,0.15,0.7,0.69,0.69,0.71c0.3,0.67,0.39,0.75,1.02,1.16    c0.86,0.56,1.77,1.24,2.78,1.5c2.21,0.55,4.69-0.38,6.69-1.17c0.88-0.3,1.75-0.61,2.63-0.91c1.18-0.38,4.16-2.81,5.05-3.75    c0.79-1.18,1.57-2.37,2.36-3.55c2.13-3.05,4.67-6.42,7.84-8.45c2.3-1.47,4.8-1.79,7.39-2.42c0.72-0.1,1.44-0.19,2.16-0.29    c1.1-0.01,2.21-0.03,3.31-0.04c1.54-0.27,3.08-0.55,4.62-0.82c0.53-0.19,1.06-0.38,1.59-0.58c0.53-0.33,1.11-0.57,1.73-0.87    c0.46-0.15,1.28-0.34,1.73-0.58c0.94-0.37,1.51-0.59,3.03-1.15c0.97-0.33,1.94-0.66,2.91-0.98c1.43-0.58,2.86-1.17,4.29-1.75    c1.02-0.43,2.03-0.86,3.05-1.28c1.78-0.58,3.55-1.17,5.33-1.75c4.99-0.54,9.98-1.07,14.96-1.61c2.8-0.33,5.6-0.66,8.39-0.99    c3.54-0.17,7.13,0.01,10.65,0.37c1.98,0.21,4.36-0.1,5.93,0.78c1.5,0.84,3.21,0.85,4.61,1.15c0.34-0.19,1.11,0.48,1.44,0.29    c0.87,0.19,0.58,0.24,1.44,0.43c-0.06,0.05,1.21,0.24,1.15,0.29c-0.35,0.29,0.94,0.13,1.3,0.43c1.27,0.24,3.15,0.65,4.75,0.95    c0.36,0.07,1.86,0.15,2.02,0.06h0.14c-0.1-0.38-1.54-2.77-1.77-3.66c-0.21-0.81-1.19-2.65-1.83-2.97    c-0.53-1.52-1.32-3.05-2.23-4.45C299.98,296.03,299.3,294.82,298.59,293.9z"/>
            <circle cx="211.47" cy="284.91" r="1.586"/>
        </g>
        <g id="__Altıntaş">
            <path d="    M382.22,297.8c-0.96,0-2.81,0.08-3.6-0.43c-1.15,0.1-2.31,0.19-3.46,0.29c-0.65,0.05-1.58-0.39-2.16,0    c-0.87-0.19-1.73-0.38-2.6-0.58c-0.43,0-0.87,0-1.3,0c-1.61,0.16-3.23,0.32-4.84,0.48c-0.8-0.06-1.89-0.07-1.5,0.67    c-2.44,2.59-2.14,6.43-3.76,9.37c0.03,0.56-1.27,3.01-1.62,3.26c-0.47,0.26-0.93,0.52-1.4,0.78c-0.53,0.03-2.14,0.22-2.45,0.58    c-0.63,0.05-1.25,0.1-1.87,0.14c-0.34-0.24-1.11-0.33-1.44-0.58c-0.48-0.02-2.07-0.57-2.22-1.11c-0.33-0.93-0.73-1.11-0.84-2.22    c-0.2-2.03,0.09-4.18-0.84-6.04c-0.19-0.72-0.38-1.44-0.58-2.16c0.05-1.69,0.28-3.98,1.01-5.48c0.1-0.34,0.19-0.67,0.29-1.01    c-0.13-0.6-0.1-1.61-0.58-2.02c0.05-1.78-0.12-3.56-0.36-5.31c-0.17-0.49-0.34-0.98-0.5-1.46c-0.05-0.34-0.1-0.67-0.14-1.01    c-0.22-0.98-1.5-2.45-2.07-3.28c-0.46-0.67-1.08-1.16-1.86-1.41c-0.09-0.07-0.17-0.15-0.26-0.22c-2.4,0-2.66,0.44-4.6,1.76    c-0.69,0.38-1.37,0.75-2.06,1.13c-0.57,0.77-1.14,1.54-1.7,2.31c-0.63,0.96-1.25,1.92-1.88,2.88c-0.44,1.23-0.89,2.46-1.33,3.69    c-0.23,0.64-0.46,1.29-0.69,1.93c-0.03,0.86-0.11,2.37,0,3.17c0.07,0.43,0.16,1.11-0.29,1.3c-0.2,0.09-0.81,0.2-1.01,0.29    c0.01,0.04-3.57-0.14-5.48-0.43c-0.58-0.28-1.15-0.57-1.73-0.85c-0.58-0.1-1.16-0.2-1.73-0.3c-1.32-0.97-2.37-1.06-3.75-1.73    c-0.57-0.34-1.15-0.68-1.73-1.01c-1.2-0.21-2.39-0.42-3.59-0.64c-1.17-0.25-2.54-0.71-3.75-0.56c-0.95,0.12-1.82,0.15-2.75,0.48    c-0.99,0.35-1.86,0.9-2.88,1.14c-0.33,0.08-1.75,0.18-1.73,0.3l-0.5-0.63c-0.53-0.89-1.05-1.78-1.58-2.67    c-0.79-1.73-1.51-2.42-2.25-3.48c-0.29-0.87-0.58-1.73-0.87-2.59c-0.58-1.67-0.74-2.82-0.29-4.61c0.24-1.44,0.48-2.88,0.72-4.33    c0.34-0.63,0.67-1.25,1.01-1.88c0.99-1.23,1.98-2.46,2.96-3.69c0.7-0.65,1.5-1.1,2.37-1.5c0.34-0.14,0.67-0.29,1.01-0.43    c0.82-0.36,1.64-0.71,2.46-1.07c0.72-0.03,1.44-0.06,2.16-0.08c0.76-0.23,1.52-0.46,2.28-0.69c0.95-0.33,2.18-2.82,2.34-3.78    c0.1-0.61,0.07-1.31,0.43-1.87c0.82-1.28,1.23-2.74,2.02-4.04c0.87-1.11,1.73-2.21,2.6-3.32c0.69-0.9,1.39-1.79,2.08-2.69    c1.11-1.3,2.35-2.44,3.4-3.8c2.18-1.71,4.37-3.43,6.55-5.15c0.36-0.16,0.73-0.32,1.09-0.48c2.36-1.82,5.11-3.3,7.93-4.18    c0.71-0.65,1.41-1.3,2.12-1.95c1.75-1.48,3.92-3.16,6.1-3.67c0.22-0.68,1.33-0.79,1.87-0.87c0.14-0.6,0.57-0.96,1.11-1.22    c0.69-0.22,1.38-0.44,2.06-0.66c0.78-0.73,2.29-0.98,3.32-1.01c0.26-0.35,2.41-0.84,2.88-0.84c1.2-0.25,2.4-0.5,3.6-0.75    c0.58,0,1.15,0,1.73,0c0.77,0.1,1.54,0.19,2.31,0.29c0.86-0.06,1.72-0.12,2.59-0.18c0.5,0.02,0.96,0.39,1.45,0.61    c0.65-0.1,2.41,0.29,3.03,0.58c2.02,1.01,4.04,2.02,6.06,3.03c0.87,0.67,1.73,1.35,2.6,2.02c0.91,0.53,1.83,1.06,2.74,1.59    c0.24,0.19,0.48,0.38,0.72,0.58c1.49,0.79,2.99,1.63,4.13,2.93c1.1,1.25,1.82,2.64,2.62,4.09c0.3,0.45,0.59,0.9,0.89,1.35    c0.4,0.91,0.8,1.81,1.2,2.72c1,1.83,1.95,3.63,3.12,5.36c-0.04,0.1-0.08,0.2-0.12,0.3c0.32,1.11-0.87,3.1-1.28,4.14    c-0.42,1.05-1.21,2.5-1.66,3.25c-0.29,0.72-0.66,2.5-0.69,2.98c-0.19,0.53-0.38,1.06-0.58,1.59c-0.48,1.25-0.96,2.5-1.44,3.75    c-0.14,0.34-0.29,0.67-0.43,1.01c0.03,0.28,0.05,0.56,0.08,0.84c0.17,0.44,0.33,0.88,0.5,1.33c0.49,0.86,0.45,1.7,1.21,2.33    c0.09,0.63,0.9,1.71,0.81,2.14c0.32,0.2,1.13,1.75,1.2,2.12c0.66,0.75,1.04,1.63,1.54,2.49c-0.37,0.36-0.09,1.65,0,2.16    c0.29,1.66,0.17,3.39,0.01,5.05c0,0-1.28,0.93-1.33,0.97c-1.77,0.49-3.54,0.99-5.31,1.48c-1.74,1.1-2.61,3.5-3.34,5.34    c-0.33,0.96-0.66,1.63-0.99,2.59c-0.19,0.16-0.39,0.99-0.58,1.15L382.22,297.8z"/>
            <circle cx="361.82" cy="266.13" r="1.586"/>
        </g>
        <g id="__Domaniç">
            <path d="    M217.68,76.77c0.19,0.23,0.39,0.47,0.58,0.7c-0.04,0.35-0.21,0.6,0.02,0.88c-0.05,0.04-0.11,0.08-0.16,0.13    c-1.67,1.39-4.06,0.51-6.06,1.28c-0.39,0.15-1.85,0.9-1.87,1.18c-0.02,0.71-0.05,1.42-0.07,2.13c0.36,0.45,0.73,0.89,1.09,1.34    c0.25,0.08,0.49,0.16,0.73,0.23c0.76,0.08,1.51,0.16,2.27,0.24c0.43-0.01,0.86-0.02,1.28-0.03c1.14,0.21,1.91,0.86,2.83,1.48    c0.32,0.18,0.63,0.35,0.95,0.53c0.89,0.11,3.76,0.16,4.33,0.72c0.92,0,3.17,0.77,4,1.2c0.37,0.21,0.74,0.42,1.11,0.63    c0.22,0.35,0.44,0.7,0.66,1.05c0.1,0.29,0.19,0.58,0.29,0.86c0.03,0.27,0.06,0.53,0.09,0.8c0.27,0.95,0.8,1.86,1.35,2.66    c1.15,1.01,2.31,2.02,3.46,3.03c0.67,0.11,2.78,0.2,3.17,0.58c0.96-0.07,1.91-0.14,2.87-0.21c1.15-0.13,2.16-0.37,3.33-0.37    c0.19-0.1,0.38-0.19,0.56-0.29c1.01-0.29,2.03-0.57,3.04-0.86c1.63-0.05,3.27-0.1,4.9-0.14c1.21-0.12,2.45-0.54,3.46-1.15    c0.96-0.05,1.92-0.1,2.88-0.14c0-0.27,0.62-0.23,0.87-0.25c0.96-0.01,1.92-0.03,2.88-0.04c0.29-0.1,0.58-0.19,0.87-0.29    c0.58-0.29,1.15-0.58,1.73-0.87c0.81-0.55,1.65-1.25,2.02-2.16c0.54-0.35,1.08-0.7,1.62-1.05c0.95-0.23,1.9-0.45,2.85-0.68    c0.29,0,0.58,0,0.87,0c0.58-0.14,1.15-0.29,1.73-0.43c1.92,0.29,3.85,0.58,5.77,0.87c0.7,0.7,3.06,0.95,4.03,1.04    c0.47,0.01,0.94,0.03,1.41,0.04c1.38-0.84,1.92-2.32,3.21-3.1c0.24-0.14,0.48-0.29,0.72-0.43c0.34-0.12,1.13-0.12,1.3-0.29    c0.19-0.19,0.38-0.38,0.58-0.58c0-0.29-0.38-1.3,0-1.3c-0.44,0-1.73-1.5-2.16-1.87c-0.43-0.31-0.85-0.61-1.28-0.92    c-1.52-0.63-2.96-1.99-4.06-3.26c-0.14-0.24-0.29-0.48-0.43-0.72c-0.24-1.35-0.48-2.69-0.72-4.04c0.05-0.87,0.1-1.73,0.14-2.6    c0.1-0.34,0.19-0.67,0.29-1.01c0.58-1.2,1.15-2.4,1.73-3.6c0.53-0.91,1.06-1.83,1.59-2.74c0.15-0.91,0.3-1.83,0.46-2.74    c0.12-0.66,0.36-1.16,0.27-1.87c-0.16-0.73-0.32-1.46-0.47-2.19c-0.06-0.42-0.11-0.84-0.17-1.25c-0.17-0.63-0.34-1.26-0.51-1.9    c-0.19-0.34-0.38-0.67-0.58-1.01c-0.17-0.81-0.4-1.84-1.01-2.45c-0.05-0.34-0.1-0.67-0.14-1.01c-0.1-0.05-0.19-0.1-0.29-0.14    c-0.35,0.35-0.66,0-1.01,0c-1.04,0-2-0.21-3.02-0.36c-0.69-0.1-2.67,0.01-3.33,0.22c-2.85-0.68-4.36-2.57-6.43-4.4    c-0.85-0.75-1.06-0.63-1.36-1.65c-0.34-0.19-0.67-1.11-1.01-1.3c-0.34-0.24-0.86-1.16-1.3-0.72c-0.81,0-1.79,1.5-2.16,2.16    c-0.43,0.34-0.87,0.67-1.3,1.01c-1.44,0.62-2.88,1.25-4.33,1.87c-0.38,0.19-0.77,0.38-1.15,0.58c-0.58,0.42-1.61,0.48-2.31,0.54    c-1.81,0.14-3.67,0.53-5.48,0.44c-4.13-0.19-8.63-1.81-12.56-3.1c-2.03-0.67-5.09-1.25-6.76-2.49c-0.54-0.22-1.08-0.44-1.61-0.66    c-1.8-0.65-3.28-1-5.13-0.29c-0.6,0.23-1.33,0.44-1.71,0.97c-1.06,1.51-1.52,4.98-1.5,6.9c0.02,1.49,0.2,2.85-0.14,4.33    c-0.24,1.04-0.87,2.86-1.44,3.75c-0.42,0.53-0.85,1.07-1.27,1.6c-0.34,0.48-0.68,0.96-1.02,1.45c-0.68,0.57-1.36,1.14-2.04,1.71    c-0.63,0.33-1.1,0.97-1.73,1.3c-1.1,0.94-2.35,1.56-3.45,2.5c-1.49,1.19-2.99,2.37-4.48,3.56c-0.27,0.26-0.87,0.99-1.15,1.15    c0.14,0.94,1.01,2.45,1.44,2.45c0.87,0.76,1.71,1.87,2.81,2.33c1.44,0.6,2.96,0.03,4.4-0.13c0.77,0.03,1.54,0.07,2.3,0.1    C215.48,76.16,217.15,76.08,217.68,76.77z"/>
            <circle cx="258.41" cy="65.4" r="1.586"/>
        </g>
        <g id="__Tavşanlı">
            <path d="    M289.08,172.06c-0.09-0.56,0.9-1.24,1.3-1.59c0.29-0.63,0.58-1.25,0.87-1.87c0.24-1.15,0.48-2.31,0.72-3.46    c-0.05-0.38-0.1-0.77-0.14-1.15c-0.46-1.32-1.24-2.67-2.45-3.46c-2.08-1.36-4.78-1.75-6.64-3.47c-0.72-0.66-1.11-1.54-1.6-2.47    c-0.03-1.58,0.47-2.25,0.74-3.29c-0.13-0.76-0.24-1.52,0-2.16c0.14-0.67,0.29-1.35,0.43-2.02c-0.05-0.48-0.1-0.96-0.14-1.44    c0.14-0.58,0.29-1.15,0.43-1.73c-0.19-0.23-0.12-0.56-0.14-0.87c0.27-0.25,0.31-0.9,0.29-1.3c0.05-0.77,0.1-1.54,0.14-2.31    c-0.64-0.31-0.52-2.16-0.44-2.87c0.29-0.97,0.58-1.93,0.87-2.9c0-1.3,0.75-2.74,1.3-3.89c-0.17-1.7,0.33-3.52,0.42-5.19    c0.13-2.5-0.45-4.74,1.19-6.82c0.19-0.41,0.37-0.83,0.55-1.25c1.86-2.99,5.44-5.71,9.8-6.78c0.22-0.45,0.96-0.76,1.39-1.02    c0.87-0.79,1.83-1.48,3.1-1.81c0.24-0.1,0.81-1.55,0.8-1.84c0.06-0.56,0.13-1.12,0.19-1.68c-0.21-1.72-1-3.1-2.02-4.46    c-1.45-1.94-1.14-7.17-1.44-7.94c-0.2-0.52-1.18-0.56-1.82-1.1c-0.98-0.64-1.96-1.28-2.94-1.92c-0.67-0.72-1.99-1.83-2.74-2.31    h0.14c-0.38,0,0,1.01,0,1.3c-0.19,0.19-0.38,0.38-0.58,0.58c-0.17,0.17-0.96,0.17-1.3,0.29c-0.24,0.14-0.48,0.29-0.72,0.43    c-1.29,0.79-1.83,2.27-3.21,3.1c-0.47-0.01-0.94-0.03-1.41-0.04c-0.97-0.09-3.33-0.34-4.03-1.04c-1.92-0.29-3.84-0.58-5.77-0.87    c-0.58,0.14-1.15,0.29-1.73,0.43c-0.29,0-0.58,0-0.87,0c-0.95,0.23-1.9,0.45-2.85,0.68c-0.54,0.35-1.08,0.7-1.62,1.05    c-0.37,0.91-1.21,1.61-2.02,2.16c-0.58,0.29-1.15,0.58-1.73,0.87c-0.29,0.1-0.58,0.19-0.87,0.29c-0.96,0.01-1.92,0.03-2.88,0.04    c-0.24,0.02-0.87-0.03-0.87,0.25c-0.96,0.05-1.92,0.1-2.88,0.14c-1.01,0.62-2.25,1.04-3.46,1.15c-1.63,0.05-3.27,0.1-4.9,0.14    c-1.01,0.29-2.03,0.57-3.04,0.86c-0.19,0.1-0.38,0.2-0.56,0.29c-1.17,0-2.18,0.23-3.33,0.37c-0.96,0.07-1.91,0.14-2.87,0.21    c-0.39-0.38-2.5-0.47-3.17-0.58c-1.15-1.01-2.31-2.02-3.46-3.03c-0.54-0.81-1.08-1.72-1.35-2.66c-0.03-0.27-0.06-0.53-0.09-0.8    c-0.1-0.29-0.19-0.58-0.29-0.86c-0.22-0.35-0.44-0.7-0.66-1.05c-0.37-0.21-0.74-0.42-1.11-0.63c-0.83-0.43-3.08-1.2-4-1.2    c-0.56-0.56-3.44-0.61-4.33-0.72c-0.32-0.18-0.63-0.35-0.95-0.53c-0.92-0.62-1.7-1.27-2.83-1.48c-0.43,0.01-0.86,0.02-1.28,0.03    c-0.76-0.08-1.51-0.16-2.27-0.24c-0.25-0.08-0.49-0.16-0.73-0.23c-0.36-0.45-0.73-0.89-1.09-1.34c0.02-0.71,0.05-1.42,0.07-2.13    c0.02-0.28,1.48-1.03,1.87-1.18c2-0.77,4.38,0.1,6.06-1.28c0.05-0.04,0.11-0.08,0.16-0.13c-0.23-0.28-0.06-0.53-0.02-0.88    c-0.19-0.23-0.39-0.47-0.58-0.7c-0.53-0.69-2.21-0.61-3.01-0.59c-0.77-0.03-1.54-0.07-2.3-0.1c-1.44,0.16-2.97,0.74-4.4,0.13    c-1.1-0.46-1.95-1.58-2.81-2.33c-0.43,0-1.31-1.51-1.44-2.45h0.14c-0.27,0.07-0.6,0.5-0.87,0.58c-0.73,0.5-0.98,0.86-1.71,1.36    c-0.68,0.56-1.36,1.11-2.05,1.67c-0.39,0.33-0.93,0.5-1.09,1.01c-1.51,1.05-2.94,2.63-3.95,4.18c-1.39,2.16-2.79,4.33-4.18,6.49    c-0.58,1.25-1.15,2.5-1.73,3.75c-1.15,1.58-2.31,3.17-3.46,4.76c-1.05,1.36-2.23,2.7-3.6,3.75c-1.75,1.34-3.57,2.44-4.61,4.47    c-0.27,0.86-0.53,1.71-0.8,2.57c-0.31,1.31-0.62,2.61-0.93,3.92c-0.14,0.58-0.29,1.15-0.43,1.73c-1.65,1.65-2.45,4.01-4.61,5.19    c-0.72,0.38-1.44,0.77-2.16,1.15c-0.82,0.05-1.63,0.11-2.45,0.16c-0.86,0.04-1.73,0.09-2.6,0.13c-1.4-0.2-2.78-0.23-4.18-0.43    c-0.86,0.06-1.73-0.06-2.6,0c-1.06-0.22-2.13-0.44-3.19-0.66c-2.2-0.14-4.4-0.29-6.61-0.43c-0.97-0.16-1.93-0.32-2.9-0.48    c-1.63-0.04-3.27-0.07-4.9-0.11c-1.54,0.22-3.08,0.45-4.61,0.67c-1.55,1.04-3.09,2.09-4.64,3.14c-0.9,0.54-1.81,1.08-2.71,1.62    c-0.82,0.87-1.63,1.73-2.45,2.6c-0.48,0.29-0.96,0.58-1.44,0.87c-0.67,0.82-1.35,1.63-2.02,2.45c-1.73,2.1-3.67,5.11-4.61,7.64    c0.01,0.06,1.65,0.22,2.45,0.87c2.43,1.85,4.87,3.69,7.3,5.54c0.45,0.46,0.9,0.92,1.35,1.38c0.72,0.48,1.44,0.96,2.16,1.44    c1.14,1.63,2.28,3.27,3.42,4.91c0.53,1.13,1.06,2.26,1.6,3.38c0.54,0.68,1.08,1.37,1.62,2.05c0.2,0.38,0.41,0.75,0.61,1.13    c0.71,0.79,1.41,1.58,2.12,2.37c0.78-0.01,3.02,1.8,3.75,2.31c0.26-0.18,2.6,0.5,3.05,0.64c1.85,0.61,3.82,0.92,5.75,1.23    c0.35,0.24,0.72,0.39,0.86,0.72c0.25,0.38,0.5,0.76,0.74,1.14c0.34,0.45,0.58,0.14,0.27,0.45v-0.14c0.81,0.17,1.59,0.1,2.4,0.27    c2.16,0.82,4.15,2.15,6.56,1.89c0.22-0.01,0.45-0.03,0.67-0.04c1.99-0.74,2.57-2.73,3.18-4.56c0.17-0.46,0.35-0.92,0.52-1.38    c1.17-1.27,2.83-1.83,3.97-3.1c0.38-0.29,0.77-0.58,1.15-0.86c0.84-0.42,2.13-0.69,2.74-1.44c1.15-0.1,2.31-0.19,3.46-0.29    c0.37-0.22,1.48-0.87,1.87-0.58c1.62-0.67,3.34-0.95,4.9-1.73c1.08-0.27,2.17-0.53,3.25-0.8c0.41-0.5,0.81-1.01,1.22-1.51    c0.19-1.01,0.38-2.02,0.58-3.03c0.15-0.34,0.31-0.69,0.46-1.04c0.12-0.79,0.34-2.87,0.93-3.37c0.59-0.47,1.12-1.07,1.85-1.33    c0.27-0.09,0.8-0.36,0.8,0.11c0.53,0.67,1.06,1.35,1.59,2.02c0.24,0.96,0.48,1.92,0.72,2.88c0.42,2.11,0.21,3.46,1.87,5.19    c1.24,1.29,2.89,2.13,4.33,3.17c1.16,0.89,2.32,1.79,3.48,2.69c0.33,0.35,0.66,0.71,0.99,1.06c0.29,0.14,0.58,0.29,0.87,0.43    c1.11,1.06,2.21,2.11,3.32,3.17c0.48,0.34,0.96,0.67,1.44,1.01c1.49,0.58,2.98,1.15,4.47,1.73c0.77,0.91,1.54,1.83,2.31,2.74    c0.38,1.01,0.76,2.02,1.14,3.03c0.39,1.15,0.79,2.29,1.18,3.44c0.62,1.11,1.24,2.22,1.86,3.33c0.24,0.48,0.49,0.95,0.73,1.43    c0.61,1.07,1.01,2.25,2.01,3.04c0.53,0.24,1.06,0.48,1.59,0.72c0.72,0.47,1.43,0.93,2.15,1.4c1.25,0.53,2.42,0.74,3.76,0.91    c0.43,0.05,0.87,0.09,1.3,0.14c0.48,0.48,2.69,0.43,3.46,0.58c3.62,0.7,7.49,0.56,11.24,0.62c1.62-0.1,3.24-0.21,4.86-0.31    c0.27-0.22,0.56-0.18,0.9-0.19c0.56-0.02,0.91-0.89,1.46-0.54c2.21-0.07,4.4-0.98,6.52-1.8c0.41-0.16,1.84-0.65,1.84-0.65    c-0.15-0.31,0.86-0.39,1.18-0.5c0.62-0.27,1.23-0.53,1.85-0.8c0.87,0,2.16,0,3.03,0c1.37-0.98,4.26-1.57,6.08-2.07    c0.57-0.13,1.14-0.26,1.7-0.38c0.05-0.1,0.53-0.19,0.58-0.29c0.53-0.38,0.91-0.77,1.44-1.15c0.66-0.35,1.04-0.7,1.7-1.04    c0.39-0.32,0.79-0.79,1.18-1.12c0.43-0.24,0.87-0.48,1.3-0.72c0.23-0.21,0.49-0.37,0.72-0.58c1.32-0.93,1.84-1.79,3.32-2.45    L289.08,172.06z"/>
            <circle cx="231.75" cy="135.32" r="1.586"/>
        </g>
    </g>
</svg>