<?xml version="1.0" encoding="UTF-8"?>
<!DOCTYPE svg PUBLIC "-//W3C//DTD SVG 1.1//EN" "http://www.w3.org/Graphics/SVG/1.1/DTD/svg11.dtd">
<svg version="1.1" id="HaritaCizim" xmlns="http://www.w3.org/2000/svg" xmlns:xlink="http://www.w3.org/1999/xlink" x="0px" y="0px" viewBox="0 0 495 500" preserveAspectRatio="none">
    <defs id="__def">
        <radialGradient id="f">
            <stop offset="0" stop-color="white" stop-opacity="1"/>
            <stop id="STOP1" offset=".4" stop-opacity="1"/>
            <stop offset="1" stop-color="white" stop-opacity=".2"/>
        </radialGradient>
        <filter id="__flt1" x="0" y="0" width="200%" height="200%" filterUnits="objectBoundingBox">
            <feGaussianBlur in="SourceAlpha" stdDeviation="3" result="blur1"/>
            <feSpecularLighting result="specOut" in="blur1" specularConstant="1.5" specularExponent="20" lighting-color="#bbbbbb">
                <feDistantLight azimuth="45" elevation="30"/>
            </feSpecularLighting>
            <feComposite in="specOut" in2="SourceAlpha" operator="in" result="specOut"/>
            <feComposite in="SourceGraphic" in2="specOut" operator="arithmetic" k1="0" k2="1" k3="1" k4="0"/>
        </filter>
        <filter id="__flt2" x="0" y="0" width="200%" height="200%" filterUnits="objectBoundingBox">
            <feGaussianBlur in="SourceAlpha" stdDeviation="3" result="blur1"/>
            <feSpecularLighting result="specOut" in="blur1" specularExponent="20" lighting-color="#bbbbbb">
                <fePointLight x="-2000" y="100" z="2000"/>
            </feSpecularLighting>
            <feComposite in="specOut" in2="SourceAlpha" operator="in" result="specOut"/>
            <feComposite in="SourceGraphic" in2="specOut" operator="arithmetic" k1="0" k2="1" k3="1" k4="0"/>
        </filter>
        <filter id="__flt3" x0="-50%" y0="-50%" width="200%" height="200%" filterUnits="objectBoundingBox">
            <feGaussianBlur in="SourceAlpha" stdDeviation="3" result="blur"/>
            <feOffset in="blur" dx="0" dy="0" result="offsetBlur"/>
            <feSpecularLighting in="blur" surfaceScale="4" specularConstant=".5" specularExponent="20" lighting-color="flavor" result="specOut">
                <fePointLight x="-5000" y="-10000" z="5000"/>
            </feSpecularLighting>
            <feComposite in="specOut" in2="SourceAlpha" operator="in" result="specOut"/>
            <feComposite in="SourceGraphic" in2="specOut" operator="arithmetic" k1="0" k2="1" k3="1" k4="0" result="litPaint"/>
            <feMerge>
                <feMergeNode in="offsetBlur"/>
                <feMergeNode in="litPaint"/>
            </feMerge>
        </filter>
        <filter id="__flt4" x0="-50%" y0="-50%" width="200%" height="200%">
            <feGaussianBlur in="SourceAlpha" stdDeviation="2" result="blur"/>
            <feOffset dy="-1" dx="-1"/>
            <feComposite in2="SourceAlpha" operator="arithmetic" k2="-1" k3="1" result="hlDiff"/>
            <feFlood flood-color="white" flood-opacity=".7"/>
            <feComposite in2="hlDiff" operator="in"/>
            <feComposite in2="SourceGraphic" operator="over" result="withGlow"/>
            <feOffset in="blur" dy="3" dx="3"/>
            <feComposite in2="SourceAlpha" operator="arithmetic" k2="-1" k3="1" result="shadowDiff"/>
            <feFlood flood-color="black" flood-opacity="1"/>
            <feComposite in2="shadowDiff" operator="in"/>
            <feComposite in2="withGlow" operator="over"/>
        </filter>
        <filter id="__golge1" x="0" y="0" width="200%" height="200%" filterUnits="userSpaceOnUse">
            <feOffset result="offOut" in="SourceAlpha" dx="8" dy="8"/>
            <feGaussianBlur result="blurOut" in="offOut" stdDeviation="3"/>
            <feBlend in="SourceGraphic" in2="blurOut" mode="normal"/>
        </filter>
    </defs>
    <g id="__Komsular" display="none">
        <radialGradient id="SVGID_1_" cx="133.1494" cy="295.4336" r="81.6859" gradientTransform="matrix(0.8254 0.5646 -0.2823 0.4127 106.6424 98.3387)" gradientUnits="userSpaceOnUse">
            <stop offset="0" style="stop-color:#3C63AE"/>
            <stop offset="1" style="stop-color:#FFFFFF;stop-opacity:0"/>
        </radialGradient>
        <path fill-rule="evenodd" clip-rule="evenodd" fill="url(#SVGID_1_)" d="M87.24,249.46c-0.94,0.22-1.53,0.67-2.56,0.55   c-0.01,0.05-0.01,0.1-0.02,0.15c-0.02,0.54,0.18,0.9,0.02,1.42c0.39,0.59,0.79,1.18,1.18,1.77c0.38,0.5,0.75,1,1.13,1.5   c-0.34,0.78-1.03,1.14-1.72,1.64c-0.26,0.19-0.98,0.42-0.98,0.58c0.05,0.54,0.2,0.48-0.39,0.8c0.23,0.23,0.45,0.45,0.68,0.68   c0.09-0.02,0.18-0.04,0.26-0.06c-0.61,0.32-1.23,0.65-1.84,0.97c-0.11,0.47-0.26,0.47-0.68,0.64c-0.15,0.06-1.31,0.38-0.84,0.59   c0.98,0.41,1.61,0.04,2.61,0.13c0.33,0.13,0.66,0.26,0.98,0.39c0.64-0.17,1.28-0.34,1.92-0.5c0.36,0.16,0.99,0.04,1.23-0.28   c-0.19,0.6-0.39,1.2-0.58,1.8c-0.58,0.09-1.48,0.48-1.97,0.17c-0.17,0.21-0.35,0.43-0.52,0.65c-0.15,0.11-0.31,0.23-0.46,0.34   c0.1,0.61-0.08,1.53,0.2,1.97c-0.33,0.26-0.66,0.52-0.98,0.79c0,0.47,1.35,0.5,1.05,1c-0.44,0.78-1.59,1.45-1.28,2.38   c-0.05,0.12-0.11,0.24-0.16,0.36c0.7,1.35,1.03,1.2,2.16,1.97c0.2,0.13,0.91,0.95,0.68,1.01c-0.34,0.09-0.5,0.06-0.68,0.36   c-0.64-0.01-1.28-0.03-1.92-0.04c-0.33-0.49-0.75-0.38-1.3-0.55c-0.58,0.36-1.32,0.21-1.49-0.4c-0.06-0.23-0.11-0.85-0.34-0.68   c-0.42,0.36-0.83,0.71-1.25,1.07c-0.79-0.06-1.57-0.12-2.36-0.18c-0.49-1.62-0.79-0.66-1.66-1.76c-0.55-0.7-0.25-1.47-0.93-2.17   c0.01-0.13,0.02-0.26,0.03-0.39c-0.03,0.09-0.06,0.18-0.09,0.26c-0.24,0.73-0.13,1.58-0.69,2.05c-0.41,0.3-0.73,0.3-0.79,0.83   c-0.7-0.04-3.18-0.31-3.34,0.39c0,0.39-0.13,1.77,0.2,1.77c0.78,0.24,1.67,0.04,2.36-0.39c0.83,0.32,2.34,0.52,2.95,1.38   c-0.82,0.82-2.97,3.51-2.16,4.72c-0.1,0.28-0.21,0.56-0.31,0.85c-0.64,0.18-0.63,0.79-0.08,1.12c-0.31,0.83-0.49,2.44,0.59,2.75   c-0.12,0.43-0.7,2.19-0.4,2.12c0.89-0.23,1.78-0.45,2.67-0.68c0.52,0.36,0.99,0.57,1.36,1.09c0.42,0.6,0.6,1.6,1.28,1.79   c-0.14,0.48-0.28,0.51,0,0.98c-1.64,0.82-0.78,0.49-0.98,1.77c-0.07,0.43-0.47,0.3-0.2,0.79c-0.39-0.23-2.14-1.24-2.43-0.65   c-0.78,1.56-1.65,2.27-3.23,2.86c-0.55-0.11,0.05,0.93,0.1,0.93c0.69-0.11,1.38-0.23,2.08-0.34c0.35,0.29,0.46,0.71,0.92,0.74   c-0.23,0.49-1.08,2.03-0.22,1.92c0.37-0.07,0.56,0.11,0.76-0.18c0.31-0.46,0.12-0.37,0.83-0.37c0.07-0.51,0.23-0.86-0.2-1.18   c0.37-0.3,0.95-1.15,1-0.4c0.06,0.26,0.12,0.53,0.18,0.79c-0.27,0.52-1,1.81-0.56,2.12c0.44,0.26,0.85,0.32,0.96,0.83   c0.08-0.1,0.16-0.2,0.23-0.3c0.37-0.71,0.75-1.42,1.12-2.13c1.1-0.4,1.95-1.49,3.17-1.31c0.3,0.29,0.39,0.37,0.39,0.79   c-0.84,0.46-2.09,1.16-1.57,2.36c-0.21,0.49-0.47,0.88-0.2,1.35c0,0.14,0,0.28,0,0.42c0.13-0.07,0.26-0.13,0.39-0.2   c0.33,0.65,0.66,1.31,0.98,1.97c0.48-0.4,0.98-0.51,1.1-1.09c0.06-0.61,0.32-1.16-0.31-1.47c0.78-0.83,1.65-2.38,1.57-3.54   c-0.12,0.33-0.28,0.52-0.01,0.77c0.07,0.14,0.14,0.27,0.21,0.41c0.39,0.13,0.79,0.26,1.18,0.39c0.33,0.26,0.66,0.52,0.98,0.79   c0.1,0.6,0.46,1.41,0.2,1.97c0.2,0.04,0.4,0.08,0.6,0.12c0.62,0.18,0.56,0.37,0.58-0.28c-0.07-0.14-0.13-0.29-0.2-0.43   c0.28-0.74,0.57-1.47,0.85-2.21c0.31-0.25,0.61-0.49,0.92-0.74c0.46-0.02,0.6,0.1,0.98-0.2c0.73,0.32,1.86,0.52,2.56,0   c-0.09,0.45-0.06,1.06-0.39,1.38c0.83-0.36,1.51-0.43,1.58-1.57c0.06-0.33,0.12-0.66,0.18-0.98c-0.44-0.67-0.94-0.99-0.6-1.85   c0.32-0.86,1.04-2.39,2.08-1.61c0.3,0.26,0.49-0.35,0.49,0.11c-0.01,0.42,0.07,0.65-0.2,0.99c0.46,0.5,1.02,1.46,1.77,1.18   c0.14,0.24,0.28,0.49,0.42,0.73c0.01,0.23,0.03,0.46,0.04,0.69c0.47-0.31,0.94-0.62,1.41-0.93c0.58,0.54,1.44,1.81,0.68,2.46   c0.5-0.2,0.71,0.15,0.98-0.38c0.44-0.83,0.47-1.8,1.51-2c0.02-0.19,0.05-0.38,0.07-0.57c0.1,0.09,0.21,0.19,0.31,0.28   c0.29,0.28,0.47,0.64,0.87,0.7c0.1,0.34,0.2,0.68,0.29,1.02c0.44,0.15,0.44,0.01,0.49,0.55c0.61-0.16,1.36,0.03,1.75-0.27   c0.2,0.02,0.41,0.05,0.61,0.07c0.21-0.87,0.46-1.53,0.79-2.36c0.23-0.08,1.48-0.55,1.12-0.91c0.14-0.18-0.41-0.15-0.26-0.77   c0.27-1.02,0.62-1.38,1.34-2.03c-0.03-0.05-0.06-0.1-0.09-0.15c-0.07-0.09-0.15-0.18-0.22-0.26c0.01-0.15,0.24-0.86,0.26-0.87   c0.52-0.22,0.94-0.57,1.5-0.44c0.87,0.28,1.02-0.04,1.46,0.81c0.14,0.1,0.27,0.2,0.41,0.3c0.29,0.8,0.58,1.6,0.87,2.4   c-0.02,0.1,0.29,0.25,0.35-0.03c0.18-0.76,0.36-1.52,0.55-2.28c0.06-0.03,0.12-0.05,0.18-0.08c0.02-0.33-0.03-0.44,0.23-0.24   c0.47,0.34,0.93,0.49,1.16,1.02c1.03,0.22,2.06,0.44,3.09,0.66c0.33,0.39,0.65,0.78,0.98,1.17c0.26,0.34,0.46,0.48,0.45,0.92   c0.44,0.33,0.88,0.67,1.32,1c0.25,0.82,1.32,1.38,2.02,0.96c0.42,1.74,2.09,4.81,3.93,5.11c0.52,0.77,1,1.94,1.76,2.39   c0.7,0.41,3.21,1.34,3.94,1.15c0.36,0.36,0.66,0.46,0.59,0.98c0.3,0.01,0.94,0.03,0.98,0.39c0.85,0.26,1.7,0.52,2.56,0.79   c-0.04,0.33-0.08,0.65-0.12,0.98c0.04,0.13,0.08,0.27,0.12,0.4c-0.29,0.82-0.59,1.64-0.88,2.46c-0.36,0.38-0.39,0.28-0.29,0.88   c-0.65,0.02-2.13,0.18-1.74,0.75c1.26,1.94,2.86,3.18,4.49,4.75c0.31,0.3,1.92,1.13,2.25,0.66c0.63-0.92,0.99-2.22,2.11-2.44   c0.72-0.12,2.13-0.48,2.71,0.21c1.1-0.1,1.99-0.15,3.02,0.22c0.2-0.17,0.92-0.11,1.11-0.02c0.26-0.2,0.52-0.39,0.79-0.59   c0.02,0.03,0.03,0.06,0.05,0.09c1.13,2.14-0.83,3.63-0.64,5.42c-0.34,0.38-0.7,0.44-0.59,0.98c-0.39-0.11-0.77-0.22-1.16-0.33   c0.23,0.72,1.16,3.38,1.75,3.67c-0.07,0.26-0.14,0.52-0.21,0.77c-0.78,0.28-0.57,0.25-0.21,0.81c0.22,0.38,0.51,1.17,1.01,1.17   c0.57,0,0.99-0.25,1.38,0.2c0.68-0.8,1.48-1.85,2.51-1.3c1.28,0.67,0.51,1.97,2.62,2.59c0.26,0.08,0.81,0.39,0.81,0.39   c0.17-0.37,0.2-0.68,0.55-0.9c-0.04-0.34-0.09-0.68-0.13-1.02c0.56-0.23,0.9-0.59,1.45-0.52c0.38,0.06,0.22,0.11,0.65-0.23   c0.48,0.63,1.4,1.81,2.16,1.38c-0.06,0.06-0.13,0.12-0.19,0.18c-0.32,0.38-0.61,0.91-0.55,1.38c0.17,1.02,0.5,2.07,1.31,2.77   c-0.06,0.13-0.11,0.25-0.17,0.38c0.06,0,0.13,0,0.19-0.01c0.47-0.01,0.86-0.15,1.19,0.2c0.52-0.59,1.05-1.18,1.57-1.77   c0.26,0.74,0.99,2.2,1.42,1.99c0.38-0.2,0.76-0.41,1.14-0.61c1.24,0.65,2.49,1.31,3.73,1.97c0.51-0.34,1.02-0.68,1.52-1.02   c0.53,0.04,0.37,0.16,0.57-0.18c0.3-0.49,0.42-1.23,0.85-1.55c0-0.33,0-0.66,0-0.98c-0.17-0.51-0.34-1.01-0.5-1.52   c0.67-0.98,1.25-1.69,2.47-1.58c1.35,0.14,0.96,1.71,2.57,1.37c1.25-0.25,1.06-1.21,2.24-0.77c0.48,0.19,0.65,0.25,0.73,0.75   c-0.01,0.39-0.02,0.78-0.03,1.17c0.8,1.55,0.88,2.84,1.18,4.52c-0.07,0.33-0.14,0.65-0.21,0.98c0.31,0.58,0.39,1.05-0.18,1.38   c0.07,0.03,0.15,0.06,0.22,0.09c0.6,0.24,1.6,0.21,1.94,0.69c0.13-0.57,0.28-1.22,0.79-1.57c0.86,0.31,1.73,0.62,2.59,0.93   c0.82,0.52,3.83,2.44,3.89,3.39c0.65,0.44,1.18,0.65,1.74,1.17c-0.05,0.13-0.11,0.27-0.17,0.4c0.38-0.38,1.34-1.68,0.95-1.89   c-0.95-0.53-1.97-0.76-2.23-1.92c-0.1-0.1-0.19-0.21-0.29-0.31c0.23-0.82,0.44-1.32,0.2-2.16c-0.19-0.62-0.79-0.91-0.79-1.57   c-1.15-0.83-3.1-1.31-3.42-2.62c-0.11-0.11-0.21-0.22-0.32-0.33c0.6-1.53,2.01-3.19,1.69-4.8c0.35-0.4,0.29-0.3,0.04-0.7   c-1.11-1.82-1.77-4.25-4.26-4.34c-0.14-0.06-0.28-0.13-0.42-0.19c-1.17,0.15-2.35,0.3-3.52,0.45c-0.79-0.09-2.46-0.75-2.77-1.44   c-0.97,0.08-1.94,0.16-2.91,0.23c-1.22-1.18-2.3-0.55-3.68-0.42c-0.93,0.09-2.22,1.08-3.05,0.39c-0.45,0.03-0.79-0.04-0.98,0.39   c-1.12-0.67-3.35-1.35-4.13-0.2c-0.33-0.13-0.66-0.26-0.98-0.39c-1.68-0.41-3.17,0.16-4.74,0.56c-0.31,0.08-1.4,0.59-1.58,0.13   c-0.13-0.34-0.38-0.66-0.22-0.92c0.38-0.61,0.46-1.42,1.23-1.74c0.15-0.6,0.03-1.07,0.59-1.38c-0.14-0.19-0.27-0.38-0.41-0.57   c-1.5-1.77-3-3.55-4.5-5.33c-0.2-0.66-0.39-1.31-0.59-1.97c-0.67,0.23-0.87,0.66-1.54,0.39c-0.13-0.06-0.25-0.13-0.38-0.19   c-0.56-0.01-0.73-1.11-0.83-1.58c-0.55,0.35-1.09,0.52-1.18,1.18c-0.1-0.06-0.21-0.12-0.31-0.18c-0.5-0.3-1.62-1.56-1.85-0.61   c-0.37-0.34-0.44-0.58-0.98-0.59c0.03-0.13,0.05-0.25,0.08-0.37c0-0.17,0-0.34,0.01-0.51c-0.78-0.66-1.56-0.95-2.49-1.39   c-0.44-0.42-0.88-0.84-1.33-1.27c-0.49-0.39-1.4-0.32-1.46-0.73c-0.1-0.24-0.2-0.48-0.29-0.72c0.14-0.06,0.27-0.12,0.41-0.18   c-0.05-0.92,0.04-1.62-0.42-2.49c-1.59-0.15-1.96-3.44-3.73-2.75c-0.12-0.46-0.24-0.91-0.36-1.37c-0.07-0.37,0.5-0.73,0.75-0.99   c0-0.2,0-0.39,0-0.59c-0.39-0.52-0.79-1.05-1.18-1.57c-0.64-1.16-0.42-2.11-1.38-3.34c-0.39-0.26-0.78-0.52-1.17-0.77   c-0.46-0.41-1.02-1.47-1.78-1.19c-0.32-0.67-0.9-1.73-0.59-2.36c-0.14,0.05-0.28,0.11-0.42,0.17c-0.42,0.17-0.68,0.24-0.96,0.62   c-0.73-0.53-2.08-1.68-2.56-0.39c-0.14-0.28-0.28-0.56-0.42-0.85c-0.58-1.63,0.01-3.31-0.37-5.05c-0.22,0.16-0.43,0.33-0.65,0.49   c-1.18,0.86-1.29,2.72-2.89,2.49c-0.6-0.69,0.14-0.96-1.07-1.51c-0.61-0.17-1.12,0.02-1.49-0.5c-0.33,0.2-0.66,0.39-0.98,0.59   c-0.25-0.9-0.96-1.6-1.97-1.77c-0.31-1.34-0.65-1.18-1.97-1.18c-0.16-0.27-0.31-0.53-0.47-0.8c-0.68-0.07-1.01-0.02-1.5,0.41   c-0.2-0.66-0.39-1.31-0.59-1.97c-0.65,0-1.31,0-1.97,0c-0.1-1.1-0.01-1.71-1.03-2.28c-0.67-0.35-0.49,1.52-1.23,0.83   c-0.55-0.5-0.87-1.69-0.69-2.48c-0.42-0.04-1.11,0.14-1.29-0.23c-0.39-0.82-0.51-0.8-0.28-1.73c-0.77-0.41-1.35-0.55-1.89-1.27   c0.66-1.64,0.67-0.9,0.32-2.67c-0.41-0.27-1.43-0.32-1.33-0.85c0.1-0.7,0.26-1-0.24-1.51c-0.2-0.19-0.4-0.39-0.6-0.58   c-0.71,0.28-1.34,0.46-1.77-0.39c-0.53,0.05-1.29,0.55-1.61,0.14c-0.02-0.04-0.05-0.08-0.07-0.12c-0.42,0.15-0.51,0.34-0.45-0.02   c0.06-0.79,0.11-1.57,0.17-2.36c-0.44,0.2-0.94,0.36-1.18,0.79c-1.98,0-3.12-1.67-5.13-1.95c-0.45-0.33-0.91-0.66-1.36-1   c0.1-0.06,0.21-0.11,0.31-0.17c0.4-0.31,0.8-0.63,1.2-0.94c-0.24-0.16-0.48-0.31-0.72-0.47c0.69-0.65,1.16-1.68,1.97-1.97   c-0.17-0.14-0.35-0.28-0.52-0.42c-1.99-1.06-3.99-2.12-5.98-3.18C88.41,249.91,87.82,249.69,87.24,249.46z"/>
        <radialGradient id="SVGID_2_" cx="345.2041" cy="277.0205" r="25.3021" gradientUnits="userSpaceOnUse">
            <stop offset="0" style="stop-color:#3C63AE"/>
            <stop offset="1" style="stop-color:#FFFFFF;stop-opacity:0"/>
        </radialGradient>
        <path fill-rule="evenodd" clip-rule="evenodd" fill="url(#SVGID_2_)" d="M331.3,258.28c-0.29,1.02-0.12,2.9-1.12,3.52   c-0.16,0.8-0.09,1.68-0.59,2.36c0,0.85,0,1.7,0,2.56c-0.2,0.99-0.6,2.11-1.18,2.95c0.07,0.52,0.13,1.05,0.2,1.57   c-0.55,0.82-2.45,2.83-1.38,3.93c0.72,0.59,1.45,1.18,2.17,1.77c0.13,0.26,0.26,0.52,0.39,0.79c0,1.9-0.97,4.61,0.36,6.3   c0.8,1.02,1.9,1.47,2.79,2.35c0.39,0,0.79,0,1.18,0c0.79,0.33,1.57,0.66,2.36,0.98c0.62,0.62,1.96,1.07,2.75,0.59   c0.92,0.37,2.98,1.49,3.93,1.38c0.72-0.07,1.44-0.13,2.16-0.2c0.88-0.38,3.16-1.74,4.07-1.08c1,0.75,2.01,1.51,3.01,2.26   c0.59,0.07,1.18,0.13,1.77,0.2c0.46-0.07,0.92-0.13,1.38-0.2c0.56,0.06,3.29,0.25,3.54,0c0.52-0.39,1.05-0.79,1.57-1.18   c0.52-0.79,1.05-1.57,1.57-2.36c0.54-0.13,0.89-0.29,1.38,0c0.32-0.28,0.64-0.56,0.96-0.84c0.4-0.31,0.8-0.62,1.2-0.93   c0.57,0,0.7,0.42,0.99-0.2c0.53,0,0.38,0,0.35-0.41c-0.06-1.82,0.31-2.01,1.41-3.32c0-1.14-0.36-1.08,0.3-2.21   c0.23-0.64,0.45-1.28,0.68-1.92c-0.08-0.02-0.16-0.05-0.25-0.07c-0.83-0.11-1.67-0.22-2.51-0.33c-0.47-0.53-0.9-0.94-1.57-1.18   c-1.06,0.47-0.95,0.2-1.97,0.2c-0.26-0.13-0.52-0.26-0.79-0.39c0-1.33-2.39,0.13-2.75,0.2c-0.41,0.07-0.66-0.13-0.98,0.2   c-0.61-0.61-3.06-0.7-3.15,0.39c-0.33,0.13-0.66,0.26-0.98,0.39c-1.7,0-3.65-1.06-4.91,0.2c-0.36,0-0.79,0.1-0.79-0.39   c-0.05-1.52,0.39-2.79,0.39-4.32c-0.33-0.44-0.71-0.79-0.59-1.38c0.2-0.46,0.39-0.92,0.59-1.38c-0.33-0.72-0.66-1.44-0.98-2.16   c-0.13,0.2-0.26,0.39-0.39,0.59c0.11,1.46-0.16,2.64-0.2,4.13c-0.01,0.43-0.35,1.31-0.82,1.06c-0.69-0.33-1.18-0.53-1.71-1.06   c-0.07-0.19-0.14-0.39-0.22-0.58c-0.79-0.85-1.58-1.7-2.36-2.56c-0.39-0.79-0.79-1.57-1.18-2.36c-0.54-1.24-1.62-2.4-2.56-3.34   c0-0.79-1.93-2.32-1.77-3.73c-0.29-0.14-0.58-0.27-0.87-0.41c-0.1-0.12-0.21-0.25-0.31-0.37c-0.85,0.07-1.7,0.13-2.56,0.2   c-0.57-0.09-1.31-0.93-1.39-0.92C331.47,257.72,331.43,257.84,331.3,258.28z"/>
        <path fill-rule="evenodd" clip-rule="evenodd" fill="none" stroke="#000000" stroke-width="0.25" stroke-miterlimit="10" d="   M406.88,209.74c5.98,1.51,11.85,3.57,17.25,6.91c5.12,3.17,11.02,5.23,16.54,7.58c2.58,1.1,5.37,2.34,7.98,3.33   c2.62,0.99,5.46,1.17,8.14,2.3c2.98,1.25,5.54,2.53,8.85,3.03c3.48,0.52,6.47-0.9,9.84-0.01c3.54,0.94,6.94,3.18,9.97,5.19   c2.92,1.93,7.73,4.1,9.06,7.51"/>
        <path fill-rule="evenodd" clip-rule="evenodd" fill="none" stroke="#000000" stroke-width="0.25" stroke-miterlimit="10" d="   M301.03,413.88c1.91,2.73,2.3,5.59,3.27,8.6c0.93,2.91,2.84,5.23,3.33,8.35c0.45,2.88-1.66,5.55-2.09,8.44   c-0.48,3.22-0.98,6.48-1.02,9.83c-0.04,3.18-0.69,6.29-1.68,9.17c-0.95,2.74-2.5,4.99-2.87,8.19c-0.37,3.17,0.29,6.59-0.16,9.87   c-0.44,3.24-0.71,6.39,0.56,9.47c1.83,4.46,7.09,6.35,10.91,8.7c2.12,1.31,3.75,2.08,6.15,2.7c1.71,0.44,5.3,1.31,6.14,2.87"/>
        <path fill-rule="evenodd" clip-rule="evenodd" fill="none" stroke="#000000" stroke-width="0.25" stroke-miterlimit="10" d="   M192.92,338.74c-0.02,2.45-0.9,6.34-2.71,8.14c-1.88,1.87-5.49,2.42-7.74,3.32c-3.14,1.25-5.89,3.11-9.41,3.28   c-3.43,0.17-6.48,0.99-9.82,1.49c-5.24,0.78-16.19-2.45-16.18,5.88c0,2.82-0.02,7.03,1.68,9.21c1.97,2.53,4.72,3.95,6.91,6.09   c2.2,2.15,4.28,4.42,5.99,6.96c1.72,2.55,4.36,4.55,5.74,7.37c1.47,3,1.01,5.98-0.46,8.84c-1.47,2.87-2.37,5.86-3.27,8.83   c-0.98,3.21-2.46,5.48-2.67,9c-0.2,3.3-1.8,4.83-2.71,7.74c-1.92,6.15-7.13,10.16-9.84,16.02c-0.53,1.14-0.55,2.71-1.21,3.64   c-0.64,0.9-2.5,1.85-3.38,2.56c-1.3,1.05-2.51,2.08-3.59,3.37c-1.28,1.53-1.65,1.4-3.44,2.09c-2.4,0.93-4.3,3.54-5.67,5.59   c-1.42,2.13-1.58,5.01-2.71,7.12"/>
        <path fill-rule="evenodd" clip-rule="evenodd" fill="none" stroke="#000000" stroke-width="0.25" stroke-miterlimit="10" d="   M52.67,192.75c0.34-2.34-1.23-1.83-2.21-3.32c-1.14-1.74,0.11-3,0.56-4.47c1.07-3.52,0.08-5.77-1.18-9.05   c-1.25-3.25-3.74-3.9-6.8-5.06c-1.56-0.59-2.79-1.88-4.29-2.52c-1.33-0.56-2.6-0.85-3.9-1.58c-1.92-1.08-7.21-2.78-6.72-5.71   c2-0.43,3.3,1.16,5.47,0.55c-0.13-2.69,5.48,0.25,4.5-3.01c-1.62-0.46-3.58,0.27-5.09-0.08c-1.47-0.34-2.07-1.75-2.67-3.22   c-0.57-1.41-0.27-3.15-1.17-4.37c-0.88-1.19-2.44-1.4-3.53-2.24c-3.2-2.47-1.42-5.74,2.2-4.2c1.4,0.6,2.45,1.84,3.53-0.06   c0.89-1.57-0.22-3.17-0.57-4.49c-0.33-1.25,0.01-2.64-0.24-3.9c-0.25-1.26-0.85-1.89-1.28-3.02c-0.89-2.36,0.55-4.47-1.2-6.61   c1.63-1.21,2.39-1.99,3.24-4.1c0.51-1.26,1.5-4.01-0.74-4.32c0.19-0.19,0.46-0.92,0.81-1.2c-0.86-1.25-1.67-1.89-2.32-3.27   c-0.73-1.55-1.47-2.6-2.41-3.94c-1.05-1.51-1.5-2.87-3.63-2.58c-1.45,0.2-2.88,2.07-4.1,0.15c-1.01-1.59,1.32-3.44,0.54-4.92   c-1-1.9-3.26-0.66-4.01,0.63c-1.86,3.19-1.95,6.07-6.4,6.71c-1.4,0.2-2.88-0.03-4.3,0.05c-1.53,0.08-2.97,0.58-4.5,0.41"/>
        <path fill-rule="evenodd" clip-rule="evenodd" fill="none" stroke="#000000" stroke-width="0.25" stroke-miterlimit="10" d="   M261.1,57c-0.88-2.52-4.5-4.49-6.72-5.78c-3.02-1.76-4.86-2.9-6.6-5.88c-3.09-5.32-0.18-13.73-0.4-19.46   c-0.12-2.99-1.54-6.57,0.4-9.16c1.86-2.48,6.83-1.89,9.63-1.89c3.88,0,5.87-0.34,9.01-2.25c2.66-1.62,5.35-3.64,7.99-5.07   c5.61-3.04,12.33-2.7,18.63-2.71c6.9-0.01,12.87-3.22,20.07-2.25c1.67,0.23,3.02,1.21,4.71,1.44c1.74,0.24,2.95-0.53,4.5-0.83   c2.62-0.51,6.21-0.81,7.99-3.06"/>
        <text transform="matrix(0.5309 0.8475 -0.8475 0.5309 408.48 74.0503)" font-family="'MyriadPro-Regular'" font-size="19.656">YOZGAT</text>
        <text transform="matrix(0.5575 -0.8302 0.8302 0.5575 429.7515 408.8193)" font-family="'MyriadPro-Regular'" font-size="19.656">KIRŞEHİR</text>
        <text transform="matrix(0.7295 0.684 -0.684 0.7295 192.7266 423.9385)" font-family="'MyriadPro-Regular'" font-size="19.656">AKSARAY</text>
        <text transform="matrix(0.6583 0.7528 -0.7528 0.6583 22.0884 279.7061)" font-family="'MyriadPro-Regular'" font-size="19.656">ANKARA</text>
        <text transform="matrix(0.7327 -0.6806 0.6806 0.7327 104.147 102.5762)" font-family="'MyriadPro-Regular'" font-size="19.656">KIRIKKALE</text>
    </g>
    <g id="__Harita" display="none">
        <rect id="__cer" x="0" y="0" fill="#000000" opacity="0" width="495" height="500"/>
        <g id="__Çiçekdağı">
            <path d="    M402.04,218c-0.1-0.49-0.51-0.6-0.67-0.75c-0.31-0.26-0.61-0.51-1.02-0.86c-1.31-0.52-2.62-1.05-3.93-1.57    c-0.78-0.53-1.57-1.06-2.35-1.58c-1.57-1.04-3.15-2.09-4.72-3.13c-2.02-0.67-4.04-1.34-6.06-2.01c-1.5-0.55-3-1.11-4.5-1.66    c-1.35-0.47-2.74-1.22-4.18-1.24c-0.85-0.13-1.7-0.26-2.56-0.39c-2.73-0.77-5.46-1.55-8.19-2.32c-3.1-0.67-6.84-2.15-9.7-3.48    c-0.58-0.15-1.02-1.5-1.57-1.47c-0.43-0.46-0.78-0.98-1.38-1.18c-0.09-0.28-0.17-0.55-0.26-0.83c-0.45-1.88-0.46-3.69,0.85-5.26    c0.45-0.54,0.53-1.47,1.18-1.77c0.2-2.19,0.7-4.08,0.41-6.28c-0.19-0.93-0.39-1.85-0.58-2.78c-1-1.12-3.12-2.89-4.74-2.54    c-0.77-0.4-3.69-1.01-3.93-1.38c-0.55,0.03-1.4-0.04-1.77,0.39c-2.46-0.15-5.05,0.21-7.47,0.98c-0.46,0.07-0.92,0.13-1.38,0.2    c-2.03,0.52-4.06,1.05-6.09,1.57c-0.64-0.36-3.16-1.33-3.93-1.18c-1.12-0.5-2.16-0.72-3.33-1.02c-0.92-0.23-1.53-0.6-2.45-0.5    l-0.11-0.17c-3.67-1.14-7.34-2.28-11.01-3.42c-2.82-1.51-5.63-3.01-8.45-4.52c-1.83-1.31-3.67-2.62-5.5-3.93    c-1.38-1.24-3.67-4.36-4.32-6.09c-0.46-0.13-0.92-0.26-1.38-0.39c-0.52-0.39-1.05-0.79-1.57-1.18c-0.42,0.49-2.94,0.53-3.59,0.47    c-0.55-0.58-0.29-1.27-0.68-2.27c-0.31-0.92,0.19-2.45,0.53-3.31c0.52-0.52,1.05-1.05,1.57-1.57c0.85-1.97,1.7-3.93,2.56-5.9    c0.26-1.05,0.52-2.1,0.79-3.14c0-1.31,0-2.62,0-3.93c0.49-1.53,0.57-2.98,0.76-4.55c0.08-0.51,0.15-1.03,0.23-1.54    c-0.13-1.18-0.26-2.36-0.39-3.54c-0.07-1.44-0.13-2.88-0.2-4.32c-0.33-1.31-0.66-2.62-0.98-3.93c-0.4-0.74-0.8-1.48-1.2-2.22    c-0.65-0.96-0.83-1.05-1.48-2.01c-0.39-0.39-1.65-1.38-2.05-1.77c-1.22-0.68-2.23-2.19-2.98-2.89c-0.45-0.38-0.89-0.75-1.34-1.12    c-0.39-0.52-0.79-1.05-1.18-1.57c-0.98-0.79-1.97-1.57-2.95-2.36c-3.08-3.73-6.16-7.47-9.24-11.2c-0.61-0.64-1.15-1.33-2.16-2.16    c-0.39-1.18-0.79-2.36-1.18-3.54c-0.9-1.69-1.66-3.33-2.36-5.11c-0.59-1.38-1.18-2.75-1.77-4.13c-1.7-1.57-3.41-3.14-5.11-4.72    c-1.18-0.66-2.36-1.31-3.54-1.97c-0.8-0.43-1.6-0.87-2.4-1.3c-0.71-0.35-1.41-0.7-2.12-1.06c-0.03-0.4-1.86-1.71-2.36-2.16    c-0.2-0.13-0.39-0.26-0.59-0.39c0.71-0.53,1.43-1.07,2.14-1.6c1.9-1.51,3.87-2.82,5.91-4.1c0.57,0.16,1.4-0.61,1.97-0.79    c1.4-0.45,5.57-2.01,6.47-2.94c3.28-0.43,6.56-0.85,9.84-1.28c1.23-0.24,2.28-0.59,3.34-1.28c0.79-0.07,1.57-0.13,2.36-0.2    c0.42,0.4,1.37,0.28,1.97,0.39c0.85,0.39,1.7,0.79,2.56,1.18c0.27,0.63,1.45,1.08,2.01,1.54c1.36,1.26,2.72,2.51,4.08,3.77    c1.14,1.28,0.69,3.02,0.76,4.57c0.26,0.94,0.52,1.88,0.78,2.82c1.28,2.85,2.57,5.7,3.85,8.55c0.83,0.96,1.65,1.92,2.48,2.88    c1.1,0.87,2.19,1.74,3.29,2.62c1.07,0.64,2.14,1.28,3.21,1.92c2.58,1.67,5.78,2.26,8.62,3.27c2.05,0.72,4.58,0.55,6.68,0.65    c0.81-0.04,1.63-0.07,2.44-0.11c3.12,0.18,6.24,0.36,9.35,0.55c1.05,0.39,2.1,0.79,3.15,1.18c0.98,0.39,1.97,0.79,2.95,1.18    c0.78,0.36,1.56,0.71,2.33,1.07c1.61,0.79,4.54,2.5,6.31,2.47c0.72,0.07,1.44,0.13,2.16,0.2c0.79-0.42,2.12-0.25,2.95,0    c2.11,0.64,3.61,2.66,5.33,3.97c0.37,0.15,0.75,0.3,1.12,0.45c2.89,1.27,4.78,1.3,7.89,1.09c0.6-0.02,0.71,1.25,0.84,1.66    c0.39,1.21,0.82,5.01,0.41,6.15c-0.37,1.04-1.8,1.91-2.86,2.59c-0.12,0.07,0.28,0.84-0.01,1.04c-0.28,0.17-0.56,0.35-0.84,0.52    c-0.16,0.08-1.2,1.77-0.89,2.43c0.77,0.41,1.47-0.22,1.91,0.47c0.61,0.94,1.37,1.19,2.22,1.87c0.53,0.58,1.22,1.43,1.75,2.02    c0.33-0.14,2.58,0,3.12,0.15c0.76,0.22,0.23,1.27,0.46,2c1.03,1.11,2.05,1.76,3.08,2.87c2.6,1.96,5.91,5,7.84,7.6    c0.54,0.83,1.09,1.67,1.63,2.51c0.27,0.64,0.53,1.27,0.8,1.91c0.18,1.5,0.36,3.01,0.55,4.51c-0.1,3.1-1.23,5.92-2.44,8.68    c-0.55,1.17-1.09,2.34-1.64,3.51c-0.07,1.57-0.14,3.14-0.2,4.71c0.04,2.52,0.62,5.28,1.49,7.63c1.52,4.15,4.77,5.58,8.34,7.73    c4.52,2.49,9.05,4.98,13.58,7.46c2.15,1.07,4.85,1.53,6.96,2.91c0.89,0.58,3.49,3.17,3.85,4.15c0.66,1.51,1.31,3.01,1.97,4.52    c0.15,2.08-0.4,4.06-0.79,6.09c-0.46,2.56-0.92,5.11-1.38,7.67c-1.03,1.1-1.27,3.61-1.41,3.54c-0.38,0.39-0.77,0.78-1.15,1.17    c-0.89,1.74-1.78,3.49-2.67,5.23c-0.16,0.29-0.32,0.57-0.47,0.86L402.04,218z"/>
            <circle cx="345.36" cy="126.92" r="1.586"/>
        </g>
        <g id="__Akçakent">
            <path d="    M281.71,156.75c-0.43,0.2-1.43,0-1.85,0.09c-1.04-0.03-2.07-0.06-3.11-0.09c-1.33-0.13-2.66-0.25-3.99-0.38    c-0.51-0.07-2.22-0.62-2.76-0.58c-1.21-0.52-2.06-1.13-3.69-1.92c-1.58-0.65-3.15-1.3-4.73-1.95c-3.27-0.4-6.55-0.81-9.82-1.21    c-2.36,0.01-4.72,0.02-7.08,0.03c-1.94-0.44-6.29-1.42-8.06-0.79c-3.36-1.72-7.08-3.38-9.48-6.2c-1.21-1.42-0.7-3.54-0.55-5.2    c0-1.25,0-2.49,0-3.74c0-2.99-0.59-5.89-0.55-8.85c0.21-1.63,0.42-3.27,0.63-4.9c0.08-1.38,0.16-2.76,0.23-4.15    c0.04-0.49-0.07-1.2,0.28-1.56c-0.26-2.03-0.52-4.06-0.79-6.09c-0.26-0.85-0.52-1.7-0.79-2.56c-1.79-2.72-5.21-6-7.72-8.15    c-2.44-2.09-5.5-3.69-6.31-6.85c-0.44-1.7,0.55-3.76,0.86-5.44c0.39-2.11,0.73-4.17,1.91-6c0.21-0.32,1.4-1.66,1.62-1.72    c0.99-0.18,1.97-0.36,2.96-0.53c0.85,0.2,1.7,0.39,2.56,0.59c0.91,0.59,2.96,2.33,3.89,2.56c1.01,0.3,1.68,0.02,2.69,0.32    c3.4-2.51,5.51-7.41,8.16-10.74c0.75-0.95,1.6-1.62,2.46-2.44c0.36-0.3,0.71-0.6,1.07-0.9l0.2-0.39c0.2,0.13,0.39,0.26,0.59,0.39    c0.5,0.45,2.33,1.76,2.36,2.16c0.71,0.35,1.41,0.7,2.12,1.06c0.8,0.43,1.6,0.87,2.4,1.3c1.18,0.66,2.36,1.31,3.54,1.97    c1.7,1.57,3.41,3.14,5.11,4.72c0.59,1.38,1.18,2.75,1.77,4.13c0.7,1.78,1.46,3.42,2.36,5.11c0.39,1.18,0.79,2.36,1.18,3.54    c1.01,0.84,1.56,1.52,2.16,2.16c3.08,3.73,6.16,7.47,9.24,11.2c0.98,0.79,1.97,1.57,2.95,2.36c0.39,0.52,0.79,1.05,1.18,1.57    c0.45,0.37,0.89,0.75,1.34,1.12c0.75,0.7,1.76,2.21,2.98,2.89c0.39,0.39,1.65,1.38,2.05,1.77c0.65,0.96,0.83,1.05,1.48,2.01    c0.4,0.74,0.8,1.48,1.2,2.22c0.33,1.31,0.66,2.62,0.98,3.93c0.06,1.44,0.13,2.88,0.2,4.32c0.13,1.18,0.26,2.36,0.39,3.54    c-0.08,0.51-0.15,1.03-0.23,1.54c-0.18,1.57-0.26,3.02-0.76,4.55c0,1.31,0,2.62,0,3.93c-0.26,1.05-0.52,2.1-0.79,3.14    c-0.85,1.97-1.7,3.93-2.56,5.9c-0.52,0.52-1.05,1.05-1.57,1.57c-0.35,0.86-0.84,2.39-0.53,3.31c0.29,0.75,0.05,1.3,0.39,1.59    L281.71,156.75z"/>
            <circle cx="253.12" cy="120.27" r="1.586"/>
        </g>
        <g id="__Akpınar">
            <path d="    M216.97,99.44c-0.91,0.92-1.82,1.84-2.73,2.76c-0.4,0.33-0.8,0.65-1.2,0.98c-1.54,0-3.33-0.83-4.61,0.15    c-0.72,0.56-1.87,1.9-1.87,2.8c-2.17,1.47-4.46,2.88-6.09,4.91c-0.46,0.46-0.92,0.92-1.38,1.38c-5.83,2.08-10.74,6.27-14.74,10.81    c-0.56,0.88-1.13,1.77-1.7,2.65c-0.95,0.37-2.02,3.13-2.04,4.04c-0.88,1.42-1.36,1.94-1.97,3.54c-0.29,0.76-1.53,2.69-1.38,3.34    c-0.46,0.79-0.92,1.57-1.38,2.36c-0.33,0.33-0.66,0.66-0.98,0.98c-0.79,0.92-1.57,1.84-2.36,2.75c-0.89,0.81-1.78,1.61-2.67,2.42    c-1.06,0.91-2.57,0.99-3.81,1.51c-0.52,0.46-1.05,0.92-1.57,1.38c-1.74,1.07-3.58,1.83-5.04,3.29c-0.58,0.06-0.91,0.35-1.25,0.84    c-0.79,0.2-1.57,0.39-2.36,0.59c-1.3-0.51-5.25-1.37-5.68,0.2c-0.2,0.59-0.41,1.18-0.61,1.77c0.17,1.79,0.64,4.72,2.44,5.26    c1.68,0.43,3.36,0.86,5.04,1.29c0.53,0.12,1.59,0.97,1.62,1.11c0.12,0.8,0.35,2.12,0.56,2c0.54-0.43,1.09-0.86,1.63-1.3    c0.37-0.4,0.73-0.79,1.09-1.19c0.78-0.28,1.76-0.37,2.36,0.29c0.84-0.15,2.07-0.49,2.75,0.2c0.47-0.03,1.01,0.09,1.38-0.2    c3.16,0.55,5.84,2.76,7.67,5.34c0.98,0.91,1.97,1.81,2.95,2.72c0.41,0.52,0.81,1.04,1.22,1.56c1.85,1.48,3.42,3.62,4.53,5.68    c0.31,0.57,1.3,1.72,1.06,2.37c-0.59,1.91-2.95,5-1.71,6.9c0.48,0.74,0.53,1.17,1.36,1.65c0,0.11,0.01,0.21,0.01,0.32    c0.06-0.01,0.12-0.02,0.18-0.04c0.82-0.16,3.28-0.75,3.75,0.04c1.24-0.4,2.48-0.81,3.72-1.21c0.46-0.06,0.93-0.11,1.39-0.17    c0.46,0.07,0.92,0.13,1.38,0.2c2.03,0.72,4.06,1.44,6.09,2.16c1.28,0.45,2.83,0.13,4.08,0.8c1.26,0.58,2.52,1.17,3.78,1.75    c2.19,3.65,2.79,7.14,3.36,11.39c0.48,1.49,0.96,2.99,1.44,4.48c0.9,3.22,1.81,6.43,2.71,9.65c0.45,1.34,1.26,4.3,0.95,5.54    c0.46,1.05,0.92,2.1,1.38,3.15c0.32,1.09,0.64,2.19,0.96,3.28c0.26,0.72,0.36,1.94,1.01,2.42c0.24,1.05,0.48,2.11,0.71,3.16    c0.71,1.88,1.72,3.65,1.84,5.68c0.19-0.11,0.37-0.22,0.56-0.33c1.39-0.68,2.77-1.35,4.16-2.03c0.98-0.92,1.97-1.83,2.95-2.75    c0.31-0.72,1.18-2.42,0.79-3.15c0.14-0.58,0.28-1.15,0.42-1.73c0-1.15,0.03-1.83,0.76-2.78c0.19-0.22,0.39-1.08,0.19-1.19    c0.42-0.18,0.83-0.36,1.25-0.55c1.06-0.35,2.84-0.18,3.4-1.28c1.46-2.64,0.96-5.7,0.91-8.6c0.13-1.4,0.27-2.8,0.4-4.21    c-0.21-2.53,0-5.43,0.68-7.9c0.52-1.91,1.5-3.2,2.88-4.45c0.57-0.51,1.13-1.01,1.7-1.52c0.92-1.11,1.83-2.23,2.75-3.34    c0.92-1.64,1.83-3.28,2.75-4.91c0.03-1.02,0.26-1.92,0.06-2.95c-0.43-1.12-0.86-2.23-1.28-3.35c-0.4-2.29-0.32-5.03-0.02-7.33    c-0.12-0.3,0.23-3.61,0.34-3.81c0.7-1.2,2.34-3.19,3.69-3.53c1.48-0.29,2.96-0.59,4.44-0.88c0.34-0.58,0.68-1.16,1.03-1.74    c0.06-0.52,0.13-1.05,0.2-1.57c0.59-1.57,2.23-2.95,3.54-3.93c0.52-0.66,1.05-1.31,1.57-1.97c1.54-0.88,3.09-1.75,4.63-2.63    c0.19-0.72,1.53-0.98,0.65-1.23l-0.4-0.11c-0.85-0.44-1.65-0.93-2.91-1.54c-1.58-0.65-3.15-1.3-4.73-1.95    c-3.27-0.4-6.55-0.81-9.82-1.21c-2.36,0.01-4.72,0.02-7.08,0.03c-1.94-0.44-6.29-1.42-8.06-0.79c-3.36-1.72-7.08-3.38-9.48-6.2    c-1.21-1.42-0.7-3.54-0.55-5.2c0-1.25,0-2.49,0-3.74c0-2.99-0.59-5.89-0.55-8.85c0.21-1.63,0.42-3.27,0.63-4.9    c0.08-1.38,0.16-2.76,0.23-4.15c0.04-0.49-0.07-1.2,0.28-1.56c-0.26-2.03-0.52-4.06-0.79-6.09c-0.26-0.85-0.52-1.7-0.79-2.56    c-1.79-2.72-5.21-6-7.72-8.15L216.97,99.44z"/>
            <circle cx="214.21" cy="184.76" r="1.586"/>
        </g>
        <g id="__Kaman">
            <path d="    M142.08,299.15c-1.59-0.15-1.96-3.44-3.73-2.75c-0.12-0.46-0.24-0.91-0.36-1.37c-0.07-0.37,0.5-0.73,0.75-0.99    c0-0.2,0-0.39,0-0.59c-0.39-0.52-0.79-1.05-1.18-1.57c-0.64-1.16-0.42-2.11-1.38-3.34c-0.39-0.26-0.78-0.52-1.17-0.77    c-0.46-0.41-1.02-1.47-1.78-1.19c-0.32-0.67-0.9-1.73-0.59-2.36c-0.14,0.05-0.28,0.11-0.42,0.17c-0.42,0.17-0.68,0.24-0.96,0.62    c-0.73-0.53-2.08-1.68-2.56-0.39c-0.14-0.28-0.28-0.56-0.42-0.85c-0.58-1.63,0.01-3.31-0.37-5.05c-0.22,0.16-0.43,0.33-0.65,0.49    c-1.18,0.86-1.29,2.72-2.89,2.49c-0.6-0.69,0.14-0.96-1.07-1.51c-0.61-0.17-1.12,0.02-1.49-0.5c-0.33,0.2-0.66,0.39-0.98,0.59    c-0.25-0.9-0.96-1.6-1.97-1.77c-0.31-1.34-0.65-1.18-1.97-1.18c-0.16-0.27-0.31-0.53-0.47-0.8c-0.68-0.07-1.01-0.02-1.5,0.41    c-0.2-0.66-0.39-1.31-0.59-1.97c-0.65,0-1.31,0-1.97,0c-0.1-1.1-0.01-1.71-1.03-2.28c-0.67-0.35-0.49,1.52-1.23,0.83    c-0.55-0.5-0.87-1.69-0.69-2.48c-0.42-0.04-1.11,0.14-1.29-0.23c-0.39-0.82-0.51-0.8-0.28-1.73c-0.77-0.41-1.35-0.55-1.89-1.27    c0.66-1.64,0.67-0.9,0.32-2.67c-0.41-0.27-1.43-0.32-1.33-0.85c0.1-0.7,0.26-1-0.24-1.51c-0.2-0.19-0.4-0.39-0.6-0.58    c-0.71,0.28-1.34,0.46-1.77-0.39c-0.53,0.05-1.29,0.55-1.61,0.14c-0.02-0.04-0.05-0.08-0.07-0.12c-0.42,0.15-0.51,0.34-0.45-0.02    c0.06-0.79,0.11-1.57,0.17-2.36c-0.44,0.2-0.94,0.36-1.18,0.79c-1.98,0-3.12-1.67-5.13-1.95c-0.45-0.33-0.91-0.66-1.36-1    c0.1-0.06,0.21-0.11,0.31-0.17c0.4-0.31,0.8-0.63,1.2-0.94c-0.24-0.16-0.48-0.31-0.72-0.47c0.69-0.65,1.16-1.68,1.97-1.97    c-0.17-0.14-0.35-0.28-0.52-0.42c-1.99-1.06-3.99-2.12-5.98-3.18c-0.58-0.23-1.16-0.45-1.74-0.68l0.39-0.04    c0.36-1.26-1.37-3.4-2.05-4.42c-1.33-1.96-3.34-3.54-5.61-4.23c-0.75,0.41-2.52,0-3.34-0.2c-0.26-0.86-2.13-1.86-2.95-2.36    c-0.73,0.65-1.61,0-2.25-0.53c-0.72-0.63-0.58-2-0.7-3.01c-0.46-0.15-0.54-0.57-0.79-0.98c-0.95,0.15-1.77-1.07-2.55-1.57    c-0.71,0-0.86-0.03-1.33-0.58c-0.78-1.03,0.73-2.15,1.55-3.15c0.06-0.07,0.11-0.14,0.17-0.2c0.06,0.16,2.26,1.26,2.59,1.29    c0.45,0.04,0.73,0.12,1.14-0.11c0.54-2.17-0.51-2.93,1.57-4.72c-0.47-1.41-1.51-2.33-2.56-3.34c-0.13-0.9-0.45-1.35-0.79-2.16    c0.93-0.74,0.64-1.45,0.23-2.48c-0.94,0.28-1.88,0.56-2.81,0.84c-0.05,0.02-0.11,0.05-0.17,0.07c0-0.18,0-0.35-0.01-0.53    c-0.91-0.41-0.99-1.33-1.17-2.22c-0.12-0.09-0.25-0.18-0.37-0.28c-0.45-0.68-0.86,0.33-1.41-0.08c-0.74-1.08-0.55-2.72-0.38-4.16    c-0.13-0.26-0.26-0.52-0.39-0.79c-0.41,0.1-0.64-0.17-0.98-0.39c0.48-0.82-0.9-1.91-1.18-2.75c-0.4,0.08-0.64-0.17-0.98-0.39    c0.31-0.43-0.56-2.65-0.59-3.54c-0.47-0.07-0.47-0.32-0.72-0.7c0,0-0.84,0.11-1.05,0.11c-0.78-0.2-1.57-0.39-2.35-0.59    c0-0.25-1.18-1.35-1.47-1.67c-0.29-0.36-0.59-0.72-0.88-1.09c-0.89,0.29-3.12-2.28-3.63-3c-0.03-0.05-0.07-0.1-0.1-0.15    c0.82-0.22,0.98-1.32,1.38-1.97c0.28-0.1,0.56-0.21,0.84-0.31c1.28-0.77,5.72,0.24,7.42,0.51c0.44-0.32,0.86-0.1,1.38-0.2    c0.64-0.28,1.29-0.56,1.93-0.85c1.65-1.03,3.3-2.06,4.94-3.08c0.59-0.2,1.18-0.39,1.77-0.59c0.92-0.07,1.83-0.13,2.75-0.2    c1.31,0.26,2.62,0.52,3.93,0.79c0.74,0.38,1.49,0.76,2.23,1.14c1.77,1.12,3.35,1.73,5.24,2.6c1.18,0.07,2.36,0.13,3.54,0.2    c1.58-0.27,3.15-0.53,4.73-0.8c2.79-0.39,5.22-2.01,7.65-3.33c0.53-1.12,2.82-2.77,3.93-3.34c1.31-0.52,2.62-1.05,3.93-1.57    c2.53-1.84,5.59-2.83,8.32-4.37c2.34-1.33,4.27-3.23,6.2-5.05c2.12-2.1,4.23-4.2,6.35-6.3c0.84-0.75,1.75-1.94,2.88-2.22    c0.6-0.38,1.2-0.75,1.81-1.12c0.85-0.07,1.7-0.13,2.55-0.2c1.89,0.43,3.55,1.17,5.11,2.36c0.16,0.97,2.5,2.92,3.24,3.64    c1.85,1.49,3.71,2.99,5.56,4.48c1.61,1.19,3.54,0.03,5.15-0.45c0.52-0.46,1.05-0.92,1.57-1.38c2.11-1.33,2.68-6.02,3.34-8.45    l0.22-0.75c0.54-0.43,1.09-0.86,1.63-1.3c0.37-0.4,0.73-0.79,1.09-1.19c0.78-0.28,1.76-0.37,2.36,0.29    c0.84-0.15,2.07-0.49,2.75,0.2c0.47-0.03,1.01,0.09,1.38-0.2c3.16,0.55,5.84,2.76,7.67,5.34c0.98,0.91,1.97,1.81,2.95,2.72    c0.41,0.52,0.81,1.04,1.22,1.56c1.85,1.48,3.42,3.62,4.53,5.68c0.31,0.57,1.3,1.72,1.06,2.37c-0.59,1.91-2.95,5-1.71,6.9    c0.48,0.74,0.53,1.17,1.36,1.65c0,0.11,0.01,0.21,0.01,0.32c0.06-0.01,0.12-0.02,0.18-0.04c0.82-0.16,3.28-0.75,3.75,0.04    c1.24-0.4,2.48-0.81,3.72-1.21c0.46-0.06,0.93-0.11,1.39-0.17c0.46,0.07,0.92,0.13,1.38,0.2c2.03,0.72,4.06,1.44,6.09,2.16    c1.28,0.45,2.83,0.13,4.08,0.8c1.26,0.58,2.52,1.17,3.78,1.75c2.19,3.65,2.79,7.14,3.36,11.39c0.48,1.49,0.96,2.99,1.44,4.48    c0.9,3.22,1.81,6.43,2.71,9.65c0.45,1.34,1.26,4.3,0.95,5.54c0.46,1.05,0.92,2.1,1.38,3.15c0.32,1.09,0.64,2.19,0.96,3.28    c0.26,0.72,0.36,1.94,1.01,2.42c0.24,1.05,0.48,2.11,0.71,3.16c0.71,1.88,1.72,3.65,1.84,5.68l-0.22-0.2    c-0.86,0.54-2.19,1.01-2.58,1.07c-1.21,0.19-2.63,0.99-3.69,1.68c-0.56-0.28-2.03,0.25-2.54,0.56c-0.4,0.14-0.8,0.28-1.2,0.42    c-0.56,0.38-1.13,0.75-1.7,1.13c-1.25,0.92-2.51,1.76-3.41,3c-0.66,0.85-1.31,1.7-1.97,2.56c0.24,1.36-2.08,4.77-2.95,5.9    c-0.67,0.51-1.33,1.02-2,1.54c-2.8,1.83-5.32,3.77-7.04,6.72c-0.33,0.79-0.66,1.57-0.98,2.36c-0.16,0.86-0.33,1.71-0.49,2.57    c-0.29,1.77-0.59,3.53-0.88,5.3c-1.31,0.72-2.06,4.08-2.63,5.45c-0.65,1.58-1.9,2.69-2.78,4.12c-0.88,1.85-1.77,3.71-2.65,5.57    c-0.67,0.15-1.32,1.03-1.77,1.57c-0.79,0.64-1.59,1.29-2.38,1.93c-1.17,0.73-2.34,1.47-3.51,2.2c-0.66,0.26-1.31,0.52-1.97,0.79    c-1.13-0.31-3.88,0.9-5.11,1.18c-0.98-0.13-1.97-0.26-2.95-0.39c-0.93-0.43-1.86-0.87-2.79-1.3c-1.99-0.85-4.58-1.12-6.56-1.19    c-1.5-0.34-3.26-0.57-4.71,0.14c-0.41,0.07-1.16,0.14-1.47,0.19c-2.88,0.77-5.49,2.22-8.26,3.08L142.08,299.15z"/>
            <circle cx="145.62" cy="217.52" r="1.586"/>
        </g>
        <g id="__Mucur">
            <path d="    M424.14,246.67c-0.63-0.04-0.87-0.8-1.38-1.18c-0.65-0.42-1.31-0.84-1.96-1.27c-4-2.13-8-4.27-12-6.4    c-1.92-0.64-3.36-1.46-4.91-2.56c-0.85-0.48-1.7-0.96-2.56-1.44c-0.84-0.49-1.67-0.98-2.51-1.47c-0.76-0.31-1.52-0.62-2.27-0.93    c-0.24-0.09-0.48-0.19-0.73-0.28l-0.13-0.06c-0.53,0.9-1.06,1.78-1.6,2.65c-0.35,1.03-0.7,2.06-1.05,3.1    c-0.56,2.31-1.15,4.28-1.15,6.69c0,2.29,0.19,5.67-1.42,7.4c-0.96,1.03-2.4,1.11-3.69,1.28c-1.24,0.05-2.49,0.1-3.73,0.15    c-0.72,0.14-1.44,0.27-2.16,0.41c-0.85-0.03-1.7-0.06-2.55-0.09c-3.49,0.28-7.2,0.18-10.82,0.29c-1.92,0.06-3.81-0.17-5.7,0.2    c-0.79-0.31-3.32-0.14-4.13,0.2c-0.61-0.44-3.77-0.15-4.52,0.2c-0.47-0.37-1.93-0.26-2.55-0.2c-0.72,0.2-1.44,0.39-2.16,0.59    c-0.38,0.05-0.91,0.07-1.18-0.2c-1.12,0.31-2.24,0.61-3.36,0.92c-0.45,0.08-0.68-0.21-1.06-0.46c-0.03-0.48-0.07-0.96-0.1-1.44    c-0.42-0.18-0.84-0.36-1.26-0.54c-0.49-0.08-0.64,0.36-0.9,0.74c-0.99,0-1.67,1-2.36,1.57c-0.59-0.48-1.28,0.34-1.97,0.39    c-1.44,0.07-2.88,0.13-4.32,0.2c-0.26,0.13-0.52,0.26-0.79,0.39c-0.91,0.21-1.9-0.25-2.75,0.39c-0.39,0.33-0.79,0.66-1.18,0.98    c-0.82,1.66-1.63,3.31-2.45,4.97c-0.33,1.04-0.31,2.14-1.03,2.97c-1.22,1.14-2.44,2.28-3.66,3.42c-1.48,1.19-2.63,2.76-4.16,3.91    c-2,2.38-4,4.76-6,7.14c-1.43,1.59-2.89,2.92-3.98,4.8l0.12,0.2c-0.7,1.3-1.33,2.63-1.84,4.05c-0.71,0.47-1.53,2.45-1.97,3.31    c-0.59,1.25-1.18,2.51-1.77,3.77c-0.84,1.67-1.69,3.34-2.53,5.01c-0.78,1.55-1.84,3.29-2.19,5.02c-0.66,2.75-1.31,5.5-1.97,8.26    c0.25,0.75,0.25,1.7,0.53,2.54c-0.2,0.63,0.32,1.03,0.74,1.51c0.91,1.06,1.95,2.27,3.27,2.8c0.52,0.6,1.04,1.2,1.55,1.8    c1.31,1.93,1.09,4.67,0.79,6.88c-0.28,2.04-0.66,4.09-1.39,6.03c-0.6,1.56-1.44,2.93-1.75,4.59c0.07,0.92,0.13,1.83,0.2,2.75    c0.24,0.33,0.47,0.65,0.71,0.98c1.05,1.41,1.24,2.54,0.87,4.33c-0.96,1.55-1.91,3.1-2.87,4.64c-1.16,2.94-2.33,5.89-3.49,8.83    c-0.19,0.66-0.67,1.94-0.82,2.52c-1.24,2.06-2.15,4.03-1.86,6.41c0,0.79,1.79,2.32,2.25,2.99c1.08,1.54,2.19,3.6,3.05,5.46    c0.72,0.46,1.44,0.92,2.16,1.38c0.98,1.05,1.97,2.1,2.95,3.15c0.87,1.19,2.7,2.56,3.54,3.15c1.61-0.57,5.86,1.62,7.47,2.36    c0.33,0.26,0.65,0.52,0.98,0.79c0.33,0.79,0.66,1.57,0.98,2.36c0.85,0.59,1.7,1.18,2.56,1.77c1.78,0.7,3.29,1.6,4.83,2.71    c1.62,1.16,2.64,3.39,3.81,4.96c0.68,0.04,0.91,0.44,1.31,0.91c0.87-0.19,1.74-0.39,2.61-0.58c3.4-0.32,6.62-3.97,8.87-6.4    c0.78-0.92,1.56-1.85,2.34-2.77c0.19-0.54,0.45-1.14,0.77-1.75c0.66-1.45,1.32-2.9,1.98-4.34c0.33-1.18,0.65-2.36,0.98-3.54    c1.17-2.16,2.33-4.32,3.5-6.48c0.52-0.72,1.03-1.45,1.55-2.17c0.87-1.9,1.74-3.8,2.62-5.7c-0.3-0.61,0.2-1.3,0.2-1.97    c0.28-1.83,0.56-3.67,0.84-5.5c0.43-1.8,3.37-2.56,5.06-3.14c0.79-0.59,1.57-1.18,2.36-1.77c0.42-1.14,1.86-1.76,2.56-2.75    c0.72-0.72,1.44-1.44,2.16-2.16c0.33-0.33,0.65-0.66,0.98-0.98c0.12-0.24,0.24-0.49,0.36-0.73c0.99-0.81,1.99-1.62,2.98-2.43    c1.97-1.7,3.94-3.39,5.9-5.09c0.19-0.97,1.39-1.23,1.7-2.16c0.42-0.33,0.83-0.65,1.25-0.98c0.79-0.72,1.57-1.44,2.36-2.16    c1.5-1.59,3.64-2.46,5.7-3.14c0.98,0,1.97,0,2.95,0c1.37,0.38,2.75,0.76,4.12,1.14c0.07,0.01,0.66-0.8,1-1.27    c0.72-1,0.75-4.3,0.6-5.58c-1.26-1.18-4-3.66-3.8-3.95c-0.27-1.06,0.17-1.58,0.63-2.54c-0.07-0.52-0.13-1.05-0.2-1.57    c-1.47-0.78-1.72-3.3-2.36-4.72c-0.57-1.26-1.1-2.06-2.16-2.95c-0.01-0.53-0.34-0.83-0.65-1.26c-1.19-1.75,1.49-3.94,2.03-5.42    c0.47-1.3,1.37-2.42,2.16-3.54c0.26-0.52,0.52-1.05,0.79-1.57c0.33-0.52,0.66-1.05,0.98-1.57c0-1.12,1.44-2.23,2.16-2.95    c0.97,0.06,1.56-1.01,2.16-1.57c0.65-0.14,1.07-0.76,1.57-1.18c0.86,0.26,2.1-1.08,2.75-1.57c0.31-0.47,0.62-0.94,0.93-1.41    c0.41-0.91,0.82-1.81,1.23-2.72c0.79-3.41,1.57-6.81,2.36-10.22c0.79-1.38,1.58-2.76,2.36-4.15c1.87-2.73,3.62-5.42,5.9-7.85    c2.06-1.95,4.12-3.9,6.18-5.85c1.02-0.73,2.03-1.47,3.05-2.21c0.46-0.65,0.92-1.31,1.38-1.97c0.39-0.85,0.79-1.7,1.18-2.56    c0-1.11,0-2.23,0-3.34C424.8,248.37,424.47,247.52,424.14,246.67z M368.81,278.86c-0.66,1.13-0.3,1.07-0.3,2.21    c-1.11,1.31-1.47,1.5-1.41,3.32c0.03,0.41,0.18,0.41-0.35,0.41c-0.29,0.62-0.42,0.2-0.99,0.2c-0.4,0.31-0.8,0.62-1.2,0.93    c-0.32,0.28-0.64,0.56-0.96,0.84c-0.49-0.29-0.83-0.13-1.38,0c-0.52,0.79-1.05,1.57-1.57,2.36c-0.52,0.39-1.05,0.79-1.57,1.18    c-0.25,0.25-2.98,0.06-3.54,0c-0.46,0.07-0.92,0.13-1.38,0.2c-0.59-0.07-1.18-0.13-1.77-0.2c-1-0.75-2.01-1.51-3.01-2.26    c-0.9-0.66-3.19,0.7-4.07,1.08c-0.72,0.07-1.44,0.13-2.16,0.2c-0.95,0.11-3.01-1-3.93-1.38c-0.8,0.48-2.14,0.03-2.75-0.59    c-0.79-0.33-1.57-0.65-2.36-0.98c-0.39,0-0.79,0-1.18,0c-0.89-0.89-1.99-1.33-2.79-2.35c-1.33-1.69-0.36-4.4-0.36-6.3    c-0.13-0.26-0.26-0.52-0.39-0.79c-0.72-0.59-1.45-1.18-2.17-1.77c-1.06-1.1,0.83-3.11,1.38-3.93c-0.07-0.52-0.13-1.05-0.2-1.57    c0.58-0.84,0.98-1.96,1.18-2.95c0-0.85,0-1.7,0-2.56c0.5-0.68,0.43-1.56,0.59-2.36c0.99-0.62,0.83-2.5,1.12-3.52    c0.12-0.44,0.17-0.56,0.63-0.74c0.08-0.01,0.82,0.82,1.39,0.92c0.85-0.07,1.7-0.13,2.56-0.2c0.1,0.12,0.21,0.25,0.31,0.37    c0.29,0.14,0.58,0.27,0.87,0.41c-0.16,1.42,1.77,2.94,1.77,3.73c0.94,0.94,2.02,2.1,2.56,3.34c0.39,0.79,0.79,1.57,1.18,2.36    c0.79,0.85,1.58,1.7,2.36,2.56c0.07,0.19,0.14,0.39,0.22,0.58c0.53,0.53,1.02,0.73,1.71,1.06c0.47,0.25,0.81-0.63,0.82-1.06    c0.04-1.48,0.31-2.66,0.2-4.13c0.13-0.2,0.26-0.39,0.39-0.59c0.33,0.72,0.66,1.44,0.98,2.16c-0.2,0.46-0.39,0.92-0.59,1.38    c-0.12,0.59,0.26,0.94,0.59,1.38c0,1.53-0.44,2.81-0.39,4.32c0,0.5,0.42,0.39,0.79,0.39c1.26-1.26,3.22-0.2,4.91-0.2    c0.33-0.13,0.66-0.26,0.98-0.39c0.09-1.09,2.54-1,3.15-0.39c0.32-0.32,0.57-0.12,0.98-0.2c0.36-0.07,2.75-1.52,2.75-0.2    c0.26,0.13,0.52,0.26,0.79,0.39c1.01,0,0.91,0.27,1.97-0.2c0.67,0.24,1.1,0.65,1.57,1.18c0.83,0.11,1.67,0.22,2.51,0.33    c0.08,0.02,0.16,0.04,0.25,0.07C369.27,277.58,369.04,278.22,368.81,278.86z"/>
            <circle cx="333.99" cy="327.68" r="1.586"/>
        </g>
        <g id="__Boztepe">
            <path d="    M317.72,175.96c-0.37,0.94-0.92,2.55-1.29,3.48c-0.84,0.78-1.68,1.56-2.52,2.34c-0.2,0.07-0.41,0.14-0.61,0.21    c-0.66,0.69-1.55,2.04-2.56,2.16c0,0.39-0.7,1.05-0.97,1.2c-0.65,0.37-1.66,1.52-2.48,1.89c-0.96,0.98-1.46,1.68-2.42,2.66    c-0.44,0.78-0.78,1.57-1.3,2.18c-0.52,0.66-0.67,1.49-1.19,2.15c-0.14,0.44-0.82,1.09-1.5,1.84c-0.52,0.69-1.02,1.57-1.74,2.25    c-0.85,1.54-2.27,2.48-3.82,4.54c-0.31,0.58-1.75,1.53-2.06,2.11c-1.04,1.45-2.08,2.89-3.12,4.34c-0.53,0.78-1.06,1.56-1.6,2.35    c-1.18,0.92-2.36,1.83-3.54,2.75c-0.84,0.59-0.99,0.95-1.76,1.36c-0.51,0.41-1.06,0.47-1.38,1c0.08,2.34,1.74,4.46,2.43,6.76    c0.24,1.09,0.47,2.17,0.71,3.26c-0.12,0.47-0.12,1.05-0.2,1.38c-1.14,2.38-2.82,4.38-3.34,7.08c-0.13,2.16-0.26,4.33-0.39,6.49    c-0.2,1.51-0.39,3.01-0.59,4.52c-0.13,1.51-0.26,3.01-0.39,4.52c0,1.77,0,3.54,0,5.31c0.31,1.43,0.61,2.86,0.92,4.29    c0.46,1.32,0.91,2.64,1.37,3.96c0.94,0.7,1.15,1.97,1.81,2.87c1.06,1.53,2.12,3.07,3.18,4.6c1.81,1.46,3.63,2.92,5.44,4.39    c0.44,0.31,1.32,1.22,1.83,1.12c0.87,0.76,1.72,1.43,2.75,1.97c0.79,0.52,1.57,1.05,2.36,1.57c0.26,0.26,0.52,0.52,0.79,0.79    c1.24,0.66,2.48,1.32,3.72,1.98c0.48,0.28,1.61,0.7,1.73,0.45c1.09-1.87,2.55-3.2,3.98-4.8c2-2.38,4-4.76,6-7.14    c1.52-1.15,2.68-2.72,4.16-3.91c1.22-1.14,2.44-2.28,3.66-3.42c0.72-0.84,0.7-1.93,1.03-2.97c0.82-1.66,1.63-3.31,2.45-4.97    c0.39-0.33,0.79-0.66,1.18-0.98c0.85-0.65,1.84-0.18,2.75-0.39c0.26-0.13,0.52-0.26,0.79-0.39c1.44-0.07,2.88-0.13,4.32-0.2    c0.69-0.06,1.38-0.88,1.97-0.39c0.69-0.57,1.37-1.57,2.36-1.57c0.26-0.38,0.41-0.82,0.9-0.74c0.42,0.18,0.84,0.36,1.26,0.54    c0.03,0.48,0.07,0.96,0.1,1.44c0.39,0.25,0.61,0.54,1.06,0.46c1.12-0.31,2.24-0.61,3.36-0.92c0.27,0.27,0.8,0.24,1.18,0.2    c0.72-0.2,1.44-0.39,2.16-0.59c0.62-0.06,2.09-0.17,2.55,0.2c0.76-0.34,3.91-0.64,4.52-0.2c0.81-0.34,3.33-0.5,4.13-0.2    c1.89-0.37,3.78-0.14,5.7-0.2c3.62-0.11,7.33-0.01,10.82-0.29c0.85,0.03,1.7,0.06,2.55,0.09c0.72-0.14,1.44-0.27,2.16-0.41    c1.24-0.05,2.49-0.1,3.73-0.15c1.28-0.17,2.73-0.25,3.69-1.28c1.62-1.73,1.42-5.11,1.42-7.4c0-2.41,0.6-4.38,1.15-6.69    c0.35-1.03,0.7-2.06,1.05-3.1c0.54-0.87,1.08-1.76,1.6-2.65c1.79-3.04,3.46-6.19,4.88-9.36c0.49-1.09,1.39-2.69,1.46-3.72    c-0.1-0.49-0.51-0.6-0.67-0.75c-0.31-0.26-0.61-0.51-1.02-0.86c-1.31-0.52-2.62-1.05-3.93-1.57c-0.78-0.53-1.57-1.06-2.35-1.58    c-1.57-1.04-3.15-2.09-4.72-3.13c-2.02-0.67-4.04-1.34-6.06-2.01c-1.5-0.55-3-1.11-4.5-1.66c-1.35-0.47-2.74-1.22-4.18-1.24    c-0.85-0.13-1.7-0.26-2.56-0.39c-2.73-0.77-5.46-1.55-8.19-2.32c-3.1-0.67-6.84-2.15-9.7-3.48c-0.58-0.15-1.02-1.5-1.57-1.47    c-0.43-0.46-0.78-0.98-1.38-1.18c-0.09-0.28-0.17-0.55-0.26-0.83c-0.45-1.88-0.46-3.69,0.85-5.26c0.45-0.54,0.53-1.47,1.18-1.77    c0.2-2.19,0.7-4.08,0.41-6.28c-0.19-0.93-0.39-1.85-0.58-2.78c-1-1.12-3.12-2.89-4.74-2.54c-0.77-0.4-3.69-1.01-3.93-1.38    c-0.55,0.03-1.4-0.04-1.77,0.39c-2.46-0.15-5.05,0.21-7.47,0.98c-0.46,0.07-0.92,0.13-1.38,0.2c-2.03,0.52-4.06,1.05-6.09,1.57    c-0.64-0.36-3.16-1.33-3.93-1.18c-1.12-0.5-2.16-0.72-3.33-1.02C319.25,176.22,318.64,175.86,317.72,175.96z"/>
            <circle cx="300.21" cy="250.29" r="1.586"/>
        </g>
        <g id="__Kırşehir">
            <path d="    M194.36,335.12c-0.19-0.62-0.79-0.91-0.79-1.57c-1.15-0.83-3.1-1.31-3.42-2.62c-0.11-0.11-0.21-0.22-0.32-0.33    c0.6-1.53,2.01-3.19,1.69-4.8c0.35-0.4,0.29-0.3,0.04-0.7c-1.11-1.82-1.77-4.25-4.26-4.34c-0.14-0.06-0.28-0.13-0.42-0.19    c-1.17,0.15-2.35,0.3-3.52,0.45c-0.79-0.09-2.46-0.75-2.77-1.44c-0.97,0.08-1.94,0.16-2.91,0.23c-1.22-1.18-2.3-0.55-3.68-0.42    c-0.93,0.09-2.22,1.08-3.05,0.39c-0.45,0.03-0.79-0.04-0.98,0.39c-1.12-0.67-3.35-1.35-4.13-0.2c-0.33-0.13-0.66-0.26-0.98-0.39    c-1.68-0.41-3.17,0.16-4.74,0.56c-0.31,0.08-1.4,0.59-1.58,0.13c-0.13-0.34-0.38-0.66-0.22-0.92c0.38-0.61,0.46-1.42,1.23-1.74    c0.15-0.6,0.03-1.07,0.59-1.38c-0.14-0.19-0.27-0.38-0.41-0.57c-1.5-1.77-3-3.55-4.5-5.33c-0.2-0.66-0.39-1.31-0.59-1.97    c-0.67,0.23-0.87,0.66-1.54,0.39c-0.13-0.06-0.25-0.13-0.38-0.19c-0.56-0.01-0.73-1.11-0.83-1.58c-0.55,0.35-1.09,0.52-1.18,1.18    c-0.1-0.06-0.21-0.12-0.31-0.18c-0.5-0.3-1.62-1.56-1.85-0.61c-0.37-0.34-0.44-0.58-0.98-0.59c0.03-0.13,0.05-0.25,0.08-0.37    c0-0.17,0-0.34,0.01-0.51c-0.78-0.66-1.56-0.95-2.49-1.39c-0.44-0.42-0.88-0.84-1.33-1.27c-0.49-0.39-1.4-0.32-1.46-0.73    c-0.1-0.24-0.2-0.48-0.29-0.72c0.14-0.06,0.27-0.12,0.41-0.18c-0.05-0.92,0.04-1.62-0.42-2.49l0.98-0.06    c2.77-0.86,5.38-2.32,8.26-3.08c0.31-0.06,1.06-0.13,1.47-0.19c1.45-0.71,3.21-0.48,4.71-0.14c1.98,0.07,4.57,0.34,6.56,1.19    c0.93,0.43,1.86,0.87,2.79,1.3c0.98,0.13,1.97,0.26,2.95,0.39c1.23-0.28,3.98-1.49,5.11-1.18c0.66-0.26,1.31-0.52,1.97-0.79    c1.17-0.73,2.34-1.47,3.51-2.2c0.79-0.64,1.59-1.29,2.38-1.93c0.45-0.54,1.1-1.42,1.77-1.57c0.88-1.85,1.77-3.71,2.65-5.57    c0.88-1.43,2.13-2.53,2.78-4.12c0.56-1.38,1.32-4.74,2.63-5.45c0.29-1.77,0.59-3.53,0.88-5.3c0.16-0.85,0.33-1.71,0.49-2.57    c0.33-0.79,0.66-1.57,0.98-2.36c1.72-2.95,4.24-4.89,7.04-6.72c0.67-0.51,1.33-1.02,2-1.54c0.87-1.13,3.19-4.54,2.95-5.9    c0.66-0.85,1.31-1.7,1.97-2.56c0.9-1.24,2.16-2.08,3.41-3c0.57-0.38,1.13-0.75,1.7-1.13c0.4-0.14,0.8-0.28,1.2-0.42    c0.51-0.31,1.98-0.84,2.54-0.56c1.05-0.69,2.48-1.49,3.69-1.68c0.39-0.06,1.73-0.53,2.58-1.07l0.78-0.13    c1.39-0.68,2.77-1.35,4.16-2.03c0.98-0.92,1.97-1.83,2.95-2.75c0.31-0.72,1.18-2.42,0.79-3.15c0.14-0.58,0.28-1.15,0.42-1.73    c0-1.15,0.03-1.83,0.76-2.78c0.19-0.22,0.39-1.08,0.19-1.19c0.42-0.18,0.83-0.36,1.25-0.55c1.06-0.35,2.84-0.18,3.4-1.28    c1.46-2.64,0.96-5.7,0.91-8.6c0.13-1.4,0.27-2.8,0.4-4.21c-0.21-2.53,0-5.43,0.68-7.9c0.52-1.91,1.5-3.2,2.88-4.45    c0.57-0.51,1.13-1.01,1.7-1.52c0.92-1.11,1.83-2.23,2.75-3.34c0.92-1.64,1.83-3.28,2.75-4.91c0.03-1.02,0.26-1.92,0.06-2.95    c-0.43-1.12-0.86-2.23-1.28-3.35c-0.4-2.29-0.32-5.03-0.02-7.33c-0.12-0.3,0.23-3.61,0.34-3.81c0.7-1.2,2.34-3.19,3.69-3.53    c1.48-0.29,2.96-0.59,4.44-0.88c0.34-0.58,0.68-1.16,1.03-1.74c0.06-0.52,0.13-1.05,0.2-1.57c0.59-1.57,2.23-2.95,3.54-3.93    c0.52-0.66,1.05-1.31,1.57-1.97c1.54-0.88,3.09-1.75,4.63-2.63c0.19-0.72,1.04-0.97,1.04-0.97c0.53-0.04,2.25,0.51,2.76,0.58    c1.33,0.13,2.66,0.25,3.99,0.38c1.04,0.03,2.07,0.06,3.11,0.09c0.42-0.09,1.42,0.11,1.85-0.09l0.07-0.03    c0.64,0.07,3.17,0.02,3.59-0.47c0.52,0.39,1.05,0.79,1.57,1.18c0.46,0.13,0.92,0.26,1.38,0.39c0.65,1.74,2.95,4.85,4.32,6.09    c1.83,1.31,3.67,2.62,5.5,3.93c2.82,1.51,5.63,3.01,8.45,4.52c3.67,1.14,7.34,2.28,11.01,3.42l0.11,0.17    c-0.37,0.94-0.92,2.55-1.29,3.48c-0.84,0.78-1.68,1.56-2.52,2.34c-0.2,0.07-0.41,0.14-0.61,0.21c-0.66,0.69-1.55,2.04-2.56,2.16    c0,0.39-0.7,1.05-0.97,1.2c-0.65,0.37-1.66,1.52-2.48,1.89c-0.96,0.98-1.46,1.68-2.42,2.66c-0.44,0.78-0.78,1.57-1.3,2.18    c-0.52,0.66-0.67,1.49-1.19,2.15c-0.14,0.44-0.82,1.09-1.5,1.84c-0.52,0.69-1.02,1.57-1.74,2.25c-0.85,1.54-2.27,2.48-3.82,4.54    c-0.31,0.58-1.75,1.53-2.06,2.11c-1.04,1.45-2.08,2.89-3.12,4.34c-0.53,0.78-1.06,1.56-1.6,2.35c-1.18,0.92-2.36,1.83-3.54,2.75    c-0.84,0.59-0.99,0.95-1.76,1.36c-0.51,0.41-1.06,0.47-1.38,1c0.08,2.34,1.74,4.46,2.43,6.76c0.24,1.09,0.47,2.17,0.71,3.26    c-0.12,0.47-0.12,1.05-0.2,1.38c-1.14,2.38-2.82,4.38-3.34,7.08c-0.13,2.16-0.26,4.33-0.39,6.49c-0.2,1.51-0.39,3.01-0.59,4.52    c-0.13,1.51-0.26,3.01-0.39,4.52c0,1.77,0,3.54,0,5.31c0.31,1.43,0.61,2.86,0.92,4.29c0.46,1.32,0.91,2.64,1.37,3.96    c0.94,0.7,1.15,1.97,1.81,2.87c1.06,1.53,2.12,3.07,3.18,4.6c1.81,1.46,3.63,2.92,5.44,4.39c0.44,0.31,1.32,1.22,1.83,1.12    c0.87,0.76,1.72,1.43,2.75,1.97c0.79,0.52,1.57,1.05,2.36,1.57c0.26,0.26,0.52,0.52,0.79,0.79c1.24,0.66,2.48,1.32,3.72,1.98    c0.48,0.28,1.61,0.7,1.73,0.45l0.12,0.2c-0.7,1.3-1.33,2.63-1.84,4.05c-0.71,0.47-1.53,2.45-1.97,3.31    c-0.59,1.25-1.18,2.51-1.77,3.77c-0.84,1.67-1.69,3.34-2.53,5.01c-0.78,1.55-1.84,3.29-2.19,5.02c-0.66,2.75-1.31,5.5-1.97,8.26    c0.25,0.75,0.25,1.7,0.53,2.54c-0.2,0.63,0.32,1.03,0.74,1.51c0.91,1.06,1.95,2.27,3.27,2.8c0.52,0.6,1.04,1.2,1.55,1.8    c1.31,1.93,1.09,4.67,0.79,6.88c-0.28,2.04-0.66,4.09-1.39,6.03c-0.6,1.56-1.44,2.93-1.75,4.59c0.07,0.92,0.13,1.83,0.2,2.75    c0.24,0.33,0.47,0.65,0.71,0.98c1.05,1.41,1.24,2.54,0.87,4.33c-0.96,1.55-1.91,3.1-2.87,4.64c-1.16,2.94-2.33,5.89-3.49,8.83    c-0.19,0.66-0.67,1.94-0.82,2.52c-1.24,2.06-2.15,4.03-1.86,6.41c0,0.79,1.79,2.32,2.25,2.99c1.08,1.54,2.19,3.6,3.05,5.46    c0.72,0.46,1.44,0.92,2.16,1.38c0.98,1.05,1.97,2.1,2.95,3.15l-3.54,2.95c-0.41,0.93-0.67,2-0.61,3.02    c0.17,3.41,0.97,7.04,2.38,10.15c0.28,0.94,0.57,1.88,0.85,2.82c0.44,0.83,0.88,1.66,1.31,2.49c-0.05,1.97-0.11,3.93-0.16,5.9    c-0.06,0.69,0.22,2.64-0.37,2.91c-1.35,0.6-2.1-0.31-3.64-0.52c-1.03,0.06-2.07,0.11-3.1,0.17c-1.33,0.5-2.65,1-3.98,1.5    c-0.45,0.13-1.33,0.23-1.52,0.66c-3.61,0.17-7.11,1.61-10.76,1.23c-0.72-0.07-3.14-0.61-3.59-0.25c-1.83-0.88-3.6-1.6-5.34-2.78    c-0.68-0.63-1.36-1.26-2.03-1.89c-0.8-0.08-1.44-1.08-1.95-1.7c-0.93-1.13-2.24-2.12-3.06-3.46c-1.05-1.11-2.1-2.23-3.15-3.34    c-1.57-0.92-3.15-1.83-4.72-2.75c-0.62-0.24-1.25-0.48-1.87-0.72c-0.75-0.61-1.5-1.22-2.25-1.84c-0.52-0.59-1.05-1.18-1.57-1.77    c-1.17-5.88-2.58-11.89-2.2-17.89c0.01-1.44,0.03-2.88,0.04-4.32c-0.52-1.51-1.05-3.01-1.57-4.52c-2.29-1.94-4.55-3.7-7-5.42    c-1.07-0.68-2.15-1.37-3.22-2.05c-1.99-0.82-3.9-1.73-5.92-2.52c-2.16-0.85-4.04-1.93-5.49-3.77c-0.43-0.54-1.36-1.07-1.49-1.6    c-0.7-3.01-0.77-6.17-0.28-9.21c-0.86-1.4-0.52-3.23-2.03-4.61c-1.09-0.89-2.19-1.77-3.28-2.66c-1.11-0.26-1.87-0.87-2.36-1.97    c-0.43-0.23-0.82-0.31-0.98-0.79c-1.28-0.2-2.85-0.34-3.89-1.17c-0.37-0.01-0.44,0.29-0.63,0.58c-0.92,0-1.84,0-2.75,0    c-0.31-0.31,0.27-1.38-0.2-1.38c-1.42,0-2.77,0.38-4.13,0.4c-0.55,0.01-1.38-0.21-1.77,0.19c-0.28-0.4-0.96-1.93-1.4-1.61    c-0.18,0.12-0.36,0.25-0.54,0.37c-0.06,1.09-0.21,2.19-0.61,3.21c-0.59,0-1.18,0-1.77,0L194.36,335.12z"/>
            <circle cx="271.75" cy="296.76" r="1.586"/>
        </g>
    </g>
</svg>