<?xml version="1.0" encoding="UTF-8"?>
<!DOCTYPE svg PUBLIC "-//W3C//DTD SVG 1.1//EN" "http://www.w3.org/Graphics/SVG/1.1/DTD/svg11.dtd">
<svg version="1.1" id="HaritaCizim" xmlns="http://www.w3.org/2000/svg" xmlns:xlink="http://www.w3.org/1999/xlink" x="0px" y="0px" viewBox="0 0 431 500" preserveAspectRatio="none">
    <defs id="__def">
        <radialGradient id="f">
            <stop offset="0" stop-color="white" stop-opacity="1"/>
            <stop id="STOP1" offset=".4" stop-opacity="1"/>
            <stop offset="1" stop-color="white" stop-opacity=".2"/>
        </radialGradient>
        <filter id="__flt1" x="0" y="0" width="200%" height="200%" filterUnits="objectBoundingBox">
            <feGaussianBlur in="SourceAlpha" stdDeviation="3" result="blur1"/>
            <feSpecularLighting result="specOut" in="blur1" specularConstant="1.5" specularExponent="20" lighting-color="#bbbbbb">
                <feDistantLight azimuth="45" elevation="30"/>
            </feSpecularLighting>
            <feComposite in="specOut" in2="SourceAlpha" operator="in" result="specOut"/>
            <feComposite in="SourceGraphic" in2="specOut" operator="arithmetic" k1="0" k2="1" k3="1" k4="0"/>
        </filter>
        <filter id="__flt2" x="0" y="0" width="200%" height="200%" filterUnits="objectBoundingBox">
            <feGaussianBlur in="SourceAlpha" stdDeviation="3" result="blur1"/>
            <feSpecularLighting result="specOut" in="blur1" specularExponent="20" lighting-color="#bbbbbb">
                <fePointLight x="-2000" y="100" z="2000"/>
            </feSpecularLighting>
            <feComposite in="specOut" in2="SourceAlpha" operator="in" result="specOut"/>
            <feComposite in="SourceGraphic" in2="specOut" operator="arithmetic" k1="0" k2="1" k3="1" k4="0"/>
        </filter>
        <filter id="__flt3" x0="-50%" y0="-50%" width="200%" height="200%" filterUnits="objectBoundingBox">
            <feGaussianBlur in="SourceAlpha" stdDeviation="3" result="blur"/>
            <feOffset in="blur" dx="0" dy="0" result="offsetBlur"/>
            <feSpecularLighting in="blur" surfaceScale="4" specularConstant=".5" specularExponent="20" lighting-color="flavor" result="specOut">
                <fePointLight x="-5000" y="-10000" z="5000"/>
            </feSpecularLighting>
            <feComposite in="specOut" in2="SourceAlpha" operator="in" result="specOut"/>
            <feComposite in="SourceGraphic" in2="specOut" operator="arithmetic" k1="0" k2="1" k3="1" k4="0" result="litPaint"/>
            <feMerge>
                <feMergeNode in="offsetBlur"/>
                <feMergeNode in="litPaint"/>
            </feMerge>
        </filter>
        <filter id="__flt4" x0="-50%" y0="-50%" width="200%" height="200%">
            <feGaussianBlur in="SourceAlpha" stdDeviation="2" result="blur"/>
            <feOffset dy="-1" dx="-1"/>
            <feComposite in2="SourceAlpha" operator="arithmetic" k2="-1" k3="1" result="hlDiff"/>
            <feFlood flood-color="white" flood-opacity=".7"/>
            <feComposite in2="hlDiff" operator="in"/>
            <feComposite in2="SourceGraphic" operator="over" result="withGlow"/>
            <feOffset in="blur" dy="3" dx="3"/>
            <feComposite in2="SourceAlpha" operator="arithmetic" k2="-1" k3="1" result="shadowDiff"/>
            <feFlood flood-color="black" flood-opacity="1"/>
            <feComposite in2="shadowDiff" operator="in"/>
            <feComposite in2="withGlow" operator="over"/>
        </filter>
        <filter id="__golge1" x="0" y="0" width="200%" height="200%" filterUnits="userSpaceOnUse">
            <feOffset result="offOut" in="SourceAlpha" dx="8" dy="8"/>
            <feGaussianBlur result="blurOut" in="offOut" stdDeviation="3"/>
            <feBlend in="SourceGraphic" in2="blurOut" mode="normal"/>
        </filter>
    </defs>
    <g id="__Komsular" display="none">
        <path fill-rule="evenodd" clip-rule="evenodd" fill="none" stroke="#000000" stroke-width="0.25" d="M294.26,84.84   c3.27-0.75,5.98-5.85,9.04-7.5c1.08-0.5,2.17-1.01,3.25-1.51c1.94-0.1,3.89-0.19,5.83-0.29c1.38,0.1,2.75,0.19,4.13,0.29   c1.32,0.02,3.6-0.8,4.75,0c1.02-0.29,2.03-0.59,3.05-0.88c0.52-0.28,1.08-1.02,1.7-0.93c1.79-2.03,3.06-4.39,4.98-6.34   c0.6-1.06,1.21-2.11,1.81-3.17c0.63-0.72,1.25-1.45,1.88-2.17c0.73-1.16,1.46-2.32,2.19-3.49c0.66-2.57,0.68-5.29,1.28-7.9   c0.49-2.02,0.99-4.05,1.49-6.07c0-1.3,1.05-5.8,1.78-6.87c0.97-1.24,1.94-2.49,2.91-3.73c0.47-0.6,0.88-1.45,1.6-1.68   c0.57-1.26,1.25-2.42,2.21-3.42c0.54-0.6,1.09-1.19,1.63-1.79c0.63-0.42,1.27-0.84,1.9-1.26c0.68-0.98,2.67-5.42,2.17-6.44   c0.13-0.57,0.15-1.07,0.68-1.36c0-1.21,0-2.41,0-3.62c-1.26,0-1.81-1.99-1.81-3.17c-0.23-0.34-0.45-0.68-0.68-1.03   c-0.81-1.49-1.43-3.21-1.81-4.86c-0.23-0.53-0.45-1.06-0.68-1.58c-0.29-1.36-0.58-2.73-0.86-4.09"/>
        <path fill-rule="evenodd" clip-rule="evenodd" fill="none" stroke="#000000" stroke-width="0.25" d="M346.67,291.04   c1.56,0.08,3.13,0.15,4.69,0.23c0.46-0.46,2.34-0.73,2.94-0.45c2.11-2.11,5.93-1.85,8.49-0.69c2.16,0.98,3.65,2.38,5.43,3.92   c1.63,1.41,3.07,2.48,4.18,4.46c0,2.48,0.12,4.99,0.68,7.47c0.36,0.61,0.72,1.22,1.08,1.83c0.24,0.75,0.49,1.49,0.73,2.24   c0.85,1.26,1.7,2.52,2.55,3.78c1.59,2.19,2.89,4.47,4.92,6.41c1.28,0.98,2.56,1.96,3.85,2.94c1.87,0.64,3.8,1.62,5.43,2.72   c2.63,0.78,5.26,1.57,7.89,2.35c0.62,0.04,1.23,0.09,1.85,0.13c1.38,0,2.47-0.36,3.85,0c0.6-0.15,1.21-0.3,1.81-0.45   c0.53,0.15,1.06,0.3,1.58,0.45c1.21,0.08,2.41,0.15,3.62,0.23"/>
        <linearGradient id="SVGID_1_" gradientUnits="userSpaceOnUse" x1="106.8894" y1="347.5405" x2="145.1969" y2="347.5405">
            <stop offset="0" style="stop-color:#FFFFFF;stop-opacity:0"/>
            <stop offset="1" style="stop-color:#7696CD"/>
        </linearGradient>
        <path fill-rule="evenodd" clip-rule="evenodd" fill="url(#SVGID_1_)" stroke="#000000" stroke-width="0.25" d="M134.33,317.52   c0.73,1.49,1.11,4.23,0.37,5.55c0.14,0.59-0.04,3.08-0.49,3.39c-1.26,0.78-2.72,0.38-3.76,1.62c-0.45,0.63-0.89,1.26-1.34,1.89   c0,0.9,0.55,1.21,0,2c0.13,0.21,0.45,0.91,0,1.17c-0.23,0-0.45,0-0.68-0.01c-0.91-0.15-1.81-0.3-2.72-0.45c-0.48,0-0.96,0-1.44,0   c-0.2,0.08-0.4,0.16-0.59,0.23c-0.64,0.12-1.28,0.23-1.92,0.35c-0.19,0.26-0.39,0.51-0.58,0.77c0.08,1.06,0.16,2.12,0.23,3.18   c-0.68-0.3-1.36-0.6-2.04-0.91c0.62,1.1,1.32,2.14,0.23,3.17c0.23,0.1,0.47,0.2,0.7,0.3c0.38,0.08,0.76,0.16,1.14,0.23   c0.67,1.69-0.04,3.86,1.34,5.11c1.28,0.76,2.56,1.52,3.84,2.28c1.15,0.19,3.84,0.63,4.53,1.58c0.38,0.15,0.75,0.3,1.13,0.45   c1.5,0.3,3.59,0.79,4.16,2.12c0,0.61,0.49,2.39-0.06,2.55c-2.44,0.87-3.37,1.22-6.03,0.96c-0.47,0.22-0.65,0.85-0.71,1.1   c-0.46,1.56-1.39,2.4-2.57,2.09c-0.87-0.06-0.97-0.25-1.81,0.45c-0.8,0.66-1.98,2.45-2.04,3.39c-1.21,0.91-1.2,1.75-2.4,2.66   c-0.54,0.59-0.95,1.63-1.36,2.04c-0.24,0.08-0.98-0.25-1.22-0.17c-0.38,0.38-0.75,0.75-1.13,1.13c-0.11,0.48-0.21,0.66,0,1.13   c-0.25,0.8-0.87,2.03-0.23,2.72c-0.32,1.11-0.13,1.77,0.01,2.89c0.67,0.89,3.18,1.87,1.26,3.08c-0.3,0.23-0.6,0.83-0.08,0.59   c0.93-0.43,1.96-1.31,2.47-2.14c0.56-0.99,0.95-4.03-0.04-4.87c0.04-0.52,0.07-1.05,0.11-1.57c-0.17-0.85-0.76-1.35-0.21-2.15   c0.98-1.39,1.98-2.78,3.25-3.97c0.07-0.24,0.14-0.49,0.21-0.73c0.62-0.97,1.24-1.93,1.85-2.9c0.97-0.39,2.14-0.6,3.11-0.99   c0.99-0.51,0.96-1.61,1.78-2.14c1.62-1.05,1.32-0.2,2.81-0.28c1.56-0.08,3.07-0.95,3.85-2.19c0.71-1.14,0.49-3.47-0.46-4.34   c-0.86-0.76-3.25-1.35-4.24-2.23c-0.38-0.15-2.2-0.33-2.57-0.48c-1.39-0.09-2.09-0.42-3.14-0.93c-0.11-0.15-0.22-0.3-0.33-0.45   c-0.92-1.54-0.79-3.64-0.01-5.2c0.22-0.44-0.33-0.32,0.23-0.65c0.63-0.3,1.69-0.79,2.36-0.49c0.39-0.71,0.13-0.68,1.13-0.68   c-0.36-0.17-0.72-0.35-1.08-0.52c0-0.85,1.19-3.12,1.99-3.78c-0.34-1.81-0.64-3.49,0.54-5.11c-0.14-0.51,0.79-1.17,1.27-1   c0.45-0.3,0.91-0.6,1.36-0.91c0.45-0.53,0.91-1.06,1.36-1.58c0.15-0.38,0.3-0.75,0.45-1.13c-0.06-0.87-0.51-2.49,0.23-3.17   c-0.25-1.08-0.49-2.01-0.33-3.1c-0.12-0.29-0.69-1.99-1.1-1.58C134.73,317.12,134.53,317.32,134.33,317.52z"/>
        <path fill-rule="evenodd" clip-rule="evenodd" fill="none" stroke="#000000" stroke-width="0.25" d="M370.59,231.32   c1.46-0.7,3.93-0.8,5.43-0.02c1.89-0.06,3.78-0.13,5.66-0.19c0.9,0.14,2.43-0.16,3.16,0.42c0.91-0.08,1.81-0.15,2.72-0.23   c1.21-1.21,2.97-1.18,4.5-1.69c3.67-1.22,7.44-2.47,11.34-1.9c4.56,0.66,8.7,3,13.3,3.25c0.55,0.12,1.09,0.23,1.64,0.35   c1.32,0.05,3.04-0.45,4.07-1.13"/>
        <linearGradient id="SVGID_2_" gradientUnits="userSpaceOnUse" x1="109.3218" y1="386.4575" x2="118.5339" y2="386.4575">
            <stop offset="0" style="stop-color:#FFFFFF;stop-opacity:0"/>
            <stop offset="1" style="stop-color:#7696CD"/>
        </linearGradient>
        <path fill-rule="evenodd" clip-rule="evenodd" fill="url(#SVGID_2_)" stroke="#000000" stroke-width="0.25" d="M117.36,382.47   c0.18,0.73,1.43,2.87,1.13,3.17c-0.3,0.38-0.6,0.75-0.91,1.13c-0.45,0.91-0.91,1.81-1.36,2.72c0,0-2.35,1.69-3.53,0.57   c-0.56-0.49-1.12-0.98-1.68-1.47c0-0.98-0.18-2.94-1.58-2.94l-0.11,0.34c2.09-3.06,3.33,2.36,5.43,2.26   c1.82-0.08,2.22-1.89,2.43-3.37L117.36,382.47z"/>
        <path fill-rule="evenodd" clip-rule="evenodd" fill="none" stroke="#000000" stroke-width="0.25" d="M73,55.23   c1.18-1.18,3.96-3.06,5.66-3.17c0.91-1.36,1.81-2.72,2.72-4.07c0.52-0.75,1.79-1.72,1.85-2.73c0.51-0.37,1.03-0.74,1.54-1.12   c0.68-0.15,1.36-0.3,2.04-0.45c0.02-0.52,0.05-1.04,0.07-1.56c-0.25-0.76-0.5-1.53-0.75-2.29c-0.44-0.62-1.13-1.27-1.13-2.04   c-0.62-0.23-1.35-0.24-1.41-0.93c-0.07-1.07-0.31-2.22,0.34-3.18c0.26-0.31,0.52-0.61,0.78-0.92c0.71-1.26,1.13-2.25,2.11-3.35   c1.83-2.04,6.87-2.61,9.5-2.72c1.33-0.39,2.66-0.78,3.99-1.17c5.13-0.14,10.26,0.02,15.25,0.72c1.58,0.08,3.17,0.15,4.75,0.23   c1.74,0.98,3.47,1.96,5.21,2.94c2.81,1.19,5.35,1.76,7.69,3.85c0.63,0.89,1.25,1.77,1.88,2.66c1.57,2.09,2.68,4.23,3.86,6.56   c0.35,0.62,0.7,1.24,1.05,1.87c0.5,1.26,1.4,3.31,2.72,3.85c0.29,0.31,0.59,0.62,0.88,0.93c1.59,0.07,3.18,0.13,4.77,0.2   c0.02,0.61,0.04,1.22,0.06,1.83c2.81,0.3,4.8-1.1,7.21-2.2c0.82-0.25,1.64-0.51,2.45-0.76c1.28,0.45,2.57,0.91,3.85,1.36   c0.61,0.34,1.22,0.67,1.83,1.01c1.65,0.07,3.3,0.14,4.94,0.21c2.11,0.17,4.08,0.57,6.12,1.04c0.68,0,1.36,0,2.04,0   c0.45,0.03,0.91,0.05,1.13,0.45c0.74,0.01,1.47,0.02,2.21,0.04c1.69,0.3,5.81,2.96,6.12,4.73"/>
        <path fill-rule="evenodd" clip-rule="evenodd" fill="none" stroke="#000000" stroke-width="0.25" stroke-miterlimit="10" d="   M106.49,447.76c-2.14,0.58-3.49,1.82-3.13,4.26c1.11,0.64,2.56,1.69,3.42,2.7c0.71,0.83,1.06,2.38,1.91,3.06   c1.16,0.93,2.65,0.23,3.75,1.01c1.2,0.85,1.14,2.55,1.3,3.9c0.34,2.99,1.26,5.09,3.22,7.42c1.4,1.66,5.18,4.06,4.97,6.12   c1.02,0.45,1.7,1.73,2.91,1.63c1.14-0.09,1.25-1.51,2.67-1.33c1,1.77,3.15,3.68,2.94,5.86c-0.19,1.9-1.45,4.07-1.8,6.07   c-1.68,0.15-3.07-1.2-4.71-0.32c-2.01,1.08-1.95,3.44-1.19,5.11c0.59,1.31,1.72,2.73,2.77,3.62c1.3,1.11,1.87,1.6,2.98,3.13"/>
        <text transform="matrix(0.9838 0.1793 -0.1793 0.9838 229.333 22.5479)" font-family="'MyriadPro-Regular'" font-size="10.8627">ÇANKIRI</text>
        <text transform="matrix(0.5407 0.8412 -0.8412 0.5407 377.1301 116.2407)" font-family="'MyriadPro-Regular'" font-size="10.8627">ÇORUM</text>
        <text transform="matrix(0.9522 0.3056 -0.3056 0.9522 370.0503 268.834)" font-family="'MyriadPro-Regular'" font-size="10.8627">YOZGAT</text>
        <text transform="matrix(0.664 -0.7478 0.7478 0.664 280.2854 437.135)" font-family="'MyriadPro-Regular'" font-size="10.8627">KIRŞEHİR</text>
        <text transform="matrix(0.5361 -0.8442 0.8442 0.5361 67.9883 164.0137)" font-family="'MyriadPro-Regular'" font-size="10.8627">ANKARA</text>
        <text transform="matrix(0.4851 0.8744 -0.8744 0.4851 32.7878 390.262)" font-family="'MyriadPro-Regular'" font-size="10.8627">ANKARA</text>
    </g>
    <g id="__Harita" display="none">
        <rect id="__cer" x="0" y="0" fill="#000000" opacity="0" width="431" height="500"/>
        <g id="__Sulakyurt">
            <path d="M187.5,56.01    c0.94-0.07,1.88-0.14,2.82-0.21c1.99-0.41,3.91-0.26,5.91,0.26c0.23-0.1,4.16,0.02,4.6,0.11c0.55,0.2,1.1,0.41,1.66,0.61    c1.08,0.23,3.37,1.38,3.8,2.52c1.29,0,2.41,0.04,3.58,0.53c1.07,0.5,2.14,1,3.21,1.51c0.38,0.08,0.75,0.15,1.13,0.23    c0.57,0.37,1.14,0.74,1.71,1.1c0.63,0.33,1.49,0.44,1.91-0.2c3.36,0.93,5.78,1.98,9.27,1.1c0.83-0.29,1.66-0.58,2.5-0.88    c0.53-0.15,1.06-0.3,1.58-0.45c0.13-0.19,0.26-0.38,0.39-0.57c0.32-0.19,0.65-0.38,0.97-0.57c1.06-0.08,2.11-0.15,3.17-0.23    c0.91-0.3,1.81-0.6,2.72-0.91c1.7,0.05,5.67,0.47,6.22,2.45c1.06,3.75,2.46,8.77,5.1,11.8c1.3,1.5,3.78,2.84,5.66,3.39    c1.57,0.62,3.14,1.24,4.71,1.85c0.95,0.27,1.9,0.55,2.86,0.82c1.17,0.17,2.35,0.33,3.52,0.5c1.18,0.12,4.73-0.68,6.11-0.68    c2.21-0.03,6.01-0.07,3.37,0.2c1.8-0.12,3.79,0.19,5.68,0.48c0.37,0.37,1.28,0.45,1.81,0.45c1.29,0.89,2.97,1.46,4.54,1.8    c2.04,0.45,5.34,0.33,6.49,2.52c0.73,1.46,0.89,2.94,1.2,4.5c0.23,0.45,0.46,0.9,0.69,1.35c0.37,0.98,0.75,1.97,1.12,2.95    c0.99,2.27,2.08,4.51,2.94,6.79c0.36,0.94,1.13,1.69,1.13,2.72c0.6,0.84,1.67,1.75,1.36,2.94c-0.68,2.41-1.36,4.83-2.04,7.24    c-0.35,0.43-0.7,0.87-1.05,1.3c-0.33,0.7-0.66,1.4-0.99,2.09c-0.38,0.38-0.75,0.75-1.13,1.13c-0.88,1.05-0.91,2.41-1.41,3.58    c-0.21,0.62-0.42,1.24-0.62,1.85c-0.38,0.83-0.75,1.66-1.13,2.49c-0.69,0.69-3.07,2.72-4.07,2.49c-0.98,0.6-1.96,1.21-2.94,1.81    c-0.38,0.38-0.75,0.75-1.13,1.13c-0.6,0.23-1.21,0.45-1.81,0.68c-0.3,0.15-0.6,0.3-0.91,0.45c-0.91,0.91-1.81,1.81-2.72,2.72    c-0.22,1.11-0.73,1.57-1.36,2.49c-0.45,0.91-0.91,1.81-1.36,2.72c0,1.13-0.7,1.83-1.21,2.79c-1.02,1.91-3.14,6-4.9,7.17    c-1.38,0.92-3.38,1.24-4.98,1.58c-1.28,0.27-2.05-0.6-3.11-0.08c-0.74,0.36-1.57,1.02-1.64,1.9c-0.53,0.23-1.06,0.45-1.58,0.68    c-0.53,0.53-1.06,1.06-1.58,1.58c-2.58,1.67-7.79,1.48-10.86,1.58c-0.83,0.23-1.66,0.45-2.49,0.68c-3.17,0.62-5.12,0.97-8.15-0.68    c-1.12,0.12-2.24,0.25-3.36,0.37c-0.62,0.18-1.23,0.36-1.85,0.54c-1.12,0.86-2.24,1.73-3.37,2.59c-0.31,0.95-0.62,1.9-0.93,2.84    c-0.6,0.6-1.21,1.21-1.81,1.81c-2.59,1.46-5.22,2.42-8.1,3.12c-0.62,0.17-1.24,0.33-1.85,0.5c-1.96,0.98-3.92,1.96-5.88,2.94    c-0.96,0.22-1.92,0.45-2.88,0.67c-1.23,0.45-2.47,0.9-3.7,1.34c-0.75,0.31-1.5,0.62-2.25,0.93c-3.17,0.83-6.34,1.66-9.5,2.49    c-1.58-0.38-3.17-0.75-4.75-1.13c-0.6-0.6-1.21-1.21-1.81-1.81c-0.38-0.15-0.75-0.3-1.13-0.45c-1.13-0.75-2.26-1.51-3.39-2.26    c-0.74,0-2-0.39-3.33-0.95c-2.03-0.85-4.24-2.09-5.04-2.89c-0.97,0-2.1-0.12-2.98,0.38c-0.42,0.24-1.2,0.43-0.87,0.76    c-0.56,0.31-1.58,1.04-2.25,0.84c-1.07-0.34-2.88-0.73-2.67-2.16c0.33-1.64,0.27-3.11,1.1-4.66c0.87-0.77,1.74-1.55,2.6-2.32    c1.84-1.91,3.68-3.82,5.52-5.74c-0.02-0.72,0.3-1.15,0.45-1.81c0.45-2.19,0.91-4.38,1.36-6.56c0.4-3.69-1.33-7.41-2.42-10.89    c-0.4-1.35-0.8-2.7-1.2-4.05c-0.07-1.73-0.14-3.47-0.21-5.21c0.09-1.04,0.18-2.09,0.28-3.13c-0.17-0.84-0.34-1.68-0.52-2.52    c0.25-1.43,0.49-2.86,0.74-4.29c0.57-2.14,1.99-3.4,3.11-5.22c0.3-0.83,0.6-1.66,0.91-2.49c-0.06-2.04-0.85-5.49,0.45-7.24    c1.43-1.43,2.87-2.87,4.3-4.3c0.51-0.51,0.76-1.35,1.36-1.58c-0.06-0.16-0.13-0.32-0.19-0.47c-1.69-4.29-2.23-9.34-0.12-13.49    c0.58-1.15,0.35-2.38,1.15-3.32c0.31-0.36,0.78-0.94,1.22-0.64c0.64,0.18,2.89,2.8,3.71,1.98c0.44-0.41,1.24-1.06,1.24-1.7    c0.08-0.45,0.15-0.91,0.23-1.36c-0.12-0.54-1.07-2.62,0.24-2.74c0.74-0.06,2.95-0.22,3.37-0.66c1.33-1.33,1.25-5.25,0.69-7.02    c0.11-0.11,0.23-0.21,0.34-0.32c-0.11-0.72-0.23-1.45-0.34-2.17c-0.53-1.13-1.06-2.26-1.58-3.39c-1.49-1.92-3.31-3.31-4.98-4.98    C187.06,56.25,187.28,56.13,187.5,56.01z"/>
            <circle cx="213.08" cy="134.55" r="1.586"/>
        </g>
        <g id="__Delice">
            <path d="M302.93,106.83    c-0.68,2.41-1.36,4.83-2.04,7.24c-0.35,0.43-0.7,0.87-1.05,1.3c-0.33,0.7-0.66,1.4-0.99,2.09c-0.38,0.38-0.75,0.75-1.13,1.13    c-0.88,1.05-0.91,2.41-1.41,3.58c-0.21,0.62-0.42,1.24-0.62,1.85c-0.38,0.83-0.75,1.66-1.13,2.49c-0.69,0.69-3.07,2.72-4.07,2.49    c-0.98,0.6-1.96,1.21-2.94,1.81c-0.38,0.38-0.75,0.75-1.13,1.13c-0.6,0.23-1.21,0.45-1.81,0.68c-0.3,0.15-0.6,0.3-0.91,0.45    c-0.91,0.91-1.81,1.81-2.72,2.72c-0.22,1.11-0.73,1.57-1.36,2.49c-0.45,0.91-0.91,1.81-1.36,2.72c0,1.13-0.7,1.83-1.21,2.79    c-1.02,1.91-3.14,6-4.9,7.17c-1.38,0.92-3.38,1.24-4.98,1.58c-1.28,0.27-2.05-0.6-3.11-0.08c-0.74,0.36-1.57,1.02-1.64,1.9    c-0.53,0.23-1.06,0.45-1.58,0.68c-0.53,0.53-1.06,1.06-1.58,1.58v0.49c0.1,3.22,2,4.97,3.85,7.43c0.6,0.98,1.21,1.96,1.81,2.93    c2.73,3.37,4.48,5.32,4.75,9.74c0.09,1.43-0.73,2.51-1.13,3.85c0.52,0.52-0.45,2.29-0.68,2.94c-0.27,0.76-1.75,4.33-1.58,4.75    c-0.87,1.16-1.43,2.31-2.04,3.62c0.63,0.63-0.11,3.02,0.04,3.83c0.57,4.21,1.13,8.43,1.7,12.64c0.25,2.2,0.5,4.41,0.75,6.61    c0,0.76,0.13,1.95-0.45,2.49c0.08,0.75,0.15,1.51,0.23,2.26c-0.15,0.6-0.3,1.21-0.45,1.81c-0.23,1.45,1.02,4.03-0.23,5.21    c0.08,0.68,0.15,1.36,0.23,2.04c-0.15,0.75-0.3,1.51-0.45,2.26c0.08,1.13,0.15,2.26,0.23,3.39c-0.28,1.54-0.22,2.95-0.24,4.52    c-0.01,0.74,0.14,1.56-0.44,2.04c0.08,0.43,0.16,0.85,0.24,1.28c-0.08,1.08-0.16,2.16-0.24,3.25c-1.04,2.29-2.56,3.87-4.3,5.66    c-0.45,0.91-0.91,1.81-1.36,2.72c-1.28,2.11-2.56,4.22-3.85,6.34c-0.22,0.72-0.44,1.44-0.66,2.16c-0.08,0.94-0.17,1.88-0.25,2.82    c0.34,2.11,1.66,4.12,2.49,6.11c0.75,1.58,1.51,3.17,2.26,4.75c0.23,1.13,0.45,2.26,0.68,3.39c0.75,1.81,1.51,3.62,2.26,5.43    c1.06,1.43,2.11,2.87,3.17,4.3c1.15,0.77,2.67,1.12,4.07,1.58c0.75,0.45,1.51,0.91,2.26,1.36c1.62,0,2.93,0.38,4.53,0.23    c0.6,0.53,1.21,1.06,1.81,1.58c0.15,0.23,0.3,0.45,0.45,0.68c0.75,0.45,1.51,0.91,2.26,1.36c0.91,0.88,1.81,1.76,2.72,2.64    c2.29,2.29,4.05,5.6,4.53,8.9c0.15,1.01-0.38,3.52-0.68,4.53c0.43,1.77,0.31,4.42,2.01,5.2c0.61,0.23,1.23,0.46,1.84,0.69    c0.38,0,0.75,0,1.13,0c0.95-0.78,2.17-1.89,3.39-2.26c0.83-0.08,1.66-0.15,2.49-0.23c2.63,0.92,5.01,2.23,7.51,3.48    c0.94,0.17,1.89,0.33,2.83,0.5c0.48-0.27,0.95-0.54,1.43-0.81c0.9-1.28,1.8-2.57,2.7-3.85c0.59-0.74,1.2-1.38,1.49-2.28    c1.05-1.32,2.09-2.65,3.14-3.97c0.56-0.86,1.12-1.72,1.68-2.58c0.94-1,2.01-2.41,3.43-2.7c2.32-2.32,4.7-4.33,7.47-6.11    c2.65-1.1,5.3-2.19,7.95-3.29c0.83-0.37,2.46-0.69,2.91-1.46c0.92-0.24,3.67-1.36,4.3-1.13c0.38-0.38,0.75-0.75,1.13-1.13    c-0.75-0.91-1.51-1.81-2.26-2.72c0.05-0.4,0.1-0.79,0.15-1.19c-1.69-1.2-3.67-1.46-5.35-2.43c-1.81-1.36-3.62-2.72-5.43-4.07    c-0.6-0.83-1.21-1.66-1.81-2.49c-0.38-0.91-0.75-1.81-1.13-2.72c-0.15-0.53-0.3-1.06-0.45-1.58c0.01-1.21,0.01-2.41,0.02-3.62    c0.22-1.21,0.44-2.41,0.66-3.62c-0.4-0.18-0.34-2.79,0.28-2.82c0.07-0.55,0.15-1.1,0.22-1.66c0.21-0.32,0.42-0.64,0.63-0.95    c0.23-0.02,0.01-1.81-0.02-2.71c-0.16-2.54-0.13-4.64-1.09-7.06c-0.23-0.52-0.47-1.03-0.7-1.55c-0.04-0.96-0.08-1.91-0.12-2.87    c2.28-3.16,5.22-3.34,8.72-3.47c0.38-0.15,0.75-0.3,1.13-0.45c0.98,0,1.96,0,2.94,0c1.21,0.08,2.41,0.15,3.62,0.23    c0.77-0.29,1.55-0.58,2.32-0.86c4.17-0.85,7.39-3.74,11.07-5.53c1.57-1.11,3.14-2.23,4.71-3.34c1.45-0.82,3.06-1.14,4.72-1.47    c0.64-0.16,1.29-0.32,1.93-0.48c1.59-2.53,0.73-6.14,0.42-8.92c-0.09-0.98-0.19-1.95-0.28-2.93c0.24-0.51,0.53-0.78,0.45-1.36    c0.75-0.98,1.51-1.96,2.26-2.94c0.09-0.77,0.06-4.52,0.23-4.75c-1.29-2.47-2.78-4.59-4.75-6.56c-1.83-2.55-3.66-5.1-5.49-7.65    c-2.02-2.8-4.04-5.61-6.05-8.42c-0.83-0.98-1.66-1.96-2.49-2.94c-1.21-1.89-2.41-3.77-3.62-5.66c-1.36-1.73-2.72-3.47-4.07-5.21    c-1.5-1.52-3-3.04-4.5-4.55c-0.61-0.9-1.23-1.79-1.84-2.69c-2.03-1.02-2.96-3.23-4.5-4.8c-2-2.04-3.75-4.46-5.23-6.97    c-0.6-1.84-1.2-3.69-1.8-5.53c-0.16-0.95-0.31-1.9-0.47-2.84c0-1.13,0-2.26,0-3.39c0.23-1.21,0.45-2.41,0.68-3.62    c0.15-0.6,0.3-1.21,0.45-1.81c0.37-1.62,0.69-3.77,0.27-5.33c0.33-0.58-0.11-3.33-0.49-3.95c-0.83-1.33-2.31-2.33-3.61-3.15    c-0.33-0.95-0.76-0.88-1.38-1.53c-1-1.05-3.88-4.05-5.42-3.92c-1.18-0.93-1.89-1.33-2.94-2.38c-0.45-0.3-1.56-1-2.03-1.27    c-1.26-0.71-4.68-2.73-5.89-3.6c-1.28-1.59-2.56-3.17-3.83-4.76c-0.35-0.33-1.22-0.94-1.6-1.33L302.93,106.83z"/>
            <circle cx="315.37" cy="226.89" r="1.586"/>
        </g>
        <g id="__Keskin">
            <path d="M118.09,378.17    c0.93-0.43,1.96-1.31,2.47-2.14c0.56-0.99,0.95-4.03-0.04-4.87c0.04-0.52,0.07-1.05,0.11-1.57c-0.17-0.85-0.76-1.35-0.21-2.15    c0.98-1.39,1.98-2.78,3.25-3.97c0.07-0.24,0.14-0.49,0.21-0.73c0.62-0.97,1.24-1.93,1.85-2.9c0.97-0.39,2.14-0.6,3.11-0.99    c0.99-0.51,0.96-1.61,1.78-2.14c1.62-1.05,1.32-0.2,2.81-0.28c1.56-0.08,3.07-0.95,3.85-2.19c0.71-1.14,0.49-3.47-0.46-4.34    c-0.86-0.76-3.25-1.35-4.24-2.23c-0.38-0.15-2.2-0.33-2.57-0.48c-1.39-0.09-2.09-0.42-3.14-0.93c-0.11-0.15-0.22-0.3-0.33-0.45    c-0.92-1.54-0.79-3.64-0.01-5.2c0.22-0.44-0.33-0.32,0.23-0.65c0.63-0.3,1.69-0.79,2.36-0.49c0.39-0.71,0.13-0.68,1.13-0.68    c-0.36-0.17-0.72-0.35-1.08-0.52c0-0.85,1.19-3.12,1.99-3.78c-0.34-1.81-0.64-3.49,0.54-5.11c-0.14-0.51,0.79-1.17,1.27-1    c0.45-0.3,0.91-0.6,1.36-0.91c0.45-0.53,0.91-1.06,1.36-1.58c0.15-0.38,0.45-0.68,0.45-0.68c0.6-0.79,0.51-1.8,1.06-2.55    c0.96-1.31,1.93-2.58,3.24-3.56c0-1.1,1.14-1.6,1.81-2.26c0-0.79,1.88-2.92,2.49-3.62c0.23-0.38,0.45-0.75,0.68-1.13    c0.75-0.75,1.51-1.51,2.26-2.26c0.4,0.4,0.72-0.59,1.13-0.91c0.6-0.38,1.21-0.75,1.81-1.13c0.15-0.3,0.3-0.6,0.45-0.91    c0.55-0.58,1.11-1.15,1.66-1.73c1.96-2.32,3.52-4.36,5.58-6.42c1.81,0,5.35-2.61,7.01-3.57c0.91-0.47,1.82-0.94,2.72-1.41    c2.51,0,3.75-1.15,5.88-2.04c1.22-0.51,2.17-0.42,3.17-1.36c1.13-0.15,2.26-0.3,3.39-0.45c0.9,0.66,3.43,0.4,4.53,0.23    c0.83,0.34,5.04,0.01,6.05-0.23c1.45-0.35,3.28-1.86,4.36-2.93c1.13-0.24,2.26-0.48,3.39-0.72c1.73-0.26,3.46-0.51,5.18-0.77    c0.24-0.11,0.47-0.21,0.71-0.32c0.83-0.08,1.66-0.15,2.49-0.23c0.98-0.71,2.67-1.08,3.85-0.91c1.91,0.28,3.59,0.84,5.43,1.36    c1.17,0.87,2.34,1.74,3.51,2.6c1.4,1.47,2.79,2.94,4.19,4.41c0.96,0.61,1.84,0.94,2.72,1.81c0.91,0.28,1.82,0.56,2.73,0.84    c0.17-0.06,0.34-0.13,0.51-0.19c3.27,0.12,5.47-3.27,7.4-5.4c0.75-0.6,1.51-1.21,2.26-1.81c0.68-0.68,1.36-1.36,2.04-2.04    c1.33-1.05,2.82-1.76,4.07-2.94c1.83-0.3,4.62-2.34,6.17-3.3c0.96-0.41,1.92-0.82,2.88-1.23c0.96-0.63,1.92-1.27,2.89-1.9    l1.64,0.32c0.23,1.13,0.45,2.26,0.68,3.39c0.75,1.81,1.51,3.62,2.26,5.43c1.06,1.43,2.11,2.87,3.17,4.3    c1.15,0.77,2.67,1.12,4.07,1.58c0.75,0.45,1.51,0.91,2.26,1.36c1.62,0,2.93,0.38,4.53,0.23c0.6,0.53,1.21,1.06,1.81,1.58    c0.15,0.23,0.3,0.45,0.45,0.68c0.75,0.45,1.51,0.91,2.26,1.36c0.91,0.88,1.81,1.76,2.72,2.64c2.29,2.29,4.05,5.6,4.53,8.9    c0.15,1.01-0.38,3.52-0.68,4.53c0.43,1.77,0.31,4.42,2.01,5.2c0.61,0.23,1.23,0.46,1.84,0.69c0.38,0,0.75,0,1.13,0l0.17,0.43    c-0.36,0.99-0.72,1.98-1.07,2.96c-0.3,1.66-0.6,3.32-0.91,4.98c-0.31,2.01-1.28,3.54-0.42,5.64c1.01,2.47,4.5,4.5,6.29,6.35    c0.08,0.08,0.16,0.15,0.23,0.23c-0.26,0.52-0.51,1.03-0.77,1.55c-0.59,1.16-2.93,3.24-4.05,4c-0.8,0.52-2.25,0.28-2.88-0.35    c-0.98,0.24-1.96,0.48-2.94,0.71c-0.92,0.35-1.42,2.03-1.81,2.91c-0.45,0.38-0.91,0.75-1.36,1.13c-2.88,1.13-4.71,3.88-7,5.88    c-1.59,0.85-3.18,1.7-4.77,2.55c-2.56,1.79-5.13,3.58-7.69,5.38c-1.43,1.43-2.87,2.87-4.3,4.3c-0.6,0.93-1.55,2.58-2.62,2.87    c-1.32,2.81-2.63,5.63-3.95,8.44c-1.28,2.56-2.56,5.13-3.85,7.69c-0.77,0.9-1.54,1.8-2.31,2.69c-1.61,1.85-3.29,3.41-5.16,5    c-1.36,0.05-4.35,1.62-5.62,2.33c-2.71,1.53-4.78,3.76-7.73,4.91c-0.98-0.95-2.16,0.44-3.21,0.61c-1.57-0.19-3.15-0.38-4.72-0.57    c-0.97-0.16-0.7,0.92-0.89,1.55c-0.23,0.68-0.45,1.36-0.68,2.04c0.34,0.3,0.68,2.4,0.68,2.94c0.37,0.6,0.74,1.21,1.12,1.81    c0.4,0.76,1.7,0.88,2.53,1.07c1.99,0.61,3.98,1.21,5.98,1.82c0.11,0.47,0.63,2.02,0.78,2.32c0.36,1.28-0.54,2.57-0.68,3.85    c-0.23,0.98-0.45,1.96-0.68,2.94c-0.15,0.3-0.3,0.6-0.45,0.91c-0.95,4.67-5.28,6.28-9.52,6.54c-1.13-0.9-2.25-1.8-3.38-2.69    c-0.9-0.68-1.81-1.36-2.71-2.04c-2.22-1.41-3.85-3.47-5.21-5.66c-1.51-0.75-3.02-1.51-4.53-2.26c-2.16-0.63-4.57,0.81-6.34,1.81    c-1.13,0-3.03,2.66-3.85,3.39c-3.28,2.94-6.01,7.25-10.06,9.22c-0.25-0.14-0.49-0.28-0.74-0.42c-1.4-0.3-2.91-1.91-3.9-2.93    c-1.59-1.73-3.17-3.46-4.76-5.19c-1.06-0.98-2.11-1.96-3.17-2.94c-1.13-1.58-2.26-3.17-3.39-4.75c-1.28-0.83-2.56-1.66-3.85-2.49    c-1.51-0.3-3.02-0.6-4.53-0.91c-0.45-0.38-0.91-0.75-1.36-1.13c-1.1-1.24-1.57-2.63-2.26-4.07c-0.3-0.83-0.6-1.66-0.91-2.49    c-1.21-1.89-2.41-3.77-3.62-5.66c-0.75-0.53-1.51-1.06-2.26-1.58c-0.3-0.45-0.6-0.91-0.91-1.36c0.11-0.74-0.69-2.11-1.13-2.72    c-0.95-1.3-3.82-3.07-5.43-3.39c-0.53,0-1.06,0-1.58,0c-1.89-0.37-3.78-0.74-5.66-1.11c-2.35,0.19-4.69,0.37-7.04,0.56    c-0.44,0.01-0.88,0.03-1.32,0.04c-2.19,0.23-4.51,0.17-6.57,0.96c-0.53,0.15-1.06,0.3-1.58,0.45c0.45-0.91,0.91-1.81,1.36-2.72    c0.3-0.38,0.6-0.75,0.91-1.13c0.3-0.3-0.96-2.44-1.13-3.17c0.23-1.13,0.45-2.26,0.68-3.39c-0.15-0.3-0.3-0.6-0.45-0.91H118.09z"/>
            <circle cx="178.23" cy="341.17" r="1.586"/>
        </g>
        <g id="__Kırıkkale">
            <path d="M136.14,324.76    c-0.06-0.87-0.51-2.49,0.23-3.17c-0.25-1.08-0.49-2.01-0.33-3.1c-0.12-0.29-0.69-1.99-1.1-1.58c-0.2,0.2-0.41,0.41-0.61,0.61    c0.73,1.49,1.11,4.23,0.37,5.55c0.14,0.59-0.04,3.08-0.49,3.39h-0.15c-0.67-0.02-2.48-0.52-3.14-0.54    c-1.77-0.2-4.13-0.74-5.87-0.25c-0.61-0.75-1.86-0.43-2.72-0.23c-0.64-0.51-1.71-0.28-2.49-0.45c-1.58-0.23-3.17-0.45-4.75-0.68    c-1.28-0.68-2.57-1.36-3.85-2.04c-0.83-0.75-1.66-1.51-2.49-2.26c0.29-0.68-0.61-1.82-0.91-2.49c0.15-0.75,0.3-1.51,0.45-2.26    c0.38-2.71,4.64-2.85,6.79-2.72c2.55-1.27,5.1-2.55,7.64-3.82c0.7-0.16,1.39-0.32,2.09-0.48c0.56,0.53,1.56,0.16,2.26,0    c0.58,0.76,4.01,0.57,4.98,0.45c0.13-0.18,0.25-0.36,0.38-0.54c1.5-0.83,1.2-2.77,1.2-4.44c0.79-0.19,1.37-1.69,1.73-2.32    c0.1-0.21-0.85-2.47-1.05-3.11c-0.36-0.58-1.31-1.05-1.91-0.73c-1.35-0.69-2.7-1.38-4.05-2.06c-0.43-0.28-0.85-0.55-1.28-0.83    c0.35-0.44,0.18-0.94,0.13-1.45c-0.07-0.68,0.25-1.36,0.55-1.94c-0.98-1.2,0.04-2.49,1.13-3.17c-0.37-0.86,1.26-2.79,1.81-3.39    c0.45-0.08,0.91-0.15,1.36-0.23c0.12-0.5,1.14-1.22,1.51-1.66c0.17-0.2,0.12-1.64,0.07-2.41c-0.46-0.17-0.43-0.38-0.63-0.81    c-0.77-0.03-1.54-0.07-2.31-0.1c-0.38-0.35-1.52-0.82-2.12-1.26c-0.11-0.08,0.3-0.73,0.4-1.05c0.17-0.55-1.43-2.34-2.02-2.76    l0.78-1.51c0.38-0.67,0.77-1.35,1.15-2.02c1.32,0.17,2.8-1.48,3.41-2.4c0.45-0.48,0.9-0.97,1.34-1.45    c0.23-0.84,0.46-1.68,0.69-2.52c0.03-0.63-0.39-0.71-0.63-1.24c0.14-0.64,0.06-0.9-0.07-1.51c-0.64-2.48,2.45-3.19,4.08-4.24    c0.6-0.91,1.21-1.81,1.81-2.72c0.44-0.78,0.87-1.55,1.31-2.33c0.96-1.24,1.92-2.48,2.89-3.72c0.87-1.41,3.09-5.85,3.03-7.33    c0.89-1.26,1.31-2.54,1.61-4.05c0.4-0.87,0.81-1.74,1.21-2.6c0.81-1.16,1.62-2.33,2.43-3.49c0.37-0.46,0.74-0.92,1.12-1.37    c1.06-2.26,2.11-4.53,3.17-6.79c0.84,0.09,1.55-1.68,2.04-2.26c0.38-0.3,0.75-0.6,1.13-0.91c0.05-1.23,3.14-4.34,4.07-5.21    c0.01-0.98,0.63-1.7,1.13-2.49c0.08-0.45,0.15-0.91,0.23-1.36c-0.08-0.75-0.15-1.51-0.23-2.26c-0.53-1.66-1.06-3.32-1.58-4.98    c-1-0.97-1.37-2.18-2.09-3.35c-0.57-0.73-1.14-1.45-1.7-2.18c-1.65-1.95-3.74-1.19-5.71-0.35c-0.71-0.38-3.14-0.06-4.07,0    c-2.41-1.17-5.09-0.06-7.54-0.86c-0.5,0.29-1.01,0.57-1.51,0.86l-0.38-0.63c-0.02-0.62-0.05-1.24-0.07-1.86    c-0.3-0.91-0.6-1.81-0.91-2.72c-0.53-0.45-1.06-0.91-1.58-1.36c-0.3-0.45-0.6-0.91-0.91-1.36c-0.69-0.62-1.58-0.98-1.58-2.04    c-0.48-0.48-0.88-0.41-1.31-0.95c-0.41-0.52-0.62-1.02-0.95-1.54c-0.38-0.6-2.15-1.57-1.69-2.51c0.71-1.38,1.32-2.93,2.37-4.05    c0.38-0.6,0.75-1.21,1.13-1.81c1.61-0.52,3.22-1.04,4.84-1.56c1.6-0.25,3.07-1.26,4.46-2.1c0.55,0.05,1.1-0.31,1.56-0.64    c0.42-0.3,4.47-2.39,4.98-2.6c0.97-0.52,2.49-1.81,3.85-2.83c0.78-0.54,1.57-1.07,2.35-1.61c1.98-0.85,4.17-1.15,6.27-1.47    c0.75-0.11,1.52-1,2.05-0.18l0.23-0.01c-0.83,1.55-0.78,3.02-1.1,4.66c-0.2,1.43,1.6,1.82,2.67,2.16c0.67,0.2,1.69-0.53,2.25-0.84    c-0.33-0.33,0.45-0.52,0.87-0.76c0.88-0.5,2-0.38,2.98-0.38c0.81,0.81,4.13,2.91,4.13,2.91c0.47,1.38,0.11,1.5,0.17,2.75    c0.27,2.25,0.55,4.49,0.82,6.74c-0.21,1.81-0.42,3.63-0.62,5.44c0.01,1.82,0.02,3.65,0.03,5.47c0.08,0.38,0.15,0.75,0.23,1.13    c-0.15,0.83-0.3,1.66-0.45,2.49c0.38,0.38,0.3,1.49,0.23,2.04c-0.23,0.91-0.45,1.81-0.68,2.72c0.08,1.21,0.15,2.41,0.23,3.62    c0.23,1.13,0.45,2.26,0.68,3.39c0.2,0.35,0.39,0.7,0.59,1.05c0.39,1.21,0.78,2.42,1.17,3.63c0.4,1.18,0.91,2.21,1.63,3.25    c1.03,3.07,2.05,6.13,3.08,9.2c-0.42,0.96,0.16,2.45,0.3,3.45c0,1.21,0.01,2.43,0.01,3.64c0.23,1.81,0.45,3.62,0.68,5.43    c0.24,1.31-0.8,3.1-0.4,4.65c-0.61,0.72-0.98,2-0.74,3.05c0.56,2.46,0.98,4.98,1.36,7.47c0.23,0.53,0.45,1.06,0.68,1.58    c0.29,0.29,1.63,2.76,1.58,2.94c1.51,0.49,1.52,0.51,1.81,2.04c0.45,0.45,0.91,0.91,1.36,1.36c-0.26,0.26,0.66,1.82,1.13,2.04    c-0.08,0.83-0.15,1.66-0.23,2.49c0.23,1.73,0.45,3.47,0.68,5.2c0.33,0.33,0.23,0.69,0.23,1.13c0.72,0.72,0.29,5.04,0.48,6.33    c0.14,0.83,0.28,1.66,0.42,2.5c0.3,0.81,0.96,2.09,0.68,2.94c0.6,1.28,1.21,2.57,1.81,3.85l-0.45,0.23    c-1.08,1.08-2.91,2.58-4.36,2.93c-1.01,0.25-5.23,0.57-6.05,0.23c-1.1,0.18-3.63,0.43-4.53-0.23c-1.13,0.15-2.26,0.3-3.39,0.45    c-1,0.94-1.95,0.85-3.17,1.36c-2.14,0.89-3.38,2.04-5.88,2.04c-0.91,0.47-1.82,0.94-2.72,1.41c-1.66,0.96-5.2,3.57-7.01,3.57    c-2.06,2.06-3.62,4.1-5.58,6.42c-0.55,0.58-1.11,1.15-1.66,1.73c-0.15,0.3-0.3,0.6-0.45,0.91c-0.6,0.38-1.21,0.75-1.81,1.13    c-0.42,0.31-0.73,1.31-1.13,0.91c-0.75,0.75-1.51,1.51-2.26,2.26c-0.23,0.38-0.45,0.75-0.68,1.13c-0.61,0.7-2.49,2.84-2.49,3.62    c-0.67,0.67-1.81,1.16-1.81,2.26c-1.31,0.98-2.28,2.25-3.24,3.56c-0.55,0.75-0.65,1.75-1.06,2.55V324.76z"/>
            <circle cx="145.42" cy="268.53" r="1.586"/>
        </g>
        <g id="__Yahşihan">
            <path d="M140.44,197.81    c0.5-0.29,1.01-0.57,1.51-0.86c2.45,0.79,5.13-0.31,7.54,0.86c0.93-0.06,3.36-0.38,4.07,0c1.97-0.84,4.05-1.59,5.71,0.35    c0.57,0.73,1.14,1.45,1.7,2.18c0.73,1.17,1.09,2.38,2.09,3.35c0.53,1.66,1.06,3.32,1.58,4.98c0.08,0.75,0.15,1.51,0.23,2.26    c-0.08,0.45-0.15,0.91-0.23,1.36c-0.5,0.79-1.12,1.51-1.13,2.49c-0.93,0.87-4.03,3.98-4.07,5.21c-0.38,0.3-0.75,0.6-1.13,0.91    c-0.49,0.59-1.2,2.35-2.04,2.26c-1.06,2.26-2.11,4.53-3.17,6.79c-0.37,0.46-0.74,0.91-1.12,1.37c-0.81,1.16-1.62,2.33-2.43,3.49    c-0.4,0.87-0.81,1.74-1.21,2.6c-0.29,1.51-0.72,2.78-1.61,4.05c0.07,1.48-2.16,5.92-3.03,7.33c-0.96,1.24-1.92,2.48-2.89,3.72    c-0.44,0.78-0.87,1.55-1.31,2.33c-0.6,0.91-1.21,1.81-1.81,2.72c-1.63,1.06-4.72,1.76-4.08,4.24c0.13,0.61,0.21,0.86,0.07,1.51    c0.24,0.53,0.65,0.61,0.63,1.24c-0.23,0.84-0.46,1.68-0.69,2.52c-0.45,0.48-0.9,0.97-1.34,1.45c-0.61,0.92-2.09,2.57-3.41,2.4    c-0.38,0.67-0.77,1.35-1.15,2.02c-0.41,0.49-0.87,0.91-1.36,1.29c-1.17,0.91-2.53,1.58-3.82,2.34c-0.3,0.3-0.6,0.6-0.91,0.91    c-1.28,0.83-2.56,1.66-3.85,2.49c-1.57,0.67-3.37,0.25-4.98,0.45c-0.45,0-0.91,0-1.36,0c-0.53-0.1-1.13-0.39-1.6-0.05    c-1.1,0.87-2.61,1.45-3.38,2.77c-0.62,0.36-2.09,0.92-2.26,1.58c-0.6,0.29-1.2,0.58-1.8,0.87c-0.98,0.69-1.95,1.39-2.93,2.08    c-1,0.35-1.99,0.69-2.99,1.04c-1.17,0.44-4.04,1.99-5.18,1.9c-0.75,0.53-1.51,1.06-2.26,1.58c-0.91,0.44-1.82,0.89-2.73,1.33    c-0.75,0.63-1.57,1.11-2.52,1.41c-0.22,0.53-3.66,2.7-4.49,3.1c-1.65,0.99-3.31,1.99-4.96,2.98c-0.73,0.64-1.46,1.27-2.19,1.91    c-0.4,0.22-1.24,0.78-1.96,0.99s-1.35,0.1-1.51,0.24c-0.91,0.76-1.78,2.63-2.04,3.64c-0.44,0.08-0.88,0.17-1.32,0.25    c-0.55,0.43-2.63,2.72-2.48,1.14c0.06-0.99,0.12-1.98,0.18-2.97c0.15-0.75,0.3-1.51,0.45-2.26c0.56-0.78,2.03-2.46,2.94-2.49    c0.08-0.83,0.15-1.66,0.23-2.49c0.29-0.84,1.09-1.58,0.45-2.49c-0.08-0.83-0.15-1.66-0.23-2.49c-0.08-0.91-0.15-1.81-0.23-2.72    c0.4-1.51,1.02-2.7,1.69-4.12c0.25-0.54,0.74-1.15,0.57-1.76c0.18-0.44,0.43-0.69,0.23-1.13c0.9-1.58,4.55-5.15,3.95-6.95    c-0.15-0.45-0.01-0.72-0.44-0.92c-1.01-0.35-1.62-0.28-2.6-0.28c-0.03-0.04-0.06-0.08-0.09-0.13c-0.53-0.82-0.88-2.26-0.13-3.04    c-0.67-2.13-0.9-3.74,1.04-4.99c0.41-0.23,0.48-0.17,0.54-0.67c1.29,0.08,2.18,0.36,3.11-0.71c0.4-0.5,0.41-1.23,0.96-1.56    c-0.04-0.14-0.08-0.28-0.12-0.42c-0.46-1.48-1.09-1.61-1.96-2.81c-0.53-0.21-1.17-0.4-1.03-1.04c0.17-0.79-0.24-0.64,0.55-0.96    c0.25-0.07,0.5-0.13,0.75-0.2c0.45-0.4,0.75-0.83,1.36-0.91c0.62-0.86,1.23-1.72,1.85-2.57c0.36-0.58,0.72-1.15,1.08-1.73    c-0.09-2.82-1.21-2.06-2.17-4.12c-0.57-1.22,0.03-5.11,0.78-5.91c0.41-0.44,0.78-0.62,1.41-0.39c0.83-0.37,1.66-0.73,2.5-1.1    c0.67-0.62,1.74-2.51,2.71-2.3c0.57-0.73,0.82-1.68,1.66-2.18c0.88,0.05,1.76,0.09,2.64,0.14c0.05-0.45,0.1-1.81,0.68-1.81    c0.53-0.1,0.79,0,1.13-0.45c1.21,0.08,2.41,0.15,3.62,0.23c0.96-0.77,1.93-1.55,2.89-2.32c0.87,0.18,3.22-1.08,3.67-1.97    c0.28-0.56,0.44-1.36,0-1.82c0.63-1.36,1.42-3.51,1.13-4.98c0.88-2.73,1.41-5.61,3.17-7.92c0.6-0.79,1.91-3.84,2.74-3.89    c0.22-0.06,0.44-0.12,0.66-0.18c0.98,0.48,2.43,0.67,2.86,1.61c0.4,0.8,0.81,2.06,0.53,2.92c0.3,0.75,0.6,1.51,0.91,2.26    c0.23,0.53,0.45,1.06,0.68,1.58c0.08-0.07,0.16-0.14,0.25-0.21c1.23-1.07,2.95-2.02,4.52-2.64c0.54,0.08,1.09,0.17,1.63,0.25    c0.47-0.72,1.55-2.02,1.52-2.84c4.85-3.19,12.17-4.79,16.07-9.05c1.36-1.49,4.36-2.38,4.64-4.55    C140.99,201.1,140.21,199.54,140.44,197.81z"/>
            <circle cx="123.69" cy="266.72" r="1.586"/>
        </g>
        <g id="__Bahşili">
            <path d="M130.37,355.06    c2.66,0.26,3.58-0.09,6.03-0.96c0.54-0.16,0.06-1.93,0.06-2.55c-0.57-1.33-2.66-1.82-4.16-2.12c-0.38-0.15-0.75-0.3-1.13-0.45    c-0.69-0.95-3.38-1.39-4.53-1.58c-1.28-0.76-2.56-1.52-3.84-2.28c-1.38-1.26-0.67-3.43-1.34-5.11c-0.38-0.08-0.76-0.16-1.14-0.23    c-0.23-0.1-0.47-0.2-0.7-0.3c1.09-1.03,0.4-2.07-0.23-3.17c0.68,0.3,1.36,0.6,2.04,0.91c-0.08-1.06-0.16-2.12-0.23-3.18    c0.19-0.26,0.39-0.51,0.58-0.77c0.64-0.12,1.28-0.23,1.92-0.35c0.2-0.08,0.4-0.16,0.59-0.23c0.48,0,0.96,0,1.44,0    c0.91,0.15,1.81,0.3,2.72,0.45c0.23,0,0.45,0,0.68,0.01c0.45-0.26,0.13-0.95,0-1.17c0.55-0.79,0-1.1,0-2    c0.45-0.63,0.89-1.26,1.34-1.89c1.03-1.24,2.49-0.84,3.76-1.62l-1.29-0.48c-0.67-0.02-1.34-0.04-2.01-0.06    c-1.77-0.2-4.13-0.74-5.87-0.25c-0.61-0.75-1.86-0.43-2.72-0.23c-0.64-0.51-1.71-0.28-2.49-0.45c-1.58-0.23-3.17-0.45-4.75-0.68    c-1.28-0.68-2.57-1.36-3.85-2.04c-0.83-0.75-1.66-1.51-2.49-2.26c0.29-0.68-0.61-1.82-0.91-2.49c0.15-0.75,0.3-1.51,0.45-2.26    c0.38-2.71,4.64-2.85,6.79-2.72c2.55-1.27,5.1-2.55,7.64-3.82c0.7-0.16,1.39-0.32,2.09-0.48c0.56,0.53,1.56,0.16,2.26,0    c0.58,0.76,4.01,0.57,4.98,0.45c0.13-0.18,0.25-0.36,0.38-0.54c1.5-0.83,1.2-2.77,1.2-4.44c0.79-0.19,1.37-1.69,1.73-2.32    c0.1-0.21-0.85-2.47-1.05-3.11c-0.36-0.58-1.31-1.05-1.91-0.73c-1.35-0.69-2.7-1.38-4.05-2.06c-0.43-0.28-0.85-0.55-1.28-0.83    c0.35-0.44,0.18-0.94,0.13-1.45c-0.07-0.68,0.25-1.36,0.55-1.94c-0.98-1.2,0.04-2.49,1.13-3.17c-0.37-0.86,1.26-2.79,1.81-3.39    c0.45-0.08,0.91-0.15,1.36-0.23c0.12-0.5,1.14-1.22,1.51-1.66c0.17-0.2,0.12-1.64,0.07-2.41c-0.46-0.17-0.43-0.38-0.63-0.81    c-0.77-0.03-1.54-0.07-2.31-0.1c-0.38-0.35-1.52-0.82-2.12-1.26c-0.11-0.08,0.3-0.73,0.4-1.05c0.17-0.55-1.43-2.34-2.02-2.76    l-0.58-0.22c-1.17,0.91-2.53,1.58-3.82,2.34c-0.3,0.3-0.6,0.6-0.91,0.91c-1.28,0.83-2.56,1.66-3.85,2.49    c-1.57,0.67-3.37,0.25-4.98,0.45c-0.45,0-0.91,0-1.36,0c-0.53-0.1-1.13-0.39-1.6-0.05c-1.1,0.87-2.61,1.45-3.38,2.77    c-0.62,0.36-2.09,0.92-2.26,1.58c-0.6,0.29-1.2,0.58-1.8,0.87c-0.98,0.69-1.95,1.39-2.93,2.08c-1,0.35-1.99,0.69-2.99,1.04    c-1.17,0.44-4.04,1.99-5.18,1.9c-0.75,0.53-1.51,1.06-2.26,1.58c-0.91,0.44-1.82,0.89-2.73,1.33c-0.75,0.63-1.57,1.11-2.52,1.41    c-0.22,0.53-3.66,2.7-4.49,3.1c-1.65,0.99-3.31,1.99-4.96,2.98c-0.73,0.64-1.46,1.27-2.19,1.91c-0.4,0.22-1.24,0.78-1.96,0.99    l-0.63,0.71c-0.15,1.33-0.3,2.66-0.45,4c-0.07,1.53,1.22,2.83,0.13,4.31c-0.26,0.33-0.53,0.66-0.79,0.98    c-1.18,0.5-1.89,0.52-3.13,0.28c-0.44,0.28-0.85-0.54-0.71-0.96c-0.21,0.03-0.42,0.06-0.63,0.09c-0.41,0.1-0.37-0.22-0.72,0.14    c-1.17,1.24-1.92,3.7-0.69,5.2c0.08,0.45,0.15,0.91,0.23,1.36c-0.15,0.3-0.3,0.6-0.45,0.91c-0.63,0.21-1.26,0.43-1.89,0.64    c-0.27,1.06-0.53,2.11-0.8,3.17c-0.69-0.14-1.38-0.28-2.06-0.42c-0.55,0.06-0.83,0.51-1.36,0.23c-0.24,0.62-1.07,0.51-1.63,0.52    c-0.13,0.11-0.26,0.21-0.4,0.32c0-1.14-0.18-5.29-1.59-5.65c-0.36-0.1-0.73-0.2-1.09-0.3c-0.35,0.17-0.71,0.35-1.06,0.52    c-0.42,0.78-0.83,1.55-1.25,2.33c0.02,0.67,0.04,1.33,0.06,2c0.13,0.46,0.26,0.93,0.4,1.39c0.45,0.53,0.91,1.06,1.36,1.58    c0.26,1.34,0.32,4.11-0.71,4.92c-1.35,1.08-2.52,0.59-3.82,1.19c0,0.83-1.03,1.72-1.81,1.81c-0.37,0.58-0.71,0.87-0.68,1.58    c-0.54,0.37-2.14,1.86-2.26,2.49c-0.82,0.35-2.6,1.01-2.89,1.8c-0.09,1.44-0.19,2.87-0.28,4.31c-0.99,0.87-2.74,2.29-1.36,3.62    c0.22,0.65,0.15,1.09,0.71,1.44c1.05,0.65,2.09,1.31,3.14,1.96c1.06,0.38,2.11,0.75,3.17,1.13c0.91,0.23,1.81,0.45,2.72,0.68    c0.95-0.13,3.31-0.32,4.07,0.23c0.83-0.08,1.66-0.15,2.49-0.23c1.73-0.69,3.46-1.37,5.18-2.06c0.95-0.55,2.32-2.14,3.19-2.24    c0.38-0.75,0.75-1.51,1.13-2.26c0.08-0.38,0.15-0.75,0.23-1.13c0.5-0.96,1.3-1.53,2.04-2.26c0.56-0.56,0.76-1.1,1.53-1.21    c0.19,0.06,0.38,0.12,0.57,0.18c0.2,0.29,0.41,0.58,0.61,0.87c-0.1,0.59-0.54,1.45-0.21,1.97c-0.29,0.47-0.92,1.11-0.81,1.51    c0.31,0.91,1.32,1.24,1.81,2.05c0.18,0.29,0.39,0.97,0.57,0.98c0.86,0.08,1.51-0.55,2.28-0.47c0.37-0.86,0.62-1.21,1.58-1.28    c0.14-0.08,0.27-0.16,0.41-0.24c1.07,0.36,2.14,0.71,3.21,1.07c0.38,0.91,0.75,1.81,1.13,2.72c0.43,0.25,0.97,0.4,1.13,0.91    c0.2,0.66,0.39,1.84-0.23,2.26c1.04,2.71,1.91,3.67,4.3,5.21c-0.58-0.01-1.16-0.02-1.75-0.04c-0.13,0.12-0.27,0.25-0.4,0.37    c0.71,0.49,1.41,0.98,2.12,1.47c-0.14,1.49-0.23,3.6-1.56,4.53c-0.33,0.83-0.27,1.55-0.91,2.26c0.15,0.12,0.08,1.13,0.23,1.24    c0,0,1.19,0.41,1.81,0.57c0.35-0.55,0.85-0.34,1.36-0.68c0.45-0.38,0.91-0.75,1.36-1.13c2.17-0.8,4.34-1.6,6.51-2.4    c2.54-1.07,5.11-2.89,7.07-4.84c0.45-0.23,0.91-0.45,1.36-0.68c2.41-0.68,4.83-1.36,7.24-2.04c1.53-1.05,3.06-2.11,4.6-3.16    c0.73-0.08,1.46-0.16,2.19-0.23c4.5-0.9,8.39-1.68,12.9-2.04c0.91,0.3,1.43,0.49,2.34,0.79L130.37,355.06z"/>
            <circle cx="126.86" cy="282.78" r="1.586"/>
        </g>
        <g id="__Karakeçili">
            <path d="M116.92,374.5    c0.61,0.82,2.63,1.54,1.67,2.77c-0.38,0.49-1.07,0.17-1.29,0.9c-0.16,0.52,0.38,1.11,0.54,1.57c0.4,1.2-0.47,3.83-0.66,5.15    c-0.21,1.48-0.61,3.28-2.43,3.37c-2.1,0.09-3.34-5.33-5.43-2.26l0.11-0.34c-1.05,0-1.95-0.62-2.74-0.04    c-0.79,0.55-1.25,1.51-1.01,2.5c0.25,0.91,0.98,2.43,2.17,2.3c0.35,0.35,2.8,0.68,3.39,0.68c0.75,0.72,3.39,2.9,3.39,3.85    c0.08,0.83,0.15,1.66,0.23,2.49c-0.08,0.38-0.15,0.75-0.23,1.13c-0.41,0.41-1.07,1.16-1.59,0.69c-0.72-0.63-2.26-3.18-3.39-2.05    c-0.56,0.22-0.96,0.39-1.28,0.93c-0.55,1.2-1.11,2.4-1.66,3.59c0,0.43,0.01,0.85,0.01,1.28c0.49,0.34,0.49,0.13,0.38,0.51    c-0.2,0.7-1.06,2.53-0.13,2.82c1.43,0.48,4.31,1.09,4.56,2.65c0.27,2.08-0.2,3.76-2.55,3.85c-0.41,0.34-1.33,0.7-1.83,0.66    c-0.38,0.3-0.75,0.6-1.13,0.91c-0.58,1.16-2.67,2.99-1.58,4.07c0.75,0.6,1.51,1.21,2.26,1.81c0.6,0,1.21,0,1.81,0    c0.38,0.15,0.75,0.3,1.13,0.45c0.57,0.1,1.92-0.22,2.11,0.5c0.13,0.66,0.25,1.33,0.38,1.99c0.76,1.15,1.37,2.8,0.78,4.09    c-0.2,0.33,0.05,0.67-0.33,0.64c-0.83-0.15-1.66-0.29-2.48-0.44c-0.36,0.03-0.71,0.07-1.07,0.1c-0.95-0.28-1.89-0.56-2.84-0.84    c-0.58-0.23-1.3-0.8-1.3-0.8c0.03,0.19-2.06-0.48-2.49-0.72c-1.51-0.38-3.02-0.75-4.53-1.13c-2.34-0.68-4.68-1.36-7.02-2.04    c-3.89-3.15-7.78-6.3-11.68-9.45c-0.76-0.76-0.42-0.2,0.13-1.19c1.41,0,2.46,0.42,3.85,0.68c0.31,0,1.09-1.55,1.78-1.87    c1.29-0.61,2.99-0.45,4.38-0.38c0.36-0.08,0.73,0.07,1.09-0.01c0.05-0.49,0.45-0.75,0-0.91c-0.24-0.06-0.97-0.06-1.21-0.11    c-0.2,0.04-0.4,0.08-0.6,0.11c-0.07-0.01-0.44-0.18-0.68-0.23c-1.23,0.07-1.06-0.14-2.49-0.45c-0.45-0.3-1.13,0.98-1.58,0.68    c-0.86,0-3.06-3.34-3.62-4.07c0.62-0.62,0.45-3.09,0-3.85c-0.95-1.57-3.11-1.6-4.41-2.83c-0.19-0.79-0.38-1.58-0.57-2.38    c-0.52-0.73-1.03-1.46-1.55-2.19c-0.33-0.64,0.11-0.69,0.39-1.36c0.69-0.32,1.38-0.65,2.06-0.97c1.19,0.19,1.65,0.47,2.49,1.36    c0.38,0.15,0.75,0.3,1.13,0.45c0.53,0,1.06,0,1.58,0c0.24,0,1.23-2.86,1.36-3.39c-0.47-0.86-0.48-1.78-0.45-2.72    c-1.49-1.49-1.81-2.87-1.81-4.98c-0.01-0.65-0.03-1.3-0.04-1.95c-0.25-1.02-1.15-1.51-1.39-2.4c-0.05-0.21-0.1-0.42-0.15-0.62    c0.87-0.87,0.92-2.01,1.32-3.05c-0.29-0.34-0.58-0.68-0.86-1.03c-0.23-0.6-0.45-1.21-0.68-1.81c0.39-0.65,1.09-0.73,1.86-0.6    c0.77,0.12,1.59,0.45,2.21,0.6c0.35-0.55,0.85-0.34,1.36-0.68c0.45-0.38,0.91-0.75,1.36-1.13c2.17-0.8,4.34-1.6,6.51-2.4    c2.54-1.07,5.11-2.89,7.07-4.84c0.45-0.23,0.91-0.45,1.36-0.68c2.41-0.68,4.83-1.36,7.24-2.04c1.53-1.05,3.06-2.11,4.6-3.16    c0.73-0.08,1.46-0.16,2.19-0.23c4.5-0.9,8.39-1.68,12.9-2.04c0.91,0.3,1.43,0.49,2.34,0.79l0.72,0.31    c-0.47,0.22-0.65,0.85-0.71,1.1c-0.46,1.56-1.39,2.4-2.57,2.09c-0.87-0.06-0.97-0.25-1.81,0.45c-0.8,0.66-1.98,2.45-2.04,3.39    c-1.21,0.91-1.2,1.75-2.4,2.66c-0.54,0.59-0.95,1.63-1.36,2.04c-0.24,0.08-0.98-0.25-1.22-0.17c-0.38,0.38-0.75,0.75-1.13,1.13    c-0.11,0.48-0.21,0.66,0,1.13c-0.25,0.8-0.87,2.03-0.23,2.72C116.59,372.72,116.77,373.38,116.92,374.5z"/>
            <circle cx="100.84" cy="376.7" r="1.586"/>
        </g>
        <g id="__Çelebi">
            <path d="M116.22,389.49    c0.53-0.15,1.06-0.3,1.58-0.45c2.06-0.79,4.38-0.73,6.57-0.96c0.44-0.01,0.88-0.03,1.32-0.04c2.35-0.19,4.69-0.37,7.04-0.56    c1.89,0.37,3.78,0.74,5.66,1.11c0.53,0,1.06,0,1.58,0c1.61,0.33,4.48,2.09,5.43,3.39c0.44,0.6,1.24,1.98,1.13,2.72    c0.3,0.45,0.6,0.91,0.91,1.36c0.75,0.53,1.51,1.06,2.26,1.58c1.21,1.89,2.41,3.77,3.62,5.66c0.3,0.83,0.6,1.66,0.91,2.49    c0.69,1.44,1.16,2.83,2.26,4.07c0.45,0.38,0.91,0.75,1.36,1.13c1.51,0.3,3.02,0.6,4.53,0.91c1.28,0.83,2.56,1.66,3.85,2.49    c1.13,1.58,2.26,3.17,3.39,4.75c1.06,0.98,2.11,1.96,3.17,2.94c1.59,1.73,3.17,3.46,4.76,5.19c0.99,1.02,2.5,2.63,3.9,2.93    c0.25,0.14,0.5,0.28,0.74,0.42l-0.57,0.74c-0.75,0.68-1.51,1.36-2.26,2.04c-0.6,0.23-1.21,0.45-1.81,0.68    c-1.11,0.76-1.87,0.95-2.85,1.95c-1.28,0-5.55,2.15-6.43,3.03c-0.45,0.15-6.34,3.76-7.47,4.75c-0.81,0.05-3.43,2.03-4.53,2.49    c-3.89,1.63-9.49,3.11-13.8,2.49c-2.79-0.41-5.66-2.28-7.92-3.85c-1.21-0.45-2.41-0.91-3.62-1.36c-1.22-0.09-2.45-0.18-3.67-0.27    c-2.52,0-4.03,1.49-6.07,2.73c-0.98,0.61-1.95,1.23-2.93,1.84c-1.06,0.38-2.11,0.75-3.17,1.13c-0.46-0.26-1.06-0.07-1.58,0    c-0.53-0.08-1.06-0.15-1.58-0.23c-1.41-0.31-2.82-0.62-4.23-0.93c-0.6-0.29-0.98-0.67-0.98-1.33c-0.87-0.93-1.74-1.87-2.6-2.8    c-0.93-1.25-0.34-1.94-0.11-3.31c0.44-1.89,0.88-3.78,1.32-5.66c0.16-0.22,0.33-0.45,0.49-0.67c-0.02-0.44-0.04-0.89-0.06-1.33    c-0.34-1.99-2.67-4.29-1.61-6.24c0.29-0.45,1.47,0.04,2.06,0.27c0.95,0.28,1.89,0.56,2.84,0.84c0.36-0.03,0.71-0.07,1.07-0.1    c0.83,0.15,1.65,0.29,2.48,0.44c0.38,0.02,0.14-0.32,0.33-0.64c0.59-1.3-0.02-2.94-0.78-4.09c-0.13-0.66-0.25-1.33-0.38-1.99    c-0.19-0.71-1.53-0.39-2.11-0.5c-0.38-0.15-0.75-0.3-1.13-0.45c-0.6,0-1.21,0-1.81,0c-0.75-0.6-1.51-1.21-2.26-1.81    c-1.09-1.09,1-2.91,1.58-4.07c0.38-0.3,0.75-0.6,1.13-0.91c0.5,0.04,1.42-0.32,1.83-0.66c2.34-0.08,2.81-1.77,2.55-3.85    c-0.25-1.56-3.13-2.17-4.56-2.65c-0.93-0.29-0.07-2.12,0.13-2.82c0.11-0.38,0.11-0.17-0.38-0.51c0-0.43-0.01-0.85-0.01-1.28    c0.55-1.2,1.11-2.4,1.66-3.59c0.32-0.54,0.72-0.71,1.28-0.93c1.13-1.13,2.66,1.42,3.39,2.05c0.52,0.47,1.18-0.29,1.59-0.69    c0.08-0.38,0.15-0.75,0.23-1.13c-0.08-0.83-0.15-1.66-0.23-2.49c0-0.95-2.65-3.12-3.39-3.85c-0.6,0-3.04-0.33-3.39-0.68    c-1.2,0.13-1.93-1.39-2.17-2.3c-0.24-0.99,0.22-1.95,1.01-2.5c0.8-0.58,1.69,0.04,2.74,0.04c1.41,0,1.58,1.97,1.58,2.94    c0.56,0.49,1.12,0.98,1.68,1.47c1.18,1.13,3.29-0.6,4.46-0.93L116.22,389.49z"/>
            <circle cx="149.94" cy="432.15" r="1.586"/>
        </g>
        <g id="__Balışeyh">
            <path d="M259.25,157.11    c0.1,3.22,2,4.97,3.85,7.43c0.6,0.98,1.21,1.96,1.81,2.93c2.73,3.37,4.48,5.32,4.75,9.74c0.09,1.43-0.73,2.51-1.13,3.85    c0.52,0.52-0.45,2.29-0.68,2.94c-0.27,0.76-1.75,4.33-1.58,4.75c-0.87,1.16-1.43,2.31-2.04,3.62c0.63,0.63-0.11,3.02,0.04,3.83    c0.57,4.21,1.13,8.43,1.7,12.64c0.25,2.2,0.5,4.41,0.75,6.61c0,0.76,0.13,1.95-0.45,2.49c0.08,0.75,0.15,1.51,0.23,2.26    c-0.15,0.6-0.3,1.21-0.45,1.81c-0.23,1.45,1.02,4.03-0.23,5.21c0.08,0.68,0.15,1.36,0.23,2.04c-0.15,0.75-0.3,1.51-0.45,2.26    c0.08,1.13,0.15,2.26,0.23,3.39c-0.28,1.54-0.22,2.95-0.24,4.52c-0.01,0.74,0.14,1.56-0.44,2.04c0.08,0.43,0.16,0.85,0.24,1.28    c-0.08,1.08-0.16,2.16-0.24,3.25c-1.04,2.29-2.56,3.87-4.3,5.66c-0.45,0.91-0.91,1.81-1.36,2.72c-1.28,2.11-2.56,4.22-3.85,6.34    c-0.22,0.72-0.44,1.44-0.66,2.16c-0.08,0.94-0.17,1.88-0.25,2.82c0.34,2.11,1.66,4.12,2.49,6.11c0.75,1.58,1.51,3.17,2.26,4.75    l-1.64-0.32c-0.96,0.63-1.92,1.27-2.89,1.9c-0.96,0.41-1.92,0.82-2.88,1.23c-1.55,0.95-4.34,3-6.17,3.3    c-1.26,1.18-2.75,1.89-4.07,2.94c-0.68,0.68-1.36,1.36-2.04,2.04c-0.75,0.6-1.51,1.21-2.26,1.81c-1.93,2.13-4.13,5.52-7.4,5.4    c-0.17,0.06-0.34,0.13-0.51,0.19c-0.91-0.28-1.82-0.56-2.73-0.84c-0.87-0.87-1.76-1.2-2.72-1.81c-1.4-1.47-2.79-2.94-4.19-4.41    c-1.17-0.87-2.34-1.74-3.51-2.6c-1.84-0.52-3.52-1.08-5.43-1.36c-1.18-0.17-2.87,0.19-3.85,0.91c-0.83,0.08-1.66,0.15-2.49,0.23    c-0.24,0.11-0.47,0.21-0.71,0.32c-1.73,0.26-3.46,0.51-5.18,0.77c-1.13,0.24-2.26,0.48-3.39,0.72l0.45-0.23    c-0.6-1.28-1.21-2.56-1.81-3.85c0.29-0.85-0.38-2.14-0.68-2.94c-0.14-0.83-0.28-1.66-0.42-2.5c-0.19-1.28,0.24-5.61-0.48-6.33    c0-0.45,0.1-0.81-0.23-1.13c-0.23-1.73-0.45-3.47-0.68-5.2c0.08-0.83,0.15-1.66,0.23-2.49c-0.48-0.21-1.39-1.78-1.13-2.04    c-0.45-0.45-0.91-0.91-1.36-1.36c-0.29-1.53-0.3-1.55-1.81-2.04c0.04-0.19-1.29-2.65-1.58-2.94c-0.23-0.53-0.45-1.06-0.68-1.58    c-0.38-2.48-0.8-5.01-1.36-7.47c-0.24-1.05,0.12-2.33,0.74-3.05c-0.41-1.54,0.64-3.33,0.4-4.65c-0.23-1.81-0.45-3.62-0.68-5.43    c0-1.21-0.01-2.43-0.01-3.64c-0.15-1-0.73-2.49-0.3-3.45c-1.03-3.07-2.05-6.13-3.08-9.2c-0.73-1.03-1.23-2.07-1.63-3.25    c-0.39-1.21-0.78-2.42-1.17-3.63c-0.2-0.35-0.39-0.7-0.59-1.05c-0.23-1.13-0.45-2.26-0.68-3.39c-0.08-1.21-0.15-2.41-0.23-3.62    c0.23-0.91,0.45-1.81,0.68-2.72c0.07-0.55,0.16-1.65-0.23-2.04c0.15-0.83,0.3-1.66,0.45-2.49c-0.08-0.38-0.15-0.75-0.23-1.13    c-0.01-1.82-0.02-3.65-0.03-5.47c0.21-1.81,0.42-3.63,0.62-5.44c-0.27-2.25-0.55-4.49-0.82-6.74c-0.06-1.25,0.3-1.37-0.17-2.75    l0.91-0.01c1.33,0.56,2.59,0.95,3.33,0.95c1.13,0.75,2.26,1.51,3.39,2.26c0.38,0.15,0.75,0.3,1.13,0.45    c0.6,0.6,1.21,1.21,1.81,1.81c1.58,0.38,3.17,0.75,4.75,1.13c3.17-0.83,6.34-1.66,9.5-2.49c0.75-0.31,1.5-0.62,2.25-0.93    c1.23-0.45,2.47-0.9,3.7-1.34c0.96-0.22,1.92-0.45,2.88-0.67c1.96-0.98,3.92-1.96,5.88-2.94c0.62-0.17,1.24-0.33,1.85-0.5    c2.89-0.7,5.51-1.66,8.1-3.12c0.6-0.6,1.21-1.21,1.81-1.81c0.31-0.95,0.62-1.9,0.93-2.84c1.12-0.86,2.24-1.73,3.37-2.59    c0.62-0.18,1.23-0.36,1.85-0.54c1.12-0.12,2.24-0.25,3.36-0.37c3.03,1.65,4.98,1.3,8.15,0.68c0.83-0.23,1.66-0.45,2.49-0.68    c3.07-0.1,8.28,0.09,10.86-1.58V157.11z"/>
            <circle cx="213.99" cy="239.79" r="1.586"/>
        </g>
    </g>
</svg>