<?xml version="1.0" encoding="UTF-8"?>
<!DOCTYPE svg PUBLIC "-//W3C//DTD SVG 1.1//EN" "http://www.w3.org/Graphics/SVG/1.1/DTD/svg11.dtd">
<svg version="1.1" id="HaritaCizim" xmlns="http://www.w3.org/2000/svg" xmlns:xlink="http://www.w3.org/1999/xlink" x="0px" y="0px" viewBox="0 0 500 450" preserveAspectRatio="none">
    <defs id="__def">
        <radialGradient id="f">
            <stop offset="0" stop-color="white" stop-opacity="1"/>
            <stop id="STOP1" offset=".4" stop-opacity="1"/>
            <stop offset="1" stop-color="white" stop-opacity=".2"/>
        </radialGradient>
        <filter id="__flt1" x="0" y="0" width="200%" height="200%" filterUnits="objectBoundingBox">
            <feGaussianBlur in="SourceAlpha" stdDeviation="3" result="blur1"/>
            <feSpecularLighting result="specOut" in="blur1" specularConstant="1.5" specularExponent="20" lighting-color="#bbbbbb">
                <feDistantLight azimuth="45" elevation="30"/>
            </feSpecularLighting>
            <feComposite in="specOut" in2="SourceAlpha" operator="in" result="specOut"/>
            <feComposite in="SourceGraphic" in2="specOut" operator="arithmetic" k1="0" k2="1" k3="1" k4="0"/>
        </filter>
        <filter id="__flt2" x="0" y="0" width="200%" height="200%" filterUnits="objectBoundingBox">
            <feGaussianBlur in="SourceAlpha" stdDeviation="3" result="blur1"/>
            <feSpecularLighting result="specOut" in="blur1" specularExponent="20" lighting-color="#bbbbbb">
                <fePointLight x="-2000" y="100" z="2000"/>
            </feSpecularLighting>
            <feComposite in="specOut" in2="SourceAlpha" operator="in" result="specOut"/>
            <feComposite in="SourceGraphic" in2="specOut" operator="arithmetic" k1="0" k2="1" k3="1" k4="0"/>
        </filter>
        <filter id="__flt3" x0="-50%" y0="-50%" width="200%" height="200%" filterUnits="objectBoundingBox">
            <feGaussianBlur in="SourceAlpha" stdDeviation="3" result="blur"/>
            <feOffset in="blur" dx="0" dy="0" result="offsetBlur"/>
            <feSpecularLighting in="blur" surfaceScale="4" specularConstant=".5" specularExponent="20" lighting-color="flavor" result="specOut">
                <fePointLight x="-5000" y="-10000" z="5000"/>
            </feSpecularLighting>
            <feComposite in="specOut" in2="SourceAlpha" operator="in" result="specOut"/>
            <feComposite in="SourceGraphic" in2="specOut" operator="arithmetic" k1="0" k2="1" k3="1" k4="0" result="litPaint"/>
            <feMerge>
                <feMergeNode in="offsetBlur"/>
                <feMergeNode in="litPaint"/>
            </feMerge>
        </filter>
        <filter id="__flt4" x0="-50%" y0="-50%" width="200%" height="200%">
            <feGaussianBlur in="SourceAlpha" stdDeviation="2" result="blur"/>
            <feOffset dy="-1" dx="-1"/>
            <feComposite in2="SourceAlpha" operator="arithmetic" k2="-1" k3="1" result="hlDiff"/>
            <feFlood flood-color="white" flood-opacity=".7"/>
            <feComposite in2="hlDiff" operator="in"/>
            <feComposite in2="SourceGraphic" operator="over" result="withGlow"/>
            <feOffset in="blur" dy="3" dx="3"/>
            <feComposite in2="SourceAlpha" operator="arithmetic" k2="-1" k3="1" result="shadowDiff"/>
            <feFlood flood-color="black" flood-opacity="1"/>
            <feComposite in2="shadowDiff" operator="in"/>
            <feComposite in2="withGlow" operator="over"/>
        </filter>
        <filter id="__golge1" x="0" y="0" width="200%" height="200%" filterUnits="userSpaceOnUse">
            <feOffset result="offOut" in="SourceAlpha" dx="8" dy="8"/>
            <feGaussianBlur result="blurOut" in="offOut" stdDeviation="3"/>
            <feBlend in="SourceGraphic" in2="blurOut" mode="normal"/>
        </filter>
    </defs>
    <g id="__Komsular" display="none">
        <linearGradient id="SVGID_1_" gradientUnits="userSpaceOnUse" x1="391.4082" y1="162.5889" x2="509.2904" y2="119.6833">
            <stop offset="0" style="stop-color:#4374BA"/>
            <stop offset="1" style="stop-color:#FFFFFF"/>
        </linearGradient>
        <path fill-rule="evenodd" clip-rule="evenodd" fill="url(#SVGID_1_)" d="M332.23,0H500v307.19l-0.85-0.44   c-2.18-1.74-2.89-2.89-5.9-3.73c-2.45-0.68-5.06-1.38-7.24-2.68c-3.08-1.85-6.97-4.94-9.25-7.38c-3.09-3.3-6.43-5.23-10.23-7.86   c-3.85-2.66-5.55-4.73-8.16-8.46c-1.37-1.97-8.54-6.82-4.49-9.35c-0.89-1.43-4.03-2.18-5.56-3.14c-1.69-1.07-4.38-1.18-5.71-2.69   c-1.41-1.6-1.24-4.34-2.35-6.12c-1.39-2.23-5.23-6.51-7.45-8.02c-0.16-0.36-0.99-1.25-1.34-1.23c-0.66-0.86-1.35-2.66-2.52-2.73   c-0.42-0.7-0.84-1.4-1.26-2.1c-0.49-0.56-0.98-1.12-1.47-1.68c-0.34-1.27-0.67-2.54-1.01-3.81c-0.45-0.32-0.6-1.18-0.76-1.71   c-0.47-1.51-1-4.04-0.01-5.33c0.36-0.41,0.43-0.3,0.31-0.91c1.53-0.25,2.01-0.26,3.34-1.11c0.46-0.29,0.34-0.87,0.87-0.99   c-0.03-0.06-0.06-0.12-0.09-0.18c-0.5-1-1.77-2.84-1.17-4.02c-0.73-0.6-3-2.03-2.73-3.15c-0.42-0.42-0.84-0.84-1.26-1.26   c-3.6-1.2-6.92-4.08-7.62-7.98c-0.1-0.57-0.71-1.42-0.58-1.9c-1.26-1.19-2.52-2.38-3.78-3.57c-0.26-0.48-0.32-0.85-0.84-1.05   c-0.24-0.69-0.59-1.19,0-1.68c-0.66-0.24-1.59-0.97-1.72-1.68c-0.15-0.9-0.13-3.19,1.09-3.15c-0.32-2.92-0.57-6.78-3.57-8.4   c-1.08-0.58-1.21-2.31-2.73-2.31l-0.05,0.01c-0.69-1.05-1.37-2.11-2.06-3.16c-0.96-1.41-1.92-2.82-2.88-4.23   c-0.14-0.43-0.28-0.87-0.41-1.3c-0.86-1.45-1.72-2.9-2.58-4.35c-0.35-0.7-0.7-1.4-1.05-2.1c-0.94-2.46-1.88-4.91-2.82-7.37   c-0.25-1.33-0.5-2.65-0.75-3.98c-0.72-0.9-0.73-2.49-0.85-3.59c-0.46-4.14-0.33-7.8,0.85-11.75c0.89-0.16,1.3-1.52,1.67-2.23   c0.33-0.66,0.76-2.03,1.25-2.62c1.32-1.59,2.46-3.03,4.01-4.39c0.7-0.35,1.4-0.69,2.11-1.04c0.42-0.24,2.2,0.23,2.93,0.41   c0.16,1.01,1.04,1.31,1.89,1.68c0.4,1.18,2.28,1.68,3.36,2.1c0.08,0.66,0.05,0.54,0.51,0.85c0.53,0.38,2.64,0.44,3.49,0.19   c0.38-0.12,0.77-0.24,1.15-0.35c0.28-0.26,0.55-0.52,0.83-0.77c-0.24-0.81-0.48-1.62-0.72-2.43c-0.32-2.13-0.8-4-1.89-5.88   c0.06-0.6-0.07-0.63-0.42-1.05c0.18-0.79-0.46-1.8-0.84-2.52c0.77-0.68,0.62-1.39,0.42-2.31c0.21-0.47,0.04-0.77,0-1.26   c1.2-1.01-0.4-3.68-0.84-4.83c0.31-0.45,0.19-0.55,0.21-1.05c1.11-0.64,1.36-2.41,1.47-3.57c-0.42-1.12-0.84-2.24-1.26-3.36   c-0.42-0.7-0.84-1.4-1.26-2.1c0.82-0.63,0.27-1.67,0-2.52c-1.03-0.44-3.24-2.7-3.57-3.78c-0.19-0.78-0.39-1.56-0.58-2.34l0.51,0.07   c2.23-1.15,3.23-2.07,1.99-4.9c-0.65-1.48-2.37-3.84-3.37-5.38c-1.01-1.56-3.2-3.44-3.8-5.18c-0.72-2.06,0.66-4.16-1.77-5.3   c-0.07-1.04,0.77-2.63,0.54-3.45c-0.55-1.93-0.97-0.98-2.63-1.75c-1.67-0.78-5.44-4.05-2.09-5.6c-0.29-0.99-0.69-2.08-0.87-3.12   c-2.74-0.14-3.97,0.32-5.74-1.86c-1.28-1.58-1.49-3.84-2.33-5.48c-0.88-1.72-2.35-3.15-3.21-5.02c-1.43-3.12-1.9-2.68-5.32-3.15   c-2.73-0.37-3.27-0.94-5.03-3.21c-1.9-2.45-0.53-3.92-1.97-6.13c-0.69-1.05-1.61-1.01-2.34-2.04c-0.35-0.5-0.78-2.05-1.09-2.71   c-1.28-2.78-2.26-2.34-4.73-3.79c-2.65-1.55-2.05-3.29-3.56-5.41c-1.19-1.67-4.21-1.56-5.57-2.9c-1.26-1.23-1.64-4.33-2.55-5.92   c-1.12-1.96-2.45-3.82-2.97-6.08c-1.37-0.82-3.08-0.83-4.33-1.49c-1.49-0.8-1.8-2.14-2.92-3.23c-1.54-1.49-5.63-4.25-7.59-4.66   L332.23,0z"/>
        <path fill-rule="evenodd" clip-rule="evenodd" fill="none" stroke="#000000" stroke-width="0.25" stroke-miterlimit="10" d="   M68.94,371.54c-0.02,6.46-4.03,13.45,2.46,18.11c2.11,1.52,6.28,2.26,7.39,4.87c1.46,3.43-1.51,6.08-2.85,8.77   c-1.74,3.5-5.13,4.23-4.6,8.96c0.33,2.88,3.6,8.37,0.47,10.54c-0.5,2.29-1.3,3.96-3.04,5.7c-2.14,2.14-4.36,2.78-5.31,5.88   c-0.71,2.34-1.2,5.16-1.32,7.65c-0.16,3.15,0.58,4.66-1.53,7.22"/>
        <path fill-rule="evenodd" clip-rule="evenodd" fill="none" stroke="#000000" stroke-width="0.25" stroke-miterlimit="10" d="   M79.88,90.74c-2.87-0.6-6.55-1.37-9.63-0.88c-1.74,0.28-2.4,1.83-3.77,2.8c-1.08,0.77-2.52,1.5-3.84,2.07   c-3.62,1.56-6.3-0.32-9.89-0.28c-2.02,0.02-2.52,1.31-4.22,2.14c-0.6,0.29-1.87,0.4-2.36,0.71c-1.1,0.7-0.85,0.85-1.46,1.86   c-1.1,1.81-1.88,4-4.22,4.27c-2.09,0.25-4.18-1.08-5.91-2.14c-1.73-1.06-3.04-2-4.83-3.28c-1.39-1-2.77-3.42-4.55-3.3   c-0.34,2.68-3.06,4.58-5.07,6.04c-2.28,1.66-3.1,3.45-4.77,5.3c-1.29,1.43-1.22,1.22-3.06,0.83c-1.23-0.26-3.02-0.39-4.27-0.76   c-1.1-0.32-2.19-1.29-3.44-1.6c-1.44-0.36-3.08-0.21-4.6-0.21"/>
        <text transform="matrix(0.7444 -0.6677 0.6677 0.7444 271.1187 431.2007)" font-family="'MyriadPro-Regular'" font-size="15.758">TEKİRDAĞ</text>
        <text transform="matrix(0.0626 -0.998 0.998 0.0626 22.3667 296.4746)" font-family="'MyriadPro-Regular'" font-size="15.758">EDİRNE</text>
        <text transform="matrix(1 0 0 1 118.1846 25.519)" font-family="'MyriadPro-Regular'" font-size="15.758">BULGARİSTAN</text>
    </g>
    <g id="__Harita" display="none">
        <rect id="__cer" x="0" y="0" fill="#000000" opacity="0" width="500" height="450"/>
        <g id="__Demirköy">
            <path d="    M403.95,185.35c-0.17,0.11-0.34,0.22-0.51,0.33c-0.67,0.9-1.41,1.28-2.22,1.98c-5.05,4.4-11.32,3.16-17.42,4.71    c-0.67,0.17-1.97,0.39-2.33,0.97c-1.04,0.17-2.07,0.34-3.11,0.51c-1.9,0.6-3.81,1.2-5.71,1.8c-1.48,0.27-2.96,0.54-4.45,0.81    c-0.9,0.01-1.8,0.02-2.7,0.03c-2.17,0.24-4.46,1.21-6.67,0.89c-4.48-0.65-8.69-2.04-13.12-2.96c-4.18-0.75-8.36-1.5-12.54-2.25    c-3.16-0.73-6.32-1.47-9.47-2.2c-1.2-0.71-2.76-1.43-4.2-1.26c-2.55-1.11-5.25-2.02-7.98-2.45l-2.32,0.35    c1.01-1.01-1.62-0.96-2.14-1.18c-2.3-0.98-5.19-0.33-7.31-1.97c-1.51-1.17-3.04-1.68-4.75-2.48c-0.73-0.5-1.45-1.01-2.18-1.51    c-0.98-0.35-1.96-0.7-2.94-1.05c-1.25,0.18-5.53-2.26-6.67-2.97c-2.11-1.31-4.34-2.87-5.99-4.73c-0.47-0.53-1.97-2.59-2.47-2.59    c-1.28-1.38-2.56-2.76-3.83-4.14c-2.32-2.65-4.64-5.3-6.96-7.94c-0.44-0.38-3.01-1.84-3.28-1.57l-0.11-1.17    c-1.87-1.87-3.86-3.49-5.4-5.67c-1.67-2.92-3.34-5.84-5.02-8.76c-0.62-0.75-1.25-1.51-1.87-2.26c-1.49-1.27-2.9-2.04-3.85-3.85    c-1-1.88-2.11-4.1-2.29-6.26c-0.09-0.59-0.18-1.17-0.27-1.76c2.87-2.53,4.27-1.25,7.47-1.58c1.64-0.17,2.86,0.04,4.41-0.42    c0.94,0.28,1.65,0.28,2.52-0.21l0.12,0.68c3.13,0.4,2.42,2.81,4.93,4.15c0.68,0.37,0.98,1.08,1.71,1.39    c0.72,0.3,3.53,0.19,3.55-0.12c0.06-0.7-0.34-2.98-1.06-2.94c-0.79,0.08-2.19,0.48-2.49-0.24c-0.18-0.48-0.23-1.49,0.35-1.74    c0.95-0.4,3.33-0.98,4.25-0.56c0.04-0.39,0.08-0.77,0.12-1.16c-0.25-0.29-0.55-0.94-0.78-0.99c-0.5-0.08-3.1,0.16-2.53-0.59    c0.33-0.41,0.33-0.53,0.88-0.62c0.31-0.96,1.48-4.22,2.53-4.22c0.6,0.04,1.2,0.08,1.79,0.12c0.63,0.69,0.37,2.69,1.46,2.2    c0.17,0,0.34,0.01,0.51,0.01c0.42-0.63,0.84-1.26,1.26-1.89c0.54-0.59,1.07-1.18,1.61-1.77c0.23-0.53,0.47-1.06,0.7-1.6    c0.28-0.28,0.56-0.56,0.84-0.84c0.16,0.12,0.32,0.24,0.49,0.36c0.19,0.09,0.38,0.18,0.56,0.27c0.08,0.86,0.02,2.22,1.19,2.05    c0.16,0.09,0.33,0.18,0.49,0.26c0.14-0.14,0.27-0.28,0.41-0.43c0.32-0.34,0.77-0.59,0.85-1.04c1.15-0.41,2.14-0.81,2.73-2.1    c0.14-0.38,0.28-0.76,0.41-1.14c0.11-0.07,0.21-0.14,0.32-0.21c-0.95-0.74-1.89-1.48-2.84-2.22c0.26-0.32,0.6-0.85,0.87-0.74    c0.27,0.04,0.54,0.07,0.81,0.11c0.56,0.5,1.24,1.17,2.08,1.11c0.64-0.04,1.02-0.54,1.69-0.45c0.6,0.08,1.27,0.25,1.48,0.81    c0.17-0.17,0.34-0.35,0.51-0.52c1.11-1.11,2.47-2.99,4.33-2.63c0.14,0.64-0.04,0.81,0.63,1.05c-0.35,0.35-0.7,0.7-1.05,1.05    c0.21-0.02,0.42-0.05,0.62-0.07c1.2-0.17,2.5-2.53,4-1.82c-0.12,0.36-0.64,1.29-0.31,1.56c0.35,0.26,0.5,0.63,0.62,0.28    c0.25-0.89,0.5-1.78,0.75-2.67c0.6,0.07,1.92,0.41,2.21-0.26c0.53-1.11-0.43-1.67,0.61-2.32c0.11-0.12,0.22-0.25,0.33-0.37    c1.03-0.07,3.21-0.1,3.57-1.05c0.5,0.62,0.77,0.98,1.54,1.27c0.27,0.38,0.32-0.21,0.43-0.49c0.15-0.43,0.02-0.52-0.25-0.85    c-0.01-0.19-0.03-0.38-0.04-0.56c-0.3,0.04-0.6,0.09-0.89,0.13c-0.58-0.21-0.79-0.63-1.42-0.55c0.07-0.18,0.14-0.36,0.2-0.54    c0.14-0.28-0.18-0.5,0.2-0.53c0.2-0.01,0.39-0.03,0.59-0.04c0.79,0.02,1.58,0.04,2.37,0.05c0.28,0.35,0.56,0.7,0.84,1.05    c0.44,0.24,0.71-0.01,1.05,0.42c0.9-0.42,1.96-0.74,2.94-0.5c0.87,0.22,3.23,1.32,3.7,1.12c0.17,0,0.34,0,0.51,0.01    c-0.03-0.84-0.14-1.96,0.4-2.53c0.33-0.33,0.38-0.43,0.83-0.35c1.16,0.25,1.65,1.81,2.76,1.83c0.03,0.57-0.11,0.72,0.42,1.05    c-0.03,0.04-0.06,0.08-0.09,0.12c-0.26,0.39-0.37,0.39-0.33,0.93c-0.81,0.23-1.19,0.36-1.89,0.84c0.98,0.52,1.95,0.34,2.94-0.21    c1.91,0.12,3.6,0.07,5.25,1.26c0.09,0.51,0.51,2.9,0.93,2.42c0.25-0.18,0.5-0.35,0.75-0.53c0.2-0.87,0.23-1.17,1.15-1.43    c0.16-0.65,0.21-0.42,0.7-0.18c0.72,0.38,2.16,0.91,1.64,1.99c-0.11,0.3-0.23,0.59-0.34,0.89c-0.59,0.41-2.34,1.44-1.18,1.86    c0.37,0.1,0.39,0.05,0.55,0.45c0.42-0.1,0.78-0.07,1.05-0.42c0.35,0,0.7,0,1.05,0c0.18,0.45,0.19,0.85,0.63,1.05    c-0.04,0.35-0.08,0.71-0.12,1.06c0.08,0.03,0.16,0.05,0.24,0.08c0.1,0.11,0.2,0.22,0.3,0.33c0.89-0.81,1.61-1.35,2.74-1.8    c0-0.17,0-0.34-0.01-0.51c0.13,0.14,0.26,0.29,0.39,0.43c0.78,0.98,1.56,1.95,2.34,2.93c0.38,0.24,0.75,0.49,1.13,0.73    c0.31-0.4,0.18-0.54,0.76-0.52c-0.03-0.05-0.07-0.11-0.1-0.16c-0.41-0.67-1.46-2.02-1.12-2.53c0.26-0.22,0.53-0.44,0.79-0.66    c0.94,0.03,0.55-0.6,1.4-0.1c1.24,0.7,1.74,2.64,3.62,2.3c0.4-0.07,0.32,0.25,0.64-0.12c0.29-0.35,0.59-0.69,0.88-1.04    c0.12-0.95,0.52-3.8-0.89-4.03c-0.34-0.06-0.68-0.11-1.02-0.17c-0.55,0.16-0.82,0.08-1.05,0.63c-0.05-0.03-0.09-0.07-0.14-0.1    c-0.89-0.67-1.72-1.5-1.84-2.59c0.15-0.42,0.27-0.91,0.09-1.31c0.21-0.35,0.42-0.7,0.63-1.05c0.07-0.35,0.14-0.7,0.21-1.05    c-0.69-0.45-2.1-1.69-2.1-2.52c0.07-0.91,0.14-1.82,0.21-2.73c0.28-0.7,0.56-1.4,0.84-2.1c0.5-0.5,1.13-1.24,1.89-0.84    c0.08-0.3,0.17-0.59,0.25-0.89c0.37-0.35,0.83-0.49,0.8-1c0.28,0.15,0.56,0.31,0.83,0.46c1.02,0.74,1.52,2.27,3.18,2.35    c0.16,0.09,0.31,0.18,0.47,0.26c0.31-0.37,0.51-0.87,0.98-0.97c0.07-0.51-0.02-0.74,0.42-1.05c-0.15-1.13-0.28-2.03,0.85-2.47    c0.4-0.1,0.81,0.67,1.25,0.79c-0.03,0.05-0.06,0.11-0.09,0.16c-0.24,0.43-0.31,0.34-0.12,0.89c-0.42,0.35-1.77,1.32-1.16,2.01    c0.24,0.25,0.56,0.77,0.93,0.67c0.49-0.12,0.94-0.16,1.22-0.61c0.33-0.52,0.46-1.53,0.9-1.86c-0.29-0.79-0.82-1.2-0.63-2.1    c0.12-0.55,0.64-2.3,1.08-1.89c0.33,0.34,0.29,0.4,0.81,0.42c0.18,1.09,0.43,1.55,1.26,2.31c0.82,0.15,1.34,0.21,2.1-0.21    c0.37,0.8,1.13,1.17,1.47,1.89c1.61,0,5.77,0.85,5.99,2.53c0.1,0.76,0.36,2.27-0.11,2.93c0.42,0.77,0.84,1.54,1.26,2.31    c0.55,0.37,2.66,1.86,3.24,1.15c0.25-0.24,0.5-0.49,0.75-0.73c0.07-0.46,0.05-0.97,0.42-1.26c-0.04-0.34-0.22-0.9,0.11-1.12    c0.7-0.44,0.65-0.67,1.26-0.08c0.85,0.8,0.35,1.77,1.03,2.04c0.2,0.09,0.39,0.19,0.59,0.28c0.31-0.82,1.3-2.41,0.58-3.22    c0.4-0.23,0.7-0.17,0.84-0.63c0.11,0.1,0.21,0.2,0.32,0.3c0.25,0.18,0.49,0.36,0.74,0.54c0.55,1.14,0.79,2.49,2.31,2.12    c1.09-0.26,1.6-1.96,2.92-1.61c0.22,0.04,0.44,0.08,0.66,0.12c0.08,0.72,0.35,1.5-0.21,2.1c0.13-0.02,0.26-0.04,0.39-0.07    c0.29-0.05,0.58-0.1,0.87-0.14c0.62-0.73,1.27-1.71,2.31-1.26c0.59-0.47,1.37-1.79,2.1-1.47c0.07-0.77,0.14-1.54,0.21-2.31    c0.18,0.05,0.35,0.09,0.53,0.14c0.34,0.14,0.17,0.14,0.52-0.14c1.19,0.98,2.38,1.96,3.57,2.94c0.63,0.2,1.46,0.16,1.89,0.63    c1.21,0,3.31-0.27,4.2,0.63c1.26-0.07,2.51-0.15,3.77-0.22c0.34,0,1.29,0.26,1.33,0.4c0.19,0.78,0.39,1.56,0.58,2.34    c0.33,1.08,2.54,3.34,3.57,3.78c0.27,0.85,0.82,1.89,0,2.52c0.42,0.7,0.84,1.4,1.26,2.1c0.42,1.12,0.84,2.24,1.26,3.36    c-0.11,1.17-0.36,2.94-1.47,3.57c-0.02,0.5,0.1,0.6-0.21,1.05c0.44,1.15,2.04,3.82,0.84,4.83c0.04,0.49,0.21,0.79,0,1.26    c0.2,0.93,0.35,1.63-0.42,2.31c0.38,0.72,1.02,1.73,0.84,2.52c0.35,0.43,0.48,0.45,0.42,1.05c1.09,1.88,1.57,3.76,1.89,5.88    c0.24,0.81,0.48,1.62,0.72,2.43c-0.28,0.26-0.55,0.52-0.83,0.77c-0.38,0.12-0.77,0.24-1.15,0.35c-0.85,0.25-2.96,0.19-3.49-0.19    c-0.46-0.31-0.43-0.19-0.51-0.85c-1.08-0.43-2.96-0.92-3.36-2.1c-0.85-0.37-1.73-0.68-1.89-1.68c-0.74-0.17-2.52-0.64-2.93-0.41    c-0.7,0.35-1.41,0.69-2.11,1.04c-1.56,1.37-2.69,2.8-4.01,4.39c-0.49,0.59-0.93,1.96-1.25,2.62c-0.36,0.71-0.78,2.07-1.67,2.23    c-1.18,3.95-1.31,7.61-0.85,11.75c0.12,1.09,0.13,2.69,0.85,3.59c0.25,1.33,0.5,2.65,0.75,3.98c0.94,2.46,1.88,4.91,2.82,7.37    c0.35,0.7,0.7,1.4,1.05,2.1c0.86,1.45,1.72,2.9,2.58,4.35c0.14,0.43,0.28,0.87,0.41,1.3c0.96,1.41,1.92,2.82,2.88,4.23    c0.69,1.05,1.37,2.1,2.06,3.16L403.95,185.35z"/>
            <circle cx="325.88" cy="161.87" r="1.586"/>
        </g>
        <g id="__Pınarhisar">
            <path d="    M279.56,305.53c0.07-0.07,0.14-0.14,0.21-0.21c-0.45,0.45-1.48,0.35-2.11,0.4c-1.18,0.09-2.36,0.1-3.51-0.22    c-1.28-0.41-2.56-0.82-3.83-1.23c-0.83-0.02-1.67-0.05-2.5-0.07c-0.85-0.26-1.69-0.51-2.54-0.77c-1.68-0.41-3.74-3.42-4.33-5    c-0.31-0.79-0.61-1.57-0.92-2.36c0-0.98,0-1.96,0-2.94c0-2.03,0-4.06,0-6.09c0.26-1.3,0.17-2.68,0-4.01    c-0.22-1.71-1.93-5.28-3.15-6.5c0.07-1.19,0.14-2.38,0.21-3.57c-0.42-0.63-0.84-1.26-1.26-1.89c-0.42-0.35-0.84-0.7-1.26-1.05    c-0.92-0.67-1.85-1.35-2.77-2.02c-2.82-1.53-6.12-1.52-9.22-1.9c-1.26-0.23-2.51-0.47-3.77-0.7c-1.15,0.51-2.12,0.38-3.37,0.38    c-0.98-0.02-1.96-0.04-2.94-0.06c-1.82,0.03-3.64,0.07-5.46,0.1c-2.38,0.78-4.75,1.56-7.13,2.34c-1.36,0.38-2.72,0.75-4.08,1.13    c-0.89,0.13-1.78,0.26-2.67,0.39c-0.77,0.19-1.54,0.37-2.3,0.56c-1.89,0.07-3.78,0.14-5.67,0.21c-3.03-0.05-6.07-0.09-9.1-0.14    c-0.83-0.2-1.65-0.4-2.48-0.6c-1.09-0.12-2.18-0.23-3.27-0.34l0.57,0.03c0.09-1.23,0.54-2.15,0.81-3.41    c0.57-2.44,1.13-4.87,1.7-7.31c0.28-1.68,0.56-3.36,0.84-5.04c0.46-1.53,0.91-3.07,1.37-4.6c0.51-1.55,1.15-3.75,2.42-4.85    c0.16-0.43,0.32-0.85,0.48-1.28c0.7-0.19,2.1-0.5,2.69,0c1.86,1.56,3.71,3.12,5.57,4.67c0.38,0.2,1.79,1.04,2.09,0.68    c2.26-2.59,3.64-5.67,5.56-8.48c1.47-1.89,2.94-3.78,4.41-5.67c0.68-1.55,1.36-3.1,2.04-4.66c0.53-1.58,0.86-2.34,0.16-3.9    c-0.2-0.45-0.3-0.86-0.74-1.11c0-0.77,0-1.54,0-2.31c1.61-2.63,3.23-5.27,4.84-7.9c0.98-2.41,1.96-4.82,2.94-7.23    c0.2-1.68,0.39-3.36,0.59-5.04c0.31-2.81,1.4-7.21,2.91-9.57c0.58-0.8,1.17-1.6,1.75-2.4c1.05-0.42,2.1-0.84,3.15-1.26    c2.53-0.46,5.06-0.31,7.39-1.58c1.72-0.93,2.7-2.54,3.55-4.25c0.67-1.34,1.13-2.65,1.52-4.09c0.14-0.52,0.48-1.2,0.14-1.64    c2.68-4.43,5.91-8.62,9.24-12.61c0.9-1.07,1.09-2.68,1.55-3.94c0.66-1.82,0.76-6.15,0.76-6.15c0.27-0.27,2.84,1.19,3.28,1.57    c2.32,2.65,4.64,5.3,6.96,7.94c1.28,1.38,2.56,2.76,3.83,4.14c0.5,0,2,2.07,2.47,2.59c1.65,1.86,3.88,3.43,5.99,4.73    c1.14,0.71,5.43,3.15,6.67,2.97c0.98,0.35,1.96,0.7,2.94,1.05c0.73,0.5,1.45,1.01,2.18,1.51c1.71,0.8,3.25,1.31,4.75,2.48    c2.12,1.64,5.02,0.99,7.31,1.97c0.52,0.22,3.15,0.17,2.14,1.18l-1.05-0.63c0.07,0.03,0.14,0.07,0.2,0.1    c0.27,0.13-0.09,1.04-0.2,1.16c-3.37,3.06-6.91,6.84-9.21,10.87c-0.99,2.4-1.98,4.8-2.97,7.2c-0.79,2.33-0.46,5.35-0.42,7.77    c-0.07,2.03-0.14,4.06-0.21,6.09c-2.16,3.17-5.6,5.02-8.4,7.57c-1.35,1.23-2.17,2.73-3.16,4.2c-0.11,0.36-0.22,0.72-0.33,1.08    c-1.29,3.4-0.51,7.22-0.51,10.69c0,0.58-0.24,3.11-0.84,2.52c-0.14,0.28-0.27,0.57-0.41,0.85c-0.84,1.69-1.84,3.19-1.9,5.04    c-0.75,0.75-1.95,5.29-2.16,6.53c-0.17,1.01-0.04,1.92,0.06,2.93c0.07,0.14,0.14,0.28,0.21,0.42c-0.63,2.86-1.05,5.58-0.9,8.59    c0.45,2.88,0.9,5.77,1.35,8.65c-0.06,1.95-0.11,3.9-0.17,5.84c0.65,4.38,2.91,8.31,3.72,12.63c0.27,1.42,1.79,3.79,1.01,5.02    c-0.76,0.92-1.51,1.83-2.27,2.75c-0.1,0.44-0.07,0.98-0.42,1.26L279.56,305.53z"/>
            <circle cx="249.5" cy="243.94" r="1.586"/>
        </g>
        <g id="__Vize">
            <path d="    M403.43,185.68c-0.67,0.9-1.41,1.28-2.22,1.98c-5.05,4.4-11.32,3.16-17.42,4.71c-0.67,0.17-1.97,0.39-2.33,0.97    c-1.04,0.17-2.07,0.34-3.11,0.51c-1.9,0.6-3.81,1.2-5.71,1.8c-1.48,0.27-2.96,0.54-4.45,0.81c-0.9,0.01-1.8,0.02-2.7,0.03    c-2.17,0.24-4.46,1.21-6.67,0.89c-4.48-0.65-8.69-2.04-13.12-2.96c-4.18-0.75-8.36-1.5-12.54-2.25c-3.16-0.73-6.32-1.47-9.47-2.2    c-1.2-0.71-2.76-1.43-4.2-1.26c-3.61-1.57-7.51-2.73-11.35-2.73c0.07,0.03,0.14,0.07,0.2,0.1c0.27,0.13-0.09,1.04-0.2,1.16    c-3.37,3.06-6.91,6.84-9.21,10.87c-0.99,2.4-1.98,4.8-2.97,7.2c-0.79,2.33-0.46,5.35-0.42,7.77c-0.07,2.03-0.14,4.06-0.21,6.09    c-2.16,3.17-5.6,5.02-8.4,7.57c-1.35,1.23-2.17,2.73-3.16,4.2c-0.11,0.36-0.22,0.72-0.33,1.08c-1.29,3.4-0.51,7.22-0.51,10.69    c0,0.58-0.24,3.11-0.84,2.52c-0.14,0.28-0.27,0.57-0.41,0.85c-0.84,1.69-1.84,3.19-1.9,5.04c-0.75,0.75-1.95,5.29-2.16,6.53    c-0.17,1.01-0.04,1.92,0.06,2.93c0.07,0.14,0.14,0.28,0.21,0.42c-0.63,2.86-1.05,5.58-0.9,8.59c0.45,2.88,0.9,5.77,1.35,8.65    c-0.06,1.95-0.11,3.9-0.17,5.84c0.65,4.38,2.91,8.31,3.72,12.63c0.27,1.42,1.79,3.79,1.01,5.02c-0.76,0.92-1.51,1.83-2.27,2.75    c-0.1,0.44-0.07,0.98-0.42,1.26c0.21,2.2,0.75,4.14,1.34,6.27c0.11,1.34,0.23,2.68,0.34,4.02c0.63,1.75,1.26,3.5,1.89,5.25    c0.26-0.09,0.51-0.17,0.77-0.26c0.56-0.29,1.11-0.55,1.33-1.21c0.57-0.33,1.13-0.67,1.7-1c3.78-2.16,7.56-4.32,11.34-6.47    c1.54-0.62,3.09-1.25,4.64-1.87c2.22-0.93,4.33-1.81,6.7-2.37c1.14-0.27,3.15-0.41,3.99-1.31c2.24,0.07,4.48,0.14,6.72,0.21    c1.12,0.14,2.24,0.28,3.36,0.42c3.36-0.63,6.72-1.26,10.08-1.89c2.09-1.21,4.19-2.42,6.28-3.62c1.06-0.54,2.12-1.09,3.18-1.63    c0.77-0.28,1.54-0.56,2.31-0.84c1.61-0.36,3.21-0.73,4.82-1.09c4.75-0.86,9.57-1.82,13.77-4.34c1.81-1.09,3.93-2.28,5.36-3.81    c0.63-0.41,1.25-0.83,1.88-1.24c2.08-1.8,4.33-3.39,6.11-5.48c0.13-0.29,0.25-0.57,0.38-0.86c0.15-0.76,0.31-1.53,0.46-2.29    c0.33-3,0.17-8.07,2.8-9.97c1.83-1.22,4.63-2.25,6.87-1.65c0.77,0.26,1.54,0.53,2.3,0.79c0.91,0.25,1.82,0.5,2.73,0.75    c1.61-0.14,3.22-0.28,4.83-0.42c0.85-0.26,1.69-0.53,2.54-0.79c2.3-0.93,4.59-1.87,6.89-2.8c1.7-1.31,3.41-2.61,5.11-3.92    c0.62-0.58,1.23-1.16,1.85-1.73c2.14-1.27,4.41-2.16,6.7-2.99c1.63-0.51,3.26-1.02,4.89-1.53c0.6-0.27,1.89-0.83,2.48-0.52    c1.12-0.91,2.24-1.82,3.36-2.72c0.83-0.9,1.65-1.79,2.48-2.69c-0.31-1.2-0.91-2.07-1.98-2.8c-0.16-0.36-0.99-1.25-1.34-1.23    c-0.66-0.86-1.35-2.66-2.52-2.73c-0.42-0.7-0.84-1.4-1.26-2.1c-0.49-0.56-0.98-1.12-1.47-1.68c-0.34-1.27-0.67-2.54-1.01-3.81    c-0.45-0.32-0.6-1.18-0.76-1.71c-0.47-1.51-1-4.04-0.01-5.33c0.36-0.41,0.43-0.3,0.31-0.91c1.53-0.25,2.01-0.26,3.34-1.11    c0.46-0.29,0.34-0.87,0.87-0.99c-0.03-0.06-0.06-0.12-0.09-0.18c-0.5-1-1.77-2.84-1.17-4.02c-0.73-0.6-3-2.03-2.73-3.15    c-0.42-0.42-0.84-0.84-1.26-1.26c-3.6-1.2-6.92-4.08-7.62-7.98c-0.1-0.57-0.71-1.42-0.58-1.9c-1.26-1.19-2.52-2.38-3.78-3.57    c-0.26-0.48-0.32-0.85-0.84-1.05c-0.24-0.69-0.59-1.19,0-1.68c-0.66-0.24-1.59-0.97-1.72-1.68c-0.15-0.9-0.13-3.19,1.09-3.15    c-0.32-2.92-0.57-6.78-3.57-8.4c-1.08-0.58-1.21-2.31-2.73-2.31C403.78,185.46,403.6,185.57,403.43,185.68z"/>
            <circle cx="325.01" cy="264.08" r="1.586"/>
        </g>
        <g id="__Lüleburgaz">
            <path d="    M154.76,364.57c0-0.35,0-0.7,0-1.05c-0.7-1.99-0.71-3.5-0.21-5.52c0.12-0.46,0.06-0.87,0.42-1.2c-0.55-4.37,1.11-8.55,2.76-12.46    c0.69-1.73,1.38-3.46,2.07-5.19c0.16-1,0.24-3.76,0.84-4.41c0-1.26,0-2.52,0-3.78c-0.14-0.56-0.28-1.12-0.42-1.68    c0.14-2.1,0.28-4.2,0.42-6.3c1.39-2.17,3.84-5.44,3.99-7.98c0-0.91,0-1.82,0-2.73c-0.14-0.56-0.28-1.12-0.42-1.68    c0.14-0.77,0.28-1.54,0.42-2.31c-1.25-1.25,0.32-4.77,0.77-6.12c0.16-0.45,0.07-0.6,0.07-0.6c0.06-0.01,0-0.22,0-0.42    c0.35-1.13,0.71-2.26,1.06-3.39c1.09-0.95,1.31-2.88,1.79-4.16c0.66-1.69,1.33-3.37,1.99-5.06c0-2.38,0.97-4.03,1.89-6.09    c-0.3-2.61,0.01-5.25,0.97-7.73c0.66-1.28,1.31-2.55,1.97-3.83c0.15-1.12,0.31-2.24,0.46-3.36c0.06-0.42,0.11-0.84,0.17-1.26    l0.21-0.42c0.21-0.07,0.42-0.14,0.63-0.21c0.99,0.99,2.85,1.89,4.2,2.1c0.71,0.24,1.41,0.47,2.12,0.71    c2.58,0.47,5.17,0.72,7.77,0.98c0.97,0.1,1.94,0.19,2.91,0.3c0.83,0.2,1.65,0.4,2.48,0.6c3.03,0.05,6.07,0.09,9.1,0.14    c1.89-0.07,3.78-0.14,5.67-0.21c0.77-0.19,1.54-0.37,2.3-0.56c0.89-0.13,1.78-0.26,2.67-0.39c1.36-0.38,2.72-0.75,4.08-1.13    c2.38-0.78,4.75-1.56,7.13-2.34c1.82-0.03,3.64-0.07,5.46-0.1c0.98,0.02,1.96,0.04,2.94,0.06c1.25,0,2.22,0.13,3.37-0.38    c1.26,0.23,2.51,0.47,3.77,0.7c3.1,0.38,6.4,0.37,9.22,1.9c0.92,0.67,1.85,1.35,2.77,2.02c0.42,0.35,0.84,0.7,1.26,1.05    c0.42,0.63,0.84,1.26,1.26,1.89c-0.07,1.19-0.14,2.38-0.21,3.57c1.22,1.22,2.94,4.79,3.15,6.5c0.17,1.33,0.26,2.7,0,4.01    c0,2.03,0,4.06,0,6.09c0,0.98,0,1.96,0,2.94c0.31,0.79,0.61,1.57,0.92,2.36c0.6,1.58,2.65,4.59,4.33,5    c0.85,0.26,1.69,0.51,2.54,0.77c0.83,0.02,1.67,0.05,2.5,0.07c1.28,0.41,2.56,0.82,3.83,1.23c1.15,0.33,2.33,0.32,3.51,0.22    c0.63-0.05,1.65,0.05,2.11-0.4c-0.07,0.07-0.14,0.14-0.21,0.21l0.63,0.21c0.21,2.2,0.75,4.14,1.34,6.27    c0.11,1.34,0.23,2.68,0.34,4.02c0.63,1.75,1.26,3.5,1.89,5.25v0.63c-1.19,2.39-2.38,4.77-3.57,7.16    c-2.1,4.83-4.21,9.66-6.31,14.48c-0.13,0.63-0.26,1.26-0.39,1.89c-0.43,2.34-0.34,4.36-0.27,6.72c0.02,0.77-0.25,2.43,0.24,2.94    c0,0.74-0.17,1.91,0.21,2.52c0,1.11,0,2.22,0.01,3.34c-0.07,0.5-0.14,1-0.22,1.5c0.13,0.37,0.25,0.74,0.38,1.12    c0.11,1.52,0.22,3.03,0.33,4.55c0,1.26-0.35,2.36-0.5,3.58c0.07,0.63,0.14,1.26,0.21,1.89c-0.14,3.08-0.28,6.16-0.42,9.25    c-1.1,2.21-2.44,3.77-4.39,5.28c-1.05,0.71-2.1,1.42-3.15,2.13c-0.77,0.07-1.54,0.13-2.31,0.2c-0.71-0.08-1.42-0.17-2.13-0.25    c-0.63-0.28-1.26-0.56-1.89-0.84c-1.94-1.78-3.75-3.78-6.51-3.78c-1.08,0.56-1.91,1.19-2.73,2.1c-0.56,1.05-1.12,2.1-1.68,3.15    c-1.1,1.32-2.39,2.15-3.78,3.15c-0.78,0.39-1.56,0.78-2.34,1.17c-1.03,0.4-2.05,0.81-3.08,1.21c-0.78,0.45-1.56,0.9-2.34,1.35    c-0.84,0.44-1.69,0.87-2.53,1.31c-0.83,0.23-1.67,0.47-2.5,0.7c-0.57,0.19-1.13,0.37-1.7,0.56c-0.49,0.28-0.98,0.56-1.47,0.84    c-1.61,1.4-3.22,2.8-4.83,4.2c-1.24,0.89-3.49,0.35-4.2,0.84c-3.08-0.55-6.17-1.09-9.25-1.64c-1.4-0.43-2.8-0.87-4.2-1.3    c-0.98-0.35-1.96-0.7-2.94-1.05c-3.97-2.45-7.95-4.89-11.92-7.34c-0.96-0.68-1.92-1.35-2.88-2.03c-0.67-0.59-1.33-1.18-2-1.77    c-0.49-0.56-0.98-1.11-1.47-1.67c-0.7-0.77-1.4-1.55-2.1-2.32c-0.28-0.49-0.56-0.98-0.84-1.47c-0.7-1.75-1.4-3.5-2.1-5.25    c-0.28-0.91-0.56-1.82-0.84-2.73c-1.25-2.51-4.19-4.29-6.48-5.75c-4.65-2.94-9.34-5.92-14.95-6.44c-0.98-0.14-1.96-0.28-2.94-0.42    L154.76,364.57z"/>
            <circle cx="200.91" cy="335.86" r="1.586"/>
        </g>
        <g id="__Babaeski">
            <path d="    M176.61,265.61l-1.08-0.62c-1.04-0.99-2.18-2.4-3.75-2.53c-0.65-0.13-1.29-0.26-1.94-0.39c-2.09-0.14-4.18-0.28-6.27-0.43    c-0.7,0.06-1.39,0.12-2.09,0.18c-0.83-0.07-1.66-0.15-2.49-0.22c-1.39-0.38-2.78-0.77-4.18-1.15c-3.24-1.18-5.14-4.21-7.7-6.3    c-1.33-1.09-2.93-1.56-4.54-2.07c-0.55-0.16-0.99,0.03-0.89-0.55c0.02-0.07,0.03-0.14,0.05-0.2c-0.54,0.57-2.09,0.01-2.94,0    c-1.16-0.02-2.25,0.06-3.36,0.42c-1.89-0.14-3.78-0.28-5.67-0.42c-1.82-0.63-3.64-1.26-5.46-1.89c-0.41-0.68-1.43-1.07-2.17-1.31    c-2.08-0.42-4.16-0.85-6.24-1.27c-5.57-0.63-11.44,0.17-17.02,0.43c-2.72,0.13-5.53-0.98-8.19,0.05c0,0,1.87,4.85,1.92,6.28    c0.03,0.84,0.35,2.05-0.64,2.4c-1.78,0.77-5.72,1.85-6.18,3.75c-0.56,2.41-0.53,5.04-0.57,7.53c-0.07,1.33-0.14,2.66-0.21,3.99    c-0.42,1.89-0.84,3.78-1.26,5.67c-0.27,0.48-0.53,0.96-0.8,1.44c-0.22,0.61-0.11,1.34-0.67,1.71c-0.04,0.58,0.11,1.42-0.21,1.89    c0.21,1.05,0.27,1.67,0.84,2.52c0.42,0.63,1.71,1.21,1.67,2.07c0.03,1.02-0.81,2.19-1.37,3.03c-0.77,1.16-1.49,2.22-2.62,2.88    c-0.35,0.42-0.7,0.84-1.05,1.26c-0.7,0.7-2.15,1.36-3.15,1.47c-1.86-0.13-3.71-0.26-5.57-0.39c-1.92,0.86-1.97,2.93-2.86,4.54    c-0.48,1.35-0.96,2.69-1.44,4.04c-0.28,0.56-0.56,1.12-0.84,1.68c-0.21,0.77-0.42,1.54-0.63,2.31c-0.17,0.99-0.53,1.94-0.81,2.88    c-0.42,1.43-0.64,2.84,0.38,4.32c0.78,1.13,2.51,1.41,3.79,1.41c0.5,0.5,1.76,1.05,2.52,1.05c0.42,0.42,0.84,0.84,1.26,1.26    c0.42,0.21,0.84,0.42,1.26,0.63c0.28,0.49,0.56,0.98,0.84,1.47c0.35,0.28,0.7,0.56,1.05,0.84c0.31,2.31,0.62,4.22,1.77,6.25    c0.36,0.63,1.73,2.07,1.6,2.57c0.48,0.37,0.75,0.44,0.84,1.05c0.63,0.06,1.25,0.12,1.88,0.18c1.04-0.05,2.09-0.11,3.13-0.16    c1.2,0.14,2.4,0.27,3.6,0.41c4.52,1.29,8.38,3.39,11.35,7.14c0.74,0.9,1.48,1.79,2.22,2.69c1.05,2.34,1.56,5.13,1.56,7.6    c0,0.84,0,1.69,0.01,2.53c0.08,0.89,0.46,2.12,0,2.94c0.2,0.58-0.23,1.92-0.84,1.9c0.74,0.29,3.44,2.34,4.19,2.52    c2.86,0.69,6.72,1.24,9.13,2.85c0.68,0.4,1.37,0.81,2.05,1.21c1.24,2.76,0.29,5.13,0.59,7.9c1.94,1.95,1.71,4.84,1.9,7.35    c0.17,1.18,0.34,2.37,0.51,3.55c0.22,1.85,1.82,5.94,3.89,6.14c0.55,0.05,1.5,0.38,1.9-0.02c1.59-1.5,1.83-2.3,2.49-4.35    c0.29-0.65,0.58-1.3,0.87-1.95c0.79-4.79-0.44-9.43-2.04-13.89c-0.18-0.49,0.36-0.9,0.81-0.72c0.8,0.31,4.73,1.94,4.8,2.84    c1.68-0.05,3.19,0.45,4.83,0.63c0.77-0.07,1.54-0.14,2.31-0.21c2.54-1.58,5.39-2.48,8.16-3.65c0.78-0.32,1.56-0.65,2.34-0.97    c1.27-0.38,2.43-0.24,3.57-1.05c0-0.35,0-0.7,0-1.05c-0.7-1.99-0.71-3.5-0.21-5.52c0.12-0.46,0.06-0.87,0.42-1.2    c-0.55-4.37,1.11-8.55,2.76-12.46c0.69-1.73,1.38-3.46,2.07-5.19c0.16-1,0.24-3.76,0.84-4.41c0-1.26,0-2.52,0-3.78    c-0.14-0.56-0.28-1.12-0.42-1.68c0.14-2.1,0.28-4.2,0.42-6.3c1.39-2.17,3.84-5.44,3.99-7.98c0-0.91,0-1.82,0-2.73    c-0.14-0.56-0.28-1.12-0.42-1.68c0.14-0.77,0.28-1.54,0.42-2.31c-1.25-1.25,0.32-4.77,0.77-6.12c0.16-0.45,0.07-0.6,0.07-0.6    c0.06-0.01,0-0.22,0-0.42c0.35-1.13,0.71-2.26,1.06-3.39c1.09-0.95,1.31-2.88,1.79-4.16c0.66-1.69,1.33-3.37,1.99-5.06    c0-2.38,0.97-4.03,1.89-6.09c-0.3-2.61,0.01-5.25,0.97-7.73c0.66-1.28,1.31-2.55,1.97-3.83c0.15-1.12,0.31-2.24,0.46-3.36    c0.06-0.42,0.11-0.84,0.17-1.26C176.04,265.97,176.61,265.61,176.61,265.61z"/>
            <circle cx="119.28" cy="320.98" r="1.586"/>
        </g>
        <g id="__Pehlivanköy">
            <path d="    M102.44,356.39c0.61,0.01,1.04-1.33,0.84-1.9c0.46-0.82,0.08-2.05,0-2.94c0-0.84,0-1.69-0.01-2.53c0-2.47-0.51-5.26-1.56-7.6    c-0.74-0.9-1.48-1.79-2.22-2.69c-2.97-3.75-6.83-5.85-11.35-7.14c-1.2-0.14-2.4-0.27-3.6-0.41c-1.04,0.05-2.09,0.11-3.13,0.16    c-0.63-0.06-1.25-0.12-1.88-0.18c-0.09-0.61-0.36-0.68-0.84-1.05c0.14-0.5-1.24-1.94-1.6-2.57c-1.15-2.03-1.46-3.95-1.77-6.25    c-0.35-0.28-0.7-0.56-1.05-0.84c-0.28-0.49-0.56-0.98-0.84-1.47c-0.42-0.21-0.84-0.42-1.26-0.63c-0.42-0.42-0.84-0.84-1.26-1.26    c-0.76,0-2.03-0.55-2.52-1.05c-1.29,0-3.02-0.28-3.79-1.41c-1.02-1.48-0.81-2.89-0.38-4.32L64,310.36    c-1.55,1.08-2.4,2.75-3.36,4.2c-0.35,0.28-0.7,0.56-1.05,0.84c0,0.82-1.96,2.57-2.52,3.15c0,0.66-2.02,2.85-2.52,3.57    c-1.24,1.8-1.89,4.93-1.89,7.14c-0.51-0.51-0.25,2.69-0.09,3.31c0.87,1.98,1.74,3.75,2.61,5.73c0.26,0.37,0.5,0.46,0.63,0.84    c0.17,0.81,0.37,1.14,0.63,1.89c0.26,0.36,1.05,1.37,1.05,1.89c0.42,0.68,0.43,1.06,0.84,1.89c0.26,0.35,0.72,1.61,0.84,1.89    c0.01,0.2,0.41,0.43,0.42,0.63c0.17,0.7,0.33,1.04,0.63,2.1c-0.21,1.73-0.42,3.46-0.64,5.19c0.23,0.27-0.35,1.98-0.32,2.2    c0.53,0.06,1.06,0.36,1.59,0.6c0.35,0.28,0.7,0.56,1.05,0.84c0.7,0.77,1.4,0.91,2.1,1.68c0.42,0.42,1.68,0.83,1.68,1.47    c0.62,0.44,1.23,0.89,1.68,1.89c-0.01,1.18,0.64,4.76,0.69,6.28c0.01,0.38,0.09,1.63,0.44,1.68c3.16,0.54,5.1-1.38,7.18-3.25    c1.51-1.36,2.86-2.92,3.73-4.8c0.51-0.19,2.05-3.06,2.25-3.7c0.23-0.76,1.05-1.33,1.05-2.1c0.35-0.7,0.7-1.4,1.05-2.1    c0.91-0.77,1.82-1.54,2.73-2.31c1.19-0.35,2.38-0.7,3.57-1.05c2.02-0.32,4.38,0.76,6.3,1.05c0.31,0.18,0.62,0.36,0.93,0.54    c1.37,0.54,3.72,1.15,4.32,2.4c0.5,0.24,1.05,0.93,1.05,0.21L102.44,356.39z"/>
            <circle cx="64.13" cy="357.31" r="1.586"/>
        </g>
        <g id="__Kırklareli">
            <path d="    M193.21,63.07c-0.58,0.21-0.99,0.75-1.68,0.63c-0.47,0.54-1.8,3.11-1.89,3.78c-2.06,2.75-2.44,6.24-0.57,9.19    c0.39,1.03,0.79,2.06,1.18,3.09c0.93,1.07,1.85,2.14,2.78,3.21c0.57,0.49,1.69,0.78,1.63,1.73c-0.2,1.47-0.4,2.95-0.6,4.42    c-1.33,1.05-2.66,2.1-3.99,3.15c-0.89,1.33-1.79,2.67-2.68,4.01c-0.58,1.61-1.16,3.21-1.73,4.82c-0.35,1.05-0.7,2.1-1.05,3.15    c-1.19,1.89-2.38,3.78-3.57,5.67c-1.05,1.19-2.1,2.38-3.15,3.57c-1,0.74-2,1.48-2.99,2.23c-0.64,0.44-1.34,0.47-1.63,1.35    c-0.87,0.45-1.75,0.9-2.62,1.35c-0.81,0.53-1.62,1.06-2.42,1.59c-0.49,0.49-0.98,0.98-1.47,1.47c-0.59,1.49-0.56,2.8-1.47,4.2    c-1.4,1.61-2.8,3.22-4.2,4.83c-0.07,0.49-0.14,0.98-0.21,1.47c-0.42,0.63-0.85,1.25-1.27,1.88c-1.75,3.15-4.74,6.72-7.48,9.09    c-0.58,0.4-1.16,0.8-1.74,1.2c-0.35,0.43-0.71,0.85-1.06,1.28c-1.34,0.58-3.48,1.75-4.73,0.9c-1.21-1.15-2.42-2.3-3.62-3.45    c-1.11-0.86-2.23-1.73-3.34-2.59c-0.86-0.6-1.73-1.19-2.59-1.79c-0.37-0.47-0.8-0.87-0.84-1.47c-0.53-0.6-1.63-1.51-1.68-2.31    c-0.56-0.49-1.12-0.98-1.68-1.47c-0.7-1.12-1.4-2.24-2.1-3.36c-1.68-1.37-3.36-2.74-5.04-4.12c-1.82-0.91-4.28-1.52-6.3-1.56    c-1.33,0-2.67,0-4.01,0c-1.82,0.56-3.64,1.12-5.46,1.68c-2.53,1.9-5.83,3.14-8.82,3.78c-1.08-0.67-1.65-1.81-2.92-2.24    c-1.23-1.51-1.8-2.9-4.01-3.22c-0.84,0.07-1.68,0.14-2.52,0.21c-2.67,0.16-5.06,0.26-7.53,1.33c-0.43,0.26-0.86,0.51-1.29,0.77    c-0.99,0.22-1.96,0.19-2.52,1.05l0.07,0.37c0.41,1.82,1.3,3.82,2.03,5.72c0.1,1.2,0.21,2.39,0.31,3.59    c0.11,1.12,0.21,2.23,0.32,3.35c0.72,1.89,2.21,6.11,1.85,7.97c-0.2,1.9-0.39,3.79-0.59,5.69c0.21,0.56,0.42,1.12,0.63,1.68    c0.09,0.02,0.18,0.04,0.26,0.06c2.18,0.48,7.34,0.61,8.33,2.9c1.1,2.71,1.89,5.23,2.22,8.17c0.11,0.98,0.22,1.97,0.33,2.95    c0.4,1.75,0.8,3.5,1.2,5.25c0.02,1.18,0.05,2.36,0.07,3.55c-0.06,0.65-0.39,1.31-0.22,1.92c-0.96,1.79-1.78,3.5-3.25,4.93    c-0.46,0.44-0.95,1.13-1.58,1.16c-0.84,1.96-2.04,3.98-2.35,6.11c-0.06,0.62-0.11,1.25-0.17,1.87c-0.56,0.7-0.28,2.24-0.84,2.94    c0.03,1.87-0.77,2.89-0.74,4.76c-1.04,2.63-2.09,5.26-3.13,7.89c-0.25,1.35,0.31,2.5,0.33,3.75c0.06,1.19,0.12,2.38,0.18,3.56    c-0.37,0.83-0.74,1.67-1.11,2.5c-0.9,1.34-1.98,2.61-3.39,3.41c-0.33,0.3-0.67,0.61-1,0.91c-0.19-0.03-0.39-0.07-0.58-0.1    c0,0.07,0,0.14,0,0.21c-0.57,0.27-0.94,0-1.47,0.42c-0.23,0.05-1.17,0.45-2.11,0.52c-3.1,0.15-2.68,0.72-5.03,1.37    c-0.56-0.35-2.88,1.26-3.78,1.26c-0.21,0.49-1.89,0.35-2.1,0.84c-0.86-0.06-2.97,1.98-2.52,2.73c-0.67,1.38-0.1,2.81,0.21,4.2    c0.66,1.35,1.11,3.19,1.26,4.62c0.09,0.84,0.27,2.78-0.42,3.36c0.05,0.65,0.42,2.41,0.21,2.73c-0.17-0.15,0.08,0.37,0,0.63    c-0.22-0.06,0.38,0.41,0.21,0.63c0.01,0.19,0.52,0.53,0.63,0.84c0.88,0.49,0.16,0.64,1.26,1.05c0.67,0.17,1.14,0.4,1.68,0.84    c0.77,0.02,1.12,0.46,1.88,0.47c1.4,0.18,3.03,0.55,4.27-0.1c0.54-0.33,1.08-0.67,1.62-1c0.91-1.68,1.82-3.36,2.73-5.04    c1.35-1.08,2.69-2.16,3.81-3.49c0.55-0.65,2.58-3.36,3.27-3.08c1.14,0.52,1.96,2.22,2.76,3.35c1.01,0.27,2.12,1.78,2.72,2.61    c0.58,0.79,0.99,1.52,1.09,2.5c0.14-0.01,0.27-0.01,0.41-0.02c0.48,0.02,0.4-0.07,0.64,0.44c2.66-1.03,5.47,0.07,8.19-0.05    c5.58-0.26,11.45-1.06,17.02-0.43c2.08,0.42,4.16,0.85,6.24,1.27c0.74,0.24,1.76,0.63,2.17,1.31c1.82,0.63,3.64,1.26,5.46,1.89    c1.89,0.14,3.78,0.28,5.67,0.42c1.11-0.36,2.2-0.44,3.36-0.42c0.85,0.01,2.4,0.57,2.94,0c-0.02,0.07-0.03,0.14-0.05,0.2    c-0.1,0.58,0.34,0.39,0.89,0.55c1.61,0.52,3.21,0.99,4.54,2.07c2.56,2.09,4.46,5.13,7.7,6.3c1.39,0.38,2.78,0.77,4.18,1.15    c0.83,0.07,1.66,0.15,2.49,0.22c0.7-0.06,1.39-0.12,2.09-0.18c2.09,0.14,4.18,0.28,6.27,0.43c0.65,0.13,1.29,0.26,1.94,0.39    c1.57,0.13,2.71,1.54,3.75,2.53l1.08,0.62c0.99,0.99,2.85,1.89,4.2,2.1c0.71,0.24,1.41,0.47,2.12,0.71    c2.58,0.47,5.17,0.72,7.77,0.98l0.21-0.01c0.09-1.23,0.54-2.15,0.81-3.41c0.57-2.44,1.13-4.87,1.7-7.31    c0.28-1.68,0.56-3.36,0.84-5.04c0.46-1.53,0.91-3.07,1.37-4.6c0.51-1.55,1.15-3.75,2.42-4.85c0.16-0.43,0.32-0.85,0.48-1.28    c0.7-0.19,2.1-0.5,2.69,0c1.86,1.56,3.71,3.12,5.57,4.67c0.38,0.2,1.79,1.04,2.09,0.68c2.26-2.59,3.64-5.67,5.56-8.48    c1.47-1.89,2.94-3.78,4.41-5.67c0.68-1.55,1.36-3.1,2.04-4.66c0.53-1.58,0.86-2.34,0.16-3.9c-0.2-0.45-0.3-0.86-0.74-1.11    c0-0.77,0-1.54,0-2.31c1.61-2.63,3.23-5.27,4.84-7.9c0.98-2.41,1.96-4.82,2.94-7.23c0.2-1.68,0.39-3.36,0.59-5.04    c0.31-2.81,1.4-7.21,2.91-9.57c0.58-0.8,1.17-1.6,1.75-2.4c1.05-0.42,2.1-0.84,3.15-1.26c2.53-0.46,5.06-0.31,7.39-1.58    c1.72-0.93,2.7-2.54,3.55-4.25c0.67-1.34,1.13-2.65,1.52-4.09c0.14-0.52,0.48-1.2,0.14-1.64c2.68-4.43,5.91-8.62,9.24-12.61    c0.9-1.07,1.09-2.68,1.55-3.94c0.66-1.82,2.15-5.81,0.65-7.31c-1.87-1.87-3.86-3.49-5.4-5.67c-1.67-2.92-3.34-5.84-5.02-8.76    c-0.62-0.75-1.25-1.51-1.87-2.26c-1.49-1.27-2.9-2.04-3.85-3.85c-1-1.88-2.11-4.1-2.29-6.26c-0.09-0.59-0.18-1.17-0.27-1.76    c2.87-2.53,4.27-1.25,7.47-1.58c1.64-0.17,2.86,0.04,4.41-0.42c0.94,0.28,1.65,0.28,2.52-0.21c-0.42-0.56-0.84-1.96-1.26-2.52    c-0.49-0.35-0.98-0.7-1.47-1.05c0-3.17-1.81-7-3.9-9.36c-0.38,0.11-0.76,0.21-1.14,0.32c-0.83-1.43-0.94-2.16-2.73-2.52    c-0.24,0.62-0.36,1.65-1.05,1.73c-0.77,0.19-1.54,0.39-2.31,0.58c-2.24-0.7-4.48-1.4-6.72-2.1c-0.49-0.56-0.98-1.12-1.47-1.68    c-0.1-0.52-0.21-1.05-0.32-1.57c-1.91-2.35-3.22-1.53-5.35-1.4c-0.51,0.03-1.03-0.56-0.85-0.81c0.24-0.38-0.27-0.81-0.51-1.22    c-0.19-0.55-0.76-0.88-1.38-0.67c-0.35-0.49-0.7-0.98-1.05-1.47c-0.46-1.42-0.91-2.83-1.35-4.26c-0.33-1.34-1.5-0.32-2.22-0.15    c-0.07,0.14-0.98,0.07-1.05,0.21c-0.34,0.27-0.95-0.22-1.05-0.42c-0.69-0.34-1.14-0.86-1.47-1.68c-0.69-1.74-0.87-4.15-2.94-4.83    c-1.25-0.41-3.05,0.18-3.36-1.26c-0.29-1.24-0.34-2.75-0.63-3.99c-0.21-1.33-1.24-1.84-2.31-2.31c-0.27-0.75-0.36-1.14-0.58-1.84    c-0.23-0.45,0.71-1.59,0.16-2.36c0.01-0.7-0.65-1.42-1.05-2.1c0.21-0.42-0.63-1.05-0.42-1.47c0.12-0.56-0.5-0.93-0.21-1.47    c-1.24-1.83-2.26-4.26-4.24-5.39c-1.3-0.74-3.34-0.51-4.78-0.64c-0.83-0.07-2.74-0.92-3.17-0.49c-0.43-0.21-1.37-1.09-1.83-0.72    L193.21,63.07z"/>
            <circle cx="157.8" cy="199.29" r="1.586"/>
        </g>
        <g id="__Kofçaz">
            <path d="    M193.21,62.65c0,0.14,0,0.28,0,0.42c-0.58,0.21-0.99,0.75-1.68,0.63c-0.47,0.54-1.8,3.11-1.89,3.78    c-2.06,2.75-2.44,6.24-0.57,9.19c0.39,1.03,0.79,2.06,1.18,3.09c0.93,1.07,1.85,2.14,2.78,3.21c0.57,0.49,1.69,0.78,1.63,1.73    c-0.2,1.47-0.4,2.95-0.6,4.42c-1.33,1.05-2.66,2.1-3.99,3.15c-0.89,1.33-1.79,2.67-2.68,4.01c-0.58,1.61-1.16,3.21-1.73,4.82    c-0.35,1.05-0.7,2.1-1.05,3.15c-1.19,1.89-2.38,3.78-3.57,5.67c-1.05,1.19-2.1,2.38-3.15,3.57c-1,0.74-2,1.48-2.99,2.23    c-0.64,0.44-1.34,0.47-1.63,1.35c-0.87,0.45-1.75,0.9-2.62,1.35c-0.81,0.53-1.62,1.06-2.42,1.59c-0.49,0.49-0.98,0.98-1.47,1.47    c-0.59,1.49-0.56,2.8-1.47,4.2c-1.4,1.61-2.8,3.22-4.2,4.83c-0.07,0.49-0.14,0.98-0.21,1.47c-0.42,0.63-0.85,1.25-1.27,1.88    c-1.75,3.15-4.74,6.72-7.48,9.09c-0.58,0.4-1.16,0.8-1.74,1.2c-0.35,0.43-0.71,0.85-1.06,1.28c-1.34,0.58-3.48,1.75-4.73,0.9    c-1.21-1.15-2.42-2.3-3.62-3.45c-1.11-0.86-2.23-1.73-3.34-2.59c-0.86-0.6-1.73-1.19-2.59-1.79c-0.37-0.47-0.8-0.87-0.84-1.47    c-0.53-0.6-1.63-1.51-1.68-2.31c-0.56-0.49-1.12-0.98-1.68-1.47c-0.7-1.12-1.4-2.24-2.1-3.36c-1.68-1.37-3.36-2.74-5.04-4.12    c-1.82-0.91-4.28-1.52-6.3-1.56c-1.33,0-2.67,0-4.01,0c-1.82,0.56-3.64,1.12-5.46,1.68c-2.53,1.9-5.83,3.14-8.82,3.78    c-1.08-0.67-1.65-1.81-2.92-2.24c-1.23-1.51-1.8-2.9-4.01-3.22c-0.84,0.07-1.68,0.14-2.52,0.21c-2.67,0.16-5.06,0.26-7.53,1.33    c-0.43,0.26-0.86,0.51-1.29,0.77c-0.99,0.22-1.96,0.19-2.52,1.05c0.05-0.15,0.1-0.29,0.16-0.44c0.95-2.95,2.67-5.04,2.99-8.38    c0-2.1,0-4.2,0-6.3c-0.79-1.47-1.58-2.58-2.1-4.2c1.03-1.82,2.94-2.78,4.02-4.49c0.77-0.26,2.08-1.43,2.11-2.21    c0.06-0.92,0.11-1.84,0.17-2.76c-0.89-0.71-2.98-2.75-3.99-2.94c-1.11-1.62-1.46-3.42-2.52-5.04c0.11-0.08,0.21-0.17,0.32-0.26    c1.7-1.16,2.56-2.52,3.93-4.12c1.22-1.43,2.43-2.74,3.32-4.44c-0.35-1.89-0.7-3.78-1.05-5.67c0.41-0.44,1.02-1.26,1.48-1.33    c0.84-0.12,1.67-0.24,2.51-0.35c0.64,0.47,1.22,0.77,2.01,0.97c0.03,0.17,0.06,0.33,0.09,0.5c0.31-0.76,0.61-1.52,0.92-2.28    c2.11-1.46,3.14-4.25,4.68-6.38c0.49-0.68,1.56-1.9,1.54-2.67c-0.27-2.69-2.65-6.23-0.73-8.71c0.12-0.13,0.32-0.51,0.37-0.18    c-0.05,0.02-0.1,0.03-0.15,0.05c0.25,0.11,0.49,0.21,0.74,0.32c1.08,0.21,1.83,0,2.74-0.55c0.47-0.28,0.74-0.32,1.02-0.81    c2.11,0.14,3.65,0.08,5.46-1.26c0.79-0.58,2.13-2.16,2.97-2.04c1.46,0.47,2.92,0.94,4.39,1.41c0.63-0.14,1.26-0.28,1.89-0.42    c1.91,0.64,4.45,1.31,6.51,0.84c0.35,0.21,0.7,0.42,1.05,0.63c0.38,0.63,0.76,1.26,1.14,1.88c0.85,0.02,2.51,0.58,3.07,1.27    c1.81,2.22,0.54,5.06,4.41,5.46c0.56-0.49,1.12-0.98,1.68-1.47c0.77-0.14,1.54-0.28,2.31-0.42c0.77,0.49,1.54,0.98,2.31,1.47    c0.77,0.07,1.54,0.14,2.31,0.21c1.46-0.7,2.85-1.45,4.2-2.1c0.43,0.31,0.46,0.5,1.05,0.42c0.21,0.75,0.75,1.57,0.63,2.31    c0.56,0.42,1.12,0.84,1.68,1.26c1.11-0.07,3.52,0.48,3.69-0.32c0.27-1.68-0.42-3.56-1.8-4.52c-0.26-1.02-0.35-2.43,0.21-3.36    c1.31-0.81,2.45-1.26,3.99-1.26c0.18-0.21,0.37-0.42,0.55-0.64c0.83-1.25,0.92-2.27,0.92-3.78c0.53-0.88,1.02-1.93,1.89-2.52    c1.65-1.12,3.62-1.64,5.46-2.31c0.77,0.7,1.54,1.4,2.31,2.1c2.01,0.06,3.71-0.06,5.54-0.87c0.53-0.2,1.07-0.4,1.6-0.6    c0.7,1.09,0.71,2.75,1.96,3.19c0.4,0.13,0.8,0.25,1.19,0.38c0.76-0.1,1.53-0.2,2.29-0.3c0.43,0.1,0.85,0.2,1.28,0.3    c0.88,1.3,1.24,2.61,2.63,3.58c0.67,0.47,2.03,0.39,2.83,0.41c0.58,0.69,0.85,1.32,1.26,2.1c0.92,0.24,2.63,0.02,2.96,0.7    c0.22,0.54,0.57,1.26,0.4,1.83c0.77,0.91,1.54,1.82,2.31,2.73c0,0.42,0,0.84,0,1.26C193.35,62.51,193.28,62.58,193.21,62.65z"/>
            <circle cx="140.29" cy="113.06" r="1.586"/>
        </g>
    </g>
</svg>