<?xml version="1.0" encoding="UTF-8"?>
<!DOCTYPE svg PUBLIC "-//W3C//DTD SVG 1.1//EN" "http://www.w3.org/Graphics/SVG/1.1/DTD/svg11.dtd">
<svg version="1.1" id="HaritaCizim" xmlns="http://www.w3.org/2000/svg" xmlns:xlink="http://www.w3.org/1999/xlink" x="0px" y="0px" viewBox="0 0 500 473" preserveAspectRatio="none">
    <defs id="__def">
        <radialGradient id="f">
            <stop offset="0" stop-color="white" stop-opacity="1"/>
            <stop id="STOP1" offset=".4" stop-opacity="1"/>
            <stop offset="1" stop-color="white" stop-opacity=".2"/>
        </radialGradient>
        <filter id="__flt1" x="0" y="0" width="200%" height="200%" filterUnits="objectBoundingBox">
            <feGaussianBlur in="SourceAlpha" stdDeviation="3" result="blur1"/>
            <feSpecularLighting result="specOut" in="blur1" specularConstant="1.5" specularExponent="20" lighting-color="#bbbbbb">
                <feDistantLight azimuth="45" elevation="30"/>
            </feSpecularLighting>
            <feComposite in="specOut" in2="SourceAlpha" operator="in" result="specOut"/>
            <feComposite in="SourceGraphic" in2="specOut" operator="arithmetic" k1="0" k2="1" k3="1" k4="0"/>
        </filter>
        <filter id="__flt2" x="0" y="0" width="200%" height="200%" filterUnits="objectBoundingBox">
            <feGaussianBlur in="SourceAlpha" stdDeviation="3" result="blur1"/>
            <feSpecularLighting result="specOut" in="blur1" specularExponent="20" lighting-color="#bbbbbb">
                <fePointLight x="-2000" y="100" z="2000"/>
            </feSpecularLighting>
            <feComposite in="specOut" in2="SourceAlpha" operator="in" result="specOut"/>
            <feComposite in="SourceGraphic" in2="specOut" operator="arithmetic" k1="0" k2="1" k3="1" k4="0"/>
        </filter>
        <filter id="__flt3" x0="-50%" y0="-50%" width="200%" height="200%" filterUnits="objectBoundingBox">
            <feGaussianBlur in="SourceAlpha" stdDeviation="3" result="blur"/>
            <feOffset in="blur" dx="0" dy="0" result="offsetBlur"/>
            <feSpecularLighting in="blur" surfaceScale="4" specularConstant=".5" specularExponent="20" lighting-color="flavor" result="specOut">
                <fePointLight x="-5000" y="-10000" z="5000"/>
            </feSpecularLighting>
            <feComposite in="specOut" in2="SourceAlpha" operator="in" result="specOut"/>
            <feComposite in="SourceGraphic" in2="specOut" operator="arithmetic" k1="0" k2="1" k3="1" k4="0" result="litPaint"/>
            <feMerge>
                <feMergeNode in="offsetBlur"/>
                <feMergeNode in="litPaint"/>
            </feMerge>
        </filter>
        <filter id="__flt4" x0="-50%" y0="-50%" width="200%" height="200%">
            <feGaussianBlur in="SourceAlpha" stdDeviation="2" result="blur"/>
            <feOffset dy="-1" dx="-1"/>
            <feComposite in2="SourceAlpha" operator="arithmetic" k2="-1" k3="1" result="hlDiff"/>
            <feFlood flood-color="white" flood-opacity=".7"/>
            <feComposite in2="hlDiff" operator="in"/>
            <feComposite in2="SourceGraphic" operator="over" result="withGlow"/>
            <feOffset in="blur" dy="3" dx="3"/>
            <feComposite in2="SourceAlpha" operator="arithmetic" k2="-1" k3="1" result="shadowDiff"/>
            <feFlood flood-color="black" flood-opacity="1"/>
            <feComposite in2="shadowDiff" operator="in"/>
            <feComposite in2="withGlow" operator="over"/>
        </filter>
        <filter id="__golge1" x="0" y="0" width="200%" height="200%" filterUnits="userSpaceOnUse">
            <feOffset result="offOut" in="SourceAlpha" dx="8" dy="8"/>
            <feGaussianBlur result="blurOut" in="offOut" stdDeviation="3"/>
            <feBlend in="SourceGraphic" in2="blurOut" mode="normal"/>
        </filter>
    </defs>
    <g id="__Komsular" display="none">
        <linearGradient id="SVGID_1_" gradientUnits="userSpaceOnUse" x1="338.9648" y1="362.3276" x2="420.8517" y2="189.8268">
            <stop offset="0" style="stop-color:#6790CB"/>
            <stop offset="0.4417" style="stop-color:#B0C6E4;stop-opacity:0.5583"/>
            <stop offset="0.819" style="stop-color:#E9EFF7;stop-opacity:0.181"/>
            <stop offset="1" style="stop-color:#FFFFFF;stop-opacity:0"/>
        </linearGradient>
        <path fill-rule="evenodd" clip-rule="evenodd" fill="url(#SVGID_1_)" d="M404.44,257.29c1.27,0.04,1.55,0.38,2.44,1.68   c0.29,0.42,1.07,0.8,1.07,1.37c-0.17,0.74-0.6,1.82-0.3,2.59c-0.13,0.52-0.46,1.31-0.26,1.78c0.28,0.56,0.33,1.01,0.64,1.61   c0.94,0.65,1.88,1.29,2.82,1.94c0.51,0.02,1.02,0.32,1.38,0.68c0.18-0.01,0.36-0.01,0.54-0.02c0.53,0.24,1.05,0.48,1.58,0.72   c1.12,1.12,2.23,2.23,3.35,3.35c0.51,1.17,1.02,2.34,1.52,3.5c0.1,1.02,0.2,2.03,0.3,3.05c0.24,0.26,0.49,0.52,0.73,0.78   c0.23,0.31,0.3,0.57,0.64,0.74c0.2,0.15,0.4,0.3,0.6,0.46c0.66,0.05,1.32,0.1,1.98,0.15c0.85-0.01,2.01-0.6,2.69-0.23   c1.8,1.15,3.02,2.68,4.32,4.35c0.68,0.88,1.85,1.55,2.74,2.13c0.46,0.51,0.91,1.02,1.37,1.52c0.33,0.41,1.78,1.76,2.28,1.83   c0.1,0.41-0.03,0.48,0.46,0.61c-0.08,0.07-0.16,0.13-0.24,0.2c-0.84,0.64-1.33,1.46-2.41,1.9c-0.03-0.14-0.05,0.14-0.32,0.41   c-0.78,0.73-2.19,0.5-2.97,0.99c-0.34,0.21-0.69,0.54-0.76,0.91c-0.36,0.05-0.71,0.1-1.07,0.15c-0.66,0.51-1.32,1.02-1.98,1.52   c-0.46,0.15-0.91,0.3-1.37,0.46c-0.41,0.66-0.81,1.32-1.22,1.98c-0.51,0.15-1.02,0.3-1.52,0.46c-1.64,0.94-0.75,2.7-2.58,3.8   c-0.01,0.42-0.09,0.33-0.47,0.33c-1.02-0.03-2.04-0.07-3.07-0.1c-0.8,0.33-0.88,0.96-1.5,1.3c-0.07,0.37,0.04,0.56-0.3,0.76   c0.25-0.04,0.5-0.09,0.74-0.13c0.73-0.75,0.4-1.33,1.71-1.51c0.62-0.06,0.82,0.15,1.35,0.42c0.53,0.07,1.06,0.14,1.59,0.21   c1.04-0.63,2.09-1.26,3.13-1.89c0.7-0.83,0.9-1.83,2.28-1.83c0.96-1.07,1.93-2.13,2.89-3.2c0.3-0.15,0.61-0.3,0.91-0.46   c0.71-0.51,1.42-1.02,2.13-1.52c0.34-0.15,0.69-0.3,1.03-0.45c0.36-0.16,0.72-0.32,1.08-0.47c0.88-0.5,1.76-1,2.65-1.5   c0.33-0.23,0.31-0.49,0.72-0.76c0.36-0.24,1.13-0.76,1.36-0.72c0.87,0.24,1.74,0.47,2.61,0.71c-0.43-0.34-0.86-0.67-1.28-1.01   c0.54-0.51,1.55-0.99,2.33-1c0.35-0.01,0.64,0.23,0.94,0.03c0.24,0.24,0.42,0.55,0.76,0.46c0.23-0.39,0.67-0.79,0.61-1.22   c0.3-0.05,0.61-0.1,0.91-0.15c0.15-0.2,0.3-0.41,0.46-0.61c-0.04-0.7-0.13-1.79,0.61-1.98c0.46-0.1,0.91-0.21,1.37-0.31   c0.71,0.2,1.42,0.41,2.13,0.61c0.58,0.08,1.53-0.31,1.98,0c0.53-0.53,1.52-0.58,1.83-1.22c1.42-0.09,3.24-0.71,4.57-0.3   c0.95-0.33,1.98-0.86,2.74-1.52c1.29,0.12,2.52-0.01,3.81,0.3c1.17,0.29,2.13-0.34,2.74-1.37c0.34-0.13,0.63-0.11,0.76-0.46   c0.05,0.05,0.09,0.1,0.14,0.15c1.11,1.26,0.74,1.67,1.23,3.05c0.25,0.51,0.51,1.02,0.76,1.52c1.08,0.86,2.17,1.35,3.07,2.4   c0.2,0.43,0.4,0.86,0.59,1.29c0.22,0.36,0.34,0.56,0.75,0.57c0.2,0.46,0.41,0.91,0.61,1.37c0.25,0.15,0.51,0.3,0.76,0.46   c0.48,0.44,1.16,1.96,1.22,2.59c0.07,0.72-0.52,2.79-0.15,3.35c-0.25,0.58-0.5,1.16-0.75,1.74c-0.06,0.37-0.3,1.76-0.48,1.74   c-0.45,0.04-0.9,0.09-1.36,0.13c-0.19,0.23-0.62,0.41-0.92,0.34c1.36,0.81,1.59,2.29,0.83,3.67c0.26,0.94,0.26,2.2-0.07,3.18   c0.5,0.64,0.62,1.8,0.61,2.58c-0.01,0.76-0.74,3.15-0.32,3.36c0.24,0.09,0.25,0.02,0.32,0.3c0.16-0.25,0.32-0.49,0.49-0.74   c0.09-0.56,0.18-1.13,0.28-1.69c0.32-0.78,0.62-1.42,0.15-2.28c0.01-0.44,0.16-0.81,0-1.22c0.18-0.54,0.55-1.26,0.3-1.83   c0.12-0.63,0.54-2.36,0.3-2.89c0.2-0.81,0.41-1.62,0.61-2.44c0.25-0.61,0.46-1.28,0.46-1.98c0.1-0.15,0.2-0.3,0.3-0.46   c0.4-0.27,0.8-0.54,1.2-0.81c-0.22-0.46-0.27-1.23-0.75-1.47c0.05-0.25,0.1-0.51,0.15-0.76c-0.1-0.28-0.31-1.22-0.1-1.42   c0.48-0.35,0.95-0.7,1.43-1.04c0.65-0.29,1.36-0.38,1.87-0.89c-0.31-0.13-0.04-0.3-0.46-0.3c-0.61,0.02-3,0.57-3,0.57   c-0.36-0.65-0.55-1.23-1.11-1.79c0.05-0.36,0.1-0.71,0.15-1.07c-0.7-0.35-1.13-0.09-1.28-0.85c0.07-0.12,0.15-0.24,0.22-0.37   c-1.45-1.18-2.71-2.58-4.16-3.75c-0.39-0.22-0.78-0.45-1.17-0.67c-0.36-1.07-0.71-2.13-1.07-3.2c-0.02-0.4,0.14-0.91-0.26-1.12   c-0.45-0.23-0.9-0.64-1.41-0.4c-0.3,0.05-0.61,0.1-0.91,0.15c-0.95,0.73-1.76,1.67-3.03,1.42c-0.36-0.07-0.76-0.36-1.09-0.2   c-0.58-0.54-0.57-0.94-1.52-0.91c-1.22,0.51-2.44,1.02-3.66,1.52c-0.46,0.18-1.65,0.39-1.98,0c-1.73,0.61-3.45,1.22-5.18,1.83   c-1.21,0.18-2.28,0.03-3.47,0.03c-0.87,0.19-1.75,0.38-2.62,0.58c-0.98,0.56-1.14,1.16-1.85,1.89c-0.57,0.58-3.65,1.77-4.42,1.51   c-0.1-0.05-1.43-0.38-1.5-0.36c-0.61-0.36-1.22-0.71-1.83-1.07c-0.33-0.59-0.79-1.45-1.52-1.52c-0.31-0.48-0.55-0.92-1.03-1.25   c-1.09-0.76-2.66-1.51-2.93-2.86c-0.2-0.3-0.41-0.61-0.61-0.91c-0.49-0.44-1.19-0.9-1.68-1.33c-0.37-0.15-0.56-0.28-0.76-0.65   c-0.86-0.25-1.69-0.32-2.55-0.57c-0.42,0.03-0.76,0.2-1.18,0.23c-0.31,0.26-1.44,0.33-1.82-0.02c-0.52-0.49-1.75-1.67-1.91-2.38   c0.3-0.3,0.17-0.94,0.11-1.75c-0.61-1.41-1.48-3.51-2.09-4.93c-0.41-0.62-0.82-1.23-1.22-1.85c-0.36-0.1-0.71-0.2-1.07-0.3   c-0.43-0.39-0.74-0.55-1.22-0.86c-0.53,0.17-1.22-0.52-1.72-0.73c-1.67-0.7-4.4-1.24-4.4-3.55c-0.04-0.11-0.08-0.23-0.12-0.34   c0.05-0.61,0.1-1.22,0.15-1.83c0.25-1.11,0.85-2.62-0.26-3.43c-0.42-0.29-0.79-0.38-1.27-0.53c-0.36-0.46-0.71-0.91-1.07-1.37   c-0.26-0.16-0.52-0.32-0.79-0.48l-0.21,0.13c-0.08-0.34-0.15-0.68-0.23-1.02c0.05-0.25,0.1-0.51,0.15-0.76   c-0.35,0-0.98-0.67-0.79-0.93c0.11-0.1,0.22-0.19,0.33-0.29c-0.1,0.03-0.2,0.06-0.3,0.1c-0.16,0.04-0.32,0.09-0.49,0.13   c-0.13,0.5-0.52,1.31-0.43,1.75c-0.78,0.18-1.42,0.55-2.09,0.98c-0.93,0.59-1.8,1.67-2.94,1.92c-2.28-0.05-4.57-0.1-6.85-0.15   c-0.62,0.43-1.33,0.59-1.83,1.22c-0.12,0.2-0.23,0.4-0.35,0.6c-0.85-0.05-1.7-0.1-2.55-0.14c-0.46,0.37-0.47,0.64-1.08,0.49   c-1.14-0.27-1.56-1.32-2.43-2.01c-1.59,0.45-2.93,1.57-4.57,1.98c-1.45,0.36-2.82-0.15-4.26-0.15c-0.23-0.19-0.52-0.29-0.46-0.61   c-0.75-0.16-1.37-0.16-2.01-0.63c-0.55-0.9-1.11-1.81-1.66-2.71c-0.16-0.22-0.45-0.79-0.74-0.74c-0.71,0.14-2.19,0.35-2.75-0.18   c-1.52-0.24-2.67-0.55-4.11-1.07c-1.42,0.05-2.84,0.1-4.26,0.15c-1.04-0.72-1.99-1.27-3.2-1.68c-0.41-0.1-0.81-0.2-1.22-0.3   c-0.71-0.61-1.42-1.22-2.13-1.83c-0.41-0.54,0.4-0.54-0.49-0.78c-0.24-0.05-0.48-0.09-0.72-0.14c-0.22,0.2-2.09-0.39-2.33-0.73   c-0.39-0.47-0.78-0.93-1.17-1.4c-1.78,0.17-3.42-0.59-5.14-0.9c-0.45-0.08-1.57-0.48-1.71-0.93c-1.06-0.31-1.2-0.31-1.83-1.22   c-0.26,0.13-0.52,0.17-0.61,0.46c-0.56-0.15-1.12-0.3-1.68-0.46c-0.51-0.3-1.02-0.61-1.52-0.91c-0.3-0.05-0.61-0.1-0.91-0.15   c-0.88-0.64-1.58-1.39-2.59-1.83c-0.83-0.36-1.71-0.42-2.41-1.04c-0.52-0.62-1.03-1.24-1.55-1.86c-1.71,0.57-2.7-1.21-4.15-1.79   c-0.38-0.15-1.03,0.49-1.44,0.19c-0.67-0.5,0.41-1.41,0.41-2.28c0-1.98-2.06-1.32-2.74-2.06c-0.66-0.15-1.32-0.3-1.98-0.46   c-0.69-0.36-0.92-1.6-1.56-0.79c-0.7,0.85-1.46,1.14-1.95,2.16c-0.26-0.06-0.53-0.12-0.79-0.18c-1.11-0.35-1.9-1.21-3.16-1.04   c0-1.32-1.28-1.49-1.9-2.49c-0.37-0.59,0.08-0.84,0.08-1.47c-0.71-1.18-1.69-2.15-1.98-3.5c-0.15-0.71-1.3-1.18-1.02-1.96   c0.03-0.21,0.07-0.42,0.1-0.63c0.35-0.71,0.76-1.47,0.76-2.28c-0.15-0.3-0.3-0.61-0.46-0.91c0.49-0.19,0.77-0.18,0.77-0.76   c-0.05-0.15-0.11-0.31-0.16-0.46c0.15-0.66,0.3-1.32,0.46-1.98c-0.1-0.41-0.2-0.81-0.3-1.22c-0.48-1-0.99-1.9-1.06-3.05   c0.08-0.31,0.15-0.62,0.23-0.93c0.14-0.86,0.17-1.57,0.07-2.42c0-0.25,0-0.51,0-0.76c0.4-0.4,0.62-0.96,0.77-1.51   c1.27-0.71,1.07-2.79,1.52-3.97c0.31-0.63,0.63-1.26,0.94-1.88c1.1-0.24,2.23-1.14,3.02-1.92c0.36-0.3,0.71-0.61,1.07-0.91   c0.29-0.61,0.5-1.42,1.07-1.83c0.22-0.76,0.44-1.51,0.66-2.27c0.08-0.06,0.17-0.11,0.25-0.17c0.4-0.65,0.97-1.79,1.68-2.13   c0.25-0.56,0.5-0.99,0.88-1.48c0.64-0.08,1.25-0.51,1.74-0.91c0.98-0.1,1.49-0.97,2.43-1.2c0.88-0.22,1.54-0.06,2.41-0.05   c0.9-0.09,1.8-0.18,2.7-0.27c0.13,0.07,2-0.18,2.13-0.27c1.17-0.79,1.9-1.61,2.01-3.08c0.4-0.64,0.79-1.28,1.19-1.92   c0.31-0.16,1.2,0.23,1.28-0.41c0.51-3-0.97-3.24-2.76-5.03c-0.39-0.39-1.25-1.64-0.76-2.13c-0.65,0.65-0.46-0.3-1.07-0.3   c0.1,0.15,0.2,0.3,0.3,0.46c-0.3,0.5-0.31,0.94-0.52,1.48c-0.31,0.82-1.11,1.31-1.41,2.18c-0.47,1.36,0.16,3.39-1.11,4.25   c-0.81,0.51-1.62,1.02-2.44,1.53c-0.5-0.34-1.41-0.38-1.98,0c-1.17-0.11-2.68-0.06-3.66,0.76c-0.41,0.2-0.81,0.41-1.22,0.61   c-0.76,0.15-1.52,0.3-2.28,0.46c-0.1,0.3-0.2,0.61-0.3,0.91c-0.43,0.08-0.85,0.15-1.28,0.23c-0.88,1.04-0.85,2.11-0.85,3.41   c0,0.37-0.21,0.78,0,1.08c-0.45,0.17-0.56,0.06-0.61,0.61c-0.06-0.04-0.12-0.08-0.18-0.12c-0.44-0.29-1.24-1.17-1.75-1.05   c-0.28,0.07-0.24,0.14-0.51-0.05c0.06,0.14,0.13,0.28,0.2,0.41c0.36,0.66,0.85,0.96,1.63,0.96c-0.07,0.4,0.26,0.11-0.06,0.67   c-0.77,1.34-1.64,2.14-2.84,3.14c-0.66,0.36-1.32,0.71-1.98,1.07c-0.88,0-3.38,2.2-3.57,3.01c0.02,0.16,0.05,0.33,0.07,0.49   c-0.13,0.78-0.03,1.38,0.01,2.13c0.02,0.38-0.12,0.79,0.14,1.07c-0.34,0.36-0.58,0.69-1.07,0.76c-0.15,0.56-0.3,1.12-0.46,1.68   c-0.3,0.56-0.61,1.12-0.91,1.68c-0.33,0.19-1.41,1.08-1.33,1.37c0.15,0.49,0.09,0.85,0.57,1.07c-0.11,0.82-0.38,2.02,0.3,2.59   c0.03,0.4,0.06,0.8,0.09,1.2c0.17,0.73,1.08,1.8,0.08,2.17c-1.51,0.62-3.16,1.14-4.73,1.5c-0.57,0.57-1.41,0.78-2.13,1.07   c-0.1-0.05-0.2-0.1-0.3-0.15c-0.28,0.35-0.72,1.46-1.25,1.32c-0.06-0.06-0.11-0.12-0.17-0.19c0.74,0.54,3.26,1.16,4.01,0.39   c0.36,0.05,0.71,0.1,1.07,0.15c0.98-0.36,2.25-0.78,3.06-1.34c0.43-0.29,2.4-0.9,2.43-0.5c0.05,1.22,0.09,2.44,0.14,3.66   c-0.23,1.56-1.58,3.72-2.44,5.03c-0.54,0.83-0.77,2.43,0,3.2c1.56,1.56,4.19,1.65,6.24,2.13c0.61,0.14,1.79,1.56,1.68,2.13   c0.95,0.89,1.67,1.43,2.89,1.98c0.51,0.23,1.77,0.14,2.22-0.01c0.37-0.13,0.75-0.26,1.12-0.39c0.39,0.15,0.83,0.22,1.11,0.6   c0.19,0.26,0.5,1.02-0.03,1.02c-0.74,0.14-1.33,0.48-2.13,0.46c-0.3-0.05-0.61-0.1-0.91-0.15c-0.56,0.09-1.12,0.19-1.68,0.28   c-0.67-0.05-1.49,0.05-1.68-0.74c-1.36,0.13-2.33,0.26-3.5,0.91c-0.43,0-0.67-0.12-0.91-0.46c-0.61,0.36-1.22,0.71-1.83,1.07   c-0.35,0.35,0.35,0.56,0,0.91c-0.2,0.2-0.41,0.41-0.61,0.61c-1.24,0-0.76-1.15-2.22,0.08c-0.5,0.46-0.82,0.92-1.28,1.45   c-0.61,0.2-1.22,0.41-1.83,0.61c-0.5,0.5-1.35,1.37-2.09,1.12c-0.11-0.02-0.23-0.04-0.34-0.06c-0.41-0.41-0.38-0.81-0.97-1.23   c-0.84-0.6-1.84-0.59-2.84-0.59c-0.51-0.99-3.73-2.54-4.87-2.28c-0.64-0.22-1.61-0.81-2.28-0.15c-0.3,0.3-0.61,0.61-0.91,0.91   c0.32,0.52,0.47,0.87,1.07,1.07c0.81,0.1,1.62,0.2,2.44,0.3c0.32,0.32,1.26,0.48,1.68,0.3c0.76,0.66,1.52,1.32,2.28,1.98   c0.58,0.21,1.16,0.41,1.75,0.62c0.53,0.26,1.09,0.45,1.6,0.75c0.49,0.29,0.74,1.03,1.4,0.87c0.53-0.13,0.99-0.29,1.49-0.41   c0.46-0.41,0.91-0.81,1.37-1.22c0.77,0.19,0.76-0.26,1.21,0.61c0.07,0.13,0.09,0.4,0.23,0.21c0.39-0.48,0.95-0.98,1.61-0.98   c0.15-0.36,0.3-0.71,0.46-1.07c0.61-0.33,1.11-0.96,1.83-0.46c0.72-0.59,1.12-1.01,2.01-1.27c0.13-0.29,0.39-0.56,0.73-0.56   c0.86,0.1,1.73,0.2,2.59,0.3c0.6,0.26,1.2,0.52,1.79,0.78c0.21-0.05,0.42-0.1,0.63-0.16c0.31,0.26,0.95,1.57,1.24,1.16   c0.1-0.03,0.2-0.07,0.3-0.1c0.11-0.53,0.27-2.17,0.9-2.32c0.69-0.13,2.54-0.95,3.06-0.42c0.11,0.66,0.25,1.25,0.61,1.83   c0.15,0.2,0.3,0.41,0.46,0.61c0.36,0.41,0.74,0.7,0.91,1.22c0.23,0.2,0.47,0.41,0.7,0.61c0.21,0.36,0.15,1.65,0.28,1.7   c1.09,0.46,0.94-0.03,1.91-0.03c0.35-0.3,0.61-0.65,0.99-0.22c0.08,0.17,0.15,0.35,0.23,0.52c0,0.37-0.08,0.64,0.16,0.92   c-0.3,0.25-0.61,0.51-0.91,0.76c0.4,0.4-0.26,1.82,0.69,1.12c0.38-0.32,0.76-0.64,1.13-0.97c0.13-0.42,0.44-1.12,1.06-0.85   c0.92,0.49,1.83,0.97,2.75,1.46c0.43,0.46,1.01,1.22,1.68,1.22c0.24,0.24,0.22,0.76,0.61,0.76c0.78-0.78,1.28-1.71,2.59-1.68   c-0.09,0.22-0.26,0.44,0.02,0.49c0.66,0.11,1.81-0.03,2.26,0.42c0.2,0.74,0.41,1.63,0.94,2.23c0.29,0.22,0.59,0.44,0.89,0.67   c0.45,0.02,0.9,0.03,1.35,0.05c0.46,0.18,1.11,0.38,1.24,0.86c0.41,0.04,0.81,0.08,1.22,0.12c0.18,0.03,0.42-0.57,0.6-0.77   c-0.05-0.09-0.1-0.18-0.14-0.27c0.03,0.03,0.06,0.05,0.09,0.08c0.29,0.27,0.95,1.39,1.32,1.2c2.85-1.39,7.39-1.24,10.01,0.55   c0.86,0.39,1.71,0.78,2.57,1.17c0.38,0.23,0.48,0.56,0.93,0.5c0.04,0.21,0.08,0.42,0.12,0.62c0.02,0.42-0.05,0.51,0.18,0.9   c-0.34,0.54-0.68,1.08-1.02,1.61c-0.12,0.38-0.23,0.75-0.35,1.13c0.29-0.06,0.58-0.11,0.87-0.17c0.24-0.35,0.15-0.39,0.04-0.75   c0.83-0.31,1.05-1.2,1.83-1.68c0.49-0.3,2.34-0.65,2.74-0.3c0.78-0.02,1.53,0.26,2.28,0c0.64,0.33,1.27,0.66,1.91,0.99   c0.53,0.28,1.07,0.56,1.6,0.83c0.4,0.25,2.31,0.78,2.59,0.46c1.03,0.24,1.35,0.57,2.23,0.99c0.99,0.42,1.98,0.85,2.97,1.27   c0.38,0.07,1.25-0.03,1.39,0.26c0.44,0.79,0.89,1.57,1.33,2.36c-0.1,0.42-0.15,1.87,0.16,2.1c0.7,0.52,2.28,1.59,3.19,0.95   c0.4,0.4,1.15,0.3,1.66,0.21c0.96,0.04,1.92,0.08,2.87,0.12c0.22-0.06,0.43-0.12,0.65-0.19c0.36-0.25,0.71-0.51,1.07-0.76   c0.03,0,0.06,0,0.09,0c0.02,0.1,0.04,0.2,0.07,0.3c0.77-0.26,1.61-0.27,2.28-0.76c0.4-0.29,1.25-1.33,1.68-1.37   c0.03-0.28-0.02-0.78,0.15-0.91c0.35-0.24,0.69-0.47,1.04-0.71c-0.04-0.07-0.08-0.14-0.12-0.2c0.51-0.56,1.02-1.12,1.52-1.68   c0.3-0.15,0.61-0.3,0.91-0.46c0.79-0.79,1.8-1.28,2.79-1.72c0.25-0.11,1.07-0.52,0.86,0.04c0-0.3,0.59-0.25,0.85-0.24   c0.81,0.05,1.65,0.28,2.46,0.6c0.37,0.28,1.35,0.19,1.72,0.47c0.67,0,2.17-1.51,2.59-1.98c0.18-0.89,0.41-1.19,0.81-1.57   L404.44,257.29z"/>
        <path fill-rule="evenodd" clip-rule="evenodd" fill="none" stroke="#000000" stroke-width="0.25" stroke-miterlimit="10" d="   M295.7,54.96c1.91-3.95,4.21-7.37,5.05-11.7c0.08-0.02,0.17-0.03,0.25-0.05c0.11-1.09,1-1.79,1.51-2.72   c0.62-1.14,0.52-1.89,0.64-3.2c0.21-2.24,1.59-4.12,1.84-6.39c0.28-2.54,0.78-4.74,0.27-7.28c-0.46-2.27-0.73-4.65-0.73-7.04   c0.01-5.34-2.13-9.79-2.13-15.08"/>
        <path fill-rule="evenodd" clip-rule="evenodd" fill="none" stroke="#000000" stroke-width="0.25" stroke-miterlimit="10" d="   M375.66,85.11c1.66,0.55,1.36,4.06,3.05,5.18c1.87,1.24,3.53,2.4,5.79,2.74c2.36,0.35,4.83,0.42,6.67,1.87   c1.63,1.28,2.51,2.89,3.53,4.69c1.34,2.35,0.87,4.66,0.11,7.12c-0.67,2.19-0.58,4.65-1.02,6.9c-0.41,2.08-1.02,4.7-2.4,6.38   c-0.77,0.94-1.46,1.39-1.75,2.56c-0.29,1.17,0.11,2.22,0.19,3.38c0.19,2.96,0.23,3.96,2.74,5.64c1.9,1.27,3.99,2.26,6.24,2.58   c5.01,0.73,9.98,0.96,15.08,1.22c1.22,0.06,2.56,0.35,3.81,0.15c1.24-0.19,2.28-0.96,3.36-1.52c1.96-1.01,4.09-1.93,6.08-3.01   c4.35-2.36,8.9-3.1,13.71-3.99c4.84-0.9,9.59-1.82,14.62-1.84c2.45-0.01,4.8,0.97,7.15,1.38c2.31,0.4,4.49,0.82,6.56,1.82   c1.57,0.76,3.07,1.72,4.69,2.32c5.27,1.96,9.37,7.29,15.26,7.58c0.96,0.05,2.09,0.13,3.05,0c1.06-0.14,1.91-0.86,2.89-1.07   c2.15-0.47,3.92,0.75,5.94,0.62"/>
        <path fill-rule="evenodd" clip-rule="evenodd" fill="none" stroke="#000000" stroke-width="0.25" stroke-miterlimit="10" d="   M390.13,93.95c-0.75-1.79,0.46-4.97,0.46-7.01c0-2.51-1.1-4.28-1.83-6.56c-0.75-2.33-0.3-4.74-0.19-7.15   c0.13-2.68-0.08-4.97-0.76-7.47c-0.47-1.73-1.89-3.99-1.65-5.94"/>
        <path fill-rule="evenodd" clip-rule="evenodd" fill="none" stroke="#000000" stroke-width="0.25" stroke-miterlimit="10" d="   M474.2,327.42c1.2-0.05,2.11-0.42,3.19-0.77c1.38-0.44,1.8-0.2,3.21,0c2.22,0.32,4.85-1.09,7.3-1.21c2.77-0.15,4.29-0.38,6.66,1.25   c1.75,1.2,4.45,2.69,5.52,4.69c1.19,2.21,0.51,4.63-0.46,6.7c-0.47,1.01-1.07,1.98-1.49,3.05c-0.45,1.14-0.06,2.29-0.33,3.5   c-0.48,2.1-2.77,3.72-3.66,5.78c-0.99,2.31-1.34,4.54-2.62,6.67c-2.59,4.3-5.32,8.71-8.39,12.52c-1.29,1.6-1.95,3.63-2.97,5.37   c-1,1.7-1.36,0.91-2.94,0.26c-1.13-0.46-2.25-0.21-3.5-0.15c-2.32,0.12-4.93,0.28-6.85,1.56c-1.9,1.26-3.98,2.06-5.75,3.65   c-1.71,1.55-3.24,3.29-4.35,5.26c-1.34,2.39-1.15,4.66-1.33,7.35c-0.1,1.59-0.8,2.67-1.18,4.15c-0.42,1.63-0.31,3.35-1.84,4.4   c-0.16,2.03-3.7,3.67-5.36,3.93c-2.31,0.37-5.08,0.35-6.86,2.17c-1.85,1.9,1.05,3.5,1.22,5.6c0.12,1.46-0.82,1.88-1.48,2.9   c-0.66,1.02-0.71,2.14-1,3.31c-0.26,1.06-0.77,2.42-0.81,3.38c-0.07,1.71,0.5,3.69,0.53,5.47c-2.51,0.13-3.83-0.18-5.8-1.46   c-1.83-1.2-4.72-1.46-6.56-0.23c-1.47,0.98-3.22,2.73-4.34,4.04c-1.25,1.46-1.78,3.47-3.24,4.84"/>
        <path fill-rule="evenodd" clip-rule="evenodd" fill="none" stroke="#000000" stroke-width="0.25" stroke-miterlimit="10" d="   M144.62,396.57c-0.1,1.43-1.06,2.11-1.99,3.05c-0.82,0.83-1.32,1.91-2.01,2.86c-1.42,1.96-2.1,4.21-3.88,6.01   c-1.68,1.71-2.87,3.68-3.7,5.91c-0.38,1.01-0.6,2.11-0.94,3.16c-0.37,1.15-0.99,1.71-1.6,2.65c-2.46,3.83-5.08,7.76-8.57,10.78   c-1.85,1.6-2.81,3.77-4.07,5.83c-1.29,2.11-2.7,3.91-3.89,6.02c-0.57,1.02-1.49,1.94-1.91,3.09c-0.21,0.58-0.09,1.25-0.34,1.83   c-0.3,0.7-0.78,0.86-1.19,1.41c-0.65,0.88-1.07,1.97-1.67,2.85c-0.74,1.08-1.74,1.88-2.01,3.2c-0.5,2.45,0.97,4.85,0.34,7.31   c-0.47,1.84-2.11,4.17-3.27,5.76c-0.63,0.88-1.29,1.44-1.49,2.62c-0.14,0.82-0.16,3,0.3,3.2"/>
        <path fill-rule="evenodd" clip-rule="evenodd" fill="none" stroke="#000000" stroke-width="0.25" stroke-miterlimit="10" d="   M72.43,223.1c-2.2-1.03-4.23-2.1-6.55-2.59c-2.36-0.5-5.09,0.23-7.47-0.33c-1.08-0.26-2.05-1.11-3.05-1.49   c-1.12-0.43-2.16-0.49-3.35-0.76c-1.05-0.24-1.97-0.8-3.04-0.92c-1.3-0.15-2.51,0.28-3.81,0.15c-2.38-0.23-5.05-0.62-7.16-1.56   c-2.06-0.93-4.72-0.5-7.01-0.72c-2.3-0.22-4.51-0.96-6.85-1.07c-1.26-0.06-2.54,0-3.81,0c-1.29,0-2.47-0.46-3.66-0.46   c-2.47,0.01-5.52,1.23-7.92,1.82c-1.29,0.32-2.7,0.54-3.96,0.91c-1.18,0.35-2.45,1.22-3.81,1.23"/>
        <text transform="matrix(0.68 -0.7332 0.7332 0.68 75.8223 75.4617)" font-family="'MyriadPro-Regular'" font-size="11">SİVAS</text>
        <text transform="matrix(0.553 0.8332 -0.8332 0.553 39.0745 301.9927)" font-family="'MyriadPro-Regular'" font-size="11">KAHRAMANMARAŞ</text>
        <text transform="matrix(0.9316 -0.3636 0.3636 0.9316 327.1875 444.4705)" font-family="'MyriadPro-Regular'" font-size="11">ADIYAMAN</text>
        <text transform="matrix(0.3785 0.9256 -0.9256 0.3785 440.8293 199.991)" font-family="'MyriadPro-Regular'" font-size="11">ELAZIĞ</text>
        <text transform="matrix(0.9401 0.341 -0.341 0.9401 327.9006 24.1455)" font-family="'MyriadPro-Regular'" font-size="11">ERZİNCAN</text>
    </g>
    <g id="__Harita" display="none">
        <rect id="__cer" x="0" y="0" fill="#000000" opacity="0" width="500" height="473"/>
        <g id="__Akçadağ">
            <path d="    M202.81,231.77c-0.19,0.33-0.1,0.52-0.47,0.7c0.06,1.72,0.04,3.18-1.02,4.6c-0.16,0.26-0.31,0.53-0.47,0.79    c-1.92,1.17-2.9,0.68-4.91,0.09c-0.46-0.05-0.91-0.1-1.37-0.15c-1.37-0.05-2.74-0.1-4.11-0.15c-0.73,0.19-1.49,0.3-2.13,0.76    c-0.25,0.2-0.51,0.41-0.76,0.61c-0.46,0.1-0.91,0.2-1.37,0.3c-0.61,0.3-1.22,0.61-1.83,0.91c-0.86,0.22-1.72,0.44-2.58,0.67    c-1.6,0.64-3.23,0.8-4.88,1.16c-0.6,0.23-1.2,0.46-1.8,0.69c-1.37,0.34-2.74,0.68-4.12,1.01c-0.47,0.22-1.07,0.22-1.24,0.73    c-0.91-0.11-1.82-0.23-2.73-0.34c-0.44-0.12-0.88-0.24-1.31-0.37c-0.2,0.2-0.39,0.39-0.59,0.59c-0.55-0.05-0.4,0.11-0.39,0.56    c0.18,1.82,0.27,3.65,0,5.5c-0.46,1.37-0.91,2.74-1.37,4.11c-0.19,0.79-0.18,1.48-0.51,2.25c-0.46,1.06-0.52,2.67-1.68,3.29    c-0.53,0.39-1.07,0.78-1.6,1.17c-0.82,0.35-1.63,0.7-2.45,1.05c-0.52,0.08-1.98,0.29-2.28,0.61c-1.66-0.39-3.34-0.88-5.03-1.17    c-0.73-0.12-0.98-0.42-1.67-0.06c-2.15,1.13-3.96,4.64-3.96,7.16c-0.61,0.86-1.22,1.73-1.83,2.59c-0.51,0.67-2.7,2.66-3.5,2.89    c-0.48,0.48-1.43,1.65-2.13,1.68c-0.41,0.41-0.81,0.81-1.22,1.22c-0.26,0.55-0.52,1.09-0.79,1.64c-0.51,0.86-1.76,2.77-2.72,3.08    c0.11,0.5,0.23,0.83,0.57,1.23c0.78,0.86,1.55,1.72,2.33,2.58c0.24,0.42,0.48,0.83,0.71,1.25c0.42,0.4,0.84,0.79,1.27,1.19    c1.86,0.78,3.57,1.79,5.34,2.75c1.11,0.71,2.23,1.42,3.34,2.12c0.51,0.95,1.06,2.12,1.98,2.74c0.15,0.3,0.3,0.61,0.46,0.91    c0.3,2.34,0.61,4.67,0.91,7.01c1.24,2.11,2.47,4.22,3.71,6.33c1.07,1.52,2.13,3.04,3.2,4.56c0.29,0.43,0.57,0.86,0.86,1.29    c0.26,0.6,0.52,1.2,0.79,1.8c0.19,0.32,0.54,0.89,0.43,1.25c0.3,0.66,0.61,1.32,0.91,1.98c0.57,0.42,0.64,0.69,1.37,0.46    c0.93-0.31,1.86-0.61,2.78-0.92c0.75-0.4,1.49-0.81,2.24-1.21c1.03-0.91,2.02-1.58,3.2-2.28c1.98-1.83,3.96-3.66,5.94-5.48    c0.82-0.35,1.64-0.7,2.46-1.06c0.4-0.28,0.79-0.56,1.19-0.84c0.41-0.18,0.91-0.11,1.23-0.39c1.12,0.1,2.23,0.2,3.35,0.3    c0.46,0.16,0.91,0.31,1.37,0.47c0.65,0.04,1.93,0,2.29,0.6c0.56,0.25,1.12,0.51,1.68,0.76c0.83,0.05,1.48,0.33,2.29,0.51    c0.66,0.13,1.31,0.27,1.97,0.4c2.33-0.15,4.67-0.3,7.01-0.46c1.97,0.73,4.16,0.59,6.24,0.91c0.41,0.41,0.81,0.81,1.22,1.22    c0.84,0.36,1.36,0.12,2.21,0.82c0.3-0.08,2.34,0.91,2.51,1.16c0.76,0,1.52-0.01,2.27-0.01c0.62,0.03,2.45,0.16,2.9-0.14    c1.68,0.15,3.35,0.3,5.03,0.46c0.84,0.05,1.27-0.74,1.98-0.76c0.1-0.49,0.21-0.97,0.31-1.46c0.14-0.24,0.28-0.48,0.42-0.71    c0.47-1.66,0.93-3.32,1.4-4.98c0.14-0.99,1.71-2.35,2.56-2.26c0.11-0.06,0.23-0.12,0.34-0.18c1.61,1.06,3.23,2.12,4.84,3.17    c0.31,0.53,1.6,2.5,2.32,2.45c0.66,0.05,1.32,0.11,1.98,0.16c0.25-0.05,1.88-0.15,2.44-0.15c0.71-0.51,1.42-1.02,2.13-1.53    c0.28-0.3,0.52-0.81,0.92-0.91c0.08-0.36,0.38-1.27,0.46-1.37c-0.22-2.3,0.04-4.5-0.15-6.85c-0.05-0.57,0.46-0.79,0.49-1.25    c0.06-0.89-0.33-3.13,0.27-3.77c-0.11-0.66-0.4-2.27,0.15-2.74c-0.2-1.63,0.24-3.1,0.58-4.69c0.11-0.62,0.23-1.24,0.34-1.86    c-0.06-1.68-0.11-3.35-0.17-5.03c-0.1-0.76-0.19-1.52-0.29-2.28c-0.35-0.61-0.69-1.22-1.04-1.82c0.24-0.96,0.43-2.44,1.34-3.05    c0.39-1.11,0.92-2.03,1.98-2.59c0.62-0.33,0.41-0.68,1.22-0.61c0.07-2.34,1.05-3.73,2.53-5.52c0.32-0.09,0.65-0.18,0.97-0.27    c0.15-0.36,0.3-0.71,0.46-1.07c0.07-0.46,0.15-0.91,0.22-1.37c0.38-1.06,0.81-2.1,1.19-3.17c0.13-0.37,0.42-0.87,0.26-1.24    c0.28-0.34,0.61-0.73,1.07-0.61c0.87-1.27,2.44-1.87,3.05-3.35c0.21-0.51,0.91-1.22,0.72-1.8c-0.22-0.65-0.26-0.92-0.26-1.55    c-1.55-2.19-4.31-3.61-6.24-5.48c-1.02-1.22-2.03-2.44-3.05-3.66c-0.25-0.56-0.51-1.12-0.76-1.68c0-1.12,0-2.23,0-3.35    c-0.37-0.19-0.75-0.37-1.12-0.56c-0.68-0.14-2.82-0.38-3.3-0.81c-1.83,0.06-3.45-0.21-5.22-0.6c-0.64-0.14-2.42,0.11-2.7-0.31    c-2.18,0-4.37,0-6.55,0c-0.86,0.1-1.73,0.2-2.59,0.3c-0.86,0.01-1.71,0.01-2.57,0.02c-1,0.1-4.03,0.26-4.74,0.74    c-0.36,0.05-0.71,0.1-1.07,0.15c-0.61-0.07-1.22-0.15-1.83-0.22c-1.34-0.14-2.52-0.72-3.9-0.52c-0.09-0.06-0.18-0.11-0.27-0.17    c-1.06,0.14-1.84,0.74-2.84,1.03c-0.62,0.19-2.24,0.58-2.43,0.19c-0.29-0.58-0.52-3.96-0.3-4.57c-0.16-0.04-0.32-0.07-0.49-0.1    c-0.14-0.07-0.29-0.13-0.43-0.2c-0.36,0.05-0.71,0.1-1.07,0.15C204.38,231.57,203.31,230.88,202.81,231.77z"/>
            <circle cx="216.35" cy="284.93" r="1.586"/>
        </g>
        <g id="__Hekimhan">
            <path d="    M207.06,231.7c-0.16-0.04-0.32-0.07-0.49-0.1c-0.14-0.07-0.29-0.13-0.43-0.2c-0.36,0.05-0.71,0.1-1.07,0.15    c-0.7,0.02-1.77-0.67-2.27,0.22l-0.32-2.81c-0.46-0.25-0.65-1.56-0.86-2.1c-0.59-1.53-1.32-2.98-2.19-4.45    c-1.83-0.76-3.66-1.52-5.48-2.28c-0.17-0.67-1.44-1.27-1.98-1.68c-0.81-0.91-1.62-1.83-2.44-2.74c-0.22-1.08-2.67-3.75-3.52-4.71    c-0.35-0.46-0.7-0.92-1.05-1.38c-0.63-0.53-1.26-1.05-1.89-1.58c-0.64-0.44-1.28-0.88-1.91-1.31c-0.46-0.51-0.91-1.02-1.37-1.52    c-0.56-0.36-1.12-0.71-1.68-1.07c-0.66-0.56-1.32-1.12-1.98-1.68c-0.66-0.46-1.32-0.91-1.98-1.37c-1.01-0.38-2.03-0.76-3.04-1.14    c-0.32-0.35-0.6-0.82-1.08-0.86c-0.71-0.91-1.42-1.81-2.13-2.72c-0.27-0.82-0.47-1.51-0.4-2.37c-0.04-0.34-0.09-0.68-0.13-1.02    c-0.39-1.21-0.43-2.66-0.39-3.92c0.02-0.71,2-1.53,2.76-1.82c0.14-0.62,0.78-0.65,1.17-0.97c1.39-1.2,2.77-2.4,4.16-3.6    c0.7-0.03,2.07-1.19,2.59-1.68c0.72-0.31,1.45-0.61,2.17-0.92c0.75-0.3,1.5-0.61,2.25-0.91c0.51-0.61,1.02-1.22,1.52-1.83    c0.08-0.26,0.16-0.53,0.25-0.79c-0.03-0.75-0.06-1.5-0.09-2.26c-0.03-0.8-2.08-2.13-2.75-2.13c-1.18-0.83-2.38-0.6-3.87-0.39    c-0.68,0.09-3.77-0.64-4.35-0.98c-0.34-0.27-0.69-0.54-1.03-0.81c-1.35-1.04-0.91-4.82,0.34-5.96c0.7-0.64,1.47-0.95,2.21-1.46    c0.15-0.2,0.3-0.41,0.46-0.61c0.62-0.56,1.2-1.52,2-1.78c0.22-0.53,0.2-0.86,0.29-1.41c0.58-0.47,0.41-1.61,0.46-2.28    c0.25-0.28,0.67-2.32,0.51-2.63c0.08-0.56,0.32-1.74-0.11-2.13c0-1.69-0.32-3.49-1.41-4.78c0.39-1.08,0.78-2.17,1.17-3.25    c0.14-0.7,0.41-2.09,0.91-2.59c0.15-2.69,0.29-5.39,0.44-8.08c0.03-0.32-0.66-0.71-0.9-0.9c0.06-0.75-1.44-2.19-1.98-2.74    c-0.25-0.66-0.51-1.32-0.76-1.98c0.28-0.44,0-1.53-0.03-2.08c0.16-0.98,0.31-1.97,0.47-2.95c0.27-1.72,0.53-3.43,0.8-5.15    c0.34-1.58,0.91-3.1,0.74-4.74c0.84-0.76,0.19-3.34-0.15-4.26c-0.21-0.57-0.73-1.25-1.23-1.58c0.09-2.03-1.36-5.53-2.12-7.4    c-0.2-0.25-0.41-0.51-0.61-0.76c-0.46-0.06-0.68-0.51-1.07-0.76c-0.36-0.2-0.71-0.41-1.07-0.61c0.01-0.45-0.34-0.72-0.61-1.07    c-0.15-0.36-0.3-0.71-0.46-1.07c-0.2-1.07-0.41-2.13-0.61-3.2c-0.73-1.4-0.97-2.37-0.91-3.96c-0.62-0.49-0.37-1.58-0.3-2.28    c-0.29-0.66,0.2-1.53,0.46-2.13c0.13-0.44,0.25-0.89,0.38-1.33c0.53-1.18,1.07-2.36,1.6-3.54c0.49-0.26,2.73-2.41,2.85-2.8    c1.13-0.69,2.27-1.38,3.4-2.07c0.54,0.26,1.72-0.37,2.27-0.55c1.28-0.43,2.9-0.79,4.28-0.51c1.17,0.15,2.34,0.3,3.5,0.46    c0.66,0.3,1.32,0.61,1.98,0.91c1.22,0.23,2.28,0.53,3.49,1.12c1.63-0.1,3.28,0.62,4.91,0.82c1.62,0.17,3.23,0.33,4.85,0.49    c1.98,0.01,3.96,0.02,5.94,0.02c2.96-0.05,5.93-0.1,8.89-0.14c2.55,0.47,5.26,0.68,7.86,0.64c0.78-0.01,1.38-0.51,2.13-0.52    c0.3-0.05,0.61-0.1,0.91-0.15c0.36-0.15,0.71-0.3,1.07-0.46c0.81-0.15,1.62-0.3,2.44-0.46c0.41-0.1,0.81-0.2,1.22-0.3    c1.18-0.1,2.35-0.21,3.53-0.31c0.4-0.1,0.8-0.2,1.19-0.3c1.83-0.05,3.66-0.1,5.48-0.15c1.02,0.1,2.03,0.2,3.05,0.3    c0.15-0.1-0.46,1.22-0.91,1.98c0.08,0.55-0.46,1.76-0.94,1.98c-0.09,0.31-0.19,0.61-0.28,0.92c-0.3,0.42-0.56,0.68-1.07,0.88    c-0.39,0.63-0.78,1.26-1.18,1.88c-0.69,1.32-1.08,2.81-1.41,4.24c-0.12,0.5,0.03,1.99,0.34,2.35c-0.16,1.35,0.35,2.4,0.65,3.66    c0.13,0.59,0.25,1.17,0.38,1.76c0.63,0.37,0.97,1.18,1.22,1.83c0.78,0.19,1.54,1.26,1.9,1.92c0.28,0.32,0.56,0.65,0.84,0.97    c-0.13,0.34,0.3,0.97,0.49,1.29c0.29,0.94,0.59,1.88,0.88,2.82c0,0.96,0,1.93,0,2.89c-0.41,2.29-0.85,4.58-1.07,6.85    c0.05,0.51,0.1,1.02,0.15,1.52c0.59,0.48,0.5,1.45,0.46,2.13c0.17,0.51,0.35,1.03,0.52,1.54c0.75,1.51,1.5,3.02,2.26,4.54    c0.34,1.25,0.75,2.33,1.26,3.5c0.23,0.72,0.46,1.43,0.69,2.15c0.66,1.32,1.32,2.64,1.98,3.96c0.43,0.18,0.74,0.87,1.02,1.26    c0.27,0.44,0.54,0.89,0.8,1.33c0.66,0.7,1.14,1.51,1.52,2.44c-0.17,0.37,0.13,0.69,0.15,1.07c-0.1,1.42-0.2,2.84-0.3,4.26    c-0.1,0.3-0.2,0.61-0.3,0.91c-0.44,0.3-0.41,1.15-0.45,1.68c-0.1,1.61,0.23,3.01,0.45,4.56c0.15,0.83,0.31,1.67,0.46,2.5    c0.06,0.47,0,1.93,0.16,2.14c-0.1,1.2-0.21,2.39-0.31,3.59c-0.15,0.46-0.3,0.91-0.46,1.37c0.09,0.65,0.17,1.3,0.26,1.95    c0.12,0.42,0.23,0.83,0.35,1.25c0.06,1.01-0.34,1.68-0.46,2.59c0,0.96,0,1.93,0,2.89c0.82,0.79,0.65,2.78,0.91,3.81    c0.19,1.07,0.38,2.14,0.58,3.2c0.16,0.56,0.33,1.11,0.49,1.67c0.01,0.57,0.02,1.14,0.03,1.7c0.47,2.44,0.83,6.26-1.3,7.96    c-0.49,0.07-0.98,0.15-1.48,0.22c-1.32-0.1-2.64-0.19-3.96-0.29c-0.59,0.23-1.19,0.46-1.78,0.69c-0.78,0.53-1.55,1.06-2.33,1.59    c-0.01,0.49-0.41,0.73-0.69,1.13c-0.79,0.89-1.58,1.78-2.37,2.67c-0.29,0.33-0.68,1.23-1.2,1.23c-0.91,1.68-2.28,1.75-3.74,1.91    c-0.94,0.12-1.88,0.24-2.82,0.36c-0.77-0.28-1.54-0.55-2.3-0.83c-1.16-0.36-2.31-0.31-3.49-0.52c-0.5-0.16-1.01-0.31-1.51-0.47    c-1.02-0.06-2.03-0.13-3.05-0.2c-2.62-0.21-5.17-0.72-7.76-0.11c-1.04-0.4-3.48,0.39-4.25,1.09c-0.4,0.25-0.79,0.5-1.19,0.75    c-2.07,1.13-4.24,2.86-4.98,5.22c-0.28,0.9-0.14,2.08,0.06,2.99c-0.24,0.42,0.03,1.23,0.15,1.68c-0.19,0.52,0.23,2.3,0.36,2.91    c0.13,0.88,0.27,1.75,0.4,2.63c-0.2,2.72-0.02,5.41,0.3,8.01c0.36,0.81,0.71,1.62,1.07,2.44c0.74,0.28,1.42,2.17,1.68,2.89    c-0.23,0.3-0.14,0.69-0.15,1.06c-0.25,0.42-0.5,0.84-0.76,1.26c-0.21,0.34-0.41,0.69-0.62,1.03c-0.3,0.03-1.76,1.79-1.98,2.13    c-0.05,0.21-0.1,0.42-0.16,0.63c-0.26,0.45-0.53,0.89-0.79,1.34L207.06,231.7z"/>
            <circle cx="207.37" cy="150.45" r="1.586"/>
        </g>
        <g id="__Arapgir">
            <path d="    M298.18,55.77c3.58,4.58,6.7,9.4,13.05,9.77c0.65,0.04,1.93-0.35,2.44,0c1.08-0.83,2.14-1.6,3.38-2.24    c1.11-0.57,2.21-1.14,3.32-1.71c1.12-0.56,2.24-1.12,3.36-1.68c1.26-0.96,2.83-2.04,4.42-2.28c0.41,0.05,0.81,0.1,1.22,0.15    c1.22-0.1,2.44-0.2,3.66-0.3c0.39,0.05,0.72,0.2,1.07,0c0.86,0.25,1.73,0.51,2.59,0.76c1.42,0.85,2.75,1.91,3.96,3.05    c0.86,0.86,1.73,1.73,2.59,2.59c1.13,0.86,3.36,1.58,4.72,1.98c0.76,0.1,1.52,0.2,2.28,0.3c1.17,0.05,2.34,0.1,3.5,0.15    c1.62,1.22,3.25,2.44,4.87,3.66c0.68,0.14,1.29,0.57,1.83,0.98c0.4,0.31,1.22,0.91,1.22,1.46c0.44,0.44,0.38-0.11,0.61,0.76    c1.08,1.05,2.17,2.1,3.26,3.15c2.13,2.51,4.71,4.51,7.37,6.49c0.47,0.39,0.94,0.78,1.41,1.18c0.29,0.35,0.33,0.75,0.76,0.91    c-0.11,0.25-0.23,0.49-0.34,0.74c-0.4,0.82-0.79,1.64-1.19,2.46c-1.38,1.97-3.32,3.47-5.03,5.18c-1.78,1.32-3.55,2.64-5.33,3.96    c-0.25,0.36-0.51,0.71-0.76,1.07c-0.62,0.68-1.24,1.37-1.86,2.05c-0.9,1.26-1.93,2.42-3.1,3.45c-0.17,0.73-0.91,1.1-1.13,1.81    c-0.05,1.22-0.1,2.44-0.15,3.66c-0.41,0.81-0.81,1.62-1.22,2.44c-0.51,0.44-1.02,0.88-1.53,1.31c-1.52,1.03-3.04,2.07-4.56,3.1    c-0.36,0.86-0.71,1.73-1.07,2.59c-0.23,1.59,0.49,4.26,1.6,5.41c0.33,0.28,0.66,0.56,0.99,0.83c0.38,0.48,0.61,0.92,1.08,1.35    c0.35,0.31,0.92,0.77,0.9,1.24c0.93,0.45,1.7,1.12,2.44,1.83c0.27,0.02,1.24,0.01,1.19,0.3c-0.06,0.33-0.13,0.65-0.2,0.98    c0.36,1.32,1.31,2.55,2.66,3.14c0.57,0.25,0.88,0.83,1.52,0.91c1.17,1.6,2.24,3.07,3.86,4.28c0.22,0.6,1.62,1.5,2.24,1.81    c1.53,0.63,3.06,1.25,4.59,1.88c0.04,0.39,0.09,0.78,0.13,1.17c-0.56,0.91-1.12,1.83-1.68,2.74c0,1.61-0.12,3.46-0.61,5.03    c-0.25,0.81-0.51,1.62-0.76,2.44c-0.36,0.96-0.71,1.93-1.07,2.89c-0.15,0.54-0.72,3.1-1.09,3.29c-0.46,0.25-2.76,0.94-2.7,1.53    c0.06,0.31-0.18,0.32-0.03,0.68c0.64,1.51,1.76,2.19,2.91,3.34c0.49,0.49,0.98,1.3,0.59,1.97c-0.2,0.36-0.39,0.72-0.59,1.08    c-1.14,1.45-3.17,1.98-4.87,1.98c-0.76-0.25-1.52-0.51-2.28-0.76c-0.86-0.05-1.73-0.1-2.59-0.15c-0.69,0.09-3.32,0.82-3.77,0.54    c-1.05-0.68-1.8-1.45-2.63-2.37c-0.63,0-1.95-1.02-2.28-1.52c-0.85-0.32-1.71-0.64-2.57-0.96c-0.95-0.47-3.44-1.08-4.42-0.66    c-1.71,0.86-2.14,3.06-3.62,4.28c-0.08,0.11-0.16,0.22-0.23,0.32c-0.52,0.26-1.34,0.37-1.8-0.09c-0.46-0.71-0.91-1.42-1.37-2.13    c-1.18-1.38-2.03-3.18-3.35-4.57c0.44-0.52,0.57-1,0.61-1.68c-0.9,0-1.09,0.16-1.35-0.68c-0.76-2.58-1.51-5.47-3.72-7.35    c-0.6-0.47-1.19-0.94-1.79-1.41c-1.82-0.03-3.65-0.05-5.47-0.08c-0.4-0.06-1.33-0.01-1.54-0.22c-0.93-0.12-1.73-0.29-2.52-0.72    c-0.1,0.01-0.21,0.02-0.31,0.03c-3.29-2.9-0.79-6.35,0.24-9.51c0.41-1.24,0.03-2.42,0.15-3.66c0.2-0.96,0.41-1.93,0.61-2.89    c0.05-1.07,0.1-2.13,0.15-3.2c-0.52-0.52-0.12-0.9-0.3-1.52c-0.17-0.55-0.51-0.94-0.61-1.52c-0.18-1.12-0.94-2.45-1.52-3.35    c-0.27-0.41-0.66-1.93-0.3-2.28c-0.2-0.51-0.41-1.02-0.61-1.52c-0.25-0.41-0.51-0.81-0.76-1.22c-0.71-0.76-1.42-1.52-2.13-2.28    c-0.64-0.38-1.28-0.75-1.92-1.13c-1.22-0.96-2.43-1.92-3.65-2.88c-0.84-0.49-1.68-0.98-2.52-1.48c-0.65-0.66-1.3-1.32-1.96-1.98    c-0.22-0.14-0.44-0.28-0.67-0.42c-0.29-0.27-0.57-0.53-0.86-0.8c-1.32-0.63-3.66-0.77-4.72-1.83c-0.82-0.19-1.64-0.27-2.27-0.82    c-1.02-1.55-2.04-3.11-3.07-4.66c-1.47-1.68-2.94-3.35-4.42-5.03c-0.36-0.66-0.71-1.32-1.07-1.98c-0.35-0.46-0.71-0.91-1.06-1.37    c-0.2-0.25-0.41-0.51-0.61-0.76c-0.3-0.91-0.61-1.83-0.91-2.74c-0.32-0.81-0.64-1.61-0.96-2.42c-0.19-0.56-0.38-1.13-0.57-1.69    c-0.35-1.42-0.7-2.84-1.06-4.26c-0.36-0.81-0.71-1.62-1.07-2.44c-0.71-3.15-1.42-6.3-2.13-9.44c0-1.27,0-2.54,0-3.81    c0.02-0.27,0.31-1.07,0-1.07c0.23-0.4,0.96-1.47,0.61-1.83c0.86-0.74,1.72-1.48,2.58-2.22c0.71-0.48,1.42-0.96,2.14-1.43    c3.53-1.1,7.36-0.8,10.96-1.48c1.92-0.37,3.34-1.87,5.18-2.32C296.09,55.02,297.19,54.51,298.18,55.77z"/>
            <circle cx="333.85" cy="88.23" r="1.586"/>
        </g>
        <g id="__Pütürge">
            <path d="    M432.31,297.04c-0.71,0.51-1.42,1.02-2.13,1.52c-0.3,0.15-0.61,0.3-0.91,0.46c-0.96,1.07-1.93,2.13-2.89,3.2    c-1.39,0-1.59,1-2.28,1.83c-1.04,0.63-2.09,1.26-3.13,1.89c-0.53-0.07-1.06-0.14-1.59-0.21c-0.53-0.27-0.73-0.48-1.35-0.42    c-1.31,0.18-0.98,0.76-1.71,1.51c-0.25,0.04-0.49,0.09-0.74,0.13c0.34-0.2,0.24-0.39,0.3-0.76c0.62-0.34,0.71-0.96,1.5-1.3    c1.02,0.03,2.04,0.07,3.07,0.1c0.37,0,0.45,0.09,0.47-0.33c1.82-1.09,0.94-2.86,2.58-3.8c0.51-0.15,1.02-0.3,1.52-0.46    c0.41-0.66,0.81-1.32,1.22-1.98c0.46-0.15,0.91-0.3,1.37-0.46c0.66-0.51,1.32-1.02,1.98-1.52c0.36-0.05,0.71-0.1,1.07-0.15    c0.07-0.37,0.42-0.7,0.76-0.91c0.78-0.49,2.2-0.26,2.97-0.99c0.27-0.28,0.29-0.56,0.32-0.41c1.08-0.44,1.57-1.26,2.41-1.9    l0.7-0.43c-1.07-0.15-1.52-0.61-2.31-0.88c-0.87-1.52-2.24-2.84-3.68-4c-0.39-0.28-0.78-0.55-1.17-0.83    c-0.69-0.65-0.95-1.7-1.91-1.9c-0.02-0.07-0.04-0.15-0.06-0.22c0.16,2.41-1.35,3.3-2.97,4.89c-0.86,0.77-1.72,1.54-2.58,2.31    c-0.64,0.34-1.28,0.68-1.92,1.02c-1.12,0.27-2.21,0.43-3.35,0.15c-0.83-0.38-1.66-0.76-2.49-1.15c-0.69-0.23-1.39-0.45-2.08-0.68    c-0.56-0.3-1.12-0.61-1.68-0.91c-1.12-0.46-2.23-0.91-3.35-1.37c-0.41-0.1-0.81-0.2-1.22-0.3c-0.61,0.46-1.22,0.91-1.83,1.37    c-0.19,0.33-0.38,0.66-0.58,0.99c-0.26,0.33-0.53,0.66-0.79,0.99c-1.8,0.9-3.33,1.98-5.22,2.71c-0.75,0.42-1.5,0.83-2.25,1.25    c-0.46,0.49-2.63,2.1-2.74,2.44c-0.82,0.5-1.63,0.99-2.45,1.49c-0.95,0.82-1.67,1.53-2.9,1.97l-0.54,0.1c-1.23,0.5-2.47,1-3.7,1.5    c-1.42,1.06-2.85,2.12-4.27,3.17c-0.2,0.25-0.41,0.51-0.61,0.76c-0.29,0.21-0.58,0.43-0.87,0.64c-0.73,0.3-1.45,0.59-2.18,0.89    c-1.27-0.08-2.21-0.49-3.35-1.07c-0.81-0.1-1.62-0.2-2.44-0.3c-0.56-0.2-1.12-0.41-1.68-0.61c-2.14-0.61-5.22,0.11-7.16,1.07    c-0.51,0.25-1.02,0.51-1.52,0.76c-2.92,0.83-5.73,2.63-7.34,5.25c-0.5,0.89-0.99,1.78-1.49,2.67c0,0.41,0,0.81,0,1.22    c0.2,0.3,0.34,0.39,0.3,0.76c0.56,0.51,1.81,1.13,1.98,1.83c1.72,0.76,3.45,2.19,4.26,3.81c0.1,0.58,0.2,1.17,0.29,1.75    c0.35,0.49,0.16,1.32,0.14,1.9c-0.24,1.67-0.49,3.34-0.73,5.02c0.03,1.83,0.05,3.66,0.08,5.49c-0.15,1.33-0.24,2.93-0.85,4.12    c-0.33,0.4-0.66,0.81-0.99,1.21c-0.25,0.36-0.4,0.79-0.84,0.92c-0.22,0.37-0.45,0.75-0.67,1.12c-0.41,0.41-1.25,0.72-1.31,1.31    c-0.45,0.15-0.97,0.55-1.34,0.28l0.43,0.02c0.77,1.16,2.14,1.43,3.18,2.27c1.6,1.3,2.92,2.87,4.32,4.38    c0.6,0.67,1.19,1.35,1.79,2.02c1.12,0.66,2.23,1.32,3.35,1.98c0.32,0.55,0.64,1.1,0.96,1.65c0.35,0.47,1.03,0.86,1.17,1.4    c1.37,1.17,2.74,2.34,4.11,3.5c1.47,0.44,3.16,0.51,4.67,0.21c0.72-0.18,1.44-0.36,2.17-0.55c0.62-0.14,1.23-0.28,1.85-0.42    c0.36,0.05,0.71,0.1,1.07,0.15c1.86,1.08,5.04,2.7,5.79,4.72c0.16,0.42,0.55,0.59,0.61,1.07c1.18,1.39,2.36,2.79,3.54,4.18    c0.81,1.38,3.17,4.49,4.54,5.26c1.83,1.03,4.08,1.83,6.18,1.71c0.74-0.04,1.67-0.33,2.35-0.04c0.91-0.3,1.83-0.61,2.74-0.91    c2.56-2.56,3.74-6.15,6.7-8.38c0.3-0.15,0.61-0.3,0.91-0.46c0.54-0.36,1.08-0.72,1.61-1.08c1.33-0.46,2.66-0.92,3.99-1.38    c0.84-0.28,2.17-0.18,2.77-0.82c0.45,0.05,1.51-0.44,1.96-0.4c1.77-0.15,5.03-0.86,6.57-1.66c2.09-0.68,4.19-1.35,6.28-2.03    c1.46-0.29,2.92-0.58,4.38-0.87c1.88-0.25,3.76-0.51,5.64-0.76c0.67-0.23,1.35-0.47,2.02-0.7c1.14-0.27,2.27-0.63,3.16-1.43    c0.4-0.51,0.8-1.03,1.2-1.54c1.67-2.12,2.83-4.4,3.98-6.83c0.26-1.02,0.52-2.03,0.78-3.05c0.35-1.27,0.7-2.54,1.05-3.81    c0.46-0.96,0.91-1.93,1.37-2.89c1.98-1.86,3.96-3.71,5.94-5.57c0.72-0.16,1.54-1.12,2.02-1.68c0.14-0.07,0.28-0.14,0.42-0.21    c0.17-0.28,0.34-0.56,0.5-0.84c0.73-0.14,1.02-0.46,1.63-1.07c-0.01-0.27-0.49-0.78-0.3-0.99c-1.29-1.25-2.38-2.82-3.22-4.4    c-0.4-0.92-0.8-1.84-1.2-2.76c-0.16-0.53-0.33-1.07-0.49-1.6c-0.19-0.38-0.38-0.76-0.58-1.14c-0.61-0.61-1.22-1.22-1.83-1.83    c-0.76-0.41-1.52-0.82-2.28-1.22c-0.49-0.27-0.98-0.53-1.47-0.8c-1.39-0.19-2.78-0.38-4.17-0.57c-2.89-0.48-4.45-2.77-6.48-4.57    c-0.58-0.3-1.16-0.61-1.74-0.91c-1.32-0.26-2.64-0.51-3.96-0.77c-1.42,0.08-2.84,0.16-4.25,0.24c-1.12-0.23-2.24-0.46-3.36-0.69    c-0.85-0.39-1.4-1.05-2.29-1.34c-0.66-0.51-1.31-1.02-1.97-1.52c-1.03-1.21-1.89-2.91-1.07-4.45c0.05-0.25,0.1-0.51,0.15-0.76    c0.19-0.45,0.66-0.82,1.07-1.07c0.28-0.61,0.56-1.5,1.22-1.83c0.35-0.69,0.61-1.35,0.61-2.13    C433.53,296.58,433.02,296.73,432.31,297.04z"/>
            <circle cx="417.08" cy="326.2" r="1.586"/>
        </g>
        <g id="__Doğanyol">
            <path d="    M470.39,287.29c0.25,0.51,0.51,1.02,0.76,1.52c1.08,0.86,2.17,1.35,3.07,2.4c1.01,2.19,1.23,4.88,1.35,7.27    c0.1,1.95,0.71,4.42,0.13,6.22c-0.34-0.08-0.83,0.12-1.17,0.05c0.08,0.95,1.96,0.59,0.89,2.72c-0.51,1.02-0.39,2.23-0.61,3.35    c-0.31,1.6-0.37,3.24-0.67,4.84c-0.24,1.27-1.49,2.72-1.47,3.91c-0.79,0.48-2.15,1.07-2.3,2.12c-0.1,0.7-0.27,1.51,0.17,2.15    c0.32,0.46,1.52,1.32,1.52,1.83c0.6,0.6,1.38,1.32,1.44,2.13c0,1.82-0.32,1.79-1.59,3.05c-0.29,0.28-0.76,0.84-0.76,0.84    c-0.01-0.27-0.49-0.78-0.3-0.99c-1.29-1.25-2.38-2.82-3.22-4.4c-0.4-0.92-0.8-1.84-1.2-2.76c-0.16-0.53-0.33-1.07-0.49-1.6    c-0.19-0.38-0.38-0.76-0.58-1.14c-0.61-0.61-1.22-1.22-1.83-1.83c-0.76-0.41-1.52-0.82-2.28-1.22c-0.49-0.27-0.98-0.53-1.47-0.8    c-1.39-0.19-2.78-0.38-4.17-0.57c-2.89-0.48-4.45-2.77-6.48-4.57c-0.58-0.3-1.16-0.61-1.74-0.91c-1.32-0.26-2.64-0.51-3.96-0.77    c-1.42,0.08-2.84,0.16-4.25,0.24c-1.12-0.23-2.24-0.46-3.36-0.69c-0.85-0.39-1.4-1.05-2.29-1.34c-0.66-0.51-1.31-1.02-1.97-1.52    c-1.03-1.21-1.89-2.91-1.07-4.45c0.05-0.25,0.1-0.51,0.15-0.76c0.19-0.45,0.66-0.82,1.07-1.07c0.28-0.61,0.56-1.5,1.22-1.83    c0.35-0.69,0.61-1.35,0.61-2.13l-0.19,0c0.36-0.16,0.72-0.32,1.08-0.47c0.88-0.5,1.76-1,2.65-1.5c0.33-0.23,0.31-0.49,0.72-0.76    c0.36-0.24,1.13-0.76,1.36-0.72c0.87,0.24,1.74,0.47,2.61,0.71c-0.43-0.34-0.86-0.67-1.28-1.01c0.54-0.51,1.55-0.99,2.33-1    c0.35-0.01,0.64,0.23,0.94,0.03c0.24,0.24,0.42,0.55,0.76,0.46c0.23-0.39,0.67-0.79,0.61-1.22c0.3-0.05,0.61-0.1,0.91-0.15    c0.15-0.2,0.3-0.41,0.46-0.61c-0.04-0.7-0.13-1.79,0.61-1.98c0.46-0.1,0.91-0.21,1.37-0.31c0.71,0.2,1.42,0.41,2.13,0.61    c0.58,0.08,1.53-0.31,1.98,0c0.53-0.53,1.52-0.58,1.83-1.22c1.42-0.09,3.24-0.71,4.57-0.3c0.95-0.33,1.98-0.86,2.74-1.52    c1.29,0.12,2.52-0.01,3.81,0.3c0.86,0.21,1.6-0.07,2.18-0.64L470.39,287.29z"/>
            <circle cx="455.01" cy="294.52" r="1.586"/>
        </g>
        <g id="__Kale">
            <path d="    M407.38,264.7c0.28,0.56,0.33,1.01,0.64,1.61c0.94,0.65,1.88,1.29,2.82,1.94c0.51,0.02,1.02,0.32,1.38,0.68    c0.18-0.01,0.36-0.01,0.54-0.02c0.53,0.24,1.05,0.48,1.58,0.72c1.12,1.12,2.23,2.23,3.35,3.35c0.51,1.17,1.02,2.34,1.52,3.5    c0.1,1.02,0.2,2.03,0.3,3.05c0.24,0.26,0.49,0.52,0.73,0.78c0.23,0.31,0.3,0.57,0.64,0.74c0.2,0.15,0.4,0.3,0.6,0.46    c0.66,0.05,1.32,0.1,1.98,0.15c0.85-0.01,2.01-0.6,2.69-0.23c1.8,1.15,2.5,2.37,2.5,2.37c0.16,2.41-1.35,3.3-2.97,4.89    c-0.86,0.77-1.72,1.54-2.58,2.31c-0.64,0.34-1.28,0.68-1.92,1.02c-1.12,0.27-2.21,0.43-3.35,0.15c-0.83-0.38-1.66-0.76-2.49-1.15    c-0.69-0.23-1.39-0.45-2.08-0.68c-0.56-0.3-1.12-0.61-1.68-0.91c-1.12-0.46-2.23-0.91-3.35-1.37c-0.41-0.1-0.81-0.2-1.22-0.3    c-0.61,0.46-1.22,0.91-1.83,1.37c-0.19,0.33-0.38,0.66-0.58,0.99c-0.26,0.33-0.53,0.66-0.79,0.99c-1.8,0.9-3.33,1.98-5.22,2.71    c-0.75,0.42-1.5,0.83-2.25,1.25c-0.46,0.49-2.63,2.1-2.74,2.44c-0.82,0.5-1.63,0.99-2.45,1.49c-0.95,0.82-1.67,1.53-2.9,1.97    l-0.54,0.1c-0.07-0.57-0.13-1.15-0.2-1.72c0.17-1.88-0.26-3.79-1.07-5.48c-0.6-0.08-0.73-0.61-1.22-0.91    c-2.44-1.51-5.06-2.23-7.46-3.96c-0.86-0.62-1.76-1.28-2.44-2.13c-0.51-0.61-1.02-1.22-1.52-1.83c-1.91-1.54-3.38-4.3-4.26-6.55    c-0.56-0.91-1.12-1.83-1.68-2.74c-0.69-2.21-1.64-4.9-2.78-6.97c-0.38-0.69-0.37-1.61-1.05-2.16c-0.13-0.39-0.46-1.86-0.59-1.99    c-0.3-1.56-0.34-3.03-0.3-4.57c-0.12-0.22-0.23-0.44-0.35-0.67c0,0,0.4-0.1,1.57,0.51c0.4,0.25,2.31,0.78,2.59,0.46    c1.03,0.24,1.35,0.57,2.23,0.99c0.99,0.42,1.98,0.85,2.97,1.27c0.38,0.07,1.25-0.03,1.39,0.26c0.44,0.79,0.89,1.57,1.33,2.36    c-0.1,0.42-0.15,1.87,0.16,2.1c0.7,0.52,2.28,1.59,3.19,0.95c0.4,0.4,1.15,0.3,1.66,0.21c0.96,0.04,1.92,0.08,2.87,0.12    c0.22-0.06,0.43-0.12,0.65-0.19c0.36-0.25,0.71-0.51,1.07-0.76c0.03,0,0.06,0,0.09,0c0.02,0.1,0.04,0.2,0.07,0.3    c0.77-0.26,1.61-0.27,2.28-0.76c0.4-0.29,1.25-1.33,1.68-1.37c0.03-0.28-0.02-0.78,0.15-0.91c0.35-0.24,0.69-0.47,1.04-0.71    c-0.04-0.07-0.08-0.14-0.12-0.2c0.51-0.56,1.02-1.12,1.52-1.68c0.3-0.15,0.61-0.3,0.91-0.46c0.79-0.79,1.8-1.28,2.79-1.72    c0.25-0.11,1.07-0.52,0.86,0.04c0-0.3,0.59-0.25,0.85-0.24c0.81,0.05,1.65,0.28,2.46,0.6c0.37,0.28,1.35,0.19,1.72,0.47    c0.67,0,2.17-1.51,2.59-1.98L407.38,264.7z"/>
            <path d="    M428.2,281.54c-0.37-0.15-0.56-0.28-0.76-0.65c-0.86-0.25-1.69-0.32-2.55-0.57c-0.42,0.03-0.76,0.2-1.18,0.23    c-0.31,0.26-1.44,0.33-1.82-0.02c-0.52-0.49-1.75-1.67-1.91-2.38c0.3-0.3,0.17-0.94,0.11-1.75l0.15,0.23    c0.21,0.07,0.35,0.32,0.56,0.47c0.22,0.15,0.43,0.3,0.65,0.46c0.23,0.16,0.51,0.22,0.73,0.36c0.2,0.13,0.4,0.32,0.64,0.43    c0.51,0.23,0.97,0.46,1.48,0.75c0.22,0.13,0.4,0.35,0.64,0.48c0.24,0.13,0.55,0.13,0.81,0.18c0.78,0.16,1.61,0.2,2.24,0.62    c0.13,0.36,0.14,0.7,0.27,1.06L428.2,281.54z"/>
            <circle cx="393.93" cy="264.83" r="1.586"/>
        </g>
        <g id="__Battalgazi">
            <path d="    M320.83,334.66c0.27-0.86,0.55-1.71,0.82-2.57c0.73-1.92,1.45-3.85,2.18-5.77c1.32-2.92,4.04-4.66,3.71-8.12    c-0.17-0.21-0.34-0.43-0.51-0.64c-1.22-1.79-3.25-1.54-5.17-1.87c-2.02-0.18-4.04-0.36-6.06-0.54c-0.91-0.15-1.83-0.3-2.74-0.46    c-0.23-0.42-1.05-0.54-1.51-0.67c-0.96-0.27-1.83-0.41-2.75-0.85c-0.48,0.19-1.03-0.29-1.52-0.3c-1.08-0.03-2.01,0.09-3.02-0.37    c-1.58-0.94-3.16-1.89-4.74-2.83c-1.05-1.23-1.87-2.51-2.74-3.81c-0.61-0.13-1.15-0.96-1.46-1.48c-0.78-1.3-1.34-2.34-1.43-3.85    c-0.15-0.36-0.3-0.71-0.46-1.07c-0.36-0.61-0.71-1.22-1.07-1.83c0.21-0.32-0.45-2.66-0.61-3.2c0-0.66,0-1.32,0-1.98    c-0.1-0.87-0.19-1.74-0.29-2.6c-0.19-0.92-0.38-1.83-0.57-2.75c-0.02-0.91-0.04-1.81-0.06-2.72c0.35-0.36,0.28-1.05,0.3-1.53    c0.03-0.47,0.85-0.67,1.23-0.76c0.05-0.33,0.34-0.42,0.59-0.63c0.76-0.76,0.48-1.84,0.62-2.87c-0.49-0.3-0.52-1.36-0.68-1.9    c-0.14-0.49-0.36-2.06-0.24-2.52c0.45-1.64,1.24-3.84,0.03-5.15c-0.62-0.15-1.24-0.3-1.86-0.44c-0.61-0.25-1.22-0.51-1.83-0.76    c-0.6-0.16-0.72-1.5-0.79-2.02c-0.16-1.21,0.41-2.03,0.74-3.12c0.04-0.58,0.09-1.16,0.13-1.75c0.09-0.24,0.17-0.48,0.26-0.71    c0.12-0.41,0.2-0.34,0.58-0.21c-0.28,0-0.28-0.53-0.28-0.78c0.09-0.91,0.18-1.82,0.28-2.73c-0.13-1.12-0.92-1.88-1.83-2.44    c-0.08-0.6-0.9-1.43-1.37-1.83c-0.2-0.76-0.41-1.52-0.61-2.28c0.03-0.12,0.06-0.25,0.09-0.37c0.02-0.38,0.04-0.77,0.07-1.15    c0.55-0.01,1.08-0.67,1.56-1.02c1.01-0.6,2.02-1.21,3.04-1.81c0.04-0.02,0.09-0.04,0.13-0.06c-0.3-0.23-0.23-0.69-0.3-1.07    l-0.08,0.16c0.53,0.26,1.09,0.45,1.6,0.75c0.49,0.29,0.74,1.03,1.4,0.87c0.53-0.13,0.99-0.29,1.49-0.41    c0.46-0.41,0.91-0.81,1.37-1.22c0.77,0.19,0.76-0.26,1.21,0.61c0.07,0.13,0.09,0.4,0.23,0.21c0.39-0.48,0.95-0.98,1.61-0.98    c0.15-0.36,0.3-0.71,0.46-1.07c0.61-0.33,1.11-0.96,1.83-0.46c0.72-0.59,1.12-1.01,2.01-1.27c0.13-0.29,0.39-0.56,0.73-0.56    c0.86,0.1,1.73,0.2,2.59,0.3c0.6,0.26,1.2,0.52,1.79,0.78c0.21-0.05,0.42-0.1,0.63-0.16c0.31,0.26,0.95,1.57,1.24,1.16    c0.1-0.03,0.2-0.07,0.3-0.1c0.11-0.53,0.27-2.17,0.9-2.32c0.69-0.13,2.54-0.95,3.06-0.42c0.11,0.66,0.25,1.25,0.61,1.83    c0.15,0.2,0.3,0.41,0.46,0.61c0.36,0.41,0.74,0.7,0.91,1.22c0.23,0.2,0.47,0.41,0.7,0.61c0.21,0.36,0.15,1.65,0.28,1.7    c1.09,0.46,0.94-0.03,1.91-0.03c0.35-0.3,0.61-0.65,0.99-0.22c0.08,0.17,0.15,0.35,0.23,0.52c0,0.37-0.08,0.64,0.16,0.92    c-0.3,0.25-0.61,0.51-0.91,0.76c0.4,0.4-0.26,1.82,0.69,1.12c0.38-0.32,0.76-0.64,1.13-0.97c0.13-0.42,0.44-1.12,1.06-0.85    c0.92,0.49,1.83,0.97,2.75,1.46c0.43,0.46,1.01,1.22,1.68,1.22c0.24,0.24,0.22,0.76,0.61,0.76c0.78-0.78,1.28-1.71,2.59-1.68    c-0.09,0.22-0.26,0.44,0.02,0.49c0.66,0.11,1.81-0.03,2.26,0.42c0.2,0.74,0.41,1.63,0.94,2.23c0.29,0.22,0.59,0.44,0.89,0.67    c0.45,0.02,0.9,0.03,1.35,0.05c0.46,0.18,1.11,0.38,1.24,0.86c0.41,0.04,0.81,0.08,1.22,0.12c0.18,0.03,0.42-0.57,0.6-0.77    c-0.05-0.09-0.1-0.18-0.14-0.27c0.03,0.03,0.06,0.05,0.09,0.08c0.29,0.27,0.95,1.39,1.32,1.2c2.85-1.39,7.39-1.24,10.01,0.55    c0.86,0.39,1.71,0.78,2.57,1.17c0.38,0.23,0.48,0.56,0.93,0.5c0.04,0.21,0.08,0.42,0.12,0.62c0.02,0.42-0.05,0.51,0.18,0.9    c-0.34,0.54-0.68,1.08-1.02,1.61c-0.12,0.38-0.23,0.75-0.35,1.13c0.29-0.06,0.58-0.11,0.87-0.17c0.24-0.35,0.15-0.39,0.04-0.75    c0.83-0.31,1.05-1.2,1.83-1.68c0.49-0.3,2.34-0.65,2.74-0.3c0.78-0.02,1.53,0.26,2.28,0c0.64,0.33,1.27,0.66,1.91,0.99l0.03,0.32    c0.12,0.22,0.23,0.44,0.35,0.67c-0.05,1.54-0.01,3,0.3,4.57c0.14,0.13,0.47,1.6,0.59,1.99c0.68,0.55,0.67,1.47,1.05,2.16    c1.14,2.07,2.1,4.76,2.78,6.97c0.56,0.91,1.12,1.83,1.68,2.74c0.88,2.24,2.36,5.01,4.26,6.55c0.51,0.61,1.02,1.22,1.52,1.83    c0.67,0.85,1.57,1.51,2.44,2.13c2.4,1.73,5.02,2.45,7.46,3.96c0.49,0.31,0.62,0.84,1.22,0.91c0.8,1.69,1.24,3.6,1.07,5.48    c0.07,0.57,0.13,1.15,0.2,1.72c-1.23,0.5-2.47,1-3.7,1.5c-1.42,1.06-2.85,2.12-4.27,3.17c-0.2,0.25-0.41,0.51-0.61,0.76    c-0.29,0.21-0.58,0.43-0.87,0.64c-0.73,0.3-1.45,0.59-2.18,0.89c-1.27-0.08-2.21-0.49-3.35-1.07c-0.81-0.1-1.62-0.2-2.44-0.3    c-0.56-0.2-1.12-0.41-1.68-0.61c-2.14-0.61-5.22,0.11-7.16,1.07c-0.51,0.25-1.02,0.51-1.52,0.76c-2.92,0.83-5.73,2.63-7.34,5.25    c-0.5,0.89-0.99,1.78-1.49,2.67c0,0.41,0,0.81,0,1.22c0.2,0.3,0.34,0.39,0.3,0.76c0.56,0.51,1.81,1.13,1.98,1.83    c1.72,0.76,3.45,2.19,4.26,3.81c0.1,0.58,0.2,1.17,0.29,1.75c0.35,0.49,0.16,1.32,0.14,1.9c-0.24,1.67-0.49,3.34-0.73,5.02    c0.03,1.83,0.05,3.66,0.08,5.49c-0.15,1.33-0.24,2.93-0.85,4.12c-0.33,0.4-0.66,0.81-0.99,1.21c-0.25,0.36-0.4,0.79-0.84,0.92    c-0.22,0.37-0.45,0.75-0.67,1.12c-0.41,0.41-1.25,0.72-1.31,1.31c-0.45,0.15-0.97,0.55-1.34,0.28c-0.22-0.19-0.32,0.18-0.35-0.11    c-0.05-0.31-0.09-0.62-0.14-0.93c-0.05-0.44-0.47-0.59-0.46-1.07c-1.15-0.9-2.24-2.42-3.66-2.89c-0.75-1.17-1.4-1.91-2.86-2.09    c-0.24-0.24-0.44-0.26-0.77-0.29c-0.82-0.95-2.81-1.23-3.99-1.13c-1.42-0.05-2.84-0.1-4.26-0.15c-2.69,0.66-5.38,1.32-8.07,1.98    c-0.41-0.76-0.09-1.04-0.95-0.91c-1.34,0.15-2.64-1.11-3.78-1.64c-0.51-0.23-1.29-0.46-1.44-1.09    C320.75,336.19,320.73,335.29,320.83,334.66z"/>
            <circle cx="304.99" cy="264.37" r="1.586"/>
        </g>
        <g id="__Yeşilyurt">
            <path d="    M223.51,315.47c0.1-0.49,0.21-0.97,0.31-1.46c0.14-0.24,0.28-0.48,0.42-0.71c0.47-1.66,0.93-3.32,1.4-4.98    c0.14-0.99,1.71-2.35,2.56-2.26c0.11-0.06,0.23-0.12,0.34-0.18c1.61,1.06,3.23,2.12,4.84,3.17c0.31,0.53,1.6,2.5,2.32,2.45    c0.66,0.05,1.32,0.11,1.98,0.16c0.25-0.05,1.88-0.15,2.44-0.15c0.71-0.51,1.42-1.02,2.13-1.53c0.28-0.3,0.52-0.81,0.92-0.91    c0.08-0.36,0.38-1.27,0.46-1.37c-0.22-2.3,0.04-4.5-0.15-6.85c-0.05-0.57,0.46-0.79,0.49-1.25c0.06-0.89-0.33-3.13,0.27-3.77    c-0.11-0.66-0.4-2.27,0.15-2.74c-0.2-1.63,0.24-3.1,0.58-4.69c0.11-0.62,0.23-1.24,0.34-1.86c-0.06-1.68-0.11-3.35-0.17-5.03    c-0.1-0.76-0.19-1.52-0.29-2.28c-0.35-0.61-0.69-1.22-1.04-1.82c0.24-0.96,0.43-2.44,1.34-3.05c0.39-1.11,0.92-2.03,1.98-2.59    c0.62-0.33,0.41-0.68,1.22-0.61c0.07-2.34,1.05-3.73,2.53-5.52c0.32-0.09,0.65-0.18,0.97-0.27c0.15-0.36,0.3-0.71,0.46-1.07    c0.07-0.46,0.15-0.91,0.22-1.37c0.38-1.06,0.81-2.1,1.19-3.17c0.13-0.37,0.42-0.87,0.26-1.24c0.28-0.34,0.61-0.73,1.07-0.61    c0.87-1.27,2.44-1.87,3.05-3.35c0.21-0.51,0.91-1.22,0.72-1.8c-0.22-0.65-0.26-0.92-0.26-1.55c-1.55-2.19-4.31-3.61-6.24-5.48    c-1.02-1.22-2.03-2.44-3.05-3.66c-0.25-0.56-0.51-1.12-0.76-1.68c0-1.12,0-2.23,0-3.35l0.05-0.13c0.74,0.15,1.49,0.29,2.23,0.44    c0.84,0.29,1.67,0.57,2.51,0.86c0.41,0.16,1.07,0.28,1.3,0.66c0.41,0.1,0.81,0.2,1.22,0.3c1.1-0.28,2.21-0.57,3.31-0.85    c0.95-0.34,1.92-0.88,2.93-0.88c0.56,0.02,1.12,0.03,1.68,0.05c0.36,0.17,0.61,0.22,0.76,0.61c1.12,0.31,2.93,0.87,4.07,0.77    c0.73,0.55,2.63,0.13,3.55,0.15c0.66,0.1,1.32,0.2,1.98,0.3c0.3,0.2,0.61,0.41,0.91,0.61c0.1-0.1,0.2-0.2,0.3-0.3    c0.38-0.36,0.28-0.62,0.62-0.64c0.58-0.04,2.08,0.49,2.43,0.94c0.96,0.25,1.93,0.51,2.89,0.76c0.25,0.2,0.51,0.41,0.76,0.61    c0.76,0.11,1.51,0.23,2.27,0.34c0.56,0.17,2.65,0.83,3.06,0.72c0.67,0.69,2.21,2.57,3.35,2.13c0.08,0.38,0.01,0.83,0.3,1.07    c-0.04,0.02-0.09,0.04-0.13,0.06c-1.01,0.6-2.02,1.21-3.04,1.81c-0.47,0.34-1,1.01-1.56,1.02c-0.02,0.38-0.04,0.77-0.07,1.15    c-0.03,0.12-0.06,0.25-0.09,0.37c0.2,0.76,0.41,1.52,0.61,2.28c0.47,0.4,1.29,1.22,1.37,1.83c0.91,0.55,1.7,1.31,1.83,2.44    c-0.09,0.91-0.18,1.82-0.28,2.73c0,0.24,0,0.78,0.28,0.78c-0.39-0.13-0.46-0.2-0.58,0.21c-0.09,0.24-0.17,0.48-0.26,0.71    c-0.04,0.58-0.09,1.16-0.13,1.75c-0.33,1.09-0.9,1.91-0.74,3.12c0.07,0.51,0.19,1.86,0.79,2.02c0.61,0.25,1.22,0.51,1.83,0.76    c0.62,0.15,1.24,0.29,1.86,0.44c1.21,1.32,0.42,3.51-0.03,5.15c-0.12,0.46,0.1,2.03,0.24,2.52c0.16,0.54,0.19,1.6,0.68,1.9    c-0.14,1.03,0.14,2.11-0.62,2.87c-0.25,0.21-0.54,0.3-0.59,0.63c-0.38,0.09-1.2,0.29-1.23,0.76c-0.01,0.48,0.05,1.17-0.3,1.53    c0.02,0.91,0.04,1.81,0.06,2.72c0.19,0.92,0.38,1.83,0.57,2.75c0.1,0.87,0.19,1.74,0.29,2.6c0,0.66,0,1.32,0,1.98    c0.15,0.54,0.82,2.87,0.61,3.2c0.36,0.61,0.71,1.22,1.07,1.83c0.15,0.36,0.3,0.71,0.46,1.07c0.1,1.51,0.65,2.55,1.43,3.85    c0.31,0.52,0.85,1.35,1.46,1.48c0.88,1.3,1.69,2.57,2.74,3.81c1.58,0.94,3.16,1.88,4.74,2.83c1.01,0.46,1.94,0.34,3.02,0.37    c0.5,0.01,1.05,0.49,1.52,0.3c0.92,0.45,1.79,0.58,2.75,0.85c0.46,0.13,1.29,0.25,1.51,0.67c0.91,0.15,1.83,0.3,2.74,0.46    c2.02,0.18,4.04,0.36,6.06,0.54c1.92,0.33,3.95,0.07,5.17,1.87c0.17,0.21,0.34,0.43,0.51,0.64c0.32,3.46-2.39,5.2-3.71,8.12    c-0.73,1.92-1.45,3.85-2.18,5.77c-0.27,0.85-0.55,1.71-0.82,2.57c-0.1,0.64-0.2,1.27-0.3,1.91c-0.22,1.39-0.43,2.78-0.65,4.17    c-0.32,1.76-0.47,4.39-1.39,5.93c0.05,0.33-0.35,1.21-0.58,1.37c-0.4,0.28-1.16,0.52-1.35,0.94c-0.39,0-0.91-0.08-1.22,0.15    c-1.83-0.24-3.95-0.6-5.47-1.69c-1.19-0.84-2.39-1.67-3.58-2.51c-1.36-0.31-2.99-0.41-4.35-0.21c-2.54,0.1-5.08,0.2-7.61,0.3    c-1.47,0.05-2.94,0.1-4.42,0.15c-0.36-0.15-0.71-0.3-1.07-0.46c-1.27-0.91-2.54-1.83-3.81-2.74c-0.61-0.56-1.22-1.12-1.83-1.68    c-0.47-0.92-1.26-3.55-2.43-3.67c-1.64-0.17-3.22,0.27-4.7,0.98c-0.42,0.14-0.83,0.27-1.25,0.41c-1.28,0.48-2.4,1.03-3.46,1.85    c-0.83,0.7-1.66,1.41-2.48,2.11c-0.16,0.35-0.31,0.7-0.47,1.05c-1.72,2.64-2.13,5.39-2.42,8.55c-0.3,0.3-0.28,0.95-0.3,1.37    c-0.15,0.56-0.3,1.12-0.46,1.68c-0.3,0.61-0.61,1.22-0.91,1.83c-0.37,0.4-1.31,1.22-1.37,1.68c-0.51,0.46-1.02,0.91-1.52,1.37    c-0.99,0.22-1.77,0.69-2.75,0.93c-0.89,0.21-1.23,0.86-1.73,0.58c-0.16-0.09-0.35-0.29-0.57-0.64c-0.55-0.75-1.11-1.49-1.66-2.24    c-0.25-0.66-0.51-1.32-0.76-1.98c-0.35-0.96-1.09-1.69-1.22-2.74c-0.07-0.56-0.6-1.36-0.3-1.83c-1.11-1.38-2.94-3.85-3.17-5.63    c-0.39-3.02,2.47-8.03-0.3-10.25c-2.21-1.4-4.84-0.83-7.33-1.37c-0.71-0.15-2.16-0.79-2.75-0.27c-0.69-0.02-2.85-0.25-3.35,0    c-0.81-0.16-2.93-0.34-3.66,0c-1.9-0.71-3.46-2.33-5.48-2.74c-0.55-0.37-1.09-0.74-1.64-1.11c-1.2-0.91-1.9-2.2-2.77-3.46    c-0.05-0.76-0.1-1.52-0.15-2.28c0.2-0.25,0.1-1.98-0.15-2.59c0.62,0,0.59-1.44,0.69-1.97c0.09-0.48,0.38-2.3,0.68-3.44    L223.51,315.47z"/>
            <circle cx="281.99" cy="293.92" r="1.586"/>
        </g>
        <g id="__Doğanşehir">
            <path d="    M256.96,360.99c-0.16-0.09-0.35-0.29-0.57-0.64c-0.55-0.75-1.11-1.49-1.66-2.24c-0.25-0.66-0.51-1.32-0.76-1.98    c-0.35-0.96-1.09-1.69-1.22-2.74c-0.07-0.56-0.6-1.36-0.3-1.83c-1.11-1.38-2.94-3.85-3.17-5.63c-0.39-3.02,2.47-8.03-0.3-10.25    c-2.21-1.4-4.84-0.83-7.33-1.37c-0.71-0.15-2.16-0.79-2.75-0.27c-0.69-0.02-2.85-0.25-3.35,0c-0.81-0.16-2.93-0.34-3.66,0    c-1.9-0.71-3.46-2.33-5.48-2.74c-0.55-0.37-1.09-0.74-1.64-1.11c-1.2-0.91-1.9-2.2-2.77-3.46c-0.05-0.76-0.1-1.52-0.15-2.28    c0.2-0.25,0.1-1.98-0.15-2.59c0.62,0,0.59-1.44,0.69-1.97c0.09-0.48,0.38-2.3,0.68-3.44l0.46-0.99c-0.71,0.02-1.14,0.81-1.98,0.76    c-1.68-0.15-3.35-0.3-5.03-0.46c-0.45,0.3-2.29,0.17-2.9,0.14c-0.76,0-1.52,0.01-2.27,0.01c-0.16-0.25-2.21-1.24-2.51-1.16    c-0.85-0.71-1.37-0.47-2.21-0.82c-0.41-0.41-0.81-0.81-1.22-1.22c-2.08-0.33-4.27-0.19-6.24-0.91c-2.33,0.15-4.67,0.3-7.01,0.46    c-0.66-0.13-1.31-0.27-1.97-0.4c-0.82-0.18-1.47-0.46-2.29-0.51c-0.56-0.25-1.12-0.51-1.68-0.76c-0.36-0.6-1.64-0.56-2.29-0.6    c-0.46-0.16-0.91-0.31-1.37-0.47c-1.12-0.1-2.23-0.2-3.35-0.3c-0.32,0.28-0.82,0.21-1.23,0.39c-0.4,0.28-0.79,0.56-1.19,0.84    c-0.82,0.35-1.64,0.7-2.46,1.06c-1.98,1.83-3.96,3.66-5.94,5.48c-1.18,0.71-2.16,1.37-3.2,2.28c-0.75,0.4-1.49,0.81-2.24,1.21    c-0.93,0.31-1.86,0.61-2.78,0.92c-0.73,0.24-0.8,0.45-0.8,0.45c-0.17,0.67,0.31,1,0.37,1.67c0.14,1.73,1.46,3.6,1.69,5.47    c0.5,4.02,0.32,7.44-0.2,11.46c-0.36,1.12-0.71,2.23-1.07,3.35c-0.54,1.6-1.08,3.2-1.61,4.79c-0.98,1.86-2.94,4.73-4.44,6.2    c-3.82,2.89-7.64,5.77-11.47,8.66c-2.56,2.13-5.42,3.9-7.22,6.77c-0.2,0.29-0.41,0.57-0.61,0.86c-0.3,0.83-0.96,1.87-0.89,2.79    c-0.08,0.84-0.17,1.68-0.25,2.52c-0.23,1.31-0.64,2.61-0.46,3.96c0.2,0.86,0.41,1.73,0.61,2.59c0.05,0.51,0.1,1.02,0.15,1.52    c0,0.76,0.65,2.14,1.07,2.74c0.27,0.72,0.55,1.44,0.82,2.16c0.7,1.35,3.18,3.41,4.38,4.36c0.49,0.39,2.44,2.01,3.02,2.01    c0.36,0.2,0.71,0.41,1.07,0.61c0.3,0.46,1.83,1.37,2.28,1.37c0.56,0.3,1.12,0.61,1.68,0.91c0.99,1.57,2.17,1.36,3.61,2.21    c2.51,1.48,4.77,3.5,7.51,4.64c1.37,0.17,2.74,0.34,4.1,0.5c1.93,0.39,3.86,0.78,5.8,1.17c0.87,0.35,1.73,0.69,2.6,1.04    c1.67,0.57,3.34,1.14,5.02,1.7c0.56,0.25,2.35,0.83,2.69,0.86c0.41-0.01,0.82-0.03,1.22-0.04c1.42-0.19,2.75-0.07,4.15-0.36    c1.27-0.46,2.54-0.91,3.81-1.37c1.83-0.25,3.66-0.51,5.48-0.76c1.12,0.25,2.23,0.51,3.35,0.76c1.97,0.21,3.94,0.41,5.92,0.62    c3.22,0.3,6.52,0.89,9.62,1.77c1.47,0.58,2.94,1.15,4.41,1.73c1.67,0,3.35-0.01,5.02-0.01c1.32,0,2.64,0.01,3.96,0.01    c0.3-0.1,0.61-0.2,0.91-0.3c0.96-0.1,1.93-0.2,2.89-0.3c1.71-0.47,3.48-0.98,5.13-1.73c1.44-1.1,2.88-2.2,4.32-3.29    c0.7-0.97,1.39-1.94,2.09-2.91c0.52-1.11,1.04-2.22,1.57-3.34c0.25-0.71,0.51-1.42,0.76-2.13c0.3-0.25,0.61-0.51,0.91-0.76    c0.36-0.2,0.71-0.41,1.07-0.61c1.06,0,2.8-1.24,3.66-1.83c1.12-0.56,2.23-1.12,3.35-1.68c1.92-1.59,3.54-2.63,4.26-5.18    c0.2-0.46,0.41-0.91,0.61-1.37c0.62-3.03,0.9-5.3,0.04-8.29c-0.24-0.83-0.5-1.88-1.11-2.52c0-0.51-1.14-2.66-1.52-3.05    c-0.61-1.47-1.22-2.94-1.83-4.42c-0.05-0.46-0.1-0.91-0.16-1.37c0.05-1.07,0.1-2.13,0.15-3.2c0-0.49-0.11-1.5,0.34-1.79    c0.95-0.62,1.91-1.24,2.86-1.86c-0.1-0.1-0.24-0.14-0.21-0.06L256.96,360.99z"/>
            <circle cx="198.99" cy="353.62" r="1.586"/>
        </g>
        <g id="__Darende">
            <path d="    M130.91,282.11c-0.61-0.3-1.22-0.61-1.83-0.91c-0.25-0.2-0.51-0.41-0.76-0.61c-1.03-0.13-2.07-0.25-3.1-0.38    c-1.58-0.47-2.95-0.7-4.52-1.29c-1.57-1.17-3.15-2.34-4.72-3.5c-0.71-0.86-1.42-1.73-2.13-2.59c-0.71-0.66-1.42-1.32-2.13-1.98    c-0.16-0.54-0.77-1.05-1.16-1.47c-0.68-0.78-1.36-1.56-2.04-2.34c-0.41-0.26-0.83-0.51-1.24-0.77c-0.45-0.15-0.9-0.3-1.35-0.45    c-2.21-1.31-4.73-1.68-7.15-2.47c-1.17-0.44-2.34-0.89-3.51-1.33c-1.17-0.56-2.34-1.13-3.52-1.69c-1.33-0.71-2.67-1.42-4-2.13    c-1.21-0.25-2.41-0.5-3.62-0.74c-1.63-0.62-3.27-1.25-4.9-1.88c-1.14-0.33-2.28-0.65-3.42-0.98c-1.23-0.54-2.47-1.07-3.7-1.61    c-1.06-0.34-2.13-0.69-3.19-1.03c-0.49-0.52-0.99-1.04-1.48-1.56c-1.3-1.53-2.55-3.17-4.13-4.45c-1.23-0.59-2.46-1.17-3.68-1.76    c-0.98-0.71-1.74-1.59-2.59-2.44c-0.45-0.45,0.89-1.65,1.22-1.98c1.69-1.69,3.36-3.19,5.16-4.73c0.29-0.25,0.79-0.48,1.08-0.73    c0.93-0.7,1.86-1.41,2.79-2.11c1.45-1.38,2.91-2.77,4.36-4.15c0.25-0.66,0.51-1.32,0.76-1.98c0-0.46,0-0.91,0-1.37    c-0.43-0.89,0.38-2.98,0.76-3.81c0.95-1.79,1.89-3.57,2.84-5.36c0.32-0.55,0.65-1.1,0.97-1.65c0.7-0.55,1.46-0.9,2.3-1.18    c0.35-0.12,0.7-0.23,1.05-0.35c1.12-0.51,2.23-1.02,3.35-1.52c0.66-0.25,1.32-0.51,1.98-0.76c1.89-1.3,3.14-5.1,3.5-7.31    c0-1.88,0-3.76,0-5.64c0.56-1.68,1.12-3.35,1.68-5.03c1.05-1.05,1.82-2.49,3.09-3.31c1.05-0.37,2.1-0.74,3.16-1.1    c0.06-0.4,0.81-0.79,1.13-1.07c1.43-1.25,2.85-3.92,3.75-5.64c0.1-0.25,0.2-0.51,0.3-0.76c1.32-1.81,2.45-4.01,3.2-6.09    c0.83-0.45,1.16-1.66,1.63-2.47c1.3-2.24,2.8-3.95,5.23-4.96c0.4-0.16,0.81-0.33,1.21-0.49c1.83-0.48,3.66-0.96,5.49-1.45    c0.46-0.13,0.91-0.25,1.37-0.38c0.29-0.36,0.59-0.73,0.88-1.09c0.42-0.5,0.83-1,1.25-1.49c0.2-1.12,0.41-2.23,0.61-3.35    c-0.1-1.68-0.2-3.37-0.29-5.05c0-0.04-0.01-0.08-0.01-0.12c-0.05,0.49,0.78,0.82,1.17,1.01c0.99,0.49,2.13,0.79,3.25,0.92    c1.5,0.17,2.43,0.77,3.84,1.19c1.34,0.41,2.7,0.58,4.08,0.84c0.74,0.38,1.48,0.76,2.21,1.14c1.14,0.5,2.34,1.11,3.27,1.9    c0.51,0.15,1.02,0.3,1.52,0.46c0.68,0.39,1.36,0.78,2.04,1.18c1,0.84,1.73,1.73,2.22,2.94c-0.06,0.91-0.13,1.81-0.19,2.72    c-0.19,0.57-0.38,1.13-0.57,1.7c0,0.41,0,0.81,0,1.22c-0.74,0.74-0.27,2.27,0.15,3.05c-0.21,0.35,0.07,1.62,0.3,1.98    c0.3,0.3,0.61,0.61,0.91,0.91c0.46,0.51,0.91,1.02,1.37,1.52c0.3,0.2,0.61,0.41,0.91,0.61c0.34-0.34,1.64,0.36,2.1,0.54    c0.82,0.31,1.46,0.79,2.32,0.99c1.17,0.27,2.46-0.08,3.66,0.15c0.86,0.33,1.71,0.66,2.57,0.99c1.15,0.49,2.13,1.23,3.06,2.06    c0.56,0.41,1.12,0.81,1.68,1.22c0.61,0.76,1.22,1.52,1.83,2.28c0.15,0.51,0.3,1.02,0.46,1.52l-0.01,0.76    c-0.04,1.26,0,2.71,0.39,3.92c0.04,0.34,0.09,0.68,0.13,1.02c-0.07,0.87,0.13,1.55,0.4,2.37c0.71,0.91,1.42,1.81,2.13,2.72    c0.48,0.04,0.76,0.52,1.08,0.86c1.01,0.38,2.03,0.76,3.04,1.14c0.66,0.46,1.32,0.91,1.98,1.37c0.66,0.56,1.32,1.12,1.98,1.68    c0.56,0.36,1.12,0.71,1.68,1.07c0.46,0.51,0.91,1.02,1.37,1.52c0.64,0.44,1.28,0.88,1.91,1.31c0.63,0.53,1.26,1.05,1.89,1.58    c0.35,0.46,0.7,0.92,1.05,1.38c0.85,0.96,3.29,3.63,3.52,4.71c0.81,0.91,1.62,1.83,2.44,2.74c0.54,0.4,1.81,1.01,1.98,1.68    c1.83,0.76,3.66,1.52,5.48,2.28c0.87,1.47,1.6,2.92,2.19,4.45c0.21,0.54,0.4,1.85,0.86,2.1l0.32,2.81    c-0.19,0.33-0.1,0.52-0.47,0.7c0.06,1.72,0.04,3.18-1.02,4.6c-0.16,0.26-0.31,0.53-0.47,0.79c-1.92,1.17-2.9,0.68-4.91,0.09    c-0.46-0.05-0.91-0.1-1.37-0.15c-1.37-0.05-2.74-0.1-4.11-0.15c-0.73,0.19-1.49,0.3-2.13,0.76c-0.25,0.2-0.51,0.41-0.76,0.61    c-0.46,0.1-0.91,0.2-1.37,0.3c-0.61,0.3-1.22,0.61-1.83,0.91c-0.86,0.22-1.72,0.44-2.58,0.67c-1.6,0.64-3.23,0.8-4.88,1.16    c-0.6,0.23-1.2,0.46-1.8,0.69c-1.37,0.34-2.74,0.68-4.12,1.01c-0.47,0.22-1.07,0.22-1.24,0.73c-0.91-0.11-1.82-0.23-2.73-0.34    c-0.44-0.12-0.88-0.24-1.31-0.37c-0.2,0.2-0.39,0.39-0.59,0.59c-0.55-0.05-0.4,0.11-0.39,0.56c0.18,1.82,0.27,3.65,0,5.5    c-0.46,1.37-0.91,2.74-1.37,4.11c-0.19,0.79-0.18,1.48-0.51,2.25c-0.46,1.06-0.52,2.67-1.68,3.29c-0.53,0.39-1.07,0.78-1.6,1.17    c-0.82,0.35-1.63,0.7-2.45,1.05c-0.52,0.08-1.98,0.29-2.28,0.61c-1.66-0.39-3.34-0.88-5.03-1.17c-0.73-0.12-0.98-0.42-1.67-0.06    c-2.15,1.13-3.96,4.64-3.96,7.16c-0.61,0.86-1.22,1.73-1.83,2.59c-0.51,0.67-2.7,2.66-3.5,2.89c-0.48,0.48-1.43,1.65-2.13,1.68    c-0.41,0.41-0.81,0.81-1.22,1.22c-0.26,0.55-0.52,1.09-0.79,1.64c-0.51,0.86-1.76,2.77-2.72,3.08L130.91,282.11z"/>
            <circle cx="110.66" cy="224.47" r="1.586"/>
        </g>
        <g id="__Kuluncak">
            <path d="    M122.84,153.27c-0.05,0.49,0.78,0.82,1.17,1.01c0.99,0.49,2.13,0.79,3.25,0.92c1.5,0.17,2.43,0.77,3.84,1.19    c1.34,0.41,2.7,0.58,4.08,0.84c0.74,0.38,1.48,0.76,2.21,1.14c1.14,0.5,2.34,1.11,3.27,1.9c0.51,0.15,1.02,0.3,1.52,0.46    c0.68,0.39,1.36,0.78,2.04,1.18c1,0.84,1.73,1.73,2.22,2.94c-0.06,0.91-0.13,1.81-0.19,2.72c-0.19,0.57-0.38,1.13-0.57,1.7    c0,0.41,0,0.81,0,1.22c-0.74,0.74-0.27,2.27,0.15,3.05c-0.21,0.35,0.07,1.62,0.3,1.98c0.3,0.3,0.61,0.61,0.91,0.91    c0.46,0.51,0.91,1.02,1.37,1.52c0.3,0.2,0.61,0.41,0.91,0.61c0.34-0.34,1.64,0.36,2.1,0.54c0.82,0.31,1.46,0.79,2.32,0.99    c1.17,0.27,2.46-0.08,3.66,0.15c0.86,0.33,1.71,0.66,2.57,0.99c1.15,0.49,2.13,1.23,3.06,2.06c0.56,0.41,1.12,0.81,1.68,1.22    c0.61,0.76,1.22,1.52,1.83,2.28c0.15,0.51,0.3,1.02,0.46,1.52l-0.01,0.76c0.02-0.71,2-1.53,2.76-1.82    c0.14-0.62,0.78-0.65,1.17-0.97c1.39-1.2,2.77-2.4,4.16-3.6c0.7-0.03,2.07-1.19,2.59-1.68c0.72-0.31,1.45-0.61,2.17-0.92    c0.75-0.3,1.5-0.61,2.25-0.91c0.51-0.61,1.02-1.22,1.52-1.83c0.08-0.26,0.16-0.53,0.25-0.79c-0.03-0.75-0.06-1.5-0.09-2.26    c-0.03-0.8-2.08-2.13-2.75-2.13c-1.18-0.83-2.38-0.6-3.87-0.39c-0.68,0.09-3.77-0.64-4.35-0.98c-0.34-0.27-0.69-0.54-1.03-0.81    c-1.35-1.04-0.91-4.82,0.34-5.96c0.7-0.64,1.47-0.95,2.21-1.46c0.15-0.2,0.3-0.41,0.46-0.61c0.62-0.56,1.2-1.52,2-1.78    c0.22-0.53,0.2-0.86,0.29-1.41c0.58-0.47,0.41-1.61,0.46-2.28c0.25-0.28,0.67-2.32,0.51-2.63c0.08-0.56,0.32-1.74-0.11-2.13    c0-1.69-0.32-3.49-1.41-4.78c0.39-1.08,0.78-2.17,1.17-3.25c0.14-0.7,0.41-2.09,0.91-2.59c0.15-2.69,0.29-5.39,0.44-8.08    c0.03-0.32-0.66-0.71-0.9-0.9c0.06-0.75-1.44-2.19-1.98-2.74c-0.25-0.66-0.51-1.32-0.76-1.98c0.28-0.44,0-1.53-0.03-2.08    c0.16-0.98,0.31-1.97,0.47-2.95c0.27-1.72,0.53-3.43,0.8-5.15c0.34-1.58,0.91-3.1,0.74-4.74c0.84-0.76,0.19-3.34-0.15-4.26    c-0.21-0.57-0.73-1.25-1.23-1.58c0.09-2.03-1.36-5.53-2.12-7.4l-0.46-0.46c-1.68,1.78-3.35,3.55-5.03,5.33    c-1.24,0.89-3.79,1.54-5.33,1.37c-1.05-0.31-2.11-0.61-3.16-0.92c-1.78-0.25-3.56-1.76-4.91-2.89c-1.64-1.14-3.27-2.29-4.91-3.43    c-0.85-0.52-1.7-1.04-2.55-1.57c-0.92-0.52-1.83-1.03-2.75-1.55c-2.64-0.46-5.28-0.91-7.92-1.37c-2.65,0.71-5.21,1.35-7.92,1.52    c-0.66,0.05-1.32,0.1-1.98,0.15c-1.6-0.22-2.91-1.97-4.11-2.89c-0.36-0.1-0.71-0.2-1.07-0.3c-1.62,0-3.25,0-4.87,0    c-1.37,0.57-2.9,1.07-3.96,2.13c-0.25,1.17-0.51,2.34-0.76,3.5c0.25,1.52,0.51,3.05,0.76,4.57c0.2,0.51,0.41,1.02,0.61,1.52    c0.54,1.02,1.09,2.04,1.63,3.06c0.77,2.54,1.07,5.69,0.81,8.37c-0.05,0.66-0.1,1.32-0.15,1.98c0.61,1.12,1.22,2.23,1.83,3.35    c0.86,0.96,1.73,1.93,2.59,2.89c0.34,0.42,0.54,1.08,1.07,1.22c0,0.61,0,1.22,0,1.83c0,0.56,0,1.12,0,1.68    c0.86,1.98,1.73,3.96,2.59,5.94c0.3,1.37,0.61,2.74,0.91,4.11c0.26,1.41-1.02,5.45-1.99,6.72c-0.53,0.69-1.68,2.05-1.68,2.86    c0,0.79,0.43,1.74,0.78,2.45c0.27,0.82,0.55,1.63,0.82,2.45L122.84,153.27z"/>
            <circle cx="149.49" cy="131.72" r="1.586"/>
        </g>
        <g id="__Arguvan">
            <path d="    M334.69,169.41c-0.46-0.71-0.91-1.42-1.37-2.13c-1.18-1.38-2.03-3.18-3.35-4.57c0.44-0.52,0.57-1,0.61-1.68    c-0.9,0-1.09,0.16-1.35-0.68c-0.76-2.58-1.51-5.47-3.72-7.35c-0.6-0.47-1.19-0.94-1.79-1.41c-1.82-0.03-3.65-0.05-5.47-0.08    c-0.4-0.06-1.33-0.01-1.54-0.22c-0.93-0.12-1.73-0.29-2.52-0.72c-0.1,0.01-0.21,0.02-0.31,0.03c-3.29-2.9-0.79-6.35,0.24-9.51    c0.41-1.24,0.03-2.42,0.15-3.66c0.2-0.96,0.41-1.93,0.61-2.89c0.05-1.07,0.1-2.13,0.15-3.2c-0.52-0.52-0.12-0.9-0.3-1.52    c-0.17-0.55-0.51-0.94-0.61-1.52c-0.18-1.12-0.94-2.45-1.52-3.35c-0.27-0.41-0.66-1.93-0.3-2.28c-0.2-0.51-0.41-1.02-0.61-1.52    c-0.25-0.41-0.51-0.81-0.76-1.22c-0.71-0.76-1.42-1.52-2.13-2.28c-0.64-0.38-1.28-0.75-1.92-1.13c-1.22-0.96-2.43-1.92-3.65-2.88    c-0.84-0.49-1.68-0.98-2.52-1.48c-0.65-0.66-1.3-1.32-1.96-1.98c-0.22-0.14-0.44-0.28-0.67-0.42c-0.29-0.27-0.57-0.53-0.86-0.8    c-1.32-0.63-3.66-0.77-4.72-1.83c-0.82-0.19-1.64-0.27-2.27-0.82c-1.02-1.55-2.04-3.11-3.07-4.66c-1.47-1.68-2.94-3.35-4.42-5.03    c-0.36-0.66-0.71-1.32-1.07-1.98c-0.35-0.46-0.71-0.91-1.06-1.37c-0.2-0.25-0.41-0.51-0.61-0.76c-0.3-0.91-0.61-1.83-0.91-2.74    c-0.32-0.81-0.64-1.61-0.96-2.42c-0.19-0.56-0.38-1.13-0.57-1.69c-0.35-1.42-0.7-2.84-1.06-4.26c-0.36-0.81-0.71-1.62-1.07-2.44    c-0.71-3.15-1.42-6.3-2.13-9.44c0-1.27,0-2.54,0-3.81c0.02-0.27,0.31-1.07,0-1.07l0.46-1.37c-0.43,0.2-1.7,1.36-2.08,1.65    c-1.53,1.17-2.56,2.26-3.88,3.27c-0.41,0.24-2.19,1.48-2.82,1.98c-0.51,0.41-1.69,1.31-2.32,1.81c-1.73,1.1-3.46,2.21-5.19,3.31    c-0.25,0.05-0.51,0.1-0.76,0.15c-1.17-0.05-2.34-0.1-3.5-0.15c-1.02-0.15-2.03-0.3-3.05-0.46c-1.27-0.08-2.55-0.17-3.82-0.25    c0,0-0.9,1.17-1.36,1.93c0.08,0.55-0.46,1.76-0.94,1.98c-0.09,0.31-0.19,0.61-0.28,0.92c-0.3,0.42-0.56,0.68-1.07,0.88    c-0.39,0.63-0.78,1.26-1.18,1.88c-0.69,1.32-1.08,2.81-1.41,4.24c-0.12,0.5,0.03,1.99,0.34,2.35c-0.16,1.35,0.35,2.4,0.65,3.66    c0.13,0.59,0.25,1.17,0.38,1.76c0.63,0.37,0.97,1.18,1.22,1.83c0.78,0.19,1.54,1.26,1.9,1.92c0.28,0.32,0.56,0.65,0.84,0.97    c-0.13,0.34,0.3,0.97,0.49,1.29c0.29,0.94,0.59,1.88,0.88,2.82c0,0.96,0,1.93,0,2.89c-0.41,2.29-0.85,4.58-1.07,6.85    c0.05,0.51,0.1,1.02,0.15,1.52c0.59,0.48,0.5,1.45,0.46,2.13c0.17,0.51,0.35,1.03,0.52,1.54c0.75,1.51,1.5,3.02,2.26,4.54    c0.34,1.25,0.75,2.33,1.26,3.5c0.23,0.72,0.46,1.43,0.69,2.15c0.66,1.32,1.32,2.64,1.98,3.96c0.43,0.18,0.74,0.87,1.02,1.26    c0.27,0.44,0.54,0.89,0.8,1.33c0.66,0.7,1.14,1.51,1.52,2.44c-0.17,0.37,0.13,0.69,0.15,1.07c-0.1,1.42-0.2,2.84-0.3,4.26    c-0.1,0.3-0.2,0.61-0.3,0.91c-0.44,0.3-0.41,1.15-0.45,1.68c-0.1,1.61,0.23,3.01,0.45,4.56c0.15,0.83,0.31,1.67,0.46,2.5    c0.06,0.47,0,1.93,0.16,2.14c-0.1,1.2-0.21,2.39-0.31,3.59c-0.15,0.46-0.3,0.91-0.46,1.37c0.09,0.65,0.17,1.3,0.26,1.95    c0.12,0.42,0.23,0.83,0.35,1.25c0.06,1.01-0.34,1.68-0.46,2.59c0,0.96,0,1.93,0,2.89c0.82,0.79,0.65,2.78,0.91,3.81    c0.19,1.07,0.38,2.14,0.58,3.2c0.16,0.56,0.33,1.11,0.49,1.67c0.01,0.57,0.02,1.14,0.03,1.7l0.27,0.12c1.59,0,4.78,0.75,5.95,1.92    c0.86,0.82,1.71,1.65,2.57,2.47c1.12,0.97,2.24,1.95,3.36,2.92c0.41,0.25,0.81,0.51,1.22,0.76c1.47,0.91,2.94,1.83,4.42,2.74    c0.3,0.1,0.61,0.2,0.91,0.3c0.42,0.36,0.85,0.71,1.27,1.07c0.48,0.52,1.39,2.54,1.01,3.2c0.41,1.57,0.81,3.15,1.22,4.72    c0.41,0.96,0.81,1.93,1.22,2.89c1.21,1.27,2.41,2.55,3.62,3.82c0.35,0.33,0.93,0.38,1.32,0.81c0.45,0.73,0.9,1.45,1.35,2.18    c0.5,0.23,1.55,2.25,1.63,2.79c0.96,0.76,1.93,1.52,2.89,2.28c0.41,0.05,0.81,0.1,1.22,0.15c0.98-0.12,1.85-0.41,2.76-0.73    c0.34-0.12,0.92-0.46,1.2-0.18c0.66-0.29,1.31-0.8,1.56-0.12c0,0-0.14-1.49-0.03-2.31c-0.47-0.22-0.42-0.58-0.57-1.07    c-0.08-0.29,0.99-1.18,1.33-1.37c0.3-0.56,0.61-1.12,0.91-1.68c0.15-0.56,0.3-1.12,0.46-1.68c0.49-0.07,0.73-0.41,1.07-0.76    c-0.27-0.28-0.13-0.68-0.14-1.07c-0.03-0.75-0.14-1.35-0.01-2.13c-0.02-0.16-0.05-0.33-0.07-0.49c0.2-0.81,2.69-3.01,3.57-3.01    c0.66-0.36,1.32-0.71,1.98-1.07c1.19-1,2.07-1.8,2.84-3.14c0.32-0.56-0.01-0.27,0.06-0.67c-0.78,0-1.28-0.3-1.63-0.96    c-0.06-0.14-0.13-0.28-0.2-0.41c0.27,0.19,0.23,0.12,0.51,0.05c0.52-0.11,1.31,0.76,1.75,1.05c0.06,0.04,0.12,0.08,0.18,0.12    c0.05-0.55,0.16-0.44,0.61-0.61c-0.21-0.3,0-0.71,0-1.08c0-1.31-0.03-2.37,0.85-3.41c0.43-0.08,0.85-0.15,1.28-0.23    c0.1-0.3,0.2-0.61,0.3-0.91c0.76-0.15,1.52-0.3,2.28-0.46c0.41-0.2,0.81-0.41,1.22-0.61c0.97-0.82,2.48-0.87,3.66-0.76    c0.57-0.38,1.48-0.34,1.98,0c0.81-0.51,1.62-1.02,2.44-1.53c1.43-0.9,0.99-4.09,1.01-5.59c0.03-2.14-0.01-5.14,0.97-7.12    c0.43-0.88,2.08-1.94,3.04-1.99c1.54-0.09,1.55,1.39,2.9,1.53L334.69,169.41z"/>
            <circle cx="282.45" cy="160.65" r="1.586"/>
        </g>
        <g id="__Yazıhan">
            <path d="    M298.93,212.39c-0.25-0.68-0.9-0.17-1.56,0.12c-0.28-0.28-0.86,0.06-1.2,0.18c-0.91,0.32-1.78,0.61-2.76,0.73    c-0.41-0.05-0.81-0.1-1.22-0.15c-0.96-0.76-1.93-1.52-2.89-2.28c-0.08-0.54-1.13-2.56-1.63-2.79c-0.45-0.72-0.9-1.45-1.35-2.18    c-0.39-0.43-0.97-0.48-1.32-0.81c-1.21-1.27-2.41-2.55-3.62-3.82c-0.41-0.96-0.81-1.93-1.22-2.89c-0.41-1.57-0.81-3.15-1.22-4.72    c0.38-0.66-0.54-2.68-1.01-3.2c-0.42-0.36-0.85-0.71-1.27-1.07c-0.3-0.1-0.61-0.2-0.91-0.3c-1.47-0.91-2.94-1.83-4.42-2.74    c-0.41-0.25-0.81-0.51-1.22-0.76c-1.12-0.97-2.24-1.95-3.36-2.92c-0.86-0.82-1.71-1.65-2.57-2.47c-1.17-1.17-4.35-1.92-5.95-1.92    l-0.27-0.12c0.47,2.44,0.83,6.26-1.3,7.96c-0.49,0.07-0.98,0.15-1.48,0.22c-1.32-0.1-2.64-0.19-3.96-0.29    c-0.59,0.23-1.19,0.46-1.78,0.69c-0.78,0.53-1.55,1.06-2.33,1.59c-0.01,0.49-0.41,0.73-0.69,1.13c-0.79,0.89-1.58,1.78-2.37,2.67    c-0.29,0.33-0.68,1.23-1.2,1.23c-0.91,1.68-2.28,1.75-3.74,1.91c-0.94,0.12-1.88,0.24-2.82,0.36c-0.77-0.28-1.54-0.55-2.3-0.83    c-1.16-0.36-2.31-0.31-3.49-0.52c-0.5-0.16-1.01-0.31-1.51-0.47c-1.02-0.06-2.03-0.13-3.05-0.2c-2.62-0.21-5.17-0.72-7.76-0.11    c-1.04-0.4-3.48,0.39-4.25,1.09c-0.4,0.25-0.79,0.5-1.19,0.75c-2.07,1.13-4.24,2.86-4.98,5.22c-0.28,0.9-0.14,2.08,0.06,2.99    c-0.24,0.42,0.03,1.23,0.15,1.68c-0.19,0.52,0.23,2.3,0.36,2.91c0.13,0.88,0.27,1.75,0.4,2.63c-0.2,2.72-0.02,5.41,0.3,8.01    c0.36,0.81,0.71,1.62,1.07,2.44c0.74,0.28,1.42,2.17,1.68,2.89c-0.23,0.3-0.14,0.69-0.15,1.06c-0.25,0.42-0.5,0.84-0.76,1.26    c-0.21,0.34-0.41,0.69-0.62,1.03c-0.3,0.03-1.76,1.79-1.98,2.13c-0.05,0.21-0.1,0.42-0.16,0.63c-0.26,0.45-0.53,0.89-0.79,1.34    l-0.27,0.01c-0.22,0.61,0.01,3.99,0.3,4.57c0.19,0.4,1.81,0,2.43-0.19c0.99-0.3,1.77-0.89,2.84-1.03    c0.09,0.06,0.18,0.11,0.27,0.17c1.38-0.2,2.57,0.38,3.9,0.52c0.61,0.07,1.22,0.15,1.83,0.22c0.36-0.05,0.71-0.1,1.07-0.15    c0.71-0.48,3.74-0.64,4.74-0.74c0.86-0.01,1.71-0.01,2.57-0.02c0.86-0.1,1.73-0.2,2.59-0.3c2.18,0,4.37,0,6.55,0    c0.28,0.42,2.06,0.17,2.7,0.31c1.77,0.39,3.38,0.66,5.22,0.6c0.48,0.43,2.62,0.67,3.3,0.81c0.37,0.19,0.75,0.37,1.12,0.56    l0.05-0.13c0.74,0.15,1.49,0.29,2.23,0.44c0.84,0.29,1.67,0.57,2.51,0.86c0.41,0.16,1.07,0.28,1.3,0.66    c0.41,0.1,0.81,0.2,1.22,0.3c1.1-0.28,2.21-0.57,3.31-0.85c0.95-0.34,1.92-0.88,2.93-0.88c0.56,0.02,1.12,0.03,1.68,0.05    c0.36,0.17,0.61,0.22,0.76,0.61c1.12,0.31,2.93,0.87,4.07,0.77c0.73,0.55,2.63,0.13,3.55,0.15c0.66,0.1,1.32,0.2,1.98,0.3    c0.3,0.2,0.61,0.41,0.91,0.61c0.1-0.1,0.2-0.2,0.3-0.3c0.38-0.36,0.28-0.62,0.62-0.64c0.58-0.04,2.08,0.49,2.43,0.94    c0.96,0.25,1.93,0.51,2.89,0.76l0.15-0.3c0.3-0.3,0.61-0.61,0.91-0.91c0.67-0.66,1.64-0.07,2.28,0.15    c1.14-0.26,4.36,1.29,4.87,2.28c1,0,2-0.01,2.84,0.59c0.58,0.42,0.56,0.83,0.97,1.23c0.11,0.02,0.23,0.04,0.34,0.06    c0.74,0.25,1.6-0.62,2.09-1.12c0.61-0.2,1.22-0.41,1.83-0.61c0.46-0.53,0.78-0.99,1.28-1.45c1.46-1.23,0.99-0.08,2.22-0.08    c0.2-0.2,0.41-0.41,0.61-0.61c0.35-0.35-0.35-0.56,0-0.91c0.61-0.36,1.22-0.71,1.83-1.07c0.24,0.34,0.48,0.46,0.91,0.46    c1.18-0.66,2.14-0.79,3.5-0.91c0.19,0.79,1.01,0.68,1.68,0.74c0.56-0.09,1.12-0.19,1.68-0.28c0.3,0.05,0.61,0.1,0.91,0.15    c0.81,0.03,1.39-0.31,2.13-0.46c0.53,0,0.22-0.76,0.03-1.02c-0.28-0.38-0.72-0.45-1.11-0.6c-0.37,0.13-0.75,0.26-1.12,0.39    c-0.45,0.15-1.71,0.24-2.22,0.01c-1.23-0.55-1.94-1.09-2.89-1.98c0.12-0.57-1.07-1.99-1.68-2.13c-2.05-0.49-4.69-0.57-6.24-2.13    c-0.77-0.77-0.54-2.37,0-3.2c0.86-1.31,2.21-3.47,2.44-5.03c-0.05-1.22-0.1-2.44-0.14-3.66c-0.03-0.4-2,0.2-2.43,0.5    c-0.81,0.56-2.08,0.98-3.06,1.34c-0.36-0.05-0.71-0.1-1.07-0.15c-0.75,0.77-3.27,0.16-4.01-0.39c0.06,0.06,0.11,0.12,0.17,0.19    c0.53,0.14,0.97-0.97,1.25-1.32c0.1,0.05,0.2,0.1,0.3,0.15c0.72-0.28,1.56-0.5,2.13-1.07c1.57-0.36,3.22-0.89,4.73-1.5    c1-0.37,0.09-1.44-0.08-2.17c-0.03-0.4-0.06-0.8-0.09-1.2L298.93,212.39z"/>
            <circle cx="264.94" cy="214.57" r="1.586"/>
        </g>
    </g>
</svg>