<?xml version="1.0" encoding="UTF-8"?>
<!DOCTYPE svg PUBLIC "-//W3C//DTD SVG 1.1//EN" "http://www.w3.org/Graphics/SVG/1.1/DTD/svg11.dtd">
<svg version="1.1" id="HaritaCizim" xmlns="http://www.w3.org/2000/svg" xmlns:xlink="http://www.w3.org/1999/xlink" x="0px" y="0px" viewBox="0 0 480 490" preserveAspectRatio="none">
    <defs id="__def">
        <radialGradient id="f">
            <stop offset="0" stop-color="white" stop-opacity="1"/>
            <stop id="STOP1" offset=".4" stop-opacity="1"/>
            <stop offset="1" stop-color="white" stop-opacity=".2"/>
        </radialGradient>
        <filter id="__flt1" x="0" y="0" width="200%" height="200%" filterUnits="objectBoundingBox">
            <feGaussianBlur in="SourceAlpha" stdDeviation="3" result="blur1"/>
            <feSpecularLighting result="specOut" in="blur1" specularConstant="1.5" specularExponent="20" lighting-color="#bbbbbb">
                <feDistantLight azimuth="45" elevation="30"/>
            </feSpecularLighting>
            <feComposite in="specOut" in2="SourceAlpha" operator="in" result="specOut"/>
            <feComposite in="SourceGraphic" in2="specOut" operator="arithmetic" k1="0" k2="1" k3="1" k4="0"/>
        </filter>
        <filter id="__flt2" x="0" y="0" width="200%" height="200%" filterUnits="objectBoundingBox">
            <feGaussianBlur in="SourceAlpha" stdDeviation="3" result="blur1"/>
            <feSpecularLighting result="specOut" in="blur1" specularExponent="20" lighting-color="#bbbbbb">
                <fePointLight x="-2000" y="100" z="2000"/>
            </feSpecularLighting>
            <feComposite in="specOut" in2="SourceAlpha" operator="in" result="specOut"/>
            <feComposite in="SourceGraphic" in2="specOut" operator="arithmetic" k1="0" k2="1" k3="1" k4="0"/>
        </filter>
        <filter id="__flt3" x0="-50%" y0="-50%" width="200%" height="200%" filterUnits="objectBoundingBox">
            <feGaussianBlur in="SourceAlpha" stdDeviation="3" result="blur"/>
            <feOffset in="blur" dx="0" dy="0" result="offsetBlur"/>
            <feSpecularLighting in="blur" surfaceScale="4" specularConstant=".5" specularExponent="20" lighting-color="flavor" result="specOut">
                <fePointLight x="-5000" y="-10000" z="5000"/>
            </feSpecularLighting>
            <feComposite in="specOut" in2="SourceAlpha" operator="in" result="specOut"/>
            <feComposite in="SourceGraphic" in2="specOut" operator="arithmetic" k1="0" k2="1" k3="1" k4="0" result="litPaint"/>
            <feMerge>
                <feMergeNode in="offsetBlur"/>
                <feMergeNode in="litPaint"/>
            </feMerge>
        </filter>
        <filter id="__flt4" x0="-50%" y0="-50%" width="200%" height="200%">
            <feGaussianBlur in="SourceAlpha" stdDeviation="2" result="blur"/>
            <feOffset dy="-1" dx="-1"/>
            <feComposite in2="SourceAlpha" operator="arithmetic" k2="-1" k3="1" result="hlDiff"/>
            <feFlood flood-color="white" flood-opacity=".7"/>
            <feComposite in2="hlDiff" operator="in"/>
            <feComposite in2="SourceGraphic" operator="over" result="withGlow"/>
            <feOffset in="blur" dy="3" dx="3"/>
            <feComposite in2="SourceAlpha" operator="arithmetic" k2="-1" k3="1" result="shadowDiff"/>
            <feFlood flood-color="black" flood-opacity="1"/>
            <feComposite in2="shadowDiff" operator="in"/>
            <feComposite in2="withGlow" operator="over"/>
        </filter>
        <filter id="__golge1" x="0" y="0" width="200%" height="200%" filterUnits="userSpaceOnUse">
            <feOffset result="offOut" in="SourceAlpha" dx="8" dy="8"/>
            <feGaussianBlur result="blurOut" in="offOut" stdDeviation="3"/>
            <feBlend in="SourceGraphic" in2="blurOut" mode="normal"/>
        </filter>
    </defs>
    <g id="__Komsular" display="none">
        <radialGradient id="SVGID_1_" cx="289.6392" cy="263.4131" r="32.1833" gradientTransform="matrix(0.5486 -0.8361 0.4181 0.2743 20.6341 433.3358)" gradientUnits="userSpaceOnUse">
            <stop offset="0" style="stop-color:#789FD3"/>
            <stop offset="1" style="stop-color:#FFFFFF;stop-opacity:0"/>
        </radialGradient>
        <path fill-rule="evenodd" clip-rule="evenodd" fill="url(#SVGID_1_)" stroke="#000000" stroke-width="0.25" stroke-miterlimit="10" d="   M305.47,243.81c-0.47-0.4-0.35-0.53-0.95-0.66c-0.73-0.16-1.34,0.05-1.91,0.58c-0.47-0.57-1.1,0.3-1.48,0.66   c-0.27,0.11-0.54,0.22-0.81,0.33c-0.23,0.2-0.46,0.41-0.69,0.61c-0.53,0.23-1.07,0.47-1.6,0.7c-0.66,0-1.14,0.01-1.75-0.33   c-0.04,0.11-0.09,0.22-0.13,0.33c-0.09,0.22-0.18,0.44-0.27,0.66c0.21,0.38,1.48,2.11,0.57,2.51c-0.24,0.12-1.1,1.09-1.1,0.61   c-0.02-0.6-0.27-2.56,0-2.96c-0.17-0.3-0.3-0.45-0.27-0.82c-0.78-0.59-1.24-1.38-2.03-1.76c-0.2-0.08-0.92,0.49-0.92,0.78   c0.28,0.24,0.46,0.46,0.81,0.49c0.09,0.6,0.18,1.21,0.27,1.81c-0.22,0.27-1.21,0.2-1.21,0.5c0.03,1.1,0.25,1.34-0.4,2.3   c0.43,0-0.09,2.01-0.27,2.3c-0.27,0.44-1.48,1.48-1.48,1.81c-0.42-0.11-1.62-0.24-1.62,0.47c0.01,0.54,0.48,0.75,0.46,1.11   c-0.09,1.06-0.73,2.08-1.4,2.86c-0.16,0.18-1.07,0.91-1.07,0.5c-0.27-0.6-0.54-1.21-0.81-1.81c-0.17-0.98,0.09-1.29-0.54-1.97   c-0.08,0.2-0.15,0.4-0.23,0.6c-0.01,0.13-0.03,0.26-0.04,0.39c-0.12,0.14-0.24,0.29-0.36,0.43c-0.5,0.64,0.32,0.67,0.17,1.01   c-0.16,0.29-0.32,0.57-0.48,0.86c-0.31-0.11-0.63-0.22-0.94-0.33c-0.18,0.22-0.36,0.44-0.54,0.66c-0.09,0.27-0.18,0.55-0.27,0.82   l-1.48,0.49c0.1,0.14,0.2,0.28,0.3,0.42c0.39,0.3,2.11,0.7,1.96,1.21c-0.26,0.92-0.67,2.79-1.72,2.65   c0.23,0.28,0.99,0.76,0.67,1.15c-0.37,0-0.29,0.39-0.67,0.16c-0.32,0.78-0.75,0.85-1.21,1.48c0.3,0.37,0.43,0.97,0.4,1.48   c-0.18,0-0.13-0.06-0.13,0.16c0.18,0.33,0.36,0.66,0.54,0.99c0.31,0.14,0.52,0.13,0.67,0.49c0.42-0.05,1.3-0.43,1.12,0.31   c-0.04,0.2-0.41,0.88-0.45,1.08c-0.34,0.53-0.3,0.3-0.81,0.58c-0.31-0.38-1.88,0.13-1.92,0.53c0,0.33,0.06,0.25-0.23,0.45   c0.37,0.69,0.7,1.27,0.13,1.97c-0.31,0.11-0.63,0.22-0.94,0.33c-0.31,0.38-0.63,0.92-1.08,0.99c-0.11,0.18-0.53,0.8-0.28,0.84   c0.67,0.16,1.35,0.32,2.02,0.47c-0.27,0.25-1.11,0.39-1.28,0.74c-0.21,0.47-0.26,1.55-0.6,1.57c-0.23,0-0.45-0.01-0.68-0.01   c0-0.42-0.35-0.43-0.54-0.66c-0.02-0.18-0.2-2.22-0.49-1.45c-0.22,0.53-0.19,1.03-0.19,1.61c-0.39,0.42-0.78,0.99-1.34,0.99   c-0.15,0.34-0.37,0.56-0.22,0.96c0.18,0.45,0.08,0.6,0.49,0.85c0.36,0.21,1.49,1.3,1.75,0.99c1.02,0,1.71-1.4,2.49-1.85   c0.43,0.05,0.86,0.09,1.29,0.14c0.53-1.76,0.67-2.24,2.13-3.06c-0.19-0.69-0.37-0.4,0.08-1.06c0.41-0.34,0.82-0.68,1.22-1.02   c0.23-0.31-0.41-0.24-0.13-0.46c0.37-0.36,0.75-0.72,1.12-1.08c0.8-0.52,1.61-1.03,1.61-2.3c1.27-0.83,2.22-2.1,3.36-3.29   c-0.04-0.22-0.09-0.44-0.13-0.66c0.46-0.47,1.46-2.03,1.88-2.14c0.27-0.6,0.54-1.21,0.81-1.81c0.09-0.38,0.18-0.77,0.27-1.15   c-0.09-0.22-0.18-0.44-0.27-0.66c-0.22,0-0.72-0.21-0.61-0.49c0.16-0.39,0.32-0.77,0.48-1.16c-0.16-1.45-0.18-3.11,1.32-3.07   c0.27,0.01,1.04-0.02,1.15,0.25c0.12,0.28,0.24,0.57,0.35,0.85c0.03,0.35,0.05,0.7,0.08,1.05c0.15,0.13,0.42,0.46,0.56,0.36   c0.58-0.38,1.62-1.48,2.32-1.25c1.9,0.63,3.2,2.43,5.04,0.66c0.23-0.24-0.16-0.99,0.2-0.99c0.56-0.36,1.55-0.58,2.22-1.89   c-1.08,0.41-2.26,0.96-3.02,0.9c-0.15,0.33-0.3,0.66-0.45,1c-0.53,0.12-1.16,0.22-1.3-0.34c-0.08-0.1-0.15-0.19-0.23-0.29   c-0.49,0.23-0.9,0.78-1.36,0.42c-0.95-0.8-1.91-1.6-2.86-2.4c-0.47-0.26-0.95-0.49-0.92-1.18c0.42,0,1.23-1.39,1.48-1.81   c0.71,0,1.48-1.51,1.48-2.3c0.4-0.44,0.81-0.88,1.21-1.32c0.31-0.55,0.63-1.1,0.94-1.64c0.68-0.36,1.36-0.71,2.05-1.07   c0.36-0.19,1.75-0.76,2.12-0.58c0.3-0.51,0.94-1.01,0.94-1.64c0.14-0.14,0.67-0.69,0.67-0.33   C305.53,244.63,305.5,244.22,305.47,243.81z"/>
        <radialGradient id="SVGID_2_" cx="215.2583" cy="279.4019" r="20.7613" gradientUnits="userSpaceOnUse">
            <stop offset="0" style="stop-color:#789FD3"/>
            <stop offset="1" style="stop-color:#FFFFFF;stop-opacity:0"/>
        </radialGradient>
        <path fill-rule="evenodd" clip-rule="evenodd" fill="url(#SVGID_2_)" stroke="#000000" stroke-width="0.25" stroke-miterlimit="10" d="   M216.72,269.04c0.07,0.17,0.14,0.35,0.21,0.52c0.15,0.38,0.31,0.75,0.46,1.13c0-0.52,0.71-1.02,1.06-0.92   c0.43,0.19,0.86,0.38,1.29,0.57c0.2,0.23,0.41,0.45,0.61,0.68c0.43,0.33,1-0.09,1.48-0.16c0.45,0.38,0.9,0.77,1.34,1.15   c0.2,0.63,0.67,1.81,0.4,2.47c0.09,0.03,0.19,0.06,0.29,0.1c0.22-0.03,0.44-0.07,0.66-0.1c0.38-0.46,0.12-1.08,0.76-0.9   c0.37,0.36,0.74,0.71,1.12,1.07c0.95,0,1.93-0.02,2.42,1.04c0.04,0.2,0.09,0.4,0.13,0.6c0.3,0.54,1.21,1.77,1.21,2.47   c0.2,0.25,0.42,0.58,0.2,0.93c-1.32,1.83-2.64,3.65-3.96,5.48c-0.18,0.38-0.36,0.77-0.54,1.15c-0.09,0.27-0.18,0.55-0.27,0.82   c-0.22,0.79-1.61,2.14-2.28,2.14c-0.24,0.29-0.33,0.49-0.67,0.49c-0.41-0.7-1.02-2.35-2.02-1.81c-0.27-0.22-0.54-0.44-0.81-0.66   c-0.36-0.05-0.72-0.11-1.08-0.16c-0.31-0.13-0.62-0.26-0.93-0.39c-1.17-0.53-1.85-0.61-3.1-0.44c-0.65,0.09-0.79,0.64-1.21,1.15   c-0.39,0.2-0.78,0.41-1.17,0.61c-0.31,0.1-0.57,0.06-0.85-0.12c-0.31,0.25-0.45,0.28-0.81,0.33c-0.82,0.11-2.04-0.65-2.55-0.49   c-0.58-0.44-1.67-1.63-2.28-1.64c-0.49-0.93-0.99-1.86-1.48-2.79c-0.09,0.05-0.18,0.11-0.27,0.16c-0.13-0.49-0.39-0.64-0.58-1.06   c-0.18-0.39-1.48-1.6-1.84-1.57c-0.4-0.49-0.81-0.99-1.21-1.48c0-0.24,0.1-0.66-0.13-0.66c-0.34-0.99-0.36-1.96-0.03-2.97   c0.09-0.27,0.17-0.81,0.43-0.81c0.18-0.11,0.36-0.22,0.54-0.33c0.69,0,1.28,0.34,1.97,0c0.64-0.38,1.29-0.77,1.93-1.15   c0.24,0.22,0.71,0.89,0.96,0.72c0.36-0.2,0.58-0.26,0.79-0.72c0.54-0.27,1.09-0.54,1.63-0.82c0.37-0.17,0.61-0.03,0.92-0.33   c0.06,0.08,0.12,0.15,0.18,0.23c0.16,0.2,0.33,0.39,0.49,0.59c0.07,0.33,0.24,1.48,0.53,1.48c0.81,0.03,0.82-0.16,1.62,0.33   c0.28-0.34,0.4-0.65,0.81-0.66c0.09-0.33,0.18-0.66,0.27-0.99c0.31,0.33,0.63,0.66,0.94,0.99c0.33,0.1,2.19,0.35,2.19,0.35   c0.1,0.54,0.09,0.93-0.04,1.46c0.53,0,0.49,1.15,1.08,1.15c0.28-0.35,0.48-0.32,0.81-0.16c-0.02-0.06-0.03-0.13-0.05-0.19   c-0.08-0.63-0.17-1.25-0.25-1.88c-0.28-0.27-0.62-1.41-0.65-1.88c-0.39-0.57-1.48-2.46-0.94-3.12   C216.55,269.7,216.64,269.37,216.72,269.04z"/>
        <path fill-rule="evenodd" clip-rule="evenodd" fill="none" stroke="#000000" stroke-width="0.25" stroke-miterlimit="10" d="   M334.53,115.66c1.95,0.9,4.14,0.48,6.15,1.36c1.24,0.54,4.44,2.68,5.82,1.78c1.55-1.01,0.77-5.88,0.5-7.54   c-0.41-2.46-0.37-5.11-0.77-7.61c-0.82-5.1-1.79-10.21-2.56-15.28c-0.38-2.51-1.5-3.74-2.99-5.55c-1.27-1.53-3.51-3.95-2.35-6.57   c0.98-2.22,4.35-1.22,6.04-1.32c2.63-0.15,3.59,1,5.85,1.98c1.96,0.85,4.06,1.21,6.22,0.62c1.02-0.28,2.01-0.92,3.08-1.16   c1.09-0.24,2.28,0.1,3.36-0.16c2.87-0.68,5.01-4.12,7.63-5.47c1.26-0.65,2.89-0.86,4.09-1.57c1.27-0.76,2.37-2.61,3.6-3.65"/>
        <path fill-rule="evenodd" clip-rule="evenodd" fill="none" stroke="#000000" stroke-width="0.25" stroke-miterlimit="10" d="   M95.43,43.98c-1.97,0.67-4.52,0.33-6.59,0.33c-2.15,0-3.86-0.92-6.02-1.19c-0.9-0.11-2.31-0.42-3.26-0.14   c-0.98,0.3-1.91,1.12-2.82,1.49c-1.93,0.79-3.97,1.41-5.81,2.43c-1.8,1-3.79,1.65-5.75,2.29c-2.12,0.69-4.08-0.36-6.18-0.62   c-1.16-0.14-2.33,0-3.49-0.16c-1.09-0.15-2.1-0.9-3.12-1.12c-2.1-0.44-4.47,0.04-6.42,0.63c-1.66,0.5-4.47,1.17-5.78,2.43   c-1.67,1.6-2.28,4-3.36,6.12c-2.37,4.63-7.1,4.59-10.62,6.74c-1.68,1.03-3.57,1.66-5.1,2.8c-1.77,1.32-3.39,2.93-5.35,3.99   c-0.91,0.49-1.85,0.69-2.71,1.31c-0.96,0.69-1.68,1.56-2.69,2.22c-1.81,1.19-3.23,2.97-5.11,4.03c-1.69,0.95-3.62,1.5-5.24,2.42"/>
        <path fill-rule="evenodd" clip-rule="evenodd" fill="none" stroke="#000000" stroke-width="0.25" stroke-miterlimit="10" d="   M310.74,432.13c-0.81,0.22-1.77,1.38-2.56,1.8c-0.84,0.46-1.87,0.8-2.65,1.52c-0.83,0.77-1.3,1.44-2.32,1.94   c-1.03,0.5-1.98,0.75-2.82,1.61c-1.53,1.57-2.03,4.12-4.57,3.66c-1.59-0.29-4.38-0.61-5.67-1.93c-1.7-1.74-3.25-3.52-5.07-4.98   c-1.47-1.17-3.7-3.3-5.55-1.52c-0.91,0.88-0.52,2-0.88,3.36c-0.33,1.23-1.11,2.22-1.9,3.09c-0.79,0.87-1.51,1.55-2.33,2.43   c-0.66,0.71-1.9,1.27-2.39,1.89c-0.09,0.11-0.27,0.13-0.38,0.16c-0.35,2.63,1.26,4.83-0.14,7c-1.14,1.76-2.26,4.57-4.07,5.58   c-1.05,0.58-2.22,0.29-3.3,0.57c-1,0.25-1.98,0.65-3.12,0.79c-2.09,0.25-4.23,0.43-6.18,1.15c-2.1,0.77-4.18,1.03-6.32,0.17   c-0.99-0.4-1.99-0.49-2.92-1.19c-0.48-0.36-1.78-2.21-2.31-2.11c-0.84,0.16-1.03,2.6-1.08,3.46c-0.09,1.55-0.01,2.23-0.97,3.09   c-2.26,2.01-4.22,1.63-6.69,0.82c-2.01-0.66-4.53-0.87-6.59-1.11c-2.2-0.25-4.23,0.1-5.95,1.6c-1.7,1.49-2.81,2.92-3.96,4.85   c-0.68,1.14-1.81,1.75-2.56,2.78c-0.7,0.97-1.2,2.21-2.05,3.05c-0.96,0.95-1.87,1.47-2.98,0.9c-1.13-0.58-1.86-1.66-3.2-1.52"/>
        <path fill-rule="evenodd" clip-rule="evenodd" fill="none" stroke="#000000" stroke-width="0.25" stroke-miterlimit="10" d="   M337.49,443.64c-0.95,1.39,0.85,1.9,1.22,2.91c0.49,1.33-0.62,2.72,0.22,3.84c0.98,1.3,4.5,1.4,5.95,1.31   c2.31-0.15,4.23-0.02,6.45,0.69c2.54,0.81,2.42,3.45,4.19,5.03c1.32,1.18,3.87-0.22,4.93,1.21c-0.43,1.04-1.22,1.65-1.84,2.48   c-0.96,1.3-0.78,1.36-0.4,2.91c0.35,1.42,0.23,2.31,0.24,3.79c0,0.46-0.13,1.48,0.13,1.81c0.67,0.85,0.64-0.32,0.94-0.34   c0.86-0.05,0.23-0.86,1.05,0.52c0.33,0.57,0.46,1.18,0.67,1.82c0.38,1.16,0.85,2.48,1.67,3.25c1.48,1.39,1.46-0.32,2.66-0.18   c1.06,0.13,1.28,2.09,2.42,2.16c1.47,0.08,1.11-1.47,1.65-2.59c0.81-1.69,1.71-1.3,2.78-0.83c0.91,0.4,0.32,0.44,1.25,0.17   c0.44-0.13,0.63-0.99,1.45-0.71c0.96,0.33,1.19,1.86,1.78,2.76c0.81,1.24,1.11,1.24,0.54,2.71c-0.5,1.28-1.09,2.17-1.25,3.58   c-0.19,1.67,0.23,3.21-0.4,4.77c-0.39,0.96-1.11,1.91-1.75,2.59c-0.14,0.15-0.08,0.15-0.15,0.34c-0.35,0-0.39,0.22-0.65,0.36"/>
        <path fill-rule="evenodd" clip-rule="evenodd" fill="none" stroke="#000000" stroke-width="0.25" stroke-miterlimit="10" d="   M383.45,396.29c2.14-0.31,4.08-1.1,6.32-0.66c1.09,0.21,2.12,0.93,3.08,1.16c1.07,0.25,2.05-0.03,3.07,0.36   c1.88,0.74,4.03,0.9,6.09,0.17c1.06-0.38,1.66-1.03,2.82-1.19c1.25-0.17,1.62,0.26,2.82,0.93c1.16,0.65,4.01-0.56,4.18,1.15   c1.65-2.97,1.4,1.93,1.48,2.98c1.08,0.47,1.6,0.08,2.43-0.59c0.91-0.74,1.32-0.81,2.39-1.18c1.64-0.57,1.9-2.98,3.46-3.82   c0.53-0.29,1.98-0.31,2.59-0.12c0.9,0.27,1.27,1.16,2.14,1.49c0.88,0.32,1.63-0.31,2.39-0.54c0.87-0.27,1.75-0.33,2.7-0.26   c1.14,2.54,3.1,1.4,5,1.62c1.94,0.22,2.67,2.21,3.23,4.27c0.59,2.21,1.73,3.7,1.75,6.25c0.01,1.62-0.01,1.83,0.94,2.79   c0.71,0.72,1.48,1.31,2.15,1.98"/>
        <path fill-rule="evenodd" clip-rule="evenodd" fill="none" stroke="#000000" stroke-width="0.25" stroke-miterlimit="10" d="   M434.52,210.68c1.6,0.97,4.3,1.48,6.05,1.48c1.19,0,1.9-0.95,2.96-0.99c0.9-0.04,2.15,1,2.79,1.7c1.49,1.63,2.88,3.06,4.49,4.4   c1.7,1.41,3.01,3.03,4.65,4.59c1.53,1.46,3.9,3.59,5.81,3.95c2.07,0.39,4.6-0.72,6.32-1.85c3.37-2.22,6.49-5.69,9.04-9.45   c0.99-1.46,1.5-3.24,2.79-4.48"/>
        <text transform="matrix(0.6183 0.8003 -0.6543 0.7563 418.7161 118.7578)" font-family="'MyriadPro-Regular'" font-size="11">KÜTAHYA</text>
        <text transform="matrix(0.7978 0.2673 -0.2185 0.9758 195.6687 16.3706)" font-family="'MyriadPro-Regular'" font-size="11">BALIKESİR</text>
        <text transform="matrix(0.2987 1.1387 -0.9309 0.3653 16.6846 259.1782)" font-family="'MyriadPro-Regular'" font-size="11">İZMİR</text>
        <text transform="matrix(0.8175 0 0 1 306.1694 472.573)" font-family="'MyriadPro-Regular'" font-size="11">AYDIN</text>
        <text transform="matrix(0.8175 0 0 1 387.0798 438.8706)" font-family="'MyriadPro-Regular'" font-size="11">DENİZLİ</text>
        <text transform="matrix(0.3765 -1.0857 0.8876 0.4606 420.0996 336.9941)" font-family="'MyriadPro-Regular'" font-size="11">UŞAK</text>
    </g>
    <g id="__Harita" display="none">
        <rect id="__cer" x="0" y="0" fill="#000000" opacity="0" width="480" height="490"/>
        <g id="__Soma">
            <path d="    M119.74,154.02c-0.98-0.58-0.79-2.64-0.89-3.84c-0.22-2.58-0.43-5.15-0.65-7.73c-0.22-1.1-0.45-2.19-0.67-3.29    c-0.27-0.05-0.89-3.36-0.97-3.78c-0.57-2.64-1.62-4.93-2.52-7.4c-0.88-2.39-1.88-4.95-2.15-7.56c-0.43-0.58-1.09-1.18-0.81-1.97    c-0.88-0.36-0.74-1.79-0.84-2.76c-0.08-0.51-0.15-1.01-0.23-1.52c-0.31-1.15-0.63-2.3-0.94-3.45c-0.08-0.52-0.34-1.51-0.67-1.81    c-0.12-2.29-0.97-4.43-1.03-6.75c-0.05-1.88,0.51-3.8,0.88-5.6c0.32-1.8,0.64-3.61,0.96-5.41c0.27-1.82,0.29-3.76,0.17-5.59    c-0.1-0.87-0.2-1.75-0.31-2.63c-0.4-1.05-0.81-2.11-1.21-3.16c-0.22-0.51-0.56-0.87-0.54-1.44c-1.18-1.48-2.36-2.97-3.54-4.45    c-1.02-1.75-2.03-3.5-3.05-5.25c-0.76-1.21-1.52-2.41-2.28-3.62c-1.29-1.57-2.21-3.5-3.18-5.36c-0.83-1.61-1.83-3.51-1.93-5.49    c0.04-1.43,0.09-2.85,0.13-4.27c0.87-5.83,5.57-12.54,10.48-13.32c0.63-0.22,1.25-0.44,1.88-0.66c1.03,0.11,2.06,0.22,3.09,0.33    c1.08,0.81,2.16,1.62,3.24,2.44c1.25,0.71,2.49,1.42,3.74,2.13c0.54,0.3,1.2,0.4,1.38,1.05c0.37,1.31,0.44,2.94,0.6,4.41    c0.05,0.47,0.32,1.23,0.18,1.64c0.69,0.95,0.96,1.64,2.01,1.39c0.09,0.03,0.18,0.06,0.27,0.09c0.84-0.53,1.75-1.1,2.7-1.27    c0.29-0.04,0.58-0.09,0.87-0.13c0.2,0.19,0.4,0.38,0.6,0.58c0.45,1.29,1.07,2.34,1.75,3.45c1.43,2.34,3.81,3.91,5.78,5.43    c0.49,0.16,0.99,0.33,1.48,0.49c0.29,0.35,0.96,0.34,1.36,0.44c1.42,0.36,2.84,0.17,4.28,0.26c1.03,0.06,2.21,0.26,3.1,0.95    c1.88-0.02,3.76-0.04,5.64-0.06c1.64-0.16,3.08-1.12,4.32-2.39c0.39-0.4,1.09-0.87,1.2-1.49c1.08-0.68,2.16-1.36,3.23-2.04    c1.03-0.36,2.06-0.72,3.08-1.08c0.95,0.19,1.79,0.37,2.68,0.82c0.43,0.22,0.76,0.8,1.22,0.83c1.13,1.9,2.6,3.25,3.9,4.93    c0.41,0.54,1.81,3.12,2.49,3.29c0.26,0.33,1.7,2.3,2.55,2.95c0.31,0.23,0.79,1.51,1.08,1.16c0.25,0.85,1,0.62,1.41,1.32    c0.28,0.47,0.11,0.85,0.54,1.15c-0.13,1.86-0.27,3.73-0.4,5.59c-1.29,2.99-2.51,7.12-2.69,10.52c-0.22,1.37-0.45,2.74-0.67,4.11    c0,0.49,0,0.99,0,1.48c0.54,1.21,1.08,2.41,1.61,3.62c0.43,2.1,0.47,5.35,0.4,7.56c-0.13,0.55-0.27,1.1-0.4,1.64    c-0.54,0.82-1.08,1.64-1.61,2.47c-0.75,1.22-2.36,1.85-3.46,2.28c-0.46,0.23-0.92,0.46-1.38,0.68c-0.72,0.22-1.43,0.44-2.15,0.66    c-2.16,0.08-4.28,0.25-6.45,0.49c-1.44,0.16-2,1.73-2.96,2.79c-0.5,0.55-1.33,1.13-1.48,1.97c-1.17,0.98-2.57,1.58-3.99,1.65    c-0.28,0.25-1.12,0.43-1.39,0.16c-0.77,0.47-1.51,0.73-2.3,1.11c-0.35,0.61-0.7,1.23-1.05,1.84c0.2,0.56-0.33,1.27-0.68,1.65    c-0.36,0.77-0.72,1.53-1.08,2.3c-0.46,1.39-1.05,2.63-1.34,4.11c-0.37,1.97-0.74,3.94-1.12,5.91c-0.53,1.48-1.14,3.49-0.9,5.11    c-0.49,0.77-1.89,2.62-2.69,2.63c-0.22,0.34-0.33,0.68-0.67,0.82c-0.06,1.22-0.14,3.02-0.47,4.27c-0.19,0.7-0.38,1.04-0.87,1.48    c-0.4,0.22-0.81,0.44-1.21,0.66c-0.46,0.32-0.91,0.64-1.37,0.96c-2.23,0.61-4.46,1.23-6.69,1.84c-0.58,0.27-1.17,0.55-1.75,0.82    c-0.89,0.82-1.91,0.81-2.93,1.25C120.97,153.62,120.23,154.31,119.74,154.02z"/>
            <circle cx="136.76" cy="107.36" r="1.586"/>
        </g>
        <g id="__Kırkağaç">
            <path d="    M209.2,91.98c-0.63-0.88-1.25-1.75-1.88-2.63c-0.69-0.51-1.38-1.02-2.07-1.54c-1.54-0.85-2.81-0.1-4.04-1.96    c-0.22-0.37,0.04-0.71,0.06-1.1c0.08-1.59,0.98-2.58,1.88-3.62c0.27-0.55,0.54-1.1,0.81-1.64c-0.07-0.47,0.07-0.92,0.25-1.32    c0.06-0.33,0.11-0.66,0.17-0.99c0.49-1.26,0.97-2.52,1.46-3.78c0.2-1.28,0.17-2.36,0.13-3.62c-0.29-0.26-0.29-0.88-0.4-1.32    c-0.54-0.82-1.08-1.64-1.61-2.47c-0.73-0.23-1.24-1.16-1.88-1.64c-2.54-1.9-4.46-4.58-5.6-7.91c-0.05-0.16-1.09-0.3-1.39-0.31    c-1.04-0.02-3.39,0.79-4.3,1.48c-0.58,0.33-1.16,0.66-1.75,0.99c-0.56,1.09-2.03,1.44-2.82,2.3c-0.54,0.55-1.08,1.1-1.61,1.64    c-0.27,0.49-0.54,0.99-0.81,1.48c-1.35,0.91-2.71,1.82-4.06,2.73c-1.4,0.74-3.31,0.55-4.67,0.55v0.49    c0.28,0.47,0.11,0.85,0.54,1.15c-0.13,1.86-0.27,3.73-0.4,5.59c-1.29,2.99-2.51,7.12-2.69,10.52c-0.22,1.37-0.45,2.74-0.67,4.11    c0,0.49,0,0.99,0,1.48c0.54,1.21,1.08,2.41,1.61,3.62c0.43,2.1,0.47,5.35,0.4,7.56c-0.13,0.55-0.27,1.1-0.4,1.64    c-0.54,0.82-1.08,1.64-1.61,2.47c-0.75,1.22-2.36,1.85-3.46,2.28c-0.46,0.23-0.92,0.46-1.38,0.68c-0.72,0.22-1.43,0.44-2.15,0.66    c-2.16,0.08-4.28,0.25-6.45,0.49c-1.44,0.16-2,1.73-2.96,2.79c-0.5,0.55-1.33,1.13-1.48,1.97c-1.17,0.98-2.57,1.58-3.99,1.65    c-0.28,0.25-1.12,0.43-1.39,0.16c-0.77,0.47-1.51,0.73-2.3,1.11c-0.35,0.61-0.7,1.23-1.05,1.84c0.2,0.56-0.33,1.27-0.68,1.65    c-0.36,0.77-0.72,1.53-1.08,2.3c-0.46,1.39-1.05,2.63-1.34,4.11c-0.37,1.97-0.74,3.94-1.12,5.91c-0.53,1.48-1.14,3.49-0.9,5.11    c-0.49,0.77-1.89,2.62-2.69,2.63c-0.22,0.34-0.33,0.68-0.67,0.82c-0.06,1.22-0.14,3.02-0.47,4.27l0.17,0.54    c1.13,0.59,1.81,1.94,2.86,2.74c0.49,0.38,1.34,0.44,1.61,1.15c1.02,0.4,2.04,0.81,3.06,1.21c0.73,0.46,1.46,0.92,2.19,1.38    c0.53,0.23,1.07,0.47,1.6,0.7c0.72,0.16,1.43,0.33,2.15,0.49c1.16-0.15,2.32-0.3,3.47-0.46c0.45-0.58,1.03-1.06,1.63-1.35    c0.19,0.23,0.81,0.16,1.05,0.05c0.66-0.38,1.33-0.77,1.99-1.15c1-0.24,2-0.47,3-0.7c0.85-0.38,1.7-0.77,2.55-1.15    c0.54-0.6,1.07-1.21,1.61-1.81c0.31-0.35,0.79-0.31,0.94-0.82c1.26-0.31,2.52-0.61,3.78-0.92c1.57-0.37,3.1-0.42,4.69-0.56    c0.94-0.43,1.88-0.87,2.82-1.3c0.94-0.33,1.88-0.67,2.83-1c0.26-0.01,0.53-0.02,0.79-0.03c0.41-0.1,0.82-0.2,1.23-0.3    c0.49,0.06,0.98,0.11,1.47,0.17c0.42,0.01,1.21,0.16,1.41-0.08c0.27-0.36,0.64-0.93,1.02-1.07c0.49-1.31,0.99-2.63,1.48-3.95    c0.58-0.98,1.17-1.96,1.75-2.94c1.26-2.6,2.51-5.21,3.77-7.81c0.58-1.73,1.16-3.46,1.74-5.19c0.25-1.08,0.26-2.15,0.68-3.2    c0.49-0.8,0.98-1.6,1.47-2.39c0.21-0.45,0.43-0.9,0.64-1.35c0.87-1.6,1.62-3.13,2.72-4.41c0.36-0.42,1.05-2.05,1.48-1.97    c0.58-1.37,1.17-2.74,1.75-4.11c0.27-0.33,0.54-0.66,0.81-0.99c1.26-2.44,2.93-4.4,4.03-6.91c0.24-1.09,0.49-2.18,0.74-3.27    c0.04-0.29,0.1-1.17,0.32-0.82L209.2,91.98z"/>
            <circle cx="148.25" cy="132.92" r="1.586"/>
        </g>
        <g id="__Akhisar">
            <path d="    M119.74,154.02c0.49,0.29,1.23-0.4,1.72-0.61c1.02-0.44,2.04-0.44,2.93-1.25c0.58-0.27,1.16-0.55,1.75-0.82    c2.23-0.61,4.46-1.23,6.69-1.84c0.46-0.32,0.91-0.64,1.37-0.96c0.4-0.22,0.81-0.44,1.21-0.66c0.49-0.44,1.04-0.94,1.04-0.94    c1.13,0.59,1.81,1.94,2.86,2.74c0.49,0.38,1.34,0.44,1.61,1.15c1.02,0.4,2.04,0.81,3.06,1.21c0.73,0.46,1.46,0.92,2.19,1.38    c0.53,0.23,1.07,0.47,1.6,0.7c0.72,0.16,1.43,0.33,2.15,0.49c1.16-0.15,2.32-0.3,3.47-0.46c0.45-0.58,1.03-1.06,1.63-1.35    c0.19,0.23,0.81,0.16,1.05,0.05c0.66-0.38,1.33-0.77,1.99-1.15c1-0.24,2-0.47,3-0.7c0.85-0.38,1.7-0.77,2.55-1.15    c0.54-0.6,1.07-1.21,1.61-1.81c0.31-0.35,0.79-0.31,0.94-0.82c1.26-0.31,2.52-0.61,3.78-0.92c1.57-0.37,3.1-0.42,4.69-0.56    c0.94-0.43,1.88-0.87,2.82-1.3c0.94-0.33,1.88-0.67,2.83-1c0.26-0.01,0.53-0.02,0.79-0.03c0.41-0.1,0.82-0.2,1.23-0.3    c0.49,0.06,0.98,0.11,1.47,0.17c0.42,0.01,1.21,0.16,1.41-0.08c0.27-0.36,0.64-0.93,1.02-1.07c0.49-1.31,0.99-2.63,1.48-3.95    c0.58-0.98,1.17-1.96,1.75-2.94c1.26-2.6,2.51-5.21,3.77-7.81c0.58-1.73,1.16-3.46,1.74-5.19c0.25-1.08,0.26-2.15,0.68-3.2    c0.49-0.8,0.98-1.6,1.47-2.39c0.21-0.45,0.43-0.9,0.64-1.35c0.87-1.6,1.62-3.13,2.72-4.41c0.36-0.42,1.05-2.05,1.48-1.97    c0.58-1.37,1.17-2.74,1.75-4.11c0.27-0.33,0.54-0.66,0.81-0.99c1.26-2.44,2.93-4.4,4.03-6.91c0.24-1.09,0.49-2.18,0.74-3.27    c0.04-0.29,0.1-1.17,0.32-0.82c1.09,1.79,2.05,3.73,2.84,5.74c0.31,0.43,0.63,0.87,0.95,1.3c0.66,0.83,1.33,1.67,1.99,2.5    c0.68,0.71,1.36,1.41,2.04,2.12c0.85,1.11,2.84,2.17,4.03,2.63c0.38,0.25,0.76,0.5,1.14,0.75c1.51,0.7,2.83,2.02,3.96,3.36    c1.07,1.26,1.18,3.25,1.43,4.89c0.47,3.01,1.1,6.69,2.99,8.76c0.45,0.55,0.9,1.09,1.34,1.64c0.25,0.3,0.92,0.97,1.23,0.98    c0.18,0.33,0.36,0.66,0.54,0.99c1.66,1.86,3.32,3.73,4.97,5.59c1.25,0.99,2.51,1.97,3.76,2.96c0.62,0.44,1.27,0.65,1.61,1.48    c-0.65,2.6-0.21,4.7,0.54,7.23c0.04,0.49,0.09,0.99,0.13,1.48c0.31,1.1,0.63,2.19,0.94,3.29c0.04,0.88,0.09,1.75,0.13,2.63    c0.13,0.71,0.27,1.42,0.4,2.14c0.03,0.81-0.07,1.74,0.27,2.47c0.19,1.81,0.38,3.61,0.57,5.42c0.03,0.77,0.07,1.54,0.1,2.31    c-0.12,1.16-0.28,2.53-1.34,2.96c-0.13,0.44-0.27,0.88-0.4,1.32c0,1.31,0,2.63,0,3.95c-0.49,1.29-0.39,2.89-0.27,4.27    c0,1.1,0,2.19,0,3.29c-0.31,1.32-0.63,2.63-0.94,3.95c-0.13,0.27-0.27,0.55-0.4,0.82c-0.7,0.86-1.41,1.7-2.3,2.26    c-0.57,0.26-1.13,0.52-1.7,0.78c-1.28,1-2.55,1.99-3.83,2.99c-0.62,0.46-1.23,0.91-1.85,1.37c-1.16,0.42-3.55,1.32-4.36,2.33    c-1.46,2.68-2.92,5.35-4.37,8.03c-0.08,3.06,0.82,6.03,0.7,9.03c-0.02,0.43-0.04,1.02-0.29,1.33c-0.09,0.38-0.18,0.77-0.27,1.15    c-0.14,0.76-0.27,1.53-0.41,2.29c-0.19,0.66-0.37,1.32-0.56,1.98c-0.25,1.74-0.57,3.15-1.31,4.63c-0.22,0.44-0.56,1.31-0.95,1.46    c-0.19,0.88-0.06,1.31-0.25,2.19c0.1,0.1-0.12,0.66-0.02,0.77c-0.1,0.11-0.2,0.21-0.31,0.32c-0.3,0.28-0.6,0.55-0.9,0.83    c-1.22,0.44-2.43,0.87-3.65,1.31c-0.69,0.13-2.66,0.52-3.07,1.16c-1.03,0-1.92,0.25-2.92,0.42c-0.62-0.34-1.78,0.15-2.4,0.4    c-1.32,0.46-2.64,0.91-3.96,1.37c-0.48,0.43-0.97,0.86-1.45,1.28c-0.46-0.05-1.45,1.18-1.84,1.56c-1.16,1.12-2.29,1.89-3.69,2.37    c-1.43-0.06-2.87-0.12-4.3-0.18c-0.57-0.05-1.12,0.08-1.61-0.31c-1.16-0.01-2.33-0.02-3.49-0.04c-0.99-0.04-1.97-0.08-2.96-0.12    c-0.44-0.01-0.32-0.41-0.81-0.17c-0.13-0.39-0.33-0.74-0.27-1.15c-1.33-1.97-3.04-2.94-4.76-4.24c-0.47-0.34-0.95-0.68-1.42-1.02    c-0.23-0.25-0.46-0.51-0.7-0.76c-0.95-0.58-3.13-0.88-4.01-0.06c-0.94-0.44-1.88-0.88-2.82-1.32c-1.75-1.64-3.49-3.29-5.24-4.93    c-0.84-0.84-1.02-1.92-1.42-3.07c-0.13-0.39-0.18-1-0.47-1.21c0.01-0.95,0.02-1.9,0.03-2.85c-0.38-0.61-0.37-1.81-0.44-2.57    c-0.19-2.06-1.61-3.11-2.58-4.55c-0.14-0.63-1.29-2.09-1.72-2.19c-0.45-0.33-0.9-0.66-1.34-0.99c-0.59-0.29-1.19-0.58-1.78-0.87    c-1.07-0.89-2.02-1.85-3.34-2.16c-3.6-0.85-7.39-0.71-11.01-0.09c-0.88-0.49-1.7-0.59-2.6-0.88c-0.36-0.16-0.73-0.31-1.09-0.47    c-0.6-0.44-1.2-0.88-1.8-1.32c-0.51-0.43-2.13-2.01-2.7-1.93c-0.99-0.93-1.97-1.86-2.96-2.8c-0.87-1.39-1.74-2.78-2.6-4.18    c-0.3-0.31-0.59-0.61-0.89-0.92c-0.8-1.15-1.6-2.31-2.41-3.46c-0.52-0.66-1.28-1.72-1.49-2.62c-1.46-1.53-2.57-3.23-3.86-4.99    c-0.81-1.14-1.63-2.27-2.44-3.41c-0.31-0.65-1.4-2.13-1.35-2.78c-0.43-0.76-1.26-1.71-1.21-2.6c-0.05-0.12-0.09-0.24-0.14-0.36    c0.52-0.8,0.88-1.57,1.34-2.47c0.13-0.38,0.27-0.77,0.4-1.15c-0.04-1.46-0.12-3.08,0.4-4.44c0.66-1.72,1.72-3.16,2.28-4.93    c0.5-1.58,0.09-3.47,0.81-4.93L119.74,154.02z"/>
            <circle cx="180.64" cy="187.67" r="1.586"/>
        </g>
        <g id="__Saruhanlı">
            <path d="    M185.01,238.79c-0.13-0.39-0.33-0.74-0.27-1.15c-1.33-1.97-3.04-2.94-4.76-4.24c-0.47-0.34-0.95-0.68-1.42-1.02    c-0.23-0.25-0.46-0.51-0.7-0.76c-0.95-0.58-3.13-0.88-4.01-0.06c-0.94-0.44-1.88-0.88-2.82-1.32c-1.75-1.64-3.49-3.29-5.24-4.93    c-0.84-0.84-1.02-1.92-1.42-3.07c-0.13-0.39-0.18-1-0.47-1.21c0.01-0.95,0.02-1.9,0.03-2.85c-0.38-0.61-0.37-1.81-0.44-2.57    c-0.19-2.06-1.61-3.11-2.58-4.55c-0.14-0.63-1.29-2.09-1.72-2.19c-0.45-0.33-0.9-0.66-1.34-0.99c-0.59-0.29-1.19-0.58-1.78-0.87    c-1.07-0.89-2.02-1.85-3.34-2.16c-3.6-0.85-7.39-0.71-11.01-0.09c-0.88-0.49-1.7-0.59-2.6-0.88c-0.36-0.16-0.73-0.31-1.09-0.47    c-0.6-0.44-1.2-0.88-1.8-1.32c-0.51-0.43-2.13-2.01-2.7-1.93c-0.99-0.93-1.97-1.86-2.96-2.8c-0.87-1.39-1.74-2.78-2.6-4.18    c-0.3-0.31-0.59-0.61-0.89-0.92c-0.8-1.15-1.6-2.31-2.41-3.46c-0.52-0.66-1.28-1.72-1.49-2.62c-1.46-1.53-2.57-3.23-3.86-4.99    c-0.81-1.14-1.63-2.27-2.44-3.41c-0.31-0.65-1.4-2.13-1.35-2.78c-0.43-0.76-1.55-2.18-1.55-2.18c-0.27,0.17-0.97,0.67-1.28,0.87    c-0.49,0.6-0.99,1.21-1.48,1.81c-1.28,2.39-0.98,4.74-3.02,6.41c-0.17,0.22-2.39,2.41-2.55,2.63c-1,1.07-0.59,0.15-1.95,0    c-0.66,0.13-1.33,0.26-2,0.39c-0.31,0.18-1.05,1.36-1.3,1.14l-0.21,0.09c0,1.39,0.4,2.59,1.01,3.75c-0.08,0.31,0.2,0.9,0.48,0.87    c0.7,2.57,1.65,5.19,2.96,7.4c0.27,0.46,0.63,2.91,0.94,2.96c0.5,3.67,0.56,7.37,1.34,11.01c0.26,1.23,1.06,2,1.53,3.07    c0.25,0.35,0.5,0.7,0.75,1.04c0.81,1.64,1.61,3.29,2.42,4.93c0.14,0.61,0.28,1.21,0.42,1.82c0.21,0.61,0.42,1.21,0.63,1.82    c0.44,1.47,0.77,3.15,0.97,4.75c0.55,1.44,1.1,2.89,1.65,4.33c0.12,0.42,0.25,0.84,0.37,1.26c0.63,1.42,1.25,2.85,1.88,4.27    c0.57,1.1,1.14,2.21,1.71,3.31c0.37,1.69,0.74,3.38,1.11,5.08c0.25,1.29,1.84,2.28,2.34,3.4c1.01,2.16,2.02,4.31,3.03,6.47    c0.21,0.76,1.02,1.05,0.94,1.97c0.67,0.55,1.34,1.1,2.02,1.64c0.27,0.33,0.54,0.66,0.81,0.99c0.48,0.42,0.69,1.34,0.94,1.97    c0.35,1.13,0.71,2.25,1.06,3.38c0.17,0.94,0.34,1.88,0.51,2.82c0.19,0.68,0.39,1.35,0.58,2.03c0.09,0.81,0.7,1.38,0.67,2.3    c0.45,0.99,1.07,2.04,1.79,2.72c0.39,0.24,0.78,0.49,1.16,0.73c0.62,0,1.23,0,1.82,0.3c0.15,0.07,1.79,0.69,1.83,1.01    c0.15,1.13-0.06,2.17-0.02,3.29c0.09,0.55,0.18,1.1,0.27,1.64c0,0.44,0,0.88,0,1.32c-0.04,0.66-0.09,1.32-0.13,1.97    c-0.05,0.87,0.12,1.81,0.12,1.81c1.71-1.97,3.41-3.95,5.12-5.92c0.58-0.71,1.17-1.42,1.75-2.14c1.14-0.89,2.44-1.68,3.77-2.08    c0.37-0.64,2.93-1.78,3.63-1.78c1.81-1.28,3.92-1.35,5.91-1.24c0.81-0.11,1.61-0.22,2.42-0.33c0.49,0.11,0.98,0.23,1.47,0.34    c0.84,0.05,1.8-0.35,2.57,0.32c0.72,0.11,1.43,0.23,2.15,0.34c0.36,0.01,0.85-0.06,1.08,0.31c0.74-0.12,2.56-0.34,2.93,0.17    l0.16-0.43c0.8-0.24,1.47-0.17,2.28,0.09c0.54,0,1.08,0,1.61,0c0.8,0.13,1.61,0.26,2.41,0.39c0.59,0.09,1.17,0.18,1.76,0.27    c2.04,1.55,3.38,3.34,5.78,3.95c0.6-0.25,1.5-0.76,2.15-0.49c0.68-0.37,2.44-1.33,3.09-0.82c0.51,0.05,1.02,0.09,1.52,0.14    l-0.1-0.41c-0.09-0.4-0.18-0.8-0.26-1.2c-0.21-1.15-0.41-2.31-0.62-3.46c-0.53-0.65-0.42-2.58-0.67-3.45    c-0.46-1.61-1.13-2.9-1.79-4.41c-0.35-0.78-0.69-1.55-1.04-2.33c-1.39-1.83-2.99-3.59-4.84-4.77c-1.39-1.64-2.78-3.29-4.17-4.93    c-0.22-0.44-0.45-0.88-0.67-1.32c-0.24-0.7-0.48-1.4-0.72-2.11c-0.98-2.15-1.5-2.59-1.56-5.13c0.13-0.38,0.27-0.77,0.4-1.15    c0.49-0.77,0.99-1.53,1.48-2.3c0.99-0.71,1.97-1.42,2.96-2.14c0.76-0.71,1.52-1.42,2.28-2.14c0.27-0.16,0.54-0.33,0.81-0.49    L185.01,238.79z"/>
            <circle cx="129.83" cy="246.03" r="1.586"/>
        </g>
        <g id="__Turgutlu">
            <path d="    M137.52,315.73c-0.03-0.77-0.06-1.82,0.06-2.61c0.49-3.07-0.07-5.6-0.26-8.6c-0.23-1.53-0.47-3.05-0.7-4.58c0-0.38,0-0.77,0-1.15    c0.3-0.3,0.29-0.71,0.4-1.15c0.4-0.14,0.61-0.97,0.84-1.39c0.73-1.38,1.33-2.67,1.85-4.2c-0.21-0.44,0.04-1.15,0.11-1.65    l0.28-0.81c1.71-1.97,3.41-3.95,5.12-5.92c0.58-0.71,1.17-1.42,1.75-2.14c1.14-0.89,2.44-1.68,3.77-2.08    c0.37-0.64,2.93-1.78,3.63-1.78c1.81-1.28,3.92-1.35,5.91-1.24c0.81-0.11,1.61-0.22,2.42-0.33c0.49,0.11,0.98,0.23,1.47,0.34    c0.84,0.05,1.8-0.35,2.57,0.32c0.72,0.11,1.43,0.23,2.15,0.34c0.36,0.01,0.85-0.06,1.08,0.31c0.74-0.12,2.56-0.34,2.93,0.17    c0.39,0.56,0.79,1.11,1.18,1.67c0.49,0.83,0.81,1.7,1.39,2.42c0.3,0.89,0.6,1.78,0.9,2.67c0.43,1.18,0.86,2.35,1.3,3.52    c0.16,0.4,0.33,0.8,0.49,1.21c0.03,0.37,0.06,0.74,0.08,1.1c0.38,1.06,0.75,2.11,1.13,3.17c0.18,0.44,0.36,0.88,0.54,1.32    c0.39,0.62,0.77,1.23,1.16,1.85c0.46,0.83,0.77,2.56,1.8,2.75c0.28,0.42,0.76,1.45,1.21,1.48c0.36,0.38,0.72,0.77,1.08,1.15    c0.49,1.31,1.06,2.82,1.21,4.27c0,0.82,0,1.64,0,2.47c-0.24,1.27-0.47,2.54-0.71,3.81c-0.03,0.76-0.06,1.52-0.1,2.28    c-0.2,0.53-0.4,1.05-0.6,1.58c0.24,0.82-0.46,2.04-0.6,2.86c-0.04,0.33-0.09,0.66-0.13,0.99c0.66,2.2,1.12,4.56,0.94,6.9    c-0.05,0.65,0.29,0.96,0.21,1.61c-0.11,1.33-0.23,2.65-0.34,3.98c-0.22,0.71-0.45,1.42-0.67,2.14c-0.14,0.48-0.08,1.27,0.26,1.5    c0.72,0.65,1.44,1.3,2.16,1.95c0.21,0.63,0.7,1.15,1.08,1.64c0.8,0.93,1.6,1.87,2.41,2.81c0.41,0.58,1.48,2.13,1.09,2.95    c0.26,0.89,1.31,2.83,1.01,3.47c-0.16,0.31-0.15,0.15-0.07,0.64c-0.13,0.27-0.27,0.55-0.4,0.82c-0.67,0.93-1.34,1.86-2.02,2.79    c-0.33,0.47-1.36,1.12-1.34,1.8c0.04,1.66,0.43,3.07,1.07,4.45c0.29,1.58,0.59,3.17,0.88,4.75c0.51,0.49,0.58,3.44,0.61,4.29    c0.2,1.03,0.41,2.05,0.61,3.08c-0.16,0.39-0.31,0.39-0.22,0.87c-0.19,0.14-0.38,0.27-0.56,0.41c-0.62,0.25-1.24,0.5-1.86,0.74    c-1.71-0.41-3.54-0.8-5.11-1.64c-0.63-0.27-1.25-0.55-1.88-0.82c-0.45-0.11-0.9-0.22-1.34-0.33c-1.38-0.76-2.95-0.77-4.41-1.08    c-2.49-0.53-4.99-0.9-7.42-1.71c-1.03-0.55-2.06-1.1-3.09-1.64c-0.9-0.44-1.78-2.05-2.55-2.3c-0.31-0.66-0.63-1.32-0.94-1.97    c-0.22-0.59-0.83-2.03-1.34-1.93c-0.76,0.2-1.53,0.41-2.29,0.61c-0.61-0.41-1.31-0.47-1.67-1.23c-0.21-0.45-0.4-0.44-0.38-1.01    c-0.04-0.13-0.07-0.26-0.11-0.39c0.29-0.92,0.8-1.87,0.83-2.95c0.01-0.44,0.06-1.25,0.38-1.49c-0.22-1.37-0.23-3.56-1.08-4.6    c-0.08-0.63,0.1-1.73-0.4-2.14c0.1-0.63,0.1-1.73,0.54-2.14c0-0.65-0.05-2.42-0.4-2.8c0.09-0.34,0.38-0.79,0.2-1.11    c-0.16-0.29-0.23-0.31-0.2-0.69c-0.95,0-1.11-1.34-1.88-1.64c-0.22-0.82-0.45-1.64-0.67-2.47c-0.17-0.7-0.01-1.41-0.27-2.14    c-0.34-0.36-0.67-0.72-1.01-1.08c-0.41-0.5-0.83-0.92-1.41-1.06c-0.31-0.27-0.63-0.55-0.94-0.82c-0.54-0.42-0.99-1.43-1.61-1.64    c-0.54-0.88-1.08-1.75-1.61-2.63c-0.29-0.46,0.03-0.79-0.46-0.97c-0.51-0.13-1.49,0.39-1.94-0.37c-0.36-0.66-1.72-3.03-2.31-3.27    c-0.17-0.35-0.25-0.98-0.54-1.15c0.09-0.63,0.03-1.56,0.54-1.81c-0.12-0.13-0.24-0.25-0.36-0.38c-0.8-0.8-1.59-1.59-2.39-2.39    c-0.36-0.03-1.25-0.44-1.45-0.77L137.52,315.73z"/>
            <circle cx="155.77" cy="317.05" r="1.586"/>
        </g>
        <g id="__Ahmetli">
            <path d="    M199.12,347.79c-0.26-0.32-0.13-1.19-0.17-1.65c-0.17-0.67-0.34-1.34-0.51-2.01c0.05-0.64,0.1-1.28,0.14-1.93    c-0.39-1.09,0.55-4.33,0.67-5.59c0.09-0.92-0.12-1.82,0.17-2.71c0.27-0.83,0.93-1.21,1.04-2.22c0.11-1.01-0.21-1.7-0.27-2.63    c0.04-0.88,0.09-1.75,0.13-2.63c0.22-0.71,0.45-1.42,0.67-2.14c0.65-0.79,1.77-1.65,2.69-1.81c0.47-0.08,0.95-0.16,1.42-0.24    c1.03-0.41,1.12-0.84,2.34-0.74c0.31-0.16,0.63-0.33,0.94-0.49c0.57-0.62,0.92-1.12,1.34-1.81c0.48-0.58,0.29-2.25,0.02-2.92    c0.2-1.16-0.53-1.63-1.09-2.51c-0.22-0.6-0.45-1.21-0.67-1.81c-0.27-0.44-0.53-0.88-0.8-1.33c-0.45-1.26-0.9-2.51-1.35-3.77    c-0.45-2.42,0.94-4.42,0.94-6.74c0.15-0.34,0.31-0.67,0.46-1.01c0.26-1.62-0.11-4.03,0.88-5.24c0-0.72-0.35-2.04,0.13-2.63    c-0.18-1.1-0.36-2.19-0.54-3.29l-0.46-0.08c-0.25-0.26-1.05,0.51-1.32,0.67c-1.18,0.72-2.43,1.21-3.73,1.55    c-0.99-0.44-1.97-0.88-2.96-1.31c-0.54-0.55-1.08-1.1-1.61-1.64c-0.07-0.65-0.82-1.34-1.17-1.86c-0.57-0.89-1.13-1.78-1.7-2.67    c-0.12-0.02-0.24-0.05-0.36-0.07c-0.25-0.61-0.51-1.22-0.76-1.83c-0.51-0.05-1.02-0.09-1.52-0.14c-0.65-0.5-2.42,0.45-3.09,0.82    c-0.65-0.26-1.55,0.24-2.15,0.49c-2.4-0.6-3.74-2.4-5.78-3.95c-0.59-0.09-1.17-0.18-1.76-0.27c-0.8-0.13-1.61-0.26-2.41-0.39    c-0.54,0-1.08,0-1.61,0c-0.82-0.26-1.48-0.33-2.28-0.09c-0.09,0.03-0.18,0.06-0.27,0.09l0.11,0.34c0.39,0.56,0.79,1.11,1.18,1.67    c0.49,0.83,0.81,1.7,1.39,2.42c0.3,0.89,0.6,1.78,0.9,2.67c0.43,1.18,0.86,2.35,1.3,3.52c0.16,0.4,0.33,0.8,0.49,1.21    c0.03,0.37,0.06,0.74,0.08,1.1c0.38,1.06,0.75,2.11,1.13,3.17c0.18,0.44,0.36,0.88,0.54,1.32c0.39,0.62,0.77,1.23,1.16,1.85    c0.46,0.83,0.77,2.56,1.8,2.75c0.28,0.42,0.76,1.45,1.21,1.48c0.36,0.38,0.72,0.77,1.08,1.15c0.49,1.31,1.06,2.82,1.21,4.27    c0,0.82,0,1.64,0,2.47c-0.24,1.27-0.47,2.54-0.71,3.81c-0.03,0.76-0.06,1.52-0.1,2.28c-0.2,0.53-0.4,1.05-0.6,1.58    c0.24,0.82-0.46,2.04-0.6,2.86c-0.04,0.33-0.09,0.66-0.13,0.99c0.66,2.2,1.12,4.56,0.94,6.9c-0.05,0.65,0.29,0.96,0.21,1.61    c-0.11,1.33-0.23,2.65-0.34,3.98c-0.22,0.71-0.45,1.42-0.67,2.14c-0.14,0.48-0.08,1.27,0.26,1.5c0.72,0.65,1.44,1.3,2.16,1.95    c0.21,0.63,0.7,1.15,1.08,1.64c0.8,0.93,1.6,1.87,2.41,2.81c0.41,0.58,1.48,2.13,1.09,2.95c0.26,0.89,1.31,2.83,1.01,3.47    l0.57-0.28c0.33-0.35,0.65-0.71,0.98-1.06c0.81-0.33,1.61-0.66,2.42-0.99c0.22-0.06,0.45-0.11,0.67-0.16    c0.2,0.39,1.2,0.6,1.61,0.82L199.12,347.79z"/>
            <circle cx="199.99" cy="312.12" r="1.586"/>
        </g>
        <g id="__Salihli">
            <path d="    M199.12,347.79c-0.26-0.32-0.13-1.19-0.17-1.65c-0.17-0.67-0.34-1.34-0.51-2.01c0.05-0.64,0.1-1.28,0.14-1.93    c-0.39-1.09,0.55-4.33,0.67-5.59c0.09-0.92-0.12-1.82,0.17-2.71c0.27-0.83,0.93-1.21,1.04-2.22c0.11-1.01-0.21-1.7-0.27-2.63    c0.04-0.88,0.09-1.75,0.13-2.63c0.22-0.71,0.45-1.42,0.67-2.14c0.65-0.79,1.77-1.65,2.69-1.81c0.47-0.08,0.95-0.16,1.42-0.24    c1.03-0.41,1.12-0.84,2.34-0.74c0.31-0.16,0.63-0.33,0.94-0.49c0.57-0.62,0.92-1.12,1.34-1.81c0.48-0.58,0.29-2.25,0.02-2.92    c0.2-1.16-0.53-1.63-1.09-2.51c-0.22-0.6-0.45-1.21-0.67-1.81c-0.27-0.44-0.53-0.88-0.8-1.33c-0.45-1.26-0.9-2.51-1.35-3.77    c-0.45-2.42,0.94-4.42,0.94-6.74c0.15-0.34,0.31-0.67,0.46-1.01c0.26-1.62-0.11-4.03,0.88-5.24c0-0.72-0.35-2.04,0.13-2.63    c-0.18-1.1-0.36-2.19-0.54-3.29l0.4-0.16c0.51-0.15,1.73,0.61,2.55,0.49c0.36-0.05,0.49-0.08,0.81-0.33    c0.28,0.18,0.54,0.22,0.85,0.12c0.39-0.2,0.78-0.41,1.17-0.61c0.42-0.51,0.56-1.06,1.21-1.15c1.25-0.18,1.94-0.09,3.1,0.44    c0.31,0.13,0.62,0.26,0.93,0.39c0.36,0.06,0.72,0.11,1.08,0.16c0.27,0.22,0.54,0.44,0.81,0.66c1-0.54,1.6,1.11,2.02,1.81    c0.34,0,0.44-0.2,0.67-0.49c0.68,0,2.07-1.34,2.28-2.14c0.09-0.27,0.18-0.55,0.27-0.82c0.18-0.38,0.36-0.77,0.54-1.15    c1.32-1.83,2.64-3.65,3.96-5.48c0.22-0.35,0-0.68-0.2-0.93c0-0.7-0.91-1.93-1.21-2.47c-0.04-0.2-0.09-0.4-0.13-0.6    c-0.5-1.06-1.48-1.04-2.42-1.04c-0.37-0.36-0.75-0.71-1.12-1.07c-0.64-0.17-0.39,0.44-0.76,0.9c-0.22,0.03-0.44,0.06-0.66,0.1    c-0.1-0.03-0.19-0.07-0.29-0.1l0.67-3.12c0.36-1.04,0.72-2.08,1.08-3.12c1.43-2.98,1.24-7.26,1.61-10.69    c-0.18-0.27-0.13-0.49-0.13-0.82c0.13-0.27,0.27-0.55,0.4-0.82c0.22-0.11,0.45-0.22,0.67-0.33c0.18-0.22,0.18-0.72,0.23-1.07    c0.3-1.99-0.93-3.13,0.11-5.15c0.43-0.78,2.86-1.25,3.71-1.53c1.16-0.37,1.77-2.07,2.26-3.26c0.16-0.39-0.07-0.98-0.15-1.48    c-0.28-1.75-1.86-2.81-1.86-4.77c-0.31-0.38,1.36-1.47,1.74-1.48c0.81-0.03,3.07,0.14,3.63,0.83c0.99,0,1.97,0,2.96,0    c0.94-0.38,1.88-0.75,2.83-1.13c0.98-0.06,1.97-0.11,2.95-0.17c0.49,0.16,0.99,0.32,1.48,0.47c1.08-0.22,2.15-0.44,3.23-0.66    c0.21,0.26,0.77,0.21,1.07,0.16c0.32-0.06,0.65-0.12,0.97-0.17c0.53,0.28,1.06,0.56,1.58,0.83c0.49,0.16,0.99,0.33,1.48,0.49    c0.67,0.38,1.34,0.77,2.02,1.15c0.61,0.5,1.12,0.94,1.72,1.37c0.33,0.24-0.09,0.62,0.11,1.01c0.46,0.58,0.93,1.16,1.39,1.74    c0.9,0.68,2.42,1.43,3.44,1.66c0.56,0.21,1.11,0.42,1.67,0.64c0.99,0.77,1.97,1.53,2.96,2.3c0.49,0.66,0.99,1.32,1.48,1.97    c-0.12,0.89,1.54,3.53,2.02,4.11c0.27,1.15,0.54,2.3,0.81,3.45c0.22,0.55,0.45,1.1,0.67,1.64c0.13,1.59,0.27,3.18,0.4,4.77    c0.23,0.6,0.47,1.2,0.71,1.79c0.88,1.27,1.77,2.53,2.65,3.8c0.89,1,1.95,1.24,2.82,2.3c0.24,0.29,0.99,0.84,1.08,1.15l-0.1-0.1    c-0.14,0.13-0.22,0.08-0.58,0.27c-0.31-0.38-1.88,0.13-1.92,0.53c0,0.33,0.06,0.25-0.23,0.45c0.37,0.69,0.7,1.27,0.13,1.97    c-0.31,0.11-0.63,0.22-0.94,0.33c-0.31,0.38-0.63,0.92-1.08,0.99c-0.11,0.18-0.53,0.8-0.28,0.84c0.67,0.16,1.35,0.32,2.02,0.47    c-0.27,0.25-1.11,0.39-1.28,0.74c-0.21,0.47-0.26,1.55-0.6,1.57c-0.23,0-0.45-0.01-0.68-0.01c0-0.42-0.35-0.43-0.54-0.66    c-0.02-0.18-0.2-2.22-0.49-1.45c-0.22,0.53-0.19,1.03-0.19,1.61c-0.39,0.42-0.78,0.99-1.34,0.99c-0.15,0.34-0.37,0.56-0.22,0.96    c0.18,0.45,0.08,0.6,0.49,0.85c0.36,0.21,1.49,1.3,1.75,0.99c1.02,0,1.71-1.4,2.49-1.85c0.43,0.05,0.86,0.09,1.29,0.14    c0.53-1.76,0.67-2.24,2.13-3.06c-0.19-0.69-0.37-0.4,0.08-1.06c0.41-0.34,0.82-0.68,1.22-1.02c0.23-0.31-0.41-0.24-0.13-0.46    c0.37-0.36,0.75-0.72,1.12-1.08c0.8-0.52,1.61-1.03,1.61-2.3c1.27-0.83,2.22-2.1,3.36-3.29c-0.04-0.22-0.09-0.44-0.13-0.66    c0.46-0.47,1.46-2.03,1.88-2.14c0.27-0.6,0.54-1.21,0.81-1.81c0.09-0.38,0.18-0.77,0.27-1.15c-0.09-0.22-0.18-0.44-0.27-0.66    c-0.22,0-0.72-0.21-0.61-0.49c0.16-0.39,0.32-0.77,0.48-1.16c-0.16-1.45-0.18-3.11,1.32-3.07c0.27,0.01,1.04-0.02,1.15,0.25    c0.12,0.28,0.24,0.57,0.35,0.85c0.03,0.35,0.05,0.7,0.08,1.05c0.15,0.13,0.42,0.46,0.56,0.36c0.58-0.38,1.62-1.48,2.32-1.25    c1.9,0.63,3.2,2.43,5.04,0.66c0.23-0.24-0.16-0.99,0.2-0.99c0.56-0.36,1.55-0.58,2.22-1.89l0.42-0.33    c-0.59,0.96-0.47,1.61-0.7,2.79c-0.36,1.82-0.71,3.64-1.07,5.46c-0.65,1.77-1.29,3.54-1.94,5.31c-0.13,1.08-0.46,2.64-1.08,3.45    c-0.09,0.38-0.18,0.77-0.27,1.15c0.13,1.68,0.51,2.92,1.34,4.27c0.27,0.6,0.54,1.21,0.81,1.81c0.09,0.6,0.18,1.21,0.27,1.81    c-0.17,0.69-0.54,2.28,0,2.79c-0.41,2.9-0.81,5.81-1.22,8.71c-0.17,0.93-0.77,2.81-0.38,3.6l-0.35,0.09    c-0.56,0.66-2.04,2.55-1.95,3.55c-0.13,0.27-0.27,0.55-0.4,0.82c-0.53,0.61-1.76,2.05-1.75,2.96c-0.59,0.88-1.46,1.98-0.81,3.12    c-0.92,1.34-1.84,2.68-2.76,4.02c-0.65,1.02-1.3,2.03-1.94,3.05c-0.6,0.57-1.21,1.13-1.81,1.7c-0.29,0.31-0.59,0.62-0.88,0.93    c-1.21,3.3,0.16,7.97-2.47,10.45c-0.42,0.42-0.65,0.38-1.16,0.24c-0.64,0.39-1.28,0.77-1.92,1.16c-0.67,0.54-1.38,1-1.63,0.85    c-0.73,1.08-1.89,1.39-2.91,1.93c-0.76,0.66-1.52,1.32-2.28,1.97c-0.5,0.27-0.99,0.54-1.49,0.82c-0.41,0.4-1.79,2.08-1.74,2.64    c-1.74,2.93-2.5,6.4-3.9,9.54c-0.67,0.99-1.34,1.98-2.01,2.96c-0.3,0.38-0.47,0.91-0.95,0.98c-0.37,0.7-0.75,1.4-1.12,2.11    c-0.21,0.4-1.01,2.13-0.89,2.5c-0.46,0.77-0.99,1.33-1.08,2.3c-0.36,1.75-0.72,3.51-1.08,5.26c-0.54,1.17-0.78,2.27-0.6,3.58    c-0.24,0.68,0.07,2.83,0.63,2.96l-0.03,0.2c-0.3,0.25-0.72,0.07-1.08,0.03c-0.94-0.12-1.88-0.24-2.82-0.35    c-0.9-0.28-1.79-0.56-2.69-0.84c-0.54-0.27-1.08-0.53-1.61-0.8c-1.28-0.29-3.47-1.52-4.56-2.35c-2.07-1.57-4.22-2.81-6.46-3.89    c-0.99-0.33-1.97-0.66-2.96-0.99c-0.49-0.6-0.99-1.21-1.48-1.81c-0.18,0-0.36,0-0.54,0c-0.18-0.27-0.36-0.55-0.54-0.82    c-0.18-0.11-0.36-0.22-0.54-0.33c-1.14-1.16-1.68-2.9-2.28-4.44c0-0.27,0-0.55,0-0.82c-0.08-0.4-0.16-0.8-0.24-1.2    c-0.1-0.59-0.2-1.18-0.3-1.76c-0.59-1.08-1.13-1.99-2.02-2.8c-0.49-0.33-0.99-0.66-1.48-0.99c-0.76-0.22-1.53-0.44-2.29-0.65    c-1.44-0.44-3.37-0.96-4.83-0.5c-1.48,0.49-2.96,0.99-4.44,1.48c-0.18,0.05-0.36,0.11-0.54,0.16c-0.31,0-0.63,0-0.94,0    c-1.19,0.52-2.38,1.03-3.57,1.55c-0.6,0.52-1.2,1.05-1.8,1.57c-0.81,0.44-1.61,0.88-2.42,1.32c-1.49,0-3,0.33-4.56-0.09    c-0.59-0.16-0.82-0.64-1.35-0.9c-0.27-0.11-0.54-0.22-0.81-0.33c-0.49-0.38-0.99-0.77-1.48-1.15c-0.2-0.34-0.75-0.82-1.07-0.82    C199.75,348.34,199.43,348.07,199.12,347.79z"/>
            <circle cx="240.18" cy="321.65" r="1.586"/>
        </g>
        <g id="__Alaşehir">
            <path d="    M362.35,353.71c-2.12,0.14-4.8-0.14-6.8,0.45c-1.19,0.34-2.53-1.5-3.47-2.47c-1.65-1.71-2.76-3.74-3.64-6.2    c-1.04-0.62-1.46-2.47-2.02-3.62c-0.37-0.12-0.41-0.34-0.67-0.66c-0.35,0.03-0.35-0.06-0.58-0.29c-0.69-0.64-2.02-0.3-2.78,0.12    c-0.42-0.32-1.87-0.03-2.43,0.05c-0.53,0.04-1.07,0.08-1.6,0.12c-0.45,0.16-0.9,0.33-1.34,0.49c-0.32-0.06-0.64-0.11-0.96-0.17    c-0.69,0.03-1.02-1.68-1.05-2.3c-0.22-0.38-0.45-0.77-0.67-1.15c-0.38-1.02-0.05-2.52-0.54-3.78c-0.58-0.66-1.16-1.32-1.75-1.97    c-0.9-0.43-1.8-0.86-2.7-1.28c-1.36-0.54-3.27-0.87-4.69-0.69c-0.68-0.21-1.36-0.42-2.04-0.63c-1.04-0.48-2.12-0.38-3.2-0.6    c-0.54-0.11-2.13-0.36-2.4-0.55c-0.63-0.45-1.32-0.84-2.05-0.85c-0.95-0.02-1.74-0.38-2.69-0.49c-0.27-0.16-0.54-0.33-0.81-0.49    c-0.54-0.05-1.08-0.11-1.61-0.16c-0.91-0.39-1.81-0.78-2.72-1.17c-1.45-0.36-2.75,0.1-4.15-0.32c-0.64-0.24-0.91-1.24-1.16-1.99    c-0.35-1.11,0.78-3.84,1.29-4.75c0.5-1.04,1-2.08,1.5-3.11c1.03-1.31,2.06-2.63,3.09-3.95c0-0.46,0.36-0.86,0.61-1.14    c0.56-0.64,1.36-3.08,1.54-3.3c-0.21-1.49-0.84-2.38-1.92-3.04c-0.26-0.14-0.51-0.28-0.76-0.42c-0.52-0.37-1.99-1.17-2.23-0.97    c-0.66-0.84-1.6-1-2.47-1.99c-0.61-0.78-1.01-1.04-1.46-1.99l-0.35,0.09c-0.56,0.66-2.04,2.55-1.95,3.55    c-0.13,0.27-0.27,0.55-0.4,0.82c-0.53,0.61-1.76,2.05-1.75,2.96c-0.59,0.88-1.46,1.98-0.81,3.12c-0.92,1.34-1.84,2.68-2.76,4.02    c-0.65,1.02-1.3,2.03-1.94,3.05c-0.6,0.57-1.21,1.13-1.81,1.7c-0.29,0.31-0.59,0.62-0.88,0.93c-1.21,3.3,0.16,7.97-2.47,10.45    c-0.42,0.42-0.65,0.38-1.16,0.24c-0.64,0.39-1.28,0.77-1.92,1.16c-0.67,0.54-1.38,1-1.63,0.85c-0.73,1.08-1.89,1.39-2.91,1.93    c-0.76,0.66-1.52,1.32-2.28,1.97c-0.5,0.27-0.99,0.54-1.49,0.82c-0.41,0.4-1.79,2.08-1.74,2.64c-1.74,2.93-2.5,6.4-3.9,9.54    c-0.67,0.99-1.34,1.98-2.01,2.96c-0.3,0.38-0.47,0.91-0.95,0.98c-0.37,0.7-0.75,1.4-1.12,2.11c-0.21,0.4-1.01,2.13-0.89,2.5    c-0.46,0.77-0.99,1.33-1.08,2.3c-0.36,1.75-0.72,3.51-1.08,5.26c-0.54,1.17-0.78,2.27-0.6,3.58c-0.24,0.68,0.07,2.83,0.63,2.96    c0.42,0.07,1.42,0.21,1.71-0.46c0.76,0.11,1.52,0.22,2.28,0.33c0.54,0.33,1.08,0.66,1.61,0.99c1.3,0.33,2.6,0.66,3.9,0.99    c1.21,0.44,2.42,0.88,3.63,1.32c0.6,0.3,1.19,0.6,1.78,0.9c0.96,0.46,1.92,1.02,2.88,1.62c0.55,0.36,1.1,0.73,1.65,1.09    c0.91,1.35,1.82,2.62,2.9,3.76c0.09,0.53,1.05,1.49,1.46,1.73c0.15,0.83,1.01,1.43,1.56,1.93c1.49,1.36,2.9,2.67,4.71,3.41    c0.85,0.28,1.69,0.56,2.54,0.85c0.72,0.02,1.43,0.05,2.15,0.07c0.68,0.03,1.35,0.06,2.02,0.09c1.93,0.71,3.85,1.43,5.78,2.14    c1.95,1.96,3.92,3.94,4.41,7.15c0.14,0.8,0.29,1.59,0.43,2.39c-0.45,2.07-0.6,4.45-1.64,6.23c-0.17,0.55-0.34,1.1-0.51,1.65    c-0.2,0.34-0.49,0.76-0.81,0.84c-0.82,1.42-1.74,2.02-2.82,2.96c-0.36,0.93-0.72,1.86-1.07,2.8c-0.41,1.27-0.63,4.03-0.2,5.41    c0.34,0.77,0.67,1.54,1.01,2.32c0.31,0.38,0.63,0.77,0.94,1.15c0.6,0.42,1.21,0.84,1.81,1.26c0.48,0.47,0.96,0.94,1.45,1.41    c0.26,0.37,0.52,0.74,0.78,1.11c0.09,0.64,0.1,1.25,0.47,1.75c0.65,0.62,1.3,1.25,1.95,1.87c0.93,0.36,1.93,0.8,2.72,1.51    c0.25,0.23,0.54,0.44,0.64,0.8c0.58,0.49,1.17,0.99,1.75,1.48c0.31,0.05,0.62,0.11,0.94,0.16c1.33,0.26,2.68,0.83,4.02,0.83    c0.35,0,0.92,0.2,1.13,0c0.44-0.45,0.46-0.95,0.73-1.57c0.56-1.27,1.12-2.55,1.68-3.82c0.35-0.67,0.69-1.34,1.04-2    c0.21-0.55,0.41-1.1,0.62-1.65c0.66-1.13,1.32-2.27,1.98-3.4c0.56-0.99,1.13-1.99,1.69-2.98c0.03-0.78,0.54-1.77,0.87-2.44    c0.47-0.91,0.95-1.81,1.42-2.72c0.32-0.15,2.02-1.67,2.03-2.09c0.13-0.88,0.27-1.76,0.4-2.64c0.04-0.71,0.09-1.42,0.13-2.14    c-0.07-0.43-0.29-1.09-0.13-1.48c-0.65-1.89-1.31-3.78-1.96-5.67c-0.23-0.76,0.15-2.55,0.21-3.38c-0.2-0.99,0.07-1.64,0.2-2.71    c-0.06-0.07-0.12-0.14-0.19-0.21c0.19-1.44,0.48-2.44,1.24-3.7c0.45-0.52,0.9-1.05,1.35-1.57c0.35-0.02,2.85-0.83,2.44-1.34    c0.6-0.49,1.48-3.02,1.73-3.56c0.61-1.44,1.22-2.89,1.83-4.33c0.21-1.84-0.02-3.59-0.14-5.43c0.5-0.94,1.01-1.89,1.51-2.83    c0.63-0.86,1.25-1.71,1.88-2.57c0.12-0.28,0.25-0.56,0.37-0.85c0.22-0.22,0.45-0.44,0.67-0.66c0.63-0.33,1.25-0.66,1.88-0.99    c2.06,0.08,4.78-0.48,6.59,0.33c0.67-0.14,2.66,0,3.09,0.66c0.6,0.22,1.81,0.35,2.15,0.99c0.4,0,0.81,0,1.21,0    c1.08-0.33,2.15-0.67,3.23-1c0.23-0.26,0.94-0.37,1.2-0.15c0.53-0.36,1.5-1.01,1.45-1.43c0.01-0.18,0.02-0.36,0.03-0.54    c-1.22-1.31-2.43-2.61-3.65-3.92c-0.54-0.57-1.22-1.17-1.32-2.02c-0.16-1.45-0.04-4.28,0.52-5.72    C361.83,354.96,362.35,353.71,362.35,353.71z"/>
            <circle cx="313.7" cy="363.41" r="1.586"/>
        </g>
        <g id="__Sarıgöl">
            <path d="    M321.74,436.73c0.44-0.45,0.46-0.95,0.73-1.57c0.56-1.27,1.12-2.55,1.68-3.82c0.35-0.67,0.69-1.34,1.04-2    c0.21-0.55,0.41-1.1,0.62-1.65c0.66-1.13,1.32-2.27,1.98-3.4c0.56-0.99,1.13-1.99,1.69-2.98c0.03-0.78,0.54-1.77,0.87-2.44    c0.47-0.91,0.95-1.81,1.42-2.72c0.32-0.15,2.02-1.67,2.03-2.09c0.13-0.88,0.27-1.76,0.4-2.64c0.04-0.71,0.09-1.42,0.13-2.14    c-0.07-0.43-0.29-1.09-0.13-1.48c-0.65-1.89-1.31-3.78-1.96-5.67c-0.23-0.76,0.15-2.55,0.21-3.38c-0.2-0.99,0.07-1.64,0.2-2.71    c-0.06-0.07-0.12-0.14-0.19-0.21c0.19-1.44,0.48-2.44,1.24-3.7c0.45-0.52,0.9-1.05,1.35-1.57c0.35-0.02,2.85-0.83,2.44-1.34    c0.6-0.49,1.48-3.02,1.73-3.56c0.61-1.44,1.22-2.89,1.83-4.33c0.21-1.84-0.02-3.59-0.14-5.43c0.5-0.94,1.01-1.89,1.51-2.83    c0.63-0.86,1.25-1.71,1.88-2.57c0.12-0.28,0.25-0.56,0.37-0.85c0.22-0.22,0.45-0.44,0.67-0.66c0.63-0.33,1.25-0.66,1.88-0.99    c2.06,0.08,4.78-0.48,6.59,0.33c0.67-0.14,2.66,0,3.09,0.66c0.6,0.22,1.81,0.35,2.15,0.99c0.4,0,0.81,0,1.21,0    c1.08-0.33,2.15-0.67,3.23-1c0.23-0.26,0.94-0.37,1.2-0.15c0.53-0.36,1.5-1.01,1.45-1.43l0.42,0.13c0.22,0.39,0.43,0.78,0.65,1.17    c0.23,0.35,0.53,0.68,0.58,1.12c0.27,0.16,0.54,0.33,0.81,0.49c1.07,0.49,2.15,0.99,3.23,1.48c0.71,0.83,1.43,1.65,2.14,2.48    c0.5,0.76,0.99,1.53,1.49,2.29c0.41,1.22,0.83,2.44,1.24,3.66c0.24,0.43,0.67,1.75,0.51,2.26c0.18,0.6,0.36,1.21,0.54,1.81    c0.22,0.34,0.34,0.66,0.67,0.82c0.42,1.45,0.84,2.8,1.48,4.11c0.22,0.33,0.45,0.66,0.67,0.99c0.13,0.33,0.27,0.66,0.4,0.99    c0.18,0.32,0.36,0.65,0.54,0.97c0.36,0.94,0.71,1.87,1.07,2.81c0.18,0.5,0.42,1.36,0.94,1.48c-0.09,0.05-0.18,0.11-0.27,0.16    c-0.08,0.24-0.17,0.49-0.25,0.73c-0.37,0.25-0.73,0.5-1.1,0.75c-0.54-0.32-1.07-0.63-1.61-0.95c-0.42,0.16-0.64,0.37-0.85,0.84    c-0.08,0.09-0.15,0.18-0.23,0.27c-0.05,1.26-0.09,2.52-0.13,3.78c-0.13,0.33-0.27,0.66-0.4,0.99c-0.31,0.33-0.63,0.66-0.94,0.99    c-0.49,0.29-1.39,0.48-1.57,1.15c-0.02,0.28-0.03,0.55-0.05,0.83c-0.27,0.99-0.54,1.97-0.81,2.96c-0.5,0.41-1.51,0.96-1.43,1.39    c-0.04,0.17-0.08,0.33-0.11,0.5c0.31,0.31,3.18,2.67,3.09,2.72c-0.81,0.49-1.75-0.61-1.88-0.49c-0.63-0.27-1.59-1.21-2.22-1.48    c-1.61,0.18-3.44,0.18-4.97,0.99c-0.27,0.06-0.54,0.11-0.81,0.16c-0.27-0.05-0.54-0.11-0.81-0.16c-0.22-0.21-0.76-0.99-1.03-0.74    c-0.91,0.85-1.82,1.7-2.73,2.55c-0.31,0.53-0.41,1.01-0.92,0.86c-0.41-0.18-0.82-0.35-1.23-0.53c-0.45-0.04-0.9-0.07-1.35-0.11    c-0.57-0.18-0.93-0.66-1.33,0.09c-0.09,0.06-0.19,0.12-0.28,0.19c-0.32,1.04-0.81,1.87-0.94,2.96c0.09,0.82,0.18,1.64,0.27,2.47    c-0.18,0.44-0.36,0.88-0.54,1.32c0.04,0.27,0.09,0.55,0.13,0.82c-0.16,1,0.04,1.11,0.16,1.99c0.04,0.38,0.07,0.75,0.11,1.13    c-0.06,0.6,0.15,1.27-0.4,1.48c0.18,0.55,0.36,1.1,0.54,1.64c-0.13,0.6-0.27,1.21-0.4,1.81c-0.56,0.82-1.12,1.64-1.68,2.46    c-0.32,0.57-0.35,1.21-0.79,1.71c-0.37,0.32-0.74,0.64-1.11,0.96c-0.09,0.02-0.18,0.04-0.27,0.06c-0.61,0.65-0.92,1.57-1.72,1.95    c-0.41,0.02-0.82,0.04-1.23,0.07c-0.27,0.27-1.99,0.25-2.34,0.03c-0.22,0.05-0.45,0.11-0.67,0.16c-0.18,0.22-0.36,0.44-0.54,0.66    c0.08,0.07,0.15,0.13,0.23,0.2c0.59,0.56,1.84,1.39,0.98,2.27c-1.65,1.77-3.04,0.59-4.95,1.03c-0.41,0.09-1.02,0.18-1.23,0.61    c-0.54-0.05-1.08-0.11-1.61-0.16c-0.32,0.25-0.64,0.49-0.96,0.74c-0.47,0.24-0.76,0.04-1.05,0.58c-1.02-0.81-2.18-1.22-3.35-1.86    c-0.45-0.26-0.9-0.51-1.36-0.77c-0.49-0.13-2.08-0.5-2.28-0.99c-0.77-0.16-1.4-0.08-2.05-0.78c-0.39-0.42-0.84,0.05-1.26-0.14    c-1.21-0.55-2.42-1.1-3.63-1.64C323.08,437.47,321.74,436.73,321.74,436.73z"/>
            <circle cx="349.18" cy="398.1" r="1.586"/>
        </g>
        <g id="__Kula">
            <path d="    M327.8,246.09c-0.63,0.5-1.37,0.55-2.08,0.88c-1.06,0.64-2.13,1.28-3.19,1.92c-0.68,0.51-1.37,1.03-2.05,1.54    c-0.36,0.38-0.71,0.76-1.07,1.14c-1,0.54-2.03,1.25-2.83,2.15c-0.53,0.34-1.06,0.67-1.6,1.01c-0.96,0.23-1.76,0.58-2.69,0.99    c-0.31,0-0.63,0-0.94,0c-0.27,0.16-0.54,0.33-0.81,0.49c-0.72,0.22-1.43,0.44-2.15,0.66c-0.49,0.11-0.99,0.22-1.48,0.33    c-0.56,0.03-1.11,0.05-1.67,0.08c-0.59,0.96-0.47,1.61-0.7,2.79c-0.36,1.82-0.71,3.64-1.07,5.46c-0.65,1.77-1.29,3.54-1.94,5.31    c-0.13,1.08-0.46,2.64-1.08,3.45c-0.09,0.38-0.18,0.77-0.27,1.15c0.13,1.68,0.51,2.92,1.34,4.27c0.27,0.6,0.54,1.21,0.81,1.81    c0.09,0.6,0.18,1.21,0.27,1.81c-0.17,0.69-0.54,2.28,0,2.79c-0.41,2.9-0.81,5.81-1.22,8.71c-0.17,0.93-0.77,2.81-0.38,3.6    c0.45,0.95,0.85,1.21,1.46,1.99c0.87,0.99,1.81,1.15,2.47,1.99c0.24-0.2,1.71,0.6,2.23,0.97c0.25,0.14,0.51,0.28,0.76,0.42    c1.08,0.66,1.71,1.55,1.92,3.04c-0.18,0.22-0.98,2.66-1.54,3.3c-0.24,0.28-0.61,0.68-0.61,1.14c-1.03,1.31-2.06,2.63-3.09,3.95    c-0.5,1.04-1,2.08-1.5,3.11c-0.51,0.91-1.63,3.64-1.29,4.75c0.25,0.75,0.51,1.75,1.16,1.99c1.39,0.43,2.7-0.04,4.15,0.32    c0.91,0.39,1.81,0.78,2.72,1.17c0.54,0.05,1.08,0.11,1.61,0.16c0.27,0.16,0.54,0.33,0.81,0.49c0.95,0.11,1.74,0.48,2.69,0.49    c0.73,0.01,1.42,0.41,2.05,0.85c0.27,0.19,1.86,0.45,2.4,0.55c1.08,0.21,2.16,0.11,3.2,0.6c0.68,0.21,1.36,0.42,2.04,0.63    c1.42-0.19,3.33,0.14,4.69,0.69c0.9,0.43,1.8,0.86,2.7,1.28c0.58,0.66,1.17,1.32,1.75,1.97c0.49,1.26,0.16,2.76,0.54,3.78    c0.22,0.38,0.45,0.77,0.67,1.15c0.03,0.62,0.36,2.33,1.05,2.3c0.32,0.06,0.64,0.11,0.96,0.17c0.45-0.16,0.9-0.33,1.34-0.49    c0.53-0.04,1.07-0.08,1.6-0.12c0.56-0.07,2.01-0.37,2.43-0.05c0.76-0.43,2.09-0.77,2.78-0.12c0.24,0.23,0.23,0.32,0.58,0.29    c0.26,0.32,0.3,0.53,0.67,0.66c0.56,1.15,0.98,2.99,2.02,3.62c0.87,2.46,1.99,4.49,3.64,6.2c0.94,0.98,2.29,2.81,3.47,2.47    c2-0.59,4.69-0.31,6.8-0.45c0.33-0.17,1.88-2.14,2.62-3.29c0.27-0.54,0.55-1.09,0.82-1.63c0.71-0.94,1.41-1.88,2.12-2.83    c0.32-0.54,0.64-1.08,0.96-1.62c0.2-0.3,0.4-0.6,0.6-0.89c0.35-0.72,0.71-1.44,1.06-2.16c0.84-2.37,1.68-4.74,2.52-7.11    c0.11-0.56,0.22-1.12,0.33-1.69c0.02-0.87,0.04-1.74,0.06-2.61c-0.06-0.37-0.12-0.74-0.18-1.1c0.17-0.77,0.01-1.86-0.2-2.61    c0.21-0.44-0.18-1.55-0.3-2.05c-0.24-1.53-0.48-3.07-0.72-4.6c-0.11-1.59-0.23-3.17-0.34-4.76c0.13-2.25,0.27-4.49,0.4-6.74    c0.3-1.33,0.78-3.93,0.67-5.26c0.09-0.71,0.18-1.43,0.27-2.14c0.17-0.97,0.04-1.92,0.34-2.89c0.72-3.7,1.44-7.4,2.16-11.1    c0.38-0.98,0.76-1.96,1.14-2.94c0.2-0.43,0.54-1.17,0.39-1.65c0.24,0.03,1.07-1.48,0.67-1.48c-0.1-0.72-0.21-1.44-0.31-2.16    c0.06-1.64,0.12-3.27,0.18-4.91c0.11-1.18,0.22-2.36,0.34-3.55c-0.16-0.24-0.31-0.49-0.47-0.73c-0.31-0.22-0.63-0.44-0.94-0.66    c-0.4,0-0.81,0-1.21,0c-0.38-0.21-0.76-0.41-1.13-0.62c-0.83-0.29-1.66-0.58-2.49-0.87c-0.67-0.27-1.34-0.54-2.02-0.81    c-0.75,0.25-1.52,0.37-2.28,0.2c-0.94-0.24-1.88-0.48-2.82-0.72c-0.41-0.15-0.82-0.31-1.22-0.46c-1.04-0.87-2.42-2.61-3.09-3.95    c-0.24-0.24-0.47-0.48-0.71-0.71c-0.27-0.47-1.51-1.55-1.97-1.38c-0.93,0.41-1.74,0.99-2.63,1.61c-0.29,0.21-0.72,0.29-0.88,0.65    c-1.1,0.12-1.67,0.12-2.55,0.99c-0.36,0-0.72,0-1.07,0c-0.54-0.22-1.08-0.44-1.61-0.66c-0.46-0.52-1.51-1.66-1.48-2.47    c-0.72-0.38-1.43-0.77-2.15-1.15c-1.09-1.15-2.19-2.3-3.28-3.45c-0.44-0.64-0.88-1.28-1.32-1.92c-0.39-0.73-0.78-1.46-1.18-2.19    c-0.54-0.49-1.08-0.99-1.61-1.48c-0.18-0.27-0.36-0.55-0.54-0.82c-0.63-0.6-1.26-1.2-1.89-1.8c-0.4-0.46-0.8-0.91-1.21-1.37    l-0.4-0.62c-0.45,0.27-0.9,0.55-1.34,0.82c-0.52,0.42-2.52,0.96-3.09,0.66c-0.28,0.03-0.56,0.06-0.84,0.09L327.8,246.09z"/>
            <circle cx="339.77" cy="304.39" r="1.586"/>
        </g>
        <g id="__Selendi">
            <path d="    M377.94,269.94c-0.16-0.24-0.31-0.49-0.47-0.73c-0.31-0.22-0.63-0.44-0.94-0.66c-0.4,0-0.81,0-1.21,0    c-0.38-0.21-0.76-0.41-1.13-0.62c-0.83-0.29-1.66-0.58-2.49-0.87c-0.67-0.27-1.34-0.54-2.02-0.81c-0.75,0.25-1.52,0.37-2.28,0.2    c-0.94-0.24-1.88-0.48-2.82-0.72c-0.41-0.15-0.82-0.31-1.22-0.46c-1.04-0.87-2.42-2.61-3.09-3.95c-0.24-0.24-0.47-0.48-0.71-0.71    c-0.27-0.47-1.51-1.55-1.97-1.38c-0.93,0.41-1.74,0.99-2.63,1.61c-0.29,0.21-0.72,0.29-0.88,0.65c-1.1,0.12-1.67,0.12-2.55,0.99    c-0.36,0-0.72,0-1.07,0c-0.54-0.22-1.08-0.44-1.61-0.66c-0.46-0.52-1.51-1.66-1.48-2.47c-0.72-0.38-1.43-0.77-2.15-1.15    c-1.09-1.15-2.19-2.3-3.28-3.45c-0.44-0.64-0.88-1.28-1.32-1.92c-0.39-0.73-0.78-1.46-1.18-2.19c-0.54-0.49-1.08-0.99-1.61-1.48    c-0.18-0.27-0.36-0.55-0.54-0.82c-0.63-0.6-1.26-1.2-1.89-1.8c-0.4-0.46-0.8-0.91-1.21-1.37l-0.4-0.62    c0.15-0.4,0.51-0.56,0.81-0.82c0.15-0.7,0.71-0.78,1.21-0.99c0.38-0.77,1.77-1.75,2.42-2.3c0.36-0.11,0.71-0.23,1.07-0.34    c1.1-0.46,2.05-1.08,2.96-1.96c0.58-0.73,1.15-1.46,1.73-2.18c0.5-0.42,1-0.85,1.5-1.27c0.86-0.59,1.72-1.19,2.58-1.78    c0.66-0.83,1.33-1.66,1.99-2.5c0.18-0.88,0.36-1.75,0.54-2.63c0-0.5,0.01-1,0.01-1.51c0.06-1.38,0.09-2.57,0.39-3.92    c0-1.04,0-2.08,0-3.12c-0.26-1.63,0.58-4.25,1.34-5.59c0.43-0.68,0.86-1.36,1.29-2.04c0.2-0.41,0.4-0.83,0.6-1.24    c1.21-1.37,2.42-2.74,3.63-4.11c0.81-0.27,1.61-0.55,2.42-0.82c1.44-0.02,2.84,0.63,4.3,0.34c0.77-0.09,2.09-2.7,2.51-3.51    c0.37-0.7,0.74-1.4,1.11-2.1c0.22-0.66,0.45-1.32,0.67-1.97c0.49-0.6,0.99-1.21,1.48-1.81c0.43,0.1,1.22-0.72,1.61-0.99    c0.59-0.26,1.18-0.51,1.77-0.77c0.75-0.29,1.51-0.58,2.26-0.87c0.58-0.38,1.16-0.77,1.75-1.15c0.63,0.11,1.25,0.22,1.88,0.33    c0.34,0.18,0.68,0.35,1.02,0.53c1.06,0.38,1.75,0.56,2.75,1.28c0.85,0.27,1.7,0.55,2.55,0.82c0.18-0.36,0.59-0.37,0.94-0.49    c0.54-0.33,1.08-0.66,1.61-0.99c0.25-0.67,1.65-1.23,2.15-1.81c1.18-1.36,2.5-2.54,3.91-3.59c1.85-1.37,4.05-1.69,5.13-4.11    l0.3,0.33c2.21,4.25,2.59,9.55,4.77,13.94c0.23,0.97,0.46,1.95,0.69,2.92c0.55,1.35,1.4,2.19,2.27,3.14    c0.31,0.36,0.61,0.72,0.92,1.08c0.44,0.24,1.67,1.09,1.9,1.57c0.94,0.33,1.88,0.66,2.82,0.99c1.39-0.27,2.78-0.55,4.17-0.82    c1.07-0.22,2.17,0,3.2-0.55c1.38-0.74,4.83-2.36,6.26-2.01c0.24-0.26,0.81-0.64,1.16-0.56c0.95,0.21,4.15,2.12,4.67,3    c0.41,0.76,0.83,1.51,1.24,2.27c0.06,0.21,0.43,0.81,0.14,0.83c-0.94,0.05-1.89,0.1-2.83,0.15c-0.51,0.28-2.3,1.68-2.42,2.3    c-0.32,0.13-2.22,1.27-2.02,1.97c-0.22,0.22-0.45,0.44-0.67,0.66c-0.85,1.63-1.21,4.02-1.08,5.92c-0.04,0.93-0.09,1.86-0.13,2.79    c-0.95,2.97-1.9,5.95-2.85,8.92c-0.3,1.35-0.61,2.71-0.91,4.06c-0.09,0-0.54,0.55-0.67,0.82c-0.48,0.52-1.38,1-1.48,1.81    c-0.51,0.51-1.02,1.02-1.54,1.53c-0.18,0.67-1.24,1.63-1.73,2c-0.29,0.43-0.59,0.87-0.88,1.3c-0.77,0.64-1.53,1.27-2.3,1.91    c-0.37,0.33-0.8,0.44-0.94,0.99c-0.51,0.16-1.13,0.28-1.48,0.82c-1.21,0.6-2.31,1.3-3.49,1.97c-1.25,0.66-2.51,1.32-3.76,1.97    c-0.49,0.15-0.98,0.3-1.47,0.45c-0.24,0.37-0.59,0.27-0.92,0.44c-0.95,0.32-1.91,0.65-2.86,0.97c-0.52,0.13-1.83,0.2-2.13,0.61    c-0.8,0.08-1.6,0.16-2.4,0.24c-1.25,0.42-2.75,0.5-4.05,0.42c-0.49,0.05-0.99,0.11-1.48,0.16c-1.91,0.23-4.03,0.48-5.85,1.28    c-0.49,0.22-0.97,0.2-1.37,0.73c-0.37-0.05-0.3-0.09-0.35,0.26c-0.07,0.5-0.15,1-0.22,1.51c0.02,0.48-0.49,1-0.47,1.48    c-0.27,0.72,0.01,1.41-0.26,2.13c-0.64,1.86-1.26,4.57-1.22,6.58V269.94z"/>
            <circle cx="383.59" cy="242.58" r="1.586"/>
        </g>
        <g id="__Demirci">
            <path d="    M306.63,127.01c0.98-1.1,1.95-2.19,2.93-3.29c0.71-0.59,1.62-0.74,2.05-1.82c0.53-0.36,1.15-0.41,1.75-0.49    c0.29-0.33,0.59-0.66,0.88-0.99c0.31-0.22,0.81-0.3,1-0.66c1.03-0.33,2.06-0.66,3.09-0.99c0.27-0.19,0.54-0.38,0.81-0.57    c0.53-0.3,1.07-0.61,1.6-0.91c0.45-0.43,1.31-0.16,1.61-0.82c0.99-0.2,2.06-0.1,2.86-0.98c0.35-0.39,0.41-0.95,0.78-1.23    c0.18-0.15,0.37-0.29,0.55-0.44c0.3-0.1,0.61-0.21,0.91-0.31c1.2,0.18,2.39,0.36,3.59,0.54c0.44,0.18,1.07,0.78,1.52,0.45    c0.46,0.49,1.26,1.13,1.88,0.99c0.44,0.5,0.87,1,1.31,1.5c1.57,1.26,3.15,2.52,4.72,3.79c0.52,0.49,2.56,2.28,3.11,2.12    c0.95,0.78,1.86,1.71,2.96,2.14c1.11,2.14,3.35,3.03,5.11,4.11c1.22,0.75,3.2,1.01,4.57,1.15c1.57,0.27,3.14,0.55,4.7,0.82    c0.35-0.02,0.69-0.04,1.04-0.06c1.13,0.02,2.27,0.04,3.4,0.06c0.67-0.16,1.34-0.33,2.02-0.49c1.21,0.05,2.42,0.11,3.63,0.16    c0.28,0.1,0.52,0.28,0.81,0.16c1.98,1.38,3.63,3.17,5.38,4.93c0.96,0.94,1.92,1.89,2.87,2.84c1.06,1.08,2.12,2.16,3.18,3.25    c1.14,1.36,2.3,2.74,3.63,3.78c0.31,0.33,0.63,0.66,0.94,0.99c1.84,2.14,3.67,4.27,5.51,6.41c0.48,1.01,0.96,2.02,1.43,3.04    c0.13,0.45,0.36,1.17,0.72,1.4c0.22,0.99,0.45,1.97,0.67,2.96c-0.13,1.18-0.34,2.14-0.67,3.29c-0.69,1.26-1.39,2.51-2.08,3.77    c-0.14,0.39-0.61,0.91-0.4,1.33c-0.36,0.66-0.4,1.48-0.74,2.3c0,0.66,0,1.32,0,1.97c0.13,0.55,0.27,1.1,0.4,1.64    c0.45,0.67,1.18,1.75,1.21,2.63c0.94,0.88,1.88,1.75,2.82,2.63c0.53,0.51,1.26,0.86,1.34,1.81c0.31,0.37,1.78,2.41,1.65,2.66    c-1.08,2.42-3.28,2.74-5.13,4.11c-1.41,1.04-2.73,2.22-3.91,3.59c-0.5,0.57-1.9,1.14-2.15,1.81c-0.54,0.33-1.07,0.66-1.61,0.99    c-0.35,0.13-0.76,0.13-0.94,0.49c-0.85-0.27-1.7-0.55-2.55-0.82c-0.99-0.72-1.69-0.9-2.75-1.28c-0.34-0.18-0.68-0.35-1.02-0.53    c-0.63-0.11-1.25-0.22-1.88-0.33c-0.58,0.38-1.17,0.77-1.75,1.15c-0.75,0.29-1.51,0.58-2.26,0.87c-0.59,0.26-1.18,0.51-1.77,0.77    c-0.4,0.26-1.19,1.09-1.61,0.99c-0.49,0.6-0.99,1.21-1.48,1.81c-0.22,0.66-0.45,1.32-0.67,1.97c-0.37,0.7-0.74,1.4-1.11,2.1    c-0.42,0.81-1.74,3.42-2.51,3.51c-1.46,0.29-2.86-0.37-4.3-0.34c-0.81,0.27-1.61,0.55-2.42,0.82c-1.21,1.37-2.42,2.74-3.63,4.11    c-0.2,0.41-0.4,0.83-0.6,1.24c-0.43,0.68-0.86,1.36-1.29,2.04c-0.76,1.34-1.6,3.96-1.34,5.59c0,1.04,0,2.08,0,3.12    c-0.3,1.35-0.33,2.54-0.39,3.92c0,0.5-0.01,1-0.01,1.51c-0.18,0.88-0.36,1.75-0.54,2.63c-0.66,0.83-1.33,1.66-1.99,2.5    c-0.86,0.59-1.72,1.19-2.58,1.78c-0.5,0.42-1,0.85-1.5,1.27c-0.58,0.73-1.15,1.46-1.73,2.18c-0.91,0.88-1.86,1.49-2.96,1.96    c-0.36,0.11-0.71,0.23-1.07,0.34c-0.65,0.55-2.04,1.53-2.42,2.3c-0.5,0.21-1.06,0.29-1.21,0.99c-0.29,0.26-0.66,0.42-0.81,0.82    c-0.45,0.27-0.9,0.55-1.34,0.82c-0.52,0.42-2.52,0.96-3.09,0.66c-0.28,0.03-0.56,0.06-0.84,0.09c-0.13-0.36-0.1-0.68-0.37-0.91    c0.18-0.66,0.36-1.32,0.54-1.97c0-1.25,0-2.5,0-3.75c0.24-0.36,0.05-0.72,0.17-1.12c0.57-2,0.44-2.96-0.57-4.67    c-1.09-1.83-2.76-2.92-4.04-4.43c-0.54-0.39-1.07-0.77-1.61-1.16c-1.23-0.1-2.5-0.01-3.71-0.41c-0.88-0.29-1.68-0.8-2.41-1.47    c-0.28-0.26-2.93-2.39-3.15-2.39c-1.28-0.98-2.4-1.81-3.9-2.14c-0.94,0.05-1.88,0.11-2.82,0.16c-0.45-0.07-0.89-0.14-1.34-0.22    c-0.36-0.04-0.72-0.08-1.08-0.11c-0.35-0.19-0.82-0.57-0.94-0.99c-0.8-0.48-1.5-0.88-2.28-1.48c-0.58-0.66-1.17-1.31-1.75-1.97    c-0.8-0.78-1.6-1.57-2.4-2.35c-0.68-0.42-1.36-0.85-2.03-1.27c-0.85-0.83-1.7-1.65-2.55-2.48c-0.5-0.59-1.14-0.87-1.34-1.69    c-0.09-0.47-0.19-0.95-0.28-1.42c0.67-1.42,1.34-2.85,2.02-4.27c0.89-2.21,1.78-4.43,2.67-6.64c0.54-1.6,0.74-3.61,1.77-4.87    c0.04-1.42,0.58-2.66,0.79-4.05c0.07-0.47,0.02-1.02,0.29-1.37c0.45-4,0.9-8,1.34-12c0.03-0.84,0.38-1.42,0.61-2.18    c0.11-0.04,0.22-0.08,0.33-0.12c0.04-0.44,0.09-0.88,0.13-1.32c0.76-1.42,1.52-2.85,2.28-4.27c0-0.22,0-0.44,0-0.66    c0.18-0.44,0.36-0.88,0.54-1.31c0.63-0.66,0.78-1.64,1.41-2.3c0.27-0.66,1.07-2.23,1.64-3.3c0.19-0.38,0.38-0.76,0.58-1.14    c0.18-0.96,0.9-2.45,0.54-3.45c0.27-0.93,0.54-1.86,0.81-2.79c0.04-2.14,0.09-4.27,0.13-6.41c0.16-1.22,0.26-2.24,0.81-3.29    c0.24-0.47,0.08-1.1,0.4-1.48c-0.11-1.37-0.14-2.72-0.27-4.11c-0.67-2.41-1.34-4.82-2.02-7.23    C306.89,128.55,305.92,127.86,306.63,127.01z"/>
            <circle cx="340.44" cy="150.02" r="1.586"/>
        </g>
        <g id="__Köprübaşı">
            <path d="    M259.87,240.27c0.25-0.6,0.47-1.64,0.67-2.55c1.2-1.46,1.15-3.68,1.07-5.67c-0.05-1.35-1.18-3.91,0.03-4.87    c0.32-0.27,0.78-0.48,1.18-0.39c0.54-0.38,1.08-0.77,1.61-1.15c0.36-0.28,1.81-2,1.88-2.47c0.96-0.58,1.92-1.15,2.89-1.73    c0.37-0.21,2.18-0.45,2.49-0.24c0.31-0.16,0.63-0.33,0.94-0.49c0.9-0.05,1.79-0.11,2.69-0.16c0.3-0.13,0.49-0.29,0.81-0.16    c1.04-1.13,2.08-2.25,3.12-3.38c0.51-0.74,1.02-1.48,1.52-2.22c0.2-0.43,0.4-0.87,0.6-1.3c0.06-0.3,0.13-0.61,0.19-0.91    c-0.11-0.47,0.08-1.06,0.21-1.89c0.02-0.99-0.16-1.69,0.15-2.63c0.26-0.79,1.36-3.08,2.11-3.15c1-0.11,2.17-0.72,2.79,0.23    c0.6,1.03,1.2,2.06,1.81,3.08c0.44,0.5,1.48,0.74,1.71,1.4l0.59-0.31c0.2,0.82,0.84,1.1,1.34,1.69c0.85,0.83,1.7,1.65,2.55,2.48    c0.68,0.42,1.36,0.85,2.03,1.27c0.8,0.78,1.6,1.57,2.4,2.35c0.58,0.66,1.17,1.32,1.75,1.97c0.78,0.6,1.48,1,2.28,1.48    c0.12,0.42,0.59,0.8,0.94,0.99c0.36,0.04,0.72,0.08,1.08,0.11c0.45,0.07,0.89,0.14,1.34,0.22c0.94-0.05,1.88-0.11,2.82-0.16    c1.5,0.33,2.61,1.16,3.9,2.14c0.22,0,2.87,2.13,3.15,2.39c0.73,0.68,1.53,1.18,2.41,1.47c1.21,0.4,2.48,0.31,3.71,0.41    c0.54,0.39,1.07,0.77,1.61,1.16c1.27,1.51,2.94,2.6,4.04,4.43c1.02,1.7,1.14,2.67,0.57,4.67c-0.11,0.4,0.08,0.76-0.17,1.12    c0,1.25,0,2.5,0,3.75c-0.18,0.66-0.36,1.32-0.54,1.97c0.28,0.23,0.25,0.55,0.37,0.91l-0.72-0.03c-0.63,0.5-1.37,0.55-2.08,0.88    c-1.06,0.64-2.13,1.28-3.19,1.92c-0.68,0.51-1.37,1.03-2.05,1.54c-0.36,0.38-0.71,0.76-1.07,1.14c-1,0.54-2.03,1.25-2.83,2.15    c-0.53,0.34-1.06,0.67-1.6,1.01c-0.96,0.23-1.76,0.58-2.69,0.99c-0.31,0-0.63,0-0.94,0c-0.27,0.16-0.54,0.33-0.81,0.49    c-0.72,0.22-1.43,0.44-2.15,0.66c-0.49,0.11-0.99,0.22-1.48,0.33c-0.56,0.03-1.11,0.05-1.67,0.08l-0.42,0.33    c-1.08,0.41-2.26,0.96-3.02,0.9c-0.15,0.33-0.3,0.66-0.45,1c-0.53,0.12-1.16,0.22-1.3-0.34c-0.08-0.1-0.15-0.19-0.23-0.29    c-0.49,0.23-0.9,0.78-1.36,0.42c-0.95-0.8-1.91-1.6-2.86-2.4c-0.47-0.26-0.95-0.49-0.92-1.18c0.42,0,1.23-1.39,1.48-1.81    c0.71,0,1.48-1.51,1.48-2.3c0.4-0.44,0.81-0.88,1.21-1.32c0.31-0.55,0.63-1.1,0.94-1.64c0.68-0.36,1.36-0.71,2.05-1.07    c0.36-0.19,1.75-0.76,2.12-0.58c0.3-0.51,0.94-1.01,0.94-1.64c0.14-0.14,0.67-0.69,0.67-0.33c-0.03-0.41-0.06-0.82-0.1-1.23    c-0.47-0.4-0.35-0.53-0.95-0.66c-0.73-0.16-1.34,0.05-1.91,0.58c-0.47-0.57-1.1,0.3-1.48,0.66c-0.27,0.11-0.54,0.22-0.81,0.33    c-0.23,0.2-0.46,0.41-0.69,0.61c-0.53,0.23-1.07,0.47-1.6,0.7c-0.66,0-1.14,0.01-1.75-0.33c-0.04,0.11-0.09,0.22-0.13,0.33    c-0.09,0.22-0.18,0.44-0.27,0.66c0.21,0.38,1.48,2.11,0.57,2.51c-0.24,0.12-1.1,1.09-1.1,0.61c-0.02-0.6-0.27-2.56,0-2.96    c-0.17-0.3-0.3-0.45-0.27-0.82c-0.78-0.59-1.24-1.38-2.03-1.76c-0.2-0.08-0.92,0.49-0.92,0.78c0.28,0.24,0.46,0.46,0.81,0.49    c0.09,0.6,0.18,1.21,0.27,1.81c-0.22,0.27-1.21,0.2-1.21,0.5c0.03,1.1,0.25,1.34-0.4,2.3c0.43,0-0.09,2.01-0.27,2.3    c-0.27,0.44-1.48,1.48-1.48,1.81c-0.42-0.11-1.62-0.24-1.62,0.47c0.01,0.54,0.48,0.75,0.46,1.11c-0.09,1.06-0.73,2.08-1.4,2.86    c-0.16,0.18-1.07,0.91-1.07,0.5c-0.27-0.6-0.54-1.21-0.81-1.81c-0.17-0.98,0.09-1.29-0.54-1.97c-0.08,0.2-0.15,0.4-0.23,0.6    c-0.01,0.13-0.03,0.26-0.04,0.39c-0.12,0.14-0.24,0.29-0.36,0.43c-0.5,0.64,0.32,0.67,0.17,1.01c-0.16,0.29-0.32,0.57-0.48,0.86    c-0.31-0.11-0.63-0.22-0.94-0.33c-0.18,0.22-0.36,0.44-0.54,0.66c-0.09,0.27-0.18,0.55-0.27,0.82l-1.48,0.49    c0.1,0.14,0.2,0.28,0.3,0.42c0.39,0.3,2.11,0.7,1.96,1.21c-0.26,0.92-0.67,2.79-1.72,2.65c0.23,0.28,0.99,0.76,0.67,1.15    c-0.37,0-0.29,0.39-0.67,0.16c-0.32,0.78-0.75,0.85-1.21,1.48c0.3,0.37,0.43,0.97,0.4,1.48c-0.18,0-0.13-0.06-0.13,0.16    c0.18,0.33,0.36,0.66,0.54,0.99c0.31,0.14,0.52,0.13,0.67,0.49c0.42-0.05,1.3-0.43,1.12,0.31c-0.04,0.2-0.41,0.88-0.45,1.08    l-0.13,0.41c-0.09-0.31-0.84-0.86-1.08-1.15c-0.87-1.06-1.94-1.3-2.82-2.3c-0.88-1.27-1.77-2.53-2.65-3.8    c-0.24-0.6-0.47-1.2-0.71-1.79c-0.13-1.59-0.27-3.18-0.4-4.77c-0.22-0.55-0.45-1.1-0.67-1.64c-0.27-1.15-0.54-2.3-0.81-3.45    c-0.47-0.58-2.13-3.22-2.02-4.11c-0.49-0.66-0.99-1.31-1.48-1.97c-0.99-0.77-1.97-1.53-2.96-2.3c-0.56-0.21-1.11-0.42-1.67-0.64    c-1.02-0.23-2.54-0.99-3.44-1.66c-0.46-0.58-0.93-1.16-1.39-1.74C259.75,240.62,259.87,240.27,259.87,240.27z"/>
            <circle cx="291.92" cy="240.93" r="1.586"/>
        </g>
        <g id="__Şehzadeler">
            <path d="    M96.1,298.47c-1.3-1.1,0.56-6.76,0.71-8.38c0.26-2.84,0.46-6.78-0.84-9.09c-1.02-1.8-3.64-3.52-5.25-4.73    c-1.4-1.05-3.45-2.5-4.27-4.48c-0.88-2.14-0.81-5.2-1.4-7.49c-0.57-2.21-0.34-5.5-0.24-7.93c0.24-5.44-0.34-10.43,0.3-15.75    c0.27-2.24,1.1-4.79,1.72-6.94c0.63-2.17,1.64-3.97,2.79-5.79c1.22-1.95,2.22-4.05,3.56-5.88c1.19-1.61,2.73-3.08,4.03-4.73    c1.42-1.79,2.76-3.72,4.24-5.47c1.39-1.65,3.42-2.83,4.73-4.43l0.03-0.02c0.16,1.6,0.37,3.2,0.71,4.79c0.26,1.23,1.06,2,1.53,3.07    c0.25,0.35,0.5,0.7,0.75,1.04c0.81,1.64,1.61,3.29,2.42,4.93c0.14,0.61,0.28,1.21,0.42,1.82c0.21,0.61,0.42,1.21,0.63,1.82    c0.44,1.47,0.77,3.15,0.97,4.75c0.55,1.44,1.1,2.89,1.65,4.33c0.12,0.42,0.25,0.84,0.37,1.26c0.63,1.42,1.25,2.85,1.88,4.27    c0.57,1.1,1.14,2.21,1.71,3.31c0.37,1.69,0.74,3.38,1.11,5.08c0.25,1.29,1.84,2.28,2.34,3.4c1.01,2.16,2.02,4.31,3.03,6.47    c0.21,0.76,1.02,1.05,0.94,1.97c0.67,0.55,1.34,1.1,2.02,1.64c0.27,0.33,0.54,0.66,0.81,0.99c0.48,0.42,0.69,1.34,0.94,1.97    c0.35,1.13,0.71,2.25,1.06,3.38c0.17,0.94,0.34,1.88,0.51,2.82c0.19,0.68,0.39,1.35,0.58,2.03c0.09,0.81,0.7,1.38,0.67,2.3    c0.45,0.99,1.07,2.04,1.79,2.72c0.39,0.24,0.78,0.49,1.16,0.73c0.62,0,1.23,0,1.82,0.3c0.15,0.07,1.79,0.69,1.83,1.01    c0.15,1.13-0.06,2.17-0.02,3.29c0.09,0.55,0.18,1.1,0.27,1.64c0,0.44,0,0.88,0,1.32c-0.04,0.66-0.09,1.32-0.13,1.97    c-0.05,0.87-0.1,1.75-0.16,2.62c-0.07,0.51-0.32,1.21-0.11,1.65c-0.52,1.53-1.13,2.82-1.85,4.2c-0.22,0.42-0.44,1.25-0.84,1.39    c-0.11,0.44-0.11,0.85-0.4,1.15c0,0.38,0,0.77,0,1.15c0.23,1.53,0.47,3.05,0.7,4.58c0.19,2.99,0.75,5.52,0.26,8.6    c-0.2,1.27,0,3.22-0.05,3.59c-0.19,1.58-0.33,3.5-0.92,4.94c-0.38,0-0.81,0.26-0.81,0.82c-0.63,0.58-1.47,1.03-1.85,1.81    c-0.22,0.45,0.35,0.76,0.12,1.22c-0.32,0.42-0.64,0.83-0.95,1.25c-0.31-0.06-0.34-0.14-0.66,0.02c-0.41,0.19-0.64,0.55-1.09,0.31    c-0.31,0.28-0.62,0.52-0.67,0.99c-0.47,0.17-0.82,0.16-1.2,0.51c-0.32,0.3-0.56,0.65-0.55,1.14c-0.6,0.39-1.23,0.51-1.89,0.65    c-0.73,0.16-1.59,0.1-2.15,0.83c-0.17,0.22-0.5,0.42-0.61,0.13c-0.28-0.81-1.82-3.18-1.27-4.08c-0.49-0.93-0.99-1.86-1.48-2.79    c-0.71-0.57-1.42-1.13-2.13-1.7c-0.55-0.53-1.09-1.06-1.64-1.59c-0.53-0.61-1.07-1.22-1.6-1.82c-0.27-0.38-0.54-0.76-0.82-1.14    c-0.71-1.64-1.33-3.28-2.02-4.93c-0.18-0.22-0.36-0.44-0.54-0.66c-0.27-0.66-0.65-2-1.21-2.3c-0.27-0.71-0.55-1.43-0.82-2.14    c-0.4-0.77-0.8-1.53-1.2-2.3c-0.16-0.24-0.42-0.72-0.27-0.99c-0.39-0.57-0.83-1.23-1.48-1.32c-0.5-0.58-1-1.17-1.5-1.75    c-0.32-0.07-0.64-0.35-0.79-0.71c-0.53-0.18-1.27-0.67-1.75-0.16c-0.74-0.3-1.01-0.25-1.75,0c-0.45-0.16-0.9-0.33-1.34-0.49    c-1.09-0.25-2.08-0.94-3.23-0.82c-0.45-0.37-0.93-0.69-1.42-0.95L96.1,298.47z"/>
            <circle cx="100.94" cy="281.54" r="1.586"/>
        </g>
        <g id="__Yunusemre">
            <path d="    M96.08,298.67c-1.57-0.82-3.35-1.08-5.03-0.86c-0.75,0.1-2.5,0.06-2.87,0.58c-0.56,0.67-1.13,1.35-1.69,2.02    c-0.01,0.63-0.62,1.65-1.08,2c-0.31,0.11-0.63,0.22-0.94,0.33c-0.58,0.33-1.17,0.66-1.75,0.99c-0.67,0-1.34,0-2.02,0    c-0.27,0.33-0.54,0.66-0.81,0.99c-0.94-0.03-1.87-0.05-2.81-0.08c-0.3-0.09-0.76-0.12-0.91-0.45c-0.06-0.26-0.12-0.52-0.18-0.79    c-0.23-0.18-0.45-0.37-0.68-0.55c-0.03-0.37-0.03-0.79-0.21-1.09c-0.46-0.95-0.51-2.46-1.66-2.23c-1.05,0.29-1.42,1.4-2.54,1.4    c-0.01-0.05-0.02-0.11-0.03-0.16c-0.06-0.44-0.06-0.83-0.42-0.83c-0.62,0.06-1.27,0.88-1.65,0.64c-1.06-0.71-2.11-1.41-3.17-2.12    c0-1.23-1.47-0.78-1.88-1.64c-0.49,0.06-0.99,0.11-1.48,0.16c0-0.4-0.07-0.44-0.4-0.49c0.18-0.11,0.36-0.22,0.54-0.33    c1.37-0.68,2.39-0.57,3.76-0.82c0.43-0.08,0.99,0.41,1.34,0.02c0.22-0.24,1.07-1.67,1.06-1.82c-0.08-0.99-0.21-4.24,0.15-4.93    c-0.27-1.15-0.54-2.3-0.81-3.45c-0.49-0.92-1.17-1.6-1.82-2.33c-0.27-0.31-0.38-0.69-0.73-0.79c-0.76-1.8-1.74-3.9-1.35-6.11    c-0.29-0.71-0.44-1.61-0.4-2.4c0.01-0.07,0.84-0.14,0.45-0.44c-0.24-0.19-0.43-0.5-0.72-0.43c-0.13-0.33-0.27-0.66-0.4-0.99    c-0.78-1.11-1.36-1.89-1.67-3.31c-0.13-0.58-0.42-0.44-0.34-1.13c-0.21,0.11-0.61,0.45-0.75,0.17c-0.23-0.55-0.41-1.39-1-1.49    c-0.23-0.5-0.39-1.24-0.81-1.48c0-0.44,0-0.88,0-1.31c-0.13,0-0.27,0-0.4,0c-0.62-0.57-1.64-1.36-1.51-2.16    c0.06-0.37,0.22-1.34,0.38-1.46c0.41-0.29,0.91-0.57,1.26,0.01c0.69-0.51,1.38-1.07,2.17-1.2c0.44-0.15,0.89-0.29,1.33-0.44    c0.05-1.26,0.1-2.52,0.15-3.79c0.06-0.56,0.33-1.15-0.11-1.5c-0.88-0.72-2.99-2.51-3.4-3.76c-2.41-1.59-4.64-2.08-7.39-2.14    c-0.57-0.01-1.64-0.72-1.88-0.66c-1.25-1.68-2.29-3.53-3.76-4.93c-0.22-0.11-0.45-0.22-0.67-0.33c-1.48-1.31-4.52-3.38-4.7-5.75    c-0.69-1.23-1.39-2.47-2.08-3.7c-0.16-0.36-0.31-0.72-0.47-1.07c-0.32-0.71-0.64-1.42-0.95-2.13c-0.07-2.59,1.04-5.31,2.7-7.07    c0.42-0.44,0.81-1.29,1.34-1.48c1.44-2.3,3.17-3.29,5.24-4.77c0.42-0.3,2.11-2.01,2.55-1.81c0.3-0.3,0.57-0.79,0.94-0.82    c0.75-2.26,1.12-4.61,1.79-6.89c0.23-0.77,0.65-1.96,1.21-2.21c1.8-0.79,4.54,0,6.54,0.24c0.67,0.08,2.09,0.54,2.52-0.37    c0.56-1.19,0.97-2.44,1.86-3.39c0.11-0.66,0.9-1.88,1.4-2.17c0.65-1.13,1.26-2.22,2.07-3.21c0.78-0.65,1.57-1.3,2.35-1.96    c0.42-0.23,1.17-0.41,1.37-0.92c0.76-0.16,1.52-0.33,2.29-0.49c0.85-0.03,1.7-0.07,2.55-0.1c0.25-0.41,0.9-0.29,1.3-0.27    c1.4-0.1,2.81-0.19,4.21-0.29c0.69-0.38,1.27-0.54,2.02-0.66c0.31-0.12,0.62-0.25,0.93-0.37c1.5-0.48,3.76-1.4,5.25-1.27    c1.28-0.15,2.57-0.3,3.85-0.46c0.3,0.22,0.75,0.1,1.09,0.04c0.36,0.19,2.92,0.09,3.39-0.08c0.3-0.11,0.66-0.35,0.81-0.66    c0.49-0.11,0.99-0.22,1.48-0.33c0.33-0.13,0.79-0.8,0.79-0.18c0,1.39,0.4,2.59,1.01,3.75c-0.08,0.31,0.2,0.9,0.48,0.87    c0.7,2.57,1.65,5.19,2.96,7.4c0.27,0.46,0.63,2.91,0.94,2.96c0.28,2.07,0.42,4.15,0.63,6.22l-0.03,0.02    c-1.31,1.6-3.34,2.78-4.73,4.43c-1.48,1.75-2.82,3.68-4.24,5.47c-1.3,1.65-2.85,3.12-4.03,4.73c-1.35,1.83-2.34,3.93-3.56,5.88    c-1.14,1.82-2.16,3.63-2.79,5.79c-0.62,2.14-1.45,4.7-1.72,6.94c-0.64,5.32-0.06,10.31-0.3,15.75c-0.11,2.43-0.33,5.72,0.24,7.93    c0.59,2.29,0.52,5.35,1.4,7.49c0.81,1.98,2.87,3.43,4.27,4.48c1.61,1.21,4.23,2.93,5.25,4.73c1.3,2.3,1.1,6.24,0.84,9.09    c-0.15,1.62-2.01,7.28-0.71,8.38L96.08,298.67z"/>

            <circle cx="86.29" cy="282.85" r="1.586"/>
        </g>
        <g id="__Gördes">
            <path d="    M233.92,236.82c0.81-0.03,3.07,0.14,3.63,0.83c0.99,0,1.97,0,2.96,0c0.94-0.38,1.88-0.75,2.83-1.13c0.98-0.06,1.97-0.11,2.95-0.17    c0.49,0.16,0.99,0.32,1.48,0.47c1.08-0.22,2.15-0.44,3.23-0.66c0.21,0.26,0.77,0.21,1.07,0.16c0.32-0.06,0.65-0.12,0.97-0.17    c0.53,0.28,1.06,0.56,1.58,0.83c0.49,0.16,0.99,0.33,1.48,0.49c0.67,0.38,1.34,0.77,2.02,1.15c0.61,0.5,1.12,0.94,1.72,1.37    l0.03,0.28c0.25-0.6,0.47-1.64,0.67-2.55c1.2-1.46,1.15-3.68,1.07-5.67c-0.05-1.35-1.18-3.91,0.03-4.87    c0.32-0.27,0.78-0.48,1.18-0.39c0.54-0.38,1.08-0.77,1.61-1.15c0.36-0.28,1.81-2,1.88-2.47c0.96-0.58,1.92-1.15,2.89-1.73    c0.37-0.21,2.18-0.45,2.49-0.24c0.31-0.16,0.63-0.33,0.94-0.49c0.9-0.05,1.79-0.11,2.69-0.16c0.3-0.13,0.49-0.29,0.81-0.16    c1.04-1.13,2.08-2.25,3.12-3.38c0.51-0.74,1.02-1.48,1.52-2.22c0.2-0.43,0.4-0.87,0.6-1.3c0.06-0.3,0.13-0.61,0.19-0.91    c-0.11-0.47,0.08-1.06,0.21-1.89c0.02-0.99-0.16-1.69,0.15-2.63c0.26-0.79,1.36-3.08,2.11-3.15c1-0.11,2.17-0.72,2.79,0.23    c0.6,1.03,1.2,2.06,1.81,3.08c0.44,0.5,1.48,0.74,1.71,1.4l0.59-0.31c-0.09-0.47-0.19-0.95-0.28-1.42    c0.67-1.42,1.34-2.85,2.02-4.27c0.89-2.21,1.78-4.43,2.67-6.64c0.54-1.6,0.74-3.61,1.77-4.87c0.04-1.42,0.58-2.66,0.79-4.05    c0.07-0.47,0.02-1.02,0.29-1.37c0.45-4,0.9-8,1.34-12c0.03-0.84,0.38-1.42,0.61-2.18c0.11-0.04,0.22-0.08,0.33-0.12    c0.04-0.44,0.09-0.88,0.13-1.32c0.76-1.42,1.52-2.85,2.28-4.27c0-0.22,0-0.44,0-0.66c0.18-0.44,0.36-0.88,0.54-1.31    c0.63-0.66,0.78-1.64,1.41-2.3c0.27-0.66,1.07-2.23,1.64-3.3c0.19-0.38,0.38-0.76,0.58-1.14c0.18-0.96,0.9-2.45,0.54-3.45    c0.27-0.93,0.54-1.86,0.81-2.79c0.04-2.14,0.09-4.27,0.13-6.41c0.16-1.22,0.26-2.24,0.81-3.29c0.24-0.47,0.08-1.1,0.4-1.48    c-0.11-1.37-0.14-2.72-0.27-4.11c-0.67-2.41-1.34-4.82-2.02-7.23c-0.55-0.76-1.28-1.32-1.28-1.32c0.08,0.44-0.52,0.71-0.54,1.15    c-1.13,0.44-1.66,0.86-2.82,1.15c-1.15,0.28-2.22,0.12-3.36,0.32c-2.54,0.45-5.07-0.3-7.52-0.32c-4.22-0.05-7.9,2.77-11.66,4.47    c-2.17,0.98-3.93,1.66-6.21,0.62c-2.17-0.98-4.02-0.79-6.32-1.32c-3.63-0.82-5.08-1.5-9.14-0.49c-1.09,0.27-5.35,1.36-6.32,2.14    c-0.65,0.52-2.1,1.58-2.96,1.97c-1.65,0.75-3.44,1.88-4.97,0.49l0.07,0.33c-0.65,2.6-0.21,4.7,0.54,7.23    c0.04,0.49,0.09,0.99,0.13,1.48c0.31,1.1,0.63,2.19,0.94,3.29c0.04,0.88,0.09,1.75,0.13,2.63c0.13,0.71,0.27,1.42,0.4,2.14    c0.03,0.81-0.07,1.74,0.27,2.47c0.19,1.81,0.38,3.61,0.57,5.42c0.03,0.77,0.07,1.54,0.1,2.31c-0.12,1.16-0.28,2.53-1.34,2.96    c-0.13,0.44-0.27,0.88-0.4,1.32c0,1.31,0,2.63,0,3.95c-0.49,1.29-0.39,2.89-0.27,4.27c0,1.1,0,2.19,0,3.29    c-0.31,1.32-0.63,2.63-0.94,3.95c-0.13,0.27-0.27,0.55-0.4,0.82c-0.7,0.86-1.41,1.7-2.3,2.26c-0.57,0.26-1.13,0.52-1.7,0.78    c-1.28,1-2.55,1.99-3.83,2.99c-0.62,0.46-1.23,0.91-1.85,1.37c-1.16,0.42-3.55,1.32-4.36,2.33c-1.46,2.68-2.92,5.35-4.37,8.03    c-0.08,3.06,0.82,6.03,0.7,9.03c-0.02,0.43-0.04,1.02-0.29,1.33c-0.09,0.38-0.18,0.77-0.27,1.15c-0.14,0.76-0.27,1.53-0.41,2.29    c-0.19,0.66-0.37,1.32-0.56,1.98c-0.25,1.74-0.57,3.15-1.31,4.63c-0.79,1.56-1.56,2.72-0.67,4.55c0.94,1.92,2.92,3.59,4.26,5.08    c1.12,1.25,2.14,2.89,3.46,3.82C232.36,238.84,232.28,236.88,233.92,236.82z"/>
            <circle cx="269.61" cy="184.21" r="1.586"/>
        </g>
        <g id="__Gölmarmara">
            <path d="    M222.06,228.92c-0.3,0.28-0.6,0.55-0.9,0.83c-1.22,0.44-2.43,0.87-3.65,1.31c-0.69,0.13-2.66,0.52-3.07,1.16    c-1.03,0-1.92,0.25-2.92,0.42c-0.62-0.34-1.78,0.15-2.4,0.4c-1.32,0.46-2.64,0.91-3.96,1.37c-0.48,0.43-0.97,0.86-1.45,1.28    c-0.46-0.05-1.45,1.18-1.84,1.56c-1.16,1.12-2.29,1.89-3.69,2.37c-1.43-0.06-2.87-0.12-4.3-0.18c-0.57-0.05-1.12,0.08-1.61-0.31    c-1.16-0.01-2.33-0.02-3.49-0.04c-0.99-0.04-1.97-0.08-2.96-0.12c-0.44-0.01-0.32-0.41-0.81-0.17l0.13,0.16    c-0.27,0.16-0.54,0.33-0.81,0.49c-0.76,0.71-1.52,1.43-2.28,2.14c-0.99,0.71-1.97,1.43-2.96,2.14c-0.49,0.77-0.99,1.53-1.48,2.3    c-0.13,0.38-0.27,0.77-0.4,1.15c0.07,2.54,0.58,2.97,1.56,5.13c0.24,0.7,0.48,1.4,0.72,2.11c0.22,0.44,0.45,0.88,0.67,1.32    c1.39,1.64,2.78,3.29,4.17,4.93c1.85,1.18,3.45,2.93,4.84,4.77c0.35,0.78,0.69,1.55,1.04,2.33c0.66,1.51,1.32,2.8,1.79,4.41    c0.25,0.88,0.14,2.81,0.67,3.45c0.21,1.15,0.41,2.3,0.62,3.46c0.09,0.4,0.18,0.8,0.26,1.2l0.1,0.41c0.25,0.61,0.51,1.22,0.76,1.83    c0.12,0.02,0.24,0.05,0.36,0.07c0.57,0.89,1.13,1.78,1.7,2.67c0.35,0.52,1.1,1.22,1.17,1.86c0.54,0.55,1.08,1.1,1.61,1.64    c0.99,0.44,1.97,0.88,2.96,1.31c1.31-0.34,2.56-0.83,3.73-1.55c0.27-0.16,1.07-0.93,1.32-0.67l0.86-0.08    c-0.58-0.44-1.67-1.63-2.28-1.64c-0.49-0.93-0.99-1.86-1.48-2.79c-0.09,0.05-0.18,0.11-0.27,0.16c-0.13-0.49-0.39-0.64-0.58-1.06    c-0.18-0.39-1.48-1.6-1.84-1.57c-0.4-0.49-0.81-0.99-1.21-1.48c0-0.24,0.1-0.66-0.13-0.66c-0.34-0.99-0.36-1.96-0.03-2.97    c0.09-0.27,0.17-0.81,0.43-0.81c0.18-0.11,0.36-0.22,0.54-0.33c0.69,0,1.28,0.34,1.97,0c0.64-0.38,1.29-0.77,1.93-1.15    c0.24,0.22,0.71,0.89,0.96,0.72c0.36-0.2,0.58-0.26,0.79-0.72c0.54-0.27,1.09-0.54,1.63-0.82c0.37-0.17,0.61-0.03,0.92-0.33    c0.06,0.08,0.12,0.15,0.18,0.23c0.16,0.2,0.33,0.39,0.49,0.59c0.07,0.33,0.24,1.48,0.53,1.48c0.81,0.03,0.82-0.16,1.62,0.33    c0.28-0.34,0.4-0.65,0.81-0.66c0.09-0.33,0.18-0.66,0.27-0.99c0.31,0.33,0.63,0.66,0.94,0.99c0.33,0.1,2.19,0.35,2.19,0.35    c0.1,0.54,0.09,0.93-0.04,1.46c0.53,0,0.49,1.15,1.08,1.15c0.28-0.35,0.48-0.32,0.81-0.16c-0.02-0.06-0.03-0.13-0.05-0.19    c-0.08-0.63-0.17-1.25-0.25-1.88c-0.28-0.27-0.62-1.41-0.65-1.88c-0.39-0.57-1.48-2.46-0.94-3.12c0.09-0.33,0.18-0.66,0.27-0.99    c0.07,0.17,0.14,0.35,0.21,0.52c0.15,0.38,0.31,0.75,0.46,1.13c0-0.52,0.71-1.02,1.06-0.92c0.43,0.19,0.86,0.38,1.29,0.57    c0.2,0.23,0.41,0.45,0.61,0.68c0.43,0.33,1-0.09,1.48-0.16c0.45,0.38,0.9,0.77,1.34,1.15c0.2,0.63,0.54,1.32,0.6,2.47l0.47-3.12    c0.36-1.04,0.72-2.08,1.08-3.12c1.43-2.98,1.24-7.26,1.61-10.69c-0.18-0.27-0.13-0.49-0.13-0.82c0.13-0.27,0.27-0.55,0.4-0.82    c0.22-0.11,0.45-0.22,0.67-0.33c0.18-0.22,0.18-0.72,0.23-1.07c0.3-1.99-0.93-3.13,0.11-5.15c0.43-0.78,2.86-1.25,3.71-1.53    c1.16-0.37,1.77-2.07,2.26-3.26c0.16-0.39-0.07-0.98-0.15-1.48c-0.28-1.75-1.86-2.81-1.86-4.77l-1.54-0.66    c-1.33-0.93-2.35-2.57-3.46-3.82c-1.34-1.5-3.32-3.16-4.26-5.08L222.06,228.92z"/>
            <circle cx="195.96" cy="252.28" r="1.586"/>
        </g>
    </g>
</svg>