<?xml version="1.0" encoding="UTF-8"?>
<!DOCTYPE svg PUBLIC "-//W3C//DTD SVG 1.1//EN" "http://www.w3.org/Graphics/SVG/1.1/DTD/svg11.dtd">
<svg version="1.1" id="HaritaCizim" xmlns="http://www.w3.org/2000/svg" xmlns:xlink="http://www.w3.org/1999/xlink" x="0px" y="0px" viewBox="0 0 480 298" preserveAspectRatio="none">
    <defs id="__def">
        <radialGradient id="f">
            <stop offset="0" stop-color="white" stop-opacity="1"/>
            <stop id="STOP1" offset=".4" stop-opacity="1"/>
            <stop offset="1" stop-color="white" stop-opacity=".2"/>
        </radialGradient>
        <filter id="__flt1" x="0" y="0" width="200%" height="200%" filterUnits="objectBoundingBox">
            <feGaussianBlur in="SourceAlpha" stdDeviation="3" result="blur1"/>
            <feSpecularLighting result="specOut" in="blur1" specularConstant="1.5" specularExponent="20" lighting-color="#bbbbbb">
                <feDistantLight azimuth="45" elevation="30"/>
            </feSpecularLighting>
            <feComposite in="specOut" in2="SourceAlpha" operator="in" result="specOut"/>
            <feComposite in="SourceGraphic" in2="specOut" operator="arithmetic" k1="0" k2="1" k3="1" k4="0"/>
        </filter>
        <filter id="__flt2" x="0" y="0" width="200%" height="200%" filterUnits="objectBoundingBox">
            <feGaussianBlur in="SourceAlpha" stdDeviation="3" result="blur1"/>
            <feSpecularLighting result="specOut" in="blur1" specularExponent="20" lighting-color="#bbbbbb">
                <fePointLight x="-2000" y="100" z="2000"/>
            </feSpecularLighting>
            <feComposite in="specOut" in2="SourceAlpha" operator="in" result="specOut"/>
            <feComposite in="SourceGraphic" in2="specOut" operator="arithmetic" k1="0" k2="1" k3="1" k4="0"/>
        </filter>
        <filter id="__flt3" x0="-50%" y0="-50%" width="200%" height="200%" filterUnits="objectBoundingBox">
            <feGaussianBlur in="SourceAlpha" stdDeviation="3" result="blur"/>
            <feOffset in="blur" dx="0" dy="0" result="offsetBlur"/>
            <feSpecularLighting in="blur" surfaceScale="4" specularConstant=".5" specularExponent="20" lighting-color="flavor" result="specOut">
                <fePointLight x="-5000" y="-10000" z="5000"/>
            </feSpecularLighting>
            <feComposite in="specOut" in2="SourceAlpha" operator="in" result="specOut"/>
            <feComposite in="SourceGraphic" in2="specOut" operator="arithmetic" k1="0" k2="1" k3="1" k4="0" result="litPaint"/>
            <feMerge>
                <feMergeNode in="offsetBlur"/>
                <feMergeNode in="litPaint"/>
            </feMerge>
        </filter>
        <filter id="__flt4" x0="-50%" y0="-50%" width="200%" height="200%">
            <feGaussianBlur in="SourceAlpha" stdDeviation="2" result="blur"/>
            <feOffset dy="-1" dx="-1"/>
            <feComposite in2="SourceAlpha" operator="arithmetic" k2="-1" k3="1" result="hlDiff"/>
            <feFlood flood-color="white" flood-opacity=".7"/>
            <feComposite in2="hlDiff" operator="in"/>
            <feComposite in2="SourceGraphic" operator="over" result="withGlow"/>
            <feOffset in="blur" dy="3" dx="3"/>
            <feComposite in2="SourceAlpha" operator="arithmetic" k2="-1" k3="1" result="shadowDiff"/>
            <feFlood flood-color="black" flood-opacity="1"/>
            <feComposite in2="shadowDiff" operator="in"/>
            <feComposite in2="withGlow" operator="over"/>
        </filter>
        <filter id="__golge1" x="0" y="0" width="200%" height="200%" filterUnits="userSpaceOnUse">
            <feOffset result="offOut" in="SourceAlpha" dx="8" dy="8"/>
            <feGaussianBlur result="blurOut" in="offOut" stdDeviation="3"/>
            <feBlend in="SourceGraphic" in2="blurOut" mode="normal"/>
        </filter>
    </defs>
    <g id="__Komsular" display="none">
        <path fill-rule="evenodd" clip-rule="evenodd" fill="none" stroke="#000000" stroke-width="0.25" stroke-miterlimit="10" d="   M40.8,101.78c-0.63-0.99-1.25-1.98-1.88-2.97c-0.28-0.39-0.9-0.69-1-1.14c-1.47-0.95-2.94-1.9-4.41-2.84   c-0.23-0.11-0.46-0.22-0.69-0.33c-0.6-0.43-1.2-0.86-1.79-1.3c-0.9-0.96-1.65-2.08-2.27-3.25c-0.31-0.51-0.63-1.01-0.94-1.52   c-0.09-0.95-0.19-1.9-0.28-2.84c-0.22-0.85-0.44-1.71-0.67-2.56c-0.13-0.22-0.26-0.44-0.39-0.66c0.09-0.98,0.46-2.13,0.77-3.03   c0.05-2.13,0.09-4.27,0.14-6.4c-0.16-1.45-1.1-2.73-1.56-4.12c-0.13-0.25-0.27-0.5-0.4-0.75c-0.82-1.97-1.65-3.95-2.47-5.92   c-0.12-0.44-0.24-0.88-0.36-1.32c-0.22-0.71-0.51-3.24-1.04-3.67c-0.04-0.59,0.1-1.5-0.28-1.99c0.08-2.47-0.09-4.73-0.67-7.12   c-0.33-1.36-0.69-2.71-0.88-4.11c0.04-0.43,0.09-0.85,0.13-1.28c-0.09-0.38-0.19-0.76-0.28-1.14c-0.18-0.74,0.51-2.37-0.14-2.99   c0.1-1.37,0.2-2.74,0.31-4.11c-0.05-0.72-0.11-1.43-0.16-2.15c0.11-0.46,0.21-0.92,0.32-1.39c0.13-1.2,0.27-2.39,0.4-3.59   c0.01-0.48,0.01-1.18,0.5-1.44"/>
        <path fill-rule="evenodd" clip-rule="evenodd" fill="none" stroke="#000000" stroke-width="0.25" stroke-miterlimit="10" d="   M107.03,256.9c-2.04,2.01-4.45,3.55-6.82,5.12c-1.11,0.73-1.74,2.17-2.99,2.7c-1.42,0.33-2.84,0.66-4.27,1   c-1.05,0.32-2.1,0.65-3.15,0.97c-0.37,0.06-2.04,0.18-2.25,0.02c-1.38,0.51-2.69,0.41-4.11,0.64c-2.28,0.73-4.56,1.47-6.84,2.2   c-1.18,0.55-3.34,0.11-4.11,1.24c-0.1,0.06-0.2,0.12-0.29,0.18c-0.19,0.62-0.38,1.23-0.57,1.85c-0.28,0.09-0.57,0.19-0.85,0.28   c-0.12,0.74-0.36,1.25-1,1.71c-0.27,0.12-0.54,0.24-0.81,0.36c-0.62,0.6-1.23,1.21-1.85,1.81c-0.34,0.24-0.87,0.42-1.04,0.81   c-1.69,0.35-3.39,0.71-5.08,1.06c-0.86,0.12-1.73,0.24-2.59,0.36c-1.69,0.82-3.39,1.65-5.08,2.47c-0.87,0.36-1.74,0.73-2.61,1.09   c-0.95,0.44-1.89,0.88-2.84,1.32c-1.64,0.85-3.41,1.63-5.24,1.93c-0.63,0.27-1.25,0.54-1.88,0.82c-0.25,0.4-1.22,0.55-1.68,0.61   c-1.56,0.52-3.13,1.04-4.69,1.56c-1.28,0.52-2.56,1.04-3.84,1.56c-1.16,0.84-2.33,1.67-3.49,2.51c-0.26,0.25-0.52,0.51-0.77,0.76   c-0.33,0.19-0.66,0.38-1,0.57c-0.65,0.27-1.31,0.54-1.96,0.8c-0.43,0.21-0.85,0.43-1.28,0.64c-0.72,0.13-1.44,0.27-2.16,0.4   c-0.56-0.07-1.69-0.21-2.13,0.14c-0.68-0.14-1.39-0.27-1.99,0.14c-0.64-0.1-1.63-0.4-1.99,0.14c-0.73-0.02-1.58-0.23-2.27,0.14   c-1.93-0.3-4.08,0-5.98,0.2c-0.56,0.06-1.54,0-1.99,0.36c-1.18,0.11-2.35,0.23-3.53,0.34"/>
        <path fill-rule="evenodd" clip-rule="evenodd" fill="none" stroke="#000000" stroke-width="0.25" stroke-miterlimit="10" d="   M405.6,202.46c0.85,0.2,1.7,0.41,2.55,0.61c0.61-0.06,2.54-0.1,3,0.24c1.28-0.28,2.56-0.55,3.84-0.83   c0.66-0.06,1.33-0.11,1.99-0.17c1.07-0.53,2.26-0.73,3.41-1c2.09-0.34,4.17-0.68,6.26-1.01c0.92-0.08,2.43,0,3.12-0.69   c0.56-0.02,1.12-0.04,1.68-0.07c0.58-0.15,2.56-1.11,2.73-1.64c0.61-0.07,1.21-0.13,1.82-0.2c0.57-0.27,1.15-0.54,1.72-0.8   c3.16-0.4,6.4-0.6,9.54-1.27c0.57-0.12,1.38-0.33,1.71-0.85c0.9-0.33,1.8-0.66,2.7-1c0.19,0,0.38,0,0.57,0   c1.42-0.47,2.84-0.95,4.27-1.42c1.01-0.11,2.15-0.04,3.13-0.43c0.62,0.07,1.24,0.13,1.85,0.2c0.85-0.07,1.7-0.13,2.55-0.2   c0.89-0.42,1.86-0.56,2.63-1.22c0.3-0.25,0.05-0.71,0.78-1.2c0.4-0.27,1.25-0.57,1.71-0.43c0.61-0.51,1.11-0.47,1.83-0.63   c0.39-0.12,0.77-0.25,1.16-0.37c0.15-0.32,0.03-0.29,0.27-0.26c0.19,0.04,0.38,0.08,0.57,0.12"/>
        <path fill-rule="evenodd" clip-rule="evenodd" fill="none" stroke="#000000" stroke-width="0.25" stroke-miterlimit="10" d="   M417.92,54.49c-1.36-2-2.72-4.01-4.07-6.01c0.05-0.77-0.18-1.2-0.8-1.62c-0.11-0.08-0.23-0.15-0.34-0.23   c-0.67-1.38-1.18-2.57-2.19-3.75c-0.59-0.7-1.05-2.74-1.65-3.07c0.08-0.6,0.38-1.56-0.14-1.99c0.09-0.39,0.35-0.79,0.14-1.14   c0.58-0.64,1.51-1.09,1.71-1.99c0-1.23,0-2.46,0-3.7c-0.2-0.2-0.31-0.3-0.34-0.59c0.02-0.56,0.04-1.13,0.05-1.69   c0.42-0.64,0.84-1.28,1.25-1.92c0.2-0.6,0.47-1.56,1.02-1.92c0.09-0.28,0.19-0.57,0.28-0.85c-0.09-0.8-0.18-1.61-0.27-2.41   c-0.25-0.24-0.1-0.53-0.16-0.86c-0.88-0.64-1.22-1.07-0.85-2.13c-0.09-0.24-0.19-0.47-0.28-0.71"/>
        <path fill-rule="evenodd" clip-rule="evenodd" fill="none" stroke="#000000" stroke-width="0.25" stroke-miterlimit="10" d="   M436.87,56.59c1.91,0,3.62,0.41,5.54,0.57c1.12,0.09,1.54-0.25,2.56,0.43c0.66,0.05,1.33,0.09,1.99,0.14   c1.9,0.82,3.7,2.17,5.42,3.38c2.2,1.55,4.23,3.05,6.09,5.01c0.5,0.4,1,0.8,1.5,1.2c1.11,0.87,2.22,1.75,3.32,2.62   c0.45,0.4,1.1,0.7,1.29,1.3c0.48,0.28,1.15,0.46,1.28,1c0.3,0.28,1.33,1.35,1.71,1c0.99,0.18,1.98,0.36,2.97,0.55   c0.45,0.02,0.84-0.18,1.16,0.16c0.38,0,0.76,0,1.14,0c1.14-0.14,2.27-0.28,3.41-0.43c1.47-0.46,2.95-0.92,4.42-1.37"/>
        <text transform="matrix(1 0 0 1 170.0137 31.5627)" font-family="'MyriadPro-Regular'" font-size="12">DİYARBAKIR</text>
        <path fill-rule="evenodd" clip-rule="evenodd" fill="none" stroke="#000000" stroke-width="0.25" stroke-miterlimit="10" d="   M276.08,40.66c0.02-2.11,0.79-2.41,1.99-3.97c0.87-1.14,1.92-2.93,1.71-4.41c-0.27-1.82-1.87-2.59-3.55-2.56   c-1.61,0.03-2.77,1.4-4.24,1.26c-0.08-1.77,1.33-5.3-1.16-5.67c-1.13-0.17-2.15,0.74-3.27,0.43c-1.31-0.37-1-1.57-1.25-2.73   c-0.22-1.03-0.98-1.92-1.18-2.95c-0.24-1.25,0.27-2.21,0.61-3.28c0.69-2.2,2.67-3.39,3.38-5.54c0.8-2.43,1.21-4.12,2.95-6.15   c0.69-0.8,1.33-1.72,2.03-2.48c0.77-0.83,1.25-1.84,1.99-2.59"/>
        <text transform="matrix(1 0 0 1 329.9597 38.8137)" font-family="'MyriadPro-Regular'" font-size="12">BATMAN</text>
        <text transform="matrix(0.9095 0.4157 -0.4157 0.9095 447.1858 26.1052)" font-family="'MyriadPro-Regular'" font-size="12">SİİRT</text>
        <text transform="matrix(0.4363 -0.8998 0.8998 0.4363 459.9072 143.4346)" font-family="'MyriadPro-Regular'" font-size="12">ŞIRNAK</text>
        <text transform="matrix(1 0 0 1 280.1987 244.8242)" font-family="'MyriadPro-Regular'" font-size="12">S U R İ Y E</text>
        <text transform="matrix(0.3745 0.9272 -0.9272 0.3745 14.218 152.8438)" font-family="'MyriadPro-Regular'" font-size="12">ŞANLIURFA</text>
    </g>
    <g id="__Harita" display="none">
        <rect id="__cer" x="0" y="0" fill="#000000" opacity="0" width="480" height="298"/>
        <g id="__Derik">
            <path d="    M105.92,97.65c-0.17-0.25-0.21-0.35-0.16-0.68c-1.63-1.03-3.33-1.77-5.12-2.56c-1.48-0.87-2.96-1.75-4.44-2.62    c-0.53-0.29-1.29-0.87-1.96-0.79c-0.37,0.1,0.26-0.17-1.67-0.65c-0.11,0.03-0.21,0.05-0.32,0.08c-0.58-0.32-1.16-0.63-1.75-0.95    c-1.17-0.16-2.34-0.31-3.51-0.47c-1-0.05-1.99-0.09-2.99-0.14c-1.52,0.28-3.03,0.57-4.55,0.85c-0.4,0.01-0.84,0.13-1.14-0.14    c-1.04,0.19-2.09,0.38-3.13,0.57c-0.6-0.17-1.29-0.07-1.71,0.43c-0.52-0.05-1.04-0.09-1.56-0.14c-2.66,0.76-4.25,2.41-6.03,4.5    c-0.6,0.68-1.19,1.36-1.79,2.04c-2.09,1.04-4.22,2.27-6.54,2.56c-0.63,0.08-2.05-0.39-2.68-0.62c-0.58-0.17-1.15-0.34-1.73-0.52    c-2.97,0-5.77,0.01-8.53,1.28c-0.47,0.19-0.95,0.38-1.42,0.57c-0.45,0.29-2.52,1.51-2.39,2.09c-0.05,0.77-0.11,1.54-0.16,2.31    c1.22,2.89,2.46,5.73,4.12,8.39c0.19,0.57,0.38,1.14,0.57,1.71c0.6,1,1.19,2,1.79,3c0.4,0.66,0.8,1.32,1.2,1.98    c0.09,0.33,0.19,0.66,0.28,1c-0.09,0.42-0.18,0.84-0.27,1.26c0.06,0.59,0.49,1.2,0.12,1.73c0.31,0.48,0.73,1.41,1.28,1.56    c0.26,1.52,0.23,2.81-0.14,4.27c-0.18,0.69,0.02,1.32-0.28,1.99c0.05,0.47,0.09,0.95,0.14,1.42c0.46,0.78,1.46,2.95,2.27,3.27    c0.31,0.58,0.43,1.56,1.14,1.85c0.14,0.28,0.28,0.57,0.43,0.85c0,1.37,0,2.75,0,4.12c0.56,1.25,1.13,2.49,1.69,3.74    c0.05,0.84,0.1,1.68,0.16,2.52c0.78,0.58,1.27,1.31,1.22,2.31c0.22,0.27,0.34,0.62,0.2,0.96c0.12,0.29,0.24,0.58,0.36,0.87    c0.14,0.53,0.07,1.36-0.36,1.69c0.17,0.21,0.34,0.42,0.51,0.64c0.59,0.63,0.67,0.5,1.48,0.79c0.29,0.95,0.69,2.03,1.28,2.86    c0.39,0.54,0.78,1.17,0.93,1.82c0.26,0.38,0.52,0.77,0.78,1.15c0.38,2.04,0.76,4.08,1.14,6.11c0.09,1.85,0.19,3.7,0.28,5.54    c0.12,0.92-0.21,1.44,0.55,1.96c0.43,0.28,0.93,0.69,1.44,0.6c1.9,1.72,3.4,4,4.6,6.19c0.18,0.4,0.36,0.8,0.54,1.2    c1.23,2,2.58,3.72,3.96,5.55c0.4,0.53,1.27,0.67,1.86,0.82c1.84,0.44,4.31,0.16,4.74,2.61c0.22,1.34-0.3,1.87-0.48,3.11    c-0.05,0.66-0.09,1.33-0.14,1.99c0.55,1.02,1.1,2.05,1.65,3.07c0.3,0.5,1.83,2.09,2.33,2.04c0.51,0.49,0.95,1.32,1.71,1.42    c0.28,0.28,0.57,0.57,0.85,0.85c0.28,0.52,0.56,1.05,0.84,1.57c0.23,0.26,0.38,0.66,0.72,0.71c0.15,0.69,0.19,1.74,0.85,2.13    c-0.06,0.34,0.02,0.51-0.28,0.71c0.28,0.33,0.57,0.66,0.85,1c0.24,0.47,0.47,0.95,0.71,1.42c0.14,0.34,0.67,1.62,0.98,1.52    c0.19-0.03,0.39-0.07,0.58-0.1c0.17-0.22,0.29-0.53,0.57-0.57c-0.05-0.81-0.09-1.61-0.14-2.42c0.19-0.71,0.38-1.42,0.57-2.13    c0.3-0.39,0.75-0.5,0.71-1c0.77,0.05,1.7,0.24,2.41-0.26c0.58-0.41,1.14-1,1.86-1.16c1.15-0.25,2.41,0.66,3.41,1.14    c0.19,0.19,0.38,0.38,0.57,0.57c0.45,0.22,0.9,0.45,1.35,0.67c0.4,0.3,0.81,0.6,1.21,0.89c0.34,0.46,1.12,0.93,1.28,1.42    c0.47,0.09,0.63-0.06,0.85,0.43c0.11-0.12,0.23-0.24,0.34-0.36c0.33-0.36,0.9-0.98,1.37-1.07c0.78-0.88,1.55-1.77,2.33-2.65    c0.47-0.49,0.88-0.9,1.23-1.48c0.21-0.35,0.57-0.44,0.71-0.85c0.68-0.46,1.4-1.07,1.87-1.75c0.37-0.77,0.74-1.54,1.11-2.31    c0.99-1.92,2.73-5.27,4.37-6.63c0.54-0.51,1.07-1.02,1.61-1.54c2.13-1.33,4.19-2.59,6.03-4.35c0.42-0.4,2.24-1.59,2.22-2.05    c0.62-0.55,1.24-1.1,1.87-1.66c0.37-0.2,0.72-0.3,0.98-0.62c1.19-0.98,2.39-1.96,3.58-2.93c0.28-0.59,0.55-1.17,0.83-1.76    c0.33-0.52,0.66-1.04,1-1.56c0.44-0.6,2.22-2.68,1.99-3.41c0.29-0.37,1.79-1.63,1.71-1.99c0.27-0.18,0.55-0.41,0.85-0.28    c0.19-0.28,0.38-0.57,0.57-0.85c0.28-0.19,0.57-0.38,0.85-0.57c0.72-0.91,1.47-1.84,1.99-2.84c0.38-0.57,0.76-1.14,1.14-1.71    c0.15-1.91-1.48-3.68-1.26-5.68c0.24-2.12,1.34-4.61,2.65-6.29c0.05-0.58,1.32-1.92,0.31-2.02c-0.5-0.04-1.56-0.1-1.99,0.2    c-0.9-0.09-1.8-0.19-2.7-0.28c-0.44-0.22-1.31-0.75-1.71-0.43c-0.24-0.24-0.47-0.47-0.71-0.71c-0.28-0.19-0.57-0.38-0.85-0.57    c-0.87,0.06-1.49,0.08-2.38-0.08c-0.4,0.17-1.58,0.09-1.88-0.21c-0.08-0.52-0.18-0.77-0.85-0.85c-0.28-0.29-0.57-0.57-0.85-0.86    c-1.54-1.64-3.35-3.04-4.7-4.83c-0.19-0.38-0.38-0.76-0.57-1.14c-0.59-0.87-1.18-1.74-1.77-2.61c-0.31-0.46-0.62-0.91-0.93-1.37    c-0.47-1.61-0.95-3.22-1.42-4.83c0.01-0.23,0.02-0.46,0.04-0.69c-0.16-1.79,0.47-3.16,1.24-4.71c-0.35-0.73,0-1.64,0-2.42    c-0.77-1.39-1.68-2.66-2.95-3.71c-0.85-0.71-3.46-1.73-4.45-0.84c-1.57-0.26-3.24,0.28-4.83,0.28c-1.35-0.93-2.83-1.03-4.4-1.31    c-1.74-0.31-4.57-1.3-5.22-3.15c-0.48-1.38-0.34-3.25,0.52-4.5c0.95-0.78,1.89-1.57,2.84-2.35c0.75-0.17,2.36-2.13,2.24-3.04    c-0.1-0.73,0.44-1.01-0.39-1.15c-1.05,0.59-1.75,0.94-2.54,0.83c-0.57-0.09-1.15-0.17-1.72-0.26c-0.57,0-1.14,0-1.71,0    c-0.62,0.38-1.23,0.76-1.85,1.14c0.05,0.05,0.09,0.09,0.14,0.14c-0.34,0.07-0.61,0.03-0.85,0.28c-0.14-0.06-0.27-0.13-0.41-0.19    c-0.48-0.24-0.51-0.11-0.76-0.7c-0.01-0.22-0.03-0.44-0.04-0.65c0.17-0.83,0.77-1.57,1.22-2.29c0.21-0.41,0.43-0.81,0.64-1.22    c0.86-1.16,1.71-2.32,2.57-3.48C105.12,99.49,106.21,98.08,105.92,97.65z"/>
            <circle cx="115.42" cy="138.05" r="1.586"/>
        </g>
        <g id="__Artuklu">
            <path d="    M199.11,85.69c0.03,0.45-0.07,0.92,0.34,1.32c-0.05,0.57-0.09,1.14-0.14,1.71c0.51,0.51,0.37,2.67,0.43,3.41    c-0.19,1.47-0.38,2.94-0.57,4.41c-0.38,0.95-0.76,1.9-1.14,2.84c-0.43,2.23-0.85,4.45-1.28,6.68c-0.14,0.45-0.5,1.58-0.28,1.99    c-0.22,0.75-0.44,1.5-0.66,2.24c0.33,0.64-0.42,2.6-0.91,3.16c-1.17,1.32-3.34,1.31-4.69,2.13c0.33,0-1.56,1.86-1.28,1.28    c-0.09,0.05-0.19,0.09-0.28,0.14c0,0.78-0.69,2.27-1.56,2.27c-1.34,1.34-3.54,0.68-4.66,2.29c-0.15,0.47-0.31,0.94-0.46,1.4    c-0.09,0.05-0.19,0.09-0.28,0.14c-0.14,0.81-0.28,1.61-0.43,2.42c-0.19,0.52-0.38,1.04-0.57,1.56c-0.96,1.09-1.34,1.42-2.84,1.71    c0,0.26-0.48,0.58-0.71,0.71c0.28,0.28-0.21,0.66-0.33,0.98c-0.28,0.9-0.56,1.8-0.84,2.71c-0.47,1.35-1.38,3.04-1.38,4.42    c-1.32,2.34-1.5,3.22-0.74,5.66c0.11,0.53,0.21,1.06,0.32,1.59c0.17,1.16,0.59,1.64,0.36,2.99c-0.07,0.43-0.15,0.85-0.22,1.28    c0.13,0.28,0.28,1,0.56,1c1.27,0,2.22-0.55,3.42-0.85c1.18-0.33,2.37-0.66,3.55-1c0.28-0.14,0.57-0.28,0.85-0.43    c3.32-1.22,6.58-2.85,10.24-2.27c0.36,0.2,0.73,0.4,1.09,0.6c0.68,0.46,1.36,0.93,2.04,1.39c0.99,0.87,1.16,2.03,1.71,3.13    c0.28,0.43,0.57,0.85,0.85,1.28c0.51,1.19,1.17,2.75,0.57,3.98c0.13,0.71,0.27,1.42,0.4,2.13c-0.05,0.24-0.11,0.49-0.16,0.73    c-0.47,0.13-1.16,0.51-1.66,0.27c-0.67,0.41-1.47,1.06-1.34,1.83c0.16,0.86,0.33,1.72,0.49,2.58c0.36,0.1,0.59,0.05,0.64,0.45    c0.05,0.46,0.09,1.04,0.5,1.26c-0.09,0.33-0.19,0.66-0.28,1c0.73,0.73,0.43,1.81,0.75,2.67c0.19,0.56,0.39,1.13,0.58,1.69    c0.16,0.25,0.31,0.49,0.47,0.74c0.11,0.29,0.23,0.59,0.34,0.88c0.09,0.66,0.19,1.33,0.28,1.99c0.24,0.24,0.47,0.47,0.71,0.71    c0.14,0.71,0.28,1.42,0.43,2.13c-0.09,0.28-0.19,0.57-0.28,0.85c0.77,0.77,0.69,2.34,1.28,3.13c0.31,0.42,2.44,1.66,2.99,1.71    c1.48,1.53,2.09,2.51,2.27,4.69c0.26,0.72,0.52,1.44,0.79,2.16c-0.04,0.7-0.09,1.39-0.13,2.09c0.12,0.81,0.38,1.14,0.1,1.96    c0.47,0.92,0.54,1.71,0.76,2.71c0.49,1.29,0.97,2.59,1.46,3.88c0.42,1.13,1.35,3.48,2.57,3.95c2.51,0.99,2.87-0.15,3.99-2.03    c0.31-0.53,0.94-2.33,1.67-2.13c0.1-0.02,0.21-0.05,0.31-0.07c0.57,0.47,1.14,0.95,1.71,1.42c0.38,0.09,0.76,0.19,1.14,0.28    c0.42-0.04,0.84-0.07,1.27-0.11c0.53,0.13,1.62,0.59,2.12,0.34c0.65-0.33,1.22-1.58,2.03-1.45c0.29,0.05,0.63,0.02,0.84,0.23    c0.38,0.57,0.76,1.14,1.14,1.71c0.42,0,0.14,0.69,0.43,1c0.31,0.33,0.47,0.71,0.88,0.95c0.32,0.19,1.94,1.03,2.19,0.84    c0.64-0.36,1.27-0.72,1.91-1.08c-0.05-0.33-0.09-0.66-0.14-1c0.27-0.49,0.61-1.71,1.28-1.71c0.71-0.24,1.42-0.47,2.13-0.71    c0.85-0.38,1.71-0.76,2.56-1.14c0.11,0.11,2.27,0.31,2.56,0.28c1.23-0.12,2.36-0.44,3.56-0.7c0.38-0.08,1-0.04,1.28-0.29    c4.75,0.84,9.33,2.44,13.93,3.84c0.81,0.05,1.61,0.09,2.42,0.14c0.19,0.09,0.38,0.19,0.57,0.28c1.52,0,3.03,0,4.55,0    c0.52,0.14,1.04,0.28,1.56,0.43c1.23,0.24,2.46,0.47,3.7,0.71c1.43,0.16,2.66,0.76,4.12,0.71c0.99-0.03,1.71,0.28,2.7,0.71    c-0.14-0.09,0-1.33-0.14-1.42c0-0.54,0.05-2.05,0.43-2.42c0.14-0.81,0.28-1.61,0.43-2.42c-0.05-0.24-0.09-0.47-0.14-0.71    c0-0.96,0.37-1.62-0.25-2.47c-0.74-0.9-2.15-1.65-3.3-1.65c-0.46-0.35-1.13-0.95-1.71-1c-0.57-0.43-2.49-1.84-2.56-2.56    c-1.01-0.98-1.93-1.91-2.69-3.07c-0.9-0.18-2.01-2.27-2.14-3.19c0.28-1.28,0.57-2.56,0.85-3.84c-0.09-0.81,1.09-1.04,1-1.85    c0.39-1.08,0.65-1.67,0.85-2.13c0.16-1.08,0.22-1.81,0.28-2.99c0.05-0.92-0.33-1.66-0.85-2.56c-0.05-0.17-0.1-0.34-0.15-0.52    c-0.09-0.25-0.19-0.51-0.28-0.76c-0.24,0.24-0.55-0.27-0.75-0.5c-0.51-0.54-1.02-1.09-1.52-1.63c-0.14-0.24-0.28-0.47-0.43-0.71    c-0.49-0.44-1.97-2.71-1.85-3.41c-0.35-0.46-1.12-0.57-1.71-0.57c-0.33,0.05-0.66,0.09-1,0.14c-0.28-0.05-0.57-0.09-0.85-0.14    c-1.31-0.08-2.76-0.1-3.98,0.28c-0.36,0.11-1.67,0.66-1.71,0.14c-0.24,0.19-0.47,0.38-0.71,0.57c-0.5,0.07-1,0.14-1.5,0.21    c-0.31,0.31-0.61,0.62-0.92,0.93c-0.14,0.57-0.28,1.14-0.43,1.71c-0.38,1.58-1.24,3.82-2.56,4.83c-0.85,0.52-1.71,1.04-2.56,1.56    c-2.18,1.64-5.23,3.24-8.1,3.41c-0.71-0.05-1.42-0.09-2.13-0.14c-0.33,0.09-0.66,0.19-1,0.28c-1.18-0.09-2.37-0.19-3.55-0.28    c-0.81-0.28-1.61-0.57-2.42-0.85c-0.74-0.62-1.13-1.22-1.72-1.98c-0.71-0.76-1.41-1.52-2.12-2.28c-0.36-0.34-0.85-0.62-0.86-1.14    c-0.09-2.7,0.7-4.8,1.73-7.24c0.23-1,0.46-1.99,0.69-2.99c-0.06-1.01-0.51-3.9,0-4.69c-0.16-1.13-0.32-2.25-0.48-3.38    c0.06-0.58,0.13-1.16,0.19-1.74c-0.43-0.95-0.85-1.9-1.28-2.84c-0.26-1.01,0.05-3.96,0.71-4.55c0.09-0.59,0.15-1.87,0.57-2.27    c0.05-1.14,0.09-2.27,0.14-3.41c-0.33-1.07-1.01-1.89-1.71-2.7c-0.16-0.27-0.33-0.54-0.49-0.81c-0.39-0.53-1.19-1.02-1.22-1.75    c-0.51-0.58-1.02-1.16-1.54-1.74c-0.36-0.53-1.61-2.63-1.59-3.1c-0.52-1-1.04-1.99-1.56-2.99c-0.04-1.27,0.71-3.52,2.13-3.84    c0.38-0.28,0.76-0.57,1.14-0.85c0.52-0.57,1.04-1.14,1.56-1.71c0.14-0.24,0.28-0.47,0.43-0.71c-0.05,0.05-0.09,0.09-0.14,0.14    c-0.51-0.58-0.92-1.03-1.56-1.42c-0.85-0.24-1.71-0.47-2.56-0.71c-0.76-0.27-1.3-0.66-1.99-1.08c-0.38-0.23-1.36-0.52-1.28-1.05    c-0.33-0.43-0.66-0.85-1-1.28c0-2.18-0.81-3.91-1.42-5.97c-0.05-0.52-0.1-1.04-0.15-1.56c-0.24-0.71-0.47-1.42-0.71-2.13    c-0.25-0.89-1.16-2.68-1.99-2.99c-0.33-0.51-0.56-1.31-1.14-1.56c-0.24-0.43-0.47-0.85-0.71-1.28c-0.43-0.38-0.85-0.76-1.28-1.14    c-0.24-0.28-0.47-0.57-0.71-0.85c-0.57-1.31-1.3-2.59-2.27-3.7c-0.6-0.68-2.09-1.62-2.98-1.81c-0.33-0.11-0.67-0.21-1-0.32    c-0.56-0.44-1.12-0.87-1.68-1.31c-0.83-0.69-1.38-2.04-2.3-2.25C199.04,84.82,199.09,85.5,199.11,85.69z"/>
            <circle cx="209.82" cy="149.85" r="1.586"/>
        </g>
        <g id="__Midyat">
            <path d="    M293.23,92.46c0.6,0.15,2.44,2.35,3.03,2.94c1.57,1.57,3.13,3.13,4.7,4.7c1.33,1.51,3.37,3.64,5.42,4.01    c1.21,0.22,2.74,0.54,3.95,0.29c1.14-0.2,2.28-0.41,3.43-0.61c1.61-0.8,3.22-1.6,4.83-2.39c2.04-0.39,4.08-0.77,6.12-1.16    c1.56-0.24,3.13-0.48,4.69-0.72c0.53-0.01,2.24-0.09,2.56-0.42c0.57,0.05,1.14,0.09,1.71,0.14c2.84,1.28,5.69,2.56,8.53,3.84    c1.14,0.48,2.51,0.16,3.7,0.28c0.95,0.05,1.9,0.09,2.84,0.14c3.22-0.43,6.45-0.85,9.67-1.28c0.24-0.24,0.66-0.13,1-0.14    c1.04-0.05,2.09-0.09,3.13-0.14c1.04-0.11,2.08-0.22,3.11-0.33c0.53-0.03,1.05-0.06,1.58-0.09c0.57-0.05,1.14-0.09,1.71-0.14    c2.16-0.75,4.64-1.27,6.41-2.79c0.53-0.84,1.06-1.68,1.6-2.51c0.22-0.27,0.44-0.54,0.67-0.82c1.34-0.13,2.49-0.56,3.84-0.56    c-0.06,0.14-0.12,0.28-0.17,0.41c-0.23,0.53-0.45,1.05-0.68,1.58c0.17,1.31,0.22,2.48,1.28,3.41c-0.11,0.33-0.14,0.45-0.04,0.79    c0.2,0.54,0.4,1.09,0.6,1.63c0.58,0.68,0.89,1.66,1.83,1.56c0.53-0.09,1.55-0.19,1.87-0.7c0.34,0.13,0.75,0.16,1,0.43    c1.62-0.31,3.74-0.9,5.26,0c0.85,0.24,1.71,0.47,2.56,0.71c0.62-0.06,1.84-0.29,2.13-0.85c0.62-0.05,1.23-0.09,1.85-0.14    c0.62-0.23,1.03-0.51,1.69-0.61c0.53-0.08,1.64-0.16,2-0.53c2.55,0.25,5.07,0.6,7.25,1.99c0.63,0.4,1.32,0.52,1.99,0.71    c1,0.57,1.99,1.14,2.99,1.71c0.59,0.41,1.36,0.8,1.6,1.55c0.14,0.37,0.34,1.52,0.19,1.84c-0.26,0.56-0.52,0.84-0.94,1.3    c-0.16,0.25-0.31,0.5-0.47,0.76c-0.27,0.22-0.54,0.44-0.81,0.67c-0.71,0.09-1.42,0.19-2.13,0.28c-0.91,0.22-3.2-0.36-3.32,0.7    c-0.18,1.32,1.72,1.51,2.62,1.66c0.42,0.02,0.85,0.04,1.27,0.06c0.51,0.24,1.03,0.49,1.54,0.73c0.37,0.2,1.95,1.6,1.27,1.91    c-0.5,0.18-1,0.36-1.5,0.55c-1.1,0.79-2.2,1.57-3.3,2.36c-0.53,0.23-1.07,0.45-1.6,0.68c-0.93,0.58-1.87,1.16-2.8,1.74    c-0.66,0.05-1.33,0.09-1.99,0.14c-0.37,0.03-0.72,0.19-1.14,0.14c-0.52-0.18-1.05-0.37-1.57-0.55c-2.09-0.67-4.15-1.62-5.96-2.86    c-0.82-0.57-1.76-0.99-2.75-0.52c-0.3-0.07-0.18-0.11-0.37,0.09c-1.93,1.93-1.9,4.88-2.27,7.39c-0.21,1.69-0.43,3.37-0.64,5.06    c-0.26,0.78-0.52,1.56-0.78,2.33c-0.24,1.8-0.47,3.6-0.71,5.4c-0.19,0.57-0.38,1.14-0.57,1.71c-0.09,0.62-0.19,1.23-0.28,1.85    c-0.08,1.14-0.16,2.27-0.24,3.41c-0.16,0.71-0.32,1.42-0.48,2.14c-0.9,1.74-1.67,2.21-3.56,2.52c-0.43,0.06-0.85,0.12-1.28,0.18    c-0.21,0.21-0.85,0.37-1.14,0.28c-0.47,0.28-0.95,0.57-1.42,0.85c-0.33,0.38-0.66,0.76-1,1.14c-0.08,0.54-0.15,1.08-0.23,1.62    c-0.78,0.56-4.08,1.04-4.6,0.08c-2.56-0.05-5.12-0.09-7.68-0.14c-0.83-0.07-2.57,0.69-3.27,0.28c-1.47,0.71-2.94,1.42-4.41,2.13    c-1.2,0.93-2.58,2.33-4.12,2.27c-0.3,0.04-2.56,0.14-2.42,0.28c-1.14,0.57-3,0.43-4.41,1c-1.95,0.79-3.21,2.17-4.69,3.55    c-0.14,0.24-0.28,0.47-0.43,0.71c-0.95,0.95-1.08,2.2-1.85,3.27c-0.3,0.42-0.69,1.47-0.57,1.99c-0.19,0.48-0.61,1.34-0.43,1.85    c-0.28,0.47-0.57,0.95-0.85,1.42c-1.62,1.62-3.33,1.45-5.26,2.42c-1.09-0.19-2.18-0.38-3.27-0.57c-1.33-0.52-2.65-1.04-3.98-1.56    c-1.05-0.64-2.32-1.01-3.55-1.28c-0.72-0.46-1.44-0.92-2.15-1.39c-1.15-0.6-2.44-1.28-3.11-2.31c-0.37-0.58-1.18-0.72-1.42-1.42    c-0.57-0.38-1.14-0.76-1.71-1.14c-0.57-0.76-1.14-1.52-1.71-2.27c-0.25-0.34-2.91-2.07-3.27-2.13c-0.33-0.33-1.12-0.94-1.14-1.42    c-1.14-0.95-2.27-1.9-3.41-2.84c-0.54-0.63-1.08-1.26-1.63-1.89c-0.62-0.29-1.46-1.54-1.79-2.16c-0.24-0.69-0.47-1.37-0.71-2.06    c-0.09-0.67-0.25-2.13-0.06-3.26c0.11-0.67,0.34-1.23,0.77-1.43c0.24-0.57,0.47-1.14,0.71-1.71c0-1.19,0.42-2.26,0.57-3.41    c-0.02-0.8-0.04-1.59-0.06-2.39c0.02-0.72,0.04-1.44,0.06-2.16c-0.47-0.76-0.95-1.52-1.42-2.27c-0.05-0.28-0.09-0.57-0.14-0.85    c-0.47-1.28-0.95-2.56-1.42-3.84c-1.13-1.66-2.7-3.29-4.69-3.84c-1.37,0-2.75,0-4.12,0c-0.76-0.28-1.52-0.57-2.27-0.85    c-0.25-0.17-0.51-0.34-0.76-0.51c-1.53-0.71-2.87-1.7-4.07-2.9c-0.24,0.24-0.41-0.17-0.59-0.39c-0.32-0.54-0.63-1.07-0.95-1.61    c-0.11-0.33-0.21-0.66-0.32-0.99c-0.06-0.32-0.2-0.73,0-1c-0.32-1.43-0.4-2.64-0.28-4.12c0.03-0.4,0.01-0.98,0.28-1.28    c-0.05-0.28-0.09-0.57-0.14-0.85c0.28-0.55,0.73-1.22,0.57-1.71c0.71-1,1.42-1.99,2.13-2.99c0.85-0.47,1.71-0.95,2.56-1.42    c0.81-0.62,1.61-1.23,2.42-1.85c0.76-0.95,1.52-1.9,2.27-2.84c0-0.39,0.25-1.12,0.57-1.28c0.19-1.04,0.38-2.09,0.57-3.13    c0.06-0.52-0.13-1.15,0.28-1.56c-0.12-0.63-0.09-1.08,0-1.71C292.77,93.99,292.69,92.33,293.23,92.46z"/>
            <circle cx="343.18" cy="125.11" r="1.586"/>
        </g>
        <g id="__Dargeçit">
            <path d="    M415.66,118.23c0.68-0.31-0.9-1.71-1.27-1.91c-0.51-0.24-1.03-0.49-1.54-0.73c-0.42-0.02-0.85-0.04-1.27-0.06    c-0.9-0.15-2.8-0.33-2.62-1.66c0.12-1.06,2.42-0.48,3.32-0.7c0.71-0.09,1.42-0.19,2.13-0.28c0.27-0.22,0.54-0.44,0.81-0.67    c0.16-0.25,0.31-0.5,0.47-0.76c0.42-0.47,0.68-0.74,0.94-1.3c0.16-0.33-0.05-1.48-0.19-1.84c-0.24-0.74-1.02-1.14-1.6-1.55    c-1-0.57-1.99-1.14-2.99-1.71c-0.67-0.19-1.36-0.31-1.99-0.71c-2.18-1.39-4.7-1.74-7.25-1.99c-0.36,0.37-1.47,0.45-2,0.53    c-0.66,0.1-1.07,0.38-1.69,0.61c-0.62,0.05-1.23,0.09-1.85,0.14c-0.29,0.56-1.51,0.79-2.13,0.85c-0.85-0.24-1.71-0.47-2.56-0.71    c-1.52-0.9-3.64-0.31-5.26,0c-0.24-0.27-0.65-0.3-1-0.43c-0.32,0.51-1.34,0.61-1.87,0.7c-0.94,0.1-1.25-0.87-1.83-1.56    c-0.2-0.54-0.4-1.09-0.6-1.63c-0.11-0.33-0.08-0.46,0.04-0.79c-1.06-0.93-1.11-2.1-1.28-3.41c0.23-0.53,0.45-1.05,0.68-1.58    c0.06-0.14,0.12-0.28,0.17-0.41l0.18-0.19c1.67-1.38,3.38-2.09,4.51-3.08c0.28-0.25,0.52-1.61,0.57-1.99    c0.83-0.28,1.63-0.57,2.27-1.14c0.42-0.36,1.88-1.68,1.99-2.13c0.43-0.47,0.85-0.95,1.28-1.42c0.52-0.43,1.04-0.85,1.56-1.28    c-0.38,0,0.57-0.43,0.71-1c0.85-0.85,1.54-1.67,2.27-2.42c0.98-1.1,1.96-2.2,2.94-3.3c0.33-0.8,0.66-1.61,0.99-2.41    c0.3-0.89,0.61-1.78,0.91-2.67c0.43-0.76,0.85-1.52,1.28-2.27c0.19-0.24,0.38-0.47,0.57-0.71c1.44-1.15,3.5-1.2,5.26-0.85    c0.56,0.11,1.23-0.29,1.71,0c0.81-0.47,1.61-0.94,2.42-1.41c1.04-0.85,1.47-2.59,1.7-3.85c0.3-1.63,1.4-4,2.32-5.34    c0.47-0.69,0.79-1.63,0.91-2.47c0.23-0.18,0.75-0.01,0.89,0c0.81,0.66,1.61,1.33,2.42,1.99c1.79,0.6,4.64,1.27,6.51,0.8    c1.31,0.4,2.79,0.54,4.15,0.62c0.84-0.05,1.67-0.11,2.51-0.16c0.23-0.31,0.37-0.32,0.72-0.44c0.47-0.17,1.1-0.22,1.33-0.67    c0.06,0.15,0.12,0.31,0.18,0.46c0.13,0.51,0.26,1.02,0.39,1.53c0.23,0.48,0.46,0.96,0.68,1.44c0.2,0.61,0.4,1.22,0.6,1.83    c-0.17,0.51-0.71,2.2-0.47,2.58c0.45,0.73,0.89,1.12,1.51,1.67c0.17,0.15,0.66,0.5,0.66,0.58c-0.05,0.48-0.09,0.95-0.14,1.43    c-0.28,0.28-1.07,1.26-0.78,1.66c0.41,0.57,0.93,0.92,1.49,1.32c0.83,0.05,1.83-0.14,2.56,0.28c0.38,0.52,0.76,1.04,1.14,1.56    c1.04,0.52,2.09,1.04,3.13,1.56c0.4,0.35,0.46,0.9,1,1c0.01,0.33,0.02,0.65,0.03,0.98c0.04,0.34,0.08,0.67,0.12,1.01    c0.16,0.3,0.35,0.51,0.28,0.85c0.81,0.81,1.46,1.28,2.56,1.56c0.5,0.97,1.32,1.62,1.19,2.79c0.03,0.11,0.06,0.23,0.09,0.34    c-0.28,0.85-0.57,1.71-0.85,2.56c0.55,0.55-0.48,2.37-0.85,2.84c-0.6,0-0.84,0.38-1.28,0.71c-0.64,0.49-1.8,1-2.56,1    c-0.37,0.12-0.73,0.24-1.1,0.36c-0.65-0.27-1.09-1.92-1.91-1.39c-0.22,0.15-0.71,0.3-0.67,0.6c0.09,0.48,0.18,0.96,0.28,1.44    c0,0.38-0.01,0.75-0.01,1.13c0.1,0.29,0.2,0.57,0.31,0.86c0.01,0.4,0.03,0.81,0.04,1.21c-0.48,0.48-1.93,1.81-2.05,2.48    c-0.57,0.28-1.34,0.32-1.22,0.99c0.16,0.94,1.73,3.99,2.79,4.27c0.14,0.57,0.28,1.14,0.43,1.71c0.25,1.29-0.47,3.12,0.28,4.12    c-0.02,0.42-0.16,0.69,0.14,1c-0.74,0.87-1.77,1.85-1.07,2.95c0.59,0.87,1.71,0.96,1.75,2.09c0.2,0.28,0.14,0.29,0.01,0.57    c-0.47,0.64-0.94,1.29-1.41,1.93c-0.62,0.32-1.41,0.36-1.19,1.24c0.21,0.74,1.1,2.18,1.9,2.45c0.28,0.43,0.57,0.85,0.85,1.28    c0.15,0.77,0.27,1.5,0.71,2.13c0.42,0.61,1.82,1.3,1.28,1.84c-0.91,0.91-2.81,1.93-4.02,2.28c-0.74,0.14-1.49,0.28-2.23,0.43    c-1.69-0.75-3.02-1.79-4.86-2.17c-1.22-0.03-2.45-0.07-3.67-0.1c-1.7-0.31-3.41-0.63-5.11-0.94c-1.13-0.31-2.83-2.24-3.99-1.91    c-0.4-0.2-1.47-0.76-1.85-0.71c-0.4-0.54-0.68-1.03-1.24-1.46c-0.53-0.51-1.07-1.02-1.6-1.53c-0.87-0.47-1.42-0.85-2.56-1.14    L415.66,118.23z"/>
            <circle cx="416.4" cy="90.71" r="1.586"/>
        </g>
        <g id="__Ömerli">
            <path d="    M300.18,149.3c0.11-0.67,0.34-1.23,0.77-1.43c0.24-0.57,0.47-1.14,0.71-1.71c0-1.19,0.42-2.26,0.57-3.41    c-0.02-0.8-0.04-1.59-0.06-2.39c0.02-0.72,0.04-1.44,0.06-2.16c-0.47-0.76-0.95-1.52-1.42-2.27c-0.05-0.28-0.09-0.57-0.14-0.85    c-0.47-1.28-0.95-2.56-1.42-3.84c-1.13-1.66-2.7-3.29-4.69-3.84c-1.37,0-2.75,0-4.12,0c-0.76-0.28-1.52-0.57-2.27-0.85    c-0.25-0.17-0.51-0.34-0.76-0.51c-1.53-0.71-2.87-1.7-4.07-2.9c-0.24,0.24-0.41-0.17-0.59-0.39c-0.32-0.54-0.63-1.07-0.95-1.61    c-0.11-0.33-0.21-0.66-0.32-0.99c-0.06-0.32-0.2-0.73,0-1c-0.32-1.43-0.4-2.64-0.28-4.12c0.03-0.4,0.01-0.98,0.28-1.28    c-0.05-0.28-0.09-0.57-0.14-0.85c0.28-0.55,0.73-1.22,0.57-1.71c0.71-1,1.42-1.99,2.13-2.99l-0.01-0.04    c-1.93-0.07-3.85-0.14-5.78-0.2c-0.54-0.08-1.69-0.21-2.03,0.24c-0.57-0.05-1.14-0.09-1.71-0.14c-0.38,0.05-0.76,0.09-1.14,0.14    c-0.43-0.02-1,0.04-1.28-0.28c-0.38,0.05-0.76,0.09-1.14,0.14c-0.38-0.05-0.76-0.09-1.14-0.14c-0.28,0.09-0.57,0.19-0.85,0.28    c-1.13,0.03-2.25,0.05-3.38,0.08c-0.96,0.49-1.92,0.99-2.88,1.48c-1.18,0.3-2.36,0.6-3.55,0.89c-1.14,0.51-2.28,1.02-3.42,1.52    c-1.65,0.12-3.3,0.23-4.95,0.35c-2.33,0.03-4.66,0.05-6.99,0.08c-0.69-0.06-1.12-0.32-1.85-0.27c-0.72,0.06-2.51-0.16-2.96,0.42    c-0.47,0.61-2.54,2.53-1.9,3.41c1.1,1.09,2.2,2.17,3.3,3.26c0.1,0.2,0.2,0.39,0.3,0.59c0.26,0.36,0.89,1.59,0.81,1.96    c-0.24,1.44-1.05,2.76-1.82,3.99c-0.29,0.43-0.57,0.85-0.86,1.28c-0.61,1.69-1.21,3.38-1.82,5.07c-0.15,1.49-0.3,2.97-0.45,4.46    c0.27,0.06,0.49,1.82,0.53,1.96c0.06,0.34,0.12,0.69,0.18,1.03c0.24,0.52,0.47,1.04,0.71,1.56c0.62,0.81,1.23,1.61,1.85,2.42    c0.2,0.17,0.41,0.33,0.61,0.5c0.65,1.16,1.3,2.32,1.95,3.48c0.46,0.78,0.93,1.56,1.39,2.33c0.34,1.45,0.68,2.9,1.03,4.35    c0.46,1.06,0.92,2.11,1.39,3.17c0.25,0.55,0.5,1.1,0.75,1.65c0,0.84,0.85,1.77,1.28,2.43c0.33,0.57,0.65,1.14,0.98,1.71    c0.67,0.74,1.51,0.89,2.29,1.41c0.54,0.04,2.21-0.13,2.56,0.14c0.89-0.37,1.75-0.67,2.7-0.84c1.28-0.29,2.56-0.58,3.84-0.87    c0.62,0,1.23,0,1.85,0c0.76,0.1,1.51,0.2,2.27,0.31c0.49,0.03,0.98,0.07,1.47,0.1c1-0.76,0.87-1.74,1.56-2.85    c0.72-1.63,1.45-3.27,2.17-4.9c0.34-0.93,1.2-2.04,1.63-3.18c0.33-0.76,1.75-3.48,1.85-3.55c1.82,0.54,3.49,1.3,5.26,1.99    c0.66,0.13,1.32,0.26,1.98,0.4c0.51,0.57,2.56,0.6,3.28,0.74c0.47,0.14,0.95,0.28,1.42,0.43c0.75-0.2,1.99-0.14,2.84-0.28    c0.74-0.27,1.35-0.58,2.05-0.92c0.48-0.23,1.49-0.99,1.64-1.49c0.24-0.14,0.47-0.28,0.71-0.43c0.71,0,1.42,0,2.13,0    c0.57-0.1,1.13-0.2,1.7-0.31c0.52,0.05,1.04,0.1,1.56,0.16c0.45-0.03,1.14,0.01,2.14,0.29L300.18,149.3z"/>
            <circle cx="257.31" cy="128.24" r="1.586"/>
        </g>
        <g id="__Yeşilli">
            <path d="    M237.09,116.17c1.1,1.09,2.2,2.17,3.3,3.26c0.1,0.2,0.2,0.39,0.3,0.59c0.26,0.36,0.89,1.59,0.81,1.96    c-0.24,1.44-1.05,2.76-1.82,3.99c-0.29,0.43-0.57,0.85-0.86,1.28c-0.61,1.69-1.21,3.38-1.82,5.07c-0.15,1.49-0.3,2.97-0.45,4.46    c0.27,0.06,0.49,1.82,0.53,1.96c0.06,0.34,0.12,0.69,0.18,1.03c0.24,0.52,0.47,1.04,0.71,1.56c0.62,0.81,1.23,1.61,1.85,2.42    c0.2,0.17,0.41,0.33,0.61,0.5c0.65,1.16,1.3,2.32,1.95,3.48c0.46,0.78,0.93,1.56,1.39,2.33c0.34,1.45,0.68,2.9,1.03,4.35    c0.46,1.06,0.92,2.11,1.39,3.17c0.25,0.55,0.5,1.1,0.75,1.65c0,0.84,0.85,1.77,1.28,2.43c0.33,0.57,0.65,1.14,0.98,1.71    c0.67,0.74,1.51,0.89,2.29,1.41c0.54,0.04,2.21-0.13,2.56,0.14l0.14,0.43c-0.14,0.57-0.28,1.14-0.43,1.71    c-0.38,1.58-1.24,3.82-2.56,4.83c-0.85,0.52-1.71,1.04-2.56,1.56c-2.18,1.64-5.23,3.24-8.1,3.41c-0.71-0.05-1.42-0.09-2.13-0.14    c-0.33,0.09-0.66,0.19-1,0.28c-1.18-0.09-2.37-0.19-3.55-0.28c-0.81-0.28-1.61-0.57-2.42-0.85c-0.74-0.62-1.13-1.22-1.72-1.98    c-0.71-0.76-1.41-1.52-2.12-2.28c-0.36-0.34-0.85-0.62-0.86-1.14c-0.09-2.7,0.7-4.8,1.73-7.24c0.23-1,0.46-1.99,0.69-2.99    c-0.06-1.01-0.51-3.9,0-4.69c-0.16-1.13-0.32-2.25-0.48-3.38c0.06-0.58,0.13-1.16,0.19-1.74c-0.43-0.95-0.85-1.9-1.28-2.84    c-0.26-1.01,0.05-3.96,0.71-4.55c0.09-0.59,0.15-1.87,0.57-2.27c0.05-1.14,0.09-2.27,0.14-3.41c-0.33-1.07-1.01-1.89-1.71-2.7    c-0.16-0.27-0.33-0.54-0.49-0.81c-0.39-0.53-1.19-1.02-1.22-1.75c-0.51-0.58-1.02-1.16-1.54-1.74c-0.36-0.53-1.61-2.63-1.59-3.1    c-0.52-1-1.04-1.99-1.56-2.99c-0.04-1.27,0.71-3.52,2.13-3.84c0.38-0.28,0.76-0.57,1.14-0.85c0.52-0.57,1.04-1.14,1.56-1.71    l0.56-0.43c1.18,0,2.66,0.07,3.7-0.57c0.62-0.02,1.64,0.15,2.13-0.28c0.33,0.09,0.66,0.19,1,0.28c0.43-0.02,0.85-0.05,1.28-0.07    c0.53,0.08,1.5,0.08,1.85-0.36c0.28,0.06,0.55,0.11,0.83,0.17L237.09,116.17z"/>
            <circle cx="229.3" cy="145.16" r="1.586"/>
        </g>
        <g id="__Nusaybin">
            <path d="    M281.48,205.58c-0.14-0.09,0-1.33-0.14-1.42c0-0.54,0.05-2.05,0.43-2.42c0.14-0.81,0.28-1.61,0.43-2.42    c-0.05-0.24-0.09-0.47-0.14-0.71c0-0.96,0.37-1.62-0.25-2.47c-0.74-0.9-2.15-1.65-3.3-1.65c-0.46-0.35-1.13-0.95-1.71-1    c-0.57-0.43-2.49-1.84-2.56-2.56c-1.01-0.98-1.93-1.91-2.69-3.07c-0.9-0.18-2.01-2.27-2.14-3.19c0.28-1.28,0.57-2.56,0.85-3.84    c-0.09-0.81,1.09-1.04,1-1.85c0.39-1.08,0.65-1.67,0.85-2.13c0.16-1.08,0.22-1.81,0.28-2.99c0.05-0.92-0.33-1.66-0.85-2.56    c-0.05-0.17-0.1-0.34-0.15-0.52c-0.09-0.25-0.19-0.51-0.28-0.76c-0.24,0.24-0.55-0.27-0.75-0.5c-0.51-0.54-1.02-1.09-1.52-1.63    c-0.14-0.24-0.28-0.47-0.43-0.71c-0.49-0.44-1.97-2.71-1.85-3.41l-0.39-0.16c1-0.76,0.87-1.74,1.56-2.85    c0.72-1.63,1.45-3.27,2.17-4.9c0.34-0.93,1.2-2.04,1.63-3.18c0.33-0.76,1.75-3.48,1.85-3.55c1.82,0.54,3.49,1.3,5.26,1.99    c0.66,0.13,1.32,0.26,1.98,0.4c0.51,0.57,2.56,0.6,3.28,0.74c0.47,0.14,0.95,0.28,1.42,0.43c0.75-0.2,1.99-0.14,2.84-0.28    c0.74-0.27,1.35-0.58,2.05-0.92c0.48-0.23,1.49-0.99,1.64-1.49c0.24-0.14,0.47-0.28,0.71-0.43c0.71,0,1.42,0,2.13,0    c0.57-0.1,1.13-0.2,1.7-0.31c0.52,0.05,1.04,0.1,1.56,0.16c0.45-0.03,1.14,0.01,2.14,0.29l0.08-0.41    c-0.19,1.13-0.03,2.59,0.06,3.26c0.24,0.69,0.47,1.37,0.71,2.06c0.32,0.62,1.16,1.88,1.79,2.16c0.54,0.63,1.08,1.26,1.63,1.89    c1.14,0.95,2.27,1.9,3.41,2.84c0.02,0.49,0.81,1.09,1.14,1.42c0.36,0.06,3.02,1.79,3.27,2.13c0.57,0.76,1.14,1.52,1.71,2.27    c0.57,0.38,1.14,0.76,1.71,1.14c0.24,0.7,1.05,0.85,1.42,1.42c0.66,1.03,1.96,1.71,3.11,2.31c0.72,0.46,1.44,0.92,2.15,1.39    c1.23,0.27,2.5,0.64,3.55,1.28c1.33,0.52,2.65,1.04,3.98,1.56c1.09,0.19,2.18,0.38,3.27,0.57c1.93-0.96,3.64-0.79,5.26-2.42    c0.28-0.47,0.57-0.95,0.85-1.42c-0.18-0.51,0.24-1.37,0.43-1.85c-0.12-0.52,0.27-1.57,0.57-1.99c0.77-1.07,0.9-2.32,1.85-3.27    c0.14-0.24,0.28-0.47,0.43-0.71c1.48-1.39,2.75-2.77,4.69-3.55c1.4-0.57,3.06-0.32,4.39-1.01c0.18-0.18,2.11-0.23,2.49-0.25    c1.54,0.06,2.87-1.36,4.07-2.29c1.47-0.71,2.94-1.42,4.41-2.13c0.7,0.41,2.44-0.36,3.27-0.28c2.56,0.05,5.12,0.09,7.68,0.14    c0.52,0.96,3.82,0.47,4.6-0.08l0.3,0.76c0.26,0.48,0.52,0.97,0.79,1.45c0.52,0.43,1.04,0.85,1.56,1.28    c0.47,0.52,0.95,1.04,1.42,1.56c-0.06,0.35,0.14,0.67,0.28,1c0.48-0.04,0.79,0.38,1.14,0.71c0.81,0.71,1.61,1.42,2.42,2.13    c0.95,0.14,1.9,0.28,2.84,0.43c1-0.08,2-0.15,3-0.23c1.42,0.08,2.83,0.15,4.25,0.23c0.33,0.19,0.66,0.38,1,0.57    c0.76,0.76,1.52,1.52,2.27,2.27c1.14,1.37,2.28,2.75,3.41,4.12c0.05,0.42,0.65,1.29,1.01,1.52c0.56,1.06,1.13,2.11,1.69,3.17    c0.24,0.9,0.47,1.8,0.71,2.7c0.14,2.08,0.28,4.17,0.43,6.26c-0.14,3.1,0.1,6.12,0,9.24c-0.56,2.22-1.11,4.43-1.67,6.65    c-0.06,0.15-0.12,0.31-0.18,0.46c-0.34-0.22-0.62,0.01-1,0.14c-0.46-0.24-2.61,0.31-3.19,0.47c-0.66,0.3-1.32,0.61-1.98,0.91    c-0.58,0.46-0.79,0.88-1.51,1.18c-0.33-0.45-1.73-0.46-2.28-0.44c-1.67,0.08-3.37,1.05-4.69,2c-0.57,0.19-1.14,0.38-1.71,0.57    c-1.78,0.98-3.57,2.02-5.44,2.93c-0.65,0.3-1.3,0.61-1.95,0.91c-0.82,0.03-1.64,0.05-2.46,0.08c-1.53,0.4-3.15,0.15-4.51,1.2    c-0.41-0.31-1.59-0.34-2.13-0.43c-0.28,0.28-0.57,0.57-0.85,0.85c-0.9,0-1.8,0-2.7,0c-1.04-0.07-2.08-0.13-3.12-0.2    c-0.38-0.08-0.76-0.15-1.14-0.23c-1.14,0-2.28,0-3.42,0c-0.57,0.1-1.13,0.19-1.7,0.29c-2.13,0-4.27,0-6.4,0    c-1.65-0.34-3.22-0.01-4.85-0.18c-0.58,0.08-1.15,0.16-1.73,0.24c-0.75,0.36-1.49,0.72-2.24,1.08c-0.63-0.08-1.26-0.15-1.9-0.23    c-2.71-0.8-5.38-0.91-8.2-0.91c-0.86-0.03-1.71-0.07-2.57-0.1c-1.94-0.16-3.88-0.31-5.82-0.47c-0.99,0-1.99,0-2.99,0    c-0.35,0.53-1.43,0.77-2.04,0.88c-0.84,0.13-1.67,0.27-2.51,0.4c-0.52,0-1.04,0-1.56,0c-0.25,0.49-1.39,1-1.91,0.98    c-0.87,0.87-1.34,1.05-1.65,2.29c-0.34,0.06-0.28,0.05-0.47,0.29c-0.08,0.09-0.16,0.19-0.24,0.28c-0.34-0.31-0.68-0.16-1.14-0.14    c-0.58-0.52-1.65-0.12-2.37-0.5c-0.47-0.25-0.46-2.64-0.53-3.35c-0.03-0.24-0.06-0.47-0.09-0.71c-0.49-0.01-0.8-0.51-1.28-0.72    c-0.85-0.33-1.71-0.66-2.56-0.99c-0.15-0.31-0.55-0.41-0.85-0.57c-0.33,0-0.66,0-1,0c-0.33-1.42-2.06-1.51-3.26-1.89    c-1.42-0.45-2.41-0.25-3.71,0.33c-0.23-0.29-1.85-0.53-2.27-0.43c-0.28,0.14-0.57,0.28-0.85,0.43c-0.33-0.02-0.65-0.04-0.98-0.05    c-0.84-0.07-1.45-0.19-2.31-0.1c-0.2,0.02-0.32-0.5-0.41-0.7c-0.47-0.17-0.93-0.34-1.4-0.51c-0.46-0.04-0.92-0.08-1.38-0.12    c-0.26-0.12-0.52-0.25-0.78-0.37c-1.17-0.31-2.15-0.3-3.21-0.96L281.48,205.58z"/>
            <circle cx="312.05" cy="209.99" r="1.586"/>
        </g>
        <g id="__Savur">
            <path d="    M292.85,91.28c-0.46-1.24-0.92-2.47-1.39-3.71c-0.06-1.04-0.12-2.08-0.18-3.11c-0.05-0.71-0.09-1.42-0.14-2.13    c0.14-0.66,0.28-1.33,0.43-1.99c0.19-1.43,0.34-2.84,0.4-4.27c0.01-0.9,0.01-1.8,0.02-2.7c-0.33-0.9-0.66-1.8-1-2.7    c-1-1.3-2.47-1.7-3.71-2.73c-1.13-0.94-2.24-2.49-2.89-3.77c-0.77-1.54-0.8-2.89-0.8-4.59c-0.24-0.29-0.14-0.78-0.14-1.14    c-0.28-0.57-0.57-1.14-0.85-1.71c-0.59-1.28-1.24-2.47-1.56-3.84c-0.53-0.53-0.57-1.16-0.71-1.85c-0.57-0.57-1.1-1.83-0.85-2.56    c-0.25-0.25-0.72-2.27-0.57-2.42c-0.58-0.94-1.39-1.6-1.85-2.63c-0.32-0.72-0.04-1.49-0.5-2.17c-0.54-0.85-1.68-0.1-2.32,0.44    c-1.46,1.25-2.99,2.3-4.58,3.36c-0.08,0.39-0.55,0.65-0.85,0.85c-0.14,0.43-0.28,0.85-0.43,1.28c-0.28,0.19-0.57,0.38-0.85,0.57    c-0.07,0.57-0.73,0.94-1.14,1.28c-0.58,0.21-2.66,1.82-3.13,2.42c-0.92,0.19-1.44,1.1-1.99,1.71c-0.81,0.26-1.02,0.91-1.67,1.4    c-0.86,0.58-1.73,1.16-2.59,1.73c-0.62,0.38-1.23,0.76-1.85,1.14c-0.96,0.45-1.91,0.9-2.87,1.35c-0.99,0.36-1.97,0.71-2.96,1.07    c-0.55,0.38-1.05,0.97-1.18,1.65c-1.01,0.52-1.51,1.51-2.23,2.33c-0.33,0.18-0.65,0.35-0.98,0.53c-0.57,0.35-1.75,0.82-2.43,0.89    c-0.49,0.05-2.78,0.07-3.01-0.18c-0.51-0.08-1.02-0.17-1.54-0.25c-0.9-0.28-1.8-0.57-2.7-0.85c-0.86-0.1-2.21-0.54-3.03-0.93    c-0.97-0.46-1.57-1.24-2.54-1.72c-1.2-0.59-2.96-0.46-3.95-1.05c-0.86-0.47-1.72-0.94-2.57-1.41c-0.28-0.1-0.56-0.2-0.84-0.29    c-1.42-0.99-3.59-2.1-5.26-2.7c-1.04-0.58-2.08-1.16-3.11-1.74c-1.88-1-3.73-2.08-5.42-3.38c-1.19-0.27-2.38-0.54-3.57-0.8    c-0.59-0.11-1.34-3.04-1.02-3.65c-0.39-2.17-0.19-3.87-2.22-5.26c-0.51-0.35-1.05-0.64-1.72-0.67c-0.65,0.1-1.31,0.2-1.96,0.3    c-0.41,0.09-2.35,1.99-2.28,2.56c-1.24,1.82-0.96,4.02-1.3,6.1c0.14,1.09,0.28,2.18,0.43,3.27c0.1,2.14,0.43,4.12,0,6.26    c0,0.28,0,0.57,0,0.85c0.39,0.45,0.13,1.43,0,1.99c0.33,0.66,0.21,2.54,0.14,3.27c0.21,0.61,0.43,1.22,0.64,1.83    c0.26,0.81,0.52,1.62,0.78,2.43c0.4,0.32,0.48,1.21,0.57,1.71c0.45,0.31,0.47,1.19,0.65,1.7c0.28,0.72,0.55,1.44,0.83,2.15    c0.02,0.89,0.04,1.79,0.07,2.68c0.19,2.4,0.29,4.67,0.29,7.14l0.43,0.25c0.92,0.21,1.47,1.56,2.3,2.25    c0.56,0.44,1.12,0.87,1.68,1.31c0.33,0.11,0.67,0.21,1,0.32c0.89,0.19,2.38,1.13,2.98,1.81c0.97,1.1,1.7,2.38,2.27,3.7    c0.24,0.28,0.47,0.57,0.71,0.85c0.43,0.38,0.85,0.76,1.28,1.14c0.24,0.43,0.47,0.85,0.71,1.28c0.58,0.25,0.8,1.06,1.14,1.56    c0.84,0.31,1.74,2.1,1.99,2.99c0.24,0.71,0.47,1.42,0.71,2.13c0.05,0.52,0.1,1.04,0.15,1.56c0.61,2.06,1.42,3.79,1.42,5.97    c0.33,0.43,0.66,0.85,1,1.28c-0.08,0.53,0.9,0.82,1.28,1.05c0.69,0.42,1.24,0.82,1.99,1.08c0.85,0.24,1.71,0.47,2.56,0.71    c0.65,0.4,1.06,0.85,1.56,1.42l0.28,0.14c1.18,0,2.66,0.07,3.7-0.57c0.62-0.02,1.64,0.15,2.13-0.28c0.33,0.09,0.66,0.19,1,0.28    c0.43-0.02,0.85-0.05,1.28-0.07c0.53,0.08,1.5,0.08,1.85-0.36c0.28,0.06,0.55,0.11,0.83,0.17l-0.01-0.44    c-0.64-0.87,1.44-2.8,1.9-3.41c0.45-0.58,2.25-0.37,2.96-0.42c0.73-0.06,1.16,0.2,1.85,0.27c2.33-0.03,4.66-0.05,6.99-0.08    c1.65-0.12,3.3-0.23,4.95-0.35c1.14-0.51,2.28-1.02,3.42-1.52c1.18-0.3,2.36-0.6,3.55-0.89c0.96-0.49,1.92-0.99,2.88-1.48    c1.13-0.03,2.25-0.05,3.38-0.08c0.28-0.09,0.57-0.19,0.85-0.28c0.38,0.05,0.76,0.09,1.14,0.14c0.38-0.05,0.76-0.09,1.14-0.14    c0.28,0.32,0.85,0.27,1.28,0.28c0.38-0.05,0.76-0.09,1.14-0.14c0.57,0.05,1.14,0.09,1.71,0.14c0.34-0.46,1.49-0.32,2.03-0.24    c1.93,0.07,3.85,0.14,5.78,0.2l0.01,0.04c0.85-0.47,1.71-0.95,2.56-1.42c0.81-0.62,1.61-1.23,2.42-1.85    c0.76-0.95,1.52-1.9,2.27-2.84c0-0.39,0.25-1.12,0.57-1.28c0.19-1.04,0.38-2.09,0.57-3.13c0.06-0.52-0.13-1.15,0.28-1.56    c-0.12-0.63-0.09-1.08,0-1.71c0.06-0.42-0.02-2.08,0.52-1.95C293.23,92.46,292.92,91.51,292.85,91.28z"/>
            <circle cx="244.37" cy="93.98" r="1.586"/>
        </g>
        <g id="__Mazıdağı">
            <path d="    M199.11,85.69c0.03,0.45-0.07,0.92,0.34,1.32c-0.05,0.57-0.09,1.14-0.14,1.71c0.51,0.51,0.37,2.67,0.43,3.41    c-0.19,1.47-0.38,2.94-0.57,4.41c-0.38,0.95-0.76,1.9-1.14,2.84c-0.43,2.23-0.85,4.45-1.28,6.68c-0.14,0.45-0.5,1.58-0.28,1.99    c-0.22,0.75-0.44,1.5-0.66,2.24c0.33,0.64-0.42,2.6-0.91,3.16c-1.17,1.32-3.34,1.31-4.69,2.13c0.33,0-1.56,1.86-1.28,1.28    c-0.09,0.05-0.19,0.09-0.28,0.14c0,0.78-0.69,2.27-1.56,2.27c-1.34,1.34-3.54,0.68-4.66,2.29c-0.15,0.47-0.31,0.94-0.46,1.4    c-0.09,0.05-0.19,0.09-0.28,0.14c-0.14,0.81-0.28,1.61-0.43,2.42c-0.19,0.52-0.38,1.04-0.57,1.56c-0.96,1.09-1.34,1.42-2.84,1.71    c0,0.26-0.48,0.58-0.71,0.71c0.28,0.28-0.21,0.66-0.33,0.98c-0.28,0.9-0.56,1.8-0.84,2.71c-0.47,1.35-1.38,3.04-1.38,4.42    c-1.32,2.34-1.5,3.22-0.74,5.66c0.11,0.53,0.21,1.06,0.32,1.59c0.17,1.16,0.59,1.64,0.36,2.99c-0.07,0.43-0.15,0.85-0.22,1.28    c0.13,0.28,0.28,1,0.56,1l-0.13,0.43c-0.47-0.19-0.95-0.38-1.42-0.57c-1.79,0.17-3.57,0.25-5.41,0.28    c-1.14-0.14-2.27-0.28-3.41-0.42c-0.57-0.19-1.14-0.38-1.71-0.57c-1.35-0.16-2.62-0.08-3.99,0.02c-1.1,0.08-2.16-0.09-3.26,0.12    c-2.28,0.43-4.29,2.2-6.29,3.21l-0.54,0.14c-0.5-0.04-1.56-0.1-1.99,0.2c-0.9-0.09-1.8-0.19-2.7-0.28    c-0.44-0.22-1.31-0.75-1.71-0.43c-0.24-0.24-0.47-0.47-0.71-0.71c-0.28-0.19-0.57-0.38-0.85-0.57c-0.87,0.06-1.49,0.08-2.38-0.08    c-0.4,0.17-1.58,0.09-1.88-0.21c-0.08-0.52-0.18-0.77-0.85-0.85c-0.28-0.29-0.57-0.57-0.85-0.86c-1.54-1.64-3.35-3.04-4.7-4.83    c-0.19-0.38-0.38-0.76-0.57-1.14c-0.59-0.87-1.18-1.74-1.77-2.61c-0.31-0.46-0.62-0.91-0.93-1.37c-0.47-1.61-0.95-3.22-1.42-4.83    c0.01-0.23,0.02-0.46,0.04-0.69c-0.16-1.79,0.47-3.16,1.24-4.71c-0.35-0.73,0-1.64,0-2.42c-0.77-1.39-1.68-2.66-2.95-3.71    c-0.85-0.71-3.46-1.73-4.45-0.84c-1.57-0.26-3.24,0.28-4.83,0.28c-1.35-0.93-2.83-1.03-4.4-1.31c-1.74-0.31-4.57-1.3-5.22-3.15    c-0.48-1.38-0.34-3.25,0.52-4.5c0.95-0.78,1.89-1.57,2.84-2.35c0.75-0.17,2.36-2.13,2.24-3.04c-0.1-0.73,0.44-1.01-0.39-1.15    c-1.05,0.59-1.75,0.94-2.54,0.83c-0.57-0.09-1.15-0.17-1.72-0.26c-0.57,0-1.14,0-1.71,0c-0.62,0.38-1.23,0.76-1.85,1.14    c0.05,0.05,0.09,0.09,0.14,0.14c-0.34,0.07-0.61,0.03-0.85,0.28c-0.14-0.06-0.27-0.13-0.41-0.19c-0.48-0.24-0.51-0.11-0.76-0.7    c-0.01-0.22-0.03-0.44-0.04-0.65c0.17-0.83,0.77-1.57,1.22-2.29c0.21-0.41,0.43-0.81,0.64-1.22c0.86-1.16,1.71-2.32,2.57-3.48    c0.43-0.74,1.51-2.15,1.22-2.58l0.3-0.13c0.27,0.15,0.55,0.29,0.82,0.44c0.43,0.28,0.85,0.57,1.28,0.85    c0.33,0.06,0.65,0.12,0.98,0.18c1.08,0.3,1.93,0.15,3-0.18c0.76-0.14,1.52-0.28,2.27-0.43c1.75-0.34,3.42-0.71,5.1-1.32    c3.02-1.08,6.08-2.14,8.69-4.09c1.04-0.58,2.08-1.17,3.12-1.75c2.14-1.22,4.29-2.43,6.43-3.65c1.37-0.57,2.73-1.14,4.1-1.71    c2.13-1.71,4.27-3.41,6.4-5.12c-0.16-0.38,0.31-1.07,0.54-1.41c0.25-0.43,0.49-0.86,0.74-1.29c0.8-0.49,1.59-0.98,2.39-1.48    c1.67,0.21,3.34,0.41,5,0.62c1.22-0.28,3.35-1.68,4.55-1.28c0.99,0,1.85,2.42,2.74,3.06c1.12,0.07,2.25,0.14,3.37,0.21    c2.27,0.24,4.55,0.47,6.82,0.71c0.59,0.15,1.18,0.3,1.77,0.44c0.36-0.01,0.71-0.01,1.07-0.02c1.18,0.43,2.37,0.85,3.55,1.28    c1.33,0.57,2.65,1.14,3.98,1.71c0.8,0.8,2.74,1.24,3.84,1.71c2.58,1.1,5.63,2.22,8.53,1.45c0.82-0.18,1.1-1.17,1.62-1.66    L199.11,85.69z"/>
            <circle cx="161.77" cy="109.47" r="1.586"/>
        </g>
        <g id="__Kızıltepe">
            <path d="    M174.84,150.18l-0.13,0.43c-0.47-0.19-0.95-0.38-1.42-0.57c-1.79,0.17-3.57,0.25-5.41,0.28c-1.14-0.14-2.27-0.28-3.41-0.42    c-0.57-0.19-1.14-0.38-1.71-0.57c-1.35-0.16-2.62-0.08-3.99,0.02c-1.1,0.08-2.16-0.09-3.26,0.12c-2.28,0.43-4.29,2.2-6.29,3.21    l-0.54,0.14c1.01,0.1-0.26,1.45-0.31,2.02c-1.31,1.68-2.42,4.17-2.65,6.29c-0.22,2,1.4,3.77,1.26,5.68    c-0.38,0.57-0.76,1.14-1.14,1.71c-0.52,1.01-1.27,1.94-1.99,2.84c-0.28,0.19-0.57,0.38-0.85,0.57c-0.19,0.28-0.38,0.57-0.57,0.85    c-0.31-0.13-0.59,0.1-0.85,0.28c0.09,0.36-1.41,1.62-1.71,1.99c0.23,0.73-1.55,2.82-1.99,3.41c-0.33,0.52-0.66,1.04-1,1.56    c-0.28,0.59-0.55,1.17-0.83,1.76c-1.19,0.98-2.39,1.96-3.58,2.93c-0.26,0.32-0.61,0.41-0.98,0.62c-0.62,0.55-1.24,1.1-1.87,1.66    c0.02,0.46-1.8,1.65-2.22,2.05c-1.84,1.75-3.9,3.02-6.03,4.35c-0.54,0.51-1.07,1.02-1.61,1.54c-1.65,1.37-3.38,4.71-4.37,6.63    c-0.37,0.77-0.74,1.54-1.11,2.31c-0.47,0.68-1.19,1.29-1.87,1.75c-0.14,0.42-0.5,0.5-0.71,0.85c-0.34,0.58-0.76,0.99-1.23,1.47    c-0.78,0.88-1.55,1.77-2.33,2.65c-0.47,0.09-1.04,0.71-1.37,1.07c-0.11,0.12-0.23,0.24-0.34,0.36c-0.23-0.48-0.38-0.34-0.85-0.43    c-0.16-0.49-0.94-0.96-1.28-1.42c-0.4-0.3-0.81-0.6-1.21-0.89c-0.45-0.22-0.9-0.45-1.35-0.67c-0.19-0.19-0.38-0.38-0.57-0.57    c-1.01-0.48-2.26-1.39-3.41-1.14c-0.72,0.16-1.28,0.75-1.86,1.16c-0.71,0.5-1.64,0.31-2.41,0.26c0.04,0.5-0.41,0.61-0.71,1    c-0.19,0.71-0.38,1.42-0.57,2.13c0.05,0.81,0.09,1.61,0.14,2.42c-0.28,0.04-0.4,0.34-0.57,0.57c-0.19,0.03-0.39,0.07-0.58,0.1    l0.15,0.18c0.66,0.66,1.33,1.33,1.99,1.99c0.55,0.86,1.09,1.72,1.64,2.59c0.16,0.42,0.33,0.84,0.49,1.25    c0.16,1.23-0.24,2.46-0.06,3.67c0.02,2.05,0.04,4.1,0.06,6.14c0.27,1.33,0.53,2.65,0.8,3.98c0.19,0.64,0.58,1.36,1.01,1.86    c0.16,1.07,1.65,2.91,2.6,3.4c1.08,0.55,2.26,0.56,3.19,1.45c0.5,0.46,1,0.93,1.51,1.4c0.71,1.14,1.42,2.27,2.13,3.41    c-0.32,0.96-0.11,2.05,0.14,3.13c0.05,0.95,0.09,1.9,0.14,2.84c0.15,0.91,0.18,1.78,0.13,2.7c0,0.76,0.01,1.52,0.01,2.28    c0.24-0.09,0.47-0.19,0.71-0.28c0.52-0.47,1.04-0.95,1.56-1.42c1.37-0.33,2.75-0.66,4.12-1c0.9-0.43,1.8-0.85,2.7-1.28    c0.5-0.39,2.84-2.03,3.41-1.85c0.24-0.14,0.47-0.28,0.71-0.43c0.17-0.21,0.33-0.41,0.5-0.62c0.31-0.2,0.75-0.44,1.06-0.24    c0.95-0.62,1.9-1.23,2.84-1.85c1.76-1.35,3.52-2.71,5.28-4.06c0.54-0.19,1.42-0.54,1.97-0.35c0.57-0.24,1.14-0.47,1.71-0.71    c0.35-0.35,0.7-0.7,1.04-1.05c0.54-0.19,1.24-1.22,1.44-1.79c1.58-1.08,2.08-1.2,2.63-3.13c0.11-0.4,0.46-0.92,0.28-1.28    c0.86-1.29,1.75-2.75,2.84-3.84c0.35-0.4,0.7-0.79,1.05-1.19c0.66-0.34,1.31-0.68,1.97-1.01c2.82-1.3,5.99-0.97,8.86-1.63    c0.3,0.19,1.97-0.16,2.4-0.32c0.38,0.29,1.17,0,1.65-0.08c0.38-0.01,0.76-0.02,1.14-0.03c0.51-0.15,1.38-0.58,1.85-0.28    c0.24-0.1,0.48-0.2,0.72-0.3c0.33-0.09,0.66-0.18,0.99-0.27c0.47,0.08,0.93,0.15,1.4,0.23c0.53-0.17,1.06-0.34,1.59-0.52    c1.39,0.24,3.08,0.02,4.39-0.49c1.45-1,2.9-1.99,4.35-2.99c2-1.12,4.35-2.53,5.74-4.3c0.37-0.05,1.39-1,1.72-1.32    c0.28-0.19,0.57-0.38,0.85-0.57c1.47,0,2.98,0.18,4.38-0.03c0.76-0.12,1.28-0.39,1.88-0.82c0.2-0.2,0.41-0.41,0.61-0.61    c0.27-0.03,0.54-0.07,0.81-0.1c0.37-0.39,0.74-0.78,1.11-1.18c0.44-0.14,2.66-1.29,3.57-1.83c0.46-0.3,0.93-0.61,1.39-0.91    c1.25-0.58,2.49-1.16,3.74-1.74c1.12-0.98,2.64-2.58,3.98-3.16c0.81-0.35,1.86-0.01,2.7,0c1.19,0.02,3.44-2.01,4.41-1.28    c0.38-0.19,1.51-0.2,1.32-0.67l0.53-0.07c-1.22-0.47-2.16-2.82-2.57-3.95c-0.49-1.29-0.97-2.59-1.46-3.88    c-0.21-1-0.28-1.79-0.76-2.71c0.27-0.82,0.02-1.15-0.1-1.96c0.04-0.7,0.09-1.39,0.13-2.09c-0.26-0.72-0.52-1.44-0.79-2.16    c-0.18-2.18-0.79-3.16-2.27-4.69c-0.54-0.05-2.67-1.29-2.99-1.71c-0.59-0.79-0.5-2.35-1.28-3.13c0.09-0.28,0.19-0.57,0.28-0.85    c-0.14-0.71-0.28-1.42-0.43-2.13c-0.24-0.24-0.47-0.47-0.71-0.71c-0.09-0.66-0.19-1.33-0.28-1.99c-0.11-0.29-0.23-0.59-0.34-0.88    c-0.16-0.25-0.31-0.49-0.47-0.74c-0.19-0.56-0.39-1.13-0.58-1.69c-0.31-0.86-0.02-1.94-0.75-2.67c0.09-0.33,0.19-0.66,0.28-1    c-0.41-0.21-0.45-0.8-0.5-1.26c-0.05-0.4-0.28-0.35-0.64-0.45c-0.16-0.86-0.33-1.72-0.49-2.58c-0.12-0.77,0.67-1.42,1.34-1.83    c0.5,0.24,1.18-0.14,1.66-0.27c0.05-0.24,0.11-0.49,0.16-0.73c-0.13-0.71-0.27-1.42-0.4-2.13c0.6-1.23-0.06-2.79-0.57-3.98    c-0.28-0.43-0.57-0.85-0.85-1.28c-0.54-1.1-0.72-2.25-1.71-3.13c-0.68-0.46-1.36-0.93-2.04-1.39c-0.36-0.2-0.73-0.4-1.09-0.6    c-3.65-0.57-6.92,1.05-10.24,2.27c-0.28,0.14-0.57,0.28-0.85,0.43c-1.18,0.33-2.37,0.66-3.55,1    C177.06,149.64,176.11,150.18,174.84,150.18z"/>
            <circle cx="180.82" cy="183.4" r="1.586"/>
        </g>
    </g>
</svg>