<?xml version="1.0" encoding="UTF-8"?>
<!DOCTYPE svg PUBLIC "-//W3C//DTD SVG 1.1//EN" "http://www.w3.org/Graphics/SVG/1.1/DTD/svg11.dtd">
<svg version="1.1" id="HaritaCizim" xmlns="http://www.w3.org/2000/svg" x="0px" y="0px" viewBox="0 0 600 435" preserveAspectRatio="none">
    <defs id="__def">
        <radialGradient id="f">
            <stop offset="0" stop-color="white" stop-opacity="1"/>
            <stop id="STOP1" offset=".4" stop-opacity="1"/>
            <stop offset="1" stop-color="white" stop-opacity=".2"/>
        </radialGradient>
        <filter id="__flt1" x="0" y="0" width="200%" height="200%" filterUnits="objectBoundingBox">
            <feGaussianBlur in="SourceAlpha" stdDeviation="3" result="blur1"/>
            <feSpecularLighting result="specOut" in="blur1" specularConstant="1.5" specularExponent="20" lighting-color="#bbbbbb">
                <feDistantLight azimuth="45" elevation="30"/>
            </feSpecularLighting>
            <feComposite in="specOut" in2="SourceAlpha" operator="in" result="specOut"/>
            <feComposite in="SourceGraphic" in2="specOut" operator="arithmetic" k1="0" k2="1" k3="1" k4="0"/>
        </filter>
        <filter id="__flt2" x="0" y="0" width="200%" height="200%" filterUnits="objectBoundingBox">
            <feGaussianBlur in="SourceAlpha" stdDeviation="3" result="blur1"/>
            <feSpecularLighting result="specOut" in="blur1" specularExponent="20" lighting-color="#bbbbbb">
                <fePointLight x="-2000" y="100" z="2000"/>
            </feSpecularLighting>
            <feComposite in="specOut" in2="SourceAlpha" operator="in" result="specOut"/>
            <feComposite in="SourceGraphic" in2="specOut" operator="arithmetic" k1="0" k2="1" k3="1" k4="0"/>
        </filter>
        <filter id="__flt3" x0="-50%" y0="-50%" width="200%" height="200%" filterUnits="objectBoundingBox">
            <feGaussianBlur in="SourceAlpha" stdDeviation="3" result="blur"/>
            <feOffset in="blur" dx="0" dy="0" result="offsetBlur"/>
            <feSpecularLighting in="blur" surfaceScale="4" specularConstant=".5" specularExponent="20" lighting-color="flavor" result="specOut">
                <fePointLight x="-5000" y="-10000" z="5000"/>
            </feSpecularLighting>
            <feComposite in="specOut" in2="SourceAlpha" operator="in" result="specOut"/>
            <feComposite in="SourceGraphic" in2="specOut" operator="arithmetic" k1="0" k2="1" k3="1" k4="0" result="litPaint"/>
            <feMerge>
                <feMergeNode in="offsetBlur"/>
                <feMergeNode in="litPaint"/>
            </feMerge>
        </filter>
        <filter id="__flt4" x0="-50%" y0="-50%" width="200%" height="200%">
            <feGaussianBlur in="SourceAlpha" stdDeviation="2" result="blur"/>
            <feOffset dy="-1" dx="-1"/>
            <feComposite in2="SourceAlpha" operator="arithmetic" k2="-1" k3="1" result="hlDiff"/>
            <feFlood flood-color="white" flood-opacity=".7"/>
            <feComposite in2="hlDiff" operator="in"/>
            <feComposite in2="SourceGraphic" operator="over" result="withGlow"/>
            <feOffset in="blur" dy="3" dx="3"/>
            <feComposite in2="SourceAlpha" operator="arithmetic" k2="-1" k3="1" result="shadowDiff"/>
            <feFlood flood-color="black" flood-opacity="1"/>
            <feComposite in2="shadowDiff" operator="in"/>
            <feComposite in2="withGlow" operator="over"/>
        </filter>
        <filter id="__golge1" x="0" y="0" width="200%" height="200%" filterUnits="userSpaceOnUse">
            <feOffset result="offOut" in="SourceAlpha" dx="8" dy="8"/>
            <feGaussianBlur result="blurOut" in="offOut" stdDeviation="3"/>
            <feBlend in="SourceGraphic" in2="blurOut" mode="normal"/>
        </filter>
    </defs>
    <g id="__Komsular" display="none">
        <radialGradient id="SVGID_1_" cx="188.583" cy="250.5601" r="5.1983" gradientUnits="userSpaceOnUse">
            <stop offset="0" style="stop-color:#4262AD"/>
            <stop offset="1" style="stop-color:#FFFFFF"/>
        </radialGradient>
        <path fill-rule="evenodd" clip-rule="evenodd" fill="url(#SVGID_1_)" d="M183.42,245.34c0.41,0.31,0.59,0.4,0.59,0.94   c0.23,0.27,0.46,0.55,0.69,0.82c0.08,0.12,0.17,0.23,0.25,0.35c0.22-0.02,0.59-0.12,0.61,0.01c0.27,0.74,0.53,1.48,0.8,2.22   c0.55,0.43,1.1,0.86,1.64,1.29c0.16,0.39,0.31,0.78,0.47,1.17c0.65,0,0.5,0.04,0.7,0.59c0.54,0.27,1.21,0.33,1.57,0.88   c0.46,0.71,0.52,1.41,0.9,2.17c0.06-0.16,0.11-0.33,0.17-0.49c0.09-0.14,0.22-0.49,0.39-0.41c0.25,0.13-0.13,0.73,0.16,0.59   c0.15-0.06,0.3-0.11,0.45-0.17c0.21,0.06,0.42,0.12,0.63,0.18c0.1-0.13,0.33-0.37,0.26-0.51c-0.19-0.4-0.23-0.68,0.04-1.08   c-0.11,0.01-0.23,0.01-0.34,0.02c-0.11,0.01-0.22,0.03-0.33,0.04c-0.39-0.29-0.37-0.51-0.62-0.88c-0.2,0.08-0.39,0.16-0.59,0.23   c-0.74-0.41-1.44-0.78-2.11-1.29c-0.41-0.31-1.04-0.71-1.06-1.29c-0.16-0.2-0.31-0.39-0.47-0.59c-0.45-0.13-0.75-0.27-1.17-0.47   c-0.39-0.78-0.78-1.57-1.17-2.35c-0.2-0.08-0.39-0.16-0.59-0.23c-0.16-0.16-0.31-0.31-0.47-0.47c-0.29-0.44-0.58-0.87-0.88-1.31   C183.77,245.33,183.59,245.34,183.42,245.34z"/>
        <radialGradient id="SVGID_2_" cx="324.2036" cy="304.3599" r="7.8369" gradientTransform="matrix(1 0 0 0.5 0 152.1799)" gradientUnits="userSpaceOnUse">
            <stop offset="0" style="stop-color:#4262AD"/>
            <stop offset="0.0413" style="stop-color:#5471B5"/>
            <stop offset="0.1597" style="stop-color:#8196C8"/>
            <stop offset="0.283" style="stop-color:#A8B6D9"/>
            <stop offset="0.4096" style="stop-color:#C7D1E7"/>
            <stop offset="0.5404" style="stop-color:#E0E5F2"/>
            <stop offset="0.6774" style="stop-color:#F1F4F9"/>
            <stop offset="0.8246" style="stop-color:#FCFCFE"/>
            <stop offset="1" style="stop-color:#FFFFFF"/>
        </radialGradient>
        <path fill-rule="evenodd" clip-rule="evenodd" fill="url(#SVGID_2_)" d="M325.35,303.86c0.35-0.18,0.79-0.5,1.17-0.29   c0.06-0.11,0.12-0.21,0.18-0.32c0.17-0.36,0.93-1.15,0.64-1.56c0.14-0.11,0.56-0.5,0.65-0.41c0.1,0.1,0.19,0.19,0.29,0.29   c-0.1,0.31-0.2,0.61-0.3,0.92c0.15,0.26,0.91,0.94,0.79,1.07c-0.4,0.43-0.8,0.86-1.2,1.29c-0.7,0.82-1.43,2.04-2.7,2   c-0.29,0.16-1.15,0.79-1.49,0.52c-1.01-0.8-2.2-2.04-3-3.05c-0.13-0.16-0.95-0.86-0.88-1.1c0.11-0.33,0.23-0.53,0.5-0.74   c0.21-0.15,0.36-0.18,0.4-0.44c0.5,0,1.2-0.06,1.53-0.47c0.43,0.01,0.98,0.26,1.29-0.12c0.47,0.27,0.94,0.55,1.41,0.82   c0.17-0.03,0.33-0.06,0.5-0.09c-0.08,0.59,0.78,0.53,0.1,1.09c-0.06,0.04-0.11,0.08-0.17,0.12   C324.93,303.5,325.15,303.96,325.35,303.86z"/>
        <radialGradient id="SVGID_3_" cx="279.8262" cy="281.5591" r="317.3378" gradientTransform="matrix(0.9992 0.0408 -0.0204 0.4996 5.9833 129.4682)" gradientUnits="userSpaceOnUse">
            <stop offset="0" style="stop-color:#4262AD"/>
            <stop offset="1" style="stop-color:#FFFFFF"/>
        </radialGradient>
        <path fill-rule="evenodd" clip-rule="evenodd" fill="url(#SVGID_3_)"
              d="M549.31,242.41v143.06H50v-61.59l1.11,0.92   c0.96,0.74,1.25,1.73,1.8,2.78c0.34,0.64,1,0.6,1.3,1.07c0.14,0.22,0.04,0.74,0.15,1.02c0.11,0.28,0.28,0.45,0.41,0.69   c0.22,0.43,0.08,0.54,0.54,0.79c0.25,0.14,0.68,0.06,0.87,0.23c0.36,0.32,0.43,1.25,0.4,1.71c0.82,0.16,1.29-0.7,2.18-0.46   c0.46,0.12,0.32,0.34,0.68,0.49c0.33,0.14,0.82,0.05,1.18,0.07c0.05,0.05,0.1,0.1,0.16,0.16c0.06,0.42-0.41,0.62-0.31,1   c0.13,0.46,0.57,0.37,0.88,0.53c0.47,0.24,1.35,0.72,1.56,1.26c0.67-0.02,1,0.67,1.41,1.01c0.37,0.31,0.31,0.23,0.77,0.41   c0.36,0.14,0.78-0.19,0.72,0.46c0.84,0.27,1.7,0.45,2.39,0.97c0.37,0.28,0.5,0.73,0.82,1.06c0.31,0.32,0.69,0.46,0.99,0.72   c0.12,0.1,0.22,0.31,0.37,0.4c0.21,0.13,0.44,0.1,0.65,0.22c0.49,0.29,0.64,0.56,0.96,1.08c0.29,0.47,0.48,0.67,0.92,1.02   c0.5,0.39,0.55,0.13,0.48,0.94c0.83,0.04,1.62-0.25,1.88,0.7c0.6,0.03,1.3-0.08,1.85,0.1c0.11,0.26,0.34,0.4,0.63,0.39   c0.35,0.87,0.59,1.29,1.58,1.49c0.76,0.16,1.43,0.56,2.21,0.59c0.76,0.03,1.62-0.11,2.41-0.22c0.92-0.13,0.27-0.21,0.72-0.71   c0.22-0.25,0.88-0.23,1.01-0.39l-0.06-0.24c1.18,0.17,1.91,0.92,2.84,1.6c0.39,0.25,0.77,0.5,1.16,0.75   c0.22,0.32,0.45,0.64,0.67,0.96c0.28,0.37,0.85,0.72,0.98,1.15c0.44,0.18,0.88,0.36,1.32,0.54c0.34-0.12,0.66-0.12,0.91,0.17   c0.16,0,0.31,0,0.47,0c1.91,1.07,3.82,2.14,5.73,3.21c0.28,0.26,0.56,0.52,0.84,0.79c0.27,0.12,0.55,0.23,0.82,0.35   c0.35,0.2,0.7,0.39,1.06,0.59c0.39,0.08,0.43,0.63,0.82,0.7c-0.08,0.3,0.21,0.73,0.25,0.73c1.09,0.22,1.84-0.11,2.56,1.03   c0.39-0.16,0.78-0.31,1.17-0.47c0.67,0.16,1.33,0.31,2,0.47c0.51,0.74,0.23,1.02,1.19,0.96c0.21-0.01,0.3-0.06,0.46,0.1   c1.2-0.24,2.41-0.24,3.61,0.18c0.13,0.06,0.25,0.12,0.38,0.17c-0.01,0.16-0.03,0.32-0.04,0.48c0.18,0.05,0.37,0.11,0.55,0.16   c0.38-0.32,0.99-0.45,1.49-0.4c0.39,0.04,0.53,0.16,0.82,0.35c0.53-0.04,2.39,0.3,2.7,0.59c0.37-0.15,0.62-0.26,1.02-0.19   c0.94,0.17,2.78,0.96,3.67,0.78c0.29,0.31,0.63,0.75,1.06,0.82c0.42,0.87,0.38,0.87,1.41,1.06c-0.13-0.52-0.13-1.04,0.12-1.53   c0.12-0.04,0.23-0.08,0.35-0.12c-0.18-0.34,0.05-0.34,0.37-0.44c0.09-0.38,0.18-0.76,0.27-1.14c0.49-0.41,0.98-0.82,1.47-1.23   c1.2-0.58,2.53-0.85,3.63-1.65c0.26-0.19,0.71-0.87,0.71-1.16c0.67-0.67,1.33-1.33,2-2c0.12-0.4,0.37-0.68,0.67-0.97   c0.22-0.21,0.83-0.82,1.09-0.56c0-0.36,0.16-0.59,0.49-0.79c0.66-0.28,1.31-0.56,1.97-0.84c0.25-0.17,0.76-0.43,0.83-0.72   c0.59-0.16,1.17-0.31,1.76-0.47c0.63-0.33,1.25-0.66,1.88-0.99c0.3-0.04,0.6-0.09,0.9-0.14c0.13-0.1,0.26-0.19,0.39-0.29   c0.2,0.12,0.73,0.54,0.91,0.41c0.91-0.67,1.97-0.94,2.74-1.83c0.11-0.04,0-0.78,0.11-0.81c0.73-0.58,0.52-0.11,0.4-0.28   c0.06-0.1,0.13-0.2,0.19-0.3c0.24-0.17,0.49-0.34,0.73-0.51c0.08,0,0.15,0,0.23-0.01c0,0,3.68-0.35,4.68,1.32   c0.43-0.07,0.86-0.14,1.28-0.22c0.65,0.65,1.96,0.01,2.58,0.35c0.2-0.16,0.39-0.31,0.59-0.47c0.18,0.24,0.37,0.49,0.55,0.73   c0.36,0.1,0.71,0.19,1.07,0.29c0.34-0.13,0.68-0.25,1.02-0.38c0.41,0.39,1.01,1.56,1.7,1.12c0.01-0.06,0.02-0.13,0.04-0.19   c0.04-0.24,0.01-0.46,0.21-0.6c0.89-0.62,2.03,0.03,3.03,0c0.32-0.01,0.74,0.09,0.95-0.14c0.25,0.27,0.71,0.44,0.82,0.82   c0.37,0.11,1.71,0.45,2,0.35c0.31,0.51,0.63,1.02,0.94,1.53c0.38,0,0.9,0.2,1.17,0c0.1,0.24,0.21,0.49,0.31,0.73   c0.05,0.07,0.1,0.14,0.16,0.21c0,0.61-0.19,0.66-0.47,1.17c0.04,0.16,0.08,0.31,0.12,0.47c0.55-0.16,1.21-0.68,1.53-1.17   c-0.28-0.52-0.15-0.49,0.12-0.94c-0.11-0.27-0.09-0.44-0.35-0.59c0.21-0.56,0.52-1.19,1.17-1.29c0.04-1.35,0.53-1.46,1.5-2.31   c0.01-0.09,0.02-0.18,0.03-0.27c0.35-0.2,0.7-0.39,1.06-0.59c0.18-0.37,0.31-1.03,0.12-1.41c0.26-0.37,1.22-1.74,1.17-2.11   c0.55-0.74,1.1-1.49,1.64-2.23c0.8-0.54,1.56-0.81,2.47-1.06c0.22-0.11,0.44-0.22,0.65-0.32c0.54-0.15,1-0.06,1.57-0.01   c0.35-0.01,0.71-0.01,1.06-0.02c0.87,0.26,1.74,0.52,2.61,0.78c0.54,0.13,1.07,0.26,1.61,0.39l-0.27-0.03   c0.09-0.03,0.18-0.05,0.27-0.08c0.35,0.07,0.59,0.4,0.94,0.47c0.53,0.24,0.78,0.52,1.34,0.69c0.25-0.14,0.44-0.06,0.7,0.03   c0.86-0.57,1.34-0.36,2.31-0.36c0.2,0.16,0.39,0.31,0.59,0.47c0-0.45,0.89-0.55,1.29-0.47c0.23,0.12,0.47,0.23,0.7,0.35   c0.33-0.33,1.42-0.63,1.84-0.43c0.76-0.25,1.51-0.49,2.27-0.74c0.59,0.04,1.17,0.08,1.76,0.12c0.12,0.12,0.23,0.23,0.35,0.35   c0.01,0.12,0.02,0.24,0.03,0.37c0.85-0.16,1.7-0.32,2.55-0.48c0.27,0.08,0.55,0.16,0.82,0.23c0.51-0.29,0.99-0.6,1.61-0.58   c-0.03,0.08-0.05,0.15-0.08,0.23c0.09,0.03,0.18,0.07,0.26,0.1c0.32,0.1,0.7,0.22,1.03,0.01c0.51-0.39,1.02-0.78,1.53-1.17   c0.31-0.16,0.63-0.31,0.94-0.47c0.41-0.31,1.22-0.95,1.76-0.94c0.06-0.61,0.27-1.24,0.93-1.44c0.44-0.12,2.15-0.63,2.48-0.44   c0.46-0.14,0.91-0.29,1.18,0.07c0.14,0.21,0.04,0.13,0.35,0.17c0.06,0.36,0.04,0.76,0.23,1.06c-0.24,0.59-0.01,1.14,0.57,1.32   c0.37,0.13,1.25-0.01,1.54-0.26c0.41,0.12,0.82,0.24,1.23,0.36c0.43-0.29,1.13-0.11,1.51,0.2c0.61,0.51,0.59,1.09,0.85,1.79   c0.07,0.18,0.32,0.59,0.4,0.58c0.33-0.01,0.38,0.06,0.59-0.23c0.43-0.23,0.86-0.47,1.29-0.7c-0.04-0.44-0.01-0.67,0.23-1.06   c0.86-0.3,1.55-0.86,2.47-1.17c0.21-0.28,0.59-1.18,0.94-1.17c0.29,0.03,0.33,0.05,0.59-0.12c0.24,0.14,0.4,0.18,0.47,0.47   c0.04-0.02,0.07-0.03,0.11-0.05c0.26-0.11,1.04-0.68,1.19-0.65c0.14-0.31,0.12-0.41,0.47-0.47c0.01-0.26,0.08-0.4-0.12-0.59   c0.04,0,0.08,0,0.13,0c0.43,0.04,0.86,0.08,1.28,0.12c0.67-0.35,1.76-0.82,1.76-0.82c1.06-0.07,2.11-0.13,3.17-0.2   c0.32,0.03,0.63,0.06,0.95,0.08c-0.21,0-0.22-0.02-0.27,0.17c0.37,0.7,1.03,1.1,1.8,1.12c0.52,0.35,1.1,0.69,1.76,0.35   c0.52,0.25,1.09,0.6,1.64,0.59c0.42,0.42,0.62,0.71,1.17,0.94c0.63-0.12,1.25-0.23,1.88-0.35c0.02,0.1,0.04,0.2,0.07,0.3   c-0.18,0.23-0.24,0.27,0.04,0.39c0.12,0.06,0.23,0.12,0.35,0.18c0.19,0.13,1.67-0.68,1.66-0.29c-0.04,0.12-0.08,0.24-0.11,0.36   c0.16,0.31,0.31,0.63,0.47,0.94c-0.44,0.06-0.88,0.11-1.31,0.17c-0.11,0.29-0.59,1.39-0.22,1.5c0.64,0.21,0.29,0.44,1.19,0.44   c0.43-0.12,0.86-0.23,1.29-0.35c0.15,0.15,1.77,0.21,2,0.12c-0.13-0.25-0.35-0.44-0.04-0.57c0.21-0.05,0.42-0.09,0.63-0.14   c0-0.37-0.52-0.81-0.2-1.07c0.23-0.17,0.45-0.34,0.68-0.51c0.22-0.4,0.49-1.24,0.92-1.36c0.07-0.46,0.25-1.16-0.12-1.53   c0.07-0.31,0.18-0.5,0.12-0.82c0.45-0.33,1.71-0.88,1.63-1.53l-0.05-1.21c0.27-0.25,0.39-0.43,0.77-0.43   c0.28-0.48,0.51-0.91,0.93-1.28c0.26-0.02,1.38-1.05,1.42-1.3c0.37-0.12,1.21-0.27,1.41-0.59c0.67,0.06,1.26,0.14,1.91-0.03   c0.45,0.16,0.91,0.12,1.4-0.07c0.15-0.13,0.29-0.25,0.44-0.37c0.76-0.4,2.6-1.42,3.17-1.06c0.3,0.19,0.59,0.22,0.6,0.6   c0,0.23,0,0.47-0.01,0.7c0.5,0.17,0.71,0.14,0.77,0.7c0.12,1.23-0.67,3.1,0.29,3.88c0.15,0.41,0.39,0.67,0.23,1.06   c0.08,0,0.16,0.01,0.24,0.01c0.49,0.02,1.62,0.23,1.87-0.13c0.1,0.09,0.2,0.18,0.3,0.27c0.22,0.16,0.43,0.33,0.65,0.49   c0.02,0.57-0.39,0.7-0.71,1.12c-0.16,0.47-0.31,0.94-0.47,1.41c0.61,0.6,0.35,1.34,0.7,2c0.08-0.01,0.17-0.02,0.25-0.03   c0.23,0.05,0.46,0.1,0.69,0.15c0.5-0.11,0.99-0.23,1.49-0.34c0.2,0.14,0.11,0.15,0.28,0c0.87-0.76,1.17-1.34,1.16-2.48   c0-0.24,0.11-0.64-0.1-0.77c-0.34-0.22-1.34-0.63-0.71-0.98c-0.57-0.27-1.45-0.22-1.12-0.87c0.57-1,1.14-2.01,1.71-3.01   c0.54-0.51,1.09-1.02,1.63-1.53c0.41-0.45,1.11-1.42,1.77-1.4c0.39-0.47,0.78-0.94,1.17-1.41c0.47-0.27,0.94-0.55,1.41-0.82   c0.56-0.41,0.81-1,1.48-1.39c0.58-0.33,1.62-0.66,1.81-1.43c0.42-0.2,0.84-0.4,1.26-0.6c0.77-0.48,1.53-0.95,2.3-1.43   c0.5-0.15,0.99-0.29,1.49-0.44c0.52-0.36,1.05-0.72,1.57-1.07c0.81-0.78,1.61-1.55,2.42-2.33c0.14-0.4,0.11-0.93,0.47-1.17   c-0.2-0.42-0.07-1.7,0.38-1.96c0.46-0.21,0.92-0.41,1.38-0.62c0.17-0.49,0.35-0.98,0.52-1.47c-0.33-0.31-0.74-0.73-1.23-0.76   c-0.01-0.2-0.02-0.39-0.03-0.59c0.01-0.22-0.18-0.16,0.04-0.33c0.23-0.16,0.46-0.32,0.69-0.48c0.68-0.22,2.93,0.22,2.96-0.62   c0.07-0.07,0.14-0.13,0.21-0.2c-0.07-0.08-0.14-0.16-0.21-0.24c-0.43-0.48-0.92-0.58-1.55-0.71c-0.18-0.04-0.48-0.02-0.46-0.22   c0.02-0.22-0.01-0.94,0.23-0.94c0.69,0.02,1.72,0.11,2.12-0.36c0.23-0.19,0.46-0.39,0.69-0.58c0.35-0.45,0.7-0.9,1.05-1.34   c0.25-0.17,0.5-0.34,0.75-0.51c0.23-0.21,0.75-0.66,0.66-0.96c0.4-0.31,1.16-0.77,1.17-1.29c0.56-0.29,1.24-0.69,1.88-0.7   c0.22-0.49,0.43-1.35,1.04-1.23c0.08,0.02,0.17,0.04,0.25,0.06c0.34,1.21,1.1,0.98,1.76,1.88c-0.01,0.4-0.04,0.85,0.34,1.06   c0.2,0.08,0.4,0.16,0.6,0.23c0.22-0.19,0.81-0.93,1.06-0.72c0.51,0.45,2.53,2.18,3.05,2.25c0.42,0.43,0.87,0.83,1.12,1.39   c0.33,0.24,0.67,0.48,1,0.72c0,0.17,0.54,0.6,0.7,0.7c0.71,1.42,1.43,2.74,1.96,4.24c0.41,1.18,0.16,2.12-0.19,3.27   c-0.18,0.57,0.15,1.43,0.29,1.97c0.13,0.49,0.29,1.39,0.8,1.62c0.51,0.23,1.12,0.66,1.38-0.04c0.08-0.05,0.15-0.1,0.23-0.14   c-0.17-0.5,0.06-1.31,0.35-1.76c0-1.18,0.58-2.71,1.21-3.71c0.6-0.95,1.31-1.98,2.24-2.64c0.38-0.51,0.75-1.01,1.13-1.52   c0.67-0.78,1.33-1.57,2-2.35c0.43-0.38,0.86-0.76,1.29-1.14c0.31-0.21,0.63-0.41,0.94-0.62c0.61-0.17,1.23-0.26,1.84-0.13   c0.44,0.12,0.89,0.24,1.33,0.36c0.35,0.41,0.43,0.76,1,0.6c0.32-0.1,0.64-0.2,0.95-0.3c0.38-0.45,1.49-1.31,1.57-1.83   c2.78-1.96,3.5-4.17,3.76-7.4c0.1-1.27-0.21-2.61,0.25-3.81c-0.31-0.41-0.45-1.08-0.49-1.59c0.04-0.27,0.08-0.55,0.12-0.82   c-0.04-0.31-0.07-0.63-0.11-0.94c0.05-0.38,0.11-0.76,0.16-1.14c-0.06-0.68-0.11-1.35-0.17-2.03c0.08-0.51,0.15-1.02,0.23-1.53   c-0.01-0.57-0.34-1.53,0.12-2c0.02-0.3,0.03-0.6,0.05-0.91c0.24-0.4,1.09-1.13,1.13-1.44c0.32,0,0.66-0.04,0.82,0.23   c0.04-0.04,0.08-0.08,0.12-0.12c0.18-0.71,0.75-1.09,1.5-1.24c0.18-0.21,0.45-0.34,0.73-0.29c0.51-0.67,1.02-1.33,1.53-2   c-0.25-0.25-0.03-0.47-0.35-0.7c0.13-0.09,0.26-0.18,0.39-0.26c0.44-0.25,1.14-0.68,1.14-1.26c0.14-0.06,0.3-0.16,0.45-0.22   c-0.19-0.31,0.16-0.61,0.27-0.64c0.71-0.17,0.95-0.69,1.5-1.14c0.23-0.22-0.03-0.91,0.26-0.95c0.29-0.03,1.74-0.18,1.74,0.02   l0.7-1.41c0.64-0.04,1.41-0.06,2-0.35c0.08-0.12,0.16-0.23,0.23-0.35c0.29,0.2,0.39,0.07,0.69-0.07c0.12-0.06,0.24-0.11,0.36-0.17   c0.14-0.43,0.68-2.19,0.48-2.52c0.12-0.33,0.24-0.66,0.36-0.99c0.15-0.41,0.75-0.37,1.15-0.48c0.03-1.17,0.8-1.94,1.41-2.82   c0.27,0.17,0.55-0.09,0.82-0.23c0.01-0.39,0.46-0.75,0.7-1.06c0.41-0.42,0.81-0.83,1.22-1.25c0.27-0.22,0.19-0.53,0.19-0.86   c0.51-0.23,1.02-0.47,1.53-0.7c0-0.33,0.36-0.37,0.59-0.59c0.41-0.4,1.39-1.53,1.88-1.53c0.53-0.74,1.17-1.89,1.17-2.82   c0.58-0.91,0.96-1.85,1.64-2.7c0.12-0.43,0.23-0.86,0.35-1.29c1.45,0,2.2-2.53,3.29-3.29c0.49-0.34,0.81-0.66,1.41-0.82   c0.67-0.91,1.91-2.32,2.93-2.82c0.2-0.12,0.39-0.23,0.59-0.35c0.21,0.11,0.49,0.03,0.7-0.12c0.95-0.67,1.93-1.04,2.97-1.49   c0.5-0.2,0.37-0.68,0.55-1.21c0.4,0,0.59,0.09,0.95,0.18c0.07,0.02,0.15,0.04,0.22,0.06c-0.44-0.5,0.21-1.42,0.58-1.89   c1.02-1.3,2.58-2.35,3.91-3.37c1.41-0.78,2.83-1.56,4.24-2.34c0.61-0.44,1.23-0.88,1.84-1.32c0.82-0.43,1.64-0.86,2.47-1.29   c0.58-0.27,1.16-0.54,1.73-0.8c0.87-0.32,1.74-0.64,2.61-0.96c0-0.34,0.23-0.46,0.47-0.7c0-0.61,0.55-1.27,0.85-1.75   c0.34-0.59,0.68-1.18,1.02-1.78c0.43-0.43,0.86-0.86,1.29-1.29c0.03-0.11,0.06-0.22,0.09-0.33c0.09-0.12,0.18-0.25,0.26-0.37   l-0.09-0.3c0.24,0.48,0.82-0.27,1.03-0.52c0.39-0.07,0.67-0.45,0.94-0.71c0.27-0.19,0.55-0.39,0.82-0.58   c0.23-0.51,0.47-1.02,0.7-1.53c0.71,0.12,2.51-1.4,3.29-1.76c0.27-0.16,0.55-0.31,0.82-0.47c0.39-0.08,0.78-0.16,1.17-0.23   c0.31-0.43,0.63-0.86,0.94-1.29c0.56-0.05,0.91-0.41,1.37-0.68c0.48-0.21,0.96-0.43,1.45-0.64c0.2-0.15,0.39-0.29,0.59-0.44   c0.57,0.32,1.7-0.47,2.17-0.78c0.11-0.32,0.21-0.65,0.32-0.97c0.32-0.32,0.51-0.53,0.68-0.95c0.42-0.3,0.39-0.74,0.23-1.17   c0.29-0.23,0.19-0.36,0.23-0.7c0.27-0.39,0.55-0.78,0.82-1.17l0-0.12c0,0.61,0.87-0.58,1.06-0.82c0.31,0.02,0.34-0.07,0.59-0.23   c0.42,0.22,0.98-0.32,1.29-0.59c0.41,0,0.18-0.28,0.47-0.47c0.35-0.12,0.7-0.25,1.05-0.37c0.36-0.19,0.71-0.38,1.07-0.57   c0.51-0.08,1.02-0.16,1.53-0.23c1.68-0.2,2.59-0.21,3.93-1.24l0.42-0.15c0.19-0.16,0.39-0.33,0.58-0.49c0.2-0.01,0.4-0.03,0.6-0.04   c-0.02-0.14-0.04-0.28-0.07-0.42c0.12-0.25-0.45,0.11-0.53,0.23c0.02-0.08,0.04-0.16,0.06-0.24c0.05-0.23,0.51-0.65,0.76-0.82   c0.05-0.13,0.1-0.26,0.16-0.39c0.18-0.1,0.36-0.21,0.55-0.32c0-0.2,0-0.39,0-0.59c0.04,0.03,0.08,0.06,0.12,0.08   c0.08,0.05,0.15,0.1,0.23,0.15c0.19-0.49,0.33-0.47,0.82-0.47c0.2-0.23,0.39-0.47,0.59-0.7c0.08,0.07,0.15,0.15,0.23,0.22   c0.1,0.11,0.2,0.22,0.3,0.34c0.17-0.07,0.35-0.14,0.52-0.21c0-0.81,0.37-0.59,0.47-1.17c0.2,0.03,0.39,0.06,0.59,0.1   c0.24,0.04,0.15,0.49-0.12,0.49c0.43,0.04,1.2,0.09,1.53-0.23c0.61,0,1.75,0.08,2.11-0.47c0.31,0.08,0.63,0.16,0.94,0.23   c0.43-0.04,0.86-0.08,1.29-0.12c0.18,0.18,0.79,0.26,1.06,0.23c0.31-0.08,0.63-0.16,0.94-0.23c0.32-0.05,0.69,0.14,0.94-0.12   c0.5,0,2.04-0.05,2.35-0.35c0.63-0.12,1.25-0.23,1.88-0.35c0.72,0.12,1.3,0,2,0c0.51,0.04,1.02,0.08,1.53,0.12   c0.38,0.38,1.09,0.16,1.52,0.26c1.22,0.27,2.43,0.53,3.65,0.8c0.47,0.16,0.94,0.31,1.41,0.47c1.2,0.47,2.35,0.82,3.56,1.33   c0.38,0.14,0.76,0.29,1.14,0.43c0.55,0.35,1.1,0.7,1.64,1.06c0.16,0.11,0.59,0.23,0.6,0.12c0,0.01,0,0.02,0,0.02   c0.31,0.9,1.23,0.97,1.98,1.38c1.11,0.76,2.23,1.52,3.34,2.28c0.39,0.2,1.89,1.42,2,1.78c2.32,2.18,3.35,4.64,4.76,7.39   c1.44,2.81,3.87,0.75,6.28,1.36c0.58,0.15,1.1,0.47,1.72,0.57c1.29,0.21,2.64,0.05,3.91,0.31c1.18,0.24,2.42,0.97,3.38,1.55   c2.15,1.31,4.31,2.27,6.55,3.46c2.12,1.12,4.12,2.37,6.26,3.39c0.64,0.3,1.39,0.54,1.96,0.94c0.54,0.37,0.81,0.93,1.41,1.29   c1.03,0.62,2.23,1.36,3.27,1.92c0.47,0.25,1.13,0.38,1.57,0.7c0.55,0.41,0.9,0.86,1.58,1.16c1.21,0.54,2.27,1.2,3.27,1.83   c1.14,0.72,1.94,1.45,3.21,1.95c1.11,0.44,2.13,1.13,3.15,1.72c1.1,0.63,2.24,1.18,3.21,1.95c0.99,0.79,2.29,0.91,3.3,1.53   c0.9,0.54,1.77,0.75,2.72,1.1c0.94,0.35,1.82,0.83,2.74,1.19c1.05,0.41,1.76,1.08,2.64,1.65c0.43,0.28,0.94,0.55,1.37,0.84   L549.31,242.41z"/>
        <radialGradient id="SVGID_4_" cx="482.8145" cy="157.561" r="8.2863" gradientTransform="matrix(0.4152 -0.9097 0.4549 0.2076 210.6781 564.0804)" gradientUnits="userSpaceOnUse">
            <stop offset="0" style="stop-color:#4262AD"/>
            <stop offset="0.1887" style="stop-color:#788FC4"/>
            <stop offset="0.3821" style="stop-color:#A8B7D9"/>
            <stop offset="0.5661" style="stop-color:#CED6EA"/>
            <stop offset="0.7357" style="stop-color:#E9EDF5"/>
            <stop offset="0.8856" style="stop-color:#F9FAFC"/>
            <stop offset="1" style="stop-color:#FFFFFF"/>
        </radialGradient>
        <path fill="url(#SVGID_4_)" d="M486.62,156.8c-0.42,0.34-1.64,0.76-2.2,0.74c-0.2,0.23-0.39,0.47-0.59,0.7   c0.06,0.06,0.11,0.13,0.17,0.19c0.23,0.25,0.65,0.77,1.01,0.74c0,0.08,0,0.16,0,0.23c0.03,0.08,0.05,0.17,0.08,0.25   c-0.52,0.22-1.18,0.75-1.13,1.39c0.09-0.06,0.18-0.12,0.27-0.18c0.07-0.06,0.13-0.12,0.2-0.18c0.26,0,0.4,0.08,0.59-0.12   c0.03,0.08,0.06,0.16,0.08,0.24c0.1,0.35,0.16,1.05-0.08,1.16c-0.5,0.21-0.99,0.43-1.49,0.64c-0.28,0.04-0.56,0.08-0.84,0.12   c-0.29,0.15-0.77,0.31-0.72,0.66c-0.26-0.03-0.52-0.06-0.7-0.23c-0.2,0.02-0.4,0.04-0.61,0.06c-0.07-0.35-0.29-0.23,0.01-0.52   c0.16-0.16,0.32-0.32,0.47-0.47c0.82-0.27,1.73-0.42,1.76-1.53c0.01-0.3,0.26-0.59-0.01-0.81c-0.21-0.13-0.17-0.04-0.11-0.37   c-0.11,0.05-0.21,0.11-0.32,0.16c-0.09-0.01-0.18-0.03-0.27-0.04c-0.29,0.31-0.74,0.61-0.7,1.06c-0.66,0.23-1.33,0.46-1.99,0.69   c-0.21,0.02-0.11,0.29-0.34,0.21c-0.52-0.2-1.74-0.8-0.68-1.08c0.18-0.06,0.3-0.17,0.48-0.02c0.11,0.1,0.25,0.35,0.39,0.26   c0.58-0.41,1.62-1.01,1.55-1.73c0.04-0.07,0.09-0.14,0.13-0.22c-0.14-0.05-0.87-0.22-0.81-0.4c0.02-0.07,0.04-0.14,0.07-0.21   c-0.07-0.07-0.13-0.15-0.2-0.22c0.04,0,0.07-0.01,0.11-0.01c0.42-0.05,0.59,0.07,0.87-0.26c0.3-0.39,0.66-0.82,0.66-1.37   c0.23,0.04,0.47,0.08,0.7,0.12c0.2-0.04,0.39-0.08,0.59-0.12c0.24-0.37,0.81-0.76,0.35-1.17c0.28-0.34,0.64-1.05,1.06-1.17   c0.08-0.35,0.18-1.19-0.07-1.14c-0.91,0.21-1.06,1-2.04,0.32c0.45-0.1,0.8-0.2,1.17-0.47c0-0.31,0.21-0.52,0.47-0.7   c0.15-0.1,0.8-0.4,0.87-0.26c0.09,0.19,0.09,0.3,0.31,0.37c0.1,0.4,0.07,1.13,0.35,1.41c-0.23,0.47-0.47,0.94-0.7,1.41   c0.08,0.21,0.22,0.37,0.12,0.59c0.03-0.01,0.07-0.02,0.1-0.03c0.65-0.19,1.02-0.48,1.7-0.18c0.05-0.02,0.1-0.03,0.15-0.05   c-0.12,0.24-0.17,0.2-0.07,0.5c-0.19,0.09-0.59,0.23-0.54,0.42c0.15,0.4,0.13,0.54,0.66,0.4   C486.79,156.66,486.7,156.73,486.62,156.8z"/>
        <path fill-rule="evenodd" clip-rule="evenodd" fill="none" stroke="#000000" stroke-miterlimit="10" d="M82.05,252.86   c-1.08-1.58-3-2.86-4.32-4.37c-0.56-0.64-1.2-1.52-1.43-2.32c-0.28-0.94,0-2-0.33-2.93c-0.34-0.98-1.13-1.35-1.64-2.26   c-0.43-0.77-0.43-1.73-0.61-2.56c-0.38-1.74-1.38-3.26-1.29-5.16c0.05-1.06,0.42-2.09,0.47-3.17c0.06-1.11-0.28-1.99-0.5-3.03   c-0.21-1.02-0.64-1.7-1.03-2.61c-0.34-0.77-0.16-2.38-0.92-2.83c-0.4-1.22-0.59-2.6-1.27-3.75c0.74,0.01,1.56-0.31,2.3-0.46"/>
        <path fill-rule="evenodd" clip-rule="evenodd" fill="none" stroke="#000000" stroke-miterlimit="10" d="M378.23,104.71   c-1.33-1.4-3.43-2.19-4.43-3.79c-0.93-1.48-2.31-2.76-3.17-4.34c-0.85-1.56-2.09-2.96-3.08-4.44c-1.04-1.55-2.56-2.88-3.52-4.34   c-0.81-1.25-1.72-2.28-2.62-3.49c-0.42-0.56-0.61-1.14-1.23-1.59c-0.52-0.38-1.53-0.38-1.69-1.12c-0.96-0.34-1.71-0.83-2.68-1.08   c-1.12-0.28-1.45-0.81-2.44-1.29c-1.38-0.68-4.1-0.36-5.66-0.59c-3.79-0.56-7.46-0.62-10.92-2.14c-0.83-0.36-2.05-1.08-2.6-1.73   c-0.41-0.49-1.33-1.78-1.39-2.23"/>
        <path fill-rule="evenodd" clip-rule="evenodd" fill="none" stroke="#000000" stroke-miterlimit="10" d="M404.88,71.01   c0-2.18-0.6-3.67-1.52-5.51c-0.44-0.88-0.64-1.64-1.15-2.47c-0.48-0.77-1.21-1.31-1.76-2.02c-2.37-3.05-5.53-5.22-8.71-7.14   c-1.34-0.81-5.16-1.91-4.93-3.87"/>
        <path fill-rule="evenodd" clip-rule="evenodd" fill="none" stroke="#000000" stroke-miterlimit="10" d="M464.75,63.73   c1.82-2.28,3.52-5.2,6.25-6.57c1.36-0.69,3.69-0.34,4.79-1.4c1.19-1.14,0.35-3.53,0.35-5.05"/>
        <text transform="matrix(0.4143 0.9101 -0.9101 0.4143 535.4517 119.5879)" font-family="'MyriadPro-Regular'" font-size="12">ADANA</text>
        <text transform="matrix(1 0 0 1 427.8892 55.9863)" font-family="'MyriadPro-Regular'" font-size="12">NİĞDE</text>
        <text transform="matrix(0.6943 -0.7197 0.7197 0.6943 374.4307 82.4048)" font-family="'MyriadPro-Regular'" font-size="12">KONYA</text>
        <text transform="matrix(0.9473 -0.3202 0.3202 0.9473 210.8945 146.2817)" font-family="'MyriadPro-Regular'" font-size="12">KARAMAN</text>
        <text transform="matrix(0.1448 -0.9895 0.9895 0.1448 63.1484 299.7778)" font-family="'MyriadPro-Regular'" font-size="12">ANTALYA</text>
    </g>
    <g id="__Harita" fill="white" stroke="#000000" stroke-width="0.25" stroke-miterlimit="10" display="none">
        <rect id="__cer" x="0" y="0" fill="#000000" opacity="0" width="600" height="435"/>
        <g id="__Anamur">
            <path d="    M119.96,263.48c-0.42-0.35-0.93-0.43-1.46-0.53c-1.02-0.37-2.04-0.74-3.06-1.1c0.15,0.05-1.35-0.33-3.16-1.13    c-1.36-0.68-3.33-1.55-4.81-1.88c-0.43-0.16-0.86-0.32-1.29-0.48c-1.6-0.42-3.2-0.83-4.8-1.25c-0.72-0.3-1.44-0.59-2.16-0.89    c-1.12-0.16-2.25-0.31-3.37-0.47c-0.82-0.14-1.65-0.29-2.47-0.43c-0.35,0.04-0.7,0.08-1.06,0.12c-0.59,0.08-1.17,0.16-1.76,0.23    c-1.44,0-2.97-0.21-4.23-0.94c-0.34-0.09-0.68-0.18-1.02-0.27c-0.52-0.18-1.04-0.37-1.57-0.55c-0.29-0.22-2.07-1.38-1.94-0.82    c0.27,1.15-0.25,2.37-0.31,3.51c0,0.74,0.01,1.49,0.01,2.23c0.08,0.31,0.16,0.63,0.23,0.94c-0.04,0.55-0.08,1.1-0.12,1.64    c0,0.69,0.22,1.31-0.07,1.97c0.4,0.79,0.81,1.59,1.21,2.38c0.22,0.81,0.43,1.63,0.65,2.44c0.54,1.23,0.96,2.53,1.5,3.77    c0.58,1.34,1.68,2.33,2.39,3.55c0.54,0.93,0.8,1.99,1.11,3.02c0.13,0.35,0.25,0.71,0.37,1.06c0.82,1.65,1.64,3.3,2.46,4.95    c0.44,1.72,0.71,3.48,0.92,5.25c0.17,1.02,0.33,2.04,0.5,3.06c0,2.23,0.01,4.46,0.01,6.68c0.15,1.18,0.3,2.35,0.45,3.53    c0.09,0.31,0.17,0.62,0.26,0.93c0.12,0.92,0.24,1.85,0.36,2.77c-0.27,1.69-0.54,3.39-0.8,5.08c-0.53,1.3-1.05,2.6-1.58,3.9    c-0.92,0.69-3.17,1.42-3.17,2.7c0.08,0.59,0.16,1.17,0.23,1.76c-0.24,1.42-0.64,2.84-1.17,4.11c-0.08,0.55-0.16,1.1-0.23,1.64    c0.12,0.9,0.23,1.8,0.35,2.7c0.05,1.17,0.11,2.33,0.16,3.5c-0.17,1.18-0.34,2.37-0.51,3.55c0.02,0.36,0.04,0.72,0.06,1.08    c-0.14,1.06,0.13,2.08,0.18,3.15c-0.04,0.59-0.08,1.17-0.12,1.76c0.01,0.44-0.2,1.36,0.12,1.65c-0.3,0.36-0.62,0.58-0.99,0.87    c-0.22,0.41-0.44,0.83-0.65,1.24c0,0.23,0,0.47,0,0.7c1.18,0.17,1.91,0.92,2.84,1.6c0.39,0.25,0.77,0.5,1.16,0.75    c0.22,0.32,0.45,0.64,0.67,0.96c0.28,0.37,0.85,0.72,0.98,1.15c0.44,0.18,0.88,0.36,1.32,0.54c0.34-0.12,0.66-0.12,0.91,0.17    c0.16,0,0.31,0,0.47,0c1.91,1.07,3.82,2.14,5.73,3.21c0.28,0.26,0.56,0.52,0.84,0.79c0.27,0.12,0.55,0.23,0.82,0.35    c0.35,0.2,0.7,0.39,1.06,0.59c0.39,0.08,0.43,0.63,0.82,0.7c-0.08,0.3,0.21,0.73,0.25,0.73c1.09,0.22,1.84-0.11,2.56,1.03    c0.39-0.16,0.78-0.31,1.17-0.47c0.67,0.16,1.33,0.31,2,0.47c0.51,0.74,0.23,1.02,1.19,0.96c0.21-0.01,0.3-0.06,0.46,0.1    c1.2-0.24,2.41-0.24,3.61,0.18c0.13,0.06,0.25,0.12,0.38,0.17c-0.01,0.16-0.03,0.32-0.04,0.48c0.18,0.05,0.37,0.11,0.55,0.16    c0.38-0.32,0.99-0.45,1.49-0.4c0.39,0.04,0.53,0.16,0.82,0.35c0.53-0.04,2.39,0.3,2.7,0.59c0.37-0.15,0.62-0.26,1.02-0.19    c0.94,0.17,2.78,0.96,3.67,0.78c0.29,0.31,0.63,0.75,1.06,0.82c0.42,0.87,0.38,0.87,1.41,1.06c-0.13-0.52-0.13-1.04,0.12-1.53    c0.12-0.04,0.23-0.08,0.35-0.12c-0.18-0.34,0.05-0.34,0.37-0.44c0.09-0.38,0.18-0.76,0.27-1.14c0.49-0.41,0.98-0.82,1.47-1.23    c1.2-0.58,2.53-0.85,3.63-1.65c0.26-0.19,0.71-0.87,0.71-1.16c0.67-0.67,1.33-1.33,2-2c0.12-0.4,0.37-0.68,0.67-0.97    c0.22-0.21,0.83-0.82,1.09-0.56c0-0.36,0.16-0.59,0.49-0.79c0.66-0.28,1.31-0.56,1.97-0.84c0.25-0.17,0.76-0.43,0.83-0.72    c0.59-0.16,1.17-0.31,1.76-0.47c0.63-0.33,1.25-0.66,1.88-0.99c0.3-0.04,0.6-0.09,0.9-0.14c0.13-0.1,0.26-0.19,0.39-0.29    c0.2,0.12,0.73,0.54,0.91,0.41c0.91-0.67,1.97-0.94,2.74-1.83c0.11-0.04,0-0.78,0.11-0.81c0.73-0.58,0.52-0.11,0.4-0.28    c0.06-0.1,0.13-0.2,0.19-0.3c0.24-0.17,0.49-0.34,0.73-0.51c0.08,0,0.15,0,0.23-0.01c0.58-1.46-0.36-2.42-1.32-3.46    c-0.26-0.28-0.35-0.7-0.7-0.83c-0.3-1.03-0.38-2.01-0.59-3.05c-0.43-1.02-0.86-2.04-1.29-3.05c-0.34-0.61-0.64-2.34-1.29-2.7    c-0.04-0.23-0.08-0.47-0.12-0.7c0.14-0.81,0.08-1.54,0-2.35c0.15-0.25,0.3-0.5,0.45-0.76c0.5-0.8,0.92-1.36,1.1-2.31    c0.01-0.37,0.03-0.74,0.04-1.11c-0.31-0.44-0.63-0.88-0.94-1.31c-0.21-0.22-0.54-0.33-0.65-0.62c-0.77-0.17-1.87-0.01-2.26-0.74    c-0.15-0.29-0.44-0.75-0.43-1.02c0.18-1.9,1.11-2.55,2.45-3.76c0.45-0.41,0.29-1.19,0.7-1.53c-0.12-0.82-0.23-1.64-0.35-2.47    c-0.08-0.9-0.16-1.8-0.24-2.7c-0.01-0.77-0.02-1.55-0.04-2.32c-0.04-0.27-0.06-0.46-0.31-0.61c-0.27-0.76-0.67-1.82-0.22-2.58    c0.71-1.26,2.1-1.68,2.73-3.08c0.16-0.07,0.59-0.86,0.5-0.99c-0.25-0.25-0.5-0.51-0.75-0.76c-0.44-0.03-0.88-0.05-1.31-0.08    c-0.27,0.03-0.55,0.07-0.82,0.1c-0.16-0.08-0.31-0.16-0.47-0.23c-0.47-0.04-0.94-0.08-1.41-0.12c-0.31-0.12-0.63-0.23-0.94-0.35    c-0.59,0-1.17,0-1.76,0c-1.16-0.32-2.33-0.65-3.49-0.97c-0.56-0.26-1.12-0.53-1.67-0.79c-0.28-0.3-0.57-0.59-0.85-0.89    c-0.38-0.56-0.76-1.13-1.15-1.69c0-0.69-0.43-1.54-0.82-2.11c-0.08-0.29-0.16-0.58-0.23-0.88c-1.2-1.88-2.4-3.76-3.6-5.65    c-0.42-0.61-0.82-1.25-1.39-1.73c-0.53-0.45-1.13-0.7-1.58-1.25c-0.22-0.4-0.45-0.79-0.67-1.19c-0.8-1-1.6-1.86-2.15-3.03    c-0.58-1.65-1.16-3.31-1.74-4.96c-0.13-0.54-0.25-1.08-0.37-1.61c-0.52-1.41-1.17-2.8-1.29-4.33c-0.11-1.43-0.26-2.71-0.52-4.12    C119.97,264.31,119.97,263.9,119.96,263.48z"/>
            <circle cx="133.53" cy="351.82" r="1.586"/>
        </g>
        <g id="__Gülnar">
            <path d="    M269.16,315.57c-0.04-0.32,0-0.64-0.27-0.84c0.04-0.23,0.08-0.47,0.12-0.7c-0.04-0.2-0.08-0.39-0.12-0.59    c-0.52-0.98-1.04-1.95-1.56-2.93c-0.14-0.28-0.37-1.01-0.21-1.29c-0.16-0.35-0.31-0.7-0.47-1.06c-0.6-0.42-2.57-1.42-2.78-1.94    c-0.08-0.23-0.07-0.38-0.27-0.53c0.03-0.58,0.05-1.17,0.08-1.75c-0.06-0.51-0.13-1.02-0.19-1.53c-0.68-1.72-2.08-3.05-2.58-4.81    c-0.23-0.59-0.47-1.17-0.7-1.76c-0.98-0.91-1.17-1.24-1.17-2.58c-0.7-0.63-1.43-1.23-2-2c-0.63-1.29-1.25-2.58-1.88-3.87    c-0.22-0.74-0.22-1.48-0.25-2.23c0-0.31,0.01-0.63,0.01-0.94c0.72-1.51,1.77-2.8,2.76-4.15c0.53-0.61,1.06-1.23,1.59-1.84    c0.87-1.43,2.05-2.66,3.16-3.88c0.29-0.32,1.62-1.83,1.53-2.34c0.08-0.22,0.27-0.25,0.35-0.47c0.07-0.02,0.17-0.12,0.23-0.35    c-0.65-0.73-2-0.86-2.96-1.37c-0.38-0.17-0.77-0.34-1.15-0.51c-0.81-0.67-1.78-1.02-2.72-1.49c-0.26-0.13-0.77-0.41-1.04-0.27    c-0.81-0.49-1.62-0.98-2.43-1.47c-0.74-0.44-1.42-1.34-2.39-0.87c-0.99-0.12-1.64,0.14-2.58,0.25c-0.33,0.04-0.97,0.01-1.17,0.22    c-0.55-0.2-1.1-0.39-1.64-0.59c-1.52,0.04-3.05,0.08-4.57,0.13c-0.71,0.19-1.41,0.39-2.12,0.58c-1.17-0.04-2.35-0.08-3.52-0.12    c-0.77,0.05-1.54,0.11-2.31,0.16c-2.12-0.01-4.24-0.02-6.36-0.03c-0.56,0.13-1.12,0.27-1.67,0.4c-0.58,0.03-1.08-0.14-1.61-0.34    c-0.23-0.09-0.61-0.32-0.83-0.19c-0.71-0.41-1.2-1.03-1.78-1.61c-0.47-0.07-1.05-0.87-1.16-1.32c-0.92-0.75-1.94-1.24-2.47-2.35    c-0.18-0.39-0.62-0.51-0.7-0.94c-0.31-0.2-0.63-0.39-0.94-0.59c-2.29-0.96-4.68,0.13-6.84-1.44c-0.19-0.2-0.37-0.41-0.56-0.61    c-0.45-0.55-0.76-1.49-1.52-1.7c-0.78-1.09-1.53-3.02-2.73-3.57c-0.25-0.53-0.91-0.75-1.46-0.71c-0.78,0.09-1.49,0.62-2.22,1.03    c-0.37,0.14-0.73,0.28-1.1,0.41c-0.4,0.28-0.95,0.62-1.25,0.22c-0.63-0.93-1.36-1.99-1.93-3.03c-0.31-0.39-0.63-0.78-0.94-1.17    c-0.25-0.23-1.34-1.37-1.49-0.82c-0.18,0.61,0.15,1.29-0.33,1.72c-0.22,0.2-0.52,0.56-0.88,0.49c-0.82-0.13-1.99-0.4-2.58-1.03    c-0.31-0.06-0.62-0.12-0.93-0.18c-0.5-0.15-0.8-0.5-1.32-0.65c-0.47-0.53-0.98-0.77-1.65-1.04c-0.32-0.44-0.85-0.69-1.33-0.93    c-0.3-0.15-0.45-0.29-1.11-0.48c-0.18-0.04-0.29-0.08-0.47-0.12c-0.21-0.24-0.5,0-0.7-0.23c-0.78-0.19-1.56-0.37-2.33-0.56    c-0.86-0.04-1.72-0.08-2.58-0.11c-0.61-0.06-2.18,0.13-2.6,0.55c-1.24-0.19-2.09-0.07-3.29,0.23c-0.57,0.14-1.24,0.9-1.76,0.82    c-0.23,0.42-0.56,1.06-1.06,1.17c-0.2,0.23-0.39,0.47-0.59,0.7c-0.12,0.35-0.23,0.7-0.35,1.06c-0.53,0.48-0.85,2.42-0.87,3.17    c-0.03,1.63,0.45,3.03,0.87,4.57c0.33,1.69,0.67,3.37,1,5.06c0.19,1.96-0.4,3.55-0.77,5.4c-0.12,0.57-0.78,1.7-0.62,2.16    c0.01,0.1,0.02,0.21,0.03,0.31c0.48,0.5,0.95,1,1.43,1.5c0.34,0.56,0.69,1.11,1.03,1.67c0.47,1.25,0.94,2.5,1.41,3.76    c0.65,1.03,1.3,2.06,1.95,3.1c0.41,1.08,0.81,2.16,1.22,3.24c-0.06,0.93-0.28,1.79-0.39,2.71c-0.03,0.78-0.05,1.56-0.08,2.34    c-0.08,0.39-0.16,0.78-0.23,1.17c-0.01,0.93-0.02,1.86-0.03,2.78c-0.23,1.72-1.01,3.47-0.33,5.2c-0.14,0.95-0.15,3.17,0.59,3.87    c-0.07,0.73-0.49,3.18-0.12,3.76c0,0.28-0.05,1.15,0.14,1.23c0.19,0.1,0.38,0.2,0.56,0.3c0.81-0.03,2.6-0.24,3.26,0.17    c0.79,0.49,1.34,1.3,1.53,2.22c0.08,0.36,0.22,1.17,0.51,1.31c0.59,0.29,1.16,0.44,1.86,0.52c0.47,0,0.94,0,1.41,0    c0.79-0.3,2.11-0.76,2.81,0c0.36,0.49,0.72,0.98,1.09,1.47c0.11,0.45,0.22,0.9,0.33,1.34c0.03,1.41,0.06,2.81,0.1,4.22    c0.01,0.67,0.01,1.34,0.02,2c0,0.18-0.09,0.61,0.11,0.56c1.21-0.3,1.99-1.09,2.82-1.97c0.24-0.23,0.47-0.47,0.71-0.7    c0.4-0.73,0.1-1.49,0.11-2.23c0.03-1.92-0.25-4.01,0.19-5.88c0.15-0.62-0.04-2.16,0.76-2.26c1.45-0.19,2.89-0.17,4.34-0.31    c0.66-0.06,1.58-0.77,2.23-0.47c0.26-0.06,0.57-0.22,0.82-0.12c0.59-0.21,1.74-0.63,2.35-0.35c0.23-0.04,0.47-0.08,0.7-0.12    c0.47-0.16,0.94-0.31,1.41-0.47c1.53-0.15,3.05-0.06,4.58-0.35c0.35,0.04,0.7,0.08,1.06,0.12c0.94,0,1.88,0,2.82,0    c0.65,0.08,1.31,0.16,1.96,0.25c0.43,0.1,0.86,0.2,1.29,0.3c0.41,0.42,1.19,0.58,1.76,0.6c0.4,0.23,0.8,0.47,1.21,0.7    c0.91,0.54,1.69,1.1,2.7,1.44c1.1,0.31,2.19,0.63,3.29,0.94c0.94,0.35,1.88,0.7,2.82,1.06c0.41,0.1,0.77-0.05,1.17-0.12    c0.87,0.33,1.83,0.73,2.13,1.67c0.3,0.91,0.37,2.28,0.22,3.27c0.04,0.23,0.08,0.46,0.13,0.69c0,0.67-0.01,1.34-0.01,2.01    c0.16,0.51,0.31,1.02,0.47,1.53c0.32,0.93,2.56,2.29,3.52,2c0.86,0.68,1.31,1.32,1.64,2.35c0.05,0.31,0.1,0.62,0.15,0.92    c0.26,0.74,0.52,1.47,0.78,2.21c0.12,0.68,0.24,1.35,0.36,2.03c-0.04,0.94-0.08,1.88-0.12,2.82c0.11,0.28,0.22,0.55,0.33,0.83    c0.2,0.55,0.41,1.09,0.61,1.64c1.06-0.07,2.11-0.13,3.17-0.2c0.32,0.03,0.63,0.06,0.95,0.08c-0.21,0-0.22-0.02-0.27,0.17    c0.37,0.7,1.03,1.1,1.8,1.12c0.52,0.35,1.1,0.69,1.76,0.35c0.52,0.25,1.09,0.6,1.64,0.59c0.42,0.42,0.62,0.71,1.17,0.94    c0.63-0.12,1.25-0.23,1.88-0.35c0.02,0.1,0.04,0.2,0.07,0.3c-0.18,0.23-0.24,0.27,0.04,0.39c0.12,0.06,0.23,0.12,0.35,0.18    c0.19,0.13,1.67-0.68,1.66-0.29c-0.04,0.12-0.08,0.24-0.11,0.36c0.16,0.31,0.31,0.63,0.47,0.94c-0.44,0.06-0.88,0.11-1.31,0.17    c-0.11,0.29-0.59,1.39-0.22,1.5c0.64,0.21,0.29,0.44,1.19,0.44c0.43-0.12,0.86-0.23,1.29-0.35c0.15,0.15,1.77,0.21,2,0.12    c-0.13-0.25-0.35-0.44-0.04-0.57c0.21-0.05,0.42-0.09,0.63-0.14c0-0.37-0.52-0.81-0.2-1.07c0.23-0.17,0.45-0.34,0.68-0.51    c0.22-0.4,0.49-1.24,0.92-1.36c0.07-0.46,0.25-1.16-0.12-1.53c0.07-0.31,0.18-0.5,0.12-0.82c0.45-0.33,1.71-0.88,1.63-1.53    c-0.06-0.55,0.11-1.46-0.34-1.88c0.04-0.47,0.08-0.94,0.12-1.41c-0.08-0.2-0.16-0.39-0.23-0.59c0-0.27,0-0.55,0-0.82    c0.7-1.25,1.41-2.5,2.11-3.76c0.41-0.72,0.92-2.92,1.45-3.22c0.31-0.15,0.74-0.51,1.14-0.3c0.92-0.44,1.77-0.88,2.61-1.51    c0.46-0.04,0.87-0.49,1.05-0.88C269.01,317.72,269.28,316.48,269.16,315.57z M193.7,254.99c0.06,0.13-0.16,0.38-0.26,0.51    c-0.21-0.06-0.42-0.12-0.63-0.18c-0.15,0.06-0.3,0.11-0.45,0.17c-0.29,0.14,0.09-0.46-0.16-0.59c-0.17-0.08-0.3,0.26-0.39,0.41    c-0.06,0.16-0.12,0.33-0.17,0.49c-0.38-0.77-0.44-1.46-0.9-2.17c-0.36-0.55-1.02-0.61-1.57-0.88c-0.2-0.55-0.06-0.59-0.7-0.59    c-0.16-0.39-0.31-0.78-0.47-1.17c-0.55-0.43-1.1-0.86-1.64-1.29c-0.27-0.74-0.53-1.48-0.8-2.22c-0.03-0.13-0.39-0.03-0.61-0.01    c-0.08-0.12-0.17-0.23-0.25-0.35c-0.23-0.27-0.46-0.55-0.69-0.82c0-0.54-0.17-0.62-0.59-0.94c0.18,0,0.35-0.01,0.53-0.01    c0.29,0.44,0.58,0.87,0.88,1.31c0.16,0.16,0.31,0.31,0.47,0.47c0.2,0.08,0.39,0.16,0.59,0.23c0.39,0.78,0.78,1.57,1.17,2.35    c0.42,0.2,0.72,0.33,1.17,0.47c0.16,0.2,0.31,0.39,0.47,0.59c0.02,0.58,0.65,0.98,1.06,1.29c0.67,0.51,1.37,0.88,2.11,1.29    c0.2-0.08,0.39-0.16,0.59-0.23c0.25,0.37,0.23,0.6,0.62,0.88c0.11-0.01,0.22-0.03,0.33-0.04c0.11-0.01,0.23-0.01,0.34-0.02    C193.48,254.31,193.52,254.59,193.7,254.99z"/>
            <circle cx="229.32" cy="295.47" r="1.586"/>
        </g>
        <g id="__Erdemli">
            <path d="    M377.59,123.02c0.16,0.65,0.19,1.7,0.35,2.35c-0.06,0.57-0.12,1.15-0.18,1.72c0.02,0.52,0.04,1.04,0.06,1.56    c0.04,0.74,0.08,1.49,0.12,2.23c-0.07,0.52-0.47,2.11-0.12,2.47c-0.12,0.93-0.43,1.71-0.3,2.69c0.22,1.65,0.57,1.66,1.71,2.82    c0.32,0.32,1.27,1.2,1.3,1.65c0.17,1.85-0.84,3.52-2.72,4c-0.21,0.24-1,0.49-1.28,0.35c-0.47,0.47-0.94,0.94-1.41,1.41    c-0.23,0.51-0.47,1.02-0.7,1.52c-0.15,0.31-0.5,0.97-0.35,1.3c-0.23,0.23-0.47,0.47-0.7,0.7c-0.37,0.39-1.13,0.54-1.29,1.06    c-0.31,0.18-0.69,0.25-0.82,0.59c-0.29,0.05-0.73,0.23-0.94,0c-0.04,0.04-0.08,0.07-0.12,0.11c-0.38,0.34-1.57,1.41-1.64,1.89    c-0.61,0.7-1.19,1.22-1.49,2.12c-0.15,0.43-0.48,1.22-0.29,1.59c0.36,0.56,0.72,1.13,1.08,1.69c0.46,0.48,1.2,0.67,1.53,1.29    c0.2,0.16,0.39,0.31,0.59,0.47c1.03,0.4,2.29,0.77,3.4,0.82c0.55-0.01,1.1-0.02,1.65-0.03c0.27,0.09,0.54,0.18,0.81,0.26    c0.64-0.04,1.26-0.03,1.75,0.39c0.26-0.04,0.46-0.02,0.52,0.25c0.1,0.02,0.2,0.04,0.3,0.07c-0.01,0.04-0.03,0.07-0.04,0.11    c-0.12,0.35-0.31,1.08-0.66,1.19c0.27,0.27-0.01,1.13-0.11,1.49c-0.28,0.99-0.32,1.83-0.36,2.86c-0.02,0.3-0.03,0.6-0.05,0.91    c0.07,0.45,0.41,1.54,0.17,1.91c0.35,0.46,0.71,0.91,1.06,1.37c0.09,0.03,0.18,0.06,0.27,0.09c-0.93,0.65-1.78,0.43-2.84,0.63    c-0.48,0.12-0.96,0.25-1.43,0.37c-0.47,0.37-1.08,0.81-1.04,1.39c0.03,0.28,0.07,0.56,0.1,0.84c0.19,0.24,0.3,0.48,0.59,0.59    c0.31,0.55,0.59,1.21,1.17,1.53c0.15,0.32,0.31,0.64,0.46,0.96c0.24,0.28,0.78,1.2,0.6,1.51c0.83,0.42,1.56,0.74,2.23,1.41    c0.63-0.04,1.25-0.08,1.88-0.12c0.35,0.04,0.7,0.08,1.06,0.12c1.39-0.18,2.25-0.58,3.69,0.09c0.18,0.75-0.43-1.02,1.82,0.62    c0.22-0.12,0.94,0.51,1.14,0.64c0.91,0.57,1.43,1.42,2.26,2.06c0.19,0.15,0.47,0.26,0.7,0.23c0.98,0.86,1.96,1.72,2.94,2.58    c0.12,0.27,0.23,0.55,0.35,0.82c0.21,0.41,1.13,2.11,1.06,2.46c0.45,0.96,0.9,1.93,1.35,2.89c0.18,0.39,0.58,1.06,0.53,1.45    c0.24,0.23,0.48,0.45,0.72,0.68c0.11,0.28,0.22,0.56,0.34,0.85c0.31,0.43,0.63,0.86,0.94,1.29c0.2,0.55,0.39,1.1,0.59,1.64    c0.2,0.48,1.31,1.12,1.33,1.2c0.18,0.62,0.39,2.49,0.08,3.03c0.08,0.9,0.16,1.8,0.23,2.7c-0.04,0.47-0.08,0.94-0.12,1.41    c0.44,1.34,0.89,2.67,1.33,4.01c0.82,1.16,1.89,2,2.55,3.27c0.71-0.44,1.43-0.06,2.11,0.25c0.21,0.09,0.42,0.19,0.62,0.28    c0.41,0.77,0.39,1.41,0.48,2.26c-0.14,0.14-0.19,0.19-0.15,0.39c0.08,0.41,0.44,1.55,0.82,1.64c-0.09,0.12-0.18,0.25-0.26,0.37    c-0.03,0.11-0.06,0.22-0.09,0.33c-0.43,0.43-0.86,0.86-1.29,1.29c-0.34,0.59-0.68,1.18-1.02,1.78c-0.31,0.48-0.85,1.13-0.85,1.75    c-0.24,0.24-0.46,0.36-0.47,0.7c-0.87,0.32-1.74,0.64-2.61,0.96c-0.58,0.27-1.16,0.54-1.73,0.8c-0.82,0.43-1.64,0.86-2.47,1.29    c-0.61,0.44-1.23,0.88-1.84,1.32c-1.41,0.78-2.83,1.56-4.24,2.34c-1.32,1.02-2.88,2.07-3.91,3.37c-0.37,0.47-1.02,1.39-0.58,1.89    c-0.07-0.02-0.15-0.04-0.22-0.06c-0.36-0.09-0.55-0.18-0.95-0.18c-0.18,0.53-0.05,1-0.55,1.21c-1.04,0.46-2.02,0.82-2.97,1.49    c-0.21,0.15-0.49,0.22-0.7,0.12c-0.2,0.12-0.39,0.23-0.59,0.35c-1.02,0.5-2.26,1.9-2.93,2.82c-0.6,0.16-0.92,0.48-1.41,0.82    c-1.09,0.76-1.84,3.29-3.29,3.29c-0.12,0.43-0.23,0.86-0.35,1.29c-0.68,0.85-1.06,1.79-1.64,2.7c0,0.93-0.64,2.08-1.17,2.82    c-0.49,0-1.46,1.13-1.88,1.53c-0.22,0.22-0.59,0.26-0.59,0.59c-0.51,0.23-1.02,0.47-1.53,0.7c0,0.34,0.08,0.64-0.19,0.86    c-0.41,0.42-0.81,0.83-1.22,1.25c-0.25,0.31-0.7,0.66-0.7,1.06c-0.27,0.14-0.55,0.4-0.82,0.23c-0.61,0.88-1.38,1.65-1.41,2.82    c-0.4,0.11-1,0.07-1.15,0.48c-0.12,0.33-0.24,0.66-0.36,0.99c0.2,0.32-0.34,2.09-0.48,2.52c-0.12,0.06-0.24,0.11-0.36,0.17    c-0.3,0.13-0.4,0.26-0.69,0.07c-0.08,0.12-0.16,0.23-0.23,0.35c-0.58,0.29-1.35,0.31-2,0.35c0-1.07-1.91-0.42-2.15-1.03    c-0.24-0.6-0.47-1.19-0.71-1.79c-0.06-0.63-0.13-1.25-0.19-1.87c-0.15-0.63-0.29-1.26-0.44-1.89c-0.24-0.82-0.49-1.64-0.73-2.45    c-0.65-0.99-1.82-1.54-2.66-2.3c-0.48-0.45-0.97-0.89-1.45-1.34c-0.43-0.91-0.87-1.83-1.3-2.74c-0.19-0.53-0.38-1.07-0.58-1.6    c0-0.58,0.14-1.53-0.23-2c0.03-0.28,0.15-0.59,0-0.82c0.52-1.26,1.3-2.19,2.11-3.29c0-1.4,0.34-2.76,0.49-4.11    c0.08-0.67,0.16-1.35,0.24-2.02c0.04-0.26,0.16-0.61-0.03-0.8c-0.55-0.73-1.3-1.04-2.11-1.41c-0.43-0.2-0.86-0.39-1.29-0.59    c-1.17-0.79-2.35-1.33-3.64-1.88c-0.62-0.33-1.24-0.66-1.86-0.99c-0.83-0.41-1.66-0.83-2.48-1.24c-0.64-0.73-1.42-1.55-1.53-2.58    c0-0.7,0-1.41,0-2.11c-0.35-0.55-0.7-1.1-1.06-1.64c-1.21-1.21-2.43-2.43-3.64-3.64c-0.23-0.35-0.47-0.7-0.7-1.06    c-0.68-0.73-1.35-1.47-2.03-2.21c-0.38-0.48-0.76-0.96-1.14-1.43c-0.08-0.39-0.16-0.78-0.23-1.17c0.15-0.55,0.29-1.09,0.44-1.64    c-0.65-1.37-1.31-2.74-1.96-4.12c-0.39-0.63-0.78-1.25-1.17-1.88c-0.95-0.66-1.89-1.31-2.84-1.97c-0.38-0.2-0.77-0.41-1.15-0.61    c-1.26-1.08-3.02-2.34-4.69-2.52c-0.51-0.05-1.4-0.5-1.77-0.41c-0.52-0.62-1.05-1.23-1.57-1.85c-0.18-0.36-0.36-0.72-0.54-1.09    c-0.26-1.39-0.11-2.54,0.59-3.76c0.18-0.35,1.34-1.41,2.35-2.23c1.81-1.21,1.83-1.25,3.64-2.47c0.51-0.2,1.03-0.39,1.54-0.59    c1.09-0.63,2.18-1.25,3.27-1.88c0.26-0.21,0.52-0.42,0.78-0.63c0.98-0.83,1.84-1.89,1.46-3.32c0.3-0.43-0.38-1.94-0.71-2.27    c0-0.3,0.06-0.83-0.12-1.06c0.39-1.05,1.38-2.72,0.91-3.67c-0.07-0.19-0.13-0.37-0.2-0.56c-0.4-0.3-0.79-0.6-1.19-0.9    c-0.27-0.29-0.54-0.57-0.81-0.86c-0.89-0.86-1.34-2.08-2.11-3.05c-0.2-0.08-0.39-0.16-0.59-0.23c-0.95-0.35-1.86-0.73-2.7-1.29    c-1.39-0.93-2.53-2.22-3.99-3.05c-0.55-0.43-1.1-0.86-1.64-1.29c-1.49-1.21-2.97-2.43-4.46-3.64c-1.37-1.11-2.54-2.5-3.96-3.46    c-1.2-0.81-1.85-2.06-2.84-3.07c-0.18-0.6-0.37-1.21-0.55-1.81c-0.18-0.52,0-1.94-0.17-2.11c0.12-0.07,0.24-0.15,0.37-0.22    c1.04-0.6,2.1-0.8,3.27-1.07c0.86-0.31,1.72-0.61,2.58-0.92c0.82-0.2,1.64-0.4,2.47-0.61c0.9-0.35,1.8-0.7,2.7-1.06    c1.06-0.2,2.11-0.39,3.17-0.59c0.31,0.08,0.63,0.16,0.94,0.23c0.69-0.02,1.39-0.04,2.08-0.05c1.85,0.36,2.17,0.75,4.02,1.11    c0.3-0.03,2.13-0.09,2.43-0.12c0.23,0.18,1.68,0.6,1.68,0.12c0,0.6,1.7,0.88,2.23,0.94c1.21-0.08,2.43-0.16,3.64-0.23    c1.5-0.47,3.13-0.9,4.7-0.94c1.33-0.35,2.66-0.7,3.99-1.06c0.9-0.39,1.8-0.78,2.7-1.17c1.45-0.6,2.9-1.21,4.35-1.81    c0.51-0.2,1.82-0.82,2.1-1.24c1.02-0.38,2.04-0.76,3.07-1.14c0.25-0.35,0.86-0.54,1.26-0.68c0.27-0.16,0.54-0.33,0.81-0.49    c0.44-0.36,1.92-1.24,2.49-1.09c1.17-0.94,2.35-1.88,3.52-2.82c0.43-0.82,0.86-1.64,1.29-2.47c0.16-0.7,0.31-1.41,0.47-2.11    c-0.16-0.59-0.31-1.17-0.47-1.76c-0.39-0.74-0.78-1.49-1.17-2.23c-0.76-1.48-1.81-2.91-2.13-4.57c-0.14-0.74-0.51-1.75-0.32-2.51    c-0.22-0.58-0.29-1.22-0.25-1.83c0.12-1.54,0.74-3.32,1.64-4.58c0.06-0.18,0.12-0.36,0.18-0.54c0.45-0.44,0.9-0.89,1.35-1.33    c0.27-0.2,0.78-0.04,1.06-0.23c0.38,0.06,0.68-0.27,1.29-0.7c0.23-0.04,0.47-0.32,0.7-0.36c1.14-0.05,3.34-0.26,4.34,0.12    c0.27,0.22,0.53,0.45,0.8,0.67c0.6,0.09,1.51,1.53,1.9,2.03c0,0.35,0,0.7,0,1.06c0.23,0.47,0.47,0.94,0.7,1.41    c0.32,0.8,0.74,1.64,1.3,2.34c0.23,0.28,0.46,0.56,0.7,0.83C375.98,122.08,377.34,122.36,377.59,123.02z"/>
            <circle cx="386.39" cy="237.89" r="1.586"/>
        </g>
        <g id="__Mut">
            <path d="    M264.54,271.17c-0.65-0.73-2-0.86-2.96-1.37c-0.38-0.17-0.77-0.34-1.15-0.51c-0.81-0.67-1.78-1.02-2.72-1.49    c-0.26-0.13-0.77-0.41-1.04-0.27c-0.81-0.49-1.62-0.98-2.43-1.47c-0.74-0.44-1.42-1.34-2.39-0.87c-0.99-0.12-1.64,0.14-2.58,0.25    c-0.33,0.04-0.97,0.01-1.17,0.22c-0.55-0.2-1.1-0.39-1.64-0.59c-1.52,0.04-3.05,0.08-4.57,0.13c-0.71,0.19-1.41,0.39-2.12,0.58    c-1.17-0.04-2.35-0.08-3.52-0.12c-0.77,0.05-1.54,0.11-2.31,0.16c-2.12-0.01-4.24-0.02-6.36-0.03c-0.56,0.13-1.12,0.27-1.67,0.4    c-0.58,0.03-1.08-0.14-1.61-0.34c-0.23-0.09-0.61-0.32-0.83-0.19c-0.71-0.41-1.2-1.03-1.78-1.61c-0.47-0.07-1.05-0.87-1.16-1.32    c-0.92-0.75-1.94-1.24-2.47-2.35c-0.18-0.39-0.62-0.51-0.7-0.94c-0.31-0.2-0.63-0.39-0.94-0.59c-2.29-0.96-4.68,0.13-6.84-1.44    c-0.19-0.2-0.37-0.41-0.56-0.61c-0.45-0.55-0.76-1.49-1.52-1.7c-0.78-1.09-1.53-3.02-2.73-3.57c-0.25-0.53-0.91-0.75-1.46-0.71    c-0.78,0.09-1.49,0.62-2.22,1.03c-0.37,0.14-0.73,0.28-1.1,0.41c-0.4,0.28-0.95,0.62-1.25,0.22c-0.63-0.93-1.36-1.99-1.93-3.03    c-0.31-0.39-0.63-0.78-0.94-1.17c-0.25-0.23-0.97-0.94-1.48-1.05c0,0-0.11-0.17-0.17-0.36c0-0.83-1.09-2.62-1.48-3.42    c-0.29-0.5-0.58-1.01-0.87-1.51c-0.2-0.2-0.39-0.39-0.59-0.59c-0.22-0.42-0.43-0.83-0.65-1.25c-1.11-1.07-2.23-2.14-3.34-3.21    c-0.79-0.84-1.57-1.69-2.36-2.53c-1.96-1.81-4.37-3.06-6.45-4.75c-0.27-0.12-0.55-0.23-0.82-0.35c-0.67-0.51-1.33-1.02-2-1.53    c-0.67-0.59-1.33-1.17-2-1.76c-0.2-0.43-0.39-0.86-0.59-1.29c-0.2-0.86-0.39-1.72-0.59-2.58c-0.24-0.51-1.22-1.77-0.94-2.35    c-0.24,0.24-0.73-0.61-0.95-0.82c-0.85-0.82-1.77-1.79-2.69-2.7c-1.26-1.26-2.6-2.16-3.53-3.75c-0.17-0.46-0.34-0.93-0.51-1.39    c-0.34-1.01-0.66-1.97-0.84-3.06c-0.06-0.55-0.12-1.1-0.18-1.65c-0.16-1.33-0.31-2.66-0.47-3.99c-0.2-0.94-0.39-1.88-0.59-2.82    c0-0.31,0-0.63,0-0.94c-0.37-1.64-0.95-3.34-1.17-5.05c-0.04-0.9-0.08-1.8-0.12-2.7c0.69-1.79,1.37-3.58,2.06-5.37    c0.29-0.6,0.58-1.19,0.88-1.79c0.45-0.61,0.91-1.22,1.36-1.82c0.4-0.36,0.81-0.72,1.21-1.08c0.48-0.31,0.96-0.61,1.44-0.92    c0.62-0.29,1.24-0.58,1.86-0.87c0.47-0.08,0.94-0.16,1.41-0.23c0.74,0,1.48,0,2.22,0c0.67,0.08,1.34,0.16,2.01,0.24    c0.59,0.31,1.17,0.63,1.76,0.94c0.9,0.63,1.8,1.25,2.7,1.88c0.86,0.47,1.72,0.94,2.58,1.41c0.49,0.46,2.11,0.95,2.66,0.53    c0.33-0.25,0.8-0.76,1.22-0.76c0.51-0.47,1.02-0.94,1.53-1.41c0.36-0.51,0.71-1.01,1.07-1.52c0.35-0.4,0.7-0.79,1.05-1.19    c0.51-0.9,1.02-1.8,1.53-2.7c0.16-0.35,0.31-0.7,0.47-1.06c0.59-0.82,1.17-1.64,1.76-2.46c0.67-0.55,1.33-1.1,2-1.64    c0.39-0.39,0.78-0.78,1.17-1.17c0.27-0.12,0.55-0.24,0.82-0.36c0.62-0.17,1.24-0.34,1.86-0.51c0.7-0.27,1.6-0.78,2.23-0.39    c1.38,1.03,2.77,2.07,4.15,3.1c0.58,0.41,1.09,1.04,1.86,0.94c2.02-0.29,4.1-1.55,6.1-2.02c1.49-0.25,2.97-0.51,4.46-0.76    c1.87-0.35,3.75-1.15,5.47-1.93c0.83-0.27,1.67-0.54,2.51-0.8c2.56-0.71,5.18-1.72,7.64-2.79c1.29-0.37,2.59-0.74,3.88-1.12    c1.02-0.37,2.03-0.74,3.04-1.12c0.98-0.2,1.96-0.39,2.94-0.59c0.62-0.25,1.25-0.5,1.87-0.75c0.67-0.27,2.74-0.97,3.21-0.66    c0.15,0.08,0.29,0.16,0.44,0.24c0.48,0.56,1.63,2.44,1.53,3.17c0.2,0.39,0.39,0.78,0.59,1.17c-0.15,0.29-0.07,0.4,0,0.7    c0.44,0.65,0.88,1.29,1.32,1.94c0.66,0.96,1.31,1.92,1.97,2.88c0.63,0.47,1.25,0.94,1.88,1.41c1.05,0.36,2.11,0.73,3.16,1.09    c0.72,0.29,1.45,0.58,2.17,0.87c0.76,0.16,1.52,0.31,2.27,0.47c1.25,0.39,2.36,0.85,3.67,1.1c1.38,0.26,2.7,1.29,4.18,1.31    c0.49,0.01,1.39,0.04,1.69-0.37c0.94-0.16,1.88-0.31,2.82-0.47c0.88-0.2,1.99,0.34,2.81,0.58c0.47,0.14,2.09,0.62,2.32,0.96    c0.76,1.17,0.97,1.4,1.2,2.8c0.06,0.4,0.33,0.93,0.12,1.29c-0.04,0.19-0.07,0.38-0.11,0.57c-0.2,0.16-0.4,0.33-0.6,0.49    c-0.23,0.35-0.47,0.7-0.7,1.06c-0.12,0.32-0.23,0.63-0.35,0.95c-0.21,0.32-0.42,0.64-0.62,0.96c-0.11,0.3-0.23,0.6-0.34,0.91    c-0.24,0.4-0.48,0.8-0.73,1.2c-0.16,0.44,0.14,1.48,0.4,1.86c0,0.55,0,1.1,0,1.64c-0.35,0.78-0.59,1.24-1.29,1.88    c-0.16,0.27-1.84,0.9-2,1.17c-0.54,0.48-1.04,0.95-1.29,1.64c-0.43,0.28-0.18,0.54,0.17,0.76c-0.22,0.2-0.2,0.86-0.03,1    c0.51,0.37,1.08,0.83,1.74,0.83c0.43,0.2,0.86,0.39,1.29,0.59c0.2,0.36,0.77,1.02,0.59,1.41c0.35,0.43,0.69,0.86,1.04,1.28    c0.34,0.52,1.23,1.92,0.78,2.56c-0.1,0.21-0.19,0.41-0.29,0.62c-0.29,0.33-1.3,1.27-1.64,1.41c-0.18,0.23-0.37,0.46-0.55,0.69    c-0.21,0.23-0.51,0.94-0.43,1.16c0.9,2.14,3.24,3.6,3.68,6.02c0.15,0.82-0.7,1.07-0.7,1.64c-0.19,0.22-0.39,0.44-0.58,0.67    c0.05,0.26,0.18,0.4-0.01,0.62c0.04,0.04,0.08,0.07,0.12,0.11c0.44,0.38,0.92,0.84,1.52,0.95c0.47,0.04,0.94,0.08,1.41,0.12    c0.59-0.35,1.17-0.7,1.76-1.06c0.59-0.16,1.17-0.31,1.76-0.47c0.27,0.04,0.55,0.08,0.82,0.12c1.06-0.1,1.56-0.38,2.58,0.12    c0.12,0.2,0.23,0.39,0.35,0.59c0,1.46,0.95,2.47,0.82,4.11c-0.28,1.36-0.55,2.71-0.83,4.07c-0.22,0.42-0.74,1.99-0.69,2.38    c0.22,1.49,0.96,2.7,1.86,3.87c0.31,0.39,0.63,0.78,0.94,1.18c0.5,0.86,0.35,2.65,0.35,3.64c0,1.15,0.22,3.13-0.13,4.17    c-0.32,0.96-1.15,1.91-1.87,2.63c-0.41,0.18-0.82,0.36-1.23,0.54c-0.45,0.25-0.9,0.5-1.35,0.76c-0.67,0.79-1.33,1.58-2,2.37    c-1.37,0.07-2.74,0.14-4.11,0.22c-0.51-0.16-1.02-0.31-1.53-0.47c-1,0.06-2.03,0.05-2.96,0.48c-1.11,0.52-2.36,1.21-3.26,2.1    c-0.47-0.01-1.01,0.52-1.31,0.98c-0.63,0.97-1.48,2.01-2.33,2.77c-0.27,0.28-0.54,0.56-0.81,0.83c-0.27,1.37-0.35,2.74-0.35,4.11    c-0.23,0-0.2,0.61-0.22,0.82c-0.03,0.46-0.19,1.53,0.1,1.88c-0.59,0.94-1.17,1.88-1.76,2.82c-0.27,0.27-0.55,0.55-0.82,0.82    c-0.37,0.8-0.75,1.6-1.12,2.4c-0.26,0.4-0.77,1.28-0.4,1.71c-0.05,0.28-0.15,0.46,0,0.7c-0.04,0.25-0.36,1.07-0.23,1.29    c-0.23,0.36-0.55,0.86-1.06,0.35L264.54,271.17z"/>
            <circle cx="235.89" cy="230.14" r="1.586"/>
        </g>
        <g id="__Aydıncık">
            <path d="    M239.65,333.98c-0.2-0.55-0.41-1.09-0.61-1.64c-0.11-0.28-0.22-0.55-0.33-0.83c0.04-0.94,0.08-1.88,0.12-2.82    c-0.12-0.68-0.24-1.35-0.36-2.03c-0.26-0.74-0.52-1.47-0.78-2.21c-0.05-0.31-0.1-0.62-0.15-0.92c-0.33-1.03-0.78-1.67-1.64-2.35    c-0.96,0.29-3.2-1.07-3.52-2c-0.16-0.51-0.31-1.02-0.47-1.53c0-0.67,0-1.34,0.01-2.01c-0.04-0.23-0.08-0.46-0.13-0.69    c0.15-0.99,0.08-2.35-0.22-3.27c-0.3-0.94-1.26-1.33-2.13-1.67c-0.4,0.06-0.77,0.22-1.17,0.12c-0.94-0.35-1.88-0.7-2.82-1.06    c-1.1-0.31-2.19-0.63-3.29-0.94c-1.01-0.34-1.79-0.9-2.7-1.44c-0.4-0.23-0.8-0.47-1.21-0.7c-0.57-0.02-1.35-0.18-1.76-0.6    c-0.43-0.1-0.86-0.2-1.29-0.3c-0.65-0.08-1.31-0.16-1.96-0.25c-0.94,0-1.88,0-2.82,0c-0.35-0.04-0.7-0.08-1.06-0.12    c-1.53,0.3-3.05,0.2-4.58,0.35c-0.47,0.16-0.94,0.31-1.41,0.47c-0.23,0.04-0.47,0.08-0.7,0.12c-0.6-0.28-1.76,0.14-2.35,0.35    c-0.25-0.1-0.56,0.05-0.82,0.12c-0.65-0.3-1.57,0.41-2.23,0.47c-1.44,0.14-2.89,0.13-4.34,0.31c-0.8,0.1-0.61,1.64-0.76,2.26    c-0.44,1.86-0.16,3.96-0.19,5.88c-0.01,0.74,0.29,1.5-0.11,2.23c-0.24,0.23-0.47,0.47-0.71,0.7c-0.84,0.88-1.62,1.66-2.82,1.97    l-0.05,0.36c-0.21,0.89,0.21,2.08,0.76,2.73c0.23,1.36,1.02,2.48,1.64,3.64c0.64,1.19,1.26,2.48,2,3.64    c0.21,0.54,0.42,1.08,0.63,1.63c0.38,0.63,0.75,1.26,1.13,1.9c0.08,0.27,0.16,0.54,0.25,0.81c0.21,0.39,0.46,0.95,0.29,1.27    c-0.46,0.75-0.89,1.53-1.62,2.07c-0.28,0.12-0.56,0.24-0.84,0.36c-0.13-0.04-0.27-0.09-0.4-0.13c-0.24,0.41-0.34,1,0.07,1.12    c0.09-0.03,0.18-0.05,0.27-0.08c0.35,0.07,0.59,0.4,0.94,0.47c0.53,0.24,0.78,0.52,1.34,0.69c0.25-0.14,0.44-0.06,0.7,0.03    c0.86-0.57,1.34-0.36,2.31-0.36c0.2,0.16,0.39,0.31,0.59,0.47c0-0.45,0.89-0.55,1.29-0.47c0.23,0.12,0.47,0.23,0.7,0.35    c0.33-0.33,1.42-0.63,1.84-0.43c0.76-0.25,1.51-0.49,2.27-0.74c0.59,0.04,1.17,0.08,1.76,0.12c0.12,0.12,0.23,0.23,0.35,0.35    c0.01,0.12,0.02,0.24,0.03,0.37c0.85-0.16,1.7-0.32,2.55-0.48c0.27,0.08,0.55,0.16,0.82,0.23c0.51-0.29,0.99-0.6,1.61-0.58    c-0.03,0.08-0.05,0.15-0.08,0.23c0.09,0.03,0.18,0.07,0.26,0.1c0.32,0.1,0.7,0.22,1.03,0.01c0.51-0.39,1.02-0.78,1.53-1.17    c0.31-0.16,0.63-0.31,0.94-0.47c0.41-0.31,1.22-0.95,1.76-0.94c0.06-0.61,0.27-1.24,0.93-1.44c0.44-0.12,2.15-0.63,2.48-0.44    c0.46-0.14,0.91-0.29,1.18,0.07c0.14,0.21,0.04,0.13,0.35,0.17c0.06,0.36,0.04,0.76,0.23,1.06c-0.24,0.59-0.01,1.14,0.57,1.32    c0.37,0.13,1.25-0.01,1.54-0.26c0.41,0.12,0.82,0.24,1.23,0.36c0.43-0.29,1.13-0.11,1.51,0.2c0.61,0.51,0.59,1.09,0.85,1.79    c0.07,0.18,0.32,0.59,0.4,0.58c0.33-0.01,0.38,0.06,0.59-0.23c0.43-0.23,0.86-0.47,1.29-0.7c-0.04-0.44-0.01-0.67,0.23-1.06    c0.86-0.3,1.55-0.86,2.47-1.17c0.21-0.28,0.59-1.18,0.94-1.17c0.29,0.03,0.33,0.05,0.59-0.12c0.24,0.14,0.4,0.18,0.47,0.47    c0.04-0.02,0.07-0.03,0.11-0.05c0.26-0.11,1.04-0.68,1.19-0.65c0.14-0.31,0.12-0.41,0.47-0.47c0.01-0.26,0.08-0.4-0.12-0.59    c0.04,0,0.08,0,0.13,0c0.43,0.04,0.86,0.08,1.28,0.12C238.55,334.45,239.65,333.98,239.65,333.98z"/>
            <circle cx="221.69" cy="333.92" r="1.586"/>
        </g>
        <g id="__Bozyazı">
            <path d="    M168.16,269.53c0.48,0.5,0.95,1,1.43,1.5c0.34,0.56,0.69,1.11,1.03,1.67c0.47,1.25,0.94,2.5,1.41,3.76    c0.65,1.03,1.3,2.06,1.95,3.1c0.41,1.08,0.81,2.16,1.22,3.24c-0.06,0.93-0.28,1.79-0.39,2.71c-0.03,0.78-0.05,1.56-0.08,2.34    c-0.08,0.39-0.16,0.78-0.23,1.17c-0.01,0.93-0.02,1.86-0.03,2.78c-0.23,1.72-1.01,3.47-0.33,5.2c-0.14,0.95-0.15,3.17,0.59,3.87    c-0.07,0.73-0.49,3.18-0.12,3.76c0,0.28-0.05,1.15,0.14,1.23c0.19,0.1,0.38,0.2,0.56,0.3c0.81-0.03,2.6-0.24,3.26,0.17    c0.79,0.49,1.34,1.3,1.53,2.22c0.08,0.36,0.22,1.17,0.51,1.31c0.59,0.29,1.16,0.44,1.86,0.52c0.47,0,0.94,0,1.41,0    c0.79-0.3,2.11-0.76,2.81,0c0.36,0.49,0.72,0.98,1.09,1.47c0.11,0.45,0.22,0.9,0.33,1.34c0.03,1.41,0.06,2.81,0.1,4.22    c0.01,0.67,0.01,1.34,0.02,2c0,0.18-0.09,0.61,0.11,0.56l-0.05,0.36c-0.21,0.89,0.21,2.08,0.76,2.73    c0.23,1.36,1.02,2.48,1.64,3.64c0.64,1.19,1.26,2.48,2,3.64c0.21,0.54,0.42,1.08,0.63,1.63c0.38,0.63,0.75,1.26,1.13,1.9    c0.08,0.27,0.16,0.54,0.25,0.81c0.21,0.39,0.46,0.95,0.29,1.27c-0.46,0.75-0.89,1.53-1.62,2.07c-0.28,0.12-0.56,0.24-0.84,0.36    c-0.13-0.04-0.27-0.09-0.4-0.13c-0.24,0.41-0.34,1,0.07,1.12l0.27,0.03c-0.54-0.13-1.07-0.26-1.61-0.39    c-0.87-0.26-1.74-0.52-2.61-0.78c-0.35,0.01-0.71,0.01-1.06,0.02c-0.57-0.05-1.03-0.14-1.57,0.01c-0.22,0.11-0.44,0.22-0.65,0.32    c-0.91,0.24-1.67,0.52-2.47,1.06c-0.55,0.74-1.1,1.49-1.64,2.23c0.04,0.37-0.91,1.75-1.17,2.11c0.19,0.38,0.06,1.04-0.12,1.41    c-0.35,0.2-0.7,0.39-1.06,0.59c-0.01,0.09-0.02,0.18-0.03,0.27c-0.97,0.85-1.45,0.96-1.5,2.31c-0.66,0.1-0.96,0.73-1.17,1.29    c0.26,0.15,0.24,0.32,0.35,0.59c-0.27,0.45-0.4,0.42-0.12,0.94c-0.32,0.49-0.97,1.01-1.53,1.17c-0.04-0.16-0.08-0.31-0.12-0.47    c0.28-0.51,0.47-0.57,0.47-1.17c-0.05-0.07-0.1-0.14-0.16-0.21c-0.1-0.24-0.21-0.49-0.31-0.73c-0.27,0.2-0.8,0-1.17,0    c-0.31-0.51-0.63-1.02-0.94-1.53c-0.28,0.1-1.62-0.24-2-0.35c-0.11-0.39-0.57-0.55-0.82-0.82c-0.21,0.23-0.63,0.13-0.95,0.14    c-1,0.03-2.14-0.61-3.03,0c-0.2,0.14-0.17,0.36-0.21,0.6c-0.01,0.06-0.02,0.13-0.04,0.19c-0.69,0.44-1.29-0.73-1.7-1.12    c-0.34,0.13-0.68,0.25-1.02,0.38c-0.36-0.1-0.71-0.19-1.07-0.29c-0.18-0.24-0.37-0.49-0.55-0.73c-0.2,0.16-0.39,0.31-0.59,0.47    c-0.63-0.34-1.94,0.3-2.58-0.35c-0.43,0.07-0.86,0.14-1.28,0.22c-1-1.67-4.68-1.32-4.68-1.32c0.58-1.46-0.36-2.42-1.32-3.46    c-0.26-0.28-0.35-0.7-0.7-0.83c-0.3-1.03-0.38-2.01-0.59-3.05c-0.43-1.02-0.86-2.04-1.29-3.05c-0.34-0.61-0.64-2.34-1.29-2.7    c-0.04-0.23-0.08-0.47-0.12-0.7c0.14-0.81,0.08-1.54,0-2.35c0.15-0.25,0.3-0.5,0.45-0.76c0.5-0.8,0.92-1.36,1.1-2.31    c0.01-0.37,0.03-0.74,0.04-1.11c-0.31-0.44-0.63-0.88-0.94-1.31c-0.21-0.22-0.54-0.33-0.65-0.62c-0.77-0.17-1.87-0.01-2.26-0.74    c-0.15-0.29-0.44-0.75-0.43-1.02c0.18-1.9,1.11-2.55,2.45-3.76c0.45-0.41,0.29-1.19,0.7-1.53c-0.12-0.82-0.23-1.64-0.35-2.47    c-0.08-0.9-0.16-1.8-0.24-2.7c-0.01-0.77-0.02-1.55-0.04-2.32c-0.04-0.27-0.06-0.46-0.31-0.61c-0.27-0.76-0.67-1.82-0.22-2.58    c0.71-1.26,2.1-1.68,2.73-3.08c0.16-0.07,0.59-0.86,0.5-0.99c-0.25-0.25-0.5-0.51-0.75-0.76c-0.44-0.03-0.88-0.05-1.31-0.08    c-0.27,0.03-0.55,0.07-0.82,0.1c-0.16-0.08-0.31-0.16-0.47-0.23c-0.47-0.04-0.94-0.08-1.41-0.12c-0.31-0.12-0.63-0.23-0.94-0.35    c-0.59,0-1.17,0-1.76,0c-1.16-0.32-2.33-0.65-3.49-0.97c-0.56-0.26-1.12-0.53-1.67-0.79c-0.28-0.3-0.57-0.59-0.85-0.89    c-0.38-0.56-0.76-1.13-1.15-1.69c0-0.69-0.43-1.54-0.82-2.11c-0.08-0.29-0.16-0.58-0.23-0.88c-1.2-1.88-2.4-3.76-3.6-5.65    c-0.42-0.61-0.82-1.25-1.39-1.73c-0.53-0.45-1.13-0.7-1.58-1.25c-0.22-0.4-0.45-0.79-0.67-1.19c-0.8-1-1.6-1.86-2.15-3.03    c-0.58-1.65-1.16-3.31-1.74-4.96c-0.13-0.54-0.25-1.08-0.37-1.61c-0.52-1.41-1.17-2.8-1.29-4.33c-0.11-1.43-0.26-2.71-0.52-4.12    c-0.01-0.41-0.01-0.82-0.02-1.23l0.28-0.07c0.81,0.04,1.56,0.37,2.37,0.48c1.59,0.21,3.03,0,4.58,0c0.24,0.24,1.92,0.39,2.33,0.39    c0.44,0.03,0.88,0.05,1.31,0.08c0.65,0.06,1.61,0.49,2.23,0.12c1.41,0.31,2.82,0.63,4.23,0.94c1.37,0.43,2.74,0.86,4.11,1.29    c1.02,0.59,2.03,1.17,3.05,1.76c2.31,1.28,4.75,2.19,7.26,2.98c1.06,0.31,2.12,0.62,3.18,0.93c1.22,0.18,2.43,0.36,3.65,0.55    c0.39-0.04,0.78-0.08,1.17-0.12c1.58-0.07,3.06-0.5,4.57-0.97c0.91-0.32,1.82-0.64,2.73-0.96c0.28-0.48,0.39-0.95,0.8-1.36H168.16    z"/>
            <circle cx="156.65" cy="345.07" r="1.586"/>
        </g>
        <g id="__Silifke">
            <path d="M355.25,268.03c-0.24-0.6-0.47-1.19-0.71-1.79    c-0.06-0.63-0.13-1.25-0.19-1.87c-0.15-0.63-0.29-1.26-0.44-1.89c-0.24-0.82-0.49-1.64-0.73-2.45c-0.65-0.99-1.82-1.54-2.66-2.3    c-0.48-0.45-0.97-0.89-1.45-1.34c-0.43-0.91-0.87-1.83-1.3-2.74c-0.19-0.53-0.38-1.07-0.58-1.6c0-0.58,0.14-1.53-0.23-2    c0.03-0.28,0.15-0.59,0-0.82c0.52-1.26,1.3-2.19,2.11-3.29c0-1.4,0.34-2.76,0.49-4.11c0.08-0.67,0.16-1.35,0.24-2.02    c0.04-0.26,0.16-0.61-0.03-0.8c-0.55-0.73-1.3-1.04-2.11-1.41c-0.43-0.2-0.86-0.39-1.29-0.59c-1.17-0.79-2.35-1.33-3.64-1.88    c-0.62-0.33-1.24-0.66-1.86-0.99c-0.83-0.41-1.66-0.83-2.48-1.24c-0.64-0.73-1.42-1.55-1.53-2.58c0-0.7,0-1.41,0-2.11    c-0.35-0.55-0.7-1.1-1.06-1.64c-1.21-1.21-2.43-2.43-3.64-3.64c-0.23-0.35-0.47-0.7-0.7-1.06c-0.68-0.73-1.35-1.47-2.03-2.21    c-0.38-0.48-0.76-0.96-1.14-1.43c-0.08-0.39-0.16-0.78-0.23-1.17c0.15-0.55,0.29-1.09,0.44-1.64c-0.65-1.37-1.31-2.74-1.96-4.12    c-0.39-0.63-0.78-1.25-1.17-1.88c-0.95-0.66-1.89-1.31-2.84-1.97c-0.38-0.2-0.77-0.41-1.15-0.61c-1.26-1.08-3.02-2.34-4.69-2.52    c-0.51-0.05-1.4-0.5-1.77-0.41c-0.52-0.62-1.05-1.23-1.57-1.85c-0.18-0.36-0.36-0.72-0.54-1.09c-0.26-1.39-0.11-2.54,0.59-3.76    c0.18-0.35,1.34-1.41,2.35-2.23c1.81-1.21,1.83-1.25,3.64-2.47c0.51-0.2,1.03-0.39,1.54-0.59c1.09-0.63,2.18-1.25,3.27-1.88    c0.26-0.21,0.52-0.42,0.78-0.63c0.98-0.83,1.84-1.89,1.46-3.32c0.3-0.43-0.38-1.94-0.71-2.27c0-0.3,0.06-0.83-0.12-1.06    c0.39-1.05,1.38-2.72,0.91-3.67c-0.07-0.19-0.13-0.37-0.2-0.56c-0.4-0.3-0.79-0.6-1.19-0.9c-0.27-0.29-0.54-0.57-0.81-0.86    c-0.89-0.86-1.34-2.08-2.11-3.05c-0.2-0.08-0.39-0.16-0.59-0.23c-0.95-0.35-1.86-0.73-2.7-1.29c-1.39-0.93-2.53-2.22-3.99-3.05    c-0.55-0.43-1.1-0.86-1.64-1.29c-1.49-1.21-2.97-2.43-4.46-3.64c-1.37-1.11-2.54-2.5-3.96-3.46c-1.2-0.81-1.85-2.06-2.84-3.07    c-0.18-0.6-0.37-1.21-0.55-1.81c-0.18-0.52,0-1.94-0.17-2.11l-0.23-0.12c-1.41,0.05-2.82,0.09-4.23,0.14    c-0.51,0.08-2.44,0.22-2.7,0.57c-0.78-0.1-1.56-0.19-2.34-0.29c-1.13,0.01-2.27,0.02-3.4,0.04c-1.8-0.01-3.61-0.02-5.41-0.03    c-0.55-0.31-2.71-0.68-3.17-0.19c-0.7-0.04-1.41-0.08-2.11-0.12c-0.23,0.08-0.47,0.16-0.7,0.23c-1.08-0.19-2.31-0.11-3.39,0.05    c-1.53,0.22-3.16,0.76-4.71,0.66c-2.23,0.47-4.46,0.94-6.69,1.41c-0.78,0.2-1.57,0.39-2.35,0.59c-1.98,0.71-4.05,1.17-6.1,1.64    c-0.5,0.11-0.54,0.64-0.94,0.94c-0.23-0.04-0.82-0.08-1.06-0.12c-0.69-0.03-2.82,0.57-3.64,0.82l0.82,0.35    c0.48,0.56,1.63,2.44,1.53,3.17c0.2,0.39,0.39,0.78,0.59,1.17c-0.15,0.29-0.07,0.4,0,0.7c0.44,0.65,0.88,1.29,1.32,1.94    c0.66,0.96,1.31,1.92,1.97,2.88c0.63,0.47,1.25,0.94,1.88,1.41c1.05,0.36,2.11,0.73,3.16,1.09c0.72,0.29,1.45,0.58,2.17,0.87    c0.76,0.16,1.52,0.31,2.27,0.47c1.25,0.39,2.36,0.85,3.67,1.1c1.38,0.26,2.7,1.29,4.18,1.31c0.49,0.01,1.39,0.04,1.69-0.37    c0.94-0.16,1.88-0.31,2.82-0.47c0.88-0.2,1.99,0.34,2.81,0.58c0.47,0.14,2.09,0.62,2.32,0.96c0.76,1.17,0.97,1.4,1.2,2.8    c0.06,0.4,0.33,0.93,0.12,1.29c-0.04,0.19-0.07,0.38-0.11,0.57c-0.2,0.16-0.4,0.33-0.6,0.49c-0.23,0.35-0.47,0.7-0.7,1.06    c-0.12,0.32-0.23,0.63-0.35,0.95c-0.21,0.32-0.42,0.64-0.62,0.96c-0.11,0.3-0.23,0.6-0.34,0.91c-0.24,0.4-0.48,0.8-0.73,1.2    c-0.16,0.44,0.14,1.48,0.4,1.86c0,0.55,0,1.1,0,1.64c-0.35,0.78-0.59,1.24-1.29,1.88c-0.16,0.27-1.84,0.9-2,1.17    c-0.54,0.48-1.04,0.95-1.29,1.64c-0.43,0.28-0.18,0.54,0.17,0.76c-0.22,0.2-0.2,0.86-0.03,1c0.51,0.37,1.08,0.83,1.74,0.83    c0.43,0.2,0.86,0.39,1.29,0.59c0.2,0.36,0.77,1.02,0.59,1.41c0.35,0.43,0.69,0.86,1.04,1.28c0.34,0.52,1.23,1.92,0.78,2.56    c-0.1,0.21-0.19,0.41-0.29,0.62c-0.29,0.33-1.3,1.27-1.64,1.41c-0.18,0.23-0.37,0.46-0.55,0.69c-0.21,0.23-0.51,0.94-0.43,1.16    c0.9,2.14,3.24,3.6,3.68,6.02c0.15,0.82-0.7,1.07-0.7,1.64c-0.19,0.22-0.39,0.44-0.58,0.67c0.05,0.26,0.18,0.4-0.01,0.62    c0.04,0.04,0.08,0.07,0.12,0.11c0.44,0.38,0.92,0.84,1.52,0.95c0.47,0.04,0.94,0.08,1.41,0.12c0.59-0.35,1.17-0.7,1.76-1.06    c0.59-0.16,1.17-0.31,1.76-0.47c0.27,0.04,0.55,0.08,0.82,0.12c1.06-0.1,1.56-0.38,2.58,0.12c0.12,0.2,0.23,0.39,0.35,0.59    c0,1.46,0.95,2.47,0.82,4.11c-0.28,1.36-0.55,2.71-0.83,4.07c-0.22,0.42-0.74,1.99-0.69,2.38c0.22,1.49,0.96,2.7,1.86,3.87    c0.31,0.39,0.63,0.78,0.94,1.18c0.5,0.86,0.35,2.65,0.35,3.64c0,1.15,0.22,3.13-0.13,4.17c-0.32,0.96-1.15,1.91-1.87,2.63    c-0.41,0.18-0.82,0.36-1.23,0.54c-0.45,0.25-0.9,0.5-1.35,0.76c-0.67,0.79-1.33,1.58-2,2.37c-1.37,0.07-2.74,0.14-4.11,0.22    c-0.51-0.16-1.02-0.31-1.53-0.47c-1,0.06-2.03,0.05-2.96,0.48c-1.11,0.52-2.36,1.21-3.26,2.1c-0.47-0.01-1.01,0.52-1.31,0.98    c-0.63,0.97-1.48,2.01-2.33,2.77c-0.27,0.28-0.54,0.56-0.81,0.83c-0.27,1.37-0.35,2.74-0.35,4.11c-0.23,0-0.2,0.61-0.22,0.82    c-0.03,0.46-0.19,1.53,0.1,1.88c-0.59,0.94-1.17,1.88-1.76,2.82c-0.27,0.27-0.55,0.55-0.82,0.82c-0.37,0.8-0.75,1.6-1.12,2.4    c-0.26,0.4-0.77,1.28-0.4,1.71c-0.05,0.28-0.15,0.46,0,0.7c-0.04,0.25-0.36,1.07-0.23,1.29c-0.23,0.36-0.55,0.86-1.06,0.35    l0.23,0.7c-0.08,0.22-0.27,0.25-0.35,0.47c0.09,0.51-1.24,2.02-1.53,2.34c-1.11,1.22-2.3,2.45-3.16,3.88    c-0.53,0.61-1.06,1.23-1.59,1.84c-0.98,1.35-2.04,2.64-2.76,4.15c0,0.31-0.01,0.63-0.01,0.94c0.02,0.75,0.02,1.5,0.25,2.23    c0.63,1.29,1.25,2.58,1.88,3.87c0.56,0.77,1.3,1.36,2,2c0,1.35,0.2,1.68,1.17,2.58c0.23,0.59,0.47,1.17,0.7,1.76    c0.5,1.76,1.91,3.09,2.58,4.81c0.06,0.51,0.13,1.02,0.19,1.53c-0.03,0.58-0.05,1.17-0.08,1.75c0.2,0.15,0.19,0.3,0.27,0.53    c0.21,0.52,2.17,1.51,2.78,1.94c0.16,0.35,0.31,0.7,0.47,1.06c-0.16,0.29,0.06,1.02,0.21,1.29c0.52,0.98,1.04,1.95,1.56,2.93    c0.04,0.2,0.08,0.39,0.12,0.59c-0.04,0.23-0.08,0.47-0.12,0.7c0.27,0.2,0.23,0.52,0.27,0.84c0.12,0.91-0.14,2.16-0.5,2.99    c-0.18,0.39-0.59,0.84-1.05,0.88c-0.84,0.63-1.68,1.06-2.61,1.51c-0.4-0.21-0.82,0.15-1.14,0.3c-0.53,0.3-1.03,2.5-1.45,3.22    c-0.7,1.25-1.41,2.5-2.11,3.76c0,0.27,0,0.55,0,0.82c0.08,0.2,0.16,0.39,0.23,0.59c-0.04,0.47-0.08,0.94-0.12,1.41    c0.17,0.16,0.25,0.4,0.29,0.67c0.27-0.25,0.39-0.43,0.77-0.43c0.28-0.48,0.51-0.91,0.93-1.28c0.26-0.02,1.38-1.05,1.42-1.3    c0.37-0.12,1.21-0.27,1.41-0.59c0.67,0.06,1.26,0.14,1.91-0.03c0.45,0.16,0.91,0.12,1.4-0.07c0.15-0.13,0.29-0.25,0.44-0.37    c0.76-0.4,2.6-1.42,3.17-1.06c0.3,0.19,0.59,0.22,0.6,0.6c0,0.23,0,0.47-0.01,0.7c0.5,0.17,0.71,0.14,0.77,0.7    c0.12,1.23-0.67,3.1,0.29,3.88c0.15,0.41,0.39,0.67,0.23,1.06c0.08,0,0.16,0.01,0.24,0.01c0.49,0.02,1.62,0.23,1.87-0.13    c0.1,0.09,0.2,0.18,0.3,0.27c0.22,0.16,0.43,0.33,0.65,0.49c0.02,0.57-0.39,0.7-0.71,1.12c-0.16,0.47-0.31,0.94-0.47,1.41    c0.61,0.6,0.35,1.34,0.7,2c0.08-0.01,0.17-0.02,0.25-0.03c0.23,0.05,0.46,0.1,0.69,0.15c0.5-0.11,0.99-0.23,1.49-0.34    c0.2,0.14,0.11,0.15,0.28,0c0.87-0.76,1.17-1.34,1.16-2.48c0-0.24,0.11-0.64-0.1-0.77c-0.34-0.22-1.34-0.63-0.71-0.98    c-0.57-0.27-1.45-0.22-1.12-0.87c0.57-1,1.14-2.01,1.71-3.01c0.54-0.51,1.09-1.02,1.63-1.53c0.41-0.45,1.11-1.42,1.77-1.4    c0.39-0.47,0.78-0.94,1.17-1.41c0.47-0.27,0.94-0.55,1.41-0.82c0.56-0.41,0.81-1,1.48-1.39c0.58-0.33,1.62-0.66,1.81-1.43    c0.42-0.2,0.84-0.4,1.26-0.6c0.77-0.48,1.53-0.95,2.3-1.43c0.5-0.15,0.99-0.29,1.49-0.44c0.52-0.36,1.05-0.72,1.57-1.07    c0.81-0.78,1.61-1.55,2.42-2.33c0.14-0.4,0.11-0.93,0.47-1.17c-0.2-0.42-0.07-1.7,0.38-1.96c0.46-0.21,0.92-0.41,1.38-0.62    c0.17-0.49,0.35-0.98,0.52-1.47c-0.33-0.31-0.74-0.73-1.23-0.76c-0.01-0.2-0.02-0.39-0.03-0.59c0.01-0.22-0.18-0.16,0.04-0.33    c0.23-0.16,0.46-0.32,0.69-0.48c0.68-0.22,2.93,0.22,2.96-0.62c0.07-0.07,0.14-0.13,0.21-0.2c-0.07-0.08-0.14-0.16-0.21-0.24    c-0.43-0.48-0.92-0.58-1.55-0.71c-0.18-0.04-0.48-0.02-0.46-0.22c0.02-0.22-0.01-0.94,0.23-0.94c0.69,0.02,1.72,0.11,2.12-0.36    c0.23-0.19,0.46-0.39,0.69-0.58c0.35-0.45,0.7-0.9,1.05-1.34c0.25-0.17,0.5-0.34,0.75-0.51c0.23-0.21,0.75-0.66,0.66-0.96    c0.4-0.31,1.16-0.77,1.17-1.29c0.56-0.29,1.24-0.69,1.88-0.7c0.22-0.49,0.43-1.35,1.04-1.23c0.08,0.02,0.17,0.04,0.25,0.06    c0.34,1.21,1.1,0.98,1.76,1.88c-0.01,0.4-0.04,0.85,0.34,1.06c0.2,0.08,0.4,0.16,0.6,0.23c0.22-0.19,0.81-0.93,1.06-0.72    c0.51,0.45,2.53,2.18,3.05,2.25c0.42,0.43,0.87,0.83,1.12,1.39c0.33,0.24,0.67,0.48,1,0.72c0,0.17,0.54,0.6,0.7,0.7    c0.71,1.42,1.43,2.74,1.96,4.24c0.41,1.18,0.16,2.12-0.19,3.27c-0.18,0.57,0.15,1.43,0.29,1.97c0.13,0.49,0.29,1.39,0.8,1.62    c0.51,0.23,1.12,0.66,1.38-0.04c0.08-0.05,0.15-0.1,0.23-0.14c-0.17-0.5,0.06-1.31,0.35-1.76c0-1.18,0.58-2.71,1.21-3.71    c0.6-0.95,1.31-1.98,2.24-2.64c0.38-0.51,0.75-1.01,1.13-1.52c0.67-0.78,1.33-1.57,2-2.35c0.43-0.38,0.86-0.76,1.29-1.14    c0.31-0.21,0.63-0.41,0.94-0.62c0.61-0.17,1.23-0.26,1.84-0.13c0.44,0.12,0.89,0.24,1.33,0.36c0.35,0.41,0.43,0.76,1,0.6    c0.32-0.1,0.64-0.2,0.95-0.3c0.38-0.45,1.49-1.31,1.57-1.83c2.78-1.96,3.5-4.17,3.76-7.4c0.1-1.27-0.21-2.61,0.25-3.81    c-0.31-0.41-0.45-1.08-0.49-1.59c0.04-0.27,0.08-0.55,0.12-0.82c-0.04-0.31-0.07-0.63-0.11-0.94c0.05-0.38,0.11-0.76,0.16-1.14    c-0.06-0.68-0.11-1.35-0.17-2.03c0.08-0.51,0.15-1.02,0.23-1.53c-0.01-0.57-0.34-1.53,0.12-2c0.02-0.3,0.03-0.6,0.05-0.91    c0.24-0.4,1.09-1.13,1.13-1.44c0.32,0,0.66-0.04,0.82,0.23c0.04-0.04,0.08-0.08,0.12-0.12c0.18-0.71,0.75-1.09,1.5-1.24    c0.18-0.21,0.45-0.34,0.73-0.29c0.51-0.67,1.02-1.33,1.53-2c-0.25-0.25-0.03-0.47-0.35-0.7c0.13-0.09,0.26-0.18,0.39-0.26    c0.44-0.25,1.14-0.68,1.14-1.26c0.14-0.06,0.3-0.16,0.45-0.22c-0.19-0.31,0.16-0.61,0.27-0.64c0.71-0.17,0.95-0.69,1.5-1.14    c0.23-0.22-0.03-0.91,0.26-0.95c0.29-0.03,1.74-0.18,1.74,0.02l0.7-1.41C357.4,267.99,355.49,268.64,355.25,268.03z     M328.77,303.57c-0.4,0.43-0.8,0.86-1.2,1.29c-0.7,0.82-1.43,2.04-2.7,2c-0.29,0.16-1.15,0.79-1.49,0.52    c-1.01-0.8-2.2-2.04-3-3.05c-0.13-0.16-0.95-0.86-0.88-1.1c0.11-0.33,0.23-0.53,0.5-0.74c0.21-0.15,0.36-0.18,0.4-0.44    c0.5,0,1.2-0.06,1.53-0.47c0.43,0.01,0.98,0.26,1.29-0.12c0.47,0.27,0.94,0.55,1.41,0.82c0.17-0.03,0.33-0.06,0.5-0.09    c-0.08,0.59,0.78,0.53,0.1,1.09c-0.06,0.04-0.11,0.08-0.17,0.12c-0.14,0.1,0.08,0.56,0.27,0.46c0.35-0.18,0.79-0.5,1.17-0.29    c0.06-0.11,0.12-0.21,0.18-0.32c0.17-0.36,0.93-1.15,0.64-1.56c0.14-0.11,0.56-0.5,0.65-0.41c0.1,0.1,0.19,0.19,0.29,0.29    c-0.1,0.31-0.2,0.61-0.3,0.92C328.13,302.76,328.89,303.43,328.77,303.57z"/>
            <circle cx="320.3" cy="286.55" r="1.586"/>
        </g>
        <g id="__Çamlıyayla">
            <path d="    M429.35,135.01c-0.31-0.16-0.62-0.32-0.93-0.49c-0.43,0.31-1.23-0.24-1.64-0.47c-0.4-0.41-0.81-0.82-1.21-1.24    c-0.89-0.79-1.7-1.47-2.66-2.17c-0.27-0.31-0.55-0.63-0.83-0.94c-0.88-0.99-1.42-1.68-2.51-2.43c-0.42-0.24-0.83-0.49-1.24-0.73    c-0.31-0.31-0.63-0.63-0.94-0.94c-0.24-0.44-0.32-0.81-0.82-1.06c-0.65-0.31-1.46-0.39-2-0.86c-0.46-0.4-1.3-0.44-1.88-0.55    c-0.43-0.41-2.54-0.92-3.17-0.94c-0.59-0.2-1.17-0.39-1.76-0.59c-0.13-0.6-1.59-1.61-2.11-2c-0.16-0.23-0.31-0.47-0.47-0.7    c-0.11-0.36-0.22-0.71-0.33-1.07c-0.01-0.23-0.02-0.46-0.03-0.69c0.58-0.87,0.6-1.01,1.17-1.88c0.05-0.07,0.66-0.87,0.7-0.94    c-0.08-0.04,0.08-0.67,0-0.7c0.03-0.52-0.48-0.31-0.82-0.7c-0.27-0.2-0.55-0.39-0.82-0.59c-0.14-0.44-0.55-0.48-0.82-0.82    c-0.49-0.6-1.21-1.12-1.53-1.88c-0.62-1.49-0.32-2.69-0.09-4.24c0.21-1.42,0.16-2.68,0.86-4c0.49-0.92,1.44-1.62,2.29-2.2    c0.08-0.8,1.02-1.39,1.63-1.79c1.54-1.02,3.12-1.82,4.86-2.48c0.85-0.33,2.74-0.94,3.59-0.72c1.12-0.5,1.79-1.4,2.2-2.5    c-0.08-0.44-0.16-0.88-0.25-1.32c-0.1-0.57-0.29-0.99-0.52-1.52c0.12-0.54-0.51-1.94-0.81-2.4c-0.17-0.24-0.2-0.08-0.41-0.23    c-0.81-0.57-1.41-0.51-2.3-0.31c-0.9-0.04-1.8-0.08-2.7-0.12c-0.08-0.26-0.55-0.5-0.84-0.45c-0.81-0.36-1.57-0.37-2.45-0.37    c-0.17-0.3-0.74-0.4-1.06-0.59c-0.12-0.16-0.24-0.31-0.36-0.47c-0.15-0.67-0.31-1.33-0.46-2c0.21-0.12,0.82-1.92,0.82-2.23    c0.39-1.64,0.78-3.29,1.17-4.93c0.2-0.35,0.39-0.7,0.59-1.06c-0.3-0.39,0.12-1.37,0.35-1.76c0.09-0.4,0.18-0.81,0.27-1.21    c0.39-1.73,1.32-2.69,2.01-4.17l-0.05-0.13c0.63-0.08,1.25-0.16,1.88-0.23c0.97,0.06,1.93,0.12,2.9,0.17    c0.52-0.02,1.04-0.04,1.56-0.05c0.63-0.16,1.25-0.31,1.88-0.47c0.9,0.04,1.8,0.08,2.7,0.12c0.98-0.04,1.96-0.08,2.93-0.12    c0.43-0.12,0.86-0.23,1.29-0.35c1.41-0.04,2.82-0.08,4.23-0.12c1.84-0.51,3.68-1.02,5.52-1.53c0.43-0.08,0.86-0.16,1.29-0.23    c0.83-0.34,1.66-0.67,2.48-1.01c0.31-0.09,0.61-0.19,0.92-0.28c1.8-0.39,3.6-0.78,5.4-1.17c-0.25,0-0.36,0.09-0.54,0.26    c-0.29,0.34-0.59,0.69-0.88,1.03c-0.01,0.55-0.01,1.1-0.02,1.65c0.17,0.35,0.34,0.71,0.51,1.06c-0.05,0.26-0.1,0.53-0.15,0.79    c0.01,0.56,0.02,1.12,0.04,1.68c-0.02,0.76,0.54,1.42,0.7,2.11c0.02,0.27,0.04,0.53,0.06,0.8c-0.46,1.05,0.1,2.5,0.29,3.55    c0.04,0.59,0.08,1.17,0.12,1.76c-0.04,1.25-0.17,3.18,0.82,4.11c0,0.53-0.16,0.9-0.23,1.41c-0.13,0.89-0.09,1.7,0,2.58    c0.1,1.03-0.02,1.94,0.35,2.94c0.12,0.59,0.23,1.17,0.35,1.76c-0.46,1.49-0.1,2.7,0.23,4.11c0.23,0.97,0.21,1.88,0.59,2.82    c0.08,0.47,0.16,0.94,0.23,1.41c-0.03,0.57-0.06,1.15-0.09,1.72c0.1,0.29,0.26,0.7,0.09,0.98c0.35,0.91,0.28,1.72,0.44,2.68    c-0.13,0.19,0,0.76,0.14,0.96c-0.04,0.23-0.08,0.47-0.11,0.7c0.04,0.67,0.08,1.33,0.11,2c0.12,0.2,0.23,0.39,0.35,0.59    c0.01,0.26,0.07,0.39-0.12,0.59c0.23,0.82,0.47,1.64,0.7,2.47c-0.04,0.39-0.08,0.78-0.12,1.17c0.21,0.83,0.72,2.07,0.47,2.93    c0.29,0.57,1.56,2.79,1.06,3.4c0.08,0.27,0.16,0.55,0.23,0.82c0.27,0.43,0.55,0.86,0.82,1.29c1.5,0.85,3.14,1.21,4.81,1.64    c0.36,0.1,1.87,0.58,2.12,0.47c0.85,0.53,1.56,1.05,1.94,2.01c0.06,0.07,0.12,0.15,0.18,0.22c0,1.19-0.16,1.92-0.47,3.05    c-0.04,0.46-0.07,0.92-0.11,1.39c-0.14,0.76-0.46,1.46-0.83,2.14c-0.12,0.27-0.23,0.55-0.35,0.82c-0.12,1.06-0.23,2.11-0.35,3.17    c-0.27,0.78-0.54,1.57-0.81,2.35c-0.16,0.47-0.32,0.94-0.48,1.41c-0.12,0.2-0.23,0.39-0.35,0.59c-0.16,0.13-0.32,0.26-0.48,0.39    c-0.26,0.4-0.68,1.06-1.16,1.24c-1.45,0.53-1.97,0.1-3.37-0.3c-0.48-0.09-0.97-0.18-1.45-0.27c-0.66-0.33-1.13-0.63-1.75-1.06    c-0.36-0.23-0.71-0.47-1.07-0.7c-0.21-0.07-0.38-0.22-0.59-0.12c-0.59-0.55-1.17-1.1-1.76-1.64c-0.23-0.08-0.47-0.16-0.7-0.23    c-1.21-0.15-2.42-0.29-3.63-0.44c-1-0.18-1.41-0.43-2.47-0.37c-0.45,0.03-1.62-0.23-1.88,0.1c-0.23-0.3-1.01-0.92-0.94-1.29    c-0.2-0.12-0.39-0.23-0.59-0.35c-0.77-0.14-1.25,0.08-1.99,0.18c-0.46-0.22-2.45,0.16-2.94,0.41c-0.43,0.21-0.7,0.78-1.53,1    L429.35,135.01z"/>
            <circle cx="434.99" cy="119.09" r="1.586"/>
        </g>
        <g id="__Tarsus">
            <path d="M526.56,189.7c0.29-1.75,0.13-3.43,0.35-5.17    c-0.44-0.32-0.55-1.81-0.5-2.35c0.03-0.36,0.42-0.44,0.73-0.58c-0.03-0.54-0.05-1.09-0.08-1.63c-0.05-0.35-0.43-0.74-0.63-1.07    c0-0.59,0-1.17,0-1.76c0.12-0.78,0.23-1.57,0.35-2.35c0-0.72-1.63-1.12-2.23-1.29c-0.16-0.27-0.31-0.55-0.47-0.82    c-0.51-0.12-0.44-0.85-0.47-1.29c-0.23-0.23-0.21-0.84-0.23-1.17c-0.12-1-0.23-1.99-0.35-2.99c-0.44-1.22-2.88-1.4-3.82-2.34    c-0.16-0.18-0.3-1.11-0.21-1.33c-0.15-0.64-0.29-1.27-0.44-1.91c0.26-0.23,0.17-0.71,0.22-1.05c0.12-0.51,0.25-1.02,0.37-1.53    c-0.02-0.27-0.04-0.54-0.05-0.81c0.05-0.49,0.33-0.44,0.76-0.6c0.35-0.67,0.7-1.33,1.06-2c0.31-0.9,0.63-1.8,0.94-2.7    c0.13-0.41,0.26-0.81,0.39-1.22c0.38-0.92,0.76-1.85,1.13-2.77c0.25-0.65,0.17-1.1-0.23-1.64c0.15-0.18,0.11-0.36,0.11-0.59    c0-0.29,0.11-0.36-0.25-0.32c-0.07-0.1-0.13-0.21-0.2-0.31c-0.31-0.39-1.7-0.48-2.29-0.59c-0.97-0.17-1.93-0.59-2.67-1.15    c-0.22-0.09-0.44-0.18-0.66-0.27c-0.37-0.25-0.64-1.01-0.38-1.41c-0.06-0.41-0.12-0.81-0.18-1.22c0.1-0.61-0.03-0.08-0.44-0.43    c-0.25-0.2-1.59,0.74-2.08,0.96c-0.17,0.08-0.4-0.21-0.56-0.34c-0.52-0.5-1.03-0.99-1.55-1.49c-0.69,0-2.32,0.14-2.82-0.35    c-0.44,0.21-0.89,0.41-1.33,0.62c-0.73,0.05-1.45,0.09-2.18,0.14c-0.39,0.09-0.41,0.52-0.48,0.89c-0.46-0.31-0.37-0.86-0.54-1.31    c-0.39-0.9-0.79-1.79-1.18-2.69c-0.23-0.54-0.79-0.43-1.33-0.47c-0.4-0.94-0.85-1.75-1.41-2.58c-0.03-0.39-0.06-0.79-0.08-1.18    c-0.05-0.66-0.1-1.33-0.15-1.99c-0.3-0.47-0.59-0.94-0.89-1.41c-0.29-0.39-0.58-0.78-0.87-1.17c-0.12-0.06-0.23-0.13-0.34-0.19    c-0.54-0.67,0.14-0.63,0.74-1.15c0.18-0.16-1.37-0.75-1.58-0.85c-0.35-0.13-0.7-0.26-1.05-0.39c-0.16-0.86-1.97-1.91-2.58-2.7    c-0.1-1.72-1.55-3.92-2.19-5.52c-0.5-1.27-0.65-2.67-0.91-3.99c-0.22-1.09-0.43-2.19-0.65-3.28c-0.01-0.13,1.22-0.54,1.44-0.64    c1.66-0.58,3.32-1.16,4.98-1.74c0.09-0.03,0.18-0.06,0.26-0.09c-0.06-0.09-0.13-0.17-0.19-0.26c0.35-0.66,0.31-1.37,0.31-2.09    c0.42-0.4,0.16-1.45,0.23-2c0.15-1.92,0.3-3.84,0.45-5.76c0.01-0.09-0.75-0.89-1.02-1.08c-1.22-0.81-2.43-1.63-3.65-2.44    c0.02-0.31-0.6-0.61-0.85-0.79c-0.94-0.68-2.21-0.74-3.33-1c-2.73-0.64-5.58-1.73-8.38-1.73c-1.8-0.53-3.61-1.06-5.41-1.59    c-2.33-0.63-4.34-1.12-6.2-2.69c-0.12-0.1-1.42-0.56-1.42-0.19c-0.49-0.29-0.53-0.89-0.79-1.34c-0.24-0.02-0.47-0.05-0.71-0.07    c-0.16,0.01-0.62-1.07-0.8-1.31c0.15-0.51,0.3-1.02,0.46-1.52c0.37-1.43,0.63-2.88,0.7-4.32c0.07-1.17,0.13-2.35,0.2-3.52    c-0.09-0.54-0.19-1.08-0.28-1.63c-0.34-0.87-0.67-1.73-1.01-2.6c-0.17-1.88-0.35-3.75-0.52-5.63c-0.06-0.24-0.12-0.47-0.18-0.71    c-0.7-0.08-1.41-0.16-2.11-0.23c-0.23-0.12-0.47-0.23-0.7-0.35c-0.39-0.97-2.79-1.18-3.74-1.36c-1.06-0.09-2.12-0.19-3.18-0.28    c-0.4,0.49-1.52,0.57-2.11,0.47c-0.4-0.06-0.78-0.31-1.06-0.59c-0.42,0.13-0.75-0.17-1.17-0.12c-1.51,0.17-3-0.38-4.52-0.11    l-0.36,0.13c-0.29,0.34-0.59,0.69-0.88,1.03c-0.01,0.55-0.01,1.1-0.02,1.65c0.17,0.35,0.34,0.71,0.51,1.06    c-0.05,0.26-0.1,0.53-0.15,0.79c0.01,0.56,0.02,1.12,0.04,1.68c-0.02,0.76,0.54,1.42,0.7,2.11c0.02,0.27,0.04,0.53,0.06,0.8    c-0.46,1.05,0.1,2.5,0.29,3.55c0.04,0.59,0.08,1.17,0.12,1.76c-0.04,1.25-0.17,3.18,0.82,4.11c0,0.53-0.16,0.9-0.23,1.41    c-0.13,0.89-0.09,1.7,0,2.58c0.1,1.03-0.02,1.94,0.35,2.94c0.12,0.59,0.23,1.17,0.35,1.76c-0.46,1.49-0.1,2.7,0.23,4.11    c0.23,0.97,0.21,1.88,0.59,2.82c0.08,0.47,0.16,0.94,0.23,1.41c-0.03,0.57-0.06,1.15-0.09,1.72c0.1,0.29,0.26,0.7,0.09,0.98    c0.35,0.91,0.28,1.72,0.44,2.68c-0.13,0.19,0,0.76,0.14,0.96c-0.04,0.23-0.08,0.47-0.11,0.7c0.04,0.67,0.08,1.33,0.11,2    c0.12,0.2,0.23,0.39,0.35,0.59c0.01,0.26,0.07,0.39-0.12,0.59c0.23,0.82,0.47,1.64,0.7,2.47c-0.04,0.39-0.08,0.78-0.12,1.17    c0.21,0.83,0.72,2.07,0.47,2.93c0.29,0.57,1.56,2.79,1.06,3.4c0.08,0.27,0.16,0.55,0.23,0.82c0.27,0.43,0.55,0.86,0.82,1.29    c1.5,0.85,3.14,1.21,4.81,1.64c0.36,0.1,1.87,0.58,2.12,0.47c0.85,0.53,1.56,1.05,1.94,2.01c0.06,0.07,0.12,0.15,0.18,0.22    c0,1.19-0.16,1.92-0.47,3.05c-0.04,0.46-0.07,0.92-0.11,1.39c-0.14,0.76-0.46,1.46-0.83,2.14c-0.12,0.27-0.23,0.55-0.35,0.82    c-0.12,1.06-0.23,2.11-0.35,3.17c-0.27,0.78-0.54,1.57-0.81,2.35c-0.16,0.47-0.32,0.94-0.48,1.41c-0.12,0.2-0.23,0.39-0.35,0.59    c-0.16,0.13-0.32,0.26-0.48,0.39c-0.26,0.4-0.68,1.06-1.16,1.24c-1.45,0.53-1.97,0.1-3.37-0.3c-0.48-0.09-0.97-0.18-1.45-0.27    c-0.66-0.33-1.13-0.63-1.75-1.06c-0.36-0.23-0.71-0.47-1.07-0.7c-0.21-0.07-0.38-0.22-0.59-0.12c-0.59-0.55-1.17-1.1-1.76-1.64    c-0.23-0.08-0.47-0.16-0.7-0.23c-1.21-0.15-2.42-0.29-3.63-0.44c-1-0.18-1.41-0.43-2.47-0.37c-0.45,0.03-1.62-0.23-1.88,0.1    c-0.23-0.3-1.01-0.92-0.94-1.29c-0.2-0.12-0.39-0.23-0.59-0.35c-0.77-0.14-1.25,0.08-1.99,0.18c-0.46-0.22-2.45,0.16-2.94,0.41    c-0.43,0.21-0.7,0.78-1.53,1l-0.13-0.04c0.59,0.31,1.18,0.62,1.77,0.92c0.45,0.18,1.32,0.15,1.58,0.41    c0.63,0.63,1.07,1.53,1.21,2.41c0.28,0.08,0.56,0.15,0.84,0.23c0.12,0.43,0.23,0.86,0.35,1.29c0.71,0.63,1.49,1.31,2.01,2.14    c0.49,0.19,0.89,0.82,1.16,1.26c0.15,0.5,0.3,0.99,0.45,1.49c0.2,0.58,0.53,1.28,0.49,1.91c0.29,0.46,1.2,2.06,1.06,2.58    c0.49,0.65,1.03,1.2,1.45,1.92c0.17,0.29,0.49,0.53,0.31,0.9c0.55,0.78,1.1,1.57,1.64,2.35c0.24,0.4,0.79,0.48,0.94,0.94    c0.82,0.29,1.66,0.61,1.69,1.53l0.07,0.35c0.46,0.41,0.47,0.82,0.78,1.32c0.72,1.13,1.44,2.25,2.16,3.38    c0.39,0.31,0.78,0.63,1.17,0.94c-0.07,0.28,0.3,0.51,0.5,0.68c0.51,0.44,0.7,1.02,1.02,1.55c0.35,0.31,0.7,0.63,1.06,0.94    c0.7,0.47,1.41,0.94,2.11,1.41c0.31,0.35,0.63,0.7,0.94,1.06c0.51,0.27,1.02,0.55,1.53,0.82c0.07,0.16,2.02,1.74,2.24,1.83    c0.11,0.05,0.74-0.13,0.85-0.25c0.81,0,2.28-0.69,3.14-0.96c0.82-0.17,1.64-0.34,2.45-0.5c0.82,0.2,1.64,0.39,2.47,0.59    c0.2,0.08,0.39,0.16,0.59,0.23c0.7,0.82,1.81,1.21,2.47,2.11c0.55,0.89,1.09,1.78,1.64,2.67c0.14,0.47,0.28,0.94,0.42,1.41    c0.2,0.47,0.47,0.68,0.76,1.08c-0.2,0.38,0.65,1.85,0.82,2.35c-0.11,0.47-0.23,0.94-0.34,1.41c-0.11,1.09-0.59,1.93-0.59,3.05    c-0.22,0.22-0.23,0.86-0.23,1.17c-0.2,0.51-0.39,1.02-0.59,1.53c-0.41,0.78-0.82,1.56-1.23,2.34c-0.2,0.44,0.56,2.05,0.68,2.59    c0.07,0.78,0.14,1.56,0.22,2.35c0.11,0.35,0.22,0.71,0.33,1.06c0.07,0.66,0.21,1.61,0.59,2.11c-0.18,0.52-0.25,0.97-0.34,1.53    c0,0.01,0,0.02,0,0.02c0.31,0.9,1.23,0.97,1.98,1.38c1.11,0.76,2.23,1.52,3.34,2.28c0.39,0.2,1.89,1.42,2,1.78    c2.22,2.08,4.26,5,4.64,8.03c0.2,0.97,1.04,0.08,1.43-0.29c0.97-0.88,1.94-1.76,2.91-2.64c-0.09-0.21,0-0.35,0.09-0.55    c0.19-0.37,0.15-0.12,0.49-0.14c0.08,0,0.16-0.01,0.24-0.01c-0.03,0.26,0.3,0.52,0.47,0.7c0.15-0.28,0.04-0.25,0.25-0.23    c0.56,0.02,0.66-0.25,0.92-0.71c0.81,0.9,1.6,1.09,2.7,1.06c0.14-0.07,0.29-0.13,0.43-0.2c0.78-0.43-0.46-1.31-0.6-1.83    c-0.09-0.35,0.05-0.34,0.23-0.61c0.32-0.39,1.07,0.06,1.46,0.15c0.2,0.05,0.11,0.01,0.08-0.24c0.11-0.06,0.22-0.11,0.33-0.17    c0.25-0.15,0.18-0.26,0.18-0.51c0-0.12,0-0.23-0.01-0.35c0.34,0.26,0.35,0.09,0.7,0c0.32,0.32,0.96-0.37,1.29-0.47    c0.63,0,1.25,0,1.88,0c0.21,0,0.1-0.04,0.23,0.24c0.84,0.25,1.25,1,1.78,1.63c0.12,0.14,0.56,0.01,0.81,0    c0.16,0.01,0.13-0.24,0.29-0.4c0.46-0.46-1.05-2.05-1.41-2.57c-0.02-0.03-0.03-0.05-0.05-0.08c0.37,0.02,0.32-0.05,0.54-0.3    c0.31-0.33,0.67,0.11,0.94,0.36c0.9,0.83,0.89,1.38,2.08,1.82c0.34,0.12,1.02-0.42,1.32-0.85c0.36-0.51-0.83-1.55-0.99-1.97    c0.03-0.4,0.06-0.79,0.1-1.19c0.2-0.19,0.4-0.39,0.61-0.58c0.14-0.13,0.37-0.07,0.59-0.1c0.24-0.03,0.4,0.31,0.54,0.48    c0.5,0.62,0.2,1.68,0.4,2.44c0,0.04,0,0.08,0,0.12c0.25-0.15,0.62,0.01,0.92,0.01c0.27-0.01,0.24,0.06,0.27-0.27    c0.86-0.55,0.59-1.2,0.68-2.08c0.23-0.31,0.47-0.63,0.7-0.94c0.86-0.39,1.72-0.78,2.58-1.17c0.2-0.27,0.39-0.55,0.59-0.82    c0.12-0.74,0.19-1.17,0.71-1.76c0.08-0.08,0.15-0.15,0.23-0.23c0.17,0.63,0.38,0.4,0.86,0.78c0.44,0.35,0.5,0.94,0.9,1.33    c0.36,0.37,0.73,0.74,1.09,1.11c0.38,0.02,0.76,0.04,1.14,0.06c0.15-0.36,0.6-0.32,0.91-0.52c0.67-0.43,1.92-1.02,2.74-1.18    c0.66-0.11,1.06,0.49,1.66,0.7c0.42,0.14,0.88-0.34,1.21-0.59c0.18-0.45,0.35-0.89,0.53-1.34c-0.34-0.41-0.19-1.81-0.21-2.34    c-0.03-0.5-0.33-0.76-0.67-1.12c-0.61-0.1-1.21-0.2-1.82-0.29c-0.4-0.08-0.46-0.29-0.7-0.59c-0.16,0-0.03-1.03,0.12-1.21    C524.48,191.39,525.66,190.76,526.56,189.7z M486.62,156.8c-0.42,0.34-1.64,0.76-2.2,0.74c-0.2,0.23-0.39,0.47-0.59,0.7    c0.06,0.06,0.11,0.13,0.17,0.19c0.23,0.25,0.65,0.77,1.01,0.74c0,0.08,0,0.16,0,0.23c0.03,0.08,0.05,0.17,0.08,0.25    c-0.52,0.22-1.18,0.75-1.13,1.39c0.09-0.06,0.18-0.12,0.27-0.18c0.07-0.06,0.13-0.12,0.2-0.18c0.26,0,0.4,0.08,0.59-0.12    c0.03,0.08,0.06,0.16,0.08,0.24c0.1,0.35,0.16,1.05-0.08,1.16c-0.5,0.21-0.99,0.43-1.49,0.64c-0.28,0.04-0.56,0.08-0.84,0.12    c-0.29,0.15-0.77,0.31-0.72,0.66c-0.26-0.03-0.52-0.06-0.7-0.23c-0.2,0.02-0.4,0.04-0.61,0.06c-0.07-0.35-0.29-0.23,0.01-0.52    c0.16-0.16,0.32-0.32,0.47-0.47c0.82-0.27,1.73-0.42,1.76-1.53c0.01-0.3,0.26-0.59-0.01-0.81c-0.21-0.13-0.17-0.04-0.11-0.37    c-0.11,0.05-0.21,0.11-0.32,0.16c-0.09-0.01-0.18-0.03-0.27-0.04c-0.29,0.31-0.74,0.61-0.7,1.06c-0.66,0.23-1.33,0.46-1.99,0.69    c-0.21,0.02-0.11,0.29-0.34,0.21c-0.52-0.2-1.74-0.8-0.68-1.08c0.18-0.06,0.3-0.17,0.48-0.02c0.11,0.1,0.25,0.35,0.39,0.26    c0.58-0.41,1.62-1.01,1.55-1.73c0.04-0.07,0.09-0.14,0.13-0.22c-0.14-0.05-0.87-0.22-0.81-0.4c0.02-0.07,0.04-0.14,0.07-0.21    c-0.07-0.07-0.13-0.15-0.2-0.22c0.04,0,0.07-0.01,0.11-0.01c0.42-0.05,0.59,0.07,0.87-0.26c0.3-0.39,0.66-0.82,0.66-1.37    c0.23,0.04,0.47,0.08,0.7,0.12c0.2-0.04,0.39-0.08,0.59-0.12c0.24-0.37,0.81-0.76,0.35-1.17c0.28-0.34,0.64-1.05,1.06-1.17    c0.08-0.35,0.18-1.19-0.07-1.14c-0.91,0.21-1.06,1-2.04,0.32c0.45-0.1,0.8-0.2,1.17-0.47c0-0.31,0.21-0.52,0.47-0.7    c0.15-0.1,0.8-0.4,0.87-0.26c0.09,0.19,0.09,0.3,0.31,0.37c0.1,0.4,0.07,1.13,0.35,1.41c-0.23,0.47-0.47,0.94-0.7,1.41    c0.08,0.21,0.22,0.37,0.12,0.59c0.03-0.01,0.07-0.02,0.1-0.03c0.65-0.19,1.02-0.48,1.7-0.18c0.05-0.02,0.1-0.03,0.15-0.05    c-0.12,0.24-0.17,0.2-0.07,0.5c-0.19,0.09-0.59,0.23-0.54,0.42c0.15,0.4,0.13,0.54,0.66,0.4    C486.79,156.66,486.7,156.73,486.62,156.8z"/>
            <circle cx="485.35" cy="172.74" r="1.586"/>
        </g>
        <g id="__Akdeniz">
            <path d="    M436.77,199.3c-0.04,0.39-0.01,0.74,0.22,0.83c0.28,0.12,0.84,0.56,1.06,0.39c0.19-0.16,0.39-0.33,0.58-0.49    c0.2-0.01,0.4-0.03,0.6-0.04c-0.02-0.14-0.04-0.28-0.07-0.42c0.12-0.25-0.45,0.11-0.53,0.23c0.02-0.08,0.04-0.16,0.06-0.24    c0.05-0.23,0.51-0.65,0.76-0.82c0.05-0.13,0.1-0.26,0.16-0.39c0.18-0.1,0.36-0.21,0.55-0.32c0-0.2,0-0.39,0-0.59    c0.04,0.03,0.08,0.06,0.12,0.08c0.08,0.05,0.15,0.1,0.23,0.15c0.19-0.49,0.33-0.47,0.82-0.47c0.2-0.23,0.39-0.47,0.59-0.7    c0.08,0.07,0.15,0.15,0.23,0.22c0.1,0.11,0.2,0.22,0.3,0.34c0.17-0.07,0.35-0.14,0.52-0.21c0-0.81,0.37-0.59,0.47-1.17    c0.2,0.03,0.39,0.06,0.59,0.1c0.24,0.04,0.15,0.49-0.12,0.49c0.43,0.04,1.2,0.09,1.53-0.23c0.61,0,1.75,0.08,2.11-0.47    c0.31,0.08,0.63,0.16,0.94,0.23c0.43-0.04,0.86-0.08,1.29-0.12c0.18,0.18,0.79,0.26,1.06,0.23c0.31-0.08,0.63-0.16,0.94-0.23    c0.32-0.05,0.69,0.14,0.94-0.12c0.5,0,2.04-0.05,2.35-0.35c0.63-0.12,1.25-0.23,1.88-0.35c0.72,0.12,1.3,0,2,0    c0.51,0.04,1.02,0.08,1.53,0.12c0.38,0.38,1.09,0.16,1.52,0.26c1.22,0.27,2.43,0.53,3.65,0.8c0.47,0.16,0.94,0.31,1.41,0.47    c1.2,0.47,2.35,0.82,3.56,1.33c0.38,0.14,0.76,0.29,1.14,0.43c0.55,0.35,1.1,0.7,1.64,1.06c0.16,0.11,0.59,0.23,0.6,0.12    c0.09-0.56,0.15-1.01,0.34-1.53c-0.38-0.5-0.52-1.45-0.59-2.11c-0.11-0.35-0.22-0.71-0.33-1.06c-0.07-0.78-0.14-1.57-0.22-2.35    c-0.12-0.53-0.88-2.15-0.68-2.59c0.41-0.78,0.82-1.56,1.23-2.34c0.2-0.51,0.39-1.02,0.59-1.53c0-0.31,0.02-0.95,0.23-1.17    c0-1.12,0.49-1.96,0.59-3.05c0.11-0.47,0.23-0.94,0.34-1.41c-0.17-0.5-1.02-1.97-0.82-2.35c-0.29-0.4-0.56-0.62-0.76-1.08    c-0.14-0.47-0.28-0.94-0.42-1.41c-0.55-0.89-1.09-1.78-1.64-2.67c-0.66-0.9-1.76-1.29-2.47-2.11c-0.2-0.08-0.39-0.16-0.59-0.23    c-0.82-0.2-1.64-0.39-2.47-0.59c-0.82,0.17-1.64,0.34-2.45,0.5c-0.86,0.28-2.33,0.96-3.14,0.96c-0.11,0.12-0.74,0.3-0.85,0.25    c-0.22-0.1-2.17-1.67-2.24-1.83c-0.51-0.27-1.02-0.55-1.53-0.82c-0.31-0.35-0.63-0.7-0.94-1.06c-0.7-0.47-1.41-0.94-2.11-1.41    c-0.35-0.31-0.7-0.63-1.06-0.94c-0.32-0.53-0.52-1.11-1.02-1.55c-0.2-0.17-0.57-0.4-0.5-0.68c-0.39-0.31-0.78-0.63-1.17-0.94    c-0.72-1.13-1.44-2.25-2.16-3.38c-0.3-0.5-0.32-0.91-0.78-1.32l-0.07-0.35c-0.03,0.93-1.59,2.91-2.07,3.91    c-0.81,1.68-1.9,3.26-2.55,5.01c-0.54,0.76-1.07,1.52-1.61,2.27c-0.37,1.13-1.22,2.27-2.03,3.13c-0.99,0.95-1.97,1.9-2.96,2.85    c-0.43,0.59,0.09,0.9-0.69,1.14c0.09,0.1,0.19,0.2,0.28,0.3c0.32,0.33,1.41,1.55,1.48,1.93c0.29,0.23,0.57,0.36,0.7,0.7    c0.51,0.31,1.02,0.63,1.53,0.94c0.27,0.23,0.55,0.47,0.82,0.7c0.43,0.7,0.86,1.41,1.29,2.11c0.41,0.51,0.59,2.74,1.17,2.7    c0.3,1.2,0.02,2.52,0.85,3.49c0.19,0.22,0.78,0.97,1.02,0.73c-0.39,0.27-0.78,0.55-1.17,0.82c-0.68,0.26-1.68,0.17-1.94,0.87    c-0.25,0.66-0.51,1.32-0.76,1.98c-0.16,0.66-0.31,1.31-0.47,1.97c-1.21,0-1.28,1.3-1.88,1.41c-0.12,0.42-0.23,0.83-0.35,1.25    c-0.09,0.23-0.65,1.18-0.67,1.17L436.77,199.3z"/>
            <circle cx="445.32" cy="193.4" r="1.586"/>
        </g>
        <g id="__Mezitli">
            <path d="    M409.49,172.09c-0.1-0.43-0.35-1.64-0.68-1.88c-0.2-1.02-0.39-2.04-0.59-3.05c-0.2-0.51-0.39-1.02-0.59-1.53    c-0.1-0.42-1.16-1.59-1.53-1.76c-1.12-1.76-2.83-3.19-4.83-3.88c-0.73-0.25-1.45-0.19-2.21-0.23c-0.71-0.04-1.68-0.51-2.35-0.12    c-0.56-0.11-1.34-0.44-1.88-0.12c-0.86-0.12-1.72-0.23-2.58-0.35c-0.63,0-1.25,0.01-1.87,0.01c-0.31-0.04-0.63-0.09-0.94-0.13    c-0.31,0.04-0.63,0.08-0.94,0.12c-0.35-0.08-0.7-0.16-1.06-0.23c-0.47,0.04-0.94,0.08-1.41,0.12c-0.21-0.16-0.33-0.23-0.59-0.23    c-0.54,0-2.3,0.25-2.58-0.12c-0.94,0.18-1.59,0.49-2.23,1.17c-0.24,0.14-0.47,0.28-0.71,0.42c-0.36,0.36-1.42,1.57-1.87,1.57    l0.31,0.58c-0.12,0.35-0.31,1.08-0.66,1.19c0.27,0.27-0.01,1.13-0.11,1.49c-0.28,0.99-0.32,1.83-0.36,2.86    c-0.02,0.3-0.03,0.6-0.05,0.91c0.07,0.45,0.41,1.54,0.17,1.91c0.35,0.46,0.71,0.91,1.06,1.37c0.09,0.03,0.18,0.06,0.27,0.09    c-0.93,0.65-1.78,0.43-2.84,0.63c-0.48,0.12-0.96,0.25-1.43,0.37c-0.47,0.37-1.08,0.81-1.04,1.39c0.03,0.28,0.07,0.56,0.1,0.84    c0.19,0.24,0.3,0.48,0.59,0.59c0.31,0.55,0.59,1.21,1.17,1.53c0.15,0.32,0.31,0.64,0.46,0.96c0.24,0.28,0.78,1.2,0.6,1.51    c0.83,0.42,1.56,0.74,2.23,1.41c0.63-0.04,1.25-0.08,1.88-0.12c0.35,0.04,0.7,0.08,1.06,0.12c1.39-0.18,2.25-0.58,3.69,0.09    c0.18,0.75-0.43-1.02,1.82,0.62c0.22-0.12,0.94,0.51,1.14,0.64c0.91,0.57,1.43,1.42,2.26,2.06c0.19,0.15,0.47,0.26,0.7,0.23    c0.98,0.86,1.96,1.72,2.94,2.58c0.12,0.27,0.23,0.55,0.35,0.82c0.21,0.41,1.13,2.11,1.06,2.46c0.45,0.96,0.9,1.93,1.35,2.89    c0.18,0.39,0.58,1.06,0.53,1.45c0.24,0.23,0.48,0.45,0.72,0.68c0.11,0.28,0.22,0.56,0.34,0.85c0.31,0.43,0.63,0.86,0.94,1.29    c0.2,0.55,0.39,1.1,0.59,1.64c0.2,0.48,1.31,1.12,1.33,1.2c0.18,0.62,0.39,2.49,0.08,3.03c0.08,0.9,0.16,1.8,0.23,2.7    c-0.04,0.47-0.08,0.94-0.12,1.41c0.44,1.34,0.89,2.67,1.33,4.01c0.82,1.16,1.89,2,2.55,3.27c0.71-0.44,1.43-0.06,2.11,0.25    c0.21,0.09,0.42,0.19,0.62,0.28c0.41,0.77,0.39,1.41,0.48,2.26c-0.14,0.14-0.19,0.19-0.15,0.39c0.08,0.41,0.44,1.55,0.82,1.64    l-0.09-0.3c0.24,0.48,0.82-0.27,1.03-0.52c0.39-0.07,0.67-0.45,0.94-0.71c0.27-0.19,0.55-0.39,0.82-0.58    c0.23-0.51,0.47-1.02,0.7-1.53c0.71,0.12,2.51-1.4,3.29-1.76c0.27-0.16,0.55-0.31,0.82-0.47c0.39-0.08,0.78-0.16,1.17-0.23    c0.31-0.43,0.63-0.86,0.94-1.29c0.56-0.05,0.91-0.41,1.37-0.68c0.48-0.21,0.96-0.43,1.45-0.64c0.2-0.15,0.39-0.29,0.59-0.44    c0.57,0.32,1.7-0.47,2.17-0.78c0.11-0.32,0.21-0.65,0.32-0.97c0.32-0.32,0.51-0.53,0.68-0.95c0.42-0.3,0.39-0.74,0.23-1.17    c0.29-0.23,0.19-0.36,0.23-0.7c0.27-0.39,0.55-0.78,0.82-1.17c-0.04-0.16-0.07-0.32-0.11-0.48c-0.14-0.17-0.28-0.34-0.41-0.51    c-0.17-0.18-0.71,0-0.88,0.15c-0.65,0.02-1.11-0.07-1.66-0.3c-0.3-0.1-0.22-0.36-0.22-0.62c-0.12-0.16-0.23-0.31-0.35-0.47    c-0.39-0.2-0.78-0.39-1.17-0.59c-0.08-0.38-0.29-1.17-0.61-1.36c-0.57-0.29-1.44,0.29-1.97,0.54c-0.72-0.17-1.06-0.83-1.44-1.39    c-0.19-0.29,0.03-0.65,0.15-0.95c-0.09-0.29,0.69-1.61,0.94-1.88c-0.04-0.59-0.08-1.17-0.12-1.76c0-0.66-1.02-1-1.55-1.05    c-0.82-0.07-1.85-0.14-2.61-0.57c-0.23,0-0.38,0.03-0.53-0.17c-0.7-0.08-1.36-0.23-1.92-0.64c-0.11-0.09-0.21-0.18-0.32-0.27    c-0.13-0.85-0.31-1.65-0.59-2.47c-0.56-0.33-1.33-2.18-1.53-2.82c-0.04-0.43-0.08-0.86-0.12-1.29c-0.46-1.32-1.29-2.25-2.39-3.05    c-0.47-1.35,0.12-2.45,0.4-3.76c0.31-1.21,0.63-2.43,0.94-3.64c-0.11-0.23,0.15-1.09,0.35-1.29c0.2-0.74,0.39-1.49,0.59-2.23    L409.49,172.09z"/>
            <circle cx="421.37" cy="207.95" r="1.586"/>
        </g>
        <g id="__Toroslar">
            <path d="    M378.1,162.28c-0.06-0.27-0.26-0.29-0.52-0.25c-0.5-0.42-1.12-0.43-1.75-0.39c-0.27-0.09-0.54-0.18-0.81-0.26    c-0.55,0.01-1.1,0.02-1.65,0.03c-1.11-0.05-2.37-0.42-3.4-0.82c-0.2-0.16-0.39-0.31-0.59-0.47c-0.32-0.62-1.07-0.81-1.53-1.29    c-0.36-0.56-0.72-1.13-1.08-1.69c-0.18-0.37,0.15-1.15,0.29-1.59c0.3-0.91,0.88-1.42,1.49-2.12c0.07-0.47,1.26-1.55,1.64-1.89    c0.04-0.04,0.08-0.07,0.12-0.11c0.21,0.23,0.65,0.05,0.94,0c0.14-0.33,0.51-0.41,0.82-0.59c0.16-0.52,0.93-0.67,1.29-1.06    c0.23-0.23,0.47-0.47,0.7-0.7c-0.15-0.32,0.2-0.99,0.35-1.3c0.23-0.51,0.47-1.01,0.7-1.52c0.47-0.47,0.94-0.94,1.41-1.41    c0.28,0.14,1.06-0.11,1.28-0.35c1.88-0.47,2.89-2.15,2.72-4c-0.03-0.45-0.99-1.33-1.3-1.65c-1.13-1.16-1.49-1.17-1.71-2.82    c-0.13-0.97,0.18-1.76,0.3-2.69c-0.35-0.35,0.05-1.95,0.12-2.47c-0.04-0.74-0.08-1.49-0.12-2.23c-0.02-0.52-0.04-1.04-0.06-1.56    c0.06-0.57,0.12-1.15,0.18-1.72c-0.16-0.65-0.19-1.7-0.35-2.35c-0.25-0.66-1.6-0.94-2.35-0.94c-0.23-0.28-0.46-0.56-0.7-0.83    c-0.56-0.69-0.98-1.53-1.3-2.34c-0.23-0.47-0.47-0.94-0.7-1.41c0-0.35,0-0.7,0-1.06c-0.39-0.5-1.3-1.95-1.9-2.03    c-0.27-0.22-0.53-0.45-0.8-0.67c-1-0.39-3.2-0.18-4.34-0.12l0.13-0.06c1.69-1.05,3.38-2.1,5.06-3.14c0.3-0.3,1.31-0.71,1.62-1.01    c1.25-0.73,1.81-1.35,3.06-2.09c1.01-0.87,2.03-1.74,3.04-2.61c0.7-0.9,1.41-1.8,2.11-2.7c0.52-0.41,1.03-0.82,1.54-1.23    c0.41-0.49,0.88-0.83,1.17-1.42c0.07-0.02,0.14-0.04,0.22-0.06c0.39-0.82,0.78-1.64,1.17-2.46c0.22-0.35,0.07-0.73,0.47-0.94    c0.16-0.35,0.31-0.7,0.47-1.06c0.09-0.4,0.19-0.8,0.28-1.2c0.53-0.89,1.06-1.79,1.6-2.68c0.12-0.29,0.43-0.81,0.7-0.94    c0.28-0.78,0.65-1.5,1.06-2.23c0.29-0.51,0.75-0.9,0.82-1.53c0.82-0.99,1.63-1.97,2.45-2.96c0.24-0.32,0.66-0.65,0.72-1.03    c0.81-0.68,1.61-1.36,2.42-2.04c1.62-1.5,3.55-2.94,5.44-4.06c0.82-0.55,1.64-1.1,2.47-1.64c0.23-0.31,0.47-0.63,0.7-0.94    c0.12-0.63,0.23-1.25,0.35-1.88c0.12-0.27,0.29-0.44,0.12-0.7c0.24-0.23,0.47-0.46,0.71-0.7c1.16-1.11,2.13-2.31,3.65-3.02    c0.21-0.1,2.24-1.12,2.03-0.73c-0.69,1.49-1.62,2.44-2.01,4.17c-0.09,0.4-0.18,0.81-0.27,1.21c-0.24,0.4-0.65,1.37-0.35,1.76    c-0.2,0.35-0.39,0.7-0.59,1.06c-0.39,1.64-0.78,3.29-1.17,4.93c0,0.31-0.61,2.11-0.82,2.23c0.15,0.67,0.31,1.33,0.46,2    c0.12,0.16,0.24,0.31,0.36,0.47c0.31,0.18,0.88,0.29,1.06,0.59c0.88,0,1.64,0.01,2.45,0.37c0.29-0.05,0.76,0.19,0.84,0.45    c0.9,0.04,1.8,0.08,2.7,0.12c0.89-0.2,1.49-0.26,2.3,0.31c0.21,0.15,0.25-0.01,0.41,0.23c0.3,0.46,0.92,1.86,0.81,2.4    c0.23,0.53,0.42,0.94,0.52,1.52c0.08,0.44,0.16,0.88,0.25,1.32c-0.4,1.1-1.08,2-2.2,2.5c-0.85-0.22-2.74,0.4-3.59,0.72    c-1.74,0.67-3.31,1.46-4.86,2.48c-0.61,0.4-1.54,0.99-1.63,1.79c-0.85,0.58-1.8,1.28-2.29,2.2c-0.7,1.32-0.65,2.58-0.86,4    c-0.23,1.55-0.53,2.76,0.09,4.24c0.31,0.75,1.04,1.28,1.53,1.88c0.28,0.34,0.68,0.38,0.82,0.82c0.27,0.2,0.55,0.39,0.82,0.59    c0.34,0.39,0.85,0.18,0.82,0.7c0.08,0.04-0.08,0.67,0,0.7c-0.05,0.07-0.66,0.87-0.7,0.94c-0.58,0.87-0.6,1.01-1.17,1.88    c0.01,0.23,0.02,0.46,0.03,0.69c0.11,0.36,0.22,0.71,0.33,1.07c0.16,0.23,0.31,0.47,0.47,0.7c0.52,0.39,1.98,1.4,2.11,2    c0.59,0.2,1.17,0.39,1.76,0.59c0.63,0.02,2.74,0.53,3.17,0.94c0.57,0.11,1.42,0.14,1.88,0.55c0.54,0.47,1.35,0.55,2,0.86    c0.5,0.24,0.58,0.61,0.82,1.06c0.31,0.31,0.63,0.63,0.94,0.94c0.42,0.24,0.83,0.49,1.24,0.73c1.09,0.75,1.62,1.45,2.51,2.43    c0.27,0.31,0.55,0.63,0.83,0.94c0.96,0.69,1.77,1.38,2.66,2.17c0.4,0.41,0.81,0.82,1.21,1.24c0.41,0.23,1.21,0.78,1.64,0.47    c0.31,0.16,0.62,0.32,0.93,0.49c0.59,0.31,1.18,0.62,1.77,0.92c0.45,0.18,1.32,0.15,1.58,0.41c0.63,0.63,1.07,1.53,1.21,2.41    c0.28,0.08,0.56,0.15,0.84,0.23c0.12,0.43,0.23,0.86,0.35,1.29c0.71,0.63,1.49,1.31,2.01,2.14c0.49,0.19,0.89,0.82,1.16,1.26    c0.15,0.5,0.3,0.99,0.45,1.49c0.2,0.58,0.53,1.28,0.49,1.91c0.29,0.46,1.2,2.06,1.06,2.58c0.49,0.65,1.03,1.2,1.45,1.92    c0.17,0.29,0.49,0.53,0.31,0.9c0.55,0.78,1.1,1.57,1.64,2.35c0.24,0.4,0.79,0.48,0.94,0.94c0.82,0.29,1.66,0.61,1.69,1.53    c-0.03,0.93-1.59,2.91-2.07,3.91c-0.81,1.68-1.9,3.26-2.55,5.01c-0.54,0.76-1.07,1.52-1.61,2.27c-0.37,1.13-1.22,2.27-2.03,3.13    c-0.99,0.95-1.97,1.9-2.96,2.85c-0.43,0.59,0.09,0.9-0.69,1.14c0.09,0.1,0.19,0.2,0.28,0.3c0.32,0.33,1.41,1.55,1.48,1.93    c0.29,0.23,0.57,0.36,0.7,0.7c0.51,0.31,1.02,0.63,1.53,0.94c0.27,0.23,0.55,0.47,0.82,0.7c0.43,0.7,0.86,1.41,1.29,2.11    c0.41,0.51,0.59,2.74,1.17,2.7c0.3,1.2,0.02,2.52,0.85,3.49c0.19,0.22,0.78,0.97,1.02,0.73c-0.39,0.27-0.78,0.55-1.17,0.82    c-0.68,0.26-1.68,0.17-1.94,0.87c-0.25,0.66-0.51,1.32-0.76,1.98c-0.16,0.66-0.31,1.31-0.47,1.97c-1.21,0-1.28,1.3-1.88,1.41    c-0.12,0.42-0.23,0.83-0.35,1.25c-0.09,0.23-0.65,1.18-0.67,1.17c-0.22-0.14-0.35-0.31-0.62-0.3c-0.79-0.74-1.62-1.79-2.11-2.74    c-0.3-0.1-0.4-0.29-0.6-0.52c-0.61-0.71-0.63-0.7-0.81-1.67c-0.1-0.55-0.73-1.27-0.59-1.76c-1.63-1.04-2.92-2.43-4.22-3.88    c-0.44-0.5-1.39-1.52-1.57-2.1c-0.42-1.96-0.84-3.92-1.25-5.88c-0.11-0.57-0.38-2.14-0.82-2.47c-0.21-0.68-0.62-2.64-1.06-3.05    c-1.65-1.06-3.31-2.12-4.96-3.18c-1.48-0.11-2.88,0.24-4.31,0.48c-0.63,0.18-1.26,0.36-1.89,0.54c-0.39,0.06-1.95,0.19-2.01-0.06    c-0.1-0.43-0.35-1.64-0.68-1.88c-0.2-1.02-0.39-2.04-0.59-3.05c-0.2-0.51-0.39-1.02-0.59-1.53c-0.1-0.42-1.16-1.59-1.53-1.76    c-1.12-1.76-2.83-3.19-4.83-3.88c-0.73-0.25-1.45-0.19-2.21-0.23c-0.71-0.04-1.68-0.51-2.35-0.12c-0.56-0.11-1.34-0.44-1.88-0.12    c-0.86-0.12-1.72-0.23-2.58-0.35c-0.63,0-1.25,0.01-1.87,0.01c-0.31-0.04-0.63-0.09-0.94-0.13c-0.31,0.04-0.63,0.08-0.94,0.12    c-0.35-0.08-0.7-0.16-1.06-0.23c-0.47,0.04-0.94,0.08-1.41,0.12c-0.21-0.16-0.33-0.23-0.59-0.23c-0.54,0-2.3,0.25-2.58-0.12    c-0.94,0.18-1.59,0.49-2.23,1.17c-0.24,0.14-0.47,0.28-0.71,0.42c-0.36,0.36-1.42,1.57-1.87,1.57L378.1,162.28z"/>
            <circle cx="435.7" cy="188.94" r="1.586"/>
        </g>
        <g id="__Yenişehir">
            <path d="    M436.99,200.12c-0.23-0.09-0.26-0.44-0.22-0.83l-0.45-0.6c-0.22-0.14-0.35-0.31-0.62-0.3c-0.79-0.74-1.62-1.79-2.11-2.74    c-0.3-0.1-0.4-0.29-0.6-0.52c-0.61-0.71-0.63-0.7-0.81-1.67c-0.1-0.55-0.73-1.27-0.59-1.76c-1.63-1.04-2.92-2.43-4.22-3.88    c-0.44-0.5-1.39-1.52-1.57-2.1c-0.42-1.96-0.84-3.92-1.25-5.88c-0.11-0.57-0.38-2.14-0.82-2.47c-0.21-0.68-0.62-2.64-1.06-3.05    c-1.65-1.06-3.31-2.12-4.96-3.18c-1.48-0.11-2.88,0.24-4.31,0.48c-0.63,0.18-1.26,0.36-1.89,0.54c-0.39,0.06-1.95,0.19-2.01-0.06    l0.03,0.35c-0.2,0.74-0.39,1.49-0.59,2.23c-0.2,0.2-0.46,1.06-0.35,1.29c-0.31,1.21-0.63,2.43-0.94,3.64    c-0.27,1.3-0.86,2.41-0.4,3.76c1.1,0.8,1.94,1.73,2.39,3.05c0.04,0.43,0.08,0.86,0.12,1.29c0.19,0.64,0.96,2.48,1.53,2.82    c0.28,0.82,0.46,1.62,0.59,2.47c0.11,0.09,0.22,0.18,0.32,0.27c0.56,0.41,1.21,0.56,1.92,0.64c0.15,0.19,0.3,0.17,0.53,0.17    c0.76,0.43,1.79,0.5,2.61,0.57c0.53,0.05,1.55,0.39,1.55,1.05c0.04,0.59,0.08,1.17,0.12,1.76c-0.25,0.27-1.02,1.59-0.94,1.88    c-0.11,0.31-0.34,0.66-0.15,0.95c0.38,0.56,0.71,1.23,1.44,1.39c0.53-0.25,1.4-0.83,1.97-0.54c0.33,0.19,0.54,0.98,0.61,1.36    c0.39,0.2,0.78,0.39,1.17,0.59c0.12,0.16,0.23,0.31,0.35,0.47c0,0.26-0.08,0.52,0.22,0.62c0.55,0.23,1.02,0.32,1.66,0.3    c0.17-0.15,0.71-0.33,0.88-0.15c0.14,0.17,0.28,0.34,0.41,0.51c0.04,0.16,0.07,0.32,0.11,0.48l0-0.12c0,0.61,0.87-0.58,1.06-0.82    c0.31,0.02,0.34-0.07,0.59-0.23c0.42,0.22,0.98-0.32,1.29-0.59c0.41,0,0.18-0.28,0.47-0.47c0.35-0.12,0.7-0.25,1.05-0.37    c0.36-0.19,0.71-0.38,1.07-0.57c0.51-0.08,1.02-0.16,1.53-0.23c1.68-0.2,2.59-0.21,3.93-1.24    C437.63,200.66,437.27,200.24,436.99,200.12z"/>
            <circle cx="431.94" cy="200.32" r="1.586"/>
        </g>
    </g>
</svg>