<?xml version="1.0" encoding="UTF-8"?>
<!DOCTYPE svg PUBLIC "-//W3C//DTD SVG 1.1//EN" "http://www.w3.org/Graphics/SVG/1.1/DTD/svg11.dtd">
<svg version="1.1" id="HaritaCizim" xmlns="http://www.w3.org/2000/svg" xmlns:xlink="http://www.w3.org/1999/xlink" x="0px" y="0px" viewBox="0 0 600 473" preserveAspectRatio="none">
    <defs id="__def">
        <radialGradient id="f">
            <stop offset="0" stop-color="white" stop-opacity="1"/>
            <stop id="STOP1" offset=".4" stop-opacity="1"/>
            <stop offset="1" stop-color="white" stop-opacity=".2"/>
        </radialGradient>
        <filter id="__flt1" x="0" y="0" width="200%" height="200%" filterUnits="objectBoundingBox">
            <feGaussianBlur in="SourceAlpha" stdDeviation="3" result="blur1"/>
            <feSpecularLighting result="specOut" in="blur1" specularConstant="1.5" specularExponent="20" lighting-color="#bbbbbb">
                <feDistantLight azimuth="45" elevation="30"/>
            </feSpecularLighting>
            <feComposite in="specOut" in2="SourceAlpha" operator="in" result="specOut"/>
            <feComposite in="SourceGraphic" in2="specOut" operator="arithmetic" k1="0" k2="1" k3="1" k4="0"/>
        </filter>
        <filter id="__flt2" x="0" y="0" width="200%" height="200%" filterUnits="objectBoundingBox">
            <feGaussianBlur in="SourceAlpha" stdDeviation="3" result="blur1"/>
            <feSpecularLighting result="specOut" in="blur1" specularExponent="20" lighting-color="#bbbbbb">
                <fePointLight x="-2000" y="100" z="2000"/>
            </feSpecularLighting>
            <feComposite in="specOut" in2="SourceAlpha" operator="in" result="specOut"/>
            <feComposite in="SourceGraphic" in2="specOut" operator="arithmetic" k1="0" k2="1" k3="1" k4="0"/>
        </filter>
        <filter id="__flt3" x0="-50%" y0="-50%" width="200%" height="200%" filterUnits="objectBoundingBox">
            <feGaussianBlur in="SourceAlpha" stdDeviation="3" result="blur"/>
            <feOffset in="blur" dx="0" dy="0" result="offsetBlur"/>
            <feSpecularLighting in="blur" surfaceScale="4" specularConstant=".5" specularExponent="20" lighting-color="flavor" result="specOut">
                <fePointLight x="-5000" y="-10000" z="5000"/>
            </feSpecularLighting>
            <feComposite in="specOut" in2="SourceAlpha" operator="in" result="specOut"/>
            <feComposite in="SourceGraphic" in2="specOut" operator="arithmetic" k1="0" k2="1" k3="1" k4="0" result="litPaint"/>
            <feMerge>
                <feMergeNode in="offsetBlur"/>
                <feMergeNode in="litPaint"/>
            </feMerge>
        </filter>
        <filter id="__flt4" x0="-50%" y0="-50%" width="200%" height="200%">
            <feGaussianBlur in="SourceAlpha" stdDeviation="2" result="blur"/>
            <feOffset dy="-1" dx="-1"/>
            <feComposite in2="SourceAlpha" operator="arithmetic" k2="-1" k3="1" result="hlDiff"/>
            <feFlood flood-color="white" flood-opacity=".7"/>
            <feComposite in2="hlDiff" operator="in"/>
            <feComposite in2="SourceGraphic" operator="over" result="withGlow"/>
            <feOffset in="blur" dy="3" dx="3"/>
            <feComposite in2="SourceAlpha" operator="arithmetic" k2="-1" k3="1" result="shadowDiff"/>
            <feFlood flood-color="black" flood-opacity="1"/>
            <feComposite in2="shadowDiff" operator="in"/>
            <feComposite in2="withGlow" operator="over"/>
        </filter>
        <filter id="__golge1" x="0" y="0" width="200%" height="200%" filterUnits="userSpaceOnUse">
            <feOffset result="offOut" in="SourceAlpha" dx="8" dy="8"/>
            <feGaussianBlur result="blurOut" in="offOut" stdDeviation="3"/>
            <feBlend in="SourceGraphic" in2="blurOut" mode="normal"/>
        </filter>
    </defs>
    <g id="__Komsular" display="none">
        <radialGradient id="SVGID_1_" cx="267.2495" cy="183.6592" r="10.6768" gradientUnits="userSpaceOnUse">
            <stop offset="0" style="stop-color:#263C8B"/>
            <stop offset="0.083" style="stop-color:#43569A"/>
            <stop offset="0.263" style="stop-color:#7B89B9"/>
            <stop offset="0.4377" style="stop-color:#ABB3D2"/>
            <stop offset="0.6029" style="stop-color:#CFD4E5"/>
            <stop offset="0.7561" style="stop-color:#E9ECF4"/>
            <stop offset="0.893" style="stop-color:#F9FAFC"/>
            <stop offset="1" style="stop-color:#FFFFFF"/>
        </radialGradient>
        <path fill-rule="evenodd" clip-rule="evenodd" fill="url(#SVGID_1_)" stroke="#000000" stroke-width="0.25" stroke-miterlimit="10" d="   M275.61,180.69c-0.26,0.36-0.9,1.17-0.77,1.59c-0.37,0.37-0.88,0.57-0.99,0.84c-0.35,0.8-0.46,2.19-1.19,2.69   c-0.36,1.08-0.17,2.76-1.36,3.14c-0.51,0.17-2.51-0.83-2.5-0.96c0.03-0.37,0.12-0.38-0.18-0.67c0.14-0.24,1.23-1.67,0.67-1.69   c-2.44-0.16-4.88,0.46-7.39,0.29c-0.51-0.03-1.92-0.21-2.2,0.05c-0.15-0.32-0.3-0.64-0.45-0.96c-0.08-0.31-0.46-0.01-0.33-0.38   c0.11-0.31,0.27-0.56,0.11-0.85c0.9-0.84,1.8-1.68,2.69-2.52c1.57-0.64,3.14-1.28,4.71-1.92c1.09-0.56,1.87-1.37,3.11-0.83   c0.31-0.14,0.21-0.2,0.35,0.06c0.24,0.42,1.28,2.54,1.57,2.49c0.67-0.11,1.61-0.92,1.88-0.06c0.46,0.12,0.54-0.01,0.82,0.42   c0.28-0.58,0.61-1.01,0.66-1.67C274.86,179.39,275.71,180.54,275.61,180.69z"/>
        <radialGradient id="SVGID_2_" cx="270.9668" cy="191.7795" r="3.9301" gradientUnits="userSpaceOnUse">
            <stop offset="0" style="stop-color:#263C8B"/>
            <stop offset="0.083" style="stop-color:#43569A"/>
            <stop offset="0.263" style="stop-color:#7B89B9"/>
            <stop offset="0.4377" style="stop-color:#ABB3D2"/>
            <stop offset="0.6029" style="stop-color:#CFD4E5"/>
            <stop offset="0.7561" style="stop-color:#E9ECF4"/>
            <stop offset="0.893" style="stop-color:#F9FAFC"/>
            <stop offset="1" style="stop-color:#FFFFFF"/>
        </radialGradient>
        <path fill-rule="evenodd" clip-rule="evenodd" fill="url(#SVGID_2_)" stroke="#000000" stroke-width="0.25" stroke-miterlimit="10" d="   M268.29,192.33c0.04,0.12,0.07,0.25,0.11,0.37c-0.27,0.32-0.44,0.31-0.1,0.41c1.33,0.4,2.56,0.31,3.83-0.11   c0.34-0.11,1-0.24,1.15-0.48c0.17-0.38,0.34-0.76,0.51-1.14c0.14-0.65-0.31-1.42-0.86-1.11c-0.4,0.23-0.58,0.22-0.96,0.09   c-0.9,0.39-1.79,0.78-2.69,1.17C268.96,191.8,268.63,192.06,268.29,192.33z"/>
        <radialGradient id="SVGID_3_" cx="405.0166" cy="218.9565" r="9.692" gradientUnits="userSpaceOnUse">
            <stop offset="0" style="stop-color:#263C8B"/>
            <stop offset="0.083" style="stop-color:#43569A"/>
            <stop offset="0.263" style="stop-color:#7B89B9"/>
            <stop offset="0.4377" style="stop-color:#ABB3D2"/>
            <stop offset="0.6029" style="stop-color:#CFD4E5"/>
            <stop offset="0.7561" style="stop-color:#E9ECF4"/>
            <stop offset="0.893" style="stop-color:#F9FAFC"/>
            <stop offset="1" style="stop-color:#FFFFFF"/>
        </radialGradient>
        <path fill-rule="evenodd" clip-rule="evenodd" fill="url(#SVGID_3_)" stroke="#000000" stroke-width="0.25" stroke-miterlimit="10" d="   M405.27,212.4c0.42,0.19,0.84,0.39,1.26,0.58c0.5,0.49,1.22,1.35,1.09,2.11c1.14,1.31,2.61,2.36,3.63,3.9   c0.56,0.83,1.04,1.39,1.04,2.45c0.25,0.26,0.27,0.13,0.14,0.34c-0.14,0.24-0.28,0.48-0.43,0.72c-0.28,0.17-0.56,0.34-0.84,0.5   c-0.81,0.37-1.58,0.17-2.19,1.01c-0.72,0.23-1.37,0.17-1.85,0.84c-0.55,0.22-1.74,0.25-2.02-0.34c-0.35,0.2-0.55,0.27-0.67,0.67   c-1.06,0.34-2.52,0.6-3.24-0.31c-0.77-0.68-1.54-1.37-2.31-2.05c-0.23-0.5-0.45-1-0.68-1.5c-0.28-0.55-0.53-0.71-0.51-1.34   c-0.05-0.12-0.11-0.23-0.16-0.35c0.17-0.28,0.34-0.56,0.5-0.84c0.06-0.34,0.11-0.67,0.17-1.01c-0.06-0.47-0.27-1.41,0.08-1.76   c0.33-0.31,0.54-0.3,0.59-0.76c0.05,0.01,0.1,0.02,0.15,0.04c0.4,0.16,0.8,0.31,1.19,0.47c0.5-0.11,1.01-0.22,1.51-0.34   c0.39-0.22,0.79-0.45,1.18-0.67c0.35,0.03,0.7,0.06,1.05,0.08c0.33-0.73,0.14-1.51,0.56-2.18   C404.77,212.57,405.02,212.49,405.27,212.4z"/>
        <path fill="none" stroke="#000000" stroke-width="0.25" stroke-miterlimit="10" d="M219.98,377.16c1.19,0.62,2.05,1.52,3.2,2.02   c1.33,0.57,2.59,1.2,3.86,1.88c2.49,1.34,5.49,1.66,8.12,2.5c1.3,0.41,2.62,1.1,4,1.48c1.97,0.54,4.41,0.57,5.88,1.77   c1.73,1.4,3.78,4.76,4.05,7.02c0.38,3.23-1.53,3.91-3.2,6.06c-1.67,2.15-1.7,4.7-1.85,7.4c-0.15,2.76,0.38,5.21,0,7.91   c-0.19,1.38-0.33,2.53-0.72,3.83c-0.34,1.14-1.05,2.36-0.8,3.57"/>
        <path fill="none" stroke="#000000" stroke-width="0.25" stroke-miterlimit="10" d="M167.97,394.5c-2.24,1.03-5,1.36-7.03,3.06   c-0.9,0.75-1.34,1.82-2.18,2.71c-0.86,0.91-1.71,1.42-2.61,2.27c-1.9,1.78-3.73,3.65-5.21,5.94c-1.48,2.28-2.29,4.53-4.34,6.39   c-1.46,1.33-1.44,2.19-2.22,3.83c-0.4,0.85-1.21,1.26-1.32,2.39c-0.1,0.99,0.67,1.39-0.17,2.36"/>
        <path fill="none" stroke="#000000" stroke-width="0.25" stroke-miterlimit="10" d="M127.58,313.04c0.29,1.73-4.61,3.03-5.93,3.16   c-2.69,0.26-5.7-0.27-8.38,0.2c-2.77,0.48-4.51,2.94-6.94,4.01c-2.19,0.96-4.09,2.28-6.35,3.07c-2.39,0.84-4.74,2.03-7.24,2.7   c-1.75,0.47-2.15,0.14-3.57,1.34c-1.11,0.94-2.42,0.7-3.47,1.51c-0.91,0.7-1.32,1.93-2.38,2.66c-1.03,0.71-1.9,1.24-2.87,2.06   c-1.88,1.61-3.97,2.6-6.06,3.84c-3.34,1.97-6.25,6.24-10.1,7.1"/>
        <path fill="none" stroke="#000000" stroke-width="0.25" stroke-miterlimit="10" d="M124.72,113.61c-1.15-1.34-1.68-2.9-2.32-4.54   c-0.73-1.85-2.19-2.82-2.86-4.58c-0.73-1.94,0.5-4.03,0.97-5.85c0.47-1.86,0.88-3.78,0.98-5.7c-1.89,0.1-3.02-1.03-4.69-1.38   c-1.63-0.34-3.2-0.34-4.72-1c-0.8-0.35-1.28-0.94-2.18-1.19c-2.01-0.56-4.36,0.1-6.41-0.88c-1.47-0.7-2.68-1.95-3.54-3.12   c-0.15-0.07-0.29-0.01-0.45-0.05c-0.44-0.84-1.3-1.71-2.36-1.68c-0.19-1.35-2.64-2.06-3.69-2.67c-1.33-0.78-2.32-1.78-3.74-2.41   c-2.58-1.14-5.02-1.42-7.74-1.97c-2.63-0.53-5.32-1.61-7.91-1.85c-2.92-0.28-5.31,0.91-7.95,1.64C60.67,77.89,54.31,79.6,50,83.49"/>
        <path fill="none" stroke="#000000" stroke-width="0.25" stroke-miterlimit="10" d="M426.47,67.84c1.57-1.49,3.13-3.34,4.71-5.04   c0.69-0.75,1.48-1.64,2.18-2.4c0.95-1.03,2.09-1.52,3.08-2.31c3.16-2.54,6.01-7.49,10.56-8.08"/>
        <path fill="none" stroke="#000000" stroke-width="0.25" stroke-miterlimit="10" d="M503.21,243.37c1.3,0.34,1.65,1.5,2.69,2.18   c0.99,0.64,2.76,0.3,4.04,0.17c2.19-0.22,6.3-0.92,8.42-0.18c1.29,0.45,1.56,1.27,3.19,1.35c1.48,0.07,2.93-0.05,4.38,0.17   c2.67,0.4,4.99-0.03,7.74-0.17c2.76-0.14,5.56-0.33,8.41-0.34c1.41,0,2.66,0.3,3.91,0.47c1.33,0.17,2.92-0.18,4,0.37"/>
        <text transform="matrix(0.3124 0.9499 -0.9499 0.3124 519.0234 143.2896)" font-family="'MyriadPro-Regular'" font-size="12">AĞRI</text>
        <text transform="matrix(0.9649 -0.2626 0.2626 0.9649 262.9021 94.3643)" font-family="'MyriadPro-Regular'" font-size="12">ERZURUM</text>
        <text transform="matrix(0.0164 -0.9999 0.9999 0.0164 88.4368 213.4207)" font-family="'MyriadPro-Regular'" font-size="12">BİNGÖL</text>
        <text transform="matrix(0.4799 0.8773 -0.8773 0.4799 100.3638 344.9761)" font-family="'MyriadPro-Regular'" font-size="12">DİYARBAKIR</text>
        <text transform="matrix(0.9479 -0.3187 0.3187 0.9479 184.5176 413.8274)" font-family="'MyriadPro-Regular'" font-size="12">BATMAN</text>
        <text transform="matrix(0.6738 -0.7389 0.7389 0.6738 379.0649 342.3723)" font-family="'MyriadPro-Regular'" font-size="12">BİTLİS</text>
    </g>
    <g id="__Harita" fill="white" stroke="#000000" stroke-width="1" stroke-miterlimit="10" display="none">
        <rect id="__cer" x="0" y="0" fill="#000000" opacity="0" width="600" height="473"/>
        <g id="__Muş">
            <path d="    M152.66,204.16c1.09,0.29,1.46,0.29,3.03,0.34c1.74,0.62,3.48,1.23,5.22,1.85c2.02,0.12,4.03,0.24,6.05,0.36    c1.46,0.44,2.92,0.88,4.39,1.32c2.93,0.48,5.8,0.41,8.75,0.5c1.53-0.37,3.07-0.74,4.6-1.11c0.93,0.03,1.87,0.07,2.8,0.1    c1.18-0.11,2.36-0.22,3.53-0.34c2.02,0.06,3.98-1.23,5.88-1.74c1.35-0.41,2.71-0.82,4.06-1.23c0.52-0.12,1.29,0.14,1.67-0.23    c0.86,0.36,2.24,0.96,3.2,0.67c3.21,0.84,6.43,1.69,9.65,2.53c2.11,0.28,4.23,0.56,6.34,0.84c1.73,0.34,3.09,1.07,4.54,2.02    c1.18,0.78,2.84,1.13,4.21,1.42c1.71,0.36,3.91,0.77,5.55-0.07c3.38,0.56,6.3,2.61,9.27,4.24c1.01,0.44,2.01,0.88,3.02,1.31    c1.96,0.06,3.93,0.11,5.89,0.17c1.18,0.28,2.36,0.56,3.53,0.84c1.81,0.44,3.31,1.15,5.22,1.18c0.45,0.06,0.9,0.11,1.35,0.17    c1.47-0.07,2.92-0.39,4.35-0.75c2.91-0.73,3.52-2.8,5.41-4.81c0.98-1.04,1.64-2.23,3.34-1.62c0.64,0.22,2.05,0.88,2.38,1.45    c1.18,0,2.36,0,3.53,0c1.88-0.67,3.67-1.43,5.69-1.53c0.92,0.06,1.83,0.13,2.75,0.19c1.39,0.09,3.56,0.13,4.35,1.53    c0.11-0.01,0.22-0.02,0.33-0.03c0,0.06,0,0.11-0.01,0.17c0,1.17-0.04,2.24-0.33,3.37c-0.13,0.51,0.2,1.12-0.17,1.51    c0.37,1.04,0.81,1.94,0.84,3.03c-0.11,1.79-0.22,3.59-0.34,5.39c-0.28,1.76-0.07,3.5,0.34,5.22c0.11,0.84,0.22,1.68,0.34,2.52    c-0.25,0.89-0.87,3.93-0.5,4.71c-0.22,1.12-0.45,2.24-0.67,3.37c-0.19,0.51-0.38,1.02-0.57,1.53c-0.09,1.28-0.18,2.57-0.27,3.85    c0.44,1.06,0.89,2.14,1.8,2.89c0.63,0.38,1.27,0.76,1.9,1.15c1.02,0.03,3.93,0.19,4.24,0.95c0.13,0.39,0.02,0.41,0.47,0.56    c-0.12,0.57-0.58,2.67-0.34,3.03c-0.74,1.12-1.47,2.24-2.21,3.37c-0.56,0.84-1.07,2.09-2.17,2.36c-0.68,0.71-1.35,1.42-2.03,2.14    c-2.8,2.2-6.43,2.93-9.75,3.92c-0.74,0.3-1.49,0.6-2.24,0.9c-1.23,0.31-2.46,0.61-3.69,0.92c-2.49,0.66-4.97,0.96-7.14,2.28    c-3.51,2.12-5.68,5.76-9.32,7.67c-0.76,0.4-2.53,1.45-3.36,1.36c-0.39,0.22-0.79,0.45-1.18,0.67c-0.45,0.56-0.9,1.12-1.35,1.68    c-0.11,0.39-0.22,0.79-0.34,1.18c0.06,0.11,0.11,0.22,0.17,0.34c-0.03,1.12,0.32,2.64,1.68,2.86c0.5,0.67,1.01,1.35,1.51,2.02    c0.67,4,1.41,8.5-0.09,12.45c-0.61,1.62-1.04,3.33-1.91,4.84c-0.68,0.93-1.37,1.86-2.05,2.79c-0.31,0.62-0.62,1.24-0.93,1.87    c-1.65,1.55-3.3,3.1-4.95,4.64c-0.35,0.39-1.32,0.82-1.35,1.35c-1.13,0.48-1.87,1.15-2.86,1.85c-2.97,2.97-5.95,5.95-8.92,8.92    c-0.74,1.62-1.49,3.23-2.23,4.85c-1.57,3.81-3.26,6.78-2.31,10.97c0.19,0.85,0.34,1.09,0.34,1.85c0.09,0.46,0.33,0.53,0.67,0.67    c0.21,0.14,0.29,0.45,0.5,0.59c-1.72,1.18-3.97,2.64-5.7,3.82c-0.43,0.3-1.32,1.34-1.88,1.14c-0.33,0.4-0.66,0.8-0.99,1.19    c-1.18,1.45-2.49,3.13-3.22,4.86c-0.5,1.29-1.01,2.58-1.51,3.87c-0.41,2.42-0.82,4.83-1.23,7.25c-0.21,0.81-0.42,1.62-0.63,2.42    c-0.15,1.29-0.21,2.53-0.77,3.77c0.01,0.2,0.01,0.4,0.02,0.59c-0.7,0.48-1.4,0.97-2.1,1.45c-1.57,0.37-3.13,0.74-4.7,1.1    c-1.92,0.59-3.91,1.33-5.9,1.12c-1.01-0.12-2.02-0.25-3.03-0.37c-0.58,0.22-1.16,0.45-1.74,0.67c-1.27-0.17-2.55-0.33-3.82-0.5    c-0.67,0.03-1.34,0.07-2.01,0.1c-0.39,0.08-0.79,0.16-1.18,0.24c-0.49,0.18-1,0.56-1.51,0.5c-1.18,0.9-2.36,1.8-3.53,2.69    c-0.78,0.4-2.24,0.93-2.69,1.68c-2.3,1-4.61,2-6.91,2.99c-3.24,0.8-6.27,1.66-9.38,2.82c-0.58,0.22-2.19,1.9-2.51,1.67    c-0.24-0.2-0.48-0.39-0.72-0.59c0.04-0.43-0.02-1.09,0.34-1.35c-0.22-0.61-0.73-1.59-0.5-2.19c-0.7-1.92-1.39-3.84-2.09-5.76    c-0.34-1.89-0.67-3.78-1.01-5.67c-0.38-1.46-0.77-2.92-1.15-4.38c-0.25-0.84-0.49-1.67-0.74-2.51c-0.25-0.51-0.49-1.02-0.74-1.54    c-0.4-0.57-0.79-1.14-1.19-1.71c-0.9-0.82-1.8-1.64-2.69-2.46c-2.75-4.33-5.49-8.66-8.24-13c-0.62-0.84-1.23-1.68-1.85-2.52    c-0.5-1.07-1.01-2.13-1.51-3.2c-0.36-0.51-0.71-1.02-1.07-1.53c-1.25-2.08-2.43-4.31-2.78-6.72c-0.15-1.05-0.71-3.46-0.19-4.38    c-0.58-1.97-0.56-2.12-2.02-7.91c-0.17-0.9-0.34-1.8-0.51-2.7c-0.47-1.26-0.94-2.52-1.41-3.79c-0.62-1.39-1.36-2.87-2.71-3.62    c-1.98-1.09-4.17-2.4-6.33-2.78c-0.32-0.06-2.32-0.53-2.38-0.75c-0.07-0.3-0.17-0.42,0.04-0.67c-0.43-0.62-0.86-1.24-1.28-1.86    c-0.77-1.35-0.8-2.82-1.75-4.03c-0.35-0.62-0.32-1.06-0.67-1.68c-0.33-0.71-0.93-2.32-1.18-3.03c-0.37-1.27-0.5-2.54-0.5-3.7    c-0.9-3.59-1.8-7.18-2.7-10.77c-0.51-2.09-1.35-4.08-1.59-6.23c-0.08-1.18-0.17-2.36-0.25-3.54c0.1-0.4,0.2-0.8,0.3-1.19    c0.18-0.95,0.36-1.9,0.54-2.85c0.06-0.67,0.11-1.35,0.17-2.02c-0.34-0.95-0.67-1.91-1.01-2.86c-0.62-0.79-1.23-1.57-1.85-2.36    c-0.39-0.67-0.79-1.35-1.18-2.02c0.06-0.5-0.39-1.18-0.34-1.68c-0.72-0.92-0.32-1.12-0.54-1.92c-1.65-3.3,1.4-9.05,3.95-11.12    c1.63-1.32,3.9-2.03,5.26-3.68c3.04-3.65,4.03-8.47,7.15-12.06c1.92-2.22,4.51-3.39,6.73-5.22c0.55-0.23,1.1-0.46,1.66-0.69    c0.68-0.33,1.36-0.66,2.05-0.99c1.63-2.19,3.25-4.38,4.88-6.56c0.34-0.5,0.68-1.01,1.02-1.51c2.02-2.81,3.33-5.88,3.89-9.25    c0.12-0.73,0.39-1.67-0.19-2.19c0.61-0.71,0.68-1.5,0.34-2.36C150.53,204.34,152.07,204.63,152.66,204.16z"/>
            <circle cx="210.22" cy="305.3" r="1.77"/>
        </g>
        <g id="__Malazgirt">
            <path d="    M381.86,119.98c0.67-0.13,1.71-0.02,2.2-0.47c2.97,0.82,4.54,1.85,6.9,3.87c0.67,0.57,2.36,1.31,2.36,2.36    c0.43,0.62,0.87,1.24,1.3,1.86c0.3,0.67,0.59,1.34,0.89,2.01c0.03,0.52-0.14,0.7,0.34,1.01c-0.19,0.23-0.38,0.45-0.56,0.68    c-0.21,0.56-0.41,1.12-0.62,1.68c-0.81,0-2.66,2.8-2.86,3.53c-0.22,0.28-0.45,0.56-0.67,0.84c-1.1,0.55-2.6,0.99-3.37,2.02    c-0.45,1.01-0.9,2.02-1.35,3.03c-0.38,0.32-0.76,0.64-1.14,0.96c-0.45,0.74-0.58,3.28-0.21,4.09c0.13,0.27,0.45,1.01,0.67,1.01    c0.5,0.34,1.01,0.67,1.51,1.01c0.62,0.11,1.23,0.22,1.85,0.34c0.67-0.23,1.33-0.47,2-0.7c0.92-0.58,1.83-1.16,2.75-1.74    c2.03-0.83,4.44-1.48,5.77-3.34c0.87-1.55,1.74-3.1,2.61-4.65c0.33-0.34,0.66-0.68,0.99-1.01c0.43,0.03,0.85,0.07,1.28,0.1    c0.2,0.3,0.41,0.6,0.61,0.9c0.17,1.82-0.6,3.45-0.86,5.23c-0.08,0.57-0.2,1.75-0.67,2.02c0.67,2.59,1.65,5.16,2.9,7.55    c0.49,0.85,0.98,1.7,1.47,2.55c0.28,0.79,0.56,1.57,0.84,2.36c0.92,0.93,1.84,1.85,2.77,2.78c0.26,0.36,0.51,0.73,0.77,1.09    c1.79,1.79,3.09,3.8,4.04,6.06c0.46,1.1,0.81,3.12,0.67,4.21c0.64,0.64,0.53,2.02,0.67,2.86c0.5,1.23,1.01,2.47,1.51,3.7    c0.22,1.01,0.45,2.02,0.67,3.03c0,2.64-0.33,6.23,1.5,8.39c0.51,0.46,1.02,0.92,1.53,1.37c0.28,0.17,0.56,0.33,0.84,0.5    c1,0.29,2,0.58,3,0.87c1.08,0.5,2.15,0.99,3.23,1.49c1.01,1.23,2.02,2.47,3.03,3.7c2.19,1.23,4.38,2.47,6.56,3.7    c1.06,0.31,2.12,0.61,3.18,0.92c1.92,0.51,4.02,1.26,5.57,2.61c1.12,1.12,2.24,2.24,3.37,3.37c1.04,1.7,1.68,3.41,2.57,5.19    c0.43,0.74,0.87,1.48,1.3,2.21c0.13,0.39,0.25,0.78,0.38,1.17c0.46,1.12,0.84,2.05,1.14,3.21c-0.22,0.93-0.45,1.86-0.67,2.79    c-0.9,2.23-2.65,3.51-4.21,5.29c-0.45,0.62-0.9,1.23-1.35,1.85c-0.84,0.9-1.68,1.8-2.52,2.69c-0.18,0.5-0.35,1.01-0.53,1.51    c-0.22,0.45-0.43,0.9-0.65,1.35c-0.71,0.71-1.63,1.61-1.84,2.66c-0.39,1.9-2.34,5.73-3.71,7.11c0,0.79,0.12,1.14-0.34,1.85    c0,0.4,0.09,0.5-0.34,0.5c0.17,0.06,0.34,0.11,0.5,0.17c2.69-0.06,5.38-0.12,8.07-0.17c1.83,0.14,3.66,0.27,5.5,0.41    c1.38-0.19,2.73,0.17,4.11,0.27c2.02,0.17,4.04,0.35,6.05,0.52c2.78,0.31,4.97,1.83,7.75,2c0.39,0,0.79,0,1.18,0    c0.68-0.15,3.16-1.61,3.53-2.19c1.35-0.46,4.12-1.38,5.51-1.09c1.63-0.01,3.26-0.02,4.89-0.03c0.62-0.14,2.03-0.54,2.56-0.23    c1.01-0.26,2.01-0.53,3.02-0.79c1.41-0.61,2.83-1.23,4.24-1.84c1.02-0.42,4.42-1.68,4.89-2.42c0.5-1.09-0.01-2.08-0.13-3.21    c-0.14-1.51-0.27-3.02-0.41-4.53c-0.28-0.9-0.56-1.8-0.84-2.69c-0.4-1.64-0.31-3.21-0.34-4.88c0.06-2.13,0.11-4.26,0.17-6.4    c0.36-2.07,0.73-4.14,1.09-6.21c0.14-0.62,0.28-1.24,0.42-1.87c0.24-1.68,0.48-3.36,0.72-5.04c0.64-4.15,1.16-8.6,0.97-12.8    c0.11-2.02,0.22-4.04,0.34-6.06c0.01-0.8,0.11-1.9-0.5-2.52c0.34-0.98,0.64-1.97,0.5-3.03c-0.21-1.64-0.62-4.56-1.51-5.89    c-0.22-0.56-0.45-1.12-0.67-1.68c-0.59-1.97-1.18-3.94-1.77-5.91c-0.36-0.72-0.73-1.44-1.09-2.17c-0.29-1.54-0.91-3.03-1.18-4.54    c-0.62-1.29-1.23-2.58-1.85-3.87c-1.07-2.02-2.13-4.04-3.2-6.06c-0.28-0.56-0.56-1.13-0.84-1.69c-0.84-1.57-1.69-3.13-2.53-4.7    c-0.44-0.72-0.87-1.45-1.31-2.17c-1.08-1.69-2.16-3.38-3.23-5.06c-1.05-1.57-2.1-3.15-3.15-4.72c-1.25-2.3-2.5-4.59-3.76-6.89    c-0.22-0.73-0.45-1.46-0.67-2.19c-0.29-0.84-0.59-1.68-0.88-2.52c-0.61-2.35-0.91-4.69-1.3-7.07c-0.5-1.18-1.01-2.36-1.51-3.53    c-2.54-2.37-3.89-2.92-7.41-3.03c-3.57-0.11-6.41,1.71-8.92-1.85c-1.48-2.1-0.26-4.69-0.45-7.06c-0.58-2.3-1.16-4.61-1.74-6.91    c-0.26-2.01-0.52-4.02-0.77-6.03c-0.49-1.79-1.89-4.76-2.93-6.26c-1.12-1.57-2.24-3.13-3.36-4.7c-0.61-1.11-3.01-2.79-3.03-4.04    c-1.85-1.18-3.7-2.36-5.55-3.53c-0.47-0.39-1.38-0.32-1.68-0.84c-1.73-0.36-3.46-0.72-5.2-1.08c-2.13-0.18-4.26-0.36-6.38-0.55    c-1.13,0.87-2.14,0.02-3.34,0.21c-1.58,0.25-3.16-0.36-4.76-0.24c-1.18,0.11-2.36,0.21-3.53,0.32c-0.67,0.22-1.35,0.45-2.02,0.67    c-1.44,1.35-2.52,2.91-3.84,4.4c-0.63,0.72-1.26,1.44-1.88,2.17c-0.9,0.79-1.8,1.57-2.69,2.36c-0.22-0.06-0.45-0.11-0.67-0.17    c-0.95,1.07-1.91,2.13-2.86,3.2c-2.13,1.12-4.26,2.24-6.4,3.37c-0.82,0.42-1.64,0.83-2.46,1.25c-4.69,3.26-8.97,6.11-12.54,10.65    c-1.62,2.07-2.46,4.37-3.34,6.78c-0.08,1.04-0.15,2.08-0.23,3.11c-0.17,0.66-0.04,2.07,0.26,2.72c1.08,2.31,2.73,4.2,4.17,6.28    c0.68,0.98,1.08,2.51,1.18,3.7C381.9,118.93,381.51,120.05,381.86,119.98z"/>
            <circle cx="465.69" cy="180.26" r="1.77"/>
        </g>
        <g id="__Korkut">
            <path d="    M250.44,318.76c0.96-0.25,4.25-0.55,5.05,0.17c1.66-0.06,3.31-0.12,4.97-0.18c0.45-0.29,1.11-0.19,1.59,0.01    c0.39-0.11,0.79-0.22,1.18-0.34c0.19,0.1,0.38,0.21,0.56,0.32c0.99,0.79,1.98,1.58,2.97,2.38c0.56,0.34,1.12,0.67,1.68,1.01    c1.86,0.27,3.25,1.08,4.78,2.17c0.71,0.4,1.41,0.8,2.12,1.19c2.39-0.15,4.59,0.56,6.91,0.94c1.07,0.18,3.6,0.6,4.53,0.07    c0.67,0.06,1.35,0.11,2.02,0.17c0.45,0.22,0.9,0.45,1.35,0.67c0.53,0.15,1.06,0.3,1.59,0.45c0.03,0.13,0.06,0.26,0.09,0.39    c0.56,0.6,1.11,1.21,1.67,1.81c0.23,0.4,0.46,0.81,0.68,1.21c-0.13,3.59,1.44,5.81,4.61,7.43c0.54,0.38,1.75-0.24,2.29,0.14    c0.89-0.05,1.11,0.91,2,0.86c0.89-0.16,2.11,0.22,3.05,0.48c2.14,0.92,3.58,1.1,5.72,2.02c0.6,0.1,1.2,0.2,1.8,0.31    c0.76,0.14,1.77,0.41,2.57,0.2c0.93,0.24,3.39,1.42,4.11,1.27c0.3-0.21,0.6-0.41,0.89-0.62c0.75,0.05,1.24-1.05,1.81-1.5    c0.53-0.5,1.07-1,1.6-1.5c0.5-0.28,1.01-0.56,1.51-0.84c1.15-0.25,2.31-0.5,3.46-0.76c0.31-0.31,0.61-0.62,0.92-0.93    c0.21-0.69,0.53-2.22,1.15-2.5c1.86-0.57,3.72-1.14,5.59-1.7c1.2-0.8,2.4-1.6,3.6-2.4c0.9-0.43,3.03-1,3.36-1.84    c0.7-1.89,1.37-4.19,1.46-6.19c0.34-0.9,0.67-1.8,1.01-2.69c0.43-1.19,1.84-3.44,2.79-4.23c0.44-0.36,1.16-0.9,1.25-1.49    c1.41-0.94,2.82-1.88,4.22-2.81c1.13-0.41,2.26-0.81,3.39-1.21c1.3-0.92,2.6-3.76,1.88-5.2c-0.19-0.52-0.38-1.03-0.57-1.55    c-0.8-0.91-1.69-1.59-2.54-2.45c-1.52-0.37-4.67-3.39-4.73-4.96c0-0.89,0.57-2.89,1.2-3.16c2.47-0.85,4.94-1.7,7.41-2.56    c1.44-1.44,3-2.91,3.97-4.79c1.07-0.42,2.25-2.93,2.77-3.97c-0.24-0.14-0.47-0.28-0.71-0.42c-0.77-0.37-1.55-0.73-2.32-1.1    c-0.67-0.62-1.35-1.23-2.02-1.85c-1.07-0.72-2.14-1.45-3.21-2.17c-0.6-0.43-2.31-1.73-3.02-1.36c-0.99-0.84-1.95-1.51-3.25-1.85    c-0.51-0.13-1.92-0.05-2.14-0.51c-1.12,0.06-2.24,0.11-3.37,0.17c-1.13-0.34-2.25-0.68-3.38-1.02c-1.18-0.16-2.35-0.32-3.53-0.48    c-0.39-0.08-0.87-0.32-1.17-0.02c-0.45-0.22-0.9-0.45-1.35-0.67c-1.05-0.45-2.53-0.53-3.37-1.35c-1.72-0.18-3.44-0.36-5.16-0.54    c-0.75-0.16-1.49-0.31-2.24-0.47c-0.95-0.63-1.9-1.26-2.85-1.89c-0.64-0.26-3.32-0.68-3.49-1.01c-0.47-0.88-0.94-1.77-1.4-2.65    c-1.12-0.96-2.06-1.83-3.2-2.69c-1.31-0.5-2.62-1.01-3.93-1.51c-1.16-1.12-2.32-2.24-3.48-3.37c-0.87-0.8-3.97-3.24-5.09-1.62    l-0.46,0.27c-0.12,0.57-0.58,2.67-0.34,3.03c-0.74,1.12-1.47,2.24-2.21,3.37c-0.56,0.84-1.07,2.09-2.17,2.36    c-0.68,0.71-1.35,1.42-2.03,2.14c-2.8,2.2-6.43,2.93-9.75,3.92c-0.74,0.3-1.49,0.6-2.24,0.9c-1.23,0.31-2.46,0.61-3.69,0.92    c-2.49,0.66-4.97,0.96-7.14,2.28c-3.51,2.12-5.68,5.76-9.32,7.67c-0.76,0.4-2.53,1.45-3.36,1.36c-0.39,0.22-0.79,0.45-1.18,0.67    c-0.45,0.56-0.9,1.12-1.35,1.68c-0.11,0.39-0.22,0.79-0.34,1.18c0.06,0.11,0.11,0.22,0.17,0.34c-0.03,1.12,0.32,2.64,1.68,2.86    c0.5,0.67,1.01,1.35,1.51,2.02c0.67,4,1.41,8.5-0.09,12.45c-0.61,1.62-1.04,3.33-1.91,4.84c-0.68,0.93-1.37,1.86-2.05,2.79    c-0.31,0.62-0.62,1.24-0.93,1.87c-1.65,1.55-3.3,3.1-4.95,4.64c-0.35,0.39-1.32,0.82-1.35,1.35L250.44,318.76z"/>
            <circle cx="277.87" cy="309.34" r="1.77"/>
        </g>
        <g id="__Hasköy">
            <path d="    M235.8,348.3c-0.21-0.14-0.29-0.45-0.5-0.59c-0.34-0.14-0.58-0.22-0.67-0.67c0-0.76-0.14-1-0.34-1.85    c-0.95-4.19,0.75-7.16,2.31-10.97c0.74-1.62,1.49-3.23,2.23-4.85c2.97-2.97,5.95-5.95,8.92-8.92c0.99-0.7,1.73-1.37,2.86-1.85    l-0.17,0.17c0.96-0.25,4.25-0.55,5.05,0.17c1.66-0.06,3.31-0.12,4.97-0.18c0.45-0.29,1.11-0.19,1.59,0.01    c0.39-0.11,0.79-0.22,1.18-0.34c0.19,0.1,0.38,0.21,0.56,0.32c0.99,0.79,1.98,1.58,2.97,2.38c0.56,0.34,1.12,0.67,1.68,1.01    c1.86,0.27,3.25,1.08,4.78,2.17c0.71,0.4,1.41,0.8,2.12,1.19c2.39-0.15,4.59,0.56,6.91,0.94c1.07,0.18,3.6,0.6,4.53,0.07    c0.67,0.06,1.35,0.11,2.02,0.17c0.45,0.22,0.9,0.45,1.35,0.67c0.53,0.15,1.06,0.3,1.59,0.45c0.03,0.13,0.06,0.26,0.09,0.39    c0.56,0.6,1.11,1.21,1.67,1.81c0.23,0.4,0.46,0.81,0.68,1.21c-0.13,3.59,1.44,5.81,4.61,7.43c0.54,0.38,1.75-0.24,2.29,0.14    c0.89-0.05,1.11,0.91,2,0.86c0.89-0.16,2.11,0.22,3.05,0.48c2.14,0.92,3.58,1.1,5.72,2.02c0.6,0.1,1.2,0.2,1.8,0.31    c0.76,0.14,1.77,0.41,2.57,0.2c0.93,0.24,3.39,1.42,4.11,1.27l0.23,0.94c0.07,0.05,0.14,0.1,0.21,0.15    c-0.34,0.11-0.67,0.22-1.01,0.34c-0.56,0.79-1.12,1.57-1.68,2.36c-0.13,0.13-0.05,1.13,0.17,1.35c-0.16,1.21,1.21,2.02,2.02,2.69    c0,0.35,1.19,1.56,1.4,2.27c0.22,0.9-0.69,2.16-1.24,2.95c-0.15,0.08-0.31,0.17-0.46,0.25c-3.29,3.75-7.27,3.32-11.45,1.68    c-2.87-1.43-5.75-2.86-8.62-4.29c-0.79-0.28-1.57-0.56-2.36-0.84c-1.23-0.45-2.47-0.9-3.7-1.35c-2.02-0.5-4.04-1.01-6.06-1.51    c-4.88-0.79-9.76-1.57-14.64-2.36c-1.57-0.28-3.14-0.56-4.71-0.84c-0.5-0.17-1.01-0.34-1.51-0.5c-0.67,0-0.84-0.17-1.68-0.34    c-0.93-0.42-3.5-1.03-4.54-1.18c-0.91-0.27-1.83-0.54-2.75-0.82c-3.12-0.23-6.25-0.46-9.37-0.69c-1.79,0.33-3.59,0.67-5.39,1    c-1.02,0.22-2.31,0.07-3.2,0.67c-1.31,0.88-2.68,1.89-4.21,2.36V348.3z"/>
            <circle cx="256.83" cy="325.83" r="1.77"/>
        </g>
        <g id="__Varto">
            <path d="M298.2,195.66c-0.76-1.32-1.3-2.6-2.49-3.62    c-0.9-0.73-1.8-1.46-2.69-2.19c-0.79-0.45-1.57-0.9-2.36-1.35c-2-1.75-3.75-3.68-5.48-5.7c-0.47-0.9-0.95-1.81-1.42-2.71    c-0.74-1.17-1.76-2.1-2.37-3.36c-0.45-0.94-0.84-2.58-1.8-3.15c-1.75-1.02-3.37-0.47-5.25-0.23c-2.3,0.24-4.6,0.49-6.91,0.73    c-0.94,0.12-1.88,0.25-2.81,0.37c-0.28,0.18-1.28,0.24-1.56,0.42c-1.84,0.07-1.21,0.16-2.52,0c-1.65-0.21-3.61-0.07-5.24,0.23    c-4.42,0.37-8.85,0.74-13.27,1.11c-0.73-0.34-1.46-0.67-2.19-1.01c-0.22-0.06-0.45-0.11-0.67-0.17c-1.15-0.76-2.77-1.64-3.53-2.86    c-1.42-2.26-2.09-4.53-2.36-7.24c-0.06-0.62-0.11-1.23-0.17-1.85c0.06-0.34,0.11-0.67,0.17-1.01c-0.5-1.52-0.6-3.15-0.46-4.74    c-0.01-0.89-0.03-1.77-0.04-2.66c0.4-2.77,0.27-5.64,0-8.41c-0.11-0.17-0.22-0.34-0.33-0.51c-0.75-2.1-4.49-1.95-6.41-2.01    c-0.56-0.11-1.12-0.22-1.68-0.34c-1.49-0.59-2.82-1.68-3.92-2.82c-1.44-1.69-2.89-3.39-4.33-5.09c-0.48-1.09-1.99-3.15-2.86-4.04    c-0.75-0.76-1.64-1.27-2.52-1.85c0.01-0.45-1.04-0.98-1.43-1.2c-1.42-0.83-2.81-1.61-4.3-2.33c-1.07-0.5-2.13-1.01-3.2-1.51    c-2.04-0.81-4.07-1.62-6.11-2.42c-0.82-0.15-1.63-0.29-2.45-0.44c-2.81-0.82-5.41-2.3-8.3-2.84c-3.69-0.4-7.39-0.8-11.08-1.2    c-1.01,0-2.02,0-3.03,0c-1.51-0.06-3.03-0.11-4.54-0.17c-0.56,0.11-1.12,0.22-1.68,0.34c-2.3-0.06-4.6-0.11-6.9-0.17    c-1.01,0.18-2.02,0.35-3.03,0.53c-3.28,0.59-6.44,0.92-9.76,0.82c-2.36-0.4-4.73-0.79-7.09-1.19c-1.64-0.26-3.23-0.86-4.69-1.5    c-0.94,0.31-1.25-0.19-2.02-0.67c-0.49,0.33-1.15-0.1-1.68-0.17c-1.72-0.24-3.3-0.86-4.89-1.54c-0.07-0.03-0.15-0.07-0.22-0.1    c0.22,0.23,0,1.23-0.07,1.48c-0.18,1.51-0.36,3.02-0.54,4.53c-0.05,0.62-0.11,1.24-0.16,1.86c0,0.45-0.01,0.89-0.01,1.34    c-0.27,1.4-0.54,2.81-0.82,4.21c-0.28,2.92-0.3,5.61-0.03,8.58c-0.13,0.95-0.26,1.9-0.39,2.85c-0.28,2.08-0.55,4.16-0.83,6.24    c0.12,1.74,0.25,3.48,0.37,5.22c0.17,0.5,0.34,1.01,0.5,1.51c0.76,1.39,1.52,2.78,2.28,4.17c1.18,1.88,3.06,3.5,3.95,5.59    c3.3,7.74,7.37,14.91,11.8,22.04c1.41,2.27,2.82,4.43,3.98,6.83c0.4,0.83,0.81,1.39,1.06,2.26c0.5,0.28,1.01,0.56,1.51,0.84    c0.39,0.73,0.79,1.46,1.18,2.19c0.37,0.9,0.74,1.8,1.11,2.7c0.69,1.66,1.05,3.74,1.08,5.54l-0.01,0.52    c0.22,0.01,1.77,0.3,2.36-0.17c1.09,0.29,1.46,0.29,3.03,0.34c1.74,0.62,3.48,1.23,5.22,1.85c2.02,0.12,4.03,0.24,6.05,0.36    c1.46,0.44,2.92,0.88,4.39,1.32c2.93,0.48,5.8,0.41,8.75,0.5c1.53-0.37,3.07-0.74,4.6-1.11c0.93,0.03,1.87,0.07,2.8,0.1    c1.18-0.11,2.36-0.22,3.53-0.34c2.02,0.06,3.98-1.23,5.88-1.74c1.35-0.41,2.71-0.82,4.06-1.23c0.52-0.12,1.29,0.14,1.67-0.23    c0.86,0.36,2.24,0.96,3.2,0.67c3.21,0.84,6.43,1.69,9.65,2.53c2.11,0.28,4.23,0.56,6.34,0.84c1.73,0.34,3.09,1.07,4.54,2.02    c1.18,0.78,2.84,1.13,4.21,1.42c1.71,0.36,3.91,0.77,5.55-0.07c3.38,0.56,6.3,2.61,9.27,4.24c1.01,0.44,2.01,0.88,3.02,1.31    c1.96,0.06,3.93,0.11,5.89,0.17c1.18,0.28,2.36,0.56,3.53,0.84c1.81,0.44,3.31,1.15,5.22,1.18c0.45,0.06,0.9,0.11,1.35,0.17    c1.47-0.07,2.92-0.39,4.35-0.75c2.91-0.73,3.52-2.8,5.41-4.81c0.98-1.04,1.64-2.23,3.34-1.62c0.64,0.22,2.05,0.88,2.38,1.45    c1.18,0,2.36,0,3.53,0c1.88-0.67,3.67-1.43,5.69-1.53c0.92,0.06,1.83,0.13,2.75,0.19c1.39,0.09,3.56,0.13,4.35,1.53l0.44-1.18    c-0.04-0.07-0.07-0.13-0.11-0.2c0.28-0.22,0.56-0.45,0.84-0.67c0.09-0.23,0.17-0.47,0.26-0.7c0.35-1.13,0.88-2.04,1.27-3.13    c0.66-1.86,1.15-3.08,1.34-5.09c0.11-0.62,0.22-1.23,0.34-1.85C300.34,198.96,299.17,197.36,298.2,195.66z M273.79,191.38    c-0.17,0.38-0.34,0.76-0.51,1.14c-0.15,0.24-0.81,0.37-1.15,0.48c-1.27,0.42-2.5,0.51-3.83,0.11c-0.34-0.1-0.17-0.09,0.1-0.41    c-0.04-0.12-0.07-0.25-0.11-0.37c0.33-0.27,0.67-0.53,1-0.8c0.9-0.39,1.79-0.78,2.69-1.17c0.38,0.13,0.56,0.14,0.96-0.09    C273.48,189.96,273.94,190.73,273.79,191.38z M275.61,180.69c-0.26,0.36-0.9,1.17-0.77,1.59c-0.37,0.37-0.88,0.57-0.99,0.84    c-0.35,0.8-0.46,2.19-1.19,2.69c-0.36,1.08-0.17,2.76-1.36,3.14c-0.51,0.17-2.51-0.83-2.5-0.96c0.03-0.37,0.12-0.38-0.18-0.67    c0.14-0.24,1.23-1.67,0.67-1.69c-2.44-0.16-4.88,0.46-7.39,0.29c-0.51-0.03-1.92-0.21-2.2,0.05c-0.15-0.32-0.3-0.64-0.45-0.96    c-0.08-0.31-0.46-0.01-0.33-0.38c0.11-0.31,0.27-0.56,0.11-0.85c0.9-0.84,1.8-1.68,2.69-2.52c1.57-0.64,3.14-1.28,4.71-1.92    c1.09-0.56,1.87-1.37,3.11-0.83c0.31-0.14,0.21-0.2,0.35,0.06c0.24,0.42,1.28,2.54,1.57,2.49c0.67-0.11,1.61-0.92,1.88-0.06    c0.46,0.12,0.54-0.01,0.82,0.42c0.28-0.58,0.61-1.01,0.66-1.67C274.86,179.39,275.71,180.54,275.61,180.69z"/>
            <circle cx="197.09" cy="172.01" r="1.77"/>
        </g>
        <g id="__Bulanık">
            <path d="M455.97,218.28c-0.13-0.39-0.25-0.78-0.38-1.17    c-0.43-0.74-0.87-1.48-1.3-2.21c-0.89-1.78-1.54-3.49-2.57-5.19c-1.12-1.12-2.24-2.24-3.37-3.37c-1.56-1.35-3.66-2.1-5.57-2.61    c-1.06-0.31-2.12-0.61-3.18-0.92c-2.19-1.23-4.38-2.47-6.56-3.7c-1.01-1.23-2.02-2.47-3.03-3.7c-1.08-0.5-2.15-0.99-3.23-1.49    c-1-0.29-2-0.58-3-0.87c-0.28-0.17-0.56-0.33-0.84-0.5c-0.51-0.46-1.02-0.92-1.53-1.37c-1.83-2.17-1.5-5.76-1.5-8.39    c-0.22-1.01-0.45-2.02-0.67-3.03c-0.5-1.23-1.01-2.47-1.51-3.7c-0.15-0.84-0.03-2.22-0.67-2.86c0.14-1.09-0.21-3.11-0.67-4.21    c-0.94-2.26-2.25-4.27-4.04-6.06c-0.26-0.36-0.51-0.73-0.77-1.09c-0.92-0.93-1.84-1.85-2.77-2.78c-0.28-0.79-0.56-1.57-0.84-2.36    c-0.49-0.85-0.98-1.7-1.47-2.55c-1.25-2.39-2.23-4.97-2.9-7.55c0.47-0.28,0.59-1.46,0.67-2.02c0.26-1.78,1.03-3.41,0.86-5.23    c-0.2-0.3-0.41-0.6-0.61-0.9c-0.43-0.03-0.85-0.07-1.28-0.1c-0.33,0.34-0.66,0.68-0.99,1.01c-0.87,1.55-1.74,3.1-2.61,4.65    c-1.33,1.87-3.74,2.51-5.77,3.34c-0.92,0.58-1.83,1.16-2.75,1.74c-0.67,0.23-1.33,0.47-2,0.7c-0.62-0.11-1.23-0.22-1.85-0.34    c-0.5-0.34-1.01-0.67-1.51-1.01c-0.22,0-0.55-0.74-0.67-1.01c-0.37-0.8-0.24-3.35,0.21-4.09c0.38-0.32,0.76-0.64,1.14-0.96    c0.45-1.01,0.9-2.02,1.35-3.03c0.76-1.03,2.27-1.47,3.37-2.02c0.22-0.28,0.45-0.56,0.67-0.84c0.2-0.73,2.05-3.53,2.86-3.53    c0.21-0.56,0.41-1.12,0.62-1.68c0.19-0.23,0.38-0.45,0.56-0.68c-0.47-0.31-0.3-0.49-0.34-1.01c-0.3-0.67-0.59-1.34-0.89-2.01    c-0.43-0.62-0.87-1.24-1.3-1.86c0-1.04-1.69-1.78-2.36-2.36c-2.36-2.02-3.93-3.05-6.9-3.87c-0.49,0.46-1.53,0.34-2.2,0.47    l-0.04,0.46c-0.43,0.75-0.86,1.51-1.29,2.26c-0.28,0.39-0.56,0.79-0.84,1.18c-0.24,0.26-0.61,0.86-0.5,1.18    c-0.53,0.66-1.07,1.31-1.6,1.97c-0.36,0.5-0.95,0.96-1.09,1.56c-0.91,0.48-1.81,0.97-2.72,1.45c-1.54,1.7-3.74,2.7-5.7,3.93    c-1.3,0.82-3.2,1.17-4.71,1.19c-0.5,0.05-1.01,0.1-1.51,0.15c-1.35-0.21-2.7-0.41-4.05-0.62c-1.1,0.01-2.21,0.02-3.31,0.04    c-1.14-0.23-3.47,0.33-4.4,1.09c-0.49,0.4-1.18,1.18-1.2,1.85c-2.04,2.98-1.87,5.33-2.15,8.75c-0.1,1.49-0.2,2.98-0.3,4.48    c-0.25,0.3-0.5,0.61-0.75,0.92c-0.48,0.28-1.35,0.66-1.51,1.18c-1.37,0.09-2.7,0.31-4.04,0.33c-0.58,0.01-1.54,0.29-2.02,0.01    c-2.08,0.95-4.15,1.91-6.23,2.86c-2.24,1.63-4.49,3.25-6.73,4.88c-3,1.23-6.24,1.72-9.26,2.86c-1.5,0.36-3,0.73-4.5,1.09    c-2.56,0.89-4.83,2.26-7.45,3c-0.9,0.15-1.8,0.3-2.7,0.45c-2.87,0.51-5.69,0.93-8.57,1.15c-2.73,0.21-5.38,0.08-8.07,0.67    c-0.79,0.24-1.58,0.47-2.38,0.71c-0.62,0.22-1.23,0.45-1.85,0.67c-1,0.39-2,0.78-2.99,1.16c0.14-0.04,0.7-0.12,2.19,0.75    c0.97,0.56,1.35,2.21,1.8,3.15c0.61,1.26,1.63,2.19,2.37,3.36c0.47,0.9,0.95,1.81,1.42,2.71c1.73,2.02,3.48,3.96,5.48,5.7    c0.79,0.45,1.57,0.9,2.36,1.35c0.9,0.73,1.8,1.46,2.69,2.19c1.19,1.02,1.74,2.3,2.49,3.62c0.97,1.7,2.14,3.3,2.39,5.3    c-0.11,0.62-0.22,1.23-0.34,1.85c-0.18,2-0.67,3.22-1.34,5.09c-0.39,1.09-0.92,2-1.27,3.13c-0.09,0.23-0.17,0.47-0.26,0.7    c-0.28,0.22-0.56,0.45-0.84,0.67c0.03,0.07,0.07,0.13,0.11,0.2l-0.44,1.18l0.33,0.14c0,1.17-0.04,2.24-0.33,3.37    c-0.13,0.51,0.2,1.12-0.17,1.51c0.37,1.04,0.81,1.94,0.84,3.03c-0.11,1.79-0.22,3.59-0.34,5.39c-0.28,1.76-0.07,3.5,0.34,5.22    c0.11,0.84,0.22,1.68,0.34,2.52c-0.25,0.89-0.87,3.93-0.5,4.71c-0.22,1.12-0.45,2.24-0.67,3.37c-0.19,0.51-0.38,1.02-0.57,1.53    c-0.09,1.28-0.18,2.57-0.27,3.85c0.44,1.06,0.89,2.14,1.8,2.89c0.63,0.38,1.27,0.76,1.9,1.15c1.02,0.03,3.93,0.19,4.24,0.95    l0.47,0.56l0.46-0.27c1.12-1.62,4.22,0.82,5.09,1.62c1.16,1.12,2.32,2.24,3.48,3.37c1.31,0.5,2.62,1.01,3.93,1.51    c1.14,0.86,2.08,1.73,3.2,2.69c0.47,0.88,0.94,1.77,1.4,2.65c0.18,0.34,2.85,0.75,3.49,1.01c0.95,0.63,1.9,1.26,2.85,1.89    c0.75,0.16,1.49,0.31,2.24,0.47c1.72,0.18,3.44,0.36,5.16,0.54c0.84,0.81,2.32,0.9,3.37,1.35c0.45,0.22,0.9,0.45,1.35,0.67    c0.3-0.3,0.78-0.06,1.17,0.02c1.18,0.16,2.35,0.32,3.53,0.48c1.13,0.34,2.25,0.68,3.38,1.02c1.12-0.06,2.24-0.11,3.37-0.17    c0.21,0.46,1.63,0.38,2.14,0.51c1.3,0.34,2.26,1.01,3.25,1.85c0.71-0.37,2.42,0.94,3.02,1.36c1.07,0.72,2.14,1.45,3.21,2.17    c0.67,0.62,1.35,1.23,2.02,1.85c0.77,0.37,1.55,0.73,2.32,1.1l0.88,0.42c0.47-0.86,0.94-1.72,1.41-2.58    c0.57-0.24,1.07-1.61,1.39-2.18c0.48-0.26,1.37-2.36,1.57-2.98c0.95-2.02,1.91-4.04,2.86-6.06c0.21-0.64,1.34-1.54,1.18-2.19    c0.28-0.28,0.56-0.56,0.84-0.84c1.62-1.05,3.27-1.58,5.06-2.31c0.61-0.18,1.23-0.36,1.84-0.55c1.29,0.13,2.58,0.27,3.87,0.4    c1.07-0.19,2.14-0.38,3.2-0.57c1.86-0.83,3.4-2.09,5.03-3.27c0.9-0.65,1.81-1.3,2.71-1.95c1.11-0.52,2.23-1.03,3.34-1.55    c1.86-0.94,3.72-1.88,5.57-2.82c4.94-0.56,9.87-1.12,14.81-1.68c1.39,0.06,2.79,0.12,4.18,0.17c2.02-0.44,4.04-0.88,6.06-1.32    c1.01-0.12,4.31-0.13,4.9-0.54c0.84,0.06,1.68,0.11,2.52,0.17l1.01-0.84c0.45-0.71,0.34-1.06,0.34-1.85    c1.37-1.37,3.32-5.21,3.71-7.11c0.22-1.04,1.13-1.94,1.84-2.66c0.22-0.45,0.43-0.9,0.65-1.35c0.18-0.5,0.35-1.01,0.53-1.51    c0.84-0.9,1.68-1.8,2.52-2.69c0.45-0.62,0.9-1.23,1.35-1.85c1.57-1.78,3.31-3.06,4.21-5.29c0.22-0.93,0.45-1.86,0.67-2.79    C456.8,220.33,456.43,219.4,455.97,218.28z M412.43,221.78c-0.14,0.24-0.28,0.48-0.43,0.72c-0.28,0.17-0.56,0.34-0.84,0.5    c-0.81,0.37-1.58,0.17-2.19,1.01c-0.72,0.23-1.37,0.17-1.85,0.84c-0.55,0.22-1.74,0.25-2.02-0.34c-0.35,0.2-0.55,0.27-0.67,0.67    c-1.06,0.34-2.52,0.6-3.24-0.31c-0.77-0.68-1.54-1.37-2.31-2.05c-0.23-0.5-0.45-1-0.68-1.5c-0.28-0.55-0.53-0.71-0.51-1.34    c-0.05-0.12-0.11-0.23-0.16-0.35c0.17-0.28,0.34-0.56,0.5-0.84c0.06-0.34,0.11-0.67,0.17-1.01c-0.06-0.47-0.27-1.41,0.08-1.76    c0.33-0.31,0.54-0.3,0.59-0.76c0.05,0.01,0.1,0.02,0.15,0.04c0.4,0.16,0.8,0.31,1.19,0.47c0.5-0.11,1.01-0.22,1.51-0.34    c0.39-0.22,0.79-0.45,1.18-0.67c0.35,0.03,0.7,0.06,1.05,0.08c0.33-0.73,0.14-1.51,0.56-2.18c0.25-0.09,0.5-0.17,0.75-0.26    c0.42,0.19,0.84,0.39,1.26,0.58c0.5,0.49,1.22,1.35,1.09,2.11c1.14,1.31,2.61,2.36,3.63,3.9c0.56,0.83,1.04,1.39,1.04,2.45    C412.54,221.69,412.56,221.57,412.43,221.78z"/>
            <circle cx="399.8" cy="198.01" r="1.77"/>
        </g>
    </g>
</svg>