<?xml version="1.0" encoding="UTF-8"?>
<!DOCTYPE svg PUBLIC "-//W3C//DTD SVG 1.1//EN" "http://www.w3.org/Graphics/SVG/1.1/DTD/svg11.dtd">
<svg version="1.1" id="HaritaCizim" xmlns="http://www.w3.org/2000/svg" xmlns:xlink="http://www.w3.org/1999/xlink" x="0px" y="0px" viewBox="0 0 500 700" preserveAspectRatio="none">
    <defs id="__def">
        <radialGradient id="f">
            <stop offset="0" stop-color="white" stop-opacity="1"/>
            <stop id="STOP1" offset=".4" stop-opacity="1"/>
            <stop offset="1" stop-color="white" stop-opacity=".2"/>
        </radialGradient>
        <filter id="__flt1" x="0" y="0" width="200%" height="200%" filterUnits="objectBoundingBox">
            <feGaussianBlur in="SourceAlpha" stdDeviation="3" result="blur1"/>
            <feSpecularLighting result="specOut" in="blur1" specularConstant="1.5" specularExponent="20" lighting-color="#bbbbbb">
                <feDistantLight azimuth="45" elevation="30"/>
            </feSpecularLighting>
            <feComposite in="specOut" in2="SourceAlpha" operator="in" result="specOut"/>
            <feComposite in="SourceGraphic" in2="specOut" operator="arithmetic" k1="0" k2="1" k3="1" k4="0"/>
        </filter>
        <filter id="__flt2" x="0" y="0" width="200%" height="200%" filterUnits="objectBoundingBox">
            <feGaussianBlur in="SourceAlpha" stdDeviation="3" result="blur1"/>
            <feSpecularLighting result="specOut" in="blur1" specularExponent="20" lighting-color="#bbbbbb">
                <fePointLight x="-2000" y="100" z="2000"/>
            </feSpecularLighting>
            <feComposite in="specOut" in2="SourceAlpha" operator="in" result="specOut"/>
            <feComposite in="SourceGraphic" in2="specOut" operator="arithmetic" k1="0" k2="1" k3="1" k4="0"/>
        </filter>
        <filter id="__flt3" x0="-50%" y0="-50%" width="200%" height="200%" filterUnits="objectBoundingBox">
            <feGaussianBlur in="SourceAlpha" stdDeviation="3" result="blur"/>
            <feOffset in="blur" dx="0" dy="0" result="offsetBlur"/>
            <feSpecularLighting in="blur" surfaceScale="4" specularConstant=".5" specularExponent="20" lighting-color="flavor" result="specOut">
                <fePointLight x="-5000" y="-10000" z="5000"/>
            </feSpecularLighting>
            <feComposite in="specOut" in2="SourceAlpha" operator="in" result="specOut"/>
            <feComposite in="SourceGraphic" in2="specOut" operator="arithmetic" k1="0" k2="1" k3="1" k4="0" result="litPaint"/>
            <feMerge>
                <feMergeNode in="offsetBlur"/>
                <feMergeNode in="litPaint"/>
            </feMerge>
        </filter>
        <filter id="__flt4" x0="-50%" y0="-50%" width="200%" height="200%">
            <feGaussianBlur in="SourceAlpha" stdDeviation="2" result="blur"/>
            <feOffset dy="-1" dx="-1"/>
            <feComposite in2="SourceAlpha" operator="arithmetic" k2="-1" k3="1" result="hlDiff"/>
            <feFlood flood-color="white" flood-opacity=".7"/>
            <feComposite in2="hlDiff" operator="in"/>
            <feComposite in2="SourceGraphic" operator="over" result="withGlow"/>
            <feOffset in="blur" dy="3" dx="3"/>
            <feComposite in2="SourceAlpha" operator="arithmetic" k2="-1" k3="1" result="shadowDiff"/>
            <feFlood flood-color="black" flood-opacity="1"/>
            <feComposite in2="shadowDiff" operator="in"/>
            <feComposite in2="withGlow" operator="over"/>
        </filter>
        <filter id="__golge1" x="0" y="0" width="200%" height="200%" filterUnits="userSpaceOnUse">
            <feOffset result="offOut" in="SourceAlpha" dx="8" dy="8"/>
            <feGaussianBlur result="blurOut" in="offOut" stdDeviation="3"/>
            <feBlend in="SourceGraphic" in2="blurOut" mode="normal"/>
        </filter>
    </defs>
    <g id="__Komsular" display="none">
        <path fill-rule="evenodd" clip-rule="evenodd" fill="none" stroke="#000000" stroke-width="0.25" stroke-miterlimit="10" d="   M0,355.98c1.87,2.22,4.58,2.68,7.03,4.11c2.54,1.49,4.14,3.33,6,5.52c3.9,4.59,7.7,8.4,12.79,11.69c2.77,1.79,4.49,2.67,7.96,2.84   c3.18,0.16,6.27-0.19,9.44-0.19c2.87,0,6.19,0,8.83-1c2.6-0.98,4.95-2.28,7.74-3.02c3.13-0.83,6.87-0.27,9.48,1.75"/>
        <path fill-rule="evenodd" clip-rule="evenodd" fill="none" stroke="#000000" stroke-width="0.25" stroke-miterlimit="10" d="   M164.78,607.59c-1.37,0.6-2.51,0.66-3.63,1.65c-0.77,0.68-1.66,1.9-2.28,2.63c-1.64,1.95-2.67,5.05-3.15,7.62   c-0.51,2.74,0.83,6.56-1.56,8.44c-2.04,1.6-4.87,1.97-7.13,3.26c-2.41,1.37-5.13,2.33-7.55,3.73c-2.5,1.44-2.68,5.29-1.7,7.79   c1.1,2.81,3.26,3.85,5.48,5.47c1.11,0.81,2.15,1.91,3.26,2.78c1.16,0.91,2.34,1.21,3.53,1.98c5.97,3.88,0,11.35-0.93,16   c-0.28,1.4-0.27,2.9-0.71,4.2c-0.44,1.3-1.41,2.38-1.89,3.72c-0.98,2.75-0.55,5.86-3.78,6.84c-2.68,0.81-6.06-0.03-8.53,1.32   c-1.28,0.7-2.32,1.73-3.45,2.57c-1.06,0.79-2.51,1.04-3.53,1.74c-1.89,1.3-3.44,3.56-5.43,4.95c-1.39,0.97-5.34,2.45-5.9,3.73"/>
        <path fill-rule="evenodd" clip-rule="evenodd" fill="none" stroke="#000000" stroke-width="0.25" stroke-miterlimit="10" d="   M335.79,626.46c1.12,0.65,2.16,2.27,3.2,3.21c1.01,0.91,2.06,1.49,3.21,2.26c2.11,1.42,4.23,3.07,6.08,4.72   c4.26,3.8,7.55,8.02,10.87,12.5c1.63,2.2,3.69,4.14,4.39,6.75c0.69,2.59,1.16,5.14,2.21,7.59c1.2,2.78,2.78,4.84,4.39,7.32   c1.54,2.38,2.75,5,4.15,7.5c1.94,3.46,2.06,6.77,2.87,10.57c0.56,2.6,0.02,8.37,1.66,10.42"/>
        <path fill-rule="evenodd" clip-rule="evenodd" fill="none" stroke="#000000" stroke-width="0.25" stroke-miterlimit="10" d="   M397.32,280.3c2.38-1.09,4.26-3.29,6.09-5.04c1.72-1.66,3.25-4.17,5.23-5.3c5.76-3.28,11.98-2.61,18.54-2.87   c3.58-0.14,7.53-0.22,10.48,1.73c2.92,1.94,6.21,2.77,9.12,4.74c3.44,2.32,7.54,2.95,10.75,5.58c2.75,2.25,5.58,4.63,7.96,7.16   c4.17,4.42,8.23,9.03,12.52,13.12c2.99,2.85,5.74,3.01,9.71,3.16c3.22,0.12,5.9,2.18,9.21,1.66c1.03-0.16,2.19-0.73,3.06-1.09"/>
        <path fill-rule="evenodd" clip-rule="evenodd" fill="none" stroke="#000000" stroke-width="0.25" stroke-miterlimit="10" d="   M175.73,0c0.01,1.64,0.62,3.15,0.57,4.72c-0.05,1.56-0.85,2.77-1.09,4.19c-0.5,2.96,1.02,5.36,1.85,7.88   c0.46,1.38,0.36,2.97,0.98,4.31c0.5,1.09,1.67,1.91,2.46,2.82c1.97,2.28,3.85,4.38,6.17,6.33c2.59,2.18,5.96,4.19,9.08,5.56   c3.31,1.46,6.24,1.34,9.2,3.68c2.56,2.03,5.34,3.23,8.01,4.81c3.05,1.81,5.52,3.87,8.44,5.76c2.64,1.71,4.91,3.21,6.24,6.18   c1.42,3.17,0.91,5.69-0.61,8.64c-1.49,2.9-1.13,6.21-2.78,9.07c-1.59,2.75-0.23,5.97-1.14,8.72"/>
        <text transform="matrix(0.5825 -0.8128 0.8128 0.5825 97.01 224.1045)" font-family="'MyriadPro-Regular'" font-size="10.1925">KIRŞEHİR</text>
        <text transform="matrix(0.4519 0.8921 -0.8921 0.4519 22.6919 513.77)" font-family="'MyriadPro-Regular'" font-size="10.1925">AKSARAY</text>
        <text transform="matrix(1 0 0 1 234.2395 673.6487)" font-family="'MyriadPro-Regular'" font-size="10.1925">NİĞDE</text>
        <text transform="matrix(0.1248 0.9922 -0.9922 0.1248 464.5208 435.96)" font-family="'MyriadPro-Regular'" font-size="10.1925">KAYSERİ</text>
        <text transform="matrix(0.4988 0.8667 -0.8667 0.4988 426.4512 137.8594)" font-family="'MyriadPro-Regular'" font-size="10.1925">YOZGAT</text>
    </g>
    <g id="__Harita" display="none">
        <rect id="__cer" x="0" y="0" fill="#000000" opacity="0" width="500" height="700"/>
        <g id="__Avanos">
            <path d="    M317.65,468.64l-2.44-0.35c-0.71,0-3.3-1.49-3.87-1.93c-1.63-1.77-3.26-3.54-4.88-5.31c-0.59-0.49-1.74-1.21-1.63-2.05    c-1.81-1.11-3.62-2.22-5.42-3.34c-1.65-1.74-3.3-3.48-4.95-5.22c-1.6-1.34-6.17-3.65-6.9-5.32c-1.04-0.57-2.08-1.13-3.11-1.7    c-2.96-2.19-5.43-4.79-8.82-6.41c-1.87-0.88-3.75-1.77-5.62-2.65c-1.79-0.28-3.59-0.57-5.38-0.85c-1.79-0.28-3.59-0.57-5.38-0.85    c-0.83,0.19-1.66,0.37-2.49,0.56c-0.45,0.76-1.51,1.02-2.38,1.23c-1.15,0.28-5.51,0.42-5.89,1.04c-1.54-0.72-3.07-1.45-4.61-2.17    l-0.49,0.47c0.8,0,3.26-3.09,3.8-3.82c0.76-0.24,1.31-2.41,1.3-3.26c-0.05-3.28,0.98-6.24,1.7-9.34c0.38-1.13,0.75-2.27,1.13-3.4    c0.56-0.97,2.39-4.18,1.98-5.1c1.13-2.17,2.68-3.95,2.88-6.5c0.08-1,0.78-2.87,0.23-3.69c0.7-1.85,1.51-3.66,1.7-5.66    c-0.14-2.37-0.27-4.74-0.41-7.1c-0.09-1.17,0.16-3.36-0.73-4.22c0.34-5.36-0.6-12.8-2.55-17.84c-0.09-0.85-0.19-1.7-0.28-2.55    c-0.75-1.51-1.42-2.12-2.17-3.63l-0.38-1.18c0,0,0.75-3.29,0.85-5.38c0-1.04,0-2.08,0-3.11c0.32-1.48,0.64-2.97,0.96-4.45    c-0.44-1.49,0.01-3.84,0.74-5.18c0.62-1.13,1.52-2.38,2.55-3.11c0.57-1.51,1.51-2.88,2.08-4.39c0.57-0.57,4.15-3.49,4.72-4.15    c2.83-1.42,6.98-3.59,8.49-5.9c2.37-2.19,3.75-3.73,5.66-6.23c0.96-2.29,1.91-4.58,2.87-6.87c1.32-3.68,2.04-3.18,3.36-6.86    c0.79-2.75,2.08-8.3,3.11-11.75c0.28-0.94,0.57-1.89,0.85-2.83c0-1.7,0-3.4,0-5.1c-0.59,0.59,0-4.06,0-4.81    c-0.25-0.76-0.51-1.53-0.76-2.29c-0.12-1.88-0.25-3.76-0.37-5.64c0.03-0.57,0.2-7.2,0.75-7.41c-1.03-4.82,0.32-3.64,0.09-8.45    c-0.09-0.94-0.09-3.35-0.28-3.82l-0.01,0.13c0.01-0.33,2.07-1.4,2.46-1.64c1.62-0.98,2.24-0.33,4.06-0.61    c1.23,0.28,2.45,0.57,3.68,0.85c2.55,1.13,5.1,2.27,7.64,3.4c4.34,1.04,3.68,1.37,8.02,2.41c1.11-0.16,5.69,0.73,6.79,0.57    c0.68-0.31,2.9-0.96,3.59-1.27c3.68,0.09,4.06,0.99,7.74,1.09c1.31-0.36,5.92-1.53,7.23-1.89c0.96-0.39,1.91-0.78,2.87-1.18    c2.33-0.54,4.81-0.33,6.98-1.61c2.49-1.16,4.97-2.32,7.46-3.49c2.74-0.75,5.47-1.51,8.21-2.26c6.41-1.9,2.74-0.71,9.53-2.41    c2.83-1.7,10.94-1.07,11.33-1.13c-0.1,0.34,1.42,3.54,2.64,5.24c0.28,0.57,0.57,1.13,0.85,1.7c0.66,1.32,1.32,2.64,1.98,3.96    c5.52,7,5.8,16.13,6.76,24.92c0.79,7.18-1.04,14.63-1.95,21.8c-0.47,4.25-0.94,8.49-1.42,12.74c-0.41,2.6-1.84,4.78-2.95,7.02    c-1.18,2.38-2.35,4.76-3.53,7.14c-4.52,8.96-9.04,17.92-13.55,26.88c-3.14,8-6.28,16.01-9.42,24.01    c-1.01,2.13-1.31,4.64-1.69,5.39c0.18,0.75-0.29,2.15-0.11,2.9c0.33,2.63,0.39,4.8,1.49,7.26c1.92,4.33,5.42,7.11,9.63,9.18    c1.43,0.57,2.86,1.14,4.29,1.71c2.73,2.06,5.47,4.12,8.2,6.18c1.6,1.46,2.8,2.54,3.49,3.16c1.85,1.66,1.96,1.9,3.87,3.63    c0.66,0.6,1.58,0.7,1.83,1.64c1.33,0.89,2.21,1.94,3.55,2.61c-4.19,0-8.43-1.54-12.46-2.55c-2.19-0.55-3.86-2.33-6.23-2.55    c-5.53-0.51-11.2-0.29-16.71-0.2c-0.66,0.01-1.49,0.12-1.97-0.36c-2.75,0-5.24,0.07-7.93,0.57c-2.17,0-4.34,0-6.51,0    c-4,0.32-7.12,3.84-9.06,7.08c-0.09,0.66-0.19,1.32-0.28,1.98c-0.25,2.08,0.36,3.93,0,5.95c0.51,0.51,0.22,1.3,0.28,1.98    c0.19,1.79,0.38,3.59,0.57,5.38c0.57,0.28,0.94,1.79,0.57,2.26c-0.08,2.02-0.17,4.03-0.25,6.05c-0.57,1.87-1.51,2.83-1.73,4.99    c-0.28,0.57-0.57,1.13-0.85,1.7c-1.89,2.93-3.78,5.85-5.66,8.78c-0.66,0.76-1.32,1.51-1.98,2.27c-1.04,0.75-2.08,1.51-3.11,2.26    c-2.06,0.64-3.75,1.63-5.66,2.55c-0.78,0.37-1.42,0.92-2,1.53l-0.86,0.16L317.65,468.64z"/>
            <circle cx="309.17" cy="435.64" r="1.586"/>
        </g>
        <g id="__Ürgüp">
            <path d="    M329.18,595.74c-1.24-1.76-2.07-1.35-3.75-2.34c-0.87-0.51-1.22-1.22-1.91-1.91c-0.81,0-1.4-0.66-1.98-1.13    c-1.04-0.75-2.08-1.51-3.11-2.27c-3.38-1.13-6.39-2.36-9.34-4.25c-0.66-0.38-1.32-0.76-1.98-1.13c-1.38-0.26-2.23-0.93-3.4-1.7    c-1.97,0-3.85-2.37-4.88-3.93c-0.73-1.33-1.47-2.67-2.2-4c-0.28-1.04-0.57-2.08-0.85-3.11c0.25-1.23,0.5-2.47,0.75-3.7    c0.18-1.64,0.31-4.08,2.1-4.75c0.94-0.39,1.88-0.78,2.81-1.18c1.32-0.17,2.65-0.35,3.97-0.52c2.17-0.77,4.34-1.54,6.5-2.31    c2.85-0.79,5.83-1.65,7.64-4.25c0.28-0.95,0.55-1.9,0.83-2.85c1.26-3.68,1.67-8.69-0.83-11.87c-0.57-0.73-2-2.93-2.81-3.2    c-3.85-1.32-9.54-0.67-13.31,0.72c-1.52-0.31-6.27,1.18-7.95,1.64c-0.99,0.99-7.3,3.03-8.78,2.83c-1.23,0.66-2.45,1.32-3.68,1.98    l0.28-0.57c-1.57-3.33,0.03-8.03,1.7-11.04c-0.37-1.05,0.84-3.18,1.2-4.24c0.26-0.76,0.52-1.52,0.78-2.27    c2.19-4.46,9.64-6.61,14.16-7.36c1.23-0.05,1.6-0.43,3.11-0.85c0.76,0.05,2.45-0.71,2.55-1.7c0-4.65-0.85-5.54-3.11-9.34    c-0.57-1.32-1.13-2.64-1.7-3.96c-0.24-0.96-0.47-1.92-0.71-2.88c-0.25-1.23-0.42-2.26-0.24-3.77c0.57-0.94,0.28-3.02-0.19-3.02    c-0.19-1.13-0.18-2.41,0-3.92c-0.09-0.85-0.19-1.7-0.28-2.55c0.66-1.13,1.32-2.27,1.98-3.4c0.49,0.49,0.77-0.39,1.13-0.85    c1.13-1.23,2.26-2.46,3.39-3.69c0.57-0.28,1.14-0.56,1.71-0.84c1.45-1.28,2.91-2.57,4.36-3.85c0.62-0.63,1.78-1.81,2.72-1.81    c0.61-0.61,1.17-1.31,1.78-1.96c0.64-0.68,1.33-1.31,2.19-1.72c1.91-0.91,3.6-1.91,5.66-2.55c1.04-0.75,2.08-1.51,3.11-2.26    c0.66-0.75,1.32-1.51,1.98-2.27c1.89-2.93,3.78-5.85,5.66-8.78c0.28-0.57,0.57-1.13,0.85-1.7c0.22-2.16,1.16-3.12,1.73-4.99    c0.08-2.02,0.17-4.03,0.25-6.05c0.38-0.47,0-1.98-0.57-2.26c-0.19-1.79-0.38-3.59-0.57-5.38c-0.07-0.68,0.23-1.47-0.28-1.98    c0.36-2.02-0.25-3.87,0-5.95c0.09-0.66,0.19-1.32,0.28-1.98c1.94-3.24,5.06-6.76,9.06-7.08c2.17,0,4.34,0,6.51,0    c2.68-0.5,5.18-0.57,7.93-0.57c0.48,0.48,1.31,0.37,1.97,0.36c5.52-0.09,11.18-0.31,16.71,0.2c2.37,0.22,4.04,2,6.23,2.55    c4.03,1.01,8.27,2.55,12.46,2.55c3.48,4.82,7.43,8.99,10.37,14.26c1.55,2.32,3.09,4.65,4.64,6.97c0,0.94,0,1.89,0,2.83    c0.54,0.44,0.91,1.61,0.8,2.32c0.44,1.07,0.88,2.14,1.32,3.21c0.43,0.89,0.86,1.79,1.28,2.68c0,2.1,1,4.26,1.7,6.23    c0.26,1.32,0.51,2.65,0.77,3.97c0.5,3.3,1,6.6,1.5,9.9c-0.38,0.47,0.47,0.99,0.09,1.46c-1.56,0-2.42-0.02-2.08,1.37    c-5-0.94-10-1.89-15.01-2.83c-2.19,2.19-1.51,5.5-0.85,8.21c0.21,0.88-0.03,1.72,0.57,2.55c0.94,1.51,1.89,3.02,2.83,4.53    c0.09,1.42,0.19,2.83,0.28,4.25c1.37,2.16,3.11,1.12,4.25,2.26c0.14,2.16,0.51,6.88,0.57,7.08c1.3-0.38,3.43,0.88,4.25,1.7    c1.24,0,0.96,0.92,1.07,1.73c0.15,1.55-4.88,2.75-6.17,3.37c0.57,0.57,1.13,1.13,1.7,1.7c2.01-0.17,5.91,4.08,6.34,5.85    c1.22,1.3,2.43,3.05,2.43,4.91c1.67,1.1,3.17,4.76,2.83,6.79c-0.43,2.58-2.73,3.11-2.83,6.23c-0.67,1.2,0.4,1.67,1.13,2.55    c0,1.45,0.62,1.68,1.29,2.97c0.74,1.43,4.98,2.04,6.35,2.97c0.65,0.44,1.13,1.23,1.13,1.98c1.17,1.2,2.42,1.95,3.4,3.4    c1.79,0.19,5.69,1.12,6.23,1.42c-0.75,1.32-1.51,2.64-2.27,3.96c-2.2,2.41-3.01,5.06-5.76,6.75c-0.82,0.45-5.37,0.04-6.71,0.04    c-2.54,0-4.85,0.28-7.35,0.57c-1.98,0.19-3.96,0.38-5.95,0.57c-12.24,3.89-24.48,7.78-36.72,11.67c-1.35,0.64-2.7,1.28-4.05,1.92    c-6.13,1.9-11.57,5.78-17.63,8.1c-3.65,1.27-7.31,2.53-10.96,3.8c-2.74,0.66-5.47,1.32-8.21,1.98c-2.89,1.75-5.31,4.91-5.95,8.21    c0-0.09,0-0.19,0-0.28L329.18,595.74z"/>
            <circle cx="338.05" cy="479.62" r="1.586"/>
        </g>
        <g id="__Derinkuyu">
            <path d="    M298.62,561.53c0.94-0.39,1.88-0.78,2.81-1.18c1.32-0.17,2.65-0.35,3.97-0.52c2.17-0.77,4.34-1.54,6.5-2.31    c2.85-0.79,5.83-1.65,7.64-4.25c0.28-0.95,0.55-1.9,0.83-2.85c1.26-3.68,1.67-8.69-0.83-11.87c-0.57-0.73-2-2.93-2.81-3.2    c-3.85-1.32-9.54-0.67-13.31,0.72c-1.52-0.31-6.27,1.18-7.95,1.64c-0.99,0.99-7.3,3.03-8.78,2.83c-1.23,0.66-2.45,1.32-3.68,1.98    c-0.57,0.66-1.13,1.32-1.7,1.98c-0.28,0.66-0.57,1.32-0.85,1.98c-0.44,2.72,0.57,5.4,0.57,8.21c0,1.26-0.16,3.48,0.57,4.53    c-0.06,1.12-0.12,2.25-0.19,3.37c0.12,0.66,0.25,1.32,0.37,1.98c-0.05,1.43-0.46,3.15,0.66,4.27c0.09,1.13,0.19,2.27,0.28,3.4    c0.28,0.66,0.57,1.32,0.85,1.98c0.09,1.6,0.19,3.21,0.28,4.81c-0.19,0.66-0.38,1.32-0.57,1.98c-3.41,4.72-6.48,10.33-12.1,12.63    c-1.06,0.41-2.12,0.83-3.19,1.24c-0.47,0.28-0.94,0.57-1.42,0.85c-1.72,0.06-3.43,0.13-5.15,0.19c-2.16-2.99-5.5-5.54-6.85-9.04    c-2.04-5.31-2.02-11.48-3.29-16.92c-0.4-0.34-0.8-0.68-1.2-1.03c-0.26-0.41-0.52-0.83-0.78-1.24c0.69-0.69-0.23-2.83-1.13-2.83    c-0.19-0.38-0.38-0.76-0.58-1.14c-0.37-0.66-0.75-1.32-1.12-1.97c-0.69,0-1.43-0.76-1.98-1.13c-1.04-0.28-2.08-0.57-3.11-0.85    c-0.91-0.91-2.45-1.27-3.68-1.42c-2.44-0.28-5.73,0.95-7.64,2.55c-0.47,0.19-0.94,0.38-1.42,0.57c-1.13,0.28-2.27,0.57-3.4,0.85    c-0.57,0.28-1.13,0.57-1.7,0.85c-2.02,0.45-4.04,0.99-5.9,1.8c-1.24,0.63-0.88,0.45-2.12,1.08c-0.48,0.52-2.57,1.84-3.05,2.35    c-1.6,0.81-3.19,1.61-4.79,2.42c-5.94-0.19-10.96,2.51-14.16,7.36c-1.78,2.7-4.05,4.95-4.81,8.21c-0.83,0.83-3.4,5.08-3.4,6.23    c-1,1-1.42,2.04-1.42,3.4c-0.94,1.51-1.89,3.02-2.83,4.53c-1.7,2.13-3.2,4.35-4.81,6.51c-0.57,1.22-1.14,2.44-1.71,3.66    c-0.94,1.7-1.88,3.41-2.82,5.11c0.25,0.3,0.5,0.59,0.74,0.88c3.53,4.71,7.05,9.41,10.58,14.12c1.89,1.42,3.78,2.83,5.66,4.25    c2.36,0.94,4.72,1.89,7.08,2.83c1.79,0.85,3.59,1.7,5.38,2.55c3.21,0.47,6.42,0.94,9.63,1.42c2.55-0.09,5.1-0.19,7.64-0.28    c2.55,0.19,5.1,0.38,7.64,0.57c4.25-1.13,8.49-2.27,12.74-3.4c1.13-0.57,2.27-1.13,3.4-1.7c4.72-1.04,9.44-2.08,14.16-3.11    c8.21-1.32,16.42-2.64,24.63-3.96c1.13-0.19,2.27-0.38,3.4-0.57c1.01,0.06,2.02,0.12,3.03,0.18c1.44-0.53,2.88-1.06,4.33-1.59    c0.94,0,1.89,0,2.83,0c1.42-0.19,2.83-0.38,4.25-0.57c4.81-0.75,9.63-1.51,14.44-2.26c3.21,0.09,6.42,0.19,9.63,0.28    c2.73,0.03,5.46,0.05,8.19,0.08c0.99,0.12,1.99,0.24,2.98,0.35c0.5-0.5,0.93,0.09,1.66-0.01c0-0.09-0.38-1.18-0.38-1.27    c0-1.19-0.39-5.49-1.13-6.23c0-2.25-0.82-4.66-1.49-6.73c-0.68-3.06-1.36-6.12-2.03-9.18c-0.34-1.68-0.67-3.36-1.01-5.03    c-0.04-0.45-0.19-2.08-0.57-1.7c-1.24-1.76-2.07-1.35-3.75-2.34c-0.87-0.51-1.22-1.22-1.91-1.91c-0.81,0-1.4-0.66-1.98-1.13    c-1.04-0.75-2.08-1.51-3.11-2.27c-3.38-1.13-6.39-2.36-9.34-4.25c-0.66-0.38-1.32-0.76-1.98-1.13c-1.38-0.26-2.23-0.93-3.4-1.7    c-1.97,0-3.85-2.37-4.88-3.93c-0.73-1.33-1.47-2.67-2.2-4c-0.28-1.04-0.57-2.08-0.85-3.11c0.25-1.23,0.5-2.47,0.75-3.7    C296.71,564.64,296.83,562.2,298.62,561.53z"/>
            <circle cx="261.99" cy="614.19" r="1.586"/>
        </g>
        <g id="__Acıgöl">
            <path d="    M171.76,615.85c0.94-1.7,1.88-3.41,2.82-5.11c0.57-1.22,1.14-2.44,1.71-3.66c1.61-2.16,3.11-4.38,4.81-6.51    c0.94-1.51,1.89-3.02,2.83-4.53c0-1.35,0.41-2.39,1.42-3.4c0-1.15,2.57-5.4,3.4-6.23c0.76-3.26,3.04-5.51,4.81-8.21    c3.19-4.85,8.21-7.55,14.16-7.36c1.6-0.8,3.19-1.61,4.79-2.42c0.48-0.52,2.57-1.84,3.05-2.35l-0.25-0.54c0,0-1.87-3.02-3.74-5.36    c-0.86-1.08-1.83-1.6-2.99-2.35c-0.87-1.23-1.74-2.46-2.61-3.69c-1.75-1.84-3.02-4.58-3.32-7.12c-0.14-1.83,1.77-3.12,2.8-4.21    c1.68-1.73,3.36-3.46,5.04-5.19c1.44-1.19,2.88-2.38,4.32-3.57c1.68-2.08,1.32-4.42,0.96-6.8c-0.14-1.31-0.28-2.61-0.42-3.92    c-0.55-2.59-1.62-5.04-2.8-7.4c-1.95-0.49-3.63-3.66-4.81-5.1c-1.55-1.88-3.17-3.32-5.1-4.81c-0.35,0-3.91-2.38-4.96-2.75    c-0.89-0.22-1.79-0.43-2.68-0.65c-0.48-1.1-2.17-1.11-3.11-1.7c-1.23-0.66-2.45-1.32-3.68-1.98c-1.04-0.85-2.08-1.7-3.11-2.55    c-0.13-1.2-1.64-2.11-2.27-3.11c-0.28-0.66-0.57-1.32-0.85-1.98c-1.23-1.51-2.45-3.02-3.68-4.53c-1.11-2.15-2.69-4.6-4.53-6.23    c-0.66-1.02-1.32-2.04-1.98-3.06c-0.28-0.68-0.57-1.36-0.85-2.03c-1.3-0.28-4-5.03-5.66-6.23c-1.87-1.34-4.29-1.84-6.51-1.98    c-2.32-0.81-4.64-1.61-6.95-2.42c-3.1-1.27-5.33-4.03-7.49-6.64c-0.38-1.6-0.76-3.21-1.13-4.81c0.62-0.9,0.07-3.63,0.14-4.8    l-0.42-0.29c-0.08,0.02-0.16,0.04-0.24,0.05c-3.91,0.94-4.86,2.26-6.18,1.51c-2.08,0.75-6.68,0.6-8.02,0.42    c-2.17-0.94-4.34-1.89-6.51-2.83c-0.71-0.23-1.64-0.91-2.27-0.28c-0.44,0.86-0.87,1.72-1.31,2.58c-0.79,1.97-1.58,3.94-2.37,5.91    c-0.54,1.45-1.49,2.01-1.84,3.71c0.01,1.32,0.02,2.63,0.04,3.95c1.73,2.92,4.11,2.94,7.17,3.03c0.95,0.02,1.9,0.05,2.85,0.07    c2.17,0.35,4.34,0.7,6.5,1.05c2.24,0.42,3.58,2.33,3.58,4.54c0.1,0.2,0.21,0.41,0.31,0.61c-0.78,2.19-1.93,4.52-3.88,5.97    c-0.57,0.28-1.14,0.55-1.72,0.83c-4.01,3.65-8.64,6.59-13.25,9.44c-1.43,0.92-2.85,1.83-4.28,2.75c-0.57,0.47-1.13,0.94-1.7,1.42    c-1.98,2.26-3.96,4.53-5.95,6.79c0.35,0.24,0.71,0.49,1.06,0.73c7.12,2.62,13.02,8.25,18.47,13.71c0.61,0,2.06,1.43,2.26,1.98    c1.23,0.57,2.45,1.13,3.68,1.7c2.92,0.47,8.21,0.85,10.48,2.55c0.21,0.64,0.41,1.28,0.62,1.92c1.45,5.16,3.67,11.34,3.06,16.77    c-0.47,1.51-0.94,3.02-1.42,4.53c-0.55,2.84-1.74,6.18-3.4,8.49c-0.19,0.57-0.38,1.13-0.57,1.7c-1.26,1.26-2.73,7.01-3.4,9.06    c-0.43,1.31-0.31,3.22,0,4.53c-0.46,0-0.56,2.33-0.53,2.81c0.19,2.96,0.71,5.88,1.38,8.79c1.04,2.17,2.08,4.34,3.11,6.51    c2.08,1.51,4.15,3.02,6.23,4.53c1.13,0.19,2.27,0.38,3.4,0.57c2.19,0,4.36,0.24,6.23,1.42c1.23,1.79,2.45,3.59,3.68,5.38    c1.04,1.32,2.08,2.64,3.11,3.96c0.85,1.23,1.7,2.45,2.55,3.68c0,2.08,2.35,3.12,3.4,4.53c1.29,1.75,2.56,4.2,4.53,5.38V615.85z"/>
            <circle cx="169.5" cy="522.65" r="1.586"/>
        </g>
        <g id="__Nevşehir">
            <path d="    M215.55,566.06c1.24-0.63,0.88-0.45,2.12-1.08c1.87-0.8,3.89-1.34,5.9-1.8c0.57-0.28,1.13-0.57,1.7-0.85    c1.13-0.28,2.27-0.57,3.4-0.85c0.47-0.19,0.94-0.38,1.42-0.57c1.91-1.59,5.2-2.83,7.64-2.55c1.24,0.14,2.77,0.51,3.68,1.42    c1.04,0.28,2.08,0.57,3.11,0.85c0.55,0.37,1.29,1.13,1.98,1.13c0.37,0.66,0.75,1.32,1.12,1.97c0.19,0.38,0.38,0.76,0.58,1.14    c0.91,0,1.82,2.14,1.13,2.83c0.26,0.41,0.52,0.83,0.78,1.24c0.4,0.34,0.8,0.68,1.2,1.03c1.27,5.44,1.25,11.61,3.29,16.92    c1.35,3.5,4.69,6.05,6.85,9.04c1.72-0.06,3.43-0.13,5.15-0.19c0.47-0.28,0.94-0.57,1.42-0.85c1.06-0.41,2.12-0.83,3.19-1.24    c5.63-2.3,8.69-7.91,12.1-12.63c0.19-0.66,0.38-1.32,0.57-1.98c-0.09-1.6-0.19-3.21-0.28-4.81c-0.28-0.66-0.57-1.32-0.85-1.98    c-0.09-1.13-0.19-2.26-0.28-3.4c-1.12-1.12-0.71-2.85-0.66-4.27c-0.12-0.66-0.25-1.32-0.37-1.98c0.06-1.12,0.12-2.25,0.19-3.37    c-0.72-1.05-0.57-3.27-0.57-4.53c0-2.81-1-5.49-0.57-8.21c0.28-0.66,0.57-1.32,0.85-1.98c0.57-0.66,1.13-1.32,1.7-1.98l0.28-0.57    c-1.57-3.33,0.03-8.03,1.7-11.04c-0.37-1.05,0.84-3.18,1.2-4.24c0.26-0.76,0.52-1.52,0.78-2.27c2.19-4.46,9.64-6.61,14.16-7.36    c1.23-0.05,1.6-0.43,3.11-0.85c0.76,0.05,2.45-0.71,2.55-1.7c0-4.65-0.85-5.54-3.11-9.34c-0.57-1.32-1.13-2.64-1.7-3.96    c-0.24-0.96-0.47-1.92-0.71-2.88c-0.25-1.23-0.42-2.26-0.24-3.77c0.57-0.94,0.28-3.02-0.19-3.02c-0.19-1.13-0.18-2.41,0-3.92    c-0.09-0.85-0.19-1.7-0.28-2.55c0.66-1.13,1.32-2.27,1.98-3.4c0.49,0.49,0.77-0.39,1.13-0.85c1.13-1.23,2.26-2.46,3.39-3.69    c0.57-0.28,1.14-0.56,1.71-0.84c1.45-1.28,2.91-2.57,4.36-3.85c0.62-0.63,1.78-1.81,2.72-1.81c0.61-0.61,1.17-1.31,1.78-1.96    l-2.44-0.35c-0.71,0-3.3-1.49-3.87-1.93c-1.63-1.77-3.26-3.54-4.88-5.31c-0.59-0.49-1.74-1.21-1.63-2.05    c-1.81-1.11-3.62-2.22-5.42-3.34c-1.65-1.74-3.3-3.48-4.95-5.22c-1.6-1.34-6.17-3.65-6.9-5.32c-1.04-0.57-2.08-1.13-3.11-1.7    c-2.96-2.19-5.43-4.79-8.82-6.41c-1.87-0.88-3.75-1.77-5.62-2.65c-1.79-0.28-3.59-0.57-5.38-0.85c-1.79-0.28-3.59-0.57-5.38-0.85    c-0.83,0.19-1.66,0.37-2.49,0.56c-0.45,0.76-1.51,1.02-2.38,1.23c-1.15,0.28-5.51,0.42-5.89,1.04c-1.54-0.72-3.07-1.45-4.61-2.17    c-0.54,0.77-1.05,2.17-1.34,3.25c-0.66,0.57-0.85,1.51-1.51,2.08c-0.47,1.32-1.13,2.03-1.6,3.35c-1.89,1.7-3.78,3.4-5.66,5.1    c-2,1.45-3.55,2.02-5.66,3.11c-0.19-0.09-2.64,1.04-3.68,1.7c-1.7,0.05-4,0.33-5.38,1.42c-3.45,0.22-6.8,0.49-10.19,1.13    c-1.6,0.28-3.21,0.57-4.81,0.85c-1.32-0.12-2.65-0.24-3.97-0.35c-0.85,0.02-1.69,0.05-2.54,0.07c-1.32-0.38-2.64-0.76-3.96-1.13    c-0.75-0.57-1.51-1.13-2.26-1.7c-0.7-0.53-2.11-1.29-2.83-0.85c-1.42-1.04-2.83-2.08-4.25-3.11c-1.5-0.58-3-1.17-4.5-1.75    c-1.05-0.27-2.09-0.53-3.14-0.8c-1.04-0.09-2.08-0.19-3.11-0.28c-1.05-0.1-3.52,0.16-4.25-0.57c-4.53,0.66-9.06,1.32-13.59,1.98    c-1.8-0.09-3.59-0.18-5.39-0.27c-1.49,0.12-2.98,0.24-4.48,0.36c-0.84,0.18-1.53,0.8-2.31,0.48c-0.05,0.38-0.09,0.76-0.14,1.14    c-0.07,1.18,0.48,3.9-0.14,4.8c0.38,1.6,0.75,3.21,1.13,4.81c2.15,2.61,4.38,5.37,7.49,6.64c2.32,0.81,4.64,1.61,6.95,2.42    c2.23,0.14,4.65,0.64,6.51,1.98c1.66,1.2,4.36,5.95,5.66,6.23c0.28,0.68,0.57,1.36,0.85,2.03c0.66,1.02,1.32,2.04,1.98,3.06    c1.84,1.62,3.42,4.08,4.53,6.23c1.23,1.51,2.45,3.02,3.68,4.53c0.28,0.66,0.57,1.32,0.85,1.98c0.63,1.01,2.14,1.91,2.27,3.11    c1.04,0.85,2.08,1.7,3.11,2.55c1.23,0.66,2.45,1.32,3.68,1.98c0.94,0.59,2.64,0.6,3.11,1.7c0.89,0.22,1.79,0.43,2.68,0.65    c1.05,0.38,4.62,2.75,4.96,2.75c1.93,1.49,3.55,2.93,5.1,4.81c1.18,1.44,2.87,4.61,4.81,5.1c1.18,2.36,2.26,4.81,2.8,7.4    c0.14,1.31,0.28,2.61,0.42,3.92c0.37,2.39,0.72,4.73-0.96,6.8c-1.44,1.19-2.88,2.38-4.32,3.57c-1.68,1.73-3.36,3.46-5.04,5.19    c-1.02,1.09-2.94,2.38-2.8,4.21c0.3,2.55,1.57,5.29,3.32,7.12c0.87,1.23,1.74,2.46,2.61,3.69c1.16,0.75,2.13,1.28,2.99,2.35    c1.87,2.34,2.86,4.39,4.56,5.71L215.55,566.06z"/>
            <circle cx="254.25" cy="481.69" r="1.586"/>
        </g>
        <g id="__Gülşehir">
            <path d="    M103.43,499.35c-0.94,0.29-2.9-1.2-3.8-1.77c-2.58-1.03-5.16-2.07-7.74-3.11c-0.63-0.39-1.25-0.78-1.88-1.18    c-2.85-0.58-3.94-0.84-5.83-1.6c-1.51-1.13-3.75-2.41-4.85-3.01c-3.01-1.65-5.57-3.53-7.79-6.19c-0.38-0.85-0.76-1.7-1.13-2.55    c-0.28-1.98-0.57-3.96-0.85-5.95c-0.12-4.39-0.48-9.26,0.57-13.59c0.12-4.44,0.25-8.87,0.37-13.31    c0.65-5.82,2.37-11.63,3.88-17.27c-0.37-1.05,0.34-2.86,0.57-3.96c0-2.74,0-5.47,0-8.21c1.13-4.44,2.27-8.87,3.4-13.31    c0.37-4.65-1.33-8.15-2.55-12.46c-0.66-1.51-1.32-3.02-1.98-4.53c-0.47-1.23-0.94-2.45-1.42-3.68c-0.47-1.13-0.94-2.26-1.42-3.4    c-0.72-1.22-2.11-3.51-1.83-4.9c-0.05-1.3-0.1-2.6-0.15-3.89c0.11-2.32,1.12-5.07,0.28-7.34c-2.04-5.54-4.21-11.1-5.72-16.75    c-1.63-6.09-1.84-11.64,4.32-14.96c0.99-0.51,3.16,0.05,3.96,0.85c2.09,1.28,4.19,2.55,6.28,3.83c2.82,1.36,6.48,2.42,8.72,4.66    c0,2.02,0.85,3.32,2.26,4.81c2.64,0.94,5.29,1.89,7.93,2.83c3.12,2.19,4.62,5.66,7.35,8.23c1.19,1.08,4.79,1.11,6.49,0.88    c1.03-0.7,2.07-1.39,3.11-2.09c2.14-1.47,3.83-3.38,5.99-5.03c1.42-1.08,3.68-3.16,4.92-4.74l0.98-1.19    c0.83,2.11,2.14,3.16,3.84,4.65c0.63,0.56,1.01,1.41,1.87,1.57c0.98,1.04,1.96,2.07,2.94,3.11c0.72,0.76,1.44,1.52,2.16,2.27    c1.32,1.04,2.64,2.08,3.96,3.11c2.29,1.15,4.57,2.3,6.86,3.45c0.69-0.1,1.3-0.01,2.22-0.14c3.18-0.2,6.35-0.4,9.53-0.59    c0.85-0.23,3.63-0.18,4.33,0.4c3.66-0.89,6.59-0.4,10.19,0c5.66-0.12,11.31-0.25,16.97-0.37c3.38,0.17,6.75,0.33,10.13,0.5    c4.14-0.27,7.16-0.64,10.56-0.97c0.76-0.28,1.51-0.57,2.27-0.85c3.05-2.12,5.29-5.09,8.21-7.36c2.85-2.21,7.41-0.61,9.91-3.11    c2.64,0,5.29,0,7.93,0c1.44,0.55,2.87,1.11,4.31,1.66c0.98,0.43,1.95,0.86,2.93,1.28c0.71,0.51,4.47,2.67,4.09,3.28l0.94,0.33    c0.75,1.51,1.42,2.12,2.17,3.63c0.09,0.85,0.19,1.7,0.28,2.55c1.95,5.03,2.88,12.48,2.55,17.84c0.88,0.86,0.64,3.05,0.73,4.22    c0.14,2.37,0.27,4.74,0.41,7.1c-0.19,2-1,3.81-1.7,5.66c0.55,0.82-0.15,2.69-0.23,3.69c-0.2,2.55-1.76,4.33-2.88,6.5    c0.41,0.91-1.42,4.13-1.98,5.1c-0.38,1.13-0.76,2.27-1.13,3.4c-0.72,3.1-1.75,6.07-1.7,9.34c0.01,0.84-0.54,3.02-1.3,3.26    c-0.53,0.73-2.99,3.82-3.8,3.82l0.49-0.47c-0.54,0.77-1.05,2.17-1.34,3.25c-0.66,0.57-0.85,1.51-1.51,2.08    c-0.47,1.32-1.13,2.03-1.6,3.35c-1.89,1.7-3.78,3.4-5.66,5.1c-2,1.45-3.55,2.02-5.66,3.11c-0.19-0.09-2.64,1.04-3.68,1.7    c-1.7,0.05-4,0.33-5.38,1.42c-3.45,0.22-6.8,0.49-10.19,1.13c-1.6,0.28-3.21,0.57-4.81,0.85c-1.32-0.12-2.65-0.24-3.97-0.35    c-0.85,0.02-1.69,0.05-2.54,0.07c-1.32-0.38-2.64-0.76-3.96-1.13c-0.75-0.57-1.51-1.13-2.26-1.7c-0.7-0.53-2.11-1.29-2.83-0.85    c-1.42-1.04-2.83-2.08-4.25-3.11c-1.5-0.58-3-1.17-4.5-1.75c-1.05-0.27-2.09-0.53-3.14-0.8c-1.04-0.09-2.08-0.19-3.11-0.28    c-1.05-0.1-3.52,0.16-4.25-0.57c-4.53,0.66-9.06,1.32-13.59,1.98c-1.8-0.09-3.59-0.18-5.39-0.27c-1.49,0.12-2.98,0.24-4.48,0.36    c-0.84,0.18-1.53,0.8-2.31,0.48l-0.42,0.34l-0.38,0.56c-3.91,0.94-4.86,2.26-6.18,1.51c-2.08,0.75-6.68,0.6-8.02,0.42    c-2.17-0.94-4.34-1.89-6.51-2.83c-0.71-0.23-1.64-0.91-2.27-0.28c-0.44,0.86-0.87,1.72-1.31,2.58c-0.79,1.97-1.58,3.94-2.37,5.91    c-0.54,1.45-1.49,2.01-1.84,3.71c0.01,1.32,0.02,2.63,0.04,3.95c1.73,2.92,4.11,2.94,7.17,3.03c0.95,0.02,1.9,0.05,2.85,0.07    c2.17,0.35,4.34,0.7,6.5,1.05c2.24,0.42,3.58,2.33,3.58,4.54c0.1,0.2,0.21,0.41,0.31,0.61c-0.78,2.19-1.93,4.52-3.88,5.97    c-0.57,0.28-1.14,0.55-1.72,0.83c-4.01,3.65-8.64,6.59-13.25,9.44c-1.43,0.92-2.85,1.83-4.28,2.75c-0.57,0.47-1.13,0.94-1.7,1.42    c-1.98,2.26-3.96,4.53-5.95,6.79L103.43,499.35z"/>
            <circle cx="216.69" cy="420.91" r="1.586"/>
        </g>
        <g id="__Hacıbektaş">
            <path d="    M287.27,248.91c0,0-2.44,0.81-6.22,0.86c-3.77,1.27-7.47,1.7-11.04,1.7c-1.65,0-2.74,0.41-4.25-0.28c-0.81,0-1.58-0.08-2.08-0.71    c-1.57-2-2.12-5.92-2.45-8.35c0.69-1.56,0.05-3.69,0-5.38c1.38-1.15,1.16-3.99,1.45-5.65c0.64-3.67-0.11-8.87-1.17-12.47    c0.25-0.71-1.44-5.22-1.98-5.95c-0.47-0.38-0.94-0.76-1.42-1.13c-3.53-3.11-5.93-4.2-10.17-6.03c-1.33-0.63-2.66-1.27-3.99-1.9    c-1.04-1.25-2.82-1.85-4.25-2.55c-1.48-2.17-3.29-2.86-5.66-3.68c-0.73-0.25-1.18-0.66-1.93-0.36c-2.52-1.47-5.05-2.94-7.57-4.41    c-1.69-1.02-3.39-2.23-4.37-4c-0.99-0.27-1.79-0.61-2.74-1.37c0,0-1.67,5.62-2.08,7.6c-0.28,1.39-1.36,2.7-2.22,3.78    c-1.08,1.35-2.78,3.13-4.57,3.3c-2.41,2-4.82,4.01-7.23,6.01c-2.12,3.66-4.24,7.32-6.36,10.98c-1.41,1.75-2.97,4.08-3.53,6.26    c-0.19,0.76-0.84,1.4-0.5,2.12c0.63,1.21,1.6,3.26,2.9,3.79c0.94,1.7,3.11,5.49,3.11,7.36c0.96,0.96,2.93,2.74,2.93,4.11    c0,1.4-1.92,2.26-2.36,3.54c0.85,1.13,1.7,2.27,2.55,3.4c1.99,1.18,3.75,2,3.75,4.52c-0.02,0.59-0.12,0.92,0.21,1.42    c-0.54,2.3-0.59,4.84-2.26,6.51c-1.23-0.38-2.45-0.76-3.68-1.13c-1.68-0.68-5.31-1.03-7.08-0.57c-1.01,0.27-3.59,1.26-3.96,2.26    c-2.98,0.22-3.1,0.74-4.88,2.92c-2.52,2.52-5.05,5.04-7.57,7.56c-3.94,3.56-7.88,7.13-11.82,10.69c-0.4,0.12-0.8,0.24-1.2,0.35    c-1.04,1.85-2.72,3.15-3.99,4.9c-2.16,2.05-4.32,4.09-6.49,6.14c-1.65,1.23-6.47,2.12-7.49,3.77c-2.29,4.09-1.08,9.52-2.82,14.02    c-1.25,3.22-3.21,5.86-4.97,8.82c-1.13,2.17-2.27,4.34-3.4,6.51c-1.25,1.78-2.17,3.51-2.55,5.66c-0.19,0.85-0.38,1.7-0.57,2.55    c-1.04,2.36-2.08,4.72-3.11,7.08c-0.1,0.84-0.62,1.27-0.33,1.99c0.83,2.11,2.14,3.16,3.84,4.65c0.63,0.56,1.01,1.41,1.87,1.57    c0.98,1.04,1.96,2.07,2.94,3.11c0.72,0.76,1.44,1.52,2.16,2.27c1.32,1.04,2.64,2.08,3.96,3.11c2.29,1.15,4.57,2.3,6.86,3.45    c0.69-0.1,1.3-0.01,2.22-0.14c3.18-0.2,6.35-0.4,9.53-0.59c0.85-0.23,3.63-0.18,4.33,0.4c3.66-0.89,6.59-0.4,10.19,0    c5.66-0.12,11.31-0.25,16.97-0.37c3.38,0.17,6.75,0.33,10.13,0.5c4.14-0.27,7.16-0.64,10.56-0.97c0.76-0.28,1.51-0.57,2.27-0.85    c3.05-2.12,5.29-5.09,8.21-7.36c2.85-2.21,7.41-0.61,9.91-3.11c2.64,0,5.29,0,7.93,0c1.44,0.55,2.87,1.11,4.31,1.66    c0.98,0.43,1.95,0.86,2.93,1.28c0.71,0.51,4.47,2.67,4.09,3.28c0.88-1.86,1.32-4.14,1.42-6.23c0-1.04,0-2.08,0-3.11    c0.32-1.48,0.64-2.97,0.96-4.45c-0.44-1.49,0.01-3.84,0.74-5.18c0.62-1.13,1.52-2.38,2.55-3.11c0.57-1.51,1.51-2.88,2.08-4.39    c0.57-0.57,4.15-3.49,4.72-4.15c2.83-1.42,6.98-3.59,8.49-5.9c2.37-2.19,3.75-3.73,5.66-6.23c0.96-2.29,1.91-4.58,2.87-6.87    c1.32-3.68,2.04-3.18,3.36-6.86c0.79-2.75,2.08-8.3,3.11-11.75c0.28-0.94,0.57-1.89,0.85-2.83c0-1.7,0-3.4,0-5.1    c-0.59,0.59,0-4.06,0-4.81c-0.25-0.76-0.51-1.53-0.76-2.29c-0.12-1.88-0.25-3.76-0.37-5.64c0.03-0.57,0.2-7.2,0.75-7.41    c-1.03-4.82,0.32-3.64,0.09-8.45c-0.09-0.94-0.09-3.35-0.28-3.82L287.27,248.91z"/>
            <circle cx="191.77" cy="315.78" r="1.586"/>
        </g>
        <g id="__Kozaklı">
            <path d="    M287.27,248.91c0.01-0.33,2.07-1.4,2.46-1.64c1.62-0.98,2.24-0.33,4.06-0.61c1.23,0.28,2.45,0.57,3.68,0.85    c2.55,1.13,5.1,2.27,7.64,3.4c4.34,1.04,3.68,1.37,8.02,2.41c1.11-0.16,5.69,0.73,6.79,0.57c0.68-0.31,2.9-0.96,3.59-1.27    c3.68,0.09,4.06,0.99,7.74,1.09c1.31-0.36,5.92-1.53,7.23-1.89c0.96-0.39,1.91-0.78,2.87-1.18c2.33-0.54,4.81-0.33,6.98-1.61    c2.49-1.16,4.97-2.32,7.46-3.49c2.74-0.75,5.47-1.51,8.21-2.26c6.41-1.9,2.74-0.71,9.53-2.41c2.83-1.7,10.94-1.07,11.33-1.13    l0.09-0.14c-0.4-1.39-0.8-2.79-1.19-4.18c-1.42-4.92-2.84-9.85-4.26-14.77c-3.04-9.07-6.08-18.14-9.12-27.21    c-1.04-0.66-1.43-2.83-1.73-4c-0.29-1.15-0.85-4.29-0.41-5.34c-1.5-5.84-2.26-12.02-2.26-18.03c-0.57-0.73-0.77-4.05-0.88-5.13    c-1.22-3.25-2.45-6.49-3.67-9.74c-2.29-3.24-4.58-6.48-6.87-9.72c-0.91-1.08-1.83-2.16-2.74-3.24c-2.02-2.99-4.16-6-6.8-8.49    c-0.57-0.47-1.13-0.94-1.7-1.42c-0.66-0.38-1.32-0.76-1.98-1.13c-0.57-0.57-1.13-1.13-1.7-1.7c-3.36-2.62-7.62-4.45-11.62-5.92    c-2.07-0.86-4.15-1.72-6.22-2.57c-2.59-0.67-4.94-1.6-7.61-2.13c-0.2,0.14-0.4,0.29-0.6,0.43c-2.37-0.65-4.67-0.46-7.08-0.85    c-7.88-1.27-15.62-3.98-23.22-6.23c-1.42-0.75-2.83-1.51-4.25-2.27c-1.42-0.66-2.83-1.32-4.25-1.98    c-2.26-0.94-4.53-1.89-6.79-2.83c-1.05-1.05-4.42-2.23-5.92-2.49c-0.5-0.56-2.1-2.42-2.86-2.04c-0.28-0.38-0.57-0.75-0.85-1.13    c-1.23-0.09-2.45-0.19-3.68-0.28c-1.41-0.55-2.83-1.09-4.24-1.64c-6.53-2.93-13.06-5.85-19.59-8.78c-3.2-1.19-5.98-3.06-9.48-1.8    c-0.65,0.23-0.75,0.06-1.27,0.58c-0.82,0.82-2.86,3.99-2.8,5.12c-2.45,5.38-4.91,10.76-7.36,16.14c-0.93,1.61-1.86,3.23-2.8,4.84    c-0.56,0.97-1.3,1.5-1.05,2.71c0.22,0.44,0.45,0.89,0.67,1.33c3.29,1.72,6.59,3.44,9.88,5.16c1.07,0.6,3.14,1.73,3.2,2.96    c0.81,0.05,1.53,0.34,2.26,0c4.83,2.6,9.66,5.21,14.49,7.81c2.6,1.48,5.2,2.96,7.8,4.44c0.43,0.32,2.05,1.27,2.05,1.62    c0.46,0.97,0.93,1.93,1.39,2.9c0.04,1.93,0.08,3.85,0.12,5.78c-1.16,1.92-2.33,3.84-3.49,5.76c-1.19,0.79-2.38,1.59-3.57,2.38    c-2.48,1.84-4.88,3.74-7.08,5.99c-3.21,3.28-5.88,6.88-8.89,10.32c-0.94,1.51-1.89,3.02-2.83,4.53c-2.45,3.1-3.43,7-4.33,10.74    c-0.21,1.25-0.42,2.5-0.64,3.75c0.99,0.27,1.99,0.53,2.98,0.8c0.98,1.77,2.68,2.98,4.37,4c2.52,1.47,5.05,2.94,7.57,4.41    c0.75-0.3,1.2,0.11,1.93,0.36c2.38,0.82,4.18,1.51,5.66,3.68c1.43,0.7,3.2,1.29,4.25,2.55c1.33,0.63,2.66,1.27,3.99,1.9    c4.23,1.82,6.63,2.92,10.17,6.03c0.47,0.38,0.94,0.76,1.42,1.13c0.54,0.73,2.24,5.24,1.98,5.95c1.06,3.6,1.8,8.79,1.17,12.47    c-0.29,1.66-0.07,4.51-1.45,5.65c0.05,1.69,0.69,3.82,0,5.38c0.34,2.43,0.89,6.35,2.45,8.35c0.49,0.63,1.27,0.71,2.08,0.71    c1.5,0.69,2.59,0.28,4.25,0.28c3.57,0,7.27-0.43,11.04-1.7C284.82,249.72,287.27,248.91,287.27,248.91z"/>
            <circle cx="311.25" cy="170.07" r="1.586"/>
        </g>
    </g>
</svg>