<?xml version="1.0" encoding="UTF-8"?>
<!DOCTYPE svg PUBLIC "-//W3C//DTD SVG 1.1//EN" "http://www.w3.org/Graphics/SVG/1.1/DTD/svg11.dtd">
<svg version="1.1" id="HaritaCizim" xmlns="http://www.w3.org/2000/svg" xmlns:xlink="http://www.w3.org/1999/xlink" x="0px" y="0px" viewBox="0 0 500 506" preserveAspectRatio="none">
    <defs id="__def">
        <radialGradient id="f">
            <stop offset="0" stop-color="white" stop-opacity="1"/>
            <stop id="STOP1" offset=".4" stop-opacity="1"/>
            <stop offset="1" stop-color="white" stop-opacity=".2"/>
        </radialGradient>
        <filter id="__flt1" x="0" y="0" width="200%" height="200%" filterUnits="objectBoundingBox">
            <feGaussianBlur in="SourceAlpha" stdDeviation="3" result="blur1"/>
            <feSpecularLighting result="specOut" in="blur1" specularConstant="1.5" specularExponent="20" lighting-color="#bbbbbb">
                <feDistantLight azimuth="45" elevation="30"/>
            </feSpecularLighting>
            <feComposite in="specOut" in2="SourceAlpha" operator="in" result="specOut"/>
            <feComposite in="SourceGraphic" in2="specOut" operator="arithmetic" k1="0" k2="1" k3="1" k4="0"/>
        </filter>
        <filter id="__flt2" x="0" y="0" width="200%" height="200%" filterUnits="objectBoundingBox">
            <feGaussianBlur in="SourceAlpha" stdDeviation="3" result="blur1"/>
            <feSpecularLighting result="specOut" in="blur1" specularExponent="20" lighting-color="#bbbbbb">
                <fePointLight x="-2000" y="100" z="2000"/>
            </feSpecularLighting>
            <feComposite in="specOut" in2="SourceAlpha" operator="in" result="specOut"/>
            <feComposite in="SourceGraphic" in2="specOut" operator="arithmetic" k1="0" k2="1" k3="1" k4="0"/>
        </filter>
        <filter id="__flt3" x0="-50%" y0="-50%" width="200%" height="200%" filterUnits="objectBoundingBox">
            <feGaussianBlur in="SourceAlpha" stdDeviation="3" result="blur"/>
            <feOffset in="blur" dx="0" dy="0" result="offsetBlur"/>
            <feSpecularLighting in="blur" surfaceScale="4" specularConstant=".5" specularExponent="20" lighting-color="flavor" result="specOut">
                <fePointLight x="-5000" y="-10000" z="5000"/>
            </feSpecularLighting>
            <feComposite in="specOut" in2="SourceAlpha" operator="in" result="specOut"/>
            <feComposite in="SourceGraphic" in2="specOut" operator="arithmetic" k1="0" k2="1" k3="1" k4="0" result="litPaint"/>
            <feMerge>
                <feMergeNode in="offsetBlur"/>
                <feMergeNode in="litPaint"/>
            </feMerge>
        </filter>
        <filter id="__flt4" x0="-50%" y0="-50%" width="200%" height="200%">
            <feGaussianBlur in="SourceAlpha" stdDeviation="2" result="blur"/>
            <feOffset dy="-1" dx="-1"/>
            <feComposite in2="SourceAlpha" operator="arithmetic" k2="-1" k3="1" result="hlDiff"/>
            <feFlood flood-color="white" flood-opacity=".7"/>
            <feComposite in2="hlDiff" operator="in"/>
            <feComposite in2="SourceGraphic" operator="over" result="withGlow"/>
            <feOffset in="blur" dy="3" dx="3"/>
            <feComposite in2="SourceAlpha" operator="arithmetic" k2="-1" k3="1" result="shadowDiff"/>
            <feFlood flood-color="black" flood-opacity="1"/>
            <feComposite in2="shadowDiff" operator="in"/>
            <feComposite in2="withGlow" operator="over"/>
        </filter>
        <filter id="__golge1" x="0" y="0" width="200%" height="200%" filterUnits="userSpaceOnUse">
            <feOffset result="offOut" in="SourceAlpha" dx="8" dy="8"/>
            <feGaussianBlur result="blurOut" in="offOut" stdDeviation="3"/>
            <feBlend in="SourceGraphic" in2="blurOut" mode="normal"/>
        </filter>
    </defs>
    <g id="__Komsular" display="none">
        <path fill-rule="evenodd" clip-rule="evenodd" fill="none" stroke="#000000" stroke-width="0.25" stroke-miterlimit="10" d="   M207.02,62.65c-1.66-2.37-2.67-5.68-4.1-8.25c-2.05-3.66-3.73-3.86-7.56-4.79c-2.83-0.69-6.02-1.63-8.14-4   c-2.46-2.74-2.55-6.44-2.55-10.01c0-3.46,1.26-5.34,2.35-8.29c1.08-2.91,2.07-5.83,3.24-8.69c2.19-5.35,2.16-13.47-1.12-18.37"/>
        <path fill-rule="evenodd" clip-rule="evenodd" fill="none" stroke="#000000" stroke-width="0.25" stroke-miterlimit="10" d="   M330.32,76.28c-1.74-1.45-1.16-7.69-1.7-10.01c-0.37-1.56-1.16-2.89-1.5-4.47c-0.36-1.72-0.12-3.54-0.21-5.32   c-0.08-1.62-0.76-3.51-0.43-5.11c0.4-1.95,2.02-2.22,3.57-3.24c2.9-1.91,5.72-2.54,8.57-4.16c2.81-1.6,6.82-2.38,10.01-3.18   c1.83-0.46,3.64-0.29,5.32-1.28c1.49-0.88,2.48-2.08,4-2.86c2.78-1.43,6.01-1.81,8.99-3.2c3.28-1.54,6.5-1.6,10.02-2.51   c3.03-0.78,5.91-1.06,9.15-1.53c2.74-0.4,5.34-1.81,8.09-2.28c5.42-0.94,10.16-2.02,11.85-7.91c-4.42,0.25-7.62-3.73-10.83-6.11   c-1.69-1.25-3.04-3.02-2.5-5.38c0.5-2.16,2.77-4.15,0.85-6.6"/>
        <path fill-rule="evenodd" clip-rule="evenodd" fill="none" stroke="#000000" stroke-width="0.25" stroke-miterlimit="10" d="   M386.32,341.4c3.57-0.49,7.35-0.29,10.86-0.8c3.72-0.54,7.22-0.65,10.86-1.38c2.28-0.45,4.56,0.02,6.77-0.8   c1.75-0.65,3.42-1.72,5.16-2.39c2.94-1.13,6.89-1.44,10.23-1.44c1.94,0,4.33,0.64,6.17,0.16c1.84-0.48,2.8-1.55,4.69-1.87   c3.64-0.61,6.6-0.9,10.01-2.14c2.71-0.98,6.05-2.96,8.93-3.41c3.43-0.54,7.03-0.16,10.4-0.68c2.88-0.44,5.86-0.77,8.78-1.23   c3.21-0.51,5.65-2.41,8.73-3.19c1.53-0.39,2.44-0.05,3.61-1.28c0.94-0.99,1.24-2.27,1.92-3.4c1.24-2.08,4.22-5.44,6.82-5.76"/>
        <path fill-rule="evenodd" clip-rule="evenodd" fill="none" stroke="#000000" stroke-width="0.25" stroke-miterlimit="10" d="   M290.92,427.01c1.75,2.82,0.29,7.01,1.27,10.22c1.03,3.4,2.52,6.21,2.14,10.01c-0.33,3.3-1.36,6.37-1.7,9.8   c-0.13,1.32-1,4.02-0.38,5.28c0.53,1.07,2.99,2.34,3.79,2.8c2.74,1.6,5.82,3.67,8.74,4.9c3.03,1.28,6.44,1.9,9.58,3.19   c6.42,2.66,13.82,1.16,20.18,3.89c2.85,1.22,5.14,3.09,7.75,4.79c1.57,1.03,3.42,1.88,4.64,3.24c1.64,1.83,1.02,2.6,0.69,4.74   c-0.54,3.4,0.52,6.67-0.04,10.17c-0.3,1.9-0.24,2.73-1.7,3.78c-1.34,0.96-3.26,1.02-4.26,2.39"/>
        <path fill-rule="evenodd" clip-rule="evenodd" fill="none" stroke="#000000" stroke-width="0.25" stroke-miterlimit="10" d="   M186.37,440.42c1.07,3.81-0.87,6.11-3.88,8.04c-2.5,1.61-5.07,3.31-7.79,4.79c-2.68,1.45-4.92,3.93-7.55,5.64   c-2.45,1.58-4.54,3.46-6.12,6.03c-1.67,2.74-1.96,6.27-3.82,8.73c-1.12,1.47-1.83,2.82-3.03,4.24c-0.66,0.78-1.78,1.64-2.09,2.57   c-0.28,0.84,0.08,1.91-0.2,2.78c-0.44,1.34-1.75,2.7-2.41,3.98c-0.71,1.38-1.21,2.4-2.23,3.68c-1.77,2.22-3.86,4.01-5.6,6.17   c-2.52,3.12-6.58,5.02-9.79,7.88"/>
        <path fill-rule="evenodd" clip-rule="evenodd" fill="none" stroke="#000000" stroke-width="0.25" stroke-miterlimit="10" d="   M83.51,186.8c-3.36,0.21-7.29,0-10.65,0.63c-1.89,0.35-2.95,1.78-4.74,0.7c-1.35-0.82-1.87-2.76-2.55-4.05   c-1.65-3.15-4.86-5.15-6.7-8.14c-1.57-2.54-2.48-5.25-4.26-7.71c-2-2.76-3.7-4.61-7.09-5.29c-3.4-0.67-7.11-0.42-10.65-0.42   c-3.18,0-7.49-0.7-10.45,0.2c-2.97,0.91-5.85,2.35-8.73,3.41c-3.17,1.16-6.15,3.91-8.94,5.76c-2.93,1.95-5.56,4.59-8.51,6.6"/>
        <text transform="matrix(0.6182 -0.7861 0.7861 0.6182 71.8408 115.5669)" font-family="'MyriadPro-Regular'" font-size="20.4429">AKSARAY</text>
        <text transform="matrix(1 0 0 1 234.9175 30.2852)" font-family="'MyriadPro-Regular'" font-size="20.4429">NEVŞEHİR</text>
        <text transform="matrix(0.1047 0.9945 -0.9945 0.1047 451.062 103.0415)" font-family="'MyriadPro-Regular'" font-size="20.4429">KAYSERİ</text>
        <text transform="matrix(1 0 0 1 356.2974 416.3584)" font-family="'MyriadPro-Regular'" font-size="20.4429">ADANA</text>
        <text transform="matrix(1 0 0 1 197.0132 476.8354)" font-family="'MyriadPro-Regular'" font-size="20.4429">MERSİN</text>
        <text transform="matrix(0.4022 0.9156 -0.9156 0.4022 31.4429 293.5063)" font-family="'MyriadPro-Regular'" font-size="20.4429">KONYA</text>
    </g>
    <g id="__Harita" display="none">
        <rect id="__cer" x="0" y="0" fill="#000000" opacity="0" width="500" height="506"/>
        <g id="__Niğde">
            <path d="    M433.36,203.08c-1.71,0.65-6-1.7-7.36-2.86c-1.46-0.58-2.92-1.17-4.38-1.75c-1.96-1.02-3.91-2.05-5.86-3.07    c-1.29-0.64-2.58-1.28-3.86-1.92c-0.75-0.14-1.5-0.27-2.25-0.41c-0.14-0.14-0.27-0.27-0.41-0.41c-0.27-0.07-0.55-0.15-0.82-0.22    c-0.82-0.2-1.63-0.4-2.45-0.59c-1.41,0-2.71,0.06-4.09,0.41c-0.48,0.2-0.95,0.41-1.43,0.61c-1.51,1.51-3.42,2.87-5.56,3.28    c-2.13,0.41-5.22,0.56-7.31-0.11c-1.6-0.51-4.03-0.96-5.7-0.42c-1.17,0.72-2.34,1.43-3.51,2.15c-0.79,0.63-3.45,3.73-3.27,4.7    c-1.16,1.37-1.87,2.85-2.86,4.29c-0.2,0.61-0.41,1.23-0.61,1.84c-0.61,1.09-1.23,2.18-1.84,3.27c-1.49,1.22-2.33,2.98-3.96,4.19    c-0.86,0.58-1.72,1.16-2.58,1.74c-0.82,0.27-1.64,0.54-2.45,0.82c-3.96-0.24-8.14,0.72-12.03,0.03c-2.2-0.47-4.4-0.93-6.59-1.4    c-0.95-0.09-1.9-0.18-2.84-0.27c-2.36-0.56-5.59-1.06-7.69,0.4c-0.64,0.48-1.28,0.96-1.92,1.44c-1.29,1.78-2.14,3.92-3.07,5.93    c-0.34,0.74-1.34,1.66-1.23,2.45c-0.95,0.68-1.91,1.36-2.86,2.04c-0.8,0.64-2.25,1.4-3.27,1.64c-0.91,0.6-1.82,1.19-2.73,1.79    c-1.34,0.2-2.17,0.84-3.27,1.53c-0.93,0.58-3.11,1.71-3.46,2.79c-1.39,4.25,0.25,7.63,1.88,11.5c0.82,1.83,1.64,3.67,2.47,5.5    c0,0-0.7,0.64-1.43,1.23c-3.41,0.27-6.81,0.55-10.22,0.82c-1.57-0.32-3.14-0.63-4.71-0.95c-2.34-0.26-4.6-0.18-6.94-0.69    c-0.95,0-1.91,0-2.86,0c-3.2-0.98-6.4-1.44-9.79-0.98c-4.94,0.67-9.77,1.8-14.73,2.32c-1.84,0.17-3.69,0.33-5.53,0.5    c-0.48-0.14-0.95-0.27-1.43-0.41c-0.75,0-1.5,0-2.25,0c-0.95-0.2-1.91-0.41-2.86-0.61c-0.68-0.14-1.36-0.27-2.04-0.41    c-0.48-0.32-0.96-0.65-1.44-0.97c-0.4-0.15-0.81-0.31-1.21-0.46c-2.85-1.71-5.18-3.4-6.82-6.31c-0.25-0.42-0.49-0.84-0.74-1.26    c-0.55-1.36-1.09-2.73-1.64-4.09c-0.2-0.95-0.41-1.91-0.61-2.86c-0.47-0.67-0.94-1.34-1.41-2.01c-0.62-1.24-1.24-2.47-1.87-3.71    c-1.72-2.63-3.59-5.04-5.03-7.86c-0.91-1.2-1.82-2.39-2.73-3.59c-0.54-0.54-1.09-1.09-1.64-1.64c-2.38-3.88-5.14-7.71-6.22-12.3    c-0.6-2.55-0.6-5.15-0.52-7.76c0.18-5.43-0.06-11.74-2.47-16.74l-0.01,0.05c0.01-0.77,1.38-1.98,2.05-2.86    c1.16-1.65,2.32-3.3,3.48-4.96c0.92-0.7,1.85-1.4,2.77-2.1c0.59-0.45,3.38-2.58,3.69-1.95c0.78,1.29,2.78,3.74,4.2,3.89    c1.26,0.09,2.48-0.06,3.62-0.48c0.55-0.26,1.11-0.53,1.66-0.79c1.11-1.07,2.22-2.15,3.33-3.22c0.45-0.39,0.78-0.94,1.37-1.07    c0.45-0.53,0.98-1.27,1.64-1.43c0.53-0.69,0.93-2.17,1.64-2.66c0.41-1.41,0.58-2.64,1.05-4.08c0.22-0.67,0.17-1.91,0.59-2.66    c-0.33-1.08-1.11-3.82-2.26-5.03c-0.41-1.78-0.83-3.48-1.25-5.18c-0.64-2.77-1.59-5.37-2.59-8.02c-0.49-1.15-0.98-2.3-1.47-3.44    c-0.2-1.29-0.41-2.59-0.61-3.88c0-0.54,0-1.09,0-1.64c0.61-1.45,2.06-4.14,0.79-5.57c-0.6-0.51-1-0.88-2.22-1.57    c-0.67-0.27-0.81-0.73-0.82-1.24c0.52-2.69,3.12-6.28,0.36-8.55c-0.34-0.28-0.13-0.44-0.65-0.65c-0.71-0.24-2.11-0.63-2.79-0.21    c-1.89-0.25-3.16,0.12-4.92,0.75c-0.75,0.3-1.49,0.59-2.24,0.89c-0.68,0.27-1.36,0.54-2.04,0.82c-0.89,0.57-1.84,1.7-2.45,2.04    c-0.85,0.39-2.32,0.19-2.66-0.61c-0.89-1.35-0.32-2.4-0.08-3.87c0.13-0.22,0.26-0.44,0.4-0.66c0.17-0.73,0.21-1.56,0.5-2.22    c-0.25-0.92-0.95-2.8-1.43-2.85c-3.16-1.43-6.52-2.34-9.81-3.28c-0.95-0.2-1.91-0.41-2.86-0.61c-1.77-0.2-3.54-0.41-5.32-0.61    c-1.09,0.07-1.26,0.21-2.25,0.41h-0.2c0.08-0.21-0.05-1.04,0.03-1.25c0.32-0.96,0.8-3.99,0.27-4.86    c-0.71-0.96-1.43-1.92-2.14-2.89c-1.27-0.83-2.54-1.67-3.81-2.5c-1.41-0.92-2.64-2.36-3.34-3.82c-0.71-1.47-0.99-2.58-0.57-4.24    c-0.06-0.13,0.22-1.16,0.16-1.29c1.25-1.66,2.64-2.06,4.86-2.06c1.36-0.98,1.54-0.96,2.5-1.41c0.59-0.18,1.92-0.7,2.66-1.02    c0.49-0.4,0.97-0.8,1.46-1.19c0.99-0.72,2.02-1.64,1.97-2.89c0-3.59-0.43-8.23,3.02-10.36c0.93-0.57,1.26-0.79,2.13-1.09    c0.16-0.07,0.77-0.22,0.82-0.41c0.07,0.06,0.54,0.55,0.61,0.61c0.61,0.49,0.82,0.54,1.43,1.02c0.95,1.23,1.91,2.45,2.86,3.68    c0.24,0.46,0.48,0.91,0.72,1.37c1.46,1.86,2.93,3.72,4.4,5.58c1.26,1.6,2.52,3.2,3.78,4.8c1.09,1.01,2.34,2.37,3.78,2.77    c0.28,0.19,1.09,0.7,1.43,0.82c0.23,0.1,1.55,0.73,1.64,0.82c1.2,0.58,1.86,0.82,3.07,1.43c4.08,2.07,8.34,1.9,12.87,1.83    c2.59,0.06,5.17,0.13,7.76,0.19c2.84-0.28,5.89-1.08,8.55-2.15c0.78-0.31,2.22-0.63,2.71-1.3c5.37-1.06,10.75-2.12,16.12-3.17    c1.84-0.28,3.68-0.57,5.53-0.85c3.02-0.44,5.27-0.91,8.2-1.29c0.94-0.12,2.29-0.12,2.86-0.2c-0.36-0.24,0.93,0,1.23-0.41    c0.48-0.45,1.15-0.16,1.63-0.61c2.32,0.08,4.74-0.34,7.14-0.7c0.89-0.11,1.78-0.21,2.68-0.32c1.36-0.27,2.73-0.54,4.09-0.82    c3.61-0.07,7.22-0.14,10.83-0.2c1.7,0.12,3.41,0.23,5.11,0.35c0.72,0.16,1.69,0.72,2.25,0.26c1.16,1.02,2.32,2.04,3.48,3.07    c0.54,0.2,1.09,0.41,1.64,0.61c0.5,0.32,0.8,0.9,1.43,0.82c1.83,3.62,4.11,2.98,5.52,5.52c1.24,1.8,2.48,3.6,3.72,5.4    c0.31,0.59,0.62,1.18,0.93,1.77c1.72,2.39,2.59,3.93,3.52,6.73c-0.26,1.19,0.44,2.98,1.23,3.68c0.71,0.71,2.47,2.72,2.66,3.68    c1.12,1.19,3.54,4.59,3.88,6.13c0.62,2.8,1.51,5.53,2.04,8.38c0.25,2.95,0.49,5.89,0.73,8.84c0.16,0.05,0.53,1.13,0.7,1.18    c0.75,1.7,1.29,2.39,2.04,4.09c0.39,0.67,0.78,1.34,1.17,2.01c0.81,2.04,1.83,3.63,3.12,5.35c0.61,0.82,1.23,1.64,1.84,2.45    c1.59,1.4,3.35,2.38,5.11,3.48c1.77,0.75,3.54,1.5,5.31,2.25c3.4,0.41,6.8,0.81,10.2,1.22c1.37,0.05,2.73,0.1,4.1,0.15    c0.58,0.15,1.79,0.15,2.47,0.26c1.74,0.22,1.79,0.02,3.47-0.01c5.84-0.09,11.73-0.02,17.58,0.26c1.81,0.08,3.54,0.37,5.27,0.88    c0.71,0.21,1.82,0.95,2.5,0.71c1.09,0.89,2.18,1.77,3.27,2.66c0.43,0.58,0.78,2.04,1.43,2.25c0.27,3.68,0.55,7.36,0.82,11.04    c0.34,3.41,0.68,6.81,1.02,10.22c0.05,1.62,0.09,3.25,0.14,4.87c0.57,3.16,0.34,6.66,0.24,9.86    C433.21,198.86,433.28,200.36,433.36,203.08z"/>
            <circle cx="262.18" cy="222.79" r="1.586"/>
        </g>
        <g id="__Çiftlik">
            <path d="    M141.03,164.65c-0.06,0.31-0.32,0.77-0.41,1.02c-0.17,0.23-0.64,1.63-0.82,2.45c0.08,0.86,0.43,1.09,0.82,1.23    c0.4,0.49,0.69,0.05,1.02,0c1.39-0.77,3.31-1.24,4.7-0.41c2.94-0.44,5.99-0.45,9-0.2c1.02-0.03,2.04-0.06,3.07-0.09    c0.82,0.13,1.64,0.26,2.47,0.4c0.47,0.1,0.95,0.2,1.42,0.31c2.82,0,5.61,0.02,8.39,0.29c0.88,0.04,1.76,0.08,2.64,0.12    c2.23-0.42,4.5-0.14,6.75-0.03c1.84,0.02,3.67,0.04,5.51,0.06c0.62,0.05,2.13,0.04,2.47,0.58c1.02-0.06,1.87,0.05,2.86,0.2    c0.82,0,1.63-0.01,2.45-0.01c1.77,0.21,3.55,0.42,5.32,0.63c2.37,0.24,4.61,0.61,6.89,1.5c1.28,0.5,3.08,1.82,4.15,2.76    c1.08,1.19,2.17,2.34,3.27,3.5c0.36,0.97,0.71,1.93,1.07,2.9c0.42,0.56,0.58,0.84,0.97,1.44c0.01-0.77,1.38-1.98,2.05-2.86    c1.16-1.65,2.32-3.3,3.48-4.96c0.92-0.7,1.85-1.4,2.77-2.1c0.59-0.45,3.38-2.58,3.69-1.95c0.78,1.29,2.78,3.74,4.2,3.89    c1.26,0.09,2.48-0.06,3.62-0.48c0.55-0.26,1.11-0.53,1.66-0.79c1.11-1.07,2.22-2.15,3.33-3.22c0.45-0.39,0.78-0.94,1.37-1.07    c0.45-0.53,0.98-1.27,1.64-1.43c0.53-0.69,0.93-2.17,1.64-2.66c0.41-1.41,0.58-2.64,1.05-4.08c0.22-0.67,0.17-1.91,0.59-2.66    c-0.33-1.08-1.11-3.82-2.26-5.03c-0.41-1.78-0.83-3.48-1.25-5.18c-0.64-2.77-1.59-5.37-2.59-8.02c-0.49-1.15-0.98-2.3-1.47-3.44    c-0.2-1.29-0.41-2.59-0.61-3.88c0-0.54,0-1.09,0-1.64c0.61-1.45,2.06-4.14,0.79-5.57c-0.6-0.51-1-0.88-2.22-1.57    c-0.67-0.27-0.81-0.73-0.82-1.24c0.52-2.69,3.12-6.28,0.36-8.55c-0.34-0.28-0.13-0.44-0.65-0.65c-0.71-0.24-2.11-0.63-2.79-0.21    c-1.89-0.25-3.16,0.12-4.92,0.75c-0.75,0.3-1.49,0.59-2.24,0.89c-0.68,0.27-1.36,0.54-2.04,0.82c-0.89,0.57-1.84,1.7-2.45,2.04    c-0.85,0.39-2.32,0.19-2.66-0.61c-0.89-1.35-0.32-2.4-0.08-3.87c0.13-0.22,0.26-0.44,0.4-0.66c0.17-0.73,0.21-1.56,0.5-2.22    c-0.25-0.92-0.95-2.8-1.43-2.85c-3.16-1.43-6.52-2.34-9.81-3.28c-0.95-0.2-1.91-0.41-2.86-0.61c-1.77-0.2-3.54-0.41-5.32-0.61    c-1.09,0.07-1.26,0.21-2.25,0.41c-0.58,1.73-1.27,3.2-1.94,5.12c-0.38,1.49-0.75,2.99-1.13,4.48c-0.11,1.05-0.2,2.11-1.02,2.86    c-0.52,0.49-0.9,0.97-1.9,1.5c-1.79,1.37-3.2-0.25-5.46,0.34c-0.79,0.21-3.39,2.2-4.09,2.86c-1.05,0.64-1.88,1.41-2.71,2.04    c-3.53,1.98-6.81,4.65-9.97,7.16c-2.43,1.58-4.86,3.15-7.28,4.73c-0.64,0.47-1.28,0.94-1.92,1.41c-1.2,1.35-2.01,2.93-2.86,4.5    c-2.73,5.52-5.45,11.04-8.18,16.56c-0.72,1.1-2.73,2.92-3.88,3.48c-0.73,0.65-1.46,1.29-2.19,1.94c-0.77,0.38-1.13,0.55-1.9,0.93    C141.03,164.1,141.03,164.58,141.03,164.65z"/>
            <circle cx="204.25" cy="143.15" r="1.586"/>
        </g>
        <g id="__Altunhisar">
            <path d="    M214.21,184.27c-0.67,1.09-0.97,1.77-1.64,2.86c-1.51,2.38-2.99,4.77-4.5,7.15c-1.32,1.62-2.84,3.03-4.16,4.65    c-0.11,0.15-0.63,0.51-0.75,0.66c-0.4-0.45-0.84-1.19-1.23-1.84c-0.92,0.41-2.62-0.62-3.48-1.02c-0.89-0.14-1.77-0.27-2.66-0.41    c-1.02,0.34-2.04,0.68-3.07,1.02c-0.43-0.15-0.84,0.16-1.26,0.32c-1.22,0.45-2.62,0.73-3.64,1.52c-1.58,1.22-2.59,2.8-3.6,4.43    c-0.38,0.62-1.1,1.33-1.11,2.06c-0.34,0.77-0.68,1.53-1.02,2.3c-0.07,1.98-0.14,3.95-0.2,5.93c-0.41,1.7-0.82,3.41-1.23,5.11    c-1.22,1.26-1.9,3.49-2.45,5.11c-0.34,1.23-0.68,2.45-1.02,3.68c0.1,3.33,0.19,6.67,0.29,10c-0.1,1.03-1.2,1.51-2.13,1.65    c-3-1.03-4.71-4.32-6.34-6.75c-1.04-1.55-2.28-2.55-3.88-3.48c-0.96-0.07-2.31-4.11-4.09-3.48c-0.13,0.05-4.3-2.18-7.93-1.1    c-0.97,0.23-1.94,0.46-2.91,0.69c-0.9-0.12-1.8-0.23-2.7-0.35c-1.21-0.22-2.42-0.45-3.63-0.67c-0.82-0.27-1.63-0.54-2.45-0.81    c-0.97-0.27-1.66,0-2.26,0.81c-0.64,0.92-0.04,2.67,0.21,3.67c0.59,2.34,1.55,4.72,1.48,7.15c-0.07,1.08-1.05,1.79-2,2.22    c-0.13-0.07-0.25-0.13-0.38-0.2c-0.47,0.03-0.95,0.06-1.42,0.1c-0.59-0.16-1.18-0.31-1.78-0.47c-0.75-0.07-1.5-0.14-2.25-0.2    c-0.82-0.55-1.64-1.09-2.45-1.64c-1.92-1.61-4.05-2.79-5.52-4.91c-2.72-3.92-4.78-8.25-8.18-11.65c-2.09-0.53-4.66-0.9-6.75-1.43    c-2.35-1.22-3.58-3.57-5.6-5.22c-1.54-1.05-3.08-2.11-4.62-3.16c-0.52-0.43-1.31-1.02-2.04-1.02c0-0.46-0.97-1.01-1.34-1.28    c-1.57-1.17-3.28-2.07-5.07-2.88c-1.05-0.75-2.12-1.46-3.41-1.15c-1.23,0-2.45,0-3.68,0c-1.43-0.34-2.86-0.68-4.29-1.02    c-0.21-0.63-1.96-1.41-2.66-1.84l0.1-0.14c0.87-1.13,1.89-2.14,3.04-2.98c0.93-1.21,1.86-2.42,2.79-3.62    c0.87-2.57-0.09-4.52,0.41-5.72c0.69-0.4,2-1.41,2.7-1.81c0.92-0.42,1.85-0.83,2.77-1.25c0.84-0.67,1.68-1.34,2.52-2.01    c0.54-0.38,1.53-0.7,1.83-1.27c1.33-0.44,2.69-0.6,3.92-1.3c2.56-1.46,5.46-4.4,7.53-6.46c0.82-0.56,1.64-1.12,2.47-1.69    c0.88-1.13,2.56-1.48,3.87-1.99c3.48-1.36,7.65-2.87,11.45-1.84c1.57,0,3.13,0,4.7,0c3.36-0.78,6.81-0.84,9.83-2.55    c1.17-0.66,3.29-0.99,3.46-0.72h0.21c0,0.07,0,0.55,0,0.61c-0.06,0.31-0.32,0.77-0.41,1.02c-0.17,0.23-0.64,1.63-0.82,2.45    c0.08,0.86,0.43,1.09,0.82,1.23c0.4,0.49,0.69,0.05,1.02,0c1.39-0.77,3.31-1.24,4.7-0.41c2.94-0.44,5.99-0.45,9-0.2    c1.02-0.03,2.04-0.06,3.07-0.09c0.82,0.13,1.64,0.26,2.47,0.4c0.47,0.1,0.95,0.2,1.42,0.31c2.82,0,5.61,0.02,8.39,0.29    c0.88,0.04,1.76,0.08,2.64,0.12c2.23-0.42,4.5-0.14,6.75-0.03c1.84,0.02,3.67,0.04,5.51,0.06c0.62,0.05,2.13,0.04,2.47,0.58    c1.02-0.06,1.87,0.05,2.86,0.2c0.82,0,1.63-0.01,2.45-0.01c1.77,0.21,3.55,0.42,5.32,0.63c2.37,0.24,4.61,0.61,6.89,1.5    c1.28,0.5,3.08,1.82,4.15,2.76c1.08,1.19,2.17,2.34,3.27,3.5c0.36,0.97,0.71,1.93,1.07,2.9c0.42,0.56,0.58,0.84,0.97,1.44    L214.21,184.27z"/>
            <circle cx="167.63" cy="209.16" r="1.586"/>
        </g>
        <g id="__Bor">
            <path d="    M314.18,253.98c0.68,0.68,1.36,1.36,2.04,2.04c0.75,1.16,1.5,1.7,2.25,2.86c0.09,0.35,0.18,1.32,0.27,1.67    c0.38,0.74,0.93,2.47,0.56,3.21c-1.06,2.3-2.4,4.66-2.84,7.19c-0.49,2.77,0.17,5.77,0.8,8.43c0.27,1.28,0.54,2.56,0.8,3.83    c-0.34,2.53,0.04,5.02-0.22,7.53c-0.17,1.72-1.04,3.11-1.42,4.73c0,0.48,0,0.95,0,1.43c1.63,2.94,3.26,5.87,4.89,8.81    c0.78,1.89,1.57,3.76,1.65,6.73c-1.85,3.61-3.7,7.22-5.55,10.83c-0.6,1.09-0.8,2.18-1.41,3.28l0.07,0.03    c-2.04-1.15-4.36-1.32-6.84-1.48c-2.31,0.01-4.62,0.01-6.93,0.02c-1.64,0.51-3.28,1.03-4.91,1.54c-1.9,0.17-3.81,0.34-5.71,0.51    c-0.61-0.09-1.23-0.18-1.84-0.27c-1.91,0.09-3.82,0.17-5.73,0.26c-1.09,0.41-2.18,0.82-3.27,1.23c-2.31,0.54-4.62,1.09-6.93,1.64    c-2.89,0.96-5.77,1.91-8.66,2.87c-1.01,0.15-2.01,0.3-3.02,0.45c-0.54,0-1.08,0-1.62-0.01c-0.62,0.19-1.23,0.38-1.85,0.58    c-2.54,0.63-5.36,0.89-7.97,0.82c-1.46-0.04-4.03-1.86-5.31-1.43c-1.34-0.32-2.2-2.25-3.27-3.27c-0.74-1.03-1.49-2.07-2.23-3.1    c-0.27-0.43-0.54-1.04-1.04-1.19c-0.55-0.89-1.5-1.57-2.04-2.45c-0.89-0.54-1.36-1.29-2.25-1.84c-0.61-0.48-1.23-0.95-1.84-1.43    c-2.19-1-3.94-2.07-6.13-3.07c-1.01-0.23-2.08-0.61-3.48-0.61c-3.51,0-6.92,0.37-10.43-0.2c-1.62-0.81-3.25-1.62-4.87-2.43    c-0.36-1.32-1.87-1.76-3.14-2.38c-1.57-1.06-3.34-1.15-6.09-1.18c-3.42-0.04-6.47-0.7-9.81,0.07c-0.95,0.45-1.71,1.39-2.66,1.84    c-0.51,0.15-1.76-0.05-2.04,0.41c-1.43-0.42-2.86-0.84-4.29-1.26c-2.33-1.14-3.07-0.72-5.51,0.5c-0.34,0.17-1.69,0.51-1.64,0.92    l-0.22,0.04c-0.17-0.17-1.02-2.07-1.02-1.64c-0.41-0.89-0.82-1.16-1.23-2.04c-0.41-0.68-0.82-1.36-1.23-2.04    c-1.7-2.52-3.41-5.04-5.11-7.56c-3.61-5.04-7.22-10.09-10.83-15.13c-1.43-2.11-2.85-4.23-4.28-6.34    c-2.92-4.21-6.41-7.99-9.85-11.84c-0.79-0.89-2.64-3.24-3.45-3.7c-0.64-0.66-1.07-1.15-1.64-1.64c0-0.61-0.93-0.82-1.43-1.43    c-1.95-2.21-4.49-4.51-6.95-6.13c-1.79-1.18-3.88-0.6-5.9-1.15c-4.17-1.39-8.33-2.78-12.5-4.17c-1.91-1.39-3.06-3.12-4.48-4.97    c-0.55-0.8-1.1-1.59-1.65-2.39c-0.74-0.82-1.49-1.65-2.23-2.47c-0.69-0.81-1.38-1.62-2.06-2.43c-1.24-0.78-2.49-1.56-3.73-2.34    c-1.29-0.76-2.15-1.58-3.63-1.95c-0.85-0.86-2.97-1.58-4.51-2.44c-0.61-0.28-1.22-0.55-1.83-0.83c-3.27-1.7-6.54-3.41-9.81-5.11    c-3.31-1.91-7.09-4.24-9.4-7.36c-0.68-1.44-1.35-2.88-2.03-4.33c-0.63-1.57-0.83-2.75-0.63-4.46c0.03-0.67,0.06-1.34,0.09-2.01    c0.99-1.59,2.67-1.87,4.41-2.24c2.52-0.7,5.04-1.4,7.56-2.1c0.61-0.18,1.81-0.4,2.25-0.61c0.65-0.05,1.96-0.49,2.04-0.41    c0.7,0.43,2.45,1.21,2.66,1.84c1.43,0.34,2.86,0.68,4.29,1.02c1.23,0,2.45,0,3.68,0c1.29-0.3,2.36,0.4,3.41,1.15    c1.78,0.81,3.49,1.71,5.07,2.88c0.37,0.27,1.34,0.82,1.34,1.28c0.73,0,1.52,0.59,2.04,1.02c1.54,1.05,3.08,2.11,4.62,3.16    c2.03,1.65,3.25,4,5.6,5.22c2.09,0.53,4.66,0.9,6.75,1.43c3.4,3.4,5.45,7.73,8.18,11.65c1.47,2.11,3.6,3.3,5.52,4.91    c0.82,0.54,1.64,1.09,2.45,1.64c0.75,0.07,1.5,0.14,2.25,0.2c0.59,0.16,1.18,0.31,1.78,0.47c0.47-0.03,0.95-0.06,1.42-0.1    c0.13,0.07,0.25,0.13,0.38,0.2c0.95-0.43,1.93-1.14,2-2.22c0.08-2.43-0.89-4.81-1.48-7.15c-0.25-1-0.85-2.75-0.21-3.67    c0.6-0.81,1.28-1.08,2.26-0.81c0.82,0.27,1.63,0.54,2.45,0.81c1.21,0.22,2.42,0.45,3.63,0.67c0.9,0.12,1.8,0.23,2.7,0.35    c0.97-0.23,1.94-0.46,2.91-0.69c3.63-1.08,7.8,1.14,7.93,1.1c1.78-0.63,3.13,3.41,4.09,3.48c1.6,0.93,2.85,1.93,3.88,3.48    c1.63,2.43,3.34,5.71,6.34,6.75c0.93-0.14,2.03-0.61,2.13-1.65c-0.1-3.33-0.19-6.67-0.29-10c0.34-1.23,0.68-2.45,1.02-3.68    c0.55-1.62,1.23-3.85,2.45-5.11c0.41-1.7,0.82-3.41,1.23-5.11c0.07-1.98,0.14-3.95,0.2-5.93c0.34-0.77,0.68-1.53,1.02-2.3    c0.01-0.73,0.73-1.44,1.11-2.06c1-1.63,2.02-3.2,3.6-4.43c1.02-0.79,2.42-1.07,3.64-1.52c0.42-0.16,0.83-0.47,1.26-0.32    c1.02-0.34,2.04-0.68,3.07-1.02c0.89,0.14,1.77,0.27,2.66,0.41c0.85,0.4,2.56,1.44,3.48,1.02c0.38,0.65,0.82,1.39,1.23,1.84    c0.11-0.15,0.63-0.51,0.75-0.66c1.32-1.62,2.84-3.03,4.16-4.65c1.51-2.38,2.99-4.77,4.5-7.15c0.67-1.09,0.97-1.77,1.64-2.86    c0.25-0.18,0.7-1.28,0.82-1.02c2.41,5,2.65,11.31,2.47,16.74c-0.09,2.6-0.08,5.21,0.52,7.76c1.08,4.59,3.84,8.41,6.22,12.3    c0.54,0.54,1.09,1.09,1.64,1.64c0.91,1.2,1.82,2.39,2.73,3.59c1.45,2.82,3.32,5.23,5.03,7.86c0.62,1.24,1.24,2.47,1.87,3.71    c0.47,0.67,0.94,1.34,1.41,2.01c0.2,0.95,0.41,1.91,0.61,2.86c0.55,1.36,1.09,2.73,1.64,4.09c0.25,0.42,0.49,0.84,0.74,1.26    c1.64,2.91,3.98,4.6,6.82,6.31c0.4,0.15,0.81,0.31,1.21,0.46c0.48,0.32,0.96,0.65,1.44,0.97c0.68,0.14,1.36,0.27,2.04,0.41    c0.95,0.2,1.91,0.41,2.86,0.61c0.75,0,1.5,0,2.25,0c0.48,0.14,0.95,0.27,1.43,0.41c1.84-0.17,3.69-0.33,5.53-0.5    c4.96-0.52,9.79-1.65,14.73-2.32c3.39-0.46,6.59-0.01,9.79,0.98c0.95,0,1.91,0,2.86,0c2.34,0.51,4.59,0.43,6.94,0.69    c1.57,0.31,3.14,0.63,4.71,0.95c3.41-0.27,6.81-0.55,10.22-0.82c0.73-0.59,1.66-1.63,2.45-0.82L314.18,253.98z"/>
            <circle cx="224.27" cy="253.88" r="1.586"/>
        </g>
        <g id="__Ulukışla">
            <path d="    M321.54,333.71c-0.56-1.08-1.48-2.6-2.04-3.68c-0.49-0.54-0.97-1.08-1.46-1.94c-0.62-0.64-1.27-1.13-1.95-1.51    c-2.04-1.15-4.36-1.32-6.84-1.48c-2.31,0.01-4.62,0.01-6.93,0.02c-1.64,0.51-3.28,1.03-4.91,1.54c-1.9,0.17-3.81,0.34-5.71,0.51    c-0.61-0.09-1.23-0.18-1.84-0.27c-1.91,0.09-3.82,0.17-5.73,0.26c-1.09,0.41-2.18,0.82-3.27,1.23c-2.31,0.54-4.62,1.09-6.93,1.64    c-2.89,0.96-5.77,1.91-8.66,2.87c-1.01,0.15-2.01,0.3-3.02,0.45c-0.54,0-1.08,0-1.62-0.01c-0.62,0.19-1.23,0.38-1.85,0.58    c-2.54,0.63-5.36,0.89-7.97,0.82c-1.46-0.04-4.03-1.86-5.31-1.43c-1.34-0.32-2.2-2.25-3.27-3.27c-0.74-1.03-1.49-2.07-2.23-3.1    c-0.27-0.43-0.54-1.04-1.04-1.19c-0.55-0.89-1.5-1.57-2.04-2.45c-0.89-0.54-1.36-1.29-2.25-1.84c-0.61-0.48-1.23-0.95-1.84-1.43    c-2.19-1-3.94-2.07-6.13-3.07c-1.01-0.23-2.08-0.61-3.48-0.61c-3.51,0-6.92,0.37-10.43-0.2c-1.62-0.81-3.25-1.62-4.87-2.43    c-0.36-1.32-1.87-1.76-3.14-2.38c-1.57-1.06-3.34-1.15-6.09-1.18c-3.42-0.04-6.47-0.7-9.81,0.07c-0.95,0.45-1.71,1.39-2.66,1.84    c-0.51,0.15-1.76-0.05-2.04,0.41c-1.43-0.42-2.86-0.84-4.29-1.26c-2.33-1.14-3.07-0.72-5.51,0.5c-0.34,0.17-1.69,0.51-1.64,0.92    c0.23,1.45,0.81,2.56,1.62,3.93c0.48,1.09,0.95,2.18,1.48,3.17c1.6,3.44,3.26,6.66,1.18,10.94c-1.57,2.04-3.13,4.09-4.7,6.13    c-1.46,1.88-2.92,3.76-4.38,5.63c-0.46,0.78-1.57,1.6-1.75,2.13c-0.58-0.26-0.99,2.4-2.04,2.25c-0.57,1-1.58,1.84-2.45,2.66    c-0.39,0.5-1.7,1.29-2.09,1.79c-0.39,1.12-2.95,3.15-3.84,4.34c-2.22,2.98-7.2,5.63-6.87,9.79c0.01,0.39,0.03,0.77,0.04,1.16    c2.75,5.5,7.85,9.45,10.95,14.79c1.16,2,2.66,4.33,2.21,6.77c-0.26,1.43-1.17,2.83-1.84,4.09c-0.41,0.61-0.82,1.23-1.23,1.84    c-1.49,0.93-3.4,1.9-4.26,3.41c-0.21,0.29-0.43,0.57-0.64,0.86c-0.07,0.62-0.14,1.24-0.21,1.87c0.07,0.54,0.14,1.09,0.2,1.64    c0.58,1.23,1.23,2.34,2.13,3.37c0.45,0.51,0.9,1.02,1.35,1.53c1.27,0.94,2.7,1.28,4.12,1.89c1.42,0.61,2.56,1.52,3.79,2.48    c0.63,0.59,1.27,0.77,1.9,1.35c1.12,0.38,2.49,1.59,3.51,2.19c1.54,1.07,3.07,2.13,4.61,3.2c1.59,1.61,3.17,3.22,4.76,4.83    c0.69,1.15,1.38,2.29,2.08,3.44c0.75,1.26,1.5,2.53,2.25,3.79c0.85,2.15,1.21,4.29,1.81,6.47c0.34,1.26,0.32,3.45,0.2,4.09    c0.32-0.91,0.98-1.35,1.02-1.43c0.06-0.17,0.83-1.34,1.73-2.08c1.99-1.64,3.99-3,6.24-4.25c0.89-0.24,1.78-0.49,2.67-0.73    c3.47-0.65,6.95-0.25,10.41-0.58c4.07-0.39,8.17-0.77,12.27-0.53c1.57-0.27,3.13-0.54,4.7-0.82c2.04-0.05,4.07-0.11,6.11-0.16    c3.03-0.78,6.06-1.56,9.09-2.34c4.17-1.17,8.13-2.75,12.39-3.65c0.93-0.2,4.66-0.68,5.12-1.2c5.84,0.36,11.69,0.71,17.53,1.07    c1.99,0.21,3.98,0.41,5.97,0.62c0.82,0.26,1.64,0.51,2.47,0.77c1.45,1.04,2.1,1.63,3.88,1.87c0.8,0.03,1.59,0.05,2.39,0.08    c1.25-0.9,2.27-2.21,3.14-3.58c1.09-1.36,2.18-2.73,3.27-4.09c0.3-0.3,0.61-0.61,0.91-0.91c1.18-1.22,2.24-1.92,3.58-2.97    c1.93-1.5,5.26-1.22,7.56-1.48c0.52-0.06,2.49,0.06,2.45-0.56c-0.15-5.06-0.95-10.06-1.03-15.13c-0.13-2.11-0.26-4.23-0.39-6.34    c0.68-4.02,1.36-8.04,2.04-12.06c0.17-4.63,0.34-9.26,0.5-13.9c0.05-1.77,0.1-3.54,0.15-5.32c0.14-4.25,0.01-8.84,1.87-12.78    c-0.24-1.06-0.07-2.34,0.48-3.28c0.31,0.07,2.12-3.39,2.31-3.87c0.88-1.51,1.58-2.89,2.46-4.4    C320.19,335.85,321.82,334.19,321.54,333.71z"/>
            <circle cx="202.55" cy="380.58" r="1.586"/>
        </g>
        <g id="__Çamardı">
            <path d="    M321.54,333.71c-0.56-1.08-1.48-2.6-2.04-3.68c-0.49-0.54-0.97-1.08-1.46-1.94c-0.62-0.64-1.27-1.13-1.95-1.51l-0.07-0.03    c0.6-1.09,0.8-2.18,1.41-3.28c1.85-3.61,3.7-7.22,5.55-10.83c-0.09-2.97-0.88-4.83-1.65-6.73c-1.63-2.94-3.26-5.87-4.89-8.81    c0-0.48,0-0.95,0-1.43c0.38-1.63,1.24-3.01,1.42-4.73c0.25-2.51-0.12-5.01,0.22-7.53c-0.27-1.28-0.54-2.56-0.8-3.83    c-0.63-2.65-1.29-5.66-0.8-8.43c0.45-2.52,1.78-4.89,2.84-7.19c0.37-0.75-0.18-2.47-0.56-3.21c-0.09-0.35-0.18-1.32-0.27-1.67    c-0.75-1.16-1.5-1.7-2.25-2.86c-0.68-0.68-1.36-1.36-2.04-2.04c-0.82-1.83-1.64-3.67-2.47-5.5c-1.63-3.87-3.27-7.25-1.88-11.5    c0.35-1.08,2.53-2.2,3.46-2.79c1.1-0.69,1.93-1.32,3.27-1.53c0.91-0.6,1.82-1.19,2.73-1.79c1.02-0.24,2.47-1,3.27-1.64    c0.95-0.68,1.91-1.36,2.86-2.04c-0.12-0.79,0.88-1.71,1.23-2.45c0.93-2.01,1.77-4.15,3.07-5.93c0.64-0.48,1.28-0.96,1.92-1.44    c2.1-1.45,5.33-0.96,7.69-0.4c0.95,0.09,1.9,0.18,2.84,0.27c2.2,0.47,4.4,0.93,6.59,1.4c3.89,0.69,8.07-0.27,12.03-0.03    c0.82-0.27,1.64-0.54,2.45-0.82c0.86-0.58,1.72-1.16,2.58-1.74c1.63-1.21,2.47-2.97,3.96-4.19c0.61-1.09,1.23-2.18,1.84-3.27    c0.2-0.61,0.41-1.23,0.61-1.84c0.99-1.45,1.7-2.93,2.86-4.29c-0.18-0.97,2.48-4.07,3.27-4.7c1.17-0.72,2.34-1.43,3.51-2.15    c1.67-0.55,4.1-0.1,5.7,0.42c2.08,0.67,5.18,0.52,7.31,0.11c2.14-0.41,4.05-1.77,5.56-3.28c0.48-0.2,0.95-0.41,1.43-0.61    c1.38-0.35,2.67-0.41,4.09-0.41c0.82,0.2,1.63,0.4,2.45,0.59c0.27,0.07,0.55,0.15,0.82,0.22c0.14,0.14,0.27,0.27,0.41,0.41    c0.75,0.14,1.5,0.27,2.25,0.41c1.29,0.64,2.58,1.28,3.86,1.92c1.96,1.02,3.91,2.05,5.86,3.07c1.46,0.58,2.92,1.17,4.38,1.75    c1.36,1.16,5.65,3.51,7.36,2.86c0.28,0,0.04,2.04,0.03,2.45c-0.07,2.32-0.38,4.59-0.14,6.93c0.17,3.14,0.35,6.29,0.52,9.43    c0,2.18,0,4.36,0,6.54c0.2,0.89,0.41,1.77,0.61,2.66c0.29,3.55-0.24,7.37-1.09,10.81c-1.34,6.34-2.68,12.69-4.02,19.03    c-0.75,2.45-1.5,4.91-2.25,7.36c-0.89,3.48-1.78,6.96-2.68,10.44c-1.56,5.99-3.12,11.99-4.68,17.98c-1.55,2.13-3.09,4.26-4.64,6.4    c-2.47,3.25-4.95,6.5-7.42,9.76c-0.42,0.51-1.78,2.46-2.25,3.07c-0.17,0.38-0.85,0.85-1.02,1.23c-0.17,0.51-0.65,0.92-0.82,1.43    c-0.47,0.53-0.93,1.06-1.4,1.59c-0.31,0.41-0.63,0.82-0.94,1.23c-0.46,0.69-0.92,1.38-1.38,2.08c-3.08,4.03-6.15,8.05-9.23,12.08    c-0.31,0.48-0.63,0.95-0.95,1.43c-1.11,1.57-2.16,3.23-3.64,4.44c-0.63,0.13-1.27,0.26-1.9,0.4c-1.78-0.07-3.56-0.14-5.33-0.22    c-1.75-0.09-3.51-0.19-5.26-0.28c-4.91-1.72-10.65-3.85-15.56-5.58c-0.5,0.32-0.58,0.7-1.23,1.02c-2.34,1.17-5.58,3.32-7.36,4.7    c-0.81-0.11-0.86-2.01-1.84-3.07c-0.42-0.68-0.85-1.37-1.27-2.05c-0.26-0.41-0.52-0.81-0.77-1.22c-0.55-1.16-1.09-2.32-1.64-3.48    c-0.02-0.27-0.19-1.77-0.21-2.04c-1.23-0.87-2.87-0.21-4.3-0.4c-0.82-0.14-1.63-0.28-2.45-0.42c-1.29-0.04-2.58-0.08-3.88-0.12    c-1.96-0.09-4.22-0.43-6.14-0.29C325.1,330.15,323.29,331.96,321.54,333.71z"/>
            <circle cx="355.34" cy="272.51" r="1.586"/>
        </g>
    </g>
</svg>