<?xml version="1.0" encoding="UTF-8"?>
<!DOCTYPE svg PUBLIC "-//W3C//DTD SVG 1.1//EN" "http://www.w3.org/Graphics/SVG/1.1/DTD/svg11.dtd">
<svg version="1.1" id="HaritaCizim" xmlns="http://www.w3.org/2000/svg" xmlns:xlink="http://www.w3.org/1999/xlink" x="0px" y="0px" viewBox="0 0 440 451" preserveAspectRatio="none">
    <defs id="__def">
        <radialGradient id="f">
            <stop offset="0" stop-color="white" stop-opacity="1"/>
            <stop id="STOP1" offset=".4" stop-opacity="1"/>
            <stop offset="1" stop-color="white" stop-opacity=".2"/>
        </radialGradient>
        <filter id="__flt1" x="0" y="0" width="200%" height="200%" filterUnits="objectBoundingBox">
            <feGaussianBlur in="SourceAlpha" stdDeviation="3" result="blur1"/>
            <feSpecularLighting result="specOut" in="blur1" specularConstant="1.5" specularExponent="20" lighting-color="#bbbbbb">
                <feDistantLight azimuth="45" elevation="30"/>
            </feSpecularLighting>
            <feComposite in="specOut" in2="SourceAlpha" operator="in" result="specOut"/>
            <feComposite in="SourceGraphic" in2="specOut" operator="arithmetic" k1="0" k2="1" k3="1" k4="0"/>
        </filter>
        <filter id="__flt2" x="0" y="0" width="200%" height="200%" filterUnits="objectBoundingBox">
            <feGaussianBlur in="SourceAlpha" stdDeviation="3" result="blur1"/>
            <feSpecularLighting result="specOut" in="blur1" specularExponent="20" lighting-color="#bbbbbb">
                <fePointLight x="-2000" y="100" z="2000"/>
            </feSpecularLighting>
            <feComposite in="specOut" in2="SourceAlpha" operator="in" result="specOut"/>
            <feComposite in="SourceGraphic" in2="specOut" operator="arithmetic" k1="0" k2="1" k3="1" k4="0"/>
        </filter>
        <filter id="__flt3" x0="-50%" y0="-50%" width="200%" height="200%" filterUnits="objectBoundingBox">
            <feGaussianBlur in="SourceAlpha" stdDeviation="3" result="blur"/>
            <feOffset in="blur" dx="0" dy="0" result="offsetBlur"/>
            <feSpecularLighting in="blur" surfaceScale="4" specularConstant=".5" specularExponent="20" lighting-color="flavor" result="specOut">
                <fePointLight x="-5000" y="-10000" z="5000"/>
            </feSpecularLighting>
            <feComposite in="specOut" in2="SourceAlpha" operator="in" result="specOut"/>
            <feComposite in="SourceGraphic" in2="specOut" operator="arithmetic" k1="0" k2="1" k3="1" k4="0" result="litPaint"/>
            <feMerge>
                <feMergeNode in="offsetBlur"/>
                <feMergeNode in="litPaint"/>
            </feMerge>
        </filter>
        <filter id="__flt4" x0="-50%" y0="-50%" width="200%" height="200%">
            <feGaussianBlur in="SourceAlpha" stdDeviation="2" result="blur"/>
            <feOffset dy="-1" dx="-1"/>
            <feComposite in2="SourceAlpha" operator="arithmetic" k2="-1" k3="1" result="hlDiff"/>
            <feFlood flood-color="white" flood-opacity=".7"/>
            <feComposite in2="hlDiff" operator="in"/>
            <feComposite in2="SourceGraphic" operator="over" result="withGlow"/>
            <feOffset in="blur" dy="3" dx="3"/>
            <feComposite in2="SourceAlpha" operator="arithmetic" k2="-1" k3="1" result="shadowDiff"/>
            <feFlood flood-color="black" flood-opacity="1"/>
            <feComposite in2="shadowDiff" operator="in"/>
            <feComposite in2="withGlow" operator="over"/>
        </filter>
        <filter id="__golge1" x="0" y="0" width="200%" height="200%" filterUnits="userSpaceOnUse">
            <feOffset result="offOut" in="SourceAlpha" dx="8" dy="8"/>
            <feGaussianBlur result="blurOut" in="offOut" stdDeviation="3"/>
            <feBlend in="SourceGraphic" in2="blurOut" mode="normal"/>
        </filter>
    </defs>
    <g id="__Komsular" display="none">
        <linearGradient id="SVGID_1_" gradientUnits="userSpaceOnUse" x1="220.5071" y1="94.8286" x2="219.5959" y2="-22.0489">
            <stop offset="0" style="stop-color:#C2D5EE"/>
            <stop offset="1" style="stop-color:#FFFFFF;stop-opacity:0"/>
        </linearGradient>
        <path fill-rule="evenodd" clip-rule="evenodd" fill="url(#SVGID_1_)" d="M440.11,0h-440L0,73.97c2.6-1.91,4.73-4.14,6.4-6.83   c-0.16-0.48,0.15-0.86,0.37-1.29c-0.08-0.65,0.46-1.28,0.79-1.81c0.59-1.11,1.19-2.22,1.79-3.34c1.87-2.53,3.68-4.96,5.69-7.35   c0.37-0.86,0.73-1.71,1.1-2.57c0.92-6.3,5.7-11.38,10.83-14.8c1.72-1.21,2.04,1.67,3.87,0.1c0.93,0.38,1.38,0.91,2.02,1.65   c0.58,0.1,0.78,0.65,1.29,0.92c1.23,0.65,2.38,1.27,3.67,1.84c0.72-0.14,1.25,0.15,1.84,0.55c1.71,0.37,3.43,0.73,5.14,1.1   c0.2-0.04,0.41-0.07,0.61-0.11c0.65,0.1,1.3,0.2,1.96,0.29c0.09-0.07,0.18-0.15,0.26-0.22c1.75,0.18,3.51,0.36,5.26,0.54   c2.89,0.33,5.66,1.08,8.48,1.78c1.2,0.15,2.41,0.3,3.61,0.45c2.65,0.41,4.82,1.68,7.55,1.68c0.55,0.39,1.79,0.81,2.45,0.69   c1.16,0.31,2.32,0.63,3.48,0.94c0.36,0.12,0.72,0.23,1.07,0.35c3.6,1.48,7.21,2.97,10.81,4.45c5.75,3.73,11.51,7.47,17.27,11.21   c1.71,0.86,3.43,1.71,5.14,2.57c1.09,0.99,3.35,2.2,4.78,2.57c0.45,0.45,1.55,0.92,2.2,0.92c1.47,0.98,2.94,1.96,4.41,2.94   c0.37,0.43,0.73,0.86,1.1,1.29c0.12,0.31,0.24,0.61,0.37,0.92c0.49,0.73,0.98,1.47,1.47,2.2c0.17,0.55,0.33,1.06,0.73,1.47   c0.24,0.67,0.49,1.35,0.73,2.02c-0.06,0.31-0.12,0.61-0.18,0.92c0.27,0.27,0.3,1.23,0.37,1.65c0,0.67,0,1.35,0,2.02   c-0.18,0.55-0.37,1.1-0.55,1.65c0.18,0.86,0.37,1.71,0.55,2.57c-0.48,0.56-0.19,3.11-0.37,4.04c0.32,0.7-0.18,2.4-0.18,3.12   c0.87,0.87,0.85,2,1.1,3.31c-0.24,0.31-0.49,0.61-0.73,0.92c0,0.95,0.55,1.39,0.55,2.02c0.31,0.43,0.61,0.86,0.92,1.29   c0.33,0.03,0.67,0.06,1,0.09c0.48,0.53,0.55,1.25,0.65,1.93c0.61,0.55,1.22,1.1,1.84,1.65c0.24,0.31,0.49,0.61,0.73,0.92   c1.13-0.04,2.05,0.61,2.94,1.29c0.39,0.3,0.93,0.73,1.47,0.73c0.37,0.49,0.73,0.98,1.1,1.47c0.43,0.18,0.86,0.37,1.29,0.55   c0.83-0.13,1.54,0.5,2.2,0.92c0.49,0.18,0.98,0.37,1.47,0.55c0.47,0.15,0.95,0.3,1.42,0.45c1.12,0.46,2.23,0.92,3.35,1.38   c0.9,0.6,2.93,0.92,4.04,0.92c0.68,0.52,1.98,0.62,2.76,0.73c1.04,0.24,2.08,0.49,3.12,0.73c2.51,0.18,5.02,0.36,7.54,0.55   c0.39,0.01,1.06,0.74,1.01,0.75l0.09-0.38c1.33,0.96,4.22,0.51,5.87,0.76c0.31,0.05,0.62,0.11,0.92,0.16   c0.24,0.41,1.48,0.54,1.47,0c0.31,0,0.61,0,0.92,0c0.24-0.12,0.49-0.24,0.73-0.37c0.78,0.13,1.57,0.25,2.35,0.38   c0.26-0.13,0.52-0.25,0.78-0.38c0.86-0.06,1.71-0.12,2.57-0.18c0.33,0.33,1.01,0.18,1.47,0.18c1.51-0.16,3.01-0.33,4.52-0.49   c0.35,0.17,0.65,0.04,1.03-0.05c1.02,0.53,2.04,0.83,3.16,0.52c0.15,0.05,0.31,0.11,0.46,0.16c1.11-0.29,2.87-0.69,3.88,0.05   c0.29-0.07,0.58-0.15,0.87-0.22c0.5,0.03,1.01,0.06,1.51,0.09c0.04,0.46,0.08,0.92,0.13,1.38c0.17,0.59,0.78-0.58,1.08,0.59   c0.1,0.42,0.31,1.39-0.25,1.5c-0.81,0.05-1.61,0.1-2.42,0.16c-0.17,0.57-0.39,0.59-0.3,1.23c0.16,0.45,0.32,0.89,0.48,1.34   c0.24-0.06,0.49-0.12,0.73-0.18c0.19,0.37,0.26,0.42,0.65,0.6c0.11,0.42-0.07,0.44,0.24,0.78c0.38,0.34,0.75,0.68,1.13,1.02   c1.34,0.58,2.63,1.54,4.04,1.22c0.7,0.04,2.6,0.64,3.12,1.16c0.65-0.11,2.55,0.29,2.94,0.73c0.86-0.12,3.42,1.31,3.76,1.03   c0.91,0.01,1.03,0.37,1.93,0.38c0.23-0.11,1.63-0.18,1.7,0.06c0.79,0.18,1.37,0.44,2.15,0.18c0.67,0.18,1.33,0.37,2,0.55   c0.5-0.06,1-0.12,1.49-0.18c0.69,0.69,1.9,1.25,2.94,1.47c0.42,0.03,3.29,4.54,5.33,5.69c0.53,1.09,0.88,1.94,1.84,2.76   c1.26,0,2.23,0.55,3.49,0.55c0.51,0.51,0.69,0.73,1.47,0.73v-0.55c0.54,0.54,1.12,1.28,2.02,1.47c0.55,0.18,1.1,0.37,1.65,0.55   c0.12,0.24,0.24,0.49,0.37,0.73c0.31,0.06,0.61,0.12,0.92,0.18c0.16,0.69,0.84,1.03,1.29,1.47c0.18-0.06,0.37-0.12,0.55-0.18   c0.44,0.22,0.43,0.43,0.73,0.73c0.68,0.14,0.98,0.24,1.47,0.73c0.34,0-0.17,0.57,0.18,0.92c-0.06,0.06-0.12,0.12-0.18,0.18   c0.28,0.28,1.1,2.06,1.1,2.39c0.34,0.34,0.55,0.62,0.55,1.1c1.13,0,0.92,0.98,0.92,1.84c0.3,0,1.47,0.98,1.47,1.29   c0.61,0.43,1.22,0.86,1.84,1.29c0,0.68,0.59,1.31,1.1,1.65c0.34,0,2.57,1.17,2.57,1.29c0.85-0.05,1,0.16,1.84,0   c0.39,0.64,1.06,0.7,1.47,1.1c1.04,0.24,2.08,0.49,3.12,0.73c0.98-0.43,1.81-0.73,2.94-0.73c0.55-0.12,1.1-0.24,1.65-0.37   c0.67-0.67,1.83-0.5,2.76-0.55c0.69-0.69,2.29-1.04,3.31-1.65c0.22-0.48,0.88-0.92,1.1-0.92c0.24-0.31,0.49-0.61,0.73-0.92   c0.73,0.35,0.62-0.23,1.29-0.37c0.31,0,0.61,0,0.92,0c0.62-0.62,1.41-1.11,2.11-1.75c0.34-0.4,0.67-0.79,1.01-1.19   c0.52,0,1.84-1.46,1.84-2.02c0.2-0.17,0.4-0.34,0.6-0.51c0.17-0.44-0.05-0.81-0.05-1.33c0.24-0.55,0.49-1.1,0.73-1.65   c-0.08-0.14-0.17-0.28-0.25-0.42c0.07-0.53,0.36-0.63,0.72-0.56l-0.1-0.68c0.12-0.67,0.24-1.35,0.37-2.02   c-0.06-0.43,0.8-1.41,1.29-1.47c0.72-0.64,1.84-1.75,1.84-2.76c0.42-0.39,0.85-0.78,1.27-1.18c0.55-0.82,1.29-3.43,2.03-3.78   c0.3-0.81,0.84-2.13,1.65-2.39c0.38-0.77,0.77-1.53,1.15-2.3c0.17-0.03,0.34-0.06,0.51-0.09c-0.06-0.61-0.12-1.22-0.18-1.84   c0.6-0.62,1.12-0.92,1.46-1.69c0.95-0.72,2.13-0.85,2.95-1.8c0.18-0.31,0.37-0.61,0.55-0.92c0.55-0.18,1.1-0.37,1.65-0.55   c-0.07-0.53,0.74-2.25,0.96-1.5c0.24,0.73,0.28,1.68,0.99,2.05c0.97,0.42,1.9,0.49,2.82,1.1c0.03,0.64,0.06,1.28,0.09,1.92   c0.64,0.64,1.29,1.29,1.93,1.93c0.18,0.02,0.37,0.04,0.55,0.06c0.35,0.01,0.26-0.04,0.55,0.31c0.82-0.14,2.18-0.59,2.76,0   c1.11-0.68,2.95-1.56,4.04-0.55c1.64-1.17,4.02-1.52,5.98-1.69c0.79,0.65,1.88,0.44,2.47,1.5c0.31,0.12,0.61,0.25,0.92,0.37   c0.54,0.05,1.29-0.01,1.65,0.37c0.59-0.19,1.18-0.38,1.76-0.57c0.63-0.04,1.11,0.34,1.54-0.16c0.05,0.19,0.09,0.38,0.14,0.57   c0.36,2.35-0.82,4.27-1.47,6.48c-0.04,0.99-0.09,1.99-0.13,2.98c-0.25,0.39-0.62,1.53-0.56,1.72c-0.91,0.57-1.35,1.24-1.27,2.28   c-0.13,0.46-0.25,0.93-0.38,1.39c0.12,0.31,0.24,0.61,0.37,0.92c0,0.53-0.13,0.85,0.37,1.1c0.12,0.49,0.24,0.98,0.37,1.47   c0.49,0.8,0.98,1.59,1.47,2.39c0.06,0.24,0.12,0.49,0.18,0.73c0.67,0.8,1.35,1.59,2.02,2.39c0.31,0.18,1.04,0.92,1.1,1.1   c0.24,0,1.14,0.96,1.47,1.47c0.12,0.24,0.24,0.49,0.37,0.73c0,0.84,0.27,3.26,1,3.73c0.46,0.35,0.93,0.7,1.39,1.05   c1.71,0.31,3.43,0.61,5.14,0.92l0.86,0.59c0.45-0.14,0.9-0.27,1.35-0.41c0,0.42,0.64,0.43,0.96,0.64c0.63,0.41,1.84,0.27,2.89,0.09   c0.9,0.39,1.37,0.45,1.65,0.73c0.68,0.19-0.67-0.2,1.98,0.65c0.31,0.11,0.88,1.07,0.59,1.37c0.39,0.39,0.55,1.1,0.55,1.65   c0.29,0.29,0.09,0.39,0.18,0.73c0.25,0.93,0.6,2.07,1.29,2.76c-0.12,0.67-0.25,1.35-0.37,2.02c0.06-0.12,0.12-0.24,0.18-0.37   c0.92,1.3,1.38,2.28,1.98,3.59c0.2,0.39,1.01-1.03,1.14-1.21c0.92,0.12,1.84,0.25,2.76,0.37c0.67-0.06,1.35-0.12,2.02-0.18   c2.3,0,4.27-0.15,6.43-0.55c0.9,0.9,1.85,0.58,2.94,0.73c6.15,0.85,7.77,0.82,8.12,1.1l-0.22-0.19c2.86,0.06,5.71,0.11,8.57,0.17   c0.76,0.43,1.51,0.87,2.27,1.3c0.45-0.18,0.97-0.24,1.47-0.18c0.37,0.06,0.73,0.12,1.1,0.18c1.51,0.61,2.8,0.73,4.41,0.73   c0.12,0.18,0.24,0.37,0.37,0.55c0.73,0.43,1.47,0.86,2.2,1.29c1.14,0.55,3.51,0.55,4.78,0.55c0,0.3,0.3,0.35,0.56,0.45   c0.59,0.1,1.19,0.2,1.78,0.29c1.29,1,3.09,0.91,4.64,0.91c0.49,0.49,2.31,0.68,2.94,0.37c1.56,0.72,2.88,1.47,4.59,1.47l-0.33,0.08   c0.77,0.2,1.51,0.49,1.8,1.21c0.43,0.12,0.86,0.24,1.29,0.37c2.2,0.18,4.41,0.37,6.61,0.55c0.1,0.16,1.18,0.8,1.65,0.73   c0.43,0.31,0.86,0.61,1.29,0.92c0.45,0.08,0.9,0.16,1.35,0.24c0.1-0.08,0.79,0,1.03,0.13c0.07-0.06,1.41,0.4,1.47,0.55   c0.18,0.18,0.37,0.37,0.55,0.55c0.66,0.41,1.33,0.82,1.99,1.23L440.11,0z"/>
        <path fill-rule="evenodd" clip-rule="evenodd" fill="none" stroke="#000000" stroke-width="0.25" stroke-miterlimit="10" d="   M400.41,346.34c5.39,1.27,11.65,0.64,16.9,2.58c4.48,1.66,12.31,3.07,14.56,8.03c0.54,1.19,0.26,2.99,0.51,4.27   c0.28,1.44,0.76,2.78,0.5,4.38c-0.22,1.38-0.3,2.97-0.51,4.45c-0.2,1.36-1.18,2.22-1.47,3.49c-0.68,2.87,0.07,6.27-0.36,9.19   c-0.41,2.78-0.59,5.92-0.04,8.67c0.56,2.8,0.99,5.77,1.55,8.55c0.54,2.66,0.61,5.75,1.93,8.17c1.31,2.42,1.53,5.28,2.07,8.04   c0.53,2.71,1.44,5.19,2.03,7.89"/>
        <path fill-rule="evenodd" clip-rule="evenodd" fill="none" stroke="#000000" stroke-width="0.25" stroke-miterlimit="10" d="   M280.46,389.33c0.27,1.46,0.88,2.69,0.73,4.22c-0.14,1.43-0.77,2.57-0.91,4.04c-0.14,1.47-0.43,2.98-0.56,4.41   c-0.13,1.5,0.55,3.15,0.19,4.6c-0.58,2.33-3.71,4.51-5.1,6.65c-1.38,2.12-2.85,4.13-4.59,6.07c-1.86,2.08-4.12,3.61-5.79,5.79   c-1.11,1.46-0.95,2.03-1.43,3.71c-0.39,1.37-1.5,2.25-2.62,3.09c-4.86,3.62-10.3,5.66-15.58,9.01c-1.07,0.68-1.86,1.27-3.11,1.5   c-1.48,0.27-3.07-0.5-4.23,0.73c-2.53,2.66-0.14,5.49,1.43,7.58"/>
        <path fill-rule="evenodd" clip-rule="evenodd" fill="none" stroke="#000000" stroke-width="0.25" stroke-miterlimit="10" d="   M35.42,208.39c-2.67-0.16-5.04-2.25-7.52-2.99c-1.77-0.53-3.86-0.73-5.56,0.19c-1.48,0.8-2.02,3.61-4,3.18   c-1.72-0.38-2.88-6.85-5.7-3.36c-0.84,1.04-0.87,2.41-2.43,3.12c-1.19,0.55-2.98,0.16-4.36,0.23"/>
        <text transform="matrix(0.6213 -0.7836 0.7836 0.6213 48.1782 149.6738)" font-family="'MyriadPro-Regular'" font-size="8.817">S A MS U N</text>
        <text transform="matrix(0.9084 0.418 -0.418 0.9084 83.2039 346.5562)" font-family="'MyriadPro-Regular'" font-size="8.817">T O K A T</text>
        <text transform="matrix(0.9533 -0.3019 0.3019 0.9533 352.4407 441.0505)" font-family="'MyriadPro-Regular'" font-size="8.817">S İ V A S</text>
        <text transform="matrix(0.1101 0.9939 -0.9939 0.1101 418.7866 241.439)" font-family="'MyriadPro-Regular'" font-size="8.817">G İ R E S U N</text>
    </g>
    <g id="__Harita" display="none">
        <rect id="__cer" x="0" y="0" fill="#000000" opacity="0" width="440" height="451"/>
        <g id="__Çatalpınar">
            <path d="    M235.09,244.21c0.25,0.25,0.92-1.48,0.92-2.02c0.67-0.73,1.35-1.47,2.02-2.2c0.12-1.78,0.24-3.55,0.37-5.33    c-0.28-0.39-0.55-0.78-0.83-1.17c-0.8-1.04-1.86-1.79-3.03-2.69c0.55-0.55-0.87-1.39-1.29-1.84c-0.06-0.24-0.12-0.49-0.18-0.73    c0.4-0.4,0.15-0.77-0.18-1.1c-0.06-0.43-0.12-0.86-0.18-1.29c0.49-0.49,0.6-0.47,0.92-1.1c0-2.11-1-2.23-2.76-2.76    c-0.31-0.18-0.61-0.37-0.92-0.55c-0.73-0.8-0.98-1.16-1.71-1.96l-0.37-0.24c0.7,0,1.17-2.47,1.71-3.12    c0.18-0.12,0.37-0.24,0.55-0.37c0.5-0.69,1.29-1.56,1.29-2.39c0.74-1.01,1.34-1.64,1.47-2.94c0.49-0.55,0.98-1.1,1.47-1.65    c0.12-0.06,0.24-0.12,0.37-0.18c0.71-1.03,0.61-2.66,1.84-3.12c0.12-0.55,0.24-1.1,0.37-1.65c-0.06-0.49-0.12-0.98-0.18-1.47    c0.7-0.74,1.32-0.73,2.02-1.47c0.1-0.36,0.73-2.2,0.92-2.39c0-0.59,0.73-2.02,1.47-2.02c0.98,0.06,1.96,0.12,2.94,0.18    c0.75,0.16,0.38,0.45,1.29,0.18c0.62,0.38,1.25,0.77,1.87,1.15c0.46,0.23,0.84,0.64,1.25,1.05c-0.26-0.03,0.08,1.22,0.73,0.92    l-0.05,0.35c-0.1,0.37,0.11,0.45,0.05,0.94c-0.62,1.06-2.06,2.58-1.44,3.93c0.24,0.43,0.32,0.84,0.7,1.01    c1.12,0.52,3.04,0.15,3.76,1.25c0.93,1.46,0.78,1.34,0.64,2.96c0,0.38,0.01,0.75,0.01,1.13c0.37,0.92,0.73,1.84,1.1,2.76    c-0.13,0.17-0.27,0.34-0.4,0.51c-0.75,0.95-2.2,1.12-2.2,2.62c0.01,0.12,0.02,0.24,0.03,0.36c0.71,0.87,1.42,1.75,2.12,2.62    c0.33,0.7,0.44,1.23,1,1.79c0.31-0.06,0.61-0.12,0.92-0.18c0.34,0.34,1.47,0.74,1.47,1.29c-0.57,0.71-1.84,1.51-1.84,2.39    c0.18,0.73,0.37,1.47,0.55,2.2c0.2,0.17,1.02,1.6,1.22,1.78c0,0-0.46,1.01-1.13,0.89c-0.46,0.3-2.62,0.79-2.93,0.33    c-0.34-0.63-0.68-1.26-1.02-1.89c-1.48-0.93-2.85-0.89-4.58-0.92c-0.66,0.03-1.32,0.06-1.99,0.09c-0.51,0.35-1.05,0.79-1.31,1.38    c-0.17,0.4-0.03,0.82-0.39,1.1c0.14,0.88,0.28,1.75,0.42,2.63c-0.03,0.47,0.02,0.83-0.24,1.23c0.08,0.97,0.16,1.94,0.25,2.92    c0.47,0.8,0.94,1.61,1.41,2.41c0.42,0.49,0.84,0.98,1.26,1.48c0.42,0.62,0.85,1.23,1.27,1.85c0.38,0.85,0.76,1.7,1.14,2.55    c-0.12,1.47-0.74,2.03-0.65,2.13c-0.09-0.1-0.97,0.12-1.22,0.19c-0.24,0.64-1.67,2.7-2.53,3.93c-0.41,0.39-1.1,1.29-1.48,1.3    c-0.44,0.02-0.53,0.01-0.77-0.36c-0.72-0.74-1.44-1.48-2.16-2.23c0-0.79-0.34-1.17-0.73-1.84c-0.06-0.31-0.12-0.61-0.18-0.92    c-0.18-0.37-0.37-0.73-0.55-1.1c-0.39-1.08-0.45-2.17-1.84-2.21c-0.45,0-1.96-0.23-2.01-0.17L235.09,244.21z"/>
            <circle cx="242.81" cy="214.64" r="1.586"/>
        </g>
        <g id="__Ünye">
            <path d="    M168.05,119.86c1.33,0.96,4.22,0.51,5.87,0.76c0.31,0.05,0.62,0.11,0.92,0.16c0.24,0.41,1.48,0.54,1.47,0c0.31,0,0.61,0,0.92,0    c0.24-0.12,0.49-0.24,0.73-0.37c0.78,0.13,1.57,0.25,2.35,0.38c0.26-0.13,0.52-0.25,0.78-0.38c0.86-0.06,1.71-0.12,2.57-0.18    c0.33,0.33,1.01,0.18,1.47,0.18c1.51-0.16,3.01-0.33,4.52-0.49c0.35,0.17,0.65,0.04,1.03-0.05c1.02,0.53,2.04,0.83,3.16,0.52    c0.15,0.05,0.31,0.11,0.46,0.16c1.11-0.29,2.87-0.69,3.88,0.05c0.29-0.07,0.58-0.15,0.87-0.22c0.5,0.03,1.01,0.06,1.51,0.09    c0.04,0.46,0.08,0.92,0.13,1.38c0.17,0.59,0.78-0.58,1.08,0.59c0.1,0.42,0.31,1.39-0.25,1.5c-0.81,0.05-1.61,0.1-2.42,0.16    c-0.17,0.57-0.39,0.59-0.3,1.23c0.16,0.45,0.32,0.89,0.48,1.34c0.24-0.06,0.49-0.12,0.73-0.18c0.19,0.37,0.26,0.42,0.65,0.6    c0.11,0.42-0.07,0.44,0.24,0.78c0.38,0.34,0.75,0.68,1.13,1.02c1.34,0.58,2.63,1.54,4.04,1.22c0.7,0.04,2.6,0.64,3.12,1.16    c0.65-0.11,2.55,0.29,2.94,0.73c0.86-0.12,3.42,1.31,3.76,1.03c0.91,0.01,1.03,0.37,1.93,0.38c0.23-0.11,1.63-0.18,1.7,0.06    c0.79,0.18,1.37,0.44,2.15,0.18c0.67,0.18,1.33,0.37,2,0.55c0.5-0.06,1-0.12,1.49-0.18c0.69,0.69,1.9,1.25,2.94,1.47    c0.42,0.03,3.29,4.54,5.33,5.69c0.53,1.09,0.88,1.94,1.84,2.76c1.26,0,2.23,0.55,3.49,0.55c0.51,0.51,0.69,0.73,1.47,0.73    c-0.12,0-0.16,1.86,0,2.02c-0.24,0.31-0.48,0.63-0.72,0.94c-0.71,0.71-2.22,1.37-2.22,2.55c-0.92,0.67-1.84,1.35-2.76,2.02    c-0.38,1.27-0.76,2.54-1.14,3.81c-0.42,2.1-0.83,4.19-1.25,6.29c-0.42,0.42-2.16,2.14-2.2,2.57c-0.83,0.4-1.66,0.8-2.5,1.19    c-0.66,0.66-0.61,2.32-0.81,3.21c-0.15,0.67-0.68,0.86-1.1,1.29c0,0.43-0.52,0.92-0.92,0.92c-0.52,0.93-0.71,1.83-0.55,2.94    c0.1,0.67,0.81,1.76,0.18,2.39c0,0.49-0.41,1.59-0.77,1.74c-1.03,0.34-2.06,0.67-3.09,1.01c0,0.96-1.05,1.43-1.31,2.26    c-0.12,0.39-0.04,1.17-0.38,1.34c-1.52,0.76-2.42,0.26-4.01,0.26c-1.08,0-1.96-0.02-2.92-0.4c-1.29-0.05-2.58-0.1-3.87-0.16    c-1.48-1.08-3.11-1.81-4.75-2.53c-1.53-0.67-3.12-5.33-4.82-3.74c-1.1,0.99-2.2,1.97-3.29,2.96c-0.82,0-2.04,0.63-2.76,1.1    c-1.11,0.9-2.22,1.79-3.33,2.69c-0.9,0.5-3.68,1.38-3.03,2.79c0.32,0.6,1.77,1.77,1.77,2.06c0,0.31,0,0.61,0,0.92    c-0.15,0.88-1.37,1.87-0.73,2.76c-0.52,0.52-0.92,1.23-0.92,2.02c-0.27,0.27-0.55,0.7-0.55,1.1c-0.43,0.67-0.86,1.35-1.29,2.02    c-0.4,0.45-0.81,0.91-1.21,1.36c-0.18,0.46-0.49,0.9-0.44,1.39c-0.48,0.6-0.92,1.22-0.92,2.02c-1.6,1.6-2.38,3.57-3.67,5.14    c-0.81,0.98-1.36,2.3-1.65,3.49c-0.12,0.26-0.24,0.53-0.37,0.79c-0.07,0.39-0.31,1.41-0.73,1.41c-1.42,0.69-2.7,1.16-4.22,1.47    c-0.55,0.77-1.82,1.02-2.76,1.29c-0.61,0-1.22,0-1.84,0c-0.8,0.12-1.59,0.25-2.39,0.37c-0.44-0.44-0.32-2.02-1.1-2.02    c-0.91,0.33-1.83,0.65-2.74,0.98c-1.13,0.17-3.81,0.24-4.76-0.14c-0.44-0.22-0.88-0.44-1.31-0.65c-0.31-0.12-0.61-0.24-0.92-0.37    c-0.52,0-0.99-0.13-1.47-0.37c-1.31,0.05-2.61,0.1-3.92,0.15c-0.29-0.11-0.57-0.22-0.86-0.33c-0.98-0.98-1.36-2.04-2.2-2.95    c-0.68-0.61-1.35-1.22-2.03-1.83c-0.12-0.24-0.25-0.49-0.37-0.73c-0.18-0.06-0.37-0.12-0.55-0.18c-0.54-0.67-1.31-2.57-2.2-2.57    c-1.11-0.04-2.15,0.32-3.2-0.07c-1.62-0.6-2.8-1.65-4.52-1.95c-0.51-0.09-0.98-0.59-1.47-0.37c-0.6-0.21-2.39-0.92-2.76-0.55    c-0.8-0.43-1.59-0.86-2.39-1.29c0.06-0.06,0.12-0.12,0.18-0.18c0.06-0.18,0.12-0.37,0.18-0.55c0.56-0.56,0.82-1.36,1.29-2.02    c0.24-0.12,0.49-0.24,0.73-0.37c0.42-0.83,1.06-1.17,1.59-1.85c0.33-0.43,0.79-2.01,1.17-1.64c0.2-0.65,0.32-1.29,0.73-1.84    c0.37-0.37,0.73-0.73,1.1-1.1c0.18-0.06,0.37-0.12,0.55-0.18c0.73-0.67,1.47-1.35,2.2-2.02c0.24-0.37,0.49-0.73,0.73-1.1    c0.69-0.17,0.97-0.42,1.47-0.92c1.14,0,2.85-0.09,3.86-0.73c0.55-0.49,1.1-0.98,1.65-1.47c1.39,0,3.12-0.45,4.22-1.47    c0.46-0.52,0.92-1.04,1.38-1.56c0.4-0.34,0.8-0.67,1.19-1.01c0.61-1.04,1.22-2.08,1.84-3.12c0.21-0.25,1.91-1.98,2.02-2.02    c0.6-1.47,2.02-3.17,2.02-4.78c0.62-0.62,0.26-2.47,0.73-2.94c-0.06-0.73-0.12-1.47-0.18-2.2c0.12-0.18,0.25-0.37,0.37-0.55    c0-0.31,0-0.61,0-0.92c-0.31-0.31-0.61-0.61-0.92-0.92c-0.12-0.31-0.24-0.61-0.37-0.92c0-0.66-0.11-1.57-0.55-2.02    c0-0.56,0.3-1.59,0-2.02c0.4-1.77,1.09-3.23,0.73-4.96c-0.1-0.49,0.01-1.09-0.37-1.47c-0.42-0.39-1-1.08-1.48-1.18    c-0.55-0.03-1.09-0.07-1.64-0.1c-0.39,0.18-0.69,0.52-1.1,0.37c-0.61,0.37-1.22,0.73-1.84,1.1c-0.37-0.06-0.73-0.12-1.1-0.18    c-0.36,0-0.65,0.08-0.92-0.18c-0.24-0.37-0.49-0.73-0.73-1.1c0-0.38-0.07-1.65,0.37-1.65c0.18-0.8,0.37-1.59,0.55-2.39    c0.25-0.19,0.49-0.38,0.74-0.57c0.12-0.12,0.24-0.23,0.36-0.35c0.27,0,0.73,0.13,0.73-0.18c0.09,0.03,0.18,0.06,0.26,0.09    c1.23-1.45,0.41-3.56,1.73-4.84c0.84-0.81,1.34-0.5,2.23-1.12c0.18-0.37,0.37-0.73,0.55-1.1c1.59-1.16,3.18-2.33,4.78-3.49    c0-0.81,0.91-1.64,1.47-2.2c0.7,0,1.32-0.03,1.84-0.55c0-1.03-0.43-1.76,0.18-2.76c0.65,0,1.53,0.68,2.02,0.18    c0.69-0.69,1.37-1.31,1.26-2.35c0.01-0.2,0.02-0.39,0.03-0.59c-0.37-0.31-0.73-0.61-1.1-0.92c-0.39-0.52-0.71-2.41-0.18-2.94    c0.43-0.31,0.86-0.61,1.29-0.92c1.1-0.27,2.02,0.23,2.02-1.29C167.43,120.59,167.74,120.22,168.05,119.86z"/>
            <circle cx="198.26" cy="128.58" r="1.586"/>
        </g>
        <g id="__İkizce">
            <path d="    M146.74,152c-0.24-0.37-0.49-0.73-0.73-1.1c0-0.38-0.07-1.65,0.37-1.65c0.18-0.8,0.37-1.59,0.55-2.39    c0.25-0.19,0.49-0.38,0.74-0.57c0.12-0.12,0.24-0.23,0.36-0.35c0.27,0,0.73,0.13,0.73-0.18c0.09,0.03,0.18,0.06,0.26,0.09    c1.23-1.45,0.41-3.56,1.73-4.84c0.84-0.81,1.34-0.5,2.23-1.12c0.18-0.37,0.3-0.55,0.3-0.55c-0.07,0.05-0.44-0.08-0.52-0.03    c-1.14-0.87-3.17-0.4-4.56-0.71c-0.6-0.13-1.57,0.27-2.02-0.18c-0.69,0-1.97,0.26-2.32-0.4c-0.35-0.75-0.55-1.73-1.17-2.35    c0-0.86-0.49-1.27-1.3-1.4c-0.12-0.09-0.23-0.17-0.35-0.26c-1.22,0-3.08,0.31-4.04-0.55c-1.46,0.05-2.72,0.45-4.13,0.9    c-0.46-0.28-1.19,0.03-1.74,0.03c-1.66-0.01-3.31-0.01-4.97-0.02c-0.86,0.49-1.71,0.98-2.57,1.47c-1.08,0.45-3.81-0.11-4.08,1.28    c-0.36,2.08-0.71,4.17-1.07,6.25c-0.09,1.42,0.06,2.71-1.13,3.46c-1.34,0.84-2.52,1.87-4.03,2.34c-0.73,0.58-1.46,1.16-2.19,1.73    c-0.42,0.42-1.55,1.21-0.92,1.84c0.12,0.35,0.25,0.7,0.37,1.04c0.18,1.43,1.4,2.38,2.38,3.36c1.34,1.34,4.88,4.05,4.04,6.25    c0.06,0.61,0.12,1.22,0.18,1.84c-0.73,1.53-1.47,3.06-2.2,4.59c-0.24,0.18-0.49,0.37-0.73,0.55c-1.29,1.53-2.57,3.06-3.86,4.59    c-3.06,2.45-6.12,4.9-9.18,7.35c-0.12,0.37-0.24,0.73-0.37,1.1c-0.18,0.8-0.37,1.59-0.55,2.39c0.41,1.97,0.95,4.01,0.55,6.06    c-0.24,0.61-0.31,2.27-0.55,2.88c0.06,1.35-0.06,1.65,0,3c-0.12,0.24-0.24,0.49-0.37,0.73c-0.37,0.43-0.73,0.86-1.1,1.29    c-0.06,0.31-0.12,0.61-0.18,0.92c-0.24,0.86-0.49,1.71-0.73,2.57c0.06,0.86,0.12,1.71,0.18,2.57c-0.06,0.86-0.12,1.71-0.18,2.57    c0.24,1.16,1.96,2.88,2.76,3.67c0.43,0.18,0.86,0.37,1.29,0.55c0.9,0,2.22,0.47,3.03,0.03c0.55-0.31,0.78-0.64,1.19-1.13    c0.03-0.23,0.83-0.69,0.86-0.92c0.62-0.86,0.8-1.22,0.8-2.39c0-0.8-0.63-2.49,0-3.12c0.58-0.58,1.42-0.56,1.96-1.1    c1.18,0,2.14,0.55,2.22-1.53c0.51-1.88,1.01-3.76,1.52-5.64c0.59-1.98,2.44-3.91,3.86-5.33c0.49-0.18,0.86-0.61,1.16-0.92    c0.37-0.18,0.49-0.74,0.86-0.92c0.37-0.61,0.73-1.22,1.1-1.84c0.43-1.22,0.86-2.45,1.29-3.67c0-0.42,1.07-3.46,1.47-3.86    c0.18-1.16,0.37-2.33,0.55-3.49c0.64-0.88,1.29-1.77,1.93-2.65c1.5-1.2,3-2.4,4.5-3.59c0.49-0.18,0.98-0.37,1.47-0.55    c0.56-0.41,1.12-0.81,1.68-1.22c0.42-0.15,0.84-0.29,1.26-0.44c0.43-0.43,1.47-0.92,2.39-1.1c0.25-0.37,0.49-0.73,0.73-1.1    c0.55-2.52,1.96-3.72,3.86-5.33c0.24-0.37,0.49-0.73,0.73-1.1c0.43-0.24,0.86-0.49,1.29-0.73c0.37-0.43,0.92-0.24,1.29-0.67    c0.63-0.63,0.73-0.55,0.98-1.35c0.4-0.4,0.24-2.14,0.12-2.94c0.24-0.8,1.1-0.64,0.86-1.47L146.74,152z"/>
            <circle cx="140.49" cy="153.84" r="1.586"/>
        </g>
        <g id="__Çaybaşı">
            <path d="    M146.74,152c0.26,0.26,0.56,0.18,0.92,0.18c0.37,0.06,0.73,0.12,1.1,0.18c0.61-0.37,1.22-0.73,1.84-1.1    c0.41,0.15,0.72-0.19,1.1-0.37c0.55,0.03,1.09,0.07,1.64,0.1c0.48,0.1,1.06,0.79,1.48,1.18c0.38,0.38,0.27,0.98,0.37,1.47    c0.36,1.73-0.34,3.19-0.73,4.96c0.3,0.43,0,1.46,0,2.02c0.45,0.45,0.55,1.36,0.55,2.02c0.12,0.31,0.25,0.61,0.37,0.92    c0.31,0.31,0.61,0.61,0.92,0.92c0,0.31,0,0.61,0,0.92c-0.12,0.18-0.24,0.37-0.37,0.55c0.06,0.73,0.12,1.47,0.18,2.2    c-0.47,0.47-0.11,2.32-0.73,2.94c0,1.61-1.42,3.3-2.02,4.78c-0.11,0.04-1.81,1.77-2.02,2.02c-0.61,1.04-1.22,2.08-1.84,3.12    c-0.4,0.34-0.8,0.67-1.19,1.01c-0.46,0.52-0.92,1.04-1.38,1.56c-1.11,1.02-2.83,1.47-4.22,1.47c-0.55,0.49-1.1,0.98-1.65,1.47    c-1.01,0.64-2.72,0.73-3.86,0.73c-0.5,0.5-0.78,0.75-1.47,0.92c-0.24,0.37-0.49,0.73-0.73,1.1c-0.73,0.67-1.47,1.35-2.2,2.02    c-0.18,0.06-0.37,0.12-0.55,0.18c-0.37,0.37-0.73,0.73-1.1,1.1c-0.41,0.55-0.53,1.18-0.73,1.84c-0.37-0.37-0.83,1.2-1.17,1.64    c-0.53,0.68-1.17,1.02-1.59,1.85c-0.24,0.12-0.49,0.25-0.73,0.37c-0.47,0.66-0.72,1.46-1.29,2.02c-0.06,0.18-0.12,0.37-0.18,0.55    c-0.06,0.06-0.12,0.12-0.18,0.18l-0.18-0.18c-0.06,0.43-0.12,0.86-0.18,1.29c0.17,0.85,0.4,4.2-0.3,4.67    c-0.47,0.35-1.11,1.09-1.72,0.84c-0.48,0.43-0.96,0.86-1.44,1.3c-0.44,0.36-0.88,0.73-1.32,1.09c-0.63,0-1.48-0.46-2.02,0    c-0.67-0.06-1.17-0.23-1.84,0c-1.49,0.51-2.5,1.71-3.86,2.39c-1.2,0.12-2.39,0.25-3.59,0.37c-1.33,0.03-2.66,0.06-3.98,0.09    l0.13-0.25c0.55-0.31,0.78-0.64,1.19-1.13c0.03-0.23,0.83-0.69,0.86-0.92c0.62-0.86,0.8-1.22,0.8-2.39c0-0.8-0.63-2.49,0-3.12    c0.58-0.58,1.42-0.56,1.96-1.1c1.18,0,2.14,0.55,2.22-1.53c0.51-1.88,1.01-3.76,1.52-5.64c0.59-1.98,2.44-3.91,3.86-5.33    c0.49-0.18,0.86-0.61,1.16-0.92c0.37-0.18,0.49-0.74,0.86-0.92c0.37-0.61,0.73-1.22,1.1-1.84c0.43-1.22,0.86-2.45,1.29-3.67    c0-0.42,1.07-3.46,1.47-3.86c0.18-1.16,0.37-2.33,0.55-3.49c0.64-0.88,1.29-1.77,1.93-2.65c1.5-1.2,3-2.4,4.5-3.59    c0.49-0.18,0.98-0.37,1.47-0.55c0.56-0.41,1.12-0.81,1.68-1.22c0.42-0.15,0.84-0.29,1.26-0.44c0.43-0.43,1.47-0.92,2.39-1.1    c0.25-0.37,0.49-0.73,0.73-1.1c0.55-2.52,1.96-3.72,3.86-5.33c0.24-0.37,0.49-0.73,0.73-1.1c0.43-0.24,0.86-0.49,1.29-0.73    c0.37-0.43,0.92-0.24,1.29-0.67c0.63-0.63,0.73-0.55,0.98-1.35c0.4-0.4,0.24-2.14,0.12-2.94c0.24-0.8,1.1-0.64,0.86-1.47    L146.74,152z"/>
            <circle cx="148.58" cy="165.78" r="1.586"/>
        </g>
        <g id="__Akkuş">
            <path d="    M164,216.29c-0.44-0.44-0.32-2.02-1.1-2.02c-0.91,0.33-1.83,0.65-2.74,0.98c-1.13,0.17-3.81,0.24-4.76-0.14    c-0.44-0.22-0.88-0.44-1.31-0.65c-0.31-0.12-0.61-0.24-0.92-0.37c-0.52,0-0.99-0.13-1.47-0.37c-1.31,0.05-2.61,0.1-3.92,0.15    c-0.29-0.11-0.57-0.22-0.86-0.33c-0.98-0.98-1.36-2.04-2.2-2.95c-0.68-0.61-1.35-1.22-2.03-1.83c-0.12-0.24-0.25-0.49-0.37-0.73    c-0.18-0.06-0.37-0.12-0.55-0.18c-0.54-0.67-1.31-2.57-2.2-2.57c-1.11-0.04-2.15,0.32-3.2-0.07c-1.62-0.6-2.8-1.65-4.52-1.95    c-0.51-0.09-0.98-0.59-1.47-0.37c-0.6-0.21-2.39-0.92-2.76-0.55c-0.8-0.43-1.59-0.86-2.39-1.29l-0.18-0.18    c-0.06,0.43-0.12,0.86-0.18,1.29c0.17,0.85,0.4,4.2-0.3,4.67c-0.47,0.35-1.11,1.09-1.72,0.84c-0.48,0.43-0.96,0.86-1.44,1.3    c-0.44,0.36-0.88,0.73-1.32,1.09c-0.63,0-1.48-0.46-2.02,0c-0.67-0.06-1.17-0.23-1.84,0c-1.49,0.51-2.5,1.71-3.86,2.39    c-1.2,0.12-2.39,0.25-3.59,0.37c-1.33,0.03-2.66,0.06-3.98,0.09l0.13-0.25c-0.81,0.44-2.13-0.03-3.03-0.03    c-0.43-0.18-0.86-0.37-1.29-0.55c-0.8-0.8-2.51-2.51-2.76-3.67c0.06-0.86,0.12-1.71,0.18-2.57c-0.06-0.86-0.12-1.71-0.18-2.57    c0.24-0.86,0.49-1.71,0.73-2.57c0.06-0.31,0.12-0.61,0.18-0.92c0.37-0.43,0.73-0.86,1.1-1.29c0.12-0.24,0.24-0.49,0.37-0.73    c-0.06-1.35,0.06-1.65,0-3l-0.18-0.12c-0.13-0.1-0.25-0.19-0.38-0.29c-3.2-2.41-7.96-4.27-11.67-4.12c-0.5-0.35-2.75-0.06-3.4,0.1    c-0.37,0.11-0.75,0.22-1.12,0.33c-1.25,1.88,0.16,3.64-0.24,6c-0.25,0.68-0.49,1.35-0.74,2.03c-0.88,0.17-2.91,0.46-3.76,0.17    c-1.41,0.31-2.82,0.61-4.22,0.92c-0.67,0.06-1.35,0.12-2.02,0.18c-0.61-0.28-2.55-1.17-3.12-0.92c-1.31-0.6-2.62-0.88-3.67-1.65    c-0.48-0.36-1-0.15-1.29-0.73c-0.38-0.04-0.77-0.08-1.15-0.11c-0.18,0.31-0.13,0.39-0.5,0.48c-0.32,0.65-0.37,1.25-0.94,1.75    c-0.67,0.58-1.33,1.16-2,1.74c-0.92,0.24-1.84,0.49-2.76,0.73c-0.61,0.18-1.22,0.37-1.84,0.55c-1.35,0.12-2.69,0.25-4.04,0.37    c-0.67,0.09-1.6,0.57-2.2,0.18c-0.61,0.18-1.22,0.37-1.84,0.55c-1.65,0.67-3.31,1.35-4.96,2.02c-0.37,0.18-0.73,0.37-1.1,0.55    c-0.18-0.06-0.37-0.12-0.55-0.18c-1.17,1.17-2.55,1.64-3.67,2.76c-0.33,0-1.1,0.51-1.1,0.73c-0.45,0.58-0.94,1.09-0.92,1.84    c0,2.84,0.32,5.46,0.73,8.27c0.43,1.29,0.86,2.57,1.29,3.86c1.25,1.06,2.47,2.44,4.18,2.58c1.43,1.14,3.66,2.12,5.73,2.01    c-0.5,0.5,2.79,0.85,3.42,0.88c0.51,0.79,1.96,0.61,2.8,0.99c1.22,0.55,4.28,1.49,5.54,1.43c0,0.51,0.88,0.62,1.29,0.73    c-0.33,0.33,0.37,0.79,0.37,1.27c0,1.31-0.18,3.94,0.28,5.02c-0.12,0.42,0,0.61,0.18,1c-0.55,1.54,1.78,2.76,2.12,3.91    c0.39,0.24,0.77,0.48,1.16,0.72c0.96,0.91,2.17,1.89,3.48,2.2c0.36,1.05,2.62,1.81,3.73,1.67c1.37,0.92,2.75,1.83,4.12,2.75    c0.31,0.12,0.61,0.24,0.92,0.37c0.37,0.1,0.73,0.21,1.1,0.31c0.86,0.45,1.72,0.9,2.58,1.34c0.31,0.24,0.61,0.49,0.92,0.73    c0.4,0,1.21,0.67,1.33,1.06c0.27,0.61,0.54,1.22,0.8,1.83c-0.45,1.61,0.5,3.36-0.48,4.82c-0.18,0.92-0.37,1.84-0.55,2.76    c-0.29,1.83-0.57,3.66-0.86,5.49c-0.33,1.48-0.71,2.47-1.08,3.87c-0.09,0.34-0.55,1.29,0.11,1.29c2.01,0,4.3,1.12,6.06,2.02    c0.67-0.12,1.35-0.24,2.02-0.37c0.52-0.52,1.79-0.74,2.39-1.1c0.5-0.31,1.33-0.72,2.2-1.29c1.59-0.61,3.18-1.22,4.78-1.84    c2.27,0,4.53,0,6.8,0c0.68,0,1.59,0.49,2.2,0.18c0.92,0.24,1.84,0.49,2.76,0.73c0.67,0.49,1.35,0.98,2.02,1.47    c0.43,0.55,0.86,1.1,1.29,1.65c0.31,0.18,0.61,0.37,0.92,0.55c0,0.46,0.78,1.47,1.29,1.47c0.18,0.31,0.37,0.61,0.55,0.92    c0.55,0.54,1.11,1.08,1.66,1.62c0.54,0.68,2.45,2.67,3.33,2.34c0.77-0.31,1.53-0.61,2.3-0.92c0.13-0.12,0.25-0.24,0.38-0.36    c0.75-0.34,1.5-0.69,2.24-1.03c0.49-0.13,0.98-0.27,1.47-0.4c0.24-0.23,0.49-0.47,0.73-0.7c1.01-0.27,1.8-0.51,2.57-1.29    c1.57-0.25,3.38-0.77,4.74-1.49c1.91-0.06,3.82-0.11,5.73-0.17c0.9-0.43,2.65-0.58,3.67-0.37c0.62-0.4,3.35-1.65,4.04-1.65    c0.98-0.73,1.96-1.47,2.94-2.2c0.92-0.37,1.84-0.73,2.76-1.1c0.78-0.03,1.55-0.06,2.33-0.09c0.54-0.1,1.21,0.39,1.58-0.22    c0.14-0.33,0.58,0.23,0.45-0.23c-0.23-0.68-0.46-1.35-0.69-2.03c0-1.22,0-2.45,0-3.67c-0.77-0.77-0.24-2.33-0.18-3.31    c0-1.22,0-2.45,0-3.67c-0.18-0.43-0.37-0.86-0.55-1.29c-1.17-1.17-1.78-2.16-2.02-3.75c-0.12-0.81-0.04-2.09,0.55-2.68    c0-0.47,0.08-1.29,0.37-1.65c-0.04-0.69,0.2-1.9,0.92-2.2c0.31-0.27,0.5-0.35,0.92-0.37c1.06-0.9,2.16-1.24,3.42-1.73    c0.77,0.23,2.18-0.56,2.58-1.14c0.98-0.17,1.71-1,1.59-2c-0.27-1.79-2.05-3.51-2.08-5.53c-0.01-0.44-0.57-0.97-0.18-1.36    c0-0.64,1.45-1.87,1.84-2.55c0.12-0.01,0.24-0.01,0.37-0.02c0.26-1.21,0.52-2.43,0.79-3.65c0.78-0.52,1.07-1.41,1.07-2.32    c0.89-0.51,0.53-1.8,1.26-2.48c-0.09-0.16-0.17-0.32-0.26-0.48c-0.72-1.25-1.85-2-2.86-3.01c0.06-0.06,0.12-0.12,0.18-0.18    c-0.24-0.31-0.49-0.61-0.73-0.92c0-0.81,0.47-1.78-0.49-1.78L164,216.29z"/>
            <circle cx="122.86" cy="245.13" r="1.586"/>
        </g>
        <g id="__Perşembe">
            <path d="    M301.34,213.11c1.27-0.76,2.17-1.91,3.46-2.67c1.57-0.92,2.12-1.61,2.42-3.46l0.06-0.25c0-0.4-0.33-1.07-0.62-1.35    c0.18-1.1-0.48-2.13-1.22-2.87c0-0.69,1.1-1.17,1.1-2.02c0-1.21-0.42-1.44-1.29-2.2c0.11-0.31-0.78-2.01-0.92-2.57    c-0.3-1.2,0.29-2.95,0.73-4.04c-0.27-1.04,0.74-3.19,1.26-4.08c0.28-0.49,0.03-1.02,0.03-1.62c0.21-0.15,0.42-0.29,0.64-0.44    c0.29-0.32-0.59-1.35-0.82-1.58c0-0.67,0-1.35,0-2.02c0-0.72,1.01-1.38,1.47-1.84c0.12-0.18,0.24-0.37,0.37-0.55    c0.51,0,2.39-1.4,2.39-1.84c0.89,0,1.25,0.19,1.65-0.55c0.28-0.06,0.8,0.09,0.78,0.22c0.11,0.35,0.21,0.71,0.32,1.06    c0.67,0.61,1.35,1.22,2.02,1.84c0.58,0.58,3.71-0.55,4.78-0.55c0.38-0.22,1.65,0.24,1.84,0.37c0.06-0.02,0.11-0.03,0.17-0.05    c-0.29-0.02,0.72,0.22,0.94,0.23c0.43-0.06,0.86-0.12,1.29-0.18c0-0.32,0.68-0.3,0.92-0.55c0.47-0.48,0.71-0.97,1.29-1.29    c0.75,0.75,1.46,0.37,2.39,0.37c0.83,0,1.29-0.67,1.29-1.47c0.83,0,3.18,0.12,3.67-0.37c0.37,0.06,0.73,0.12,1.1,0.18    c0.51-0.17,1.01-0.34,1.52-0.51c0.23-0.02,0.46-0.03,0.69-0.05c0,0.24,0.31-0.18,0.37-0.37c0.83,0,1.16-0.78,1.84-1.29    c0.31-0.43,0.61-0.86,0.92-1.29c0-1.01,0.31-2.18,1.1-2.76c0.16-0.55,1.24-0.93,1.4-1.48c0.15-0.12,0.29-0.24,0.44-0.36    c0.79-1.28,0.06-3.01,1.41-4l1.25-0.3c-0.09,0.08-1.79,0.03-2.11-0.29c-1.71-0.31-3.43-0.61-5.14-0.92    c-0.46-0.35-0.93-0.7-1.39-1.05c-0.73-0.47-1-2.88-1-3.73c-0.12-0.24-0.25-0.49-0.37-0.73c-0.32-0.51-1.22-1.47-1.47-1.47    c-0.06-0.18-0.8-0.92-1.1-1.1c-0.67-0.8-1.35-1.59-2.02-2.39c-0.06-0.24-0.12-0.49-0.18-0.73c-0.49-0.8-0.98-1.59-1.47-2.39    c-0.12-0.49-0.24-0.98-0.37-1.47c-0.5-0.25-0.37-0.57-0.37-1.1c-0.12-0.31-0.24-0.61-0.37-0.92c0.13-0.46,0.25-0.93,0.38-1.39    c-0.08-1.04,0.36-1.71,1.27-2.28c-0.06-0.18,0.31-1.33,0.56-1.72c0.04-0.99,0.09-1.99,0.13-2.98c0.65-2.21,1.83-4.13,1.47-6.48    c-0.05-0.19-0.09-0.38-0.14-0.57c-0.43,0.5-0.91,0.12-1.54,0.16c-0.59,0.19-1.18,0.38-1.76,0.57c-0.37-0.37-1.11-0.32-1.65-0.37    c-0.31-0.12-0.61-0.24-0.92-0.37c-0.59-1.07-1.68-0.85-2.47-1.5c-1.96,0.17-4.34,0.51-5.98,1.69c-1.1-1-2.93-0.13-4.04,0.55    c-0.58-0.59-1.94-0.14-2.76,0c-0.29-0.35-0.2-0.3-0.55-0.31c-0.18-0.02-0.37-0.04-0.55-0.06c-0.64-0.64-1.29-1.29-1.93-1.93    c-0.03-0.64-0.06-1.28-0.09-1.92c-0.92-0.61-1.85-0.68-2.82-1.1c-0.71-0.38-0.75-1.32-0.99-2.05c-0.22-0.76-1.04,0.97-0.96,1.5    c-0.55,0.18-1.1,0.37-1.65,0.55c-0.18,0.31-0.37,0.61-0.55,0.92c-0.82,0.95-2,1.08-2.95,1.8c-0.33,0.76-0.86,1.07-1.46,1.69    c0.06,0.61,0.12,1.22,0.18,1.84c-0.17,0.03-0.34,0.06-0.51,0.09c-0.38,0.77-0.77,1.53-1.15,2.3c-0.81,0.26-1.35,1.58-1.65,2.39    c-0.74,0.35-1.48,2.96-2.03,3.78c-0.42,0.39-0.85,0.78-1.27,1.18c0,1.01-1.12,2.12-1.84,2.76c-0.49,0.06-1.35,1.04-1.29,1.47    c-0.12,0.67-0.24,1.35-0.37,2.02l0.1,0.68c0.36,0.07,0.79,0.29,1.19,0.43c0.38-0.38,0.72,0.14,1.1,0.37    c1.16,0.12,2.33,0.24,3.49,0.37c0.37,0.18,0.73,0.37,1.1,0.55c0.18,0.12,0.37,0.24,0.55,0.37c-0.02,0.87-0.09,1.56-0.37,2.39    c-0.55,0.43-1.1,0.86-1.65,1.29c-0.31,0.06-0.61,0.12-0.92,0.18c-0.12,0.18-0.24,0.37-0.37,0.55c0,0.96,0.41,1.51,1.1,2.2    c-0.06,0.35,0.35,1.29-0.18,1.29c0.12,0.12,0.24,0.25,0.37,0.37c-0.06,0.61-0.12,1.22-0.18,1.84c-0.74,0.74-0.3,2.18,0,3.12    c-0.39,0.39-0.07,0.8,0,1.29c-0.18,0.98-0.37,1.96-0.55,2.94c0.06,0.18,0.12,0.37,0.18,0.55c0,0.72,1.02,0,1.47,0    c0.63-0.65,1.51-0.92,2.39-0.92c0.83-0.83,1.61-1.44,2.85-0.95c0.57,0.21,1.32,3.23,1.5,3.73c0.3,0.75-1.85,1.45-2.32,1.45    c-0.53,0.53-0.74,2.96-0.37,3.67c-0.61,0.67-1.22,1.35-1.84,2.02c0.37,0.8-0.63,2.47-1.29,3.12c-0.12,0.37-0.25,0.73-0.37,1.1    c0.06,0.86,0.12,1.71,0.18,2.57c-0.06,0.12-0.12,0.24-0.18,0.37c0.71,0.71,0.6,1.87,1.1,2.76c-0.28,0.63,0.11,3.37,0.37,4.04    c-0.23,0.35-0.09,0.53,0,0.92c-0.38,0.88-0.08,1.83,0.18,2.76c-0.37,0.43-0.28,1.46-0.18,2.02c-0.41,0.7-0.21,1.85,0,2.57    c-0.06,0.49-0.12,0.98-0.18,1.47c0.37,0.43,0.73,0.86,1.1,1.29c1.41,1.41,2.82,2.82,4.22,4.22c0,0.91,0.44,2.31,0.92,3.12    c-0.23,0.39-0.15,0.37,0,0.73c-0.26,0.26-0.18,0.56-0.18,0.92L301.34,213.11z"/>
            <circle cx="326.94" cy="149.8" r="1.586"/>
        </g>
        <g id="__Altınordu">
            <path d="    M344.51,164.9c-1.35,0.99-0.62,2.72-1.41,4c-0.15,0.12-0.29,0.24-0.44,0.36c-0.16,0.55-1.24,0.93-1.4,1.48    c-0.79,0.58-1.1,1.74-1.1,2.76c-0.31,0.43-0.61,0.86-0.92,1.29c-0.67,0.5-1.01,1.29-1.84,1.29c-0.06,0.18-0.12,0.37-0.18,0.55    c-0.24,0-0.18,0.06-0.18-0.18c-0.23,0.02-0.46,0.03-0.69,0.05c-0.5,0.17-1.01,0.34-1.52,0.51c-0.37-0.06-0.73-0.12-1.1-0.18    c-0.49,0.49-2.85,0.37-3.67,0.37c0,0.8-0.46,1.47-1.29,1.47c-0.93,0-1.64,0.38-2.39-0.37c-0.57,0.32-0.81,0.8-1.29,1.29    c-0.24,0.25-0.92,0.23-0.92,0.55c-0.43,0.06-0.86,0.12-1.29,0.18c-0.21-0.01-1.22-0.25-0.94-0.23c-0.06,0.02-0.11,0.03-0.17,0.05    c-0.18-0.12-0.37-0.24-0.55-0.37c0,0.53-0.91-0.22-1.29,0c-1.07,0-4.19,1.13-4.78,0.55c-0.67-0.61-1.35-1.22-2.02-1.84    c-0.11-0.35-0.21-0.71-0.32-1.06c0.02-0.14,0.04-0.27,0.06-0.41c-0.28,0.06-0.56,0.12-0.84,0.18c-0.4,0.74-0.77,0.55-1.65,0.55    c0,0.43-1.88,1.84-2.39,1.84c-0.12,0.18-0.24,0.37-0.37,0.55c-0.46,0.46-1.47,1.12-1.47,1.84c0,0.67,0,1.35,0,2.02    c0.23,0.23,1.11,1.26,0.82,1.58c-0.21,0.15-0.42,0.29-0.64,0.44c0,0.6,0.25,1.13-0.03,1.62c-0.51,0.89-1.53,3.03-1.26,4.08    c-0.45,1.09-1.03,2.84-0.73,4.04c0.14,0.56,1.03,2.26,0.92,2.57c0.87,0.76,1.29,1,1.29,2.2c0,0.85-1.1,1.33-1.1,2.02    c0.74,0.74,1.4,1.77,1.22,2.87c0.29,0.29,0.62,0.96,0.62,1.35c0.94-0.94,1.54-0.73,2.94-0.73c0.79-0.79,2.66-2.39,3.86-2.39    c0.48-0.31,1.61-1.14,2.02-0.73c0-0.28,1.96-0.62,2.2-0.55c0.43,0.12,0.86,0.25,1.29,0.37c0.56,0.56,1.07,1.45,1.84,1.65    c0.85,0.23,1.3,0,1.84-0.37c0.37-0.24,0.54-0.34,1.29-0.49c0.67-0.13,1.11-0.72,1.91-0.61c0.16-0.18,0.32-0.37,0.48-0.55    c0.71,0.26,2.29,0.44,2.94,0.18c0.4,0.25,1.13,1.08,1.47,0.73c0.33,0.27,0.72,0.93,1.1,0.55c0.35,0.3,0.82,0.92,1.29,0.92    c0.33,0.93,0.24,0.95,1.02,1.37c0.68,0.37,3.38,1.09,3.94,0.65c0.51,0.42,1.25,0.33,1.65,0.73c0.4,0,0.45,0.82,0.73,1.1    c0.14,0.5,0.62,1.1,0.73,1.1c-0.06,0.49-0.12,0.98-0.18,1.47c0.06,0.18,0.12,0.37,0.18,0.55c0.47,0.47,0.55,1.21,0.55,1.84    c0.8,0.8,1.4,2.23,1.27,3.43c0.03,0.24,0.07,0.48,0.1,0.72c-0.45,0.59-1.38,1.15-1.38,1.91c0.39,0.39,0.41,1.84,1.29,1.84    c0.03,0.2,0.06,0.41,0.09,0.61c-1.19,0.79-2.92,0.25-4.13-0.06c-0.41-0.11-1.1,0.33-1.1,0.73c-0.41,2.06,0.67,2.44,1.84,3.67    c0.43,0.67,0.86,1.35,1.29,2.02c0,0.06,0,0.12,0,0.18c0.4-0.4,0.74,1.84,1.1,2.2c0.06,0.18,0.12,0.37,0.18,0.55    c-0.11,1.47,0.35,2.41,0.55,3.86c0.41,0,0.02,0.88,0.55,1.29c-0.06,0.31-0.12,0.61-0.18,0.92c0.26-0.26,2.07,1.44,2.57,1.84    c0.74,0,2.35,1.06,2.94,1.65c1.08,0.24,2.15,0.47,3.23,0.71c0.23,0.08,0.59,0.29,0.96,0.46c0.51,0.23,1.04,0.4,1.3,0.13    c0.38-0.37,1.3-0.88,1.3-1.48c0.06-0.31,0.12-0.61,0.18-0.92c-0.34,0.34-0.67-1.24-0.73-1.65c-0.98-0.98-1.59-2.08-2.57-3.12    c-0.28-0.3-0.98-1.04-1.29-0.73c-0.48-0.74-0.96-1.48-1.44-2.22c-0.08-0.36,0.09-1.03,0.33-1.27c-1.12-1.12,0.09-3.45,1.06-4.4    c0.07-0.71,1.07-2.17,1.51-2.77c0.55-0.98,1.1-1.96,1.65-2.94c-0.06-0.06-0.12-0.12-0.18-0.18c0.6-1.94,1.02-2.88,2.57-4.04    c0.24-0.18,0.49-0.37,0.73-0.55c0.82-0.82,1.63-2.01,2.76-2.39c0.24-0.71,0.82-3.49,1.84-3.49c0.45,0,0.79,0.05,1.1,0.37    c1.32,0,2.76,1.61,2.76,2.94c0.4,0.4,0.54,0.73,0.55,1.29c0.53,0.53,1.59,2.6,1.84,3.49c0.47,0,0.9,1.44,1.09,1.89    c0.84,1.97,0.91,3.54,1.48,5.45c0.45,0,0.76,0.73,1.65,0.73c1.1-1.1,1.06-2.02,3.12-2.02c0.36,0,1.29-0.35,1.29,0.37    c-0.31,0.61-0.61,1.22-0.92,1.84c-0.31,0.24-0.61,0.49-0.92,0.73c0.06,0.12,0.12,0.24,0.18,0.37c-0.55,1.04-1.1,2.08-1.65,3.12    c0.06,0.12,0.12,0.25,0.18,0.37l-0.55,1.65c-0.82,1.08-0.68,0.9-0.92,2.2c-0.31,0.61-0.61,1.22-0.92,1.84    c-1.09,0.62-1.99,2.02-3.31,2.02c-0.31,0.29-0.61,0.59-0.92,0.88c0,0.17-0.89,2.06-0.37,2.06c0.15,0.41,0.18,1.1,0.73,1.1    c0.43,0.06,0.86,0.12,1.29,0.18c1.15,0.11,1.08-0.5,2.2,0c0-0.31,1.2-0.02,1.45,0c0.28,0.02,1.67-0.44,1.67-0.73    c0.62-0.32,1.15-0.32,1.47-0.92c0.67-0.12,1.35-0.24,2.02-0.37c0.73-0.12,1.47-0.24,2.2-0.37c0.28,0.28,0.98,0.49,1.29,0.18    c0.72,1.02,0.97,1.77,0.92,2.76c0.13,0.2,0.26,0.41,0.39,0.61c0.24,0.16,0.47,0.33,0.71,0.49c-0.07,0.33-0.1,0.22,0.18,0.55    c-0.03,0.97-0.1,3.71,0.55,4.22c-0.05,0.4-0.2,0.75,0,1.1c0.1,0.25,0.2,0.5,0.29,0.75c0.21,0.24,0.42,0.48,0.63,0.72    c-0.27,0.27-0.08,0.84,0.18,1.1c0.37,0.52,0.43,1.04,0.92,1.1c0.31,0.24,0.61,0.49,0.92,0.73c0.86-0.06,1.71-0.12,2.57-0.18    c0.24-0.12,0.49-0.24,0.73-0.37c0.53-0.15,1.23,0.24,1.65-0.18c0.39,0,0.82,0.1,1.1-0.18c0.18-0.06,0.37-0.12,0.55-0.18    c0.24,0.06,0.49,0.12,0.73,0.18c0.27-0.27,0.55-0.62,0.55-0.37c0.26-0.14,0.73-0.27,0.75-0.55c0.06-0.5-0.09-0.57,0.35-0.92    c-0.18-0.37,1.65-1.29,1.47-1.65c0-0.39-0.09-1.56-0.77-1.97c-1.09-0.69-2.18-1.38-3.27-2.07c-0.55-0.92-1.1-1.84-1.65-2.76    c0.28-0.28,0.09-0.56,0-0.92c-0.64-0.64-1.11-1.86-0.37-2.57c-0.06-0.43-0.12-0.86-0.18-1.29c-0.54-1.13-0.73-2.93-0.73-4.22    c0-0.43-0.21-0.91,0-1.29c-0.18-0.8-0.37-1.59-0.55-2.39c0.06-0.49,0.12-0.98,0.18-1.47c-0.06-0.37-0.12-0.73-0.18-1.1    c0.43-1.22,0.86-2.45,1.29-3.67c0.39-0.39,1.1-2.25,1.1-2.76c0.4-0.4,1.47-1.13,1.47-1.84c0.31-0.24,0.61-0.49,0.92-0.73    c0.43-0.8,0.86-1.59,1.29-2.39c0.3,0.3,0.27,0.04,0.45-0.25c0.28-0.53,0.56-1.06,0.84-1.59c-0.39-0.39-0.55-1.13-0.55-1.65    c-0.11-0.36-0.21-0.71-0.32-1.07c-0.14-0.32-0.28-0.64-0.42-0.95c0.12-1.47,0.24-2.94,0.37-4.41c0.38-0.42,0.55-0.52,0.55-1.1    c0.65-0.65,1.14-1.22,0.92-2.2c-0.6-2.71-2.09-6.32-4.04-8.27c-0.12-0.67-0.24-1.35-0.37-2.02c-0.12-0.06-0.25-0.12-0.37-0.18    c-0.12-0.55-0.24-1.1-0.37-1.65c-0.24-0.61-0.49-1.22-0.73-1.84c-0.36-0.36-1.84-1.24-1.84-1.65c-0.93,0-1.8-0.16-2.57-0.73    c-0.46-0.34-0.71-0.55-0.73-1.1c-1.09-0.41-1.04-0.49-1.84-1.29c0-1.1-1.65-2.07-1.65-3.31c-0.18-0.06-0.92-0.31-1.1-0.37    c-0.73-0.5-0.93-1.1-1.47-1.65c0-0.65,0.25-0.93,0.04-1.1c-0.35-0.28-1.97-0.25-8.12-1.1c-1.08-0.15-2.04,0.16-2.94-0.73    c-2.16,0.4-4.13,0.55-6.43,0.55c-0.67,0.06-1.35,0.12-2.02,0.18c-0.92-0.12-1.84-0.24-2.76-0.37c-0.14,0.17-0.95,1.6-1.14,1.21    c-0.6-1.31-1.07-2.3-1.98-3.59c-0.06,0.12-0.12,0.24-0.18,0.37c0.12-0.67,0.24-1.35,0.37-2.02c-0.68-0.68-1.03-1.82-1.29-2.76    c-0.09-0.34,0.11-0.45-0.18-0.73c0-0.56-0.16-1.27-0.55-1.65c0.29-0.29-0.28-1.25-0.59-1.37c-2.65-0.85-1.3-0.46-1.98-0.65    c-0.28-0.28-0.75-0.35-1.65-0.73c-1.05,0.18-2.26,0.32-2.89-0.09c-0.32-0.21-0.96-0.22-0.96-0.64    C345.41,164.63,344.96,164.76,344.51,164.9z"/>
            <circle cx="355.78" cy="179.19" r="1.586"/>
        </g>
        <g id="__Gülyalı">
            <path d="    M397.66,215.19c-0.39-0.39-0.55-1.13-0.55-1.65c-0.11-0.36-0.21-0.71-0.32-1.07c-0.14-0.32-0.28-0.64-0.42-0.95    c0.12-1.47,0.24-2.94,0.37-4.41c0.38-0.42,0.55-0.52,0.55-1.1c0.65-0.65,1.14-1.22,0.92-2.2c-0.6-2.71-2.09-6.32-4.04-8.27    c-0.12-0.67-0.24-1.35-0.37-2.02c-0.12-0.06-0.25-0.12-0.37-0.18c-0.12-0.55-0.24-1.1-0.37-1.65c-0.24-0.61-0.49-1.22-0.73-1.84    c-0.36-0.36-1.84-1.24-1.84-1.65c-0.93,0-1.8-0.16-2.57-0.73c-0.46-0.34-0.71-0.55-0.73-1.1c-1.09-0.41-1.04-0.49-1.84-1.29    c0-1.1-1.65-2.07-1.65-3.31c-0.18-0.06-0.92-0.31-1.1-0.37c-0.73-0.5-0.93-1.1-1.47-1.65c0-0.65,0.25-0.93,0.04-1.1l-0.22-0.19    c2.86,0.06,5.71,0.11,8.57,0.17c0.76,0.43,1.51,0.87,2.27,1.3c0.45-0.18,0.97-0.24,1.47-0.18c0.37,0.06,0.73,0.12,1.1,0.18    c1.51,0.61,2.8,0.73,4.41,0.73c0.12,0.18,0.24,0.37,0.37,0.55c0.73,0.43,1.47,0.86,2.2,1.29c1.14,0.55,3.51,0.55,4.78,0.55    c0,0.3,0.3,0.35,0.56,0.45c0.59,0.1,1.19,0.2,1.78,0.29c1.29,1,3.09,0.91,4.64,0.91c0.49,0.49,2.31,0.68,2.94,0.37    c1.56,0.72,2.88,1.47,4.59,1.47c-0.12,0-0.24,0-0.37,0c0,0.81-0.73,1.3-0.73,2.02c-0.87,0.29-1.35,0.81-1.76,1.69    c-0.02,0.23-0.05,0.46-0.07,0.69c-0.45,0.95-1.2,1.87-1.29,2.94c0.06,0.37,0.12,0.73,0.18,1.1c-0.58,0.58-0.73,1.36-0.73,2.2    c-1.16,0.96-2.13,1.78-3.31,2.76c0.12,0.18,0.24,0.37,0.37,0.55c-0.06,0.18-0.12,0.37-0.18,0.55c0.06,0.31,0.12,0.61,0.18,0.92    c-0.43,1.04-0.86,2.08-1.29,3.12c-2.82,1.53-4.21,4.04-7.71,4.04c-0.24,0.12-0.49,0.24-0.73,0.37c-1.09,1.04-2.18,2.09-3.27,3.13    c-0.77,0.92-1.27,2.08-2.24,2.74V215.19z"/>
            <circle cx="402.98" cy="185.25" r="1.586"/>
        </g>
        <g id="__Kabadüz">
            <path d="    M396.02,253.03c-0.03,0.28-0.5,0.41-0.75,0.55c0-0.25-0.29,0.09-0.55,0.37c-0.24-0.06-0.49-0.12-0.73-0.18    c-0.18,0.06-0.37,0.12-0.55,0.18c-0.29,0.29-0.71,0.18-1.1,0.18c-0.42,0.42-1.12,0.04-1.65,0.18c-0.24,0.12-0.49,0.25-0.73,0.37    c-0.86,0.06-1.71,0.12-2.57,0.18c-0.31-0.24-0.61-0.49-0.92-0.73c-0.49-0.06-0.55-0.58-0.92-1.1c-0.26-0.26-0.45-0.83-0.18-1.1    c-0.21-0.24-0.42-0.48-0.63-0.72c-0.1-0.25-0.2-0.5-0.29-0.75c-0.2-0.36-0.05-0.7,0-1.1c-0.66-0.51-0.58-3.25-0.55-4.22    c-0.29-0.33-0.25-0.23-0.18-0.55c-0.24-0.16-0.47-0.33-0.71-0.49c-0.13-0.2-0.26-0.41-0.39-0.61c0.05-0.98-0.2-1.73-0.92-2.76    c-0.31,0.31-1,0.1-1.29-0.18c-0.73,0.12-1.47,0.25-2.2,0.37c-0.67,0.12-1.35,0.24-2.02,0.37c-0.32,0.6-0.85,0.6-1.47,0.92    c0,0.3-1.39,0.75-1.67,0.73c-0.25-0.02-1.45-0.31-1.45,0c-1.13-0.5-1.05,0.11-2.2,0c-0.43-0.06-0.86-0.12-1.29-0.18    c-0.56,0-0.59-0.69-0.73-1.1c-0.53,0,0.37-1.89,0.37-2.06c0.31-0.29,0.61-0.59,0.92-0.88c1.32,0,2.21-1.4,3.31-2.02    c0.31-0.61,0.61-1.22,0.92-1.84c0.24-1.31,0.1-1.12,0.92-2.2l0.55-1.65c-0.06-0.12-0.12-0.24-0.18-0.37    c0.55-1.04,1.1-2.08,1.65-3.12c-0.06-0.12-0.12-0.24-0.18-0.37c0.31-0.24,0.61-0.49,0.92-0.73c0.31-0.61,0.61-1.22,0.92-1.84    c0-0.72-0.93-0.37-1.29-0.37c-2.06,0-2.02,0.92-3.12,2.02c-0.89,0-1.2-0.73-1.65-0.73c-0.57-1.91-0.64-3.48-1.48-5.45    c-0.19-0.45-0.62-1.89-1.09-1.89c-0.25-0.89-1.3-2.96-1.84-3.49c-0.02-0.56-0.15-0.89-0.55-1.29c0-1.33-1.43-2.94-2.76-2.94    c-0.31-0.31-0.65-0.37-1.1-0.37c-1.02,0-1.6,2.78-1.84,3.49c-1.12,0.38-1.94,1.57-2.76,2.39c-0.24,0.18-0.49,0.37-0.73,0.55    c-1.56,1.16-1.97,2.1-2.57,4.04c0.06,0.06,0.12,0.12,0.18,0.18c-0.55,0.98-1.1,1.96-1.65,2.94c-0.44,0.59-1.43,2.06-1.51,2.77    c-0.98,0.94-2.19,3.27-1.06,4.4c-0.24,0.24-0.41,0.92-0.33,1.27c0.48,0.74,0.96,1.48,1.44,2.22c0.31-0.31,1.01,0.44,1.29,0.73    c0.99,1.05,1.59,2.14,2.57,3.12c0.07,0.42,0.39,2,0.73,1.65c-0.06,0.31-0.12,0.61-0.18,0.92c0,0.6-0.93,1.11-1.3,1.48    c-0.26,0.27-0.8,0.1-1.3-0.13l0.03,0.85c0.21,0.3,0.42,0.6,0.63,0.9c0.02,0.22,0.03,0.45,0.05,0.67c0.33,0.71,0.51,1.3,0.98,1.92    c0.06,0.31,0.12,0.61,0.18,0.92c-0.49,1.57-0.32,2.45-0.37,4.04c-0.58,0.58-1.1,1.23-1.1,2.02c0.45,0.45,0.92,0.99,0.92,1.65    c0.39,0.42,0.77,0.84,1.16,1.26c0.15,0.37,0.3,0.74,0.45,1.11c-0.17,0.86-0.34,1.72-0.51,2.58c-1.34,2.2-3.39,3.94-4.27,6.38    c-0.11,0.63-0.22,1.26-0.33,1.89c0.44,1.53,1.05,3.12,0.3,4.66c-0.77,0.96-1.55,1.91-2.32,2.87c-1,1.3-0.94,3.26-1.47,4.78    c-0.67,0.98-1.35,1.96-2.02,2.94c0.06,1.04,0.12,2.08,0.18,3.12c0.91,1.52,2.07,1.49,3.49,2.39c0.39,0.09,0.78,0.19,1.17,0.28    c1.19,0.72,2.37,1.44,3.56,2.16c0.99,0.5,1.44-0.21,2.31,0.89c0.6-0.03,0.47-0.09,0.61,0.36c0.22,0.81,0.84,3.8,0.25,4.39    c0.43,0.86,0.86,1.71,1.29,2.57c1.01,0.52,1.54,1.81,1.47,2.94c1.43,1.85,2.55,4.08,3.56,6.21c0.23,0.49,0.83,1.01,1.03,1.69    c0.08,0.48,0.15,0.96,0.23,1.45c0.35,0.99,0.7,1.97,1.06,2.96c1.33,1.42,2.82,2.41,4.22,3.67c0.56,0.51,1.2,1.14,1.47,1.84    c0.8,0.55,1.59,1.1,2.39,1.65c1.23,0.83,2.88,0.83,4.04,1.65c0.31,0.37,0.61,0.73,0.92,1.1c0.24,0.12,0.49,0.25,0.73,0.37    c0.61,0.67,1.22,1.35,1.84,2.02c0.31,0.49,0.61,0.98,0.92,1.47c0.06,0.55,0.12,1.1,0.18,1.65c-0.05,1.21-0.29,1.5,0,2.76    c-0.34,0-0.36,0.83-0.55,1.1c0.12,0.8,0.24,1.59,0.37,2.39c1.21,1.21,1.98,3.05,3.12,4.04c0.96,0.83,1.99,1.59,3.14,2.13    c0.42,0.15,0.85,0.29,1.27,0.44c0.31,0.21,0.51,0.37,0.92,0.37c0.95,0.95,3.52,1.29,4.78,1.29c0.38,0.38,3.1,1.21,4.59,1.47    c0.4-0.26-0.33-0.63-0.39-1.12c-0.04-0.64,0.3-3.01,0.02-3.29c0.3-0.3,0.15-0.7,0.21-1.1c0.11-1.04,0.23-2.08,0.34-3.12    c0.28,0,0.92-2.96,0.92-3.49c0.37-0.49,1.1-1.21,1.1-1.84c0.74-0.74,1.76-2.88,2.76-3.12c0.13-0.26,0.26-0.53,0.39-0.79    c0.56-0.69,1.7-0.94,1.6-1.92c0.24-0.43,0.49-0.86,0.73-1.29c0.28-1.75-1.24-3.5-2.66-4.28c-0.11-0.69-1.31-0.96-1.76-1.54    c-0.35-0.46-0.95-0.82-1.06-1.38c-0.82-0.59-1.53-1.15-2.02-2.02c-0.39-0.68-1.16-1.04-1.47-1.84c-0.46-1.18-0.31-2.45-0.55-3.67    c-0.32-1.67-0.63-3.3-0.73-4.96c-0.04-0.69-0.49-1.58-0.18-2.2c-0.18-0.67-0.37-1.35-0.55-2.02c-0.18-1.76,0.08-3.34-0.41-5.13    c-0.32-1.15-0.2-1.66-1.06-2.52c-0.12-0.61-0.73-1.4-1.1-1.71c0.09-1.03-0.4-2.07-0.63-3.09c-0.28-1.28-0.79-3.1-1.76-4.08    c-1.59-3.31-3.18-6.61-4.78-9.92c-0.31-2.02-0.61-4.04-0.92-6.06c0.98-3.66,2.92-5.91,4.81-9.06c0.45-0.17,0.52-0.49,0.73-0.9    c0.7-0.3,1.18-1.26,1.47-1.94c0.62-0.41,1.81-2.18,2.18-2.92L396.02,253.03z"/>
            <circle cx="359.45" cy="222.54" r="1.586"/>
        </g>
        <g id="__Kabataş">
            <path d="    M253.85,254.65c-0.42-0.61-0.84-1.22-1.26-1.83c-0.38-0.6-0.77-1.21-1.15-1.81c-0.61-0.55-1.22-1.1-1.84-1.65    c-0.4-0.51-0.8-1.03-1.21-1.54c-0.09-0.1-0.97,0.12-1.22,0.19c-0.24,0.64-1.67,2.7-2.53,3.93c-0.41,0.39-1.1,1.29-1.48,1.3    c-0.44,0.02-0.53,0.01-0.77-0.36c-0.72-0.74-1.44-1.48-2.16-2.23c0-0.79-0.34-1.17-0.73-1.84c-0.06-0.31-0.12-0.61-0.18-0.92    c-0.18-0.37-0.37-0.73-0.55-1.1c-0.39-1.08-0.45-2.17-1.84-2.21c-0.45,0-1.96-0.23-2.01-0.17c-0.19,0.24-0.38,0.49-0.56,0.73    c-0.37,0.24-0.73,0.49-1.1,0.73c-0.37,1.16-0.73,2.33-1.1,3.49c-0.98,1.59-2.33,2.57-3.45,2.95c-0.99,0.42-1.97,0.83-2.96,1.25    c-0.61,0.16-1.52,0.18-2.04-0.16c-0.45,0.12-0.47,0.27-0.92,0c-0.31,0.06-0.61,0.12-0.92,0.18c-0.51,0.28-1.3,0.77-1.84,0.55    c-0.73,0.55-1.47,1.1-2.2,1.65c-0.98,1.22-2.82,4.04-2.76,4.22c-0.18,0.37-0.37,0.73-0.55,1.1c-0.06,1.47-0.12,2.94-0.18,4.41    c-0.36,0.36-0.69,1.14-0.55,1.65c-0.43,0.49-0.86,0.98-1.29,1.47c-0.12,0.67-0.24,1.35-0.37,2.02c-0.48,0.48-1.92,1.9-1.29,2.2    c0.8-0.18,1.59-0.37,2.39-0.55c1.09,0.82,1.72,1.49,2.94,0.55c0.25-0.19,0.55-0.16,0.55-0.55c0.95,0,2.9,0.26,3.4-0.75    c0.2-0.4,0.51-2.08,0.45-2.56c0.62-1.21,1.23-2.43,1.85-3.64c0.45-0.8,1.03-1.47,2-1.55c0.12-0.1,0.79-0.15,1.11-0.32    c0.31,0.12,0.61,0.25,0.92,0.37c0.43,0.28,1.01,0.93,1.47,0.92c0.24,0.31,0.49,0.61,0.73,0.92c1.69,0.97,3.42,1.94,5.26,2.85    c1.14,0.56,2.94,0.4,3.19,0.46c0.42-0.1,0.84-0.21,1.26-0.31c0.89,0.37,2.79,1.54,2.72,2.45c0.07,0.13-0.01,0.66,0.06,0.8    c-0.06,0.92-0.8,2.02-0.46,3.05c0.26,0.3,0.43,0.39,0.46,0.81c1.19,0.55,1.84,1.1,2.94,0.28c0.56-0.03,1.24-0.85,1.56-1.29    c0.58-0.37,0.55-0.92,1.17-1.46c0.39-0.34,0.87-0.56,1.31-0.84c1.04-0.18,2.08-0.37,3.12-0.55c0.61-0.31,1.22-0.61,1.84-0.92    c0.8-0.35,2.27-1.15,2.89-1.45c0.21-0.21,1.24-1.68,1.45-2.14c-0.02-0.54,0.39-1.47,0.07-2.3c-0.86-2.57-0.15-5.04-1.33-7.51    c-0.55-1.15-0.92-2.09-2.16-2.82L253.85,254.65z"/>
            <circle cx="240.05" cy="260.56" r="1.586"/>
        </g>
        <g id="__Gölköy">
            <path d="    M307.1,250.73c0.31-0.37,0.34,1.04,0.67,1.33c2.05,1.82,3.68,3.77,5.5,5.93c1.2,1.42,1.89,2.73,3.19,4.04    c-0.05,0.72,0.79,1.52,1.29,2.02c-0.17,0.8,0.6,1.45,1.1,2.02c0.05,0.57,0.75,1.72,1.1,2.2c-0.12,0.41,0.14,0.58,0.37,0.92    c-0.35,1.03,0.88,2.92,0.92,4.04c0.05,1.3,0.07,2.57,0.55,3.86c-0.57,0.47-0.36,1.19-0.18,1.84c-0.86,0.49-0.92,2.01-0.92,2.94    c-0.12,0.31-0.24,0.61-0.37,0.92c-1.19,0.72-0.03,4.92,0.18,5.88c-1.1,1.29-3.01,3.22-4.57,4.43c-0.31,0.36-0.62,0.72-0.94,1.08    c-0.61,0.43-1.22,0.86-1.84,1.29c-0.86,0.73-1.71,1.47-2.57,2.2c-0.82,1.28-2.42,2.33-3.73,3.05c-0.7,0.38-1.38,1.15-2.17,1.2    c-1.21,1.4-4,2.87-5.88,3.38c-1.48-0.01-2.97-0.02-4.45-0.02c-2.57,0.49-5.22,1.28-7.28,2.87c0,0.63-0.59,1.14-0.92,1.65    c-0.18,0.61-0.37,1.22-0.55,1.84c0.3,0.82-0.03,4.03-0.18,4.96c-0.45,0.29-0.67,1.16-0.79,1.66c-0.14,0.59-0.02,1.05,0.06,1.64    c-0.49,0.41-0.43,1.23-0.37,1.84c-0.29,0.25-0.51,1.09-0.55,1.47c-0.8,1.22-1.59,2.45-2.39,3.67c-0.56,0.56-1.57,1.19-1.84,2.02    c-0.06,0.31-0.12,0.61-0.18,0.92c-0.51,0.6-1.01,1.21-1.52,1.81c-0.11,0.38-0.21,0.75-0.32,1.13c-0.26,0.06-0.95,1.03-1.27,1.31    c-0.19,0.16-0.45,0.24-0.76,0.26c-1.01,0.07-2.49-0.49-3.3-0.84c-0.67-0.12-1.35-0.24-2.02-0.37c-0.36,0.17-0.57-0.05-0.92-0.18    c-0.98,0-1.96,0-2.94,0c-0.67,0.06-1.35,0.12-2.02,0.18c-0.41,0.29-0.62,0.22-1.1,0.18c-0.53,0.39-1.23,0.09-1.84,0.18    c-1.72,0.27-3.77-0.69-5.36-1.23c-0.33-0.11-0.34-1.99-0.34-2.45c-0.49-1.77-0.98-3.54-1.47-5.32c-1.14-1.69-0.98-4.15-2.2-5.88    c-0.82-1.16-1.54-2.68-2.76-3.49c-0.27-0.82-0.66-1.95-1.29-2.57c-0.27-1.86-1.31-3.84-2.02-5.51c0.12-0.48-0.08-0.8-0.18-1.29    c0.47-0.49,0.26-3.91,0-4.78c0.25-0.43,0.09-1.33,0-1.84c0.7-0.78-0.18-3.01-0.55-3.86c-0.06-0.31-0.12-0.61-0.18-0.92    c0.98-1.16,1.96-2.33,2.94-3.49c0.18-0.86,0.37-1.71,0.55-2.57c0.12-0.06,0.24-0.12,0.37-0.18c0.26-1.17,0.49-2.72,1.26-3.69    c-0.05-0.55-0.1-1.09-0.16-1.64c0-0.54-0.48-0.88-0.92-1.1c0.12-0.48-0.44-0.82-0.78-1.08c-0.82-0.61-1.27-1.42-1.79-2.23    c0-0.67,0.12-0.8,0.12-1.47c0.98-1.35,0.25-2.99,0.06-3.67l0.16,0.1c0.39-0.34,0.87-0.56,1.31-0.84c1.04-0.18,2.08-0.37,3.12-0.55    c0.61-0.31,1.22-0.61,1.84-0.92c0.8-0.35,2.27-1.15,2.89-1.45c0.21-0.21,1.24-1.68,1.45-2.14c-0.02-0.54,0.39-1.47,0.07-2.3    c-0.86-2.57-0.15-5.04-1.33-7.51c-0.55-1.15-0.92-2.09-2.16-2.82l-0.16-0.17c1.4-0.56,3.9-1.39,4.71-1.5    c0.61-0.06,3.91,0.15,4.52,0.09c2.66,1.33,5.15,2.86,6.96,5.21c0.56,0.72,2.76,4.05,2.52,4.87c0.24-0.01,1.05-0.91,1.29-0.92    c0.82-0.12,0.63-0.46,1.39-0.82c1-0.47,2.12-0.69,3.2-0.83c1.13,0.05,2.25,0.11,3.38,0.16c0.44-0.17,0.92-0.18,1.22-0.53    c0.92,0.06,1.84,0.12,2.76,0.18c0.61-0.18,1.22-0.37,1.84-0.55c0.92-1.29,1.84-2.57,2.76-3.86c1.16-0.67,2.33-1.35,3.49-2.02    c0.38-0.36,0.75-0.71,1.13-1.07c0.54-0.32,1.09-0.64,1.63-0.95c0.92-0.06,1.84-0.12,2.76-0.18c0.54-0.16,1.08-0.33,1.61-0.49    c0.54,0.29,2.09-0.25,2.68-0.43c0.25,0.15,1.96,0.55,3.3-0.31L307.1,250.73z"/>
            <circle cx="285.06" cy="282.97" r="1.586"/>
        </g>
        <g id="__Aybastı">
            <path d="    M255.67,329.8c-0.49-1.77-0.98-3.54-1.47-5.32c-1.14-1.69-0.98-4.15-2.2-5.88c-0.82-1.16-1.54-2.68-2.76-3.49    c-0.27-0.82-0.66-1.95-1.29-2.57c-0.27-1.86-1.31-3.84-2.02-5.51c0.12-0.48-0.08-0.8-0.18-1.29c0.47-0.49,0.26-3.91,0-4.78    c0.25-0.43,0.09-1.33,0-1.84c0.7-0.78-0.18-3.01-0.55-3.86c-0.06-0.31-0.12-0.61-0.18-0.92c0.98-1.16,1.96-2.33,2.94-3.49    c0.18-0.86,0.37-1.71,0.55-2.57c0.12-0.06,0.24-0.12,0.37-0.18c0.26-1.17,0.49-2.72,1.26-3.69c-0.05-0.55-0.1-1.09-0.16-1.64    c0-0.54-0.48-0.88-0.92-1.1c0.12-0.48-0.44-0.82-0.78-1.08c-0.82-0.61-1.27-1.42-1.79-2.23c0-0.67,0.12-0.8,0.12-1.47    c0.98-1.35,0.25-2.99,0.06-3.67l0.16,0.1c-0.62,0.54-0.58,1.08-1.17,1.46c-0.32,0.43-1,1.25-1.56,1.29    c-1.1,0.83-1.75,0.28-2.94-0.28c-0.04-0.42-0.21-0.5-0.46-0.81c-0.33-1.03,0.4-2.13,0.46-3.05c-0.07-0.13,0.01-0.66-0.06-0.8    c0.07-0.92-1.83-2.08-2.72-2.45c-0.42,0.1-0.84,0.21-1.26,0.31c-0.24-0.06-2.04,0.1-3.19-0.46c-1.84-0.91-3.57-1.87-5.26-2.85    c-0.24-0.31-0.49-0.61-0.73-0.92c-0.46,0.01-1.04-0.64-1.47-0.92c-0.31-0.12-0.61-0.24-0.92-0.37c-0.32,0.17-0.99,0.22-1.11,0.32    c-0.97,0.08-1.54,0.75-2,1.55c-0.62,1.21-1.23,2.43-1.85,3.64c0.06,0.48-0.25,2.16-0.45,2.56c-0.5,1.01-2.45,0.75-3.4,0.75    c0,0.39-0.3,0.36-0.55,0.55c-1.22,0.94-1.85,0.27-2.94-0.55c-0.8,0.18-1.59,0.37-2.39,0.55l-0.47,0.37    c-0.26,1.04-0.06,2.21-0.81,3.12c-0.5,0.59-2.35,1.45-2.17,2.38c0.05,0.62,0.1,1.23,0.15,1.85c0.18,0.9,0.89,1.92,0.55,2.76    c-0.72,0-1.39,1.17-1.79,1.69c-1.24,1.64-2.99,3.09-2.99,5.29c0.41,0.41,0,0.97,0,1.46c-0.06,0.62-0.12,1.23-0.18,1.85    c-0.89,0.89-1.16,1.69-1.44,2.89c0.38,0.58-0.41,1.31-0.58,1.89c-0.37,1.29-0.73,2.57-1.1,3.86c-0.77,0.39-1.12,1.08-1.47,1.84    c0.23,1.4,0.13,3.03,0.9,4.25c0.04,0.71,0.24,1.43,0.61,2.03c0.05,0.42,0.1,0.83,0.14,1.25c0.92,1.22,1.84,2.45,2.76,3.67    c0.57,0.57,1.55,1.39,1.65,2.2c0.43,0.46,1.39,1.61,1.47,2.2c0.24,0.24,0.49,0.49,0.73,0.73c0.35,0,2.07,0.93,2.2,1.29    c1.84,0.61,3.34,1.69,4.99,2.85c0.38,0.27,1.71,0.74,1.44,1.01c0.38,0.17,0.54,0.16,0.73,0.55c0.69,0.22,1.21,0.54,1.84,0.92    c0.74,0,3.98,2.02,4.59,2.2c0.79,0,1.96,0.67,2.94,0.73c1.89-0.5,3.55-0.47,5.5-0.26c0.55,0.03,1.84,0.08,1.66,0.08    c1.35-0.28,2.39-0.91,3.67-1.29c1.22-0.18,2.45-0.37,3.67-0.55c1.16,0.24,2.33,0.49,3.49,0.73c2.72,0.35,5.5,1.1,8.25,1.88    c0.55,0.16,4.09,1.82,4,1.43C255.79,332.02,255.67,330.26,255.67,329.8z"/>
            <circle cx="227.74" cy="283.71" r="1.586"/>
        </g>
        <g id="__Korgan">
            <path d="    M200.01,302.26c0.37-1.29,0.73-2.57,1.1-3.86c0.17-0.58,0.96-1.31,0.58-1.89c0.28-1.19,0.55-1.99,1.44-2.89    c0.06-0.62,0.12-1.23,0.18-1.85c0-0.49,0.41-1.04,0-1.46c0-2.2,1.75-3.66,2.99-5.29c0.39-0.52,1.07-1.69,1.79-1.69    c0.34-0.84-0.37-1.86-0.55-2.76c-0.05-0.62-0.1-1.23-0.15-1.85c-0.19-0.93,1.67-1.78,2.17-2.38c0.76-0.9,0.56-2.07,0.81-3.12    l0.47-0.37c-0.64-0.31,0.81-1.73,1.29-2.2c0.12-0.67,0.24-1.35,0.37-2.02c0.43-0.49,0.86-0.98,1.29-1.47    c-0.14-0.52,0.19-1.3,0.55-1.65c0.06-1.47,0.12-2.94,0.18-4.41c0.18-0.37,0.37-0.73,0.55-1.1c-0.06-0.18,1.78-3,2.76-4.22    c0.73-0.55,1.47-1.1,2.2-1.65c0.53,0.22,1.33-0.27,1.84-0.55c0.31-0.06,0.61-0.12,0.92-0.18c0.45,0.27,0.47,0.12,0.92,0    c0.52,0.34,1.43,0.32,2.04,0.16c0.99-0.42,1.97-0.83,2.96-1.25c1.12-0.38,2.47-1.36,3.45-2.95c0.37-1.16,0.73-2.33,1.1-3.49    c0.37-0.24,0.73-0.49,1.1-0.73c0.19-0.24,0.38-0.49,0.56-0.73l0.17-0.19c0.25,0.25,0.92-1.48,0.92-2.02    c0.67-0.73,1.35-1.47,2.02-2.2c0.12-1.78,0.24-3.55,0.37-5.33c-0.28-0.39-0.55-0.78-0.83-1.17c-0.8-1.04-1.86-1.79-3.03-2.69    c0.55-0.55-0.87-1.39-1.29-1.84c-0.06-0.24-0.12-0.49-0.18-0.73c0.4-0.4,0.15-0.77-0.18-1.1c-0.06-0.43-0.12-0.86-0.18-1.29    c0.49-0.49,0.6-0.47,0.92-1.1c0-2.11-1-2.23-2.76-2.76c-0.31-0.18-0.61-0.37-0.92-0.55c-0.73-0.8-0.98-1.16-1.71-1.96l-0.37-0.24    c-0.88,1.14-3.28,3.29-3.55,2.94c-1.45,0-2.65-1.98-3.52-2.99c-0.52-0.38-1.04-0.77-1.56-1.15c-0.23-0.03-0.45-0.06-0.68-0.09    c-1.03,0-0.78,1.8-0.92,2.39c-0.55,1.1-0.67,1.47-1.65,1.84c-0.26,0.1-0.6,0.88-0.86,0.98c0,0-0.36-0.06-0.42,0.04    c-0.89,1.43-2.7,3.69-4.23,3.94c-1.16,1.16-2.74,2.27-4.22,3.12c-0.55,0.12-1.1,0.25-1.65,0.37c-0.67,0.37-1.35,0.73-2.02,1.1    c-0.37,1.04-0.73,2.08-1.1,3.12c-0.67,0.55-1.35,1.1-2.02,1.65c-0.49,0.24-0.98,0.49-1.47,0.73c-1.35,0.92-2.43,2.1-4.04,2.57    c-0.98,0.12-1.96,0.25-2.94,0.37c-0.32,0.32-3.5,1.04-3.86,0.73c-0.33,0.17-0.56,0.34-0.92,0.18c-0.74,0.6-1.48,1.2-2.23,1.8    c-0.55,0.47-2.35,1.89-2.36,2.61c-1.18,0.8-2.56,1.65-3.38,2.87c-0.63,0.88-1.25,1.76-1.88,2.65c0.04,0.14-0.93,2.21-1.18,2.38    c-0.08,0.86-0.51,2.66,0.18,3.31c-0.1,0.57-0.01,1.03,0.03,1.61c-0.51,0.54,0.17,2.71,0.33,3.54c-0.06,0.37-0.12,0.73-0.18,1.1    c0.36,1.14,0.06,2.25,0.73,3.31c-0.31,0.71-0.32,1.6-0.92,2.2c0,0.5-0.38,1.48-0.73,1.84c0,0.86,0.21,1.62-0.24,2.5    c-0.26,0.51-0.87,2.39-1.42,2.46c0.1,0.02,0.19,0.04,0.29,0.06c0.82,0.35,1.65,0.69,2.47,1.04c0.24,0.31,0.49,0.61,0.73,0.92    c0.49,0.24,0.98,0.49,1.47,0.73c0.25,0.29,0.5,0.57,0.75,0.86c0.65,0.53,1.4,1.22,1.83,1.71c0.39,0.21,0.74,0.31,0.92,0.73    c0.31,0.12,0.92,0.73,0.92,0.92c0.86,0.37,1.71,0.73,2.57,1.1c-0.22,0.42,1.96,3.67,2.2,3.86c0,0.63,1.63,2.08,2.2,2.57    c-0.34,0.34,1.55,2.41,1.93,2.93c0.46,0.8,0.92,1.6,1.38,2.4c1.35,2.08,2.69,4.16,4.04,6.25c0.37,0.37,1.44,2.24,1.84,1.84    C198.54,303.18,199.24,302.65,200.01,302.26z"/>
            <circle cx="213.97" cy="233.93" r="1.586"/>
        </g>
        <g id="__Kumru">
            <path d="    M172.82,275.44c0-0.41-1.6-1.17-2.02-1.29c0.06-0.06-0.06-0.06-0.18,0c-0.25-0.25-0.56-0.37-0.92-0.37    c-0.9-0.9-1.07-0.89-1.65-2.02c-0.89,0-1.41-0.44-2.2-0.73c-0.84-0.32-1.68-0.39-2.58-0.37c-0.32,0.01-1.4,0.23-1.4-0.12    c-1.29,0.2-2.55,0.18-3.74-0.43l0.14-0.17c-0.23-0.68-0.46-1.35-0.69-2.03c0-1.22,0-2.45,0-3.67c-0.77-0.77-0.24-2.33-0.18-3.31    c0-1.22,0-2.45,0-3.67c-0.18-0.43-0.37-0.86-0.55-1.29c-1.17-1.17-1.78-2.16-2.02-3.75c-0.12-0.81-0.04-2.09,0.55-2.68    c0-0.47,0.08-1.29,0.37-1.65c-0.04-0.69,0.2-1.9,0.92-2.2c0.31-0.27,0.5-0.35,0.92-0.37c1.06-0.9,2.16-1.24,3.42-1.73    c0.77,0.23,2.18-0.56,2.58-1.14c0.98-0.17,1.71-1,1.59-2c-0.27-1.79-2.05-3.51-2.08-5.53c-0.01-0.44-0.57-0.97-0.18-1.36    c0-0.64,1.45-1.87,1.84-2.55c0.12-0.01,0.24-0.01,0.37-0.02c0.26-1.21,0.52-2.43,0.79-3.65c0.78-0.52,1.07-1.41,1.07-2.32    c0.89-0.51,0.53-1.8,1.26-2.48c-0.09-0.16-0.17-0.32-0.26-0.48c-0.72-1.25-1.85-2-2.86-3.01c0.06-0.06,0.12-0.12,0.18-0.18    c-0.24-0.31-0.49-0.61-0.73-0.92c0-0.81,0.47-1.78-0.49-1.78c0,0,1.53-0.12,2.33-0.25c0.61,0,1.22,0,1.84,0    c0.93-0.27,2.21-0.52,2.76-1.29c1.53-0.31,2.8-0.78,4.22-1.47c0.42,0,0.67-1.02,0.73-1.41c0.12-0.26,0.24-0.53,0.37-0.79    c0.29-1.19,0.84-2.51,1.65-3.49c1.3-1.58,2.07-3.54,3.67-5.14c0-0.8,0.44-1.42,0.92-2.02c-0.05-0.49,0.27-0.93,0.44-1.39    c0.4-0.45,0.81-0.91,1.21-1.36c0.43-0.67,0.86-1.35,1.29-2.02c0-0.4,0.28-0.83,0.55-1.1c0-0.79,0.39-1.5,0.92-2.02    c-0.64-0.89,0.59-1.88,0.73-2.76c0-0.31,0-0.61,0-0.92c0-0.28-1.45-1.45-1.77-2.06c-0.65-1.41,2.12-2.29,3.03-2.79    c1.11-0.9,2.22-1.79,3.33-2.69c0.71-0.47,1.93-1.1,2.76-1.1c1.1-0.99,2.2-1.97,3.29-2.96c1.7-1.59,4.24,3.69,4.24,3.69    c0.53,1.09,0.18,1.96,0.18,3.12c0.31,0.31,0.76,0.52,0.37,0.92c-0.12,0.25-0.24,0.49-0.37,0.73c-0.6,0.27-2.02,1.1-2.02,1.84    c0.03,0.53,0.05,1.06,0.08,1.59c0.87,1.19,2.25,0.98,3.59,0.98c0.29,0.29,0.92,0.14,0.92,0.73c0,0.63-0.2,0.89-0.37,1.47    c0.06,0.12,0.12,0.24,0.18,0.37c-0.12,0.31-0.24,0.61-0.37,0.92c0.4,0.09,0.8,0.18,1.21,0.26c0.78-0.78,2.41-2.1,3.57-2.1    c0.37-0.37,1.63-0.57,2.02-0.18c0.31,0.37,0.61,0.73,0.92,1.1c0,1.58-0.32,2.2-0.73,3.67c-0.18,0.62-0.03,1.5-0.55,2.02    c0.06,0.37,0.12,0.73,0.18,1.1c-0.16,0.56-0.49,2.69-0.73,2.94c0.12,0.11,0.25,0.21,0.37,0.32c0.37,0.28,0.22,0.6,0.7,0.6    c0.19,0.06,0.39,0.12,0.58,0.18c0.39-0.1,0.57-0.23,0.92,0c1.96-0.83,3.28,0.22,3.71,2.19c0.1,0.46,0.44,1.37,0.14,1.66    c-0.36,0.36-0.37,0.63-0.37,1.1c-0.57,0.19-0.55,0.37-0.92,0.73c-0.55,0-3.31,1.15-3.31,1.47c-0.44,0.28-2.02,1.08-2.02,1.47    c-0.38,0.54-1.51,2.53-1.1,2.94c0,0.26,1,3.12,1.47,3.12c0.27,1.11,0.34,2.74,1.46,3.3c0.56,0.26,1.65,1.57,2.42,1.75    c0.15,0.03-2.24,3.58-4.26,3.95c-1.16,1.16-2.74,2.27-4.22,3.12c-0.55,0.12-1.1,0.25-1.65,0.37c-0.67,0.37-1.35,0.73-2.02,1.1    c-0.37,1.04-0.73,2.08-1.1,3.12c-0.67,0.55-1.35,1.1-2.02,1.65c-0.49,0.24-0.98,0.49-1.47,0.73c-1.35,0.92-2.43,2.1-4.04,2.57    c-0.98,0.12-1.96,0.25-2.94,0.37c-0.32,0.32-3.5,1.04-3.86,0.73c-0.33,0.17-0.56,0.34-0.92,0.18c-0.74,0.6-1.48,1.2-2.23,1.8    c-0.55,0.47-2.35,1.89-2.36,2.61c-1.18,0.8-2.56,1.65-3.38,2.87c-0.63,0.88-1.25,1.76-1.88,2.65c0.04,0.14-0.93,2.21-1.18,2.38    c-0.08,0.86-0.51,2.66,0.18,3.31c-0.1,0.57-0.01,1.03,0.03,1.61c-0.51,0.54,0.17,2.71,0.33,3.54c-0.06,0.37-0.12,0.73-0.18,1.1    c0.36,1.14,0.06,2.25,0.73,3.31c-0.31,0.71-0.32,1.6-0.92,2.2c0,0.5-0.38,1.48-0.73,1.84c0,0.86,0.21,1.62-0.24,2.5    c-0.26,0.51-0.87,2.39-1.42,2.46L172.82,275.44z"/>
            <circle cx="191.93" cy="216.29" r="1.586"/>
        </g>
        <g id="__Gürgentepe">
            <path d="    M299.02,215.74c-0.48,0.48-2.54-0.59-3.49-0.55c-0.24-0.18-0.49-0.37-0.73-0.55c-0.57-0.57,0.93-1.14,1.29-1.65    c-0.31-0.89-0.18-1.81-0.18-2.76c-0.06-0.12-0.12-0.24-0.18-0.37c-0.49-0.18-0.98-0.37-1.47-0.55c-0.18-0.4-0.34-0.38-0.73-0.55    c0-0.66-0.88-1.07-1.29-1.47c-0.12-0.55-0.24-1.1-0.37-1.65c0.21-0.5,0-1.09,0-1.65c-0.55-0.49-1.1-0.98-1.65-1.47    c-0.39-0.39-1.29,0.47-1.29,0.92c0.31,0.97,0,1.62,0,2.57c0,0.96-2.94,0.73-3.67,0.73c-0.49,0.31-0.98,0.61-1.47,0.92    c-0.8,1.1-1.59,2.2-2.39,3.31c-0.31,0.12-0.61,0.25-0.92,0.37c-0.51-0.3-1.79-0.08-2.41,0.13c-0.18-0.04-0.34,0.05-0.34,0.05    c-1.34,0.31-2.63-0.35-3.86-0.92c-0.45-0.32-0.9-0.64-1.35-0.96c-0.56-0.27-1.94-0.82-2.55-0.29c-0.11,0.16-0.22,0.33-0.33,0.49    c-0.13,0.19-0.13,0.29-0.17,0.38c0.8,1.54,2.69,2.79,4.16,3.8c0.07,0.46,0.85,1.22,1.2,1.66c0.6,0.75,1.34,2.55,0.52,3.35    c0.12,0.42,0.27,0.53,0,0.92c0.36,0.47,1.59,2.07,1.56,2.18c-0.12,0.42-0.04,0.56-0.45,0.77c-0.98,0.37-1.97,0.73-2.95,1.1    c-0.27,0.3-0.53,0.86-0.92,0.92c-0.22,0.66-0.36,1.13-0.4,1.83c-0.22,0.38-0.44,0.75-0.66,1.13c-0.33,0.91-0.31,1.77-0.88,2.59    c-0.37,0.52-1.08,1.46-1.57,1.33c-0.66-0.15-2.43-1.31-2.73-1.91c-0.67-0.18-1.35-0.37-2.02-0.55c-0.55-0.13-1.61-0.02-2.02,0.37    c-0.38-0.01-0.62,0.08-0.92-0.18c-0.54,0.09-1.08,0.18-1.62,0.26c-0.68-0.09-1.79-0.05-2.48-0.14c-0.66,0.07-0.82,1.01-1.5,0.89    c-0.46,0.3-2.62,0.79-2.93,0.33c-0.34-0.63-0.68-1.26-1.02-1.89c-1.48-0.93-2.85-0.89-4.58-0.92c-0.66,0.03-1.32,0.06-1.99,0.09    c-0.51,0.35-1.05,0.79-1.31,1.38c-0.17,0.4-0.03,0.82-0.39,1.1c0.14,0.88,0.28,1.75,0.42,2.63c-0.03,0.47,0.02,0.83-0.24,1.23    c0.08,0.97,0.16,1.94,0.25,2.92c0.47,0.8,0.94,1.61,1.41,2.41c0.42,0.49,0.84,0.98,1.26,1.48c0.42,0.62,0.85,1.23,1.27,1.85    c0.38,0.85,0.76,1.7,1.14,2.55c-0.12,1.47-0.74,2.03-0.65,2.13c0.4,0.51,0.8,1.03,1.21,1.54c0.61,0.55,1.22,1.1,1.84,1.65    c0.38,0.6,0.77,1.21,1.15,1.81c0.42,0.61,0.84,1.22,1.26,1.83c1.4-0.56,3.9-1.39,4.71-1.5c0.61-0.06,3.91,0.15,4.52,0.09    c2.66,1.33,5.15,2.86,6.96,5.21c0.56,0.72,2.76,4.05,2.52,4.87c0.24-0.01,1.05-0.91,1.29-0.92c0.82-0.12,0.63-0.46,1.39-0.82    c1-0.47,2.12-0.69,3.2-0.83c1.13,0.05,2.25,0.11,3.38,0.16c0.44-0.17,0.92-0.18,1.22-0.53c0.92,0.06,1.84,0.12,2.76,0.18    c0.61-0.18,1.22-0.37,1.84-0.55c0.92-1.29,1.84-2.57,2.76-3.86c1.16-0.67,2.33-1.35,3.49-2.02c0.38-0.36,0.75-0.71,1.13-1.07    c0.54-0.32,1.09-0.64,1.63-0.95c0.92-0.06,1.84-0.12,2.76-0.18c0.54-0.16,1.08-0.33,1.61-0.49c0.54,0.29,2.09-0.25,2.68-0.43    c0.25,0.15,1.96,0.55,3.3-0.31c-0.12-1.59-0.4-3.87-0.62-5.58c-0.09-0.68-0.01-1.42-0.72-1.65c0.04-1.26,0.06-3.45-1.47-3.5    c-0.24-0.06-0.49-0.12-0.73-0.18c-1.29,0.68-2.58,1.36-3.87,2.04c-0.46,0.04-1.79,0.02-1.97-0.23c-0.72-1.01-1.41-4.77-0.77-5.85    c-0.73-0.73-1.47-1.47-2.2-2.2c-0.55-0.98-1.1-1.96-1.65-2.94c0.06-0.98,0.12-1.96,0.18-2.94c0.09-0.8-0.4-2.17,0-2.76    c-0.3-1.43-0.14-3.47,1.15-4.33c0.17-0.15,0.34-0.3,0.51-0.45c0.61-0.24,1.22-0.49,1.84-0.73c0.93,0,1.05,0.15,1.84-0.37    c0.26-0.57,1.55-2.82,0.43-2.88L299.02,215.74z"/>
            <circle cx="282.3" cy="247.52" r="1.586"/>
        </g>
        <g id="__Çamaş">
            <path d="    M277.71,211.52c-1.34,0.31-2.63-0.35-3.86-0.92c-0.45-0.32-0.9-0.64-1.35-0.96c-0.56-0.27-1.94-0.82-2.55-0.29    c-0.11,0.16-0.22,0.33-0.33,0.49c-0.13,0.19-0.13,0.29-0.17,0.38c0.8,1.54,2.69,2.79,4.16,3.8c0.07,0.46,0.85,1.22,1.2,1.66    c0.6,0.75,1.34,2.55,0.52,3.35c0.12,0.42,0.27,0.53,0,0.92c0.36,0.47,1.59,2.07,1.56,2.18c-0.12,0.42-0.04,0.56-0.45,0.77    c-0.98,0.37-1.97,0.73-2.95,1.1c-0.27,0.3-0.53,0.86-0.92,0.92c-0.22,0.66-0.36,1.13-0.4,1.83c-0.22,0.38-0.44,0.75-0.66,1.13    c-0.33,0.91-0.31,1.77-0.88,2.59c-0.37,0.52-1.08,1.46-1.57,1.33c-0.66-0.15-2.43-1.31-2.73-1.91c-0.67-0.18-1.35-0.37-2.02-0.55    c-0.55-0.13-1.61-0.02-2.02,0.37c-0.38-0.01-0.62,0.08-0.92-0.18c-0.54,0.09-1.08,0.18-1.62,0.26c-0.68-0.09-1.79-0.05-2.48-0.14    h-0.37c-0.2-0.17-1.02-1.6-1.22-1.78c-0.18-0.73-0.37-1.47-0.55-2.2c0-0.88,1.27-1.68,1.84-2.39c0-0.55-1.13-0.95-1.47-1.29    c-0.31,0.06-0.61,0.12-0.92,0.18c-0.56-0.56-0.67-1.08-1-1.79c-0.71-0.87-1.42-1.75-2.12-2.62c-0.01-0.12-0.02-0.24-0.03-0.36    c0-1.5,1.45-1.68,2.2-2.62c0.13-0.17,0.27-0.34,0.4-0.51c-0.37-0.92-0.73-1.84-1.1-2.76c0-0.38-0.01-0.75-0.01-1.13    c0.15-1.62,0.29-1.5-0.64-2.96c-0.72-1.1-2.64-0.73-3.76-1.25c-0.38-0.17-0.46-0.58-0.7-1.01c-0.62-1.35,0.82-2.87,1.44-3.93    c0.06-0.49-0.15-0.56-0.05-0.94l0.05-0.35c0,0.32,1.94-1.39,2.76-2.2c0.24-0.37,0.49-0.73,0.73-1.1c0-0.55-0.25-1.29-0.55-2.02    c0.02,0,4.51-4.99,2.08-2.12c1.03-1.25,2.06-2.51,3.09-3.76c0.34-0.59,0.9-1.48,1.62-1.1c-0.49-0.49,1.15-0.48,1.49-0.38    c0.4,0.14,1.91,0.65,1.45,1.11c0.31,0.24,0.61,0.49,0.92,0.73c0.67,0,1.59,1.16,1.65,1.1c0.24,0.24,0.8,1.1,1.1,1.29    c0.12,0.31,0.24,0.61,0.37,0.92c0.67,0.67,1.35,1.35,2.02,2.02c0.06,0.18,0.12,0.37,0.18,0.55c0.49,0.43,0.98,0.86,1.47,1.29    c0,0.45,0.36,0.67,0.73,0.92c0.55,0.12,1.1,0.25,1.65,0.37c0.61,0.43,1.22,0.86,1.84,1.29c0.64,0,2.02,0.76,2.02,1.47    c-0.06,0.12,0.16,1.08,0.55,1.47c-0.06,0.49-0.12,0.98-0.18,1.47c0.28,1.64,0.55,3.13,0.55,4.78c0.26,0.41,0.74,1.1,0.37,1.47    c0.31,0.66,0.37,1.08,0.37,1.84L277.71,211.52z"/>
            <circle cx="262.65" cy="206.74" r="1.586"/>
        </g>
        <g id="__Mesudiye">
            <path d="    M400.41,346.34c-1.49-0.26-4.21-1.09-4.59-1.47c-1.26,0-3.83-0.34-4.78-1.29c-0.41,0-0.6-0.15-0.92-0.37    c-0.42-0.15-0.85-0.29-1.27-0.44c-1.15-0.54-2.18-1.3-3.14-2.13c-1.14-0.99-1.91-2.83-3.12-4.04c-0.12-0.8-0.24-1.59-0.37-2.39    c0.19-0.28,0.21-1.1,0.55-1.1c-0.29-1.26-0.05-1.54,0-2.76c-0.06-0.55-0.12-1.1-0.18-1.65c-0.31-0.49-0.61-0.98-0.92-1.47    c-0.61-0.67-1.22-1.35-1.84-2.02c-0.24-0.12-0.49-0.24-0.73-0.37c-0.31-0.37-0.61-0.73-0.92-1.1c-1.16-0.82-2.81-0.82-4.04-1.65    c-0.8-0.55-1.59-1.1-2.39-1.65c-0.27-0.69-0.91-1.33-1.47-1.84c-1.41-1.26-2.89-2.26-4.22-3.67c-0.35-0.99-0.7-1.97-1.06-2.96    c-0.08-0.48-0.15-0.96-0.23-1.45c-0.19-0.68-0.79-1.2-1.03-1.69c-1.01-2.12-2.14-4.36-3.56-6.21c0.07-1.13-0.46-2.42-1.47-2.94    c-0.43-0.86-0.86-1.71-1.29-2.57c0.59-0.59-0.03-3.58-0.25-4.39c-0.13-0.45-0.01-0.39-0.61-0.36c-0.87-1.1-1.32-0.39-2.31-0.89    c-1.19-0.72-2.37-1.44-3.56-2.16c-0.39-0.09-0.78-0.19-1.17-0.28c-1.42-0.9-2.58-0.87-3.49-2.39c-0.06-1.04-0.12-2.08-0.18-3.12    c0.67-0.98,1.35-1.96,2.02-2.94c0.53-1.51,0.46-3.48,1.47-4.78c0.77-0.96,1.55-1.91,2.32-2.87c0.75-1.54,0.14-3.13-0.3-4.66    l-0.37-0.18c-0.86,0-1.71,0-2.57,0c-0.24-0.12-1.1-0.86-1.29-1.1c-0.67-0.31-1.35-0.61-2.02-0.92c-0.68-0.19-1.94,0.24-2.39,0.73    c-1.22,0.06-2.45,0.12-3.67,0.18c-0.73,0.92-1.03,1.21-1.84,1.65c-0.28,0.22-1.19,0.15-1.47,0.37c-0.47,0-1.74,0.45-2.02,0.73    c-0.43,0.43-0.86,0.86-1.29,1.29c-0.86,0.57-2.35,0.08-2.39,1.46c-0.02,0.47-0.13,0.74,0.19,1.11c-0.31,0.86-0.61,1.71-0.92,2.57    c-0.08,0.84-0.15,1.68-0.23,2.52c-0.54,1.12-1.07,2.24-1.61,3.36c-0.92,0.95-2.62,1.7-3.12,2.94c-1.11,0.03-1.73,0.73-2.45,1.58    c-0.51,0.62-0.94,1.55-1.6,1.91l0.18,0.18c-1.1,1.29-3.01,3.22-4.57,4.43c-0.31,0.36-0.62,0.72-0.94,1.08    c-0.61,0.43-1.22,0.86-1.84,1.29c-0.86,0.73-1.71,1.47-2.57,2.2c-0.82,1.28-2.42,2.33-3.73,3.05c-0.7,0.38-1.38,1.15-2.17,1.2    c-1.21,1.4-4,2.87-5.88,3.38c-1.48-0.01-2.97-0.02-4.45-0.02c-2.57,0.49-5.22,1.28-7.28,2.87c0,0.63-0.59,1.14-0.92,1.65    c-0.18,0.61-0.37,1.22-0.55,1.84c0.3,0.82-0.03,4.03-0.18,4.96c-0.45,0.29-0.67,1.16-0.79,1.66c-0.14,0.59-0.02,1.05,0.06,1.64    c-0.49,0.41-0.43,1.23-0.37,1.84c-0.29,0.25-0.51,1.09-0.55,1.47c-0.8,1.22-1.59,2.45-2.39,3.67c-0.56,0.56-1.57,1.19-1.84,2.02    c-0.06,0.31-0.12,0.61-0.18,0.92c-0.51,0.6-1.01,1.21-1.52,1.81c-0.11,0.38-0.21,0.75-0.32,1.13c-0.26,0.06-0.95,1.03-1.27,1.31    c-0.19,0.16-0.45,0.24-0.76,0.26c0,0,1.85,1.08,3.38,1.75c0.59,0.26,1.53,0.24,1.77,0.9c1.18,0.61,1.92,0.55,2.39,1.84    c0.63,0.16,1.31,0.65,1.47,1.29c0.43,0.31,0.86,0.61,1.29,0.92c0.55,0.24,1.1,0.49,1.65,0.73c0.12,0.18,0.24,0.37,0.37,0.55    c-0.23,0.68-0.12,2.45,0.37,2.94c0,1.4,0,2.61,0.35,3.96c-0.37,0.59-0.41,1.46-0.33,2.15c-0.48,0.78-0.42,1.91-0.39,2.81    c-0.18,0.89-0.36,1.77-0.55,2.66c0.12,0.24,0.24,0.49,0.37,0.73c-0.18,0-0.37,0-0.55,0c-0.49,1.29-0.98,2.57-1.47,3.86    c-0.43,1.96-0.86,3.92-1.29,5.88c-0.31,0.67-0.61,1.35-0.92,2.02c-1.23,4.15-0.98,8.71-1.47,13.04c-0.14,1.24-0.68,2.4-0.55,3.67    c-0.17,0-1.1,2.46-1.1,2.94c1.35,0.98,2.69,1.96,4.04,2.94c0.63,0,3.42,0.85,3.86,1.29c0.82,0,4.22,1.34,4.96,1.84    c0.98,0.37,1.96,0.73,2.94,1.1c3.31,3.55,6.61,7.1,9.92,10.65c0.88,0.93,2.12,0.84,3.16,1.36c0.79,0.4,3.25,1.43,4.01,1.21    c1.09,0.32,4.33,1.16,5.11,0.86c0.75-0.41,1.49-0.82,2.24-1.23c0.5-0.5,1.18-1.43,1.84-1.47c0.61-1.59,1.22-3.18,1.84-4.78    c0-1.61-0.48-3.31-0.23-4.87c-0.03-0.93-0.06-1.86-0.1-2.79c-0.12-2.67,0.18-3.67,2.35-5.38c0.3-0.33,0.59-0.65,0.89-0.98    c1.07-0.35,2.25-0.68,3.34-0.68c0.98,0.43,1.96,0.86,2.94,1.29c0.8,0.24,1.59,0.49,2.39,0.73c1.63,1.26,2.87,2.69,4.22,4.22    c0.61,0.61,1.22,1.22,1.84,1.84c0.43,0.73,0.86,1.47,1.29,2.2c0.31,0.37,0.61,0.73,0.92,1.1c0.73,1.22,1.47,2.45,2.2,3.67    c0.37,0.24,0.73,0.49,1.1,0.73c0.52,0.38,0.82,1.01,1.46,1.14c1.29,0.29,5.96-0.95,6.81-1.69c0.63-0.55,1.1-1.49,2.02-1.65    c0.43-0.49,0.66-0.89,1.29-1.1c0.61-1.04,1.22-2.08,1.84-3.12c0-0.75,0.61-1.71,1.1-2.2c0.2-1.89,0.4-3.78,0.6-5.68    c0.84-1.72,1.68-3.44,2.52-5.16c0.42-0.69,0.83-1.38,1.25-2.07c0.5-1.09,1.01-2.17,1.51-3.26c0.15-0.56,0.3-1.12,0.45-1.68    c0.14-0.35,0.08-0.38,0.47-0.53c0.3-1.14,0.72-2.15,1.29-3.12c0.79-1.36,0.97-2.95,1.47-4.41c-0.14-0.55-0.16-0.8,0.18-1.29    c0-0.59,0.13-1.79,0.55-2.2c0.18-1.29,0.37-2.57,0.55-3.86c0.31-2.38,0.58-5.15,2.2-6.8c0.73-0.74,1.62-1.84,2.76-1.84    c0.42-0.25,0.84-0.5,1.26-0.75c0.9-0.11,4.13,0.85,4.98,1.3c0.43-0.06,0.86-0.12,1.29-0.18c0.67-0.31,1.35-0.61,2.02-0.92    c1.35-1.35,2.69-2.69,4.04-4.04c0.97-0.28,1.94-0.55,2.91-0.83c0.93-0.21,5.16-1.16,6.09-1.38L400.41,346.34z"/>
            <circle cx="328.41" cy="361.96" r="1.586"/>
        </g>
        <g id="__Ulubey">
            <path d="    M307.28,206.74c0.94-0.94,1.54-0.73,2.94-0.73c0.79-0.79,2.66-2.39,3.86-2.39c0.48-0.31,1.61-1.14,2.02-0.73    c0-0.28,1.96-0.62,2.2-0.55c0.43,0.12,0.86,0.25,1.29,0.37c0.56,0.56,1.07,1.45,1.84,1.65c0.85,0.23,1.3,0,1.84-0.37    c0.37-0.24,0.54-0.34,1.29-0.49c0.67-0.13,1.11-0.72,1.91-0.61c0.16-0.18,0.32-0.37,0.48-0.55c0.71,0.26,2.29,0.44,2.94,0.18    c0.4,0.25,1.13,1.08,1.47,0.73c0.33,0.27,0.72,0.93,1.1,0.55c0.35,0.3,0.82,0.92,1.29,0.92c0.33,0.93,0.24,0.95,1.02,1.37    c0.68,0.37,3.38,1.09,3.94,0.65c0.51,0.42,1.25,0.33,1.65,0.73c0.4,0,0.45,0.82,0.73,1.1c0.14,0.5,0.62,1.1,0.73,1.1    c-0.06,0.49-0.12,0.98-0.18,1.47c0.06,0.18,0.12,0.37,0.18,0.55c0.47,0.47,0.55,1.21,0.55,1.84c0.8,0.8,1.4,2.23,1.27,3.43    c0.03,0.24,0.07,0.48,0.1,0.72c-0.45,0.59-1.38,1.15-1.38,1.91c0.39,0.39,0.41,1.84,1.29,1.84c0.03,0.2,0.06,0.41,0.09,0.61    c-1.19,0.79-2.92,0.25-4.13-0.06c-0.41-0.11-1.1,0.33-1.1,0.73c-0.41,2.06,0.67,2.44,1.84,3.67c0.43,0.67,0.86,1.35,1.29,2.02    c0,0.06,0,0.12,0,0.18c0.4-0.4,0.74,1.84,1.1,2.2c0.06,0.18,0.12,0.37,0.18,0.55c-0.11,1.47,0.35,2.41,0.55,3.86    c0.41,0,0.02,0.88,0.55,1.29c-0.06,0.31-0.12,0.61-0.18,0.92c0.26-0.26,2.07,1.44,2.57,1.84c0.74,0,2.35,1.06,2.94,1.65    c1.08,0.24,2.15,0.47,3.23,0.71c0.23,0.08,0.59,0.29,0.96,0.46l0.03,0.85c0.21,0.3,0.42,0.6,0.63,0.9    c0.02,0.22,0.03,0.45,0.05,0.67c0.33,0.71,0.51,1.3,0.98,1.92c0.06,0.31,0.12,0.61,0.18,0.92c-0.49,1.57-0.32,2.45-0.37,4.04    c-0.58,0.58-1.1,1.23-1.1,2.02c0.45,0.45,0.92,0.99,0.92,1.65c0.39,0.42,0.77,0.84,1.16,1.26c0.15,0.37,0.3,0.74,0.45,1.11    c-0.17,0.86-0.34,1.72-0.51,2.58c-1.34,2.2-3.39,3.94-4.27,6.38c-0.11,0.63-0.22,1.26-0.33,1.89l-0.37-0.18c-0.86,0-1.71,0-2.57,0    c-0.24-0.12-1.1-0.86-1.29-1.1c-0.67-0.31-1.35-0.61-2.02-0.92c-0.68-0.19-1.94,0.24-2.39,0.73c-1.22,0.06-2.45,0.12-3.67,0.18    c-0.73,0.92-1.03,1.21-1.84,1.65c-0.28,0.22-1.19,0.15-1.47,0.37c-0.47,0-1.74,0.45-2.02,0.73c-0.43,0.43-0.86,0.86-1.29,1.29    c-0.86,0.57-2.35,0.08-2.39,1.46c-0.02,0.47-0.13,0.74,0.19,1.11c-0.31,0.86-0.61,1.71-0.92,2.57c-0.08,0.84-0.15,1.68-0.23,2.52    c-0.54,1.12-1.07,2.24-1.61,3.36c-0.92,0.95-2.62,1.7-3.12,2.94c-1.11,0.03-1.73,0.73-2.45,1.58c-0.51,0.62-0.94,1.55-1.6,1.91    l0.18,0.18c-0.22-0.96-1.37-5.16-0.18-5.88c0.12-0.31,0.25-0.61,0.37-0.92c0-0.93,0.06-2.45,0.92-2.94    c-0.18-0.65-0.38-1.37,0.18-1.84c-0.48-1.29-0.5-2.56-0.55-3.86c-0.04-1.12-1.27-3.01-0.92-4.04c-0.22-0.34-0.49-0.51-0.37-0.92    c-0.35-0.48-1.06-1.64-1.1-2.2c-0.51-0.57-1.27-1.22-1.1-2.02c-0.5-0.5-1.34-1.3-1.29-2.02c-1.3-1.3-2-2.62-3.19-4.04    c-1.83-2.16-3.46-4.11-5.5-5.93c-0.33-0.29-0.36-1.7-0.67-1.33l-0.12-0.03c-0.12-1.59-0.4-3.87-0.62-5.58    c-0.09-0.68-0.01-1.42-0.72-1.65c0.04-1.26,0.06-3.45-1.47-3.5c-0.24-0.06-0.49-0.12-0.73-0.18c-1.29,0.68-2.58,1.36-3.87,2.04    c-0.46,0.04-1.79,0.02-1.97-0.23c-0.72-1.01-1.41-4.77-0.77-5.85c-0.73-0.73-1.47-1.47-2.2-2.2c-0.55-0.98-1.1-1.96-1.65-2.94    c0.06-0.98,0.12-1.96,0.18-2.94c0.09-0.8-0.4-2.17,0-2.76c-0.3-1.43-0.14-3.47,1.15-4.33c0.17-0.15,0.34-0.3,0.51-0.45    c0.61-0.24,1.22-0.49,1.84-0.73c0.93,0,1.05,0.15,1.84-0.37c0.26-0.57,1.55-2.82,0.43-2.88l0.12-0.43    c0.24-0.67,0.49-1.35,0.73-2.02c0.6-0.17,1.59-0.61,1.59-0.61c1.27-0.76,2.17-1.91,3.46-2.67c1.57-0.92,2.12-1.61,2.42-3.46    L307.28,206.74z"/>
            <circle cx="325.65" cy="217.76" r="1.586"/>
        </g>
        <g id="__Fatsa">
            <path d="    M202.58,180.84c0.53,1.09,0.18,1.96,0.18,3.12c0.31,0.31,0.76,0.52,0.37,0.92c-0.12,0.25-0.24,0.49-0.37,0.73    c-0.6,0.27-2.02,1.1-2.02,1.84c0.03,0.53,0.05,1.06,0.08,1.59c0.87,1.19,2.25,0.98,3.59,0.98c0.29,0.29,0.92,0.14,0.92,0.73    c0,0.63-0.2,0.89-0.37,1.47c0.06,0.12,0.12,0.24,0.18,0.37c-0.12,0.31-0.24,0.61-0.37,0.92c0.4,0.09,0.8,0.18,1.21,0.26    c0.78-0.78,2.41-2.1,3.57-2.1c0.37-0.37,1.63-0.57,2.02-0.18c0.31,0.37,0.61,0.73,0.92,1.1c0,1.58-0.32,2.2-0.73,3.67    c-0.18,0.62-0.03,1.5-0.55,2.02c0.06,0.37,0.12,0.73,0.18,1.1c-0.16,0.56-0.49,2.69-0.73,2.94c0.12,0.11,0.25,0.21,0.37,0.32    c0.37,0.28,0.22,0.6,0.7,0.6c0.19,0.06,0.39,0.12,0.58,0.18c0.39-0.1,0.57-0.23,0.92,0c1.96-0.83,3.28,0.22,3.71,2.19    c0.1,0.46,0.44,1.37,0.14,1.66c-0.36,0.36-0.37,0.63-0.37,1.1c-0.57,0.19-0.55,0.37-0.92,0.73c-0.55,0-3.31,1.15-3.31,1.47    c-0.44,0.28-2.02,1.08-2.02,1.47c-0.38,0.54-1.51,2.53-1.1,2.94c0,0.26,1,3.12,1.47,3.12c0.27,1.11,0.34,2.74,1.46,3.3    c0.66,0.31,2.07,2.09,2.82,1.72c0.26-0.1,0.6-0.88,0.86-0.98c0.98-0.37,1.1-0.73,1.65-1.84c0.14-0.59-0.11-2.39,0.92-2.39    c0.23,0.03,0.45,0.06,0.68,0.09c0.52,0.38,1.04,0.77,1.56,1.15c0.87,1.01,2.07,2.99,3.52,2.99c0.28,0.35,2.67-1.79,3.55-2.94    c0.7,0,1.17-2.47,1.71-3.12c0.18-0.12,0.37-0.24,0.55-0.37c0.5-0.69,1.29-1.56,1.29-2.39c0.74-1.01,1.34-1.64,1.47-2.94    c0.49-0.55,0.98-1.1,1.47-1.65c0.12-0.06,0.24-0.12,0.37-0.18c0.71-1.03,0.61-2.66,1.84-3.12c0.12-0.55,0.24-1.1,0.37-1.65    c-0.06-0.49-0.12-0.98-0.18-1.47c0.7-0.74,1.32-0.73,2.02-1.47c0.1-0.36,0.73-2.2,0.92-2.39c0-0.59,0.73-2.02,1.47-2.02    c0.98,0.06,1.96,0.12,2.94,0.18c0.75,0.16,0.38,0.45,1.29,0.18c0.62,0.38,1.25,0.77,1.87,1.15c0.46,0.23,0.84,0.64,1.25,1.05    c-0.26-0.03,0.08,1.22,0.73,0.92c0,0.32,1.94-1.39,2.76-2.2c0.24-0.37,0.49-0.73,0.73-1.1c0-0.55-0.25-1.29-0.55-2.02    c0.02,0,4.51-4.99,2.08-2.12c1.03-1.25,2.06-2.51,3.09-3.76c0.34-0.59,0.9-1.48,1.62-1.1c-0.49-0.49,1.15-0.48,1.49-0.38    c0.4,0.14,1.91,0.65,1.45,1.11c0.31,0.24,0.61,0.49,0.92,0.73c0.67,0,1.59,1.16,1.65,1.1c0.24,0.24,0.8,1.1,1.1,1.29    c0.12,0.31,0.24,0.61,0.37,0.92c0.67,0.67,1.35,1.35,2.02,2.02c0.06,0.18,0.12,0.37,0.18,0.55c0.49,0.43,0.98,0.86,1.47,1.29    c0,0.45,0.36,0.67,0.73,0.92c0.55,0.12,1.1,0.25,1.65,0.37c0.61,0.43,1.22,0.86,1.84,1.29c0.64,0,2.02,0.76,2.02,1.47    c-0.06,0.12,0.16,1.08,0.55,1.47c-0.06,0.49-0.12,0.98-0.18,1.47c0.28,1.64,0.55,3.13,0.55,4.78c0.26,0.41,0.74,1.1,0.37,1.47    c0.31,0.66,0.37,1.08,0.37,1.84c0.18,0.04,0.35,0.09,0.53,0.13c0.63-0.21,1.9-0.43,2.41-0.13c0.31-0.12,0.61-0.24,0.92-0.37    c0.8-1.1,1.59-2.2,2.39-3.31c0.49-0.31,0.98-0.61,1.47-0.92c0.74,0,3.67,0.23,3.67-0.73c0-0.95,0.31-1.61,0-2.57    c0-0.45,0.9-1.31,1.29-0.92c0.55,0.49,1.1,0.98,1.65,1.47c0,0.56,0.21,1.15,0,1.65c0.12,0.55,0.25,1.1,0.37,1.65    c0.4,0.4,1.29,0.81,1.29,1.47c0.39,0.17,0.55,0.15,0.73,0.55c0.49,0.18,0.98,0.37,1.47,0.55c0.06,0.12,0.12,0.25,0.18,0.37    c0,0.95-0.13,1.87,0.18,2.76c-0.35,0.51-1.85,1.08-1.29,1.65c0.24,0.18,0.49,0.37,0.73,0.55c0.95-0.03,3.01,1.03,3.49,0.55    c0.24-0.67,0.49-1.35,0.73-2.02c0.6-0.17,1.29-0.38,1.29-1.1c-0.06-0.12-0.26-1.02,0-1.29c-0.15-0.37-0.23-0.35,0-0.73    c-0.48-0.82-0.92-2.22-0.92-3.12c-1.41-1.41-2.82-2.82-4.22-4.22c-0.37-0.43-0.73-0.86-1.1-1.29c0.06-0.49,0.12-0.98,0.18-1.47    c-0.21-0.72-0.41-1.87,0-2.57c-0.09-0.56-0.19-1.59,0.18-2.02c-0.26-0.92-0.56-1.88-0.18-2.76c-0.09-0.39-0.23-0.56,0-0.92    c-0.26-0.67-0.65-3.41-0.37-4.04c-0.5-0.88-0.39-2.05-1.1-2.76c0.06-0.12,0.12-0.25,0.18-0.37c-0.06-0.86-0.12-1.71-0.18-2.57    c0.12-0.37,0.24-0.73,0.37-1.1c0.66-0.66,1.65-2.32,1.29-3.12c0.61-0.67,1.22-1.35,1.84-2.02c-0.37-0.71-0.16-3.14,0.37-3.67    c0.47,0,2.62-0.69,2.32-1.45c-0.18-0.5-0.92-3.52-1.5-3.73c-1.23-0.48-2.01,0.12-2.85,0.95c-0.87,0-1.76,0.27-2.39,0.92    c-0.45,0-1.47,0.72-1.47,0c-0.06-0.18-0.12-0.37-0.18-0.55c0.18-0.98,0.37-1.96,0.55-2.94c-0.07-0.49-0.39-0.9,0-1.29    c-0.3-0.95-0.74-2.38,0-3.12c0.06-0.61,0.12-1.22,0.18-1.84c-0.12-0.12-0.24-0.24-0.37-0.37c0.53,0,0.12-0.94,0.18-1.29    c-0.7-0.7-1.1-1.24-1.1-2.2c0.12-0.18,0.24-0.37,0.37-0.55c0.31-0.06,0.61-0.12,0.92-0.18c0.55-0.43,1.1-0.86,1.65-1.29    c0.28-0.83,0.35-1.52,0.37-2.39c-0.18-0.12-0.37-0.25-0.55-0.37c-0.37-0.18-0.73-0.37-1.1-0.55c-1.16-0.12-2.33-0.25-3.49-0.37    c-0.39-0.23-0.72-0.75-1.1-0.37c-0.4-0.13-0.83-0.36-1.19-0.43c-0.36-0.07-0.65,0.03-0.72,0.56c0.08,0.14,0.17,0.28,0.25,0.42    c-0.24,0.55-0.49,1.1-0.73,1.65c0,0.51,0.22,0.89,0.05,1.33c-0.2,0.17-0.4,0.34-0.6,0.51c0,0.56-1.31,2.02-1.84,2.02    c-0.34,0.4-0.67,0.79-1.01,1.19c-0.7,0.64-1.49,1.13-2.11,1.75c-0.31,0-0.61,0-0.92,0c-0.67,0.14-0.56,0.72-1.29,0.37    c-0.24,0.31-0.49,0.61-0.73,0.92c-0.23,0-0.88,0.44-1.1,0.92c-1.02,0.62-2.62,0.97-3.31,1.65c-0.93,0.05-2.09-0.12-2.76,0.55    c-0.55,0.12-1.1,0.25-1.65,0.37c-1.13,0-1.96,0.3-2.94,0.73c-1.04-0.24-2.08-0.49-3.12-0.73c-0.41-0.41-1.08-0.46-1.47-1.1    c-0.84,0.16-0.99-0.05-1.84,0c0-0.12-2.23-1.29-2.57-1.29c-0.52-0.34-1.1-0.97-1.1-1.65c-0.61-0.43-1.22-0.86-1.84-1.29    c0-0.3-1.17-1.29-1.47-1.29c0-0.86,0.22-1.84-0.92-1.84c0-0.48-0.21-0.76-0.55-1.1c0-0.33-0.82-2.11-1.1-2.39    c0.06-0.06,0.12-0.12,0.18-0.18c-0.35-0.35,0.16-0.92-0.18-0.92c-0.49-0.49-0.79-0.6-1.47-0.73c-0.3-0.3-0.29-0.51-0.73-0.73    c-0.18,0.06-0.37,0.12-0.55,0.18c-0.44-0.44-1.13-0.78-1.29-1.47c-0.31-0.06-0.61-0.12-0.92-0.18c-0.12-0.24-0.24-0.49-0.37-0.73    c-0.55-0.18-1.1-0.37-1.65-0.55c-0.9-0.19-1.48-0.93-2.02-1.47v0.55c-0.12,0-0.16,1.86,0,2.02c-0.24,0.31-0.48,0.63-0.72,0.94    c-0.71,0.71-2.22,1.37-2.22,2.55c-0.92,0.67-1.84,1.35-2.76,2.02c-0.38,1.27-0.76,2.54-1.14,3.81c-0.42,2.1-0.83,4.19-1.25,6.29    c-0.42,0.42-2.16,2.14-2.2,2.57c-0.83,0.4-1.66,0.8-2.5,1.19c-0.66,0.66-0.61,2.32-0.81,3.21c-0.15,0.67-0.68,0.86-1.1,1.29    c0,0.43-0.52,0.92-0.92,0.92c-0.52,0.93-0.71,1.83-0.55,2.94c0.1,0.67,0.81,1.76,0.18,2.39c0,0.49-0.41,1.59-0.77,1.74    c-1.03,0.34-2.06,0.67-3.09,1.01c0,0.96-1.05,1.43-1.31,2.26c-0.12,0.39-0.04,1.17-0.38,1.34c-1.52,0.76-2.42,0.26-4.01,0.26    c-1.08,0-1.96-0.02-2.92-0.4c-1.29-0.05-2.58-0.1-3.87-0.16c-1.48-1.08-3.11-1.81-4.75-2.53L202.58,180.84z"/>
            <circle cx="253.46" cy="161.92" r="1.586"/>
        </g>
    </g>
</svg>