<?xml version="1.0" encoding="UTF-8"?>
<!DOCTYPE svg PUBLIC "-//W3C//DTD SVG 1.1//EN" "http://www.w3.org/Graphics/SVG/1.1/DTD/svg11.dtd">
<svg version="1.1" id="HaritaCizim" xmlns="http://www.w3.org/2000/svg" xmlns:xlink="http://www.w3.org/1999/xlink" x="0px" y="0px" viewBox="0 0 600 700" preserveAspectRatio="none">
    <defs id="__def">
        <radialGradient id="f">
            <stop offset="0" stop-color="white" stop-opacity="1"/>
            <stop id="STOP1" offset=".4" stop-opacity="1"/>
            <stop offset="1" stop-color="white" stop-opacity=".2"/>
        </radialGradient>
        <filter id="__flt1" x="0" y="0" width="200%" height="200%" filterUnits="objectBoundingBox">
            <feGaussianBlur in="SourceAlpha" stdDeviation="3" result="blur1"/>
            <feSpecularLighting result="specOut" in="blur1" specularConstant="1.5" specularExponent="20" lighting-color="#bbbbbb">
                <feDistantLight azimuth="45" elevation="30"/>
            </feSpecularLighting>
            <feComposite in="specOut" in2="SourceAlpha" operator="in" result="specOut"/>
            <feComposite in="SourceGraphic" in2="specOut" operator="arithmetic" k1="0" k2="1" k3="1" k4="0"/>
        </filter>
        <filter id="__flt2" x="0" y="0" width="200%" height="200%" filterUnits="objectBoundingBox">
            <feGaussianBlur in="SourceAlpha" stdDeviation="3" result="blur1"/>
            <feSpecularLighting result="specOut" in="blur1" specularExponent="20" lighting-color="#bbbbbb">
                <fePointLight x="-2000" y="100" z="2000"/>
            </feSpecularLighting>
            <feComposite in="specOut" in2="SourceAlpha" operator="in" result="specOut"/>
            <feComposite in="SourceGraphic" in2="specOut" operator="arithmetic" k1="0" k2="1" k3="1" k4="0"/>
        </filter>
        <filter id="__flt3" x0="-50%" y0="-50%" width="200%" height="200%" filterUnits="objectBoundingBox">
            <feGaussianBlur in="SourceAlpha" stdDeviation="3" result="blur"/>
            <feOffset in="blur" dx="0" dy="0" result="offsetBlur"/>
            <feSpecularLighting in="blur" surfaceScale="4" specularConstant=".5" specularExponent="20" lighting-color="flavor" result="specOut">
                <fePointLight x="-5000" y="-10000" z="5000"/>
            </feSpecularLighting>
            <feComposite in="specOut" in2="SourceAlpha" operator="in" result="specOut"/>
            <feComposite in="SourceGraphic" in2="specOut" operator="arithmetic" k1="0" k2="1" k3="1" k4="0" result="litPaint"/>
            <feMerge>
                <feMergeNode in="offsetBlur"/>
                <feMergeNode in="litPaint"/>
            </feMerge>
        </filter>
        <filter id="__flt4" x0="-50%" y0="-50%" width="200%" height="200%">
            <feGaussianBlur in="SourceAlpha" stdDeviation="2" result="blur"/>
            <feOffset dy="-1" dx="-1"/>
            <feComposite in2="SourceAlpha" operator="arithmetic" k2="-1" k3="1" result="hlDiff"/>
            <feFlood flood-color="white" flood-opacity=".7"/>
            <feComposite in2="hlDiff" operator="in"/>
            <feComposite in2="SourceGraphic" operator="over" result="withGlow"/>
            <feOffset in="blur" dy="3" dx="3"/>
            <feComposite in2="SourceAlpha" operator="arithmetic" k2="-1" k3="1" result="shadowDiff"/>
            <feFlood flood-color="black" flood-opacity="1"/>
            <feComposite in2="shadowDiff" operator="in"/>
            <feComposite in2="withGlow" operator="over"/>
        </filter>
        <filter id="__golge1" x="0" y="0" width="200%" height="200%" filterUnits="userSpaceOnUse">
            <feOffset result="offOut" in="SourceAlpha" dx="8" dy="8"/>
            <feGaussianBlur result="blurOut" in="offOut" stdDeviation="3"/>
            <feBlend in="SourceGraphic" in2="blurOut" mode="normal"/>
        </filter>
    </defs>
    <g id="__Harita" fill="white" stroke="#000000" stroke-width="0.25" stroke-miterlimit="10" display="none">
        <rect id="__cer" x="0" y="0" fill="#000000" opacity="0" width="600" height="700"/>
        <g id="__Kadirli">
            <path d="   M282.67,100c-7.53,0.27-14.99,0.02-22.4,0.95c-1.43-0.11-2.86-0.22-4.29-0.33c-4.46,1.34-9.07,2.88-12.6,6.17   c-2.59,0.39-5.18,0.78-7.77,1.16c-0.78,0.28-1.95-0.08-2.23,0.72c-0.59,1.53-1.18,3.06-1.77,4.59c-0.01,2.38-0.02,4.76-0.03,7.14   c-0.8,4.79-0.15,9.13,0.33,13.85c-0.2,1.59-0.4,3.18-0.6,4.77c0.53,0.99-0.16,5.33-0.55,6.52c0.5,1.87-0.43,3.88-1.12,5.68   c0.93,1.63-0.74,6.95-1.03,9.08c0.22,0.77,0.44,1.54,0.66,2.31c-0.11,1.54-0.22,3.08-0.33,4.62c-0.66,1.32-1.32,2.64-1.98,3.96   c-0.11,1.87-0.22,3.74-0.33,5.61c-1.01,1.94-0.78,2.54-0.33,4.62c-0.11,0.55-0.22,1.1-0.33,1.65c0.11,0.44,0.22,0.88,0.33,1.32   c-0.62,1.46-1.8,4.07-0.99,5.61c-0.31,0.98-0.96,1.99-0.66,2.97c-2,2.88-5.33,6.27-5.94,9.89c0.11,0.66,0.22,1.32,0.33,1.98   c-0.55,2.42-1.1,4.84-1.65,7.26c-0.11,1.43-0.22,2.86-0.33,4.29c-1.18,4.27-2.63,8.57-3.3,12.86c-1.18,1.18-1.66,2.33-2.31,3.96   c-0.11,1.54-0.22,3.08-0.33,4.62c-0.9,0.9-1.03,4.53-1.32,5.94c-1.23,0-4.92,2.09-4.96,3.29c-0.02,0.32-0.05,0.65-0.07,0.97   c0.36,1.58,2.06,2.18,2.06,3.99c-1.1,3.08-2.2,6.16-3.3,9.23c-0.33,3.08-0.66,6.16-0.99,9.23c-1.21,3.19-2.42,6.38-3.63,9.56   c-1.6,3.26-4.79,5.56-5.61,8.9c-0.9,0.83-1.81,1.67-2.71,2.5c-1.62,2.3-4.57,6.66-7.18,7.72c-1.43,2.53-2.86,5.06-4.29,7.58   c-1.98,2.53-3.96,5.06-5.94,7.58c-2.42,1.32-4.84,2.64-7.25,3.96c-2.92,0.66-8.62,0.93-11.54,0.33c-3.23-0.93-6.46-1.87-9.7-2.8   c-1.68-0.05-3.37-0.1-5.05-0.14c-0.74-0.62-3.61-1.37-4.38-0.68c-0.99-0.33-1.98-0.66-2.97-0.99c-2.2,0-4.4,0-6.6,0   c-1.63-0.26-2.94-0.69-4.62-0.61c-1.07,0.05-2.79-0.02-2.64,0.28c0.24,0.72,0.17,2.17,0,2.64c0.18,1.56,0.15,3.06,0.33,4.62   c-0.11,0.55-0.22,1.1-0.33,1.65c-0.99,1.43-1.98,2.86-2.97,4.29c0.11,0.66,0.22,1.32,0.33,1.98c-0.03,1.07-0.55,1.97,0,2.97   c-0.04,2.76,0.08,1.93,0,3.63c0.19,0.49-0.03,4.53,0,4.95c0.32,3.31,0.4,6.07,0.66,7.25c0.29,1.81,0.49,4.16,0,5.28   c-0.59,1.36-0.68,7-1.38,10.54c-0.53,2.42-1.06,4.84-1.59,7.27c0,1.54,0,3.08,0,4.62c-0.23,2.45-0.9,4.75-0.66,7.25   c0.77,1.76,1.54,3.52,2.31,5.28c0.55,2.09,1.1,4.18,1.65,6.27c0.11,1.21,0.22,2.42,0.33,3.63c1.18,0,1.73,2.38,1.98,3.3   c-1.4,2.02-0.33,2.13-0.33,4.29c-0.88,0.66-1.76,1.32-2.64,1.98c0,1.28,1.47,1.05,0.99,2.64c0.28,0.2,0.71,0.46,0.99,0.66   c-0.11,0.02-0.31,1.05-0.33,1.32c-1.21,0.31-2.74,0.35-3.96,0.66c-2.72,0.73-3.82,5.94-5.04,7.96c-0.52,0.65-1.04,1.29-1.56,1.94   c0.53,1.21-0.33,2.02-0.33,3.3c-0.71,0.96-1.42,1.91-2.12,2.86c-0.28,1.24-0.56,2.49-0.85,3.73c-0.79,0.79-0.82,1.27-0.99,2.31   c-0.15,0.89-0.98,2.04-1.65,2.64c-0.28,1.31,0.56,3.34-1.32,4.29c1.53,0.85,1.05,0.72,2.31,1.98c0,0.66,0,1.32,0,1.98   c-0.36,0.35-1.18,1.31-0.48,1.76c0.72,0.43,0.67,0.88,1.47,0.88c1.17,0,1.7-2.52,2.7-2.17c0.42,0.06,0.84,0.13,1.26,0.2   c0.44,0.33,0.88,0.66,1.32,0.99c0.22,0.33,0.44,0.66,0.66,0.99c0.21-0.04,0.42-0.08,0.63-0.12c0.51-0.1,1.52-0.1,1.24-0.83   c-0.43-1.25-3.21-4.51-1.87-4.98c0.99-0.47,2.64-0.52,3.63-0.99c0-0.5,0.1-1.32,0.66-1.32c1.21,0.22,2.34-0.22,4.29-0.99   c0.88-0.55,2.42-0.11,3.3-0.66c2.79,0,4.54-1.98,4.71-4.61c0-1.85,0.03-1.24,0.24-2.98c0.64-0.52,2.08-1.13,2.31-0.99   c1.48,0.4,2.9,0.38,4.41-0.37c1.18-0.66-0.94-2.6-0.12-2.6c2.12,0,4.08,3.24,6.38,1.57c0.95-0.85,1.9-1.7,2.85-2.56   c1.53-2.25,0.58-4.87,4.62-5.28c1.31-0.04,2.79,1.55,4.4,1.72c1.72-0.13,3.44-0.27,5.16-0.4c2.09,0.77,4.18,1.54,6.27,2.31   c2.09,0.22,4.18,0.44,6.27,0.66c2.29,0.26,4.3,1.27,6.6,0.66c1.42-0.38,2.78-1.74,3.7-2.79c1.02-0.31,1.33-1.23,2.11-1.88   c0.64-0.53,1.29-1.17,2.1-1.27c0.98-1.51,1.87-2.22,3.3-3.3c1.29-1.16,2.59-2.32,3.88-3.48c2.02-1.21,4.05-2.43,6.07-3.64   c2.06-1.03,4.43-2.01,6.75-2.35c1.25-0.57,2.51-1.13,3.76-1.7c3.9-1.7,4.61-2.85,8.88-3.34c2.16-0.26,7.28-0.55,9.44-0.8   c2.28,0.35,3.98,1.85,6.37,2c0.94,1.21,2.25,1.99,3.69,2.47c1.96,0.1,3.93,0.19,5.89,0.29c1.05-0.28,2.71-1.4,3.63-0.99   c0.66-0.88,1.32-1.76,1.98-2.64c0.89-0.65,1.77-1.3,2.66-1.95c0.73-0.62,1.94-1.57,2.94-1.25c2.06,0.64,2.55,1.03,4.26,2.28   c0.03,0.65,3.3,4.78,3.88,5.15c3.97,2.48,12.7,1.1,17.23,0.33c2.18-0.47,4.36-0.95,6.54-1.42c0.54-0.32,1.73-0.82,1.73-1.49   c0.11-0.77,0.22-1.54,0.33-2.31c-0.82-1.16-1.14-3.38-0.17-4.47c0.49-0.49,0.99-0.98,1.48-1.46c1.22,0.95,3.07,2.02,4.29,2.97   c0.08-2.88-0.11-7.24-3.96-7.91c-1.03-1.65-1.57-3.59-3.3-4.95c-1.01,0.5-2.02,1.01-3.03,1.51c-0.3-0.79-1.28-3.52-0.93-2.5   c-0.54-0.37-2.31-0.8-2.31-1.65c0.5-0.63,1.98-1.97,1.32-2.64c-0.8-1.77-0.71-3.62-2.42-4.38c-0.18-0.08-0.36-0.16-0.55-0.24   c-0.28,0-1.78,2.06-2.97,2.31c-0.7-0.7,1.13-1.46,0.99-2.31c-1.33-0.48-3.16,0.78-3.96,0.66c0.5-1.36,2.34-1.32,3.62-1.99   c2.58-1.35,4.1,0.73,6.61,1.99c0-0.55,1.59-3.9,0.33-3.3c-3.37,1.6-1.42-1.36-1.98-1.65c-0.38-1.57-2.85-1.41-4.62-0.99   c-1.08-1.08-2.82-0.52-4.27-1.13c-0.67-0.5-1.33-1-2-1.5c-0.93-0.51-3.32-1.3-2.96-1.6c0.82-0.7,1.51-0.99,2.63-1.04   c2.54,1.67,5.3,2.13,8.24,2.64c0.9,0.15,1.55-0.19,2.31,0.33c0.78,0.53,1.81,0.37,2.63,0.02c0.58,0.56,0.6,0.94,0.74,0.32   c0.49-2.08-0.5-1.97-1.39-3.31c-0.11-0.55-0.22-1.1-0.33-1.65c-1.21-0.99-2.42-1.98-3.63-2.97c0-1.7-2.01-3.33-2.97-4.29   c-0.38-1.59-0.12-3.37-0.99-4.95c0.04,0.18,0.08,0.35,0.12,0.53c0.79,1.24,1.04,2.55,2.23,4.06c0.9,1.06,1.27,0.98,2.6,1.02   c0,2.17,0.67,3.01,2.31,4.29c0.36,0.28,2.2,1.17,2.4,0.84c0.68-0.99,0.9-0.03,0.9-1.49c-0.77-1.1-1.54-2.2-2.31-3.3   c3.06-0.87,4.08-1.7,2.97-4.95c1.34,0,3.56-4.43,2-5.34c-1.66-1.08-3.31-2.16-4.97-3.24c0.52-0.52-0.03-1.04-0.33-1.65   c0.21,0.13,0.42,0.25,0.63,0.38c0.45,0.07,5.59,1.69,5.22,0.29c-0.28-1.2-1.58-6.07-2.94-6.36c-1.74-0.3-3.48-0.6-5.22-0.91   c-0.55-0.77-1.1-1.54-1.65-2.31c1.36,0.59,3.64,1.87,4.29,0.08c0-0.25,0-0.49,0-0.74c1-0.89,1.52-1.54,2.31-2.64   c0-0.54,0-1.65-0.66-1.65c1.65-2.47,0.06-6.32-0.08-9.2c0.26-0.88,1.14-1.79,1.4-2.67c-1.15-2.34-3.13-3.77-2.17-5.54   c0.53-1.06,4.1-3.08,2.83-4.35c-0.02-0.68,0.14-1.13-0.33-1.65c0.27-1.05,0.55-2.1,0.82-3.14c-0.86-0.92-0.58-1.28-1.72-0.66   c-0.64,0.29-2.83,2.79-2.62,0.53c0.65-1.58,1.48-3.1,1.22-4.86c-0.66-0.14-1.98,1.11-1.99-0.43c1.96,0,4.04-2.52,3.76-4.26   c-1.07-2.42-2.41-1.12-3.76-2.34c1.21-1.21,2.29-3.79,2.07-5.46c-0.14-0.83-1.99-0.93-1.68-2.42c0.31-1,0.62-2,0.93-3   c0.66-0.88,1.32-1.76,1.98-2.64c0-0.44,0-0.88,0-1.32c-1.46-1.46-1.68-3.34-2.53-5.13c-0.49-1.03-1.3-1.66-1.09-2.78   c-0.45-0.13-3.82-1.13-2.91-2.04c0.64-0.75,1.28-1.5,1.92-2.25c-0.44-1.32-1.21-1.98-1.65-3.3c0.88-1.71,2.54-3.14,2.64-4.95   c-0.03-0.21-0.63-1.11-0.66-1.32c-0.77,0-1.54,0-2.31,0c0.22-0.66,0.44-1.32,0.66-1.98c-0.77-1.21-1.54-2.42-2.31-3.63   c0.65-2.15-0.88-4.13-1.32-6.27c-0.22-0.77-0.44-1.54-0.66-2.31c0.33-1.43,0.66-2.86,0.99-4.29c-0.01-1.31-0.03-2.62-0.04-3.94   c0.6-0.57,0.68-1.5,0.82-2.31c1.54-1.01,2.18-3.44,2.25-5.21c0.16-0.57,0.32-1.14,0.47-1.71c1.66-1.28,1.6-5.37,1.77-7.28   c-0.44-3.08-0.88-6.16-1.32-9.23c0.44-2.64,0.88-5.28,1.32-7.91c1.1-1.76,2.2-3.52,3.3-5.28c0.22-0.99,0.44-1.98,0.66-2.97   c-0.36-1.85-0.26-6.09,0.99-7.58c-0.46-2.41-1.32-4.44-1.32-6.93c0.91-2.86,1.81-5.72,2.72-8.57c0.52-2.2,1.04-4.4,1.57-6.6   c0.11-2.42,0.22-4.84,0.33-7.25c-1.32-3.37-4.28-5.52-6.77-8.07c-1.26-1.38-2.52-2.75-3.78-4.13c-0.88-1.32-1.76-2.64-2.64-3.96   c-1.32-1.98-2.64-3.96-3.96-5.94c-0.88-0.88-1.76-1.76-2.64-2.64c-2.26-2.29-4.53-4.58-6.79-6.87c0.83-0.68,1.66-1.36,2.49-2.04   c0.61-0.94,1.23-1.88,1.84-2.82c1.01-0.29,2.22-1.25,3.11-0.79c0.66-0.99,1.32-1.98,1.98-2.97c1.65-0.55,3.3-1.1,4.95-1.65   c0.68-1.14,1.35-2.29,2.03-3.43c1.15-0.37,1.34-1.52,2.26-2.17c0.61-0.43,4-0.59,3.93-1.26c-0.09-0.52-0.03-1.38-0.63-1.38   c0.18-0.05,0.36-0.1,0.55-0.14C284.24,101.33,283.78,99.96,282.67,100z"/>
            <circle cx="205.52" cy="332.44" r="1.586"/>
        </g>
        <g id="__Sumbas">
            <path d="M231.57,120.4c0.01-2.38,0.02-4.76,0.03-7.14   c0.59-1.53,1.18-3.06,1.77-4.59l-1.48,0.23c-1.84,1.41-3.36,2.72-4.87,4.48c0,0-1.11,3.23-1.21,3.5c-1.92,1.1-3.31,1.78-5.12,3.18   c-0.57,1.71-0.2,3.18-1.32,4.62c-2.53,2.75-5.06,5.5-7.58,8.24c-0.55,0.22-1.1,0.44-1.65,0.66c-0.04,0.67-0.08,1.33-0.12,2   c-0.96,0.89-3.21,2.98-3.08,4.09c-1.02,1.05-2.04,2.1-3.06,3.14c0.54,1.62-1.49,3.89-2.31,5.28c-2.42,4.4-4.84,8.79-7.25,13.19   c-0.93,1.78-2.46,3.01-3.96,4.29c-0.5,1.67-5.41,5.06-6.92,6.27c-0.47,2.16-4.34,4.62-5.61,6.6c-1.44,2.25-4.03,4.2-6.18,5.89   c-0.69,0.45-1.37,0.91-2.06,1.36c-4.44,3.26-8.89,6.52-13.33,9.78c-1.19,1.33-2.38,2.67-3.57,4c-2.06,2.77-4.12,5.54-6.18,8.32   c-0.66,0.99-1.32,1.98-1.98,2.97c-0.62,3.86-2.42,7.39-2.85,11.23c-0.27,4.83-0.55,9.65-0.82,14.48c-1.4,4.96-2.11,7.01-5.88,10.56   c-0.33,1.1-0.66,2.2-0.99,3.3c-0.38,2.34-0.73,4.53-0.66,6.93c-0.76,0.37-1.62,2.47-2.31,3.3c-0.66,0.55-1.32,1.1-1.98,1.65   c-0.99,1.21-1.98,2.42-2.97,3.63c-0.99,2.75-1.98,5.5-2.97,8.24c-0.44,2.86-0.88,5.72-1.32,8.57c0,3.85,0,7.69,0,11.54   c-0.22,1.54-0.44,3.08-0.66,4.62c0,2.97,0,5.94,0,8.9c-0.33,1.81-2.2,5.16-2.57,5.82c0.32-0.16,1.68-0.12,2.57-0.16   c1.68-0.08,2.99,0.35,4.62,0.61c2.2,0,4.4,0,6.6,0c0.99,0.33,1.98,0.66,2.97,0.99c0.77-0.69,3.64,0.06,4.38,0.68   c1.68,0.05,3.37,0.1,5.05,0.14c3.23,0.93,6.47,1.87,9.7,2.8c2.92,0.6,8.62,0.33,11.54-0.33c2.42-1.32,4.84-2.64,7.25-3.96   c1.98-2.53,3.96-5.06,5.94-7.58c1.43-2.53,2.86-5.06,4.29-7.58c2.61-1.06,5.56-5.42,7.18-7.72c0.9-0.83,1.81-1.67,2.71-2.5   c0.82-3.34,4-5.64,5.61-8.9c1.21-3.19,2.42-6.38,3.63-9.56c0.33-3.08,0.66-6.16,0.99-9.23c1.1-3.08,2.2-6.16,3.3-9.23   c0-1.81-1.7-2.41-2.06-3.99c0.02-0.32,0.05-0.65,0.07-0.97c0.04-1.2,3.72-3.29,4.96-3.29c0.29-1.41,0.42-5.04,1.32-5.94   c0.11-1.54,0.22-3.08,0.33-4.62c0.65-1.63,1.13-2.78,2.31-3.96c0.67-4.29,2.11-8.59,3.3-12.86c0.11-1.43,0.22-2.86,0.33-4.29   c0.55-2.42,1.1-4.84,1.65-7.26c-0.11-0.66-0.22-1.32-0.33-1.98c0.6-3.62,3.93-7.01,5.94-9.89c-0.3-0.98,0.35-1.99,0.66-2.97   c-0.81-1.54,0.37-4.15,0.99-5.61c-0.11-0.44-0.22-0.88-0.33-1.32c0.11-0.55,0.22-1.1,0.33-1.65c-0.45-2.08-0.68-2.68,0.33-4.62   c0.11-1.87,0.22-3.74,0.33-5.61c0.66-1.32,1.32-2.64,1.98-3.96c0.11-1.54,0.22-3.08,0.33-4.62c-0.22-0.77-0.44-1.54-0.66-2.31   c0.29-2.13,1.96-7.45,1.03-9.08c0.69-1.8,1.63-3.81,1.12-5.68c0.38-1.19,1.07-5.53,0.55-6.52c0.2-1.59,0.4-3.18,0.6-4.77   C231.43,129.53,230.78,125.2,231.57,120.4z M168.26,247.69c-0.62-0.53-1.28-0.19-2.02-0.36c-1.13-0.83-2.25-1.66-3.38-2.48   c-0.99-0.85-1.62,0.24-2.51,0.87c0.38-1.57,1.12-2.6,1.98-3.96c-0.21-0.4-0.41-0.8-0.62-1.2c-0.28,0.01-0.56,0.02-0.83,0.03   c-0.29,0.06-0.57,0.12-0.86,0.17c0.33-0.55,0.66-1.1,0.99-1.65c-0.73-0.29-1.35-1.21-1.29-2.05c-2.05-2.05-2.2-5.18-2.61-7.8   c-0.46-0.56-0.92-1.13-1.38-1.69c0.09-0.22,0.17-0.45,0.26-0.67c0.03-0.87,0.06-0.97,0.83-1.39c0.19-0.08,0.37-0.17,0.56-0.25   c-0.11,0.22-0.22,0.44-0.33,0.66c0.66,0.88,1.32,1.76,1.98,2.64c0.11,0.55,0.22,1.1,0.33,1.65c1.54,2.62,2.32,6.47,5.28,7.58   c-0.45,1.3,0.24,2.31,0.99,3.3c0.1,0.79,0.19,1.57,0.29,2.36c0.49,1.29,2.46,0.78,3.8,1.2   C171.24,245.21,168.69,247.29,168.26,247.69z"/>
            <circle cx="168.59" cy="277.37" r="1.586"/>
        </g>
        <g id="__Osmaniye">
            <path d="   M417.01,531.11c-0.71-0.23-1.1-0.18-1.76,0.17c-1.17-0.72-5.15-1.83-5.61-2.97c-2.73-0.71-5.92-1.63-8.24-3.3c0-0.22,0-0.44,0-0.66   c-6.2-3.1-11.85-8.52-16.09-13.91c-1.56-1.98-2.97-4.29-4.36-6.53c0-0.97-1.7-5.73-2.31-6.27c0-0.99,0-1.98,0-2.97   c0.42-2.9,2.31-5.57,2.31-8.57c1.5-1.31,3.7-3.02,3.15-5.21c-1.6-5.08-3.2-10.15-4.8-15.23c-0.44-1.76-0.88-3.52-1.32-5.28   c-0.55-2.2-1.1-4.4-1.65-6.59c-0.63,0-0.68,0-1.05-0.52c-0.79-1.08,0.09-1.08-1.59-1.79c-0.17-0.07-3.69,0.47-3.49-0.27   c-0.62-0.29,0.23-1.83-0.41-0.98c-0.87,1.02-1.25,0.89-2.63,0.7c-1.5,0.02-2.51-0.79-4.02-0.77c-0.49-0.84-1.48-0.87-1.98-1.71   l-1.98-0.93c-1.52,0-5.16-0.88-6.6-2.31c-1.46,0-3.63-0.33-4.62-1.32c-1.15,0-3.17-0.2-3.96-0.99c-0.55,0-4.92-1.29-5.28-1.65   c-2.14,0-3.6-1.42-5.61-1.65c-1.1-0.33-2.2-0.66-3.3-0.99c-1.65,0.22-3.3,0.44-4.95,0.66c-0.77,0.44-1.54,0.88-2.31,1.32   c-3.83,1.11-7.55,2.17-11.54,2.97c-3.03,0.61-7.71,1.59-10.55,0.99c-0.22,0.22-0.44,0.44-0.66,0.66c-0.44-0.11-0.88-0.22-1.32-0.33   c-0.66,0.11-1.32,0.22-1.98,0.33c-1.43,0.28-2.86,0.56-4.3,0.83c-3.29,0.6-6.59,1.2-9.88,1.8c-0.91,0.1-3,0.3-3.63-0.33   c-0.99,0.11-1.98,0.22-2.97,0.33c0-0.78-1.06-0.66-1.65-0.66c0.51-0.51,0.33-1.27,0.33-1.98c0.97-0.97,1.98-2.54,1.98-3.96   c-0.55-0.66-1.1-1.32-1.65-1.98c0.11-0.22,0.22-0.44,0.33-0.66c-0.77-0.77-2.31-1.09-2.31-2.64c0.44-0.44,0.33-0.73,0.33-1.32   c0.72-0.68,1.45-1.36,2.17-2.04c0.65-1.3-1.54-2.22-0.53-3.24c1.18,0,4.29,0.11,4.29-1.32c0.33-0.55,0.66-1.1,0.99-1.65   c-1.33-1.33-2.07-6.67-0.48-8.44c0.49-0.48,0.98-0.97,1.47-1.45c1.54-0.11,3.08-0.22,4.62-0.33c0.99-1.32,1.98-2.64,2.97-3.96   c0.66,0,1.32,0,1.98,0c0-1.66,3.67-2.24,0.33-3.96c-1,0-4.95-0.36-4.95-1.32c-0.11-0.22-0.22-0.44-0.33-0.66l-0.73-1.22   c-2.61,0.63-5.23,1.25-7.84,1.88c-1.43,0-2.86,0-4.29,0c-2.98,0.28-6.55,1.31-9.56,0.66c-3.19-0.69-5.28-4.44-7.59-6.57   c-1.39-1.28-3.03-2.68-4.94-2c-0.33,0.11-0.66,0.22-0.99,0.33c-1.54,1.76-3.08,3.52-4.62,5.28c-1.21,0.33-2.42,0.66-3.63,0.99   c-1.54-0.11-3.08-0.22-4.62-0.33c-0.88,0-1.76,0-2.64,0c-1.12-0.64-2.25-1.28-3.37-1.92c-0.64-0.35-1.27-0.7-1.91-1.05   c-2.53-0.33-5.06-0.66-7.58-0.99c-3.11,0.62-9.56,0.33-11.87,2.64c-0.66,0.22-1.32,0.44-1.98,0.66c-1.43,0.55-2.86,1.1-4.29,1.65   c-2.61,0.67-7.86,2.62-9.93,4.29c-1.13,0.62-2.27,1.24-3.4,1.85c-0.21,0.9-0.87,1.37-1.83,1.44c-0.55,0.49-1.09,0.98-1.64,1.47   c-0.02,1.43-1.59,1.69-2.65,2.48c-0.45,0.53-0.89,1.05-1.34,1.58c-0.91,0.8-1.8,1.2-2.6,2.07c-0.96,1.06-4.3,4.03-4.3,4.03   c3.9,0.92,6.53,2.55,10.54,2.55c1.21,0.66,2.42,1.32,3.63,1.98c0.68,0.61,1.36,1.22,2.04,1.83c1.28,0.88,2.53,0.57,3.73,1.54   c0.37,0.35,0.75,0.7,1.12,1.05c0.34,0.5,0.68,1.01,1.02,1.52c1.27,1.63,0.47,5.84,0,7.58c0,1.32,0,2.64,0,3.96   c-0.38,1.69-3.27,1.68-2.88,4.54c0.1,0.59-0.25,0.58,0.24,1.06c1.07,0.68,2.61,1.31,2.97,2.64c0.55,0.44,1.1,0.88,1.65,1.32   c1.65,0.51,3.66,1.17,3.66,3.28c-0.01,1.88-0.02,3.75-0.03,5.63c-0.65,2.91-1.76,5.63-3.3,8.24c-0.34,0.58-4.77,4.98-3.94,4.93   c6.5,0,12.99,0.17,19.4,1.04c1.07,0.15,2.8,0.94,3.66,0.3c1.34,0.52,3.94,1.46,5.28,0.66c2.31,0.66,4.62,1.32,6.92,1.98   c0.52,0.65,0.83,1.46,1.65,1.65c0.33,0.66,0.66,1.32,0.99,1.98c0.11-0.11,0.22-0.22,0.33-0.33c0.08,0.13,0.16,0.25,0.24,0.38   c0.91,1.41,1.82,2.82,2.73,4.24c0.37,0.97,0.46,2.42,1.32,2.97c0,1.63-0.48,2.86-0.11,4.49c0.59,0.92,1.17,1.84,1.76,2.76   c0,1.45,0.36,2.27,0.66,3.63c0.5,2.29-0.26,5.24,0.99,7.25c-0.22,1.35-0.45,2.9,0.33,3.96c-0.32,2-0.72,5.2,0.99,6.6   c-0.61,3.65-1.18,7.17-1.41,10.87c-0.08,3.3-0.16,6.6-0.24,9.9c-0.55,2.83-0.07,6,0,8.9c0.61,0.42,0.91,0.66,1.65,0.66   c1.32-0.09,3.57-0.86,4.62,0c2.66-0.64,5.85-1.15,8.24,0.33c1.88,1.16,2.71,2.37,3.63,4.29c0.41,0.45,0.82,0.9,1.23,1.35   c1.17,1.45,2.34,2.91,3.51,4.36c0.18,0.41,0.36,0.81,0.54,1.22c2.39,2.99,4.77,5.98,7.16,8.97c1.68,1.41,3.36,2.82,5.04,4.23   c1.51,0.47,2.53,1.01,3.67,2.15c0.77,0.38,1.53,0.76,2.3,1.13c1.14,0.46,2.28,0.93,3.42,1.39c3.14,0.86,6.27,1.72,9.41,2.58   c4.4,1.21,8.79,2.42,13.19,3.63c1.98,0.55,3.96,1.1,5.94,1.65c3.4,0.79,6.53,1.72,9.37,3.74c2.13,1.33,4.26,2.67,6.39,4   c0.93,0.44,2.69,1.21,3.04,2.15c5.96,0.96,12.07,2.54,18.14,2.64c2.08-0.34,4.16-0.68,6.23-1.02c1.77-0.21,3.54-0.42,5.31-0.63   c2.41-0.67,5.48-0.12,7.69-1.37c1.93-1.1,2.18-2.81,2.44-4.87c0.62-0.51,0.59-1.22,0.72-1.99c1.55-1.21,3.1-2.42,4.65-3.64   c2.2-4.07,4.4-8.13,6.6-12.2c4.4-5.17,8.79-10.33,13.19-15.5c0.75-1.36,1.5-2.72,2.25-4.08c2.15-2.21,4.31-4.43,6.46-6.65   c1.27-1.26,2.55-2.52,3.82-3.78c0.33-0.66,0.66-1.32,0.99-1.98c1.96-2.91,2.59-4.55,3.3-5.94c1.32-2.59,1.42-2.65,2.09-4.57   c0.29-0.9,0.58-1.79,0.88-2.69C418.05,532.44,417.76,531.37,417.01,531.11z M272.91,458.46c-0.33,0.82-4.81,1.99-5.86,2.34   c-1.86,0.61-3.12,2.18-3.81,3.87c-1.76,0.38-2.33,1.91-3.48,3.13c-1.59-0.27-3.17-0.55-4.76-0.82c-0.55,0-0.21-0.91,0.13-1.04   c1.01,0.25,4.47-2.75,5.47-3.58c4.06,0.35,6.92-4.29,10.55-4.29c-0.16-0.97,0.99-1.93,1.91-2.36c0.05,0.18,0.11,0.36,0.17,0.54   C273.97,457.26,273.38,457.39,272.91,458.46z"/>
            <circle cx="278.07" cy="510.51" r="1.586"/>
        </g>
        <g id="__Hasanbeyli">
            <path d="   M460.1,470.61l-0.13-0.61c-2.36,1.27-6.33,0.09-8.81-0.48c-7.14-1.65-14.2-3.05-20.73-6.49c-0.25-1.26-3.23-4.37-4.29-5.28   c-0.8-1.18-1.27-1.89-1.98-3.63c-0.83-1.49-1.02-1.55-3.07-1.84c-0.79-0.47-4.33,0.31-5.5,0.53c-1.92,1.41-3.32,2.05-4.62,2.64   c-0.63,0.28-2.58,1.64-4.29,2.64c-2.45,1.35-4.74,0.04-7.63-0.37c-1.56-0.77-3.11-1.53-4.67-2.3c-1.68-0.55-6.8-2.28-8.33-1.78   c-0.77-0.15-1.89-0.4-2.46,0.17c-1.21-0.42-2.42-0.85-3.64-1.27c-1.32-0.35-2.63-0.69-3.95-1.04l0.33,2.31   c0.55,2.2,1.1,4.4,1.65,6.59c0.44,1.76,0.88,3.52,1.32,5.28c1.6,5.08,3.2,10.15,4.8,15.23c0.55,2.2-1.66,3.9-3.15,5.21   c0,3.01-1.89,5.68-2.31,8.57c0,0.99,0,1.98,0,2.97c0.61,0.54,2.31,5.29,2.31,6.27c1.39,2.24,2.8,4.55,4.36,6.53   c4.23,5.39,9.88,10.81,16.09,13.91c0,0.22,0,0.44,0,0.66c2.32,1.67,5.51,2.59,8.24,3.3c0.45,1.13,4.44,2.24,5.61,2.97   c0.66-0.36,1.05-0.4,1.76-0.17c0.74,0.26,1.04,1.33,1.54,0.83l1.32,0.99c0.05-1.14,2.48-3.72,3.16-5.02   c-0.17-0.71-0.34-1.42-0.52-2.13c0.16-1.15-1.49-7.64-2.38-8.32c-0.36-2.44,2.05-9.09,3.6-11.41c0.47-0.49,0.94-0.99,1.41-1.48   c0.64-1.02,1.28-2.05,1.92-3.07c1.66-1.97,2.78-4.1,4.68-5.83c0.2-1.08,2.22-3.01,3.25-3.54c2.8-1.46,5.66-0.52,8.6-1.48   c2.97-1.18,5.95-2.36,8.92-3.54c0.02-0.73,1.2-1.15,1.71-1.63c0.75-1,1.5-1.99,2.25-2.99C456.18,479.19,460.22,474.42,460.1,470.61   z M389.91,470.09c-1.13-1.29-2.39-2.77-4.01-3.76c-1.67,0-2.9-0.31-4.62,0c-0.45-0.45-0.89-0.9-1.34-1.35   c-1.47-1.41,1.34-2.65,2.66-2.61c0.55,0.44,1.1,0.88,1.65,1.32c1.15,0,1.59-1.13,2.66-0.76c0.08,0.03,0.16,0.05,0.23,0.08   c0.02-0.1,0.05-0.2,0.08-0.3c0,0.11,0,0.22,0,0.33c-0.03-0.01-0.05-0.02-0.08-0.03c-0.08,0.34-0.17,0.68-0.25,1.02   c1,1,1.99,2.01,2.99,3.01c0.52,1.11,1.04,2.21,1.56,3.32c0.13,0.2,0.27,0.4,0.4,0.6C391.2,470.66,390.55,470.37,389.91,470.09z"/>
            <circle cx="423.5" cy="473.58" r="1.586"/>
        </g>
        <g id="__Bahçe">
            <path d="   M359.85,448.19c-0.32-0.27,0.46,0.12,0.69,0.18c0.77,0.18,1.44,0.67,2.28,0.48c1.71,0.65,0.92,0.4,4.62,1.65   c0.44,0.97,1.55,0.69,3.09,0.45c0.72,0.56,1.02,0.48,2.18,0.54c1.54,0.44,1.87,0.22,3.3,0c1.31,0.35,2.63,0.69,3.95,1.04   c1.21,0.42,2.43,0.84,3.64,1.27c0.57-0.57,1.7-0.31,2.46-0.17c1.52-0.5,6.65,1.23,8.33,1.78c1.56,0.77,3.11,1.53,4.67,2.3   c2.89,0.41,5.18,1.72,7.63,0.37c1.7-0.99,3.66-2.35,4.29-2.64c1.29-0.59,2.69-1.23,4.62-2.64c1.18-0.21,4.72-0.99,5.5-0.53   c2.05,0.3,2.24,0.36,3.07,1.84c0.71,1.74,1.18,2.45,1.98,3.63c1.06,0.91,4.03,4.01,4.29,5.28c6.53,3.44,13.59,4.84,20.73,6.49   c2.48,0.57,6.46,1.75,8.81,0.48c2.11-1.15,2.78-3.5,4.13-5.61c0.43-0.67,1.47-1.58,1.28-2.36c1.77-1.42,6.22-5.79,7.91-6.27   c0.67-0.9,1.34-1.79,2.01-2.69c0.59-0.37,3.01-2.91,2.94-3.58c2-2.07,3.99-4.14,5.99-6.21c0.56-0.7,0.76-1.66,1.6-2.03   c0.44-1.54,0.88-3.08,1.32-4.62c0.03-0.57,0.07-1.15,0.1-1.72c1.17-0.64,2.35-1.27,3.52-1.91c1.43-1,3.73-2.72,3.96-4.29   c0.77-0.22,1.54-0.44,2.31-0.66c0.56-2.08,2.34-3.67,2.64-5.94c0.11-2.2,0.22-5.39,0.33-7.58c-1.81-2.14-3.1-3.52-5.36-5.5   c-4.76-4.18-10.56-7.38-14.1-12.63c-2.75-4.08-3.07-9.49-3.36-14.18c-0.35-1.77-0.91-4.49-1.26-6.27l-0.33,0.33   c-1.21-0.11-2.42-0.22-3.63-0.33c-1.02,0.7-5.74,1.12-6.6,0.33c-0.68,0.09-1.39,0.37-1.98,0c-1.32,0.33-2.64,0.66-3.96,0.99   c-0.5,0.06-0.83-0.33-1.63-0.21c-1.55,0.29-3.09,0.58-4.64,0.87c-0.74,0.56-3.98,2.97-4.62,2.97c-0.79,0.79-2.25,2.97-3.63,2.97   c-1.85,2.4-3.31,5.23-4.44,8c-0.39,0.85-0.78,1.7-1.16,2.56c-2.62,3.77-4.93,7.23-8.24,10.55c-1.68,0.05-2.06,1-3.3,1.98   c-1.43,0.77-2.86,1.54-4.29,2.31c-1.83,0-8.97,3.36-10.22,4.62c-1.99,0-3.62,2.19-5.61,2.64c-1.61,0.36-2.55,0.57-3.63,1.65   c-3.54,0.8-6.15,2.7-9.19,4.73c-0.31,0-0.63,0.01-0.94,0.01c-1.16,0.8-2.32,1.6-3.47,2.4c-3.12,1.27-5.94,3.46-8.49,5.39   c-0.66,0.77-1.32,1.54-1.98,2.31c-3.61,2.41-5.14,5.28-9.56,5.28c-0.72,0.72-0.66,1-0.66,1.98c-0.55-0.22-1.1-0.44-1.65-0.66   c0,1.14-0.97,0.64-1.65,1.32c0,0.96-2.48,3.63-3.63,3.63c-0.47,0.47-0.77,1.21-1.32,0.66c-0.44,0.6-1.55,2.31-2.31,2.31   L359.85,448.19z"/>
            <circle cx="438.99" cy="431.37" r="1.586"/>
        </g>
        <g id="__Toprakkale">
            <path d="   M241.47,552.39c-0.07-2.91-0.55-6.08,0-8.9c0.08-3.3,0.16-6.6,0.24-9.9c0.23-3.7,0.8-7.22,1.41-10.87c-1.71-1.4-1.31-4.6-0.99-6.6   c-0.78-1.06-0.55-2.61-0.33-3.96c-1.25-2.02-0.49-4.97-0.99-7.25c-0.29-1.36-0.66-2.18-0.66-3.63c-0.59-0.92-1.17-1.84-1.76-2.76   c-0.36-1.63,0.11-2.86,0.11-4.49c-0.86-0.55-0.95-2-1.32-2.97c-0.91-1.41-1.82-2.82-2.73-4.24c-0.08-0.13-0.16-0.25-0.24-0.38   c-0.11,0.11-0.22,0.22-0.33,0.33c-0.33-0.66-0.66-1.32-0.99-1.98c-0.82-0.19-1.13-1-1.65-1.65c-2.31-0.66-4.62-1.32-6.92-1.98   c-1.33,0.8-3.93-0.14-5.28-0.66c-0.86,0.64-2.59-0.15-3.66-0.3c-6.41-0.87-12.91-1.04-19.4-1.04l0.31-0.31   c-1.74,1.54-3.94,8.26-1.98,10.22c0.66,0.44,1.32,0.88,1.98,1.32c2.55,0,6.19,5.26,7.08,7.48c0.41,1.02,1.7,3.52,0.83,4.39   c-1.12,1.08-4.74,3.83-3.3,5.28c-0.07,0.3-0.14,0.59-0.21,0.89c0.4,0.47,0.8,0.95,1.2,1.42c0.33,2.64,0.66,5.28,0.99,7.91   c-0.55,0.55-0.54,0.79-1.4,1.1c-0.97,0.38-1.12,0.54-2.19,0.34c-1.52-0.29-1.64-2.85-3.61-1.98c-0.78,0.49-1.57,0.98-2.35,1.46   c-0.77,0.24-1.55,0.48-2.32,0.72c-0.96,0-1.89-0.45-2.6,0.09c-0.34,0.19-0.69,0.38-1.03,0.57c-0.62,1.18-2.09,4.37-2.97,4.95   c-0.11,2.75-0.22,5.5-0.33,8.24c0.29,1.11-0.51,2.31,0,3.3c-0.48,1.97-1.38,3.38-1.65,5.28c0-0.25-0.14-0.92,0.26-0.53   c1.51,1.67,1.39,6.9,1.39,9.1c0.53,0.19,1.05,0.38,1.58,0.57c1.56,0.36,2.69,1.2,4.53,1.37c0.16,0.23,0.32,0.47,0.48,0.7   c1.32,0,2.64,0,3.96,0c5.88-0.47,11.26,0.33,17.15,0.33c2.75,0,5.4,0,7.91,0c0.1-0.24,0.2-0.49,0.3-0.73   c0.23-0.31,0.46-0.61,0.69-0.92c0.63-2.19,1.26-4.39,1.89-6.58c0.29-0.78,0.58-1.55,0.87-2.33c0.5,0.15,0.88-0.02,0.88,0.34   c1.31,2.51,2.62,5.02,3.93,7.52c0.05,1.23,1.16,1.2,1.35,2.37c0.22,0,0.44,0,0.66,0c2.73,0,5.46-0.01,8.19-0.01   c0.62,0.01,2.69,0.09,2.69-0.65H241.47z"/>
            <circle cx="223.99" cy="513.15" r="1.586"/>
        </g>
        <g id="__Düziçi">
            <path d="   M287.3,396.74c0.22-0.11,0.44-0.22,0.66-0.33c1.1,1.21,2.2,2.42,3.3,3.63c0.61,0,1.32,0.17,1.32-0.66c0.15-0.95,0.3-1.9,0.44-2.85   c-1.08-1.08-0.15-3.12-1.1-4.07c-0.11-0.66-0.22-1.32-0.33-1.98c-0.22,0-0.44,0-0.66,0c-1.25,0-1.1-0.54-1.98-1.32   c1.44-1.49,2.31-2.83,2.31-4.95c-0.66-0.11-1.32-0.22-1.98-0.33c-0.55-0.88-1.1-1.76-1.65-2.64c-0.33-0.22-0.66-0.44-0.99-0.66   c-0.82,0-3.63,1.85-3.63,0.66c-0.39-0.74-1.35-3.26-0.99-3.63c0-0.38,0.98-1.97,1.32-2.31c0.77,0,1.37,1.65,2.64,1.65   c0.74-0.74,2.96-0.92,3.96-2.31c0.84-1.16,1.65-4.51,1.65-5.94c0.55-0.44,1.1-0.88,1.65-1.32c0.33-0.55,0.66-1.1,0.99-1.65   c1.76,1.86,2.07,2.2,4.29,0.66c-0.18-0.04-0.36-0.09-0.54-0.13c-0.7-0.72-1.4-1.44-2.1-2.15c0-1.6,0.83-2.49,1.98-3.65   c0-2.35,2.31-4.16,2.31-6.27c0.88-0.33,1.76-0.66,2.64-0.99c-0.37,0-1.89-0.36-1.5-0.83c0.12-0.33,0.24-0.65,0.36-0.98   c1.04-0.82,2.08-1.65,3.12-2.47c1.54-0.77,3.08-1.54,4.62-2.31c0.21-0.32,0.42-0.65,0.63-0.97c0.4-0.4,3.01-2.33,1.35-2.33   c-0.33-0.22-0.66-0.44-0.99-0.66c1.87-1.32,3.74-2.64,5.61-3.96c0-1.31,0.04-3.63,1.98-3.63c0.22,0,0.44,0,0.66,0   c0.94,0.94,0.99,2.31,0.99,3.63c2.11-2.11,3.57,1.71,5.61-0.33c1.66,0,3.3-1.65,3.3-3.3c0.47-0.47,0.85-0.47,1.32,0   c3.23,3.23,4.08,10.75,0.33,14.51c-0.11,1.43-0.22,2.86-0.33,4.29c-0.89,0.3-0.74,0.41-1.32,0.99c0,1.02-0.27,2.1,0.66,2.64   c-0.2,0.58-1.25,2.04-0.01,1.96c1.48-0.15,1.37-0.06,2.32-1.3c0.64,0,1.65,0.82,1.65-0.33c0-0.87-0.54-3.81-0.42-3.99   c0.14-0.21,0.28-0.42,0.42-0.63c0.87-0.87,2.97,0.62,3.43-0.72c0.06-0.2,0.13-0.4,0.2-0.6c-0.74-0.74-2.31,0-2.31-1.65   c0-0.44,0-0.88,0-1.32c0.55,0.33,1.1,0.66,1.65,0.99c0.02-0.11,0.03-0.21,0.05-0.32c0.38-2.4-2.27-2.04,0.28-3.64   c0.55-0.22,1.1-0.44,1.65-0.66c0.66,0,1.32,0,1.98,0c0.97-0.97,2.64-0.74,2.64-2.31c1.14-0.34,2.42-0.8,3.3-1.65   c0.92,0,2.66,0.31,3.3-0.33c0.77,0,0.94,0.46,1.65,0.66c0.66-0.11,1.32-0.22,1.98-0.33c1.54-1.32,3.08-2.64,4.62-3.96   c0.11-0.55,0.22-1.1,0.33-1.65c-0.74-0.74-1.08-3.63,0.66-3.63c0.44,0,0.88,0,1.32,0c0.81,0.87,1.34,2.31,2.64,2.31   c0.73-0.73,0.9,0,1.65,0c0.73-0.73,1.14-3.96,2.64-3.96c0.99,0.22,1.98,0.44,2.97,0.66c0.89-0.89,6.46-1.06,7.58-0.66   c1.25-0.62,0.34-0.89,1.52-1.49c1.88-0.96,3.98-1.48,6.06-1.8c2.64-0.66,5.28-1.32,7.91-1.98c6.92-0.22,13.85-0.44,20.77-0.66   c8.68,2.1,16.01,6.93,25.06,6.93c5.21,0,10.7-1.06,15.83,0c1.63-0.93,6.7-0.84,8.49-0.47c1.42-0.64,5.7-0.65,7.16-0.26   c0.45-0.04,0.91-0.09,1.36-0.13c1.03,0.51,2.07,1.02,3.1,1.53c2.18,2.18,4.36,8.7,4.62,11.87c0.11,1.4,1.42,4.18,0.33,5.28   c1.09,0,0.71,4.9,0,5.61c-2.64,1.65-5.28,3.3-7.91,4.95c0,1.82-1.37,3.31-1.32,5.28c0.75,0.75,2.26,2.31,3.3,2.31   c0.08,0.68-0.04,0.6,0.66,0.99c-0.31,1.62-0.34,2.3,0.66,3.3c0,0.49,0.17,0.66,0.66,0.66c0.47,0.92,1.34,3.92,0,3.96   c-1.21-0.11-2.42-0.22-3.63-0.33c-1.02,0.7-5.74,1.12-6.6,0.33c-0.68,0.09-1.39,0.37-1.98,0c-1.32,0.33-2.64,0.66-3.96,0.99   c-0.5,0.06-0.83-0.33-1.63-0.21c-1.55,0.29-3.09,0.58-4.64,0.87c-0.74,0.56-3.98,2.97-4.62,2.97c-0.79,0.79-2.25,2.97-3.63,2.97   c-1.85,2.4-3.31,5.23-4.44,8c-0.39,0.85-0.78,1.7-1.16,2.56c-2.62,3.77-4.93,7.23-8.24,10.55c-1.68,0.05-2.06,1-3.3,1.98   c-1.43,0.77-2.86,1.54-4.29,2.31c-1.83,0-8.97,3.36-10.22,4.62c-1.99,0-3.62,2.19-5.61,2.64c-1.61,0.36-2.55,0.57-3.63,1.65   c-3.54,0.8-6.15,2.7-9.19,4.73c-0.31,0-0.63,0.01-0.94,0.01c-1.16,0.8-2.32,1.6-3.47,2.4c-3.12,1.27-5.94,3.46-8.49,5.39   c-0.66,0.77-1.32,1.54-1.98,2.31c-3.61,2.41-5.14,5.28-9.56,5.28c-0.72,0.72-0.66,1-0.66,1.98c-0.55-0.22-1.1-0.44-1.65-0.66   c0,1.14-0.97,0.64-1.65,1.32c0,0.96-2.48,3.63-3.63,3.63c-0.47,0.47-0.77,1.21-1.32,0.66c-0.44,0.6-1.55,2.31-2.31,2.31   c-1.52,0-5.16-0.88-6.6-2.31c-1.46,0-3.63-0.33-4.62-1.32c-1.15,0-3.17-0.2-3.96-0.99c-0.55,0-4.92-1.29-5.28-1.65   c-2.14,0-3.6-1.42-5.61-1.65c-1.1-0.33-2.2-0.66-3.3-0.99c-1.65,0.22-3.3,0.44-4.95,0.66c-0.77,0.44-1.54,0.88-2.31,1.32   c-3.83,1.11-7.55,2.17-11.54,2.97c-3.03,0.61-7.71,1.59-10.55,0.99c-0.22,0.22-0.44,0.44-0.66,0.66c-0.44-0.11-0.88-0.22-1.32-0.33   c-0.66,0.11-1.32,0.22-1.98,0.33c-1.43,0.28-2.86,0.56-4.3,0.83c-3.29,0.6-6.59,1.2-9.88,1.8c-0.91,0.1-3,0.3-3.63-0.33   c-0.99,0.11-1.98,0.22-2.97,0.33c0-0.78-1.06-0.66-1.65-0.66c0.51-0.51,0.33-1.27,0.33-1.98c0.97-0.97,1.98-2.54,1.98-3.96   c-0.55-0.66-1.1-1.32-1.65-1.98c0.11-0.22,0.22-0.44,0.33-0.66c-0.77-0.77-2.31-1.09-2.31-2.64c0.44-0.44,0.33-0.73,0.33-1.32   c0.72-0.68,1.45-1.36,2.17-2.04c0.65-1.3-1.54-2.22-0.53-3.24c1.18,0,4.29,0.11,4.29-1.32c0.33-0.55,0.66-1.1,0.99-1.65   c-1.33-1.33-2.07-6.67-0.48-8.44c0.49-0.48,0.98-0.97,1.47-1.45c1.54-0.11,3.08-0.22,4.62-0.33c0.99-1.32,1.98-2.64,2.97-3.96   c0.66,0,1.32,0,1.98,0c0-1.66,3.67-2.24,0.33-3.96c-1,0-4.95-0.36-4.95-1.32c-0.11-0.22-0.22-0.44-0.33-0.66   c0.67-1.01,1.16-1.72,1.32-2.97C287.25,401.23,285.7,398.35,287.3,396.74z"/>
            <circle cx="382.28" cy="403.01" r="1.586"/>
        </g>
    </g>
</svg>