<?xml version="1.0" encoding="UTF-8"?>
<!DOCTYPE svg PUBLIC "-//W3C//DTD SVG 1.1//EN" "http://www.w3.org/Graphics/SVG/1.1/DTD/svg11.dtd">
<svg version="1.1" id="HaritaCizim" xmlns="http://www.w3.org/2000/svg" x="0px" y="0px" viewBox="0 0 473 485" preserveAspectRatio="none">
    <defs id="__def">
        <radialGradient id="f">
            <stop offset="0" stop-color="white" stop-opacity="1"/>
            <stop id="STOP1" offset=".4" stop-opacity="1"/>
            <stop offset="1" stop-color="white" stop-opacity=".2"/>
        </radialGradient>
        <filter id="__flt1" x="0" y="0" width="200%" height="200%" filterUnits="objectBoundingBox">
            <feGaussianBlur in="SourceAlpha" stdDeviation="3" result="blur1"/>
            <feSpecularLighting result="specOut" in="blur1" specularConstant="1.5" specularExponent="20" lighting-color="#bbbbbb">
                <feDistantLight azimuth="45" elevation="30"/>
            </feSpecularLighting>
            <feComposite in="specOut" in2="SourceAlpha" operator="in" result="specOut"/>
            <feComposite in="SourceGraphic" in2="specOut" operator="arithmetic" k1="0" k2="1" k3="1" k4="0"/>
        </filter>
        <filter id="__flt2" x="0" y="0" width="200%" height="200%" filterUnits="objectBoundingBox">
            <feGaussianBlur in="SourceAlpha" stdDeviation="3" result="blur1"/>
            <feSpecularLighting result="specOut" in="blur1" specularExponent="20" lighting-color="#bbbbbb">
                <fePointLight x="-2000" y="100" z="2000"/>
            </feSpecularLighting>
            <feComposite in="specOut" in2="SourceAlpha" operator="in" result="specOut"/>
            <feComposite in="SourceGraphic" in2="specOut" operator="arithmetic" k1="0" k2="1" k3="1" k4="0"/>
        </filter>
        <filter id="__flt3" x0="-50%" y0="-50%" width="200%" height="200%" filterUnits="objectBoundingBox">
            <feGaussianBlur in="SourceAlpha" stdDeviation="3" result="blur"/>
            <feOffset in="blur" dx="0" dy="0" result="offsetBlur"/>
            <feSpecularLighting in="blur" surfaceScale="4" specularConstant=".5" specularExponent="20" lighting-color="flavor" result="specOut">
                <fePointLight x="-5000" y="-10000" z="5000"/>
            </feSpecularLighting>
            <feComposite in="specOut" in2="SourceAlpha" operator="in" result="specOut"/>
            <feComposite in="SourceGraphic" in2="specOut" operator="arithmetic" k1="0" k2="1" k3="1" k4="0" result="litPaint"/>
            <feMerge>
                <feMergeNode in="offsetBlur"/>
                <feMergeNode in="litPaint"/>
            </feMerge>
        </filter>
        <filter id="__flt4" x0="-50%" y0="-50%" width="200%" height="200%">
            <feGaussianBlur in="SourceAlpha" stdDeviation="2" result="blur"/>
            <feOffset dy="-1" dx="-1"/>
            <feComposite in2="SourceAlpha" operator="arithmetic" k2="-1" k3="1" result="hlDiff"/>
            <feFlood flood-color="white" flood-opacity=".7"/>
            <feComposite in2="hlDiff" operator="in"/>
            <feComposite in2="SourceGraphic" operator="over" result="withGlow"/>
            <feOffset in="blur" dy="3" dx="3"/>
            <feComposite in2="SourceAlpha" operator="arithmetic" k2="-1" k3="1" result="shadowDiff"/>
            <feFlood flood-color="black" flood-opacity="1"/>
            <feComposite in2="shadowDiff" operator="in"/>
            <feComposite in2="withGlow" operator="over"/>
        </filter>
        <filter id="__golge1" x="0" y="0" width="200%" height="200%" filterUnits="userSpaceOnUse">
            <feOffset result="offOut" in="SourceAlpha" dx="8" dy="8"/>
            <feGaussianBlur result="blurOut" in="offOut" stdDeviation="3"/>
            <feBlend in="SourceGraphic" in2="blurOut" mode="normal"/>
        </filter>
    </defs>
    <g id="__Komsular" display="none">
        <radialGradient id="SVGID_1_" cx="236.0674" cy="227.6323" r="272.2094" gradientTransform="matrix(0.8922 -0.4516 0.4092 0.8083 -67.6904 150.2579)" gradientUnits="userSpaceOnUse">
            <stop offset="0" style="stop-color:#3B73B9"/>
            <stop offset="0.492" style="stop-color:#99B6DB"/>
            <stop offset="1" style="stop-color:#FFFFFF"/>
        </radialGradient>
        <path fill-rule="evenodd" clip-rule="evenodd" fill="url(#SVGID_1_)" d="M-1.5,232.84c1.22-0.17,2.42-0.88,3.6-1.31   c1.36-0.5,2.9-0.19,4.23-0.69c1.15-0.42,2.26-1.24,3.41-1.59c0.6-0.18,1.26-0.1,1.86-0.31c0.69-0.24,1.18-0.63,1.71-1.12   c2.12-1.98,4.51-3.32,7.02-4.65c1.08-0.57,1.98-1.76,3-2.58c1.04-0.83,2.07-1.64,3.19-2.31c1.17-0.7,2.12-1.46,3.23-2.26   c0.52-0.38,1.21-0.53,1.75-0.85c0.54-0.32,0.95-0.85,1.49-1.17c2.34-1.39,4.41-3.5,6.53-5.23c1.54-1.25,2.59-2.75,3.89-4.19   c1.35-1.48,2.74-3,2.75-5.08l0.09-0.27c0.01-0.01,0.48-0.7,0.48-0.72c-0.13,0.13,0.85-0.6,0.72-0.48c-0.08-0.1,1.7-1.76,2.48-2.77   c1.19-1.55,2.85-3.62,4.25-4.43c0.06-0.15,1.01-0.41,1.44-0.96c0.51-0.65,1.85-1.7,3.78-2.75c0.34-0.13,0.68-0.25,1.02-0.38   c1.01-0.72,1.98-1.58,3.12-2.16c0.08-0.14,0.27-0.28,0.46-0.28v-0.06c0.79,0,1.76-0.75,2.18-0.62c1.04,0,1.84-0.48,2.88-0.48   c0.28,0.01,1.83,0.26,2.16,0.24c0.8-0.08,1.6-0.16,2.4-0.24c2.08-0.12,3.33,0.44,5.05,0.17c0.41-0.07,0.83-0.15,1.24-0.22   c0.63-0.38,1.25-0.76,1.88-1.15c1.04-0.28,2.4-0.45,3.12-0.96c0.48,0,1.25,0.01,1.73,0.01l0.19-0.01c1.57-0.03,3.63-0.3,5.2-0.34   c1.32-0.13,2.74-0.74,4.16-1.34c1.76-0.56,3.52-1.12,5.28-1.68c0.96-0.6,2.7-1.56,3.83-1.41c1.2-0.21,2.06,0.21,2.89,0.69   c0.48,0.48,0.96,0.96,1.44,1.44c0.92,1.45,2.18,3.9,3.86,4.24c4.74,1.21,8.33-0.42,11.99-3.28c0.44-0.34,1.01-0.66,1.44-0.96   c0.96-0.79,1.85-1.43,2.88-2.16c0.85-0.61,1.01-2.23,2.16-2.16c0.12-0.34,3.01-0.62,3.12-0.96c1.25-0.4,2.61-0.03,5.25-0.29   c1.63-0.16,2.63-1.21,4.11-1.63c0.64-0.16,1.04-1.04,1.68-1.2c0.11-0.12,2.05-1.42,2.88-1.92c1.33,0,4.02-2.06,5.04-2.88   c0.48-0.32,0.96-0.64,1.44-0.96c1.53-0.53,1.11-0.19,2.64-0.72c0.64-0.24,3.07-1.18,3.12-1.2v0.24c-0.05-0.03,1.15-0.64,1.51-0.81   c1.68-0.75,3.15-1.57,4.73-2.55c0.67,0.07,1.44-0.11,1.92,0.24c1.39,0.83,2.97-0.18,4.32-0.96c0.97-0.46,1.94-0.93,2.9-1.39   c0.84-0.29,1.67-0.59,2.51-0.89c1.64-0.88,3.27-1.6,4.91-3.01c0.37-0.5,0.67-0.94,0.95-1.43c1.14-1.28,2.29-2.56,3.43-3.83   c0.49-0.66,0.98-1.32,1.47-1.98c0.01-0.09,0.82-1.33,0.88-1.4c0-0.07,0.74-1.17,0.72-1.2c0-0.13,0.41-0.61,0.48-0.72   c2.03-4.07,5.15-7.26,7.44-11.05c1.32-0.68,2.25-2.25,3.02-3.21c0.07-0.09,0.48-0.53,0.59-0.62v-0.24   c0.02-0.03,0.71-0.73,0.72-0.72c0-0.01,0.51-0.5,0.48-0.48c-0.2,0.18,0.68-0.66,0.48-0.48c0.24-0.22,0.48-0.45,0.73-0.67   c1.56-1.26,3.11-2.51,4.67-3.77c0.55-0.54,1.22-1.34,2.05-1.32c0.44-0.34,0.27-0.11,3.12-0.24c1.71-1.12,3.95-3,4.97-3.12   c0.53-0.16,1.56-0.45,2.23-1.2c0.72,0.16,1.68-0.4,2.4-0.24c0.7-0.2,1.31-0.44,2.4-0.48c1.25-1.17,3.07-2.01,4.8-1.92   c0.72,0.04,0.89-0.32,1.67-0.19c1.53-2.06,2.12-2.19,2.65-2.21c1.44,0.48,2.56,0.7,4.32,0.24c2.91-1.62,4.23-1.09,6.48-0.48   c0.67,0.65,1.97,1.51,2.64,2.16c1.13,0.72,2.52,1.15,3.6,1.2c0.61-0.17,2.98-0.31,3.36-0.48c1.38-0.36,2.84-0.69,4.32-2.4   l0.19-0.04c-0.07-0.24,3.42-2.46,4.12-2.71c5.14-1.17,9.09-2.88,11.51-2.67c4.25,0.38,6.17-2.16,9.63-4.5   c0.88-0.32,4.25-2.06,5.13-2.38c0.74-0.82,2.18-1.43,3.04-0.67c0.3-0.52,1.15-0.42,1.7-0.63c0.93-0.56,1.86-1.13,2.79-1.7   c1.58-0.87,3.92-1.55,5.11-2.96c0.88-0.96,1.76-1.92,2.64-2.88c0.39-0.38,0.76-0.9,0.96-1.2c0.39-0.3,0.88-0.64,1.2-0.96   c0.2-0.17,1.11-1,2.64-1.92l0.72-0.72c1.12-1.2,2.24-2.4,3.36-3.6c1.52-1.04,3.04-2.08,4.56-3.12c1.45-0.9,3.99-2.15,4.59-3.09   c1.04-1.67,2.32-2.69,2.82-4.57c0.44-0.36,1.14-1.83,1.71-1.71c1.44-1.68,3.1-3.37,4.54-5.05c0.88,0,1.5,0,2.25,0   c0.84-0.26,2.42-1.23,2.81-1.19c1.08-0.19,3.36-1.33,4.08-1.2c2.82-1.66,4.54-2.07,7.36-3.73c0.62-0.02,2.34-1.29,2.96-1.31   c0.32-0.48,2.85-2.09,3.17-2.57c2.02-1.95,2.32-2.59,4.76-3.92c1.63-0.88,2.8-2.49,4.55-3.16c2.28-0.88,3.97-3.95,4.76-6.27   c0.38-1.11,1.41-2.12,2.25-2.96c0.45-0.45,1.18-1.08,1.81-1.36c0.84-0.37,1.89-0.3,2.77-0.56c1.73-0.52,2.86-1.85,4.58-2.44   c1.58-0.54,3.44-0.55,4.84-1.38c0.7-0.41,1.42-0.77,2.15-1.1c0.73-0.34,1.08-0.76,1.69-1.24c1.1-0.87,2.48-1.47,3.54-2.37   c0.55-0.46,0.99-0.94,1.67-1.26c0.75-0.35,1.55-0.47,2.26-0.92c1.23-0.77,2.32-1.61,3.5-2.42c0.75-0.51,1.4-0.59,2.28-0.81   c0.66-0.16,1.21-0.46,1.81-0.67c0.58-0.2,1.28-0.16,1.92-0.26c1.12-0.17,2.08-0.32,3.25-0.32c0.95,0,1.79,0.3,2.68,0.32   c0.73,0.02,1.39-0.27,2.07-0.4c0.93-0.17,1.68-0.31,2.52-0.75c1.34-0.7,2.91-0.79,4.17-1.75c1.05-0.8,1.92-1.97,2.85-2.9   c0.93-0.93,2.01-2.18,2.8-3.29c0.6-0.84,1.18-1.68,1.77-2.55c0.64-0.94,1.39-1.85,1.9-2.85c0.49-0.97,0.95-2.02,1.35-3   c0.35-0.84,0.92-2.44,0.83-3.33l0.75,0.18H-2L-1.5,232.84z"/>
        <path fill-rule="evenodd" clip-rule="evenodd" fill="none" stroke="#000000" stroke-width="0.25" stroke-miterlimit="10" d="   M97.7,414.64c-5.32-1.22-10.34-1.31-15.67-1.67c-5.77-0.39-11.59-0.21-17.26-0.67c-6.73-0.54-10.26,3.76-16.41,4.33   c-5.48,0.51-10.97-0.11-16-1.42c-3.58-0.93-7.1-1.95-10.68-2.99c-2.32-0.67-7.95-1.06-9.6-2.66c-1.63-1.58-0.72-2.85-1.07-4.93   c-0.35-2.09-1.26-2.96-2.68-4.67c-2.12-2.55-4.82-5.58-7.66-7"/>
        <path fill-rule="evenodd" clip-rule="evenodd" fill="none" stroke="#000000" stroke-width="0.25" stroke-miterlimit="10" d="   M141.37,414.31c-0.35,4.8-4.07,8.81-5.02,13.65c-1.08,5.52-2.73,8.68-7.06,12.02c-1.9,1.47-4.47,2.42-6.01,3.99   c-2.64,2.69-1.63,3.77-1.24,6.66c0.37,2.74-0.5,5.7,0.24,8.36c0.61,2.22,1.66,4.9,2.48,7c1.39,3.54,4.76,6.03,6.93,9.01   c2.78,3.83,2.43,6.17,1.34,10.65"/>
        <path fill-rule="evenodd" clip-rule="evenodd" fill="none" stroke="#000000" stroke-width="0.25" stroke-miterlimit="10" d="   M335.35,273.27c5.07,5.63,5.55,13.37,12.56,17.44c2.82,1.64,6.98,3.95,10.2,4.58c4.39,0.87,8.21-0.5,11.82,2.19   c2.95,2.21,5.47,5.9,9,7.25c3.51,1.34,7.34,1.82,10.51,3.54c3.44,1.87,7.21,4.41,10.2,6.82c3.78,3.05,3.12,6.33,2.74,10.69   c-0.31,3.58-2.12,7.64-4.06,10.69c-2.04,3.21-3.75,6.53-4.93,10.33c-1.15,3.69-2.41,7.59-3.03,11.49   c-0.66,4.13,1.39,8.12,3.01,11.5c1.69,3.53,4.3,6.75,5.96,10.26c0.8,1.69,1.46,3.68,2.86,5.2c1.14,1.23,2.59,2.14,3.76,3.49   c3.12,3.64,4.57,4.64,9.43,5.36c4.63,0.69,7.36,0.58,11.5-1.37c5.12-2.41,10.39-6.1,14.5-9.95c1.17-1.09,2.23-2.07,3.33-3.43   c1.13-1.4,2.36-2.02,3.63-3.11c1.23-1.06,1.56-2.36,2.49-3.71c1.02-1.48,2.64-2.66,4.06-3.75"/>
        <text transform="matrix(0.1044 0.9945 -0.9945 0.1044 428.5596 184.0332)" font-family="'MyriadPro-Regular'" font-size="12.0034">ARTVİN</text>
        <text transform="matrix(0.7744 -0.6327 0.6327 0.7744 274.2661 439.541)" font-family="'MyriadPro-Regular'" font-size="12.0034">ERZURUM</text>
        <text transform="matrix(1 0 0 1 40.0117 449.8242)" font-family="'MyriadPro-Regular'" font-size="12.0034">BAYBURT</text>
        <text transform="matrix(0.276 0.9612 -0.9612 0.276 16.8096 296.248)" font-family="'MyriadPro-Regular'" font-size="12.0034">TRABZON</text>
    </g>
    <g id="__Harita" display="none">
        <rect id="__cer" x="0" y="0" fill="#000000" opacity="0" width="473" height="485"/>
        <g id="__Hemşin">
            <path d="    M228.24,245.81c-0.88-2.32-1.76-4.64-2.64-6.96c-1.04-5.28-2.08-10.56-3.12-15.84c0.08-1.36,0.16-2.72,0.24-4.08    c-0.25-0.75-0.5-1.5-0.75-2.24c-0.2-0.54-0.19-1.32-0.69-1.6c0.13-1.23,0.59-3.57-0.24-4.56c-0.08-1.84-0.16-3.68-0.24-5.52    c0.24-1.28,0.48-2.56,0.72-3.84c0.66-1.01,1.31-2.01,1.97-3.02c0.46-0.99,0.92-1.99,1.39-2.99c1.87-4.61,3.39-9.17,4.8-13.92    c0.29-1.35,0.57-2.69,0.86-4.04c2.07-6.04,4.01-10.22,3.46-16.85c-0.53-0.53-1-1.75-1.35-2.88l0.12,0.37l0.27,0.11    c1.72,0.63,2.37,0.57,4.08,0.96c0.73,0.27,2.15,0.21,2.88,0.48c1.77-0.34,3.54-0.69,5.3-1.03c0.47-0.14,0.95-0.27,1.42-0.41    c0.32-0.64,0.64-1.28,0.96-1.92c0.46-0.59,0.9-1.26,1.85-0.4c0.43-0.02,0.71,0.47,1.27,0.64c0.61,0.89,2.37,3.25,2.87,3.85    c0.33,0.39,0.65,0.79,0.97,1.19c1.93,0.82,4.11,1.26,5.57,2.79c0.92,0.57,2.6,1.78,2.6,3l0.06-0.23c0.01,0.68,0.02,1.36,0.02,2.04    c-0.43,0.75-0.86,1.49-1.28,2.24c-0.24,0.64-0.48,1.28-0.72,1.92c0,2.26-1.63,4.06-2.25,6.12c-0.56,1.85,0.09,3.69-0.15,5.64    c-0.17,1.35-1.39,2.35-2.16,3.36c-0.45,1-0.9,1.99-1.34,2.99c-1.81,2.84-3.16,5.66-4.42,8.78c-0.46,1.15-0.88,1.8-0.94,3.06    c-0.05,0.96-0.1,1.93-0.15,2.89c0.58,0.96,0.77,1.63,1.57,2.45c0,0.48,1.44,1.2,1.44,1.68c0.8,1.33,1.17,3.65,0.7,5.03    c-0.84,2.35-2.53,4.17-3.79,6.27c-0.86,1.43-1.57,3.11-1.95,4.78c-0.83,1.01-1.67,2.02-2.5,3.02c-3.01,2.92-6.02,5.84-9.03,8.75    c-1.28,1.36-2.56,2.71-3.83,4.07c-0.56,1.12-1.12,2.24-1.68,3.36c-0.41,0.59-2,1.35-1.89,2.15    C228.52,247.48,228.32,246.61,228.24,245.81z"/
            <circle cx="245.32" cy="174.5" r="1.586"/>
        </g>
        <g id="__Fındıklı">
            <path d="    M312.51,84.72c1.12-1.2,2.24-2.4,3.36-3.6c1.52-1.04,3.04-2.08,4.56-3.12c1.45-0.9,3.99-2.15,4.59-3.09    c1.04-1.67,2.32-2.69,2.82-4.57c0.44-0.36,1.14-1.83,1.71-1.71c1.44-1.68,3.1-3.37,4.54-5.05c0.88,0,1.5,0,2.25,0    c0.84-0.26,2.42-1.23,2.81-1.19c1.08-0.19,3.36-1.33,4.08-1.2c2.82-1.66,4.54-2.07,7.36-3.73c0.62-0.02,2.34-1.29,2.96-1.31    c0.32-0.48,2.85-2.09,3.17-2.57c2.02-1.95,2.32-2.59,4.76-3.92c1.27-0.69,4.34-3.77,5-3.09c1.04,2.56,2.37,5.81,3.41,8.37    c0.16,0.64,0.32,1.28,0.48,1.92c0.72,1.44,1.44,2.88,2.16,4.32c1.28,3.04,2.56,6.08,3.84,9.12c1.44,3.36,2.88,6.72,4.32,10.08    c1.04,0.96,2.08,1.92,3.12,2.88c4.55,4.55,9.75,8.68,13.44,13.68c0.24,0.64,0.48,1.28,0.72,1.92c0.45,1.64,0.86,3.18,0.96,4.8    c0.08,1.34,0.95,4.92,0.48,6c0.4,2.08,0.8,4.16,1.2,6.24c0.8,1.2,1.6,2.4,2.4,3.6c0.16,0.8,0.32,1.6,0.48,2.4    c5.08,3.95,7.44,10.34,7.92,16.56c0.23,2.9-0.51,4.69-1.2,7.44c-0.16,0.72-0.32,1.44-0.48,2.16c-0.04,0.38-0.08,0.76-0.12,1.14    c-0.74,2.56-0.31,5.15-0.6,7.74c-0.29,2.6-1.9,4.74-2.4,7.2c-1.76,3.28-3.52,6.56-5.28,9.84l-0.27-0.43    c-2.07-1.38-3.81-3.55-5.25-5.57c-0.48-0.56-0.96-1.12-1.44-1.68c-2.58-1.23-5.26-3.72-6.8-6.1c-0.54-1.01-1.07-2.02-1.6-3.02    c-0.91-1.14-2.64-2.29-2.87-3.84c-1.52-1.84-3.04-3.68-4.56-5.52c-1.34-1.25-2.69-2.5-4.04-3.74c-1.53-1.56-3.06-3.12-4.58-4.67    c-2.09-1.85-4.51-3.05-6.95-4.36c-0.64-0.16-1.28-0.33-1.91-0.49c-1.72-0.88-3.43-1.77-5.15-2.66c-1.33-0.5-2.51-0.64-3.83-1.26    c-1.19-0.59-2.37-1.19-3.56-1.79c-1.76-1.12-3.52-2.24-5.28-3.36c-1.2-0.24-2.4-0.48-3.6-0.72c-1.92-0.72-3.84-1.44-5.76-2.16    c-0.64-0.32-1.28-0.64-1.92-0.96c-0.64-0.56-1.28-1.12-1.92-1.68c-0.85-1.41-1.71-2.81-2.56-4.22c-0.42-1.34-1.06-2.9-2-3.95    c-0.4-0.64-0.8-1.28-1.2-1.92c-0.56-2.64-1.36-4.8-1.92-7.44c0.08-2.58,0.6-5.33,0.56-7.91c-0.04-2.5-0.3-4.41-2-6.26    c-0.48-0.5-1.44-1.42-1.92-1.92c-1.3-0.33-2.33-0.64-3.6,0c-0.59-0.26-3.31-0.36-3.6-0.96L312.51,84.72z"/>
            <circle cx="331.84" cy="70.22" r="1.586"/>
        </g>
        <g id="__Ardeşen">
            <path d="    M261.32,110.6c0.38,1.25,1.23,1.88,3.19,3.63c0.64,0.57,1.27,1.13,1.91,1.7c0.72,0.88,1.44,1.76,2.16,2.64    c1.93,2.42,3.79,4.79,6,6.96c0.88,1.2,1.76,2.4,2.64,3.6c1.53,2.8,3.05,5.6,4.58,8.4c0.56,0.8,1.11,1.6,1.67,2.4    c0.16,1.2,0.32,2.4,0.48,3.6c0.12,0.63,0.32,1.85,0.7,2.67c0.14,0.3,0.3,0.55,0.5,0.69c0.19,1.8,1.18,3.58,2.4,4.8    c0.79,0.42,1.91,1,2.54,1.04c2.49-0.29,4.27-1.09,6.75-1.38c0.96,0.32,1.99,0.25,2.95,0.58c2.64,2,5.28,4,7.92,6    c2.23,1.6,4.47,3.21,6.7,4.81c1.93,1.44,3.86,2.88,5.78,4.31c1.09,0.98,2.19,1.96,3.29,2.94c2.75,2.3,5.49,4.6,8.24,6.9    c1.76,0.85,4.13,2.97,5.63,3.97c1.75,0.72,3.15,0.12,4.96,0.39c0.22,0.21,3.92,1.22,4.05,1.16c1.03,1.1,2.79,2.25,2.88,3.84    c1.69,1.35,3.77,1.91,5.76,2.88c1.52,1.1,3.05,2.2,4.57,3.3c1.78,1.8,2.36,1.3,4.03,3.8c0.39,0.58,3.28,2.81,4.25,3.88    c0.24,0.88,0.83,1.59,1.07,2.47c0.15,0.42,0.46,1.5,0.48,1.44c1.05-0.64,2.59-1.42,3.64-2.06c1.19-0.51,2.38-1.03,3.56-1.54    c2.14-1.44,4.06-3.24,6.39-4.45c3-1.55,7.4-3.76,9.75-7.03c1.02-1.74,2.04-3.48,3.06-5.21c0.31-0.58,1.06-1.29,0.73-2.03    c0.4-0.8,0.8-1.6,1.2-2.4c0.95-1.24,2-2.19,2.64-3.6c0.24-0.53,1.2-1.76,0.69-2.11c-2.07-1.38-3.81-3.55-5.25-5.57    c-0.48-0.56-0.96-1.12-1.44-1.68c-2.58-1.23-5.26-3.72-6.8-6.1c-0.54-1.01-1.07-2.02-1.6-3.02c-0.91-1.14-2.64-2.29-2.87-3.84    c-1.52-1.84-3.04-3.68-4.56-5.52c-1.34-1.25-2.69-2.5-4.04-3.74c-1.53-1.56-3.06-3.12-4.58-4.67c-2.09-1.85-4.51-3.05-6.95-4.36    c-0.64-0.16-1.28-0.33-1.91-0.49c-1.72-0.88-3.43-1.77-5.15-2.66c-1.33-0.5-2.51-0.64-3.83-1.26c-1.19-0.59-2.37-1.19-3.56-1.79    c-1.76-1.12-3.52-2.24-5.28-3.36c-1.2-0.24-2.4-0.48-3.6-0.72c-1.92-0.72-3.84-1.44-5.76-2.16c-0.64-0.32-1.28-0.64-1.92-0.96    c-0.64-0.56-1.28-1.12-1.92-1.68c-0.85-1.41-1.71-2.81-2.56-4.22c-0.42-1.34-1.06-2.9-2-3.95c-0.4-0.64-0.8-1.28-1.2-1.92    c-0.56-2.64-1.36-4.8-1.92-7.44c0.08-2.58,0.6-5.33,0.56-7.91c-0.04-2.5-0.3-4.41-2-6.26c-0.48-0.5-1.44-1.42-1.92-1.92    c-1.3-0.33-2.33-0.64-3.6,0c-0.59-0.26-3.31-0.36-3.6-0.96c-1.53,0.92-2.44,1.76-2.64,1.92c-0.32,0.32-0.81,0.66-1.2,0.96    c-0.2,0.3-0.57,0.82-0.96,1.2c-0.88,0.96-1.76,1.92-2.64,2.88c-1.19,1.41-3.53,2.09-5.11,2.96c-0.93,0.57-1.86,1.13-2.79,1.7    c-0.56,0.21-1.4,0.11-1.7,0.63c-0.86-0.76-2.3-0.16-3.04,0.67c-0.88,0.32-4.25,2.06-5.13,2.38c-3.46,2.34-5.38,4.88-9.63,4.5    c-2.42-0.21-6.38,1.5-11.51,2.67C264.75,108.14,261.25,110.36,261.32,110.6z"/>
            <circle cx="275.33" cy="107.73" r="1.586"/>
        </g>
        <g id="__Pazar">
            <path d="    M284.66,146.42c-2.35-0.11-4.31,2.38-6.17,3.89c-1.6,1.31-4.58,2.63-6.78,3.96c-0.75,0.19-1.79,3.82-3.62,4.15    c-2,0.35-5.7,0.72-5.28,3.36c0.02,1.65,0.04,3.31,0.06,4.96l-0.06,0.35c0-1.22-1.68-2.43-2.6-3c-1.46-1.53-3.64-1.97-5.57-2.79    c-0.32-0.4-0.64-0.8-0.97-1.19c-0.5-0.6-2.26-2.96-2.87-3.85c-0.56-0.16-0.84-0.66-1.27-0.64c-0.95-0.86-1.39-0.19-1.85,0.4    c-0.32,0.64-0.64,1.28-0.96,1.92c-0.47,0.14-0.94,0.28-1.42,0.41c-1.77,0.34-3.54,0.69-5.3,1.03c-0.73-0.27-2.15-0.21-2.88-0.48    c-1.71-0.39-2.37-0.33-4.08-0.96l-0.27-0.11c-0.27-0.79-0.48-1.57-0.62-2.08c-0.58-2.96-1.38-5.79-2.23-7.42    c-0.44-0.36-1.11-1.73-1.71-2.15c-0.1-0.44-0.93-0.34-1.65-0.25c-1.6,0.48-3.2,0.96-4.8,1.44c-1.18,0.27-2.35,0.54-3.6,0    c-1.41-1.17-3.07-1.65-4.66-2.66c-0.69-0.55-1.38-1.11-2.06-1.67c-0.48-0.88-0.96-1.76-1.44-2.64c-0.24-1.92-0.48-3.84-0.72-5.76    c-0.77-0.9-1.55-1.81-2.32-2.71c-0.4-0.55-3.67-4-3.92-4.25v-0.24c0.02-0.03,0.71-0.73,0.72-0.72c0-0.01,0.51-0.5,0.48-0.48    c-0.2,0.18,0.68-0.66,0.48-0.48c0.24-0.22,0.48-0.45,0.73-0.67c1.56-1.26,3.11-2.51,4.67-3.77c0.55-0.54,1.22-1.34,2.05-1.32    c0.44-0.34,0.27-0.11,3.12-0.24c1.71-1.12,3.95-3,4.97-3.12c0.53-0.16,1.56-0.45,2.23-1.2c0.72,0.16,1.68-0.4,2.4-0.24    c0.7-0.2,1.31-0.44,2.4-0.48c1.25-1.17,3.07-2.01,4.8-1.92c0.72,0.04,0.89-0.32,1.67-0.19c1.53-2.06,2.12-2.19,2.65-2.21    c1.44,0.48,2.56,0.7,4.32,0.24c2.91-1.62,4.23-1.09,6.48-0.48c0.67,0.65,1.97,1.51,2.64,2.16c1.13,0.72,2.52,1.15,3.6,1.2    c0.61-0.17,2.98-0.31,3.36-0.48c1.38-0.36,2.84-0.69,4.32-2.4l0.19-0.04c0.38,1.25,1.23,1.88,3.19,3.63    c0.64,0.57,1.27,1.13,1.91,1.7c0.72,0.88,1.44,1.76,2.16,2.64c1.93,2.42,3.79,4.79,6,6.96c0.88,1.2,1.76,2.4,2.64,3.6    c1.53,2.8,3.05,5.6,4.58,8.4c0.56,0.8,1.11,1.6,1.67,2.4c0.16,1.2,0.32,2.4,0.48,3.6c0.12,0.63,0.32,1.85,0.7,2.67L284.66,146.42z    "/>
            <circle cx="243.57" cy="113.98" r="1.586"/>
        </g>
        <g id="__Çamlıhemşin">
            <path d="    M249.85,342.79c-3.3-1.78-5.65-4.68-8.29-7.23c-0.64-1-1.29-2-1.94-2.99c-2.46-3.13-4.38-5.15-5.62-8.98    c-2.47-1.39-3.96-4.05-5.75-6.21c-1-1.09-2-2.17-3-3.26c-0.38-0.5-0.77-1.58-1.33-1.81c-0.64-2.93-2.83-5.59-4.35-8.15    c-0.6-0.84-1.21-1.69-1.81-2.53l-0.2-0.31c0.69-1.31,0.56-0.91,2.06-7.92c0.56-2.6,0.57-5.42,1.18-7.97    c0.41-1.03,0.82-2.07,1.23-3.1c0.22-0.69,0.43-1.39,0.65-2.08c1.05-1.55,2.11-3.11,3.16-4.67c1.04-2.37,1.15-5.19,0.89-7.71    c-0.06-0.71-0.11-1.42-0.17-2.13c0.36-2.23,1.8-4.09,2.04-6.28c0.2-3.19,0.4-6.38,0.6-9.56c-0.24-0.56-0.48-1.12-0.72-1.68    c-0.02-0.19-0.04-0.38-0.06-0.57l0.09-0.16c-0.1-0.8,1.48-1.56,1.89-2.15c0.56-1.12,1.12-2.24,1.68-3.36    c1.28-1.35,2.56-2.71,3.83-4.07c3.01-2.92,6.02-5.84,9.03-8.75c0.83-1.01,1.67-2.02,2.5-3.02c0.38-1.67,1.09-3.34,1.95-4.78    c1.25-2.1,2.95-3.93,3.79-6.27c0.48-1.38,0.1-3.7-0.7-5.03c0-0.48-1.44-1.2-1.44-1.68c-0.8-0.82-0.99-1.5-1.57-2.45    c0.05-0.96,0.1-1.93,0.15-2.89c0.06-1.26,0.47-1.91,0.94-3.06c1.26-3.12,2.61-5.94,4.42-8.78c0.45-0.99,0.9-1.99,1.34-2.99    c0.77-1.01,1.99-2.02,2.16-3.36c0.24-1.96-0.41-3.79,0.15-5.64c0.62-2.07,2.25-3.86,2.25-6.12c0.24-0.64,0.48-1.28,0.72-1.92    c0.43-0.75,0.85-1.49,1.28-2.24c-0.03-2.38-0.05-4.75-0.08-7.13c-0.42-2.64,3.29-3.01,5.28-3.36c1.83-0.33,2.87-3.96,3.62-4.15    c2.2-1.33,5.18-2.66,6.78-3.96c1.86-1.51,3.82-4,6.17-3.89l-0.02-0.21c0.14,0.3,0.3,0.55,0.5,0.69c0.19,1.8,1.18,3.58,2.4,4.8    c0.79,0.42,1.91,1,2.54,1.04c2.49-0.29,4.27-1.09,6.75-1.38c0.96,0.32,1.99,0.25,2.95,0.58c2.64,2,5.28,4,7.92,6    c2.23,1.6,4.47,3.21,6.7,4.81c1.93,1.44,3.86,2.88,5.78,4.31c1.09,0.98,2.19,1.96,3.29,2.94c2.75,2.3,5.49,4.6,8.24,6.9    c1.76,0.85,4.13,2.97,5.63,3.97c1.75,0.72,3.15,0.12,4.96,0.39c0.22,0.21,3.92,1.22,4.05,1.16c1.03,1.1,2.79,2.25,2.88,3.84    c1.69,1.35,3.77,1.91,5.76,2.88c1.52,1.1,3.05,2.2,4.57,3.3c1.78,1.8,2.36,1.3,4.03,3.8c0.39,0.58,3.28,2.81,4.25,3.88    c0.24,0.88,0.83,1.59,1.07,2.47c0.15,0.42,0.46,1.5,0.48,1.44v-0.24c-0.08,0.24-0.64,0.24-0.72,0.48    c-0.24,0.06-1.58,0.99-1.68,1.2c-1.31,1.06-1.91,2.18-2.64,3.6c-2.69,4.07-4.15,8.79-5.62,13.42c-0.52,2.42-1.04,4.85-1.56,7.27    c-0.85,2.46-1.7,4.92-2.55,7.38c-0.44,1.29-0.88,2.58-1.31,3.86c-1.01,2.77-2.02,5.53-3.02,8.3c-1.29,2.03-3.22,2.22-4.9,3.71    c-2.05,1.51-2.79,3.03-4.32,6.24c-1.33,2.97-3.68,7.34-4.8,9.6c-0.7,1.41-1.27,3.25-0.96,4.32c0.05,0.19-1.66,0.18-3.12,1.68    c-0.72,0.72-1.44,1.44-2.16,2.16c-2.87,3.19-6.06,5.9-9.13,8.87c-0.72,0.7-2.94,3.13-3.83,3.13c-2.43,2.79-2.48,0.8-3.12,1.68    c-1.05,0.64,1.7,0.24-4.43,4.89c-2.69,1.33-5.37,2.18-8.06,3.51c-6.47,5.14-12.95,10.75-19.42,15.89    c-2.48,1.6-4.96,3.21-7.43,4.81c-3.39,2.76-6.79,5.52-10.18,8.28c-1.26,1.14-2.52,2.29-3.77,3.43c-1.07,1.03-2.14,2.06-3.2,3.08    c-1.73,1.77-3.47,3.55-5.2,5.32c-0.88,1.01-1.43,1.88-2.18,2.88H249.85z"/>
            <circle cx="282.58" cy="173.5" r="1.586"/>
        </g>
        <g id="__İkizdere">
            <path d="    M217.56,301.31c-0.22-0.38-0.84-1.28-1.08-1.73c-0.51-0.68-1.66-0.94-2.86-0.77c-1.25,0.57-3.08-2.13-3.98-2.97    c-1.87-1.74-3.75-3.49-5.62-5.23c-0.88-0.62-1.77-1.25-2.65-1.87c-0.72-0.63-1.45-1.26-2.17-1.89c-0.77-0.08-1.53,0.02-1.68,0    c-0.48,0.48-0.98,1.69-1.46,2.17c-1.25,0.13-2,0.38-2.63,0.13c-0.88-0.13-1.2-0.99-2.16-1.6c-2.6-1.66-3.84-2.01-5.17-4.94    c-0.95-2.1-1.99-3.42-3.47-4.64c-0.05-6.29-0.68-7.77-1.2-8.88c-0.56-0.25-0.88-0.8-1.13-1.38l-0.13,0.18    c-0.9,0.66-4.14,2.03-5.23,1.44c-1.76,0.36-3.39,1.21-5.15,1.56c-2.96,0.44-5.63,0.75-9.01,0.84c-1.69-0.39-7.12-0.46-9.12-0.48    c-2.21-0.65-4.72-0.59-6.96-0.24c-0.8-0.06-1.61-0.13-2.41-0.19c-2.57-0.12-5.15-0.59-7.67-0.05c-1.06,0.23-3.01,0.25-3.96-0.25    c-1.2,0-1.8,0.25-3,0.25c-0.96,0.15-2.16,0.11-3.13,0.25c-0.54,0.03-2.75,0.25-3.63,0l0.26-0.01c-3.25-0.11-6.14,0.26-8.66,1.66    c-2.11-0.4-7.05,0.63-7.98,0.85c-4.34,1.04-6.3-1.35-10.24-2.27c-0.92-0.54-1.85-1.07-2.77-1.61l-0.59,0.17    c-2.7,2.4-7.16,3.44-7.92,5.28c-1.03,1.52-2.07,3.04-3.11,4.56c-0.86,0.99-1.33,3.31-2.42,4.32c-0.18,0.34-0.21,1.99-0.24,2.16    c1.17,1.48,2.44,2.65,3.36,4.32c1.85,3.34,3.05,11.22,2.16,14.88c0.16,1.44,0.32,2.88,0.48,4.32c3.73,4.8,9.48,7,14.63,10.06    c1.26,0.71,2.36,1,3.62,1.7c0.87,0.21,1.54,1.22,1.68,1.2c1.11,2.13,2.16,3.93,2.85,6.23c0.33,1.28,0.66,2.57,0.99,3.85    c-0.72,2.64-1.44,5.28-2.16,7.92c-1.36,2.08-2.72,4.16-4.08,6.24c-0.56,0.4-1.12,0.8-1.68,1.2c-2.52,2.37-5.34,3.76-7.21,6.71    c-1.65,2.6-2.78,5.33-4.77,7.7c-0.67,0.8-1.14,2.31-2.18,2.39c-0.88,1.12-1.76,2.24-2.64,3.36c-0.29,0.57-0.42,1.33-0.96,1.68    c-0.4,1.2-0.8,2.4-1.2,3.6c0.08,1.2,0.16,2.4,0.24,3.6c-0.05,1.17-0.09,2.35-0.14,3.52c1.73,2.84,4.68,4.08,6.89,6.53    c1.42,1.43,2.86,2.81,4.07,5.07c1.73,2.31,2.41,5.4,3.46,8.21c0.55,1.63,1.21,2.77,1.6,5.15c0.07,2.06-0.49,6.61,0.95,8.45    c2.48,1.58,7.26,2.46,10.29,2.72c0.69,0.53,5.16,0.51,6.12,0.31c0.37,0.2,1.22,0.17,1.58,0.37c1.98,0.68,5.15,0.67,7.2,0.24    c1.12,0,2.24,0,3.36,0c0.88-0.16,1.76-0.32,2.64-0.48c2.03-1.14,3.85-1.65,5.55-1.79c1.99-0.68,3.43-0.45,5.01-0.85    c0.64,0.08,1.52-0.32,2.16-0.24c2.01-2.01,4.37-2.55,6.96-3.72c1.56-0.7,3.25-2.15,4.8-2.52c1.08-1.11,3.02-2.28,3.6-2.64    c0.54-0.1,2.15-1.62,2.68-1.9c2.01-2.17,4.26-3.39,6.21-5.26c0.89-0.76,1.74-1.93,2.63-2.69c1.19-1.26,2.41-2.58,3.6-3.84    c0.64-0.56,1.52-1.12,2.16-1.68c2.03-1.15,3.75-1.67,5.48-3.29c1.1-1.09,2.2-2.18,3.29-3.27c1.99-1.6,3.97-3.2,5.96-4.8    c2.32-1.85,5.28-4.55,7.6-6.4c4.02-2.29,8.14-1.85,12.72-2.4c1.68,0,3.36,0,5.04,0c1.2-0.08,2.4-0.16,3.6-0.24    c1.77-0.5,3.55-1,5.33-1.49c3.44-0.74,6.24-0.43,9.16-2.63c1.1-0.83,3.75-4.23,4.45-4.59c0.49-0.75,0.9-2.18,2.12-2.38    c0.55-0.28,1.03-0.6,1.51-0.92c0.4-0.56,0.8-1.12,1.2-1.68c0.48-0.88,0.96-1.76,1.44-2.64c1.13-1.45,1.73-3.21,3.36-4.08    c0.83-1.8,1.88-2.9,3-4.62c0.31-0.48,1.13-1.69,0.97-1.77c-3.3-1.78-5.78-4.77-8.42-7.33c-0.64-1-1.29-2-1.94-2.99    c-2.46-3.13-4.38-5.15-5.62-8.98c-2.47-1.39-3.96-4.05-5.75-6.21c-1-1.09-2-2.17-3-3.26c-0.38-0.5-0.77-1.58-1.33-1.81    c-0.64-2.93-2.83-5.59-4.35-8.15c-0.6-0.84-1.21-1.69-1.81-2.53L217.56,301.31z"/>
            <circle cx="126.79" cy="297.28" r="1.586"/>
        </g>
        <g id="__Kalkandere">
            <path d="    M120.91,271.02c-0.28-2.83,2.4-5.25,2.49-7.92c0.04-1.17-0.88-2.88-1.5-3.86c-0.56-1.52-1.12-3.04-1.68-4.56    c-1.22-2.28-2.89-4.09-4.8-5.77c-0.63-0.55-1.13-0.72-2.13-1.34c-0.44-0.14-0.96-0.88-1.54-1.21c-0.25-1.6-0.13-2.02-0.38-3.63    c-0.04-0.57-0.21-2.33-0.29-3.17c-0.7-0.89-1.55-2.32-2.25-3.21c-0.44-0.54-1.08-1.42-1.33-2.08c-0.5-1.36-1.96-4.05-2.88-5.28    c-0.76-1.72-1.28-1.4-1.41-2.5c0-1.53,0.75-5,0.04-6.92c-1.23-0.99-2.79-2.64-4.02-3.63c-0.62-0.35-1.24-0.7-1.86-1.05    c-0.58-0.15-1.41-0.45-2.59-1.03c-1.12-0.64-2.25-0.69-3.37-1.33c-0.82-0.39-2.21-0.71-2.96-1c-1.08-0.04-2.21,0.04-3.42-0.13    c-0.8,0.18-3.46,0.58-4.33,0.58c-1.75,0.96-2.17,2.75-3.63,3.54c-0.11,0.18-1.97-0.33-2.17-0.25c-1.38-0.55-3.92-3.29-4.38-3.58    l-0.04-0.05c-0.5,0.75-0.42,1.69-0.44,1.73c-0.02,0.61,0.2,1.52,0.23,1.92l1.31,3.51c0.33,0.97,0.66,1.94,0.98,2.91    c0.75,1.74,1.77,3.28,2.27,5.1c1.02,3.66,0.99,5.66,0.26,9.36c-0.09,0.48-0.17,0.96-0.26,1.44c0.16,0.88,0.32,1.76,0.48,2.64    c3.49,3.58,7.26,7.04,10.44,10.75c0.75,0.54,1.62,1.03,2.5,1.52c1.12,0.57,2.18,0.85,3.37,1.8c0.93,1.41,1.85,2.72,2.76,4.03    c0.12,0.53,0.97,0.82,1.09,1.35c0.79,0.8,1.17,1.82,1.5,2.64c0.12,0.63,0.34,1.28,0.42,2.16c0.22,0.8-0.1,1.38-0.48,1.92    c-1.37,0.7-2.75,1.4-4.12,2.11c-0.24,0.17-1.57,0.9-1.29,1.09c0.92,0.54,1.85,1.07,2.77,1.61c3.95,0.92,5.91,3.31,10.24,2.27    c0.93-0.22,5.88-1.25,7.98-0.85C115.87,270.95,120.91,271.02,120.91,271.02z"/>
            <circle cx="85.52" cy="230.51" r="1.586"/>
        </g>
        <g id="__İyidere">
            <path d="    M74.08,208.07c-0.22,0.36-0.56,0.56-0.88,0.88c-0.18,0.28-1.19,1.19-1.63,1.56c-0.44,0.44-0.67,0.72-1.1,1.16    c-0.5,0.75-0.42,1.69-0.44,1.73c-0.02,0.61,0.2,1.52,0.23,1.92c-0.16-0.19-1.06-1.5-2.39-2.4c-0.24-0.3-1.54-1.37-1.69-1.39    c-0.5-0.25-0.93-0.47-1.43-0.54c-0.48-0.24-0.96-0.24-1.44-0.48c-3.37-0.38-4.99-1.19-8.16-2.64c-0.6-0.3-1.32-0.91-1.92-1.2    c-1.24-1.01-1.38-0.87-2.23-2.11c-0.29-0.36-0.57-0.72-0.85-1.07c-0.57-0.54-1.15-1.08-1.72-1.62c-0.24-0.48-0.48-0.96-0.72-1.44    c0,0-0.67-0.67-0.72-0.72c-0.04,0.01-0.72-0.48-0.72-0.48c0.01-0.01,0.48-0.7,0.48-0.72c-0.13,0.13,0.85-0.6,0.72-0.48    c-0.08-0.1,1.7-1.76,2.48-2.77c1.19-1.55,2.85-3.62,4.25-4.43c0.06-0.15,1.01-0.41,1.44-0.96c0.51-0.65,1.85-1.7,3.78-2.75    c0.34-0.13,0.68-0.25,1.02-0.38c1.01-0.72,1.98-1.58,3.12-2.16c0.08-0.14,0.27-0.28,0.46-0.28c0.7,1.46,2.15,4.69,3.64,5.27    c1.52,0.53,2.83-0.27,4.31-0.02c0.75,0.13,1.19,0.13,1.92,0.31c0.85,0.11,1.16-0.09,1.67,0.64c0.5,1.51,0.99,3.03,1.49,4.55    c-0.02,0.7,0.23,1.57,0.2,2.02c0.13,0.7,0.47,2.23,0.03,2.74c-0.07,0.19-1.81,0.5-1.88,0.69c-1.75,0.77-5.13,3-5.01,4.32    c0.05,0.22,0.97,1.15,1.01,1.37C72.49,207.03,73.36,207.27,74.08,208.07z"/>
            <circle cx="62.77" cy="193" r="1.586"/>
        </g>
        <g id="__Derepazarı">
            <path d="    M74.08,208.07c-0.72-0.8-1.59-1.04-2.69-1.88c-0.05-0.22-0.97-1.15-1.01-1.37c-0.11-1.32,3.26-3.55,5.01-4.32    c0.06-0.18,1.81-0.5,1.88-0.69c0.44-0.51,0.1-2.04-0.03-2.74c0.03-0.45-0.22-1.32-0.2-2.02c-0.5-1.52-0.99-3.03-1.49-4.55    c-0.52-0.72-0.82-0.53-1.67-0.64c-0.73-0.18-1.17-0.18-1.92-0.31c-1.48-0.25-2.79,0.55-4.31,0.02c-1.49-0.58-2.93-3.82-3.64-5.27    v-0.06c0.79,0,1.76-0.75,2.18-0.62c1.04,0,1.84-0.48,2.88-0.48c0.28,0.01,1.83,0.26,2.16,0.24c0.8-0.08,1.6-0.16,2.4-0.24    c2.08-0.12,3.33,0.44,5.05,0.17c0.41-0.07,0.83-0.15,1.24-0.22c0.63-0.38,1.25-0.76,1.88-1.15c1.04-0.28,2.4-0.45,3.12-0.96    c0.48,0,1.25,0.01,1.73,0.01l0.19-0.01c0.27,0.2,0.66,0.99,0.72,0.96c0.21,0.17,0.77,0.91,1.34,1.73c0.8,3.14,3.8,6.36,5.29,9.12    c0.24,0.47-0.72,1.6-1.01,1.99c-0.21,0.28-1.21,1.14-1.57,1.24c-0.79,0.69-1.56,1.42-1.81,2.99c0.12,0.47,0.24,0.95,0.35,1.42    c0.01,0.48,0.03,0.96,0.04,1.44c0.06,0.97,0.18,1.8,0.77,2.58c0.08,0.28,0.05,0.67-0.05,0.78c-0.13,0.25-0.26,0.29-0.48,0.48    c-0.08,0.08-1.15,0.81-1.7,0.63c-1.52-0.31-1.92-2.17-2.66-2.36c-1.11,0.27-2.46,0.49-3.56,0.77c-1.36,0.24-2.72,0.48-4.08,0.72    c-1.21,1.11-2.63,1.58-4.08,2.16L74.08,208.07z"/>
            <circle cx="81.02" cy="185.5" r="1.586"/>
        </g>
        <g id="__Rize">
            <path d="    M70.52,211.72c0.45,0.29,2.99,3.02,4.38,3.58c0.19-0.08,2.06,0.43,2.17,0.25c1.46-0.79,1.87-2.59,3.63-3.54    c0.88,0,3.53-0.4,4.33-0.58c1.21,0.17,2.33,0.08,3.42,0.13c0.75,0.29,2.14,0.61,2.96,1c1.12,0.64,2.25,0.69,3.37,1.33    c1.18,0.58,2.01,0.87,2.59,1.03c0.62,0.35,1.24,0.7,1.86,1.05c1.23,0.99,2.79,2.64,4.02,3.63c0.71,1.92-0.04,5.39-0.04,6.92    c0.13,1.1,0.66,0.78,1.41,2.5c0.92,1.23,2.38,3.92,2.88,5.28c0.25,0.66,0.9,1.54,1.33,2.08c0.7,0.89,1.55,2.32,2.25,3.21    c0.08,0.83,0.26,2.59,0.29,3.17c0.25,1.6,0.13,2.03,0.38,3.63c0.58,0.33,1.1,1.07,1.54,1.21c1,0.63,1.5,0.79,2.13,1.34    c1.91,1.68,3.58,3.49,4.8,5.77c0.56,1.52,1.12,3.04,1.68,4.56c0.62,0.97,1.54,2.69,1.5,3.86c-0.09,2.67-2.77,5.09-2.49,7.92    c0.88,0.25,3.08,0.03,3.63,0c0.96-0.14,2.16-0.1,3.13-0.25c1.2,0,1.8-0.25,3-0.25c0.94,0.5,2.9,0.48,3.96,0.25    c2.53-0.54,5.1-0.07,7.67,0.05c0.8,0.06,1.61,0.13,2.41,0.19c2.24-0.35,4.75-0.41,6.96,0.24c2.01,0.02,7.44,0.09,9.12,0.48    c3.39-0.08,6.05-0.39,9.01-0.84c1.76-0.36,3.39-1.21,5.15-1.56c1.08,0.59,4.33-0.77,5.23-1.44l0.13-0.18    c-0.11-0.26-0.21-0.53-0.32-0.78c0.43-1.86-1.71-6.85-2.16-9.12l-0.46-0.16c-1.05,0.4-2.11,0.8-3.16,1.2    c-0.96,0.13-1.91,0.26-2.87,0.4c-1.04-0.24-2.08-0.48-3.12-0.72c-1.22-1.08-2.16-2.28-3.6-3.12c-1.26-0.74-5.46-3.62-6-4.8    c-1.76-0.63-3.53-1.26-5.29-1.9c-0.48-0.33-0.96-0.65-1.43-0.98c-1.14-1.47-2.1-2.37-3.92-3c-2.37-0.55-4.74-1.1-7.1-1.65    c-0.73-0.09-2.38-0.13-2.66-0.87c-1.75,0.05-3.32,0.45-4.46-1.04c-0.35-0.47-0.82-1.02-0.58-1.61c-0.56-0.88-1.12-1.76-1.68-2.64    c-0.63-0.89-1.67-1.15-1.97-2.23c-0.21-2.21-0.43-4.42-0.64-6.63c0.48-0.63,0.48-2.49,0.33-3.25c0.64-0.68,0.79-2.07,0.83-3.02    c0.8-1.12,1.9-1.69,2.16-3.12c0.21-1.16,0.03-2.76-0.36-3.8c-0.17-0.63-0.34-1.26-0.5-1.89c0.29-0.51,0.73-0.96,1.34-1.03    c1.2-0.65,2.8-1.08,2.64-2.64c0.06-0.6-0.18-1.46-0.49-2c-0.4-0.05-0.56-0.1-0.95-0.16c-0.16-0.16-0.56-0.32-0.72-0.48    c-0.81-1.71-1.16-2.77-0.96-3.61c-0.06-0.41,0.54-1.26,0.48-1.67c0.24-0.95,0.65-1.86,1.2-3.36c2.64-2.97,5.26-7.04,8.91-7.68    c0.64-0.72,5.06-0.57,5.74-0.49c1.25-0.12,2.32-0.85,2.88-1.92c0.3,0.07,0.6,0.14,0.9,0.21c1.5,0.48,2.3,2.97,3.42,4.11    c0.48,0.49,0.88,0.73,1.26,0.88l0.19,0.08c-0.03,0.07-0.52-1.43-0.72-1.92c0.6-1.93,1.21-3.86,1.81-5.79    c0.55-2.32-0.09-4.59,0.51-6.89c1.35-2.65,2.42-5,2.96-6.76c0.08-2.34,0.78-3.55,0.86-3.86c0.04-0.95,0.07-1.91,0.11-2.86    c-0.06-0.84-0.54-2.27-1.44-2.64v-0.24c-0.06,0.02-2.48,0.96-3.12,1.2c-1.53,0.53-1.11,0.19-2.64,0.72    c-0.48,0.32-0.96,0.64-1.44,0.96c-1.02,0.82-3.71,2.88-5.04,2.88c-0.83,0.5-2.77,1.8-2.88,1.92c-0.64,0.16-1.04,1.04-1.68,1.2    c-1.48,0.41-2.48,1.46-4.11,1.63c-2.64,0.26-4-0.11-5.25,0.29c-0.12,0.34-3.01,0.62-3.12,0.96c-1.15-0.07-1.31,1.55-2.16,2.16    c-1.03,0.73-1.92,1.37-2.88,2.16c-0.43,0.3-1,0.62-1.44,0.96c-3.66,2.86-7.25,4.49-11.99,3.28c-1.68-0.34-2.93-2.79-3.86-4.24    c-0.48-0.48-0.96-0.96-1.44-1.44c-0.83-0.48-1.69-0.9-2.89-0.69c-1.14-0.15-2.87,0.81-3.83,1.41c-1.76,0.56-3.52,1.12-5.28,1.68    c-1.42,0.6-2.85,1.22-4.16,1.34c-1.57,0.03-3.63,0.31-5.2,0.34c0.27,0.2,0.66,0.99,0.72,0.96c0.21,0.17,0.77,0.91,1.34,1.73    c0.8,3.14,3.8,6.36,5.29,9.12c0.24,0.47-0.72,1.6-1.01,1.99c-0.21,0.28-1.21,1.14-1.57,1.24c-0.79,0.69-1.56,1.42-1.81,2.99    c0.12,0.47,0.24,0.95,0.35,1.42c0.01,0.48,0.03,0.96,0.04,1.44c0.06,0.97,0.18,1.8,0.77,2.58c0.08,0.28,0.05,0.67-0.05,0.78    c-0.13,0.25-0.26,0.29-0.48,0.48c-0.08,0.08-1.15,0.81-1.7,0.63c-1.52-0.31-1.92-2.17-2.66-2.36c-1.11,0.27-2.46,0.49-3.56,0.77    c-1.36,0.24-2.72,0.48-4.08,0.72c-1.21,1.11-2.63,1.58-4.08,2.16l-0.28,0.43c-0.22,0.36-0.56,0.56-0.88,0.88    c-0.18,0.28-1.19,1.19-1.63,1.56c-0.44,0.44-0.67,0.72-1.1,1.16L70.52,211.72z"/>
            <circle cx="115.03" cy="186" r="1.586"/>
        </g>
        <g id="__Güneysu">
            <path d="    M177.37,257.65c-1.05,0.4-2.11,0.8-3.16,1.2c-0.96,0.13-1.91,0.26-2.87,0.4c-1.04-0.24-2.08-0.48-3.12-0.72    c-1.22-1.08-2.16-2.28-3.6-3.12c-1.26-0.74-5.46-3.62-6-4.8c-1.76-0.63-3.53-1.26-5.29-1.9c-0.48-0.33-0.96-0.65-1.43-0.98    c-1.14-1.47-2.1-2.37-3.92-3c-2.37-0.55-4.74-1.1-7.1-1.65c-0.73-0.09-2.38-0.13-2.66-0.87c-1.75,0.05-3.32,0.45-4.46-1.04    c-0.35-0.47-0.82-1.02-0.58-1.61c-0.56-0.88-1.12-1.76-1.68-2.64c-0.63-0.89-1.67-1.15-1.97-2.23c-0.21-2.21-0.43-4.42-0.64-6.63    c0.48-0.63,0.48-2.49,0.33-3.25c0.64-0.68,0.79-2.07,0.83-3.02c0.8-1.12,1.9-1.69,2.16-3.12c0.21-1.16,0.03-2.76-0.36-3.8    c-0.17-0.63-0.34-1.26-0.5-1.89c0.29-0.51,0.73-0.96,1.34-1.03c1.2-0.65,2.8-1.08,2.64-2.64c0.06-0.6-0.18-1.46-0.49-2    c-0.4-0.05-0.56-0.1-0.95-0.16c-0.16-0.16-0.56-0.32-0.72-0.48c-0.81-1.71-1.16-2.77-0.96-3.61c-0.06-0.41,0.54-1.26,0.48-1.67    c0.24-0.95,0.65-1.86,1.2-3.36c2.64-2.97,5.26-7.04,8.91-7.68c0.64-0.72,5.06-0.57,5.74-0.49c1.25-0.12,2.32-0.85,2.88-1.92    c0.3,0.07,0.6,0.14,0.9,0.21c1.5,0.48,2.3,2.97,3.42,4.11c0.48,0.49,0.88,0.73,1.26,0.88l0.19,0.08c2.6,0.62,2.88,2.47,4.8,3.84    c1.75,1.39,4.02,2.45,5.76,3.84c1.07,0.69,1.82,1.23,2.88,1.92c1.24,0.84,3.35,2.47,4.08,3.84c1.17,1.56,2.43,2.76,3.6,4.32    c-0.07,0.95-0.13,1.91-0.2,2.86c1.27,1.53,2.78,3.06,4.04,4.58c1.04,0.96,2.08,1.68,3.12,2.64c0.72,1.68,1.44,3.6,2.16,5.28    c0.21,0.86,0.29,1.88,0,2.88c-0.21,5.37-3.07,10-4.94,14.92c-0.67,1.76-1.88,3.41-3.23,5.24c-0.24,0.48-0.48,0.96-0.72,1.44    c-0.13,0.66-0.02,1.69-0.48,2.16c-0.04,1.33-0.28,3.35-0.24,4.8L177.37,257.65z"/>
            <circle cx="147.29" cy="205.5" r="1.586"/>
        </g>
        <g id="__Çayeli">
            <path d="    M202.45,128.32c-0.77,0.97-1.7,2.53-3.02,3.21c-2.29,3.79-5.41,6.98-7.44,11.05c-0.07,0.11-0.48,0.59-0.48,0.72    c0.02,0.03-0.72,1.13-0.72,1.2c-0.06,0.07-0.87,1.31-0.88,1.4c-0.49,0.66-0.98,1.32-1.47,1.98c-1.14,1.28-2.29,2.56-3.43,3.83    c-0.28,0.49-0.58,0.93-0.95,1.43c-1.65,1.4-3.28,2.13-4.91,3.01c-0.84,0.3-1.67,0.59-2.51,0.89c-0.97,0.46-1.94,0.93-2.9,1.39    c-1.35,0.78-2.93,1.79-4.32,0.96c-0.48-0.35-1.25-0.17-1.92-0.24c-1.57,0.98-3.05,1.8-4.73,2.55c-0.37,0.17-1.56,0.78-1.51,0.81    c0.9,0.37,1.38,1.81,1.44,2.64c-0.04,0.95-0.07,1.91-0.11,2.86c-0.08,0.31-0.78,1.53-0.86,3.86c-0.54,1.76-1.61,4.11-2.96,6.76    c-0.6,2.3,0.04,4.58-0.51,6.89c-0.6,1.93-1.21,3.86-1.81,5.79c0.2,0.49,0.69,1.99,0.72,1.92c2.6,0.62,2.88,2.47,4.8,3.84    c1.75,1.39,4.02,2.45,5.76,3.84c1.07,0.69,1.82,1.23,2.88,1.92c1.24,0.84,3.35,2.47,4.08,3.84c1.17,1.56,2.43,2.76,3.6,4.32    c-0.07,0.95-0.13,1.91-0.2,2.86c1.27,1.53,2.78,3.06,4.04,4.58c1.04,0.96,2.08,1.68,3.12,2.64c0.72,1.68,1.44,3.6,2.16,5.28    c0.21,0.86,0.29,1.88,0,2.88c-0.21,5.37-3.07,10-4.94,14.92c-0.67,1.76-1.88,3.41-3.23,5.24c-0.24,0.48-0.48,0.96-0.72,1.44    c-0.13,0.66-0.02,1.69-0.48,2.16c-0.04,1.33-0.28,3.35-0.24,4.8c0.45,2.27,2.59,7.26,2.16,9.12c0.1,0.25,0.2,0.52,0.32,0.78    c0.25,0.58,0.56,1.13,1.13,1.38c0.52,1.11,1.15,2.59,1.2,8.88c1.48,1.22,2.52,2.54,3.47,4.64c1.33,2.94,2.57,3.28,5.17,4.94    c0.95,0.61,1.28,1.47,2.16,1.6c0.63,0.25,1.38,0,2.63-0.13c0.48-0.48,0.98-1.69,1.46-2.17c0.15,0.02,0.92-0.08,1.68,0    c0.72,0.63,1.45,1.26,2.17,1.89c0.88,0.62,1.77,1.25,2.65,1.87c1.87,1.74,3.75,3.49,5.62,5.23c0.9,0.83,2.73,3.54,3.98,2.97    c1.2-0.17,2.34,0.09,2.86,0.77c0.24,0.45,0.86,1.36,1.08,1.73c0.69-1.31,0.56-0.91,2.06-7.92c0.56-2.6,0.57-5.42,1.18-7.97    c0.41-1.03,0.82-2.07,1.23-3.1c0.22-0.69,0.43-1.39,0.65-2.08c1.05-1.55,2.11-3.11,3.16-4.67c1.04-2.37,1.15-5.19,0.89-7.71    c-0.06-0.71-0.11-1.42-0.17-2.13c0.36-2.23,1.8-4.09,2.04-6.28c0.2-3.19,0.4-6.38,0.6-9.56c-0.24-0.56-0.48-1.12-0.72-1.68    c-0.08-0.8-0.16-1.6-0.24-2.4c-0.88-2.32-1.76-4.64-2.64-6.96c-1.04-5.28-2.08-10.56-3.12-15.84c0.08-1.36,0.16-2.72,0.24-4.08    c-0.25-0.75-0.5-1.5-0.75-2.24c-0.2-0.54-0.19-1.32-0.69-1.6c0.13-1.23,0.59-3.57-0.24-4.56c-0.08-1.84-0.16-3.68-0.24-5.52    c0.24-1.28,0.48-2.56,0.72-3.84c0.66-1.01,1.31-2.01,1.97-3.02c0.46-0.99,0.92-1.99,1.39-2.99c1.87-4.61,3.39-9.17,4.8-13.92    c0.29-1.35,0.57-2.69,0.86-4.04c2.07-6.04,4.01-10.22,3.46-16.85c-0.83-0.83-1.53-3.44-1.85-4.58c-0.58-2.96-1.38-5.79-2.23-7.42    c-0.44-0.36-1.11-1.73-1.71-2.15c-0.1-0.44-0.93-0.34-1.65-0.25c-1.6,0.48-3.2,0.96-4.8,1.44c-1.18,0.27-2.35,0.54-3.6,0    c-1.41-1.17-3.07-1.65-4.66-2.66c-0.69-0.55-1.38-1.11-2.06-1.67c-0.48-0.88-0.96-1.76-1.44-2.64c-0.24-1.92-0.48-3.84-0.72-5.76    c-0.77-0.9-1.55-1.81-2.32-2.71c-0.4-0.55-3.67-4-3.92-4.25C202.93,127.78,202.52,128.23,202.45,128.32z"/>
            <circle cx="187.55" cy="154.99" r="1.586"/>
        </g>
    </g>
</svg>