<?xml version="1.0" encoding="UTF-8"?>
<!DOCTYPE svg PUBLIC "-//W3C//DTD SVG 1.1//EN" "http://www.w3.org/Graphics/SVG/1.1/DTD/svg11.dtd">
<svg version="1.1" id="HaritaCizim" xmlns="http://www.w3.org/2000/svg" xmlns:xlink="http://www.w3.org/1999/xlink" x="0px" y="0px" viewBox="0 0 500 552" preserveAspectRatio="none">
    <defs id="__def">
        <radialGradient id="f">
            <stop offset="0" stop-color="white" stop-opacity="1"/>
            <stop id="STOP1" offset=".4" stop-opacity="1"/>
            <stop offset="1" stop-color="white" stop-opacity=".2"/>
        </radialGradient>
        <filter id="__flt1" x="0" y="0" width="200%" height="200%" filterUnits="objectBoundingBox">
            <feGaussianBlur in="SourceAlpha" stdDeviation="3" result="blur1"/>
            <feSpecularLighting result="specOut" in="blur1" specularConstant="1.5" specularExponent="20" lighting-color="#bbbbbb">
                <feDistantLight azimuth="45" elevation="30"/>
            </feSpecularLighting>
            <feComposite in="specOut" in2="SourceAlpha" operator="in" result="specOut"/>
            <feComposite in="SourceGraphic" in2="specOut" operator="arithmetic" k1="0" k2="1" k3="1" k4="0"/>
        </filter>
        <filter id="__flt2" x="0" y="0" width="200%" height="200%" filterUnits="objectBoundingBox">
            <feGaussianBlur in="SourceAlpha" stdDeviation="3" result="blur1"/>
            <feSpecularLighting result="specOut" in="blur1" specularExponent="20" lighting-color="#bbbbbb">
                <fePointLight x="-2000" y="100" z="2000"/>
            </feSpecularLighting>
            <feComposite in="specOut" in2="SourceAlpha" operator="in" result="specOut"/>
            <feComposite in="SourceGraphic" in2="specOut" operator="arithmetic" k1="0" k2="1" k3="1" k4="0"/>
        </filter>
        <filter id="__flt3" x0="-50%" y0="-50%" width="200%" height="200%" filterUnits="objectBoundingBox">
            <feGaussianBlur in="SourceAlpha" stdDeviation="3" result="blur"/>
            <feOffset in="blur" dx="0" dy="0" result="offsetBlur"/>
            <feSpecularLighting in="blur" surfaceScale="4" specularConstant=".5" specularExponent="20" lighting-color="flavor" result="specOut">
                <fePointLight x="-5000" y="-10000" z="5000"/>
            </feSpecularLighting>
            <feComposite in="specOut" in2="SourceAlpha" operator="in" result="specOut"/>
            <feComposite in="SourceGraphic" in2="specOut" operator="arithmetic" k1="0" k2="1" k3="1" k4="0" result="litPaint"/>
            <feMerge>
                <feMergeNode in="offsetBlur"/>
                <feMergeNode in="litPaint"/>
            </feMerge>
        </filter>
        <filter id="__flt4" x0="-50%" y0="-50%" width="200%" height="200%">
            <feGaussianBlur in="SourceAlpha" stdDeviation="2" result="blur"/>
            <feOffset dy="-1" dx="-1"/>
            <feComposite in2="SourceAlpha" operator="arithmetic" k2="-1" k3="1" result="hlDiff"/>
            <feFlood flood-color="white" flood-opacity=".7"/>
            <feComposite in2="hlDiff" operator="in"/>
            <feComposite in2="SourceGraphic" operator="over" result="withGlow"/>
            <feOffset in="blur" dy="3" dx="3"/>
            <feComposite in2="SourceAlpha" operator="arithmetic" k2="-1" k3="1" result="shadowDiff"/>
            <feFlood flood-color="black" flood-opacity="1"/>
            <feComposite in2="shadowDiff" operator="in"/>
            <feComposite in2="withGlow" operator="over"/>
        </filter>
        <filter id="__golge1" x="0" y="0" width="200%" height="200%" filterUnits="userSpaceOnUse">
            <feOffset result="offOut" in="SourceAlpha" dx="8" dy="8"/>
            <feGaussianBlur result="blurOut" in="offOut" stdDeviation="3"/>
            <feBlend in="SourceGraphic" in2="blurOut" mode="normal"/>
        </filter>
    </defs>
    <g id="__Komsular" display="none">
        <radialGradient id="SVGID_1_" cx="150.2998" cy="282.8955" r="46.1855" gradientTransform="matrix(1 0 0 0.5 0 141.4478)" gradientUnits="userSpaceOnUse">
            <stop offset="0" style="stop-color:#2A3085"/>
            <stop offset="0.1714" style="stop-color:#575B9F"/>
            <stop offset="0.4672" style="stop-color:#9EA1C8"/>
            <stop offset="0.7138" style="stop-color:#D3D4E6"/>
            <stop offset="0.8984" style="stop-color:#F3F3F8"/>
            <stop offset="1" style="stop-color:#FFFFFF"/>
        </radialGradient>
        <path fill-rule="evenodd" clip-rule="evenodd" fill="url(#SVGID_1_)" stroke="#000000" stroke-width="0.25" stroke-miterlimit="10" d="   M113.35,284.36c-0.42-0.69-0.46-0.97,0.43-1.29c1.83-0.88,6.26-2.67,8.23-1.92c1.03-0.33,2.69-1.53,3.56-0.82   c0.55-0.55,1.1-1.1,1.65-1.65c1.83-0.37,3.66-0.73,5.48-1.1c1.5-1.15,3.09-3.04,5.12-2.4c0.92-0.5,0.67-1.85,1.62-1.35   c1.27,0.76,1.6,0.61,3.13,0.46c1.56,1.77,2.88,1.92,5.21,2.19c-0.34-0.48-0.69-0.97-1.03-1.45c0.89-0.89,3.32-1.51,3.77-2.12   c1.58,0.2,3.35,0.79,4.92,0.4c0.84-0.36,1.69-0.73,2.53-1.09c0.68-0.13,1.39,0.08,1.88-0.41c0.66,0.24,1.33,0.47,1.99,0.71   c0.5-0.71,1.36-2.68,2.39-2.61c2.93,0.28,4.97,2.1,7.69,2.73c1.73,0.04,2.52-1.14,4.25-1.1c0.5-0.46,1.93,0.3,2.42-0.16   c0.84,1.15,2.17,1.84,3.47,1.53c1.02,1.02,2.09,1.37,3.56,1.37c0.72,0,1.32,0.62,1.92,0.27c-0.11,0.21-0.23,0.41-0.34,0.62   c0.11,0.25,0.23,0.5,0.34,0.75c-0.19,0.06-0.39,0.13-0.58,0.19c-1.14,0.35-1.74,0.74-2.71,1.46c0.27,0.91,0.55,1.83,0.82,2.74   c-0.25,1.12-1.17,2.13-0.82,3.29c-0.44,0.61-0.8,0.88-0.82,1.65c-0.66,0.68-2.56,2.04-2.74,2.74c-1.74,1.19-3.47,2.38-5.21,3.56   c-1.11,0.26-2.22,0.53-3.32,0.79c-0.63,0.01-1.26,0.02-1.89,0.03c-1.9,0.84-2.28,3.14-4.56,3.04c-0.54,0.75-0.52,0.41-1.12-0.12   c-0.9-0.83-1.79-1.65-2.69-2.48c-2.59-1.49-5.85-1.96-8.59-2.79c-1.33-0.4-4.54-0.71-5.53,0.42c-0.82-0.05-1.77-0.42-2.47,0   c-0.92-0.22-2.48-0.74-3.29-0.27c-1.89-0.8-3.38-0.95-5.36-1.27c-1.22,0.52-4.12-0.26-5.06-1.2c-1.7-0.43-3.39-0.87-5.09-1.3   c-0.74-0.25-2.29-0.72-2.59-1.44c-1.73,0.05-4.77,0.54-7.18,0.48C115.16,285.43,113.84,285.16,113.35,284.36z"/>
        <radialGradient id="SVGID_2_" cx="281.1533" cy="109.3223" r="8.2864" gradientUnits="userSpaceOnUse">
            <stop offset="0" style="stop-color:#2A3085"/>
            <stop offset="0.1714" style="stop-color:#575B9F"/>
            <stop offset="0.4672" style="stop-color:#9EA1C8"/>
            <stop offset="0.7138" style="stop-color:#D3D4E6"/>
            <stop offset="0.8984" style="stop-color:#F3F3F8"/>
            <stop offset="1" style="stop-color:#FFFFFF"/>
        </radialGradient>
        <path fill-rule="evenodd" clip-rule="evenodd" fill="url(#SVGID_2_)" stroke="#000000" stroke-width="0.25" stroke-miterlimit="10" d="   M278.95,102.67c1.98,1.01,1.68,0.64,3.46-0.29c0.62,0.62,0.33,1.81,0.82,0.81c0.19-0.41,0.16-0.64,0.54-0.31   c0.28,0.38,0.55,0.76,0.83,1.14c0.72,0.41,1.45,0.83,2.17,1.24c-0.25,1.2,0.69,0.95-0.44,1.78c-0.58,0.36-1.15,0.73-1.73,1.09   c-0.41-0.14-1.72-0.8-2.03-0.4c-0.26,0.38-0.24,0.59-0.71,0.68c-0.47,2.34-0.75,4.39-2.29,6.2c-0.58,0.68-1.28,1.88-2.35,1.64   c-0.93-0.26-0.9-0.65-0.85-1.52c0.17-0.86,1-1.54,0.55-2.47c0.25-0.54,0.49-1.08,0.74-1.62c-0.25-0.81-2.73,0.86-2.19-0.55   c0.36-1.17,0.99-2.77,2.27-2.77c0.27-0.27,0.97-0.68,0.65-0.99c-0.14-0.51-2.21-0.77-2.85-1.2c1.56-1.02,1.85-1.05,2.74-2.74   C278.51,102.47,278.73,102.57,278.95,102.67z"/>
        <path fill-rule="evenodd" clip-rule="evenodd" fill="none" stroke="#000000" stroke-width="0.25" stroke-miterlimit="10" d="   M36.87,375.89c-1.96,0.01-3.22,0.84-4.94,1.51c-1.73,0.67-3.56,1.11-5.35,1.54c-3.67,0.88-6.41,3.17-10.4,2.96   c-1.53-4.27,0.75-8.3,0.96-12.43c0.16,0,0.35-0.04,0.51-0.04c0.85-3.01,0.74-7.88-2.03-9.47c-1.55-0.89-3.11-0.8-4.8-1.21   c-2.28-0.55-4.02-2.04-6.7-2.21c-0.07-0.53-0.44-0.9-0.98-0.94"/>
        <path fill-rule="evenodd" clip-rule="evenodd" fill="none" stroke="#000000" stroke-width="0.25" stroke-miterlimit="10" d="   M44,388.36c-1.97,1.2-4.03,1.12-6.17,1.67c-2.39,0.61-4.36,2.19-6.85,2.71c-4.06,0.85-8.04,3.6-11.52,5.76   c-3.51,2.18-7.27,4.59-10.37,7.31c-1.59,1.4-2.78,2.9-3.37,4.9c-0.6,2.06-1.47,4.2-1.47,6.44c-0.01,4.76,2.08,7.77,4.49,11.52   c1.3,2.02,1.8,3.9,1.16,6.2c-0.74,2.65-1.98,3.26-4.42,4.08c-0.77,0.26-1.32,0.8-2.06,1.1"/>
        <path fill-rule="evenodd" clip-rule="evenodd" fill="none" stroke="#000000" stroke-width="0.25" stroke-miterlimit="10" d="   M291.6,511.48c0,2.99,0.17,3.6,2.64,5.04c1.74,1.01,2.36,3.39,2.03,5.52c-0.38,2.45-1.06,3.89,0.72,6c1.5,1.78,2.7,2.49,2.7,5.24   c0,4.17-2.03,8.05-0.04,12.07c1.69,3.4,5.33,5.46,8.4,6.71"/>
        <path fill-rule="evenodd" clip-rule="evenodd" fill="none" stroke="#000000" stroke-width="0.25" stroke-miterlimit="10" d="   M424.58,311.31c1.5,1.51,4.46-0.66,6.34-0.96c2.26-0.36,4.69,0.21,6.96-0.03c1.11-0.12,2.11-0.75,3.15-1.07   c1.01-0.31,1.93-0.35,2.88-0.79c2.02-0.94,3.07-2.46,4.8-3.72c0.9-0.65,2.16-1.07,3.29-1.1c1.34-0.04,1.74,0.84,2.88,0.96   c1.84,0.2,4.71-0.61,6.27-1.4c0.91-0.46,1.71-1.4,2.78-1.63c1.04-0.22,2.25-0.03,3.29-0.13c2.23-0.22,4.33-0.65,6.44-1.1   c3.47-0.74,7.5-2.17,11.25-1.65c1.74,0.24,3.33,1.69,4.93,2.23c1.67,0.56,3.7,0.47,5.35-0.03"/>
        <text transform="matrix(0.1171 -0.9931 0.9931 0.1171 75.4438 225.5146)" font-family="'MyriadPro-Regular'" font-size="16.4519">KOCAELİ</text>
        <text transform="matrix(0.9385 -0.3454 0.3454 0.9385 9.2515 396.0288)" font-family="'MyriadPro-Regular'" font-size="9.8711">BURSA</text>
        <text transform="matrix(0.9724 0.2332 -0.2332 0.9724 98.8271 509.2065)" font-family="'MyriadPro-Regular'" font-size="16.4519">BİLECİK</text>
        <text transform="matrix(0.6548 -0.7558 0.7558 0.6548 423.1504 450.7119)" font-family="'MyriadPro-Regular'" font-size="16.4519">BOLU</text>
        <text transform="matrix(0.1488 -0.9889 0.9889 0.1488 476.7881 224.2676)" font-family="'MyriadPro-Regular'" font-size="16.4519">DÜZCE</text>
        <linearGradient id="SVGID_3_" gradientUnits="userSpaceOnUse" x1="284.1929" y1="95.8091" x2="284.1929" y2="0">
            <stop offset="0" style="stop-color:#2A3085"/>
            <stop offset="1" style="stop-color:#FFFFFF"/>
        </linearGradient>
        <path fill="url(#SVGID_3_)" d="M503.14,85.96V0H65.28v59.22l-0.03,0.66c0.9,0,2-0.18,2.88,0c1.06,0.22,1.41,1.09,2.32,1.38   c1.85,0.59,3.64-0.7,5.35-0.69c1.83,0.01,3.03,1.25,4.66,1.65c1.34,0.33,4.04-0.16,5.1-0.92c0.55-0.4,0.78-1.02,1.34-1.28   c0.34-0.16,1.25-0.12,1.64-0.13c1.13-0.05,2.19-0.37,3.29-0.27c1.46,0.13,1.68,1.59,3.13,1.48c0.65-0.05,2.09-0.93,2.74-1.35   c3.31-2.13,8.23-2.25,12.37-1.61c2.32,0.36,3.26,1.97,5.9,1.61c1.46-0.2,1.74-1.04,2.88-1.68c0.83-0.47,1.98-0.41,2.89-0.93   c0.47-0.27,0.85-0.75,1.36-1c0.44-0.22,1.13-0.15,1.52-0.37c1.59-0.9,0.18-1.83,0.82-3.02c0.74-1.38,1.17,0.39,1.65,1.1   c1.11,1.66,1.19-0.14,2.44,0.43c0.05,0.8-0.02,1.49,0.31,2.15c1.62-0.16,1.78-0.94,1.79-2.29c0.17-0.17,0.12-0.22,0.27-0.41   c1.81-0.59,0.05-1.96-0.57-2.53c-0.79-0.71-1.21-1.37-0.8-2.55c1.35-0.02,3.12-0.08,4.5-0.29c1.39-0.22,2.08-1.98,3.67-1.21   c1.22,0.59,1.48,2.25,3.05,2.17c1.08-0.06,2.11-1.57,3.13-2.08c0.34-2.13-2.02-3.03-2.82-4.67c-0.88-1.81,0.97-3.85,2.96-3.51   c0.48,2.34,3.23,1.68,1.84-0.6c-1.06-1.73-2.96-1.34-2.76-3.78c1.13,0.06,2.16-0.16,3.13-0.57c0.8-0.34,2.08-1.51,2.22,0.12   c2.25,0.3,6.18-1.02,7.1-3c1.2-2.56,1.92-5.15,3.74-7.5c1.59-2.07,3.61-0.76,5.56,0.27c1.84,0.97,3.5,1.97,5.38,2.84   c1.03,0.48,1.7,0.96,2.88,0.96c1.17,0,2.09-0.61,3.29-0.42c1.1,0.17,1.95,0.85,3.02,1.07c1.18,0.25,2.03-0.47,3.1-0.37   c-0.13-0.08-0.2-0.12-0.35-0.18c0.13-0.1,0.36-0.26,0.54-0.38c0.53-0.37,2.13-1.24,2.88-0.67c0.69,0.53,0.16,2.29,0.79,3.03   c0.53,0.64,1.86,0.94,2.64,1.33c1.45,0.73,1.21,0.11,2.6-0.13c1.49-0.26,1.75,0.65,1.93,1.78c0.13,0.85-0.24,0.78,0.41,1.5   c0.33,0.36,0.84,0.52,1.26,0.79c1.6,1.04,3.02,2.85,5.04,3.32l0.89,0.15c0.91,0.35,1.83,0.69,2.74,1.04   c0.36,0.8,1.92,1.05,2.72,1.47c1.5,0.7,2.99,1.41,4.49,2.11c1.12-0.29,2.94,0.79,3.96,1.27c2.01,0.82,4.02,1.65,6.03,2.47   c1.29,0.17,2.31,0.63,3.54,1.03c0.19,0.14,0.38,0.27,0.57,0.41c1.12,0.28,3.06,0.37,3.85,1.3c2.88,0.85,5.76,1.69,8.65,2.54   l0.25,0.23c0.89,0.02,2.19,0.76,3.15,0.91c0.99,0.15,2.02,0.19,2.99,0.46c2.19,0.62,4.33,1.29,6.62,1.62   c4.1,0.59,8.43,2.08,12.48,2.99c2.07,0.47,4.22,0.61,6.31,1.13c2.36,0.59,4.22,0.85,6.72,0.95c2.25,0.09,4.45,0.7,6.58,1.38   c2.1,0.67,4.4,0.77,6.58,1.1c4.71,0.71,9.54,0.91,14.26,1.67c2.23,0.36,4.57,0.32,6.85,0.55c2.15,0.21,6.27,2.36,8.36,2.85   c3.79,0.88,5.4,2.52,8.77,4.39c1.86,1.03,3.5,2.64,5.63,3.18c2.26,0.58,3.01,1.44,5.62,2.71c3.96,1.92,7.66,3.66,11.38,5.75   c1.65,0.93,3.37,2.37,5.17,3.19c1.96,0.9,4.69,0.85,6.89,0.93c2.38,0.09,4.31,0.37,6.58,0.69c1.13,0.16,6.48,1.28,6.72,0.55   l0.11,0.07c3.2,0.88,6.6,1.3,9.9,1.3c0.58,0,1.02,0.1,1.37,0.55c2.28,0.18,4.57,0.37,6.85,0.55c2.74,0.37,5.48,0.73,8.23,1.1   c2.8,0.09,5.46,0.24,8.23,0.82c2.56,0.18,5.12,0.37,7.68,0.55c1.3-0.09,3.46-0.78,4.39,0.27c1.29-0.45,3.81-0.74,4.66,0.55   c1.93-0.69,5.53-1.28,7.62-0.94c0.76,0.11,1.53,0.22,2.29,0.33c0.34-0.04,1.47,0.21,1.47,0.21c4.48-0.03,8.96,0.3,13.41-0.03   c1.93-0.15,4.1,1.2,6.06,0.98c1.47-0.16,1.58-0.88,2.57-1.81c1.41-1.32,4.81-0.66,6.76-0.66c2.41,0,4.4-0.22,6.58-0.68   c2.36-0.5,4.63-0.83,7.13-0.83c2.42,0.01,4.51-1.06,6.31-2.44c1.62-1.24,3.37-1.32,5.34-1.81c1.46-0.37,3.18-0.36,4.67-0.65   c1.49-0.29,3.27-1.02,4.8-0.85L503.14,85.96z"/>
    </g>
    <g id="__Harita" fill="white" stroke="#000000" stroke-width="1" stroke-miterlimit="10" display="none">
        <rect id="__cer" x="0" y="0" fill="#000000" opacity="0" width="500" height="552"/>
        <g id="__Akyazı">
            <path d="    M283.64,221.82c-2.51,2.32-5.03,4.64-7.54,6.96c-1.9,5.13,0.11,10.58-1.88,15.65c-1.02,1.73-2.03,3.46-3.05,5.19    c-1.1,0.46-2.19,0.91-3.29,1.37c-0.37,0.46-0.73,0.91-1.1,1.37c-1.01,4.75-2.01,9.51-3.02,14.26c-0.2,0.04-0.41,0.07-0.61,0.11    c-0.53,1.24-1.06,2.48-1.58,3.73c0.37,3.47,0.74,6.95,1.11,10.42c0,1.93-1.2,3.04-1.38,4.65c-0.16,1.42,0.67,5.07-0.01,6.04    c0.27,0.91,0.55,1.83,0.82,2.74c1.42,1.11,3.15,1.94,4.03,3.59c0.39,1.73,0.79,3.46,1.18,5.18c0.63,2.15,4.2,5.09,6.02,3.83    c0.65-0.45,1.13-1.29,1.93-1.36c0.11-0.84,0.23-3.18,1.37-3.29c0.05-1.05,0.1-2.09,0.15-3.14c0.98-0.49,1.97-0.99,2.96-1.48    c1.16,0.53,2.32,1.07,3.48,1.6c1.36,0.09,1.98,0.12,3.09,1c0.59-0.22,0.38-0.32,0.67,0.13c0.3,0.35,0.6,0.71,0.9,1.06    c0.29,1.47,0.29,5.45-0.55,6.58c-0.28,2.39-0.57,4.63-1.26,6.99c-0.49,1.05-0.99,2.1-1.48,3.15c-0.37,0.46-0.73,0.91-1.1,1.37    c-0.64,0.46-1.28,0.91-1.92,1.37c-0.37,0.37-0.73,0.73-1.1,1.1c-0.6,1.08-1.47,3.69-2.19,4.11c0.41,0.5,0.83,1,1.24,1.5    c0.64,0.54,1.28,1.08,1.92,1.62c0.41,0.51,0.82,1.03,1.23,1.54c0.15,1.12,1.43,3.2,0.82,4.11c1.8,2.5,3.6,4.99,5.41,7.49    c1.43,1.52,4.05,2.55,3.87,4.75c0.19,0.15,0.38,0.3,0.57,0.45c-1.29,2.21-2.96,4.71-4.82,6.51c-0.85,1.1-1.71,2.19-2.56,3.29    c-1.66,1.63-3.32,3.25-4.98,4.88c-2.1,2.11-4.19,4.22-6.29,6.33c-1,0.83-1.99,1.67-2.99,2.5c-1.39,0.49-3.56,1.89-4.11,3.29    c-0.92,0.91-1.85,1.82-2.77,2.73c-0.03,0.5-0.06,0.99-0.09,1.49c2.52,1.85,5.4,2.88,8.34,4c1.13,0.62,2.26,1.24,3.38,1.86    c0.27,0.9,3.99,3.99,4.84,3.62c0.98,1.05,1.99,1.9,3.29,2.47c1.74,1.37,3.47,2.74,5.21,4.11c0.55,0.63,1.33,2.01,2.19,2.19    c0.37,0.73,0.73,1.46,1.1,2.19c-0.1,2.95-1.54,5.65-0.3,8.66c0.1,0.3,0.2,0.6,0.3,0.9c1.89,1.45,5.03-0.37,5.73-2.22    c0.66-0.25,0.55-0.01,0.61-0.5c0.08-0.64,0.16-1.27,0.24-1.91c-0.09-0.64-0.18-1.28-0.27-1.92c0.19-0.07,0.38-0.13,0.57-0.2    c1.71-0.54,3.36-1.02,5.18-1.17c1.27-0.1,1.77,0.91,2.95-0.14c0.4-0.41,0.13-0.28,0.89-0.15c0.44-0.67,2.04-2.63,1.37-3.29    c0.48-0.53,0.96-1.06,1.44-1.58c0.9-0.07,3.61-1.7,4.04-2.53c0.66-0.32,1.58-0.46,1.92-1.1c2.69-0.17,4.98-0.16,7.68,0.27    c1.1-0.09,2.19-0.18,3.29-0.27c1.82,0.21,3.64,0.43,5.46,0.64c1.46,0.29,4.51,1.8,4.69,3.47c0.66,0.41,1.66,0.66,1.92,1.37    c1.76-0.23,4.82-0.92,6.31,0.27c0.28-0.3,0.55-0.6,0.83-0.9c0.95,0.14,1.25,0.43,2.19,0.08c0.1,0.22,0.19,0.44,0.29,0.66    c0.6,1.44,1.8,3.5,1.35,5.1c0.09-0.01,0.18-0.02,0.27-0.03c1.03-0.11,1.25-0.02,1.96-0.87c0.28-0.41,0.07-0.25,0.79-0.19    c0.2-3.26,0.88-3.98,4.03-4.58c0.88-0.17,1.3-0.72,2.01-0.08c0.27-0.55,0.55-1.1,0.82-1.65c1.37-0.18,2.74-0.37,4.11-0.55    c0.29-0.58,1.34-2.13,2.16-1.83c0.93,0.37,3.08,1.53,3.32,2.38c0.19-0.07,0.38-0.14,0.57-0.21c1.39-0.55,2.77-1.09,4.16-1.64    c1.34-0.25,2.67-0.5,4.01-0.75c0.84-0.14,1.67-0.27,2.51-0.41c1.92-0.91,3.85-1.83,5.77-2.74c2.08-0.79,4.15-1.58,6.23-2.37    c0.6,0.31,4.57,1.89,4.63,1.87c1.01-0.55,2.36-1.59,2.56-2.79c1.12-0.83,1.76-1.6,2.34-2.9c0.41-0.93,0.32-1.77,0.99-2.57    c0.69-0.83,2.93-2.95,1.74-3.88c-0.73-0.57-3.58-2.11-3.74-2.98c-0.17-0.46-0.33-0.91-0.5-1.37c0.07-0.42,0.15-0.83,0.22-1.25    c-0.07-0.31-0.15-0.63-0.22-0.94c0.27-1,0.55-2.01,0.82-3.02c0.12-0.76,0.21-2.19-0.27-2.74c0.39-1.94-0.03-3.58-0.03-5.49    c0-1.25,1.03-2.79-0.25-3.56c0.07-0.75,0.33-1.53,0-2.19c0.87-1.83,2.34-3.68,2.47-5.76c-0.27-1.88-0.53-3.77-0.8-5.66    c0.04-0.73,0.07-1.46,0.11-2.19c0.85-0.92,1.93-2.85,3.15-3.12c0.55-1.39,1.73-4.87,3.29-5.21c0.28-0.64,0.48-1.57,1.1-1.92    c0.52-2.53-0.17-4.93-0.29-7.41c-0.05-1.06,1.69-5.07,0.85-5.26c-1.47-0.25-2.93-0.51-4.4-0.76c-1.28,0.09-2.56,0.59-3.84,0.69    c-2.92,1.28-5.85,2.15-8.77,3.43c-0.82,0.09-1.65,0.18-2.47,0.27c-1.74,0.35-3.55-0.5-5.23-0.78c-0.6-0.1-1.53-0.11-1.9-0.59    c-1.74-0.18-3.47-0.37-5.21-0.55c-1.75-0.7-3.5-1.39-5.24-2.09c-1.01-0.31-4.54-1.48-5.18-0.93c-1.12-0.76-2.24-1.52-3.36-2.28    c-0.43-0.52-0.87-1.04-1.3-1.56c-1.5-1.65-1.95-3.89-3.84-5.21c-1.47,0.49-4.39,0.96-6.58,0.55c-1.37-0.64-2.74-1.28-4.11-1.92    c-1.28-0.18-2.56-0.37-3.84-0.55c-3.84-1.23-4.78-3.79-6.67-7.36c-0.43-0.65-0.85-1.31-1.28-1.96c-0.68-0.49-1.68-1.1-1.92-1.92    c-2.68-2.29-4.03-3.31-5.72-6.34c-0.56-0.99-1.13-1.99-1.69-2.98c-1.08-0.58-2.17-1.15-3.25-1.73c-1.43-0.18-2.87-0.36-4.3-0.54    c-1.45-0.88-2.89-1.75-4.34-2.63c-0.81-1-1.62-1.99-2.43-2.99c-0.33-0.81-0.66-1.61-0.99-2.42c-0.21-0.39-1.38-1.76-0.87-1.76    c0.12-0.63,0.71-2.23-0.27-1.92c-0.68-1.58-1.82-2.51-2.47-3.84c-0.35-1.13-0.71-2.27-1.06-3.4c0.04-0.29,0.08-0.59,0.12-0.88    c-0.33-1.13-0.65-2.26-0.98-3.39c-1.28-0.91-2.7-1.42-3.98-2.33c-1.92-1.26-3.21-3.19-5.42-3.98c-0.9-1.17-1.31-0.77-3.22-0.81    c-1.06,0.04-1.13,0.23-2.19,0.27c-0.64,0.14-0.8,0.48-1.37,0.27c-0.8,0.53-1.21-1.16-1.37,0c-0.07-0.11-0.15-0.21-0.22-0.32    c-0.77-1.35-1.29-4.76-0.6-7.09c-0.19-1.99-0.09-3.76-0.55-5.76c-0.46-1.99-1.96-4.45-3.5-5.8c-0.74-0.94-1.47-1.89-2.21-2.83    c-0.62-2.13-0.01-4.45-0.87-6.45c0.18-0.73,0.37-1.46,0.55-2.19C284.1,221.52,283.87,221.67,283.64,221.82z"/>
            <circle cx="311.68" cy="331.12" r="1.586"/>
        </g>
        <g id="__Kocaali">
            <path d="    M376.71,89.56c3.2,0.88,6.6,1.3,9.9,1.3c0.58,0,1.02,0.1,1.37,0.55c2.28,0.18,4.57,0.37,6.85,0.55c2.74,0.37,5.48,0.73,8.23,1.1    c2.8,0.09,5.46,0.24,8.23,0.82c2.56,0.18,5.12,0.37,7.68,0.55c1.3-0.09,3.46-0.78,4.39,0.27c1.29-0.45,3.81-0.74,4.66,0.55    c1.93-0.69,5.53-1.28,7.62-0.94c0.76,0.11,1.53,0.22,2.29,0.33c0.34-0.04,1.31,1.5,1.24,1.68c-0.47,1.25-0.94,2.5-1.41,3.74    c0.32,0.41,0.64,0.82,0.96,1.23c0.23-0.24,0.46-0.49,0.69-0.73c0.32,0.33,0.64,0.67,0.96,1c1.37,0.55,2.74,1.1,4.11,1.65    c0.37,0.37,0.73,0.73,1.1,1.1c0.57,1.52,1.13,3.03,1.7,4.55c0.78,0.28,1.55,0.55,2.33,0.83c0.67,0.03,1.34,0.07,2,0.1    c0.73-0.39,1.45-0.78,2.18-1.17c0.56-0.14,2.45-0.68,2.54-0.17c0.07,1.54,0.14,3.08,0.21,4.63c-0.95,1.15-1.91,2.29-2.86,3.44    c-0.59,1.15-1.96,3.41-3.44,3.15c-0.55,0.87-1.34,2.81-2.47,2.74c-1.19,1.83-2.38,3.66-3.56,5.48c-1.37,1.1-2.74,2.19-4.11,3.29    c-0.55,0.27-1.1,0.55-1.65,0.82c-0.75,0.2-2.49,1.3-2.45,1.91c0.08,1.23,0.22,3.1,1.35,3.85c0.13,0.59,0.09,1.25,0.55,1.65    c-0.16,0.99-0.79,2.64,0,3.29c-0.35,0.37-0.7,0.75-1.05,1.12c-0.6,0.54-1.01,1.25-1.96,1.35c-0.97,1.04-1.94,2.07-2.91,3.11    c-0.58,0.61-1.17,1.22-1.75,1.83c-1.05,1.71-1.5,3.43-2.19,5.21c-0.64,0.91-1.28,1.83-1.92,2.74c-0.83,0.65-1.94,1.88-3.02,1.92    c-0.71,0.84-1.41,1.68-2.12,2.52c-0.48,0.53-0.97,1.06-1.45,1.59c-0.79,0.56-2.09,1.47-2.19,2.47c-1.8,1.19-3.61,2.37-5.42,3.56    c-1.14,1.16-2.29,2.33-3.43,3.49c-1.35,1.58-2.7,3.17-4.04,4.75c-0.94,0.06-2.29,0.23-2.74,1.1c-1.83-0.2-3.65-0.4-5.48-0.6    c-1.07-0.07-4.2,0.03-4.94,0.6c-1.65-0.25-3.31-0.5-4.96-0.75c-0.85-0.2-2.4-0.14-2.99-0.9c-1.21,0.42-5,1.72-5.48,2.74    c-1.04,0.24-4.49,1.05-4.94,1.92c-0.96-0.03-2.94,0.55-3.53-0.39c-0.72-1.04-2.02-1.13-3.05-1.81c-0.46-0.46-0.91-0.91-1.37-1.37    c-1.1-1.19-0.84-2.83-1.65-4.11c-1.13-1.81-2.49-3.92-4.11-5.21c-1.35-1.07-3.29-0.69-5.07-2.33c2.4-6.54,3.43-14.93,3.43-22.07    c0.27-1.65,0.55-3.29,0.82-4.94c1.83-2.47,3.66-4.94,5.48-7.4c0.38-0.59,0.5-3.71,0.27-4.39c1.41-2.26,2.4-4.43,3.5-6.87    c1.71-1.29,3.54-1.97,5.5-2.84c1.21-0.6,2.41-1.21,3.62-1.81c1.18-0.31,3.05-0.88,4.11,0c0.64-0.27,1.28-0.55,1.92-0.82    c1.43-1.62,4.62-4.82,3.56-7.13c0.82-1.46,1.65-2.92,2.47-4.39c0.04-0.46,0.08-0.92,0.12-1.38c0.24-0.71,0.45-4.92,0.2-5.02    c-0.18-0.07-0.37-0.15-0.55-0.22c-2.66-1.09-7.2-0.16-9.22-2.31c-1.18-1.35-1.52-2.9-2.24-4.55    C376.95,90.74,376.19,89.41,376.71,89.56z"/>
            <circle cx="394.21" cy="105.46" r="1.586"/>
        </g>
        <g id="__Kaynarca">
            <path d="    M202.14,38.63c0.91,0.35,1.83,0.69,2.74,1.04c0.36,0.8,1.92,1.05,2.72,1.47c1.5,0.7,2.99,1.41,4.49,2.11    c1.12-0.29,2.94,0.79,3.96,1.27c2.01,0.82,4.02,1.65,6.03,2.47c1.29,0.17,2.31,0.63,3.54,1.03c0.19,0.14,0.38,0.27,0.57,0.41    c1.12,0.28,3.06,0.37,3.85,1.3c2.88,0.85,5.76,1.69,8.65,2.54c-2.19,1.1-2.77,3.52-3.57,5.69c-1.33,2.03-2.52,2.97-3.85,5    c-0.56,0.86-0.4,2.54-0.68,4.04c-0.14,1.9-0.28,3.79-0.42,5.69c1.3,1.92,3.29,3.18,5.1,4.7c1,0.65,2,1.3,3,1.95    c0.73,0.73,1.46,1.46,2.19,2.19c0.64,3.19,1.23,5.64,3.29,8.23c0.37,0.64,0.73,1.28,1.1,1.92c0.32,1.15,1.1,3.29,0.69,4.11    c-0.08,0.51-0.98,1.48-0.69,1.92c-0.68,1.9-1.6,4.3-3.02,5.76c-1.55,1.37-3.11,2.74-4.66,4.11c-1.37,1.24-2.88,1.36-4.66,1.65    c-0.46-0.09-0.91-0.18-1.37-0.27c-1.49,0.14-3.47,0.3-4.16,1.5c-0.17,0.14-0.33,0.28-0.5,0.42c-0.55,1.46-1.1,2.92-1.65,4.39    c0.22,0.8,0.44,1.6,0.66,2.41c-0.13,0.75-0.26,1.5-0.39,2.25c-0.09,1.14-1.3,3.03-0.27,4.11c-0.45,1.4-1.25,3.52-0.55,4.94    c-1.1,1.28-2.19,2.56-3.29,3.84c-0.09,2.74-0.05,6.17-0.14,8.91c-0.57,1.02-2.42,1.89-2.06,3.15c-1.07,1.73-3.77,6.7-6.31,6.03    c-0.56,0.36-2.75,1.88-2.71,2.19c0.41,2.57,1.21,6.27-0.32,8.51c-0.33,0.48-0.81,1.97-1.39,1.87c-0.65-0.07-1.29,0.11-1.58-0.35    c-0.36-0.55-1.77-1.92-1.69-2.34c-0.46-0.09-0.91-0.18-1.37-0.27c-2.96-0.46-5.52-0.1-8.39,0.45c-0.49-0.43-0.99-0.85-1.48-1.28    c-0.99-0.26-3.2-0.01-3.56-1.37c-1.52,0.05-3.03-0.13-4.45,0.33c-0.67,0.09-1.33,0.18-2,0.27c0,0-0.64,0.71-0.69,1.04    c-0.59,0.13-1.18,0.27-1.77,0.4c-0.55,0.17-0.43-0.01-0.69,0.69c-0.55-0.09-1.1-0.18-1.65-0.27c-0.84,0.66-1.11,1.22-2.24,0.93    c-0.26,0.15-0.52,0.3-0.78,0.45c-0.38-0.48-1.79-2.09-1.92-2.47c-0.91,0.09-1.83,0.18-2.74,0.27c-1.01-0.09-2.01-0.18-3.02-0.27    c-0.37-0.37-0.73-0.73-1.1-1.1c0.72-0.36,2.87-1.37,2.56-2.06c-0.06-0.31-0.12-0.62-0.18-0.93c-1.63,0.43-3.95,1.35-4.74-0.36    c-0.39-0.98-0.36-0.94-0.36-2.09c0.22-0.82,0.44-1.63,0.66-2.45c-0.84-1.02-1.69-2.05-2.53-3.07c-0.12-0.09-0.23-0.19-0.35-0.28    c-0.11,0.44-0.22,0.87-0.33,1.31c-0.53-0.71-1.06-1.42-1.58-2.13c-0.46-0.37-0.91-0.73-1.37-1.1c-0.49-0.84-0.98-1.68-1.47-2.52    c-1.08-0.48-2.6-0.62-3.74,0.05c-0.55,0.55-1.1,1.1-1.65,1.65c-0.63,0.04-0.78-0.06-1.1,0.55c-0.16-0.18-0.32-0.36-0.48-0.54    c-0.82-1.06-2.3-4.25-1.17-5.49c-0.41-1.19-0.94-3.55,0.27-4.39c-0.94-2-1.89-4-2.83-6.01c-0.53-1.52-2.42-3.98-1.01-5.22    c0.09-0.19,0.18-0.38,0.27-0.57c1.71,0.29,1.35-0.28,2.74-0.55c0.22-0.54,0.55-0.81,0.27-1.37c1.26-1.18,2.92-2.39,3.38-4.17    c0.15-1.26,0.3-2.52,0.45-3.78c-0.23-0.59-0.26-1.06-0.82-1.37c-0.18-1.01-0.37-2.01-0.55-3.02c0.23-0.3,0.47-0.6,0.7-0.9    c0.5-0.71,0.99-1.41,1.49-2.12c1.44-1.04,3.27-2.04,2.5-4.22c-0.58-1.8-1-5.44-2.78-6.48c-0.27-1.01-0.55-2.01-0.82-3.02    c-0.17-1.33-1.49-3.03,0.27-3.56c0.93-0.27,5.68-0.8,6.31-0.28c0.06-0.19,0.11-0.39,0.17-0.58c0.23-0.71,0.73-1.5,0.1-2.16    c0.19-0.05,0.38-0.11,0.57-0.16c0.27-0.13,0.53-0.26,0.8-0.39c1.36,0.13,5.21,0.26,6.03,1.37c0.29-0.35,0.58-0.7,0.87-1.05    c0.07-0.2,0.15-0.4,0.22-0.6c1.28-1.2,4.54-4.06,4.66-5.76c0.97-0.77,1.85-1.31,2.7-2.21c0.14-0.82,3.85-4.32,4.7-4.92    c1.1-1.19,2.19-2.38,3.29-3.56c0.81-2.99,1.07-5.99,1.53-9.01c-0.14-1.02-0.29-2.04-0.43-3.06c0.37-1,0.95-2.83,1.92-3.29    c0.09-1.01,0.18-2.01,0.27-3.02c1.74-1.19,3.47-2.38,5.21-3.56c1.46-2.4,2.43-2.69,4.9-3.42c0.74-0.32,1.49-0.65,2.23-0.97    C199.31,40.41,200.4,37.56,202.14,38.63z"/>
            <circle cx="177.26" cy="116.77" r="1.586"/>
        </g>
        <g id="__Geyve">
            <path d="    M181.03,316.28c-0.46,1.08-1.4,3.15-1.17,4.35c-0.53,0.71-1.51,1.61-1.65,2.47c-0.92,0.72-1.85,1.44-2.77,2.17    c-0.91,0.83-1.81,1.66-2.72,2.49c-1.52,2.08-3.07,3.7-4.94,5.48c-1.74,1.67-2.18,5.45-5.19,5.54c-1.83,0.07-3.67,0.14-5.5,0.21    c-3.38-1.19-6.76-2.38-10.15-3.56c-0.99,0-1.98,0.01-2.97,0.01c-0.2-0.09-0.39-0.18-0.59-0.27c-1.45,0.2-2.9,0.4-4.35,0.6    c-0.93-0.02-1.85-0.05-2.78-0.07c-1.64-0.52-4.77-1.27-6.03-2.47c-1.1-0.09-2.19-0.18-3.29-0.27c0.11,0.26,0.22,0.53,0.33,0.79    c1.17,2.75,2.34,5.51,3.5,8.26c0,1.51,0.54,6.29,1.92,7.13c0.11,1.75,0.62,3.1,1.45,4.68c1.44,2.37,2.87,4.74,4.31,7.11    c0.47,0.7,1.9,1.87,1.65,2.74c0.46,0.64,0.91,1.28,1.37,1.92c1.01,0.46,2.01,0.91,3.02,1.37c1.31,0.96,2.61,1.93,3.92,2.9    c0.87,0.5,1.75,1,2.62,1.5c2.44,1.84,4.49,3.77,7.21,5.08c2.38,3.91,1.01,7.36,1.65,11.62c0.3,2,0.96,4.45-0.21,6.19    c-0.03,0.23-0.07,0.45-0.1,0.68c-1.92,1.65-3.84,3.29-5.76,4.94c-1.46,0.91-2.92,1.83-4.39,2.74c-1.2,0.51-4.28,1.44-4.94,2.47    c-1.74,0.46-3.47,0.91-5.21,1.37c-0.91,0.55-1.83,1.1-2.74,1.65c-1.58,0.67-3.95,0.03-4.94,1.65c-3.81,1.11-7.38,2.38-10.92,4.22    c-1.11,0.6-2.23,1.21-3.34,1.81c-1.4,0.37-3.23,0.73-4.39,1.65c-0.95,0.15-2.93,0.11-3.56,0.82c-1.1,0.07-3.28-0.08-3.84,0.82    c-0.91,0.27-1.83,0.55-2.74,0.82c-1.68-0.31-5,0.35-6.03-1.1c-0.94,0.27-1.74,0.62-2.73,0.57c-1.29-0.06-2.34-0.98-3.57-0.3    c-1.17-0.14-2.33-0.29-3.5-0.43c-0.35,0.23-1.18,0.56-1.14,0.94c-0.01,0.38-0.02,0.75-0.03,1.13c2.01,1.34,4.21,4.13,4.67,6.56    c0.18,1.83,0.36,3.67,0.54,5.5c0.38,2.46,0.76,4.91,1.14,7.37c0.9,4.58,1.98,9.12,3.25,13.47c0.64,0.91,1.28,1.83,1.92,2.74    c2.3,2.91,4.74,5.22,7.95,7.13c1.26,0.39,2.51,0.79,3.77,1.18c2.03,1.07,4.07,2.14,6.1,3.2c1.42,1.06,2.87,2.83,4.65,3.27    c1.35,0.46,2.7,0.92,4.05,1.38c2.61,0.37,5.22,0.74,7.82,1.11c1.04,0.22,4.17-0.58,4.86,0.55c1.76-1.06,4.6-0.57,6.58-0.82    c1.46-0.49,2.91-0.98,4.37-1.47c2.47-0.89,5.31-1.47,7.43-3.13c2.1-0.94,4.19-1.87,6.29-2.81c3.11-1.66,6.22-3.32,9.32-4.98    c1.74-0.44,3.48-0.89,5.22-1.33c5.99-1.48,11.93-2.62,18.1-3.02c3.2,0.27,6.4,0.55,9.6,0.82c1.09-0.09,2.19-0.17,3.28-0.26    c2.56,0.19,5.12,0.38,7.68,0.57c0.84-0.05,1.68-0.1,2.52-0.15c0.16-0.33,0.31-0.65,0.47-0.98c-0.09-0.74-0.65-1.81-0.24-2.47    c-0.64-1.37-1.28-2.74-1.92-4.11c-0.64-1.01-1.28-2.01-1.92-3.02c-0.37-0.37-0.73-0.73-1.1-1.1c-1.31-1.8-2.63-3.59-3.94-5.39    c-0.68-2.56-1.88-3.06-1.23-5.85c0.15-0.65,0.14-1.01,0.68-1.46c1.71-1.37,3.41-2.74,5.12-4.1c1.17-0.8,2.41-1.05,2.8-2.44    c0.14-0.17,0.28-0.33,0.42-0.5c0.18-1.92,0.82-4.84-0.27-6.58c-0.02-0.7,0.16-1.37-0.27-1.92c0.27-0.73,0.55-1.46,0.82-2.19    c1.83-1.92,3.66-3.84,5.48-5.76c1.82-1.39,3.63-2.77,5.45-4.16c1.47-1.36,2.95-2.71,4.42-4.07c2.13-1.7,4.26-3.4,6.38-5.1    c1.22-0.88,2.39-1.58,3.21-2.85c1.37-1.09,2.75-2.19,4.12-3.28c2.83-2.58,6.21-4.96,8.49-7.96c0.69-0.66,1.39-1.33,2.08-1.99    c0.42-0.57,1.15-1.12,1.71-1.74c0.56-0.62,0.95-1.32,0.7-2.18c-0.16-0.56-0.31-0.43,0.17-0.94c-1.83-1.28-3.66-2.56-5.48-3.84    c-2.12-2.26-4.23-4.53-6.35-6.79c-1.18-1.58-2.35-3.15-3.53-4.73c-2.94-3.34-5.73-6.9-7.94-10.69c-1.22-1.41-2.44-2.83-3.66-4.24    c-1.52-2.05-3.05-4.09-4.57-6.14c-1.92-2.57-3.83-5.15-5.75-7.72c-2.59-3.34-3.75-7.02-5.16-10.73c-0.61-1.6-0.78-4.1-2.01-5.12    c-3.21-0.83-4.98-3.81-7.91-5c-1.88-0.76-2.9-0.04-4.71,0.44c-0.83,0.22-1.6,0-2.14,0.66c-1.05-0.14-2.3-0.35-3.29,0    c-2.03-0.54-3.85-0.81-5.48,0.82c-2.55,0.22-3.49,0-5.76,1.37C183.21,314.74,181.85,314.38,181.03,316.28z"/>
            <circle cx="171.22" cy="394.53" r="1.586"/>
        </g>
        <g id="__Pamukova">
            <path d="    M70.87,438.13c5.54,0.73,4.91-6.07,5.77-9.59c0.98-4.01,3.85-7.53,8.22-7.69l0.96-0.14c0.01-0.38,0.02-0.75,0.03-1.13    c-0.04-0.38,0.79-0.72,1.14-0.94c1.17,0.14,2.33,0.29,3.5,0.43c1.24-0.68,2.29,0.24,3.57,0.3c0.99,0.05,1.8-0.31,2.73-0.57    c1.04,1.44,4.35,0.78,6.03,1.1c0.91-0.27,1.83-0.55,2.74-0.82c0.56-0.91,2.74-0.75,3.84-0.82c0.63-0.72,2.62-0.67,3.56-0.82    c1.15-0.92,2.99-1.27,4.39-1.65c1.11-0.6,2.23-1.21,3.34-1.81c3.53-1.85,7.11-3.12,10.92-4.22c0.98-1.62,3.35-0.98,4.94-1.65    c0.91-0.55,1.83-1.1,2.74-1.65c1.74-0.46,3.47-0.91,5.21-1.37c0.66-1.03,3.74-1.96,4.94-2.47c1.46-0.91,2.92-1.83,4.39-2.74    c1.92-1.65,3.84-3.29,5.76-4.94c0.03-0.23,0.07-0.45,0.1-0.68c1.17-1.75,0.5-4.2,0.21-6.19c-0.64-4.26,0.73-7.71-1.65-11.62    c-2.71-1.31-4.77-3.24-7.21-5.08c-0.87-0.5-1.75-1-2.62-1.5c-1.31-0.97-2.61-1.93-3.92-2.9c-1.01-0.46-2.01-0.91-3.02-1.37    c-0.46-0.64-0.91-1.28-1.37-1.92c0.25-0.87-1.18-2.04-1.65-2.74c-1.44-2.37-2.87-4.74-4.31-7.11c-0.83-1.58-1.33-2.92-1.45-4.68    c-1.38-0.83-1.92-5.62-1.92-7.13c-1.17-2.75-2.34-5.51-3.5-8.26c-0.11-0.26-0.22-0.53-0.33-0.79l-0.27,0.41    c-2.05,0.49-4.56-0.5-6.85-0.14c-2.47,1.01-4.94,2.01-7.4,3.02c-1.25,0.05-2.5,0.11-3.75,0.16c-0.58-0.05-1.15-0.11-1.73-0.16    c-0.81-0.12-1.62-0.25-2.43-0.37c-0.85,0.1-1.76,0.59-2.42,1.19c-0.39,0.35-0.69,0.75-0.84,1.13c-0.74,2.08-1.23,7.11-3.08,8.16    c-0.73,0.2-1.46,0.39-2.19,0.59c-0.91,0.64-1.83,1.28-2.74,1.92c-0.72-0.22-3.86,0.31-4.39,0.82c-0.64-0.1-1.27-0.21-1.91-0.31    c-1.01,0.01-2.02,0.02-3.02,0.03c-1.6,0.26-5.33,0.72-6.31-0.55c-3.52,1.51-6.76,4.11-10.28,5.62c-3.64,2.92-7.57,4.77-11.21,7.69    c-2.34,1.87-4.68,3.74-7.03,5.6c-1.58,2.08-5.2,3.47-7.41,4.76c-0.71,0.46-1.41,0.93-2.12,1.39c-0.54,0.32-3.49,1.72-2.8,2.33    c1.68,1.53,2.97,3.09,4.4,4.87c0.96,0.17,1.63,1.5,2.17,2.29c0.32,0.99,0.65,1.97,0.97,2.96c0.23,1.02,0.45,2.05,0.68,3.08    c0.55,1.28,1.1,2.56,1.65,3.84c2.04,4.25,4.32,8.6,5.76,13.16c0.73,1.74,1.46,3.47,2.19,5.21c0.37,2.74,0.73,5.48,1.1,8.23    c0.35,1.45-0.37,3.4,0.55,4.66c0.13,1.34,0.32,3.22,1.09,4.36c2.86,4.25,5.43,6.83,10.36,8.4c1.28,0.36,2.56,0.73,3.84,1.09    L70.87,438.13z"/>
            <circle cx="121.8" cy="392.41" r="1.586"/>
        </g>
        <g id="__Sapanca">
            <path d="    M183.43,285.26c-0.66,0.68-2.56,2.04-2.74,2.74c-1.74,1.19-3.47,2.38-5.21,3.56c-1.11,0.26-2.22,0.53-3.32,0.79    c-0.63,0.01-1.26,0.02-1.89,0.03c-1.9,0.84-2.28,3.14-4.56,3.04c-0.54,0.75-0.52,0.41-1.12-0.12c-0.9-0.83-1.79-1.65-2.69-2.48    c-2.59-1.49-5.85-1.96-8.59-2.79c-1.33-0.4-4.54-0.71-5.53,0.42c-0.82-0.05-1.77-0.42-2.47,0c-0.92-0.22-2.48-0.74-3.29-0.27    c-1.89-0.8-3.38-0.95-5.36-1.27c-1.22,0.52-4.12-0.26-5.06-1.2c-1.7-0.43-3.39-0.87-5.09-1.3c-0.74-0.25-2.29-0.72-2.59-1.44    c-1.73,0.05-4.77,0.54-7.18,0.48l0.05,0.34c-0.09-0.18-0.75,3.16,0.82,3.84c0.18,0.64,0.37,1.28,0.55,1.92    c0.81,1,1.62,2,2.43,3.01c-0.43,3.42-1.6,5.6-2.71,8.78c-0.09,0.91-0.18,1.83-0.27,2.74c-0.47,1.35-0.94,2.71-1.41,4.06    c-0.02,0.56-0.05,1.11-0.07,1.67c-0.61,1.38-1.21,2.76-1.82,4.14c-0.55,0.46-1.1,0.91-1.65,1.37c0,1.11,0.55,1.54,0.55,2.47    c-0.54,0.73-1.07,1.47-1.61,2.2c-0.74,0.64-1.49,1.27-2.23,1.91c-0.64,0.91-1.28,1.83-1.92,2.74c-0.18,0.46-0.37,0.91-0.55,1.37    c-1.35,1.36-2.08,3.72-3.56,5.21c-0.31,1.18-1.29,3.83-1.29,3.83c0.66-0.6,1.57-1.08,2.42-1.19c0.81,0.12,1.62,0.25,2.43,0.37    c0.58,0.05,1.15,0.11,1.73,0.16c1.25-0.05,2.5-0.11,3.75-0.16c2.47-1,4.94-2.01,7.4-3.02c2.29-0.36,4.8,0.63,6.85,0.14l0.27-0.41    c1.1,0.09,2.19,0.18,3.29,0.27c1.26,1.2,4.39,1.95,6.03,2.47c0.93,0.02,1.85,0.05,2.78,0.07c1.45-0.2,2.9-0.4,4.35-0.6    c0.2,0.09,0.39,0.18,0.59,0.27c0.99,0,1.98-0.01,2.97-0.01c3.38,1.19,6.76,2.38,10.15,3.56c1.83-0.07,3.67-0.14,5.5-0.21    c3.02-0.1,3.45-3.87,5.19-5.54c1.86-1.79,3.41-3.4,4.94-5.48c0.91-0.83,1.81-1.66,2.72-2.49c0.92-0.72,1.85-1.45,2.77-2.17    c0.14-0.86,1.11-1.76,1.65-2.47c-0.22-1.2,0.71-3.28,1.17-4.35c0.82-1.9,2.18-1.55,3.76-2.5c2.27-1.37,3.2-1.15,5.76-1.37    c1.63-1.63,2.15-0.87,1.78-1.23c0.09-0.64,0.17-1.12,0.41-1.51c1.01-1.65,1.19-3.31,1.04-5.24c-0.35-3.06-3.97-4.81-5.97-6.82    c-0.55-0.91-1.1-1.83-1.65-2.74C185.34,291.75,183.43,285.26,183.43,285.26z"/>
            <circle cx="163.96" cy="296.78" r="1.586"/>
        </g>
        <g id="__Taraklı">
            <path d="    M273.09,382.6c1.13,0.62,2.26,1.24,3.38,1.86c0.27,0.9,3.99,3.99,4.84,3.62c0.98,1.05,1.99,1.9,3.29,2.47    c1.74,1.37,3.47,2.74,5.21,4.11c0.55,0.63,1.33,2.01,2.19,2.19c0.37,0.73,0.73,1.46,1.1,2.19c-0.1,2.95-1.54,5.65-0.3,8.66    c0.1,0.3,0.2,0.6,0.3,0.9l-0.55,0.86c-0.17,0.12-0.35,0.23-0.52,0.35c-1.34,0.64-1.4,2.58-1.4,4.04c-0.63,0.61-1.37,4.5-1.37,5.48    c-0.46,0.64-0.91,1.28-1.37,1.92c-1.39,0.45-2.6,0.77-3.29,2.19c-0.65,1.33-0.27,3.55,0,4.94c-0.84,0.74-0.47,2.03-0.27,3.02    c-0.86,0.83-0.38,2.49-0.27,3.56c-0.63,1.02-0.38,1.93-0.27,3.02c-0.71,0.85-0.58,2.49-0.55,3.56c-0.18,0.46-0.37,0.91-0.55,1.37    c0.3,0.64,0.6,1.27,0.9,1.91c0.89,1.37,1.78,2.75,2.67,4.12c-0.38,0.56,0.06,1.29,0.19,1.94c0.12,1.27,0.24,2.55,0.36,3.82    c0.18,0.46,0.37,0.91,0.55,1.37c0.21,1.45,0.13,2.65,0,4.11c-0.37,1.19-0.73,2.38-1.1,3.56c-1.08,0.95-1.94,1.27-3.29,1.65    c0,0.81-1.79,1.98-2.47,2.47c0.68,0-0.37,1.95-0.82,2.19c-0.25,0.25,1.69,4.19,2.1,5c0.37,0.81,3.31,2.01,4.21,2.4    c0.64-0.18,1.28-0.37,1.92-0.55c0.42,0.61,0.98,0.33,1.65,0.55c2,0.56,4.01,1.11,6.02,1.67c1.5,0.64,1.62,2.63,1.66,4.09    c0.55,0.54,0.56,1.43,0.53,2.19c-0.11,1.54-1.49,2.39-3,2.74c-1.64,0.82-4.14-0.68-5.48-1.37c-0.85,0.37-3.73-0.69-4.7-1.02    c-0.4,0.21-0.79,0.42-1.19,0.63c-0.05,0.86-0.1,1.72-0.15,2.58c-0.69,1.03-0.52,2.67-0.27,3.84c-0.61,0.53-0.57,1.65-0.82,2.47    c-0.15,0.18-0.29,0.35-0.44,0.53c-0.18,0.47-0.74,0.3-1.21,0.29c0.99,0.75,1.98,1.5,2.96,2.25c1.39,0.98,2.78,1.97,4.16,2.96    c0.85,1.94,0.99,3.39,1.49,5.44c0.26,1.02,0.92,1.08,1.8,1.69c0.49,0.36,0.42,0.53,0.47,1.1c0.08,0.86-0.16,0.83-0.65,1.5    c-0.67-0.78-1.34-1.56-2-2.34c-1.82-1.63-4.35-2.54-6.59-3.55c-1.56-0.27-3.11-0.53-4.67-0.8c-0.91-0.1-1.82-0.2-2.73-0.3    c-1.16,0.07-2.33,0.14-3.49,0.21c-1.63-0.38-3.73-1.76-4.69-3.08c-2.67-1.7-5.34-3.39-8-5.09c-3.94-0.8-7.89-1.59-11.83-2.39    c-1.06-0.35-0.48-4.02-0.23-5.01c0.91-5.03,1.82-10.06,2.73-15.09c0.04-1.27-3.15-5.02-4.04-6.14c-3.15-3.94-5.78-5.24-10.21-7.57    c-0.81,0.34-2.23-0.46-3.08-0.75c-2.65-0.53-5.3-1.06-7.95-1.59c-2.08,0.01-4.17,0.01-6.26,0.02l-0.77,0.02    c0.16-0.33,0.31-0.65,0.47-0.98c-0.09-0.74-0.65-1.81-0.24-2.47c-0.64-1.37-1.28-2.74-1.92-4.11c-0.64-1.01-1.28-2.01-1.92-3.02    c-0.37-0.37-0.73-0.73-1.1-1.1c-1.31-1.8-2.63-3.59-3.94-5.39c-0.68-2.56-1.88-3.06-1.23-5.85c0.15-0.65,0.14-1.01,0.68-1.46    c1.71-1.37,3.41-2.74,5.12-4.1c1.17-0.8,2.41-1.05,2.8-2.44c0.14-0.17,0.28-0.33,0.42-0.5c0.18-1.92,0.82-4.84-0.27-6.58    c-0.02-0.7,0.16-1.37-0.27-1.92c0.27-0.73,0.55-1.46,0.82-2.19c1.83-1.92,3.66-3.84,5.48-5.76c1.82-1.39,3.63-2.77,5.45-4.16    c1.47-1.36,2.95-2.71,4.42-4.07c2.13-1.7,4.26-3.4,6.38-5.1c1.22-0.88,2.39-1.58,3.21-2.85c1.37-1.09,2.75-2.19,4.12-3.28    c2.83-2.58,6.21-4.96,8.49-7.96c0.69-0.66,1.39-1.33,2.08-1.99c1.36-1.83,3.12-3.08,5.46-2.99c2.09,0.07,3.77,1.69,5.51,2.63    C268.9,381.05,271.16,381.54,273.09,382.6z"/>
            <circle cx="252.39" cy="451.98" r="1.586"/>
        </g>
        <g id="__Karapürçek">
            <path d="    M262.12,294.31c1.42,1.11,3.15,1.94,4.03,3.59c0.39,1.73,0.79,3.46,1.18,5.18c0.63,2.15,4.2,5.09,6.02,3.83    c0.65-0.45,1.13-1.29,1.93-1.36c0.11-0.84,0.23-3.18,1.37-3.29c0.05-1.05,0.1-2.09,0.15-3.14c0.98-0.49,1.97-0.99,2.96-1.48    c1.16,0.53,2.32,1.07,3.48,1.6c1.36,0.09,1.98,0.12,3.09,1c0.59-0.22,0.38-0.32,0.67,0.13c0.3,0.35,0.6,0.71,0.9,1.06    c0.29,1.47,0.29,5.45-0.55,6.58c-0.28,2.39-0.57,4.63-1.26,6.99c-0.49,1.05-0.99,2.1-1.48,3.15c-0.37,0.46-0.73,0.91-1.1,1.37    c-0.64,0.46-1.28,0.91-1.92,1.37c-0.37,0.37-0.73,0.73-1.1,1.1c-0.6,1.08-1.47,3.69-2.19,4.11c0.41,0.5,0.83,1,1.24,1.5    c0.64,0.54,1.28,1.08,1.92,1.62c0.41,0.51,0.82,1.03,1.23,1.54c0.15,1.12,1.43,3.2,0.82,4.11c1.8,2.5,3.6,4.99,5.41,7.49    c1.43,1.52,4.05,2.55,3.87,4.75c0.19,0.15,0.38,0.3,0.57,0.45c-1.29,2.21-2.96,4.71-4.82,6.51c-0.85,1.1-1.71,2.19-2.56,3.29    c-1.66,1.63-3.32,3.25-4.98,4.88c-2.1,2.11-4.19,4.22-6.29,6.33c-1,0.83-1.99,1.67-2.99,2.5c-1.39,0.49-3.56,1.89-4.11,3.29    c-0.92,0.91-1.85,1.82-2.77,2.73c-0.03,0.5-0.06,0.99-0.09,1.49c0,0-1.23-1.18-3.32-1.25c-2.33-0.08-3.75,1.25-3.75,1.25    c0.56-0.62,0.95-1.32,0.7-2.18c-0.16-0.56-0.31-0.43,0.17-0.94c-1.83-1.28-3.66-2.56-5.48-3.84c-2.12-2.26-4.23-4.53-6.35-6.79    c-1.18-1.58-2.35-3.15-3.53-4.73c-2.94-3.34-5.73-6.9-7.94-10.69c-1.22-1.41-2.44-2.83-3.66-4.24c-1.48-1.99-2.96-3.97-4.44-5.96    l0.97-0.23c1.58-0.79,2.4-1.4,3.56-2.73c0.89-0.18,1.71-1.11,2.42-1.69c2.36-1.93,3.82-2.96,5.54-5.72    c0.13-1.17,0.25-2.35,0.38-3.52c1.02-1.54,2.03-3.07,3.05-4.61c2.33-2.33,4.66-4.65,6.98-6.98c0.92-1.82,1.83-3.64,2.75-5.46    c1.98-2.46,3.96-4.93,5.94-7.4c1-2.21,2-4.43,3-6.64L262.12,294.31z"/>
            <circle cx="269.66" cy="321.46" r="1.586"/>
        </g>
        <g id="__Erenler">
            <path d="    M225.38,282.25c-0.2,0.19-1.27,0.2-1.58,0.2c-1.1,0.01-2.16-0.51-2.27-1.65c-0.12-1.29,0.26-2,1.11-2.81    c1.22-1.17,2.94-1.47,3.35-3.35c0.24-1.09-0.3-1.3-1.24-1.79c-0.31-0.16-0.68-0.29-0.95-0.52c-0.37-0.32-0.28-0.77-0.52-1.04    c-0.53-0.6-1.94,0.22-2.64,0.26c-2.23,0.14-4.19,1.03-6.38,1.03c-1.1,0-2.18,0.17-3.22,0.27c-0.56,0.05-1.11,0.09-1.64,0.14    c-0.52,0.05-1.16,0.22-1.65,0.2c0.24-0.47,0.85-1.93,1.1-2.4c0.12-0.9-0.27-2.06-0.13-2.78c0.1-0.47,1.43-0.72,2.39-1.13    c0.19-0.45,0.38-0.9,0.57-1.35c-0.13-2.29,1.04-4.55,1.08-6.87c0.09-0.55,0.18-1.1,0.27-1.65c0.1-0.01,0.21-0.02,0.31-0.03    c1.63-0.17,3.27-0.35,4.9-0.52c1.55,0.47-0.17,2.28,1.92,1.99c0.43-0.12,2.04-0.29,2.47-0.41l0.55-0.14    c0.05,0.88-0.65,1.94,0.14,2.6c0.89,0.75,0.75,2.74,1.03,4.39c0,0.68,1.29,1.36,1.82,1.58c0.42-0.63,1.15-1.34,1.2-2.13    c0.07-1.11-0.03-1.85-0.77-2.67c-0.6-0.66-1.42-0.92-2.04-1.56c-0.57-0.58-0.47-1.21-0.34-1.94c0.14-0.79,0.63-1.09,1.15-1.73    c0.85-1.06,1.54-2.41,2.9-2.89c1.07-0.38,2.93-0.58,3.98-0.09c1.78-0.98,3.55-0.77,5.43-1.26c1.21-0.32,5.69-1.5,6.63-0.93    c1.88-0.87,2.58-0.77,4.59-0.84c1.1,0.94,2.73,0.55,4.03,0.93c1.75,0.52,3.58,1.23,5.5,1.64c1.37,0.78,5.12,1.6,6.63,1.87    l1.14,0.05c-0.88,4.16-1.54,7.54-2.42,11.7c-0.2,0.04-0.41,0.07-0.61,0.11c-0.53,1.24-1.06,2.48-1.58,3.73    c0.37,3.47,0.74,6.95,1.11,10.42c0,1.93-1.2,3.04-1.38,4.65c-0.16,1.42,0.67,5.07-0.01,6.04c0.27,0.91,0.55,1.83,0.82,2.74    l-0.39-0.05c-1,2.21-2,4.43-3,6.64c-1.98,2.46-3.96,4.93-5.94,7.4c-0.92,1.82-1.83,3.64-2.75,5.46c-2.33,2.32-4.66,4.65-6.98,6.98    c-1.02,1.54-2.03,3.07-3.05,4.61c-0.13,1.17-0.25,2.35-0.38,3.52c-1.72,2.75-3.17,3.78-5.54,5.72c-0.71,0.58-1.52,1.51-2.42,1.69    c-1.16,1.32-1.99,1.94-3.56,2.73l-0.97,0.23l-0.13-0.18c-1.92-2.57-3.83-5.15-5.75-7.72c-2.59-3.34-3.75-7.02-5.16-10.73    c-0.15-0.41-0.28-0.87-0.4-1.35l0.35,0.01c0-0.85,1.32-1.25,1.93-1.65c1.73-1.37,3.47-2.74,5.2-4.1    c-0.38-0.83,1.08-5.03,1.65-6.03c-0.68-0.87,0.43-3.61,0.82-4.66c-0.01-0.46-0.02-0.92-0.03-1.38c0.06-1.55,0.95-2.74,1.67-4.1    c-0.28-0.56,0.12-1.32,0.27-1.92c-0.47-1.26,0.25-3,0.58-4.19c-0.01-1.71-0.02-3.42-0.03-5.13c-0.01-1.03,0.8-2.29,1.2-3.21    c0.12-0.28,0.22-0.5,0.32-0.69L225.38,282.25z"/>
            <circle cx="238.95" cy="270.05" r="1.586"/>
        </g>
        <g id="__Ferizli">
            <path d="    M281.31,110.05c0.76,2.76,2.15,5.02,3.84,7.4c0.27,0.55,0.55,1.1,0.82,1.65c0.13,1.01,0.68,2.82,1.65,3.29    c0.36,1.01,0.73,2.01,1.09,3.02c0.55,1.19,1.1,2.38,1.65,3.56c0.44,0.9,1.33,1.17,1.95,1.84c0.39,0.61,0.78,1.21,1.17,1.82    c-0.45,0.27-0.48,0.15-0.66,0.73c-1-0.09-1.88-0.45-2.74,0.27c-1.37-0.37-2.74-0.73-4.11-1.1c-0.91-0.64-1.83-1.28-2.74-1.92    c-1.21-0.93-1.88-2.78-3.55-2.78c-0.76,0.02-1.55,0.22-1.94,0.86c-1.89-0.18-2.18-0.29-3.86,0.7c-0.17-0.05-0.35-0.1-0.52-0.15    c-0.02,0.09-0.03,0.18-0.05,0.27c-0.22,1.31-1.62,5.14-0.5,5.77c-0.09,1.46-0.15,3.3,0.76,4.42c0.52,0.64,1.12,2.11,1.98,2.16    c0.37,0.88,1.75,3.67,2.47,4.11c0,0.46,0,0.91,0,1.37c0.71,1.2,2.73,5.24,3.5,5.66c1.05,0.5,4.81,0.39,5.45,1.51    c0.3,0.44,0.59,0.88,0.89,1.32c0.01,0.46,0.02,0.92,0.03,1.38c-0.37,0.83-1.31,2.1-1.1,3.02c-0.5,0.25-1.01,0.49-1.51,0.74    c-1.33,2.5-2.65,4.99-3.98,7.49c-0.46,1.04-1.62,1.55-1.65,2.74c-0.91,0.64-1.83,1.28-2.74,1.92c-1.87,1.19-8.05,1.53-10.4,1.65    c-0.73,0.13-1.47,0.25-2.2,0.38c-1.19-0.03-2.38-0.07-3.57-0.1c-0.66,0-1.67,0.34-2.19,0c-0.65,0.62-1.3,1.25-1.95,1.87    c-2.18,0.27-2.92-2.02-4.67-3.18c-0.66-0.44-1.51-0.63-1.6-1.43c-0.05,0.05-0.1,0.09-0.15,0.14c-0.71,0.71-1.25,2.6-1.79,2.64    c-0.36-0.01-0.71-0.02-1.07-0.03c0-0.46,0-0.91,0-1.37c-2.41-0.23-3.64-2.23-5.53-3.8c-0.63-0.52-1.71-0.9-1.88-1.69    c-1.12-0.14-1.33,0.22-1.69-0.9c-0.22-0.9-0.1-2.29-0.78-2.94c0.37-0.55,0.73-1.1,1.1-1.65c-0.18-0.14-0.36-0.29-0.54-0.43    c-0.44-0.28-0.32-0.08-0.28-0.67c-0.81-0.15-2.16-0.67-2.74,0c-0.55-0.27-1.1-0.55-1.65-0.82c-0.31-0.33-0.61-0.65-0.92-0.98    c-0.24-0.59-0.49-1.18-0.73-1.77c0.91-0.42,2.15-0.69,2.45-1.48c0.26-0.82-0.25-1.36-0.44-2.32c-0.38-1.92-1.17-3.39-1.24-5.48    c-0.07-0.56-0.15-1.12-0.22-1.68c-0.19-0.49-0.46-0.87-0.27-1.37c-0.59-0.67-1.22-1.83-2.19-1.92c-0.46-0.83-2.2-3.67-1.92-4.39    c-0.19,0-0.38,0-0.57,0c-1.51,0.1-3.95,2.55-4.64,2.33c-0.24-0.13-1.55,0.27-1.78,0.14v-0.14c0.09-2.74,0.05-6.17,0.14-8.91    c1.1-1.28,2.19-2.56,3.29-3.84c-0.71-1.41,0.1-3.53,0.55-4.94c-1.03-1.09,0.19-2.97,0.27-4.11c0.13-0.75,0.26-1.5,0.39-2.25    c-0.22-0.8-0.44-1.61-0.66-2.41c0.55-1.46,1.1-2.92,1.65-4.39c0.17-0.14,0.33-0.28,0.5-0.42c0.69-1.2,2.68-1.36,4.16-1.5    c0.46,0.09,0.91,0.18,1.37,0.27c1.78-0.29,3.29-0.41,4.66-1.65c1.55-1.37,3.11-2.74,4.66-4.11c1.42-1.46,2.34-3.86,3.02-5.76    c-0.29-0.44,0.6-1.41,0.69-1.92l0.38-0.02c0.68,0.01,2.01,0.32,2.5,0.84c1.55,0.09,3.11,0.18,4.66,0.27    c1.25-0.33,5.67-1.29,6.03-2.47c0.46,0.09,0.91,0.18,1.37,0.27c1.29-0.4,3.06-1.11,4.39-0.82c2.19,0.47,3.75,2.11,5.48,3.29    c0.46,0.18,0.91,0.37,1.37,0.55c1.97,1.1,5.56,3.75,6.03,6.03c-0.51,0.32-2.79,1.53-2.13,1.77c0.64,0.09,1.28,0.17,1.92,0.26    l-0.2-0.03c0.54,0.17,1,0.35,1.06,0.58c0.32,0.32-0.38,0.73-0.65,0.99c-1.28,0-1.91,1.6-2.27,2.77c-0.55,1.41,1.94-0.26,2.19,0.55    c-0.25,0.54-0.49,1.08-0.74,1.62c0.45,0.93-0.38,1.6-0.55,2.47c-0.05,0.87-0.08,1.27,0.85,1.52c1.06,0.25,1.77-0.96,2.35-1.64    c1.07-1.25,1.53-2.63,1.87-4.13L281.31,110.05z"/>
            <circle cx="250.6" cy="165.85" r="1.586"/>
        </g>
        <g id="__Karasu">
            <path d="M389.12,98.17c-0.18-0.07-0.37-0.15-0.55-0.22    c-2.66-1.09-7.2-0.16-9.22-2.31c-1.18-1.35-1.52-2.9-2.24-4.55c-0.15-0.35-0.91-1.68-0.39-1.53l-0.11-0.07    c-0.23,0.73-5.58-0.39-6.72-0.55c-2.27-0.32-4.2-0.6-6.58-0.69c-2.2-0.08-4.93-0.03-6.89-0.93c-1.81-0.83-3.52-2.26-5.17-3.19    c-3.72-2.09-7.42-3.83-11.38-5.75c-2.61-1.27-3.36-2.13-5.62-2.71c-2.13-0.55-3.77-2.15-5.63-3.18c-3.37-1.87-4.98-3.5-8.77-4.39    c-2.09-0.49-6.21-2.64-8.36-2.85c-2.28-0.23-4.62-0.19-6.85-0.55c-4.72-0.76-9.55-0.96-14.26-1.67c-2.19-0.33-4.48-0.43-6.58-1.1    c-2.13-0.68-4.33-1.29-6.58-1.38c-2.49-0.1-4.36-0.36-6.72-0.95c-2.08-0.52-4.23-0.66-6.31-1.13c-4.05-0.91-8.37-2.4-12.48-2.99    c-2.28-0.33-4.43-1-6.62-1.62c-0.97-0.27-2-0.31-2.99-0.46c-0.96-0.15-2.26-0.89-3.15-0.91c-2.63-0.07-2.77,3.83-3.83,5.46    c-1.33,2.03-2.52,2.97-3.85,5c-0.56,0.86-0.4,2.54-0.68,4.04c-0.14,1.9-0.28,3.79-0.42,5.69c1.3,1.92,3.29,3.18,5.1,4.7    c1,0.65,2,1.3,3,1.95c0.73,0.73,1.46,1.46,2.19,2.19c0.64,3.19,1.23,5.64,3.29,8.23c0.37,0.64,0.73,1.28,1.1,1.92    c0.32,1.15,1.1,3.29,0.69,4.11l0.38-0.02c0.68,0.01,2.01,0.32,2.5,0.84c1.55,0.09,3.11,0.18,4.66,0.27    c1.25-0.33,5.67-1.29,6.03-2.47c0.46,0.09,0.91,0.18,1.37,0.27c1.29-0.4,3.06-1.11,4.39-0.82c2.19,0.47,3.75,2.11,5.48,3.29    c0.46,0.18,0.91,0.37,1.37,0.55c1.88,1.05,5.24,3.51,5.95,5.72c0.19-0.27,0.39-0.6,0.63-1.06c0.22,0.1,0.43,0.19,0.65,0.29    c1.98,1.01,1.68,0.64,3.46-0.29c0.62,0.62,0.33,1.81,0.82,0.81c0.19-0.41,0.16-0.64,0.54-0.31c0.28,0.38,0.55,0.76,0.83,1.14    c0.72,0.41,1.45,0.83,2.17,1.24c-0.25,1.2,0.69,0.95-0.44,1.78c-0.58,0.36-1.15,0.73-1.73,1.09c-0.41-0.14-1.72-0.8-2.03-0.4    c-0.26,0.38-0.24,0.59-0.71,0.68c-0.14,0.71-0.27,1.4-0.42,2.06c0.78,2.57,2.11,4.72,3.71,6.98c0.27,0.55,0.55,1.1,0.82,1.65    c0.13,1.01,0.68,2.82,1.65,3.29c0.36,1.01,0.73,2.01,1.09,3.02c0.55,1.19,1.1,2.38,1.65,3.56c0.44,0.9,1.33,1.17,1.95,1.84    c0.39,0.61,0.78,1.21,1.17,1.82c-0.45,0.27-0.48,0.15-0.66,0.73c-1-0.09-1.88-0.45-2.74,0.27c-1.37-0.37-2.74-0.73-4.11-1.1    c-0.91-0.64-1.83-1.28-2.74-1.92c-1.21-0.93-1.88-2.78-3.55-2.78c-0.76,0.02-1.55,0.22-1.94,0.86c-1.89-0.18-2.18-0.29-3.86,0.7    c-0.17-0.05-0.35-0.1-0.52-0.15c-0.02,0.09-0.03,0.18-0.05,0.27c-0.22,1.31-1.62,5.14-0.5,5.77c-0.09,1.46-0.15,3.3,0.76,4.42    c0.52,0.64,1.12,2.11,1.98,2.16c0.37,0.88,1.75,3.67,2.47,4.11c0,0.46,0,0.91,0,1.37c0.71,1.2,2.73,5.24,3.5,5.66    c1.05,0.5,4.81,0.39,5.45,1.51c0.3,0.44,0.59,0.88,0.89,1.32c0.01,0.46,0.02,0.92,0.03,1.38l0.53-0.61    c0.75-0.33,1.51-0.66,2.26-0.99c1.29-0.13,2.59-0.26,3.88-0.39c2.79-0.16,6.04,1.51,8.13,3.08c0.65-0.01,1.29-0.03,1.94-0.04    c1.04-0.07,4.38-0.18,5.25,0.18c1.89-0.27,3.57-0.01,5.42,0.41c0.94-0.71,1.76,0.18,2.74,0.27c1.83,0.55,3.66,1.1,5.48,1.65    c2.33,0,4.49-0.17,6.31,0c0.34,0.82,3.44,1.28,4.4,1.34c3.28,0.65,6.57,1.3,9.85,1.95c0.5,0.65,2.42,0.99,3.27,1.17    c1.55,0.32,4.1,0.73,5.23,1.85c0.18-0.02,1.06,0.07,1.52,0.09c2.39-6.53,3.41-14.9,3.41-22.03c0.27-1.65,0.55-3.29,0.82-4.94    c1.83-2.47,3.66-4.94,5.48-7.4c0.38-0.59,0.5-3.71,0.27-4.39c1.41-2.26,2.4-4.43,3.5-6.87c1.71-1.29,3.54-1.97,5.5-2.84    c1.21-0.6,2.41-1.21,3.62-1.81c1.18-0.31,3.05-0.88,4.11,0c0.64-0.27,1.28-0.55,1.92-0.82c1.43-1.62,4.62-4.82,3.56-7.13    c0.82-1.46,1.65-2.92,2.47-4.39c0.04-0.46,0.08-0.92,0.12-1.38C389.16,102.48,389.37,98.27,389.12,98.17z"/>
            <circle cx="331.63" cy="83.59" r="1.586"/>
        </g>
        <g id="__Söğütlü">
            <path d="    M207.94,163.67c1.07,1.5,2.99,5.05,0.46,5.47c-0.74,0.14-1.48,0.27-2.22,0.41c-0.8,0.88-1.59,0.95-2.47,1.65    c-1.43-0.23-3.14-0.41-3.59,1.17c-0.55,2.29,0.73,2.52,1.95,4.04c0.18,0.55,0.37,1.1,0.55,1.65c0.73,0.55,1.46,1.1,2.19,1.65    c0.34,0.62,0.83,0.91,0.82,1.65c0.09-0.01,0.18-0.01,0.27-0.02c1.28-0.18,2.56-0.35,3.85-0.53c0.73,0.64,1.46,1.28,2.19,1.92    c1.01,0.09,2.01,0.18,3.02,0.27c1.22,2.11,0.89,2.1,3.29,3.02c0.63,0.83,1.27,1.67,1.9,2.5c0.37,0.08,0.74,0.16,1.11,0.24    c1.27-0.58,3.28-2.19,4.64-1.86c1.11,0.28,2.47,1.08,2.64,2.15c0.04,0.63,0.09,1.27,0.13,1.9c-1.3,1.63-3.86,4.73-2.63,7.07    c0.81,1.37,1.62,2.75,2.42,4.12c0.21,0.64,0.54,1.47,0.75,2.11c-0.94,0.82-1.99,1.46-2.93,2.28c0.53,1.18,0.85,3.12,1.87,3.83    c1.11,0.7,2.01,0.78,3.18,1.26c0.67,0.42,1.33,0.85,2,1.27c0.46,0.09,0.91,0.18,1.37,0.27c0.91-0.09,1.83-0.18,2.74-0.27    c0.31-1.02,0.28-1.78,1.39-2.13c0.71-0.22,1.84-0.05,2.18-0.88c0.08,0.03,0.16,0.06,0.24,0.09c1.12,0.4,2.57,0.86,2.76,1.6    c0.08,0.43,0.73,0.25,0.45,0.69c-0.7,0.86-1.39,1.73-2.09,2.59c1.42,0.13,2.83,0.26,4.25,0.39c0.67-0.81,1-0.39,0.89-1.5    c0.12-1.28,0.24-2.56,0.36-3.85c-0.18-0.46-0.37-0.91-0.55-1.37c-0.02-0.4,0.16-1.35,0.53-1.42c0.73-0.15,1.23-0.38,1.96-0.11    c0.88,0.29,1.44,0.29,2.17,0.99c0.46,0.09,0.91,0.18,1.37,0.27c0.64,0.74,1.27,1.47,1.91,2.21c0.37,0.09,0.74,0.17,1.11,0.26    c0.83-0.49,1.88-1.33,2.74-0.55c0.49-0.19,0.98-0.38,1.47-0.57c0.81-0.08,1.51,0.02,1.82-0.8c1.05,0.52,2.09,1.04,3.14,1.56    c2.88-1.57,4.42-4.66,7.02-6.47c1.55-0.65,3.1-1.3,4.65-1.95c1.51,0.17,7.08-0.1,7.93-1.12c0.37-0.36,0.75-0.71,1.12-1.07    c0.18-0.82,0.37-1.65,0.55-2.47c0.37-0.37,0.73-0.73,1.1-1.1c0.4-0.64,1.31-2.1,1.37-2.74c1.21-1.37,1.93-2.52,2.06-4.37    c-0.93-1.86-0.02-2.43-2.06-3.86c0.07-0.91-1.17-1.56-1.1-2.47c-0.14-0.96,0.41-0.69,0.55-1.92c0.19-0.27,0.37-0.54,0.56-0.81    c0.79-1.1,3.17-2.05,3.38-3.32c0.17-1.21-0.04-4.45-1.75-4.64c-0.24-1.89-0.65-3.52-0.52-5.45c-0.4-0.41-0.42-1.23-0.03-1.68    c-0.27-0.55-0.55-1.1-0.82-1.65c-1.05,0.47-1.43-0.91-2.19-1.65c-0.08-0.03-0.55-1.37-0.55-1.37c-0.5,0.25-1.01,0.49-1.51,0.74    c-1.33,2.5-2.65,4.99-3.98,7.49c-0.46,1.04-1.62,1.55-1.65,2.74c-0.91,0.64-1.83,1.28-2.74,1.92c-1.87,1.19-8.05,1.53-10.4,1.65    c-0.73,0.13-1.47,0.25-2.2,0.38c-1.19-0.03-2.38-0.07-3.57-0.1c-0.66,0-1.67,0.34-2.19,0c-0.65,0.62-1.3,1.25-1.95,1.87    c-2.18,0.27-2.92-2.02-4.67-3.18c-0.66-0.44-1.51-0.63-1.6-1.43c-0.05,0.05-0.1,0.09-0.15,0.14c-0.71,0.71-1.25,2.6-1.79,2.64    c-0.36-0.01-0.71-0.02-1.07-0.03c0-0.46,0-0.91,0-1.37c-2.41-0.23-3.64-2.23-5.53-3.8c-0.63-0.52-1.71-0.9-1.88-1.69    c-1.12-0.14-1.33,0.22-1.69-0.9c-0.22-0.9-0.1-2.29-0.78-2.94c0.37-0.55,0.73-1.1,1.1-1.65c-0.18-0.14-0.36-0.29-0.54-0.43    c-0.44-0.28-0.32-0.08-0.28-0.67c-0.81-0.15-2.16-0.67-2.74,0c-0.55-0.27-1.1-0.55-1.65-0.82c-0.31-0.33-0.61-0.65-0.92-0.98    c-0.24-0.59-0.49-1.18-0.73-1.77c0.91-0.42,2.15-0.69,2.45-1.48c0.26-0.82-0.25-1.36-0.44-2.32c-0.38-1.92-1.17-3.39-1.24-5.48    c-0.07-0.56-0.15-1.12-0.22-1.68c-0.19-0.49-0.46-0.87-0.27-1.37c-0.59-0.67-1.22-1.83-2.19-1.92c-0.46-0.83-2.2-3.67-1.92-4.39    c-0.19,0-0.38,0-0.57,0c-1.51,0.1-3.95,2.55-4.64,2.33c-0.24-0.13-1.55,0.27-1.78,0.14v-0.14c-0.57,1.02-2.42,1.89-2.06,3.15    c-1.07,1.73-3.77,6.7-6.31,6.03c-0.56,0.36-2.75,1.88-2.71,2.19c0.41,2.57,1.21,6.27-0.32,8.51c-0.33,0.48-0.81,1.97-1.39,1.87    L207.94,163.67z"/>
            <circle cx="245.6" cy="184.43" r="1.586"/>
        </g>
        <g id="__Adapazarı">
            <path d="    M224.35,264.9c-0.27-1.65-0.14-3.63-1.03-4.39c-0.79-0.67-0.09-1.73-0.14-2.6l-0.55,0.14c-0.43,0.12-2.04,0.29-2.47,0.41    c-2.09,0.29-0.37-1.52-1.92-1.99c-1.63,0.17-3.27,0.35-4.9,0.52c-0.1,0.01-0.21,0.02-0.31,0.03c-0.09,0.55-0.18,1.1-0.27,1.65    c-0.04,2.32-1.21,4.59-1.08,6.87c-0.19,0.45-0.38,0.9-0.57,1.35c-0.96,0.41-2.29,0.66-2.39,1.13c-0.15,0.72,0.25,1.87,0.13,2.78    c-0.24,0.47-0.85,1.93-1.1,2.4c-1.2,0.22-2.09-0.09-3.29,0.14c-0.11,0.04-0.64-0.45-0.75-0.41c0-0.64-0.01-1.29-0.01-1.93    c0.03-1.77,0.12-3.09,1.11-4.65c-0.11-0.19-0.22-0.38-0.33-0.57c0.22-2.41-2.34-2.33-2.82-4.12c-0.05-0.26-0.1-0.53-0.15-0.79    c0.77,1.18,1.85,0.36,2.96,0.08c0.11-0.03,0.22-0.05,0.33-0.08c-0.6-0.64,0.35-3.07,0.55-4.11c1.06-0.36,1.62-1.58,2.19-2.47    c-0.07-0.21-0.14-0.42-0.21-0.63c0.07-0.34,0.14-0.67,0.21-1.01c-1.15-0.07-3.45-4.99-3.84-6.31c-1.39-3.83-2.78-7.65-4.16-11.48    c-1.17-2.11-2.34-4.23-3.51-6.34c-0.71-2.52-2.85-5.8-4.55-7.81c-0.36-0.39-1.53,0.4-2.27,0.99c-1.25,1-2.31,1.98-3.32,3.25    c0.47,0.92-0.29,1.42-0.73,2.06c-0.58,0.14-1.16,0.27-1.74,0.41c-0.76,1.04-2.92,0.95-4.11,1.1c-0.46,0.18-0.91,0.37-1.37,0.55    c-1.16,1.42-2.84,0.92-4.39,0.82c-1.84,0.39-3.69,0.78-5.53,1.17c-1.97,0.37-2.03,3.37-2.42,5.13c-0.57,0.2-0.72,0.63-1.1,1.1    c0.38-0.91-0.64-4.22-1.1-5.21c-0.31-0.23-0.63-0.46-0.94-0.69c-0.51,0.14-1.02,0.28-1.53,0.42c0.14,2.05-4.16,2.82-5.72,3.2    c-1.99,0.54-2.11-1.52-2.44-2.9c-0.27-1.16,1.49-3.35,1.85-4.69c-0.99-1.21-0.51-3.77-0.27-5.21c-1.04-0.95-0.23-3.64,0.65-5.58    c0.36-0.79,0.73-1.46,0.99-1.83c0.18-0.64,0.37-1.28,0.55-1.92c0.18-1.46,0.37-2.92,0.55-4.39c0.67-0.58,2.21-4.28,2.19-5.21    c-0.05-2.65-1.61-3.94-1.92-6.31c-0.12-0.92,0.41-1.77,0.27-2.74c-0.64-0.91-1.28-1.83-1.92-2.74c-1.35-1.8-5.44-2.29-7.58-2.6    c-2.13-0.37,0.44-4.54,1.27-5.36c0.69-0.28,1.39-0.55,2.08-0.83c0.41-0.18,0.81-0.35,1.22-0.53c1.1-0.09,2.19-0.18,3.29-0.27    c0.73,0.18,1.46,0.37,2.19,0.55c0.73,0.37,1.46,0.73,2.19,1.1c0.29,2.49,4.83,5.15,7.14,5.69c0.09,0.02,0.18,0.05,0.27,0.07    c-0.11-0.77,0.06-0.66,0.55-1.1c-0.16-0.55-0.11-1.24,0.25-1.68c0-1.35-0.04-3.11,1.35-3.65c0.29-0.14,0.58-0.29,0.87-0.43    c-0.11-0.19-0.22-0.37-0.33-0.56c0.1-1.65-1.16-1.7-2.42-1.91c-0.13-0.87-0.53-0.8-1.1-1.37c0.19-0.52-0.1-0.87-0.27-1.37    c-0.74-0.01-1.28-0.57-1.53-1.28c-0.28-0.11-0.56-0.22-0.84-0.33c0.13-0.57,0.27-1.13,0.4-1.7c0.21-1.32,3.03-2.58,4.16-3.01    c0-0.54,0.77-0.91,1.19-1.24c0.6-0.43-0.63-0.99-0.92-1.23c-0.55-0.27-1.1-0.55-1.65-0.82c-0.55-0.37-1.1-0.73-1.65-1.1    c-0.23-0.32-0.47-0.65-0.7-0.97c0.14-0.39,0.28-0.78,0.42-1.17c0.44-1.64,0.62-2.59,1.94-3.91l0.54-0.81    c1,0.09,2.01,0.18,3.02,0.27c0.91-0.09,1.83-0.18,2.74-0.27c0.13,0.38,1.54,1.99,1.92,2.47c0.26-0.15,0.52-0.3,0.78-0.45    c1.12,0.3,1.4-0.26,2.24-0.93c0.55,0.09,1.1,0.18,1.65,0.27c0.26-0.7,0.14-0.52,0.69-0.69c0.59-0.13,1.18-0.27,1.77-0.4    c0.05-0.33,0.69-1.04,0.69-1.04c0.67-0.09,1.33-0.18,2-0.27c1.41-0.46,2.92-0.28,4.45-0.33c0.36,1.36,2.57,1.11,3.56,1.37    c0.49,0.43,0.99,0.85,1.48,1.28c2.86-0.55,5.43-0.92,8.39-0.45c0.46,0.09,0.91,0.18,1.37,0.27c-0.08,0.42,1.33,1.79,1.69,2.34    c0.29,0.46,0.93,0.28,1.58,0.35l-0.14,0.21c1.07,1.5,2.99,5.05,0.46,5.47c-0.74,0.14-1.48,0.27-2.22,0.41    c-0.8,0.88-1.59,0.95-2.47,1.65c-1.43-0.23-3.14-0.41-3.59,1.17c-0.55,2.29,0.73,2.52,1.95,4.04c0.18,0.55,0.37,1.1,0.55,1.65    c0.73,0.55,1.46,1.1,2.19,1.65c0.34,0.62,0.83,0.91,0.82,1.65c0.09-0.01,0.18-0.01,0.27-0.02c1.28-0.18,2.56-0.35,3.85-0.53    c0.73,0.64,1.46,1.28,2.19,1.92c1.01,0.09,2.01,0.18,3.02,0.27c1.22,2.11,0.89,2.1,3.29,3.02c0.63,0.83,1.27,1.67,1.9,2.5    c0.37,0.08,0.74,0.16,1.11,0.24c1.27-0.58,3.28-2.19,4.64-1.86c1.11,0.28,2.47,1.08,2.64,2.15c0.04,0.63,0.09,1.27,0.13,1.9    c-1.3,1.63-3.86,4.73-2.63,7.07c0.81,1.37,1.62,2.75,2.42,4.12c0.21,0.64,0.54,1.47,0.75,2.11c-0.94,0.82-1.99,1.46-2.93,2.28    c0.53,1.18,0.85,3.12,1.87,3.83c1.11,0.7,2.01,0.78,3.18,1.26c0.67,0.42,1.33,0.85,2,1.27c0.46,0.09,0.91,0.18,1.37,0.27    c0.91-0.09,1.83-0.18,2.74-0.27c0.31-1.02,0.28-1.78,1.39-2.13c0.71-0.22,1.84-0.05,2.18-0.88c0.08,0.03,0.16,0.06,0.24,0.09    c1.12,0.4,2.57,0.86,2.76,1.6c0.08,0.43,0.73,0.25,0.45,0.69c-0.7,0.86-1.39,1.73-2.09,2.59c1.42,0.13,2.83,0.26,4.25,0.39    c0.67-0.81,1-0.39,0.89-1.5c0.12-1.28,0.24-2.56,0.36-3.85c-0.18-0.46-0.37-0.91-0.55-1.37c-0.02-0.4,0.16-1.35,0.53-1.42    c0.73-0.15,1.23-0.38,1.96-0.11c0.88,0.29,1.44,0.29,2.17,0.99c0.46,0.09,0.91,0.18,1.37,0.27c0.64,0.74,1.27,1.47,1.91,2.21    c0.37,0.09,0.74,0.17,1.11,0.26c0.83-0.49,1.88-1.33,2.74-0.55c0.49-0.19,0.98-0.38,1.47-0.57c0.81-0.08,1.51,0.02,1.82-0.8    c1.05,0.52,2.09,1.04,3.14,1.56c2.88-1.57,4.42-4.66,7.02-6.47c1.55-0.65,3.1-1.3,4.65-1.95c1.51,0.17,7.08-0.1,7.93-1.12    c0.37-0.36,0.75-0.71,1.12-1.07c0.18-0.82,0.37-1.65,0.55-2.47c0.37-0.37,0.73-0.73,1.1-1.1c0.4-0.64,1.31-2.1,1.37-2.74    c1.21-1.37,1.93-2.52,2.06-4.37l0.39,0.12c0,2.09,2.28,2.95,3.58,4.25c0.18,0.46,0.37,0.91,0.55,1.37    c0.27,1.19,0.55,2.38,0.82,3.56c-0.09,1.55-0.18,3.11-0.27,4.66c-0.12,2.63,0.01,5.08-0.5,7.68c-0.43,0.37-1.54,1.68-1.97,2.06    c-1.6,0.63-2.52,0.33-4.11,0.96c-1.28,1.37-2.56,2.74-3.84,4.11c-0.18,0-0.37,0-0.55,0c-0.59,0.91-0.55,2.33-0.82,3.43l-0.27,0.14    c-0.23,0.15-0.46,0.3-0.69,0.45c-2.51,2.32-5.03,4.64-7.54,6.96c-1.9,5.13,0.11,10.58-1.88,15.65c-1.02,1.73-2.03,3.46-3.05,5.19    c-1.1,0.46-2.19,0.91-3.29,1.37c-0.37,0.46-0.73,0.91-1.1,1.37l-0.55,2.51c-1.38,0.21-6.31-1.01-7.68-1.69    c-1.65-0.55-3.89-1.31-5.64-1.83c-1.29-0.38-2.93,0-4.03-0.93c-2.01,0.07-2.71-0.03-4.59,0.84c-0.94-0.57-5.42,0.62-6.63,0.93    c-1.89,0.49-3.65,0.28-5.43,1.26c-1.05-0.48-2.9-0.29-3.98,0.09c-1.36,0.48-2.05,1.83-2.9,2.89c-0.52,0.65-1,0.94-1.15,1.73    c-0.13,0.74-0.22,1.36,0.34,1.94c0.62,0.64,1.44,0.9,2.04,1.56c0.74,0.82,0.85,1.56,0.77,2.67c-0.05,0.8-0.78,1.51-1.2,2.13    C225.64,266.26,224.35,265.58,224.35,264.9z"/>
            <circle cx="216.05" cy="248.93" r="1.586"/>
        </g>
        <g id="__Serdivan">
            <path d="    M203.72,272.92l-0.34,0.48c-0.19,0.25-0.58-0.25-0.77,0c-0.39,0.53-0.71,1.55-1.35,1.37c0,0.37-0.27,0.25-0.27,0.62    c-0.46,1.01-0.91,2.01-1.37,3.02c-0.46,0.37-0.91,0.73-1.37,1.1c-0.65,0-1.21,0.39-1.65,0.82c-2.27,0.51-4.62,1.35-6.31,2.74    c-0.95,0.78-2.83,0.14-4.24-0.04c-0.85-0.11-1.53-0.05-1.74,0.59l-0.05,0c-0.35-1.16,0.57-2.17,0.82-3.29    c-0.27-0.91-0.55-1.83-0.82-2.74c0.97-0.71,1.57-1.1,2.71-1.46c0.19-0.06,0.39-0.13,0.58-0.19c-0.11-0.25-0.23-0.5-0.34-0.75    c0.11-0.21,0.23-0.41,0.34-0.62c-0.6,0.35-1.2-0.27-1.92-0.27c-1.47,0-2.55-0.36-3.56-1.37c-1.3,0.3-2.63-0.38-3.47-1.53    c-0.5,0.46-1.93-0.3-2.42,0.16c-1.73-0.04-2.52,1.14-4.25,1.1c-2.71-0.62-4.76-2.44-7.69-2.73c-1.03-0.07-1.89,1.9-2.39,2.61    c-0.66-0.24-1.33-0.47-1.99-0.71c-0.49,0.49-1.19,0.28-1.88,0.41c-0.84,0.36-1.96,0.82-1.96,0.82c-0.46-0.97-1.6-5.1-2.47-5.62    c-0.15-0.92-0.3-1.84-0.45-2.76c-0.22-0.73-0.43-1.45-0.65-2.18c-0.35-0.67-0.31-1.24-1.1-1.37c0.06-0.37,0.11-0.74,0.17-1.1    c0.17-1.29-0.46-2.99,0.65-4.1c-0.27-0.73-0.55-1.46-0.82-2.19c-0.07-0.6-0.14-1.21-0.21-1.81c-0.23-0.47-0.07-1.21-0.33-1.28    c-1.35-0.31-5.09-0.79-5.38-1.89c-0.25-1.03-0.53-4.51-0.15-5.6c0.33-0.85,2.28-0.39,2.1-1.48c-0.02-0.42-0.23-1.7-0.26-2.13    c-0.79-1.35-1.89-1.82-2.97-2.89c-0.48-0.47-0.64-1.07-1.29-1.29c-0.46-1.6-1.2-2.07-1.72-3.45c-0.25-0.67-0.16-1.61-0.75-2.03    c0.27-1.65,0.55-3.29,0.82-4.94c0.55-0.18,1.1-0.37,1.65-0.55c0.71-1.1,0.7-1.98,1.93-2.37c0.62-0.22,2.87-0.2,3.28,0.18    c0.09-0.42,0.18-0.85,0.27-1.27c0.36-1.35,1.84-4.63,1.37-5.86c0.19-0.07,0.38-0.15,0.57-0.22c0.96,0.02,1.91,0.05,2.87,0.07    c0.48,0.45,1.24,0.65,1.17,1.15l0.7,0.56c-0.88,1.94-1.69,4.62-0.65,5.58c-0.23,1.44-0.72,4,0.27,5.21    c-0.36,1.34-2.12,3.52-1.85,4.69c0.34,1.38,0.46,3.44,2.44,2.9c1.55-0.39,5.85-1.15,5.72-3.2c0.51-0.14,1.02-0.28,1.53-0.42    c0.31,0.23,0.63,0.46,0.94,0.69c0.46,0.99,1.48,4.3,1.1,5.21c0.37-0.47,0.52-0.9,1.1-1.1c0.4-1.76,0.45-4.76,2.42-5.13    c1.84-0.39,3.68-0.78,5.53-1.17c1.55,0.1,3.23,0.59,4.39-0.82c0.46-0.18,0.91-0.37,1.37-0.55c1.2-0.15,3.35-0.06,4.11-1.1    c0.58-0.14,1.16-0.27,1.74-0.41c0.44-0.64,1.2-1.14,0.73-2.06c1.01-1.26,2.07-2.24,3.32-3.25c0.74-0.59,1.91-1.38,2.27-0.99    c1.7,2,3.84,5.29,4.55,7.81c1.17,2.11,2.34,4.23,3.51,6.34c1.39,3.83,2.78,7.66,4.16,11.48c0.39,1.31,2.69,6.24,3.84,6.31    c-0.07,0.34-0.14,0.67-0.21,1.01c0.07,0.21,0.14,0.42,0.21,0.63c-0.58,0.89-1.14,2.11-2.19,2.47c-0.2,1.04-1.15,3.47-0.55,4.11    c-0.11,0.03-0.22,0.05-0.33,0.08c-1.11,0.28-2.2,1.1-2.96-0.08c0.05,0.26,0.1,0.53,0.15,0.79c0.48,1.79,3.04,1.71,2.82,4.12    c0.11,0.19,0.22,0.38,0.33,0.57c-0.99,1.57-1.08,2.88-1.11,4.65C203.71,271.64,203.71,272.28,203.72,272.92z"/>
            <circle cx="184.18" cy="249.28" r="1.586"/>
        </g>
        <g id="__Hendek">
            <path d="    M291.33,189.04c-0.93-1.86-0.02-2.43-2.06-3.86c0.07-0.91-1.17-1.56-1.1-2.47c-0.14-0.96,0.41-0.69,0.55-1.92    c0.19-0.27,0.37-0.54,0.56-0.81c0.79-1.1,3.17-2.05,3.38-3.32c0.17-1.21-0.04-4.45-1.75-4.64c-0.24-1.89-0.65-3.52-0.52-5.45    c-0.4-0.41-0.42-1.23-0.03-1.68c-0.27-0.55-0.55-1.1-0.82-1.65c-1.05,0.47-1.43-0.91-2.19-1.65c-0.08-0.03-0.55-1.37-0.55-1.37    c-0.21-0.91,0.73-2.19,1.1-3.02l0.53-0.61c0.75-0.33,1.51-0.66,2.26-0.99c1.29-0.13,2.59-0.26,3.88-0.39    c2.79-0.16,6.04,1.51,8.13,3.08c0.65-0.01,1.29-0.03,1.94-0.04c1.04-0.07,4.38-0.18,5.25,0.18c1.89-0.27,3.57-0.01,5.42,0.41    c0.94-0.71,1.76,0.18,2.74,0.27c1.83,0.55,3.66,1.1,5.48,1.65c2.33,0,4.49-0.17,6.31,0c0.34,0.82,3.44,1.28,4.4,1.34    c3.28,0.65,6.57,1.3,9.85,1.95c0.5,0.65,2.42,0.99,3.27,1.17c1.55,0.32,4.1,0.73,5.23,1.85c0.29-0.03,2.43,0.23,1.65,0l-0.14,0.14    c1.78,1.65,3.72,1.26,5.07,2.33c1.62,1.29,2.98,3.4,4.11,5.21c0.8,1.29,0.54,2.92,1.65,4.11c0.46,0.46,0.91,0.91,1.37,1.37    c1.03,0.68,2.33,0.76,3.05,1.81c0.59,0.93,2.57,0.36,3.53,0.39c0.45-0.87,3.89-1.68,4.94-1.92c0.48-1.02,4.28-2.33,5.48-2.74    c0.59,0.76,2.14,0.7,2.99,0.9c1.65,0.25,3.31,0.5,4.96,0.75l-1.23,0.27c-1.78,1.51-4.23,2.79-6.02,4.16    c-0.47,1.64-2.68,5.21-3.98,6.26c-0.43,1.05-0.85,2.1-1.28,3.14c-0.69,2.44-1.41,4.64-0.57,7.07c0.16,0.62,0.31,1.23,0.47,1.85    c0.53,1.26,3.21,4.81,4.65,4.63c3.32-0.41,5.69-3.06,8.78-3.8c2.01-0.09,4.02-0.18,6.03-0.27c0.29,0.06,0.57,0.12,0.86,0.18    c0.64-0.19,1.01-0.11,1.34-0.73c1.02-0.14,4.92-0.68,5.35,0.32c0.23,0.35,0.46,0.7,0.69,1.05c0.39,4-1.49,7.65-2.47,11.52    c-0.23,0.92-1.31,4.39-0.69,5.09c1.04,1.11,2.91,2.03,4.52,1.77c0.67,0.59,1.33,1.18,2,1.77c0.64,0.47,1.72-0.35,1.68,0.74    c0.1,0.32,0.21,0.65,0.31,0.97c-1.98,2.77-5.39,4.74-8.37,6.12c-0.54,0.34-1.09,0.69-1.63,1.03c-1.33,0.56-2.96,0.68-3.86,1.99    c-2.1,0.85-3.87,1.84-5.29,3.78c-1,1.17-2,2.34-3.01,3.5c-0.51,0.35-1.02,0.7-1.53,1.05c0.08,0.7,0.15,1.39,0.23,2.09    c0.69,0.71,1.55,1.06,1.65,2.19c-0.64,1.92-1.28,3.84-1.92,5.76c-0.46,1.52,0.42,5.5,1.1,7c1.76,3.93,5.3,2.98,8.5,4.52    c1.83,1.1,3.66,2.19,5.48,3.29c2.14,1.52,3.78,4.9,5.01,7.13c0.34,0.64,0.68,1.28,1.02,1.92c0.49-0.49,2.37,1.57,3.11,2.01    c2.67,1.6,6.36,2.68,9.5,2.37c2.14-0.21,5.62-1.48,7.4,0.24c1.1,1.03,2.19,1.98,2.25,3.59c-0.1,3.07-1.13,5.75-2.51,8.51    c0.69,2.87,1.08,9.07-0.27,11.79c-0.43,0.85-0.41,2.91-1.65,2.88c-0.18,0.37-0.64,0.73-0.82,1.1c0.14,0.52,0.2,1.13-0.34,1.37    c-0.58,0.13-0.47-0.01-0.75,0.69c-1.19,0-2.38,0-3.56,0c-1.13-0.44-3.04-0.72-4.11,0c-1.04-0.22-3.37-0.77-3.81,0.27    c-0.29,1.35,0.12,2.9-0.16,4.25l-0.68,0.9c-1.47-0.25-2.93-0.51-4.4-0.76c-1.28,0.09-2.56,0.59-3.84,0.69    c-2.92,1.28-5.85,2.15-8.77,3.43c-0.82,0.09-1.65,0.18-2.47,0.27c-1.74,0.35-3.55-0.5-5.23-0.78c-0.6-0.1-1.53-0.11-1.9-0.59    c-1.74-0.18-3.47-0.37-5.21-0.55c-1.75-0.7-3.5-1.39-5.24-2.09c-1.01-0.31-4.54-1.48-5.18-0.93c-1.12-0.76-2.24-1.52-3.36-2.28    c-0.43-0.52-0.87-1.04-1.3-1.56c-1.5-1.65-1.95-3.89-3.84-5.21c-1.47,0.49-4.39,0.96-6.58,0.55c-1.37-0.64-2.74-1.28-4.11-1.92    c-1.28-0.18-2.56-0.37-3.84-0.55c-3.84-1.23-4.78-3.79-6.67-7.36c-0.43-0.65-0.85-1.31-1.28-1.96c-0.68-0.49-1.68-1.1-1.92-1.92    c-2.68-2.29-4.03-3.31-5.72-6.34c-0.56-0.99-1.13-1.99-1.69-2.98c-1.08-0.58-2.17-1.15-3.25-1.73c-1.43-0.18-2.87-0.36-4.3-0.54    c-1.45-0.88-2.89-1.75-4.34-2.63c-0.81-1-1.62-1.99-2.43-2.99c-0.33-0.81-0.66-1.61-0.99-2.42c-0.21-0.39-1.38-1.76-0.87-1.76    c0.12-0.63,0.71-2.23-0.27-1.92c-0.68-1.58-1.82-2.51-2.47-3.84c-0.35-1.13-0.71-2.27-1.06-3.4c0.04-0.29,0.08-0.59,0.12-0.88    c-0.33-1.13-0.65-2.26-0.98-3.39c-1.28-0.91-2.7-1.42-3.98-2.33c-1.92-1.26-3.21-3.19-5.42-3.98c-0.9-1.17-1.31-0.77-3.22-0.81    c-1.06,0.04-1.13,0.23-2.19,0.27c-0.64,0.14-0.8,0.48-1.37,0.27c-0.8,0.53-1.21-1.16-1.37,0c-0.07-0.11-0.15-0.21-0.22-0.32    c-0.77-1.35-1.29-4.76-0.6-7.09c-0.19-1.99-0.09-3.76-0.55-5.76c-0.46-1.99-1.96-4.45-3.5-5.8c-0.74-0.94-1.47-1.89-2.21-2.83    c-0.62-2.13-0.01-4.45-0.87-6.45c0.18-0.73,0.37-1.46,0.55-2.19l0.27-0.14c0.27-1.1,0.24-2.51,0.82-3.43c0.18,0,0.37,0,0.55,0    c1.28-1.37,2.56-2.74,3.84-4.11c1.6-0.63,2.52-0.33,4.11-0.96c0.43-0.37,1.54-1.68,1.97-2.06c0.5-2.6,0.38-5.05,0.5-7.68    c0.09-1.55,0.18-3.11,0.27-4.66c-0.27-1.19-0.55-2.38-0.82-3.56c-0.18-0.46-0.37-0.91-0.55-1.37c-1.3-1.3-3.58-2.16-3.58-4.25    L291.33,189.04z"/>
            <circle cx="353.36" cy="240.23" r="1.586"/>
        </g>
        <g id="__Arifiye">
            <path d="    M225.38,282.25c-0.2,0.19-1.27,0.2-1.58,0.2c-1.1,0.01-2.16-0.51-2.27-1.65c-0.12-1.29,0.26-2,1.11-2.81    c1.22-1.17,2.94-1.47,3.35-3.35c0.24-1.09-0.3-1.3-1.24-1.79c-0.31-0.16-0.68-0.29-0.95-0.52c-0.37-0.32-0.28-0.77-0.52-1.04    c-0.53-0.6-1.94,0.22-2.64,0.26c-2.23,0.14-4.19,1.03-6.38,1.03c-1.1,0-2.18,0.17-3.22,0.27c-0.56,0.05-1.11,0.09-1.64,0.14    c-0.52,0.05-1.16,0.22-1.65,0.2c-1.2,0.22-2.09-0.09-3.29,0.14c-0.11,0.04-0.64-0.45-0.75-0.41l-0.34,0.48    c-0.19,0.25-0.58-0.25-0.77,0c-0.39,0.53-0.71,1.55-1.35,1.37c0,0.37-0.27,0.25-0.27,0.62c-0.46,1.01-0.91,2.01-1.37,3.02    c-0.46,0.37-0.91,0.73-1.37,1.1c-0.65,0-1.21,0.39-1.65,0.82c-2.27,0.51-4.62,1.35-6.31,2.74c-0.95,0.78-2.83,0.14-4.24-0.04    c-0.85-0.11-1.53-0.05-1.74,0.59l-0.05,0c-0.44,0.61-0.8,0.88-0.82,1.65l0.05-0.04c0.82,3.11,1.87,6.53,2.7,9.64    c0.55,0.91,1.1,1.83,1.65,2.74c2.01,2.01,5.62,3.76,5.97,6.82c0.15,1.93-0.02,3.6-1.04,5.24c-0.24,0.39-0.01,1.1-0.55,1.1    l-0.16,0.66c1.23-0.46,2.57-0.22,4,0.16c0.99-0.35,2.24-0.14,3.29,0c0.54-0.66,1.31-0.44,2.14-0.66c1.81-0.47,2.83-1.2,4.71-0.44    c2.93,1.19,4.7,4.16,7.91,5c0.93,0.77,1.26,2.39,1.63,3.83l0.33-0.05c0-0.85,1.32-1.25,1.93-1.65c1.73-1.37,3.47-2.74,5.2-4.1    c-0.38-0.83,1.08-5.03,1.65-6.03c-0.68-0.87,0.43-3.61,0.82-4.66c-0.01-0.46-0.02-0.92-0.03-1.38c0.06-1.55,0.95-2.74,1.67-4.1    c-0.28-0.56,0.12-1.32,0.27-1.92c-0.47-1.26,0.25-3,0.58-4.19c-0.01-1.71-0.02-3.42-0.03-5.13c0.35-1.54,0.92-2.48,1.44-3.81    L225.38,282.25z"/>
            <circle cx="206.59" cy="291.98" r="1.586"/>
        </g>
    </g>
</svg>