<?xml version="1.0" encoding="UTF-8"?>
<!DOCTYPE svg PUBLIC "-//W3C//DTD SVG 1.1//EN" "http://www.w3.org/Graphics/SVG/1.1/DTD/svg11.dtd">
<svg version="1.1" id="HaritaCizim" xmlns="http://www.w3.org/2000/svg" xmlns:xlink="http://www.w3.org/1999/xlink" x="0px" y="0px" viewBox="0 0 600 360" preserveAspectRatio="none">
    <defs id="__def">
        <radialGradient id="f">
            <stop offset="0" stop-color="white" stop-opacity="1"/>
            <stop id="STOP1" offset=".4" stop-opacity="1"/>
            <stop offset="1" stop-color="white" stop-opacity=".2"/>
        </radialGradient>
        <filter id="__flt1" x="0" y="0" width="200%" height="200%" filterUnits="objectBoundingBox">
            <feGaussianBlur in="SourceAlpha" stdDeviation="3" result="blur1"/>
            <feSpecularLighting result="specOut" in="blur1" specularConstant="1.5" specularExponent="20" lighting-color="#bbbbbb">
                <feDistantLight azimuth="45" elevation="30"/>
            </feSpecularLighting>
            <feComposite in="specOut" in2="SourceAlpha" operator="in" result="specOut"/>
            <feComposite in="SourceGraphic" in2="specOut" operator="arithmetic" k1="0" k2="1" k3="1" k4="0"/>
        </filter>
        <filter id="__flt2" x="0" y="0" width="200%" height="200%" filterUnits="objectBoundingBox">
            <feGaussianBlur in="SourceAlpha" stdDeviation="3" result="blur1"/>
            <feSpecularLighting result="specOut" in="blur1" specularExponent="20" lighting-color="#bbbbbb">
                <fePointLight x="-2000" y="100" z="2000"/>
            </feSpecularLighting>
            <feComposite in="specOut" in2="SourceAlpha" operator="in" result="specOut"/>
            <feComposite in="SourceGraphic" in2="specOut" operator="arithmetic" k1="0" k2="1" k3="1" k4="0"/>
        </filter>
        <filter id="__flt3" x0="-50%" y0="-50%" width="200%" height="200%" filterUnits="objectBoundingBox">
            <feGaussianBlur in="SourceAlpha" stdDeviation="3" result="blur"/>
            <feOffset in="blur" dx="0" dy="0" result="offsetBlur"/>
            <feSpecularLighting in="blur" surfaceScale="4" specularConstant=".5" specularExponent="20" lighting-color="flavor" result="specOut">
                <fePointLight x="-5000" y="-10000" z="5000"/>
            </feSpecularLighting>
            <feComposite in="specOut" in2="SourceAlpha" operator="in" result="specOut"/>
            <feComposite in="SourceGraphic" in2="specOut" operator="arithmetic" k1="0" k2="1" k3="1" k4="0" result="litPaint"/>
            <feMerge>
                <feMergeNode in="offsetBlur"/>
                <feMergeNode in="litPaint"/>
            </feMerge>
        </filter>
        <filter id="__flt4" x0="-50%" y0="-50%" width="200%" height="200%">
            <feGaussianBlur in="SourceAlpha" stdDeviation="2" result="blur"/>
            <feOffset dy="-1" dx="-1"/>
            <feComposite in2="SourceAlpha" operator="arithmetic" k2="-1" k3="1" result="hlDiff"/>
            <feFlood flood-color="white" flood-opacity=".7"/>
            <feComposite in2="hlDiff" operator="in"/>
            <feComposite in2="SourceGraphic" operator="over" result="withGlow"/>
            <feOffset in="blur" dy="3" dx="3"/>
            <feComposite in2="SourceAlpha" operator="arithmetic" k2="-1" k3="1" result="shadowDiff"/>
            <feFlood flood-color="black" flood-opacity="1"/>
            <feComposite in2="shadowDiff" operator="in"/>
            <feComposite in2="withGlow" operator="over"/>
        </filter>
        <filter id="__golge1" x="0" y="0" width="200%" height="200%" filterUnits="userSpaceOnUse">
            <feOffset result="offOut" in="SourceAlpha" dx="8" dy="8"/>
            <feGaussianBlur result="blurOut" in="offOut" stdDeviation="3"/>
            <feBlend in="SourceGraphic" in2="blurOut" mode="normal"/>
        </filter>
    </defs>
    <g id="__Harita" fill="white" stroke="#000000" stroke-width="0.25" stroke-miterlimit="10" display="none">
        <rect id="__cer" x="0" y="0" fill="#000000" opacity="0" width="600" height="360"/>
        <g id="__Vezirköprü">
            <path d="   M201.81,172.01c-0.05-0.25-0.1-0.5-0.15-0.75c-0.2-0.15-0.4-0.3-0.6-0.45c0.02,0.12,0.05,0.23,0.07,0.35   c0.14,0.47,0.26,0.38-0.15,0.77c-0.07,0.13-0.15,0.25-0.22,0.38c-0.64,0.1-1.21,0.23-1.65,0.75c0.24,0.24,0.11,0.73,0,1.05   c0,0.34,0.7,0.29,0.58,0.64c-0.03,0.12-0.05,0.24-0.08,0.36c0.08,0.06,0.16,0.13,0.24,0.19c-0.17,0.07-0.33,0.13-0.5,0.2   c-0.08,0.08-0.17,0.17-0.25,0.25c-0.13,0.04-0.88,0.18-0.68,0.36c0.4,0.38,0.86,0.54,1.43,0.54c-0.17,0.2-0.15,0.45-0.3,0.46   c-1.25,0.16-2.2-0.13-2.99-1.21c-0.01,0.15-0.02,0.3-0.02,0.45c-0.02,0.52-0.02,0.72-0.33,1.16c-0.59,0.83,1.22,0.57,0.15,1.28   c-0.6,0.35-1.13,0.25-1.88,0.25c-0.33,0.4-0.56,0.83-1.11,0.9c-0.65,0.09-1.41-0.78-1.88-0.3c-0.5,0-1.65-0.7-1.97,0.06   c-0.24,0.66-0.6,1.98,0.17,2.49c-0.04,1.13,0.4,1.95,1.12,2.77c0.35,0.28,0.71,0.57,1.06,0.85c0.57,0.34,1.14,0.68,1.71,1.01   c0,0.54-0.08,1.24-0.75,1.35c0.3-0.08,0.57-0.03,0.75-0.3c0.52,0.05,1.64,0.12,1.66,0.45c-0.03,0.12-0.07,0.24-0.1,0.36   c-0.59,0.47-0.89,0.87-1.61,1.16c-0.03,0.09-0.06,0.18-0.09,0.27c-0.44,0-2.1-0.25-2.1,0.45c0,0.75,0.12,2.04,0.75,2.54   c0.38,1.64,0.79,3.01,0.3,4.64c0,0.22-0.59,0.34-0.63,0.13c-0.16-1.02-0.45-2.65-1.17-3.42c0.27-0.17,0.3-0.33,0.6-0.15   c-0.02-0.05-0.03-0.09-0.05-0.14c-0.03-0.2-0.07-0.41-0.1-0.61c-0.31-0.32-0.6-0.45-0.6-0.9c-0.59-0.16-0.91-0.14-1.35-0.6   c0-0.4-0.15-0.58,0.15-0.9c-0.3-0.5-0.6-1-0.9-1.5c-0.3-0.15-0.6-0.3-0.9-0.45c-0.27-0.2-0.3-0.42-0.6-0.6   c0.39,0.04,2.76,0.28,1.64-0.74c-0.52-0.49-1.06-1.26-1.8-1.36c-1.01-0.15-1.97,0.03-2.98-0.15c-0.37-0.06-0.75,0.12-1.05-0.15   c-0.31,0-0.86,0.09-1.05,0.3c-0.84-0.21-1.69-0.41-2.53-0.62c-0.1-0.14-0.21-0.29-0.31-0.43c-0.64-0.18-1.28-0.36-1.92-0.55   c-0.69-0.16-2.42-0.19-2.57-0.95c-0.29,0.01-0.54-0.06-0.75,0.15c-0.8-0.25-1.6-0.5-2.39-0.75c-0.31-0.36-1.27-1.04-1.48-0.97   c-0.21,0.02-0.41,0.05-0.62,0.07c-0.56,0.56-1.36,1.43-2.1,1.8c-0.52,0.19-1.04,0.38-1.56,0.57c-0.14,0.29-0.23,0.67-0.53,0.78   c0.01,0.31,0.16,0.74,0,0.89c-0.54,0.51-1.63,1.49-2.39,0.9c-1.14,0.51-1.92,1.58-1.62,2.82c0.2,0.27,0.39,0.52,0.72,0.47   c0.1,0.58,0.35,0.88,0.3,1.5c0.55,0.05,1.1,0.1,1.65,0.15c-0.2,0.25-0.4,0.5-0.6,0.75c0.08,0.03,0.17,0.07,0.25,0.1   c0.17,0.02,0.33,0.03,0.5,0.05c0.47,0.49,0.48,0.83,1.09,1.17c0.18,0.36,0.37,0.71,0.55,1.07c-0.15,0.07-0.64,0.45-0.78,0.25   c-0.38-0.57-1.56-1.35-1.61-1.9c-0.16-0.08-0.32-0.16-0.48-0.24c-0.5-0.23-0.53,0.67-1.19,0.14c-0.22-0.14-0.43-0.27-0.65-0.41   c-0.08-0.63-0.15-1.25-0.23-1.88c-0.67-0.33-1.24-0.6-1.5,0.3c-0.35,0.45-0.7,0.9-1.05,1.35c-0.24,0.51,0.21,1.04-0.15,1.5   c0.26-0.08,0.6-0.32,0.82-0.07c0.15,0.19,0.81,0.94,0.53,0.99c-0.69,0.12-2.13,0.32-2.25,1.17c-0.28,0.02-0.73-0.06-0.81,0.17   c-0.23,0.69-0.46,1.38-0.68,2.07c-0.4-0.5-0.83-1.12-0.65-1.77c0.16-0.5,0.68-1.45,1.25-1.52c0.05-0.25,0.1-0.5,0.15-0.75   c-0.06,0.01-0.12,0.02-0.17,0.03c-0.59,0.04-1.18,0.08-1.77,0.12c-0.41,0.27-0.82,0.55-1.23,0.82c-0.35,0.13-0.77,0.12-1.02,0.38   c-0.05-0.05-0.11-0.1-0.16-0.15c-0.67-0.59-1.27-1.26-2.24-1.05c-0.23,0.05-1.1,0.03-1,0.27c0.08,0.21,0.17,0.42,0.25,0.63   c0.2,0.25,0.4,0.5,0.6,0.75c0.55,0.18,1.57,0.15,1.43,0.84c-0.35,1-0.7,1.99-1.05,2.99c0.12,0.17,0.25,0.34,0.37,0.51   c0.47,0.03,2.41,0.22,2.02,0.5c-0.28,0.23-0.57,0.34-0.68,0.7c-0.64-0.1-1.49-0.5-1.77-0.14c-0.24,0.3-0.68,1.09-0.63,1.48   c-0.6,0.27-0.73,0.52-0.75,1.2c-0.29-0.18-0.74-0.06-0.45-0.75c-0.4-0.03-0.44-0.32-0.5-0.17c-0.28,0.81-0.57,1.61-0.85,2.42   c-0.52,0.28-1.71,0.85-1.64-0.15c0.1-0.72,1.27-2.06,1.79-2.69c0.02-0.34-0.08-0.65,0.15-0.9c0,0.43,0.14,0.71-0.31,0.85   c-0.55,0.17-1.28,0.18-1.48,0.8c-0.3,0.05-0.6,0.1-0.9,0.15c-0.31-0.51-0.64-0.72-0.15-1.2c0.75-0.4,1.5-0.8,2.24-1.2   c0.63-0.32,0.83-0.82,1.65-0.9c0.19-0.47,0.38-0.54-0.06-0.83c-0.13-0.02-0.26-0.04-0.39-0.07c-0.09-0.33-0.18-0.66-0.28-0.99   c-0.34-0.22-0.71-0.54-0.77-0.96c-0.08,0.02-0.17,0.04-0.25,0.06c-0.6,0.18-1.73,0.39-1.99,0.99c-0.05-0.09-0.1-0.17-0.15-0.26   c-0.21-0.43-0.42-0.87-0.64-1.3c-1.09-0.34-2.08-0.77-2.77-1.75c-0.31-0.29-0.62-0.58-0.93-0.87c-0.09-0.28-0.08-0.76-0.34-0.75   c-0.32,0.12-0.64,0.25-0.96,0.37c-0.29-0.11-0.7-0.11-0.94,0.08c-0.79-0.32-1.87-1.15-2.59-0.66c-0.18,0.12-0.37,0.24-0.55,0.36   c-0.01,0.34-0.02,0.68-0.02,1.02c-0.26-0.35-0.51-0.7-0.77-1.05c-0.44-0.13-0.44-0.21-0.71-0.57c-0.28-0.57-0.56-1.14-0.85-1.71   c-0.54-0.47-2.03-1.22-2.6-0.38c-0.74-0.29-1.31-0.56-1.65-1.35c-0.1,0.43-0.24,0.66,0,1.05c-0.06,0.04-0.12,0.08-0.17,0.13   c-0.57,0.45-2.61,0.96-2.67,1.67c0-0.1,0-0.2,0-0.3c0.02-0.73,0.72-1.82,1.5-1.95c0.12-0.27,0.25-0.54,0.37-0.81   c-0.17-0.1-0.33-0.2-0.5-0.29c-0.07-0.11-0.13-0.23-0.2-0.34c-0.49-0.22-0.98-0.43-1.47-0.65c-0.44,0-1.66-0.24-1.95-0.6   c-0.4-0.05-0.8-0.1-1.2-0.15c-1.06,0.17-2.1,0.44-3.16,0.16c-0.31-0.08-0.73-0.01-0.83-0.18c-0.4-0.64-1.26-0.84-1.29-1.63   c-0.02-0.83-0.03-1.67-0.05-2.5c-0.07-0.45-0.45-0.65-0.17-0.99c0.33-0.42,0.27-0.93,0.85-1.14c-0.02-0.55-0.04-1.09-0.06-1.64   c0.18-0.7,0.36-1.41,0.55-2.11c0.09-0.4,0.17-0.79,0.26-1.19c-0.05-0.75-0.1-1.5-0.15-2.24c-0.65-0.83-1.24-1.95-2.39-1.95   c-1.11,0-2.2,0.26-3.29-0.15c-0.37-0.18-0.74-0.37-1.1-0.55c-1.16-0.3-2.04-0.37-2.79-1.54c-0.19-0.69-0.38-1.38-0.57-2.07   c0,0,0.72-0.39,0.72-0.93c-0.32-0.32-1.8-1.31-1.8-1.65c0.02-0.27-0.07-0.6,0.3-0.6c0-0.59-0.07-2.84-0.9-2.84   c-0.25-0.55-0.5-1.1-0.75-1.65c0.05-0.25,0.1-0.5,0.15-0.75c-0.2-0.29-0.33-0.39-0.3-0.75c-0.1-0.01-0.21-0.02-0.31-0.03   c-0.44-0.03-1.13,0.18-1.48-0.12c-0.67,0.12-1.78,0.54-2.39,0.15c-0.7,0.2-1.4,0.4-2.1,0.6c-0.84,0.04-1.31-0.2-2.09,0.3   c-1,0.15-2,0.3-2.99,0.45c-1.45,0.2-2.89,0.4-4.34,0.6c-1.57-0.25-2.77-1.38-4.19-2.1c-0.57-0.29-0.97-0.75-1.65-0.75   c-0.4,0.45-0.8,0.9-1.2,1.35c-0.2-0.05-0.4-0.1-0.6-0.15c-0.39-0.06-1.12,0.5-1.23,0.87c-0.18,0.7-0.16,2.13,0.34,2.72   c0,0.23,0.12,0.74-0.15,0.76c-0.8,0.05-1.6,0.09-2.4,0.14c-0.41,0.16-0.82,0.32-1.23,0.48c-1.06,1.1-2.22,1.93-3.62,2.55   c-0.48,0.21-0.77,0.5-1.13,0.87c-0.15-0.05-0.3-0.1-0.45-0.15c-0.78,0.78-1.7,1.22-2.67,1.71c-0.3,0.15-0.71,0.5-1.04,0.33   c-0.91-0.48-2.53-1.31-3.48-0.84c-1.04,0.52-3.66,2.5-3.25,3.87c0.06,0.22,0.12,0.43,0.18,0.65c0.68,0.29,1.33,0.56,1.73,1.16   c0.02,0.03,0.16,1.11,0.23,1.33c0.18,0.46,0.37,0.92,0.55,1.38c0.06,0.32,0.12,0.64,0.18,0.96c-0.02,0.18-0.04,0.36-0.07,0.54   c0.17,0.64,0.34,1.28,0.51,1.93c0.09,0.59,0.48,1.89-0.22,2.03c-0.93,0.19-1.9,0.3-2.82,0.23c-0.32-0.02-0.99,0.09-1.2,0.3   c-0.63,0.02-1.19,0.06-1.8-0.15c-0.45,0.05-0.9,0.1-1.35,0.15c-0.93-0.01-3.38,0.61-4.04,0.3c-0.3,0.2-0.6,0.4-0.9,0.6   c-0.33,0.74-0.67,1.48-1,2.23c-0.53,0.46-1.05,2.11-0.65,2.71c-0.11,0.39-0.35,0.86-0.12,1.15c0.22,0.22-0.22,0.34,0.12,0.35   c0.95,0.06,3.77,0.19,4.37,0.72c0.23,0.22,0.45,0.44,0.68,0.66c0.36,0.64,0.73,1.27,1.09,1.91c0.08,0.49,0.16,0.97,0.24,1.46   c0.62,1.26,1.24,2.52,1.86,3.78c0.33,2,0.67,4.14,1.65,5.84c0.27,0.26,0.54,0.51,0.81,0.77c1.2,1.32,2.86,1.03,4.43,1.57   c0.95,0.62,1.89,1.24,2.84,1.86c1.49,1.07,1.71,3.15,2.1,4.79c0.78,1.6,1.57,3.2,2.35,4.8c0.31,0.54,0.63,1.09,0.94,1.63   c0.05,0.7,0.1,1.4,0.15,2.09c-0.1,0.35-0.2,0.7-0.3,1.05c-1,1-2,2-2.99,2.99c-0.4,0.3-0.8,0.6-1.2,0.9   c-0.69,0.19-2.63,0.72-2.99,1.35c-0.3,0.2-0.6,0.4-0.9,0.6c-1.29,0.48-3.54,1.19-3.6,2.99c0,0.75,0.18,2.75,0.6,3.3   c1.32,1.71,3.33,2.05,5.24,2.75c3.26,1.2,6.5,0.8,9.85,0.46c2.05,0.03,4.11,0.05,6.16,0.08c0.8-0.1,1.6-0.2,2.39-0.3   c1.25,0.25,2.49,0.5,3.74,0.75c0.4,0,0.8,0.01,1.19,0.01c1.52,0.12,2.97,0.22,4.47-0.08c0.5,0.04,1,0.07,1.51,0.11   c1.76,0.21,3.65,0.04,5.38-0.26c0.59-0.1,1.32,0.42,1.81,0.07c1.55,0.7,3.09,1.4,4.64,2.09c1.05,0.2,2.1,0.4,3.14,0.6   c1.3,0.35,2.59,0.7,3.89,1.05c3.29,1.12,7.14,2.45,9.58,5.09c1.25,1.35,1.78,3.18,3.09,4.54c0.31,0.32,0.57,1.1,1.09,1.16   c2.44,0.44,4.8,0.24,7.19-0.62c0.65-0.4,1.3-0.8,1.95-1.2c0.7-0.24,1.4-0.47,2.1-0.71c2.07-0.61,5.31-0.49,7.41,0.24   c-0.01,0.19-0.02,0.39-0.03,0.58c0.83-0.45,1.57-0.05,2.31,0.38c1.13,0.66,2.15,1.67,3.01,2.66c0.35,0.45,0.71,0.89,1.06,1.34   c0.7,0.65,1.4,1.3,2.09,1.95c1.5,0.51,3,1.02,4.5,1.53c1.84,0.02,3.68,0.05,5.52,0.07c0.45-0.14,0.9-0.27,1.36-0.41   c1.13,0.04,2.26,0.07,3.4,0.11c0.75-0.26,1.51-0.52,2.26-0.79c0.63-0.26,2.16-0.5,2.88-0.37c0.46,0.18,0.91,0.36,1.37,0.54   c0.43-1.03,1.4-1.53,2.02-2.37c0.47-0.54,0.93-1.07,1.4-1.61c0.4-0.65,0.8-1.3,1.2-1.95c0.25-0.2,0.5-0.4,0.75-0.6   c1.24,0,2.38-0.94,3.59-1.2c0.43,0.02,0.85,0.04,1.28,0.06c0.17-0.07,0.35-0.14,0.52-0.21c0.75,0.16,1.49,0.32,2.24,0.48   c0.35,0.09,0.7,0.18,1.06,0.27c0.53,0.02,1.18-0.38,1.65,0c1.69-1.02,3.57-1.1,5.47-1.43c0.7,0.26,1.61-0.06,2.28-0.29   c0.57-0.2,2.44-1.23,2.87-0.97c0.25-0.35,0.5-0.7,0.75-1.05c0.55-0.54,1.1-1.08,1.65-1.62c0.3-0.31,0.6-0.61,0.89-0.92   c0.65-0.95,1.3-1.9,1.95-2.84c0.07-0.39-0.05-0.9,0.15-1.2c-0.55-0.7-1.1-1.4-1.65-2.1c-0.2-0.7-0.4-1.4-0.6-2.09   c0-1.4,0.72-2.42,1.35-3.59c0.3-0.5,0.6-1,0.9-1.5c0.03-0.55,0.07-2.23,0.45-2.54c-0.18-0.84-0.03-1.44,0.6-2.1   c0.8-0.83,1.76-1.22,2.43-2.23c0.53-0.79,1.07-1.57,1.6-2.36c0.2-0.47,0.41-0.94,0.61-1.4c0-0.26,0.43-1.05,0.6-1.05   c0.45-0.65,0.9-1.3,1.35-1.95c0.75,0,2.33-0.94,2.91-1.44c0.18-0.12,0.35-0.24,0.53-0.36c0.25-0.35,0.5-0.7,0.75-1.05   c0.05,0.05,0.1,0.1,0.15,0.15c0.21-0.43,0.42-0.85,0.63-1.28c0.06-0.37,0.12-0.74,0.18-1.1c0.28-0.5,0.56-1.01,0.84-1.51   c0.11-0.49,0.22-0.99,0.34-1.48c0.3-0.58,0.89-1.73,0.66-2.4c-0.08-0.25-0.17-0.51-0.25-0.76c-0.36-0.36-0.73-0.72-1.09-1.08   c-0.07-0.34-0.21-0.76,0.04-1.02c-0.14-1.05-0.29-2.1-0.43-3.15c-0.04-0.28,0-1.19-0.32-1.19c-0.05-0.25-0.1-0.5-0.15-0.75   c0.16-1.28,0.13-2.51-0.3-3.74c-0.35-0.99-0.15-1.83-0.15-2.84c-0.05-0.45-0.1-0.9-0.15-1.35c0.3-0.95,0.6-1.9,0.9-2.84   c0.25-0.37,0.75-0.58,0.75-1.05c-0.44-0.44-0.92-2.97-1.05-3.74c-0.31-0.31-0.6-0.76-0.6-1.2c-0.4-0.53-1.36-2.17-1.2-2.84   c-0.15-0.35-0.3-0.7-0.45-1.05c-0.12-0.7-0.83-2.95-1.42-3.34c-0.63-0.37-2.48-0.96-3.07-0.4c-0.6-0.2-1.2-0.4-1.8-0.6   c-0.75-0.75-1.61-1.01-2.51-1.53c-0.83-0.48-1.61-1.1-2.28-1.76c-0.56,0-1.67-0.1-2.09,0.3c-0.27-0.06-0.9-0.13-0.9-0.45   c-0.3,0.15-0.6,0.3-0.9,0.45c-0.56-0.56-1.8-0.15-2.09-1.05C202.41,171.61,202.11,171.81,201.81,172.01z"/>
            <path d="   M180.78,183.68c-0.02-0.1-0.04-0.2-0.07-0.29c0.38,0.38-0.06-0.74,0-0.9c-0.65-0.41-1.35-1.11-1.35-1.8   c-0.09,0.03-0.18,0.06-0.27,0.08c-0.23,0.09-0.45,0.33-0.51,0.04c-0.03-0.3,0.06-0.27-0.26-0.43c0.09-0.23,0.19-0.46,0.28-0.68   c-0.29-0.12-0.59-0.24-0.88-0.36c-0.12,0.54-0.1,0.85-0.75,0.9c-0.11,0.23-0.22,0.74-0.45,0.76c-0.57,0.05-1.21,0.31-1.5-0.31   c-0.45-0.49-1.69-1.71-0.9-2.24c0-0.35,0-0.7,0-1.05c-0.1-0.39-0.2-0.78-0.3-1.17c0-0.36,0-0.72,0-1.08   c-0.19-0.23-0.42-0.69-0.51-0.42c-0.33,0.68-0.65,1.37-0.98,2.05c-0.01,0.3,0.35,0.59,0.59,0.77c0.02,0.19,0.05,0.38,0.07,0.57   c0,0.06,0.01,0.12,0.01,0.19c-0.36,0.09-0.91,0.19-1.14-0.3c-0.55,0.2-0.91,0.66-1.5,0.3c-1.11,1.96-1.82-0.47-1.65,1.35   c-0.23,0.12-0.73-0.41-0.9-0.6c0,0.15-0.3,0.3-0.3,0.45c0,0.16,0.3,0.44,0.3,0.6c0,0.44-0.53,0.26-0.9,0.3   c0.15,0.3,0.3,0.75,0.45,1.05c0.25,0.75-0.19,1.52-0.49,1.74c-0.42,0.27-1.31,0.86-1.76,0.51c-0.13,0.16-0.26,0.33-0.38,0.49   c-0.22,0.33-0.44,0.67-0.66,1.01c0.02,0.25,0.38,0.72,0.15,0.9c-0.61,0.47-1.5,0.92-2.39,0.9c-0.29-0.07-0.58-0.15-0.86-0.22   c0.47-0.99,1.13-3.48,0.72-4.27c-0.75-0.63-1.8-1.02-2.54-1.65c-0.88-1.52-1.39-3.18-1.5-4.94c-0.03-0.45-0.38-1.1-0.15-1.5   c-0.33-1.45-0.67-2.9-1-4.35c-0.25-1.06-1.35-3.64-0.57-4.57c0.17-0.18,0.34-0.36,0.51-0.54c1.74-0.33,3.45-0.26,5.1,0.63   c0.56,0.3,1.33,0.45,1.65,1.05c1.2,0.52,2.26,1.01,3.29,1.8c0.85,0.94,1.71,1.87,2.56,2.81c0.37,0.33,0.85,0.78,1.31,0.43   c0.16-0.03,0.31-0.06,0.47-0.09c0.28-0.44,0.71-0.75,1.05-1.42c0.3-0.2,0.45-0.47,0.75-0.67c0.28-0.29,0.73-0.65,1.01-0.94   c0.49,0.34,0.47,0.16,0.86,0.67c0.27,0.59,0.74,1.18,1.01,1.76c0.6,0.5,1.01,1,1.61,1.5c1.31,1.77,2.27,3.49,2.97,5.55   c0.35,1.02,0.58,1.94,0.77,3.06c0.19,0.67,0.35,2.33,0.15,3.07C180.94,183.98,180.86,183.83,180.78,183.68z"/>
            <circle cx="176.97" cy="221.55" r="1.586"/>
        </g>
        <g id="__Yakakent">
            <path d="   M161.88,124.65c-0.29-0.33-0.47-0.7-0.47-1.11c0-1.41-0.45-4.37,0.52-5.48c0.67-0.7,1.66-0.82,2.62-0.82   c0.26,0.26,1.14,0.38,1.5,0.3c1.19,0.79,2.15,1.68,3.39,0.44c0.26-0.68,0.52-1.35,0.79-2.03c0.06-2.27,0.11-4.53,0.17-6.8   c0.15-0.55,0.3-1.1,0.45-1.65c0.01-0.4,0.02-0.79,0.04-1.19c0.19-0.65,0.37-1.3,0.56-1.95c0.35-0.4,0.7-0.8,1.05-1.2   c0.39-0.27,1.21-0.46,1.65-0.3c0.8-0.5,1.6-1,2.39-1.5c0.3-0.35,1.33-1.8,1.35-2.1c0.54-0.44,1.26-0.85,1.2-1.65   c0.25-0.25,0.5-0.5,0.75-0.75c0.68-0.87,0.71-2.31,1.65-2.99c0.6-0.2,1.2-0.4,1.8-0.6c0.9-0.55,1.8-1.1,2.69-1.65   c0-0.35,1.01-1.05,1.35-1.05c0.33-0.55,1.18-1.67,1.95-1.8c0.87-1.05,2.03-1.81,3.14-2.54c0.15-0.25,0.3-0.5,0.45-0.75   c0.2-0.1,0.4-0.2,0.6-0.3c0.5-0.65,1-1.3,1.5-1.95c0.19-0.76,0.71-2.07,0.45-2.84l-0.21,0.03c0.34-0.82-0.18-0.78-0.84-0.78   c-0.89,0-1.59-0.5-2.54-0.15c-0.37-0.16-0.72-0.24-0.9-0.6c-0.1,0.05-0.2,0.1-0.3,0.15c-0.25,0-0.5,0-0.75,0   c0-0.45-0.72-0.3-1.05-0.3c-0.61,0-2.3-0.49-2.82-0.74c-0.17-0.22-0.34-0.44-0.51-0.65c-0.4-0.26-0.79-0.52-1.19-0.79   c-0.72-0.32-1.05,0.07-1.61-0.07c-0.41-0.1-2.09-0.98-2.09-0.75c-1.13-0.39-2.13-0.85-3.18-1.27c-0.42-0.17-0.85-0.72-1.16-0.37   c-0.44-0.83-1.76-2.39-2.84-2.39c-0.33-0.98-0.75-1.01-1.36-1.68c-0.4-0.29-0.79-0.58-1.19-0.87c-0.7-0.5-1.4-1-2.09-1.5   c-0.4-0.5-0.8-1-1.2-1.5c0-0.38,0.14-1.05-0.6-1.05c-0.25,0-0.5,0-0.75,0c-0.75,0.55-1.5,1.1-2.24,1.65c-0.2,0.05-0.4,0.1-0.6,0.15   c-0.4,0.45-0.8,0.9-1.2,1.35c-0.06,0.39-0.16,0.94-0.45,1.2c0,0.55,0,1.1,0,1.65c-0.15,0.4-0.3,0.8-0.45,1.2   c-0.1,0.55-0.2,1.1-0.3,1.65c-0.17,1.46,0.43,2.73-0.45,4.04c-0.25,0.45-0.5,0.9-0.75,1.35c-1.74,1.74-4.49,4.83-4.49,7.33   c-0.42,0.21-1.47,1-1.5,1.5c-0.7,0.5-1.4,1-2.09,1.5c-0.6,0.2-1.2,0.4-1.8,0.6c-0.45,0-0.9,0-1.35,0c-0.76-0.15-1.32-0.6-2.09-0.6   c-0.31,0-0.72-0.31-0.99-0.07c-0.37,0.36-0.81,0.89-0.81,1.42c0.05,0.1,0.1,0.2,0.15,0.3c0.05,0.75,0.1,1.5,0.15,2.24   c0.6,1.29,1.35,2.27,1.35,3.74c0.75,1,1.5,2,2.24,2.99c0.25,0.65,0.5,1.3,0.75,1.95c0.37,0.43,0.98,0.75,1.2,1.2   c0.96,0.65,2.51,1.32,2.89,2.53c0.11,0.35,0.01,2.77-0.19,3.01c0,1.3-0.55,2.91,0.44,3.98c-0.05,0.07-0.09,0.14-0.14,0.21   c0.25,0.35,0.5,0.7,0.75,1.05c0,0.38,0.4,1.03,0.75,1.2c0.15,0.56,0.24,2.61,0.45,2.84c-0.24,1.42-0.74,2.27-0.05,3.62   c0.15,0.29,0.27,0.64,0.6,0.76c0.32,0.18,0.65,0.36,0.97,0.55c0.79,0.05,1.58,0.11,2.37,0.16c0.49,0.49,1.92,1.35,2.54,1.35   L161.88,124.65z"/>
            <circle cx="190.47" cy="80.3" r="1.586"/>
        </g>
        <g id="__Alaçam">
            <path d="   M244.34,72.57c0.71,1.65,0.68,3.04-0.17,4.86c-0.45,0.96-1.57,1.88-1.2,2.99c-0.1,0.17-0.29,0.41-0.01,0.49   c0.89,0.27,1.45,0.21,2.4,0.09c0.66-0.54,2.11-0.91,2.65,0.04c0.3,0.53,0.5,0.99,0.81,1.51c0.35,0.15,1.24,0.87,1.16,1.29   c0.31,2.35-0.99,4.07-3.19,4.88c-0.43,0.13-0.85,0.26-1.28,0.39c-0.1,0.5-0.2,1-0.3,1.5c-0.36-0.03-1.25-0.22-1.13,0.23   c0.16,0.58,0.04,1.4-0.52,1.72c-0.46,1.45-1.28,2.54-2,3.85c-0.31,0.56-0.78,1.59-1.44,1.69c-0.3,1.88,0.17,3.69,0,5.54   c-0.07,0.81-0.61,2.34-0.15,3.14c-0.25,0.69-0.5,1.38-0.74,2.08c-0.33,1.23-0.99,2.16-2.02,2.93c-0.07,0.09-0.15,0.18-0.22,0.27   c-1.61,0.43-3.3,0.17-4.73-0.77c-0.43-0.28-0.86-0.56-1.3-0.84c-0.78-0.35-2.03-0.75-2.58,0.12c-0.98,1.54-1.1,2.4-1.24,4.15   c-0.09,0.88-0.17,1.77-0.26,2.65c-1.12,1.57-2.85,1.58-4.27,2.59c-0.76,0.88-1.52,1.76-2.28,2.64c-0.23,0.33-0.45,0.65-0.68,0.98   c-0.36,0.34-0.72,0.68-1.08,1.02c-0.19,0.09-0.39,0.19-0.58,0.28c-0.41,0.36-0.81,0.71-1.22,1.07c-0.42,0.74-1.42,3.58-1.05,4.34   c-0.25,0.35-0.5,0.7-0.75,1.05c-0.35,0.3-0.7,0.6-1.05,0.9c-0.15,0.25-0.3,0.5-0.45,0.75c-0.25,0.2-0.5,0.4-0.75,0.6   c-0.7,0.9-1.4,1.8-2.09,2.69c-0.28-0.28-0.82,0.48-1.05,0.75c-0.99,0.31-3.79,1.01-4.64,0.3c-0.7,0.1-1.4,0.2-2.09,0.3   c-0.55,0.36-1.58,0.98-1.65,1.65c-0.94,0.64-1.83,1-2.85,1.47c-0.55,0.23-1.1,0.46-1.66,0.69c-0.52,0.09-1.35,0.14-1.78-0.21   c-0.4,0-0.8,0-1.2,0c-1.03-0.14-1.55-0.75-2.66-0.51c-0.51-0.24-1.44-0.33-1.98-0.09c-0.71-0.29-3.04-1.56-3.54-1.44   c-0.32,0.1-0.48,0.05-0.65,0.36c-0.19,0.38-0.11,0.67-0.1,1.08c-0.02,0.35-0.03,0.7-0.05,1.05c0.44,1.2,0.88,2.4,1.32,3.61   c0.15,1.29-0.35,3.3,0.18,4.48c-0.08,1.89-0.17,3.77-0.25,5.66c0.43,1.27,1.2,2.43,1.37,3.78c0.07,1.09,0.14,2.19,0.21,3.28   c0.03,0.24-0.03,0.37,0.02,1.05c0.87,1.72,0.8,3.84,1.5,5.69c0.32,0.61,0.63,1.21,0.95,1.82c0.18,1.24,0.36,2.48,0.55,3.72   c0.5,0.9,1,2.09,1.5,2.99h-0.9c-0.84,0-3.03-0.62-2.97-1.49c0.11-0.7,0.37-1.59,0.88-2.1c-0.05,0-0.1,0-0.15,0   c-0.33,0-0.13-0.5-0.51-0.62c-0.16-0.07-0.32-0.14-0.48-0.21c-0.81,0.29,0.22,1.23-0.95,1.08c-0.31,0.08-1.21-0.69-1.01-0.14   c0.22,0.56,0.43,0.91-0.04,1.37c0.34,0.38,0.62,0.49,0.9,0.9c0.1,0.25,0.2,0.5,0.3,0.75c-0.05,0.3-0.1,0.6-0.15,0.9   c-0.24,0.55-0.76,0.69-0.75,1.34c0.01,0.56,0.86,2.14,0.45,2.55c-0.74,0.17-0.59,0.27-0.9,0.9c-0.95,0.36-3.11,0.94-3.74,1.27   l-1.05-0.07c0.2-0.73,0.04-2.39-0.15-3.07c-0.19-1.12-0.42-2.03-0.77-3.06c-0.7-2.05-1.66-3.78-2.97-5.55c-0.6-0.5-1.01-1-1.61-1.5   c-0.27-0.59-0.74-1.18-1.01-1.76c-0.39-0.51-0.37-0.33-0.86-0.67l0.22-0.37c0.4-0.39,0.47-0.83,0.87-1.22   c1.55-1.89,1.04-2.51,1.48-4.65c-0.3,0-0.33-1.03-0.38-1.32c0.14-0.3-0.13-0.86-0.37-1.08c-0.34-0.88-0.67-1.76-1.01-2.65   c-0.52-0.72-0.56-1.66-0.98-2.46c-0.68-1.29-0.88-2.69-1.08-4.14c0.03-1.46,0.05-2.92,0.07-4.37c-0.15-0.6-0.3-1.2-0.45-1.8   c-0.17-1.49-0.57-2.98-0.45-4.49c0.07-0.88,0.37-1.84,0.9-2.54c0.12-0.54,0.24-1.08,0.36-1.63c0.19-0.42,1.03-1.16,0.78-1.64   c-0.61-1.07-1.46-1.85-2.33-2.72c-0.43-1.62-1.97-2.72-3.44-3.44c-0.6-0.3-1.2-0.6-1.8-0.9c-0.16-0.12-0.31-0.25-0.47-0.37   c-0.95-0.44-2.82-1.09-3.7-2.09c-0.29-0.33-0.47-0.7-0.47-1.11c0-1.41-0.45-4.37,0.52-5.48c0.67-0.7,1.66-0.82,2.62-0.82   c0.26,0.26,1.14,0.38,1.5,0.3c1.19,0.79,2.15,1.68,3.39,0.44c0.26-0.68,0.52-1.35,0.79-2.03c0.06-2.27,0.11-4.53,0.17-6.8   c0.15-0.55,0.3-1.1,0.45-1.65c0.01-0.4,0.02-0.79,0.04-1.19c0.19-0.65,0.37-1.3,0.56-1.95c0.35-0.4,0.7-0.8,1.05-1.2   c0.39-0.27,1.21-0.46,1.65-0.3c0.8-0.5,1.6-1,2.39-1.5c0.3-0.35,1.33-1.8,1.35-2.1c0.54-0.44,1.26-0.85,1.2-1.65   c0.25-0.25,0.5-0.5,0.75-0.75c0.68-0.87,0.71-2.31,1.65-2.99c0.6-0.2,1.2-0.4,1.8-0.6c0.9-0.55,1.8-1.1,2.69-1.65   c0-0.35,1.01-1.05,1.35-1.05c0.33-0.55,1.18-1.67,1.95-1.8c0.87-1.05,2.03-1.81,3.14-2.54c0.15-0.25,0.3-0.5,0.45-0.75   c0.2-0.1,0.4-0.2,0.6-0.3c0.5-0.65,1-1.3,1.5-1.95c0.19-0.76,0.71-2.07,0.45-2.84c0.12-0.26,0.27-0.75,0.6-0.75   c1.29,0.16,2.39,0.04,3.69,0c0.41,0.31,3.26,0.05,3.93-0.06c0.45-0.03,0.91-0.06,1.36-0.08c1.15-0.19,2.3-0.38,3.45-0.57   c0.85-0.1,1.69-0.19,2.54-0.29c1.94-0.35,3.88-0.71,5.82-1.06c2.22-0.74,4.45-1.48,6.67-2.23c1.62-0.44,3.36-0.9,4.87-1.69   c0.87-0.46,2.74-0.5,3.44-1.2c0.92-0.18,3.46-0.77,4.04-1.35c0.71,0,2.05-0.57,2.69-0.94c0.71,0.09,2.83-0.84,3.43-1.3   c0.44-0.02,2.63-0.83,2.86-1.06l0,0.59c0.01,0.58-0.15,1.48,0.15,1.95c-0.25,0.43-0.5,1.24-0.9,1.5c0.07,0.14,0.14,0.28,0.21,0.42   l0,0.01c-0.17,0.06-0.34,0.11-0.51,0.17c-0.44,0.39-0.52,0.97-0.45,1.5c-0.59,0.13-0.65,0.44-0.87,0.9   c-0.34,0.62,0.83-0.33,1.17-0.6c-0.23-0.45,0.16-1.05,0.3-1.5c0.16-0.07,0.32-0.13,0.48-0.2L244.34,72.57z"/>
            <circle cx="208.1" cy="85.66" r="1.586"/>
        </g>
        <g id="__Bafra">
            <path d="   M244.61,72.19c0.22-0.19,0.46-0.48,0.75-0.45c0.25-0.25,0.5-0.5,0.75-0.75c0.25-0.05,0.5-0.1,0.75-0.15   c0.61-0.61,1.39-0.94,1.82-1.71c0.35-0.24-0.4-0.76,0-0.89c0.35-0.09,1.34,0.02,1.43-0.11c0.41-0.67,0.49-0.5,0.49-1.32   c0.2-0.15,0.4-0.3,0.6-0.45c0.15-0.41,0.09-0.69,0.29-1c-1.47,0.61-2.85,1.34-4.49,1.84c-0.51,0.15-2.24,0.82-2.22,1.25   c0.01,0.58-0.15,1.48,0.15,1.95c-0.25,0.43-0.5,1.24-0.9,1.5c0.08,0.15,0.14,0.29,0.21,0.43   C244.35,72.28,244.48,72.24,244.61,72.19z"/>
            <path d="M317.41,79.72c-0.02-0.16-0.04-0.33-0.07-0.49   c-0.85-1-1.7-2-2.54-2.99c0-0.44-0.51-1.34-0.9-1.5c-0.13-0.54-0.26-1.08-0.39-1.62c-0.8-0.67-1.35-1.83-1.6-2.84   c-0.4-0.28-0.6-0.82-0.82-1.26c-0.51-0.17-0.65-0.71-0.93-1.16c-0.9-1-1.8-2-2.69-2.99c-0.3-0.2-0.6-0.4-0.9-0.6   c-0.25-0.3-0.5-0.6-0.75-0.9c-1.11-0.79-2.22-1.57-3.33-2.36c-0.99-0.69-2.11-1.1-2.97-1.95c-0.5-0.16-0.99-0.32-1.49-0.48   c-1.07-0.66-2.14-1.31-3.21-1.97c-0.53-0.39-1.05-0.78-1.58-1.17c-0.15-0.25-0.3-0.5-0.45-0.75c-0.55-0.55-1.1-1.1-1.65-1.65   c-0.6-0.35-1.2-0.7-1.8-1.06c-0.33-0.12-0.67-0.24-1-0.36c-0.5-0.34-1.54-1.43-2.14-1.13c-0.71-0.17-1.41-0.33-2.12-0.5   c-2.01,1.25-4.28,2.63-6.58,3.43c-2.84,1.52-5.67,3.03-8.51,4.55c-1.55,0.7-3.09,1.4-4.64,2.09c-0.48,0.15-1.2,0.33-1.5,0.75   c-1.38,0.45-2.51,1.04-3.77,1.58c-0.59,0.27-1.18,0.55-1.76,0.82c-0.52,0.16-1.69,0.29-1.95,0.75c-0.6,0.13-1.05,0.15-1.5,0.6   c-0.8,0.19-1.53,0.44-2.24,0.73c0,0.01,0,0.01,0,0.02c0,1.03,0.48,0.82,0.75,1.65c-0.45-0.04-0.99,0.03-1.35-0.15   c0.22,0.21,1.28,1.12,0.87,1.26c-0.35,0.11-0.33,0.34-0.42,0.69c-0.5-0.06-0.87-0.16-1.35,0c0,0.39-0.03,0.69,0.15,1.05   c-0.15-0.1-0.31-0.19-0.46-0.29c-0.29-0.17-0.23-0.31-0.58-0.31c0.03,0.25,0.26,0.86,0.01,0.94c-0.57,0.2-0.64,0.33-0.91,0.85   c-0.76-0.05-0.89-0.1-1.35,0.6c-0.25-0.05-0.5-0.1-0.75-0.15c-0.61,0.52-1.23,0.85-1.91,1.15c0.7,1.64,0.67,3.03-0.18,4.84   c-0.45,0.96-1.57,1.88-1.2,2.99c-0.1,0.17-0.29,0.41-0.01,0.49c0.89,0.27,1.45,0.21,2.4,0.09c0.66-0.54,2.11-0.91,2.65,0.04   c0.3,0.53,0.5,0.99,0.81,1.51c0.35,0.15,1.24,0.87,1.16,1.29c0.31,2.35-0.99,4.07-3.19,4.88c-0.43,0.13-0.85,0.26-1.28,0.39   c-0.1,0.5-0.2,1-0.3,1.5c-0.36-0.03-1.25-0.22-1.13,0.23c0.16,0.58,0.04,1.4-0.52,1.72c-0.46,1.45-1.28,2.54-2,3.85   c-0.31,0.56-0.78,1.59-1.44,1.69c-0.3,1.88,0.17,3.69,0,5.54c-0.07,0.81-0.61,2.34-0.15,3.14c-0.25,0.69-0.5,1.38-0.74,2.08   c-0.33,1.23-0.99,2.16-2.02,2.93c-0.07,0.09-0.15,0.18-0.22,0.27c-1.61,0.43-3.3,0.17-4.73-0.77c-0.43-0.28-0.86-0.56-1.3-0.84   c-0.78-0.35-2.03-0.75-2.58,0.12c-0.98,1.54-1.1,2.4-1.24,4.15c-0.09,0.88-0.17,1.77-0.26,2.65c-1.12,1.57-2.85,1.58-4.27,2.59   c-0.76,0.88-1.52,1.76-2.28,2.64c-0.23,0.33-0.45,0.65-0.68,0.98c-0.36,0.34-0.72,0.68-1.08,1.02c-0.19,0.09-0.39,0.19-0.58,0.28   c-0.41,0.36-0.81,0.71-1.22,1.07c-0.42,0.74-1.42,3.58-1.05,4.34c-0.25,0.35-0.5,0.7-0.75,1.05c-0.35,0.3-0.7,0.6-1.05,0.9   c-0.15,0.25-0.3,0.5-0.45,0.75c-0.25,0.2-0.5,0.4-0.75,0.6c-0.7,0.9-1.4,1.8-2.09,2.69c-0.28-0.28-0.82,0.48-1.05,0.75   c-0.99,0.31-3.79,1.01-4.64,0.3c-0.7,0.1-1.4,0.2-2.09,0.3c-0.55,0.36-1.58,0.98-1.65,1.65c-0.94,0.64-1.83,1-2.85,1.47   c-0.55,0.23-1.1,0.46-1.66,0.69c-0.52,0.09-1.35,0.14-1.78-0.21c-0.4,0-0.8,0-1.2,0c-1.03-0.14-1.55-0.75-2.66-0.51   c-0.51-0.24-1.44-0.33-1.98-0.09c-0.71-0.29-3.04-1.56-3.54-1.44c-0.32,0.1-0.48,0.05-0.65,0.36c-0.19,0.38-0.11,0.67-0.1,1.08   c-0.02,0.35-0.03,0.7-0.05,1.05c0.44,1.2,0.88,2.4,1.32,3.61c0.15,1.29-0.35,3.3,0.18,4.48c-0.08,1.89-0.17,3.77-0.25,5.66   c0.43,1.27,1.2,2.43,1.37,3.78c0.07,1.09,0.14,2.19,0.21,3.28c0.03,0.24-0.03,0.37,0.02,1.05c0.87,1.72,0.8,3.84,1.5,5.69   c0.32,0.61,0.63,1.21,0.95,1.82c0.18,1.24,0.36,2.48,0.55,3.72c0.5,0.9,1,2.09,1.5,2.99c0-0.27-0.07-0.22,0-0.45   c0.37-1.15,0.52-2.1,0.97-3.18c-0.12-0.4,0.78-2.08,1.12-2.35c0.17-0.57,0.08-2.47,0.08-2.47c0.56,0.4,0.78,0.88,1.07,1.52   c0.13,0.19,0.26,0.39,0.4,0.58c0.32-0.38,0.79-1.88,1-2.02c0-0.4,0.15-0.78-0.15-1.05c0.02-0.04,0.04-0.08,0.06-0.12   c0.29-0.54,0.59-1.07,0.88-1.61c0.13,0.28,0.08,0.33,0.41,0.38c-0.2,0.64-0.27,0.98-0.16,1.63c0.02,0.04-0.01,0.42,0.01,0.46   c0.07-0.03,0.38,0.03,0.45,0c0.16-2.41,1.87-2.03,1.8-3.14c-0.09-0.55,0.15-0.78-0.15-1.2c0.4,0.24,0.46,0.09,0.9,0.15   c0.25,0.55,0.5,1.1,0.75,1.65c0.36,0.95,1.24,0.57,1.5,0.75c-0.45-0.98,0.16-2.06,0.97-2.72c0.12-0.44,0.47-0.29,0.82-0.57   c0.09,0.05,0.66-0.2,0.75-0.15c-0.21-0.2-2.66-1.61-0.6-1.5c0.09,1.47,1.47,0.2,2.13-0.08c0.44-0.83,2.15-0.5,2.21-1.27   c0.19-0.13,0-1.52,0.15-1.35c0.21,0.25,0.62,0.18,0.59,0.59c-0.02,0.36,0.23,1.37,0.45,1.32c0.7-0.04,1.4-0.08,2.1-0.12   c0.65,0.2,1.3,0.4,1.95,0.6c0.07-0.12,0.15-0.25,0.22-0.37c0.02-0.12,0.05-0.25,0.07-0.37c1.04-1.01,2.43-1.2,3.48-1.97   c0.18-0.13,1.36-0.74,1.36-0.74c0.28,0.06,0.56,0.11,0.85,0.17c0.45-0.2,0.9-0.4,1.35-0.6c1.13,0.48,1.05,0.33,2.24,0.3   c0.28,0.31,0.39,0.3,0.3,0.75c0.65,0.1,1.3,0.2,1.95,0.3c0.7-0.35,1.4-0.7,2.1-1.05c0.64,0.08,1.22-0.05,1.8,0.3   c0.5-0.1,1-0.2,1.5-0.3c0.59-0.35,1.7-0.86,1.95-1.5c0.27,0.06,0.55,0.12,0.82,0.18c0.12-0.01,0.25-0.02,0.37-0.03   c-0.16,0.07-0.32,0.13-0.48,0.2c-0.09,0.28-0.18,0.56-0.27,0.85c0.1,0.48,0.14,1.72-0.47,1.82c-0.65,0.09-1.64,0.78-2.22,0.42   c-0.25,0.25-0.5,0.5-0.75,0.75c-0.45-0.17-0.68-0.16-0.9-0.6c-0.05,0.01-0.1,0.02-0.14,0.02c-0.7,0.24-1.4,0.48-2.1,0.72   c-0.25,0.15-0.5,0.3-0.75,0.45c-0.39,0.82-0.83,2.57-1.8,2.84c0.06-0.29,0.51-1.7,0.38-1.89c-0.23-0.34-2.09-1.63-2.43-1.52   c-0.57,0.04-1.13,0.08-1.7,0.12c-0.71,0.08-1.29,0.33-1.95,0.6c-0.37,0.06-0.73,0.11-1.1,0.17c-0.65,0.6-1.31,1.21-1.96,1.81   c-0.26,0.23-0.49,0.71-0.83,0.71c-0.08,0.17-0.16,0.34-0.24,0.51c0.06,0.07,0.12,0.13,0.18,0.2c-0.34-0.21-0.23-0.24-0.69-0.11   c0-0.62-0.53-0.25-0.9-0.6c-0.25,0.15-0.65,0.45-0.9,0.6c-0.4-0.25-0.83-0.59-0.9-1.05c-0.25,0.05-0.5,0.11-0.74,0.16   c-1.39,0.4-3.9,0.98-4.73,2.08c-0.46,0.61-1.17,2.15-0.66,2.84c-0.16,0.12-0.31,0.24-0.47,0.36c-0.5,0.34-2.24,1.11-2.82,0.69   c-0.37,0.69,0.69,0.67,1.05,1.05c0.29,0.54,0.85,0.76,1.5,1.05c0.2-0.1,0.4-0.2,0.6-0.3c0,0.32,0.63,0.39,0.9,0.45   c0.42-0.4,1.53-0.3,2.09-0.3c0.67,0.67,1.46,1.28,2.28,1.76c0.9,0.52,1.76,0.78,2.51,1.53c0.6,0.2,1.2,0.4,1.8,0.6   c0.59-0.55,2.44,0.04,3.07,0.4c0.58,0.39,1.3,2.64,1.42,3.34c0.15,0.35,0.3,0.7,0.45,1.05c-0.16,0.68,0.79,2.32,1.2,2.84   c0,0.44,0.29,0.89,0.6,1.2c0.12,0.77,0.61,3.3,1.05,3.74l0.45-0.6c0.37-0.02,0.44-0.11,0.75,0.15c0.7-0.3,1.4-0.6,2.09-0.9   c1.05-0.1,2.1-0.2,3.14-0.3c0.82-0.07,1.8,1.05,2.54,0.75c0.94,0.55,1.88,1.11,2.82,1.66c0.64,0.3,1.29,0.61,1.93,0.91   c0.46,0.3,1,0.86,1.54,0.87c0.36,0.31,0.6,0.79,1.05,0.9c0.32,0.67,0.59,1.24,0.59,2c0.23,0.36,0.55,1.39,0.31,1.74   c0.58,0.89,1.23,1.64,2.28,1.94c0.22,0.08,0.44,0.16,0.66,0.23c0.57-0.41,1.01-0.82,1.55-1.28c0.56-0.46,0.5-0.92,1.29-1.32   c0.4-0.2,1.35-0.07,1.43-0.63c0.13-0.74,0.25-1.48,0.38-2.22c-0.28-0.61-0.57-1.21-0.85-1.82c-0.3-0.3-0.6-0.6-0.9-0.9   c-0.29-0.35-0.66-0.81-0.42-1.17c0.17-0.25,0.39-0.76,0.61-0.82c0.43-0.12,1.22-0.3,1.6-0.1c1.39-0.87,1.93-1.76,2.82-3.02   c0.31-0.49,0.62-0.98,0.93-1.47c0.25-0.25,0.5-0.5,0.75-0.75c1.2-0.65,3.1-1.31,3.89,0c1.3,1.95,2.54,3.9,2.8,6.29   c0.12,1.34,0.23,2.68,0.35,4.03c0.25,0.25,0.49,0.51,0.74,0.76c0.98,0.25,2.33,0.05,3.14,0.75c0.85,0.15,1.7,0.3,2.54,0.45   c0.7,0.1,1.4,0.2,2.1,0.3c1.13-0.2,1.99-0.68,3.14-0.9c0.6-0.02,1.2-0.03,1.8-0.05c0.44-0.01,0.97,0.53,1.05,1.1   c0.13-0.21,0.25-0.43,0.38-0.64c0.5-0.95,0.83-2.04,1.12-3.11c0.15-0.39,0.3-0.79,0.45-1.18c0.51-0.48,1.03-0.95,1.54-1.43   c0.62-0.25,2.23-1.42,2.5-2.01c0.3-0.2,0.6-0.4,0.9-0.6c0.8-0.05,1.6-0.1,2.39-0.15c0.5-0.1,1-0.2,1.5-0.3   c0.91-0.36,1.99-1.05,2.99-1.05c0.26-0.3,0.85-0.67,0.9-1.05c0.72-0.43,2.77-1.49,3.59-1.35c1.73-0.9,3.56-1.86,4.82-3.41   c0.23-0.29,1.03-1.36,0.95-1.51c-0.47-0.94-1.07-1.65-1.28-2.71c0-0.4,0-0.8,0-1.2c-0.12-1.57-0.79-3.63-1.76-4.82   c-0.57-0.7-1.2-1.31-1.99-1.66c-0.21-0.37-0.99-0.68-1.34-0.4c-1-0.45-2-0.9-2.99-1.35c-0.95-0.9-1.9-1.8-2.84-2.69   c-0.34-0.9-0.76-1.8-1.37-2.53c-0.85-1.02-1.98-2.34-2.07-3.76c-0.2-0.45-0.4-0.9-0.6-1.35c-0.87-1.65-1.48-3.37-1.05-5.24   c0.1-0.42-0.07-1.25,0.13-1.51c0.87-1.14,2.53-1.61,3.91-1.93c0.4-0.09,0.99,0.04,1.25-0.14c1.64-1.12,1.37-3.51,2.19-5.1   c0.4-0.6,0.8-1.2,1.2-1.8c0.48-0.22,0.97-0.43,1.45-0.65c1.42,0.34,3.19-1.49,3.19-2.8c-0.1-1.57-1.2-1.95-2.24-2.99   c-0.16-1.63-0.31-3.32-0.6-4.94c-0.21-1.15-1.72-1.98-1.13-3.2c0.08-0.23,0.16-0.46,0.23-0.69c0.4-0.3,0.8-0.6,1.2-0.9   c0.59-0.93,0.15-1.17,0.3-2.1c0.1-0.3,0.2-0.6,0.3-0.9c0.64-0.51,1.12-0.71,1.5-1.5c-0.27-1.18-0.47-3.2,0.46-4.02   c1.27-1,3.49-1.95,3.93-2.13c-0.01,0.01-0.03,0.01-0.05,0.02c0.11-0.15,0.22-0.3,0.33-0.45c0.04-0.15,0.08-0.3,0.12-0.45   c0.71-0.35,1.42-0.7,2.13-1.06c0.82-0.66,1.65-1.32,2.47-1.98c0.66-0.03,1.32-0.07,1.98-0.1c1.11-0.91,2.97-2.39,3.17-3.91   c0.04-0.42,0.14-0.92-0.33-1.17c-0.17-0.72,0.77-0.42,0.3-1.05c0.11-0.04,0.22-0.09,0.33-0.13l0.04-0.02   c0.03,0,0.05,0.01,0.08,0.01c0.74,0.22,0.57,1.1,0.74,1.78c0.04-0.34,0.33-0.41,0.6-0.6c0.68-0.22,0.27-1.14,0.1-1.79   c-0.17-1.48-0.35-2.97-0.52-4.45l-0.01,0.03c0.11-0.62,0.32-1.13,0.35-1.8c0.33-0.3,0.31-0.71,0.43-1.14   c0.38-1.14,0.76-2.28,1.15-3.42c0.3-0.6,0.6-1.2,0.9-1.8c0.65-0.4,1.3-0.8,1.95-1.2c0.35-0.55,0.7-1.1,1.05-1.65   c0.32-0.89,0.63-1.78,0.95-2.67C316.71,82.4,317.65,80.86,317.41,79.72z M266.31,136.39c-1.07,0-0.6-0.7-0.6-1.35   c-0.1-0.2-0.2-0.4-0.3-0.6c-0.15-0.1-0.3-0.2-0.45-0.3c0-0.1,0-0.2,0-0.3c-0.44,0-0.51,0.36-0.75,0.6c-0.66,0-0.76-0.25-1.35-0.45   c-0.17,0-0.69,0.69-0.9,0.9c-0.55,0-0.91-0.45-1.2-0.45c-0.54,0-0.66,0.06-1.05,0.45c0,1.06,0.78,1.76,1.05,2.69   c0.38,1.32-0.6,2.4-0.6,3.59c0,0.88-1.75,1.15-2.09,1.5c-0.34,0-0.8-0.35-1.05-0.6c0-0.29-0.1-0.54-0.3-0.75   c-0.03-0.12-0.06-0.23-0.09-0.35c-0.33-0.16-0.8,0.02-1.11,0.23c-0.16,0.13-0.18,0.08,0,0.27c-0.14,0.14-0.31,0.45,0,0.45   c0.32,0,0.3,0.2,0.3,0.45c0.41,0.41,0.75,0,0.75,0.9c1.34,1.34,2.1,2.44,2.1,4.34c0,0.82-1.31,1.16-1.8,1.65   c-0.6,0-0.85-0.3-1.35-0.3c-0.71,0-1,1.05-1.95,1.05c-0.84,0.84-0.3,2.1-0.3,3.14c-0.22,0.22-0.15,0.45-0.15,0.75   c-0.3,0.35-0.6,0.7-0.9,1.05c-0.41,0.19-0.81,0.38-1.22,0.57c-0.09-0.04-0.19-0.08-0.28-0.12c-1.17,0-1.73-0.83-2.54-1.65   c-0.88,0.24-1.67-0.27-2.39,0.45c0,0,0.93-1.2,1.35-1.2c1.15,0,2.47,0.52,3.29,1.35c0.6,0,1.24-0.2,1.65-0.61   c0.43-0.41-0.15-2.38-0.45-2.68c0.15-0.6,0.3-1.2,0.45-1.8c1.18-1.18,2.11-1.95,4.04-1.95c0.2-0.2,0.15-0.33,0.15-0.6   c0-1.39-1.97-0.75-2.84-0.75c-0.35-0.15-0.7-0.3-1.05-0.45c-0.33-0.33-0.45-0.57-0.45-1.05c-0.18-0.26-0.36-0.51-0.53-0.77   c0.07-0.46,0.42-1.13,0.08-1.47c0.4-0.45,0.8-0.9,1.2-1.35c0.78,0,1.68-0.78,2.24-1.35c0.34-0.12,0.68-0.23,1.02-0.35   c0.3-0.18,1.52,0.1,1.52,0.5c0-0.38,0.11-0.3,0.45-0.3c0.11-0.15,0.22-0.3,0.33-0.45c0.55-0.71-0.31-1.93-0.78-2.39   c0-0.85,0.27-1.62,0.3-2.39c0-0.52,2.12-1.8,2.69-1.8c0.25-0.25,0.15-0.7,0.15-1.05c0-0.38-1.04-0.44-1.35-0.75   c0-0.76,0.9-0.92,0.9-1.35c0-0.6-0.95-1.25-1.35-1.65c0.44-0.51,0.93,0.48,1.35,0.9c0.3,0,0.92,1.07,1.2,1.35   c0.7,0,1.35,0.45,1.8,0.45c0.5,0.5,0.21,1.28,0.45,1.95c0.67,0.67,0.95,0.36,1.57,0.74c0.43,0.45,0.85,0.9,1.28,1.35   c0,0.45,0,0.9,0,1.35c0.13,0.19,0.2,0.45,0.45,0.45C266.71,136.2,266.51,136.29,266.31,136.39z M299.99,63.52   c-0.46,0-1.22-0.07-1.46-0.48c-0.47-0.75-0.95-1.49-1.42-2.24c-0.37-0.47-0.74-0.95-1.1-1.42c-0.18-0.6-0.36-1.19-0.54-1.79   c0.26,0.08,0.52,0.16,0.78,0.24c0.39,0.42,0.77,0.57,1.21,0.92c0.31-0.02,0.41,0.03,0.64,0.22c0.88-0.21,1.44,0.97,2.19,1.25   c-0.02,0.19-0.04,0.38-0.06,0.57c-0.04,0.4-0.04,0.5-0.29,0.87C300.01,61.97,300.59,63.5,299.99,63.52z M308.81,98.38   c-0.19,0.16-0.84,0.79-1,0.67c-0.27-0.27-0.54-0.55-0.81-0.82c-0.05-0.2-0.09-0.4-0.14-0.6c0.06-0.29,0.31-1.35,0.44-1.32   c0.52,0.12,1.21,0.16,1.42,0.75c0.08,0.19,0.16,0.38,0.23,0.57C308.91,97.88,308.86,98.13,308.81,98.38z M308.59,95.38   c-0.21,0.24-1.09,0.85-1.35,0.52c-0.06-0.08-0.12-0.16-0.19-0.24c-0.29-0.42-0.63-1.47-0.41-1.94c0.33-0.64,1.5-3.26,2.4-2.05   c0.07,0.14,0.14,0.28,0.21,0.43c0,0.38-0.05,0.58,0.3,0.75C309.24,93.69,308.92,94.53,308.59,95.38z M311.21,78.93   c-0.25,0.1-0.5,0.2-0.75,0.3c-0.72,0.12-0.85,0.2-1.2,0.9c-0.05,0.05-0.1,0.1-0.15,0.15c-0.15,0-0.3,0-0.45,0   c-0.15-0.38-0.3-0.75-0.45-1.13c-0.49-0.74-0.76-1.46-1.34-2.16c-0.35,0.07-0.5-0.21-0.75-0.45c1.59-0.9,0.45-3.14,1.65-4.34   c1.69,1.23,3.01,2.65,4.49,4.04c0.2,0.15,0.4,0.3,0.6,0.45C312.31,77.43,311.76,78.18,311.21,78.93z"/>
            <circle cx="274.39" cy="99.41" r="1.586"/>
        </g>
        <g id="__Ondokuzmayıs">
            <path d="   M327.52,135.05c-0.55-0.48-0.75-1.04-1.35-1.5c-0.18-0.82-2.49-3.09-3.14-3.89c-0.46-0.56-1.35-2.8-1.35-3.44   c-0.35-0.75-0.7-1.5-1.05-2.24c-0.06-1.35-0.12-2.7-0.17-4.05c0.11-0.24,0.22-0.49,0.32-0.73c0.05-1.15,0.1-2.29,0.15-3.44   c0.2-0.65,0.4-1.3,0.6-1.95c0.3-0.5,0.6-1,0.9-1.5c0.54-1.62,0.59-3.34,1.05-4.94c-0.15-0.65-0.3-1.3-0.45-1.95   c0.05-0.1,0.1-0.2,0.15-0.3c0-0.95,0.15-3.59-0.49-4.23c-0.03-0.4-0.05-0.65-0.35-0.94c0.35-1.76-0.85-3.7-1.11-5.45   c-0.1-0.95-0.2-1.9-0.3-2.84c-0.17-0.66-0.34-1.33-0.51-1.99c0.02-0.53,0.04-1.07,0.07-1.6c-0.3-1.75-0.6-3.49-0.9-5.24   c-0.6-1.02-1.07-2.08-1.75-3.07l-0.5-0.52c0.02,0.16,0.04,0.33,0.07,0.49c0.24,1.14-0.7,2.68-1.21,3.72   c-0.32,0.89-0.63,1.78-0.95,2.67c-0.35,0.55-0.7,1.1-1.05,1.65c-0.65,0.4-2.05,1.33-1.2,0.75c0.55-0.1,1.1-0.2,1.65-0.3   c0.19-0.41,0.92-1.36,1.22-1.44c0.09-0.02,0.19-0.04,0.28-0.06c-0.05,0.05-0.1,0.1-0.15,0.15c-0.15,0.3-0.3,0.6-0.45,0.9   c0.25,0,0.5,0,0.75,0c0.03,0.1,0.05,0.21,0.08,0.31c0.32,0.38,0.03,0.99-0.04,1.5c0.04,0.39,0.07,0.79,0.11,1.18   c-0.47,0.17-0.7,1.15-0.95,1.61c-0.79,1.47-1.26,3.17-1.45,4.82c-0.3,0.45-0.6,0.9-0.9,1.35c0,0.35,0,0.7,0,1.05   c-0.4,0.7-0.8,1.39-1.21,2.09c-0.17,0.35,0.04,0.5,0.13,0.91c0.03,0.14,0.53,0.02,0.78,0c0.05-0.66,0.59-1.9,1.05-2.39   c0.31-1.34,0.84-2.44,1.2-3.74c0.47-0.13,0.52-0.79,0.75-1.2c0.56-1.13,1.13-2.25,1.69-3.38c0.5-0.61,0.4-0.82,0.92-0.16   c0.43,0.53-0.5,1.26-0.82,1.59c0.24,1.22-1.07,1.51-1.38,2.38c-0.28,0.8,0.71,0.39,0.61,0.91c-0.33,0.77-1.08,1.02-1.62,1.65   c0.42,0.75-0.58,0.91-0.61,1.53c-0.07,1.56-1.24,2.9-1.69,4.46c-0.02,0.75-0.05,1.5-0.07,2.24c-0.02,0.21-0.54,0.35-0.76,0.44   c0.04-0.42-0.31-0.53-0.37-0.93c0.12-0.89,0.23-1.79,0.35-2.68c0.11-0.63-1.17-0.46-1.47-0.44c-0.05,0.25-0.1,0.5-0.15,0.75   c0.34,0.47,0.51,3.72,0.58,4.5c0.03,0.39-0.29,0.24-0.65,0.4c-0.22-0.24-0.45-0.48-0.67-0.72c0.15-0.39,0.2-1.82,0-2.24   c-0.34-0.73-1.09-1.1-1.59-1.67c0.02,0.2-0.01,0.4-0.03,0.6c-0.2,1.52-2.06,3.01-3.17,3.91c-0.66,0.03-1.32,0.07-1.98,0.1   c-0.82,0.66-1.65,1.32-2.47,1.98c-0.71,0.35-1.42,0.7-2.13,1.06c-0.04,0.15-0.08,0.3-0.12,0.45c-0.11,0.15-0.22,0.3-0.33,0.45   c0.02-0.01,0.04-0.01,0.05-0.02c0.1-0.04,0.11-0.04,0,0c-0.44,0.18-2.65,1.13-3.93,2.13c-0.93,0.82-0.73,2.85-0.46,4.02   c-0.37,0.79-0.86,0.99-1.5,1.5c-0.1,0.3-0.2,0.6-0.3,0.9c-0.15,0.92,0.29,1.16-0.3,2.1c-0.4,0.3-0.8,0.6-1.2,0.9   c-0.08,0.23-0.16,0.46-0.23,0.69c-0.58,1.22,0.92,2.05,1.13,3.2c0.29,1.61,0.44,3.3,0.6,4.94c1.04,1.04,2.15,1.43,2.24,2.99   c0,1.31-1.77,3.14-3.19,2.8c-0.48,0.22-0.97,0.43-1.45,0.65c-0.4,0.6-0.8,1.2-1.2,1.8c-0.83,1.59-0.56,3.98-2.19,5.1   c-0.26,0.18-0.85,0.05-1.25,0.14c-1.39,0.32-3.05,0.8-3.91,1.93c-0.2,0.26-0.03,1.1-0.13,1.51c-0.43,1.87,0.18,3.58,1.05,5.24   c0.2,0.45,0.4,0.9,0.6,1.35c0.09,1.42,1.21,2.74,2.07,3.76c0.61,0.73,1.03,1.62,1.37,2.53c0.95,0.9,1.9,1.8,2.84,2.69l2.08,0.85   c0.39,0.12,0.27-0.07,0.44-0.37c0.55-1-0.06-3.44-0.52-4.59c0.06-0.17,0.18-1.11,0.24-1.27c0.3-0.73,1.21,0.04,1.95,0.3   c0.59,0.21,0.94,0.59,1.35,0.9c0.83,0.63,2.01,0.96,2.99,1.2c0.46-0.21,1,0.07,1.5,0c0.45-0.15,0.9-0.3,1.35-0.45   c0.45,0,0.66-1.17,0.8-1.56c0.23-0.41,0.46-0.82,0.7-1.23c0.39-1.32,0.78-2.63,1.17-3.95c0.08-0.48-0.78-1.28-1.17-1.64   c-0.17,0.17-0.11,0.21-0.3,0.05c-0.3-0.26-0.6-0.53-0.89-0.79c-0.56-0.56-0.19-1.13,0.03-1.78c0.43-1.24,1.61-2.82,2.68-3.4   c0.64,0.12,1.29,0.25,1.93,0.37c0.56-0.1,0.79-0.33,1.19-0.73c0.69,0,1.09-0.64,1.5-1.05c0.89-0.02,1.22-0.82,1.6-1.42   c0.41-0.66-0.54-2.5-0.74-3.4c-0.31-1.15,1-2.11,1.84-2.66c0.45-0.5,0.9-1,1.35-1.5c0.13-0.73,0.11-1.23,0.65-1.73   c0.59-0.54,2.7-0.21,3.54-0.06c0.55-0.05,1.1-0.1,1.65-0.15c0.31,0.39,1.69,0.59,2.24,0.75c0,0.39,0.49,0.4,0.75,0.6   c0.63,0.39,1.25,0.79,1.88,1.18c1.09-0.36,3.36-1.63,4.26-0.73c0.56-0.51,0.45-0.26,1.29-0.02c0.11-0.35,0.22-0.69,0.33-1.04   C328.32,135.48,327.81,135.3,327.52,135.05z"/>
            <circle cx="311.66" cy="119.93" r="1.586"/>
        </g>
        <g id="__Kavak">
            <path d="   M273.85,195.03c1.16,2.37,0.2,4.98-0.23,7.35c-0.24,0.95-0.48,1.9-0.72,2.85c0,0.7,0,1.4,0,2.1c-0.14,0.63-0.29,1.26-0.43,1.89   c-0.24,1.19-0.28,4.1-1.42,4.76c-0.18,0.13-0.36,0.26-0.55,0.39c-0.45,0-0.96,0.03-1.35,0.3c-0.49,0.34-2.23,2.34-2.24,2.84   c-1.87,1.87-2.56,4.8-2.69,7.33c-0.43,0.43-0.66,3.5-0.45,4.04c-0.64,1.38-1.3,2.68-2.24,3.89c0,0.9-0.26,3.55-0.9,4.19   c0.05,0.35,0.1,0.7,0.15,1.05c0.34,0.49,0.62,1,0.7,1.6c0.83,0.79,1.25,4.15,1.25,5.28c0.15,0.45,0.3,0.9,0.45,1.35   c0.76,0.76,0.93,2,1.05,2.99c0.1,0.35,0.2,0.7,0.3,1.05c-0.21,2.64-2.52,4.16-3.89,6.29c-0.73,1.14-1.4,2.56-1.57,3.9   c-0.02,0.45-0.05,0.89-0.07,1.34c-0.15,0.3-0.3,0.6-0.45,0.9c0.34,0,1.11,0.39,0.75,0.75c0.36,0.13,0.72,0.26,1.08,0.38   c0.33-0.11,0.49,0,0.8,0.13c0.97-0.28,0.94,0.13,1.83,0.25c0.5-0.01,1-0.02,1.5-0.03c0.54,0.13,1.08,0.27,1.62,0.4   c0.87-0.34,1.81-0.08,2.75-0.08c0.1-0.25,0.2-0.5,0.3-0.75c0.55-0.4,1.1-0.8,1.65-1.2c0.55,0.02,1.32,0.04,1.8-0.3   c0.71-0.36,1.41-0.71,2.12-1.07c0.44-0.14,0.88-0.28,1.32-0.43c0.85,0.05,1.7,0.1,2.54,0.15c0.32,0.18,0.63,0.36,0.95,0.53   c0.83,0.3,2.43,0.66,2.94,1.41c0.46,0.23,0.91,0.47,1.37,0.7c0.63,0.18,2.62,1.64,3.12,2.14c0.7,0.34,1.41,0.67,2.11,1.01   c0.74,0.3,1.31,0.49,2.08,0.64c0.55,0.55,3.15,1.31,3.89,1.35c1.79,0.08,3.41-0.3,5.09-0.9c0.75-0.2,1.5-0.4,2.24-0.6   c0.95-0.4,1.9-0.8,2.84-1.2c2-0.6,3.99-1.2,5.99-1.8c0.64-0.15,1.2,0.16,1.8,0.3c0.41,0.1,1.69,0.4,1.95,0.15   c1.21,0.58,2.53,1.09,3.89,1.05c0.8-0.02,1.21,0.62,2,0.26c0.08,0.06,0.17,0.13,0.25,0.19c0.01-0.11,0.03-0.21,0.04-0.32   c0.11-1.58,1.27-2.64,2.35-3.72c0.15-0.35,0.3-0.7,0.45-1.05c0.08-0.54,0.17-1.07,0.25-1.61c-0.03-0.11-0.07-0.22-0.1-0.34   c0.06-0.32,0.41-0.49,0.15-0.75c0.44-0.84,1.04-1.39,1.65-2.09c0.55-0.75,1.1-1.5,1.65-2.24c0.25-0.25,0.5-0.5,0.75-0.75   c0.4-1,0.8-2,1.2-2.99c0.1-0.4,0.19-0.8,0.29-1.2c0.85-0.9,1.66-0.16,2.55-0.75c0.15-0.15,0.3-0.3,0.45-0.45   c0.8-0.5,1.6-1,2.39-1.5c0.45-0.2,0.9-0.4,1.35-0.6c0.98-0.6,1.47-2.12,1.81-3.14c0.18-0.34,0.36-0.68,0.55-1.02   c0.23-1.12,0.74-2.37,1.43-3.29c1.18-1.61,2.37-3.21,3.55-4.82c-2.91-2.91-2.42-7.08-4.32-10.43c-0.41-0.73-1.24-3-2.17-3.2   c-0.52-0.07-0.06-0.06-0.69,0.02c-0.58,0.11-0.45,0.07-0.9,0.37c-0.03,0.14-0.87,0.53-0.9,0.67c-0.33,0.41-0.77,1.65-1.35,1.65   c-0.4,0.1-0.8,0.2-1.2,0.3c-0.65-0.45-1.3-0.9-1.95-1.35c-0.86,0-3.39,0.23-3.86-0.46c-0.39-0.64-0.79-1.28-1.18-1.92   c-0.23-0.92-0.46-1.83-0.69-2.75c-0.4-0.74-1.39-1.8-0.93-2.6c0.48-0.76,1.02-1.14,1.15-2.13c0.14-0.06,0.28-0.11,0.42-0.17   c0.1-0.65,0.2-1.3,0.3-1.95c-0.2-0.85-0.4-1.7-0.6-2.54c-0.09-1.18-0.03-1.82-0.3-2.99c-0.15-0.55-0.3-1.1-0.45-1.65   c0-0.36-0.62-2.13-0.9-2.39c-0.25-1.06-1.06-3.16-1.95-3.74c0-0.61-1.53-3.05-1.95-3.59c0-0.68-0.69-2.08-1.23-2.35   c-0.57-0.25-1.01-0.14-1.62-0.05c-0.48-0.48-2.96-0.86-3.59-0.75c-0.4-0.15-0.8-0.3-1.2-0.45c-0.61-0.26-1.21-0.53-1.82-0.79   c-0.29-0.29-0.58-0.57-0.87-0.86c-0.62-0.24-1.49-0.48-1.65-1.2c-1.76-0.69-3.21-1.7-4.79-2.69c-0.7-0.25-1.4-0.5-2.1-0.75   c-0.25-0.3-0.5-0.6-0.75-0.9c-0.25-0.15-0.5-0.3-0.75-0.45c0.05-0.1,0.1-0.2,0.15-0.3c-0.1-0.15-0.2-0.3-0.3-0.45   c-0.52-0.43-1.14-0.92-1.2-1.65c-0.3-0.2,0-0.25-0.3-0.45l-0.42,0.33c-1.26,1.55-3.09,2.51-4.82,3.41   c-0.82-0.14-2.88,0.92-3.59,1.35c-0.05,0.38-0.64,0.75-0.9,1.05c-1,0-2.09,0.69-2.99,1.05c-0.5,0.1-1,0.2-1.5,0.3   c-0.8,0.05-1.6,0.1-2.39,0.15c-0.3,0.2-0.6,0.4-0.9,0.6c-0.27,0.59-1.88,1.76-2.5,2.01c-0.51,0.48-1.03,0.95-1.54,1.43   c-0.15,0.39-0.3,0.79-0.45,1.18c-0.29,1.07-0.62,2.17-1.12,3.11L273.85,195.03z"/>
            <circle cx="303.6" cy="241.75" r="1.586"/>
        </g>
        <g id="__Ladik">
            <path d="M335.6,274.52c-0.13-0.11-0.26-0.22-0.39-0.33   c-0.83-1.61-1.04-2.79-2.45-3.86c-0.32-0.24-0.82-0.15-1.2-0.15c-0.46-0.46-1.99-0.42-2.54-0.6c-0.7-0.55-1.4-1.1-2.09-1.65   c-0.1,0.05-0.2,0.1-0.3,0.15c-0.64-0.24-1.11-0.3-1.8-0.3c-0.45-0.3-0.9-0.6-1.35-0.9c-0.71,0-1.9-0.18-2.31-1.02l-0.34,0.08   c-0.79,0.36-1.2-0.28-2-0.26c-1.36,0.04-2.68-0.47-3.89-1.05c-0.25,0.25-1.54-0.05-1.95-0.15c-0.59-0.14-1.16-0.45-1.8-0.3   c-2,0.6-3.99,1.2-5.99,1.8c-0.95,0.4-1.9,0.8-2.84,1.2c-0.75,0.2-1.5,0.4-2.24,0.6c-1.67,0.6-3.3,0.98-5.09,0.9   c-0.74-0.03-3.35-0.8-3.89-1.35c-0.77-0.16-1.35-0.34-2.08-0.64c-0.7-0.34-1.41-0.67-2.11-1.01c-0.5-0.5-2.49-1.97-3.12-2.14   c-0.46-0.23-0.91-0.47-1.37-0.7c-0.51-0.75-2.11-1.11-2.94-1.41c-0.32-0.18-0.63-0.36-0.95-0.53c-0.85-0.05-1.7-0.1-2.54-0.15   c-0.44,0.14-0.88,0.28-1.32,0.43c-0.71,0.36-1.41,0.71-2.12,1.07c-0.48,0.34-1.24,0.32-1.8,0.3c-0.55,0.4-1.1,0.8-1.65,1.2   c-0.1,0.25-0.2,0.5-0.3,0.75c-0.94,0-1.88-0.26-2.75,0.08c-0.54-0.13-1.08-0.27-1.62-0.4c-0.5,0.01-1,0.02-1.5,0.03   c-0.89-0.12-0.86-0.53-1.83-0.25c-0.31-0.12-0.47-0.23-0.8-0.13c-0.31-0.11-0.82-0.2-1.12-0.31c-1.05,0.45-1.99,1.04-2.66,1.72   c-0.45,0.45-0.9,0.9-1.35,1.35c-0.71,0-1.6,0.51-2.24,0.9c-0.75,0-1.48,0.03-2.09,0.45c-0.34,0.23-1.65,0.3-1.65,0.75   c-0.5,0.15-1,0.3-1.5,0.45c-0.15,0.2-0.3,0.4-0.45,0.6c0.05,0.15,0.1,0.3,0.15,0.45c0,1.73,0.56,3,1.11,4.62   c0.23,0.5,0.46,1.01,0.68,1.52c0.44,0.44,1.8,1.8,1.8,2.39c-0.23,0.88-0.3,1.64-0.3,2.54c0.05,0.1,0.1,0.2,0.15,0.3   c-0.15,0.35-0.3,0.7-0.45,1.05c-0.35,0.3-0.7,0.6-1.05,0.9c-0.35,0.05-0.7,0.1-1.05,0.15c-0.24-0.24-1.09-0.53-1.5-0.45   c-0.8,0.3-1.6,0.6-2.39,0.9c-1.35-0.27-2.12-1.5-3.59-1.5c-0.46,0.18-0.92,0.36-1.38,0.54c-0.29,0.22-0.58,0.44-0.87,0.66   c-0.65,0.15-1.3,0.3-1.95,0.45c-0.27-0.27-1.57,0.01-2.1,0c-1.04-0.02-2.82-0.62-3.59,0.15c-0.1,0.3-0.2,0.6-0.3,0.9   c0,1.24-0.84,1.84-1.5,2.69c-0.3,0.75-0.6,1.5-0.9,2.24c-0.21,0.74-1.09,1.74-0.81,2.5c0.11,0.29-0.02,0.34,0.32,0.34   c0.81-0.1,1.62-0.2,2.43-0.3c1.16,0.32,2.04,1.31,2.75,2.29c0.91,0.41,1.65,1.89,2.18,2.65c0.1,0.45,0.2,0.9,0.3,1.35   c0.05,0.1,0.1,0.2,0.15,0.3c0.29,0.14,0.45,0.15,0.6,0.45c1.15-0.05,2.29-0.1,3.44-0.15c0,0.31,0.98,0.2,1.27,0.25   c1.47,0.02,2.94,0.03,4.41,0.05c1.49-0.27,2.78-1.5,4.49-1.5c1.63,1.63,4.17,2.07,6.43,2.24c0.27,0.02,1.02-0.16,1.05-0.15   c1.2,0.25,2.39,0.5,3.59,0.75c0.4,0,0.8,0,1.2,0c0.41-0.29,1.24-0.54,1.65-0.15c0.32-0.05,0.61-0.15,0.9,0   c0.03-0.01,1.1-0.17,1.39-0.25c-0.01-0.02-0.03-0.03-0.04-0.05c0.15,0,0.14,0.02,0.04,0.05c0.04,0.05,0.08,0.09,0.13,0.14   c2.9,0.19,5.7,0.56,8.66,0.56c0.39,0,0.81,0.03,1.05-0.3c0.49,0.08,2.34,0.39,2.54,0.6c1.7,0,3.13,0.67,4.79,1.05   c0.35,0.06,0.7,0.13,1.06,0.19c1.48,0.73,3.02,1.18,4.48,2.05c0.35,0.16,0.71,0.31,1.06,0.47c0.83,0.43,1.67,0.87,2.5,1.3   c0.84,0.26,3.03,1.23,3.62,1.82c1.15,0.25,2.29,0.5,3.44,0.75c1,0.05,2,0.1,2.99,0.15c0.7,0.2,1.4,0.4,2.09,0.6   c1.01-0.11,1.78-0.74,2.73-1c1.82-0.5,5.25-2.65,6.55-3.94c0.75-0.55,1.5-1.1,2.24-1.65c0.49-0.37,0.97-0.74,1.46-1.1   c0.84-0.66,1.44-1.44,1.98-2.34c0.75-0.75,1.5-1.5,2.24-2.24c0.54-0.54,2.1-1.82,2.1-2.54c1.15-0.62,1.94-2.14,2.69-3.14   c0.7-0.9,1.4-1.8,2.09-2.69c0.2-0.3,0.4-0.6,0.6-0.9c0.39-0.46,1.05-0.86,1.05-1.5c0.4-0.35,0.8-0.7,1.2-1.05   c0.45-0.67,0.98-1.28,1.5-1.95c0-0.1,0-0.2,0-0.3c0.5-0.6,1-1.2,1.5-1.8c0.37-0.27,1.87-2.98,1.95-3.44   c0.05-0.31,0.32-0.63,0.29-0.92l-0.14-0.27c0.09,0.09,0.13,0.18,0.14,0.27l0.01,0.03C336.65,276.73,335.83,275.68,335.6,274.52z    M305.37,293.23c-0.2,0.1-0.4,0.2-0.6,0.3c-0.15,0.1-0.3,0.2-0.45,0.3c-0.59-0.2-0.86-0.15-1.8-0.15c0,0.39-0.36,0.36-0.6,0.45   c0-0.18-0.15-0.6-0.3-0.6c-0.38,0-0.19,0.32-0.6,0.32c-0.37,0-0.33-0.21-0.6-0.47c-0.15-0.05-0.3-0.1-0.45-0.15   c-0.3,0.1-0.6,0.2-0.9,0.3c-0.15-0.25-0.3-0.5-0.45-0.75c-0.35-0.15-0.7-0.3-1.05-0.45c-0.27,0-0.4,0.05-0.6-0.15   c-1.44,0-2.56-0.02-3.59-1.05c-0.51,0-1.93-0.36-2.39-0.6c0-0.37-0.15-0.41-0.45-0.6c-0.2,0.2-0.1,0.2-0.3,0   c-0.78,0-0.84-0.39-1.35-0.9c0-0.67-0.18-1.62,0.3-2.09c-0.25,0.1-0.5,0.2-0.75,0.3c-0.25-0.05-0.5-0.1-0.75-0.15   c-0.34-0.34-0.54-0.75-0.3-1.2c0.3,0,0.6,0,0.9,0c0-0.3,0.45-0.9,0.75-0.9c0.6,0,2.84-0.05,2.84,0.6c0.45,0.15,0.87,0.27,1.2,0.6   c0.59,0,2.01,0.37,2.39,0.75c0.88,0,1.45,0.45,2.24,0.45c0.4,0,0.64-0.56,0.9-0.3c-0.05,0.15-0.1,0.3-0.15,0.45   c1,1,0.7,1.2,2.39,1.2c0.6,0.2,1.2,0.4,1.8,0.6c0.25,0.15,0.5,0.3,0.75,0.45c0.3,0.35,0.6,0.7,0.9,1.05c0.31,0.36,1.2,0.27,1.2,0.9   C305.52,292.15,305.67,292.93,305.37,293.23z"/>
            <circle cx="271.13" cy="289.04" r="1.586"/>
        </g>
        <g id="__Havza">
            <path d="   M235.64,299.36c-0.05-0.1-0.1-0.2-0.15-0.3c-0.1-0.45-0.2-0.9-0.3-1.35c-0.53-0.76-1.27-2.24-2.18-2.65   c-0.71-0.97-1.59-1.97-2.75-2.29c-0.81,0.1-1.62,0.2-2.43,0.3c-0.34,0-0.21-0.06-0.32-0.34c-0.28-0.77,0.6-1.77,0.81-2.5   c0.3-0.75,0.6-1.5,0.9-2.24c0.66-0.85,1.5-1.45,1.5-2.69c0.1-0.3,0.2-0.6,0.3-0.9c0.77-0.77,2.55-0.17,3.59-0.15   c0.53,0.01,1.82-0.27,2.1,0c0.65-0.15,1.3-0.3,1.95-0.45c0.29-0.22,0.58-0.44,0.87-0.66c0.46-0.18,0.92-0.36,1.38-0.54   c1.47,0,2.25,1.23,3.59,1.5c0.8-0.3,1.6-0.6,2.39-0.9c0.41-0.08,1.26,0.21,1.5,0.45c0.35-0.05,0.7-0.1,1.05-0.15   c0.35-0.3,0.7-0.6,1.05-0.9c0.15-0.35,0.3-0.7,0.45-1.05c-0.05-0.1-0.1-0.2-0.15-0.3c0-0.9,0.07-1.67,0.3-2.54   c0-0.6-1.35-1.95-1.8-2.39c-0.23-0.51-0.46-1.01-0.68-1.52c-0.55-1.62-1.11-2.89-1.11-4.62c-0.05-0.15-0.1-0.3-0.15-0.45   c0.15-0.2,0.3-0.4,0.45-0.6c0.5-0.15,1-0.3,1.5-0.45c0-0.45,1.31-0.52,1.65-0.75c0.61-0.41,1.35-0.45,2.09-0.45   c0.65-0.39,1.54-0.9,2.24-0.9c0.45-0.45,0.9-0.9,1.35-1.35c0.77-0.78,2.69-1.8,2.69-1.8c0.36-0.36-0.41-0.75-0.75-0.75   c0.15-0.3,0.3-0.6,0.45-0.9c0.02-0.45,0.05-0.89,0.07-1.34c0.17-1.34,0.84-2.76,1.57-3.9c1.37-2.13,3.68-3.64,3.89-6.29   c-0.1-0.35-0.2-0.7-0.3-1.05c-0.11-1-0.28-2.23-1.05-2.99c-0.15-0.45-0.3-0.9-0.45-1.35c0-1.13-0.42-4.49-1.25-5.28   c-0.08-0.6-0.35-1.11-0.7-1.6c-0.05-0.35-0.1-0.7-0.15-1.05c0.64-0.64,0.9-3.29,0.9-4.19c0.94-1.21,1.61-2.51,2.24-3.89   c-0.21-0.54,0.02-3.61,0.45-4.04c0.13-2.53,0.83-5.47,2.69-7.33c0.01-0.5,1.76-2.51,2.24-2.84c0.39-0.27,0.89-0.3,1.35-0.3   c0.18-0.13,0.36-0.26,0.55-0.39c1.14-0.66,1.18-3.56,1.42-4.76c0.14-0.63,0.29-1.26,0.43-1.89c0-0.7,0-1.4,0-2.1   c0.24-0.95,0.48-1.9,0.72-2.85c0.44-2.37,1.4-4.98,0.23-7.35l0.09,0.17c-0.07-0.57-0.61-1.11-1.05-1.1c-0.6,0.02-1.2,0.03-1.8,0.05   c-1.15,0.22-2.01,0.7-3.14,0.9c-0.7-0.1-1.4-0.2-2.1-0.3c-0.85-0.15-1.7-0.3-2.54-0.45c-0.81-0.69-2.16-0.5-3.14-0.75   c-0.25-0.25-0.49-0.51-0.74-0.76c-0.12-1.34-0.23-2.68-0.35-4.03c-0.27-2.39-1.5-4.34-2.8-6.29c-0.79-1.31-2.69-0.65-3.89,0   c-0.25,0.25-0.5,0.5-0.75,0.75c-0.31,0.49-0.62,0.98-0.93,1.47c-0.88,1.26-1.43,2.15-2.82,3.02c-0.38-0.21-1.18-0.02-1.6,0.1   c-0.22,0.06-0.44,0.57-0.61,0.82c-0.25,0.36,0.13,0.83,0.42,1.17c0.3,0.3,0.6,0.6,0.9,0.9c0.28,0.61,0.57,1.21,0.85,1.82   c-0.13,0.74-0.25,1.48-0.38,2.22c-0.09,0.56-1.03,0.43-1.43,0.63c-0.79,0.39-0.73,0.85-1.29,1.32c-0.54,0.45-0.99,0.87-1.55,1.28   c-0.22-0.08-0.44-0.16-0.66-0.23c-1.04-0.3-1.7-1.06-2.28-1.94c0.24-0.35-0.07-1.38-0.31-1.74c0-0.76-0.26-1.33-0.59-2   c-0.45-0.11-0.69-0.59-1.05-0.9c-0.54-0.01-1.08-0.57-1.54-0.87c-0.64-0.3-1.29-0.61-1.93-0.91c-0.94-0.55-1.88-1.11-2.82-1.66   c-0.75,0.3-1.73-0.82-2.54-0.75c-1.05,0.1-2.1,0.2-3.14,0.3c-0.7,0.3-1.4,0.6-2.09,0.9c-0.31-0.26-0.38-0.17-0.75-0.15l-0.45,0.6   c0,0.47-0.5,0.68-0.75,1.05c-0.3,0.95-0.6,1.9-0.9,2.84c0.05,0.45,0.1,0.9,0.15,1.35c0,1.01-0.19,1.85,0.15,2.84   c0.43,1.23,0.46,2.46,0.3,3.74c0.05,0.25,0.1,0.5,0.15,0.75c0.32,0,0.28,0.91,0.32,1.19c0.14,1.05,0.29,2.1,0.43,3.15   c-0.26,0.26-0.11,0.68-0.04,1.02c0.36,0.36,0.73,0.72,1.09,1.08c0.08,0.25,0.17,0.51,0.25,0.76c0.22,0.67-0.36,1.82-0.66,2.4   c-0.11,0.49-0.22,0.99-0.34,1.48c-0.28,0.5-0.56,1.01-0.84,1.51c-0.06,0.37-0.12,0.74-0.18,1.1c-0.21,0.43-0.42,0.85-0.63,1.28   c-0.05-0.05-0.1-0.1-0.15-0.15c-0.25,0.35-0.5,0.7-0.75,1.05c-0.18,0.12-0.35,0.24-0.53,0.36c-0.58,0.49-2.16,1.44-2.91,1.44   c-0.45,0.65-0.9,1.3-1.35,1.95c-0.17,0-0.6,0.79-0.6,1.05c-0.2,0.47-0.41,0.94-0.61,1.4c-0.53,0.79-1.07,1.57-1.6,2.36   c-0.66,1.01-1.63,1.4-2.43,2.23c-0.63,0.65-0.78,1.25-0.6,2.1c-0.38,0.31-0.41,1.99-0.45,2.54c-0.3,0.5-0.6,1-0.9,1.5   c-0.62,1.18-1.35,2.2-1.35,3.59c0.2,0.7,0.4,1.4,0.6,2.09c0.55,0.7,1.1,1.4,1.65,2.1c-0.2,0.3-0.08,0.81-0.15,1.2   c-0.65,0.95-1.3,1.9-1.95,2.84c-0.3,0.31-0.6,0.61-0.89,0.92c-0.55,0.54-1.1,1.08-1.65,1.62c-0.25,0.35-0.5,0.7-0.75,1.05   c-0.43-0.26-2.3,0.78-2.87,0.97c-0.67,0.23-1.58,0.55-2.28,0.29c-1.9,0.33-3.78,0.41-5.47,1.43c-0.46-0.38-1.12,0.02-1.65,0   c-0.35-0.09-0.7-0.18-1.06-0.27c-0.75-0.16-1.49-0.32-2.24-0.48c-0.17,0.07-0.35,0.14-0.52,0.21c-0.43-0.02-0.85-0.04-1.28-0.06   c-1.21,0.26-2.35,1.2-3.59,1.2c-0.25,0.2-0.5,0.4-0.75,0.6c-0.4,0.65-0.8,1.3-1.2,1.95c-0.47,0.54-0.93,1.07-1.4,1.61   c-0.62,0.84-1.59,1.34-2.02,2.37l-0.17-0.09c0.58,0.3,1.28,0.58,1.18,1.34c-0.04,0.35-0.09,0.7-0.13,1.05   c-0.27,0.27-0.44,0.51-0.45,0.9c-0.85,1.28-2.43,2.64-2.09,4.34c0.23,1.16,1.5,3.41,2.23,4.38c0.03,0.47,0.38,0.65,0.56,1.06   c0.17,0.48,0.34,0.97,0.51,1.45c1.05,1.45,2.1,2.89,3.14,4.34c0.35,0.3,0.7,0.6,1.05,0.9c1.56,0.37,3.18,0.47,4.69,1.04   c0.28,0.11,0.8,0.03,1-0.14c0.5,0.05,1,0.1,1.5,0.15c1.95,0.22,3.93,0.13,5.8,0.3c0.4,0.04,1.26,0.12,1.53-0.15   c2.32,0,4.92-0.85,6.88,0.45c0.47,0,1.01-0.04,1.35,0.3c0.4,0-0.11,0.72,0.28,0.76c0.47,0.03,0.89,0.24,1.37-0.01   c0.93,0.49,2.75,1.21,3.14,2.24c1.02,0.51,3.34,2.08,3.7,3.18c0.17,0.52,0.25,2.31-0.11,2.66c0.24,0.38,0.82,0.91,0.75,1.35   c-0.06,0.35-0.69,1.81-0.35,2c0.81,0.58,1.63,1.16,2.44,1.74c0,0.68,0.48,1.62,1.05,2.09c1.45,1.21,3.38,2.26,5.24,2.69   c0.99,0.23,1.79,0.9,2.84,0.9c0.31,0.31,1.64,0.6,2.1,0.6c0.49,0.49,2.31,0.6,2.99,0.6c0.63-0.11,0.91-0.13,1.35-0.35   c0.8-0.47,1.61-0.94,2.41-1.42L235.64,299.36z"/>
            <circle cx="221.44" cy="273.02" r="1.586"/>
        </g>
        <g id="__Asarcık">
            <path d="   M321.13,265.82c0.11-1.58,1.27-2.64,2.35-3.72c0.15-0.35,0.3-0.7,0.45-1.05c0.08-0.54,0.17-1.07,0.25-1.61   c-0.03-0.11-0.07-0.22-0.1-0.34c0.06-0.32,0.41-0.49,0.15-0.75c0.44-0.84,1.04-1.39,1.65-2.09c0.55-0.75,1.1-1.5,1.65-2.24   c0.25-0.25,0.5-0.5,0.75-0.75c0.4-1,0.8-2,1.2-2.99c0.1-0.4,0.19-0.8,0.29-1.2c0.85-0.9,1.66-0.16,2.55-0.75   c0.15-0.15,0.3-0.3,0.45-0.45c0.8-0.5,1.6-1,2.39-1.5c0.45-0.2,0.9-0.4,1.35-0.6c0.98-0.6,1.47-2.12,1.81-3.14   c0.18-0.34,0.36-0.68,0.55-1.02c0.23-1.12,0.74-2.37,1.43-3.29c1.18-1.61,2.37-3.21,3.55-4.82l-0.42,0.32   c0.15-0.22,0.17-0.17,0.42-0.17c0.57,0,1.26,0.76,1.65,1.2c-0.16,0.16,0.56,1.14,0.75,1.5c-0.08,0.47,0.97,1.88,1.2,2.39   c0.46,1.06,0.35,2.13,1.05,2.99c0.3,0.2,0.6,0.4,0.9,0.6c0.36,0.37,0.68,0,1.05,0c0.95,0,1.72-0.13,2.67,0.11   c1.51,0.41,3.01,0.83,4.52,1.24c0.37-0.37,1.15-0.04,1.65-0.15c0.25-0.1,0.5-0.2,0.75-0.3c0.35,0.1,0.7,0.2,1.05,0.3   c0.65-0.15,1.3-0.3,1.95-0.45c0.71,0.01,0.11-0.02,1.35-0.6c0.3-0.1,0.75-0.05,1.05-0.15c0.6,0.05,1.05-0.5,1.65-0.45   c0.59-0.17,1.06-0.46,1.5-0.9c0.36,0,1.53-0.48,1.8-0.75c0.4,0,0.8,0,1.2,0c0.19,0,0.4,0.11,0.61,0.28   c0.84,0.67,1.85,2.33,2.38,2.86c0.44,0.44,1.05,0.57,1.35,1.2c0.34,0.3,0.69,0.61,1.03,0.91c0.36,0.19,0.71,0.39,1.07,0.58   c0.57,0.42,1.5,2.66,1.5,3.29c0.31,0.49,0.75,0.9,0.75,1.5c0.43,0.43,1.05,1.18,1.05,1.8c0.49,0.49,1.3,0.84,1.65,1.5   c0.38,0,0.65,0.07,0.96,0.29c0.46,0.33,0.77,1.06,1.44,1.06c0.95,1.1,1.9,2.19,2.84,3.29c0,0.75,0,1.5,0,2.24   c-0.77,0.77-1.21,2.22-2.09,3.14c-1.15,1.2-2.77,1.94-3.44,3.44c0.05,0.15,0.1,0.3,0.15,0.45c-0.79-0.38-1.07-0.26-1.59,0.5   c-0.18,0.27-0.64,0.41-0.35,0.7c-0.18,0.1-0.35,0.21-0.53,0.31c-0.3,0.18-0.69-0.1-1.12-0.01c-0.34,0.07-1.65,0.51-1.65,0   c-0.05,0.05-0.1,0.1-0.15,0.15c-0.65-0.2-1.3-0.4-1.95-0.6c-0.32-0.32-0.44-0.48-0.9-0.75c-0.35,0-0.7,0-1.05,0   c-0.35,0.15-0.7,0.3-1.05,0.45c-0.05,0.1-0.1,0.2-0.15,0.3c-0.29,0.29-0.07,0.42,0,0.75c0.05,0.3,0.1,0.6,0.15,0.9   c0.17,0.83,1.8,1.78,2.39,2.1c0.36,0.36,0.95,1,0.45,1.5c0.05,0.15,0.1,0.3,0.15,0.45c-0.37,0.54-0.48,0.71-0.3,1.35   c0.25,0.91,1.1,1.27,1.65,2.1c-0.05,0.25-0.1,0.5-0.15,0.75c0.05,0.35,0.1,0.7,0.15,1.05c-0.16,0.58-0.3,0.7-0.3,1.35   c0.15,0.25,0.3,0.5,0.45,0.75c0.35,0.35,0.7,0.7,1.05,1.05c-0.05,0.05-0.1,0.1-0.15,0.15c0.2,0.15,0.4,0.3,0.6,0.45   c0,0.49-0.31,0.82-0.6,1.2c0,0.85,0,1.7,0,2.54c-0.35,0.52-0.79,0.64-1.2,1.05c0.33,0.33-0.04,0.63-0.3,0.9   c0,0.75-0.9,1.29-1.5,1.5c-0.24,0.24-2.21-0.86-2.54-1.2c-0.42,0-1.19,0.15-1.5-0.15c-0.37,0-0.45-0.91-0.45-1.21   c0-0.36-0.31-1.93,0.15-1.93c-0.05-0.5-0.1-1-0.15-1.5c0.58-0.47,0.28-3.28,0.15-4.04c0.34-0.55,0.13-3.01-0.45-3.59   c-0.1-0.6-0.2-1.2-0.3-1.8c-0.36-0.9-0.72-1.59-0.92-2.53c-0.34-0.65-0.68-1.31-1.02-1.96c-0.25-0.2-0.5-0.4-0.75-0.6   c-0.58-0.58-0.8-0.15-1.35-0.15c-1.25,0.2-2.49,0.4-3.74,0.6c-0.5-0.21-0.99-0.41-1.49-0.62c-4.11-2.48-9.12-1.33-13.21,0.71   c-0.46,0.23-0.87-0.24-1.17-0.54c-0.29,0-0.53,0.07-0.75-0.15c-0.85-0.4-1.7-0.8-2.54-1.2c-0.95-0.1-1.9-0.19-2.85-0.29   c-0.42-0.04-1.32,1.46-1.64,1.78c0.11,0.29-0.16,1.65-0.3,1.65c0.47,1.77-0.65,2.95-0.6,4.49c-0.29,0.28-0.3,0.36-0.3,0.75   c-0.15,0.1-0.3,0.2-0.45,0.3c0-1.08-0.81-2.13-1.05-3.29c-0.13-0.11-0.26-0.22-0.39-0.33c-0.83-1.61-1.04-2.79-2.45-3.86   c-0.32-0.24-0.82-0.15-1.2-0.15c-0.46-0.46-1.99-0.42-2.54-0.6c-0.7-0.55-1.4-1.1-2.09-1.65c-0.1,0.05-0.2,0.1-0.3,0.15   c-0.64-0.24-1.11-0.3-1.8-0.3c-0.45-0.3-0.9-0.6-1.35-0.9c-0.71,0-1.9-0.18-2.31-1.02c-0.08-0.16-0.16-0.31-0.24-0.47   L321.13,265.82z"/>
            <circle cx="346.53" cy="252.52" r="1.586"/>
        </g>
        <g id="__İlkadım">
            <path d="   M337.34,219.88c-0.52-0.07-0.06-0.06-0.69,0.02c-0.58,0.11-0.45,0.07-0.9,0.37c-0.03,0.14-0.87,0.53-0.9,0.67   c-0.33,0.41-0.77,1.65-1.35,1.65c-0.4,0.1-0.8,0.2-1.2,0.3c-0.65-0.45-1.3-0.9-1.95-1.35c-0.86,0-3.39,0.23-3.86-0.46   c-0.39-0.64-0.79-1.28-1.18-1.92c-0.23-0.92-0.46-1.83-0.69-2.75c-0.4-0.74-1.39-1.8-0.93-2.6c0.48-0.76,1.02-1.14,1.15-2.13   c0.14-0.06,0.28-0.11,0.42-0.17c0.1-0.65,0.2-1.3,0.3-1.95c-0.2-0.85-0.4-1.7-0.6-2.54c-0.09-1.18-0.03-1.82-0.3-2.99   c-0.15-0.55-0.3-1.1-0.45-1.65c0-0.36-0.62-2.13-0.9-2.39c0.15-0.05,0.3-0.1,0.45-0.15c0.45,0,2.61-0.33,2.69-0.3   c1.85-1.15,4.12-1.88,5.69-3.44c0-0.55,0.47-2.12,0.9-2.54c0.17-0.73,1.11-3.44,0.75-3.89c0.2-0.5,0.4-1,0.6-1.5   c0.35-1.3,0.7-2.59,1.05-3.89c0-0.5,0.26-1.44,0.75-1.65c-0.01-0.31,0.04-0.49-0.15-0.75c0.24-0.46,0.95-2.13,1.35-2.24   c0.21-0.48,0.35-0.85,0.75-1.2c0.13-0.58,0.32-1.18,0.75-1.5c0.31-0.23,0.21-1.35,0.75-1.35c1.07-1.07,4.17-0.21,5.54,0.15   c2,0.2,3.99,0.4,5.99,0.6c0.89,0.19,2.96,0.82,3.74,0.45c0.84,0.27,3.13,0.76,3.74,0.15c0.54-0.09,0.72,0.06,1.13-0.39   c1.08-1.08,1.37-1.71,1.57-3.2c0.08-0.63,0.46-1.09,0-1.65c0.17-0.37,0.28-0.97,0.75-1.05c0.18-0.49,0.67-1.91,1.02-1.74   c0.59,0.29,0.9,0.19,1.52,0.09c0.49,0.36,0.99,0.72,1.48,1.08c0.5,0.34-0.16-0.85,0.33-0.53c0.36,0.22,2.16,1.49,1.79,1.83   c-0.22,0.29-0.5,0.2-0.42,0.6c-0.01,0.1-0.02,0.21-0.03,0.31c0.45,0.25,0.9,0.5,1.35,0.75c0,0.1,0,0.2,0,0.3   c-0.83,0-0.03,1.26-0.87,1.38c-0.21,0.03-0.3-0.15-0.36,0.1c-0.24,1.02-0.61,2.47,0.06,3.46c-0.08,0.5,0.44,1.08,0.87,0.89   c0.21,0.42,0.2,0.74,0.76,0.76c0.1,0,0.19-0.01,0.29-0.01c0-0.09,0.03-2.34,0.18-1.67c0.28,0.98,0.02,3.18,1.32,3.47   c-0.37,1.49-1.37,3.01-2.28,4.25c0.06,0.41-0.29,0.57-0.56,0.84c-0.1,0.35-0.2,0.7-0.3,1.05c-0.09,0-0.18,0.01-0.28,0.01   c-0.31-0.05-0.61-0.11-0.92-0.16c-0.33,0.24-0.75,0.41-0.9,0.75c-0.4,0.1-0.8,0.2-1.2,0.3c-0.57,0.29-1.14,0.57-1.72,0.86   c-0.43,0.21-0.85,0.43-1.28,0.64c-0.53,0.49-0.86-0.04-1.5,0.6c-0.62,0-1.68,0.3-1.95,0.9c-0.44,0.17-2.32,1.14-2.46,1.52   c-0.18,0.69-0.36,1.38-0.53,2.07c-0.2-0.2-0.4-0.4-0.6-0.6c-0.05,0.2-0.1,0.4-0.15,0.6c-0.15-0.05-0.3-0.1-0.45-0.15   c0,0.15,0,0.3,0,0.45c-0.42,0.15-0.97,0.52-1.35,0.15c-0.34-0.34-0.71-0.75-1.2-0.75c-0.18-0.38-0.53-0.79-0.15-1.2   c-0.44-0.62-0.87-1.23-1.31-1.85c-0.25-0.32-0.48-0.89-0.89-0.78c-0.94,0.36-1.5,1.52-1.99,2.48c-0.48,0-0.9,0.8-0.9,1.2   c-0.2,0.2-0.4,0.4-0.6,0.6c-0.29,0.29-0.76,0.9-0.6,1.35c-0.85,1.3-1.7,2.59-2.54,3.89c-0.4,0.75-0.8,1.5-1.2,2.24   c0,0.85-0.64,4.27-1.05,4.94c0,0.7-0.2,2.16,0.3,2.69c-0.04,0.35-0.14,0.57,0,0.9c-0.15,0.9-0.3,1.8-0.45,2.69   c0.05,0.5,0,1.02,0.05,1.52c-0.07,1.05-0.12,1.72-0.22,2.32L337.34,219.88z"/>
            <circle cx="367.18" cy="179.49" r="1.586"/>
        </g>
        <g id="__Atakum">
            <path d="   M363.11,168.93c-0.35-0.17-0.83,1.25-1.02,1.74c-0.46,0.08-0.58,0.67-0.75,1.05c0.46,0.56,0.08,1.02,0,1.65   c-0.2,1.49-0.49,2.12-1.57,3.2c-0.4,0.45-0.59,0.3-1.13,0.39c-0.61,0.61-2.91,0.12-3.74-0.15c-0.78,0.37-2.85-0.26-3.74-0.45   c-2-0.2-3.99-0.4-5.99-0.6c-1.37-0.36-4.46-1.22-5.54-0.15c-0.54,0-0.44,1.12-0.75,1.35c-0.43,0.31-0.62,0.92-0.75,1.5   c-0.4,0.35-0.54,0.72-0.75,1.2c-0.4,0.11-1.11,1.79-1.35,2.24c0.19,0.26,0.14,0.44,0.15,0.75c-0.49,0.21-0.75,1.14-0.75,1.65   c-0.35,1.3-0.7,2.59-1.05,3.89c-0.2,0.5-0.4,1-0.6,1.5c0.37,0.45-0.58,3.16-0.75,3.89c-0.43,0.43-0.9,1.99-0.9,2.54   c-1.56,1.56-3.83,2.29-5.69,3.44c-0.08-0.03-2.24,0.3-2.69,0.3l-0.45,0.15c-0.25-1.06-1.06-3.16-1.95-3.74   c0-0.61-1.53-3.05-1.95-3.59c0-0.68-0.69-2.08-1.23-2.35c-0.57-0.25-1.01-0.14-1.62-0.05c-0.48-0.48-2.96-0.86-3.59-0.75   c-0.4-0.15-0.8-0.3-1.2-0.45c-0.61-0.26-1.21-0.53-1.82-0.79c-0.29-0.29-0.58-0.57-0.87-0.86c-0.62-0.24-1.49-0.48-1.65-1.2   c-1.76-0.69-3.21-1.7-4.79-2.69c-0.7-0.25-1.4-0.5-2.1-0.75c-0.25-0.3-0.5-0.6-0.75-0.9c-0.25-0.15-0.5-0.3-0.75-0.45   c0.05-0.1,0.1-0.2,0.15-0.3c-0.1-0.15-0.2-0.3-0.3-0.45c-0.52-0.43-1.14-0.92-1.2-1.65c-0.3-0.2,0-0.25-0.3-0.45l0.53-1.18   c-0.47-0.94-1.07-1.65-1.28-2.71c0-0.4,0-0.8,0-1.2c-0.12-1.57-0.79-3.63-1.76-4.82c-0.57-0.7-1.2-1.31-1.99-1.66   c-0.21-0.37-0.99-0.68-1.34-0.4l-0.47-0.87c0.55-1-0.06-3.44-0.52-4.59c0.06-0.17,0.18-1.11,0.24-1.27c0.3-0.73,1.21,0.04,1.95,0.3   c0.59,0.21,0.94,0.59,1.35,0.9c0.83,0.63,2.01,0.96,2.99,1.2c0.46-0.21,1,0.07,1.5,0c0.45-0.15,0.9-0.3,1.35-0.45   c0.45,0,0.66-1.17,0.8-1.56c0.23-0.41,0.46-0.82,0.7-1.23c0.39-1.32,0.78-2.63,1.17-3.95c0.08-0.48-0.78-1.28-1.17-1.64   c-0.17,0.17-0.11,0.21-0.3,0.05c-0.3-0.26-0.6-0.53-0.89-0.79c-0.56-0.56-0.19-1.13,0.03-1.78c0.43-1.24,1.61-2.82,2.68-3.4   c0.64,0.12,1.29,0.25,1.93,0.37c0.56-0.1,0.79-0.33,1.19-0.73c0.69,0,1.09-0.64,1.5-1.05c0.89-0.02,1.22-0.82,1.6-1.42   c0.41-0.66-0.54-2.5-0.74-3.4c-0.31-1.15,1-2.11,1.84-2.66c0.45-0.5,0.9-1,1.35-1.5c0.13-0.73,0.11-1.23,0.65-1.73   c0.59-0.54,2.7-0.21,3.54-0.06c0.55-0.05,1.1-0.1,1.65-0.15c0.31,0.39,1.69,0.59,2.24,0.75c0,0.39,0.49,0.4,0.75,0.6   c0.63,0.39,1.25,0.79,1.88,1.18c1.09-0.36,3.36-1.63,4.26-0.73c0.56-0.51,0.45-0.26,1.29-0.02c0.11-0.35,0.22-0.69,0.33-1.04   l0.23-0.07c1.18,1.42,2.36,2.85,3.54,4.27c0.43,0.74,1.35,1.39,1.5,2.24c0.27,0.27,0.54,0.55,0.8,0.82   c0.73,1.17,1.46,2.34,2.19,3.52c1.48,1.73,2.95,3.47,4.43,5.21c0.49,0.04,0.64,0.35,0.95,0.71c0.46,0.11,0.72,0.56,0.99,0.94   c0.51,0.08,1.45,1.13,1.83,1.53c0.01,0.7,0.02,1.4,0.02,2.1c0.14,0.26,0.17,0.39,0.45,0.45c0.53,1.43,1.46,2.78,2.54,3.89   c1.95,1.3,3.89,2.59,5.84,3.89c0.74,0.35,1.42,0.35,2.09,0.9c0.67,0.54,2.16,0.28,2.54,1.2c1.14,0.3,4.08,0.62,4.64,1.5   L363.11,168.93z"/>
            <circle cx="357.6" cy="168.27" r="1.586"/>
        </g>
        <g id="__Canik">
            <path d="   M372.27,240.55c0-1.32-1.35-2.26-1.35-3.14c0.1-0.6,0.2-1.2,0.3-1.8c0.59-0.59,1.2-1.76,1.2-2.54c0.28-0.15,0.41-0.33,0.6-0.6   c0.1-0.35,0.2-0.7,0.3-1.05c0.3-0.5,0.6-1,0.9-1.5c0.33-0.44,1.2-0.99,1.2-1.65c0.25-0.3,0.5-0.6,0.75-0.9   c0.44-0.24,1.46-0.57,1.95-0.3c0.65-0.25,1.3-0.5,1.95-0.75c0.26-0.27,0.53-0.55,0.79-0.82c0.26-0.18,1.3-0.69,1.3-0.97   c-0.25-0.25-0.12-0.54-0.37-0.83c-0.42-0.49-1.69-1.11-2.17-1.11c-0.5-0.55-1-1.1-1.5-1.65c-0.38,0-1.05-0.82-1.05-1.2   c-0.36-0.35-1-1.24-1.5-0.75c-0.54,0.32-0.67,0.73-0.9,1.35c-0.26,0.69-1.04,1.34-1.5,1.8c0,0.64-0.54,1.05-1.2,1.05   c-0.22-0.11-0.45-0.17-0.45-0.45c0-0.65-0.5-0.98,0-1.65c0.15-0.05,0.3-0.1,0.45-0.15c0.45-0.88,1.93-1.79,2.1-2.54   c-0.05-0.95-0.1-1.9-0.15-2.84c0.35-0.36,0.3-0.56,0.3-1.05c0.47-0.47,0.33-1.15,0.64-1.77c0.64-0.91,1.27-1.81,1.91-2.72   c0-0.97,0.9-2.14,1.5-2.84c0.2-0.1,0.4-0.2,0.6-0.3c0.33-0.33,0.8-1.5,1.35-1.5c0.1-0.3,0.2-0.6,0.3-0.9   c0.08-0.28-0.16-2.26-0.3-2.39c0.22-0.72,0.66-1.61,0.45-2.39c-0.22-0.82-1.05-1.42-1.05-2.24c-0.88-0.88-2.19-1.96-2.39-3.29   c-0.23-1.57,0.71-2.22,0.9-3.59c0.04-0.29,0.27-1.35,0.45-1.35l-0.09-0.01c-0.3-1.4-0.86-2.31-2.16-2.98   c-0.18-0.53-1.25-1.33-1.77-1.72c-0.36-0.47-0.72-0.95-1.08-1.42c-0.76-0.24-1.3-0.6-1.98-0.99l-0.11-0.36   c-0.37,1.49-1.37,3.01-2.28,4.25c0.06,0.41-0.29,0.57-0.56,0.84c-0.1,0.35-0.2,0.7-0.3,1.05c-0.09,0-0.18,0.01-0.28,0.01   c-0.31-0.05-0.61-0.11-0.92-0.16c-0.33,0.24-0.75,0.41-0.9,0.75c-0.4,0.1-0.8,0.2-1.2,0.3c-0.57,0.29-1.14,0.57-1.72,0.86   c-0.43,0.21-0.85,0.43-1.28,0.64c-0.53,0.49-0.86-0.04-1.5,0.6c-0.62,0-1.68,0.3-1.95,0.9c-0.44,0.17-2.32,1.14-2.46,1.52   c-0.18,0.69-0.36,1.38-0.53,2.07c-0.2-0.2-0.4-0.4-0.6-0.6c-0.05,0.2-0.1,0.4-0.15,0.6c-0.15-0.05-0.3-0.1-0.45-0.15   c0,0.15,0,0.3,0,0.45c-0.42,0.15-0.97,0.52-1.35,0.15c-0.34-0.34-0.71-0.75-1.2-0.75c-0.18-0.38-0.53-0.79-0.15-1.2   c-0.44-0.62-0.87-1.23-1.31-1.85c-0.25-0.32-0.48-0.89-0.89-0.78c-0.94,0.36-1.5,1.52-1.99,2.48c-0.48,0-0.9,0.8-0.9,1.2   c-0.2,0.2-0.4,0.4-0.6,0.6c-0.29,0.29-0.76,0.9-0.6,1.35c-0.85,1.3-1.7,2.59-2.54,3.89c-0.4,0.75-0.8,1.5-1.2,2.24   c0,0.85-0.64,4.27-1.05,4.94c0,0.7-0.2,2.16,0.3,2.69c-0.04,0.35-0.14,0.57,0,0.9c-0.15,0.9-0.3,1.8-0.45,2.69   c0.05,0.5,0,1.02,0.05,1.52c-0.07,1.05-0.12,1.72-0.22,2.32l-2.87,1.83c0.94,0.21,1.76,2.48,2.17,3.2   c1.9,3.35,1.41,7.52,4.32,10.43v0.15c0.57,0,1.26,0.76,1.65,1.2c-0.16,0.16,0.56,1.14,0.75,1.5c-0.08,0.47,0.97,1.88,1.2,2.39   c0.46,1.06,0.35,2.13,1.05,2.99c0.3,0.2,0.6,0.4,0.9,0.6c0.36,0.37,0.68,0,1.05,0c0.95,0,1.72-0.13,2.67,0.11   c1.51,0.41,3.01,0.83,4.52,1.24c0.37-0.37,1.15-0.04,1.65-0.15c0.25-0.1,0.5-0.2,0.75-0.3c0.35,0.1,0.7,0.2,1.05,0.3   c0.65-0.15,1.3-0.3,1.95-0.45c0.71,0.01,0.11-0.02,1.35-0.6c0.3-0.1,0.75-0.05,1.05-0.15c0.6,0.05,1.05-0.5,1.65-0.45   c0.59-0.17,1.06-0.46,1.5-0.9c0.36,0,1.53-0.48,1.8-0.75c0.4,0,0.8,0,1.2,0c0.21,0,0.44,0.13,0.69,0.34L372.27,240.55z"/>
            <circle cx="373.16" cy="187.4" r="1.586"/>
        </g>
        <g id="__Tekkeköy">
            <path d="   M382.89,254.17c-0.35-0.66-1.16-1.01-1.65-1.5c0-0.62-0.62-1.37-1.05-1.8c0-0.6-0.44-1.01-0.75-1.5c0-0.63-0.92-2.87-1.5-3.29   c-0.36-0.19-0.71-0.39-1.07-0.58c-0.34-0.3-0.69-0.61-1.03-0.91c-0.3-0.62-0.91-0.76-1.35-1.2c-0.53-0.53-1.54-2.2-2.38-2.86   l0.13,0.02c0-1.32-1.35-2.26-1.35-3.14c0.1-0.6,0.2-1.2,0.3-1.8c0.59-0.59,1.2-1.76,1.2-2.54c0.28-0.15,0.41-0.33,0.6-0.6   c0.1-0.35,0.2-0.7,0.3-1.05c0.3-0.5,0.6-1,0.9-1.5c0.33-0.44,1.2-0.99,1.2-1.65c0.25-0.3,0.5-0.6,0.75-0.9   c0.44-0.24,1.46-0.57,1.95-0.3c0.65-0.25,1.3-0.5,1.95-0.75c0.26-0.27,0.53-0.55,0.79-0.82c0.26-0.18,1.3-0.69,1.3-0.97   c-0.25-0.25-0.12-0.54-0.37-0.83c-0.42-0.49-1.69-1.11-2.17-1.11c-0.5-0.55-1-1.1-1.5-1.65c-0.38,0-1.05-0.82-1.05-1.2   c-0.36-0.35-1-1.24-1.5-0.75c-0.54,0.32-0.67,0.73-0.9,1.35c-0.26,0.69-1.04,1.34-1.5,1.8c0,0.64-0.54,1.05-1.2,1.05   c-0.22-0.11-0.45-0.17-0.45-0.45c0-0.65-0.5-0.98,0-1.65c0.15-0.05,0.3-0.1,0.45-0.15c0.45-0.88,1.93-1.79,2.1-2.54   c-0.05-0.95-0.1-1.9-0.15-2.84c0.35-0.36,0.3-0.56,0.3-1.05c0.47-0.47,0.33-1.15,0.64-1.77c0.64-0.91,1.27-1.81,1.91-2.72   c0-0.97,0.9-2.14,1.5-2.84c0.2-0.1,0.4-0.2,0.6-0.3c0.33-0.33,0.8-1.5,1.35-1.5c0.1-0.3,0.2-0.6,0.3-0.9   c0.08-0.28-0.16-2.26-0.3-2.39c0.22-0.72,0.66-1.61,0.45-2.39c-0.22-0.82-1.05-1.42-1.05-2.24c-0.88-0.88-2.19-1.96-2.39-3.29   c-0.23-1.57,0.71-2.22,0.9-3.59c0.04-0.29,0.27-1.35,0.45-1.35c0.66,0.66,1.47,0.94,2.39,1.2c0.2,0.15,0.4,0.3,0.6,0.45   c2.59,0.5,5.19,1,7.78,1.5c1.2,0,2.39,0,3.59,0c0.5-0.2,1.02-0.62,1.1-0.56c0.5,0.21-0.03,0.4,0.68,0.4c0.42,0,0.57-0.07,0.92-0.29   c0.71,0,1.59,0.05,2.09-0.45c0.92,0,1.96-0.31,2.82-0.66c1.11-0.48,2.21-0.96,3.32-1.44c0.47-0.36,2.34-1.4,2.39-1.35   c0,0.88,0.27,1.92,0.9,2.54c0.06,0.14,0.12,0.28,0.19,0.42c0.29,0.89,0.57,1.35,1.31,1.97c0.38,0.32,0.8,1.05,1.35,1.05   c-0.28,0,0.15,1.35,0.3,1.5c0,0.73-0.06,1.43,0.45,1.95c0.32,0,0.37,0.07,0.6,0.3c0.91,0,1.37,0.55,2.24,0.75   c1.83,0.41,3.76,1.35,5.69,1.35c0.6,0.6,1.95,1.74,1.95,2.54c-1.58,1.58-1.22,4.13-0.45,5.99c-0.69,0.69,0.61,2.78,1.05,3.44   c0.05,0.35,0.1,0.7,0.15,1.05c0.2,0.6,0.4,1.2,0.6,1.8c0.3,1.36,0.45,2.65,0.45,4.04c0,0.46-0.05,1.96-0.3,2.24   c0.15,0.85,0.3,1.7,0.45,2.54c0.07,0.44,0.3,0.9,0.6,1.2c0,0.49,0.3,0.94,0.3,1.5c-0.1,0.15-0.2,0.3-0.3,0.45   c-0.1,0.05-0.2,0.1-0.3,0.15c-0.65,0-1.3,0-1.95,0c-0.5-0.06-0.72-0.35-1.22-0.22c-1.36,0.32-0.77,1.09-1.18,2.01   c0.45,0.4,0.9,0.8,1.35,1.2c0.23,0.28,0.55,0.94,0.3,1.2c-0.7,0.75-1.4,1.5-2.1,2.24c-0.53,0.33-1.07,0.65-1.6,0.98   c-1.13,0.7-2.24,1.32-3.49,1.87c-0.85,0.6-1.7,1.2-2.54,1.8c-0.75,0.45-1.5,0.9-2.24,1.35c-0.5,0.3-1,0.6-1.5,0.9   c-0.62,0-1.7,0.96-2.24,1.35c-0.95,0.35-1.9,0.7-2.84,1.05c-0.45-0.05-0.9-0.1-1.35-0.15c-0.25,0.1-0.5,0.2-0.75,0.3   c-0.2-0.05-0.4-0.1-0.6-0.15c-0.1,0.05-0.2,0.1-0.3,0.15c-0.46,0.44-0.91,0.89-1.37,1.33c-0.49,0.75-0.99,1.51-1.48,2.26   c-0.4,0.3-0.8,0.6-1.2,0.9c-1.2,0.4-2.39,0.8-3.59,1.2c-0.41,0.04-1.22,0.02-1.5,0.3c-0.6,0-1.17-0.33-1.65,0.15   c-0.29,0-0.53-0.07-0.75,0.15c-0.94,0.94-1.05,2.25-2,3.2c-0.31,0.31-1.14,0.64-1.14,1.14c-0.31,0.31-0.91,1.19-0.6,1.5   C383.94,254.77,383.27,254.17,382.89,254.17z"/>
            <circle cx="394.56" cy="200.12" r="1.586"/>
        </g>
        <g id="__Çarşamba">
            <path d="M478.07,204.49c-1.08,0-1.93,0.33-2.84,0.9   c-0.61,0.38-0.75,0.85-1.5,0.9c-0.41,0.03-0.76,0.08-0.9,0.45c-0.08-0.07-0.17-0.14-0.25-0.21c-0.66-0.59-1.39-1.81-1.09-2.78   c0.78-1.21,1.11-1.69,1.3-3.14c0.05-0.37,0.24-0.89,0.05-1.2c0.29-0.41,0.44-0.7,0.47-1.2c0.02-0.33,0-1.83-0.24-2   c-0.17-0.13-0.35-0.25-0.52-0.38c-0.85,0.05-1.71,0.11-2.56,0.16c-0.41,0.03-0.43-0.07-0.73,0.27c-0.03-0.03-0.06-0.05-0.09-0.07   c-0.32-0.27-0.64-0.55-0.95-0.82c-0.15-1.45-0.3-2.89-0.45-4.34c-0.78-1.44-0.76-3.27-1.17-4.86c0.03-0.22,0.06-0.44,0.09-0.66   c-0.14-0.35-0.28-0.71-0.42-1.06c-0.1-0.7-0.2-1.4-0.3-2.09c-0.04-0.39-0.13-0.87-0.45-1.05c0.3-2.32,1.04-4.32,1.95-6.43   c0.2-0.6,0.4-1.2,0.6-1.8c0.92-1.81,4.04-1.73,3.97-3.87c-0.05-0.68-0.32-2.66-0.98-3.01c0-1.35-0.39-3.38,0.6-4.34   c0.3-0.29,0.35-0.47,0.75-0.6c-1.59-0.35-1.46-0.31-2.39-0.48c-1.66-0.29-3.5-0.75-5.24-1.32c-1.05-0.1-2.1-0.2-3.14-0.3   c-0.65-0.2-1.3-0.4-1.95-0.6c-2-0.53-4.11-0.61-6.14-0.75c-0.9-0.05-1.8-0.1-2.69-0.15c-1.55-0.3-3.09-0.6-4.64-0.9   c-1.65-0.55-3.29-1.1-4.94-1.65c-0.75-0.6-0.75-0.9-1.5-1.5c-0.07,0.24-0.53-0.51-0.45-0.3c0-0.04-0.21-0.35-0.45-0.75   c-0.24-0.61-1.24-0.01-0.45,0.75c0.15,0.38,0.15,0.79,0.45,1.05c-0.21,1.62-0.03,3.48-0.8,4.94c-0.67,1.24-1.34,2.47-2.01,3.71   c-0.48,0.62-1.62,0.63-1.83,0.93c-0.05,0.1-0.64,0.68-0.15,0.9c0.16,0.07,0.32,0.14,0.48,0.21c0.09,0.08,0.18,0.16,0.27,0.24   c0.3-0.1,0.6-0.2,0.9-0.3c0.31,0.05,0.53,0.06,0.75,0.3c1.06,0.04,1.58-0.08,2.54,0.6c0.77,0.54,2.66,2.62,2.84,3.44   c0.12,0.07,1.73,1.12,1.2,1.02c-0.81-0.16-1.28-0.51-2.03-0.85c-0.08-0.37-0.07-0.32-0.34-0.51c-0.36-0.24-1.01-0.55-1.08-1.01   c-0.32-0.19-0.59-0.26-0.75-0.6c-0.93-0.19-1.85-0.39-2.78-0.58c-0.47-0.35-1.07-0.68-1.67-0.65c-0.55-0.71-1.78-0.1-1.04-1.58   c0.13-0.43,0.41-0.65,0.54-1.07c0.43-0.14,0.52-0.33,0.9-0.6c0.24-0.24,0.34-0.38,0.41-0.72c0.89-0.87,1.97-2.67,1.8-3.99   c0.53-0.67,1.06-2.97,0.33-3.67c-0.19-0.75-0.55-2.21-1.35-2.32c-0.12,0-0.25-0.01-0.37-0.01c-2.11,1.74-4.16,3.36-6.06,5.18   c-0.5,0.9-0.99,1.8-1.49,2.69c-0.39,0.51-1.82,3.1-1.5,3.59c-0.24,0.43-0.6,1.15-0.45,1.65c-0.15,0.35-0.3,0.7-0.45,1.05   c-0.15,0.53-1.77,2.37-2.24,2.84c-0.62,0.62-2.6,3.37-2.7,4.18c-0.3,0.3-0.59,0.6-0.89,0.91c-0.43,0.55-1.25,2.67-1.17,3.36   c-0.64,0.83-0.74,1.99-1.82,2.47c-0.15,0.4-0.3,0.8-0.45,1.2c-0.55,0.3-1.1,0.6-1.65,0.9c-0.61,0.65-2.31,2.21-3.14,2.39   c-0.35,0.32-1,0.99-1.5,0.9c-0.5,0.34-1,0.69-1.5,1.03c-0.57,0.26-2.34,1.29-2.34,1.76l-0.05-0.25c0,0.88,0.27,1.92,0.9,2.54   c0.06,0.14,0.12,0.28,0.19,0.42c0.29,0.89,0.57,1.35,1.31,1.97c0.38,0.32,0.8,1.05,1.35,1.05c-0.28,0,0.15,1.35,0.3,1.5   c0,0.73-0.06,1.43,0.45,1.95c0.32,0,0.37,0.07,0.6,0.3c0.91,0,1.37,0.55,2.24,0.75c1.83,0.41,3.76,1.35,5.69,1.35   c0.6,0.6,1.95,1.74,1.95,2.54c-1.58,1.58-1.22,4.13-0.45,5.99c-0.69,0.69,0.61,2.78,1.05,3.44c0.05,0.35,0.1,0.7,0.15,1.05   c0.2,0.6,0.4,1.2,0.6,1.8c0.3,1.36,0.45,2.65,0.45,4.04c0,0.46-0.05,1.96-0.3,2.24c0.15,0.85,0.3,1.7,0.45,2.54   c0.07,0.44,0.3,0.9,0.6,1.2c0,0.49,0.3,0.94,0.3,1.5c-0.1,0.15-0.2,0.3-0.3,0.45c-0.1,0.05-0.2,0.1-0.3,0.15c-0.65,0-1.3,0-1.95,0   c-0.5-0.06-0.72-0.35-1.22-0.22c-1.36,0.32-0.77,1.09-1.18,2.01c0.45,0.4,0.9,0.8,1.35,1.2c0.23,0.28,0.55,0.94,0.3,1.2   c-0.7,0.75-1.4,1.5-2.1,2.24c-0.53,0.33-1.07,0.65-1.6,0.98c-1.13,0.7-2.24,1.32-3.49,1.87c-0.85,0.6-1.7,1.2-2.54,1.8   c-0.75,0.45-1.5,0.9-2.24,1.35c-0.5,0.3-1,0.6-1.5,0.9c-0.62,0-1.7,0.96-2.24,1.35c-0.95,0.35-1.9,0.7-2.84,1.05   c-0.45-0.05-0.9-0.1-1.35-0.15c-0.25,0.1-0.5,0.2-0.75,0.3c-0.2-0.05-0.4-0.1-0.6-0.15c-0.1,0.05-0.2,0.1-0.3,0.15   c-0.46,0.44-0.91,0.89-1.37,1.33c-0.49,0.75-0.99,1.51-1.48,2.26c-0.4,0.3-0.8,0.6-1.2,0.9c-1.2,0.4-2.39,0.8-3.59,1.2   c-0.41,0.04-1.22,0.02-1.5,0.3c-0.6,0-1.17-0.33-1.65,0.15c-0.29,0-0.53-0.07-0.75,0.15c-0.94,0.94-1.05,2.25-2,3.2   c-0.31,0.31-1.14,0.64-1.14,1.14c-0.23,0.23-0.64,0.8-0.68,1.19c0.46,0.34,0.76,1.05,1.43,1.05c0.95,1.1,1.9,2.19,2.84,3.29   c0,0.75,0,1.5,0,2.24c-0.77,0.77-1.21,2.22-2.09,3.14c-1.15,1.2-2.77,1.94-3.44,3.44l0.61,1.16c1.17,0.81,2.55,1.72,4.03,2.11   c0.85,0.22,1.7,0.44,2.55,0.65c0.35,0.24,0.7,0.47,1.04,0.71c0.94,0.97,1.64,2.2,3.02,2.5c0.09,0.07,1.08,0.43,1.17,0.49   c1.85-0.66,1.41-1.17,2.94-2.02c0.49-0.27,1.28-0.97,1.85-0.67c0.45-0.3,0.9-0.6,1.35-0.9c0.3-0.6,0.6-1.2,0.91-1.8   c0.03-0.56,0.14-0.94-0.01-1.5c-0.14-0.54-0.91-1.3-0.6-1.8c-0.9-0.75-2.56-2.39-1.95-3.74c1,0.18,1.76-0.4,2.54-1.05   c0.2-0.25,0.4-0.5,0.6-0.75c0.59-0.22,1.17-0.43,1.76-0.65c0.4-0.31,1.95-1.32,2.29-1.27c1.36,0.16,2.99,0.68,4.24,1.25   c0.75,0.34,1.1,1,1.88,0.94c0.51-0.05,1.81-0.47,2.1-0.43c0.3-0.15,0.6-0.3,0.9-0.45c0.79-0.89,2.35-2.98,3.27-3.17   c0.94-0.21,2.35,0.5,3.17-0.43c0.31-0.08,0.62-0.17,0.93-0.25c0.14-0.26,0.28-0.53,0.42-0.79c0.15-0.65,0.3-1.3,0.45-1.95   c-0.06-0.69-0.35-1.61,0-2.24c-0.11-0.68-0.37-1.27-0.21-1.94c0.42-1.05,0.84-2.1,1.25-3.15c0.1-0.19,0.2-0.37,0.29-0.56   c0.17-0.89,0.27-3.47,1.23-3.71c0.14-0.07,0.28-0.15,0.42-0.22c1.05,0.15,2.1,0.3,3.14,0.45c0.41-0.08,1.15-0.45,1.5-0.3   c0.58-0.62,1.15-1.24,1.73-1.86c0.57-0.38,1.14-0.75,1.71-1.13c0.85-0.08,1.97-0.36,2.83-0.08c0.62,0.2,1.5,0.62,2.13,0.29   c0.27,0.02,0.49,0.04,0.68,0.05l0.02,0c0.3-0.77,0.95-1.91,1.68-1.91c0.23-0.45,0.64-1.15,1.2-1.2c0.73-0.78,1.31-1.58,1.8-2.54   c0.16-0.01,0.68-0.11,0.52,0.1c-0.33,0.45-1.42,2.27-1.42,2.74c-0.32,0.32-0.55,0.23-0.9,0.45c-0.37,0.23-2.15,1.76-2.49,2.38   c0.4,0.03,0.71,0.05,1.3,0.14c0.45,0.18,1.34,0.39,1.49,0.92c0.88,0.13,2.35,0.4,2.64,1.35c0.21,0.67,0.61,2.5,0.35,3.14   c0.12,0.71,0.46,1.57,0.09,2.22c-0.63,1.13-2.06,2.51-2.78,3.32c-0.35,0.55-0.7,1.09-1.06,1.64c0.06,0.58,0.15,1,0.04,1.59   c0.48,2.01,0.97,4.02,1.45,6.04c0.2,0.72,0.08,2.94-0.15,3.59c-0.05,0.4-0.1,0.8-0.15,1.2c0.25,1.57,0.01,3.43,0.01,5.08   c0.15,0.75,0.29,1.5,0.43,2.25c0.61,1.42,1.73,3.74,3.03,4.5c0.56,0.33,2.08,2.23,2.36,1.34c0.35-1.11,0.69-2.82,1.04-3.94   c0.05-0.43,0.11-0.87,0.16-1.3c0.3-0.35,0.6-0.7,0.9-1.05c0.1-0.25,0.2-0.5,0.3-0.75c-0.05-0.95-0.1-1.9-0.15-2.84   c0.05-2.29,0.1-4.59,0.15-6.88c0.18-1.59,1.33-2.88,0.83-4.4c-0.05-0.36-0.09-0.72-0.14-1.08c-0.41-0.55-0.9-1.41-1.45-1.67   c-0.99-0.48-3.06-1.11-3.37-2.15c-0.15-0.58-0.24-1.53,0.24-1.93c-0.01-0.23-0.11-0.75-0.03-0.77c0.86-0.14,2.41-0.11,2.88,0.62   c0.35,0.1,0.7,0.2,1.05,0.3c0.6-0.16,1.03-0.29,1.6-0.53c0.47-0.25,0.94-0.5,1.41-0.75c0.56-1.61,0.43-3.18,0.83-4.83   c0.27-1.06,0.53-2.11,0.8-3.17c-0.02-0.32-0.06-0.55-0.3-0.75c-0.14-2.33-0.21-4.67,0.45-6.88c0.38-1.29,1.21-2.59,2.1-3.59   c0.68-0.78,1.57-1.37,1.9-2.41c0.16-0.84,0.33-1.68,0.49-2.53c0.05-0.65,0.1-1.3,0.15-1.95c-0.06-0.64-0.31-1.74,0.04-2.21   c1.12-1.56,2.22-1.8,3.78-2.81c0.51-0.33,0.91-0.92,1.57-0.81c0.84-0.46,1.69-0.92,2.53-1.38c0.52-0.37,1.04-0.74,1.57-1.1   c1.23-0.43,3.84-2.25,4.72-3.21c0.22-0.27,0.44-0.55,0.66-0.82c0.18-0.22,0.36-0.45,0.54-0.67c0.15-0.3,0.3-0.6,0.45-0.9   c0.14-0.55,0.28-1.11,0.42-1.67c0.14-0.53,0.27-1.06,0.41-1.59C478.52,205.11,478.29,204.8,478.07,204.49z M432.13,234.42   c-0.01,0.35-0.22,0.32-0.46,0.59c0.23-0.77-1.11-1.24-1.56-1.71c-0.06-0.06-0.52,0.93-0.91,0.99c-0.61,0.05-1.25-0.07-1.87-0.33   c-0.2-0.36-1.15-0.6-1.5-0.6c-0.75,0.35-1.5,0.7-2.24,1.05c-0.35,0-0.7,0-1.05,0c-0.79,0.59-0.9-0.7-0.9-1.2   c0.15-0.25,0.3-0.5,0.45-0.75c0.3-0.15,0.6-0.3,0.9-0.45c0.6-0.42,0.74-0.55,1.5-0.3c0.57-0.37,0.51-0.72,0.3-1.35   c0.59,0.12,1.19,0.24,1.78,0.36c0.29-0.1,0.16-0.67,0.16-0.95c0-0.1-0.36-1.11-0.45-1.2c0.14-0.45,0.15-0.59-0.11-0.98   c0.19,0.03,0.37,0.06,0.56,0.08c0,0.61,0.35,1,0.9,1.2c-0.03,0.24-0.06,0.49-0.09,0.73c0.19,0.37,0.84,0.46,1.14,0.17   c0.22,0.13,0.45,0.26,0.67,0.38c0.11,0.09,0.32-0.68,0.55-0.69c0.54,0.02,0.19,1.06,0.55,1.27c0.13-0.02,0.25-0.04,0.38-0.06   c0.5-0.05,0.25-0.09,0.51-0.46c0.06-0.1,0.12-0.2,0.19-0.3c0.12,0.61,0.56,0.9,0.9,1.5c0.05,0.3,0.1,0.6,0.15,0.9   C432.19,233.06,432.16,233.6,432.13,234.42z"/>
            <circle cx="451.85" cy="205.23" r="1.586"/>
        </g>
        <g id="__Terme">
            <path d="   M476.93,210.24c0.18-0.22,0.36-0.45,0.54-0.67c0.15-0.3,0.3-0.6,0.45-0.9c0.14-0.55,0.28-1.11,0.42-1.67   c0.14-0.53,0.27-1.06,0.41-1.59c-0.23-0.31-0.45-0.62-0.68-0.93c-1.08,0-1.93,0.33-2.84,0.9c-0.61,0.38-0.75,0.85-1.5,0.9   c-0.41,0.03-0.76,0.08-0.9,0.45c-0.08-0.07-0.17-0.14-0.25-0.21c-0.66-0.59-1.39-1.81-1.09-2.78c0.78-1.21,1.11-1.69,1.3-3.14   c0.05-0.37,0.24-0.89,0.05-1.2c0.29-0.41,0.44-0.7,0.47-1.2c0.02-0.33,0-1.83-0.24-2c-0.17-0.13-0.35-0.25-0.52-0.38   c-0.85,0.05-1.71,0.11-2.56,0.16c-0.41,0.03-0.43-0.07-0.73,0.27c-0.03-0.03-0.06-0.05-0.09-0.07c-0.32-0.27-0.64-0.55-0.95-0.82   c-0.15-1.45-0.3-2.89-0.45-4.34c-0.78-1.44-0.76-3.27-1.17-4.86c0.03-0.22,0.06-0.44,0.09-0.66c-0.14-0.35-0.28-0.71-0.42-1.06   c-0.1-0.7-0.2-1.4-0.3-2.09c-0.04-0.39-0.13-0.87-0.45-1.05c0.3-2.32,1.04-4.32,1.95-6.43c0.2-0.6,0.4-1.2,0.6-1.8   c0.92-1.81,4.04-1.73,3.97-3.87c-0.05-0.68-0.32-2.66-0.98-3.01c0-1.35-0.39-3.38,0.6-4.34c0.3-0.29,0.35-0.47,0.75-0.6l0.02,0.08   c1.64,0.42,3.28,0.84,4.92,1.27c1.5,0.57,3.01,1.14,4.51,1.7c0.09,0.08,0.19,0.16,0.28,0.24c0.95,0.3,1.9,0.6,2.84,0.9   c1.1,0.65,2.19,1.3,3.29,1.95c0.62,0.47,1.25,0.94,1.87,1.41c1.58,0.96,3.16,1.91,4.75,2.87c0.84,0.52,1.67,1.04,2.51,1.56   c1.14,0.87,2.34,2.01,3.74,2.39c0.37,0.23,0.73,0.46,1.1,0.69c1.97,1.07,3.94,2.15,5.91,3.22c0.7,0.31,1.41,0.61,2.11,0.92   c0.48-0.07,1.17,0.59,1.61,0.87c0.37-0.03,1.05,0.65,1.36,0.9c1.5,1.19,2.11,1.83,3.02,3.57c0.35,0.75,0.7,1.5,1.04,2.25   c0.2,1,0.4,2,0.6,2.99c0.32,1.15-0.18,2.45-0.18,3.59c0.04,1.24,0.08,2.48,0.13,3.72c0.02,0.5,0.12,1.14-0.25,1.52   c0.11,0.55,0.39,1.65,0,2.09c0.25,0.65,0.5,1.3,0.75,1.95c0.17,1.13-1,1.94-0.32,3.06c1.52,2.5,3.98,4.48,6.45,6.07   c0.45,0.29,1.42,1.01,1.95,0.9c0.27,0.22,0.55,0.45,0.82,0.67c0.84,0.39,1.81,0.74,2.47,1.42c1.3,0.5,2.59,1,3.89,1.5   c0.38,0,0.68,0.12,0.9,0.45c1.05,0.36,2.09,0.73,3.14,1.09c0.51,0.14,1.15,0.04,1.5,0.4c0.62-0.07,3.22,0.23,3.59,0.6   c0.46,0,1.95,0.05,2.24,0.3c0.45-0.03,0.9-0.05,1.35-0.08c1,0.13,1.99,0.25,2.99,0.38c0.18,0.03,0.98,0.45,0.59,0.45   c-0.41,0-2.2,1.54-2.03,1.56c-0.45,0.37-0.71,0.63-0.91,1.21c-0.12,0.02-0.23,0.05-0.35,0.07c0.04,0.24,0.07,0.49,0.11,0.73   c-0.04,0.11-0.07,0.21-0.11,0.32c0.39,0.6,0.79,1.19,1.18,1.79c-0.11,0.85-0.39,1.82-1.03,2.4c-0.31,0.07-1.59-0.07-1.59-0.07   c-0.42,0.35-0.56,1.06-0.35,1.57c-0.15,0.25-0.3,0.5-0.45,0.75c-0.45,0.18-0.9,0.35-1.36,0.53c-0.34,0.53-1,1.05-1.04,1.72   c-1.53,1.07-2.77,2.19-4.49,2.99c-0.43-0.1-0.86-0.2-1.3-0.3c-0.8-0.05-1.61-0.09-2.41-0.14c-1.04-0.11-2.49,0.31-3.28-0.57   c-0.07-0.01-0.13-0.02-0.2-0.04c-0.4-0.8-0.8-1.6-1.2-2.39c-0.24-0.24-0.56-0.41-0.6-0.75c-0.15-0.01-0.3-0.02-0.44-0.03   c-0.7,0.01-1.4,0.02-2.1,0.03c-0.55-0.2-1.1-0.4-1.65-0.6c-0.55-0.02-0.86,0.3-1.35,0.44c-1.22,0.34-2.33,0.5-3.59,0.46   c-1.54-0.05-3.79-0.42-4.94,0.9c-1.15,0.27-2.6,0.91-3.74,0.45c-0.03,0.15-0.07,0.29-0.1,0.44c-0.34,2.57-0.67,5.14-1.01,7.7   c-1.48,1.69-4,2.12-5.48,3.83c-0.46,0.53-1.19,0.97-0.97,1.8c0.47,1.7,1.95,2.83,3.08,4.13c0.44,0.27,0.89,0.53,1.33,0.8   c0,0.68,0.71,1.24,1.05,1.8c-0.1,0.47-0.15,1.64,0.15,1.95c-0.2,0.9-0.4,1.8-0.6,2.69c-0.2,0.27-0.41,0.54-0.61,0.81   c0.03,0.95-1.16,1.99-1.71,2.73c-0.92,1.07-1.85,2.13-2.77,3.2c-1.25,0.99-2.51,1.97-3.76,2.96c-1.24,1.01-2.48,2.02-3.72,3.03   c-0.23,0.68-0.97,2.22-0.45,2.84c-0.01,0.37-0.09,0.77,0.15,1.05c-0.07,0.68-0.17,1.89,0.3,2.39c-0.05,0.25-0.1,0.5-0.15,0.75   c0.05,0.61-0.22,1.38-0.56,1.86c-0.08,0.18-0.16,0.36-0.23,0.53c-0.38,0.01-0.52,0.17-0.85-0.02c-1.21-0.71-2.27-1.55-3.6-2.07   c-0.57-0.23-1.65-0.25-1.98-0.69c-0.16-0.59-0.32-1.18-0.48-1.78c1.19-1.07,1.81-2.71,1.88-4.12c0.02-0.36,0.24-1.14,0.14-1.35   c0.3-0.3,0.6-0.6,0.9-0.9c0.5-0.34,1.01-0.68,1.52-1.02c0.64-0.46,1.28-0.92,1.93-1.38c0.65-0.8,1.3-1.6,1.95-2.39   c0.21-0.76,0.95-3.25,0.45-3.89c0.24-1.3,0.47-2.6,0.71-3.9c0.16-1.25,0.32-2.49,0.49-3.74c-0.23-1.74-0.46-3.48-0.69-5.21   c0.08-0.56,0.16-1.11,0.24-1.67c-0.35-0.85-0.7-1.7-1.05-2.54c-0.25-0.3-0.5-0.6-0.75-0.9c-0.65-0.4-1.3-0.8-1.95-1.2   c-1.22-1.08-2.26-2.33-3.61-3.26c-0.45-0.31-2.32-1.49-2.22-1.97c-0.55-0.31-2.65-1.51-2.99-1.35c-0.6-0.75-1.2-1.5-1.8-2.24   c-0.46-0.44-0.91-0.88-1.37-1.32c-0.85-0.97-0.78-2.7-1.21-3.87c0.01-0.32,0.02-0.63,0.04-0.95c-0.31-0.93-0.62-1.85-0.93-2.78   c0.05-0.87,0.09-1.74,0.14-2.6c-0.06-0.73-0.25-2.02,0.34-2.55c-0.14-0.61-0.23-2.01,0.3-2.39c-0.1-0.65-0.2-1.3-0.3-1.95   c-0.33-0.68-0.66-1.37-0.99-2.05c-0.46-0.72-0.91-1.44-1.37-2.16c-0.14-0.26-0.66-1.19-0.38-1.41L476.93,210.24z"/>
            <circle cx="506.95" cy="202.39" r="1.586"/>
        </g>
        <g id="__Salıpazarı">
            <path d="   M488.21,278.62c-0.16-0.59-0.32-1.18-0.48-1.78c1.19-1.07,1.81-2.71,1.88-4.12c0.02-0.36,0.24-1.14,0.14-1.35   c0.3-0.3,0.6-0.6,0.9-0.9c0.5-0.34,1.01-0.68,1.52-1.02c0.64-0.46,1.28-0.92,1.93-1.38c0.65-0.8,1.3-1.6,1.95-2.39   c0.21-0.76,0.95-3.25,0.45-3.89c0.24-1.3,0.47-2.6,0.71-3.9c0.16-1.25,0.32-2.49,0.49-3.74c-0.23-1.74-0.46-3.48-0.69-5.21   c0.08-0.56,0.16-1.11,0.24-1.67c-0.35-0.85-0.7-1.7-1.05-2.54c-0.25-0.3-0.5-0.6-0.75-0.9c-0.65-0.4-1.3-0.8-1.95-1.2   c-1.22-1.08-2.26-2.33-3.61-3.26c-0.45-0.31-2.32-1.49-2.22-1.97c-0.55-0.31-2.65-1.51-2.99-1.35c-0.6-0.75-1.2-1.5-1.8-2.24   c-0.46-0.44-0.91-0.88-1.37-1.32c-0.85-0.97-0.78-2.7-1.21-3.87c0.01-0.32,0.02-0.63,0.04-0.95c-0.31-0.93-0.62-1.85-0.93-2.78   c0.05-0.87,0.09-1.74,0.14-2.6c-0.06-0.73-0.25-2.02,0.34-2.55c-0.14-0.61-0.23-2.01,0.3-2.39c-0.1-0.65-0.2-1.3-0.3-1.95   c-0.33-0.68-0.66-1.37-0.99-2.05c-0.46-0.72-0.91-1.44-1.37-2.16c-0.14-0.26-0.66-1.19-0.38-1.41c0,0-0.46,0.78-0.86,1.27   c-0.89,0.96-3.5,2.79-4.72,3.21c-0.52,0.37-1.04,0.74-1.57,1.1c-0.84,0.46-1.69,0.92-2.53,1.38c-0.65-0.11-1.06,0.48-1.57,0.81   c-1.56,1.01-2.67,1.25-3.78,2.81c-0.35,0.47-0.1,1.57-0.04,2.21c-0.05,0.65-0.1,1.3-0.15,1.95c-0.16,0.84-0.33,1.68-0.49,2.53   c-0.33,1.04-1.22,1.64-1.9,2.41c-0.88,1-1.72,2.3-2.1,3.59c-0.65,2.22-0.59,4.55-0.45,6.88c0.24,0.2,0.28,0.43,0.3,0.75   c-0.27,1.06-0.53,2.11-0.8,3.17c-0.39,1.65-0.27,3.22-0.83,4.83c-0.47,0.25-0.94,0.5-1.41,0.75c-0.57,0.24-1,0.37-1.6,0.53   c-0.35-0.1-0.7-0.2-1.05-0.3c-0.46-0.73-2.02-0.76-2.88-0.62c-0.08,0.01,0.02,0.53,0.03,0.77c-0.48,0.4-0.39,1.35-0.24,1.93   c0.31,1.04,2.38,1.67,3.37,2.15c0.55,0.27,1.04,1.12,1.45,1.67c0.05,0.36,0.09,0.72,0.14,1.08c0.51,1.52-0.65,2.81-0.83,4.4   c-0.05,2.29-0.1,4.59-0.15,6.88c0.05,0.95,0.1,1.9,0.15,2.84c-0.1,0.25-0.2,0.5-0.3,0.75c-0.3,0.35-0.6,0.7-0.9,1.05   c-0.05,0.43-0.11,0.87-0.16,1.3c-0.35,1.11-0.69,2.82-1.04,3.94l0,0.16c0,0.89,0,1.79,0,2.68c-0.52,1.82-2.24,3.03-2.24,5.09   c0,1.14,0.37,3.22,1.8,3.13c0.2,0.05,0.39,0.11,0.59,0.16c0.9-0.3,1.8-0.6,2.69-0.9c1.3-0.05,2.59-0.1,3.89-0.15   c1.4-0.4,2.79-0.8,4.19-1.2c0.87-0.43,2.1-1.11,2.69-1.8c0.37-0.42,0.6-0.93,0.6-1.5c0.1-0.02,0.2-0.04,0.3-0.07   c0.87-0.13,1.06,0.29,1.8,0.66c0.99,0.44,1.98,0.89,2.97,1.33c1.2,0.26,2.41,0.51,3.61,0.77c1.4-0.28,2.8-0.56,4.19-0.85   c0.85-0.12,2.01,0.17,2.73-0.35c0.63-0.55,0.82-1.33,1.01-2.1c0.05-0.35,0.1-0.7,0.15-1.05c-0.11-0.58-0.53-2.32-0.23-2.81   c0.08-0.16,0.15-0.32,0.23-0.49c0.8-0.15,1.6-0.3,2.39-0.45c0.36-0.04,0.77,0.12,1.05-0.15c0,0.28,1.33,0.42,1.65,0.45   c0.17,0.02,1.31,0.27,1.63,0.06L488.21,278.62z"/>
            <circle cx="474.33" cy="240.28" r="1.586"/>
        </g>
        <g id="__Ayvacık">
            <path d="   M449.79,288.88c-1.44,0.08-1.8-1.99-1.8-3.13c0-2.06,1.72-3.27,2.24-5.09c0-0.89,0-1.79,0-2.68l0-0.16   c-0.29,0.89-1.8-1.01-2.36-1.34c-1.3-0.76-2.41-3.08-3.03-4.5c-0.15-0.75-0.29-1.5-0.43-2.25c0-1.65,0.24-3.5-0.01-5.08   c0.05-0.4,0.1-0.8,0.15-1.2c0.23-0.65,0.35-2.88,0.15-3.59c-0.48-2.01-0.97-4.03-1.45-6.04c0.11-0.59,0.02-1.01-0.04-1.59   c0.35-0.55,0.7-1.09,1.06-1.64c0.71-0.81,2.14-2.19,2.78-3.32c0.37-0.66,0.03-1.51-0.09-2.22c0.25-0.64-0.14-2.47-0.35-3.14   c-0.29-0.95-1.76-1.22-2.64-1.35c-0.14-0.53-1.04-0.74-1.49-0.92c-0.59-0.09-0.9-0.12-1.3-0.14c-0.04,0.07-0.05,0.12-0.05,0.16   c0.1,0.35,0.2,0.7,0.3,1.05c0,0.56-0.36,1.32,0.3,1.65c-0.2,0.75-0.4,1.5-0.6,2.24c0.35,0.38,0.71,0.75,1.06,1.13   c0.1,0.37,0.19,0.75,0.29,1.12c0.46,0.7,0.37,1.28,0.29,2.06c-0.04,0.39-1.02,1.89-1.32,1.78c-0.73-0.23-1.27-0.43-1.66-1.15   c-0.39-0.15-0.72-0.2-0.9-0.6c-0.3,0.1-0.6,0.2-0.9,0.3c0.22,0.17,0.75,0.46,0.79,0.62c0.09,0.53,0.29,1.38-0.19,1.77   c0,0.65,0.21,0.67-0.19,1.24c-0.32,0.53-0.93,0.75-1.43,1.14c-0.22,0.07-0.45,0.14-0.67,0.22c-0.09-0.07-0.17-0.13-0.26-0.2   c-0.25,0.05-0.5,0.1-0.75,0.15c-0.55,0.55-1.1,1.1-1.65,1.65c-0.15,0.3-0.3,0.6-0.45,0.9c-0.1,0.35-0.2,0.7-0.3,1.05   c0.2,0.55,0.4,1.1,0.6,1.65c-0.11,0.85,0.01,2.3,0.6,2.99c-0.15,1-0.3,2-0.45,2.99c0.26,0.5,0.42,1.17,0.23,1.67   c-0.23,0.99-0.45,1.98-0.68,2.96c-0.4,0.85-0.8,1.7-1.2,2.54c-0.19,0.6-0.3,1.35,0.15,1.8c0,0.4,0,0.8,0,1.2   c-0.1,0.35-0.2,0.7-0.3,1.05c-0.2,0.25-0.4,0.5-0.6,0.75c0-0.05,0-0.1,0-0.15c0-0.47,0.1-2.56,0.3-2.84   c-0.05-0.53-0.1-1.06-0.15-1.59c0.15-0.47,0.3-0.94,0.45-1.4c0.73-1.07,1.54-3.99,0.33-5.01c-0.11-0.28-0.22-0.55-0.33-0.83   c0-0.92,0.93-2.91,0.72-3.36c-0.15-1.08-1.26-0.98-1.17-1.88c0.98,0.33,1.35,0.04,1.35-0.9c0,0-0.84-1.43-0.9-1.5   c0.23-1.03,0.52-2.46,1.2-3.29c0.58-0.71,1.17-1.74,2.1-1.8c1.43-0.09,3-0.32,2.13-1.34c0.07-0.27,0.15-0.55,0.22-0.82   c-0.38-0.83-0.77-1.65-1.15-2.48c0.28,0.13,0.73,0.54,0.79,0.27c0.21-0.98-0.25-1.28,0.6-2.13c0.44-0.47,0.88-0.42,1.45-0.66   c0.15-0.07,0.3-0.14,0.44-0.21c-0.05-0.4,0.07-0.41-0.29-0.71c0.27-0.76,1.31-2.4,0.75-3.14c0.14,0,0.29-0.01,0.43-0.01   c0.2,0.01,0.32,0.11,0.3-0.14c-0.05-0.55-0.09-1.1-0.14-1.65c0.03-0.1,0.07-0.21,0.12-0.34c-0.19-0.01-0.41-0.03-0.69-0.05   c-0.63,0.32-1.51-0.1-2.13-0.29c-0.86-0.27-1.98,0-2.83,0.08c-0.57,0.38-1.14,0.75-1.71,1.13c-0.58,0.62-1.15,1.24-1.73,1.86   c-0.34-0.15-1.09,0.22-1.5,0.3c-1.05-0.15-2.1-0.3-3.14-0.45c-0.14,0.07-0.28,0.15-0.42,0.22c-0.96,0.23-1.06,2.82-1.23,3.71   c-0.1,0.19-0.2,0.37-0.29,0.56c-0.42,1.05-0.84,2.1-1.25,3.15c-0.16,0.67,0.1,1.26,0.21,1.94c-0.35,0.63-0.06,1.56,0,2.24   c-0.15,0.65-0.3,1.3-0.45,1.95c-0.14,0.26-0.28,0.53-0.42,0.79c-0.31,0.08-0.62,0.17-0.93,0.25c-0.82,0.93-2.22,0.22-3.17,0.43   c-0.92,0.19-2.48,2.28-3.27,3.17c-0.3,0.15-0.6,0.3-0.9,0.45c-0.29-0.04-1.6,0.38-2.1,0.43c-0.79,0.06-1.14-0.6-1.88-0.94   c-1.25-0.57-2.88-1.09-4.24-1.25c-0.34-0.05-1.89,0.96-2.29,1.27c-0.59,0.22-1.17,0.43-1.76,0.65c-0.2,0.25-0.4,0.5-0.6,0.75   c-0.78,0.65-1.55,1.23-2.54,1.05c-0.61,1.35,1.05,3,1.95,3.74c-0.31,0.5,0.46,1.26,0.6,1.8c0.15,0.56,0.04,0.94,0.01,1.5   c-0.3,0.6-0.6,1.2-0.91,1.8c-0.45,0.3-0.9,0.6-1.35,0.9c-0.57-0.31-1.36,0.4-1.85,0.67c-1.53,0.85-1.09,1.36-2.94,2.02   c-0.09-0.07-1.08-0.43-1.17-0.49c-1.37-0.3-2.08-1.53-3.02-2.5c-0.35-0.24-0.7-0.47-1.04-0.71c-0.85-0.22-1.7-0.44-2.55-0.65   c-1.48-0.4-2.86-1.3-4.03-2.11l-0.44-0.84l-0.02,0.12c-0.79-0.38-1.07-0.26-1.59,0.5c-0.18,0.27-0.64,0.41-0.35,0.7   c-0.18,0.1-0.35,0.21-0.53,0.31c-0.3,0.18-0.69-0.1-1.12-0.01c-0.34,0.07-1.65,0.51-1.65,0c-0.05,0.05-0.1,0.1-0.15,0.15   c-0.65-0.2-1.3-0.4-1.95-0.6c-0.32-0.32-0.44-0.48-0.9-0.75c-0.35,0-0.7,0-1.05,0c-0.35,0.15-0.7,0.3-1.05,0.45   c-0.05,0.1-0.1,0.2-0.15,0.3c-0.29,0.29-0.07,0.42,0,0.75c0.05,0.3,0.1,0.6,0.15,0.9c0.17,0.83,1.8,1.78,2.39,2.1   c0.36,0.36,0.95,1,0.45,1.5c0.05,0.15,0.1,0.3,0.15,0.45c-0.37,0.54-0.48,0.71-0.3,1.35c0.25,0.91,1.1,1.27,1.65,2.1   c-0.05,0.25-0.1,0.5-0.15,0.75c0.05,0.35,0.1,0.7,0.15,1.05c-0.16,0.58-0.3,0.7-0.3,1.35c0.15,0.25,0.3,0.5,0.45,0.75   c0.35,0.35,0.7,0.7,1.05,1.05c-0.05,0.05-0.1,0.1-0.15,0.15c0.2,0.15,0.4,0.3,0.6,0.45c0,0.49-0.31,0.82-0.6,1.2   c0,0.85,0,1.7,0,2.54c-0.35,0.52-0.79,0.64-1.2,1.05c0.33,0.33-0.04,0.63-0.3,0.9c0,0.75-0.9,1.29-1.5,1.5l0.15,0.15   c0.2,0.15,0.4,0.3,0.6,0.45c0.33-0.33,1.48-0.1,1.8,0.15c0.25-0.05,0.5-0.1,0.75-0.15c0.25,0.26,0.42,0.25,0.75,0.3   c0,0.15,0,0.3,0,0.45c0.15,0.2,0.3,0.4,0.45,0.6c-0.64,0.64,0.73,1.37,0.3,1.8c0.4,0.5,0.8,1,1.2,1.5c0.38,0,0.49,0.19,0.75,0.45   c0,0.65,0.66,0.96,1.05,1.35c0.46-0.23,2.02-0.05,2.61,0.05c0.24-0.2,1.42-0.35,1.73-0.35c0.3-0.3,2.03-1.95,2.39-1.95   c1.41-0.05,2.75,0.21,3.74,1.2c0.38,0,0.49-0.19,0.75-0.45c0.22,0,0.3,0.08,0.3,0.3c0.47,0,0.98-0.51,1.35-0.15   c0.1,0.15,0.2,0.3,0.3,0.45c0.49,0,1.2,0.93,1.2,1.35c0.27,0.13,0.47,0.17,0.6,0.45c0.3-0.3-0.15-0.25-0.15-0.6   c0.05-0.3,0.1-0.6,0.15-0.9c0,0.1,0,0.2,0,0.3c0.35,0.3,0.7,0.6,1.05,0.9c0-0.2,0-0.4,0-0.6c0-0.38,0.19-0.75,0.6-0.75   c-0.23,0.23-0.23,0.67,0,0.9c0.2,0.15,0.4,0.3,0.6,0.45c1.05-0.05,2.1-0.1,3.14-0.15c0.55-0.2,1.1-0.4,1.65-0.6   c0.25,0,0.5,0,0.75,0c0.46-0.04,1.01-0.49,1.35-0.15c0.2-0.2,0.22-0.38,0.45-0.15c0.39-0.29,1.5-1,1.5-1.5   c0.26,0.26,0.93-0.19,1.2-0.45c0.27,0,0.4,0.05,0.6-0.15c0-0.27-0.05-0.4,0.15-0.6c0.25-0.15,0.5-0.3,0.75-0.45   c0.33,0,0.68-0.23,0.9-0.45c0,0.75,1.07-0.35,1.2-0.6c0.54,0.54,0.71-0.01,1.2-0.3c0.55,0,0.94-0.27,1.2-0.75   c0.1,0.05,0.2,0.1,0.3,0.15c0.94-0.26,1.1-0.74,1.65-1.5c0,0.29-0.07,0.53,0.15,0.75c0.3,0,0.6,0,0.9,0   c0.25,0.25,0.55,0.45,0.9,0.45c0.15,0.2,0.3,0.4,0.45,0.6c0.58,0,1.27,0.11,1.8-0.15c0-0.42,0.06-0.7,0.3-1.05   c-0.41-0.41,0.63-1.53,0.9-1.8c0-0.41-0.02-0.6,0.45-0.6c0.26-0.26,0.18-0.32,0.59-0.39c0.77-0.11,0.81,0.48,1.5,0.69   c0.37,0.11,0.54,0.05,0.9,0.3c0.15,0.05,0.3,0.1,0.45,0.15c0.2-0.2,0.24-0.2,0.45,0c0,0.81-0.26,1.7-0.07,2.41   c0.07,0.3,0.32,0.73,0.66,0.73c0.38,0,0.18-0.09,0.48-0.24c0.49-0.25,0.76-0.25,1.17-0.65c0-0.88-0.36-1.83,0.47-2.51   c0.19-0.11,0.38-0.22,0.58-0.33c0.35-0.05,0.7-0.1,1.05-0.15c0-0.52,0.83-1.2,1.35-1.2c0.45,0.35,1.14,1.28,1.39,1.18   c0.23-0.06,0.7-0.04,0.7-0.28c-0.62-0.62-1.2-2.44-1.2-3.29c0.57-0.57,0.79-1.76,0.15-2.39c0.1-0.15,0.2-0.3,0.3-0.45   c0-0.29,0.14-1.5,0.6-1.05c0.23,0.5,1.95,0.92,1.95,1.35c-0.2,0.2-0.4,0.4-0.6,0.6c-0.2,1-0.4,2-0.6,2.99   c0.06,0.4,0.33,0.63,0.6,0.9c-0.05,0.2-0.1,0.4-0.15,0.6c0.21,1.37,1.56,1.65,2.69,1.65c0.25,0.2,0.5,0.4,0.75,0.6   c-0.3,0-0.38,0.63-0.45,0.9c1.2,0.04,0.91,0.31,1.65,1.05c0.38,0,0.49,0.19,0.75,0.45c0.2-0.15,0.4-0.3,0.6-0.45   c0.49,0,0.2,0.4,0,0.6c0,0.53,0.36,0.15,0.6,0.15c0.25-0.25,2-1.5,2.39-1.5c0.89-0.76,2.06-1.37,3.14-1.65   c0.65-0.3,1.3-0.6,1.95-0.9C450.19,288.98,449.99,288.93,449.79,288.88z"/>
            <circle cx="430.75" cy="267.64" r="1.586"/>
        </g>
    </g>
</svg>