<?xml version="1.0" encoding="UTF-8"?>
<!DOCTYPE svg PUBLIC "-//W3C//DTD SVG 1.1//EN" "http://www.w3.org/Graphics/SVG/1.1/DTD/svg11.dtd">
<svg version="1.1" id="HaritaCizim" xmlns="http://www.w3.org/2000/svg" xmlns:xlink="http://www.w3.org/1999/xlink" x="0px" y="0px" viewBox="0 0 450 281" preserveAspectRatio="none">
    <defs id="__def">
        <radialGradient id="f">
            <stop offset="0" stop-color="white" stop-opacity="1"/>
            <stop id="STOP1" offset=".4" stop-opacity="1"/>
            <stop offset="1" stop-color="white" stop-opacity=".2"/>
        </radialGradient>
        <filter id="__flt1" x="0" y="0" width="200%" height="200%" filterUnits="objectBoundingBox">
            <feGaussianBlur in="SourceAlpha" stdDeviation="3" result="blur1"/>
            <feSpecularLighting result="specOut" in="blur1" specularConstant="1.5" specularExponent="20" lighting-color="#bbbbbb">
                <feDistantLight azimuth="45" elevation="30"/>
            </feSpecularLighting>
            <feComposite in="specOut" in2="SourceAlpha" operator="in" result="specOut"/>
            <feComposite in="SourceGraphic" in2="specOut" operator="arithmetic" k1="0" k2="1" k3="1" k4="0"/>
        </filter>
        <filter id="__flt2" x="0" y="0" width="200%" height="200%" filterUnits="objectBoundingBox">
            <feGaussianBlur in="SourceAlpha" stdDeviation="3" result="blur1"/>
            <feSpecularLighting result="specOut" in="blur1" specularExponent="20" lighting-color="#bbbbbb">
                <fePointLight x="-2000" y="100" z="2000"/>
            </feSpecularLighting>
            <feComposite in="specOut" in2="SourceAlpha" operator="in" result="specOut"/>
            <feComposite in="SourceGraphic" in2="specOut" operator="arithmetic" k1="0" k2="1" k3="1" k4="0"/>
        </filter>
        <filter id="__flt3" x0="-50%" y0="-50%" width="200%" height="200%" filterUnits="objectBoundingBox">
            <feGaussianBlur in="SourceAlpha" stdDeviation="3" result="blur"/>
            <feOffset in="blur" dx="0" dy="0" result="offsetBlur"/>
            <feSpecularLighting in="blur" surfaceScale="4" specularConstant=".5" specularExponent="20" lighting-color="flavor" result="specOut">
                <fePointLight x="-5000" y="-10000" z="5000"/>
            </feSpecularLighting>
            <feComposite in="specOut" in2="SourceAlpha" operator="in" result="specOut"/>
            <feComposite in="SourceGraphic" in2="specOut" operator="arithmetic" k1="0" k2="1" k3="1" k4="0" result="litPaint"/>
            <feMerge>
                <feMergeNode in="offsetBlur"/>
                <feMergeNode in="litPaint"/>
            </feMerge>
        </filter>
        <filter id="__flt4" x0="-50%" y0="-50%" width="200%" height="200%">
            <feGaussianBlur in="SourceAlpha" stdDeviation="2" result="blur"/>
            <feOffset dy="-1" dx="-1"/>
            <feComposite in2="SourceAlpha" operator="arithmetic" k2="-1" k3="1" result="hlDiff"/>
            <feFlood flood-color="white" flood-opacity=".7"/>
            <feComposite in2="hlDiff" operator="in"/>
            <feComposite in2="SourceGraphic" operator="over" result="withGlow"/>
            <feOffset in="blur" dy="3" dx="3"/>
            <feComposite in2="SourceAlpha" operator="arithmetic" k2="-1" k3="1" result="shadowDiff"/>
            <feFlood flood-color="black" flood-opacity="1"/>
            <feComposite in2="shadowDiff" operator="in"/>
            <feComposite in2="withGlow" operator="over"/>
        </filter>
        <filter id="__golge1" x="0" y="0" width="200%" height="200%" filterUnits="userSpaceOnUse">
            <feOffset result="offOut" in="SourceAlpha" dx="8" dy="8"/>
            <feGaussianBlur result="blurOut" in="offOut" stdDeviation="3"/>
            <feBlend in="SourceGraphic" in2="blurOut" mode="normal"/>
        </filter>
    </defs>
    <g id="__Komsular" display="none">
        <path fill-rule="evenodd" clip-rule="evenodd" fill="none" stroke="#000000" stroke-width="0.25" stroke-miterlimit="10" d="   M106.05,28.45c-0.54-1.26-1.44-1.9-2.23-2.83c-0.81-0.96-1.21-1.99-1.74-3.15c-1.06-2.3-1.95-4.63-3.01-6.77   c-1.24-2.52-1.33-5.46-1.23-8.4c0.06-1.54,0.39-2.15,1.09-3.46c0.7-1.31,0.79-2.47,1.23-3.84"/>
        <path fill-rule="evenodd" clip-rule="evenodd" fill="none" stroke="#000000" stroke-width="0.25" stroke-miterlimit="10" d="   M363.49,110.77c0.17-0.04,0.32,0.02,0.49-0.03c0.65-1.17,1.42-1.75,1.61-3.11c0.21-1.48,0.28-2.48,0.69-3.85   c0.84-2.81,0.74-5.24,0-8.04c-1.43-5.38-2.79-10.22-2.79-16.08c0-2.99,1.57-5.03,2.26-7.69c0.67-2.56,1.44-4.85,2.67-7.16   c1.39-2.6,2.4-4.58,2.97-7.52c0.53-2.72,0.89-4.97,1.18-7.86c0.28-2.83,2.77-4.41,3.5-6.99c0.35-1.23,0.43-2.49,0.87-3.67   c0.46-1.23,0.94-2.43,1.26-3.68c1.4-5.61-0.26-12.16-6.85-12.23c-2.76-0.03-5.85,2.19-8.56,0.7c-1.06-0.58-1.88-2.13-2.24-3.32   c-0.54-1.84-0.12-2.4,1.07-3.62c1.63-1.69,2.76-3.9,4.45-5.51c1.7-1.62,3.96-2.14,5.68-3.93c1.6-1.66,3.15-2.04,5.37-2.49   c2.34-0.47,3.23-1.79,4.76-3.64"/>
        <path fill-rule="evenodd" clip-rule="evenodd" fill="none" stroke="#000000" stroke-width="0.25" stroke-miterlimit="10" d="   M419.07,190.64c2.2-0.73,5.74-0.96,8.04-0.48c2.7,0.56,4.56,2.36,7,3.28c2.35,0.89,5.43,0.29,7.87,0.86   c2.75,0.65,4.98,1.65,8.03,1.23"/>
        <path fill-rule="evenodd" clip-rule="evenodd" fill="none" stroke="#000000" stroke-width="0.25" stroke-miterlimit="10" d="   M146.42,220.35c-0.24,1.14,0.8,2.53,1.18,3.54c0.51,1.36,0.82,2.48,0.74,3.98c-0.11,2.21,0.15,2.13,1.58,3.67   c1.23,1.32,1,1.56,0.39,3.02c-0.5,1.22-1.05,2.12,0.26,3.14c1.24,0.96,2.32,0.03,3.71,0.31c1.74,0.34,1.36,1.77,2.45,2.63   c0.76,0.61,1.98,0.96,2.84,1.7c1.99,1.71,1.76,4.21,3.67,5.77c0.95,0.78,2.2,1.51,2.81,2.62c0.76,1.38,0.12,2.24-0.05,3.71   c-0.34,2.96,0.27,5.24-3.14,6.13c-1.25,0.33-2.03,0.88-3.19,1.18c-1.81,0.46-1.91-0.99-3.27-1.19c-2.98-0.45-0.12,4.07-0.53,5.6   c-0.42,1.57-2.42,3.89-4.17,4.04c-0.47,2.04,2.81,4.64,3.48,6.43c0.49,1.33-0.05,2.97,0.17,4.38"/>
        <path fill-rule="evenodd" clip-rule="evenodd" fill="none" stroke="#000000" stroke-width="0.25" stroke-miterlimit="10" d="   M124.05,217.2c-0.98,2.29-2.22,4.24-3.1,6.51c-0.97,2.51-1.47,4.8-2.66,7.13c-0.99,1.93-3.61,3.63-5.81,3.97   c-3.12,0.49-5.41-0.7-7.66,2c-1.66,2-2.96,3.97-3.66,6.43c-0.62,2.21-2.43,4.54-4.05,6.24c-1.56,1.63-3.36,2.9-4.82,4.8   c-1.59,2.08-3.47,3.01-5.5,4.82c-1.19,1.06-0.99,2.12-1.88,3.36c-0.67,0.94-1.81,1.51-2.8,2.1c-1.14,0.68-2.01,1.35-3.32,1.74   c-1.33,0.4-2.75,0.26-4.02,0.88c-2.37,1.16-3.12,3.94-5.28,5.21c-2.21,1.3-4.67,1.43-7.13,1.95c-2.93,0.62-5.05,1.93-8.21,1.93   c-3.1,0-6-0.07-8.91,0.69c-5.47,1.43-11.21,2.08-16.42-0.3c-2.41-1.1-4.39-2.55-6.96-3.23c-2.36-0.62-5.66-1.33-8.07-0.97   c-2.76,0.42-6.26-0.29-8.88,0.7c-1.59,0.59-3.43,1.38-4.9,2.4"/>
        <text transform="matrix(0.6786 -0.7345 0.7345 0.6786 121.8813 258.2515)" font-family="'MyriadPro-Regular'" font-size="12">MARDİN</text>
        <text transform="matrix(0.0448 -0.999 0.999 0.0448 19.5737 124.8999)" font-family="'MyriadPro-Regular'" font-size="12">BATMAN</text>
        <text transform="matrix(0.9739 0.2269 -0.2269 0.9739 247.5073 23.5537)" font-family="'MyriadPro-Regular'" font-size="12">BİTLİS</text>
        <text transform="matrix(0.2709 0.9626 -0.9626 0.2709 408.4717 118.104)" font-family="'MyriadPro-Regular'" font-size="12">VAN</text>
        <text transform="matrix(0.9386 -0.3449 0.3449 0.9386 304.9468 256.2734)" font-family="'MyriadPro-Regular'" font-size="12">ŞIRNAK</text>
    </g>
    <g id="__Harita" display="none">
        <rect id="__cer" x="0" y="0" fill="#000000" opacity="0" width="450" height="281"/>
        <g id="__Şirvan">
            <path d="    M176.57,61.31c-0.68,0.98-1.23,3.61-1.38,4.89c-0.2,1.65,0.12,3.68,0.68,5.24c0.06,0.93,0.12,1.86,0.17,2.8    c0.17,0.41,0.35,0.82,0.52,1.22c-0.28,1.34-0.56,2.69-0.84,4.03c-0.01,0.7-0.03,1.39-0.04,2.09c-0.35,0.87-0.84,1.92-1.57,2.45    c-0.82,0.47-1.63,0.93-2.45,1.4c-0.47,0.35-0.93,0.7-1.4,1.05c-0.23,0.29-0.47,0.58-0.7,0.87c-0.87,0.52-1.75,1.05-2.62,1.57    c-0.27,0.32-0.54,0.64-0.81,0.96c-0.72,0.77-0.45,2.37-0.42,3.41c0.45,0.72,0.9,1.44,1.35,2.16c0.83,0.85,1.66,1.71,2.5,2.56    c1.3,1.64,1.83,5.31,1.83,7.34l0.09,0.35c0.87,0.06,1.75,0.12,2.62,0.17c0.52-0.06,1.59,0.11,2.12,0.05    c1.15,0.24,1.71,0.99,2.95,0.99c0.94,0.83,1.29,1.23,1.92,2.27c0.29,0.12,0.58,0.23,0.87,0.35c0.38,0.51,0.72,0.83,1.22,1.22    c0.51,0,2.32,1.32,2.45,1.75c0.8,0.4,1.87,1.42,2.8,1.22c0.64,0.52,1.27,1.04,1.91,1.56c0.53,0.29,1.06,0.59,1.58,0.88    c2.73,0.55,5.1,1.93,7.86,2.45c0.51,0,1.03,0,1.55-0.01c1.58,0.12,3.16,0.24,4.75,0.35c0.5-0.07,1.12-0.12,1.4-0.52    c0.37,0,0.78-0.07,1.05,0.17c0.7-0.12,1.4-0.23,2.1-0.35c0.7,0.17,1.4,0.35,2.1,0.52c1.61,1.05,2.46,2.89,3.98,4.18    c0.6,0.41,1.19,0.82,1.79,1.23c0.41,0.35,0.82,0.7,1.22,1.05c0.37,0.15,1.05,0.34,1.4,0.17c1.38,0.63,4.53,1.93,5.94,1.05    c0.52,0.12,1.05,0.23,1.57,0.35c0.58,0.23,1.17,0.47,1.75,0.7c0.29,0.17,0.58,0.35,0.87,0.52c0.63,1.07,2.53,3.64,3.67,4.02    c2.99-0.94,5.09,0.61,7.34,2.45c0.57,0.36,1.14,0.73,1.71,1.09c0.82,0.64,2.94,2.48,4.05,2.18c0.47-0.1,0.94-0.2,1.41-0.31    c0.41-0.35,0.82-0.7,1.22-1.05c2.03-2.7,2.68-5.78,5.59-8.06c0.68-0.53,1.76-1.9,2.63-1.9c0.49,0,1.42-0.02,1.75,0.35    c0.82-0.17,1.63-0.35,2.45-0.52c0.44-0.11,0.94,0.02,1.22-0.35c1.5,0.15,3,0.88,4.54,0.7c2.51-0.46,5.01-0.91,7.52-1.37    c1.22-0.18,2.44-0.36,3.66-0.54c0.47-0.03,1.26,0,1.57-0.36c1.44,0,2.47-0.35,3.87-0.67c0.69-0.17,1.38-0.33,2.06-0.5    c0.49-0.2,1.21-0.22,1.58-0.58c3.32-0.54,7.02-1.39,9.96-3.18c1-0.61,3.15-2.63,3.15-3.81c0.64-1.05,1.28-2.1,1.92-3.15    c0.98-0.53,1.64-1.36,2.45-2.1c2.52-1.65,5.05-3.31,7.58-4.96c0.46-0.13,0.92-0.26,1.38-0.39c0.52,0.18,0.7-0.27,1.18-0.42    c0.54-0.17,3.23,0.39,2.97-0.09c-0.04-0.1-0.17-0.35-0.35-0.61c-0.17-0.29-0.35-0.58-0.52-0.87c-0.41-0.5-1.1-0.92-1.22-1.57    c-1.1-0.49-2.2-0.97-3.29-1.46c-2.04-1.13-3.99-2.64-6.14-3.61c-1.17-0.6-2.34-1.2-3.51-1.8c-0.58-0.27-1.16-0.55-1.74-0.82    c-1.74-1.74-3.57-3.77-5.77-4.89c-2.21-1.12-5.85-0.38-7.54-1.9c-0.5-0.45-1.55-1.21-1.55-1.95c-0.12-0.41-0.23-0.82-0.35-1.22    c0-0.52,0-1.05,0-1.57c0.24-1.95,2.24-2.8,3.32-4.19c0.29-0.47,0.58-0.93,0.87-1.4c0.11-0.72,0.33-3.02-0.34-3.19    c-2.98-0.73-5.59,0.75-8.52,0.92c-1.46-0.03-2.92-0.05-4.39-0.08c-0.71-0.09-1.42-0.18-2.13-0.27c-2.58-0.04-5.17,0.65-7.68,0.01    c-2.42-0.61-4.21-2-6.34-3.16c-0.71-0.69-1.41-1.38-2.12-2.08c-0.18-0.6-0.69-0.77-1-1.27c-0.51-0.81-1.94-3.14-2.77-3.47    c-0.58-1.05-1.17-2.1-1.75-3.15c-0.02-0.72-0.34-1.88-1.05-2.27c-0.35-0.87-0.7-1.75-1.05-2.62c-0.12-1.22-0.23-2.45-0.35-3.67    c0.17-1.05,0.35-2.1,0.52-3.15c0.23-0.92,0.46-1.84,0.69-2.76c0.91-1.43,1.19-3.28,1.23-4.93c0.09-0.57,0.18-1.14,0.27-1.71    c-0.29-0.49-0.55-1.26-1.15-1.26c-2.71-0.52-5.3-0.3-7.89,0.67c-0.74,0.28-1.47,0.57-2.21,0.85c-1.43,1.13-4.35,2.17-6.19,2.59    c-1.06,0.24-2.05,0.16-3.12,0.26c-1.46,0.28-2.92,0.55-4.37,0.83c-0.66,0.05-3.11,0.18-3.49,0.57c-1.36,0.22-3.22,0.38-4.37,1.22    c-1.22,0.93-2.45,1.86-3.67,2.8c-0.99,0.67-1.98,1.34-2.98,2.01c-0.84,0.94-1.76,1.78-2.79,2.53c-0.33-0.08-3.55,2.16-4.37,3.15    c-0.67,0.43-1.34,0.85-2.02,1.28c-1.73,1.7-3.81,2.69-6.31,2.6c-0.9,0.11-1.79,0.21-2.69,0.32c-0.99,0.29-1.98,0.58-2.97,0.87    c-0.41,0.29-0.82,0.58-1.22,0.87c-0.47,0.82-0.93,1.63-1.4,2.45c-0.82,0.82-1.63,1.63-2.45,2.45c-0.47,0.12-0.93,0.23-1.4,0.35    c-0.41,0.12-0.82,0.23-1.22,0.35c-1.96,0.29-3.82-1-5.24-2.1c-0.58-0.58-1.17-1.17-1.75-1.75c-0.49-0.96-0.99-1.93-1.48-2.89    c-0.16-0.35-0.31-0.71-0.47-1.06C177.94,59.8,177,60.7,176.57,61.31z"/>
            <circle cx="200.08" cy="95.56" r="1.586"/>
        </g>
        <g id="__Pervari">
            <path d="    M231.8,149.97c0.57-0.4,0.77-0.66,1.35-1.06c0.1-0.24,0.77-0.87,0.87-1.11c0.43-0.69,0.85-1.39,1.28-2.09    c0.12-0.35,0.23-0.7,0.35-1.05c-0.06-1.57-0.12-3.15-0.17-4.72c0.01-0.45,0.03-0.89,0.04-1.34c-0.54-0.58-0.23-1.77-0.22-2.51    c-0.11-0.64-0.23-1.28-0.34-1.92c-0.59-0.61-0.01-2.1-0.01-2.1c2.99-0.94,5.09,0.61,7.34,2.45c0.57,0.36,1.14,0.73,1.71,1.09    c0.82,0.64,2.94,2.48,4.05,2.18c0.47-0.1,0.94-0.2,1.41-0.31c0.41-0.35,0.82-0.7,1.22-1.05c2.03-2.7,2.68-5.78,5.59-8.06    c0.68-0.53,1.76-1.9,2.63-1.9c0.49,0,1.42-0.02,1.75,0.35c0.82-0.17,1.63-0.35,2.45-0.52c0.44-0.11,0.94,0.02,1.22-0.35    c1.5,0.15,3,0.88,4.54,0.7c2.51-0.46,5.01-0.91,7.52-1.37c1.22-0.18,2.44-0.36,3.66-0.54c0.47-0.03,1.26,0,1.57-0.36    c1.44,0,2.47-0.35,3.87-0.67c0.69-0.17,1.38-0.33,2.06-0.5c0.49-0.2,1.21-0.22,1.58-0.58c3.32-0.54,7.02-1.39,9.96-3.18    c1-0.61,3.15-2.63,3.15-3.81c0.64-1.05,1.28-2.1,1.92-3.15c0.98-0.53,1.64-1.36,2.45-2.1c2.52-1.65,5.05-3.31,7.58-4.96    c0.46-0.13,0.92-0.26,1.38-0.39c0.52,0.18,0.7-0.27,1.18-0.42c0.54-0.17,2.97,0.17,2.97,0.17c0.26,0.7,0.47,2.74,0.62,3.34    c0.27,1,0.53,1.99,0.8,2.99c0.29,0.46,0.58,0.91,0.87,1.37c0.34,0.58,0.68,1.16,1.03,1.74c0.64,0.76,1.28,1.52,1.92,2.27    c0.87,0.58,1.75,1.17,2.62,1.75c0.47,0.06,0.94,0.11,1.4,0.17c2.56,0,5.11,1.2,7.51,2.06c2.05,0.73,4.1,1.46,6.16,2.18    c1.62,0.09,3.23,0.19,4.85,0.28c0.7,0.18,1.4,0.36,2.1,0.54c0.66-0.66,2.13-0.17,2.97-0.52c1.7-0.73,3.11-1.38,4.54-2.62    c0.76-0.93,1.52-1.86,2.27-2.8c0.06-0.52,0.12-1.05,0.17-1.57c1.35-0.73,2.57-3.3,3.45-4.59c0.4-0.56,3.66-0.42,4.06-0.83    c0.44,0.07,0.83,0.4,0.98,0.81c1.18,0.27,2.43,1.04,3.39,1.81c0.35,0.35,0.7,0.7,1.05,1.05c1.04,0.48,2.08,0.95,3.11,1.43    c0.42,0.22,0.84,0.44,1.26,0.67c1.28,2.04,2.56,4.08,3.84,6.12c0.56,1.31,1.12,2.62,1.68,3.93c0.49,1.09,1.23,1.88,1.96,2.79    c0.6,0.5,1.19,0.99,1.79,1.49c0.34,0.74,1.25,1,1.75,1.57c0.56,0.65,1.27,0.88,1.92,1.4c1.47,1.16,3.63,2.52,4.72,4.02    c0.4,0.54,1.65,3.95,1.54,4.56c0.94,3.08,1.89,6.16,2.83,9.25c0.7,2.16,1.4,4.31,2.1,6.47c1.5,2.16,2.14,4.45,3.15,6.82    c0.7,1.52,1.4,3.03,2.1,4.54c0.06,0.47,0.12,0.93,0.17,1.4c0.12,0.29,0.23,0.58,0.35,0.87c0.64,1.11,1.28,2.21,1.92,3.32    c2.72,3.39,5.47,6.77,7.58,10.63c0.69,1.34,1.39,2.68,2.09,4.02c0.22,0.36,0.71,1.08,1.17,1.08c-0.89,2.48-2,4.9-2.45,7.51    c-0.46,2.73-0.61,5.33-1.22,8.04c0.24,0.51-0.07,1.03,0,1.57c0.21,1.65-0.32,5.68-1.4,6.99c-0.27,0.41-0.55,0.81-0.82,1.22    c-2.94,2.45-5.77,4.8-8.79,7c-0.87,0.23-1.75,0.47-2.62,0.7c-1.22,0.17-2.45,0.35-3.67,0.52c-0.54-0.43-2.22-0.17-2.97-0.35    c-2.27-0.58-4.54-1.17-6.82-1.75c-2.74-0.82-5.48-1.63-8.21-2.45c-1.66-0.83-3.92-1.04-5.77-1.22c-0.46-0.19-0.92-0.38-1.39-0.57    c-1.29-0.39-2.58-0.78-3.87-1.17c-0.95-0.22-1.89-0.44-2.84-0.66c-0.39-0.06-0.78-0.12-1.17-0.18c-1.37-0.24-3.31-0.46-4.46-1.28    c-1.25-0.23-2.5-0.45-3.75-0.68c-2.21-1.01-4.42-2.01-6.64-3.01c-1.64-0.76-3.28-1.52-4.93-2.28c-1.46-0.42-2.85-0.97-4.16-1.66    c-1.92-0.56-3.84-1.11-5.76-1.67c-1.35-0.27-2.69-0.54-4.04-0.81c-4.2-0.12-7.95,1.28-12.06,2.1c-0.74,0.38-1.49,0.75-2.23,1.13    c-1.76,1.14-3.52,2.28-5.28,3.41c-0.93,0.47-1.86,0.93-2.8,1.4c-1.22,0.47-2.45,0.93-3.67,1.4c-0.48-0.09-1.63,0.59-2.11,0.84    c-1.45,0.65-2.91,1.3-4.36,1.96c-1.41,0.07-2.83,0.15-4.24,0.22c-1.97-0.07-3.94-0.14-5.91-0.21c-0.46-0.06-0.92-0.12-1.39-0.19    c-0.76-0.06-1.52-0.12-2.27-0.17c-3.08-0.78-6.17-1.55-9.25-2.33c-1.58-0.62-3.16-1.25-4.75-1.87c-0.25-0.69-0.08-2.04-0.04-2.98    c0.56-3.09,0.38-6.16,0.58-9.25c-0.03-0.72-0.06-1.43-0.09-2.15c-0.28-1.08-0.55-2.16-0.83-3.24c-0.13-1.32,0.11-2.5-0.29-3.82    c-0.64-2.13-2.34-3.77-3.68-5.47c-0.23-0.52-0.47-1.05-0.7-1.57c0.06-1.05,0.12-2.1,0.17-3.15c0.58-1.63,1.17-3.26,1.75-4.89    c1.13-1.13,1.65-4.02,2.15-5.6c0.35-0.72,0.7-1.43,1.05-2.15c0.26-0.91,0.53-1.83,0.79-2.74c0.17-1.05-0.81-2.2-1.4-2.96    c-0.15-0.19-1.16-0.25-1.56-0.3c-1.82-0.23-3.46,0-5.23,0.29c-0.64-0.13-1.28-0.26-1.92-0.39c-0.41-0.04-0.93-0.02-1.22-0.31    c-1.04-0.07-2.09-0.13-3.13-0.2c-2.34-0.24-4.68-0.49-7.02-0.73c-1.1,0.08-2.2,0.16-3.3,0.23c-2.39-0.29-4.78-0.58-7.17-0.87    c-0.75-0.65-1.47-1.16-2.33-1.65c-0.45-0.26-0.89-0.53-1.34-0.79c-1.09-1.66-1.53-3.06-2.62-4.72c-0.46-0.54-1.52-2.32-2.27-2.36    L231.8,149.97z"/>
            <circle cx="333.25" cy="138.38" r="1.586"/>
        </g>
        <g id="__Eruh">
            <path d="    M146.51,220.15c-0.12-0.34-0.23-0.68-0.35-1.03c-0.06,0.06-0.44-0.58-0.62-1.25c-0.25-0.94-0.14-3.83-0.77-4.35    c0.17-0.58,0.35-1.17,0.52-1.75c0.06-1.57,0.12-3.15,0.17-4.72c0.04-0.36,0.54-1.24,0.87-1.22c0.12-0.41,0.23-0.82,0.35-1.22    c0.42-1.62,0.31-3.48,1.4-4.89c0.52-0.68,1.83-1.29,1.92-2.1c0.63-0.3,1.26-0.6,1.9-0.9c1.17-1.16,2.35-2.31,3.52-3.47    c1.51-0.64,3.03-1.28,4.54-1.92c1.16-0.53,2.32-1.06,3.47-1.58c0.94-0.69,1.88-1.39,2.82-2.09c0.26-0.26,0.52-0.51,0.78-0.77    c0.9-0.85,1.81-1.7,2.71-2.55c0.35-0.23,0.7-0.47,1.05-0.7c0.47-0.49,0.94-0.98,1.41-1.47c0.53-0.72,1.06-1.44,1.58-2.16    c0.44-0.52,1.38-1.49,1.04-2.07c-0.37-0.62-0.78-1.36-1.59-1.64c-0.56-0.75-1.31-2.19-2.27-2.45c-0.19-0.43-0.39-0.86-0.58-1.29    c-0.43-0.78-1.06-2.01-0.64-2.91c-0.11-1.16-0.34-2.38,0.55-3.13c0.17-0.18,0.33-0.36,0.5-0.54c0.41-0.15,1.02-0.15,1.22-0.52    c1.15-0.04,2.52-0.31,3.5,0.17c0.54,0.27,1.26-0.05,1.57,0.52c0.97,0.09,2.09,0.34,2.8,1.05c1.02,0.39,2.04,0.77,3.06,1.16    c1.25,0.49,2.5,0.98,3.75,1.46c2.33-0.06,4.66-0.12,6.99-0.17c1.28-0.17,2.56-0.35,3.85-0.52c2.02-0.87,4.14-1.01,6.29-1.4    c0.75-0.09,1.49-0.17,2.24-0.26c0.59-0.2,1.19-0.41,1.78-0.61c0.87-0.44,2.27-1.22,2.97-1.57c1.49-0.74,2.74-1.21,4.02-2.27    c0.59-0.29,1.18-0.58,1.77-0.86c1.87-0.74,3.9-1.86,5.52-3.06c1.46-1.38,2.93-2.75,4.39-4.13c0.71-0.52,1.42-1.04,2.13-1.56    c0.32-0.26,2.27-2.78,2.71-2.71l0.44-0.35c0.75,0.04,1.82,1.82,2.27,2.36c1.09,1.66,1.53,3.06,2.62,4.72    c0.45,0.26,0.89,0.53,1.34,0.79c0.86,0.49,1.58,1.01,2.33,1.65c2.39,0.29,4.78,0.58,7.17,0.87c1.1-0.08,2.2-0.16,3.3-0.23    c2.34,0.24,4.68,0.49,7.02,0.73c1.04,0.07,2.09,0.13,3.13,0.2c0.29,0.29,0.81,0.27,1.22,0.31c0.64,0.13,1.28,0.26,1.92,0.39    c1.77-0.29,3.41-0.52,5.23-0.29c0.4,0.05,1.41,0.12,1.56,0.3c0.58,0.75,1.57,1.9,1.4,2.96c-0.26,0.91-0.53,1.83-0.79,2.74    c-0.35,0.72-0.7,1.43-1.05,2.15c-0.5,1.58-1.01,4.46-2.15,5.6c-0.58,1.63-1.16,3.26-1.75,4.89c-0.06,1.05-0.12,2.1-0.17,3.15    c0.23,0.52,0.47,1.05,0.7,1.57c1.34,1.71,3.04,3.34,3.68,5.47c0.4,1.32,0.16,2.5,0.29,3.82c0.28,1.08,0.55,2.16,0.83,3.24    c0.03,0.72,0.06,1.43,0.09,2.15c-0.2,3.08-0.03,6.15-0.58,9.25c-0.04,0.94-0.2,2.29,0.04,2.98l0.19,0.01    c-0.45,0.57-1.16,2.37-0.99,3c-0.37,1.33-0.74,2.66-1.1,3.99c-0.47,2.21-0.93,4.43-1.4,6.64c-0.3,0.27-0.65,2.47-0.7,2.97    c-0.19,0.82-0.37,1.63-0.56,2.45c-0.42,1.99-0.85,3.8-1,5.81c-0.41,0.74-0.83,1.49-1.24,2.23c-0.52,1.17-1.05,2.33-1.57,3.5    c-0.41,0.58-0.82,1.17-1.22,1.75c-0.41,0.67-0.83,1.34-1.24,2.01c-0.82,0.82-1.95,1.22-2.49,2.4c-0.2,0.5-0.45,0.17-0.81-0.04    c-2.61,1.96-4.92,2.45-8.04,1.57c-2.24-0.63-4.8-1.72-6.64-3.32c-0.46-0.07-0.71-0.39-1.05-0.7c-0.29-0.23-0.58-0.47-0.87-0.7    c-0.96-0.61-0.82-0.63-1.22-1.75c-0.5-0.21-0.99-0.42-1.49-0.62c-1.19-0.44-3.25-0.88-3.94-1.94c-2.1-0.69-4.2-1.38-6.3-2.08    c-1.63-0.42-3.26-0.84-4.88-1.26c-0.5-0.08-1.09-0.55-1.6-0.29c-0.89-0.06-1.78-0.11-2.67-0.17c-0.69-0.01-1.38-0.01-2.07-0.02    c-0.81-0.01-1.62-0.02-2.43-0.03c-1.1-0.02-2.19-0.04-3.29-0.07c-1.95,0.19-3.91,0.38-5.86,0.57c-0.73,0.22-1.45,0.44-2.18,0.66    c-0.99,0.22-2.05,0.25-2.87,0.89c-0.76,0.22-1.51,0.43-2.27,0.65c-2.42,0.42-4.85,0.84-7.27,1.26c-2.21-0.41-4.43-0.82-6.64-1.22    c-1.74-1.52-3.49-3.04-5.23-4.56c-1.03-0.95-2.05-1.79-3.28-2.53c-0.7-0.42-1.15-1.34-1.95-1.57c-1.45-1.42-2.9-2.84-4.34-4.26    c-1.24-0.76-2.48-1.53-3.72-2.29c-1.39-1.02-2.79-2.04-4.18-3.06c-1.52-0.63-3.12-0.78-4.73-1.14c-1.57-0.23-3.15-0.47-4.72-0.7    c-1.28-0.06-2.56-0.12-3.84-0.17L146.51,220.15z"/>
            <circle cx="239.4" cy="197.45" r="1.586"/>
        </g>
        <g id="__Siirt">
            <path d="    M189.16,126.89c-0.76-0.68-1.59-1.32-2.32-1.92c-0.85-0.69-1.49-0.71-2.41-1.21c-1.61-0.9-2.81-3.09-3.5-4.68    c-1.16-2.66-0.35-6.96-0.35-10.14l0.03-0.5l-0.35-0.45c-0.28-0.33-0.6-0.64-1.08-1.06c-1.24,0-1.8-0.75-2.95-0.99    c-0.52,0.06-1.6-0.11-2.12-0.05c-0.87-0.06-1.75-0.12-2.62-0.17l-0.09-0.35c-0.61-0.09-0.7,0.09-1.02,0.16    c-0.21,0.33-2.54,0.52-3.1,0.62c-1.71,0.3-3.5,0.21-5.24,0.09c-0.41,0.23-1.1,0.03-1.58,0.01c-1.34-0.06-2.55-0.15-3.84-0.54    c-0.29-0.23-0.58-0.47-0.87-0.7c-0.74-0.71-1.25-1.63-1.74-2.62c-0.84-1.67-0.88-3.49-1.75-5.24c-0.23-0.23-0.47-0.47-0.7-0.7    c-0.93-0.52-1.86-1.05-2.8-1.57c-1.69-0.75-2.29-0.49-3.85,0.35c-1.4,0.12-2.8,0.23-4.19,0.35c-0.4,0.4-2.52,2.2-2.8,1.92    c-0.17,0.58-2.3,3.1-2.83,3.27l-0.24,0.15c0.37,0.47,0.75,0.93,1.12,1.4c0.18,0.37,0.37,0.75,0.55,1.12    c0.34,2.04-0.37,4.06-0.5,6.1c0.06,1.04,0.13,2.08,0.19,3.12c-0.02,0.49-0.38,0.77-0.22,1.26c-0.26,1.05-0.38,1.37-0.35,2.36    c0.03,0.77,0.18,1.52,0.18,2.31c0,1.88,0.19,5.37,1.04,7.04l0.44,1.83c-0.02,0.31,0.35,0.8,0.33,1.1c0.45,1.02,0.9,2.04,1.34,3.06    c0.69,1.14,1.39,2.29,2.09,3.44c0.34,0.69,0.65,2.3,1.22,2.62c-0.2,1.21-0.39,2.42-0.59,3.63c-0.68,1.12-1.35,2.24-2.03,3.36    c-0.65,0.78-1.52,3.86-1.4,4.89c0.07,0.61,1.2,3.35,1.57,3.67c0.23,0.52,0.47,1.05,0.7,1.57c1.27,4.61,4.63,8.25,7.52,11.88    c0.35,0.52,0.7,1.05,1.05,1.57c0.44,1.4,1.02,2.47,1.57,3.5c0.69,1.29,0.58,3.18,0.35,4.54c-0.08,0.51-1.32,1.38-1.66,1.75    c-1.11,1.25-1.26,1.56-2.71,2.27c-0.43,0.21-0.7,0.87-0.87,1.22c-0.35,0.32-0.71,0.65-1.06,0.97c-0.23,0.38-0.46,0.75-0.69,1.13    c-0.17,0.99-0.35,1.98-0.52,2.97c-0.52,1.17-1.05,2.33-1.57,3.5c-0.23,1.11-0.47,2.21-0.7,3.32c-0.23,0.41-0.47,0.83-0.71,1.24    c0.4,1,0.21,1.98,0.18,3.13c-0.36,0.51-0.71,0.79-0.75,1.44c-0.03,0.55,0.3,1.85-0.02,2.11c-0.88,0.45-1.32,1.16-2.21,1.61    c-0.32,0.11-1.08-0.03-1.4,0.09c-0.07-0.24-0.15-0.48-0.22-0.73c-2.6-0.93-2.98,0.59-5.2,0.73c-1.11-0.17-2.21-0.35-3.32-0.52    c-0.99,0.06-1.9,0.28-2.78,0.57c-0.51,0.17-3,0.66-3.12,0.85c-0.75,1.2-0.13,2.09-0.61,3.31c-0.15,0.39-0.22,0.52-0.39,1.18    c-0.28,0.19,0.05,1.2-0.11,2.08c0.09,0.31-0.28,0.68-0.5,0.9l0.11,0.22c0.17,0.58,0.96,1.4,1.22,1.88    c0.22,0.26,0.4,0.61,0.63,0.79c0.35,0.58,0.76,0.9,1.11,1.49c0.59,0.67,2.59,2.91,3.21,3.34c0.37,0.26,0.66,0.68,0.87,0.87    c0.76,0.29,1.54,0.49,2.29,0.79c0.38,0.02,0.75,0.12,1.13,0.13c1.83,0.57,3.44,0.13,5.05,0.5c0.57,0,1.54,0.21,2.47,0.26    c0.97,0.08,1.83,0.14,2.8,0.22c0.43-0.04,0.86,0.06,1.29,0.02c0.68-0.22,1.35-0.44,2.03-0.66c0.52-0.15,2.16-0.58,2.16-1.11    c-0.12-0.34-0.23-0.68-0.35-1.03c-0.06,0.06-0.44-0.58-0.62-1.25c-0.25-0.94-0.14-3.83-0.77-4.35c0.17-0.58,0.35-1.17,0.52-1.75    c0.06-1.57,0.12-3.15,0.17-4.72c0.04-0.36,0.54-1.24,0.87-1.22c0.12-0.41,0.23-0.82,0.35-1.22c0.42-1.62,0.31-3.48,1.4-4.89    c0.52-0.68,1.83-1.29,1.92-2.1c0.63-0.3,1.26-0.6,1.9-0.9c1.17-1.16,2.35-2.31,3.52-3.47c1.51-0.64,3.03-1.28,4.54-1.92    c1.16-0.53,2.32-1.06,3.47-1.58c0.94-0.69,1.88-1.39,2.82-2.09c0.26-0.26,0.52-0.51,0.78-0.77c0.9-0.85,1.81-1.7,2.71-2.55    c0.35-0.23,0.7-0.47,1.05-0.7c0.47-0.49,0.94-0.98,1.41-1.47c0.53-0.72,1.06-1.44,1.58-2.16c0.44-0.52,1.38-1.49,1.04-2.07    c-0.37-0.62-0.78-1.36-1.59-1.64c-0.56-0.75-1.31-2.19-2.27-2.45c-0.19-0.43-0.39-0.86-0.58-1.29c-0.43-0.78-1.06-2.01-0.64-2.91    c-0.11-1.16-0.34-2.38,0.55-3.13c0.17-0.18,0.33-0.36,0.5-0.54c0.41-0.15,1.02-0.15,1.22-0.52c1.15-0.04,2.52-0.31,3.5,0.17    c0.54,0.27,1.26-0.05,1.57,0.52c0.97,0.09,2.09,0.34,2.8,1.05c1.02,0.39,2.04,0.77,3.06,1.16c1.25,0.49,2.5,0.98,3.75,1.46    c2.33-0.06,4.66-0.12,6.99-0.17c1.28-0.17,2.56-0.35,3.85-0.52c2.02-0.87,4.14-1.01,6.29-1.4c0.75-0.09,1.49-0.17,2.24-0.26    c0.59-0.2,1.19-0.41,1.78-0.61c0.87-0.44,2.27-1.22,2.97-1.57c1.49-0.74,2.74-1.21,4.02-2.27c0.59-0.29,1.18-0.58,1.77-0.86    c1.87-0.74,3.9-1.86,5.52-3.06c1.46-1.38,2.93-2.75,4.39-4.13c0.71-0.52,1.42-1.04,2.13-1.56c0.32-0.26,2.27-2.78,2.71-2.71    c0.77-1-0.33,0.27,0.44-0.73l-0.17,0.02c-1.11-0.27-1.59-1.28-2.64-1.83c-0.98-0.53-1.57-0.99-2.56-1.66    c-2.68-1.81-1.99-3.68-3.6-5.9c-0.57-0.78-0.93-2-1.56-2.67c-0.67-0.71-1.2-1.68-1.89-2.26c-1.57-1.33-2.62-3.07-4.9-3.69    c-4.42-1.2-5.65,2.98-6.96,6.13c-0.73,1.74-1.61,3.27-1.97,5.12c-0.42,2.18-1.37,3.15-2.55,5.07c-0.82,1.33-2.41,3.21-4.1,2.95    c-1.35-0.21-3.8-3.19-4.5-4.07c-1.2-1.49-1.74-3.31-2.3-5.07c-0.56-1.74-1.37-3.29-1.55-5.17    C190.22,133.4,192.32,129.72,189.16,126.89"/>
            <circle cx="178.93" cy="137.51" r="1.586"/>
        </g>
        <g id="__Kurtalan">
            <path d="    M137.33,127.46c-0.02,0.31,0.35,0.8,0.33,1.1c0.45,1.02,0.9,2.04,1.34,3.06c0.69,1.14,1.39,2.29,2.09,3.44    c0.34,0.69,0.65,2.3,1.22,2.62c-0.2,1.21-0.39,2.42-0.59,3.63c-0.68,1.12-1.35,2.24-2.03,3.36c-0.65,0.78-1.52,3.86-1.4,4.89    c0.07,0.61,1.2,3.35,1.57,3.67c0.23,0.52,0.47,1.05,0.7,1.57c1.27,4.61,4.63,8.25,7.52,11.88c0.35,0.52,0.7,1.05,1.05,1.57    c0.44,1.4,1.02,2.47,1.57,3.5c0.69,1.29,0.58,3.18,0.35,4.54c-0.08,0.51-1.32,1.38-1.66,1.75c-1.11,1.25-1.26,1.56-2.71,2.27    c-0.43,0.21-0.7,0.87-0.87,1.22c-0.35,0.32-0.71,0.65-1.06,0.97c-0.23,0.38-0.46,0.75-0.69,1.13c-0.17,0.99-0.35,1.98-0.52,2.97    c-0.52,1.17-1.05,2.33-1.57,3.5c-0.23,1.11-0.47,2.21-0.7,3.32c-0.23,0.41-0.47,0.83-0.71,1.24c0.4,1,0.21,1.98,0.18,3.13    c-0.36,0.51-0.71,0.79-0.75,1.44c-0.03,0.55,0.3,1.85-0.02,2.11c-0.88,0.45-1.32,1.16-2.21,1.61c-0.32,0.11-1.08-0.03-1.4,0.09    c-0.07-0.24-0.15-0.48-0.22-0.73c-2.6-0.93-2.98,0.59-5.2,0.73c-1.11-0.17-2.21-0.35-3.32-0.52c-0.99,0.06-1.9,0.28-2.78,0.57    c-0.51,0.17-3,0.66-3.12,0.85c-0.75,1.2-0.13,2.09-0.61,3.31c-0.15,0.39-0.22,0.52-0.39,1.18c-0.28,0.19,0.05,1.2-0.11,2.08    c0.09,0.31-0.28,0.68-0.5,0.9c-0.31-0.33-0.72-0.86-0.85-1.03c-0.55-0.75-1.23-2.13-1.46-2.25c-0.35-0.47-0.48-0.95-0.83-1.42    c-0.31-0.42-1.11-1.06-1.22-1.64c-0.41-1-0.9-1.7-1.46-2.45c-0.41-0.87-0.92-1.51-1.33-2.38c-0.91-4.4-0.79-8.89,0.75-13.09    c1.44-3.92,4.6-6.38,5.01-10.68c-0.29-0.93-0.58-1.86-0.87-2.8c-0.48-0.86-0.95-1.73-1.43-2.59c-1.58-1.83-3.16-3.67-4.73-5.5    c-0.74-0.91-1.49-1.83-2.23-2.74c-6.4-3.2-12.11-7.94-19.22-9.26c-0.76,0.06-1.51,0.11-2.27,0.17c-4.4,0-8.28,1.5-12.4,2.73    c-3.98,1.19-7.79,1.42-11.89,0.6c-1.63-0.64-3.26-1.28-4.89-1.92c-1.22-0.64-2.45-1.28-3.67-1.92c-0.47-0.17-0.94-0.34-1.41-0.51    c-1.09-0.41-2.35-0.66-3.31-1.41c-0.42-0.65-0.84-1.31-1.26-1.97c-0.52-0.22-0.69-0.88-0.9-1.39c-0.6-0.3-1.08-1.58-1.25-2.22    c-0.62-1.07-1.25-2.14-1.87-3.21c-0.46-0.45-0.91-0.9-1.37-1.35c-1.09-1.53-2.78-3.61-4.36-4.56c-0.7-0.4-1.41-0.81-2.11-1.21    c-0.34-0.09-0.68-0.18-1.03-0.27c-0.97-0.26-2.08-0.56-2.83-1.27c-0.46-0.48-0.92-0.95-1.38-1.43c-0.27-0.58-0.5-1.62-1.05-1.92    c-0.16-1.03-0.41-1.88-0.23-2.92c0.13-0.42,0.27-0.85,0.4-1.27c2-1.66,3.99-3.32,5.99-4.98c0.53-0.41,3.21-1.41,3.8-1.14    c0.3-0.39,0.37-0.7,0.87-0.7c-0.04-0.12-0.09-0.25-0.13-0.37c-0.04-0.27-0.08-0.53-0.13-0.8c0.26-0.31,0.52-0.62,0.78-0.93    c0.76,0,1.52,0,2.27,0c0.65-2.15,2.96-3.18,4.89-4.02c0.87-0.58,1.75-1.17,2.62-1.75c1.46-0.67,2.91-1.33,4.37-2    c1.01-0.82,2.01-1.64,3.02-2.46c1.21-0.72,2.42-1.43,3.63-2.15c0.45-0.2,1.05-0.64,1.5-0.42c1.86,0.86,3.08,2.22,4.61,3.54    c0.38,0.33,1.53,0.91,1.92,0.52c0.25,0.78,1.12,2.22,2.06,1.77c1.75-0.92,1.6-2.34,2.5-3.86c0.27-0.77,0.54-1.53,0.81-2.3    c0.31-0.81,0.62-1.62,0.93-2.43c0.06-0.52,0.12-1.05,0.17-1.57c0.37-1.68,0.75-3.36,1.12-5.04c0.49-1.6,1.5-3.43,2.84-4.46    c0.37-0.28,0.73-0.55,1.1-0.83c1.23-0.13,2.45-0.26,3.68-0.39c1.63,0.07,3.26,0.13,4.89,0.2c1.11-0.03,2.49,0.15,3.27-0.56    c0.25-0.27,0.51-0.54,0.76-0.8c0-0.26,0.66-1.44,0.79-1.3c0.55,0.58,1.37,1.36,1.48,2.17c0.64,0.7,1.28,1.4,1.92,2.1    c0.2,0.45,0.39,0.91,0.59,1.37c0.47,0.91,0.79,2.17,1.68,2.83c1.53,1.12,3.78,1.48,5.59,1.81c0.51,0.06,1.02,0.11,1.54,0.17    c1.13,0.38,1.94,1.01,3.16,1.14c1.96,0.04,3.93,0.08,5.89,0.11c1.19,0.2,2.38,0.41,3.57,0.61c2.74,0.21,5.52-0.11,8.21,0.7    c1.71,0.27,3.43,0.54,5.15,0.8c0.37,0.47,0.75,0.93,1.12,1.4c0.18,0.37,0.37,0.75,0.55,1.12c0.34,2.04-0.37,4.06-0.5,6.1    c0.06,1.04,0.13,2.08,0.19,3.12c-0.02,0.49-0.38,0.77-0.22,1.26c-0.26,1.05-0.38,1.37-0.35,2.36c0.03,0.77,0.18,1.52,0.18,2.31    c0,1.88,0.19,5.37,1.04,7.04L137.33,127.46z"/>
            <circle cx="116.89" cy="139.78" r="1.586"/>
        </g>
        <g id="__Baykan">
            <path d="    M96.09,87.1c0.55,0.58,1.37,1.36,1.48,2.17c0.64,0.7,1.28,1.4,1.92,2.1c0.2,0.45,0.39,0.91,0.59,1.37    c0.47,0.91,0.79,2.17,1.68,2.83c1.53,1.12,3.78,1.48,5.59,1.81c0.51,0.06,1.02,0.11,1.54,0.17c1.13,0.38,1.94,1.01,3.16,1.14    c1.96,0.04,3.93,0.08,5.89,0.11c1.19,0.2,2.38,0.41,3.57,0.61c2.74,0.21,5.52-0.11,8.21,0.7c1.71,0.27,3.43,0.54,5.15,0.8    l0.24-0.15c0.53-0.18,2.66-2.7,2.83-3.27c0.27,0.27,2.4-1.52,2.8-1.92c1.4-0.12,2.8-0.23,4.19-0.35c1.55-0.84,2.16-1.1,3.85-0.35    c0.93,0.52,1.86,1.05,2.8,1.57c0.23,0.23,0.47,0.47,0.7,0.7c0.88,1.75,0.92,3.57,1.75,5.24c0.49,0.99,1,1.9,1.74,2.62    c0.29,0.23,0.58,0.47,0.87,0.7c1.29,0.38,2.5,0.47,3.84,0.54c0.48,0.02,1.17,0.22,1.58-0.01c1.74,0.11,3.53,0.21,5.24-0.09    c0.56-0.1,2.88-0.28,3.1-0.62c0.32-0.08,0.4-0.25,1.02-0.16c0-2.03-0.53-5.7-1.83-7.34c-0.83-0.85-1.66-1.71-2.5-2.56    c-0.45-0.72-0.9-1.44-1.35-2.16c-0.03-1.04-0.3-2.65,0.42-3.41c0.27-0.32,0.54-0.64,0.81-0.96c0.87-0.52,1.75-1.05,2.62-1.57    c0.23-0.29,0.47-0.58,0.7-0.87c0.47-0.35,0.93-0.7,1.4-1.05c0.82-0.47,1.63-0.93,2.45-1.4c0.74-0.53,1.22-1.57,1.57-2.45    c0.01-0.7,0.03-1.39,0.04-2.09c0.28-1.34,0.56-2.69,0.84-4.03c-0.17-0.41-0.35-0.82-0.52-1.22c-0.06-0.93-0.12-1.86-0.17-2.8    c-0.56-1.56-0.88-3.59-0.68-5.24c0.15-1.29,0.7-3.91,1.38-4.89c0.42-0.61,1.55-1.24,1.36-2.1c-0.22-1.1-0.72-2-1.44-2.83    c-2.12-2.48-3.96-3.59-7.39-2.86c-1.12,0.09-2.24,0.18-3.36,0.27c-2.11-0.34-3.94-1.44-5.95-2.1c-1.4-0.52-2.79-1.05-4.19-1.57    c-2.3-0.27-3.99-0.52-6.29-0.79c-0.21-0.38-1.02-0.76-1.22-1.14c-1.11-0.93-2.21-1.86-3.32-2.8c-1.16-1.91-2.64-3.4-4.37-4.89    c-0.87-0.52-1.75-1.05-2.62-1.57c-2.12-0.4-4.32-0.35-6.47-0.35c-0.82,0-1.63,0-2.45,0c-1.06-0.4-2.18-0.78-3.32-0.87    c-0.52,0-1.05,0-1.57,0c-0.12,0.06-0.23,0.12-0.35,0.17c-0.99-0.31-1.99-0.61-2.98-0.92c-2.08-0.1-4.27,0.55-6.28,0.04    c-0.55-0.12-1.1-0.23-1.64-0.34c-0.44-0.41-0.88-0.82-1.33-1.23c-0.16-0.3-0.32-0.6-0.49-0.9c-1.04-1.4-2.08-2.8-3.12-4.21    c-0.24-0.39-1.53-1.82-1.81-1.54c-2.27,2.27-4.27,6.35-5.07,9.44c-0.34,0.34-0.91,2.79-0.87,3.32c-0.19,0.75-0.38,1.51-0.57,2.26    c0.48,1.06-0.01,2.34,0.4,3.51c-0.72,2.17-0.37,5.07,0.21,7.33c0.3,1.17,1.94,3.56,3.11,4.02c0.12,0.58,0.23,1.17,0.35,1.75    c-0.35,2.45-0.7,4.89-1.05,7.34c-0.54,0-0.46,0.3-0.7,0.7c-0.69,1.01-1.37,2.02-2.06,3.03c-0.26,0.33-0.53,0.67-0.79,1    c-0.83,0.48-2.79,3.49-2.93,4.49c-0.27,1.98,0.64,3.89,0.74,5.83c0.07,1.4-0.39,2.5-0.55,3.83L96.09,87.1z"/>
            <circle cx="138.82" cy="62.97" r="1.586"/>
        </g>
        <g id="__Aydınlar">
            <path d="    M231.8,149.97c0.57-0.4,0.77-0.66,1.35-1.06c0.1-0.24,0.77-0.87,0.87-1.11c0.43-0.69,0.85-1.39,1.28-2.09    c0.12-0.35,0.23-0.7,0.35-1.05c-0.06-1.57-0.12-3.15-0.17-4.72c0.01-0.45,0.03-0.89,0.04-1.34c-0.54-0.58-0.23-1.77-0.22-2.51    c-0.11-0.64-0.23-1.28-0.34-1.92c-0.59-0.61-0.01-2.1-0.01-2.1c-1.14-0.38-3.04-2.95-3.67-4.02c-0.29-0.17-0.58-0.35-0.87-0.52    c-0.58-0.23-1.17-0.47-1.75-0.7c-0.52-0.12-1.05-0.23-1.57-0.35c-1.41,0.89-4.57-0.42-5.94-1.05c-0.34,0.17-1.03-0.02-1.4-0.17    c-0.41-0.35-0.82-0.7-1.22-1.05c-0.6-0.41-1.19-0.82-1.79-1.23c-1.52-1.29-2.37-3.14-3.98-4.18c-0.7-0.17-1.4-0.35-2.1-0.52    c-0.7,0.12-1.4,0.23-2.1,0.35c-0.27-0.25-0.68-0.17-1.05-0.17c-0.28,0.4-0.9,0.46-1.4,0.52c-1.58-0.12-3.16-0.24-4.75-0.35    c-0.52,0-1.03,0-1.55,0.01c-2.76-0.52-5.14-1.9-7.86-2.45c-0.53-0.29-1.06-0.59-1.58-0.88c-0.64-0.52-1.27-1.04-1.91-1.56    c-0.92,0.2-2-0.82-2.8-1.22c-0.13-0.43-1.94-1.75-2.45-1.75c-0.51-0.39-0.84-0.71-1.22-1.22c-0.29-0.12-0.58-0.23-0.87-0.35    c-0.18-0.3-0.34-0.55-0.5-0.76l-0.03,0.5c0,3.18-0.81,7.48,0.35,10.14c0.69,1.59,1.89,3.79,3.5,4.68    c0.91,0.51,1.56,0.53,2.41,1.21c0.73,0.6,1.56,1.24,2.32,1.92c3.15,2.83,1.05,6.51,1.38,10.04c0.18,1.88,0.98,3.42,1.55,5.17    c0.57,1.76,1.1,3.58,2.3,5.07c0.71,0.88,3.15,3.86,4.5,4.07c1.69,0.26,3.27-1.61,4.1-2.95c1.19-1.92,2.13-2.89,2.55-5.07    c0.36-1.85,1.24-3.38,1.97-5.12c1.31-3.14,2.54-7.33,6.96-6.13c2.28,0.62,3.33,2.36,4.9,3.69c0.69,0.58,1.22,1.55,1.89,2.26    c0.63,0.67,0.99,1.89,1.56,2.67c1.61,2.22,0.92,4.1,3.6,5.9c0.99,0.67,1.57,1.13,2.56,1.66c1.04,0.56,1.52,1.57,2.64,1.83    L231.8,149.97z"/>
            <circle cx="194.51" cy="132.18" r="1.586"/>
        </g>
    </g>
</svg>