<?xml version="1.0" encoding="UTF-8"?>
<!DOCTYPE svg PUBLIC "-//W3C//DTD SVG 1.1//EN" "http://www.w3.org/Graphics/SVG/1.1/DTD/svg11.dtd">
<svg version="1.1" id="HaritaCizim" xmlns="http://www.w3.org/2000/svg" xmlns:xlink="http://www.w3.org/1999/xlink" x="0px" y="0px" viewBox="0 0 500 475" preserveAspectRatio="none">
    <defs id="__def">
        <radialGradient id="f">
            <stop offset="0" stop-color="white" stop-opacity="1"/>
            <stop id="STOP1" offset=".4" stop-opacity="1"/>
            <stop offset="1" stop-color="white" stop-opacity=".2"/>
        </radialGradient>
        <filter id="__flt1" x="0" y="0" width="200%" height="200%" filterUnits="objectBoundingBox">
            <feGaussianBlur in="SourceAlpha" stdDeviation="3" result="blur1"/>
            <feSpecularLighting result="specOut" in="blur1" specularConstant="1.5" specularExponent="20" lighting-color="#bbbbbb">
                <feDistantLight azimuth="45" elevation="30"/>
            </feSpecularLighting>
            <feComposite in="specOut" in2="SourceAlpha" operator="in" result="specOut"/>
            <feComposite in="SourceGraphic" in2="specOut" operator="arithmetic" k1="0" k2="1" k3="1" k4="0"/>
        </filter>
        <filter id="__flt2" x="0" y="0" width="200%" height="200%" filterUnits="objectBoundingBox">
            <feGaussianBlur in="SourceAlpha" stdDeviation="3" result="blur1"/>
            <feSpecularLighting result="specOut" in="blur1" specularExponent="20" lighting-color="#bbbbbb">
                <fePointLight x="-2000" y="100" z="2000"/>
            </feSpecularLighting>
            <feComposite in="specOut" in2="SourceAlpha" operator="in" result="specOut"/>
            <feComposite in="SourceGraphic" in2="specOut" operator="arithmetic" k1="0" k2="1" k3="1" k4="0"/>
        </filter>
        <filter id="__flt3" x0="-50%" y0="-50%" width="200%" height="200%" filterUnits="objectBoundingBox">
            <feGaussianBlur in="SourceAlpha" stdDeviation="3" result="blur"/>
            <feOffset in="blur" dx="0" dy="0" result="offsetBlur"/>
            <feSpecularLighting in="blur" surfaceScale="4" specularConstant=".5" specularExponent="20" lighting-color="flavor" result="specOut">
                <fePointLight x="-5000" y="-10000" z="5000"/>
            </feSpecularLighting>
            <feComposite in="specOut" in2="SourceAlpha" operator="in" result="specOut"/>
            <feComposite in="SourceGraphic" in2="specOut" operator="arithmetic" k1="0" k2="1" k3="1" k4="0" result="litPaint"/>
            <feMerge>
                <feMergeNode in="offsetBlur"/>
                <feMergeNode in="litPaint"/>
            </feMerge>
        </filter>
        <filter id="__flt4" x0="-50%" y0="-50%" width="200%" height="200%">
            <feGaussianBlur in="SourceAlpha" stdDeviation="2" result="blur"/>
            <feOffset dy="-1" dx="-1"/>
            <feComposite in2="SourceAlpha" operator="arithmetic" k2="-1" k3="1" result="hlDiff"/>
            <feFlood flood-color="white" flood-opacity=".7"/>
            <feComposite in2="hlDiff" operator="in"/>
            <feComposite in2="SourceGraphic" operator="over" result="withGlow"/>
            <feOffset in="blur" dy="3" dx="3"/>
            <feComposite in2="SourceAlpha" operator="arithmetic" k2="-1" k3="1" result="shadowDiff"/>
            <feFlood flood-color="black" flood-opacity="1"/>
            <feComposite in2="shadowDiff" operator="in"/>
            <feComposite in2="withGlow" operator="over"/>
        </filter>
        <filter id="__golge1" x="0" y="0" width="200%" height="200%" filterUnits="userSpaceOnUse">
            <feOffset result="offOut" in="SourceAlpha" dx="8" dy="8"/>
            <feGaussianBlur result="blurOut" in="offOut" stdDeviation="3"/>
            <feBlend in="SourceGraphic" in2="blurOut" mode="normal"/>
        </filter>
    </defs>
    <g id="__Komsular" display="none">
        <linearGradient id="SVGID_1_" gradientUnits="userSpaceOnUse" x1="335.2202" y1="408.9268" x2="548.4089" y2="408.9268">
            <stop offset="0" style="stop-color:#5294D0"/>
            <stop offset="1" style="stop-color:#FFFFFF;stop-opacity:0"/>
        </linearGradient>
        <path fill-rule="evenodd" clip-rule="evenodd" fill="url(#SVGID_1_)" d="M335.24,372.27c-0.18,1.79,0.73,3.26,0.73,5.57   c0.1,0.5,0.41,1.02,0.55,1.54c0.09,0.89,0.59,1.61,0.71,2.26c0.09,0.34,0.97,1.72,1.08,2.43c0.63,1.12,0.58,2.36,1.21,3.48   c0.25,0.57-0.4,2.45,1.46,3.22c0.25,0.75-0.49,1.91-0.59,2.64c1.06,1.65,2.05,2.42,3.48,2.97c1.21,1.5,3.53,1.37,5.02,2.09   c0.61-0.12,2.97-0.08,3.1,0.04c0.7,0.62,2.93,3,2.98,3.82c0.08,2.64-1.32,4.62-2.25,7.05c-0.81,0.04-1.61,0.07-2.42,0.11   c0.07,0.63,0.14,1.27,0.21,1.9c0.27,0.15,0.54,0.3,0.81,0.45c0.22-0.13,0.43-0.26,0.65-0.39c-0.16,1.33-1.06,3.58,0.23,4.57   c-0.26,1.51,0.16,2.02,1.11,3.14c0.66,0.05,2.27,0.65,2.47,1.29c1.22,0.04,2.42-0.11,3.58-0.42c0.83-0.22,1.81,0.62,2.53,0.21   c0.64,0.33,1.15,0.73,1.88,0.83c0.64,0.15,1.28,0.29,1.92,0.44c0.47,0.36,0.66,0.77,1.26,0.63c0.02,0.28,0.03,0.56,0.05,0.84   c0.13,0.14,0.25,0.28,0.38,0.42c-0.07,0.06-0.15,0.13-0.22,0.19c-0.35,0.36-0.69,0.72-1.04,1.07c-0.31,0.11-0.61,0.21-0.92,0.32   c-0.36,0.73-0.53,2.38-0.47,2.3c0.39-0.59,0.79-1.19,1.18-1.78c0.77,0.02,1.57,0.07,2.14-0.59c0.48-0.56,0.2-2.43,0.97-1.53   c0.79,1.01,1.36,1.69,2.59,1.06c0.56,0.19,1.43,0.59,1.9,0.21c0.35,0.28,0.7,0.56,1.05,0.84c1.04,1.23,1.63,2.93,3.37,3.18   c0.56-0.29,1.13-0.58,1.69-0.86c0.49,0.28,0.98,0.56,1.48,0.84c0.56,0.09,1.31,0.02,1.69,0.42c0.63-0.26,2.43-0.79,2.43-0.79   c0.3,0.76,0.82,1.51,0.52,2.27c0.22,0.07,0.43,0.14,0.65,0.2c0.14,0,0.27,0,0.41,0.01c0.63,0.56,1.26,1.12,1.9,1.69   c0.76,0.44,1.52,0.88,2.27,1.32c0.64,0.38,1.27,0.76,1.91,1.14c0.48-0.21,0.4-0.33,0.88,0.07c0.19-0.26,0.66-1.04,0.81-0.98   c0.42,0.18,2.15,0.84,1.69,1.11c-0.2,0.17-0.4,0.34-0.6,0.51c0.51,0.65,1.03,1.3,1.54,1.96c0.15,0.01,0.3,0.01,0.45,0.02   c-0.83,0.64-2.64,0.9-2.84,2.03c-0.42,0.14-0.84,0.28-1.26,0.42c-0.56,0.28-1.13,0.56-1.69,0.84c0.02,0.27,0.04,0.53,0.05,0.8   c-0.13,0.1-0.26,0.2-0.4,0.3c0.17,0.08,0.35,0.16,0.52,0.24c0.39,0.1,0.36,0.63,0.59,0.46c0.97-0.76,1.96-1.17,2.83-1.98   c-0.03-0.46-0.19,0.55-0.01,0.82c-0.78,1.16-1.62,2.25-2.1,3.53c-0.14,0.02-0.29,0.04-0.43,0.06c0.19,0.58,0.96,0.66,1.46,0.49   c0.36-0.18,0.22-0.27,0.65-0.07c0.65-1.45,1.23-3.98,2.74-4.64c0.02,0.41,0.05,0.81,0.07,1.22c0.79-0.41,2-1.71,1.83-2.7   c0.53-0.04,1.06-0.09,1.59-0.13c-0.37-0.45-0.45-0.32-0.11-0.92c-0.71-0.31-1.92-0.22-1.69-1.27c0.28-0.28,0.56-0.56,0.84-0.84   c-0.64-1.17,0.91-2.49,0.54-2.92c-0.36-0.34-0.57-0.35-0.54-0.88c-0.37-0.15-0.68-0.37-1.05-0.21c-0.69-0.76-2-1.94-0.8-2.37   c0.7-0.19,2,0.11,2.49-0.37c0.43,0.34,0.86,0.54,1.05,1.05c0.57,0.24,0.88,0.19,1.05,0.84c0.07-0.04,0.15-0.07,0.22-0.11   c0.41-0.22,0.56-0.4,1.05-0.32c0.48-0.52,1.17-1.14,1.9-1.27c0.95-0.16,1.77,0.54,2.53,0.21c-0.07,0.2-0.14,0.4-0.21,0.59   c-0.33,0.95-0.95,1.36-1.38,2.23c-0.61,0.25,0.58,0.2,0.74,0.76c0.09-0.12,0.17-0.23,0.26-0.35c0.32-0.41,0.72-0.6,0.79-1.13   c0.83-0.42,3.15-1.53,3.08-1.85c0.03-0.23,0.06-0.46,0.09-0.69c-0.38-0.39-0.49-0.71-1.05-0.63c0.01-0.15,0.03-0.3,0.04-0.45   c0.11-1.48,0.93-2.55,1.85-3.77c0.43-0.58,1.02-1.52,1.55-0.61c0.94,1.68,1.54,4.6,4.15,3.98c0.44,0.53,2.17,2.7,2.62,2.02   c0.11-0.04,0.22-0.08,0.34-0.12c-0.11-0.16-0.23-0.31-0.34-0.47c-0.24-0.2-0.47-0.39-0.71-0.59c-0.81-1.18-1.7-3.63-3.37-2.95   c-0.14-0.56-0.28-1.13-0.42-1.69c-0.54-0.8-1.08-1.59-1.61-2.39c0.38-0.31,0.91-1.13,0.98-1.62c0.42-0.42,0.84-0.84,1.27-1.27   c0.7-0.07,1.41-0.14,2.11-0.21c0.42-0.28,0.84-0.56,1.27-0.84c0.21-0.7,0.42-1.41,0.63-2.11c0.35-0.35,0.7-0.7,1.05-1.05   c0.56-0.15,1.12-0.29,1.68-0.44c1.13-0.77,2.25-1.54,3.38-2.31c0.45,0.15,0.9,0.29,1.34,0.44c0.56,0.26,1.65,0.66,1.82,1.25   c1.01,0.21,3.54,0.97,4.43,0.63c0.62,0.31,1.24,0.61,1.86,0.92c1.38-0.41,2.76,0.5,4,1.05c0.84,0.35,1.68,0.69,2.52,1.04   c0.46-0.11,1.12-0.09,1.31,0.36c0.63,0.05,1.26,0.1,1.9,0.15c1.34-0.46,3.75-0.71,5.11-0.16c1.5,0.6,2.11,2.04,3.33,2.75   c-0.15,0.05-0.29,0.1-0.44,0.15c-0.6,0.22-0.64,0.26-0.47,0.87c0.19,0.69,1.2,3.1,1.8,3.91c0.62,0.6,1.23,1.21,1.85,1.81   c0.77,1-0.06,1.94,0.21,2.95c0.26,0.97,1.53,2.27,0.84,3.16c0.3,0.62,0.36,1.08,1.05,1.27c-0.09,0.24-0.18,0.47-0.28,0.71   c-0.27,0.51-0.98,1.65-1.62,1.82c-0.18,0.64-0.68,1.81-0.42,2.32c-0.75,0.65-1.2,1.23-1.79,2.04c-0.23,0.31-1.32,2.86-0.75,2.46   c1.04-0.7,2.26-1.55,2.96-2.6c0.44-0.66,0.48-2.02,1.27-2.32c0.07-0.73,0.13-0.93-0.42-1.48c0-0.28,0-0.56,0-0.84   c0.28-0.35,0.56-0.7,0.84-1.05c0.14-0.42,0.28-0.84,0.42-1.27c0.07-1.2,0.14-2.39,0.21-3.58c-0.28-1.27-0.56-2.53-0.84-3.8   c-0.41-0.77-0.83-1.55-1.24-2.32c0.09-0.54,0.31-2.13,0.81-2.1c1.28,0.12,2.31,0.24,3.44-0.51c0.31-0.2,1.43-1.64,1-1.59   c-0.81,0.1-2.55,0.43-3.16-0.24c0.32-0.24,2.3-1.36,1.96-1.57c-1.14-0.6-2.29-1.2-3.43-1.81c-0.41-0.62-1.22-2.18-2.11-2.11   c-0.19-1.08-0.41-1.89-0.76-2.91c-0.55-1.58-1.33-3.82,0.97-4.14c1.43-0.19,5.78,0.62,6.33-0.76c0.51-0.02,1.03-0.04,1.54-0.05   c0.11-0.94,1.57-0.3,0.96-0.76c-0.2-0.15-0.4-0.3-0.61-0.45c0.29-0.65,0.58-1.31,0.88-1.96c-0.08-0.19-0.16-0.38-0.24-0.57   c0.06,0.03,0.11,0.05,0.17,0.08c0.95,0.5,2.4,1.71,3.26,1.03c0.33-0.28,0.41,0.36,0.59-0.01c-0.45-0.41-0.91-0.82-1.36-1.23   c0.66-0.52,1.32-1.04,1.98-1.56c-0.75-0.56-1.33-1.26-0.91-2.25c0.49-1.01,1.65-2.19,2.81-1.96c0.07-0.28,0.14-0.56,0.21-0.84   c0.91,0.42,1.57,0.36,2.53,0.21c-0.46-0.77,0.07-1.3-0.42-1.9c0.25-0.05,0.5-0.11,0.75-0.16c0.52-0.15,3.47-0.78,3.47-1.32   c0.07-0.98,0.14-1.97,0.21-2.95c0.21-0.97,1.76-1.36,1.69-2.32c0.42-0.07,0.84-0.14,1.27-0.21c0.35-0.14,0.7-0.28,1.05-0.42   c0.64-0.46,1.51-1.19,2.32-0.84c0.97-0.23,1.8-0.75,2.54-0.18c0.41,0.38,0.48,0.62,1.05,0.81c0.79-0.32,1.25-0.53,2.1-0.18   c0.64-0.29,1.27-0.58,1.91-0.88c0.73-0.76,1.19-1.16,1.69-2.11c0.35-0.28,0.7-0.56,1.05-0.84c0.63-0.16,1.25-0.31,1.88-0.47   c0.73-0.23,3.81-0.83,3.81-1.01c0-0.54,0.06-2.95-0.21-2.95c-1.08,0.04-1.76-0.49-2.74-0.84c-1.15,1.51-2.96,2.45-4.85,2.11   c-0.38,0.89-0.97,2.17-2.11,2.35c-0.49,0.13-0.98,0.26-1.48,0.39c-0.98-0.21-1.97-0.42-2.95-0.63c-0.48,0.05-0.97,0.1-1.45,0.14   c-1.21-0.1-1.42-1.42-2.88-0.32c-0.21,0.09-0.43,0.18-0.65,0.28c-0.62,0.55-1.24,1.09-1.86,1.64c-0.88,0.43-1.73,0.22-2.33,0.9   c-0.28,0.4-0.4,0.68-0.32,1.15c-1.17,0.2-1.4,0.09-1.78,1.09c-0.16,0.47-1.62,3.13-0.96,3.13c-0.72,0.22-0.94,0.32-1.57-0.16   c-0.57-0.47-2.32-3.27-2.53-2.37c-0.13,0.91-0.25,1.4-0.69,2.21c-0.75,0.17-1.09,0.96-1.39,1.65c-0.21,0.53-0.42,1.06-0.63,1.59   c-0.39-0.48-0.58-0.43-0.76-1.08c-0.08-0.12-0.15-0.24-0.23-0.36c0.21-0.73,0.46-1.06,0.16-1.77c0.09-0.11,0.17-0.23,0.26-0.34   c-0.11,0.05-0.22,0.09-0.32,0.14c-0.85,0.63-1.27,2.93-0.94,3.87c-0.37,0.38-0.45,0.47-0.41,0.99c-0.32,0.4-1.29,2.56-1.63,1.91   c-0.38-0.97-0.75-1.93-1.13-2.9c-0.04,0.12-0.08,0.23-0.13,0.35c-0.29,0.74-0.51,2.1,0.13,2.81c-0.63,0.82-0.74,1.42-1.69,1.69   c0.14,0.53,0.11,0.81,0.63,1.05c-0.15,0.04-0.3,0.08-0.45,0.12c-0.97,0.23-0.51,1.28-0.82,1.99c-0.35,0.35-0.7,0.7-1.05,1.05   c-0.27,0.8-0.87,1.67-0.21,2.32c-0.16,0.1-0.33,0.2-0.49,0.3c-0.32,0.09-0.65,0.18-0.97,0.28c-1.06-0.3-3.56-0.85-3.75-1.72   c-0.07-0.49,0.06-0.53-0.48-0.75c0.17-0.34,1.18-2.11,0.63-2.11c-0.93,0.07-1.85,0.15-2.78,0.22c-0.32,0.65-0.86,1.22-0.43,1.65   c1.65,1.73,0.86,1.83,1.11,3.83c-0.18,0.36-0.35,0.72-0.53,1.09c-0.16,0.09-0.33,0.18-0.49,0.28c0.46,0.77,0.92,1.54,1.38,2.31   c-1.39,2.35-3.45,3.15-6.03,3.66c-1.03,0.2-2.14,0.68-2.71-0.17c-0.42-0.64-0.97-0.87-0.47-1.69c-0.64-0.48-2.06-1.28-2.11-2.11   c-0.51-0.15-0.86-0.38-1.26,0c-0.02-0.14-0.04-0.29-0.06-0.43c-0.02-0.19-0.04-0.38-0.05-0.57c0.08-0.1,0.17-0.21,0.25-0.31   c-0.76,0.11-0.55-0.83-1.05-0.28c-0.47,0.47-0.95,0.94-1.42,1.41c-0.99,0.12-1.67,0.15-2.4-0.55c-0.67-0.63-1.06-0.87-1.19-1.83   c0.01-0.69,0.02-1.39,0.03-2.08c-0.45-1.28-0.58-2.25-0.21-3.58c-0.17-0.18-0.34-0.36-0.51-0.54c-0.44,0.63-0.54,1.99-1.18,2.23   c0.08,0.64,0.43,3.47,0.02,3.29c-0.29-0.18-0.58-0.37-0.86-0.55c-1.63-0.09-3.2,0.32-4.64,1.05c-0.69,0.35-0.9,0.56-1.48,0   c-0.05,0.21-0.1,0.42-0.15,0.63c-0.3,1.55-0.61,3.11-0.91,4.66c-0.58,0.63-2.36,1.96-3.16,1.46c-0.38,0.43-1.08,2.2-0.84,2.74   c-0.5,0.39-1.25,0.69-1.48,1.27c-0.91,0.07-1.83,0.14-2.74,0.21c-1.21,0.52-2.9,1.79-4.22,1.48c-0.86,0.35-3.08,1.58-3.8,1.48   c-0.86,0.81-2.56,2.21-2.11,3.58c-0.61,0.29-0.81,0.16-1.05,0.84c-0.28-0.14-0.56-0.28-0.84-0.42c-0.49,0.02-0.98,0.04-1.47,0.06   c-0.43,0.3-3.79-0.28-4.22-0.69c-0.67-0.04-1.18-0.19-1.67,0.35c-1.12,1.33-1.45,2.18-3.04,3.07c-0.07,0.13-0.13,0.26-0.2,0.39   c-0.97,0.19-2.15,0.06-2.89-0.65c-0.42,0.21-0.4,0.38-0.47-0.02c-0.09-0.56-0.16-2.51-0.2-2.51c-1.06,0-3.62-0.06-4.19-1.05   c-0.98,0.21-1.97,0.42-2.95,0.63c-0.84-0.21-1.69-0.42-2.53-0.63c-1.57-1.29-2.39-1.64-4.26-1.94c-0.48,0.02-0.95,0.03-1.43,0.05   c-0.49-0.07-0.98-0.14-1.48-0.21c-0.84-0.45-2.35-1.51-2.32-2.53c-0.86-0.45-1.71-0.91-2.57-1.36c-0.91-0.27-1.82-0.55-2.73-0.82   c-0.73-0.07-1.64,0.21-2.08-0.55c-2.08-0.13-4.14-0.22-5.69-1.69c-0.14-0.45-0.27-0.9-0.41-1.34c-0.28-1.31-0.57-2.62-0.86-3.93   c-0.11-2.53,1.15-4.44,1.63-6.8c0.2-0.97,0.27-2.79-0.75-3.32c-0.86-0.49-4.39-2.1-4.26-2.95c-0.42-0.14-0.84-0.28-1.27-0.42   c-1.76,0.11-3.22,0.61-4.78-0.32c-0.78-0.46-2.53-2.66-3.23-2.42c-0.35-0.8-0.15-1.8-0.22-2.75c-0.8-0.69-1.9-1.65-2.52-2.52   c-0.51-1.01-1.02-2.02-1.52-3.02c-0.35-0.43,0.04-1.14-0.31-1.56c-0.62-1.03-1.03-1.9-1.65-2.93c-0.2-0.84-0.54-3.35-1.1-3.73   c0.21-1.07-0.66-2.1-0.59-3.18C335.89,373.39,335.29,371.82,335.24,372.27z"/>
        <linearGradient id="SVGID_2_" gradientUnits="userSpaceOnUse" x1="251.4707" y1="134.1343" x2="251.4707" y2="2.8707">
            <stop offset="0" style="stop-color:#5294D0"/>
            <stop offset="1" style="stop-color:#FFFFFF"/>
        </linearGradient>
        <path fill-rule="evenodd" clip-rule="evenodd" fill="url(#SVGID_2_)" d="M1.5,124V1l499.61,0.29v259.47l0.33,0.27   c-0.12,0.23-0.24,0.46-0.36,0.69c-0.49,0.74-3.07,1.13-4.01,1.61c-0.64,0.12-1.29,0.24-1.93,0.36c-2.46,0.76-5.61,1.72-8.19,1.75   c-1.12,0.14-2.25,0.28-3.37,0.42c-1.04,0.32-1.92,0.22-2.95,0.42c-5.46,1.06-10.88,1.1-16.45,0.84c-2.23-0.1-3.58-0.52-5.9-0.21   c-0.81-0.76-1.8-0.87-2.74-0.63c-1.3-0.48-2.61-0.95-3.91-1.43c-0.52-0.3-0.94-0.68-0.94-1.31c-0.72-0.33-1.44-0.67-2.16-1   c-0.8-0.35-2.35-0.6-3.2-0.41c-1.38-0.37-2.75-0.75-4.13-1.12c-0.79-0.96-3.16-1.97-4.43-2.53c-0.31-0.63-0.94-1.02-1.48-1.48   c-0.14-1.03-2.43-2.37-3.29-2.97c-0.9-0.69-0.5-0.89-0.5-1.88c-2.51,0.37-5.03-1.98-6.08-3.87c-0.35-0.64-0.66-0.87,0.07-1.24   l-1.68-0.79c-0.88-0.07-1.48-0.11-2.02-0.17c-1.61-0.3-3.22-0.59-4.84-0.89c-1.05-0.49-2.11-0.98-3.16-1.48   c-0.62-0.07-1.23-0.14-1.85-0.22c-1.77-0.51-3.53-1.01-5.3-1.52c-1.76-0.76-3.53-1.52-5.29-2.27c-2.6-0.63-3.51-0.84-6.11-1.48   c0.07-0.07-0.64-0.04-0.57-0.11l-0.07-0.1c-0.91-0.21-1.83-0.42-2.74-0.63c-0.84-0.42-1.69-0.84-2.53-1.27   c-0.67,0.29-2.11-0.53-2.75-0.82c-2.89-1.31-4.33-1.82-6.55-4.23c-0.85-0.92-2.36-1.61-2.72-2.96c-0.38-1.42-0.14-2.31,0.42-3.58   c-0.12-0.13-0.23-0.26-0.35-0.39c-0.06-0.86-1.93-1.65-2.79-2.17c-1.9-1.17-3.59-2.31-5.3-3.76c-0.63,0.17-2.22-0.86-2.74-1.27   c-1.13-0.88-3.8-3.1-3.8-4.43c-0.59-0.35-1.02-0.4-1.69-0.42c-0.77-1.33-1.55-2.67-2.32-4.01c-0.14-0.63-0.28-1.27-0.42-1.9   c-0.84-1.62-1.69-3.23-2.53-4.85c0-0.35,0-0.7,0-1.05c0.39-0.67,0.78-1.34,1.17-2.01c0.66-0.26,1.33-0.51,1.99-0.77   c0.68-0.26-0.13-0.08,0.26-0.68c0.31-0.61-2.64-3.14-3.37-3.64c-0.79-0.52-1.57-1.03-2.36-1.55c-0.35,0.27-0.84,0.17-1.26,0   c-0.49-0.49-1.2-0.14-1.69-0.63c-0.43,0.12-0.6-1.1-0.93-1.38c-0.3-0.27-0.34-0.33-0.34-0.73c-0.91-0.91-1.83-1.83-2.74-2.74   c-0.14-0.35-0.28-0.7-0.42-1.05c-0.7-0.35-0.59-1.55-0.84-1.9c0-0.49-0.43-1.4-0.42-1.9c0-0.39-2.15,0.19-2.69-0.28   c-1.35-1.6-2.71-3.2-4.06-4.8c-1.18-1.43-2.06-2.99-2.74-4.63c0.69-1-0.18-4.45-0.39-5.7c-0.01-0.14-0.02-0.28-0.03-0.42l0.42,0.21   c-1.88-1.45-3.96-2.76-5.19-4.78c-0.38-0.44-0.76-0.89-1.13-1.33c-0.6-1.59-1.19-3.18-1.79-4.76c-0.25-0.38-0.49-0.76-0.74-1.14   c-1.09-2.83-2.24-5.44-2.74-8.43c0-0.42,0-0.84,0-1.27c0.1-1.66,0.84-0.49,1.27-1.27c-0.26-3.05-0.6-3.91,0.21-5.06   c0-0.63,0-1.27,0-1.9c0.21-0.91,0.42-1.83,0.63-2.74c-0.4-0.58-0.33-3.13,0-3.79c0.35-0.65,0.71-1.3,1.06-1.95   c0.67-1.81,1.29-0.8,1.89-1.63c0.13-0.03,0.28-1.97,0.63-2.11c-0.07,0.14,0.07-1.62,0-1.48c0.03-1.42,0.45-3.16,0.84-4.22   c0.38-1.01,0.32-2.2,1.3-2.81c-0.04-1.16,0.56-2.16,0.81-3.3c0.44-0.2,1.9-1.53,1.9-2.11c1.03-0.71,1.92-1.73,3.37-1.07   c0.5-0.75,1.82-0.4,2.31-1.17c0.74-0.24,1.66-0.39,2.34-0.07c0.37-0.62,0.97-1.01,1.89-0.63c0.67,0.34,0.81,0.44,1.48,0.84   c0.28-0.13,2.19,0.7,2.74,0.84c1.13,0.21,2.25,0.42,3.37,0.63c0.84,0.14,1.69,0.28,2.53,0.42c0.68-0.64,2.25-0.45,3.16-0.42   c0.56,0.49,1.13,0.98,1.69,1.48c0.99-0.56,1.55-1.29,2.32-2.11c-0.1-0.98-1.08-1.63-1.72-2.27c-1.06-1.06-2.09-2.26-2.29-3.63   c-0.9-1.63-2.11-0.35-1.69-1.05c-1.13-0.49,0.7-2.04-0.42-2.53c-1.97-0.07-3.94-0.14-5.9-0.21c-0.26,0.44-0.99,0.48-1.48,0.63   c-0.4,0.32-0.8,0.65-1.21,0.97c-0.58,0.66-1.16,1.32-1.75,1.98c-1.35,0.53-2.79,1.04-3.8,2.11c-1.63,0.46-3.26,0.91-4.89,1.37   c-1.13,0.07-2.26,0.14-3.39,0.21c-1.6,0.04-3.19,0.07-4.79,0.11c-2.19-0.38-4.37-0.76-6.56-1.13c-1.19-0.4-1.32-0.37-2.51-0.76   c-0.52-0.5-1.35-0.06-2.11-1.05c-0.22-0.01-1.06-0.24-1.27-0.42c-1.17-0.5-1.3-0.51-2.32-1.26c-0.45-0.38-1.27-0.83-1.48-1.48   c-0.19-0.16-1.06-0.74-1.69-1.48c-0.44-0.56,0-1.13,0-1.9c0.48,0.04,0.4-0.05,0.63-0.42c-0.42-0.56-0.84-1.12-1.27-1.69   c-0.21-0.14-0.42-0.28-0.63-0.42c0.7-1.11,1.58-0.92,2.74-1.27c0.21-0.56,0.42-1.12,0.63-1.69c-0.52,0.04-0.71-0.79-1.69-0.84   c-0.27-0.38-0.54-0.75-0.8-1.13c0.35-0.64,0.53-1.24-0.04-1.82c-0.14-0.07-0.28-0.14-0.42-0.21c-0.21-0.42-0.42-0.84-0.63-1.27   c-1.17,0-1.91-1.53-2.53-2.32c-0.63-0.28-1.26-0.56-1.9-0.84c0.03-0.53-0.49-1.63-0.99-1.85c-0.71-1.27-0.56-1.9-1.81-3.14   c-0.12-0.09-0.24-0.19-0.36-0.28c-0.35,0.28-0.7,0.56-1.05,0.84c-0.49-0.73-2.38-0.51-3.16-0.42c-0.28-0.14-0.56-0.28-0.84-0.42   c-0.14,0.07-0.28,0.14-0.42,0.21c-0.77-0.42-1.55-0.84-2.32-1.27c-0.84,0.07-1.69,0.14-2.53,0.21c-0.01,0.67-0.3,0.69-0.84,1.05   c-0.35-0.72-1.15-0.37-1.9-0.42c-1.24-1.24-2.42-1.61-4.22-1.05c-1.16-0.3-2.33-0.61-3.49-0.91c-0.17,0.02-0.34,0.04-0.51,0.07   c-0.48,0.43-0.31,0.98-0.42,1.69c0.53,0.19,0.73,0.8,1.05,1.27c-0.53,1.06-0.2,4.21,0.21,5.48c0.07,0.35,0.14,0.7,0.21,1.05   c-1.05,1.48-2.11,2.95-3.16,4.43c-0.89,2.92-2.33,4.26-4.22,6.54c0.28,0.98-0.75,1.66-1.05,2.53c-0.83,2.37-4.51,7.04-5.68,9.24   l-0.86-0.17c-0.68,1.41-1.68,2.2-2.81,3.3c-1.28,1.32-2.57,2.65-3.85,3.97c-2.83,2.71-5.65,5.41-8.48,8.12   c-1.28,1.05-2.56,2.11-3.84,3.16c-1.34,1.12-2.67,2.25-4.01,3.37c-1.71,0.74-2.88,1.4-4.22,2.74c-0.65,0-2.26,0.92-2.53,1.48   c-0.63,0.21-1.27,0.42-1.9,0.63c-0.77-0.14-1.55-0.28-2.32-0.42c-1.1,0.71-1.95,0.9-2.24,1.92l-0.08-0.44   c-0.96,0.96-3.41-0.06-4.67-0.25c-2.22-0.33-4.49,0.58-6.53,1.25c-1.9,0.67-3.79,1.35-5.69,2.02c-1.12,0.26-2.24,0.51-3.36,0.77   c-2.2-0.5-3.78-0.21-5.9-0.21c-0.41-0.74-0.98-1.72-1.9-1.05c-0.56,0.07-1.13,0.14-1.69,0.21c-2.34,0.96-5.27,1.65-7.8,1.69   c-0.91-0.06-1.82-0.13-2.73-0.19c-0.67,0.06-1.05,0.41-1.7,0.19c-0.22,0.04-1.37,0.01-1.48,0c-1.32-0.14-1.24,0-2.53,0   c-0.39-0.34-1.93,0.13-2.32-0.21c-0.8-0.15-1.52,0.15-2.32,0c-1.88-0.42-5.06-1.16-6.33-2.74c-1.19-0.07-2.39-0.14-3.58-0.21   c-0.42,0.21-0.84,0.42-1.26,0.63c-1.55-0.07-3.1-0.14-4.65-0.2c-0.7,0.28-1.41,0.56-2.11,0.84c-0.35-0.28-0.7-0.56-1.05-0.84   c-0.7,0-1.41,0-2.11,0c-0.95-0.58-1.84-0.91-2.95-1.05c-1.41-0.7-2.81-1.41-4.22-2.11c-0.7,0-1.41,0-2.11,0   c-1.86-0.44-4.03-1.17-5.27-2.11c-0.1-0.12-0.53-1.57-0.59-1.67c0.61-1.63,0.94-1.95-0.25-3.6c-0.71-0.21-1.77-0.8-2.11-0.84   c-0.17-0.05-0.88-0.74-1.05,0.21c-1.24,1.45-2.48,2.83-4.01,4.01c-1.5-0.72-2.83-0.1-4.43,0.21c-0.7-0.06-1.41-0.12-2.11-0.18   c-0.89,0.14-1.99-0.38-2.53,0.81l-0.21,0.21c0.07,0.07-1.33-0.49-2.11-0.84c-0.56,0.29-0.9-0.16-1.48,0   c-1.45,0.39-2.7,0.7-4.22,0.84c-0.26,1.21-2.61,1.48-3.58,1.9c-0.97,0.4-1.93,0.8-2.9,1.21c-0.41,0.22-0.47,0.23-0.47,0.69   c-1.03,0.36-1,1.37-2,0.79c-0.16-0.14-1.3-0.59-1.46-0.73c0.21,0.79-2.63,0.9-3.29,1.21c0.05,0.42-2.15,1.66-2.13,2.01   c-3.14,0.51-3.62,0.19-6.73-0.11c-0.45-2.23-2.92-1.27-3.8-1.27c-0.14,0.49-0.28,0.98-0.42,1.48c-1.05,1.05-2.59,1.32-4.01,1.69   c-0.29-0.26-1.06-0.31-1.48-0.21c-1.2,0.28-2.39,0.56-3.58,0.84c-2.04-0.42-4.08-0.84-6.11-1.27c-1.13-0.27-0.81-0.3-1.15-1.13   c-0.09-0.26-2.97-0.43-3.7-0.49c-2.32-0.23-4.63-0.47-6.95-0.7c-0.83-0.33-1.66-0.67-2.49-1c-0.64-0.34-0.8-1.02-1.59-1.32   c-0.26-0.07-1.19,0.64-1.19,0.64c-0.15-0.08-0.3-0.16-0.45-0.24c-0.74-0.13-1.48-0.25-2.21-0.38c-0.44-0.01-1.29,0.6-1.79,0.59   c-0.48-0.27-0.96-0.54-1.44-0.8c-0.84,0-1.69,0-2.53,0c-1.12-0.37-2.24-0.74-3.36-1.11c-1.04,0.03-2.99,0.25-4.16-0.19   c-1.5-0.96-2.58-2.18-3.45-2.69c-0.53-0.46-1.2-0.5-1.26-1.28c-0.54,0.03-1.27-0.11-1.69,0.21c-1.48-0.35-2.95-0.7-4.43-1.05   c-0.54-0.17-1.09-0.33-1.63-0.49c-0.94-0.22-1.88-0.44-2.83-0.66c-1.39-0.39-2.79-0.78-4.18-1.17c-1.06-0.49-1.85-0.91-2.95-1.26   c-2.53-0.14-5.06-0.28-7.59-0.42c-2.07-0.44-4.64,0.68-6.54-0.42c-0.82,0.06-1.43,0.22-2.24,0.04c-0.83,0.02-1.66,0.04-2.48,0.06   L1.5,124z"/>
        <text transform="matrix(0.3738 -0.9275 0.9275 0.3738 457.2915 455.6299)" font-family="'MyriadPro-Regular'" font-size="12.2999">SAMSUN</text>
        <path fill-rule="evenodd" clip-rule="evenodd" fill="none" stroke="#000000" stroke-width="0.25" stroke-miterlimit="10" d="   M130.21,393.72c-0.18,2.76,2.11,5.14,0.65,7.91c-0.97,1.84-3.62,3.38-5.27,4.62c-1.95,1.46-4.06,2.82-5.5,4.78   c-1.63,2.22-2.52,4.79-5.06,6.23c-1.32-0.89-1.56-3.01-2.45-4.38c-0.88-1.36-2.1-2.18-3.42-2.95c-3.12-1.83-6.18-2.11-9.93-1.93   c-8.14,0.4-10.67,7.06-12.7,13.84c-1.09,3.63-3.56,7.23-4.86,11.03c-1.15,3.36-1.2,5.28-4.17,6.77c-1.38,0.69-2.97,1.73-4.14,2.63   c-1.63,1.25-2.28,2.32-4.22,2.86c-1.86,0.52-2.87,1.05-4.62,1.94c-3.32,1.69-6.35,1.8-7.24,5.97c-0.47,2.2-0.27,3.83,0.43,5.94   c0.58,1.75,2.55,2.81,2.43,4.82c-0.13,2.12-2.12,2.86-1.93,5.22c0.15,1.86,1.57,3.79,1.53,5.72c0.29-0.03,0.28,0.1,0.4,0.26"/>
        <text transform="matrix(0.9206 0.3906 -0.3906 0.9206 151.6885 449.3403)" font-family="'MyriadPro-Regular'" font-size="12.2999">ÇORUM</text>
        <text transform="matrix(0.1476 0.9891 -0.9891 0.1476 30.4182 254.9253)" font-family="'MyriadPro-Regular'" font-size="12.2999">KASTAMONU</text>
        <path fill-rule="evenodd" clip-rule="evenodd" fill="none" stroke="#000000" stroke-width="0.25" stroke-miterlimit="10" d="   M258.26,423.15c3,1.56,7.53,0.09,9.83,3.51c0.91,1.35,1.15,3.36,1.75,4.84c0.6,1.46,1.28,2.83,1.83,4.39   c0.98,2.79,0.94,6.67,3,9.05c2.42,2.78,6.87,1.32,9.33,4.13c1.69,1.94,3.29,4.63,4.51,6.86c0.57,1.05,1.15,2.43,1.54,3.51   c0.51,1.39,0.25,2.89,0.76,4.29c1.03,2.86,3.49,3.78,1.12,7.13c-1.02,1.44-4.16,4.78-6,4.78"/>
    </g>
    <g id="__Harita" display="none">
        <rect id="__cer" x="0" y="0" fill="#000000" opacity="0" width="500" height="475"/>
        <g id="__Dikmen">
            <path d="    M405.34,328.28c-1.2,0.69-2.39,1.38-3.59,2.08c-1.13,0.78-2.68,0.21-4,0.67c-0.64,0.47-1.28,0.94-1.92,1.42    c-1.12,0.41-2.24,0.82-3.37,1.23c-2.09,0.95-3.9,2.25-6.13,2.95c-1.54,0.41-3.9-1.2-4.8-2.33c-0.71-0.74-1.42-1.47-2.13-2.21    c-1.05-1.62-2.11-3.23-3.16-4.85c-0.63-0.49-1.27-0.98-1.9-1.48c-1.22-0.52-2.45-1.04-3.67-1.56c-3.35-0.88-6.69-1.77-10.04-2.66    c-2.06-0.98-4.11-1.97-6.17-2.95c-3.51-0.97-7.24-0.39-10.7-1.69c-1.78,0.27-3.68-0.38-5.1-1.25c-0.75-0.47-0.44-2.42-0.38-3.39    c-0.4-1.29-0.8-2.57-1.19-3.86c-0.98-1.84-1.27-3.65-2.35-5.44c-1.53-2.51-3.79-4.27-4.83-7.18c-0.35-0.98-0.16-2.06-0.27-3.14    c-0.46-0.21-0.68-0.97-0.97-1.4c-1.33-1.98-1.77-3.59-1.77-5.98l0.22,0.13c0.12-0.72,0.31-1.31,0.42-1.81    c0.02-0.77-0.21-1.69-0.21-1.69c-0.07,0,0.07-1.05,0-1.05c0-1.14,2.19-1.64,2.95-2.32c0.77-1.19,1.55-2.39,2.32-3.58    c-0.39-1.03,2.07-3.88,2.53-5.06c0.98-2.53,1.97-5.06,2.95-7.59c-0.41-1.5,2.13-4.31,3.16-5.27c0.99-0.34,1.97-0.67,2.96-1.01    c1.06,0.24,2.12,0.47,3.18,0.71c0.55,0.1,1.11,0.2,1.66,0.3c1.76,0.71,3.51,1.41,5.27,2.12c1.92,0.9,3.65,1.92,5.49,2.95    c0.63,0,1.27,0,1.9,0c0.96,0,1.43-1.59,1.63-2.33c0.61-2.12-1.73-3.29-2.48-3.57c-0.35-0.49-0.7-0.98-0.94-1.23    c-0.78-0.12-3.56-3.33-3.91-6.37c-0.78-0.46,0.01-1.59,0.83-2.06c0.62-0.89,1.42-0.81,1.9-1.13c0.84-0.55,1.69-1.1,2.53-1.65    c0.56-0.56,1.12-1.12,1.69-1.69c0.3,0.01,3.58-1.59,3.62-1.79c2.82,0.7,5.33,2.14,7.97,3.26c2.18,0.68,4.36,1.37,6.54,2.05    c2,0.54,3.9,0.35,5.69,1.54c2.58,1.71,8.44,2.78,10.61,0.1c0.19-0.24,0.38-0.49,0.57-0.73c-0.16-0.26-0.35-0.93-0.94-1.54    c-0.33-0.27-1.58-0.64-2.43-0.99c-0.37-0.62-0.73-1.24-1.1-1.86c-1.35-0.94-0.39-3.42,1.1-4.04l0.07,0.1    c-0.07,0.07,0.64,0.04,0.57,0.11c2.6,0.63,3.51,0.84,6.11,1.48c1.76,0.76,3.53,1.52,5.29,2.27c1.77,0.5,3.53,1.01,5.3,1.52    c0.62,0.07,1.23,0.14,1.85,0.22c1.05,0.49,2.11,0.98,3.16,1.48c1.61,0.3,3.22,0.59,4.84,0.89c0.53,0.06,1.14,0.1,2.02,0.17    c0.15,0.66-1.99,1.63-2.43,2.1c-1,0.47-1.17,1.09-2.74,1.69c-1.3,0.49-2.54,3.58-1.48,4.85c-0.42,1.48-0.84,2.95-1.27,4.43    c0.07,0.91,0.14,1.83,0.21,2.74c-0.14,0.7-0.28,1.41-0.42,2.11c-0.35,0.7-0.7,1.41-1.05,2.11c-0.7,0.91-1.41,1.83-2.11,2.74    c-0.88,1.31-2.41,2.08-3.09,3.56c-0.78,1.69-0.84,3.42-1.97,4.87c-1.18,1.52-2.91,2.61-4.49,3.71c-0.4,0.24-0.8,0.48-1.21,0.72    c-1.23,0.2-2.49,0.72-3.79,0.42c-1.37-0.31-2.32-1.05-3.8-1.05c-0.66,0.7-0.98,1.18-1.26,2.11c0.07,0.98,0.14,1.97,0.21,2.95    c0.38,0.57,0.77,1.15,1.15,1.72c0.53,1.47,1.06,2.93,1.59,4.4c0.63,0.84,1.27,1.69,1.9,2.53c1.08,1.37,1.15,3.08,2.32,4.43    c1.53,1.75,3.81,2.49,5.06,4.64c0,1.41,0,2.81,0,4.22c-0.14,0.7-0.28,1.4-0.42,2.1c0.03,0.68,0.45,2.73,0.2,3.17    c0.98,1.41,1.97,2.81,2.95,4.22c0.07,1.48,0.14,2.95,0.21,4.43c-0.1,0.78-0.44,1.38-0.63,2.11c-0.18,0.66,0.05,1-0.38,1.56    C407.08,325.84,406.06,327.24,405.34,328.28z"/>
            <circle cx="377.96" cy="259.15" r="1.586"/>
        </g>
        <g id="__Gerze">
            <path d="    M269.55,221.59c-0.18-0.13-0.87-0.08-1.05-0.21c-2.93-0.79-5.47-1.56-7.25-4.29c-0.26-0.39-0.33-0.78-0.76-0.98    c-0.1-0.54,0.01-1.13-0.42-1.48c0.06-0.11,0.12-0.22,0.18-0.32c0.21-0.36,0.64-1.15,1.09-1.15c0.73,0,2.75-0.48,3.16-0.21    c0.21-0.22,0.42-0.44,0.63-0.66c1.39-1.59,2.39-2,2.75-4.19c0.06-0.54,0.57-1.57,0.63-2.11c0.2-0.73-0.06-1.37-0.21-1.69    c-0.07,0.01-0.14,0.03-0.21,0.04c-0.73,0.14-2.88,0.89-3.49,0.52c-0.57-0.35-1.58-0.97-1.64-1.44c-0.09-0.39-0.18-0.77-0.26-1.16    c1.06-1.67,2.39-1.91,4.01-2.8c0.88-0.48,1.58-1.25,2.65-1.27c0.49-0.28,0.98-0.56,1.48-0.84c0.98-0.63,1.97-1.26,2.95-1.9    c1.03-1.03,1.85-1.8,3.25-2.21c0.15-0.39,0.01-0.34,0.34-0.26c1.51,0.32,4.34,0.68,5.45,1.63c0.43,0.49,0.86,0.98,1.28,1.47    c0.18,3.13,0.24,2.25-2.81,4.57c-0.75,0.33-1.18,0.95-1.62,1.55c-0.37,1.75-0.73,3.5-1.1,5.25c-0.13,0.85-0.25,1.7-0.38,2.55    c0.28,1.05,0.56,2.11,0.84,3.16c0,0.42,0,0.84,0,1.27c0.59,2.31,1.81,4.47,1.69,6.96c-0.1,2.09-1.93,2.79-1.9,4.64    c-0.16,0.23-0.43,0.95-0.21,1.27c-0.04,0.39,0.19,1,0.1,0.96c0.74,0.87,1.48,1.75,2.22,2.62c0.49,0.84,0.98,1.69,1.48,2.53    c1.19,1.47,3.45,1.96,5.25,1.96c0.54,0,2.65-0.13,2.95-0.51c2.11-2.64,1.93-4.3,2.1-7.52c-0.03-0.71-0.23-1.41,0.45-2.15    c1.21-1.78,2.66-3.15,4.03-4.78c0.68-0.8,1.24-2.18,2.29-2.39c0.25-0.39,1.13-1.69,1.48-1.69c0.81-1.98,0.92-4.24,1.27-6.33    c0.11-0.67,2.25-4.55,2.74-4.85c0.07-1.33-0.07-2.25,0-3.58c-0.07-0.42-0.14-0.84-0.21-1.27c0.05-0.05,0.4-1.16,0.42-1.27    c0.12-0.09,0.62-0.75,0.63-0.84c-0.05-0.02,0.92-0.53,1.48-1.05c0.73-0.71,2.65-1.53,2.95-2.11c0.53-0.31,0.93-0.66,1.26-1.27    c0.09-0.2,0.55-0.64,0.63-0.84c0.26-0.68,0.59-1.22,0.84-1.9c0.36-0.53,0.27-0.95,0.63-1.48c0.49-1.27,0.98-2.53,1.48-3.8    c0.98-1.44,2.4-2.19,3.58-3.37c1.19-0.08,2.38-0.15,3.56-0.23c0.41,0.05,0.82,0.09,1.23,0.14c0.85-0.01,1.16-0.43,1.75-0.96    c0.31-0.43,0.87-1.3,0.84-1.9c0.2-1.34,0.4-2.68,0.61-4.02c1.02-2.33,2.69-4.19,4.45-6.1c0.49-0.34,0.98-0.68,1.47-1.02    c0.44-0.39,2.33-2.39,2.33-2.78c0.01,0.14,0.02,0.28,0.03,0.42c0.21,1.25,1.07,4.7,0.39,5.7c0.68,1.64,1.56,3.19,2.74,4.63    c1.35,1.6,2.71,3.2,4.06,4.8c0.53,0.47,2.69-0.11,2.69,0.28c0,0.49,0.43,1.4,0.42,1.9c0.26,0.35,0.14,1.55,0.84,1.9    c0.14,0.35,0.28,0.7,0.42,1.05c0.91,0.91,1.83,1.83,2.74,2.74c0,0.39,0.03,0.46,0.34,0.73c0.33,0.29,0.5,1.5,0.93,1.38    c0.49,0.49,1.19,0.14,1.69,0.63c0.43,0.17,0.92,0.27,1.26,0c0.79,0.52,1.57,1.03,2.36,1.55c0.74,0.5,3.68,3.03,3.37,3.64    c-0.39,0.6,0.42,0.41-0.26,0.68c-0.66,0.26-1.33,0.51-1.99,0.77c-0.39,0.67-0.78,1.34-1.17,2.01c0,0.35,0,0.7,0,1.05    c0.84,1.62,1.69,3.23,2.53,4.85c0.14,0.63,0.28,1.27,0.42,1.9c0.77,1.33,1.55,2.67,2.32,4.01c0.67,0.02,1.1,0.07,1.69,0.42    c0,1.32,2.67,3.55,3.8,4.43c0.52,0.4,2.11,1.44,2.74,1.27c1.7,1.45,3.4,2.6,5.3,3.76c0.86,0.53,2.73,1.31,2.79,2.17    c0.12,0.13,0.23,0.26,0.35,0.39c-0.56,1.28-0.8,2.16-0.42,3.58c0.36,1.35,1.87,2.04,2.72,2.96c2.22,2.41,3.66,2.92,6.55,4.23    c0.64,0.29,2.08,1.12,2.75,0.82c0.84,0.42,1.69,0.84,2.53,1.27c0.91,0.21,1.83,0.42,2.74,0.63c-1.5,0.62-2.46,3.1-1.1,4.04    c0.37,0.62,0.73,1.24,1.1,1.86c0.85,0.35,2.1,0.72,2.43,0.99c0.59,0.61,0.79,1.28,0.94,1.54c-0.19,0.24-0.38,0.49-0.57,0.73    c-2.17,2.68-8.03,1.61-10.61-0.1c-1.78-1.18-3.68-1-5.69-1.54c-2.18-0.68-4.36-1.37-6.54-2.05c-2.64-1.12-5.16-2.56-7.97-3.26    c-0.04,0.19-3.32,1.79-3.62,1.79c-0.56,0.56-1.12,1.12-1.69,1.69c-0.84,0.55-1.69,1.1-2.53,1.65c-0.49,0.32-1.28,0.25-1.9,1.13    c-0.83,0.47-1.61,1.6-0.83,2.06c0.34,3.05,3.12,6.25,3.91,6.37c0.23,0.25,0.58,0.74,0.94,1.23c0.75,0.28,3.09,1.45,2.48,3.57    c-0.2,0.74-0.67,2.33-1.63,2.33c-0.63,0-1.27,0-1.9,0c-1.84-1.03-3.57-2.05-5.49-2.95c-1.75-0.71-3.51-1.41-5.27-2.12    c-0.55-0.1-1.11-0.2-1.66-0.3c-1.06-0.24-2.12-0.47-3.18-0.71c-0.99,0.34-1.97,0.67-2.96,1.01c-1.03,0.97-3.57,3.77-3.16,5.27    c-0.98,2.53-1.97,5.06-2.95,7.59c-0.46,1.18-2.92,4.03-2.53,5.06c-0.77,1.19-1.55,2.39-2.32,3.58c-0.76,0.68-2.95,1.17-2.95,2.32    c0.07,0-0.07,1.05,0,1.05c-1.04-0.35-1.13-1.52-1.98-2.26c-2.37-2.04-4.28-3-4.69-6.5c-0.39-3.42,0.19-5.02,1.51-7    c0.67-0.84,1.65-1.74,1.79-3.22c0.03-0.54-1.12-1.66-2.32-2.74c-1.8-1.37-7.24-3.16-9.49-3.16c-0.84-0.49-2.11-0.98-2.95-1.48    c-1.76-1.76-3.09-3.51-4.85-5.27c-1.43-1.17-2.78-1.78-4.22-2.95c-0.42-0.38-1.15-1.96-1.73-1.84c-2.12,0.35-3.6,0.73-4.8,2.48    c-0.36,0.62-0.9,1.91-1.26,2.53c-0.43,0.64-1.26,1.47-1.69,2.11c-2.31,1.73-4.41,2.71-6.96,4.01c-1.29,0.76-2.58,1.52-3.87,2.29    c-1.81,0.73-3.62,1.45-5.42,2.18c-2.09,1.26-5.59,2.06-7.99,1.44c-0.16-0.37-0.89-0.26-1.05-0.63c-0.57-0.1-0.96-0.9-1.48-1.05    c-0.14-0.35-0.7-0.91-0.84-1.27c-0.61-0.87-1.31-1.19-1.9-2.11c-0.48-0.42-2.52-1.92-2.54-2.52c0.02-0.7,0.24-1.8-0.2-2.33    c0.87-1.41,1.7-2.35,1.69-4.01c-0.01-1.07,0.06-2.93-0.63-3.58c0.14-0.56-0.14-0.49,0-1.05c0.49-1.34,0.98-2.67,1.48-4.01    c1.76-2.25,3.51-4.5,5.27-6.75c0.28-0.63,0.56-1.26,0.84-1.9c0.16-0.84,0.32-1.67,0.47-2.51c0.19-0.71,0.39-1.42,0.58-2.13    c0.11-0.88,0.06-1.41,0.46-2.22C268.78,223.94,269.88,221.98,269.55,221.59z"/>
            <circle cx="354.24" cy="197.36" r="1.586"/>
        </g>
        <g id="__Sinop">
            <path d="    M259.43,245.19c-0.54-1.08-2.99,1.75-3.58,2.33c0,0.45-2.24,0.54-2.74,0.63c-1.33,2.53-6.64,1.77-8.77,0.67    c-1.11-0.6-0.52-1.49-0.3-2.56l0.66-0.5c1.74-0.29,3.51-0.86,4.06-2c0.48-0.93,0.33-1.91,0.54-2.93c0.21-0.79,0.43-1.59,0.64-2.38    c0.07-1.12,0.14-2.25,0.21-3.37c0.12-1.28,0.78-2.89,1.69-3.79c0.38-1.39,0.56-2.77,0.84-4.22c-0.07-0.84-0.14-1.69-0.21-2.53    c0.08-1.58,0.29-3.04,0.17-4.63c-0.13-1.62-0.25-3.24-0.38-4.86c0.21-0.56,0.42-1.13,0.63-1.69c0.66-0.46,1.33-0.92,1.99-1.38    c0.74-0.81,1.88-2.92,2.86-3.26c1.13-2.53,2.25-5.06,3.37-7.59c0.67-0.6,1.35-1.2,2.02-1.81c0.64-0.2,1.45-0.33,1.77-0.94    c1.61-0.16,2.99,0.25,4.28-0.74c0.66-0.51,1.33-1.33,2.05-0.95c0.52-0.91,1.27-1.46,2.11-2.11c0.42-0.56,0.84-1.12,1.26-1.69    c0.8-1.84,2.07-4.53,3.58-5.9c0.35-0.14,0.7-0.28,1.05-0.42c1.42-0.36,2.92-1.47,3.7-2.67c0.59-0.08,0.48,0.1,0.55-0.29    c0.11-0.64-0.02-1.62,0.38-2.1c-0.53-1.53-3-4.42-1.09-5.69c0.46-0.29,0.95-0.2,1.47-0.16c0.41-0.42,1.01,0.03,1.54,0.2    c1.23,0.4,2.72,1.96,3.96,1.75c0.51-0.1,2.16-0.69,2.11-1.19c-0.05-0.69-0.55-1.62-0.4-2.09c-1.23-1.23-2.77-3.26-1.67-5.03    c0.47-0.79,1.75-1.57,2.72-1.09c0.94-0.61,3.37-2.35,3.37-3.58c-0.04-1.32-0.21-2.51-0.42-3.8c-0.15-0.41-0.3-0.82-0.45-1.23    c0.01-1,0.02-1.99,0.03-2.98c-0.08-1.74-0.58-3.17-1.11-4.81c-0.19-0.65-0.38-1.29-0.57-1.94c-1.07-2.01-4.11-3.32-4.39-5.49    c0.27-1.26,0.54-2.53,0.8-3.79c-0.14-0.91-0.28-1.83-0.42-2.74c-0.31-0.77-0.62-1.54-0.93-2.31c-0.15-0.61-0.04-1.71-0.55-2.12    c0.54-4.46-1.07-11.19-4.64-14.13c-0.56-0.28-1.12-0.56-1.69-0.84c-1.5-1.33-2.92-1.63-4.43-2.74c-0.49-0.28-0.98-0.56-1.48-0.84    c-1.53,0-3.38-0.52-4.67-1.32c-1.75-1.08-2.51-2.73-3.47-4.43c-0.48-0.85-0.7-1.67-0.7-1.67c1.17-2.2,4.85-6.87,5.68-9.24    c0.31-0.88,1.34-1.55,1.05-2.53c1.89-2.28,3.33-3.62,4.22-6.54c1.05-1.48,2.11-2.95,3.16-4.43c-0.07-0.35-0.14-0.7-0.21-1.05    c-0.41-1.27-0.74-4.43-0.21-5.48c-0.32-0.46-0.52-1.08-1.05-1.27c0.11-0.71-0.06-1.26,0.42-1.69c0.17-0.02,0.34-0.04,0.51-0.07    c1.16,0.3,2.33,0.61,3.49,0.91c1.79-0.56,2.97-0.19,4.22,1.05c0.75,0.05,1.55-0.3,1.9,0.42c0.54-0.36,0.83-0.39,0.84-1.05    c0.84-0.07,1.69-0.14,2.53-0.21c0.77,0.42,1.55,0.84,2.32,1.27c0.14-0.07,0.28-0.14,0.42-0.21c0.28,0.14,0.56,0.28,0.84,0.42    c0.78-0.09,2.67-0.31,3.16,0.42c0.35-0.28,0.7-0.56,1.05-0.84c0.12,0.09,0.24,0.19,0.36,0.28c1.25,1.25,1.1,1.87,1.81,3.14    c0.5,0.22,1.03,1.31,0.99,1.85c0.63,0.28,1.27,0.56,1.9,0.84c0.62,0.78,1.36,2.32,2.53,2.32c0.21,0.42,0.42,0.84,0.63,1.27    c0.14,0.07,0.28,0.14,0.42,0.21c0.57,0.59,0.39,1.19,0.04,1.82c0.27,0.38,0.54,0.75,0.8,1.13c0.98,0.06,1.17,0.88,1.69,0.84    c-0.21,0.56-0.42,1.13-0.63,1.69c-1.16,0.35-2.04,0.15-2.74,1.27c0.21,0.14,0.42,0.28,0.63,0.42c0.42,0.56,0.84,1.13,1.27,1.69    c-0.24,0.37-0.15,0.47-0.63,0.42c0,0.76-0.44,1.34,0,1.9c0.63,0.74,1.5,1.31,1.69,1.48c0.2,0.64,1.02,1.1,1.48,1.48    c1.02,0.76,1.15,0.76,2.32,1.26c0.21,0.18,1.05,0.42,1.27,0.42c0.76,1,1.59,0.55,2.11,1.05c1.19,0.4,1.32,0.37,2.51,0.76    c2.19,0.38,4.37,0.76,6.56,1.13c1.6-0.04,3.19-0.07,4.79-0.11c1.13-0.07,2.26-0.14,3.39-0.21c1.63-0.46,3.26-0.91,4.89-1.37    c1-1.07,2.45-1.58,3.8-2.11c0.58-0.66,1.16-1.32,1.75-1.98c0.4-0.32,0.8-0.65,1.21-0.97c0.49-0.15,1.21-0.2,1.48-0.63    c1.97,0.07,3.94,0.14,5.9,0.21c1.13,0.49-0.7,2.04,0.42,2.53c-0.42,0.7,0.79-0.58,1.69,1.05c0.19,1.37,1.23,2.57,2.29,3.63    c0.64,0.64,1.62,1.29,1.72,2.27c-0.77,0.82-1.32,1.55-2.32,2.11c-0.56-0.49-1.13-0.98-1.69-1.48c-0.91-0.03-2.48-0.22-3.16,0.42    c-0.84-0.14-1.69-0.28-2.53-0.42c-1.12-0.21-2.25-0.42-3.37-0.63c-0.55-0.15-2.47-0.97-2.74-0.84c-0.67-0.4-0.81-0.51-1.48-0.84    c-0.92-0.38-1.85,0.35-1.96,0.49c-0.69-0.32-1.61,0.05-2.34,0.29c-0.49,0.77-1.74,0.35-2.24,1.1c-1.45-0.66-2.34,0.37-3.37,1.07    c0,0.58-1.45,1.91-1.9,2.11c-0.25,1.15-0.85,2.14-0.81,3.3c-0.98,0.61-0.92,1.8-1.3,2.81c-0.4,1.06-0.82,2.79-0.84,4.22    c0.07-0.14-0.07,1.62,0,1.48c-0.35,0.14-0.5,2.08-0.63,2.11c-0.6,0.83-1.22-0.18-1.89,1.63c-0.35,0.65-0.71,1.3-1.06,1.95    c-0.33,0.67-0.4,3.22,0,3.79c-0.21,0.91-0.42,1.83-0.63,2.74c0,0.63,0,1.27,0,1.9c-0.81,1.15-0.47,2.01-0.21,5.06    c-0.42,0.77-1.17-0.4-1.27,1.27c0,0.42,0,0.84,0,1.27c0.5,2.99,1.65,5.6,2.74,8.43c0.25,0.38,0.49,0.76,0.74,1.14    c0.6,1.59,1.19,3.18,1.79,4.76c0.38,0.44,0.76,0.89,1.13,1.33c1.23,2.02,3.32,3.33,5.19,4.78l-0.42-0.21    c0,0.39-1.88,2.39-2.33,2.78c-0.49,0.34-0.98,0.68-1.47,1.02c-1.76,1.91-3.43,3.77-4.45,6.1c-0.2,1.34-0.4,2.68-0.61,4.02    c0.02,0.6-0.54,1.46-0.84,1.9c-0.58,0.53-0.9,0.96-1.75,0.96c-0.41-0.05-0.82-0.09-1.23-0.14c-1.19,0.08-2.38,0.15-3.56,0.23    c-1.18,1.18-2.6,1.93-3.58,3.37c-0.49,1.27-0.98,2.53-1.48,3.8c-0.36,0.53-0.27,0.95-0.63,1.48c-0.26,0.68-0.59,1.22-0.84,1.9    c-0.08,0.2-0.55,0.64-0.63,0.84c-0.34,0.61-0.74,0.95-1.26,1.27c-0.3,0.57-2.22,1.4-2.95,2.11c-0.56,0.52-1.53,1.03-1.48,1.05    c-0.02,0.09-0.51,0.76-0.63,0.84c-0.02,0.11-0.37,1.21-0.42,1.27c0.07,0.42,0.14,0.84,0.21,1.27c-0.07,1.34,0.07,2.25,0,3.58    c-0.5,0.29-2.63,4.18-2.74,4.85c-0.35,2.09-0.46,4.35-1.27,6.33c-0.35,0-1.23,1.3-1.48,1.69c-1.05,0.21-1.62,1.59-2.29,2.39    c-1.37,1.63-2.83,2.99-4.03,4.78c-0.68,0.75-0.48,1.45-0.45,2.15c-0.17,3.22,0.01,4.88-2.1,7.52c-0.3,0.38-2.4,0.51-2.95,0.51    c-1.81,0-4.06-0.49-5.25-1.96c-0.49-0.84-0.98-1.69-1.48-2.53c-0.74-0.87-1.48-1.75-2.22-2.62c0.09,0.04-0.13-0.57-0.1-0.96    c-0.22-0.32,0.05-1.04,0.21-1.27c-0.03-1.85,1.8-2.55,1.9-4.64c0.12-2.49-1.09-4.65-1.69-6.96c0-0.42,0-0.84,0-1.27    c-0.28-1.05-0.56-2.11-0.84-3.16c0.13-0.85,0.25-1.7,0.38-2.55c0.37-1.75,0.73-3.5,1.1-5.25c0.44-0.61,0.87-1.22,1.62-1.55    c3.04-2.32,2.98-1.44,2.81-4.57c-0.43-0.49-0.86-0.98-1.28-1.47c-1.11-0.96-3.94-1.31-5.45-1.63c-0.33-0.08-0.2-0.12-0.34,0.26    c-1.4,0.42-2.22,1.18-3.25,2.21c-0.98,0.63-1.97,1.27-2.95,1.9c-0.49,0.28-0.98,0.56-1.48,0.84c-1.07,0.02-1.77,0.79-2.65,1.27    c-1.62,0.89-2.95,1.13-4.01,2.8c0.09,0.39,0.18,0.77,0.26,1.16c0.06,0.47,1.07,1.1,1.64,1.44c0.61,0.37,2.76-0.38,3.49-0.52    c0.07-0.01,0.14-0.03,0.21-0.04c0.15,0.32,0.41,0.96,0.21,1.69c-0.06,0.54-0.57,1.57-0.63,2.11c-0.35,2.19-1.36,2.6-2.75,4.19    c-0.21,0.22-0.42,0.44-0.63,0.66c-0.42-0.27-2.43,0.21-3.16,0.21c-0.45,0-0.87,0.79-1.09,1.15c-0.06,0.11-0.12,0.22-0.18,0.32    c0.43,0.35,0.33,0.93,0.42,1.48c0.43,0.21,0.51,0.59,0.76,0.98c1.78,2.73,4.32,3.5,7.25,4.29c0.18,0.13,0.87,0.08,1.05,0.21    c0.32,0.39-0.77,2.35-1.01,2.84c-0.4,0.81-0.35,1.34-0.46,2.22c-0.19,0.71-0.39,1.42-0.58,2.13c-0.16,0.84-0.32,1.67-0.47,2.51    c-0.28,0.63-0.56,1.27-0.84,1.9c-1.76,2.25-3.51,4.5-5.27,6.75c-0.49,1.34-0.98,2.67-1.48,4.01c-0.14,0.56,0.14,0.49,0,1.05    L259.43,245.19z"/>
            <circle cx="343.12" cy="106.28" r="1.586"/>
        </g>
        <g id="__Erfelek">
            <path d="    M226.12,240.28c0.71-0.81,1.78-1.53,2.49-2.34c1.06-2.02,0.57-4.85,1.73-7.07c0.42-0.56,0.84-1.13,1.27-1.69    c1.11-1.09,2.3-3.49,2.43-5.01c0.2-2.33,0.71-6.72-1.45-7.43c0.08-0.83-1.07-0.52-1.19-0.63c-0.96,0.18-1.91,0.36-2.87,0.53    c-0.78-0.63-1.22-0.5-1.44-1.6c-0.63-1.4-0.5-3.55,0.5-4.41c1.06-0.99,2.11-1.97,3.17-2.96c0.75-1,1.5-1.99,2.25-2.99    c0.35-0.47,0.71-0.94,1.07-1.42c0.31-0.87,0.62-1.74,0.92-2.6c0.16-0.89,0.31-1.79,0.47-2.68c0.72-1.77,1.25-3.78-0.16-5.19    c-1.44-1.51-2.89-3.01-4.34-4.52c-0.13-0.81-0.34-4.08-0.84-4.43c0-1.12,0-2.25,0-3.37c0.05-1.64,1.1-4.6-0.21-5.9    c0-1.03-0.06-1.89-0.44-2.87c-1.12-2.21-2.24-4.41-3.36-6.62c-0.82-0.41-1.78-0.67-1.56-1.69c-0.24-0.62-0.41-1.24,0.3-1.9    c0.28-0.42,0.56-0.84,0.84-1.27c0-1.12,1.26-2.11,1.9-2.95c0.76-1,0.72-2.19,0.95-3.35c-0.25-1.34-0.49-2.68-0.74-4.03    c-1.07-1.02-1.03-2.13-0.63-3.58c0.77-1.34,1.55-2.67,2.32-4.01c0.08-0.49,0.25-1.5,0-1.9c0.52-2.01,0.29-4.83,0.29-4.83    c0.29-1.02,1.14-1.21,2.24-1.92c0.77,0.14,1.55,0.28,2.32,0.42c0.63-0.21,1.27-0.42,1.9-0.63c0.27-0.55,1.88-1.48,2.53-1.48    c1.34-1.34,2.51-2,4.22-2.74c1.33-1.12,2.67-2.25,4.01-3.37c1.28-1.05,2.56-2.11,3.84-3.16c2.83-2.71,5.65-5.41,8.48-8.12    c1.28-1.32,2.57-2.65,3.85-3.97c1.12-1.11,2.13-1.9,2.81-3.3c1.1,0,1.09,0.99,1.56,1.84c0.95,1.7,1.71,3.35,3.47,4.43    c1.29,0.8,3.14,1.32,4.67,1.32c0.49,0.28,0.98,0.56,1.48,0.84c1.51,1.12,2.92,1.41,4.43,2.74c0.56,0.28,1.13,0.56,1.69,0.84    c3.57,2.94,5.18,9.67,4.64,14.13c0.51,0.4,0.39,1.5,0.55,2.12c0.31,0.77,0.62,1.54,0.93,2.31c0.14,0.91,0.28,1.83,0.42,2.74    c-0.27,1.26-0.54,2.53-0.8,3.79c0.28,2.17,3.32,3.48,4.39,5.49c0.19,0.65,0.38,1.29,0.57,1.94c0.53,1.65,1.03,3.07,1.11,4.81    c-0.01,1-0.02,1.99-0.03,2.98c0.15,0.41,0.3,0.82,0.45,1.23c0.21,1.29,0.38,2.48,0.42,3.8c0,1.24-2.43,2.97-3.37,3.58    c-0.97-0.48-2.25,0.3-2.72,1.09c-1.11,1.77,0.44,3.8,1.67,5.03c-0.15,0.47,0.36,1.4,0.4,2.09c0.04,0.49-1.6,1.09-2.11,1.19    c-1.24,0.21-2.73-1.35-3.96-1.75c-0.53-0.17-1.13-0.62-1.54-0.2c-0.52-0.04-1.01-0.13-1.47,0.16c-1.91,1.27,0.57,4.17,1.09,5.69    c-0.4,0.48-0.27,1.46-0.38,2.1c-0.07,0.39,0.03,0.21-0.55,0.29c-0.78,1.2-2.29,2.31-3.7,2.67c-0.35,0.14-0.7,0.28-1.05,0.42    c-1.52,1.37-2.79,4.07-3.58,5.9c-0.42,0.56-0.84,1.12-1.26,1.69c-0.83,0.65-1.59,1.19-2.11,2.11c-0.72-0.39-1.38,0.44-2.05,0.95    c-1.29,0.99-2.67,0.58-4.28,0.74c-0.32,0.6-1.14,0.74-1.77,0.94c-0.67,0.6-1.35,1.2-2.02,1.81c-1.13,2.53-2.25,5.06-3.37,7.59    c-0.98,0.34-2.12,2.45-2.86,3.26c-0.66,0.46-1.33,0.92-1.99,1.38c-0.21,0.56-0.42,1.12-0.63,1.69c0.13,1.62,0.25,3.24,0.38,4.86    c0.13,1.59-0.09,3.05-0.17,4.63c0.07,0.84,0.14,1.69,0.21,2.53c-0.28,1.45-0.46,2.83-0.84,4.22c-0.91,0.91-1.56,2.51-1.69,3.79    c-0.07,1.12-0.14,2.25-0.21,3.37c-0.21,0.79-0.43,1.59-0.64,2.38c-0.21,1.01-0.06,2-0.54,2.93c-0.55,1.14-2.32,1.71-4.06,2    c-1.23,0.2-2.44,0.27-3.19,0.29c-3.55,2.22-9.01,0.69-12.65-0.42c-1.46-0.45-2.28-0.77-3.37-1.9c-0.44,0-0.68-0.48-0.84-0.84    C224.64,242.89,225.97,241.45,226.12,240.28z"/>
            <circle cx="267.56" cy="164.56" r="1.586"/>
        </g>
        <g id="__Ayancık">
            <path d="    M166.23,243.31c0,0,3.12-4.87,5.27-5.48c1.1-1.8,2.89-3.75,5.07-4.08c4.07-0.61,5.83,2.59,9.55,3.56c0.68,0.1,1.36,0.2,2.04,0.3    c0.78,0.29,1.57,0.57,2.35,0.86c0.48,0.14,0.96,0.27,1.44,0.41c1.97,0,3.94,0,5.9,0c3.55-0.52,6.9-0.35,10.54-0.06    c0.97,0.07,1.95,0.15,2.92,0.22c1.76,0.26,3.53,0.52,5.29,0.78c1.83,0.53,3.66,1.06,5.5,1.59c1.26,0.42,1.59,1.15,2.32,2.11    c0.08-0.14,1.54-2.07,1.69-3.24c0.71-0.81,1.78-1.53,2.49-2.34c1.06-2.02,0.57-4.85,1.73-7.07c0.42-0.56,0.84-1.13,1.27-1.69    c1.11-1.09,2.3-3.49,2.43-5.01c0.2-2.33,0.71-6.72-1.45-7.43c0.08-0.83-1.07-0.52-1.19-0.63c-0.96,0.18-1.91,0.36-2.87,0.53    c-0.78-0.63-1.22-0.5-1.44-1.6c-0.63-1.4-0.5-3.55,0.5-4.41c1.06-0.99,2.11-1.97,3.17-2.96c0.75-1,1.5-1.99,2.25-2.99    c0.35-0.47,0.71-0.94,1.07-1.42c0.31-0.87,0.62-1.74,0.92-2.6c0.16-0.89,0.31-1.79,0.47-2.68c0.72-1.77,1.25-3.78-0.16-5.19    c-1.44-1.51-2.89-3.01-4.34-4.52c-0.13-0.81-0.34-4.08-0.84-4.43c0-1.12,0-2.25,0-3.37c0.05-1.64,1.1-4.6-0.21-5.9    c0-1.03-0.06-1.89-0.44-2.87c-1.12-2.21-2.24-4.41-3.36-6.62c-0.82-0.41-1.78-0.67-1.56-1.69c-0.24-0.62-0.41-1.24,0.3-1.9    c0.28-0.42,0.56-0.84,0.84-1.27c0-1.12,1.26-2.11,1.9-2.95c0.76-1,0.72-2.19,0.95-3.35c-0.25-1.34-0.49-2.68-0.74-4.03    c-1.07-1.02-1.03-2.13-0.63-3.58c0.77-1.34,1.55-2.67,2.32-4.01c0.08-0.49,0.25-1.5,0-1.9c0.52-2.01,0.21-3.29,0.21-5.27    c-0.96,0.96-3.41-0.06-4.67-0.25c-2.22-0.33-4.49,0.58-6.53,1.25c-1.9,0.67-3.79,1.35-5.69,2.02c-1.12,0.26-2.24,0.51-3.36,0.77    c-2.2-0.5-3.78-0.21-5.9-0.21c-0.41-0.74-0.98-1.72-1.9-1.05c-0.56,0.07-1.13,0.14-1.69,0.21c-2.34,0.96-5.27,1.65-7.8,1.69    c-0.91-0.06-1.82-0.13-2.73-0.19c-0.67,0.06-1.05,0.41-1.7,0.19c-0.22,0.04-1.37,0.01-1.48,0c-1.32-0.14-1.24,0-2.53,0    c-0.39-0.34-1.93,0.13-2.32-0.21c-0.8-0.15-1.52,0.15-2.32,0c-1.88-0.42-5.06-1.16-6.33-2.74c-1.19-0.07-2.39-0.14-3.58-0.21    c-0.42,0.21-0.84,0.42-1.26,0.63c-1.55-0.07-3.1-0.14-4.65-0.2c-0.7,0.28-1.41,0.56-2.11,0.84c-0.35-0.28-0.7-0.56-1.05-0.84    c-0.7,0-1.41,0-2.11,0c-0.95-0.58-1.84-0.91-2.95-1.05c-1.41-0.7-2.81-1.41-4.22-2.11c-0.7,0-1.41,0-2.11,0    c-1.86-0.44-4.03-1.17-5.27-2.11c-0.1-0.12-0.53-1.57-0.59-1.67c0.61-1.63,0.94-1.95-0.25-3.6c-0.71-0.21-1.77-0.8-2.11-0.84    c-0.17-0.05-0.88-0.74-1.05,0.21c-1.24,1.45-2.48,2.83-4.01,4.01c-1.5-0.72-2.83-0.1-4.43,0.21c-0.7-0.06-1.41-0.12-2.11-0.18    c-0.89,0.14-1.99-0.38-2.53,0.81c-0.41,1.51,0.06,3.05,0,4.85c0.77,0.77,1.74,2.67,1.27,3.67c0,0.18,0,0.36-0.01,0.55    c-0.91,0.97-3.04,2.91-2.82,3.99c0.24,0.71,0.47,1.41,0.71,2.12c1.63,1.91,5.35,4.52,4.12,7.2c-0.5,0.88-1.85,2.47-2.85,2.71    c-0.77,1.11-2.56,3.15-1.9,4.64c-0.31,0.77-1.12,2.22-0.63,2.95c-0.67,0.9-1.2,1.78-2.31,1.86c-0.63,0-1.5-0.05-1.91-0.6    c-0.57,0.11-0.65,0.31-1.05-0.21c-0.06,0.08-0.11,0.15-0.17,0.23c-0.32,0.47-0.61,1.45-1.1,1.67c-0.08,2.37,0.6,5.04,2.29,6.79    c0.97,1,2.24,2.6,2.11,3.93c0.08,0.15,0.16,0.3,0.24,0.45c-0.82,1.45-1.31,3.06-2.53,4.22c-0.44,0.28-0.89,0.57-1.33,0.85    c-0.7,0.42-1.69,0.6-2.68,1.89c-0.28,0.42-0.56,0.84-0.84,1.27c-0.19,0.5-0.37,1-0.56,1.5c-0.31,0.13-0.61,0.26-0.92,0.4    c-1.53,0-3.13-0.11-4.43,0.84c-0.17,0.8-0.35,1.61-0.52,2.41c-0.16,0.45-0.62,0.93-0.53,1.38c-0.56,0.84-1.12,1.69-1.69,2.53    c-1.69,1.9-3.37,3.8-5.06,5.69c-1.08,0.81-2.16,1.63-3.23,2.44c-0.91,1.07-1.87,2.95-1.4,4.31c-1.16,2.14-2.73,4.26-3.35,6.54    c-0.36,1.33-0.72,2.67-1.08,4c-0.65,0.65-1.01,1.66-1.27,2.52c-0.14,0.46-1.83,1.91-0.85,2.17c1.9,0.53,3.81,1.06,5.71,1.59    c1.26,0.08,2.52,0.17,3.78,0.25c0.77,0.07,1.55,0.14,2.32,0.21c1.69-0.35,3.37-0.7,5.06-1.05c0.84,0.07,1.69,0.14,2.53,0.21    c2.25-0.1,4.65,0.96,6.73,1.53c0.85,0.26,1.7,0.53,2.55,0.79c1.33,0.35,2.67,0.7,4.01,1.05c2.32,0.28,4.64,0.56,6.96,0.84    c1.9-0.07,3.8-0.14,5.69-0.21c1.41-0.56,2.81-1.12,4.22-1.69c0.7-0.09,1.4-0.18,2.1-0.27c1.2-0.18,3.34-0.89,4.44-0.4    c0.61,0.25,2.01,1.3,2.54,1.09c2.03,2.31,4.1,4.82,5.48,7.59c0.49,0.84,0.98,1.69,1.48,2.53c0.93,0.81,1.87,1.63,2.8,2.44    c0.75,0.45,1.51,0.91,2.26,1.36c1.28,0.89,2.56,1.79,3.84,2.68L166.23,243.31z"/>
            <circle cx="169.75" cy="139.96" r="1.586"/>
        </g>
        <g id="__Türkeli">
            <path d="    M84.43,220.98c-0.85-0.15-1.69-0.29-2.54-0.44c-1.9,0.91-3.79,1.83-5.69,2.74c-1.43,0.88-4.45,0.94-6.12,1.07    c-1.78,0.14-4.27-0.19-4.84-2c-1-0.31-0.98,0.12-1.48-0.98c0-1.6-0.28-3.97,0.6-5.36c1.39-1.88,3.03-2.21,5.1-2.98    c0.49-0.24,0.98-0.49,1.47-0.73c1.38-1.47,2.52-3.28,3.42-5.13c2.96-6.1,3.77-14.46,0.89-20.6c-0.52-1.26-1.05-2.53-1.57-3.79    c0.56-1.55,1.12-3.09,1.69-4.64c0.56-0.91,1.13-1.83,1.69-2.74c0.34-0.81-0.28-1.9,0.21-2.53c-0.98-1.48-1.97-2.95-2.95-4.43    c-0.33-0.81-0.66-1.63-0.99-2.44c-1.22-1.51-2.43-3.01-3.65-4.52c-0.42-0.28-0.84-0.56-1.26-0.84c-0.52-0.49-1.79-2.41-2.11-2.53    c0.2-1.75,1.23-2.56,2.1-4.01c0.29-0.56,0.57-1.12,0.86-1.69c-0.21-0.49-0.42-0.98-0.63-1.48c-0.83-0.74-2.59-2.32-3.8-2.32    c-0.84-0.77-1.69-1.55-2.53-2.32c-0.7-0.84-1.41-1.69-2.11-2.53c-0.7-2.03-1.46-4.15-1.19-6.32c0.06-0.45,0.18-2.12-0.07-2.12    c0.39-0.47,0.77-0.63,0.84-1.27c0.26,0.07,0.51,0.14,0.77,0.2c0.79,0.3,0.95,0.99,1.59,1.32c0.83,0.33,1.66,0.67,2.49,1    c2.32,0.23,4.63,0.47,6.95,0.7c0.73,0.06,3.62,0.23,3.7,0.49c0.34,0.83,0.03,0.86,1.15,1.13c2.04,0.42,4.08,0.84,6.11,1.27    c1.19-0.28,2.39-0.56,3.58-0.84c0.42-0.1,1.18-0.05,1.48,0.21c1.41-0.37,2.96-0.64,4.01-1.69c0.14-0.49,0.28-0.98,0.42-1.48    c0.88,0,3.35-0.96,3.8,1.27c3.1,0.3,3.58,0.62,6.73,0.11c-0.02-0.35,2.18-1.59,2.13-2.01c0.66-0.31,3.5-0.42,3.29-1.21    c0.16,0.14,1.3,0.59,1.46,0.73c0.99,0.58,0.97-0.43,2-0.79c0-0.46,0.06-0.48,0.47-0.69c0.97-0.4,1.93-0.8,2.9-1.21    c0.98-0.42,3.32-0.69,3.58-1.9c1.52-0.14,2.76-0.45,4.22-0.84c0.58-0.16,0.92,0.29,1.48,0c0.77,0.35,2.18,0.91,2.11,0.84    l0.21-0.21c-0.41,1.51,0.06,3.05,0,4.85c0.77,0.77,1.74,2.67,1.27,3.67c0,0.18,0,0.36-0.01,0.55c-0.91,0.97-3.04,2.91-2.82,3.99    c0.24,0.71,0.47,1.41,0.71,2.12c1.63,1.91,5.35,4.52,4.12,7.2c-0.5,0.88-1.85,2.47-2.85,2.71c-0.77,1.11-2.56,3.15-1.9,4.64    c-0.31,0.77-1.12,2.22-0.63,2.95c-0.67,0.9-1.2,1.78-2.31,1.86c-0.63,0-1.5-0.05-1.91-0.6c-0.57,0.11-0.65,0.31-1.05-0.21    c-0.06,0.08-0.11,0.15-0.17,0.23c-0.32,0.47-0.61,1.45-1.1,1.67c-0.08,2.37,0.6,5.04,2.29,6.79c0.97,1,2.24,2.6,2.11,3.93    c0.08,0.15,0.16,0.3,0.24,0.45c-0.82,1.45-1.31,3.06-2.53,4.22c-0.44,0.28-0.89,0.57-1.33,0.85c-0.7,0.42-1.69,0.6-2.68,1.89    c-0.28,0.42-0.56,0.84-0.84,1.27c-0.19,0.5-0.37,1-0.56,1.5c-0.31,0.13-0.61,0.26-0.92,0.4c-1.53,0-3.13-0.11-4.43,0.84    c-0.17,0.8-0.35,1.61-0.52,2.41c-0.16,0.45-0.62,0.93-0.53,1.38c-0.56,0.84-1.12,1.69-1.69,2.53c-1.69,1.9-3.37,3.8-5.06,5.69    c-1.08,0.81-2.16,1.63-3.23,2.44c-0.91,1.07-1.87,2.95-1.4,4.31c-1.16,2.14-2.73,4.26-3.35,6.54c-0.36,1.33-0.72,2.67-1.08,4    c-0.65,0.65-1.01,1.66-1.27,2.52c-0.14,0.46-1.83,1.91-0.85,2.17C90.11,222.27,86.28,221.55,84.43,220.98z"/>
            <circle cx="94.19" cy="140.55" r="1.586"/>
        </g>
        <g id="__Boyabat">
            <path d="    M278.32,368.59c0.76-0.55,1.33-1.22,1.48-2.16c0.1-0.49,0.2-0.98,0.3-1.46c-0.5-1.66-1.6-5.26-0.21-6.75    c-0.07-0.84-0.14-1.69-0.21-2.53c-0.62-1.15-1.23-2.18-2.11-3.16c-0.57-0.54-1.15-1.08-1.72-1.62c-1.29-1.63-2.83-6.96-2.7-8.92    c0.26-4.07,2.82-5.29,5.05-8.22c0.57-1.07,1.15-2.15,1.72-3.22c0.13-0.47,0.26-0.94,0.39-1.42c0-0.48,0.13-1.13-0.21-1.48    c1.02-3.51,3.09-6.83,5.03-9.9c0.95-1.5,2.32-3.53,4.05-3.83c3.94-0.54,7.78-0.03,11.79,0.23c0.55,0.9,2.71,2.59,2.74,3.37    c1.75,0.26,3.5,0.52,5.24,0.78c1.27,0.29,2.53,0.58,3.8,0.87c1.67-0.17,3.99-0.54,4.79-2.21c0.54-0.08,0.54,0.1,0.47-0.28    c-0.06-0.7-0.11-1.41-0.17-2.11c-0.45-1.21-0.91-2.42-1.36-3.63c-0.62-2.3-0.28-3.34-1.84-5.49c-1.02-1.41-4.85-4.25-4.57-6.02    c0.26-1.08,0.51-2.16,0.77-3.24c0.02-0.62,0.03-1.24,0.05-1.86c-0.76-1.56-1.29-2.65-1.32-4.4c-0.02-0.21-0.04-0.41-0.07-0.62    c0.18-0.37,0.36-0.73,0.54-1.1c0.75-0.7,1.51-1.39,2.27-2.09c0.37-0.57,0.74-1.14,1.11-1.71c0.36-0.91,0.66-2.07,1.54-2.33    c2.64-0.62,6.92,0.61,9.45,1.86c0.4,0.2,2.51,1.08,2.51,1.31l0.22,0.13c0.12-0.72,0.31-1.31,0.42-1.81    c0.02-0.77-0.21-1.69-0.21-1.69c-1.04-0.35-1.13-1.52-1.98-2.26c-2.37-2.04-4.28-3-4.69-6.5c-0.39-3.42,0.19-5.02,1.51-7    c0.67-0.84,1.65-1.74,1.79-3.22c0.03-0.54-1.12-1.66-2.32-2.74c-1.8-1.37-7.24-3.16-9.49-3.16c-0.84-0.49-2.11-0.98-2.95-1.48    c-1.76-1.76-3.09-3.51-4.85-5.27c-1.43-1.17-2.78-1.78-4.22-2.95c-0.42-0.38-1.15-1.96-1.73-1.84c-2.12,0.35-3.6,0.73-4.8,2.48    c-0.36,0.62-0.9,1.91-1.26,2.53c-0.43,0.64-1.26,1.47-1.69,2.11c-2.31,1.73-4.41,2.71-6.96,4.01c-1.29,0.76-2.58,1.52-3.87,2.29    c-1.81,0.73-3.62,1.45-5.42,2.18c-2.09,1.26-5.59,2.06-7.99,1.44c-0.16-0.37-0.89-0.26-1.05-0.63c-0.57-0.1-0.96-0.9-1.48-1.05    c-0.14-0.35-0.7-0.91-0.84-1.27c-0.61-0.87-1.31-1.19-1.9-2.11c-0.48-0.42-2.52-1.92-2.54-2.52c0.02-0.7,0.24-1.8-0.2-2.33    c0.87-1.41,1.7-2.35,1.69-4.01c-0.01-1.07,0.06-2.93-0.63-3.58l-0.01,0.2c-0.54-1.08-2.99,1.75-3.58,2.33    c0,0.45-2.24,0.54-2.74,0.63c-1.33,2.53-6.64,1.77-8.77,0.67c-1.11-0.6-0.52-1.49-0.3-2.56c0-0.2-0.07-0.35-0.42-0.42    c-1.48,0.35-2.95,0.7-4.43,1.05c-1.89,0.31-4.37,0.28-6.22-0.04c-2.18-0.38-5.18-1.01-6.87-2.51c-0.49-0.63-1.67-0.82-1.67-0.82    c-0.73-0.96-1.06-1.69-2.32-2.11c-1.83-0.53-3.66-1.06-5.5-1.59c-1.76-0.26-3.53-0.52-5.29-0.78c-0.97-0.07-1.95-0.15-2.92-0.22    c-3.64-0.29-6.99-0.46-10.54,0.06c-1.97,0-3.94,0-5.9,0c-0.48-0.14-0.96-0.27-1.44-0.41c-0.78-0.29-1.57-0.57-2.35-0.86    c-0.68-0.1-1.36-0.2-2.04-0.3c-3.72-0.97-5.47-4.17-9.55-3.56c-2.19,0.33-3.98,2.27-5.07,4.08c-2.15,0.61-5.27,5.48-5.27,5.48    c-0.21,0.21,1.13,1.79,1.69,2.11c2.72,1.56,5.97,3.31,6.54,6.75c0,0.84,0,1.69,0,2.53c0,3.39-0.36,5.98-1.9,9.06    c-0.57,1.02-1.15,2.03-1.72,3.05c-0.06,0.25-0.11,0.49-0.17,0.74c0,1.98,0.87,3.77,0.42,5.71c-0.45,1.92-2.48,2.87-3.98,3.85    c-1.26,0.82-2.72,2.27-3.61,3.53c0.17,0.53-0.68,2.64-0.84,3.37c0.53,0.69,0.16,2.34,0,3.16c-0.49,0.42-0.98,0.84-1.48,1.27    c-0.21,0.42-0.42,0.84-0.63,1.27c-0.07,0.35-0.14,0.7-0.21,1.05c-0.42,0.77-0.84,1.55-1.26,2.32c-1.05,1.12-2.11,2.25-3.16,3.37    c-0.27,0.75-0.54,1.51-0.8,2.26c-0.73,2.07-2.05,3.86-4.01,5.06c-3.32,1.28-6.63,2.57-9.95,3.85c-4.13,2.45-7.46,5.97-11.43,8.57    c-2.9,1.9-6.43,2.16-8.04,5.61c-0.69,1.47-0.35,3.75-0.14,5.44c0.61,0.37,0.59,1.16,1.05,1.69c1.77,2.01,3,4.7,4.01,7.17    c-0.21,0.54,0.12,1.32,0.21,1.9c-0.07,0.63-0.14,1.27-0.21,1.9c-0.14,0.84-0.28,1.69-0.42,2.53c-0.8,2.38-1.57,4.94-0.57,7.4    c0.27,0.41,0.54,0.82,0.81,1.23c0.76,1.48,1.53,2.96,2.29,4.44c0.65,0.35,0.77,1.16,1.27,1.69c0.86,1.33,1.72,2.65,2.58,3.98    c0.87,1.73,2.38,3.5,2.69,5.51c0.34,2.24-0.42,4.15-0.63,6.33c-0.07,0.56-0.14,1.13-0.21,1.69c-0.78,0.91-1.56,1.82-2.35,2.73    c-0.9,1.55-1.81,3.1-2.71,4.65c-0.72,2.5-0.26,4.37,0.63,6.75c0.05,1.47,0.11,2.95,0.16,4.42c0.04,1.26,3.3,1.63,4.47,1.69    c1.51,0.07,4.02-2.05,5.49-2.66c1.67-0.69,3.77-0.21,5.48-0.1c0.52,0.02,0.42-0.1,0.43,0.59c1.79,1.3,1.99,3.28,2.31,5.34    c0.49,0.15,0.66,0.79,0.92,1.22c0.64,0.74,1.27,1.49,1.91,2.23c0.7,0.67,2.1,1.4,3.08,1.61c0.49,0.14,0.98,0.28,1.48,0.42    c0.26,0.17,0.51,0.34,0.76,0.51c3.3,1.2,6.4-1.73,9.38-2.71c1.63-0.53,3.16-0.65,4.82-0.75c0.72-0.08,1.44-0.15,2.15-0.23    c1.11,0.36,2.22,0.71,3.33,1.07c0.84,0.14,1.68,0.29,2.52,0.43c0.16,0.11,0.32,0.22,0.48,0.33c0.45,0.09,1.27,0.01,1.44,0.61    l1.09,1.38c-0.44-0.81-0.36-1.59,0.26-2.21c1.06-1.11,2.12-2.22,3.18-3.33c1.71-1.24,3.43-2.49,5.14-3.74    c0.35-0.21,0.7-0.43,1.05-0.64c0.69-0.46,2.83-1.43,3.16-2.1c1.17,0.36,2.49-0.74,3.61-1.19c1.94-0.44,3.88-0.88,5.82-1.32    c1.08-0.41,2.16-0.82,3.24-1.23c0.63-0.09,1.26-0.18,1.89-0.26c0.7-0.27,1.82-1.04,2.53-0.84c1.1-1.21,2.2-2.42,3.3-3.64    c0.73-1.11,1.45-2.21,2.18-3.32c1.69-1.62,3.37-3.23,5.06-4.85c1.2-0.89,2.39-1.79,3.59-2.68c0.57-0.25,1.15-0.51,1.72-0.76    c1.6-1.38,3.21-2.76,4.81-4.14c0.92-0.37,1.85-0.73,2.77-1.1c2.24-0.48,4.29-0.07,6.08,1.31c0.49,0.28,0.98,0.56,1.48,0.84    c0.82,0,2.94,0.08,3.37,0.63c-0.02-0.13-0.04-0.26-0.05-0.4c0.02-0.43,0.04-0.86,0.05-1.29c1.31,0,2.76-1.2,3.8-1.9    c0.42-0.21,0.84-0.42,1.26-0.63c1.13-0.14,2.25-0.28,3.37-0.42c0.49,0,0.98,0,1.48,0c0.88,0.88,3.85,2.53,4.81,2.02    c1.21-0.67,2.42-1.35,3.62-2.02c1.53-0.41,3.7-0.73,5.27-0.42c2.06,0.91,4.12,1.82,6.17,2.73c0.43,0.3,1.83,1.28,1.42,1.69h0.63    L278.32,368.59z"/>
            <circle cx="225.39" cy="335.58" r="1.586"/>
        </g>
        <g id="__Saraydüzü">
            <path d="    M289.96,391.1c-0.72,0.15-1.76-0.73-1.64-0.83c-2.06-1.62-4.43-3.67-7.18-3.87c-3.22-0.23-9.31,0.76-10.73-2.97    c-1.21-4.25-1.25-6.88,1.66-10.47c0.49-0.6,0.73-1.27,1.38-1.76c1.34-1.02,3.45-1.59,4.87-2.62l-0.75-0.04    c-0.14,0.14-1.41-0.97-1.84-1.27c-2.06-0.91-4.12-1.82-6.17-2.73c-1.58-0.31-3.75,0.01-5.27,0.42c-1.21,0.67-2.42,1.35-3.62,2.02    c-0.96,0.51-3.93-1.15-4.81-2.02c-0.49,0-0.98,0-1.48,0c-1.12,0.14-2.25,0.28-3.37,0.42c-0.42,0.21-0.84,0.42-1.26,0.63    c-1.03,0.7-2.49,1.9-3.8,1.9c-0.02,0.43-0.04,0.86-0.05,1.29c0.02,0.13,0.04,0.26,0.05,0.4c-0.43-0.55-2.55-0.63-3.37-0.63    c-0.49-0.28-0.98-0.56-1.48-0.84c-1.79-1.38-3.84-1.79-6.08-1.31c-0.92,0.37-1.85,0.73-2.77,1.1c-1.6,1.38-3.21,2.76-4.81,4.14    c-0.57,0.25-1.15,0.51-1.72,0.76c-1.2,0.89-2.39,1.79-3.59,2.68c-1.69,1.62-3.37,3.23-5.06,4.85c-0.73,1.11-1.45,2.21-2.18,3.32    c-1.1,1.21-2.2,2.43-3.3,3.64c-0.71-0.19-1.83,0.57-2.53,0.84c-0.63,0.09-1.26,0.18-1.89,0.26c-1.08,0.41-2.16,0.82-3.24,1.23    c-1.94,0.44-3.88,0.88-5.82,1.32c-1.12,0.46-2.44,1.56-3.61,1.19c-0.33,0.68-2.47,1.64-3.16,2.1c-0.35,0.21-0.7,0.43-1.05,0.64    c-1.71,1.25-3.43,2.49-5.14,3.74c-1.06,1.11-2.12,2.22-3.18,3.33c-0.62,0.62-0.7,1.4-0.26,2.21c0.47,0.35,0.94,0.7,1.41,1.05    c1.4,1.27,3.41,3.96,5.18,4.47c1.65,0.06,3.29,0.11,4.94,0.17c0.53-0.39,1.06-0.77,1.59-1.16c1.07-0.98,2.13-1.97,3.2-2.95    c0.37-0.39,0.74-0.77,1.11-1.16c2.61-1.17,5.22-1.6,7.59,0.42c0.81,0.66,1.62,1.32,2.43,1.98c0.47,0.56-0.55,3.2-1.02,3.94    c-1.77,2.86-3.52,4.13-2.46,7.78c0,0.92,1.62,1.85,2.34,2.28c2.71,1.65,6.09,1.91,9.26,2.11c3.66,0.23,7.66,0.28,10.75,2.15    c0.49,0.21,0.98,0.42,1.48,0.63c2.11,2.04,4.22,4.08,6.33,6.11c0.93,0.68,1.86,1.37,2.79,2.05c1.81,1.35,3.62,2.71,5.44,4.07    c0.42,0.14,0.84,0.28,1.27,0.42c0.56,0.49,1.12,0.98,1.69,1.48c0.56,0.35,1.12,0.7,1.69,1.05c0.45,0.17,0.89,0.34,1.34,0.51    c0.79,0.19,1.51,0.04,2.27-0.07c0.57-0.08,0.46-0.41,0.82-0.66c0.35-0.21,0.7-0.42,1.05-0.63c0.49-1.62,0.98-3.23,1.48-4.85    c0.21-0.77,0.42-1.55,0.63-2.32c0.21-0.49,0.42-0.98,0.63-1.48c0.07-0.56,0.14-1.13,0.21-1.69c0.21-0.63,0.42-1.27,0.63-1.9    c0.27-2.17,0.31-4.21,1.69-6.11c0.28-0.84,0.56-1.69,0.84-2.53c0-2.6,1.1-3.78,2.97-5.41c0.49-0.39,0.54-0.16,1.03,0.14    c1.05-0.21,2.11-0.42,3.16-0.63c0.7-0.07,1.41-0.14,2.11-0.21c0.94,0.08,1.89,0.15,2.83,0.22c0.67-0.15,1.34-0.29,2.02-0.43    c1.69-0.07,3.37-0.14,5.06-0.21c0.77,0,0.19-2.75,0.21-3.37c-0.64-0.64-0.38-1.29-0.63-2.11c-0.49-2.18-0.98-4.36-1.48-6.54    c-1.04-1.3-1.41-0.88-2.53-1.69c-0.37-0.37-0.08-1.66,0.21-2.11c0.9-1.39,2.14-2.36,3.58-3.37c-0.01-0.76,0.62-1.25,1.28-1.4    c0.94-0.19,2.02,1.17,2.94,1.61c0.97-0.04,1.95-0.08,2.92-0.12c1.06-0.2,1.9-1.16,2.77-1.78c0.45,0,0.52-0.1,0.84-0.42    L289.96,391.1z"/>
            <circle cx="248.23" cy="391.23" r="1.586"/>
        </g>
        <g id="__Durağan">
            <path d="    M340.96,388c-0.8-0.69-0.94-1.85-1.44-2.86c-0.35-0.43,0.04-1.14-0.31-1.56c-0.62-1.03-1.03-1.9-1.65-2.93    c-0.2-0.84-0.54-3.35-1.1-3.73c0.21-1.07-0.66-2.1-0.59-3.18c0.02-0.34-0.58-1.91-0.62-1.46c-0.18,1.79,0.73,3.26,0.73,5.57    c0.1,0.5,0.41,1.02,0.55,1.54l-1.61-0.05c-6.33,0.9-12.66,1.81-18.98,2.71c-1.71,0.19-3.86,0.24-4.92-1.25    c-0.72,0-0.58-0.06-0.56-0.64l-1.47-0.84c-2.08-0.85-4.29-0.3-5.91,1.09c-0.44,0.4-0.88,0.8-1.32,1.2    c-0.14,0.44-0.25,0.46,0.06,0.87c-0.14,1.44-0.13,1.96-1.52,2.66c-0.6,0.3-2.06,0.87-2.7,0.72c-0.98,0.98-1.97,1.97-2.95,2.95    c-1.47,0.46-3.37,1.13-4.68,2.3c-0.72,0.15-1.76-0.73-1.64-0.83c-2.06-1.62-4.43-3.67-7.18-3.87c-3.22-0.23-9.31,0.76-10.73-2.97    c-1.21-4.25-1.25-6.88,1.66-10.47c0.49-0.6,0.73-1.27,1.38-1.76c1.34-1.02,3.45-1.59,4.87-2.62c0.76-0.55,1.33-1.22,1.48-2.16    c0.1-0.49,0.2-0.98,0.3-1.46c-0.5-1.66-1.6-5.26-0.21-6.75c-0.07-0.84-0.14-1.69-0.21-2.53c-0.62-1.15-1.23-2.18-2.11-3.16    c-0.57-0.54-1.15-1.08-1.72-1.62c-1.29-1.63-2.83-6.96-2.7-8.92c0.26-4.07,2.82-5.29,5.05-8.22c0.57-1.07,1.15-2.15,1.72-3.22    c0.13-0.47,0.26-0.94,0.39-1.42c0-0.48,0.13-1.13-0.21-1.48c1.02-3.51,3.09-6.83,5.03-9.9c0.95-1.5,2.32-3.53,4.05-3.83    c3.94-0.54,7.78-0.03,11.79,0.23c0.55,0.9,2.71,2.59,2.74,3.37c1.75,0.26,3.5,0.52,5.24,0.78c1.27,0.29,2.53,0.58,3.8,0.87    c1.67-0.17,3.99-0.54,4.79-2.21c0.54-0.08,0.54,0.1,0.47-0.28c-0.06-0.7-0.11-1.41-0.17-2.11c-0.45-1.21-0.91-2.42-1.36-3.63    c-0.62-2.3-0.28-3.34-1.84-5.49c-1.02-1.41-4.85-4.25-4.57-6.02c0.26-1.08,0.51-2.16,0.77-3.24c0.02-0.62,0.03-1.24,0.05-1.86    c-0.76-1.56-1.29-2.65-1.32-4.4c-0.02-0.21-0.04-0.41-0.07-0.62c0.18-0.37,0.36-0.73,0.54-1.1c0.75-0.7,1.51-1.39,2.27-2.09    c0.37-0.57,0.74-1.14,1.11-1.71c0.36-0.91,0.66-2.07,1.54-2.33c2.64-0.62,6.92,0.61,9.45,1.86c0.4,0.2,2.51,1.08,2.51,1.31    c0,2.39,0.44,4,1.77,5.98c0.29,0.43,0.51,1.19,0.97,1.4c0.11,1.07-0.08,2.16,0.27,3.14c1.04,2.91,3.3,4.66,4.83,7.18    c1.08,1.79,1.38,3.6,2.35,5.44c0.4,1.29,0.79,2.57,1.19,3.86c-0.06,0.96-0.37,2.92,0.38,3.39c1.42,0.88,3.31,1.52,5.1,1.25    c3.46,1.3,7.2,0.72,10.7,1.69c2.06,0.98,4.11,1.97,6.17,2.95c3.35,0.89,6.69,1.77,10.04,2.66c1.22,0.52,2.45,1.04,3.67,1.56    c0.63,0.49,1.26,0.98,1.9,1.48c1.05,1.62,2.11,3.23,3.16,4.85c0.71,0.74,1.42,1.47,2.13,2.21c0.9,1.12,3.26,2.74,4.8,2.33    c2.24-0.69,4.04-2,6.13-2.95c1.12-0.41,2.24-0.82,3.37-1.23c0.64-0.47,1.28-0.94,1.92-1.42c1.32-0.45,2.87,0.11,4-0.67    c1.2-0.69,2.39-1.38,3.59-2.08c0.72-1.05,1.23-1.91,2.53-2.32c0.25,0.41,0.46,0.54,0.42,1.05c0.63,0.35,1.27,0.7,1.9,1.05    c1.63,0.16,2.91,0.72,4.43,1.27c1.41,0.77,2.81,1.55,4.22,2.32c1.19,0.56,2.39,1.13,3.58,1.69c1.9,1.12,3.8,2.25,5.69,3.37    c0.42,0.35,0.84,0.7,1.27,1.05c0.63,1.07,1.2,3.22,2.53,3.58c0.38,0.48,0.7,1.02,1.27,1.27c0.17,0.66,0.07,1.3,0.63,1.69    c-0.49,1.05-1.55,2.3-1.54,3.53c0.01,0.54-0.3,1.63-0.78,1.95c-0.21,1.05-0.42,2.11-0.63,3.16c0.25,1.68,0.51,3.36,0.76,5.03    c0.24,0.78,0.48,1.56,0.72,2.35c-0.07,0.35-0.14,0.7-0.21,1.05c0.07,2.74,0.14,5.48,0.21,8.22c0.45,1.23,0.9,2.45,1.36,3.68    c0.95,2.36,1.91,4.72,2.86,7.08c0.51,0.98,0.51,2.08,0.63,3.16c0.07,0.7,0.14,1.41,0.21,2.11c-0.72,3.09-1.83,4.54-3.98,6.98    c-0.78,0.77-1.56,1.53-2.35,2.3c-0.29,0.45-0.86,0.99-0.63,1.48c-0.52,0.26-1.04,0.3-1.27,0.84c-0.19-0.05-0.38-0.11-0.57-0.16    c-2.07-0.74-2.73-1.72-4.12-3.29c-0.69-0.68-1.37-1.36-2.06-2.04c-2.33-1.29-4.67-2.58-7-3.87c-1.12-0.47-5-1.28-5.85-0.34    c-0.25,0.27-0.87,0.49-0.88,0.62c-0.31,3.27,0.96,6.71,1.82,9.9c0.3,2.04,0.6,4.09,0.9,6.13c0.3,1.05,0.6,2.11,0.9,3.16    c0.22,0.93,1.14,2.6,1.9,3.16c1,0.75,2.55,0.82,2.68,2.13c0.16,2.44-0.36,5.36-2.71,6.24l-2.29,0.69    c-0.86,0.35-3.08,1.58-3.8,1.48c-0.86,0.81-2.56,2.21-2.11,3.58c-0.61,0.29-0.81,0.16-1.05,0.84c-0.28-0.14-0.56-0.28-0.84-0.42    c-0.49,0.02-0.98,0.04-1.47,0.06c-0.43,0.3-3.79-0.28-4.22-0.69c-0.67-0.04-1.18-0.19-1.67,0.35c-1.12,1.33-1.45,2.18-3.04,3.07    c-0.07,0.13-0.13,0.26-0.2,0.39c-0.97,0.19-2.15,0.06-2.89-0.65c-0.42,0.21-0.4,0.38-0.47-0.02c-0.09-0.56-0.16-2.51-0.2-2.51    c-1.06,0-3.62-0.06-4.19-1.05c-0.98,0.21-1.97,0.42-2.95,0.63c-0.84-0.21-1.69-0.42-2.53-0.63c-1.57-1.29-2.39-1.64-4.26-1.94    c-0.48,0.02-0.95,0.03-1.43,0.05c-0.49-0.07-0.98-0.14-1.48-0.21c-0.84-0.45-2.35-1.51-2.32-2.53c-0.86-0.45-1.71-0.91-2.57-1.36    c-0.91-0.27-1.82-0.55-2.73-0.82c-0.73-0.07-1.64,0.21-2.08-0.55c-2.08-0.13-4.14-0.22-5.69-1.69c-0.14-0.45-0.27-0.9-0.41-1.34    c-0.28-1.31-0.57-2.62-0.86-3.93c-0.11-2.53,1.15-4.44,1.63-6.8c0.2-0.97,0.27-2.79-0.75-3.32c-0.86-0.49-4.39-2.1-4.26-2.95    c-0.42-0.14-0.84-0.28-1.27-0.42c-1.76,0.11-3.22,0.61-4.78-0.32c-0.78-0.46-2.53-2.66-3.23-2.42c-0.35-0.8-0.92-2.63-0.63-3.37    c-0.8-0.69-1.49-1.03-2.11-1.9L340.96,388z"/>
            <circle cx="312.95" cy="354.62" r="1.586"/>
        </g>
    </g>
</svg>