<?xml version="1.0" encoding="UTF-8"?>
<!DOCTYPE svg PUBLIC "-//W3C//DTD SVG 1.1//EN" "http://www.w3.org/Graphics/SVG/1.1/DTD/svg11.dtd">
<svg version="1.1" id="HaritaCizim" xmlns="http://www.w3.org/2000/svg" xmlns:xlink="http://www.w3.org/1999/xlink" x="0px" y="0px" viewBox="0 0 500 440" preserveAspectRatio="none">
    <defs id="__def">
        <radialGradient id="f">
            <stop offset="0" stop-color="white" stop-opacity="1"/>
            <stop id="STOP1" offset=".4" stop-opacity="1"/>
            <stop offset="1" stop-color="white" stop-opacity=".2"/>
        </radialGradient>
        <filter id="__flt1" x="0" y="0" width="200%" height="200%" filterUnits="objectBoundingBox">
            <feGaussianBlur in="SourceAlpha" stdDeviation="3" result="blur1"/>
            <feSpecularLighting result="specOut" in="blur1" specularConstant="1.5" specularExponent="20" lighting-color="#bbbbbb">
                <feDistantLight azimuth="45" elevation="30"/>
            </feSpecularLighting>
            <feComposite in="specOut" in2="SourceAlpha" operator="in" result="specOut"/>
            <feComposite in="SourceGraphic" in2="specOut" operator="arithmetic" k1="0" k2="1" k3="1" k4="0"/>
        </filter>
        <filter id="__flt2" x="0" y="0" width="200%" height="200%" filterUnits="objectBoundingBox">
            <feGaussianBlur in="SourceAlpha" stdDeviation="3" result="blur1"/>
            <feSpecularLighting result="specOut" in="blur1" specularExponent="20" lighting-color="#bbbbbb">
                <fePointLight x="-2000" y="100" z="2000"/>
            </feSpecularLighting>
            <feComposite in="specOut" in2="SourceAlpha" operator="in" result="specOut"/>
            <feComposite in="SourceGraphic" in2="specOut" operator="arithmetic" k1="0" k2="1" k3="1" k4="0"/>
        </filter>
        <filter id="__flt3" x0="-50%" y0="-50%" width="200%" height="200%" filterUnits="objectBoundingBox">
            <feGaussianBlur in="SourceAlpha" stdDeviation="3" result="blur"/>
            <feOffset in="blur" dx="0" dy="0" result="offsetBlur"/>
            <feSpecularLighting in="blur" surfaceScale="4" specularConstant=".5" specularExponent="20" lighting-color="flavor" result="specOut">
                <fePointLight x="-5000" y="-10000" z="5000"/>
            </feSpecularLighting>
            <feComposite in="specOut" in2="SourceAlpha" operator="in" result="specOut"/>
            <feComposite in="SourceGraphic" in2="specOut" operator="arithmetic" k1="0" k2="1" k3="1" k4="0" result="litPaint"/>
            <feMerge>
                <feMergeNode in="offsetBlur"/>
                <feMergeNode in="litPaint"/>
            </feMerge>
        </filter>
        <filter id="__flt4" x0="-50%" y0="-50%" width="200%" height="200%">
            <feGaussianBlur in="SourceAlpha" stdDeviation="2" result="blur"/>
            <feOffset dy="-1" dx="-1"/>
            <feComposite in2="SourceAlpha" operator="arithmetic" k2="-1" k3="1" result="hlDiff"/>
            <feFlood flood-color="white" flood-opacity=".7"/>
            <feComposite in2="hlDiff" operator="in"/>
            <feComposite in2="SourceGraphic" operator="over" result="withGlow"/>
            <feOffset in="blur" dy="3" dx="3"/>
            <feComposite in2="SourceAlpha" operator="arithmetic" k2="-1" k3="1" result="shadowDiff"/>
            <feFlood flood-color="black" flood-opacity="1"/>
            <feComposite in2="shadowDiff" operator="in"/>
            <feComposite in2="withGlow" operator="over"/>
        </filter>
        <filter id="__golge1" x="0" y="0" width="200%" height="200%" filterUnits="userSpaceOnUse">
            <feOffset result="offOut" in="SourceAlpha" dx="8" dy="8"/>
            <feGaussianBlur result="blurOut" in="offOut" stdDeviation="3"/>
            <feBlend in="SourceGraphic" in2="blurOut" mode="normal"/>
        </filter>
    </defs>
    <g id="__Komsular" display="none">
        <radialGradient id="SVGID_1_" cx="290.0569" cy="157.7876" r="2.0476" gradientUnits="userSpaceOnUse">
            <stop offset="0" style="stop-color:#7696CD"/>
            <stop offset="1" style="stop-color:#FFFFFF"/>
        </radialGradient>
        <path fill-rule="evenodd" clip-rule="evenodd" fill="url(#SVGID_1_)" stroke="#000000" stroke-miterlimit="10" d="M291.95,156.81   c0.11,0.31,0.4,0.48,0.06,0.59c-0.33,0.21-1.53,0.26-1.29,0.81c0.14,0.29,0.73,0.91,0.63,1.2c-0.08,0.21,0.11,0.44-0.23,0.32   c-0.3-0.02-0.6-0.04-0.89-0.05c-0.7-0.28-2.12-1.43-2.19-2.19c-0.02-0.23-0.19-0.6-0.03-0.81c0.25-0.33,0.66-0.81,1.13-0.76   c0.18,0.09,0.3,0.01,0.49-0.1c0.44,0.19,0.88,0.38,1.32,0.57C291.26,156.39,291.83,156.44,291.95,156.81z"/>
        <linearGradient id="SVGID_2_" gradientUnits="userSpaceOnUse" x1="368.5027" y1="102.7764" x2="398.7092" y2="102.7764">
            <stop offset="0" style="stop-color:#FFFFFF"/>
            <stop offset="1" style="stop-color:#7696CD"/>
        </linearGradient>
        <path fill-rule="evenodd" clip-rule="evenodd" fill="url(#SVGID_2_)" stroke="#000000" stroke-miterlimit="10" d="M368.68,94.4   c0.31,0.18,0.89,0.57,1.3,0.45c0.22,0.13,0.44,0.26,0.66,0.39c0.42,0.07,1.21-0.14,1.46,0.26c0.83-0.28,0.98-0.29,1.76,0.07   c0.47,0.22,1.31-0.2,1.57,0.39c0.32-0.04,0.89,0.13,1.11-0.09c0.34,0.15,0.73,0.22,1.11,0.18c0.27-0.08,0.53-0.16,0.8-0.23   c0.39,0.3,0.69,0.64,0.96,1.07c0.16,0.3,0.32,0.6,0.48,0.9c0.21,0.22,0.42,0.45,0.63,0.67c0.29,0.2,0.47,0.21,0.55,0.55   c0.74,0.06,1.48,0.12,2.22,0.18c0.35,0.32,0.7,0.64,1.06,0.95c0.41,0.28,1.15,0.73,1.16,1.26c0.61,0.52,1.15,1.09,1.21,1.93   c0.07,0.26,0.14,0.51,0.22,0.77c0.23,0.21,0.47,0.42,0.7,0.63c-0.07,0.1-0.13,0.19-0.2,0.29c-0.06,0.12-0.12,0.24-0.17,0.36   c-0.22,0.18-0.43,0.37-0.65,0.55c-0.09,0.15-0.18,0.31-0.28,0.46c0.18,0.23,0.68,0.67,0.52,1c-0.07,0.16-0.13,0.47-0.25,0.53   c-0.4,0.23-0.79,0.45-1.19,0.68c-0.54,0.09-1.24,0.33-1.75,0.55c-0.25-0.06-0.49-0.12-0.74-0.18c-0.32,0.32-0.78,0.26-1.2,0.37   c-0.34-0.1-0.69-0.2-1.03-0.29c-0.45,0.01-1.96,0.43-2.21,0.21c-0.47-0.4-1.52-1.67-2.21-1.39c-0.35-0.18-0.89-0.54-1.29-0.46   c-0.54-0.32-0.77-0.53-1.46-0.53c-0.31-0.32-1.81-0.67-2.05-0.3c-0.44-0.11-1.52-0.35-1.82,0.1c-0.07,0.11-0.29,0.37-0.26,0.42   c0.17,0.22,0.34,0.45,0.51,0.67c-0.16,0.48-0.14,1.19,0.05,1.63c-0.12,0.27-0.01,0.47-0.24,0.68c0.01,0.02,0.03,0.04,0.04,0.06   c0.3,0.37,0.9,0.94,1.35,0.97c0.65,0.04,0.93-0.11,1.56-0.29c0.61-0.08,1.23-0.15,1.84-0.23c0.14-0.02,1.07-0.22,1,0.04   c-0.04,0.27-0.08,0.55-0.13,0.82c0.18,0.38,0.55,1.02,0.9,1.15c0.25,0.09,1.3,0.2,1.38-0.07c0.09-0.21-0.03-0.2,0.27-0.24   c-0.15-0.24-0.35-0.41-0.25-0.71c-0.07-0.04-0.14-0.08-0.21-0.12c0.03,0,0.06,0,0.09-0.01c0.06-0.01,0.12-0.01,0.18-0.02   c0.19-0.03,0.5-0.08,0.66,0.02c0.32-0.25,0.64-0.49,0.96-0.74c0.33-0.06,0.66-0.13,0.98-0.19c0.19,0.11,0.39,0.15,0.46,0.37   c0.47-0.03,1.96,0.05,2.22,0.37c0.25-0.09,0.49-0.18,0.74-0.28c0.67-0.44,1.46-0.6,2.18-0.92c0.22-0.1,0.57-0.1,0.69-0.29   c0.03,0.06,0.06,0.13,0.08,0.19c0.08,0.19,0.21,0.22,0.16,0.43c-0.08,0.1-0.16,0.2-0.24,0.3c-0.09,0.62-0.47,1.28-1.11,1.34   c-0.06,0.05-0.12,0.09-0.18,0.14c-0.3-0.16-0.58-0.33-0.94-0.32c-0.02-0.07-0.05-0.14-0.07-0.2c0.15,0.57,0,1.27-0.51,1.56   c-0.25,0.13-0.7,0.17-0.79,0.44c-0.48-0.13-1.04-0.17-1.44,0.16c-0.11-0.06-0.13-0.11-0.12,0.02c0.02,0.37,0.14,0.54,0.35,0.86   c1.02,0.33,2.26,1.99,3.53,1.21c0.6-0.35,1.05-0.82,1.37-1.44c0.09-0.14,0.18-0.28,0.27-0.41c-0.09-0.28-0.3-1.06-0.54-1.14   c0.07-0.12,0.15-0.23,0.22-0.35c0.59-0.72,1.44-1.46,1.44-2.42c0.1-0.16,0.43-0.55,0.33-0.71c-0.18-0.27-0.69-1.23-0.98-1.23   c0.06-0.08,0.13-0.17,0.19-0.25c0.13-0.16,0.06-0.21,0.29-0.26c0.09-0.05,0.18-0.09,0.27-0.14c0.29,0.01,0.5,0.09,0.74-0.09   c0.22,0.15,0.38,0.28,0.65,0.28c0.34,0.25,0.68,0.49,1.02,0.74c0.34,0.43,0.67,0.86,1.01,1.29c0.55,0.43,1.11,0.86,1.66,1.29   c0.36,0.05,0.58,0.1,0.92,0.18c0.52,0.28,1.05,0.55,1.57,0.83c0.18,0,0.36-0.01,0.54-0.01c0.26-0.07,0.52-0.14,0.78-0.21   c0.23-0.48,0.46-0.95,0.69-1.43c0.35,0.04,0.74-0.14,0.95,0.18c0-0.04,0-0.08,0-0.12c-0.06-0.12-0.12-0.25-0.18-0.37   c-0.25-0.05-0.5-0.09-0.76-0.14c-0.09-0.21-0.02-0.24-0.15-0.16c-0.32,0.26-0.63,0.53-0.95,0.79c-0.22-0.09-0.44-0.18-0.65-0.27   c-0.29-0.06-0.68-0.22-0.92-0.01c-0.25-0.13-0.86-0.29-0.83-0.65c-0.15-0.09-0.31-0.18-0.46-0.28c-0.22-0.24-0.55-0.22-0.65-0.55   c-0.4-0.16-0.93-0.69-1.39-0.55c-0.19-0.18-0.37-0.35-0.56-0.53c-0.52-0.32-1.04-0.63-1.56-0.95c-0.6-0.1-1.21-0.2-1.81-0.3   c-0.3-0.24-0.41-0.52-0.15-0.72c0.29-0.22,0.78-0.36,0.75-0.82c-0.03-0.34-0.3-1.73-0.55-1.86c0.02-0.17,0.06-0.72,0.08-0.75   c0.65-0.77,0.87-0.92,1.86-0.92c0.24-0.24,0.7-0.69,0.74-1.02c0.22,0.03,0.43,0.06,0.65,0.09c0.22-0.06,0.43-0.12,0.65-0.18   c0.29-0.26,1.6-1.14,1.94-0.92c-0.05-0.04-0.09-0.09-0.14-0.13c-0.59-0.52-1.52-0.07-1.9-0.42c-0.44,0.24-0.88,0.49-1.32,0.73   c-0.43,0.08-0.79,0.15-1.19,0.37c-0.21,0.19-0.42,0.38-0.63,0.57c-0.43,0.08-1.05,0.26-1.27,0.08c-0.77-0.58-0.74-0.94-1.22-1.65   c-0.22-0.32-0.81-0.54-0.83-0.92c-0.27-0.06-0.68-0.11-0.83-0.37c-0.25-0.03-0.49-0.06-0.74-0.09c-0.34,0.14-0.65,0.24-1.02,0.18   c0-0.13,0.03-0.09-0.12-0.11c-1.16-0.14-1.61-0.47-1.96-1.64c-0.07-0.16-0.15-0.33-0.22-0.49c-0.23-0.08-0.2,0-0.19-0.16   c0.02-0.38,0.17-1.66,0.33-1.9c0.31-0.43,1.26-1.16,1.7-1.41c0.25-0.15,0.45-0.41,0.74-0.38c-0.02-0.02-0.04-0.03-0.06-0.05   c-0.21-0.19-0.91-1.19-0.87-1.33c-0.09,0.22-0.22,1.03-0.29,1.08c-0.81,0.45-1.71-0.25-2.57,0.22c-0.36,0.19-0.79,0.65-1.11,0.55   c-0.37,0.52-0.74,1.05-1.11,1.57c-0.44,0.16-1.74,0.34-1.94,0.74c-0.28,0.03-0.55,0.09-0.65,0.37c-0.52-0.1-1.05-0.2-1.57-0.3   c-0.46-0.05-1.29,0.13-1.57-0.35c-0.29-0.11-0.47-0.07-0.63-0.35c-0.08-0.14-0.28-0.35-0.27-0.38c0.09-0.22,0.14-0.44,0.34-0.56   c0.12-0.63,0.24-1.27,0.36-1.9c-0.23-0.38-0.45-0.88-0.33-1.32c0.05-0.23-0.12-0.24-0.3-0.29c0.03,0.1,0.07,0.2,0.1,0.29   c0.01,0.25,0.04,0.31,0.17,0.54c0,0.25-0.22,0.57,0,0.83c-0.1,0.31-0.28,0.76-0.09,1.02c-0.29,0.31-1.3,1.62-1.11,1.94   c-0.35,0.14-0.69,0.38-1.02,0.28C368.56,94.33,368.62,94.37,368.68,94.4z"/>
        <radialGradient id="SVGID_3_" cx="358.3885" cy="94.979" r="5.856" gradientTransform="matrix(0.9106 -0.4132 0.2066 0.4553 12.4057 199.8288)" gradientUnits="userSpaceOnUse">
            <stop offset="0" style="stop-color:#7696CD"/>
            <stop offset="1" style="stop-color:#FFFFFF"/>
        </radialGradient>
        <path fill-rule="evenodd" clip-rule="evenodd" fill="url(#SVGID_3_)" stroke="#000000" stroke-miterlimit="10" d="M363.15,94.02   c-0.01-0.04-0.02-0.07-0.02-0.11c-0.01-0.01-0.02-0.02-0.03-0.03c-0.32-0.34-1.09-0.05-1.62-0.04c-0.19,0.01-0.41,0.03-0.55-0.1   c-0.31,0.15-0.62,0.31-0.92,0.46c-0.43,0-0.81,0.04-1.21,0.22c-0.52,0.39-1.04,0.78-1.56,1.17c-0.22,0.22-0.43,0.43-0.65,0.65   c0.04,0.34-0.34,0.61-0.55,0.83c-0.25,0.05-0.5,0.11-0.74,0.16c-0.21-0.12-0.43-0.23-0.64-0.35c-0.46,0-0.62,0.1-1.03-0.14   c-0.03-0.01-0.05-0.02-0.08-0.05c0.03,0.02,0.05,0.03,0.08,0.05c0.24,0.08,0.58-0.37,0.76-0.51c1.12,0.21,1.99-0.76,2.77-1.39   c-0.01-0.28,0.61-0.92,0.18-0.92c0.4-0.12,0.8-0.25,1.2-0.37c0.25-0.22,0.49-0.43,0.74-0.65c0.59,0.27,0.81,0.13,1.29-0.18   c0.62,0.12,1.24,0.24,1.86,0.36c0.52,0.07,0.62,0.41,0.71,0.83c0.04,0.04,0.08,0.07,0.12,0.11   C363.21,94.02,363.18,94.02,363.15,94.02z"/>
        <path fill-rule="evenodd" clip-rule="evenodd" fill="none" stroke="#000000" stroke-miterlimit="10" d="M447.63,124.07   c0.94,0.09,1.82-0.36,2.77-0.14c1.03,0.24,1.45,0.96,2.36,1.4c0.87,0.42,1.74,0.45,2.64,0.97c0.77,0.45,1.34,1.11,2.04,1.66   c1.38,1.07,3.15,2.59,5.02,2.63c2.34,0.05,2.54-1.9,4.13-2.93c0.4-2.6,5.2,1.16,6.36,1.86c1.95,1.18,3.67,2.74,5.44,4.14   c0.47,0.37,0.86,0.8,1.37,1.05c0.64,0.31,1.07,0.22,1.68,0.44c1.15,0.42,2.02,1.33,3.05,1.95c0.97,0.57,2.02,1.29,3.18,1.49   c1.13,0.19,2.35-0.17,3.47,0.02c1.93,0.33,3.86,2.52,5.23,3.89c0.83,0.84,1.49,1.9,2.09,2.9c0.49,0.82,1.41,1.92,1.55,2.92"/>
        <path fill-rule="evenodd" clip-rule="evenodd" fill="none" stroke="#000000" stroke-miterlimit="10" d="M349.27,47.46   c-1.59-3.26,2.54-6.67,3.46-9.43c0.64-1.93,0.06-3.1-1.41-4.4c-1-0.88-3.52-1.88-3.16-3.63"/>
        <path fill-rule="evenodd" clip-rule="evenodd" fill="none" stroke="#000000" stroke-miterlimit="10" d="M289.14,68.93   c-0.18-1.02,0.59-1.98,0.83-2.91c0.26-1.02,0.28-2.17,0.39-3.22c0.23-2.22,0.28-4.08,1.18-6.03c1.35-2.92,3.06-9.92,0-12.4   c-1.41-1.14-3.61-2.5-5.3-3.02c-2.39-0.73-4.67-0.33-7.15-0.72c-4.72-0.74-9.39-2.08-14.33-2.32c-2.45-0.12-5.3,0.56-7.62-0.14"/>
        <path fill-rule="evenodd" clip-rule="evenodd" fill="none" stroke="#000000" stroke-miterlimit="10" d="M76.89,153.03   c-1.85-1.66-0.73-4.15-1.66-6.1c-0.83-1.74-2.49-3.46-3.71-5c-1.65-2.06-2.49-3.11-2.52-5.95c-0.03-2.4-0.26-4.28-1.08-6.4   c-0.86-2.24,0.07-3.78,0.9-5.82c0.41-1,0.93-1.88,0.87-3.01c-0.08-1.53-1.15-1.75-2.47-2.1c-3.27-0.89-6.44-1.66-10.03-1.33   c-2.49,0.23-4.95,0.68-7.45,0.94c-1.49,0.16-2.93,0.32-4.48,0.28c-1.45-0.04-3.54-0.86-4.71-0.45c-0.46,0.16-1.02,0.76-1.48,1.03   c-1.07,0.63-1.92,1.29-2.88,2.09c-1.57,1.3-1.46,0.7-3.33,0.36c-0.94-2.55-4.71-5-7.37-4.97c-2.9,0.03-5.22,2.8-7.2,4.43"/>
        <path fill-rule="evenodd" clip-rule="evenodd" fill="none" stroke="#000000" stroke-miterlimit="10" d="M53.2,258.46   c-0.57,1.16-1.9,0.9-2.91,1.41c-0.96,0.48-1.89,1.39-2.76,2.08c-1.65,1.3-3.7,2.43-5.38,3.85c-1.61,1.37-2.74,2.85-4.16,4.33   c-1.41,1.46-3.41,2.42-5.05,3.81c-3.13,2.65-7.69,4.7-12.01,4.75c-2.58,0.03-4.91-0.46-7.37-0.66c-2.56-0.21-4.51,1.08-6.45,2.35   c-1.08,0.71-2.3,1.35-3.46,2.08c-1.29,0.82-2.26,2.39-3.64,3.02"/>
        <path fill-rule="evenodd" clip-rule="evenodd" fill="none" stroke="#000000" stroke-miterlimit="10" d="M179.55,391.04   c-4.82,0.02-7.84,2.93-10.25,6.65c-0.92,1.43-0.78,1.32-0.17,2.78c0.4,0.96,0.78,2.03,1,3.04c0.48,2.2,1.08,4.6,0.83,6.93   c-0.24,2.21-1.95,3.8-2.36,5.96c-0.41,2.14,0.4,4.48,0,6.65c-0.44,2.38-1.93,4.11-3.74,5.58c-1.68,1.36-3.51,3.83-5.54,4.65   c-0.94,0.38-2.32,0.17-3.33,0.43c-1.05,0.28-1.96,0.75-3.05,0.98c-2.35,0.49-3.99-0.21-6.23-0.55c-2.26-0.34-4.6-0.54-6.55,0.66   c-2.02,1.24-3.87,1.83-6.2,2.67c-1.03,0.37-2.06,0.6-3.06,0.96c-0.93,0.34-1.6,1.16-2.46,1.42c-0.16,0.39-0.41,0.42-0.72,0.67"/>
        <path fill-rule="evenodd" clip-rule="evenodd" fill="none" stroke="#000000" stroke-miterlimit="10" d="M252.15,386.89   c0,2.03-0.27,2.39-1.7,3.6c-1.04,0.88-1.86,2.03-2.87,2.89c-1.52,1.3-6.52,3.69-4.14,5.82c1.78,0.49,3.97,2.52,5.24,3.73   c1.75,1.67,3.49,2.59,5.83,2.93c2.09,0.31,4.24,1.53,6.06,2.53c1.98,1.08,4,1.35,6,2.5c2.25,1.29,4.67,1.67,6.92,2.91   c2.01,1.12,3.22,2.88,5.12,4.15c2,1.34,4.01,2.15,5.82,3.68c1.98,1.67,4.3,1.3,5.99,3.22c1.18,1.34,2.41,2.42,3.57,3.74"/>
        <path fill-rule="evenodd" clip-rule="evenodd" fill="none" stroke="#000000" stroke-miterlimit="10" d="M387.5,284.92   c1.76,1.22,3.21,2.84,4.95,4.19c2.23,1.73,3.67,2.23,6.41,1.35c3.7-1.18,8.36-4.16,12.47-3.47c2.3,0.39,3.23,2.74,5.25,3.48   c0.98,0.36,2.19,0.25,3.19,0.57c1.1,0.35,1.93,1,2.77,1.63c0.92,0.68,1.7,1.26,2.91,1.54c1.53,0.35,1.78,0.06,2.66,1.38   c1.33,2,3.22,2.75,4.86,4.26c0.72,0.66,1.06,1.6,1.62,2.39c0.65,0.91,1.7,1.6,2.22,2.49"/>
        <text transform="matrix(0.5217 0.8531 -0.8531 0.5217 405.1033 71.9482)" font-family="'MyriadPro-Regular'" font-size="12">GİRESUN</text>
        <text transform="matrix(0.1807 -0.9835 0.9835 0.1807 440.0258 226.4202)" font-family="'MyriadPro-Regular'" font-size="12">ERZİNCAN</text>
        <text transform="matrix(0.5858 -0.8105 0.8105 0.5858 332.05 362.6597)" font-family="'MyriadPro-Regular'" font-size="12">MALATYA</text>
        <text transform="matrix(1 0 0 1 188.1113 419.7493)" font-family="'MyriadPro-Regular'" font-size="12">KAHRAMANMARAŞ</text>
        <text transform="matrix(0.7492 0.6623 -0.6623 0.7492 91.1499 343.4556)" font-family="'MyriadPro-Regular'" font-size="12">KAYSERİ</text>
        <text transform="matrix(0.3154 -0.949 0.949 0.3154 35.0273 208.5425)" font-family="'MyriadPro-Regular'" font-size="12">YOZGAT</text>
        <text transform="matrix(0.8529 -0.522 0.522 0.8529 158.6586 77.231)" font-family="'MyriadPro-Regular'" font-size="12">TOKAT</text>
        <text transform="matrix(1 0 0 1 308.3723 46.1274)" font-family="'MyriadPro-Regular'" font-size="12">ORDU</text>
    </g>
    <g id="__Harita" fill="white" stroke="#000000" stroke-width="1" stroke-miterlimit="10" display="none">
        <rect id="__cer" x="0" y="0" fill="#000000" opacity="0" width="500" height="440"/>
        <g id="__Gürün">
            <path d="M252.22,386.6    c-0.04-0.46,0.82-1.92,1.1-2.36c0.68-1.1,1.11-2.22,1.94-3.23c1.29-0.49,2.59-0.99,3.88-1.48c0.36-0.2,0.71-0.4,1.07-0.6    c0.2-0.2,0.39-0.4,0.59-0.6c0.48-0.79,0.85-1.51,1.14-2.38c0.11-0.5,0.23-1,0.34-1.5c-0.16-1.01-0.17-2.22,0-3.23    c0.2-0.61,0.4-1.22,0.6-1.83c0.09-0.22,0.26-0.44,0.14-0.66c0.5-0.65,1-1.3,1.5-1.95c0.27-0.2,0.71-0.4,0.81-0.73    c0.39-0.2,0.94-0.39,1.11-0.83c0.7-0.12,1.35-0.12,1.79-0.78c0.94-1.39,1.56-2.97,2.74-4.21c0-0.85,0.61-1.8,1.11-2.49    c0.15-0.37,0.31-0.74,0.46-1.11c0.34-0.53,0.67-1.05,1.01-1.58c0.49-0.51,0.99-1.02,1.48-1.53c0.22-0.17,0.44-0.33,0.66-0.5    c1.28-0.55,2.62-0.88,3.98-1.19c0.3-0.07,1.29-0.46,1.47-0.38c0.22-0.25,0.43-0.49,0.65-0.74c0.18-0.25,0.37-0.49,0.55-0.74    c0.71-1.16,0.66-4.3,0.37-5.63c-0.14-0.47-0.29-0.93-0.43-1.4c-0.13-0.37-0.27-0.73-0.4-1.1c-0.08-0.27,0.09-0.62-0.09-0.83    c0.46-0.77,0.92-1.54,1.39-2.31c0.28-0.89,0.55-1.79,0.83-2.68c-0.1-0.61-0.2-1.23-0.29-1.84c-0.13-0.43-0.25-0.86-0.38-1.29    c-0.36-0.87-0.72-1.74-1.08-2.6c-0.22-0.53-0.65-2.13-0.38-2.67c-0.51-0.84-1.12-1.51-1.74-2.32c-0.25-0.34-0.5-0.67-0.75-1.01    c-0.28-0.52-0.55-1.05-0.83-1.57c0.04-1.27,0.37-2.64,0-3.88c-0.06-0.37-0.12-0.74-0.18-1.11c-0.16-0.31-0.34-0.84-0.18-1.11    c-0.06-0.03-0.13-0.05-0.19-0.08c-0.32-0.13-1.72-0.4-1.84-0.57c-1.11,0.2-2.19,0.11-3.32-0.05c-0.43-0.06-1.8-0.48-2.13-0.31    c-0.4-0.13-1.29-0.28-1.48-0.65c-0.92-0.08-1.82-0.37-2.68-0.74c-0.28-0.12-0.62-0.59-0.92-0.55c-0.47-0.52-0.8-1.07-1.35-1.5    c-0.32-0.24-0.64-0.48-0.96-0.71c-0.25-0.12-0.49-0.25-0.74-0.37c-0.97-0.22-1.88-0.53-2.87-0.67c-0.87-0.13-1.74-0.06-2.58-0.34    c-0.66-0.22-1.24-0.92-1.54-1.47c-0.13-0.25-0.27-0.5-0.4-0.74c-0.11-0.42-0.21-0.83-0.32-1.25c-0.14-0.39-0.66-0.97-0.61-1.34    c-0.41-0.42-0.83-0.83-1.24-1.25c-0.23-0.29-0.45-0.58-0.68-0.87c-0.66-0.69-1.4-1.12-2.23-1.61c-0.33-0.2-0.92-0.38-1.12-0.71    c-0.58-0.18-1.17-0.37-1.75-0.55c-0.49,0-0.99,0-1.48,0c-0.87,0.76-1.74,1.51-2.62,2.27c-0.39,0.26-0.78,0.52-1.17,0.78    c-0.12,0.37-0.25,0.74-0.37,1.11c-0.22,0.46-0.43,0.92-0.65,1.38c-0.09,0.31-0.18,0.62-0.27,0.93c-0.19,0.27-0.34,0.7-0.65,0.83    c-0.4,0.9-0.84,1.77-1.36,2.61c-0.25,0.42-0.51,0.85-0.76,1.27c-0.55,0.77-1.11,1.54-1.66,2.31c-0.15,0.29-0.3,0.57-0.45,0.86    c-0.51,0.5-1.02,1-1.53,1.5c-0.63,0.97-1.82,1.64-2.92,2.06c-0.23,0.09-0.49,0.08-0.64,0.29c-1.08,0.18-2.16,0.37-3.23,0.55    c-0.86,0.11-1.59,0.52-2.49,0.49c-0.77-0.06-1.54-0.13-2.3-0.19c-0.27-0.04-0.73-0.27-0.93-0.11c-0.53-0.39-2.06-1.17-2.69-1.07    c-0.23,0.03-0.46,0.07-0.68,0.1c-0.26,0.25-0.93,0.88-0.86,1.24c0.15,0.62,0.3,1.24,0.44,1.85c0.09,0.16,0.18,0.32,0.26,0.47    c0.21,0.4,0.36,0.74,0.4,1.19c0.03,0.35,0.25,0.9,0.04,1.16c-0.23,0.25-0.47,0.5-0.7,0.75c0,0.28-0.14,0.35-0.36,0.5    c-0.71,0.47-1.69,0.74-2.59,0.59c-0.37-0.04-0.74-0.09-1.11-0.13c-1.01-0.64-1.9-1.56-2.75-2.43c-0.26-0.23-0.53-0.46-0.79-0.69    c-0.54-0.44-1.09-0.88-1.63-1.32c-0.71-0.75-1.45-1.42-2.4-1.85c-0.94-0.43-1.92-0.6-2.8-1.15c-0.17-0.11-0.71-0.54-0.91-0.4    c-1.03,1.07-1.7,2.39-2.92,3.41c-1.18,0.86-2.35,1.72-3.53,2.58c-0.37,0.22-0.74,0.43-1.11,0.65c-0.52,0.43-1.05,0.86-1.57,1.29    c-0.57,0.59-0.65,1.55-0.74,2.31c-0.24,1.32-0.48,2.65-0.71,3.97c-0.08,0.56-0.53,1.02-0.58,1.48c-0.71,0.37-1.42,0.74-2.12,1.11    c-0.36,0.18-0.97,0.23-1.2,0.55c-0.4,0-0.92,0.23-1.29,0.46c-1.13,0.57-2.26,1.14-3.39,1.7c-0.34,0.23-0.63,0.5-0.86,0.84    c-0.12,0.2-0.25,0.4-0.37,0.59c-0.22,0.96-0.42,1.83-0.74,2.76c-0.1,0.28-0.19,0.56-0.29,0.85c-0.33,0.71-0.66,1.42-0.99,2.13    c-0.28,0.97-0.55,1.94-0.83,2.91c-0.45,0.99-0.9,1.99-1.35,2.98c-0.66,1.77-1.06,3.72-1.46,5.56c-0.36,1.63-0.72,3.19-1.24,4.78    c-0.11,0.32-0.23,1.33-0.49,1.49c0.23,1.23,0.45,2.46,0.68,3.69c0.18,0.74,0.35,1.48,0.53,2.23c0.15,0.28,0.29,0.56,0.44,0.84    c0.37,0.67,0.79,1.26,0.89,2.02c0.31,2.2-0.29,4.43-0.32,6.65c-0.03,2.23,0.4,4.44,0.64,6.65c0.15,1.33,0.09,2.76,0.59,4.04    c0.2,0.5,0.67,0.78,0.91,1.22c0.18,0.33,0.56,1.23,0.8,1.11c0.28-0.18,0.56-0.37,0.84-0.55c0.67,0.16,1.22-0.21,1.81-0.57    c0.31,0.03,0.7-0.29,0.96-0.45c0.28-0.1,0.56-0.21,0.84-0.31c0.46-0.26,0.92-0.52,1.38-0.78c0.37-0.13,0.74-0.26,1.1-0.38    c0.33-0.05,0.67-0.1,1-0.14c0.71-0.38,1.43-0.77,2.14-1.15c0.62-0.25,1.23-0.49,1.85-0.74c1.6-0.23,3.2-0.45,4.8-0.68    c0.37-0.04,1.58-0.1,1.76-0.34c2,0.27,4.03-0.2,6.01-0.52c2.05-0.31,4.11-0.62,6.16-0.93c0.68-0.23,1.36-0.46,2.04-0.7    c0.24-0.1,0.61-0.36,0.84-0.26c0.8-0.61,1.26-0.71,2.22-0.92c0.37,0,0.74,0,1.11,0c0.99,0,1.82,0,2.77,0.09    c2.43,0.12,4.86,0.25,7.3,0.37c1.66,0.2,3.32,0.4,4.98,0.6c2.55,0.3,5.09,0.56,7.67,0.97c1.91,0.4,3.82,0.8,5.73,1.2    c0.59,0.04,1.17,0.08,1.76,0.12c1.49,0.13,2.18,0.44,3.5,1.13C250.95,386.16,251.74,386.78,252.22,386.6z"/>
            <circle cx="246.3" cy="358.6" r="1.586"/>
        </g>
        <g id="__Kangal">
            <path d="M277.98,316.54    c-0.32-0.13-1.72-0.4-1.84-0.57c-1.11,0.2-2.19,0.11-3.32-0.05c-0.43-0.06-1.8-0.48-2.13-0.31c-0.4-0.13-1.29-0.28-1.48-0.65    c-0.92-0.08-1.82-0.37-2.68-0.74c-0.28-0.12-0.62-0.59-0.92-0.55c-0.47-0.52-0.8-1.07-1.35-1.5c-0.32-0.24-0.64-0.48-0.96-0.71    c-0.25-0.12-0.49-0.25-0.74-0.37c-0.97-0.22-1.88-0.53-2.87-0.67c-0.87-0.13-1.74-0.06-2.58-0.34c-0.66-0.22-1.24-0.92-1.54-1.47    c-0.13-0.25-0.27-0.5-0.4-0.74c-0.11-0.42-0.21-0.83-0.32-1.25c-0.14-0.39-0.66-0.97-0.61-1.34c-0.41-0.42-0.83-0.83-1.24-1.25    c-0.23-0.29-0.45-0.58-0.68-0.87c-0.66-0.69-1.4-1.12-2.23-1.61c-0.33-0.2-0.92-0.38-1.12-0.71c-0.58-0.18-1.17-0.37-1.75-0.55    c-0.49,0-0.99,0-1.48,0c-0.87,0.76-1.74,1.51-2.62,2.27c-0.39,0.26-0.78,0.52-1.17,0.78c-0.12,0.37-0.25,0.74-0.37,1.11    c-0.22,0.46-0.43,0.92-0.65,1.38c-0.09,0.31-0.18,0.62-0.27,0.93c-0.19,0.27-0.34,0.7-0.65,0.83c-0.4,0.9-0.84,1.77-1.36,2.61    c-0.25,0.42-0.51,0.85-0.76,1.27c-0.55,0.77-1.11,1.54-1.66,2.31c-0.15,0.29-0.3,0.57-0.45,0.86c-0.51,0.5-1.02,1-1.53,1.5    c-0.63,0.97-1.82,1.64-2.92,2.06c-0.23,0.09-0.49,0.08-0.64,0.29c-1.08,0.18-2.16,0.37-3.23,0.55c-0.86,0.11-1.59,0.52-2.49,0.49    c-0.77-0.06-1.54-0.13-2.3-0.19c-0.27-0.04-0.73-0.27-0.93-0.11c-0.53-0.39-2.06-1.17-2.69-1.07c-0.23,0.03-0.46,0.07-0.68,0.1    c-0.26,0.25-0.93,0.88-0.86,1.24c0.15,0.62,0.3,1.24,0.44,1.85c0.09,0.16,0.18,0.32,0.26,0.47c0.21,0.4,0.36,0.74,0.4,1.19    c0.03,0.35,0.25,0.9,0.04,1.16c-0.23,0.25-0.47,0.5-0.7,0.75c0,0.28-0.14,0.35-0.36,0.5c-0.71,0.47-1.69,0.74-2.59,0.59    c-0.37-0.04-0.74-0.09-1.11-0.13c-1.01-0.64-1.9-1.56-2.75-2.43c-0.26-0.23-0.53-0.46-0.79-0.69c-0.54-0.44-1.09-0.88-1.63-1.32    c-0.71-0.75-1.45-1.42-2.4-1.85c-0.94-0.43-1.92-0.6-2.8-1.15c-0.17-0.11-0.71-0.54-0.91-0.4l0.02-0.04    c-0.02,0.18,0.32-0.62,0.55-0.99c0.16-0.35,0.21-0.29,0.37-0.83c0.29-0.95,0.45-2.08,0.35-3.07c0.12-0.39,0.07-0.67,0.07-1.15    c-0.49-1.04-1.3-2.38-1.79-3.41c-0.25-0.53-0.5-1.06-0.75-1.6c-0.29-0.26-0.59-0.53-0.88-0.79c-0.86-0.84-1.4-1.92-2.05-2.92    c-0.44-0.67-0.88-1.29-1.37-1.9c-0.33-0.42-0.69-0.82-1.06-1.23c-0.28-0.31-0.55-0.62-0.83-0.92c-0.89-0.58-1.79-1.17-2.68-1.75    c-0.28-0.12-0.55-0.25-0.83-0.37c-0.51-0.36-1.02-0.72-1.52-1.08c-0.13-0.16-0.26-0.31-0.39-0.46c0.1-0.39,0.2-0.79,0.3-1.18    c0.38-0.75,0.77-1.5,1.15-2.26c0.12-0.4,0.23-0.81,0.35-1.21c0.32-0.97,0.32-1.96,0.57-2.95c0.24-0.32,0.48-0.64,0.72-0.96    c0.84-1.19,1.67-2.38,2.51-3.57c0.24-0.6,0.48-1.2,0.71-1.8c0.13-0.32,0.26-0.65,0.4-0.97c0.22-0.26,0.43-0.52,0.65-0.78    c0.71-1.09,1.22-2.21,2.13-3.18c0.54-0.61,2.47,0.02,3.13,0.45c0.25-0.29,1.1-0.09,1.48-0.18c0.86-0.12,1.71-0.23,2.57-0.35    c1.08-0.28,2.16-0.57,3.25-0.85c2.19-0.41,4.23-0.83,6.19-1.94c0.71-0.41,1.15-1.05,1.68-1.65c0.73-0.77,1.47-1.55,2.2-2.32    c0.28-0.62,0.55-1.23,0.83-1.85c0.01-0.12,0.02-0.24,0.03-0.36c0.39-0.67,0.78-1.34,1.17-2.01c0.72-0.98,1.44-1.96,2.16-2.95    c0.49-0.55,1.31-0.95,1.46-1.7c0.23-1.13,1.32-1.44,1.63-2.32c0.28-0.65,0.55-1.29,0.83-1.94c0.24,0.16,0.69-0.19,1.02-0.28    c-0.03-0.37-0.11-0.68-0.28-1.02c0.07-0.04,0.15-0.08,0.22-0.12c0.03-0.58,0.27-1.08,0.43-1.64c0.23-0.09,0.35-0.51,0.46-0.74    c0.27,0.08,0.63-0.37,0.83-0.55c0.22-0.06,0.43-0.12,0.65-0.18c0.12-0.34,0.52-0.03,0.65-0.37c0.4,0.03,0.44,0.16,0.83,0.18    c0.19,0.03,0.49,0.01,0.48-0.1c0.19,0.27,0.7,0.09,0.99,0.09c0.9,0,1.69,0.13,2.5,0.38c0.06-0.28,0.12-0.55,0.18-0.83    c0.34-0.03,0.41-0.23,0.65-0.46c0.39,0.17,1.07-0.38,1.4-0.54c0.27-0.13,0.68-0.44,0.97-0.32c0.72-0.42,1.44-0.84,2.16-1.26    c0.29,0.25,1-0.23,1.28-0.35c1.2-0.5,2.31-0.82,3.62-0.95c0.46,0.04,0.92,0.08,1.38,0.13c0.51,0.04,1.11,0.27,1.58,0.52    c0.41,0.22,0.74,0.59,1.06,0.98c0.57,0.7,1.1,1.46,1.99,1.59c0.74,0.07,0.67-1.83,0.73-2.29c-0.08-0.4-0.16-0.8-0.24-1.2    c-0.07-0.37-0.15-0.74-0.22-1.11c0.11-0.54-0.01-1.14,0.22-1.66c0.3-0.34,0.56-0.69,0.78-1.05c0.21-0.34,0.37-0.7,0.48-1.07    c0.19-0.18,0.37-0.37,0.56-0.55c0.48-0.54,1.3-0.62,1.97-0.56c0.39-0.08,0.77-0.02,1.15,0.06c0.34,0.11,0.69,0.01,1.04,0.27    c0.64,0.27,1.29,0.42,1.93,0.57c0.48,0.08-0.17-0.06,1.95,0.3c0.16,0,0.32,0,0.48,0c0.28,0,0.58-0.64,0.66-0.87    c0.19-0.53,0.31-0.9,0.45-1.22c0.21-0.46,0.47-0.82,1.11-1.4c0.2-0.18,0.39-0.37,0.59-0.56c0.29-0.28,0.57-0.57,0.85-0.86    c0.1-0.1,0.19-0.21,0.29-0.31c0.14-0.15,0.28-0.3,0.41-0.46c0.13-0.15,0.26-0.3,0.39-0.45c0.09-0.11,0.18-0.22,0.27-0.33    c0.17-0.2,0.33-0.41,0.5-0.62c0.25-0.32,0.49-0.65,0.73-0.98c0.24-0.34,0.48-0.69,0.7-1.04c0.3-0.47,0.56-0.97,0.79-1.47    c0.29-0.63,0.55-1.27,0.82-1.92c0.31-0.43,0.62-0.86,0.94-1.29c0.4-0.34,0.79-0.68,1.19-1.02c0.09-0.12,0.18-0.25,0.28-0.37    c0.37,0,0.74,0,1.11,0c0.34-0.09,0.67-0.18,1.01-0.27c0.14,0.22,0.39,0.15,0.64,0.2c0.59,0,1.18-0.01,1.77-0.01    c0.02,0.25,0.51,0.41,0.74,0.55c0.31,0.31,0.62,0.62,0.92,0.92c0.26-0.04,0.52,0.14,0.76,0.24c0.77,0.3,1.55,0.56,2.34,0.8    c0.71,0.21,1.43,0.41,2.16,0.62c0.52,0.15,1.05,0.31,1.57,0.46c0.65,0.31,1.29,0.62,1.94,0.92c0.46,0.46,0.92,0.92,1.39,1.39    c0.16,0.26,0.33,0.53,0.49,0.79c0.48,0.78,0.74,1.13,1.38,1.81c0.48,0.77,0.97,1.53,1.45,2.3c0.44,0.39,0.84,0.79,1.22,1.21    c0.41,0.45,0.79,0.91,1.17,1.41c0.25,0.3,0.5,0.59,0.74,0.89c0.43,0.62,0.86,1.23,1.29,1.85c0.31,0.25,0.62,0.49,0.92,0.74    c0.31,0.12,0.62,0.25,0.92,0.37c0.77,0.12,1.54,0.25,2.31,0.37c1.17,0.26,2.34,0.53,3.51,0.79c0.09,0.01,0.18,0.03,0.28,0.04    c-0.04,0.06-0.07,0.12-0.11,0.18c0.41,0.41,0.34,0.95,0.36,1.47c0.01,0.16,0.02,0.31,0.03,0.47c-0.29,0.02-0.44,0.55-0.55,0.83    c-0.42,0.81-0.84,1.61-1.26,2.42c-0.22,0.54,0.24,1.79,0.26,2.42c-0.02,0.63-0.05,1.27-0.07,1.9c0.06,0.97,0.06,2.25,0.43,3.15    c-0.19,0.16-0.08,0.42-0.07,0.65c-0.07,0.46-0.14,0.92-0.21,1.38c0.02,0.06,0.04,0.13,0.06,0.19c-0.05,0.61-0.1,1.23-0.15,1.84    c-0.18,0.62-0.37,1.23-0.55,1.85c0.17,0.12,0.2,0.29,0.29,0.48c0.15,0.28,0.56,0.44,0.83,0.6c0.84,0.5,1.81,0.73,2.75,0.9    c0.61,0.11,1.2,0.11,1.86,0.05c0.21,0.25,1.75,0.31,2.13,0.25c0.55,0,1.1,0,1.66,0c0.77,0.01,1.52,0.06,2.26,0.17    c0.54,0.08,1.08,0.18,1.62,0.33c0.04,0.31,0.36,0.42,0.55,0.65c0.48,0.56,0.89,1.11,1.45,1.6c0.59,0.37,1.19,0.75,1.78,1.12    c0.46,0.29,0.93,0.59,1.39,0.88c0.57,0.55,1.15,1.09,1.72,1.64c0.69,0.66,1.38,1.31,2.07,1.96c0.28,0.62,0.55,1.23,0.83,1.85    c0.24,0.74,0.51,1.47,0.82,2.19c0.46,1.06,0.99,2.1,1.59,3.08c0.5,0.81,1.05,1.58,1.65,2.3c0.37,1.2,0.73,2.4,1.1,3.6    c0.16,0.63,0.32,1.25,0.48,1.88c0.27,1.07,0.55,2.14,0.82,3.2c0.08,0.73,0.16,1.47,0.24,2.21c0.13,0.34,0.27,0.69,0.4,1.03    c-0.08,0.2,0.04,0.44,0.09,0.65c-0.06,0.2-0.12,0.39-0.18,0.59c-0.37,0.53-1.38,0.42-1.95,0.42c-1.86,0-3.69-0.05-5.53-0.36    c-0.98-0.16-2.07-0.39-2.96-0.81c-0.4-0.1-0.8-0.2-1.2-0.3c-0.62-0.18-1.23-0.37-1.85-0.55c-1.05-0.12-2.09-0.25-3.14-0.37    c-0.18,0.25-0.83,0.24-1.13,0.28c-0.64,0.18-1.28,0.37-1.92,0.55c-0.94,0.47-1.89,0.94-2.83,1.4c-0.48,0.85-0.96,1.7-1.44,2.55    c-0.14,0.41-0.28,0.81-0.43,1.22c-0.13,0.34-0.25,0.68-0.38,1.01c-0.06,0.4-0.12,0.8-0.18,1.2c0.12,0.52,0.23,1.05,0.35,1.57    c0.17,0.94,0.35,1.86,0.62,2.76c0.22,0.72,0.49,1.43,0.87,2.13c0.47,0.07,0.94,0.67,1.32,0.97c0.14,0.12-0.02,0.4-0.12,0.51    c-0.46,0.43-0.92,0.86-1.39,1.29c-0.22,0.28-0.43,0.55-0.65,0.83c-0.09,0.53-0.7,0.72-1.06,0.95c-1.08,0.7-2.66,0.99-3.93,0.62    c-0.58-0.18-1.17-0.37-1.75-0.55c-0.34-0.18-0.68-0.37-1.02-0.55c-0.24-0.41-0.78-0.51-1.11-0.83c-0.69-0.49-1.38-0.99-2.08-1.48    c-0.41-0.29-0.81-0.58-1.22-0.87c-1.03-0.6-2.05-1.21-3.08-1.81c-1.35-0.25-2.71-0.49-4.06-0.74c-1.23,0.07-2.41,0.39-3.6,0.74    c-0.99,0.06-1.97,0.12-2.96,0.18c-0.37-0.12-0.74-0.25-1.11-0.37c-0.62-0.49-1.23-0.99-1.85-1.48c-0.65-0.03-1.29-0.06-1.94-0.09    c-1.3-0.02-1.6-0.3-2.69,0.69c-0.08-0.06-0.93,0.11-1.06,0.5c-0.13,0.4-0.13,1.05-0.32,1.68c-0.4,1.33,0.01,1.57,0.28,2.96    c0.18,0.2,1,2.79,1.29,2.77L277.98,316.54z"/>
            <circle cx="261.29" cy="271.06" r="1.586"/>
        </g>
        <g id="__Altınyayla">
            <path d="M199.3,276.64l-0.19-0.66    c-0.06-0.49-0.12-0.99-0.18-1.48c-0.02-0.33-0.05-1.85,0.09-2.03c-0.57-1.56-1.02-3.03-2.22-4.25c-0.25-0.31-0.49-0.62-0.74-0.92    c-0.22-0.65-0.43-1.29-0.65-1.94c0.18-0.71,0.37-1.42,0.55-2.12c0.86-1.32,2.31-2.81,2.12-4.53c-0.04-0.39,0.3-0.74,0.18-1.11    c0.4-0.59,0.79-1.17,1.19-1.76c0.08-0.19,0.26-0.59,0.47-0.64c0.02-0.49,0.03-0.99,0.05-1.48c0.04-0.83,0.08-1.66,0.13-2.49    c-0.02-0.27-0.03-0.55-0.05-0.82c-0.56-0.83-1.55-1.54-2.46-1.99c-0.15-0.3-0.69-0.55-1-0.7c-0.47-0.22-1.07-0.18-1.57-0.18    c-0.36-0.36-1.79-0.46-2.31-0.45c-0.65,0.03-1.29,0.06-1.94,0.08c-0.68-0.12-1.36-0.25-2.04-0.37c-2.3-0.12-2.36,0.17-3.59,0.35    l-0.25,0.09c-0.43-0.27-1.01-0.08-1.5-0.04c-1.06,0.1-2.08,0.12-3.15,0.11c-0.41-0.01-1.81,0.05-2.12-0.15    c-1.05,0.18-2.09,0.37-3.14,0.55c-0.28,0.01-0.56,0.02-0.84,0.03c-1.11,0.06-2.21-0.05-3.27,0.35c-1.29,0.48-3,1.39-3.75,2.57    c-0.68,0.37-1.35,0.74-2.03,1.11c-0.78,0.52-2.03,0.78-2.96,0.92c-0.34,0.05-1.08,0.03-1.29,0.28c-0.36,0.43-0.71,0.87-1.07,1.3    c-0.17,0.28-0.33,0.55-0.5,0.83c-0.34,0.99-0.53,2.1-0.55,3.14c-0.06,0.65-0.12,1.29-0.18,1.94c0.15,0.49,0.31,0.99,0.46,1.48    c0.06,0.55,0.12,1.11,0.18,1.66c0.39,1.36,0.78,2.72,1.16,4.07c0.12,0.48,0.19,2.14-0.15,2.49c0.47,1.03,0.94,2.05,1.41,3.08    c0.33,0.94,0.66,1.88,0.99,2.82c0.19,0.35,0.68,1.26,1.02,1.4c0.22,0.33,0.44,0.65,0.66,0.98c0.46,0.35,0.91,0.7,1.37,1.05    c0.53,0.55,1.05,1.11,1.58,1.66c0.68,1.26,1.63,2.53,2.59,3.6c1.06,0.28,2.12,0.56,3.19,0.84c1.44,0.55,2.77,1.36,4.11,2.11    c1.82,1.05,3.63,2.09,5.45,3.14c0.94,0.59,1.87,1.19,2.81,1.78c0.7,0.21,0.7,0.39,1.17,0.85c0.55,0.37,0.89,0.59,1.11,0.77    c0.31,0.28,0.62,0.56,0.93,0.85c0.61,0.28,0.85,0.07,1.11,0.74c0.02-0.07,0.05-0.13,0.07-0.2l0.05,0.13    c0.1-0.39,0.2-0.79,0.3-1.18c0.38-0.75,0.77-1.5,1.15-2.26c0.12-0.4,0.23-0.81,0.35-1.21c0.32-0.97,0.32-1.96,0.57-2.95    c0.24-0.32,0.48-0.64,0.72-0.96c0.84-1.19,1.67-2.38,2.51-3.57c0.24-0.6,0.48-1.2,0.71-1.8c0.13-0.32,0.26-0.65,0.4-0.97    c0.22-0.26,0.43-0.52,0.65-0.78C197.88,278.73,198.38,277.6,199.3,276.64z"/>
            <circle cx="175.92" cy="265.59" r="1.586"/>
        </g>
        <g id="__Gemerek">
            <path d="M127.7,292.41    c-0.41-0.34-0.37-1.45-0.42-2.03c-0.14-1.73,0.22-3.68-0.56-5.29c-0.65-1.34-1.52-2.54-2.56-3.61c-0.43-0.45-0.79-0.94-1.35-1.25    c-0.43-0.28-0.86-0.55-1.29-0.83c-0.46-0.56-0.91-1.13-1.37-1.69c-0.2-0.24-0.37-0.6-0.66-0.71c-0.22-0.43-0.43-0.86-0.65-1.29    c-0.37-1.51-0.74-3.02-1.11-4.53c-0.28-0.52-0.55-1.05-0.83-1.57c-0.15-0.37-0.62-0.51-0.65-0.92c-0.29-0.14-0.57-0.28-0.86-0.41    c-0.28-0.11-0.72-0.11-0.89-0.33c-2.4,0.67-4.76,2.21-7.3,1.29c-0.57-0.21-1.9-1.11-2.12-1.66c-0.46-0.37-0.92-0.74-1.39-1.11    c-0.31-0.43-0.62-0.86-0.92-1.29c-0.39-1-0.82-2.05-0.83-3.14c-0.01-0.97,0.36-2.03-0.01-2.98c-0.35-0.92-1.13-1.31-1.83-1.92    c-0.24-0.21-0.53-0.62-0.84-0.64c-0.18-0.43-0.37-0.86-0.55-1.29c0.01-1.2,0.02-2.4,0.04-3.6c0.11-0.8,0.22-1.6,0.33-2.4    c0.06-0.86,0.12-1.72,0.18-2.59c-0.3-0.9-0.69-1.82-1.2-2.62c-0.37-0.57-0.74-1.15-1.11-1.72c-0.46-0.85-1.17-1.38-1.44-2.33    c-0.41-1.44-0.25-2.94-0.41-4.42c-0.07-0.63-0.01-1.28-0.26-1.83c-0.61-1.37-2.04-2.28-3.59-2.08c-0.6-0.05-1.19-0.1-1.79-0.15    c-1.03,0.26-2.1,0.42-3.16,0.26c-1.47-0.22-2.98-1.02-3.95-2.17c-0.43-0.63-0.87-1.25-1.3-1.88c-0.22-0.29-0.69-0.66-0.73-1.01    c-0.5-0.45-0.92-0.88-1.32-1.39c-0.22-0.24-0.44-0.48-0.67-0.71l0.14-0.25c-0.24,0.12-1.03,0-1.29-0.05    c-0.09-0.25-0.89-0.55-1.2-0.46c-0.27-0.14-1.37,0.01-1.85-0.1c-0.9-0.15-1.81-0.29-2.71-0.44c-1.06-0.28-2.13-0.56-3.2-0.84    c-0.8,0-1.6,0-2.4,0c-0.77,0.25-1.54,0.49-2.31,0.74c-2.61,2.02-2.83,4.43-3.42,7.39c-0.49,2.59-0.99,5.17-1.48,7.76    c-0.05,0.49-0.1,0.98-0.15,1.46c-0.2,1.14-0.39,2.29-0.59,3.43c-0.15,0.39-0.29,0.79-0.44,1.18c-0.3,0.73-0.61,1.45-0.91,2.18    c-0.41,0.76-0.82,1.52-1.24,2.27c-0.25,0.71-0.49,1.42-0.74,2.12c-0.89,2.4-1.22,4.83-1.22,7.38c0.02,0.58,0.81,0.75,1.26,1.09    c1.03,0.77,1.88,1.83,2.78,2.75c1.19,1.21,2.37,2.43,3.56,3.65c0.12-0.03,0.25-0.06,0.37-0.09c0.06,0.31,0.52,0.51,0.77,0.72    c0.24,0.22,0.48,0.44,0.71,0.66c-0.03,0.21,0.23,0.49,0.37,0.65c0.28,0.25,0.55,0.49,0.83,0.74c0.12,0.22,0.25,0.43,0.37,0.65    c0.98,0.23,1.87,0.55,2.77,1.02c0.06,0,0.12,0,0.18,0c0.65,0.46,1.29,0.92,1.94,1.39c0.4,0.22,0.8,0.43,1.2,0.65    c0.15,0.21,0.3,0.42,0.45,0.63c0.23,0.41,0.46,0.83,0.69,1.24c0.75,1.74,1.14,3.57,2.11,5.22c0.61,0.93,1.22,1.86,1.83,2.79    c0.63,0.51,1.26,1.01,1.89,1.52c0.79,0.79,1.58,1.58,2.38,2.37c1.01,1.35,2.02,2.7,3.03,4.05c1.14,1.17,2.28,2.34,3.42,3.5    c0.31,0.28,0.61,0.56,0.92,0.84c0.83,0.56,1.73,0.8,2.68,1.09c0.58,0.16,1.17,0.32,1.75,0.48c0.95-0.09,1.91-0.18,2.86-0.26    c1.34-0.13,2.67-0.29,3.97-0.66c1.08-0.22,2.16-0.43,3.23-0.65c1.02-0.25,2.03-0.49,3.05-0.74c0.55-0.06,1.11-0.12,1.66-0.18    c0.49-0.06,0.98-0.12,1.47-0.18c2.59,0.21,5.17,0.43,7.76,0.64c0.52,0.12,1.05,0.25,1.57,0.37c2.04,0.26,3.91,0.98,6,0.65    c1.06-0.17,2.05-0.83,2.99-1.31c0.22-0.11,0.55-0.45,0.85-0.55c0.34-0.13,0.35-0.19,0.72-0.53L127.7,292.41z"/>
            <circle cx="85.22" cy="278.61" r="1.586"/>
        </g>
        <g id="__İmranlı">
            <path d="M353.54,190.54    c0.3,0.02,0.39,0.12,0.69,0.28c0.39,0.16,0.23,0.12,0.51,0.28c0.28,0.15,0.55,0.31,0.83,0.46c0.9,0.9,2.16,1.69,3.23,2.4    c0.3-0.08,1.3,0.52,1.59,0.7c0.79,0.47,1.43,1.3,2.38,1.52c0.28,0.09,0.55,0.18,0.83,0.28c1.35,0.03,2.71,0.06,4.06,0.09    c1.73-0.35,3.62-0.18,5.26,0.55c0.22,0.18,0.43,0.37,0.65,0.55c0.39,0.73,1.2,1.41,1.29,2.31c0.05,0.54,0.19,0.97,0.37,1.48    c-0.2,1.04,0.22,2.23,0.46,3.23c0.05,0.59,0.1,1.17,0.15,1.76c0.1,0.46,0.21,0.92,0.31,1.38c0,0.4,0,0.8,0,1.2    c0.17,0.6,0.34,1.21,0.51,1.81c0.28,1.07,1.48,1.32,2.54,1.42c0.46,0.12,0.93,0.23,1.39,0.35c1.31,0.32,3.07,0.25,4.38,0.25    c0.55-0.38,0.68-0.89,1.23-1.27c0.41-0.27,0.97,0.06,1.26,0.35c0.08,0.08,0.16,0.15,0.24,0.23l0.01-0.02    c0.14-0.07,0.15,0.02,0.27-0.21c0.18-0.28,0.25-0.33,0.37-0.51c0.16-0.58,0.32-1.17,0.47-1.75c0.03-0.28,0.14-0.62,0.27-0.92    c0.03-0.68,0.06-1.35,0.09-2.03c-0.58-1.63-1.17-3.26-1.76-4.9c-0.03-0.8-0.06-1.6-0.09-2.4c-0.06-0.64,0.3-1.66,0.51-2.27    c0.18-0.62,0.35-1.25,0.53-1.87c0.73-1.27,1.46-2.54,2.19-3.8c0.35-1.02,0.7-2.05,1.05-3.07c0.14-0.45,0.28-0.91,0.42-1.36    c0.41-1.57,0.83-3.14,1.24-4.71c0.07-0.34,0.54-1.75,0.42-1.94c0.44-0.72,1.27-1.18,1.94-1.66c0.71-0.52,1.42-1.05,2.12-1.57    c0.73-0.63,1.45-1.26,2.18-1.89c0.27-0.25,0.68-0.5,0.78-0.89c0.59-0.46,1.18-0.91,1.77-1.37c0.58-0.31,1.16-0.63,1.74-0.94    c0.83-0.44,1.65-0.87,2.48-1.31c0.24-0.14,0.66-0.51,0.94-0.44c0.33-0.56,0.67-1.13,1-1.69c0.1-0.24,0.19-0.48,0.29-0.71    c-0.02-0.52-0.04-1.05-0.06-1.57c-0.02-0.45,0.02-1.36-0.58-1.39c-0.35-0.43-1.54-1.64-2.12-1.57c-0.23-0.14-0.49-0.2-0.55-0.46    c-0.92-0.31-1.85-0.62-2.77-0.92c-0.62-0.15-1.23-0.31-1.85-0.46c-0.37-0.32-0.76-0.43-0.92-0.6c-0.28-0.28-0.46-0.46-1.11-0.88    c-0.77-1.6-1.54-3.2-2.31-4.8c-0.06-0.58-0.12-1.17-0.18-1.75c0.06-0.43,0.22-1.65,0.28-2.08c-0.37-0.28-0.9-0.8-1.3-1.25    c-0.33-0.38-1.66-1.2-1.75-1.48c-0.49-0.1-0.92-0.25-1.38-0.46c-1.02-0.49-2.09-0.87-3.16-1.26c-0.3-0.1-0.61-0.2-0.91-0.31    c-0.83-0.12-1.66-0.25-2.49-0.37c-0.46-0.17-0.93-0.34-1.39-0.51c-0.95-0.14-1.9-0.28-2.85-0.42c-0.91-0.21-1.79-0.75-2.6-1.16    c-0.46-0.23-0.92-0.46-1.37-0.68c-0.57-0.34-1.28-0.62-1.96-0.8c-0.25-0.06-0.49-0.11-0.73-0.15c-0.52-0.04-1.04-0.07-1.57-0.11    c-0.55-0.05-1.1-0.1-1.65-0.14c-0.75,0.18-1.49,0.35-2.24,0.53c-1.04,0.1-2.08,0.2-3.12,0.3c-0.34-0.03-0.68-0.06-1.02-0.09    c-0.58,0.12-1.17,0.25-1.75,0.37c-0.32,0.16-0.64,0.32-0.96,0.48c-0.76,0.24-1.53,0.47-2.29,0.71c-0.4,0.06-1.03,0.12-1.35-0.11    c-1.13-0.86-1.88-1.58-2.69-2.74c-0.25-0.25-0.49-0.49-0.74-0.74c-1.23-0.67-2.52-1.4-3.89-1.73c-0.78-0.19-2.43-0.35-3.21-0.23    c-0.34,0.05-1.47,0.48-1.67,0.39c-0.55,0.46-1.12,0.78-1.72,1.17c-0.26,0.16-0.52,0.33-0.78,0.49c-0.26,0.26-0.75,0.98-1.11,1.02    c-0.4,0.89-0.8,1.79-1.2,2.68c-0.33,0.37-0.67,0.75-1,1.12c-0.51,0.73-0.91,1.51-1.52,2.18c-0.33,0.32-0.66,0.63-0.99,0.95    c-0.43,0.99-0.86,1.97-1.29,2.96c-0.31,0.89,0.4,3.27,0.91,4.03c0.47,0.71,1.4,1.9,1.03,2.8c0.05-0.02,0.11-0.04,0.16-0.06    c0.69,0.76,0.84,1.84,1.17,2.81c0.25,0.72,0.61,1.56,0.61,2.33c1.09,1.53,2.75,1.5,3.6,3.33c0.08,1.15-0.48,2.01-1.24,2.82    c-0.26,0.28-1.14,0.88-1.07,1.24c-0.34,0.15-0.68,0.31-1.02,0.46c-0.54,0.25-0.89,0.96-1.57,1.2c-0.14,0.51-0.28,1.82-0.03,2.14    c0.18,0.21,0.41,0.37,0.49,0.63c0.44,0.16,0.88,0.32,1.32,0.47c0.48,0.15,0.97,0.3,1.45,0.45c0.52,0.41,1.53,1.57,1.73,2.2    c0.3,0.9,0.4,1.79,0.94,2.6c0.53,0.8,1.5,1.23,2.34,1.6c0.27,0.11,0.53,0.23,0.8,0.34c0.53,0.42,0.97,0.88,1.41,1.41    c0.05-0.01,0.1-0.02,0.16-0.02c0.21,0.31,0.91,1.11,0.83,1.48c0.28,0.46,0.55,0.92,0.83,1.39c0.39,0.76,1.34,1.81,1.29,2.68    L353.54,190.54z"/>
            <circle cx="359.45" cy="159.46" r="1.586"/>
        </g>
        <g id="__Doğanşar">
            <path d="M288.51,128.8    c-1.05,0.18-2.36-0.02-3.42-0.05c-0.49-0.04-0.98-0.08-1.47-0.12c-1.47-0.51-2.7-1.31-4.05-2.12c-0.68-0.37-1.36-0.73-2.04-1.1    c-0.58-0.44-1.16-0.87-1.74-1.31c-1.03-0.64-2.05-1.27-3.08-1.91c-0.46-0.18-0.92-0.37-1.39-0.55c-0.71-0.12-1.42-0.25-2.12-0.37    c-0.46-0.28-0.92-0.55-1.39-0.83c-0.43-0.36-1.53-1.34-1.48-1.94c-0.65-0.76-1.27-1.68-1.52-2.66c-0.13-0.52-0.43-1.5-0.08-1.82    c0.39-0.37,0.62-0.81,0.89-1.27c0.21-0.21,0.42-0.42,0.63-0.63c1.21-0.89,2.39-2.01,3.4-3.14c0.34-0.4,0.95-1.03,1.29-1.43    c0.06-0.31,0-0.43-0.09-0.69c0-0.25,0-0.49,0-0.74c-0.19-1-0.55-2.72-1.03-3.58c-0.41-0.73-0.88-1.37-1.46-1.96    c-0.43-0.44-1.44-0.69-1.56-1.23c-0.07-0.3-0.13-0.59-0.2-0.89c0.06-0.34,0.12-0.68,0.18-1.02c0.77-0.87,1.64-1.82,2.69-2.36    c2.93-1.52,6.49-1.92,9.14-4.01c0.31-0.43,0.62-0.86,0.92-1.29c0.64-0.82,1.05-1.76,1.57-2.68c0.77-1.34,3.03-3.28,3.03-3.28    c0.1-0.01,0.12,0.05,0.19,0.14c1.32,1.41,2.67,2.69,4.21,3.79c0.23,0.43,0.96,1.02,1.33,1.38c0.68,0.8,1.36,1.6,2.04,2.4    c0.12,0.79,0.25,1.59,0.37,2.38c0.49,0.77,0.98,1.53,1.47,2.3c0.2,0.29,0.7,1.33,0.93,1.42c0.17,1.43,0.29,2.73,1.08,3.99    c0.15,0.24,0.73,1.06,0.95,1.11c0.37,0.28,0.51,0.28,0.79,0.54l0.04,0c-0.18,0.37-0.36,0.74-0.55,1.11    c0.09,0.62,0.18,1.23,0.28,1.85c0.26,1.36,0.45,2.69,1.02,3.97c0.04,0.46,0.08,0.92,0.12,1.38c0,1.39-0.32,3.02-1.03,4.21    c-0.64,1.07-1.72,1.78-2.68,2.54c-0.4,0.34-0.8,0.68-1.19,1.02c-0.7,0.56-1.56,1.07-2.08,1.82c-0.27,0.31-0.53,0.63-0.8,0.94    c-0.02,0.33-0.03,0.65-0.05,0.98c-0.03,0.28-0.18,0.5,0.05,0.68c-0.25,0.46-0.49,0.92-0.74,1.39c-0.09,0.36-0.19,0.71-0.28,1.07    c-0.24,0.51-0.49,1.01-0.73,1.52c0.14,0.27-0.09,0.55-0.18,0.83L288.51,128.8z"/>
            <circle cx="282.05" cy="100.81" r="1.586"/>
        </g>
        <g id="__Hafik">
            <path d="M276.75,223.38    c0.22-1.74,0.08-4.45,0.2-6.23c0.16-0.77,0.32-1.54,0.48-2.31c0.16-0.76,0.39-1.51,0.84-2.15c0.85-1.21,2.11-2.21,3.5-2.65    c0.09-0.26,0.39-0.34,0.62-0.49c0.52-0.34,1.05-0.69,1.57-1.03c1-0.68,1.99-1.16,3.15-1.56c0.86-0.26,1.72-0.51,2.58-0.77    c0.82-0.36,1.51-0.88,2.24-1.42c0.26,0.13,0.56-0.05,0.85-0.12c0.72-0.2,1.45-0.4,2.17-0.6c1.41-0.61,3.25-1.24,4.45-2.18    c0.94-0.74,1.55-1.7,2.16-2.7c0.07-0.11-0.05-0.47-0.06-0.66c-0.09-1.09-0.62-1.89-1.4-2.64c-0.63-0.63-1.26-1.26-1.88-1.89    c-0.4-0.31-0.8-0.62-1.2-0.92c-0.38-0.2-0.76-0.4-1.14-0.6c-0.42-0.2-0.84-0.4-1.26-0.6c-0.1-0.29-0.49-0.51-0.7-0.75    c-0.38-0.55-0.75-1.1-1.13-1.66c-0.18-0.28-0.09-0.49-0.39-0.7c-1.01-0.68-1.34-1.66-2.03-2.62c-0.76-1.05-1.98-2.55-1.85-3.88    c0.21-0.5,0.42-1,0.63-1.5c0.62-1.01,1.25-2.02,1.87-3.03c-0.17-0.27,0.22-1,0.37-1.29c-0.24-0.15-0.2-0.73-0.26-1.02    c-0.32-0.3-0.64-0.59-0.96-0.89c-1.21-1-2.78-1.37-4.23-1.13c-1.02-0.86-2.03-1.72-3.05-2.59c-0.65-0.91-1.3-1.82-1.94-2.73    c-0.08-0.11,0.08-0.72,0.11-0.96c0.16-0.9,0.31-1.8,0.47-2.7c0.05-0.36,0.11-0.73,0.16-1.09c0.38,0.08,0.4-0.11,0.65-0.37    c-0.09-0.74-0.18-1.48-0.28-2.22c0.06-0.49,0.12-0.99,0.18-1.48c-0.01-1.11-0.02-2.22-0.03-3.33c-0.06-1.18-0.52-2.21-0.86-3.34    c-0.17-0.74-0.33-1.47-0.5-2.21c-0.3-0.5-0.6-1-0.9-1.5c-0.78-1.32-2.02-2.52-1.84-4.18c0.06-0.6,0.42-1.19,0.71-1.71    c0.21-0.35,0.42-0.69,0.64-1.04c0.58-0.73,1.12-1.54,1.86-2.19c1.08-1.48,2.16-2.96,3.23-4.43c0.29-0.5,0.57-1.01,0.86-1.51    c0.15-0.32,0.31-0.64,0.46-0.97c0.36-0.44,0.72-0.87,1.08-1.31c0.37-0.64,0.74-1.28,1.11-1.93c0.22-0.34,0.46-0.8,0.46-0.8    c-1.05,0.18-2.36-0.02-3.42-0.05c-0.49-0.04-0.98-0.08-1.47-0.12c-1.47-0.51-2.7-1.31-4.05-2.12c-0.68-0.37-1.36-0.73-2.04-1.1    c-0.58-0.44-1.16-0.87-1.74-1.31c-1.03-0.64-2.05-1.27-3.08-1.91c-0.46-0.18-0.92-0.37-1.39-0.55c-0.71-0.12-1.42-0.25-2.12-0.37    c-0.46-0.28-0.92-0.55-1.39-0.83c-0.43-0.36-1.53-1.34-1.48-1.94c-0.65-0.76-1.27-1.68-1.52-2.66c-0.13-0.52-0.43-1.5-0.08-1.82    c0.39-0.37,0.62-0.81,0.89-1.27c0.21-0.21,0.42-0.42,0.63-0.63c1.21-0.89,2.39-2.01,3.4-3.14c0.34-0.4,0.95-1.03,1.29-1.43    l-0.09,0.11c-0.22-0.35-0.34-0.17-0.78-0.41c-0.55-0.43-1.35-0.92-1.96-1.23c-0.57-0.21-1.15-0.41-1.72-0.62    c-1.32-0.08-2.64-0.17-3.96-0.25c-1.81,0.03-2.73,1-4.57-0.1c-1.18-0.7-1.38-1.97-1.81-3.17c-0.65-0.8-1.29-1.6-1.94-2.4    c-0.42,0.07-0.9-0.43-1.29-0.55c-1.4-0.44-2.72-1.17-4.06-1.75c-0.87-0.33-1.75-0.65-2.62-0.98c-0.76-0.1-1.52-0.21-2.28-0.31    c-1.14-0.22-2.28-0.45-3.43-0.67c-1.04-0.2-1.96-0.55-2.95-0.9c-1.02-0.03-2.03-0.07-3.05-0.1c-2.42,0.28-4.85,0.57-7.27,0.85    c-1.55,0.38-3.66,1.74-4.92,2.75c-0.71,0-1.52,0.54-2.13,0.9c-0.46,0.22-0.92,0.45-1.38,0.67c-0.3,0.04-0.61,0.08-0.92,0.13    c-0.25,0.08-0.5,0.16-0.75,0.24c0.29,0.25,0.24,0.72,0.38,1.1c0.33,0.74,0.67,1.49,1,2.23c0.53,1.37,0.45,2.59,0.84,3.97    c0.28,0.99,0.91,1.78,1.38,2.68c-0.14,0.3,0.16,0.95,0.24,1.28c0.08,0.74,0.15,1.48,0.23,2.23c0.21,0.07,0.25,0.38,0.36,0.58    c0.12,0.23,0.12,0.42,0.34,0.2c0.11,0.03,0.22,0.07,0.33,0.1c0.29,0.06,0.48-0.26,0.68-0.47c0.48-0.54,0.95-1.08,1.43-1.62    c0.92-0.89,1.85-1.79,2.77-2.68c0.41,0.14,0.9-0.44,1.29-0.55c0.64-0.19,0.97-0.25,1.66-0.27c0.18-0.01,0.3,0.38,0.41,0.55    c0.39,0.59,0.56,1.34,0.5,2.05c-0.19,2.12-1.04,3.93-1.7,5.93c-0.12,0.69-0.23,1.38-0.35,2.07c-0.18,1.2-0.46,2.63-0.07,3.8    c0.32,0.96,1.35,1.33,2.03,1.94c0.37,0.37,0.74,0.74,1.11,1.11c0.37,0.68,0.74,1.35,1.11,2.03c-0.12,0.6,0.48,2.18,0.74,2.77    c0.09,0.55,0.17,1.11,0.26,1.66c0.04,0.52,0.08,1.05,0.11,1.57c-0.2,0.13-0.57,1.37-0.65,1.66c-0.62,0.83-1.23,1.66-1.85,2.49    c0.18,0.67-0.06,1.63-0.18,2.31c-0.22,0.11-0.46,0.2-0.51,0.45c0.04,0.68,0.08,1.35,0.12,2.03c0.03,0.3,0.4,0.24,0.67,0.29    c0.08,0.26,0.36,0.32,0.58,0.47c0.95,0.6,1.62,1.43,2.21,2.38c0.64,1.12,1.28,2.24,1.92,3.36c0.43,1.16,0.86,2.32,1.3,3.49    c0.06,0.37,0.12,0.74,0.18,1.11c0.03,0.61,0.05,1.23,0.08,1.84c0.02,0.61,0.26,2.51-0.26,2.94c-0.13,0.32-0.25,0.63-0.38,0.95    c-0.96,1.36-2.53,2.15-3.87,3c-0.32,0.25-0.64,0.49-0.95,0.74c-0.83,0.69-0.51,2.65-0.62,3.74c-0.02,0.19,0.36,0.57,0.3,0.87    c-0.28,1.92,2.55,3.37,3.88,4.29c0.45,0.34,0.9,0.69,1.35,1.03c0.03,0.33,0.46,0.65,0.7,0.89c0.68,0.68,1.8,1.6,2.72,1.88    c1.2,0.37,2.51,0.12,3.69-0.18c0.26,0.18,0.89-0.04,1.2-0.08c0.71,0.05,1.42,0.11,2.12,0.16c0.53,0.07,1.32,1.46,1.63,1.91    c1.12,1.61,2.64,2.91,4.03,4.26c0.45,0.44,0.9,0.88,1.36,1.32c0.59,0.72,1.01,1.45,1.76,2.02c0.83,0.56,1.66,1.12,2.49,1.68    c0.25-0.17,0.79,0.1,1.11,0.18c0.74,0.83,1.48,1.66,2.22,2.49c0.28,1.02,0.55,2.03,0.83,3.05c0.68,2.52,1.35,5.05,2.03,7.57    c0,0.28,0,0.55,0,0.83c0.01,0.63-0.07,1.14-0.17,1.75c-0.03,0.21,1.16,0.89,1.37,1.11c0.43,0.24,0.87,0.48,1.3,0.72    c1.41,0.86,2.43,2.41,3.69,3.52c0.08,0.47,0.57,0.73,0.65,1.23c0.24,1.5-0.09,2.77-0.32,4.23c-0.05,0.58-0.1,1.16-0.15,1.74    c-0.34,1.17-0.68,2.34-1.02,3.51c-0.23,0.1-0.23,0.14-0.35,0.33l-0.76,0.74c0.34,0.16,0.68,0.33,1.02,0.49    c0.37,0.07,0.74,0.15,1.11,0.22c0.38,0.23,0.76,0.45,1.14,0.68c1.04,0.47,2.07,0.94,3.11,1.41c0.25,0.06,0.49,0.12,0.74,0.18    L276.75,223.38z"/>
            <circle cx="263.51" cy="162.17" r="1.586"/>
        </g>
        <g id="__Sivas">
            <path d="M269.67,220.34l0.76-0.74    c0.12-0.19,0.12-0.23,0.35-0.33c0.34-1.17,0.68-2.34,1.02-3.51c0.05-0.58,0.1-1.16,0.15-1.74c0.23-1.45,0.55-2.73,0.32-4.23    c-0.08-0.5-0.57-0.77-0.65-1.23c-1.26-1.11-2.27-2.66-3.69-3.52c-0.43-0.24-0.87-0.48-1.3-0.72c-0.22-0.22-1.4-0.9-1.37-1.11    c0.1-0.61,0.18-1.13,0.17-1.75c0-0.28,0-0.55,0-0.83c-0.68-2.52-1.35-5.05-2.03-7.57c-0.28-1.02-0.55-2.03-0.83-3.05    c-0.74-0.83-1.48-1.66-2.22-2.49c-0.31-0.08-0.85-0.35-1.11-0.18c-0.83-0.56-1.66-1.12-2.49-1.68c-0.75-0.56-1.17-1.3-1.76-2.02    c-0.45-0.44-0.9-0.88-1.36-1.32c-1.39-1.35-2.91-2.65-4.03-4.26c-0.31-0.45-1.1-1.84-1.63-1.91c-0.71-0.05-1.42-0.11-2.12-0.16    c-0.31,0.04-0.94,0.26-1.2,0.08c-1.18,0.3-2.49,0.55-3.69,0.18c-0.93-0.28-2.05-1.21-2.72-1.88c-0.23-0.23-0.66-0.55-0.7-0.89    c-0.45-0.34-0.9-0.69-1.35-1.03c-1.33-0.92-4.16-2.37-3.88-4.29c0.06-0.3-0.32-0.68-0.3-0.87c0.1-1.09-0.21-3.05,0.62-3.74    c0.32-0.25,0.64-0.49,0.95-0.74c1.34-0.85,2.92-1.65,3.87-3c0.13-0.32,0.25-0.63,0.38-0.95c0.52-0.43,0.28-2.32,0.26-2.94    c-0.03-0.61-0.05-1.23-0.08-1.84c-0.06-0.37-0.12-0.74-0.18-1.11c-0.43-1.16-0.86-2.32-1.3-3.49c-0.64-1.12-1.28-2.24-1.92-3.36    c-0.58-0.95-1.26-1.78-2.21-2.38c-0.22-0.14-0.5-0.21-0.58-0.47c-0.28-0.05-0.64,0.01-0.67-0.29c-0.04-0.68-0.08-1.35-0.12-2.03    c0.05-0.25,0.3-0.34,0.51-0.45c0.12-0.68,0.37-1.63,0.18-2.31c0.62-0.83,1.23-1.66,1.85-2.49c0.08-0.3,0.44-1.53,0.65-1.66    c-0.04-0.52-0.08-1.05-0.11-1.57c-0.09-0.55-0.17-1.11-0.26-1.66c-0.26-0.59-0.86-2.17-0.74-2.77c-0.37-0.68-0.74-1.35-1.11-2.03    c-0.37-0.37-0.74-0.74-1.11-1.11c-0.69-0.61-1.71-0.98-2.03-1.94c-0.39-1.18-0.11-2.61,0.07-3.8c0.12-0.69,0.23-1.38,0.35-2.07    c0.66-2,1.51-3.82,1.7-5.93c0.06-0.71-0.11-1.46-0.5-2.05c-0.11-0.17-0.23-0.55-0.41-0.55c-0.69,0.02-1.02,0.09-1.66,0.27    c-0.39,0.11-0.89,0.69-1.29,0.55c-0.92,0.89-1.85,1.79-2.77,2.68c-0.48,0.54-0.95,1.08-1.43,1.62c-0.2,0.21-0.39,0.53-0.68,0.47    c-0.11-0.03-0.22-0.07-0.33-0.1c-0.22,0.22-0.22,0.02-0.34-0.2c-0.1-0.2-0.15-0.51-0.36-0.58c-0.08-0.74-0.15-1.48-0.23-2.23    c-0.08-0.34-0.38-0.98-0.24-1.28c-0.47-0.9-1.1-1.69-1.38-2.68c-0.4-1.37-0.32-2.6-0.84-3.97c-0.33-0.74-0.67-1.49-1-2.23    c-0.14-0.38-0.08-0.85-0.38-1.1l-0.51-0.08c-0.3-0.36-0.63-0.65-0.97-0.84c-0.37-0.22-0.74-0.43-1.11-0.65    c-0.37-0.15-0.74-0.31-1.11-0.46c-0.7-0.47-0.77-0.5-1.57-0.65c-1.63-0.38-3.26-0.76-4.89-1.13c-0.39-0.08-0.87-0.16-1.27-0.07    l-0.12-0.13c-0.35,0.35-1.18,0.39-1.48,0.97c-0.03,0.83-0.06,1.66-0.09,2.49c-0.22,0.99-0.43,1.97-0.65,2.96    c-0.24,1.83-0.47,3.67-0.92,5.45c-0.43,1.69-1.35,3.93-2.22,5.45c-0.34,0.8-0.68,1.6-1.02,2.4c-0.18,0.4-0.37,0.8-0.55,1.2    c-0.31,0.74-0.91,1.46-1.48,2.03c-0.12,0.22-0.25,0.43-0.37,0.65c-0.26,1.36-0.71,2.63-1.02,3.97c-0.12,0.24-0.24,0.48-0.35,0.72    c-0.25,0.65-0.5,1.31-0.75,1.96c-0.06,0.98-0.26,1.91-0.46,2.86c-0.25,0.52-0.49,1.05-0.74,1.57c-0.24,0.72-0.63,1.43-1.06,2.04    c-0.62,0.89-1.75,1.44-2.55,2.21c-0.64,0.62-1.13,2.35-1.24,3.24c-0.17,1.39,0.04,2.66,0.04,4.06c0.03,0.46,0.06,0.93,0.1,1.39    c0.49,1.92,1.17,3.82,1.11,5.82c-0.05,1.57-1.3,2.4-1.94,3.69c-0.34,0.69-0.13,1.76-0.09,2.49c0.03,0.67-0.13,1.28-0.18,1.94    c0.06,0.58,0.12,1.17,0.18,1.76c0.17,0.73,0.03,1.51,0.37,2.22c0.45,0.92,1.03,1.16,0.99,2.3c-0.04,0.2-0.07,0.41-0.11,0.61    c-0.98,1.42-2.17,2.38-3.56,3.37c-0.37,0.14-0.74,0.27-1.11,0.41c-0.52,0.17-1.04,0.34-1.57,0.52c-0.78,0.6-1.56,1.19-2.35,1.79    c-0.51,0.33-1.02,0.65-1.53,0.98c-0.3,0.13-0.6,0.21-0.91,0.4c-0.26,0.2-0.52,0.41-0.78,0.61c-0.07,0.22-0.04,0.26-0.25,0.38    c0.1,0.98,0.2,1.96,0.31,2.95c-0.04,0.64-0.09,1.29-0.13,1.93c-0.06,0.35-0.12,0.69-0.18,1.04c-0.01,0.39,0.21,1.05,0.01,1.38    c0.06,0.31,0.29,0.96,0.09,1.2c0.15,0.49,0.31,0.99,0.46,1.48c0.2,0.43,0.41,0.86,0.61,1.3c0.46,0.97,1.01,1.85,1.14,2.95    c0.03,0.27,0.21,0.92-0.11,1.07c-0.47,0.19-0.93,0.39-1.4,0.58c-0.27,0.07-0.57,0.05-0.8,0.2c-0.81-0.34-1.61-0.69-2.42-1.03    c-0.3-0.05-0.59-0.09-0.89-0.14c-0.51,0.25-1.02,0.5-1.53,0.75c-0.19,0.22-0.37,0.43-0.56,0.65c-0.57,0.54-1.65,1.6-2.47,1.19    c-0.33-0.17-1.24-0.94-1.56-0.69c-0.37,0.31-0.73,0.62-1.1,0.94c-0.67,0-1.59,0.64-2.16,0.95c-0.45,0.21-0.9,0.42-1.35,0.62    c-0.31-0.12-0.62-0.25-0.92-0.37c-0.31,0.03-0.62,0.06-0.92,0.09c-0.86,0.52-1.72,1.04-2.58,1.57c-0.79,0.39-1.45,0.44-2.31,0.48    c-0.17,0.01-0.74-0.02-0.74,0.16c0,0.22,0,0.43,0,0.65c0.13,0.13,0.21,0.2,0.11,0.35c-0.65,0.9-1.3,1.8-1.96,2.7    c-0.15,0.27-0.3,0.55-0.46,0.82c-0.84,0.83-1.67,1.66-2.51,2.49c-0.51,0.54-0.88,1.11-1.32,1.7c-0.36,0.27-0.71,0.54-1.07,0.81    c-0.62,0.22-1.23,0.43-1.85,0.65c-0.45,0.13-0.88,0.23-1.2,0.55c-0.24,0.04-0.48,0.09-0.72,0.13c-0.55,0.18-0.69,1.58-1.12,1.58    l0.14-0.09c0.44-0.01,0.64,0.29,1.04,0.35c0.63,0.18,1.26,0.36,1.89,0.54c2.56,0.93,4,2.57,5.61,4.7c0.03,0.29,0.14,0.67,0,0.92    c0.49,1.32,0.99,2.65,1.48,3.97c0.25,0.46,0.49,0.92,0.74,1.39c0.09,0.8,0.18,1.6,0.28,2.4c-0.14,0.77-0.27,1.54-0.41,2.31    c-0.1,1.6-0.21,3.21-0.31,4.81c-0.19,1.48,0.3,3.05,0.42,4.52c0.06,0.47,0.12,0.94,0.18,1.41c-0.08,0.08-0.17,0.16-0.25,0.24    c0.63,0.31,0.84,1.73,1.11,2.4c0.39,0.96,1.51,2.04,2.29,2.7c0.47,0.4,0.81,0.78,1.07,1.33c0.18,0.04,0.15-0.02,0.15,0.14    c0,0.52,0,1.04,0,1.56c-0.42,1.45-2.13,2.16-3.3,2.8c-0.38,0.24-0.76,0.47-1.14,0.71c-1.04,0.58-2.1,1.93-1.37,3.14    c0.27,0.47,0.57,1.32,1,1.66c1.51,0.55,3.02,1.11,4.53,1.66c0.49,0.16,1.14,0.54,1.45,0.96c0.12-0.02,0.74,0.13,0.86,0.11v0.05    c0.22-0.24,0.96-0.22,1.29-0.28c0.93-0.15,2.17-0.4,2.96-0.92c0.68-0.37,1.35-0.74,2.03-1.11c0.75-1.18,2.46-2.09,3.75-2.57    c1.05-0.4,2.16-0.29,3.27-0.35c0.28-0.01,0.56-0.02,0.84-0.03c1.05-0.18,2.09-0.37,3.14-0.55c0.31,0.2,1.72,0.14,2.12,0.15    c1.06,0.02,2.09-0.01,3.15-0.11c0.49-0.05,1.07-0.23,1.5,0.04l0.25-0.09c-0.25,0-1.06-0.31-1.13-0.53    c-0.52-1.66-0.27-2.99-0.33-4.68c0.05-0.24,0.11-0.48,0.16-0.73c0.28-0.7,0.56-1.41,0.84-2.11c0.22-0.54,0.44-1.09,0.66-1.63    c0.21-0.28,0.42-0.55,0.62-0.83c0.26-0.41,0.51-0.83,0.77-1.24c0.34-0.27,0.67-0.53,1.01-0.8c0.46-0.49,0.92-0.99,1.39-1.48    c0.47-0.27,0.94-0.55,1.41-0.82c0.48-0.25,0.97-0.5,1.45-0.75c0.94-1.03,1.86-1.84,2.68-2.96c0.13-0.18,0.34-0.42,0.55-0.37    c0.4-0.62,0.96-1.05,1.4-1.64c0.71-0.95,1.02-2.17,1.74-3.07c0.41-0.51,1.24-0.69,1.83-0.88c0.49-0.16,1.58-0.36,1.78-0.87    c0.22-0.12,0.43-0.24,0.65-0.36c0.17-0.15,0.37-0.26,0.46-0.47c0.51-0.35,1.02-0.71,1.52-1.06c0.2-0.19,0.59-0.74,0.88-0.7    c1.01-1.26,2.12-2.38,3.2-3.54c0.15-0.77,1.54-2.97,2.16-3.39c0.39-0.27,0.36-0.9,0.83-1.11c0.08-0.28,0.15-0.74,0.46-0.83    c0.25,0.06,1.36,0.28,1.41,0.1c0.17-0.55,0.34-1,0.87-1.29c0.03-0.22-0.04-0.19,0.12-0.2c0.29-0.01,0.73-0.1,0.85,0.06    c0.12,0.17,0.13,0.27,0.35,0.31c0.07,0.18,0.14,0.36,0.22,0.54c0.22,0.15,0.69,0.77,0.71,1.03c0.37,0.34,0.74,0.68,1.11,1.02    c0.31,0.31,0.55,0.93,1.02,1.02c1.02,1.35,2.03,2.71,3.05,4.06c0.34,0.37,0.68,0.74,1.02,1.11c0.23,0.13,0.53,0.23,0.65,0.46    c0.37,0.15,1.17,0.35,1.29,0.74c0.28,0.09,0.55,0.18,0.83,0.28c0.4,0.31,0.8,0.62,1.2,0.92c0.89,0.4,1.79,0.8,2.68,1.2    c0.68,0.13,1.35,0.25,2.03,0.38c0.31,0.03,0.62,0.05,0.93,0.08c2.15,0.46,4.41,0.35,6.56,0.74c0.31-0.03,0.62-0.06,0.92-0.1    c0.92-0.01,2.01,0.15,2.9-0.12c0.75-0.23,1.6-0.27,2.36-0.14c0.73,0.23,1.46,0.46,2.19,0.7c0.32,0.16,0.64,0.33,0.96,0.49    c0.47,0.38,0.94,0.75,1.41,1.13c0.25,0.27,0.49,0.54,0.74,0.82c0.24,0.12,0.47,0.24,0.71,0.36c0.68,0.03,1.35,0.06,2.03,0.09    c0.95-0.17,1.9-0.33,2.85-0.5c0.41-0.11,0.81-0.22,1.22-0.33c0.29-0.16,1.38-0.85,1.57-0.83c0.75-1.16,2.2-2.4,3.45-3    c0.34-0.17,0.94-0.61,1.36-0.51c0.72-0.31,1.43-0.62,2.15-0.93c0.36-0.06,0.72-0.11,1.09-0.17    C267.65,219.79,268.98,220.06,269.67,220.34z"/>
            <circle cx="211.14" cy="181.29" r="1.586"/>
        </g>
        <g id="__Şarkışla">
            <path d="M169.45,284.39    c-0.12,0-0.24,0-0.37,0c-0.3-0.04-0.98,0.09-1.3,0.09c-0.77,0-1.54,0-2.31,0c-2.52,0.92-5.05,1.85-7.57,2.77    c-0.73,0.29-1.47,0.58-2.2,0.87c-0.41,0.2-0.81,0.41-1.22,0.61c-0.33,0.34-0.66,0.68-0.99,1.02c-0.44,0.31-0.88,0.62-1.32,0.92    c-0.88,0.45-1.76,0.9-2.64,1.35c-0.5,0.23-1.01,0.45-1.51,0.68c-1.31,0.38-4.24,0.39-5.54,0c-2.8-0.43-5.61-0.85-8.41-1.28    c-0.99-0.12-1.98-0.25-2.96-0.37c-0.17,0.01-0.53,0.1-1.19-0.01c-0.54,0.38-1.08,0.75-1.62,1.13c-0.17,0.13-0.44,0.42-0.6,0.25    c-0.41-0.34-0.37-1.45-0.42-2.03c-0.14-1.73,0.22-3.68-0.56-5.29c-0.65-1.34-1.52-2.54-2.56-3.61c-0.43-0.45-0.79-0.94-1.35-1.25    c-0.43-0.28-0.86-0.55-1.29-0.83c-0.46-0.56-0.91-1.13-1.37-1.69c-0.2-0.24-0.37-0.6-0.66-0.71c-0.22-0.43-0.43-0.86-0.65-1.29    c-0.37-1.51-0.74-3.02-1.11-4.53c-0.28-0.52-0.55-1.05-0.83-1.57c-0.15-0.37-0.62-0.51-0.65-0.92c-0.29-0.14-0.57-0.28-0.86-0.41    c-0.28-0.11-0.72-0.11-0.89-0.33c-2.4,0.67-4.76,2.21-7.3,1.29c-0.57-0.21-1.9-1.11-2.12-1.66c-0.46-0.37-0.92-0.74-1.39-1.11    c-0.31-0.43-0.62-0.86-0.92-1.29c-0.39-1-0.82-2.05-0.83-3.14c-0.01-0.97,0.36-2.03-0.01-2.98c-0.35-0.92-1.13-1.31-1.83-1.92    c-0.24-0.21-0.53-0.62-0.84-0.64c-0.18-0.43-0.37-0.86-0.55-1.29c0.01-1.2,0.02-2.4,0.04-3.6c0.11-0.8,0.22-1.6,0.33-2.4    c0.06-0.86,0.12-1.72,0.18-2.59c-0.3-0.9-0.69-1.82-1.2-2.62c-0.37-0.57-0.74-1.15-1.11-1.72c-0.46-0.85-1.17-1.38-1.44-2.33    c-0.41-1.44-0.25-2.94-0.41-4.42c-0.07-0.63-0.01-1.28-0.26-1.83c-0.61-1.37-2.04-2.28-3.59-2.08c-0.6-0.05-1.19-0.1-1.79-0.15    c-1.03,0.26-2.1,0.42-3.16,0.26c-1.47-0.22-2.98-1.02-3.95-2.17c-0.43-0.63-0.87-1.25-1.3-1.88c-0.22-0.29-0.69-0.66-0.73-1.01    c-0.5-0.45-0.92-0.88-1.32-1.39c-0.22-0.24-0.44-0.48-0.67-0.71c0.27-0.05-0.05-0.28,0.14-0.31c1.72-0.27,3.44-0.53,5.16-0.8    c0.79-0.17,1.81-0.32,2.51-0.76c1.88-1.19,3.3-2.63,4.46-4.56c0.39-0.85,0.78-1.7,1.17-2.55c0.4-0.82,0.37-2.1,0.92-2.86    c0.31-0.58,0.62-1.17,0.93-1.76c0.87-1.52,1.8-2.92,1.89-4.71c0.07-1.56-0.4-3.06-0.37-4.62c0.02-1.14,0.36-2.2,0.53-3.32    c0.13-1.33,0.25-2.67,0.38-4c-0.04-0.92-0.08-1.83-0.12-2.75c-0.04-0.39,0.11-0.57-0.29-0.74c0.04-0.02,0.08-0.04,0.11-0.05    c0.23-0.11,0.62-0.17,0.72-0.41c0.49,0.06,0.99,0.12,1.48,0.18c0.5,0.25,1,0.51,1.5,0.76c0.79,0.21,1.59,0.42,2.38,0.63    c0.55,0.06,1.11,0.12,1.66,0.18c0.35,0.14,0.7,0.28,1.05,0.42c1.09,0.36,2.1,0.8,3.11,1.34c0.36,0.11,0.73,0.21,1.09,0.32    c1.43,0.52,2.97,0.93,4.17,1.9c1.08,0.42,2.16,0.84,3.24,1.27c1.66,0.69,3.32,1.37,4.98,2.06c0.84,0.28,1.67,0.56,2.51,0.85    c1.65,0.6,3.43,0.17,5.15,0.17c0.45,0,1.82,0.42,2.03,0.83c0.24,0.05,1.32,0.35,1.34,0.4c0.19,0.53,0.31,0.96,0.35,1.54    c0.02,0.26-0.07,0.61,0.07,0.83c-0.54,1.5-1.12,3.12-1.25,4.71c0,0.62,0.01,0.77,0.01,1.39c0.23,0.51,0.23,0.74,0.46,0.97    c0.63-0.15,0.91-0.27,1.54-0.42c0.23-0.02,0.36-0.17,0.46-0.1c0.47,0.3,1.34,0.67,1.28,1.31c0.2,0.16,0.23,0.23,0.55,0.55    c0.19,0.05,0.38,0.09,0.57,0.14c0.24-0.69,0.48-1.39,0.72-2.08c0.41-0.35,0.33-0.62,0.74-0.97c-0.01-0.08,0.48-0.24,0.46-0.32    c0.46-0.03,0.92-0.71,1.39-0.74c0.89-0.85,1.48-1.18,2.49-1.85c0.18-0.23,0.4-0.61,1.52-0.42c0.44-0.01,0.64,0.29,1.04,0.35    c0.63,0.18,1.26,0.36,1.89,0.54c2.56,0.93,4,2.57,5.61,4.7c0.03,0.29,0.14,0.67,0,0.92c0.49,1.32,0.99,2.65,1.48,3.97    c0.25,0.46,0.49,0.92,0.74,1.39c0.09,0.8,0.18,1.6,0.28,2.4c-0.14,0.77-0.27,1.54-0.41,2.31c-0.1,1.6-0.21,3.21-0.31,4.81    c-0.19,1.48,0.3,3.05,0.42,4.52c0.06,0.47,0.12,0.94,0.18,1.41c-0.08,0.08-0.17,0.16-0.25,0.24c0.63,0.31,0.84,1.73,1.11,2.4    c0.39,0.96,1.51,2.04,2.29,2.7c0.47,0.4,0.81,0.78,1.07,1.33c0.18,0.04,0.15-0.02,0.15,0.14c0,0.52,0,1.04,0,1.56    c-0.42,1.45-2.13,2.16-3.3,2.8c-0.38,0.24-0.76,0.47-1.14,0.71c-1.04,0.58-2.1,1.93-1.37,3.14c0.27,0.47,0.57,1.32,1,1.66    c1.51,0.55,3.02,1.11,4.53,1.66c0.49,0.16,1.14,0.54,1.45,0.96c0.12-0.02,0.74,0.13,0.86,0.11v0.05c-0.36,0.43-0.71,0.87-1.07,1.3    c-0.17,0.28-0.33,0.55-0.5,0.83c-0.34,0.99-0.53,2.1-0.55,3.14c-0.06,0.65-0.12,1.29-0.18,1.94c0.15,0.49,0.31,0.99,0.46,1.48    c0.06,0.55,0.12,1.11,0.18,1.66c0.39,1.36,0.78,2.72,1.16,4.07c0.12,0.48,0.19,2.14-0.15,2.49c0.47,1.03,0.94,2.05,1.41,3.08    c0.33,0.94,0.66,1.88,0.99,2.82c0.19,0.35,0.68,1.26,1.02,1.4c0.22,0.33,0.44,0.65,0.66,0.98c0.46,0.35,0.91,0.7,1.37,1.05    c0.53,0.55,1.05,1.11,1.58,1.66c0.68,1.26,1.63,2.53,2.59,3.6L169.45,284.39z"/>
            <circle cx="129.64" cy="249.98" r="1.586"/>
        </g>
        <g id="__Divriği">
            <path d="M334.88,298.15    c0.03-0.03,0.15,0.03,0.18,0c0.18-0.21,0.77,0.01,0.65,0c0.35-0.09,0.5-0.02,1.1-0.02c1.02,0,2.03,0.01,3.05,0.01    c1.62,0,3.26,0.44,4.88,0.25c1.18-0.14,2.29-0.59,3.43-0.87c0.52-0.07,1.04-0.14,1.57-0.21c1.07-0.18,2.21-0.39,3.31-0.38    c0.78-0.03,1.55-0.06,2.33-0.09c1.85,0.18,3.69,0.37,5.54,0.55c0.7,0.02,1.4,0.04,2.11,0.06c0.24,0,0.68-0.05,0.85,0.13    c1.04-0.3,2.07-0.85,2.96-1.48c0.27-0.23,0.53-0.45,0.8-0.68c0.43-0.28,0.64-0.43,1.14-0.43c0.06-0.12,0.12-0.25,0.18-0.37    c0.52-0.49,1.05-0.99,1.57-1.48c0.27-0.19,0.54-0.39,0.81-0.58c0.87-0.76,1.74-1.52,2.61-2.28c1.02-0.77,2.03-1.54,3.05-2.31    c1.26-0.61,2.59-0.71,3.97-0.82c0.31,0,0.62-0.01,0.92-0.01c0.86-0.15,1.72-0.31,2.59-0.46c0.52-0.28,1.05-0.57,1.57-0.85    c0.37-0.18,0.74-0.36,1.11-0.54c0.53-0.4,0.65-1.06,0.99-1.58c1.15-1.74,1.86-3.67,2.59-5.6c0.35-0.93,0.68-1.53,0.95-2.47    c0.28-0.83,0.65-1.46,0.72-2.16c0.21-1.17,0.42-2.35,0.63-3.52c0.1-0.61,0.2-1.23,0.31-1.84c-0.11-0.51-0.26-2.08-0.55-2.4    c-0.09-1.32-0.18-2.65-0.28-3.97c-0.19-1.17-0.38-2.34-0.56-3.51c-0.18-1.91-0.36-3.82-0.55-5.72c0.21-1.33,0.36-3.16,1.39-4.16    c0.76-0.57,1.53-1.14,2.29-1.7c0.41-0.25,0.65-0.53,0.88-0.95c0.08-0.01,0.16-0.02,0.24-0.02c0-0.12,0-0.25,0-0.37    c0.04-0.95,0.08-1.9,0.12-2.85c0.18-1.25,0.62-2.35,0.62-3.62c-0.61-1.1-1.18-2.17-1.84-3.24c-0.28-0.46-0.56-0.92-0.83-1.38    c-0.23-0.29-1.06-1.1-1.39-1.11c-0.43-0.46-0.86-0.92-1.29-1.39c-0.16-0.12-0.32-0.23-0.48-0.35c-0.41-0.36-0.81-0.72-1.22-1.08    c-0.91-0.48-1.72-1.07-2.46-1.81c-0.46-0.46-1.03-0.72-1.48-1.2c-0.15-0.27-0.3-0.53-0.45-0.8c-0.51-0.73-0.72-1.56-0.77-2.43    c-0.02-0.31-0.05-0.62-0.07-0.92c-0.29-0.57-0.58-1.15-0.86-1.72c-0.17-0.34-0.6-1.39-0.89-1.51c-0.15-0.81-0.26-1.66-0.15-2.48    c0.11-0.37,0.22-0.75,0.33-1.12c1.17-1.08,2.34-2.16,3.51-3.23c0.39-0.35,0.69-0.6,1.11-0.92c-0.08-0.08-0.16-0.15-0.24-0.23    c-0.29-0.29-0.85-0.62-1.26-0.35c-0.55,0.38-0.68,0.89-1.23,1.27c-1.31,0-3.07,0.07-4.38-0.25c-0.46-0.12-0.93-0.23-1.39-0.35    c-1.06-0.1-2.26-0.35-2.54-1.42c-0.17-0.6-0.34-1.21-0.51-1.81c0-0.4,0-0.8,0-1.2c-0.1-0.46-0.21-0.92-0.31-1.38    c-0.05-0.59-0.1-1.17-0.15-1.76c-0.24-1-0.66-2.19-0.46-3.23c-0.18-0.51-0.32-0.94-0.37-1.48c-0.09-0.9-0.91-1.58-1.29-2.31    c-0.22-0.18-0.43-0.37-0.65-0.55c-1.64-0.73-3.54-0.9-5.26-0.55c-1.35-0.03-2.71-0.06-4.06-0.09c-0.28-0.09-0.55-0.18-0.83-0.28    c-0.95-0.22-1.59-1.05-2.38-1.52c-0.29-0.17-1.29-0.78-1.59-0.7c-1.07-0.71-2.33-1.5-3.23-2.4c-0.28-0.15-0.55-0.31-0.83-0.46    c-0.28-0.16-0.12-0.12-0.51-0.28c-0.3-0.16-0.39-0.25-0.69-0.28c-0.03,0.16-0.07,0.32-0.1,0.47c-0.18,1.22-0.06,2.57,0.02,3.86    c0.03,0.46,0.05,0.93,0.08,1.39c-0.12,0.28-0.25,0.55-0.37,0.83c-0.32,0.36-0.64,0.72-0.96,1.08c-0.21,0.25-0.49,0.67-0.79,0.77    c-0.67,1.2-1.23,2.54-1.61,3.87c-0.51,1.78,0.31,3.72-0.05,5.55c-0.2,1.03-1.69,2.73-2.4,3.51c-0.89,0.92-1.79,1.85-2.68,2.77    c-0.62,0.43-1.23,0.86-1.85,1.29c-1.14,0.41-2.28,0.82-3.41,1.22c-1.48,0.45-3.09,0.13-4.58-0.25c-0.57-0.19-1.14-0.38-1.71-0.57    c-0.18,0.02-0.37,0.05-0.55,0.07c-0.58-0.04-1.17-0.07-1.75-0.11c-0.71-0.18-1.35-0.44-1.98-0.83c-0.21-0.13-0.45-0.48-0.7-0.46    c-0.73-1.07-1.58-1.76-2.49-2.66c-0.65-0.62-1.3-1.24-1.95-1.86c-1.06-0.7-2.27-1.07-3.59-0.78c-0.54,0.12-1.19,0.13-1.23,0.78    c-0.06,1.02-0.11,2.03-0.17,3.05c0.03,0.49,0.06,0.99,0.09,1.48c-0.15,0.59-0.5,1.03-0.82,1.54c-0.16,0.26-0.32,0.51-0.48,0.77    c-0.09,0.34-0.18,0.68-0.28,1.02c-0.52,0.71-1.04,1.42-1.56,2.12c-0.65,0.86-1.3,1.72-1.95,2.59c-0.68,1.22-1.3,1.97-2.49,2.77    c-0.45,0.3-0.61,0.74-1.11,0.69c-1.72-0.11-4.24,0.22-5.51,1.56c-0.95,1-1.1,2.43-2.06,3.39c-0.19,0.02-0.37,0.04-0.56,0.05    c-2.55,0.47-4.76,1.72-6.99,2.97c-0.53,0.43-1.06,0.87-1.6,1.3c-0.16,0.19-0.19,0.4-0.19,0.4c0.48,0.77,0.72,1.15,1.2,1.92    c0.44,0.39,0.84,0.79,1.22,1.21c0.41,0.45,0.79,0.91,1.17,1.41c0.25,0.3,0.5,0.59,0.74,0.89c0.43,0.62,0.86,1.23,1.29,1.85    c0.31,0.25,0.62,0.49,0.92,0.74c0.31,0.12,0.62,0.25,0.92,0.37c0.77,0.12,1.54,0.25,2.31,0.37c1.17,0.26,2.34,0.53,3.51,0.79    c0.09,0.01,0.18,0.03,0.28,0.04c-0.04,0.06-0.07,0.12-0.11,0.18c0.41,0.41,0.34,0.95,0.36,1.47c0.01,0.16,0.02,0.31,0.03,0.47    c-0.29,0.02-0.44,0.55-0.55,0.83c-0.42,0.81-0.84,1.61-1.26,2.42c-0.22,0.54,0.24,1.79,0.26,2.42c-0.02,0.63-0.05,1.27-0.07,1.9    c0.06,0.97,0.06,2.25,0.43,3.15c-0.19,0.16-0.08,0.42-0.07,0.65c-0.07,0.46-0.14,0.92-0.21,1.38c0.02,0.06,0.04,0.13,0.06,0.19    c-0.05,0.61-0.1,1.23-0.15,1.84c-0.18,0.62-0.37,1.23-0.55,1.85c0.17,0.12,0.2,0.29,0.29,0.48c0.15,0.28,0.56,0.44,0.83,0.6    c0.84,0.5,1.81,0.73,2.75,0.9c0.61,0.11,1.2,0.11,1.86,0.05c0.21,0.25,1.75,0.31,2.13,0.25c0.55,0,1.1,0,1.66,0    c0.77,0.01,1.52,0.06,2.26,0.17c0.54,0.08,1.08,0.18,1.62,0.33c0.04,0.31,0.36,0.42,0.55,0.65c0.48,0.56,0.89,1.11,1.45,1.6    c0.59,0.37,1.19,0.75,1.78,1.12c0.46,0.29,0.93,0.59,1.39,0.88c0.57,0.55,1.15,1.09,1.72,1.64c0.69,0.66,1.38,1.31,2.07,1.96    c0.28,0.62,0.55,1.23,0.83,1.85c0.24,0.74,0.51,1.47,0.82,2.19c0.46,1.06,0.99,2.1,1.59,3.08c0.5,0.81,1.05,1.58,1.65,2.3    c0.37,1.2,0.73,2.4,1.1,3.6c0.16,0.63,0.32,1.25,0.48,1.88c0.27,1.07,0.55,2.14,0.82,3.2c0.08,0.73,0.16,1.47,0.24,2.21    c0.13,0.34,0.27,0.69,0.4,1.03c-0.08,0.2,0.04,0.44,0.09,0.65c-0.06,0.2-0.12,0.39-0.18,0.59L334.88,298.15z"/>
            <circle cx="359.24" cy="247.1" r="1.586"/>
        </g>
        <g id="__Ulaş">
            <path d="M279.28,227.3    c-0.59,0-1.18,0.01-1.77,0.01c-0.25-0.04-0.5,0.02-0.64-0.2c-0.34,0.09-0.67,0.18-1.01,0.27c-0.37,0-0.74,0-1.11,0    c-0.09,0.12-0.18,0.25-0.28,0.37c-0.4,0.34-0.79,0.68-1.19,1.02c-0.31,0.43-0.62,0.86-0.94,1.29c-0.26,0.65-0.52,1.29-0.82,1.92    c-0.23,0.5-0.49,0.99-0.79,1.47c-0.22,0.35-0.46,0.7-0.7,1.04c-0.23,0.33-0.48,0.66-0.73,0.98c-0.16,0.21-0.33,0.41-0.5,0.62    c-0.09,0.11-0.18,0.22-0.27,0.33c-0.13,0.15-0.26,0.3-0.39,0.45c-0.14,0.15-0.27,0.31-0.41,0.46c-0.1,0.1-0.19,0.21-0.29,0.31    c-0.28,0.29-0.56,0.58-0.85,0.86c-0.19,0.19-0.39,0.37-0.59,0.56c-0.64,0.59-0.9,0.94-1.11,1.4c-0.14,0.32-0.26,0.69-0.45,1.22    c-0.08,0.23-0.38,0.87-0.66,0.87c-0.16,0-0.32,0-0.48,0c-2.12-0.36-1.46-0.22-1.95-0.3c-0.64-0.15-1.29-0.31-1.93-0.57    c-0.35-0.26-0.7-0.16-1.04-0.27c-0.38-0.08-0.76-0.15-1.15-0.06c-0.67-0.05-1.49,0.02-1.97,0.56c-0.19,0.18-0.37,0.37-0.56,0.55    c-0.11,0.37-0.27,0.73-0.48,1.07c-0.22,0.36-0.48,0.71-0.78,1.05c-0.23,0.52-0.11,1.12-0.22,1.66c0.07,0.37,0.15,0.74,0.22,1.11    c0.08,0.4,0.16,0.8,0.24,1.2c-0.06,0.46,0.01,2.36-0.73,2.29c-0.89-0.13-1.42-0.89-1.99-1.59c-0.32-0.39-0.65-0.75-1.06-0.98    c-0.46-0.25-1.07-0.48-1.58-0.52c-0.46-0.04-0.92-0.08-1.38-0.13c-1.31,0.12-2.42,0.45-3.62,0.95c-0.28,0.11-0.99,0.6-1.28,0.35    c-0.72,0.42-1.44,0.84-2.16,1.26c-0.29-0.12-0.7,0.19-0.97,0.32c-0.33,0.16-1.01,0.71-1.4,0.54c-0.23,0.23-0.3,0.43-0.65,0.46    c-0.06,0.28-0.12,0.55-0.18,0.83c-0.8-0.25-1.59-0.38-2.5-0.38c-0.3,0-0.8,0.18-0.99-0.09c0.01,0.11-0.29,0.12-0.48,0.1    c-0.4-0.03-0.44-0.16-0.83-0.18c-0.12,0.34-0.52,0.03-0.65,0.37c-0.22,0.06-0.43,0.12-0.65,0.18c-0.2,0.18-0.56,0.63-0.83,0.55    c-0.12,0.23-0.23,0.65-0.46,0.74c-0.16,0.55-0.4,1.06-0.43,1.64c-0.07,0.04-0.15,0.08-0.22,0.12c0.17,0.33,0.25,0.64,0.28,1.02    c-0.32,0.09-0.78,0.43-1.02,0.28c-0.28,0.65-0.55,1.29-0.83,1.94c-0.32,0.87-1.41,1.19-1.63,2.32c-0.15,0.75-0.97,1.15-1.46,1.7    c-0.72,0.98-1.44,1.96-2.16,2.95c-0.39,0.67-0.78,1.34-1.17,2.01c-0.01,0.12-0.02,0.24-0.03,0.36c-0.28,0.62-0.55,1.23-0.83,1.85    c-0.73,0.77-1.47,1.55-2.2,2.32c-0.52,0.6-0.97,1.24-1.68,1.65c-1.96,1.11-4,1.53-6.19,1.94c-1.08,0.28-2.17,0.57-3.25,0.85    c-0.86,0.12-1.71,0.23-2.57,0.35c-0.38,0.09-1.23-0.11-1.48,0.18c-0.66-0.43-2.6-1.06-3.13-0.45l-0.19-0.66    c-0.06-0.49-0.12-0.99-0.18-1.48c-0.02-0.33-0.05-1.85,0.09-2.03c-0.57-1.56-1.02-3.03-2.22-4.25c-0.25-0.31-0.49-0.62-0.74-0.92    c-0.22-0.65-0.43-1.29-0.65-1.94c0.18-0.71,0.37-1.42,0.55-2.12c0.86-1.32,2.31-2.81,2.12-4.53c-0.04-0.39,0.3-0.74,0.18-1.11    c0.4-0.59,0.79-1.17,1.19-1.76c0.08-0.19,0.26-0.59,0.47-0.64c0.02-0.49,0.03-0.99,0.05-1.48c0.04-0.83,0.08-1.66,0.13-2.49    c-0.02-0.27-0.03-0.55-0.05-0.82c-0.56-0.83-1.55-1.54-2.46-1.99c-0.15-0.3-0.69-0.55-1-0.7c-0.47-0.22-1.07-0.18-1.57-0.18    c-0.36-0.36-1.79-0.46-2.31-0.45c-0.65,0.03-1.29,0.06-1.94,0.08c-0.68-0.12-1.36-0.25-2.04-0.37c-2.3-0.12-2.36,0.17-3.59,0.35    c-0.25,0-1.06-0.31-1.13-0.53c-0.52-1.66-0.27-2.99-0.33-4.68c0.05-0.24,0.11-0.48,0.16-0.73c0.28-0.7,0.56-1.41,0.84-2.11    c0.22-0.54,0.44-1.09,0.66-1.63c0.21-0.28,0.42-0.55,0.62-0.83c0.26-0.41,0.51-0.83,0.77-1.24c0.34-0.27,0.67-0.53,1.01-0.8    c0.46-0.49,0.92-0.99,1.39-1.48c0.47-0.27,0.94-0.55,1.41-0.82c0.48-0.25,0.97-0.5,1.45-0.75c0.94-1.03,1.86-1.84,2.68-2.96    c0.13-0.18,0.34-0.42,0.55-0.37c0.4-0.62,0.96-1.05,1.4-1.64c0.71-0.95,1.02-2.17,1.74-3.07c0.41-0.51,1.24-0.69,1.83-0.88    c0.49-0.16,1.58-0.36,1.78-0.87c0.22-0.12,0.43-0.24,0.65-0.36c0.17-0.15,0.37-0.26,0.46-0.47c0.51-0.35,1.02-0.71,1.52-1.06    c0.2-0.19,0.59-0.74,0.88-0.7c1.01-1.26,2.12-2.38,3.2-3.54c0.15-0.77,1.54-2.97,2.16-3.39c0.39-0.27,0.36-0.9,0.83-1.11    c0.08-0.28,0.15-0.74,0.46-0.83c0.25,0.06,1.36,0.28,1.41,0.1c0.17-0.55,0.34-1,0.87-1.29c0.03-0.22-0.04-0.19,0.12-0.2    c0.29-0.01,0.73-0.1,0.85,0.06c0.12,0.17,0.13,0.27,0.35,0.31c0.07,0.18,0.14,0.36,0.22,0.54c0.22,0.15,0.69,0.77,0.71,1.03    c0.37,0.34,0.74,0.68,1.11,1.02c0.31,0.31,0.55,0.93,1.02,1.02c1.02,1.35,2.03,2.71,3.05,4.06c0.34,0.37,0.68,0.74,1.02,1.11    c0.23,0.13,0.53,0.23,0.65,0.46c0.37,0.15,1.17,0.35,1.29,0.74c0.28,0.09,0.55,0.18,0.83,0.28c0.4,0.31,0.8,0.62,1.2,0.92    c0.89,0.4,1.79,0.8,2.68,1.2c0.68,0.13,1.35,0.25,2.03,0.38c0.31,0.03,0.62,0.05,0.93,0.08c2.15,0.46,4.41,0.35,6.56,0.74    c0.31-0.03,0.62-0.06,0.92-0.1c0.92-0.01,2.01,0.15,2.9-0.12c0.75-0.23,1.6-0.27,2.36-0.14c0.73,0.23,1.46,0.46,2.19,0.7    c0.32,0.16,0.64,0.33,0.96,0.49c0.47,0.38,0.94,0.75,1.41,1.13c0.25,0.27,0.49,0.54,0.74,0.82c0.24,0.12,0.47,0.24,0.71,0.36    c0.68,0.03,1.35,0.06,2.03,0.09c0.95-0.17,1.9-0.33,2.85-0.5c0.41-0.11,0.81-0.22,1.22-0.33c0.29-0.16,1.38-0.85,1.57-0.83    c0.75-1.16,2.2-2.4,3.45-3c0.34-0.17,0.94-0.61,1.36-0.51c0.72-0.31,1.43-0.62,2.15-0.93c0.36-0.06,0.72-0.11,1.09-0.17    c0.75-0.04,2.08,0.23,2.77,0.51c0.34,0.16,0.68,0.33,1.02,0.49c0.37,0.07,0.74,0.15,1.11,0.22c0.38,0.23,0.76,0.45,1.14,0.68    c1.04,0.47,2.07,0.94,3.11,1.41c0.25,0.06,0.49,0.12,0.74,0.18l0.2-0.1c0.25,0.48,0.69,0.76,1.09,1.32    c0.16,0.23,1.36,1.91,1.28,2.09c-0.08,0.18-0.11,0.32-0.1,0.45L279.28,227.3z"/>
            <circle cx="214.05" cy="234.21" r="1.586"/>
        </g>
        <g id="__Akıncılar">
            <path d="M386.59,110.85    c0,0.24-0.3,1.11-1.09,1.22c-0.06,0.05-0.12,0.09-0.18,0.14c-0.3-0.16-0.58-0.33-0.94-0.32c-0.02-0.07-0.07,1.06-0.58,1.35    c-0.25,0.13-0.7,0.17-0.79,0.44c-0.48-0.13-1.04-0.17-1.44,0.16c-0.11-0.06-0.13-0.11-0.12,0.02c0.02,0.37,0.14,0.54,0.35,0.86    c1.02,0.33,2.26,1.99,3.53,1.21c0.6-0.35,1.05-0.82,1.37-1.44c0.09-0.14,0.18-0.28,0.27-0.41c-0.09-0.28-0.3-1.06-0.54-1.14    c0.07-0.12,0.15-0.23,0.22-0.35c0.59-0.72,1.44-1.46,1.44-2.42c0.1-0.16,0.43-0.55,0.33-0.71c-0.18-0.27-0.69-1.23-0.98-1.23    c0.06-0.08,0.13-0.17,0.19-0.25c0.13-0.16,0.06-0.21,0.29-0.26c0.09-0.05,0.18-0.09,0.27-0.14c0.29,0.01,0.5,0.09,0.74-0.09    c0.22,0.15,0.38,0.28,0.65,0.28c0.34,0.25,0.68,0.49,1.02,0.74c0.34,0.43,0.67,0.86,1.01,1.29c0.55,0.43,1.11,0.86,1.66,1.29    c0.36,0.05,0.58,0.1,0.92,0.18c0.52,0.28,1.05,0.55,1.57,0.83c0.18,0,0.36-0.01,0.54-0.01c0.26-0.07,0.52-0.14,0.78-0.21    l0.25-0.05c0.18,0.31,1.43,0.6,1.84,0.75c0.68,0.24,1.18,0.76,1.86,1c0.51-0.05,1.29-0.46,1.57-0.55c0.18-0.19,0.74-1.2,0.92-1.57    c0.28-0.46,0.79-1.44,2.17-2.54c0.23-0.32,0.46-0.37,0.83-0.46c0.69,0.46,0.8,1.01,1.71,1.34c0.41-0.06,0.9,0.18,1.43,0.09    c0.49-0.08,1.02-0.48,1.4-0.53c0.07-0.01,0.13-0.01,0.18,0c0.34,0.07,0.18,0.64,0.31,1c0.01,1.29,0.02,2.58,0.03,3.87    c0.08,1.24,0.01,1.82,0.43,3.05c-0.05,0.69-0.05,1.27-0.06,1.57c0.02,0.94,0.04,1.89,0.06,2.83c0.09,0.1,0.28,0.99,0.38,1.09    c0.23,0.88,0.44,1.13,0.74,2.08c0.47,1.51,0.46,2.17,0.46,3.46c-0.02,0.17,0,1.39-0.46,1.62c-0.19,0.21-0.14,0.23-0.37,0.23    c-0.05,0.04-0.32-0.09-0.37-0.05c-0.18,0.05-0.25-0.1-0.47-0.07c-0.67-0.01-1.35-0.02-2.02-0.03c-0.22,0.03-0.43,0.06-0.65,0.09    c-0.42,0.26-0.85,0.51-1.27,0.77c-1.81,1.22-2.64,3.16-3.09,5.23c-0.07,0.49-0.14,0.98-0.22,1.47c-0.35,1.17-0.59,2.63-0.94,3.8    c0.02,0.28,0.42,0.32,0.51,0.55c-0.32,0.39-0.81,0.86-0.83,0.92c-0.67,1.25-2.06,2.47-2.47,3.05c-1.05,1.14-0.85,0.94-1.89,2.08    c-0.17,0.28-0.63,0.8-0.95,1.08c-0.08,0.14-0.23,0.49-0.41,0.91c-0.29,0.44-0.58,0.89-0.87,1.33l-0.03,0.11    c-0.37-0.28-0.9-0.8-1.3-1.25c-0.33-0.38-1.66-1.2-1.75-1.48c-0.49-0.1-0.92-0.25-1.38-0.46c-1.02-0.49-2.09-0.87-3.16-1.26    c-0.3-0.1-0.61-0.2-0.91-0.31c-0.83-0.12-1.66-0.25-2.49-0.37c-0.46-0.17-0.93-0.34-1.39-0.51c-0.95-0.14-1.9-0.28-2.85-0.42    c-0.91-0.21-1.79-0.75-2.6-1.16c-0.46-0.23-0.92-0.46-1.37-0.68c-0.57-0.34-1.28-0.62-1.96-0.8l0.16-0.27c0-0.18,0-0.36,0-0.55    c-0.14-0.48-0.28-0.95-0.42-1.43c0.36-0.08,0.69-1.42,0.96-1.86c0.26-0.36,0.53-0.73,0.79-1.09c0.42-0.94,0.85-1.88,1.27-2.82    c0.44-0.69,0.88-1.38,1.31-2.08c0-2.29-1.27-3.83-2.49-5.63c-0.22-0.47-0.45-0.94-0.67-1.41c-0.39-0.55-0.78-1.09-1.17-1.64    c0.14-0.22-0.08-1.13-0.09-1.48c-0.02-0.74,0.25-1.54,0.57-2.2c0.22-0.45,0.99-1.8,1.37-2.05c0.51-0.49,1.25-0.9,1.76-1.39    c0.45-0.56,0.54-1.27,0.86-1.92c0.15-0.28,0.29-0.57,0.44-0.85c0.34-0.37,0.68-0.74,1.02-1.11c0.22-0.15,0.43-0.3,0.65-0.45    c0.34-0.22,0.67-0.44,1.01-0.66c0-0.34,0.94,0.01,1.2-0.18c0.63-0.01,0.22,0.2,0.83-0.09    C385.12,112.24,386.59,110.85,386.59,110.85z"/>
            <circle cx="390.14" cy="122.41" r="1.586"/>
        </g>
        <g id="__Gölova">
            <path d="M411.23,109.37    c0.34,0.07,0.18,0.64,0.31,1c0.01,1.29,0.02,2.58,0.03,3.87c0.08,1.24,0.01,1.82,0.43,3.05c-0.05,0.69-0.05,1.27-0.06,1.57    c0.02,0.94,0.04,1.89,0.06,2.83c0.09,0.1,0.28,0.99,0.38,1.09c0.23,0.88,0.44,1.13,0.74,2.08c0.47,1.51,0.46,2.17,0.46,3.46    c-0.02,0.17,0,1.39-0.46,1.62c-0.19,0.21-0.14,0.23-0.37,0.23c-0.05,0.04-0.32-0.09-0.37-0.05c-0.18,0.05-0.25-0.1-0.47-0.07    c-0.67-0.01-1.35-0.02-2.02-0.03c-0.22,0.03-0.43,0.06-0.65,0.09c-0.42,0.26-0.85,0.51-1.27,0.77c-1.81,1.22-2.64,3.16-3.09,5.23    c-0.07,0.49-0.14,0.98-0.22,1.47c-0.35,1.17-0.59,2.63-0.94,3.8c0.02,0.28,0.4,0.38,0.52,0.58l0.17-0.26    c0.78-0.78,1.37-1.56,2.15-2.35c0.18-0.03,0.37-0.06,0.55-0.08c0.77-0.03,1.54-0.07,2.31-0.1c0.7,0.19,1.43,0.52,2.03,0.92    c0.46,0.22,0.92,0.43,1.39,0.65c0.56,0.4,1.19,0.82,1.85,1.09c0.65,0.38,1.3,0.77,1.94,1.15c0.21,0.11,0.42,0.21,0.63,0.32    c0.57-0.13,1.02-0.47,1.48-0.81c0.58-0.34,1.17-0.68,1.76-1.02c1.05-0.52,2.09-1.05,3.14-1.57c1.02-0.74,2.03-1.48,3.05-2.22    c1.17-0.81,2.35-1.63,3.52-2.44c0.16-0.03,0.25-0.01,0.36-0.14c0.74,0.28,1.48,0.55,2.22,0.83c0.31,0.21,0.99,0.3,1.29,0    c0.16-0.24,0.32-0.48,0.47-0.73c0.37-0.59,0.67-1.3,1.2-1.75c0.18-0.13,0.36-0.25,0.55-0.38c0.84-0.03,1.83,0.23,2.59,0.55    c1.33,0.33,2.65,0.66,3.98,0.98c0.58,0.1,1.16,0.2,1.75,0.29c0.23,0.03,0.55,0.17,0.75,0.03c0.26-0.17,0.51-0.17,0.6-0.49    c0.13-0.76,0.25-1.52,0.38-2.29c0.22-0.9,0.45-1.79,0.67-2.69c0.15-0.95,0.31-1.91,0.46-2.86c0.01-0.37,0.01-0.74,0.02-1.11    c0.09-0.97,0.16-1.67-0.57-2.4c0-0.23-0.13-0.69-0.36-0.77c-0.41-0.14-0.82-0.27-1.22-0.41c-0.75,0.17-1.42,0.38-1.98,0.94    c-0.35,0.35-0.71,1.16-1.24,1.16c-0.99,0.03-1.97,0.06-2.96,0.09c-0.18-0.09-0.37-0.18-0.55-0.28c-0.25-0.15-0.49-0.31-0.74-0.46    c-0.53-0.33-1.12-0.48-1.57-0.92c-0.43-0.1-1.56-0.7-1.76-1.11c-0.62-0.37-1.23-0.74-1.85-1.11c-1.64-0.19-3.37,0.25-4.99,0.46    c-0.55,0.03-1.11,0.06-1.66,0.09c-0.68,0.09-1.35,0.18-2.03,0.28c-0.34-0.18-0.68-0.37-1.02-0.55c-1-0.24-2.51-1.61-3.33-2.31    c-0.77-0.66-1.98-1.18-2.31-2.22c-0.71-0.52-1.42-1.04-2.14-1.55c-0.21-0.14-0.73-0.7-0.74-0.85c-0.08-1.23,0.06-2.37,0.22-3.6    c0.01-0.52,0.02-1.03,0.02-1.55c-0.13-0.2-0.46-0.12-0.69-0.12c-0.68,0.09-0.85,0.09-1.52,0.18L411.23,109.37z"/>
            <circle cx="423.52" cy="129.89" r="1.586"/>
        </g>
        <g id="__Koyulhisar">
            <path d="M297.78,102.81    c0.77-1.18,1.89-2.33,3.09-3.09c0.35-0.27,0.69-0.53,1.04-0.8c0.77-0.39,1.66-0.39,2.49-0.33c0.62,0.08,1.23,0.16,1.85,0.23    c1.52,0.3,2.91,1.26,4.34,1.82c1.94,0.56,3.88,1.12,5.82,1.69c0.21,0.17,0.43,0.33,0.64,0.5c0.27,0.27,0.53,0.54,0.8,0.81    c0.29,0.52,0.58,1.03,0.87,1.55c0.66,0.72,1.3,1.4,2.13,1.92c0.52,0.22,1.04,0.44,1.56,0.66c1.09,0.39,2.18,0.79,3.27,1.18    c0.79,0.22,1.58,0.45,2.36,0.67c0.55,0.76,1.09,1.53,1.64,2.29l1.5-0.72c0.32-0.09,0.64-0.18,0.96-0.27    c0.8-0.49,1.6-0.98,2.4-1.47c0.2-0.1,0.4-0.2,0.6-0.3c0.25,0.13,0.67-0.12,0.84-0.37c0.43-0.15,0.86-0.31,1.29-0.46    c0.61-0.1,1.15-0.18,1.7-0.48c0.87-0.47,1.46-1.34,2.23-1.96c0.29-0.2,0.59-0.41,0.88-0.61c0.58-0.84,0.99-1.44,1.02-2.49    c0-0.28-0.01-0.55-0.01-0.83c0.12-0.34,0.25-0.68,0.37-1.02c0.47-0.44,1.66-1.67,2.22-1.85c0.37-0.4,0.73-0.81,1.1-1.21    c0.23-0.24,0.44-0.61,0.75-0.73c-0.12-0.22,0.12-0.83,0.37-0.92c-0.04-0.45-0.09-2.03-0.37-2.31c0.03-0.85,0.1-1.65,0.18-2.49    c-0.03-0.8-0.05-1.6-0.08-2.4c0-0.77-0.01-1.54-0.01-2.31c-0.4-0.65-0.8-1.29-1.2-1.94c-0.13-0.4-0.26-0.8-0.39-1.2    c-0.09-0.37-0.17-0.74-0.26-1.11c-0.27-0.71-0.35-1.35-0.28-2.12c0.14-1.52,0.94-2.32,1.6-3.63c0.3-0.67,0.6-1.34,0.89-2    c0.3-0.54,0.59-1.08,0.89-1.62c0.26-0.69,0.53-1.37,0.79-2.06c0.58-0.93,1.16-1.86,1.74-2.79c0.17-0.32,0.54-0.67,0.55-1.02    c0.77-0.62,1.54-1.23,2.31-1.85c1.11-0.03,2.17-0.31,3.25-0.44c0.67,0,1.34-0.01,2.01-0.01c0.89-0.05,1.78-0.09,2.68-0.14    c0.49-0.05,0.99-0.1,1.48-0.14c0.33,0.13,0.4,0.35,0.74,0.18v-0.55c0.18-1.26,0.37-2.52,0.55-3.79c0.18-1.11,0.37-2.22,0.55-3.33    c-0.06-1.08-0.12-2.16-0.18-3.23c-0.34-0.65-0.68-1.29-1.02-1.94c-0.75-0.69-1.6-1.15-2.4-1.75c-0.29-0.22-0.74-0.25-0.92-0.55    c-1.66-0.4-3.33-0.8-4.99-1.2c-1.07-0.11-2.15-0.23-3.22-0.34c-1.93-0.32-3.52-0.52-5.46-0.12c-0.89,0.25-1.79,0.49-2.68,0.74    c-0.71,0.64-1.76,2.04-2.59,2.4c-0.16,0.01-0.31,0.03-0.47,0.04c-0.2,0.03-0.41-0.01-0.55,0.14c-0.69-0.21-1.57-0.61-2.31-0.55    c-0.93,0.07-1.61,0.84-2.4,1.2c-1.08,1.71-1.03,3.95-1.44,5.9c-0.14,0.74-0.27,1.49-0.41,2.23c-0.18,0.32-0.37,0.64-0.55,0.96    c0.12,0.21-0.08,0.39-0.28,0.52c0.12,0.26-0.24,1.08-0.55,1.11c-0.1,0.75-0.3,1.35-0.54,2.05c-0.31,0.58-0.62,1.16-0.94,1.73    c-0.31,1.02-1.05,1.85-1.37,2.89c-0.28,0.92-0.16,1.82-0.38,2.75c-0.25,0.49-0.51,0.98-0.76,1.47c-0.18,0.31-0.58,0.77-0.53,1.12    c-0.55,0.43-1.11,0.86-1.66,1.29c-0.24,0.18-0.66,0.26-0.74,0.55c-0.28,0.05-0.55,0.1-0.83,0.15c-0.76,0.18-1.38,0.35-2.16,0.07    c-0.1-0.03-0.2-0.06-0.29-0.09c-0.94-0.94-1.71-2.19-2.42-3.37c-0.25-0.37-0.5-0.73-0.76-1.1c-0.92-0.86-1.83-1.73-2.75-2.59    c-0.43,0.03-1.27-0.46-1.69-0.64c-1.26-0.53-2.22-0.42-3.28,0.29c-0.2,0.13-0.62,0.46-0.59,0.72c-0.17,0.19-0.66,0.69-0.66,0.74    c-0.06,0.94,0.07,1.83,0.03,2.77c0.03,0.55,0.06,1.11,0.08,1.66c-0.03,0.28-0.15,0.78,0,1.02c-0.16,0.5-0.38,0.92-0.66,1.36    c0.07,0.81-0.98,1.43-1.56,1.77c-0.24,0.13-0.48,0.25-0.73,0.38c-1.59-0.16-3.23-0.57-4.72-1.15c-0.26-0.1-0.54-0.33-0.82-0.32    c-0.22-0.15-0.43-0.31-0.65-0.46c-1.05-1.17-2.09-2.34-3.14-3.51c-0.36-0.27-1.05-0.74-1.11-1.2c-0.25-0.18-0.49-0.37-0.74-0.55    c-0.84-0.33-1.67-0.66-2.51-1c-0.7-0.24-1.27-0.34-1.74-0.94c-0.81-0.11-1.34-0.06-2.05-0.58c-0.43-0.35-0.85-0.7-1.28-1.06    c-0.24,0.96-0.13,1.81-0.19,2.84c-0.16,1.11-0.32,2.22-0.48,3.33c-0.1,0.94-0.02,1.85-0.24,2.77c-0.17,0.36-0.33,0.73-0.5,1.09    c-0.45,0.97-0.89,1.99-1.62,2.79c-0.27,0.32-0.53,0.65-0.8,0.97c-0.23,0.2-0.3,0.27-0.57,0.57c-0.05,0.14-0.32,0.23-0.48,0.42    c-0.05,0.14-0.07,0.08,0.09,0.25c1.32,1.41,2.67,2.69,4.21,3.79c0.23,0.43,0.96,1.02,1.33,1.38c0.68,0.8,1.36,1.6,2.04,2.4    c0.12,0.79,0.25,1.59,0.37,2.38c0.49,0.77,0.98,1.53,1.47,2.3c0.2,0.29,0.7,1.33,0.93,1.42c0.17,1.43,0.29,2.73,1.08,3.99    c0.15,0.24,0.73,1.06,0.95,1.11c0.37,0.28,0.51,0.28,0.79,0.54L297.78,102.81z"/>
            <circle cx="319.27" cy="85.11" r="1.586"/>
        </g>
        <g id="__Suşehri">
            <path d="M386.85,110.43    c0.05-0.2-0.08-0.24-0.16-0.43c-0.03-0.06-0.06-0.13-0.08-0.19c-0.11,0.19-0.47,0.19-0.69,0.29c-0.72,0.32-1.51,0.47-2.18,0.92    c-0.25,0.09-0.49,0.18-0.74,0.28c-0.25-0.32-1.74-0.4-2.22-0.37c-0.07-0.21-0.27-0.26-0.46-0.37c-0.33,0.06-0.66,0.13-0.98,0.19    c-0.32,0.25-0.64,0.49-0.96,0.74c-0.16-0.1-0.47-0.05-0.66-0.02c-0.06,0.01-0.12,0.01-0.18,0.02c-0.03,0-0.06,0-0.09,0.01    c0.07,0.04,0.14,0.08,0.21,0.12c-0.1,0.3,0.1,0.47,0.25,0.71c-0.29,0.04-0.18,0.03-0.27,0.24c-0.08,0.27-1.14,0.16-1.38,0.07    c-0.35-0.13-0.72-0.77-0.9-1.15c0.04-0.27,0.08-0.55,0.13-0.82c0.07-0.26-0.87-0.06-1-0.04c-0.61,0.08-1.23,0.15-1.84,0.23    c-0.63,0.18-0.91,0.33-1.56,0.29c-0.46-0.03-1.06-0.6-1.35-0.97c-0.01-0.02-0.03-0.04-0.04-0.06c0.22-0.21,0.12-0.4,0.24-0.68    c-0.2-0.44-0.21-1.16-0.05-1.63c-0.17-0.22-0.34-0.45-0.51-0.67c-0.03-0.05,0.19-0.31,0.26-0.42c0.3-0.45,1.39-0.21,1.82-0.1    c0.24-0.37,1.74-0.03,2.05,0.3c0.69,0,0.93,0.22,1.46,0.53c0.4-0.08,0.94,0.28,1.29,0.46c0.69-0.28,1.75,1,2.21,1.39    c0.25,0.22,1.76-0.2,2.21-0.21c0.34,0.1,0.69,0.2,1.03,0.29c0.42-0.11,0.88-0.05,1.2-0.37c0.25,0.06,0.49,0.12,0.74,0.18    c0.51-0.22,1.21-0.46,1.75-0.55c0.4-0.23,0.79-0.45,1.19-0.68c0.12-0.07,0.18-0.37,0.25-0.53c0.16-0.33-0.34-0.77-0.52-1    c0.09-0.15,0.18-0.31,0.28-0.46c0.21-0.18,0.42-0.36,0.63-0.54l0.02-0.5c-0.92-0.66-1.7-1.45-2.68-2.01    c-0.37-0.06-0.74-0.13-1.11-0.19c-0.59-0.13-1.18-0.25-1.76-0.38c-0.95-0.3-1.38-0.96-2.39-0.63c-0.33-0.45-0.77-0.72-1.32-0.86    c-0.95-0.18-1.89-0.35-2.84-0.53c-0.46-0.04-0.93-0.08-1.39-0.12c-1.12-0.22-2.24-0.07-3.32-0.52c-1.09-0.94-2.18-1.88-3.28-2.82    c0.03-0.06,0.06-0.12,0.09-0.18c-0.22-0.59-0.14-1.35,0.01-1.96c0.12-0.45,0.39-0.79,0.63-1.2c0.26-0.5,0.53-1,0.79-1.5    c0.03-0.31,0.07-0.62,0.1-0.92c-0.06-0.62-0.11-1.23-0.17-1.85c-0.32-2.25-0.63-4.49-0.95-6.74c-0.46-1.29-0.92-2.59-1.39-3.88    c-0.25-0.95-0.49-1.91-0.74-2.86c-0.08-0.38-0.16-0.76-0.24-1.14c-0.34-1.38-0.67-2.75-1.01-4.13c0.02-0.64,0.03-1.29,0.05-1.93    c-0.19-1.04-0.04-2.23,0.06-3.24c0.01-0.15,0.02-0.31,0.03-0.46c-0.34,0.17-0.4-0.05-0.74-0.18c-0.49,0.05-0.99,0.1-1.48,0.14    c-0.89,0.05-1.78,0.09-2.68,0.14c-0.67,0-1.34,0.01-2.01,0.01c-1.08,0.13-2.13,0.4-3.25,0.44c-0.77,0.62-1.54,1.23-2.31,1.85    c-0.01,0.35-0.38,0.7-0.55,1.02c-0.58,0.93-1.16,1.86-1.74,2.79c-0.26,0.69-0.53,1.37-0.79,2.06c-0.3,0.54-0.59,1.08-0.89,1.62    c-0.3,0.67-0.6,1.34-0.89,2c-0.65,1.31-1.46,2.11-1.6,3.63c-0.07,0.77,0,1.41,0.28,2.12c0.09,0.37,0.17,0.74,0.26,1.11    c0.13,0.4,0.26,0.8,0.39,1.2c0.4,0.65,0.8,1.29,1.2,1.94c0,0.77,0.01,1.54,0.01,2.31c0.03,0.8,0.05,1.6,0.08,2.4    c-0.08,0.85-0.16,1.65-0.18,2.49c0.28,0.28,0.33,1.85,0.37,2.31c-0.25,0.09-0.49,0.7-0.37,0.92c-0.31,0.11-0.52,0.49-0.75,0.73    c-0.37,0.4-0.73,0.81-1.1,1.21c-0.56,0.18-1.75,1.41-2.22,1.85c-0.12,0.34-0.25,0.68-0.37,1.02c0,0.28,0.01,0.55,0.01,0.83    c-0.03,1.06-0.45,1.65-1.02,2.49c-0.29,0.2-0.59,0.41-0.88,0.61c-0.77,0.62-1.35,1.49-2.23,1.96c-0.55,0.3-1.09,0.38-1.7,0.48    c-0.43,0.15-0.86,0.31-1.29,0.46c-0.17,0.25-0.59,0.49-0.84,0.37c-0.2,0.1-0.4,0.2-0.6,0.3c-0.8,0.49-1.6,0.98-2.4,1.47    c-0.32,0.09-0.64,0.18-0.96,0.27l-1.5,0.72c0.15,0.32,0.3,0.64,0.44,0.96c0.53,1.15,0.86,2.32,1.33,3.5    c-0.12,0.22,0.06,0.58,0.14,0.82c0.2,0.47,0.4,0.93,0.6,1.4c0.43,1.66,0.86,3.33,1.29,4.99c0.36,1.06,0.71,2.12,1.07,3.18    c0.7,2.18,1.02,4.43,1.47,6.68c0.23,1.17,0.66,2.27,0.88,3.44c0.57,0.48,1.14,0.95,1.7,1.43c0.29,0.33,0.58,0.65,0.87,0.98    c1.05,0.97,2.09,1.95,3.14,2.92l0.48-0.07c0.36-0.04,0.85-0.76,1.11-1.02c0.26-0.16,0.52-0.33,0.78-0.49    c0.59-0.39,1.17-0.71,1.72-1.17c0.2,0.09,1.34-0.34,1.67-0.39c0.78-0.12,2.43,0.04,3.21,0.23c1.37,0.34,2.66,1.07,3.89,1.73    c0.25,0.25,0.49,0.49,0.74,0.74c0.81,1.16,1.56,1.87,2.69,2.74c0.32,0.23,0.95,0.17,1.35,0.11c0.76-0.24,1.53-0.47,2.29-0.71    c0.32-0.16,0.64-0.32,0.96-0.48c0.58-0.12,1.17-0.25,1.75-0.37c0.34,0.03,0.68,0.06,1.02,0.09c1.04-0.1,2.08-0.2,3.12-0.3    c0.75-0.18,1.49-0.35,2.24-0.53c0.55,0.05,1.1,0.1,1.65,0.14c0.52,0.04,1.04,0.07,1.57,0.11c0.24,0.04,0.48,0.09,0.73,0.15    l0.16-0.27c0-0.18,0-0.36,0-0.55c-0.14-0.48-0.28-0.95-0.42-1.43c0.36-0.08,0.69-1.42,0.96-1.86c0.26-0.36,0.53-0.73,0.79-1.09    c0.42-0.94,0.85-1.88,1.27-2.82c0.44-0.69,0.88-1.38,1.31-2.08c0-2.29-1.27-3.83-2.49-5.63c-0.22-0.47-0.45-0.94-0.67-1.41    c-0.39-0.55-0.78-1.09-1.17-1.64c0.14-0.22-0.08-1.13-0.09-1.48c-0.02-0.74,0.25-1.54,0.57-2.2c0.22-0.45,0.99-1.8,1.37-2.05    c0.51-0.49,1.25-0.9,1.76-1.39c0.45-0.56,0.54-1.27,0.86-1.92c0.15-0.28,0.29-0.57,0.44-0.85c0.34-0.37,0.68-0.74,1.02-1.11    c0.22-0.15,0.43-0.3,0.65-0.45c0.34-0.22,0.67-0.44,1.01-0.66c0-0.34,0.94,0.01,1.2-0.18c0.63-0.01,0.22,0.2,0.83-0.09    c0.13,0.5,1.08-0.31,1.64-0.71c0.01-0.04,0.02-0.08,0.02-0.12C386.69,110.64,386.77,110.54,386.85,110.43z M363.15,94.02    c-0.01-0.04-0.02-0.07-0.02-0.11c-0.01-0.01-0.02-0.02-0.03-0.03c-0.32-0.34-1.09-0.05-1.62-0.04c-0.19,0.01-0.41,0.03-0.55-0.1    c-0.31,0.15-0.62,0.31-0.92,0.46c-0.43,0-0.81,0.04-1.21,0.22c-0.52,0.39-1.04,0.78-1.56,1.17c-0.22,0.22-0.43,0.43-0.65,0.65    c0.04,0.34-0.34,0.61-0.55,0.83c-0.25,0.05-0.5,0.11-0.74,0.16c-0.21-0.12-0.43-0.23-0.64-0.35c-0.46,0-0.62,0.1-1.03-0.14    c-0.03-0.01-0.05-0.02-0.08-0.05c0.03,0.02,0.05,0.03,0.08,0.05c0.24,0.08,0.58-0.37,0.76-0.51c1.12,0.21,1.99-0.76,2.77-1.39    c-0.01-0.28,0.61-0.92,0.18-0.92c0.4-0.12,0.8-0.25,1.2-0.37c0.25-0.22,0.49-0.43,0.74-0.65c0.59,0.27,0.81,0.13,1.29-0.18    c0.62,0.12,1.24,0.24,1.86,0.36c0.52,0.07,0.62,0.41,0.71,0.83c0.04,0.04,0.08,0.07,0.12,0.11    C363.21,94.02,363.18,94.02,363.15,94.02z"/>
            <circle cx="354.51" cy="107.78" r="1.586"/>
        </g>
        <g id="__Yıldızeli">
            <path d="M95.77,190.76    c0.23-0.11,0.62-0.17,0.72-0.41c0.49,0.06,0.99,0.12,1.48,0.18c0.5,0.25,1,0.51,1.5,0.76c0.79,0.21,1.59,0.42,2.38,0.63    c0.55,0.06,1.11,0.12,1.66,0.18c0.35,0.14,0.7,0.28,1.05,0.42c1.09,0.36,2.1,0.8,3.11,1.34c0.36,0.11,0.73,0.21,1.09,0.32    c1.43,0.52,2.97,0.93,4.17,1.9c1.08,0.42,2.16,0.84,3.24,1.27c1.66,0.69,3.32,1.37,4.98,2.06c0.84,0.28,1.67,0.56,2.51,0.85    c1.65,0.6,3.43,0.17,5.15,0.17c0.45,0,1.82,0.42,2.03,0.83c0.24,0.05,1.32,0.35,1.34,0.4c0.19,0.53,0.31,0.96,0.35,1.54    c0.02,0.26-0.07,0.61,0.07,0.83c-0.54,1.5-1.12,3.12-1.25,4.71c0,0.62,0.01,0.77,0.01,1.39c0.23,0.51,0.23,0.74,0.46,0.97    c0.63-0.15,0.91-0.27,1.54-0.42c0.23-0.02,0.36-0.17,0.46-0.1c0.47,0.3,1.34,0.67,1.28,1.31c0.2,0.16,0.23,0.23,0.55,0.55    c0.19,0.05,0.38,0.09,0.57,0.14c0.24-0.69,0.48-1.39,0.72-2.08c0.41-0.35,0.33-0.62,0.74-0.97c-0.01-0.08,0.48-0.24,0.46-0.32    c0.46-0.03,0.92-0.71,1.39-0.74c0.89-0.85,1.48-1.18,2.49-1.85c0.18-0.23,0.4-0.61,1.52-0.42l-0.14,0.09    c0.44,0,0.57-1.4,1.12-1.58c0.24-0.04,0.48-0.09,0.72-0.13c0.32-0.32,0.75-0.42,1.2-0.55c0.62-0.22,1.23-0.43,1.85-0.65    c0.36-0.27,0.71-0.54,1.07-0.81c0.44-0.59,0.81-1.16,1.32-1.7c0.84-0.83,1.67-1.66,2.51-2.49c0.15-0.27,0.3-0.55,0.46-0.82    c0.65-0.9,1.3-1.8,1.96-2.7c0.1-0.15,0.02-0.22-0.11-0.35c0-0.22,0-0.43,0-0.65c0.01-0.18,0.57-0.15,0.74-0.16    c0.86-0.04,1.53-0.1,2.31-0.48c0.86-0.52,1.72-1.04,2.58-1.57c0.31-0.03,0.62-0.06,0.92-0.09c0.31,0.12,0.62,0.25,0.92,0.37    c0.45-0.21,0.9-0.42,1.35-0.62c0.57-0.31,1.49-0.95,2.16-0.95c0.37-0.31,0.73-0.62,1.1-0.94c0.32-0.26,1.24,0.52,1.56,0.69    c0.81,0.42,1.9-0.64,2.47-1.19c0.19-0.22,0.37-0.43,0.56-0.65c0.51-0.25,1.02-0.5,1.53-0.75c0.3,0.05,0.59,0.09,0.89,0.14    c0.81,0.34,1.61,0.69,2.42,1.03c0.23-0.15,0.53-0.13,0.8-0.2c0.47-0.19,0.93-0.39,1.4-0.58c0.32-0.16,0.14-0.8,0.11-1.07    c-0.13-1.1-0.68-1.98-1.14-2.95c-0.2-0.43-0.41-0.86-0.61-1.3c-0.15-0.49-0.31-0.99-0.46-1.48c0.19-0.24-0.04-0.89-0.09-1.2    c0.2-0.33-0.01-1-0.01-1.38c0.06-0.35,0.12-0.69,0.18-1.04c0.04-0.64,0.09-1.29,0.13-1.93c-0.1-0.98-0.2-1.96-0.31-2.95    c0.22-0.12,0.19-0.16,0.25-0.38c0.26-0.2,0.52-0.41,0.78-0.61c0.3-0.19,0.61-0.27,0.91-0.4c0.51-0.33,1.02-0.65,1.53-0.98    c0.78-0.6,1.56-1.2,2.35-1.79c0.52-0.17,1.04-0.34,1.57-0.52c0.37-0.14,0.74-0.27,1.11-0.41c1.4-0.99,2.58-1.95,3.56-3.37    c0.04-0.2,0.07-0.41,0.11-0.61c0.04-1.14-0.54-1.38-0.99-2.3c-0.34-0.71-0.2-1.49-0.37-2.22c-0.06-0.58-0.12-1.17-0.18-1.76    c0.05-0.66,0.21-1.27,0.18-1.94c-0.03-0.73-0.25-1.81,0.09-2.49c0.64-1.3,1.89-2.12,1.94-3.69c0.06-2-0.62-3.9-1.11-5.82    c-0.03-0.46-0.06-0.93-0.1-1.39c0-1.39-0.2-2.67-0.04-4.06c0.11-0.89,0.6-2.61,1.24-3.24c0.79-0.77,1.92-1.31,2.55-2.21    c0.43-0.61,0.82-1.32,1.06-2.04c0.25-0.52,0.49-1.05,0.74-1.57c0.2-0.96,0.4-1.89,0.46-2.86c0.25-0.65,0.5-1.31,0.75-1.96    c0.12-0.24,0.24-0.48,0.35-0.72c0.3-1.34,0.75-2.61,1.02-3.97c0.12-0.22,0.25-0.43,0.37-0.65c0.57-0.57,1.17-1.29,1.48-2.03    c0.18-0.4,0.37-0.8,0.55-1.2c0.34-0.8,0.68-1.6,1.02-2.4c0.87-1.52,1.79-3.76,2.22-5.45c0.45-1.78,0.69-3.62,0.92-5.45    c0.22-0.99,0.43-1.97,0.65-2.96c0.03-0.83,0.06-1.66,0.09-2.49c0.3-0.58,1.13-0.62,1.48-0.97c-0.26-0.19-0.68-0.17-0.65-0.23    c-0.56-0.07-1.12-0.14-1.68-0.21c-1.81-0.16-3.62-0.31-5.43-0.47c-1.09-0.13-2.18-0.26-3.26-0.39c-1.72-0.35-3.43-0.7-5.15-1.05    c-0.49,0.05-0.99,0.1-1.48,0.16c-1.48,0.16-2.95,0.23-4.43,0.3c-2.01,0.1-4.21-0.08-5.88,1.28c-0.3,0.65-0.59,1.3-0.89,1.95    c-0.36,0.75-0.62,1.6-0.71,2.42c-0.11,0.5-0.22,1-0.32,1.5c-0.19,1.01-0.31,2-0.32,3.03c0.03,0.22,0.06,0.43,0.09,0.65    c-0.06,0.4-0.12,0.8-0.18,1.2c-0.07,0.73,0.09,1.48-0.38,2.12c-0.4,0.65-0.8,1.29-1.2,1.94c-0.68,0.52-1.35,1.05-2.03,1.57    c-0.15,0.18-0.31,0.37-0.46,0.55c-0.36,0.08-0.73,0.16-1.09,0.24c-0.25,0.35-0.51,0.7-0.76,1.05c-2.09,1.6-4.19,3.2-6.28,4.8    c-1.14,1.05-2.28,2.09-3.42,3.14c-0.02,0.3-0.33,0.7-0.55,0.92c-0.08,0.61-0.8,1.33-0.86,2.04c-0.04,0.55-0.02,1.12,0.12,1.65    c-0.16,0.16-0.09,0.51-0.09,0.74c0.05,0.72,0.11,1.43,0.16,2.15c-0.06,0.55-0.06,1.07,0.01,1.63c0.04,0.26,0.08,0.51,0.12,0.77    c-0.04,0.33-0.07,0.66-0.11,1c0.16,1.01,0.04,2.05-0.09,3.05c-0.14,0.33-0.27,0.66-0.41,1c-0.85,0.99-1.7,1.98-2.55,2.98    c-0.19,0.14-0.39,0.27-0.58,0.41c-1.9,0.42-3.8,0.84-5.7,1.25c-1.09,0.54-2.17,1.09-3.26,1.63c-1.13,0.2-2.26,0.39-3.39,0.59    c-0.8,0.03-1.6,0.06-2.4,0.09c-0.37,0.06-0.74,0.12-1.11,0.18c-0.98,0.01-1.77-0.13-2.77,0.09c-0.26-0.33-1.25-0.18-1.66-0.18    c-1.54-0.04-3.08-0.08-4.62-0.12c-1.66-0.08-3.23-0.7-4.9-0.62c-2.06,0.59-4.12,1.17-6.19,1.76c-2.41,0.37-4.85-0.17-7.2-0.55    c-0.18,0.27-0.62,0.3-0.92,0.4c-0.5,0.23-1,0.45-1.5,0.68c-1.1,0.57-2.21,1.13-3.31,1.7c-0.28,0.1-0.56,0.21-0.84,0.31    c-0.99,0.23-1.97,0.46-2.96,0.68c-0.03,0.01-0.06,0.01-0.09,0.02c0.02,0.05,0.03,0.1,0.05,0.16c-0.38,0.36-0.62,0.76-0.79,1.23    c-0.47,1.26-1.51,2.27-2.21,3.42c-0.28-0.08-0.57,0.13-0.85,0.23c-0.61,0.14-1.22,0.28-1.83,0.42c-0.93-0.01-1.72-0.4-2.59-0.65    c-0.42-0.12-0.65-0.38-1.11-0.38c-0.06,0-0.12,0-0.18,0.01c0.13,0.28-0.5,1.51-0.65,1.94c-0.22,0.28-0.43,0.56-0.65,0.83    c-0.55,0.57-1.12,1-1.74,1.48c-0.15,0.13-0.07,0.11-0.23-0.07c-0.28,0.07-0.37-0.06-0.6-0.22c-0.5-0.46-0.99-0.92-1.49-1.38    c-0.44-0.07-0.59-0.15-0.92,0.18c-0.09-0.18-0.96-0.52-1.2-0.64c-0.65-0.34-1.29-0.68-1.94-1.02c-0.18-0.18-0.37-0.37-0.55-0.55    c-0.37-0.29-0.92-0.67-0.92-1.2c-0.27-0.27-0.87,0.29-1.11,0.46c-0.28,0.28-0.55,0.55-0.83,0.83c-0.34-0.05-0.36,0.2-0.65,0.28    c-0.62,0.12-1.23,0.25-1.85,0.37c-0.01,0.17-0.04,0.15-0.17,0.24c-0.1,0.08-0.19,0.15-0.29,0.23c0.37,0.1,0.36,0.59,0.56,0.92    c0.46,0.49,0.92,0.98,1.37,1.47c1.37,1.31,2.92,2.31,4.47,3.39c0.79,0.6,1.58,1.2,2.37,1.8c0.11,0.34,0.22,0.68,0.33,1.02    c0.32,0.83-0.42,2.58-0.73,3.4c-0.6,1.61-1.55,3.12-2.32,4.66c-0.27,0.64-0.53,1.27-0.8,1.91c-0.25,0.44-0.88,2.28-0.83,2.77    c0,0.28,0,0.55,0,0.83c0.22,0.05,0.66,1.08,0.75,1.39c0.24,0.75,0.87,1.45,1.37,2.03c0.22,0.28,0.43,0.55,0.65,0.83    c1.14,0.83,2.28,1.66,3.42,2.49c0.65,0.51,1.22,0.91,1.45,0.9c0.6,0.86,1.58,1.25,2.33,1.96c0.99,0.95,1.97,1.91,2.96,2.86    c0.2,0.27,0.41,0.55,0.61,0.82c0.3,0.45,0.45,0.95,0.9,1.26L95.77,190.76z"/>
            <circle cx="154.86" cy="160.29" r="1.586"/>
        </g>
        <g id="__Zara">
            <path d="M353.44,191.02    c0.03-0.16,0.07-0.32,0.1-0.47l-0.28-0.18c0.05-0.87-0.9-1.92-1.29-2.68c-0.28-0.46-0.55-0.92-0.83-1.39    c0.08-0.37-0.62-1.17-0.83-1.48c-0.05,0.01-0.1,0.02-0.16,0.02c-0.45-0.53-0.88-0.99-1.41-1.41c-0.27-0.11-0.53-0.23-0.8-0.34    c-0.84-0.37-1.81-0.8-2.34-1.6c-0.54-0.82-0.65-1.7-0.94-2.6c-0.21-0.63-1.22-1.8-1.73-2.2c-0.48-0.15-0.97-0.3-1.45-0.45    c-0.44-0.16-0.88-0.32-1.32-0.47c-0.07-0.27-0.31-0.42-0.49-0.63c-0.25-0.32-0.11-1.63,0.03-2.14c0.68-0.24,1.03-0.95,1.57-1.2    c0.34-0.15,0.68-0.31,1.02-0.46c-0.07-0.36,0.81-0.97,1.07-1.24c0.76-0.81,1.32-1.67,1.24-2.82c-0.85-1.83-2.51-1.8-3.6-3.33    c0-0.77-0.36-1.61-0.61-2.33c-0.33-0.97-0.48-2.05-1.17-2.81c-0.05,0.02-0.11,0.04-0.16,0.06c0.37-0.9-0.57-2.09-1.03-2.8    c-0.5-0.76-1.22-3.14-0.91-4.03c0.43-0.99,0.86-1.97,1.29-2.96c0.33-0.32,0.66-0.63,0.99-0.95c0.61-0.66,1.01-1.45,1.52-2.18    c0.33-0.37,0.67-0.75,1-1.12c0.4-0.89,0.8-1.79,1.2-2.68l-0.48,0.07c-1.05-0.97-2.09-1.95-3.14-2.92    c-0.29-0.33-0.58-0.65-0.87-0.98c-0.57-0.48-1.14-0.95-1.7-1.43c-0.22-1.17-0.65-2.27-0.88-3.44c-0.45-2.25-0.76-4.5-1.47-6.68    c-0.36-1.06-0.71-2.12-1.07-3.18c-0.43-1.66-0.86-3.33-1.29-4.99c-0.2-0.47-0.4-0.93-0.6-1.4c-0.08-0.23-0.26-0.6-0.14-0.82    c-0.47-1.17-0.8-2.35-1.33-3.5c-0.15-0.32-0.3-0.64-0.44-0.96c-0.55-0.76-1.09-1.53-1.64-2.29c-0.79-0.22-1.58-0.45-2.36-0.67    c-1.09-0.39-2.18-0.79-3.27-1.18c-0.52-0.22-1.04-0.44-1.56-0.66c-0.83-0.53-1.47-1.2-2.13-1.92c-0.29-0.52-0.58-1.03-0.87-1.55    c-0.27-0.27-0.53-0.54-0.8-0.81c-0.21-0.17-0.43-0.33-0.64-0.5c-1.94-0.56-3.88-1.12-5.82-1.69c-1.43-0.56-2.81-1.52-4.34-1.82    c-0.62-0.08-1.23-0.16-1.85-0.23c-0.83-0.07-1.72-0.06-2.49,0.33c-0.35,0.27-0.69,0.53-1.04,0.8c-1.21,0.76-2.32,1.91-3.09,3.09    c-0.07,0.15-0.15,0.3-0.22,0.45c-0.18,0.37-0.36,0.74-0.55,1.11c0.09,0.62,0.18,1.23,0.28,1.85c0.26,1.36,0.45,2.69,1.02,3.97    c0.04,0.46,0.08,0.92,0.12,1.38c0,1.39-0.32,3.02-1.03,4.21c-0.64,1.07-1.72,1.78-2.68,2.54c-0.4,0.34-0.8,0.68-1.19,1.02    c-0.7,0.56-1.56,1.07-2.08,1.82c-0.27,0.31-0.53,0.63-0.8,0.94c-0.02,0.33-0.03,0.65-0.05,0.98c-0.03,0.28-0.18,0.5,0.05,0.68    c-0.25,0.46-0.49,0.92-0.74,1.39c-0.09,0.36-0.19,0.71-0.28,1.07c-0.24,0.51-0.49,1.01-0.73,1.52c0.14,0.27-0.09,0.55-0.18,0.83    c-0.22,0.34-0.43,0.69-0.65,1.03c-0.37,0.64-0.74,1.28-1.11,1.93c-0.36,0.44-0.72,0.87-1.08,1.31c-0.15,0.32-0.31,0.64-0.46,0.97    c-0.29,0.5-0.57,1.01-0.86,1.51c-1.08,1.48-2.16,2.96-3.23,4.43c-0.74,0.65-1.28,1.46-1.86,2.19c-0.21,0.35-0.42,0.69-0.64,1.04    c-0.29,0.51-0.64,1.11-0.71,1.71c-0.17,1.66,1.06,2.86,1.84,4.18c0.3,0.5,0.6,1,0.9,1.5c0.17,0.74,0.33,1.47,0.5,2.21    c0.34,1.13,0.81,2.16,0.86,3.34c0.01,1.11,0.02,2.22,0.03,3.33c-0.06,0.49-0.12,0.99-0.18,1.48c0.09,0.74,0.18,1.48,0.28,2.22    c-0.24,0.26-0.27,0.45-0.65,0.37c-0.05,0.36-0.11,0.73-0.16,1.09c-0.16,0.9-0.31,1.8-0.47,2.7c-0.03,0.24-0.19,0.85-0.11,0.96    c0.65,0.91,1.3,1.82,1.94,2.73c1.02,0.86,2.03,1.72,3.05,2.59c1.44-0.23,3.02,0.13,4.23,1.13c0.32,0.3,0.64,0.59,0.96,0.89    c0.06,0.29,0.02,0.87,0.26,1.02c-0.15,0.29-0.54,1.03-0.37,1.29c-0.62,1.01-1.25,2.02-1.87,3.03c-0.21,0.5-0.42,1-0.63,1.5    c-0.13,1.33,1.09,2.83,1.85,3.88c0.69,0.96,1.02,1.94,2.03,2.62c0.3,0.2,0.21,0.42,0.39,0.7c0.38,0.55,0.75,1.1,1.13,1.66    c0.2,0.25,0.6,0.46,0.7,0.75c0.42,0.2,0.84,0.4,1.26,0.6c0.38,0.2,0.76,0.4,1.14,0.6c0.4,0.31,0.8,0.62,1.2,0.92    c0.63,0.63,1.26,1.26,1.88,1.89c0.78,0.75,1.32,1.55,1.4,2.64c0.02,0.19,0.13,0.55,0.06,0.66c-0.6,1.01-1.22,1.97-2.16,2.7    c-1.21,0.95-3.04,1.58-4.45,2.18c-0.72,0.2-1.45,0.4-2.17,0.6c-0.28,0.07-0.59,0.25-0.85,0.12c-0.72,0.54-1.41,1.06-2.24,1.42    c-0.86,0.26-1.72,0.51-2.58,0.77c-1.17,0.4-2.15,0.88-3.15,1.56c-0.52,0.34-1.05,0.69-1.57,1.03c-0.23,0.14-0.54,0.22-0.62,0.49    c-1.39,0.44-2.64,1.44-3.5,2.65c-0.45,0.64-0.68,1.39-0.84,2.15c-0.16,0.77-0.32,1.54-0.48,2.31c-0.11,1.7-0.41,3.91-0.13,5.59    c0.03,0.19,0.09,0.36,0.16,0.5c0.25,0.48,0.69,0.76,1.09,1.32c0.16,0.23,1.36,1.91,1.28,2.09c-0.08,0.18-0.11,0.32-0.1,0.45    c0.02,0.37,0.39,0.54,0.76,0.78c0.31,0.31,0.62,0.62,0.92,0.92c0.26-0.04,0.52,0.14,0.76,0.24c0.77,0.3,1.55,0.56,2.34,0.8    c0.71,0.21,1.43,0.41,2.16,0.62c0.52,0.15,1.05,0.31,1.57,0.46c0.65,0.31,1.29,0.62,1.94,0.92c0.46,0.46,0.92,0.92,1.39,1.39    c0.16,0.26,0.33,0.53,0.49,0.79c0.48,0.78,0.74,1.13,1.38,1.81l0.25,0.38c0,0,0.03-0.22,0.19-0.4c0.53-0.43,1.06-0.87,1.6-1.3    c2.22-1.25,4.44-2.5,6.99-2.97c0.19-0.02,0.37-0.04,0.56-0.05c0.96-0.96,1.11-2.38,2.06-3.39c1.27-1.34,3.78-1.67,5.51-1.56    c0.51,0.05,0.67-0.39,1.11-0.69c1.19-0.8,1.81-1.55,2.49-2.77c0.65-0.86,1.3-1.72,1.95-2.59c0.52-0.71,1.04-1.42,1.56-2.12    c0.09-0.34,0.18-0.68,0.28-1.02c0.16-0.26,0.32-0.51,0.48-0.77c0.32-0.51,0.67-0.95,0.82-1.54c-0.03-0.49-0.06-0.99-0.09-1.48    c0.06-1.02,0.11-2.03,0.17-3.05c0.04-0.65,0.69-0.66,1.23-0.78c1.32-0.28,2.53,0.08,3.59,0.78c0.65,0.62,1.3,1.24,1.95,1.86    c0.91,0.91,1.75,1.59,2.49,2.66c0.25-0.01,0.49,0.34,0.7,0.46c0.63,0.39,1.27,0.65,1.98,0.83c0.58,0.04,1.17,0.07,1.75,0.11    c0.18-0.02,0.37-0.05,0.55-0.07c0.57,0.19,1.14,0.38,1.71,0.57c1.49,0.39,3.09,0.7,4.58,0.25c1.14-0.41,2.28-0.82,3.41-1.22    c0.62-0.43,1.23-0.86,1.85-1.29c0.89-0.92,1.79-1.85,2.68-2.77c0.71-0.78,2.19-2.48,2.4-3.51c0.36-1.83-0.45-3.77,0.05-5.55    c0.38-1.33,0.94-2.67,1.61-3.87c0.3-0.1,0.59-0.53,0.79-0.77c0.32-0.36,0.64-0.72,0.96-1.08c0.12-0.28,0.25-0.55,0.37-0.83    c-0.03-0.46-0.05-0.93-0.08-1.39C353.38,193.58,353.26,192.24,353.44,191.02z M292.01,157.4c-0.33,0.21-1.53,0.26-1.29,0.81    c0.14,0.29,0.73,0.91,0.63,1.2c-0.08,0.21,0.11,0.44-0.23,0.32c-0.3-0.02-0.6-0.04-0.89-0.05c-0.7-0.28-2.12-1.43-2.19-2.19    c-0.02-0.23-0.19-0.6-0.03-0.81c0.25-0.33,0.66-0.81,1.13-0.76c0.18,0.09,0.3,0.01,0.49-0.1c0.44,0.19,0.88,0.38,1.32,0.57    c0.32,0.01,0.89,0.05,1.02,0.42C292.06,157.12,292.36,157.28,292.01,157.4z"/>
            <circle cx="311.14" cy="155.3" r="1.586"/>
        </g>
    </g>
</svg>