<?xml version="1.0" encoding="utf-8"?>
<!DOCTYPE svg PUBLIC "-//W3C//DTD SVG 1.1//EN" "http://www.w3.org/Graphics/SVG/1.1/DTD/svg11.dtd">
<svg version="1.1" id="HaritaCizim" xmlns="http://www.w3.org/2000/svg" xmlns:xlink="http://www.w3.org/1999/xlink" x="0px" y="0px" viewBox="0 0 436 415" preserveAspectRatio="none">
    <defs id="__def">
        <radialGradient id="f">
            <stop offset="0" stop-color="white" stop-opacity="1"/>
            <stop id="STOP1" offset=".4" stop-opacity="1"/>
            <stop offset="1" stop-color="white" stop-opacity=".2"/>
        </radialGradient>
        <filter id="__flt1" x="0" y="0" width="200%" height="200%" filterUnits="objectBoundingBox">
            <feGaussianBlur in="SourceAlpha" stdDeviation="3" result="blur1"/>
            <feSpecularLighting result="specOut" in="blur1" specularConstant="1.5" specularExponent="20" lighting-color="#bbbbbb">
                <feDistantLight azimuth="45" elevation="30"/>
            </feSpecularLighting>
            <feComposite in="specOut" in2="SourceAlpha" operator="in" result="specOut"/>
            <feComposite in="SourceGraphic" in2="specOut" operator="arithmetic" k1="0" k2="1" k3="1" k4="0"/>
        </filter>
        <filter id="__flt2" x="0" y="0" width="200%" height="200%" filterUnits="objectBoundingBox">
            <feGaussianBlur in="SourceAlpha" stdDeviation="3" result="blur1"/>
            <feSpecularLighting result="specOut" in="blur1" specularExponent="20" lighting-color="#bbbbbb">
                <fePointLight x="-2000" y="100" z="2000"/>
            </feSpecularLighting>
            <feComposite in="specOut" in2="SourceAlpha" operator="in" result="specOut"/>
            <feComposite in="SourceGraphic" in2="specOut" operator="arithmetic" k1="0" k2="1" k3="1" k4="0"/>
        </filter>
        <filter id="__flt3" x0="-50%" y0="-50%" width="200%" height="200%" filterUnits="objectBoundingBox">
            <feGaussianBlur in="SourceAlpha" stdDeviation="3" result="blur"/>
            <feOffset in="blur" dx="0" dy="0" result="offsetBlur"/>
            <feSpecularLighting in="blur" surfaceScale="4" specularConstant=".5" specularExponent="20" lighting-color="flavor" result="specOut">
                <fePointLight x="-5000" y="-10000" z="5000"/>
            </feSpecularLighting>
            <feComposite in="specOut" in2="SourceAlpha" operator="in" result="specOut"/>
            <feComposite in="SourceGraphic" in2="specOut" operator="arithmetic" k1="0" k2="1" k3="1" k4="0" result="litPaint"/>
            <feMerge>
                <feMergeNode in="offsetBlur"/>
                <feMergeNode in="litPaint"/>
            </feMerge>
        </filter>
        <filter id="__flt4" x0="-50%" y0="-50%" width="200%" height="200%">
            <feGaussianBlur in="SourceAlpha" stdDeviation="2" result="blur"/>
            <feOffset dy="-1" dx="-1"/>
            <feComposite in2="SourceAlpha" operator="arithmetic" k2="-1" k3="1" result="hlDiff"/>
            <feFlood flood-color="white" flood-opacity=".7"/>
            <feComposite in2="hlDiff" operator="in"/>
            <feComposite in2="SourceGraphic" operator="over" result="withGlow"/>
            <feOffset in="blur" dy="3" dx="3"/>
            <feComposite in2="SourceAlpha" operator="arithmetic" k2="-1" k3="1" result="shadowDiff"/>
            <feFlood flood-color="black" flood-opacity="1"/>
            <feComposite in2="shadowDiff" operator="in"/>
            <feComposite in2="withGlow" operator="over"/>
        </filter>
        <filter id="__golge1" x="0" y="0" width="200%" height="200%" filterUnits="userSpaceOnUse">
            <feOffset result="offOut" in="SourceAlpha" dx="8" dy="8"/>
            <feGaussianBlur result="blurOut" in="offOut" stdDeviation="3"/>
            <feBlend in="SourceGraphic" in2="blurOut" mode="normal"/>
        </filter>
    </defs>
    <g id="__Komsular" display="none">
        <linearGradient id="SVGID_1_" gradientUnits="userSpaceOnUse" x1="65.48" y1="382.8291" x2="-0.6085" y2="389.1549">
            <stop offset="0" style="stop-color:#8AABDA"/>
            <stop offset="1" style="stop-color:#FFFFFF;stop-opacity:0"/>
        </linearGradient>
        <path fill-rule="evenodd" clip-rule="evenodd" fill="url(#SVGID_1_)" d="M0,414.82c0.84-0.33,1.69-0.67,2.53-1
		c1.22-0.67,2.32-1.06,3.67-1.28c0.43-0.12,0.86-0.24,1.28-0.37c0.97-0.57,1.84-1.16,2.93-1.47c1.42-0.4,2.5,0.25,3.88,0.49
		c1.02,0.06,2.03,0.11,3.05,0.17c1.32-0.61,3.21-0.17,4.63-0.26c0.75-0.05,1.25-0.42,1.83,0.15c0.82-0.28,1.68-0.59,2.57-0.54
		c1.5,0.09,3.06-0.41,4.38-1.17c0.34-0.19,1.12-0.64,1.12-1.04c0.58-1.75,0.96-3.55,1.28-5.32c0.31-0.73,0.61-1.47,0.92-2.2
		c0.73-0.79,1.47-1.59,2.2-2.38c0.6-0.49,1.23-0.36,1.81-0.95c0.38-0.38,0.95-1.06,0.76-1.62c0.66-0.6,1.32-1.2,1.98-1.8
		c0.33-0.03,0.92,0.16,1.14-0.03c-0.24,0.67-0.49,1.34-0.73,2.02c0.24,0.31,0.49,0.61,0.73,0.92c1.57,0.66,4.34,1.2,6.05,0.55
		c1.08-0.59,2.15-1.17,3.23-1.76c0.78-0.46,1.9-0.87,1.96-0.75c0.09,0.2,0.93-0.36,1.17-0.51c1.29-0.82,2.09-2.03,3.17-3.03
		c0.49-0.37,0.98-0.73,1.47-1.1c0.49-0.55,0.98-1.1,1.47-1.65c0.56-0.41,1.12-0.83,1.69-1.24c0.9-0.7,3.25-2.19,3.58-3.19
		c0.93-3,0.11-5.89-0.68-8.78c-0.24-1.28-0.49-2.57-0.73-3.85c-0.53-1.82-1.56-3.36-2.2-5.14c-0.18-0.86-0.37-1.71-0.55-2.57
		c-0.37-0.73-0.73-1.47-1.1-2.2c-0.6,0-2.2-0.22-2.2-1.1c-0.35-0.31-0.72-0.49-0.92-0.92c-1.55-1-3.12-1.55-4.95-1.46
		c-1.64,0.08-3.66,0.12-5.16,0.81c-0.62,0.29-2.9,1.35-3.46,1.2c-0.79,0.67-1.59,1.34-2.38,2.02c-0.56,0.41-1.4,0.3-1.65,0.92
		c-1.27-0.62-2.74-1.09-4.17-0.9c-2.03,0.27-3.7,1.29-5.37,2.37c-0.92,0.18-1.83,0.37-2.75,0.55c-1.21-0.57-1.85-0.56-3.12-0.18
		c-0.95,0.28-2.18,0.18-3.12,0c-0.67,0.18-1.34,0.37-2.02,0.55c-0.97-0.15-1.93-0.3-2.9-0.45c-1.17-0.03-2.35-0.06-3.52-0.1
		c-1.22,0.31-2.45,0.61-3.67,0.92c-1.66,0.35-2.63-1.08-3.88-0.64c-1.16,0.41-2.15,1.14-3.08,1.89c-0.32,0.26-0.81,0.37-0.93,0.76
		c-0.24-0.12-0.49-0.24-0.73-0.37L0,414.82z"/>
        <linearGradient id="SVGID_2_" gradientUnits="userSpaceOnUse" x1="133.6523" y1="170.0874" x2="368.999" y2="474.1216">
            <stop offset="0" style="stop-color:#8AABDA"/>
            <stop offset="1" style="stop-color:#FFFFFF;stop-opacity:0"/>
        </linearGradient>
        <path fill-rule="evenodd" clip-rule="evenodd" fill="url(#SVGID_2_)" d="M433.02,414.96l0.48-202.69c-1.53,0.43-2.84-0.61-4.4-0.55
		c-0.92-0.12-1.83-0.24-2.75-0.37c-1.78,0.06-3.56,0.11-5.34,0.17c-1.16,0.05-2.04,0.84-3.1,1.12c-0.55,0.01-1.1,0.03-1.64,0.04
		c-1.67,0.24-3.34,0.68-4.96,1.24c-0.37,0.24-0.73,0.49-1.1,0.73c-0.17,0.5-0.72,0.9-1.1,1.28c-0.27-0.41-1.84-0.42-2.38-0.37
		c-1.96,0.37-1.9,0.12-3.85,0.49c-0.18,0.12-2.52,0.9-2.93,0.86c-0.42-0.04-1.2,0.53-1.47,0.86c-0.79,0-1.59,0-2.38,0
		c-1.05,0.35-2.09,0.69-3.14,1.04c-0.24,0.63-0.48,1.27-0.72,1.9c-1.37,0.68-2.75,0.44-4.21,0.73c-0.24,0.43-0.49,0.86-0.73,1.28
		c-0.38-0.23-0.87,0.03-1.3,0.05c-1.88,0.09-3.28,1.84-5.12,2.45c-0.44,0.07-1.22,0.31-1.22,0.31c-0.43,0.31-1.36,1-1.16,0.86
		c-0.14,0.17-0.28,0.34-0.42,0.51c-0.68,0.83-2.58,3.42-3.62,3.52c-0.73,1.28-1.47,2.57-2.2,3.85c-0.3,0.65-0.46,3.94,0,4.4
		c0,0.43-0.31,0.98,0,1.28c-0.4,0-0.69,1.3-0.92,1.65c-0.28,0.44-0.21,1.38-0.58,1.59c-0.66,0.43-2.59,0.9-3.27,0.24
		c-0.37,0.18-0.73,0.37-1.1,0.55c-0.18,0.61-0.37,1.22-0.55,1.83c-0.39,0.12-0.92-0.09-0.92,0.36c-0.03,0.33-0.07,0.67-0.1,1
		c0.34,0.31,0.47,0.39,0.65,0.84c0.71,0,1.4,0.37,2.02-0.18c-0.17,0.8-0.19,1.16-0.93,1.58c-0.5,0.27-1,0.53-1.5,0.8
		c-0.54-0.12-1.07-0.24-1.61-0.36c-0.49,0-0.98,0-1.47,0c-0.58,0-1.39,0.36-2.02,0c-0.86,0.08-1.78-0.04-2.02,0.92
		c-0.01-0.4,0.04-1.25-0.19-1.46c-1.79-1.67-1.87-0.78-3.79-0.87c-0.44-0.26-0.89-0.52-1.33-0.79c-0.24,0.24-0.49,0.49-0.73,0.73
		c-0.98,0.18-1.96,0.37-2.93,0.55c-0.37,0.18-0.73,0.37-1.1,0.55c-0.37,0.06-0.73,0.12-1.1,0.18c-0.97-0.12-1.87-0.25-2.84-0.02
		c-0.43-0.25-0.62-0.52-1.24-0.77c-1.02-0.41-2.31-0.23-2.83-1.33c-0.26-0.55-0.51-1.54-1.16-1.54c-0.19-1.59-1.2-2.5-2.02-3.85
		c-0.43-0.31-0.86-0.61-1.28-0.92c-0.62-0.62-1.57-0.87-1.83-1.65c-0.34-0.08-0.33-0.04-0.55-0.37c-0.73-0.05-1.47-0.1-2.2-0.15
		c-0.06,0.11-0.12,0.22-0.18,0.33c-0.42-0.03-0.84-0.07-1.26-0.1c-0.62-0.52-1.24-1.03-1.86-1.55c-2.59,0.08-5.5-1.43-6.97-3.48
		c-0.76,0-2.33-0.41-2.93,0c-2.02-1.12-4.29-1.65-6.6-1.65c-1.1,0.16-2.21,0.32-3.31,0.48l-0.76,0.05
		c-0.95-0.07-2.25,0.06-3.08,0.57c0.01,0.52-0.69,0.72-1.1,0.92c-0.73,0-1.47,0-2.2,0c-0.55,0.31-2.02,0.92-2.2,0.92l0.08-0.53
		c0.18,0.61-1.05,0.81-1.59,0.95c-1.76,0.47-3.43,0.13-5.28,0.13c-1.3,0.55-2.99,1.1-4.21,1.28c-0.63,0.26-1.25,0.52-1.88,0.77
		c-0.71,0-1.19,0.21-1.79-0.22c-0.12,0.18-0.24,0.37-0.37,0.55c-1.08,0.28-1.24-0.18-2.09,0.87c-0.67-0.08-1.81-0.06-2.32,0.41
		c-1.59,0.49-3.17,0.98-4.76,1.47c-0.07,0.21-1.64,0.21-5.14,0.92c-0.28,0.53-1.72,0.94-2.38,1.1c-0.87,0.22-1.43-0.19-2.2-0.37
		c-0.49,0.06-0.98,0.12-1.47,0.18c-1.06,1.06-3,0.83-4.4,1.28c-0.42,0.58-1.53,0.98-2.2,1.1c-0.55-0.06-1.1-0.11-1.66-0.17
		c-0.43,0.06-0.85,0.11-1.28,0.17c-1.1-0.32-2.1-0.38-3.27-0.21c-2,0.31-3.51,1.13-4.8,2.59c-0.49,0.24-0.98,0.49-1.47,0.73
		c0.04,0.6-0.39,0.92-0.61,1.46c-0.31,0.78-0.7,1.34-1.23,2.02c-0.41,0.86-0.82,1.73-1.23,2.59c-1.12,3.29-2.24,6.59-3.35,9.88
		c-1.26,1.26-2.06,2.77-2.75,4.4c-0.23,1.22-0.46,2.45-0.69,3.67c0.37-1.64-1.14,2.66-1.32,5.13c-0.16,1.64-0.34,3.17-0.34,4.81
		c0,1.16-0.31,1.97,0.05,3.13c-0.39,0.84-0.99,3.55-0.99,4.52c-0.3,0.3-0.37,1.03-0.37,1.47c-2.69,2.69-5.02,5.88-8.25,8.07
		c-0.87,0.59-1.47,1.38-2.38,1.84l-1.1,0.54c-0.14,0.22-0.28,0.43-0.42,0.65c-0.95,0.64-1.88,1.19-2.85,1.79
		c-0.44,0.29-0.88,0.58-1.31,0.87c-0.55,0.73-1.1,1.47-1.65,2.2c-0.41,0.26-0.83,0.52-1.24,0.79c-1.14,0.85-1.34,2.41-2.24,3.43
		c-0.43,0.37-0.86,0.73-1.28,1.1c-0.67,0.92-1.34,1.83-2.02,2.75c-1.2,0.47-1.86,1.9-2.75,2.75c-0.49,0.37-0.98,0.73-1.47,1.1
		c-0.95,1.2-1.9,2.22-2.75,3.48c0,0.66-0.3,1.26-0.4,1.83c-0.24,1.32-0.12,2.31-0.88,3.49c-0.13,2.12-0.34,2.97-2.02,4.4
		c0,1.35-0.88,2.54-1.47,3.67c0.51,0.98-0.76,2.88-1.28,3.67c-0.59-0.64-1.17,1.55-1.28,2.02c-0.24,0.31-0.49,0.61-0.73,0.92
		c-1.52,0.41-1.91,2.11-3.3,2.75c-1.86,0.85-3.48,2.06-4.95,3.48c-0.61-0.02-2.38,1-2.38,1.65c-1.05,0.55-1.93,1.23-2.93,1.83
		c-0.84,0.5-3.12,2.55-3.12,3.48c-0.67,0.43-1.34,0.86-2.02,1.28c-2.19,0.36-4.24,1.12-5.87,2.75c-0.43,0.12-0.86,0.24-1.28,0.37
		c-0.73,0.73-1.47,1.47-2.2,2.2c-1.28,0.67-2.57,1.34-3.85,2.02c-0.02,0.58-0.54,1.04-0.85,1.54c-0.63,0.98-0.96,1.84-1.9,2.68
		c-0.48-0.21-1.3,0.27-1.81,0.45c-2.07,0.71-3.53,2.44-5.53,3.22c-0.79,0.31-1.59,0.61-2.38,0.92c-0.73,0.06-1.47,0.12-2.2,0.18
		c-0.49,0.31-0.98,0.61-1.47,0.92c-2.02,0.24-4.03,0.49-6.05,0.73c-1.16,0.31-2.32,0.61-3.48,0.92c-0.58,0.58-1.16,0.73-1.28,0.18
		c-1.63-0.42-3.91-0.38-5.5,0.18c-0.67,0.43-1.34,0.86-2.02,1.28c-1.56,0-4.12,1.24-5.13,2.38c-1.47,0.06-3.37,2.59-4.22,3.67
		c-0.46,0.36-0.91,0.72-1.37,1.08c-1.2,0.97-2.65,2.24-3.22,3.69c-0.43,0.02-0.8,0.25-1.1,0.55c-0.18,0.43-0.37,0.86-0.55,1.28
		c0,1.13-0.35,1.74-0.68,2.76c-0.12,0.41-0.75,0.65-1.15,0.72c-1.46,0.05-2.93,0.11-4.39,0.16c-1.27,0.15-2.42,0.78-3.31,1.67
		c-1.55,0-5.59,0.97-6.79,1.83c-1.07,0-1.95,0.47-2.68,1.2l-0.81-0.33c-1.4,0.38-2.8,0.76-4.21,1.15c-0.79,0.53-1.95,1.28-2.93,1.28
		c-0.79,0.49-1.59,0.98-2.38,1.47c-2.03,1.71-3.89,3.68-6.24,4.95c-1.04,0.73-2.08,1.47-3.12,2.2c-1.16,0.43-2.32,0.86-3.48,1.28
		c-0.49,0.31-0.98,0.61-1.47,0.92c-0.79,0.24-1.59,0.49-2.38,0.73c-0.46,0.33-0.92,0.65-1.38,0.98c-1.86,0.53-3.73,1.06-5.59,1.59
		L433.02,414.96z"/>
        <linearGradient id="SVGID_3_" gradientUnits="userSpaceOnUse" x1="407.0061" y1="33.7183" x2="439.2994" y2="10.1774">
            <stop offset="0" style="stop-color:#8AABDA"/>
            <stop offset="1" style="stop-color:#FFFFFF;stop-opacity:0"/>
        </linearGradient>
        <path fill-rule="evenodd" clip-rule="evenodd" fill="url(#SVGID_3_)" d="M436.02,0.96L404.11,0c-1.09,0.46-3.81,1.26-3.81,2.65
		c-0.12,0.73-0.24,1.47-0.37,2.2c0.18,0.79,0.37,1.59,0.55,2.38c0.66,1.39,1.18,2.53,2.2,3.67c-0.12,0.55-0.24,1.1-0.37,1.65
		c1.52,1.6,3.03,3.2,4.55,4.8c1.05,0.91,2.1,1.81,3.15,2.72l0.17,1.26c0.37,0.44,0.74,0.88,1.11,1.31c0.78-0.39,1.28,0.14,1.81,0.73
		c0.4,0.45,0.76,1.53,1.49,1.29c0.27,0.75-0.16,1.65,0.92,1.83c-0.18,0.49-0.37,0.98-0.55,1.47c0.09,0.57,0.18,1.15,0.27,1.73
		l1.01,0.48c0.31,0.24,0.61,0.49,0.92,0.73c1.09,0.23,2.05,0.36,3.05,0.85c0.7,0.34,0.85,1.06,1.54,1.35
		c0.71,0.19,1.43,0.37,2.14,0.56c0.39,0.27,0.68,0.68,1.16,0.72c0.24,0.37,0.49,0.73,0.73,1.1c-0.31,0.49-0.61,0.98-0.92,1.47
		c0.3,0.25,0.43,0.33,0.55,0.73c0.31,0.18,0.61,0.37,0.92,0.55c-0.06,0.56-0.51,1.37-0.09,1.7c0.58,0.29,1.16,0.58,1.74,0.87
		c0,0.55,0,1.1,0,1.65c0.56-0.07,1.4-0.32,1.64,0.15c1.31,2.42,3.37,4.89,5.87,6.45c0.52,0.52-0.76,0.45-0.47,0.84L436.02,0.96z"/>
        <text transform="matrix(0.133 -0.9911 0.9911 0.133 78.074 390.1726)" stroke="#000000" stroke-width="0.25" font-family="'MyriadPro-Regular'" font-size="8.8028">ÇANAKKALE</text>
        <text transform="matrix(0.4046 -0.9145 0.9145 0.4046 8.2793 232.2493)" stroke="#000000" stroke-width="0.25" font-family="'MyriadPro-Regular'" font-size="8.8028">E D İ R N E</text>
        <path fill-rule="evenodd" clip-rule="evenodd" fill="none" stroke="#000000" stroke-width="0.25" stroke-miterlimit="10" d="
		M104.31,52.72c-0.02,1.74-1.47,2.97-2.55,4.08c-0.89,0.91-1.78,2.38-2.81,3.03c-1.25,0.77-2.89,0.6-4.35,0.6
		c-1.95,0-2.74,0.33-4,2.01c-3.65,4.89-5.78,10.81-7.97,16.14c-1.13,2.73-4.47,3.87-5.08,6.79c-0.65,3.12-1.03,5.27,0.18,8.25
		c1.13,2.79,1.44,5.74,2.42,8.58c0.48,1.39,1.09,2.93,1.38,4.43c0.29,1.48-0.17,3.09,0.04,4.58c0.4,2.77,3.62,4.73,5.69,6.6
		c2.69,2.43,2.38,4.75,2.38,8.26"/>
        <path fill-rule="evenodd" clip-rule="evenodd" fill="none" stroke="#000000" stroke-width="0.25" stroke-miterlimit="10" d="
		M52.59,329.82c-2.91,0.01-6.35,1.25-6.01,4.58c0.15,1.48,0.65,2.98,0.51,4.58c-0.18,1.98-0.95,2.1-2.16,3.47
		c-1.88,2.13-2.53,4.72-3.93,7.14c-0.62,1.07-4.24,6.34-2.57,7.6c0.55,0.41,3.47-0.97,4.24-1.19c1.21-0.35,2.62-0.9,4.04-0.67
		c0.05,1.08,0.03,2.18,0.03,3.27"/>
        <text transform="matrix(0.8843 -0.4669 0.4669 0.8843 220.5593 71.8398)" font-family="'MyriadPro-Regular'" font-size="8.8028">K I R K L A R E L İ</text>
        <text transform="matrix(0.2868 -0.958 0.958 0.2868 403.6367 165.311)" font-family="'MyriadPro-Regular'" font-size="8.8028">İ S T A N B U L</text>
    </g>
    <g id="__Harita" display="none">
        <rect id="__cer" x="0" y="0" fill="#000000" opacity="0" width="475" height="345"/>
        <g id="__Süleymanpaşa">
            <path d="
			M298.42,235.03c-0.49-1.66-0.63-3.43-0.63-5.16c-0.54-0.54-0.73-2.19-0.73-2.93c-0.31-0.46-0.46-0.7-0.62-1.27
			c-0.14-0.44-1.1-1.52-1.43-1.9c0.07-1.04-0.85-2.05-1.62-2.71c-0.37-0.43-0.73-0.86-1.1-1.28c-0.73-0.85-2.64-2.01-3.67-2.38
			c-0.91-0.33-1.98-0.37-2.93-0.37c-0.97-0.97-4.42-0.91-5.78-1.59c-1.85-0.93-3.58-2.61-5.69-2.96c-2.41-0.32-4.83-0.63-7.24-0.95
			c-0.97,0.03-1.94,0.05-2.91,0.08c-1.29-0.64-2.59-1.28-3.88-1.91c-1-0.23-1.52-0.48-2.41-1.04c-0.4-0.25-1.62-0.45-1.62-0.98
			c-0.73-0.37-1.47-0.73-2.2-1.1c-1.27-0.3-2.53-0.6-3.8-0.89c-0.38-0.14-1.17-0.29-1.15-0.76c-0.65-0.29-1.81-0.44-2.2-1.1
			c-1.61-0.49-3.22-0.97-4.83-1.46c-0.89-0.15-1.71,0.02-2.5-0.56c-1.57,0-3.07-0.39-4.58-0.74c-0.54-0.14-1.09-0.28-1.63-0.41
			c-1.23-0.23-2.46-0.45-3.69-0.68c-1.79-0.06-3.39-0.33-5.13-0.73c-2.02-1.65-4.03-3.3-6.05-4.95c-0.31-0.43-0.61-0.86-0.92-1.28
			c-0.37,0.37-1.4-0.83-1.76-1.18c-0.16-0.62-1.89-2.03-2.46-2.49c-0.98-1.16-1.96-2.32-2.93-3.48c-1.16-1.49-4.47-3.61-6.4-3.01
			c-0.92,0.3-1.78,0.79-2.59,1.35c-0.43,0.3-0.86,0.61-1.28,0.93c-0.33,0.26-0.67,0.53-1,0.79c-0.38,1.21-1.4,2.08-2.3,2.88
			c-0.4-0.27-1,0.1-1.1,0.55c-0.62,0.16-1.56,0.15-2.02,0.55c0.4,0.4-2.26,1.23-2.79,1.46c-0.28,0.37-2.79,1.52-3.27,1.48
			c-1.17,0.73-1.7,1.39-2.75,2.38c-0.84,0.79-2.38,2.02-4.4,2.57c-0.67,0.24-1.34,0.49-2.02,0.73c-0.36,0.34-0.8,0.61-0.92,1.1
			c-0.09-0.05-0.18-0.1-0.28-0.15c-0.49-0.21-2.78,2.3-3.26,3.54c-0.14,0.35-2.41,2.41-2.7,2.49c-0.43,0.49-0.86,0.98-1.28,1.47
			c-0.61,0.68-0.85,1.51-1.47,2.2c-0.52,0.58-0.65,1.32-1.34,1.81c0.14,1.04-0.56,2.08-1.05,2.96c0,0.55-0.44,1.72-0.92,2.02
			c-0.65,2.09-2.39,4.8-4.03,6.24c-0.43,0.31-0.86,0.61-1.28,0.92c-0.73,0.85-1.46,1.7-2.18,2.56c-0.37,0.41-1.25,0.94-1.3,1.48
			c-0.94,0.51-2.43,1-2.93,2.02c-0.61,0.43-1.22,0.86-1.83,1.28c-0.37,0.18-0.73,0.37-1.1,0.55c-0.53,0.66-2.3,2.11-2.38,2.75
			c-1.44,1.04-2.88,2.04-3.85,3.48c-1.48,1.17-2.96,2.35-4.44,3.52c-0.5,0.4-1.27,1.21-1.43,1.8c-0.5,0.2-0.84,0.41-1.34,0.61
			c1.05,0.23,1.95,0.45,3,0.67c0.39,0.39,0.95,0.65,1.47,0.55c0.86,0.43,1.71,0.86,2.57,1.28c1.14,1.03,2.28,2.05,3.12,3.3
			c1.05,1.56,1.54,3.72,2.11,5.47c0.29,0.88,0.65,1.56,0.45,2.42c0.18,0.37,0.37,0.73,0.55,1.1c0.26,0.83-0.54,4.66-0.85,5.44
			c-0.45,1.11-1.02,2.51-0.4,3.7c0.24,0.45,0.59,0.74,1.07,0.77c0.41,0.73,0.76,1.9,1.65,2.02c0.2,0.55,0.4,1.1,0.6,1.66
			c0.53,0.59,1.06,1.18,1.59,1.77c0.34,0.42,0.62,1.18,1.11,1.35c0.3,0.75,0.6,1.49,0.89,2.24c0.5,0.35,1.15,1.75,1.39,2.36
			c0.26,0.67,0.42,1.98,1.02,2.37c0.35,2.22,0.84,4.6,1.86,6.64c0.6,0.26,0.73,0.9,1.26,1.25c0.73,0.24,1.47,0.49,2.2,0.73
			c1.45,0.79,2.71,2.01,3.09,3.62c0.53,2.24,1.63,6,0.02,7.93c0.27,0,0.41,0.46,0.37,0.73c-0.17,1.06-0.72,2.05-0.37,3.12
			c-0.9,2.07,0.05,2.1,0.37,2.02c1.49,0.6,2.86-1.67,4.88-1.6c0.83-0.77,1.68-1.05,2.82-1.15c0.67,0.06,1.34,0.12,2.02,0.18
			c1.22-0.31,2.45-0.61,3.67-0.92c0.79-0.55,1.59-1.1,2.38-1.65c0.86-0.86,1.71-1.71,2.57-2.57c0.64-0.48,1.73-0.87,2.02-1.65
			c0.43-0.2,0.87-0.4,1.3-0.6c0.26-0.17,0.18-0.12-0.02-0.32c0.31-0.17,0.63-0.34,0.94-0.51c0.34-0.48,3.24-2,3.83-1.87
			c0.69-0.72,1.32-0.74,2.22-1.06c1.83-0.65,4.06-1.25,5.99-0.82c1.3,0.29,2.68,0.92,3.63,1.86c1,0.04,1.67,0.99,2.53,1.4
			c1.73,0.84,3.32,1.81,5.19,2.36c0.82,0.28,1.63,0.56,2.45,0.84c1.12,0.74,3.54,2.57,4.77,2.02c0.91-0.46,1.52-1.25,2.38-1.84
			c3.24-2.19,5.56-5.38,8.25-8.07c0-0.43,0.06-1.16,0.37-1.47c0-0.97,0.6-3.68,0.99-4.52c-0.35-1.17-0.05-1.98-0.05-3.13
			c0-1.64,0.18-3.17,0.34-4.81c0.19-2.47,1.69-6.77,1.32-5.13c0.23-1.22,0.46-2.45,0.69-3.67c0.69-1.64,1.49-3.14,2.75-4.4
			c1.12-3.29,2.24-6.59,3.35-9.88c0.41-0.86,0.82-1.73,1.23-2.59c0.52-0.68,0.92-1.25,1.23-2.02c0.22-0.54,0.65-0.86,0.61-1.46
			c0.49-0.24,0.98-0.49,1.47-0.73c1.29-1.46,2.8-2.29,4.8-2.59c1.17-0.18,2.17-0.11,3.27,0.21c0.43-0.06,0.85-0.11,1.28-0.17
			c0.55,0.06,1.1,0.11,1.66,0.17c0.67-0.12,1.78-0.52,2.2-1.1c1.4-0.45,3.34-0.22,4.4-1.28c0.49-0.06,0.98-0.12,1.47-0.18
			c0.78,0.17,1.33,0.58,2.2,0.37c0.66-0.16,2.1-0.57,2.38-1.1c3.49-0.7,5.06-0.7,5.14-0.92c1.59-0.49,3.17-0.98,4.76-1.47
			c0.51-0.47,1.65-0.49,2.32-0.41c0.86-1.05,1.01-0.59,2.09-0.87c0.12-0.18,0.24-0.37,0.37-0.55c0.6,0.43,1.07,0.22,1.79,0.22
			c0.63-0.26,1.25-0.52,1.88-0.77c1.22-0.18,2.91-0.73,4.21-1.28c1.84,0,3.52,0.34,5.28-0.13
			C297.37,235.84,298.6,235.65,298.42,235.03z"/>
            <circle cx="244.42" cy="242.53" r="1.586"/>
        </g>
        <g id="__Ergene">
            <path d="
			M274.18,89.6c-1,2.38-1.99,4.75-2.99,7.13c-1.91,3.05-3.89,9.13-2.93,12.84c-0.06,0-0.12,0-0.18,0c0.24,0.24,0.23,0.58,0.18,0.92
			c-0.04,0.26-0.1,0.55-0.37,0.55c0.44,0,0.55,1.61,0.55,2.02c0.19,3.73,0.38,7.46,0.57,11.19c-0.13,1.34-0.26,2.69-0.38,4.03
			c0.06,1.89,0.13,3.79,0.19,5.68c0.03,1.09-0.48,2.46-0.01,3.49c-0.88,0.58-3.43,2.44-2.38,3.48c1.17,1.17,2.46,2.42,3.3,3.85
			c0.24,0.49,0.49,0.98,0.73,1.47c0.49,1.53,0.98,3.06,1.47,4.58c-0.16,2.46,0.67,4.97,1.28,7.34c0.14,0.55-0.15,1.2,0.18,1.65
			c-0.12,0.85-0.25,1.71-0.37,2.56c0,0.92,0,1.84,0.01,2.76c0.15,0.47,0.3,0.94,0.45,1.4c-0.09,0.88-0.18,1.75-0.26,2.63
			c0.5,0.5,0.37,0.97,0.37,1.65c0,0.6-0.44,1.3,0.18,1.65c0,1.23-0.02,2.41,0.55,3.48c0.6,1.12,1.63,4.01,1.28,5.14
			c0.62,1.65,1.64,3.11,2.57,4.58c0.22,0.35,1.12,2.38,1.28,2.38c0.43-0.31,0.86-0.61,1.28-0.92c1.06,0,3.74,0.22,4.58-0.37
			c0.23-0.23,0.15-0.36,0.92-0.92c0.37-0.12,0.73-0.24,1.1-0.37c0.97-0.56,1.94-1.12,2.91-1.68c0.75-0.34,1.51-0.68,2.26-1.03
			c2.14-0.79,4.28-1.58,6.41-2.37c0.97-0.34,1.95-0.68,2.92-1.01c0.61-0.17,1.21-0.34,1.82-0.5c2.13,0.01,4.26,0.03,6.38,0.04
			c0.68,0.23,1.37,0.46,2.05,0.69c2.11,0.34,5.52,0.4,7.42-0.57c1.13-0.58,2.77-2.08,3.95-2.18c0.74-1.4,0.82-1.89,2.13-2.99
			c1.49-1.02,2.98-2.04,4.48-3.07c0.72-0.63,2.12-2.02,3.12-2.02c1.94-2,4.33-3.96,6.79-5.13c1.22-0.86,2.44-1.72,3.66-2.57
			c1.65-0.92,3.3-1.83,4.95-2.75c0.24-0.43,0.49-0.86,0.73-1.28c0.43-0.31,0.86-0.61,1.28-0.92c0.59-0.59,2.75-1.91,2.75-2.75
			c0.17-0.17,0.73-0.92,0.73-0.55c0.37-0.55,0.73-1.1,1.1-1.65c0-0.43,0-0.86,0-1.28c0.09-0.51,0.66-0.93,0.09-1.27
			c-0.4-0.31-0.79-0.62-1.19-0.93c-0.61-0.24-1.22-0.48-1.82-0.72c-0.68-0.49-1.35-0.99-2.03-1.48c-0.4-0.45-0.8-0.9-1.2-1.35
			c-0.58-0.65-1.15-1.3-1.73-1.95c-0.87-1.49-1.74-2.98-2.61-4.47c-0.35-0.77-0.7-1.54-1.05-2.32c-0.43-0.41-0.87-0.82-1.3-1.23
			c-0.79-1.18-1.58-2.36-2.37-3.54c-0.49-0.62-1.65-1.32-1.65-2.2c-1.95-1.95-3.84-3.72-6.05-5.32c-1.1-0.37-2.2-0.73-3.3-1.1
			c-0.37-0.24-0.73-0.49-1.1-0.73c-0.37-0.06-0.73-0.12-1.1-0.18c-0.83-0.07-1.86,0.52-2.57-0.18c-3.55-0.09-7.09-0.17-10.64-0.26
			c-1.27,0.06-2.31,0.56-3.52,0.85c-0.78,0.11-1.57,0.21-2.35,0.32c-0.79,0.16-0.43,0.35-1.28,0.18c-0.97-0.19-3.45,0.25-4.03,1.1
			c-0.49-0.06-0.98-0.12-1.47-0.18c-0.33,0.33-1.34,0.13-1.65-0.18c-1.74,0-5.23,1.41-6.73,0.29c-0.42-0.38-3.35-3.02-4.64-4.32
			c-0.24-0.98-0.49-1.96-0.73-2.93c-0.27-0.27-0.55-0.2-0.92-0.18c-0.18-0.55-0.37-1.1-0.55-1.65c-0.18-1.1-0.37-2.2-0.55-3.3
			c-0.02-1.03-0.05-2.05-0.07-3.08c-0.22-0.5-0.44-1-0.66-1.51c-0.05-1.52-0.92-3.67-2.02-4.77c0-1.03-0.84-2.78-1.36-3.82
			c-1.07-2.14-2.32-4.31-3.96-6.08c-0.26-0.33-0.53-0.66-0.79-0.99C275.84,90.33,274.63,89.03,274.18,89.6z"/>
            <circle cx="313.74" cy="168.44" r="1.586"/>
        </g>
        <g id="__Marmaraereğlisi">
            <path d="
			M342.78,213.75c0.79-2.04,1.33-4.02,1.95-6.07c0.25-0.8,1.66-1.75,2.2-2.38c0.31-0.37,0.61-0.73,0.92-1.1
			c0.12-0.31,0.24-0.61,0.37-0.92c-0.16-0.48-0.26-0.54,0.18-0.84c0.73-0.46,1.38-0.64,2.21-0.81c0.92,0.92,2.48-0.1,3.35,1.44
			c1.31,1.67,2.63,3.34,3.94,5.01c0.29,0.34,1.11,1.66,1.51,1.25c-0.06,0.06-0.12,0.12-0.18,0.18c0.41,0.65,0.71,0.83,1.47,0.92
			c0,1.33,1.23,2.29,2.2,3.12c1.37,0,3.43,1.23,4.77,1.65c2.27,0.54,4.54,1.09,6.8,1.63c1.2,0.31,2.4,0.61,3.59,0.92
			c-0.27,0.83-0.42,2.35,0.42,2.95c-0.29,0.7-0.58,1.41-0.87,2.11c0.18,0.29,1.63,1.74,1.97,1.74c-0.92,0.06-1.83,0.12-2.75,0.18
			c0.04,0.42,0.08,0.84,0.11,1.26c0.07,0.56,0.53,0.49,0.93,0.82c0.2-0.14,0.41-0.29,0.61-0.43c-0.14,0.17-0.28,0.34-0.42,0.51
			c-0.68,0.83-2.58,3.42-3.62,3.52c-0.73,1.28-1.47,2.57-2.2,3.85c-0.3,0.65-0.46,3.94,0,4.4c0,0.43-0.31,0.98,0,1.28
			c-0.4,0-0.69,1.3-0.92,1.65c-0.28,0.44-0.21,1.38-0.58,1.59c-0.66,0.43-2.59,0.9-3.27,0.24c-0.37,0.18-0.73,0.37-1.1,0.55
			c-0.18,0.61-0.37,1.22-0.55,1.83c-0.39,0.12-0.92-0.09-0.92,0.36c-0.03,0.33-0.07,0.67-0.1,1c0.34,0.31,0.47,0.39,0.65,0.84
			c0.71,0,1.4,0.37,2.02-0.18c-0.17,0.8-0.19,1.16-0.93,1.58c-0.5,0.27-1,0.53-1.5,0.8c-0.54-0.12-1.07-0.24-1.61-0.36
			c-0.49,0-0.98,0-1.47,0c-0.58,0-1.39,0.36-2.02,0c-0.86,0.08-1.78-0.04-2.02,0.92c-0.01-0.4,0.04-1.25-0.19-1.46
			c-1.79-1.67-1.87-0.78-3.79-0.87c-0.44-0.26-0.89-0.52-1.33-0.79c-0.24,0.24-0.49,0.49-0.73,0.73c-0.98,0.18-1.96,0.37-2.93,0.55
			c-0.37,0.18-0.73,0.37-1.1,0.55c-0.37,0.06-0.73,0.12-1.1,0.18c-0.97-0.12-1.87-0.25-2.84-0.02c-0.43-0.25-0.62-0.52-1.24-0.77
			c-1.02-0.41-2.31-0.23-2.83-1.33c-0.26-0.55-0.51-1.54-1.16-1.54c-0.19-1.59-1.2-2.5-2.02-3.85c-0.43-0.31-0.86-0.61-1.28-0.92
			c-0.62-0.62-1.57-0.87-1.83-1.65c-0.34-0.08-0.33-0.04-0.55-0.37c-0.73-0.05-1.47-0.1-2.2-0.15c-0.06,0.11-0.12,0.22-0.18,0.33
			c-0.42-0.03-0.84-0.07-1.26-0.1c-0.62-0.52-1.24-1.03-1.86-1.55c-2.59,0.08-5.5-1.43-6.97-3.48c-0.76,0-2.33-0.41-2.93,0
			c-2.02-1.12-4.29-1.65-6.6-1.65c-1.1,0.16-2.21,0.32-3.31,0.48c0.05-0.26,0.1-0.51,0.14-0.77c0.11-0.18,1.03-0.61,1.34-1
			c-0.4-0.4,0.17-0.93,0.37-1.36c0.65-1.37,1.62-2.33,2.62-3.51c0.81-0.95,1.3-2.13,2.51-2.64c1.33-1.74,2.79-3.34,4.58-4.58
			c0.86-0.98,1.71-1.96,2.57-2.93c1.16-0.86,2.32-1.71,3.48-2.57c0.98-0.18,1.96-0.37,2.93-0.55c0.73-0.06,3.37-0.35,3.85,0
			c0.67-0.12,1.34-0.24,2.02-0.37c1.77,1.21,2.08,2.18,4.41,2.52C339.56,215.49,342.37,214.82,342.78,213.75z"/>
            <circle cx="335.57" cy="238.49" r="1.586"/>
        </g>
        <g id="__Hayrabolu">
            <path d="
			M137.14,243.26c-0.4,0.09-2.53,1.2-2.75,1.47c-0.66,0.08-2.75-0.01-3.12,0.18c-0.62-0.31-2.8-1.77-3.3-1.65
			c-0.29-0.48-0.55-1.15-1.1-1.28c-0.24-1.1-0.49-2.2-0.73-3.3c0.18-1.16,0.37-2.32,0.55-3.48c0-0.55,0-1.1,0-1.65
			c0.13-0.43,0.25-0.85,0.38-1.28c0.04-0.43-0.12-0.95,0.17-1.29c-0.24-0.61-0.49-1.22-0.73-1.83c-1.36-0.98-2.03-1.01-3.5-1.56
			c-1.27-0.6-2.54-1.21-3.81-1.81c-0.58-0.27-2-1.14-2.6-0.84c-2.18-1.53-4.88-3.11-6.6-5.14c-0.67-0.55-1.34-1.1-2.02-1.65
			c-1.47-0.43-2.93-0.86-4.4-1.28c-1.36-0.36-3.28-1.86-4.48-2.64c-1.93-1.2-3.86-2.4-5.79-3.6c-0.74-0.6-2.02-0.93-2.93-0.92
			c-1.52-0.45-3.05-0.89-4.57-1.34c-1.02-0.5-2.04-1-3.05-1.5c-0.42-0.2-0.84-0.39-1.26-0.58c-0.62-0.15-1.23-0.3-1.85-0.45
			c-0.92-0.48-3.61-1.75-3.77-2.73c-0.36-0.19-0.73-0.37-1.09-0.56c-0.75-0.68-1.51-1.36-2.26-2.04c-0.22-0.57-0.89-1.81-1.42-1.98
			c0-0.55,0-0.55,0-1.1c2.38-0.19,4.76-0.94,7.14-1.13c1.01-0.08,2.34,0.15,3.21-0.45c4.29-2.86,3.26-11.01,4.32-15.66
			c0.31-1.35,1.82-1.97,2.75-2.75c0.61-0.49,1.22-0.98,1.83-1.47c0.6-0.7,2.43-2.78,2.02-3.85c0.18-0.67,0.37-1.34,0.55-2.02
			c0.22-0.56,0.43-1.11,0.65-1.67c0.29-1.99-0.51-3.84-1.28-5.68c-0.44-1.05-0.98-2.27-0.45-3.38c0.97-1.77,2.84-2.46,4.02-3.95
			c0.95-1.2,2.51-5.3,2.2-6.79c-0.16-0.8,0.64-2.03,0.02-2.76c-1.18-1.42-2.99-2.06-4.56-3.01c-0.65-0.44-1.3-0.89-1.95-1.33
			c-0.28-0.26-0.57-0.53-0.85-0.79c-1.28-3.11-1.47-5.62-1.47-8.99c-0.06-0.61-0.12-1.22-0.18-1.83c0.23-0.23,0.41-0.74,0.48-1.31
			c0.05-0.41-0.19-1.24,0.17-1.51c0.56-0.38,1.36-0.81,2.1-0.66c0.37-0.12,0.73-0.24,1.1-0.37c0.79-0.61,1.59-1.22,2.38-1.83
			c0.73-0.65,1.14-1.33,2.02-1.83c0.86-1.28,1.71-2.57,2.57-3.85c0.73-1.47,1.47-2.93,2.2-4.4c0.53-1.29,2.11-2.66,3.12-3.67
			c0.86-0.24,1.71-0.49,2.57-0.73c0.89-0.13,1.78-0.25,2.68-0.38c1.25,0.37,2.49,0.74,3.74,1.11c0.67,0.37,1.34,0.73,2.02,1.1
			c1.14,0,1.85,0.9,2.7,1.5c1.42,0.91,2.85,1.81,4.27,2.72c0.94,0.12,3.9,0.76,4.58,1.28c2.11,0,5.14,1.3,5.58,3.5
			c0.1,0.79,0.19,1.58,0.29,2.37c-0.16,0.99-0.44,2.14-0.18,3.12c0.55,1.22,1.1,2.45,1.65,3.67c0.32,2.19-0.22,4.7,0.64,6.82
			c0.21,0.66,0.43,1.32,0.64,1.98c0.59,0.59,1.7,2.45,2.56,2.37c0.38-0.02,1.07,0.05,1.29-0.17c3.25-1.98,3.66-8.89,2.75-12.1
			c-0.31-1.09-0.92-2.13-0.92-3.3c-0.42-0.42-0.82-1.53-0.52-2.07c0.31-0.39,0.27-0.71,0.69-0.62c0.85,0.17,2.54,0.82,3.13,1.41
			c0.73,0.31,1.47,0.61,2.2,0.92c1.47,0.35,3.42,0.9,4.95,0.55c0.73-0.43,1.47-0.86,2.2-1.28c2.49-0.75,4.61-2.07,7.16-2.71
			c6.09-1.52,10.65,0.52,15.79,3.38c2.53,1.41,5.14,3.01,7.31,5.01c2.53,2.34,2.86,6.2,4.29,9.19c0.53,0.66,1.05,1.33,1.58,1.99
			c1.18,1.45,2.54,2.86,3.85,4.22c0.73,0.43,1.47,0.86,2.2,1.28c0.92,0.92,3.18,1.83,4.22,2.75c1.04,0.67,2.08,1.34,3.12,2.02
			c1.17,0.7,2.34,1.39,3.51,2.09c-0.15,1.24-2.31,2.78-3.32,3.6c-1.1,1.04-2.2,2.08-3.3,3.12c-1.65,0.86-3.3,1.71-4.95,2.57
			c-0.55,0.24-1.1,0.49-1.65,0.73c-0.61,0.14-1.21,0.28-1.82,0.42c-1.27,0.4-2.75,0.84-3.69,1.78c-0.42,0.42-0.92,0.73-0.55,1.29
			c-1.13,0.9-2.3,3.81-2.25,5.3c0.1,0.58,0.2,1.17,0.3,1.75c2,2.13,5.51,2.84,8.01,4.5c1.07,0,2.58,1.15,3.25,1.96
			c1.97,0.27,3.29,2.04,3.54,3.73l-0.01-0.01c-0.43,0.3-0.86,0.61-1.28,0.93c-0.33,0.26-0.67,0.53-1,0.79
			c-0.38,1.21-1.4,2.08-2.3,2.88c-0.4-0.27-1,0.1-1.1,0.55c-0.62,0.16-1.56,0.15-2.02,0.55c0.4,0.4-2.26,1.23-2.79,1.46
			c-0.28,0.37-2.79,1.52-3.27,1.48c-1.17,0.73-1.7,1.39-2.75,2.38c-0.84,0.79-2.38,2.02-4.4,2.57c-0.67,0.24-1.34,0.49-2.02,0.73
			c-0.36,0.34-0.8,0.61-0.92,1.1c-0.09-0.05-0.18-0.1-0.28-0.15c-0.49-0.21-2.78,2.3-3.26,3.54c-0.14,0.35-2.41,2.41-2.7,2.49
			c-0.43,0.49-0.86,0.98-1.28,1.47c-0.61,0.68-0.85,1.51-1.47,2.2c-0.52,0.58-0.65,1.32-1.34,1.81c0.14,1.04-0.56,2.08-1.05,2.96
			c0,0.55-0.44,1.72-0.92,2.02c-0.65,2.09-2.39,4.8-4.03,6.24c-0.43,0.31-0.86,0.61-1.28,0.92c-0.73,0.85-1.46,1.7-2.18,2.56
			c-0.37,0.41-1.25,0.94-1.3,1.48c-0.94,0.51-2.43,1-2.93,2.02c-0.61,0.43-1.22,0.86-1.83,1.28c-0.37,0.18-0.73,0.37-1.1,0.55
			c-0.53,0.66-2.3,2.11-2.38,2.75c-1.44,1.04-2.88,2.04-3.85,3.48c-1.48,1.17-2.96,2.35-4.44,3.52c-0.5,0.4-1.27,1.21-1.43,1.8
			C137.92,242.73,137.14,243.26,137.14,243.26z"/>
            <circle cx="136.77" cy="162.57" r="1.586"/>
        </g>
        <g id="__Malkara">
            <path d="
			M71.12,197.42c0,0.55,0,0.55,0,1.1c0.52,0.17,1.19,1.42,1.42,1.98c0.75,0.68,1.51,1.36,2.26,2.04c0.36,0.19,0.73,0.37,1.09,0.56
			c0.16,0.98,2.84,2.26,3.77,2.73c0.61,0.15,1.23,0.3,1.85,0.45c0.42,0.19,0.84,0.39,1.26,0.58c1.02,0.5,2.04,1,3.05,1.5
			c1.52,0.45,3.05,0.89,4.57,1.34c0.92-0.01,2.19,0.32,2.93,0.92c1.93,1.2,3.86,2.4,5.79,3.6c1.2,0.78,3.12,2.27,4.48,2.64
			c1.47,0.43,2.93,0.86,4.4,1.28c0.67,0.55,1.34,1.1,2.02,1.65c1.72,2.02,4.43,3.61,6.6,5.14c0.6-0.29,2.02,0.57,2.6,0.84
			c1.27,0.6,2.54,1.21,3.81,1.81c1.47,0.56,2.14,0.58,3.5,1.56c0.24,0.61,0.49,1.22,0.73,1.83c-0.3,0.34-0.13,0.86-0.17,1.29
			c-0.13,0.43-0.25,0.85-0.38,1.28c0,0.55,0,1.1,0,1.65c-0.18,1.16-0.37,2.32-0.55,3.48c0.24,1.1,0.49,2.2,0.73,3.3
			c0.55,0.13,0.81,0.8,1.1,1.28c0.5-0.12,2.68,1.34,3.3,1.65c0.36-0.19,2.46-0.1,3.12-0.18c0.22-0.27,2.35-1.37,2.75-1.47
			c0,0,1.88,0.32,2.93,0.55c0.39,0.39,0.95,0.65,1.47,0.55c0.86,0.43,1.71,0.86,2.57,1.28c1.14,1.03,2.28,2.05,3.12,3.3
			c1.05,1.56,1.54,3.72,2.11,5.47c0.29,0.88,0.65,1.56,0.45,2.42c0.18,0.37,0.37,0.73,0.55,1.1c0.26,0.83-0.54,4.66-0.85,5.44
			c-0.45,1.11-1.02,2.51-0.4,3.7c0.24,0.45,0.59,0.74,1.07,0.77c0.41,0.73,0.76,1.9,1.65,2.02c0.2,0.55,0.4,1.1,0.6,1.66
			c0.53,0.59,1.06,1.18,1.59,1.77c0.34,0.42,0.62,1.18,1.11,1.35c0.3,0.75,0.6,1.49,0.89,2.24c0.5,0.35,1.15,1.75,1.39,2.36
			c0.26,0.67,0.42,1.98,1.02,2.37c0.35,2.22,0.84,4.6,1.86,6.64c0.6,0.26,0.73,0.9,1.26,1.25c0.73,0.24,1.47,0.49,2.2,0.73
			c1.45,0.79,2.71,2.01,3.09,3.62c0.53,2.24,1.63,6,0.02,7.93l-0.28,0.09c-0.92,0.73-1.91,0.65-2.66,1.19
			c-0.23-0.04-0.45-0.09-0.68-0.13c-1.65,0.45-3.85,2.17-5.07,3.38c-0.9,1.18-1.8,2.36-2.69,3.54c0,0.85-0.49,1.87-0.92,2.57
			c-0.06,0.31-0.12,0.61-0.18,0.92c0.06,0.49,0.12,0.98,0.18,1.47c-0.21,1.95-0.99,3.2-2.38,4.58c-0.78,0.78-2.36,0.11-3.3,0
			c-1.65-0.19-3.3-0.08-4.95,0c-0.97,0.05-1.77-0.22-2.75,0c-1.97,0.44-3.64,1.42-5.69,1.65c-1.04,0-2.08,0-3.12,0
			c-2.32,0.67-4.65,1.34-6.97,2.02c-1.39-0.24-3.07,0.47-4.4,0.73c-1.62,0.32-3.33,0.67-4.77,1.65c-2.11,1.44-4.22,3.08-5.86,5.13
			c-0.37,0.74-0.74,1.47-1.11,2.21c-0.27,0.27-0.55,0.54-0.82,0.81c-0.18,0.2-1.1-0.5-1.35-0.67c-1.35-0.96-2.71-1.93-4.06-2.89
			c-3.51-0.68-7.02-1.36-10.52-2.05c-1.57-0.02-3.14-0.04-4.71-0.06c-1.72,0-5.87,0.53-6.29,0.44c-2.32,0.06-4.64,0.12-6.96,0.18
			c-3.51-0.25-6.93,0.28-10.42,0.6c-3.72,0.23-7.44,0.47-11.16,0.7c-0.25,0-0.73-2.86-0.73-3.3c-0.06-0.61-0.12-1.22-0.18-1.83
			c0.45-0.69,0.07-1.8,0.18-2.57c0.19-1.3-0.06-4.94-0.73-6.05c-0.92-1.71-1.83-3.42-2.75-5.14c-0.98-1.22-1.96-2.45-2.93-3.67
			c-1.09-0.94-2.17-1.88-3.26-2.83c-1.3-1.32-2.59-2.64-3.89-3.96c-1.16-1.71-2.32-3.41-3.48-5.12c-0.46-1.25-0.91-2.49-1.37-3.74
			c-0.06-0.37-0.13-0.73-0.19-1.1c-0.22-1.56,0.53-2.12,1.94-1.9c1.14-0.87,2.54-0.71,3.86-1.09c0.9-0.24,1.3-0.51,1.09-1.54
			c-0.22-1.04-1.01-1.66-1.4-2.61c-0.37-1.82-0.74-3.65-1.12-5.47c-0.5-2.33-1.08-4.76-0.6-7.14c0.18-0.37,0.37-0.73,0.55-1.1
			c0.37-1.04,0.73-2.08,1.1-3.12c0.18-0.79,0.37-1.59,0.55-2.38c-0.3-0.29-0.37-1.04-0.37-1.47c-1.04-1.46-1.29-4.44-1.29-6.24
			c-0.02-0.62-0.04-1.24-0.06-1.86c0-0.58,0.41-2.91,0.98-2.91c-0.64,0-0.52-0.98-0.29-1.34c0.28-0.35,0.69-0.46,1.02-0.13
			c-0.9-0.9,0.24-2.33,0.79-3.08c1.08-1.6,2.16-3.21,3.24-4.81c0-0.69,0.17-1.13,0.03-1.84c-1.41-1.66-2.82-3.32-4.22-4.97
			c-2.15-2.37-4.29-4.75-6.44-7.12c-1.65-1.1-3.3-2.2-4.95-3.3c-0.49-0.67-0.98-1.34-1.47-2.02c-0.28-0.86-0.56-1.73-0.84-2.59
			c-0.34-1.01,0.22-2.64,0.55-3.63c0.34-1,0.47-1.84,1.02-2.77c1.59-1.04,3.18-2.08,4.77-3.12c1.1-0.24,2.2-0.49,3.3-0.73
			c0.98,0.12,1.96,0.24,2.93,0.37c0.73,0,1.47,0,2.2,0c0.39,0.39,1.47,0.18,2.02,0.18c0.41,0,2.38,0.04,2.38,0.37
			c0.61-0.04,1.22-0.09,1.83-0.13c0.8,0.04,1.59,0.09,2.39,0.13c0.85-0.21,1.7-0.42,2.56-0.62c0.94-0.14,2.11-0.14,2.95-0.66
			c2.59-1.61,5.46-2.71,7.89-4.58c0.48-1.12,1.78-2.57,2.62-3.49c0.41-0.73,0.82-1.46,1.23-2.2c0.51-0.53,1.03-1.05,1.54-1.58
			C68.92,197.67,71.12,197.42,71.12,197.42z"/>
            <circle cx="84.32" cy="275.54" r="1.586"/>
        </g>
        <g id="__Şarköy">
            <path d="
			M219.3,302.13c-0.14,0.22-0.28,0.43-0.42,0.65c-0.95,0.64-1.88,1.19-2.85,1.79c-0.44,0.29-0.88,0.58-1.31,0.87
			c-0.55,0.73-1.1,1.47-1.65,2.2c-0.41,0.26-0.83,0.52-1.24,0.79c-1.14,0.85-1.34,2.41-2.24,3.43c-0.43,0.37-0.86,0.73-1.28,1.1
			c-0.67,0.92-1.34,1.83-2.02,2.75c-1.2,0.47-1.86,1.9-2.75,2.75c-0.49,0.37-0.98,0.73-1.47,1.1c-0.95,1.2-1.9,2.22-2.75,3.48
			c0,0.66-0.3,1.26-0.4,1.83c-0.24,1.32-0.12,2.31-0.88,3.49c-0.13,2.12-0.34,2.97-2.02,4.4c0,1.35-0.88,2.54-1.47,3.67
			c0.51,0.98-0.76,2.88-1.28,3.67c-0.59-0.64-1.17,1.55-1.28,2.02c-0.24,0.31-0.49,0.61-0.73,0.92c-1.52,0.41-1.91,2.11-3.3,2.75
			c-1.86,0.85-3.48,2.06-4.95,3.48c-0.61-0.02-2.38,1-2.38,1.65c-1.05,0.55-1.93,1.23-2.93,1.83c-0.84,0.5-3.12,2.55-3.12,3.48
			c-0.67,0.43-1.34,0.86-2.02,1.28c-2.19,0.36-4.24,1.12-5.87,2.75c-0.43,0.12-0.86,0.24-1.28,0.37c-0.73,0.73-1.47,1.47-2.2,2.2
			c-1.28,0.67-2.57,1.34-3.85,2.02c-0.02,0.58-0.54,1.04-0.85,1.54c-0.63,0.98-0.96,1.84-1.9,2.68c-0.48-0.21-1.3,0.27-1.81,0.45
			c-2.07,0.71-3.53,2.44-5.53,3.22c-0.79,0.31-1.59,0.61-2.38,0.92c-0.73,0.06-1.47,0.12-2.2,0.18c-0.49,0.31-0.98,0.61-1.47,0.92
			c-2.02,0.24-4.03,0.49-6.05,0.73c-1.16,0.31-2.32,0.61-3.48,0.92c-0.58,0.58-1.16,0.73-1.28,0.18c-1.63-0.42-3.91-0.38-5.5,0.18
			c-0.67,0.43-1.34,0.86-2.02,1.28c-1.56,0-4.12,1.24-5.13,2.38c-1.47,0.06-3.37,2.59-4.22,3.67c-0.46,0.36-0.91,0.72-1.37,1.08
			c-1.2,0.97-2.65,2.24-3.22,3.69c-0.43,0.02-0.8,0.25-1.1,0.55c-0.18,0.43-0.37,0.86-0.55,1.28c0,1.13-0.35,1.74-0.68,2.76
			c-0.12,0.41-0.75,0.65-1.15,0.72c-1.46,0.05-2.93,0.11-4.39,0.16c-1.27,0.15-2.42,0.78-3.31,1.67c-1.55,0-5.59,0.97-6.79,1.83
			c-1.07,0-1.95,0.47-2.68,1.2c0.2-0.95,0.41-1.9,0.61-2.85c0.09-0.68,0.12-2.53,0.66-2.93c0.29-0.98,0.57-1.96,0.86-2.94
			c0.77-1.97,1.55-3.94,2.32-5.9c1.93-4.87,3.98-9.8,6.49-14.45c1.17-2.16,2.36-4.26,3.78-6.26c0.39-0.48,0.78-0.97,1.17-1.45
			c0.27,0,0.73-0.92,0.73-1.47c0.81-0.35,1.56-2.38,2.38-3.12c0.36-0.74,0.73-1.48,1.09-2.22c0.98-2.87,1.96-5.74,2.95-8.6
			c-0.37-2.08-0.73-4.16-1.1-6.24c-1.24-2.2-2.47-4.41-3.71-6.61c-0.11-0.12-0.22-0.24-0.33-0.36l0.28-0.11
			c0.27-0.27,0.55-0.54,0.82-0.81c0.37-0.74,0.74-1.47,1.11-2.21c1.64-2.04,3.75-3.69,5.86-5.13c1.44-0.98,3.14-1.33,4.77-1.65
			c1.33-0.27,3.02-0.97,4.4-0.73c2.32-0.67,4.65-1.34,6.97-2.02c1.04,0,2.08,0,3.12,0c2.04-0.23,3.72-1.21,5.69-1.65
			c0.98-0.22,1.78,0.05,2.75,0c1.65-0.08,3.3-0.19,4.95,0c0.94,0.11,2.52,0.78,3.3,0c1.39-1.39,2.17-2.63,2.38-4.58
			c-0.06-0.49-0.12-0.98-0.18-1.47c0.06-0.31,0.12-0.61,0.18-0.92c0.43-0.7,0.92-1.72,0.92-2.57c0.9-1.18,1.8-2.36,2.69-3.54
			c1.21-1.21,3.42-2.93,5.07-3.38c0.23,0.04,0.45,0.09,0.68,0.13c0.75-0.54,1.74-0.46,2.66-1.19l0.28-0.09
			c0.27,0,0.41,0.46,0.37,0.73c-0.17,1.06-0.72,2.05-0.37,3.12c-0.9,2.07,0.05,2.1,0.37,2.02c1.49,0.6,2.86-1.67,4.88-1.6
			c0.83-0.77,1.68-1.05,2.82-1.15c0.67,0.06,1.34,0.12,2.02,0.18c1.22-0.31,2.45-0.61,3.67-0.92c0.79-0.55,1.59-1.1,2.38-1.65
			c0.86-0.86,1.71-1.71,2.57-2.57c0.64-0.48,1.73-0.87,2.02-1.65c0.43-0.2,0.87-0.4,1.3-0.6c0.26-0.17,0.18-0.12-0.02-0.32
			c0.31-0.17,0.63-0.34,0.94-0.51c0.34-0.48,3.24-2,3.83-1.87c0.69-0.72,1.32-0.74,2.22-1.06c1.83-0.65,4.06-1.25,5.99-0.82
			c1.3,0.29,2.68,0.92,3.63,1.86c1,0.04,1.67,0.99,2.53,1.4c1.73,0.84,3.32,1.81,5.19,2.36c0.82,0.28,1.63,0.56,2.45,0.84
			C216.74,300.31,219.3,302.13,219.3,302.13z"/>
            <circle cx="138.97" cy="371.27" r="1.586"/>
        </g>
        <g id="__Muratlı">
            <path d="
			M274.22,212.49c-2.41-0.32-4.83-0.63-7.24-0.95c-0.97,0.03-1.94,0.05-2.91,0.08c-1.29-0.64-2.59-1.28-3.88-1.91
			c-1-0.23-1.52-0.48-2.41-1.04c-0.4-0.25-1.62-0.45-1.62-0.98c-0.73-0.37-1.47-0.73-2.2-1.1c-1.27-0.3-2.53-0.6-3.8-0.89
			c-0.38-0.14-1.17-0.29-1.15-0.76c-0.65-0.29-1.81-0.44-2.2-1.1c-1.61-0.49-3.22-0.97-4.83-1.46c-0.89-0.15-1.71,0.02-2.5-0.56
			c-1.57,0-3.07-0.39-4.58-0.74c-0.54-0.14-1.09-0.28-1.63-0.41c-1.23-0.23-2.46-0.45-3.69-0.68c-1.79-0.06-3.39-0.33-5.13-0.73
			c-2.02-1.65-4.03-3.3-6.05-4.95c-0.31-0.43-0.61-0.86-0.92-1.28c-0.37,0.37-1.4-0.83-1.76-1.18c-0.16-0.62-1.89-2.03-2.46-2.49
			c-0.98-1.16-1.96-2.32-2.93-3.48c-1.16-1.49-4.47-3.61-6.4-3.01c-0.92,0.3-1.78,0.79-2.59,1.35l0.01,0.01
			c-0.25-1.69-1.57-3.46-3.54-3.73c-0.67-0.81-2.18-1.96-3.25-1.96c-2.49-1.66-6.01-2.37-8.01-4.5c-0.1-0.58-0.2-1.17-0.3-1.75
			c-0.05-1.48,1.13-4.39,2.25-5.3c-0.37-0.56,0.13-0.87,0.55-1.29c0.94-0.94,2.42-1.37,3.69-1.78c0.61-0.14,1.21-0.28,1.82-0.42
			c0.55-0.24,1.1-0.49,1.65-0.73c1.65-0.86,3.3-1.71,4.95-2.57c1.1-1.04,2.2-2.08,3.3-3.12c1.01-0.82,3.18-2.36,3.32-3.6l0.51,0.15
			c0.92,0.35,1.85,0.71,2.77,1.06c1.1,0.31,2.2,0.61,3.3,0.92c3,0.43,5.99,0.86,8.99,1.28c0.61-0.18,1.22-0.37,1.83-0.55
			c1.28-1.28,2.53-2.46,4-3.52c0.74-0.41,1.49-0.83,2.24-1.24c1.34-0.43,2.69-0.86,4.03-1.28c1.1-0.66,2.2-1.32,3.3-1.98
			c0.61-0.26,1.23-0.51,1.84-0.77c0.61-0.18,1.22-0.37,1.83-0.55c1.51-1.02,3.26-1.99,4.4-3.48c0.43-0.79,0.86-1.59,1.28-2.38
			c0.74-0.74,1.2-1.18,2.02-1.83c0.37-0.18,0.73-0.37,1.1-0.55c0.73,0.12,1.47,0.24,2.2,0.37c0.9,0.9,1.45,1.92,2.62,2.34
			c0.23-0.05,0.45-0.1,0.68-0.14c0.36,0.5,0.73,1,1.09,1.51c1.2,0.28,3.05,0.59,4.19,0.08c0.67-0.48,1.35-0.97,2.02-1.45
			c0.5-0.35,1-0.7,1.5-1.05l0.92,0.55c1.17,1.17,2.46,2.42,3.3,3.85c0.24,0.49,0.49,0.98,0.73,1.47c0.49,1.53,0.98,3.06,1.47,4.58
			c-0.16,2.46,0.67,4.97,1.28,7.34c0.14,0.55-0.15,1.2,0.18,1.65c-0.12,0.85-0.25,1.71-0.37,2.56c0,0.92,0,1.84,0.01,2.76
			c0.15,0.47,0.3,0.94,0.45,1.4c-0.09,0.88-0.18,1.75-0.26,2.63c0.5,0.5,0.37,0.97,0.37,1.65c0,0.6-0.44,1.3,0.18,1.65
			c0,1.23-0.02,2.41,0.55,3.48c0.6,1.12,1.63,4.01,1.28,5.14c0.62,1.65,1.64,3.11,2.57,4.58c0.22,0.35,1.12,2.38,1.28,2.38
			c0,0,0.09,1.2,0.4,1.82c0.42,0.62,0.83,1.23,1.25,1.85c0.31,0.92,0.61,1.83,0.92,2.75c-0.02,0.56-0.05,1.11-0.07,1.67
			c0.02,0.78-0.42,2.18-1.13,2.5c-0.64,1.21-1.89,1.82-2.83,2.8c-1.11,1.08-2.23,2.17-3.34,3.26c-0.58,0.66-0.72,1.72-0.69,2.61
			c-0.07,0.42-0.13,0.84-0.2,1.26c-0.11,0.32-0.22,0.64-0.33,0.96c0.05,0.79,0.1,1.58,0.15,2.37L274.22,212.49z"/>
            <circle cx="244.79" cy="175.96" r="1.586"/>
        </g>
        <g id="__Çorlu">
            <path d="
			M374.46,216.83c-2.27-0.54-4.54-1.09-6.8-1.63c-1.33-0.42-3.4-1.65-4.77-1.65c-0.97-0.82-2.2-1.78-2.2-3.12
			c-0.76-0.08-1.05-0.27-1.47-0.92c0.06-0.06,0.12-0.12,0.18-0.18c-0.41,0.41-1.23-0.92-1.51-1.25c-1.31-1.67-2.63-3.34-3.94-5.01
			c-0.86-1.54-2.42-0.51-3.35-1.44c-0.83,0.17-1.48,0.35-2.21,0.81c-0.44,0.3-0.34,0.36-0.18,0.84c-0.12,0.31-0.24,0.61-0.37,0.92
			c-0.31,0.37-0.61,0.73-0.92,1.1c-0.54,0.63-1.96,1.58-2.2,2.38c-0.63,2.05-1.16,4.03-1.95,6.07c-0.42,1.07-3.22,1.73-4.28,1.58
			c-2.33-0.34-2.64-1.31-4.41-2.52c-0.67,0.12-1.34,0.24-2.02,0.37c-0.48-0.35-3.12-0.06-3.85,0c-0.98,0.18-1.96,0.37-2.93,0.55
			c-1.16,0.86-2.32,1.71-3.48,2.57c-0.86,0.98-1.71,1.96-2.57,2.93c-1.8,1.24-3.25,2.84-4.58,4.58c-1.21,0.51-1.7,1.69-2.51,2.64
			c-1,1.18-1.97,2.14-2.62,3.51c-0.21,0.43-0.77,0.96-0.37,1.36c-0.31,0.39-1.22,0.82-1.34,1c-0.05,0.26-0.1,0.51-0.14,0.77
			l-0.76,0.05c-0.95-0.07-2.25,0.06-3.08,0.57c0.01,0.52-0.69,0.72-1.1,0.92c-0.73,0-1.47,0-2.2,0c-0.55,0.31-2.02,0.92-2.2,0.92
			l0.08-0.53c-0.49-1.66-0.63-3.43-0.63-5.16c-0.54-0.54-0.73-2.19-0.73-2.93c-0.31-0.46-0.46-0.7-0.62-1.27
			c-0.14-0.44-1.1-1.52-1.43-1.9c0.07-1.04-0.85-2.05-1.62-2.71c-0.37-0.43-0.73-0.86-1.1-1.28c-0.73-0.85-2.64-2.01-3.67-2.38
			c-0.91-0.33-1.98-0.37-2.93-0.37c-0.97-0.97-4.42-0.91-5.78-1.59c-1.85-0.93-3.58-2.61-5.69-2.96l-0.65-0.58
			c-0.05-0.79-0.1-1.58-0.15-2.37c0.11-0.32,0.22-0.64,0.33-0.96c0.07-0.42,0.13-0.84,0.2-1.26c-0.03-0.9,0.11-1.95,0.69-2.61
			c1.11-1.08,2.23-2.17,3.34-3.26c0.94-0.98,2.19-1.59,2.83-2.8c0.71-0.32,1.16-1.72,1.13-2.5c0.02-0.56,0.05-1.11,0.07-1.67
			c-0.31-0.92-0.61-1.83-0.92-2.75c-0.42-0.61-0.83-1.23-1.25-1.85c-0.32-0.62-0.4-1.82-0.4-1.82c0.43-0.31,0.86-0.61,1.28-0.92
			c1.06,0,3.74,0.22,4.58-0.37c0.37-0.32,0.15-0.36,0.92-0.92c0.37-0.12,0.73-0.24,1.1-0.37c0.97-0.56,1.94-1.12,2.91-1.68
			c0.75-0.34,1.51-0.68,2.26-1.03c2.14-0.79,4.28-1.58,6.41-2.37c0.97-0.34,1.95-0.68,2.92-1.01c0.61-0.17,1.21-0.34,1.82-0.5
			c2.13,0.01,4.26,0.03,6.38,0.04c0.68,0.23,1.37,0.46,2.05,0.69c2.11,0.34,5.52,0.4,7.42-0.57c1.13-0.58,2.77-2.08,3.95-2.18
			c0.74-1.4,0.82-1.89,2.13-2.99c1.49-1.02,2.98-2.04,4.48-3.07c0.72-0.63,2.12-2.02,3.12-2.02c1.94-2,4.33-3.96,6.79-5.13
			c1.22-0.86,2.44-1.72,3.66-2.57c1.65-0.92,3.3-1.83,4.95-2.75c0.24-0.43,0.49-0.86,0.73-1.28c0.43-0.31,0.86-0.61,1.28-0.92
			c0.59-0.59,2.75-1.91,2.75-2.75c0.17-0.17,0.73-0.92,0.73-0.55c0.37-0.55,0.73-1.1,1.1-1.65c0-0.43,0-0.86,0-1.28
			c0.09-0.51,0.66-0.93,0.09-1.27l-0.15-0.62c0.49,1.07,1.3,1.24,2.26,1.89c0.43,0.37,0.86,0.73,1.28,1.1
			c0.63,0.46,1.32,0.23,2,0.41c1.65,0.42,3.07,1.03,4.79,1.24c0.33-0.33,0.85-0.11,1.29-0.05c1.22,0.2,2.44,0.4,3.66,0.6
			c1.59-0.06,3.18-0.12,4.77-0.18c0.49,0,1.08-0.38,1.47,0c-1.03,1.03-0.63,4.54-0.37,5.87c0.77,1.1,1.55,2.2,2.32,3.3
			c0.08,0.37,0.16,0.74,0.25,1.11c0.42,0.42,0.73,0.53,0.73,1.28c0.49,0.67,0.98,1.34,1.47,2.02c0.41,1.13,0.54,2.33,0.73,3.48
			c0.35,2.06,1.2,3.74-0.64,5.34c-0.28,0.48-0.55,0.96-0.83,1.44c-0.03,0.35-0.05,0.7-0.08,1.05c-0.13,0.41-0.26,0.82-0.39,1.23
			c0.1,0.1-0.35,0.45-0.67,0.53c-1.17,0.08-5.15,0.62-6.01-0.06c-0.4,0.19-0.98,0.31-1.18,0.7c-0.57,1.19-1.78,4.34-0.66,5.53
			c0,0.37,0,0.73,0,1.1c-0.31,1.47-0.61,2.93-0.92,4.4c-0.36,0.58-0.74,1.24-0.76,1.95c-0.01,0.38,0.13,0.93,0.4,1.17
			c-0.31,1.34-0.61,2.69-0.92,4.03c0.58,0.58,0.7,0.13,0.92,1.1c-0.24,0.73-0.49,1.47-0.73,2.2c0.39,0.39,1.47,0.6,1.47,1.28
			c-0.4,0.94-0.25,2.17-0.92,2.93c0.34,0.52,0.77,0.97,0.73,1.65c-0.05,0.86-1.1,1.85-0.4,2.56c0.31,0.3,1.5,0.09,1.5,0.56
			c0.06,0.24,0.12,0.49,0.18,0.73c-0.24,0.85-0.46,1.4-1.1,2.02c0.06-0.01,0.11-0.02,0.17-0.03c0.66-0.05,1.33-0.11,1.99-0.16
			c0.68-0.24,1.37-0.48,2.05-0.72c0.39,0.15,0.78,0.31,1.16,0.46c0.75-0.9,1.23-2.07,2.35-2.67c0.27-0.31,0.8,0.47,1.07,0.74
			c-0.17,0.26-0.34,0.52-0.5,0.79c-0.69,0.82-2.98,2.9-2.98,3.98c-0.18,0.18-0.67,0.92-0.73,1.1L374.46,216.83z"/>
            <circle cx="324.2" cy="181.83" r="1.586"/>
        </g>
        <g id="__Çerkezköy">
            <path d="
			M376.65,153.03c-0.38-0.38-0.97,0-1.47,0c-1.59,0.06-3.18,0.12-4.77,0.18c-1.22-0.2-2.44-0.4-3.66-0.6
			c-0.44-0.06-0.96-0.28-1.29,0.05c-1.72-0.21-3.14-0.82-4.79-1.24c-0.68-0.17-1.37,0.05-2-0.41c-0.43-0.37-0.86-0.73-1.28-1.1
			c-0.96-0.64-1.77-0.82-2.26-1.89l0.15,0.62c-0.4-0.31-0.79-0.62-1.19-0.93c-0.61-0.24-1.22-0.48-1.82-0.72
			c-0.68-0.49-1.35-0.99-2.03-1.48c-0.4-0.45-0.8-0.9-1.2-1.35l-0.15-0.55c1.34-0.35,2.01-1.55,3.15-2.36
			c2.28-1.62,4.58-3.18,6.28-5.46c0.47-0.63,1.75-1.47,2.57-1.47c1.04-0.79,2.08-1.59,3.12-2.38c0.55-0.46,1.11-0.92,1.66-1.38
			c0.36-0.46,0.73-0.92,1.09-1.38c0-0.63,1.15-1.68,1.65-2.02c0.67-0.24,1.34-0.49,2.02-0.73c0.79-0.67,1.59-1.34,2.38-2.02
			c0.43-0.18,0.86-0.37,1.28-0.55c1.1-1.04,2.2-2.08,3.3-3.12c0.32-0.32,0.46-1.03,0.91-1.15c0.81-0.19,4.42-0.39,4.96,0.05
			c0.98,0.03,2.4,0.15,3.27,0.73c1.13,0.7,2.26,1.39,3.39,2.09c0.66,0.28,1.31,0.57,1.97,0.85c1.51,0,3.38,0.76,4.51,1.68
			c0.37,0.3,0.99,0.71,0.99,1.26c-0.22,1.15-0.67,3.54,0.18,4.4c0,0.55,0,1.1,0,1.65c-0.39,0.56-1.1,1.84-0.55,2.38
			c-0.85,2.15-2.57,3.46-4.03,4.95c-0.43,0.78-0.85,1.56-1.28,2.34c-1.22,0.62-2.45,1.25-3.67,1.87c-1.74,1.36-5.05,4.22-7.34,4.22
			c-1.16,1.04-2.32,2.08-3.48,3.12c-0.48,0.48-0.57,0.96-0.55,1.65V153.03z"/>
            <circle cx="377.2" cy="134.88" r="1.586"/>
        </g>
        <g id="__Kapaklı">
            <path d="
			M324.01,120.94c0.49,0,0.63-0.89,0.76-1.28c0.48-1.49,1.42-2.73,1.99-4.22c0.24-0.73,0.49-1.47,0.73-2.2c0-0.24,0-0.49,0-0.73
			c0.73-2.02,1.47-4.03,2.2-6.05c1.14-2.28,3.52-4.62,5.5-6.05c0.55-0.12,1.1-0.24,1.65-0.37c0.86,0.12,1.71,0.24,2.57,0.37
			c0.55,0.24,1.1,0.49,1.65,0.73c0.43,0.31,0.87,0.62,1.3,0.93c1.07,0.9,1.45,2.19,2.55,3.11c2.16,1.81,6.04,2.87,8.8,3.3
			c0.47-0.69,2.14-0.31,2.92-0.4c1.51-0.16,3.1-0.34,4.6,0.03c1.58-0.21,3.16-0.41,4.74-0.62c2.27-0.53,4.54-1.05,6.81-1.58
			c0.84-1.12,2.96-1.15,4.22-1.47c0.47-0.27,0.95-0.54,1.42-0.81c0.45-0.25,0.89-0.5,1.34-0.76c0.8-0.22,1.6-0.44,2.4-0.66
			c0.79-0.3,1.57-0.6,2.36-0.89c3.05-0.24,5.94-0.41,8.99,0c1.4,0.19,2.54,0.97,3.85,1.47c1.15,0.16,2.31,0.32,3.46,0.48l0.31,0.54
			c-0.25,0.8-0.42,2.05-1.02,2.65c0,1.28,0.36,2.55-0.18,3.67c0.22,0.89,0.12,1.79-0.13,2.69c0.23,0.45,0.45,0.9,0.68,1.35
			c-0.33,1.96-1.76,3.59-2.14,5.47c-0.28,1.39-0.45,2.74-0.97,4.03c-0.04,0.45-0.08,0.91-0.11,1.36l-0.89-0.02
			c-1.13-0.92-3-1.68-4.51-1.68c-0.66-0.28-1.31-0.57-1.97-0.85c-1.13-0.7-2.26-1.39-3.39-2.09c-0.87-0.57-2.29-0.7-3.27-0.73
			c-0.54-0.43-4.16-0.23-4.96-0.05c-0.44,0.12-0.58,0.82-0.91,1.15c-1.1,1.04-2.2,2.08-3.3,3.12c-0.43,0.18-0.86,0.37-1.28,0.55
			c-0.79,0.67-1.59,1.34-2.38,2.02c-0.67,0.24-1.34,0.49-2.02,0.73c-0.5,0.33-1.65,1.39-1.65,2.02c-0.36,0.46-0.73,0.92-1.09,1.38
			c-0.55,0.46-1.11,0.92-1.66,1.38c-1.04,0.79-2.08,1.59-3.12,2.38c-0.82,0-2.1,0.83-2.57,1.47c-1.69,2.28-4,3.83-6.28,5.46
			c-1.13,0.81-1.81,2.01-3.15,2.36l0.15,0.55c-0.58-0.65-1.15-1.3-1.73-1.95c-0.87-1.49-1.74-2.98-2.61-4.47
			c-0.35-0.77-0.7-1.54-1.05-2.32c-0.43-0.41-0.87-0.82-1.3-1.23c-0.79-1.18-1.58-2.36-2.37-3.54c-0.49-0.62-1.65-1.32-1.65-2.2
			c-1.95-1.95-3.84-3.72-6.05-5.32c-1.1-0.37-2.2-0.73-3.3-1.1c-0.37-0.24-0.73-0.49-1.1-0.73c-0.37-0.06-0.73-0.12-1.1-0.18
			c-0.83-0.07-1.86,0.52-2.57-0.18H324.01z"/>
            <circle cx="368.21" cy="118.92" r="1.586"/>
        </g>
        <g id="__Saray">
            <path d="
			M324.2,120.94c-3.55-0.09-7.09-0.17-10.64-0.26c-1.27,0.06-2.31,0.56-3.52,0.85c-0.78,0.11-1.57,0.21-2.35,0.32
			c-0.79,0.16-0.43,0.35-1.28,0.18c-0.97-0.19-3.45,0.25-4.03,1.1c-0.49-0.06-0.98-0.12-1.47-0.18c-0.33,0.33-1.34,0.13-1.65-0.18
			c-1.74,0-5.23,1.41-6.73,0.29c-0.42-0.38-3.35-3.02-4.64-4.32c-0.24-0.98-0.49-1.96-0.73-2.93c-0.27-0.27-0.55-0.2-0.92-0.18
			c-0.18-0.55-0.37-1.1-0.55-1.65c-0.18-1.1-0.37-2.2-0.55-3.3c-0.02-1.03-0.05-2.05-0.07-3.08c-0.22-0.5-0.44-1-0.66-1.51
			c-0.05-1.52-0.92-3.67-2.02-4.77c0-1.03-0.84-2.78-1.36-3.82c-1.07-2.14-2.32-4.31-3.96-6.08c-0.26-0.33-0.53-0.66-0.79-0.99
			c-0.43-0.09-1.65-1.39-2.09-0.82l0.13-1.67c0.39,0,0.91-1.09,0.92-1.47c1.6-1.45,2.4-3.57,4.09-4.92c1.76-1.4,3.74-2.32,5.63-3.52
			c1.53-0.92,3.07-1.83,4.6-2.75c2.74-1.16,5.49-2.32,8.24-3.48c1.34-0.31,2.69-0.61,4.03-0.92c1.1-0.37,2.2-0.73,3.3-1.1
			c1.47,0.12,2.93,0.25,4.4,0.37c1.41,0.12,2.81,0.24,4.22,0.36c1.4-0.36,2.81-0.71,4.21-1.07c1.15-0.18,2.3-0.12,3.41-0.57
			c1.19-0.65,2.38-1.31,3.58-1.96c2.23-1.28,4.49-2.46,6.96-3.26c1.4-0.31,2.81-0.61,4.21-0.92c1.29-0.22,2.57-0.44,3.86-0.66
			c0-0.29,0.82-0.43,1.1-0.55c0.37-0.06,0.73-0.12,1.1-0.18c0.92-0.31,1.83-0.61,2.75-0.92c3.54-1.31,6.69-3.76,9.54-6.24
			c1.76-1.53,3.88-2.71,5.32-4.58c0.89-1.16,0.69-2.67,0.73-4.03c0.24-1.65,0.49-3.3,0.73-4.95c0.47-0.44,1.06-1.19,1.1-1.83
			c0.31-0.34,0.79-0.48,0.92-0.92c1.03-0.35,2.07-0.7,3.1-1.05c0.8-0.14,1.6-0.28,2.4-0.41c1.83,1.08,5.16,2.21,7.27,1.58
			c1.12-0.22,2.25-0.44,3.37-0.66c0.64-0.41,3.52-1.65,4.22-1.65c0.58-0.38,1.49-1.12,2.2-1.1c2.69-1.75,4.78-4.11,7.56-5.79
			c1.06-0.65,2.27-0.92,3.43-1.27c0.49-0.23,0.97-0.47,1.46-0.7c1.23-0.34,2.45-0.69,3.68-1.03c1.09-0.32,1.26-1.12,2.02-1.83
			c1.15-1.09,2.55-1.52,4.03-1.83c0.55-0.12,1.78-1.13,2.19-0.76c0.37,0.44,0.74,0.88,1.11,1.31c0.78-0.39,1.28,0.14,1.81,0.73
			c0.4,0.45,0.76,1.53,1.49,1.29c0.27,0.75-0.16,1.65,0.92,1.83c-0.18,0.49-0.37,0.98-0.55,1.47c0.09,0.57,0.18,1.15,0.27,1.73
			c-0.7,0.46-1.4,0.93-2.1,1.39c-1.16,1.59-2.31,3.18-3.47,4.77c-0.52,0.65-1.05,1.3-1.57,1.95c0.19,0.25,0.33,0.27,0.27,0.61
			c0.41,0.15,1.23,0.42,1.31,0.9c0.05,0.37,0.1,0.75,0.15,1.12c-0.43,0.49-0.86,0.98-1.28,1.47c0.08,0.44,0.04,0.78,0.37,1.1
			c-0.31,0.42-0.62,0.83-0.93,1.25c0.2,0.58,0.91,1.42,0.69,2.03c-0.15,0.48-0.41,0.8-0.31,1.31c-0.24,0.37-0.49,0.73-0.73,1.1
			c-0.7,0.58-1.81,1.06-2.02,2.02c-0.44,0.33-1.47,0.83-1.65,1.28c-0.99,0.04-2.06,0.59-2.57,1.47c-0.54,0.13-3.51,0.38-3.63,0.47
			c-0.34,0.27-0.53,0.53-0.96,0.63c-0.3,1.06-1.28,1.79-1.31,2.73c0.15,1.27,0.5,2.21,0.21,3.5c-0.15,0.32-0.29,0.64-0.44,0.96
			c1.01,0.5,1.95,0.57,3.01,1.05c1.3,0.6,1.61,1.91,2.38,2.93c0.24,0.31,0.49,0.61,0.73,0.92c0.54,0.28,2.33,1.65,2.57,1.65
			c0.31,0.31,0.61,0.61,0.92,0.92c0.02,0.3,0.04,0.6,0.06,0.89c0.36,0.92,1,1.59,1.23,2.59c-0.24,0.67-0.49,1.34-0.73,2.02
			c0.18,0.12,0.37,0.24,0.55,0.37c0.33,0.26,0.03,0.44,0.55,0.55c-0.08,1.16-0.35,2.67,0.37,3.67c0,0.67,0,1.34,0,2.02
			c-0.36,1.16-0.63,2.26-0.55,3.48c0.16,2.46,1.12,3.09,2.07,5.1c0.28,0.59,0.92,1.45,0.41,1.96c-0.39,0.39-1.23,1.04-1.74,0.83
			c-0.31,0.24-0.61,0.49-0.92,0.73c-0.91,0.27-1.85,0.43-2.57,1.1c-0.12,0.49-0.24,0.98-0.37,1.47c-0.06,1.28-0.12,2.57-0.18,3.85
			c-0.18,0.43-0.37,0.86-0.55,1.28c0,1-0.63,2.3-1.67,2.13c-1.15-0.16-2.31-0.32-3.46-0.48c-1.31-0.5-2.45-1.28-3.85-1.47
			c-3.05-0.41-5.93-0.24-8.99,0c-0.79,0.3-1.57,0.6-2.36,0.89c-0.8,0.22-1.6,0.44-2.4,0.66c-0.45,0.25-0.89,0.5-1.34,0.76
			c-0.47,0.27-0.95,0.54-1.42,0.81c-1.26,0.32-3.38,0.35-4.22,1.47c-2.27,0.53-4.54,1.05-6.81,1.58c-1.58,0.21-3.16,0.41-4.74,0.62
			c-1.5-0.36-3.08-0.19-4.6-0.03c-0.78,0.09-2.46-0.3-2.92,0.4c-2.76-0.43-6.64-1.49-8.8-3.3c-1.1-0.92-1.48-2.2-2.55-3.11
			c-0.43-0.31-0.87-0.62-1.3-0.93c-0.55-0.24-1.1-0.49-1.65-0.73c-0.86-0.12-1.71-0.24-2.57-0.37c-0.55,0.12-1.1,0.24-1.65,0.37
			c-1.98,1.43-4.36,3.77-5.5,6.05c-0.73,2.02-1.47,4.03-2.2,6.05c0,0.24,0,0.49,0,0.73c-0.24,0.73-0.49,1.47-0.73,2.2
			c-0.57,1.49-1.52,2.73-1.99,4.22c-0.12,0.39-0.26,1.28-0.76,1.28H324.2z"/>
            <circle cx="355.83" cy="77.75" r="1.586"/>
        </g>
    </g>
</svg>
