<?xml version="1.0" encoding="UTF-8"?>
<!DOCTYPE svg PUBLIC "-//W3C//DTD SVG 1.1//EN" "http://www.w3.org/Graphics/SVG/1.1/DTD/svg11.dtd">
<svg version="1.1" id="HaritaCizim" xmlns="http://www.w3.org/2000/svg" xmlns:xlink="http://www.w3.org/1999/xlink" x="0px" y="0px" viewBox="0 0 600 405" preserveAspectRatio="none">
    <defs id="__def">
        <radialGradient id="f">
            <stop offset="0" stop-color="white" stop-opacity="1"/>
            <stop id="STOP1" offset=".4" stop-opacity="1"/>
            <stop offset="1" stop-color="white" stop-opacity=".2"/>
        </radialGradient>
        <filter id="__flt1" x="0" y="0" width="200%" height="200%" filterUnits="objectBoundingBox">
            <feGaussianBlur in="SourceAlpha" stdDeviation="3" result="blur1"/>
            <feSpecularLighting result="specOut" in="blur1" specularConstant="1.5" specularExponent="20" lighting-color="#bbbbbb">
                <feDistantLight azimuth="45" elevation="30"/>
            </feSpecularLighting>
            <feComposite in="specOut" in2="SourceAlpha" operator="in" result="specOut"/>
            <feComposite in="SourceGraphic" in2="specOut" operator="arithmetic" k1="0" k2="1" k3="1" k4="0"/>
        </filter>
        <filter id="__flt2" x="0" y="0" width="200%" height="200%" filterUnits="objectBoundingBox">
            <feGaussianBlur in="SourceAlpha" stdDeviation="3" result="blur1"/>
            <feSpecularLighting result="specOut" in="blur1" specularExponent="20" lighting-color="#bbbbbb">
                <fePointLight x="-2000" y="100" z="2000"/>
            </feSpecularLighting>
            <feComposite in="specOut" in2="SourceAlpha" operator="in" result="specOut"/>
            <feComposite in="SourceGraphic" in2="specOut" operator="arithmetic" k1="0" k2="1" k3="1" k4="0"/>
        </filter>
        <filter id="__flt3" x0="-50%" y0="-50%" width="200%" height="200%" filterUnits="objectBoundingBox">
            <feGaussianBlur in="SourceAlpha" stdDeviation="3" result="blur"/>
            <feOffset in="blur" dx="0" dy="0" result="offsetBlur"/>
            <feSpecularLighting in="blur" surfaceScale="4" specularConstant=".5" specularExponent="20" lighting-color="flavor" result="specOut">
                <fePointLight x="-5000" y="-10000" z="5000"/>
            </feSpecularLighting>
            <feComposite in="specOut" in2="SourceAlpha" operator="in" result="specOut"/>
            <feComposite in="SourceGraphic" in2="specOut" operator="arithmetic" k1="0" k2="1" k3="1" k4="0" result="litPaint"/>
            <feMerge>
                <feMergeNode in="offsetBlur"/>
                <feMergeNode in="litPaint"/>
            </feMerge>
        </filter>
        <filter id="__flt4" x0="-50%" y0="-50%" width="200%" height="200%">
            <feGaussianBlur in="SourceAlpha" stdDeviation="2" result="blur"/>
            <feOffset dy="-1" dx="-1"/>
            <feComposite in2="SourceAlpha" operator="arithmetic" k2="-1" k3="1" result="hlDiff"/>
            <feFlood flood-color="white" flood-opacity=".7"/>
            <feComposite in2="hlDiff" operator="in"/>
            <feComposite in2="SourceGraphic" operator="over" result="withGlow"/>
            <feOffset in="blur" dy="3" dx="3"/>
            <feComposite in2="SourceAlpha" operator="arithmetic" k2="-1" k3="1" result="shadowDiff"/>
            <feFlood flood-color="black" flood-opacity="1"/>
            <feComposite in2="shadowDiff" operator="in"/>
            <feComposite in2="withGlow" operator="over"/>
        </filter>
        <filter id="__golge1" x="0" y="0" width="200%" height="200%" filterUnits="userSpaceOnUse">
            <feOffset result="offOut" in="SourceAlpha" dx="8" dy="8"/>
            <feGaussianBlur result="blurOut" in="offOut" stdDeviation="3"/>
            <feBlend in="SourceGraphic" in2="blurOut" mode="normal"/>
        </filter>
    </defs>
    <g id="__Harita" fill="white" stroke="#000000" stroke-width="0.25" stroke-miterlimit="10" display="none">
        <rect id="__cer" x="0" y="0" fill="#000000" opacity="0" width="600" height="405"/>
        <g id="__Turhal">
            <path d="   M251.05,143.86c-0.57,0.39-0.84,0.81-1.26,1.33c-0.66,0.17-0.99,1.14-1.41,1.65c-1.22,1.48-1.62,3.59-2.42,5.33   c-1.13,2.14-2.25,4.28-3.38,6.42c-0.57,1.98-1.56,4.17-2.82,5.8c-0.42,0.78-0.84,1.57-1.25,2.35c-0.37,0.37-0.73,0.73-1.1,1.1   c-1.75,1.89-3.52,3.69-5.49,5.33c-0.56,0.27-1.12,0.55-1.68,0.82c-1.64,0.86-3.32,1.69-5.07,2.16c-1.62,0.63-3.23,1.25-4.85,1.88   c-1.2,0.05-2.41,0.1-3.62,0.16c-0.21,0.16-0.42,0.31-0.63,0.47c-0.89,0.26-1.78,0.52-2.67,0.78c-0.3,0.3-0.72,0.67-0.78,1.1   c-1.87,1.06-4.39,2.37-5.02,4.55c-0.16,0.55-0.78,1.12-0.63,1.72c-0.31,0.63-0.63,1.25-0.94,1.88c-0.54,0.54-1.21,2.51-2.19,2.51   c-0.85,0-2.39-1.07-3.14-1.57c-0.68-0.31-1.36-0.63-2.04-0.94c-0.57-0.21-1.15-0.42-1.72-0.63c-1.43-0.79-2.86-1.59-4.29-2.38   c-0.87-0.41-1.74-0.82-2.61-1.22c-0.99-0.37-1.99-0.73-2.98-1.1c-1.2-0.57-2.4-1.15-3.61-1.72c-0.91-1.12-1.83-2.23-2.74-3.35   c-0.18-0.61-0.37-1.22-0.55-1.83c-0.66-0.62-1.73-1.76-2.67-1.88c-1.31-0.1-2.61-0.21-3.92-0.31c-1.1,0.47-2.19,0.94-3.29,1.41   c-0.79,0.23-2.06,0.37-2.67,0.94c-1.46,0.21-3.85,0.56-4.86,1.57c-1.05,0-2.72-0.13-3.61,0.47c-0.36,0-0.88,0.48-0.95,0.11   c-0.05-0.19-0.1-0.39-0.15-0.58c-0.76-0.67-1.8-2.06-2.98-1.25c-0.68-0.68-1.73-0.32-2.51-0.63c-0.57,0.16-1.15,0.31-1.72,0.47   c-0.68,0.16-1.36,0.31-2.04,0.47c-0.58,0.42-1.15,0.84-1.72,1.25c-0.26,0.05-0.52,0.1-0.78,0.16c-0.39,0.28-1.95,1.5-2.19,1.25   c-0.24,0.44-0.58,0.94-1.1,0.94c-0.18,0.23-0.36,0.47-0.54,0.71c-0.34,0.29-0.69,0.57-1.03,0.86c-1.2,1.35-2.4,2.71-3.6,4.06   c-0.34,0.34-1.68,0.86-1.27,1.26c0.21,0.21,0.42,0.42,0.63,0.63c0.26,0.16,0.52,0.31,0.78,0.47c0.1,0.26,0.21,0.52,0.31,0.78   c1.01,1.46,2.33,3.29,4.39,3.29c0.26,0.16,0.52,0.31,0.78,0.47c0.78,0.68,1.57,1.36,2.35,2.04c0.32,0.5,0.63,1,0.95,1.49   c0.5,1.15,1,2.3,1.5,3.45c0.72,1.01,1.53,1.92,2.25,2.9c0.44,0.6,1.22,0.81,1.41,1.57c1.62,1.52,3.24,3.03,4.86,4.55   c0.55,0.51,1.72,0.97,1.88,1.72c1.09,0.49,2.13,0.76,3.25,1.04c0.43,0.07,0.87,0.14,1.3,0.22c0.78,0.1,1.57,0.21,2.35,0.31   c0.84,0.21,1.67,0.42,2.51,0.63c2.46,0.27,4.45,0.6,6.74,1.41c0.32,0.11,0.8,0.33,0.94,0.63c0.37,0.15,0.74,0.3,1.11,0.45   c1.09,1.05,2.19,2.11,3.28,3.16c0,0.44,0.33,0.77,0.63,1.1c0.68,0.63,1.36,1.25,2.04,1.88c1.62,1.67,3.24,3.34,4.86,5.02   c0,0.76,1.01,2.13,1.41,2.82c0.37,1.36,0.73,2.72,1.1,4.08c0,1.67,0,3.34,0,5.02c-0.26,0.63-0.52,1.25-0.78,1.88   c-0.21,0.63-0.42,1.25-0.63,1.88c-0.21,0.21-0.42,0.42-0.63,0.63c-0.16,0.37-0.31,0.73-0.47,1.1c-0.21,0.21-0.42,0.42-0.63,0.63   c-0.1,0.37-0.21,0.73-0.31,1.1c-0.22,0.63-0.73,1.6-0.47,2.19c-0.26,0.63-0.52,1.25-0.78,1.88c-0.32,1.34-0.07,2.57,0.26,3.85   c0.09,0.35-0.06,0.74,0.21,1c0.31,0.32,0.62,0.64,0.93,0.96c0.44,0.04,2.18,0.02,2.36,0.14c0.57-0.05,1.15-0.1,1.72-0.16   c0.56,0.08,1.12,0.16,1.68,0.24c1.59-0.32,3.05-0.33,4.7-0.15c0.85-0.07,1.7-0.14,2.55-0.22c1.14,0.25,4.59,1.76,4.91,1.25   c0.13-0.62,0.62-1.16,1.05-1.6c0.52-1.36,1.05-2.72,1.57-4.08c0.19-1.31-0.5-3.21-1.16-4.28c-0.21-0.35-0.18-0.85-0.57-1.05   c-0.16-1.25-0.31-2.51-0.47-3.76c0.1-0.31,0.21-0.63,0.31-0.94c0.1-0.21,0.21-0.42,0.31-0.63c0.51,0,1.94-1.88,2.67-1.88   c0.36-0.54,0.77-1.41,1.57-1.41c0.26-0.18,0.3-0.3,0.63-0.31c1.13-1.12,2.25-2.24,3.38-3.36c0.39-0.24,0.78-0.48,1.17-0.72   c0.21-0.26,0.42-0.52,0.63-0.78c0.63-0.42,1.25-0.84,1.88-1.25c0.84-0.31,1.67-0.63,2.51-0.94c0-0.36,0.48-0.47,0.78-0.47   c0.89-0.31,1.78-0.63,2.67-0.94c0.73-0.26,1.46-0.52,2.19-0.78c1.43,0,2.83-0.09,4.08,0.63c0.1-0.05,0.21-0.1,0.31-0.16   c1.51,0.39,3.01,0.79,4.52,1.18c0.79,0.25,2.9,1.07,3.63,0.86c0.47,0.26,0.94,0.52,1.41,0.78c1.57,0.52,3.14,1.05,4.7,1.57   c1.62,0.13,3.24,0.27,4.86,0.4c0.67,0.06,1.64-0.06,2.19,0.38c1.23-0.04,2.27-0.18,3.45-0.47c0.31-0.1,0.63-0.21,0.94-0.31   c0.35,0,1.25-0.16,1.25-0.63c0.03-0.92,0-1.76-0.16-2.67c0.05-0.47,0.1-0.94,0.16-1.41c-0.1-0.52-0.19-1.05-0.29-1.57   c-0.05-0.56-0.42-1.57-0.02-2.03c-0.16-0.47-0.31-0.94-0.47-1.41c0.03-0.78,0.07-1.55,0.1-2.33c-0.32-0.58-0.04-1.72,0.11-2.34   c0.09-0.95,0.17-1.9,0.26-2.86c0.05-1.52,0.1-3.03,0.16-4.55c0.52-0.73,1.05-1.46,1.57-2.19c0.31-0.68,0.63-1.36,0.94-2.04   c1.04-1.78,2.09-3.55,3.14-5.33c0.16-0.42,0.31-0.84,0.47-1.25c0.5-0.75,1.41-2.7,1.41-3.61c0.42-0.73,0.84-1.46,1.25-2.19   c0.23-1.15,0.47-3.28,1.1-4.23c0.37-0.73,0.73-1.46,1.1-2.19c0.5,0,0.81-0.92,1.1-1.25c0.48-0.57,0.76-1.12,1.14-1.74   c0.46-0.52,0.91-1.03,1.37-1.55c0.16-0.37,0.31-0.73,0.47-1.1c0.26-2.04,0.52-4.08,0.78-6.11c0-0.42,0-0.84,0-1.25   c0.52-2.13,1.59-4.05,1.88-6.27c0.31-0.84,0.63-1.67,0.94-2.51c0.37-0.47,0.73-0.94,1.1-1.41c-0.13-0.12-0.26-0.24-0.4-0.36   c-1.02-0.14-2.03-0.28-3.05-0.42c-0.5-0.02-1.38-0.18-1.72,0.16c-1.65-0.21-3.11-0.6-4.7-1.1c-0.66-0.21-1.4-0.95-2.04-0.94   c-0.42-0.52-0.84-1.05-1.25-1.57c-0.26-0.21-0.52-0.42-0.78-0.63c-0.26-0.47-0.52-0.94-0.78-1.41c-0.26-0.55-0.7-3.05-0.31-3.45   c-0.27-0.67-0.54-1.35-0.81-2.02c0.13-0.75-0.59-2.83-1.07-3.46c-0.97-1.28-2.16-1.94-3.45-2.82c-0.94,0-2.43-0.4-3.23-1.01   c-0.87-0.67-1.35-1.21-2.1-1.96C251.16,143.76,251.1,143.81,251.05,143.86z"/>
            <circle cx="196.5" cy="206.57" r="1.586"/>
        </g>
        <g id="__Zile">
            <path d="   M204.42,265.8c-0.24-1.48-0.19-2.94-0.04-4.39c-0.07-1.35-0.14-2.7-0.21-4.06c0,0-3.1-1.29-4.24-1.54   c-0.85,0.07-1.7,0.14-2.55,0.22c-1.65-0.18-3.11-0.17-4.7,0.15c-0.56-0.08-1.12-0.16-1.68-0.24c-0.57,0.05-1.15,0.1-1.72,0.16   c-0.18-0.12-1.92-0.1-2.36-0.14c-0.31-0.32-0.62-0.64-0.93-0.96c-0.27-0.27-0.11-0.65-0.21-1c-0.34-1.28-0.59-2.51-0.26-3.85   c0.26-0.63,0.52-1.25,0.78-1.88c-0.26-0.6,0.25-1.56,0.47-2.19c0.1-0.37,0.21-0.73,0.31-1.1c0.21-0.21,0.42-0.42,0.63-0.63   c0.16-0.37,0.31-0.73,0.47-1.1c0.21-0.21,0.42-0.42,0.63-0.63c0.21-0.63,0.42-1.25,0.63-1.88c0.26-0.63,0.52-1.25,0.78-1.88   c0-1.67,0-3.34,0-5.02c-0.37-1.36-0.73-2.72-1.1-4.08c-0.4-0.69-1.41-2.06-1.41-2.82c-1.62-1.67-3.24-3.34-4.86-5.02   c-0.68-0.63-1.36-1.25-2.04-1.88c-0.29-0.33-0.63-0.66-0.63-1.1c-1.09-1.05-2.19-2.11-3.28-3.16c-0.37-0.15-0.74-0.3-1.11-0.45   c-0.14-0.3-0.62-0.51-0.94-0.63c-2.29-0.81-4.28-1.14-6.74-1.41c-0.84-0.21-1.67-0.42-2.51-0.63c-0.78-0.1-1.57-0.21-2.35-0.31   c-0.43-0.07-0.87-0.14-1.3-0.22c-1.12-0.28-2.15-0.55-3.25-1.04c-0.16-0.75-1.33-1.22-1.88-1.72c-1.62-1.52-3.24-3.03-4.86-4.55   c-0.19-0.75-0.97-0.97-1.41-1.57c-0.73-0.98-1.54-1.88-2.25-2.9c-0.5-1.15-1-2.3-1.5-3.45c-0.32-0.5-0.63-1-0.95-1.49   c-0.78-0.68-1.57-1.36-2.35-2.04c-0.26-0.16-0.52-0.31-0.78-0.47c-2.06,0-3.38-1.83-4.39-3.29c-0.1-0.26-0.21-0.52-0.31-0.78   c-0.26-0.16-0.52-0.31-0.78-0.47c-0.21-0.21-0.42-0.42-0.63-0.63l-0.94,0.32c-0.59,0.55-1.18,1.1-1.77,1.66   c-1.49,0.77-3.28,1.55-4.5,2.73c-0.73,0.47-1.46,0.94-2.2,1.41c-0.64,0.2-2.03,0.63-2.66,0.31c-0.31,0.05-0.63,0.1-0.94,0.16   c-0.85,0.55-1.71,1.1-2.56,1.65c-0.4,0.41-0.81,0.82-1.21,1.23c-0.36,0.3-0.73,0.59-1.09,0.89c-1.71,1.77-3.11,4.08-4.24,6.24   c-0.38,1.1-0.76,2.2-1.14,3.3c-0.26,0.72-0.52,1.44-0.77,2.16c0.07,0.42-0.46,2.07-0.73,2.42c-0.22,0.14-0.45,0.27-0.67,0.41   c-1.78,0.82-3.74,1.05-5.57,1.7c-0.3-0.12-2.02,0.39-2.4,0.55c-1.14,0.47-1.87,1.7-2.82,2.51c-1.03,0.88-2.08,1.57-3.33,2.13   c-1.65,0.62-3.3,1.23-4.95,1.85c-0.69,0.35-1.38,0.7-2.07,1.04c-0.57,0.17-1.13,0.34-1.7,0.51c-0.64,0.19-1.27,0.39-1.91,0.58   c-1.25,0.47-2.51,0.94-3.76,1.41c-1.15,0.16-2.3,0.31-3.45,0.47c-0.72,0.34-1.43,0.69-2.15,1.03c-1.84,0.81-3.68,1.62-5.52,2.43   c-1.48,0.68-2.95,1.37-4.43,2.05c-0.27,0.31-0.54,0.62-0.81,0.93c-0.47,0.36-1.29,0.56-1.52,1.08c-0.29,0.17-2.62,1.07-2.19,1.72   c-0.1,0.21-0.21,0.42-0.31,0.63c-0.63,0.67-1.98,1.65-1.88,2.67c-2.09,1.81-3.63,4.41-5.2,6.7c-0.04,0.22-0.08,0.44-0.13,0.67   c-0.67,1.09-1.57,1.94-2.37,2.97c-0.67,0.79-1.35,1.57-2.02,2.36c-0.38,0.32-0.91,0.56-0.63,1.08c0.27,0.57,0.57,1.29,1.26,1.58   c0.53,1.95,0.91,3.82,1.81,5.66c0.3,0.62,0.63,1.61,1.32,1.86c0.33,0.53,0.67,1.06,1,1.59c0.35,0.12,0.8,0.31,1.04-0.02   c0.84,0.52,1.67,1.04,2.51,1.57c1.27,0.61,2.48,0.98,3.67,1.73c0.45,0.73,0.9,1.46,1.35,2.19c0,1.57,0,3.14,0,4.7   c0.11,1.3,0.22,2.61,0.33,3.91c0.03,1.76-0.39,3.41-0.01,5.18c0.37,0.57,0.73,1.15,1.1,1.72c1.18,0.67,2.66,1.22,4.08,1.1   c1.14,0.13,2.28,0.26,3.42,0.39c0.52,0.04,1.04,0.08,1.56,0.12c2.04-0.09,3.88,0.12,5.84,0.73c0.31,0.22,0.62,0.43,0.93,0.65   c1.48,1.83,2.94,3.56,4.49,5.36c0.36,0.41,1.71,1.94,2.14,1.78c0.32-0.11,0.76-0.39,1.05-0.24c2.42-1.64,4.85-3.29,7.27-4.93   c0.61-0.19,1.21-0.37,1.82-0.56c0.36,0.08,0.76,0.3,1.1,0.16c1.17,0.44,2.33,0.63,3.45,1.25c-0.09,0.45,0.58,1.04,0.94,1.25   c0.21,0.42,0.42,0.84,0.63,1.25c0.25,0.34,1.21,1.9,1.1,2.19c0.47,0.52,0.94,1.04,1.41,1.57c0.56,0.34,1.12,0.69,1.68,1.03   c0.54,0.47,2.1,0.84,2.7,0.53c0.73-0.32,1.47-0.63,2.2-0.95c0.21-0.2,0.42-0.41,0.63-0.61c1.78-0.78,3.55-1.57,5.33-2.35   c0.99-0.63,1.99-1.25,2.98-1.88c0.73-0.21,1.46-0.42,2.19-0.63c2.03-0.08,4.06-0.16,6.08-0.24c0.4,0.04,0.8,0.07,1.2,0.11   c0.19-0.06,0.37-0.12,0.56-0.18c0.07,0.08,2,0.11,4.29,0.22c0.29-0.07,0.59-0.15,0.88-0.22c5.38,0.01,10.76,0.02,16.13,0.02   c2.79-0.17,5.52-0.09,8.32,0.27c1.15,0.27,2.3,0.54,3.45,0.8c0.39,0.23,1.31,0.53,1.72,0.47c0.27,0.19,0.54,0.38,0.81,0.57   c0.37,0.21,0.73,0.42,1.1,0.63c0.22,0.61,0.74,3.03,1.1,3.29l0.04,0.5c0.75-0.4,2.04-0.34,3.05-0.44c0.79-0.21,1.58-0.42,2.37-0.63   c0.31-0.26,0.63-0.52,0.94-0.78c2.09-0.52,4.18-1.04,6.27-1.57c1.41-0.16,2.82-0.31,4.23-0.47c0.73,0.26,1.46,0.52,2.19,0.78   l0.22,0.03c0.2-1.35,2.01-1.21,3.07-1.75c1.41-0.84,2.82-1.67,4.23-2.51c0.37-0.37,0.73-0.73,1.1-1.1   c0.78-0.69,1.56-1.38,2.34-2.08c0.21-0.46,0.42-0.91,0.64-1.37c0.47-0.49,1.73-2.46,1.88-3.14c0.67-3.06,1.43-6.13,2.04-9.25   c0-1.31,0-2.61,0-3.92C204.58,267.7,204.5,266.75,204.42,265.8z M148.63,272.19c-0.31-0.12-0.39,0.7-0.42,0.22   c-0.02-0.27-0.04-0.55-0.06-0.82c-0.22-0.09-0.95-0.5-0.95-0.5c-0.43,0.59-1.1,1.13-0.86,1.94c-0.35-0.62-0.71-1.25-1.06-1.87   c0.18-0.72,0.92-2.53,1.81-2.51c0.62-0.08,1.23-0.16,1.85-0.24c0.19,0.17,0.38,0.35,0.57,0.52c0.09,0.53,0.18,1.06,0.27,1.59   C149.55,271.08,149.19,272.32,148.63,272.19z M167.8,272.22c-0.26,0.05-0.37-0.31-0.49-0.51c-0.09-0.34-0.19-0.68-0.28-1.02   c-0.21-0.21-0.42-0.42-0.63-0.63c-0.04-0.13-0.07-0.27-0.11-0.4c-0.06-0.28-0.11-0.56-0.17-0.84c0.73-0.48,0.99-1.23,1.6-1.81   c0.17-0.16,0.61,0.64,0.72,0.86c0.31,0.94,0.63,1.88,0.94,2.82c0.5-0.02,1.02,0.52,1.4,0.8   C171.25,271.87,168.24,272.13,167.8,272.22z"/>
            <circle cx="152.92" cy="232.28" r="1.586"/>
        </g>
        <g id="__Artova">
            <path d="   M204.18,257.36c0.07,1.35,0.14,2.7,0.21,4.06c-0.15,1.45-0.2,2.91,0.04,4.39c0.08,0.95,0.15,1.89,0.23,2.84c0,1.31,0,2.61,0,3.92   c-0.6,3.12-1.36,6.19-2.04,9.25c-0.15,0.68-1.41,2.64-1.88,3.14c-0.21,0.46-0.42,0.91-0.64,1.37c-0.78,0.69-1.56,1.38-2.34,2.08   c-0.37,0.37-0.73,0.73-1.1,1.1c-1.41,0.84-2.82,1.67-4.23,2.51c-1.06,0.55-2.87,0.41-3.07,1.75c-0.03,0.32-0.01,0.42,0.12,0.73   c-0.01,0.11-0.02,0.23-0.03,0.34c0.63,0.62,1.26,1.24,1.9,1.86c0.69,0.93,1.39,1.85,2.08,2.78c0.45,0.65,0.9,1.3,1.35,1.95   c0.31,0.48,1.38,1.84,1.87,1.9c1.21,0.22,2.37,0.14,3.6,0.08c0.46-0.02,1.04,0.06,1.43-0.25c0.73,0.05,1.46,0.1,2.19,0.16   c0.83-0.01,1.59,0.91,2.35,0.63c0.59,0.54,0.97,1.02,1.78,1.21c0.76-0.04,1.53-0.08,2.29-0.11c0.63-0.02,1.25-0.03,1.88-0.05   c1.2-0.19,2.41-0.39,3.61-0.58c1.21-0.57,2.41-1.14,3.62-1.71c1.94-1.02,3.6-1.74,5.79-1.74c0.62,0,1.8-0.11,2.13,0.09   c0.89,0.57,2.37,2.84,2.9,2.99c1.65,0.44,2.34,0.29,3.95-0.33c0.35-0.14,0.64-0.11,0.9-0.4c0.63,0.05,1.25,0.1,1.88,0.16   c0.37,0.1,0.73,0.21,1.1,0.31c0.77,0.6,1.4,1.1,2.07,1.83c-0.04,0.29,0.13,0.41,0.31,0.62c0.46,0.49,0.92,0.98,1.38,1.46   c0.58,0.74,2.79,1.51,3.71,1.81c1.27,0.42,2.42,0.75,3.78,1.08c0.64,0.03,1.28,0.06,1.92,0.08c1.24-0.18,2.48-0.35,3.72-0.53   c2.19-0.24,4.09,0.44,6.24,0.68c0.52-0.08,1.03-0.16,1.55-0.24c0,0.02,0.26,0.55,0.23,0.23c-0.1-0.78-0.2-1.56-0.3-2.34   c0.3-0.79,0.6-1.58,0.9-2.37c0.61-1.1,1.39-2.12,2.4-2.96c0.57-0.73,1.15-1.46,1.72-2.19c0.21-0.16,0.42-0.31,0.63-0.47   c0.56-0.9,1.12-1.79,1.68-2.69c0.17-0.46,0.35-0.92,0.52-1.38c0.93-1.64,2.06-2.84,2.5-4.56c-0.05-0.47-0.09-0.93-0.14-1.4   c-0.01-0.53-0.01-1.05-0.02-1.58c-0.1-0.47-0.21-0.94-0.31-1.41c-0.07-0.45-0.01-1.25-0.31-1.57c0.33-1.72,0.8-3.55,1.57-5.17   c0.31-0.66,0.17-1.88,0.78-2.35c0.16-0.89,0.31-1.78,0.47-2.67c-0.05-0.78-0.1-1.57-0.16-2.35c-0.08-0.87-0.84-2.29-0.63-3.14   c-0.52-1.15-1.05-2.3-1.57-3.45c-0.26-0.1-0.52-0.21-0.78-0.31c-0.57-0.63-1.15-1.25-1.72-1.88c-0.23-0.39-0.46-0.79-0.69-1.18   c-0.4-0.51-1.17-0.97-1.19-1.64c-1.11-0.54-1.98-1.2-2.98-1.88c-0.57-0.21-1.15-0.42-1.72-0.63c-0.93-0.03-2.16-0.01-2.98,0.47   c-0.47,0-1.19,0.11-1.57-0.16c-0.41,0.16-1.22,0.38-1.41,0.78c-2.87,0.36-7.65,2.23-9.25,4.7c-0.68,0.58-1.36,1.15-2.04,1.72   c-0.73,0.31-1.46,0.63-2.19,0.94c-0.37,0.05-0.73,0.1-1.1,0.16c-0.42-0.05-0.84-0.1-1.25-0.16c-1.27-0.61-2.55-1.21-3.82-1.82   c-0.45-0.23-0.9-0.46-1.35-0.69c-2.24-0.28-4.32-0.97-6.48-1.56c-0.71-0.12-1.43-0.24-2.14-0.36c-1.1-0.23-3.17-1.22-4.24-0.58   c-0.57,0-1.15,0-1.72,0c-0.52-0.1-1.05-0.21-1.57-0.31c-0.62,0.11-1.25,0.22-1.87,0.33c-0.5-0.01-1.34-0.19-1.73,0.14   c-0.26,0-0.52,0-0.78,0c-0.84-0.22-2.46-0.97-3.29-0.78c-1.25-0.53-2.51-1.06-3.76-1.59c-0.87-0.7-1.74-1.4-2.62-2.1   C206,258.15,204.11,256.12,204.18,257.36z"/>
            <circle cx="247.49" cy="287.57" r="1.586"/>
        </g>
        <g id="__Sulusaray">
            <path d="   M206.61,304.77c-0.75,0.69-1.12,1.61-1.33,2.6c0.05,0.47,0.1,0.94,0.16,1.41c-0.07,0.9-0.33,2.06,0,2.98   c0.2,0.32,0.4,0.63,0.61,0.95c0.69,1.93,1.37,3.86,2.06,5.79c0.47,1.67,0.94,3.34,1.41,5.02c-1.08,1.4-1.24,3.38-1.88,5.02   c0.05,0.78,0.1,1.57,0.16,2.35c0.26,1.1,0.52,2.19,0.78,3.29c0.85,0.85,0.93,2.27,1.46,3.3c0.12,0.36,0.24,0.72,0.36,1.08   c0.64,0.48,1,2.96,0.85,3.77c-0.19,0.46-0.38,0.92-0.57,1.38c-0.82,1.96-1.6,4.04-1.94,6.14c-0.21,0.57-0.42,1.15-0.63,1.72   c-0.66,0.84-1.49,1.29-2.24,2.03c-0.74,0.72-1.34,1.41-2.43,1.41c-0.85-0.36-1.7-0.73-2.54-1.09c-1.19-1.19-3.53-1.82-5.02-2.66   c-0.94-0.52-1.88-1.05-2.82-1.57c-0.78-0.78-1.57-1.57-2.35-2.35c-0.12-0.27-0.24-0.54-0.35-0.8c-1.45,0.48-2.29,2.58-3.88,2.37   c-0.21,0-0.42,0-0.63,0c-0.46,0.41-1.13,1.07-1.88,0.47c-0.63,0.21-1.25,0.42-1.88,0.63c-0.11-0.14-0.23-0.28-0.34-0.42   c-0.64-0.85-0.64-1.93-1.1-2.85c-0.69-1.37-0.96-3.05-0.91-4.57c-0.1-0.89-0.21-1.78-0.31-2.67c-0.16-0.73-0.31-1.46-0.47-2.19   c-1.41-1.1-2.82-2.2-4.22-3.3c-0.89-1.1-1.78-2.19-2.67-3.29c-0.84-1.46-1.67-2.93-2.51-4.39c-0.28-0.49-1.03-3.31-0.94-3.76   c-0.87-2.61-1.32-5.2-2.1-7.82c-0.5-1.52-1-3.04-1.5-4.57c-0.21-1.04-0.42-2.09-0.63-3.14c0.05-0.57,0.1-1.15,0.16-1.72   c0.78-1.36,1.59-2.48,2.82-3.48c0-0.15,0-0.29,0-0.44c0.21-0.21,0.42-0.42,0.63-0.63c0.28-0.55,0.56-1.41,1.1-1.72   c0.28-0.82,0.25-1.79,1.01-2.22c0.75-0.4,2.04-0.34,3.05-0.44c0.79-0.21,1.58-0.42,2.37-0.63c0.31-0.26,0.63-0.52,0.94-0.78   c2.09-0.52,4.18-1.04,6.27-1.57c1.41-0.16,2.82-0.31,4.23-0.47c0.73,0.26,1.46,0.52,2.19,0.78c0.31,0.63,0.63,1.25,0.94,1.88   c1.07,0.97,1.85,2.3,2.67,3.44c0.47,0.68,0.93,1.36,1.4,2.04c0.57,0.57,1.15,1.15,1.72,1.72c0.26,0.16,0.52,0.31,0.78,0.47   c0.88,0.07,1.76,0.14,2.64,0.21c0.65-0.08,1.09,0.14,1.6-0.37c0.67,0.07,1.34,0.14,2.01,0.21c0.58-0.06,1.66-0.36,2.07,0.26   c0.85,0.17,1.15,0.12,1.51,0.96C206.52,304.63,206.56,304.7,206.61,304.77z"/>
            <circle cx="196.81" cy="321.94" r="1.586"/>
        </g>
        <g id="__Yeşilyurt">
            <path d="   M273.63,333.07c-0.77-1.06-0.65-2.06-1.06-3.17c-0.51-1.38-1.08-1.78-1.92-2.82c-1.36-1.7-1.58-3.79-2.55-5.73   c-0.99-1.98-2.6-3.27-3.72-5.06c-0.98-1.56-0.31-2.35-1.72-5.8l0.07,0.07c-0.52,0.08-1.03,0.16-1.55,0.24   c-2.15-0.24-4.05-0.92-6.24-0.68c-1.24,0.18-2.48,0.35-3.72,0.53c-0.64-0.03-1.28-0.06-1.92-0.08c-1.36-0.33-2.51-0.66-3.78-1.08   c-0.92-0.31-3.13-1.07-3.71-1.81c-0.46-0.49-0.92-0.98-1.38-1.46c-0.18-0.21-0.35-0.33-0.31-0.62c-0.67-0.73-1.29-1.23-2.07-1.83   c-0.37-0.1-0.73-0.21-1.1-0.31c-0.63-0.05-1.25-0.1-1.88-0.16c-0.26,0.29-0.54,0.26-0.9,0.4c-1.61,0.62-2.3,0.77-3.95,0.33   c-0.53-0.15-2.01-2.42-2.9-2.99c-0.33-0.2-1.51-0.09-2.13-0.09c-2.19,0-3.84,0.72-5.79,1.74c-1.21,0.57-2.41,1.14-3.62,1.71   c-1.2,0.19-2.41,0.39-3.61,0.58c-0.63,0.02-1.25,0.03-1.88,0.05c-0.76,0.04-1.53,0.08-2.29,0.11c-0.81-0.19-1.53-0.56-1.53-0.56   c0.05,0.07,0.09,0.14,0.14,0.21c-0.75,0.69-1.12,1.61-1.33,2.6c0.05,0.47,0.1,0.94,0.16,1.41c-0.07,0.9-0.33,2.06,0,2.98   c0.2,0.32,0.4,0.63,0.61,0.95c0.69,1.93,1.37,3.86,2.06,5.79c0.47,1.67,0.94,3.34,1.41,5.02c-1.08,1.4-1.24,3.38-1.88,5.02   c0.05,0.78,0.1,1.57,0.16,2.35c0.26,1.1,0.52,2.19,0.78,3.29c0.85,0.85,0.93,2.27,1.46,3.3c0.12,0.36,0.24,0.72,0.36,1.08   c0.64,0.48,1,2.96,0.85,3.77c-0.19,0.46-0.38,0.92-0.57,1.38c-0.56,1.32-1.09,2.7-1.48,4.1l-0.01-0.25   c1.52,0.61,3.05,1.21,4.58,1.82c0.48,0.21,1.24-0.05,1.57,0.31c0.99-0.21,1.98-0.42,2.97-0.63c1.09-0.26,2.58-0.52,3.07-1.76   c0.76-1.14,1.51-2.27,2.27-3.41c0.2-0.39,0.2-0.96,0.63-1.1c0.17-0.91,0.37-2.06,1.28-2.39c2.29-0.67,4.58-1.33,6.87-2   c1.67-0.86,3.33-1.71,5-2.57c1.47-0.66,2.94-1.32,4.41-1.97c1.57,0.31,3.14,0.63,4.7,0.94c0.63-0.05,1.25-0.1,1.88-0.16   c0.67,0.11,1.35,0.22,2.02,0.33c0.68,0.05,1.37,0.09,2.05,0.14c2.67-0.73,5.33-1.46,8-2.19c0.89-0.26,1.78-0.52,2.67-0.78   c0.84-0.16,1.67-0.31,2.51-0.47c2.84,0.34,5.47,1.16,8.31,1.25L273.63,333.07z"/>
            <circle cx="229.42" cy="320.38" r="1.586"/>
        </g>
        <g id="__Tokat">
            <path d="   M262.95,310.8c-0.1-0.78-0.2-1.56-0.3-2.34c0.3-0.79,0.6-1.58,0.9-2.37c0.61-1.1,1.39-2.12,2.4-2.96c0.57-0.73,1.15-1.46,1.72-2.19   c0.21-0.16,0.42-0.31,0.63-0.47c0.56-0.9,1.12-1.79,1.68-2.69c0.17-0.46,0.35-0.92,0.52-1.38c0.93-1.64,2.06-2.84,2.5-4.56   c-0.05-0.47-0.09-0.93-0.14-1.4c-0.01-0.53-0.01-1.05-0.02-1.58c-0.1-0.47-0.21-0.94-0.31-1.41c-0.07-0.45-0.01-1.25-0.31-1.57   c0.33-1.72,0.8-3.55,1.57-5.17c0.31-0.66,0.17-1.88,0.78-2.35c0.16-0.89,0.31-1.78,0.47-2.67c-0.05-0.78-0.1-1.57-0.16-2.35   c-0.08-0.87-0.84-2.29-0.63-3.14c-0.52-1.15-1.05-2.3-1.57-3.45c-0.26-0.1-0.52-0.21-0.78-0.31c-0.57-0.63-1.15-1.25-1.72-1.88   c-0.23-0.39-0.46-0.79-0.69-1.18c-0.4-0.51-1.17-0.97-1.19-1.64c-1.11-0.54-1.98-1.2-2.98-1.88c-0.57-0.21-1.15-0.42-1.72-0.63   l-0.47-0.78c-0.37-1.52-0.45-2.6-0.63-3.61c-0.48-0.4-0.39-1.88-0.47-2.49c-0.38-2.82,0.18-5.77,0-8.64   c-0.39-0.31-0.34-0.92-0.47-1.41c-0.51-0.17-0.67-1-0.96-1.43c-0.4-0.6-0.8-0.85-1.4-1.23c0.12-0.44-0.81-1.22-1.1-1.57   c0.14-0.53-0.27-1.58-0.55-2.01c-0.18-1.16-0.36-2.32-0.54-3.47c0,0,0.31,0,0.31-0.47c0.03-0.92,0-1.76-0.16-2.67   c0.05-0.47,0.1-0.94,0.16-1.41c-0.1-0.52-0.19-1.05-0.29-1.57c-0.05-0.56-0.42-1.57-0.02-2.03c-0.16-0.47-0.31-0.94-0.47-1.41   c0.03-0.78,0.07-1.55,0.1-2.33c-0.32-0.58-0.04-1.72,0.11-2.34c0.09-0.95,0.17-1.9,0.26-2.86c0.05-1.52,0.1-3.03,0.16-4.55   c0.52-0.73,1.05-1.46,1.57-2.19c0.31-0.68,0.63-1.36,0.94-2.04c1.04-1.78,2.09-3.55,3.14-5.33c0.16-0.42,0.31-0.84,0.47-1.25   c0.5-0.75,1.41-2.7,1.41-3.61c0.42-0.73,0.84-1.46,1.25-2.19c0.23-1.15,0.47-3.28,1.1-4.23c0.37-0.73,0.73-1.46,1.1-2.19   c0.5,0,0.81-0.92,1.1-1.25c0.48-0.57,0.76-1.12,1.14-1.74c0.46-0.52,0.91-1.03,1.37-1.55c0.16-0.37,0.31-0.73,0.47-1.1   c0.26-2.04,0.52-4.08,0.78-6.11c0-0.42,0-0.84,0-1.25c0.52-2.13,1.59-4.05,1.88-6.27c0.31-0.84,0.63-1.67,0.94-2.51   c0.37-0.47,0.73-0.94,1.1-1.41v-0.47c0.59,0.13,1.48,0.32,2.04,0c2.92,0.28,6.04-0.01,8.94-0.63c0.94-0.05,1.87-0.1,2.81-0.15   c2.48-0.16,4.9-0.11,7.23-1.1c0.96-0.41,1.64-0.97,2.4-1.68c0.65-0.28,1.31-0.56,1.96-0.83c1.97-0.62,3.94-1.23,5.91-1.85   c0.75-0.12,1.51-0.25,2.26-0.37c2.24,0.14,4.44,1.17,6.75,0.49c0.23-0.44,0.47-0.88,0.7-1.32c1.14-1.02,3.06-0.23,4.38-0.64   c0.92-0.34,1.84-0.68,2.75-1.01c0.68-0.1,1.36-0.21,2.04-0.31c1.74-0.34,3.39-0.6,5.17-0.63c1.25,0.16,2.51,0.31,3.76,0.47   c0.57,0.22,1.15,0.44,1.72,0.66c4.18,0.93,8.36,1.86,12.54,2.79c1.8,0.63,3.75,0.44,5.49,1.25c1.57,0.21,3.14,0.42,4.7,0.63   c1.39,0.43,2.53,1.19,3.8,1.83c0.57,0.29,1.41,0.68,1.53,1.31c0.42,0.21,0.84,0.42,1.25,0.63c1.1,0.93,1.82,2.88,2.04,4.23   c0.21,0.37,0.42,0.73,0.63,1.1c0.21,0.84,0.42,1.67,0.63,2.51c0.34,0.59,0.68,1.18,1.02,1.77c0.41,1.03,0.81,2.05,1.21,3.08   c0.51,0.68,1.02,1.36,1.53,2.04c0.47,0.31,0.94,0.63,1.41,0.94c2.22,0.5,4.28,1.73,6.58,2.17c0.73,0.04,1.45,0.08,2.18,0.12   c0.75,0.12,2.98,0.71,3.19,1.45c0.08,0.32,0.15,0.63,0.23,0.95c-0.13,0.42-0.27,1.02-0.73,1.16c-0.7,0.24-1.5,0.35-2.05,0.9   c-0.36,0.06-0.73,0.11-1.09,0.17c-0.66,0.22-1.32,0.44-1.98,0.67c-1.17,0.09-2.34,0.17-3.51,0.26c-1.79,0.29-4.05-0.89-5.41,0.99   c-0.29,0.66-0.58,1.32-0.86,1.98c-0.89,2.19-1.78,4.39-2.67,6.58c-0.73,1.25-1.46,2.51-2.19,3.76c-0.26,0.31-0.52,0.63-0.78,0.94   c-2.36,1.6-5.02,2.78-7.68,3.76c-2.37,0.87-4.95,1.87-5.96,4.39c-0.1,0.78-0.21,1.57-0.31,2.35c-0.06,1.62-0.11,3.24-0.17,4.85   c0.06,0.89,0.11,1.78,0.17,2.67c-0.22,0.72-1.16,3.59-0.94,4.08c-1.05,0.45-1.4,3.24-1.46,4.39c-0.06,1.29,0.19,2.38,0.51,3.6   c0.16,0.58,0.31,1.15,0.47,1.72c0.16,0.42,0.32,0.83,0.48,1.25c0.26,0.94,0.52,1.88,0.78,2.83c0.54,1.59,0.94,3.05,1.16,4.69   c0.08,0.58,0.17,1.16,0.25,1.73c0.31,0.58,0.63,1.15,0.94,1.72c0.73,0.94,1.46,1.88,2.19,2.82c0.15,0.51,0.09,0.79,0.63,0.94   c-0.06,0.03-0.13,0.07-0.2,0.1c-0.82,0.38-1.65,0.77-2.47,1.15c-0.31,0.23-0.87,0.17-1.03,0.49c-0.33,0.62-0.67,1.24-1,1.86   c-0.37,0.99-0.73,1.99-1.1,2.98c-0.52,2.35-1.03,4.7-1.55,7.04c-0.11,1.87-0.23,3.75-0.34,5.62c-0.07,0.42-0.38,1.37-0.93,1.13   c-0.05,0.57-0.1,1.15-0.16,1.72c-0.16,0.31-0.31,0.63-0.47,0.94c0.01,0.72,0.02,1.44,0.03,2.16c-0.23,1.45-2.95,3.43-4.11,4.26   c-0.26,0.21-0.52,0.42-0.78,0.64c-0.03,0.2-0.05,0.4-0.08,0.6c-0.58-0.2-1.67,0.02-2.27,0.34c-1.19,2.46-3.89,3.9-6.08,5.55   c-0.74,0.68-1.49,1.35-2.23,2.03c-1.63,0.91-3.42,2.16-4.64,3.63c-0.45,0.17-2.27,1.68-2.41,2.12c-0.73,0.57-1.46,1.15-2.19,1.72   c-1.3,1.58-2.56,4.74-2.82,6.74c0.53,1.25,0.42,3.6,0.32,4.97c-0.03,0.34-0.85-0.19-0.5,0.19c0.63,0.88,0.46,1.82,0.34,2.84   c-0.37,0.07-0.73,0.15-1.1,0.22c-0.24,0.41-0.23,1.56,0,1.97c-0.05,0.82-0.2,1.91,0.47,2.51c0.09,1.01,0.16,1.93,0.06,2.96   c0.13,0.23,0.16,0.18,0.41,0.18c0.06,0.27,0.13,0.54,0.19,0.81c-0.06,0.56-0.13,1.13-0.19,1.7c-0.26,0.42-0.52,0.84-0.78,1.25   c-0.57,0.55-1.14,1.11-1.71,1.66c-0.03,0.49-0.37,0.77-0.8,1c-0.51,0.82-1.26,1.81-2.19,2.19c-0.62,0.17-1.24,0.34-1.86,0.51   c-2.78,0.67-5.55,1.33-8.33,2c-2,0.53-3.56,2.08-5.55,2.61c-0.76,0.12-1.53,0.25-2.29,0.37c-0.89,0.3-1.7,0.78-2.68,0.85   c-1.4-0.03-2.81-0.07-4.21-0.1c-1.52,0.06-3.04,0.13-4.56,0.19c-0.47,0.05-0.94,0.1-1.41,0.16c-1.41-0.05-2.82-0.1-4.23-0.16   c-0.83,0.03-1.65,0.06-2.48,0.09c-0.48-0.08-0.96-0.17-1.44-0.25c-0.41-0.07-0.75,0.1-1.1-0.16c-0.47,0.05-0.94,0.1-1.41,0.16   c-0.01-0.11-0.02-0.23-0.02-0.34l0.02,0.5c-0.77-1.06-0.65-2.06-1.06-3.17c-0.51-1.38-1.08-1.78-1.92-2.82   c-1.36-1.7-1.58-3.79-2.55-5.73c-0.99-1.98-2.6-3.27-3.72-5.06c-0.98-1.56-0.31-2.35-1.72-5.8L262.95,310.8z"/>
            <circle cx="305.92" cy="222.24" r="1.586"/>
        </g>
        <g id="__Pazar">
            <path d="M263.12,258.46c-0.37-1.52-0.45-2.6-0.63-3.61   c-0.48-0.4-0.39-1.88-0.47-2.49c-0.38-2.82,0.18-5.77,0-8.64c-0.39-0.31-0.34-0.92-0.47-1.41c-0.51-0.17-0.67-1-0.96-1.43   c-0.4-0.6-0.8-0.85-1.4-1.23c0.12-0.44-0.81-1.22-1.1-1.57c0.14-0.53-0.27-1.58-0.55-2.01c-0.18-1.16-0.36-2.32-0.54-3.47l0.07-0.1   c-0.29,0.19-0.78,0.26-1.01,0.26c-0.31,0.1-0.63,0.21-0.94,0.31c-1.18,0.29-2.22,0.43-3.45,0.47c-0.55-0.45-1.52-0.32-2.19-0.38   c-1.62-0.13-3.24-0.27-4.86-0.4c-1.57-0.52-3.14-1.05-4.7-1.57c-0.47-0.26-0.94-0.52-1.41-0.78c-0.73,0.22-2.85-0.61-3.63-0.86   c-1.51-0.39-3.01-0.79-4.52-1.18c-0.1,0.05-0.21,0.1-0.31,0.16c-1.25-0.72-2.65-0.63-4.08-0.63c-0.73,0.26-1.46,0.52-2.19,0.78   c-0.89,0.31-1.78,0.63-2.67,0.94c-0.31,0-0.78,0.11-0.78,0.47c-0.84,0.31-1.67,0.63-2.51,0.94c-0.63,0.42-1.25,0.84-1.88,1.25   c-0.21,0.26-0.42,0.52-0.63,0.78c-0.39,0.24-0.78,0.48-1.17,0.72c-1.13,1.12-2.25,2.24-3.38,3.36c-0.33,0.01-0.37,0.13-0.63,0.31   c-0.8,0-1.21,0.87-1.57,1.41c-0.73,0-2.15,1.88-2.67,1.88c-0.1,0.21-0.21,0.42-0.31,0.63c-0.1,0.31-0.21,0.63-0.31,0.94   c0.16,1.25,0.31,2.51,0.47,3.76c0.39,0.2,0.35,0.7,0.57,1.05c0.65,1.07,1.35,2.97,1.16,4.28c-0.52,1.36-1.04,2.72-1.57,4.08   c-0.44,0.44-0.92,0.97-1.05,1.6c0,0,1.15,1.07,1.58,1.3c0.87,0.7,1.74,1.4,2.62,2.1c1.25,0.53,2.5,1.06,3.76,1.59   c0.83-0.18,2.45,0.57,3.29,0.78c0.26,0,0.52,0,0.78,0c0.39-0.33,1.23-0.15,1.73-0.14c0.62-0.11,1.25-0.22,1.87-0.33   c0.52,0.1,1.05,0.21,1.57,0.31c0.57,0,1.15,0,1.72,0c1.07-0.64,3.14,0.35,4.24,0.58c0.71,0.12,1.43,0.24,2.14,0.36   c2.15,0.59,4.24,1.28,6.48,1.56c0.45,0.23,0.9,0.46,1.35,0.69c1.27,0.61,2.55,1.21,3.82,1.82c0.42,0.05,0.84,0.1,1.25,0.16   c0.37-0.05,0.73-0.1,1.1-0.16c0.73-0.31,1.46-0.63,2.19-0.94c0.68-0.57,1.36-1.15,2.04-1.72c1.59-2.47,6.38-4.34,9.25-4.7   c0.19-0.4,1-0.63,1.41-0.78c0.38,0.27,1.1,0.16,1.57,0.16c0.82-0.48,2.05-0.5,2.98-0.47L263.12,258.46z M214.47,241.24   c-0.35,0.82-2.21,0.79-2.64,0.17c-0.05-0.05-0.1-0.1-0.16-0.16c-0.09-1-0.19-2.01-0.28-3.01c-0.12-0.16-0.7-0.85-0.29-0.73   c0.14,0.3,1.76-0.09,1.76-0.09c0.18-0.59,0.48-1.13,0.26-1.78c0.29-0.1,0.58-0.21,0.87-0.31c0.28,0.29,0.57,0.58,0.85,0.87   C214.89,237.82,215.08,239.81,214.47,241.24z"/>
            <circle cx="245.41" cy="239.8" r="1.586"/>
        </g>
        <g id="__Erbaa">
            <path d="   M276.52,164.35c-1.02-0.14-2.03-0.28-3.05-0.42c-0.5-0.02-1.38-0.18-1.72,0.16c-1.65-0.21-3.11-0.6-4.7-1.1   c-0.66-0.21-1.4-0.95-2.04-0.94c-0.42-0.52-0.84-1.05-1.25-1.57c-0.26-0.21-0.52-0.42-0.78-0.63c-0.26-0.47-0.52-0.94-0.78-1.41   c-0.26-0.55-0.7-3.05-0.31-3.45c-0.27-0.67-0.54-1.35-0.81-2.02c0.13-0.75-0.59-2.83-1.07-3.46c-0.97-1.28-2.16-1.94-3.45-2.82   c-0.94,0-2.43-0.4-3.23-1.01c-0.87-0.67-1.35-1.21-2.1-1.96l-0.47,0.16c0.65-0.52,2.62-2.33,2.82-3.14   c2.72-2.93,5.44-5.85,8.15-8.78c0.73-1.04,1.47-2.09,2.2-3.13c0.97-1.12,1.98-2.07,3.13-2.98c0.4-0.55,0.81-1.1,1.21-1.65   c0.27-0.49,0.55-0.99,0.82-1.48c0.73-0.94,1.38-1.66,1.72-2.82c0.53-1.78,0.29-3.84,0.31-5.64c0.03-2.17,0.21-4.42-0.12-6.57   c-0.23-1.46-1.07-4.39-0.06-5.5c0.33-0.38,0.66-0.46,1.1-0.74c0.24-0.15,0.66-0.36,0.66-0.66c0.78-0.26,1.57-0.52,2.35-0.78   c0.47-0.09,0.98-0.35,1.41-0.16c0.37-0.31,0.73-0.63,1.1-0.94c0.69-0.5,0.88-1.31,1.67-1.77c0.5-0.3,1.53-0.98,2.09-0.73   c1.04-0.78,2.09-1.57,3.14-2.35c0.48-0.15,0.95-0.29,1.43-0.44c1.42-0.63,3.26-1.26,4.25-2.49c0.26-0.33,0.82-1.03,0.71-1.46   c-0.5-2.09-3.52-3.19-5.32-4c-0.72-0.23-1.44-0.47-2.17-0.7c-0.63-0.59-1.19-1.08-1.97-1.47c-0.47-0.16-0.94-0.32-1.42-0.49   c-0.81-0.62-3.02-2.49-3.31-3.2c-0.2-0.5-0.62-0.9-0.51-1.43c-0.47-0.22-1.76-0.85-2.19-0.78c-0.26-0.47-0.52-0.94-0.78-1.41   c0.1-0.47,0.21-0.94,0.31-1.41c0-0.57,0-1.15,0-1.72c0-0.62,0.25-1.61-0.16-2.04c0.47-0.52,0.94-1.05,1.41-1.57   c-0.11-1.15-0.18-2.17,0.21-3.27c0.06-0.28,0.13-0.56,0.19-0.85c0.54-0.31,1.77-0.34,1.8-1.05c0-1.24,0.31-4.39,1.85-4.21   c0.12-0.11,0.23-0.23,0.35-0.34c0.53,0.47,1.05,0.93,1.58,1.4c0.17,0.09,0.34,0.17,0.51,0.26c0.35-0.36,0.54-0.86,1.04-0.88   c-0.01-0.37,0.21-2.4,0.78-2.33c0.21-0.01,0.42-0.01,0.63-0.02c0.42,0.21,0.84,0.42,1.25,0.63c0.34,0.48,0.43,0.92,0.92,1.15   c0.45,0.21,0.78,0.33,1.29,0.33c0.05,0.14,0.09,0.27,0.14,0.41c0.05-0.05,0.11-0.1,0.16-0.15c0.25-0.23,1.05-1.2,1.38-1.04   c0.64,0.35,1.27,0.69,1.91,1.03c0.74,0,2.62-0.17,2.98-0.94c0.52-0.05,1.05-0.1,1.57-0.16c0.66-0.44,1.52-1.12,2.35-0.78   c0.71-0.57,1.42-1.15,2.13-1.72c1.21-0.77,1.69-0.8,2.58-2.04c0.44,0.04,1.27,0.03,1.57-0.47c0.52,0,1.54-0.08,1.57,0.63   c0.49,0,2.23-0.32,2.67-0.63c0.78-0.02,2.76,0.01,3.29-0.47c0.43,0.09,0.85,0.18,1.28,0.27c0.41-0.41,0.82-0.81,1.23-1.22   c-0.17-0.53-0.26-1.12,0.04-1.59c0.26-0.35,1.34-1.69,1.82-1.26c0.38,0.32,0.66,0.47,1.12,0.66c0.16,0.84,0.98,3.32,1.9,3.48   c0.84,0.11,1.94-0.13,2.18,0.75c-0.01-0.1-0.02-0.21-0.03-0.31c-0.04-0.37-0.08-0.73-0.12-1.1c0.42-0.26,0.84-0.52,1.25-0.78   c0.04-0.59,0.13-1.94,0.92-1.83c0.75,0.46,1.47,0.89,2.37,0.89c0.73,0.42,1.47,0.83,2.2,1.25c0.65,0.22,1.4-0.55,1.94,0.1   c0.14,0.18,0.27,0.36,0.41,0.53c-0.08,0.27-0.16,0.54-0.23,0.81c0.72,0.23,1.87,0.01,2.43,0.45c0.26-0.25,0.53-0.5,0.79-0.74   c0.36,0.81,0.53,1.58,0.47,2.47c0.2,1.68,0.41,3.35,0.61,5.03c0.32,0.99,0.64,1.98,0.96,2.97c0.65,0.72,1.21,1.37,2.04,1.88   c2.71,1.66,5.89,2.25,8.91,3.07c1.46,0.41,2.93,0.82,4.39,1.23c1.14,0.28,4.39,1.02,4.64,2.14c0.47,2.81-0.54,5.8,1.62,8.11   c1.25,1.34,3.37,2.68,4.89,3.79c1.2,0.47,2.4,0.94,3.61,1.41c1.15,0.68,2.3,1.36,3.45,2.04c1.7,1.12,4.26,1.29,5.19,3.2   c0.15,0.24,0.3,0.48,0.46,0.72c0.26,4.08-0.57,8.05-1.47,12.03c-0.17,0.75-0.7,3.68-1.31,3.93l0.28,0.26   c-0.47,0.08-1.62,1.23-2.2,1.65c-0.37-0.17-0.72,0.02-1.1,0.16c-0.53-0.31-2.9,0.21-3.39,0.56c-0.79,0.57-1.41,4-0.71,4.96   c-0.13,3.76,1.87,8.18-0.56,11.5c-0.33,0.13-0.66,0.26-0.99,0.39c-0.8,0.5-1.42,0.66-2.35,0.78c-0.63,0-1.25,0-1.88,0   c-0.73,0.26-1.46,0.52-2.19,0.78c-1.62,0.21-3.24,0.42-4.86,0.63c-1.62,0.78-3.24,1.57-4.86,2.35c-0.16,0.61-1.85,2.1-2.49,2.28   c-0.53,0.55-1.06,1.09-1.58,1.64c-0.08,1.17-1.71,2.9-2.43,3.86c-0.23,0.33-0.47,0.67-0.7,1c-0.16,0.37-0.31,0.73-0.47,1.1   c-0.17,0.81,0.17,1.71-0.47,2.35c-0.19,3.01,0.61,8.53-2.82,9.88l0.47,0.31c-1.25-0.16-2.51-0.31-3.76-0.47   c-1.78,0.03-3.43,0.29-5.17,0.63c-0.68,0.1-1.36,0.21-2.04,0.31c-0.92,0.34-1.84,0.68-2.75,1.01c-1.32,0.41-3.25-0.38-4.38,0.64   c-0.23,0.44-0.47,0.88-0.7,1.32c-2.3,0.68-4.5-0.36-6.75-0.49c-0.75,0.12-1.51,0.25-2.26,0.37c-1.97,0.62-3.94,1.23-5.91,1.85   c-0.65,0.28-1.31,0.56-1.96,0.83c-0.76,0.7-1.44,1.27-2.4,1.68c-2.33,0.99-4.75,0.94-7.23,1.1c-0.94,0.05-1.87,0.1-2.81,0.15   c-2.89,0.62-6.02,0.91-8.94,0.63c-0.56,0.32-1.44,0.13-2.04,0L276.52,164.35z"/>
            <circle cx="308.39" cy="119.69" r="1.586"/>
        </g>
        <g id="__Reşadiye">
            <path d="   M436.25,205.42c-0.25,0.19,0.56,1.64,0.69,1.94c0.87,2.02,0.74,4.35,2.07,6.11c0.98,1.3,2.69,2.05,4.23,2.51   c1.1,0.73,2.19,1.46,3.29,2.19c2.19,1.63,4.38,3.26,6.57,4.88c1.8,1.69,3.6,3.38,5.4,5.07c0.87-0.02,1.74-0.05,2.61-0.07   c1.86-0.06,3.74,0.22,5.49,0.77c0.17,0.5,1.14,0.94,1.61,1.19c1.71,0.7,3.42,1.4,5.13,2.1c3.19,1.41,6.38,2.82,9.56,4.23   c1.87,0.4,4.86,1.79,6.11,3.29c0.52,0.05,1.05,0.1,1.57,0.16c0.84,0.42,1.67,0.84,2.51,1.25c0.68,0.63,1.36,1.25,2.04,1.88   c0.18,0.59,1.64,1.82,2.15,2.28c0.64,0.65,1.28,1.3,1.92,1.96c0.58,0.42,1.17,0.85,1.75,1.27c0.98,0.52,1.97,1.03,2.95,1.55   c0.31,0.26,0.62,0.53,0.93,0.79c0.37,0.26,0.74,0.52,1.11,0.78c0.21,0.57,1.04,1.01,1.61,1.18c0.09,0.02,0.18,0.05,0.27,0.07   c0.02-0.13,0.04-0.26,0.05-0.39c0.51-0.21,0.77-0.43,1.19-0.74c1.05-0.78,2.37-1.14,3.65-1.65c1.56-0.62,3.2-1.23,4.86-1.88   c0.51-0.17,1.03-0.35,1.54-0.52c0.42-0.21,0.84-0.42,1.25-0.63c1.19-0.29,2.29-0.79,3.29-1.57c0.36,0.03,0.65-0.36,0.87-0.61   c0.65-0.68,1.3-1.37,1.95-2.05c0.41-1.06,0.66-1.84,0.31-2.98c0.08-0.08,0.17-0.16,0.25-0.25c0.02-0.13,0.04-0.25,0.06-0.38   c0.63-0.21,1.25-0.42,1.88-0.63c-0.11-0.59,0.43-0.97,0.78-1.44c0.32-0.51,0.63-1.03,0.95-1.54c0.31-0.26,0.63-0.52,0.94-0.78   c0.29-0.95,2.28-2.2,2.98-2.98c1.41-1.36,2.82-2.72,4.23-4.08c0.4-0.82,0.8-1.64,1.2-2.46c0.07-0.12,0.14-0.24,0.21-0.36   c0.34,0.28,1.24,0,1.72,0c-0.05-0.51-0.1-1.01-0.14-1.52c-0.27-0.07-0.53-0.14-0.8-0.21c0.58-1.05,0.72-1.85,0.81-3.01   c0.03-0.79,0.06-1.57,0.09-2.36c0.01-0.46,0.03-0.91,0.04-1.37c0.26-1.57,0.52-3.14,0.78-4.7c0-1.36,0-2.72,0-4.08   c0.42-1.67,0.84-3.34,1.25-5.02c0.15-0.96,0.29-1.92,0.44-2.88c0.12-1.6,0.23-3.2,0.35-4.8c-0.15-2.06,0.57-5.05,1.57-6.9   c0.1-0.57,0.21-1.15,0.31-1.72c0.25-1.32,0.53-2.63,1.1-3.92c0.26-0.78,0.52-1.57,0.78-2.35c0.38-0.31,0.76-0.62,1.14-0.94   c0.09-0.05,0.18-0.11,0.27-0.16c-0.54-0.26-0.28-1.58-0.31-2.19c-0.29-0.07-0.35-0.37-0.47-0.63c0.69-1.39,0.43-3.36,0.31-4.86   c-0.12-1.46-0.19-2.95-0.91-4.25c-0.38-0.36-0.75-0.72-1.13-1.08c-0.77-1.01-1.87-1.75-2.98-2.35c-0.17-0.59-0.9-0.86-1.4-1.13   c-1.47-0.72-2.94-1.44-4.41-2.16c-3.19-1.41-7.64-1.98-10.99-1.01c-0.79-0.01-1.57-0.01-2.36-0.02c-1.14-0.34-2.28-0.67-3.41-1.01   c-1.22-0.49-2.45-0.99-3.67-1.48c-3.17-0.9-6.38-1.59-9.66-2.12c-1.15,0.16-2.3,0.31-3.45,0.47c-0.42,0.16-0.84,0.31-1.25,0.47   c-1.7,0.96-2.9,0.45-4.73,0.42c-1.19,0.07-2.39,0.14-3.58,0.21c-2.09-0.85-4.17-1.69-6.26-2.54c-1.41-0.49-2.62-1.47-3.87-2.31   c-0.28-0.21-0.56-0.43-0.84-0.64c-1.34-0.72-2.67-1.44-4.01-2.16c-1.57-1-2.39-2.77-3.42-4.24c-0.52-0.73-0.87-1.47-1.71-1.87   l-0.16-0.43c-1.65,2.54-5.6,3.86-8.41,4.93c-0.46,0.11-0.91,0.23-1.37,0.34c-0.57,0.26-2.08,1.06-2.59,0.82l0.5,0.09   c0,0.96-0.63,1.36-1.19,2.12c0.01,0.02-0.18,1.78-0.2,2.07c0.33,0.53-0.03,1.34-0.14,1.93c-0.33,1.79-0.36,2.9-1.38,4.23   c0.05,0.42-0.31,0.78-0.55,1.41c-0.28,0.63-0.63,1.94-1.27,2.15c-1.31,0.42-2.41-0.07-3.73,0c-1.5,0.08-3.05,0.77-4.39,1.46   c-0.71-0.04-1.62,0.7-1.94,1.29c-0.35,0.92-0.7,1.85-1.05,2.77c0.17,1.04-0.04,1.79-0.16,2.82c-0.15,1.26,0.2,2.32,0,3.61   c-0.46,2.9-1.32,5.89-1.57,8.94c-0.03,0.43,0.07,1.23,0.31,1.57c0,0.72,0,1.43,0,2.15c-0.01,0.42-0.12,1,0.16,1.3   c-0.16,0.47-0.31,0.94-0.47,1.41c-0.1,0.75-0.13,1.26-0.52,1.94c0.06,0.48,0.15,0.31-0.1,0.56c0.16,0.87-0.31,1.65-1.41,1.26   l-1.67,0.26l-1.79,1.12c-0.81,0.6-3.59,2.32-3.62,3c0.02,0.4-0.21,0.87,0.18,1.26c-0.27,1.64-0.45,3.35-0.16,5.02   c-0.4,0.64-0.38,0.95-1.08,0.84L436.25,205.42z"/>
            <circle cx="483.96" cy="205.04" r="1.586"/>
        </g>
        <g id="__Başçiftlik">
            <path d="   M462.96,148.16c-0.35-0.13-0.71-0.25-1.06-0.38c-1.11-0.92-1.91-2.05-3.22-2.62c-0.91-0.23-1.83-0.46-2.74-0.69   c-0.52-0.05-1.04-0.09-1.56-0.14c-2.14,0.4-4.25,0.08-6.42,0.29c-0.45,0.04-2.43,0.7-2.67,0.96c-1.4-0.09-3.04,0.19-4.37-0.37   c-0.91-0.38-2.78-0.63-3.15-1.67c-1.48-0.33-2.87-0.37-4.23-1.1c-0.4-0.21-1.33-0.95-1.25-1.41c-0.69-0.37-1.39-0.75-2.08-1.12   c-0.14-0.36-0.1-0.3-0.42-0.26c-1.46,0.18-2.87,0.19-4.29,0.64c-0.71,0.4-1.43,0.81-2.15,1.21c-0.42,0.89-0.84,1.78-1.25,2.67   c-0.09,0.52-0.19,1.04-0.28,1.55c-0.22,0.58-0.44,1.16-0.66,1.74c-1.78,2.3-3.55,4.6-5.33,6.9c-0.5,0.6-0.62,2.32-0.83,3.11   c-0.13,0.47-0.41,0.71-0.11,1.12c-0.05,0.26-0.1,0.52-0.16,0.78c-0.3,0.77-0.85,1.97,0.02,2.34c0.41,0.21,0.82,0.42,1.23,0.64   c0.52,0.1,1.05,0.21,1.57,0.31c0.49,0.15,0.97,0.45,1.52,0.37c0.42-0.06,0.88-0.04,1.15-0.37c1.2-0.04,4.41-0.3,5.26,0.55   c0.28,0.28,1.21,1.22,0.94,1.59c-0.2,0.31-0.2,0.75-0.39,1.07c-0.12,0.99-2.01,0.73-3.84,1.18c-0.53,0.13-1.41,0.24-2.59,0.47   c-0.42,0.16-0.84,0.31-1.25,0.47c-1.02,0.49-2,0.52-2.58,1.69c-0.08,0.11-0.15,0.22-0.23,0.33c0.06,0.45-0.05,0.6,0.31,0.91   c0.57,0.48,0.47,0.48,1.2,0.62c0.54,0.14,1.19,0.07,1.62,0.51c1.25,0.07,2.5,0.13,3.75,0.2c0.46,0.31,2.86,0.12,3.3-0.2   c1.36,0.07,2.71,0.14,4.07,0.21c1.1,0.25,2.19,0.5,3.29,0.75c0.69,0.13,2.11,0.61,2.67,0.13c0.57,0.21,1.15,0.42,1.72,0.63   c1.86,0.49,4.69,0.9,5.1,3.16c0.33,0.2,0.33,0.36,0.31,0.74c0.26,0.21,0.26,0.09,0.17,0.31c-0.35,0.87-0.75,1.55-1.25,2.33   c-0.35,0.15-2.2,1.66-2.3,1.93c-1.04,0.63-2.09,1.25-3.14,1.88c-0.78-0.05-1.57-0.1-2.35-0.16c-0.52-0.21-1.04-0.42-1.57-0.63   c-0.74-0.45-1.49-0.89-2.23-1.34c-0.72-0.34-1.44-0.68-2.17-1.01c-1.65-1.21-4.09-1.85-6.1-1.88c-0.45-0.02-0.91-0.05-1.36-0.07   c-0.56,0.47-1.63,1.35-1.25,2.24c0.23,0.53,0.95,1.56,0.89,2.07c1.42,0.73,2.83,1.45,4.38,1.93c0.73,0.16,1.46,0.33,2.19,0.49   c1.19,0.46,2.3,1.2,3.56,1.42c0.35,0.39,2.5,1.18,3.03,1.18c0.78,0.47,1.57,0.94,2.35,1.41c1.08,0.43,2.04,1.02,4.31,1.96   c0.3,0.22,1.49,0.55,2.35,1.1l1.49,0.39c1.1,0.39,1.57-0.39,1.41-1.26c0.25-0.25,0.17-0.08,0.1-0.56c0.39-0.69,0.43-1.19,0.52-1.94   c0.16-0.47,0.31-0.94,0.47-1.41c-0.28-0.3-0.17-0.88-0.16-1.3c0-0.72,0-1.43,0-2.15c-0.24-0.34-0.35-1.14-0.31-1.57   c0.25-3.05,1.11-6.04,1.57-8.94c0.2-1.29-0.15-2.35,0-3.61c0.12-1.03,0.32-1.78,0.16-2.82c0.35-0.92,0.7-1.85,1.05-2.77   c0.32-0.59,1.23-1.33,1.94-1.29c1.34-0.7,2.89-1.38,4.39-1.46c1.32-0.07,2.42,0.42,3.73,0c0.64-0.21,0.99-1.52,1.27-2.15   c0.23-0.63,0.6-0.99,0.55-1.41c1.02-1.33,1.05-2.45,1.38-4.23c0.11-0.58,0.47-1.4,0.14-1.93c0.02-0.29,0.2-2.05,0.2-2.07   c0.56-0.76,1.19-1.16,1.19-2.12L462.96,148.16z"/>
            <circle cx="444.03" cy="156.56" r="1.586"/>
        </g>
        <g id="__Niksar">
            <path d="   M440.41,194.62c-0.81,0.6-3.59,2.32-3.62,3c0.02,0.4-0.21,0.87,0.18,1.26c-0.27,1.64-0.45,3.35-0.16,5.02   c-0.4,0.64-0.38,0.95-1.08,0.84c-1.02-0.22-3.06-1.3-3.93-1.16c-0.68-0.28-1.28-0.88-2.04-0.78c-1.09-0.67-2.2-1.33-3.45-1.72   c-1.46-0.33-2.92-0.65-4.38-0.98c-1.15-0.4-2.31-0.81-3.46-1.21c-0.73-0.42-1.46-0.84-2.19-1.25c-0.21-0.63-0.42-1.25-0.63-1.88   c-0.31-0.37-0.61-0.74-0.92-1.11c-0.27-0.26-0.54-0.51-0.8-0.77c-0.42-0.58-0.95-1.52-1.6-1.81c-1.04-0.42-2-0.34-3.1-0.23   c-0.47-0.1-0.94-0.21-1.41-0.31c-0.94-0.05-1.88-0.1-2.82-0.16c-2.94-1.32-5.48-2.42-8.58-2.78c-0.48-0.17-0.97-0.34-1.46-0.51   c-1.04,0-2.09,0-3.14,0c-0.57-0.16-1.15-0.31-1.72-0.47c0.14-0.4,0.51,0.3-0.39-0.89l-2.01-2.58c-0.08-0.32-0.15-0.63-0.23-0.95   c-0.21-0.74-2.44-1.33-3.19-1.45c-0.73-0.04-1.45-0.08-2.18-0.12c-2.3-0.44-4.36-1.67-6.58-2.17c-0.47-0.31-0.94-0.63-1.41-0.94   c-0.51-0.68-1.02-1.36-1.53-2.04c-0.4-1.03-0.81-2.05-1.21-3.08c-0.34-0.59-0.68-1.18-1.02-1.77c-0.21-0.84-0.42-1.67-0.63-2.51   c-0.21-0.37-0.42-0.73-0.63-1.1c-0.22-1.35-0.93-3.3-2.04-4.23c-0.42-0.21-0.84-0.42-1.25-0.63c-0.12-0.63-0.96-1.02-1.53-1.31   c-1.27-0.63-2.41-1.4-3.8-1.83c-1.57-0.21-3.14-0.42-4.7-0.63c-1.73-0.82-3.69-0.63-5.49-1.25c-4.18-0.93-8.36-1.86-12.54-2.79   c-0.57-0.22-1.15-0.44-1.72-0.66l-0.47-0.31c3.43-1.34,2.63-6.87,2.82-9.88c0.64-0.64,0.3-1.54,0.47-2.35   c0.16-0.37,0.31-0.73,0.47-1.1c0.23-0.33,0.47-0.67,0.7-1c0.72-0.96,2.35-2.69,2.43-3.86c0.53-0.55,1.06-1.09,1.58-1.64   c0.64-0.18,2.33-1.67,2.49-2.28c1.62-0.78,3.24-1.57,4.86-2.35c1.62-0.21,3.24-0.42,4.86-0.63c0.73-0.26,1.46-0.52,2.19-0.78   c0.63,0,1.25,0,1.88,0c0.93-0.13,1.55-0.28,2.35-0.78c0.33-0.13,0.66-0.26,0.99-0.39c2.43-3.32,0.43-7.74,0.56-11.5   c-0.71-0.96-0.09-4.39,0.71-4.96c0.49-0.35,2.86-0.87,3.39-0.56c0.38-0.13,0.73-0.33,1.1-0.16c0.59-0.42,1.73-1.57,2.2-1.65   c2.3-0.3,4.39,1.83,6.57,1.49c0.4-0.11,0.8-0.21,1.21-0.32c0.38-0.21,0.76-0.41,1.15-0.62c0.94-0.57,1.88-1.15,2.82-1.72   c0.68-0.26,1.36-0.52,2.04-0.78c1.11-0.47,2.29-0.11,3.42-0.26c1.88-0.25,5.62-0.25,7.35,0.47c0.38,0.14,0.76,0.28,1.14,0.42   c1.71,1.78,3.42,3.57,5.13,5.35c0.77,0.95,2.21,2.79,3.34,2.86c1.31,0.04,2.55-0.78,3.75-1.34c1.55-0.76,3.1-1.52,4.64-2.27   c0.6-0.23,1.19-0.45,1.79-0.68c2.98-1.36,7.28-0.63,10.5-1.25c0.86-0.36,1.72-0.72,2.59-1.08c0.39-0.22,0.78-0.43,1.18-0.65   c0.82-0.65,1.79-1.59,2.82-1.88c0.68-0.21,1.36-0.42,2.04-0.63c0.88,0.01,1.76,0.03,2.65,0.04c2.35-0.25,4.92-0.07,7.23,0.43   c0.73,0.37,1.46,0.73,2.19,1.1c0.42,0.4,0.62,0.8,1.14,1.04c1.23,0.51,2.46,1.03,3.69,1.54c0.64,0.4,1.28,0.79,1.93,1.19   c1.04,0.88,2.08,1.76,3.12,2.65c-0.4-0.39,3.98,2.74,5.35,4.93c-0.04,0.81,2.19,3.03,2.8,3.86c2.51,3.71,5.02,7.42,7.52,11.13   c0.54,1.48,0.73,3.05,0.94,4.55c0.31,0.99,0.63,1.99,0.94,2.98c0.24,0.34,0.49,0.69,0.73,1.03c-1.65,2.54-5.6,3.86-8.41,4.93   c-0.46,0.11-0.91,0.23-1.37,0.34c-0.57,0.26-2.08,1.06-2.59,0.82l0.5,0.09l-0.5-0.09c-0.35-0.13-0.71-0.25-1.06-0.38   c-1.11-0.92-1.91-2.05-3.22-2.62c-0.91-0.23-1.83-0.46-2.74-0.69c-0.52-0.05-1.04-0.09-1.56-0.14c-2.14,0.4-4.25,0.08-6.42,0.29   c-0.45,0.04-2.43,0.7-2.67,0.96c-1.4-0.09-3.04,0.19-4.37-0.37c-0.91-0.38-2.78-0.63-3.15-1.67c-1.48-0.33-2.87-0.37-4.23-1.1   c-0.4-0.21-1.33-0.95-1.25-1.41c-0.69-0.37-1.39-0.75-2.08-1.12c-0.14-0.36-0.1-0.3-0.42-0.26c-1.46,0.18-2.87,0.19-4.29,0.64   c-0.71,0.4-1.43,0.81-2.15,1.21c-0.42,0.89-0.84,1.78-1.25,2.67c-0.09,0.52-0.19,1.04-0.28,1.55c-0.22,0.58-0.44,1.16-0.66,1.74   c-1.78,2.3-3.55,4.6-5.33,6.9c-0.5,0.6-0.62,2.32-0.83,3.11c-0.13,0.47-0.41,0.71-0.11,1.12c-0.05,0.26-0.1,0.52-0.16,0.78   c-0.3,0.77-0.85,1.97,0.02,2.34c0.41,0.21,0.82,0.42,1.23,0.64c0.52,0.1,1.05,0.21,1.57,0.31c0.49,0.15,0.97,0.45,1.52,0.37   c0.42-0.06,0.88-0.04,1.15-0.37c1.2-0.04,4.41-0.3,5.26,0.55c0.28,0.28,1.21,1.22,0.94,1.59c-0.2,0.31-0.2,0.75-0.39,1.07   c-0.12,0.99-2.01,0.73-3.84,1.18c-0.53,0.13-1.41,0.24-2.59,0.47c-0.42,0.16-0.84,0.31-1.25,0.47c-1.02,0.49-2,0.52-2.58,1.69   c-0.08,0.11-0.15,0.22-0.23,0.33c0.06,0.45-0.05,0.6,0.31,0.91c0.57,0.48,0.47,0.48,1.2,0.62c0.54,0.14,1.19,0.07,1.62,0.51   c1.25,0.07,2.5,0.13,3.75,0.2c0.46,0.31,2.86,0.12,3.3-0.2c1.36,0.07,2.71,0.14,4.07,0.21c1.1,0.25,2.19,0.5,3.29,0.75   c0.69,0.13,2.11,0.61,2.67,0.13c0.57,0.21,1.15,0.42,1.72,0.63c1.86,0.49,4.69,0.9,5.1,3.16c0.33,0.2,0.33,0.36,0.31,0.74   c0.26,0.21,0.26,0.09,0.17,0.31c-0.35,0.87-0.75,1.55-1.25,2.33c-0.35,0.15-2.2,1.66-2.3,1.93c-1.04,0.63-2.09,1.25-3.14,1.88   c-0.78-0.05-1.57-0.1-2.35-0.16c-0.52-0.21-1.04-0.42-1.57-0.63c-0.74-0.45-1.49-0.89-2.23-1.34c-0.72-0.34-1.44-0.68-2.17-1.01   c-1.65-1.21-4.09-1.85-6.1-1.88c-0.45-0.02-0.91-0.05-1.36-0.07c-0.56,0.47-1.63,1.35-1.25,2.24c0.23,0.53,0.95,1.56,0.89,2.07   c1.42,0.73,2.83,1.45,4.38,1.93c0.73,0.16,1.46,0.33,2.19,0.49c1.19,0.46,2.3,1.2,3.56,1.42c0.35,0.39,2.5,1.18,3.03,1.18   c0.78,0.47,1.57,0.94,2.35,1.41c1.08,0.43,2.04,1.02,4.31,1.96c0.3,0.22,1.49,0.55,2.35,1.1l1.49,0.39l-1.67,0.26L440.41,194.62z"/>
            <circle cx="397.78" cy="145.43" r="1.586"/>
        </g>
        <g id="__Almus">
            <path d="M511.91,268.8c-0.25-0.75-0.51-1.51-0.76-2.26   c-0.08-0.43-0.16-0.86-0.25-1.29c-0.34-0.75-0.69-1.5-1.03-2.25c-0.42-0.63-0.84-1.25-1.25-1.88c-0.73-0.57-1.46-1.15-2.19-1.72   c-0.61-0.34-1.18-0.26-1.43-0.96c-0.41-1.32-0.1-2.84,0.84-3.85c0.24-0.26,1.43-1.33,1.16-1.71l0.57-0.15   c-0.57-0.17-1.4-0.61-1.61-1.18c-0.37-0.26-0.74-0.52-1.11-0.78c-0.31-0.26-0.62-0.53-0.93-0.79c-0.98-0.52-1.97-1.03-2.95-1.55   c-0.58-0.42-1.17-0.85-1.75-1.27c-0.64-0.65-1.28-1.3-1.92-1.96c-0.51-0.46-1.97-1.69-2.15-2.28c-0.68-0.63-1.36-1.25-2.04-1.88   c-0.84-0.42-1.67-0.84-2.51-1.25c-0.52-0.05-1.05-0.1-1.57-0.16c-1.25-1.5-4.25-2.89-6.11-3.29c-3.19-1.41-6.38-2.82-9.56-4.23   c-1.71-0.7-3.42-1.4-5.13-2.1c-0.47-0.25-1.44-0.69-1.61-1.19c-1.75-0.55-3.63-0.83-5.49-0.77c-0.87,0.02-1.74,0.05-2.61,0.07   c-1.8-1.69-3.6-3.38-5.4-5.07c-2.19-1.63-4.38-3.26-6.57-4.88c-1.1-0.73-2.19-1.46-3.29-2.19c-1.54-0.46-3.25-1.21-4.23-2.51   c-1.33-1.75-1.2-4.09-2.07-6.11c-0.13-0.29-0.93-1.74-0.69-1.94l-0.52-0.68c-1.02-0.22-3.06-1.3-3.93-1.16   c-0.68-0.28-1.28-0.88-2.04-0.78c-1.09-0.67-2.2-1.33-3.45-1.72c-1.46-0.33-2.92-0.65-4.38-0.98c-1.15-0.4-2.31-0.81-3.46-1.21   c-0.73-0.42-1.46-0.84-2.19-1.25c-0.21-0.63-0.42-1.25-0.63-1.88c-0.31-0.37-0.61-0.74-0.92-1.11c-0.27-0.26-0.54-0.51-0.8-0.77   c-0.42-0.58-0.95-1.52-1.6-1.81c-1.04-0.42-2-0.34-3.1-0.23c-0.47-0.1-0.94-0.21-1.41-0.31c-0.94-0.05-1.88-0.1-2.82-0.16   c-2.94-1.32-5.48-2.42-8.58-2.78c-0.48-0.17-0.97-0.34-1.46-0.51c-1.04,0-2.09,0-3.14,0c-0.57-0.16-1.15-0.31-1.72-0.47   c0.14-0.4,0.51,0.3-0.39-0.89l-2.01-2.58c-0.13,0.42-0.27,1.02-0.73,1.16c-0.7,0.24-1.5,0.35-2.05,0.9   c-0.36,0.06-0.73,0.11-1.09,0.17c-0.66,0.22-1.32,0.44-1.98,0.67c-1.17,0.09-2.34,0.17-3.51,0.26c-1.79,0.29-4.05-0.89-5.41,0.99   c-0.29,0.66-0.58,1.32-0.86,1.98c-0.89,2.19-1.78,4.39-2.67,6.58c-0.73,1.25-1.46,2.51-2.19,3.76c-0.26,0.31-0.52,0.63-0.78,0.94   c-2.36,1.6-5.02,2.78-7.68,3.76c-2.37,0.87-4.95,1.87-5.96,4.39c-0.1,0.78-0.21,1.57-0.31,2.35c-0.06,1.62-0.11,3.24-0.17,4.85   c0.06,0.89,0.11,1.78,0.17,2.67c-0.22,0.72-1.16,3.59-0.94,4.08c-1.05,0.45-1.4,3.24-1.46,4.39c-0.06,1.29,0.19,2.38,0.51,3.6   c0.16,0.58,0.31,1.15,0.47,1.72c0.16,0.42,0.32,0.83,0.48,1.25c0.26,0.94,0.52,1.88,0.78,2.83c0.54,1.59,0.94,3.05,1.16,4.69   c0.08,0.58,0.17,1.16,0.25,1.73c0.31,0.58,0.63,1.15,0.94,1.72c0.73,0.94,1.46,1.88,2.19,2.82c0.15,0.51,0.09,0.79,0.63,0.94   l-0.12-0.31c0.69,0.15,2.87,0.63,3.57,0.15c0.43,0.03,0.86,0.17,1.25,0c1.98,0.04,3.22-0.2,3.73,0.37   c0.39-0.28,0.88-0.31,1.34-0.25c0.49-0.53,1.87-0.35,2.6-0.41c1.31-0.16,2.62-0.33,3.93-0.49c2.34,0.5,4.69,1,7.03,1.49   c2.53,0.45,4.98,0.82,7.55,0.98c0.89,0.06,1.78,0.13,2.67,0.19c1.41,0.16,2.82,0.31,4.23,0.47c1.92,0.23,3.83,0.46,5.75,0.7   c2.53,0.55,5.05,1.1,7.58,1.66c3.91,0.63,7.06,2.27,10.38,4.34c0.62,0.28,1.23,0.56,1.85,0.84c1.2-0.26,2.4-0.52,3.61-0.78   c1.84-0.99,3.68-1.98,5.53-2.96c1.45-0.79,2.9-1.58,4.35-2.37c0.89-0.52,1.78-1.04,2.67-1.57c1.88-0.26,3.76-0.52,5.64-0.78   c1.04,0.13,1.92-0.38,2.98-0.47c0.84-0.3,1.67,0.14,2.51-0.16c0.99-0.07,1.99-0.14,2.98-0.21c4.45,0.84,8.89,1.68,13.34,2.52   c2.28,0.45,5.44,0.55,7.47,1.64c2.37,1.04,4.73,2.07,7.1,3.11c1.4,0.82,3.09,1.01,4.36,2.09c1.14,0.97,3.19,3.29,3.79,4.65   c0.15,0.61,0.31,1.21,0.46,1.82c0.17,0.27,1.26,2.19,1.26,2.26c0.63,0.37,1.25,0.73,1.88,1.1c2.54,0.45,4.87-0.28,7.37-0.63   c1.46,0,2.93,0,4.39,0c1.31,0.31,2.61,0.63,3.92,0.94c0.92,0.66,1.95,1.48,2.98,1.83c0.62,0.21,1.34,0.22,1.72,0.83   c0.55,0,0.5-0.15,0.78,0.47c0.02-0.11,0.05-0.22,0.07-0.33c0.03-0.57,0.06-1.14,0.09-1.71   C512.01,269.85,511.96,269.32,511.91,268.8z M427.41,224.75c-0.44-0.6-0.48-1.74-1.22-1.91c-0.27,0.17-0.54,0.33-0.81,0.5   c-0.31,0.09-0.72,0.03-0.94-0.16c-0.8,0.16-1.33,0.31-2.19,0.31c-0.54-0.54-0.97-0.76-1.69-0.76c-0.12,0.04-0.23,0.08-0.35,0.11   c-0.51-0.08-1.23-0.31-1.57,0.18c-0.26-0.05-0.52-0.1-0.78-0.16c-0.34-0.53-0.6-0.73-1.25-0.78c-0.61-0.05-1.81,0.25-2.19,0.63   c-0.16-0.05-0.31-0.1-0.47-0.16c-0.78-0.01-1.56-0.02-2.35-0.02c-0.58-0.25-1.15-0.51-1.73-0.76c-0.72-0.74-1.3-1.13-2.35-1.1   c-0.17-0.98-1.44-3.36-2.51-3.45c-0.19-0.63-0.23-1.25-0.94-1.25c-0.23,0.29-0.85,1.48-0.78,1.72c-0.26-0.07-0.53-0.14-0.79-0.22   c0.08-0.74,0-1.52-0.62-2.14c-1.75,0-3.04-1.17-4.29-2.17c-0.2-0.07-0.39-0.15-0.59-0.22c-0.73-0.47-1.5-1.24-2.49-0.91   c-0.66-0.62-1.89-1.41-2.82-1.41c-0.52,0.42-1.04,0.84-1.57,1.25c0,0.91-1.25,1.51-0.98,2.36c-0.04,0.15-0.08,0.31-0.12,0.46   c0.54,0.71,1.09,1.42,1.63,2.13c-0.15,0.52,0.35,1.12,0.67,1.5c0.07,0.1,0.14,0.2,0.21,0.29c-0.26-0.05-0.52-0.1-0.78-0.16   c-0.16-0.26-0.31-0.52-0.47-0.78c-0.21-0.21-0.42-0.42-0.63-0.63c-0.21-0.05-0.42-0.1-0.63-0.16c-0.47,0.21-0.94,0.42-1.41,0.63   c-0.26,0.37-0.52,0.73-0.78,1.1c-0.47,0-0.97,0.38-1.1,0.78c-0.38-0.05-1.9,0.13-1.25-0.16c0.42-0.16,0.84-0.31,1.25-0.47   c0.47-0.47,1.39-1.21,1.25-1.88c0.37-0.31,0.73-0.63,1.1-0.94c-0.28-0.66-1-2.16-0.53-2.57c0.18-0.08,0.36-0.17,0.53-0.25   c-0.37-0.25-1.57-0.8-1.57-1.24c0-0.63,0.63-1.95,0.31-2.36c0.23,0,0.63,0.11,0.63-0.16c0.23-1.36-0.09-2.61,0.47-3.92   c-0.01-0.34-0.03-0.67-0.04-1.01c-0.42-0.33-0.77-0.6-1.37-0.87c-0.21-0.16-0.42-0.31-0.63-0.47c0.17-0.39,0.21-0.64,0.63-0.78   c0-0.61-0.65-0.62-0.31-1.25c-0.05-0.16-0.1-0.31-0.16-0.47c-0.23-0.14-0.81-0.37-0.74-0.62c0.24-0.53,0.48-1.05,0.72-1.58   c1.86,0,2.67,2.31,4.25,2.83c0.44,0.14,1.18,0.08,1.25,0.63c0.42-0.05,0.75-0.28,0.89,0.15c0.2,0.61-1.63,0.8-0.79,1.32   c1.98,1.35,4.22,3.3,6.65,3.86c0.05,0.26,0.1,0.52,0.16,0.78c0.16,0.16,0.31,0.31,0.47,0.47c0.33,0.11,0.23,0.23,0.63,0   c0.99,0.68,1.99,1.36,2.98,2.04c0.31,0.1,0.63,0.21,0.94,0.31c0.63,0.37,1.25,0.73,1.88,1.1c0,0.33,0.25,0.88,0.47,1.1   c1.15,0,2.1,0.16,2.82,1.1c0.49,0.24,0.99,0.48,1.48,0.73c-0.02,0.33-0.05,0.67-0.07,1c0.73,0.73,1.5,1.35,1.72,2.35   c0.15,0,0.3,0.01,0.45,0.01c0.11-0.06,0.22-0.11,0.33-0.17c0.58,0.21,0.88,0.38,1.22,0.9c0.33,0.17,0.65,0.34,0.98,0.51   c0.57-0.05,1.15-0.1,1.72-0.16c1.25,0.16,2.51,0.31,3.76,0.47c0.63,0.31,1.25,0.63,1.88,0.94c0.31,0.47,0.63,0.94,0.94,1.41   c0.78,0,1.75,0.67,2.51-0.16c0.71,0.09,1.03,0.47,1.72,0.47c0.41,0.63,0.63,1.07,0.76,1.8   C427.81,224.39,427.61,224.57,427.41,224.75z"/>
            <circle cx="385.24" cy="209.7" r="1.586"/>
        </g>
    </g>
</svg>