<?xml version="1.0" encoding="utf-8"?>
<!DOCTYPE svg PUBLIC "-//W3C//DTD SVG 1.1//EN" "http://www.w3.org/Graphics/SVG/1.1/DTD/svg11.dtd">
<svg version="1.1" id="HaritaCizim" xmlns="http://www.w3.org/2000/svg" xmlns:xlink="http://www.w3.org/1999/xlink" x="0px" y="0px" viewBox="0 0 470 310" preserveAspectRatio="none">
    <defs id="__def">
        <radialGradient id="f">
            <stop offset="0" stop-color="white" stop-opacity="1"/>
            <stop id="STOP1" offset=".4" stop-opacity="1"/>
            <stop offset="1" stop-color="white" stop-opacity=".2"/>
        </radialGradient>
        <filter id="__flt1" x="0" y="0" width="200%" height="200%" filterUnits="objectBoundingBox">
            <feGaussianBlur in="SourceAlpha" stdDeviation="3" result="blur1"/>
            <feSpecularLighting result="specOut" in="blur1" specularConstant="1.5" specularExponent="20" lighting-color="#bbbbbb">
                <feDistantLight azimuth="45" elevation="30"/>
            </feSpecularLighting>
            <feComposite in="specOut" in2="SourceAlpha" operator="in" result="specOut"/>
            <feComposite in="SourceGraphic" in2="specOut" operator="arithmetic" k1="0" k2="1" k3="1" k4="0"/>
        </filter>
        <filter id="__flt2" x="0" y="0" width="200%" height="200%" filterUnits="objectBoundingBox">
            <feGaussianBlur in="SourceAlpha" stdDeviation="3" result="blur1"/>
            <feSpecularLighting result="specOut" in="blur1" specularExponent="20" lighting-color="#bbbbbb">
                <fePointLight x="-2000" y="100" z="2000"/>
            </feSpecularLighting>
            <feComposite in="specOut" in2="SourceAlpha" operator="in" result="specOut"/>
            <feComposite in="SourceGraphic" in2="specOut" operator="arithmetic" k1="0" k2="1" k3="1" k4="0"/>
        </filter>
        <filter id="__flt3" x0="-50%" y0="-50%" width="200%" height="200%" filterUnits="objectBoundingBox">
            <feGaussianBlur in="SourceAlpha" stdDeviation="3" result="blur"/>
            <feOffset in="blur" dx="0" dy="0" result="offsetBlur"/>
            <feSpecularLighting in="blur" surfaceScale="4" specularConstant=".5" specularExponent="20" lighting-color="flavor" result="specOut">
                <fePointLight x="-5000" y="-10000" z="5000"/>
            </feSpecularLighting>
            <feComposite in="specOut" in2="SourceAlpha" operator="in" result="specOut"/>
            <feComposite in="SourceGraphic" in2="specOut" operator="arithmetic" k1="0" k2="1" k3="1" k4="0" result="litPaint"/>
            <feMerge>
                <feMergeNode in="offsetBlur"/>
                <feMergeNode in="litPaint"/>
            </feMerge>
        </filter>
        <filter id="__flt4" x0="-50%" y0="-50%" width="200%" height="200%">
            <feGaussianBlur in="SourceAlpha" stdDeviation="2" result="blur"/>
            <feOffset dy="-1" dx="-1"/>
            <feComposite in2="SourceAlpha" operator="arithmetic" k2="-1" k3="1" result="hlDiff"/>
            <feFlood flood-color="white" flood-opacity=".7"/>
            <feComposite in2="hlDiff" operator="in"/>
            <feComposite in2="SourceGraphic" operator="over" result="withGlow"/>
            <feOffset in="blur" dy="3" dx="3"/>
            <feComposite in2="SourceAlpha" operator="arithmetic" k2="-1" k3="1" result="shadowDiff"/>
            <feFlood flood-color="black" flood-opacity="1"/>
            <feComposite in2="shadowDiff" operator="in"/>
            <feComposite in2="withGlow" operator="over"/>
        </filter>
        <filter id="__golge1" x="0" y="0" width="200%" height="200%" filterUnits="userSpaceOnUse">
            <feOffset result="offOut" in="SourceAlpha" dx="8" dy="8"/>
            <feGaussianBlur result="blurOut" in="offOut" stdDeviation="3"/>
            <feBlend in="SourceGraphic" in2="blurOut" mode="normal"/>
        </filter>
    </defs>
    <g id="__Komsular" display="none">
        <linearGradient id="SVGID_1_" gradientUnits="userSpaceOnUse" x1="237.1296" y1="52.1377" x2="236.6548" y2="-37.5536">
            <stop offset="0" style="stop-color:#79B6E3"/>
            <stop offset="1" style="stop-color:#FFFFFF;stop-opacity:0"/>
        </linearGradient>
        <path fill-rule="evenodd" clip-rule="evenodd" fill="url(#SVGID_1_)" d="M2.53,58.15c1.14-0.13,2.28-0.27,3.41-0.4
		c0.6,0.4,1.21,0.8,1.81,1.21C8.14,58.68,8,58.74,8.41,58.9c0.27,0.1,0.27-0.32,0.35-0.55c0.4,0.51,0.56,0.89,1.21,0.6
		c0.09,0.35,0.18,0.69,0.28,1.04c1.49,0.52,2.84,0.25,4.34,0c0.34-0.05,0.14-1.24-0.2-1.24c2.38,0,4.76,0.07,7.02,0
		c0.48,0,0.94-1.02,1.23-1.39c0,0,1.55,0.27,2.21-0.11c0.26-0.23,0.52-0.47,0.78-0.7c0,0.68,0.78,0.22,1.16,0.09
		c1.59-0.56,2.99-0.88,4.66-1.09c0.49-0.45,0.99-0.9,1.48-1.36c2.72,0.5,6.37,0.01,8.28-2.17c0.29,0.1,0.59,0.21,0.89,0.31
		c0.27-0.47,0.54-0.94,0.8-1.41c0.81,0.98,2.11-0.39,2.81-0.8c0.25-0.85,0.8-0.94,1-1.81c1.18-0.2,2.26-1.3,3.16-2.07
		c0.6-0.51,2.41-2.06,2.06-2.75c0.13,0.13,0.27,0.27,0.4,0.4c0.83-0.68,1.31-1.07,2.41-1.16c1.6-0.13,2.78,0.67,3.82,1.76l0.2-0.2
		c0.83,0,1.92-0.05,2.41-0.8c0.53,0,1.07,0,1.6,0c0.44,0.04,0.89,0.07,1.33,0.11c0.7,0.5,1.39,1,2.09,1.5
		c0.2,0.6,2.57,1.89,3.55,1.93c1.07,1.28,2.24,3.23,3.81,4.02c0.81,0.45,1.62,0.9,2.42,1.35c0.41,0.32,1.6,1.93,1.87,1.93
		c0.54-0.16,1.61-0.3,2.61,0.2c0.25-0.56,0.83-0.28,1.41-0.2c0.67-0.64,4.47-0.3,4.62-0.6c0.21-0.03,0.41-0.06,0.62-0.09
		c2.43-0.31,4.8-0.89,7.22-1.71c1.2-0.8,2.39-1.59,3.59-2.39c0.93,0.1,1.47-0.46,2.31-0.7c0.39-0.05,0.77-0.1,1.16-0.16
		c2.43-0.29,4.89-2.06,7.01-2.88l0.24-0.23c1.28-0.63,2.25-1.62,3.38-2.49c0.93-0.71,1.96-1.16,2.81-2.01
		c1.07-0.33,2.14-0.67,3.21-1c0.67-0.67,1.28-1.37,2.12-1.83c0.93-0.5,3.57-2,3.4-2.72c1.19-1.53,2.18-2.6,3.92-3.5
		c0.61-0.32,1.47-0.94,2.19-0.74c0.69,0.22,1.16,0.41,1.83,0.75c0.67,1.03,1.8,2.45,3.21,1.81l0.2,0.2c0-0.7,1.91-0.62,2.92-0.35
		c0.43,0.18,0.87,0.37,1.3,0.55c1.84-0.31,5.12,1.45,6.43,2.61c0,0.2,2.47,0.45,3.51,0.05c0.44,0.25,0.87,0.5,1.31,0.75
		c0.42,1.82,4.83,5.57,4.93,5.75c0.82,1.26,1.87,2.12,3.01,3.06c1.17,1.28,2.34,2.56,3.52,3.84c0.99,0.25,1.6,1.61,2.41,2.21
		c1.94,1.42,3.65,3.03,5.22,4.82c0.22,0.46,0.44,0.93,0.67,1.39c0.46,0.73,0.92,1.47,1.37,2.2c0.42,1.06,3.08,2.39,3,3.03
		c1.48,0.84,2.96,1.68,4.44,2.52c0.32,0.17,0.83-0.72,0.97-0.31c0.99-0.05,3.27,0.77,3.41,1.21c2.1,0.14,2.74,0.28,4.42,1.41
		c0.57-0.14,1.34,0.25,1.87,0.55c0.25,0.49,2.68,2.29,3.22,2.96l0.26,0.01c1.03,0.7,2.06,1.4,3.09,2.1c0.8,0.13,1.61,0.27,2.41,0.4
		c1.82,0.17,3.73-0.9,5.42-1.41c0.33-0.07,2.81-1.04,3.15-1.1c0.19,0.13,3.14-1.32,2.08-0.7c1.28-1.2,3.22-1.81,4.82-2.41
		c0.67,0,0.87-0.5,1.54-0.5c0.96-0.18,1.41-0.38,2.41-0.28c0.69,0.07,1.64,0.21,2.08,0.78c1.07,0.2,2.71,0.87,2.61,0.97
		c-0.24,0.32-0.61,0.93-0.17,1.16c0.92,0.49,2.29,1.25,3.38,1.09c1.74-0.26,3.22-0.63,5.02-0.2c0.47,0.07,0.94,0.13,1.41,0.2
		c0.94-0.19,2.02-0.36,2.94-0.05c0.67,0.47,1.34,0.94,2.01,1.41c0.82,0.35,1.65,0.7,2.47,1.05c0.54,0.27,1.07,0.54,1.61,0.8
		c0.64,0.64,1.54,1.24,2.34,1.37c0.8,1.21,0.95,1.03,2.09,1.38c1.06,0.32,3.8,0.25,4.26,1.63c0.63,1.93,0.96,3.78,2.99,4.77
		l0.04,0.52c1.07,0.13,1.02,0.38,1.54,1.57c0.41,0.1,0.52,0.32,0.8,0.6c0.52-0.28,2.21,0.94,2.41,1.41c1,0.27,2.01,0.54,3.01,0.8
		c1.47,0.33,2.95,0.67,4.42,1c1.34-0.03,4.19-0.21,5.09,0.23l0.74-0.23c1.08-0.16,2.16-0.32,3.24-0.48
		c0.71,0.53,3.27,0.28,4.19,0.28c0.94,0,1.49-0.45,2.41-0.2c0.59-0.63,1.44-0.65,2.21-0.8c0.27-0.13,0.54-0.27,0.8-0.4
		c1.21-0.27,2.41-0.54,3.62-0.8c0.8-0.02,1.59-0.05,2.39-0.07c0.92-0.55,2.09-0.9,3.23-0.73c0.81,0.12,2.61-0.3,3.15,1.04l0.47,0.11
		c-0.1-0.57,2.94-0.15,3.21,0.26c0.65,0.15,1.87,0.21,2.21,0.8c0.48-0.1,0.95-0.21,1.43-0.31c0.55-0.08,1.39,0.09,1.78-0.29
		c1.74,0.33,3.48,0.67,5.22,1c0.75,0.24,1.49-0.19,2.17,0.23c0.28,0.17,0.31,0.27,0.64,0.18c0.61,0.94,1.1,2.82,1.3,3.26
		c0.04,0.19,0.07,0.37,0.11,0.56c0.89,0.98,2.28,2.23,3.62,2.41c0.81,0.83,1.73,1.58,1.21,2.81c0.39,0.39,1.01,0.69,0.97,1.19
		l0.29,0.45c0.58,0.4,1.89,1.68,2.14,2.29c1.75,0.73,2.69,1.87,3.82,1.86c0.67-0.11,1.34-0.23,2.01-0.34
		c1.14,0.19,2.28,0.39,3.42,0.58c1.32,0.17,2.59,1.02,4.02,1.21c0.73-0.08,1.47-0.15,2.2-0.23c1.76,0,3.27,0.52,4.83-0.57
		c1.35,0.17,2.99,0.2,4.02,0.13c1.27,0.02,2.54,0.05,3.82,0.07c0.87-0.13,1.74-0.27,2.61-0.4c-0.53,0,0.79-0.99,1.05-1.14
		c0.72-0.36,1.44-0.72,2.17-1.07c2.2-0.21,4.07-0.97,6.06-1.69c0.53-0.19,1.53,0.28,1.53,0.28c0.04-0.4,3.29-2.23,4.14-2.62
		c1.55-0.69,2.7-2.56,3.5-2.24c1.08-0.72,2.16-1.44,3.24-2.16c0.4-0.9,0.74-1.61,1-1.81c1.51,0,2.62-1.72,4.01-2.21
		c1.45-0.51,2.67-0.74,3.3-2.2c0.74-0.58,1.47-1.15,2.21-1.73c0.78-0.43,1.55-0.87,2.33-1.3c-0.07-0.78,1.86-2.19,2.41-2.61
		c-0.04-0.54,2.04-2.96,2.41-2.81c0.41-0.23,2.88-2.99,2.94-3.27l-0.33-0.14c0-1.52,1.7-1.98,2.41-3.21c0.54-0.3,1.17-0.51,1.53-1
		c0.63-0.94,1.26-1.88,1.89-2.81c0.8-0.54,1.61-1.07,2.41-1.61c0.8-0.6,1.61-1.21,2.41-1.81c0.87-0.33,1.74-0.67,2.61-1
		c0.51-0.26,2.41-1.31,2.41-1.81c0.6-0.33,1.21-0.67,1.81-1c1.83,0,3.79,0.67,5.52,0.08c0.91,0.37,1.81,0.75,2.72,1.12
		c0.99-1.06,1.76-0.64,3.01-1.21c2.84-1.28,5.75-2.53,8.84-1.61c1.27-0.4,2.54-0.8,3.82-1.21c1.64-0.85,3.28-1.11,5.02-1.61
		c0.33-0.2,0.67-0.4,1-0.6c0.8-0.2,1.61-0.4,2.41-0.6c1.87,0.31,3.32,1.44,4.22,3.21c0.34,0.68,1.22,0.84,1.41,1.61
		c0.8,0.27,1.61,0.54,2.41,0.8c0.8,0,1.61,0,2.41,0c1.01-0.33,2.01-0.65,3.02-0.98c0.47-0.21,0.93-0.42,1.4-0.63
		c0.41-0.41,1.35-1.01,2.01-0.8c0.4-0.4,0.8-0.62,0.8-1.21c1.04-1.04,2.12-1.73,3.44-2.54c1.47-0.89,4.69,1.22,5.21-1.32L471.38,0H2
		L2.53,58.15z"/>
        <path fill-rule="evenodd" clip-rule="evenodd" fill="none" stroke="#000000" stroke-width="0.25" stroke-miterlimit="10" d="
		M438.44,256.32c3.01,3.91,12.48,1.72,16.88,2.81c2.55,0.64,5.32-0.05,7.82-0.56c2.92-0.59,6.19-0.59,8.84-1.85"/>
        <path fill-rule="evenodd" clip-rule="evenodd" fill="none" stroke="#000000" stroke-width="0.25" stroke-miterlimit="10" d="
		M332.98,250.7c0.14,1.29-1.3,3.35-1.81,4.63c-0.51,1.27-0.91,2.86-1.55,4.01c-1.12,1.99-2.24,1.84-4.27,1.81
		c-1.89-0.03-2.88,0.6-4.46,1.16c-2.86,1.02-5.86,1.58-8.79,2.61c-3.33,1.16-7.01,0.15-10.45,0.45c-2.25,0.2-4.37,1.57-6.44,2.2
		c-2.67,0.81-5.48,1.55-8.03,2.78c-1.22,0.59-2.36,1.17-3.57,1.91c-1.82,1.11-5.16,1.93-6.47,3.31c-1.35,1.42-2.69,4.88-3.05,6.84
		c-2.03,1.24-4.04,3.57-5.6,5.46c-1.55,1.88-3.32,3.55-4.21,5.84c-0.88,2.25-0.15,4.85-1.37,7.02c-0.49,0.87-1.94,1.91-2.21,2.85
		c-0.4,1.4,0.93,2.63,1.49,3.75c-0.32,0-0.45,0.15-0.73,0.23"/>
        <path fill-rule="evenodd" clip-rule="evenodd" fill="none" stroke="#000000" stroke-width="0.25" stroke-miterlimit="10" d="
		M48.74,147.45c-0.23,2.28-3.88,6-5.83,6.67c-3.19,1.1-6.76,0.61-9.89,1.71c-3.06,1.08-5.61,3.02-8.79,3.82
		c-2.97,0.74-6.44,1.67-9.44,1.66c-3.42-0.01-6.81-0.46-10.04,0.36"/>
        <text transform="matrix(0.0284 -0.9996 0.9996 0.0284 28.2622 132.7749)" font-family="'MyriadPro-Regular'" font-size="9.6422">G İ R E S U N</text>
        <text transform="matrix(0.925 0.3799 -0.3799 0.925 100.1682 242.3052)" font-family="'MyriadPro-Regular'" font-size="9.6422">G Ü M Ü Ş H A N E</text>
        <text transform="matrix(1 0 0 1 374.1594 287.8594)" font-family="'MyriadPro-Regular'" font-size="9.6422">BA Y B U R T</text>
        <text transform="matrix(0.1706 0.9853 -0.9853 0.1706 445.5195 141.4526)" font-family="'MyriadPro-Regular'" font-size="9.6422">R İ Z E</text>
        <circle fill-rule="evenodd" clip-rule="evenodd" fill="none" stroke="#000000" stroke-width="0.25" stroke-miterlimit="10" cx="334.79" cy="108.47" r="2.01"/>
        <circle fill-rule="evenodd" clip-rule="evenodd" fill="none" stroke="#000000" stroke-width="0.25" stroke-miterlimit="10" cx="316.51" cy="98.63" r="2.01"/>
    </g>
    <g id="__Harita" display="none">
        <rect id="__cer" x="0" y="0" fill="#000000" opacity="0" width="470" height="310"/>
        <g id="__Tonya">
            <path d="
			M67.82,172.45c0.36-0.52,1.64-2.78,1.21-3.21c0.52-0.89,0.99-1.75,1.73-2.48c0.69-0.65,1.39-1.29,2.08-1.94
			c0.87-1.27,1.74-2.54,2.61-3.82c1.62-6.09,3.33-12.15,4.82-18.28c0.07-1.07,0.13-2.14,0.2-3.21c-0.07-0.4-0.13-0.8-0.2-1.21
			c-0.33-0.94-0.67-1.88-1-2.81c0.13-0.94,0.27-1.88,0.4-2.81c-0.07-0.6-0.13-1.21-0.2-1.81c0.27-0.67,0.54-1.34,0.8-2.01
			c0-1.32-0.15-2.34-1-3.42c-0.83-1.04-2.83-2.01-2.58-3.62c0.06-0.27,0.11-0.54,0.17-0.8c-0.07-0.13-0.13-0.27-0.2-0.4
			c0.27-0.54,0.54-1.07,0.8-1.61c0-0.4,0-0.8,0-1.21c-0.1-0.53-0.42-1.19,0-1.61c-0.56-1.17-0.92-2.42-1.21-3.62
			c-0.44-1.87-2.28-4.29-3.62-5.62c-0.07-1.27-0.13-2.54-0.2-3.82c0.22-0.66,0.45-1.32,0.67-1.98c0.04-0.74,0.09-1.49,0.13-2.23
			c-0.8-1.33-2.41-4.72-2.21-6.73c0.67-0.13,2.14-0.17,2.81-0.3c0.95,0.11,1.91,0.21,2.86,0.32c0.18,0.09,0.37,0.19,0.55,0.28
			c0.4-0.33,0.8-0.67,1.21-1c0.68-0.07,2.21,0,2.61,0.4c0.49,0.52,1.59,2.63,2.21,2.01c0.82-0.3,2.05-1.65,2.81-2.41
			c1.34-0.94,2.68-1.88,4.02-2.81c1.39-0.7,2.69-1.03,4.22-1.21c0.81-0.09,2.2-0.72,2.8-0.38c1.08,0.66,2.15,1.32,3.23,1.98
			c1.12,0.54,2.23,1.09,3.35,1.63c0.62,0.66,1.25,1.32,1.87,1.98c0.13,0.74,0.27,1.47,0.4,2.21c-1.02,1.02-0.48,2.47-1,3.62
			c0.27,0.94,0.54,1.88,0.8,2.81c-0.11,0.76-1.15,3.47-0.6,4.02c0.21,0.23,0.59,0.81,0.78,0.77c2.1-0.39,4.2,0.64,6.25,1.04
			c0.47,0.27,0.94,0.54,1.41,0.8c1.21,0.38,2.44,0.07,3.6-0.22c0.79-0.19,2.17-0.38,2.15-0.28c-0.18,0.7-0.35,1.41-0.53,2.11
			c-0.49,0.85-0.98,1.7-1.48,2.55c-0.38,0.48-1.14,1.02-1.14,1.66c-1.07,1.14-2.14,2.28-3.21,3.42c-0.33,0.6-0.67,1.21-1,1.81
			c-1.67,1.74-3.35,3.48-5.02,5.22c-0.4,0.74-0.8,1.47-1.21,2.21c-0.49,0.72-0.93,1.1-1.41,1.81c-0.26,0.39-0.71,1.71-0.4,2.01
			c-0.22,0.52-0.45,1.04-0.67,1.56c-0.37,0.92-0.74,1.85-1.11,2.77c-0.44,0.68-0.88,1.35-1.32,2.03c-0.24,0.46-0.93,1.25-0.51,1.67
			c-1.52,2.81-3.14,4.74-4.14,7.78c-0.22,0.66-1.11,2.05-0.88,2.66c-0.9,1.24-1.55,2.35-1.92,3.84c0.1,1.4,0.21,2.8,0.31,4.2
			c0.6,0.87,1.21,1.74,1.81,2.61c1.61,1.61,3.21,3.21,4.82,4.82c1.07,1.2,2.48,3.14,4.22,3.41c0.64,0.64,2.4,1.21,3.21,1.21
			c-0.5,0-1.77,1.25-2.21,1.81c-0.07,0.33-0.13,0.67-0.2,1c-0.5,1.41-0.81,2.7-1,4.22c-0.31,1.26-0.62,2.52-0.93,3.79
			c-0.12,0.69-1.24,3.52-1.56,2.61c-0.11-0.53-0.21-1.05-0.32-1.58c-0.95-1.82-2.96-2.52-4.59-3.48c-0.61-0.45-1.23-0.9-1.84-1.34
			c-0.54-0.42-1.37-0.24-1.81-0.8c-2.34-0.07-4.69-0.13-7.03-0.2c-1.33-0.21-2.66-0.41-3.99-0.62c-1.63-0.16-3.27-0.33-4.9-0.49
			c-1.82-0.23-3.65-0.46-5.47-0.68c-0.49,0.31-1.37,0.17-1.92,0.02C69.59,172.97,67.82,172.81,67.82,172.45z"/>
            <circle cx="92.13" cy="117.11" r="1.586"/>
        </g>
        <g id="__Akçaabat">
            <path d="
			M125.07,103.35c-0.5-0.1-0.97-0.38-1.1-0.6c-0.15-0.24,0.1-0.8,0.1-1.61l0.19-1.61c0.05-3.33,1.02-6.81,2.02-10.04
			c-0.07-0.47-0.13-0.94-0.2-1.41c-0.33-0.94-0.67-1.88-1-2.81c0.48-0.28,0.45-0.87,0.6-1.41c0.33-0.47,0.67-0.94,1-1.41
			c0.47-0.27,0.94-0.54,1.41-0.8c0.33-0.07,0.67-0.13,1-0.2c0.14-0.23,0.28-0.46,0.42-0.69c0.71-1.27-1.32-4.22-1.22-5.73
			c0.18-1.71,1.39-1.62,2.32-2.87c0.76-1.06,1.53-2.11,2.29-3.17c0.48-0.14,0.66-0.44,1-0.8c0.07-0.47,0.13-0.94,0.2-1.41
			c0.6-0.13,1.25-1.11,1.61-1.61c0.72,0.22,1.32-0.9,1.53-1.48c-0.06-0.13-0.13-0.26-0.19-0.39c0.25-1.17-0.02-2.04-0.33-3.16
			c0.6-1.11,1.19-2.21,1.79-3.32c0.07-0.17,0.15-0.33,0.22-0.5c-0.62-0.1-0.97-0.9-1.46-1.34c-0.58-0.49-1.17-0.98-1.75-1.47
			c-0.87-1.21-1.74-2.41-2.61-3.62c-0.9-1.18,0.64-5,1.37-6.46c0.87-1.73,0.42-5.49,0.16-7.23c0.16-0.73,0.32-1.46,0.48-2.18
			c0-0.7,1.91-0.62,2.92-0.35c0.43,0.18,0.87,0.37,1.3,0.55c1.84-0.31,5.12,1.45,6.43,2.61c0,0.2,2.47,0.45,3.51,0.05
			c0.44,0.25,0.87,0.5,1.31,0.75c0.42,1.82,4.83,5.57,4.93,5.75c0.82,1.26,1.87,2.12,3.01,3.06c1.17,1.28,2.34,2.56,3.52,3.84
			c0.99,0.25,1.6,1.61,2.41,2.21c1.94,1.42,3.65,3.03,5.22,4.82c0.22,0.46,0.44,0.93,0.67,1.39c0.46,0.73,0.92,1.47,1.37,2.2
			c0.42,1.06,3.08,2.39,3,3.03c1.48,0.84,2.96,1.68,4.44,2.52c0.32,0.17,0.83-0.72,0.97-0.31c0.99-0.05,3.27,0.77,3.41,1.21
			c2.1,0.14,2.74,0.28,4.42,1.41c0.57-0.14,1.34,0.25,1.87,0.55c0.25,0.49,2.68,2.29,3.22,2.96c-0.67,0.13-1.53,0.72-1.67,1.71
			c-0.54,1.34-1.07,2.68-1.61,4.02c-0.89,2.41-1.61,4.49-2.01,7.03c0.55,0.41,0.61,2.45,0.7,3.2c0.11,1.14,0.23,2.29,0.34,3.43
			c-0.08,0.74-0.16,1.47-0.23,2.21c0.2,0.94,0.4,1.88,0.6,2.81c0.58,2.77,5.44,4.22,7.34,6.12c0.47,0.47,0.45,0.8,0.7,1.39
			c0.61,1.47,0.96,2.84,0.53,3.84c-0.25,0.59-0.99,0.77-1.54,1.51c-0.47,0.67-0.94,1.34-1.41,2.01c-0.35,0-2.81,2.19-2.81,2.41
			c-0.6,0.6-1.21,1.2-1.81,1.8c-0.2,0.4-0.4,0.81-0.6,1.21c-0.4,0.47-0.8,0.94-1.21,1.41c-0.54,1.87-1.07,3.75-1.61,5.62
			c-1.25,1.25-3.24,3.57-5.02,4.02c-1.69,0.42-2.73-0.14-4.22,0c-1,0.07-2.01,0.13-3.01,0.2c-2.06-0.5-3.63-1.56-5.66-1.93
			c-1.47-0.23-2.28,0.92-3.18,1.93c-0.46,0.52-0.95,0.81-1.38,1.43c-1.08,1.87-2.16,3.73-3.24,5.6c-1.26,0.48-2.51,2.61-3.42,3.62
			c-0.74,0.54-1.47,1.07-2.21,1.61c-1.61,0.07-3.21,0.13-4.82,0.2c-0.33,0.13-0.67,0.27-1,0.4c-0.54-0.07-1.07-0.13-1.61-0.2
			c-0.27,0.13-0.54,0.27-0.8,0.4c-1.2,0.27-3.47-0.23-4.58-0.7c-0.71-0.3-1.68-1.03-2.25-2.01c-0.35-0.61-0.39-1.49-0.6-1.91
			c0.46-0.58-0.23-1.3,0.07-1.98c0.75-1.72,0.97-3.12,1.2-4.92c-0.05-0.94-0.1-1.89-0.15-2.83c-0.04-0.91-0.08-1.82-0.11-2.72
			c-0.13-0.27-0.19-1.26-0.09-1.48c-0.56-2.54-1.32-5-1.32-7.56c0-0.63,0.61-1.12,1-1.61c-0.23-0.9,1.49-1.93,2.02-2.57
			c1.16-1.6,0.69-1.25,1.29-1.85c-0.11-0.53-2.51-2.47-3.28-2.74c-1.81-0.67,0.43-1.95,1.17-2.69c0-0.13,0-0.27,0-0.4
			c0-0.35-2.11-0.7-3.82-0.2c-1,0.3-1.82,0.39-3.21,1c-0.54,0.13-1.67,0.47-2.21,0.6c-0.36-0.32-0.53-0.41-1.02-0.52
			c-1.87-0.44-3.9,0.12-5.61-0.68L125.07,103.35z"/>
            <circle cx="174.89" cy="67.9" r="1.586"/>
        </g>
        <g id="__Yomra">
            <path d="
			M253.1,85.31c-0.54-0.07-1.29,0.86-1.87,0.77c-0.06,0.37-1.73,1.06-2.34,1.49c-0.89,0.71-1.79,1.41-2.68,2.12
			c-1.83,0.38-3.78,1.17-5.22,2.41c-0.33,0.33-0.67,0.67-1,1c-0.54,0.52-0.55,1.5-1.21,1.81c-0.12,0.5-0.06,1.03-0.4,1.41
			c0.21,1.14,0.41,2.27,0.62,3.41c0.06,2.48,0.12,4.96,0.18,7.44c0.47,1.07,0.94,2.14,1.41,3.21c0.78,1.18,0.53,3.11,1.27,3.95
			c1.73,1.84,2.42,0.94,4.36,1.68c0.38,0.15,1.56,0.21,1.65,0.59c0.12,0.27,0.24,0.54,0.36,0.82c0,0.54,0,1.07,0,1.61
			c-0.17,0.67-0.33,1.33-0.5,2c-0.08,0.58-0.01,1.51-0.51,2.02c-0.06,0.92,0.08,1.82-0.8,2.28c-1.82,1.14-3.41,1.9-4.35,3.98
			c-0.42,0.94-0.13,3.03,0.13,4.06c-0.46,0.77-2.1,3.14-1.8,3.84c-0.2,0.33-1.64,1.46-2.23,2.23c-0.53,0.83-1.05,1.66-1.58,2.49
			c-0.54,0.52-1.09,1.04-1.63,1.56c-0.68,0.79-1.41,1.91-2.39,2.26c-0.12,0.47-0.08,1.05-0.4,1.41c-0.3,2.35,0.22,4.78-0.2,7.03
			c-0.15,0.79,0.27,3.05,0.8,4.12c0.47,0.84,0.35,0.66,1.21,1.1c0.11,0.52,0.22,1.03,0.33,1.55c0.27,0.69,0.73,1.27,0.48,2.07
			c0.07,0.4,0.13,0.8,0.2,1.21c0.13,0.33,0.27,0.67,0.4,1c0.53,0.69,2.45,2.67,2.4,3.41c-0.15,2.4-2.48,5.48-1.13,7.66
			c0.72,0.88,1.05,2.13,2.15,2.09c0.89-0.03,2.53-0.28,3.42-0.3c2.21-0.49,4.5-0.87,6.83-1.21c0.35-0.05,3.15,1.24,3.15,1.24
			c0.13-0.94,0.55-1.48,1.13-2.14c1.1-1.23,1.08-2.06,2.95-2.51c0.52-0.8,0.93-2.51,1.61-3.01c0.36-1.07,1.67-4.53,2.61-4.82
			c0.33-0.8,0.67-1.61,1-2.41c0-0.52,0-1.03-0.01-1.55c0.43-0.53,0.83-1.63,1.41-1.86c0.22-0.84,0.21-2.29,1-2.81
			c-0.07-1.21-0.13-2.41-0.2-3.62c-0.41-0.7-1.89-2.65-2.61-2.81c-0.2-0.65-0.13-1.3-0.8-1.61c-0.29-1.87-0.34-3.5-0.2-5.42
			c0.8-1.41,1.61-2.81,2.41-4.22c0.91-1.16,1.82-2.32,2.73-3.48c0.63-0.72,1.26-1.43,1.89-2.15c0.24-0.68,1.53-2.9,2.01-3.21
			c-0.13-2.95-0.27-5.89-0.4-8.84c0.16-0.82,0.32-1.63,0.48-2.45c0.11-1.26,0.21-2.52,0.32-3.78c0.08-0.68,1.1-3.72,1.61-4.02
			c0.02-0.57-0.03-1.44,0.4-1.81c-0.27-1.67-0.54-3.35-0.8-5.02c-0.12-1.18,0.61-2.44-0.4-3.41c0-1.29,0.44-4.13-0.2-5.22
			c0-0.92,0.27-2.31,0.6-3.42c-0.16-0.62,0.26-1.29-0.33-1.57c-0.9-0.45-3.75-0.27-5.09-0.23c-1.47-0.33-2.95-0.67-4.42-1
			c-1-0.27-2.01-0.54-3.01-0.8c-0.2-0.47-1.89-1.69-2.41-1.41c-0.28-0.28-0.39-0.5-0.8-0.6C254.12,85.69,254.17,85.44,253.1,85.31z"
            />
            <circle cx="254.23" cy="89.99" r="1.586"/>
        </g>
        <g id="__Araklı">
            <path d="
			M300.04,88.89c0.65,0.15,1.87,0.21,2.21,0.8c0.48-0.1,0.95-0.21,1.43-0.31c0.55-0.08,1.39,0.09,1.78-0.29
			c1.74,0.33,3.48,0.67,5.22,1c0.75,0.24,1.49-0.19,2.17,0.23c0.28,0.17,0.31,0.27,0.64,0.18c0.61,0.94,1.1,2.82,1.3,3.26
			c0.04,0.19,0.07,0.37,0.11,0.56c0.89,0.98,2.28,2.23,3.62,2.41c0.81,0.83,1.73,1.58,1.21,2.81c0.39,0.39,1.01,0.69,0.97,1.19
			c0.03,1.19-1.98,3.36-2.98,4.63c-0.47,2.14-0.94,4.29-1.41,6.43c-0.25,0.74,0.06,3.78,0.6,4.22c-0.11,0.88-0.4,2.19,0.4,2.81
			c0.09,0.45,0.07,0.89,0.4,1.21c0.13,0.4,0.27,0.8,0.4,1.21c0.33,2.08,0.67,4.15,1,6.23c-0.13,1.14-0.27,2.28-0.4,3.42
			c-1.27,1.54-2.54,3.08-3.82,4.62c-0.97,1.95-1.24,4.11-1.81,6.23c-0.56,2.1-1.5,4.2-1.61,6.43c-0.13,0.47-0.25,0.94-0.38,1.41
			c-0.42,2.16-1.53,4.17-1.12,6.36c-0.83,2.09-0.56,4.29,0.18,6.33c0.31,0.59,0.61,1.18,0.92,1.78c0.27,0.87,0.54,1.74,0.8,2.61
			c0.07,1,0.13,2.01,0.2,3.01c-0.07,2.28-0.13,4.55-0.2,6.83c-0.05,1.07-0.64,1.87-0.2,3.01c-0.4,0.87-0.8,1.74-1.21,2.61
			c-0.8,0.75-1.57,1.31-2,2.32c-0.77,0.16-1.2,0.7-1.54,1.4c-0.66,1.34-0.77,4.24-0.57,5.67c-0.04,1.02-0.07,2.04-0.11,3.06
			c-0.13,0.47-0.27,0.94-0.4,1.41c-0.67,1-1.34,2.01-2.01,3.01c-1.08,0.7-3.21,1.9-3.21,3.42c0,0.74,0,1.47,0,2.21
			c0.51,1.93,1.03,3.86,1.54,5.79c0.13,0.46,0.9,1.4,1.27,1.75c-0.05,0.03-1.73,1.42-2.21,2.11c-0.65,0.94-2.03,4.83-2.05,5.99
			c-0.02,1.61,0.64,4.24,1.64,5.46c0.78,0.95,1.09,2.59,2.21,3.21c0.36,0.64,0.75,1.7,1.41,2.01c0.78,1.07,1.56,2.15,2.34,3.22
			c0.36,0.4,0.72,0.8,1.08,1.2c0.33,0.2,0.67,0.4,1,0.6c0.49,0.25,1.49,1.74,1.57,2.17c0.08,0.15,0.16,0.29,0.24,0.44
			c-0.07,0.67-0.13,1.34-0.2,2.01c-0.27,0.6-0.54,1.21-0.8,1.81c-0.34,0.42-0.7,0.67-0.8,1.21c-0.52,0.52-2.26,1.71-2.41,2.21
			c-0.74,0.54-1.47,1.07-2.21,1.61c-0.8,0.27-1.61,0.54-2.41,0.8c-2.32,0.22-5.14,0.64-7.03,2.01c-2.21,0.4-4.42,0.8-6.63,1.21
			c-2.04-0.26-3.96-1.16-5.62-2.21c-0.45-0.29-2.18-2.2-2.21-2.61c-2.22-1.66-3.31-6.49-2.72-9.2c-0.37-1.62-0.73-3.24-1.1-4.86
			c-0.07-0.54-0.13-1.07-0.2-1.61c-0.78-2.4-2.71-5.02-4.41-6.84c-0.32-0.36-0.64-0.73-0.97-1.09c-0.89-0.5-1.77-1.01-2.66-1.51
			c-1.38-0.13-2.44,0.08-3.82,0.2c-2.59,0.23-8.12-0.33-10.24-1.78c-1.23-0.84-3.56-1.36-3.62-3.25c0-0.81,0.13-2.18-0.4-2.81
			c0.45-2.25,0.63-4.46,1.41-6.63c0.25-0.71,0.04-1.9,0.6-2.41c0.2-1,0.4-2.01,0.6-3.01c0.13-1.12,0.26-2.24,0.4-3.36
			c0.54-2.36,1.08-4.72,1.61-7.08c0.24-1.88,0.49-3.76,0.73-5.64c0.11-0.99,0.13-2.05,0.92-2.69c0.05-0.1,0.11-0.21,0.16-0.31
			c0.68-0.28,1.26-0.22,1.83-0.76c1.67-1.6,2.86-3.46,4.07-5.4c0.58-0.96,1.16-1.92,1.73-2.88c0.53-0.78,1.35-2.07,1.41-3.01
			c0.8-0.87,1.61-1.74,2.41-2.61c0.84-0.59,1.69-0.88,2.21-1.81c0.71-1.96,1.43-3.93,2.14-5.89c1.04-1.31,2.27-1.91,3.82-2.44
			c1.12-0.13,2.24-0.27,3.36-0.4c1.38-1.61,1.96-3.7,2.33-5.73c0.54-1.74,1.07-3.49,1.61-5.23c0.13-1.07,0.27-2.14,0.4-3.21
			c0.31-0.5,0.61-1,0.92-1.49c0.33-0.68,0.67-1.36,1-2.04c1.55-2.34,3.41-4.11,2.9-7.11c0-0.4,0-0.8,0-1.21c0-0.6,0-1.21,0-1.81
			c0.43-1.87,0.85-3.74,1.28-5.61c0.27-0.64,1.31-2.7,1.13-3.23c0.68-0.97,1.42-1.71,2.21-2.61c0.54-0.54,1.07-1.07,1.61-1.61
			c1.12-0.56,2.23-1.13,3.35-1.69c0.62-0.36,2.86-1.52,2.89-2.33c0.06-0.47,0.13-0.94,0.19-1.41c-0.33-0.94-0.67-1.88-1-2.81
			c0.07-1.41,0.13-2.81,0.2-4.22c-0.44-2.29-1.56-4.67-2.81-6.63c-0.7-1.1-1.27-4.05-0.2-5.02c-0.08-0.77-0.16-1.55-0.24-2.32
			c-0.19-0.52-0.37-1.03-0.56-1.55C296.73,88.07,299.77,88.48,300.04,88.89z"/>
            <circle cx="315.1" cy="98.83" r="1.586"/>
        </g>
        <g id="__Çaykara">
            <path d="
			M412.53,162.91c-2.47-0.66-3.58,0.7-5.87,1.18c-0.97,0.02-1.93,0.04-2.9,0.06c-0.52,0.07-1.54,0.13-1.88,0.48
			c-0.54-0.07-1.07-0.14-1.61-0.21c-0.82-0.01-3.84-0.57-4.22-0.19c-1.71-0.59-4.2-1.84-6.03-1.61c-0.77-0.37-1.57-1.04-2.41-0.8
			c-0.8-0.47-1.61-0.94-2.41-1.41c-1.85-0.79-3.37-1.53-4.65-3.17c-0.19-0.48-0.38-0.97-0.57-1.45c-0.75-1.03-1.91-2.63-3.18-2.58
			c-0.17,0.02-1.42,1.39-2.04,1.58c-0.07,0.94-0.15,1.87-0.22,2.81c0.04,0.28,0.08,0.56,0.12,0.84c-0.7,0.06-1.41,0.11-2.11,0.17
			c-0.76-0.63-1.76-1.5-2.62-1.21c-0.59,0.28-0.81,0.2-1.11,0.83c-0.3,0.53-0.59,1.05-0.89,1.58c-0.1,0.79-0.2,1.59-0.29,2.38
			c-0.23,0.72-0.76,1.35-0.91,2.04c-2,1.6-4.57,2.48-6.32,4.31c-0.28,0.29-1.52,1.93-1.47,2.1c0.15,0.42,0.26,0.44-0.05,0.83
			c0.33,0.33,0.67,0.67,1,1c0.6,0.31,2.04,0.8,1.97,1.39c-0.24,1.39-1.58,2.37-2.77,3.23c-0.47,0.47-0.94,0.94-1.41,1.41
			c-2.47,1.14-6.31,3.37-8.84,4.32c-1.07,0.4-2.41,0.12-2.65,1.05c-0.12,0.29-0.24,0.57-0.36,0.86c-0.13,1.21-0.27,2.41-0.4,3.62
			c-0.6,1.07-1.21,2.14-1.81,3.21c-0.33,0.47-0.67,0.94-1,1.41c-1.77,1.41-3.89,2.77-5.22,4.62c-0.4,0.47-0.8,0.94-1.21,1.41
			c-0.42,0.36-0.85,0.72-1.27,1.09c-0.65,1.45-1.3,2.89-1.95,4.34c-0.06,0.61,0.1,1.28-0.2,1.81c0.79,2.07,1.67,3.89,2.84,5.81
			c0.39,0.67,0.79,1.35,1.18,2.02c0.33,1.07,0.67,2.14,1,3.21c-0.07,0.47-0.13,0.94-0.2,1.41c-0.82,1.77-1.44,3.44-2.04,5.27
			c-0.19,0.57-0.77,1.49-0.37,2.16c-0.75,1.49-1.5,6-1.87,7.6c-0.15,0.64,0.27,0.54,0.07,1.24c-0.67,1.61-1.34,3.21-2.01,4.82
			c0,2.99-1.12,4.65,1,7.43c0.39,0.51,1,3.42,1,3.42c1.94-0.13,3.89-0.27,5.83-0.4c1.12-0.08,2.31-0.9,3.42-0.4
			c0.69-0.17,1.76-0.65,2.41-0.4c2.34-2.03,2.72-4.72,6.23-5.42c0.85-0.17,1.29-1.06,2.21-1c1.28-1.42,2-2.98,3.08-4.48
			c0.62-0.26,1.19-0.29,1.34-0.95c0.25,0.09,0.51,0.19,0.76,0.28c0.75,0.37,1.5,0.75,2.25,1.12c0.48,0.29,0.63,0.7,1.21,0.8
			c0.74,1.61,1.47,3.21,2.21,4.82c0.51,0.9,0.7,3.27,1.41,3.82c0.15,1,0.31,2.01,0.46,3.01c0.94,1.08,2.29,1.59,3.72,2.25
			c2.64,1.21,5.51,2.35,8.47,2.77c0.44,0,0.87,0,1.31,0c2.31,0.6,4.62,1.21,6.92,1.81c3.35-0.13,6.7-0.27,10.04-0.4
			c3.15-0.94,6.29-1.88,9.44-2.81c1.14-0.13,2.28-0.27,3.42-0.4c1.41-0.27,2.81-0.54,4.22-0.8c1.07,0.09,2.14,0.17,3.21,0.26
			c1.47,0,2.79-0.33,4.22-0.66c0.99-0.23,3.43-0.27,4.22,0.4c3.17,0.31,6.15,0.92,9.24,1.81c1.27,0.27,2.54,0.54,3.82,0.8
			c0-0.26,0-0.53,0-0.79c-0.15-0.93-0.3-1.85-0.45-2.78c0.01-1.55,0.03-3.11,0.04-4.66c-1.21-3.15-2.41-6.29-3.62-9.44
			c-0.94-1.34-1.88-2.68-2.81-4.02c-0.34-0.32-0.68-0.64-1.02-0.96c-1.55-1.76-4.85-3.63-5.69-5.6c-0.76-1.78-0.62-6.99,0.48-8.51
			c0.72-0.99,1.11-2.48,0.06-2.95c-0.34-0.14-2-0.33-2.87-0.26c-0.87-0.4-1.74-0.8-2.61-1.21c-1.27-0.87-2.54-1.74-3.82-2.61
			c-0.54-0.76-1.07-1.52-1.61-2.27c-0.47-0.45-0.94-0.9-1.41-1.34c-1.34-0.6-2.68-1.21-4.02-1.81c-1.54-0.97-2.31-2.82-4.01-3.57
			c-1.01-0.22-2.01-0.43-3.02-0.65c-0.8,0.04-2.37,0.27-3.01-0.21c-0.75,0.17-2.47,0.79-2.77,0.01c-0.59-1.77-0.27-3.75-0.24-5.64
			c0-0.73,0-1.47,0-2.2c0.74-1.21,1.47-2.41,2.21-3.62c1.54-0.84,3.77-1.8,4.2-3.62c0.19-3.46,0.38-6.93,0.56-10.4
			c-0.05-0.15-0.1-0.3-0.14-0.45c0.25-0.72,0.9-2.81,1.43-3.16c0.56-0.37,2.09-1.48,2.55-1.37c0.81,0.21,4.18,1.34,4.6,0.69
			c0.68-0.94,0.61-3.01-0.15-3.99c0.52-1.19,1.29-2.22,1.24-3.57C412.54,164.73,413.53,163.18,412.53,162.91z"/>
            <circle cx="369.14" cy="171.15" r="1.586"/>
        </g>
        <g id="__Of">
            <path d="
			M396.19,77.18c-0.06,0.28-2.54,3.04-2.94,3.27c-0.37-0.15-2.45,2.27-2.41,2.81c-0.55,0.43-2.48,1.83-2.41,2.61
			c-0.78,0.43-1.55,0.87-2.33,1.3c-0.74,0.58-1.47,1.15-2.21,1.73c-0.63,1.46-1.85,1.69-3.3,2.2c-1.39,0.49-2.5,2.21-4.01,2.21
			c-0.27,0.2-0.6,0.9-1,1.81c-1.08,0.72-2.16,1.44-3.24,2.16c-0.8-0.32-1.95,1.55-3.5,2.24c-0.85,0.39-4.11,2.23-4.14,2.62
			c-0.05,0.67-0.11,1.34-0.16,2.02c0.09,0.86,0.17,1.72,0.26,2.58c-0.14,1.34-0.79,2.68-0.46,4.05c-1,1.67-2.01,3.35-3.01,5.02
			c-0.37,0.9,0.26,2.36-0.4,3.01c0.83,1.5,1.92,2.93,2.4,4.62c0.13,0.45,0.36,1.58,0.11,1.95c-0.44,0.62-0.87,1.25-1.31,1.87
			c-0.27,0.2-0.54,0.4-0.8,0.6c-1.46,0.32-4.39-0.14-4.97,1.62c-0.31,1.04-0.3,3.68,0.35,4.61c0.06,0.68-0.14,1.74,0.4,2.21
			c-0.18,0.85-0.52,2.46,0,3.21c-0.47,1.27-0.27,1.71-0.74,2.98c0.09,0.43-1.12,1.47-1.34,1.87c0.14,0.04,0.94,0.04,1.08,0.08
			c0.67,0.1,1.33,0.19,2,0.29c1-0.33,2.01-0.67,3.01-1c0.55-0.46,1.3-1.29,2.01-1.41c0.64-0.66,1.45-1.37,2.41-1.41
			c0.67-0.51,2.26-1.69,2.86-1.43c0.18,0.01,0.37,0.02,0.55,0.02c0.57,1.19,1.97,2.71,3.42,2.41c0.54,0.47,1.07,0.94,1.61,1.41
			c0.8,1.34,1.61,2.68,2.41,4.02c0.67,0.54,1.33,1.08,2,1.61c0.58,0.24,1.15,0.48,1.73,0.72c1.92,0.65,4.05,1.46,5.53,2.87
			c0.87,0.83,1.63,1.96,2.2,3.03c0.2,0.4,0.4,0.8,0.6,1.21c0.42,1.22,0.68,2.48,2.05,2.76c0.73,0.11,0.93,0.75,1.74,0.21
			c1.35-0.65,2.7-1.31,4.05-1.96c0.74-0.67,2.08-2.04,2.81-2.71c0.33-1,0.07-1.31,0.4-2.31c-0.08-0.84,0.07-2.39-0.6-3.01
			c0.07-2.27-0.4-4.47-0.2-6.63c0.19-2.04,2.86-5.23,1.56-6.77c-0.86-0.96-1.71-1.92-2.57-2.88c-0.2-0.54-0.4-1.07-0.6-1.61
			c-0.06-0.64,0.04-1.78-0.41-2.21c-1.15-1.09-2.36-1.14-3.81-1.61c-0.07-0.39,0.01-0.29-0.4-0.6c0.11-0.27,0.22-0.54,0.33-0.82
			c0.34-0.95,0.25-1.88,0.74-2.77c0.54-0.82,1.08-1.65,1.62-2.47c0.26-0.83,1.06-3.39,1.73-3.78c0.07-0.47,0.13-0.94,0.2-1.41
			c-0.22-1.4-0.57-2.67-1-4.02c-0.34-0.8-0.68-1.6-1.02-2.4c-0.08-0.71-0.42-2.15-0.99-2.42c0.33-0.12,0.67-0.24,1-0.36
			c0.89-0.25,3.55-0.38,4.02-1.25c1.72,0.33,3.29,0.22,5.02,0.4c0.53-0.08,1.06-0.15,1.59-0.23c0.86-0.01,1.99,0.14,2.63-0.58
			c1.3-0.08,3.45-0.23,3.95,1.22c0.15,0.45,0.37,0.75,0.87,0.79c0.13,0.94,0.27,1.88,0.4,2.81c-0.2,0.6-0.4,1.21-0.6,1.81
			c0.12,1.81,0.18,6.31,2.22,6.79c0.85,0.21,3.41,0.11,3.45,0.67c0.08,0.76,0.34,2.04-0.24,2.59c1.15,1.44,2.37,2.57,2.89,4.38
			c0.15,0.95,0.3,1.9,0.45,2.84c0.16,1.01,0.32,2.01,0.48,3.02c0.23,1.52,0.05,3.06,0.63,4.51c0.44,1.1,1.11,2.08,1.91,2.98
			c0.4,0.45,1.26,1.18,1.27,1.35c0.19-0.15,0.37-0.3,0.56-0.45c0.59-0.68,1.18-1.35,1.77-2.03c0.5-0.31,0.99-0.63,1.49-0.94
			c0.67-0.27,1.34-0.54,2.01-0.8c1.73-1.09,3.34-2.59,5.35-3.23c0.6-0.17,1.2-0.35,1.8-0.52c0.56,0.03,0.28-1.17,0.28-2.48
			c-0.13-0.74-0.27-1.47-0.4-2.21c-0.87-1.04-1.74-2.08-2.61-3.12c-0.03-0.22-1.61-2.38-1.61-3.11c-1.54-0.67-3.08-1.34-4.62-2.01
			c-3.15-2.96-6.03-6.03-9.04-9.24c-0.27-0.87-0.54-1.74-0.8-2.61c0.13-1.41,0.27-2.81,0.4-4.22c0.47-0.74,0.6-3.01,0.2-3.42
			c0.15-0.34-0.92-2.31-1.32-3.32c-0.5-0.93-1-1.87-1.51-2.8c-0.45-0.35-1.21-2.75-1.22-3.07c-0.44-1.76-1.09-2.83-2.68-3.77
			c-0.23-0.37-0.47-0.73-0.7-1.1c-0.68-0.23-2.24-0.44-2.61-1c-0.82-0.08-2.43,0.03-3.01-0.6c-0.51,0.25-1.02,0.49-1.6,0.29
			c-1.74-1.23-3.49-2.47-5.23-3.7c-1.41-1.05-2.47-2.51-3.42-4.02c-0.4-0.27-0.8-0.54-1.21-0.8
			C396.23,76.95,396.21,77.07,396.19,77.18z"/>
            <circle cx="378.78" cy="95.82" r="1.586"/>
        </g>
        <g id="__Şalpazarı">
            <path d="
			M67.82,172.45c0.36-0.52,1.64-2.78,1.21-3.21c0.52-0.89,0.99-1.75,1.73-2.48c0.69-0.65,1.39-1.29,2.08-1.94
			c0.87-1.27,1.74-2.54,2.61-3.82c1.62-6.09,3.33-12.15,4.82-18.28c0.07-1.07,0.13-2.14,0.2-3.21c-0.07-0.4-0.13-0.8-0.2-1.21
			c-0.33-0.94-0.67-1.88-1-2.81c0.13-0.94,0.27-1.88,0.4-2.81c-0.07-0.6-0.13-1.21-0.2-1.81c0.27-0.67,0.54-1.34,0.8-2.01
			c0-1.32-0.15-2.34-1-3.42c-0.83-1.04-2.83-2.01-2.58-3.62c0.06-0.27,0.11-0.54,0.17-0.8c-0.07-0.13-0.13-0.27-0.2-0.4
			c0.27-0.54,0.54-1.07,0.8-1.61c0-0.4,0-0.8,0-1.21c-0.1-0.53-0.42-1.19,0-1.61c-0.56-1.17-0.92-2.42-1.21-3.62
			c-0.44-1.87-2.28-4.29-3.62-5.62c-0.07-1.27-0.13-2.54-0.2-3.82c0.22-0.66,0.45-1.32,0.67-1.98c0.04-0.74,0.09-1.49,0.13-2.23
			c-0.8-1.33-2.41-4.72-2.21-6.73l0.41-0.33c0.09-3.03,1.03-5.79,0.7-8.83c-0.12-1.12-0.44-2.85-1.32-3.38
			c-1.09-0.63-2.49-0.74-3.64-1.09c-0.46-0.14-1.27-0.17-1.51-0.57c-0.57-0.94-0.54-2.86-2.07-2.76c-0.47,0.05-0.78-0.05-1.12,0.28
			c-1.86,1.8-1.73,3.25-2.39,5.49c-0.5,1.42-1,2.84-1.51,4.26c-0.23,0.68-1.41,2.42-2.01,2.81c-0.79,0.29-1.58,0.59-2.37,0.89
			c-1.37,0.75-2.27,1.52-3.85,1.73L50.63,91c-1.82,1.7-2.27,4.77-1.45,7.11c-0.01,0.21-0.02,0.41-0.04,0.62
			c0.41,1.44,1.41,2.86,1.41,4.42c0,0.84-0.31,2.47-0.8,3.21c-0.13,0.2-0.27,0.4-0.4,0.6c-0.13,0.4-0.27,0.8-0.4,1.21
			c0,0.8,0,1.61,0,2.41c1.24,1.28,1.9,2.65,2.21,4.42c0.19,1.06-0.37,3.65,0.2,4.42c-0.61,1.13-1.43,2-2.01,3.01
			c-0.35,0.4-0.69,0.8-1.04,1.19c-0.44,2.74,0.8,3.86,1.51,6.27c0.23,0.78,0.91,1.98,0.43,2.75c-0.83,1.36-1.76,2.63-3.31,3.04
			c-0.47,0.33-0.94,0.67-1.41,1c-0.27,0.54-0.54,1.07-0.8,1.61c-0.15,1.14,0,1.92,0,3.01c0.13,0.47,0.27,0.94,0.4,1.41
			c0.71,1.08,3.82,4.34,3.82,5.22c0,0.66-0.42,2.88-0.2,3.22c-0.67,1.14-1.34,2.28-2.01,3.41c-0.67,3.22-0.65,6.97,1,9.84
			c0.27,0.74,0.54,1.47,0.8,2.21c0.5,1.64,1,3.28,1.5,4.92c1.88,1.76,4.6,1.15,6.94,1.51c0.4,0.2,5.06,0.31,5.62-0.2
			c0.75,0.71,3.47-0.19,4.41-0.22c0.29-0.03,0.59-0.06,0.89-0.09L67.82,172.45z"/>
            <circle cx="62.8" cy="96.42" r="1.586"/>
        </g>
        <g id="__Beşikdüzü">
            <path d="
			M79.62,88.66c0.02-0.86,0.03-1.72,0.05-2.58c0.2-0.47,0.4-0.94,0.6-1.41c0-0.94,0-1.88,0-2.81c-0.35-2.79-2.72-4.7-2.81-7.63
			c0.13-0.6,0.27-1.21,0.4-1.81c-0.07-0.47-0.13-0.94-0.2-1.41c0.13-0.47,0.27-0.94,0.4-1.41c0.74-1.01,1.55-2.17,1.89-3.42
			c0.32-1.17,0.12-2.64-0.08-3.82c0.06-1.87,0.12-3.75,0.18-5.62c0.14-0.74,0.28-1.48,0.43-2.22c-1-0.5-2.07-0.36-2.61-0.2
			c-0.27,0-1.47-1.61-1.87-1.93c-0.81-0.45-1.62-0.9-2.42-1.35c-1.57-0.8-2.74-2.74-3.81-4.02c-0.98-0.04-3.35-1.33-3.55-1.93
			c-0.7-0.5-1.39-1-2.09-1.5c-0.44-0.04-0.89-0.07-1.33-0.11c-0.53,0-1.07,0-1.6,0c-0.49,0.75-1.58,0.8-2.41,0.8
			c-0.6,0-0.2,1.94-0.2,2.41c0,2.23-0.49,4.58-1.81,6.43c-1.37,1.91-2.78,4.09-3.48,6.35c-0.25,0.44-0.5,0.87-0.75,1.31
			c-0.46,1.2-0.93,2.39-1.39,3.59c-0.42,1.74-1.7,3.32-1.61,5.22c0.4,2.48,0.8,4.96,1.21,7.43c0.07,1.27,0.13,2.54,0.2,3.82
			c0.07,1.67,0.13,3.35,0.2,5.02c0.02,1.33-0.36,2.56-0.52,3.85c-0.09,0.32-0.19,0.64-0.28,0.97c1.59-0.2,2.49-0.97,3.85-1.73
			c0.79-0.29,1.58-0.59,2.37-0.89c0.6-0.39,1.78-2.13,2.01-2.81c0.5-1.42,1-2.84,1.51-4.26c0.66-2.24,0.53-3.69,2.39-5.49
			c0.35-0.32,0.65-0.23,1.12-0.28c1.52-0.1,1.5,1.82,2.07,2.76c0.24,0.39,1.05,0.42,1.51,0.57c1.15,0.35,2.55,0.46,3.64,1.09
			c0.88,0.54,1.19,2.26,1.32,3.38c0.34,3.04-0.6,5.8-0.7,8.83l-0.41,0.33c0.67-0.13,2.14-0.17,2.81-0.3
			c0.95,0.11,1.91,0.21,2.86,0.32c0.18,0.09,0.37,0.19,0.55,0.28c0.4-0.33,0.8-0.67,1.21-1L79.62,88.66z"/>
            <circle cx="74.25" cy="54.64" r="1.586"/>
        </g>
        <g id="__Vakfıkebir">
            <path d="
			M119.24,107.47c2.41-0.8,2.19-1.68,4.15-2.5c0.48-0.2,2.35-1.48,1.68-1.61c-0.5-0.1-0.97-0.38-1.1-0.6
			c-0.15-0.24,0.1-0.8,0.1-1.61c-0.54-0.4-1.07-0.8-1.61-1.21c-0.13-0.47-0.27-0.94-0.4-1.41c0-0.75,0.21-3.61-0.2-4.02
			c0.18-1.14,0.36-2.28,0.55-3.43c0.02-1.13,0.04-2.27,0.06-3.4c-0.7-1.31-1.4-2.62-2.1-3.92c-0.47-0.62-1.26-1.88-1.11-2.71
			c-0.76-1.21-1.58-2.27-2.01-3.62c2.59-2.59,1.21-4.15,1.21-7.23c0.47-0.87,0.94-1.74,1.41-2.61c0.05-0.66,0.09-1.33,0.14-1.99
			c0.06-0.58,0.12-1.17,0.18-1.75c-0.68-0.98-1.44-1.51-2.52-1.88c-0.4-0.54-0.8-1.07-1.21-1.61c-0.27-0.94-0.54-1.87-0.8-2.81
			c-0.88-0.88-1.19-1.6-1.21-2.81c-0.01-0.58-0.81-1.6-0.4-2.01c-0.94-0.87-2.38-2.44-3.31-3.31c0-2.1-1.21-3.11-2.31-3.62
			c-2.12,0.82-4.58,2.58-7.01,2.88c-0.39,0.05-0.77,0.1-1.16,0.16c-0.84,0.25-1.38,0.8-2.31,0.7c-1.2,0.8-2.39,1.59-3.59,2.39
			c-2.41,0.83-4.79,1.4-7.22,1.71c-0.21,0.03-0.41,0.06-0.62,0.09c-0.15,0.3-3.95-0.04-4.62,0.6c-0.58-0.07-1.16-0.36-1.41,0.2
			c-0.14,0.74-0.28,1.48-0.43,2.22c-0.06,1.87-0.12,3.75-0.18,5.62c0.2,1.18,0.4,2.64,0.08,3.82c-0.33,1.24-1.15,2.41-1.89,3.42
			c-0.13,0.47-0.27,0.94-0.4,1.41c0.07,0.47,0.13,0.94,0.2,1.41c-0.13,0.6-0.27,1.21-0.4,1.81c0.09,2.93,2.46,4.85,2.81,7.63
			c0,0.94,0,1.88,0,2.81c-0.2,0.47-0.4,0.94-0.6,1.41c-0.02,0.86-0.03,1.72-0.05,2.58l-1.16,2.84c0.68-0.07,2.21,0,2.61,0.4
			c0.49,0.52,1.59,2.63,2.21,2.01c0.82-0.3,2.05-1.65,2.81-2.41c1.34-0.94,2.68-1.88,4.02-2.81c1.39-0.7,2.69-1.03,4.22-1.21
			c0.81-0.09,2.2-0.72,2.8-0.38c1.08,0.66,2.15,1.32,3.23,1.98c1.12,0.54,2.23,1.09,3.35,1.63c0.62,0.66,1.25,1.32,1.87,1.98
			c0.13,0.74,0.27,1.47,0.4,2.21c-1.02,1.02-0.48,2.47-1,3.62c0.27,0.94,0.54,1.88,0.8,2.81c-0.11,0.76-1.15,3.47-0.6,4.02
			c0.21,0.23,0.59,0.81,0.78,0.77c2.1-0.39,4.2,0.64,6.25,1.04c0.47,0.27,0.94,0.54,1.41,0.8c1.21,0.38,2.44,0.07,3.6-0.22
			C118.01,107.56,119.24,107.47,119.24,107.47z"/>
            <circle cx="88.31" cy="55.44" r="1.586"/>
        </g>
        <g id="__Düzköy">
            <path d="
			M107.79,168.74c0.41-0.42,0.96-1.29,1.08-1.86c0.68-0.66,3.25-3.33,3.44-4.04c0.97-1.08,1.94-2.16,2.91-3.23
			c0.47-0.4,0.94-0.8,1.41-1.21c1.42-1.34,3.5-3.7,4.36-5.42c0.46-0.93-0.01-1.68,0.06-2.62c0.07-0.8,0.13-1.61,0.2-2.41
			c0.33-0.34,0.65-0.69,0.98-1.03c0.97-0.78,1.65-1.98,3.04-1.98c1.67-1.07,3.35-2.14,5.02-3.21c1.26-0.5,2.52-1,3.79-1.5
			c2.1-0.94,3.22,0.07,5.05-1.71c0.53-0.05,0.65,0.08,1.21,0.23l-0.2-0.13c-0.35-0.61-0.39-1.49-0.6-1.91
			c0.46-0.58-0.23-1.3,0.07-1.98c0.75-1.72,0.97-3.12,1.2-4.92c-0.05-0.94-0.1-1.89-0.15-2.83c-0.04-0.91-0.08-1.82-0.11-2.72
			c-0.13-0.27-0.19-1.26-0.09-1.48c-0.56-2.54-1.32-5-1.32-7.56c0-0.63,0.61-1.12,1-1.61c-0.23-0.9,1.49-1.93,2.02-2.57
			c1.16-1.6,0.69-1.25,1.29-1.85c-0.11-0.53-2.51-2.47-3.28-2.74c-1.81-0.67,0.43-1.95,1.17-2.69c0-0.13,0-0.27,0-0.4
			c0-0.35-2.11-0.7-3.82-0.2c-1,0.3-1.82,0.39-3.21,1c-0.54,0.13-1.67,0.47-2.21,0.6c-0.36-0.32-0.53-0.41-1.02-0.52
			c-1.87-0.44-3.9,0.12-5.61-0.68l-0.4-0.2c0.68,0.14-1.2,1.41-1.68,1.61c-1.96,0.82-1.74,1.7-4.15,2.5l0.13,0
			c-0.18,0.7-0.35,1.41-0.53,2.11c-0.49,0.85-0.98,1.7-1.48,2.55c-0.38,0.48-1.14,1.02-1.14,1.66c-1.07,1.14-2.14,2.28-3.21,3.42
			c-0.33,0.6-0.67,1.21-1,1.81c-1.67,1.74-3.35,3.48-5.02,5.22c-0.4,0.74-0.8,1.47-1.21,2.21c-0.49,0.72-0.93,1.1-1.41,1.81
			c-0.26,0.39-0.71,1.71-0.4,2.01c-0.22,0.52-0.45,1.04-0.67,1.56c-0.37,0.92-0.74,1.85-1.11,2.77c-0.44,0.68-0.88,1.35-1.32,2.03
			c-0.24,0.46-0.93,1.25-0.51,1.67c-1.52,2.81-3.14,4.74-4.14,7.78c-0.22,0.66-1.11,2.05-0.88,2.66c-0.9,1.24-1.55,2.35-1.92,3.84
			c0.1,1.4,0.21,2.8,0.31,4.2c0.6,0.87,1.21,1.74,1.81,2.61c1.61,1.61,3.21,3.21,4.82,4.82c1.07,1.2,2.48,3.14,4.22,3.41
			c0.64,0.64,2.4,1.21,3.21,1.21V168.74z"/>
            <circle cx="130.9" cy="121.13" r="1.586"/>
        </g>
        <g id="__Maçka">
            <path d="
			M238.36,178.47c0.33,0.66-0.51,1.12-1,1.61c-0.07,0.4-0.13,0.8-0.2,1.21c0.41,1.23-0.15,2.51-0.6,3.62c-0.33,0.33-0.67,0.67-1,1
			c-0.8,0.6-1.61,1.21-2.41,1.81c-1.49,1.21-2.91,2.27-4.15,3.73c-0.52,0.62-2,3.71-1.8,4.35c-0.56,1.59-1.12,3.19-1.68,4.78
			c0.07,1.67,0.13,3.35,0.2,5.02c0,0.2-0.06,1.06-0.33,1.17c-0.41,0.07-1.27-0.44-1.67-0.37c-0.33,0.13-0.67,0.27-1,0.4
			c-0.21,0.18-0.42,0.36-0.63,0.55c-1.29,0.84-1.37,5.72-1.58,7.29c-0.13,0.47-0.27,0.94-0.4,1.41c-0.45,0.48-0.9,0.96-1.36,1.44
			c-0.77,0.55-1.55,1.11-2.32,1.66c-0.57,0.44-1.58-0.05-2.15-0.18c-1.76-0.39-3.31-1.16-5.02-1.93c-0.8-0.07-1.61-0.13-2.41-0.2
			c-0.52,0.62-1.67,0.3-2.41,0.6c-1.76,0.72-3.59,1.19-5.22,2.21c-1.28,0-1.93-0.32-2.81-1.21c-0.6-0.13-1.21-0.27-1.81-0.4
			c-1.14-0.07-2.28-0.13-3.42-0.2c-0.47,0.27-0.94,0.54-1.41,0.8c-1.54,0.13-3.08,0.27-4.62,0.4c-1.04,0.43-2.23,1.71-2.81,2.61
			c-0.67,0.47-1.34,0.94-2.01,1.41c-1.42,0.7-3.24,1.43-4.82,1.61c-2.07,0.23-4.48-0.12-6.46-0.72c-0.79-0.11-1.59-0.22-2.38-0.33
			c-2.41-0.52-4.82-1.04-7.23-1.56c-0.94,0.07-1.88,0.13-2.81,0.2c-1.07,0.13-2.14,0.27-3.21,0.4c-0.68-0.12-1.35-0.23-2.03-0.35
			c-1.27-0.37-2.55-0.74-3.82-1.11c-1.33-0.3-2.44,0.01-3.79,0.06c-0.54-0.13-1.07-0.27-1.61-0.4c-0.26-0.47-0.75-0.52-1.21-0.8
			c-0.98-2.14-3.47-2.16-5.22-3.21c-0.51-0.32-1.01-0.64-1.52-0.97c-2.4-1.47-3.57-5.07-3.89-7.7c-0.3-0.89-0.59-1.79-0.89-2.68
			c-0.19-0.42-1.05-2.68-1.74-2.91c-1.34-2.19-5.7-2.44-8.04-2.81c-2.14-0.8-4.29-1.61-6.43-2.41c-1.07-0.67-2.14-1.34-3.21-2.01
			c-1.21-1-2.41-2.01-3.62-3.01c-1.15-0.6-2.28-1.28-3.21-2.21c-0.25-0.68-0.5-1.36-0.75-2.03c-0.45-1.45-0.66-3.68-0.35-5.19
			l-0.19-0.64c0.32,0.91,1.45-1.92,1.56-2.61c0.31-1.26,0.62-2.52,0.93-3.79c0.2-1.51,0.51-2.81,1-4.22c0.07-0.33,0.13-0.67,0.2-1
			c0.44-0.55,1.71-1.81,2.21-1.81v-0.1c0.41-0.42,0.96-1.29,1.08-1.86c0.68-0.66,3.25-3.33,3.44-4.04c0.97-1.08,1.94-2.16,2.91-3.23
			c0.47-0.4,0.94-0.8,1.41-1.21c1.42-1.34,3.5-3.7,4.36-5.42c0.46-0.93-0.01-1.68,0.06-2.62c0.07-0.8,0.13-1.61,0.2-2.41
			c0.33-0.34,0.65-0.69,0.98-1.03c0.97-0.78,1.65-1.98,3.04-1.98c1.67-1.07,3.35-2.14,5.02-3.21c1.26-0.5,2.52-1,3.79-1.5
			c2.1-0.94,3.22,0.07,5.05-1.71c0.53-0.05,0.65,0.08,1.21,0.23l-0.2-0.13c0.57,0.98,1.53,1.71,2.25,2.01
			c1.11,0.48,3.38,0.97,4.58,0.7c0.27-0.13,0.54-0.27,0.8-0.4c0.54,0.07,1.07,0.13,1.61,0.2c0.33-0.13,0.67-0.27,1-0.4
			c1.61-0.07,3.21-0.13,4.82-0.2c0.74-0.54,1.47-1.07,2.21-1.61c0.9-1.01,2.15-3.14,3.42-3.62c1.08-1.87,2.16-3.73,3.24-5.6
			c0.43-0.62,0.92-0.91,1.38-1.43c0.9-1.01,1.71-2.15,3.18-1.93c2.03,0.37,3.6,1.43,5.66,1.93c1-0.07,2.01-0.13,3.01-0.2
			c1.49-0.14,2.53,0.42,4.22,0c1.79-0.45,3.78-2.77,5.02-4.02c0.54-1.87,1.07-3.75,1.61-5.62c0.4-0.47,0.8-0.94,1.21-1.41
			c0.2-0.4,0.4-0.81,0.6-1.21c0.6-0.6,1.21-1.2,1.81-1.8c0-0.22,2.47-2.41,2.81-2.41c0.47-0.67,0.94-1.34,1.41-2.01
			c0.55-0.73,1.29-0.92,1.54-1.51l0.2-0.4c1.04-0.78,3.11-1.6,4.49-1.1c2.08-0.4,3.92-0.54,6.03-0.6c0.84-0.02,1.83-0.44,2.61,0
			c0.52-0.2,1.26-0.6,1.65-0.51c0.69,0.18,2.01,1.4,2.17,1.96c0.17,0.8,0.18,2.97,0.8,3.36c-0.33,0.47-0.62,1.24-1.21,1.21
			c0.01,0.07,0.02,0.13,0.03,0.2c0.2,2.18,1.77,3.69,2.88,5.49c0.44,0.71,0.87,1.43,1.31,2.14c0.47,1.41,0.94,2.81,1.41,4.22
			c0.35,1.8,0.97,4.18,2.21,5.62c0.6,1.61,1.21,3.21,1.81,4.82c0.1,1.68,0.07,3.46,0,5.22c-0.4,1.41-0.8,2.81-1.21,4.22
			c-0.34,1.97,0.69,6.33,1.21,8.24c0.24,0.89,1.65,2.82,2.28,3.28c0.51,0.65,1.03,1.3,1.54,1.95c1.36,0.26,2.72,0.52,4.07,0.78
			l0.95,0.12c0.47,0.84,0.35,0.66,1.21,1.1c0.11,0.52,0.22,1.03,0.33,1.55c0.27,0.69,0.73,1.27,0.48,2.07
			c0.07,0.4,0.13,0.8,0.2,1.21c0.13,0.33,0.27,0.67,0.4,1c0.53,0.69,2.45,2.67,2.4,3.41c-0.15,2.4-2.48,5.48-1.13,7.66
			c0.72,0.88,1.05,2.13,2.15,2.09L238.36,178.47z"/>
            <circle cx="184.73" cy="147.45" r="1.586"/>
        </g>
        <g id="__Arsin">
            <path d="
			M256.48,183.01c0.05-0.1,0.11-0.21,0.16-0.31c0.68-0.28,1.26-0.22,1.83-0.76c1.67-1.6,2.86-3.46,4.07-5.4
			c0.58-0.96,1.16-1.92,1.73-2.88c0.53-0.78,1.35-2.07,1.41-3.01c0.8-0.87,1.61-1.74,2.41-2.61c0.84-0.59,1.69-0.88,2.21-1.81
			c0.71-1.96,1.43-3.93,2.14-5.89c1.04-1.31,2.27-1.91,3.82-2.44c1.12-0.13,2.24-0.27,3.36-0.4c1.38-1.61,1.96-3.7,2.33-5.73
			c0.54-1.74,1.07-3.49,1.61-5.23c0.13-1.07,0.27-2.14,0.4-3.21c0.31-0.5,0.61-1,0.92-1.49c0.33-0.68,0.67-1.36,1-2.04
			c1.55-2.34,3.41-4.11,2.9-7.11c0-0.4,0-0.8,0-1.21c0-0.6,0-1.21,0-1.81c0.43-1.87,0.85-3.74,1.28-5.61
			c0.27-0.64,1.31-2.7,1.13-3.23c0.68-0.97,1.42-1.71,2.21-2.61c0.54-0.54,1.07-1.07,1.61-1.61c1.12-0.56,2.23-1.13,3.35-1.69
			c0.62-0.36,2.86-1.52,2.89-2.33c0.06-0.47,0.13-0.94,0.19-1.41c-0.33-0.94-0.67-1.88-1-2.81c0.07-1.41,0.13-2.81,0.2-4.22
			c-0.44-2.29-1.56-4.67-2.81-6.63c-0.7-1.1-1.27-4.05-0.2-5.02c-0.08-0.77-0.16-1.55-0.24-2.32c-0.19-0.52-0.37-1.03-0.56-1.55
			l-0.47-0.11c-0.54-1.34-2.33-0.92-3.15-1.04c-1.14-0.17-2.32,0.19-3.23,0.73c-0.8,0.02-1.59,0.05-2.39,0.07
			c-1.21,0.27-2.41,0.54-3.62,0.8c-0.27,0.13-0.54,0.27-0.8,0.4c-0.77,0.15-1.62,0.18-2.21,0.8c-0.92-0.24-1.47,0.2-2.41,0.2
			c-0.92,0-3.48,0.25-4.19-0.28c-1.08,0.16-2.16,0.32-3.24,0.48l-0.74,0.23c0.59,0.28,0.17,0.95,0.33,1.57
			c-0.33,1.11-0.6,2.49-0.6,3.42c0.64,1.1,0.2,3.93,0.2,5.22c1.01,0.98,0.28,2.23,0.4,3.41c0.27,1.67,0.54,3.35,0.8,5.02
			c-0.44,0.37-0.39,1.24-0.4,1.81c-0.5,0.3-1.53,3.34-1.61,4.02c-0.11,1.26-0.21,2.52-0.32,3.78c-0.16,0.82-0.32,1.63-0.48,2.45
			c0.13,2.95,0.27,5.89,0.4,8.84c-0.48,0.32-1.77,2.54-2.01,3.21c-0.63,0.72-1.26,1.43-1.89,2.15c-0.91,1.16-1.82,2.32-2.73,3.48
			c-0.8,1.41-1.61,2.81-2.41,4.22c-0.14,1.93-0.09,3.56,0.2,5.42c0.67,0.31,0.61,0.95,0.8,1.61c0.72,0.16,2.2,2.12,2.61,2.81
			c0.07,1.21,0.13,2.41,0.2,3.62c-0.79,0.52-0.78,1.97-1,2.81c-0.59,0.23-0.99,1.34-1.41,1.86c0,0.52,0,1.03,0.01,1.55
			c-0.33,0.8-0.67,1.61-1,2.41c-0.94,0.3-2.25,3.75-2.61,4.82c-0.68,0.5-1.09,2.21-1.61,3.01c-1.87,0.45-1.85,1.28-2.95,2.51
			c-0.59,0.66-1,1.21-1.13,2.14l-0.13-0.44c0.77,1.7,2.31,2.65,3.14,4.26c0.26,0.5,0.36,0.92,0.88,1.17L256.48,183.01z"/>
            <circle cx="282.16" cy="92.4" r="1.586"/>
        </g>
        <g id="__Köprübaşı">
            <path d="
			M333.31,233.69c0.38-1.6,1.13-6.11,1.87-7.6c-0.4-0.67,0.18-1.59,0.37-2.16c0.6-1.83,1.22-3.5,2.04-5.27
			c0.07-0.47,0.13-0.94,0.2-1.41c-0.33-1.07-0.67-2.14-1-3.21c-0.39-0.67-0.79-1.35-1.18-2.02c-1.17-1.92-2.05-3.74-2.84-5.81
			c0.3-0.52,0.15-1.2,0.2-1.81c0.65-1.45,1.3-2.89,1.95-4.34c0.42-0.36,0.85-0.72,1.27-1.09c0.4-0.47,0.8-0.94,1.21-1.41
			c1.34-1.85,3.46-3.21,5.22-4.62c0.33-0.47,0.67-0.94,1-1.41c0.6-1.07,1.21-2.14,1.81-3.21c0.13-1.21,0.27-2.41,0.4-3.62
			c0.12-0.29,0.24-0.57,0.36-0.86c0.24-0.93,1.58-0.65,2.65-1.05l-0.4-0.7c-0.23-0.53-0.75-2.28-0.6-2.81
			c-1.22-1.22-1.71-3.25-2.21-4.82c-0.24-0.76-0.82-1.28-0.93-2.05c-0.03-0.86-0.05-1.72-0.08-2.57c0.2-0.54,0.4-1.07,0.6-1.61
			c-0.07-0.87-0.13-1.74-0.2-2.61c-0.02-1.65-1.36-4.13-0.34-5.59c0.5-0.65,1.91-1.18,2.75-0.83c0.8-0.54,1.61-1.07,2.41-1.61
			c0.27-0.54,0.54-1.07,0.8-1.61c0.27-0.87,0.54-1.74,0.8-2.61c0-0.67,0.07-2.17,0.6-2.61c-0.08-0.65-0.65-3.61-0.4-4.02
			c-0.64-1.28-1.6-2.41-2.61-3.41c-0.87-0.74-1.74-1.47-2.61-2.21c-0.46-0.73-2.18-3.72-2.81-3.86c-1.62-0.38-4.19,0.11-5.83,0.45
			c-0.92-0.02-1.85-0.03-2.77-0.05c-1.36,0.27-2.71,0.54-4.07,0.82c-1.06,0.2-3.59,0.32-4.29,1.14c-2.16,2.82,0.87,5.64-0.73,8.41
			c-0.28,0.48-0.86,1.89-1.39,1.98c-0.94,0.12-1.88,0.25-2.82,0.37c-0.33,0.33-0.81,0.8-0.4,1.21c0.8,1.54,1.61,3.08,2.41,4.62
			c0,0.44,0.08,0.87-0.2,1.21c0.2,1.2,0.32,2.46,0.87,3.57c0.38,0.62,0.76,1.23,1.14,1.85c-0.07,1.29,0.83,4.63,1.41,6.03
			c0.07,2.61,0.13,5.22,0.2,7.83c-0.39,1.41-0.77,2.82-1.16,4.23c-0.7,2.42,0.17,4.6-2.06,6.42c0,0.43-0.44,1-0.8,1.21
			c-0.21,1.56,0.02,3.6-1.21,4.82c-0.13,0.33-0.27,0.67-0.4,1c-0.2,1.34-0.4,2.68-0.6,4.02c-0.32,1.76-1.86,3.22-2.81,4.62
			c-0.7,1.02-0.2,2.46-0.2,3.62c-0.27,0.67-0.54,1.34-0.8,2.01c-1.85,1.07-3.56,2.34-5.25,3.58c-0.79,0.58-1.72,1.26-1.02,2.2
			c0.49,0.51,2.45,2.33,2.45,2.86c0.62,0.62,1.55,1.5,1.61,2.41c1.07,1.07,2.14,2.14,3.21,3.21c0.94,0,2.1,1.43,2.84,1.98
			c2.07,1.55,4.44,2.81,6.59,4.08c1.41,0.86,2.82,1.72,4.23,2.58c0.54,0.67,1.07,1.34,1.61,2.01L333.31,233.69z"/>
            <circle cx="335.39" cy="147.85" r="1.586"/>
        </g>
        <g id="__Sürmene">
            <path d="
			M354.61,144.63c-1.03-0.03-2.34,0.48-3.35,0.8l-0.61-0.31c-0.49-0.64-1.03-1.24-1.6-1.8c-0.87-0.74-1.74-1.47-2.61-2.21
			c-0.46-0.73-2.18-3.72-2.81-3.86c-1.62-0.38-4.19,0.11-5.83,0.45c-0.92-0.02-1.85-0.03-2.77-0.05c-1.36,0.27-2.71,0.54-4.07,0.82
			c-1.06,0.2-3.59,0.32-4.29,1.14c-2.16,2.82,0.87,5.64-0.73,8.41c-0.28,0.48-0.86,1.89-1.39,1.98c-0.94,0.12-1.88,0.25-2.82,0.37
			c-0.33,0.33-0.81,0.8-0.4,1.21c0.8,1.54,1.61,3.08,2.41,4.62c0,0.44,0.08,0.87-0.2,1.21c0.2,1.2,0.32,2.46,0.87,3.57
			c0.38,0.62,0.76,1.23,1.14,1.85c-0.07,1.29,0.83,4.63,1.41,6.03c0.07,2.61,0.13,5.22,0.2,7.83c-0.39,1.41-0.77,2.82-1.16,4.23
			c-0.7,2.42,0.17,4.6-2.06,6.42c0,0.43-0.44,1-0.8,1.21c-0.21,1.56,0.02,3.6-1.21,4.82c-0.13,0.33-0.27,0.67-0.4,1
			c-0.2,1.34-0.4,2.68-0.6,4.02c-0.32,1.76-1.86,3.22-2.81,4.62c-0.7,1.02-0.2,2.46-0.2,3.62c-0.27,0.67-0.54,1.34-0.8,2.01
			c-1.85,1.07-3.56,2.34-5.25,3.58c-0.79,0.58-1.72,1.26-1.02,2.2c0,0-1.19-0.64-1.57-0.96c-0.33-0.13-0.67-0.27-1-0.4
			c-1.48-1-3.01-1.19-4.84-0.83l0.02-0.07c-0.37-0.35-1.15-1.28-1.27-1.75c-0.51-1.93-1.03-3.86-1.54-5.79c0-0.74,0-1.47,0-2.21
			c0-1.52,2.13-2.72,3.21-3.42c0.67-1,1.34-2.01,2.01-3.01c0.13-0.47,0.27-0.94,0.4-1.41c0.04-1.02,0.07-2.04,0.11-3.06
			c-0.2-1.43-0.09-4.33,0.57-5.67c0.34-0.7,0.78-1.24,1.54-1.4c0.42-1.01,1.2-1.57,2-2.32c0.4-0.87,0.8-1.74,1.21-2.61
			c-0.44-1.14,0.15-1.94,0.2-3.01c0.07-2.28,0.13-4.55,0.2-6.83c-0.07-1-0.13-2.01-0.2-3.01c-0.27-0.87-0.54-1.74-0.8-2.61
			c-0.31-0.59-0.61-1.18-0.92-1.78c-0.74-2.04-1.01-4.24-0.18-6.33c-0.41-2.19,0.7-4.19,1.12-6.36c0.13-0.47,0.25-0.94,0.38-1.41
			c0.11-2.22,1.04-4.33,1.61-6.43c0.57-2.11,0.83-4.28,1.81-6.23c1.27-1.54,2.54-3.08,3.82-4.62c0.13-1.14,0.27-2.28,0.4-3.42
			c-0.33-2.08-0.67-4.15-1-6.23c-0.13-0.4-0.27-0.8-0.4-1.21c-0.34-0.32-0.31-0.76-0.4-1.21c-0.8-0.62-0.51-1.94-0.4-2.81
			c-0.55-0.44-0.85-3.48-0.6-4.22c0.47-2.14,0.94-4.29,1.41-6.43c1-1.27,3.01-3.45,2.98-4.63l0.29,0.45
			c0.58,0.4,1.89,1.68,2.14,2.29c1.75,0.73,2.69,1.87,3.82,1.86c0.67-0.11,1.34-0.23,2.01-0.34c1.14,0.19,2.28,0.39,3.42,0.58
			c1.32,0.17,2.59,1.02,4.02,1.21c0.73-0.08,1.47-0.15,2.2-0.23c1.76,0,3.27,0.52,4.83-0.57c1.35,0.17,2.99,0.2,4.02,0.13
			c1.27,0.02,2.54,0.05,3.82,0.07c0.87-0.13,1.74-0.27,2.61-0.4c-0.53,0,0.79-0.99,1.05-1.14c0.72-0.36,1.44-0.72,2.17-1.07
			c2.2-0.21,4.07-0.97,6.06-1.69c0.53-0.19,1.53,0.28,1.53,0.28c-0.05,0.67-0.11,1.34-0.16,2.02c0.09,0.86,0.17,1.72,0.26,2.58
			c-0.14,1.34-0.79,2.68-0.46,4.05c-1,1.67-2.01,3.35-3.01,5.02c-0.37,0.9,0.26,2.36-0.4,3.01c0.83,1.5,1.92,2.93,2.4,4.62
			c0.13,0.45,0.36,1.58,0.11,1.95c-0.44,0.62-0.87,1.25-1.31,1.87c-0.27,0.2-0.54,0.4-0.8,0.6c-1.46,0.32-4.39-0.14-4.97,1.62
			c-0.31,1.04-0.3,3.68,0.35,4.61c0.06,0.68-0.14,1.74,0.4,2.21c-0.18,0.85-0.52,2.46,0,3.21c-0.47,1.27-0.27,1.71-0.74,2.98
			c0.09,0.43-1.12,1.47-1.34,1.87L354.61,144.63z"/>
            <circle cx="338" cy="109.28" r="1.586"/>
        </g>
        <g id="__Dernekpazarı">
            <path d="
			M348.85,182.8l-0.4-0.7c-0.23-0.53-0.75-2.28-0.6-2.81c-1.22-1.22-1.71-3.25-2.21-4.82c-0.24-0.76-0.82-1.28-0.93-2.05
			c-0.03-0.86-0.05-1.72-0.08-2.57c0.2-0.54,0.4-1.07,0.6-1.61c-0.07-0.87-0.13-1.74-0.2-2.61c-0.02-1.65-1.36-4.13-0.34-5.59
			c0.5-0.65,1.91-1.18,2.75-0.83c0.8-0.54,1.61-1.07,2.41-1.61c0.27-0.54,0.54-1.07,0.8-1.61c0.27-0.87,0.54-1.74,0.8-2.61
			c0-0.67,0.07-2.17,0.6-2.61c-0.08-0.65-0.65-3.61-0.4-4.02c-0.64-1.28-0.4-1.3-0.4-1.3c1-0.32,2.32-0.83,3.35-0.8l0.4-0.27
			c0.14,0.04,0.94,0.04,1.08,0.08c0.67,0.1,1.33,0.19,2,0.29c1-0.33,2.01-0.67,3.01-1c0.55-0.46,1.3-1.29,2.01-1.41
			c0.64-0.66,1.45-1.37,2.41-1.41c0.67-0.51,2.26-1.69,2.86-1.43c0.18,0.01,0.37,0.02,0.55,0.02c0.57,1.19,1.97,2.71,3.42,2.41
			c0.54,0.47,1.07,0.94,1.61,1.41c0.8,1.34,1.61,2.68,2.41,4.02c0.67,0.54,1.33,1.08,2,1.61c0.58,0.24,1.15,0.48,1.73,0.72
			c1.92,0.65,4.05,1.46,5.53,2.87c0.87,0.83,1.63,1.96,2.2,3.03c0.2,0.4,0.4,0.8,0.6,1.21c0.42,1.22,0.68,2.48,2.05,2.76
			c0.73,0.11,0.93,0.75,1.74,0.21c1.35-0.65,2.7-1.31,4.05-1.96c0.74-0.67,2.08-2.04,2.81-2.71l0.22,0.24
			c0.38-0.05,0.32,0.04,0.58-0.34c0.6-0.07,1.21-0.13,1.81-0.2c0.8,0.07,1.61,0.13,2.41,0.2c0.54-0.2,1.07-0.4,1.61-0.6
			c0.8-0.13,1.53-1.09,2.17-0.18c0.22,0.19,0.43,0.39,0.65,0.58c0.27,0.74,0.54,1.47,0.8,2.21c0.91,0,2.42,0.82,2.81,1.61
			c0.35,0.77,0.4,4.31,0.4,4.31c-2.47-0.66-3.58,0.7-5.87,1.18c-0.97,0.02-1.93,0.04-2.9,0.06c-0.52,0.07-1.54,0.13-1.88,0.48
			c-0.54-0.07-1.07-0.14-1.61-0.21c-0.82-0.01-3.84-0.57-4.22-0.19c-1.71-0.59-4.2-1.84-6.03-1.61c-0.77-0.37-1.57-1.04-2.41-0.8
			c-0.8-0.47-1.61-0.94-2.41-1.41c-1.85-0.79-3.37-1.53-4.65-3.17c-0.19-0.48-0.38-0.97-0.57-1.45c-0.75-1.03-1.91-2.63-3.18-2.58
			c-0.17,0.02-1.42,1.39-2.04,1.58c-0.07,0.94-0.15,1.87-0.22,2.81c0.04,0.28,0.08,0.56,0.12,0.84c-0.7,0.06-1.41,0.11-2.11,0.17
			c-0.76-0.63-1.76-1.5-2.62-1.21c-0.59,0.28-0.81,0.2-1.11,0.83c-0.3,0.53-0.59,1.05-0.89,1.58c-0.1,0.79-0.2,1.59-0.29,2.38
			c-0.23,0.72-0.76,1.35-0.91,2.04c-2,1.6-4.57,2.48-6.32,4.31c-0.28,0.29-1.52,1.93-1.47,2.1c0.15,0.42,0.26,0.44-0.05,0.83
			c0.33,0.33,0.67,0.67,1,1c0.6,0.31,2.04,0.8,1.97,1.39c-0.24,1.39-1.58,2.37-2.77,3.23c-0.47,0.47-0.94,0.94-1.41,1.41
			C355.22,179.62,351.38,181.85,348.85,182.8z"/>
            <circle cx="371.35" cy="150.66" r="1.586"/>
        </g>
        <g id="__Hayrat">
            <path d="
			M425.44,216.71c-0.34-0.14-2-0.33-2.87-0.26c-0.87-0.4-1.74-0.8-2.61-1.21c-1.27-0.87-2.54-1.74-3.82-2.61
			c-0.54-0.76-1.07-1.52-1.61-2.27c-0.47-0.45-0.94-0.9-1.41-1.34c-1.34-0.6-2.68-1.21-4.02-1.81c-1.54-0.97-2.31-2.82-4.01-3.57
			c-1.01-0.22-2.01-0.43-3.02-0.65c-0.8,0.04-2.37,0.27-3.01-0.21c-0.75,0.17-2.47,0.79-2.77,0.01c-0.59-1.77-0.27-3.75-0.24-5.64
			c0-0.73,0-1.47,0-2.2c0.74-1.21,1.47-2.41,2.21-3.62c1.54-0.84,3.77-1.8,4.2-3.62c0.19-3.46,0.38-6.93,0.56-10.4
			c-0.05-0.15-0.1-0.3-0.14-0.45c0.25-0.72,0.9-2.81,1.43-3.16c0.56-0.37,2.09-1.48,2.55-1.37c0.81,0.21,4.18,1.34,4.6,0.69
			c0.68-0.94,0.61-3.01-0.15-3.99c0.52-1.19,1.29-2.22,1.24-3.57c-0.02-0.73,0.97-2.29-0.04-2.56c0,0-0.05-3.55-0.4-4.31
			c-0.39-0.78-1.9-1.61-2.81-1.61c-0.27-0.74-0.54-1.47-0.8-2.21c-0.22-0.19-0.43-0.39-0.65-0.58c-0.63-0.91-1.36,0.04-2.17,0.18
			c-0.54,0.2-1.07,0.4-1.61,0.6c-0.8-0.07-1.61-0.13-2.41-0.2c-0.6,0.07-1.21,0.13-1.81,0.2c-0.27,0.38-0.2,0.29-0.58,0.34
			l-0.22-0.24c0.33-1,0.07-1.31,0.4-2.31c-0.08-0.84,0.07-2.39-0.6-3.01c0.07-2.27-0.4-4.47-0.2-6.63c0.19-2.04,2.86-5.23,1.56-6.77
			c-0.86-0.96-1.71-1.92-2.57-2.88c-0.2-0.54-0.4-1.07-0.6-1.61c-0.06-0.64,0.04-1.78-0.41-2.21c-1.15-1.09-2.36-1.14-3.81-1.61
			c-0.07-0.39,0.01-0.29-0.4-0.6c0.11-0.27,0.22-0.54,0.33-0.82c0.34-0.95,0.25-1.88,0.74-2.77c0.54-0.82,1.08-1.65,1.62-2.47
			c0.26-0.83,1.06-3.39,1.73-3.78c0.07-0.47,0.13-0.94,0.2-1.41c-0.22-1.4-0.57-2.67-1-4.02c-0.34-0.8-0.68-1.6-1.02-2.4
			c-0.08-0.71-0.42-2.15-0.99-2.42c0.33-0.12,0.67-0.24,1-0.36c0.89-0.25,3.55-0.38,4.02-1.25c1.72,0.33,3.29,0.22,5.02,0.4
			c0.53-0.08,1.06-0.15,1.59-0.23c0.86-0.01,1.99,0.14,2.63-0.58c1.3-0.08,3.45-0.23,3.95,1.22c0.15,0.45,0.37,0.75,0.87,0.79
			c0.13,0.94,0.27,1.88,0.4,2.81c-0.2,0.6-0.4,1.21-0.6,1.81c0.12,1.81,0.18,6.31,2.22,6.79c0.85,0.21,3.41,0.11,3.45,0.67
			c0.08,0.76,0.34,2.04-0.24,2.59c1.15,1.44,2.37,2.57,2.89,4.38c0.15,0.95,0.3,1.9,0.45,2.84c0.16,1.01,0.32,2.01,0.48,3.02
			c0.23,1.52,0.05,3.06,0.63,4.51c0.44,1.1,1.11,2.08,1.91,2.98c0.4,0.45,1.26,1.18,1.27,1.35c0,0-1.07,1.69-1.7,2.71
			c-0.43,0.8-0.87,1.6-1.3,2.4c-0.39,0.66-1.21,1.55-0.82,2.32c0.07,0.33,0.13,0.67,0.2,1c0.25,0.29,0.5,0.59,0.75,0.88
			c0.2,0.11,0.39,0.23,0.59,0.35c0.49,0.8,0.98,1.59,1.47,2.39c0.2,0.47,0.4,0.94,0.6,1.41c0.4,2.54,0.8,5.09,1.21,7.63
			c0.34,1.65-0.91,5.52,0.4,6.82c1.3,1.3,2.57,2.76,4.26,3.74c1.8,0.9,3.6,1.8,5.39,2.69c1.41,0.94,2.81,1.88,4.22,2.81
			c1.07,0,2.08,1.14,2.81,1.81c1.63,1.48,2.68,6.08,3.01,8.24c-0.54,1.94-1.07,3.88-1.61,5.83c-0.89,1.59-1.78,3.19-2.67,4.78
			c-1.5,2.36-4.21,3.65-6.37,5.26c-0.86,0.64-3.42,4.43-3.42,5.42c-0.5,0.65-0.99,1.29-1.49,1.94c-0.91,1.16-1.82,2.32-2.73,3.48
			c-0.5,0.56-1.51,1.22-1.61,2.01c-0.17,0.17-0.38,0.5-0.51,0.85L425.44,216.71z"/>
            <circle cx="407.91" cy="116.31" r="1.586"/>
        </g>
        <g id="__Çarşıbaşı">
            <path d="
			M124.07,101.14c-0.54-0.4-1.07-0.8-1.61-1.21c-0.13-0.47-0.27-0.94-0.4-1.41c0-0.75,0.21-3.61-0.2-4.02
			c0.18-1.14,0.36-2.28,0.55-3.43c0.02-1.13,0.04-2.27,0.06-3.4c-0.7-1.31-1.4-2.62-2.1-3.92c-0.47-0.62-1.26-1.88-1.11-2.71
			c-0.76-1.21-1.58-2.27-2.01-3.62c2.59-2.59,1.21-4.15,1.21-7.23c0.47-0.87,0.94-1.74,1.41-2.61c0.05-0.66,0.09-1.33,0.14-1.99
			c0.06-0.58,0.12-1.17,0.18-1.75c-0.68-0.98-1.44-1.51-2.52-1.88c-0.4-0.54-0.8-1.07-1.21-1.61c-0.27-0.94-0.54-1.87-0.8-2.81
			c-0.88-0.88-1.19-1.6-1.21-2.81c-0.01-0.58-0.81-1.6-0.4-2.01c-0.94-0.87-2.38-2.44-3.31-3.31c0-2.1-1.21-3.11-2.31-3.62
			l0.24-0.23c1.28-0.63,2.25-1.62,3.38-2.49c0.93-0.71,1.96-1.16,2.81-2.01c1.07-0.33,2.14-0.67,3.21-1
			c0.67-0.67,1.28-1.37,2.12-1.83c0.93-0.5,3.57-2,3.4-2.72c1.19-1.53,2.18-2.6,3.92-3.5c0.61-0.32,1.47-0.94,2.19-0.74
			c0.69,0.22,1.16,0.41,1.83,0.75c0.67,1.03,1.8,2.45,3.21,1.81l0.2,0.2c-0.16,0.73-0.32,1.46-0.48,2.18
			c0.26,1.73,0.71,5.49-0.16,7.23c-0.73,1.46-2.26,5.28-1.37,6.46c0.87,1.21,1.74,2.41,2.61,3.62c0.58,0.49,1.17,0.98,1.75,1.47
			c0.5,0.44,0.84,1.24,1.46,1.34c-0.07,0.17-0.15,0.33-0.22,0.5c-0.6,1.11-1.19,2.21-1.79,3.32c0.31,1.12,0.58,1.99,0.33,3.16
			c0.06,0.13,0.13,0.26,0.19,0.39c-0.21,0.58-0.81,1.69-1.53,1.48c-0.36,0.5-1.01,1.47-1.61,1.61c-0.07,0.47-0.13,0.94-0.2,1.41
			c-0.34,0.36-0.52,0.66-1,0.8c-0.76,1.06-1.53,2.11-2.29,3.17c-0.93,1.24-2.15,1.16-2.32,2.87c-0.1,1.51,1.93,4.45,1.22,5.73
			c-0.14,0.23-0.28,0.46-0.42,0.69c-0.33,0.07-0.67,0.13-1,0.2c-0.47,0.27-0.94,0.54-1.41,0.8c-0.33,0.47-0.67,0.94-1,1.41
			c-0.16,0.54-0.13,1.12-0.6,1.41c0.33,0.94,0.67,1.88,1,2.81c0.07,0.47,0.13,0.94,0.2,1.41c-1,3.23-1.97,6.71-2.02,10.04
			C124.24,100.67,124.07,101.14,124.07,101.14z"/>
            <circle cx="119.45" cy="42.59" r="1.586"/>
        </g>
        <g id="__Ortahisar">
            <path d="
			M231.79,158.17c-1.36-0.26-2.72-0.52-4.07-0.78c-0.51-0.65-1.03-1.3-1.54-1.95c-0.63-0.46-2.04-2.39-2.28-3.28
			c-0.51-1.91-1.55-6.26-1.21-8.24c0.4-1.41,0.8-2.81,1.21-4.22c0.07-1.76,0.1-3.55,0-5.22c-0.6-1.61-1.21-3.21-1.81-4.82
			c-1.24-1.45-1.86-3.83-2.21-5.62c-0.47-1.41-0.94-2.81-1.41-4.22c-0.44-0.71-0.87-1.43-1.31-2.14c-1.11-1.8-2.68-3.31-2.88-5.49
			c-0.01-0.07-0.02-0.13-0.03-0.2c0.58,0.04,0.88-0.74,1.21-1.21c-0.61-0.39-0.63-2.57-0.8-3.36c-0.17-0.56-1.48-1.78-2.17-1.96
			c-0.39-0.09-1.13,0.31-1.65,0.51c-0.78-0.44-1.78-0.02-2.61,0c-2.1,0.06-3.94,0.2-6.03,0.6c-1.37-0.49-3.45,0.32-4.49,1.1
			l-0.2,0.4c0.43-0.99,0.08-2.37-0.53-3.84c-0.25-0.59-0.22-0.92-0.7-1.39c-1.9-1.9-6.76-3.35-7.34-6.12
			c-0.2-0.94-0.4-1.88-0.6-2.81c0.08-0.74,0.16-1.47,0.23-2.21c-0.11-1.14-0.23-2.29-0.34-3.43c-0.08-0.75-0.14-2.8-0.7-3.2
			c0.4-2.54,1.12-4.62,2.01-7.03c0.54-1.34,1.07-2.68,1.61-4.02c0.14-0.99,1.41-1.81,1.41-1.81c0-0.39,0.32-0.02,0.53,0.11
			c1.03,0.7,2.06,1.4,3.09,2.1c0.8,0.13,1.61,0.27,2.41,0.4c1.82,0.17,3.73-0.9,5.42-1.41c0.33-0.07,2.81-1.04,3.15-1.1
			c0.19,0.13,3.14-1.32,2.08-0.7c1.28-1.2,3.22-1.81,4.82-2.41c0.67,0,0.87-0.5,1.54-0.5c0.96-0.18,1.41-0.38,2.41-0.28
			c0.69,0.07,1.64,0.21,2.08,0.78c1.07,0.2,2.71,0.87,2.61,0.97c-0.24,0.32-0.61,0.93-0.17,1.16c0.92,0.49,2.29,1.25,3.38,1.09
			c1.74-0.26,3.22-0.63,5.02-0.2c0.47,0.07,0.94,0.13,1.41,0.2c0.94-0.19,2.02-0.36,2.94-0.05c0.67,0.47,1.34,0.94,2.01,1.41
			c0.82,0.35,1.65,0.7,2.47,1.05c0.54,0.27,1.07,0.54,1.61,0.8c0.64,0.64,1.54,1.24,2.34,1.37c0.8,1.21,0.95,1.03,2.09,1.38
			c1.06,0.32,3.8,0.25,4.26,1.63c0.63,1.93,0.96,3.78,2.99,4.77l0.04,0.52c-0.54-0.07-1.29,0.86-1.87,0.77
			c-0.06,0.37-1.73,1.06-2.34,1.49c-0.89,0.71-1.79,1.41-2.68,2.12c-1.83,0.38-3.78,1.17-5.22,2.41c-0.33,0.33-0.67,0.67-1,1
			c-0.54,0.52-0.55,1.5-1.21,1.81c-0.12,0.5-0.06,1.03-0.4,1.41c0.21,1.14,0.41,2.27,0.62,3.41c0.06,2.48,0.12,4.96,0.18,7.44
			c0.47,1.07,0.94,2.14,1.41,3.21c0.78,1.18,0.53,3.11,1.27,3.95c1.73,1.84,2.42,0.94,4.36,1.68c0.38,0.15,1.56,0.21,1.65,0.59
			c0.12,0.27,0.24,0.54,0.36,0.82c0,0.54,0,1.07,0,1.61c-0.17,0.67-0.33,1.33-0.5,2c-0.08,0.58-0.01,1.51-0.51,2.02
			c-0.06,0.92,0.08,1.82-0.8,2.28c-1.82,1.14-3.41,1.9-4.35,3.98c-0.42,0.94-0.13,3.03,0.13,4.06c-0.46,0.77-2.1,3.14-1.8,3.84
			c-0.2,0.33-1.64,1.46-2.23,2.23c-0.53,0.83-1.05,1.66-1.58,2.49c-0.54,0.52-1.09,1.04-1.63,1.56c-0.68,0.79-1.41,1.91-2.39,2.26
			c-0.12,0.47-0.08,1.05-0.4,1.41c-0.3,2.35,0.22,4.78-0.2,7.03c-0.15,0.79,0.27,3.05,0.8,4.12L231.79,158.17z"/>
            <circle cx="213.05" cy="73.12" r="1.586"/>
        </g>
    </g>
</svg>
