<?xml version="1.0" encoding="UTF-8"?>
<!DOCTYPE svg PUBLIC "-//W3C//DTD SVG 1.1//EN" "http://www.w3.org/Graphics/SVG/1.1/DTD/svg11.dtd">
<svg version="1.1" id="HaritaCizim" xmlns="http://www.w3.org/2000/svg" xmlns:xlink="http://www.w3.org/1999/xlink" x="0px" y="0px" viewBox="0 0 500 350" preserveAspectRatio="none">
    <defs id="__def">
        <radialGradient id="f">
            <stop offset="0" stop-color="white" stop-opacity="1"/>
            <stop id="STOP1" offset=".4" stop-opacity="1"/>
            <stop offset="1" stop-color="white" stop-opacity=".2"/>
        </radialGradient>
        <filter id="__flt1" x="0" y="0" width="200%" height="200%" filterUnits="objectBoundingBox">
            <feGaussianBlur in="SourceAlpha" stdDeviation="3" result="blur1"/>
            <feSpecularLighting result="specOut" in="blur1" specularConstant="1.5" specularExponent="20" lighting-color="#bbbbbb">
                <feDistantLight azimuth="45" elevation="30"/>
            </feSpecularLighting>
            <feComposite in="specOut" in2="SourceAlpha" operator="in" result="specOut"/>
            <feComposite in="SourceGraphic" in2="specOut" operator="arithmetic" k1="0" k2="1" k3="1" k4="0"/>
        </filter>
        <filter id="__flt2" x="0" y="0" width="200%" height="200%" filterUnits="objectBoundingBox">
            <feGaussianBlur in="SourceAlpha" stdDeviation="3" result="blur1"/>
            <feSpecularLighting result="specOut" in="blur1" specularExponent="20" lighting-color="#bbbbbb">
                <fePointLight x="-2000" y="100" z="2000"/>
            </feSpecularLighting>
            <feComposite in="specOut" in2="SourceAlpha" operator="in" result="specOut"/>
            <feComposite in="SourceGraphic" in2="specOut" operator="arithmetic" k1="0" k2="1" k3="1" k4="0"/>
        </filter>
        <filter id="__flt3" x0="-50%" y0="-50%" width="200%" height="200%" filterUnits="objectBoundingBox">
            <feGaussianBlur in="SourceAlpha" stdDeviation="3" result="blur"/>
            <feOffset in="blur" dx="0" dy="0" result="offsetBlur"/>
            <feSpecularLighting in="blur" surfaceScale="4" specularConstant=".5" specularExponent="20" lighting-color="flavor" result="specOut">
                <fePointLight x="-5000" y="-10000" z="5000"/>
            </feSpecularLighting>
            <feComposite in="specOut" in2="SourceAlpha" operator="in" result="specOut"/>
            <feComposite in="SourceGraphic" in2="specOut" operator="arithmetic" k1="0" k2="1" k3="1" k4="0" result="litPaint"/>
            <feMerge>
                <feMergeNode in="offsetBlur"/>
                <feMergeNode in="litPaint"/>
            </feMerge>
        </filter>
        <filter id="__flt4" x0="-50%" y0="-50%" width="200%" height="200%">
            <feGaussianBlur in="SourceAlpha" stdDeviation="2" result="blur"/>
            <feOffset dy="-1" dx="-1"/>
            <feComposite in2="SourceAlpha" operator="arithmetic" k2="-1" k3="1" result="hlDiff"/>
            <feFlood flood-color="white" flood-opacity=".7"/>
            <feComposite in2="hlDiff" operator="in"/>
            <feComposite in2="SourceGraphic" operator="over" result="withGlow"/>
            <feOffset in="blur" dy="3" dx="3"/>
            <feComposite in2="SourceAlpha" operator="arithmetic" k2="-1" k3="1" result="shadowDiff"/>
            <feFlood flood-color="black" flood-opacity="1"/>
            <feComposite in2="shadowDiff" operator="in"/>
            <feComposite in2="withGlow" operator="over"/>
        </filter>
        <filter id="__golge1" x="0" y="0" width="200%" height="200%" filterUnits="userSpaceOnUse">
            <feOffset result="offOut" in="SourceAlpha" dx="8" dy="8"/>
            <feGaussianBlur result="blurOut" in="offOut" stdDeviation="3"/>
            <feBlend in="SourceGraphic" in2="blurOut" mode="normal"/>
        </filter>
    </defs>
    <g id="__Komsular" display="none">
        <linearGradient id="SVGID_1_" gradientUnits="userSpaceOnUse" x1="77.8994" y1="323.8721" x2="167.8811" y2="167.5305">
            <stop offset="0" style="stop-color:#FFFFFF"/>
            <stop offset="1" style="stop-color:#4573B9"/>
        </linearGradient>
        <path fill-rule="evenodd" clip-rule="evenodd" fill="url(#SVGID_1_)" stroke="#000000" stroke-width="0.25" stroke-miterlimit="10"
              d="   M4.04,170.01c0.82,0.78,2.34,2.49,2.22,3.66c0.47,0.31,2.04,1.05,2.51,0.89c0.42,0.36,0.84,0.72,1.25,1.07   c0.99,0,3.16,0.58,3.76-0.54c1.3-0.16,2.35-0.24,3.59-0.67c0.83-0.32,1.66-0.63,2.49-0.95c1.48,0.19,2.96,0,4.47,0   c0.28-0.28,1.21-0.36,1.6-0.36c1.53,0.03,4.71,0.54,5.55,1.97c0.3,0.18,0.6,0.36,0.89,0.54c0.88,0.38,1.77,0.8,2.51,1.43   c-0.06,0.06-0.12,0.12-0.18,0.18c0.54,0.9,1.07,1.79,1.61,2.68c0.08,0.99-0.06,1.88-0.24,2.85c-0.08,0.35-0.15,0.7-0.23,1.06   c0.16,0.31,0.31,0.62,0.47,0.93c0.41,0.23,0.61,0.23,0.72,0.72c0.13-0.02,0.25-0.05,0.38-0.07c0.6-0.12,2.6-0.69,3.02-0.46   c0.72-0.43,1.88-0.86,2.33-1.61c0.39,0.03,1.1-0.14,0.63,0.22c-0.56,0.49-1.5,0.77-1.71,1.57c-1.13,0.27-3.15,0.36-3.57,1.42   c-0.06,1.11-1.1,3.19,0.17,3.95c-0.01,0.81-0.02,1.61-0.03,2.42c0.6,0.97,1.51,1.14,2.35,1.87c0.46,0.4,0.43,0.95,1.08,0.9   c-0.04,0.18-0.09,0.37-0.13,0.55c-0.08,0.12-0.15,0.23-0.23,0.35c0.13,0.83,0.06,1.18-0.18,1.97c0.06,1.31,0.12,2.63,0.18,3.94   c-0.4,0.35-0.43,1.13-1.07,1.07c0.18,0.42,0.36,0.84,0.54,1.25c-0.37,0.38-0.59,0.43-0.4,0.93c0.58,1.26,1.47,2.27,2.19,3.36   c0.17,0.56,0.34,1.13,0.51,1.69c0.31,0.57,0.62,1.14,0.92,1.71c-0.6,0.89-1.37,2.09-0.72,3.04c-0.12,0.71-0.23,1.43-0.35,2.14   c0.02,0.51-0.2,1.43,0.17,1.79c0.34,0.36,0.67,0.72,1.01,1.07c0.33,0,0.35-0.11,0.6,0.18c0.65-0.38,1.3-0.77,1.95-1.15   c0.24-0.06,1.16-0.52,1.07,0.04c-0.03,0.13-0.05,0.26-0.08,0.39c0.09,0.12,0.19,0.25,0.28,0.37c-0.67,0.67-2.75,2.83-1.87,3.66   c0.5,0.47,0.98,1.18,1.69,0.82c0.74,0.6,1.48,1.2,2.21,1.8c0.52-0.02,1.28,0.78,1.19,1.24c0.24-0.07,0.48-0.15,0.73-0.22   c0.99-0.28,1.71-1.49,2.85-1.03c0.51-0.2,0.75-0.13,0.89-0.72c0.34,0.07,1.52,0.2,1.01,0.5c-0.22,0.07-0.44,0.15-0.65,0.22   c-0.34,0.51-1.69,2.71-1.55,2.99c0.55,0.94,1.79,1.8,1.72,2.89c-0.01,0.4-0.41,1.37-0.7,1.64c-0.08,1.35,0.26,2.76-0.18,4.12   c0.5,0.68,0.88,1.12,0.88,2c0.12,0.05,0.25,0.1,0.37,0.15c-0.16,0.06-0.33,0.12-0.49,0.18c-1.12,0.44-1.25,1.53-1.35,2.67   c-0.07,0.23-0.15,0.45-0.22,0.68c0.23,0.34,0.31,0.34,0.28,0.77c0.77,0.02,2.05,0.22,2.68-0.18c0.81,0.86,1.61,1.71,2.42,2.57   c0.41,0.28,2.13,0.61,2.19,0.73c0.31,0.67,1.06,1.82,0.22,2.43c0.32,0.29,0.46,0.44,0.89,0.54c0.63,1.1,1,2.54,1.05,3.79   c0.25,0.05,0.5,0.1,0.74,0.15c-0.12,0.12-0.24,0.23-0.36,0.35c-0.33,0.27-0.45,0.51-0.89,0.55c-0.25,0.49-0.02,0.9-0.58,0.92   c-0.37-0.01-1.36-0.16-1.75-0.03c-0.38-0.38-0.83-0.52-0.89-1.07c-0.02,0.05-0.05,0.1-0.07,0.15c-0.26,0.51-1.13,0.37-1.54,0.75   c0.19,0.65,0.9,1.11,0.08,1.43c-0.54,0.18-1.3,0.64-1.87,0c-0.42,0.48-0.83,0.95-1.25,1.43c-0.72,0.12-1.43,0.24-2.15,0.36   c-1.03-0.5-4.49-1.12-5.01-1.79c-0.58,0.06-0.58,0.28-1.07-0.18c-0.02,0.13-0.03,0.25-0.05,0.37c-0.06,0.95-0.04,1.59,0.75,2.27   c0.01,0.52,0.25,0.57,0.63,0.87c0.09-0.04,0.19-0.07,0.28-0.11c-0.06,0.07-0.12,0.15-0.18,0.22c0,0.11,0,0.21,0,0.32   c-0.06-0.01-0.12-0.02-0.18-0.03c-1.02-0.16-3.53-0.56-4.29,0.39c-0.79,0.99-0.05,3.28-1.43,4.12c0.42,0,0.84,0,1.25,0   c-0.02,0.59-0.17,1.22,0.22,1.69c0.5,0.5,0.63,0.81,1.4,0.87c0.73,0.03,2.41-0.11,2.85,0.13c-0.41,0.54-0.75,1.39-1.43,1.43   c0.11-0.01,0.22-0.02,0.33-0.02c0.56,0,2.51,0.4,2.73,0.19c0.43-0.68,0.86-1.36,1.29-2.05c0.26,0.37,0.11,0.41,0.65,0.45   c0.2,0.27,0.4,0.54,0.6,0.81c0.26-0.32,0.23-0.59,0.65-0.63c-0.2-1.58-0.25-2.52,1.18-3.54c-0.04-0.13-0.07-0.26-0.11-0.4   c0.13,0.04,0.26,0.09,0.39,0.13c0.39,0.21,0.29-0.32,0.81,0.11c0.68,0.57,2.08,2.68,1.14,3.16c0.3,0.18,0.6,0.36,0.9,0.54   c0.09-0.09,0.18-0.18,0.27-0.27c0.71-0.67,1.81-2.21,2.77-2.41c0.1-0.81-0.11-1.13,0.24-1.97c0.12-0.29,0.5-0.16,0.74-0.08   c0.09-0.15,0.18-0.3,0.27-0.45c0.07,0.37,0.14,0.73,0.21,1.1c0.29,0.41,0.58,0.82,0.87,1.23c0.3,0.08,1.43,0.37,1.39,0.5   c-0.19,0.52-0.36,1.33-0.85,1.47c0.26,0.41,0.41,1,0.9,1.07c0.02,0.18,0.03,0.36,0.05,0.54c0.01,0.77-0.52,1.88,0.05,2.37   c0.27,0.19,0.29,0.11,0.26,0.49c0.3,0,0.6,0,0.89,0c0.17,0.1,0.34,0.2,0.51,0.3c0.45-0.15,0.6-0.36,1.1-0.3   c0.23-0.36,0.47-0.72,0.7-1.07c-0.06-0.78-0.5-2.69-0.88-3.4c0.05-0.8,0.16-2.44-0.02-3.03c-0.17-0.54-0.56-2.34-0.87-2.52   c0.17,0.02,0.34,0.03,0.51,0.05c1.57,0.35,3.14,0.69,4.71,1.03c0.14-0.6,0.3-0.67-0.03-1.26c0.33-0.75,0.83-1.43,0.54-2.33   c0.65,0.18,1.27,0.67,1.27-0.19c-0.07-0.41-0.13-0.83-0.2-1.24c-0.12,0-0.24,0-0.36,0c-0.39-0.49-2.52-2.06-2.51-2.51   c-0.16-0.94-0.31-1.88-0.47-2.82c0.66-1.29,2.43-2.63,1.72-4.33c0.25-0.68,0.92-1.08,0.72-1.79c0.12,0.06,0.24,0.12,0.36,0.18   c1.06-1.33,0.68-2.04,1.17-3.42c0.16-0.45,0.37-1.41,0.08-1.77c0.22-0.72,0.8-2.44,0.55-3.05c-0.23-0.53-0.88-1.68-1.45-1.78   c-0.06-0.24-0.12-0.48-0.18-0.72c0.77,0.72,2.3,0.84,2.68,1.79c0.16-0.2,0.32-0.4,0.48-0.6c0.33-0.52,1.72-2.09,0.78-2.62   c0.29-0.45,0.54-1.14,1.07-1.25c0.17-0.74,0.25-2.01,1.25-1.97c0.35-0.38,0.76-1.15,1.25-1.25c0.36-0.75,0.6-1.57,1.24-2.14   c0.26-0.15,0.53-0.3,0.79-0.45c0.13,0.32,0.27,0.63,0.4,0.95c-0.21,0.51-0.41,1.02-0.61,1.53c-0.66,0.18-1.83,1.76-1.47,2.43   c-0.24,0.06-0.48,0.12-0.72,0.18c-0.06,0.42-0.12,0.84-0.18,1.25c-0.27,1.43-1.25,2.7-1.43,4.29c0.19,0.16,1.32,0.83,1.18,0.97   c-0.39,0.33-0.79,0.67-1.18,1c0.16,0.26,0.22,0.49,0.54,0.54c-0.18,0.72-0.36,1.43-0.54,2.15c-0.04,0.83-0.08,1.66-0.12,2.48   c0.04,0.6,0.08,1.21,0.12,1.81c0.27,1.4,0.82,2.77,0,4.12c0.37,0.37,0.19,0.69,0.72,0.9c-0.1,1.08,0.22,2.07,0.72,3.04   c0.42,0.72,0.84,1.43,1.25,2.15c0.46,0.87,0.66,2.01,1.3,2.77c0.21,0.24,1.67,1.86,1.76,1.17c0.05-0.6,0.1-1.2,0.16-1.8   c0.12-0.36,0.24-0.72,0.36-1.07c0.59,0.64,1.18,1.29,1.77,1.93c0.96-0.26,2.09-0.26,2.14-1.48c0.07-0.15,0.14-0.3,0.21-0.45   c-0.22-0.44-1.82-2.19-1.01-2.39c0.28-0.1,0.56-0.19,0.83-0.29c-0.03,0.28-0.07,0.57-0.1,0.85c-0.05,0.07-0.1,0.13-0.15,0.2   c0.24-0.09,0.48-0.17,0.72-0.26c0.55,0.4,1.3,1.5,2.04,1.17c0.24,0.42,0.48,0.84,0.72,1.25c0.36-0.48,0.72-0.95,1.07-1.43   c0.83,0.66,1.59,1.21,1.64-0.11c0.2-0.78,0.4-1.57,0.6-2.35c-0.23-0.54-0.55-3.95-0.27-4.34c-0.11-0.5-0.46-1.5-0.03-1.67   c0.46-0.16,0.67-0.31,0.9,0.22c0.38,0.86,1.99,2.4,2,3.05c0.36,0.15,0.5,0.26,0.9,0.18c-0.02,0.05-0.03,0.11-0.05,0.16   c-0.22,0.78-0.44,1.56-0.67,2.34c0.24-0.06,0.48-0.12,0.72-0.18c0.06,0.86,0.87,2.68,1.79,2.33c0.22,0.4,0.44,0.6,0.36,1.07   c0.66,0.43,1.33,0.86,1.99,1.29c0.35,0.05,0.7,0.1,1.05,0.15c0.36,0.95,0.64,1.92,1.38,2.69c0.44,0.45,0.97,0.58,0.95,1.25   c0.42-0.1,0.7-0.07,0.96-0.46c0.19-0.32,0.4-0.69,0.11-0.97c0.24-0.12,0.48-0.24,0.72-0.36c0.07-0.34,0.06-0.53,0.36-0.72   c0-0.54,0-1.07,0-1.61c-0.35-0.49-0.58-1.52-1.07-1.79c0.12-0.04,0.25-0.09,0.37-0.13c0.45-0.14,0.45,0.35,0.65-0.24   c0.86-2.42,0.2-5.11-0.86-7.32c-0.06-0.66-0.11-1.32-0.17-1.97c0.06,0.11,0.12,0.23,0.18,0.34c0.17,0.3,0.24,0.36,0.18,0.73   c0.98,0.72,1.42,1.83,2.33,2.68c0.04-0.12,0.08-0.25,0.12-0.37c0.02-0.23,0.04-0.47,0.06-0.7c0.3-0.4,0.59-0.8,0.89-1.2   c0.42-0.56,0.84-1.11,1.26-1.67c-0.09,0.57-0.19,1.14-0.28,1.71c0.33,0.39,0.62,0.43,0.64,0.98c0.05-0.02,0.11-0.04,0.16-0.06   c0.24-0.1,0.49-0.2,0.73-0.3c-0.32,0.17-2.18,1.1-2.12,1.4c-0.1,0.77-0.64,2.76-0.03,3.25c-0.12,0.3-0.24,0.6-0.36,0.9   c0.03,0.44,0.19,0.98-0.18,1.25c0.12,0.48,0.24,0.95,0.36,1.43c-0.24,1.31-0.48,2.63-0.72,3.94c0.13,0.6,1.04,2.31,0.89,2.68   c0.27-0.09,0.54-0.17,0.81-0.26c0.22,0.26,0.48,0.44,0.45,0.79c1.4,1.15,2.77,1.17,4.47,1.25c0.48,0.02,2.13,0.62,2.38,0.06   c0.36-0.75,1.09-2.11,0.3-2.74c0.26-0.58,1.19-1.37,0.89-1.97c0.2,0.11,0.4,0.23,0.59,0.34c0.64,0.48,1.28,0.97,1.91,1.45   c0.14,0.23,0.27,0.47,0.41,0.7c0.28-0.05,0.56-0.11,0.84-0.16c0.12-0.19,0.24-0.39,0.36-0.58c0.45,0.06,1.06-0.74,1.1-0.5   c0.11,0.58-0.43,2.8,0.1,3.13c0.26,0.15,0.51,0.3,0.77,0.45c0.82-0.05,1-0.67,1.62,0.01c0.04-0.07,0.08-0.13,0.12-0.2   c0.38-0.65,0.77-1.3,1.15-1.95c0.07,0.46-0.04,0.99,0.34,1.26c-0.11,1.12-0.02,2.1,1.12,2.51c0.16,0.1,0.32,0.21,0.48,0.31   c0.3-0.05,0.6-0.09,0.91-0.14c0.1-0.15,0.47-0.93,0.58-0.58c0.07,0.52,0.15,1.03,0.22,1.55c0.28,0.24,0.41,0.67,0.64,0.5   c0.51-0.42,1.03-0.84,1.54-1.26c0.14,0.05,0.28,0.1,0.42,0.15c-0.01-0.05-0.02-0.1-0.03-0.15c-0.2-0.53-0.4-1.07-0.6-1.6   c0.21-0.33,0.24-0.4,0.63-0.4c0.19-0.27,1.49-2.45,1.65-1.81c0.11,0.24,0.21,0.49,0.32,0.73c-0.2,0.74-0.21,1.21-0.23,1.96   c-0.08,0.08-0.16,0.16-0.25,0.23c0,0.02,0.58,0.47,0.65,0.67c0.05-0.02,0.1-0.04,0.16-0.06c0.48-0.28,0.97-0.56,1.45-0.83   c1.59-0.34,3.04-0.08,4.45,0.72c0.56,0.32,1.12,0.55,1.39,1.17c0.2-0.04,0.41-0.07,0.61-0.11c-0.04,0.07-0.09,0.14-0.13,0.21   c-0.43,0.71-0.87,1.41-1.3,2.12c0.21,0.16,0.42,0.32,0.63,0.49c0.67-0.19,3-1.07,2.95-0.13c0.84-0.14,1.69-0.27,2.53-0.41   c0.82-0.07,2.06,0.56,2.77-0.04c0.92-0.78,1.42-1.69,2.39-2.23c0.17-0.39,0.69-1.85,0.81-1.58c0.3,0.65,0.49,0.39,0.3,1.16   c-0.35,1.22-0.55,2.6-1.64,3.46c-0.21,0.64-0.02,0.85-0.72,1.07c0.17,0.07,0.35,0.15,0.52,0.22c0.52,0.21,1.28,0.18,1.45,0.85   c1.15,0.38,2.37,0.43,3.58,0.36c0.39,0.5,0.82,0.88,1.43,1.07c0.52-0.23,0.35-0.47,1.06-0.26c0.48,0.22,0.96,0.45,1.44,0.67   c1.4,0.38,2.93-0.08,4.12-0.77c0-0.18,0-0.36,0-0.54c-0.17-0.42-0.35-0.83-0.52-1.25c0.03-0.27-0.04-0.94,0.33-0.86   c0.69,0.2,1.38,0.4,2.07,0.6c0.35-0.29,0.52-0.72,0.98-0.64c-0.02-0.06-0.04-0.12-0.06-0.18c-0.15-0.47-0.24-0.99-0.66-1.25   c-0.21-0.95-0.02-2.3-0.72-3.04c-0.09-0.5-0.03-1.24-0.36-1.61c0.02-0.24-0.01-1.4,0.3-1.16c1.04,0.84,0.8,1.21,1.49,2.41   c0.44,0.5,0.88,1,1.32,1.5c0.93,1.35,1.86,2.7,2.8,4.04c0.33,0.47,1.18,2.41,0.89,2.86c0.92-0.25,1.08-0.51,1.63,0.44   c0.77,1.37,1.54,2.74,2.32,4.1c1.14,1.41,2.61,2.03,2.85,4.05c1.11,1.22,2.45,2.25,3.38,3.67c1.02,0.56,2.04,1.13,3.06,1.69   c0.4,0.07,0.81,0.15,1.21,0.22c0.67-0.07,1.34-0.15,2.01-0.22c1.31,0.6,2.63,1.19,3.94,1.79c0.89,0,1.78-0.01,2.67-0.01   c0.75,0.02,3.23,0.69,3.34,1.1c0.08,0.41,0.17,0.82,0.25,1.24c0.54,0.36,1.07,0.72,1.61,1.07c0.67,0.3,1.33,0.6,2,0.9   c0.77,0.78,1.53,1.55,2.3,2.33c0.48,0.72,0.96,1.43,1.43,2.15c0.12,0.72,0.24,1.43,0.36,2.15c-0.07,0.44-0.14,0.74-0.54,0.9   c0.34,0.88-0.08,1.87,0.18,2.51c0.16-0.09,0.32-0.18,0.49-0.27c1.75-0.91,3.83-1.37,5-3.03c0.4-0.12,0.81-0.24,1.21-0.36   c0.72-0.72,1.16-1.52,2.18-1.86c0.02-0.19,0.04-0.38,0.07-0.56c0.21,0.13,0.41,0.26,0.62,0.39c0.33,0.19,0.7,0.44,0.99,0.15   c1.05,1.18,2.15,2.6,2.15,4.29c0.31,0.5,0.83,1.03,0.89,1.61c0.95,0.54,1.91,1.07,2.86,1.61c0.93,0.02,2.1-0.36,2.95-0.03   c0.9,0.38,1.8,0.75,2.7,1.13c0.38-0.01,0.76-0.02,1.15-0.03c0.42-0.36,0.83-0.72,1.25-1.07c0.35-0.24,0.89-0.33,1.07-0.72   c1.45-0.04,3.61,0.91,3.39-1.22c0.06-0.13,0.13-0.26,0.19-0.39c-0.73-1.93-1.78-3.94,0-5.73c0.78-0.44,2.51-0.94,2.57-1.81   c0.07-0.67,0.33-1.92-0.24-2.31c0.61-1.22,1.33-2.33,2.23-3.41c0.27-0.31,0.54-0.62,0.81-0.92c0.47-0.09,0.95-0.18,1.42-0.26   c0.44,0.24,0.87,0.48,1.31,0.72c0.41,0.54,0.67,1.16,1.4,1.19c0.19,0.37,0.54,1.05,1.05,0.83c1.26-0.51,2.81-1.18,3.79-2.08   c0.23-0.21,1-0.6,1.25-0.54c0.63-0.63,1.24-0.85,1.55-1.63c0.51-0.35,1.81-0.41,1.67-1.42c0.24-1.37,0.48-2.74,0.72-4.12   c-0.13-0.13-0.17,0-0.18-0.36c-0.04-1.33,0.03-2.5,0.42-3.75c0.28-0.54,0.56-1.08,0.83-1.62c1.09-0.6,2.3-1.66,2.57-2.93   c0.21-0.97-0.23-2.28-0.07-2.98c0.66-1.44,1.32-2.87,1.97-4.31c0.02-1.18-0.28-2.23-0.61-3.28c-0.23-0.73-0.48-1.47-0.65-2.26   c0.06-0.3,0.12-0.6,0.18-0.9c0.1,0.02,0.2,0.04,0.3,0.06c0.47,0.14,0.78,0.3,1.13,0.65c0.38,0.51,0,1.12-0.07,1.41   c0.49,0.67,1.92-1.23,1.86-0.34c0.12,0.78,0.24,1.55,0.36,2.33c-0.06,0.36-0.12,0.72-0.18,1.07c-0.33,0.78-0.65,1.55-0.98,2.33   c-0.33,0.42-0.66,0.84-0.99,1.25c-0.3,0.66-0.6,1.31-0.89,1.97c0,0.89-0.23,3.02-0.72,3.76c-0.66,0.99-2.15,2.12-2.15,3.4   c-0.42,0.48-0.84,0.95-1.25,1.43c-0.06,0.66-0.19,1.42,0,1.97c0.66,0.3,1.31,0.6,1.97,0.89c-0.42,0.36-0.84,0.72-1.25,1.07   c0,0.6,0,1.19,0,1.79c-0.22,0.8-0.92,1.69-0.72,2.51c-0.47,0.47-1.46,1.25-2.15,1.07c-0.32,0.38-0.64,0.76-0.96,1.15   c-1.06,0.38-2.38,1.9-3.52,1.9c-1.06,0.77-2.49,1.24-3.4,2.15c-0.38,0.02-1,0.24-1.26,0.03c-0.65-0.49-1.84-2.28-2.54-2.14   c-0.3-0.39-0.2-0.52-0.4-0.3c-0.39,0.32-0.78,0.65-1.16,0.97c-0.32,0.63-0.44,1.9-1.07,2.15c0.33,0.58,0.66,1.16,0.99,1.73   c-0.8,1.17-1.82,2.04-2.96,2.92c-0.62,0-1.4,0.2-1.55,0.73c-0.08,0.29-0.16,0.59-0.24,0.88c0.24,0.78,0.62,1.43,0.48,2.27   c0.08,0.08,0.16,0.16,0.23,0.24c0.06-0.06,0.12-0.12,0.18-0.18c0.21,0.7,0.42,1.4,0.63,2.1c-0.64,0.82-1.28,1.64-1.92,2.46   c-0.9,0.38-2.56,1-3.37,0.27c-0.86,0.32-1.61,0.74-2.51,0.84c-0.43,0.05-2.14,0.05-2.14,0.59c0.06,0.72,0.12,1.43,0.18,2.15   c0.4,1.52,1.75,2.7,1.03,4.36c-0.05,0.16-0.09,0.31-0.14,0.47c-0.39,0.39-2.15,1.52-2.15,1.97c0.28,0.21,1.98,1.54,1.22,1.64   c-0.43,0.05-1.55,0.19-1.72-0.04c-0.41-0.64-0.97-1.38-0.68-1.91c0.32-0.58,0.77-1.73,1.53-1.83c0.12-2.11,0.01-3.5-0.44-5.58   c-0.11-0.5,0.21-1.69-0.12-1.88c-0.13-0.04-0.25-0.09-0.37-0.13c0.01-0.22,0.03-0.43,0.04-0.65c-0.09,0.13-0.18,0.26-0.27,0.4   c-0.39,0.64-0.75,2.49-1.54,2.7c-0.72,0.19-2.12,0.1-2.48,0.66c-0.24-0.3-0.48-0.6-0.72-0.9c-0.3-0.88-0.55-1.95,0.18-2.68   c0.06-0.42,0.12-0.84,0.18-1.25c-2.08,0-2.79-2.62-3.88-3.99c-0.45-0.56-1.11-1.72-1.86-1.4c-1.92,0.86-3.73,1.79-5,3.6   c-0.06,0.3-0.12,0.6-0.18,0.9c-0.87,0.82-1.47,1.69-2.49,2.34c-0.46,0.29-2.54,2.19-3.02,1.86c-1.63-1.16-2.83-2.46-3.61-4.37   c0.8,0,2.1-1.63,2.16-2.33c0.13-1.47,0.15-1.65-0.73-2.86c-0.2-0.27-0.16-0.45,0-0.72c-0.35-0.36-0.71-0.73-1.06-1.09   c-0.39-0.37-1.66-1.07-2.16-0.88c-0.51-0.79-1.01-1.58-1.52-2.37c-0.18-0.48-0.36-0.97-0.54-1.45c-1.15-0.68-1.12-0.07-2.24-0.13   c-1.25-0.19-2.51-0.39-3.76-0.58c-0.59-0.01-1.27,0.18-1.6-0.31c-0.17,0.19-0.34,0.38-0.5,0.56c-0.73,1.11-1.47,2.23-2.2,3.34   c-0.22,0.14-0.44,0.27-0.66,0.41c-0.01,0.17-0.02,0.35-0.03,0.52c-0.05-0.02-0.1-0.05-0.16-0.07c-1.3-0.63-0.76-2.65-1.45-3.86   c-0.72-0.24-1.43-0.48-2.15-0.72c-0.84-0.17-2.35-0.15-2.94-0.81c-0.68-0.99-1.36-1.98-2.05-2.97c-0.3-0.4-0.39-0.87-0.92-0.87   c-0.47,0-0.63-0.06-0.9,0.36c0-0.06-0.01-0.13-0.01-0.2c0-1.08-0.24-2.04-1.42-2.67c-0.48-0.07-2.68-0.53-2.68-0.89   c-0.5-0.03-1.51,0.16-1.87-0.27c-0.15-0.27-0.31-0.53-0.46-0.8c0.31-0.25,1.07-0.67,1.07-1.07c-0.09-0.46-0.18-0.91-0.27-1.36   c-0.51-0.32-1.01-0.65-1.52-0.97c0-0.95-0.01-1.91-0.01-2.86c0.01-0.28,0.15-0.91-0.17-0.88c-0.95,0.05-1.91,0.11-2.86,0.16   c-0.95,0.6-1.91,1.19-2.86,1.79c-0.03,0.41,0.28,1.14-0.18,1.03c-0.59-0.14-2.05-0.64-2.51-0.31c-0.74-0.74-0.63-1.3-1.63-1.55   c-0.41-0.08-0.82-0.16-1.23-0.24c-0.39-0.39-1.11-0.55-1.04,0.17c-0.01,0.24-0.02,0.48-0.03,0.72c0.18,0.3,0.36,0.6,0.54,0.89   c-0.06,0.72-0.12,1.43-0.18,2.15c0.83,0.48,0.71,0.69,1.29,1.31c0.03,0.17,0.06,0.34,0.1,0.51c0.26,0.42,0.26,0.56,0.77,0.69   c-0.06,0.06-0.12,0.12-0.18,0.18c-0.66,0.63-1.44,1.28-1.9,2.18c-0.2,0.53-0.41,1.05-0.61,1.58c0-0.89-0.73-1.21-1.23-1.8   c-0.45-0.42-0.9-0.83-1.35-1.25c-0.27-0.65-0.55-1.31-0.82-1.96c-0.18-0.36-0.36-0.72-0.54-1.07c-0.24-0.14-0.48-0.27-0.73-0.41   c-0.07-0.47,0.05-0.72-0.35-1.02c0.14-0.35,0.67-1.18,0.34-1.38c-0.9-0.49-3.45,0.01-3.92-0.59c-1.25,0.17-2.1,0.46-2.47-0.91   c0.11-0.17,0.21-0.35,0.32-0.52c-0.15-0.44-0.58-1.18-0.36-1.61c-0.25-0.28-0.5-0.56-0.75-0.84c-0.11,0.22-0.22,0.44-0.32,0.67   c0.03,0.21,0.06,0.42,0.09,0.64c-0.32,0.4-2.43,2.01-2.63,0.8c-0.1-0.72,0.11-2.37-0.49-2.7c-0.78-0.47-1.56-0.95-2.34-1.42   c-0.78,0-1.55,0-2.33,0c0-0.24-0.1-0.54-0.36-0.52c-0.41,0.05-0.43,0.17-0.72-0.2c-0.6,0.3-1.19,0.6-1.79,0.9   c0,0.29,0,0.59-0.01,0.88c0.02,0.59,1.51,1.49,0.77,1.72c-0.41,0.13-0.69,0.33-1.12,0.26c-0.68-0.32-0.76-1.27-1.62-1.27   c-0.14,0.06-0.27,0.12-0.41,0.17c-0.35,0.94-0.15,1.68-0.92,2.4c0.03,0.1,0.05,0.2,0.08,0.3c-0.04-0.1-0.09-0.2-0.13-0.3   c-0.29-0.59-0.98-1.83-1.63-0.93c-1.03,1.48-2.44,2.7-3.25,4.27c-0.27,0.52-0.85,0.68-0.99,1.27c-0.02,0.37-0.03,0.75-0.05,1.12   c0.53,0.58,1.05,1.15,1.58,1.73c-0.9,0.8-1.57,1.25-1.25,2.51c-0.21-0.67-0.42-1.34-0.63-2.01c-0.2-0.35-0.67-0.65-0.62-1.03   c-0.86-0.19-2-0.35-2.22-1.39c0.2-0.6-0.4-0.87-0.08-1.64c0.8-1.78,1.31-3.49,2.66-5.02c0.94-1.07,2.43-0.98,2.86-2.51   c0.58-0.2,0.67-0.38,0.67-1.01c-0.04-0.11-0.07-0.23-0.11-0.34c-0.13,0.03-0.25,0.07-0.38,0.1c-0.29-0.3-0.58-0.59-0.87-0.89   c-0.19-1.26-1.67-2.32-2.89-2.15c-0.55-0.21-1.1-0.42-1.64-0.63c-0.47,0.03-0.93,0.06-1.4,0.1c-0.63-0.18-1.18-0.92-1.63-0.76   c-0.34,0.12-0.73,0.37-1.06,0.22c-0.58,0.72-1.01,0.9-1.97,0.9c-0.64,0.51-1.27,1.43-1.97,1.43c0-0.33-0.41-1.61-0.54-1.61   c-0.48,0.24-0.95,0.48-1.43,0.72c-0.4-0.3-0.43-0.66-0.83-0.3c-0.14,0.16-0.28,0.32-0.42,0.48c0.36,0.42,0.72,0.83,1.07,1.25   c-0.68,0.09-2.01,0.03-2.33,0.36c-0.02-0.07-0.04-0.15-0.07-0.22c-0.12-0.47-0.75-2.41-1.17-2.51c-0.36-0.09-0.72-0.19-1.08-0.28   c-0.49,0.14-1.03,0.18-1.34,0.62c-0.48,0.76-0.94,1.31-1.17,2.21c0.43,0.65,0.62,1.26,1.25,1.79c-0.35,0.31-0.41,0.69,0,0.89   c0.12,0.55,0.24,1.85-0.54,1.07c-0.3-0.3-1.16,0-1.3-0.53c-0.22-0.48-0.45-0.96-0.67-1.44c-0.39-0.82,0.38-1.94-0.64-2.37   c-0.4-0.18-0.46-0.02-0.61-0.49c-0.48,0.12-0.95,0.24-1.43,0.36c0.05-0.41,0.29-2.68-0.36-2.68c-0.37,0.2-0.3,0.27-0.72,0   c-0.1,0.27-0.24,1.12-0.51,1.01c-0.37-0.16-0.8-0.25-0.92-0.65c-0.12,0.12-0.24,0.24-0.36,0.36c-0.49-0.36-0.95-0.59-1.62-0.56   c-0.22,0.01-1.06-0.06-0.8,0.33c0.5,0.71,1.84,2.05,1.63,2.88c-0.07,0.29-0.08,0.6-0.45,0.56c-0.41-0.03-0.43-0.14-0.73,0.2   c-0.59-1.1-0.4-0.34-1.07-0.9c-0.53,0.27-1.93,0.82-1.74,1.63c0.25,1.25,0.51,2.49,0.76,3.74c0.09,0.46,0.29,1.44-0.25,1.06   c-0.13,0.01-0.25,0.01-0.37,0.02c-0.83-1.13-1.67-2.27-2.51-3.4c0.04-1.17-0.16-0.87-0.5-1.8c-0.01-0.53-0.02-1.07-0.03-1.6   c-0.69-0.38-1.17-0.6-1.93-0.41c-0.41,0.13-0.38,0.22-0.75-0.13c-0.36,0.42-0.72,0.83-1.07,1.25c-0.55-0.15-1.09-0.3-1.64-0.45   c-0.38,1.25,0.32,2.73,1.1,3.67c0.19,0.23,0.79,1.01,0.62,1.16c-0.26,0.21-0.53,0.42-0.79,0.63c-0.3-0.12-0.6-0.24-0.9-0.36   c-0.6,0-1.19,0-1.79,0c-0.92,0.31-2.68,0.59-3.38-0.17c-0.36-0.42-1.95-2.91-2.52-2.33c-0.27,0.15-0.72,0.21-0.72,0.37   c0.06,0.18,0.12,0.35,0.18,0.53c-0.3,0.78-0.6,1.55-0.89,2.33c-0.03,0.19-0.05,0.39-0.08,0.58c-0.86,0.43-1.95,0.82-2.8,0.78   c-0.41-0.02-0.82-0.04-1.23-0.06c-0.08,1.18,0.85,1.73,1.06,2.81c-0.17-0.03-0.35-0.05-0.53-0.08c-0.39-0.06-1.31-0.15-1.62,0.08   c-0.2-0.22-0.4-0.43-0.6-0.65c0.01-0.12,0.02-0.23,0.02-0.35c-0.78,1.65-1.39,5.12-1.39,7.08c-0.53,0-0.78,0.54-1.25,0.54   c-0.06-0.3-0.13-0.59-0.2-0.89c-0.06-0.58,0.11-0.7-0.52-0.9c0.59-0.67,1.53-1.38,0.36-1.61c-0.46-0.05-0.65,0.08-0.89-0.36   c-0.25,0.13-1.15,0.65-1.17,0.62c-0.62-0.62-0.87-0.46-0.58-1.26c0.15-0.34,0.2-0.27-0.03-0.61c0.42-0.42,1.72-1.34,1.25-1.97   c-0.2-0.3-0.4-0.6-0.6-0.9c-0.64,0.12-1.27,0.24-1.91,0.36c-0.17-0.28-0.39-1.07-0.72-1.07c-1,0-1.76,1.28-2.68,0.36   c-0.18-0.48-0.36-0.95-0.54-1.43c-0.21-0.03-0.43-0.07-0.64-0.1c-0.32-0.26-0.65-0.53-0.97-0.79c0.09,0.49,0.17,0.99,0.26,1.48   c-0.39,0.19-0.93,0.47-1.33,0.31c-0.76,0.76-1.68,1.38-2.68,1.77c-0.12-0.11-0.24-0.22-0.36-0.34c-0.19,0.34-0.37,0.68-0.56,1.02   c-0.18-0.16-0.36-0.32-0.54-0.49c-0.09-0.5,0.16-2.08-0.19-2.25c-0.45-0.22-1.92-1.1-2.23-0.88c-0.44,0.33-0.88,0.66-1.31,0.99   c-0.02,0.5-0.09,1.68-0.72,1.79c-0.42,0.78-0.84,1.55-1.25,2.33c-0.52,0.03-0.91,0.24-1.25-0.18c-0.38,0.37-1.38,0.96-0.7,1.22   c1.13,0.61,2.26,1.21,3.39,1.82c0,0.24,0,0.48,0,0.72c-0.47,0.87-1.69,1.89-0.72,2.86c-0.42,0.54-0.83,1.07-1.25,1.61   c0.3,0.3,0.6,0.6,0.89,0.9c-0.01,0.37-0.26,0.34-0.08,0.75c0.12,0.38,0.24,0.76,0.36,1.14c-0.29,0.4-1.35,1.58-1.38,1.56   c-0.79-0.46-1.37-0.35-2.24-0.5c-0.31-0.09-0.63-0.17-0.95-0.26c-0.38-0.02-1.01,0.28-1.12-0.22c-0.22-0.64-0.44-1.28-0.67-1.92   c-0.1-1.67-0.03-2.34,0.54-3.94c-0.5-0.21-0.92-0.53-1.43-0.36c-0.02-0.07-0.04-0.15-0.06-0.22c-0.17-0.84-0.3-1.53-0.3-2.46   c-0.42-0.41-0.69-0.97-1.25-0.72c-0.1-0.62-0.53-1.52-0.2-2.06c0.46-0.68,1.18-1.07,1.63-1.7c0.41-0.57,0.78-1.86,1.6-2   c0.67-0.07,2.67,0.05,3.05-0.33c0.04-0.44-0.18-1.76,0.17-1.82c0.88-0.15,1.01,0.2,1.73,0.16c0.31,0.23,0.25-1.04,0.25-1.2   c-0.43-0.33-2.51-1.78-2.51-2.15c0-0.42,0.1-0.92-0.18-1.25c0.06-0.54,0.12-1.07,0.18-1.61c-0.11-0.04-0.21-0.07-0.32-0.11   c-0.69-0.23-2.43-0.97-2.9-0.25c-1.3-0.34-2.78-0.18-4.12-0.18c0.04-0.16,0.09-0.32,0.13-0.48c-0.12-0.49-1.66-3-1.92-3.1   c-0.09-0.41-0.18-0.82-0.26-1.24c-0.17-0.4-0.51-1.45-0.99-1.45c-0.66,0-1.31,0-1.97,0c-0.42,0.42-1.56,0.83-1.61,1.43   c-0.69-0.22-2.24-0.64-2.45,0.01c-0.08,0.23-0.15,0.47-0.23,0.7c-0.08,0.59,0.55,1.76,0.09,2.24c-0.47,0.61-0.72,1.25-1.52,0.98   c-0.07,0.12-0.13,0.23-0.2,0.35c0.01,0.06,0.01,0.12,0.02,0.18c0.05-1.51,0.4-2.88-0.36-4.29c-0.12,0-0.24,0-0.36,0   c-0.37,0.85-0.75,1.66-1.61,2.15c-0.18-0.3-0.36-0.6-0.54-0.89c-0.19-0.73-0.77-2.05-0.54-2.68c-0.24,0.1-0.48,0.19-0.72,0.29   c-0.83,0.56-1.67,1.12-2.5,1.68c-0.62,0-3.57,0.77-3.34,0.45c0.16-0.21,0.32-0.42,0.48-0.63c0.69-0.3,0.94-0.31,1.05-1.1   c0.11-0.91,0.22-1.82,0.32-2.73c-0.42-0.48-1.25-0.45-1.34-1.06c-0.08-0.73-0.09-1.52,0.32-2.09c-0.3-0.36-0.6-0.72-0.9-1.07   c-0.6-0.72-0.37-1.43-1.25-1.97c-0.21-0.56-0.01-1.77-0.55-1.87c-0.35-0.09-0.71-0.18-1.06-0.27c0-1.29-1.54-2.85-1.61-4.47   c-0.6-0.6-1-1.01-0.82-1.88c-0.02-0.15-0.05-0.29-0.07-0.44c0.35-0.2,0.7-0.4,1.05-0.6c-0.5-0.25-0.32-1.15-0.51-1.72   c-0.19-0.41-0.37-0.83-0.56-1.24c0.12-0.99-0.12-3-1.23-3.41c0-0.52,0.08-1.17-0.17-1.62c-1.13-2.03-3.29-4.08-3.23-6.62   c-0.63-0.85-1.08-1.14-1.97-1.62c-0.38-0.22-0.76-0.43-1.14-0.65c0.68,0.35,1.79,1.28,2.57,1.02c0.6,0.6,1.19,1.19,1.79,1.79   c0.58,1.2,1.94,2.74,1.79,4.12c0.81,1.03,1.63,2.07,2.44,3.1c0.76,1.12,0.42,4.29,1.49,4.95c-0.6,0.6-0.47,0.97,0.18,1.61   c0,0.45-0.3,0.48,0,0.89c-0.55,0.22-0.95,0.18-0.81,0.82c0.4,1.33,0.81,2.4,0.81,3.84c0.33,0.25,0.65,0.51,0.98,0.76   c0.46,0.32,2.42,0.49,2.42,1.21c-0.06,0.54-0.12,1.07-0.18,1.61c0.21,0.39,0.27,0.75,0.72,0.9c-0.38,0.76,0.39,1.17,0.72,1.78   c0.18,0.33,0.52,1.41,0.88,1.47c0.35,0.05,0.28,0.12,0.55-0.21c0.48,0.3,0.95,0.6,1.43,0.9c0.48-0.22,1.91-0.94,2.65-0.88   c0.65,0.1,1.29,0.4,1.71,0.91c0.24,0.31-0.45,2.03,0.27,1.69c0.33-0.15,0.73-0.1,0.84-0.32c0.29-0.59,1.19-2.77,1.86-2.85   c1.05-0.1,2.36-0.31,3.38,0.08c0.43,0.14,0.85,0.28,1.28,0.43c-0.3-1.27-0.87-2.32-0.01-3.52c0.78,0.27,1.57,0.55,2.35,0.82   c0.06-0.49,0.11-0.97,0.17-1.46c-0.18-0.03-0.37-0.05-0.55-0.08c0.01-0.38,0.08-0.25-0.36-0.54c0.34-0.13,0.71-0.16,0.55-0.6   c-0.81-0.98-1.61-1.95-2.42-2.92c0.69,0.35,2.85,1.64,3.56,1.23c1.17-0.75,1.47-1.94,2.42-2.89c0.34-0.34,1.86-0.48,1.25-1.07   c0.42-0.07,0.84-0.15,1.25-0.22c-0.12-0.87-0.23-1.74-0.35-2.61c-0.06-0.27-0.31-0.84-0.06-1.01c0.37-0.24,0.23-0.29,0.77-0.09   c0.12-0.48,0.24-0.95,0.36-1.43c0.3,0.06,0.6,0.12,0.89,0.18c-0.06-0.6-0.12-1.19-0.18-1.79c0.32,0,1.46,0.72,1.42-0.01   c-0.16-0.73-0.33-1.47-0.49-2.2c0.69-0.28,1.12-0.15,1.31-0.96c0.56-1.46,1.8-4.08,0.86-5.51c-0.3-0.4-0.94-1.34-1.49-1.34   c-0.71,0-1.8,0.01-2.33,0.54c-0.13-0.08-0.27-0.16-0.4-0.23c-1.22-1.22-3.03-2.65-4.61-3.34c-0.57-0.25-3.76-0.82-4.29-0.54   c-0.72-0.18-1.43-0.36-2.15-0.54c-0.42-0.3-0.84-0.6-1.25-0.89c-0.78-0.6-1.55-1.19-2.33-1.79c-0.36-0.6-0.72-1.19-1.07-1.79   c-0.24-0.9-0.48-1.79-0.72-2.68c-0.48-0.18-0.95-0.36-1.43-0.54c-0.34-0.46-0.64-1.07-0.66-1.64c-0.11-0.01-0.23-0.01-0.34-0.02   c0.48,0.71,1.39,2.57,2.43,2.2c1.19,1.19,3.54,2.84,5.19,3.22c0.6,0.12,1.19,0.24,1.79,0.36c1.38-0.37,2.63-0.61,3.94-1.19   c0.5-0.22,1.18-0.28,1.43-0.78c0.32,0.04,1.84,0.1,1.29-0.51c-0.07-0.19-0.15-0.37-0.22-0.56c-1.06-0.85-2.22-1.63-2.51-3.04   c-0.52-0.28-1.03-0.57-1.55-0.85c0.34-0.31,0.67-0.63,1.01-0.94c0.16-0.63,0.98-3.74,0.89-4.12c0.42,0.21,0.68,0.55,0.8-0.01   c0.27-1.31,0.54-2.62,0.81-3.93c-0.12-0.42-0.24-0.83-0.36-1.25c0-0.36,0-0.72,0-1.07c-0.3-0.67-0.61-1.33-0.91-2   c0.13-0.11,0.25-0.22,0.37-0.33c-0.06-0.78-0.12-1.55-0.18-2.33c0.06-0.72,0.12-1.43,0.18-2.15c-0.18-0.3-0.36-0.6-0.54-0.89   c0.98-1.22,1.67-3.63,0.58-4.9c-0.85-0.93-1.7-1.86-2.55-2.8c0.17-0.49,0.33-0.98,0.5-1.47c-0.3-0.69-0.82-3.88-0.5-4.43   c-0.54-0.83-1.07-1.67-1.61-2.51c0.21-1.3,0.43-2.59,0.64-3.89c-1.12-2.1-2.66-3.32-4.76-4.34c-0.55-0.5-1.1-1-1.64-1.49   c-1-0.1-2.01-0.2-3.01-0.3c-0.48,0-0.95,0-1.43,0c-2.09,0.24-4.18,0.48-6.26,0.72c-0.76,0.29-3.03,1.14-3.76,0.89   c-0.54,0.24-1.07,0.48-1.61,0.72c-0.75,0.14-1.76,0.15-2.33,0.72c-0.3-0.21-0.53-0.45-0.89-0.36c-0.78-0.6-1.55-1.19-2.33-1.79   c-0.48-0.17-0.99-0.2-1.25,0.18c-0.08-0.11-0.16-0.22-0.25-0.33c-0.8-1.09-1.07-2.46-2.07-3.41c-0.29-0.27-0.75-0.89-1.08-0.55   c0.12-0.12,0.23-0.23,0.35-0.35C3.54,170.44,3.82,169.8,4.04,170.01z"/>
        <path fill-rule="evenodd" clip-rule="evenodd" fill="none" stroke="#000000" stroke-width="0.25" stroke-miterlimit="10" d="   M450.97,62.27c4.19-3.69,10.65-3.35,15.56-5.19c3.26-1.22,6.4-0.77,9.86-0.9c3.09-0.12,6.11-0.54,9.31-0.54   c2.82,0,4.7-0.97,7.34-1.07c2.3-0.09,4.61,0.18,6.98,0.18"/>
        <path fill-rule="evenodd" clip-rule="evenodd" fill="none" stroke="#000000" stroke-width="0.25" stroke-miterlimit="10" d="   M351.82,199.52c2.06-0.3,2.28,1.37,3.9,2.02c1.57,0.63,2.24-0.64,3.62-0.9c2.68-0.51,5.52,1.59,8.41,0.28   c2.47-1.12,4.86-2.84,7.37-4.03c2.76-1.31,5.89-2.28,8.52-4.02c1.57-1.04,0.87-1.33,1.29-2.64c0.49-1.54,0.57-1.18,2.15-1.48   c1.04-0.2,2.19-0.16,3.23-0.45c1.09-0.31,1.89-1.2,3.01-1.33c1.28-2.56,1.27-4.69,4.14-6.2c2.37-1.25,4.85-1.93,7.52-2.37   c3.42-0.56,4.9-2,7.74-3.7c2.55-1.53,5.37-1.76,8.2-2.19c2.85-0.43,5.06-1.45,7.73-2.29c1.37-0.43,3.34-0.89,4.8-0.76   c1.73,0.16,2.44,1.06,3.79,1.93c1,0.64,2.38,1.11,3.14,2.23c0.63,0.93,0.82,2.44,1.3,3.52c1.03,2.3,1.98,4.74,2.86,7.17   c1.92,5.29-2.62,11.36-5.23,15.7c-2.73,4.52-7.32,9.57-7.65,15.08c-0.05,0.89,0.15,1.7-0.51,2.18c-0.12,0.64-0.01,1.33,0.15,1.94"/>
        <path fill-rule="evenodd" clip-rule="evenodd" fill="none" stroke="#000000" stroke-width="0.25" stroke-miterlimit="10" d="   M0.54,195.41c2.35,2.14,5.15,3.24,7.31,5.77c1.69,1.98,3.56,4.11,5.43,6.04c1.94,1.99,3.65,3.93,5.91,5.68   c1.57,1.22,4.78,4.63,4.98,6.66c0.04,0.44,0.06,0.38,0.28,0.72c-0.98,0.81-2.31,1.19-3.33,1.97c-1.16,0.89-2.15,1.95-3.4,2.86   c-2.64,1.94-5.31,3.73-7.57,6.04c-1.88,1.92-3.82,3.09-5.19,5.19c-1.5,2.3-2.42,4.66-3.57,7.16c-0.45,0.98-0.96,1.89-1.39,2.72"/>
        <text transform="matrix(1 0 0 1 224.0508 27.1899)" font-family="'MyriadPro-Regular'" font-size="8.5898">ERZİNCAN</text>
        <text transform="matrix(1 0 0 1 78.3813 308.686)" font-family="'MyriadPro-Regular'" font-size="8.5898">ELAZIĞ</text>
        <text transform="matrix(0.4938 -0.8696 0.8696 0.4938 361.4644 307.9292)" font-family="'MyriadPro-Regular'" font-size="8.5898">ELAZIĞ</text>
        <text transform="matrix(0.556 -0.8312 0.8312 0.556 457.999 140.7373)" font-family="'MyriadPro-Regular'" font-size="8.5898">BİNGÖL</text>
    </g>
    <g id="__Harita" display="none">
        <rect id="__cer" x="0" y="0" fill="#000000" opacity="0" width="500" height="350"/>
        <g id="__Pülümür">
            <path d="    M379.73,125.25c2.07,0.55,3.69,1.57,5.58,2.54c0.95,0.44,1.9,0.88,2.85,1.31c1.19,0.42,2.39,0.84,3.58,1.25    c2.45,0.06,4.89,0.12,7.34,0.18c1.53-0.65,2.8-1.66,4.26-2.4c4.22-2.14,8.15-4.49,12.12-7.1c1.82-1.19,3.63-2.38,5.45-3.56    c1.01-0.83,2.03-1.67,3.04-2.51c1.16-1.2,2.32-2.4,3.48-3.6c0.69-0.65,1.38-1.3,2.06-1.95c2.09-3.28,4.18-6.56,6.26-9.84    c1.09-1.36,1.37-3.21,3.22-3.58c0-0.5,0.19-1.11-0.18-1.43c0.72-1.19,1.43-2.39,2.15-3.58c0.42-1.13,0.84-2.27,1.25-3.4    c0.31-2.04,0.19-3.17-0.36-5.19c-0.32-0.67-0.64-1.34-0.96-2.01c-0.64-1.6-1.47-5.29-0.78-6.88c0.9-2.1,2.14-3.96,3.71-5.6    c0.78-0.89,1.55-1.79,2.33-2.68c0.34-0.42,0.68-0.84,1.02-1.25c0.83-0.78,2.87-1.1,3.19-1.82c0.45-1.42,0.89-2.84,1.34-4.27    c1.79-1.53,3.69-2.59,5.88-3.46c0.67-0.28,1.33-0.56,2-0.83c1.36-0.79,2.73-1.58,4.09-2.38c0.9-0.64,1.8-1.28,2.71-1.92    c0.56-0.59,1.11-1.17,1.67-1.76c2.91-2.46,3.98-6.44,2.44-10.05c-1.6-3.77-7.64-4.66-11.26-4.38c-4.05,0.32-8.16,1.15-11.83,2.77    c-2.14,0.55-4.28,1.11-6.43,1.66c-1.68,0.58-3.35,1.16-5.03,1.74c-1.37,0.02-2.74,0.04-4.11,0.07c-1.02-0.08-2.03-0.16-3.05-0.25    c-0.59,0.03-1.17,0.06-1.76,0.1c-3.45-0.32-6.91-0.65-10.36-0.97c-1.32-0.18-2.64-0.37-3.95-0.55c-0.79-0.23-1.17-0.74-2-0.73    c-0.46,0.01-1.37,0.15-1.61,0.54c-1.57-0.13-3.12,0.33-4.65,0.54c-1.91,0.6-3.82,1.19-5.73,1.79c-2.21,0.66-4.41,1.31-6.62,1.97    c-4.04,0.63-7.67,2.03-11.87,1.64c-2.2-0.2-4.95-2.15-7.1-2.9c-0.66-0.34-1.32-0.67-1.98-1.01c-1.25-0.02-2.5-0.04-3.75-0.07    c-1.78-0.4-3.73-0.74-5.55-0.54c-0.6,0-1.19,0-1.79,0c-0.45-0.07-1.24-0.39-1.61-0.18c-1.2-0.4-2.4-0.81-3.6-1.21    c-1.19-0.25-2.38-0.5-3.56-0.75c-0.26,0.03-0.52,0.06-0.78,0.09c-1.12-0.32-2.15-0.78-3.15-1.34c-1.02-0.17-2.04-0.34-3.05-0.51    c-1.16-0.25-2.62-0.62-3.75-0.02c-0.34-0.34-0.99-0.68-1.43-0.54c-1.24-1.28-2.64-1.78-4.29-2.33c-1.13-0.48-2.27-0.95-3.4-1.43    c-2.04-0.57-4.08-1.14-6.12-1.71c-1.12-0.09-2.24-0.17-3.37-0.26c0.07-0.29,0.3-0.67-0.01-0.8c-1.46-0.62-6.02-0.66-7.15,0.44    c-0.6,0.66-1.19,1.32-1.79,1.97c-0.88,1.05-0.85,3.69-0.91,5c-0.21,4.36,0.42,8.78,0.86,13.04c0.19,1.86,0.23,6.24-0.92,7.62    c-2.17,2.45-5.16,3.99-8.16,5.49c-0.96,0.42-1.92,0.85-2.89,1.27c-2.38,1.59-5.34,2.69-8.01,3.65c-0.78,0.27-1.57,0.54-2.35,0.81    c-2.74,1.07-5.49,2.15-8.23,3.22c-2.2,0.89-5.46,0.55-7.87,0.51c-1.05-0.02-2.47-0.46-2.62,0.74c-0.05,1.12-0.1,2.24-0.16,3.36    c-0.3,2.53-0.92,5.03-0.92,7.53c0.05,0.53,0.1,1.07,0.15,1.6c0.31,0.44,0.49,2.66,0.15,3.08c0.72,1.73,1.43,3.46,2.15,5.19    c0.23,0.48,0.47,0.95,0.7,1.43c0.79,2.66,2.12,5.03,2.84,7.7c0.91,1.61,1.82,3.23,2.72,4.84c0.54,0.78,1.07,1.55,1.61,2.33    c0.48,0.42,0.95,0.84,1.43,1.25c0.81,0.06,1.61,0.12,2.42,0.18c0.81,0.06,1.61,0.12,2.42,0.18c0.57-0.03,1.29,0.28,1.79,0    c1.01,0.24,2.03,0.48,3.04,0.72c0.6,0.24,1.19,0.48,1.79,0.72c1.37,0.3,2.74,0.6,4.12,0.89c0.8,0,3.38,0.05,3.94-0.36    c0.72,0.24,1.43,0.48,2.15,0.72c0.6,0.06,1.19,0.12,1.79,0.18c1.5,0.37,2.94,0.79,4.47,1.07c1.44,0.27,4.12,0.21,5.37-0.54    c0.56-0.34,1.81-1.73,2.52-1.32c2.28,1.4,2.82,4.69,5.69,5.58c2.08,0.65,4.08,1.33,6.29,1.47c0.9-0.12,1.79-0.24,2.68-0.36    c1.31,0.06,2.62,0.12,3.94,0.18c2.27,0.24,4.53,0.48,6.8,0.72c1.55-0.06,3.1-0.12,4.65-0.18c2.03,0.06,4.06,0.12,6.09,0.18    c0.78-0.18,1.55-0.37,2.33-0.55c1.37-0.11,2.74-0.23,4.11-0.34c0.88,0.01,1.76,0.01,2.65,0.02c0.25-0.06,0.5-0.13,0.75-0.2    c1.32,0.21,2.63,0.41,3.95,0.62c2.39,0.31,5.13,0.51,7.29,1.58c1.72,0.85,2.25,0.96,3.61,2.46c0.08,0.39,0.28,1.79,0.72,1.79    c-0.12-0.06-0.24-0.12-0.36-0.18C379.62,125.2,379.67,125.22,379.73,125.25z"/>
            <circle cx="342.16" cy="69.25" r="1.586"/>
        </g>
        <g id="__Ovacık">
            <path d="    M194.7,153.61c1.73-0.03,3.53,0.03,5.19-0.52c0.68-0.46,1.36-0.91,2.05-1.37c0.87-0.97,1.74-1.95,2.61-2.92    c1.14-0.86,2.64-0.95,3.94-1.43c0.96-0.4,1.92-0.8,2.89-1.2c1.3-0.32,2.61-0.63,3.91-0.95c1.91,0.24,3.82,0.48,5.73,0.72    c0.1-0.3,2.54-1.52,3.04-1.79c0.89-0.83,1.79-1.67,2.68-2.51c2.48-2.37,5.33-3.92,8.59-5.01c1.43-0.72,2.86-1.43,4.29-2.15    c1.19-0.83,2.39-1.67,3.58-2.51c0.83-0.3,1.67-0.6,2.51-0.89c1.24-1,2.4-1.56,3.94-1.97c0.63-0.84,3.22-1.66,4.29-1.97    c0.6-0.3,1.19-0.6,1.79-0.9c0.59-0.43,1.18-0.86,1.77-1.3c2.11-0.87,4.21-1.84,5.93-3.36c0.48-0.18,0.95-0.36,1.43-0.54    c1.69-0.4,3.11-1.43,4.46-2.53c0.48-0.39,1.21-0.33,1.62-0.95c1.53-0.8,3.06-1.61,4.59-2.41c0.5-0.36,1.01-0.73,1.51-1.09    c2.09-0.94,6.01-1.73,6.92-3.99c0,0-0.56-0.06-1.37-0.12c-0.48-0.42-0.95-0.84-1.43-1.25c-0.54-0.78-1.07-1.55-1.61-2.33    c-0.91-1.61-1.82-3.23-2.72-4.84c-0.72-2.67-2.05-5.03-2.84-7.7c-0.23-0.48-0.47-0.95-0.7-1.43c-0.72-1.73-1.43-3.46-2.15-5.19    c0.33-0.42,0.16-2.64-0.15-3.08c-0.05-0.53-0.1-1.07-0.15-1.6c0-2.5,0.62-5,0.92-7.53c0.05-1.12,0.1-2.24,0.16-3.36l-1.01-1.19    c-4.1-2.17-8.2-4.34-12.3-6.5c-1.19-0.48-2.39-0.95-3.58-1.43c-2.07-0.21-4.14-0.41-6.21-0.62c-2.11,0.27-4.21,0.53-6.32,0.8    c-1.13,0.32-2.25,0.65-3.38,0.97c-2.1,0.62-4.12,1.21-6.29,1.54c-6.6,1-13.23-0.07-19.64,2.23c-4.08,1.6-8.16,3.21-12.24,4.81    c-0.46,0.23-1.65,0.67-2.13,0.47c-0.46,0.58-1.55,1.19-2.15,0.36c-1.05,1.16-0.94,1.43-2.51,1.43c-0.64,0.5-1.2,0.9-2,1.1    c-2.67,0.47-5.35,0.94-8.02,1.4c-0.56-0.56-1.49-0.16-2.14-0.24c-2.21-0.16-4.42-0.32-6.63-0.48c-3.34,0.12-6.68,0.24-10.02,0.36    c-2.98-0.3-5.97-0.6-8.95-0.9c-1.13-0.06-2.27-0.12-3.4-0.18c-1.85-0.31-3.7-0.62-5.55-0.93c-1.01-0.11-2.03-0.22-3.04-0.32    c-3.16,0.35-6.33,0.69-9.49,1.04c-0.59,0.13-1.19,0.26-1.78,0.39c-0.56,0.16-1,0.84-1.61,0.72c-1.1,0.66-2.18,1.3-3.04,2.28    c-0.48,0.49-0.95,0.99-1.43,1.48c-0.57,0.78-1.15,1.56-1.72,2.34c-2.36,2.11-4.32,5.8-5.36,8.76c-0.44,0.95-0.89,1.9-1.33,2.85    c-1.11,1.55-2.21,3.11-3.32,4.66c-1.04,1.01-2.08,2.02-3.12,3.04c-1.37,0.78-2.74,1.55-4.12,2.33c-1.31,0.71-2.63,1.42-3.94,2.13    c-3.06,1.37-5.61,2.06-8.41,4.13c-0.83,0.54-1.67,1.07-2.51,1.61c-1.9,0.61-3.8,1.22-5.69,1.82c-0.97,0.41-1.93,0.81-2.9,1.22    c-1.13,0.95-2.27,1.91-3.4,2.86c-0.24,0.38-0.49,0.76-0.73,1.14c-0.6,0.67-1.17,1.32-1.55,2.15c-0.31,1.11-0.62,2.22-0.93,3.33    c-1.29,2.88-1.57,5.33-0.72,8.41c0.37,1.34,0.6,3.01,1.79,3.94c2.64,2.07,6.24,2.79,8.92,4.86c0.46,0.36,2.37,1.52,2.35,2.11    c0.06,0.72,0.12,1.44,0.18,2.15c-0.06,0.42-0.12,0.83-0.18,1.25c-0.18,0.48-0.36,0.95-0.54,1.43c-0.32,0.35-0.64,0.6-0.72,1.07    c-0.95,0.83-1.91,1.67-2.86,2.51c-1.07,0.66-2.15,1.31-3.22,1.97c-1.55,0.6-3.1,1.19-4.65,1.79c-0.6,0.12-0.79,0.63-1.43,0.54    c-0.15,0.15-0.36,0.38-0.36,0.57c0.06,0.36-0.03,0.71,0.24,1.01c0.92,0.92,1.7,1.26,2.62,2.18c2.49,0.85,4.58,2.36,6.98,3.38    c0.95,0.4,2.78,1.63,3.74,1.07c1.55-0.9,3.07-1.89,4.81-2.43c0.32-0.33,1.38-0.7,1.83-0.59c3.1-2.24,6.93-3.74,10.74-4.47    c1.37-0.59,2.73-1.18,4.1-1.77c0.48-0.06,0.97-0.13,1.45-0.2c2.08-0.57,4.16-1.15,6.24-1.72c1.14-0.32,2.29-0.64,3.43-0.96    c1.19-0.18,2.39-0.36,3.58-0.54c1.13,0.24,2.27,0.48,3.4,0.72c2.45,0.3,5.18,0.45,7.53,1.34c1.27,0.53,2.54,1.05,3.8,1.58    c1.65,0.1,3.3,0.2,4.96,0.3c2.06,1.15,3.27,1.07,5.55,0.89c0.78,0.18,1.55,0.36,2.33,0.54c1.07,0.06,2.15,0.12,3.22,0.18    c1.01,1.01,4.76,0.54,6.18,0.7c0.3-0.19,0.38-0.15,0.68-0.02c1.12,0.46,1.85,1.31,2.8,2.01c1.47,0.15,2.58,1.06,3.76,1.97    c0.95,0.54,1.91,1.07,2.86,1.61c0.29,0.36,0.58,0.71,0.87,1.07c0.73,0.84,1.45,1.67,2.18,2.51c1.41,0.98,2.04,1.42,3.75,1.39    c0.38-0.03,0.76-0.06,1.14-0.08c0.34-0.91,0.67-1.83,1.01-2.74c0.08-0.83,0.17-1.66,0.25-2.49c0.15-0.44,0.37-1.39,0.11-1.8    c0.36-1.08,0.54-2.09,0.54-3.22c0.78-0.66,1.55-1.31,2.33-1.97c0-0.3,0-0.6,0-0.89c0.43-0.78,1.26-2.56,2.32-2.49    c1.55,0.12,3.09,0.23,4.64,0.35C192.53,153.62,193.93,153.62,194.7,153.61z"/>
            <circle cx="163.74" cy="112.19" r="1.586"/>
        </g>
        <g id="__Nazımiye">
            <path d="    M335.82,208.51c-2.11-1.5-6.6-1.77-9.24-1.02c-0.71,0.24-1.42,0.48-2.14,0.72c-1.35,0.25-2.47,0.4-3.76,0.89    c-1.25,0.07-2.51,0.15-3.76,0.22c-0.48,0.1-0.95,0.21-1.43,0.31c-1.65,0.1-3.3,0.19-4.96,0.29l0.93-0.46    c-1.25-0.54-3.36-1.19-4.21-1.79c-1.73-1.23-3.38-2.41-5.01-3.76c-0.54-0.72-1.07-1.43-1.61-2.15c-0.52-2.01-0.47-4.02,0.08-6.01    c-0.42-1.39-0.13-2.75-0.08-4.2c0.03-0.92,1.55-2.14,2.36-2.81c1.95-1.62,4.1-3.07,6.05-4.7c-0.03-0.5,0.23-0.71,0.47-1.13    c0.02-0.58,0.04-1.16,0.07-1.73c0.27-1.92-0.21-3.7-0.51-5.55c-0.07-0.45-1.79-0.07-2.18,0.01c-0.14-0.49-0.8-0.62-1.25-0.89    c-0.34-1.27-2.07-1.7-3.04-2.33c-0.98-0.63-2.1-0.96-3.22-1.25c-0.12-0.12-0.95-0.48-1.25-0.54c-1.33-0.86-2.54-2.12-3.29-3.56    c-0.37-0.64,0.7-1.59,1.14-1.98c0.15-0.56,1.15-0.8,1.59-1.12c1.35-0.99,3.48-2.32,4.14-3.89c0.45-1.07,0.79-2.09,1.07-3.22    c-0.32-0.28-0.25-0.84-0.36-1.25c-0.34-1.31-0.28-2.59-0.19-3.94c0.3-0.48,0.6-0.95,0.91-1.43c0.91-0.08,2.27-1.47,3.04-1.97    c-0.13-0.47,0.22-1.12,0.36-1.61c-0.4-0.8,0.03-2.09,0.19-2.86c0.23-1.01,0.47-2.03,0.7-3.04c0.57-1.27,1.15-2.53,1.72-3.8    c0.67-1.61,0.17-3.75-0.29-5.33c0.88-0.32,0.35-1.48,0.36-2.15c0.02-1.74,0.07-5.19-1.24-6.38c-0.43-0.05-0.86-0.11-1.29-0.16    c-1.23-0.12-2.3-0.73-3.36-1.39c-0.72-0.4-1.44-0.8-2.16-1.2c-0.57-0.67-1.14-1.33-1.71-2c-0.56-0.88-1.13-1.77-1.69-2.65    c-0.11-0.81-0.22-1.63-0.33-2.44l0.69-0.6c0.8,0,3.38,0.05,3.94-0.36c0.72,0.24,1.43,0.48,2.15,0.72c0.6,0.06,1.19,0.12,1.79,0.18    c1.5,0.37,2.94,0.79,4.47,1.07c1.44,0.27,4.12,0.21,5.37-0.54c0.56-0.34,1.81-1.73,2.52-1.32c2.28,1.4,2.82,4.69,5.69,5.58    c2.08,0.65,4.08,1.33,6.29,1.47c0.9-0.12,1.79-0.24,2.68-0.36c1.31,0.06,2.62,0.12,3.94,0.18c2.27,0.24,4.53,0.48,6.8,0.72    c1.55-0.06,3.1-0.12,4.65-0.18c2.03,0.06,4.06,0.12,6.09,0.18c0.78-0.18,1.55-0.37,2.33-0.55c1.37-0.11,2.74-0.23,4.11-0.34    c0.88,0.01,1.76,0.01,2.65,0.02c0.25-0.06,0.5-0.13,0.75-0.2c1.32,0.21,2.63,0.41,3.95,0.62c2.39,0.31,5.13,0.51,7.29,1.58    c1.72,0.85,2.25,0.96,3.61,2.46c0.08,0.39-0.01,1.55-0.01,1.55c-0.6,0.2-1.2,0.39-1.79,0.59c-1.87,1-2.7,1.48-3.75,3.41    c-0.14,1.74-0.28,3.47-0.42,5.21c-0.25,2.03,0.62,4.28,1.49,6.07c-0.29,0.32-0.07,1,0,1.43c-0.18,0.54-0.36,1.07-0.54,1.61    c-0.84,1.04-1.69,2.09-2.53,3.13c-0.85,1.1-1.76,1.92-2.84,2.77c-0.95,1.25-1.91,2.51-2.86,3.76c0.32,1.03-0.75,2.3-0.72,3.4    c0.05,1.65-1.16,5.17-1.79,6.8c-1.03,0.54-1.34,1.86-1.94,2.75c-0.26,0.38-0.48,0.3-0.92,0.3c-0.13,0.63-0.8,0.82-1.25,1.25    c-1.19,1.07-2.39,2.15-3.58,3.22c-0.89,1.85-1.79,3.7-2.68,5.55c-0.18,0.54-0.36,1.07-0.54,1.61c-0.12,0.72-0.24,1.43-0.36,2.15    c-0.06,1.79-0.12,3.58-0.18,5.37c0,1.07,0,2.15,0,3.22c0.8,1.26,1.6,2.52,2.4,3.77c1.27,2.05-2.23,5.83-3.48,7.32    c-0.5-0.03-0.9,0.18-1.25,0.54c-0.54,0.12-1.07,0.24-1.61,0.36c-0.52-0.46-1.49-0.13-2.15-0.36c-5.08-1.75-7.23,4.36-9.66,7.69    L335.82,208.51z"/>
            <circle cx="325.16" cy="170.89" r="1.586"/>
        </g>
        <g id="__Tunceli">
            <path d="    M263.61,266.02c-1.67-0.24-3.34-0.49-5.02-0.73c-1.31-0.78-2.63-1.55-3.94-2.33c-0.43-0.46-0.87-0.93-1.3-1.39    c-0.43-0.3-0.87-0.22-1.39-0.22c-0.72-0.66-1.43-1.31-2.15-1.97c-1.33-1.64-1.44-3.49-2.51-5.19c-0.9-1.43-2.85-1.85-3.94-3.04    c-0.49-0.03-0.98-0.06-1.47-0.09c-0.05-0.27-0.09-0.54-0.14-0.81c-0.56-0.76-1.11-1.52-1.67-2.29c-0.37-0.48-1.19-0.98-1.19-1.65    c-0.6-0.54-1.19-1.07-1.79-1.61c-0.7,0-1.52-0.43-1.79-1.07c-0.83-0.36-1.67-0.72-2.51-1.07c-1.79-0.39-3.59-0.77-5.39-1.16    c-2.92-1.46-5.83-2.93-8.75-4.39c-1.17-0.52-2.34-1.04-3.51-1.57c-0.56-0.31-1.12-0.63-1.68-0.94c-0.44-0.63-0.88-1.25-1.32-1.88    c-0.44-0.44-1.24-1.12-1.36-1.7c-2.03-1.79-4.06-3.58-6.08-5.37c-0.67-0.6-2.04-1.17-2.15-2.15c-1.46-1.18-2.79-1.92-4.65-2.33    c0-0.32-0.57-0.35-0.85-0.43c-0.43-0.55-2.18-0.75-2.91-0.82c-1.27-0.12-2.56-0.69-3.75,0.04l1.59-0.36    c-1.21-0.11,0.59-1.1,1.05-1.5c1.53-1.34,3.06-2.68,4.6-4.03c1.23-1.1,2.34-1.87,3.09-3.34c1.02-2.02,1.02-4.51,2.38-6.38    c1.65-2.27,4.03-4.24,5.09-6.88c-0.01-0.27-0.03-0.54-0.04-0.82c0.07-2.27-1.66-4.11-3.46-5.31c-3.34-2.24-7.55-2.88-11.07-4.88    c0.12-0.46-0.65-1.02-0.98-1.35c-0.94-1.19-1.88-2.37-2.82-3.56c-1.06-1.5,0.35-5.29,1.24-6.72c0.35-0.56,0.67-0.52,1.16-0.89    c0.23-1.8,0.39-3.68,1.39-5.21c-0.12-0.95-0.24-1.91-0.36-2.86c-0.3-0.84-0.6-1.67-0.9-2.51c-0.99-2.04-1.15-4.37-1.07-6.62    c0.48-0.84,0.96-1.68,1.44-2.52c0.4-0.69,1.18-0.52,1.96-0.54c1.73-0.03,3.53,0.03,5.19-0.52c0.68-0.46,1.36-0.91,2.05-1.37    c0.87-0.97,1.74-1.95,2.61-2.92c1.14-0.86,2.64-0.95,3.94-1.43c0.96-0.4,1.92-0.8,2.89-1.2c1.3-0.32,2.61-0.63,3.91-0.95    c1.91,0.24,3.82,0.48,5.73,0.72c0.1-0.3,2.54-1.52,3.04-1.79c0.89-0.83,1.79-1.67,2.68-2.51c2.48-2.37,5.33-3.92,8.59-5.01    c1.43-0.72,2.86-1.43,4.29-2.15c1.19-0.83,2.39-1.67,3.58-2.51c0.83-0.3,1.67-0.6,2.51-0.89c1.24-1,2.4-1.56,3.94-1.97    c0.63-0.84,3.22-1.66,4.29-1.97c0.6-0.3,1.19-0.6,1.79-0.9c0.59-0.43,1.18-0.86,1.77-1.3c2.11-0.87,4.21-1.84,5.93-3.36    c0.48-0.18,0.95-0.36,1.43-0.54c1.69-0.4,3.11-1.43,4.46-2.53c0.48-0.39,1.21-0.33,1.62-0.95c1.53-0.8,3.06-1.61,4.59-2.41    c0.5-0.36,1.01-0.73,1.51-1.09c2.09-0.94,6.01-1.73,6.92-3.99l1.05,0.06c0.81,0.06,1.61,0.12,2.42,0.18    c0.57-0.03,1.29,0.28,1.79,0c1.01,0.24,2.03,0.48,3.04,0.72c0.6,0.24,1.19,0.48,1.79,0.72c1.37,0.3,3.12,0.92,3.12,0.92l0.31,0.58    c0.11,0.81,0.22,1.63,0.33,2.44c0.56,0.88,1.13,1.77,1.69,2.65c0.57,0.67,1.14,1.33,1.71,2c0.72,0.4,1.44,0.8,2.16,1.2    c1.06,0.66,2.13,1.27,3.36,1.39c0.43,0.05,0.86,0.11,1.29,0.16c1.31,1.19,1.26,4.64,1.24,6.38c-0.01,0.67,0.52,1.83-0.36,2.15    c0.45,1.58,0.96,3.72,0.29,5.33c-0.57,1.27-1.14,2.53-1.72,3.8c-0.23,1.01-0.47,2.03-0.7,3.04c-0.16,0.77-0.59,2.06-0.19,2.86    c-0.14,0.49-0.48,1.14-0.36,1.61c-0.77,0.5-2.14,1.88-3.04,1.97c-0.3,0.48-0.6,0.95-0.91,1.43c-0.09,1.35-0.15,2.63,0.19,3.94    c0.11,0.42,0.04,0.97,0.36,1.25c-0.28,1.13-0.62,2.15-1.07,3.22c-0.65,1.57-2.79,2.89-4.14,3.89c-0.44,0.33-1.44,0.56-1.59,1.12    c-0.44,0.39-1.51,1.35-1.14,1.98c0.74,1.44,1.96,2.71,3.29,3.56c0.3,0.06,1.13,0.42,1.25,0.54c1.12,0.3,2.25,0.62,3.22,1.25    c0.97,0.63,2.7,1.06,3.04,2.33c0.45,0.28,1.11,0.4,1.25,0.89c0.38-0.07,2.1-0.46,2.18-0.01c0.3,1.85,0.78,3.64,0.51,5.55    c-0.02,0.58-0.04,1.16-0.07,1.73c-0.24,0.42-0.5,0.63-0.47,1.13c-1.95,1.63-4.1,3.08-6.05,4.7c-0.81,0.67-2.33,1.89-2.36,2.81    c-0.05,1.45-0.35,2.81,0.08,4.2c-0.55,1.99-0.59,4-0.08,6.01c0.54,0.72,1.07,1.43,1.61,2.15c1.63,1.35,3.28,2.53,5.01,3.76    c0.85,0.6,2.95,1.25,4.21,1.79l-1.43,0.18c-1.59-0.11-3.18-0.22-4.78-0.32c-1.3-0.07-2.61-0.14-3.91-0.21    c-0.43,0.33-2.7,0.27-3.4,0.36c-0.73,0.32-1.46,0.64-2.19,0.96c-1.3,0.58-2.24,1.39-3.72,1.44c-3.07,0.1-6.03-2.03-9.08-1.36    c-1.72,0.38-3.96,2.54-5.41,3.62c-0.5-0.11-1.37,0.62-1.79,0.9c-0.78,0.12-1.55,0.24-2.33,0.36c-0.3-0.45-1.1-0.36-1.63-0.48    c-1.55-0.32-3.09-0.64-4.64-0.96c-0.6,0.06-1.19,0.12-1.79,0.18c-1.46,0.39-3.33,0.73-4.83,0.36c-2.13-0.53-3.79-1.91-5.91-2.51    c-0.66,0.12-1.31,0.24-1.97,0.36c-0.59,0.23-1.17,0.46-1.76,0.69c-0.78,0.43-1.57,0.85-2.35,1.28c-0.02,0.52-0.35,0.71-0.72,1.07    c-0.5,0.88-1,1.76-1.49,2.65c-0.16,0.49-0.32,0.98-0.48,1.47c-1.61,2.74-3.22,5.49-4.83,8.23c-0.02,0.84-0.05,1.68-0.07,2.52    c0.02,0.59,0.05,1.18,0.07,1.77c-0.22,0.96-0.45,1.92-0.67,2.89c-0.1,0.33,0.76,0.83,1.03,1.05c-0.26,0.75,0.54,0.94,0.92,1.41    c0.09,0.12,2.07-0.01,2.6,0.03c1.01,0.14,0.59,0.76,1.31,1.43c1.67,1.85,3.34,3.7,5.01,5.55c0.39-0.2,0.7,0.07,1.11,0.17    c1.85,0.48,1.44,1.56,2.82,2.33c0.99,0.55,1.72,0.64,2.86,0.72c0.24,0.45,0.79,0.52,1.25,0.72c0.13,1.15,1.81,1.5,2.68,1.79    c0.36,0.39,0.73,0.79,1.09,1.18c0.17,0.5,0.35,1,0.52,1.5c0.38-0.32,0.47-0.17,0.89,0c0.21,0.92,0.1,2.52,1.21,2.81    c-0.16,0.49-0.33,0.99-0.49,1.48c-0.05,0.83-0.11,1.67-0.16,2.51c0.13,1.38,0.25,2.76,0.38,4.13c0.05,0.29,0.1,0.59,0.15,0.88    c-0.18-0.6-1.05-1.11-1.52-1.53c-0.07,0.18-0.13,0.35-0.2,0.53c-0.18,0.03-0.36,0.06-0.54,0.08c0,0,0.22,1.36,0.29,1.63    L263.61,266.02z"/>
            <circle cx="250" cy="196.84" r="1.586"/>
        </g>
        <g id="__Mazgirt">
            <path d="    M266.92,264.14l-0.27,0.79c0.12,0.78,0.24,1.55,0.36,2.33c-0.06,0.36-0.12,0.72-0.18,1.07c-0.33,0.78-0.65,1.55-0.98,2.33    c-0.33,0.42-0.66,0.84-0.99,1.25c-0.3,0.66-0.6,1.31-0.89,1.97c0,0.89-0.23,3.02-0.72,3.76c-0.66,0.99-2.15,2.12-2.15,3.4    c-0.42,0.48-0.84,0.95-1.25,1.43c-0.06,0.66-0.19,1.42,0,1.97c0.66,0.3,1.31,0.6,1.97,0.89c-0.42,0.36-0.84,0.72-1.25,1.07    c0,0.6,0,1.19,0,1.79c-0.22,0.8-0.92,1.69-0.72,2.51c-0.47,0.47-1.46,1.25-2.15,1.07c-0.32,0.38-0.64,0.76-0.96,1.15l-0.3,0.49    c3.28,0.17,6.56,0.34,9.84,0.51c1.91,0.3,3.82,0.6,5.73,0.9c0.84,0.06,1.67,0.12,2.51,0.18c3.46-0.02,6.91-0.04,10.37-0.06    c1.14-0.04,2.27-0.08,3.41-0.12c1.01,0.27,2.01,0.55,3.02,0.82c0.87-0.46,2.37-0.54,3.34-0.43c0.39-0.19,0.78-0.37,1.17-0.56    c0.79-1.8,4.43-3.33,6.05-4.03c2.38-1.02,4.9-0.68,7.46-0.82c1.07-0.06,2.77-0.24,3.41-1.13c0.76-1.01,1.4-2.1,1.68-3.34    c0-0.83,0-1.67,0-2.51c0.19-0.44,0.38-0.88,0.56-1.31c0.11-0.28,0.22-0.55,0.33-0.83c1.59-1.38,3.5-0.74,4.85-1.97    c1.87-1.7,1.46-4.1,3.65-5.61c1.12-0.51,2.24-1.02,3.37-1.53c0.31-0.06,1.2-0.53,1.23-0.74c0.1-0.75,0.41-1.88-0.02-2.33    c-0.47-0.49-0.94-0.97-1.41-1.46c1.35-1.35,3.19-1.44,4.76-2.32c1.43-0.8,3.36-3.63,3.11-5.27c0.03-0.31,0.06-0.62,0.09-0.93    c-0.11-0.66-0.74-1.79-0.48-2.36c-0.5-0.93-1.12-1.52-1.11-2.63c0.19-0.56,0.38-1.11,0.57-1.67c0.14-0.94,0.28-1.87,0.43-2.81    c0.71-2.23,2.29-4.21,2.29-6.65c0.22-1.61,0.44-3.22,0.65-4.83c0.14-0.48,0.28-0.96,0.43-1.44c0.05-1.06,0.21-2.28,1.04-3.06    c2.2,0,3.2-0.79,4.16-2.65c0.14-0.48,0.29-0.97,0.43-1.45c-0.52-1.2-1.03-2.4-1.55-3.6c-0.33-0.76-1.51-1.19-1.61-1.97    c-2.21-0.92-4.35-2.31-6.08-3.94c-0.6-0.42-1.19-0.83-1.79-1.25c-0.67-0.76-1.72-1.17-1.8-2.3c-0.07-1.19,0.09-2.29,0.93-3.02    c0.71-0.55,1.42-1.1,2.13-1.66c0.46-0.52,0.92-1.05,1.39-1.57c0.29-0.39,0.57-0.78,0.86-1.17c-2.11-1.5-6.6-1.77-9.24-1.02    c-0.71,0.24-1.42,0.48-2.14,0.72c-1.35,0.25-2.47,0.4-3.76,0.89c-1.25,0.07-2.51,0.15-3.76,0.22c-0.48,0.1-0.95,0.21-1.43,0.31    c-1.65,0.1-3.3,0.19-4.96,0.29l0.93-0.46l-1.43,0.18c-1.59-0.11-3.18-0.22-4.78-0.32c-1.3-0.07-2.61-0.14-3.91-0.21    c-0.43,0.33-2.7,0.27-3.4,0.36c-0.73,0.32-1.46,0.64-2.19,0.96c-1.3,0.58-2.24,1.39-3.72,1.44c-3.07,0.1-6.03-2.03-9.08-1.36    c-1.72,0.38-3.96,2.54-5.41,3.62c-0.5-0.11-1.37,0.62-1.79,0.9c-0.78,0.12-1.55,0.24-2.33,0.36c-0.3-0.45-1.1-0.36-1.63-0.48    c-1.55-0.32-3.09-0.64-4.64-0.96c-0.6,0.06-1.19,0.12-1.79,0.18c-1.46,0.39-3.33,0.73-4.83,0.36c-2.13-0.53-3.79-1.91-5.91-2.51    c-0.66,0.12-1.31,0.24-1.97,0.36c-0.59,0.23-1.17,0.46-1.76,0.69c-0.78,0.43-1.57,0.85-2.35,1.28c-0.02,0.52-0.35,0.71-0.72,1.07    c-0.5,0.88-1,1.76-1.49,2.65c-0.16,0.49-0.32,0.98-0.48,1.47c-1.61,2.74-3.22,5.49-4.83,8.23c-0.02,0.84-0.05,1.68-0.07,2.52    c0.02,0.59,0.05,1.18,0.07,1.77c-0.22,0.96-0.45,1.92-0.67,2.89c-0.1,0.33,0.76,0.83,1.03,1.05c-0.26,0.75,0.54,0.94,0.92,1.41    c0.09,0.12,2.07-0.01,2.6,0.03c1.01,0.14,0.59,0.76,1.31,1.43c1.67,1.85,3.34,3.7,5.01,5.55c0.39-0.2,0.7,0.07,1.11,0.17    c1.85,0.48,1.44,1.56,2.82,2.33c0.99,0.55,1.72,0.64,2.86,0.72c0.24,0.45,0.79,0.52,1.25,0.72c0.13,1.15,1.81,1.5,2.68,1.79    c0.36,0.39,0.73,0.79,1.09,1.18c0.17,0.5,0.35,1,0.52,1.5c0.38-0.32,0.47-0.17,0.89,0c0.21,0.92,0.1,2.52,1.21,2.81    c-0.16,0.49-0.33,0.99-0.49,1.48c-0.05,0.83-0.11,1.67-0.16,2.51c0.13,1.38,0.25,2.76,0.38,4.13c0.05,0.29,0.1,0.59,0.15,0.88    L266.92,264.14z"/>
            <circle cx="265.21" cy="225.29" r="1.586"/>
        </g>
        <g id="__Çemişgezek">
            <path d="    M40.4,205.74c0.58,1.26,1.47,2.27,2.19,3.36c0.17,0.56,0.34,1.13,0.51,1.69c0.31,0.57,0.62,1.14,0.92,1.71    c-0.6,0.89-1.37,2.09-0.72,3.04c-0.12,0.71-0.23,1.43-0.35,2.14c0.02,0.51-0.2,1.43,0.17,1.79c0.34,0.36,0.67,0.72,1.01,1.07    c0.33,0,0.35-0.11,0.6,0.18c0.65-0.38,1.3-0.77,1.95-1.15c0.24-0.06,1.16-0.52,1.07,0.04c-0.03,0.13-0.05,0.26-0.08,0.39    c0.09,0.12,0.19,0.25,0.28,0.37c-0.67,0.67-2.75,2.83-1.87,3.66c0.5,0.47,0.98,1.18,1.69,0.82c0.74,0.6,1.48,1.2,2.21,1.8    c0.52-0.02,1.28,0.78,1.19,1.24c0.24-0.07,0.48-0.15,0.73-0.22c0.99-0.28,1.71-1.49,2.85-1.03c0.51-0.2,0.75-0.13,0.89-0.72    c0.34,0.07,1.52,0.2,1.01,0.5c-0.22,0.07-0.44,0.15-0.65,0.22c-0.34,0.51-1.69,2.71-1.55,2.99c0.55,0.94,1.79,1.8,1.72,2.89    c-0.01,0.4-0.41,1.37-0.7,1.64c-0.08,1.35,0.26,2.76-0.18,4.12c0.5,0.68,0.88,1.12,0.88,2c0.12,0.05,0.25,0.1,0.37,0.15    c-0.16,0.06-0.33,0.12-0.49,0.18c-1.12,0.44-1.25,1.53-1.35,2.67c-0.07,0.23-0.15,0.45-0.22,0.68c0.23,0.34,0.31,0.34,0.28,0.77    c0.77,0.02,2.05,0.22,2.68-0.18c0.81,0.86,1.61,1.71,2.42,2.57c0.41,0.28,2.13,0.61,2.19,0.73c0.31,0.67,1.06,1.82,0.22,2.43    c0.32,0.29,0.46,0.44,0.89,0.54c0.63,1.1,1,2.54,1.05,3.79c0.25,0.05,0.5,0.1,0.74,0.15c-0.12,0.12-0.24,0.23-0.36,0.35    c-0.33,0.27-0.45,0.51-0.89,0.55c-0.25,0.49-0.02,0.9-0.58,0.92c-0.37-0.01-1.36-0.16-1.75-0.03c-0.38-0.38-0.83-0.52-0.89-1.07    c-0.02,0.05-0.05,0.1-0.07,0.15c-0.26,0.51-1.13,0.37-1.54,0.75c0.19,0.65,0.9,1.11,0.08,1.43c-0.54,0.18-1.3,0.64-1.87,0    c-0.42,0.48-0.83,0.95-1.25,1.43c-0.72,0.12-1.43,0.24-2.15,0.36c-1.03-0.5-4.49-1.12-5.01-1.79c-0.58,0.06-0.58,0.28-1.07-0.18    c-0.02,0.13-0.03,0.25-0.05,0.37c-0.06,0.95-0.04,1.59,0.75,2.27c0.01,0.52,0.25,0.57,0.63,0.87c0.09-0.04,0.19-0.07,0.28-0.11    c-0.06,0.07-0.12,0.15-0.18,0.22c0,0.11,0,0.21,0,0.32c-0.06-0.01-0.12-0.02-0.18-0.03c-1.02-0.16-3.53-0.56-4.29,0.39    c-0.79,0.99-0.05,3.28-1.43,4.12c0.42,0,0.84,0,1.25,0c-0.02,0.59-0.17,1.22,0.22,1.69c0.5,0.5,0.63,0.81,1.4,0.87    c0.73,0.03,2.41-0.11,2.85,0.13c-0.41,0.54-0.75,1.39-1.43,1.43c0.11-0.01,0.22-0.02,0.33-0.02c0.56,0,2.51,0.4,2.73,0.19    c0.43-0.68,0.86-1.36,1.29-2.05c0.26,0.37,0.11,0.41,0.65,0.45c0.2,0.27,0.4,0.54,0.6,0.81c0.26-0.32,0.23-0.59,0.65-0.63    c-0.2-1.58-0.25-2.52,1.18-3.54c-0.04-0.13-0.07-0.26-0.11-0.4c0.13,0.04,0.26,0.09,0.39,0.13c0.39,0.21,0.29-0.32,0.81,0.11    c0.68,0.57,2.08,2.68,1.14,3.16c0.3,0.18,0.6,0.36,0.9,0.54c0.09-0.09,0.18-0.18,0.27-0.27c0.71-0.67,1.81-2.21,2.77-2.41    c0.1-0.81-0.11-1.13,0.24-1.97c0.12-0.29,0.5-0.16,0.74-0.08c0.09-0.15,0.18-0.3,0.27-0.45c0.07,0.37,0.14,0.73,0.21,1.1    c0.29,0.41,0.58,0.82,0.87,1.23c0.3,0.08,1.43,0.37,1.39,0.5c-0.19,0.52-0.36,1.33-0.85,1.47c0.26,0.41,0.41,1,0.9,1.07    c0.02,0.18,0.03,0.36,0.05,0.54c0.01,0.77-0.52,1.88,0.05,2.37c0.27,0.19,0.29,0.11,0.26,0.49c0.3,0,0.6,0,0.89,0    c0.17,0.1,0.34,0.2,0.51,0.3c0.45-0.15,0.6-0.36,1.1-0.3c0.23-0.36,0.47-0.72,0.7-1.07c-0.06-0.78-0.5-2.69-0.88-3.4    c0.05-0.8,0.16-2.44-0.02-3.03c-0.17-0.54-0.56-2.34-0.87-2.52c0.17,0.02,0.34,0.03,0.51,0.05c1.57,0.35,3.14,0.69,4.71,1.03    c0.14-0.6,0.3-0.67-0.03-1.26c0.33-0.75,0.83-1.43,0.54-2.33c0.65,0.18,1.27,0.67,1.27-0.19c-0.07-0.41-0.13-0.83-0.2-1.24    c-0.12,0-0.24,0-0.36,0c-0.39-0.49-2.52-2.06-2.51-2.51c-0.16-0.94-0.31-1.88-0.47-2.82c0.66-1.29,2.43-2.63,1.72-4.33    c0.25-0.68,0.92-1.08,0.72-1.79c0.12,0.06,0.24,0.12,0.36,0.18c1.06-1.33,0.68-2.04,1.17-3.42c0.16-0.45,0.37-1.41,0.08-1.77    c0.22-0.72,0.8-2.44,0.55-3.05c-0.23-0.53-0.88-1.68-1.45-1.78c-0.06-0.24-0.12-0.48-0.18-0.72c0.77,0.72,2.3,0.84,2.68,1.79    c0.16-0.2,0.32-0.4,0.48-0.6c0.33-0.52,1.72-2.09,0.78-2.62c0.29-0.45,0.54-1.14,1.07-1.25c0.17-0.74,0.25-2.01,1.25-1.97    c0.35-0.38,0.76-1.15,1.25-1.25c0.36-0.75,0.6-1.57,1.24-2.14c0.26-0.15,0.53-0.3,0.79-0.45c0.13,0.32,0.27,0.63,0.4,0.95    c-0.21,0.51-0.41,1.02-0.61,1.53c-0.66,0.18-1.83,1.76-1.47,2.43c-0.24,0.06-0.48,0.12-0.72,0.18c-0.06,0.42-0.12,0.84-0.18,1.25    c-0.27,1.43-1.25,2.7-1.43,4.29c0.19,0.16,1.32,0.83,1.18,0.97c-0.39,0.33-0.79,0.67-1.18,1c0.16,0.26,0.22,0.49,0.54,0.54    c-0.18,0.72-0.36,1.43-0.54,2.15c-0.04,0.83-0.08,1.66-0.12,2.48c0.04,0.6,0.08,1.21,0.12,1.81c0.27,1.4,0.82,2.77,0,4.12    c0.37,0.37,0.19,0.69,0.72,0.9c-0.1,1.08,0.22,2.07,0.72,3.04c0.42,0.72,0.84,1.43,1.25,2.15c0.46,0.87,0.66,2.01,1.3,2.77    c0.21,0.24,1.67,1.86,1.76,1.17c0.05-0.6,0.1-1.2,0.16-1.8c0.12-0.36,0.24-0.72,0.36-1.07c0.59,0.64,1.18,1.29,1.77,1.93    c0.96-0.26,2.09-0.26,2.14-1.48c0.07-0.15,0.14-0.3,0.21-0.45c-0.22-0.44-1.82-2.19-1.01-2.39c0.28-0.1,0.56-0.19,0.83-0.29    c-0.03,0.28-0.07,0.57-0.1,0.85c-0.05,0.07-0.1,0.13-0.15,0.2c0.24-0.09,0.48-0.17,0.72-0.26c0.55,0.4,1.3,1.5,2.04,1.17    c0.24,0.42,0.48,0.84,0.72,1.25c0.36-0.48,0.72-0.95,1.07-1.43c0.83,0.66,1.59,1.21,1.64-0.11c0.2-0.78,0.4-1.57,0.6-2.35    c-0.23-0.54-0.55-3.95-0.27-4.34c-0.11-0.5-0.46-1.5-0.03-1.67c0.46-0.16,0.67-0.31,0.9,0.22c0.38,0.86,1.99,2.4,2,3.05    c0.36,0.15,0.5,0.26,0.9,0.18c-0.02,0.05-0.03,0.11-0.05,0.16c-0.22,0.78-0.44,1.56-0.67,2.34c0.24-0.06,0.48-0.12,0.72-0.18    c0.06,0.86,0.87,2.68,1.79,2.33c0.22,0.4,0.44,0.6,0.36,1.07c0.66,0.43,1.33,0.86,1.99,1.29c0.35,0.05,0.7,0.1,1.05,0.15    c0.36,0.95,0.64,1.92,1.38,2.69c0.44,0.45,0.97,0.58,0.95,1.25c0.42-0.1,0.7-0.07,0.96-0.46c0.19-0.32,0.4-0.69,0.11-0.97    c0.24-0.12,0.48-0.24,0.72-0.36c0.07-0.34,0.06-0.53,0.36-0.72c0-0.54,0-1.07,0-1.61c-0.35-0.49-0.58-1.52-1.07-1.79    c0.12-0.04,0.25-0.09,0.37-0.13c0.45-0.14,0.45,0.35,0.65-0.24c0.86-2.42,0.2-5.11-0.86-7.32c-0.06-0.66-0.11-1.32-0.17-1.97    c0.06,0.11,0.12,0.23,0.18,0.34c0.17,0.3,0.24,0.36,0.18,0.73c0.98,0.72,1.42,1.83,2.33,2.68c0.04-0.12,0.08-0.25,0.12-0.37    c0.02-0.23,0.04-0.47,0.06-0.7c0.3-0.4,0.59-0.8,0.89-1.2c0.42-0.56,0.84-1.11,1.26-1.67c-0.09,0.57-0.19,1.14-0.28,1.71    c0.33,0.39,0.62,0.43,0.64,0.98c0.05-0.02,0.11-0.04,0.16-0.06c0.24-0.1,0.49-0.2,0.73-0.3c-0.32,0.17-2.18,1.1-2.12,1.4    c-0.1,0.77-0.64,2.76-0.03,3.25c-0.12,0.3-0.24,0.6-0.36,0.9c0.03,0.44,0.19,0.98-0.18,1.25c0.12,0.48,0.24,0.95,0.36,1.43    c-0.24,1.31-0.48,2.63-0.72,3.94c0.13,0.6,1.04,2.31,0.89,2.68c0,0,1.01-3.4,0.72-4.52c0.12-0.84,0.42-2.3,0.54-3.13    c0.61-1.6,0.58-4.07,1.12-5.06c0.59-0.89,0.61-1.05,1.05-1.59c0.69-0.85,1.59-1.73,2.22-2.7c0.58-0.89,0.88-1.88,1.7-2.51    c0.37-0.28,0.75-0.62,1.13-0.98c0.2-0.2,0.41-0.41,0.61-0.62c0.32-0.35,0.64-0.72,0.95-1.1c0.14-0.18,0.28-0.35,0.42-0.53    c0.49-0.64,0.94-1.32,1.33-1.99c0.51-0.86,0.92-1.72,1.19-2.51c0.24-0.7,0.42-1.42,0.6-2.14c0.24-0.98,0.45-1.97,0.73-2.94    c0.24-0.82,0.52-1.62,0.91-2.39c0.65-1.02,1.39-2.37,2.46-2.95c0.54-0.41,1.03-0.89,1.12-1.34c0.82-0.86,0.68-0.95,1.3-1.88    c0.63-0.94,1.48-1.21,1.48-1.21c0.36-0.45,0.85-1.19,1.28-1.63c1.04-1.18,0.32-3.04-0.12-4.41c0.39-0.77-0.43-2.06-0.54-2.86    c-0.06-0.44,0.15-0.92-0.18-1.25c-0.01-0.83-0.01-1.67-0.02-2.5c0.25-2.5,0.96-5,0.38-7.52c0-0.73-1.94-2.04-2.51-2.51    c-0.78-0.72-1.55-1.43-2.33-2.15c-1,0-1.93-1.28-2.52-1.98c-0.82-0.97-0.9-2.33-1.78-3.21c-0.72,0-1.5-0.96-1.97-1.43    c-1.37-0.18-2.74-0.36-4.12-0.54c-0.52-0.28-1.03-0.57-1.55-0.85c-1.56-1.01-3.48-2.32-5.25-2.73c-0.43-0.43-2.13-1.79-2.68-1.79    c-0.72-0.6-1.43-1.19-2.15-1.79c-0.54-0.6-1.07-1.19-1.61-1.79c-0.55,0-2.06-1.04-2.51-1.43c-0.34-0.45-0.67-0.89-1.01-1.34    c-0.86-0.93-1.71-1.85-2.57-2.78c0-0.69-1.33-2.27-1.79-2.86c-1.25-1.63-2.2-3.72-3.93-4.96c-0.28-0.7-0.58-1.34-1.04-1.94    c-0.65-0.85-1.56-1.25-2.54-1.52c-0.06-0.13-0.12-0.27-0.18-0.4l0.34-0.34c-0.97,0.56-2.79-0.67-3.74-1.07    c-2.4-1.01-4.49-2.53-6.98-3.38c-0.92-0.92-1.7-1.26-2.62-2.18c-0.27-0.3-0.18-0.65-0.24-1.01c0,0-1.43,0.1-2.15,0.33    c-1.48,0.04-2.54,0.44-3.94,0.72c-0.51,0.1-1.29,0.16-1.97,0.18c-0.33,0.01-2.02,0.17-2.51,0.18c-0.25,0-2,0.16-2.33,0.18    c-0.32,0.02-0.66,0.05-1.02,0.08c-0.27,0.02-2.21,0.26-2.38,0.29c-0.61,0.1-1.31,0.2-2.06,0.31c-0.11,0.02-1.31,0.2-1.59,0.24    c-0.24,0.04-1.03,0.17-1.19,0.2c-0.18,0.03-1.54,0.3-1.79,0.35c-0.31,0.07-1.46,0.35-1.72,0.43c-0.35,0.1-1.79,0.6-2.15,0.76    c-0.72,0.32-1.34,0.68-1.84,1.1c-0.17,0.15-1.06,1.25-1.44,1.42c-0.75,0.75-1.61,3.15-1.61,4.12c0.48,0.72,0.95,1.43,1.43,2.15    c0,1.63,0.18,2.67,0.18,4.12c-0.54,1.13-1.07,2.27-1.61,3.4c-1.67,1.55-3.34,3.1-5.01,4.65l-0.33,2.5c0.39-0.06,0.72-0.07,0.87,0    c0.72-0.43,1.88-0.86,2.33-1.61c0.39,0.03,1.1-0.14,0.63,0.22c-0.56,0.49-1.5,0.77-1.71,1.57c-1.13,0.27-3.15,0.36-3.57,1.42    c-0.06,1.11-1.1,3.19,0.17,3.95c-0.01,0.81-0.02,1.61-0.03,2.42c0.6,0.97,1.51,1.14,2.35,1.87c0.46,0.4,0.43,0.95,1.08,0.9    c-0.04,0.18-0.09,0.37-0.13,0.55c-0.08,0.12-0.15,0.23-0.23,0.35c0.13,0.83,0.06,1.18-0.18,1.97c0.06,1.31,0.12,2.63,0.18,3.94    c-0.4,0.35-0.43,1.13-1.07,1.07c0.18,0.42,0.36,0.84,0.54,1.25C40.43,205.18,40.21,205.23,40.4,205.74z"/>
            <circle cx="84.29" cy="211.87" r="1.586"/>
        </g>
        <g id="__Hozat">
            <path d="    M191.03,219.66c-0.78,0.78-2.36,1.91-3.13,2.68c-0.36,0.18-0.72,0.36-1.07,0.54c-0.48,0.48-0.95,0.95-1.43,1.43    c-0.72,0.54-1.43,1.07-2.15,1.61c-0.49,0.43-1.43,1.46-1.43,2.15c-1.13,1.31-2.27,2.63-3.4,3.94c-1.19,0.27-2.16,0.65-3.22,1.25    c-1.11,0.34-2.21,0.69-3.32,1.03c-1.28,0.85-2.56,1.7-3.84,2.55c-0.06-0.06-0.12-0.12-0.18-0.18c-0.48,0.18-0.95,0.36-1.43,0.54    c-1.39,0.88-2.18,2.53-3.76,3.22c-0.89,0.39-3.76-0.08-4.83-0.18c-0.12,0.06-0.24,0.12-0.36,0.18c-0.78-0.3-1.55-0.6-2.33-0.9    c-0.13-0.54-2.78-2.36-3.33-2.96c-0.44-0.32-0.88-0.65-1.32-0.97c-0.95-1.13-1.91-2.27-2.86-3.4c-2.39-1.37-4.77-2.74-7.16-4.12    c-0.95-0.36-1.91-0.72-2.86-1.07c-0.66-0.42-1.31-0.83-1.97-1.25c-0.93-0.76-1.83-2.93-3.4-2.15c0.68,0,1.65-1.41,2.09-1.86    c1.04-1.18,0.32-3.04-0.12-4.41c0.39-0.77-0.43-2.06-0.54-2.86c-0.06-0.44,0.15-0.92-0.18-1.25c-0.01-0.83-0.01-1.67-0.02-2.5    c0.25-2.5,0.96-5,0.38-7.52c0-0.73-1.94-2.04-2.51-2.51c-0.78-0.72-1.55-1.43-2.33-2.15c-1,0-1.93-1.28-2.52-1.98    c-0.82-0.97-0.9-2.33-1.78-3.21c-0.72,0-1.5-0.96-1.97-1.43c-1.37-0.18-2.74-0.36-4.12-0.54c-0.52-0.28-1.03-0.57-1.55-0.85    c-1.56-1.01-3.48-2.32-5.25-2.73c-0.43-0.43-2.13-1.79-2.68-1.79c-0.72-0.6-1.43-1.19-2.15-1.79c-0.54-0.6-1.07-1.19-1.61-1.79    c-0.55,0-2.06-1.04-2.51-1.43c-0.34-0.45-0.67-0.89-1.01-1.34c-0.86-0.93-1.71-1.85-2.57-2.78c0-0.69-1.33-2.27-1.79-2.86    c-1.25-1.63-2.2-3.72-3.93-4.96c-0.28-0.7-0.58-1.34-1.04-1.94c-0.65-0.85-1.56-1.25-2.54-1.52c-0.06-0.13-0.12-0.27-0.18-0.4    l0.34-0.34c1.55-0.9,3.07-1.89,4.81-2.43c0.32-0.33,1.38-0.7,1.83-0.59c3.1-2.24,6.93-3.74,10.74-4.47    c1.37-0.59,2.73-1.18,4.1-1.77c0.48-0.06,0.97-0.13,1.45-0.2c2.08-0.57,4.16-1.15,6.24-1.72c1.14-0.32,2.29-0.64,3.43-0.96    c1.19-0.18,2.39-0.36,3.58-0.54c1.13,0.24,2.27,0.48,3.4,0.72c2.45,0.3,5.18,0.45,7.53,1.34c1.27,0.53,2.54,1.05,3.8,1.58    c1.65,0.1,3.3,0.2,4.96,0.3c2.06,1.15,3.27,1.07,5.55,0.89c0.78,0.18,1.55,0.36,2.33,0.54c1.07,0.06,2.15,0.12,3.22,0.18    c1.01,1.01,4.76,0.54,6.18,0.7c0.3-0.19,0.38-0.15,0.68-0.02c1.12,0.46,1.85,1.31,2.8,2.01c1.47,0.15,2.58,1.06,3.76,1.97    c0.95,0.54,1.91,1.07,2.86,1.61c0.29,0.36,0.58,0.71,0.87,1.07c0.73,0.84,1.45,1.67,2.18,2.51c1.41,0.98,2.04,1.42,3.75,1.39    c0.38-0.03,0.76-0.06,1.14-0.08c0.34-0.91,0.67-1.83,1.01-2.74c0.08-0.83,0.17-1.66,0.25-2.49c0.15-0.44,0.37-1.39,0.11-1.8    c0.36-1.08,0.54-2.09,0.54-3.22c0.78-0.66,1.55-1.31,2.33-1.97c0-0.3,0-0.6,0-0.89c0.43-0.78,1.26-2.56,2.32-2.49    c1.55,0.12,3.09,0.23,4.64,0.35l0.21,0.52c-0.48,0.84-0.96,1.68-1.44,2.52c-0.07,2.25,0.09,4.58,1.07,6.62    c0.3,0.83,0.6,1.67,0.9,2.51c0.12,0.95,0.24,1.91,0.36,2.86c-1.01,1.53-1.16,3.41-1.39,5.21c-0.49,0.37-0.81,0.33-1.16,0.89    c-0.89,1.43-2.3,5.22-1.24,6.72c0.94,1.19,1.88,2.37,2.82,3.56c0.33,0.33,1.1,0.88,0.98,1.35c3.52,2,7.73,2.64,11.07,4.88    c1.8,1.21,3.53,3.04,3.46,5.31c0.01,0.27,0.03,0.54,0.04,0.82c-1.06,2.64-3.44,4.62-5.09,6.88c-1.36,1.87-1.35,4.36-2.38,6.38    c-0.75,1.47-1.86,2.24-3.09,3.34c-1.53,1.34-3.06,2.69-4.6,4.03c-0.46,0.4-2.25,1.39-1.05,1.5L191.03,219.66z"/>
            <circle cx="164.64" cy="195.95" r="1.586"/>
        </g>
        <g id="__Pertek">
            <path d="    M239.44,306.99c-0.73-1.93-1.78-3.94,0-5.73c0.78-0.44,2.51-0.94,2.57-1.81c0.07-0.67,0.33-1.92-0.24-2.31    c0.61-1.22,1.33-2.33,2.23-3.41c0.27-0.31,0.54-0.62,0.81-0.92c0.47-0.09,0.95-0.18,1.42-0.26c0.44,0.24,0.87,0.48,1.31,0.72    c0.41,0.54,0.67,1.16,1.4,1.19c0.19,0.37,0.54,1.05,1.05,0.83c1.26-0.51,2.81-1.18,3.79-2.08c0.23-0.21,1-0.6,1.25-0.54    c0.63-0.63,1.24-0.85,1.55-1.63c0.51-0.35,1.81-0.41,1.67-1.42c0.24-1.37,0.48-2.74,0.72-4.12c-0.13-0.13-0.17,0-0.18-0.36    c-0.04-1.33,0.03-2.5,0.42-3.75c0.28-0.54,0.56-1.08,0.83-1.62c1.09-0.6,2.3-1.66,2.57-2.93c0.21-0.97-0.23-2.28-0.07-2.98    c0.66-1.44,1.32-2.87,1.97-4.31c0.02-1.18-0.28-2.23-0.61-3.28l-0.28-0.28c-1.67-0.24-3.34-0.49-5.02-0.73    c-1.31-0.78-2.63-1.55-3.94-2.33c-0.43-0.46-0.87-0.93-1.3-1.39c-0.43-0.3-0.87-0.22-1.39-0.22c-0.72-0.66-1.43-1.31-2.15-1.97    c-1.33-1.64-1.44-3.49-2.51-5.19c-0.9-1.43-2.85-1.85-3.94-3.04c-0.49-0.03-0.98-0.06-1.47-0.09c-0.05-0.27-0.09-0.54-0.14-0.81    c-0.56-0.76-1.11-1.52-1.67-2.29c-0.37-0.48-1.19-0.98-1.19-1.65c-0.6-0.54-1.19-1.07-1.79-1.61c-0.7,0-1.52-0.43-1.79-1.07    c-0.83-0.36-1.67-0.72-2.51-1.07c-1.79-0.39-3.59-0.77-5.39-1.16c-2.92-1.46-5.83-2.93-8.75-4.39c-1.17-0.52-2.34-1.04-3.51-1.57    c-0.56-0.31-1.12-0.63-1.68-0.94c-0.44-0.63-0.88-1.25-1.32-1.88c-0.44-0.44-1.24-1.12-1.36-1.7c-2.03-1.79-4.06-3.58-6.08-5.37    c-0.67-0.6-2.04-1.17-2.15-2.15c-1.46-1.18-2.79-1.92-4.65-2.33c0-0.32-0.57-0.35-0.85-0.43c-0.43-0.55-2.18-0.75-2.91-0.82    c-1.27-0.12-2.56-0.69-3.75,0.04l0.61-0.22c-0.78,0.78-2.36,1.91-3.13,2.68c-0.36,0.18-0.72,0.36-1.07,0.54    c-0.48,0.48-0.95,0.95-1.43,1.43c-0.72,0.54-1.43,1.07-2.15,1.61c-0.49,0.43-1.43,1.46-1.43,2.15c-1.13,1.31-2.27,2.63-3.4,3.94    c-1.19,0.27-2.16,0.65-3.22,1.25c-1.11,0.34-2.21,0.69-3.32,1.03c-1.28,0.85-2.56,1.7-3.84,2.55c-0.06-0.06-0.12-0.12-0.18-0.18    c-0.48,0.18-0.95,0.36-1.43,0.54c-1.39,0.88-2.18,2.53-3.76,3.22c-0.89,0.39-3.76-0.08-4.83-0.18c-0.12,0.06-0.24,0.12-0.36,0.18    c-0.78-0.3-1.55-0.6-2.33-0.9c-0.13-0.54-2.78-2.36-3.33-2.96c-0.44-0.32-0.88-0.65-1.32-0.97c-0.95-1.13-1.91-2.27-2.86-3.4    c-2.39-1.37-4.77-2.74-7.16-4.12c-0.95-0.36-1.91-0.72-2.86-1.07c-0.66-0.42-1.31-0.83-1.97-1.25c-0.93-0.76-1.83-2.93-3.4-2.15    c0,0-0.04,0.04-0.67,0.98c-0.62,0.93-0.48,1.02-1.3,1.88c-0.09,0.45-0.58,0.93-1.12,1.34c-1.07,0.58-1.81,1.93-2.46,2.95    c-0.39,0.77-0.67,1.57-0.91,2.39c-0.28,0.97-0.49,1.96-0.73,2.94c-0.17,0.72-0.36,1.44-0.6,2.14c-0.27,0.79-0.68,1.65-1.19,2.51    c-0.4,0.67-0.85,1.34-1.33,1.99c-0.14,0.18-0.28,0.36-0.42,0.53c-0.31,0.38-0.63,0.75-0.95,1.1c-0.2,0.22-0.41,0.43-0.61,0.62    c-0.38,0.37-0.76,0.7-1.13,0.98c-0.82,0.63-1.12,1.62-1.7,2.51c-0.63,0.97-1.53,1.85-2.22,2.7c-0.44,0.54-0.45,0.7-1.05,1.59    c-0.54,0.98-0.51,3.46-1.12,5.06c-0.12,0.83-0.42,2.3-0.54,3.13c0.3,1.12-0.72,4.52-0.72,4.52c0.27-0.09,1.29,0.19,1.25,0.54    c1.4,1.15,2.77,1.17,4.47,1.25c0.48,0.02,2.13,0.62,2.38,0.06c0.36-0.75,1.09-2.11,0.3-2.74c0.26-0.58,1.19-1.37,0.89-1.97    c0.2,0.11,0.4,0.23,0.59,0.34c0.64,0.48,1.28,0.97,1.91,1.45c0.14,0.23,0.27,0.47,0.41,0.7c0.28-0.05,0.56-0.11,0.84-0.16    c0.12-0.19,0.24-0.39,0.36-0.58c0.45,0.06,1.06-0.74,1.1-0.5c0.11,0.58-0.43,2.8,0.1,3.13c0.26,0.15,0.51,0.3,0.77,0.45    c0.82-0.05,1-0.67,1.62,0.01c0.04-0.07,0.08-0.13,0.12-0.2c0.38-0.65,0.77-1.3,1.15-1.95c0.07,0.46-0.04,0.99,0.34,1.26    c-0.11,1.12-0.02,2.1,1.12,2.51c0.16,0.1,0.32,0.21,0.48,0.31c0.3-0.05,0.6-0.09,0.91-0.14c0.1-0.15,0.47-0.93,0.58-0.58    c0.07,0.52,0.15,1.03,0.22,1.55c0.28,0.24,0.41,0.67,0.64,0.5c0.51-0.42,1.03-0.84,1.54-1.26c0.14,0.05,0.28,0.1,0.42,0.15    c-0.01-0.05-0.02-0.1-0.03-0.15c-0.2-0.53-0.4-1.07-0.6-1.6c0.21-0.33,0.24-0.4,0.63-0.4c0.19-0.27,1.49-2.45,1.65-1.81    c0.11,0.24,0.21,0.49,0.32,0.73c-0.2,0.74-0.21,1.21-0.23,1.96c-0.08,0.08-0.16,0.16-0.25,0.23c0,0.02,0.58,0.47,0.65,0.67    c0.05-0.02,0.1-0.04,0.16-0.06c0.48-0.28,0.97-0.56,1.45-0.83c1.59-0.34,3.04-0.08,4.45,0.72c0.56,0.32,1.12,0.55,1.39,1.17    c0.2-0.04,0.41-0.07,0.61-0.11c-0.04,0.07-0.09,0.14-0.13,0.21c-0.43,0.71-0.87,1.41-1.3,2.12c0.21,0.16,0.42,0.32,0.63,0.49    c0.67-0.19,3-1.07,2.95-0.13c0.84-0.14,1.69-0.27,2.53-0.41c0.82-0.07,2.06,0.56,2.77-0.04c0.92-0.78,1.42-1.69,2.39-2.23    c0.17-0.39,0.69-1.85,0.81-1.58c0.3,0.65,0.49,0.39,0.3,1.16c-0.35,1.22-0.55,2.6-1.64,3.46c-0.21,0.64-0.02,0.85-0.72,1.07    c0.17,0.07,0.35,0.15,0.52,0.22c0.52,0.21,1.28,0.18,1.45,0.85c1.15,0.38,2.37,0.43,3.58,0.36c0.39,0.5,0.82,0.88,1.43,1.07    c0.52-0.23,0.35-0.47,1.06-0.26c0.48,0.22,0.96,0.45,1.44,0.67c1.4,0.38,2.93-0.08,4.12-0.77c0-0.18,0-0.36,0-0.54    c-0.17-0.42-0.35-0.83-0.52-1.25c0.03-0.27-0.04-0.94,0.33-0.86c0.69,0.2,1.38,0.4,2.07,0.6c0.35-0.29,0.52-0.72,0.98-0.64    c-0.02-0.06-0.04-0.12-0.06-0.18c-0.15-0.47-0.24-0.99-0.66-1.25c-0.21-0.95-0.02-2.3-0.72-3.04c-0.09-0.5-0.03-1.24-0.36-1.61    c0.02-0.24-0.01-1.4,0.3-1.16c1.04,0.84,0.8,1.21,1.49,2.41c0.44,0.5,0.88,1,1.32,1.5c0.93,1.35,1.86,2.7,2.8,4.04    c0.33,0.47,1.18,2.41,0.89,2.86c0.92-0.25,1.08-0.51,1.63,0.44c0.77,1.37,1.54,2.74,2.32,4.1c1.14,1.41,2.61,2.03,2.85,4.05    c1.11,1.22,2.45,2.25,3.38,3.67c1.02,0.56,2.04,1.13,3.06,1.69c0.4,0.07,0.81,0.15,1.21,0.22c0.67-0.07,1.34-0.15,2.01-0.22    c1.31,0.6,2.63,1.19,3.94,1.79c0.89,0,1.78-0.01,2.67-0.01c0.75,0.02,3.23,0.69,3.34,1.1c0.08,0.41,0.17,0.82,0.25,1.24    c0.54,0.36,1.07,0.72,1.61,1.07c0.67,0.3,1.33,0.6,2,0.9c0.77,0.78,1.53,1.55,2.3,2.33c0.48,0.72,0.96,1.43,1.43,2.15    c0.12,0.72,0.24,1.43,0.36,2.15c-0.07,0.44-0.14,0.74-0.54,0.9c0.34,0.88-0.08,1.87,0.18,2.51c0.16-0.09,0.32-0.18,0.49-0.27    c1.75-0.91,3.83-1.37,5-3.03c0.4-0.12,0.81-0.24,1.21-0.36c0.72-0.72,1.16-1.52,2.18-1.86c0.02-0.19,0.04-0.38,0.07-0.56    c0.21,0.13,0.41,0.26,0.62,0.39c0.33,0.19,0.7,0.44,0.99,0.15c1.05,1.18,2.15,2.6,2.15,4.29c0.31,0.5,0.83,1.03,0.89,1.61    c0.95,0.54,1.91,1.07,2.86,1.61c0.93,0.02,2.1-0.36,2.95-0.03c0.9,0.38,1.8,0.75,2.7,1.13c0.38-0.01,0.76-0.02,1.15-0.03    c0.42-0.36,0.83-0.72,1.25-1.07c0.35-0.24,0.89-0.33,1.07-0.72c1.45-0.04,3.61,0.91,3.39-1.22    C239.31,307.25,239.38,307.12,239.44,306.99z"/>
            <circle cx="193.54" cy="276.92" r="1.586"/>
        </g>
    </g>
</svg>