<?xml version="1.0" encoding="utf-8"?>
<!DOCTYPE svg PUBLIC "-//W3C//DTD SVG 1.1//EN" "http://www.w3.org/Graphics/SVG/1.1/DTD/svg11.dtd">
<svg version="1.1" id="HaritaCizim" xmlns="http://www.w3.org/2000/svg" xmlns:xlink="http://www.w3.org/1999/xlink" x="0px" y="0px" viewBox="0 0 530 400" preserveAspectRatio="none">
    <defs id="__def">
        <radialGradient id="f">
            <stop offset="0" stop-color="white" stop-opacity="1"/>
            <stop id="STOP1" offset=".4" stop-opacity="1"/>
            <stop offset="1" stop-color="white" stop-opacity=".2"/>
        </radialGradient>
        <filter id="__flt1" x="0" y="0" width="200%" height="200%" filterUnits="objectBoundingBox">
            <feGaussianBlur in="SourceAlpha" stdDeviation="3" result="blur1"/>
            <feSpecularLighting result="specOut" in="blur1" specularConstant="1.5" specularExponent="20" lighting-color="#bbbbbb">
                <feDistantLight azimuth="45" elevation="30"/>
            </feSpecularLighting>
            <feComposite in="specOut" in2="SourceAlpha" operator="in" result="specOut"/>
            <feComposite in="SourceGraphic" in2="specOut" operator="arithmetic" k1="0" k2="1" k3="1" k4="0"/>
        </filter>
        <filter id="__flt2" x="0" y="0" width="200%" height="200%" filterUnits="objectBoundingBox">
            <feGaussianBlur in="SourceAlpha" stdDeviation="3" result="blur1"/>
            <feSpecularLighting result="specOut" in="blur1" specularExponent="20" lighting-color="#bbbbbb">
                <fePointLight x="-2000" y="100" z="2000"/>
            </feSpecularLighting>
            <feComposite in="specOut" in2="SourceAlpha" operator="in" result="specOut"/>
            <feComposite in="SourceGraphic" in2="specOut" operator="arithmetic" k1="0" k2="1" k3="1" k4="0"/>
        </filter>
        <filter id="__flt3" x0="-50%" y0="-50%" width="200%" height="200%" filterUnits="objectBoundingBox">
            <feGaussianBlur in="SourceAlpha" stdDeviation="3" result="blur"/>
            <feOffset in="blur" dx="0" dy="0" result="offsetBlur"/>
            <feSpecularLighting in="blur" surfaceScale="4" specularConstant=".5" specularExponent="20" lighting-color="flavor" result="specOut">
                <fePointLight x="-5000" y="-10000" z="5000"/>
            </feSpecularLighting>
            <feComposite in="specOut" in2="SourceAlpha" operator="in" result="specOut"/>
            <feComposite in="SourceGraphic" in2="specOut" operator="arithmetic" k1="0" k2="1" k3="1" k4="0" result="litPaint"/>
            <feMerge>
                <feMergeNode in="offsetBlur"/>
                <feMergeNode in="litPaint"/>
            </feMerge>
        </filter>
        <filter id="__flt4" x0="-50%" y0="-50%" width="200%" height="200%">
            <feGaussianBlur in="SourceAlpha" stdDeviation="2" result="blur"/>
            <feOffset dy="-1" dx="-1"/>
            <feComposite in2="SourceAlpha" operator="arithmetic" k2="-1" k3="1" result="hlDiff"/>
            <feFlood flood-color="white" flood-opacity=".7"/>
            <feComposite in2="hlDiff" operator="in"/>
            <feComposite in2="SourceGraphic" operator="over" result="withGlow"/>
            <feOffset in="blur" dy="3" dx="3"/>
            <feComposite in2="SourceAlpha" operator="arithmetic" k2="-1" k3="1" result="shadowDiff"/>
            <feFlood flood-color="black" flood-opacity="1"/>
            <feComposite in2="shadowDiff" operator="in"/>
            <feComposite in2="withGlow" operator="over"/>
        </filter>
        <filter id="__golge1" x="0" y="0" width="200%" height="200%" filterUnits="userSpaceOnUse">
            <feOffset result="offOut" in="SourceAlpha" dx="8" dy="8"/>
            <feGaussianBlur result="blurOut" in="offOut" stdDeviation="3"/>
            <feBlend in="SourceGraphic" in2="blurOut" mode="normal"/>
        </filter>
    </defs>
    <g id="__Komsular" display="none">
        <text transform="matrix(0.1552 -0.9879 0.9879 0.1552 41.0544 178.8333)" stroke-miterlimit="10" font-family="'MyriadPro-Regular'" font-size="12">MANİSA</text>
        <text transform="matrix(1 0 0 1 284.4663 361.4551)" stroke-miterlimit="10" font-family="'MyriadPro-Regular'" font-size="12">DENİZLİ</text>
        <text transform="matrix(0.2089 -0.9779 0.9779 0.2089 501.7034 237.7744)" stroke-miterlimit="10" font-family="'MyriadPro-Regular'" font-size="12">AFYONKARAHİSAR</text>
        <text transform="matrix(1 0 0 1 251.7131 36.9016)" stroke-miterlimit="10" font-family="'MyriadPro-Regular'" font-size="12">KÜTAHYA</text>
        <path fill-rule="evenodd" clip-rule="evenodd" fill="none" stroke="#000000" stroke-miterlimit="10" d="M169.95,81.56
		c-0.41-1.66-1.36-3.17-2.23-4.4c-1.24-1.76-2.09-1.93-4.18-2.25c-3.77-0.56-7.83-0.44-11.74-0.45c-5.04-0.02-8.83,3.73-13.92,3.42
		c-3.38-0.2-7.5-0.45-10.36-1.99c-2.59-1.39-5.98-4.44-6.98-7.16c-1.28-3.5-1.5-6.68-3.33-10.01c-1.7-3.09-2.75-6.19-4.8-9.17
		c-2.07-3.01-4.28-5.83-5.68-9.21c-0.99-2.41-0.47-5.57-1.83-7.56"/>
        <path fill-rule="evenodd" clip-rule="evenodd" fill="none" stroke="#000000" stroke-miterlimit="10" d="M83.14,340.84
		c-1.73,0.67-2.05,1.55-3.89,1.83c-2.4,0.37-2.26-0.17-2.74,2.29c-0.64,3.26-1.45,3.93-3.96,5.89c-0.75,0.59-2,1.66-2.4,2.41
		c-0.75,1.4,0.01,2.94-0.57,4.25c-0.48,1.11-2.14,1.45-2.26,2.78c-0.11,1.23,1.27,2.23,1.59,3.4c-2.15,0.44-3.09-1.59-5.02-1.79
		c-1.59-0.16-3.18,0.98-4.81,1.14c-1.81,0.18-3.68-0.07-5.5,0c-2.63,0.1-3.15,0.88-5.27,2.23c-2.33,1.49-7.24,2.24-10.09,1.45
		c-1.4-0.39-3.02-2.08-5.03-1.17c-1.08,0.49-1.99,2.36-3.21,3.21"/>
        <path fill-rule="evenodd" clip-rule="evenodd" fill="none" stroke="#000000" stroke-miterlimit="10" d="M402.88,245.79
		c4.01,0.27,6.43,0.66,10.26-0.97c2.93-1.24,7.1-2.67,10.37-0.93c6.5,3.44,8.72,10.44,9.15,17.25c0.28,4.4,0.18,6.89,5.27,6.36
		c3.32-0.34,7.66,0.9,10.76,2.06c1.73,0.65,3.52,0.74,5.22,1.49c1.69,0.75,2.6,1.79,3.99,2.86c1.46,1.13,2.87,1.41,3.39,3.26
		c0.45,1.58,0.17,3.91,0.41,5.5c0.66,4.38-2.58,4.45-3.84,7.78c-1.46,3.86,2.97,6.57,5.21,8.99c1.2,1.29,1.98,2.88,2.98,4.3
		c1.08,1.52,2.54,2.8,3.77,4.29c2.15,2.6,3.64,5.6,5.86,7.9c2.57,2.66,6.71,3.84,8.56,7.23c0.95,1.73,2.17,2.78,2.87,4.68
		c0.5,1.35,0.67,5.38,1.43,5.9"/>
        <path fill-rule="evenodd" clip-rule="evenodd" fill="none" stroke="#000000" stroke-miterlimit="10" d="M467.24,94.62
		c3.71-0.26,6.84-0.24,10.48,0.52c4.11,0.85,5.98,1.07,9.44-1.95c4.83-4.2,10.43-10.68,12.54-16.71c1.24-3.53,0.09-6.72,3.22-9.39
		c2.88-2.47,5.02-3.06,8.75-3.83c3.25-0.68,6.13-3.73,8.49-5.68c2.67-2.2,5.36-4.69,6.81-7.9c1.81-4.01,1.93-8.75,3.03-13"/>
    </g>
    <g id="__Harita" display="none">
        <rect id="__cer" x="0" y="0" fill="#000000" opacity="0" width="530" height="400"/>
        <g id="__Banaz">
            <path d="M403.78,212.3
			c-0.94-1.3-1.88-2.6-2.82-3.9c-0.54-0.52-1.08-1.04-1.62-1.55c-0.84-1.15-1.68-2.29-2.52-3.44c-1.14-1.26-2.41-2.21-3.52-3.61
			c-1.19-1.39-2.39-2.79-3.58-4.18c-0.76-0.53-1.53-1.07-2.29-1.6c-1.09-0.79-2.9-2.98-3.66-4.12c-1.34-2.27-2.67-4.53-4.01-6.8
			c-1.3-2.81-2.57-6.26-5.15-8.09c-0.7-0.21-1.41-0.42-2.11-0.63c-0.47-0.75-4.01-0.3-4.99-0.37c-0.84-0.13-1.68-0.25-2.52-0.38
			c-2.28-0.22-4.59,0.16-6.87,0.46c-1.37-0.08-2.75-0.15-4.12-0.23c-1.66,0.33-3.33,0.65-4.99,0.98c-1.01,0.18-2.02,0.37-3.03,0.55
			c-2.72,0.43-6.75,1.22-9.5,1.67l0.14,0.04c-0.65-0.11-1.19-2.53-1.27-3.25c-0.81-3.28-1.61-6.57-2.42-9.85
			c-0.41-1.47-0.81-2.94-1.22-4.41c-0.05-1.51-0.11-3.02-0.16-4.52c-0.75-0.75-0.68-2.44-0.72-3.44c-0.1-3.06-0.26-6.16,0.45-9.15
			c1.16-3.59,2.31-7.19,3.47-10.78c0.61-1.3,1.22-2.6,1.83-3.89c0.96-3.97,1.45-7.77-0.23-11.68c-1.14-2.66-3.09-5.69-5.73-6.87
			c-0.14-0.49-2.79-2.57-3.33-2.87c-0.49-0.45-0.98-0.89-1.47-1.34c-0.95-0.96-5.74-3.38-7.11-3.58c-3.23-0.48-6.44-0.91-9.48-2.15
			c-1.11-0.52-2.22-1.04-3.34-1.56c-0.92-0.67-1.84-1.35-2.76-2.02c-1.77-0.59-3.95-3.99-4.35-5.73c-0.23-2.06-0.46-4.12-0.69-6.18
			c0.43-1.3,0.85-2.59,1.28-3.89c1.41-3.67,2.81-7.33,4.22-11c0.69-1.3,1.37-2.6,2.06-3.89c0.47-1.93,1.32-3.6,1.68-5.54
			c0.08-0.41,0.44-2.02-0.08-2.02c0.45-0.23,0.91-0.47,1.36-0.7c1.89-0.88,3.8-1.33,5.74-2.05c3.45-1.28,6.91-1.52,10.52-1.92
			c2.52-0.35,5.05-0.71,7.57-1.06c2.59-0.2,5.17-0.41,7.76-0.61c4.61-0.52,9.22-1.03,13.84-1.55c1.89-0.12,3.77-0.24,5.66-0.37
			c3.51,0.23,7.02,0.46,10.54,0.69c3.27,0.23,6.54,0.46,9.81,0.69c1.46,0.53,2.93,1.07,4.39,1.6c6.03,1.45,12.06,2.9,18.09,4.35
			c6.41,0.69,12.83,1.37,19.24,2.06c0.46,0.66,1.8,0.93,2.56,1.19c0.52,0.29,1.05,0.58,1.57,0.87c2.06,0.69,4.12,1.37,6.18,2.06
			c0.46,0.38,0.92,0.76,1.37,1.15c1.45,1.83,2.9,3.66,4.35,5.5c0.69,1.45,1.37,2.9,2.06,4.35c1.59,2.57,2.98,5.11,4.35,7.79
			c-0.24,0.47,0.09,1.31,0.23,1.83c0.51,0.59,1.8,0.8,2.52,0.92c0.31,0.79,3.06,2.36,3.92,2.93c1.15,0.76,2.3,1.52,3.44,2.28
			c3.57,1.32,7.14,2.65,10.72,3.97c0.62,0.25,0.82,0.31,1.09,0.94c-0.12,0.79-0.24,1.57-0.36,2.36c-0.31,0.03-0.63,0.07-0.94,0.1
			c0.07,0.73-0.22,0.82-0.64,1.38c-0.34,0.54,0.09,0.79,0.19,1.55c0.38,1.62,0.75,3.24,1.13,4.85c-0.36,1.76-0.72,3.52-1.07,5.28
			c-0.63,2.74-1.27,5.49-1.9,8.23c-0.53,1.68-1.07,3.36-1.6,5.04c-2.74,3.35-8.07,2.9-11.87,4.51c-2.02,0.85-3.39,1.93-5.08,3.28
			c-1.3,0.92-2.59,1.83-3.89,2.75c-0.73,0.73-1.47,1.47-2.2,2.2c-0.72,0.94-1.44,1.89-2.15,2.83c-1.33,1.65-1.51,3.84-2.29,5.73
			c-0.6,1.45-1.01,2.88-2.29,3.89c0.81,1.78-0.31,3.73-0.5,5.5c-1.21,5.65-2.41,11.3-3.62,16.95c-1.22,3.21-2.44,6.41-3.66,9.62
			c-0.46,0.61-0.92,1.22-1.37,1.83c-2.49,2.45-2.71,6.13-4.58,8.93c-0.53,0.99-1.07,1.99-1.6,2.98c-1.23,1.74-2.46,3.48-3.69,5.23
			c-1.29,2.38-2.58,4.76-3.87,7.14c-1.19,1.71-2.39,3.43-3.58,5.14L403.78,212.3z"/>
            <circle cx="376.77" cy="128.98" r="1.586"/>
        </g>
        <g id="__Uşak">
            <path d="M187.7,200.67
			c-0.46-0.15-0.92-0.31-1.37-0.46c-1.42-0.61-2.84-1.22-4.26-1.83c-1.47-0.37-2.93-0.75-4.4-1.12c-4.85-0.76-9.53-1.33-14.01-3.69
			c-1.98-1.53-3.97-3.05-5.96-4.58c-2.04-0.13-3.97-0.68-5.96-1.15c-0.72,0.44-1.74-0.28-2.52-0.46c-1.38-0.11-2.76-0.22-4.14-0.34
			c-3.14-0.25-6.46,0.31-9.38-0.81c-1.31-2.17-2.81-5.46-2.06-8.02c3.19-2.52,5.64-5.22,6.79-9.15c0.53-1.82-0.04-4.74-1.7-5.65
			c-0.77-0.36-3.22-1.05-3.71-0.31c-0.84-0.38-4.82,1.96-6.41,2.52c0.06,0.14-0.11,0.69-0.8,1.37c0.23,0.75-0.4,1.57-0.99,1.78
			c-0.74-0.26-1.64,0.44-1.64,1.2c-3.65,0.11-8.05,1.22-8.13,1.83c-0.23,0.46-3.09,1.6-3.32,2.06c-0.45,0.48-1.59,1.4-1.37,2.06
			c-2.54,1.54-4.9,3.15-6.87,5.27c-0.53,0.38-1.07,0.76-1.6,1.15c-0.53,0.31-1.07,0.61-1.6,0.92c-1.61,0.96-3.12,1.76-4.78,2.6
			c-1.08,0.81-2.16,1.63-3.24,2.44c-0.7,0.3-2.32,1.26-2.98,0.92c-2.4,1.62-4.91,2.36-7.56,3.44c-3.36,0.92-6.72,1.83-10.08,2.75
			c-0.92,0.08-1.83,0.15-2.75,0.23c-0.68-0.28-1.58-1.44-2.18-0.92c-0.23-0.84,0.11-0.99-0.11-1.83c0.39-2.51,1.56-6.81,2.77-8.91
			c0.52-0.91,1.13-1.84,0.69-2.89c0.3-0.19,0.43-3.54,1.12-3.77c-0.36-3.87,0.17-8.05,0.74-11.9c0.21-1.68,0.42-3.37,0.63-5.05
			c0.33-1.99,1.1-3.79,0.46-5.73c1.14-0.77,2.88-3.89,2.52-4.58c0.2-1.22,0.6-2.45,1.37-3.44c2.9-0.69,5.8-1.37,8.7-2.06
			c1.45-0.06,2.9-0.11,4.35-0.17c4.73-0.48,9.47-0.95,14.2-1.43c1.91-0.52,3.83-1.04,5.74-1.56c2.97-1.08,5.95-2.17,8.92-3.25
			c1.07-0.46,2.14-0.92,3.21-1.37c1.64-1.03,4.98-2.98,6.87-2.98c1.76-1.22,3.51-2.44,5.27-3.66c1.88-1.72,3.77-3.45,5.65-5.17
			c0.09-0.73,0.72-1.28,1.45-1.47c1.45-1.45,2.9-2.9,4.35-4.35c0.31-0.46,0.61-0.92,0.92-1.37c0.31-1.53,0.61-3.05,0.92-4.58
			c0.53-1.45,1.07-2.9,1.6-4.35c0.99-2.24,1.99-4.49,2.98-6.73c0.54-3.32,0.37-6.67,1.12-9.99c0.31-1.15,0.63-2.29,0.94-3.44
			c0.15-0.08,0.31-0.15,0.46-0.23c0.46-0.69,0.92-1.37,1.37-2.06c1.85-1.34,3.7-2.69,5.55-4.03c0.14,0.05,0.27,0.09,0.41,0.14
			c0.69-0.38,1.37-0.76,2.06-1.15c1.68,0.19,3.04-0.19,4.81,0c2.36,0.52,4.72,1.03,7.09,1.55c0.94,0.15,3.77,0.01,4.37,0.52
			c1.72-0.68,4.15-1.49,5.96-0.46c0.87,0.5,1.39,1.47,2.52,1.15c1.46,1.36,2.91,2.72,4.37,4.09c1.06,1.31,2.13,2.62,3.19,3.93
			c2.09,1.14,4.18,2.29,6.27,3.43c0.92,0.56,1.55,1.23,2.2,2.07c0.46,0,0.92,0,1.37,0c0.93,1.67,2.43,2.44,4.12,3.44
			c2.88,1.7,6.63,0.9,9.62,0c0.76,0.46,4.43-0.28,5.15-1.6c1.6-0.46,2.67-0.84,3.21-0.92c2.23-1.27,3-3.09,4.94-4.8
			c0.76-0.69,1.52-1.38,2.28-2.08c1.61-3.3,4.11-6.13,6.2-9.15c1.37-1.68,2.74-3.36,4.11-5.05c8.01-7.52,17.32-7.86,27.67-8.57
			c2.3-0.5,4.61-1,6.91-1.5c1.49,0,3.04-0.79,4.92-1.6c1.52-0.33,3.15-2.03,4.67-2.36c3.29-1.2,6.59-2.4,9.88-3.59
			c1.47-0.58,2.93-1.15,4.4-1.73c0.75-0.31,1.46-0.68,2.01-0.1c0.03,0.11-0.92-0.46-0.92-0.46c0.51,0,0.16,1.6,0.08,2.02
			c-0.36,1.94-1.22,3.61-1.68,5.54c-0.69,1.3-1.37,2.6-2.06,3.89c-1.41,3.67-2.81,7.33-4.22,11c-0.43,1.3-0.85,2.59-1.28,3.89
			c0.23,2.06,0.46,4.12,0.69,6.18c0.4,1.73,2.58,5.14,4.35,5.73c0.92,0.67,1.84,1.35,2.76,2.02c1.11,0.52,2.22,1.04,3.34,1.56
			c3.04,1.23,6.25,1.67,9.48,2.15c1.37,0.2,6.16,2.61,7.11,3.58c0.49,0.45,0.98,0.89,1.47,1.34c0.54,0.3,3.19,2.38,3.33,2.87
			c2.63,1.18,4.59,4.21,5.73,6.87c1.68,3.91,1.19,7.71,0.23,11.68c-0.61,1.3-1.22,2.6-1.83,3.89c-1.16,3.59-2.31,7.19-3.47,10.78
			c-0.71,2.99-0.55,6.09-0.45,9.15c0.03,1-0.04,2.68,0.72,3.44c0.05,1.51,0.1,3.02,0.16,4.52c0.41,1.47,0.81,2.94,1.22,4.41
			c0.81,3.28,1.61,6.57,2.42,9.85c0.09,0.72,0.62,3.14,1.27,3.25l-0.14,0.19c-0.92,0.23-2.09,0.18-3.46,0.8
			c-0.56,0.27-1.13,0.54-1.69,0.82c-0.6,0.05-3.05,0.14-3.66,0.21c-3.17,0.91-6.21,2.32-9.06,3.96c-2.92,1.68-5.73,3.63-8.12,6.12
			c-0.92,1.25-1.84,2.51-2.76,3.76c-1.08,1.1-1.95,2.05-2.79,3.38c-2.06,0.98-5.45,2.92-6.82,4.77c-0.84,0.53-1.68,1.07-2.52,1.6
			c-0.57,0.49-1.55,1.5-2.06,2.06c-1.07,1.76-2.14,3.51-3.21,5.27c-0.13,0.7-0.26,1.4-0.39,2.1c-0.15,1.61,0.14,3.69,0.62,5.23
			c0.38,0.92,0.76,1.83,1.15,2.75c0.23,1.15,0.46,2.29,0.69,3.44c0.67,1.28,1.34,2.57,2.01,3.85c0.58,1.68,0.6,3.81,0.51,5.54
			c0.23,1.3,0.46,2.6,0.69,3.89c-0.38,0.99-0.76,1.99-1.15,2.98c-0.08,0.69-0.15,1.37-0.23,2.06c-0.53,0.76-1.07,1.53-1.6,2.29
			c-2.86-1.15-6.36-0.53-8.93,0.46c-0.84,0.38-1.68,0.76-2.52,1.15c-0.69,0.61-1.37,1.22-2.06,1.83l-1.15,0.69
			c-1.1-1.54-2.57-1.32-4.35-1.83c-0.19-0.62-0.83-0.81-1.37-1.15c-0.92-0.84-1.83-1.68-2.75-2.52c-0.38-0.61-0.76-1.22-1.15-1.83
			c-1.18-3.01-2.33-6.26-2.98-9.39c0.67-1.54-0.73-5.98-1.37-7.56c-1.75-1.51-3.51-3.03-5.26-4.54c-0.74-0.49-3.43-1.73-4.2-1.6
			c-2.66-0.66-5.32-1.32-7.98-1.98c-1.13-0.12-2.27-0.24-3.4-0.36c-0.99-0.33-4.86-1.12-5.68-0.7c-0.78-0.3-1.56-0.6-2.33-0.9
			c-0.03-0.45-0.75-0.73-1.12-0.95c-0.78-0.73-1.57-1.45-2.35-2.18c-0.22-1.02-0.43-2.04-0.65-3.06c-0.69-0.46-1.01-1.96-1.37-2.75
			c-0.6-0.73-1.19-1.45-1.79-2.18c-1.39-1.64-2.78-3.28-4.17-4.92c-0.77,0.01-1.32-1.05-2.06-1.37c-1.45-0.92-2.9-1.83-4.35-2.75
			c-0.84-0.31-1.68-0.61-2.52-0.92c-0.64,0.47-2.2-0.08-2.98-0.09c-1.52,0.11-3.05,0.21-4.57,0.32c-0.51,0.54-1.84,0.62-2.56,0.67
			c-1.51,0.54-3.03,1.08-4.54,1.62c-0.72-0.38-3.06,0.61-3.89,0.92c-1.19-0.39-3.85,1.09-4.56,1.97c-0.62,0.64-1.24,1.28-1.85,1.93
			c-0.53,0.38-1.07,0.76-1.6,1.15L187.7,200.67z"/>
            <circle cx="262.02" cy="154.17" r="1.586"/>
        </g>
        <g id="__Sivaslı">
            <path d="M337.49,269.15
			c-2.27-0.32-4.53-0.63-6.8-0.95c-1.25-0.52-2.5-1.05-3.74-1.57c-2.07-0.68-4.23-1-6.12-2.17c-2-1.64-4.01-3.28-6.01-4.92
			c-1.05-1.06-2.09-2.12-3.14-3.18c-0.66-1.01-1.32-2.03-1.98-3.04c-2.36-1.94-4.73-3.88-7.09-5.82c-1.04-0.72-2.09-1.44-3.13-2.16
			c-1.15-0.15-2.29-0.31-3.44-0.46c-0.81-0.07-2.46-0.55-2.98-1.15l-0.46,0.46c0.53-0.76,1.07-1.53,1.6-2.29
			c0.08-0.69,0.15-1.37,0.23-2.06c0.38-0.99,0.76-1.99,1.15-2.98c-0.23-1.3-0.46-2.6-0.69-3.89c0.09-1.73,0.07-3.86-0.51-5.54
			c-0.67-1.28-1.34-2.57-2.01-3.85c-0.23-1.15-0.46-2.29-0.69-3.44c-0.38-0.92-0.76-1.83-1.15-2.75c-0.47-1.54-0.77-3.62-0.62-5.23
			c0.13-0.7,0.26-1.4,0.39-2.1c1.07-1.76,2.14-3.51,3.21-5.27c0.51-0.56,1.5-1.57,2.06-2.06c0.84-0.53,1.68-1.07,2.52-1.6
			c1.37-1.86,4.76-3.8,6.82-4.77c0.85-1.33,1.71-2.28,2.79-3.38c0.92-1.25,1.84-2.51,2.76-3.76c2.38-2.49,5.19-4.44,8.12-6.12
			c2.85-1.64,5.89-3.05,9.06-3.96c0.61-0.08,3.07-0.17,3.66-0.21c0.56-0.27,1.13-0.54,1.69-0.82c1.37-0.62,2.55-0.57,3.46-0.8v-0.23
			c2.75-0.46,6.78-1.24,9.5-1.67c1.01-0.18,2.02-0.37,3.03-0.55c1.66-0.33,3.33-0.65,4.99-0.98c1.37,0.08,2.75,0.15,4.12,0.23
			c2.29-0.3,4.59-0.68,6.87-0.46c0.84,0.13,1.68,0.25,2.52,0.38c0.98,0.06,4.52-0.38,4.99,0.37c0.7,0.21,1.41,0.42,2.11,0.63
			c2.58,1.83,3.86,5.28,5.15,8.09c1.34,2.27,2.67,4.53,4.01,6.8c0.77,1.14,2.57,3.33,3.66,4.12c0.76,0.53,1.53,1.07,2.29,1.6
			c1.19,1.39,2.39,2.79,3.58,4.18c1.11,1.39,2.39,2.35,3.52,3.61c0.84,1.15,1.68,2.29,2.52,3.44c0.54,0.52,1.08,1.04,1.62,1.55
			c0.94,1.3,1.88,2.6,2.82,3.9c0.7,1.25-0.26,2.2-0.55,3.48c-0.22,1.45-0.43,2.9-0.65,4.35c0.06,0.46,0.13,0.92,0.19,1.37
			c-0.67,0.55-0.33,0.83-0.23,1.6c-0.25,1.98-0.5,3.96-0.75,5.93c-0.96,3.52-1.93,7.04-2.89,10.56c-0.2,2.14,2.42,3.95,3.44,5.6
			c0.5,0.86-1.61,1.4-2.16,1.66c-1.69,0.79-6.01,1.9-7.94,1.9c-4.05,0.23-8.09,0.46-12.14,0.69c-0.28-0.65-1.6-0.89-1.6-1.6
			c-0.46-0.15-0.92-0.31-1.37-0.46c-2.08-1.4-4.07-0.61-6.41-0.46c-2.58,0.16-5.12-0.74-7.56,0.46c-1.26,1.03-2.52,2.06-3.78,3.08
			c0.08,0.14,0.16,0.29,0.24,0.43c-0.3,1.4,0.4,1.95,1.02,3.13c-0.41,0.21-0.33,0.39-0.44,0.82c-0.61,0.01-1.23,0.02-1.84,0.04
			c-1.85,0.35-3.69,0.7-5.54,1.05c-2.79,0.8-5.27,2.25-7.71,3.78c-0.93,0.59-1.53,0.63-2.57,0.73c-0.84,0.69-1.68,1.37-2.52,2.06
			c0,1.31-2.52,4.59-2.52,5.6c0,0.19,0,0.39,0,0.58V269.15z"/>
            <circle cx="353.87" cy="231.13" r="1.586"/>
        </g>
        <g id="__Karahallı">
            <path d="M266.03,306.03
			c-0.15-2.24-0.17-6.08,0.85-8.12c-0.12-1.63,0.36-2.93,0.6-4.51c0.13-1.14,0.25-2.27,0.38-3.41c0.92-2.44,1.83-4.89,2.75-7.33
			c-0.36-0.56,0.02-1.67,0.13-2.31c0.28-1.83,0.57-3.67,0.85-5.5c0.69-3.15,0.6-6.41,0.74-9.6c0.11-2.37,0.56-4.56,0.8-6.94
			c0.23-2.27,1.44-4.65,2.66-6.49c0.64-0.97,2.14-2.31,2.14-3.52l1.05-0.47l0.09-0.22c0.69-0.61,1.37-1.22,2.06-1.83
			c0.84-0.38,1.68-0.76,2.52-1.15c2.58-0.99,6.07-1.6,8.93-0.46l0.46-0.46c0.52,0.6,2.17,1.07,2.98,1.15
			c1.15,0.15,2.29,0.31,3.44,0.46c1.04,0.72,2.09,1.44,3.13,2.16c2.36,1.94,4.73,3.88,7.09,5.82c0.66,1.01,1.32,2.03,1.98,3.04
			c1.05,1.06,2.09,2.12,3.14,3.18c2,1.64,4.01,3.28,6.01,4.92c1.89,1.17,4.05,1.49,6.12,2.17c1.25,0.52,2.5,1.05,3.74,1.57
			c2.27,0.32,4.53,0.63,6.8,0.95c1.2,3.91-2.02,7.2-3.63,10.42c-0.84,1.69-0.54,6.76-0.44,8.84c-0.4,1.98-0.8,3.96-1.2,5.93
			c-0.21,1.97,0.66,4.28,1.55,5.99c0.55,1.45,1.09,2.9,1.64,4.34c1.24,2.08-0.03,4.84,0.3,7.06c0.27,1.83,1.53,3.49,2.46,5.05
			c0.16,0.56,0.62,2.24,0.69,2.52c-0.81,0.08-1.93,2.2-2.51,3c-2.13,2.9-3.47,6.27-4.97,9.42c-0.03,0.06-0.05,0.12-0.08,0.18
			c-0.16-0.07-1.42,0.29-1.9,0.54c-1.81,0.74-3.62,1.47-5.43,2.21c-0.69-0.94-0.69-2.09-0.69-3.21c0.11-2.29-3.75-3.66-5.04-3.89
			c-0.99-0.08-1.98-0.15-2.98-0.23c-0.29-0.46-0.57-0.93-0.86-1.39c-1.16-0.3-2.33-0.6-3.49-0.9c-0.51,0.71-0.95,0.38-1.62,0.16
			c-0.75-0.27-0.02-2.69-0.26-2.81c0-0.04,0-0.09-0.01-0.13c-0.27-1.72-2.76-2.3-4.3-2.66c-0.07-0.02-0.14-0.03-0.21-0.05
			c-0.24,0.72-1.39,0.97-2.04,1.42c-0.62,0.61-1.24,1.21-1.85,1.82c-1.29,1.19-2.86,1.89-4.35,2.71c-1.68-0.56-6.22,1.28-7.79,2.06
			c-1.83-0.53-3.67-1.07-5.5-1.6c-0.92-0.35-1.42-1.12-2.45-1.18c-2.01-2.35-4.02-4.71-6.03-7.06c-2.17,0-4.05-1.71-5.35-3.33
			c-1.54-1.9-0.91-5.73-3.12-7.21V306.03z"/>
            <circle cx="305.08" cy="308.55" r="1.586"/>
        </g>
        <g id="__Ulubey">
            <path d="M199.38,340.38
			c-0.5-0.19-0.99-0.38-1.49-0.57c-0.26,0.33-0.52,0.66-0.77,0.99c0.25,1.31-0.45,2.55-0.26,3.46c0.25,1.22,1.39,1.97,2.06,2.98
			c-0.24-0.06-0.47-0.12-0.71-0.19c-0.41-0.09-1.07-0.56-1.12-0.96c-0.83-0.28-1.41-0.46-2.29-0.46c-0.36,0.5-0.73,1-1.09,1.5
			c0.29,0.72,0.57,1.45,0.86,2.17c0.31,0.31,0.61,0.61,0.92,0.92c0.15,0.76,0.31,1.53,0.46,2.29c0.38,0.31,0.76,0.61,1.15,0.92
			c0.61,0.39,1.6,0.24,2.06,0.92c0.57,0.83,0.16,1.47,0.92,2.29c-1.56,0.37-1.34,1.56-2.06,2.75c0.39,0.56,0.69,0.66,0.69,1.37
			c-0.21,0.8-0.41,1.61-0.62,2.41c-0.33-0.19-0.66-0.39-0.99-0.58c0.04,1.1-0.36,3.55-1.81,3.4c-0.62-0.06-1.24-0.13-1.85-0.19
			c-0.73-0.42-2.49-1.28-3.29-1.39c-0.45-0.06-1.52-0.69-1.52-1.13l-2.08-0.39c-1.43-0.48-1.59-0.17-2.04-1.67
			c-0.99-0.42-2.16-0.17-2.49-1.38c-0.27-0.9-0.04-3.73-0.49-4.12c0.46-1.22,0.92-2.44,1.37-3.66c0-1.15,0-2.29,0-3.44
			c-1.15-2.44-2.29-4.89-3.44-7.33c-0.65-1.83-1.29-3.66-1.94-5.49c-0.94-2.05-2.57-4.25-2.68-6.61c-0.11-2.34-0.91-4.74-1.74-6.93
			c-0.29-0.77-0.65-2.05-1.43-2.5c-0.24-1.16-1.22-3.99-2.29-4.58c-0.38-0.84-0.76-1.68-1.15-2.52c-0.28-0.74-0.32-2.32-0.92-2.75
			c-0.15-2.37-0.31-4.73-0.46-7.1c0.63-3.9,0.86-7.48-0.32-11.24c-0.38-1.22-1.05-4.56-1.97-5.25c0.08-2.52,0.15-5.04,0.23-7.56
			c0.23-0.76,0.46-1.53,0.69-2.29c0.15-2.75,0.31-5.5,0.46-8.25c-0.76-2.98-1.53-5.96-2.29-8.93c-0.61-1.53-1.22-3.05-1.83-4.58
			c0.03-1.51,0.07-3.01,0.1-4.52c0.12-0.63,0.24-1.26,0.36-1.9c0.86-2.32,1.93-4.62,3.44-6.64c1.07-0.99,2.14-1.99,3.21-2.98
			c1.91-0.31,3.82-0.62,5.73-0.92c0.99,0.08,1.98,0.16,2.97,0.24c1-0.05,2.3-0.59,2.58-1.47c0.36-1.16,0.58-1.77-0.11-2.58
			c-0.91-1.02-3.03-4.08-4.31-4.2c-0.53-0.76-1.07-1.53-1.6-2.29c-1.45-1.5-3.2-2.51-4.37-4.12c-0.8-1.1-2.79-3.55-2.45-5.02
			c0.58-2.49,1.85-3.45,3.62-5.28c1.14-1.3,2.29-2.6,3.43-3.9c0.63-0.51,3.67-1.46,4.35-1.15c1.3-0.31,2.6-0.61,3.89-0.92
			c0.97-0.07,1.57-1.04,2.52-1.15c0.76-0.84,1.53-1.68,2.29-2.52c0.23-0.69,0.46-1.37,0.69-2.06c0.53-0.38,1.07-0.76,1.6-1.15
			c0.62-0.64,1.24-1.28,1.85-1.93c0.71-0.88,3.37-2.36,4.56-1.97c0.83-0.31,3.17-1.29,3.89-0.92c1.51-0.54,3.03-1.08,4.54-1.62
			c0.72-0.06,2.05-0.13,2.56-0.67c1.52-0.11,3.05-0.21,4.57-0.32c0.79,0.01,2.35,0.56,2.98,0.09c0.84,0.31,1.68,0.61,2.52,0.92
			c1.45,0.92,2.9,1.83,4.35,2.75c0.74,0.32,1.29,1.39,2.06,1.37c1.39,1.64,2.78,3.28,4.17,4.92c0.6,0.73,1.19,1.45,1.79,2.18
			c0.36,0.79,0.68,2.29,1.37,2.75c0.22,1.02,0.43,2.04,0.65,3.06c0.78,0.73,1.57,1.45,2.35,2.18c0.37,0.23,1.1,0.5,1.12,0.95
			c0.78,0.3,1.56,0.6,2.33,0.9c0.82-0.42,4.69,0.37,5.68,0.7c1.13,0.12,2.27,0.24,3.4,0.36c2.66,0.66,5.32,1.32,7.98,1.98
			c0.78-0.13,3.46,1.11,4.2,1.6c1.75,1.51,3.51,3.03,5.26,4.54c0.64,1.58,2.04,6.02,1.37,7.56c0.65,3.13,1.79,6.38,2.98,9.39
			c0.38,0.61,0.76,1.22,1.15,1.83c0.92,0.84,1.83,1.68,2.75,2.52c0.54,0.34,1.18,0.53,1.37,1.15c1.78,0.51,3.25,0.29,4.35,1.83
			c0,1.21-1.5,2.56-2.14,3.52c-1.23,1.84-2.43,4.22-2.66,6.49c-0.24,2.38-0.69,4.57-0.8,6.94c-0.15,3.18-0.06,6.45-0.74,9.6
			c-0.28,1.83-0.57,3.66-0.85,5.5c-0.1,0.65-0.49,1.75-0.13,2.31c-0.92,2.44-1.83,4.89-2.75,7.33c-0.13,1.14-0.25,2.27-0.38,3.41
			c-0.24,1.58-0.72,2.88-0.6,4.51c-1.02,2.04-1,5.88-0.85,8.12c-2.17,0.97-6.77-0.8-9.39-0.92c-2.04-0.1-3.81,0.93-5.74,1.34
			c-1.12,0.24-2.76,0.28-3.88-0.19c-0.76,0.31-1.53,0.61-2.29,0.92c-1.88,1.71-3.21,5.17-5.96,5.96c-1.53,0.15-3.05,0.31-4.58,0.46
			c-1.58,0.57-3.17,1.13-4.75,1.7c-0.81,0.42-1.61,0.83-2.42,1.25c-0.18,0.05-0.36,0.09-0.54,0.14c-1.19,0.93-4.23,3.56-4.2,5.16
			c-0.54,0.45-1.07,0.91-1.61,1.36c-0.5,0.48-0.53,1.29-1.14,1.62c-0.46,1.32-0.67,2.59-1.37,3.66c-0.67,1.03-1.53,1.11-2.29,1.83
			c-0.42,0.52-0.84,1.03-1.25,1.55c-0.6,0.06-1.38,0.53-1.5,1.2c-0.95,0.89-4,3.75-3.66,5.04c-0.15,0.31-0.31,0.61-0.46,0.92
			c-0.31,0.31-0.61,0.61-0.92,0.92c-0.46,0.23-0.92,0.46-1.37,0.69c-0.65,0.11-1.31,0.21-1.96,0.32c-1.02,0.41-1.34,2.09-2.53,1.42
			c-0.2-0.11-1.5,0.06-1.45-0.84L199.38,340.38z"/>
            <circle cx="219.42" cy="265.49" r="1.586"/>
        </g>
        <g id="__Eşme">
            <path d="M181.51,355.73
			c0.46-1.22,0.92-2.44,1.37-3.66c0-1.15,0-2.29,0-3.44c-1.15-2.44-2.29-4.89-3.44-7.33c-0.65-1.83-1.29-3.66-1.94-5.49
			c-0.94-2.05-2.57-4.25-2.68-6.61c-0.11-2.34-0.91-4.74-1.74-6.93c-0.29-0.77-0.65-2.05-1.43-2.5c-0.24-1.16-1.22-3.99-2.29-4.58
			c-0.38-0.84-0.76-1.68-1.15-2.52c-0.28-0.74-0.32-2.32-0.92-2.75c-0.15-2.37-0.31-4.73-0.46-7.1c0.63-3.9,0.86-7.48-0.32-11.24
			c-0.38-1.22-1.05-4.56-1.97-5.25c0.08-2.52,0.15-5.04,0.23-7.56c0.23-0.76,0.46-1.53,0.69-2.29c0.15-2.75,0.31-5.5,0.46-8.25
			c-0.76-2.98-1.53-5.96-2.29-8.93c-0.61-1.53-1.22-3.05-1.83-4.58c0.03-1.51,0.07-3.01,0.1-4.52c0.12-0.63,0.24-1.26,0.36-1.9
			c0.86-2.32,1.93-4.62,3.44-6.64c1.07-0.99,2.14-1.99,3.21-2.98c1.91-0.31,3.82-0.62,5.73-0.92c0.99,0.08,1.98,0.16,2.97,0.24
			c1-0.05,2.3-0.59,2.58-1.47c0.36-1.16,0.58-1.77-0.11-2.58c-0.91-1.02-3.03-4.08-4.31-4.2c-0.53-0.76-1.07-1.53-1.6-2.29
			c-1.45-1.5-3.2-2.51-4.37-4.12c-0.8-1.1-2.79-3.55-2.45-5.02c0.58-2.49,1.85-3.45,3.62-5.28c1.14-1.3,2.29-2.6,3.43-3.9
			c0.63-0.51,3.67-1.46,4.35-1.15c1.3-0.31,2.6-0.61,3.89-0.92c0.97-0.07,1.57-1.04,2.52-1.15c0.76-0.84,1.53-1.68,2.29-2.52
			c0.23-0.69,0.46-1.37,0.69-2.06l-0.01-0.32l0.01,0.32l-0.46-0.69c-0.46-0.15-0.92-0.31-1.37-0.46c-1.42-0.61-2.84-1.22-4.26-1.83
			c-1.47-0.37-2.93-0.75-4.4-1.12c-4.85-0.76-9.53-1.33-14.01-3.69c-1.98-1.53-3.97-3.05-5.96-4.58c-2.04-0.13-3.97-0.68-5.96-1.15
			c-0.72,0.44-1.74-0.28-2.52-0.46c-1.38-0.11-2.76-0.22-4.14-0.34c-3.14-0.25-6.46,0.31-9.38-0.81c-1.31-2.17-2.81-5.46-2.06-8.02
			c3.19-2.52,5.64-5.22,6.79-9.15c0.53-1.82-0.04-4.74-1.7-5.65c-0.77-0.36-3.22-1.05-3.71-0.31c-0.84-0.38-4.82,1.96-6.41,2.52
			c0.06,0.14-0.11,0.69-0.8,1.37c0.23,0.75-0.4,1.57-0.99,1.78c-0.74-0.26-1.64,0.44-1.64,1.2c-3.65,0.11-8.05,1.22-8.13,1.83
			c-0.23,0.46-3.09,1.6-3.32,2.06c-0.45,0.48-1.59,1.4-1.37,2.06c-2.54,1.54-4.9,3.15-6.87,5.27c-0.53,0.38-1.07,0.76-1.6,1.15
			c-0.53,0.31-1.07,0.61-1.6,0.92c-1.61,0.96-3.12,1.76-4.78,2.6c-1.08,0.81-2.16,1.63-3.24,2.44c-0.7,0.3-2.32,1.26-2.98,0.92
			c-2.4,1.62-4.91,2.36-7.56,3.44c-3.36,0.92-6.72,1.83-10.08,2.75c-0.92,0.08-1.83,0.15-2.75,0.23c-0.68-0.28-1.58-1.44-2.18-0.92
			l-0.8,0.46c-0.76,3.13-1.53,6.26-2.29,9.39c-0.76,7.18-1.53,14.35-2.29,21.53c0.09,1.68,0.19,3.35,0.28,5.03
			c0.21,1.61,0.42,3.21,0.64,4.82c0.53,2.05,1.07,4.09,1.6,6.14c0.15,2.46,0.31,4.92,0.46,7.37c1.37,0.47,0.47-0.04,0.02,1.23
			c-1.81,6.32-4.78,12.28-8.5,17.78c-1.35,1.62-2.71,3.24-4.07,4.86c-0.63,0.7-1.57,1.74-1.66,2.7c-2.07,1.09-3.35,2.84-4.56,4.82
			c-0.47,0.76-0.93,1.52-1.4,2.28c-0.26,1.53-0.52,3.06-0.78,4.6c-0.02,0.59-0.03,1.17-0.05,1.76c-0.16,1.01,0.16,2.66,0.97,3.33
			c2.7,2.42,5.41,4.84,8.11,7.26c0.76,1.15,1.53,2.29,2.29,3.44c1.32,0.98,3.1,1.25,4.59,1.88c0.72,0.3,1.28,0.78,2.05,0.64
			c1.45,1.45,2.9,2.9,4.35,4.35c2.6,2.49,4.61,7.98,5.27,11.45c0.35,1.82,2.9,3.34,2.52,5.27c1.39,3.77,5.18,6.69,5.96,10.76
			c0.46,0.99,0.92,1.99,1.37,2.98c0.24-0.1,0.47-0.2,0.71-0.29c2.34-0.75,5.73-1.34,8.22-1.34c1.34,0,3.09,0.56,4.36,0.03
			c3.9,0.84,7.21,2.73,11.22,2.73c0.98,0,2.09,0.18,2.98-0.21c1.13,0.24,2.06,1.13,3.21,0.23c0.91,0.13,1.63,0.7,2.23-0.05
			c0.4-0.59,0.81-1.19,1.21-1.78c2.02-0.63,4.86-1.58,6.84-0.42c1.54,0.75,3.08,1.5,4.62,2.25c0.84-0.38,1.68-0.76,2.52-1.15
			c0.38,0.61,0.76,1.22,1.15,1.83c0.64-0.5,1.27-1,1.91-1.5c0.43,0.65,0.86,1.3,1.3,1.95c-1.13,1.13-1.93,3.11,0,3.47
			c1.34,0.16,4.85,1.07,5.86,0.06c0.98-0.91,3.59-3.72,4.67-3.99c0.38-0.54,0.76-1.08,1.15-1.62c0.53-0.46,1.07-0.93,1.6-1.39
			c0-0.67-0.22-0.68,0.22-0.64c0.84,0.07,1.68,0.14,2.53,0.21c0.71,0.31,1.42,0.63,2.13,0.94c0.66,0.15,1.33,0.29,1.99,0.44
			c2.07-0.48,4.12-0.46,6.18-0.36c1.4,0.01,2.81,0.01,4.21,0.02c0.67,0.89,0.87,2.08,2.01,2.38c1.67,0.39,3.34,0.78,5,1.17
			c1.08-0.16,2.16-0.31,3.24-0.47c0.67-0.07,2.44-0.27,2.81,0.41c-1.29,3.97,0.56,4.73,2.43,7.84c0,0.8,0.04,3.64,0.24,3.47
			L181.51,355.73z"/>
            <circle cx="113.6" cy="273.96" r="1.586"/>
        </g>
    </g>
</svg>
