<?xml version="1.0" encoding="UTF-8"?>
<!DOCTYPE svg PUBLIC "-//W3C//DTD SVG 1.1//EN" "http://www.w3.org/Graphics/SVG/1.1/DTD/svg11.dtd">
<svg version="1.1" id="HaritaCizim" xmlns="http://www.w3.org/2000/svg" xmlns:xlink="http://www.w3.org/1999/xlink" x="0px" y="0px" viewBox="0 0 600 340" preserveAspectRatio="none">
    <defs id="__def">
        <radialGradient id="f">
            <stop offset="0" stop-color="white" stop-opacity="1"/>
            <stop id="STOP1" offset=".4" stop-opacity="1"/>
            <stop offset="1" stop-color="white" stop-opacity=".2"/>
        </radialGradient>
        <filter id="__flt1" x="0" y="0" width="200%" height="200%" filterUnits="objectBoundingBox">
            <feGaussianBlur in="SourceAlpha" stdDeviation="3" result="blur1"/>
            <feSpecularLighting result="specOut" in="blur1" specularConstant="1.5" specularExponent="20" lighting-color="#bbbbbb">
                <feDistantLight azimuth="45" elevation="30"/>
            </feSpecularLighting>
            <feComposite in="specOut" in2="SourceAlpha" operator="in" result="specOut"/>
            <feComposite in="SourceGraphic" in2="specOut" operator="arithmetic" k1="0" k2="1" k3="1" k4="0"/>
        </filter>
        <filter id="__flt2" x="0" y="0" width="200%" height="200%" filterUnits="objectBoundingBox">
            <feGaussianBlur in="SourceAlpha" stdDeviation="3" result="blur1"/>
            <feSpecularLighting result="specOut" in="blur1" specularExponent="20" lighting-color="#bbbbbb">
                <fePointLight x="-2000" y="100" z="2000"/>
            </feSpecularLighting>
            <feComposite in="specOut" in2="SourceAlpha" operator="in" result="specOut"/>
            <feComposite in="SourceGraphic" in2="specOut" operator="arithmetic" k1="0" k2="1" k3="1" k4="0"/>
        </filter>
        <filter id="__flt3" x0="-50%" y0="-50%" width="200%" height="200%" filterUnits="objectBoundingBox">
            <feGaussianBlur in="SourceAlpha" stdDeviation="3" result="blur"/>
            <feOffset in="blur" dx="0" dy="0" result="offsetBlur"/>
            <feSpecularLighting in="blur" surfaceScale="4" specularConstant=".5" specularExponent="20" lighting-color="flavor" result="specOut">
                <fePointLight x="-5000" y="-10000" z="5000"/>
            </feSpecularLighting>
            <feComposite in="specOut" in2="SourceAlpha" operator="in" result="specOut"/>
            <feComposite in="SourceGraphic" in2="specOut" operator="arithmetic" k1="0" k2="1" k3="1" k4="0" result="litPaint"/>
            <feMerge>
                <feMergeNode in="offsetBlur"/>
                <feMergeNode in="litPaint"/>
            </feMerge>
        </filter>
        <filter id="__flt4" x0="-50%" y0="-50%" width="200%" height="200%">
            <feGaussianBlur in="SourceAlpha" stdDeviation="2" result="blur"/>
            <feOffset dy="-1" dx="-1"/>
            <feComposite in2="SourceAlpha" operator="arithmetic" k2="-1" k3="1" result="hlDiff"/>
            <feFlood flood-color="white" flood-opacity=".7"/>
            <feComposite in2="hlDiff" operator="in"/>
            <feComposite in2="SourceGraphic" operator="over" result="withGlow"/>
            <feOffset in="blur" dy="3" dx="3"/>
            <feComposite in2="SourceAlpha" operator="arithmetic" k2="-1" k3="1" result="shadowDiff"/>
            <feFlood flood-color="black" flood-opacity="1"/>
            <feComposite in2="shadowDiff" operator="in"/>
            <feComposite in2="withGlow" operator="over"/>
        </filter>
        <filter id="__golge1" x="0" y="0" width="200%" height="200%" filterUnits="userSpaceOnUse">
            <feOffset result="offOut" in="SourceAlpha" dx="8" dy="8"/>
            <feGaussianBlur result="blurOut" in="offOut" stdDeviation="3"/>
            <feBlend in="SourceGraphic" in2="blurOut" mode="normal"/>
        </filter>
    </defs>
    <g id="__Harita" fill="white" stroke="#000000" stroke-width="0.25" stroke-miterlimit="10" display="none">
        <rect id="__cer" x="0" y="0" fill="#000000" opacity="0" width="600" height="700"/>
        <g id="__Çınarcık">
            <path d="   M311.46,121.27c-1.14,0.39-2.28,0.77-3.42,1.16c-2.94,0-5.88,0-8.81,0c-1.61,0.06-3.22,0.13-4.83,0.19   c-2.59-1.32-5.19-2.64-7.78-3.95c-0.67-0.25-2.76-1.32-2.84-0.25c-0.03,0.99-0.18,1.43,0.47,2.25c-0.53,2.21-1,4.21-2.82,5.43   c-0.82,0.69-1.64,1.38-2.47,2.07c-1.18,0.29-2.35,0.59-3.53,0.88c-1.6-0.43-3.24-0.63-4.85,0c-2.35,1.17-4.7,2.35-7.05,3.53   c-3.19,0.35-6.37,0.7-9.56,1.05c-2.11-0.23-3.32-1.88-5.62-1.58c-0.23-0.26-0.46-0.52-0.69-0.79c-4.25,0.55-9.02,0.08-13.22,1.76   c-2.79-1.18-5.58-2.35-8.37-3.53c-2.64,0.15-5.29,0.29-7.93,0.44c-1.76,0.32-3.52,0.63-5.27,0.95c-2.29-0.2-8.82-1.05-10.15,0.81   c-1.16-0.04-2.21-0.34-3.09,0.44c-1.96-0.5-5.55-1.7-7.05,0c-3.15-0.49-4.77-0.4-7.66,0.95c-0.9,0.42-1.59,0.34-2.04,1.25   c-1.12,0.39-1.49,0.29-2.2,1.32c-2.29,0.29-3.77,1.59-5.73,2.64c-1.61,0.6-3.9,2.71-5.51,3.31c-2.61,4.75-7.6,7.31-7.71,13.44   c-1.05,0.98-5.25,4.5-5.29,5.73c-3.69,2.39-6.16,5.45-9.39,8c-1.14,0.89-3.21,3.33-4.71,2.58c-1.79,1.3-3.09,2.61-5.26,3.18   c-1.31,0.35-3.93,0.94-4.74,2.32c-0.29,0.5-0.34,1.1-0.02,1.82c0.92,1.77,2.63,3.42,4.28,4.57c0.17,0.77,1.23,4.82,1.71,4.96   c3.45,3.01,4.8-3.33,9.85,2.35c1.27,0.29,2.52,0.7,2.99,1.94c1.63-0.95,3.47-2.28,4.82-0.88c1.11,1.18,5.24,6.61,4.43,7.62   c-0.96,1.13-2.79,3.88-1.29,5.11c2,1.27,4,2.54,6,3.81c1.65-1.14,4.42-5.14,6.58-1.85c1.92,1.62,3.42,1.06,5.22,2.18   c0.35,0.17,0.7,0.35,1.05,0.52c0.07,1.18-0.3,1.15,0.5,1.07c1.98-0.12,3.07-0.24,4.88-1.09c1.5-0.68-1.57-2.14,1.83-2.99   c3.15-0.56,7.22,2.02,10.48,2.82c0.96,0.24,2.86,1.06,3.55,0.47c2.59-2.22,2.1-4.88,2.63-7.99c0.15-0.91,0.6-1.72,1.32-2.2   c0.61-2.63,1.77-4.03,3.9-5.77c1.12-0.91,2.72-2.73,4.04-2.6c-0.07-0.75-0.54-2.67-0.04-2.53c1.87,0.5,6.21,3.95,7.09,3.86   c2.84,3.93,6.53,9.3,11.94,9.83c2.04-0.34,4.09-0.68,6.13-1.02c0.66-0.53,1.39-1.46,2.2-1.32c0.59-1.47,1.18-2.94,1.76-4.41   c1.28-2.05,2.48-2.8,3.97-4.41c2.1-0.54,9.12-2.9,10.44,0.47c0.38,1.28,1.06,4.83,0.14,5.7c0.29,0.02,0.59,0.04,0.88,0.06   c0.29,0.13,0.59,0.26,0.88,0.39c1.65-1.39,3.66-2.81,5.98-2.42c1.77,0.3,6.75,1.21,7.69,2.42c1.03-0.29,2.06-0.59,3.09-0.88   c2.19-3.49-0.53-4.72,3.53-6.61c0.4-1.48,0.02-2.71,1.32-3.97c2.16-1.67,4.32-3.34,6.47-5.01c1.22-0.53,2.44-1.07,3.66-1.6   c-0.16-0.46-0.32-0.93-0.48-1.39c-0.19-0.75-0.12-0.84-0.84-1.25c-0.15-1.47-0.29-2.94-0.44-4.41c-0.06-0.65-0.64-2.06-0.14-2.41   c2.19-1.44,4.32-2.73,5.8-4.71c0.23-1.43,0.46-2.86,0.69-4.28c0.34-1.32,1.48-2.15,1.14-3.58c2.05-2.56,4.59-4.15,4.13-7.91   c-0.25-2.02-2.72-7.08-1.8-8.61c1.78-3.02-0.57-6.22,6.51-6.78c0.61-0.75,1.75-0.94,2.62-0.51c0.96-0.24,1.31-0.52,2.2,0   c0.73-0.29,1.47-0.59,2.2-0.88c1.76-0.88,1.76-0.88,2.64-1.54c1.27-2.28,2.25-6.09,3.53-8.37   C315.54,120.88,312.75,121.09,311.46,121.27z"/>
            <circle cx="267.72" cy="134.76" r="1.586"/>
        </g>
        <g id="__Çiftlikköy">
            <path d="   M460.53,217.18c0.82,0,1.27-1.96,1.52-2.73c0.71-2.17-0.52-5.4,0.25-8.29c-0.93-0.93,1.03-2.35,1.76-3.08c0-1.51,0.49-2,0-3.53   c0.88-1.47,1.76-2.94,2.64-4.41c0-1.18,0-2.35,0-3.53c0.29-0.29,0.59-0.59,0.88-0.88c0-1.29,0.06-1.7-0.88-2.64   c0-1.53,0.2-3.02-0.44-4.41c1.76-4.85,3.53-9.7,5.29-14.54c1.24-1.82,2.91-2.91,4.41-4.41c1.03-0.29,2.06-0.59,3.08-0.88   c1.91-4.06,2.83-5.13,6.61-7.49c2.06,0,4.57-0.35,6.17-1.76c0.29-0.73,0.59-1.47,0.88-2.2c1.35,1.35,6.67,0.62,7.19-1.42   c0.48-1.73,0.61-3.08,1.18-4.75c-0.15-0.15-0.29-0.29-0.44-0.44c-0.29,0.15-0.59,0.29-0.88,0.44c-4.35-2.17-6.43-0.04-10.58-3.97   c-0.44,0.15-0.88,0.29-1.32,0.44c-1.32-0.15-2.64-0.29-3.97-0.44c-1.45-0.05-5.29,1.28-6-0.08c-0.5-0.56-0.99-1.12-1.49-1.68   c-0.29-0.73-0.59-1.47-0.88-2.2c0.15-0.29,0.29-0.59,0.44-0.88c0.15-2.35,0.29-4.7,0.44-7.05c0.36-0.81,0.73-1.62,1.09-2.42   c-1.6-1.55-7.43-7.05-7.19-9.38c0.23-1.92,0.45-3.85,0.67-5.77c0.78-2.37,1.56-4.74,2.34-7.11c0.39-1.72-1.73-4.44-0.44-5.73   c-0.87-1.62-3.02-4.88-1.25-5.96l-0.29,0.24c-0.13-0.39-1.41-0.05-1.54-0.44c-1.62,1.81-4.47,1.54-6.63,0.74   c-2.79-1.13-5.57-2.26-8.36-3.39c-2.2-1.85-4.4-3.71-6.6-5.56c-1.36-0.58-2.73-1.16-4.09-1.74c-1.58,0.23-3.16,0.46-4.74,0.69   c-1.79-1.94-5.51-0.21-7.09,1.35c-4.7,4.63-9.5,8.66-12.74,14.52c-1.91,0.14-3.83,0.28-5.74,0.43c-0.92,0.03-0.43,4.42,0.9,4.42   c-4.31,2.51-7.65,4.76-12.78,4.41c-0.94,1.24-8.03,1.78-10.14,2.2c-0.29-0.15-1.84,0.44-2.13,0.3l-1.84,1.03   c1.13,0.73,1.32,0.86,1.32,2.19c0,1.32-0.4,3.01-1.32,3.98c0.29,1.03,0.59,2.06,0.88,3.08c-0.15,0.59-0.29,1.18-0.44,1.76   c-1.23,1.23-3.23,5.59-1.76,7.05c1.12,1.98,3.72,3.05,3.97,4.85c0.82,0.33,1.36,0.82,2.2,0.44c0.59,0.73,1.18,1.47,1.76,2.2   c0.15,1.18,0.29,2.35,0.44,3.53c0.29,0.59,0.59,1.18,0.88,1.76c0,0.92,0.08,1.72,0.88,2.2c0.15,1.32,0.29,2.64,0.44,3.97   c2.47,2.47,2.37,9.65,1.32,12.78c1.18,1.62,2.35,3.23,3.53,4.85c-0.52,0-1.32,2.65-1.16,3.02c1.11,2.31,3.22,1.6,5.12,3.15   c0.59,2.64,1.18,5.29,1.76,7.93c1.05,0.97,2.09,1.95,3.14,2.92c2.97,1.96,4.69,4.25,4.82,8.04c0.82,0.99-0.15,1.7,0.85,2.7   c-0.43,0.49-0.86,0.98-1.29,1.47l-0.69,0.59c1.44,0.59,1.86,0.44,3.31,1.02c3.57,0.75,7.13,1.5,10.7,2.25   c2.9,0.86,5.46,1.26,8.25,2.6c0.47,3.83,5.49,6.06,8.37,7.93c0.87-0.4,1.37,0.09,2.2,0.44c1.98-1.24,10.72,2.79,12.34,4.41   L460.53,217.18z"/>
            <circle cx="404.78" cy="116.25" r="1.586"/>
        </g>
        <g id="__Altınova">
            <path d="   M548.8,98.77c-0.57,0.89-1.14,1.77-1.71,2.66c-0.79,0.09-1.59,0.18-2.38,0.28c0,3.04-2.09,7.21-5.73,7.93   c0.8,0.8-1.09,1.56-1.91,1.94c-1.36,0.63-4.04,2.69-5.58,1.14c0.29,0.59,0.59,1.18,0.88,1.76c0.56,0.4,1.11,0.81,1.67,1.21   c2.11,2.07,2.74,4.35,2.74,7.16c-0.29,0.44-0.59,0.88-0.88,1.32c-0.29-0.15-0.59-0.29-0.88-0.44c-1.32,0.59-2.64,1.18-3.97,1.76   c-3.45-0.11-6.95,1.83-10.14,2.64c-1.18,1.17-2.35,2.35-3.53,3.53c-0.96,0-4.85,1.65-4.85,2.64c0,1.2-0.67,2.05-1.32,3.08   c0,1.01,0.77,1.88,0,2.64c0.15-0.15,0.29-0.29,0.44-0.44c-0.18,0.77-0.36,1.53-0.54,2.3c0.36,1.28,1.26,1.54,0.54,2.99   c0.85-0.85,0.87,5.3-0.44,6.61c1.4,4.41,3.01,0.74,3.08,11.02c-0.29,1.03-0.59,2.06-0.88,3.09c-0.54,0.94-1.22,1.05-1.76,1.76   c-0.59,2.35-1.18,4.7-1.76,7.05c-1.54,1.13-2.1,1.61-1.02,3.32c1.11,1.95,4.1,1.25,4.1,3.29c-0.15,0.44-0.3,0.87-0.45,1.31   c0.15,1.03,0.67,1.48,0.82,2.51c-0.44,0.29-2.35,1.76-2.79,2.06c0.29,0.88,1.69,1.17,1.98,2.05c-0.99,2.22-3.19,7.19-5.15,8.11   c-1.02,0.45-2.81,2.44-4.1,1.14c-1.62,0.72-2.11,1.75-3.97,2.2c-1.01,0.24-1.83-0.82-2.64-1.32c-1.52,0-2.42,0.23-3.53-0.88   c-2.03,0-7.41,2.03-8.37,3.53c0,2.44-0.96,4.85-0.66,6.61c-0.67,0.88-2.94-0.88-5.73,1.91c1.47,2.94,1.61,4.74,0.59,6.02   c-0.29,2.2-0.15,1.62-0.59,3.97c-2.2-0.59-3.08-2.79-5.14-1.91c-0.29,0.13-1.4,0.46-1.69,0.58c-0.58-0.58-0.98-0.44-1.76-0.44   c-1.8-1.8-3.89-1.32-7.05-0.44c-0.73-0.29-1.47-0.59-2.2-0.88c0.82,0,1.27-1.96,1.52-2.73c0.71-2.17-0.52-5.4,0.25-8.29   c-0.93-0.93,1.03-2.35,1.76-3.08c0-1.51,0.49-2,0-3.53c0.88-1.47,1.76-2.94,2.64-4.41c0-1.18,0-2.35,0-3.53   c0.29-0.29,0.59-0.59,0.88-0.88c0-1.29,0.06-1.7-0.88-2.64c0-1.53,0.2-3.02-0.44-4.41c1.76-4.85,3.53-9.7,5.29-14.54   c1.24-1.82,2.91-2.91,4.41-4.41c1.03-0.29,2.06-0.59,3.08-0.88c1.91-4.06,2.83-5.13,6.61-7.49c2.06,0,4.57-0.35,6.17-1.76   c0.29-0.73,0.59-1.47,0.88-2.2c1.35,1.35,6.67,0.62,7.19-1.42c0.48-1.73,0.61-3.08,1.18-4.75c-0.15-0.15-0.29-0.29-0.44-0.44   c-0.29,0.15-0.59,0.29-0.88,0.44c-4.35-2.17-6.43-0.04-10.58-3.97c-0.44,0.15-0.88,0.29-1.32,0.44c-1.32-0.15-2.64-0.29-3.97-0.44   c-1.45-0.05-5.29,1.28-6-0.08c-0.5-0.56-0.99-1.12-1.49-1.68c-0.29-0.73-0.59-1.47-0.88-2.2c0.15-0.29,0.29-0.59,0.44-0.88   c0.15-2.35,0.29-4.7,0.44-7.05c0.36-0.81,0.73-1.62,1.09-2.42c-1.6-1.55-7.43-7.05-7.19-9.38c0.23-1.92,0.45-3.85,0.67-5.77   c0.78-2.37,1.56-4.74,2.34-7.11c0.39-1.72-1.73-4.44-0.44-5.73c-0.87-1.62-3.02-4.88-1.25-5.96c0.42-0.07,0.84-0.14,1.25-0.21   c1.91-1.18,3.82-2.35,5.73-3.53c1.18,0,1.66-0.25,2.64-0.88c2.08,0,5.62,0.16,7.05-0.88c1.62-2.2,3.6-3.08,5.21-5.29   c-0.15-0.88-0.66-3.09-0.81-3.97c0.44-0.88,0.88-1.76,1.32-2.64c1.62-1.47,3.23-2.94,4.85-4.41c0.44-0.88,0.88-1.76,1.32-2.64   c0.14,0,4.55-2.35,4.85-2.64c1.79,0,2.78-1.02,3.97-2.2c1.66,0,5.29-1.99,5.29-3.97c1.47-1.32,2.94-2.64,4.41-3.97   c0-2.72,2.08-4.01,2.86-6.75c-0.11,0.42,1.87,0.35,1.18,0.59c0.26,1.34,0.11,2.62,0.37,3.96c-0.15,0.88-0.29,1.76-0.44,2.64   c0.35,1.29,0.7,2.59,1.05,3.88c-0.06,0.91-0.11,1.82-0.17,2.73c-1.55,0-5.73,3.49-5.73,4.85c0,0.94-0.24,1.96,0.44,2.64   c0.5,0,0.83,0.83,1.32,1.32c1.85,0,2.76,1.76,4.85,1.76c2.51-0.61,4.36-1.04,7.05-0.65c0.87,0.13,2.2-0.06,2.2,1.09   c0.88,1.62,1.76,3.23,2.64,4.85c1.33,0.69,6.17,7.62,6.17,9.26c1.21,1.21,2.64,2.24,2.64,3.97c1.62,1.47,3.23,2.94,4.85,4.41   C549.6,97.79,549.2,98.28,548.8,98.77z"/>
            <circle cx="525.54" cy="87.6" r="1.586"/>
        </g>
        <g id="__Armutlu">
            <path d="   M199.2,209.3c-0.69,0.59-2.6-0.23-3.55-0.47c-3.26-0.8-7.33-3.39-10.48-2.82c-3.4,0.85-0.33,2.31-1.83,2.99   c-1.81,0.85-2.89,0.96-4.88,1.09c-0.8,0.08-0.42,0.11-0.5-1.07c-0.35-0.17-0.7-0.35-1.05-0.52c-1.8-1.12-3.3-0.56-5.22-2.18   c-2.16-3.3-4.93,0.71-6.58,1.85c-2-1.27-4-2.54-6-3.81c-1.49-1.23,0.34-3.98,1.29-5.11c0.81-1.01-3.32-6.43-4.43-7.62   c-1.35-1.4-3.19-0.07-4.82,0.88c-0.47-1.24-1.72-1.65-2.99-1.94c-5.04-5.69-6.4,0.65-9.85-2.35c-0.47-0.14-1.53-4.19-1.71-4.96   c-1.65-1.15-3.36-2.8-4.28-4.57c-0.33-0.73-0.27-1.33,0.02-1.82l-1.28,0.02c-0.5,0.66-1,1.31-1.5,1.97   c-2.21,1.24-4.43,2.49-6.64,3.73c-0.97,1.59-3.73,2.6-5.56,2.82c-0.94,0.47-1.87,0.94-2.81,1.4c-1.35,1.35-8.13,3.72-10.11,3.94   c-2.07,0.23-7.05,3.2-8.37,2.2c-1.63,1.02-5.59,3.53-7.49,3.53c-1.07,1.07-2.83,2.28-4.41,2.64c-2.06,0.48-7.25,0.29-9.26,0   c-1.76,1.62-3.53,3.23-5.29,4.85c-2.44,0-6.49,3.55-8.5,5.14c-1.31,1.04-4.37,3.26-2.96,5c-0.59,0.73-1.18,1.47-1.76,2.2   c0,1.63-0.1,2.63-0.99,4.05c-0.64,1.03-1.56,2.51-2.97,2.12c-2.01,2.98-1.93,6.32-2.2,9.7c-0.1,1.21-0.58,6.31,0.29,6.76   c1.58,0.86,4.61,1.84,6.32,0.73c1.51,0.62,2.38,1.4,3.44,2.63c0.68,0.28,1.37,0.55,2.05,0.83c0.37-0.12,0.74-0.25,1.12-0.37   c2.06,0.15,4.11,0.29,6.17,0.44c1.25,1.25,5.35,1.99,7.05,1.76c1.61,1.61,6.44,2.07,8.7,2.42c1.04-0.21,2.08-0.41,3.11-0.62   c3.11,0.87,6.23,1.74,9.34,2.6c1.88,1.34,4.24,3.69,4.85,6.17c1.47,1.03,2.94,2.06,4.41,3.08c1.03,1.03,2.06,2.06,3.08,3.08   c0.88,1.63,1.45,3.62,3.53,3.97c0.67,3.01,2.06,4.26,3.97,6.61c1.75,0.45,3.5,0.9,5.25,1.35c2.57,1.41,4.67,2.98,7.34,4.21   c1.15-0.5,3.02,0.1,4.16,0.61c1.78,0.78,3.24,3.43,5.29,2.64c2.23,1.51,4.31,2.57,7.05,2.64c1.12,0.82,2.11,1.61,3.53,1.76   c1.76,0.15,3.53,0.29,5.29,0.44c0.73-0.29,1.47-0.59,2.2-0.88c0.88,0,1.76,0,2.64,0c3.82,0.88,7.64,1.76,11.46,2.64   c0.6,0.64,3.56,3.5,3.82,3.31c0.64-0.37,1.28-0.73,1.91-1.1c0.9-1.74,2.55-5.64,4.26-5.83c2.75-0.22,5.45-1.48,8.08-2.55   c1.74-0.71,3.54-0.03,4.85-1.76c1.28-0.12,1.91-0.02,2.75-1.14c0.2-0.63,0.4-1.26,0.61-1.89c-2.77-6-8.56-3.66-11.75-9.75   c-0.53-1-2.57-2.77-2-3.91c0.71-1.38,1.78-3.14,3.33-3.58c2.82-4.06,5.78-7.19,7.29-11.87c0.66-2.04,2.61-2.1,2.23-4.34   c-0.22-0.91-0.43-1.82-0.65-2.73c-1.65-1.51-3.23-6.4-1.82-8.39c-0.6-4.65,0.9-9.78,2.2-14.54c0.26-1.86,0.52-3.73,0.79-5.59   L199.2,209.3z"/>
            <circle cx="110.6" cy="235.03" r="1.586"/>
        </g>
        <g id="__Termal">
            <path d="M327.66,189.14c-1.54-1.67-3.08-3.34-4.63-5.01   c-0.14-1.49-1.15-3.67,0-4.85c-0.72-1.04-0.96-1.97-2.2-2.2c-0.14-0.7-0.28-1.4-0.42-2.1c-0.37,0.77-0.52,1.58-0.02,2.54   c0.15,0.29,0.29,0.59,0.44,0.88c-0.61-0.61-1.76-0.81-1.76-1.76c0-0.82,0.23-1.76-0.88-1.76c-0.22,2.14-1.7,0.43-2.64,2.2   c-0.92,1.72-2.32,2.76-3.08,3.53c-1.08,0-2.31,0.54-3.02,1.25c-1.41,0.73-1.83,0.8-1.83-0.81c0.69-0.69,1.7-0.44,2.64-0.44   c1.22-1.22,1.3-2.2,3.08-2.2c0.67-0.67,0.88-0.82,0.88-1.76c0.73-0.73,1.47-1.47,2.2-2.2c0.95-0.95-0.14-1.46-0.88-2.2   c-0.59,0.15-1.18,0.29-1.76,0.44c-1.03-0.73-2.06-1.47-3.09-2.2c-0.08-0.34-0.16-0.68-0.23-1.02c0-0.52,0.01-1.04,0.01-1.56   c3.09,1.03,2.18-0.36,3.31,3.02c0.6,0,1.19,0,1.79,0c0.79,0,1.01-0.29,0.41-0.88c0-2.63,2.64-2.61,2.64-0.88   c0.59-0.44,1.18-0.88,1.76-1.32c1.16,0,1.15,1.54,1.41,2.47c0.92-1.8,3.53-6.41,5.2-6.44c0.07-0.83,0.14-1.65,0.21-2.48   c-3.66-2.51-2.48-4.57-6.3-3.69c0.09-0.27-1.03-1.32-0.25-2.14c0.53-1.48,1.66-2.65,3.26-2.71c1.95-1.89,6.45-5.98,6.2-8.36   c-0.37-2.7-3.66-4.6-3.99-7.07c-1.49-0.9-2.76-0.13-3.6-1.76c-0.73-0.88-0.59-1.58-0.67-2.62c-0.19-0.3-0.9-3.1-1.09-3.4   c1.47-1.62,1.24-3.83,3.67-5c0.02-0.71-0.29-0.73,0.28-2.22l-0.28,0.02c-8.96,0.44-7.05-1.91-8.96,0.59   c-1.61,2.11-0.73,5.88-3.01,8c-0.88,0.66-0.88,0.66-2.64,1.54c-0.73,0.29-1.47,0.59-2.2,0.88c-0.89-0.52-1.25-0.24-2.2,0   c-0.87-0.44-2.01-0.24-2.62,0.51c-7.09,0.56-4.74,3.76-6.51,6.78c-0.92,1.53,1.56,6.59,1.8,8.61c0.46,3.75-2.08,5.34-4.13,7.91   c0.33,1.43-0.8,2.26-1.14,3.58c-0.23,1.43-0.46,2.86-0.69,4.28c-1.48,1.98-3.61,3.27-5.8,4.71c-0.51,0.35,0.08,1.76,0.14,2.41   c0.15,1.47,0.29,2.94,0.44,4.41c0.72,0.41,0.65,0.51,0.84,1.25c0.16,0.46,0.32,0.93,0.48,1.39c-1.22,0.53-2.44,1.07-3.66,1.6   c-2.16,1.67-4.32,3.34-6.47,5.01c-1.17,1.13-0.98,2.24-1.22,3.54c0.7,0.27,0.33-0.17,1.18,0.09c1.72,0.51,6.15,0.73,7.09,1.67   c0.9,0,2.2,0.18,2.2,1.32c1.11,1.11,4.85,5.26,4.85,6.61c0,0.97-0.21,1.42,0.44,2.2c-1.06,2.13-0.44,1.17-0.44,3.08   c-1.03,1.17-2.06,2.35-3.09,3.53c0,0.29,0,0.59,0,0.88c0.59,0.73,1.18,1.47,1.76,2.2c0.91,0,1.49,0.29,2.2,0.88   c0.88,1.03,1.76,2.06,2.64,3.08c0.94,0,1.96-0.24,2.64,0.44c-0.15,0.44-0.29,0.88-0.44,1.32c0.15,0.88,0.29,1.76,0.44,2.64   c0.73,0.59,1.47,1.18,2.2,1.76c0.59,0.73,1.18,1.47,1.76,2.2c1.62,0.44,3.23,0.88,4.85,1.32c0.69-0.34,3.72-2.34,4.31-2.61   c0.58-0.58,1.66-1.53,1.78-1.79c2.5-6.17,2.64-1.32,3.82-3.82c-0.19-1.49-2.5-3.97-0.22-5.44c-0.31-1.21-2.57-7.64,2.13-5.73   c1.72-1.52,2.32-5.72,4.92-3.97c0.79-2.25,1.59-4.51,2.38-6.76c0.38-0.1,0.76-0.19,1.14-0.29c-0.23-1.45-0.53-3.78,0.44-4.85   C327.8,189.32,327.73,189.23,327.66,189.14z"/>
            <circle cx="303.86" cy="166.49" r="1.586"/>
        </g>
        <g id="__Yalova">
            <path d="   M324.71,122.41c3.32-0.02,6.65-0.05,9.97-0.07c1.22-0.63,4.09-0.85,5.61-0.65c3.35-2.44,7.04-1.78,10.51-1.03   c0.7,0.15,1.28,0.04,1.76-0.44c1.91,0.29,3.82,0.59,5.73,0.88c3.38-0.59,6.76-1.18,10.14-1.76c0.83-0.83,2.17-1.36,3.09-0.44   c5.43-1.91,10.87-3.82,16.31-5.73c1.13,0.73,1.32,0.86,1.32,2.19c0,1.32-0.4,3.01-1.32,3.98c0.29,1.03,0.59,2.06,0.88,3.08   c-0.15,0.59-0.29,1.18-0.44,1.76c-1.23,1.23-3.23,5.59-1.76,7.05c1.12,1.98,3.72,3.05,3.97,4.85c0.82,0.33,1.36,0.82,2.2,0.44   c0.59,0.73,1.18,1.47,1.76,2.2c0.15,1.18,0.29,2.35,0.44,3.53c0.29,0.59,0.59,1.18,0.88,1.76c0,0.92,0.08,1.72,0.88,2.2   c0.15,1.32,0.29,2.64,0.44,3.97c2.47,2.47,2.37,9.65,1.32,12.78c1.18,1.62,2.35,3.23,3.53,4.85c-0.52,0-1.32,2.65-1.16,3.02   c1.11,2.31,3.22,1.6,5.12,3.15c0.59,2.64,1.18,5.29,1.76,7.93c1.05,0.97,2.09,1.95,3.14,2.92c2.97,1.96,4.69,4.25,4.82,8.04   c0.82,0.99-0.15,1.7,0.85,2.7c-0.43,0.49-0.86,0.98-1.29,1.47c-1.21,0.81-0.42,0.73-2.23,0.73c-3.22,3.22-7.43,6.62-9.09,11.2   c-1.8,4.94-2.89,10-5.9,14.36c-1.08,1.56-0.82,4.57-3.08,4.85c-0.14,1.09-0.44,1.41,0.44,2.2c-0.57,0.57-1.78,2.2-2.19,2.11   c-1.77-0.41-5.08-2.56-6.62-1.67c-2.03-1.68-4.27-4.08-7.05-3.97c-1.03-0.73-2.06-1.47-3.08-2.2c-2.18-0.45-7.51-0.82-8.37,1.76   c-1.32-0.88-2.64-1.76-3.97-2.64c-2.49-0.08-10.22-0.46-9.7,3.53c-2.07-0.06-8.64-0.79-9.76,1.46c-1.46,2.84-1.47,8.39-6.53,8.11   c-0.9-0.08-1.81-0.16-2.71-0.23c-0.02-2.14-4.06-2.63-5.23-1.85c-1.26-0.95-2.52-1.89-3.77-2.84c-1.54-1.12-3.85-2.4-2.84-4.66   c-0.73-0.73,0.66-3.38-2.2-2.2c-3.45-2.94-6.76-1.76-10.14-2.64c0.17-0.34,1.96-1.86,2.13-2.2c2.5-6.17,2.64-1.32,3.82-3.82   c-0.19-1.49-2.5-3.97-0.22-5.44c-0.31-1.21-2.57-7.64,2.13-5.73c1.72-1.52,2.32-5.72,4.92-3.97c0.79-2.25,1.59-4.51,2.38-6.76   c0.38-0.1,0.76-0.19,1.14-0.29c-0.23-1.45-0.53-3.78,0.44-4.85c-0.07-0.09-0.15-0.18-0.22-0.28c-1.54-1.67-3.08-3.34-4.63-5.01   c-0.14-1.49-1.15-3.67,0-4.85c-0.72-1.04-0.96-1.97-2.2-2.2c-0.15-0.73-0.29-1.47-0.44-2.2c0.35-0.89,0.38-1.44,1.32-1.76   c0-0.88,0-1.76,0-2.64c0.83-1.66,3.56-6.58,5.29-6.61c0.07-0.83,0.14-1.65,0.21-2.48c-3.66-2.51-2.48-4.57-6.3-3.69   c0.09-0.27-1.03-1.32-0.25-2.14c0.53-1.48,1.66-2.65,3.26-2.71c1.95-1.89,6.45-5.98,6.2-8.36c-0.37-2.7-3.66-4.6-3.99-7.07   c-1.49-0.9-2.76-0.13-3.6-1.76c-0.73-0.88-0.59-1.58-0.67-2.62c-0.19-0.3-0.9-3.1-1.09-3.4c1.47-1.62,1.24-3.83,3.67-5   C324.44,123.91,324.13,123.89,324.71,122.41z"/>
            <circle cx="361.59" cy="124.63" r="1.586"/>
        </g>
    </g>
</svg>