<?xml version="1.0" encoding="UTF-8"?>
<!DOCTYPE svg PUBLIC "-//W3C//DTD SVG 1.1//EN" "http://www.w3.org/Graphics/SVG/1.1/DTD/svg11.dtd">
<svg version="1.1" id="HaritaCizim" xmlns="http://www.w3.org/2000/svg" xmlns:xlink="http://www.w3.org/1999/xlink" x="0px" y="0px" viewBox="0 0 500 397" preserveAspectRatio="none">
    <defs id="__def">
        <radialGradient id="f">
            <stop offset="0" stop-color="white" stop-opacity="1"/>
            <stop id="STOP1" offset=".4" stop-opacity="1"/>
            <stop offset="1" stop-color="white" stop-opacity=".2"/>
        </radialGradient>
        <filter id="__flt1" x="0" y="0" width="200%" height="200%" filterUnits="objectBoundingBox">
            <feGaussianBlur in="SourceAlpha" stdDeviation="3" result="blur1"/>
            <feSpecularLighting result="specOut" in="blur1" specularConstant="1.5" specularExponent="20" lighting-color="#bbbbbb">
                <feDistantLight azimuth="45" elevation="30"/>
            </feSpecularLighting>
            <feComposite in="specOut" in2="SourceAlpha" operator="in" result="specOut"/>
            <feComposite in="SourceGraphic" in2="specOut" operator="arithmetic" k1="0" k2="1" k3="1" k4="0"/>
        </filter>
        <filter id="__flt2" x="0" y="0" width="200%" height="200%" filterUnits="objectBoundingBox">
            <feGaussianBlur in="SourceAlpha" stdDeviation="3" result="blur1"/>
            <feSpecularLighting result="specOut" in="blur1" specularExponent="20" lighting-color="#bbbbbb">
                <fePointLight x="-2000" y="100" z="2000"/>
            </feSpecularLighting>
            <feComposite in="specOut" in2="SourceAlpha" operator="in" result="specOut"/>
            <feComposite in="SourceGraphic" in2="specOut" operator="arithmetic" k1="0" k2="1" k3="1" k4="0"/>
        </filter>
        <filter id="__flt3" x0="-50%" y0="-50%" width="200%" height="200%" filterUnits="objectBoundingBox">
            <feGaussianBlur in="SourceAlpha" stdDeviation="3" result="blur"/>
            <feOffset in="blur" dx="0" dy="0" result="offsetBlur"/>
            <feSpecularLighting in="blur" surfaceScale="4" specularConstant=".5" specularExponent="20" lighting-color="flavor" result="specOut">
                <fePointLight x="-5000" y="-10000" z="5000"/>
            </feSpecularLighting>
            <feComposite in="specOut" in2="SourceAlpha" operator="in" result="specOut"/>
            <feComposite in="SourceGraphic" in2="specOut" operator="arithmetic" k1="0" k2="1" k3="1" k4="0" result="litPaint"/>
            <feMerge>
                <feMergeNode in="offsetBlur"/>
                <feMergeNode in="litPaint"/>
            </feMerge>
        </filter>
        <filter id="__flt4" x0="-50%" y0="-50%" width="200%" height="200%">
            <feGaussianBlur in="SourceAlpha" stdDeviation="2" result="blur"/>
            <feOffset dy="-1" dx="-1"/>
            <feComposite in2="SourceAlpha" operator="arithmetic" k2="-1" k3="1" result="hlDiff"/>
            <feFlood flood-color="white" flood-opacity=".7"/>
            <feComposite in2="hlDiff" operator="in"/>
            <feComposite in2="SourceGraphic" operator="over" result="withGlow"/>
            <feOffset in="blur" dy="3" dx="3"/>
            <feComposite in2="SourceAlpha" operator="arithmetic" k2="-1" k3="1" result="shadowDiff"/>
            <feFlood flood-color="black" flood-opacity="1"/>
            <feComposite in2="shadowDiff" operator="in"/>
            <feComposite in2="withGlow" operator="over"/>
        </filter>
        <filter id="__golge1" x="0" y="0" width="200%" height="200%" filterUnits="userSpaceOnUse">
            <feOffset result="offOut" in="SourceAlpha" dx="8" dy="8"/>
            <feGaussianBlur result="blurOut" in="offOut" stdDeviation="3"/>
            <feBlend in="SourceGraphic" in2="blurOut" mode="normal"/>
        </filter>
    </defs>
    <g id="__Komsular" display="none">
        <radialGradient id="SVGID_1_" cx="234.7996" cy="191.1616" r="10.5152" gradientUnits="userSpaceOnUse">
            <stop offset="5.000000e-003" style="stop-color:#496FB6"/>
            <stop offset="1" style="stop-color:#FFFFFF;stop-opacity:0"/>
        </radialGradient>
        <path fill-rule="evenodd" clip-rule="evenodd" fill="url(#SVGID_1_)" d="M227.85,185.25c0.19,0.74,0.51,0.97,1.04,1.52   c0.13,0.14,0.29,0.48,0.47,0.34c0.36-0.32,0.71-0.64,1.07-0.96c0.28,0.28,0.95-0.18,1.32-0.25c1.83-0.36,3.44-0.51,4.86-1.94   c-0.02-0.37-0.3-1.38-0.13-1.54c0.43,0.14,0.7,0.39,0.95-0.04c0.25-0.41,0.53-1.25,1.11-1.25c0.21-0.26,0.43-0.51,0.64-0.77   c0.53,0,1.12-0.59,1.67-0.26c0.17-0.16,0.34-0.32,0.51-0.49c0.34-0.1,0.69-0.19,1.03-0.29c0.47,0.3,0.94,0.6,1.42,0.9   c-0.17,0.13-0.34,0.26-0.51,0.39c-0.69,0.43-1.37,0.86-2.06,1.29c-0.25,0-1.01-0.43-1.04,0.14c0.05,0.47,0.09,0.94,0.14,1.4   c-0.27,0.43-0.44,0.78-0.51,1.29c-0.88,0.85-2.01,1.46-2.45,2.57c0.17,0.47,0.34,0.94,0.51,1.42c-0.17,0.09-0.33,0.18-0.5,0.27   c-0.21,0.13-0.17,0.1-0.38-0.02c-0.18-0.08-0.36-0.17-0.53-0.25c0.21-0.02,0.41-0.04,0.62-0.06c-0.29-0.62-1.38-2.01-2.16-1.61   c-0.39-0.3-0.77-0.7-1.27-0.6c-0.45,0.1-0.84,0.27-1.17,0.6c-0.47,0.04-0.94,0.09-1.42,0.13c-0.04,0.13-0.09,0.26-0.13,0.39   c0,0.38-0.03,0.74,0.26,1.03c0.94,0.6,1.89,1.2,2.83,1.8c1,0.52,1.15,0.39,2.19,1.03c0.22,0.65,1.25,0.72,0.77,1.29   c0.09,0.09,0.17,0.17,0.26,0.26c0.33,0.33,1.35,1.04,1.42,1.54c0.26,0.17,0.51,0.34,0.77,0.51c0,0.76,0.26,1.87,0.9,2.32   c0,0.66,0.8,2.87,1.32,3.16c0.37,0.18,1.6,0.13,1.66,0.56c0.05,0.31,0.09,0.96-0.16,1.15c-0.49,0.38-0.87,0.89-1.52,0.74   c-0.09-0.02-0.18-0.05-0.27-0.07c-0.19-0.19-0.13-0.39-0.13-0.64c-0.13-0.13-0.26-0.26-0.39-0.39c-0.45,0-1.48,0.41-1.78-0.02   c-0.31-0.48-0.64-0.73-1.05-1.14c0-0.17,0-0.34,0-0.51c-0.34-0.21-0.69-0.43-1.03-0.64c-0.34-0.39-0.69-0.77-1.03-1.16   c0-0.26,0-0.51,0-0.77c-0.26-0.6-0.51-1.2-0.77-1.8c0.08-0.21,0.17-0.42,0.25-0.64c0-0.73,0-1.46,0-2.2   c-0.36-0.19-1.29-0.03-1.29-0.64c-0.56-0.26-1.12-0.51-1.67-0.77c-0.26-0.19-0.51-0.46-0.51-0.77c-0.53-0.47-1.64-1.45-2.32-0.77   c-0.04,0.56-0.09,1.12-0.13,1.67c-0.21,0.28-0.43,0.57-0.64,0.85c-0.13,0.21-0.32,0.82-0.52,0.82c-0.39,0-0.64,0.67-1,0.45   c-0.99-0.66-0.04-2.26,1-2.26c0.04-0.26,0.09-0.51,0.13-0.77c-0.75,0-1.08-1.12-1.35-1.64c-0.29-0.05-0.61-0.38-0.58-0.68   c-0.24-0.12-0.77-0.37-0.77-0.64c0-0.23-0.02-1.51,0.33-1.23c0.4,0.35,0.57,0.68,0.57,1.23c0.27,0.41,0.56,0.56,0.9,0.9   c0,0.36,0.44,0.78,0.78,0.79c0.18,0,0.38,0.07,0.38-0.14c0.27-0.4,0.47-0.75,0.32-1.24c-0.36-0.84-1.99-1.42-1.52-2.59   C227.63,185.38,227.66,185.25,227.85,185.25z"/>
        <path fill-rule="evenodd" clip-rule="evenodd" fill="none" stroke="#000000" stroke-width="0.25" d="M295.44,38.75   c-0.18-0.86-0.77-1.52-1.18-2.32c-0.45-0.89-0.72-1.79-0.88-2.83c-0.31-2.02-0.51-3.88-0.51-6.05c0-2.16,0.51-3.97,0.51-6.18   c0-1.24,0.1-2.14-0.51-3.22c-0.52-0.9-1.35-1.43-1.9-2.09c-1.95-2.34-2.86-5.31-2.86-8.34c0-1.57,0.67-2.87,1.57-4.08   c0.81-1.09,1.35-2.63,2.29-3.64"/>
        <path fill-rule="evenodd" clip-rule="evenodd" fill="none" stroke="#000000" stroke-width="0.25" d="M300.33,40.55   c2.33-2.8,4.51-5.74,6.95-8.37c0.61-0.66,1.37-1.19,1.78-1.92c0.52-0.93,0.73-1.59,1.57-2.35c1.41-1.28,2.85-2.79,4.38-3.92   c1.41-1.04,3.13-2.03,4.62-2.97c1.43-0.9,3.33-1.22,4.9-1.8c1.79-0.66,3.79-0.74,5.56-1.41c1.79-0.67,3.3-1.74,5.12-2.22   c1.77-0.46,3.92-0.66,5.44-1.78c1.47-1.09,2.09-2.59,3.92-3.28c2.99-1.14,7.63-1.48,8.5-5.01c0.25-1.01,0.07-1.87,0.51-2.84   c0.35-0.77,0.89-1.61,1.32-2.29"/>
        <path fill-rule="evenodd" clip-rule="evenodd" fill="none" stroke="#000000" stroke-width="0.25" d="M409.37,121.53   c1.18-0.53,2.46-0.64,3.58-1.18c0.98-0.47,2.06-1.72,2.76-2.54c0.66,0.48,0.91,1.62,1.62,2.3c0.71,0.68,1.34,1.23,2.21,1.71   c1.63,0.9,3.41,1.94,5.06,2.76c2.02,1,3.17,0.79,5-0.48c1.72-1.19,1.26-2.97,1.95-4.75c1.76,0.67,2.87,1.78,5.12,1.78   c2.17,0,3.57-0.47,4.67-2.29c0.85-1.41,1.95-2.68,2.95-4.12c1.13-1.62,2.99-1.8,4.74-2.7c1.59-0.82,3.24-1.55,4.92-2.19   c1.64-0.62,3.34-1.81,5.12-1.83c1.17-0.01,1.59,0.46,2.57,0.78c0.93,0.3,2.1,0.33,3.1,0.38c2.19,0.12,3.87-0.58,5.82-1.13   c1.82-0.51,3.71-0.87,5.5-1.45c2.16-0.7,3.63,0.01,5.66,0.65c3.99,1.26,8.44-0.09,12.49,0.26c2.04,0.18,3.94-0.21,5.79-0.52"/>
        <path fill-rule="evenodd" clip-rule="evenodd" fill="none" stroke="#000000" stroke-width="0.25" d="M377.06,268.42   c1.48,0.06,3.34,2.33,4.22,3.38c1.16,1.4,2.32,2.9,3.61,4.09c2.74,2.53,5.52,5.31,8.49,7.37c1.18,0.82,2.85,1.27,4.19,1.99   c1.49,0.8,2.74,1.65,4.19,2.5c0.48,1.77,1.37,3.6,1.99,5.25c0.74,1.96,1.69,3.83,2.93,5.54c1.18,1.64,2,2.95,3.61,4.15   c1.39,1.04,2.96,2.46,3.99,3.83c0.62,0.83,1.41,1.54,1.96,2.33c0.58,0.84,0.63,2.02,1.41,2.8c0.66,0.66,1.63,1.04,2.29,1.7   c0.72,0.72,1.41,1.32,2.02,2.1c2.51,3.16,5.84,3.94,9.69,4.7c2.07,0.41,4.32,0,6.44-0.1c2.26-0.11,4.32-1.23,6.57-1.29"/>
        <path fill-rule="evenodd" clip-rule="evenodd" fill="none" stroke="#000000" stroke-width="0.25" d="M230.04,339.1   c-0.13,2.13-0.36,4.12-0.64,6.18c-0.28,2.07-1,4-1.29,6.05c-0.27,1.83-0.18,4.11-1,5.82c-0.48,1-1.42,1.62-2.06,2.58   c-0.51,0.77-0.57,1.7-0.9,2.54c-0.72,1.85-2.43,3.13-3.12,5.02c-0.67,1.81-1.38,3.41-2.28,5.18c-0.43,0.84-0.84,1.7-1.16,2.57   c-0.35,0.98-0.22,1.97-0.54,2.94c-0.54,1.65-1.84,3.17-2.22,4.89c-0.73,3.25-0.47,6.4,1.74,8.99c0.74,0.87,6.68,6.15,7.56,4.79"/>
        <path fill-rule="evenodd" clip-rule="evenodd" fill="none" stroke="#000000" stroke-width="0.25" d="M150.73,249.24   c-1.7,0.29-2.58,2.83-3.12,4.22c-0.67,1.73-1.74,3.17-2.64,4.82c-0.52,0.94-2.53,4.68-1.84,5.55c0.32,0.41,2.13,0.7,2.72,1.09   c0.71,0.47,1.35,0.95,2.05,1.44c3.44,2.4,19.53,6.29,13.55,13.01c-2.38,2.67-5.77,4.67-8.05,7.43c-2.39,2.89-3.95,6.05-5.01,9.56   c-0.6,1.97-0.84,3.74-1.67,5.63c-0.75,1.69-0.81,1.78-2.26,2.51c-1.08,0.55-2.19,1.52-2.74,2.7c-0.39,0.83-0.35,2.27-1.05,2.91   c-0.41,0.37-0.96,0.21-1.39,0.41c-0.93,0.43-1.86,1.38-2.35,2.33c-1.16,2.31,0.89,3.09,1.45,5c0.33,1.1-0.21,2.03,0.28,2.98   c0.34,0.65,0.91,1.29,1.26,1.93c0.32,0.59,0.98,1.06,1.28,1.68c0.37,0.76,0.23,1.57,0.28,2.42c0.69,0.44,0.61,3.91-0.06,4.53   c-0.81,0.76-3.07,0.02-4.09-0.13c-1.55-0.23-2.94,0.41-4.25,1.29c-1.18,0.79-1.99,2.25-3.21,3.09"/>
        <path fill-rule="evenodd" clip-rule="evenodd" fill="none" stroke="#000000" stroke-width="0.25" d="M54.69,149.21   c-2.07,0.01-3.71,1.16-5.54,1.97c-1.79,0.79-3.6,1.49-5.28,2.43c-3.58,2.02-5.87,5.13-8.02,8.34c-0.91,1.36-2.02,3.67-3.83,3.61   c-1.87-0.06-3.31-1.84-5.28-2.06c-2.05-0.22-4,1.48-4.5,3.35c-0.36,1.34-1.07,4.64-0.43,5.83c0.92,1.69,3.52,1.95,4.25,3.6   c0.66,1.48-0.45,1.49-1.29,2.26c-1,0.91-0.87,1.2-2.28,0.97c-0.99-0.16-1.86-0.62-2.61,0.47c-0.37,0.53-0.05,1.03-0.61,1.46   c-0.31,0.24-1.02,0.21-1.38,0.38c-1.5,0.73-3.01,2.91-4.29,4.05c-0.22,0.2-0.35,0.38-0.64,0.55"/>
        <path fill-rule="evenodd" clip-rule="evenodd" fill="none" stroke="#000000" stroke-width="0.25" d="M69.24,114.71   c0-2.01-0.47-4.17-0.39-6.05c0.05-1.18,0.86-1.41,1.29-2.32c0.37-0.78,0.51-2.05,0.39-2.96c-0.25-1.78-1.78-3.1-2.93-4.41   c-1.24-1.43-2.56-2.71-3.87-4.11c-2.73-2.92-4.87-6.32-7.46-9.4c-1.23-1.46-2.1-2.92-3.09-4.51c-1.08-1.73-2.77-3.28-4.02-4.89   c-2.21-2.85-4.56-7.01-4.38-10.79c0.1-2.09,1.43-3.34,1.54-5.41c0.12-2.18-0.61-3.55-1.8-5.28c-0.09-0.13-0.18-0.25-0.26-0.39"/>
        <text transform="matrix(0.5198 -0.8543 0.8543 0.5198 305.6001 22.9102)" font-family="'MyriadPro-Regular'" font-size="12">AMASYA</text>
        <text transform="matrix(0.7201 0.6939 -0.6939 0.7201 424.6226 35.3745)" font-family="'MyriadPro-Regular'" font-size="12">TOKAT</text>
        <text transform="matrix(0.4576 -0.8892 0.8892 0.4576 462.8235 228.9851)" font-family="'MyriadPro-Regular'" font-size="12">SİVAS</text>
        <text transform="matrix(0.7723 -0.6352 0.6352 0.7723 336.9585 361.0049)" font-family="'MyriadPro-Regular'" font-size="12">KAYSERİ</text>
        <text transform="matrix(0.2891 0.9573 -0.9573 0.2891 175.1606 318.1514)" font-family="'MyriadPro-Regular'" font-size="12">NEVŞEHİR</text>
        <text transform="matrix(0.581 0.8139 -0.8139 0.581 57.9844 229.9114)" font-family="'MyriadPro-Regular'" font-size="12">KIRŞEHİR</text>
        <text transform="matrix(0.4385 -0.8987 0.8987 0.4385 21.4858 123.6089)" font-family="'MyriadPro-Regular'" font-size="12">KIRIKKALE</text>
        <text transform="matrix(0.9384 -0.3455 0.3455 0.9384 171.8779 56.7104)" font-family="'MyriadPro-Regular'" font-size="12">ÇORUM</text>
    </g>
    <g id="__Harita" display="none">
        <rect id="__cer" x="0" y="0" fill="#000000" opacity="0" width="500" height="397"/>
        <g id="__Sarıkaya">
            <path d="M244.2,218.73    c0,0.26,0.58-0.9,0.64-0.26c0.9-0.77,1.03-0.9,1.93-1.67c0.3-0.38,0.6-0.77,0.9-1.15c0.44-0.47,1.03-1.03,1.16-1.68    c0.82-0.86,1.89-1.72,2.7-2.57c0.58-1.12,1.17-2.25,1.75-3.37c0.14-0.36,0.44-0.89,0.31-1.26c0.27-0.34,0.51-0.92,0.9-1.29    c0.43-0.41,1.02-0.6,1.46-0.76c1.21-0.44,2.13-0.19,3.26,0.32c0.23,0.1,0.46,0.21,0.68,0.31c0.99-0.1,2.43-0.18,3.35,0.51    c0.69,0,1.37,0,2.06,0c0.5,0.14,1,0.28,1.5,0.42c1.39,0.12,2.77,0.23,4.16,0.35c0.26,0,0.51,0,0.77,0    c0.09,0.04,0.17,0.09,0.26,0.13c0.92-0.17,1.8-0.81,2.53-1.35c1.87-1.4,3.85-3.83,4.81-5.99c0-0.59-0.16-1.44-0.51-1.84    c-1.58-1.58-3.83-1.54-5.92-1.78c-1.29-0.15-2.87-0.42-3.3-1.76c-0.21-0.58-0.52-2.26-0.05-2.73c0-0.48,1.51-1.55,1.8-1.56    c0.9-0.04,1.81-0.08,2.71-0.11c0.43-0.26,0.86-0.52,1.29-0.77c0.48-0.02,0.96-0.04,1.44-0.06c0.51-0.11,1.02-0.22,1.52-0.33    c0.94-0.49,1.91-0.75,2.96-0.88c0.86-0.78,1.72-1.56,2.58-2.34c0.39-0.21,0.77-0.43,1.16-0.64c0.85-1.02,1.71-2.04,2.56-3.07    c0.57-0.81,0.93-1.66,1.69-2.34c1.07-0.13,2.15-0.26,3.22-0.39c0.45-0.12,1.42-0.5,1.8-0.26c0.83-0.66,1.74-1.3,2.74-1.68    c0.55-0.17,1.1-0.33,1.65-0.5l0.37,0.37c0.3,0.89,0.83,1.61,1.28,2.44c0.52,1.01,1.03,2.01,1.55,3.02c0.31,0.4,0.63,0.8,0.94,1.21    c0.76,0.78,1.52,1.56,2.29,2.35c0.35,0.29,0.71,0.57,1.06,0.86c0.42,0.23,0.84,0.46,1.26,0.69c1.3,0,3.11-0.34,4.34,0.16    c0.53,0.08,1.05,0.15,1.58,0.23c0.73,0.5,1.44,0.92,1.93,1.67c0.39,0.39,0.77,0.77,1.16,1.16c0.74,0.25,1.48,0.51,2.21,0.76    c0.64,0.22,1.27,0.44,1.91,0.66c0.51,0.03,1.03,0.07,1.54,0.1c0.77,0.05,1.55,0.1,2.32,0.15c0.35-0.18,0.7-0.34,1.05-0.47    l-0.4,0.21c1.31-0.74,2.81-0.71,4.25-0.77c0.57-0.02,1.3,0.48,1.8,0.26c0.14,0.26,0.28,0.53,0.42,0.79c0.74,0.25,1,1.25,1.64,1.52    c0.47,0.2,0.35,1.98,0.77,2.19c0.6,0.3,2.2,0.19,2.7,0.51c0.52,0.34,2.27-0.23,2.7,0.13c0.96,0.79,2.94-0.08,3.48,0.77    c0.22,0.36,1.16,0,1.16,0s1.97,0.49,2.06,1.16c0.04,0.3,0.7,0.96,0.77,1.03c0.09,0.09,0.34,1.07,0.52,1.03    c0.07-0.02,0.71,2.24-0.26,3.35c-0.43,0.49-0.59,1.22-1.16,1.8c-0.85,0.87-1.83,1.81-2.84,2.73c-0.42,0.39-0.96,0.69-1.48,0.99    c-0.35,0.21-0.94,0.03-1.22,0.27c-0.16,0.14-0.62,0.25-0.77,0.39c-0.26,0.23-0.96,0.91-0.76,0.66c0.72-0.87-1.39,1.14-1.15,1.25    c0.26,0.12,0.43-0.44,0.68-0.69c-0.28,0.36-0.56,0.73-0.83,1.09c0.06,0.96-0.18,1.72,0.51,2.45c-0.11,0.41,0.15,0.33,0.41,0.46    c0.74,0.29,1.48,0.58,2.22,0.87c0.45,0.07,0.91,0.14,1.36,0.21c0.42-0.11,0.85-0.22,1.27-0.33l0.02,0.45    c-0.3,1.16-0.43,2.39-1.05,3.46c-0.2,0.35-1.2,1.76-1.13,1.96c-0.28,0.18-0.64,0.33-0.77,0.64c-2.46,0.85-5.01,1.67-7.34,2.83    c-0.55,0.11-1.1,0.22-1.65,0.33c-0.57,0.23-1.13,0.46-1.7,0.69c-0.26,0.09-0.51,0.18-0.77,0.27c-1.34,0.36-2.68,0.73-4.02,1.09    c-0.59,0.19-1.18,0.39-1.77,0.58c-2.03,0.38-5.03-0.06-6.71,1.19c-2.39,1.77-2.72,4.16-3.28,6.82c-0.09,0.43,0,1.1-0.31,1.39    c0.03,0.46,0.18,1.18-0.13,1.54c0.03,0.73,0.06,1.46,0.09,2.18c-0.09,0.77-0.17,1.54-0.26,2.32c0.1,0.81,0.2,1.61,0.29,2.42    c0.04,0.87,0.09,1.74,0.13,2.6c0.04,0.56,0.09,1.12,0.13,1.67c-0.51,1.8-1.03,3.6-1.54,5.41c-0.75,0.74-1.5,1.49-2.25,2.23    l-0.32,0.35c-0.21-0.17-0.43-0.34-0.64-0.51c-0.09,0.04-0.17,0.09-0.26,0.13c-0.48-0.07-0.95-0.14-1.43-0.22    c-0.6-0.14-1.19-0.28-1.79-0.43c-1.04,0.06-2.08,0.12-3.11,0.19c-0.46,0.07-0.93,0.13-1.39,0.2c-1.12-0.13-2.23-0.26-3.35-0.39    c-0.43,0-0.86,0-1.29,0c-1.12-0.47-2.23-0.94-3.35-1.42c-0.2-0.22-0.35-0.45-0.64-0.51c-0.57-1.39-1.09-2.78-1.42-4.25    c-0.06-0.46-0.12-0.93-0.18-1.39c-0.2-1.04-0.39-2.08-0.59-3.12c-0.03-1.45,0.55-2.31,0.02-3.69c-0.4-1.03-1.58-2.81-2.74-3.07    c-0.36-0.04-0.73-0.08-1.09-0.12c-0.19,0.28-0.38,0.55-0.56,0.83c-0.47,0.31-0.93,0.62-1.4,0.93c-0.33,0.23-0.36,0.61-0.79,0.62    c-0.27,0.56-0.91,2.65-1.29,2.83c0.18,0.51,0.54,2.05,0.13,2.45c0.52,1,0.96,1.87,1.67,2.7c0.27,0.55,0.53,1.1,0.8,1.65    c0.57,1.02,1.16,1.78,1.09,2.97c-0.03,0.51-0.27,2.16-0.61,2.44c-1.27,1.02-2.72,1.54-4.24,2.07c-0.02-0.16-3.68-0.62-4.38-0.68    c-0.93-0.17-1.86-0.35-2.79-0.52c-1.4,0.08-2.7-0.49-4.04-0.86c-0.25-0.16-0.49-0.32-0.74-0.48c-0.53-0.18-1.05-0.36-1.58-0.55    c-0.9-0.26-1.8-0.51-2.7-0.77c-1.41-0.24-2.61-1.05-3.86-1.67c-0.44-0.14-0.88-0.27-1.32-0.41c-0.39-0.05-0.79,0.04-1.05-0.11    c-0.08-0.32-0.04-0.61-0.3-0.8c-0.45-0.27-2.26-1.53-2.62-1.13c-2.34-1.23-4.8-2.15-7.18-3.25c-0.72-0.33-2.98-1.75-3-2.54    c0-0.21,0.01-0.43,0.01-0.64c-0.13-0.39-0.26-0.77-0.39-1.16c0.18-0.55,0.36-1.11,0.54-1.66c0.16-0.48,0.32-0.96,0.47-1.44    c0.11-0.41,0.21-0.82,0.32-1.22c0.24-0.58,0.48-1.16,0.72-1.73c0.04-0.6,0.09-1.2,0.13-1.8c0.04-1.2,0.09-2.4,0.13-3.6    c-0.16-0.4-0.31-0.8-0.47-1.21c-0.06-0.5-0.12-1-0.18-1.5c-0.33-0.87-0.66-1.74-0.99-2.6c-0.05-0.38-0.1-0.75-0.15-1.13    c-0.32-0.95-0.65-1.91-0.97-2.86c-0.24-0.71-0.26-1.31-0.76-1.85c-0.35-0.38-1.46-1.03-1.62-0.94L244.2,218.73z"/>
            <circle cx="289.26" cy="221.82" r="1.586"/>
        </g>
        <g id="__Aydıncık">
            <path d="M253.21,80.46    c-1.22,0.13-2.06-0.99-2.96-1.67c-0.99-0.73-1.97-1.46-2.96-2.19c-1.2-1.33-2.4-2.66-3.6-3.99c0-1.9,0.3-2.59,1.42-4.12    c0.24-0.33,0.82-1.03,1.29-1.03c0.21-0.17,0.43-0.34,0.64-0.51c0.51-0.34,1.03-0.69,1.54-1.03c0.25-0.25,1.86-1.03,2.19-1.03    c1.07-0.56,2.15-1.12,3.22-1.67c1.2-0.56,2.4-1.12,3.6-1.67c0.25-0.38,0.37-0.61,0.52-1.03c-0.09-0.26-0.17-0.51-0.26-0.77    c-0.17-0.17-0.34-0.34-0.51-0.51c-1.57,0-3.09,0.04-4.64-0.24c-0.17-0.01-0.34-0.01-0.51-0.02c-0.47-0.17-0.94-0.34-1.42-0.51    c-0.26-0.21-0.51-0.43-0.77-0.64c-0.17-0.21-0.34-0.43-0.51-0.64c-0.17-0.43-0.34-0.86-0.51-1.29c-0.26-1.42-0.52-2.83-0.77-4.25    c0-1.33,0-2.66,0-3.99c0.09-0.26,0.17-0.51,0.26-0.77c0.14-0.71-0.3-1.98-0.77-2.45c-0.06-0.96,0.39-1.78,0.39-2.7    c0.32-0.46,0.65-0.65,1.03-1.03c0.3-0.09,0.6-0.17,0.9-0.26c0.29,0.2,0.8,0.1,1.16,0.13c0.2,0.28,0.62,0.27,0.9,0.51    c0.94,0.81,2.18,1.18,3.36,1.58c0.85,0.29,1.55,1.02,2.17,1.64c0.49,0,0.94,0.68,1.24,1.06c0.66,1.28,1.32,2.56,1.98,3.83    c0.33,0.1,0.7,0.16,0.91,0.44c1.17,0.16,2.28,0.21,3.47,0.21c0.9-0.56,1.8-1.12,2.7-1.67c1.5-1.33,3-2.67,4.51-4    c0.99-0.51,1.97-1.02,2.96-1.54c2.89-1.78,6.18-2.58,9.4-3.35c2.29-0.54,4.85-1.21,7.21-0.9c0.34,0,0.69,0,1.03,0    c0.82,0.17,1.63,0.34,2.45,0.51c0.37,0.06,0.95,0.1,1.13,0.45c0.72,0.17,1.68,0.3,2.21,0.83l0.13,0.51    c0.44,0.66-0.01,1.05,0.13,1.8c0.09,0.56,0.17,1.11,0.26,1.67c0.02,1.42,0.61,3.64-0.52,4.77c-0.04,1.17,0.26,1.78-0.94,2.2    c-1.36,0.37-2.66,0.75-3.56,1.92c-0.3,0.39-0.84,1.29-0.77,1.8c-0.76,1.05-0.69,1.79-1.09,2.9c-0.62,1.74-1.24,3.47-1.87,5.21    c0.04,0.43,0.09,0.86,0.13,1.29c-0.03,0.43-0.06,0.85-0.09,1.28c-0.24,0.2-0.35,0.61-0.29,0.91c-0.71,0.98-1.19,1.99-1.72,3.07    c-0.2,0.39-0.4,0.79-0.6,1.18c-0.45,0.49-0.9,0.98-1.35,1.48c-0.28,0.24-0.56,0.47-0.84,0.71c-0.3,0.21-0.6,0.43-0.9,0.64    c-1.66,0.31-3.44,0.34-5.02,0.96c-0.43,0.11-0.86,0.22-1.29,0.33c-0.39,0.17-0.77,0.34-1.16,0.51c-0.56,0.47-1.12,0.94-1.67,1.42    c-0.19,0.27-0.84,1.58-0.77,1.8c-0.39,0.64-0.77,1.29-1.16,1.93c-0.09,0.51-0.17,1.03-0.26,1.54c0.02,0.42,0.03,0.84,0.05,1.26    c-0.06,0.78-0.12,1.57-0.18,2.35l-0.13-0.64c-1.78-1.08-3.04-2.94-4.76-4.25c-0.43-0.22-0.87-0.43-1.3-0.65    c-1.3-0.95-2.93-1.56-4.56-1.43c-0.63-0.35-3.11-0.66-3.67-0.1c-1.84,0.34-3.69,0.69-5.54,1.03c0.22,0.22-0.42,1.12-0.3,1.64    L253.21,80.46z"/>
            <circle cx="271.62" cy="66.17" r="1.586"/>
        </g>
        <g id="__Çekerek">
            <path d="M350.39,78.39    c0.69,0.99,1.38,1.98,2.07,2.97c0.77,1.51,1.55,3.02,2.32,4.53c0.15,0.43,0.31,0.86,0.46,1.28c0.02,0.34,0.03,0.67,0.05,1.01    c0.31,1.07,0.5,1.19,0.49,2.35c0.05,0.63,0.1,1.26,0.16,1.9c-0.04,0.39-0.09,0.77-0.13,1.16c0.04,0.68-0.54,1.21-0.64,1.83    c-0.15,0.94-0.71,1.68-1.03,2.55c-0.31,0.23-0.7,0.39-0.77,0.77c-0.73,0.51-1.46,1.03-2.19,1.54c-0.34,0.22-2.58,1.03-2.83,0.9    c-0.97,0.29-1.55,0.69-2.56,0.85c-0.52,0.1-1.04,0.21-1.56,0.31c-1.25,0.57-2.39,1.4-3.73,1.8c-1.25,0.38-2.87,0.9-3.86,1.8    c-0.47,0.51-0.95,1.03-1.42,1.54c-2.56,2.6-1.93,7-1.93,10.43c0,0.64-0.02,2.84,0.39,3.22l-0.18,0.92    c-0.36,0.22-0.69,0.47-0.98,0.75c-0.09,0.51-0.19,1.03-0.28,1.54l-0.39-0.43c-0.21-0.11-0.41-0.22-0.62-0.33    c-1.88,0.38-3.76,0.76-5.64,1.13c-0.6-0.02-1.2-0.03-1.81-0.05c-0.78-0.06-1.56-0.12-2.34-0.18c-0.99,0.17-1.97,0.34-2.96,0.51    c-0.52,0.17-1.03,0.34-1.55,0.52c-1.65,0.54-3.44,1.14-4.76,2.32c-0.26,0.39-0.52,0.77-0.77,1.16c-1.49,1.25-4.15,3.15-6.18,2.57    c-0.6-0.17-1.02-0.5-1.54-0.77c-0.12-0.25-0.15-0.51-0.39-0.64c0,0.22,0.04,0.19-0.1,0.24c-0.35-0.47-0.71-0.93-1.06-1.4    c-0.1-1.24-0.19-2.47-0.29-3.71c0.1-0.44,0.19-0.87,0.29-1.31c-0.03-0.77-0.05-1.54-0.08-2.31c-0.12-0.92-0.12-1.8-0.19-2.73    c0-0.42,0.01-0.85,0.01-1.27c-0.04-0.69-0.09-1.37-0.13-2.06c-0.15-0.32-0.43-0.68-0.39-1.03c-1.47-2.1-3.87-2.68-6.31-2.57    c-0.43-0.09-0.86-0.17-1.29-0.26c-0.77-0.01-1.54-0.03-2.32-0.04c-0.86-0.12-1.72-0.23-2.57-0.35c-0.86,0-1.72,0-2.57,0    c-0.61-0.61-0.48-1.91-0.64-2.7c-0.26-1.2-0.53-2.4-0.79-3.6c-0.08-0.6-0.16-1.2-0.24-1.8c-0.1-1.06,0.02-2.31-0.77-3.1    c-0.98-0.89-2.19-0.85-3.34-1.44c-0.35-0.18-0.78-0.54-1.17-0.48c-0.31-0.28-0.74-0.74-1.16-0.77c-0.73-0.73-1.46-1.46-2.19-2.19    c-0.26-0.56-0.51-1.12-0.77-1.67c-0.04-0.47-0.09-0.94-0.13-1.42c0.04-0.26,0.09-0.51,0.13-0.77c-0.14-1.28-0.58-2.5-0.98-3.71    c-0.17-0.51-1.09-2.35-0.95-2.72l0.13,0.64c0.06-0.78,0.12-1.57,0.18-2.35c-0.02-0.42-0.04-0.84-0.05-1.26    c0.09-0.51,0.17-1.03,0.26-1.54c0.39-0.64,0.77-1.29,1.16-1.93c-0.07-0.22,0.58-1.53,0.77-1.8c0.56-0.47,1.12-0.94,1.67-1.42    c0.39-0.17,0.77-0.34,1.16-0.51c0.43-0.11,0.86-0.22,1.29-0.33c1.58-0.62,3.36-0.65,5.02-0.96c0.3-0.21,0.6-0.43,0.9-0.64    c0.28-0.24,0.56-0.47,0.84-0.71c0.45-0.49,0.9-0.98,1.35-1.48c0.2-0.39,0.4-0.79,0.6-1.18c0.53-1.08,1.02-2.09,1.72-3.07    c-0.05-0.3,0.06-0.71,0.29-0.91c0.03-0.43,0.06-0.85,0.09-1.28c-0.04-0.43-0.09-0.86-0.13-1.29c0.62-1.74,1.24-3.47,1.87-5.21    c0.4-1.11,0.33-1.85,1.09-2.9c-0.07-0.51,0.47-1.42,0.77-1.8c0.91-1.16,2.21-1.54,3.56-1.92c1.2-0.43,0.9-1.03,0.94-2.2    c1.12-1.12,0.54-3.35,0.52-4.77c-0.09-0.56-0.17-1.11-0.26-1.67c-0.14-0.75,0.31-1.14-0.13-1.8c0.34-0.09,0.69-0.17,1.03-0.26    c0.21,0.08,0.43,0.15,0.64,0.23c0.39,0.38,0.78,0.76,1.17,1.13c0.33,0.5,0.21,0.91,0.38,1.47c0.34,1.03,0.69,2.06,1.03,3.09    c0.47,0.69,0.94,1.37,1.42,2.06c0.86,0.51,1.72,1.03,2.57,1.54c1.12,0.51,2.23,1.03,3.35,1.54c0.01,0.12,1.21,1.35,1.45,1.65    c0.45,0.57,0.22,2.69,0.22,3.5c0.09,1.37,0.17,2.75,0.26,4.12c-0.04,0.86-0.09,1.72-0.13,2.57c0.09,0.69,0.17,1.37,0.26,2.06    c0.39,0.43,0.77,0.86,1.16,1.29c2.22,0.74,5.5,0.83,7.85,0.9c1.08,0.03,2.95,0,3.86,0.64c1.13,0.79,1.8,1.83,2.68,2.88    c0.57,0.62,1.14,1.25,1.71,1.87c0.46,0.53,0.93,1.06,1.39,1.59c0.58,0.41,2.07-0.71,2.57-1.08c1.28-0.88,2.55-1.76,3.83-2.64    c0.83-0.54,1.42-1.08,2.49-0.93c1.12,0.29,2.23,0.59,3.35,0.89c0.11,0.51,0.72,0.75,1.03,1.16c0.73,1.29,1.46,2.57,2.19,3.86    c1.26,1.26,2.99,1.58,4.25,2.83L350.39,78.39z"/>
            <circle cx="311.14" cy="81.1" r="1.586"/>
        </g>
        <g id="__Kadışehri">
            <path d="M406.55,112.57    c-1.05,0.51-2.11,1.01-3.16,1.52c-0.8,0.16-1.59,0.32-2.39,0.48c-1.67-0.05-3.34-0.1-5.01-0.15c-2.32-0.38-4.64-0.76-6.96-1.13    c-0.24,0.24-0.78,0.19-1.12,0.26c-0.87,0.21-1.74,0.41-2.61,0.62c-0.39,0.09-0.77,0.19-1.16,0.28c-0.36,0.23-0.71,0.46-1.07,0.69    c-0.31-0.07-2.39,0.84-2.53,1.11c-0.89,0.19-1.78,0.37-2.67,0.56c-0.62,0.32-1.24,0.64-1.86,0.96c-0.25,0.01-0.5,0.02-0.75,0.02    c-0.95,0.3-2.6,2.05-2.96,2.96c-0.99,0.77-1.97,1.54-2.96,2.32c-1.43,0.09-2.57,0.1-3.62-0.07c-1.5-0.24-2.81-0.83-4.53-2.03    c-0.99-0.69-1.63-1.79-2.69-2.37c-0.61-0.27-1.21-0.53-1.82-0.8c-0.27-0.39-1.08-0.57-1.53-0.66c-0.37-0.06-0.73-0.12-1.1-0.19    l-0.42,0.58c-0.17-1.25-0.19-1.47-1.16-2.45c-2.25-0.43-3.25,0.34-5.31,0.79c-0.98,0.25-1.96,0.5-2.93,0.76    c-0.4,0.21-0.8,0.41-1.2,0.62c-1.32,0.31-2.6,0.74-3.79,1.34c-1.27,0.64-2.31,1.45-3.52,2.22c-0.51,0.33-1.1,0.61-1.67,0.92    l-0.8,0.38c0.14-0.32,0.28-0.65,0.41-0.97c-0.41-0.38-0.39-2.58-0.39-3.22c0-3.43-0.63-7.83,1.93-10.43    c0.47-0.51,0.95-1.03,1.42-1.54c0.99-0.9,2.61-1.42,3.86-1.8c1.34-0.41,2.49-1.23,3.73-1.8c0.52-0.1,1.04-0.21,1.56-0.31    c1.01-0.16,1.59-0.56,2.56-0.85c0.25,0.13,2.49-0.68,2.83-0.9c0.73-0.52,1.46-1.03,2.19-1.54c0.07-0.38,0.46-0.54,0.77-0.77    c0.33-0.87,0.88-1.61,1.03-2.55c0.1-0.61,0.68-1.14,0.64-1.83c0.04-0.39,0.09-0.77,0.13-1.16c-0.05-0.63-0.1-1.26-0.16-1.9    c0.01-1.16-0.18-1.28-0.49-2.35c-0.02-0.34-0.03-0.67-0.05-1.01c-0.15-0.43-0.31-0.86-0.46-1.28c-0.77-1.51-1.55-3.02-2.32-4.53    c-0.69-0.99-1.38-1.98-2.07-2.97c-0.36-0.74,1.5-1.58,2.08-1.91c0.82-0.45,1.63-0.9,2.45-1.34c1.17-0.42,2.52-0.85,3.48-1.64    c0.56-0.34,1.11-0.68,1.67-1.01c0.73-0.11,1.46-0.21,2.2-0.32c1.03-0.06,2.05-0.13,3.08-0.19c7.25,0,14.51,0,21.76,0    c1.82,0,3.68,0.16,5.41,0.31c0.77,0.15,1.54,0.31,2.31,0.46c1.36,0.26,2.63,0.77,3.53,1.85c0.65,0.75,0.64,2.24,0.52,3.17    c-0.12,0.85-0.7,1.75-1.21,2.45c0,0.37-0.39,0.98-0.72,1.12c-0.66,1-1.32,2-1.98,3c-0.09,0.34-0.17,0.69-0.26,1.03    c0.04,0.77,0.09,1.55,0.13,2.32c0.56,1.72,1.12,3.43,1.67,5.15c0.83,2.85,1.49,5.74,2.19,8.63c0.66,1.19,1.32,2.38,1.99,3.56    c0.9,1.37,1.77,2.59,3.03,3.65c1.53,1.28,2.8,1.46,3.07,3.6L406.55,112.57z"/>
            <circle cx="367.79" cy="99.39" r="1.586"/>
        </g>
        <g id="__Akdağmadeni">
            <path d="M388,220.4    c-0.33,0-0.49,0.02-0.76-0.17c-1.23-0.86-2.46-1.73-3.69-2.59c-0.94-0.46-2.68-1.43-3.33-2.19c-1.99-2.31-2.16-5.57-3.55-8.18    c-0.47-0.88-0.92-1.51-1.71-2.15c-0.31-0.25-1.06-0.57-1.13-0.94c-0.82-0.21-1.63-0.43-2.45-0.64c-0.52,0-1.96,0.23-2.32,0    c-0.98,0.19-2.29,0.44-3.06,1.05c-0.28,0.22-0.72,0.4-0.8,0.75c-1.59,0.82-3.14,1.93-4.51,3.09c-0.3,0.39-0.6,0.77-0.9,1.16    c-0.42,0.52-0.99,0.94-1.57,1.24c-0.14,0.07-0.29,0.14-0.43,0.21c-0.49,0.16-0.99,0.32-1.48,0.48c-1.05,0.4-1.8,0.55-2.78,1.2    c-0.38,0.25-0.9,0.44-1.06,0.87c-1.84,0.61-3.69,1.23-5.53,1.84c-1.03,0.17-2.36,0.21-3.19,0.86l-0.56-0.17    c-0.38,0.1-0.77,0.2-1.15,0.3c-0.45-0.07-0.91-0.14-1.36-0.21c-0.74-0.29-1.48-0.58-2.22-0.87c-0.26-0.13-0.52-0.05-0.41-0.46    c-0.69-0.73-0.45-1.49-0.51-2.45c0.28-0.36,0.56-0.73,0.83-1.09c-0.25,0.26-0.42,0.82-0.68,0.69c-0.24-0.11,1.86-2.13,1.15-1.25    c-0.2,0.25,0.49-0.44,0.76-0.66c0.16-0.13,0.61-0.25,0.77-0.39c0.28-0.24,0.87-0.06,1.22-0.27c0.51-0.3,1.05-0.6,1.48-0.99    c1-0.92,1.99-1.86,2.84-2.73c0.57-0.58,0.73-1.31,1.16-1.8c0.96-1.1,0.32-3.36,0.26-3.35c-0.18,0.04-0.43-0.94-0.52-1.03    c-0.07-0.07-0.73-0.73-0.77-1.03c-0.09-0.67-2.06-1.16-2.06-1.16s-0.93,0.36-1.16,0c-0.53-0.85-2.52,0.02-3.48-0.77    c-0.43-0.36-2.18,0.21-2.7-0.13c-0.5-0.32-2.11-0.21-2.7-0.51c-0.42-0.21-0.31-1.99-0.77-2.19c-0.64-0.27-0.9-1.28-1.64-1.52    c-0.14-0.26-0.28-0.53-0.42-0.79c-0.5,0.22-1.23-0.28-1.8-0.26c-1.43,0.06-2.94,0.04-4.25,0.77c0.65-0.13,1.35-2.5,1.65-3.1    c0.58-1.25,1.17-2.5,1.75-3.75c0.18-0.59,0.36-1.19,0.54-1.78c0.14-0.56,0.29-1.12,0.43-1.67c0.04-0.47,0.09-0.94,0.13-1.42    c0.32-0.75,0.54-1.61,0.51-2.32c0.39-0.13,1.14-1.59,0.51-1.8c0.34-0.5,0.04-0.62-0.13-1.16c0.46-0.46,0.35-1.94,0.21-2.58    c-0.17-1.15-0.34-2.29-0.51-3.44c-0.2-1.34-0.4-2.68-0.6-4.02c-0.26-0.86-0.52-1.72-0.77-2.57c0.23-0.21,0.14-0.35,0.13-0.64    c-0.08-0.57-0.17-1.14-0.25-1.71c-0.22-1.23-0.43-2.46-0.65-3.69c0.41-0.47,0.22-2.36,0.35-3.07c0.11-0.58,0.63-1.62,1.22-1.76    c0.29-0.36,0.66-0.92,1.12-1.01c1.93-2.1,4.33-3.34,6.08-5.69c0.42-0.87,0.85-1.75,1.27-2.62c0.26-0.73,0.52-1.46,0.77-2.19    c0.51-0.56,1.03-1.12,1.54-1.67c0.94-1.29,1.89-2.57,2.83-3.86c0.52-0.42,1.79-2.3,2.06-2.96c0.26-0.86,0.51-1.72,0.77-2.57    c0.47-0.82,0.94-1.63,1.42-2.45c0.22-0.55,0.45-1.11,0.67-1.66c0.8-1.13,1.61-2.25,2.41-3.38c0.52-0.79,1.04-1.66,1.63-2.47    c0.55-0.75,1.16-1.45,1.89-1.97c0.37,0.06,0.73,0.12,1.1,0.19c0.45,0.1,1.27,0.27,1.53,0.66c0.61,0.27,1.21,0.53,1.82,0.8    c1.05,0.59,1.7,1.68,2.69,2.37c1.72,1.21,3.03,1.79,4.53,2.03c1.05,0.17,2.19,0.16,3.62,0.07c0.99-0.77,1.97-1.54,2.96-2.32    c0.36-0.91,2.01-2.66,2.96-2.96c0.25-0.01,0.5-0.02,0.75-0.02c0.62-0.32,1.24-0.64,1.86-0.96c0.89-0.19,1.78-0.37,2.67-0.56    c0.15-0.27,2.22-1.18,2.53-1.11c0.36-0.23,0.71-0.46,1.07-0.69c0.39-0.09,0.77-0.19,1.16-0.28c0.87-0.21,1.74-0.41,2.61-0.62    c0.34-0.07,0.88-0.01,1.12-0.26c2.32,0.38,4.64,0.76,6.96,1.13c1.67,0.05,3.34,0.1,5.01,0.15c0.8-0.16,1.59-0.32,2.39-0.48    c1.05-0.51,2.11-1.01,3.16-1.52c0.44-0.1,0.58,2.25,0.62,2.78c0.08,1.24,0.4,2.39,0.85,3.49c0.62,1.53,1.48,2.98,2.26,4.49    c0.49,0.08,0.86,0.72,1.13,1.1c0.27,0.23,0.54,0.47,0.8,0.7c0.33,0.84,1.59,1.21,2.17,1.85c0.7,0.53,1.4,1.06,2.1,1.6    c0.25,0.14,0.5,0.27,0.75,0.41c1.37,0.94,2.75,1.89,4.12,2.83c0.26,0.69,0.51,1.37,0.77,2.06c-0.3,0.38,0.03,1.18-0.13,1.67    c-0.54,1.61-0.79,3.57-1.85,4.94c-0.14,0.32-0.27,0.65-0.41,0.97c-0.53,1.15-0.97,2.44-1.77,3.42c-0.23,0.06-0.45,0.11-0.68,0.17    c0.04,0.08,0.07,0.17,0.11,0.25c-0.06,0.35-0.12,0.71-0.17,1.06c-0.38,0.36-0.29,0.95-0.51,1.42c-0.53,1.08-0.92,2.26-1.03,3.48    c-0.34-0.05-0.69,0-1-0.26c-0.05-0.04-0.1-0.08-0.16-0.12c0.25,0.15,0.19,0.38,0.26,0.64c0.41,0,0.5,0.41,0.66,0.76    c0.61,1.29,1.23,2.46,1.98,3.67c0.28,0.37,0.56,0.74,0.83,1.11c0.07,0.19,0.14,0.39,0.21,0.58c0.58,0.87,1.67,1.41,2.49,2    c1.5,1.16,3,2.32,4.51,3.48c0.51,0.35,1.02,0.7,1.53,1.05c0.78,0.55,1.56,1.1,2.33,1.65c0.25,0.29,0.5,0.59,0.76,0.89    c1.13,1.04,2.24,1.91,3.2,3.13c0.31,0.4,0.9,0.75,0.97,1.27c0.29,0.36,0.73,0.8,0.76,1.27c0.34,0.56,0.68,1.13,1.01,1.69    c0.69,2.26,0.26,4.06,0.13,6.31c-0.3,2.57-0.59,5.15-0.89,7.72c-0.01,0.73-0.01,1.46-0.02,2.19c0.38,1.73,1,4.68,0.39,6.31    c-0.14,0.46-0.27,0.93-0.41,1.39c-0.21,0.44-0.42,0.88-0.62,1.32c-0.57,1.02-1.15,2.04-1.72,3.07c-0.12,0.2-0.24,0.41-0.37,0.61    c-0.34,0.71-0.67,1.42-1.01,2.13c-0.17,0.34-0.34,0.68-0.51,1.02c-0.36,1.84-0.98,3.51-1.82,5.09c-0.55,1.04-1.2,2.03-1.94,3.01    c-0.59,0.73-1.19,1.47-1.78,2.2c-0.87,0.7-1.74,1.24-2.64,1.68c-0.93,0.44-1.87,0.77-2.85,1.01c-1.63,0.41-3.35,0.61-5.19,0.79    c-0.51,0.09-1.03,0.17-1.54,0.26c-1.39,0.34-2.82,0.46-4.25,0.13c-1.09-0.21-2.18-0.43-3.26-0.64c-1.41-0.28-2.82-0.55-4.22-0.83    c-1.32-0.33-2.65-0.65-3.97-0.98c-1.02-0.09-1.99-0.03-2.93,0.13c-1.27,0.22-2.5,0.6-3.76,1.03c-0.44,0.68-1.22,1.07-1.92,1.31    L388,220.4z"/>
            <circle cx="383.49" cy="179.72" r="1.586"/>
        </g>
        <g id="__Çayıralan">
            <path d="M339.46,294.26    c2.37-0.59,5.54-1.65,7.39-3.15c0.39-0.32,1.76-1.08,1.76-1.46c1.73-0.82,3.28-1.99,4.82-3.11c0.63-0.47,1.25-0.93,1.88-1.4    c1.16-1.33,2.32-2.66,3.48-3.99c0.99-0.86,1.97-1.72,2.96-2.57c0.24-0.27,0.48-0.54,0.72-0.82c1.64-1.2,3.17-2.57,4.95-3.56    c0.6-0.39,1.2-0.77,1.8-1.16c0.68-0.55,1.37-1.1,2.05-1.65c1.44-1.06,2.98-1.91,4.51-2.85c0.39-0.43,0.77-0.86,1.16-1.29    c0-3.69,0.7-7.1,1.99-10.55c0.53-1.43,0.96-3.02,1.87-4.26c0.52-1.07,1.03-2.15,1.54-3.22c0.21-0.6,0.43-1.2,0.64-1.8    c0.21-1.07,0.43-2.15,0.64-3.22c0.23-1.53,0.47-3.06,0.7-4.59c0.88-4.74,1.75-9.47,2.63-14.21c0.43-1.11,0.86-2.22,1.3-3.33    c0.1-0.32,0.19-0.63,0.29-0.95c0.06-0.05-0.3-0.54-0.54-0.74c-0.33,0-0.49,0.02-0.76-0.17c-1.23-0.86-2.46-1.73-3.69-2.59    c-0.94-0.46-2.68-1.43-3.33-2.19c-1.99-2.31-2.16-5.57-3.55-8.18c-0.47-0.88-0.92-1.51-1.71-2.15c-0.31-0.25-1.06-0.57-1.13-0.94    c-0.82-0.21-1.63-0.43-2.45-0.64c-0.52,0-1.96,0.23-2.32,0c-0.98,0.19-2.29,0.44-3.06,1.05c-0.28,0.22-0.72,0.4-0.8,0.75    c-1.59,0.82-3.14,1.93-4.51,3.09c-0.3,0.39-0.6,0.77-0.9,1.16c-0.42,0.52-0.99,0.94-1.57,1.24c-0.14,0.07-0.29,0.14-0.43,0.21    c-0.49,0.16-0.99,0.32-1.48,0.48c-1.05,0.4-1.8,0.55-2.78,1.2c-0.38,0.25-0.9,0.44-1.06,0.87c-1.84,0.61-3.69,1.23-5.53,1.84    c-1.03,0.17-2.36,0.21-3.19,0.86c-0.1-0.09-0.38,0.08-0.42,0.25c-0.3,1.16-0.43,2.39-1.05,3.46c-0.2,0.35-1.2,1.76-1.13,1.96    c-0.28,0.18-0.64,0.33-0.77,0.64c-2.46,0.85-5.01,1.67-7.34,2.83c-0.55,0.11-1.1,0.22-1.65,0.33c-0.57,0.23-1.13,0.46-1.7,0.69    c-0.26,0.09-0.51,0.18-0.77,0.27c-1.34,0.36-2.68,0.73-4.02,1.09c-0.59,0.19-1.18,0.39-1.77,0.58c-2.03,0.38-5.03-0.06-6.71,1.19    c-2.39,1.77-2.72,4.16-3.28,6.82c-0.09,0.43,0,1.1-0.31,1.39c0.03,0.46,0.18,1.18-0.13,1.54c0.03,0.73,0.06,1.46,0.09,2.18    c-0.09,0.77-0.17,1.54-0.26,2.32c0.1,0.81,0.2,1.61,0.29,2.42c0.04,0.87,0.09,1.74,0.13,2.6c0.04,0.56,0.09,1.12,0.13,1.67    c-0.51,1.8-1.03,3.6-1.54,5.41c-0.75,0.74-1.5,1.49-2.25,2.23c1.45,0.91,3.07,1.74,4.32,2.9c0.34,0.32,1,0.74,1.15,1.18    c1.13,0.55,2.02,1.25,2.83,2.19c0.54,0.62,2.37,1.94,2.57,2.57c0.89,0.37,2.19,1.46,2.83,2.19c0.99,0.86,1.97,1.72,2.96,2.57    c0.29,0.29,0.82,0.49,0.77,0.9c0.54,0.3,1.37,0.6,1.67,1.16c0.39,0.13,0.77,0.26,1.16,0.39c0.13,0.17,0.26,0.34,0.39,0.51    c1.64,1.21,2.58,2.89,3.54,4.63c1.98,3.6,3.67,7.39,4.85,11.32c0.33,1.11,1.01,1.93,0.75,3.1    C339.17,293.96,339.25,294.32,339.46,294.26z"/>
            <circle cx="340.36" cy="267.9" r="1.586"/>
        </g>
        <g id="__Çandır">
            <path d="M318.44,296.05    c-0.76-0.71-1.52-1.43-2.28-2.14c-0.37-0.8-0.74-1.61-1.11-2.41c-0.28-0.4-0.57-0.79-0.85-1.19c-0.19-0.52-0.37-1.04-0.56-1.56    c-0.33-0.57-0.67-1.15-1-1.72c-1.71-2.38-4.16-4.16-5.99-6.44c-1-1.24-1.69-2.63-2.58-3.93c-0.86-1.26-0.9-2.56-1.16-3.99    c-0.15-0.57-0.3-1.13-0.45-1.7c-0.11-0.6,0.17-1.34-0.2-1.78c0.13-0.09,0.26-0.17,0.39-0.26c0.09-0.09,0.17-0.17,0.26-0.26    c-0.09-0.21-0.01-0.15-0.26-0.13c0-3.21,1.89-5.53,3.71-7.99c0.36-0.48,2.02-2.3,2.59-2.05l0.32-0.35    c1.45,0.91,3.07,1.74,4.32,2.9c0.34,0.32,1,0.74,1.15,1.18c1.13,0.55,2.02,1.25,2.83,2.19c0.54,0.62,2.37,1.94,2.57,2.57    c0.89,0.37,2.19,1.46,2.83,2.19c0.99,0.86,1.97,1.72,2.96,2.57c0.29,0.29,0.82,0.49,0.77,0.9c0.54,0.3,1.37,0.6,1.67,1.16    c0.39,0.13,0.77,0.26,1.16,0.39c0.13,0.17,0.26,0.34,0.39,0.51c1.64,1.21,2.58,2.89,3.54,4.63c1.98,3.6,3.67,7.39,4.85,11.32    c0.33,1.11,1.01,1.93,0.75,3.1c0.09,0.18,0.17,0.53,0.38,0.48l-0.12,0.03c-0.35-0.11-0.76,0.32-1.16,0.4    c-0.69,0.19-1.38,0.37-2.08,0.56c-0.59,0.07-1.19,0.14-1.78,0.21c-0.8,0.15-1.53,0.2-2.32,0.26c-0.88,0.18-1.77,0.36-2.65,0.54    c-1.26-0.01-2.52-0.01-3.79-0.02c-0.95-0.23-1.89-0.45-2.84-0.68c-0.85-0.09-1.63,0.02-2.45,0c-0.25,0.05-0.51,0.11-0.76,0.16    L318.44,296.05z"/>
            <circle cx="315.26" cy="282.19" r="1.586"/>
        </g>
        <g id="__Boğazlıyan">
            <path d="M228.88,329.83    c0.26,1.67,0.52,3.34,0.78,5.01c0.04,0.69,0.08,1.38,0.12,2.07c-0.02,0.52,0.35,1.04,0.13,1.54c0.19-0.03,0.38-0.06,0.56-0.09    c0.34-0.1,0.39,0.18,0.66-0.12c1.76-1.88,3.25-3.74,5.86-4.17c4.13-0.67,8.26-1.82,12.19,0.14c0.66,0.25,1.31,0.51,1.97,0.76    c1.22,0.89,2.43,1.79,3.65,2.68c0.47,0.33,0.9,1.01,1.5,1.05c2.09,2.21,4.35,4.17,6.69,6.05c0.96,0.88,1.93,1.76,2.89,2.64    c0.35,0.29,0.79,0.82,1.23,0.58c0.26,0.34,0.51,0.69,0.77,1.03c1.34,0.42,2.68,0.84,4.02,1.27c3.79,0.71,6.84-1.35,9.62-3.71    c0.59-0.52,1.19-1.04,1.78-1.56c1.49-1.6,2.99-3.2,4.48-4.8c1.33-1.54,2.94-2.53,4.56-3.8c1.69-1.39,3.38-2.79,5.06-4.18    c2.75-2.11,5.51-4.19,7.55-7.02c0.78-1.08,0.51-2.56,0.08-3.65c-0.48-1.23-1.23-2.07-1.98-3.17c-0.76-1.24-1.52-2.48-2.28-3.73    c-0.24-0.47-1.12-2.28-1.06-2.59c0.24-0.86,0.48-1.72,0.72-2.58c1.17-1.56,2.1-3.39,3.48-4.76c0-0.45,1.48-1.9,1.88-2.24    c0.81-0.69,2.22-1.79,3.23-2.11c0.3-0.09,1.19-0.45,1.19-0.8c0.86-0.14,1.72-0.28,2.57-0.42c0.82-0.25,1.63-0.49,2.45-0.74    c0.47-0.37,0.93-0.74,1.4-1.11c0.59-0.42,1.19-0.83,1.78-1.25c-0.76-0.71-1.52-1.43-2.28-2.14c-0.37-0.8-0.74-1.61-1.11-2.41    c-0.28-0.4-0.57-0.79-0.85-1.19c-0.19-0.52-0.37-1.04-0.56-1.56c-0.33-0.57-0.67-1.15-1-1.72c-1.71-2.38-4.16-4.16-5.99-6.44    c-1-1.24-1.69-2.63-2.58-3.93c-0.86-1.26-0.9-2.56-1.16-3.99c-0.15-0.57-0.3-1.13-0.45-1.7c-0.11-0.6,0.17-1.34-0.2-1.78    c0.13-0.09,0.26-0.17,0.39-0.26c0.09-0.09,0.17-0.17,0.26-0.26c-0.09-0.21-0.01-0.15-0.26-0.13c0-3.21,1.89-5.53,3.71-7.99    c0.36-0.48,2.02-2.3,2.59-2.05c-0.21-0.17-0.43-0.34-0.64-0.51c-0.09,0.04-0.17,0.09-0.26,0.13c-0.48-0.07-0.95-0.14-1.43-0.22    c-0.6-0.14-1.19-0.28-1.79-0.43c-1.04,0.06-2.08,0.12-3.11,0.19c-0.46,0.07-0.93,0.13-1.39,0.2c-1.12-0.13-2.23-0.26-3.35-0.39    c-0.43,0-0.86,0-1.29,0c-1.12-0.47-2.23-0.94-3.35-1.42c-0.2-0.22-0.35-0.45-0.64-0.51c-0.57-1.39-1.09-2.78-1.42-4.25    c-0.06-0.46-0.12-0.93-0.18-1.39c-0.2-1.04-0.39-2.08-0.59-3.12c-0.03-1.45,0.55-2.31,0.02-3.69c-0.4-1.03-1.58-2.81-2.74-3.07    c-0.36-0.04-0.73-0.08-1.09-0.12c-0.19,0.28-0.38,0.55-0.56,0.83c-0.47,0.31-0.93,0.62-1.4,0.93c-0.33,0.23-0.36,0.61-0.79,0.62    c-0.27,0.56-0.91,2.65-1.29,2.83c0.18,0.51,0.54,2.05,0.13,2.45c0.52,1,0.96,1.87,1.67,2.7c0.27,0.55,0.53,1.1,0.8,1.65    c0.57,1.02,1.16,1.78,1.09,2.97c-0.03,0.51-0.27,2.16-0.61,2.44c-1.27,1.02-2.72,1.54-4.24,2.07c-0.02-0.16-3.68-0.62-4.38-0.68    c-0.93-0.17-1.86-0.35-2.79-0.52c-1.4,0.08-2.7-0.49-4.04-0.86c-0.25-0.16-0.49-0.32-0.74-0.48c-0.53-0.18-1.05-0.36-1.58-0.55    c-0.9-0.26-1.8-0.51-2.7-0.77c-1.41-0.24-2.61-1.05-3.86-1.67c-0.44-0.14-0.88-0.27-1.32-0.41c-0.39-0.05-0.79,0.04-1.05-0.11    c-0.08-0.32-0.04-0.61-0.3-0.8c-0.45-0.27-2.26-1.53-2.62-1.13c-2.34-1.23-4.8-2.15-7.18-3.25c-0.72-0.33-2.98-1.75-3-2.54    c0-0.21,0.01-0.43,0.01-0.64c-0.13-0.39-0.26-0.77-0.39-1.16c0.18-0.55,0.36-1.11,0.54-1.66c0.16-0.48,0.32-0.96,0.47-1.44    c0.11-0.41,0.21-0.82,0.32-1.22c0.24-0.58,0.48-1.16,0.72-1.73c0.04-0.6,0.09-1.2,0.13-1.8c0.04-1.2,0.09-2.4,0.13-3.6    c-0.16-0.4-0.31-0.8-0.47-1.21c-0.06-0.5-0.12-1-0.18-1.5c-0.33-0.87-0.66-1.74-0.99-2.6c-0.05-0.38-0.1-0.75-0.15-1.13    c-0.32-0.95-0.65-1.91-0.97-2.86c-0.24-0.71-0.26-1.31-0.76-1.85c-0.35-0.38-1.46-1.03-1.62-0.94c-1.5,0.98-3.01,1.97-4.51,2.95    c-0.99,0.82-1.97,1.63-2.96,2.45c-1.36,0.99-3.02,1.28-4.34,2.22c-0.59,0.42-1.65,0.98-2.49,1.63c-0.56,0.44-1.02,0.92-1.15,1.43    c-0.31,0.18-0.73,0.33-0.9,0.64c-0.56,0.09-1.12,0.17-1.67,0.26c-0.43,0.21-0.86,0.43-1.29,0.64c-0.82,0.56-1.63,1.12-2.45,1.67    c-1.73,2.4-2.75,5.2-3.01,8.12c-0.03,0.08-0.06,0.17-0.08,0.25l0.41,0.23c0.76,0.87,1.53,1.73,2.29,2.6    c0.17,0.34,0.34,0.69,0.51,1.03c0.34,1.46,0.69,2.92,1.03,4.38c0.06,0.46,0.13,0.92,0.19,1.38c0.28,1,0.56,2,0.84,3    c-0.02,0.38-0.03,0.75-0.05,1.13c0.13,1.01,0.04,1.99,0.31,2.99c0.47,1.79,0.29,3.56,0.59,5.39c0.07,0.41,0.5,1.86,0.31,2.2    c0.5,0.84,1,1.69,1.49,2.53c0.2,0.33,0.54,0.69,0.57,1.07c1.53,1.53,5.05,2.71,7.08,2.96c1.83,0.5,3.67,1,5.5,1.49    c1.71,0.43,3.54,1.14,4.93,2.24c0.94,0.86,1.89,1.72,2.83,2.57c0.34,1.03,0.69,2.06,1.03,3.09c0.18,0.87-0.72,2.06-1.16,2.7    c-0.6,1.85-1.21,3.7-1.81,5.55c-0.08,0.37-0.27,0.93-0.12,1.27c-0.29,1.28-0.52,2.78-0.29,4.08c0.27,1,0.54,2,0.81,3    c-0.09,0.64-0.17,1.29-0.26,1.93c-0.61,1.29-1.21,2.63-1.54,3.99c-0.13,0.39-0.26,0.77-0.39,1.16c-0.77,1.53-1.49,3.01-2.38,4.48    c-0.88,1.21-1.76,2.42-2.64,3.63c-0.7,0.9-1.54,1.62-1.95,2.7c-0.42,1.11-1.07,1.94-1.66,2.97c-0.41,0.82-0.82,1.64-1.22,2.47    c-0.63,1.26-1.27,2.37-1.73,3.72c-0.28,0.83-0.92,1.46-1.11,2.33c-0.01,0.05,0.02,1.4-0.2,1.11L228.88,329.83z"/>
            <circle cx="264.8" cy="294.81" r="1.586"/>
        </g>
        <g id="__Yenifakılı">
            <path d="M186.65,263.53    c0.35,0.09,0.77-0.77,1.42-1.29c0.64-0.39,0.71-0.58,1.16-1.03c2.53-2.53,5.19-4.92,7.85-7.34c0.56-0.43,1.12-0.86,1.67-1.29    c0.1-0.35,0.64-1,1-1.07c1.19-0.93,2.39-1.85,3.58-2.78c1.85-0.81,3.7-1.63,5.56-2.44c0.62-0.35,1.06-0.92,1.83-0.92    c0.4-0.24,0.8-0.48,1.19-0.72c0.85-0.3,1.69-0.6,2.54-0.9c0.56-0.36,1.63-0.6,2.18-0.96l0.67-0.02c0.76,0.87,1.53,1.73,2.29,2.6    c0.17,0.34,0.34,0.69,0.51,1.03c0.34,1.46,0.69,2.92,1.03,4.38c0.06,0.46,0.13,0.92,0.19,1.38c0.28,1,0.56,2,0.84,3    c-0.02,0.38-0.03,0.75-0.05,1.13c0.13,1.01,0.04,1.99,0.31,2.99c0.47,1.79,0.29,3.56,0.59,5.39c0.07,0.41,0.5,1.86,0.31,2.2    c0.5,0.84,1,1.69,1.49,2.53c0.2,0.33,0.54,0.69,0.57,1.07c1.53,1.53,5.05,2.71,7.08,2.96c1.83,0.5,3.67,1,5.5,1.49    c1.71,0.43,3.54,1.14,4.93,2.24c0.94,0.86,1.89,1.72,2.83,2.57c0.34,1.03,0.69,2.06,1.03,3.09c0.18,0.87-0.72,2.06-1.16,2.7    c-0.6,1.85-1.21,3.7-1.81,5.55c-0.08,0.37-0.27,0.93-0.12,1.27c-0.29,1.28-0.52,2.78-0.29,4.08c0.27,1,0.54,2,0.81,3    c-0.09,0.64-0.17,1.29-0.26,1.93c-0.61,1.29-1.21,2.63-1.54,3.99c-0.13,0.39-0.26,0.77-0.39,1.16c-0.77,1.53-1.49,3.01-2.38,4.48    c-0.88,1.21-1.76,2.42-2.64,3.63c-0.7,0.9-1.54,1.62-1.95,2.7c-0.42,1.11-1.07,1.94-1.66,2.97c-0.41,0.82-0.82,1.64-1.22,2.47    c-0.63,1.26-1.27,2.37-1.73,3.72c-0.28,0.83-0.92,1.46-1.11,2.33c-0.01,0.05,0.02,1.4-0.2,1.11c-0.94-1.18-1.6-2.6-2.24-3.97    c-0.26-0.58-0.53-1.17-0.79-1.75c-0.87-1.08-1.74-3.31-2.08-4.67c-0.35-1.24-0.7-2.48-1.05-3.73c-0.26-1.85-0.48-2.81-1.03-3.35    c-0.78-2.45-1.57-4.9-2.35-7.35c-0.72-1.84-1.44-3.69-2.16-5.53c-0.21-0.73-0.43-1.46-0.64-2.19c-0.21-1.72-0.43-3.43-0.64-5.15    c0.11-0.57,0.23-1.14,0.34-1.71c-0.15-0.41-0.46-0.64-0.6-0.99c-0.08-0.73-0.15-1.46-0.23-2.19c-0.32-1.79-0.72-3.45-1.38-5.14    c-0.52-1.32-1.23-2.29-2.02-3.44c-0.26-0.43-0.53-0.87-0.79-1.3c-0.64-0.6-1.17-1.47-1.55-2.28c-0.79-1.68-3.14-3.65-2.13-2.39    c-2.74-3.43-6.55-5.42-10.56-6.95c-1.37-0.51-2.75-1.02-4.12-1.53c-1.59-0.3-3.3,0.01-4.86-0.46L186.65,263.53z"/>
            <circle cx="219.87" cy="290.69" r="1.586"/>
        </g>
        <g id="__Şefaatli">
            <path d="M216.65,242.8    c-0.56,0.36-1.63,0.6-2.18,0.96c-0.85,0.3-1.69,0.6-2.54,0.9c-0.4,0.24-0.8,0.48-1.19,0.72c-0.77,0-1.21,0.58-1.83,0.92    c-1.85,0.81-3.7,1.63-5.56,2.44c-1.19,0.93-2.39,1.85-3.58,2.78c-0.36,0.07-0.9,0.72-1,1.07c-0.56,0.43-1.12,0.86-1.67,1.29    c-2.66,2.42-5.32,4.81-7.85,7.34c-0.45,0.45-0.51,0.64-1.16,1.03c-0.64,0.52-1.07,1.37-1.42,1.29c-2.27-0.62-4.94-1.31-7.21-1.93    c-0.82-0.34-1.63-0.69-2.45-1.03c-0.73-0.34-1.46-0.69-2.19-1.03c-0.27-0.13-0.62-0.39-0.9-0.25c-2.2-1.06-4.4-2.12-6.6-3.18    c-1.3-0.55-2.6-1.1-3.91-1.65c-0.39-0.19-1.13-0.23-1.34-0.58c-0.17,0.09-0.34,0.17-0.51,0.26c-0.39-0.34-0.77-0.69-1.16-1.03    c-2.45-1.02-4.91-2.05-7.36-3.07c-0.42-0.16-1.86-0.87-2.17-0.66c-0.04-0.14-0.09-0.28-0.13-0.42c-0.22-1.01,0.39-2.84,0.56-3.96    c0.12-0.47,0.23-0.94,0.35-1.41c0.13-0.69,0.26-1.37,0.39-2.06c0.13-0.77,0.26-1.54,0.39-2.32c-0.07-1.15-0.47-2.16-0.9-3.22    c-0.13-0.26-0.26-0.52-0.39-0.77c-0.77-0.9-1.54-1.8-2.32-2.7c-1.36-0.82-2.95-1.12-4.4-1.74c-0.57-0.24-2.84-1.36-2.86-1.44    c-0.5-2.08-1.78-3.77-2.73-5.59c-0.49-1.31-0.99-2.62-1.48-3.92c-0.35-0.85-0.6-1.75-0.64-2.61c-0.02-0.29-0.03-0.57-0.05-0.86    c0.36-0.41,0.72-0.81,1.09-1.22c1.11-0.89,2.74-1.39,3.74-2.39c1.67-1.35,3.34-2.7,5.02-4.05c0.9-0.71,1.35-1.94,1.85-2.93    c0.74-1.46,1.95-3.48,3.3-4.41c0.31-0.11,0.61-0.21,0.92-0.32c0.4-0.13,0.68-0.3,1.14-0.29c0.36,0.01,0.7,0.2,1.03,0.09    c0.78,0.32,1.56,0.64,2.34,0.97c0.52,0.04,1.04,0.09,1.55,0.13c0.81,0.35,2.33,1.74,2.68,0.45c0.16-0.28,0.32-0.56,0.49-0.84    c0.22-0.36,0.45-0.72,0.67-1.09c0.01-1.49,0.02-2.98,0.03-4.47c0.27-0.76,0.55-1.51,0.82-2.27c0.52-0.14,0.97-0.72,1.34-1.11    c0.07-1.12,0.76-2.26,1.7-3.12c0.75-0.69,1.67-1.21,2.55-1.39c0.62-0.55,2.51-2.45,3.09-2.57c0.28,0.02,0.57,0.04,0.85,0.06    c2.68,0.49,5.36,0.99,8.03,1.48c1.41-0.04,2.83-0.09,4.24-0.13c0.43,0.04,0.86,0.09,1.29,0.13c0.57-0.15,2.28-0.3,2.57-0.51    c0.05,0.1,0.1,0.2,0.15,0.3c0.2,0.45,1.09,2,0.88,2.4c0.23,0.17,0.45,0.34,0.68,0.51c1.47,0.89,3.23,1.51,4.99,1.68    c0.69,0.26,1.37,0.51,2.06,0.77c0.81,0.72,1.63,1.45,2.44,2.17c0.62,0.64,1.25,1.63,1.54,2.47c0.77,0.68,1.43,2.3,1.43,3.34    c1.52,1.84,2.16,4.22,3.8,5.86c2.24,2.24,4.67,4.18,6.37,6.88c0.34,0.55,0.98,0.79,1.16,1.42c0.6,0.44,2.25,2.02,2.45,2.7    c0.76,0.52,2.9,2.45,3.22,3.22c0.64,0.63,1.27,1.26,1.91,1.89c0.48,0.06,0.85,0.64,1.15,1c0.41,0.09,0.57,0.49,0.8,0.84    c0.63,0.92,1.11,1.89,1.67,2.83c0.34,0.34,0.69,0.69,1.03,1.03c0.15,0.31,0.31,0.62,0.46,0.93c0.05,0.07,0.11,0.15,0.17,0.22    c-0.09,0.42,0.04,0.63-0.21,0.93l0.35-0.42c-0.56,0.44-1.02,0.92-1.15,1.43c-0.31,0.18-0.73,0.33-0.9,0.64    c-0.56,0.09-1.12,0.17-1.67,0.26c-0.43,0.21-0.86,0.43-1.29,0.64c-0.82,0.56-1.63,1.12-2.45,1.67c-1.73,2.4-2.75,5.2-3.01,8.12    L216.65,242.8z"/>
            <circle cx="173.39" cy="220.14" r="1.586"/>
        </g>
        <g id="__Yerköy">
            <path d="M141.54,229.32    c-0.5-2.08-1.78-3.77-2.73-5.59c-0.49-1.31-0.99-2.62-1.48-3.92c-0.35-0.85-0.6-1.75-0.64-2.61c-0.02-0.29-0.03-0.57-0.05-0.86    c0.36-0.41,0.72-0.81,1.09-1.22c1.11-0.89,2.74-1.39,3.74-2.39c1.67-1.35,3.34-2.7,5.02-4.05c0.9-0.71,1.35-1.94,1.85-2.93    c0.74-1.46,1.95-3.48,3.3-4.41c0.31-0.11,0.61-0.21,0.92-0.32c0.4-0.13,0.68-0.3,1.14-0.29c0.36,0.01,0.7,0.2,1.03,0.09    c0.78,0.32,1.56,0.64,2.34,0.97c0.52,0.04,1.04,0.09,1.55,0.13c0.81,0.35,2.33,1.74,2.68,0.45c0.16-0.28,0.32-0.56,0.49-0.84    c0.22-0.36,0.45-0.72,0.67-1.09c0.01-1.49,0.02-2.98,0.03-4.47c0.27-0.76,0.55-1.51,0.82-2.27c0.52-0.14,0.97-0.72,1.34-1.11    c0.07-1.12,0.76-2.26,1.7-3.12l-0.28-0.1c-2.09,0.26-3.22,1.18-5.41,0.26c-1.56-0.66-2.74-2.03-3.99-3.09    c0.18-0.36-0.38-1.13-0.51-1.54c0.02-0.99,0.04-1.98,0.06-2.97c0.2-1.84,3.36-2.15,4.81-2.36c2.82-0.4,4.63-1.56,6.07-4.07    c0.05-0.47,0.09-0.94,0.14-1.42c0.04-0.51,0.08-1.03,0.12-1.54c-0.44-1.54-0.87-3.07-1.31-4.61c-0.17-0.44-0.33-0.87-0.49-1.31    c-0.34-0.26-0.69-0.51-1.03-0.77c0-1.41-1.7-2.37-2.57-3.22c-2.14-2.07-3.87-3.05-6.82-3.73c-0.24,0.26-0.92,0.23-1.29,0.26    c-1.03,0.06-1.94-0.05-2.95,0.29c-0.93,0.31-3.02,1.92-3.49,2.8c-0.57,0.13-1.86,1.8-2.32,2.32c-0.29-0.03-0.81,0.3-1.03,0.51    c-0.99,0-1.75-0.12-2.7-0.39c-1.13-1.13-3.25-2.74-3.6-4.38c-0.19-0.85,0.34-1.42,0.51-2.19c0.3-1.91,0.61-3.81,0.91-5.72    c0.26-1.36,1.39-2.25,1.34-3.68c-0.03-0.94-0.47-1.55-0.96-2.32c0-1.59-1.62-2.68-2.7-3.6c-0.2,0.2-0.78-0.22-1.03-0.39    c-1.95-1.28-2.72-2.44-5.28-2.06c-0.51,0.55-0.82,1.14-1.16,1.8c0,0.09,0,0.17,0,0.26c-0.45,0.91-1.51,2.05-2.35,2.52    c-0.19,0.1-0.44-0.23-0.59-0.36c-0.62-0.55-0.92-1.24-1.18-2.03c0.27-0.7-0.1-1.98-0.26-2.7c0.28-0.26,0.22-1.03,0.25-1.42    c0.09-1.38-0.1-2.79-0.23-4.12c-0.03-0.41-0.47-0.64-0.78-0.91c-0.72-0.62-1.38-1.17-2.21-1.65c-3.5-1.99-8.2-0.89-11.44-3.36    c0.13-0.41-0.58-1.03-0.77-1.42c-0.46-1.17-0.92-2.33-1.38-3.5c-0.18-1.22-0.35-2.45-0.53-3.67c-0.35-1.21-0.71-2.43-1.06-3.65    c-0.44-0.21-0.65-1.04-1.04-1.41c-1.33-1.25-2.59-2.29-3.84-3.62c-0.13-0.12-0.27-0.25-0.4-0.37c-0.39,0.34-0.77,0.69-1.16,1.03    c-0.4,0.41-0.81,0.82-1.21,1.23c-0.45,0.45-0.91,0.9-1.36,1.34c-0.83,0.48-2.16,0.56-3.09,0.39c-1.28-0.29-2.57-0.58-3.85-0.88    c-2.19-0.65-3.57-1.31-5.93-1.2c-0.87,0.24-1.73,0.48-2.6,0.72c-0.5,0.12-1.01,0.24-1.51,0.36c-1.42,0.47-2.73,0.96-4.19,1.18    c-0.93-0.06-1.85-0.13-2.78-0.19c-1.5-0.04-3-0.09-4.5-0.13c-1.19,0.28-2.39,0.56-3.58,0.84c-1.37,0.46-3.34,2.1-4.53,3.03    c-0.39-0.14-1.1,0.54-1.42,0.77c-1.2,0.51-2.4,1.03-3.6,1.54c-0.51,0.17-1.03,0.34-1.54,0.52c-1.33,0.04-2.66,0.08-3.99,0.12    c-0.51,0.03-1.16-0.02-1.49,0.39c-1.43-0.29-2.7,0.19-3.78,1.05c-0.13,0.51-0.27,1.02-0.4,1.53c0.18,1.35,1.02,2.48,1.2,3.87    c0.12,0.96-0.07,1.75-0.17,2.7c-0.04,0.69-0.09,1.37-0.13,2.06c-0.17,1.74-0.67,3.4-0.64,5.16c0.02,1.51,0.73,3.58,2.1,4.39    c0.66,0.07,0.58,1.32,1.24,1.39c0.3,0.42,1.11,0.48,1.42,0.9c0.36,0.41,0.93-0.02,1.29,0.39c0.52,0.44,1.32,0.74,1.48,1.46    c-1.41-1.53-0.87-0.56,0.45,0.47c0.48,0.38,0.45,0.6,0.9,0.9c0.5,0.33,1.41,0.72,0.52,0.77c0.42,0.07,3.35,0.77,3.35,0.13    c0-0.64,1.06-0.56,1.67-0.64c0.43,0.42,0.99-0.94,1.42-0.51c2.55,0,3.85,1.11,5.7,2.68c0.91,0.77,1.8,1.39,2.49,2.35    c0.09,0.13-0.01,1.22,0.01,1.67c0.05,1.07,0.38,2.18,0.72,3.19c1.4,4.19,4.27,7.65,8.08,9.81c2.76,1.56,7.25,3.16,10.43,2.45    c2.36,0.13,4.72,0.26,7.08,0.39c0.51,0.15,1.03,0.29,1.54,0.43c0.99,0.41,1.98,0.83,2.97,1.24c1.42,0.69,2.83,1.37,4.25,2.06    c0.14-0.01,0.27-0.02,0.41-0.04c0.64,0.18,1.27,0.37,1.91,0.55c0.9,0,1.8,0,2.7,0c1.08,0.52,1.73,1.54,2.7,2.19    c0.86,0.39,1.72,0.77,2.57,1.16c1.16,0.04,2.32,0.09,3.48,0.13c0.1,0.29,0.5,0.37,0.77,0.51c-0.23,0.32,0.08,0.66,0.13,1.03    c0.08,0.94,0.16,1.89,0.24,2.83c0.09,0.68-0.63,1.29-1.01,1.8c-0.28-0.21-0.67,0.03-0.9,0.25c-0.37,0.37-0.12,0.47,0.12,0.91    c-0.29,0.63-0.58,1.26-0.87,1.88c0.25,0.1,0.5,0.2,0.74,0.31c0.19,0.16,0.37,0.33,0.56,0.49c0.76,0.69,1.52,1.39,2.27,2.08    c0.62,0.05,1.05,0.07,1.64,0.24c0.56,0.18,0.5,0.73,0.76,1.26c0.21,0.43,1.14,1.48,1.59,1.73c0.68,0.37,1.14,0.96,1.72,1.49    c0.18,0.17,0.16,0.24,0.34,0.06c0.46,0.53,0.92,1.06,1.38,1.59c0.57,0.58,1.14,1.17,1.71,1.75c1.26,1.75,2.09,3.65,2.19,5.79    c0.08,1.69-0.97,4.95-1.93,6.31c-0.21,0.51-0.43,1.03-0.64,1.54c-0.28,1.01-0.06,1.47-0.13,2.45c-0.13,1.8,0.13,4.34,0.77,6.05    c0.79,2.1,2.39,3.58,4.45,4.45c1.18,0.71,2.36,1.42,3.54,2.14c1.38,0.75,2.77,1.49,4.15,2.24L141.54,229.32z"/>
            <circle cx="120.87" cy="186.41" r="1.586"/>
        </g>
        <g id="__Saraykent">
            <path d="M353.57,117.16    c-0.13-0.93-0.24-1.2-1.11-2.07c-2.25-0.43-3.25,0.34-5.31,0.79c-0.98,0.25-1.96,0.5-2.93,0.76c-0.4,0.21-0.8,0.41-1.2,0.62    c-1.32,0.31-2.6,0.74-3.79,1.34c-1.27,0.64-2.31,1.45-3.52,2.22c-0.51,0.33-1.1,0.61-1.67,0.92c-0.57,0.31-1.11,0.65-1.54,1.08    c-0.09,0.51-0.19,1.03-0.28,1.54c0,0,0.28,2.26,0.28,3.35c0,1.17,0.04,2.33-0.26,3.48c-0.3,0.43-0.6,0.86-0.9,1.29    c-0.92,0.75-1.84,1.5-2.76,2.25c-0.41,0.49-0.82,0.99-1.23,1.48c-0.73,0.61-1.46,1.22-2.18,1.83c-0.95,0.76-1.86,1.61-2.57,2.6    c-0.43,0.68-0.86,1.36-1.28,2.04c-0.61,0.94-1.21,1.87-1.82,2.81c-0.54,1.75-1.66,3.63-2.83,5.02c-0.45,0.62-0.9,1.25-1.34,1.87    c-0.68,0.68-1.72,1.56-2.65,1.86c-0.6,0.3-1.2,0.6-1.8,0.9c-0.97,0.91-1.95,1.81-2.92,2.72c-0.61,0.34-1.22,0.68-1.83,1.02    c-0.51,0.31-1.52,1.02-2.07,1.02c-1.54,1.29-3.09,2.57-4.63,3.86c-0.56,0.64-1.12,1.29-1.67,1.93c0.17,0.3-0.27,1.9-0.39,2.32    c0.22,0.19,0.18,1.51,0.24,1.92c0.22,1.46,0.29,2.97,0.79,4.39c0.3,0.21,0.59,1.61,0.27,2.07l0.37,0.37    c0.3,0.89,0.83,1.61,1.28,2.44c0.52,1.01,1.03,2.01,1.55,3.02c0.31,0.4,0.63,0.8,0.94,1.21c0.76,0.78,1.52,1.56,2.29,2.35    c0.35,0.29,0.71,0.57,1.06,0.86c0.42,0.23,0.84,0.46,1.26,0.69c1.3,0,3.11-0.34,4.34,0.16c0.53,0.08,1.05,0.15,1.58,0.23    c0.73,0.5,1.44,0.92,1.93,1.67c0.39,0.39,0.77,0.77,1.16,1.16c0.74,0.25,1.48,0.51,2.21,0.76c0.64,0.22,1.27,0.44,1.91,0.66    c0.51,0.03,1.03,0.07,1.54,0.1c0.77,0.05,1.55,0.1,2.32,0.15c0.35-0.18,0.7-0.34,1.05-0.47l-0.4,0.21c0.65-0.13,1.35-2.5,1.65-3.1    c0.58-1.25,1.17-2.5,1.75-3.75c0.18-0.59,0.36-1.19,0.54-1.78c0.14-0.56,0.29-1.12,0.43-1.67c0.04-0.47,0.09-0.94,0.13-1.42    c0.32-0.75,0.54-1.61,0.51-2.32c0.39-0.13,1.14-1.59,0.51-1.8c0.34-0.5,0.04-0.62-0.13-1.16c0.46-0.46,0.35-1.94,0.21-2.58    c-0.17-1.15-0.34-2.29-0.51-3.44c-0.2-1.34-0.4-2.68-0.6-4.02c-0.26-0.86-0.52-1.72-0.77-2.57c0.23-0.21,0.14-0.35,0.13-0.64    c-0.08-0.57-0.17-1.14-0.25-1.71c-0.22-1.23-0.43-2.46-0.65-3.69c0.41-0.47,0.22-2.36,0.35-3.07c0.11-0.58,0.63-1.62,1.22-1.76    c0.29-0.36,0.66-0.92,1.12-1.01c1.93-2.1,4.33-3.34,6.08-5.69c0.42-0.87,0.85-1.75,1.27-2.62c0.26-0.73,0.52-1.46,0.77-2.19    c0.51-0.56,1.03-1.12,1.54-1.67c0.94-1.29,1.89-2.57,2.83-3.86c0.52-0.42,1.79-2.3,2.06-2.96c0.26-0.86,0.51-1.72,0.77-2.57    c0.47-0.82,0.94-1.63,1.42-2.45c0.22-0.55,0.45-1.11,0.67-1.66c0.8-1.13,1.61-2.25,2.41-3.38c0.52-0.79,1.04-1.66,1.63-2.47    L353.57,117.16z"/>
            <circle cx="314.62" cy="173.67" r="1.586"/>
        </g>
        <g id="__Sorgun">
            <path d="M331.84,123.92    c-0.21-0.11-0.41-0.22-0.62-0.33c-1.88,0.38-3.76,0.76-5.64,1.13c-0.6-0.02-1.2-0.03-1.81-0.05c-0.78-0.06-1.56-0.12-2.34-0.18    c-0.99,0.17-1.97,0.34-2.96,0.51c-0.52,0.17-1.03,0.34-1.55,0.52c-1.65,0.54-3.44,1.14-4.76,2.32c-0.26,0.39-0.52,0.77-0.77,1.16    c-1.49,1.25-4.15,3.15-6.18,2.57c-0.6-0.17-1.02-0.5-1.54-0.77c-0.12-0.25-0.15-0.51-0.39-0.64c0,0.22,0.04,0.19-0.1,0.24    c-0.35-0.47-0.71-0.93-1.06-1.4c-0.1-1.24-0.19-2.47-0.29-3.71c0.1-0.44,0.19-0.87,0.29-1.31c-0.03-0.77-0.05-1.54-0.08-2.31    c-0.12-0.92-0.12-1.8-0.19-2.73c0-0.42,0.01-0.85,0.01-1.27c-0.04-0.69-0.09-1.37-0.13-2.06c-0.15-0.32-0.43-0.68-0.39-1.03    c-1.47-2.1-3.87-2.68-6.31-2.57c-0.43-0.09-0.86-0.17-1.29-0.26c-0.77-0.01-1.54-0.03-2.32-0.04c-0.86-0.12-1.72-0.23-2.57-0.35    c-0.86,0-1.72,0-2.57,0c-0.61-0.61-0.48-1.91-0.64-2.7c-0.26-1.2-0.53-2.4-0.79-3.6c-0.08-0.6-0.16-1.2-0.24-1.8    c-0.1-1.06,0.02-2.31-0.77-3.1c-0.98-0.89-2.19-0.85-3.34-1.44c-0.35-0.18-0.78-0.54-1.17-0.48c-0.31-0.28-0.74-0.74-1.16-0.77    c-0.73-0.73-1.46-1.46-2.19-2.19c-0.26-0.56-0.51-1.12-0.77-1.67c-0.04-0.47-0.09-0.94-0.13-1.42c0.04-0.26,0.09-0.51,0.13-0.77    c-0.14-1.28-0.58-2.5-0.98-3.71c-0.17-0.51-1.09-2.35-0.95-2.72c-1.78-1.08-3.04-2.94-4.76-4.25c-0.43-0.22-0.87-0.43-1.3-0.65    c-1.3-0.95-2.93-1.56-4.56-1.43c-0.63-0.35-3.11-0.66-3.67-0.1c-1.84,0.34-3.69,0.69-5.54,1.03c0.22,0.22-0.42,1.12-0.3,1.64    c0.29,1.24,0.98,2.34,1.07,3.64c-0.04,0.64-0.09,1.29-0.13,1.93c-0.09,0.3-0.17,0.6-0.26,0.9c-0.39,0.6-0.77,1.2-1.16,1.8    c-0.43,0.3-0.86,0.6-1.29,0.9c-1.57,0.54-3.24,0.79-4.89,0.9c-1.72,0.3-3.43,0.6-5.15,0.9c-0.86,0.26-1.72,0.51-2.57,0.77    c-1.01,0-2.96,0.79-3.83,1.31c-0.57,0.29-1.13,0.59-1.7,0.88c0.16,0.26,0.38,0.33,0.26,0.64c0.87,0.38,1.76,0.63,1.55,1.67    c-0.06,0.37-0.47,1.65-0.39,1.8c-1.97,2.1-3.93,4.19-6.29,5.82c-0.57,0.39-2.15,1.66-2.72,1.65c-1.51,1.16-2.72,2.55-3.79,4.12    c-0.28,0.52-0.57,1.04-0.85,1.56c-1.31,1.6-1.52,3.26-1.8,5.26c0.04,0.6,0.09,1.2,0.13,1.8c0.09,0.51,0.17,1.03,0.26,1.54    c0.04,0.71,0.91,1.85,1.29,2.45c0.2,0.32,0.42,0.66,0.39,1.03c0.64,0.73,1.29,1.46,1.93,2.19c-0.09,1.03-0.17,2.06-0.26,3.09    c0,2.59,0.25,5.36-0.52,7.86c0,0.64,0,1.29,0,1.93c-0.09,0.36-0.3,0.39-0.45,0.71c-0.4,1.05-0.81,2.09-1.21,3.14    c-0.22,0.65-0.44,1.3-0.66,1.95c-0.21,1.33-0.64,2.58-0.87,3.87c-0.66,3.67-0.75,7.51,0.42,11.04c0.76,2.28,2.11,5.37,3.54,7.23    c0.26,0.51,0.52,1.03,0.77,1.54c0.09,0.6,0.19,1.19,0.28,1.79c0.24,1.07,0.58,2.08,0.49,3.23c0.21,0.77,0.41,1.54,0.62,2.32    c0.22,1.2,0.45,2.4,0.67,3.6c0.09,0.49,0.14,0.86,0.45,1.26c-0.09,0.36-0.03,0.79,0.11,1.14c0.11,0.49,0.23,0.97,0.34,1.46    c0.28,0.6,0.56,1.08,1.03,1.54l0.28,0.72c0.17,0.21,0.38,0.4,0.63,0.67c0.13,0.14,0.29,0.48,0.47,0.34    c0.36-0.32,0.71-0.64,1.07-0.96c0.28,0.28,0.95-0.18,1.32-0.25c1.83-0.36,3.44-0.51,4.86-1.94c-0.02-0.37-0.3-1.38-0.13-1.54    c0.43,0.14,0.7,0.39,0.95-0.04c0.25-0.41,0.53-1.25,1.11-1.25c0.21-0.26,0.43-0.51,0.64-0.77c0.53,0,1.12-0.59,1.67-0.26    c0.17-0.16,0.34-0.32,0.51-0.49c0.34-0.1,0.69-0.19,1.03-0.29c0.47,0.3,0.94,0.6,1.42,0.9c-0.17,0.13-0.34,0.26-0.51,0.39    c-0.69,0.43-1.37,0.86-2.06,1.29c-0.25,0-1.01-0.43-1.04,0.14c0.05,0.47,0.09,0.94,0.14,1.4c-0.27,0.43-0.44,0.78-0.51,1.29    c-0.88,0.85-2.01,1.46-2.45,2.57c0.17,0.47,0.34,0.94,0.51,1.42c-0.17,0.09-0.33,0.18-0.5,0.27c-0.21,0.13-0.17,0.1-0.38-0.02    c-0.18-0.08-0.36-0.17-0.53-0.25c0.21-0.02,0.41-0.04,0.62-0.06c-0.29-0.62-1.38-2.01-2.16-1.61c-0.39-0.3-0.77-0.7-1.27-0.6    c-0.45,0.1-0.84,0.27-1.17,0.6c-0.47,0.04-0.94,0.09-1.42,0.13c-0.04,0.13-0.09,0.26-0.13,0.39c0,0.38-0.03,0.74,0.26,1.03    c0.94,0.6,1.89,1.2,2.83,1.8c1,0.52,1.15,0.39,2.19,1.03c0.22,0.65,1.25,0.72,0.77,1.29c0.09,0.09,0.17,0.17,0.26,0.26    c0.33,0.33,1.35,1.04,1.42,1.54c0.26,0.17,0.51,0.34,0.77,0.51c0,0.76,0.26,1.87,0.9,2.32c0,0.66,0.8,2.87,1.32,3.16    c0.37,0.18,1.6,0.13,1.66,0.56c0.05,0.31,0.09,0.96-0.16,1.15c-0.49,0.38-0.87,0.89-1.52,0.74c-0.09-0.02-0.18-0.05-0.27-0.07    c-0.19-0.19-0.13-0.39-0.13-0.64c-0.13-0.13-0.26-0.26-0.39-0.39c-0.45,0-1.48,0.41-1.78-0.02c-0.31-0.48-0.64-0.73-1.05-1.14    c0-0.17,0-0.34,0-0.51c-0.34-0.21-0.69-0.43-1.03-0.64c-0.34-0.39-0.69-0.77-1.03-1.16c0-0.26,0-0.51,0-0.77    c-0.26-0.6-0.51-1.2-0.77-1.8c0.08-0.21,0.17-0.42,0.25-0.64c0-0.73,0-1.46,0-2.2c-0.36-0.19-1.29-0.03-1.29-0.64    c-0.56-0.26-1.12-0.51-1.67-0.77c-0.26-0.19-0.51-0.46-0.51-0.77c-0.51-0.45-1.55-1.37-2.24-0.84l0.18,0.46    c0.26,0.95,1.63,2.56,2.57,2.7c0.3,0.69,0.66,1.18,1.03,1.8c0.53,0.89,0.88,1.86,1.32,2.81c0.2,0.44,0.41,0.87,0.61,1.31    c0.43,0.86,0.86,1.72,1.29,2.57c0.48,0.72,0.95,1.43,1.43,2.15c0.6,0.83,1.19,1.66,1.79,2.49c0.26,1.03,0.51,2.06,0.77,3.09    c0.41,0.41,0.85,1.83,0.8,2.41c0.22,0.16,0.42,0.41,0.49,0.68c0.09,0.69,0.17,1.37,0.26,2.06c0.13,0.48,0.56,0.95,0.9,1.29    c0,0.87,0.26,1.5,0.39,2.32c-0.18,0.83,0.64,0.39,0.64,0.64s0.58-0.9,0.64-0.26c0.9-0.77,1.03-0.9,1.93-1.67    c0.3-0.38,0.6-0.77,0.9-1.15c0.44-0.47,1.03-1.03,1.16-1.68c0.82-0.86,1.89-1.72,2.7-2.57c0.58-1.12,1.17-2.25,1.75-3.37    c0.14-0.36,0.44-0.89,0.31-1.26c0.27-0.34,0.51-0.92,0.9-1.29c0.43-0.41,1.02-0.6,1.46-0.76c1.21-0.44,2.13-0.19,3.26,0.32    c0.23,0.1,0.46,0.21,0.68,0.31c0.99-0.1,2.43-0.18,3.35,0.51c0.69,0,1.37,0,2.06,0c0.5,0.14,1,0.28,1.5,0.42    c1.39,0.12,2.77,0.23,4.16,0.35c0.26,0,0.51,0,0.77,0c0.09,0.04,0.17,0.09,0.26,0.13c0.92-0.17,1.8-0.81,2.53-1.35    c1.87-1.4,3.85-3.83,4.81-5.99c0-0.59-0.16-1.44-0.51-1.84c-1.58-1.58-3.83-1.54-5.92-1.78c-1.29-0.15-2.87-0.42-3.3-1.76    c-0.21-0.58-0.52-2.26-0.05-2.73c0-0.48,1.51-1.55,1.8-1.56c0.9-0.04,1.81-0.08,2.71-0.11c0.43-0.26,0.86-0.52,1.29-0.77    c0.48-0.02,0.96-0.04,1.44-0.06c0.51-0.11,1.02-0.22,1.52-0.33c0.94-0.49,1.91-0.75,2.96-0.88c0.86-0.78,1.72-1.56,2.58-2.34    c0.39-0.21,0.77-0.43,1.16-0.64c0.85-1.02,1.71-2.04,2.56-3.07c0.57-0.81,0.93-1.66,1.69-2.34c1.07-0.13,2.15-0.26,3.22-0.39    c0.45-0.12,1.42-0.5,1.8-0.26c0.83-0.66,1.74-1.3,2.74-1.68c0.55-0.17,1.1-0.33,1.65-0.5c0.32-0.46,0.03-1.86-0.27-2.07    c-0.5-1.42-0.57-2.93-0.79-4.39c-0.06-0.4-0.02-1.72-0.24-1.92c0.12-0.42,0.55-2.01,0.39-2.32c0.56-0.64,1.12-1.29,1.67-1.93    c1.54-1.29,3.09-2.57,4.63-3.86c0.56,0,1.56-0.71,2.07-1.02c0.61-0.34,1.22-0.68,1.83-1.02c0.97-0.91,1.95-1.81,2.92-2.72    c0.6-0.3,1.2-0.6,1.8-0.9c0.93-0.3,1.97-1.18,2.65-1.86c0.45-0.62,0.9-1.25,1.34-1.87c1.17-1.39,2.29-3.28,2.83-5.02    c0.61-0.94,1.21-1.87,1.82-2.81c0.43-0.68,0.86-1.36,1.28-2.04c0.71-0.99,1.62-1.84,2.57-2.6c0.73-0.61,1.46-1.22,2.18-1.83    c0.41-0.49,0.82-0.99,1.23-1.48c0.92-0.75,1.84-1.5,2.76-2.25c0.3-0.43,0.6-0.86,0.9-1.29c0.3-1.14,0.26-2.3,0.26-3.48    C332.51,126.62,332.77,124.57,331.84,123.92z"/>
            <circle cx="252.95" cy="144.06" r="1.586"/>
        </g>
        <g id="__Yozgat">
            <path d="M243.17,215.77    c-0.34-0.34-0.77-0.8-0.9-1.29c-0.09-0.69-0.17-1.37-0.26-2.06c-0.07-0.27-0.27-0.52-0.49-0.68c0.05-0.58-0.4-2-0.8-2.41    c-0.26-1.03-0.52-2.06-0.77-3.09c-0.6-0.83-1.19-1.66-1.79-2.49c-0.48-0.72-0.95-1.43-1.43-2.15c-0.43-0.86-0.86-1.72-1.29-2.57    c-0.2-0.44-0.41-0.87-0.61-1.31c-0.45-0.95-0.8-1.92-1.32-2.81c-0.37-0.62-0.73-1.12-1.03-1.8c-0.95-0.14-2.31-1.75-2.57-2.7    l-0.18-0.46c-0.03,0.02-0.05,0.04-0.08,0.07c-0.04,0.56-0.09,1.12-0.13,1.67c-0.21,0.28-0.43,0.57-0.64,0.85    c-0.13,0.21-0.32,0.82-0.52,0.82c-0.39,0-0.64,0.67-1,0.45c-0.99-0.66-0.04-2.26,1-2.26c0.04-0.26,0.09-0.51,0.13-0.77    c-0.75,0-1.08-1.12-1.35-1.64c-0.29-0.05-0.61-0.38-0.58-0.68c-0.24-0.12-0.77-0.37-0.77-0.64c0-0.23-0.02-1.51,0.33-1.23    c0.4,0.35,0.57,0.68,0.57,1.23c0.27,0.41,0.56,0.56,0.9,0.9c0,0.36,0.44,0.78,0.78,0.79c0.18,0,0.38,0.07,0.38-0.14    c0.23-0.35,0.42-0.65,0.36-1.04l0.24,0.63l-1.38-3.58c-0.47-0.47-0.75-0.95-1.03-1.54c-0.11-0.49-0.23-0.97-0.34-1.46    c-0.14-0.35-0.19-0.78-0.11-1.14c-0.32-0.4-0.36-0.77-0.45-1.26c-0.22-1.2-0.45-2.4-0.67-3.6c-0.21-0.77-0.41-1.55-0.62-2.32    c0.08-1.15-0.26-2.16-0.49-3.23c-0.09-0.6-0.19-1.19-0.28-1.79c-0.26-0.51-0.51-1.03-0.77-1.54c-1.43-1.86-2.78-4.96-3.54-7.23    c-1.18-3.53-1.08-7.37-0.42-11.04c0.23-1.29,0.67-2.54,0.87-3.87c0.22-0.65,0.44-1.3,0.66-1.95c0.4-1.05,0.81-2.09,1.21-3.14    c0.15-0.32,0.36-0.35,0.45-0.71c0-0.64,0-1.29,0-1.93c0.77-2.5,0.52-5.27,0.52-7.86c0.09-1.03,0.17-2.06,0.26-3.09    c-0.64-0.73-1.29-1.46-1.93-2.19c0.03-0.37-0.18-0.71-0.39-1.03c-0.38-0.59-1.24-1.74-1.29-2.45c-0.09-0.51-0.17-1.03-0.26-1.54    c-0.04-0.6-0.09-1.2-0.13-1.8c0.28-2,0.49-3.66,1.8-5.26c0.28-0.52,0.57-1.04,0.85-1.56c1.07-1.57,2.27-2.96,3.79-4.12    c0.57,0.02,2.16-1.25,2.72-1.65c2.36-1.64,4.31-3.72,6.29-5.82c-0.08-0.15,0.33-1.43,0.39-1.8c0.2-1.05-0.68-1.29-1.55-1.67    c0.12-0.31-0.09-0.38-0.26-0.64l-1.06,1.26c-0.92,1.41-3.18,2.51-4.83,3.28c-2.18,1.01-3.85,0.62-6.17,0.39    c-4.39-0.44-8.3-0.97-13.71-0.77c-3.23,0.12-6.17,0.57-6.94-4.45c-0.38-2.46,0-6.95-4.25-7.33c-5.06-0.46-4.82,3.72-5.4,5.99    c-0.75,2.93-1.95,4.69-5.22,5.02c-3.03,0.3-6.35,0.08-9.07-0.77c-3.05-0.95-5.66-2.87-8.69-3.68c-2.75-0.74-7.75-1.75-10.62-1.34    c-2.7,0.39-3.2,3.12-4.49,5.59c-0.7,1.35-0.46,3.07-0.91,4.46c-0.36,1.14-1.02,2.25-1.51,3.32c-0.56,1.23-1.14,2.34-2.41,3.19    c-1.37,0.92-2.26,0.82-4.01,0.82c-3.34,0-5.47-0.63-7.96-2.7c-2.15-1.79-3.52-3.68-5.99-4.97c-5.05-2.64-11.47-5.8-17.48-3.28    c-2.48,1.04-4.41,2.38-6.03,4.19c-0.95,1.05-2.55,2.09-3.24,3.34c-0.56,1.01-1.59,3.3-1.3,4.43c0.32,1.27,2.91,2.85,3.84,3.73    c0.39,0.37,0.6,1.19,1.04,1.41c0.35,1.21,0.71,2.43,1.06,3.65c0.18,1.22,0.35,2.45,0.53,3.67c0.46,1.17,0.92,2.33,1.38,3.5    c0.2,0.39,0.9,1.01,0.77,1.42c3.24,2.48,7.94,1.37,11.44,3.36c0.83,0.47,1.49,1.03,2.21,1.65c0.31,0.26,0.75,0.49,0.78,0.91    c0.13,1.33,0.32,2.74,0.23,4.12c-0.02,0.39,0.04,1.16-0.25,1.42c0.16,0.72,0.53,2.01,0.26,2.7c0.26,0.79,0.55,1.48,1.18,2.03    c0.15,0.13,0.4,0.46,0.59,0.36c0.84-0.47,1.9-1.61,2.35-2.52c0-0.09,0-0.17,0-0.26c0.34-0.66,0.65-1.26,1.16-1.8    c2.56-0.38,3.33,0.78,5.28,2.06c0.25,0.16,0.83,0.59,1.03,0.39c1.09,0.93,2.7,2.02,2.7,3.6c0.49,0.77,0.93,1.38,0.96,2.32    c0.05,1.43-1.08,2.32-1.34,3.68c-0.3,1.91-0.61,3.81-0.91,5.72c-0.18,0.76-0.7,1.34-0.51,2.19c0.36,1.64,2.47,3.24,3.6,4.38    c0.95,0.26,1.71,0.39,2.7,0.39c0.22-0.22,0.74-0.55,1.03-0.51c0.46-0.52,1.75-2.19,2.32-2.32c0.47-0.88,2.56-2.49,3.49-2.8    c1-0.34,1.92-0.23,2.95-0.29c0.37-0.02,1.04,0.01,1.29-0.26c2.95,0.69,4.68,1.66,6.82,3.73c0.88,0.85,2.57,1.81,2.57,3.22    c0.34,0.26,0.69,0.52,1.03,0.77c0.16,0.44,0.33,0.87,0.49,1.31c0.44,1.54,0.87,3.07,1.31,4.61c-0.04,0.51-0.08,1.03-0.12,1.54    c-0.05,0.47-0.09,0.94-0.14,1.42c-1.45,2.51-3.26,3.67-6.07,4.07c-1.45,0.2-4.61,0.51-4.81,2.36c-0.02,0.99-0.04,1.98-0.06,2.97    c0.13,0.42,0.7,1.18,0.51,1.54c1.25,1.06,2.43,2.43,3.99,3.09c2.19,0.92,3.31,0,5.41-0.26l0.28,0.1c0.75-0.69,1.67-1.21,2.55-1.39    c0.62-0.55,2.51-2.45,3.09-2.57c0.28,0.02,0.57,0.04,0.85,0.06c2.68,0.49,5.36,0.99,8.03,1.48c1.41-0.04,2.83-0.09,4.24-0.13    c0.43,0.04,0.86,0.09,1.29,0.13c0.57-0.15,2.28-0.3,2.57-0.51c0.05,0.1,0.1,0.2,0.15,0.3c0.2,0.45,1.09,2,0.88,2.4    c0.23,0.17,0.45,0.34,0.68,0.51c1.47,0.89,3.23,1.51,4.99,1.68c0.69,0.26,1.37,0.51,2.06,0.77c0.81,0.72,1.63,1.45,2.44,2.17    c0.62,0.64,1.25,1.63,1.54,2.47c0.77,0.68,1.43,2.3,1.43,3.34c1.52,1.84,2.16,4.22,3.8,5.86c2.24,2.24,4.67,4.18,6.37,6.88    c0.34,0.55,0.98,0.79,1.16,1.42c0.6,0.44,2.25,2.02,2.45,2.7c0.76,0.52,2.9,2.45,3.22,3.22c0.64,0.63,1.27,1.26,1.91,1.89    c0.48,0.06,0.85,0.64,1.15,1c0.41,0.09,0.57,0.49,0.8,0.84c0.63,0.92,1.11,1.89,1.67,2.83c0.34,0.34,0.69,0.69,1.03,1.03    c0.15,0.31,0.31,0.62,0.46,0.93c0.05,0.07,0.11,0.15,0.17,0.22c-0.09,0.42,0.04,0.63-0.21,0.93l0.35-0.42    c0.83-0.65,1.9-1.22,2.49-1.63c1.32-0.94,2.99-1.23,4.34-2.22c0.99-0.82,1.97-1.63,2.96-2.45c1.5-0.98,3.01-1.97,4.51-2.95    l1.8-1.43C243.43,218.04,243.17,216.64,243.17,215.77z"/>
            <circle cx="183.82" cy="142.9" r="1.586"/>
        </g>
    </g>
</svg>