<?xml version="1.0" encoding="UTF-8"?>
<!DOCTYPE svg PUBLIC "-//W3C//DTD SVG 1.1//EN" "http://www.w3.org/Graphics/SVG/1.1/DTD/svg11.dtd">
<svg version="1.1" id="HaritaCizim" xmlns="http://www.w3.org/2000/svg" xmlns:xlink="http://www.w3.org/1999/xlink" x="0px" y="0px" viewBox="0 0 500 391" preserveAspectRatio="none">
    <defs id="__def">
        <radialGradient id="f">
            <stop offset="0" stop-color="white" stop-opacity="1"/>
            <stop id="STOP1" offset=".4" stop-opacity="1"/>
            <stop offset="1" stop-color="white" stop-opacity=".2"/>
        </radialGradient>
        <filter id="__flt1" x="0" y="0" width="200%" height="200%" filterUnits="objectBoundingBox">
            <feGaussianBlur in="SourceAlpha" stdDeviation="3" result="blur1"/>
            <feSpecularLighting result="specOut" in="blur1" specularConstant="1.5" specularExponent="20" lighting-color="#bbbbbb">
                <feDistantLight azimuth="45" elevation="30"/>
            </feSpecularLighting>
            <feComposite in="specOut" in2="SourceAlpha" operator="in" result="specOut"/>
            <feComposite in="SourceGraphic" in2="specOut" operator="arithmetic" k1="0" k2="1" k3="1" k4="0"/>
        </filter>
        <filter id="__flt2" x="0" y="0" width="200%" height="200%" filterUnits="objectBoundingBox">
            <feGaussianBlur in="SourceAlpha" stdDeviation="3" result="blur1"/>
            <feSpecularLighting result="specOut" in="blur1" specularExponent="20" lighting-color="#bbbbbb">
                <fePointLight x="-2000" y="100" z="2000"/>
            </feSpecularLighting>
            <feComposite in="specOut" in2="SourceAlpha" operator="in" result="specOut"/>
            <feComposite in="SourceGraphic" in2="specOut" operator="arithmetic" k1="0" k2="1" k3="1" k4="0"/>
        </filter>
        <filter id="__flt3" x0="-50%" y0="-50%" width="200%" height="200%" filterUnits="objectBoundingBox">
            <feGaussianBlur in="SourceAlpha" stdDeviation="3" result="blur"/>
            <feOffset in="blur" dx="0" dy="0" result="offsetBlur"/>
            <feSpecularLighting in="blur" surfaceScale="4" specularConstant=".5" specularExponent="20" lighting-color="flavor" result="specOut">
                <fePointLight x="-5000" y="-10000" z="5000"/>
            </feSpecularLighting>
            <feComposite in="specOut" in2="SourceAlpha" operator="in" result="specOut"/>
            <feComposite in="SourceGraphic" in2="specOut" operator="arithmetic" k1="0" k2="1" k3="1" k4="0" result="litPaint"/>
            <feMerge>
                <feMergeNode in="offsetBlur"/>
                <feMergeNode in="litPaint"/>
            </feMerge>
        </filter>
        <filter id="__flt4" x0="-50%" y0="-50%" width="200%" height="200%">
            <feGaussianBlur in="SourceAlpha" stdDeviation="2" result="blur"/>
            <feOffset dy="-1" dx="-1"/>
            <feComposite in2="SourceAlpha" operator="arithmetic" k2="-1" k3="1" result="hlDiff"/>
            <feFlood flood-color="white" flood-opacity=".7"/>
            <feComposite in2="hlDiff" operator="in"/>
            <feComposite in2="SourceGraphic" operator="over" result="withGlow"/>
            <feOffset in="blur" dy="3" dx="3"/>
            <feComposite in2="SourceAlpha" operator="arithmetic" k2="-1" k3="1" result="shadowDiff"/>
            <feFlood flood-color="black" flood-opacity="1"/>
            <feComposite in2="shadowDiff" operator="in"/>
            <feComposite in2="withGlow" operator="over"/>
        </filter>
        <filter id="__golge1" x="0" y="0" width="200%" height="200%" filterUnits="userSpaceOnUse">
            <feOffset result="offOut" in="SourceAlpha" dx="8" dy="8"/>
            <feGaussianBlur result="blurOut" in="offOut" stdDeviation="3"/>
            <feBlend in="SourceGraphic" in2="blurOut" mode="normal"/>
        </filter>
    </defs>
    <g id="__Komsular" display="none">
        <linearGradient id="SVGID_1_" gradientUnits="userSpaceOnUse" x1="-44.5081" y1="456.5129" x2="215.2474" y2="137.4058" gradientTransform="matrix(1 0 0 -1 59.1001 374.4009)">
            <stop offset="0" style="stop-color:#FFFFFF;stop-opacity:0"/>
            <stop offset="1" style="stop-color:#66A0D6"/>
        </linearGradient>
        <path fill="url(#SVGID_1_)" d="M0,305.49c1.45-0.569,3.25-0.17,4.851-0.26c2.06-0.13,3.739-1.03,5.54-1.61   c1.819-0.58,3.319-0.649,5.27-0.83c2.24-0.21,3.38-1.02,5.4-1.699c3.46-1.17,6.699-1.59,10.3-2.54c3.28-0.86,6.149-2.48,9.72-2.521   l0.48,0.75c-0.23-0.659-0.471-0.67,0.399-0.869c0.44-1.33,1.92-1.57,3.021-2.311c1.24-0.62,2.49-1.24,3.729-1.859   c1.57-1.04,3.13-2.091,4.7-3.131c1.64-1.17,3.28-2.33,4.91-3.5c0.76-0.63,1.51-1.26,2.27-1.89c0.28-0.37,0.561-0.75,0.841-1.12   c-0.66-0.64,0.069-1.51,0.33-2.33c0.579-1.81,0.22-3.75,1.159-5.46c1.15-1.08,2.301-2.149,3.45-3.229   c1.24-1.36,2.48-2.71,3.72-4.07c2.141-1.58,4.28-3.17,6.421-4.75c-0.15-0.63,0.939-2.61,1.189-3.44c0.01-0.39,0.03-0.79,0.04-1.18   c1.56-3.25,1.16-3.64,4.08-5.72c-0.7,0.79,2.79-3.17,2.79-3.07l0.47-0.189c0.931-2.61,3.45-4.721,3.45-8.2   c0-1.3-1.89-1.771-2.79-2.23c-0.19-0.37-0.37-0.75-0.56-1.12c0-0.93,0-1.859,0-2.79c-0.28-0.56-0.561-1.119-0.841-1.68   c0.141-0.96,1.4-2.28,1.4-2.79c0-1.14-1.04-1.27-1.2-2.14c-1.38-1.94,1.2,0.04,1.2-2.05c0-1.021-0.19-1.771,0.56-2.511   c-0.09-1.859-0.189-3.72-0.279-5.59c0.21-0.37,0.42-0.729,0.63-1.1c0.62-0.88,1.96-1.41,3-1.41c0.34,0.31,1.22,0.95,1.61,0.71   c1.6-1.09,1.47-5.38,1.47-7.41c0-1.899-3.63-2.67-3.63-5.03c-0.471,0-0.931,0-1.4,0c0.04-0.81,0.04-0.59-0.41-0.989   c-0.819-0.771-1.68-0.271-2.38,0.439c-0.55,0-1-0.12-1.399,0.28c-1.11-0.57-1.4-1.56-1.4-2.79c-0.89-0.89-0.7-2.08,0-3.07   c-0.09-1.21-0.19-2.42-0.28-3.63c1.24-1.28,1.96-2.68,1.96-4.47c0.311-0.36,0.63-0.72,0.94-1.07c0.83-1.54,2.55-1.02,3.53-0.04   c0.56,0.09,1.119,0.19,1.68,0.28c0.93-0.93,2.76-0.24,4.189-1.68c0.28-0.09,0.561-0.19,0.841-0.28c0.85,0,0.84-1.62,0.84-2.24   c0.37-0.28,0.739-0.56,1.12-0.84c0.09-0.19,0.189-0.37,0.279-0.56c1.5-1.5,4.15-0.841,6.15-0.841c0.76-0.76,2.59-0.63,3.63-0.79   c0.73-0.119,0.23,1.66,0.05,2.08c-0.189,0.42,2.82-1.21,3.58-0.439c0.37-0.37,0.28-0.62,0.28-1.12c1.03-1.03,1.399-1.67,1.399-3.07   c0.58-0.45,1.4-1.54,1.4-2.239c0.43-0.431,0.521-0.561,1.12-0.561c0.47-0.47,0.93-0.93,1.4-1.4c1.5-1.609,2.779-3.619,4.189-5.029   c2.26-0.44,4.32-1.3,5.87-2.79c0.72,0,0.87-0.03,1.4-0.561c1.739,0,3.27-0.71,4.75-1.68c1.29,0,2.21-0.53,3.069-1.4   c1.17,0,2.59-0.92,3.351-1.68c1.41,0.101,2.46,1.13,3.91,0.84c1.739-0.35,3.6-1.8,5.029-2.79c0.471-0.56,0.931-1.12,1.4-1.68   c0.78,0,4.06-0.15,4.47-0.56c1.21,0.09,2.42,0.189,3.63,0.279c0.7-0.699,1.29-0.47,2.23-0.56c0.56,0.09,1.12,0.18,1.68,0.28   c1.55,0,1.96-3,2.811-3.271c1.199,0.44,2.409,0.88,3.609,1.32c0.75-0.46,1.49-0.93,2.23-1.4c1.489-0.649,2.979-1.3,4.47-1.96   c1.02-1.3,2.05-2.609,3.07-3.91c0.739-0.189,1.489-0.37,2.229-0.56c0.601-1.19,1.36-1.64,2.23-2.51   c0.47-0.65,0.93-1.301,1.399-1.96c1.94,0,3.67-1.33,5.601-1.881l0.689-0.359c0.23-1.36,1.971-1.38,3.26-1.7   c1.101-0.64,2.2-1.28,3.301-1.92c1.55-0.56,3.239-0.71,4.75-0.56c0.37-0.28,0.739-0.561,1.12-0.841   c1.63-2.1,2.689-2.729,5.31-3.069c0.15-0.66,1.12-1.011,1.68-1.4c0.41-1.88,4.03-2.229,5.311-2.229c0.279-0.37,0.56-0.75,0.84-1.12   c-0.03-1.351,0.27-2.37,1.68-2.79c1.53-3.07,5.681-2.53,8.13-4.04c1.62-1,2.69-2.561,3.33-4.34   c-0.09-0.841-0.189-1.681-0.279-2.511c0.52-0.279,0.59-0.859,0.84-1.399c0.41-0.24,0.81-0.48,1.22-0.71   c1.45,0.42,2.91,0.85,4.37,1.27c1.399-0.09,2.79-0.189,4.189-0.28c0.471-0.279,0.931-0.56,1.4-0.84l1.2-1.13l0.17-0.08   c1.57-0.5,0.01-2.92,0.45-3.689c0.949-1.54,2.47-1.12,4.04-0.971c0.46-0.369,0.93-0.75,1.399-1.119   c0.28-0.471,0.561-0.931,0.84-1.4c0.091-0.56,0.19-1.12,0.28-1.68c1.5-0.471,3-0.95,4.5-1.42c1.26-0.801,2.3-2.33,3.83-2.57   c0.86-0.811,1.71-1.62,2.57-2.44c0.689-1.12,0.6-2.819,1.68-3.66c2.05-1.6,3.52-1.51,4.75-4.159c1.64,0,3.65-1.7,5.02-2.471   c3.73-2.06,7.461-4.13,11.181-6.189c1.68-0.561,3.35-1.12,5.03-1.681c1.3-0.75,2.609-1.489,3.909-2.229   c0.561,0.33,2.54-0.36,3.181-0.72c1.46-0.971,2.91-1.94,4.359-2.92c1.67,0,3.13-0.9,4.471-1.4c0.64-0.1,1.279-0.2,1.92-0.31   c1.83-0.591,3.66-1.19,5.489-1.78c1.351-0.98,2.69-1.96,4.04-2.94c2.58-0.71,3.92-0.83,6.5-1.54c0.221-0.029,1.67-0.66,1.891-0.699   c0.77,0.21,1.74,0.149,2.439-0.141c0.771-0.42,1.91-0.8,2.44-1.05c0.79-0.48,0.49-0.28,1.54-0.21c0.63-0.63,0.42-0.95,0.85-1.4   l0.67,0.101c0.13-0.09,0.271-0.181,0.4-0.271c0.08-0.729,0.29-1.359,0.85-1.85c1.891-1.68,3.261-3.58,5.33-5.24   c-0.109-1.51,1.41-2.11,2.511-2.79c-0.23-2.25,2.34-3.33,4.189-3.63c0.5-0.71,4-1.69,5.03-1.96c0.359-1.09,1.89-1.45,2.569-2.44   c0.631-0.21,1.271-0.42,1.9-0.63c1.23-0.89,2.72-0.7,4.19-0.56c0.76-0.65,2.33-0.521,3.35-0.561c2.2-0.64,4.41-1.279,6.61-1.92   l2.859-0.68c4.23-1.56,8.561-2.3,12.92-3.8c2.41-0.83,4.341-2.28,6.28-4.01c2.12-1.881,2.39-4.271,4.311-6.311   c3.779-4.01,8.939-5.49,11.81-10.49c2.49-4.34,3.79-8.489,5.77-12.97H0V305.49z"/>
        <path fill="none" stroke="#000000" stroke-width="0.25" stroke-miterlimit="10" d="M444.85,185.73   c-0.51,4.221,8.67,6.71,12.149,6.09c2.881-0.51,4.45-2.1,7.221-2.85c2.2-0.59,4.609-0.41,6.97-0.41   c5.37,0.01,8.84-2.439,14.19-2.43c3.8,0,11.64-1.4,14.609,0.81"/>
        <path fill="none" stroke="#000000" stroke-width="0.25" stroke-miterlimit="10" d="M321.57,332.93   c2.91,3.479,5.55,8.89,10.55,10.64c4.021,1.41,7.96,0.05,11.76,2.24c4.2,2.42,6.811,5.09,11.74,5.37   c3.92,0.22,7.891,0.2,11.75,0.41c1.811,0.09,4.19,0.319,5.68-0.471c3.091-1.619,1.841-4.46,3.44-6.33   c2.1-2.46,8.05-1.199,11.16-2.289c1.85-0.65,4.31-2.011,5.689-3.381c1.431-1.42,1.921-5.279,3.32-6.229   c2.69-1.83,9.65-0.19,12.021,0.76c3.09,1.24,5.069,3.63,8.52,4.15c2.7,0.41,5.78,0,8.521,0c5.05,0,11.95-1.23,16.81,0.069   c6.74,1.811,11.37,8.431,17.86,10.9c3.89,1.48,5.56,1.86,8.72,5.26c2.771,2.99,5.53,4.03,8.61,6.48"/>
        <path fill="none" stroke="#000000" stroke-width="0.25" stroke-miterlimit="10" d="M270.48,354.01   c-5.01-0.021-5.24,4.42-7.601,7.21c-2.729,3.229-7.859,3.729-11.369,5.85c-3.561,2.15-6.721,4.891-9.811,7.33   c-3.66,2.89-6.12,3.25-10.57,3.95c-3.75,0.58-6.3,2.65-10.21,2.83c-4.199,0.2-7.22-0.22-11.08,1.55   c-3.77,1.72-7.39,4.59-11.56,5.46c-4.85,1.01-14.771,4.85-16.6-2.54"/>
        <text transform="matrix(1 0 0 1 71.7756 369.4231)" font-family="'MyriadPro-Regular'" font-size="9.7324">D Ü Z C E</text>
        <text transform="matrix(1 0 0 1 303.866 372.262)" font-family="'MyriadPro-Regular'" font-size="9.7324">B O L U</text>
        <text transform="matrix(0.6922 -0.7217 0.7217 0.6922 423.1091 295.1604)" font-family="'MyriadPro-Regular'" font-size="9.7324">K A R A B Ü K</text>
        <text transform="matrix(0.4219 0.9067 -0.9067 0.4219 462.5945 68.3591)" font-family="'MyriadPro-Regular'" font-size="9.7329">B A R T I N</text>
    </g>
    <g id="__Harita" display="none">
        <rect id="__cer" x="0" y="0" fill="#000000" opacity="0" width="500" height="391"/>
        <g id="__Alaplı">
            <path d="M81.84,251.92c-2.92,2.08-2.52,2.46-4.08,5.72    c-0.01,0.39-0.029,0.79-0.039,1.18c-0.25,0.83-1.341,2.811-1.19,3.44c-2.14,1.58-4.28,3.17-6.42,4.75    c-1.24,1.36-2.48,2.71-3.72,4.07c-1.15,1.08-2.301,2.149-3.45,3.229c-0.94,1.71-0.58,3.65-1.16,5.46    c-0.26,0.82-0.99,1.69-0.33,2.33c-0.28,0.37-0.56,0.75-0.84,1.12c-0.76,0.63-1.51,1.26-2.271,1.89    c-1.64,1.17-3.279,2.33-4.909,3.5c-1.57,1.04-3.131,2.091-4.7,3.13c-1.24,0.62-2.48,1.24-3.73,1.86    c-1.1,0.74-2.58,0.98-3.02,2.311c-0.87,0.199-0.63,0.21-0.4,0.869c0.26,0.631,0.73,1.42,1.43,1.521    c1.061,1.729,2.29,3.3,2.961,5.189c0.38,2.351,0.75,4.71,1.13,7.061c1.12,4.54,3.04,8.67,4.479,13.05    c0.68,1.71,1.37,3.43,2.05,5.14c0.721,2.53,1.801,5.15,1.681,7.82c-0.03,0.68,0.43,1.07,0,1.68c1.489,1.8,2.87,3.57,4.75,5.03    c1.38,0.53,2.76,1.07,4.149,1.6c1,1.11,3.141,0.95,4.49,1.07c0.39,0.52,3.3,0.4,4.13,0.22c4.49-0.7,8.99-1.399,13.48-2.1    c1.22,0.02,2.43,0.03,3.649,0.05c0.971-0.3,2.45-1.04,3.351-0.28c1.84-0.319,3.689-0.64,5.529-0.96c1.261,0.19,4.4-0.13,5.4-0.72    c0.51,0.28,3.69,0.09,4.41-0.12c6.899-1.35,13.79-2.71,20.689-4.06c2.69-0.471,5.381-0.95,8.08-1.42    c3.181-0.25,6.65-0.94,9.53-2.21c3.15-0.66,6.3-1.32,9.45-1.98c1.54-0.05,3.18,0.23,4.52-0.53c1.21,0.091,2.42,0.181,3.63,0.28    c1.44-0.07,2.891-0.15,4.33-0.22c0.641-0.521,1.5-0.4,2.301-0.34c0.949-0.761,3.729-0.601,4.979-0.37    c1.34-0.061,2.68-0.13,4.021-0.19c1.77,0.28,3.54,0.561,5.31,0.84c0.78,0.261,2.25,1,2.91,0.58c0.47-0.35,0.979-0.1,1.05-0.64    c0.04-0.54-0.06-0.43,0.51-0.78c0-0.93,0-1.859,0-2.79c1.4-1.68,2.79-3.35,4.19-5.029c0.56-0.931,1.12-1.86,1.68-2.79    c0.62-0.771,1.24-1.54,1.86-2.301c0.68-1.279,1.37-2.56,2.05-3.84c-1.3-1.21-2.61-2.42-3.91-3.63c-1.12-1.4-2.24-2.79-3.35-4.189    c-1.05-1.141-1.86-3.41-3.351-3.91c-3.529-5.83-4.87-12.21-11.399-15.48c-1.33-0.659-2.25-1.279-3.681-1.279    c-1.09,0.14-3.819,1.189-4.47,1.96c-0.84,0.279-1.68,0.56-2.51,0.84c-1.28-0.16-2.75-0.41-3.91,0.28c-1.41-0.28-3.49-0.75-4.75,0    c-1.479-0.36-2.97-0.721-4.45-1.08c-1.13-0.74-2.27-1.48-3.399-2.23c-2.431-2.74-3.73-6.78-7.021-8.56    c-0.83-0.45-2.56-1.53-3.56-0.98c-1.49-0.189-2.98-0.37-4.471-0.56c-0.869-0.74-2.289-2.221-2.51-3.351    c-0.029-0.63-0.05-1.25-0.08-1.88c-0.16-0.859-0.319-1.729-0.479-2.59c-0.311-0.74-1.29-1.79-1.12-2.51    c-0.93-0.28-1.86-0.561-2.79-0.84c-1.61-0.851-2.57-2.53-4.25-3.221c-1-0.42-2.01-0.83-3.01-1.25c-2.95-0.55-4.7-0.359-7.26-2.239    c-1.49-1.96-2.98-3.91-4.471-5.87c-1.729-1.761-5.359-1.13-7.52-1.33c-0.75,0.069-1.51,0.14-2.26,0.21    c-0.931-0.09-1.86-0.19-2.79-0.28c-0.83-0.22-2.381-0.76-3.07-0.28c-0.37-0.369-2.42,0.65-2.79,0.28    c-2.48-0.54-2.48-0.479-3.91-1.12c-1.03-0.27-1.47-0.52-2.51-0.279C84.63,248.76,81.14,252.71,81.84,251.92z"/>
            <circle cx="81.56" cy="260.58" r="1.586"/>
        </g>
        <g id="__Ereğli">
            <path d="M274.02,220.08    c-1.54-2.841-4.78-5.471-6.98-7.82c0-1.45-1.68-2.51-2.51-3.35c0-0.5,0.09-0.75-0.28-1.12c-0.09-0.28-0.189-0.561-0.279-0.84    l-0.091,0.369c-1.489,0.561-3.779,1.2-5.489,1.021c-0.87,0.87-1.32,0.96-2.48,1.229c-0.66,0.33-1.33,0.67-1.99,1    c-1.609,0.49-3.22,0.98-4.83,1.471c-1.84,0.35-3.67,0.699-5.51,1.05c-1.96,0.899-4.01,1.45-5.87,2.24    c-0.58-0.601-2.22-0.28-3.069-0.28c-0.44,0-0.25,0.09-0.44-0.45c-2.08-0.64-3.11-1.91-4.18-3.61c-1.34-1.72-2.69-3.439-4.03-5.159    c-0.03-0.9-0.71-1.2-1.11-1.82c-1.159-1.84-2.489-3.23-4.31-4.43c-2.29-1.5-5.57,0.04-8.271-0.17    c-2.109-0.171-4.75-0.851-6.699-1.681c-0.561-0.09-1.12-0.18-1.681-0.279c-1.069,0.72-2.06-0.311-3.14-0.69    c-2.8-0.99-5.44-1.8-8.04-3.21c-1.47-0.76-1.79-1.97-1.95-3.64c0.19-1.021,0.37-2.051,0.561-3.07c0.46-0.43,0.31-0.79,0.54-1.34    c1.199-2.82,0.59-4.54,0.55-7.37c0.189-1.47,0.39-2.95,0.58-4.43c-0.38-0.5-0.26-0.801-0.28-1.4c-0.7-0.13-1.38-1.28-1.68-1.96    c-0.8-0.22-1.13-1.3-1.511-2.061c-1.06-2.119-1.76-4.18-2.439-6.359c-0.39-1.16-0.24-3.16-0.8-3.03    c0.41-1.06,0.83-2.11,1.239-3.17c1.41-3.37,3.08-6.54,3.23-10.24c-1.2-1.2-1.4-3.49-1.25-5.04l-0.69,0.36    c-1.939,0.56-3.659,1.88-5.6,1.88c-0.47,0.65-0.93,1.3-1.4,1.96c-0.869,0.87-1.64,1.32-2.229,2.51    c-0.74,0.19-1.49,0.37-2.23,0.561c-1.02,1.3-2.05,2.609-3.069,3.91c-1.49,0.649-2.98,1.3-4.471,1.96    c-0.75,0.47-1.489,0.93-2.229,1.399c-1.2-0.439-2.41-0.88-3.61-1.319c-0.85,0.27-1.26,3.27-2.81,3.27    c-0.561-0.09-1.12-0.189-1.68-0.28c-0.95,0.091-1.54-0.14-2.23,0.561c-1.21-0.09-2.42-0.19-3.63-0.28    c-0.41,0.41-3.69,0.561-4.47,0.561c-0.471,0.56-0.931,1.119-1.4,1.68c-1.43,0.99-3.28,2.439-5.03,2.79    c-1.45,0.29-2.5-0.74-3.91-0.84c-0.76,0.76-2.189,1.68-3.35,1.68c-0.87,0.87-1.78,1.4-3.07,1.4c-1.479,0.96-3.01,1.68-4.75,1.68    c-0.529,0.53-0.68,0.56-1.399,0.56c-1.55,1.5-3.601,2.36-5.87,2.79c-1.41,1.41-2.69,3.42-4.19,5.03    c-0.47,0.46-0.93,0.93-1.399,1.4c-0.59,0-0.69,0.13-1.12,0.56c0,0.69-0.82,1.79-1.4,2.24c0,1.399-0.37,2.04-1.399,3.069    c0,0.5,0.09,0.75-0.28,1.12c-0.76-0.76-3.771,0.86-3.58,0.44c0.17-0.42,0.68-2.19-0.05-2.08c-1.04,0.17-2.87,0.04-3.63,0.79    c-2,0-4.641-0.67-6.15,0.84c-0.09,0.19-0.19,0.37-0.28,0.56c-0.37,0.28-0.75,0.561-1.12,0.841c0,0.62,0.011,2.239-0.84,2.239    c-0.279,0.091-0.56,0.19-0.84,0.28c-1.43,1.43-3.26,0.75-4.189,1.68c-0.561-0.09-1.12-0.189-1.681-0.279    c-0.97-0.971-2.689-1.5-3.529,0.04c-0.311,0.359-0.631,0.71-0.94,1.069c0,1.79-0.71,3.19-1.96,4.471    c0.09,1.21,0.19,2.42,0.28,3.63c-0.7,0.99-0.891,2.18,0,3.069c0,1.23,0.29,2.221,1.399,2.79c0.4-0.399,0.851-0.279,1.4-0.279    c0.7-0.7,1.57-1.21,2.38-0.44c0.45,0.4,0.45,0.19,0.41,0.99c0.47,0,0.93,0,1.399,0c0,2.36,3.631,3.13,3.631,5.03    c0,2.029,0.13,6.319-1.471,7.409c-0.38,0.24-1.27-0.399-1.609-0.71c-1.051,0-2.391,0.54-3,1.41c-0.21,0.37-0.42,0.73-0.63,1.101    c0.09,1.859,0.189,3.72,0.279,5.59c-0.75,0.75-0.56,1.49-0.56,2.51c0,2.09-2.59,0.12-1.2,2.05c0.16,0.87,1.2,1,1.2,2.141    c0,0.51-1.26,1.84-1.4,2.79c0.28,0.56,0.561,1.119,0.84,1.68c0,0.93,0,1.86,0,2.79c0.19,0.37,0.37,0.75,0.561,1.12    c0.899,0.46,2.79,0.93,2.79,2.229c0,3.471-2.511,5.59-3.45,8.2l-0.47,0.19c1.05-0.24,1.489,0.01,2.51,0.279    c1.43,0.63,1.43,0.58,3.91,1.12c0.37,0.37,2.42-0.649,2.79-0.28c0.689-0.479,2.239,0.061,3.069,0.28    c0.931,0.09,1.86,0.19,2.79,0.28c0.75-0.07,1.511-0.14,2.261-0.21c2.159,0.2,5.779-0.43,7.52,1.33c1.49,1.96,2.98,3.91,4.47,5.87    c2.561,1.88,4.32,1.68,7.261,2.239c1,0.421,2.01,0.83,3.01,1.25c1.68,0.69,2.64,2.37,4.25,3.221c0.93,0.279,1.859,0.56,2.79,0.84    c-0.181,0.72,0.81,1.78,1.12,2.51c0.159,0.86,0.319,1.73,0.479,2.59c0.03,0.63,0.05,1.25,0.08,1.88    c0.22,1.131,1.64,2.61,2.51,3.351c1.49,0.189,2.98,0.37,4.471,0.56c1-0.56,2.729,0.53,3.56,0.98c3.29,1.779,4.59,5.819,7.021,8.56    c1.13,0.74,2.27,1.48,3.399,2.23c1.48,0.359,2.97,0.72,4.45,1.08c1.25-0.75,3.34-0.28,4.75,0c1.16-0.69,2.63-0.44,3.91-0.28    c0.84-0.28,1.68-0.561,2.51-0.84c0.65-0.76,3.38-1.82,4.47-1.96c1.431,0,2.36,0.62,3.681,1.279    c6.54,3.271,7.869,9.641,11.399,15.48c1.49,0.5,2.3,2.77,3.351,3.91c1.119,1.399,2.229,2.79,3.35,4.189    c1.29,1.2,2.59,2.4,3.88,3.61c0.37-0.561,0.75-1.12,1.12-1.681c0.47-0.64,0.95-1.29,1.42-1.93c0.561-0.37,1.12-0.74,1.68-1.12    c0.471-0.84,0.931-1.68,1.4-2.51c1.44-0.51,1.74-2.31,2.42-3.49c1.43-1.91,2.86-3.819,4.29-5.729c0.07-1.75,1.61-3.8,2.79-5.03    c-0.09-1.609,1.84-2.989,2.87-4.109c1.59-2.42,3.18-4.841,4.78-7.261c1.04-1.59,2.069-3.18,3.109-4.77    c0.9-0.93,1.811-1.86,2.71-2.79c1.28-1.73,2.57-3.47,3.851-5.2c0.97-0.84,1.939-1.689,2.91-2.53c0.55-0.609,1.01-1.06,0.97-1.89    c1.689-1.65,3.38-3.3,5.06-4.95c0.65-0.279,1.3-0.56,1.96-0.84c1.4-1.12,2.79-2.229,4.19-3.35c2.79-2.42,6.59-7.07,10.34-7.82    c0-0.5,0.76-0.8,1.15-1.06c1.1-0.73,2.1-1.211,3.319-2.011c1.19-1.779,2.5-3.5,4.38-4.05c0.73-0.82,1.46-1.64,2.181-2.45    c2.029-1.699,3.859-3.949,4.8-6.489c-0.061-0.511-0.13-1.03-0.19-1.54c0.19-0.841,0.37-1.681,0.561-2.511c0-0.84,0-1.68,0-2.51    C274.55,223.74,274.57,221.09,274.02,220.08z"/>
            <circle cx="89.8" cy="201.22" r="1.586"/>
        </g>
        <g id="__Zonguldak">
            <path d="M316.3,128.14    c-0.369,0.13-0.729,0.24-1.04,0.521c-2.55,2.39-3.079,4.189-6.789,4.89c-2.261,0.42-5.771,1.14-7.841,0.06    c-1.76-0.909-1.92-2.75-3.25-3.87c-1.13-0.939-2.55-0.649-3.819-2.13c-2.09-2.439-3.96-5.1-6.58-7.31    c-2.521-2.11-5.24-1.49-7.94-3.79c-1.34-1.14-1.85-1.91-3.35-2.92c-1.46-0.98-2.57-2.53-3.78-3.78    c-2.229-2.3-4.67-4.689-6.39-7.42c-1-1.58-1.511-2.149-2.74-3.22c-1.15-0.99-2.63-1.99-2.98-3.48l-0.579-0.21    c-0.86,0.811-1.711,1.62-2.57,2.44c-1.53,0.24-2.57,1.77-3.83,2.57c-1.5,0.47-3,0.949-4.5,1.42c-0.09,0.56-0.19,1.119-0.28,1.68    c-0.28,0.46-0.56,0.93-0.84,1.4c-0.47,0.369-0.93,0.75-1.4,1.119c-1.569-0.149-3.09-0.569-4.04,0.971    c-0.439,0.77,1.12,3.189-0.449,3.689c-0.271,0.03-0.17,0.08-0.17,0.08c0,0.73-0.511,3.44-0.25,3.851    c0.699,1.109,2.88,0.909,3.989,1.89c0.49,0.43,1.091,2.79,1.971,3.2c1.22,0.58,2.75,0.08,4.08,0.25    c3.42,0.43,5.97,2.71,1.55,4.479c-2.94,1.181-5.391,1.61-7.84,4.181c-4.67,4.909-5.11,9.22-5.67,15.67    c-0.351,3.989-4.171,13.27,1.1,15.63c1.92,0.859,5.81-0.08,7.84-0.17c2.59-0.12,4.68-1.41,7.29-1.41c3.6,0,5.07,1.93,6.17,5.39    c0.37,1.15,1.311,2.91,1.67,4.07c0.5,1.59,0,2,0,3.84c0,3.01-0.649,8.44-2.16,11.021c-0.93,1.579-2.739-0.25-4.39,1.079    c-1.44,1.16-2.27,0.66-2.91,2.431c-0.859,2.39-1.359,5.27-1.89,7.83c-0.29,1.39-0.12,2.56-0.79,3.79    c-0.84,1.54-0.61,2.989-0.61,4.069c0,2.83-1.95,4.07-4.27,6.431c-1.54,1.569-4.51,3.689-6.5,4.38l-1.811,2.569    c1.86-0.79,3.9-1.34,5.87-2.239c1.84-0.351,3.67-0.7,5.51-1.051c1.61-0.489,3.221-0.979,4.83-1.47c0.66-0.33,1.33-0.67,1.99-1    c1.16-0.27,1.61-0.359,2.48-1.229c1.72,0.17,4-0.46,5.489-1.021l0.091-0.37c1.119-1.12,2.229-2.239,3.35-3.35    c3.939-4.64,8.1-7.36,13.689-9.22c1.12-2.42,2.23-4.841,3.351-7.261c0.75-0.47,1.49-0.93,2.229-1.399    c1.391,0,2.061-1.04,3.351-1.4c1.689-0.46,3.09-1.02,4.75-1.96c0.51-1.05,1.29-1.56,1.96-2.51c0.28-0.561,0.56-1.12,0.84-1.68    c0.5-0.78,1.68-1.95,1.68-2.79c0.57-0.57,1.721-0.601,2.521-0.601c1.12,0.04,4.41,2.021,3.97,3.061c0.35,0.489,0.7,0.97,1.05,1.46    c0.82,0.819,1.73,1.17,2.511,1.96c0.619,0.13,1.489,0.46,1.96,0c1.18,0.319,2.369,0.63,3.55,0.95c0.68-0.04,1.359-0.08,2.029-0.11    c1.11,1.79,4.671,2.88,6.48,4.479c1.38,1.49,2.76,2.971,4.14,4.46c-0.08,0.131-0.17,0.271-0.25,0.4    c0.74,1.26,1.471,2.53,2.21,3.79c0.73,0.21,1.46,0.42,2.19,0.64c0.89,1.19,2.58,0.99,3.79,1.48c1.15,0.28,2.38-0.46,3.26-1.271    c0.83-0.189,1.66-0.369,2.49-0.56c0.43-1.4,1.8-1.8,2.79-2.79c0.09-0.28,0.189-0.56,0.28-0.84c0.89-1.14,2.229-2.07,2.229-3.63    c0.561-0.84,1.12-1.681,1.68-2.51l1-0.591c0.58-1.189,1.5-1.52,2.33-2.46c1.721-1.949,7.851-6.72,7.851-6.72    c-2.17,2.65-6.5-1.17-7.82-3.07c-1.49,0.28-2.979,0.561-4.47,0.841c-0.2-0.601-0.351-0.54-0.84-0.841c-1.591,0-2.88,0.23-4.471,0    c-0.93-0.47-1.859-0.93-2.79-1.399c-1.5-2.55-4.08-4.59-4.75-7.82c-0.369-0.47-0.75-0.93-1.119-1.4    c-1.521-0.699-2.58-1.92-4.19-2.51c-1.21-1.399-2.42-2.79-3.63-4.189c-1.55-2.431-3.42-4.53-4.37-7.301    c-0.13-1.479-0.26-2.96-0.38-4.43c-0.87-0.56-1.13-2.04-1.59-2.97c-0.96-2.92-1.92-5.84-2.88-8.76    c0.159-1.13,0.319-2.271,0.479-3.4L316.3,128.14z"/>
            <circle cx="244.55" cy="110.71" r="1.586"/>
        </g>
        <g id="__Devrek">
            <path d="M386.97,233.3c-0.16-0.79-0.65-1.86-0.65-2.89    c-1.12-1.021-1.96-2.421-3.35-3.07c-2.811-2.05-5.54-4.59-7.78-7.311c-0.851-1.01-1.71-2.02-2.561-3.029    c-0.609-0.69-0.47-1.7-1.399-1.96c0.05-1.101,0.109-2.21,0.17-3.311c-0.15-1.21-0.29-2.43-0.44-3.64    c0.07-1.38,0.761-4.95,0.271-6.18c0.52-1.931,0.689-3.08,0-5.03c-0.28-0.84-1.62-2.98-1.3-2.88c-0.41-0.55-0.841-0.75-1.21-1.58    c-1.15-1.431-2.301-2.86-3.46-4.29c-0.521-0.42-1.051-0.83-1.57-1.25c-0.59-0.23-1.18-0.45-1.76-0.68    c-0.99-0.711-1.98-1.421-2.98-2.12c-0.55,0.13-1.1-0.07-1.38,0.26c-0.82,1.06-1.59,2.02-2.04,3.27    c-0.12,1.181-0.24,2.36-0.36,3.54c-0.189,0.49-1.13,2.38-1.729,1.971c-0.851-0.641-3.25-2.141-2.601-3.5    c-0.279-0.471-0.56-0.931-0.84-1.4c-0.399-0.33-0.64-0.41-0.56-0.93c0.03-0.65-0.44-1.53-0.4-2.181l-1,0.591    c-0.56,0.84-1.12,1.68-1.68,2.51c0,1.56-1.35,2.49-2.23,3.63c-0.09,0.28-0.189,0.56-0.279,0.84c-0.99,0.99-2.36,1.4-2.79,2.79    c-0.83,0.19-1.66,0.37-2.49,0.56c-0.89,0.811-2.11,1.551-3.26,1.271c-1.21-0.48-2.9-0.28-3.79-1.48    c-0.73-0.21-1.46-0.42-2.19-0.64c-0.74-1.26-1.47-2.53-2.21-3.79c0.08-0.13,0.17-0.27,0.25-0.399    c-1.38-1.49-2.76-2.971-4.14-4.461c-1.811-1.6-5.37-2.689-6.48-4.479c-0.68,0.04-1.359,0.08-2.029,0.11    c-1.181-0.32-2.37-0.631-3.551-0.95c-0.47,0.46-1.33,0.13-1.96,0c-0.779-0.78-1.689-1.141-2.51-1.96    c-0.35-0.49-0.7-0.971-1.05-1.46c0.439-1.03-2.851-3.011-3.97-3.061c-0.801,0-1.95,0.03-2.521,0.601c0,0.84-1.18,2.01-1.68,2.79    c-0.28,0.56-0.561,1.12-0.84,1.68c-0.66,0.96-1.44,1.47-1.96,2.51c-1.66,0.94-3.061,1.5-4.75,1.96c-1.29,0.351-1.96,1.4-3.351,1.4    c-0.74,0.47-1.49,0.93-2.229,1.399c-1.12,2.42-2.23,4.841-3.351,7.261c-5.59,1.859-9.75,4.58-13.689,9.22    c-1.12,1.12-2.23,2.229-3.351,3.35c0.09,0.28,0.19,0.561,0.28,0.84c0.37,0.37,0.28,0.62,0.28,1.12c0.84,0.841,2.51,1.9,2.51,3.351    c2.21,2.35,5.45,4.979,6.98,7.819c0.55,1.011,0.529,3.66-0.28,4.471c0,0.84,0,1.68,0,2.51c-0.19,0.84-0.37,1.68-0.561,2.51    c0.061,0.51,0.13,1.021,0.19,1.54c-0.94,2.53-2.771,4.79-4.8,6.49c-0.73,0.82-1.46,1.64-2.181,2.45    c-1.88,0.56-3.189,2.27-4.38,4.05c-1.21,0.79-2.21,1.28-3.319,2.01c-0.4,0.26-1.15,0.57-1.15,1.061    c-3.74,0.75-7.55,5.399-10.34,7.819c-1.4,1.12-2.79,2.24-4.19,3.351c-0.649,0.279-1.3,0.56-1.96,0.84    c-1.689,1.649-3.38,3.3-5.06,4.95c0.05,0.84-0.42,1.29-0.97,1.89c-0.971,0.84-1.94,1.69-2.91,2.53    c-1.28,1.729-2.57,3.47-3.851,5.2c-0.899,0.93-1.81,1.859-2.71,2.79c-1.04,1.59-2.069,3.18-3.109,4.77    c-1.591,2.42-3.181,4.84-4.78,7.26c-1.04,1.12-2.96,2.5-2.87,4.11c-1.19,1.22-2.73,3.28-2.79,5.029    c-1.43,1.91-2.86,3.82-4.29,5.73c-0.68,1.189-0.979,2.979-2.42,3.49c-0.47,0.84-0.93,1.68-1.4,2.51    c-0.56,0.37-1.119,0.74-1.68,1.12c-0.47,0.64-0.95,1.29-1.42,1.93c-0.38,0.561-0.75,1.12-1.12,1.68    c-0.26,0.381-0.51,0.771-0.77,1.15c-2.15,2.97-4.311,5.95-6.46,8.92c-0.53,0.53-0.99,1.51-0.841,2.24    c-1.02,1.49-2.05,2.979-3.069,4.47c0,0.9-1.181,1.4-0.03,1.75c0.51,0.32,2.03-0.68,2.54-0.36c1.39,0.261,1.46,1.051,2.79,1.051    c1.96,0.21,3.91,0.42,5.87,0.63c2.229,0.37,4.47,0.75,6.7,1.12c3.909,0.739,7.819,1.489,11.729,2.239    c3.54,0.931,7.08,1.86,10.62,2.79c2.23,0.28,4.47,0.561,6.7,0.841c1.399,0.369,2.79,0.75,4.189,1.119c0.75,0,1.49,0,2.23,0    c4.05,0.841,6.58,5.45,10.58,6.671c5.54,1.689,10.93,3.67,16.8,4.229c1.21,0,2.42,0,3.63,0c1.68,0.19,3.351,0.37,5.03,0.56    c1.859-0.149,4.21-0.5,5.87,0.561c1.02-0.19,2.05-0.37,3.069-0.561c1.07-1.069,1.83-2,3.351-2.239c1.04-0.16,1.7,0.29,2.51,0.84    c1.71-0.101,3.41-0.2,5.12-0.311c1.39-0.79,2.99-1.84,2.99-3.6c0.279-0.19,0.56-0.37,0.84-0.56c0.47-0.931,0.93-1.86,1.399-2.79    c0.641-0.92,1.86-1.851,1.681-3.07c0.74-1.21,1.49-2.42,2.229-3.63c1.96-1.3,3.91-2.61,5.87-3.91c1.4-0.24,2.811-0.47,4.21-0.71    c0.771-0.11,3.391-0.69,3.28-1.25c-0.42-2.51-1.34-4.63-1.34-7.26c0.649-2.05,1.3-4.101,1.96-6.141c1.67-2.33,3.34-4.67,5.01-7    c1.49-1.479,2.98-2.97,4.47-4.449c0.511-0.54,0.96-1.851,1.41-1.4c2.05-1.96,4.101-3.91,6.15-5.87c1.04-1.3,3.91-3.989,3.91-5.59    c1.489-1.58,2.979-3.17,4.47-4.75c0.35-1.79,2.04-5.17,3.07-6.7c0.59-0.88,0.34-2.02,1.119-2.79c0-0.819,0.561-3.35,1.12-3.909    c0-1.181,0.41-3.761,1.4-4.471c2.52-1.939,4.46-1.149,7.26-0.84c1.05,0.12,2.54-0.45,3.351,0.28c0.819-0.4,1.649-0.8,2.47-1.2    c0.6-0.35,0.89-0.2,1.439-0.75c0.37-0.93,0.75-1.86,1.12-2.79c0.19-0.93,0.37-1.86,0.561-2.79c0.46-0.93,0.93-1.86,1.399-2.79    c0.561-0.47-0.279-2.05,0.28-2.51c0.47-1.4,1.21-1.96,1.68-3.351c-0.09-0.47,0.931-0.649,0.841-1.119    c0.56-0.841,0-1.681,0.56-2.511c-0.42-0.42,1.21-1.64,1.51-2.17c1.09-2.1,2.181-4.2,3.26-6.29c0.48-0.58,0.94-1.34,1.65-1.59    c0.56-1.04,1.38-2.84,2.51-3.07c0.32-0.609,0.46-1.159,1.12-1.399c0.41-0.61,1.21-1.49,1.58-2.33c0.93-0.561,1.69-0.84,1.34-1.61    L386.97,233.3z"/>
            <circle cx="311.04" cy="238.93" r="1.586"/>
        </g>
        <g id="__Gökçebey">
            <path d="M349.05,185.12c0.58-1.19,1.5-1.521,2.33-2.46    c1.721-1.95,6.44-6.41,8.971-6.721c1.25-1.64,2.5-3.29,3.75-4.93c0.33-0.68,0.659-1.37,1-2.05c1.12-0.931,2.229-1.86,3.35-2.79    c1.12-0.46,2.23-0.931,3.35-1.4c0.65,0,1.301,0,1.96,0c3.08,2.311,5.44,5.25,9.19,6.12c0.83,0.83,2.92,1.29,4.05,1.16    c1.38,1.68,3.76,1.22,5.67,0.93c2.03,0.94,4.82-0.99,6.221-2.35c0.489-0.48,1.21-0.4,1.399-1.12c0.65-0.28,1.3-0.56,1.96-0.84    c0.66,0.02,1.2,0.189,1.681-0.28c1.899,0.771,4.869,2.28,6.729,0.6c0.18-0.02,0.35-0.029,0.53-0.039    c2.93-3.66,6.6-6.74,8.939-10.891c1.301-0.84,2.61-1.68,3.91-2.51c0.96-0.18,2.44-0.42,3.07-1.12c2.47,0.17,5.08,0.49,7.41,0.13    c1.16-0.14,2.32-0.27,3.479-0.41c0.62,0.33,1.131,0.46,1.4,1.12c1.88,0.59,5.91,1.141,5.49,3.88c-0.34,1.13-0.68,2.25-1.021,3.38    c0.061,1.341,0.13,2.69,0.19,4.03c-0.07,0.021-0.13,0.04-0.2,0.05c-0.26,0.601-0.51,1.2-0.77,1.801    c-0.79,0.609-0.88,2.359-1.091,3.31c-0.85,3.87,1,8.31,2.15,12.04c0.66,2.13-0.86,5.61-1.68,7.54c-1.96,4.66-8.44,7.27-12.32,9.99    c-1.439,1.01-2.61,2.06-3.439,3.64c-0.23,0.33-0.471,0.66-0.7,1c0.1,0.07,0.21,0.15,0.31,0.22c0.13,1.57,0.44,2.721,1.12,4.11    c0.35,1.04,0.7,2.08,1.06,3.12c0,0.71-0.159,1.67,0.28,2.229c-0.05,0.78,0.101,2.851,0.561,3.351    c-0.54,1.069-0.761,2.24-1.74,2.67c-0.351,0.229-0.7,0.45-1.061,0.68c-2.369,0.15-4.989-0.05-7.26-0.56    c-0.92-0.2-1.98,0.27-2.79-0.28c-3.11,0.1-6.11,0.34-9.24,1.03c-1.83,0.41-3.46,0.729-5.29,1.479    c-0.64,0.26-1.489,0.28-2.229,0.84c-1.73,1.351-3.91,1.96-5.87,3.631c-1.49,1.21-2.98,2.42-4.47,3.63    c-0.36,0.33-2.32,1.729-2.421,1.21c-0.159-0.79-0.649-1.86-0.649-2.891c-1.12-1.02-1.96-2.42-3.351-3.069    c-2.81-2.051-5.539-4.59-7.779-7.311c-0.851-1.01-1.71-2.02-2.561-3.029c-0.609-0.69-0.47-1.7-1.399-1.961    c0.05-1.1,0.109-2.21,0.17-3.31c-0.15-1.21-0.29-2.43-0.44-3.64c0.07-1.38,0.761-4.95,0.271-6.181c0.52-1.93,0.689-3.08,0-5.029    c-0.28-0.841-1.62-2.98-1.3-2.88c-0.41-0.551-0.841-0.75-1.21-1.58c-1.15-1.431-2.301-2.86-3.461-4.29    c-0.52-0.42-1.05-0.83-1.569-1.25c-0.59-0.23-1.181-0.45-1.76-0.681c-0.99-0.71-1.98-1.42-2.98-2.12    c-0.55,0.131-1.1-0.069-1.38,0.261c-0.82,1.06-1.59,2.02-2.04,3.27c-0.12,1.18-0.24,2.36-0.36,3.54    c-0.189,0.49-1.13,2.38-1.729,1.97c-0.851-0.64-3.25-2.14-2.601-3.5c-0.279-0.47-0.56-0.93-0.84-1.399    c-0.399-0.33-0.64-0.41-0.56-0.931C349.48,186.65,349.01,185.77,349.05,185.12z"/>
            <circle cx="387.58" cy="190.61" r="1.586"/>
        </g>
        <g id="__Çaycuma">
            <path d="M444.94,158.29c0.96-0.221,1.16-0.37,1.16-1.34    c0-2.181,0.04-4.211,0.47-6.311c0.17-0.85,0.57-2.12,0.03-2.75c-0.49-0.54-0.61-0.38-0.51-1.28c-2.29-1.649-5.21-3.96-5.87-6.699    c-0.25-1.04-1.101-2.381-0.28-3.351c0.42-0.83,0.63-1.45,1.26-2.13c1.141-0.17,4.16-3.04,4.011-4.02    c-0.101-0.61-0.391-2.311-0.24-2.79c-0.45-0.41-0.78-0.98-1.4-0.841c-1.38-1.909-3.02-3.71-4.939-5.109    c-0.771-0.561-1.92-1.45-2.04-2.44c-0.86-0.64-1.71-1.29-2.57-1.93c-1.6-1.98-2.6-4.15-4.7-5.61c-0.87-2.88-1.93-4.899-3.91-7.26    c-0.479-2.05-0.949-4.09-1.43-6.14c-0.22-1.96-0.45-3.88-0.33-5.851c0.04-0.68,0.12-1.529,0.32-2.029    c1.18-4.25-3.15-7.891-4.141-11.641c-0.3-1.12,0.28-1.819,0.561-2.84c0.1-2.21,0.189-4.42,0.29-6.63    c-0.41-0.5-0.681-1.11-0.57-1.75c-0.57-0.95-1.76-2.74-2.78-2.87c-0.5-0.06-0.54-0.02-0.85-0.479c-1.37,0.17-5.97,0.56-6.431,1.68    c-0.899,0.34-2.289,0.8-2.789,1.68c-1.12,0.65-2.23,1.3-3.351,1.96c-0.37,1.021-0.75,2.05-1.12,3.07c0,0.47,0,0.93,0,1.399    c0.971,1.261,1.811,2.341,2.23,3.91c0.1,0.38,0.3,1.391,0.04,1.48c-1.57,0.58-2.62,0.149-4.24-0.05    c-0.47-0.051-1.11-0.11-1.34,0.069c-0.99-0.12-1.42,0.17-2.4,0.051c-1.13-1.41-3.12-2.601-3.7-4.48    c-0.659-2.13-0.199-4.16-0.489-6.4c-0.101-0.79-0.32-1.88-1.271-1.55c0.63-0.26,2.021-0.689,1.57-1.62    c-0.98-1.97-0.521-3.13-2.82-4.359c-0.7-0.431-1.399-0.86-2.1-1.29c-1.771-0.37-3.54-0.75-5.311-1.12    c-0.56-0.28-1.12-0.561-1.68-0.84c-0.65-0.931-1.3-1.86-1.96-2.79c-1.2-1.12-2.4-2.23-3.6-3.351c-0.07-1.17-1.2-2.29-1.71-3.35    c-0.73-1.5-0.62-2.78-1.921-4.13c-0.039-0.73-0.149-0.76-0.64-1.26c-0.66-0.671-2.53-3.221-1.91-4.11    c-0.91-0.64-1-0.82-2.05-0.521c-2.2,0.641-4.41,1.28-6.61,1.921c-1.02,0.029-2.59-0.091-3.35,0.56c-1.47-0.14-2.96-0.33-4.19,0.56    c-0.63,0.21-1.27,0.42-1.899,0.631c-0.67,0.989-2.21,1.359-2.57,2.439c-1.02,0.26-4.53,1.25-5.03,1.96    c-1.85,0.3-4.43,1.39-4.189,3.63c-1.1,0.681-2.62,1.29-2.51,2.79c-2.08,1.66-3.45,3.55-5.33,5.24    c-0.55,0.49-0.771,1.12-0.851,1.85c-0.13,0.091-0.27,0.181-0.399,0.271c0.979,0.53,1.97,1.05,2.95,1.58    c-0.04,1.35,1.6,1.88,2.51,2.79c0.939,1.479,1.89,2.95,2.83,4.43c0.279,0.45,0.239,0.67,0.8,0.6c0.17,0.591,1.35,3.61,1.35,3.61    c0.011,0.38,0.03,0.76,0.04,1.14c-0.51,1.21-1.96,3.96-3.35,4.19c-0.3,0.59-0.82,1.32-0.561,1.96c-0.88,1.22-1.399,2.23-1.96,3.63    c-0.189,0.74-0.369,1.47-0.56,2.21c-0.41,0.67-1.45,3.19-1.4,3.94c-1.119,1.21-2.229,2.42-3.35,3.63    c-0.41,0.45-1.22,0.74-1.12,1.399c-2.72,1.36-3.6,2.221-5.28,4.74c-0.85,4.75-1.689,9.5-2.54,14.26    c-0.739,0.65-1.489,1.301-2.229,1.961c-0.561,1.119-1.12,2.239-1.68,3.35c-0.181,1.52-0.141,2.81,0.14,4.37    c-0.26,1.6-0.521,3.189-0.78,4.79c-0.16,1.13-0.319,2.27-0.479,3.399c0.96,2.92,1.92,5.84,2.88,8.761    c0.46,0.93,0.72,2.409,1.59,2.97c0.13,1.479,0.26,2.96,0.38,4.43c0.95,2.771,2.811,4.87,4.37,7.3c1.21,1.4,2.42,2.79,3.63,4.19    c1.61,0.59,2.67,1.82,4.19,2.51c0.37,0.46,0.75,0.93,1.12,1.4c0.67,3.229,3.25,5.27,4.75,7.819c0.93,0.46,1.859,0.931,2.79,1.4    c1.59,0.23,2.88,0,4.47,0c0.479,0.3,0.64,0.24,0.84,0.84c1.49-0.28,2.979-0.56,4.47-0.84c1.32,1.9,5.65,5.72,7.82,3.07    c0.51-0.05,1.01-0.101,1.52-0.16l-0.399,0.16c1.25-1.641,2.5-3.29,3.75-4.931c0.33-0.68,0.66-1.369,1-2.05    c1.12-0.93,2.229-1.859,3.35-2.79c1.12-0.46,2.23-0.93,3.351-1.399c0.649,0,1.3,0,1.96,0c3.08,2.31,5.439,5.25,9.189,6.12    c0.83,0.829,2.92,1.289,4.05,1.159c1.381,1.681,3.761,1.221,5.67,0.931c2.03,0.939,4.82-0.99,6.221-2.351    c0.49-0.479,1.21-0.399,1.399-1.12c0.65-0.279,1.301-0.56,1.96-0.84c0.66,0.021,1.2,0.19,1.681-0.279    c1.899,0.77,4.87,2.279,6.729,0.6c0.181-0.021,0.351-0.03,0.53-0.04c2.93-3.66,6.6-6.74,8.94-10.89    c1.3-0.841,2.609-1.681,3.91-2.511c0.96-0.18,2.439-0.42,3.069-1.119c2.471,0.17,5.08,0.489,7.41,0.13    c1.16-0.141,2.32-0.271,3.48-0.41c0.62,0.33,1.13,0.46,1.399,1.12c1.88,0.59,5.91,1.14,5.49,3.88L444.94,158.29z"/>
            <circle cx="361.88" cy="127.75" r="1.586"/>
        </g>
        <g id="__Kilimli">
            <path d="M316.3,128.14    c-0.369,0.13-0.729,0.24-1.04,0.521c-2.55,2.39-3.079,4.189-6.789,4.89c-2.261,0.42-5.771,1.14-7.841,0.06    c-1.76-0.909-1.92-2.75-3.25-3.87c-1.13-0.939-2.55-0.649-3.819-2.13c-2.09-2.439-3.96-5.1-6.58-7.31    c-2.521-2.11-5.24-1.49-7.94-3.79c-1.34-1.14-1.85-1.91-3.35-2.92c-1.46-0.98-2.57-2.53-3.78-3.78    c-2.229-2.3-4.67-4.689-6.39-7.42c-1-1.58-1.511-2.149-2.74-3.22c-1.15-0.99-2.63-1.99-2.98-3.48l-0.579-0.21    c0.689-1.12,0.6-2.819,1.68-3.66c2.05-1.6,3.52-1.51,4.75-4.159c1.64,0,3.649-1.7,5.02-2.471c3.73-2.06,7.46-4.13,11.181-6.189    c1.68-0.561,3.35-1.12,5.029-1.681c1.301-0.75,2.61-1.489,3.91-2.229c0.561,0.33,2.54-0.36,3.18-0.72    c1.461-0.971,2.91-1.94,4.36-2.92c1.67,0,3.13-0.9,4.47-1.4c0.641-0.1,1.28-0.2,1.92-0.311c1.83-0.59,3.66-1.189,5.49-1.779    c1.351-0.98,2.69-1.96,4.04-2.94c2.58-0.71,3.92-0.83,6.5-1.54c0.22-0.029,1.67-0.66,1.891-0.7c0.77,0.21,1.739,0.15,2.439-0.14    c0.771-0.42,1.91-0.8,2.44-1.05c0.79-0.48,0.489-0.28,1.54-0.21c0.63-0.63,0.42-0.95,0.85-1.4l0.67,0.101    c0.98,0.529,1.97,1.05,2.95,1.58c-0.04,1.35,1.6,1.88,2.51,2.79c0.94,1.479,1.891,2.949,2.83,4.43c0.28,0.45,0.24,0.67,0.8,0.6    c0.17,0.59,1.351,3.61,1.351,3.61c0.01,0.38,0.029,0.76,0.04,1.14c-0.511,1.21-1.96,3.96-3.351,4.19    c-0.3,0.59-0.819,1.319-0.56,1.96c-0.88,1.22-1.4,2.229-1.96,3.63c-0.19,0.74-0.37,1.47-0.561,2.21    c-0.409,0.67-1.449,3.19-1.399,3.94c-1.12,1.21-2.23,2.42-3.351,3.63c-0.409,0.449-1.22,0.739-1.119,1.399    c-2.721,1.36-3.601,2.221-5.28,4.74c-0.851,4.75-1.69,9.5-2.54,14.26c-0.74,0.65-1.49,1.3-2.23,1.96    c-0.56,1.12-1.12,2.24-1.68,3.351c-0.18,1.52-0.14,2.81,0.14,4.37C316.92,125.48,316.3,128.14,316.3,128.14z"/>
            <circle cx="274.88" cy="90.75" r="1.586"/>
        </g>
        <g id="__Kozlu">
            <path d="M237.71,215.33    c-0.58-0.601-2.22-0.28-3.069-0.28c-0.44,0-0.25,0.09-0.44-0.45c-2.08-0.64-3.11-1.91-4.18-3.61c-1.34-1.72-2.69-3.439-4.03-5.159    c-0.03-0.9-0.71-1.2-1.11-1.82c-1.159-1.84-2.489-3.23-4.31-4.43c-2.29-1.5-5.57,0.04-8.271-0.17    c-2.109-0.171-4.75-0.851-6.699-1.681c-0.561-0.09-1.12-0.18-1.681-0.279c-1.069,0.72-2.06-0.311-3.14-0.69    c-2.8-0.99-5.44-1.8-8.04-3.21c-1.47-0.76-1.79-1.97-1.95-3.64c0.19-1.021,0.37-2.051,0.561-3.07c0.46-0.43,0.31-0.79,0.54-1.34    c1.199-2.82,0.59-4.54,0.55-7.37c0.189-1.47,0.39-2.95,0.58-4.43c-0.38-0.5-0.26-0.801-0.28-1.4c-0.7-0.13-1.38-1.28-1.68-1.96    c-0.8-0.22-1.13-1.3-1.511-2.061c-1.06-2.119-1.76-4.18-2.439-6.359c-0.39-1.16-0.24-3.16-0.8-3.03    c0.41-1.06,0.83-2.11,1.239-3.17c1.41-3.37,3.08-6.54,3.23-10.24c-1.2-1.2-1.4-3.49-1.25-5.04c0.23-1.359,1.97-1.38,3.26-1.699    c1.101-0.641,2.2-1.28,3.3-1.921c1.551-0.56,3.24-0.71,4.75-0.56c0.37-0.28,0.74-0.56,1.12-0.84c1.63-2.101,2.69-2.73,5.311-3.07    c0.149-0.66,1.12-1.01,1.68-1.399c0.41-1.881,4.03-2.23,5.311-2.23c0.279-0.37,0.56-0.75,0.84-1.12    c-0.03-1.35,0.27-2.37,1.68-2.79c1.53-3.069,5.68-2.53,8.13-4.04c1.62-1,2.69-2.56,3.33-4.34c-0.09-0.84-0.19-1.68-0.28-2.51    c0.521-0.28,0.59-0.86,0.84-1.4c0.41-0.24,0.811-0.479,1.221-0.71c1.45,0.42,2.91,0.851,4.37,1.271    c1.399-0.09,2.79-0.19,4.189-0.28c0.47-0.28,0.931-0.56,1.4-0.84l1.2-1.13c0,0.729-0.511,3.439-0.25,3.85    c0.699,1.11,2.88,0.91,3.989,1.89c0.49,0.431,1.091,2.79,1.971,3.2c1.22,0.58,2.75,0.08,4.08,0.25c3.42,0.431,5.97,2.71,1.55,4.48    c-2.94,1.18-5.391,1.609-7.84,4.18c-4.67,4.91-5.11,9.22-5.67,15.67c-0.351,3.99-4.171,13.271,1.1,15.63    c1.92,0.86,5.81-0.08,7.84-0.17c2.59-0.12,4.68-1.41,7.29-1.41c3.6,0,5.07,1.931,6.17,5.391c0.37,1.149,1.311,2.91,1.67,4.069    c0.5,1.591,0,2,0,3.841c0,3.01-0.649,8.439-2.16,11.02c-0.93,1.58-2.739-0.25-4.39,1.08c-1.44,1.16-2.27,0.66-2.91,2.43    c-0.859,2.391-1.359,5.271-1.89,7.83c-0.29,1.391-0.12,2.561-0.79,3.79c-0.84,1.54-0.61,2.99-0.61,4.07    c0,2.83-1.95,4.07-4.27,6.43c-1.54,1.57-4.511,3.69-6.5,4.38L237.71,215.33z"/>
            <circle cx="232.04" cy="119.5" r="1.586"/>
        </g>
    </g>
</svg>