<?xml version="1.0" encoding="UTF-8"?>
<!DOCTYPE svg PUBLIC "-//W3C//DTD SVG 1.1//EN" "http://www.w3.org/Graphics/SVG/1.1/DTD/svg11.dtd">
<svg version="1.1" id="HaritaCizim" xmlns="http://www.w3.org/2000/svg" xmlns:xlink="http://www.w3.org/1999/xlink" x="0px" y="0px" viewBox="0 0 500 370" preserveAspectRatio="none">
    <defs id="__def">
        <radialGradient id="f">
            <stop offset="0" stop-color="white" stop-opacity="1"/>
            <stop id="STOP1" offset=".4" stop-opacity="1"/>
            <stop offset="1" stop-color="white" stop-opacity=".2"/>
        </radialGradient>
        <filter id="__flt1" x="0" y="0" width="200%" height="200%" filterUnits="objectBoundingBox">
            <feGaussianBlur in="SourceAlpha" stdDeviation="3" result="blur1"/>
            <feSpecularLighting result="specOut" in="blur1" specularConstant="1.5" specularExponent="20" lighting-color="#bbbbbb">
                <feDistantLight azimuth="45" elevation="30"/>
            </feSpecularLighting>
            <feComposite in="specOut" in2="SourceAlpha" operator="in" result="specOut"/>
            <feComposite in="SourceGraphic" in2="specOut" operator="arithmetic" k1="0" k2="1" k3="1" k4="0"/>
        </filter>
        <filter id="__flt2" x="0" y="0" width="200%" height="200%" filterUnits="objectBoundingBox">
            <feGaussianBlur in="SourceAlpha" stdDeviation="3" result="blur1"/>
            <feSpecularLighting result="specOut" in="blur1" specularExponent="20" lighting-color="#bbbbbb">
                <fePointLight x="-2000" y="100" z="2000"/>
            </feSpecularLighting>
            <feComposite in="specOut" in2="SourceAlpha" operator="in" result="specOut"/>
            <feComposite in="SourceGraphic" in2="specOut" operator="arithmetic" k1="0" k2="1" k3="1" k4="0"/>
        </filter>
        <filter id="__flt3" x0="-50%" y0="-50%" width="200%" height="200%" filterUnits="objectBoundingBox">
            <feGaussianBlur in="SourceAlpha" stdDeviation="3" result="blur"/>
            <feOffset in="blur" dx="0" dy="0" result="offsetBlur"/>
            <feSpecularLighting in="blur" surfaceScale="4" specularConstant=".5" specularExponent="20" lighting-color="flavor" result="specOut">
                <fePointLight x="-5000" y="-10000" z="5000"/>
            </feSpecularLighting>
            <feComposite in="specOut" in2="SourceAlpha" operator="in" result="specOut"/>
            <feComposite in="SourceGraphic" in2="specOut" operator="arithmetic" k1="0" k2="1" k3="1" k4="0" result="litPaint"/>
            <feMerge>
                <feMergeNode in="offsetBlur"/>
                <feMergeNode in="litPaint"/>
            </feMerge>
        </filter>
        <filter id="__flt4" x0="-50%" y0="-50%" width="200%" height="200%">
            <feGaussianBlur in="SourceAlpha" stdDeviation="2" result="blur"/>
            <feOffset dy="-1" dx="-1"/>
            <feComposite in2="SourceAlpha" operator="arithmetic" k2="-1" k3="1" result="hlDiff"/>
            <feFlood flood-color="white" flood-opacity=".7"/>
            <feComposite in2="hlDiff" operator="in"/>
            <feComposite in2="SourceGraphic" operator="over" result="withGlow"/>
            <feOffset in="blur" dy="3" dx="3"/>
            <feComposite in2="SourceAlpha" operator="arithmetic" k2="-1" k3="1" result="shadowDiff"/>
            <feFlood flood-color="black" flood-opacity="1"/>
            <feComposite in2="shadowDiff" operator="in"/>
            <feComposite in2="withGlow" operator="over"/>
        </filter>
        <filter id="__golge1" x="0" y="0" width="200%" height="200%" filterUnits="userSpaceOnUse">
            <feOffset result="offOut" in="SourceAlpha" dx="8" dy="8"/>
            <feGaussianBlur result="blurOut" in="offOut" stdDeviation="3"/>
            <feBlend in="SourceGraphic" in2="blurOut" mode="normal"/>
        </filter>
    </defs>
    <g id="__Komsular" display="none">
        <path fill-rule="evenodd" clip-rule="evenodd" fill="none" stroke="#000000" stroke-miterlimit="10" d="M182.04,49.78   c-0.82-1.01-2.6-1.41-3.68-2.32c-1.12-0.95-1.89-2.13-2.13-3.67c-0.45-2.87-0.73-5.59-0.73-8.54c0-1.61,0.19-2.99-0.73-4.18   c-0.65-0.84-1.87-1.61-2.67-2.59c-1.68-2.07-3.03-4.64-4.77-6.63c-3.13-3.58-7.49-3.77-12.15-5.53c-0.43-2.22-2.54-3.02-4.39-3.74   c-1.86-0.72-2.48-2-4.22-3.09c-1.49-0.93-4.59-1.44-5.23-3.32c-0.59-1.74-0.23-4.36-0.53-6.17"/>
        <path fill-rule="evenodd" clip-rule="evenodd" fill="none" stroke="#000000" stroke-miterlimit="10" d="M53.23,130.26   c0.36-1.72-1.63-1.98-2.77-2.32c-1.52-0.45-2.21-0.8-3.23-1.86c-0.47-0.48-0.78-1.17-1.46-1.46c-0.65-0.28-1.64,0.21-2.32-0.03   c-1.57-0.56-2.03-2.16-2.39-3.59c-0.66-2.64-1.01-5.43-1.65-7.98c-0.54-2.15-0.64-6.83-3.43-7.65c-1.49-0.44-3.07,1.04-4.37,1.47   c-1.37,0.46-2.63,0.81-3.95,1.31c-1.27,0.48-2.93,0.94-4.05,1.59c-1.08,0.63-2.11,1.75-3.26,2.41c-2.81,1.6-5.01,2.85-8.15,3.61   c-3,0.72-6.13,0.36-8.94,1.62C2.12,117.88,1.06,118.3,0,119"/>
        <path fill-rule="evenodd" clip-rule="evenodd" fill="none" stroke="#000000" stroke-miterlimit="10" d="M52.14,152.97   c-1.34,2.89-3.35,3.95-6.5,4.4c-2.64,0.38-6.4,0.81-8.4,2.55c-2.11,1.83-3.26,4.03-3.82,6.68c-0.26,1.26-0.77,2.76-0.87,4   c-0.12,1.55,0.76,2.79,0.69,4.36c-0.02,0.53,0,1.08-0.03,1.6c-1.11,0.63-5.25,1.52-6.48,1.27c-1.77-3.56-4.42-2.15-7.12-1.25   c-2.65,0.89-5.99,0.35-8.69,0.76c-0.55,1.02-3.04,1.96-4.21,2.29c-1.64,0.46-3.68,0.22-5.45,0.22"/>
        <path fill-rule="evenodd" clip-rule="evenodd" fill="none" stroke="#000000" stroke-miterlimit="10" d="M322.84,290.87   c0.56,0.25,1.19,0.89,1.6,1.3c0.68,2.84,3.79,3.92,4.21,7.05c0.46,3.43-0.42,5.76-3.61,6.75c-0.06,1.14,0.02,3.57-1.47,4.02   c-1.2,0.36-2.44-1.92-3.65-1.16c-0.87,0.55-0.22,3.42-0.53,4.37c-0.58,1.78-1.47,2.67-1.28,4.72c0.14,1.47,0.87,2.79,0.55,4.36   c-0.36,1.79-1.49,1.89-2.73,3.04c-2.11,1.96-0.77,5.04-1.41,7.49c-0.64,2.47-1.49,3.23-3.12,5.09c-1.42,1.61-1.22,4.06-1.1,6.36   c0.12,2.25,0.3,4.62,1.05,6.72c0.53,1.48,0.68,4.99,1.83,5.84c-0.29,2.53,1.79,5.4,0.39,7.96"/>
        <path fill-rule="evenodd" clip-rule="evenodd" fill="none" stroke="#000000" stroke-miterlimit="10" d="M406.23,313.58   c1.01,2.7,0.71,5.73,2.18,8.31c1.38,2.43,2.09,5.16,3.77,7.31c1.85,2.37,4,3.51,6.22,5.49c1.01,0.9,1.84,2.25,2.73,3.05   c1.09,0.99,2.66,1.3,3.96,2.06c0.2,0.12,0.33,0.09,0.55,0.16c1.11,1.72,4.03,2.95,5.47,4.52c2.1,2.29,2.72,3.28,2.55,6.53   c-0.12,2.33-0.82,4.69-0.55,7.09c0.16,1.4,0.95,2.17,1.32,3.41c0.32,1.07,0.14,2.5,0.14,3.67"/>
        <path fill-rule="evenodd" clip-rule="evenodd" fill="none" stroke="#000000" stroke-miterlimit="10" d="M415.32,125.36   c2.75-1.28,5.49-2.02,8.14-3.67c2.74-1.71,5.28-2.57,8.59-3.06c3.21-0.47,7.87-0.46,11.07,0.01c1.51,0.22,2.71,1.3,3.85,1.61   c1.46,0.39,3.52,0.03,5.05,0.03c3.13,0,6.28-0.36,9.45-0.73c2.5-0.29,6.04-1.26,8.17-2.76c2.16-1.52,4.81-3.92,5.83-6.33   c0.56-1.31,0.36-3.04,0.93-4.36c0.56-1.28,1.4-2.11,1.74-3.45c0.35-1.38,0.38-2.91,0.72-4.22c0.36-1.4,0.95-2.38,1.32-3.77   c0.72-2.77,1.64-5.36,1.64-8.37c0-3.1,0.11-5.98,2.5-8.04c2.12-1.83,4.39-3.1,6.41-5.08c3.58-3.52,9-8.01,9.27-13.4   c0.19-3.79-1.29-5.01-4-7.05c-2.34-1.75-4.42-3.09-7.08-4.4c-2.62-1.29-6.01-2.83-8.37-4.67c-2.02-1.58-5.92-3.81-6.54-6.41"/>
        <text transform="matrix(0.9402 0.3407 -0.3407 0.9402 346.6929 328.9458)" font-family="'MyriadPro-Regular'" font-size="12">KIRIKKALE</text>
        <text transform="matrix(0.0351 -0.9994 0.9994 0.0351 486.5635 241.481)" font-family="'MyriadPro-Regular'" font-size="12">ÇORUM</text>
        <text transform="matrix(1 0 0 1 334.5313 19.9854)" font-family="'MyriadPro-Regular'" font-size="12">KASTAMONU</text>
        <text transform="matrix(0.7894 -0.6138 0.6138 0.7894 71.248 63.3774)" font-family="'MyriadPro-Regular'" font-size="12">KARABÜK</text>
        <text transform="matrix(0.6998 0.7144 -0.7144 0.6998 109.6965 278.0122)" font-family="'MyriadPro-Regular'" font-size="12">ANKARA</text>
        <text transform="matrix(1 -5.148507e-003 5.148507e-003 1 10.9146 144.8496)" font-family="'MyriadPro-Regular'" font-size="12">BOLU</text>
    </g>
    <g id="__Harita" fill="white" stroke="#000000" stroke-width="1" stroke-miterlimit="10" display="none">
        <rect id="__cer" x="0" y="0" fill="#000000" opacity="0" width="500" height="370"/>
        <g id="__Çerkeş">
            <path d="    M173.5,69.22c-0.98,0.77-2.42,1.95-3.4,2.72c-3.24,2.64-6.69,5.14-10.55,6.81c-2.43,1.05-5.01,1.98-7.63,2.39    c-1.4,0.35-2.79,0.7-4.19,1.05c-1.69,0.41-3.37,0.81-5.06,1.22c-1.75,0.51-3.5,1.01-5.25,1.52c-2.82,0.6-6.35,0.7-9.22,0.47    c-1.52-0.28-3.04-0.55-4.56-0.83c-0.98-0.91-1.97-1.82-2.95-2.73c-0.64,0-1.34,0.88-1.92,1.22c-1.34,0.79-3.34,1.47-4.88,1.4    c-1.47-0.07-2.54-0.94-3.88-1.5c-0.54-0.23-1.16-0.58-1.66-0.19c-0.82,0.68-1.22,1.32-1.34,2.38c-0.02,0.24-0.05,0.49-0.07,0.73    c0.98,1.1,1.73,3.1,0.5,4.33c0.06,0.33,0.19,0.59,0,0.87c0.47,1.01,0.93,2.8,0,3.66c-0.68,0.88-2.98,3.54-4.19,3.49    c-0.49,0.68-1.94,2.11-1.74,2.96c-0.66,0.52-3,2.26-3.14,2.97c-1.04,0.46-2.08,1.03-2.91,1.82c-1.36,1.43-2.71,2.86-4.07,4.28    c-0.46,0.7-0.93,1.4-1.4,2.09c-0.7,0.7-1.4,1.4-2.09,2.09c-1.49,1.26-3.32,2.1-5.04,2.99c-1.69,0.86-3.38,1.73-5.07,2.59    c-2.72,0.61-5.44,1.23-8.16,1.84c-3.15,1.36-6.3,2.73-9.45,4.09c-0.69,0.43-1.38,0.86-2.08,1.29c-0.88,0.44-1.76,0.87-2.64,1.31    c-0.32,0.26-0.64,0.52-0.96,0.79c-0.72,0.39-1.64,0.76-1.47,1.68c-0.23,0.29-0.47,0.58-0.7,0.87c-0.7,0-0.73,0.04-0.9,0.73    c-0.11,0.45-0.21,0.91-0.32,1.36c0.03,0.48,0.29,1.18,0,1.57c0.3,0.81,1.22,2.14,1.05,2.97c0.39,0.71,1.09,1.8,1.05,2.62    c0.37,0.62,1.08,1.41,1.01,2.07c0.01,0.18,0.03,0.36,0.04,0.54c-0.81,1.1-1.63,2.21-2.44,3.31c0.14-0.22,0.28-0.44,0.41-0.66    c0.15-0.19,0.31-0.37,0.46-0.56c-1.09,1.71-0.93,2.64-0.87,4.53c0.01,0.3,0.04,2.67,0.5,2.08c0.38-0.45,1.03-0.95,1.07-1.55    c-0.02,0.06-0.04,0.11-0.07,0.17c-0.09,0.23-0.19,0.47-0.28,0.7c0.42-0.77,1.11-2.14,2.08-1.71c1.11,0.51,2.22,1.02,3.33,1.54    c1.05-0.17,2.09-0.35,3.14-0.52c2.45-0.9,4.85-1.6,7.5-1.24c0.47,0.06,2.5,0.23,3.31,0.89c0.53-0.29,1.13-0.36,1.72-0.32    c1,0.2,2,0.4,3,0.6c3.11,0.78,4.58,1.38,7.13,3.38c0.66,0.98,1.32,1.95,1.97,2.93c0.16,0.31,0.45,1.1,0.82,1.08    c0.32,0.85,0.64,1.69,0.96,2.54c0.61,0.84,1.22,1.68,1.83,2.52c1.54,2.37,2.97,4.8,4.53,7.15c0.94,1.41,1.33,3.12,2.47,4.39    c0.8,0.89,1.74,1.18,2.75,1.77c0.76,0.56,1.52,1.13,2.28,1.69c0.93,0.81,1.86,1.63,2.79,2.44c0.5,0.56,0.38,1.21,1.23,1.29    c3.07,0.41,6.14,0.82,9.21,1.23c1.64,0.51,3.27,1.01,4.91,1.52c1.2,0.39,4.13,2.15,5.22,1.43c1.24-1.06,2.47-2.11,3.71-3.17    c0.57-0.36,1.14-0.73,1.71-1.09c0.7-0.58,1.4-1.16,2.09-1.74c0.33-0.15,0.9-0.3,1.22-0.17c1.12-0.62,2.23-1.24,3.35-1.86    c3.74-1.41,7.65-2.03,11.65-1.97c0.76-0.17,1.51-0.35,2.27-0.52c1.16-0.12,2.33-0.23,3.49-0.35c0.58-0.2,1.15-0.4,1.73-0.59    c1.34-0.15,2.69-0.3,4.03-0.45c0.88-0.33,1.77-0.66,2.65-0.99c1.22-0.21,2.43-0.43,3.65-0.64c0.55-0.04,1.68-0.29,2.07,0.06    c0.71-0.42,2.39-1.6,3.14-1.57c2.4-2.11,2.84-3.64,4.25-6.42c0.44-0.83,0.89-1.65,1.33-2.48c0.83-0.71,2.09-1.5,2.55-2.5    c0.33-1.04,0.67-2.08,1-3.12c0.22-0.39,0.11-0.64-0.08-1c-0.09-0.91-0.33-4.05,0.01-4.89c-1.24-3.94-1.84-7.56-4.71-10.81    c-0.99-1.12-2.35-1.45-3.55-2.21c-0.79-0.5-1.66-1.31-2.56-1.45c-1.38-0.22-1.64-0.62-2.96-1.05c-0.27-0.35-1.23-0.84-1.22-1.3    c-1.89-1.42-3.47-2.41-4.45-4.66c-0.64-1.46-0.38-2.64-0.43-4.15c-0.13-4.3,0.75-7.9,2.44-11.86c1.25-2.94,1.35-6.32,2.05-9.39    c0.36-1,0.73-1.99,1.09-2.99c0.81-1.51,1.62-3.03,2.44-4.54c0.87-0.99,1.75-1.98,2.62-2.97c0.33-0.43,1.92-1.56,2.23-2.22    c0.75-0.49,1.54-1.25,1.66-1.59c-1.32-1.81,0.18-3.98-0.65-5.96c-0.43-1.04-1.4-1.3-2.02-2.26c-0.37-0.56-0.52-1.79-0.52-2.44    c0.47-0.29,0.93-0.58,1.4-0.87c0.25-0.87,0.96-2.64,0.35-3.49c0-0.81,0-1.63,0-2.44C174.12,71.24,174.32,69.86,173.5,69.22z"/>
            <circle cx="134.08" cy="131.72" r="1.586"/>
        </g>
        <g id="__Kurşunlu">
            <path d="    M282.7,135.16c-0.36,0.29-0.71,0.59-1.01,0.92c-0.93,0.58-1.86,1.16-2.79,1.74c-1.2,0.97-2.41,1.93-3.61,2.9    c-0.09,0.44-1.52,1.23-1.97,1.29c-1.42,1.54-2.84,3.09-4.26,4.63c-0.87,0.85-1.89,1.49-2.96,2.05c-0.32,0.91-0.86,1.67-1.54,2.35    c-0.57,0.57-1.77,1.26-1.88,2.12c-1.56,0.87-3.12,1.73-4.68,2.6c-0.63,0.59-1.25,1.18-1.88,1.77c-1.76,1.51-3.52,3.03-5.29,4.54    c-1.69,2-2.76,4.5-4.13,6.73c-0.49,0.66-0.98,1.32-1.47,1.98c-0.22,0.73-1.05,2.65-0.87,3.31c-0.83,1.07-1.65,2.15-2.48,3.22    c-0.57,1.08-1.14,2.15-1.71,3.23c-1.31,1.52-2.62,3.05-3.94,4.57c-0.81,1.2-1.31,2.41-2.34,3.45c-0.11,1.16-0.21,2.33-0.32,3.49    l-0.21,0.7l-0.5-0.25c-1.46-0.67-2.92-1.34-4.39-2.01c-0.64-0.12-1.27-0.24-1.91-0.36c-1.32-0.25-4.27-2.52-5.23-3.49    c-0.12-0.58-0.23-1.16-0.35-1.74c-0.17-0.29-0.35-0.58-0.52-0.87c-0.12-0.46-0.23-0.93-0.35-1.4c-0.26-1.4-0.52-2.8-0.78-4.2    c-0.64-1.54-2.13-2.78-3.23-4c-2.93-0.18-6.02-1.96-8.52-3.41c-0.82-0.55-1.64-1.1-2.46-1.65c-1.19-1.31-2.38-2.63-3.58-3.94    c-0.87-0.87-1.52-1.67-2.18-2.69c-0.65-0.99-1.79-1.64-1.68-2.79c0.09-1.16,0.19-2.33,0.28-3.49c0.17-0.7,0.35-1.4,0.52-2.09    c0.63-0.92,1.26-1.83,1.89-2.75c1.3-1.52,2.82-2.83,3.52-4.75c0.6-1.64,0.2-3.24,0.02-4.89c-0.27-2.5-0.51-4.99-0.55-7.49    c-0.01-0.79,0.23-2.9,0.11-3.74c1.13-1.37,2.56-3.56,2.34-5.5c-0.11-0.47-0.23-0.95-0.34-1.42c-0.47-0.36-0.84-2.87-0.71-2.76    c-0.03-0.11-0.73-3.13-1.05-4.53c-0.14-0.82-0.86-2.38-1.57-2.79c-0.29-0.76-0.58-1.51-0.87-2.27c-0.23-1.34-0.47-2.67-0.7-4.01    c0.39-1.19,0.79-2.37,1.18-3.56c0.08-0.91,0.15-1.81,0.23-2.72c0.03-0.6,0-2.77,0.15-2.62c0.45,0.45,1.57-0.01,2.1-0.17    c1.92-0.53,3.84-1.05,5.76-1.58c3.31-0.73,6.62-1.45,9.93-2.17c0.7-0.09,1.4-0.17,2.1-0.26c2.44-0.47,4.88-0.93,7.33-1.4    c0.47-0.16,0.94-0.32,1.41-0.48c1.83-0.31,3.66-0.61,5.48-0.92c0.64-0.26,1.27-0.52,1.91-0.78c3.08-3.49-0.25-6.4-0.25-10.21    c-0.8-1.2-1.94-3.09-1.03-4.46c0.66-1.09,1.54-1.95,2.29-2.99c0.33-0.45,0.34-0.97,0.83-1.27c0.25-1.54,0.73-3,0.65-4.55    c-0.03-0.55,0.6-1.17,0.74-1.73c0.16,0.19,0.96,1.68,0.47,0.56c0.95,1.32,1.9,2.65,2.84,3.97c0.31,0.54,1.19,1.67,1.64,1.99    c1.36,2.45,3.64,2.01,6.21,1.85c0.81-0.06,1.63-0.12,2.44-0.17c0.82,0.08,1.53,0.02,2.62-0.35c1.23-0.56,2.47-1.12,3.7-1.68    c0.23-0.04,1.52-0.66,1.87-0.49c1.37,0.72,1.26,2.01,2.1,3.22c0.35,0.41,0.7,0.81,1.05,1.22c0.93,0.93,1.38,2.61,1.74,3.84    c-0.27,1.01,0.05,2.06,0.01,3.13c-0.04,1.35-0.46,2.73-0.88,4.02c-0.52,1.57-2.36,2.87-3.42,4.07c-0.43,0.5-0.86,1.01-1.29,1.51    c-0.99,1.4-1.98,2.79-2.97,4.19c-1.01,2.62-1.66,7.83-0.67,10.54c0.52,1.43,1.83,2.47,2.96,3.39c1.1,0.88,2.19,1.76,3.29,2.64    c1.33,0.82,2.67,1.64,4,2.45c0.64,0.58,1.29,1.16,1.93,1.73c0.06,0.52,0.68,0.52,0.74,1.04c0.57,0.56,1.25,2.04,1.7,2.79    c0.43,0.71,1.72,2.3,2.44,2.62c0.8,1.06,1.59,2.12,2.39,3.17c0.53,0.86,1.07,1.73,1.6,2.59c0.48,1.24,0.62,2.44,1.59,3.48    c0.49,0.53,0.94,0.96,1.18,2.05L282.7,135.16z"/>
            <circle cx="227.64" cy="123" r="1.586"/>
        </g>
        <g id="__Ilgaz">
            <path d="    M282.69,134.99c-0.24-1.09-0.69-1.52-1.18-2.05c-0.97-1.04-1.11-2.25-1.59-3.48c-0.53-0.86-1.07-1.73-1.6-2.59    c-0.8-1.06-1.59-2.11-2.39-3.17c-0.73-0.32-2.02-1.91-2.44-2.62c-0.45-0.76-1.13-2.23-1.7-2.79c-0.06-0.52-0.68-0.52-0.74-1.04    c-0.64-0.58-1.29-1.16-1.93-1.73c-1.33-0.82-2.67-1.63-4-2.45c-1.1-0.88-2.19-1.76-3.29-2.64c-1.13-0.92-2.44-1.96-2.96-3.39    c-0.99-2.71-0.34-7.92,0.67-10.54c0.99-1.4,1.98-2.79,2.97-4.19c0.43-0.5,0.86-1.01,1.29-1.51c1.06-1.2,2.9-2.5,3.42-4.07    c0.43-1.28,0.84-2.67,0.88-4.02c0.04-1.07-0.28-2.12-0.01-3.13c-0.37-1.23-0.81-2.9-1.74-3.84c-0.35-0.41-0.7-0.81-1.05-1.22    c-0.85-1.21-0.73-2.5-2.1-3.22l0.01-0.09c0.31-0.74,0.93-1.29,1.57-1.74c0.53-2.26,0.39-4.56,1-6.79c0.32-1.2,2.3-2.66,3.54-3.16    c0.26-0.52,1.05-0.65,1.57-0.87c0.52-0.23,1.05-0.47,1.57-0.7c1.33-0.05,2.67-0.09,4-0.14c1.6-0.11,2.36-2.92,3.32-4.05    c1.81-2.12,2.34-2.01,5.06-2.09c0.8,0.16,1.6,0.33,2.4,0.49c1.98,0.67,3.96,1.34,5.94,2.02c0.59,0.44,1.18,0.89,1.78,1.33    c0.29,0.35,0.58,0.7,0.87,1.05c1.63,1.1,3.26,2.21,4.88,3.31c1.51,0.29,3.02,0.58,4.54,0.87c1.34,0.11,2.68,0.21,4.02,0.32    c2.32,0.23,4.69,0.01,6.96-0.52c0.69-0.4,1.37-0.8,2.06-1.2c2.36-1.14,4.29-2.83,6.5-4.17c1.1-0.52,2.21-1.05,3.31-1.57    c1.45-0.41,2.9-0.82,4.35-1.24c3.46-0.76,6.96-1.42,10.3-2.6c1.57-0.76,3.14-1.51,4.71-2.27c1.03-0.35,1.95-0.09,2.96-0.35    c1.97-0.47,3.95-0.93,5.92-1.4c1.57-0.64,3.14-1.28,4.71-1.92c0.52-0.29,1.05-0.58,1.57-0.87c0.88,0.39,3.85-0.42,4.85-0.7    c2.14-0.59,3.88-1.52,6.07-0.71c2.15,0.8,2.6,3.52,3.03,5.42c1.09,4.76,0.82,9.79-0.68,14.43c-0.18,0.57-0.55,0.93-0.89,1.44    c-0.3,0.64-0.59,1.28-0.89,1.91c-1.2,2.23-2.83,3.89-4.69,5.59c-0.03,0.71-0.77,1.38-1.22,1.92c-0.01,0.86-1.01,1.72-1.4,2.44    c-0.06,0.29-0.12,0.58-0.17,0.87c-0.29,0.64-0.58,1.28-0.88,1.91c-0.63,1.88-1.43,3.52-1.85,5.43c-0.57,2.65-0.92,6.1-0.51,8.84    c-0.01,1.3-0.02,2.6-0.03,3.9c0.18,1.69,0.24,3.27,0.6,4.6c-0.12,0.85-0.16,1.68-0.33,2.34c-0.36,0.8-0.72,1.6-1.08,2.4    c-0.25,0.78-0.5,1.55-0.75,2.33c-1.23,4.2-2.26,8.56-2.67,12.89c-0.37,0.95-0.75,1.91-1.12,2.86c-0.73,1.31-1.46,2.63-2.19,3.94    c-0.74,0.29-1.48,1.75-1.92,2.44c-0.76-0.03-1.98,1.09-2.57,1.56c-1.99,1.05-3.98,2.1-5.97,3.15c-1.26,0.73-2.51,1.46-3.77,2.19    c-0.71,0.56-1.43,1.11-2.14,1.67c-1.1,0.79-2.74,1.77-3.44,2.89c-0.34,0.34-0.69,0.68-1.04,1.01c-0.49,0.67-0.98,1.33-1.47,2    c-0.36,0.13-0.87,0.7-0.87,0.87c-1.38,0-3.97-0.18-4.99-1.14c-2.11,0.49-3.51-0.64-5.47-1.13c-2.03-0.51-4.1-0.97-5.92-2.04    c-0.7-0.31-1.4-0.61-2.1-0.92c-0.5-0.34-1.52-0.94-1.52-0.94c-0.65-1.75-2.63-4.36-4-5.59c-0.72-0.67-1.44-1.34-2.15-2.02    c-0.52-0.35-1.05-0.7-1.57-1.05c-0.93-0.35-1.86-0.7-2.79-1.05c-2.53,0.35-4.96-0.36-7.5,0.17c-1.1,0.41-2.21,0.81-3.31,1.22    c-1.44,0.66-2.88,1.32-4.32,1.98c-0.57,0.4-1.14,0.81-1.71,1.21c-0.86,0.48-2.44,1.35-2.44,1.35L282.69,134.99z"/>
            <circle cx="321.39" cy="97.02" r="1.586"/>
        </g>
        <g id="__Korgun">
            <path d="    M298.5,192.13c0.39-1.39,0.59-2.86,0.98-4.25c0.06-0.76,0.12-1.51,0.17-2.27c0.12-0.47,0.23-0.93,0.35-1.4    c0.74-0.52,0.99-1.43,1.48-2.21c0.61-1.12,1.22-2.25,1.83-3.37c0.18-1.74,0.37-3.49,0.55-5.23c0.34-2.03,0.68-4.07,1.02-6.1    c0.55-1.76,1.62-3,2.41-4.63c0.71-1.95,1.41-3.89,2.12-5.84c0.05-0.64,0.09-1.28,0.14-1.92c0.45-2.79,0.04-5.58,0.04-8.37    c0-0.83,0.43-3.53,0.87-4.19c0.9-1.32,1.78-2.52,2.14-3.73c-0.65-1.75-2.63-4.36-4-5.59c-0.72-0.67-1.44-1.34-2.15-2.02    c-0.52-0.35-1.05-0.7-1.57-1.05c-0.93-0.35-1.86-0.7-2.79-1.05c-2.53,0.35-4.96-0.36-7.5,0.17c-1.1,0.41-2.21,0.81-3.31,1.22    c-1.44,0.66-2.88,1.32-4.32,1.98c-0.57,0.4-1.14,0.81-1.71,1.21c-0.86,0.48-1.76,1.02-2.55,1.64c-0.36,0.29-0.71,0.59-1.01,0.92    c-0.93,0.58-1.86,1.16-2.79,1.74c-1.2,0.97-2.41,1.93-3.61,2.9c-0.09,0.44-1.52,1.23-1.97,1.29c-1.42,1.54-2.84,3.09-4.26,4.63    c-0.87,0.85-1.89,1.49-2.96,2.05c-0.32,0.91-0.86,1.67-1.54,2.35c-0.57,0.57-1.77,1.26-1.88,2.12c-1.56,0.87-3.12,1.73-4.68,2.6    c-0.63,0.59-1.25,1.18-1.88,1.77c-1.76,1.51-3.52,3.03-5.29,4.54c-1.69,2-2.76,4.5-4.13,6.73c-0.49,0.66-0.98,1.32-1.47,1.98    c-0.22,0.73-1.05,2.65-0.87,3.31c-0.83,1.07-1.65,2.15-2.48,3.22c-0.57,1.08-1.14,2.15-1.71,3.23c-1.31,1.52-2.62,3.05-3.94,4.57    c-0.81,1.2-1.31,2.41-2.34,3.45c-0.11,1.16-0.21,2.33-0.32,3.49l-0.21,0.7l0.71,0.17c1.63,1.23,3.87,2.09,5.95,2.26    c0.94,0.39,1.87,0.77,2.81,1.16c1.83,0.93,3.62,1.49,5.02,3.11c0.28,0.3,0.56,0.6,0.83,0.89c0.86,0.68,1.72,1.35,2.58,2.03    c1.23,0.76,3.72,2.09,3.72,2.09c1.54-0.73,2.04-1.21,2.8-1.42c1.41-1.09,2.81-2.18,4.22-3.26c1.02-0.68,2.03-1.36,3.05-2.04    c1.32-1.01,2.92-1.09,4.3-2.04c1.44-1.22,2.88-2.43,4.32-3.65c0.51-0.33,1.02-0.66,1.54-0.99c1.33-1.25,3.03-2.51,4.79-3.05    c1.65-0.5,2.88-0.27,4.48,0.2c0.35,0.12,0.7,0.24,1.05,0.35c1.81,0.17,3.61,0.31,5.35,0.89c0.6,0.23,1.2,0.45,1.8,0.68    c0.94,0.67,1.88,1.35,2.82,2.02c0.92,0.14,1.84,0.28,2.76,0.42L298.5,192.13z"/>
            <circle cx="292.68" cy="158.06" r="1.586"/>
        </g>
        <g id="__Atkaracalar">
            <path d="    M202.15,98.58c-0.16-0.16-0.12,2.02-0.15,2.62c-0.08,0.91-0.15,1.81-0.23,2.72c-0.39,1.19-0.79,2.37-1.18,3.56    c0.23,1.34,0.47,2.67,0.7,4.01c0.29,0.76,0.58,1.51,0.87,2.27c0.71,0.41,1.43,1.97,1.57,2.79c0.32,1.4,1.02,4.43,1.05,4.53    c-0.13-0.11,0.23,2.4,0.71,2.76c0.11,0.47,0.23,0.95,0.34,1.42c0.22,1.93-1.21,4.12-2.34,5.5c0.12,0.85-0.12,2.96-0.11,3.74    c0.04,2.51,0.28,4.99,0.55,7.49c0.18,1.65,0.58,3.25-0.02,4.89c-0.7,1.92-2.22,3.23-3.52,4.75c-0.63,0.92-1.26,1.83-1.89,2.75    c-0.17,0.7-0.35,1.4-0.52,2.09c-0.09,1.16-0.19,2.33-0.28,3.49l-0.2,0.01c-0.01,0.17-0.03,0.35-0.04,0.52    c-1.75-1.33-2.98-3.17-5.06-4.01c-3.46-1.39-7.41-1.1-10.99-0.38c0,0-0.18,0.05-0.36-0.31c-0.09-0.91-0.33-4.05,0.01-4.89    c-1.24-3.94-1.84-7.56-4.71-10.81c-0.99-1.12-2.35-1.45-3.55-2.21c-0.79-0.5-1.66-1.31-2.56-1.45c-1.38-0.22-1.64-0.62-2.96-1.05    c-0.27-0.35-1.23-0.84-1.22-1.3c-1.89-1.42-3.47-2.41-4.45-4.66c-0.64-1.46-0.38-2.64-0.43-4.15c-0.13-4.3,0.75-7.9,2.44-11.86    c1.25-2.94,1.35-6.32,2.05-9.39c0.36-1,0.73-1.99,1.09-2.99c0.81-1.51,1.62-3.03,2.44-4.54c0.87-0.99,1.75-1.98,2.62-2.97    c0.33-0.43,1.92-1.56,2.23-2.22c0.75-0.49,1.34-1.11,1.66-1.59l0.64-0.02c1.1,0,2.21,0,3.31,0c0.82,0.15,1.65,0.3,2.47,0.45    c1.44,0.84,2.89,1.67,4.33,2.51c0.45-0.23,1.2-0.04,1.7,0.17c1.4,0.56,0.25,3.5,0.72,4.9c0.21,0.63,1.03,0.43,1.77,0.34    c0.17-0.41,0.68-0.57,1.06-0.81c1.08-0.68,2.04-1.35,3.31-1.58c0.69-0.02,1.39-0.04,2.08-0.05c0.45,0.74,3.04,1.3,3.92,1.85    L202.15,98.58z"/>
            <circle cx="180.04" cy="130.99" r="1.586"/>
        </g>
        <g id="__Orta">
            <path d="    M232.87,192.52c-1.46-0.67-2.92-1.34-4.39-2.01c-0.64-0.12-1.27-0.24-1.91-0.36c-1.32-0.25-4.27-2.52-5.23-3.49    c-0.12-0.58-0.23-1.16-0.35-1.74c-0.17-0.29-0.35-0.58-0.52-0.87c-0.12-0.46-0.23-0.93-0.35-1.4c-0.26-1.4-0.52-2.8-0.78-4.2    c-0.64-1.54-2.13-2.78-3.23-4c-2.93-0.18-6.02-1.96-8.52-3.41c-0.82-0.55-1.64-1.1-2.46-1.65c-1.19-1.31-2.38-2.63-3.58-3.94    c-0.87-0.87-1.52-1.67-2.18-2.69c-0.65-0.99-1.92-2.27-1.92-2.27c-1.75-1.33-2.98-3.17-5.06-4.01c-3.46-1.39-7.41-1.1-10.99-0.38    l0.07,0.16l-0.35,0.53c-0.33,1.04-0.67,2.08-1,3.12c-0.46,1-1.72,1.79-2.55,2.5c-0.44,0.83-0.89,1.65-1.33,2.48    c-1.41,2.77-1.85,4.31-4.25,6.42c-0.75-0.03-2.43,1.15-3.14,1.57c-0.4-0.35-1.52-0.1-2.07-0.06c-1.22,0.21-2.44,0.43-3.65,0.64    c-0.88,0.33-1.77,0.66-2.65,0.99c-1.34,0.15-2.69,0.3-4.03,0.45c-0.58,0.2-1.15,0.4-1.73,0.59c-1.16,0.12-2.33,0.23-3.49,0.35    c-0.76,0.17-1.51,0.35-2.27,0.52c-4-0.06-7.92,0.56-11.65,1.97c-1.12,0.62-2.23,1.24-3.35,1.86c-0.32-0.13-0.89,0.02-1.22,0.17    c-0.7,0.58-1.4,1.16-2.09,1.74c-0.57,0.36-1.14,0.73-1.71,1.09c-1.24,1.06-2.47,2.11-3.71,3.17l-0.26,0.52    c-0.12,0.18,0.9,0.41,1.13,0.49c1.08,0.66,2.16,1.31,3.24,1.97c1.37,1.05,2.74,1.82,4.1,2.88c0.46,0.58,0.93,1.16,1.4,1.74    c0.35,0.7,0.7,1.4,1.05,2.09c0.35,1.05,0.7,2.09,1.05,3.14c-0.34,0.62,0.21,1.41,0.17,2.09c-0.14,2.43,0.69,5.07,0.17,7.5    c-0.06,1.63-0.12,3.26-0.17,4.88c-0.36,0.33-0.3,1.06-0.42,1.54c-0.38,1.49-0.35,2.92-0.63,4.56c-0.82,4.42-1.63,8.84-2.45,13.26    c0,0.12,0,0.23,0.01,0.35c0.62-0.89,1-0.62,1.99-0.92c0.91-0.51,1.81-1.02,2.72-1.53c0.61-0.95,3.12-1.89,4.2-2.45    c3.4-1.77,7.88-4.83,11.67-5.21c1.06-0.08,2.5,1.21,3.14,2.08c0.9,0.28,3.05,2.96,3.72,3.79c1.17,1.43,2.91,3.3,3.64,5    c0.45,1.49,0.91,2.98,1.36,4.47c0.96,1.37,1.92,2.74,2.87,4.12c1.59,1.88,5.14,4.31,7.4,5.19c2.37,0.92,3.99,2.31,6.47,1.23    c1.1-0.55,1.3-3.37,2.09-4.26c0.93-0.9,1.86-1.8,2.8-2.7c0.7-0.55,1.39-1.1,2.09-1.66c0.81-0.7,1.63-1.4,2.44-2.09    c2.99-1.56,6.12-2.12,9.45-2.51c0.88,0.04,1.76,0.07,2.64,0.11c0.91-0.07,1.83-0.14,2.74-0.21c0.64-0.29,1.28-0.58,1.92-0.87    c0.69-0.53,1.39-1.05,2.08-1.58c0.28-0.25,0.14-3.05-0.41-4.14c-1.74-3.43-4.87-5.39-5.49-9.29c-0.03-0.27,1.12-1.83,1.75-2.59    c0.3-0.37,1.28,0.21,1.71,0.37c1.74,0.65,3.2,1.72,4.93,2.3c6.12,2.08,12.41,2.78,18.81,1.33c0.41-0.35,0.81-0.69,1.22-1.04    c0.76-0.87,1.51-1.75,2.27-2.62c0.09-0.6-0.07-1.23,0-1.74c1.11-0.96,0.71-3.28,0.67-4.55c-0.21-1.45-0.43-2.91-0.64-4.36    c-0.17-2.02-0.03-3.82-0.2-5.84c-0.34-1.49-1.25-3.03-1.91-4.44c-0.1-0.98-0.26-3.03-0.36-4.01L232.87,192.52z"/>
            <circle cx="188.95" cy="195.49" r="1.586"/>
        </g>
        <g id="__Şabanözü">
            <path d="    M182.8,249.17c1.1-0.55,1.3-3.37,2.09-4.26c0.93-0.9,1.86-1.8,2.8-2.7c0.7-0.55,1.39-1.1,2.09-1.66c0.81-0.7,1.63-1.4,2.44-2.09    c2.99-1.56,6.12-2.12,9.45-2.51c0.88,0.04,1.76,0.07,2.64,0.11c0.91-0.07,1.83-0.14,2.74-0.21c0.64-0.29,1.28-0.58,1.92-0.87    c0.69-0.53,1.39-1.05,2.08-1.58c0.28-0.25,0.14-3.05-0.41-4.14c-1.74-3.43-4.87-5.39-5.49-9.29c-0.03-0.27,1.12-1.83,1.75-2.59    c0.3-0.37,1.28,0.21,1.71,0.37c1.74,0.65,3.2,1.72,4.93,2.3c6.12,2.08,12.41,2.78,18.81,1.33c0.41-0.35,0.81-0.69,1.22-1.04    c0.76-0.87,1.51-1.75,2.27-2.62c0.09-0.6-0.07-1.23,0-1.74c1.11-0.96,0.71-3.28,0.67-4.55c-0.21-1.45-0.43-2.91-0.64-4.36    c-0.17-2.02-0.03-3.82-0.2-5.84c-0.34-1.49-1.25-3.03-1.91-4.44c-0.1-0.98-0.26-3.03-0.36-4.01l0.71,0.17    c1.63,1.23,3.87,2.09,5.95,2.26c0.94,0.39,1.87,0.77,2.81,1.16c1.83,0.93,3.62,1.49,5.02,3.11c0.28,0.3,0.56,0.6,0.83,0.89    c0.86,0.68,1.72,1.35,2.58,2.03c1.23,0.76,2.47,1.53,3.7,2.29c1.44,1,2.87,2.01,4.31,3.01c1.23,0.61,1.98,1.9,3.05,2.69    c2.03,1.49,3.24,3.53,4.88,5.41c1,1.33,2,2.66,2.99,4c0.28,0.59,0.56,1.17,0.84,1.76c0.06,0.7,0.12,1.4,0.17,2.09    c0.47,2.2,0.52,4.38,0.52,6.63c0.23,0.64,0.47,1.28,0.7,1.92c0.63,1.89,0.81,3.82,1.25,5.76c0.28,1.22,0.56,2.44,0.84,3.66    c-0.2,4.31-0.35,8.58-0.35,12.91c-0.32,0.22-1.14,2.96-1.22,3.49c-0.26,1.61-0.59,3.08-1,4.68c-0.19,0.59-0.38,1.18-0.57,1.78    c-0.73,1.06-1.4,1.95-2.2,2.88c-0.49,0.17-0.99,0.33-1.48,0.5c-1.46,0.24-2.88-0.05-4.34-0.07c-2.62-0.04-5.09,0.37-7.68,0.66    c-1.51,0.14-3.03,0.28-4.54,0.41c-2.05,0.25-4.14,0.51-5.38,2.43c-0.74,1.15-0.99,2.49-1.24,3.82c0.18,0.19,0.87,2.43,0.82,2.64    c0.31,0.4,0.61,0.8,0.92,1.19c0.13,0.36,0.26,0.71,0.39,1.07c-0.06,0.75-0.12,1.5-0.19,2.25c-0.12,0.09-0.24,0.17-0.35,0.26    c-0.68,1.41-1.76,1.42-3.16,2.01c-0.19,0.41-0.67,0.62-1.05,0.87c-0.52,0.93-1.05,1.86-1.57,2.79c-0.41,0.01-0.71,0.29-1.05,0.52    c-0.47,0.15-0.95,0.3-1.42,0.45c-1.31,0.59-2.73,1.01-3.82,2c-0.73,0.66-1.21,2.14-1.21,3.13c-0.85,0.67-1,0.88-2.09,1.17    c-0.3,0.08-0.14,0.1-0.39-0.26c-1.59-0.13-2.47-1.6-3.79-2.31c-1.18-0.71-2.35-1.42-3.53-2.13c-0.45-0.45-0.9-0.91-1.36-1.36    c-0.4,0.4-2.12-1.68-2.47-2.13c-1.32-2.19-2.63-4.38-3.95-6.57c-0.35-0.9-0.7-1.81-1.05-2.71c0.22-0.67,0.43-1.35,0.65-2.02    c0.57-1.35,1.1-2.59,1.12-4.07c0.01-0.55-1.46-4.15-1.79-4.47c-0.07-0.41-0.13-0.81-0.2-1.22c-0.49-2.15-1.23-2.93-2.41-4.71    c-0.24-0.46-0.47-0.92-0.71-1.38c-0.92-1.51-2.38-2.66-3.64-3.87c-2.25-2.15-4.45-4.1-7.06-5.8c-0.79-0.38-1.58-0.77-2.37-1.15    c-0.46-0.33-2.99-1.45-3.43-1.3c-1.12-0.44-2.25-0.88-3.37-1.32c-0.61,0.17-1.22,0.35-1.83,0.52c-0.67,0.58-1.34,1.17-2.01,1.75    C185.73,248.92,182.8,249.17,182.8,249.17z"/>
            <circle cx="231.1" cy="243.09" r="1.586"/>
        </g>
        <g id="__Eldivan">
            <path d="    M269.2,267.33c0.8-0.94,1.47-1.82,2.2-2.88c0.19-0.59,0.38-1.19,0.57-1.78c0.4-1.59,0.74-3.07,1-4.68    c0.08-0.53,0.9-3.27,1.22-3.49c0-4.32,0.15-8.6,0.35-12.91c-0.28-1.22-0.56-2.44-0.84-3.66c-0.44-1.93-0.62-3.87-1.25-5.76    c-0.23-0.64-0.47-1.28-0.7-1.92c0-2.25-0.05-4.43-0.52-6.63c-0.06-0.7-0.12-1.4-0.17-2.09c-0.28-0.59-0.56-1.17-0.84-1.76    c-1-1.33-1.99-2.66-2.99-4c-1.65-1.88-2.85-3.92-4.88-5.41c-1.07-0.79-1.82-2.09-3.05-2.69c-1.44-1-2.87-2.01-4.31-3.01l0.02-0.29    c1.54-0.73,2.04-1.12,2.8-1.33c1.41-1.09,2.81-2.18,4.22-3.26c1.02-0.68,2.03-1.36,3.05-2.04c1.32-1.01,2.92-1.09,4.3-2.04    c1.44-1.22,2.88-2.43,4.32-3.65c0.51-0.33,1.02-0.66,1.54-0.99c1.33-1.25,3.03-2.51,4.79-3.05c1.65-0.5,2.88-0.27,4.48,0.2    c0.35,0.12,0.7,0.24,1.05,0.35c1.81,0.17,3.61,0.31,5.35,0.89c0.6,0.23,1.2,0.45,1.8,0.68c0.94,0.67,1.88,1.35,2.82,2.02    c0.92,0.14,1.84,0.28,2.76,0.42c0.81,0.87,1.63,1.74,2.44,2.62c0.76,0.58,1.51,1.16,2.27,1.74c0.79,0.85,0.8,2.58,1.22,2.96    c-0.42,1.59-1.04,3.41-0.87,5.06c0.1,0.96,0.89,2.57,1.57,3.31c0.01,0.75,0.01,1.5,0.02,2.26c-0.02,0.59-2.15,3.54-2.63,3.67    c-0.23,0.66-0.46,1.31-0.69,1.97c-0.25,0.67-0.89,1.63-0.36,2.26c1.72,1.97,5,0.44,6.28,1.88c0.87,0.23,3.03,0.77,2.81,1.03    c0.06,0.05,0.73,0.48,1.94,0.48c0.97,0.12,2.23,0.35,2.25,0.58c0.04,0.46,0.07,0.75,0.26,1.19c-0.21,0.65-0.42,1.3-0.63,1.95    c-0.21,0.38-0.41,0.75-0.62,1.13c-0.09,0.67-0.17,1.34-0.26,2.01c1.11,4.68-1.17,7.38-2.46,11.57c-0.4,2.02-0.8,4.03-1.2,6.05    c-0.58,1.34-1.16,2.67-1.74,4.01c-0.22,0.31-0.44,0.63-0.67,0.94c-0.3,0.62-0.6,1.24-0.9,1.85c-0.71,1.02-1.42,2.04-2.13,3.06    c-0.28,0.49-0.56,0.98-0.83,1.48c-1.76,2.32-3.52,4.63-5.29,6.95c-0.68,1.37-1.36,2.74-2.03,4.1c-0.64,1.14-1.28,2.28-1.92,3.42    c-0.64,1.75-1.27,3.51-1.91,5.26c-0.47,1.15-0.94,2.31-1.41,3.46c-0.23,0.23-0.47,0.46-0.7,0.7c-0.08,0.52-0.97,3.33-1.31,3.15    c-0.24-0.12-0.24-0.48-0.61-0.89c-0.91-1.48-1.35-3.07-2.16-4.57c-1.01-1.88-2.51-4.72-4.22-6.14c-1.24-1.03-2.71-1.39-4.15-2.03    c-1.68-0.83-3.36-1.67-5.05-2.5c-1.32-0.21-3-0.56-4.32-0.77L269.2,267.33z"/>
            <circle cx="288.32" cy="226.01" r="1.586"/>
        </g>
        <g id="__Çankırı">
            <path d="    M381.74,257.76c-0.37-1.01-1.31-3.86-0.7-4.71c1.36-1.88,2.98-3,5.13-3.88c0.52-0.21,1.56-0.8,2.08-0.6    c2.09-1.98,4.19-3.95,6.28-5.93c1.01,0,2.4-0.96,3.67-1.02c2.5,0.23,5,0.45,7.49,0.68c0.76,0.2,1.52,0.41,2.28,0.61    c1.62,0.09,3.25,0.17,4.87,0.26c2.73,0.56,3.26,3.18,5.12,4.82c0.6,0.53,1.21,1.28,2.02,1.3c1.44,0.04,2.76,0.16,4.19-0.02    c0.76-0.35,1.51-0.7,2.27-1.05c0.87-0.64,1.74-1.28,2.62-1.92c0.41-0.47,1.95-1.48,2.36-1.94c1.16-1.14,2.07-2.3,2.79-3.7    c0.55-1.05,1.31-2.31,2.17-3.07c0.76-0.99,1.51-1.98,2.27-2.96c1.89-1.47,5.62-3.78,8.2-3.14c-0.03,0.5-0.28-1.91-0.52-3.66    c0.2-2.15,0.4-4.31,0.6-6.46c0.07-1.13,0.17-2.28-0.41-3.21c-1.04-1.66-2.51-3.02-4.14-4.1c-0.49-0.35-0.97-0.7-1.46-1.05    c-0.81-1.1-1.63-2.21-2.44-3.31c-0.06-0.58-0.12-1.16-0.17-1.74c-0.26-1.69,0.51-3.49,1.11-5.02c0.26-0.71,0.52-1.43,0.79-2.14    c0.96-2.05,1.91-4.1,2.87-6.14c0.42-1.1,0.84-2.2,1.26-3.3c0.2-0.45,0.58-0.89,0.15-1.21l-0.25-0.32    c-1.36-0.57-2.78-0.48-4.17-1.12c-1.19-0.7-2.38-1.4-3.56-2.1c-3.42-1.27-6.22,0.91-8.83,2.87c-2.16,0.13-4.07,1.82-5.96,2.73    c-3.18,1.53-7.78,2.66-10.26,4.95c-1.04,0.59-2.09,1.19-3.13,1.78c-0.68,0.54-3.14,2.37-3.32,3.1c-0.55,0.51-1.17,0.96-1.57,1.57    c-0.44,0.66-1.53,0.81-1.74,1.57c-1.77,0.06-3.44,0.43-5.22,0.27c-0.7-0.23-1.4-0.45-2.09-0.68c-1.97-0.58-4.04-1.22-5.77-2.39    c-1.3-1.14-2.61-2.27-3.91-3.41c-1.52-1.14-3.7-1.13-5.06-2.31c-1.71-1.48-3.53-3.12-4.63-5.1c-0.4-0.72-1.5-1.09-1.57-1.92    c-1.07-1.02-2.14-2.05-3.21-3.07c-0.46-0.5-0.86-1.25-1.5-1.46c-0.23-0.41-0.46-0.81-0.7-1.22c-1.59-1.32-3.17-2.63-4.76-3.95    c-3.4-2.58-7.91-3.87-11.99-5c-1.51-0.27-3.02-0.54-4.53-0.82c-0.16-0.37-1.33-1.1-1.68-1.07c-0.73-0.24-0.77-0.67-1.55-1.21    c-0.32,0.24-0.27,0.17-0.36-0.17c-0.2-1.23-0.4-2.47-0.6-3.7c-0.15-0.43-0.32-1.07-0.4-1.11c-1.31-0.69-2.62-1.38-3.92-2.07    c-0.38-0.3-0.91-0.59-0.98-0.97c-0.21-0.87-0.41-1.73-0.62-2.6c0.12-1.05,0.23-2.09,0.35-3.14c0.23-0.76,0.46-1.51,0.7-2.27    c0.07-0.69,0.13-1.37,0.2-2.06c0.33-0.46,0.35-2.24,0.15-2.82c-0.63-1.82-2.29-3.76-3.78-4.94c-0.21-0.16-1.65-1.06-1.39-1.42    l-0.38,0.26l0.15,0c-1.38,0-3.97-0.18-4.99-1.14c-2.11,0.49-3.51-0.64-5.47-1.13c-2.03-0.51-4.1-0.97-5.92-2.04    c-0.7-0.31-1.4-0.61-2.1-0.92c-0.5-0.34-1.52-0.94-1.52-0.94l-0.1,0.67c-3.55,4.4-2.74,7.99-2.74,13.17    c-0.12,1.45-0.23,2.91-0.35,4.37c-0.41,1.06-0.82,2.12-1.24,3.18c-0.11,0.63-0.22,1.25-0.33,1.88c-0.83,1.41-1.66,2.83-2.49,4.24    c-0.72,1.81-0.59,3.66-0.83,5.53c-0.17,0.35-0.33,0.69-0.5,1.04c-0.1,1.22-0.2,2.45-0.29,3.67c-0.08,0.7-0.17,1.39-0.25,2.09    c-1.28,2.33-2.56,4.65-3.84,6.98c-0.01,0.91-0.02,1.81-0.03,2.71c-0.45,0.77-1.08,2.65-1.02,3.97l-0.35,0.47    c0.81,0.87,1.63,1.74,2.44,2.62c0.76,0.58,1.51,1.16,2.27,1.74c0.79,0.85,0.8,2.58,1.22,2.96c-0.42,1.59-1.04,3.41-0.87,5.06    c0.1,0.96,0.89,2.57,1.57,3.31c0.01,0.75,0.01,1.5,0.02,2.26c-0.02,0.59-2.15,3.54-2.63,3.67c-0.23,0.66-0.46,1.31-0.69,1.97    c-0.25,0.67-0.89,1.63-0.36,2.26c1.72,1.97,5,0.44,6.28,1.88c0.87,0.23,3.03,0.77,2.81,1.03c0.06,0.05,0.73,0.48,1.94,0.48    c0.97,0.12,2.23,0.35,2.25,0.58c0.04,0.46,0.07,0.75,0.26,1.19c-0.21,0.65-0.42,1.3-0.63,1.95c-0.21,0.38-0.41,0.75-0.62,1.13    c-0.09,0.67-0.17,1.34-0.26,2.01c1.11,4.68-1.17,7.38-2.46,11.57c-0.4,2.02-0.8,4.03-1.2,6.05c-0.58,1.34-1.16,2.67-1.74,4.01    c-0.22,0.31-0.44,0.63-0.67,0.94c-0.3,0.62-0.6,1.24-0.9,1.85c-0.71,1.02-1.42,2.04-2.13,3.06c-0.28,0.49-0.56,0.98-0.83,1.48    c-1.76,2.32-3.52,4.63-5.29,6.95c-0.68,1.37-1.36,2.74-2.03,4.1c-0.64,1.14-1.28,2.28-1.92,3.42c-0.64,1.75-1.27,3.51-1.91,5.26    c-0.47,1.15-0.94,2.31-1.41,3.46c-0.23,0.23-0.47,0.46-0.7,0.7c-0.08,0.52-0.97,3.33-1.31,3.15l-0.08,0.16    c0.45,0.32,0.63,0.13,1.06,0.51c0.69,0.7,1.39,1.4,2.08,2.1c0.35,0.1,0.7,0.2,1.06,0.31c0.4,0.14,1.01,0.49,1.41,0.3    c2.14-1.02,4.29-2.03,6.43-3.05c1.11-0.23,2.81,0.67,3.76,1.21c0.42,0.24,0.91,0.28,1.13,0.71c0.41,0.06,0.81,0.12,1.22,0.17    c2.81,0.09,5.64,0.13,8.37,0.87c1.42,0.2,2.84,0.41,4.26,0.61c1.35,0.42,2.25,1.84,3.67,2.18c1.38,0.33,2.72-0.05,4.1,0.01    c2.27,0.17,4.54,0.34,6.81,0.51c0.6-0.01,2.58,0.63,2.96,1.05c1.22,0,2.44,0,3.66,0c0.43,0.27,0.72,0.66,1.22,0.52    c0.16,0.47,0.79,2.41,1.21,2.46c0.98,0.08,1.96,0.16,2.94,0.25c0.6-0.11,1.19-0.23,1.79-0.34c0.64,0.02,1.27,0.05,1.91,0.07    c1.09,0.34,3.58,1.82,4.53,1.74c0.81-0.07,2.8-0.83,3.49-0.35c0.58-0.23,1.16-0.47,1.74-0.7c0.6-0.04,1.68,0.24,2.09-0.17    c0.29-0.52,0.58-1.05,0.87-1.57c0.9,0.06,1.68-0.16,2.43-0.48c0.81-0.34,1.59-0.8,2.45-1.17c0.49-0.21,1.35-0.64,1.74-0.27    c0.34-0.24,0.69-0.48,1.03-0.71c0.66-0.42,1.76-0.92,2.11-1.55c0.81-0.06,1.63-0.12,2.44-0.17c0.65-0.29,2.12-0.95,2.79-0.7    c0.7-0.47,1.4-0.93,2.09-1.4c0.88-0.47,1.76-0.93,2.64-1.4c1.01,0.04,1.79,0.18,2.77,0.53c0.02-0.12,0.05-0.24,0.07-0.35    c0.35-1.74-0.3-3.21-0.73-4.88c-0.61-2.35-1.14-4.71-1.22-7.15c-0.03-0.8-0.22-3.49,0.31-4.02c0.06-2.09,0.12-4.19,0.17-6.28    c-0.34-1.17-0.67-2.34-1.01-3.51c-0.17-0.47-0.51-0.9-0.15-1.3L381.74,257.76z"/>
            <circle cx="317.39" cy="203.3" r="1.586"/>
        </g>
        <g id="__Kızılırmak">
            <path d="    M364.88,293.79c0.81-0.34,1.59-0.8,2.45-1.17c0.49-0.21,1.35-0.64,1.74-0.27c0.34-0.24,0.69-0.48,1.03-0.71    c0.66-0.42,1.76-0.92,2.11-1.55c0.81-0.06,1.63-0.12,2.44-0.17c0.65-0.29,2.12-0.95,2.79-0.7c0.7-0.47,1.4-0.93,2.09-1.4    c0.88-0.47,1.76-0.93,2.64-1.4c1.01,0.04,1.79,0.18,2.77,0.53c0.02-0.12,0.05-0.24,0.07-0.35c0.35-1.74-0.3-3.21-0.73-4.88    c-0.61-2.35-1.14-4.71-1.22-7.15c-0.03-0.8-0.22-3.49,0.31-4.02c0.06-2.09,0.12-4.19,0.17-6.28c-0.34-1.17-0.67-2.34-1.01-3.51    c-0.17-0.47-0.51-0.9-0.15-1.3l-0.64-1.69c-0.37-1.01-1.31-3.86-0.7-4.71c1.36-1.88,2.98-3,5.13-3.88c0.52-0.21,1.56-0.8,2.08-0.6    c2.09-1.98,4.19-3.95,6.28-5.93c1.01,0,2.4-0.96,3.67-1.02c2.5,0.23,5,0.45,7.49,0.68c0.76,0.2,1.52,0.41,2.28,0.61    c1.62,0.09,3.25,0.17,4.87,0.26c2.73,0.56,3.26,3.18,5.12,4.82c0.6,0.53,1.21,1.28,2.02,1.3c1.44,0.04,2.76,0.16,4.19-0.02    c0.76-0.35,1.51-0.7,2.27-1.05c0.87-0.64,1.74-1.28,2.62-1.92c0.41-0.47,1.95-1.48,2.36-1.94c1.16-1.14,2.07-2.3,2.79-3.7    c0.55-1.05,1.31-2.31,2.17-3.07c0.76-0.99,1.51-1.98,2.27-2.96c1.89-1.47,5.62-3.78,8.2-3.14l0.07,0.28c-0.29,0,0.45,1.44,0.4,1.7    c0.02,0.56,0.03,1.12,0.05,1.68c0.85,2.14,0.75,6.56,0.4,8.7l0.29,1.59c0.06,0.35,0.12,0.7,0.17,1.05    c-0.36,0.68,0.5,3.67,0.7,4.53c0.39,1.02,0.78,2.04,1.18,3.06c1.45,3.08,2.61,7.13,1.96,10.55c-0.76,1.86-1.51,3.72-2.27,5.58    c-0.47,0.64-0.93,1.28-1.4,1.92c-1.26,0.35-2.58,1.8-3.49,2.79c-0.76,0.99-1.51,1.98-2.27,2.97c-1.29,3.22-1.63,6.58-2.44,9.94    c0.32,0.69-0.45,3.71-0.7,4.53c-0.56,1.87-1.74,3.39-2.96,4.87c-0.6,0.98-1.19,1.97-1.79,2.95c-0.92,1.17-1.83,2.35-2.75,3.52    c-0.89,1.06-2.17,1.48-3.14,2.44c-2.09,0.11-4.19,0.21-6.28,0.32c-2.39-0.04-4.75-0.37-7.15,0.03c-0.46,0.23-0.93,0.46-1.4,0.7    c-0.43,0.33-0.85,0.67-1.28,1c-0.86,0.86-1.72,1.72-2.58,2.57c-0.98,0.79-1.96,1.59-2.93,2.38c-0.62,0.5-1.96-0.25-2.61-0.44    c-1.67-0.41-3.35-0.82-5.02-1.23c-0.61-0.36-1.21-0.73-1.82-1.09c-2.49-0.25-4.99-0.51-7.48-0.76c-1.41,0.15-2.81,0.3-4.22,0.45    c-0.97-0.02-1.94-0.04-2.92-0.06c-3.13-0.51-6.68-1.66-9.26-3.53c-0.39,0.13-0.9-0.28-1.22-0.52c-1.47-1.12-2.13-3.07-3.34-4.41    c0.25-0.45-0.42-1.9-0.7-2.56c-0.98-2.35-0.23-3.16-3.14-4.31L364.88,293.79z"/>
            <circle cx="408.23" cy="288.32" r="1.586"/>
        </g>
        <g id="__Yapraklı">
            <path d="    M332.62,144.8c0-0.17,0.51-0.75,0.87-0.87c0.49-0.67,0.98-1.33,1.47-2c0.35-0.34,0.69-0.68,1.04-1.01c0.7-1.12,2.35-2.1,3.44-2.89    c0.71-0.56,1.43-1.11,2.14-1.67c1.26-0.73,2.51-1.46,3.77-2.19c1.99-1.05,3.98-2.1,5.97-3.15c0.59-0.47,1.81-1.59,2.57-1.56    c0.43-0.69,1.17-2.15,1.92-2.44c0.73-1.31,1.46-2.63,2.19-3.94c0.37-0.95,0.75-1.91,1.12-2.86c0.41-4.33,1.44-8.69,2.67-12.89    c0.25-0.78,0.5-1.55,0.75-2.33c0.36-0.8,0.72-1.6,1.08-2.4l0.38,0.53c0.08,0.16,0.16,0.33,0.24,0.49    c2.56,4.96,7.8,10.27,13.17,11.94c0.99,0.22,1.99,0.44,2.98,0.65c1.34,0.17,2.67,0.35,4.01,0.52c2.42,0.27,4.98,0.47,7.33,1.22    c0.59,0.32,1.17,0.64,1.76,0.95c2.85,1.17,5.79,2.61,8.88,3.06c3.1,0.45,6.09,0.05,9.07,1.22c2.44,1.57,4.88,3.14,7.33,4.71    c1.23,1.58,2.69,3.16,4.3,4.36c2.88,2.15,5.47,2.72,8.95,3.1c0.51,0.06,2.34,0.54,2.62,0.39c1.04,0.81,2.72,2.13,2.92,3.32    c0.54,3.53-1.17,6.19-2.78,9.26c-1.9,3.63-3.23,6.58-2.79,10.77c0.13,1.25,1.16,2.73,1.78,3.68c2.1,3.23,3.45,7.2,6.5,9.7    c1.62,1.33,3.33,2.35,4.67,3.9c0.41,0.29,0.81,0.58,1.22,0.87c0.53,0.72,0.87,1.27,1.1,2.13c0.69,2.65-0.64,6.08-1.66,8.49    c-0.26,0.69-0.52,1.37-0.78,2.06c-0.15,0.18-0.53,0.1-0.57-0.12c-1.36-0.57-2.78-0.48-4.17-1.12c-1.19-0.7-2.38-1.4-3.56-2.1    c-3.42-1.27-6.22,0.91-8.83,2.87c-2.16,0.13-4.07,1.82-5.96,2.73c-3.18,1.53-7.78,2.66-10.26,4.95c-1.04,0.59-2.09,1.19-3.13,1.78    c-0.68,0.54-3.14,2.37-3.32,3.1c-0.55,0.51-1.17,0.96-1.57,1.57c-0.44,0.66-1.53,0.81-1.74,1.57c-1.77,0.06-3.44,0.43-5.22,0.27    c-0.7-0.23-1.4-0.45-2.09-0.68c-1.97-0.58-4.04-1.22-5.77-2.39c-1.3-1.14-2.61-2.27-3.91-3.41c-1.52-1.14-3.7-1.13-5.06-2.31    c-1.71-1.48-3.53-3.12-4.63-5.1c-0.4-0.72-1.5-1.09-1.57-1.92c-1.07-1.02-2.14-2.05-3.21-3.07c-0.46-0.5-0.86-1.25-1.5-1.46    c-0.23-0.41-0.46-0.81-0.7-1.22c-1.59-1.32-3.17-2.63-4.76-3.95c-3.4-2.58-7.91-3.87-11.99-5c-1.51-0.27-3.02-0.54-4.53-0.82    c-0.16-0.37-1.33-1.1-1.68-1.07c-0.73-0.24-0.77-0.67-1.55-1.21c-0.32,0.24-0.27,0.17-0.36-0.17c-0.2-1.23-0.4-2.47-0.6-3.7    c-0.15-0.43-0.32-1.07-0.4-1.11c-1.31-0.69-2.62-1.38-3.92-2.07c-0.38-0.3-0.91-0.59-0.98-0.97c-0.21-0.87-0.41-1.73-0.62-2.6    c0.12-1.05,0.23-2.09,0.35-3.14c0.23-0.76,0.46-1.51,0.7-2.27c0.07-0.69,0.13-1.37,0.2-2.06c0.33-0.46,0.35-2.24,0.15-2.82    c-0.63-1.82-2.29-3.76-3.78-4.94c-0.21-0.16-1.65-1.06-1.39-1.42L332.62,144.8z"/>
            <circle cx="359.72" cy="150.43" r="1.586"/>
        </g>
        <g id="__Bayramören">
            <path d="    M201.02,97.47c-0.88-0.55-3.47-1.11-3.92-1.85c-0.69,0.02-1.39,0.04-2.08,0.05c-1.27,0.23-2.24,0.9-3.31,1.58    c-0.37,0.24-0.89,0.39-1.06,0.81c-0.74,0.09-1.56,0.29-1.77-0.34c-0.47-1.4,0.68-4.34-0.72-4.9c-0.5-0.21-1.25-0.4-1.7-0.17    c-1.44-0.84-2.89-1.67-4.33-2.51c-0.82-0.15-1.65-0.3-2.47-0.45c-1.1,0-2.21,0-3.31,0l-0.64,0.02l0.21-0.01l-0.21,0.01    c-1.32-1.81,0.18-3.98-0.65-5.96c-0.43-1.04-1.4-1.3-2.02-2.26c-0.37-0.56-0.52-1.79-0.52-2.44c0.47-0.29,0.93-0.58,1.4-0.87    c0.25-0.87,0.96-2.64,0.35-3.49c0-0.81,0-1.63,0-2.44c-0.13-1,0.07-2.39-0.75-3.02l0.05-0.12c0.23-0.7,0.47-1.4,0.7-2.09    c-0.28-0.28-0.52-1.2-0.35-1.57c-0.63-1.1-1.26-2.21-1.9-3.31c0.39-2.74,3.54-4.03,5.73-5.58c0.7-0.76,1.4-1.51,2.09-2.27    c0.34-1.56,0.24-4.09,1.84-4.57c0.14-0.1,0.29-0.21,0.43-0.31c0.75,0.42,1.4,0.87,2.28,0.93c1.57,0.1,3-0.34,4.53-0.58    c1.39-0.53,2.78-1.05,4.17-1.58c1.51-0.64,3.03-1.27,4.54-1.91c0.71-0.19,1.41-0.39,2.12-0.58c1.86-0.92,3.99-1.6,6.08-1.57    c1.19,0.02,2.77,0.2,3.84,0.76c0.46,0.35,0.93,0.7,1.4,1.05c1.99,1.23,3.99,2.45,5.98,3.68c1.66,0.65,3.31,1.31,4.97,1.96    c1.11,0.45,2.03,1.23,3.18,1.66c1.51,0.47,3.02,0.95,4.53,1.42c0.64,0.33,1.27,0.67,1.91,1c3.23,1.25,5.89,3.45,7.51,6.5    c0.56,0.79,1.11,1.58,1.67,2.37l0.6,1.12c-0.14,0.55-0.77,1.18-0.74,1.73c0.08,1.55-0.41,3.02-0.65,4.55    c-0.49,0.3-0.5,0.82-0.83,1.27c-0.75,1.04-1.64,1.89-2.29,2.99c-0.91,1.38,0.23,3.27,1.03,4.46c0,3.81,3.33,6.72,0.25,10.21    c-0.64,0.26-1.27,0.52-1.91,0.78c-1.83,0.31-3.66,0.61-5.48,0.92c-0.47,0.16-0.94,0.32-1.41,0.48c-2.44,0.47-4.88,0.93-7.33,1.4    c-0.7,0.09-1.4,0.17-2.1,0.26c-3.31,0.72-6.62,1.45-9.93,2.17c-1.92,0.52-3.84,1.05-5.76,1.58c-0.53,0.16-1.66,0.62-2.1,0.17    L201.02,97.47z"/>
            <circle cx="212.75" cy="89.02" r="1.586"/>
        </g>
    </g>
</svg>