<?xml version="1.0" encoding="UTF-8"?>
<!DOCTYPE svg PUBLIC "-//W3C//DTD SVG 1.1//EN" "http://www.w3.org/Graphics/SVG/1.1/DTD/svg11.dtd">
<svg version="1.1" id="HaritaCizim" xmlns="http://www.w3.org/2000/svg" xmlns:xlink="http://www.w3.org/1999/xlink" x="0px" y="0px" viewBox="0 0 510 460" preserveAspectRatio="none">
    <defs id="__def">
        <radialGradient id="f">
            <stop offset="0" stop-color="white" stop-opacity="1"/>
            <stop id="STOP1" offset=".4" stop-opacity="1"/>
            <stop offset="1" stop-color="white" stop-opacity=".2"/>
        </radialGradient>
        <filter id="__flt1" x="0" y="0" width="200%" height="200%" filterUnits="objectBoundingBox">
            <feGaussianBlur in="SourceAlpha" stdDeviation="3" result="blur1"/>
            <feSpecularLighting result="specOut" in="blur1" specularConstant="1.5" specularExponent="20" lighting-color="#bbbbbb">
                <feDistantLight azimuth="45" elevation="30"/>
            </feSpecularLighting>
            <feComposite in="specOut" in2="SourceAlpha" operator="in" result="specOut"/>
            <feComposite in="SourceGraphic" in2="specOut" operator="arithmetic" k1="0" k2="1" k3="1" k4="0"/>
        </filter>
        <filter id="__flt2" x="0" y="0" width="200%" height="200%" filterUnits="objectBoundingBox">
            <feGaussianBlur in="SourceAlpha" stdDeviation="3" result="blur1"/>
            <feSpecularLighting result="specOut" in="blur1" specularExponent="20" lighting-color="#bbbbbb">
                <fePointLight x="-2000" y="100" z="2000"/>
            </feSpecularLighting>
            <feComposite in="specOut" in2="SourceAlpha" operator="in" result="specOut"/>
            <feComposite in="SourceGraphic" in2="specOut" operator="arithmetic" k1="0" k2="1" k3="1" k4="0"/>
        </filter>
        <filter id="__flt3" x0="-50%" y0="-50%" width="200%" height="200%" filterUnits="objectBoundingBox">
            <feGaussianBlur in="SourceAlpha" stdDeviation="3" result="blur"/>
            <feOffset in="blur" dx="0" dy="0" result="offsetBlur"/>
            <feSpecularLighting in="blur" surfaceScale="4" specularConstant=".5" specularExponent="20" lighting-color="flavor" result="specOut">
                <fePointLight x="-5000" y="-10000" z="5000"/>
            </feSpecularLighting>
            <feComposite in="specOut" in2="SourceAlpha" operator="in" result="specOut"/>
            <feComposite in="SourceGraphic" in2="specOut" operator="arithmetic" k1="0" k2="1" k3="1" k4="0" result="litPaint"/>
            <feMerge>
                <feMergeNode in="offsetBlur"/>
                <feMergeNode in="litPaint"/>
            </feMerge>
        </filter>
        <filter id="__flt4" x0="-50%" y0="-50%" width="200%" height="200%">
            <feGaussianBlur in="SourceAlpha" stdDeviation="2" result="blur"/>
            <feOffset dy="-1" dx="-1"/>
            <feComposite in2="SourceAlpha" operator="arithmetic" k2="-1" k3="1" result="hlDiff"/>
            <feFlood flood-color="white" flood-opacity=".7"/>
            <feComposite in2="hlDiff" operator="in"/>
            <feComposite in2="SourceGraphic" operator="over" result="withGlow"/>
            <feOffset in="blur" dy="3" dx="3"/>
            <feComposite in2="SourceAlpha" operator="arithmetic" k2="-1" k3="1" result="shadowDiff"/>
            <feFlood flood-color="black" flood-opacity="1"/>
            <feComposite in2="shadowDiff" operator="in"/>
            <feComposite in2="withGlow" operator="over"/>
        </filter>
        <filter id="__golge1" x="0" y="0" width="200%" height="200%" filterUnits="userSpaceOnUse">
            <feOffset result="offOut" in="SourceAlpha" dx="8" dy="8"/>
            <feGaussianBlur result="blurOut" in="offOut" stdDeviation="3"/>
            <feBlend in="SourceGraphic" in2="blurOut" mode="normal"/>
        </filter>
    </defs>
    <g id="__Komsular" display="none">
        <radialGradient id="SVGID_1_" cx="293.9153" cy="258.2075" r="313.5849" gradientTransform="matrix(1.009 0 0 1 -8.4221 0)" gradientUnits="userSpaceOnUse">
            <stop offset="0" style="stop-color:#233E92"/>
            <stop offset="0.2746" style="stop-color:#3D59A2;stop-opacity:0.7254"/>
            <stop offset="0.8961" style="stop-color:#7DA5D6;stop-opacity:0.1039"/>
            <stop offset="1" style="stop-color:#89B6E1;stop-opacity:0"/>
        </radialGradient>
        <radialGradient id="SVGID_2_" cx="255.3369" cy="233.0645" r="226.7648" gradientTransform="matrix(1.009 0 0 1 -8.4221 0)" gradientUnits="userSpaceOnUse">
            <stop offset="0" style="stop-color:#233E92"/>
            <stop offset="6.544590e-003" style="stop-color:#243F93;stop-opacity:0.9935"/>
            <stop offset="0.1988" style="stop-color:#425FA6;stop-opacity:0.8012"/>
            <stop offset="0.3859" style="stop-color:#5B79B8;stop-opacity:0.6141"/>
            <stop offset="0.5637" style="stop-color:#6F91C8;stop-opacity:0.4363"/>
            <stop offset="0.7299" style="stop-color:#7DA5D6;stop-opacity:0.2701"/>
            <stop offset="0.88" style="stop-color:#86B1DE;stop-opacity:0.12"/>
            <stop offset="1" style="stop-color:#89B6E1;stop-opacity:0"/>
        </radialGradient>
        <polyline fill-rule="evenodd" clip-rule="evenodd" fill="url(#SVGID_1_)" stroke="url(#SVGID_2_)" stroke-miterlimit="10" points="   498.43,29.12 498.43,436.51 0,436.51 0,29.12  "/>
        <path fill-rule="evenodd" clip-rule="evenodd" fill="#FDFDFE" stroke="#000000" stroke-width="0.25" stroke-miterlimit="10" d="   M112.14,27.32c-0.94,3.64-0.45,10.26,0.82,14.14c1.16,3.54,3.44,5.6,4.88,8.77c3.11,6.83-1.5,17.43,5.15,21.6   c0.21,2.72,2.32,6.47,3.58,8.64c6.04,2.24,12.36,3.51,18.99,2.54c3.02-0.44,6.16-1.68,9.25-1.98c3.89-0.38,5.51,0.94,8.76,1.5   c6.27,1.08,14.27,0.16,20.05-1.53c4.71-1.38,12.88-8.12,16.2-1.04c1.73,0.09,4.41,0.56,5.92-0.26c1.19-0.65,1.36-3.16,2.9-3.94   c2.52-1.29,8.26-0.03,10.55,0.95c3.7,4.11,9.14,6.93,13.76,3.35c4.25-3.3,12.43-6.6,14.24-11.17c11.83-0.19,23.31-2.84,35-3.56   c-0.21-2.33,1.11-3.83,3.49-3.34L285.23,62c0-0.94,0.15-2.31,0.15-3.26c-0.8,0.27-2.07,0.84-3.09,0.98   c-0.41,0.06-0.81,0.42-1.19,0.21c-0.92,0.56-1.71,0.38-2.23,0.44c0.03-0.2,0.72-1.7,0.75-1.9c0.26-0.86,0.6-2.02,0.88-2.66   c0.11-0.38,0.16-0.53,0.33-0.81c0.15-0.52,0.3-0.88,0.45-1.4c0.05-0.53,0.65-1.99,0.85-2.18c-0.22,0.22,1.09-1.33,1.14-1.63   c0.06-0.07,2.11-2.94,2.7-3.78c0.29-0.64,0.59-0.95,0.88-1.59c-0.28-0.98-0.95-3.83-1.09-4.68c-0.08-0.48,0-0.23-0.21-0.69   c0.07-0.04,0.46-0.57,0.52-0.61c1.63-0.71,3.25-1.42,4.88-2.14c2.98-0.71,6.21-0.39,9.25-0.67c2.36-0.22,4.77-0.87,7.16-0.65   c1.19-0.05,2.39-0.11,3.58-0.16c0.87-0.23,2.32-0.59,3.09,0c2.55-0.05,5.1-0.11,7.65-0.16c3.19-0.5,6.64-0.05,9.77,0.65   c1.52,0.27,3.04,0.54,4.56,0.81c1.52,1.14,3.04,2.28,4.56,3.42c0.73,0.57,0.94,1.58,1.42,2.3c0.56,0.87,1.12,1.74,1.68,2.6   c0.81,1.77,1.18,3.88,1.45,5.84c0.17,1.25-0.17,2.28-0.65,3.42c-0.22,0.6-0.43,1.19-0.65,1.79c-0.54,1.52-1.09,3.04-1.63,4.56   c-0.66,1.02-1.33,2.04-1.99,3.06c-0.15,0.44-0.3,0.89-0.45,1.33c-1.05,1.17-2.08,2.25-2.9,3.6c-2.48,4.08-4.63,8.41-6.44,12.82   c-0.84,2.05-1.59,5.13-2.89,6.82c0.05,0.9-1.16,3.68-1.61,4.6c-0.27,1.36-0.54,2.71-0.81,4.07l-0.82,0.79l9.75-3.05   c3.24-1.31,6-0.54,9.22,0.05c1.42-4.95,1.87-10.65,8.29-11.73c3.27-4.91,16.26-5.63,21.56-7.25c6.72-2.07,13.61-6.69,19.65-10.62   c11.43-7.44,24.65-15.32,28.23-29.39c0.36-1.42,1.64-6.18,1.52-7.81"/>
        <path fill-rule="evenodd" clip-rule="evenodd" fill="#FDFDFE" stroke="#000000" stroke-width="0.25" stroke-miterlimit="10" d="   M291.69,35.77"/>
        <path fill-rule="evenodd" clip-rule="evenodd" fill="#FDFDFE" stroke="#000000" stroke-width="0.25" stroke-miterlimit="10" d="   M499.01,171.77c-0.82-0.62-3.54-4.43-4.4-5.01c-1.82-1.24-4.98-2.06-7.17-1.65c-3.55,0.66-5.41,2.1-8.36,3.91   c-1.66,1.02-3.15,2.04-4.99,2.71c-1.82,0.66-3.67,1.41-5.64,1.09c0,0-0.29-0.58-0.22,0.38c0.01,0.26,0.34,0.19,0.16,0.4   c-0.26,0.21-0.53,0.43-0.79,0.64c-0.9,1.38-1.8,2.76-2.71,4.15c-0.33,0.65-0.65,1.3-0.98,1.95c-0.5,3.31-1.39,6.68-2.93,9.6   c-0.54,1.03-2.38,1.81-3.33,2.43c-0.79,0.82-1.58,1.64-2.37,2.46c-0.65,0.2-1.01,0.26-1.54,0.74c-1.55,1.87-3.1,3.74-4.64,5.61   c-2.12,1.57-4.23,3.15-6.35,4.72c-0.92,1.3-1.84,2.6-2.77,3.91c-0.86,1.63-1.73,3.26-2.59,4.89c-0.71,1.63-1.42,3.25-2.13,4.88   c-0.26,1.36-0.53,2.71-0.79,4.07c0.07,1.64,0.14,3.29,0.21,4.93l-0.4,0.34c0.36-0.13,0.84,1.3,0.97,1.73   c0.11,0.37,0.38,0.7,0.22,1.05c1.01,1.33,2.02,2.66,3.04,3.99c0.53,0.39,1.05,0.77,1.58,1.16c1.23,1,2.46,2,3.69,3   c0.52,0.69,1.04,1.39,1.56,2.09c1.11,1.36,2.83,2.03,3.93,3.38c1.05,1.28,2.53,5.33,2.24,7c0.28,0.86,0.56,1.73,0.84,2.59   c-0.05,0.2-0.1,0.4-0.16,0.61c0.05,0.94,0.1,1.88,0.16,2.81c-0.07,0.11-0.14,0.22-0.21,0.34c-0.09,0.32-0.19,0.64-0.28,0.97   c-0.69,0.52-1.39,1.03-2.08,1.55c-1.42,1.56-3.26,3.06-3.33,5.29c0,1.1,0.76,2.46,1.45,3.31c0.58,0.72,2.7,1.19,3.62,1.5   c1.52,0.67,3.05,1.35,4.57,2.02c0.66-0.24,2.56,0.66,3.25,0.98c0.69,0.51,1.39,1.01,2.08,1.52c0.85,0.87,1.71,1.75,2.56,2.62   c1.86,2.14,2.57,4.69,3.66,7.25c0.16,1.14,0.33,2.28,0.49,3.42c-0.19,0.91-0.38,1.83-0.57,2.74c-0.5,1.35-1,2.71-1.5,4.06   c-0.69,1.42-1.91,3.04-3.15,3.98c-0.57,0.44-0.92,1.29-1.61,1.54c-1.51,2.41-3.04,4.45-3.82,7.23c-0.79,2.77-0.81,5.79-1.29,8.62   c-0.13,1.36-0.25,2.72-0.38,4.08c-0.07,0.91-0.13,1.83-0.2,2.74c-0.51,2.48-1.68,5.03-2.77,7.32c-0.52,0.3-1.15,1.24-1.46,1.79   c-1.08,0.65-1.7,2.3-2.28,3.42c-0.33,0.33-0.65,0.65-0.98,0.98c-0.95,0.52-1.89,1.05-2.84,1.57c-1.01,0.4-2.01,0.8-3.02,1.2   c-1.74,0.92-3.47,1.84-5.21,2.77c-0.23,0.57-1.14,0.95-1.63,1.31c-1.3,0.94-2.71,1.59-4.19,2.22c-0.64,0.38-1.29,0.75-1.93,1.13   c-0.57,0.72-1.14,1.44-1.71,2.17c-0.74,0.85-1.25,2.21-1.61,3.27c-0.22,0.33-0.43,0.65-0.65,0.98c-1.08,1.18-2.16,2.36-3.24,3.53   c-0.93,0.99-1.85,1.98-2.78,2.98c-1.1,0.47-2.11,1.22-3.09,1.95c-1.63,0.27-3.26,0.54-4.88,0.81c-0.87,0-1.74,0-2.6,0   c-0.63-0.36-1.76-0.28-2.44-0.16c-0.65,0-1.3,0-1.95,0c-0.54-0.05-1.08-0.11-1.63-0.16c-0.43-0.53-2.1-0.31-2.71-0.03   c-0.02-0.15-0.04-0.31-0.06-0.46c-0.16-0.02-0.33-0.03-0.49-0.05c-1.83-0.2-3.67-0.4-5.5-0.6c-0.72-0.22-1.43-0.44-2.15-0.66   c-0.9,0-3-0.74-3.74-1.3c-1.55-1.17-2.91-2.5-4.39-3.74c-0.43-0.36-1.6-1.48-1.7-1.98c-0.51-0.4-1.52-1.39-1.61-1.99   c-1.56-1.44-3.11-2.89-4.67-4.33c-1.14-0.87-2.27-1.73-3.41-2.6c-0.87-0.33-1.74-0.65-2.6-0.98c-0.6-0.22-1.19-0.43-1.79-0.65   c-1.25-0.15-2.47-0.45-3.76-0.47c-0.37-0.06-0.75-0.12-1.12-0.18c-2.12,0-4.23,0-6.35,0c-0.82,0-1.63,0-2.45,0   c-1.52-0.02-3.07,0.08-4.55-0.33c-1.9-0.6-3.8-1.19-5.7-1.79c-1.31-0.22-2.61-0.43-3.92-0.65c-1.51-0.49-3.03-0.98-4.54-1.46   c-0.38,0.17-0.75-0.06-1.14-0.16c-1.58,0.15-3.15,0.31-4.73,0.46l-0.4-0.11c-1.19,0.33-1.91,0.46-2.5,0.58   c-1.59,0.21-3.17,0.41-4.76,0.62c-1.68,0.23-3.4,0.52-5.03,1.05c-1.2,0.17-2.39,0.34-3.59,0.51c-1.41,0.21-2.83,0.42-4.24,0.63   c-1.37,0.41-2.73,0.82-4.1,1.24c-4.35,1.45-8.51,3.33-12.87,4.82c-1.07,0.26-2.13,0.52-3.2,0.77c-1.36,0.54-2.71,1.09-4.07,1.63   c-0.43,0.11-0.87,0.22-1.3,0.33c-1.3,0.57-2.59,1.14-3.89,1.71c-1.76,0.78-3.56,1.2-5.2,2.26c-2.12,1.82-4.25,3.65-6.37,5.47   c-0.81,1.19-1.63,2.39-2.44,3.58c-0.22,0.7-0.45,1.41-0.67,2.11c-0.5,1.72-1.04,3.46-1.25,5.22c-0.06,0.64-0.06,0.64,0,0   c0.21-1.76-0.37,0.35-0.37,0.35c0.42,0.89-0.12,1.76-0.34,2.59c-0.43,1.79-0.85,3.57-1.28,5.36c-0.17,1.79-0.34,3.57-0.5,5.36   c0.04,0.19,0.09,0.38,0.13,0.57c-0.15,1.82-0.29,3.64-0.44,5.46c-0.11,1.41-0.22,2.82-0.33,4.23c0.46,0.58,0.09,1.75,0.02,2.45   c-0.01,1.57-0.01,3.14-0.02,4.71c0,0.25,0.21,1.6,0.15,1.29c0.49-0.34,0.49-0.75,1.09-0.97c0.43-0.16,1.14-0.02,1.6-0.02   c1.12,0,2.01,0.39,3.04,0.43c2.01,0.08,4.53-0.49,6.3-1.31c1.31-0.61,2.67-1.22,4.04-1.81c1.51-0.66,3.8-0.44,5.27,0.11   c1.81,0.67,2.31,0.51,4.01-0.49c1.67-0.98,3.04-1.24,5.1-1.04c1.72,0.17,3.19,1.15,4.8,1.28c1.06,0.08,1.72-0.56,2.71-0.54   c0.75,0.01,1.67,0.5,2.28,0.95c0.67,0.5,0.73,1.25,1.33,1.74c1.04,0.85,1.26-0.45,2.12-0.95c0.64-0.37,1.53-1.18,2.3-1.41   c1.06-0.32,1.86,0.86,2.8,0.63c0.41-0.64,0.6-1.6,0.86-2.28c0.3-0.78,0.58-1.66,0.87-2.5c0.95-2.75,2.42-0.47,4.45-0.87   c1.84-0.36,3.77-0.16,5.67,0.22c1.76,0.35,3.11,0.4,4.47,1.51c1.19,0.97,2.5,2.46,3.23,3.72c0.46,0.78,0.7,1.42,0.87,2.28   c0.16,0.81,0.53,1.7,0.33,2.61c-0.4,1.78-2.69,1.8-3.24,3.28c-0.39,1.07,0.54,1.55,0.74,2.36c0.16,0.66-0.35,1.69-0.44,2.5   c-0.18,1.73-1.25,2.62-1.41,4.34c-0.04,0.46-0.01,0.93-0.32,1.3c-0.27,0.32-0.8,0.09-0.98,0.53c-0.25,0.62,0.89,1.42,0.54,2.39   c-0.19,0.52-0.6,0.63-0.57,1.2c0.01,0.16,0.55,0.46,0.57,0.97c0.07,1.2-1.03,1.17-1.96,1.41c-1.49,0.39-3.07,1.16-4.66,1.42   c-1.68,0.27-3.16,1.01-4.89,1.08c-0.87,0.04-1.85,0.1-2.71,0c-0.95-0.11-1.84-1.03-2.82-0.87c0.04,0.56-0.02,2.04-0.33,2.5   c-0.3,0.44-0.67,0.17-0.87,0.87c-0.13,0.43-0.01,1.31-0.11,1.74c-0.26,1.15-0.47,0.73,0.25,1.95c0.5,0.85,1.24,2.69,1.24,3.72   l158.64-58.04L499.01,171.77z"/>
        <polygon fill-rule="evenodd" clip-rule="evenodd" fill="#FDFDFE" points="307.72,438.92 500,436.94 499.01,169.79 423.65,358.13     "/>
        <text transform="matrix(1 0 0 1 203.1682 46.3413)" font-family="'MyriadPro-Regular'" font-size="9.7657">Edirne</text>
        <text transform="matrix(1 0 0 1 353.0859 45.853)" font-family="'MyriadPro-Regular'" font-size="9.7657">Tekirdağ</text>
        <text transform="matrix(1 0 0 1 429.2659 377.9185)" font-family="'MyriadPro-Regular'" font-size="9.7657">Balıkesir</text>
        <path fill-rule="evenodd" clip-rule="evenodd" fill="none" stroke="#000000" stroke-width="0.25" stroke-miterlimit="10" d="   M309.37,25c-0.31,3.01,0.4,6.38,0.99,9.23"/>
    </g>
    <g id="__Harita" fill="white" stroke="#000000" stroke-width="0.25" stroke-miterlimit="10" display="none">
        <rect id="__cer" x="0" y="0" fill="#000000" opacity="0" width="510" height="460"/>
        <g id="__Eceabat">
            <path d="   M221.47,179.84c-0.15-0.84-2.57-2.86-3.32-3.59c-2.04-1.98-3.52-4.35-5.37-6.51c-0.62,0-2.7-1.18-3.09-1.63   c-1.52-1.46-3.04-2.93-4.56-4.39c-0.49-0.87-0.98-1.74-1.46-2.6c-0.87-0.92-1.74-1.84-2.6-2.77c-0.22-0.33-0.43-0.65-0.65-0.98   c-1.69-1.73-3.37-3.47-5.06-5.2c-0.54-0.87-1.07-1.74-1.61-2.61c-0.87-0.92-1.74-1.85-2.61-2.77c-0.07-0.08-1.72,0.56-2.11,0.68   c-1.82,0.54-3.82,2.41-4.88,4.04c0.11,0.51-0.27,0.98-0.53,1.42c-0.25,0.43-1.56,0.56-2.08,0.54c-0.05,0-0.11,0-0.16,0   c0.01-0.64-0.75-1.18-1.21-1.55c-0.35-0.3-1.39,0.32-1.75,0.5c-1.81,0.9-2.78,2.63-3.72,4.3c-0.98,0.43-1.95,0.87-2.93,1.3   c-0.59-0.38-1.96,0.28-2.6,0.49c-0.32-0.21-1.07-0.1-1.45,0.04c-0.84,0.3-1.6,0.87-2.13,1.59c-0.84,0.68-1.68,1.35-2.52,2.03   c-0.56,0.48-1.05,0.61-1.71,0.9c-0.42,0.45-0.85,0.9-1.27,1.35c-0.94,0.94-3.01,1.61-3.23,2.9c-0.02,0.16-0.03,0.31-0.05,0.47   c1.42-0.14,3.3-0.4,4.56,0.65c0.49,0.54,0.98,1.08,1.46,1.63c0.14,0.55,0.28,1.1,0.42,1.65c-0.14,0.39-0.28,0.77-0.43,1.15   c-0.22,0.26-0.43,0.52-0.65,0.77c0.06,0.4-0.14,0.63-0.33,0.98c-0.39,0.08-0.4,0.28-0.6,0.6c-0.5,0.81-1.56,0.81-2.42,0.86   c0,0,0.21,0.15,0.57,0.65c0.81,0.49,1.63,0.98,2.44,1.46c1.36,1.03,2.71,2.06,4.07,3.09c0.95,1.02,1.91,2.04,2.86,3.06   c0.2,0.28,0.39,0.55,0.59,0.83c0.82,1.16,1.32,2.38,2.02,3.63c-0.04,0.7-0.07,1.39-0.11,2.09c-0.81,0.52-1.14,2.22-1.3,3.09   c0.45,0.97,0.53,2.3,0.81,3.42c-0.22,0.82-0.43,1.63-0.65,2.45c-0.51,0.67-1.02,1.34-1.53,2.01c-0.13,0.64-0.01,1.72,0.37,2.25   c-0.05,0.77-0.06,1.34-0.31,2.08c-0.79,0.29-1.14,1.66-1.6,2.36c-0.17,0.24-0.35,0.49-0.52,0.73c0.15,0.3-0.03,0.52-0.16,0.81   c-0.71,0.92-1.41,1.84-2.12,2.77c0.53,0.65-0.64,1.96-0.98,2.6c-0.33,0.33-0.65,0.65-0.98,0.98c-1.36,0.47-1.78,2.26-2.28,3.42   c-1,2.38-2,4.75-3.01,7.13c-0.68,1.04-1.36,2.09-2.04,3.13c0.38,0.83-0.21,2.55-0.49,3.42c-0.49,0.81-0.98,1.63-1.46,2.44   c-0.66,0.32-1.11,1.32-1.56,1.89c-0.57,0.62-1.13,1.23-1.7,1.85c-0.38,0.6-0.76,1.19-1.14,1.79c0,0.78-0.43,1.38-0.72,2.09   c-0.28,0.7-0.76,2.05-1.43,2.41c-0.42,0.72-0.84,1.45-1.27,2.17c-0.39,0.38-0.78,0.76-1.17,1.14c-0.38,0.45,0.74,1.99,1.03,2.49   c0.15,0.34,0.72,0.31,1.11,0.43c0.43,0.55,1.15,0.55,1.79,0.49c0.26,0.37,0.86,0.38,1.3,0.49c0.26-0.54,1.98-1.06,2.6-1.14   c0-0.54,0-1.08,0-1.63c0.74-0.54,1.48-0.93,2.42-0.74c0.55,0.46,1.1,0.93,1.65,1.39c0.41,0.07,0.63-0.1,1-0.26   c1.79-0.81,1.8-1.51,2.58-3.15c0.86-0.21,1.73-0.42,2.59-0.63c1-0.91,1.99-1.81,2.99-2.72c1.02-0.46,2.03-0.91,3.05-1.37   c0.49-0.67,1.24-0.82,1.95-1.14c0.28-0.76,2.64-1.34,3.42-1.46c1.31-0.83,2.62-1.66,3.93-2.5c0.7-0.79,0.83-1.38,1.11-2.39   c0.46-0.15,0.63-0.63,0.98-0.98c1.13-0.02,2.29-0.89,3.08-1.65c1.72-1.65,3.24-3.55,4.25-5.68c0.47,0.05,1.86-1.64,2.34-2.04   c0.48-0.23,0.96-0.45,1.44-0.68c0.8-0.51,1.6-1.01,2.4-1.52c0.63-1.09,1.25-2.19,1.88-3.28c0.03-0.05,0.05-0.09,0.08-0.14   c-0.4-0.27-0.68-0.65-0.81-1.14c-0.11-0.54-0.22-1.08-0.33-1.63c-0.41-0.86-0.66-1.7-0.98-2.6c-0.65-0.92-1.3-1.84-1.95-2.77   c-0.36,0.12-0.62-0.06-0.98-0.16c-0.02-0.8-0.03-0.62,0.49-1.14c-0.3-0.87-0.61-1.74-0.91-2.61c-0.15-0.47-0.08-1.6,0.26-1.95   c-0.25-0.5-0.5-0.99-0.75-1.49c-0.12-0.24,0.43-0.74,0.6-0.94c0.16-0.17,0.31-0.34,0.47-0.5c0.28,0.46,0.34,0.31,0.81,0.33   c0.22,0.14,0.44,0.28,0.66,0.42c0.05,0.02,0.1,0.04,0.15,0.07c0.03-0.12,0.06-0.24,0.1-0.36c0.48-0.08,0.34-0.85,0.39-1.43   c1.03-0.07,2.05-0.13,3.08-0.2c0.82-0.64,1.63-1.28,2.45-1.92c0.34,0.23,0.44,0.11,0.81,0c0.51,0.25,2.02,0.01,2.6-0.16   c0.38-0.32,0.76-0.65,1.14-0.98c0.39-0.04,0.78-0.08,1.16-0.13c1.04-0.3,1.56-1.51,1.93-2.48c0.22,0.05,0.43,0.11,0.65,0.16   c0.05-0.38,0.11-0.76,0.16-1.14c1.27-0.3,3.32-0.6,4.39-1.3c0.61-0.4,1.48-1.13,1.79-1.79c1.35,0.07,3.57-3,4.56-4.07   c0.94-0.17,1.64-1.24,2.19-1.93c0.36-0.33,0.71-0.67,1.07-1c0.43-0.76,0.87-1.52,1.3-2.28   C221.54,181.57,221.5,180.71,221.47,179.84z M166.89,176.25c-0.17,0.35-0.07,0.38-0.49,0.16c-0.71,0.31-1.25,0.03-1.95-0.15   c-0.04-0.2-0.2-0.44-0.45-0.44c0.06-0.08,0.12-0.16,0.17-0.24c0-0.21,0-0.41-0.01-0.62c-0.05-0.6-0.14-1.06-0.37-1.62   c0.06-0.27,0.11-0.54,0.17-0.81c-0.02-0.5,1.34,0.07,1.62,0.16c0.08-0.55,1.04-0.57,1.51-0.72   C168.61,172.54,167.54,175.06,166.89,176.25z"/>
            <circle cx="189.59" cy="211.33" r="1.586"/>
        </g>
        <g id="__Gelibolu">
            <path d="   M191.13,146.8c0.87,0.92,1.74,1.84,2.61,2.77c0.54,0.87,1.07,1.74,1.61,2.61c1.69,1.73,3.37,3.47,5.06,5.2   c0.22,0.33,0.43,0.65,0.65,0.98c0.87,0.92,1.74,1.84,2.6,2.77c0.49,0.87,0.98,1.74,1.46,2.6c1.52,1.46,3.04,2.93,4.56,4.39   c0.39,0.45,2.48,1.63,3.09,1.63c1.84,2.16,3.32,4.53,5.37,6.51c0.75,0.72,3.16,2.74,3.32,3.59l0.24,0.02c1.84-0.76,3-2.27,4.1-3.28   c0.33-0.16,0.65-0.33,0.98-0.49c0.37,0.24,0.67-0.47,1.11-0.57c0.63-0.17,1.02-0.27,1.17-0.9c0.71-0.11,1.41-0.22,2.12-0.33   c0.87,0,0.95-0.85,1.82-0.84c0.5-0.05,1.34-0.04,1.41-0.43c0.49,0.01,0.39-0.37,0.68-0.68c0.33,0.64,0.62-0.1,1-0.41   c1.04-0.84,1.13-0.97,1.6-2.19c0.39,0.25,0.43,0.11,0.83,0.01c1.33-0.34,1.62-1.4,2.1-2.61c0.33-0.07,0.66-0.14,1-0.2   c0.36,0.04,0.73,0.07,1.09,0.11c1.02,0.08,1.69-0.82,2.38-1.46c0.21-0.18,0.1-0.07-0.21-0.42c0.27-0.71,0.53-1.42,0.8-2.13   c1.46-1.13,2.93-2.26,4.39-3.39c0.33-0.38,0.65-0.76,0.98-1.14c0.26-0.88,1.76-3.02,2.5-3.59c0.25-0.54,0.51-1.08,0.76-1.62   c0-0.27,0-0.54,0-0.81c-0.88-0.88-1.18-4.38-0.85-5.61c0.37-0.57,0.75-1.15,1.12-1.72c0.1-0.28,0.82-0.12,1.1-0.3   c0.34-1.15,0.67-2.3,1.01-3.45c0.16-0.84,1.4-0.66,2.01-0.96c0.83-0.41,1.49-0.75,2.44-0.81c0.51,0.51,2.29,0.97,3.1,1.07   c0.69,0.11,0.96-0.32,1.45-0.76c0.17-0.15,0.75-0.99,0.82-1.29c-0.33-0.25-0.68-0.32-0.81-0.98c0.01-0.33-0.15-0.31,0.16-0.81   c0.35,0.17,0.11-0.55,0.49-0.65c1.41-0.18,2.05-0.26,2.68-0.19c0.41-0.1,0.82-0.2,1.23-0.29c-0.28-1.24-0.57-2.49-0.85-3.73   c-0.1-0.38-0.19-0.77-0.29-1.15c-0.21,0.21-0.13,0.21-0.3-0.04c-0.06-0.47-0.13-0.95-0.19-1.42c0.17-1.04,0.34-2.07,0.51-3.11   c0.9-1.48,2.99-1.77,4.54-1.77c0.03-0.3,0.81-0.81,1.14-0.81c0.31-0.81,1.32-1.23,1.95-1.79c0.1-0.99,1.64-2.81,2.47-3.37   c0.7-0.45,1.39-0.9,2.09-1.35c1.52-0.49,3.04-0.98,4.56-1.46c0.94-0.24,1.89-0.48,2.83-0.72c1.12-0.63,2.23-1.26,3.35-1.89   c1.09-0.24,1.95-0.91,2.93-1.14c1.08-0.27,2.17-0.54,3.26-0.81c0.3-0.16,0.6-0.33,0.9-0.49c1.22-0.64,2.32-1.07,3.66-1.46   c0.53-0.89,2.93-1.56,3.91-1.79c1.4-0.95,2.8-1.9,4.2-2.85c1.85-1.25,3.36-2.77,5.08-4.15c0.71-0.32,1.41-0.64,2.12-0.96   c1.45-0.53,2.91-1.06,4.36-1.6c1.13-0.22,2.04-0.43,2.63-1.51c0.27-1.36,0.54-2.71,0.81-4.07c0.44-0.91,1.66-3.7,1.61-4.6   c1.3-1.68,2.05-4.76,2.89-6.82c1.81-4.41,3.96-8.75,6.44-12.82c0.82-1.35,1.85-2.43,2.9-3.6c0.15-0.44,0.3-0.89,0.45-1.33   c0.66-1.02,1.33-2.04,1.99-3.06c0.54-1.52,1.09-3.04,1.63-4.56c0.22-0.6,0.43-1.19,0.65-1.79c0.48-1.14,0.82-2.16,0.65-3.42   c-0.27-1.96-0.64-4.07-1.45-5.84c-0.56-0.87-1.12-1.74-1.68-2.6c-0.48-0.72-0.7-1.73-1.42-2.3c-1.52-1.14-3.04-2.28-4.56-3.42   c-1.52-0.27-3.04-0.54-4.56-0.81c-3.13-0.7-6.57-1.15-9.77-0.65c-2.55,0.05-5.1,0.11-7.65,0.16c-0.77-0.59-2.23-0.23-3.09,0   c-1.19,0.05-2.39,0.11-3.58,0.16c-2.39-0.22-4.8,0.43-7.16,0.65c-3.04,0.29-6.27-0.04-9.25,0.67c-1.63,0.71-3.25,1.42-4.88,2.14   c-0.07,0.04-0.46,0.57-0.52,0.61c0.21,0.46,0.13,0.21,0.21,0.69c0.14,0.85,0.82,3.7,1.09,4.68c-0.29,0.64-0.59,0.95-0.88,1.59   c-0.59,0.83-2.64,3.71-2.7,3.78c-0.05,0.3-1.35,1.84-1.14,1.63c-0.2,0.2-0.8,1.65-0.85,2.18c-0.15,0.52-0.3,0.88-0.45,1.4   c-0.17,0.28-0.21,0.43-0.33,0.81c-0.28,0.64-0.62,1.8-0.88,2.66c-0.03,0.2-0.72,1.7-0.75,1.9c0.52-0.06,1.32,0.11,2.23-0.44   c0.38,0.21,0.78-0.15,1.19-0.21c1.03-0.14,2.29-0.7,3.09-0.98c0,0.94-0.15,2.31-0.15,3.26c-0.01,0.08-0.02,0.6,0.15,0.81   c0.53-0.09,1.48-0.43,2.01-0.52c1.52-0.34,2.91-0.5,4.49-0.47c1.94,0.03,3.5,0.94,4.57,2.46c0.81-0.09,1.66,0.74,2.28,1.14   c-0.26,0.44,0.19,0.7,0.33,1.14c0.33,0.98,0.65,1.95,0.98,2.93c0.18,1.24,1.08,2.43,1.63,3.58c-0.24,0.49,0.37,1.7,0.46,2.28   c0.34,2.17,1.17,4.44,1.37,6.72c0.19,2.15-1.22,3.42-2.81,4.51c-0.1,0.47-1.96,1.73-2.44,2.12c-0.23,0.9-1.41,1.59-2.12,2.12   c-0.35,0.98-2.62,2.61-3.58,3.1c-2.2,1.12-4.38,2.11-6.67,2.92c-0.58-0.58-1.85-0.16-2.6-0.16c-0.11-0.06-0.21-0.11-0.32-0.17   c-0.83-0.08-0.96-0.53-1.57-1.07c0.15-0.67,0.3-1.34,0.45-2.01c0.21-0.52-0.19-0.19-0.35-0.66c-0.06,0.59-1.53,1.48-2.12,1.95   c0,0.87-0.78,1.52-1.3,2.12c-0.38,0.16-0.76,0.33-1.14,0.49c-0.54,0.49-1.09,0.98-1.63,1.46c-0.22,0.33-0.43,0.65-0.65,0.98   c-0.27,0.81-0.54,1.63-0.81,2.44c0.12,0.65-0.75,3.63-1.14,4.23c-0.88,1.39-2.54,0.85-3.26,1.95c-0.22-0.4-0.89-0.45-1.33-0.23   c-1.46-0.19-2.77,0.32-4.2,0.39c-0.84-0.03-1.68-0.05-2.52-0.08c-0.93,0.25-3.05,0.31-3.99,0.09c-0.55-0.19-1.11-0.38-1.66-0.57   c-0.54,0.01-1.07,0.02-1.61,0.03c-1.43,0.32-2.32,1.15-3.62,1.51c-0.99,0.27-2.12,0.26-3.04,0.83c-1.19,0.6-2.39,1.19-3.58,1.79   c-0.24,0.83-1.52,1.36-2.22,1.74c-1,0.77-1.99,1.55-2.99,2.32c-0.33,0.16-0.65,0.33-0.98,0.49c-0.73-0.39-2.22,0.36-2.93,0.65   c-0.31,0.84-2.98,2.66-3.83,3.23c-0.57,0.5-1.14,0.99-1.7,1.49c-1.44,0.04-2.7,1.55-3.86,2.28c-0.56,0.27-1.12,0.54-1.68,0.81   c-0.34,0.78-0.82,0.82-1.46,1.3c-0.16,0.16-0.33,0.33-0.49,0.49c-1.4,0.82-2.83,0.99-4.39,1.3c-0.52,0.44-3.38,0.72-4.07,0.81   c-0.71,0.38-1.41,0.76-2.12,1.14c-0.43,0.84-1.81,1.31-2.6,1.79c-0.33,0.38-0.65,0.76-0.98,1.14c0,0.64-0.72,1.01-1.13,1.45   c-0.44,0.55-0.87,1.09-1.31,1.64c-1.15,0.16-2.05,1.4-2.77,2.12c-1.02,0.18-2.04,0.36-3.06,0.54c-0.93,0.46-1.56,2.09-2.48,2.88   c-0.38,0.27-0.76,0.54-1.13,0.8c-0.26,0.02-0.53,0.04-0.79,0.06c-0.48,0.29-0.95,0.59-1.43,0.88c-0.72,0.37-1.24,0.49-1.92,0.94   c-0.73,0.49-0.67,1.3-0.87,2.19L191.13,146.8z"/>
            <circle cx="263" cy="136.79" r="1.586"/>
        </g>
        <g id="__Gökçeada">
            <path d="   M91.37,191.72c-0.46,0-0.84,0.75-0.81,1.14c-0.05-0.02-0.1-0.04-0.16-0.06c-0.49-0.25-0.98-0.5-1.47-0.75   c-0.43-0.11-0.87-0.22-1.3-0.32c-0.33,0-0.65,0-0.98,0c-0.81,0.43-1.63,0.87-2.44,1.3c-0.86-0.17-1.3,0.05-2.12,0.16   c-0.66,0.09-1.24-0.33-1.8,0.13c-0.7,0.45-1.4,0.89-2.11,1.34c-0.42,0.07-1.11,0.22-1.47,0c-0.27,0.11-0.54,0.22-0.81,0.32   c-1.84,0.54-2.92,3.05-4.88,2.6c-0.53,0.35-1.05,0.69-1.58,1.04c-0.64,0.62-0.91,1.26-1.78,1.6c-0.99,0.39-4.09,0.22-4.94-0.37   c-0.6,0.07-1.77,0.15-2.12,0.65c-0.6-0.05-1.19-0.11-1.79-0.16c-0.71,0.35-2.26,0.67-2.93,0.16c-0.8,0.18-1.98,0.38-2.62,0.94   c-0.71,0.63-1.83,1.36-2.74,1.64c-0.9,0.98-1.89,1.58-3.12,2.08c-0.17-0.05-0.35-0.11-0.52-0.16c-0.99,1.65-2.75,2.77-4.64,3.15   c-0.83,0.76-1.62,1.27-2.74,1.42c-0.49,0.49-0.95,0.61-1.51,0.53c-0.98,0.49-1.95,0.98-2.93,1.46c-0.6,0.33-1.19,0.65-1.79,0.98   c-0.69,0.62-0.76,1.7-1.06,2.54c-0.19,0.55-0.9,0.81-0.9,1.36c-0.71,0.27-2.53,0.9-2.93,1.46c-0.54,0.27-1.09,0.54-1.63,0.81   c-0.42,0.4-1.28,0.81-1.3,1.46c-0.16,1.57-0.33,3.15-0.49,4.72c0,0.43,0,0.87,0,1.3c-0.05,0.43-0.11,0.87-0.16,1.3   c-0.2,0.13-0.54,0.13-0.36,0.23c0.61,0.41,1.22,0.82,1.83,1.24c1.2,0.38,2.51,0.03,3.74,0.16c2.34,0.26,4.72,1.83,6.22,3.53   c0.89,0.31,2.78,0.46,3.13,1.29c0.19,0.58,0.42,1.27,0.91,1.68c0.11,0.38,0.22,0.76,0.33,1.14c0.41,0.26,0.81,0.53,1.22,0.79   c0.26,0.15,0.74,0.36,0.74,0.68c0.06-0.03,0.12-0.06,0.17-0.1c0.86-0.56,1.73-1.13,2.59-1.69c0.68-0.08,1.15-0.18,1.79,0.16   c0.23-0.3,0.45-0.6,0.68-0.9c0.48-0.13,0.96-0.27,1.43-0.4c0.9,0.24,1.8,0.48,2.7,0.72c0.32-0.32,0.84-0.34,1.29-0.27   c0.34,0.05,0.33,0.3,0.56,0.53c0.38,0.01,0.51,0.1,0.81-0.16c0.54,0.05,1.09,0.11,1.63,0.16c-0.64-0.64,0.43-2.23,1.3-2.29   c0.22-0.05,0.43-0.1,0.65-0.15c0.52,0.15,2.3,0.64,2.77,0.49c0.38,0.16,0.76,0.33,1.14,0.49c0.68,0.21,2.36,0.06,3.09,0   c0.52-0.05,0.82,0.3,1.3,0.33c0.41-0.01,0.83-0.01,1.24-0.02c0.25-0.34,2.16-1.46,2.41-0.99c-0.05,0.15,0.53-0.82,1.03-1.13   c0.73-0.45,1.22-0.19,1.83-0.79c0.4,0.02,0.8,0.04,1.2,0.06c0.7-0.36,1.41-0.72,2.11-1.08c0.53-0.2,1.05-0.4,1.58-0.6   c0.82-0.13,1.64-0.27,2.46-0.4c0.32-0.25,0.64-0.49,0.96-0.74c0.81-0.11,1.63-0.22,2.44-0.33c0.66-0.19,1.09-0.58,1.63-0.98   c0.54-0.16,1.08-0.33,1.63-0.49c0.83-0.43,1.41-0.8,2.32-1.01c0.64-0.1,1.28-0.19,1.91-0.29c0.47,0.47,3.66,1.24,4.39,1.14   c0.94-0.13,1.78-0.69,2.77-0.49c0.49-1.01,0.87-1.38,1.96-1.67c0.9-0.24,2.75-0.07,3.41-0.6c0.4-1.86,1.76-2.74,3.46-3.43   c0.26-0.38,0.52-0.75,0.77-1.12c-0.05-0.38-0.11-0.76-0.16-1.14c0.11-0.38,0.22-0.76,0.33-1.14c0.13-0.11,0.39-0.11,0.24-0.24   c-0.26-0.37-0.52-0.74-0.77-1.11c-0.01-0.2-0.01-0.39-0.02-0.59c-0.07,0-0.14,0.01-0.21,0.01c-0.13-0.06-0.25-0.12-0.38-0.18   c-0.08,0.13-0.15,0.25-0.23,0.38c-0.49,0.87-0.35,2.03-1.53,2.28c-0.59,0.15-2.12-0.48-2.4,0.15c-0.02,0.2-0.05,0.4-0.07,0.61   c-0.32,0.65-1.08,1.41-0.98,2.12c-0.12,0.03-0.23,0.05-0.35,0.08c-1.46,0.34-4.01-0.2-4.5-1.81c-0.07-0.29-0.45-0.05-0.29-0.35   c0.13-0.22,0.58-0.7,0.51-0.83c-0.33-0.64-0.25-0.65-0.91-1c0.01-0.41-0.01-1.05,0.33-1.3c-0.05-0.41,0.05-0.59-0.33-0.81   c0.11-0.27,0.22-0.54,0.33-0.81c0.59-0.63,1.97-1.48,1.79-2.44c-0.71-0.97-1.15-1.7-0.81-2.93c0.48,0,1.11-1.17,1.14-1.62   c0.05-0.71,0.11-1.41,0.16-2.12c-0.14-0.71-0.29-1.41-0.43-2.12c-0.02-0.6-0.04-1.19-0.06-1.79c-0.1-0.6,0.54-1.83,0.42-2.1   c-0.31-0.75-0.66-1.49-1.34-1.95c-0.74-0.39-1.18-0.32-2.01-0.18c-0.34-0.34-0.72-0.57-1.14-0.33c-0.6-0.27-1.19-0.54-1.79-0.81   c-0.11-0.27-0.22-0.54-0.33-0.81c0.03-0.49,0.22-0.8-0.16-1.14c0.16-0.27,0.33-0.54,0.49-0.81   C92.36,192.6,92.24,191.72,91.37,191.72z"/>
            <circle cx="81.68" cy="204.33" r="1.586"/>
        </g>
        <g id="__Bozcaada">
            <path d="   M95.89,316.88c0.18,0.3,0.17,0.34,0.52,0.49c0.5,1.35,1.03,2.48,1.87,3.66c0.79,0.28,1.42,0.59,2.08,1.15   c0.33,0.03,0.66,0.06,1,0.09c0.5-0.35,1.15-1.56,1.89-0.83c0.71,0.49,1.42,0.97,2.13,1.46c0.62,0.6,0.27,0.4,0.31,1.14   c0.05,0.11,0.11,0.22,0.16,0.33c0-0.87,2.3,0.59,2.64,0.73c0.32,0.14,0.64,0.28,0.96,0.42c0.55,0.41,0.89,1.44,1.6,1.29   c0.47,0.36,0.71,0.74,1.3,0.65c0.46,0.46,1.96,1.43,2.6,1.3c0.51,0.63,1.6,2.9,2.12,3c0.53,0.1,2.05-0.65,2.27-1.21   c0.38,0.16,0.76,0.33,1.14,0.49c0.16-0.33,0.33-0.65,0.49-0.98c0.43-0.12,0.57-0.15,0.98,0c0.77-0.74,2.44-1.18,2.44-2.44   c-0.43-0.27-0.87-0.54-1.3-0.81c0.11-0.33,0.22-0.65,0.33-0.98c-0.43-0.76-0.87-1.52-1.3-2.28c0.53-0.52,0.25-1.46,0.16-2.12   c0.26-0.17,1.28-0.57,1.06-0.95c-0.41-0.88-0.82-1.76-1.23-2.63c-0.13-0.55,0.44-1.14-0.1-1.54c-1.05-0.75-1.26-1.23-2.83-1.23   c-0.52-0.62-1.07-1.7-1.95-1.59c-0.16-0.01-0.33-0.03-0.49-0.04c-0.81,0.27-1.63,0.54-2.44,0.81c-0.35,0.35-0.37,0.8-0.97,0.6   c-1.39-0.45-2.71-0.59-4.24-0.76c-0.55-0.06-1.25-0.4-1.63,0.16c-1.03-0.05-2.06-0.11-3.09-0.16c-0.43,0.33-0.87,0.65-1.3,0.98   c-1.03,0-2.06,0-3.09,0c-0.46,0.46-1.13,0.52-1.79,0.65c-0.87-0.05-1.74-0.11-2.6-0.16c0-0.05,0-0.11,0-0.16   c0.18,0.09,0.49,0.34,0.49,0C95.79,316.07,95.58,316.35,95.89,316.88z"/>
            <circle cx="111.47" cy="322.66" r="1.586"/>
        </g>
        <g id="__Ezine">
            <path d="   M145.56,276.35c1.03,0.52,2.2,1.57,2.94,2.45c0.68,0.57,1.36,1.14,2.04,1.7c0.67,0.62,1.24,1.71,2.19,1.88   c0.67,0.57,1.33,1.15,2,1.72c1.96,0.9,3.91,1.86,5.98,2.51c0.92,0.29,1.77,1.27,2.77,1.3c1.36,0.98,4.53,2.26,6.18,2.6   c1.13,0.24,2.41,1.46,3.58,1.3c0.29,0.24,0.84,0.61,0.81,0.98c1.34,0,2.46,0.16,3.74,0.49c-0.4,0.25-0.84,0.38-0.34,0.71   c1.22,0.68,2.76,0.51,4.08,0.43c0.38,0.05,0.76,0.11,1.14,0.16c0.76-0.02,1.95-0.43,2.6,0c1.25-0.38,2.5-0.76,3.74-1.14   c5.7-1.52,11.39-3.04,17.09-4.56c2.39-0.14,4.78-0.28,7.18-0.42c1.46-0.19,2.92-0.37,4.38-0.56c0.7-0.16,1.41-0.33,2.11-0.49   c0.65-0.22,1.31-0.43,1.96-0.65c0.36,0,2.43-0.77,2.45-0.36c0,1.49-0.97,2.43-2.12,3.45c-0.5,0.74-1.01,1.48-1.51,2.22   c-1.12,1.76-2,3.69-2.82,5.6c-0.24,0.48-0.48,0.97-0.72,1.45c0.05,0.11,0.11,0.22,0.16,0.33c-1.29,2.58-2.17,5.28-3.75,7.74   c-0.21,0.46-0.43,0.92-0.64,1.38c0,0.6,0,1.19,0,1.79c-0.33,1.52-0.65,3.04-0.98,4.56c-1.31,3-2.62,6.01-3.94,9.01   c-0.64,3.34-1.28,6.69-1.92,10.03c0.05,0.92,0.11,1.84,0.16,2.77c0.25,0.76,0.51,1.52,0.76,2.28c0.07,0.49,0.15,0.97,0.22,1.46   c-0.05,0.92-0.11,1.85-0.16,2.77c0.32,1.81,1.45,3.45,2.44,4.88c0.33,0.76,0.65,1.52,0.98,2.28c0.88,1.81,2.28,3.63,3.58,5.21   c0.42,0.5,1.3,1.33,1.3,1.95c1.41,2.33,3.15,4.99,4.56,7.32c0,0.28-0.73-0.06-0.98,0c-0.76,0-1.52,0-2.28,0   c-0.57,0.06-0.86,0.34-1.46,0.27c-1.32-0.15-2.51-0.85-3.91-0.92c-0.43,0.11-0.87,0.22-1.3,0.33c-1.74,0.05-3.47,0.11-5.21,0.16   c0,1.35-2.04,1.77-2.92,2.31c-0.49,0.2-0.98,0.41-1.47,0.62c-1.13,0.41-2.27,0.82-3.4,1.23c-0.98,0.46-1.97,0.92-2.95,1.37   c-0.31,0.19-0.71,0.3-0.81,0.65c-0.82,0.1-1.63,0.2-2.45,0.31c-0.63,0.17-3.13,0.78-3.57,0.35c-0.87,0-3.12-0.38-3.47-1.28   c-0.3-0.72-0.66-1.82-0.32-2.05c1.03-0.85,1.91-1.09,3.3-1.22c0.43,0.05,0.87,0.11,1.3,0.16c0.52-0.41,1.05-0.82,1.57-1.23   c0.7-0.14,1.11-0.7,1.2-1.38c0.09-0.76-0.34-1.77-0.81-2.28c-0.4,0.08-0.49,0.16-1.46,0.16c-1.1,0.19-0.52-0.02-1.46,0.33   c-0.33,0.22-1.46,0.76-1.79,0.98c-0.6,0.49-1.19,0.98-1.79,1.46c-0.11-0.05-0.22-0.11-0.33-0.16c-1.08,0.6-2.17,1.19-3.26,1.79   c-1.03,0.1-1.81,0.24-2.74,0.71c-0.39,0.19-0.41,0.33-0.68,0.6c-0.76-0.36-2.9,2.32-3.58,2.93c-2.95,2.64-5.75,5.53-9.6,6.67   c-0.32,0.16-0.65,0.32-0.97,0.48c-1.44,0.32-3.95,0.45-5.05-0.65c-1.37,0-2.9-0.33-4.07-0.98c-0.6-0.16-1.19-0.33-1.79-0.49   c-0.59-0.07-0.84-0.65-1.79-0.65c-0.59-0.59-3.37-1.63-4.23-1.63c-0.43,0-2.6-0.69-2.6-0.94c0-0.11,0-0.23,0-0.34   c0-0.92,0.73-1.37,0.82-2.3c-0.15-1.45-0.3-2.9-0.45-4.35c0.33-0.56,0.55-1.66,0.45-2.32c-0.18-0.52-0.37-1.05-0.55-1.57   c-0.09-0.83-0.17-1.67-0.26-2.5c-0.12-0.74-0.68-1.72-0.33-2.44c-0.2-0.88-0.69-3.61,0-4.23c-0.51-1.7-1.6-2.93-1.79-4.72   c-0.16-0.33-0.33-0.65-0.49-0.98c-0.86-1.27-2.08-3.1-1.63-4.72c-0.34-0.8-1.25-2.17-0.49-2.93c0.6,0.05,1.19,0.11,1.79,0.16   c0.13-0.81,1.15-2.46,1.79-3.09c0.22-0.65,0.43-1.3,0.65-1.95c-0.11-0.38-0.22-0.76-0.33-1.14c0.05-0.22,0.11-0.43,0.16-0.65   c-0.48-0.48-0.22-1.35-0.33-1.95c-0.16-0.43-0.33-0.87-0.49-1.3c0.07-0.28,0.14-0.55,0.21-0.83c0.25-0.94,0.47-1.82,0.27-2.75   c0.46,0,0.72-0.7,0.98-1c0.49-0.56,1.24-3.45,0.65-4.04c-0.11-0.27-0.22-0.54-0.33-0.81c-1.19-1.08-2.39-2.17-3.58-3.26   c-0.79-0.58-1.5-0.78-2.12-1.63c0.49-0.6,0.98-1.19,1.46-1.79c0-0.43,0-0.87,0-1.3c0.5-0.75,0.45-1.73,0.65-2.6   c-0.22-0.22-0.43-0.43-0.65-0.65c0-0.62,0.05-2,0.49-2.44c1.04-1.07,2.29-1.58,1.95-3.26c0.88-1.04,0.98-1.77,1.03-3.09   c0.4-0.59,0.53-1.79,0.27-2.45c-0.6-1.57-2.57-2.73-2.2-4.58c0.18-0.91,0.95-1.77,1.39-2.58c0.93-1.73,1.58-5.5,1.46-7.49   c0.73-0.73,0.66-2.34,0.85-3.28c0.09-0.44,0.31-1.1-0.04-1.44c0.38-0.71,0.76-1.41,1.14-2.12   C145.24,276.24,145.4,276.3,145.56,276.35z"/>
            <circle cx="185.04" cy="332.42" r="1.586"/>
        </g>
        <g id="__Ayvacık">
            <path d="   M263.4,371.92c0.42,0.89-0.12,1.76-0.34,2.59c-0.43,1.79-0.85,3.57-1.28,5.36c-0.17,1.79-0.34,3.57-0.5,5.36   c0.04,0.19,0.09,0.38,0.13,0.57c-0.15,1.82-0.29,3.64-0.44,5.46c-0.11,1.41-0.22,2.82-0.33,4.23c0.46,0.58,0.09,1.75,0.02,2.45   c-0.01,1.57-0.01,3.14-0.02,4.71c0,0.25-0.02,1.41-0.3,1.38c-0.38,0.66-0.88-0.45-1.49-0.08c-0.71,0-1.41,0-2.12,0   c-0.33-0.05-0.65-0.11-0.98-0.16c0-0.11,0-0.22,0-0.33c-1.08,0.03-2.15,0.48-3.07,1.03c-0.37,0.22,0.68,1.13,0.95,1.41   c-0.2-0.42-0.06-0.3-0.38-0.36c-0.25-0.04-0.51-0.09-0.76-0.13c-0.49,1.09-2.56,0.3-3.55,0.63c-0.94,0.32-1.62-0.03-2.48-0.14   c-0.92,0.6-1.84,1.19-2.77,1.79c-1.03,0.21-2.07,0.43-3.1,0.64c-0.48,0.22-0.97,0.44-1.45,0.66c-0.76,0.16-1.52,0.33-2.28,0.49   c-0.76,0.38-1.52,0.76-2.28,1.14c-0.28-0.47-1.55-0.37-2.13-0.44c-1.27-0.14-3.01-0.18-4.22,0.27c-1.28,0.49-2.25,1.46-3.58,1.63   c-0.31-0.06-0.62-0.13-0.94-0.19c-2.45-0.51-5.12-0.01-7.2,1.49c-0.36-0.21-0.92,0.13-1.34,0.21c-0.64,0.09-1.28,0.18-1.92,0.27   c-0.21,0.32-0.64,0.41-0.99,0.58c-0.76,0.36-1.68,0.26-2.53,0.68c-0.74,0.5-1.48,1.01-2.22,1.51c-0.69,0.38-1.39,0.76-2.08,1.14   c-0.76,0.6-1.52,1.19-2.28,1.79c-0.62-0.33-2.25,0.09-2.93,0.33c-0.88-0.21-2,0.61-2.8,0.88c-0.96,0.09-1.93,0.17-2.89,0.26   c-0.43,0.28-0.85,0.56-1.28,0.84c-0.85,0.61-1.43,2.89-1,3.71c-0.13,0.08-0.26,0.15-0.4,0.23c-0.08,0.14-0.17,0.28-0.25,0.42   c-0.09-0.73-1.6-1.26-2.29-1.54c-0.16-0.25-0.32-0.5-0.47-0.74c-0.38,0.21-0.88-0.06-1.3-0.16c0.03-0.11,0.05-0.21,0.08-0.32   c-0.27-0.36-0.47-0.42-0.92-0.48c-1.06-0.11-0.95,0.16-0.95,1.12c-0.46,0.04-2.05,1.07-2.44,1.46c-0.28,0.09-0.56,0.17-0.84,0.26   c-0.73,0.35-1.33-0.03-2.1-0.22c-1.1-0.24-2.2-0.47-3.3-0.71c-0.9-0.21-1.93-0.07-2.87,0.02c-0.11-0.28-0.82-0.37-1.14-0.33   c-0.76,0.24-1.53,0.48-2.29,0.72c-0.73,0.11-1.38-0.05-2.1-0.23c-0.34,0.38-0.81,0.24-1.3,0.33c-0.49,0.27-0.98,0.54-1.46,0.81   c-0.43,0.49-0.87,0.98-1.3,1.46c-0.61,0.09-1.27,1.71-1.79,2.28c0.05,0.27,0.11,0.54,0.16,0.81c-0.22,0.07-0.45,0.14-0.67,0.2   c-0.51,0.14-1.23-0.34-1.77-0.69c0.22-0.52-0.36-1.03-0.63-1.48c-0.6-0.99-2.44-0.5-3.27-0.07c-0.76,0.41-1.53,0.82-2.29,1.23   c-0.16,0.38-0.33,0.76-0.49,1.14c-0.43,0.27-0.87,0.54-1.3,0.81c-0.5-0.21-1.11,0.06-1.65,0.08c-1.43,0.03-2.94,0.11-4.37,0.57   c-1.05-0.6-3.55,0.27-4.56,0.81c-2.03-1.09-2.49-0.18-4.23,0.98c-0.65,0.05-1.3,0.11-1.95,0.16c-0.58-0.57-1.14-0.91-1.86-0.52   c-0.52-0.04-1.04-0.08-1.56-0.13c-0.24-0.74-2.18-1.72-2.93-2.07c-1.89-0.88-3.87-1.28-5.85-1.83c-1.05-0.73-2.11-1.45-3.16-2.18   c-0.25-0.14-0.5-0.29-0.75-0.43c0.05-0.87,0.11-1.74,0.16-2.6c0.11-0.49,0.22-0.98,0.33-1.46c0.27-0.61,0.55-1.22,0.82-1.84   c0.09-0.71,0.18-1.42,0.27-2.13c0.16-0.81,1.12-0.82,1.68-1.24c0.59-0.45,1.07-0.89,1.43-1.55c0.35-0.67-0.05-1.91-0.62-2.52   c0.71-1.03,1.41-2.06,2.12-3.09c-0.11-0.22-0.22-0.43-0.33-0.65c0.64-0.92,0.72-1.98,0.81-3.11c0.05-0.75,0.11-1.51,0.16-2.26   c0.11-0.54,0.22-1.08,0.33-1.63c0.57-0.54,0.81-1.51,0.81-2.28c1.24-0.94,0.93-2.64,1.11-3.92c0.15-1.01,0.51-1.86,0.51-2.92   c1.34-1.73,3.31-2.9,5.04-4.16c0.98-0.84,1.96-1.68,2.93-2.51c0.07-1.72,1.94-3.93,2.64-5.55c0.26-0.92,0.52-1.83,0.77-2.75   c1.14-2.09,1.33-3.96,1.88-6.21l0.07-0.45c0,0.11,0,0.23,0,0.34c0,0.25,2.17,0.94,2.6,0.94c0.86,0,3.64,1.04,4.23,1.63   c0.95,0,1.2,0.58,1.79,0.65c0.6,0.16,1.19,0.33,1.79,0.49c1.17,0.65,2.7,0.98,4.07,0.98c1.1,1.1,3.61,0.96,5.05,0.65   c0.32-0.16,0.65-0.32,0.97-0.48c3.86-1.14,6.65-4.03,9.6-6.67c0.68-0.61,2.82-3.29,3.58-2.93c0.26-0.26,0.29-0.4,0.68-0.6   c0.93-0.47,1.71-0.61,2.74-0.71c1.08-0.6,2.17-1.19,3.26-1.79c0.11,0.05,0.22,0.11,0.33,0.16c0.6-0.49,1.19-0.98,1.79-1.46   c0.33-0.22,1.46-0.76,1.79-0.98c0.94-0.35,0.36-0.14,1.46-0.33c0.97,0,1.07-0.09,1.46-0.16c0.48,0.51,0.91,1.52,0.81,2.28   c-0.08,0.68-0.5,1.24-1.2,1.38c-0.52,0.41-1.05,0.82-1.57,1.23c-0.43-0.05-0.87-0.11-1.3-0.16c-1.39,0.13-2.27,0.38-3.3,1.22   c-0.34,0.24,0.01,1.33,0.32,2.05c0.35,0.9,2.6,1.28,3.47,1.28c0.44,0.44,2.94-0.18,3.57-0.35c0.82-0.1,1.63-0.2,2.45-0.31   c0.1-0.35,0.5-0.46,0.81-0.65c0.98-0.46,1.97-0.92,2.95-1.37c1.13-0.41,2.27-0.82,3.4-1.23c0.49-0.21,0.98-0.41,1.47-0.62   c0.88-0.55,2.92-0.96,2.92-2.31c1.74-0.05,3.47-0.11,5.21-0.16c0.43-0.11,0.87-0.22,1.3-0.33c1.4,0.07,2.6,0.77,3.91,0.92   c0.6,0.07,0.89-0.21,1.46-0.27c0.76,0,1.52,0,2.28,0l1.46,0.04c1.25,0.15,2.5,0.3,3.75,0.45c0.88,0.29,1.76,0.58,2.63,0.88   c0.75,0.2,1.5,0.39,2.25,0.59c0.43,0.05,0.87,0.11,1.3,0.16c0.54-0.05,1.09-0.11,1.63-0.16c0.47-0.47,3.5-1.3,4.23-1.3   c1.95-1.13,3.81-1.55,5.86-2.28c0.48-0.04,0.97-0.08,1.45-0.11c0.41-0.07,1.05-0.24,1.31-0.54c1.93-0.31,3.9-0.48,5.86-0.16   c0.86,0.38,1.72,0.76,2.58,1.13c0.52,0.06,0.85,0.27,1.33,0.49c0.28,0.13,0.52,0.27,0.81,0.16c0.89,0.58,1.79,1.16,2.68,1.74   c0.9,0.69,2.44,2.89,3.5,2.98c0.38,0.52,2.25,3.25,2.31,2.61C263.97,369.81,263.4,371.92,263.4,371.92z"/>
            <circle cx="198.87" cy="390.04" r="1.586"/>
        </g>
        <g id="__Bayramiç">
            <path d="M336.81,322.74   c-0.67-0.77-1.5-0.86-2.28-1.46c-0.38-0.33-0.76-0.65-1.14-0.98c-1.03-0.65-2.06-1.3-3.09-1.95c-0.38-0.17-0.75-0.34-1.13-0.5   c-0.97-0.71-1.95-1.42-2.92-2.13c-1.66-1.49-3.33-2.98-4.99-4.47c-1.06-1.1-2.11-2.21-3.17-3.31c-1.33-0.88-2.56-1.53-3.58-2.77   c-0.36-0.43-1.38-1.87-1.3-2.44c-1.26-1.94-2.32-3.92-3.58-5.86c-0.87-0.98-1.74-1.95-2.6-2.93c-5.02-3.58-5.38-7.86-5.38-7.86   c-0.37-2.7,2.05-5.48,1.07-8.07c-0.25-0.57-1-0.85-1.48-1.24c-0.23-0.27-1.06-0.49-1.29-0.77c-1.15-0.52-1.7-1.09-2.85-1.6   c-0.68-0.58-1.36-1.15-2.04-1.73c-0.44-0.64-0.57-1.14-0.89-1.85c-0.64-0.19-1.03-1.26-1.46-1.79c-0.16-0.49-0.33-0.98-0.49-1.46   c-0.55-1.74-1.33-3.48-2.28-5.05c-0.08-0.84-0.65-1.14-0.65-1.14c-1.25,0.81-3.51,0.09-5.05,0.21c-2.4,0.19-4.87,0.37-7.2,0.96   c-0.8,0.21-1.6,0.41-2.41,0.62c-1.01,0.23-2.03,0.45-3.04,0.68c-0.88,0.26-1.77,0.53-2.66,0.79c-0.48,0.23-0.97,0.46-1.45,0.7   c-0.41,0.12-1.48,0.29-1.48,0.77c-0.6,0.16-1.19,0.33-1.79,0.49c-2.58,1.77-5.3,3.29-8.17,4.63c-1.18,0.41-2.36,0.82-3.54,1.23   c-0.33,0.22-0.65,0.43-0.98,0.65c-0.98,0.13-1.89,0.7-2.77,1.14c-0.92,0.27-1.84,0.54-2.77,0.81c-2.58,0.99-5.16,1.98-7.75,2.97   c-1.81,1.02-3.63,2.03-5.44,3.05c-0.76,0.58-1.52,1.17-2.27,1.75c-0.93,0.5-1.85,1-2.78,1.5c-0.38,0.22-0.76,0.44-1.13,0.66   c-0.55,0.18-1.09,0.37-1.64,0.55c-0.17,0.08-1.11,0.28-0.88,0.5l0.09,0.38c0,1.49-0.97,2.43-2.12,3.45   c-0.5,0.74-1.01,1.48-1.51,2.22c-1.12,1.76-2,3.69-2.82,5.6c-0.24,0.48-0.48,0.97-0.72,1.45c0.05,0.11,0.11,0.22,0.16,0.33   c-1.29,2.58-2.17,5.28-3.75,7.74c-0.21,0.46-0.43,0.92-0.64,1.38c0,0.6,0,1.19,0,1.79c-0.33,1.52-0.65,3.04-0.98,4.56   c-1.31,3-2.62,6.01-3.94,9.01c-0.64,3.34-1.28,6.69-1.92,10.03c0.05,0.92,0.11,1.84,0.16,2.77c0.25,0.76,0.51,1.52,0.76,2.28   c0.07,0.49,0.15,0.97,0.22,1.46c-0.05,0.92-0.11,1.85-0.16,2.77c0.32,1.81,1.45,3.45,2.44,4.88c0.33,0.76,0.65,1.52,0.98,2.28   c0.88,1.81,2.28,3.63,3.58,5.21c0.42,0.5,1.3,1.33,1.3,1.95c1.41,2.33,3.15,4.99,4.56,7.32l0.48,0.04c1.25,0.15,2.5,0.3,3.75,0.45   c0.88,0.29,1.76,0.58,2.63,0.88c0.75,0.2,1.5,0.39,2.25,0.59c0.43,0.05,0.87,0.11,1.3,0.16c0.54-0.05,1.09-0.11,1.63-0.16   c0.47-0.47,3.5-1.3,4.23-1.3c1.95-1.13,3.81-1.55,5.86-2.28c0.48-0.04,0.97-0.08,1.45-0.11c0.41-0.07,1.05-0.24,1.31-0.54   c1.93-0.31,3.9-0.48,5.86-0.16c0.86,0.38,1.72,0.76,2.58,1.13c0.52,0.06,0.85,0.27,1.33,0.49c0.28,0.13,0.52,0.27,0.81,0.16   c0.89,0.58,1.79,1.16,2.68,1.74c0.9,0.69,2.44,2.89,3.5,2.98c0.38,0.52,2.25,3.25,2.31,2.61c0.21-1.76,0.76-3.5,1.25-5.22   c0.22-0.7,0.45-1.41,0.67-2.11c0.81-1.19,1.63-2.39,2.44-3.58c2.12-1.82,4.25-3.65,6.37-5.47c1.64-1.07,3.45-1.48,5.2-2.26   c1.3-0.57,2.59-1.14,3.89-1.71c0.43-0.11,0.87-0.22,1.3-0.33c1.36-0.54,2.71-1.08,4.07-1.63c1.07-0.26,2.13-0.52,3.2-0.77   c4.36-1.5,8.51-3.37,12.87-4.82c1.37-0.41,2.73-0.82,4.1-1.24c1.41-0.21,2.83-0.42,4.24-0.63c1.2-0.17,2.39-0.34,3.59-0.51   c1.63-0.52,3.35-0.82,5.03-1.05c1.59-0.21,3.17-0.41,4.76-0.62c0.59-0.12,1.3-0.26,2.5-0.58l0.25,0.07   c-0.09-0.14,0.12-0.53-0.29-0.53c0.22-0.52,0.44-1.04,0.66-1.56c0.2-0.58,0.41-1.16,0.61-1.75c0.62-0.94,1.25-1.88,1.87-2.82   c1.22-1.83,2.44-3.65,3.66-5.48c0.71-0.49,1.41-0.98,2.12-1.46l0.33-0.33C337.96,324.65,337.29,323.27,336.81,322.74z    M270.88,329.87c-0.31,0.29-0.62,0.58-0.94,0.87c-0.12,0.32-0.23,0.63-0.35,0.95c0.12,0.18,0.59,1.2,0.16,0.83   c-0.46-0.43-0.91-1.5-1.62-1.64c-0.05-0.23-0.1-0.47-0.15-0.7c-0.22-0.2-0.44-0.4-0.66-0.6c-0.1,0.1-1.44,1.75-1.26,1.15   c0.26-0.6,0.51-1.2,0.77-1.8c-0.05-0.27-0.11-0.54-0.16-0.81c-0.38-0.6-0.76-1.19-1.14-1.79c0.31-0.89,0.29-1.56,0-2.44   c-0.06,0.05-0.12,0.11-0.18,0.16c-0.18,0.21-0.36,0.42-0.54,0.63c-0.6-0.26-1.16-0.59-1.4-1.11c-0.25-0.54-1.02-0.93-0.49-1.46   c-0.05-0.52-0.22-0.96-0.07-1.47c0.14-0.53,0.28-1.06,0.42-1.6c0-0.21-0.7-2.94-0.41-2.71c0.2,0.16,0.4,0.33,0.6,0.49   c0.21,0.15,0.97-0.73,0.9-0.43c-0.15,0.5-0.31,0.99-0.46,1.49c0.05,0.81,0.11,1.63,0.16,2.44c0.24-0.09,0.49-0.18,0.73-0.27   c0.32,0.15,0.73,0.25,1.06,0.11c-0.27,0.22-0.54,0.43-0.81,0.65c0.11,0.27,0.22,0.54,0.33,0.81c1.05-0.07,1.4,0.44,2.27,0.77   c0.24,0.09,1.4,0.12,1.26,0.51c-0.35,0.88-0.35,1.74-0.44,2.62c0,0.27,0,0.54,0,0.81c0.19,0.32,0.37,0.65,0.56,0.97   c0.3,0.49,0.6,0.99,0.9,1.48c0.7,0.14,1.39,0.28,2.09,0.42c0.2,0.18,0.4,0.35,0.6,0.53C272.03,329.77,271.45,329.82,270.88,329.87z   "/>
            <circle cx="250.14" cy="325.1" r="1.586"/>
        </g>
        <g id="__Lapseki">
            <path d="   M300.68,222.82c0.36,0.12,0.67-0.27,0.93-0.49c0.95-0.53,1.91-1.05,2.86-1.58c3.01-1.75,9.81-2.49,13.14-1.04   c0.27,0.11,0.54,0.22,0.81,0.33c0.11,0.11,0.22,0.22,0.33,0.33l0.9-0.19c-0.19-1.02-0.39-2.04-0.58-3.07   c0.05-0.43,0.11-0.87,0.16-1.3c-0.4-2.46-0.66-4.73-0.33-7.32c1.03-1.68,2.06-3.36,3.09-5.04c0.7-1.05,1.95-1.35,2.53-2.5   c0.82-1.29,1.65-2.59,2.47-3.88c0.26-0.41,0.71-1.18,1.19-1.27c1.74-2.44,3.47-4.88,5.21-7.32c0.77-1.57,1.54-3.14,2.3-4.71   c0.83-1.22,1.65-2.45,2.48-3.67c0.6-1.28,1.18-1.2,0.91-2.69c0.16-0.05,0.33-0.11,0.49-0.16c0.49-0.49,0.98-0.98,1.46-1.46   c0.4-0.68,0.8-1.36,1.2-2.04c1.48-1.88,2.97-3.76,4.45-5.64c0.54-0.64,2.41-2.49,1.67-3.22c0.09,0.09,0.78,0.33,0.82,0.11   c0.21-0.52,0.42-1.03,0.63-1.55c0.27-1.2,0.55-2.4,0.82-3.6c-0.17-0.71-0.35-1.41-0.52-2.12c-0.15-0.73-0.15-1.53-0.62-2.12   c-0.5-0.63-0.31-1.77-0.98-2.28c-0.27-0.76-1.17-2.8-1.79-3.26c-0.58-1.27-0.85-2.62-1.36-3.9c-0.05-0.12-0.44-1.26-0.16-1.17   l-0.11,0.83c-0.1-0.06-0.19-0.12-0.29-0.18c-0.8-0.48-0.37-0.37-1.42-0.53c-0.95,0.89-3.66,0.43-4.15,1.53   c-1.43-0.18-3.83-0.63-5.21,0.16c-0.65-0.04-1.46-0.27-1.95,0.33c-1.97-0.25-2.57-0.66-4.21-1.66c-0.55-0.03-1.09-0.07-1.64-0.1   c-0.66-0.39-1.31-0.78-1.97-1.17c0.05,0.22,0.11,0.43,0.16,0.65c-0.08-0.15-0.16-0.29-0.24-0.44c-0.84-1.31-1.61-3.07-3.05-3.7   c-1.13-0.42-3.41,0.51-4.36,1.21c-0.36,0.27-0.65,0.2-0.81,0.65c-0.58,0.07-1.57-0.05-1.95,0.49c-0.98-0.23-1.82,0.21-2.77,0.65   c-1.73-1.73-5.05-2.17-7.23-1.53c-0.46,0.08-0.93,0.15-1.39,0.23c-1.64-0.11-1.79-0.2-3.26,0.65c-1.15-0.04-2.17-0.55-3.26-0.79   c-1.42-0.32-3-0.72-4.23-1.49c-0.81-0.22-1.63-0.43-2.44-0.65c-1.74,0.33-3.68,1.85-5.37,0.49c-0.67,0.41-1.15,0.47-1.91,0.62   c-0.66,0.5-1.33,1-1.99,1.5c-0.54,0.6-1.64,0.36-1.34,1.42c0.12,0.34,0.24,0.68,0.37,1.02c0.32,0.01,1.64-0.01,1.61,0.32   c-0.03,0.5,0.08,1.3-0.48,1.3c-1.52,0.04-3.04,0.08-4.56,0.11c-0.42,0.61-1.33,1.36-2.11,1.36c-0.87,1.03-1.74,2.06-2.6,3.09   c-1.39,0.2-2.87,0.85-3.31,2.26c-0.08,0.27-0.49,0.26-0.36,0.45c0.33,0.41,0.66,1.42,1.23,1.53c0.03,0.3,0.06,0.6,0.09,0.9   c-0.25,0.28-0.37,0.35-0.41,0.73c-0.65,0.27-1.3,0.54-1.95,0.81c-0.25,0.49-2.11,1.67-2.6,1.79c-0.41,0.7-0.91,1.65-1.79,1.63   c-0.38,0.6-0.76,1.19-1.14,1.79c-0.67,0.51-1.34,1.02-2.01,1.53c-0.3,0.37-0.61,0.75-0.91,1.12c-0.01,0.6-1.03,1.48-1.64,1.75   c-0.53,0.97-0.82,1.76-1.14,2.77c-0.16,0.38-0.33,0.76-0.49,1.14c-0.74,0.26-1.44,1.27-1.76,2.36c-0.3,1.02-1,0.41-1.99,0.96   c-0.82,1.19-1.64,2.39-2.46,3.58c-0.64,0.2-2.04,0.23-2.41,0.75c-0.66-0.35-1.16-0.85-1.94-0.91c-0.06-0.13-0.12-0.26-0.17-0.4   c-0.17,0.11-0.33,0.22-0.5,0.33c-0.63,0.46-1.96,1.26-2.76,0.98c-0.25,0.27-0.6,0.87-0.98,0.81c-0.58,1.09-1.17,2.19-1.75,3.28   c-0.34,0.43-0.59,1.29-1.18,1.28c0.09,1.01,0.07,1.28-0.16,2.28c-1.8,0.99-1.81,1.78-2.53,3.59c-0.25,0.33-0.51,0.67-0.76,1   c-0.12,0.66-0.47,1.54-0.07,2.11c-0.02,0.15-0.04,0.31-0.06,0.46c0.36,0.05,0.66,0.19,0.98,0c0.33,0.22,0.65,0.43,0.98,0.65   c1.44,1.48,2.76,3.23,4.79,4.08c1.39,0.27,2.78,0.53,4.17,0.8c2.49,0.5,5.1,0.67,7.52,1.36c1.05,0.3,2.5,0.54,3.2,1.42   c0.27,0.42,0.54,0.84,0.8,1.27c0.12,0.39,0.24,0.77,0.36,1.16c0,0.66,0.04,2.12,0.49,2.6c-0.07,1.18-0.52,3.84,0,4.88   c-0.15,0.65-0.62,1.84-0.33,2.44c-0.28,0.82-0.41,2.44-0.31,3.25c0.1,0.71,0.2,1.41,0.31,2.12c0.56,0.83,1.04,1.62,1.79,2.28   c2.11,1.41,4.21,2.82,6.32,4.24c1.04,0.6,2.08,1.19,3.12,1.79c1.03,0.49,2.06,0.98,3.09,1.46c0.48,0.18,0.88-0.17,1.3,0.16   c1.14-0.65,2.28-1.3,3.42-1.95c1.36-0.38,2.71-0.76,4.07-1.14c1.68-0.03,3.36-0.05,5.05-0.08c0.6-0.19,1.92-0.54,2.44-0.09   c0.64-0.13,1.9-0.43,2.44,0c1.68-0.28,3.15-0.99,4.72-1.63c1.51-0.4,3.03-0.8,4.54-1.2C299.71,223.62,300.28,223.13,300.68,222.82z   "/>
            <circle cx="266.42" cy="159.57" r="1.586"/>
        </g>
        <g id="__Çanakkale">
            <path d="M303.08,235.01c-0.31-2.33-0.62-4.67-0.94-7   c-0.44-1.04-0.49-2.15-0.86-3.19c-0.12-0.33-0.34-0.5-0.47-0.9c-0.04-0.37-0.12-0.72-0.16-1.09c-0.38,0.34-1.09,0.75-2.27,1.05   c-1.51,0.4-3.03,0.8-4.54,1.2c-1.57,0.64-3.04,1.35-4.72,1.63c-0.54-0.43-1.8-0.13-2.44,0c-0.52-0.45-1.84-0.1-2.44,0.09   c-1.68,0.03-3.36,0.05-5.05,0.08c-1.36,0.38-2.71,0.76-4.07,1.14c-1.14,0.65-2.28,1.3-3.42,1.95c-0.42-0.33-0.82,0.02-1.3-0.16   c-1.03-0.49-2.06-0.98-3.09-1.46c-1.04-0.6-2.08-1.19-3.12-1.79c-2.11-1.41-4.21-2.82-6.32-4.24c-0.75-0.65-1.23-1.44-1.79-2.28   c-0.1-0.71-0.2-1.41-0.31-2.12c-0.1-0.81,0.02-2.43,0.31-3.25c-0.29-0.6,0.17-1.79,0.33-2.44c-0.52-1.04-0.07-3.71,0-4.88   c-0.45-0.49-0.49-1.94-0.49-2.6c-0.12-0.39-0.24-0.77-0.36-1.16c-0.27-0.42-0.54-0.84-0.8-1.27c-0.71-0.89-2.15-1.13-3.2-1.42   c-2.42-0.69-5.03-0.86-7.52-1.36c-1.39-0.27-2.78-0.53-4.17-0.8c-2.03-0.86-3.35-2.6-4.79-4.08c-0.33-0.22-0.65-0.43-0.98-0.65   c-0.32,0.19-0.62,0.05-0.98,0c0.02-0.15,0.04-0.31,0.06-0.46c-0.35-0.49-0.26,0.33-0.23,0.56c0,0.02,0.01,0.04,0.01,0.06   c0,0,0-0.02-0.01-0.06c-0.12-0.43-1.63,0.86-1.81,0.98c-0.79,0.55-1.94,2.64-2.47,3.61c-0.2,0.35-1.09,0.07-1.46-0.02   c-0.6,0.21-0.88,0.64-1.41,1.03c-0.71,0.27-1.41,0.54-2.12,0.81c-1.5,1.02-3.06,2.04-4.39,3.25c-0.74-0.31-2.18-0.21-2.93,0.16   c-0.27,0.27-0.54,0.54-0.81,0.81c-0.49,0.05-0.98,0.11-1.46,0.16c-0.51-0.37-1.34-0.39-1.95-0.33c-0.18,0.85-1.8,1.46-2.6,1.46   c-0.45-0.58-2.26-0.37-2.93-0.33c-1.09-0.51-2.18-1.01-3.28-1.52c-0.88-0.17-2.23,0.54-2.82,1.25c-0.03,0.04-0.06,0.07-0.09,0.11   c0.4-0.09,0.52,0.22,0.81,0.49c-0.17,0.44-0.08,0.46,0.1,0.84c0.04,0.09-0.44,0.88-0.59,1.11c0.13,0.15,0.25,0.31,0.38,0.46   c0.12,0.85-0.09,1.78-0.38,2.63c-0.32,0.03-0.44,0.25-0.65,0.49c0.3,0.37,0.18,0.82,0.16,1.3c0.04,0.44,0.07,0.87,0.11,1.31   c-0.11,1,0.33,2.06,1.03,2.76c-0.89,1.55-2.27,2.26-2.56,4.07c-0.12,0.8,1.7,3.7,2.23,4.56c0.11,0.27,0.22,0.54,0.33,0.81   c-0.22,0.33,0.13,2.21,0.16,2.77c-0.16,0.33-0.33,0.65-0.49,0.98c-0.48,0.16-2.21,2.69-2.12,3.26c-0.81,0.33-1.63,0.65-2.44,0.98   c-0.38-0.34-0.8-0.14-1.3-0.16c-0.48-0.48-1.65-0.31-2.27-0.23c-0.27,0.08-0.55,0.15-0.82,0.23c-0.05,0.64-1.02,1.61-1.45,2.18   c-0.62,0.8,0.18,2.37,0.4,3.21c0.03,0.26,0.05,0.53,0.08,0.79c-0.73,0.9-1.25,1.66-1.63,2.77c0.28,1.13-0.92,4.12-1.46,5.05   c-0.06,0.46-0.12,0.93-0.18,1.39c-0.16,0.51-0.32,1.02-0.47,1.54c-0.77,0.81-1.27,0.71-1.14,1.79c-0.83,0.44-1.23,0.78-2.12,0.81   c1.34,0.75-0.64,3.73-1.26,4.38c-0.83,0.87-1.33,1.82-2.32,2.62c-1.2-0.23-4.23,0.91-5.37,1.46c-0.71,0.7-1.41,1.41-2.12,2.12   c-0.45-0.06-0.72,0.17-1.14,0.33c-1.07-0.27-2.08,0.61-2.93,1.14c-0.36-0.15-1.23,0.19-1.63,0.33c-0.64-0.74-2.38,0.09-3.09,0.49   c-0.27-0.05-0.54-0.11-0.81-0.16c-0.84-0.7-1.64-0.39-2.6-0.16c-2.35-1.6-5.72-1.98-8.46-2.93c-0.12,0.06-0.23,0.12-0.35,0.18   c-0.83-0.08-1.15,0.99-1.77,1.44c-0.77,0.57-1.39,1.13-1.95,1.94c-0.14,0.33-0.27,0.66-0.41,0.99c-0.35,0.43-0.71,0.87-1.06,1.3   c-0.21,0.77-0.42,1.53-0.63,2.3c-0.46,0.93-0.57,3.78-1.12,4.33c-0.07,0.07-0.14,0.14-0.21,0.2l0.16,0.16   c0.16,0.05,0.32,0.1,0.48,0.16c1.03,0.52,2.2,1.57,2.94,2.45c0.68,0.57,1.36,1.14,2.04,1.7c0.67,0.62,1.24,1.71,2.19,1.88   c0.67,0.57,1.33,1.15,2,1.72c1.96,0.9,3.91,1.86,5.98,2.51c0.92,0.29,1.77,1.27,2.77,1.3c1.36,0.98,4.53,2.26,6.18,2.6   c1.13,0.24,2.41,1.46,3.58,1.3c0.29,0.24,0.84,0.61,0.81,0.98c1.34,0,2.46,0.16,3.74,0.49c-0.4,0.25-0.84,0.38-0.34,0.71   c1.22,0.68,2.76,0.51,4.08,0.43c0.38,0.05,0.76,0.11,1.14,0.16c0.76-0.02,1.95-0.43,2.6,0c1.25-0.38,2.5-0.76,3.74-1.14   c5.7-1.52,11.39-3.04,17.09-4.56c2.39-0.14,4.78-0.28,7.18-0.42c1.46-0.19,2.92-0.37,4.38-0.56c0.7-0.16,1.41-0.33,2.11-0.49   c0.65-0.22,1.31-0.43,1.96-0.65c0.35,0,2.3-0.72,2.44-0.39l-0.08-0.34c-0.23-0.23,0.71-0.42,0.88-0.5   c0.55-0.18,1.09-0.37,1.64-0.55c0.38-0.22,0.76-0.44,1.13-0.66c0.93-0.5,1.85-1,2.78-1.5c0.76-0.58,1.52-1.17,2.27-1.75   c1.81-1.02,3.63-2.03,5.44-3.05c2.58-0.99,5.16-1.98,7.75-2.97c0.92-0.27,1.84-0.54,2.77-0.81c0.88-0.44,1.78-1.01,2.77-1.14   c0.33-0.22,0.65-0.43,0.98-0.65c1.18-0.41,2.36-0.82,3.54-1.23c2.87-1.35,5.59-2.87,8.17-4.63c0.6-0.16,1.19-0.33,1.79-0.49   c0-0.47,1.07-0.64,1.48-0.77c0.49-0.23,0.97-0.46,1.45-0.7c0.89-0.26,1.77-0.53,2.66-0.79c1.01-0.23,2.03-0.45,3.04-0.68   c0.8-0.21,1.6-0.41,2.41-0.62c2.32-0.59,4.8-0.77,7.2-0.96c1.53-0.12,3.8,0.6,5.05-0.21c0,0,0.48-0.53,0.4-1.37   c0.26-1.36,0.78-2.46,1.39-3.68c0.27-0.53,0.54-1.05,0.81-1.58c0.68-1.71,1.42-3.37,2.44-4.93c1.01-0.29,3-3.18,3.58-4.07   c0.73-0.22,1.44-1.12,1.96-1.68c1.37-1.5,2.34-2.92,3.09-4.83C302.54,238.53,303.22,236.12,303.08,235.01z M230.36,234.2   c-0.45,0.75-1.19,1.78-0.49,2.6c-0.22,0.75-1.17,2.44-0.65,2.93c-0.14,0.04-0.27,0.09-0.41,0.13c-0.19,0.48-0.73-0.88-0.73-1.26   c-0.05-0.11-0.11-0.23-0.16-0.34c0.22-0.27,0.43-0.54,0.65-0.81c0.09-0.38,0.03-0.72,0.33-0.98c-0.27-1.03-0.54-2.06-0.81-3.09   c0-0.81,0-1.63,0-2.44c0.24-1,0.48-2.01,0.72-3.01c0.27,0.31,0.35,0.63,0.74,0.73c0.04,0.44,0.23,1.29,0,1.63   c0.26,0.63,0.53,1.26,0.79,1.89c0.06,0.4,0.12,0.8,0.18,1.21C230.47,233.65,230.42,233.93,230.36,234.2z"/>
            <circle cx="201.96" cy="219.14" r="1.586"/>
        </g>
        <g id="__Çan">
            <path d="   M397.52,244.13c-0.05-1.77-0.15-3.9-1.45-5.22c-0.5-0.51-2.24-1.54-2.94-1.29c-0.92-0.43-1.84-0.87-2.77-1.3   c-0.48-0.12-0.96-0.24-1.44-0.36c-0.78-0.32-1.55-0.64-2.33-0.96c-1.18-1.31-4.32-2.17-6-2.59c-0.71-0.22-2.88-0.76-3.58-0.98   c-1.88-2.5-3.26-3.79-5.91-5.64c-1.45-0.83-2.9-1.67-4.35-2.5c-1.79-0.6-3.58-1.19-5.37-1.79c-1.79-0.38-3.58-0.76-5.37-1.14   c-1.46-1.03-2.93-2.06-4.39-3.09c-1.38-1.07-4.36-0.95-6.02-0.98c-0.33,0.09-0.65,0.1-1,0.1c-0.43-0.08-1.15,0.05-1.44-0.26   c-1.58,0.26-2.99,0.66-4.23,1.79c0.02-0.01,0.03-0.03,0.05-0.04c0.01,0.23,0.02,0.46,0.03,0.68c0.08,0.17,0.63,1.06,0.29,0.95   c-0.25-0.09-0.69-0.13-0.71-0.28c-0.02-0.22-0.04-0.66-0.1-1.1c-0.56,0.26-1.12,0.51-1.67,0.77c-1.36,0.43-2.71,0.87-4.07,1.3   c-0.86,0.21-1.73,0.42-2.59,0.63c-0.85,0.92-3.22,1-4.4,1c-0.48,0-1.29-0.16-1.63,0.16c-0.33-0.16-0.65-0.33-0.98-0.49   c-0.78-0.21-1.44-0.06-2.15-0.43c-0.54-0.29-1.23-0.3-1.34-0.9c-0.66,0.43-0.9,0.19-0.9,0.19c-0.11-0.11-0.22-0.22-0.33-0.33   c-0.27-0.11-0.54-0.22-0.81-0.33c-3.32-1.45-10.13-0.7-13.14,1.04c-0.95,0.53-1.91,1.05-2.86,1.58c-0.27,0.22-0.57,0.59-0.93,0.47   c0.04,0.37,0.09,0.74,0.13,1.11c0.13,0.4,0.35,0.57,0.47,0.9c0.37,1.05,0.43,2.16,0.86,3.19c0.31,2.33,0.62,4.67,0.94,7   c0.14,1.11-0.54,3.52-0.12,4.23c-0.75,1.91-1.72,3.33-3.09,4.83c-0.51,0.56-1.22,1.47-1.96,1.68c-0.58,0.89-2.57,3.78-3.58,4.07   c-1.02,1.55-1.76,3.22-2.44,4.93c-0.27,0.53-0.54,1.06-0.81,1.58c-0.61,1.22-1.13,2.32-1.39,3.68c0.08,0.84,0.17,1.67,0.25,2.51   c0.95,1.56,1.72,3.31,2.28,5.05c0.16,0.49,0.33,0.98,0.49,1.46c0.43,0.53,0.83,1.6,1.46,1.79c0.32,0.72,0.45,1.21,0.89,1.85   c0.68,0.58,1.36,1.15,2.04,1.73c1.15,0.52,2.3,1.03,3.45,1.55c0.23,0.27,0.46,0.55,0.69,0.82c0.48,0.39,1.23,0.66,1.48,1.24   c0.98,2.58-1.44,5.37-1.07,8.07c0,0,0.36,4.28,5.38,7.86c0.87,0.98,1.74,1.95,2.6,2.93c1.26,1.94,2.32,3.92,3.58,5.86   c-0.08,0.57,0.94,2.01,1.3,2.44c1.02,1.23,2.25,1.89,3.58,2.77c1.06,1.1,2.11,2.21,3.17,3.31c1.66,1.49,3.33,2.98,4.99,4.47   c0.97,0.71,1.95,1.42,2.92,2.13c0.38,0.17,0.75,0.34,1.13,0.5c1.03,0.65,2.06,1.3,3.09,1.95c0.38,0.33,0.76,0.65,1.14,0.98   c0.78,0.6,1.61,0.7,2.28,1.46c0.48,0.53,1.15,1.91,1.63,2.44c0,0,1.95-0.87,3.09-1.46c0.22-0.22,0.43-0.43,0.65-0.65   c0.63-0.35,1.26-0.71,1.9-1.06c1.1-0.73,2.21-1.46,3.31-2.2c0.38-0.43,0.76-0.87,1.14-1.3c0.56-0.47,1.7-1.09,1.95-1.79   c0.17-0.82,0.34-1.63,0.5-2.45c0.12-0.43,1.08-1.53,1.45-1.7c0.54-0.9,1.08-1.79,1.62-2.69c-0.27-0.78,0.29-1.74,0.63-2.48   c0.36-0.87,0.72-1.75,1.08-2.62c0.46-0.79,0.93-1.59,1.39-2.38c0.39-0.64,0.78-1.28,1.17-1.92c0.58-1.02,1.16-2.04,1.74-3.06   c0.44-1.05,0.88-2.11,1.32-3.16c0.54-0.76,1.08-1.52,1.63-2.28c0.07-0.63,1.14-2.75,1.66-3.04c0.73-1.71,1.86-3.55,3.05-4.98   c1.1-1.32,2.24-2.82,3.75-3.7c0.98-1.14,1.95-2.28,2.93-3.42c-0.14-0.91,0.59-2.16,1.12-2.86c0.28-0.29,0.55-0.59,0.83-0.88   c0.28-0.4,0.57-0.8,0.85-1.21c0.37-0.79,0.73-1.58,1.1-2.38c0.6-0.76,1.19-1.52,1.79-2.28c0.84-1.79,2.26-3.11,3.42-4.72   c1.21-1.68,2.53-3.2,4.1-4.53c1.56-1.58,3.12-3.17,4.68-4.75c0.16-1.41,2.82-3.58,3.69-4.76c0.78-1.18,1.55-2.36,2.33-3.54h0.16   C398.19,244.91,397.82,244.37,397.52,244.13z"/>
            <circle cx="353.01" cy="257.72" r="1.586"/>
        </g>
        <g id="__Yenice">
            <path d="   M467.67,285.63c-1.09-2.56-1.8-5.11-3.66-7.25c-0.85-0.87-1.71-1.75-2.56-2.62c-0.69-0.51-1.39-1.01-2.08-1.52   c-0.69-0.31-2.6-1.22-3.25-0.98c-1.52-0.67-3.05-1.35-4.57-2.02c-0.92-0.31-3.04-0.78-3.62-1.5c-0.68-0.86-1.45-2.21-1.45-3.31   c0.07-2.24,1.92-3.74,3.33-5.29c0.69-0.52,1.39-1.03,2.08-1.55c0.09-0.32,0.19-0.64,0.28-0.97c0.07-0.11,0.14-0.22,0.21-0.34   c-0.05-0.94-0.1-1.88-0.16-2.81c0.05-0.2,0.1-0.4,0.16-0.61c-0.28-0.86-0.56-1.73-0.84-2.59c0.29-1.67-1.2-5.72-2.24-7   c-1.1-1.34-2.81-2.02-3.93-3.38c-0.52-0.7-1.04-1.39-1.56-2.09c-1.23-1-2.46-2-3.69-3c-0.53-0.39-1.05-0.77-1.58-1.16   c-1.01-1.33-2.02-2.66-3.04-3.99c0.16-0.36-0.11-0.69-0.22-1.05c-0.13-0.43-0.62-1.86-0.97-1.73l0.4-0.34   c-0.35,0.15-0.7,0.29-1.05,0.44c-1.35,1.08-2.92,2.08-4.55,2.72c-0.55,0.14-1.11,0.28-1.66,0.43c-0.31,0-0.62,0-0.94,0   c-0.98,0.47-1.97,0.94-2.95,1.41c-1.95,0.65-3.91,1.3-5.86,1.95c-0.66-0.53-2.42-0.71-3.25-0.68c-1.85,0.33-3.7,0.67-5.54,1   c-1.9,1.1-3.77,2.08-5.37,3.58c-0.62,0.56-0.69,0.91-1.3,1.46c-0.67,0.79-2.78,3.24-3.74,4.07h-0.16   c-0.78,1.18-1.55,2.36-2.33,3.54c-0.87,1.18-3.53,3.35-3.69,4.76c-1.56,1.58-3.12,3.17-4.68,4.75c-1.58,1.33-2.9,2.85-4.1,4.53   c-1.16,1.61-2.58,2.93-3.42,4.72c-0.6,0.76-1.19,1.52-1.79,2.28c-0.37,0.79-0.73,1.58-1.1,2.38c-0.28,0.4-0.57,0.8-0.85,1.21   c-0.28,0.29-0.55,0.59-0.83,0.88c-0.54,0.7-1.26,1.95-1.12,2.86c-0.98,1.14-1.95,2.28-2.93,3.42c-1.51,0.87-2.65,2.38-3.75,3.7   c-1.2,1.44-2.32,3.27-3.05,4.98c-0.51,0.29-1.59,2.41-1.66,3.04c-0.54,0.76-1.09,1.52-1.63,2.28c-0.44,1.05-0.88,2.11-1.32,3.16   c-0.58,1.02-1.16,2.04-1.74,3.06c-0.39,0.64-0.78,1.28-1.17,1.92c-0.46,0.79-0.93,1.59-1.39,2.38c-0.36,0.87-0.72,1.75-1.08,2.62   c-0.33,0.74-0.9,1.7-0.63,2.48c-0.54,0.9-1.08,1.79-1.62,2.69c-0.38,0.17-1.33,1.27-1.45,1.7c-0.17,0.82-0.34,1.63-0.5,2.45   c-0.25,0.7-1.39,1.32-1.95,1.79c-0.38,0.43-0.76,0.87-1.14,1.3c-1.1,0.73-2.21,1.46-3.31,2.2c-0.63,0.35-1.26,0.71-1.9,1.06   c-0.22,0.22-0.43,0.43-0.65,0.65c-1.14,0.6-2.28,1.19-3.42,1.79c-0.71,0.49-1.41,0.98-2.12,1.46c-1.22,1.83-2.44,3.65-3.66,5.48   c-0.62,0.94-1.25,1.88-1.87,2.82c-0.2,0.58-0.41,1.16-0.61,1.75c-0.22,0.52-0.44,1.04-0.66,1.56c0.52,0,0.05,0.64,0.44,0.57   c1.58-0.15,3.15-0.31,4.73-0.46c0.39,0.11,0.76,0.34,1.14,0.16c1.51,0.49,3.03,0.98,4.54,1.46c1.31,0.22,2.61,0.43,3.92,0.65   c1.9,0.6,3.8,1.19,5.7,1.79c1.48,0.41,3.03,0.31,4.55,0.33c0.82,0,1.63,0,2.45,0c2.12,0,4.23,0,6.35,0   c0.37,0.06,0.75,0.12,1.12,0.18c1.3,0.02,2.51,0.32,3.76,0.47c0.6,0.22,1.19,0.43,1.79,0.65c0.87,0.33,1.74,0.65,2.6,0.98   c1.14,0.87,2.27,1.73,3.41,2.6c1.56,1.44,3.11,2.89,4.67,4.33c0.09,0.6,1.1,1.59,1.61,1.99c0.11,0.49,1.28,1.62,1.7,1.98   c1.48,1.25,2.84,2.57,4.39,3.74c0.74,0.56,2.84,1.3,3.74,1.3c0.72,0.22,1.43,0.44,2.15,0.66c1.83,0.2,3.67,0.4,5.5,0.6   c0.16,0.01,0.33,0.03,0.49,0.05c0.02,0.15,0.04,0.31,0.06,0.46c0.61-0.28,2.29-0.5,2.71,0.03c0.54,0.05,1.09,0.11,1.63,0.16   c0.65,0,1.3,0,1.95,0c0.69-0.11,1.81-0.19,2.44,0.16c0.87,0,1.74,0,2.6,0c1.63-0.27,3.26-0.54,4.88-0.81   c0.98-0.74,1.99-1.48,3.09-1.95c0.93-0.99,1.85-1.98,2.78-2.98c1.08-1.18,2.16-2.36,3.24-3.53c0.22-0.33,0.43-0.65,0.65-0.98   c0.35-1.06,0.86-2.42,1.61-3.27c0.57-0.72,1.14-1.44,1.71-2.17c0.64-0.38,1.29-0.75,1.93-1.13c1.48-0.63,2.88-1.28,4.19-2.22   c0.49-0.36,1.4-0.74,1.63-1.31c1.74-0.92,3.47-1.84,5.21-2.77c1.01-0.4,2.01-0.8,3.02-1.2c0.95-0.52,1.89-1.05,2.84-1.57   c0.33-0.33,0.65-0.65,0.98-0.98c0.57-1.12,1.2-2.77,2.28-3.42c0.32-0.55,0.95-1.49,1.46-1.79c1.09-2.29,2.26-4.85,2.77-7.32   c0.07-0.91,0.13-1.83,0.2-2.74c0.13-1.36,0.25-2.72,0.38-4.08c0.48-2.83,0.51-5.84,1.29-8.62c0.79-2.78,2.32-4.81,3.82-7.23   c0.69-0.25,1.03-1.1,1.61-1.54c1.24-0.95,2.46-2.56,3.15-3.98c0.5-1.35,1-2.71,1.5-4.06c0.19-0.91,0.38-1.83,0.57-2.74   C468,287.91,467.83,286.77,467.67,285.63z M446.02,279.59c-0.58,0.45-1.07,0.65-1.95,0.67c0.14,0.58,0.28,1.16,0.42,1.74   c-0.18,0.28-0.28,0.33-0.25,0.7c-0.48,0.08-0.96,0.15-1.43,0.23c-1.25-0.16-1.59-1.34-2.96-0.07c-0.33,0.07-0.61,0.05-0.81,0.33   c-0.36,0.04-0.73,0.01-0.92,0.36c-0.35,0.73-0.69,1.4-0.71,2.25c-0.64,0.08-1.11-0.07-1.56,0.38c-0.1,0.33-0.21,0.67-0.31,1.01   c0.14,0.12,0.27,0.23,0.41,0.35c0.16,0.29,0.33,0.58,0.49,0.86c-0.05,0.27-0.11,0.54-0.16,0.81c0.22,0.32,0.36,0.39,0.33,0.81   c0.23,0.14,0.46,0.28,0.69,0.42c0.17,0.31,0.42,0.55,0.77,0.55c0.09,0.43,0.29,0.73-0.1,1c-0.49,0.34-1.85,0.18-2.34,0.46   c-0.18,0.1-0.03,0.34,0.33,0.65c0.44,0.1,0.7,0.04,1.14,0.16c0.33,0.22,0.36,0.24,0.65,0.49c-0.03,0.03,0.19,0.94,0.16,0.98   c-0.14,0.18-0.47-0.04-0.65,0c-0.58,0.24-1.74,0.51-1.46,0.98c-0.13,0.38,0.29,0.55,0.33,0.65c0.24-0.08,0.69-0.33,0.88-0.08   c0.14,0.24,0.27,0.48,0.41,0.72c-0.07,0.71-0.71,3.43-0.3,3.92c-0.15,0.32-0.31,0.48-0.16,0.81c-0.16,0.16-0.32,0.32-0.48,0.47   c-0.33,0.17-0.66,0.34-0.99,0.5c-0.64,0.22-1.14,0.26-1.79,0.49c-0.2,0.07-0.81,0.57-0.82,0.16c0-0.25-0.11-0.83-0.03-0.86   c0.97-0.33,3.26-1.73,3.41-2.43c0.07-0.1,0.14-0.19,0.2-0.29c0.08-0.84,0.16-1.68,0.24-2.52c-0.35-0.33-0.7-0.69-1.22-0.57   c-0.16-0.27-0.33-0.54-0.49-0.81c-0.03-0.19-0.06-0.39-0.09-0.58c0.14-0.37,1.32-0.85,1.01-1.25c0.02-0.1,0.04-0.19,0.06-0.28   c-0.66-0.15-1.4-0.51-1.65-1.01c0.07-0.29,0.69,0,0.51-0.29c0.07,0.03-0.44-0.29-0.21-0.31c0.83-0.11,1.82-0.22,2.66-0.34   c-0.02-0.13,0.02-0.36,0-0.49c-0.09-0.33-0.05-0.18-0.16-0.49c-0.99-0.67-1.93-1.01-1.46-2.44c-0.53-0.52-1.3-0.75-1.14-1.63   c0.18-0.95,1.49-2.36,2.44-1.79c0.04-0.2,0.08-0.4,0.13-0.61c0.25-0.26,0.4-0.7,0.2-1.02c0.18-0.14,0.36-0.27,0.54-0.41   c0.39-0.27,0.6-0.25,1.09-0.24c0.49-0.26,0.98-0.52,1.48-0.77c0.4-0.15,0.79-0.3,1.19-0.45c0.3-0.47,0.26-0.57-0.1-0.99   c-0.32-0.44,0.87-0.36,0.89-0.32c0.22,0.49,0.8,0.99,0.13,1.39c0.11,0.05,0.21,0.11,0.32,0.16c0.45,0.24,0.46,0.45,0.67-0.07   c0.14-0.4,0.06-0.83-0.18-1.24c0.05-0.27,0.11-0.54,0.16-0.81c0.65-0.26,1.11-0.26,1.79-0.33c0.01-0.12,0.01-0.24,0.02-0.36   c0.1-0.1,0.2-0.2,0.31-0.29c-0.34-0.26-1.62-1.11-1.4-1.61c0.55-1.08,1.59-1.37,2.71-1.62c0.27-0.04,0.35,0.25,0.48,0.46   c-0.66,0.23-1.61,0.6-1.68,1.36c-0.09,0.09-0.18,0.18-0.27,0.26C446,278.19,446.91,278.8,446.02,279.59z"/>
            <circle cx="403.46" cy="288.8" r="1.586"/>
        </g>
        <g id="__Biga">
            <path d="   M468.24,173.19c-0.07-0.95-3.03-0.88-4.02-1.24c-1.62-0.36-3.23-0.71-4.85-1.07c-2.72-0.88-5.44-1.75-8.16-2.63   c-0.44-0.2-0.88-0.39-1.31-0.59c-0.37-0.07-0.74-0.14-1.11-0.2c-2.17-1.03-4.34-2.06-6.51-3.09c-0.31-0.63-2.84-1.76-3.58-2.12   c-0.43-0.11-0.87-0.22-1.3-0.33c-0.54-0.33-1.08-0.65-1.63-0.98c-0.86-0.71-1.91-1.03-2.91-1.51c-0.61-0.41-1.22-0.83-1.84-1.24   c-0.75-0.33-1.5-0.67-2.25-1c-0.71-0.54-1.41-1.08-2.12-1.63c-2.64-1.65-5.67-2.86-7.99-5.04c-0.81-0.87-1.62-1.74-2.43-2.61   c-0.6-1.14-1.19-2.28-1.79-3.42c-0.22-0.76-0.43-1.52-0.65-2.28c0.33-0.45,0.66-0.9,0.99-1.35c0.39-0.56,0.54-0.97,1.04-1.49   c0.17-0.18,1.37-0.29,1.71-0.25c0.6-0.11,1.19-0.22,1.79-0.33c0.27-0.22,0.53-0.45,0.8-0.67c0.37-0.3-0.37-0.38-0.64-0.47   c0.03-0.46-0.41-0.74-0.65-1.14c0.06-0.61-1-2.03-1.3-2.6c-0.1-0.93-0.19-1.85-0.29-2.78c-0.23-0.81-0.46-1.62-0.69-2.43   c0.39-0.6-0.17-1.25-0.49-1.79c-0.22-0.05-0.43-0.11-0.65-0.16c-0.55-0.55-1.1-1.1-1.64-1.64c-0.94-0.16-1.2-0.75-1.79-1.44   c-1.15-1.35-2.59-3.06-2.26-4.89c0-0.67-2.44,0.29-2.74,0.41c-1.01,0.43-1.42,1.94-1.82,2.85c-0.61-0.19-1.26,0.89-1.63,1.3   c-0.68-0.28-2.55,0.84-3.31,1.2c-0.53,0.2-1.05,0.4-1.58,0.59c-0.81,0.54-1.63,1.09-2.44,1.63c-0.71-0.42-2.01,0.75-2.6,1.14   c-0.46-0.23-1.47,0.29-1.98,0.45c-0.2,0.06-0.77,2.03-0.79,2.32c-0.38,0.38-1.89,0.42-2.46,0.48c-0.7,0.08-1.21,0.27-1.94,0.17   c-1.42-0.9-2.85-1.8-4.27-2.7c-0.37-0.08-0.73-0.16-1.1-0.23c-0.96-0.79-1.91-1.59-2.87-2.38c-0.05,0.12-0.09,0.24-0.14,0.36   c-0.24,0.08-0.49,0.15-0.73,0.23c-0.56-0.12-2.18,0.44-2.93,0.49c-0.52-0.98-1.86-0.22-2.6,0c-0.44-0.44-1.14-0.59-1.72-0.21   c-0.24,0.23-0.48,0.47-0.72,0.7c-1.03,0.33-2.06,0.65-3.09,0.98c-0.43-0.05-0.87-0.11-1.3-0.16c-0.51,0.04-1.01,0.08-1.52,0.13   c-0.39,0.05-0.47,0.63-0.59,1.01c-0.58,0.02-0.76,0.39-1.14,0.81c-0.54,0.33-1.09,0.65-1.63,0.98c0,0.38,0,0.76,0,1.14   c-0.52-0.02-0.37-0.14-0.56,0.14c-0.89,1.06-2.46,0.6-3.5-0.14c0.26,0.96,0.81,1.61,1.19,2.54c0.25,0.69-0.35,1.5-0.53,2.18   c-0.34,0.04-1.69,1.26-1.95,1.63c-0.11,0.38-0.22,0.76-0.33,1.14c-1,0.51-1.71,0.9-2.44,1.79c-0.19,0.35-0.38,0.7-0.57,1.05   c0.05,1.26-0.58,1.55-1.55,2.21c-0.81,0-1.63,0-2.44,0c-0.48-0.3-1.74-0.27-2.17-0.02c-0.28-0.09,0.11,1.05,0.16,1.17   c0.51,1.28,0.78,2.63,1.36,3.9c0.63,0.45,1.52,2.5,1.79,3.26c0.67,0.51,0.48,1.65,0.98,2.28c0.47,0.59,0.46,1.38,0.62,2.12   c0.17,0.7,0.35,1.41,0.52,2.12c-0.27,1.2-0.55,2.4-0.82,3.6c-0.21,0.52-0.42,1.03-0.63,1.55c-0.04,0.22-0.73-0.01-0.82-0.11   c0.73,0.73-1.14,2.58-1.67,3.22c-1.48,1.88-2.97,3.76-4.45,5.64c-0.4,0.68-0.8,1.36-1.2,2.04c-0.49,0.49-0.98,0.98-1.46,1.46   c-0.16,0.05-0.33,0.11-0.49,0.16c0.27,1.49-0.31,1.41-0.91,2.69c-0.83,1.22-1.65,2.44-2.48,3.67c-0.77,1.57-1.54,3.14-2.3,4.71   c-1.74,2.44-3.47,4.88-5.21,7.32c-0.48,0.1-0.93,0.86-1.19,1.27c-0.82,1.29-1.64,2.59-2.47,3.88c-0.58,1.15-1.83,1.45-2.53,2.5   c-1.03,1.68-2.06,3.36-3.09,5.04c-0.33,2.59-0.08,4.86,0.33,7.32c-0.05,0.43-0.11,0.87-0.16,1.3c0.19,1.02,0.39,2.04,0.58,3.07   c0.11,0.59,0.79,0.61,1.34,0.9c0.71,0.38,1.37,0.23,2.15,0.43c0.33,0.16,0.65,0.33,0.98,0.49c0.33-0.33,1.15-0.16,1.63-0.16   c1.18,0,3.56-0.08,4.4-1c0.86-0.21,1.73-0.42,2.59-0.63c1.36-0.43,2.71-0.87,4.07-1.3c0.56-0.26,1.12-0.52,1.67-0.77   c-0.11-0.87-0.39-1.77-1.19-1.18c-0.91,0.1-1.81,0.21-2.72,0.32c-0.45,0.2-0.9,0.39-1.35,0.59c-0.65,0.29-1.3,0.59-1.95,0.88   c0.01-0.17,0.01-0.33,0.02-0.5c-0.01-0.29,0.31-0.26-0.06-0.39c-0.75-0.25-1.5-0.5-2.24-0.74c-0.71,0.16-1.41,0.33-2.12,0.49   c-0.46-0.12-0.61-0.27-0.98,0.16c-0.23-0.08-0.46-0.15-0.7-0.23c0.61-0.33,1.95-1.46,2.49-0.58c1.01-0.7,1.8-0.39,2.93-0.16   c0.55,0.11,1.45-0.14,1.46-0.81c0.48,0.13,1.22,0.47,1.3-0.33c0.98,0.2,1.82,0.19,2.41-0.71c0.39,0.06,0.36,0.07,0.26-0.29   c-0.19-0.97-0.37-1.94-0.56-2.91c0.12-0.36,0.13-0.67,0.49-0.81c-0.09-0.68-0.1-1.13,0-1.79c0.03,0.16,0.07,0.32,0.1,0.48   c0.13,0.68,0.68,2.05,0.39,2.77c0.27,0.11,0.54,0.22,0.81,0.33c-0.26,0.34-0.36,0.57-0.19,0.97c0.1,0.22,0.09,0.49,0.35,0.49   c0.31-0.06,0.62-0.11,0.93-0.17c0.07,0.11,0.14,0.22,0.21,0.33c0.5-0.12,1.26-0.14,1.46-0.65c0.56,0.2,1.51,0.61,2.07,0.25   c0.98-0.66,0.9-1.26,1.59-2.15c0.35-0.45,0.64-0.77,1.23-0.87c0.21-0.88,0.58-1.62,0.98-2.44c0.12,0.08,0.25,0.17,0.37,0.25   c0.51,0.35,0.63,1,0.44,1.53c-0.49,1.43-1.86,2.03-2.27,3.6c-0.02,0.22-0.03,0.44-0.05,0.66c-0.44,0.25-0.04,0.61,0.21,0.97   c-0.08,0.23-0.16,0.47-0.24,0.7c-0.44-0.56-0.89-1.19-1.39-1.05c-0.44,0.1-0.87,0.2-1.31,0.3c-0.44,0.58-1.25,0.71-1.93,0.81   c-0.28,0.04-0.83,0.48-0.81,0.69c0.01,0.31,0.02,0.63,0.04,0.94c1.23-1.09,2.62-1.49,4.18-1.75c0.3,0.31,0.98,0.24,1.46,0.26   c0.33-0.04,0.65-0.01,0.98-0.1c1.66,0.02,4.64-0.1,6.02,0.98c1.46,1.03,2.93,2.06,4.39,3.09c1.79,0.38,3.58,0.76,5.37,1.14   c1.79,0.6,3.58,1.19,5.37,1.79c1.45,0.83,2.9,1.66,4.35,2.5c2.64,1.85,4.03,3.14,5.91,5.64c0.71,0.22,2.88,0.76,3.58,0.98   c1.67,0.43,4.82,1.28,6,2.59c0.78,0.32,1.55,0.64,2.33,0.96c0.48,0.12,0.96,0.24,1.44,0.36c0.92,0.43,1.84,0.87,2.77,1.3   c0.71-0.25,2.44,0.78,2.94,1.29c1.3,1.33,1.4,3.45,1.45,5.22c0.3,0.24,0.67,0.79,0.98,0.81c0.96-0.83,3.07-3.28,3.74-4.07   c0.62-0.56,0.69-0.91,1.3-1.46c1.6-1.51,3.47-2.48,5.37-3.58c1.85-0.33,3.7-0.67,5.54-1c0.83-0.04,2.58,0.15,3.25,0.68   c1.95-0.65,3.91-1.3,5.86-1.95c0.98-0.47,1.97-0.94,2.95-1.41c0.31,0,0.62,0,0.94,0c0.55-0.14,1.11-0.29,1.66-0.43   c1.63-0.64,3.2-1.64,4.55-2.72c0.35-0.15,0.7-0.29,1.05-0.44c-0.07-1.64-0.14-3.29-0.21-4.93c0.26-1.36,0.53-2.71,0.79-4.07   c0.71-1.63,1.42-3.25,2.13-4.88c0.86-1.63,1.73-3.26,2.59-4.89c0.92-1.3,1.84-2.6,2.77-3.91c2.12-1.57,4.23-3.15,6.35-4.72   c1.55-1.87,3.1-3.74,4.64-5.61c0.53-0.48,0.89-0.54,1.54-0.74c0.79-0.82,1.58-1.64,2.37-2.46c0.95-0.61,2.79-1.4,3.33-2.43   c1.54-2.92,2.43-6.3,2.93-9.6c0.33-0.65,0.65-1.3,0.98-1.95c0.9-1.38,1.8-2.76,2.71-4.15c0.26-0.21,0.53-0.43,0.79-0.64   C468.58,173.38,468.25,173.45,468.24,173.19z"/>
            <circle cx="400.21" cy="196.19" r="1.586"/>
        </g>
    </g>
</svg>