<?xml version="1.0" encoding="UTF-8"?>
<!DOCTYPE svg PUBLIC "-//W3C//DTD SVG 1.1//EN" "http://www.w3.org/Graphics/SVG/1.1/DTD/svg11.dtd">
<svg version="1.1" id="HaritaCizim" xmlns="http://www.w3.org/2000/svg" xmlns:xlink="http://www.w3.org/1999/xlink" x="0px" y="0px" viewBox="0 0 450 509" preserveAspectRatio="none">
    <defs id="__def">
        <radialGradient id="f">
            <stop offset="0" stop-color="white" stop-opacity="1"/>
            <stop id="STOP1" offset=".4" stop-opacity="1"/>
            <stop offset="1" stop-color="white" stop-opacity=".2"/>
        </radialGradient>
        <filter id="__flt1" x="0" y="0" width="200%" height="200%" filterUnits="objectBoundingBox">
            <feGaussianBlur in="SourceAlpha" stdDeviation="3" result="blur1"/>
            <feSpecularLighting result="specOut" in="blur1" specularConstant="1.5" specularExponent="20" lighting-color="#bbbbbb">
                <feDistantLight azimuth="45" elevation="30"/>
            </feSpecularLighting>
            <feComposite in="specOut" in2="SourceAlpha" operator="in" result="specOut"/>
            <feComposite in="SourceGraphic" in2="specOut" operator="arithmetic" k1="0" k2="1" k3="1" k4="0"/>
        </filter>
        <filter id="__flt2" x="0" y="0" width="200%" height="200%" filterUnits="objectBoundingBox">
            <feGaussianBlur in="SourceAlpha" stdDeviation="3" result="blur1"/>
            <feSpecularLighting result="specOut" in="blur1" specularExponent="20" lighting-color="#bbbbbb">
                <fePointLight x="-2000" y="100" z="2000"/>
            </feSpecularLighting>
            <feComposite in="specOut" in2="SourceAlpha" operator="in" result="specOut"/>
            <feComposite in="SourceGraphic" in2="specOut" operator="arithmetic" k1="0" k2="1" k3="1" k4="0"/>
        </filter>
        <filter id="__flt3" x0="-50%" y0="-50%" width="200%" height="200%" filterUnits="objectBoundingBox">
            <feGaussianBlur in="SourceAlpha" stdDeviation="3" result="blur"/>
            <feOffset in="blur" dx="0" dy="0" result="offsetBlur"/>
            <feSpecularLighting in="blur" surfaceScale="4" specularConstant=".5" specularExponent="20" lighting-color="flavor" result="specOut">
                <fePointLight x="-5000" y="-10000" z="5000"/>
            </feSpecularLighting>
            <feComposite in="specOut" in2="SourceAlpha" operator="in" result="specOut"/>
            <feComposite in="SourceGraphic" in2="specOut" operator="arithmetic" k1="0" k2="1" k3="1" k4="0" result="litPaint"/>
            <feMerge>
                <feMergeNode in="offsetBlur"/>
                <feMergeNode in="litPaint"/>
            </feMerge>
        </filter>
        <filter id="__flt4" x0="-50%" y0="-50%" width="200%" height="200%">
            <feGaussianBlur in="SourceAlpha" stdDeviation="2" result="blur"/>
            <feOffset dy="-1" dx="-1"/>
            <feComposite in2="SourceAlpha" operator="arithmetic" k2="-1" k3="1" result="hlDiff"/>
            <feFlood flood-color="white" flood-opacity=".7"/>
            <feComposite in2="hlDiff" operator="in"/>
            <feComposite in2="SourceGraphic" operator="over" result="withGlow"/>
            <feOffset in="blur" dy="3" dx="3"/>
            <feComposite in2="SourceAlpha" operator="arithmetic" k2="-1" k3="1" result="shadowDiff"/>
            <feFlood flood-color="black" flood-opacity="1"/>
            <feComposite in2="shadowDiff" operator="in"/>
            <feComposite in2="withGlow" operator="over"/>
        </filter>
        <filter id="__golge1" x="0" y="0" width="200%" height="200%" filterUnits="userSpaceOnUse">
            <feOffset result="offOut" in="SourceAlpha" dx="8" dy="8"/>
            <feGaussianBlur result="blurOut" in="offOut" stdDeviation="3"/>
            <feBlend in="SourceGraphic" in2="blurOut" mode="normal"/>
        </filter>
    </defs>
    <g id="__Komsular" display="none">
        <path fill-rule="evenodd" clip-rule="evenodd" fill="none" stroke="#000000" stroke-width="0.25" stroke-miterlimit="10" d="   M164.67,46.43c0.11-1.16,0.54-2.39,0.3-3.61c-0.2-0.99-1.06-2.01-1.05-3.01c0.01-1.31,0.86-1.69,1.61-2.59   c0.88-1.04,0.99-1.79,1.24-3.12c0.45-2.38,1.2-4.51,1.2-7.06c0-2.5-0.99-4.34-2.45-6.28c-1.07-1.41-2.05-2.88-3-4.35   c-0.5-0.77-1.45-1.65-1.62-2.59c-0.2-1.06,0.43-1.91,0.72-2.86c1.16-3.84,0.59-8.22-2.67-10.97"/>
        <path fill-rule="evenodd" clip-rule="evenodd" fill="none" stroke="#000000" stroke-width="0.25" stroke-miterlimit="10" d="   M256.18,67.46c-0.8-1.05,0-2.19,0.57-3.16c0.72-1.23,1.04-1.29,2.1-1.98c2.34-1.51,3.89-1.95,6.79-2.08   c1.16-0.05,2.24-0.26,3.46-0.3c1.8-0.05,1.68-0.34,1.65-2.1c-0.03-2.13-0.28-4.67-1.95-6.16c-0.01-0.04-0.02-0.08-0.03-0.12   c-0.43,0.03-0.72-0.22-1.15-0.2c-0.93-5.59,5.14-4.65,8.69-5.2c1.53-0.24,3.87-1.3,5.12-2.44c1.26-1.16,2-2.53,3.87-3.03   c0.01-1.8,2.64-4.07,4.38-4.48c1.38-0.33,2.11,0.6,3.3,0.91c1.09,0.29,2.55,0.29,3.61,0.45c2.69,0.39,5.6,0.12,8.15-0.26   c1.06-0.16,2.91-0.75,3.87-0.65c0.74,0.08,0.74,0.56,1.35,0.77c0.89,0.3,2.93-0.16,3.63,0.59c0.48,0.52,0.68,2.41,0.89,3.16   c0.32,1.12,0.36,1.92,0.94,2.97c1.01,1.87,2.79,3.44,4.65,4.51c1.78,1.03,4.38,2.48,4.62,4.99c0.12,1.19-0.9,2.14-0.72,3.46   c0.15,1.06,0.87,2.11,1.43,3.01c0.99,1.6,2.51,2.59,3.91,3.64c1.76,1.32,3.64,1.42,5.63,2.03c2.06,0.64,3.99,1.68,6.16,1.8   c2.31,0.13,3.77,0.18,5.83,1.39"/>
        <path fill-rule="evenodd" clip-rule="evenodd" fill="none" stroke="#000000" stroke-width="0.25" stroke-miterlimit="10" d="   M305.91,117.2c2.32-1.21,5.19-0.09,7.36,0.72c1.19,0.44,2.03,0.91,3.31,1.09c1.64,0.22,3.22,0.44,4.81,0.72   c2.52,0.44,4.17,1.68,6.31,2.92c1.25,0.73,2.24,1.03,3.31,2.08c0.76,0.75,1.39,1.64,2.1,2.48c1.52,1.78,2.98,3.35,5.26,3.71   c2.4,0.38,4.7-0.31,6.76-1.24c3.8-1.71,10.3-1.73,13.41,1.16c1.64,1.53,3.52,2.9,5.23,4.35c2.03,1.72,4.09,1.98,6.87,1.81   c2.4-0.14,4.88-0.59,7.21-1.06c2.21-0.44,5-0.15,7.25-0.26c0.7-0.03,1.41,0,2.1,0"/>
        <path fill-rule="evenodd" clip-rule="evenodd" fill="none" stroke="#000000" stroke-width="0.25" stroke-miterlimit="10" d="   M372.17,359.25c1.6,0.01,2.02,0.4,3.34,1.16c1.09,0.62,2.21,1.44,3.55,1.21c2.62-3.96,6.01-7.5,9.2-11.1   c3.12-3.53,5.27-8.02,9.05-10.78c1.94-1.42,4.46-2.12,6.73-2.73c2.65-0.72,5.53-0.66,8.11-1.47c4.28-1.34,7.81-4.28,11.87-6.08   c1.4-0.62,2.99-0.78,4.32-1.5c1.61-0.87,3.07-2,4.69-2.86c2.43-1.28,6.57-3.16,7.21-6.13"/>
        <path fill-rule="evenodd" clip-rule="evenodd" fill="none" stroke="#000000" stroke-width="0.25" stroke-miterlimit="10" d="   M379.23,361.95c1.07,0.88,1.36,3.16,1.68,4.48c0.6,0.39,0.25,0.84,0.54,1.41c0.29,0.57,0.59,0.83,1.04,1.35   c0.69,0.79,1.03,1.84,1.73,2.49c1.3,1.2,3.77,2.02,5.33,2.93c1.49,0.87,1.4,0.99,2.14,2.51c0.62,1.27,1.28,1.85,1.51,3.3   c0.37,2.33,0.16,4.62-0.04,7.03c-0.21,2.5,1.05,4.09,3.35,5.3c2.1,1.1,4.94,0.36,7.2,1.09c1.95,0.63,4.06,1.27,5.83,2.55   c0.89,0.64,1.93,1.49,2.55,2.39c0.29,0.43,0.35,1.14,0.66,1.48c0.49,0.55,1.36,0.86,1.9,1.33c0.48-0.44,1.97-0.46,2.85-1.07   c0.93-0.64,1.79-1.32,2.71-1.96c1.73-1.19,4.88-3.37,6.95-2.06c1.93,1.21,2.07,4.22,3.49,5.96c1.51,1.86,4.23,3.23,6.39,2.1   c2.29-1.19,3.78-2.9,6.34-3.56c2.34-0.61,3.97-2.8,6.61-2.55"/>
        <path fill-rule="evenodd" clip-rule="evenodd" fill="none" stroke="#000000" stroke-width="0.25" stroke-miterlimit="10" d="   M108.18,447.75c-4.72-0.04-7.97,4.22-12.17,5.56c-2.28,0.73-4.61,1.28-6.92,1.92c-2.09,0.58-5.3,0.05-7.02,1.27   c-0.93,0.66-2.05,1.81-2.14,2.97c-0.11,1.33,0.83,2.07,1.32,3.16c0.78,1.72,1.4,4.83,0.76,6.76c-0.71,2.14-3.26,3.84-2.64,6.28   c0.57,2.27,2.19,3.66,3.88,4.96c1.91,1.48,3.96,2.92,5.7,4.57c1.98,1.88,3.22,3.56,6.28,2.79c1.09-0.28,1.96-1.1,3.04-1.32   c1.16-0.23,2.91,0.15,3.91,0.6c1.65,0.74,3.87,2.43,5.07,3.95c0.68,0.86,0.62,1.07,0.79,2.21c0.15,0.99,0.57,1.46,0.87,2.29   c0.31,0.86,0.13,1.95,0.48,2.71c0.36,0.79,1.09,1.51,1.69,2.18c1.96,2.18,3.47,6.76,6.73,7.55"/>
        <path fill-rule="evenodd" clip-rule="evenodd" fill="none" stroke="#000000" stroke-width="0.25" stroke-miterlimit="10" d="   M56.49,350.83c-2.28-0.87-4.8-1.08-7.18-1.99c-2.43-0.93-4.17-0.71-6.79-0.57c-4.89,0.26-10.81-0.73-14.57-3.91   c-1.57-1.33-3.11-2.4-4.02-4.36c-1.06-2.28-0.33-4.29-3.34-5.26c-2.62-0.85-4.61,0.69-6.92,1.66c-3,1.26-5,0.53-7.77-0.78   c-1.92-0.91-4.03-1.03-5.9-1.92"/>
        <path fill-rule="evenodd" clip-rule="evenodd" fill="none" stroke="#000000" stroke-width="0.25" stroke-miterlimit="10" d="   M64.76,190.07c-1.77-1.03-3.73-2.45-5.71-3.01c-2.26-0.64-5.11,0.32-7.37-0.47c-2.29-0.8-4.62-2.25-6.9-3.24   c-1.11-0.48-2.01-1.37-3.16-1.81c-1.09-0.42-2.4-0.36-3.61-0.48c-4.75-0.5-9.84-0.18-13.26-3.75c-1.45-1.51-2.34-3.75-3.72-5.41   c-1.47-1.78-1.99-4.41-2.56-6.62c-0.37-1.42-1.07-2.75-1.19-4.21"/>
        <text transform="matrix(0.4757 -0.8796 0.8796 0.4757 68.6389 86.1582)" font-family="'MyriadPro-Regular'" font-size="11">KASTSMONU</text>
        <text transform="matrix(0.858 0.5136 -0.5136 0.858 224.7236 16.9507)" font-family="'MyriadPro-Regular'" font-size="11">SİNOP</text>
        <text transform="matrix(0.8384 0.5451 -0.5451 0.8384 309.168 77.572)" font-family="'MyriadPro-Regular'" font-size="11">SAMSUN</text>
        <text transform="matrix(0.7047 0.7095 -0.7095 0.7047 381.9924 208.0811)" font-family="'MyriadPro-Regular'" font-size="11">AMASYA</text>
        <text transform="matrix(1 0 0 1 274.8083 466.0769)" font-family="'MyriadPro-Regular'" font-size="11">YOZGAT</text>
        <text transform="matrix(0.5532 0.833 -0.833 0.5532 28.187 392.1802)" font-family="'MyriadPro-Regular'" font-size="11">KIRIKKALE</text>
        <text transform="matrix(0.1884 0.9821 -0.9821 0.1884 23.8484 249.1191)" font-family="'MyriadPro-Regular'" font-size="11">ÇANKIRI</text>
    </g>
    <g id="__Harita" display="none">
        <rect id="__cer" x="0" y="0" fill="#000000" opacity="0" width="450" height="509"/>
        <g id="__Kargı">
            <path d="    M133.6,140.13c1.38,0,2.67,0.54,4.04,0.75c0.35,0.04,0.7,0.08,1.04,0.13c1.24,0.56,2.14,1.38,3.46,1.8    c1.24,0.39,2.62,0.24,3.88,0.68c1.29,0.45,2.19,1.4,3.29,2.15c0.35,0.24,0.9,0.4,1.09,0.77c0.73,0.31,2.2,0.61,2.55,1.35    c1.86,0.64,3.7,0.94,5.66,0.94c1.3,0,2.51-0.35,3.81-0.04l0.3-0.53c0.45-0.75,1.79-1.38,2.03-3.31c0.97-0.39,2.03-0.29,3.01-0.68    c0.6-0.26,1.22-0.95,1.58-1.28c1.04-0.95,1.37-1.83,1.98-3.14c0.39-0.98,0.79-1.96,1.18-2.94c0-0.38-0.01-1.21,0.02-1.67    c0.09-1.1,0.18-2.19,0.28-3.29c-0.05-0.5,0.16-2.43,0.11-2.93c0.25-2.8,0.24-4.18,0.49-6.99c-0.07-0.6,0.04-2.85,0.15-3.23    c0.38-0.38,1.42-0.86,1.2-0.83c0.52-0.19,1.32-0.12,1.88-0.04c0.53,0.07,0.71,0.11,1.24,0.23c0.45,0.2,0.68,0.48,1.13,0.68    c0.34,0.11,5.67,3.16,6.2,3.46c0.68,0.23,1.92,1.1,5.22,2.85c0.7,0.05,1.33,0.06,2.03,0.11c0.41-0.83,4.56-0.74,5.37-0.98    c1.16-0.34,1.24-0.94,2.07-1.43c0.65-0.2,1.57-0.66,2.22-0.86c0.85-0.45,0.8-0.56,1.65-1.01c1.29-0.96,2.97-1.85,4.09-3.01    c1.15-0.8,2-1.41,3.16-2.22c0.86-0.11,2.09-0.98,2.4-1.31c1.48-0.87,2.16-1.58,3.64-2.44c1.98-1.36,3.97-2.72,5.95-4.08    c1.48-1.07,2.39-1.78,4.01-2.39c0.28-0.53,0.61-0.65,0.89-1.18c1.51-0.52,2.58-1.52,3.74-2.55c0.96-0.86,1.42-1.91,2.16-2.92    c1.06,0,2.03-1.21,2.33-2.2c0.43-0.37,0.85-0.74,1.28-1.1c0.63,0,1.11-0.12,1.7-0.35c0.71-0.32,0.4-1.38,1.46-1.53    c0.47,0.22,0.91-1.8,1.49-2.2c0.69-0.48,1.75-1.45,2.57-1.18c0.11-0.57,1.03-0.99,1.5-1.35c0.36-0.79,0.71-1.58,1.07-2.37    c0.25-1.14,0.78-2.03,1.28-3.07c0.57-0.04,1.24-1.23,0.96-1.25c0.56,0.27,0.67-1.05,1.05-1.43l-0.6,0.08    c-0.3-0.3-1.2-0.68-1.5-0.98c-0.79-0.49-1.58-0.98-2.38-1.47c-1.96-1.46-3.93-2.92-5.89-4.39c-0.29-0.31-0.58-0.62-0.87-0.93    c-0.79-0.28-1.26-1.06-1.84-1.61c-1.04-0.99-2.05-1.87-3.31-2.56c-1.38-0.76-2.89-0.68-4.36-1.05c-0.55-0.1-1.1-0.2-1.65-0.3    c-2.79-0.17-6.54,0.12-8.66-2c-0.48-0.48-1.39-1.14-1.41-1.92c-0.08-2.41,2.02-3.62,2.55-5.61c0.03-0.37,0.05-0.75,0.08-1.12    c0.38-0.28,0.34-1-0.05-1.24c-0.61-0.44-1.21-0.89-1.82-1.33c-0.6-0.21-1.21-0.42-1.81-0.63c-0.37-0.02-0.91,0.1-1.2-0.12    c-0.55,0.2-1.1,0.4-1.65,0.6c-1.43,0.55-2.41,1.97-3.52,2.95c-0.48,0.32-0.96,0.64-1.44,0.96c-0.84,0.05-1.57,0.13-2.4,0    c-0.58-0.09-0.93,0.09-1.42-0.27c-0.74-0.58-2.01-1.39-2.34-2.28c-1.54-1.28-2.74-2.36-4.58-3.16c-2.89-1.26-7.65-1.24-10.3,0.45    c-0.75,0.3-1.5,0.6-2.25,0.9c-0.75,0-1.5,0-2.25,0c-0.6-0.1-1.2-0.2-1.8-0.3c-0.44-0.19-1.84-0.95-2.1-0.75    c-0.37-0.49-0.74-0.98-1.12-1.47c-0.32-0.4-1.26-2.23-1.44-2.29c-0.04-1.27-0.2-1.97-1.2-2.84c-0.01-0.36,0.09-0.28-0.15-0.36    c-0.75-0.14-1.51-0.27-2.26-0.41c-0.5,0-1,0-1.5,0c-0.6,0.25-1.2,0.5-1.8,0.75c-0.79,0.63-2.06,1.53-2.85,1.43    c-0.95-0.28-1.91-0.55-2.86-0.83c-0.06,0.11-0.12,0.22-0.18,0.33c-0.25,0.53,0.02,2.76,0.48,3.13c-0.05,0.55-0.1,1.1-0.15,1.65    c-0.24,0.39-0.75,0.9-0.75,1.35c-1.2,0.8-2.41,1.59-3.61,2.39c-0.54,0.5-1.06,1.7-1.8,1.82c-0.55,1.34-1.29,2.42-2.07,3.63    c-0.62,0.97-1.24,1.4-1.54,2.15c-0.04,0.37-0.82,0.59-1.08,0.39c-0.27-0.26-0.35-0.48-0.73-0.46c-0.3-0.55-0.6-1.1-0.9-1.65    c-0.07-0.33-0.14-0.65-0.21-0.98c-0.16-0.48-0.82-1.3-1.3-1.49c-2.42-0.99-4.31-2.01-6.91-2.53c-0.89-0.18-1.93-0.5-2.85-0.26    c-2.46,0.63-3.77,2.97-4.96,4.96c-0.28,0.39-0.56,0.78-0.84,1.17c-0.34,0.9-0.68,1.81-1.01,2.71c-0.18,0.51-0.37,1.02-0.55,1.53    c-1.28,2.51-2.57,5.02-3.85,7.54c-0.12,0.69-0.23,1.39-0.35,2.08c-0.35,0.75-0.7,1.5-1.05,2.25c-0.3,0.35-0.6,0.7-0.9,1.05    c-0.99,0.82-1.98,1.63-2.96,2.45c-0.46,0.33-0.93,0.67-1.39,1c-2.35,0.7-4.64,1.44-6.88,2.37c-1.1,0.46-3.48,1.78-3.48,3.18    c0.05,1.55,0.1,3.11,0.15,4.66c0.52,1.31,1.08,2.31,1.06,3.76c-0.02,1.61-1.62,2.5-1.28,4.14c0.42,1.32,0.85,2.65,1.27,3.97    c-0.09,0.93-0.02,1.99,0.3,2.85c0.06,0.7,0.13,1.41,0.19,2.11c0.06,0.52,0.45,2.73,0.26,3c0.3,0.7,0.6,1.4,0.9,2.1    c0.9,1.1,1.8,2.2,2.7,3.31c0.5,0.4,1,0.8,1.5,1.2c0.8,0.35,1.6,0.7,2.4,1.05c1.12,0.64,1.96,1.59,3.17,2.08    c0.71,0.28,3.24,1.4,3.89,1.08c1.27,0.9,2.53,1.79,3.8,2.69c0.15,0.44,0.43,0.88,0.86,1.07c0.55,1.1,1.1,2.2,1.65,3.31    c0.15,0.75,0.3,1.5,0.45,2.25c0,0.6,0,1.2,0,1.8c-0.3,0.93-0.46,1.98-1.03,2.8c-0.26,0.3-0.53,0.61-0.79,0.91    c-0.36,0.47-0.66,1.29-1.18,1.55L133.6,140.13z"/>
            <circle cx="170.76" cy="101.19" r="1.586"/>
        </g>
        <g id="__Osmancık">
            <path d="    M288.78,183.38c-0.05,0.2-0.05-1.71,0.05-2.24c0.34-1.8,1.03-3,1.74-4.71c1.38-3.33,4.84-5.65,6.33-9.12c0.3-1.3,0.6-2.6,0.9-3.91    c0.21-1.05,0.42-2.11,0.62-3.16c-0.01-0.57,0.18-2.17,0.28-2.4c-0.49-1.23-0.98-2.46-1.47-3.7c-1.18-1.92-2.36-3.84-3.54-5.76    c-0.44-0.71-0.87-1.41-1.31-2.12c-0.21-0.2-0.59-0.56-0.26-0.73c0.35-0.18-1.26-1.72-1.24-2.3c0-2.61,0.66-5.24,2.25-7.29    c0.25-0.32,1.97-1.16,2.4-1.18c1.05-0.9,1.88-1.25,3.28-1.94c1-0.49,1.91-0.83,2.83-1.47c0.72-0.79,1.44-1.58,2.16-2.37    c0.76-1.51,1.45-2.81,1.59-4.52c0.13-1.62-0.06-2.97-0.54-4.5c-0.16-0.5,0.24-1.07,0-1.5c0.3-0.45,0.6-0.9,0.9-1.35    c-0.21-0.05-0.42-0.11-0.63-0.16c-1.31-0.23-2.66-0.32-4.02-0.21c-0.43,0.03-1.07-0.21-1.36,0.23c-0.8-0.09-1.6-0.18-2.4-0.27    c-1.94-0.21-3.78-0.55-5.71-0.63c-0.6,0.05-1.2,0.1-1.8,0.15c-1.9,0-3.81,0-5.71,0c-1.2,0.15-2.4,0.3-3.61,0.45    c-0.9-0.06-1.8-0.12-2.7-0.18c-0.67-0.02-1.6,0.07-2.21-0.28c-1.72-0.6-3.43-1.2-5.15-1.8c-1.46-1.46-2.93-4.18-1.29-5.98    c1.68-1.81,4.45-2.11,6.55-3.34c1.12-0.65,1.87-1.59,2.85-2.4c0.35-0.4,0.7-0.8,1.05-1.2c0.25-0.65,0.5-1.3,0.75-1.95    c0-0.6,0-1.2,0-1.8c-1.04-1.29-1.41-2.55-2.25-3.91c-0.5-1.2-1-2.4-1.5-3.61c-0.16-0.7-0.33-1.41-0.49-2.11    c-0.99-1.58-2.74-2.91-4.54-3.55c-1.3-0.46-2.6-0.58-3.83-1.17c-0.3-0.28-0.61-0.55-0.91-0.83c-0.22-0.43-0.45-1.15-0.9-1.35    c-0.3-1.6-0.6-3.21-0.9-4.81c-0.72-1.6-1.44-3.2-2.16-4.79c-0.28-0.87-1.41-3.32-2.34-3.32c-1.12-0.25-2.44-0.44-3.59-0.29    c-0.5,0.07-0.54,0.28-0.92-0.16c-0.03,0.06-0.07,0.12-0.1,0.18c-0.22,0.34-0.43,0.68-0.65,1.02c-0.21,2.14-0.43,4.32-1.27,6.32    c-0.26,0.61-1.16,2.58-0.99,3.15c-0.25,0.4-0.74,0.9-0.75,1.35c-0.39,0.26-1.34,1.11-1.8,0.9c-0.38,0.38-0.49,1.69-1.05,1.43    c0.28,0.02-0.39,1.21-0.96,1.25c-0.5,1.05-1.02,1.93-1.28,3.07c-0.36,0.79-0.71,1.58-1.07,2.37c-0.47,0.36-1.39,0.78-1.5,1.35    c-0.82-0.27-1.87,0.7-2.57,1.18c-0.58,0.4-1.02,2.42-1.49,2.2c-1.05,0.15-0.75,1.21-1.46,1.53c-0.59,0.23-1.07,0.35-1.7,0.35    c-0.43,0.37-0.85,0.74-1.28,1.1c-0.3,0.99-1.27,2.2-2.33,2.2c-0.75,1.01-1.2,2.06-2.16,2.92c-1.16,1.03-2.23,2.03-3.74,2.55    c-0.28,0.53-0.61,0.65-0.89,1.18c-1.61,0.6-2.53,1.32-4.01,2.39c-1.98,1.36-3.97,2.72-5.95,4.08c-1.48,0.87-2.16,1.58-3.64,2.44    c-0.31,0.34-1.54,1.2-2.4,1.31c-1.15,0.8-2,1.42-3.16,2.22c-1.12,1.16-2.81,2.04-4.09,3.01c-0.85,0.45-0.8,0.56-1.65,1.01    c-0.65,0.2-1.57,0.66-2.22,0.86c-0.83,0.49-0.9,1.09-2.07,1.43c-0.81,0.24-4.97,0.15-5.37,0.98c-0.7-0.05-1.33-0.06-2.03-0.11    c-3.31-1.75-4.54-2.63-5.22-2.85c-0.53-0.3-5.86-3.34-6.2-3.46c-0.45-0.2-0.68-0.48-1.13-0.68c-0.53-0.11-0.71-0.15-1.24-0.23    c-0.55-0.08-1.35-0.15-1.88,0.04c0.22-0.03-0.83,0.45-1.2,0.83c-0.11,0.38-0.22,2.63-0.15,3.23c-0.25,2.8-0.24,4.18-0.49,6.99    c0.05,0.5-0.16,2.43-0.11,2.93c-0.09,1.1-0.18,2.19-0.28,3.29c-0.04,0.45-0.02,1.29-0.02,1.67c-0.39,0.98-0.79,1.96-1.18,2.94    c-0.6,1.31-0.94,2.19-1.98,3.14c-0.36,0.33-0.98,1.01-1.58,1.28c-0.97,0.39-2.03,0.29-3.01,0.68c-0.23,1.93-1.58,2.55-2.03,3.31    l-0.3,0.53c1.4,1.16,1.76,1.47,3.16,2.63c0.15,0,1.8,1.2,2.55,1.58c0.95,0.83,1.91,1.66,2.86,2.49c1.08,1.25,2.21,2.41,3.45,3.52    c1.13,0.76,2.26,1.51,3.39,2.27c0.86,0.63,1.94,1.06,2.96,1.35c0.63,0.2,1.26,0.4,1.89,0.61c1.92,0.97,3.84,1.94,5.77,2.92    c1,0.5,3.3,1.41,3.26,1.72c0,0-0.01-0.19,0.46-0.33c1.36-0.39,2.71-0.78,4.07-1.17c2.57-1.07,5.31-1.97,8.11-1.8    c0.42,0.18,0.84,0.36,1.26,0.54c0.78,0.42,1.57,0.85,2.35,1.27c0.96,0.47,2.16,2.76,2.85,3.61c0.27,0.33,0.7,1.23,0.97,1.1    c0.83-0.42,1.66-0.84,2.48-1.25c2.26-0.53,4.55-0.36,6.76,0.15c0.7,0.05,1.4,0.1,2.1,0.15c0.57-0.06,2.82-0.42,3.16-0.15    c0.72-0.32,1.48-0.61,2.26-0.62c3.24-0.05,6.23,0.88,9.16,1.98c0.89,0.33,2.22,0.6,2.7,1.5c0.5,0.25,1,0.5,1.5,0.75    c2.3,0.15,3.68,1.53,5.26,3.01c1.17,1.1,2.75,1.31,4.08,2.14c1.14,0.71,1.93,1.95,2.53,3.12c0.39,0.63,0.78,1.26,1.17,1.89    l0.42,0.68c0.92-0.93,2.04-1.63,3.67-1.97c0.5,0.05,1,0.1,1.5,0.15c1.3-0.12,2.77-0.55,4.06-0.15c2-0.45,4.01-0.9,6.01-1.35    c1.44-0.04,2.87-0.07,4.31-0.11c2.28-0.22,4.42-0.48,6.64,0.04c1.86,0.32,3.72,0.65,5.57,0.97c0.47,0.35,1.15,1.41,1.65,1.35    V183.38z"/>
            <circle cx="239.05" cy="148.3" r="1.586"/>
        </g>
        <g id="__Dodurga">
            <path d="    M195.98,190.28c-0.32-0.15-0.64-0.29-0.96-0.44c0.21-0.38-0.4-1.19-0.56-1.67c-0.16-1.25-0.33-2.49-0.49-3.74    c-0.5-3.41-1-6.81-1.5-10.22c-0.37-2.09-0.96-4.43-0.77-6.47l0.46-0.33c1.36-0.39,2.71-0.78,4.07-1.17    c2.57-1.07,5.31-1.97,8.11-1.8c0.42,0.18,0.84,0.36,1.26,0.54c0.78,0.42,1.57,0.85,2.35,1.27c0.96,0.47,2.16,2.76,2.85,3.61    c0.27,0.33,0.7,1.23,0.97,1.1c0.83-0.42,1.66-0.84,2.48-1.25c2.26-0.53,4.55-0.36,6.76,0.15c0.7,0.05,1.4,0.1,2.1,0.15    c0.57-0.06,2.82-0.42,3.16-0.15c0.72-0.32,1.48-0.61,2.26-0.62c3.24-0.05,6.23,0.88,9.16,1.98c0.89,0.33,2.22,0.6,2.7,1.5    c0.5,0.25,1,0.5,1.5,0.75c2.3,0.15,3.68,1.53,5.26,3.01c1.17,1.1,2.75,1.31,4.08,2.14c1.14,0.71,1.93,1.95,2.53,3.12    c0.39,0.63,0.78,1.26,1.17,1.89c0.14,0.29,0.42,0.68,0.42,0.68c-0.92,0.93-1.64,2.09-2.48,3.37c-0.91,1.39-2.13,2.68-2.71,4.28    c-0.36,0.44-0.73,0.89-1.09,1.33c-0.57,0.52-1.15,1.03-1.72,1.55c-1.53,1.28-3.46,1.78-5,2.98c-0.6,0.65-1.2,1.3-1.8,1.95    c-0.29,0.56-0.59,1.11-0.88,1.67c-0.76,1.14-1.52,2.29-2.29,3.43c-0.86,1.24-1.72,2.49-2.58,3.73c-0.25,0.31-0.82,1.65-1.16,1.31    l0.3,0.38c-0.5,0-0.58-0.57-0.9-0.9c-0.19-0.19-0.49-0.49-0.75-0.45c-0.58-0.51-1-1-1.71-1.26c-0.48-0.13-0.96-0.26-1.45-0.39    c-0.85-0.35-1.7-0.7-2.55-1.05c-1.77-0.86-3.53-1.72-5.3-2.58c-0.59-0.14-1.17-0.28-1.76-0.43c-1-0.6-2-1.2-3.01-1.8    c-1.48-1.52-2.51-3.37-3.88-4.97c-0.31-0.4-0.62-0.8-0.93-1.19c-0.25-0.75-0.5-1.5-0.75-2.25c0.1-0.82,0.44-1.88,0.9-2.55    c0.18-0.26,0.3-0.3,0.37-0.63c0.11-0.54-0.01-2.08,0.23-2.37c-0.17-0.66-1.27-2.71-1.98-2.42c-1.79,0.76-3.58,1.52-5.37,2.29    c-0.94,0.76-1.88,1.52-2.83,2.28c-0.34-0.07-2.39,1.34-2.51,1.6c-0.19,0.4-0.46,0.65-0.84,0.85    C198.93,192.02,196.88,190.73,195.98,190.28z"/>
            <circle cx="243.71" cy="182.25" r="1.586"/>
        </g>
        <g id="__İskilip">
            <path d="    M139.88,280.52c1.57-0.62,1.99-3.87,2.89-5.22c1.23-1.83,2.5-3.46,4.35-4.66c3.79-2.45,8.04-2.98,11.87-4.99    c2.19-1.15,4.59-2.27,6.6-3.57c0.6-0.39,0.65-0.58,1.32-0.79c0.68-0.21,1.25,0.16,1.8-0.3c0.69-0.57,1.06-2.21,1.5-3.01l0.54-0.53    c0.21-0.44,0.42-0.89,0.62-1.33c0.26-0.31,0.53-0.61,0.79-0.92c1.96-0.77,3-0.88,4.47-2.6c0.3-0.35,1.52-1.25,1.54-1.46    c0.17-0.03,0.35-0.05,0.52-0.08c0.83,0.94,1.15,2.46,2.47,2.87c0.18,0.41,0.03,0.38,0.33,0.32c0.79-0.09,1.59-0.18,2.39-0.27    c0.95-1,1.9-2,2.85-3c0.26-0.12,0.53-0.16,0.75,0c0.5-0.4,1-0.8,1.5-1.2c0.45-0.25,0.9-0.5,1.35-0.75    c1.98,0.54,3.93-1.18,5.24-2.53c0.96-0.56,1.92-1.12,2.88-1.68c0.95-0.05,1.9-0.1,2.85-0.15c0.64-1.06,1.66-1.47,2.7-2.1    c-0.28-0.28,0.42-0.72,0.66-0.96c0.39-0.39,0.79-0.78,1.18-1.17c0.52,0.07,1.51-0.52,1.91-0.87c0.78-0.68,1.67-1.84,2.06-2.73    c0.58-0.62,1.16-1.25,1.75-1.87c0.55-0.49,1.1-0.97,1.66-1.46c0.55-0.45,1.79-1.19,2.5-1.15c1.17-0.87,2.34-1.75,3.51-2.62    c0.46-0.55,1.15-1.36,1.15-1.36c-0.25-0.27-0.83-0.29-1.08-0.56c-1.56-0.26-3.15-0.8-4.39-1.73c-0.68-0.31-1.36-0.62-2.04-0.93    c-0.7-0.55-1.4-1.1-2.1-1.65c-0.14-0.6-1.58-1.75-2.07-2.29c-1.95-2.15-4.38-3.75-6.94-5.07c-0.44-0.1-0.88-0.19-1.32-0.29    c-0.01-0.05-0.02-0.11-0.03-0.16c0-0.57,0.33-0.67,0-1.35c-0.72-1.49-0.07-2.03-1.54-3.22c-0.74,0.22-1.48,0.44-2.22,0.66    c-0.24-0.46-1.26-0.55-1.8-0.75c-0.28,0.27-1.3,0.03-1.5,0c0.07-0.17,1.05-1.6,1.35-1.95c0.16-1.6,0.31-3.21,0.47-4.81    c0.04-0.35,0.09-0.7,0.13-1.05c0.45,0.08,0.57-0.36,0.93-0.64c0.79-0.54,1.59-1.08,2.38-1.62c-0.06-0.48,0.34-0.81,0.6-1.2    c0.05-0.65,0.1-1.3,0.15-1.95c-0.05-1.84-0.05-3.69-0.4-5.52c-0.18-0.97-2.11-1.56-3-2c-0.32-0.15-0.64-0.29-0.96-0.44    c0.21-0.38-0.4-1.19-0.56-1.67c-0.16-1.25-0.33-2.49-0.49-3.74c-0.5-3.41-1-6.81-1.5-10.22c-0.37-2.09-0.96-4.43-0.77-6.47    c0.04-0.31-2.26-1.22-3.26-1.72c-1.92-0.97-3.84-1.94-5.77-2.92c-0.63-0.2-1.26-0.4-1.89-0.61c-1.02-0.3-2.11-0.72-2.96-1.35    c-1.13-0.76-2.26-1.51-3.39-2.27c-1.24-1.1-2.37-2.26-3.45-3.52c-0.95-0.83-1.91-1.66-2.86-2.49c-0.75-0.38-2.4-1.58-2.55-1.58    c-1.4-1.16-1.76-1.47-3.16-2.63c-1.3-0.31-2.51,0.04-3.81,0.04c-1.96,0-3.8-0.31-5.66-0.94c-0.36-0.74-1.82-1.04-2.55-1.35    c-0.19-0.38-0.73-0.53-1.09-0.77c-1.1-0.75-2-1.7-3.29-2.15c-1.26-0.44-2.65-0.29-3.88-0.68c-1.31-0.42-2.22-1.25-3.46-1.8    c-0.35-0.04-0.7-0.08-1.04-0.13c-1.38-0.21-2.67-0.75-4.04-0.75c-0.93,0.07-1.57,0.99-2.3,1.62c-1.05,0.9-2.09,1.81-3.14,2.71    c-0.13,0.88-1.03,1.69-1.5,2.4c-0.75,0.44-1.51,0.88-2.26,1.32c-1.01,0.72-1.99,1.55-2.7,2.59c-0.84,1.21-1.25,4.96-1.34,6.49    c-0.06,1.07-0.49,2.02-0.46,3.12c-0.05,0.44-0.1,0.89-0.15,1.33c-0.3,1.56-0.6,3.12-0.9,4.68c-0.25,0.8-0.5,1.6-0.75,2.4    c-0.21,0.39-0.69,1-0.5,1.42c-0.23,0.39-0.45,0.77-0.68,1.16c-0.36,1.55-0.72,3.09-1.08,4.64c-0.55,1.7-1.1,3.41-1.65,5.11    c-0.3,0.38-0.52,0.53-1.01,0.74c-1.4,0.75-2.8,1.5-4.21,2.24l-0.81,0.36c0.41,0.28,1.22,1.26,1.67,1.17    c0.35,0.44,0.84,1.38,1.35,1.5c0.58,1.21,1.17,2.42,1.75,3.63c0.43,1.03,0.85,2.06,1.28,3.09c0.8,1.53,1.61,3.06,2.41,4.59    c0.64,0.84,1.28,1.67,1.92,2.51c0.49,1.23,0.99,2.46,1.48,3.69c0.66,0.77,1.32,1.55,1.98,2.32c0.45,1.1,0.9,2.2,1.35,3.31    c0.4,0.75,0.8,1.5,1.2,2.25c0.86,1.05,1.71,1.93,2.71,2.84c0.4,0.36,0.8,0.71,1.19,1.07c0.4,0.2,0.8,0.4,1.2,0.6    c0.35,0.03,0.7,0.06,1.04,0.09c0.71,0.18,2.57-0.16,2.86-0.84c0.44-0.07,1.03,0,1.35-0.3c0.85,0.2,1.7,0.4,2.55,0.6    c1.26,0.65,2.39,1.37,3.49,2.29c0.54,0.54,1.08,1.08,1.62,1.62c0.47,1.18,0.69,2.33,1,3.54c0.12,0.44,0.52,1.01,0.35,1.42    c0.3,0.9,0.6,1.8,0.9,2.7c0.14,1.5,0.28,3,0.42,4.5c0.06,1.16,0.12,2.31,0.18,3.47c0.75,2,1.5,4.01,2.25,6.01    c0.35,1.2,1,1.95,1.35,3.16c0.04,0.75,0.34,1.32,0.19,2.03c0.18,0.5,0.05,1.34-0.04,1.8c-0.49,1.76-0.38,1.92-1.95,3.19    c-0.58,0.47-2.55,1.19-3.34,1.28c-0.28,0.28-1.16,1.01-1.73,1.31c-0.9,0.86-1.57,1.5-2.6,2.55c-0.3,0.4-0.6,0.8-0.9,1.21    c-0.45,0.9-0.9,1.8-1.35,2.7c-0.41,1.47-0.32,3.16-0.3,4.65c0,0.7,0,1.41,0,2.11c0.46,1.29,0.93,2.59,1.39,3.88    c0.44,1.36,0.87,2.72,1.31,4.08c-0.03,0.78,0.11,3.74-0.55,4.01L139.88,280.52z"/>
            <circle cx="166.48" cy="218.31" r="1.586"/>
        </g>
        <g id="__Bayat">
            <path d="    M92.63,292.79c-0.05-0.83-0.1-1.08-0.08-1.83c-0.13-1.6-0.23-3.46-0.3-5.26c-0.2-0.9-0.4-1.8-0.6-2.7c-0.2-1.55-0.4-3.11-0.6-4.66    c0.06-1.1,0.12-2.19,0.18-3.29c0.09-0.61,0.18-1.21,0.27-1.82c0.05-1.1,0.1-2.2,0.15-3.31c-0.55-0.97-2.15-3.71-3.31-3.91    c-0.7-0.6-1.4-1.2-2.1-1.8c-0.6-0.7-1.2-1.4-1.8-2.1c-0.3-1-0.38-1.82-0.42-2.85c0.09-0.6,0.18-1.21,0.27-1.81    c0.47-1.24,0.94-2.49,1.4-3.73c1.73-3.92,3.96-7.71,4.91-11.9c0.39-1.73,1.26-3.46,1.35-5.26c0.09-1.71-1.34-2.66-2.39-3.73    c-0.28-0.28-0.56-0.56-0.84-0.84c-1.13-0.78-2.25-1.56-3.38-2.34c-0.46-0.65-1.59-2.87-2.25-3c-0.85-1.62-1.61-3.07-2.7-4.51    c-0.6-1.25-1.2-2.5-1.8-3.76c-0.25-2.76,0.19-5.33,1.35-7.81c1.58-3.36,3.9-5.75,3.46-9.77c-0.57-1.02-1.44-1.68-2.29-2.47    c-1.84-0.23-3.68-0.45-5.52-0.68c-1.38-0.26-3.78-1.76-4.96-2.55c-1.54-1.32-3.07-2.64-4.61-3.96c-0.47-0.58-0.93-1.16-1.4-1.75    c0.49-0.54,0.88-0.95,1.5-1.35c0.31-0.14,0.61-0.29,0.92-0.43c0.26-0.22,0.68-0.67,1.04-0.62c2.03-2.09,4.93-3.47,7.81-3.87    c0.73-0.1,2.53-0.5,3.16-0.18c1.27-0.32,3.24-0.21,4.5,0.09c2.92,0.69,5.75,1.35,8.72,1.71c1.17,0.14,2.14,0.99,3.31,1.01    c0.67,0.01,3-0.29,3.45-0.71c0.5-0.1,1-0.2,1.5-0.3c1.3-0.02,2.6-0.04,3.9-0.06c0.81-0.09,3.16-0.59,3.75-0.21    c0.41,0.28,1.22,1.26,1.67,1.17c0.35,0.44,0.84,1.38,1.35,1.5c0.58,1.21,1.17,2.42,1.75,3.63c0.43,1.03,0.85,2.06,1.28,3.09    c0.8,1.53,1.61,3.06,2.41,4.59c0.64,0.84,1.28,1.67,1.92,2.51c0.49,1.23,0.99,2.46,1.48,3.69c0.66,0.77,1.32,1.55,1.98,2.32    c0.45,1.1,0.9,2.2,1.35,3.31c0.4,0.75,0.8,1.5,1.2,2.25c0.86,1.05,1.71,1.93,2.71,2.84c0.4,0.36,0.8,0.71,1.19,1.07    c0.4,0.2,0.8,0.4,1.2,0.6c0.35,0.03,0.7,0.06,1.04,0.09c0.71,0.18,2.57-0.16,2.86-0.84c0.44-0.07,1.03,0,1.35-0.3    c0.85,0.2,1.7,0.4,2.55,0.6c1.26,0.65,2.39,1.37,3.49,2.29c0.54,0.54,1.08,1.08,1.62,1.62c0.47,1.18,0.69,2.33,1,3.54    c0.12,0.44,0.52,1.01,0.35,1.42c0.3,0.9,0.6,1.8,0.9,2.7c0.14,1.5,0.28,3,0.42,4.5c0.06,1.16,0.12,2.31,0.18,3.47    c0.75,2,1.5,4.01,2.25,6.01c0.35,1.2,1,1.95,1.35,3.16c0.04,0.75,0.34,1.32,0.19,2.03c0.18,0.5,0.05,1.34-0.04,1.8    c-0.49,1.76-0.38,1.92-1.95,3.19c-0.58,0.47-2.55,1.19-3.34,1.28c-0.28,0.28-1.16,1.01-1.73,1.31c-0.9,0.86-1.57,1.5-2.6,2.55    c-0.3,0.4-0.6,0.8-0.9,1.21c-0.45,0.9-0.9,1.8-1.35,2.7c-0.41,1.47-0.32,3.16-0.3,4.65c0,0.7,0,1.41,0,2.11    c0.46,1.29,0.93,2.59,1.39,3.88c0.44,1.36,0.87,2.72,1.31,4.08c-0.03,0.78,0.11,3.74-0.55,4.01c-0.75,0.26-1.97,0.66-2.75,0.5    c-1.16,0.43-2.33,0.86-3.49,1.29c-0.86-0.01-1.71-0.02-2.57-0.03c-0.08,0.08-0.17,0.16-0.25,0.24c-0.55,0-1.1,0-1.65,0    c-0.44,0.06-0.77,0.41-1.2,0.3c-0.4,1.15-2.13,1.08-3.16,1.5c-1.28,0.52-2.2,1.82-3.61,2.1c-0.69,0.92-1.46,2.23-1.5,3.46    c0.33,1.16,0.66,2.32,0.99,3.47c0.17,0.8,0.34,1.59,0.51,2.39c-1.21,4.54-5.24,5.38-9.22,6.41c-0.66,0.23-2.05,0.5-2.7,0.73    c-0.45-0.01-1.65,0.49-2.1,0.48c-0.4,0.05-1.53,0.2-1.83,0.03c-0.36-0.24-0.48-0.4-0.83-0.88c-0.08-0.26-0.16-0.53-0.23-0.79    c-0.28-1.43-0.34-2.8-0.32-4.34c0.01-0.42-0.08-1.13-0.05-1.63c-0.2-1,0.08-1.4-0.13-2.4c-0.65-0.7-2.73-1.85-3.48-2.1    c-0.75-0.33-2.15-0.35-3.08,0.08c-0.62,0.28-0.78,0.41-1.25,0.88c-0.38,0.23-0.85,0.68-1.23,1c-0.36,0.66-0.98,1.43-1.23,1.75    C92.83,294.47,92.63,292.84,92.63,292.79z"/>
            <circle cx="119.45" cy="243.56" r="1.586"/>
        </g>
        <g id="__Sungurlu">
            <path d="    M159.43,428.2c-0.67-0.12-0.42-2.83-0.46-3.53c-0.16-3.45,1.16-5.25,2.3-8.32c0.54-1.07,1.07-2.13,1.61-3.2    c0.71-0.61,1.36-1.62,2.24-2c1.33-0.56,2.85-0.8,4.19-1.39c0.26-0.19,0.51-0.38,0.77-0.56c0.75-0.35,1.5-0.7,2.25-1.05    c0.26-0.46,1-0.69,1.5-0.75c0.25-0.84,2.18-2.61,3-3.16c0.04-0.37,0.25-0.46,0.45-0.75c0.1-0.25,0.2-0.5,0.3-0.75    c0.4-0.55,0.8-1.1,1.2-1.65c0.41-0.4,0.81-0.8,1.22-1.19c0.19-0.3,0.39-0.61,0.58-0.91c0.79-0.07,1.2-0.96,1.65-1.5    c2.1-1.16,4.2-2.33,6.3-3.49c1.86-1.24,3.72-2.48,5.57-3.72c0.64-0.09,1.28-0.17,1.93-0.26c0.84-0.13,2.17,1.23,2.69,1.94    c0.46,0.54,0.93,1.08,1.39,1.62c-0.08,0.96,1.36,2.57,1.96,3.3c0.46,0.35,0.91,0.69,1.37,1.04c0.4,0.5,0.8,1,1.2,1.51    c0.51,0.68,2.32-0.04,2.99-0.24c0.05-0.01,0.09-0.03,0.14-0.04c0.5-0.83-0.13-2.25,0-3.03c0.05-0.25,0.24-0.76,0.5-0.99    c0.76-0.77,1.34-1.09,2.36-1.22c0.01,0,2,0.56,2.1,0.58l0.3,0.23c-0.53-0.71-2.02-3.27-2.55-3.98c-0.86-1.72-2.65-3-3.46-4.81    c0.19-0.42-0.03-0.75-0.15-1.2c0.05-1.05,0.1-2.1,0.15-3.16c0.1-0.35,0.2-0.7,0.3-1.05c0.71-0.55,0.9-1.58,0.8-2.39    c-0.11-0.78-0.96-1.23-1.4-1.82c-0.45-0.75-0.9-1.5-1.35-2.25c0.05-0.89,0.1-1.78,0.16-2.67c0.15-0.66,0.3-1.32,0.45-1.99    c0.35-0.6,0.7-1.2,1.05-1.8c-0.19-0.28,0.02-0.6,0.09-0.92c0.05-0.27-0.57-1.89-0.93-2.03c-0.42-0.87-1.21-1.24-1.87-1.86    c-0.35-0.5-0.7-1-1.05-1.5c-0.05-0.25-0.1-0.5-0.15-0.75c0.06-0.61,0.12-1.23,0.18-1.84c0.19-0.63,0.46-1.09,0.87-1.62    c0.45-0.41,1.17-0.91,1.05-1.35c-0.3-1.16-1.19-2.41-1.61-3.47l-0.07,0.17c-0.05-0.42-0.05-1.08-0.31-1.26    c-0.93-0.74-1.71-1.53-2.82-2.05c-0.82-0.38-3.27-0.29-3.64-1.29c-0.49-1.22-0.98-2.44-1.47-3.67c-0.25-0.4-0.5-0.8-0.75-1.2    c-0.35-0.35-0.7-0.7-1.05-1.05c-1.82-1.02-3.65-2.04-5.47-3.06c-0.13-0.35-1.47-1.15-1.89-1.3c-0.34-0.12-0.97-0.44-1.05-0.75    c-1.09-0.64-2.07-1.37-3.16-2.1c-0.35-0.15-0.7-0.3-1.05-0.45c-1.05-0.7-2.1-1.4-3.16-2.1c-0.55-0.4-1.1-0.8-1.65-1.2    c-1.92-0.89-3.73-3.69-5.86-3.91c-0.25-0.4-0.39-0.97-0.39-0.97c-0.39,0.08-0.78,0.16-1.16,0.23c-0.36,0.18-1,0.06-1.46,0.13    c-0.41,0.14-0.81,0.28-1.22,0.41c-2.06,0.66-4.12,0.19-6.3,0.19c-0.49,0.18-0.97,0.36-1.46,0.54c-0.76,0.31-1.2,0.88-2,0.94    c-1.5,0.12-1.7-1.94-2.09-2.99c-0.3-0.5-0.6-1-0.9-1.5c-1.05-0.45-2.1-0.9-3.16-1.35c-0.55-0.75-1.1-1.5-1.65-2.25    c-0.3-1.3-0.6-2.6-0.9-3.91c-0.61-0.05-0.47-0.42-0.9-0.75c-0.8-0.45-1.6-0.9-2.4-1.35c-0.6,0-1.2,0-1.8,0    c-0.3-0.32-0.93-0.25-1.36-0.28c-1.1-0.13-2.2-0.25-3.3-0.38c-0.73-0.15-1.66-1.28-1.81-2.05c0.01-1.36,0.03-2.73,0.04-4.09    c-0.01-0.41-0.18-1.18,0.11-1.47c-0.1-0.65-0.2-1.3-0.3-1.95c-0.41-0.09-0.45-0.51-0.61-0.89c-0.49-1.02-2.68-2.01-3.75-2.4    c-1.03-0.37-1.94-0.41-3.01-0.45c-1.68-0.05-3.06,0.06-4.65,0.59c-0.45,0.4-0.9,0.8-1.35,1.2c-0.45,0.6-0.9,1.2-1.35,1.8    c-0.9,1.33-1.8,2.65-2.7,3.98c-0.73,1.21-1.17,2.48-2.25,3.4c-0.76,0.65-2.49,0.53-3.45,0.36c-2.61-0.47-6.24-3.95-8.13-5.78    c0.27,0.72-0.4-0.35-0.9-1.8c-0.11-0.32-0.16-0.91-0.37-3.09l0.29,0.2c-0.28-1.43-0.34-2.8-0.32-4.34    c0.01-0.42-0.08-1.13-0.05-1.63c-0.2-1,0.08-1.4-0.13-2.4c-0.65-0.7-2.73-1.85-3.48-2.1c-0.75-0.33-2.15-0.35-3.08,0.08    c-0.62,0.28-0.78,0.41-1.25,0.88c-0.38,0.23-0.85,0.68-1.23,1c-0.36,0.66-0.98,1.43-1.23,1.75l0.02,0.73    c-0.15,0.8,1.35,3.33,1.2,4.13c0.6,0.36,0.71,1.73,0.91,2.39c0.7,2.3,1.31,4.63,0.89,7.07c-0.29,0.65-0.58,1.3-0.87,1.95    c-0.21,0.45-0.42,0.9-0.63,1.36c-1.4,1.55-2.8,3.11-4.21,4.66c-0.33,0.42-0.66,0.83-0.99,1.25c-0.67,1.04-1.34,2.07-2.01,3.11    c-0.54,2.32-1.08,4.52-1.35,6.91c-0.14,1.26-0.27,3.89-0.9,4.96c-0.35,0.65-0.7,1.3-1.05,1.95c-0.74,1.06-1.48,2.12-2.22,3.17    c-0.36,0.59-0.73,1.19-1.09,1.78c-1.22,1.43-2.44,2.74-3.76,4.06c-0.45,0.15-0.9,0.3-1.35,0.45c-1.3,0.1-2.6,0.2-3.91,0.3    c-1.05-0.05-2.11-0.1-3.16-0.15c-1.3,0.05-2.6,0.1-3.9,0.15c-1.86,0.48-4.26,2.81-5.39,4.31c-0.69,0.91-1.66,0.94-2.18,2.12    c-0.19,0.56,0.27,1.34,0.35,1.99c0.23,1.78,1.1,3.95,2.1,5.41c0.65,1.6,1.3,3.2,1.95,4.8c1.52,2.12,3.42,3.98,5.11,6.01    c1.26,0.74,2.51,1.49,3.77,2.23c3.3,2,6.62,4.25,9.31,6.94c0.28,0.46,0.55,0.91,0.83,1.37c0.42,0.95,0.55,1.96,0.57,2.99    c0.02,0.98-0.25,1.91-0.45,2.86c-0.36,1.74-0.7,3.47-0.64,5.25c0.28,0.16,1.22,2.25,1.5,2.7c-0.05,0.25-0.1,0.5-0.15,0.75    c-0.25,1.38,0.54,3.7,1.35,4.81c1.35,1.65,2.7,3.31,4.06,4.96c1.66,1.83,3.23,3.86,5.18,5.37c1.23,1.62,2.45,3.23,3.68,4.85    c0.2,0.35,0.4,0.7,0.6,1.05c2.02,2.74,4.04,5.49,6.06,8.23c0.33,0.41,0.67,0.82,1,1.23c1.2,1.28,2.4,3.18,2.4,3.46    c1.21,1.74,3.08,3.26,3.8,5.29c0.38,1.07,0.48,2.75-0.2,3.72c-0.35,0.45-0.7,0.9-1.05,1.35c-0.2,0.42-0.4,0.83-0.6,1.25    c0.15,1.14,0.3,2.27,0.45,3.41c-0.14,1.24-0.05,2.65,0.23,3.88c0.09,0.4,2.84,0.62,4.13,0.62c1.9,0.05,3.81,0.1,5.71,0.15    c2.21-0.69,4.41-1.38,6.62-2.08c1.67-0.43,3.35-0.73,5.1-0.33c0.6,0.25,1.2,0.5,1.8,0.75c1.47,0.38,2.94,0.77,4.41,1.15    c0.48,0.12,0.97,0.23,1.45,0.35c1.17,0.13,2.5,0.25,3.61-0.3c1.38-0.69,2.3-1.57,3.31-2.73c0.5-0.74,1-1.49,1.49-2.23    c0.35-0.05,1.17-1.37,1.35-1.88c0.28-0.76,0.86-1.53,1.05-2.33c0.58-1.08,1.16-2.16,1.75-3.24c1.59-2.21,3.87-3.77,5.98-5.45    c0.98-0.43,2.38-1.08,3.11-1.49L159.43,428.2z"/>
            <circle cx="145.14" cy="382.99" r="1.586"/>
        </g>
        <g id="__Boğazkale">
            <path d="    M212.99,395.28c-0.03-0.32-0.09-0.49-0.24-0.79c-0.1-0.02-2.09-0.58-2.1-0.58c-1.02,0.13-1.6,0.45-2.36,1.22    c-0.25,0.23-0.45,0.74-0.5,0.99c-0.13,0.78,0.5,2.2,0,3.03c-0.05,0.01-0.09,0.03-0.14,0.04c-0.67,0.2-2.48,0.92-2.99,0.24    c-0.4-0.5-0.8-1-1.2-1.51c-0.46-0.35-0.91-0.69-1.37-1.04c-0.61-0.72-2.05-2.34-1.96-3.3c-0.46-0.54-0.93-1.08-1.39-1.62    c-0.52-0.71-1.85-2.07-2.69-1.94c-0.64,0.09-1.28,0.17-1.93,0.26c-1.86,1.24-3.72,2.48-5.57,3.72c-2.1,1.16-4.2,2.33-6.3,3.49    c-0.45,0.55-0.86,1.43-1.65,1.5c-0.19,0.3-0.39,0.61-0.58,0.91c-0.41,0.4-0.81,0.8-1.22,1.19c-0.4,0.55-0.8,1.1-1.2,1.65    c-0.1,0.25-0.2,0.5-0.3,0.75c-0.2,0.29-0.41,0.38-0.45,0.75c-0.82,0.55-2.75,2.32-3,3.16c-0.5,0.06-1.25,0.3-1.5,0.75    c-0.75,0.35-1.5,0.7-2.25,1.05c-0.26,0.19-0.51,0.38-0.77,0.56c-1.34,0.59-2.87,0.83-4.19,1.39c-0.88,0.37-1.54,1.39-2.24,2    c-0.54,1.07-1.07,2.14-1.61,3.2c-1.14,3.07-2.47,4.87-2.3,8.32c0.03,0.7-0.21,3.41,0.46,3.53c1.55-0.02,3.1-0.04,4.65-0.07    c2.33,0.17,5.22,0.84,7.46,1.71c0.29-0.09,2.32,0.62,2.62,0.84c1.06,0.53,2.12,1.06,3.17,1.59c0.27,0.5,2.4,1.72,2.99,1.93    c0.55,0.5,1.1,1,1.65,1.5c0.52,0.66,1.15,1.14,1.84,1.62c0.16,0.41,0.57,0.59,0.94,0.81c0.08,0.49,0.43,0.55,0.85,0.76    c0.46,0.79,2.58,2.16,3.36,2.6c1.17,0.3,2.34,0.6,3.52,0.9c0.71,0,2.2-0.27,2.7,0.3c0.55,0,1.1,0,1.65,0    c4.11-1.1,4.58-3.63,6.46-6.91c0.21-0.51,0.43-1.02,0.64-1.54c0.87-1.42,1.51-3.41,1.61-5.08c0.03-0.56,0.55-1.17,0.3-1.65    c0.45-1.11,0.8-2.2,1.05-3.31c0-1.7,0-3.41,0-5.11c-0.05-0.75-0.1-1.5-0.15-2.25c0.41-1.33,0.69-2.68,0.75-4.03    c0.03-0.65-0.22-1.98,0.31-2.43c-0.07-0.74-0.37-2.9,0-3.46c-0.33-0.38-0.63-0.54-0.55-1.04c0.14-0.91,0.78-1.38,1.09-2.17    c0.07-0.33,0.46-0.84,0.54-1.17c0.6-1.1,0.94-1.66,1.54-2.76c0.4-0.6,1-1.52,1.15-2.18C212.11,397.23,213.09,396.25,212.99,395.28    z"/>
            <circle cx="197.28" cy="421.6" r="1.586"/>
        </g>
        <g id="__Çorum">
            <path d="    M329.35,333.11c-0.32,0.98-4.15,3.54-4.8,4.29c-0.67,0.86-1.35,1.72-2.02,2.58c-0.22,0.32-0.65,0.79-0.54,1.17    c-0.4,0.5-0.8,1-1.2,1.5c-0.3,0.25-0.6,0.5-0.9,0.75c-1.31,0.35-2.53,0.64-3.9,0.61c-0.74-0.12-1.48-0.25-2.22-0.37    c-0.63-0.07-1.82,0.12-2.3-0.24c-0.94,0.03-1.86,0.04-2.85,0c-1.2-0.05-2.4-0.1-3.61-0.15c-0.56,0.21-1.12,0.43-1.68,0.64    c-0.37-0.05-0.54,0.12-0.82,0.35c-0.66,0.55-1.75,1.29-1.86,2.17c-0.25,0.35-0.5,0.7-0.75,1.05c-0.55,0.44-0.8,1.14-1.35,1.58    c-0.01,0.5-0.75,0.45-1.2,1.05l0.06,0.29c-0.41-0.41-1.6-1.18-1.71-1.56c-2.8-0.85-5.83-0.81-8.53-2.02    c-0.34-0.15-0.76-0.36-0.93-0.69c-0.96-0.31-1.7-0.76-2.26-1.59c-0.46-0.21-0.68-0.68-0.6-1.12c-0.15-0.2-0.3-0.4-0.45-0.6    c-0.59-0.44-1.51-1.19-2.25-0.9c-0.56-0.13-2.25-0.6-2.7-0.3c-1.92-1.68-3.41-3.62-5.41-5.24c-0.23-0.17-0.46-0.34-0.69-0.52    c-0.72-0.68-1.44-1.37-2.16-2.05c-0.79-0.37-1.58-0.74-2.37-1.12c-0.52-0.25-1.04-0.5-1.56-0.76c-0.46-0.34-0.92-0.67-1.39-1.01    c-0.47-0.22-0.77-0.46-1.23-0.25c-0.22,0.09-0.44,0.18-0.66,0.28c-0.29,0.56-1.15,2.81-0.9,3.31c-0.4,0.6-0.8,1.2-1.2,1.8    c-1.93,1.19-4.37,1.62-6.12,3.16c-0.46,0-2.38,1.51-2.6,1.95c-0.65,0.3-1.3,0.6-1.95,0.9c-3.65,0.21-7.3,0.43-10.94,0.64    c-0.81-0.09-3.58-0.29-4.23,0.11c-0.5-0.05-1-0.1-1.5-0.15c-0.8,0.01-1.65,0.26-2.4-0.05c-0.72-0.3-2.04-0.86-2.64-0.43    c-1.23,0.96-2.12,2.36-3.52,3.18c-1.14,0.67-2.51,1.05-3.76,1.35c-1.24,0.6-2.49,1.2-3.73,1.8c-0.8,0.5-2.09,0.61-3.03,0.75    c-0.42,0.06-0.72,0.3-1.05,0c-1.15,0.84-1.91,1.79-2.59,3.05c-0.38,0.71-0.58,1.21-1.22,1.76c-0.05,0.11-0.1,0.22-0.15,0.32    c-0.77,0.33-1.81,0.77-2.19,0.12c-0.49-0.83-2.12-1.24-1.97-2.24c-0.28-0.03-0.56-0.06-0.84-0.09c0,0-0.43-0.83-0.7-1.01    c-0.93-0.74-1.71-1.53-2.82-2.05c-0.82-0.38-3.27-0.29-3.64-1.29c-0.49-1.22-0.98-2.44-1.47-3.67c-0.25-0.4-0.5-0.8-0.75-1.2    c-0.35-0.35-0.7-0.7-1.05-1.05c-1.82-1.02-3.65-2.04-5.47-3.06c-0.13-0.35-1.47-1.15-1.89-1.3c-0.34-0.12-0.97-0.44-1.05-0.75    c-1.09-0.64-2.07-1.37-3.16-2.1c-0.35-0.15-0.7-0.3-1.05-0.45c-1.05-0.7-2.1-1.4-3.16-2.1c-0.55-0.4-1.1-0.8-1.65-1.2    c-1.92-0.89-3.73-3.69-5.86-3.91c-0.25-0.4-0.31-0.8-0.38-0.97c0.23-1.41,2.31-3.41,3.58-5.02c0.31-0.4,1.35-1.19,1.31-1.67    c1.2-1.36,2.39-2.68,3.3-4.28c0.58-0.15,1.05-1.16,1.42-1.64c1.11-1.6,2.22-3.19,3.33-4.79c0.5-1.18,1-2.35,1.49-3.53    c0.17-0.56,0.34-1.13,0.52-1.69c0.2-0.45,0.91-1.34,0.75-1.8c1.05-1.05,2.37-2.37,2.81-3.78c0.71-2.27,0.58-4.59,1.3-6.88    c0.23-0.7,0.47-1.41,0.7-2.11c-0.02-0.8-0.06-1.78-0.7-2.29c-0.67-0.5-2.17-1.57-2.18-1.62c-0.37-1.93-0.24-3.75-0.17-5.71    c0.02-0.66,0.08-2.22-0.19-2.61c-1.16-1.79-3.12-2.64-5.01-3.39c-0.75-0.45-1.5-0.9-2.25-1.35c-1.35-1.55-2.7-3.11-4.06-4.66    c-0.7-1.75-1.4-3.51-2.1-5.26c-0.53-0.78-1.06-1.55-1.6-2.33c-0.22-0.27-0.45-0.73-0.81-0.68c-0.12-0.28-0.52-1.51-0.52-1.51    c0.21-0.44,0.42-0.89,0.62-1.33c0.26-0.31,0.53-0.61,0.79-0.92c1.96-0.77,3-0.88,4.47-2.6c0.3-0.35,1.52-1.25,1.54-1.46    c0.17-0.03,0.35-0.05,0.52-0.08c0.83,0.94,1.15,2.46,2.47,2.87c0.18,0.41,0.03,0.38,0.33,0.32c0.79-0.09,1.59-0.18,2.39-0.27    c0.95-1,1.9-2,2.85-3c0.26-0.12,0.53-0.16,0.75,0c0.5-0.4,1-0.8,1.5-1.2c0.45-0.25,0.9-0.5,1.35-0.75    c1.98,0.54,3.93-1.18,5.24-2.53c0.96-0.56,1.92-1.12,2.88-1.68c0.95-0.05,1.9-0.1,2.85-0.15c0.64-1.06,1.66-1.47,2.7-2.1    c-0.28-0.28,0.42-0.72,0.66-0.96c0.39-0.39,0.79-0.78,1.18-1.17c0.52,0.07,1.51-0.52,1.91-0.87c0.78-0.68,1.67-1.84,2.06-2.73    c0.58-0.62,1.16-1.25,1.75-1.87c0.55-0.49,1.1-0.97,1.66-1.46c0.55-0.45,1.79-1.19,2.5-1.15c1.17-0.87,2.34-1.75,3.51-2.62    l1.15-1.36l0.22-0.34c0.47-0.76,0.23-0.86,0.98-1.46l0.6-0.6c0.9-0.45,1.91-1.55,2.54-1.82c1.61-0.72,3.21-1.44,4.82-2.16    c1.91-0.77,3.82-1.54,5.73-2.31c2.34-0.73,4.79-0.8,7.17-1.4c2.12-0.73,4.24-1.46,6.37-2.18c1.45-0.31,2.89-0.63,4.34-0.94    c0.61-0.06,1.21-0.11,1.82-0.17c1.09,0.12,2.17,0.23,3.26,0.35c1.65,0.33,3.13,0.85,4.83,0.95c0.33-0.32,0.88-0.36,1.32-0.51    c1.5-0.54,3.07-0.88,4.65-0.52c1.82,0.69,3.63,1.39,5.45,2.08c1.56,0.38,3.11,0.76,4.67,1.14c1.55,0.22,3.1,0.44,4.65,0.66    c0.3-0.02,0.59-0.05,0.89-0.07c1.21,0.13,3.16,0.18,4.37,0.3l0.2,0.21c1.12,0.79,2.51,2.71,3.08,3.97    c1.16,1.24,2.32,2.48,3.48,3.71c2.44,1.12,5.28,1.69,7.96,1.65c0.44-0.01,1.07,0,1.35,0.3c0.75,0.05,1.5,0.1,2.25,0.15    c0.7-0.16,1.41-0.32,2.11-0.48c0.64-0.08,1.28-0.15,1.93-0.23c1.33-0.3,3.37-0.96,4.68-0.8c0.93-0.43,2.26-1.04,3.31-0.9    c0.64-0.53,1.38-1.04,2.19-1.25c1.31-0.29,2.62-0.58,3.93-0.87c1.83,0,4.01-0.34,5.75-0.88c1.45,0.05,2.9,0.1,4.36,0.15    c2.36-0.3,4.87,0.36,7.22,0.66c0.92,0.12,1.79,0.44,2.61,0.86c0.25,0.13,0.74,0.41,0.65,0.72l0.22-0.3    c-0.61,1.45-1.22,2.9-1.83,4.35c-0.59,2.73-2.07,6.02-3.61,8.42c-0.06,0.24-0.12,0.48-0.18,0.72c-0.84,1.46-1.68,2.93-2.52,4.4    c-0.3,0.4-0.6,0.8-0.9,1.2c-0.8,0.73-1.76,1-2.7,1.5c-0.16,0.13-0.33,0.25-0.49,0.38c-0.5,0.2-1.49,0.37-1.76,0.82    c-0.84,0.18-1.68,0.36-2.53,0.54c-0.31,0.22-0.62,0.44-0.93,0.66c-0.91,0.69-1.76,1.41-2.81,1.87c-1.22,0.03-2.43,0.06-3.65,0.08    c-0.14,0.58-0.07,1.72-0.9,1.2c-0.84,1.14-1.67,2.29-2.51,3.43c-0.47,0.04-0.91,0.48-1.1,0.93c-0.83,0.63-1.87,1.74-2.14,2.7    c-0.47,0.28-1.04,1.02-1.24,1.54c-0.8,2.08-2.05,3.8-2.73,5.96c-0.3,0.24-1.1,2.67-0.96,3.02c-0.29,0.55-0.91,1.63-0.75,2.25    c-0.45,0.77-1.63,3.21-1.2,4.06c-0.12,0.86-0.24,1.71-0.36,2.57c-0.16,0.4-0.49,0.81-0.24,1.19c-0.35,0.48-0.77,0.92-0.9,1.5    c-0.35,0.35-0.7,0.7-1.05,1.05c-0.61,0.7-0.55,2.13-0.67,2.98c-0.08,0.61-0.16,1.22-0.23,1.83c-0.7,1.26-1.58,2.24-2.55,3.31    c-0.44,0.48-0.63,1.54-1.2,1.8c0,0.45,0,0.9,0,1.35c-0.03,1.98-0.86,4.28,0.75,5.86c0.37,0.36,0.4,0.83,0.9,1.05    c0.2,0.3,0.4,0.6,0.6,0.9c0.26,1.21,0.22,2.51,0.93,3.6c1.99,3.06,3.59,2.21,6.43,3.01c1.06,0.3,2.01,0.8,3.02,1.17    c0.44,0.16,1.08,0.25,1.34,0.63c2.21,0.59,4.67,0.91,6.93,0.24c1.75-0.52,4.3-0.98,5.86,0.19c0.3,0.02,1.15,0.63,1.21,0.91    c0.14,0.85,0.28,1.71,0.42,2.56c-0.05,0.4-0.1,0.8-0.15,1.2c-0.27,0.6-0.81,1.66-0.75,2.25c-0.88,1.04-1.42,2.04-1.8,3.31    c-0.34,0.8-0.69,1.6-1.03,2.4c-0.27,0.24-0.76,0.72-0.62,1.06c-0.9,0.68-1.73,1.37-2.52,2.19c-0.36,0.07-0.81,0.4-0.79,0.82    c-0.37,0.44-0.93,0.92-0.88,1.34c0.11,0.82-0.44,0.71,0.48,1.1c1.39,0.39,2.77,0.78,4.16,1.16c0.35,0.25,0.7,0.5,1.05,0.75    c0.62,0.57,1.17,1.1,1.97,1.41L329.35,333.11z"/>
            <circle cx="272.55" cy="270.9" r="1.586"/>
        </g>
        <g id="__Alaca">
            <path d="    M316.75,365.92c0.14,0.25,0.29,0.51,0.43,0.77c-0.2,0.38,0.23,1.08,0.28,1.54c-0.14,0.54-0.28,1.08-0.43,1.61c0,0.9,0,1.8,0,2.7    c0.33,3.43,0.46,7.29,3.46,9.47c0.85,0.25,1.7,0.5,2.55,0.75c1.4,0.02,2.8,0.04,4.2,0.06c0.25,0.03,1.02,0.78,1.36,1.15    c-0.01,0.2-0.02,0.4-0.02,0.6c0.03,0.49-0.4,0.9-0.73,1.35c-0.69-0.05-1.31,0.54-1.86,0.85c-0.97,0.54-2.06,1-3.11,1.36    c-1.05,0.57-2.09,1.13-3.14,1.7c-3.18,1.26-6.86,3.66-7.81,7.06c0.03,0.3,0.06,0.6,0.08,0.9c0.04,1.04,1.21,2.3,2.02,3.01    c0.01,0.84,1.18,1.52,1.8,1.95c2.3,1.8,4.61,3.61,6.91,5.41c0.2,0.4,0.4,0.8,0.6,1.2c0.25,0.65,0.5,1.3,0.75,1.95    c0.52,1.98-0.01,3.47-0.45,5.41c-0.53,0.78-1.06,1.55-1.59,2.33c-0.92,0.33-1.84,0.65-2.77,0.98c-0.7,0.1-1.4,0.2-2.1,0.3    c-0.95,0.1-1.9,0.2-2.85,0.3c-1.27,0.44-5.37,0.98-5.86,1.05c-1.63,0.24-3.36,0.85-4.93,1.43c-0.51,0.18-1.02,0.35-1.54,0.53    c-0.61,0.71-2.23,1.25-3.16,1.8c-0.93,0.56-1.73,1.18-2.7,1.65c0.02,0.35-1.1,0.94-1.42,1.18c-1.32,1.01-2.36,2.34-4.14,2.72    c-1.37,0.3-2.65,0.52-4.08,0.32c-0.39-0.16-0.78-0.31-1.17-0.47c-2.2-0.5-4.41-1-6.61-1.5c-5.8-0.7-11.06,2.3-16.36-1.53    c-0.87-0.65-0.68-3.4-0.61-4.48c-0.35-1.55-0.7-3.11-1.05-4.66c-0.63-0.08-1.28-1.27-1.65-1.8c-0.9-0.48-1.8-0.96-2.7-1.44    c-0.85,0.13-1.7,0.26-2.55,0.39c-0.28,0.3-0.71,0.45-1.1,0.44c-0.9,1.16-2.03,2.35-2.21,3.92c-0.16,1.43-0.53,4.36-1.2,5.56    c-0.61,0.56-1.21,1.13-1.82,1.69c-0.9,0.34-1.79,0.68-2.69,1.01c-1.74,0.78-3.52,0.81-5.41,1.05c-0.95-0.1-1.9-0.2-2.85-0.3    c-1.75-0.75-3.51-1.5-5.26-2.25c-0.73-0.27-1.46-0.54-2.19-0.81c-0.47-0.33-0.95-0.66-1.42-1c-0.62-0.04-1.32-0.68-1.8-1.05    c-0.61-0.19-1.21-0.38-1.82-0.57c-1.35-0.27-2.7-0.53-4.05-0.8c-0.75-0.17-1.5-0.34-2.24-0.51c-0.35-0.03-0.7-0.05-1.05-0.08    c-0.46-0.33-1.17-0.19-1.67-0.23c-1.35-0.07-2.69-0.14-4.04-0.22c-0.55,0.25-1.1,0.5-1.65,0.75c-0.55,0.55-1.1,1.1-1.65,1.65    l-0.75,0.15c0-1.7,0-3.41,0-5.11c-0.05-0.75-0.1-1.5-0.15-2.25c0.41-1.33,0.69-2.68,0.75-4.03c0.03-0.65-0.22-1.98,0.31-2.43    c-0.07-0.74-0.37-2.9,0-3.46c-0.33-0.38-0.63-0.54-0.55-1.04c0.14-0.91,0.78-1.38,1.09-2.17c0.07-0.33,0.46-0.84,0.54-1.17    c0.6-1.1,0.94-1.66,1.54-2.76c0.4-0.6,1-1.52,1.15-2.18c0.56-0.41,1.54-1.38,1.44-2.36c-0.03-0.32-0.09-0.49-0.24-0.79l0.3,0.23    c-0.53-0.71-2.02-3.27-2.55-3.98c-0.86-1.72-2.65-3-3.46-4.81c0.19-0.42-0.03-0.75-0.15-1.2c0.05-1.05,0.1-2.1,0.15-3.16    c0.1-0.35,0.2-0.7,0.3-1.05c0.71-0.55,0.9-1.58,0.8-2.39c-0.11-0.78-0.96-1.23-1.4-1.82c-0.45-0.75-0.9-1.5-1.35-2.25    c0.05-0.89,0.1-1.78,0.16-2.67c0.15-0.66,0.3-1.32,0.45-1.99c0.35-0.6,0.7-1.2,1.05-1.8c-0.19-0.28,0.02-0.6,0.09-0.92    c0.05-0.27-0.57-1.89-0.93-2.03c-0.42-0.87-1.21-1.24-1.87-1.86c-0.35-0.5-0.7-1-1.05-1.5c-0.05-0.25-0.1-0.5-0.15-0.75    c0.06-0.61,0.12-1.23,0.18-1.84c0.19-0.63,0.46-1.09,0.87-1.62c0.45-0.41,1.17-0.91,1.05-1.35c-0.3-1.16-1.19-2.41-1.61-3.47    c-0.1-0.28,0.13-0.09,0.31-0.08c0.28,0.03,0.56,0.06,0.84,0.09c-0.16,1,1.48,1.41,1.97,2.24c0.38,0.65,1.42,0.22,2.19-0.12    c0.05-0.11,0.1-0.22,0.15-0.32c0.64-0.55,0.83-1.04,1.22-1.76c0.67-1.26,1.43-2.21,2.59-3.05c0.33,0.3,0.63,0.06,1.05,0    c0.94-0.14,2.23-0.25,3.03-0.75c1.24-0.6,2.49-1.2,3.73-1.8c1.25-0.3,2.62-0.68,3.76-1.35c1.4-0.82,2.3-2.22,3.52-3.18    c0.6-0.44,1.92,0.13,2.64,0.43c0.75,0.31,1.6,0.06,2.4,0.05c0.5,0.05,1,0.1,1.5,0.15c0.65-0.4,3.42-0.2,4.23-0.11    c3.65-0.21,7.3-0.43,10.94-0.64c0.65-0.3,1.3-0.6,1.95-0.9c0.21-0.45,2.13-1.95,2.6-1.95c1.75-1.54,4.19-1.97,6.12-3.16    c0.4-0.6,0.8-1.2,1.2-1.8c-0.25-0.5,0.61-2.74,0.9-3.31c0.22-0.09,0.44-0.18,0.66-0.28c0.46-0.21,0.76,0.03,1.23,0.25    c0.46,0.34,0.92,0.67,1.39,1.01c0.52,0.25,1.04,0.5,1.56,0.76c0.79,0.37,1.58,0.75,2.37,1.12c0.72,0.68,1.44,1.37,2.16,2.05    c0.23,0.17,0.46,0.34,0.69,0.52c2.01,1.62,3.5,3.57,5.41,5.24c0.45-0.3,2.14,0.17,2.7,0.3c0.74-0.29,1.67,0.46,2.25,0.9    c0.15,0.2,0.3,0.4,0.45,0.6c-0.09,0.44,0.13,0.91,0.6,1.12c0.56,0.83,1.3,1.27,2.26,1.59c0.17,0.32,0.59,0.53,0.93,0.69    c2.71,1.21,5.73,1.17,8.53,2.02c0.12,0.39,1.3,1.16,1.71,1.56l-0.06-0.29c1.15,0.85,3.07,2.21,4.22,3.07    c1.51,1.42,3,2.79,4.64,4.07c0.35,0.25,0.7,0.5,1.06,0.76c0.26,0.43,0.52,0.85,0.78,1.28c0.35,0.44,0.91,1.01,0.87,1.57    c0.65,0.35,1.05,1.13,1.95,1.05c0.59,0.01,1.17,0.03,1.76,0.04c0.43,0.19,1.3,0.88,1.7,0.71c0.73,0.73,1.47,1.2,2.4,1.65    C316.73,364.28,316.54,365.28,316.75,365.92z"/>
            <circle cx="248.96" cy="379.98" r="1.586"/>
        </g>
        <g id="__Ortaköy">
            <path d="    M366.16,318.31c-1.45-0.92-3.02-0.7-4.66-0.7c-1.55,0-2.97-0.01-4.35,0.85c-0.5,0.4-1,0.8-1.5,1.2c-0.4,0.45-0.8,0.9-1.2,1.35    c-0.7,0.45-1.4,0.9-2.1,1.35c-1.21,0.47-2.42,0.94-3.63,1.4c-1.38,0.36-2.94,0.34-4.33,0.25c-0.24,0.39-0.92,0.42-1.35,0.6    c-0.35,0.25-0.7,0.5-1.05,0.75c-1.15,1.15-2.3,2.3-3.46,3.46c-0.46-0.01-0.64,0.18-1.05,0.3c-0.3,0-0.6,0-0.9,0    c-1.59,0.74-3.19,1.49-4.78,2.23c-0.81,0.59-1.63,1.17-2.44,1.76l0.01-0.01c-0.32,0.98-4.15,3.54-4.8,4.29    c-0.67,0.86-1.35,1.72-2.02,2.58c-0.22,0.32-0.65,0.79-0.54,1.17c-0.4,0.5-0.8,1-1.2,1.5c-0.3,0.25-0.6,0.5-0.9,0.75    c-1.31,0.35-2.53,0.64-3.9,0.61c-0.74-0.12-1.48-0.25-2.22-0.37c-0.63-0.07-1.82,0.12-2.3-0.24c-0.94,0.03-1.86,0.04-2.85,0    c-1.2-0.05-2.4-0.1-3.61-0.15c-0.56,0.21-1.12,0.43-1.68,0.64c-0.37-0.05-0.54,0.12-0.82,0.35c-0.66,0.55-1.75,1.29-1.86,2.17    c-0.25,0.35-0.5,0.7-0.75,1.05c-0.55,0.44-0.8,1.14-1.35,1.58c-0.01,0.5-0.75,0.45-1.2,1.05c1.15,0.85,3.07,2.21,4.22,3.07    c1.51,1.42,3,2.79,4.64,4.07c0.35,0.25,0.7,0.5,1.06,0.76c0.26,0.43,0.52,0.85,0.78,1.28c0.35,0.44,0.91,1.01,0.87,1.57    c0.65,0.35,1.05,1.13,1.95,1.05c0.59,0.01,1.17,0.03,1.76,0.04c0.43,0.19,1.3,0.88,1.7,0.71c0.73,0.73,1.47,1.2,2.4,1.65    c-0.5-1.04,1.45-2.77,2.4-2.79c0.35-0.02,0.7-0.04,1.05-0.07c0.9,0.5,1.8,1,2.7,1.5c1.41,0.4,3.17,1.06,4.23,2.07    c0.74,0.61,1.49,1.22,2.23,1.84c0.05,0.2,0.1,0.4,0.15,0.6c0.15,0.1,0.3,0.2,0.45,0.3c0.55,1.3,0.91,3.69,2.55,4.06    c0.42,0,0.73,0.01,1.05,0.3c0.35-0.05,0.7-0.1,1.05-0.15c0.54,0.06,1.07,0.11,1.61,0.17c0.46-0.06,0.93-0.11,1.39-0.17    c2.18-1.02,4-2.82,5.71-4.51c0.8-0.65,1.6-1.3,2.4-1.95c1.5-0.8,3.01-1.6,4.51-2.4c0.8-0.35,1.6-0.7,2.4-1.05    c0.6-0.2,1.2-0.4,1.8-0.6c2.05-0.54,4.11-1.08,6.17-1.62c2.74-0.58,5.8-1.44,8.63-0.84c0.65,0.14,2.72,0.54,2.56-0.23    c-0.29-1.26-0.85-2.67-1.43-3.93c-0.27-1.36-0.55-2.71-0.82-4.07c-0.13-1.2-0.25-2.39-0.38-3.59c0.32-2.11,0.64-4.22,0.96-6.33    c0.03-1.3,0.06-2.59,0.09-3.89c-0.4-0.7-0.8-1.4-1.2-2.1c-0.25-0.2-0.5-0.4-0.75-0.6c-0.2-0.35-0.4-0.7-0.6-1.05    c-0.64-0.69-1.28-1.38-1.92-2.07c-0.51-1.16-1.03-2.33-1.54-3.49c-0.53-1.54-0.04-3.41,0.15-4.96c0.19-0.73,0.39-1.47,0.58-2.2    C364.93,319.83,366.16,318.31,366.16,318.31z"/>
            <circle cx="338.06" cy="350.38" r="1.586"/>
        </g>
        <g id="__Mecitözü">
            <path d="    M397.4,268.89c-0.8-0.66-1.5-1.23-2.54-1.52c-0.68-0.03-2.45-1.34-3.07-1.62c-0.75-0.34-1.9-0.91-2.78-0.83    c-0.6,0.05-1.42-0.06-1.73-0.61c-0.76-1.46-1.12-3.28-1.29-4.9c0.05-0.45,0.1-0.9,0.15-1.35c0.12-1.28,0.14-2.84-0.3-4.06    c-0.65-0.95-1.3-1.9-1.95-2.85c-0.35-0.3-0.7-0.6-1.05-0.9c-0.6-0.35-1.2-0.7-1.8-1.05c-0.55-0.21-1.1-0.42-1.65-0.63    c-0.55-0.19-1.1-0.38-1.66-0.57c-0.72-0.25-1.45-0.49-2.17-0.74c-1.74-0.27-3.78-0.49-5.34-1.37c-0.65-0.25-1.3-0.5-1.95-0.75    c-0.65-0.35-1.3-0.7-1.95-1.05c-0.5-0.17-0.96-0.28-1.35-0.6c-0.3-0.1-0.6-0.2-0.9-0.3c-0.82-0.21-1.55-0.59-2.4-0.75    c-0.83-0.15-1.21,0.17-1.99-0.17c-0.24-0.44-0.48-0.89-0.71-1.33c-0.34-0.23-1.13-0.75-1.5-0.6c-0.22-0.32-0.45-0.64-0.67-0.96    c-0.41-0.31-1.01-0.45-1.28-0.85c-0.31-0.25-0.62-0.5-0.93-0.75c-0.14-0.72-0.34-1.39-0.12-2.11c0.13-0.43,0.51-0.74,0.45-1.2    c0.4-0.65,0.8-1.3,1.2-1.95c-0.06-0.19-0.12-0.38-0.17-0.57c-0.02-0.25-0.03-0.5-0.05-0.75c-0.58-0.56-1.15-1.13-1.73-1.69    c-0.75-0.3-1.5-0.6-2.25-0.9c-0.33-0.19-0.68-0.55-0.75-0.9c-0.75-0.4-1.5-0.8-2.25-1.2c-0.4-0.2-0.8-0.4-1.2-0.6    c-0.47,0.01-0.91,0.22-1.2-0.15c-0.04,0.1-0.08,0.2-0.13,0.3c-0.61,1.45-1.22,2.9-1.83,4.35c-0.59,2.73-2.07,6.02-3.61,8.42    c-0.06,0.24-0.12,0.48-0.18,0.72c-0.84,1.46-1.68,2.93-2.52,4.4c-0.3,0.4-0.6,0.8-0.9,1.2c-0.8,0.73-1.76,1-2.7,1.5    c-0.16,0.13-0.33,0.25-0.49,0.38c-0.5,0.2-1.49,0.37-1.76,0.82c-0.84,0.18-1.68,0.36-2.53,0.54c-0.31,0.22-0.62,0.44-0.93,0.66    c-0.91,0.69-1.76,1.41-2.81,1.87c-1.22,0.03-2.43,0.06-3.65,0.08c-0.14,0.58-0.07,1.72-0.9,1.2c-0.84,1.14-1.67,2.29-2.51,3.43    c-0.47,0.04-0.91,0.48-1.1,0.93c-0.83,0.63-1.87,1.74-2.14,2.7c-0.47,0.28-1.04,1.02-1.24,1.54c-0.8,2.08-2.05,3.8-2.73,5.96    c-0.3,0.24-1.1,2.67-0.96,3.02c-0.29,0.55-0.91,1.63-0.75,2.25c-0.45,0.77-1.63,3.21-1.2,4.06c-0.12,0.86-0.24,1.71-0.36,2.57    c-0.16,0.4-0.49,0.81-0.24,1.19c-0.35,0.48-0.77,0.92-0.9,1.5c-0.35,0.35-0.7,0.7-1.05,1.05c-0.61,0.7-0.55,2.13-0.67,2.98    c-0.08,0.61-0.16,1.22-0.23,1.83c-0.7,1.26-1.58,2.24-2.55,3.31c-0.44,0.48-0.63,1.54-1.2,1.8c0,0.45,0,0.9,0,1.35    c-0.03,1.98-0.86,4.28,0.75,5.86c0.37,0.36,0.4,0.83,0.9,1.05c0.2,0.3,0.4,0.6,0.6,0.9c0.26,1.21,0.22,2.51,0.93,3.6    c1.99,3.06,3.59,2.21,6.43,3.01c1.06,0.3,2.01,0.8,3.02,1.17c0.44,0.16,1.08,0.25,1.34,0.63c2.21,0.59,4.67,0.91,6.93,0.24    c1.75-0.52,4.3-0.98,5.86,0.19c0.3,0.02,1.15,0.63,1.21,0.91c0.14,0.85,0.28,1.71,0.42,2.56c-0.05,0.4-0.1,0.8-0.15,1.2    c-0.27,0.6-0.81,1.66-0.75,2.25c-0.88,1.04-1.42,2.04-1.8,3.31c-0.34,0.8-0.69,1.6-1.03,2.4c-0.27,0.24-0.76,0.72-0.62,1.06    c-0.9,0.68-1.73,1.37-2.52,2.19c-0.36,0.07-0.81,0.4-0.79,0.82c-0.37,0.44-0.93,0.92-0.88,1.34c0.11,0.82-0.44,0.71,0.48,1.1    c1.39,0.39,2.77,0.78,4.16,1.16c0.35,0.25,0.7,0.5,1.05,0.75c0.62,0.57,1.17,1.1,1.97,1.41c0,0.13-0.01,0.26-0.01,0.39    c0.05-0.02,0.09-0.04,0.14-0.07c0.81-0.59,1.63-1.17,2.44-1.76c1.59-0.74,3.19-1.49,4.78-2.23c0.3,0,0.6,0,0.9,0    c0.42-0.12,0.59-0.31,1.05-0.3c1.15-1.15,2.3-2.3,3.46-3.46c0.35-0.25,0.7-0.5,1.05-0.75c0.44-0.18,1.11-0.21,1.35-0.6    c1.39,0.09,2.94,0.11,4.33-0.25c1.21-0.47,2.42-0.94,3.63-1.4c0.7-0.45,1.4-0.9,2.1-1.35c0.4-0.45,0.8-0.9,1.2-1.35    c0.5-0.4,1-0.8,1.5-1.2c1.38-0.87,2.8-0.85,4.35-0.85c1.64,0,3.21-0.22,4.66,0.7c-0.1-0.15,0.42-1.51,0.77-2.04    c0.49-1.02,0.99-2.04,1.48-3.07c0.4-1.5,0.8-3.01,1.2-4.51c0.77-1.97,0.05-4.59,0.81-6.62c0.2-0.54,0.59-1.75,0.24-2.25    c0.89-2,1.79-3.99,2.68-5.99c1.17-1.56,2.1-3.06,3.48-4.53c0.22-0.14,0.44-0.28,0.66-0.42c0.54-0.34,1.09-0.67,1.63-1.01    c0.98-0.33,1.97-0.67,2.95-1c0.6-0.16,1.19-0.31,1.79-0.47c2.75-1.17,5.14-3.2,7.7-4.62c0.55-0.45,1.1-0.9,1.65-1.35    c0.3-0.2,0.6-0.39,0.9-0.59c0.69-0.71,1.39-1.42,2.08-2.13c0.36-0.36,0.76-1.04,1.22-1.19c0.31-0.91,0.61-1.82,0.92-2.72    C399.18,272.96,398.25,269.59,397.4,268.89z"/>
            <circle cx="347.53" cy="278.56" r="1.586"/>
        </g>
        <g id="__Laçin">
            <path d="    M221.67,223.93c-0.91-3.15,1.61-4.36,3.26-6.51c0.75-0.78,1.5-1.56,2.25-2.34c0.65-0.25,1.3-0.5,1.95-0.75    c0.75-0.5,1.5-1,2.25-1.5c0.7-1.2,1.55-1.73,2.25-2.93c0.34,0.34,0.91-1,1.16-1.31c0.86-1.24,1.72-2.49,2.58-3.73    c0.76-1.14,1.52-2.29,2.29-3.43c0.29-0.56,0.59-1.11,0.88-1.67c0.6-0.65,1.2-1.3,1.8-1.95c1.54-1.2,3.47-1.71,5-2.98    c0.57-0.52,1.15-1.03,1.72-1.55c0.36-0.44,0.73-0.89,1.09-1.33c0.58-1.6,1.8-2.88,2.71-4.28c0.84-1.28,1.57-2.44,2.48-3.37    c0.92-0.93,2.04-1.63,3.67-1.97c0.5,0.05,1,0.1,1.5,0.15c1.3-0.12,2.77-0.55,4.06-0.15c2-0.45,4.01-0.9,6.01-1.35    c1.44-0.04,2.87-0.07,4.31-0.11c2.28-0.22,4.42-0.48,6.64,0.04c1.86,0.32,3.72,0.65,5.57,0.97c0.47,0.35,1.15,1.41,1.65,1.35    c-0.09,0.23-0.29,1.03-0.3,1.2c-0.26,0.54-0.52,1.09-0.78,1.63c-0.5,0.72-1,1.43-1.51,2.15c-0.26,0.27-0.51,0.54-0.77,0.82    c-0.71,0.83-1.42,1.66-2.13,2.49c-0.48,0.43-0.95,0.87-1.43,1.31c-0.39,0.61-0.79,1.21-1.18,1.82c-0.2,0.4-0.41,0.8-0.61,1.21    c-0.48,2.13-0.67,4.59,0.39,6.55c-0.23,0.52,0.58,2.46,0.81,3.07c0.45,0.68,0.9,0.98,1.05,1.28c0.37,1.46,1.43,1.66,2.02,3    c1.01,2.14,2.03,4.28,3.04,6.41c0.27,0.57,0.55,0.95,0.48,1.6c0.43,0.17,1.06,1.01,1.21,1.61c-1.21-0.13-3.16-0.18-4.37-0.3    c-0.3,0.02-0.59,0.05-0.89,0.07c-1.55-0.22-3.1-0.44-4.65-0.66c-1.56-0.38-3.11-0.76-4.67-1.14c-1.82-0.69-3.63-1.39-5.45-2.08    c-1.59-0.36-3.16-0.01-4.65,0.52c-0.44,0.16-0.99,0.19-1.32,0.51c-1.7-0.11-3.18-0.62-4.83-0.95c-1.09-0.12-2.17-0.23-3.26-0.35    c-0.61,0.06-1.21,0.11-1.82,0.17c-1.45,0.31-2.89,0.63-4.34,0.94c-2.12,0.73-4.24,1.46-6.37,2.18c-2.38,0.6-4.82,0.68-7.17,1.4    c-1.91,0.77-3.82,1.54-5.73,2.31c-1.61,0.72-3.21,1.44-4.82,2.16c-0.63,0.27-1.64,1.37-2.54,1.82    C221.81,225.76,221.8,224.38,221.67,223.93z"/>
            <circle cx="256.63" cy="206.14" r="1.586"/>
        </g>
        <g id="__Oğuzlar">
            <path d="    M220.64,228.04c0.47-0.76,0.23-0.86,0.98-1.46l0.6-0.6c-0.41-0.21-0.42-1.6-0.55-2.05c-0.91-3.15,1.61-4.36,3.26-6.51    c0.75-0.78,1.5-1.56,2.25-2.34c0.65-0.25,1.3-0.5,1.95-0.75c0.75-0.5,1.5-1,2.25-1.5c0.7-1.2,1.55-1.73,2.25-2.93l0.3,0.38    c-0.5,0-0.58-0.57-0.9-0.9c-0.19-0.19-0.49-0.49-0.75-0.45c-0.58-0.51-1-1-1.71-1.26c-0.48-0.13-0.96-0.26-1.45-0.39    c-0.85-0.35-1.7-0.7-2.55-1.05c-1.77-0.86-3.53-1.72-5.3-2.58c-0.59-0.14-1.17-0.28-1.76-0.43c-1-0.6-2-1.2-3.01-1.8    c-1.48-1.52-2.51-3.37-3.88-4.97c-0.31-0.4-0.62-0.8-0.93-1.19c-0.25-0.75-0.5-1.5-0.75-2.25c0.1-0.82,0.44-1.88,0.9-2.55    c0.18-0.26,0.3-0.3,0.37-0.63c0.11-0.54-0.01-2.08,0.23-2.37c-0.17-0.66-1.27-2.71-1.98-2.42c-1.79,0.76-3.58,1.52-5.37,2.29    c-0.94,0.76-1.88,1.52-2.83,2.28c-0.34-0.07-2.39,1.34-2.51,1.6c-0.19,0.4-0.46,0.65-0.84,0.85l0.05,0.27    c0.35,1.83,0.35,3.68,0.4,5.52c-0.05,0.65-0.1,1.3-0.15,1.95c-0.26,0.4-0.66,0.72-0.6,1.2c-0.79,0.54-1.59,1.08-2.38,1.62    c-0.35,0.28-0.47,0.72-0.93,0.64c-0.04,0.35-0.09,0.7-0.13,1.05c-0.16,1.6-0.31,3.21-0.47,4.81c-0.3,0.35-1.29,1.79-1.35,1.95    c0.2,0.03,1.23,0.27,1.5,0c0.54,0.21,1.57,0.29,1.8,0.75c0.74-0.22,1.48-0.44,2.22-0.66c1.47,1.19,0.82,1.72,1.54,3.22    c0.33,0.68,0,0.78,0,1.35c0.01,0.05,0.02,0.11,0.03,0.16c0.44,0.1,0.88,0.19,1.32,0.29c2.56,1.32,5,2.92,6.94,5.07    c0.49,0.54,1.93,1.69,2.07,2.29c0.7,0.55,1.4,1.1,2.1,1.65c0.68,0.31,1.36,0.62,2.04,0.93c1.25,0.94,2.83,1.47,4.39,1.73    c0.25,0.27,0.83,0.29,1.08,0.56L220.64,228.04z"/>
            <circle cx="218.61" cy="212.6" r="1.586"/>
        </g>
        <g id="__Uğurludağ">
            <path d="    M169.86,326.05c0.23-1.41,2.31-3.41,3.58-5.02c0.31-0.4,1.35-1.19,1.31-1.67c1.2-1.36,2.39-2.68,3.3-4.28    c0.58-0.15,1.05-1.16,1.42-1.64c1.11-1.6,2.22-3.19,3.33-4.79c0.5-1.18,1-2.35,1.49-3.53c0.17-0.56,0.34-1.13,0.52-1.69    c0.2-0.45,0.91-1.34,0.75-1.8c1.05-1.05,2.37-2.37,2.81-3.78c0.71-2.27,0.58-4.59,1.3-6.88c0.23-0.7,0.47-1.41,0.7-2.11    c-0.02-0.8-0.06-1.78-0.7-2.29c-0.67-0.5-2.17-1.57-2.18-1.62c-0.37-1.93-0.24-3.75-0.17-5.71c0.02-0.66,0.08-2.22-0.19-2.61    c-1.16-1.79-3.12-2.64-5.01-3.39c-0.75-0.45-1.5-0.9-2.25-1.35c-1.35-1.55-2.7-3.11-4.06-4.66c-0.7-1.75-1.4-3.51-2.1-5.26    c-0.53-0.78-1.06-1.55-1.6-2.33c-0.22-0.27-0.45-0.73-0.81-0.68c-0.12-0.28-0.52-1.51-0.52-1.51l-0.54,0.53    c-0.44,0.8-0.81,2.44-1.5,3.01c-0.56,0.46-1.12,0.08-1.8,0.3c-0.67,0.21-0.72,0.4-1.32,0.79c-2.02,1.3-4.41,2.42-6.6,3.57    c-3.84,2.02-8.09,2.54-11.87,4.99c-1.85,1.2-3.12,2.82-4.35,4.66c-0.91,1.35-1.33,4.6-2.89,5.22l-0.7-0.42    c-0.75,0.26-1.97,0.66-2.75,0.5c-1.16,0.43-2.33,0.86-3.49,1.29c-0.86-0.01-1.71-0.02-2.57-0.03c-0.08,0.08-0.17,0.16-0.25,0.24    c-0.55,0-1.1,0-1.65,0c-0.44,0.06-0.77,0.41-1.2,0.3c-0.4,1.15-2.13,1.08-3.16,1.5c-1.28,0.52-2.2,1.82-3.61,2.1    c-0.69,0.92-1.46,2.23-1.5,3.46c0.33,1.16,0.66,2.32,0.99,3.47c0.17,0.8,0.34,1.59,0.51,2.39c-1.21,4.54-5.24,5.38-9.22,6.41    c-0.66,0.23-2.05,0.5-2.7,0.73c-0.45-0.01-1.65,0.49-2.1,0.48c-0.4,0.05-1.53,0.2-1.83,0.03c-0.36-0.24-0.48-0.4-0.83-0.88    l-0.52-0.99c0.21,2.18,0.26,2.77,0.37,3.09c0.5,1.45,1.17,2.53,0.9,1.8c1.89,1.83,5.52,5.31,8.13,5.78    c0.96,0.17,2.68,0.29,3.45-0.36c1.08-0.92,1.52-2.19,2.25-3.4c0.9-1.33,1.8-2.65,2.7-3.98c0.45-0.6,0.9-1.2,1.35-1.8    c0.45-0.4,0.9-0.8,1.35-1.2c1.58-0.53,2.97-0.64,4.65-0.59c1.08,0.03,1.99,0.07,3.01,0.45c1.07,0.39,3.26,1.39,3.75,2.4    c0.16,0.38,0.2,0.8,0.61,0.89c0.1,0.65,0.2,1.3,0.3,1.95c-0.29,0.29-0.12,1.06-0.11,1.47c-0.01,1.36-0.03,2.73-0.04,4.09    c0.15,0.77,1.08,1.91,1.81,2.05c1.1,0.13,2.2,0.25,3.3,0.38c0.43,0.03,1.06-0.04,1.36,0.28c0.6,0,1.2,0,1.8,0    c0.8,0.45,1.6,0.9,2.4,1.35c0.43,0.33,0.29,0.71,0.9,0.75c0.3,1.3,0.6,2.6,0.9,3.91c0.55,0.75,1.1,1.5,1.65,2.25    c1.05,0.45,2.1,0.9,3.16,1.35c0.3,0.5,0.6,1,0.9,1.5c0.4,1.05,0.6,3.11,2.09,2.99c0.8-0.07,1.24-0.63,2-0.94    c0.49-0.18,0.97-0.36,1.46-0.54c2.18,0,4.23,0.48,6.3-0.19c0.41-0.14,0.81-0.28,1.22-0.41c0.46-0.07,1.09,0.04,1.46-0.13    C169.07,326.21,169.46,326.13,169.86,326.05L169.86,326.05z"/>
            <circle cx="162.12" cy="300.95" r="1.586"/>
        </g>
    </g>
</svg>