<?xml version="1.0" encoding="UTF-8"?>
<!DOCTYPE svg PUBLIC "-//W3C//DTD SVG 1.1//EN" "http://www.w3.org/Graphics/SVG/1.1/DTD/svg11.dtd">
<svg version="1.1" id="HaritaCizim" xmlns="http://www.w3.org/2000/svg" xmlns:xlink="http://www.w3.org/1999/xlink" x="0px" y="0px" viewBox="0 0 460 227" preserveAspectRatio="none">
    <defs id="__def">
        <radialGradient id="f">
            <stop offset="0" stop-color="white" stop-opacity="1"/>
            <stop id="STOP1" offset=".4" stop-opacity="1"/>
            <stop offset="1" stop-color="white" stop-opacity=".2"/>
        </radialGradient>
        <filter id="__flt1" x="0" y="0" width="200%" height="200%" filterUnits="objectBoundingBox">
            <feGaussianBlur in="SourceAlpha" stdDeviation="3" result="blur1"/>
            <feSpecularLighting result="specOut" in="blur1" specularConstant="1.5" specularExponent="20" lighting-color="#bbbbbb">
                <feDistantLight azimuth="45" elevation="30"/>
            </feSpecularLighting>
            <feComposite in="specOut" in2="SourceAlpha" operator="in" result="specOut"/>
            <feComposite in="SourceGraphic" in2="specOut" operator="arithmetic" k1="0" k2="1" k3="1" k4="0"/>
        </filter>
        <filter id="__flt2" x="0" y="0" width="200%" height="200%" filterUnits="objectBoundingBox">
            <feGaussianBlur in="SourceAlpha" stdDeviation="3" result="blur1"/>
            <feSpecularLighting result="specOut" in="blur1" specularExponent="20" lighting-color="#bbbbbb">
                <fePointLight x="-2000" y="100" z="2000"/>
            </feSpecularLighting>
            <feComposite in="specOut" in2="SourceAlpha" operator="in" result="specOut"/>
            <feComposite in="SourceGraphic" in2="specOut" operator="arithmetic" k1="0" k2="1" k3="1" k4="0"/>
        </filter>
        <filter id="__flt3" x0="-50%" y0="-50%" width="200%" height="200%" filterUnits="objectBoundingBox">
            <feGaussianBlur in="SourceAlpha" stdDeviation="3" result="blur"/>
            <feOffset in="blur" dx="0" dy="0" result="offsetBlur"/>
            <feSpecularLighting in="blur" surfaceScale="4" specularConstant=".5" specularExponent="20" lighting-color="flavor" result="specOut">
                <fePointLight x="-5000" y="-10000" z="5000"/>
            </feSpecularLighting>
            <feComposite in="specOut" in2="SourceAlpha" operator="in" result="specOut"/>
            <feComposite in="SourceGraphic" in2="specOut" operator="arithmetic" k1="0" k2="1" k3="1" k4="0" result="litPaint"/>
            <feMerge>
                <feMergeNode in="offsetBlur"/>
                <feMergeNode in="litPaint"/>
            </feMerge>
        </filter>
        <filter id="__flt4" x0="-50%" y0="-50%" width="200%" height="200%">
            <feGaussianBlur in="SourceAlpha" stdDeviation="2" result="blur"/>
            <feOffset dy="-1" dx="-1"/>
            <feComposite in2="SourceAlpha" operator="arithmetic" k2="-1" k3="1" result="hlDiff"/>
            <feFlood flood-color="white" flood-opacity=".7"/>
            <feComposite in2="hlDiff" operator="in"/>
            <feComposite in2="SourceGraphic" operator="over" result="withGlow"/>
            <feOffset in="blur" dy="3" dx="3"/>
            <feComposite in2="SourceAlpha" operator="arithmetic" k2="-1" k3="1" result="shadowDiff"/>
            <feFlood flood-color="black" flood-opacity="1"/>
            <feComposite in2="shadowDiff" operator="in"/>
            <feComposite in2="withGlow" operator="over"/>
        </filter>
        <filter id="__golge1" x="0" y="0" width="200%" height="200%" filterUnits="userSpaceOnUse">
            <feOffset result="offOut" in="SourceAlpha" dx="8" dy="8"/>
            <feGaussianBlur result="blurOut" in="offOut" stdDeviation="3"/>
            <feBlend in="SourceGraphic" in2="blurOut" mode="normal"/>
        </filter>
    </defs>
    <g id="__Komsular" display="none">
        <text transform="matrix(1 0 0 1 105.8611 217.7046)" font-family="'MyriadPro-Regular'" font-size="12">SURİYE</text>
        <text transform="matrix(1 0 0 1 297.322 192.5483)" font-family="'MyriadPro-Regular'" font-size="12">IRAK</text>
        <text transform="matrix(0.4309 -0.9024 0.9024 0.4309 431.792 103.771)" font-family="'MyriadPro-Regular'" font-size="12">HAKKARİ</text>
        <text transform="matrix(1 0 0 1 370.8875 10.7424)" font-family="'MyriadPro-Regular'" font-size="12">VAN</text>
        <text transform="matrix(1 0 0 1 152.7747 33.4512)" font-family="'MyriadPro-Regular'" font-size="12">SİİRT</text>
        <text transform="matrix(0.4716 -0.8818 0.8818 0.4716 23.0354 126.1589)" font-family="'MyriadPro-Regular'" font-size="12">MARDİN</text>
        <path fill-rule="evenodd" clip-rule="evenodd" fill="none" stroke="#000000" stroke-width="0.25" stroke-miterlimit="10" d="   M287.06,0c0.21,1.64,0.89,3.27,1.5,4.76c0.18,0.23,0.36,0.45,0.54,0.68c0.27,0.51,0.54,1.02,0.81,1.53   c0.61,1.6,1.08,3.17,1.83,4.73c0.32,0.67,1.09,1.81,0.9,2.58c0.22,0.53,0.97,1.33,0.82,1.9c0.56,0.9,1.26,1.57,1.91,2.4   c1.05,1.34,1.64,2.89,2.98,3.99c0.23,0.23,0.45,0.45,0.68,0.68c0.43,1.44,1.22,2.62,1.8,3.97c0.38,0.71,0.76,1.43,1.14,2.14   c0,0.28,0,0.56,0,0.85"/>
        <path fill-rule="evenodd" clip-rule="evenodd" fill="none" stroke="#000000" stroke-width="0.25" stroke-miterlimit="10" d="   M54.66,72.21c0.49,0,0.76-0.82,1.09-1.09c0.23-0.59,0.45-1.18,0.68-1.77c0.41-1.81,1.28-4.76,2.86-5.85   c0.59-0.41,1.93-0.89,2.72-0.82c1.34,0.13,3.03,0.68,4.32-0.02c0.78-0.54,1.56-1.07,2.34-1.61c0.64-1.59,1.5-3.29,1.5-5.03   c0.66-0.74,1.38-2.24,1.63-3.26c0.23-0.45,0.45-0.91,0.68-1.36c0.1-0.43,0.28-0.42,0.68-0.54c-0.05,0.01-0.1,0.01-0.14,0.02"/>
        <path fill-rule="evenodd" clip-rule="evenodd" fill="none" stroke="#000000" stroke-width="0.25" stroke-miterlimit="10" d="   M91.04,52.49c-1.41-0.34-0.1-0.14-1.37,0.37c-0.24,0.1-0.49,0.21-0.74,0.31c-0.44,0.09-1.85,0.35-2.04,0.68   c-0.89-0.21-2.66-0.63-3.26,0.27c-0.23,0-0.45,0-0.68,0c-0.35-0.08-0.75-0.09-0.95-0.41c-1.1,0.03-2.19-0.47-3.26-0.68   c-0.45-0.04-0.89-0.07-1.34-0.11c-0.64-0.19-1.28-0.38-1.92-0.57c-1.23-1.35-2.71-2.43-3.84-3.91c-0.95-1.24-1.67-2.61-2.28-4.04   c-0.28-0.67-1.02-2.06-1.76-2.26c-0.16-0.4-0.61-1.41-0.41-1.77c-0.27-0.3-0.55-0.61-0.82-0.91c-0.19-0.07-0.38-0.15-0.57-0.22   c-0.35-0.67-0.7-1.33-1.05-2c-0.31-0.5-0.59-1.99-0.58-2.58c-0.03-0.27-0.07-0.55-0.1-0.82c-0.05-0.63-0.09-1.27-0.14-1.9   c0.26-1.11,0.52-2.07,0.54-3.13c0.36-0.95,0.71-1.89,1.07-2.84c0.1-0.42,0.57-1.79,0.97-1.92c0.23-0.63,0.65-1.83,1.22-2.18   c0.19-1.09-0.07-2.04-0.14-3.13c-0.05-0.79-0.15-1.61,0.41-2.18c-0.38-1.92-1.67-3.8-2.99-5.3c-0.3,0.07-0.6,0.14-0.9,0.2   c-0.24-0.25-0.49-0.5-0.73-0.75c-0.06-0.36-0.06-0.63-0.27-0.95c-0.25-0.38-0.4-0.67-0.82-0.82"/>
        <path fill-rule="evenodd" clip-rule="evenodd" fill="none" stroke="#000000" stroke-width="0.25" stroke-miterlimit="10" d="   M423.85,36.85c0.05,0,0.09,0,0.14,0c2.54,0,5.08,0,7.61,0c1.39-0.49,2.68-1.11,4.08-1.64c1.31-0.49,2.79-0.93,3.95-1.76   c0.34-0.05,0.68-0.09,1.02-0.14c0.84-0.49,1.68-0.99,2.52-1.48c0.54-0.19,1.08-0.37,1.63-0.56c0.68-0.5,1.36-1,2.04-1.5   c0.84,0,1.39-0.54,2.18-0.68c0.72-0.13,1.69-0.41,2.41-0.2c0.87,0.17,1.73,0.35,2.6,0.52c1.72,0,3.44,0,5.16,0"/>
        <path fill-rule="evenodd" clip-rule="evenodd" fill="none" stroke="#000000" stroke-width="0.25" stroke-miterlimit="10" d="   M382.26,143.77c0.73,1.03,2.08,1.88,3.51,1.57c0.26-0.06,1.23-0.15,1.23-0.38c0.14-0.41,0.27-0.82,0.41-1.22   c-0.07-0.53-0.14-1.06-0.2-1.59c0.39-0.38,0.77-0.75,1.16-1.13c0.36-1.35,2.11-1.22,3.26-1.22c0.46-0.46,2.35-0.69,2.99-0.54   c0.5,0.23,1,0.45,1.5,0.68c0.23,0.45,0.45,0.91,0.68,1.36c0.23,0.18,0.45,0.36,0.68,0.54c0.14,0.32,0.27,0.63,0.41,0.95   c-0.05,0.09-0.09,0.18-0.14,0.27c0.05,0.23,0.09,0.45,0.14,0.68c0.19,0.26,0.47,0.82,0.82,0.82c0.59,0,1.77-0.38,2.24,0.06   c0.28,0.27,0.35,0.62,0.75,0.62c-0.08,0.36-0.29,1.1,0.01,1.35c0.99,0.85,1.92,1.64,3.12,1.64c0.18,0.09,0.36,0.18,0.54,0.27   c0.18,0.36,0.36,0.73,0.54,1.09c0,1.43,2.83,1.89,3.91,2.37c0.84,0.37,1.63,1,2.61,1.16c0.63,0.05,1.27,0.09,1.9,0.14   c0.95,0.54,1.9,1.09,2.86,1.63c0.7,0.52,1.41,0.19,1.73,1.1c-0.06,0.18-0.13,0.36-0.19,0.54c-0.15,0.46-0.09,1.14,0.19,1.52   c0.65,0.31,1.3,0.61,1.95,0.92c0.6,0.45,2.04,1.75,2.72,1.9c0.41-0.05,0.82-0.09,1.22-0.14c0.18,0.09,0.36,0.18,0.54,0.27   c0.09-0.05,0.18-0.09,0.27-0.14c0.24,0.16,0.48,0.39,0.77,0.22c0.51-0.44,1.03-0.87,1.54-1.31c0.09-0.05,0.18-0.09,0.27-0.14   c0.82,0,1.06-0.42,1.77-0.54c0.63-0.09,1.27-0.18,1.9-0.27c0.39-0.08,1.49-0.66,1.72-0.25"/>
        <path fill-rule="evenodd" clip-rule="evenodd" fill="none" stroke="#000000" stroke-width="0.25" stroke-miterlimit="10" d="   M196.33,196.08c0.02,0.04,0.03,0.08,0.05,0.12c0.1,0.91-0.68,1.45-0.39,2.41c-0.26,0.27-0.15,0.23,0.08,0.46   c1.3,1.2,3.51,1.23,4.02,3.14c0.07,0.31,0.14,0.62,0.2,0.93c-0.26,0.37-0.81,1.02-0.68,1.5c-0.25,0.25-0.56,0.49-0.41,0.82   c-1.05,0.48-1.43,1.36-2.28,2.07c-0.87,0.94-1.75,1.88-2.62,2.83c-0.4,0.33-0.79,0.66-1.19,0.99c-1.06,1.16-2.12,2.33-3.17,3.49   c-0.23,0.29-1.72,1.63-2.03,1.64c-0.96,1.83-2.34,3.25-3.81,4.76c-1.72,1.95-3.44,3.9-5.17,5.85"/>
        <path fill-rule="evenodd" clip-rule="evenodd" fill="none" stroke="#000000" stroke-width="0.25" stroke-miterlimit="10" d="   M60.38,191.87c-0.23-0.09-0.45-0.18-0.68-0.27c-0.53-0.08-1.48,0.22-1.9-0.14c-1.09,0.27-2.18,0.54-3.26,0.82   c-0.41,0.45-0.82,0.91-1.22,1.36c-0.27,0.09-0.54,0.18-0.82,0.27c-0.71-0.21-1.7-0.52-2.45-0.41c-0.77,0.23-1.54,0.45-2.31,0.68   c-0.84,0.84-1.99,1.26-3.09,1.73c-0.47,0.19-0.93,0.39-1.4,0.58c-0.3,0.26-0.73,0.56-0.82,0.95c-0.32,0.18-0.63,0.36-0.95,0.54   c-0.86,0.4-1.71,0.8-2.57,1.21c-0.61,0.19-1.59-0.03-2.06,0.43c-0.59,0-1.18,0-1.77,0c-0.6,0.12-1.2,0.25-1.79,0.37   c-0.74,0.1-1.65,0.12-2.29,0.58c-1.04-0.05-2.09-0.09-3.13-0.14c-0.38,0.18-0.76,0.35-1.13,0.53c-1.11,0.11-2.22,0.22-3.34,0.34   c-1.37-0.02-2.73-0.03-4.1-0.05c-2.32-0.79-6.03-0.18-8.43,0c-0.95-0.07-1.9-0.14-2.85-0.2c-0.33-0.04-0.65-0.49-0.87-0.33   c-0.34,0.25-0.55,0.39-0.54,0.47c-0.78,0-2.39,0.52-3.08,0.2c-0.41,0.27-0.82,0.54-1.22,0.82c-0.77-0.05-1.54-0.09-2.31-0.14"/>
    </g>
    <g id="__Harita" display="none">
        <rect id="__cer" x="0" y="0" fill="#000000" opacity="0" width="460" height="227"/>
        <g id="__Beytüşşebap">
            <path d="    M293.31,52.9c1.89-1.43,5.45-4.16,5.98-6.53c0.35-1.58,0.31-3.14,0.41-4.76c0.14-0.68,0.27-1.36,0.41-2.04    c0.37-2.61,0.56-5.26,1.45-7.77c0.22-0.63,0.29-1.78,0.74-2.14c0.58-0.43,1.17-0.59,1.88-0.59c1-0.72,3.99,0.37,5.18,0.44    c0.74,0.35,1.49,0.69,2.23,1.04c0.93,0.38,1.87,0.76,2.8,1.13c1.36,0.14,2.72,0.27,4.08,0.41c6.34,0.32,12.69,0.64,19.03,0.96    c3.22,0.63,6.43,1.26,9.65,1.89c4.17,0.68,8.35,1.36,12.52,2.04c0.63,0.14,3.06,0.44,3.54,0.14c1.65,0,3.23,0,4.88-0.06    c0.54,0.11,1.93,0.08,2.46,0.19c1.55-0.23,1.2-0.56,5.44-1.22c1.81-0.42,3.62-0.85,5.43-1.27c1.54-0.35,3.09-0.69,4.63-1.04    c6.35-1.35,12.75-1.42,19.18-0.59c2.36,0.33,4.71,0.67,7.07,1c1.09,0.18,2.18,0.36,3.26,0.54c0.41,0.08,0.82,0.17,1.22,0.25    c1.5,0.35,3,0.7,4.5,1.05c0.67,0.21,1.34,0.41,2.01,0.62c0.21,0.08,0.69,0.17,0.71,0.38c0.09,0.54,0.19,1.08,0.28,1.62    c-0.05,0.37-0.1,0.74-0.16,1.1c0.09,1.46,0.19,3.52-0.21,4.99c-0.19,0.86-0.39,1.72-0.58,2.58c-0.25,1.38-0.35,2.93-0.98,4.15    c-0.64,1.17-1.27,2.34-1.91,3.51c-0.54,0.77-1.09,1.54-1.63,2.31c-0.34,0.73-0.88,1.36-1.56,1.77c-1.09,0.82-1.82,2.26-2.65,3.54    c-0.5,0.68-1,1.36-1.5,2.04c-0.22,0.21-0.43,0.42-0.65,0.63c-0.37,0.65-0.74,1.3-1.12,1.95c-0.45,0.82-0.91,1.63-1.36,2.45    c-0.41,0.37-0.82,0.73-1.24,1.1c-0.18,0.27-0.35,0.54-0.53,0.8c-0.95,0.71-2.04,1.87-2.72,2.86c-0.46,0.66-1.13,1.04-1.5,1.77    c-0.34,0.68-1.35,0.97-1.63,1.63c-0.54,0.36-1.09,0.73-1.63,1.09c-1.31,0.59-2.63,1.18-3.94,1.77c-0.54,0.45-1.09,0.91-1.63,1.36    c-0.77,0.59-1.54,1.18-2.31,1.77c-1.75,0.87-3.52,2.16-4.9,3.54c-0.47,2.49-0.94,4.97-1.42,7.46c-0.03,0.32-0.05,0.65-0.08,0.97    c-0.12,0.82,0.16,1.83-0.27,2.58c0.05,1.31,0.09,2.63,0.14,3.94c0.01,0.95-0.24,3.69,0.27,4.35c0.09,0.5,0.18,1,0.27,1.5    c-0.02,0.67-0.1,2.17-0.41,2.72c0,1.31,0,2.63,0,3.94c0.04,2.24-0.6,4.49-1.49,6.54c-0.26,0.59-0.58,1.86-1.24,1.92    c-0.82,0.05-3.38-0.14-3.94,0.25c-0.59-0.05-1.18-0.09-1.77-0.14c-0.54,0.07-1.41-0.17-1.77,0.27c-1.45-0.21-2.9-0.42-4.35-0.64    c-0.74-0.14-1.56-0.57-2.32-0.31c-0.44-0.09-1.26-0.4-1.63-0.14c-0.74-0.26-3.52-1.12-4.22-0.95c-0.96-0.45-1.83-0.7-2.86-0.95    c-0.93-0.23-1.85-1.18-2.59-1.76c-1.2-0.12-2.89-1.75-3.85-2.41c-0.71-0.42-1.43-0.84-2.14-1.25c-0.3-0.07-0.61-0.14-0.91-0.2    c-1.6-0.68-3.19-1.36-4.79-2.04c-3.22-0.99-6.52-0.31-9.79-0.57c-0.8-0.06-1.71,0.06-2.47-0.28c-0.23-0.09-0.45-0.19-0.68-0.28    c-0.13-0.24-0.25-0.49-0.38-0.73c-0.04-0.6-0.2-2.21,0.14-2.72c-0.36-0.82-0.73-1.63-1.09-2.45c-0.6-1.15-3.09-2.72-4.21-3.43    c-0.46-0.31-0.91-0.61-1.37-0.92c-0.86-1-1.72-2-2.58-3c-0.36-0.39-0.55-0.62-1.07-0.81c-0.01-0.09-0.02-0.18-0.03-0.26    c-1.12,0.13-2.16-0.27-3.26-0.27c-0.34,0-0.81-0.18-1.09,0c-1.4-0.85-2.82-1.6-4.35-2.18c-0.63-0.07-1.27-0.15-1.9-0.22    c-0.37-0.13-0.75-0.26-1.12-0.4c-0.26-0.07-0.53-0.13-0.79-0.2c-0.36,0.05-0.73,0.09-1.09,0.14c-0.91-0.2-1.81-0.41-2.72-0.61    c-1.81-0.21-3.63-0.41-5.44-0.62c-1.63-0.05-3.26-0.09-4.9-0.14c-0.65,0-1.48-0.13-2.04,0.27c-0.77-0.05-1.54-0.09-2.31-0.14    c-0.82,0.29-1.64,0.58-2.46,0.87c-1.6,0.29-3.37,0.36-4.89,0.9c-0.53,0.19-1.35-0.01-1.77,0.41c-0.42-0.03-1.09-0.09-1.36,0.27    c-1.31-0.08-2.86,0.1-4.08,0.54c-0.33,0.12-0.65-0.07-0.95,0.14c-1.04-0.09-2.09-0.18-3.13-0.27c-0.48-0.25-0.96-0.5-1.44-0.75    c-0.34-0.11-0.67-0.22-1.01-0.34c-1.32,0-2.49-0.43-3.76-0.73c-0.74-0.14-1.49-0.28-2.23-0.42c-0.85-0.1-1.7-0.2-2.55-0.3    c-1.01-0.27-2.02-0.54-3.03-0.81c-1.45-0.43-2.87-0.34-4.21-1.13c-0.29-0.17-1.29-0.42-0.95-0.87c0.16-0.2,0.31-0.24,0.28-0.51    c1.14-0.52,2.27-1.03,3.41-1.55c0.31-0.26,0.63-0.51,0.94-0.76c0.99-0.21,1.9-0.92,2.86-0.82c0.23-0.18,0.45-0.36,0.68-0.54    c0.27-0.04,0.55-0.08,0.82-0.12c0.27-0.31,0.96-0.33,1.34-0.46c1.58-0.54,3.27-0.61,4.91-0.77c1.95-0.68,3.9-1.36,5.85-2.04    c0.63-0.27,1.27-0.54,1.9-0.82c1.04-0.66,1.91-1.14,3.13-1.35c0.41-0.09,0.82-0.19,1.22-0.28c0.27-0.14,0.54-0.27,0.82-0.41    c0.68-0.97,2.13-2.77,3.54-2.58c0.23-0.09,0.45-0.18,0.68-0.27c0.31-0.17,0.91-0.63,1.22-0.54c1.12-1.32,2.23-2.63,3.42-3.78    c0.34-0.33,0.98-1.28,1.48-1.12c0.36-0.54,0.73-1.09,1.09-1.63c0.09-0.95,0.18-1.9,0.27-2.86c-0.52-1.44-0.14-3.82-0.28-5.42    c-0.18-2.08-1.01-3.92-0.67-6C293.33,55.08,292.72,53.7,293.31,52.9z"/>
            <circle cx="356.88" cy="79.55" r="1.586"/>
        </g>
        <g id="__Güçlükonak">
            <path d="    M91.38,52.31c1.32-0.36,3.68,0.02,5.03,0.31c0.82,0.09,1.63,0.18,2.45,0.27c1,0.27,1.99,0.54,2.99,0.82    c1.38,1.01,2.75,2.02,4.13,3.03c0.66,0.38,1.31,0.77,1.97,1.15c1.94,1.64,3.77,3.35,5.71,4.95c1.46,1.26,2.92,2.52,4.37,3.79    c0.58,0.52,1.29,1.45,2.15,1.51c1.46,0.27,2.92,0.54,4.38,0.8c1.86-0.36,3.72-0.71,5.58-1.07c0.5-0.13,1.44-0.17,1.76-0.57    c1.4-0.36,2.81-0.73,4.22-1.09c1.73-0.15,3.45-0.29,5.18-0.44c1.95,0.01,3.89,0.02,5.84,0.03c0.25,0.05,1.39,0.23,1.29,0.37    c-0.63,0.82-1.44,1.31-2.18,2.02c-0.34,0.29-0.68,0.59-1.02,0.88c-0.21,0.27-0.43,0.55-0.64,0.82c-0.28,0.64-0.56,1.28-0.85,1.92    c-0.42,0.52-0.98,0.97-1.19,1.63c-0.77,1.48-1.54,2.95-2.31,4.43c-0.8,2.03-1.6,4.07-2.4,6.1c-0.69,1.58-1.72,2.96-2.88,4.19    c-0.26,0.28-0.7,1.3-1.02,1.3c-0.22,1.09-0.53,2.01-0.31,3.13c0.1,0.5,0.62,2.39,0.44,2.72c0.98,2.25,2,3.86,4.08,5.3    c0.45,0.41,0.91,0.82,1.36,1.22c0.36,0.59,0.73,1.18,1.09,1.77c0.39,0.87,0.79,1.74,1.18,2.6c0.44,0.72,1.27,1.65,1.27,2.56    c0.37,0.54,0.82,1.35,1.5,1.5c0.38,0.91,0.75,1.81,1.13,2.72c0.28,0.41,0.57,0.82,0.85,1.23c0.25,0.46,0.37,1.25,0.87,1.49    c0.06,0.43,0.12,0.86,0.18,1.29c0.66,1.48,1.32,2.96,1.98,4.44c0.2,0.17,0.34,1.54,0.21,1.71c-0.48,0.72-1.71,1.46-2.26,1.14    c-0.31-0.11-0.44-0.16-0.8-0.28c-0.33-0.34-0.58-0.58-1.03-0.75c-0.9-0.28-1.8-0.57-2.7-0.85c-0.25-0.24-0.49-0.47-0.74-0.71    c-0.62,0-0.94-0.57-1.25-1.09c-0.4-0.14-1.12-0.55-1.5-0.27c-0.27-0.14-0.54-0.27-0.82-0.41c-0.11-0.24-0.23-0.48-0.34-0.72    c-0.66-0.21-1.31-0.43-1.97-0.64c-0.59-0.32-1.18-0.63-1.77-0.95c-0.36-0.25-1.41-0.68-1.77-0.41c-0.6-0.39-1.2-0.78-1.8-1.18    c-0.44,0.16-1.31-0.28-1.46-0.73c-0.5-0.03-1.52-0.28-1.9,0.14c-0.31-0.11-0.62-0.22-0.93-0.33c-1.5,0.55-3.46,0.28-4.78-0.62    c-0.4-0.27-0.8-0.01-1.09-0.41c-0.85,0.48-1.92,1.5-2.97,1.14c-0.25-0.09-0.32-0.19-0.57-0.06c-0.51-0.72-0.91-1.41-1.67-1.81    c-0.05-0.09-0.1-0.17-0.15-0.26c-0.31-0.16-1.16-0.53-1.28-0.36c-0.12,0.17-0.45,0.49-0.38,0.64c0.47,0.91,1.54,2.5,0.93,3.41    c-0.06,0.14-0.11,0.28-0.17,0.42c-1.27,0.83-2.7,1-4.22,1.25c-0.49,0.08-1.38,0.38-1.77,0.11c-0.39,0.2-0.77,0.4-1.16,0.6    c-0.26-0.08-0.34,0.01-0.57,0.14c-0.55,0.31-1.06,0.79-1.65,0.75c-0.28-0.05-0.56-0.09-0.84-0.14c-0.23-0.23-0.45-0.45-0.68-0.68    c0.19-0.84,0.16-1.56-0.82-1.7c-0.3-0.04-0.8-0.04-1.28-0.05c-0.49-0.02-0.95-0.06-1.14-0.18c-0.34-0.23-0.73-0.77-1.11-0.79    c-0.39-1.13-1.45-4.11-2.72-4.49c-0.33-0.56-0.65-0.89-0.43-1.54c0.42-1.02,3.1-1.91,2.31-3.42c-0.26-0.45-1.22-1.61-1.75-1.7    c-0.06-0.34,0.04-0.48-0.27-0.68c0.02-0.03,0.03-0.06,0.05-0.09c0.44-0.65,0.87-1.3,1.31-1.95c0.04-0.52,0.01-1.92-0.27-2.31    c0-1.41,0.09-2.73-0.54-4.08c-0.23-0.49-0.8-1.54-1.36-1.63c-0.15-0.5-0.31-1.01-0.46-1.51c-0.15-0.33-0.91-1.1-0.7-1.44    c0.86-0.76,1.72-1.51,2.58-2.27c0.21-0.11,0.76-0.71,0.75-0.89c0.04-1.14-0.23-2.19-0.47-3.28c-0.07-0.4-0.14-0.8-0.2-1.21    c0.14-0.04,0.29-0.07,0.43-0.11c0.08-0.05,0.17-0.11,0.25-0.16c0.66,0.21,1.39,0.83,1.92,0.9c1.06,0.13,3.27-1.06,4.06-1.71    c0.27-0.22,0.51-0.42,0.82-0.27c0.03-0.06,0.05-0.12,0.08-0.17c0.5-1.04,0.64-2.34,0.88-3.5c0.04-0.21,0.21-0.51,0.41-0.54    c0.09-0.49,0.21-1.15-0.06-1.6c-0.52-0.74-1.05-1.47-1.57-2.21c-0.64-0.3-1.95-0.52-2.12-1.1c-0.06-0.08-0.12-0.17-0.19-0.25    c-0.04-0.65,0.29-2.2-0.21-2.65c-0.66-0.56-1.17-1.32-1.96-1.7c-0.59-0.28-1.21-0.33-1.78-0.71c-0.58-0.38-0.76-1.06-1.39-1.35    c-0.41-0.18-1.91-0.72-2.26-0.53c-0.63-0.3-1.77-0.59-1.53-1.5c0.17-0.63,0.16-1.31,0.71-1.77c0.04-0.39-0.08-0.6,0.27-0.82    c-0.18-0.23-0.36-0.45-0.54-0.68c-0.39-0.52-0.57-1.31-1.36-1.22c-0.29-0.76-1.07-2.77-0.27-3.26c-0.18-0.54-0.36-1.09-0.54-1.63    c-0.3-0.92-0.72-1.48-0.28-2.46C91.06,52.8,91.13,52.38,91.38,52.31z"/>
            <circle cx="109.4" cy="103.89" r="1.586"/>
        </g>
        <g id="__İdil">
            <path d="    M147.53,124.3c-0.31-0.11-0.44-0.16-0.8-0.28c-0.33-0.34-0.58-0.58-1.03-0.75c-0.9-0.28-1.8-0.57-2.7-0.85    c-0.25-0.24-0.49-0.47-0.74-0.71c-0.62,0-0.94-0.57-1.25-1.09c-0.4-0.14-1.12-0.55-1.5-0.27c-0.27-0.14-0.54-0.27-0.82-0.41    c-0.11-0.24-0.23-0.48-0.34-0.72c-0.66-0.21-1.31-0.43-1.97-0.64c-0.59-0.32-1.18-0.63-1.77-0.95c-0.36-0.25-1.41-0.68-1.77-0.41    c-0.6-0.39-1.2-0.78-1.8-1.18c-0.44,0.16-1.31-0.28-1.46-0.73c-0.5-0.03-1.52-0.28-1.9,0.14c-0.31-0.11-0.62-0.22-0.93-0.33    c-1.5,0.55-3.46,0.28-4.78-0.62c-0.4-0.27-0.8-0.01-1.09-0.41c-0.85,0.48-1.92,1.5-2.97,1.14c-0.25-0.09-0.32-0.19-0.57-0.06    c-0.51-0.72-0.91-1.41-1.67-1.81c-0.05-0.09-0.1-0.17-0.15-0.26c-0.31-0.16-1.16-0.53-1.28-0.36c-0.12,0.17-0.45,0.49-0.38,0.64    c0.47,0.91,1.54,2.5,0.93,3.41c-0.06,0.14-0.11,0.28-0.17,0.42c-1.27,0.83-2.7,1-4.22,1.25c-0.49,0.08-1.38,0.38-1.77,0.11    c-0.39,0.2-0.77,0.4-1.16,0.6c-0.26-0.08-0.34,0.01-0.57,0.14c-0.55,0.31-1.06,0.79-1.65,0.75c-0.28-0.05-0.56-0.09-0.84-0.14    c-0.23-0.23-0.45-0.45-0.68-0.68c0.19-0.84,0.16-1.56-0.82-1.7c-0.3-0.04-0.8-0.04-1.28-0.05l-0.61,0.26    c-1.42,1.68-3.65,2.78-5.85,2.99c-0.57,0.06-2.61-1.1-2.99-1.5c-0.68-0.18-1.36-0.36-2.04-0.54c-1.04-0.05-2.09-0.09-3.13-0.14    c-0.36,0-0.73,0-1.09,0c-1.22-0.27-2.45-0.54-3.67-0.82c-0.45-0.14-0.91-0.27-1.36-0.41c-0.45-0.41-0.91-0.82-1.36-1.22    c-0.99-0.21-2.15-0.24-2.99-0.82c-1-1-1.99-1.99-2.99-2.99c-0.55-0.21-1.1-0.41-1.65-0.62c-0.25-0.03-0.49-0.06-0.74-0.09    c-0.41-0.14-0.7-0.41-1.14-0.32c-1.15,0.27-2.19,0.9-3,1.72c-0.54,0.36-1.09,0.73-1.63,1.09c-0.36,0.14-0.73,0.27-1.09,0.41    c-0.73,0.5-1.45,1-2.18,1.5c-0.95,0.14-1.9,0.27-2.86,0.41c-2.67-0.25-4.68-1.9-7.09-2.81c-0.15-0.41-0.33-0.38-0.74-0.37    c-0.27-0.32-0.83-0.91-1.27-0.91c-0.55,0-1.57,0.23-1.87,0.7c-0.29,0.46-0.65,1.42-1.13,1.61c-0.17,1-0.34,1.99-0.51,2.99    c-0.15,0.69-0.51,1.17-0.58,1.9c-0.07,0.72-0.59,2.02,0,2.58c-0.02,0.57-0.5,2.05-0.27,2.45c-0.32,0.86-0.63,1.72-0.95,2.58    c0,1.91-0.36,3.84-0.67,5.72c-0.32,0.28-0.4,1.08-0.49,1.49c-0.16,1.45-0.31,2.9-0.47,4.35c-0.04,0.89-0.22,1.55-0.62,2.36    c0,0.1,0.01,0.2,0.01,0.3c-0.61,0.52-1.22,1.04-1.83,1.56c-0.5,0.14-1,0.27-1.5,0.41c-0.41,0-0.82,0-1.22,0    c-0.45,0.19-0.9,0.37-1.34,0.56c-0.51,0.31-1.92,0.86-1.92,1.61c-0.05,0.59-0.09,1.18-0.14,1.77c0.14,0.45,0.27,0.91,0.41,1.36    c0.14,0.23,0.27,0.45,0.41,0.68c0.45,0.36,0.91,0.73,1.36,1.09c0.59,0.63,1.18,1.27,1.77,1.9c0,0.34,0.24,0.53,0.46,0.76    c1.07,0.93,2.14,1.85,3.21,2.78c0.95,0.14,1.9,0.27,2.86,0.41c0.32-0.05,0.63-0.09,0.95-0.14c1.45,0,2.9,0,4.35,0    c0.68,0.14,1.36,0.27,2.04,0.41c2.13,2.13,4.28,4.37,5.98,6.8c0.82,1.36,1.63,2.72,2.45,4.08c0.18,0.86,0.36,1.72,0.54,2.58    c0.11,1.45,0.22,2.89,0.34,4.34c0.06,0.45-0.04,1.94,0.21,2.19c-0.33,1.7-0.14,3.57-0.14,5.3c0.02,0.44,0.03,0.89,0.05,1.33    c-0.06,0.78-0.12,1.56-0.18,2.34c-0.09,0.23-0.18,0.45-0.27,0.68c-0.33,1.45-0.65,2.9-0.98,4.34c-0.08,0.38-0.35,1.25,0.15,1.41    c0.59,0.12,1.19,0.25,1.78,0.37c0.5,0,1,0,1.5,0c1.17,0.22,2.93,0.74,3.94-0.27c0.27,0,0.48,0.06,0.68-0.14    c0.36,0.05,0.73,0.09,1.09,0.14c0.36-0.14,0.73-0.27,1.09-0.41c0.06-0.14,0.12-0.28,0.18-0.42c0.57,0.09,1.15,0.19,1.72,0.28    c2.22-0.39,4.44-0.78,6.66-1.18c1.41-0.29,2.81-0.58,4.22-0.86c0.82-0.14,1.63-0.27,2.45-0.41c0.77-0.45,1.54-0.91,2.31-1.36    c0.77-0.14,1.54-0.27,2.31-0.41c0.5-0.23,1-0.45,1.5-0.68c1.99-0.23,3.99-0.45,5.98-0.68c1.27-0.32,2.54-0.63,3.81-0.95    c0.95-0.45,1.75-0.68,2.7-1.13c0.63-0.05,1.43-0.32,2.06-0.36c1.68-0.52,3.36-1.05,5.04-1.57l0.4-0.6    c-0.28-0.92-0.64-1.63-0.64-2.57c0.1-0.55,0.2-1.11,0.3-1.66c0.19-0.22,0.39-0.44,0.58-0.67c0.72-0.75,1.3-1.47,1.94-2.31    c0.21,0.21,0.37-0.01,0.6-0.14c0.26-0.89,1.33-0.82,1.98-1.22c0.62,0.11,1.24,0.21,1.86,0.32c0.41-0.02,0.82-0.03,1.23-0.05    c0.51,0.05,1.02,0.09,1.53,0.14c1.69-0.28,2.87-1.12,4.62-1.36c1.41-0.19,4.24-1.06,4.94-2.39c0.43-0.83,0.86-1.59,1.04-2.5    c0.05-0.59,0.09-1.18,0.14-1.77c-0.36-0.91-0.73-1.81-1.09-2.72c-1.18-1.18-2.28-2.49-3.54-3.54c-0.45-0.63-0.91-1.27-1.36-1.9    c0-0.36,0-0.72,0-1.08c0-0.19-0.14-1.13,0.09-1.14c0.38-0.53,0.76-1.05,1.13-1.58c0.36-0.18,0.73-0.36,1.09-0.54    c1.36-0.18,2.72-0.36,4.08-0.54c0.63-0.04,2.18-1.47,2.18-2.04c0.36-2.25-0.18-4.52-1.5-6.39c-0.39-1.05-0.79-2.1-1.18-3.15    c-0.38-1.04-0.75-2.07-1.13-3.11c0.23-0.91,0.45-1.81,0.68-2.72c0.31-0.32,0.61-0.65,0.92-0.97c0.33-0.36,0.65-0.71,0.98-1.07    c0.18-0.36,0.74-1.37,1.09-1.5c0.11-0.32,0.11-0.64,0.41-0.82c0.14-0.32,0.27-0.63,0.41-0.95c-0.26-0.94,0.19-2.62,1.02-3.17    c1.17-0.66,2.46-0.53,3.74-0.64c1.07-0.2,2.14-0.4,3.2-0.6c0.29-0.03,0.58-0.05,0.88-0.08c0.5,0.05,1,0.09,1.5,0.14    c0.27-0.09,0.54-0.18,0.82-0.27c0.43-0.06,1.27-0.36,1.63-0.14L147.53,124.3z"/>
            <circle cx="104.77" cy="136.66" r="1.586"/>
        </g>
        <g id="__Cizre">
            <path d="    M147.53,124.3c0.55,0.32,1.78-0.43,2.26-1.14c0.12-0.17-0.02-1.55-0.21-1.71c-0.61-1.37-1.22-2.74-1.84-4.1    c-0.05-0.11,0-0.06,0.03-0.16c0.04-0.18-0.02-0.35,0.17-0.41c0.53-0.15,0.95-0.29,1.51-0.23c0-0.47,2.13-0.31,2.45-0.54    c0.15,0.12,0.3,0.24,0.45,0.36c0.24,0.23,0.3,0.39,0.64,0.46c0.14,0.24,0.29,0.47,0.43,0.71c0.69,0.55,1.39,1.1,2.08,1.66    c0.47,0.46,0.89,1.21,1.56,1.44c0.54,0.71,1.37,1.81,2.31,2.04c0.95,0.92,1.15,1.29,2.53,1.6c2.1-0.62,4.2-1.25,6.31-1.87    c0.27-0.32,0.54-0.63,0.82-0.95c0.23,0,0.45,0,0.68,0c0.46-0.11,0.61-0.3,1.09-0.14c1.15-0.57,2.26-0.92,3.51-1.14    c1.77-0.21,3.55-0.42,5.32-0.62c0.75,0.07,2.51,0.14,2.99,0.54c1.72,0.18,3.44,0.36,5.17,0.54c0.27,0.1,0.54,0.19,0.81,0.29    c0.85-0.03,1.7-0.06,2.55-0.09c1.1,0.22,2.2,0.07,3.31,0.07c0.9-0.01,1.81-0.03,2.71-0.04c1.49,0.23,2.81,0.65,4.22,1.13    c0.63,0.18,1.27,0.36,1.9,0.54c0.89,0.53,2.53,0.19,2.48,1.62c-0.02,0.26-0.07,0.35,0.11,0.55c-0.3,0.68-0.6,1.19-1.09,1.77    c-0.43,0.38-0.85,0.75-1.28,1.13c-0.74,1.53-3.7,3.22-5.25,4.04c-0.95,0.5-2.15,0.6-2.99,1.36c-0.36,0.14-0.73,0.27-1.09,0.41    c-0.74,0.88-1.66,2.07-1.77,3.26c-0.81,1.13-1.66,2.53-2.01,3.89c-0.24,0.94-0.48,1.8-0.44,2.77c-0.05,0.32-0.09,0.63-0.14,0.95    c-0.31,0.45-0.63,0.9-0.94,1.36c-0.68,0.91-1.37,1.82-2.05,2.72c-0.69,0.68-1.37,1.36-2.06,2.04c-0.26,0.27-0.53,0.54-0.79,0.82    c0,0.54-0.31,0.8-0.82,0.82c-0.23-0.36-0.45-0.73-0.68-1.09c-0.24,0-0.36,0.04-0.54-0.14c0.05,0.05,0.09,0.09,0.14,0.14    c-0.32,0.32-0.63,0.63-0.95,0.95c-0.58,0.61-2.86,2.15-3.64,1.59c-0.91-0.7-3.43-2.85-4.5-2.6c-0.1-0.03-0.2-0.05-0.29-0.08    c-0.54,0.32-1.09,0.63-1.63,0.95c-0.75-0.14-1.37,0.13-2.17,0.13c-0.54,0-1.5-0.26-1.5-0.95c0.15-0.25,0.26-0.6,0.54-0.68    c0.05-0.88-0.15-1.8,0.02-2.4c0.45-1.57,1.7-2.75,2.83-3.85c0.09-0.23,0.18-0.45,0.27-0.68c-0.1-0.02-0.19-0.05-0.29-0.07    c-0.31-0.07-0.62-0.13-0.93-0.2c0.06-0.33,0.42-1.12,0.01-1.27c-0.53-0.19-0.8-0.36-1.37-0.36c-0.59,0.36-1.18,0.73-1.77,1.09    c-0.14,0.23-0.27,0.45-0.41,0.68c-0.32,0.23-0.63,0.45-0.95,0.68c0,0.54-0.58,1.4-0.95,1.77c-0.05,0.54-0.09,1.09-0.14,1.63    c-0.09,0.27-0.18,0.54-0.27,0.82c-0.27,0.45-0.54,0.91-0.82,1.36c-0.21,0.41-0.71,0.48-0.82,0.95c-1.9,1.72-3.81,3.45-5.71,5.17    c-1.41,1.36-2.81,2.72-4.22,4.08c-0.79,0.46-1.4,0.85-2.04,1.5c-0.36-0.03-0.97-0.16-1.22,0.14c-0.28,0.32-0.72,0.81-0.82,1.22    c-0.27,0.18-0.54,0.36-0.82,0.54c-0.09,0.27-0.18,0.54-0.27,0.82c-0.63,0.73-1.27,1.45-1.9,2.18c-0.34,0.98-0.68,1.96-1.02,2.94    c-0.25,0.2-0.5,0.4-0.75,0.6c-0.71-0.04-1.41-0.07-2.12-0.11c-0.59,0.33-0.88,0.76-1.55,0.98c-0.43,0.68-1.64,1.02-2.31,1.44    c-0.42,0.26-2.14,2.04-2.18,2.45c-0.55,0.33-1.47,0.81-1.77,1.36c-0.45,0.09-0.91,0.18-1.36,0.27c-0.63-0.09-1.27-0.18-1.9-0.27    c-0.89,0.03-1.73,0.17-2.58,0c-0.27,0.09-0.54,0.18-0.82,0.27c-0.55,0.49-1.09,0.97-1.64,1.46c-0.34,0.24-0.87,0.37-1.08,0.71    c-0.31,0.07-0.63,0.13-0.94,0.2c-0.55,0.21-1.09,0.41-1.64,0.62c-0.54,0.23-1.09,0.45-1.63,0.68c-0.25,0.67-0.33,1.41-1.1,1.6    c-0.92,0.25-2.14,1-3.12,0.85c-0.44-0.08-0.87-0.16-1.31-0.25c-0.1,0.03-0.21,0.06-0.31,0.09c-0.41-0.04-0.82-0.08-1.23-0.12    c-0.28-0.17-0.65-0.55-0.95-0.54c-0.28-0.92-0.64-1.63-0.64-2.57c0.1-0.55,0.2-1.11,0.3-1.66c0.19-0.22,0.39-0.44,0.58-0.67    c0.72-0.75,1.3-1.47,1.94-2.31c0.21,0.21,0.37-0.01,0.6-0.14c0.26-0.89,1.33-0.82,1.98-1.22c0.62,0.11,1.24,0.21,1.86,0.32    c0.41-0.02,0.82-0.03,1.23-0.05c0.51,0.05,1.02,0.09,1.53,0.14c1.69-0.28,2.87-1.12,4.62-1.36c1.41-0.19,4.24-1.06,4.94-2.39    c0.43-0.83,0.86-1.59,1.04-2.5c0.05-0.59,0.09-1.18,0.14-1.77c-0.36-0.91-0.73-1.81-1.09-2.72c-1.18-1.18-2.28-2.49-3.54-3.54    c-0.45-0.63-0.91-1.27-1.36-1.9c0-0.36,0-0.72,0-1.08c0-0.19-0.14-1.13,0.09-1.14c0.38-0.53,0.76-1.05,1.13-1.58    c0.36-0.18,0.73-0.36,1.09-0.54c1.36-0.18,2.72-0.36,4.08-0.54c0.63-0.04,2.18-1.47,2.18-2.04c0.36-2.25-0.18-4.52-1.5-6.39    c-0.39-1.05-0.79-2.1-1.18-3.15c-0.38-1.04-0.75-2.07-1.13-3.11c0.23-0.91,0.45-1.81,0.68-2.72c0.31-0.32,0.61-0.65,0.92-0.97    c0.33-0.36,0.65-0.71,0.98-1.07c0.18-0.36,0.74-1.37,1.09-1.5c0.11-0.32,0.11-0.64,0.41-0.82c0.14-0.32,0.27-0.63,0.41-0.95    c-0.26-0.94,0.19-2.62,1.02-3.17c1.17-0.66,2.46-0.53,3.74-0.64c1.07-0.2,2.14-0.4,3.2-0.6c0.29-0.03,0.58-0.05,0.88-0.08    c0.5,0.05,1,0.09,1.5,0.14c0.27-0.09,0.54-0.18,0.82-0.27c0.43-0.06,1.27-0.36,1.63-0.14L147.53,124.3z"/>
            <circle cx="163.52" cy="138.43" r="1.586"/>
        </g>
        <g id="__Silopi">
            <path d="    M263.04,143.01c-0.29-0.55,0.83-2.3,1.14-2.97c0.27-0.58-0.69-1.04-1.24-1.42c-1.34-1.11-2.69-2.22-4.03-3.32    c-0.09-0.5-0.18-1-0.27-1.5c0.14-1.83-0.5-3.68-1.2-5.34c-0.33-0.77,0.44-2.24,0.77-2.91c0.26-0.76,0.51-1.52,0.76-2.27    c0.52-1.03,1.05-2.05,1.57-3.08c0.14-0.51,0.28-1.03,0.42-1.54c0.18-0.85,0.35-1.69,0.53-2.54c0.06-0.64,0.12-1.27,0.18-1.91    l-0.18-0.26c-0.27-0.05-0.54-0.09-0.82-0.14c-3.46,0-6.95,0.4-10.47,0.68c-0.77-0.05-1.54-0.09-2.31-0.14    c-0.73,0.05-1.45,0.09-2.18,0.14c-0.23,0.09-0.45,0.18-0.68,0.27c-0.63-0.05-1.27-0.09-1.9-0.14c-1.14,0.08-2.27,0.16-3.41,0.24    c-1.63,0.06-3.26,0.11-4.89,0.17c-0.79,0.06-1.53,0.06-1.5,0.96c0.5,3.26,1,6.52,1.5,9.78c0.18,0.68,0.36,1.36,0.54,2.04    c-0.05,0.32-0.09,0.63-0.14,0.95c0.08,0.26,0.16,0.51,0.25,0.77c-0.08,0.22-0.25,0.73-0.38,0.74c-1.84,0.24-3.47-0.37-5.31-0.43    c-1.09-0.03-2.14,0.08-3.26-0.04c-0.92-0.1-1.98-0.41-2.86-0.09c-0.32-0.14-0.63-0.27-0.95-0.41c-0.09,0.05-0.18,0.09-0.27,0.14    c-0.31-0.01-0.62-0.03-0.93-0.04c-1.14-0.17-2.28-0.33-3.42-0.5c-0.63-0.18-1.27-0.36-1.9-0.54c-0.32-0.18-0.63-0.36-0.95-0.54    c-0.32,0-0.63,0-0.95,0c-0.74-0.14-2.12-1.06-2.72-1.5c-1.18-0.54-2.36-1.09-3.54-1.63c-0.43-0.11-0.86-0.22-1.3-0.33l-0.99-0.22    c-0.02,0.26-0.07,0.35,0.11,0.55c-0.3,0.68-0.6,1.19-1.09,1.77c-0.43,0.38-0.85,0.75-1.28,1.13c-0.74,1.53-3.7,3.22-5.25,4.04    c-0.95,0.5-2.15,0.6-2.99,1.36c-0.36,0.14-0.73,0.27-1.09,0.41c-0.74,0.88-1.66,2.07-1.77,3.26c-0.81,1.13-1.66,2.53-2.01,3.89    c-0.24,0.94-0.48,1.8-0.44,2.77c-0.05,0.32-0.09,0.63-0.14,0.95c-0.31,0.45-0.63,0.9-0.94,1.36c-0.68,0.91-1.37,1.82-2.05,2.72    c-0.69,0.68-1.37,1.36-2.06,2.04c-0.26,0.27-0.53,0.54-0.79,0.82c0,0.54-0.31,0.8-0.82,0.82l0.57-0.01    c-0.25,0.01-0.31,0.21-0.44,0.42c0.22,0,0.14,0.46,0.14,0.68c0.33,0.33,0.04,1.17,0.14,1.63c0.17,0.3,0.35,0.6,0.52,0.91    c0.02,0.37-0.08,0.3,0.17,0.34c0.58,0.04,1.17,0.07,1.75,0.11c1.89,0.76,2.23,1.98,2.99,3.67c0.64,0.25,1.27,0.5,1.91,0.75    c0.18,0.2,0.35,0.4,0.53,0.59c0.25,0.2,0.47,0.24,0.56,0.56c0.81,0.24,1.56,0.15,1.87,1.11c0.08,0.27,0.06,0.37,0.31,0.52    c-0.03,0.98-0.41,1.86-0.41,2.86c0.38,0.26,1.77,1.17,1.27,1.52c-0.43,0.29-0.86,0.71-1.41,0.79c-0.63,0.68-1.27,1.36-1.9,2.04    c0,0.62-0.25,0.76-0.54,1.22c-0.09,0.32-0.18,0.63-0.27,0.95c-0.34,0.92-1.64,1.48-1.11,2.73c0.1,0.41,0.2,0.81,0.3,1.22    c0.09,0.05,0.18,0.09,0.27,0.14c0.27,0.77,0.54,1.54,0.82,2.31c0.18,0.98-0.19,1.83,0.37,2.79c0.14,0.24,0.45-0.54,0.45-0.23    c-0.05,0.46-0.09,0.92-0.14,1.38c0.63,0.91,1.27,1.81,1.9,2.72c0.36,0.51,1.71,1.23,1.36,1.9c0.45,0.32,1.11,0.56,1.17,0.96    c0.11,0.81,0.22,1.63,0.33,2.44c-0.82,1.06-1.09,1.35-1.09,2.72c0,0.33,0.14,2.14,0.37,1.97c0.23-0.16,0.36-0.42,0.59-0.2    c0.34-0.53,0.73-1.29,1.36-1.5c0.08-0.4,0.3-1.94,0.14-2.18c0.23-0.05,0.45-0.09,0.68-0.14c0.23,0.27,0.45,0.54,0.68,0.82    c0.63,0.15,1.07,0.08,1.63-0.27c0.32,0,0.63,0,0.95,0c0.4,0.57,0.56,0.83,1.22,1.09c0.29-0.29,0.72-0.04,1.09-0.14    c0.18-0.09,0.36-0.18,0.54-0.27c0.54-0.05,1.09-0.09,1.63-0.14c0.36-0.36,1.22-1.28,1.22-1.77c0.32-0.14,0.63-0.27,0.95-0.41    c0.41-0.05,0.82-0.09,1.22-0.14c0.52-0.21,0.81-0.73,1.37-0.91c0.49-0.16,0.92,0.03,1.36-0.24c0.35-0.21,0.47-0.54,0.67-0.88    c0.27,0.27,0.62-0.34,0.95-0.41c0.3-0.38,0.72-1.09,1.22-1.09c0.41,0,0.45,0.35,0.68,0.54c0.32,0.09,0.63,0.18,0.95,0.27    c0.6-0.6,1.2-1.39,2.04-1.39c0.53,0,0.95,0.31,1.54,0.45c1.21,0.04,2.42,0.08,3.63,0.12c0.14-0.09,0.27-0.18,0.41-0.27    c0.61-0.02,1.05-0.08,1.63-0.27c0.26-0.13,0.53-0.26,0.79-0.4c0.91-0.14,1.83-0.28,2.74-0.42c0.65-0.08,3.06,0.72,3.25,0.28    c0.6-1.26,1.51-1.74,2.88-1.98c0.29-0.05,0.92-0.23,1.08-0.07c0.47,0.44,2.04,1.43,2.7,1.19c0.95-0.35,1.42-0.4,1.59-1.44    c0.12-0.58,0.2-1.05,0.2-1.64c0.27-0.95,0.54-1.9,0.82-2.86c0.71-0.57,1.47-0.91,1.63-1.77c0.36-0.27,0.73-0.54,1.09-0.82    c0-0.36,0.28-0.43,0.54-0.68c0.05-0.59,0.09-1.18,0.14-1.77c0.38-0.38,1.83-1.85,1.63-2.31c0.8-0.59,1.81-0.59,1.53-1.86    c0.03-0.1,0.07-0.21,0.1-0.31c-0.32-0.45-1.4-1.51-0.7-1.92c0.42-0.25,0.68-0.43,0.97-0.8c0.86,0.26,1.39-0.05,2.18-0.41    c0-0.24,0.04-0.36-0.14-0.54c0.14-0.31,0.21-0.31,0.14-0.68c0.81-0.5,0.86-1.2,1.5-1.9c0.23-0.09,0.45-0.18,0.68-0.27    c0.36-0.63,0.73-1.27,1.09-1.9c0.41-0.41,1.75-0.92,1.6-1.56c-0.21-0.84-0.79-1.35-0.79-2.24c0.41-0.45,0.82-0.91,1.22-1.36    c-0.12-0.33-0.68-1.09-0.52-1.18c0.33-0.16,0.56-0.33,0.93-0.32c0.13-0.47,0.42-0.84,0.95-0.95c0.35-0.01,0.71-0.03,1.06-0.04    c0.31-0.1,0.61-0.2,0.92-0.3c0.21,0.2,0.12,0.74,0.33,0.76c0.7,0.04,1.18,0.11,1.43-0.63c-0.13-0.39,0.12-1.19,0.34-1.55    c0-0.2-0.1-0.19-0.27-0.27c0.08-0.4,0.03-0.58,0.28-0.95c0.52-0.76,1.15-0.92,1.62-1.64c1.03,0,0.77-0.62,0.43-1.44    c-0.24-0.11-0.47-0.22-0.71-0.33c0.58-0.58-0.25-1.75-0.68-2.18c0-0.5,0.34-0.5,0.52-1.13L263.04,143.01z"/>
            <circle cx="220.08" cy="159.23" r="1.586"/>
        </g>
        <g id="__Uludere">
            <path d="    M383.74,123.22c-0.82,0.05-3.38-0.14-3.94,0.25c-0.59-0.05-1.18-0.09-1.77-0.14c-0.54,0.07-1.41-0.17-1.77,0.27    c-1.45-0.21-2.9-0.42-4.35-0.64c-0.74-0.14-1.56-0.57-2.32-0.31c-0.44-0.09-1.26-0.4-1.63-0.14c-0.74-0.26-3.52-1.12-4.22-0.95    c-0.96-0.45-1.83-0.7-2.86-0.95c-0.93-0.23-1.85-1.18-2.59-1.76c-1.2-0.12-2.89-1.75-3.85-2.41c-0.71-0.42-1.43-0.84-2.14-1.25    c-0.3-0.07-0.61-0.14-0.91-0.2c-1.6-0.68-3.19-1.36-4.79-2.04c-3.22-0.99-6.52-0.31-9.79-0.57c-0.8-0.06-1.71,0.06-2.47-0.28    c-0.23-0.09-0.45-0.19-0.68-0.28c-0.13-0.24-0.25-0.49-0.38-0.73c-0.04-0.6-0.2-2.21,0.14-2.72c-0.36-0.82-0.73-1.63-1.09-2.45    c-0.6-1.15-3.09-2.72-4.21-3.43c-0.46-0.31-0.91-0.61-1.37-0.92c-0.86-1-1.72-2-2.58-3c-0.36-0.39-0.55-0.62-1.07-0.81    c-0.01-0.09-0.02-0.18-0.03-0.26c-1.12,0.13-2.16-0.27-3.26-0.27c-0.34,0-0.81-0.18-1.09,0c-1.4-0.85-2.82-1.6-4.35-2.18    c-0.63-0.07-1.27-0.15-1.9-0.22c-0.37-0.13-0.75-0.26-1.12-0.4c-0.26-0.07-0.53-0.13-0.79-0.2c-0.36,0.05-0.73,0.09-1.09,0.14    c-0.91-0.2-1.81-0.41-2.72-0.61c-1.81-0.21-3.63-0.41-5.44-0.62c-1.63-0.05-3.26-0.09-4.9-0.14c-0.65,0-1.48-0.13-2.04,0.27    c-0.77-0.05-1.54-0.09-2.31-0.14c-0.82,0.29-1.64,0.58-2.46,0.87c-1.6,0.29-3.37,0.36-4.89,0.9c-0.53,0.19-1.35-0.01-1.77,0.41    c-0.42-0.03-1.09-0.09-1.36,0.27c-1.31-0.08-2.86,0.1-4.08,0.54c-0.33,0.12-0.65-0.07-0.95,0.14c-1.04-0.09-2.09-0.18-3.13-0.27    c-0.48-0.25-0.96-0.5-1.44-0.75c-0.34-0.11-0.67-0.22-1.01-0.34c-1.32,0-2.49-0.43-3.76-0.73c-0.74-0.14-1.49-0.28-2.23-0.42    c-0.85-0.1-1.7-0.2-2.55-0.3c-1.01-0.27-2.02-0.54-3.03-0.81c-1.45-0.43-2.87-0.34-4.21-1.13c-0.29-0.17-1.07-0.26-1.07-0.26    c-0.18,0.08-0.37,0.16-0.55,0.24c-0.88,0.88-2.68,2.17-2.55,3.53c0.25,2.62,1.17,5.03,3.25,6.72c1.2,0.68,2.41,1.37,3.61,2.05    c1.44,0.95,2.82,3.13,3.12,4.84c0.21,1.85,0.43,3.71,0.64,5.56c-0.06,0.64-0.12,1.27-0.18,1.91c-0.18,0.85-0.35,1.69-0.53,2.54    c-0.14,0.51-0.28,1.03-0.42,1.54c-0.52,1.03-1.05,2.05-1.57,3.08c-0.25,0.76-0.51,1.52-0.76,2.27c-0.33,0.66-1.1,2.13-0.77,2.91    c0.7,1.66,1.34,3.5,1.2,5.34c0.09,0.5,0.18,1,0.27,1.5c1.34,1.11,2.69,2.22,4.03,3.32c0.55,0.38,1.5,0.83,1.24,1.42    c-0.3,0.68-1.43,2.42-1.14,2.97c0.3,0.55,0.69,0.98,1.31,1.13c0.54,0.14,1.09,0.27,1.63,0.41c0.41,0,0.82,0,1.22,0    c0.59-0.35,1.18-0.71,1.77-1.06c0.34-0.12,1.2-0.73,1.36-0.71c0.02-0.18,0.05-0.37,0.07-0.55c0.1-0.32,0.45-0.32,0.34-0.67    c0.32,0.22,0.61,0.3,0.68,0.68c0.1-0.09,0.19-0.17,0.29-0.26c0.22-0.23,0.4,0.15,0.38-0.15c-0.02-0.36-0.12-0.37,0.14-0.68    c-0.33-0.55-0.39-1.83,0-2.31c-0.14-0.22-0.26-0.54-0.54-0.54c-0.02-0.3,0.08-0.59-0.14-0.82c0.12-0.09,0.25-0.17,0.37-0.26    c0.15-0.05,0.29-0.1,0.44-0.15c0.73-0.88,1.45-1.77,2.18-2.65c0.35,0.04,0.69,0.09,1.04,0.13c1.22-0.85,1.91-2.32,2.81-3.43    c0.43-0.38,0.86-0.76,1.29-1.14c0.3-0.43,1.34-1.74,1.11-2.16c0.34-0.12,0.67-0.23,1.01-0.35c0.81-0.36,1.08-1.09,1.97-0.94    c0.53,0.1,0.93,0.33,1.38,0.61c0.95,0.25,1.91,0.5,2.86,0.76c0.52,0.19,1.03,0.38,1.55,0.57c0.36,0.61,0.61,0.83,0.58,1.52    c-0.18,0.27-0.31,0.58-0.1,0.83c-0.29,0.2-0.7,0.32-0.65,0.67c0.17,0.41,0.35,0.82,0.52,1.24c0.45,1.02,0.27,1.48,1.29,2.2    c0.08,0.3,0.1,0.27,0.36,0.37c0.33,0.05,0.67,0.1,1,0.14c0.07,0.09,0.13,0.18,0.2,0.28c0.03-0.02,0.05-0.04,0.08-0.06    c0.56-0.39,1.12-0.78,1.69-1.16c1.13-0.04,2.08,0.76,3.13,1.09c0.25,0.29,0.5,0.58,0.75,0.88c0.29,0.21,0.59,0.41,0.88,0.62    c0.54-0.05,1.09-0.09,1.63-0.14c0.9,0.87,1.79,1.55,2.86,2.18c0.82,0.49,1.61-0.01,2.44,0.09c0.54,0.06,1.09,0.12,1.64,0.18    c0.45,0.18,0.91,0.36,1.36,0.54c0.55,0.48,1.11,0.95,1.66,1.43c1.26,0.54,3.69-0.02,4.19,1.42c0.23,0.18,0.45,0.36,0.68,0.54    c0.31,0,0.6-0.09,0.82,0.14c0.04-0.05,0.08-0.1,0.11-0.15c0.61-0.78,1.69-2.67,2.52-2.97c0.68-0.25,1.88-0.52,2.54-0.27    c0.78-0.38,1.95-1.19,2.84-1.25c0.14,0.05,0.28,0.1,0.42,0.16c0.73-0.29,1.36-0.37,1.78-0.95c0.51-0.75,0.94-2.14,1.9-2.45    c0.09-0.74,0.18-1.47,0.27-2.21c0.06-0.22,0.12-0.45,0.18-0.67c0.53-0.22,1.91-0.4,2.13,0.3c0.57-0.06,2.47-0.5,2.86-0.27    c0.43-0.15,1.98-0.54,2.31-0.41c1.01-0.58,1.22-1.01,1.9-1.9c0.18-0.18,0.36-0.36,0.54-0.54c1.41-0.28,2.87-0.18,4.17-0.28    c0.47,0.05,0.93,0.1,1.4,0.14c1.33-0.23,2.3-1.76,3.67-0.95c1.04-0.03,2.58-0.6,3.4,0.27c0.27,0,0.54,0,0.82,0    c0.18-0.18,0.36-0.36,0.54-0.54c0.39,0.03,0.79,0.06,1.18,0.09c0.47,0.49,1.25,2.19,1.95,2.08c0.13,0.34,0.4,1.36,0.82,1.36    c0.63-0.08,1.38-0.44,1.77,0.27c0.65-0.13,2.49-0.55,2.97-0.37c0.97,0.38,2.5,1.07,2.75,2.13c0.77,0.25,1.54,0.5,2.32,0.75    c1.53,0.16,3.31-0.47,4.77,0.04c0.35,0.12,0.9,0.1,1.1,0.37c0.04,0.16,0.07,0.32,0.11,0.48c0.04,0.42,0.86,1.82,1.18,2.01    c0.37,0.18,2.07,0.24,1.81,0.99c0.28,0.22,0.54,0.21,0.68,0.54c0.32-0.02,1.51,0.21,1.51,0.26c0.12,0.73,0.53,1.93,0.12,2.6    c0.1,0.4,0.27,0.96,0.55,1.01c0.49,0.1,2.85,0.53,3.12,0.35c0.36,0.34,0.53,0.7,0.96,0.28c0.13,0,0.27-0.01,0.4-0.01    c0-0.18,0-0.36,0-0.54c0.09-0.63,0.18-1.27,0.27-1.9c-0.12-1.24-0.18-2.6,0.14-3.81c0.05-1,0.09-1.99,0.14-2.99    c-0.01-0.72-0.02-1.45-0.03-2.17c0.13-1.4,0.1-2.71,0.26-4.09c0.16-1.22,0.31-2.44,0.47-3.66c0.02-0.39,0.02-1.05-0.42-1.14    V123.22z"/>
            <circle cx="295.83" cy="110.28" r="1.586"/>
        </g>
        <g id="__Şırnak">
            <path d="    M147.59,117.01c-0.06-0.43-0.12-0.86-0.18-1.29c-0.5-0.25-0.62-1.03-0.87-1.49c-0.28-0.41-0.57-0.82-0.85-1.23    c-0.38-0.91-0.75-1.81-1.13-2.72c-0.68-0.14-1.13-0.96-1.5-1.5c0-0.91-0.83-1.84-1.27-2.56c-0.39-0.87-0.79-1.74-1.18-2.6    c-0.36-0.59-0.73-1.18-1.09-1.77c-0.45-0.41-0.91-0.82-1.36-1.22c-2.08-1.44-3.1-3.05-4.08-5.3c0.18-0.32-0.34-2.22-0.44-2.72    c-0.22-1.12,0.09-2.04,0.31-3.13c0.32,0.01,0.76-1.01,1.02-1.3c1.15-1.23,2.19-2.61,2.88-4.19c0.8-2.03,1.6-4.07,2.4-6.1    c0.77-1.48,1.54-2.95,2.31-4.43c0.22-0.66,0.78-1.1,1.19-1.63c0.28-0.64,0.56-1.28,0.85-1.92c0.21-0.27,0.43-0.55,0.64-0.82    c0.34-0.29,0.68-0.59,1.02-0.88c0.74-0.71,1.55-1.2,2.18-2.02c0,0,0.11-0.23,0.75-0.23c1.76,0.51,3.53,1.03,5.29,1.54    c0.83,0.26,1.82,0.91,2.73,0.77c0.37,0.18,0.67,0.44,1.09,0.41c0.59,0.36,1.18,0.73,1.77,1.09c0.62,0.93,0.93,1.38,1.9,2.04    c0.86,0.27,1.72,0.54,2.58,0.82c0.85,0.57,1.69,1.14,2.54,1.71c0.65,0.34,1.3,0.67,1.95,1.01c0.9,0.59,2.11,0.58,3.14,0.77    c0.36,0.06,0.72,0.12,1.08,0.18c0.32-0.32,0.74-0.09,1.08-0.28c1.09-0.63,2.18-1.26,3.27-1.89c0.63-0.42,2.72-2.4,2.72-3.13    c0.44-0.44,0.95-0.99,0.95-1.63c0.42-0.42,0.95-1.44,0.95-2.04c0.38-0.58,0.64-1.09,0.82-1.77c0-0.45,0-0.91,0-1.36    c0.25-1.05,0.5-2.11,0.76-3.16c0.13-0.53,0.05-1.16,0.47-1.6c0.28-1.41,0.55-2.81,0.83-4.22c0.1-0.53,0.01-1.24,0.4-1.63    c0-1.77,0.85-3.83,1.3-5.6c0.13-0.53,0.08-1.75,0.74-1.92c0.14-0.03,0.28-0.07,0.42-0.1c0.44,0.44,1.06,0.53,1.63,0.68    c0.44,0.23,0.89,0.45,1.33,0.68c0.78,0.21,1.57,0.42,2.35,0.62c0.63,0.16,1.26,0.31,1.9,0.47c0.82,0.27,1.63,0.54,2.45,0.82    c0.5,0,1,0,1.5,0c1.45,0.18,2.9,0.36,4.35,0.54c1.72-0.05,3.45-0.09,5.17-0.14c0.34-0.34,2.41-0.95,2.99-1.09    c0.26-0.06,0.42-0.19,0.54-0.41c0.41-0.14,0.82-0.27,1.22-0.41c0.32-0.21,0.65-0.42,0.97-0.63c1.13-0.4,2.26-0.81,3.39-1.21    c0.18-0.29,0.59-0.52,0.94-0.47c0.44-0.3,0.88-0.6,1.33-0.9c1.93-1.13,3.58-2.5,5.77-3.09c2.03-0.48,4.07-0.97,6.1-1.45    c2.83-0.09,5.48,0.38,8.12,1.3c1.43,0.5,2.78,1.18,4.12,1.29c0.6,0.05,1.9,0.59,2.04,0.82c0.66,0.49,1.89,1.36,2.72,1.36    c0.41,0.41,1.34,0.82,1.9,0.82c0.43,0.3,0.72,0.43,1.22,0.54c0.62,0.62,1.51,0.96,2.31,1.23c2.58,0.63,5.17,1.27,7.75,1.9    c0.82,0,1.53,0.45,2.29,0.44c1.09-0.02,2.41,0.54,3.29,1.19c1.07,0,2.07,0.18,3.13,0.41c0.71,0.23,1.43,0.46,2.14,0.69    c0.38,0.06,0.75,0.11,1.13,0.17c0.39,0.16,2.1,0.8,2.37,0.68c0.66,0.29,1.26,0.55,1.98,0.63c0.77,0.28,1.54,0.56,2.31,0.83    c1.45,0.31,2.9,0.63,4.36,0.94c0.77,0,1.54,0,2.31,0c1.68-0.35,3.5-0.37,4.76-1.63c0.24-0.24,0.95-0.54,0.95-0.82l0.27,0.14    c-0.59,0.8,0.02,2.18-0.14,3.13c-0.34,2.08,0.5,3.92,0.67,6c0.14,1.6-0.24,3.98,0.28,5.42c-0.09,0.95-0.18,1.9-0.27,2.86    c-0.36,0.54-0.73,1.09-1.09,1.63c-0.5-0.16-1.14,0.79-1.48,1.12c-1.18,1.15-2.29,2.46-3.42,3.78c-0.32-0.09-0.92,0.37-1.22,0.54    c-0.23,0.09-0.45,0.18-0.68,0.27c-1.41-0.19-2.85,1.61-3.54,2.58c-0.27,0.14-0.54,0.27-0.82,0.41c-0.41,0.09-0.82,0.19-1.22,0.28    c-1.22,0.22-2.08,0.69-3.13,1.35c-0.63,0.27-1.27,0.54-1.9,0.82c-1.95,0.68-3.9,1.36-5.85,2.04c-1.64,0.16-3.33,0.23-4.91,0.77    c-0.38,0.13-1.07,0.16-1.34,0.46c-0.27,0.04-0.55,0.08-0.82,0.12c-0.23,0.18-0.45,0.36-0.68,0.54c-0.95-0.11-1.86,0.61-2.86,0.82    c-0.31,0.25-0.63,0.51-0.94,0.76c-1.14,0.52-2.27,1.03-3.41,1.55c0.03,0.27-0.12,0.31-0.28,0.51l-0.11,0.61    c-0.18,0.08-0.37,0.16-0.55,0.24c-0.88,0.88-2.68,2.17-2.55,3.53c0.25,2.62,1.17,5.03,3.25,6.72c1.2,0.68,2.41,1.37,3.61,2.05    c1.44,0.95,2.82,3.13,3.12,4.84c0.21,1.85,0.46,5.29,0.46,5.29c-0.27-0.05-0.54-0.09-0.82-0.14c-3.46,0-6.95,0.4-10.47,0.68    c-0.77-0.05-1.54-0.09-2.31-0.14c-0.73,0.05-1.45,0.09-2.18,0.14c-0.23,0.09-0.45,0.18-0.68,0.27c-0.63-0.05-1.27-0.09-1.9-0.14    c-1.14,0.08-2.27,0.16-3.41,0.24c-1.63,0.06-3.26,0.11-4.89,0.17c-0.79,0.06-1.53,0.06-1.5,0.96c0.5,3.26,1,6.52,1.5,9.78    c0.18,0.68,0.36,1.36,0.54,2.04c-0.05,0.32-0.09,0.63-0.14,0.95c0.08,0.26,0.16,0.51,0.25,0.77c-0.08,0.22-0.25,0.73-0.38,0.74    c-1.84,0.24-3.47-0.37-5.31-0.43c-1.09-0.03-2.14,0.08-3.26-0.04c-0.92-0.1-1.98-0.41-2.86-0.09c-0.32-0.14-0.63-0.27-0.95-0.41    c-0.09,0.05-0.18,0.09-0.27,0.14c-0.31-0.01-0.62-0.03-0.93-0.04c-1.14-0.17-2.28-0.33-3.42-0.5c-0.63-0.18-1.27-0.36-1.9-0.54    c-0.32-0.18-0.63-0.36-0.95-0.54c-0.32,0-0.63,0-0.95,0c-0.74-0.14-2.12-1.06-2.72-1.5c-1.18-0.54-2.36-1.09-3.54-1.63    c-0.43-0.11-0.86-0.22-1.3-0.33l-0.99-0.22c0.05-1.43-1.59-1.09-2.48-1.62c-0.63-0.18-1.27-0.36-1.9-0.54    c-1.41-0.48-2.74-0.9-4.22-1.13c-0.9,0.01-1.81,0.03-2.71,0.04c-1.1,0-2.21,0.15-3.31-0.07c-0.85,0.03-1.7,0.06-2.55,0.09    c-0.27-0.1-0.54-0.19-0.81-0.29c-1.72-0.18-3.45-0.36-5.17-0.54c-0.48-0.41-2.24-0.47-2.99-0.54c-1.77,0.21-3.55,0.42-5.32,0.62    c-1.25,0.23-2.37,0.57-3.51,1.14c-0.48-0.16-0.63,0.03-1.09,0.14c-0.23,0-0.45,0-0.68,0c-0.27,0.32-0.54,0.63-0.82,0.95    c-2.1,0.62-4.2,1.25-6.31,1.87c-1.38-0.31-1.58-0.68-2.53-1.6c-0.94-0.23-1.78-1.33-2.31-2.04c-0.67-0.23-1.1-0.98-1.56-1.44    c-0.69-0.55-1.39-1.1-2.08-1.66c-0.14-0.24-0.29-0.47-0.43-0.71c-0.34-0.07-0.4-0.23-0.64-0.46c-0.15-0.12-0.3-0.24-0.45-0.36    c-0.32,0.23-2.45,0.07-2.45,0.54c-0.56-0.05-0.98,0.08-1.51,0.23L147.59,117.01z"/>
            <circle cx="218.45" cy="92.74" r="1.586"/>
        </g>
    </g>
</svg>